<!DOCTYPE svg PUBLIC "-//W3C//DTD SVG 20000303 Stylable//EN" "http://www.w3.org/TR/2000/03/WD-SVG-20000303/DTD/svg-20000303-stylable.dtd"[]><svg xmlns="http://www.w3.org/2000/svg" width="997px" height="999px" viewBox="0 0 997 999"><path style="fill:#8ca0bf;stroke:#4c4c4c;stroke-width:2" d="M997,997 l-997,0 0,-997 997,0 0,997z" /><path style="fill:#963;stroke:#4c4c4c;stroke-width:2" d="M313,910 l89,-49 0,-612 193,0 0,621 97,64 40,65 -105,0 -64,-33 -65,0 -24,33 -89,-2 -16,-31 -129,33 -35,-2 108,-87z" /><path style="fill:#090;stroke:#4c4c4c;stroke-width:2" d="M111,56 l16,-56 750,0 8,56 -64,64 -5,47 -41,54 -83,-4 -49,73 -72,12 -73,-21 -72,21 -73,-12 -48,-73 -83,4 -78,-36 -5,-73 -28,-56z" /><path style="fill:#fff;stroke:#4c4c4c;stroke-width:2" d="M690,823 l-322,-65 0,-322 322,65 37,-9 34,-19 22,-34 6,-37 0,325 -9,34 -19,34 -34,22 -37,6z" /><path style="fill:#7f7f7f" d="M402,517 l0,-31 322,62 0,34 -322,-65z" /><path style="fill:#7f7f7f" d="M402,647 l0,-34 161,34 0,31 -161,-31z" /><path style="fill:#7f7f7f" d="M402,709 l0,-31 322,65 0,31 -322,-65z" /><path style="fill:#7f7f7f" d="M402,582 l0,-34 322,65 0,34 -322,-65z" /></svg>