<!DOCTYPE svg PUBLIC "-//W3C//DTD SVG 1.1//EN" "http://www.w3.org/Graphics/SVG/1.1/DTD/svg11.dtd"[]><svg version="1.1" xmlns="http://www.w3.org/2000/svg" xmlns:xlink="http://www.w3.org/1999/xlink" width="112px" height="54px" viewBox="0 0 112.5 53.598" enable-background="new 0 0 112.5 53.598" xml:space="preserve">
<g id="Group_Port2">
	
		<linearGradient id="SVGID_1_" gradientUnits="userSpaceOnUse" x1="5.9927" y1="13.9521" x2="-0.9973" y2="26.0592" gradientTransform="matrix(-0.2274 0.9738 -0.9738 -0.2274 122.9906 45.5385)">
		<stop offset="0" style="stop-color:#323232" />
		<stop offset="0.5" style="stop-color:#CCCCCC" />
		<stop offset="1" style="stop-color:#383838" />
	</linearGradient>
	<path fill="url(#SVGID_1_)" d="M94.546,42.158l5.349-1.627l1.259-5.388l10.842,2.531c0,0-1.36,7.173-3.136,9.496   c-1.774,2.325-2.806,2.986-4.807,3.698c-1.999,0.71-6.239,1.979-6.239,1.979L94.546,42.158z" />
	
		<linearGradient id="SVGID_2_" gradientUnits="userSpaceOnUse" x1="-31.103" y1="23.7021" x2="-28.7847" y2="11.194" gradientTransform="matrix(-0.9908 -0.1353 -0.1353 0.9908 70.4242 25.8746)">
		<stop offset="0" style="stop-color:#6E6F6F" />
		<stop offset="0.27" style="stop-color:#AEAEAE" />
		<stop offset="0.5" style="stop-color:#E0E0E0" />
		<stop offset="0.98" style="stop-color:#606061" />
	</linearGradient>
	<path fill="url(#SVGID_2_)" d="M97.53,40.855l2.853,12.348c0,0-0.751,0.219-2.111,0.339c-1.448,0.13-1.997-0.006-1.997-0.006   l-0.611-0.09L97.53,40.855z" />
	
		<linearGradient id="SVGID_3_" gradientUnits="userSpaceOnUse" x1="-21.0908" y1="3.3345" x2="-19.7588" y2="-9.4552" gradientTransform="matrix(-0.9278 -0.373 -0.373 0.9278 76.0661 42.3072)">
		<stop offset="0" style="stop-color:#666767" />
		<stop offset="0.5" style="stop-color:#E0E0E0" />
		<stop offset="0.98" style="stop-color:#606061" />
	</linearGradient>
	<path fill="url(#SVGID_3_)" d="M97.53,40.792l-1.124,12.821c0,0-1.417-0.185-1.875-0.309c-0.478-0.126-1.007-0.271-2.037-0.809   L97.53,40.792z" />
	
		<radialGradient id="SVGID_4_" cx="69.8789" cy="-162.8276" r="14.3347" gradientTransform="matrix(-1 -0.0013 -0.0013 1 167.9757 202.5697)" gradientUnits="userSpaceOnUse">
		<stop offset="0" style="stop-color:#606061" />
		<stop offset="0.1" style="stop-color:#626263" />
		<stop offset="0.35" style="stop-color:#A8A8A8" />
		<stop offset="0.56" style="stop-color:#E0E0E0" />
		<stop offset="0.67" style="stop-color:#C3C3C3" />
		<stop offset="0.85" style="stop-color:#919192" />
		<stop offset="1" style="stop-color:#646566" />
	</radialGradient>
	<path fill="url(#SVGID_4_)" d="M97.643,53.603l-0.411-12.766c0.633,0,2.287,0.133,2.67-2.115l12.636,0.017   C112.537,38.738,112.849,53.622,97.643,53.603z" />
	
		<linearGradient id="SVGID_5_" gradientUnits="userSpaceOnUse" x1="134.4238" y1="37.2617" x2="146.999" y2="37.2617" gradientTransform="matrix(1 0.0013 0.0013 -1 -34.5294 57.5182)">
		<stop offset="0.01" style="stop-color:#676868" />
		<stop offset="0.18" style="stop-color:#939394" />
		<stop offset="0.5" style="stop-color:#E0E0E0" />
		<stop offset="0.74" style="stop-color:#A9AAAA" />
		<stop offset="1" style="stop-color:#656667" />
	</linearGradient>
	<polygon fill="url(#SVGID_5_)" points="99.969,0.005 112.544,0.021 112.491,40.875 99.916,40.858  " />
	
		<linearGradient id="SVGID_6_" gradientUnits="userSpaceOnUse" x1="-8.7178" y1="-88.6685" x2="-8.7178" y2="-100.7876" gradientTransform="matrix(-6.7018 -3.4147 0.4803 -0.9428 61.9384 -82.7631)">
		<stop offset="0.01" style="stop-color:#696A6A" />
		<stop offset="0.49" style="stop-color:#E0E0E0" />
		<stop offset="0.96" style="stop-color:#696A6A" />
	</linearGradient>
	<polygon fill="url(#SVGID_6_)" points="93.206,52.856 50.703,31.2 56.522,19.773 99.029,41.435  " />
</g>
<g id="Group_Port1">
	
		<linearGradient id="SVGID_7_" gradientUnits="userSpaceOnUse" x1="17.4673" y1="46.9795" x2="10.477" y2="59.0869" gradientTransform="matrix(0.2261 -0.9741 0.9741 0.2261 -45.2294 11.8083)">
		<stop offset="0" style="stop-color:#323232" />
		<stop offset="0.5" style="stop-color:#CCCCCC" />
		<stop offset="1" style="stop-color:#383838" />
	</linearGradient>
	<path fill="url(#SVGID_7_)" d="M17.987,11.441l-5.347,1.634l-1.252,5.39L0.544,15.947c0,0,1.351-7.174,3.123-9.5   c1.771-2.327,2.802-2.99,4.802-3.704c1.999-0.713,6.237-1.987,6.237-1.987L17.987,11.441z" />
	
		<linearGradient id="SVGID_8_" gradientUnits="userSpaceOnUse" x1="3.2163" y1="32.9326" x2="5.5348" y2="20.4235" gradientTransform="matrix(0.9909 0.134 0.134 -0.9909 6.8838 32.2399)">
		<stop offset="0" style="stop-color:#6E6F6F" />
		<stop offset="0.27" style="stop-color:#AEAEAE" />
		<stop offset="0.5" style="stop-color:#E0E0E0" />
		<stop offset="0.98" style="stop-color:#606061" />
	</linearGradient>
	<path fill="url(#SVGID_8_)" d="M15.005,12.748L12.136,0.404c0,0,0.751-0.22,2.111-0.342c1.448-0.132,1.997,0.003,1.997,0.003   l0.611,0.09L15.005,12.748z" />
	
		<linearGradient id="SVGID_9_" gradientUnits="userSpaceOnUse" x1="9.3286" y1="19.7739" x2="10.6606" y2="6.9842" gradientTransform="matrix(0.9283 0.3718 0.3718 -0.9283 2.1185 15.2194)">
		<stop offset="0" style="stop-color:#666767" />
		<stop offset="0.5" style="stop-color:#E0E0E0" />
		<stop offset="0.98" style="stop-color:#606061" />
	</linearGradient>
	<path fill="url(#SVGID_9_)" d="M15.005,12.812l1.107-12.822c0,0,1.417,0.183,1.875,0.306c0.478,0.126,1.008,0.271,2.038,0.806   L15.005,12.812z" />
	
		<radialGradient id="SVGID_10_" cx="104.4277" cy="-158.7881" r="14.3347" gradientTransform="matrix(1 0 0 -1 -90.2002 -144.835)" gradientUnits="userSpaceOnUse">
		<stop offset="0" style="stop-color:#606061" />
		<stop offset="0.1" style="stop-color:#626263" />
		<stop offset="0.25" style="stop-color:#898A8A" />
		<stop offset="0.36" style="stop-color:#A8A8A8" />
		<stop offset="0.56" style="stop-color:#E0E0E0" />
		<stop offset="0.67" style="stop-color:#C3C3C3" />
		<stop offset="0.85" style="stop-color:#919192" />
		<stop offset="1" style="stop-color:#646566" />
	</radialGradient>
	<path fill="url(#SVGID_10_)" d="M14.876,0.001l0.428,12.766c-0.633,0.001-2.287-0.13-2.667,2.118H0.001   C0.001,14.885-0.33,0.001,14.876,0.001z" />
	
		<linearGradient id="SVGID_11_" gradientUnits="userSpaceOnUse" x1="99.9248" y1="33.1699" x2="112.5" y2="33.1699" gradientTransform="matrix(-1 0 0 1 112.5439 0.0049)">
		<stop offset="0.01" style="stop-color:#676868" />
		<stop offset="0.18" style="stop-color:#939394" />
		<stop offset="0.5" style="stop-color:#E0E0E0" />
		<stop offset="0.74" style="stop-color:#A9AAAA" />
		<stop offset="1" style="stop-color:#656667" />
	</linearGradient>
	<rect x="0.044" y="12.748" fill="url(#SVGID_11_)" width="12.575" height="40.854" />
	
		<linearGradient id="SVGID_12_" gradientUnits="userSpaceOnUse" x1="-4.7578" y1="-88.7915" x2="-4.7578" y2="-100.9102" gradientTransform="matrix(-8.2889 -4.2234 0.4803 -0.9428 49.2837 -89.4514)">
		<stop offset="0" style="stop-color:#6E6F70" />
		<stop offset="0.51" style="stop-color:#E0E0E0" />
		<stop offset="0.78" style="stop-color:#8F9091" />
		<stop offset="0.99" style="stop-color:#646566" />
	</linearGradient>
	<polygon fill="url(#SVGID_12_)" points="66.538,39.173 13.97,12.388 19.788,0.961 72.362,27.751  " />
</g>
<g id="Group_Port_Middle">
	
		<radialGradient id="SVGID_13_" cx="56.1289" cy="27.502" r="13.0645" gradientTransform="matrix(-1 0 0 -1 112.5439 53.6025)" gradientUnits="userSpaceOnUse">
		<stop offset="0" style="stop-color:#ECEDED" />
		<stop offset="1" style="stop-color:#6D6E71" />
	</radialGradient>
	<path fill="url(#SVGID_13_)" d="M69.48,26.101c0-7.216-5.85-13.063-13.064-13.063c-7.216,0-13.066,5.848-13.066,13.063   c0,7.215,5.851,13.064,13.066,13.064C63.631,39.165,69.48,33.315,69.48,26.101" />
</g>
</svg>