<!DOCTYPE svg PUBLIC "-//W3C//DTD SVG 1.1//EN" "http://www.w3.org/Graphics/SVG/1.1/DTD/svg11.dtd"[]><svg version="1.1" xmlns="http://www.w3.org/2000/svg" xmlns:xlink="http://www.w3.org/1999/xlink" width="112px" height="109px" viewBox="0 0 112.5 108.79" enable-background="new 0 0 112.5 108.79" xml:space="preserve">
<g id="Group_Valve">
	<linearGradient id="SVGID_1_" gradientUnits="userSpaceOnUse" x1="0" y1="84.0039" x2="6.9385" y2="84.0039">
		<stop offset="0" style="stop-color:#383838" />
		<stop offset="0.45" style="stop-color:#ECECEC" />
		<stop offset="0.55" style="stop-color:#D9D9D9" />
		<stop offset="0.76" style="stop-color:#A8A8A8" />
		<stop offset="0.77" style="stop-color:#A6A6A6" />
		<stop offset="1" style="stop-color:#383838" />
	</linearGradient>
	<path fill="url(#SVGID_1_)" d="M6.938,107.545H0V60.464h6.938V107.545z" />
	<linearGradient id="SVGID_2_" gradientUnits="userSpaceOnUse" x1="93.4199" y1="77.6855" x2="100.1104" y2="77.6855">
		<stop offset="0" style="stop-color:#383838" />
		<stop offset="0.45" style="stop-color:#ECECEC" />
		<stop offset="0.55" style="stop-color:#D9D9D9" />
		<stop offset="0.76" style="stop-color:#A8A8A8" />
		<stop offset="0.77" style="stop-color:#A6A6A6" />
		<stop offset="1" style="stop-color:#383838" />
	</linearGradient>
	<path fill="url(#SVGID_2_)" d="M93.42,53.525h6.69v48.32h-6.69V53.525z" />
	<linearGradient id="SVGID_3_" gradientUnits="userSpaceOnUse" x1="48.3286" y1="84.3604" x2="52.0302" y2="77.9491">
		<stop offset="0" style="stop-color:#383838" />
		<stop offset="0.45" style="stop-color:#ECECEC" />
		<stop offset="0.55" style="stop-color:#D9D9D9" />
		<stop offset="0.76" style="stop-color:#A8A8A8" />
		<stop offset="0.77" style="stop-color:#A6A6A6" />
		<stop offset="1" style="stop-color:#383838" />
	</linearGradient>
	<path fill="url(#SVGID_3_)" d="M93.42,101.846l-3.549,5.989L6.938,60.464l3.469-5.947L93.42,101.846z" />
	<radialGradient id="SVGID_4_" cx="6.667" cy="60.2275" r="6.1054" gradientUnits="userSpaceOnUse">
		<stop offset="0.04" style="stop-color:#666666" />
		<stop offset="0.21" style="stop-color:#959595" />
		<stop offset="0.42" style="stop-color:#CACACA" />
		<stop offset="0.58" style="stop-color:#EBEBEB" />
		<stop offset="0.66" style="stop-color:#F7F7F7" />
		<stop offset="0.69" style="stop-color:#EBEBEB" />
		<stop offset="0.84" style="stop-color:#B1B1B1" />
		<stop offset="0.94" style="stop-color:#8D8D8D" />
		<stop offset="1" style="stop-color:#808080" />
	</radialGradient>
	<path fill="url(#SVGID_4_)" d="M6.938,61.269v-0.805l-4.243-5.505c0,0-1.511,1.546-1.808,2.191C0.125,58.809,0,59.722,0,59.722   v2.56L6.938,61.269z" />
	<radialGradient id="SVGID_5_" cx="7.3447" cy="60.7734" r="6.5593" gradientUnits="userSpaceOnUse">
		<stop offset="0.04" style="stop-color:#666666" />
		<stop offset="0.21" style="stop-color:#959595" />
		<stop offset="0.42" style="stop-color:#CACACA" />
		<stop offset="0.58" style="stop-color:#EBEBEB" />
		<stop offset="0.66" style="stop-color:#F7F7F7" />
		<stop offset="0.69" style="stop-color:#EBEBEB" />
		<stop offset="0.84" style="stop-color:#B1B1B1" />
		<stop offset="0.94" style="stop-color:#8D8D8D" />
		<stop offset="1" style="stop-color:#808080" />
	</radialGradient>
	<path fill="url(#SVGID_5_)" d="M6.938,60.464l-4.254-5.506c0,0,1.746-1.306,3.799-1.42c1.892-0.105,3.834,0.939,3.834,0.939   L6.938,60.464z" />	
		<radialGradient id="SVGID_6_" cx="-11.0352" cy="89.5225" r="6.1042" gradientTransform="matrix(-1 0 0 -1 82.4844 191.6875)" gradientUnits="userSpaceOnUse">
		<stop offset="0.04" style="stop-color:#666666" />
		<stop offset="0.21" style="stop-color:#959595" />
		<stop offset="0.42" style="stop-color:#CACACA" />
		<stop offset="0.58" style="stop-color:#EBEBEB" />
		<stop offset="0.66" style="stop-color:#F7F7F7" />
		<stop offset="0.69" style="stop-color:#EBEBEB" />
		<stop offset="0.84" style="stop-color:#B1B1B1" />
		<stop offset="0.94" style="stop-color:#8D8D8D" />
		<stop offset="1" style="stop-color:#808080" />
	</radialGradient>
	<path fill="url(#SVGID_6_)" d="M93.42,101.088l-0.169,0.76l4.164,5.586c0,0,1.512-1.546,1.808-2.191   c0.763-1.658,0.888-2.571,0.888-2.571v-2.56L93.42,101.088z" />	
		<radialGradient id="SVGID_7_" cx="-10.3594" cy="90.1494" r="6.5583" gradientTransform="matrix(-1 0 0 -1 82.4844 191.6875)" gradientUnits="userSpaceOnUse">
		<stop offset="0.04" style="stop-color:#666666" />
		<stop offset="0.21" style="stop-color:#959595" />
		<stop offset="0.42" style="stop-color:#CACACA" />
		<stop offset="0.58" style="stop-color:#EBEBEB" />
		<stop offset="0.66" style="stop-color:#F7F7F7" />
		<stop offset="0.69" style="stop-color:#EBEBEB" />
		<stop offset="0.84" style="stop-color:#B1B1B1" />
		<stop offset="0.94" style="stop-color:#8D8D8D" />
		<stop offset="1" style="stop-color:#808080" />
	</radialGradient>
	<path fill="url(#SVGID_7_)" d="M93.251,101.848l4.254,5.506c0,0-1.746,1.306-3.8,1.42c-1.891,0.104-3.834-0.938-3.834-0.938   L93.251,101.848z" />
</g>
<g id="Group_Handle">
	<linearGradient id="SVGID_8_" gradientUnits="userSpaceOnUse" x1="85.9785" y1="19.25" x2="89.4624" y2="13.2157">
		<stop offset="0" style="stop-color:#383838" />
		<stop offset="0.45" style="stop-color:#ECECEC" />
		<stop offset="0.55" style="stop-color:#D9D9D9" />
		<stop offset="0.76" style="stop-color:#A8A8A8" />
		<stop offset="0.77" style="stop-color:#A6A6A6" />
		<stop offset="1" style="stop-color:#383838" />
	</linearGradient>
	<path fill="url(#SVGID_8_)" d="M62.94,5.948l3.47-5.947l46.09,26.515l-3.469,5.947L62.94,5.948z" />
	<linearGradient id="SVGID_9_" gradientUnits="userSpaceOnUse" x1="71.8184" y1="50.4922" x2="65.8382" y2="47.0396">
		<stop offset="0" style="stop-color:#383838" />
		<stop offset="0.45" style="stop-color:#ECECEC" />
		<stop offset="0.55" style="stop-color:#D9D9D9" />
		<stop offset="0.76" style="stop-color:#A8A8A8" />
		<stop offset="0.77" style="stop-color:#A6A6A6" />
		<stop offset="1" style="stop-color:#383838" />
	</linearGradient>
	<path fill="url(#SVGID_9_)" d="M89.395,19.187c0-1.918-1.555-3.475-3.475-3.475c-1.283,0-2.39,0.702-2.992,1.735l-0.003-0.002   l-34.237,59.51l0.103,0.059c-0.231,0.453-0.374,0.959-0.374,1.503c0,1.842,1.493,3.334,3.333,3.334c1.185,0,2.218-0.622,2.81-1.553   l0.002,0.001l34.136-59.044C89.139,20.477,89.395,19.965,89.395,19.187z" />
</g> 
</svg>