<!DOCTYPE svg PUBLIC "-//W3C//DTD SVG 1.1//EN" "http://www.w3.org/Graphics/SVG/1.1/DTD/svg11.dtd"[]><svg version="1.1" xmlns="http://www.w3.org/2000/svg" xmlns:xlink="http://www.w3.org/1999/xlink" width="112px" height="87px" viewBox="0 0 112.5 87.301" enable-background="new 0 0 112.5 87.301" xml:space="preserve">
<g id="Group_Port">
	<g>
		<defs>
			<rect id="SVGID_1_" x="5.401" y="22.95" width="31.948" height="64.351" />
		</defs>
		<clipPath id="SVGID_2_">
			<use xlink:href="#SVGID_1_" overflow="visible" />
		</clipPath>
		
			<linearGradient id="SVGID_3_" gradientUnits="userSpaceOnUse" x1="12.6675" y1="99.8433" x2="13.6675" y2="99.8433" gradientTransform="matrix(31.9492 0 0 -31.9492 -399.3107 3245.0195)">
			<stop offset="0" style="stop-color:#5C5D60" />
			<stop offset="0.45" style="stop-color:#ECECED" />
			<stop offset="0.57" style="stop-color:#D9DADB" />
			<stop offset="0.77" style="stop-color:#B1B3B6" />
			<stop offset="1" style="stop-color:#5C5D60" />
		</linearGradient>
		<rect x="5.401" y="22.95" clip-path="url(#SVGID_2_)" fill="url(#SVGID_3_)" width="31.948" height="64.351" />
	</g>
	<g>
		<defs>
			<rect id="SVGID_4_" y="28.35" width="42.75" height="10.799" />
		</defs>
		<clipPath id="SVGID_5_">
			<use xlink:href="#SVGID_4_" overflow="visible" />
		</clipPath>
		
			<linearGradient id="SVGID_6_" gradientUnits="userSpaceOnUse" x1="12.6626" y1="99.8374" x2="13.6626" y2="99.8374" gradientTransform="matrix(42.75 0 0 -42.75 -541.3218 4301.7925)">
			<stop offset="0" style="stop-color:#5C5D60" />
			<stop offset="0.45" style="stop-color:#ECECED" />
			<stop offset="0.57" style="stop-color:#D9DADB" />
			<stop offset="0.77" style="stop-color:#B1B3B6" />
			<stop offset="1" style="stop-color:#5C5D60" />
		</linearGradient>
		<rect y="28.35" clip-path="url(#SVGID_5_)" fill="url(#SVGID_6_)" width="42.75" height="10.799" />
	</g>
	<g>
		<defs>
			<rect id="SVGID_7_" y="71.326" width="42.75" height="10.574" />
		</defs>
		<clipPath id="SVGID_8_">
			<use xlink:href="#SVGID_7_" overflow="visible" />
		</clipPath>
		
			<linearGradient id="SVGID_9_" gradientUnits="userSpaceOnUse" x1="12.6626" y1="99.8374" x2="13.6626" y2="99.8374" gradientTransform="matrix(42.75 0 0 -42.75 -541.3218 4344.6675)">
			<stop offset="0" style="stop-color:#5C5D60" />
			<stop offset="0.45" style="stop-color:#ECECED" />
			<stop offset="0.57" style="stop-color:#D9DADB" />
			<stop offset="0.77" style="stop-color:#B1B3B6" />
			<stop offset="1" style="stop-color:#5C5D60" />
		</linearGradient>
		<rect y="71.326" clip-path="url(#SVGID_8_)" fill="url(#SVGID_9_)" width="42.75" height="10.574" />
	</g>
</g>
<g id="Group_Pipe">
	<g>
		<defs>
			<path id="SVGID_10_" d="M55.25,49.725h-17.9c-2.98,0-5.398,2.417-5.398,5.399c0,2.983,2.418,5.4,5.398,5.4h17.9V49.725z" />
		</defs>
		<clipPath id="SVGID_11_">
			<use xlink:href="#SVGID_10_" overflow="visible" />
		</clipPath>
		
			<linearGradient id="SVGID_12_" gradientUnits="userSpaceOnUse" x1="12.6489" y1="99.8237" x2="13.6489" y2="99.8237" gradientTransform="matrix(0 10.8008 10.8008 0 -1034.5791 -86.8924)">
			<stop offset="0" style="stop-color:#5C5D60" />
			<stop offset="0.45" style="stop-color:#ECECED" />
			<stop offset="0.57" style="stop-color:#D9DADB" />
			<stop offset="0.77" style="stop-color:#B1B3B6" />
			<stop offset="1" style="stop-color:#5C5D60" />
		</linearGradient>
		<rect x="31.951" y="49.725" clip-path="url(#SVGID_11_)" fill="url(#SVGID_12_)" width="23.299" height="10.8" />
	</g>
</g>
<g id="Group_Display">
	<g>
		<defs>
			<polygon id="SVGID_13_" points="109.125,32.175 104.4,27.675 58.5,27.675 54,32.175 54,78.076 58.5,82.801 104.4,82.801      109.125,78.076    " />
		</defs>
		<clipPath id="SVGID_14_">
			<use xlink:href="#SVGID_13_" overflow="visible" />
		</clipPath>
		
			<linearGradient id="SVGID_15_" gradientUnits="userSpaceOnUse" x1="12.6587" y1="99.8345" x2="13.6587" y2="99.8345" gradientTransform="matrix(0 55.126 55.126 0 -5421.8872 -670.1337)">
			<stop offset="0" style="stop-color:#464547" />
			<stop offset="0.45" style="stop-color:#A7A9AC" />
			<stop offset="0.66" style="stop-color:#959799" />
			<stop offset="0.77" style="stop-color:#8A8C8E" />
			<stop offset="1" style="stop-color:#464547" />
		</linearGradient>
		<rect x="54" y="27.675" clip-path="url(#SVGID_14_)" fill="url(#SVGID_15_)" width="55.125" height="55.126" />
	</g>
</g>
<g id="Group_Bevel">
	<g>
		<defs>
			<path id="SVGID_16_" d="M60.3,33.976l1.802-1.801h38.924l3.375,3.6v38.926l-1.575,1.799l-1.8,1.576H62.102L58.5,74.701V35.774     L60.3,33.976z M109.125,32.175l-4.725-4.5H58.5l-2.25,2.25L54,32.175v45.901l4.5,4.726h45.9l2.475-2.25l2.25-2.476V32.175z" />
		</defs>
		<clipPath id="SVGID_17_">
			<use xlink:href="#SVGID_16_" overflow="visible" />
		</clipPath>
		
			<linearGradient id="SVGID_18_" gradientUnits="userSpaceOnUse" x1="12.6626" y1="99.8374" x2="13.6626" y2="99.8374" gradientTransform="matrix(55.125 0 0 -55.125 -644.033 5558.7495)">
			<stop offset="0" style="stop-color:#5C5D60" />
			<stop offset="0.45" style="stop-color:#ECECED" />
			<stop offset="0.57" style="stop-color:#D9DADB" />
			<stop offset="0.77" style="stop-color:#B1B3B6" />
			<stop offset="1" style="stop-color:#5C5D60" />
		</linearGradient>
		<rect x="54" y="27.675" clip-path="url(#SVGID_17_)" fill="url(#SVGID_18_)" width="55.125" height="55.126" />
	</g>
	<rect x="59.625" y="24.075" fill="#7F7F7F" width="13.95" height="3.6" />
</g>
<g id="Group_1">
	<g>
		<defs>
			<polygon id="SVGID_19_" points="86.175,23.625 85.5,22.95 77.4,22.95 76.95,23.625 76.95,86.85 77.398,87.3 85.501,87.3      86.175,86.85    " />
		</defs>
		<clipPath id="SVGID_20_">
			<use xlink:href="#SVGID_19_" overflow="visible" />
		</clipPath>
		
			<linearGradient id="SVGID_21_" gradientUnits="userSpaceOnUse" x1="12.6602" y1="99.8354" x2="13.6602" y2="99.8354" gradientTransform="matrix(0 64.3506 64.3506 0 -6342.9507 -791.7686)">
			<stop offset="0" style="stop-color:#5C5D60" />
			<stop offset="0.45" style="stop-color:#ECECED" />
			<stop offset="0.57" style="stop-color:#D9DADB" />
			<stop offset="0.77" style="stop-color:#B1B3B6" />
			<stop offset="1" style="stop-color:#5C5D60" />
		</linearGradient>
		<rect x="76.95" y="22.95" clip-path="url(#SVGID_20_)" fill="url(#SVGID_21_)" width="9.225" height="64.35" />
	</g>
	<path fill="#B2B2B2" d="M86.175,86.85V23.625L85.5,22.95h-8.1l-0.45,0.675V86.85l0.45,0.451h8.1L86.175,86.85z M78.075,86.176   V24.075h6.975v62.101H78.075z" />
</g>
<g id="Group_Bolt">
	<g>
		<defs>
			<rect id="SVGID_22_" width="112.5" height="87.3" />
		</defs>
		<clipPath id="SVGID_23_">
			<use xlink:href="#SVGID_22_" overflow="visible" />
		</clipPath>
		<polygon clip-path="url(#SVGID_23_)" fill="#7F7F7F" points="109.125,43.65 112.5,42.976 112.5,37.575 109.125,36.9   " />
		<polygon clip-path="url(#SVGID_23_)" fill="#B2B2B2" points="109.125,42.525 112.5,42.075 112.5,37.575 109.125,36.9   " />
		<polygon clip-path="url(#SVGID_23_)" fill="#D1D1D3" points="112.5,38.476 112.5,37.576 109.125,36.9 109.125,38.025   " />
	</g>
</g>
<g id="Group_Bend_Pipe">
	
		<linearGradient id="SVGID_24_" gradientUnits="userSpaceOnUse" x1="12.5376" y1="49.4634" x2="17.252" y2="49.4634" gradientTransform="matrix(0 1 -1 0 99.8379 -12.6626)">
		<stop offset="0" style="stop-color:#383838" />
		<stop offset="0.45" style="stop-color:#ECECEC" />
		<stop offset="0.55" style="stop-color:#D9D9D9" />
		<stop offset="0.76" style="stop-color:#A8A8A8" />
		<stop offset="0.77" style="stop-color:#A6A6A6" />
		<stop offset="1" style="stop-color:#383838" />
	</linearGradient>
	<rect x="37.35" y="-0.125" fill="url(#SVGID_24_)" width="26.049" height="4.714" />
	
		<linearGradient id="SVGID_25_" gradientUnits="userSpaceOnUse" x1="378.833" y1="476.7915" x2="374.1211" y2="476.7915" gradientTransform="matrix(-1 0 0 -1 442.9985 491.5049)">
		<stop offset="0" style="stop-color:#383838" />
		<stop offset="0.23" style="stop-color:#A6A6A6" />
		<stop offset="0.24" style="stop-color:#A8A8A8" />
		<stop offset="0.45" style="stop-color:#D9D9D9" />
		<stop offset="0.55" style="stop-color:#ECECEC" />
		<stop offset="1" style="stop-color:#383838" />
	</linearGradient>
	<rect x="64.164" y="5.354" fill="url(#SVGID_25_)" width="4.712" height="18.722" />
	
		<radialGradient id="SVGID_26_" cx="17.7983" cy="36.1855" r="5.5479" gradientTransform="matrix(0 1 -1 0 99.8379 -12.6626)" gradientUnits="userSpaceOnUse">
		<stop offset="0.09" style="stop-color:#4D4D4D" />
		<stop offset="0.14" style="stop-color:#696969" />
		<stop offset="0.22" style="stop-color:#949494" />
		<stop offset="0.26" style="stop-color:#A5A5A5" />
		<stop offset="0.36" style="stop-color:#C2C2C2" />
		<stop offset="0.4" style="stop-color:#CCCCCC" />
		<stop offset="0.49" style="stop-color:#DFDFDF" />
		<stop offset="0.56" style="stop-color:#E6E6E6" />
		<stop offset="0.65" style="stop-color:#C9C9C9" />
		<stop offset="0.87" style="stop-color:#7E7E7E" />
		<stop offset="1" style="stop-color:#4D4D4D" />
	</radialGradient>
	<path fill="url(#SVGID_26_)" d="M68.879,5.429c0-2.708-1.859-5.556-5.541-5.556l-0.014,4.709c0.648,0.099,0.803,0.367,0.846,0.832   C65.404,5.468,68.879,5.429,68.879,5.429z" />
</g>
</svg>