<!DOCTYPE svg PUBLIC "-//W3C//DTD SVG 20000303 Stylable//EN" "http://www.w3.org/TR/2000/03/WD-SVG-20000303/DTD/svg-20000303-stylable.dtd"[]><svg xmlns="http://www.w3.org/2000/svg" width="578px" height="999px" viewBox="0 0 601 999"><path style="fill:#7f7f7f;stroke:#000;stroke-width:2" d="M71,410 l74,0 0,74 -74,0 0,-74z" /><path style="fill:#fff;stroke:#000;stroke-width:2" d="M72,380 l29,-132 177,-30 0,15 -162,29 -30,118 -14,0z" /><path style="fill:#000;stroke:#7f7f7f;stroke-width:2" d="M95,447 l5,3 4,4 4,4 2,5 3,5 2,6 1,5 0,5 -1,9 -2,8 -4,8 -6,7 -6,5 -8,4 -8,2 -9,1 -9,-1 -9,-2 -7,-4 -6,-5 -6,-7 -4,-8 -3,-8 -1,-9 1,-5 1,-5 2,-6 2,-5 3,-5 3,-4 4,-4 4,-3 -4,-3 -4,-4 -4,-4 -2,-5 -3,-5 -1,-5 -1,-5 -1,-6 1,-9 3,-8 4,-7 6,-7 6,-6 7,-3 9,-3 9,-1 9,1 8,3 8,3 6,6 6,7 4,7 2,8 1,9 0,6 -1,5 -2,6 -3,4 -2,5 -4,4 -4,4 -5,3z" /><circle style="fill:#fff;stroke:#7f7f7f;stroke-width:2" cx="71" cy="483" r="29" /><path style="fill:#00f;stroke:#000;stroke-width:2" d="M126,175 l105,14 210,-1 105,-13 -3,-134 -105,-14 -210,0 -105,14 3,134z" /><path style="fill:#000;stroke:#000;stroke-width:2" d="M263,189 l148,0 0,14 -148,0 0,-14z" /><path style="fill:#00f;stroke:#000;stroke-width:2" d="M278,203 l118,0 0,177 -118,0 0,-177z" /><circle style="fill:#fff;stroke:#7f7f7f;stroke-width:2" cx="71" cy="410" r="29" /><path style="fill:none;stroke:#f00;stroke-width:2" d="M72,484 l-15,-15" /><path style="fill:none;stroke:#000;stroke-width:2" d="M72,514 l0,-30" /><path style="fill:none;stroke:#f00;stroke-width:2" d="M72,410 l-15,0" /><path style="fill:none;stroke:#000;stroke-width:2" d="M72,380 l0,30" /><path style="fill:#000;stroke:#000;stroke-width:2" d="M263,528 l148,0 0,30 -148,0 0,-30z" /><path style="fill:#00f;stroke:#000;stroke-width:2" d="M277,558 l119,0 0,73 -119,0 0,-73z" /><path style="fill:#00f;stroke:#000;stroke-width:2" d="M278,380 l0,-29 -59,29 0,252 29,29 177,0 30,-29 0,-266 -59,-15 0,29 29,0 0,222 -15,30 -147,0 -15,-30 0,-222 30,0z" /><path style="fill:#00f;stroke:#000;stroke-width:2" d="M248,749 l30,-88 118,0 29,88 -177,0z" /><path style="fill:#00f;stroke:#000;stroke-width:2" d="M219,749 l236,0 0,15 -236,0 0,-15z" /><path style="fill:#00f;stroke:#000;stroke-width:2" d="M219,764 l0,30 -44,14 0,89 44,44 236,0 44,-44 0,-89 -44,-15 0,-29 -236,0z" /><path style="fill:#000;stroke:#000;stroke-width:2" d="M174,897 l-14,0 0,-89 14,0 0,89z" /><path style="fill:#000;stroke:#000;stroke-width:2" d="M514,897 l-15,0 0,-89 15,0 0,89z" /><path style="fill:#00f;stroke:#000;stroke-width:2" d="M130,749 l30,0 0,207 -30,0 0,-207z" /><path style="fill:#00f;stroke:#000;stroke-width:2" d="M514,749 l29,0 0,207 -29,0 0,-207z" /><path style="fill:#000;stroke:#000;stroke-width:2" d="M219,735 l14,0 0,14 -14,0 0,-14z" /><path style="fill:#000;stroke:#000;stroke-width:2" d="M440,735 l15,0 0,14 -15,0 0,-14z" /><path style="fill:#000;stroke:#000;stroke-width:2" d="M101,956 l88,0 0,15 -88,0 0,-15z" /><path style="fill:#000;stroke:#000;stroke-width:2" d="M485,956 l88,0 0,15 -88,0 0,-15z" /><path style="fill:#000;stroke:#000;stroke-width:2" d="M116,366 l162,0 0,163 -162,0 0,-163z" /><circle style="fill:#000;stroke:#7f7f7f;stroke-width:2" cx="233" cy="483" r="29" /><path style="fill:#7f7f7f;stroke:#7f7f7f;stroke-width:2" d="M130,440 l133,0 0,-15 -133,0 0,15z" /><path style="fill:#000;stroke:#000;stroke-width:2" d="M160,336 l74,0 0,30 -74,0 0,-30z" /><path style="fill:#00f;stroke:#000;stroke-width:2" d="M307,380 l59,0 0,148 -59,0 0,-148z" /><path style="fill:#00f;stroke:#000;stroke-width:2" d="M293,440 l88,0 0,44 -88,0 0,-44z" /><path style="fill:#00f;stroke:#000;stroke-width:2" d="M116,115 l29,0 0,15 -29,0 0,-15z" /><path style="fill:#000;stroke:#000;stroke-width:2" d="M116,85 l29,0 0,30 -29,0 0,-30z" /><path style="fill:#00f;stroke:#000;stroke-width:2" d="M529,115 l29,0 0,15 -29,0 0,-15z" /><path style="fill:#000;stroke:#000;stroke-width:2" d="M529,85 l29,0 0,30 -29,0 0,-30z" /><path style="fill:#00f;stroke:#000;stroke-width:2" d="M293,115 l29,0 0,15 -29,0 0,-15z" /><path style="fill:#000;stroke:#000;stroke-width:2" d="M293,85 l29,0 0,30 -29,0 0,-30z" /><path style="fill:#00f;stroke:#000;stroke-width:2" d="M234,115 l29,0 0,15 -29,0 0,-15z" /><path style="fill:#000;stroke:#000;stroke-width:2" d="M234,85 l29,0 0,30 -29,0 0,-30z" /><path style="fill:#00f;stroke:#000;stroke-width:2" d="M175,115 l29,0 0,15 -29,0 0,-15z" /><path style="fill:#000;stroke:#000;stroke-width:2" d="M175,85 l29,0 0,30 -29,0 0,-30z" /><path style="fill:#00f;stroke:#000;stroke-width:2" d="M352,115 l29,0 0,15 -29,0 0,-15z" /><path style="fill:#000;stroke:#000;stroke-width:2" d="M352,85 l29,0 0,30 -29,0 0,-30z" /><path style="fill:#00f;stroke:#000;stroke-width:2" d="M411,115 l29,0 0,15 -29,0 0,-15z" /><path style="fill:#000;stroke:#000;stroke-width:2" d="M411,85 l29,0 0,30 -29,0 0,-30z" /><path style="fill:#00f;stroke:#000;stroke-width:2" d="M470,115 l29,0 0,15 -29,0 0,-15z" /><path style="fill:#000;stroke:#000;stroke-width:2" d="M470,85 l29,0 0,30 -29,0 0,-30z" /><path style="fill:#00f;stroke:#000;stroke-width:2" d="M101,87 l472,0 0,26 -472,0 0,-26z" /><path style="fill:#000;stroke:#000;stroke-width:2" d="M145,513 l30,0 0,30 -30,0 0,-30z" /></svg>