<!DOCTYPE svg PUBLIC "-//W3C//DTD SVG 1.1//EN" "http://www.w3.org/Graphics/SVG/1.1/DTD/svg11.dtd"[]><svg version="1.1" xmlns="http://www.w3.org/2000/svg" xmlns:xlink="http://www.w3.org/1999/xlink" width="112px" height="112px" viewBox="0 0 112.5 111.94" enable-background="new 0 0 112.5 111.94" xml:space="preserve">
<g id="Group_BodyAndPort">
	<linearGradient id="SVGID_1_" gradientUnits="userSpaceOnUse" x1="57.6016" y1="111.9375" x2="57.6016" y2="70.834">
		<stop offset="0" style="stop-color:#383838" />
		<stop offset="0.45" style="stop-color:#ECECEC" />
		<stop offset="0.55" style="stop-color:#D9D9D9" />
		<stop offset="0.76" style="stop-color:#A8A8A8" />
		<stop offset="0.77" style="stop-color:#A6A6A6" />
		<stop offset="1" style="stop-color:#383838" />
	</linearGradient>
	<rect x="2.703" y="70.834" fill="url(#SVGID_1_)" width="109.797" height="41.104" />
	<path fill="#666666" d="M21.959,70.834h1.126v41.104h-1.126V70.834z" />
	<path fill="#666666" d="M101.014,70.834h1.126v41.104h-1.126V70.834z" />
	<path fill="#565656" d="M48.311,111.938l9.234-6.982l9.01,6.982H48.311z" />
	<path fill="#4C4C4C" d="M52.14,109.01l5.405-4.055l5.18,4.055H52.14z" />
	<linearGradient id="SVGID_2_" gradientUnits="userSpaceOnUse" x1="11.7114" y1="96.2305" x2="11.7114" y2="86.543">
		<stop offset="0" style="stop-color:#1F1F1F" />
		<stop offset="0.45" style="stop-color:#999999" />
		<stop offset="0.62" style="stop-color:#868686" />
		<stop offset="0.77" style="stop-color:#737373" />
		<stop offset="1" style="stop-color:#1F1F1F" />
	</linearGradient>
	<path fill="url(#SVGID_2_)" d="M11.711,86.543c-2.675,0-4.844,2.168-4.844,4.844s2.168,4.844,4.844,4.844s4.844-2.168,4.844-4.844   S14.387,86.543,11.711,86.543z M11.711,95.855c-2.468,0-4.469-2-4.469-4.469s2.001-4.469,4.469-4.469c2.469,0,4.47,2,4.47,4.469   S14.18,95.855,11.711,95.855z" />
	<linearGradient id="SVGID_3_" gradientUnits="userSpaceOnUse" x1="107.3037" y1="96.1289" x2="107.3037" y2="86.6426">
		<stop offset="0" style="stop-color:#1F1F1F" />
		<stop offset="0.45" style="stop-color:#999999" />
		<stop offset="0.62" style="stop-color:#868686" />
		<stop offset="0.77" style="stop-color:#737373" />
		<stop offset="1" style="stop-color:#1F1F1F" />
	</linearGradient>
	<path fill="url(#SVGID_3_)" d="M107.304,86.643c-2.619,0-4.742,2.123-4.742,4.744c0,2.619,2.123,4.742,4.742,4.742   s4.742-2.123,4.742-4.742C112.046,88.766,109.923,86.643,107.304,86.643z M107.303,95.762c-2.416,0-4.375-1.959-4.375-4.375   c0-2.418,1.959-4.377,4.375-4.377c2.417,0,4.377,1.959,4.377,4.377C111.68,93.803,109.72,95.762,107.303,95.762z" />
</g>
<g id="Group_Port1">
	<linearGradient id="SVGID_4_" gradientUnits="userSpaceOnUse" x1="39.5991" y1="68.5254" x2="68.845" y2="39.2795">
		<stop offset="0" style="stop-color:#383838" />
		<stop offset="0.45" style="stop-color:#ECECEC" />
		<stop offset="0.55" style="stop-color:#D9D9D9" />
		<stop offset="0.76" style="stop-color:#A8A8A8" />
		<stop offset="0.77" style="stop-color:#A6A6A6" />
		<stop offset="1" style="stop-color:#383838" />
	</linearGradient>
	<polygon fill="url(#SVGID_4_)" points="31.767,2.202 2.703,31.266 41.931,70.857 90.5,91.779 99.887,70.857  " />
	<path d="M37.725,8.222l0.676,0.901L9.459,38.176l-1.014-0.901L37.725,8.222z" />
	<path fill="#666666" d="M50.893,21.41l0.897,0.897L22.744,51.239l-0.785-0.672L50.893,21.41z" />
	<path fill="none" stroke="#4C4C4C" stroke-width="0.25" d="M8.333,37.05V25.564h11.824V13.739h11.486V2.253" />
	<path fill="none" stroke="#4C4C4C" stroke-width="0.25" d="M37.5,7.996H26.014v11.937H14.189v11.486H3.153" />
	<path fill="none" stroke="#4C4C4C" stroke-width="0.25" d="M28.941,5.181v11.374H17.455v11.937H5.405v5.631h5.856V22.861h11.824   V10.812h11.487v-5.63H28.941" />
	<linearGradient id="SVGID_5_" gradientUnits="userSpaceOnUse" x1="29.8311" y1="34.4067" x2="29.8311" y2="24.7188">
		<stop offset="0" style="stop-color:#1F1F1F" />
		<stop offset="0.45" style="stop-color:#999999" />
		<stop offset="0.62" style="stop-color:#868686" />
		<stop offset="0.77" style="stop-color:#737373" />
		<stop offset="1" style="stop-color:#1F1F1F" />
	</linearGradient>
	<path fill="url(#SVGID_5_)" d="M29.831,24.719c-2.675,0-4.844,2.168-4.844,4.844c0,2.675,2.168,4.844,4.844,4.844   s4.844-2.168,4.844-4.844C34.675,26.887,32.506,24.719,29.831,24.719z M29.831,34.032c-2.468,0-4.469-2-4.469-4.469   s2.001-4.469,4.469-4.469c2.469,0,4.47,2,4.47,4.469S32.299,34.032,29.831,34.032z" />
</g>
<g id="Group_FrontBush">
	
		<linearGradient id="SVGID_6_" gradientUnits="userSpaceOnUse" x1="-8.271" y1="51.9751" x2="-8.271" y2="10.8721" gradientTransform="matrix(0.0391 0.0391 -0.6279 0.6279 35.1705 -4.31)">
		<stop offset="0" style="stop-color:#383838" />
		<stop offset="0.45" style="stop-color:#ECECEC" />
		<stop offset="0.55" style="stop-color:#D9D9D9" />
		<stop offset="0.76" style="stop-color:#A8A8A8" />
		<stop offset="0.77" style="stop-color:#A6A6A6" />
		<stop offset="1" style="stop-color:#383838" />
	</linearGradient>
	<polygon opacity="0.47" fill="url(#SVGID_6_)" points="4.359,30.148 0.066,25.855 25.875,0.047 30.167,4.341  " />
</g>
</svg>