<!DOCTYPE svg PUBLIC "-//W3C//DTD SVG 1.1//EN" "http://www.w3.org/Graphics/SVG/1.1/DTD/svg11.dtd"[]><svg version="1.1" id="Layer_1" xmlns="http://www.w3.org/2000/svg" xmlns:xlink="http://www.w3.org/1999/xlink" width="28px" height="112px" viewBox="0 0 28.5 112.5" enable-background="new 0 0 28.5 112.5" xml:space="preserve">
<g id="Group_Segmented_Long_V">
	
		<linearGradient id="SVGID_1_" gradientUnits="userSpaceOnUse" x1="-615.2505" y1="175.2285" x2="-615.2505" y2="203.2676" gradientTransform="matrix(0 -1 -1 0 203.7285 -560.2285)">
		<stop offset="0" style="stop-color:#5C6666" />
		<stop offset="0.41" style="stop-color:#FCFFFF" />
		<stop offset="0.61" style="stop-color:#FCFFFF" />
		<stop offset="1" style="stop-color:#5C6666" />
	</linearGradient>
	<path fill="url(#SVGID_1_)" d="M0.461,111.271v-112.5H28.5v112.5H0.461z" />
	<path fill="none" stroke="#4C4C4C" stroke-width="0.5" d="M0.461,97.695H28.5" />
	<path fill="none" stroke="#4C4C4C" stroke-width="0.5" d="M0.461,83.732H28.5" />
	<path fill="none" stroke="#4C4C4C" stroke-width="0.5" d="M0.461,69.543H28.5" />
	<path fill="none" stroke="#4C4C4C" stroke-width="0.5" d="M0.461,55.579H28.5" />
	<path fill="none" stroke="#4C4C4C" stroke-width="0.5" d="M0.461,41.389H28.5" />
	<path fill="none" stroke="#4C4C4C" stroke-width="0.5" d="M0.461,27.425H28.5" />
	<path fill="none" stroke="#4C4C4C" stroke-width="0.5" d="M0.461,13.461H28.5" />
	<path fill="none" stroke="#4C4C4C" stroke-width="0.5" d="M0.461,104.791H28.5" />
	<path fill="none" stroke="#4C4C4C" stroke-width="0.5" d="M0.461,90.714H28.5" />
	<path fill="none" stroke="#4C4C4C" stroke-width="0.5" d="M0.461,76.637H28.5" />
	<path fill="none" stroke="#4C4C4C" stroke-width="0.5" d="M0.461,62.561H28.5" />
	<path fill="none" stroke="#4C4C4C" stroke-width="0.5" d="M0.461,48.484H28.5" />
	<path fill="none" stroke="#4C4C4C" stroke-width="0.5" d="M0.461,34.52H28.5" />
	<path fill="none" stroke="#4C4C4C" stroke-width="0.5" d="M0.461,20.444H28.5" />
	<path fill="none" stroke="#4C4C4C" stroke-width="0.5" d="M0.461,6.367H28.5" />
	<path fill="none" stroke="#FCFFFF" stroke-width="0.5" d="M0.461,97.295H28.5" />
	<path fill="none" stroke="#FCFFFF" stroke-width="0.5" d="M0.461,83.332H28.5" />
	<path fill="none" stroke="#FCFFFF" stroke-width="0.5" d="M0.461,69.143H28.5" />
	<path fill="none" stroke="#FCFFFF" stroke-width="0.5" d="M0.461,55.178H28.5" />
	<path fill="none" stroke="#FCFFFF" stroke-width="0.5" d="M0.461,40.989H28.5" />
	<path fill="none" stroke="#FCFFFF" stroke-width="0.5" d="M0.461,27.025H28.5" />
	<path fill="none" stroke="#FCFFFF" stroke-width="0.5" d="M0.461,13.061H28.5" />
	<path fill="none" stroke="#FCFFFF" stroke-width="0.5" d="M0.461,104.391H28.5" />
	<path fill="none" stroke="#FCFFFF" stroke-width="0.5" d="M0.461,90.314H28.5" />
	<path fill="none" stroke="#FCFFFF" stroke-width="0.5" d="M0.461,76.236H28.5" />
	<path fill="none" stroke="#FCFFFF" stroke-width="0.5" d="M0.461,62.161H28.5" />
	<path fill="none" stroke="#FCFFFF" stroke-width="0.5" d="M0.461,48.083H28.5" />
	<path fill="none" stroke="#FCFFFF" stroke-width="0.5" d="M0.461,34.12H28.5" />
	<path fill="none" stroke="#FCFFFF" stroke-width="0.5" d="M0.461,20.043H28.5" />
	<path fill="none" stroke="#FCFFFF" stroke-width="0.5" d="M0.461,5.966H28.5" />
</g>
</svg>