<!DOCTYPE svg PUBLIC "-//W3C//DTD SVG 1.1//EN" "http://www.w3.org/Graphics/SVG/1.1/DTD/svg11.dtd"[]><svg version="1.1" xmlns="http://www.w3.org/2000/svg" xmlns:xlink="http://www.w3.org/1999/xlink" width="56px" height="112px" viewBox="0 0 56.195 112.5" enable-background="new 0 0 56.195 112.5" xml:space="preserve">
<g id="Group_Segmented_Short_V">
<linearGradient id="SVGID_1_" gradientUnits="userSpaceOnUse" x1="28.0984" y1="84.2891" x2="28.0984" y2="28.21" gradientTransform="matrix(0 -1 1 0 -28.1521 84.3479)">
	<stop offset="0" style="stop-color:#5C6666" />
	<stop offset="0.41" style="stop-color:#FCFFFF" />
	<stop offset="0.61" style="stop-color:#FCFFFF" />
	<stop offset="1" style="stop-color:#5C6666" />
</linearGradient>
<path fill="url(#SVGID_1_)" d="M0.058,112.5V0h56.079v112.5H0.058z" />
<path fill="none" stroke="#4C4C4C" stroke-width="0.7071" d="M0.058,98.924h56.079" />
<path fill="none" stroke="#4C4C4C" stroke-width="0.7071" d="M0.058,84.96h56.079" />
<path fill="none" stroke="#4C4C4C" stroke-width="0.7071" d="M0.058,70.771h56.079" />
<path fill="none" stroke="#4C4C4C" stroke-width="0.7071" d="M0.058,56.807h56.079" />
<path fill="none" stroke="#4C4C4C" stroke-width="0.7071" d="M0.058,42.617h56.079" />
<path fill="none" stroke="#4C4C4C" stroke-width="0.7071" d="M0.058,28.653h56.079" />
<path fill="none" stroke="#4C4C4C" stroke-width="0.7071" d="M0.058,14.689h56.079" />
<path fill="none" stroke="#4C4C4C" stroke-width="0.7071" d="M0.058,106.019h56.079" />
<path fill="none" stroke="#4C4C4C" stroke-width="0.7071" d="M0.058,91.942h56.079" />
<path fill="none" stroke="#4C4C4C" stroke-width="0.7071" d="M0.058,77.865h56.079" />
<path fill="none" stroke="#4C4C4C" stroke-width="0.7071" d="M0.058,63.789h56.079" />
<path fill="none" stroke="#4C4C4C" stroke-width="0.7071" d="M0.058,49.712h56.079" />
<path fill="none" stroke="#4C4C4C" stroke-width="0.7071" d="M0.058,35.748h56.079" />
<path fill="none" stroke="#4C4C4C" stroke-width="0.7071" d="M0.058,21.672h56.079" />
<path fill="none" stroke="#4C4C4C" stroke-width="0.7071" d="M0.058,7.595h56.079" />
<path fill="none" stroke="#FCFFFF" stroke-width="0.7071" d="M0.058,98.523h56.079" />
<path fill="none" stroke="#FCFFFF" stroke-width="0.7071" d="M0.058,84.56h56.079" />
<path fill="none" stroke="#FCFFFF" stroke-width="0.7071" d="M0.058,70.371h56.079" />
<path fill="none" stroke="#FCFFFF" stroke-width="0.7071" d="M0.058,56.406h56.079" />
<path fill="none" stroke="#FCFFFF" stroke-width="0.7071" d="M0.058,42.217h56.079" />
<path fill="none" stroke="#FCFFFF" stroke-width="0.7071" d="M0.058,28.253h56.079" />
<path fill="none" stroke="#FCFFFF" stroke-width="0.7071" d="M0.058,14.289h56.079" />
<path fill="none" stroke="#FCFFFF" stroke-width="0.7071" d="M0.058,105.618h56.079" />
<path fill="none" stroke="#FCFFFF" stroke-width="0.7071" d="M0.058,91.542h56.079" />
<path fill="none" stroke="#FCFFFF" stroke-width="0.7071" d="M0.058,77.465h56.079" />
<path fill="none" stroke="#FCFFFF" stroke-width="0.7071" d="M0.058,63.389h56.079" />
<path fill="none" stroke="#FCFFFF" stroke-width="0.7071" d="M0.058,49.312h56.079" />
<path fill="none" stroke="#FCFFFF" stroke-width="0.7071" d="M0.058,35.348h56.079" />
<path fill="none" stroke="#FCFFFF" stroke-width="0.7071" d="M0.058,21.271h56.079" />
<path fill="none" stroke="#FCFFFF" stroke-width="0.7071" d="M0.058,7.194h56.079" />
</g>
</svg>