<!DOCTYPE svg PUBLIC "-//W3C//DTD SVG 1.1//EN" "http://www.w3.org/Graphics/SVG/1.1/DTD/svg11.dtd"[]><svg version="1.1" xmlns="http://www.w3.org/2000/svg" xmlns:xlink="http://www.w3.org/1999/xlink" width="112px" height="112px" viewBox="0 0 112.5 112.5" enable-background="new 0 0 112.5 112.5" xml:space="preserve">
<g id="Group_Gas_90_Curve">
<radialGradient id="SVGID_1_" cx="138.4736" cy="323.1963" r="27.4648" gradientTransform="matrix(2.8617 0.2115 -0.2088 2.8735 -291.2564 -883.0439)" gradientUnits="userSpaceOnUse">
	<stop offset="0" style="stop-color:#5C6666" />
	<stop offset="0.09" style="stop-color:#5E6868" />
	<stop offset="0.2" style="stop-color:#909898" />
	<stop offset="0.42" style="stop-color:#FCFFFF" />
	<stop offset="0.6" style="stop-color:#FCFFFF" />
	<stop offset="0.86" style="stop-color:#878D8D" />
	<stop offset="0.95" style="stop-color:#5E6868" />
	<stop offset="1" style="stop-color:#5C6666" />
</radialGradient>
<path fill="url(#SVGID_1_)" d="M33.366,0.042c38.482,0,78.93,26.641,78.93,79.405l-66.9,0.198  c-1.398-9.282-5.215-11.522-11.814-12.122C32.805,49.835,33.366,0.042,33.366,0.042z" />
<linearGradient id="SVGID_2_" gradientUnits="userSpaceOnUse" x1="96.6445" y1="118.9717" x2="28.7354" y2="118.9717" gradientTransform="matrix(1 0 0 1 15.6816 -25.0117)">
	<stop offset="0" style="stop-color:#5C6666" />
	<stop offset="0.41" style="stop-color:#FCFFFF" />
	<stop offset="0.61" style="stop-color:#FCFFFF" />
	<stop offset="1" style="stop-color:#5C6666" />
</linearGradient>
<rect x="44.417" y="75.295" fill="url(#SVGID_2_)" width="67.909" height="37.329" />
<linearGradient id="SVGID_3_" gradientUnits="userSpaceOnUse" x1="2.4365" y1="25.1104" x2="2.4365" y2="92.6997" gradientTransform="matrix(1 0 0 1 15.6816 -25.0117)">
	<stop offset="0" style="stop-color:#5C6666" />
	<stop offset="0.41" style="stop-color:#FCFFFF" />
	<stop offset="0.61" style="stop-color:#FCFFFF" />
	<stop offset="1" style="stop-color:#5C6666" />
</linearGradient>
<rect y="0.099" fill="url(#SVGID_3_)" width="36.236" height="67.589" />
<path fill="none" stroke="#4C4C4C" d="M44.871,78.995h67.455" />
<path fill="none" stroke="#4C4C4C" d="M33.609,67.733V0.166" />
<path fill="none" stroke="#4C4C4C" d="M41.605,71l47.748-47.748" />
<path fill="none" stroke="#4C4C4C" d="M43.407,73.364l58.446-33.784" />
<path fill="none" stroke="#4C4C4C" d="M44.533,76.067l65.203-17.455" />
<path fill="none" stroke="#4C4C4C" d="M39.24,69.198l33.784-58.446" />
<path fill="none" stroke="#4C4C4C" d="M36.538,68.071L53.992,2.869" />
<path fill="none" stroke="#4C4C4C" d="M44.871,95.887h67.455" />
<path fill="none" stroke="#4C4C4C" d="M16.719,67.733V0.166" />
<path fill="none" stroke="#FCFFFF" d="M44.871,79.995h67.455" />
<path fill="none" stroke="#FCFFFF" d="M34.508,67.733V0.166" />
<path fill="none" stroke="#FCFFFF" d="M42.855,71.25l47.748-47.748" />
<path fill="none" stroke="#FCFFFF" d="M44.157,74.364l58.446-33.784" />
<path fill="none" stroke="#FCFFFF" d="M44.533,77.317l65.203-17.455" />
<path fill="none" stroke="#FCFFFF" stroke-width="1.0073" d="M40.712,68.642l33.677-58.615" />
<path fill="none" stroke="#FCFFFF" d="M37.538,68.321L54.992,3.119" />
<path fill="none" stroke="#FCFFFF" d="M44.871,96.887h67.455" />
<path fill="none" stroke="#FCFFFF" d="M17.719,67.733V0.166" />
</g>
</svg>