<!DOCTYPE svg PUBLIC "-//W3C//DTD SVG 20000303 Stylable//EN" "http://www.w3.org/TR/2000/03/WD-SVG-20000303/DTD/svg-20000303-stylable.dtd"[]><svg xmlns="http://www.w3.org/2000/svg" width="999px" height="724px" viewBox="0 0 998 708"><path style="fill:#b2b2b2;stroke:#4c4c4c;stroke-width:2" d="M750,124 l41,0 0,84 -41,0 0,-84z" /><path style="fill:#b2b2b2;stroke:#4c4c4c;stroke-width:2" d="M458,124 l3,-16 9,-13 13,-9 16,-3 188,0 0,-42 -188,0 -16,2 -16,4 -14,8 -13,10 -10,13 -8,14 -5,16 -1,16 0,334 42,0 0,-334z" /><path style="fill:#b2b2b2;stroke:#4c4c4c;stroke-width:2" d="M166,541 l0,-42 188,0 0,42 -188,0z" /><path style="fill:#4c4c4c" d="M833,666 l0,-63 41,0 0,63 -41,0z" /><path style="fill:#4c4c4c" d="M666,666 l0,-63 42,0 0,63 -42,0z" /><path style="fill:#4c4c4c" d="M416,666 l0,-42 42,0 0,42 -42,0z" /><path style="fill:#4c4c4c" d="M62,666 l0,-104 83,0 0,21 -62,0 0,62 21,0 0,21 -42,0z" /><path style="fill:#ccc" d="M624,208 l291,0 0,395 -291,0 0,-395z" /><path style="fill:#c4c4c4" d="M624,603 l292,0 0,-250 -292,63 0,187z" /><path style="fill:#bababa" d="M624,603 l292,0 0,-229 -292,63 0,166z" /><path style="fill:#b2b2b2" d="M624,603 l292,0 0,-187 -292,62 0,125z" /><path style="fill:none;stroke:#4c4c4c;stroke-width:2" d="M624,208 l291,0 0,395 -291,0 0,-395" /><path style="fill:#666" d="M520,479 l188,0 0,124 -188,0 0,-124z" /><path style="fill:#666" d="M354,624 l0,-166 166,0 0,166 -166,0z" /><path style="fill:#666" d="M187,458 l146,0 0,124 -146,0 0,-124z" /><path style="fill:#666" d="M62,478 l104,0 0,84 -104,0 0,-84z" /><path style="fill:#666" d="M687,0 l167,0 0,124 -167,0 0,-124z" /><path style="fill:#828282" d="M520,491 l188,0 0,100 -188,0 0,-100z" /><path style="fill:#828282" d="M370,624 l0,-166 134,0 0,166 -134,0z" /><path style="fill:#828282" d="M187,470 l146,0 0,100 -146,0 0,-100z" /><path style="fill:#828282" d="M62,487 l104,0 0,66 -104,0 0,-66z" /><path style="fill:#828282" d="M687,12 l167,0 0,100 -167,0 0,-100z" /><path style="fill:#9e9e9e" d="M520,504 l188,0 0,74 -188,0 0,-74z" /><path style="fill:#9e9e9e" d="M387,624 l0,-166 100,0 0,166 -100,0z" /><path style="fill:#9e9e9e" d="M187,483 l146,0 0,74 -146,0 0,-74z" /><path style="fill:#9e9e9e" d="M62,495 l104,0 0,50 -104,0 0,-50z" /><path style="fill:#9e9e9e" d="M687,24 l167,0 0,75 -167,0 0,-75z" /><path style="fill:#bababa" d="M520,516 l188,0 0,50 -188,0 0,-50z" /><path style="fill:#bababa" d="M404,624 l0,-166 66,0 0,166 -66,0z" /><path style="fill:#bababa" d="M187,495 l146,0 0,50 -146,0 0,-50z" /><path style="fill:#bababa" d="M62,503 l104,0 0,34 -104,0 0,-34z" /><path style="fill:#bababa" d="M687,37 l167,0 0,50 -167,0 0,-50z" /><path style="fill:#d6d6d6" d="M520,529 l12,0 12,0 12,0 11,0 12,0 12,0 11,0 12,0 12,0 12,0 11,0 12,0 12,0 11,0 12,0 12,0 0,3 0,3 0,3 0,3 0,3 0,3 0,3 0,3 -12,0 -12,0 -11,0 -12,0 -12,0 -11,0 -12,0 -12,0 -12,0 -11,0 -12,0 -12,0 -11,0 -12,0 -12,0 -12,0 0,-3 0,-3 0,-3 0,-3 0,-3 0,-3 0,-3 0,-3z" /><path style="fill:#d6d6d6" d="M420,624 l0,-10 0,-11 0,-10 0,-10 0,-11 0,-10 0,-11 0,-10 0,-11 0,-10 0,-10 0,-11 0,-10 0,-11 0,-10 0,-10 4,0 5,0 4,0 4,0 4,0 4,0 4,0 5,0 0,10 0,10 0,11 0,10 0,11 0,10 0,10 0,11 0,10 0,11 0,10 0,11 0,10 0,10 0,11 0,10 -5,0 -4,0 -4,0 -4,0 -4,0 -4,0 -5,0 -4,0z" /><path style="fill:#d6d6d6" d="M187,508 l9,0 9,0 9,0 9,-1 10,0 9,0 9,0 9,0 9,0 9,0 9,0 9,0 9,1 10,0 9,0 9,0 0,3 0,3 0,3 0,3 0,3 0,3 0,3 0,3 -9,0 -9,0 -10,0 -9,0 -9,0 -9,0 -9,0 -9,0 -9,0 -9,0 -9,0 -10,0 -9,0 -9,0 -9,0 -9,0 0,-3 0,-3 0,-3 0,-3 0,-3 0,-3 0,-3 0,-3z" /><path style="fill:#d6d6d6" d="M62,512 l7,0 6,0 7,0 6,0 7,0 6,0 7,0 6,0 7,0 6,0 7,0 6,0 7,0 6,0 7,0 6,0 0,2 0,2 0,2 0,2 0,2 0,2 0,2 0,2 -6,0 -7,0 -6,0 -7,0 -6,0 -7,0 -6,0 -7,0 -6,0 -7,0 -6,0 -7,0 -6,0 -7,0 -6,0 -7,0 0,-2 0,-2 0,-2 0,-2 0,-2 0,-2 0,-2 0,-2z" /><path style="fill:#d6d6d6" d="M687,49 l10,0 11,0 10,0 11,0 10,0 11,0 10,0 10,0 11,0 10,0 11,0 10,0 11,0 10,0 10,0 11,0 0,3 0,3 0,4 0,3 0,3 0,3 0,3 0,3 -11,0 -10,0 -10,0 -11,0 -10,0 -11,0 -10,0 -11,0 -10,0 -10,0 -11,0 -10,0 -11,0 -10,0 -11,0 -10,0 0,-3 0,-3 0,-3 0,-3 0,-3 0,-4 0,-3 0,-3z" /><path style="fill:#e5e5e5" d="M687,55 l167,0 0,13 -167,0 0,-13z" /><path style="fill:#e5e5e5" d="M520,535 l188,0 0,12 -188,0 0,-12z" /><path style="fill:#e5e5e5" d="M429,624 l0,-166 16,0 0,166 -16,0z" /><path style="fill:#e5e5e5" d="M187,514 l146,0 0,12 -146,0 0,-12z" /><path style="fill:#e5e5e5" d="M62,516 l104,0 0,8 -104,0 0,-8z" /><path style="fill:#7f7f7f;stroke:#4c4c4c;stroke-width:2" d="M0,666 l998,0 0,42 -998,0 0,-42z" /><path style="fill:none;stroke:#4c4c4c;stroke-width:2" d="M520,479 l188,0 0,124 -188,0 0,-124" /><path style="fill:none;stroke:#4c4c4c;stroke-width:2" d="M354,624 l0,-166 166,0 0,166 -166,0" /><path style="fill:none;stroke:#4c4c4c;stroke-width:2" d="M187,458 l146,0 0,124 -146,0 0,-124" /><path style="fill:none;stroke:#4c4c4c;stroke-width:2" d="M62,478 l104,0 0,84 -104,0 0,-84" /><path style="fill:none;stroke:#4c4c4c;stroke-width:2" d="M687,0 l167,0 0,124 -167,0 0,-124" /></svg>