<!DOCTYPE svg PUBLIC "-//W3C//DTD SVG 20000303 Stylable//EN" "http://www.w3.org/TR/2000/03/WD-SVG-20000303/DTD/svg-20000303-stylable.dtd"[]><svg xmlns="http://www.w3.org/2000/svg" width="999px" height="684px" viewBox="0 0 999 669"><path style="fill:#666" d="M190,391 l185,0 0,31 -185,0 0,-31z" /><path style="fill:#ccc" d="M190,401 l185,0 0,10 -185,0 0,-10z" /><path style="fill:#ccc;stroke:#4c4c4c;stroke-width:2" d="M623,550 l288,0 0,52 -288,0 0,-52z" /><path style="fill:#999;stroke:#4c4c4c;stroke-width:2" d="M623,448 l288,0 0,102 -288,0 0,-102z" /><path style="fill:#e5e5e5;stroke:#4c4c4c;stroke-width:2" d="M623,370 l288,0 0,78 -288,0 0,-78z" /><path style="fill:#b2b2b2;stroke:#4c4c4c;stroke-width:2" d="M623,324 l288,0 0,46 -288,0 0,-46z" /><path style="fill:#ff7f7f" d="M978,222 l5,-2 5,21 -5,1 -5,-20z" /><path style="fill:#000" d="M654,262 l15,0 0,-5 227,0 0,5 15,0 0,31 -15,0 0,5 -227,0 0,-5 -15,0 0,-31z" /><path style="fill:#7f7f7f" d="M654,269 l15,0 0,-3 227,0 0,3 15,0 0,17 -15,0 0,3 -227,0 0,-3 -15,0 0,-17z" /><ellipse style="fill:#e5e5e5" cx="782" cy="277" rx="128" ry="2" /><path style="fill:none;stroke:#4c4c4c;stroke-width:2" d="M669,293 l0,-31" /><path style="fill:none;stroke:#4c4c4c;stroke-width:2" d="M896,293 l0,-31" /><path style="fill:#cc8c4c" d="M623,463 l41,0 0,31 -41,0 0,-31z" /><path style="fill:#cc8c4c" d="M623,319 l41,0 0,31 -41,0 0,-31z" /><path style="fill:#e0ba93" d="M623,468 l41,0 0,21 -41,0 0,-21z" /><path style="fill:#e0ba93" d="M623,324 l41,0 0,21 -41,0 0,-21z" /><path style="fill:#f5e8db" d="M623,331 l41,0 0,6 -41,0 0,-6z" /><path style="fill:#f5e8db" d="M623,475 l41,0 0,6 -41,0 0,-6z" /><path style="fill:#3232b2" d="M664,458 l227,0 0,41 -227,0 0,-41z" /><path style="fill:#3232b2" d="M664,313 l227,0 0,42 -227,0 0,-42z" /><path style="fill:#8484d1" d="M664,465 l227,0 0,26 -227,0 0,-26z" /><path style="fill:#8484d1" d="M664,321 l227,0 0,26 -227,0 0,-26z" /><path style="fill:#fff;stroke:#4c4c4c;stroke-width:2" d="M4,602 l928,0 0,62 -928,0 0,-62z" /><path style="fill:#fff;stroke:#4c4c4c;stroke-width:2" d="M4,540 l186,0 0,-391 -186,0 0,391z" /><path style="fill:#fff;stroke:#4c4c4c;stroke-width:2" d="M417,581 l206,0 0,-577 -206,0 0,577z" /><path style="fill:none;stroke:#4c4c4c;stroke-width:2" d="M417,293 l206,0" /><path style="fill:#e5e5e5;stroke:#4c4c4c;stroke-width:2" d="M633,66 l21,0 0,103 -21,0 0,-103z" /><path style="fill:#e5e5e5;stroke:#4c4c4c;stroke-width:2" d="M623,25 l41,0 0,41 -41,0 0,-41z" /><path style="fill:#e5e5e5;stroke:#4c4c4c;stroke-width:2" d="M571,581 l52,0 0,21 -52,0 0,-21z" /><path style="fill:#e5e5e5;stroke:#4c4c4c;stroke-width:2" d="M417,581 l51,0 0,21 -51,0 0,-21z" /><path style="fill:#e5e5e5;stroke:#4c4c4c;stroke-width:2" d="M4,561 l413,0 0,41 -413,0 0,-41z" /><path style="fill:#e5e5e5;stroke:#4c4c4c;stroke-width:2" d="M417,272 l-42,0 0,268 42,0 0,-268z" /><path style="fill:#e5e5e5;stroke:#4c4c4c;stroke-width:2" d="M4,149 l16,-21 155,0 15,21 -186,0z" /><path style="fill:#e5e5e5;stroke:#4c4c4c;stroke-width:2" d="M190,149 l21,0 0,185 -21,0 0,-185z" /><path style="fill:#ccc;stroke:#4c4c4c;stroke-width:2" d="M623,211 l309,0 0,82 -21,0 0,-41 -257,0 0,51 -31,0 0,-92z" /><path style="fill:#000;stroke:#4c4c4c;stroke-width:2" d="M932,602 l10,0 0,62 -10,0 0,-62z" /><path style="fill:#d6d6f0" d="M664,331 l227,0 0,6 -227,0 0,-6z" /><path style="fill:#d6d6f0" d="M664,475 l227,0 0,6 -227,0 0,-6z" /><path style="fill:none;stroke:#4c4c4c;stroke-width:2" d="M664,458 l227,0 0,41 -227,0 0,-41" /><path style="fill:none;stroke:#4c4c4c;stroke-width:2" d="M664,313 l227,0 0,42 -227,0 0,-42" /><path style="fill:none;stroke:#4c4c4c;stroke-width:2" d="M623,463 l41,0 0,31 -41,0 0,-31" /><path style="fill:none;stroke:#4c4c4c;stroke-width:2" d="M623,319 l41,0 0,31 -41,0 0,-31" /><path style="fill:#e5e5e5;stroke:#4c4c4c;stroke-width:2" d="M932,293 l0,-82 41,0 21,66 0,16 -62,0z" /><path style="fill:#cccc4c" d="M937,267 l21,0 0,16 -21,0 0,-16z" /><path style="fill:#fff" d="M654,231 l257,0 0,11 -257,0 0,-11z" /><path style="fill:#999" d="M561,314 l41,0 0,185 -41,0 0,-185z" /><path style="fill:#999" d="M499,314 l41,0 0,185 -41,0 0,-185z" /><path style="fill:#999" d="M437,314 l42,0 0,185 -42,0 0,-185z" /><path style="fill:#000" d="M592,92 l20,0 0,180 -20,0 0,-180z" /><path style="fill:#4c4c4c;stroke:#4c4c4c;stroke-width:2" d="M10,540 l175,0 0,21 -175,0 0,-21z" /><path style="fill:#b2b2b2;stroke:#4c4c4c;stroke-width:2" d="M375,519 l-82,0 -21,-20 0,-42 21,-20 82,0 0,82z" /><path style="fill:#b2b2b2;stroke:#4c4c4c;stroke-width:2" d="M375,375 l-82,0 -21,-20 0,-42 21,-20 82,0 0,82z" /><path style="fill:#ccc" d="M375,509 l-82,0 -21,-15 0,-31 21,-16 82,0 0,62z" /><path style="fill:#ccc" d="M375,365 l-82,0 -21,-15 0,-31 21,-16 82,0 0,62z" /><path style="fill:#e5e5e5" d="M375,499 l-82,0 -21,-11 0,-20 21,-10 82,0 0,41z" /><path style="fill:#e5e5e5" d="M375,355 l-82,0 -21,-11 0,-20 21,-10 82,0 0,41z" /><path style="fill:#fff" d="M375,488 l-82,0 -21,-5 0,-10 21,-5 82,0 0,20z" /><path style="fill:#fff" d="M375,344 l-82,0 -21,-5 0,-10 21,-5 82,0 0,20z" /><path style="fill:none;stroke:#4c4c4c;stroke-width:2" d="M293,519 l0,-82" /><path style="fill:none;stroke:#4c4c4c;stroke-width:2" d="M293,375 l0,-82" /><path style="fill:none;stroke:#4c4c4c;stroke-width:2" d="M324,293 l0,82" /><path style="fill:none;stroke:#4c4c4c;stroke-width:2" d="M324,437 l0,82" /><path style="fill:none;stroke:#4c4c4c;stroke-width:2" d="M582,25 l0,227 -41,0" /><path style="fill:none;stroke:#4c4c4c;stroke-width:2" d="M530,25 l0,227 -41,0" /><path style="fill:none;stroke:#4c4c4c;stroke-width:2" d="M479,25 l0,227 -41,0" /><path style="fill:#bfbfbf" d="M561,333 l41,0 0,147 -41,0 0,-147z" /><path style="fill:#bfbfbf" d="M499,333 l41,0 0,147 -41,0 0,-147z" /><path style="fill:#bfbfbf" d="M437,333 l42,0 0,147 -42,0 0,-147z" /><path style="fill:#e5e5e5" d="M561,367 l41,0 0,78 -41,0 0,-78z" /><path style="fill:#e5e5e5" d="M499,367 l41,0 0,78 -41,0 0,-78z" /><path style="fill:#e5e5e5" d="M437,367 l42,0 0,78 -42,0 0,-78z" /><path style="fill:#fff" d="M561,394 l41,0 0,24 -41,0 0,-24z" /><path style="fill:#fff" d="M499,394 l41,0 0,24 -41,0 0,-24z" /><path style="fill:#fff" d="M437,394 l42,0 0,24 -42,0 0,-24z" /><path style="fill:none;stroke:#4c4c4c;stroke-width:2" d="M437,499 l0,-186 42,0" /><path style="fill:none;stroke:#4c4c4c;stroke-width:2" d="M499,499 l0,-186 41,0" /><path style="fill:none;stroke:#4c4c4c;stroke-width:2" d="M561,499 l0,-186 41,0" /><path style="fill:none;stroke:#ccc;stroke-width:2" d="M437,252 l0,-227 42,0" /><path style="fill:none;stroke:#ccc;stroke-width:2" d="M489,252 l0,-227 41,0" /><path style="fill:none;stroke:#ccc;stroke-width:2" d="M540,252 l0,-227 41,0" /><path style="fill:#4c4c4c;stroke:#4c4c4c;stroke-width:2" d="M468,581 l103,0 0,21 -103,0 0,-21z" /></svg>