<!DOCTYPE svg PUBLIC "-//W3C//DTD SVG 20000303 Stylable//EN" "http://www.w3.org/TR/2000/03/WD-SVG-20000303/DTD/svg-20000303-stylable.dtd"[]><svg xmlns="http://www.w3.org/2000/svg" width="671px" height="999px" viewBox="0 0 655 999"><path style="fill:#004c00" d="M337,196 l273,0 0,707 -273,0 0,-707z" /><path style="fill:#004c00" d="M75,883 l202,0 0,20 -202,0 0,-20z" /><path style="fill:#666;stroke:#4c4c4c;stroke-width:2" d="M257,550 l20,0 0,-182 -20,0 0,182z" /><path style="fill:#666" d="M161,550 l30,0 0,-102 -30,0 0,102z" /><path style="fill:#666;stroke:#4c4c4c;stroke-width:2" d="M75,550 l20,0 0,-182 -20,0 0,182z" /><path style="fill:#999" d="M260,550 l13,0 0,-182 -13,0 0,182z" /><path style="fill:#999" d="M166,550 l21,0 0,-102 -21,0 0,102z" /><path style="fill:#999" d="M78,550 l14,0 0,-182 -14,0 0,182z" /><path style="fill:#fff" d="M264,550 l5,0 0,-182 -5,0 0,182z" /><path style="fill:#fff" d="M173,550 l6,0 0,-102 -6,0 0,102z" /><path style="fill:#fff" d="M83,550 l4,0 0,-182 -4,0 0,182z" /><path style="fill:none;stroke:#4c4c4c;stroke-width:2" d="M161,550 l30,0 0,-102 -30,0 0,102" /><path style="fill:#090" d="M444,25 l4,0 0,146 -4,0 0,-146z" /><path style="fill:#090" d="M504,25 l5,0 0,146 -5,0 0,-146z" /><path style="fill:#060;stroke:#4c4c4c;stroke-width:2" d="M236,75 l61,0 0,293 -61,0 0,-293z" /><path style="fill:#060;stroke:#4c4c4c;stroke-width:2" d="M136,25 l80,0 0,423 -80,0 0,-423z" /><path style="fill:#060;stroke:#4c4c4c;stroke-width:2" d="M55,75 l60,0 0,293 -60,0 0,-293z" /><path style="fill:#008700" d="M243,75 l47,0 0,293 -47,0 0,-293z" /><path style="fill:#008700" d="M145,25 l62,0 0,423 -62,0 0,-423z" /><path style="fill:#008700" d="M62,75 l46,0 0,293 -46,0 0,-293z" /><path style="fill:#00ab00" d="M255,75 l23,0 0,293 -23,0 0,-293z" /><path style="fill:#00ab00" d="M161,25 l31,0 0,423 -31,0 0,-423z" /><path style="fill:#00ab00" d="M73,75 l24,0 0,293 -24,0 0,-293z" /><path style="fill:#0c0" d="M264,75 l5,0 0,293 -5,0 0,-293z" /><path style="fill:#0c0" d="M173,25 l6,0 0,423 -6,0 0,-423z" /><path style="fill:#0c0" d="M83,75 l4,0 0,293 -4,0 0,-293z" /><path style="fill:#007f00;stroke:#4c4c4c;stroke-width:2" d="M14,913 l21,71 585,0 20,-71 -626,0z" /><path style="fill:#090;stroke:#4c4c4c;stroke-width:2" d="M550,973 l20,-60 40,0 20,60 20,0 0,21 -121,0 0,-21 21,0z" /><path style="fill:#090;stroke:#4c4c4c;stroke-width:2" d="M25,973 l20,-60 40,0 20,60 20,0 0,21 -121,0 0,-21 21,0z" /><path style="fill:#090;stroke:#4c4c4c;stroke-width:2" d="M14,903 l0,-757 344,0 0,20 282,0 0,737 -30,0 0,-707 -252,0 0,111 -21,0 0,596 -30,0 0,-596 -262,0 0,596 -31,0z" /><path style="fill:#007f00" d="M25,166 l323,0 0,121 -323,0 0,-121z" /><path style="fill:#090;stroke:#4c4c4c;stroke-width:2" d="M368,217 l212,0 0,312 -212,0 0,-312z" /><path style="fill:none;stroke:#4c4c4c;stroke-width:2" d="M388,438 l81,0 0,-151" /><path style="fill:none;stroke:#4c4c4c;stroke-width:2" d="M479,438 l81,0 0,-151" /><path style="fill:none;stroke:#4c4c4c;stroke-width:2" d="M388,509 l172,0 0,-50" /><path style="fill:#008c00" d="M479,287 l81,0 0,151 -81,0 0,-151z" /><path style="fill:#008c00" d="M388,287 l81,0 0,151 -81,0 0,-151z" /><path style="fill:#008c00" d="M388,459 l172,0 0,50 -172,0 0,-50z" /><path style="fill:#090;stroke:#4c4c4c;stroke-width:2" d="M348,661 l252,0 0,222 -252,0 0,-222z" /><path style="fill:#090;stroke:#4c4c4c;stroke-width:2" d="M50,661 l252,0 0,222 -252,0 0,-222z" /><path style="fill:#00b200;stroke:#4c4c4c;stroke-width:2" d="M343,550 l262,0 0,111 -262,0 0,-111z" /><path style="fill:none;stroke:#0c0;stroke-width:2" d="M358,731 l30,0 0,-60" /><path style="fill:none;stroke:#0c0;stroke-width:2" d="M408,731 l30,0 0,-60" /><path style="fill:none;stroke:#0c0;stroke-width:2" d="M458,731 l31,0 0,-60" /><path style="fill:none;stroke:#0c0;stroke-width:2" d="M509,731 l31,0 0,-60" /><path style="fill:none;stroke:#0c0;stroke-width:2" d="M560,731 l30,0 0,-60" /><path style="fill:none;stroke:#0c0;stroke-width:2" d="M358,802 l30,0 0,-61" /><path style="fill:none;stroke:#0c0;stroke-width:2" d="M408,802 l30,0 0,-61" /><path style="fill:none;stroke:#0c0;stroke-width:2" d="M458,802 l31,0 0,-61" /><path style="fill:none;stroke:#0c0;stroke-width:2" d="M509,802 l31,0 0,-61" /><path style="fill:none;stroke:#0c0;stroke-width:2" d="M560,802 l30,0 0,-61" /><path style="fill:none;stroke:#0c0;stroke-width:2" d="M358,873 l30,0 0,-61" /><path style="fill:none;stroke:#0c0;stroke-width:2" d="M408,873 l30,0 0,-61" /><path style="fill:none;stroke:#0c0;stroke-width:2" d="M458,873 l31,0 0,-61" /><path style="fill:none;stroke:#0c0;stroke-width:2" d="M509,873 l31,0 0,-61" /><path style="fill:none;stroke:#0c0;stroke-width:2" d="M560,873 l30,0 0,-61" /><path style="fill:#00b200;stroke:#4c4c4c;stroke-width:2" d="M45,550 l262,0 0,111 -262,0 0,-111z" /><path style="fill:none;stroke:#0c0;stroke-width:2" d="M60,731 l30,0 0,-60" /><path style="fill:none;stroke:#0c0;stroke-width:2" d="M110,731 l30,0 0,-60" /><path style="fill:none;stroke:#0c0;stroke-width:2" d="M160,731 l31,0 0,-60" /><path style="fill:none;stroke:#0c0;stroke-width:2" d="M211,731 l30,0 0,-60" /><path style="fill:none;stroke:#0c0;stroke-width:2" d="M261,731 l31,0 0,-60" /><path style="fill:none;stroke:#0c0;stroke-width:2" d="M60,802 l30,0 0,-61" /><path style="fill:none;stroke:#0c0;stroke-width:2" d="M110,802 l30,0 0,-61" /><path style="fill:none;stroke:#0c0;stroke-width:2" d="M160,802 l31,0 0,-61" /><path style="fill:none;stroke:#0c0;stroke-width:2" d="M211,802 l30,0 0,-61" /><path style="fill:none;stroke:#0c0;stroke-width:2" d="M261,802 l31,0 0,-61" /><path style="fill:none;stroke:#0c0;stroke-width:2" d="M60,873 l30,0 0,-61" /><path style="fill:none;stroke:#0c0;stroke-width:2" d="M110,873 l30,0 0,-61" /><path style="fill:none;stroke:#0c0;stroke-width:2" d="M160,873 l31,0 0,-61" /><path style="fill:none;stroke:#0c0;stroke-width:2" d="M211,873 l30,0 0,-61" /><path style="fill:none;stroke:#0c0;stroke-width:2" d="M261,873 l31,0 0,-61" /><path style="fill:#f00" d="M448,582 l-15,23 -15,0 18,-30 12,7z" /><path style="fill:#f00" d="M150,582 l-15,23 -15,0 17,-30 13,7z" /><path style="fill:#000" d="M519,590 l-40,0 -10,15 50,0 0,-15z" /><path style="fill:#000" d="M368,605 l40,0 10,-15 -50,0 0,15z" /><path style="fill:#000" d="M221,590 l-40,0 -10,15 50,0 0,-15z" /><path style="fill:#000" d="M70,605 l40,0 10,-15 -50,0 0,15z" /><path style="fill:#00f" d="M140,605 l20,0 10,-15 -20,0 -10,15z" /><path style="fill:#00f" d="M438,605 l20,0 10,-15 -20,0 -10,15z" /><path style="fill:#008c00" d="M509,741 l31,0 0,61 -31,0 0,-61z" /><path style="fill:#008c00" d="M458,741 l31,0 0,61 -31,0 0,-61z" /><path style="fill:#008c00" d="M408,741 l30,0 0,61 -30,0 0,-61z" /><path style="fill:#008c00" d="M408,671 l30,0 0,60 -30,0 0,-60z" /><path style="fill:#008c00" d="M458,671 l31,0 0,60 -31,0 0,-60z" /><path style="fill:#008c00" d="M509,671 l31,0 0,60 -31,0 0,-60z" /><path style="fill:#008c00" d="M560,671 l30,0 0,60 -30,0 0,-60z" /><path style="fill:#008c00" d="M560,741 l30,0 0,61 -30,0 0,-61z" /><path style="fill:#008c00" d="M560,812 l30,0 0,61 -30,0 0,-61z" /><path style="fill:#008c00" d="M509,812 l31,0 0,61 -31,0 0,-61z" /><path style="fill:#008c00" d="M458,812 l31,0 0,61 -31,0 0,-61z" /><path style="fill:#008c00" d="M408,812 l30,0 0,61 -30,0 0,-61z" /><path style="fill:#008c00" d="M358,812 l30,0 0,61 -30,0 0,-61z" /><path style="fill:#008c00" d="M358,741 l30,0 0,61 -30,0 0,-61z" /><path style="fill:#008c00" d="M358,671 l30,0 0,60 -30,0 0,-60z" /><path style="fill:#008c00" d="M211,741 l30,0 0,61 -30,0 0,-61z" /><path style="fill:#008c00" d="M160,741 l31,0 0,61 -31,0 0,-61z" /><path style="fill:#008c00" d="M110,741 l30,0 0,61 -30,0 0,-61z" /><path style="fill:#008c00" d="M110,671 l30,0 0,60 -30,0 0,-60z" /><path style="fill:#008c00" d="M160,671 l31,0 0,60 -31,0 0,-60z" /><path style="fill:#008c00" d="M211,671 l30,0 0,60 -30,0 0,-60z" /><path style="fill:#008c00" d="M261,671 l31,0 0,60 -31,0 0,-60z" /><path style="fill:#008c00" d="M261,741 l31,0 0,61 -31,0 0,-61z" /><path style="fill:#008c00" d="M261,812 l31,0 0,61 -31,0 0,-61z" /><path style="fill:#008c00" d="M211,812 l30,0 0,61 -30,0 0,-61z" /><path style="fill:#008c00" d="M160,812 l31,0 0,61 -31,0 0,-61z" /><path style="fill:#008c00" d="M110,812 l30,0 0,61 -30,0 0,-61z" /><path style="fill:#008c00" d="M60,812 l30,0 0,61 -30,0 0,-61z" /><path style="fill:#008c00" d="M60,741 l30,0 0,61 -30,0 0,-61z" /><path style="fill:#008c00" d="M60,671 l30,0 0,60 -30,0 0,-60z" /><path style="fill:none;stroke:#4c4c4c;stroke-width:2" d="M590,811 l-30,0 0,61" /><path style="fill:none;stroke:#4c4c4c;stroke-width:2" d="M540,811 l-31,0 0,61" /><path style="fill:none;stroke:#4c4c4c;stroke-width:2" d="M489,811 l-30,0 0,61" /><path style="fill:none;stroke:#4c4c4c;stroke-width:2" d="M439,811 l-31,0 0,61" /><path style="fill:none;stroke:#4c4c4c;stroke-width:2" d="M388,811 l-30,0 0,61" /><path style="fill:none;stroke:#4c4c4c;stroke-width:2" d="M590,741 l-30,0 0,60" /><path style="fill:none;stroke:#4c4c4c;stroke-width:2" d="M540,741 l-31,0 0,60" /><path style="fill:none;stroke:#4c4c4c;stroke-width:2" d="M489,741 l-30,0 0,60" /><path style="fill:none;stroke:#4c4c4c;stroke-width:2" d="M439,741 l-31,0 0,60" /><path style="fill:none;stroke:#4c4c4c;stroke-width:2" d="M388,741 l-30,0 0,60" /><path style="fill:none;stroke:#4c4c4c;stroke-width:2" d="M590,670 l-30,0 0,61" /><path style="fill:none;stroke:#4c4c4c;stroke-width:2" d="M540,670 l-31,0 0,61" /><path style="fill:none;stroke:#4c4c4c;stroke-width:2" d="M489,670 l-30,0 0,61" /><path style="fill:none;stroke:#4c4c4c;stroke-width:2" d="M439,670 l-31,0 0,61" /><path style="fill:none;stroke:#4c4c4c;stroke-width:2" d="M388,670 l-30,0 0,61" /><path style="fill:none;stroke:#4c4c4c;stroke-width:2" d="M292,811 l-30,0 0,61" /><path style="fill:none;stroke:#4c4c4c;stroke-width:2" d="M242,811 l-31,0 0,61" /><path style="fill:none;stroke:#4c4c4c;stroke-width:2" d="M191,811 l-30,0 0,61" /><path style="fill:none;stroke:#4c4c4c;stroke-width:2" d="M141,811 l-31,0 0,61" /><path style="fill:none;stroke:#4c4c4c;stroke-width:2" d="M90,811 l-30,0 0,61" /><path style="fill:none;stroke:#4c4c4c;stroke-width:2" d="M292,741 l-30,0 0,60" /><path style="fill:none;stroke:#4c4c4c;stroke-width:2" d="M242,741 l-31,0 0,60" /><path style="fill:none;stroke:#4c4c4c;stroke-width:2" d="M191,741 l-30,0 0,60" /><path style="fill:none;stroke:#4c4c4c;stroke-width:2" d="M141,741 l-31,0 0,60" /><path style="fill:none;stroke:#4c4c4c;stroke-width:2" d="M90,741 l-30,0 0,60" /><path style="fill:none;stroke:#4c4c4c;stroke-width:2" d="M292,670 l-30,0 0,61" /><path style="fill:none;stroke:#4c4c4c;stroke-width:2" d="M242,670 l-31,0 0,61" /><path style="fill:none;stroke:#4c4c4c;stroke-width:2" d="M191,670 l-30,0 0,61" /><path style="fill:none;stroke:#4c4c4c;stroke-width:2" d="M141,670 l-31,0 0,61" /><path style="fill:none;stroke:#4c4c4c;stroke-width:2" d="M90,670 l-30,0 0,61" /><path style="fill:#0c0;stroke:#4c4c4c;stroke-width:2" d="M307,842 l30,0 0,-30 10,0 0,20 11,21 0,10 -11,20 0,20 -10,0 0,-30 -30,0 0,30 -10,0 0,-20 -10,-20 0,-10 10,-21 0,-20 10,0 0,30z" /><path style="fill:#0c0;stroke:#4c4c4c;stroke-width:2" d="M307,600 l30,0 0,-30 10,0 0,20 11,20 0,10 -11,20 0,21 -10,0 0,-31 -30,0 0,31 -10,0 0,-21 -10,-20 0,-10 10,-20 0,-20 10,0 0,30z" /><path style="fill:#0c0;stroke:#4c4c4c;stroke-width:2" d="M307,337 l30,0 0,-30 10,0 0,20 11,21 0,10 -11,20 0,20 -10,0 0,-30 -30,0 0,30 -10,0 0,-20 -10,-20 0,-10 10,-21 0,-20 10,0 0,30z" /><path style="fill:#060" d="M20,131 l333,0 0,15 -333,0 0,-15z" /><path style="fill:#090;stroke:#4c4c4c;stroke-width:2" d="M14,136 l344,0 0,5 -344,0 0,-5z" /><path style="fill:#090;stroke:#4c4c4c;stroke-width:2" d="M14,125 l344,0 0,5 -344,0 0,-5z" /><path style="fill:#060" d="M458,25 l31,0 0,141 -31,0 0,-141z" /><path style="fill:#008700" d="M462,25 l23,0 0,141 -23,0 0,-141z" /><path style="fill:#00ab00" d="M468,25 l11,0 0,141 -11,0 0,-141z" /><path style="fill:#0f0" d="M473,25 l2,0 0,141 -2,0 0,-141z" /><path style="fill:none;stroke:#4c4c4c;stroke-width:2" d="M458,25 l31,0 0,141 -31,0 0,-141" /><path style="fill:none;stroke:#0f0;stroke-width:2" d="M267,75 l0,-50 -36,0 0,131" /><path style="fill:none;stroke:#0f0;stroke-width:2" d="M176,25 l0,-21 -45,0 0,152" /><path style="fill:none;stroke:#0f0;stroke-width:2" d="M85,75 l0,-50 35,0 0,131" /><path style="fill:#090" d="M444,25 l4,0 0,141 -4,0 0,-141z" /><path style="fill:#00bf00" d="M55,913 l-10,60 40,0 -10,-60 -20,0z" /><path style="fill:#00bf00" d="M580,913 l-10,60 40,0 -10,-60 -20,0z" /><path style="fill:#090;stroke:#4c4c4c;stroke-width:2" d="M4,903 l646,0 0,10 -646,0 0,-10z" /></svg>