<!DOCTYPE svg PUBLIC "-//W3C//DTD SVG 20000303 Stylable//EN" "http://www.w3.org/TR/2000/03/WD-SVG-20000303/DTD/svg-20000303-stylable.dtd"[]><svg xmlns="http://www.w3.org/2000/svg" width="684px" height="999px" viewBox="0 0 665 998"><path style="fill:#999;stroke:#4c4c4c;stroke-width:2" d="M0,915 l665,0 0,83 -665,0 0,-83z" /><path style="fill:#999;stroke:#4c4c4c;stroke-width:2" d="M0,0 l665,0 0,83 -665,0 0,-83z" /><path style="fill:#991900" d="M20,83 l625,0 0,832 -625,0 0,-832z" /><path style="fill:#a1a1a1" d="M32,915 l601,0 0,83 -601,0 0,-83z" /><path style="fill:#a1a1a1" d="M32,0 l601,0 0,83 -601,0 0,-83z" /><path style="fill:#ababab" d="M64,915 l537,0 0,83 -537,0 0,-83z" /><path style="fill:#ababab" d="M64,0 l537,0 0,83 -537,0 0,-83z" /><path style="fill:#b2b2b2" d="M97,915 l471,0 0,83 -471,0 0,-83z" /><path style="fill:#b2b2b2" d="M97,0 l471,0 0,83 -471,0 0,-83z" /><path style="fill:#bababa" d="M129,915 l407,0 0,83 -407,0 0,-83z" /><path style="fill:#bababa" d="M129,0 l407,0 0,83 -407,0 0,-83z" /><path style="fill:#c4c4c4" d="M162,915 l342,0 0,83 -342,0 0,-83z" /><path style="fill:#c4c4c4" d="M162,0 l342,0 0,83 -342,0 0,-83z" /><path style="fill:#ccc" d="M194,915 l278,0 0,83 -278,0 0,-83z" /><path style="fill:#ccc" d="M194,0 l278,0 0,83 -278,0 0,-83z" /><path style="fill:#d4d4d4" d="M226,915 l213,0 0,83 -213,0 0,-83z" /><path style="fill:#d4d4d4" d="M226,0 l213,0 0,83 -213,0 0,-83z" /><path style="fill:#dedede" d="M259,915 l148,0 0,83 -148,0 0,-83z" /><path style="fill:#dedede" d="M259,0 l148,0 0,83 -148,0 0,-83z" /><path style="fill:#e5e5e5" d="M291,915 l83,0 0,83 -83,0 0,-83z" /><path style="fill:#e5e5e5" d="M291,0 l83,0 0,83 -83,0 0,-83z" /><path style="fill:#a12100" d="M51,83 l564,0 0,832 -564,0 0,-832z" /><path style="fill:#ab2b00" d="M81,83 l503,0 0,832 -503,0 0,-832z" /><path style="fill:#b23200" d="M112,83 l442,0 0,832 -442,0 0,-832z" /><path style="fill:#ba3a00" d="M142,83 l381,0 0,832 -381,0 0,-832z" /><path style="fill:#c44400" d="M172,83 l321,0 0,832 -321,0 0,-832z" /><path style="fill:#cc4c00" d="M203,83 l260,0 0,832 -260,0 0,-832z" /><path style="fill:#d45400" d="M233,83 l199,0 0,832 -199,0 0,-832z" /><path style="fill:#de5e00" d="M275,83 l115,0 0,832 -115,0 0,-832z" /><path style="fill:#f27200" d="M322,83 l21,0 0,832 -21,0 0,-832z" /><path style="fill:none;stroke:#4c4c4c;stroke-width:2" d="M20,83 l625,0 0,832 -625,0 0,-832" /><path style="fill:none;stroke:#4c4c4c;stroke-width:2" d="M20,166 l625,0" /><path style="fill:none;stroke:#4c4c4c;stroke-width:2" d="M20,249 l625,0" /><path style="fill:none;stroke:#4c4c4c;stroke-width:2" d="M20,333 l625,0" /><path style="fill:none;stroke:#4c4c4c;stroke-width:2" d="M20,416 l625,0" /><path style="fill:none;stroke:#4c4c4c;stroke-width:2" d="M20,499 l625,0" /><path style="fill:none;stroke:#4c4c4c;stroke-width:2" d="M20,582 l625,0" /><path style="fill:none;stroke:#4c4c4c;stroke-width:2" d="M20,666 l625,0" /><path style="fill:none;stroke:#4c4c4c;stroke-width:2" d="M20,749 l625,0" /><path style="fill:none;stroke:#4c4c4c;stroke-width:2" d="M20,832 l625,0" /></svg>