<!DOCTYPE svg PUBLIC "-//W3C//DTD SVG 20000303 Stylable//EN" "http://www.w3.org/TR/2000/03/WD-SVG-20000303/DTD/svg-20000303-stylable.dtd"[]><svg xmlns="http://www.w3.org/2000/svg" width="606px" height="999px" viewBox="0 0 582 999"><path style="fill:#7f7f7f;stroke:#4c4c4c;stroke-width:2" d="M83,0 l416,0 0,999 -416,0 0,-999z" /><path style="fill:#ccc;stroke:#4c4c4c;stroke-width:2" d="M582,832 l-83,83 -416,0 -83,-83 0,-666 83,-83 416,0 83,83 0,666z" /><path style="fill:#999;stroke:#4c4c4c;stroke-width:2" d="M388,499 l30,-25 23,-27 17,-31 10,-34 3,-35 -3,-35 -11,-34 -16,-32 -23,-27 -27,-23 -31,-16 -34,-10 -35,-4 -35,4 -34,10 -32,16 -27,23 -23,28 -16,31 -10,34 -4,34 4,36 10,34 17,31 22,27 31,25 -31,25 -23,27 -16,31 -10,35 -4,35 4,35 10,33 17,32 22,27 28,23 31,16 34,11 35,3 35,-4 34,-10 31,-16 27,-23 23,-27 17,-31 10,-35 3,-34 -3,-36 -11,-33 -16,-32 -23,-27 -30,-25z" /><path style="fill:#ccc;stroke:#4c4c4c;stroke-width:2" d="M312,241 l36,-47 13,5 -9,59 52,-30 9,9 -30,51 59,-8 5,13 -48,35 58,15 0,14 -58,14 48,37 -5,12 -59,-8 30,51 -10,10 -51,-31 8,59 -12,5 -35,-47 -15,58 -14,0 -15,-58 -36,47 -12,-5 8,-59 -51,31 -10,-10 31,-51 -60,8 -5,-13 48,-35 -58,-15 0,-14 58,-14 -48,-36 6,-13 59,9 -31,-52 10,-9 51,30 -8,-59 12,-5 36,47 15,-57 14,0 14,57z" /><path style="fill:#ccc;stroke:#4c4c4c;stroke-width:2" d="M291,542 l26,-53 13,2 3,60 44,-40 12,8 -20,56 56,-20 8,12 -40,44 60,3 2,14 -53,25 53,26 -2,13 -60,3 40,45 -8,11 -56,-19 20,56 -12,7 -44,-39 -3,59 -13,3 -26,-54 -26,54 -13,-3 -3,-59 -45,39 -11,-7 20,-56 -57,19 -8,-11 40,-44 -59,-4 -3,-13 54,-25 -54,-26 3,-14 59,-3 -40,-44 8,-12 56,20 -19,-56 11,-8 44,40 4,-60 13,-2 26,53z" /><path style="fill:#999" d="M286,680 l-18,-11 -4,-21 11,-18 21,-4 18,12 4,21 -12,17 -20,4z" /><path style="fill:#999" d="M291,378 l-20,-8 -8,-20 8,-19 20,-9 20,9 8,19 -8,20 -20,8z" /><path style="fill:none;stroke:#4c4c4c;stroke-width:2" d="M83,957 l416,0" /><path style="fill:none;stroke:#4c4c4c;stroke-width:2" d="M83,41 l416,0" /></svg>