<!DOCTYPE svg PUBLIC "-//W3C//DTD SVG 20000303 Stylable//EN" "http://www.w3.org/TR/2000/03/WD-SVG-20000303/DTD/svg-20000303-stylable.dtd"[]><svg xmlns="http://www.w3.org/2000/svg" width="999px" height="970px" viewBox="0 0 999 968"><path style="fill:#333;stroke:#4c4c4c;stroke-width:2" d="M777,847 l20,0 0,-161 80,0 0,161 21,0 0,60 -121,0 0,-60z" /><path style="fill:#d9d9d9;stroke:#4c4c4c;stroke-width:2" d="M30,40 l403,0 0,867 -403,0 0,-867z" /><path style="fill:#4c4c4c" d="M50,907 l20,0 0,41 -20,0 0,-41z" /><path style="fill:#4c4c4c" d="M111,565 l645,0 0,342 -645,0 0,-342z" /><path style="fill:#d9d9d9;stroke:#4c4c4c;stroke-width:2" d="M999,60 l-142,262 -40,0 -141,-262 323,0z" /><path style="fill:#f2f2f2;stroke:#4c4c4c;stroke-width:2" d="M676,0 l323,0 0,60 -323,0 0,-60z" /><path style="fill:#e5e5e5;stroke:#4c4c4c;stroke-width:2" d="M797,322 l80,0 0,121 -80,0 0,-121z" /><path style="fill:#ccc;stroke:#4c4c4c;stroke-width:2" d="M777,463 l-666,0 0,101 666,0 0,-101z" /><path style="fill:#f2f2f2;stroke:#4c4c4c;stroke-width:2" d="M777,463 l-666,0 0,-60 666,0 0,60z" /><path style="fill:#ccc;stroke:#4c4c4c;stroke-width:2" d="M777,443 l100,0 21,-20 0,121 -21,-20 -100,0 0,-81z" /><path style="fill:#666" d="M877,463 l16,0 0,-14 -16,4 0,10z" /><path style="fill:#666" d="M877,504 l16,0 0,15 -16,-5 0,-10z" /><path style="fill:#666" d="M877,479 l16,0 0,10 -16,0 0,-10z" /><path style="fill:#fff;stroke:#4c4c4c;stroke-width:2" d="M898,403 l101,0 0,202 -101,0 0,-202z" /><path style="fill:#4c4c4c;stroke:#4c4c4c;stroke-width:2" d="M70,907 l929,0 0,61 -929,0 0,-61z" /><path style="fill:#000" d="M111,918 l262,0 0,39 -262,0 0,-39z" /><path style="fill:#000" d="M413,918 l263,0 0,39 -263,0 0,-39z" /><path style="fill:#000" d="M716,918 l262,0 0,39 -262,0 0,-39z" /><path style="fill:#333;stroke:#4c4c4c;stroke-width:2" d="M111,423 l-61,0 0,121 61,0 0,-121z" /><path style="fill:#f2f2f2;stroke:#4c4c4c;stroke-width:2" d="M70,625 l0,-20 21,0 0,-61 20,0 0,61 20,0 0,20 -61,0z" /><path style="fill:#ccc;stroke:#4c4c4c;stroke-width:2" d="M716,565 l20,242 61,0 -20,-242 -61,0z" /><path style="fill:#d94059" d="M131,524 l383,0 0,20 -383,0 0,-20z" /><path style="fill:#000" d="M413,605 l222,0 0,202 -222,0 0,-202z" /><path style="fill:#666;stroke:#4c4c4c;stroke-width:2" d="M131,565 l21,100 104,0 21,-100 21,100 104,0 21,-100 21,100 105,0 20,-100 22,100 104,0 21,-100 -585,0z" /><path style="fill:#000" d="M463,634 l-15,-35 15,-34 71,0 15,34 -15,35 -35,14 -36,-14z" /><path style="fill:#000" d="M316,634 l-15,-35 15,-34 72,0 14,34 -14,35 -36,14 -36,-14z" /><path style="fill:#000" d="M170,634 l-15,-35 15,-34 71,0 15,34 -15,35 -35,14 -36,-14z" /><path style="fill:#000" d="M605,634 l-14,-35 14,-34 72,0 14,34 -14,35 -36,14 -36,-14z" /><path style="fill:#333" d="M232,686 l222,0 0,100 -222,0 0,-100z" /><path style="fill:#333" d="M494,746 l182,0 0,161 -182,0 0,-161z" /><path style="fill:#666;stroke:#4c4c4c;stroke-width:2" d="M756,807 l21,0 0,100 -21,0 0,-100z" /><path style="fill:#666;stroke:#4c4c4c;stroke-width:2" d="M413,827 l343,0 0,40 -343,0 0,-40z" /><path style="fill:#666;stroke:#4c4c4c;stroke-width:2" d="M70,907 l0,-282 61,0 0,282 -61,0z" /><path style="fill:#666;stroke:#4c4c4c;stroke-width:2" d="M898,605 l101,0 0,302 -101,0 0,-302z" /><path style="fill:#7f7f7f;stroke:#4c4c4c;stroke-width:2" d="M151,706 l222,0 0,201 -222,0 0,-201z" /><path style="fill:#f2f2f2;stroke:#4c4c4c;stroke-width:2" d="M131,443 l0,-161 161,0 0,161 -161,0z" /><path style="fill:#d9d9d9;stroke:#4c4c4c;stroke-width:2" d="M131,484 l0,-41 161,0 0,41 -161,0z" /><path style="fill:#666;stroke:#4c4c4c;stroke-width:2" d="M191,907 l0,-423 40,0 0,423 -40,0z" /><path style="fill:#b2b2b2" d="M204,907 l0,-423 14,0 0,423 -14,0z" /><path style="fill:#ccc;stroke:#4c4c4c;stroke-width:2" d="M151,383 l0,-91 121,0 0,91 -121,0z" /><path style="fill:#cbe5cb" d="M161,373 l0,-71 101,0 0,71 -101,0z" /><path style="fill:#7fbf7f" d="M262,302 l-101,0 0,10 101,0 0,-10z" /><path style="fill:#fff;stroke:#4c4c4c;stroke-width:2" d="M151,398 l121,0 0,30 -121,0 0,-30z" /><path style="fill:#ccc;stroke:#4c4c4c;stroke-width:2" d="M151,428 l121,0 0,5 -121,0 0,-5z" /><path style="fill:none;stroke:#999;stroke-width:2" d="M252,398 l0,35" /><path style="fill:none;stroke:#999;stroke-width:2" d="M232,398 l0,35" /><path style="fill:none;stroke:#999;stroke-width:2" d="M212,398 l0,35" /><path style="fill:none;stroke:#999;stroke-width:2" d="M191,398 l0,35" /><path style="fill:none;stroke:#999;stroke-width:2" d="M171,398 l0,35" /><path style="fill:none;stroke:#999;stroke-width:2" d="M151,408 l121,0" /><path style="fill:none;stroke:#999;stroke-width:2" d="M272,418 l-121,0" /><path style="fill:#c63;fill-rule:evenodd" d="M766,565 l0,10 132,0 0,10 -142,0 0,-20 10,0z M746,565 l0,30 152,0 0,10 -162,0 0,-40 10,0z " /><path style="fill:none;stroke:#4c4c4c;stroke-width:2" d="M766,565 l0,10 132,0 0,10 -142,0 0,-20 10,0" /><path style="fill:none;stroke:#4c4c4c;stroke-width:2" d="M746,565 l0,30 152,0 0,10 -162,0 0,-40 10,0" /><path style="fill:#333" d="M91,121 l60,0 0,45 -60,0 0,-45z" /><path style="fill:#d94059" d="M171,146 l182,0 0,15 -182,0 0,-15z" /><path style="fill:#7f7fff" d="M918,443 l20,0 0,20 -20,0 0,-20z" /><path style="fill:#fc0" d="M958,443 l20,0 0,20 -20,0 0,-20z" /><path style="fill:#fc0" d="M797,454 l60,0 0,35 -60,0 0,-35z" /><path style="fill:#000" d="M802,459 l50,0 0,10 -50,0 0,-10z" /><path style="fill:#c63;stroke:#4c4c4c;stroke-width:2" d="M807,353 l60,0 0,60 -60,0 0,-60z" /><path style="fill:#4c4c4c" d="M817,363 l40,0 0,40 -40,0 0,-40z" /><path style="fill:#7f7f7f" d="M941,562 l-3,-7 3,-8 7,-2 7,2 3,8 -3,7 -7,3 -7,-3z" /><path style="fill:#c93" d="M951,531 l-3,-7 3,-7 7,-3 7,3 3,7 -3,7 -7,3 -7,-3z" /><path style="fill:#e5e5e5" d="M55,449 l50,0 0,20 -50,0 0,-20z" /><path style="fill:#7f7f7f" d="M55,504 l50,0 0,30 -50,0 0,-30z" /><path style="fill:#b2b2b2;stroke:#4c4c4c;stroke-width:2" d="M0,453 l50,0 0,61 -50,0 0,-61z" /><path style="fill:#ccc;stroke:#4c4c4c;stroke-width:2" d="M0,449 l50,0 0,4 -50,0 0,-4z" /><path style="fill:#000" d="M25,449 l-15,-86 5,-21 15,-10 0,-7 -20,13 -8,25 18,86 5,0z" /></svg>