<!DOCTYPE svg PUBLIC "-//W3C//DTD SVG 20000303 Stylable//EN" "http://www.w3.org/TR/2000/03/WD-SVG-20000303/DTD/svg-20000303-stylable.dtd"[]><svg xmlns="http://www.w3.org/2000/svg" width="999px" height="999px" viewBox="0 0 999 999"><path style="fill:#4c4c4c;stroke:#4c4c4c;stroke-width:2" d="M260,457 l697,0 0,125 -697,0 0,-125z" /><circle style="fill:#a6a6a6;stroke:#4c4c4c;stroke-width:2" cx="874" cy="520" r="73" /><circle style="fill:#a6a6a6;stroke:#4c4c4c;stroke-width:2" cx="697" cy="520" r="73" /><circle style="fill:#a6a6a6;stroke:#4c4c4c;stroke-width:2" cx="343" cy="520" r="73" /><path style="fill:#666" d="M852,542 l-9,-22 9,-23 22,-9 22,9 9,23 -9,22 -22,9 -22,-9z" /><path style="fill:#666" d="M675,542 l-9,-22 9,-23 22,-9 22,9 9,23 -9,22 -22,9 -22,-9z" /><path style="fill:#666" d="M321,542 l-9,-22 9,-23 22,-9 22,9 9,23 -9,22 -22,9 -22,-9z" /><path style="fill:#a6a6a6;stroke:#4c4c4c;stroke-width:2" d="M452,499 l11,-42 99,0 0,42 -110,0z" /><path style="fill:#bfbfbf;stroke:#4c4c4c;stroke-width:2" d="M655,717 l62,0 0,52 -62,0 0,-52z" /><path style="fill:#e5e5e5" d="M655,733 l62,0 0,21 -62,0 0,-21z" /><path style="fill:#7f7f7f" d="M260,322 l114,-198 0,-124 -323,0 0,124 115,198 94,0z" /><path style="fill:#999" d="M251,322 l94,-198 0,-124 -264,0 0,124 94,198 76,0z" /><path style="fill:#b2b2b2" d="M247,322 l84,-198 0,-124 -236,0 0,124 84,198 68,0z" /><path style="fill:#ccc" d="M239,322 l65,-198 0,-124 -182,0 0,124 65,198 52,0z" /><path style="fill:#e5e5e5" d="M224,322 l25,-198 0,-124 -72,0 0,124 25,198 22,0z" /><path style="fill:none;stroke:#4c4c4c;stroke-width:2" d="M260,322 l114,-198 0,-124 -323,0 0,124 115,198 94,0" /><path style="fill:none;stroke:#666;stroke-width:2" d="M51,124 l323,0" /><path style="fill:#333" d="M166,322 l94,0 0,260 -94,0 0,-260z" /><path style="fill:#4c7f7f;stroke:#4c4c4c;stroke-width:2" d="M666,936 l333,0 0,42 -333,0 0,-42z" /><path style="fill:#7fb2b2;stroke:#4c4c4c;stroke-width:2" d="M187,853 l437,0 0,21 -437,0 0,-21z" /><path style="fill:#7fb2b2;stroke:#4c4c4c;stroke-width:2" d="M0,374 l62,0 0,562 -62,0 0,-562z" /><path style="fill:#7fb2b2;stroke:#4c4c4c;stroke-width:2" d="M0,936 l666,0 0,63 -666,0 0,-63z" /><path style="fill:#7fb2b2;stroke:#4c4c4c;stroke-width:2" d="M582,874 l21,0 0,62 -21,0 0,-62z" /><path style="fill:#7fb2b2;stroke:#4c4c4c;stroke-width:2" d="M208,874 l20,0 0,62 -20,0 0,-62z" /><path style="fill:#699;stroke:#4c4c4c;stroke-width:2" d="M915,645 l63,0 0,291 -63,0 0,-291z" /><path style="fill:#699;stroke:#4c4c4c;stroke-width:2" d="M83,333 l104,0 0,603 -104,0 0,-603z" /><path style="fill:#7fb2b2;stroke:#4c4c4c;stroke-width:2" d="M187,582 l791,0 0,63 -791,0 0,-63z" /><path style="fill:#7fb2b2;stroke:#4c4c4c;stroke-width:2" d="M957,582 l21,0 0,-270 -21,0 0,270z" /><path style="fill:#9cc;stroke:#4c4c4c;stroke-width:2" d="M104,249 l62,0 0,84 -62,0 0,-84z" /><path style="fill:#9cc;stroke:#4c4c4c;stroke-width:2" d="M0,457 l83,0 0,125 -83,0 0,-125z" /><path style="fill:#e5e5e5;stroke:#4c4c4c;stroke-width:2" d="M249,312 l708,0 0,145 -708,0 0,-145z" /><path style="fill:#d9d9d9" d="M952,354 l0,98 -557,0 557,-98z" /><path style="fill:#4c4c4c" d="M270,333 l11,0 0,10 -11,0 0,-10z" /><path style="fill:#4c4c4c" d="M270,426 l11,0 0,10 -11,0 0,-10z" /><path style="fill:#4c4c4c" d="M926,333 l10,0 0,10 -10,0 0,-10z" /><path style="fill:#4c4c4c" d="M603,333 l11,0 0,10 -11,0 0,-10z" /><path style="fill:#4c4c4c" d="M603,426 l11,0 0,10 -11,0 0,-10z" /><path style="fill:#4c4c4c" d="M925,426 l11,0 0,10 -11,0 0,-10z" /><path style="fill:#c63;stroke:#4c4c4c;stroke-width:2" d="M197,364 l11,0 0,291 -11,0 0,-291z" /><path style="fill:#c63;stroke:#4c4c4c;stroke-width:2" d="M229,416 l10,0 0,114 104,0 0,11 -114,0 0,-125z" /><path style="fill:#d9d9d9;stroke:#4c4c4c;stroke-width:2" d="M187,832 l468,0 0,-177 -468,0 0,177z" /><path style="fill:#f2f2f2;stroke:#4c4c4c;stroke-width:2" d="M478,686 l115,0 0,115 -115,0 0,-115z" /><path style="fill:#f2f2f2;stroke:#4c4c4c;stroke-width:2" d="M291,666 l166,0 0,156 -166,0 0,-156z" /><path style="fill:none;stroke:#fff;stroke-width:2" d="M291,822 l0,-156 166,0" /><path style="fill:none;stroke:#fff;stroke-width:2" d="M478,801 l0,-115 115,0" /><path style="fill:none;stroke:#4c4c4c;stroke-width:2" d="M208,697 l62,0" /><path style="fill:none;stroke:#4c4c4c;stroke-width:2" d="M270,717 l-62,0" /><path style="fill:none;stroke:#4c4c4c;stroke-width:2" d="M208,738 l62,0" /><path style="fill:none;stroke:#4c4c4c;stroke-width:2" d="M270,759 l-62,0" /><path style="fill:none;stroke:#4c4c4c;stroke-width:2" d="M208,780 l62,0" /><path style="fill:none;stroke:#4c4c4c;stroke-width:2" d="M270,801 l-62,0" /><path style="fill:#ccc;stroke:#4c4c4c;stroke-width:2" d="M562,447 l124,0 0,187 -124,0 0,-187z" /><path style="fill:#333" d="M562,645 l93,0 0,10 -93,0 0,-10z" /><path style="fill:#333" d="M187,832 l437,0 0,21 -437,0 0,-21z" /><path style="fill:#e5e5e5;stroke:#4c4c4c;stroke-width:2" d="M562,436 l124,0 0,11 -124,0 0,-11z" /><path style="fill:#e5e5e5;stroke:#4c4c4c;stroke-width:2" d="M562,634 l124,0 0,11 -124,0 0,-11z" /><path style="fill:#bfbfbf;stroke:#4c4c4c;stroke-width:2" d="M489,478 l72,0 0,125 -72,0 0,-125z" /><path style="fill:#e5e5e5" d="M489,499 l72,0 0,84 -72,0 0,-84z" /><path style="fill:#fff" d="M489,527 l72,0 0,27 -72,0 0,-27z" /><path style="fill:#bfbfbf;stroke:#4c4c4c;stroke-width:2" d="M343,499 l114,0 0,84 -114,0 0,-84z" /><path style="fill:#e5e5e5" d="M343,512 l114,0 0,57 -114,0 0,-57z" /><path style="fill:#fff" d="M343,532 l114,0 0,18 -114,0 0,-18z" /><path style="fill:#f2f2f2;stroke:#4c4c4c;stroke-width:2" d="M489,436 l-32,0 0,219 32,0 0,-219z" /><path style="fill:#999;stroke:#4c4c4c;stroke-width:2" d="M978,436 l10,0 0,63 -10,0 0,-63z" /><path style="fill:#bfbfbf;stroke:#4c4c4c;stroke-width:2" d="M978,333 l21,0 0,93 -21,0 0,-93z" /><path style="fill:#a6a6a6" d="M728,343 l177,0 0,10 -177,0 0,-10z" /><path style="fill:none;stroke:#4c4c4c;stroke-width:2" d="M114,322 l0,-62" /><path style="fill:none;stroke:#4c4c4c;stroke-width:2" d="M156,322 l0,-62" /><path style="fill:#e5e5e5" d="M98,358 l73,0 0,52 -73,0 0,-52z" /><path style="fill:#4c4c4c" d="M25,728 l26,0 0,62 -26,0 0,-62z" /></svg>