<!DOCTYPE svg PUBLIC "-//W3C//DTD SVG 20000303 Stylable//EN" "http://www.w3.org/TR/2000/03/WD-SVG-20000303/DTD/svg-20000303-stylable.dtd"[]><svg xmlns="http://www.w3.org/2000/svg" width="999px" height="613px" viewBox="0 0 998 590"><path style="fill:#997a7a;stroke:#4c4c4c;stroke-width:2" d="M544,431 l23,23 431,0 0,-182 -431,0 -23,22 0,137z" /><path style="fill:#7f5959" d="M0,294 l317,0 0,-90 -68,-204 250,0 -68,204 0,90 567,0 0,137 -998,0 0,-137z" /><path style="fill:#997a7a;stroke:#4c4c4c;stroke-width:2" d="M272,476 l590,0 0,91 -590,0 0,-91z" /><path style="fill:#7f5959;stroke:#4c4c4c;stroke-width:2" d="M295,567 l567,0 0,23 -567,0 0,-23z" /><path style="fill:none;stroke:#4c4c4c;stroke-width:2" d="M272,567 l590,-91" /><path style="fill:none;stroke:#4c4c4c;stroke-width:2" d="M862,567 l-590,-91" /><path style="fill:#ccbdbd" d="M340,408 l613,0 0,-91 -545,0 0,-113 68,-204 -204,0 68,204 0,204z" /><path style="fill:none;stroke:#4c4c4c;stroke-width:2" d="M0,294 l317,0 0,-90 -68,-204 250,0 -68,204 0,90 567,0 0,137 -998,0 0,-137" /><path style="fill:#663838" d="M136,567 l0,-318 136,0 0,318 -136,0z" /><path style="fill:#825c5c" d="M149,567 l0,-318 109,0 0,318 -109,0z" /><path style="fill:#9e8282" d="M163,567 l0,-318 82,0 0,318 -82,0z" /><path style="fill:#baa6a6" d="M176,567 l0,-318 55,0 0,318 -55,0z" /><path style="fill:#d6c9c9" d="M190,567 l0,-10 0,-10 0,-10 0,-10 0,-10 0,-10 0,-10 0,-10 0,-10 0,-10 0,-10 0,-10 0,-9 0,-11 0,-9 0,-10 0,-10 0,-10 0,-10 0,-10 0,-10 0,-10 0,-10 0,-10 0,-10 0,-9 0,-11 0,-9 0,-10 0,-10 0,-10 0,-10 3,0 4,0 3,0 4,0 3,0 4,0 3,0 3,0 0,10 0,10 0,10 0,10 0,9 0,11 0,9 0,10 0,10 0,10 0,10 0,10 0,10 0,10 0,10 0,10 0,10 0,9 0,11 0,9 0,10 0,10 0,10 0,10 0,10 0,10 0,10 0,10 0,10 0,10 0,10 0,10 -3,0 -3,0 -4,0 -3,0 -4,0 -3,0 -4,0 -3,0z" /><path style="fill:#e5dddd" d="M197,567 l0,-318 14,0 0,318 -14,0z" /><path style="fill:none;stroke:#4c4c4c;stroke-width:2" d="M136,567 l0,-318 136,0 0,318 -136,0" /><path style="fill:#b29b9b;stroke:#4c4c4c;stroke-width:2" d="M113,567 l182,0 0,23 -182,0 0,-23z" /><path style="fill:#b29b9b;stroke:#4c4c4c;stroke-width:2" d="M136,249 l23,-22 90,0 23,22 -136,0z" /><path style="fill:#b29b9b;stroke:#4c4c4c;stroke-width:2" d="M68,385 l0,-45 68,0 0,45 -68,0z" /><path style="fill:#997a7a" d="M363,397 l34,-68 57,0 -35,68 -56,0z" /><path style="fill:#997a7a" d="M431,397 l34,-68 57,0 -34,68 -57,0z" /><path style="fill:#997a7a" d="M499,397 l34,-68 57,0 -34,68 -57,0z" /><path style="fill:#997a7a" d="M567,397 l34,-68 57,0 -34,68 -57,0z" /><path style="fill:#997a7a" d="M635,397 l34,-68 57,0 -34,68 -57,0z" /><path style="fill:#997a7a" d="M704,397 l34,-68 56,0 -34,68 -56,0z" /><path style="fill:#997a7a" d="M771,397 l35,-68 56,0 -34,68 -57,0z" /><path style="fill:#997a7a" d="M840,397 l34,-68 57,0 -35,68 -56,0z" /><path style="fill:#997a7a" d="M340,397 l0,-68 46,0 -34,68 -12,0z" /><path style="fill:#997a7a" d="M908,397 l34,-68 11,0 0,68 -45,0z" /></svg>