<!DOCTYPE svg PUBLIC "-//W3C//DTD SVG 20000303 Stylable//EN" "http://www.w3.org/TR/2000/03/WD-SVG-20000303/DTD/svg-20000303-stylable.dtd"[]><svg xmlns="http://www.w3.org/2000/svg" width="999px" height="787px" viewBox="0 0 999 774"><path style="fill:#4c4c4c" d="M41,468 l135,61 578,0 0,-61 -713,0z" /><path style="fill:#bf0000;stroke:#4c4c4c;stroke-width:2" d="M754,468 l0,-244 -163,-164 367,0 -163,164 0,244 -41,0z" /><path style="fill:#ccc;stroke:#4c4c4c;stroke-width:2" d="M41,305 l0,163 713,0 0,-163 -713,0z" /><path style="fill:#ccc;stroke:#4c4c4c;stroke-width:2" d="M754,316 l20,0 0,40 -20,0 0,-40z" /><path style="fill:#ccc;stroke:#4c4c4c;stroke-width:2" d="M856,448 l0,-61 122,0 0,61 -122,0z" /><path style="fill:#bf0000" d="M509,489 l0,20 204,0 0,-20 -204,0z" /><path style="fill:#bf0000" d="M142,489 l0,20 306,0 0,-20 -306,0z" /><path style="fill:#ff7f7f;stroke:#4c4c4c;stroke-width:2" d="M20,305 l0,-102 21,0 0,102 -21,0z" /><path style="fill:#f00;fill-rule:evenodd" d="M591,60 l0,-60 367,0 0,60 -367,0z M183,529 l0,245 816,0 0,-326 -164,0 0,81 -163,0 0,-61 -20,0 0,61 -224,0 0,-61 -20,0 0,61 -164,0 -203,-81 0,-143 -21,0 0,163 163,61z M713,529 l41,-61 41,0 40,61 -122,0z " /><path style="fill:none;stroke:#4c4c4c;stroke-width:2" d="M591,60 l0,-60 367,0 0,60 -367,0" /><path style="fill:none;stroke:#4c4c4c;stroke-width:2" d="M183,529 l0,245 816,0 0,-326 -164,0 0,81 -163,0 0,-61 -20,0 0,61 -224,0 0,-61 -20,0 0,61 -164,0 -203,-81 0,-143 -21,0 0,163 163,61" /><path style="fill:none;stroke:#4c4c4c;stroke-width:2" d="M713,529 l41,-61 41,0 40,61 -122,0" /><path style="fill:#333" d="M0,285 l20,0 0,61 -20,0 0,-61z" /><path style="fill:#000" d="M856,468 l82,0 0,21 -82,0 0,-21z" /><path style="fill:#666" d="M224,550 l0,204 611,0 0,-204 -611,0z" /><path style="fill:#fc0" d="M510,658 l20,-34 20,34 -40,0z" /><path style="fill:none;stroke:#4c4c4c;stroke-width:2" d="M163,550 l20,0 0,20 -20,0 0,-20" /><path style="fill:none;stroke:#4c4c4c;stroke-width:2" d="M163,590 l20,0 0,21 -20,0 0,-21" /><path style="fill:none;stroke:#4c4c4c;stroke-width:2" d="M163,631 l20,0 0,21 -20,0 0,-21" /><path style="fill:#a6a6a6" d="M856,295 l-82,0 0,82 82,0 0,-82z" /><path style="fill:#ccc" d="M856,310 l-82,0 0,52 82,0 0,-52z" /><path style="fill:#fff" d="M856,329 l-82,0 0,14 82,0 0,-14z" /><path style="fill:none;stroke:#4c4c4c;stroke-width:2" d="M856,295 l-82,0 0,82 82,0 0,-82" /><path style="fill:#b2b2b2" d="M859,400 l0,-12 117,0 0,12 -117,0z" /><path style="fill:#f2f2f2;stroke:#4c4c4c;stroke-width:2" d="M835,387 l0,-102 143,0 21,102 -164,0z" /><path style="fill:#f2f2f2;stroke:#4c4c4c;stroke-width:2" d="M41,203 l0,102 713,0 0,-102 -713,0z" /><path style="fill:#d9d9d9;stroke:#4c4c4c;stroke-width:2" d="M326,101 l41,0 0,102 -41,0 0,-102z" /><path style="fill:#b2b2b2;stroke:#4c4c4c;stroke-width:2" d="M367,101 l81,0 0,102 -81,0 0,-102z" /><path style="fill:#8c8c8c;stroke:#4c4c4c;stroke-width:2" d="M448,101 l41,0 0,102 -41,0 0,-102z" /><path style="fill:#4c4c4c" d="M489,142 l20,0 0,41 -20,0 0,-41z" /><path style="fill:#a60000" d="M754,203 l-82,-122 204,0 -81,122 -41,0z" /><path style="fill:none;stroke:#7f0000;stroke-width:2" d="M754,203 l-82,-122 204,0" /><path style="fill:none;stroke:#7f0000;stroke-width:2" d="M795,224 l-41,0" /></svg>