<!DOCTYPE svg PUBLIC "-//W3C//DTD SVG 20000303 Stylable//EN" "http://www.w3.org/TR/2000/03/WD-SVG-20000303/DTD/svg-20000303-stylable.dtd"[]><svg xmlns="http://www.w3.org/2000/svg" width="999px" height="488px" viewBox="0 0 999 463"><path style="fill:#596d8c" d="M767,211 l0,20 185,0 0,-20 -185,0z" /><circle style="fill:#596d8c;stroke:#4c4c4c;stroke-width:2" cx="973" cy="288" r="21" /><circle style="fill:#405473" cx="973" cy="288" r="10" /><path style="fill:#596d8c;stroke:#4c4c4c;stroke-width:2" d="M396,231 l-62,-206 21,-21 288,0 21,21 -62,206 -206,0z" /><path style="fill:#8ca0bf;stroke:#4c4c4c;stroke-width:2" d="M396,231 l-41,-227 288,0 -41,227 -206,0z" /><path style="fill:#8ca0bf;stroke:#4c4c4c;stroke-width:2" d="M46,458 l0,-31 -42,0 0,-185 42,0 0,-11 906,0 0,227 -906,0z" /><path style="fill:none;stroke:#4c4c4c;stroke-width:2" d="M375,231 l0,227" /><path style="fill:none;stroke:#4c4c4c;stroke-width:2" d="M623,231 l0,227" /><path style="fill:#7387a6;stroke:#4c4c4c;stroke-width:2" d="M66,231 l0,-20 83,0 0,20 -83,0z" /><path style="fill:#7387a6;stroke:#4c4c4c;stroke-width:2" d="M767,211 l0,-104 185,0 0,104 -185,0z" /><path style="fill:#7387a6" d="M56,252 l0,175 309,0 0,-175 -309,0z" /><path style="fill:none;stroke:#a6bad9;stroke-width:2" d="M561,66 l0,123 -123,0" /><path style="fill:none;stroke:#596d8c;stroke-width:2" d="M437,190 l0,-124 124,0" /><path style="fill:none;stroke:#a6bad9;stroke-width:2" d="M434,193 l0,-130 130,0" /><path style="fill:none;stroke:#596d8c;stroke-width:2" d="M565,62 l0,131 -131,0" /><path style="fill:#e5e5e5" d="M479,97 l41,0 0,21 -41,0 0,-21z" /><path style="fill:none;stroke:#f00;stroke-width:2" d="M489,107 l20,0" /><path style="fill:none;stroke:#405473;stroke-width:2" d="M339,40 l21,-15 278,0 21,15" /><path style="fill:#7387a6;stroke:#405473;stroke-width:2" d="M561,51 l10,0 0,10 -10,0 0,-10z" /><path style="fill:#405473" d="M571,56 l0,5 10,0 9,1 8,1 8,1 7,2 7,2 6,2 6,3 5,3 4,3 4,4 3,4 2,5 2,4 1,6 1,5 -1,6 -1,5 -2,4 -3,5 -3,3 -4,4 -4,3 -5,2 -5,2 -6,2 -6,1 -6,0 -6,1 -7,0 -7,-1 -7,0 0,5 12,0 11,0 9,0 9,-2 7,-1 6,-3 5,-2 5,-3 4,-4 3,-3 2,-4 2,-4 1,-4 1,-4 1,-4 0,-4 0,-4 -1,-4 -1,-4 -1,-5 -2,-4 -3,-4 -3,-4 -4,-4 -5,-4 -6,-3 -7,-3 -9,-3 -9,-2 -11,-2 -12,-1 -14,0z" /><path style="fill:#7387a6;stroke:#405473;stroke-width:2" d="M571,124 l10,0 0,30 -10,0 0,-30z" /><path style="fill:none;stroke:#4c4c4c;stroke-width:2" d="M46,427 l0,-185" /><path style="fill:#263a59" d="M56,272 l309,0 0,11 -309,0 0,-11z" /><path style="fill:#263a59" d="M56,313 l309,0 0,11 -309,0 0,-11z" /><path style="fill:#263a59" d="M56,355 l309,0 0,10 -309,0 0,-10z" /><path style="fill:#263a59" d="M56,396 l309,0 0,10 -309,0 0,-10z" /><path style="fill:#263a59" d="M46,272 l-16,0 0,11 16,0 0,-11z" /><path style="fill:#263a59" d="M46,313 l-16,0 0,11 16,0 0,-11z" /><path style="fill:#263a59" d="M46,355 l-16,0 0,10 16,0 0,-10z" /><path style="fill:#263a59" d="M46,396 l-16,0 0,10 16,0 0,-10z" /><path style="fill:#596d8c" d="M638,411 l0,-165 124,0 0,165 -124,0z" /><path style="fill:#a6bad9" d="M602,375 l-10,-10 -51,0 0,10 61,0z" /><path style="fill:#a6bad9" d="M468,375 l5,-10 52,0 5,10 -62,0z" /><path style="fill:#a6bad9" d="M396,375 l10,-10 52,0 0,10 -62,0z" /><path style="fill:#a6bad9" d="M396,283 l10,-6 186,0 10,6 -206,0z" /><path style="fill:#596d8c" d="M396,283 l0,-31 206,0 0,31 -10,-6 0,-15 -186,0 0,15 -10,6z" /><path style="fill:#596d8c" d="M602,293 l0,82 -10,-10 0,-62 -51,0 0,-10 61,0z" /><path style="fill:#596d8c" d="M468,293 l0,82 5,-10 0,-62 52,0 0,62 5,10 0,-82 -62,0z" /><path style="fill:#596d8c" d="M396,293 l0,82 10,-10 0,-62 52,0 0,-10 -62,0z" /><path style="fill:#405473" d="M406,262 l186,0 0,15 -186,0 0,-15z" /><path style="fill:#405473" d="M406,303 l52,0 0,62 -52,0 0,-62z" /><path style="fill:#405473" d="M473,303 l52,0 0,62 -52,0 0,-62z" /><path style="fill:#405473" d="M540,303 l52,0 0,62 -52,0 0,-62z" /><path style="fill:none;stroke:#a6bad9;stroke-width:2" d="M396,396 l206,0" /><path style="fill:none;stroke:#a6bad9;stroke-width:2" d="M396,417 l206,0" /><path style="fill:none;stroke:#596d8c;stroke-width:2" d="M396,398 l206,0" /><path style="fill:none;stroke:#596d8c;stroke-width:2" d="M396,419 l206,0" /><path style="fill:none;stroke:#a6bad9;stroke-width:2" d="M396,448 l206,0" /><path style="fill:none;stroke:#596d8c;stroke-width:2" d="M396,450 l206,0" /><path style="fill:#7387a6;stroke:#4c4c4c;stroke-width:2" d="M952,309 l42,0 0,10 -26,10 -16,77 0,-97z" /><circle style="fill:#596d8c" cx="859" cy="159" r="41" /><circle style="fill:#667a99" cx="854" cy="153" r="25" /><path style="fill:none;stroke:#a6bad9;stroke-width:2" d="M830,189 l-9,-14 -3,-16 3,-15 9,-14 14,-9 16,-3 15,3 14,9" /><circle style="fill:#8ca0bf" cx="849" cy="148" r="10" /><path style="fill:#ffffd9" d="M169,236 l83,0 0,16 -83,0 0,-16z" /><path style="fill:#cccca6" d="M484,313 l30,0 0,16 -30,0 0,-16z" /><path style="fill:none;stroke:#a6bad9;stroke-width:2" d="M932,453 l0,-217" /><path style="fill:none;stroke:#a6bad9;stroke-width:2" d="M773,453 l0,-217" /><path style="fill:none;stroke:#405473;stroke-width:2" d="M768,453 l0,-217" /><path style="fill:none;stroke:#405473;stroke-width:2" d="M927,453 l0,-217" /><path style="fill:#a6bad9;stroke:#4c4c4c;stroke-width:2" d="M752,283 l221,0 0,10 -221,0 0,-10z" /><path style="fill:#a6bad9;stroke:#4c4c4c;stroke-width:2" d="M752,267 l221,0 0,10 -221,0 0,-10z" /><path style="fill:none;stroke:#fff;stroke-width:2" d="M752,272 l221,0" /><path style="fill:none;stroke:#fff;stroke-width:2" d="M752,288 l221,0" /><path style="fill:#739973;stroke:#4c4c4c;stroke-width:2" d="M628,401 l0,-165 124,0 0,165 -124,0z" /><path style="fill:#8cb28c" d="M638,391 l0,-145 103,0 0,145 -103,0z" /><path style="fill:#e5e5e5" d="M690,262 l10,0 0,10 -10,0 0,-10z" /><path style="fill:#e5e5e5" d="M669,262 l10,0 0,10 -10,0 0,-10z" /><path style="fill:#e5e5e5" d="M648,262 l11,0 0,10 -11,0 0,-10z" /><path style="fill:#e5e5e5" d="M648,283 l11,0 0,10 -11,0 0,-10z" /><path style="fill:#e5e5e5" d="M669,283 l10,0 0,10 -10,0 0,-10z" /><path style="fill:#e5e5e5" d="M690,283 l10,0 0,10 -10,0 0,-10z" /><path style="fill:#e5e5e5" d="M674,313 l31,0 0,21 -31,0 0,-21z" /><path style="fill:none;stroke:#f00;stroke-width:2" d="M679,319 l6,0" /><path style="fill:none;stroke:#f00;stroke-width:2" d="M679,324 l16,0" /><path style="fill:#596d8c;stroke:#4c4c4c;stroke-width:2" d="M798,35 l20,0 0,72 -20,0 0,-72z" /><path style="fill:none;stroke:#263a59;stroke-width:2" d="M889,129 l9,14 3,16 -3,15 -9,14 -14,9 -16,3 -15,-3 -14,-9" /></svg>