<!DOCTYPE svg PUBLIC "-//W3C//DTD SVG 20000303 Stylable//EN" "http://www.w3.org/TR/2000/03/WD-SVG-20000303/DTD/svg-20000303-stylable.dtd"[]><svg xmlns="http://www.w3.org/2000/svg" width="999px" height="741px" viewBox="0 0 999 729"><path style="fill:#666" d="M544,207 l11,0 0,157 -11,0 0,-157z" /><path style="fill:#4c4c4c" d="M567,555 l404,0 0,157 -404,0 0,-157z" /><path style="fill:#e5e5e5;stroke:#4c4c4c;stroke-width:2" d="M567,668 l426,0 0,22 -426,0 0,-22z" /><path style="fill:#e5e5e5;stroke:#4c4c4c;stroke-width:2" d="M567,634 l426,0 0,22 -426,0 0,-22z" /><path style="fill:#e5e5e5;stroke:#4c4c4c;stroke-width:2" d="M567,600 l426,0 0,23 -426,0 0,-23z" /><path style="fill:#e5e5e5;stroke:#4c4c4c;stroke-width:2" d="M567,567 l426,0 0,22 -426,0 0,-22z" /><path style="fill:#e5e5e5;stroke:#4c4c4c;stroke-width:2" d="M567,533 l426,0 0,22 -426,0 0,-22z" /><path style="fill:#b2b2b2;stroke:#4c4c4c;stroke-width:2" d="M342,589 l0,-225 -23,0 0,-224 225,0 0,224 23,0 0,225 -225,0z" /><path style="fill:#ccc;stroke:#4c4c4c;stroke-width:2" d="M5,589 l573,0 0,135 -573,0 0,-135z" /><path style="fill:none;stroke:#4c4c4c;stroke-width:2" d="M544,364 l-225,0" /><path style="fill:#e5e5e5;stroke:#4c4c4c;stroke-width:2" d="M5,589 l573,0 0,17 -573,0 0,-17z" /><path style="fill:#ccc;stroke:#4c4c4c;stroke-width:2" d="M5,364 l337,0 0,225 -337,0 0,-225z" /><path style="fill:#e5e5e5;stroke:#4c4c4c;stroke-width:2" d="M72,409 l270,0 0,180 -270,0 0,-180z" /><path style="fill:#999;stroke:#4c4c4c;stroke-width:2" d="M319,140 l-45,-135 315,0 -45,135 -225,0z" /><path style="fill:#e5e5e5;stroke:#4c4c4c;stroke-width:2" d="M662,724 l0,-8 10,0 0,-14 -10,0 0,-6 34,0 0,6 -10,0 0,14 10,0 0,8 -34,0z" /><path style="fill:#e5e5e5;stroke:#4c4c4c;stroke-width:2" d="M841,724 l0,-8 11,0 0,-14 -11,0 0,-6 34,0 0,6 -10,0 0,14 10,0 0,8 -34,0z" /><path style="fill:#ccc;stroke:#4c4c4c;stroke-width:2" d="M847,499 l22,0 0,197 -22,0 0,-197z" /><path style="fill:#ccc;stroke:#4c4c4c;stroke-width:2" d="M673,499 l11,0 0,197 -11,0 0,-197z" /><path style="fill:#f2f2f2;stroke:#4c4c4c;stroke-width:2" d="M673,499 l11,0 0,-45 -11,0 0,45z" /><path style="fill:#f2f2f2;stroke:#4c4c4c;stroke-width:2" d="M847,499 l22,0 0,-90 -22,0 0,90z" /><path style="fill:#dedede" d="M78,516 l0,67 258,0 0,-129 -258,62z" /><path style="fill:#d4d4d4" d="M78,527 l0,56 258,0 0,-118 -258,62z" /><path style="fill:#ccc" d="M78,550 l0,33 258,0 0,-95 -258,62z" /><path style="fill:#c4c4c4" d="M67,583 l-56,0 0,-52 56,-13 0,65z" /><path style="fill:#bababa" d="M67,583 l-56,0 0,-41 56,-13 0,54z" /><path style="fill:#b2b2b2" d="M67,583 l-56,0 0,-18 56,-13 0,31z" /><path style="fill:#ababab" d="M347,476 l0,107 214,0 0,-158 -214,51z" /><path style="fill:#ababab" d="M325,252 l0,106 214,0 0,-158 -214,52z" /><path style="fill:#a1a1a1" d="M347,527 l0,56 214,0 0,-107 -214,51z" /><path style="fill:#a1a1a1" d="M325,303 l0,55 214,0 0,-106 -214,51z" /><path style="fill:#999" d="M347,544 l0,39 214,0 0,-90 -214,51z" /><path style="fill:#999" d="M325,320 l0,38 214,0 0,-89 -214,51z" /><path style="fill:#ccc;stroke:#4c4c4c;stroke-width:2" d="M477,499 l90,0 0,90 -90,0 0,-90z" /><path style="fill:#ccc;stroke:#4c4c4c;stroke-width:2" d="M350,353 l143,143 -8,8 -143,-143 8,-8z" /><path style="fill:#4c4c4c" d="M67,454 l11,0 0,34 -11,0 0,-34z" /><path style="fill:#4c4c4c" d="M336,454 l11,0 0,34 -11,0 0,-34z" /><path style="fill:#ccc;stroke:#4c4c4c;stroke-width:2" d="M555,173 l12,0 0,191 -12,0 0,-191z" /><path style="fill:#bfbfbf" d="M572,718 l-387,0 387,-65 0,65z" /><path style="fill:#8c8c8c" d="M567,50 l-231,84 202,0 29,-84z" /></svg>