<!DOCTYPE svg PUBLIC "-//W3C//DTD SVG 20000303 Stylable//EN" "http://www.w3.org/TR/2000/03/WD-SVG-20000303/DTD/svg-20000303-stylable.dtd"[]><svg xmlns="http://www.w3.org/2000/svg" width="999px" height="596px" viewBox="0 0 999 576"><path style="fill:#666" d="M901,31 l-13,0 -15,1 -18,1 -19,1 -21,1 -23,1 -24,2 -26,1 -26,2 -28,2 -28,2 -29,2 -30,1 -29,2 -30,2 -29,2 -29,1 -29,1 -28,1 -27,1 -25,1 -25,0 -23,1 -21,-1 -20,0 -17,-1 -16,-2 -13,-2 -10,-2 -8,-3 -5,-3 -1,-4 0,-5 1,-5 1,-6 3,-6 3,-6 5,-5 5,-3 7,-2 660,0 0,27z" /><path style="fill:#949494" d="M901,73 l-12,0 -14,0 -16,0 -19,0 -20,1 -23,0 -24,0 -25,1 -27,0 -28,0 -28,1 -30,0 -30,0 -30,0 -30,0 -30,0 -29,0 -29,0 -29,-1 -27,0 -27,-1 -25,-1 -24,-1 -22,-1 -20,-2 -18,-1 -16,-2 -13,-3 -11,-2 -8,-2 -5,-3 -1,-4 0,-3 0,-4 1,-3 1,-3 1,-3 1,-3 2,-3 1,-3 683,0 0,46z" /><path style="fill:none;stroke:#4c4c4c;stroke-width:2" d="M200,128 l0,-12 1,-13 1,-12 1,-11 2,-11 2,-10 3,-9 2,-9 3,-8 3,-7 3,-7 4,-5 4,-4 4,-3 4,-2 4,-1 660,0" /><path style="fill:#bdbdbd" d="M834,73 l41,0 0,77 -41,0 0,-77z" /><path style="fill:#bdbdbd" d="M752,113 l41,0 0,77 -41,0 0,-77z" /><path style="fill:#666" d="M818,71 l-12,0 -16,1 -17,1 -19,0 -21,2 -23,1 -24,1 -26,2 -27,1 -28,2 -28,2 -29,2 -29,1 -30,2 -30,1 -29,2 -29,1 -28,1 -28,2 -27,0 -26,1 -24,1 -23,0 -22,-1 -19,0 -18,-1 -15,-1 -13,-2 -10,-2 -8,-2 -5,-3 -2,-4 1,-5 0,-5 2,-6 2,-6 4,-6 4,-5 6,-3 7,-2 659,0 0,27z" /><path style="fill:#949494" d="M818,113 l-11,0 -14,0 -17,0 -18,0 -21,1 -22,0 -24,0 -26,1 -27,0 -27,0 -29,1 -29,0 -30,0 -30,0 -30,0 -30,0 -30,0 -29,0 -28,-1 -28,0 -26,-1 -25,-1 -24,-1 -22,-1 -20,-2 -19,-1 -15,-2 -14,-3 -10,-2 -8,-3 -5,-3 -2,-3 0,-3 1,-4 0,-3 1,-3 1,-3 2,-3 1,-3 2,-4 682,0 0,47z" /><path style="fill:none;stroke:#4c4c4c;stroke-width:2" d="M118,168 l0,-13 1,-12 1,-12 1,-11 1,-11 2,-10 3,-9 3,-9 3,-8 3,-8 3,-6 4,-5 4,-4 4,-3 3,-2 5,-1 659,0" /><path style="fill:#000" d="M705,530 l82,0 0,-41 83,0 0,-41 82,0 0,-248 -51,0 0,-72 -83,0 0,41 -113,0 0,361z" /><path style="fill:#666" d="M736,334 l-659,0 -5,-1 -4,-1 -4,-3 -4,-4 -3,-6 -3,-6 -3,-7 -3,-8 -3,-9 -3,-9 -2,-10 -1,-11 -2,-12 -1,-11 0,-13 -1,-12 1,-13 0,-13 1,-11 2,-12 1,-11 2,-10 3,-9 3,-9 3,-8 3,-7 3,-6 3,-6 4,-4 4,-2 4,-2 5,-1 659,0 0,247z" /><path style="fill:#666" d="M705,571 l-659,0 -5,0 -4,-2 -4,-3 -3,-4 -4,-6 -3,-6 -3,-7 -3,-8 -3,-9 -3,-9 -2,-10 -1,-11 -2,-12 -1,-11 0,-13 -1,-12 1,-13 0,-12 1,-12 2,-12 1,-10 2,-11 3,-9 3,-9 3,-8 3,-7 3,-6 4,-6 3,-3 4,-3 4,-2 5,-1 659,0 0,247z" /><path style="fill:#949494" d="M705,548 l-682,0 0,0 -1,-2 -1,-2 -1,-3 -2,-5 -1,-5 -2,-6 -1,-6 -2,-7 -2,-8 -1,-8 -2,-9 -1,-9 -1,-10 0,-10 0,-11 0,-10 0,-10 1,-9 1,-9 1,-8 1,-8 2,-7 1,-7 2,-6 1,-6 2,-4 1,-5 2,-4 1,-3 1,-3 1,-2 682,0 0,202z" /><path style="fill:#949494" d="M736,311 l-682,0 0,0 -1,-2 -1,-2 -1,-4 -2,-4 -1,-5 -2,-6 -1,-6 -2,-7 -2,-8 -1,-8 -2,-9 -1,-9 -1,-10 0,-10 0,-11 0,-10 0,-10 1,-9 1,-9 1,-8 1,-8 2,-7 1,-7 2,-6 1,-6 2,-5 1,-4 2,-4 1,-3 1,-3 1,-2 682,0 0,202z" /><path style="fill:#bdbdbd" d="M705,504 l-695,0 0,-1 -1,0 0,-2 0,-2 -1,-2 0,-3 -1,-3 0,-4 0,-4 -1,-4 0,-5 -1,-5 0,-5 0,-5 0,-6 0,-6 0,-6 0,-5 0,-6 0,-5 1,-5 0,-4 1,-5 0,-4 1,-3 0,-4 1,-2 0,-3 0,-2 1,-1 0,-1 0,0 695,0 0,113z" /><path style="fill:#bdbdbd" d="M736,267 l-695,0 0,-1 -1,0 0,-2 0,-2 -1,-2 0,-3 -1,-3 0,-4 0,-4 -1,-4 0,-5 -1,-5 0,-5 0,-5 0,-6 0,-6 0,-6 0,-5 0,-6 0,-5 1,-5 0,-4 1,-5 0,-4 1,-3 0,-4 1,-2 0,-3 0,-2 1,-1 0,-1 0,0 695,0 0,113z" /><path style="fill:#e5e5e5" d="M736,222 l-699,0 0,0 -1,-1 0,-1 0,-1 0,-2 -1,-2 0,-2 0,-2 0,-3 0,-2 1,-2 0,-2 0,-1 0,-1 1,-1 0,0 699,0 0,23z" /><path style="fill:#e5e5e5" d="M705,459 l-699,0 0,0 -1,-1 0,-1 0,-1 0,-2 -1,-2 0,-2 0,-2 0,-3 0,-2 1,-2 0,-2 0,-1 0,-1 1,-1 0,0 699,0 0,23z" /><path style="fill:none;stroke:#4c4c4c;stroke-width:2" d="M59,322 l-3,-4 -2,-4 -3,-5 -2,-6 -2,-6 -2,-6 -2,-7 -1,-7 -2,-7 -1,-8 -1,-8 -1,-8 -1,-9 0,-8 -1,-9 0,-9 1,-13 0,-13 1,-11 2,-12 1,-11 2,-10 3,-9 3,-9 3,-8 3,-7 3,-6 3,-6 4,-4 4,-2 4,-2 5,-1 659,0" /><path style="fill:none;stroke:#4c4c4c;stroke-width:2" d="M705,571 l-659,0 -5,0 -4,-2 -4,-3 -3,-4 -4,-6 -3,-6 -3,-7 -3,-8 -3,-9 -3,-9 -2,-10 -1,-11 -2,-12 -1,-11 0,-13 -1,-12 1,-13 0,-12 1,-12 2,-12 1,-10 2,-11 3,-9 3,-9 3,-8 3,-7 3,-6 4,-6 3,-3 4,-3 4,-2 5,-1 659,0 0,247" /><ellipse style="fill:#b2b2b2;stroke:#4c4c4c;stroke-width:2" cx="705" cy="447" rx="41" ry="123" /><ellipse style="fill:#b2b2b2;stroke:#4c4c4c;stroke-width:2" cx="787" cy="406" rx="41" ry="123" /><ellipse style="fill:#b2b2b2;stroke:#4c4c4c;stroke-width:2" cx="870" cy="365" rx="41" ry="123" /><ellipse style="fill:#b2b2b2;stroke:#4c4c4c;stroke-width:2" cx="952" cy="324" rx="41" ry="124" /><ellipse style="fill:#b2b2b2;stroke:#4c4c4c;stroke-width:2" cx="901" cy="128" rx="41" ry="124" /><ellipse style="fill:#b2b2b2;stroke:#4c4c4c;stroke-width:2" cx="818" cy="169" rx="41" ry="123" /><ellipse style="fill:#b2b2b2;stroke:#4c4c4c;stroke-width:2" cx="736" cy="210" rx="41" ry="123" /><ellipse style="fill:#4c4c4c" cx="952" cy="324" rx="20" ry="62" /><ellipse style="fill:#4c4c4c" cx="901" cy="128" rx="21" ry="62" /><ellipse style="fill:#4c4c4c" cx="870" cy="365" rx="21" ry="62" /><ellipse style="fill:#4c4c4c" cx="787" cy="406" rx="20" ry="62" /><ellipse style="fill:#4c4c4c" cx="818" cy="169" rx="20" ry="62" /><ellipse style="fill:#4c4c4c" cx="736" cy="210" rx="21" ry="62" /><ellipse style="fill:#4c4c4c" cx="705" cy="447" rx="21" ry="62" /></svg>