<!DOCTYPE svg PUBLIC "-//W3C//DTD SVG 20000303 Stylable//EN" "http://www.w3.org/TR/2000/03/WD-SVG-20000303/DTD/svg-20000303-stylable.dtd"[]><svg xmlns="http://www.w3.org/2000/svg" width="999px" height="999px" viewBox="0 0 999 999"><path style="fill:#0ff;stroke:#4c4c4c;stroke-width:2" d="M75,530 l8,-22 22,-9 22,9 10,22 -10,22 -22,9 -22,-9 -8,-22z" /><path style="fill:#0ff;stroke:#4c4c4c;stroke-width:2" d="M599,999 l0,-475 -450,0 -149,150 0,325 599,0z" /><path style="fill:#0ff;stroke:#4c4c4c;stroke-width:2" d="M599,611 l300,0 0,-237 -300,0 0,25 -125,0 0,-125 125,0 0,25 375,0 0,387 -375,0 0,-75z" /><circle style="fill:none;stroke:#4c4c4c;stroke-width:2" cx="536" cy="336" r="62" /><path style="fill:#0ff;stroke:#4c4c4c;stroke-width:2" d="M699,0 l100,0 0,999 -100,0 0,-999z" /><path style="fill:none;stroke:#4c4c4c;stroke-width:2" d="M75,587 l0,-38" /><path style="fill:none;stroke:#4c4c4c;stroke-width:2" d="M75,649 l0,-38" /><path style="fill:none;stroke:#4c4c4c;stroke-width:2" d="M75,711 l0,-37" /><path style="fill:none;stroke:#4c4c4c;stroke-width:2" d="M309,604 l35,14" /><path style="fill:none;stroke:#4c4c4c;stroke-width:2" d="M368,631 l29,25" /><path style="fill:none;stroke:#4c4c4c;stroke-width:2" d="M415,677 l18,33" /><path style="fill:none;stroke:#4c4c4c;stroke-width:2" d="M443,736 l6,37" /><path style="fill:none;stroke:#4c4c4c;stroke-width:2" d="M449,801 l-7,37" /><path style="fill:none;stroke:#4c4c4c;stroke-width:2" d="M433,865 l-19,32" /><path style="fill:none;stroke:#4c4c4c;stroke-width:2" d="M396,919 l-29,23" /><path style="fill:none;stroke:#4c4c4c;stroke-width:2" d="M343,957 l-35,12" /><path style="fill:none;stroke:#4c4c4c;stroke-width:2" d="M280,974 l-38,0" /><path style="fill:none;stroke:#4c4c4c;stroke-width:2" d="M214,969 l-34,-13" /><path style="fill:none;stroke:#4c4c4c;stroke-width:2" d="M155,942 l-28,-25" /><path style="fill:none;stroke:#4c4c4c;stroke-width:2" d="M108,896 l-18,-33" /><path style="fill:none;stroke:#4c4c4c;stroke-width:2" d="M80,837 l-6,-37" /><path style="fill:none;stroke:#4c4c4c;stroke-width:2" d="M74,772 l7,-37" /><path style="fill:none;stroke:#4c4c4c;stroke-width:2" d="M90,708 l19,-32" /><path style="fill:none;stroke:#4c4c4c;stroke-width:2" d="M127,654 l29,-24" /><path style="fill:none;stroke:#4c4c4c;stroke-width:2" d="M181,616 l34,-12" /><path style="fill:none;stroke:#4c4c4c;stroke-width:2" d="M244,599 l36,0" /><path style="fill:none;stroke:#4c4c4c;stroke-width:2" d="M149,636 l450,0" /><path style="fill:none;stroke:#4c4c4c;stroke-width:2" d="M149,524 l0,475" /><path style="fill:none;stroke:#4c4c4c;stroke-width:2" d="M49,761 l113,-87" /><path style="fill:none;stroke:#4c4c4c;stroke-width:2" d="M199,724 l350,0 0,225 -350,0 0,-225" /><path style="fill:#0ff" d="M574,674 l-37,0 0,25 37,0 0,-25z" /><path style="fill:#0ff" d="M512,674 l-38,0 0,25 38,0 0,-25z" /><path style="fill:#0ff" d="M449,674 l-38,0 0,25 38,0 0,-25z" /><path style="fill:#0ff" d="M924,374 l25,0 0,237 -25,0 0,-237z" /><path style="fill:none;stroke:#4c4c4c;stroke-width:2" d="M824,149 l0,668 62,-243" /><path style="fill:none;stroke:#4c4c4c;stroke-width:2" d="M599,337 l75,480 0,-668" /><path style="fill:none;stroke:#4c4c4c;stroke-width:2" d="M93,505 l406,-218" /><circle style="fill:#0ff;stroke:#4c4c4c;stroke-width:2" cx="936" cy="573" r="62" /><circle style="fill:#0ff;stroke:#4c4c4c;stroke-width:2" cx="748" cy="149" r="87" /><circle style="fill:#0ff;stroke:#4c4c4c;stroke-width:2" cx="748" cy="848" r="87" /><path style="fill:#0ff" d="M743,843 l12,0 0,12 -12,0 0,-12z" /><path style="fill:#0ff" d="M930,568 l12,0 0,12 -12,0 0,-12z" /><path style="fill:#0ff" d="M743,143 l12,0 0,12 -12,0 0,-12z" /><path style="fill:#0ff" d="M530,330 l13,0 0,13 -13,0 0,-13z" /><path style="fill:#0ff" d="M256,780 l12,0 0,12 -12,0 0,-12z" /></svg>