<!DOCTYPE svg PUBLIC "-//W3C//DTD SVG 20000303 Stylable//EN" "http://www.w3.org/TR/2000/03/WD-SVG-20000303/DTD/svg-20000303-stylable.dtd"[]><svg xmlns="http://www.w3.org/2000/svg" width="998px" height="466px" viewBox="0 0 999 434"><path style="fill:#0ff;stroke:#4c4c4c;stroke-width:2" d="M173,434 l0,-44 -21,0 -22,22 -109,0 -21,-22 0,-86 21,-22 109,0 22,22 21,0 0,-44 87,0 0,-43 -130,-217 347,0 -130,217 0,43 261,0 -44,-87 152,0 -43,87 326,0 0,174 -826,0z" /><path style="fill:none;stroke:#4c4c4c;stroke-width:2" d="M977,412 l-43,-130 -44,130 -43,-130 -44,130 -43,-130 -44,130 -43,-130 -44,130 -43,-130 -43,130 -44,-130 -43,130 -44,-130 -43,130 -44,-130 -43,130 -43,-130 -44,130" /><path style="fill:none;stroke:#4c4c4c;stroke-width:2" d="M260,217 l87,0" /><path style="fill:none;stroke:#4c4c4c;stroke-width:2" d="M260,260 l87,0" /><path style="fill:none;stroke:#4c4c4c;stroke-width:2" d="M608,260 l65,0" /><path style="fill:none;stroke:#4c4c4c;stroke-width:2" d="M152,390 l0,-86" /><path style="fill:none;stroke:#4c4c4c;stroke-width:2" d="M173,304 l0,86" /></svg>