<!DOCTYPE svg PUBLIC "-//W3C//DTD SVG 20000303 Stylable//EN" "http://www.w3.org/TR/2000/03/WD-SVG-20000303/DTD/svg-20000303-stylable.dtd"[]><svg xmlns="http://www.w3.org/2000/svg" width="999px" height="920px" viewBox="0 0 999 915"><path style="fill:#0ff" d="M338,447 l655,0 0,10 -655,0 0,-10z" /><path style="fill:#0ff;stroke:#4c4c4c;stroke-width:2" d="M333,447 l666,0 0,-447 -666,0 0,447z" /><path style="fill:#0ff;stroke:#4c4c4c;stroke-width:2" d="M187,395 l83,0 0,-167 -83,0 0,167z" /><path style="fill:#0ff;stroke:#4c4c4c;stroke-width:2" d="M20,395 l271,0 0,62 -271,0 0,-62z" /><path style="fill:#0ff;stroke:#4c4c4c;stroke-width:2" d="M20,291 l104,0 0,104 -104,0 0,-104z" /><path style="fill:#0ff;fill-rule:evenodd" d="M0,457 l999,0 0,458 -84,0 0,-374 -832,0 0,374 -83,0 0,-458z M83,666 l832,0 0,83 -832,0 0,-83z " /><path style="fill:none;stroke:#4c4c4c;stroke-width:2" d="M0,457 l999,0 0,458 -84,0 0,-374 -832,0 0,374 -83,0 0,-458" /><path style="fill:none;stroke:#4c4c4c;stroke-width:2" d="M83,666 l832,0 0,83 -832,0 0,-83" /><path style="fill:none;stroke:#4c4c4c;stroke-width:2" d="M333,145 l666,0" /><path style="fill:none;stroke:#4c4c4c;stroke-width:2" d="M333,208 l666,0" /><path style="fill:#0ff;stroke:#4c4c4c;stroke-width:2" d="M541,145 l125,0 0,302 -125,0 0,-302z" /><path style="fill:#0ff" d="M603,270 l63,0 0,146 -63,0 0,-146z" /><circle style="fill:#0ff" cx="728" cy="270" r="21" /><circle style="fill:#0ff" cx="728" cy="312" r="21" /><circle style="fill:#0ff" cx="811" cy="270" r="21" /><circle style="fill:#0ff" cx="811" cy="312" r="21" /><path style="fill:#0ff" d="M770,228 l10,0 0,125 -10,0 0,-125z" /><path style="fill:none;stroke:#4c4c4c;stroke-width:2" d="M541,41 l125,0 0,62 -125,0 0,-62" /><path style="fill:none;stroke:#4c4c4c;stroke-width:2" d="M707,41 l83,0 0,62 -83,0 0,-62" /><path style="fill:none;stroke:#4c4c4c;stroke-width:2" d="M187,312 l83,0" /><path style="fill:none;stroke:#4c4c4c;stroke-width:2" d="M270,270 l-83,0" /><path style="fill:none;stroke:#4c4c4c;stroke-width:2" d="M187,353 l83,0" /></svg>