<!DOCTYPE svg PUBLIC "-//W3C//DTD SVG 20000303 Stylable//EN" "http://www.w3.org/TR/2000/03/WD-SVG-20000303/DTD/svg-20000303-stylable.dtd"[]><svg xmlns="http://www.w3.org/2000/svg" width="832px" height="999px" viewBox="0 0 823 999"><path style="fill:#ccccbd;stroke:#4c4c4c;stroke-width:2" d="M448,767 l195,0 0,195 -195,0 0,-195z" /><path style="fill:#ccccbd;stroke:#4c4c4c;stroke-width:2" d="M46,932 l247,0 0,41 -247,0 0,-41z" /><path style="fill:#ccccbd;stroke:#4c4c4c;stroke-width:2" d="M46,499 l20,-82 206,0 21,82 -247,0z" /><path style="fill:#330" d="M664,963 l-10,0 0,-711 10,0 0,711z" /><path style="fill:#330" d="M386,963 l-11,0 0,-711 11,0 0,711z" /><path style="fill:#666638;stroke:#4c4c4c;stroke-width:2" d="M293,283 l21,0 0,-93 -21,0 0,93z" /><path style="fill:#b2b29b" d="M298,283 l10,0 0,-93 -10,0 0,93z" /><path style="fill:#b2b29b;stroke:#4c4c4c;stroke-width:2" d="M334,169 l453,0 0,83 -453,0 0,-83z" /><path style="fill:#b2b29b;stroke:#4c4c4c;stroke-width:2" d="M46,499 l247,0 0,433 -247,0 0,-433z" /><path style="fill:#b2b29b;stroke:#4c4c4c;stroke-width:2" d="M664,963 l41,0 0,-711 -41,0 0,711z" /><path style="fill:#b2b29b;stroke:#4c4c4c;stroke-width:2" d="M334,963 l41,0 0,-711 -41,0 0,711z" /><path style="fill:#b2b29b;stroke:#4c4c4c;stroke-width:2" d="M314,963 l412,0 0,10 -412,0 0,-10z" /><path style="fill:#b2b29b;stroke:#4c4c4c;stroke-width:2" d="M4,973 l742,0 0,21 -742,0 0,-21z" /><path style="fill:#7f7f59;stroke:#4c4c4c;stroke-width:2" d="M396,190 l289,0 0,62 -289,0 0,-62z" /><path style="fill:#666;stroke:#4c4c4c;stroke-width:2" d="M211,462 l17,9 18,-9 0,-8 -35,0 0,8z" /><path style="fill:#666;stroke:#4c4c4c;stroke-width:2" d="M211,480 l17,9 18,-9 0,-9 -35,0 0,9z" /><path style="fill:#666;stroke:#4c4c4c;stroke-width:2" d="M175,480 l18,9 18,-9 0,-9 -36,0 0,9z" /><path style="fill:#666;stroke:#4c4c4c;stroke-width:2" d="M175,462 l18,9 18,-9 0,-8 -36,0 0,8z" /><path style="fill:#666;stroke:#4c4c4c;stroke-width:2" d="M103,445 l18,9 17,-9 0,-9 -35,0 0,9z" /><path style="fill:#666;stroke:#4c4c4c;stroke-width:2" d="M103,480 l18,9 17,-9 0,-9 -35,0 0,9z" /><path style="fill:#666;stroke:#4c4c4c;stroke-width:2" d="M103,462 l18,9 17,-9 0,-8 -35,0 0,8z" /><path style="fill:#997a7a;stroke:#4c4c4c;stroke-width:2" d="M211,454 l17,8 18,-8 -18,-9 -17,9z" /><path style="fill:#7a9999;stroke:#4c4c4c;stroke-width:2" d="M211,471 l17,9 18,-9 -18,-9 -17,9z" /><path style="fill:#e5e5e5;stroke:#4c4c4c;stroke-width:2" d="M175,454 l18,8 18,-8 -18,-9 -18,9z" /><path style="fill:#e5e5e5;stroke:#4c4c4c;stroke-width:2" d="M175,471 l18,9 18,-9 -18,-9 -18,9z" /><path style="fill:#e5e5e5;stroke:#4c4c4c;stroke-width:2" d="M103,471 l18,9 17,-9 -17,-9 -18,9z" /><path style="fill:#e5e5e5;stroke:#4c4c4c;stroke-width:2" d="M103,454 l18,8 17,-8 -17,-9 -18,9z" /><path style="fill:#e5e5e5;stroke:#4c4c4c;stroke-width:2" d="M103,436 l18,9 17,-9 -17,-9 -18,9z" /><path style="fill:#7f7f59" d="M334,4 l330,0 0,62 -330,0 0,-62z" /><path style="fill:#b2b29b;stroke:#4c4c4c;stroke-width:2" d="M334,66 l258,0 0,103 -258,0 0,-103z" /><path style="fill:#99997a;stroke:#4c4c4c;stroke-width:2" d="M540,66 l41,0 0,103 -41,0 0,-103z" /><path style="fill:#99997a;stroke:#4c4c4c;stroke-width:2" d="M417,66 l41,0 0,103 -41,0 0,-103z" /><circle style="fill:#99997a" cx="545" cy="864" r="77" /><path style="fill:#b2b29b;stroke:#4c4c4c;stroke-width:2" d="M448,705 l133,0 0,62 -133,0 0,-62z" /><path style="fill:#b2b2aa;stroke:#4c4c4c;stroke-width:2" d="M427,654 l175,0 0,51 -175,0 0,-51z" /><path style="fill:#330" d="M448,654 l0,-124 -31,-113 0,-206 206,0 0,206 -42,113 0,124 -133,0z" /><path style="fill:#404005" d="M462,653 l0,-123 -24,-114 0,-205 164,0 0,205 -33,114 0,123 -107,0z" /><path style="fill:#4c4c16" d="M469,653 l0,-123 -21,-114 -1,-205 145,0 0,205 -29,114 0,123 -94,0z" /><path style="fill:#595926" d="M484,653 l0,-123 -16,-114 -1,-205 104,0 1,205 -21,114 0,123 -67,0z" /><path style="fill:#666638" d="M505,654 l0,-124 -6,-113 0,-206 41,0 0,206 -8,113 0,124 -27,0z" /><path style="fill:none;stroke:#4c4c4c;stroke-width:2" d="M448,654 l0,-124 -31,-113 0,-206 206,0 0,206 -42,113 0,124 -133,0" /><path style="fill:#919170" d="M370,4 l258,0 0,62 -258,0 0,-62z" /><path style="fill:#a6a68a" d="M386,4 l227,0 0,62 -227,0 0,-62z" /><path style="fill:#b8b8a4" d="M427,4 l145,0 0,62 -145,0 0,-62z" /><path style="fill:#ccccbd" d="M468,4 l62,0 0,62 -62,0 0,-62z" /><path style="fill:none;stroke:#4c4c4c;stroke-width:2" d="M334,4 l330,0 0,62 -330,0 0,-62" /><path style="fill:none;stroke:#4c4c4c;stroke-width:2" d="M417,293 l206,0" /><path style="fill:none;stroke:#4c4c4c;stroke-width:2" d="M417,396 l206,0" /><path style="fill:none;stroke:#4c4c4c;stroke-width:2" d="M623,417 l-206,0" /><path style="fill:none;stroke:#4c4c4c;stroke-width:2" d="M581,530 l-133,0" /><path style="fill:none;stroke:#4c4c4c;stroke-width:2" d="M427,674 l175,0" /><path style="fill:none;stroke:#4c4c4c;stroke-width:2" d="M602,684 l-175,0" /><path style="fill:#e5e5dd;stroke:#4c4c4c;stroke-width:2" d="M787,242 l31,-1 0,-62 -31,1 0,10 21,-1 0,42 -21,0 0,11z" /><path style="fill:#4c4c16;stroke:#4c4c4c;stroke-width:2" d="M494,195 l51,0 0,16 -51,0 0,-16z" /><path style="fill:#b2b2b2;stroke:#4c4c4c;stroke-width:2" d="M283,293 l41,0 0,62 -41,0 0,-62z" /><path style="fill:#b2b2b2;stroke:#4c4c4c;stroke-width:2" d="M623,221 l-598,0 0,10 144,0 248,11 206,0 0,-21z" /><path style="fill:#ccccbd;stroke:#4c4c4c;stroke-width:2" d="M386,293 l-165,0 0,-82 10,0 0,72 155,0 0,10z" /><path style="fill:#ccccbd;stroke:#4c4c4c;stroke-width:2" d="M344,396 l0,-41 -72,0 0,10 52,0 0,31 20,0z" /><path style="fill:none;stroke:#4c4c16;stroke-width:2" d="M87,417 l-10,82 0,433" /><path style="fill:none;stroke:#4c4c16;stroke-width:2" d="M262,932 l0,-433 -10,-82" /><path style="fill:none;stroke:#4c4c16;stroke-width:2" d="M97,540 l145,0 0,350 -145,0 0,-350" /><path style="fill:#ccccbd;stroke:#ccccbd;stroke-width:2" d="M118,581 l103,0 0,11 -103,0 0,-11z" /><path style="fill:#000" d="M200,581 l21,0 0,11 -21,0 0,-11z" /><path style="fill:#000" d="M118,581 l10,0 0,11 -10,0 0,-11z" /><path style="fill:#000" d="M133,581 l21,0 0,11 -21,0 0,-11z" /><path style="fill:#000" d="M159,581 l36,0 0,11 -36,0 0,-11z" /><path style="fill:#000" d="M116,730 l-8,-15 15,-15 15,15 -7,15 -8,52 -7,-52z" /><path style="fill:none;stroke:#fff;stroke-width:2" d="M417,231 l206,0" /></svg>