<!DOCTYPE svg PUBLIC "-//W3C//DTD SVG 20000303 Stylable//EN" "http://www.w3.org/TR/2000/03/WD-SVG-20000303/DTD/svg-20000303-stylable.dtd"[]><svg xmlns="http://www.w3.org/2000/svg" width="999px" height="860px" viewBox="0 0 998 854"><path style="fill:#ccc;stroke:#4c4c4c;stroke-width:2" d="M190,847 l-79,0 -5,0 -6,-2 -5,-3 -5,-3 -5,-5 -5,-6 -5,-6 -5,-8 -4,-8 -5,-9 -5,-11 -4,-11 -4,-11 -4,-13 -4,-13 -3,-14 -4,-15 -3,-15 -3,-16 -3,-16 -3,-17 -3,-18 -2,-18 -2,-19 -2,-19 -2,-19 -1,-21 -1,-20 -1,-20 -1,-21 0,-22 0,-21 0,-22 0,-21 1,-21 1,-21 1,-20 1,-20 2,-20 2,-19 2,-19 2,-18 3,-17 3,-18 3,-16 3,-16 3,-15 4,-15 3,-14 4,-13 4,-12 4,-12 4,-11 5,-10 5,-10 4,-8 5,-8 5,-6 5,-6 5,-5 5,-3 5,-3 6,-2 5,0 79,0 0,841z" /><ellipse style="fill:#b2b2b2" cx="190" cy="426" rx="105" ry="420" /><path style="fill:#c4c4c4" d="M190,427 l52,365 -6,13 -6,10 -6,10 -7,8 -7,6 -7,5 -7,3 -6,0 -6,0 -5,-2 -5,-3 -5,-3 -5,-5 -5,-6 -5,-6 -5,-8 -5,-8 -4,-9 -5,-11 -4,-11 -4,-11 -4,-13 -4,-13 -4,-14 -3,-15 -4,-15 -2,-16 -3,-16 -3,-17 -3,-18 -2,-18 -2,-19 -2,-19 -2,-19 -1,-21 -1,-20 -1,-20 -1,-21 0,-22 0,-21 0,-7 0,-7 0,-7 0,-7 0,-6 0,-8 0,-6 1,-8 0,-6 0,-7 1,-7 0,-6 0,-7 0,-7 1,-7 0,-6 102,109z" /><path style="fill:#d4d4d4" d="M190,427 l27,405 -4,3 -3,3 -3,3 -4,2 -3,2 -4,1 -3,1 -3,0 -6,0 -5,-2 -5,-3 -5,-3 -5,-5 -5,-6 -5,-6 -5,-8 -5,-8 -4,-9 -5,-11 -4,-11 -4,-11 -4,-13 -4,-13 -4,-14 -3,-15 -4,-15 -2,-16 -3,-16 -3,-17 -3,-18 -2,-18 -2,-19 -2,-19 -2,-19 -1,-21 -1,-20 -1,-20 -1,-21 0,-22 0,-21 105,0z" /><path style="fill:#e5e5e5" d="M190,427 l-28,405 -5,-5 -4,-7 -5,-8 -5,-8 -4,-10 -5,-11 -4,-11 -4,-12 -4,-13 -4,-14 -4,-14 -3,-15 -4,-16 -3,-16 -3,-17 -3,-18 92,-210z" /><path style="fill:#c4c4c4" d="M190,427 l27,-406 5,5 4,7 5,8 5,9 5,9 4,11 4,11 5,12 4,13 4,14 3,14 4,15 3,16 4,17 2,17 3,17 -91,211z" /><ellipse style="fill:none;stroke:#4c4c4c;stroke-width:2" cx="190" cy="426" rx="105" ry="420" /><path style="fill:#999" d="M716,545 l-520,0 -5,-1 -5,-2 -4,-3 -4,-3 -4,-5 -4,-6 -3,-7 -3,-8 -3,-8 -3,-9 -2,-10 -2,-10 -2,-11 -1,-11 0,-12 -1,-12 1,-13 0,-11 1,-11 2,-11 2,-10 2,-10 3,-9 3,-9 3,-7 3,-7 4,-6 4,-5 4,-4 4,-3 5,-2 5,-1 520,0 0,237z" /><path style="fill:#adadad" d="M716,527 l-542,0 -1,-1 -1,-1 0,-3 -2,-3 -2,-4 -2,-5 -2,-6 -2,-7 -2,-7 -2,-7 -2,-9 -2,-9 -1,-9 -2,-10 0,-10 0,-10 23,-100 542,0 0,201z" /><path style="fill:#c2c2c2" d="M716,509 l-551,0 0,0 -1,-2 0,-2 -1,-2 -1,-4 -2,-4 -1,-5 -1,-5 -2,-6 -1,-7 -1,-6 -1,-7 -1,-8 -1,-8 0,-8 0,-9 14,-82 551,0 0,165z" /><path style="fill:#d6d6d6" d="M716,491 l-557,0 0,-1 -1,-4 -2,-6 -1,-8 -1,-9 -2,-12 -1,-12 0,-13 8,-65 557,0 0,130z" /><path style="fill:#ebebeb" d="M716,474 l-560,0 0,-1 0,-3 -1,-4 -1,-6 -1,-7 -1,-8 -1,-9 0,-10 5,-47 560,0 0,95z" /><path style="fill:#fff" d="M716,456 l-563,0 1,0 -1,-2 0,-3 -1,-3 0,-5 -1,-5 0,-5 0,-6 0,-6 0,-6 0,-5 1,-4 1,-4 0,-3 0,-1 0,-1 563,0 0,59z" /><path style="fill:none;stroke:#4c4c4c;stroke-width:2" d="M716,545 l-520,0 -5,-1 -5,-2 -4,-3 -4,-3 -4,-5 -4,-6 -3,-7 -3,-8 -3,-8 -3,-9 -2,-10 -2,-10 -1,-11 -2,-11 0,-12 0,-12 0,-13 0,-11 2,-11 1,-11 2,-10 2,-10 3,-9 3,-9 3,-7 3,-7 4,-6 4,-5 4,-4 4,-3 5,-2 5,-1 520,0 0,237" /><path style="fill:#ccc;stroke:#4c4c4c;stroke-width:2" d="M874,847 l-79,0 -6,0 -5,-2 -5,-3 -5,-3 -5,-5 -5,-6 -5,-6 -5,-8 -5,-8 -4,-9 -5,-11 -4,-11 -4,-11 -4,-13 -4,-13 -4,-14 -3,-15 -3,-15 -3,-16 -3,-16 -3,-17 -3,-18 -2,-18 -2,-19 -2,-19 -2,-19 -1,-21 -1,-20 -1,-20 -1,-21 0,-22 0,-21 0,-22 0,-21 1,-21 1,-21 1,-20 1,-20 2,-20 2,-19 2,-19 2,-18 3,-17 3,-18 3,-16 3,-16 3,-15 3,-15 4,-14 4,-13 4,-12 4,-12 4,-11 5,-10 4,-10 5,-8 5,-8 5,-6 5,-6 5,-5 5,-3 5,-3 5,-2 6,0 79,0 0,841z" /><ellipse style="fill:#b2b2b2" cx="873" cy="426" rx="105" ry="420" /><path style="fill:#c4c4c4" d="M874,427 l52,365 -6,13 -6,10 -6,10 -7,8 -7,6 -7,5 -7,3 -6,0 -6,0 -5,-2 -5,-3 -6,-3 -5,-5 -5,-6 -5,-6 -4,-8 -5,-8 -5,-9 -4,-11 -4,-11 -5,-11 -3,-13 -4,-13 -4,-14 -3,-15 -4,-15 -3,-16 -3,-16 -3,-17 -2,-18 -2,-18 -2,-19 -2,-19 -2,-19 -1,-21 -2,-20 0,-20 -1,-21 -1,-22 0,-21 0,-7 0,-7 0,-7 1,-7 0,-6 0,-8 0,-6 1,-8 0,-6 0,-7 0,-7 0,-6 1,-7 0,-7 1,-7 0,-6 102,109z" /><path style="fill:#d4d4d4" d="M874,427 l26,405 -3,3 -3,3 -3,3 -4,2 -3,2 -4,1 -3,1 -3,0 -6,0 -5,-2 -5,-3 -6,-3 -5,-5 -5,-6 -5,-6 -4,-8 -5,-8 -5,-9 -4,-11 -4,-11 -5,-11 -3,-13 -4,-13 -4,-14 -3,-15 -4,-15 -3,-16 -3,-16 -3,-17 -2,-18 -2,-18 -2,-19 -2,-19 -2,-19 -1,-21 -2,-20 0,-20 -1,-21 -1,-22 0,-21 106,0z" /><path style="fill:#e5e5e5" d="M874,427 l-27,405 -5,-5 -5,-7 -5,-8 -5,-8 -4,-10 -5,-11 -4,-11 -4,-12 -5,-13 -3,-14 -4,-14 -4,-15 -3,-16 -3,-16 -3,-17 -3,-18 92,-210z" /><path style="fill:#c4c4c4" d="M874,427 l26,-406 6,5 4,7 5,8 5,9 4,9 5,11 4,11 4,12 5,13 3,14 4,14 4,15 3,16 3,17 3,17 3,17 -91,211z" /><ellipse style="fill:none;stroke:#4c4c4c;stroke-width:2" cx="873" cy="426" rx="105" ry="420" /><path style="fill:#999" d="M962,545 l-83,0 -5,-1 -4,-2 -5,-3 -4,-3 -4,-5 -3,-6 -4,-7 -3,-8 -3,-8 -2,-9 -3,-10 -2,-11 -1,-10 -1,-11 -1,-12 0,-12 0,-13 1,-11 1,-11 1,-11 2,-11 3,-9 2,-10 3,-8 3,-8 4,-6 3,-6 4,-5 4,-4 5,-3 4,-2 5,-1 83,0 0,237z" /><path style="fill:#adadad" d="M962,527 l-105,0 0,-1 -1,-1 -1,-3 -2,-3 -1,-4 -2,-5 -3,-6 -2,-7 -2,-7 -2,-7 -2,-9 -2,-9 -1,-9 -1,-10 -1,-10 0,-10 23,-100 105,0 0,201z" /><path style="fill:#c2c2c2" d="M962,509 l-113,0 -1,0 0,-2 -1,-2 -1,-2 -1,-4 -1,-4 -2,-5 -1,-5 -1,-6 -1,-7 -2,-6 -1,-7 -1,-8 -1,-8 0,-8 0,-9 15,-82 113,0 0,165z" /><path style="fill:#d6d6d6" d="M962,491 l-119,0 -1,-1 -1,-4 -2,-6 -1,-8 -1,-9 -1,-12 -1,-12 -1,-13 9,-65 119,0 0,130z" /><path style="fill:#ebebeb" d="M962,474 l-123,0 0,-1 0,-3 -1,-4 -1,-6 -1,-7 -1,-8 0,-9 -1,-10 5,-47 123,0 0,95z" /><path style="fill:#fff" d="M962,456 l-126,0 1,0 -1,-2 0,-3 0,-3 -1,-5 -1,-5 0,-5 0,-6 0,-6 0,-6 1,-5 0,-4 1,-4 0,-3 0,-1 0,-1 126,0 0,59z" /><path style="fill:none;stroke:#4c4c4c;stroke-width:2" d="M962,545 l-83,0 -5,-1 -4,-2 -5,-3 -4,-3 -4,-5 -3,-6 -4,-7 -3,-8 -3,-8 -2,-9 -3,-10 -2,-11 -1,-10 -1,-11 -1,-12 0,-12 0,-13 1,-11 1,-11 1,-11 2,-11 3,-9 2,-10 3,-8 3,-8 4,-6 3,-6 4,-5 4,-4 5,-3 4,-2 5,-1 83,0 0,237" /><ellipse style="fill:#ccc;stroke:#4c4c4c;stroke-width:2" cx="962" cy="426" rx="29" ry="118" /><ellipse style="fill:none;stroke:#4c4c4c;stroke-width:2" cx="962" cy="427" rx="14" ry="59" /></svg>