<!DOCTYPE svg PUBLIC "-//W3C//DTD SVG 20000303 Stylable//EN" "http://www.w3.org/TR/2000/03/WD-SVG-20000303/DTD/svg-20000303-stylable.dtd"[]><svg xmlns="http://www.w3.org/2000/svg" width="999px" height="409px" viewBox="0 0 999 380"><path style="fill:#ccccbd" d="M5,118 l989,0 0,247 -989,0 0,-247z" /><path style="fill:#c4c4b2" d="M746,365 l248,0 0,-165 -248,51 0,114z" /><path style="fill:#c4c4b2" d="M4,365 l248,0 0,-165 -248,51 0,114z" /><path style="fill:#babaa6" d="M746,365 l248,0 0,-144 -248,51 0,93z" /><path style="fill:#babaa6" d="M4,365 l248,0 0,-144 -248,51 0,93z" /><path style="fill:#b2b29b" d="M746,365 l248,0 0,-103 -248,51 0,52z" /><path style="fill:#b2b29b" d="M4,365 l248,0 0,-103 -248,51 0,52z" /><path style="fill:#e5e5dd" d="M4,118 l11,-83 968,0 11,83 -990,0z" /><path style="fill:none;stroke:#4c4c4c;stroke-width:2" d="M15,35 l968,0 11,83 0,247 -989,0 -1,-247 11,-83" /><path style="fill:#e5e5dd" d="M252,107 l494,0 0,268 -494,0 0,-268z" /><path style="fill:#deded4" d="M252,375 l494,0 0,-226 -494,103 0,123z" /><path style="fill:#d4d4c7" d="M252,375 l494,0 0,-206 -494,103 0,103z" /><path style="fill:#ccccbd" d="M252,375 l494,0 0,-164 -494,102 0,62z" /><path style="fill:none;stroke:#4c4c4c;stroke-width:2" d="M252,107 l494,0 0,268 -494,0 0,-268" /><path style="fill:#666;stroke:#4c4c4c;stroke-width:2" d="M520,158 l6,-4 6,4 0,37 -6,5 -6,-5 0,-37z" /><path style="fill:#666;stroke:#4c4c4c;stroke-width:2" d="M466,158 l6,-4 7,4 0,37 -7,5 -6,-5 0,-37z" /><path style="fill:#fff" d="M520,158 l6,-4 6,4 0,5 -6,-2 -6,2 0,-5z" /><path style="fill:#fff" d="M466,158 l6,-4 7,4 0,5 -7,-2 -6,2 0,-5z" /><path style="fill:#000" d="M466,191 l6,1 7,-1 0,4 -7,5 -6,-5 0,-4z" /><path style="fill:#000" d="M520,191 l6,1 6,-1 0,4 -6,5 -6,-5 0,-4z" /><path style="fill:#4c4c16" d="M468,231 l11,0 0,11 -11,0 0,-11z" /><path style="fill:#4c4c16" d="M519,231 l11,0 0,11 -11,0 0,-11z" /><path style="fill:#f7f7f4" d="M252,107 l5,-103 484,0 5,103 -494,0z" /><path style="fill:none;stroke:#4c4c4c;stroke-width:2" d="M499,4 l0,371" /><path style="fill:none;stroke:#4c4c4c;stroke-width:2" d="M252,107 l5,-103 484,0 5,103 -494,0" /><path style="fill:#e5ffff" d="M695,87 l10,-10 0,-42 -10,-10 -145,0 -10,10 0,42 10,10 145,0z" /><path style="fill:#e5ffff" d="M448,87 l10,-10 0,-42 -10,-10 -145,0 -10,10 0,42 10,10 145,0z" /><path style="fill:#b2cccc" d="M695,35 l10,11 0,-11 -10,-10 -145,0 -10,10 0,11 10,-11 145,0z" /><path style="fill:#b2cccc" d="M448,35 l10,11 0,-11 -10,-10 -145,0 -10,10 0,11 10,-11 145,0z" /><path style="fill:#fff" d="M370,40 l-18,8 -11,18 29,-26z" /><path style="fill:#fff" d="M350,77 l25,-11 16,-26 -41,37z" /><path style="fill:#fff" d="M617,40 l-18,8 -11,18 29,-26z" /><path style="fill:#fff" d="M597,77 l26,-11 15,-26 -41,37z" /><path style="fill:none;stroke:#b2e5e5;stroke-width:2" d="M633,77 l31,-26" /><path style="fill:none;stroke:#b2e5e5;stroke-width:2" d="M593,66 l25,-20" /><path style="fill:none;stroke:#b2e5e5;stroke-width:2" d="M386,77 l31,-26" /><path style="fill:none;stroke:#b2e5e5;stroke-width:2" d="M346,66 l24,-20" /><path style="fill:none;stroke:#4c4c4c;stroke-width:2" d="M448,87 l10,-10 0,-42 -10,-10 -145,0 -10,10 0,42 10,10 145,0" /><path style="fill:none;stroke:#4c4c4c;stroke-width:2" d="M695,87 l10,-10 0,-42 -10,-10 -145,0 -10,10 0,42 10,10 145,0" /></svg>