<!DOCTYPE svg PUBLIC "-//W3C//DTD SVG 20000303 Stylable//EN" "http://www.w3.org/TR/2000/03/WD-SVG-20000303/DTD/svg-20000303-stylable.dtd"[]><svg xmlns="http://www.w3.org/2000/svg" width="999px" height="913px" viewBox="0 0 999 909"><path style="fill:#666" d="M288,141 l481,628 91,-60 8,-7 7,-8 7,-7 8,-8 7,-8 7,-8 6,-8 6,-9 6,-8 6,-9 6,-9 5,-9 5,-9 5,-10 5,-9 4,-10 4,-9 4,-10 4,-10 3,-10 3,-10 3,-10 3,-10 2,-11 2,-10 2,-11 2,-10 1,-10 1,-11 0,-11 1,-10 0,-11 0,-21 -2,-20 -3,-20 -3,-20 -4,-20 -6,-19 -6,-19 -8,-18 -8,-18 -9,-17 -9,-17 -11,-17 -11,-16 -12,-15 -13,-15 -13,-14 -14,-13 -15,-13 -15,-12 -16,-11 -17,-11 -17,-9 -17,-9 -18,-8 -18,-8 -19,-6 -19,-6 -20,-4 -20,-3 -20,-3 -20,-2 -21,0 -11,0 -11,1 -11,0 -10,1 -11,1 -10,2 -11,2 -10,2 -11,2 -10,3 -10,3 -10,3 -10,4 -10,4 -10,4 -10,4 -9,4 -10,5 -9,5 -9,5 -9,6 -9,5 -9,6 -9,7 -8,6 -8,7 -9,6 -7,8 -8,7 -8,7 -7,8 -7,8z" /><circle style="fill:#ccc" cx="544" cy="432" r="404" /><path style="fill:#d4d4d4" d="M544,432 l104,-390 9,2 10,3 9,4 10,3 9,3 9,4 9,4 9,5 9,4 8,5 9,5 9,5 8,5 9,6 8,6 8,5 8,7 8,6 7,6 7,7 8,7 7,7 6,7 7,8 7,7 6,8 6,8 6,7 6,8 5,9 6,8 5,8 -351,203z" /><circle style="fill:none;stroke:#4c4c4c;stroke-width:2" cx="544" cy="432" r="404" /><path style="fill:#999" d="M153,208 l481,628 91,-60 8,-7 7,-7 8,-8 7,-7 7,-9 7,-8 6,-8 6,-8 7,-9 5,-9 6,-9 5,-9 5,-9 5,-9 5,-10 4,-9 4,-10 4,-10 4,-10 4,-10 2,-10 3,-10 3,-10 2,-11 3,-10 1,-10 2,-11 1,-10 1,-11 1,-10 0,-11 0,-11 0,-20 -2,-21 -2,-20 -4,-20 -4,-20 -6,-19 -6,-18 -8,-19 -8,-18 -9,-17 -9,-17 -11,-16 -11,-16 -12,-16 -13,-14 -13,-14 -14,-14 -15,-13 -15,-11 -16,-12 -16,-10 -17,-10 -18,-9 -18,-8 -18,-7 -19,-7 -19,-5 -20,-5 -19,-3 -21,-3 -20,-2 -21,0 -11,0 -10,1 -11,1 -11,1 -10,1 -11,1 -11,2 -10,2 -11,3 -10,2 -10,3 -10,4 -10,3 -10,4 -10,4 -10,4 -9,5 -10,4 -9,5 -9,5 -9,6 -9,6 -9,6 -9,6 -8,6 -8,7 -8,7 -8,7 -8,7 -8,7 -7,8 -7,8z" /><circle style="fill:#ccc" cx="409" cy="499" r="404" /><path style="fill:#d4d4d4" d="M409,499 l202,351 -11,6 -12,6 -11,5 -13,6 -12,4 -13,5 -12,4 -13,3 -13,3 -13,3 -13,3 -13,2 -14,1 -13,2 -13,0 -13,0 -21,0 -20,-2 -20,-2 -20,-4 -20,-4 -19,-6 -19,-6 -18,-8 -18,-8 -17,-9 -17,-9 -17,-11 -16,-11 -15,-12 -15,-13 -14,-13 -13,-14 -13,-15 -12,-15 -11,-16 -11,-16 -9,-17 -9,-18 -8,-18 -8,-18 -6,-19 -6,-19 -4,-20 -3,-20 -3,-20 -2,-20 0,-21 0,-6 0,-7 1,-7 0,-6 1,-7 0,-7 1,-6 1,-7 1,-6 1,-7 1,-7 2,-6 1,-6 1,-7 2,-6 1,-6 390,104z" /><path style="fill:#dedede" d="M409,499 l104,390 -6,1 -6,2 -7,1 -6,2 -6,1 -7,1 -7,1 -6,1 -6,1 -7,1 -7,0 -7,1 -6,1 -7,0 -6,0 -7,0 -21,0 -20,-2 -20,-2 -20,-4 -20,-4 -19,-6 -19,-6 -18,-8 -18,-8 -17,-9 -17,-9 -17,-11 -16,-11 -15,-12 -15,-13 -14,-13 -13,-14 -13,-15 -12,-15 -11,-16 -11,-16 -9,-17 -9,-18 -8,-18 -8,-18 -6,-19 -6,-19 -4,-20 -3,-20 -3,-20 -2,-20 0,-21 404,0z" /><path style="fill:#e5e5e5" d="M409,499 l-104,390 -9,-3 -10,-2 -9,-4 -9,-3 -10,-4 -9,-4 -9,-3 -9,-5 -9,-4 -8,-5 -9,-5 -9,-5 -8,-6 -8,-5 -9,-6 -8,-6 -8,-6 -7,-6 -8,-7 -7,-6 -8,-7 -7,-7 -6,-7 -7,-8 -7,-7 -6,-8 -6,-8 -6,-8 -6,-8 -5,-8 -6,-8 -5,-9 351,-202z" /><path style="fill:#d4d4d4" d="M409,499 l104,-390 10,3 9,2 9,4 10,3 9,4 9,4 9,3 9,5 9,4 9,5 9,5 8,5 9,6 8,5 8,6 8,5 8,7 8,6 7,7 8,6 7,7 7,7 7,7 7,8 6,7 6,8 7,8 5,8 6,8 5,8 6,8 5,9 -351,202z" /><path style="fill:#7f7f7f;stroke:#4c4c4c;stroke-width:2" d="M252,522 l8,-42 24,-38 83,-47 42,-8 42,8 38,24 24,38 8,42 -8,42 -24,38 -83,47 -42,8 -42,-8 -38,-24 -24,-38 -8,-42z" /><circle style="fill:#f7f7f7" cx="364" cy="522" r="112" /><path style="fill:#fff" d="M365,521 l-1,113 -42,-8 -38,-24 81,-81z" /><circle style="fill:none;stroke:#4c4c4c;stroke-width:2" cx="364" cy="522" r="112" /><circle style="fill:none;stroke:#4c4c4c;stroke-width:2" cx="364" cy="521" r="67" /><circle style="fill:none;stroke:#4c4c4c;stroke-width:2" cx="409" cy="499" r="404" /></svg>