<!DOCTYPE svg PUBLIC "-//W3C//DTD SVG 20000303 Stylable//EN" "http://www.w3.org/TR/2000/03/WD-SVG-20000303/DTD/svg-20000303-stylable.dtd"[]><svg xmlns="http://www.w3.org/2000/svg" width="998px" height="914px" viewBox="0 0 999 910"><path style="fill:#7f4c19" d="M288,141 l479,629 92,-61 8,-7 7,-7 8,-8 7,-8 7,-8 7,-8 7,-8 6,-9 6,-8 6,-9 6,-9 5,-9 5,-9 5,-10 5,-9 4,-10 5,-9 3,-10 4,-10 3,-10 4,-10 2,-10 3,-10 2,-11 2,-10 2,-10 2,-10 1,-11 1,-10 0,-11 1,-11 0,-10 0,-21 -2,-20 -3,-20 -3,-20 -5,-20 -5,-19 -7,-19 -7,-18 -8,-18 -9,-18 -10,-17 -10,-16 -12,-16 -12,-15 -13,-15 -13,-14 -14,-13 -15,-13 -15,-12 -16,-12 -16,-10 -18,-10 -17,-9 -18,-8 -18,-7 -19,-7 -19,-5 -20,-5 -20,-3 -20,-3 -21,-2 -20,0 -11,0 -11,1 -11,0 -11,1 -10,2 -11,1 -10,2 -11,3 -10,2 -10,3 -11,3 -10,3 -9,4 -10,3 -10,5 -10,4 -9,4 -10,5 -9,5 -9,5 -9,6 -9,6 -9,6 -8,6 -9,6 -8,7 -8,6 -8,8 -7,7 -8,7 -7,8 -7,7z" /><path style="fill:#c90;stroke:#4c4c4c;stroke-width:2" d="M262,146 l10,-10 10,-9 10,-8 11,-8 10,-8 11,-8 11,-6 11,-7 12,-7 12,-6 12,-5 12,-6 12,-4 13,-5 12,-3 13,-4 13,-3 12,-3 13,-3 14,-2 13,-1 13,-1 13,-1 13,0 13,0 14,0 13,1 13,2 13,2 13,2 13,3 13,3 13,4 13,4 13,4 12,5 12,6 12,6 12,6 12,6 11,7 11,7 11,8 10,8 10,8 11,9 9,8 10,10 9,9 9,10 8,10 8,10 8,10 8,11 7,11 7,12 6,11 7,12 5,12 6,12 5,12 4,13 4,12 4,13 -678,-181z" /><path style="fill:#b27f00;stroke:#4c4c4c;stroke-width:2" d="M835,718 l-9,9 -10,9 -11,9 -10,8 -10,8 -12,7 -11,7 -11,7 -12,6 -12,6 -11,6 -12,5 -13,5 -12,4 -13,4 -12,4 -13,3 -13,3 -13,2 -13,2 -13,2 -13,1 -14,1 -13,0 -13,0 -13,-1 -13,-1 -14,-1 -13,-2 -13,-3 -13,-2 -13,-4 -13,-3 -13,-5 -12,-4 -13,-5 -12,-5 -12,-6 -11,-6 -12,-7 -11,-6 -11,-8 -11,-7 -11,-8 -10,-8 -10,-9 -10,-9 -9,-9 -9,-9 -9,-10 -9,-10 -8,-10 -8,-11 -7,-11 -8,-11 -6,-11 -7,-12 -6,-11 -6,-12 -5,-12 -5,-13 -4,-12 -5,-12 -3,-13 677,181z" /><path style="fill:#d9a600;stroke:#4c4c4c;stroke-width:2" d="M262,146 l-9,9 -8,10 -9,10 -8,10 -8,11 -7,11 -7,11 -7,12 -6,11 -7,12 -5,12 -5,12 -5,13 -5,12 -4,13 -3,12 -3,13 -3,13 -3,13 -2,13 -1,13 -2,13 0,14 -1,13 1,13 0,14 1,13 2,13 1,13 3,13 2,13 4,13 677,181 9,-9 9,-10 9,-10 7,-11 8,-10 8,-11 7,-12 7,-11 6,-12 6,-12 6,-12 5,-12 5,-12 4,-13 4,-12 4,-12 3,-13 3,-13 2,-13 2,-13 2,-14 1,-13 0,-13 1,-13 0,-14 -1,-13 -1,-13 -1,-13 -2,-14 -2,-12 -3,-13 -3,-13 -678,-181z" /><path style="fill:#b27f4c;stroke:#4c4c4c;stroke-width:2" d="M153,209 l480,627 91,-59 8,-7 8,-8 7,-8 7,-7 7,-9 7,-8 6,-8 7,-9 6,-9 6,-8 5,-9 6,-9 5,-10 5,-9 4,-9 5,-10 4,-9 4,-10 4,-10 3,-10 3,-10 3,-10 3,-10 2,-10 2,-11 2,-10 2,-11 1,-10 1,-10 1,-11 1,-11 0,-10 -1,-21 -1,-20 -3,-21 -4,-19 -4,-20 -6,-19 -6,-19 -7,-19 -9,-17 -9,-18 -9,-17 -11,-16 -11,-16 -12,-15 -13,-15 -13,-14 -14,-14 -15,-12 -16,-12 -15,-12 -17,-10 -17,-10 -17,-9 -18,-8 -19,-7 -18,-7 -20,-5 -19,-5 -20,-3 -20,-3 -21,-2 -21,0 -11,0 -10,1 -11,1 -11,1 -10,1 -11,2 -10,1 -11,2 -10,3 -11,3 -10,3 -10,3 -10,4 -9,4 -10,3 -10,5 -10,4 -9,5 -9,5 -10,6 -9,5 -9,6 -8,6 -9,6 -8,6 -8,7 -9,7 -8,7 -7,7 -8,7 -7,8 -7,8z" /><path style="fill:#e5b219;stroke:#4c4c4c;stroke-width:2" d="M58,702 l-6,-12 -6,-11 -6,-13 -5,-12 -5,-12 -4,-13 -4,-12 -4,-13 -3,-13 -3,-12 -2,-14 -2,-13 -1,-13 -1,-13 -1,-13 0,-13 0,-13 1,-13 1,-14 1,-13 2,-13 2,-13 3,-13 3,-12 4,-13 4,-13 4,-12 5,-13 5,-12 6,-12 6,-12 6,-12 7,-11 7,-11 8,-12 8,-10 9,-10 8,-11 9,-10 10,-9 9,-9 10,-9 10,-9 10,-7 11,-8 11,-8 11,-7 11,-7 12,-6 11,-6 12,-6 12,-5 13,-5 12,-4 12,-4 13,-4 13,-3 13,-3 13,-2 13,-3 13,-1 13,-1 14,-1 13,0 -351,607z" /><path style="fill:#c90;stroke:#4c4c4c;stroke-width:2" d="M759,297 l7,12 6,12 5,12 6,12 4,12 5,13 4,12 3,13 4,13 2,12 3,13 1,14 2,13 1,13 1,13 0,13 0,13 -1,13 -1,13 -2,14 -1,13 -3,13 -2,12 -4,13 -3,13 -4,13 -5,12 -4,13 -6,12 -5,12 -6,12 -7,12 -7,11 -7,12 -8,10 -8,11 -8,11 -9,10 -9,9 -9,10 -10,9 -9,9 -10,8 -11,9 -10,7 -11,8 -11,7 -12,7 -11,6 -12,6 -12,6 -12,5 -12,5 -12,4 -13,4 -12,4 -13,3 -13,3 -13,3 -13,2 -13,1 -13,1 -14,1 -13,0 350,-607z" /><path style="fill:#cca600;stroke:#4c4c4c;stroke-width:2" d="M58,702 l7,11 7,11 8,11 8,10 8,10 9,11 9,9 9,10 10,9 10,9 10,9 10,8 11,8 11,7 11,7 11,7 11,7 12,6 12,5 12,6 12,4 13,5 13,4 12,4 13,3 13,3 14,3 12,2 14,1 13,1 13,1 13,0 350,-607 -6,-11 -8,-11 -7,-11 -8,-10 -8,-11 -9,-10 -9,-10 -9,-9 -10,-9 -10,-9 -10,-9 -11,-8 -10,-8 -11,-8 -11,-6 -11,-7 -12,-7 -11,-5 -12,-6 -12,-6 -13,-4 -12,-5 -13,-4 -13,-4 -13,-3 -13,-3 -13,-2 -13,-3 -13,-1 -13,-1 -13,-1 -13,0 -351,607z" /><circle style="fill:#000;stroke:#4c4c4c;stroke-width:2" cx="409" cy="499" r="67" /><path style="fill:#960;stroke:#4c4c4c;stroke-width:2" d="M418,431 l-27,2 -24,13 -17,19 -8,24 1,28 12,24 20,17 25,8 27,-1 24,-12 -24,6 -24,-9 -20,-17 -13,-24 -1,-27 9,-25 17,-19 23,-7z" /><circle style="fill:#b2b2b2" cx="648" cy="564" r="22" /><circle style="fill:#b2b2b2" cx="473" cy="260" r="22" /><circle style="fill:#b2b2b2" cx="344" cy="738" r="22" /><circle style="fill:#b2b2b2" cx="169" cy="434" r="22" /></svg>