<svg version="1.1" xmlns="http://www.w3.org/2000/svg" xmlns:xlink="http://www.w3.org/1999/xlink" width="112px" height="97px" viewBox="0 0 112.5 97.186" enable-background="new 0 0 112.5 97.186" xml:space="preserve">
<g id="Group_Frame">
	<path fill="#4C4C4C" stroke="#4C4C4C" stroke-width="0.25" d="M0,9.347h93.693v85.923H0V9.347z" />
	<path fill="#333333" d="M3.829,13.176h85.923v74.325H3.829V13.176z" />
	<path fill="#333333" stroke="#4C4C4C" stroke-width="0.25" d="M93.693,9.347L112.5,0v85.473L93.693,94.82V9.347z" />
	<path fill="#7F7F7F" stroke="#4C4C4C" stroke-width="0.25" d="M93.693,9.347L112.5,0H18.694L0,9.347H93.693z" />
</g>
<g id="Group_Chilling_Unit">
	<path fill="#7F3F0C" d="M7.771,17.118h78.153V83.56H7.771V17.118z" />
</g>
<g id="Group_Coils">
	<path fill="none" stroke="#4C4C4C" stroke-width="0.25" d="M7.771,21.059h78.153" />
	<path fill="none" stroke="#4C4C4C" stroke-width="0.25" d="M7.771,28.829h78.153" />
	<path fill="none" stroke="#4C4C4C" stroke-width="0.25" d="M7.771,36.712h78.153" />
	<path fill="none" stroke="#4C4C4C" stroke-width="0.25" d="M7.771,44.482h78.153" />
	<path fill="none" stroke="#4C4C4C" stroke-width="0.25" d="M7.771,52.253h78.153" />
	<path fill="none" stroke="#4C4C4C" stroke-width="0.25" d="M7.771,60.136h78.153" />
	<path fill="none" stroke="#4C4C4C" stroke-width="0.25" d="M7.771,67.905h78.153" />
	<path fill="none" stroke="#4C4C4C" stroke-width="0.25" d="M7.771,75.677h78.153" />
	<path fill="none" stroke="#4C4C4C" stroke-width="0.25" d="M85.924,25H7.771" />
	<path fill="none" stroke="#4C4C4C" stroke-width="0.25" d="M85.924,32.771H7.771" />
	<path fill="none" stroke="#4C4C4C" stroke-width="0.25" d="M85.924,40.541H7.771" />
	<path fill="none" stroke="#4C4C4C" stroke-width="0.25" d="M85.924,48.424H7.771" />
	<path fill="none" stroke="#4C4C4C" stroke-width="0.25" d="M85.924,56.194H7.771" />
	<path fill="none" stroke="#4C4C4C" stroke-width="0.25" d="M85.924,64.077H7.771" />
	<path fill="none" stroke="#4C4C4C" stroke-width="0.25" d="M85.924,71.847H7.771" />
	<path fill="none" stroke="#4C4C4C" stroke-width="0.25" d="M85.924,79.618H7.771" />
	<path fill="#CC6633" d="M7.771,83.56l1.914-2.027h74.212V19.145l2.027-2.027V83.56H7.771z" />
	<path fill="#663300" d="M85.924,17.118l-2.027,2.027H9.685v62.388L7.771,83.56V17.118H85.924z" />
	<path fill="#999999" d="M7.771,85.474h78.153v2.027H7.771V85.474z" />
</g>
<g id="Group_Bottom_Stand">
	<path fill="#A6A6A6" stroke="#4C4C4C" stroke-width="0.25" d="M85.811,97.185l4.73-2.364h-4.73V97.185z" />
	<path fill="#A6A6A6" stroke="#4C4C4C" stroke-width="0.25" d="M11.712,97.185l4.617-2.364h-4.617V97.185z" />
	<path fill="#333333" d="M7.771,95.271h3.829v1.914H7.771V95.271z" />
	<path fill="#333333" d="M81.982,95.271h3.941v1.914h-3.941V95.271z" />
</g>
</svg>