<svg version="1.1" xmlns="http://www.w3.org/2000/svg" xmlns:xlink="http://www.w3.org/1999/xlink" width="74px" height="112px" viewBox="0 0 74.434 112.5" enable-background="new 0 0 74.434 112.5" xml:space="preserve">
<g id="Group_Stand">
	<path fill="#333333" d="M13.513,108.331h3.941v4.167h-3.941V108.331z" />
	<path fill="#333333" d="M66.326,108.331h4.054v4.167h-4.054V108.331z" />
	<path fill="#333333" d="M39.074,108.331h4.055v4.167h-4.055V108.331z" />
</g>
<g id="Group_Chiller">
	<linearGradient id="SVGID_1_" gradientUnits="userSpaceOnUse" x1="85.2725" y1="97.4922" x2="-1.3785" y2="10.8412">
		<stop offset="0" style="stop-color:#E3D6BD" />
		<stop offset="0.36" style="stop-color:#E3D6BD" />
		<stop offset="0.52" style="stop-color:#F2E5CA" />
		<stop offset="1" style="stop-color:#F2E5CA" />
	</linearGradient>
	<path fill="url(#SVGID_1_)" stroke="#4C4C4C" stroke-width="0.1" d="M9.459,0.002h64.975v108.329H9.459V0.002z" />
</g>
<g id="Group_Extended_Box">
	<path fill="none" stroke="#B2A58C" stroke-width="0.25" d="M12.162,5.295h32.543v40.764H12.162V5.295" />
	<path fill="#F2E5CC" stroke="#4C4C4C" stroke-width="0.25" d="M9.459,5.295H6.756l-5.405,8.108v35.359h8.108V5.295z" />
</g>
<g id="Group_Switch">
	<path fill="#4D4D4D" d="M20.157,48.762h16.441v5.405H20.157V48.762z" />
</g>
<g id="Group_Tuner">
	<path fill="none" stroke="#FFF2D9" stroke-width="0.25" d="M66.326,105.629V75.787" />
	<path fill="none" stroke="#B2A58C" stroke-width="0.25" d="M63.623,105.629V75.787" />
	<path fill="#EBDEC5" d="M60.921,62.274h8.107v8.108h-8.107V62.274z" />
</g>
<g id="Group_Bolts">
	<path fill="none" stroke="#B2A58C" stroke-width="0.25" d="M64.299,67.68l-0.676-0.676v-1.126l0.676-0.901h1.126l0.901,0.901v1.126   l-0.901,0.676H64.299" />
	<radialGradient id="SVGID_2_" cx="29.165" cy="89.6387" r="1.8051" gradientUnits="userSpaceOnUse">
		<stop offset="0" style="stop-color:#E0E0E0" />
		<stop offset="0.5" style="stop-color:#E0E0E0" />
		<stop offset="1" style="stop-color:#595959" />
	</radialGradient>
	<path fill="url(#SVGID_2_)" d="M28.039,91.327l-0.788-1.576l0.788-1.802h2.027l1.013,1.802l-1.013,1.576H28.039z" />
	<radialGradient id="SVGID_3_" cx="22.0713" cy="78.8281" r="1.8053" gradientUnits="userSpaceOnUse">
		<stop offset="0" style="stop-color:#E0E0E0" />
		<stop offset="0.5" style="stop-color:#E0E0E0" />
		<stop offset="1" style="stop-color:#595959" />
	</radialGradient>
	<path fill="url(#SVGID_3_)" d="M21.17,80.518l-1.014-1.577l1.014-1.802h1.914l0.901,1.802l-0.901,1.577H21.17z" />
	<radialGradient id="SVGID_4_" cx="28.9961" cy="9.8555" r="1.9742" gradientUnits="userSpaceOnUse">
		<stop offset="0" style="stop-color:#E0E0E0" />
		<stop offset="0.5" style="stop-color:#E0E0E0" />
		<stop offset="1" style="stop-color:#595959" />
	</radialGradient>
	<path fill="url(#SVGID_4_)" d="M28.039,11.714l-1.126-1.915l1.126-1.802h2.027l1.013,1.802l-1.013,1.915H28.039z" />
</g>
<g id="Group_Wings">
	<path fill="none" stroke="#4C4C4C" stroke-width="0.25" d="M0,48.762l1.351-1.577" />
	<path fill="none" stroke="#4C4C4C" stroke-width="0.25" d="M0,16.331l1.351-1.577" />
	<path fill="none" stroke="#4C4C4C" stroke-width="0.25" d="M0,22.862l1.351-1.577" />
	<path fill="none" stroke="#4C4C4C" stroke-width="0.25" d="M0,29.393l1.351-1.802" />
	<path fill="none" stroke="#4C4C4C" stroke-width="0.25" d="M0,35.699l1.351-1.577" />
	<path fill="none" stroke="#4C4C4C" stroke-width="0.25" d="M0,42.23l1.351-1.577" />
</g>
</svg>