<svg version="1.1" xmlns="http://www.w3.org/2000/svg" xmlns:xlink="http://www.w3.org/1999/xlink" width="75px" height="112px" viewBox="0 0 74.887 112.5" enable-background="new 0 0 74.887 112.5" xml:space="preserve">
<g id="Group_Electric_Box">
	<linearGradient id="SVGID_1_" gradientUnits="userSpaceOnUse" x1="71.1614" y1="114.6514" x2="3.7258" y2="-2.1504">
		<stop offset="0" style="stop-color:#E3D6BD" />
		<stop offset="0.4" style="stop-color:#E3D6BD" />
		<stop offset="0.5" style="stop-color:#F2E5CC" />
		<stop offset="1" style="stop-color:#F2E5CC" />
	</linearGradient>
	<path fill="url(#SVGID_1_)" d="M0,0h74.887v112.5H0V0z" />
	<path fill="none" stroke="#4C4C4C" stroke-width="0.25" d="M0,0h74.887v112.5H0V0" />
	<path fill="none" stroke="#CCBFA6" stroke-width="0.25" d="M1.014,45.608h57.657V1.014" />
	<path fill="none" stroke="#FFFAF0" stroke-width="0.25" d="M1.014,45.608V1.014h57.657" />
	<path fill="none" stroke="#998C73" stroke-width="0.25" d="M1.014,111.373h72.747" />
</g>
<g id="Group_Indicator">
	<path fill="#333333" d="M1.014,65.653h64.639v44.369H1.014V65.653z" />
	<path fill="none" stroke="#4C4C4C" stroke-width="0.25" d="M9.459,102.928h35.022" />
	<path fill="none" stroke="#4C4C4C" stroke-width="0.25" d="M16.328,100.676h37.613" />
	<path fill="none" stroke="#4C4C4C" stroke-width="0.25" d="M32.77,86.6h23.424" />
	<path fill="none" stroke="#4C4C4C" stroke-width="0.25" d="M42.23,79.617v9.459" />
	<path fill="none" stroke="#4C4C4C" stroke-width="0.25" d="M28.04,74.887v23.424" />
	<path fill="none" stroke="#4C4C4C" stroke-width="0.25" d="M25.788,70.158v21.17" />
	<path fill="none" stroke="#4C4C4C" stroke-width="0.25" d="M6.869,77.365v18.693" />
	<path fill="none" stroke="#4C4C4C" stroke-width="0.25" d="M58.671,70.158v23.648" />
	<path fill="none" stroke="#4C4C4C" stroke-width="0.25" d="M35.023,72.635H9.459" />
</g>
<g id="Group_Vent_Frame">
	<path fill="none" stroke="#FFFAF0" stroke-width="0.25" d="M1.014,64.302V46.734h57.657" />
	<path fill="none" stroke="#CCBFA6" stroke-width="0.25" d="M1.014,64.302h57.657V46.734" />
</g>
<g id="Group_Vents">
	<path fill="none" stroke="#4C4C4C" stroke-width="0.25" d="M52.14,50.338h4.054" />
	<path fill="none" stroke="#4C4C4C" stroke-width="0.25" d="M3.491,48.085h4.054" />
	<path fill="none" stroke="#4C4C4C" stroke-width="0.25" d="M9.573,48.085h4.054" />
	<path fill="none" stroke="#4C4C4C" stroke-width="0.25" d="M15.766,48.085h3.941" />
	<path fill="none" stroke="#4C4C4C" stroke-width="0.25" d="M21.735,48.085h4.054" />
	<path fill="none" stroke="#4C4C4C" stroke-width="0.25" d="M27.816,48.085h4.054" />
	<path fill="none" stroke="#4C4C4C" stroke-width="0.25" d="M33.897,48.085h4.054" />
	<path fill="none" stroke="#4C4C4C" stroke-width="0.25" d="M39.978,48.085h4.054" />
	<path fill="none" stroke="#4C4C4C" stroke-width="0.25" d="M46.059,48.085h4.054" />
	<path fill="none" stroke="#4C4C4C" stroke-width="0.25" d="M52.14,48.085h4.054" />
	<path fill="none" stroke="#4C4C4C" stroke-width="0.25" d="M3.491,61.148h4.054" />
	<path fill="none" stroke="#4C4C4C" stroke-width="0.25" d="M9.573,61.148h4.054" />
	<path fill="none" stroke="#4C4C4C" stroke-width="0.25" d="M15.766,61.148h3.941" />
	<path fill="none" stroke="#4C4C4C" stroke-width="0.25" d="M21.735,61.148h4.054" />
	<path fill="none" stroke="#4C4C4C" stroke-width="0.25" d="M27.816,61.148h4.054" />
	<path fill="none" stroke="#4C4C4C" stroke-width="0.25" d="M33.897,61.148h4.054" />
	<path fill="none" stroke="#4C4C4C" stroke-width="0.25" d="M39.978,61.148h4.054" />
	<path fill="none" stroke="#4C4C4C" stroke-width="0.25" d="M46.059,61.148h4.054" />
	<path fill="none" stroke="#4C4C4C" stroke-width="0.25" d="M52.14,61.148h4.054" />
	<path fill="none" stroke="#4C4C4C" stroke-width="0.25" d="M46.059,54.617h4.054" />
	<path fill="none" stroke="#4C4C4C" stroke-width="0.25" d="M52.14,54.617h4.054" />
	<path fill="none" stroke="#4C4C4C" stroke-width="0.25" d="M3.491,52.365h4.054" />
	<path fill="none" stroke="#4C4C4C" stroke-width="0.25" d="M9.573,52.365h4.054" />
	<path fill="none" stroke="#4C4C4C" stroke-width="0.25" d="M15.766,52.365h3.941" />
	<path fill="none" stroke="#4C4C4C" stroke-width="0.25" d="M21.735,52.365h4.054" />
	<path fill="none" stroke="#4C4C4C" stroke-width="0.25" d="M27.816,52.365h4.054" />
	<path fill="none" stroke="#4C4C4C" stroke-width="0.25" d="M33.897,52.365h4.054" />
	<path fill="none" stroke="#4C4C4C" stroke-width="0.25" d="M39.978,52.365h4.054" />
	<path fill="none" stroke="#4C4C4C" stroke-width="0.25" d="M46.059,52.365h4.054" />
	<path fill="none" stroke="#4C4C4C" stroke-width="0.25" d="M52.14,52.365h4.054" />
	<path fill="none" stroke="#4C4C4C" stroke-width="0.25" d="M3.491,50.338h4.054" />
	<path fill="none" stroke="#4C4C4C" stroke-width="0.25" d="M9.573,50.338h4.054" />
	<path fill="none" stroke="#4C4C4C" stroke-width="0.25" d="M15.766,50.338h3.941" />
	<path fill="none" stroke="#4C4C4C" stroke-width="0.25" d="M21.735,50.338h4.054" />
	<path fill="none" stroke="#4C4C4C" stroke-width="0.25" d="M27.816,50.338h4.054" />
	<path fill="none" stroke="#4C4C4C" stroke-width="0.25" d="M33.897,50.338h4.054" />
	<path fill="none" stroke="#4C4C4C" stroke-width="0.25" d="M39.978,50.338h4.054" />
	<path fill="none" stroke="#4C4C4C" stroke-width="0.25" d="M46.059,50.338h4.054" />
	<path fill="none" stroke="#4C4C4C" stroke-width="0.25" d="M39.978,58.896h4.054" />
	<path fill="none" stroke="#4C4C4C" stroke-width="0.25" d="M46.059,58.896h4.054" />
	<path fill="none" stroke="#4C4C4C" stroke-width="0.25" d="M52.14,58.896h4.054" />
	<path fill="none" stroke="#4C4C4C" stroke-width="0.25" d="M3.491,56.644h4.054" />
	<path fill="none" stroke="#4C4C4C" stroke-width="0.25" d="M9.573,56.644h4.054" />
	<path fill="none" stroke="#4C4C4C" stroke-width="0.25" d="M15.766,56.644h3.941" />
	<path fill="none" stroke="#4C4C4C" stroke-width="0.25" d="M21.735,56.644h4.054" />
	<path fill="none" stroke="#4C4C4C" stroke-width="0.25" d="M27.816,56.644h4.054" />
	<path fill="none" stroke="#4C4C4C" stroke-width="0.25" d="M33.897,56.644h4.054" />
	<path fill="none" stroke="#4C4C4C" stroke-width="0.25" d="M39.978,56.644h4.054" />
	<path fill="none" stroke="#4C4C4C" stroke-width="0.25" d="M46.059,56.644h4.054" />
	<path fill="none" stroke="#4C4C4C" stroke-width="0.25" d="M52.14,56.644h4.054" />
	<path fill="none" stroke="#4C4C4C" stroke-width="0.25" d="M3.491,54.617h4.054" />
	<path fill="none" stroke="#4C4C4C" stroke-width="0.25" d="M9.573,54.617h4.054" />
	<path fill="none" stroke="#4C4C4C" stroke-width="0.25" d="M15.766,54.617h3.941" />
	<path fill="none" stroke="#4C4C4C" stroke-width="0.25" d="M21.735,54.617h4.054" />
	<path fill="none" stroke="#4C4C4C" stroke-width="0.25" d="M27.816,54.617h4.054" />
	<path fill="none" stroke="#4C4C4C" stroke-width="0.25" d="M33.897,54.617h4.054" />
	<path fill="none" stroke="#4C4C4C" stroke-width="0.25" d="M39.978,54.617h4.054" />
	<path fill="none" stroke="#4C4C4C" stroke-width="0.25" d="M33.897,48.986h4.054" />
	<path fill="none" stroke="#4C4C4C" stroke-width="0.25" d="M39.978,48.986h4.054" />
	<path fill="none" stroke="#4C4C4C" stroke-width="0.25" d="M46.059,48.986h4.054" />
	<path fill="none" stroke="#4C4C4C" stroke-width="0.25" d="M52.14,48.986h4.054" />
	<path fill="none" stroke="#4C4C4C" stroke-width="0.25" d="M3.491,62.049h4.054" />
	<path fill="none" stroke="#4C4C4C" stroke-width="0.25" d="M9.573,62.049h4.054" />
	<path fill="none" stroke="#4C4C4C" stroke-width="0.25" d="M15.766,62.049h3.941" />
	<path fill="none" stroke="#4C4C4C" stroke-width="0.25" d="M21.735,62.049h4.054" />
	<path fill="none" stroke="#4C4C4C" stroke-width="0.25" d="M27.816,62.049h4.054" />
	<path fill="none" stroke="#4C4C4C" stroke-width="0.25" d="M33.897,62.049h4.054" />
	<path fill="none" stroke="#4C4C4C" stroke-width="0.25" d="M39.978,62.049h4.054" />
	<path fill="none" stroke="#4C4C4C" stroke-width="0.25" d="M46.059,62.049h4.054" />
	<path fill="none" stroke="#4C4C4C" stroke-width="0.25" d="M52.14,62.049h4.054" />
	<path fill="none" stroke="#4C4C4C" stroke-width="0.25" d="M3.491,58.896h4.054" />
	<path fill="none" stroke="#4C4C4C" stroke-width="0.25" d="M9.573,58.896h4.054" />
	<path fill="none" stroke="#4C4C4C" stroke-width="0.25" d="M15.766,58.896h3.941" />
	<path fill="none" stroke="#4C4C4C" stroke-width="0.25" d="M21.735,58.896h4.054" />
	<path fill="none" stroke="#4C4C4C" stroke-width="0.25" d="M27.816,58.896h4.054" />
	<path fill="none" stroke="#4C4C4C" stroke-width="0.25" d="M33.897,58.896h4.054" />
	<path fill="none" stroke="#4C4C4C" stroke-width="0.25" d="M33.897,55.518h4.054" />
	<path fill="none" stroke="#4C4C4C" stroke-width="0.25" d="M39.978,55.518h4.054" />
	<path fill="none" stroke="#4C4C4C" stroke-width="0.25" d="M46.059,55.518h4.054" />
	<path fill="none" stroke="#4C4C4C" stroke-width="0.25" d="M52.14,55.518h4.054" />
	<path fill="none" stroke="#4C4C4C" stroke-width="0.25" d="M3.491,53.491h4.054" />
	<path fill="none" stroke="#4C4C4C" stroke-width="0.25" d="M9.573,53.491h4.054" />
	<path fill="none" stroke="#4C4C4C" stroke-width="0.25" d="M15.766,53.491h3.941" />
	<path fill="none" stroke="#4C4C4C" stroke-width="0.25" d="M21.735,53.491h4.054" />
	<path fill="none" stroke="#4C4C4C" stroke-width="0.25" d="M27.816,53.491h4.054" />
	<path fill="none" stroke="#4C4C4C" stroke-width="0.25" d="M33.897,53.491h4.054" />
	<path fill="none" stroke="#4C4C4C" stroke-width="0.25" d="M39.978,53.491h4.054" />
	<path fill="none" stroke="#4C4C4C" stroke-width="0.25" d="M46.059,53.491h4.054" />
	<path fill="none" stroke="#4C4C4C" stroke-width="0.25" d="M52.14,53.491h4.054" />
	<path fill="none" stroke="#4C4C4C" stroke-width="0.25" d="M3.491,51.239h4.054" />
	<path fill="none" stroke="#4C4C4C" stroke-width="0.25" d="M9.573,51.239h4.054" />
	<path fill="none" stroke="#4C4C4C" stroke-width="0.25" d="M15.766,51.239h3.941" />
	<path fill="none" stroke="#4C4C4C" stroke-width="0.25" d="M21.735,51.239h4.054" />
	<path fill="none" stroke="#4C4C4C" stroke-width="0.25" d="M27.816,51.239h4.054" />
	<path fill="none" stroke="#4C4C4C" stroke-width="0.25" d="M33.897,51.239h4.054" />
	<path fill="none" stroke="#4C4C4C" stroke-width="0.25" d="M39.978,51.239h4.054" />
	<path fill="none" stroke="#4C4C4C" stroke-width="0.25" d="M46.059,51.239h4.054" />
	<path fill="none" stroke="#4C4C4C" stroke-width="0.25" d="M52.14,51.239h4.054" />
	<path fill="none" stroke="#4C4C4C" stroke-width="0.25" d="M3.491,48.986h4.054" />
	<path fill="none" stroke="#4C4C4C" stroke-width="0.25" d="M9.573,48.986h4.054" />
	<path fill="none" stroke="#4C4C4C" stroke-width="0.25" d="M15.766,48.986h3.941" />
	<path fill="none" stroke="#4C4C4C" stroke-width="0.25" d="M21.735,48.986h4.054" />
	<path fill="none" stroke="#4C4C4C" stroke-width="0.25" d="M27.816,48.986h4.054" />
	<path fill="none" stroke="#4C4C4C" stroke-width="0.25" d="M3.491,59.797h4.054" />
	<path fill="none" stroke="#4C4C4C" stroke-width="0.25" d="M9.573,59.797h4.054" />
	<path fill="none" stroke="#4C4C4C" stroke-width="0.25" d="M15.766,59.797h3.941" />
	<path fill="none" stroke="#4C4C4C" stroke-width="0.25" d="M21.735,59.797h4.054" />
	<path fill="none" stroke="#4C4C4C" stroke-width="0.25" d="M27.816,59.797h4.054" />
	<path fill="none" stroke="#4C4C4C" stroke-width="0.25" d="M33.897,59.797h4.054" />
	<path fill="none" stroke="#4C4C4C" stroke-width="0.25" d="M39.978,59.797h4.054" />
	<path fill="none" stroke="#4C4C4C" stroke-width="0.25" d="M46.059,59.797h4.054" />
	<path fill="none" stroke="#4C4C4C" stroke-width="0.25" d="M52.14,59.797h4.054" />
	<path fill="none" stroke="#4C4C4C" stroke-width="0.25" d="M3.491,57.771h4.054" />
	<path fill="none" stroke="#4C4C4C" stroke-width="0.25" d="M9.573,57.771h4.054" />
	<path fill="none" stroke="#4C4C4C" stroke-width="0.25" d="M15.766,57.771h3.941" />
	<path fill="none" stroke="#4C4C4C" stroke-width="0.25" d="M21.735,57.771h4.054" />
	<path fill="none" stroke="#4C4C4C" stroke-width="0.25" d="M27.816,57.771h4.054" />
	<path fill="none" stroke="#4C4C4C" stroke-width="0.25" d="M33.897,57.771h4.054" />
	<path fill="none" stroke="#4C4C4C" stroke-width="0.25" d="M39.978,57.771h4.054" />
	<path fill="none" stroke="#4C4C4C" stroke-width="0.25" d="M46.059,57.771h4.054" />
	<path fill="none" stroke="#4C4C4C" stroke-width="0.25" d="M52.14,57.771h4.054" />
	<path fill="none" stroke="#4C4C4C" stroke-width="0.25" d="M3.491,55.518h4.054" />
	<path fill="none" stroke="#4C4C4C" stroke-width="0.25" d="M9.573,55.518h4.054" />
	<path fill="none" stroke="#4C4C4C" stroke-width="0.25" d="M15.766,55.518h3.941" />
	<path fill="none" stroke="#4C4C4C" stroke-width="0.25" d="M21.735,55.518h4.054" />
	<path fill="none" stroke="#4C4C4C" stroke-width="0.25" d="M27.816,55.518h4.054" />
</g>
<g id="Group_Handle">
	<path fill="#454545" d="M51.464,9.459h5.405v2.815h-5.405V9.459z" />
	<path fill="#454545" d="M51.013,35.022h6.307V37.5h-6.307V35.022z" />
	<path fill="#999999" d="M48.085,43.806h8.108v0.676h-8.108V43.806z" />
</g>
<g id="Group_Pink_Button">
	<path fill="#E5D8BF" d="M60.923,28.041h10.586v4.73H60.923V28.041z" />
	<path fill="#BFB299" d="M60.923,33.221h10.586v-0.45H60.923V33.221z" />
	<path fill="none" stroke="#CCBFA6" stroke-width="0.25" d="M60.923,28.041v4.73h10.586v-4.73" />
</g>
<g id="Group_Grey_Switch">
	<path fill="#E5E5E5" d="M60.923,8.221h7.658v10.36h-7.658V8.221z" />
	<path fill="#CCCCCC" d="M60.923,9.797h7.658v6.982h-7.658V9.797z" />
	<path fill="none" stroke="#FFFFFF" stroke-width="0.25" d="M60.923,16.779V9.797h7.658" />
	<path fill="none" stroke="#4C4C4C" stroke-width="0.25" d="M68.581,9.797v6.982h-7.658" />
	<path fill="none" stroke="#7F7F7F" stroke-width="0.25" d="M60.923,18.581h7.658" />
</g>
</svg>