<svg version="1.1" xmlns="http://www.w3.org/2000/svg" xmlns:xlink="http://www.w3.org/1999/xlink" width="54px" height="112px" viewBox="0 0 53.942 112.5" enable-background="new 0 0 53.942 112.5" xml:space="preserve">
<g id="Group_Side_Frame">
	<path fill="#CCCCCC" stroke="#4C4C4C" stroke-width="0.25" d="M44.933,112.5l9.009-4.504V0l-9.009,4.392V112.5z" />
</g>
<g id="Group_Frame">
	<path fill="#F2F2F2" stroke="#4C4C4C" stroke-width="0.25" d="M0,4.392h49.438V112.5H0V4.392z" />
</g>
<g id="Group_Control_Box">
	<path fill="#F2F2F2" stroke="#4C4C4C" stroke-width="0.25" d="M4.393,8.896h40.541v58.559H4.393V8.896z" />
</g>
<g id="Group_Vent_Container">
	<path fill="#E5E5E5" stroke="#4C4C4C" stroke-width="0.25" d="M4.393,67.455h40.541v40.541H4.393V67.455z" />
	<path fill="#666666" stroke="#4C4C4C" stroke-width="0.25" d="M6.645,69.707H42.68v36.036H6.645V69.707z" />
</g>
<g id="Group_Blower">
	<linearGradient id="SVGID_1_" gradientUnits="userSpaceOnUse" x1="15.9912" y1="73.0859" x2="15.9912" y2="70.834">
		<stop offset="0" style="stop-color:#E0E0E0" />
		<stop offset="1" style="stop-color:#595959" />
	</linearGradient>
	<path fill="url(#SVGID_1_)" d="M7.771,70.834h16.442v2.252H7.771V70.834z" />
	<linearGradient id="SVGID_2_" gradientUnits="userSpaceOnUse" x1="15.9912" y1="77.5898" x2="15.9912" y2="75.3379">
		<stop offset="0" style="stop-color:#E0E0E0" />
		<stop offset="1" style="stop-color:#595959" />
	</linearGradient>
	<path fill="url(#SVGID_2_)" d="M7.771,75.338h16.442v2.252H7.771V75.338z" />
	<linearGradient id="SVGID_3_" gradientUnits="userSpaceOnUse" x1="15.9912" y1="82.0947" x2="15.9912" y2="79.8418">
		<stop offset="0" style="stop-color:#E0E0E0" />
		<stop offset="1" style="stop-color:#595959" />
	</linearGradient>
	<path fill="url(#SVGID_3_)" d="M7.771,79.842h16.442v2.253H7.771V79.842z" />
	<linearGradient id="SVGID_4_" gradientUnits="userSpaceOnUse" x1="15.9912" y1="86.5996" x2="15.9912" y2="84.3467">
		<stop offset="0" style="stop-color:#E0E0E0" />
		<stop offset="1" style="stop-color:#595959" />
	</linearGradient>
	<path fill="url(#SVGID_4_)" d="M7.771,84.347h16.442V86.6H7.771V84.347z" />
	<linearGradient id="SVGID_5_" gradientUnits="userSpaceOnUse" x1="15.9912" y1="91.1035" x2="15.9912" y2="88.8516">
		<stop offset="0" style="stop-color:#E0E0E0" />
		<stop offset="1" style="stop-color:#595959" />
	</linearGradient>
	<path fill="url(#SVGID_5_)" d="M7.771,88.852h16.442v2.252H7.771V88.852z" />
	<linearGradient id="SVGID_6_" gradientUnits="userSpaceOnUse" x1="15.9912" y1="95.6074" x2="15.9912" y2="93.3555">
		<stop offset="0" style="stop-color:#E0E0E0" />
		<stop offset="1" style="stop-color:#595959" />
	</linearGradient>
	<path fill="url(#SVGID_6_)" d="M7.771,93.355h16.442v2.252H7.771V93.355z" />
	<linearGradient id="SVGID_7_" gradientUnits="userSpaceOnUse" x1="15.9912" y1="100.1133" x2="15.9912" y2="97.8604">
		<stop offset="0" style="stop-color:#E0E0E0" />
		<stop offset="1" style="stop-color:#595959" />
	</linearGradient>
	<path fill="url(#SVGID_7_)" d="M7.771,97.86h16.442v2.253H7.771V97.86z" />
	<linearGradient id="SVGID_8_" gradientUnits="userSpaceOnUse" x1="15.9912" y1="104.6172" x2="15.9912" y2="102.3652">
		<stop offset="0" style="stop-color:#E0E0E0" />
		<stop offset="1" style="stop-color:#595959" />
	</linearGradient>
	<path fill="url(#SVGID_8_)" d="M7.771,102.365h16.442v2.252H7.771V102.365z" />
	<linearGradient id="SVGID_9_" gradientUnits="userSpaceOnUse" x1="33.3345" y1="73.0859" x2="33.3345" y2="70.834">
		<stop offset="0" style="stop-color:#E0E0E0" />
		<stop offset="1" style="stop-color:#595959" />
	</linearGradient>
	<path fill="url(#SVGID_9_)" d="M25.113,70.834h16.442v2.252H25.113V70.834z" />
	<linearGradient id="SVGID_10_" gradientUnits="userSpaceOnUse" x1="33.3345" y1="77.5898" x2="33.3345" y2="75.3379">
		<stop offset="0" style="stop-color:#E0E0E0" />
		<stop offset="1" style="stop-color:#595959" />
	</linearGradient>
	<path fill="url(#SVGID_10_)" d="M25.113,75.338h16.442v2.252H25.113V75.338z" />
	<linearGradient id="SVGID_11_" gradientUnits="userSpaceOnUse" x1="33.3345" y1="82.0947" x2="33.3345" y2="79.8418">
		<stop offset="0" style="stop-color:#E0E0E0" />
		<stop offset="1" style="stop-color:#595959" />
	</linearGradient>
	<path fill="url(#SVGID_11_)" d="M25.113,79.842h16.442v2.253H25.113V79.842z" />
	<linearGradient id="SVGID_12_" gradientUnits="userSpaceOnUse" x1="33.3345" y1="86.5996" x2="33.3345" y2="84.3467">
		<stop offset="0" style="stop-color:#E0E0E0" />
		<stop offset="1" style="stop-color:#595959" />
	</linearGradient>
	<path fill="url(#SVGID_12_)" d="M25.113,84.347h16.442V86.6H25.113V84.347z" />
	<linearGradient id="SVGID_13_" gradientUnits="userSpaceOnUse" x1="33.3345" y1="91.1035" x2="33.3345" y2="88.8516">
		<stop offset="0" style="stop-color:#E0E0E0" />
		<stop offset="1" style="stop-color:#595959" />
	</linearGradient>
	<path fill="url(#SVGID_13_)" d="M25.113,88.852h16.442v2.252H25.113V88.852z" />
	<linearGradient id="SVGID_14_" gradientUnits="userSpaceOnUse" x1="33.3345" y1="95.6074" x2="33.3345" y2="93.3555">
		<stop offset="0" style="stop-color:#E0E0E0" />
		<stop offset="1" style="stop-color:#595959" />
	</linearGradient>
	<path fill="url(#SVGID_14_)" d="M25.113,93.355h16.442v2.252H25.113V93.355z" />
	<linearGradient id="SVGID_15_" gradientUnits="userSpaceOnUse" x1="33.3345" y1="100.1133" x2="33.3345" y2="97.8604">
		<stop offset="0" style="stop-color:#E0E0E0" />
		<stop offset="1" style="stop-color:#595959" />
	</linearGradient>
	<path fill="url(#SVGID_15_)" d="M25.113,97.86h16.442v2.253H25.113V97.86z" />
	<linearGradient id="SVGID_16_" gradientUnits="userSpaceOnUse" x1="33.3345" y1="104.6172" x2="33.3345" y2="102.3652">
		<stop offset="0" style="stop-color:#E0E0E0" />
		<stop offset="1" style="stop-color:#595959" />
	</linearGradient>
	<path fill="url(#SVGID_16_)" d="M25.113,102.365h16.442v2.252H25.113V102.365z" />
</g>
<g id="Group_Indicator">
	<circle fill="#7F7F7F" stroke="#4C4C4C" stroke-width="0.25" cx="24.663" cy="20.158" r="6.757" />
	<path fill="#FFFFFF" d="M24.663,20.158l-5.63,1.577v-1.577l0.112-1.126l0.338-1.126l0.563-0.901l0.676-0.901l0.788-0.788   l1.014-0.451l1.014-0.45l1.126-0.113l1.239,0.113l1.014,0.45l1.013,0.451l0.9,0.788l0.676,0.901l0.563,0.901l0.338,1.126   l0.112,1.126l-0.112,1.239l-0.112,0.338L24.663,20.158z" />
	<path fill="none" stroke="#4C4C4C" stroke-width="0.25" d="M23.987,20.383L23.987,20.383v-0.112l0,0v-0.113l0.113-0.225   l0.113-0.226l0.225-0.112l0.225-0.113L25,19.595l0.225,0.112l0.113,0.226v0.225v0.113l0,0v0.112l0,0" />
	<path stroke="#4C4C4C" stroke-width="0.25" d="M24.663,19.482l0.225-3.604v3.604H24.663z" />
</g>
<g id="Group_Red_Indicator">
	<path fill="#FF0000" d="M19.933,17.905h9.46v1.352h-9.46V17.905z" />
	<path fill="#FF7F7F" d="M14.527,68.131h5.631v1.126h-5.631V68.131z" />
</g>
<g id="Group_Green_Indicator">
	<path fill="#00FF00" d="M19.032,32.545h18.017v1.126H19.032V32.545z" />
	<path fill="#00FF00" d="M23.086,17.905h3.378v1.352h-3.378V17.905z" />
</g>
<g id="Group_Button">
	<path fill="#333333" d="M19.032,34.797h8.333v0.676h-8.333V34.797z" />
	<path fill="#333333" d="M19.032,35.923h8.333v0.676h-8.333V35.923z" />
</g>
<g id="Group_Display">
	<path fill="#00FF00" stroke="#CCCCCC" stroke-width="0.25" d="M17.906,33.671l-5.63-3.378v3.378H17.906z" />
	<path fill="#FFFFFF" stroke="#CCCCCC" stroke-width="0.25" d="M12.275,30.293l5.63,3.378v-3.378H12.275z" />
</g>
<g id="Group_Top_Cover">
	<path fill="#FFFFFF" stroke="#4C4C4C" stroke-width="0.25" d="M53.942,0l-9.009,4.392H4.393L13.401,0H53.942z" />
</g>
<g id="Group_Buttons">
	<radialGradient id="SVGID_17_" cx="32.0386" cy="57.376" r="1.1826" gradientUnits="userSpaceOnUse">
		<stop offset="0" style="stop-color:#E0E0E0" />
		<stop offset="0.5" style="stop-color:#E0E0E0" />
		<stop offset="1" style="stop-color:#595959" />
	</radialGradient>
	<path fill="url(#SVGID_17_)" d="M32.095,58.559l-0.901-0.338l-0.338-0.9l0.338-0.789l0.901-0.338l0.788,0.338l0.338,0.789   l-0.338,0.9L32.095,58.559z" />
	<radialGradient id="SVGID_18_" cx="32.0386" cy="52.6465" r="1.1826" gradientUnits="userSpaceOnUse">
		<stop offset="0" style="stop-color:#E0E0E0" />
		<stop offset="0.5" style="stop-color:#E0E0E0" />
		<stop offset="1" style="stop-color:#595959" />
	</radialGradient>
	<path fill="url(#SVGID_18_)" d="M32.095,53.829l-0.901-0.338l-0.338-0.789l0.338-0.901l0.901-0.338l0.788,0.338l0.338,0.901   l-0.338,0.789L32.095,53.829z" />
	<radialGradient id="SVGID_19_" cx="32.0386" cy="47.9727" r="1.1549" gradientUnits="userSpaceOnUse">
		<stop offset="0" style="stop-color:#E0E0E0" />
		<stop offset="0.5" style="stop-color:#E0E0E0" />
		<stop offset="1" style="stop-color:#595959" />
	</radialGradient>
	<path fill="url(#SVGID_19_)" d="M32.095,49.099l-0.901-0.338l-0.338-0.788l0.338-0.789l0.901-0.338l0.788,0.338l0.338,0.789   l-0.338,0.788L32.095,49.099z" />
	<radialGradient id="SVGID_20_" cx="32.0386" cy="43.2998" r="1.1824" gradientUnits="userSpaceOnUse">
		<stop offset="0" style="stop-color:#E0E0E0" />
		<stop offset="0.5" style="stop-color:#E0E0E0" />
		<stop offset="1" style="stop-color:#595959" />
	</radialGradient>
	<path fill="url(#SVGID_20_)" d="M32.095,44.482l-0.901-0.338l-0.338-0.901l0.338-0.788l0.901-0.338l0.788,0.338l0.338,0.788   l-0.338,0.901L32.095,44.482z" />
	<radialGradient id="SVGID_21_" cx="32.0386" cy="38.626" r="1.1549" gradientUnits="userSpaceOnUse">
		<stop offset="0" style="stop-color:#E0E0E0" />
		<stop offset="0.5" style="stop-color:#E0E0E0" />
		<stop offset="1" style="stop-color:#595959" />
	</radialGradient>
	<path fill="url(#SVGID_21_)" d="M32.095,39.752l-0.901-0.338l-0.338-0.789l0.338-0.901l0.901-0.225l0.788,0.225l0.338,0.901   l-0.338,0.789L32.095,39.752z" />
</g>
</svg>