<svg version="1.1" xmlns="http://www.w3.org/2000/svg" xmlns:xlink="http://www.w3.org/1999/xlink" width="112px" height="49px" viewBox="0 0 112.5 48.758" enable-background="new 0 0 112.5 48.758" xml:space="preserve">
<g id="Group_Filter">
	<linearGradient id="SVGID_1_" gradientUnits="userSpaceOnUse" x1="48.1987" y1="35.4709" x2="48.1987" y2="8.6716">
		<stop offset="0" style="stop-color:#99CCCC" />
		<stop offset="0.5" style="stop-color:#C7E1E1" />
		<stop offset="1" style="stop-color:#99CCCC" />
	</linearGradient>
	<rect x="4.845" y="8.671" fill="url(#SVGID_1_)" width="86.707" height="26.8" />
	<linearGradient id="SVGID_2_" gradientUnits="userSpaceOnUse" x1="4.4512" y1="11.1477" x2="4.4512" y2="9.5715">
		<stop offset="0" style="stop-color:#99CCCC" />
		<stop offset="0.5" style="stop-color:#C7E1E1" />
		<stop offset="1" style="stop-color:#99CCCC" />
	</linearGradient>
	<rect x="4.057" y="9.572" fill="url(#SVGID_2_)" width="0.788" height="1.576" />
	<linearGradient id="SVGID_3_" gradientUnits="userSpaceOnUse" x1="4.4512" y1="34.5706" x2="4.4512" y2="32.9934">
		<stop offset="0" style="stop-color:#99CCCC" />
		<stop offset="0.5" style="stop-color:#C7E1E1" />
		<stop offset="1" style="stop-color:#99CCCC" />
	</linearGradient>
	<rect x="4.057" y="32.993" fill="url(#SVGID_3_)" width="0.788" height="1.577" />
	<linearGradient id="SVGID_4_" gradientUnits="userSpaceOnUse" x1="4.4512" y1="22.8586" x2="4.4512" y2="21.2825">
		<stop offset="0" style="stop-color:#99CCCC" />
		<stop offset="0.5" style="stop-color:#C7E1E1" />
		<stop offset="1" style="stop-color:#99CCCC" />
	</linearGradient>
	<rect x="4.057" y="21.282" fill="url(#SVGID_4_)" width="0.788" height="1.576" />
	<linearGradient id="SVGID_5_" gradientUnits="userSpaceOnUse" x1="48.1987" y1="35.4709" x2="48.1987" y2="8.6716">
		<stop offset="0" style="stop-color:#99CCCC" />
		<stop offset="0.5" style="stop-color:#C7E1E1" />
		<stop offset="1" style="stop-color:#99CCCC" />
	</linearGradient>
	<path fill="url(#SVGID_5_)" stroke="#4C4C4C" stroke-width="0.1" d="M4.845,8.671h86.707v26.8H4.845V8.671" />
</g>
<g id="Group_Inlet">
	<linearGradient id="SVGID_6_" gradientUnits="userSpaceOnUse" x1="108.3301" y1="24.6604" x2="108.3301" y2="19.4807">
		<stop offset="0" style="stop-color:#99CCCC" />
		<stop offset="0.5" style="stop-color:#C7E1E1" />
		<stop offset="1" style="stop-color:#99CCCC" />
	</linearGradient>
	<rect x="104.164" y="19.481" fill="url(#SVGID_6_)" width="8.332" height="5.18" />
	<linearGradient id="SVGID_7_" gradientUnits="userSpaceOnUse" x1="97.8574" y1="27.1379" x2="97.8574" y2="17.0037">
		<stop offset="0" style="stop-color:#99CCCC" />
		<stop offset="0.5" style="stop-color:#C7E1E1" />
		<stop offset="1" style="stop-color:#99CCCC" />
	</linearGradient>
	<rect x="91.552" y="17.003" fill="url(#SVGID_7_)" width="12.612" height="10.135" />
	<linearGradient id="SVGID_8_" gradientUnits="userSpaceOnUse" x1="108.3301" y1="24.6604" x2="108.3301" y2="19.4807">
		<stop offset="0" style="stop-color:#99CCCC" />
		<stop offset="0.5" style="stop-color:#C7E1E1" />
		<stop offset="1" style="stop-color:#99CCCC" />
	</linearGradient>
	<path fill="url(#SVGID_8_)" stroke="#4C4C4C" stroke-width="0.1" d="M104.164,19.481h8.332v5.18h-8.332V19.481" />
	<linearGradient id="SVGID_9_" gradientUnits="userSpaceOnUse" x1="97.8574" y1="27.1379" x2="97.8574" y2="17.0037">
		<stop offset="0" style="stop-color:#99CCCC" />
		<stop offset="0.5" style="stop-color:#C7E1E1" />
		<stop offset="1" style="stop-color:#99CCCC" />
	</linearGradient>
	<path fill="url(#SVGID_9_)" stroke="#4C4C4C" stroke-width="0.1" d="M91.552,17.003h12.612v10.135H91.552V17.003" />
	<linearGradient id="SVGID_10_" gradientUnits="userSpaceOnUse" x1="108.3301" y1="20.3821" x2="108.3301" y2="20.3821">
		<stop offset="0" style="stop-color:#99CCCC" />
		<stop offset="0.5" style="stop-color:#C7E1E1" />
		<stop offset="1" style="stop-color:#99CCCC" />
	</linearGradient>
	<path fill="url(#SVGID_10_)" stroke="#4C4C4C" stroke-width="0.1" d="M104.164,20.382h8.332" />
	<linearGradient id="SVGID_11_" gradientUnits="userSpaceOnUse" x1="108.3301" y1="23.76" x2="108.3301" y2="23.76">
		<stop offset="0" style="stop-color:#99CCCC" />
		<stop offset="0.5" style="stop-color:#C7E1E1" />
		<stop offset="1" style="stop-color:#99CCCC" />
	</linearGradient>
	<path fill="url(#SVGID_11_)" stroke="#4C4C4C" stroke-width="0.1" d="M112.496,23.76h-8.332" />
</g>
<g id="Group_Handle">
	<linearGradient id="SVGID_12_" gradientUnits="userSpaceOnUse" x1="2.4243" y1="28.7141" x2="2.4243" y2="15.4275">
		<stop offset="0" style="stop-color:#99CCCC" />
		<stop offset="0.5" style="stop-color:#C7E1E1" />
		<stop offset="1" style="stop-color:#99CCCC" />
	</linearGradient>
	<polygon fill="url(#SVGID_12_)" stroke="#4C4C4C" stroke-width="0.1" points="4.845,28.714 0.003,28.714 0.003,15.427    4.845,15.427 4.845,17.003 1.805,17.003 1.805,27.138 4.845,27.138  " />
</g>
<g id="Group_Bolt">
	<path fill="none" stroke="#4C4C4C" stroke-width="0.1" d="M4.057,9.572h0.788v1.576H4.057V9.572" />
	<path fill="none" stroke="#4C4C4C" stroke-width="0.1" d="M4.057,32.993h0.788v1.577H4.057V32.993" />
	<path fill="none" stroke="#4C4C4C" stroke-width="0.1" d="M4.057,21.282h0.788v1.576H4.057V21.282" />
	<path fill="none" stroke="#4C4C4C" stroke-width="0.1" d="M6.76,35.471v-26.8" />
</g>
<g id="Group_Viewer">
	<linearGradient id="SVGID_13_" gradientUnits="userSpaceOnUse" x1="74.8867" y1="6.1936" x2="74.8867" y2="2.1399">
		<stop offset="0" style="stop-color:#99CCCC" />
		<stop offset="0.5" style="stop-color:#C7E1E1" />
		<stop offset="1" style="stop-color:#99CCCC" />
	</linearGradient>
	<path fill="url(#SVGID_13_)" stroke="#4C4C4C" stroke-width="0.1" d="M78.265,5.406h-3.378l-0.676,0.788h-2.703V2.14h2.703   l0.676,0.788h3.378V5.406z" />
	<linearGradient id="SVGID_14_" gradientUnits="userSpaceOnUse" x1="72.4092" y1="4.1667" x2="72.4092" y2="4.1667">
		<stop offset="0" style="stop-color:#99CCCC" />
		<stop offset="0.5" style="stop-color:#C7E1E1" />
		<stop offset="1" style="stop-color:#99CCCC" />
	</linearGradient>
	<path fill="url(#SVGID_14_)" stroke="#4C4C4C" stroke-width="0.1" d="M72.409,2.14v4.054" />
	<linearGradient id="SVGID_15_" gradientUnits="userSpaceOnUse" x1="74.2109" y1="4.1667" x2="74.2109" y2="4.1667">
		<stop offset="0" style="stop-color:#99CCCC" />
		<stop offset="0.5" style="stop-color:#C7E1E1" />
		<stop offset="1" style="stop-color:#99CCCC" />
	</linearGradient>
	<path fill="url(#SVGID_15_)" stroke="#4C4C4C" stroke-width="0.1" d="M74.211,2.14v4.054" />
</g>
<g id="Group_Bottom_Support">
	<linearGradient id="SVGID_16_" gradientUnits="userSpaceOnUse" x1="6.7598" y1="47.97" x2="35.0239" y2="47.97">
		<stop offset="0" style="stop-color:#99CCCC" />
		<stop offset="0.5" style="stop-color:#C7E1E1" />
		<stop offset="1" style="stop-color:#99CCCC" />
	</linearGradient>
	<path fill="url(#SVGID_16_)" stroke="#4C4C4C" stroke-width="0.1" d="M6.76,47.182h28.264v1.576H6.76V47.182z" />
	<linearGradient id="SVGID_17_" gradientUnits="userSpaceOnUse" x1="48.9868" y1="47.97" x2="77.5889" y2="47.97">
		<stop offset="0" style="stop-color:#99CCCC" />
		<stop offset="0.5" style="stop-color:#C7E1E1" />
		<stop offset="1" style="stop-color:#99CCCC" />
	</linearGradient>
	<path fill="url(#SVGID_17_)" stroke="#4C4C4C" stroke-width="0.1" d="M48.987,47.182h28.602v1.576H48.987V47.182z" />
</g>
<g id="Group_Support_Structure">
	<linearGradient id="SVGID_18_" gradientUnits="userSpaceOnUse" x1="11.6016" y1="40.0881" x2="29.8438" y2="40.0881">
		<stop offset="0" style="stop-color:#99CCCC" />
		<stop offset="0.5" style="stop-color:#C7E1E1" />
		<stop offset="1" style="stop-color:#99CCCC" />
	</linearGradient>
	<path fill="url(#SVGID_18_)" d="M26.466,33.669l3.378,1.802v11.485l-18.242,0.226V35.471l3.378-1.802l3.378-0.676h4.955   L26.466,33.669z" />
	<linearGradient id="SVGID_19_" gradientUnits="userSpaceOnUse" x1="54.167" y1="40.0881" x2="72.4092" y2="40.0881">
		<stop offset="0" style="stop-color:#99CCCC" />
		<stop offset="0.5" style="stop-color:#C7E1E1" />
		<stop offset="1" style="stop-color:#99CCCC" />
	</linearGradient>
	<path fill="url(#SVGID_19_)" d="M69.256,33.669l3.153,1.802v11.485l-18.242,0.226V35.471l3.378-1.802l3.379-0.676h4.954   L69.256,33.669z" />
</g>
<g id="Group_Finder">
	<linearGradient id="SVGID_20_" gradientUnits="userSpaceOnUse" x1="78.2646" y1="7.4319" x2="86.5977" y2="7.4319">
		<stop offset="0" style="stop-color:#99CCCC" />
		<stop offset="0.5" style="stop-color:#C7E1E1" />
		<stop offset="1" style="stop-color:#99CCCC" />
	</linearGradient>
	<path fill="url(#SVGID_20_)" stroke="#4C4C4C" stroke-width="0.1" d="M80.742,10.247l-2.478-0.788V5.63l2.478-1.014h3.378   l2.478,1.014v3.829l-2.478,0.788H80.742z" />
	<linearGradient id="SVGID_21_" gradientUnits="userSpaceOnUse" x1="77.3633" y1="3.3782" x2="87.498" y2="3.3782">
		<stop offset="0" style="stop-color:#99CCCC" />
		<stop offset="0.5" style="stop-color:#C7E1E1" />
		<stop offset="1" style="stop-color:#99CCCC" />
	</linearGradient>
	<path fill="url(#SVGID_21_)" stroke="#4C4C4C" stroke-width="0.1" d="M80.291,6.756L77.363,5.63V1.014L80.291,0h4.279l2.928,1.014   V5.63L84.57,6.756H80.291z" />
</g>
<g id="Group_Tuners">
	<linearGradient id="SVGID_22_" gradientUnits="userSpaceOnUse" x1="76.6875" y1="37.7229" x2="88.8496" y2="37.7229">
		<stop offset="0" style="stop-color:#99CCCC" />
		<stop offset="0.5" style="stop-color:#C7E1E1" />
		<stop offset="1" style="stop-color:#99CCCC" />
	</linearGradient>
	<path fill="url(#SVGID_22_)" stroke="#4C4C4C" stroke-width="0.1" d="M80.291,38.849l-3.604-0.676v-0.9l3.604-0.676h4.955   l3.604,0.676v0.9l-3.604,0.676H80.291z" />
	<linearGradient id="SVGID_23_" gradientUnits="userSpaceOnUse" x1="76.6875" y1="35.4709" x2="88.8496" y2="35.4709">
		<stop offset="0" style="stop-color:#99CCCC" />
		<stop offset="0.5" style="stop-color:#C7E1E1" />
		<stop offset="1" style="stop-color:#99CCCC" />
	</linearGradient>
	<path fill="url(#SVGID_23_)" stroke="#4C4C4C" stroke-width="0.1" d="M76.688,36.371v-1.126l3.604-0.675h4.955l3.604,0.675v1.126   H76.688z" />
</g>
</svg>