<svg version="1.1" xmlns="http://www.w3.org/2000/svg" xmlns:xlink="http://www.w3.org/1999/xlink" width="112px" height="66px" viewBox="0 0 112.5 65.649" enable-background="new 0 0 112.5 65.649" xml:space="preserve">
<g id="Group_Frame">
	<path fill="#B2B2B2" stroke="#4C4C4C" stroke-width="0.25" d="M0.003,65.649V0h112.494l-9.459,2.365H9.35v60.808L0.003,65.649z" />
	<path fill="#E5E5E5" stroke="#4C4C4C" stroke-width="0.25" d="M112.497,0v65.649H0.003l9.347-2.252h93.688V2.365L112.497,0z" />
	<path fill="#D8E5E5" d="M105.516,63.172l2.252-59.569l4.729-1.239l-2.253,60.808H105.516z" />
	<path fill="#FFFFFF" d="M105.516,63.172V2.365h2.252L105.516,63.172z" />
	<path fill="#BFCCCC" d="M9.35,63.172V3.604H6.872L2.143,63.172H9.35z" />
	<path fill="#FFFFFF" d="M2.143,59.344L6.872,6.193L2.143,28.715V59.344z" />
	<path fill="none" stroke="#4C4C4C" stroke-width="0.25" d="M2.143,2.365v61.934" />
	<path fill="none" stroke="#4C4C4C" stroke-width="0.25" d="M110.244,65.649V3.604" />
</g>
<g id="Group_Side_Frame">
	<path fill="#999999" d="M112.497,0v65.649h-2.253V0.338L112.497,0z" />
</g>
<g id="Group_Bolts">
	<path fill="#333333" d="M110.244,33.669h2.253v6.081h-2.253V33.669z" />
	<path fill="#333333" d="M0.003,33.669h2.14v6.081h-2.14V33.669z" />
</g>
<g id="Group_Single_Damper">
	<linearGradient id="SVGID_1_" gradientUnits="userSpaceOnUse" x1="62.2598" y1="67.7808" x2="46.0312" y2="7.2151">
		<stop offset="0" style="stop-color:#CCD6D6" />
		<stop offset="0.4" style="stop-color:#C9D6D6" />
		<stop offset="0.5" style="stop-color:#D8E5E5" />
		<stop offset="1" style="stop-color:#D8E5E5" />
	</linearGradient>
	<path fill="url(#SVGID_1_)" stroke="#4C4C4C" stroke-width="0.1" d="M105.516,53.938v2.252H6.872v-2.252l4.729-37.498h89.184   L105.516,53.938z" />
	<path fill="#A5B2B2" d="M105.516,53.938v2.252H6.872v-2.252H105.516z" />
	<path fill="none" stroke="#FFFFFF" stroke-width="0.25" d="M11.602,30.517h89.184" />
	<path fill="none" stroke="#FFFFFF" stroke-width="0.25" d="M9.35,51.461h93.688" />
	<path fill="none" stroke="#336666" stroke-width="0.25" d="M11.602,18.805h89.184" />
	<path fill="none" stroke="#336666" stroke-width="0.25" d="M11.602,32.769h89.184" />
</g>
</svg>