<!DOCTYPE svg PUBLIC "-//W3C//DTD SVG 20000303 Stylable//EN" "http://www.w3.org/TR/2000/03/WD-SVG-20000303/DTD/svg-20000303-stylable.dtd"[]><svg xmlns="http://www.w3.org/2000/svg" width="998px" height="998px" viewBox="0 0 918 918"><path style="fill:#fff;stroke:#4c4c4c;stroke-width:2" d="M64,0 l792,0 14,1 13,3 11,5 8,7 7,9 5,11 3,13 1,14 -1,791 0,9 -1,8 -2,8 -3,7 -3,6 -4,5 -5,5 -5,3 -5,3 -6,2 -5,3 -5,1 -6,2 -5,1 -5,1 -5,0 -789,0 -10,0 -9,-1 -7,-2 -7,-2 -7,-3 -5,-4 -4,-5 -3,-5 -2,-6 -3,-6 -2,-5 -1,-6 -1,-5 -1,-5 -1,-4 0,-5 0,-792 1,-14 3,-13 5,-11 7,-8 9,-7 11,-5 13,-3 15,-1z" /><path style="fill:#00f;stroke:#4c4c4c;stroke-width:2" d="M64,22 l-10,1 -9,2 -8,3 -6,5 -5,6 -3,7 -2,8 -1,10 0,790 1,10 2,9 4,8 5,6 7,5 8,3 9,2 11,1 785,0 10,-1 9,-2 8,-3 6,-5 5,-6 3,-8 2,-9 1,-10 0,-788 -1,-10 -2,-9 -3,-8 -4,-6 -6,-5 -7,-3 -8,-2 -9,-1 -792,0z" /><path style="fill:#fff;stroke:#4c4c4c;stroke-width:2" d="M502,339 l16,11 18,11 18,12 19,11 20,11 22,11 22,11 23,11 22,11 20,12 18,12 16,12 13,12 12,13 9,13 6,13 -274,-99 -22,294 86,57 0,21 -13,-6 -14,-5 -13,-5 -14,-4 -13,-3 -14,-2 -13,-1 -14,0 -13,0 -14,1 -13,2 -14,3 -13,4 -14,5 -13,5 -14,6 0,-21 86,-57 -21,-294 -275,99 3,-10 6,-10 9,-11 12,-12 15,-11 18,-13 20,-12 24,-13 12,-7 12,-6 12,-7 12,-6 11,-7 11,-6 11,-6 11,-6 10,-6 10,-6 10,-5 10,-6 9,-5 10,-6 8,-5 9,-5 0,-11 0,-12 0,-13 1,-15 0,-16 0,-17 0,-18 0,-20 1,-19 2,-18 3,-16 5,-15 6,-12 8,-11 9,-9 10,-7 5,5 5,6 5,5 4,6 4,6 3,6 3,5 3,6 1,3 1,5 1,5 1,7 1,8 1,9 1,10 0,10 1,13 0,13 1,14 0,15 1,17 0,17 0,18 0,20z" /></svg>