<!DOCTYPE svg PUBLIC "-//W3C//DTD SVG 20000303 Stylable//EN" "http://www.w3.org/TR/2000/03/WD-SVG-20000303/DTD/svg-20000303-stylable.dtd"[]><svg xmlns="http://www.w3.org/2000/svg" width="999px" height="993px" viewBox="0 0 999 993"><path style="fill:#ff0;stroke:#4c4c4c;stroke-width:2" d="M108,0 l782,0 11,0 10,1 11,2 10,3 10,3 9,4 8,4 8,5 7,6 6,6 5,6 5,7 4,7 2,8 2,7 1,8 0,838 -1,8 -2,8 -2,7 -4,8 -5,6 -5,7 -6,6 -7,5 -8,5 -8,5 -9,4 -10,3 -10,3 -11,1 -10,2 -11,0 -782,0 -11,0 -10,-2 -11,-1 -10,-3 -10,-3 -9,-4 -8,-5 -8,-5 -7,-5 -6,-6 -5,-7 -5,-6 -4,-8 -2,-7 -2,-8 0,-8 0,-838 0,-8 2,-7 2,-8 4,-7 5,-7 5,-6 6,-6 7,-6 8,-5 8,-4 9,-4 10,-3 10,-3 11,-2 10,-1 11,0z" /><path style="fill:#000;stroke:#4c4c4c;stroke-width:2" d="M419,394 l30,-13 32,-10 33,0 33,10 29,13 31,-23 25,-26 -36,-22 -37,-16 -40,-7 -43,0 -40,7 -38,16 -33,22 25,26 29,23z" /><path style="fill:#000;stroke:#4c4c4c;stroke-width:2" d="M643,507 l0,8 -5,31 -9,31 -17,27 -22,21 -28,19 5,37 11,34 38,-20 33,-27 29,-33 20,-38 11,-39 5,-43 -3,-30 -35,5 -31,17 -2,0z" /><path style="fill:#000;stroke:#4c4c4c;stroke-width:2" d="M432,644 l-27,-19 -22,-21 -15,-27 -12,-31 -2,-31 0,-8 -35,-17 -35,-5 -3,30 5,43 13,39 20,38 26,33 34,27 37,20 11,-34 5,-37z" /><path style="fill:#000;stroke:#4c4c4c;stroke-width:2" d="M522,540 l-10,9 -14,2 -15,-2 -11,-9 -34,20 14,33 9,35 0,36 -9,35 -14,33 -17,31 -27,25 -29,22 -31,13 -33,9 -35,2 40,4 39,-2 38,-8 36,-18 30,-20 27,-29 22,-29 21,29 26,29 31,20 37,18 38,8 40,2 38,-4 -33,-2 -36,-9 -31,-13 -29,-22 -24,-25 -20,-31 -14,-33 -6,-35 0,-36 6,-35 14,-33 -34,-20z" /><path style="fill:#000;stroke:#4c4c4c;stroke-width:2" d="M463,524 l-2,-9 4,-15 9,-13 15,-7 0,-38 -35,-5 -35,-11 -31,-19 -27,-23 -22,-28 -18,-31 -9,-36 -4,-35 4,-36 9,-33 16,-31 -25,31 -18,36 -8,37 -5,40 3,38 10,38 16,33 -38,2 -35,11 -36,15 -30,23 -29,29 -22,33 -16,35 20,-29 24,-24 29,-20 31,-15 36,-9 37,-2 36,6 33,11 31,17 26,25 23,29 33,-20z" /><path style="fill:#000;stroke:#4c4c4c;stroke-width:2" d="M508,480 l12,7 9,13 5,15 -2,9 33,20 22,-29 26,-25 32,-17 35,-11 36,-6 35,2 36,9 33,15 26,20 25,24 20,29 -16,-35 -22,-33 -27,-29 -33,-23 -33,-15 -38,-11 -37,-2 15,-33 11,-38 3,-38 -3,-40 -11,-37 -18,-36 -22,-31 14,31 11,33 2,36 -2,35 -11,36 -16,31 -22,28 -29,23 -31,19 -34,11 -34,5 0,38z" /></svg>