<!DOCTYPE svg PUBLIC "-//W3C//DTD SVG 20000303 Stylable//EN" "http://www.w3.org/TR/2000/03/WD-SVG-20000303/DTD/svg-20000303-stylable.dtd"[]><svg xmlns="http://www.w3.org/2000/svg" width="763px" height="999px" viewBox="0 0 749 999"><path style="fill:#fff;stroke:#4c4c4c;stroke-width:2" d="M749,915 l0,-832 -1,-8 -1,-8 -2,-9 -3,-7 -4,-8 -4,-6 -5,-7 -5,-6 -6,-5 -6,-5 -7,-4 -8,-4 -7,-3 -8,-2 -9,-1 -8,0 -582,0 -8,0 -8,1 -9,2 -7,3 -8,4 -6,4 -7,5 -6,5 -5,6 -5,7 -4,6 -4,8 -3,7 -2,9 -1,8 0,8 0,832 0,8 1,8 2,9 3,7 4,8 4,6 5,7 5,6 6,5 7,5 6,4 8,4 7,3 9,2 8,1 8,1 582,0 8,-1 9,-1 8,-2 7,-3 8,-4 7,-4 6,-5 6,-5 5,-6 5,-7 4,-6 4,-8 3,-7 2,-9 1,-8 1,-8z" /><path style="fill:#000;stroke:#4c4c4c;stroke-width:2" d="M707,873 l0,-750 -1,-8 -1,-8 -2,-8 -3,-8 -3,-7 -4,-7 -5,-6 -5,-6 -6,-5 -6,-5 -7,-4 -7,-3 -7,-3 -8,-2 -9,-1 -8,0 -500,0 -8,0 -8,1 -8,2 -8,3 -7,3 -7,4 -7,5 -6,5 -5,6 -5,6 -4,7 -4,7 -3,8 -2,8 -1,8 0,8 0,750 0,8 1,8 2,8 3,8 4,7 4,7 5,7 5,6 6,5 7,5 7,4 7,4 8,3 8,2 8,1 8,0 500,0 8,0 9,-1 8,-2 7,-3 7,-4 7,-4 6,-5 6,-5 5,-6 5,-7 4,-7 3,-7 3,-8 2,-8 1,-8 1,-8z" /><path style="fill:#fff;stroke:#4c4c4c;stroke-width:2" d="M687,853 l0,-708 -1,-8 -1,-8 -2,-9 -3,-7 -3,-8 -5,-6 -5,-7 -5,-6 -6,-5 -6,-5 -7,-4 -7,-4 -8,-3 -8,-2 -9,-1 -8,-1 -458,0 -8,1 -8,1 -9,2 -7,3 -8,4 -6,4 -7,5 -6,5 -5,6 -5,7 -4,6 -4,8 -3,7 -2,9 -1,8 -1,8 0,708 1,8 1,8 2,9 3,7 4,8 4,6 5,7 5,6 6,5 7,5 6,4 8,4 7,3 9,2 8,1 8,1 458,0 8,-1 9,-1 8,-2 8,-3 7,-4 7,-4 6,-5 6,-5 5,-6 5,-7 5,-6 3,-8 3,-7 2,-9 1,-8 1,-8z" /></svg>