<!DOCTYPE svg PUBLIC "-//W3C//DTD SVG 20000303 Stylable//EN" "http://www.w3.org/TR/2000/03/WD-SVG-20000303/DTD/svg-20000303-stylable.dtd"[]><svg xmlns="http://www.w3.org/2000/svg" width="999px" height="527px" viewBox="0 0 999 499"><path style="fill:#b2b2b2" d="M999,437 l0,-376 -1,-8 0,-7 -1,-7 -2,-7 -1,-5 -3,-5 -3,-5 -3,-4 -4,-3 -5,-3 -5,-3 -5,-1 -7,-2 -7,-1 -7,0 -8,0 -876,0 -8,0 -7,0 -7,1 -7,2 -5,1 -5,3 -5,3 -4,3 -3,4 -3,5 -3,5 -1,5 -2,7 -1,7 0,7 0,8 0,376 0,8 0,8 1,7 2,6 1,6 3,5 3,4 3,4 4,4 5,3 5,2 5,2 7,1 7,1 7,1 8,0 876,0 8,0 7,-1 7,-1 7,-1 5,-2 5,-2 5,-3 4,-4 3,-4 3,-4 3,-5 1,-6 2,-6 1,-7 0,-8 1,-8z" /><path style="fill:#d9d9d9" d="M185,499 l294,-499 332,0 -294,499 -332,0z" /><path style="fill:#fff" d="M309,499 l294,-499 104,0 -294,499 -104,0z" /><path style="fill:none;stroke:#4c4c4c;stroke-width:2" d="M999,437 l0,-376 -1,-8 0,-7 -1,-7 -2,-7 -1,-5 -3,-5 -3,-5 -3,-4 -4,-3 -5,-3 -5,-3 -5,-1 -7,-2 -7,-1 -7,0 -8,0 -876,0 -8,0 -7,0 -7,1 -7,2 -5,1 -5,3 -5,3 -4,3 -3,4 -3,5 -3,5 -1,5 -2,7 -1,7 0,7 0,8 0,376 0,8 0,8 1,7 2,6 1,6 3,5 3,4 3,4 4,4 5,3 5,2 5,2 7,1 7,1 7,1 8,0 876,0 8,0 7,-1 7,-1 7,-1 5,-2 5,-2 5,-3 4,-4 3,-4 3,-4 3,-5 1,-6 2,-6 1,-7 0,-8 1,-8" /><path style="fill:#000;stroke:#4c4c4c;stroke-width:2" d="M979,415 l0,-332 -1,-8 0,-8 -1,-7 -2,-6 -2,-6 -2,-5 -4,-5 -3,-4 -4,-3 -5,-4 -5,-2 -6,-2 -6,-2 -7,-1 -8,0 -8,-1 -832,0 -8,1 -8,0 -7,1 -6,2 -6,2 -5,2 -5,4 -4,3 -3,4 -4,5 -2,5 -2,6 -2,6 -1,7 0,8 -1,8 0,332 1,8 0,8 1,7 2,7 2,5 2,6 4,4 3,4 4,4 5,3 5,3 6,2 6,1 7,1 8,1 8,0 832,0 8,0 8,-1 7,-1 6,-1 6,-2 5,-3 5,-3 4,-4 3,-4 4,-4 2,-6 2,-5 2,-7 1,-7 0,-8 1,-8z" /></svg>