<!DOCTYPE svg PUBLIC "-//W3C//DTD SVG 20000303 Stylable//EN" "http://www.w3.org/TR/2000/03/WD-SVG-20000303/DTD/svg-20000303-stylable.dtd"[]><svg xmlns="http://www.w3.org/2000/svg" width="999px" height="906px" viewBox="0 0 999 900"><path style="fill:#fff;stroke:#4c4c4c;stroke-width:2" d="M95,900 l794,0 9,0 9,0 9,0 8,-2 8,-1 8,-2 7,-2 6,-2 7,-3 5,-3 5,-3 5,-3 5,-4 4,-4 3,-5 3,-4 3,-5 2,-5 1,-6 2,-6 1,-5 0,-6 0,-7 -1,-7 -1,-6 -2,-8 -2,-7 -3,-8 -3,-8 -3,-8 -4,-8 -5,-8 -397,-696 -5,-7 -5,-7 -5,-6 -4,-6 -6,-5 -4,-5 -6,-5 -5,-3 -5,-4 -5,-3 -5,-2 -6,-2 -5,-2 -5,-1 -6,0 -5,0 -6,0 -5,0 -5,1 -6,2 -5,2 -6,3 -5,3 -5,3 -5,4 -5,5 -5,4 -5,6 -5,5 -5,6 -5,7 -5,7 -399,696 -3,6 -3,6 -3,5 -2,6 -2,7 -1,6 0,6 0,6 0,6 0,6 1,6 1,6 2,6 2,6 2,5 3,6 3,5 4,5 3,5 5,5 4,4 5,4 5,4 5,4 5,3 6,3 6,2 7,3 5,2 7,1 7,1 7,0z" /><path style="fill:#ff0" d="M105,807 l789,0 2,0 2,-1 2,-1 2,-1 2,-1 1,-1 1,-2 1,-2 1,-2 1,-2 0,-2 0,-2 0,-3 0,-1 -1,-3 -1,-1 -390,-691 -1,-2 -2,-2 -3,-2 -2,-2 -3,-2 -3,0 -4,-1 -2,0 -4,0 -3,0 -3,1 -4,1 -3,2 -2,2 -3,3 -2,3 -381,690 -1,1 0,3 0,1 0,3 0,2 0,2 2,2 0,2 1,2 2,2 1,1 1,1 2,1 2,1 1,0 2,1z" /><path style="fill:#ff0" d="M894,806 l-789,0 0,1 789,0 1,0 0,0 0,-1 -1,0z" /><path style="fill:#ff0" d="M517,92 l390,690 1,-1 -390,-690 -1,0 0,0 -1,0 1,1z" /><path style="fill:#ff0" d="M93,782 l0,0 381,-690 -2,-1 -381,690 0,1 0,0 1,0 1,0 0,0z" /><path style="fill:#000" d="M485,629 l-34,-238 0,-114 98,0 0,117 -31,235 -33,0z" /><path style="fill:#000" d="M472,654 l56,0 0,48 -56,0 0,-48z" /><path style="fill:#000" d="M451,391 l33,238 1,0 -33,-238 0,0 -1,0 0,0 0,0z" /><path style="fill:#000" d="M451,276 l0,1 0,114 1,0 0,-114 -1,0 1,0 0,-1 -1,0 0,0 0,1 0,-1z" /><path style="fill:#000" d="M550,277 l-1,-1 -98,0 0,1 98,0 0,0 0,0 1,0 0,0 0,-1 -1,0 1,1z" /><path style="fill:#000" d="M550,394 l0,-117 -1,0 0,117 0,1 0,0 1,0 0,-1z" /><path style="fill:#000" d="M518,630 l1,-1 31,-235 -1,0 -32,235 1,-1 -1,1 1,0 0,1 1,-1 -1,1z" /><path style="fill:#000" d="M484,629 l1,1 33,0 0,-2 -33,0 0,1 0,-1 -1,1 0,0 1,1 -1,-1z" /><path style="fill:#000" d="M528,654 l0,-1 -56,0 0,2 56,0 -1,-1 1,1 0,0 0,-1 0,-1 0,0 0,1z" /><path style="fill:#000" d="M528,703 l0,-1 0,-48 -1,0 0,48 1,-1 -1,1 0,1 1,0 0,0 0,-1 0,1z" /><path style="fill:#000" d="M472,702 l0,1 56,0 0,-2 -56,0 1,1 -1,-1 0,0 0,1 0,1 0,0 0,-1z" /><path style="fill:#000" d="M472,653 l0,1 0,48 1,0 0,-48 -1,1 1,-1 0,-1 -1,0 0,0 0,1 0,-1z" /></svg>