<!DOCTYPE svg PUBLIC "-//W3C//DTD SVG 20000303 Stylable//EN" "http://www.w3.org/TR/2000/03/WD-SVG-20000303/DTD/svg-20000303-stylable.dtd"[]><svg xmlns="http://www.w3.org/2000/svg" width="999px" height="705px" viewBox="0 0 999 687"><path style="fill:#fff;stroke:#4c4c4c;stroke-width:2" d="M0,0 l999,0 0,687 -999,0 0,-687z" /><path style="fill:#000" d="M113,68 l774,0 4,0 7,1 30,13 21,25 6,19 1,10 0,180 -7,29 -21,25 -23,12 -7,1 -11,1 -774,0 -30,-7 -25,-21 -13,-29 -1,-11 0,-180 7,-29 21,-25 30,-13 11,-1z" /><ellipse style="fill:#fff" cx="500" cy="225" rx="410" ry="126" /><ellipse style="fill:#f00" cx="499" cy="225" rx="399" ry="118" /><path style="fill:#fff" d="M698,170 l48,0 14,2 13,6 8,8 3,11 0,11 -3,9 -4,9 -3,2 -4,2 7,6 5,8 1,9 0,13 1,9 1,1 0,2 2,0 1,2 0,2 -32,0 -2,-12 0,-11 -2,-9 -4,-4 0,0 -9,-2 -9,1 0,37 -32,0 0,-112z" /><path style="fill:#fff" d="M609,172 l76,0 0,26 -45,0 0,15 37,0 0,27 -37,0 0,16 47,0 0,26 -78,0 0,-110z" /><path style="fill:#fff" d="M551,245 l0,-25 42,0 0,62 -19,0 -2,-9 -8,7 -9,4 -3,0 -2,0 -5,0 -5,0 -11,-3 -8,-3 -8,-7 -5,-9 -5,-9 -3,-10 -1,-11 0,-11 1,-10 3,-11 5,-9 5,-8 8,-7 9,-5 17,-3 3,0 10,1 10,4 7,5 9,10 4,10 2,11 -29,0 -2,-4 -1,-2 0,-1 -1,-2 -8,-4 -10,2 -7,10 -4,10 0,12 1,10 4,9 3,4 10,4 6,-1 6,-3 4,-8 -13,0z" /><path style="fill:#fff" d="M398,170 l28,0 32,59 0,-18 0,-41 30,0 0,112 -30,0 -32,-60 1,19 0,41 -29,0 0,-112z" /><path style="fill:#fff" d="M323,170 l33,0 33,112 -31,0 -3,-14 -31,0 -2,14 -32,0 33,-112z" /><path style="fill:#fff" d="M199,170 l39,0 13,2 8,3 9,5 7,6 6,9 4,11 2,7 1,11 0,11 -2,13 -4,11 -5,9 -7,6 -8,4 -10,3 -12,1 -41,0 0,-112z" /><path style="fill:#f00" d="M728,198 l0,20 18,0 1,0 2,-1 1,0 2,-1 1,-2 1,-1 1,-2 0,-2 0,-2 0,-2 -1,-2 -1,-1 -1,-1 -2,-1 -2,-1 -2,-1 -18,0z" /><path style="fill:#f00" d="M330,245 l19,0 -9,-37 -10,37z" /><path style="fill:#f00" d="M230,197 l0,59 1,0 11,-2 8,-4 6,-10 1,-15 -1,-10 -2,-10 -7,-6 -10,-2 -7,0z" /></svg>