<!DOCTYPE svg PUBLIC "-//W3C//DTD SVG 20000303 Stylable//EN" "http://www.w3.org/TR/2000/03/WD-SVG-20000303/DTD/svg-20000303-stylable.dtd"[]><svg xmlns="http://www.w3.org/2000/svg" width="999px" height="906px" viewBox="0 0 999 900"><path style="fill:#fff;stroke:#4c4c4c;stroke-width:2" d="M95,900 l794,0 9,0 10,0 8,-1 8,-1 8,-1 7,-2 8,-2 6,-2 7,-2 5,-3 5,-4 5,-3 5,-4 4,-4 2,-5 4,-4 2,-5 3,-6 1,-5 1,-5 2,-6 0,-6 0,-7 -1,-6 -2,-7 -1,-8 -3,-7 -2,-8 -3,-8 -4,-8 -3,-8 -5,-8 -397,-696 -5,-7 -5,-7 -5,-6 -4,-6 -6,-5 -4,-5 -6,-4 -5,-4 -5,-4 -5,-3 -6,-2 -5,-2 -5,-1 -5,-2 -6,0 -5,0 -6,0 -5,1 -5,1 -6,1 -5,3 -5,2 -6,3 -4,3 -6,4 -5,5 -5,4 -5,6 -5,5 -5,6 -5,7 -4,7 -400,696 -3,5 -3,7 -2,6 -3,5 -1,7 -1,6 -1,6 0,6 0,6 0,7 1,5 2,6 1,6 2,5 2,6 4,6 2,5 4,5 4,5 4,5 4,4 5,4 5,4 5,4 5,3 6,3 6,2 6,3 7,2 6,1 7,1 7,0z" /><path style="fill:#ff0" d="M106,818 l788,0 2,0 2,-1 2,0 2,-1 1,-1 2,-2 2,-2 0,-2 1,-2 1,-2 0,-2 0,-2 0,-3 0,-2 -1,-2 -1,-1 -390,-689 -1,-4 -2,-2 -2,-2 -3,-1 -3,-2 -3,-2 -3,0 -3,0 -4,0 -3,0 -3,1 -3,1 -3,2 -3,3 -2,2 -3,4 -381,689 -1,1 0,3 0,2 0,2 0,2 0,2 2,2 0,2 2,2 1,2 2,1 1,1 1,1 2,1 2,1 2,0z" /><path style="fill:#000" d="M432,267 l-134,238 219,1 -73,274 209,-366 -175,0 82,-147 -128,0z" /></svg>