<!DOCTYPE svg PUBLIC "-//W3C//DTD SVG 20000303 Stylable//EN" "http://www.w3.org/TR/2000/03/WD-SVG-20000303/DTD/svg-20000303-stylable.dtd"[]><svg xmlns="http://www.w3.org/2000/svg" width="999px" height="684px" viewBox="0 0 998 665"><path style="fill:#fff;stroke:#4c4c4c;stroke-width:2" d="M79,0 l840,0 8,0 8,1 8,2 6,2 8,4 6,4 6,4 6,6 6,4 4,8 4,6 4,6 2,8 2,8 1,8 0,8 0,508 0,8 -1,8 -2,6 -2,8 -4,6 -4,8 -4,6 -6,6 -6,4 -6,6 -6,4 -8,2 -6,4 -8,2 -8,0 -8,0 -840,0 -8,0 -8,0 -8,-2 -8,-4 -6,-2 -6,-4 -8,-6 -4,-4 -6,-6 -4,-6 -4,-8 -4,-6 -2,-8 -2,-6 -1,-8 0,-8 0,-508 0,-8 1,-8 2,-8 2,-8 4,-6 4,-6 4,-8 6,-4 4,-6 8,-4 6,-4 6,-4 8,-2 8,-2 8,-1 8,0z" /><path style="fill:#000" d="M901,263 l-806,0 0,-200 806,0 0,200z" /><path style="fill:#000" d="M95,263 l806,0 0,-2 -806,0 2,2 -2,-2 0,2z" /><path style="fill:#000" d="M903,63 l-2,0 -806,0 0,2 806,0 0,-2 0,2 2,-2 -2,0 2,0z" /><path style="fill:#000" d="M901,263 l2,0 0,-200 -2,0 0,200 0,-2 0,2 2,0 -2,0z" /><ellipse style="fill:#f00" cx="499" cy="162" rx="400" ry="103" /><path style="fill:#fff" d="M905,161 l0,-6 -2,-6 -4,-6 -4,-6 -4,-6 -6,-6 -6,-4 -8,-6 -8,-4 -10,-4 -10,-4 -10,-6 -12,-4 -12,-4 -12,-4 -14,-2 -14,-4 -14,-4 -16,-2 -16,-4 -16,-2 -16,-2 -18,-4 -18,-2 -18,-2 -20,0 -18,-2 -20,-2 -20,0 -20,-2 -20,0 -20,0 0,14 20,0 20,0 20,2 20,0 20,2 18,0 18,2 18,2 18,2 18,2 16,2 16,4 16,2 14,4 16,2 14,4 12,4 12,4 12,4 12,4 10,4 10,4 8,4 8,4 6,4 6,6 4,4 6,4 2,4 2,6 2,2 0,4 12,0z" /><path style="fill:#fff" d="M499,273 l20,-2 20,0 20,0 20,0 20,-2 18,-2 20,-2 18,-2 18,-2 18,-2 16,-2 16,-2 16,-4 16,-2 14,-4 14,-4 14,-4 12,-4 12,-4 12,-4 10,-4 10,-4 10,-4 8,-6 8,-4 6,-6 6,-4 4,-6 4,-6 4,-6 2,-6 0,-8 -12,0 0,4 -2,4 -2,4 -2,4 -6,6 -4,4 -6,4 -6,4 -8,6 -8,4 -10,4 -10,4 -12,4 -12,4 -12,4 -12,4 -14,2 -16,4 -14,4 -16,2 -16,2 -16,4 -18,2 -18,2 -18,2 -18,0 -18,2 -20,2 -20,0 -20,2 -20,0 -20,0 0,14z" /><path style="fill:#fff" d="M93,161 l0,8 2,6 2,6 6,6 4,6 6,4 6,6 8,4 8,6 10,4 10,4 10,4 12,4 12,4 12,4 14,4 14,4 14,4 16,2 16,4 16,2 16,2 18,2 18,2 18,2 18,2 20,2 20,2 18,0 22,0 20,0 20,2 0,-14 -20,0 -20,0 -20,-2 -20,0 -20,-2 -18,-2 -18,0 -20,-2 -16,-2 -18,-2 -16,-4 -16,-2 -16,-2 -16,-4 -14,-4 -14,-2 -12,-4 -12,-4 -12,-4 -12,-4 -10,-4 -10,-4 -8,-4 -8,-6 -6,-4 -6,-4 -6,-4 -4,-6 -2,-4 -2,-4 -2,-4 0,-4 -12,0z" /><path style="fill:#fff" d="M499,51 l-20,0 -20,0 -22,2 -18,0 -20,2 -20,2 -18,0 -18,2 -18,2 -18,4 -16,2 -16,2 -16,4 -16,2 -14,4 -14,4 -14,2 -12,4 -12,4 -12,4 -10,6 -10,4 -10,4 -8,4 -8,6 -6,4 -6,6 -4,6 -6,6 -2,6 -2,6 0,6 12,0 0,-4 2,-2 2,-6 2,-4 4,-4 6,-4 6,-6 6,-4 8,-4 8,-4 10,-4 10,-4 12,-4 12,-4 12,-4 12,-4 14,-4 14,-2 16,-4 16,-2 16,-4 16,-2 18,-2 16,-2 20,-2 18,-2 18,0 20,-2 20,0 20,-2 20,0 20,0 0,-14z" /><path style="fill:#fff" d="M743,118 l-27,0 0,101 19,0 0,-39 27,39 23,0 -28,-37 4,-1 3,-1 3,-1 2,-1 3,-2 2,-2 2,-2 2,-2 1,-2 1,-3 1,-2 1,-3 1,-2 0,-2 0,-3 0,-2 0,-3 0,-3 0,-2 -1,-3 -1,-2 -1,-2 -1,-2 -1,-2 -1,-2 -2,-2 -1,-1 -2,-2 -2,-1 -2,-1 -2,-1 -2,-1 -1,0 -1,-1 -2,0 -1,0 -1,-1 -1,0 -2,0 -1,0 -1,0 -1,-1 -1,0 -2,0 -1,0 -2,0 -1,0 -2,0z" /><path style="fill:#fff" d="M645,118 l0,101 55,0 0,-18 -36,0 0,-23 34,0 0,-18 -34,0 0,-23 36,0 0,-19 -55,0z" /><path style="fill:#fff" d="M576,117 l-1,0 -2,1 -2,0 -1,0 -1,0 -2,1 -2,0 -1,0 -2,1 -1,0 -2,1 -1,0 -2,1 -1,1 -2,1 -1,1 -3,1 -3,2 -2,3 -3,2 -2,2 -2,3 -3,2 -1,3 -1,2 -1,1 -1,1 0,2 -1,2 -1,1 0,2 -1,1 0,2 -1,1 0,2 0,2 -1,1 0,2 0,1 0,2 0,1 0,0 0,1 0,2 0,1 0,2 0,2 1,1 0,2 0,1 1,2 1,2 0,1 1,2 0,2 1,1 1,2 0,2 1,1 2,3 2,2 2,3 3,2 2,3 3,2 3,2 3,2 1,1 2,0 2,1 1,1 2,0 1,1 2,0 2,1 2,0 2,1 1,0 2,0 2,0 2,0 2,1 1,0 3,0 1,-1 2,0 2,0 2,0 1,0 2,-1 2,0 2,-1 1,0 2,-1 2,0 1,-1 2,-1 1,0 2,-1 3,-3 3,-1 3,-2 2,-3 3,-2 1,-3 2,-3 2,-3 1,-2 1,-1 1,-2 0,-1 1,-2 0,-2 1,-1 0,-2 1,-2 1,-1 0,-2 0,-1 0,-3 0,-1 0,-2 0,-1 -66,0 0,17 43,0 -1,2 -2,2 -2,2 -1,1 -2,2 -1,2 -2,1 -2,1 -2,1 -3,1 -2,1 -2,1 -2,1 -2,0 -3,0 -2,0 -2,0 -2,0 -2,0 -2,-1 -2,0 -3,-2 -2,0 -1,-1 -3,-1 -1,-2 -2,-1 -2,-1 -2,-2 -1,-2 -2,-1 -1,-3 -1,-2 -1,-1 -1,-3 -1,-2 0,-2 -1,-3 0,-2 0,-3 0,-2 0,-2 1,-2 0,-3 1,-2 0,-2 1,-2 2,-2 1,-1 1,-2 1,-2 1,-1 2,-1 2,-2 1,-1 2,-1 2,-1 2,-1 2,-1 2,-1 2,0 2,-1 3,0 2,0 2,0 2,0 2,0 2,0 2,1 2,0 2,1 2,0 2,1 2,1 2,2 2,1 1,1 1,2 1,1 1,1 23,0 -1,-2 -1,-2 -2,-2 -1,-2 -1,-2 -1,-2 -2,-2 -1,-1 -2,-2 -1,-1 -2,-2 -2,-1 -1,-1 -2,-1 -2,-1 -2,0 -1,-2 -2,0 -2,-1 -2,-1 -2,0 -2,-1 -1,0 -2,0 -2,-1 -1,0 -2,0 -2,0 -2,-1 -2,0 -1,0 -2,0z" /><path style="fill:#fff" d="M429,118 l0,101 19,0 0,-74 43,74 20,0 0,-101 -18,0 0,75 -42,-75 -22,0z" /><path style="fill:#fff" d="M362,118 l-42,101 21,0 11,-26 36,0 11,26 20,0 -43,-101 -14,0z" /><path style="fill:#fff" d="M250,118 l-18,0 0,101 24,0 3,0 3,0 2,0 3,0 2,-1 3,0 2,0 2,-1 2,0 3,-1 2,0 1,-1 2,-1 2,-1 2,-1 2,-1 2,-1 1,-1 1,-2 2,-1 1,-1 2,-1 1,-1 1,-2 1,-1 1,-2 1,-1 1,-1 1,-1 1,-2 0,-2 1,-1 0,-2 1,-2 0,-1 1,-2 0,-1 0,-2 1,-1 0,-2 1,-1 0,-2 0,-1 0,-2 0,-1 0,-1 0,-2 0,-1 0,-2 -1,-2 0,-2 -1,-1 0,-2 0,-1 -1,-2 0,-1 0,-2 -1,-1 0,-2 -1,-1 0,-1 -1,-1 0,-2 -1,-1 -1,-2 -3,-2 -1,-2 -2,-3 -2,-1 -2,-2 -2,-2 -2,-1 -2,-1 -2,-1 -3,-1 -2,-2 -3,0 -2,-1 -3,-1 -3,0 -1,0 -1,0 -1,-1 -2,0 -1,0 -2,0 -1,0 -1,0 -1,0 -2,0 -1,0 -2,-1 -1,0 -1,0 -2,0 -2,0z" /><path style="fill:#f00" d="M735,137 l10,0 5,0 4,1 3,1 3,1 2,3 1,2 2,2 0,4 0,3 -1,3 -1,3 -2,2 -3,2 -3,1 -3,1 -5,0 -12,0 0,-29z" /><path style="fill:#f00" d="M369,145 l11,30 -21,0 10,-30z" /><path style="fill:#f00" d="M251,137 l3,0 1,0 2,0 1,0 3,0 1,0 1,0 2,0 2,1 1,0 1,0 2,0 1,1 2,0 1,0 1,1 2,1 2,2 2,1 2,1 2,1 2,2 1,2 1,2 1,2 1,2 1,2 1,2 0,3 1,2 0,2 0,3 0,2 0,1 -1,3 0,2 0,1 -1,2 -1,2 0,1 -1,2 -1,1 -1,2 -1,1 -1,1 -1,1 -2,1 -1,2 -1,0 -2,1 -2,1 -1,1 -2,0 -2,1 -2,0 -2,1 -2,0 -2,0 -2,1 -2,0 -3,0 -2,0 -2,0 -3,0 0,-64z" /></svg>