<!DOCTYPE svg PUBLIC "-//W3C//DTD SVG 20000303 Stylable//EN" "http://www.w3.org/TR/2000/03/WD-SVG-20000303/DTD/svg-20000303-stylable.dtd"[]><svg xmlns="http://www.w3.org/2000/svg" width="999px" height="999px" viewBox="0 0 999 999"><circle style="fill:#000;stroke:#4c4c4c;stroke-width:2" cx="499" cy="499" r="499" /><circle style="fill:#fff;stroke:#4c4c4c;stroke-width:2" cx="499" cy="499" r="484" /><path style="fill:#000;stroke:#4c4c4c;stroke-width:2" d="M811,872 l-621,1 17,13 17,12 18,11 18,11 18,10 19,9 19,8 20,7 19,7 20,6 20,5 21,4 20,3 21,2 21,2 21,0 21,0 21,-2 21,-2 21,-4 21,-4 21,-5 20,-6 21,-7 19,-7 20,-9 19,-9 18,-10 18,-10 18,-11 17,-12 16,-13z" /></svg>