<!DOCTYPE svg PUBLIC "-//W3C//DTD SVG 20000303 Stylable//EN" "http://www.w3.org/TR/2000/03/WD-SVG-20000303/DTD/svg-20000303-stylable.dtd"[]><svg xmlns="http://www.w3.org/2000/svg" width="998px" height="999px" viewBox="0 0 998 999"><path style="fill:#fff;stroke:#4c4c4c;stroke-width:2" d="M898,999 l23,-4 21,-7 18,-11 17,-17 11,-18 7,-21 3,-22 0,-800 -3,-22 -7,-21 -11,-18 -17,-17 -18,-12 -21,-8 -23,-1 -799,0 -22,1 -21,8 -18,12 -18,17 -11,18 -8,21 -1,22 0,800 1,22 8,21 11,18 18,17 18,11 21,7 22,4 799,0z" /><path style="fill:#000" d="M391,494 l66,12 -17,-48 37,9 -42,-63 23,-21 -32,-22 4,-25 -14,-11 45,-48 -31,-2 23,-77 -120,12 17,195 4,24 9,24 12,22 16,19z" /><path style="fill:#000" d="M492,211 l-30,75 31,6 -49,43 13,11 -6,25 30,24 -24,18 36,68 -36,-13 13,49 -65,-16 18,19 24,16 25,11 27,5 28,2 26,-5 27,-8 24,-14 21,-18 17,-23 12,-25 7,-27 4,-26 0,-197 -173,0z" /><path style="fill:#000" d="M494,750 l47,0 -7,-46 -3,-47 2,-46 7,-46 -22,1 -22,-1 7,46 2,46 -4,47 -7,46z" /><path style="fill:#000" d="M395,799 l246,0 0,-12 -99,-24 -49,0 -98,24 0,12z" /></svg>