<!DOCTYPE svg PUBLIC "-//W3C//DTD SVG 20000303 Stylable//EN" "http://www.w3.org/TR/2000/03/WD-SVG-20000303/DTD/svg-20000303-stylable.dtd"[]><svg xmlns="http://www.w3.org/2000/svg" width="999px" height="999px" viewBox="0 0 999 999"><circle style="fill:#000;stroke:#4c4c4c;stroke-width:2" cx="499" cy="499" r="499" /><circle style="fill:#fff;stroke:#4c4c4c;stroke-width:2" cx="499" cy="499" r="484" /><path style="fill:#000;stroke:#4c4c4c;stroke-width:2" d="M810,125 l20,18 18,19 18,20 16,20 16,22 14,22 13,23 12,24 10,25 9,25 8,25 7,26 5,26 4,26 2,26 1,27 -3,49 -7,48 -12,47 -16,44 -20,43 -25,39 -28,38 -31,34 -34,31 -38,28 -39,25 -43,20 -44,16 -47,12 -48,7 -49,3 -49,-3 -48,-7 -47,-12 -44,-16 -43,-20 -39,-25 -38,-28 -34,-31 -31,-34 -28,-38 -25,-39 -20,-43 -16,-44 -12,-47 -7,-48 -3,-49 1,-27 2,-27 4,-26 5,-26 7,-26 8,-25 9,-25 11,-25 11,-23 13,-23 15,-22 15,-22 17,-21 18,-19 18,-19 20,-18 621,0z" /></svg>