<!DOCTYPE svg PUBLIC "-//W3C//DTD SVG 20000303 Stylable//EN" "http://www.w3.org/TR/2000/03/WD-SVG-20000303/DTD/svg-20000303-stylable.dtd"[]><svg xmlns="http://www.w3.org/2000/svg" width="915px" height="999px" viewBox="0 0 910 999"><path style="fill:#00f;stroke:#4c4c4c;stroke-width:2" d="M188,390 l4,67 -12,5 -12,7 -12,7 -11,9 -11,10 -10,10 -10,12 -10,13 -9,14 -8,16 -7,17 -5,17 -5,19 -3,20 -1,22 -1,22 1,17 1,17 3,16 4,16 5,16 6,15 7,15 8,15 9,14 10,14 10,12 12,12 12,12 12,10 14,10 14,9 15,8 15,7 15,6 16,5 15,4 16,3 17,1 16,1 12,0 13,-1 12,-1 12,-1 12,-2 11,-2 12,-3 11,-3 11,-3 11,-4 11,-4 11,-4 10,-5 10,-5 10,-6 10,-6 19,-13 18,-14 17,-15 16,-16 15,-18 14,-19 13,-20 12,-21 30,88 -13,17 -14,16 -15,15 -16,15 -18,14 -18,14 -20,13 -20,12 -11,6 -11,5 -11,5 -11,5 -12,5 -12,4 -12,3 -12,3 -12,3 -13,3 -13,2 -13,2 -13,1 -13,1 -14,1 -14,0 -11,0 -11,-1 -11,-1 -10,-1 -11,-1 -10,-2 -11,-3 -10,-2 -10,-3 -10,-4 -10,-3 -9,-4 -10,-5 -9,-4 -10,-6 -9,-5 -18,-11 -17,-13 -16,-13 -15,-15 -14,-15 -13,-16 -12,-18 -11,-18 -5,-9 -5,-10 -5,-10 -4,-9 -4,-10 -3,-10 -4,-10 -2,-10 -3,-10 -2,-10 -2,-11 -1,-10 -2,-11 0,-10 0,-11 0,-11 0,-21 1,-20 2,-19 3,-18 4,-18 5,-17 6,-16 7,-15 7,-14 8,-14 9,-13 9,-12 9,-11 10,-10 10,-10 10,-8 11,-8 11,-7 11,-7 11,-6 11,-6 11,-5 11,-4 11,-4z" /><path style="fill:#00f;stroke:#4c4c4c;stroke-width:2" d="M316,375 l252,0 4,67 -253,0 3,66 349,0 100,304 116,-45 23,73 -192,70 -112,-335 -371,0 -14,-408 -1,-4 0,-4 -1,-5 -2,-5 -1,-5 -2,-5 -3,-6 -2,-7 -2,-6 -2,-6 -2,-6 -1,-6 -1,-5 -1,-5 -1,-5 0,-4 0,-8 2,-9 1,-8 3,-7 3,-7 5,-7 4,-7 6,-6 6,-6 7,-5 8,-4 9,-4 9,-2 10,-2 10,-1 11,0 11,0 11,0 11,2 10,3 9,3 9,4 8,5 8,6 7,6 6,8 5,7 5,9 3,10 2,10 2,12 0,12 0,9 -2,9 -2,9 -3,9 -5,8 -5,8 -6,8 -7,7 -7,7 -7,6 -8,5 -7,4 -8,3 -7,2 -8,2 -7,0 5,182z" /></svg>