<!DOCTYPE svg PUBLIC "-//W3C//DTD SVG 20000303 Stylable//EN" "http://www.w3.org/TR/2000/03/WD-SVG-20000303/DTD/svg-20000303-stylable.dtd"[]><svg xmlns="http://www.w3.org/2000/svg" width="999px" height="999px" viewBox="0 0 999 999"><circle style="fill:#fff;stroke:#4c4c4c;stroke-width:2" cx="499" cy="499" r="499" /><circle style="fill:#00f;stroke:#4c4c4c;stroke-width:2" cx="499" cy="498" r="465" /><path style="fill:#fff;stroke:#4c4c4c;stroke-width:2" d="M773,331 l40,0 0,336 -42,0 0,-70 -542,-1 0,71 -44,0 0,-262 44,0 0,69 401,0 2,-10 4,-9 5,-8 6,-8 7,-7 10,-7 9,-5 11,-5 12,-4 11,-3 12,-2 11,1 11,2 11,4 10,5 11,7 0,-94z" /></svg>