<!DOCTYPE svg PUBLIC "-//W3C//DTD SVG 20000303 Stylable//EN" "http://www.w3.org/TR/2000/03/WD-SVG-20000303/DTD/svg-20000303-stylable.dtd"[]><svg xmlns="http://www.w3.org/2000/svg" width="999px" height="998px" viewBox="0 0 999 998"><path style="fill:#fff;stroke:#00f;stroke-width:2" d="M899,998 l24,-5 25,-9 22,-15 15,-22 10,-24 4,-25 0,-798 -4,-28 -10,-24 -15,-20 -22,-16 -25,-11 -24,-1 -800,0 -27,1 -24,11 -20,16 -16,20 -11,24 -1,28 0,798 1,25 11,24 16,22 20,15 24,9 27,5 800,0z" /><path style="fill:#00f" d="M81,498 l4,-59 14,-58 20,-56 29,-53 35,-46 43,-42 46,-36 53,-29 56,-19 58,-15 60,-4 58,4 60,15 55,19 51,29 47,36 42,42 36,46 29,53 22,56 11,58 4,59 -4,58 -11,60 -22,56 -29,51 -36,46 -42,42 -47,36 -51,29 -55,22 -60,11 -58,4 -60,-4 -58,-11 -56,-22 -53,-29 -46,-36 -43,-42 -35,-46 -29,-51 -20,-56 -14,-60 -4,-58z" /><circle style="fill:#fff" cx="497" cy="220" r="98" /><path style="fill:#fff" d="M617,358 l0,438 20,0 0,20 -278,0 0,-20 40,0 0,-417 -20,0 0,-21 238,0z" /></svg>