<!DOCTYPE svg PUBLIC "-//W3C//DTD SVG 20000303 Stylable//EN" "http://www.w3.org/TR/2000/03/WD-SVG-20000303/DTD/svg-20000303-stylable.dtd"[]><svg xmlns="http://www.w3.org/2000/svg" width="702px" height="999px" viewBox="0 0 684 999"><path style="fill:#00f;stroke:#4c4c4c;stroke-width:2" d="M255,999 l0,-396 -34,0 0,-253 -221,0 0,-87 281,0 0,-50 -5,-3 -5,-4 -4,-4 -5,-3 -4,-5 -5,-6 -4,-6 -4,-6 -4,-8 -4,-7 -3,-8 -2,-8 -2,-8 -1,-8 -1,-8 0,-8 0,-10 2,-10 2,-10 3,-10 4,-9 5,-9 7,-9 7,-9 9,-9 9,-8 9,-6 11,-6 10,-4 12,-3 11,-1 12,0 12,0 11,1 11,3 11,4 10,6 9,6 9,8 9,9 7,9 6,9 5,9 5,9 3,10 2,10 2,10 0,10 0,9 -1,8 -2,9 -1,8 -3,7 -3,8 -4,7 -4,7 -3,5 -4,6 -4,5 -4,4 -5,4 -5,5 -5,4 -6,4 0,50 285,0 0,87 -225,0 0,253 -32,0 0,396 -70,0 0,-398 -30,0 0,398 -72,0z" /></svg>