<!DOCTYPE svg PUBLIC "-//W3C//DTD SVG 20000303 Stylable//EN" "http://www.w3.org/TR/2000/03/WD-SVG-20000303/DTD/svg-20000303-stylable.dtd"[]><svg xmlns="http://www.w3.org/2000/svg" width="981px" height="998px" viewBox="0 0 980 998"><path style="fill:#f00" d="M492,998 l0,-142 -18,-1 -18,-1 -18,-3 -17,-4 -17,-4 -16,-5 -17,-6 -15,-6 -16,-8 -15,-7 -15,-9 -14,-10 -14,-10 -14,-11 -12,-11 -13,-12 -12,-12 -11,-13 -10,-14 -10,-14 -9,-14 -9,-15 -8,-16 -7,-15 -6,-17 -6,-17 -5,-16 -4,-18 -3,-17 -2,-18 -2,-18 0,-18 0,-19 2,-18 2,-17 3,-18 4,-17 5,-17 6,-17 6,-16 7,-16 8,-15 9,-15 9,-14 10,-14 10,-14 11,-13 12,-12 13,-12 12,-11 14,-11 14,-10 14,-9 15,-9 15,-8 16,-7 15,-6 17,-6 16,-5 17,-4 17,-3 18,-2 18,-2 18,0 0,-136 -26,1 -24,2 -25,3 -24,5 -23,6 -24,6 -22,8 -23,9 -21,11 -22,11 -20,12 -20,13 -20,14 -18,15 -18,16 -17,16 -17,17 -15,18 -15,19 -14,20 -13,20 -11,21 -11,21 -10,22 -9,23 -8,23 -7,23 -5,24 -5,25 -3,24 -2,26 0,25 0,26 2,25 3,25 5,24 5,24 7,24 8,22 9,23 10,22 11,21 11,21 13,20 14,20 15,18 15,18 17,18 17,16 18,16 18,15 20,14 20,13 20,11 22,11 21,10 23,9 22,8 24,7 23,5 24,5 25,3 24,2 26,0z" /><path style="fill:#f00" d="M488,995 l0,-142 18,-1 17,-2 18,-2 17,-4 17,-4 17,-5 16,-6 16,-6 15,-8 16,-8 14,-8 15,-10 14,-10 13,-11 13,-11 12,-12 12,-13 11,-12 11,-14 10,-14 9,-14 8,-15 8,-16 7,-16 6,-16 6,-17 5,-17 4,-17 3,-17 3,-18 1,-18 0,-19 0,-18 -1,-18 -3,-18 -3,-17 -4,-18 -5,-16 -6,-17 -6,-16 -7,-16 -8,-16 -8,-14 -9,-15 -10,-14 -11,-13 -11,-13 -12,-13 -12,-11 -13,-12 -13,-10 -14,-10 -15,-9 -14,-9 -16,-8 -15,-7 -16,-6 -16,-6 -17,-5 -17,-4 -17,-3 -18,-2 -17,-2 -18,0 0,-136 25,1 24,2 25,3 24,5 24,6 23,6 23,8 22,9 22,11 21,11 21,12 19,13 20,14 19,15 17,15 17,17 17,17 16,18 14,19 14,20 13,20 12,21 11,21 10,22 9,23 7,23 7,23 6,24 4,25 3,24 2,26 1,25 -1,26 -2,25 -3,25 -4,24 -6,24 -7,24 -7,22 -9,23 -10,22 -11,21 -12,21 -13,20 -14,20 -14,18 -16,18 -17,18 -17,16 -17,16 -19,15 -20,14 -19,12 -21,12 -21,11 -22,10 -22,9 -23,8 -23,7 -24,5 -24,5 -25,3 -24,2 -25,0z" /><path style="fill:#f00" d="M238,151 l575,575 -99,98 -575,-575 99,-98z" /></svg>