<!DOCTYPE svg PUBLIC "-//W3C//DTD SVG 20000303 Stylable//EN" "http://www.w3.org/TR/2000/03/WD-SVG-20000303/DTD/svg-20000303-stylable.dtd"[]><svg xmlns="http://www.w3.org/2000/svg" width="999px" height="998px" viewBox="0 0 982 981"><path style="fill:#f00;stroke:#4c4c4c;stroke-width:2" d="M71,0 l841,0 16,1 14,3 12,6 10,7 8,10 6,12 3,14 1,16 0,842 -1,16 -3,14 -6,12 -8,10 -10,8 -12,6 -14,3 -16,1 -841,0 -17,-1 -14,-3 -12,-6 -10,-8 -8,-10 -6,-12 -3,-14 -1,-16 0,-842 1,-16 3,-14 6,-12 8,-10 10,-7 12,-6 14,-3 17,-1z" /><path style="fill:#fff;stroke:#4c4c4c;stroke-width:2" d="M71,23 l-11,1 -10,2 -8,3 -7,5 -5,7 -4,8 -2,9 -1,11 0,842 1,11 2,9 4,8 5,7 7,5 8,4 10,2 11,1 841,0 11,-1 10,-2 8,-4 7,-5 5,-7 3,-8 2,-9 1,-11 0,-842 -1,-11 -2,-9 -3,-8 -5,-7 -7,-5 -8,-3 -10,-2 -11,-1 -841,0z" /><circle style="fill:#f00;stroke:#4c4c4c;stroke-width:2" cx="491" cy="490" r="363" /><path style="fill:#fff;stroke:#4c4c4c;stroke-width:2" d="M441,489 l-21,-18 0,18 21,0z" /><path style="fill:#fff;stroke:#4c4c4c;stroke-width:2" d="M490,536 l-70,0 0,175 -45,0 0,-289 -114,-112 -7,10 -7,10 -6,10 -6,11 -6,10 -5,11 -4,11 -4,11 -4,12 -3,11 -3,12 -2,11 -2,12 -1,12 -1,13 0,12 0,15 1,15 2,14 2,14 3,14 4,14 4,13 6,13 5,13 6,12 7,13 8,11 8,12 9,11 10,11 10,11 11,10 11,10 11,9 12,8 12,8 12,7 13,7 13,5 13,5 13,5 14,4 14,3 14,2 14,2 15,1 15,0 13,0 12,-1 13,-1 12,-2 12,-2 12,-2 11,-3 12,-4 11,-4 11,-4 11,-5 10,-6 10,-6 10,-6 10,-7 10,-7 -182,-185z" /><path style="fill:#fff;stroke:#4c4c4c;stroke-width:2" d="M586,536 l135,135 7,-10 7,-10 6,-10 6,-10 6,-11 5,-10 4,-11 5,-12 3,-11 3,-12 3,-12 2,-12 2,-12 1,-13 1,-13 0,-13 0,-15 -1,-14 -2,-15 -2,-14 -3,-14 -4,-13 -4,-14 -5,-13 -6,-12 -6,-13 -7,-12 -8,-12 -8,-11 -9,-11 -10,-11 -10,-11 -11,-10 -11,-10 -11,-9 -12,-8 -12,-8 -12,-7 -12,-6 -13,-6 -13,-5 -13,-4 -13,-4 -14,-3 -14,-2 -15,-2 -14,-1 -15,0 -13,0 -13,1 -12,1 -13,2 -12,2 -12,3 -11,3 -12,3 -11,5 -11,4 -11,5 -10,6 -10,6 -10,6 -10,7 -10,7 64,63 0,-31 187,0 11,1 10,1 11,3 10,4 10,5 9,5 10,7 9,8 8,9 8,10 6,11 6,11 4,13 3,13 1,14 1,15 -1,23 -5,20 -7,18 -10,15 -13,14 -16,10 -19,8 -22,6z" /><path style="fill:#fff;stroke:#4c4c4c;stroke-width:2" d="M541,489 l21,0 6,0 5,-1 6,-1 6,-2 6,-1 6,-3 5,-2 6,-3 5,-4 5,-5 4,-6 3,-6 3,-8 2,-7 1,-9 0,-9 -1,-19 -3,-17 -6,-14 -7,-12 -10,-9 -12,-7 -14,-4 -16,-1 -142,0 0,31 121,119z" /></svg>