<!DOCTYPE svg PUBLIC "-//W3C//DTD SVG 20000303 Stylable//EN" "http://www.w3.org/TR/2000/03/WD-SVG-20000303/DTD/svg-20000303-stylable.dtd"[]><svg xmlns="http://www.w3.org/2000/svg" width="999px" height="996px" viewBox="0 0 762 760"><circle style="fill:#f00;stroke:#4c4c4c;stroke-width:2" cx="381" cy="380" r="381" /><path style="fill:#fff;stroke:#4c4c4c;stroke-width:2" d="M619,559 l7,-10 7,-10 7,-10 6,-11 5,-10 5,-11 5,-11 4,-11 3,-12 4,-11 2,-12 2,-12 2,-12 1,-12 1,-13 0,-12 0,-15 -1,-15 -2,-15 -3,-14 -3,-14 -4,-14 -4,-14 -5,-13 -6,-13 -7,-13 -7,-13 -8,-12 -8,-12 -9,-11 -10,-11 -10,-11 -11,-10 -11,-10 -12,-9 -11,-8 -13,-8 -12,-7 -13,-7 -13,-6 -14,-5 -13,-4 -14,-4 -14,-3 -15,-3 -15,-2 -15,-1 -15,0 -12,0 -13,1 -12,1 -12,2 -11,2 -12,2 -12,3 -11,4 -11,4 -11,4 -11,5 -11,6 -10,6 -11,6 -10,7 -10,7 417,417z" /><path style="fill:#fff;stroke:#4c4c4c;stroke-width:2" d="M560,619 l-417,-418 -7,10 -7,11 -7,10 -6,11 -6,11 -5,11 -4,11 -4,11 -4,11 -3,11 -3,11 -2,12 -2,12 -1,11 -1,12 0,12 0,16 2,15 1,15 3,15 3,14 4,14 5,14 6,13 6,14 6,12 8,13 7,12 9,12 9,11 10,11 10,11 11,10 11,10 12,9 12,8 12,8 12,7 13,7 13,6 14,5 13,5 15,4 14,3 14,3 15,2 16,1 15,0 12,0 12,-1 12,-1 12,-2 11,-2 12,-3 11,-3 12,-3 11,-4 11,-5 10,-5 11,-5 10,-6 11,-6 10,-7 10,-7z" /><path style="fill:#7f7f7f;stroke:#4c4c4c;stroke-width:2" d="M455,186 l-14,17 -2,4 -1,3 1,3 3,2 5,2 7,1 9,1 10,1 10,1 8,2 5,2 3,3 1,3 -1,4 -4,5 -6,5 -10,8 -7,7 -4,6 -2,5 1,4 4,3 7,3 9,2 10,2 9,3 9,4 7,5 6,6 6,6 4,7 4,8 -28,0 -2,-7 -3,-6 -3,-6 -4,-4 -5,-3 -5,-3 -6,-1 -7,-1 -7,-1 -6,-2 -5,-3 -4,-3 -3,-4 -2,-5 -2,-6 0,-6 1,-4 1,-3 2,-3 3,-2 4,-3 5,-3 3,-3 3,-3 4,-4 1,-3 0,-4 -3,-2 -4,-2 -6,-2 -8,-1 -10,-1 -10,-1 -7,-1 -6,-1 -3,-2 -2,-2 1,-3 3,-3 5,-4 28,-17z" /><path style="fill:#7f7f7f;stroke:#4c4c4c;stroke-width:2" d="M492,177 l7,-4 6,-2 6,-2 6,0 5,1 5,1 5,3 5,4 4,5 3,4 1,5 1,5 -1,6 -2,5 -3,5 -5,6 -5,8 -2,7 -1,6 2,6 5,6 6,4 9,4 12,3 11,3 9,5 6,6 4,7 1,8 -1,10 -3,10 -6,12 -22,0 4,-9 3,-7 3,-6 1,-4 0,-2 -1,-3 -2,-4 -3,-4 -5,-4 -6,-6 -8,-6 -8,-6 -6,-5 -5,-6 -4,-7 -2,-7 0,-9 1,-8 3,-10 4,-10 4,-8 1,-6 -1,-5 -4,-4 -6,-2 -8,-1 -10,0 -13,2z" /><path style="fill:#000;stroke:#4c4c4c;stroke-width:2" d="M125,342 l164,0 55,62 -219,0 0,-62z" /><path style="fill:#000;stroke:#4c4c4c;stroke-width:2" d="M468,405 l-62,-63 125,0 0,63 -63,0z" /><path style="fill:#f00;stroke:#4c4c4c;stroke-width:2" d="M546,342 l16,0 0,62 -16,0 0,-62z" /><path style="fill:#f00;stroke:#4c4c4c;stroke-width:2" d="M577,342 l16,0 0,62 -16,0 0,-62z" /></svg>