<!DOCTYPE svg PUBLIC "-//W3C//DTD SVG 20000303 Stylable//EN" "http://www.w3.org/TR/2000/03/WD-SVG-20000303/DTD/svg-20000303-stylable.dtd"[]><svg xmlns="http://www.w3.org/2000/svg" width="999px" height="999px" viewBox="0 0 990 990"><path style="fill:#f00;stroke:#4c4c4c;stroke-width:2" d="M71,0 l849,0 16,1 14,3 12,6 10,8 8,10 6,12 3,14 1,16 0,850 -1,17 -3,14 -6,12 -8,10 -10,7 -12,6 -14,3 -16,1 -849,0 -17,-1 -14,-3 -12,-6 -10,-7 -8,-10 -6,-12 -3,-14 -1,-17 0,-850 1,-16 3,-14 6,-12 8,-10 10,-8 12,-6 14,-3 17,-1z" /><path style="fill:#fff;stroke:#4c4c4c;stroke-width:2" d="M71,23 l-11,1 -10,2 -8,4 -7,5 -5,7 -4,8 -2,9 -1,11 0,850 1,11 2,10 4,8 5,7 7,5 8,4 10,2 11,1 849,0 11,-1 10,-2 8,-4 7,-5 5,-7 3,-8 2,-10 1,-11 0,-850 -1,-11 -2,-9 -3,-8 -5,-7 -7,-5 -8,-4 -10,-2 -11,-1 -849,0z" /><circle style="fill:#f00;stroke:#4c4c4c;stroke-width:2" cx="495" cy="495" r="366" /><circle style="fill:#fff;stroke:#4c4c4c;stroke-width:2" cx="495" cy="495" r="293" /><path style="fill:#f00;stroke:#4c4c4c;stroke-width:2" d="M378,295 l189,0 13,1 12,1 11,3 11,5 11,5 9,7 9,7 9,9 7,10 7,10 5,11 5,11 3,12 3,12 1,12 1,13 -2,27 -5,24 -9,20 -13,17 -17,13 -20,9 -24,5 -27,2 -144,0 0,178 -45,0 0,-424z" /><path style="fill:#fff;stroke:#4c4c4c;stroke-width:2" d="M423,342 l0,152 144,0 4,0 4,-1 5,-1 6,-1 5,-2 6,-2 6,-2 7,-3 6,-4 5,-5 5,-6 4,-7 3,-7 2,-9 2,-10 0,-10 0,-10 -2,-9 -2,-9 -3,-8 -3,-8 -5,-7 -5,-6 -6,-5 -7,-5 -6,-4 -6,-3 -6,-3 -5,-2 -5,-2 -5,-1 -4,0 -144,0z" /></svg>