<!DOCTYPE svg PUBLIC "-//W3C//DTD SVG 20000303 Stylable//EN" "http://www.w3.org/TR/2000/03/WD-SVG-20000303/DTD/svg-20000303-stylable.dtd"[]><svg xmlns="http://www.w3.org/2000/svg" width="998px" height="999px" viewBox="0 0 998 999"><path style="fill:#fff;stroke:#4c4c4c;stroke-width:2" d="M70,0 l857,0 17,0 14,4 12,5 10,8 8,11 6,12 3,14 1,17 0,857 -1,17 -3,14 -6,12 -8,10 -10,8 -12,6 -14,3 -17,1 -857,0 -17,-1 -14,-3 -12,-6 -10,-8 -8,-10 -6,-12 -3,-14 0,-17 0,-857 0,-17 3,-14 6,-12 8,-11 10,-8 12,-5 14,-4 17,0z" /><path style="fill:#00f;stroke:#4c4c4c;stroke-width:2" d="M70,23 l-11,1 -10,2 -8,4 -7,5 -5,7 -4,8 -2,10 -1,11 0,857 1,11 2,10 4,8 5,7 7,5 8,4 10,2 11,1 857,0 11,-1 10,-2 8,-4 7,-5 5,-7 4,-8 2,-10 1,-11 0,-857 -1,-11 -2,-10 -4,-8 -5,-7 -7,-5 -8,-4 -10,-2 -11,-1 -857,0z" /><path style="fill:#fff;stroke:#4c4c4c;stroke-width:2" d="M222,238 l552,0 -14,47 -523,0 -15,-47z" /><path style="fill:#fff;stroke:#4c4c4c;stroke-width:2" d="M331,297 l61,0 -48,131 309,0 -48,-131 61,0 46,131 190,0 0,47 -178,0 107,274 -57,0 -108,-274 -335,0 -109,274 -56,0 107,-274 -178,0 0,-47 190,0 46,-131z" /></svg>