<!DOCTYPE svg PUBLIC "-//W3C//DTD SVG 20000303 Stylable//EN" "http://www.w3.org/TR/2000/03/WD-SVG-20000303/DTD/svg-20000303-stylable.dtd"[]><svg xmlns="http://www.w3.org/2000/svg" width="644px" height="999px" viewBox="0 0 623 999"><path style="fill:#000;stroke:#4c4c4c;stroke-width:2" d="M240,546 l169,0 0,-98 -187,-4 -13,-58 -23,-58 -4,-53 4,-49 23,-49 31,-35 40,-27 44,-9 50,5 40,22 35,35 27,45 9,48 106,-12 -8,-67 -27,-63 -44,-53 -49,-36 -63,-26 -62,-4 -67,8 -62,22 -59,40 -36,49 -22,58 -12,58 -5,67 8,66 19,67 3,13 -93,0 0,98 121,0 8,58 -4,62 -9,53 -18,53 -30,49 -36,36 -44,27 35,115 57,-31 67,-14 63,-8 66,8 63,18 67,22 71,5 67,-14 67,-31 -32,-120 -35,27 -40,14 -49,4 -53,0 -54,-14 -72,-13 -70,-4 -72,13 36,-49 31,-49 18,-58 13,-57 5,-54 -9,-48z" /></svg>