<!DOCTYPE svg PUBLIC "-//W3C//DTD SVG 20000303 Stylable//EN" "http://www.w3.org/TR/2000/03/WD-SVG-20000303/DTD/svg-20000303-stylable.dtd"[]><svg xmlns="http://www.w3.org/2000/svg" width="999px" height="998px" viewBox="0 0 999 998"><path style="fill:#ff0;stroke:#4c4c4c;stroke-width:2" d="M899,998 l24,-5 24,-9 23,-15 15,-22 9,-25 5,-24 0,-799 -5,-27 -9,-24 -15,-20 -23,-15 -24,-11 -24,-2 -800,0 -27,2 -24,11 -20,15 -15,20 -11,24 -2,27 0,799 2,24 11,25 15,22 20,15 24,9 27,5 800,0z" /><path style="fill:#000" d="M419,332 l-120,-206 -44,29 -40,33 -34,40 -29,45 -24,46 -16,48 -11,52 -2,53 239,0 3,-33 11,-34 16,-29 24,-24 27,-20z" /><path style="fill:#000" d="M699,126 l-121,206 27,20 23,24 15,29 12,34 4,33 240,0 -5,-53 -9,-52 -18,-48 -22,-46 -31,-45 -33,-40 -40,-33 -42,-29z" /><path style="fill:#000" d="M419,610 l-120,208 46,22 49,16 52,11 53,4 51,-4 51,-11 51,-16 47,-22 -121,-208 -31,12 -33,7 -33,0 -33,-7 -29,-12z" /><path style="fill:#000" d="M399,472 l4,-29 11,-26 19,-21 24,-15 26,-9 29,0 26,9 25,15 20,21 11,26 5,29 -5,27 -11,26 -20,23 -25,15 -26,6 -29,0 -26,-6 -24,-15 -19,-23 -11,-26 -4,-27z" /></svg>