<!DOCTYPE svg PUBLIC "-//W3C//DTD SVG 20000303 Stylable//EN" "http://www.w3.org/TR/2000/03/WD-SVG-20000303/DTD/svg-20000303-stylable.dtd"[]><svg xmlns="http://www.w3.org/2000/svg" width="999px" height="999px" viewBox="0 0 999 999"><circle style="fill:#fff;stroke:#4c4c4c;stroke-width:2" cx="499" cy="499" r="499" /><circle style="fill:#00f;stroke:#4c4c4c;stroke-width:2" cx="499" cy="498" r="465" /><ellipse style="fill:#fff;stroke:#4c4c4c;stroke-width:2" cx="502" cy="359" rx="69" ry="116" /><path style="fill:#fff;stroke:#4c4c4c;stroke-width:2" d="M716,204 l0,576 0,5 -1,5 -3,4 -3,4 -4,2 -4,2 -6,1 -7,0 -7,0 -7,-1 -5,-2 -5,-2 -3,-4 -2,-4 -2,-5 -1,-5 0,-278 -3,-3 -3,-4 -3,-4 -2,-6 -3,-6 -2,-7 -2,-8 -2,-7 -1,-9 -1,-10 -2,-10 -1,-11 0,-11 -1,-13 0,-13 0,-13 1,-14 1,-14 3,-12 2,-12 3,-12 4,-12 4,-10 6,-11 5,-10 6,-9 8,-9 7,-9 8,-8 9,-7 10,-8 9,-6z" /><path style="fill:#fff;stroke:#4c4c4c;stroke-width:2" d="M534,482 l0,295 -1,6 -1,5 -2,5 -5,4 -4,2 -5,3 -7,1 -8,0 -6,0 -6,-1 -5,-3 -5,-2 -3,-4 -3,-5 0,-5 -1,-6 0,-295 6,4 8,3 7,2 8,1 8,-1 8,-2 8,-3 9,-4z" /><path style="fill:#fff;stroke:#4c4c4c;stroke-width:2" d="M368,472 l-2,5 -3,5 -2,5 -3,4 -4,3 -3,3 -4,2 -4,2 0,278 -1,5 -2,5 -2,4 -4,4 -5,3 -5,2 -7,1 -8,0 -8,0 -6,-1 -5,-2 -5,-3 -3,-4 -3,-4 -2,-5 0,-5 0,-278 -5,-3 -5,-2 -5,-4 -4,-3 -3,-4 -3,-4 -2,-4 -2,-5 0,-202 13,-27 11,26 0,122 26,3 0,-124 12,-28 10,28 0,124 28,0 0,-124 10,-28 10,28 0,202z" /></svg>