<!DOCTYPE svg PUBLIC "-//W3C//DTD SVG 20000303 Stylable//EN" "http://www.w3.org/TR/2000/03/WD-SVG-20000303/DTD/svg-20000303-stylable.dtd"[]><svg xmlns="http://www.w3.org/2000/svg" width="999px" height="999px" viewBox="0 0 999 999"><path style="fill:#fff;stroke:#4c4c4c;stroke-width:2" d="M0,83 l0,832 0,8 1,8 2,8 3,8 4,7 4,7 5,7 5,6 6,5 7,5 7,4 7,4 8,3 8,2 8,1 8,1 832,0 8,-1 8,-1 8,-2 8,-3 7,-4 7,-4 7,-5 6,-5 5,-6 5,-7 4,-7 4,-7 3,-8 2,-8 1,-8 1,-8 0,-832 -1,-8 -1,-8 -2,-8 -3,-8 -4,-7 -4,-7 -5,-7 -5,-6 -6,-5 -7,-5 -7,-4 -7,-4 -8,-3 -8,-2 -8,-1 -8,0 -832,0 -8,0 -8,1 -8,2 -8,3 -7,4 -7,4 -7,5 -6,5 -5,6 -5,7 -4,7 -4,7 -3,8 -2,8 -1,8 0,8z" /><path style="fill:#000;stroke:#4c4c4c;stroke-width:2" d="M61,145 l0,708 1,8 1,8 2,8 3,8 4,7 4,7 5,7 5,6 6,5 7,5 7,4 7,4 8,3 8,2 8,1 8,1 708,0 8,-1 8,-1 8,-2 8,-3 7,-4 7,-4 7,-5 6,-5 5,-6 5,-7 4,-7 4,-7 3,-8 2,-8 1,-8 1,-8 0,-708 -1,-8 -1,-8 -2,-8 -3,-8 -4,-7 -4,-7 -5,-7 -5,-6 -6,-5 -7,-5 -7,-4 -7,-4 -8,-3 -8,-2 -8,-1 -8,-1 -708,0 -8,1 -8,1 -8,2 -8,3 -7,4 -7,4 -7,5 -6,5 -5,6 -5,7 -4,7 -4,7 -3,8 -2,8 -1,8 -1,8z" /><path style="fill:#fff;stroke:#4c4c4c;stroke-width:2" d="M83,165 l0,668 1,8 1,8 2,8 3,8 3,7 4,7 5,6 5,6 6,5 6,5 7,4 7,3 8,3 8,2 8,1 8,1 668,0 8,-1 8,-1 8,-2 8,-3 7,-3 7,-4 6,-5 6,-5 5,-6 5,-6 4,-7 3,-7 3,-8 2,-8 1,-8 1,-8 0,-668 -1,-8 -1,-8 -2,-8 -3,-8 -3,-7 -4,-7 -5,-6 -5,-6 -6,-5 -6,-5 -7,-4 -7,-3 -8,-3 -8,-2 -8,-1 -8,-1 -668,0 -8,1 -8,1 -8,2 -8,3 -7,3 -7,4 -6,5 -6,5 -5,6 -5,6 -4,7 -3,7 -3,8 -2,8 -1,8 -1,8z" /><path style="fill:#000;stroke:#4c4c4c;stroke-width:2" d="M415,313 l168,0 0,166 124,0 -208,208 -208,-208 124,0 0,-166z" /></svg>