<!DOCTYPE svg PUBLIC "-//W3C//DTD SVG 20000303 Stylable//EN" "http://www.w3.org/TR/2000/03/WD-SVG-20000303/DTD/svg-20000303-stylable.dtd"[]><svg xmlns="http://www.w3.org/2000/svg" width="999px" height="999px" viewBox="0 0 998 998"><path style="fill:#fff;stroke:#4c4c4c;stroke-width:2" d="M998,914 l0,-830 0,-9 -1,-8 -2,-9 -3,-7 -4,-7 -4,-7 -5,-7 -5,-6 -6,-5 -7,-5 -7,-4 -7,-4 -7,-3 -9,-2 -8,-1 -9,0 -830,0 -9,0 -8,1 -9,2 -7,3 -7,4 -7,4 -7,5 -6,5 -5,6 -5,7 -4,7 -4,7 -3,7 -2,9 -1,8 0,9 0,830 0,9 1,8 2,9 3,7 4,7 4,7 5,7 5,6 6,5 7,5 7,4 7,4 7,3 9,2 8,1 9,0 830,0 9,0 8,-1 9,-2 7,-3 7,-4 7,-4 7,-5 6,-5 5,-6 5,-7 4,-7 4,-7 3,-7 2,-9 1,-8 0,-9z" /><path style="fill:#000;stroke:#4c4c4c;stroke-width:2" d="M937,852 l0,-706 -1,-9 -1,-8 -2,-9 -3,-7 -4,-7 -4,-7 -5,-7 -5,-6 -6,-5 -7,-5 -7,-4 -7,-4 -7,-3 -9,-2 -8,-1 -9,-1 -706,0 -9,1 -8,1 -9,2 -7,3 -7,4 -7,4 -7,5 -6,5 -5,6 -5,7 -4,7 -4,7 -3,7 -2,9 -1,8 -1,9 0,706 1,9 1,8 2,9 3,7 4,7 4,7 5,7 5,6 6,5 7,5 7,4 7,4 7,3 9,2 8,1 9,1 706,0 9,-1 8,-1 9,-2 7,-3 7,-4 7,-4 7,-5 6,-5 5,-6 5,-7 4,-7 4,-7 3,-7 2,-9 1,-8 1,-9z" /><path style="fill:#fff;stroke:#4c4c4c;stroke-width:2" d="M914,833 l0,-668 0,-8 -1,-9 -2,-7 -3,-8 -3,-7 -4,-7 -5,-6 -5,-6 -6,-5 -6,-5 -7,-4 -7,-3 -8,-3 -7,-2 -9,-1 -8,0 -668,0 -8,0 -9,1 -7,2 -8,3 -7,3 -7,4 -6,5 -6,5 -5,6 -5,6 -4,7 -3,7 -3,8 -2,7 -1,9 0,8 0,668 0,8 1,9 2,7 3,8 3,7 4,7 5,6 5,6 6,5 6,5 7,4 7,3 8,3 7,2 9,1 8,0 668,0 8,0 9,-1 7,-2 8,-3 7,-3 7,-4 6,-5 6,-5 5,-6 5,-6 4,-7 3,-7 3,-8 2,-7 1,-9 0,-8z" /><path style="fill:#000;stroke:#4c4c4c;stroke-width:2" d="M833,417 l0,166 -458,0 0,124 -210,-208 210,-208 0,126 458,0z" /></svg>