<!DOCTYPE svg PUBLIC "-//W3C//DTD SVG 20000303 Stylable//EN" "http://www.w3.org/TR/2000/03/WD-SVG-20000303/DTD/svg-20000303-stylable.dtd"[]><svg xmlns="http://www.w3.org/2000/svg" width="527px" height="999px" viewBox="0 0 499 999"><path style="fill:#fff;stroke:#4c4c4c;stroke-width:2" d="M15,15 l469,0 0,960 -469,0 0,-960z" /><path style="fill:#000;stroke:#4c4c4c;stroke-width:2" d="M31,38 l437,0 0,2 0,3 0,3 0,3 0,3 0,4 0,2 0,3 0,20 -1,19 -1,19 -2,18 -1,19 -3,18 -2,18 -3,17 -3,18 -4,17 -4,16 -4,16 -5,16 -5,15 -5,15 -6,15 -6,14 -6,13 -7,13 -6,13 -7,11 -7,12 -8,10 -8,11 -8,9 -8,9 -8,8 -9,8 -8,6 -9,6 -9,6 -10,4 1,9 203,0 0,-499 -499,0 0,499 202,0 1,-9 -9,-5 -9,-5 -9,-6 -9,-7 -8,-7 -9,-8 -8,-9 -8,-10 -8,-10 -7,-10 -7,-12 -7,-12 -7,-12 -6,-13 -7,-13 -5,-14 -6,-15 -5,-15 -5,-15 -5,-16 -4,-16 -4,-17 -4,-16 -3,-18 -3,-17 -3,-18 -2,-18 -2,-19 -1,-18 -1,-19 -1,-19 0,-20 0,-3 0,-2 0,-4 0,-3 0,-3 0,-3 0,-3 0,-2z" /><path style="fill:#000;stroke:#4c4c4c;stroke-width:2" d="M31,960 l437,0 0,-2 0,-3 0,-3 0,-3 0,-3 0,-4 0,-2 0,-3 0,-20 -1,-19 -1,-19 -2,-18 -1,-19 -3,-18 -2,-18 -3,-17 -3,-18 -4,-17 -4,-16 -4,-16 -5,-16 -5,-15 -5,-15 -6,-15 -6,-14 -6,-13 -7,-13 -6,-13 -7,-11 -7,-12 -8,-10 -8,-11 -8,-9 -8,-9 -8,-8 -9,-8 -8,-6 -9,-6 -9,-6 -10,-4 1,-9 203,0 0,500 -499,0 0,-500 202,0 1,9 -9,5 -9,5 -9,6 -9,7 -8,7 -9,8 -8,9 -8,10 -8,10 -7,10 -7,12 -7,12 -7,12 -6,13 -7,13 -5,14 -6,15 -5,15 -5,15 -5,16 -4,16 -4,17 -4,16 -3,18 -3,17 -3,18 -2,18 -2,19 -1,18 -1,19 -1,19 0,20 0,3 0,2 0,4 0,3 0,3 0,3 0,3 0,2z" /></svg>