<!DOCTYPE svg PUBLIC "-//W3C//DTD SVG 20000303 Stylable//EN" "http://www.w3.org/TR/2000/03/WD-SVG-20000303/DTD/svg-20000303-stylable.dtd"[]><svg xmlns="http://www.w3.org/2000/svg" width="643px" height="999px" viewBox="0 0 621 999"><path style="fill:#fff;stroke:#4c4c4c;stroke-width:2" d="M30,34 l0,13 0,13 0,13 0,12 0,13 0,13 0,13 0,13 0,13 0,13 0,13 0,12 0,13 0,13 0,13 0,13 0,13 0,13 0,13 0,13 0,12 0,13 0,13 0,13 0,13 0,13 0,13 0,13 0,12 0,13 0,13 0,13 24,-10 24,-8 22,-6 21,-5 20,-3 20,-1 18,-1 18,1 18,2 17,3 16,4 16,4 16,4 15,6 15,5 16,5 15,6 15,5 16,5 16,5 16,4 16,4 17,3 17,1 18,1 19,0 19,-2 21,-3 21,-4 22,-7 23,-8 24,-10 0,-13 0,-13 0,-13 0,-12 0,-13 0,-13 0,-13 0,-13 0,-13 0,-13 0,-13 0,-12 0,-13 0,-13 0,-13 0,-13 0,-13 0,-13 0,-13 0,-13 0,-12 0,-13 0,-13 0,-13 0,-13 0,-13 0,-13 0,-13 0,-12 0,-13 0,-13 0,-13 -24,10 -23,8 -22,6 -21,5 -21,3 -19,1 -19,1 -18,-1 -17,-2 -17,-3 -16,-4 -16,-4 -16,-5 -16,-5 -15,-5 -15,-6 -16,-5 -15,-6 -15,-5 -16,-5 -16,-4 -16,-3 -17,-3 -18,-2 -18,0 -18,0 -20,2 -20,3 -21,4 -22,7 -24,8 -24,10z" /><path style="fill:#000;stroke:#4c4c4c;stroke-width:2" d="M25,23 l-25,0 0,976 25,0 0,-976z" /></svg>