<!DOCTYPE svg PUBLIC "-//W3C//DTD SVG 20000303 Stylable//EN" "http://www.w3.org/TR/2000/03/WD-SVG-20000303/DTD/svg-20000303-stylable.dtd"[]><svg xmlns="http://www.w3.org/2000/svg" width="999px" height="527px" viewBox="0 0 999 499"><path style="fill:#ff0;stroke:#4c4c4c;stroke-width:2" d="M61,499 l876,0 8,0 7,-1 7,-1 7,-1 5,-2 5,-2 5,-3 4,-4 3,-4 3,-4 2,-5 2,-6 2,-6 1,-7 0,-8 1,-8 0,-376 -1,-8 0,-7 -1,-7 -2,-7 -2,-5 -2,-5 -3,-5 -3,-4 -4,-3 -5,-3 -5,-2 -5,-2 -7,-2 -7,-1 -7,0 -8,0 -876,0 -8,0 -7,0 -7,1 -7,2 -5,2 -5,2 -5,3 -4,3 -3,4 -3,5 -2,5 -2,5 -2,7 -1,7 0,7 0,8 0,376 0,8 0,8 1,7 2,6 2,6 2,5 3,4 3,4 4,4 5,3 5,2 5,2 7,1 7,1 7,1 8,0z" /><path style="fill:#000;stroke:#4c4c4c;stroke-width:2" d="M665,411 l-2,2 -3,2 -3,2 -2,1 -3,2 -2,0 -3,1 -2,0 -5,0 -5,-2 -4,-2 -4,-4 -3,-4 -3,-4 -2,-5 0,-5 0,-3 0,-3 1,-2 1,-3 1,-2 1,-2 2,-3 2,-2 38,-32 -540,0 0,-188 540,0 -38,-32 -2,-2 -2,-2 -1,-3 -1,-2 -1,-2 -1,-3 0,-3 0,-3 0,-5 2,-5 3,-4 3,-4 4,-3 4,-2 5,-2 5,-1 2,1 3,0 2,0 3,1 2,2 3,2 3,2 2,2 210,162 -210,162z" /></svg>