<!DOCTYPE svg PUBLIC "-//W3C//DTD SVG 20000303 Stylable//EN" "http://www.w3.org/TR/2000/03/WD-SVG-20000303/DTD/svg-20000303-stylable.dtd"[]><svg xmlns="http://www.w3.org/2000/svg" width="517px" height="999px" viewBox="0 0 489 998"><path style="fill:#263333;stroke:#4c4c4c;stroke-width:2" d="M426,885 l-31,-146 -52,-120 0,-10 10,0 58,125 31,140 -16,11z" /><path style="fill:#263333;stroke:#4c4c4c;stroke-width:2" d="M62,885 l31,-146 52,-120 0,-10 -10,0 -58,125 -31,140 16,11z" /><path style="fill:#3f4c4c;stroke:#4c4c4c;stroke-width:2" d="M0,927 l13,0 16,-24 30,-19 44,-9 52,-7 58,-3 62,0 58,3 52,7 44,9 30,19 16,24 14,0 0,-15 -17,-25 -32,-18 -46,-10 -56,-6 -62,-3 -64,0 -62,3 -56,6 -46,10 -32,18 -16,25 0,15z" /><path style="fill:#263333" d="M390,913 l-10,18 -19,13 -28,7 -33,4 -37,3 -38,0 -37,-3 -33,-4 -28,-7 -19,-13 -10,-18 0,-174 292,0 0,174z" /><path style="fill:#2e3b3b" d="M380,912 l-10,18 -17,14 -26,7 -30,4 -35,3 -36,0 -34,-3 -31,-4 -25,-7 -18,-14 -9,-18 0,-173 271,0 0,173z" /><path style="fill:#354242" d="M369,912 l-8,18 -17,14 -23,7 -29,4 -31,3 -33,0 -32,-3 -28,-4 -24,-7 -16,-14 -8,-18 0,-173 249,0 0,173z" /><path style="fill:#3d4a4a" d="M358,912 l-7,18 -15,14 -22,7 -26,4 -29,3 -30,0 -29,-3 -25,-4 -22,-7 -15,-14 -8,-18 0,-173 228,0 0,173z" /><path style="fill:#455252" d="M348,912 l-7,18 -14,14 -19,7 -24,4 -26,3 -27,0 -27,-3 -23,-4 -20,-7 -13,-14 -7,-18 0,-173 207,0 0,173z" /><path style="fill:#4c5959" d="M337,912 l-6,18 -12,14 -18,7 -21,4 -23,3 -25,0 -24,-3 -20,-4 -18,-7 -12,-14 -7,-18 0,-173 186,0 0,173z" /><path style="fill:#546161" d="M327,912 l-6,18 -11,14 -15,7 -19,4 -21,3 -22,0 -21,-3 -18,-4 -16,-7 -11,-14 -5,-18 0,-173 165,0 0,173z" /><path style="fill:#5e6b6b" d="M316,912 l-5,18 -9,14 -14,7 -16,4 -18,3 -19,0 -18,-3 -17,-4 -13,-7 -10,-14 -4,-18 0,-173 143,0 0,173z" /><path style="fill:#667373" d="M306,912 l-4,18 -8,14 -12,7 -14,4 -16,3 -16,0 -15,-3 -14,-4 -11,-7 -9,-14 -4,-18 0,-173 123,0 0,173z" /><path style="fill:#6d7a7a" d="M295,912 l-3,18 -7,14 -9,7 -12,4 -13,3 -13,0 -13,-3 -11,-4 -10,-7 -7,-14 -3,-18 0,-173 101,0 0,173z" /><path style="fill:#758282" d="M285,912 l-3,18 -5,14 -8,7 -9,4 -10,3 -11,0 -10,-3 -9,-4 -8,-7 -5,-14 -2,-18 0,-173 80,0 0,173z" /><path style="fill:#7d8a8a" d="M274,912 l-2,18 -4,14 -6,7 -6,4 -8,3 -8,0 -7,-3 -7,-4 -5,-7 -4,-14 -2,-18 0,-173 59,0 0,173z" /><path style="fill:#849191" d="M263,912 l-1,18 -2,14 -4,7 -4,4 -5,3 -5,0 -5,-3 -4,-4 -4,-7 -2,-14 -1,-18 0,-173 37,0 0,173z" /><path style="fill:#8c9999" d="M252,913 l0,18 -1,13 -2,7 -1,4 -3,3 -2,0 -2,-3 -2,-4 -1,-7 -2,-13 0,-18 0,-174 16,0 0,174z" /><path style="fill:none;stroke:#4c4c4c;stroke-width:2" d="M390,913 l-10,18 -19,13 -28,7 -33,4 -37,3 -38,0 -37,-3 -33,-4 -28,-7 -19,-13 -10,-18 0,-174 292,0 0,174" /><path style="fill:#596666" d="M62,679 l364,0 0,21 -364,0 0,-21z" /><path style="fill:#3f4c4c" d="M62,374 l364,0 0,21 -364,0 0,-21z" /><path style="fill:#a5b2b2" d="M62,379 l364,0 0,11 -364,0 0,-11z" /><path style="fill:#727f7f" d="M411,791 l-12,21 -22,15 -31,8 -38,5 -42,3 -44,0 -42,-3 -38,-5 -31,-8 -22,-15 -12,-21 0,-573 -20,0 0,-63 20,0 12,-43 22,-38 31,-31 38,-22 42,-11 44,0 42,11 38,22 31,31 22,38 11,43 22,0 0,63 -21,0 0,573z" /><path style="fill:#7a8787" d="M399,791 l-11,20 -20,16 -29,7 -35,6 -39,3 -41,0 -39,-3 -35,-6 -29,-7 -21,-16 -10,-20 0,-573 -19,0 0,-63 19,0 10,-43 21,-38 28,-31 36,-22 39,-12 41,0 39,12 35,22 29,31 20,38 11,43 19,0 0,63 -19,0 0,573z" /><path style="fill:#828f8f" d="M387,791 l-10,20 -19,16 -26,7 -33,6 -36,3 -37,0 -37,-3 -32,-6 -27,-7 -18,-16 -10,-20 0,-573 -18,0 0,-63 18,0 10,-43 18,-38 27,-31 32,-22 37,-12 37,0 36,12 33,22 26,31 19,38 10,43 18,0 0,63 -18,0 0,573z" /><path style="fill:#899696" d="M375,791 l-9,20 -17,16 -25,7 -29,6 -33,3 -35,0 -33,-3 -29,-6 -25,-7 -17,-16 -9,-20 0,-573 -16,0 0,-63 16,0 9,-43 17,-38 24,-31 30,-22 33,-12 35,0 33,12 29,22 25,31 17,38 9,43 16,0 0,63 -16,0 0,573z" /><path style="fill:#919e9e" d="M363,791 l-8,20 -16,16 -49,13 -30,3 -31,0 -30,-3 -49,-13 -16,-16 -8,-20 0,-573 -15,0 0,-63 15,0 8,-43 16,-38 22,-31 27,-22 30,-12 31,0 30,12 27,22 22,31 15,38 8,43 16,0 0,63 -15,0 0,573z" /><path style="fill:#99a6a6" d="M351,791 l-8,20 -14,16 -44,13 -27,3 -55,-3 -44,-13 -14,-16 -7,-20 0,-573 -13,0 0,-63 13,0 7,-43 14,-38 20,-31 24,-22 27,-12 28,0 27,12 25,22 19,31 14,38 7,43 14,0 0,63 -13,0 0,573z" /><path style="fill:#a0adad" d="M339,791 l-7,20 -12,16 -39,13 -24,3 -49,-3 -39,-13 -12,-16 -7,-20 0,-573 -11,0 0,-63 11,0 7,-43 12,-38 18,-31 21,-22 24,-12 25,0 24,12 21,22 18,31 12,38 6,43 12,0 0,63 -11,0 0,573z" /><path style="fill:#abb8b8" d="M326,791 l-5,20 -11,16 -34,13 -21,3 -42,-3 -34,-13 -11,-16 -5,-20 0,-573 -11,0 0,-63 11,0 5,-43 11,-38 15,-31 19,-22 21,-12 21,0 21,12 19,22 15,31 11,38 5,43 11,0 0,63 -11,0 0,573z" /><path style="fill:#b2bfbf" d="M314,791 l-13,36 -29,13 -18,3 -36,-3 -29,-13 -14,-36 0,-573 -9,0 0,-63 9,0 4,-43 10,-38 12,-31 17,-22 17,-12 19,0 18,12 15,22 14,31 8,38 5,43 9,0 0,63 -9,0 0,573z" /><path style="fill:#bac7c7" d="M302,791 l-11,36 -24,13 -15,3 -30,-3 -24,-13 -11,-36 0,-573 -7,0 0,-63 7,0 4,-43 7,-38 11,-31 13,-22 15,-12 15,0 15,12 13,22 11,31 7,38 4,43 8,0 0,63 -8,0 0,573z" /><path style="fill:#c2cfcf" d="M290,791 l-9,36 -30,16 -34,-9 -9,-7 -9,-36 0,-573 -6,0 0,-63 6,0 3,-43 6,-38 8,-31 22,-34 13,0 11,12 11,22 8,31 6,38 3,43 6,0 0,63 -6,0 0,573z" /><path style="fill:#c9d6d6" d="M278,791 l-6,36 -23,16 -31,-16 -7,-36 0,-573 -4,0 0,-63 4,0 2,-43 5,-38 6,-31 16,-34 9,0 16,34 7,31 4,38 2,43 5,0 0,63 -5,0 0,573z" /><path style="fill:#d1dede" d="M266,791 l-4,36 -14,16 -6,0 -18,-32 -1,-20 0,-573 -3,0 0,-63 3,0 1,-43 3,-38 4,-31 11,-34 6,0 10,34 4,31 3,38 1,43 3,0 0,63 -3,0 0,573z" /><ellipse style="fill:#d8e5e5" cx="244" cy="426" rx="10" ry="416" /><path style="fill:none;stroke:#4c4c4c;stroke-width:2" d="M411,791 l-12,21 -22,15 -31,8 -38,5 -42,3 -44,0 -42,-3 -38,-5 -31,-8 -22,-15 -12,-21 0,-573 -20,0 0,-63 20,0 12,-43 22,-38 31,-31 38,-22 42,-11 44,0 42,11 38,22 31,31 22,38 11,43 22,0 0,63 -21,0 0,573" /><path style="fill:none;stroke:#596666;stroke-width:2" d="M77,218 l334,0" /><path style="fill:#727f7f;stroke:#3f4c4c;stroke-width:2" d="M62,140 l10,0 0,15 -10,0 0,-15z" /><path style="fill:#727f7f;stroke:#3f4c4c;stroke-width:2" d="M83,140 l10,0 0,15 -10,0 0,-15z" /><path style="fill:#727f7f;stroke:#3f4c4c;stroke-width:2" d="M103,140 l11,0 0,15 -11,0 0,-15z" /><path style="fill:#727f7f;stroke:#3f4c4c;stroke-width:2" d="M124,140 l11,0 0,15 -11,0 0,-15z" /><path style="fill:#727f7f;stroke:#3f4c4c;stroke-width:2" d="M145,140 l11,0 0,15 -11,0 0,-15z" /><path style="fill:#727f7f;stroke:#3f4c4c;stroke-width:2" d="M166,140 l10,0 0,15 -10,0 0,-15z" /><path style="fill:#727f7f;stroke:#3f4c4c;stroke-width:2" d="M187,140 l10,0 0,15 -10,0 0,-15z" /><path style="fill:#727f7f;stroke:#3f4c4c;stroke-width:2" d="M208,140 l10,0 0,15 -10,0 0,-15z" /><path style="fill:#727f7f;stroke:#3f4c4c;stroke-width:2" d="M228,140 l11,0 0,15 -11,0 0,-15z" /><path style="fill:#727f7f;stroke:#3f4c4c;stroke-width:2" d="M249,140 l11,0 0,15 -11,0 0,-15z" /><path style="fill:#727f7f;stroke:#3f4c4c;stroke-width:2" d="M270,140 l11,0 0,15 -11,0 0,-15z" /><path style="fill:#727f7f;stroke:#3f4c4c;stroke-width:2" d="M291,140 l10,0 0,15 -10,0 0,-15z" /><path style="fill:#727f7f;stroke:#3f4c4c;stroke-width:2" d="M312,140 l10,0 0,15 -10,0 0,-15z" /><path style="fill:#727f7f;stroke:#3f4c4c;stroke-width:2" d="M333,140 l10,0 0,15 -10,0 0,-15z" /><path style="fill:#727f7f;stroke:#3f4c4c;stroke-width:2" d="M353,140 l11,0 0,15 -11,0 0,-15z" /><path style="fill:#727f7f;stroke:#3f4c4c;stroke-width:2" d="M374,140 l10,0 0,15 -10,0 0,-15z" /><path style="fill:#727f7f;stroke:#3f4c4c;stroke-width:2" d="M395,140 l10,0 0,15 -10,0 0,-15z" /><path style="fill:#727f7f;stroke:#3f4c4c;stroke-width:2" d="M416,140 l10,0 0,15 -10,0 0,-15z" /><path style="fill:none;stroke:#d8e5e5;stroke-width:2" d="M77,155 l334,0" /><path style="fill:#8c9999" d="M239,9 l0,-5 -11,0 0,-4 32,0 0,4 -11,0 0,5 -10,0z" /><path style="fill:#d8e5e5" d="M244,4 l0,-4 16,0 0,4 -16,0z" /><path style="fill:none;stroke:#4c4c4c;stroke-width:2" d="M239,9 l0,-5 -11,0 0,-4 32,0 0,4 -11,0 0,5 -10,0" /><path style="fill:#8c9999" d="M301,35 l0,-5 -10,0 0,-5 31,0 0,5 -11,0 0,5 -10,0z" /><path style="fill:#d8e5e5" d="M306,30 l0,-5 16,0 0,5 -16,0z" /><path style="fill:none;stroke:#4c4c4c;stroke-width:2" d="M301,35 l0,-5 -10,0 0,-5 31,0 0,5 -11,0 0,5 -10,0" /><path style="fill:#8c9999" d="M265,35 l0,-5 -11,0 0,-5 32,0 0,5 -11,0 0,5 -10,0z" /><path style="fill:#d8e5e5" d="M270,30 l0,-5 16,0 0,5 -16,0z" /><path style="fill:none;stroke:#4c4c4c;stroke-width:2" d="M265,35 l0,-5 -11,0 0,-5 32,0 0,5 -11,0 0,5 -10,0" /><path style="fill:#596666" d="M374,702 l11,-17 17,10 -10,18 -18,-11z" /><path style="fill:#596666" d="M320,713 l11,-18 17,11 -10,17 -18,-10z" /><path style="fill:#596666" d="M265,718 l10,-18 18,11 -10,17 -18,-10z" /><path style="fill:#596666" d="M197,718 l10,-18 18,11 -10,17 -18,-10z" /><path style="fill:#596666" d="M140,713 l10,-18 18,11 -10,17 -18,-10z" /><path style="fill:#596666" d="M83,702 l10,-17 18,10 -11,18 -17,-11z" /><path style="fill:#596666" d="M374,695 l18,-10 10,17 -17,11 -11,-18z" /><path style="fill:#596666" d="M320,706 l18,-11 10,18 -17,10 -11,-17z" /><path style="fill:#596666" d="M265,711 l18,-11 10,18 -18,10 -10,-17z" /><path style="fill:#596666" d="M197,711 l18,-11 10,18 -18,10 -10,-17z" /><path style="fill:#596666" d="M140,706 l18,-11 10,18 -18,10 -10,-17z" /><path style="fill:#596666" d="M83,695 l17,-10 11,17 -18,11 -10,-18z" /><path style="fill:#596666" d="M378,688 l21,0 0,21 -21,0 0,-21z" /><path style="fill:#596666" d="M324,699 l21,0 0,21 -21,0 0,-21z" /><path style="fill:#596666" d="M269,704 l20,0 0,21 -20,0 0,-21z" /><path style="fill:#596666" d="M201,704 l20,0 0,21 -20,0 0,-21z" /><path style="fill:#596666" d="M144,699 l20,0 0,21 -20,0 0,-21z" /><path style="fill:#596666" d="M86,688 l21,0 0,21 -21,0 0,-21z" /><path style="fill:#192626" d="M386,695 l10,0 0,10 -10,0 0,-10z" /><path style="fill:#192626" d="M330,705 l11,0 0,10 -11,0 0,-10z" /><path style="fill:#192626" d="M273,709 l11,0 0,11 -11,0 0,-11z" /><path style="fill:#192626" d="M206,709 l10,0 0,11 -10,0 0,-11z" /><path style="fill:#192626" d="M147,705 l11,0 0,10 -11,0 0,-10z" /><path style="fill:#192626" d="M88,695 l10,0 0,10 -10,0 0,-10z" /><circle style="fill:#a5b2b2" cx="106" cy="283" r="34" /><path style="fill:#727f7f" d="M79,304 l6,6 8,5 9,2 9,0 8,-2 8,-5 6,-6 5,-8 2,-8 0,-9 -2,-9 -5,-8 -6,-6 -16,13 7,9 1,10 -4,10 -9,7 -10,1 -10,-4 -4,-4 -3,6z" /><circle style="fill:#192626" cx="98" cy="285" r="20" /><circle style="fill:none;stroke:#4c4c4c;stroke-width:2" cx="106" cy="283" r="34" /><path style="fill:#bfcccc;stroke:#4c4c4c;stroke-width:2" d="M176,989 l11,-177 26,-89 0,-10 -11,0 -31,94 -15,177 20,5z" /><path style="fill:#bfcccc;stroke:#4c4c4c;stroke-width:2" d="M312,989 l-11,-177 -26,-89 0,-10 11,0 31,94 15,177 -20,5z" /><path style="fill:#a5b2b2;stroke:#4c4c4c;stroke-width:2" d="M77,978 l26,-177 52,-83 0,-10 -10,0 -57,88 -26,177 15,5z" /><path style="fill:#a5b2b2;stroke:#4c4c4c;stroke-width:2" d="M411,978 l-26,-177 -52,-83 0,-10 10,0 57,88 26,177 -15,5z" /><path style="fill:#8c9999;stroke:#4c4c4c;stroke-width:2" d="M473,932 l-31,-152 -52,-72 0,-11 10,0 58,78 31,136 -16,21z" /><path style="fill:#8c9999;stroke:#4c4c4c;stroke-width:2" d="M15,932 l31,-152 52,-72 0,-11 -10,0 -58,78 -30,136 15,21z" /><path style="fill:#8c9999;stroke:#4c4c4c;stroke-width:2" d="M489,909 l-14,0 -16,29 -30,21 -44,11 -52,7 -58,4 -62,0 -58,-4 -52,-7 -44,-11 -30,-21 -16,-29 -13,0 0,18 16,28 32,22 46,10 56,8 62,3 64,0 62,-3 56,-8 46,-10 32,-22 17,-28 0,-18z" /></svg>