<!DOCTYPE svg PUBLIC "-//W3C//DTD SVG 20000303 Stylable//EN" "http://www.w3.org/TR/2000/03/WD-SVG-20000303/DTD/svg-20000303-stylable.dtd"[]><svg xmlns="http://www.w3.org/2000/svg" width="475px" height="998px" viewBox="0 0 444 999"><path style="fill:#596666" d="M5,804 l432,0 0,25 -432,0 0,-25z" /><path style="fill:#3f4c4c" d="M5,443 l432,0 0,25 -432,0 0,-25z" /><path style="fill:#a5b2b2" d="M5,449 l432,0 0,13 -432,0 0,-13z" /><path style="fill:#727f7f" d="M419,937 l-14,24 -26,19 -37,9 -44,6 -51,4 -52,0 -50,-4 -44,-6 -38,-9 -26,-19 -13,-24 0,-679 -24,0 0,-74 24,0 13,-51 26,-45 37,-37 45,-26 50,-13 52,0 51,13 44,26 37,37 26,45 13,51 26,0 0,74 -25,0 0,679z" /><path style="fill:#7a8787" d="M405,937 l-13,24 -24,18 -34,9 -42,7 -46,3 -48,0 -47,-3 -41,-7 -35,-9 -24,-18 -12,-24 0,-679 -23,0 0,-74 23,0 12,-51 24,-45 34,-37 42,-26 47,-14 48,0 46,14 42,26 34,37 24,45 12,51 24,0 0,74 -23,0 0,679z" /><path style="fill:#828f8f" d="M391,937 l-12,24 -22,18 -32,9 -38,7 -43,3 -44,0 -43,-3 -38,-7 -32,-9 -22,-18 -12,-24 0,-679 -21,0 0,-74 21,0 12,-51 22,-45 31,-37 39,-26 43,-14 44,0 43,14 39,26 31,37 22,45 11,51 22,0 0,74 -21,0 0,679z" /><path style="fill:#899696" d="M376,937 l-10,24 -21,18 -29,9 -35,7 -39,3 -41,0 -39,-3 -35,-7 -29,-9 -20,-18 -11,-24 0,-679 -19,0 0,-74 19,0 11,-51 20,-45 29,-37 35,-26 39,-14 41,0 39,14 35,26 29,37 20,45 11,51 20,0 0,74 -20,0 0,679z" /><path style="fill:#919e9e" d="M362,937 l-10,24 -18,18 -27,9 -31,7 -36,3 -37,0 -35,-3 -32,-7 -26,-9 -19,-18 -9,-24 0,-679 -18,0 0,-74 18,0 9,-51 19,-45 26,-37 32,-26 35,-14 37,0 36,14 32,26 26,37 18,45 9,51 19,0 0,74 -18,0 0,679z" /><path style="fill:#99a6a6" d="M348,937 l-9,24 -17,18 -23,9 -29,7 -32,3 -33,0 -32,-3 -28,-7 -24,-9 -17,-18 -8,-24 0,-679 -16,0 0,-74 16,0 8,-51 17,-45 23,-37 29,-26 32,-14 33,0 32,14 29,26 23,37 17,45 8,51 16,0 0,74 -15,0 0,679z" /><path style="fill:#a0adad" d="M333,937 l-7,24 -15,18 -46,16 -28,3 -30,0 -28,-3 -46,-16 -15,-18 -8,-24 0,-679 -13,0 0,-74 13,0 8,-51 15,-45 20,-37 26,-26 28,-14 30,0 28,14 25,26 21,37 15,45 7,51 14,0 0,74 -14,0 0,679z" /><path style="fill:#abb8b8" d="M319,937 l-6,24 -13,18 -41,16 -24,3 -51,-3 -40,-16 -13,-18 -6,-24 0,-679 -12,0 0,-74 12,0 6,-51 13,-45 18,-37 22,-26 25,-14 26,0 24,14 22,26 19,37 12,45 7,51 12,0 0,74 -12,0 0,679z" /><path style="fill:#b2bfbf" d="M305,937 l-17,42 -34,16 -21,3 -43,-3 -34,-16 -17,-42 0,-679 -10,0 0,-74 10,0 6,-51 11,-45 15,-37 19,-26 21,-14 22,0 21,14 19,26 15,37 11,45 6,51 10,0 0,74 -10,0 0,679z" /><path style="fill:#bac7c7" d="M290,937 l-13,42 -28,16 -18,3 -35,-3 -29,-16 -14,-42 0,-679 -8,0 0,-74 8,0 5,-51 9,-45 13,-37 16,-26 17,-14 18,0 18,14 15,26 13,37 9,45 4,51 9,0 0,74 -9,0 0,679z" /><path style="fill:#c2cfcf" d="M276,937 l-10,42 -23,16 -14,3 -28,-3 -22,-16 -11,-42 0,-679 -7,0 0,-74 7,0 3,-51 8,-45 10,-37 12,-26 14,-14 14,0 14,14 12,26 11,37 6,45 4,51 7,0 0,74 -7,0 0,679z" /><path style="fill:#c9d6d6" d="M262,937 l-8,42 -27,19 -29,-10 -8,-9 -8,-42 0,-679 -5,0 0,-74 5,0 3,-51 5,-45 7,-37 10,-26 10,-14 10,0 11,14 8,26 8,37 5,45 3,51 5,0 0,74 -5,0 0,679z" /><path style="fill:#d1dede" d="M247,937 l-4,42 -17,19 -7,0 -21,-37 -1,-24 0,-679 -4,0 0,-74 4,0 1,-51 4,-45 4,-37 13,-40 7,0 12,40 5,37 3,45 1,51 4,0 0,74 -4,0 0,679z" /><ellipse style="fill:#d8e5e5" cx="221" cy="505" rx="12" ry="493" /><path style="fill:none;stroke:#4c4c4c;stroke-width:2" d="M419,937 l-14,24 -26,19 -37,9 -44,6 -51,4 -52,0 -50,-4 -44,-6 -38,-9 -26,-19 -13,-24 0,-679 -24,0 0,-74 24,0 13,-51 26,-45 37,-37 45,-26 50,-13 52,0 51,13 44,26 37,37 26,45 13,51 26,0 0,74 -25,0 0,679" /><path style="fill:none;stroke:#596666;stroke-width:2" d="M24,258 l395,0" /><path style="fill:#727f7f;stroke:#3f4c4c;stroke-width:2" d="M5,166 l13,0 0,18 -13,0 0,-18z" /><path style="fill:#727f7f;stroke:#3f4c4c;stroke-width:2" d="M30,166 l13,0 0,18 -13,0 0,-18z" /><path style="fill:#727f7f;stroke:#3f4c4c;stroke-width:2" d="M55,166 l12,0 0,18 -12,0 0,-18z" /><path style="fill:#727f7f;stroke:#3f4c4c;stroke-width:2" d="M80,166 l12,0 0,18 -12,0 0,-18z" /><path style="fill:#727f7f;stroke:#3f4c4c;stroke-width:2" d="M104,166 l13,0 0,18 -13,0 0,-18z" /><path style="fill:#727f7f;stroke:#3f4c4c;stroke-width:2" d="M129,166 l12,0 0,18 -12,0 0,-18z" /><path style="fill:#727f7f;stroke:#3f4c4c;stroke-width:2" d="M153,166 l13,0 0,18 -13,0 0,-18z" /><path style="fill:#727f7f;stroke:#3f4c4c;stroke-width:2" d="M178,166 l13,0 0,18 -13,0 0,-18z" /><path style="fill:#727f7f;stroke:#3f4c4c;stroke-width:2" d="M203,166 l12,0 0,18 -12,0 0,-18z" /><path style="fill:#727f7f;stroke:#3f4c4c;stroke-width:2" d="M228,166 l12,0 0,18 -12,0 0,-18z" /><path style="fill:#727f7f;stroke:#3f4c4c;stroke-width:2" d="M253,166 l12,0 0,18 -12,0 0,-18z" /><path style="fill:#727f7f;stroke:#3f4c4c;stroke-width:2" d="M277,166 l12,0 0,18 -12,0 0,-18z" /><path style="fill:#727f7f;stroke:#3f4c4c;stroke-width:2" d="M301,166 l13,0 0,18 -13,0 0,-18z" /><path style="fill:#727f7f;stroke:#3f4c4c;stroke-width:2" d="M326,166 l13,0 0,18 -13,0 0,-18z" /><path style="fill:#727f7f;stroke:#3f4c4c;stroke-width:2" d="M351,166 l12,0 0,18 -12,0 0,-18z" /><path style="fill:#727f7f;stroke:#3f4c4c;stroke-width:2" d="M375,166 l12,0 0,18 -12,0 0,-18z" /><path style="fill:#727f7f;stroke:#3f4c4c;stroke-width:2" d="M400,166 l12,0 0,18 -12,0 0,-18z" /><path style="fill:#727f7f;stroke:#3f4c4c;stroke-width:2" d="M425,166 l12,0 0,18 -12,0 0,-18z" /><path style="fill:none;stroke:#d8e5e5;stroke-width:2" d="M24,184 l395,0" /><path style="fill:#8c9999" d="M215,11 l0,-6 -12,0 0,-5 37,0 0,5 -13,0 0,6 -12,0z" /><path style="fill:#d8e5e5" d="M221,5 l0,-5 19,0 0,5 -19,0z" /><path style="fill:none;stroke:#4c4c4c;stroke-width:2" d="M215,11 l0,-6 -12,0 0,-5 37,0 0,5 -13,0 0,6 -12,0" /><path style="fill:#8c9999" d="M289,42 l0,-6 -12,0 0,-6 37,0 0,6 -13,0 0,6 -12,0z" /><path style="fill:#d8e5e5" d="M295,36 l0,-6 19,0 0,6 -19,0z" /><path style="fill:none;stroke:#4c4c4c;stroke-width:2" d="M289,42 l0,-6 -12,0 0,-6 37,0 0,6 -13,0 0,6 -12,0" /><path style="fill:#8c9999" d="M246,42 l0,-6 -12,0 0,-6 37,0 0,6 -13,0 0,6 -12,0z" /><path style="fill:#d8e5e5" d="M252,36 l0,-6 19,0 0,6 -19,0z" /><path style="fill:none;stroke:#4c4c4c;stroke-width:2" d="M246,42 l0,-6 -12,0 0,-6 37,0 0,6 -13,0 0,6 -12,0" /><path style="fill:#596666" d="M376,832 l12,-21 21,12 -12,21 -21,-12z" /><path style="fill:#596666" d="M312,845 l12,-21 21,12 -12,21 -21,-12z" /><path style="fill:#596666" d="M246,850 l12,-20 21,12 -12,21 -21,-13z" /><path style="fill:#596666" d="M166,850 l12,-20 21,12 -12,21 -21,-13z" /><path style="fill:#596666" d="M98,845 l12,-21 21,12 -12,21 -21,-12z" /><path style="fill:#596666" d="M30,832 l13,-21 20,12 -12,21 -21,-12z" /><path style="fill:#596666" d="M376,823 l21,-12 12,21 -21,12 -12,-21z" /><path style="fill:#596666" d="M312,836 l21,-12 12,21 -21,12 -12,-21z" /><path style="fill:#596666" d="M246,842 l21,-12 12,20 -21,13 -12,-21z" /><path style="fill:#596666" d="M166,842 l21,-12 12,20 -21,13 -12,-21z" /><path style="fill:#596666" d="M98,836 l21,-12 12,21 -21,12 -12,-21z" /><path style="fill:#596666" d="M30,823 l21,-12 12,21 -20,12 -13,-21z" /><path style="fill:#596666" d="M380,815 l24,0 0,25 -24,0 0,-25z" /><path style="fill:#596666" d="M316,828 l25,0 0,24 -25,0 0,-24z" /><path style="fill:#596666" d="M251,834 l24,0 0,24 -24,0 0,-24z" /><path style="fill:#596666" d="M170,834 l24,0 0,24 -24,0 0,-24z" /><path style="fill:#596666" d="M103,828 l24,0 0,24 -24,0 0,-24z" /><path style="fill:#596666" d="M35,815 l24,0 0,25 -24,0 0,-25z" /><path style="fill:#192626" d="M389,823 l13,0 0,12 -13,0 0,-12z" /><path style="fill:#192626" d="M324,835 l12,0 0,12 -12,0 0,-12z" /><path style="fill:#192626" d="M256,840 l12,0 0,12 -12,0 0,-12z" /><path style="fill:#192626" d="M176,840 l12,0 0,12 -12,0 0,-12z" /><path style="fill:#192626" d="M107,835 l12,0 0,12 -12,0 0,-12z" /><path style="fill:#192626" d="M37,823 l12,0 0,12 -12,0 0,-12z" /><circle style="fill:#a5b2b2" cx="58" cy="336" r="40" /><path style="fill:#727f7f" d="M26,360 l7,8 10,5 10,3 10,0 11,-3 9,-5 7,-8 5,-9 3,-10 0,-11 -3,-10 -5,-9 -7,-8 -19,16 8,10 1,13 -4,12 -11,7 -12,2 -12,-5 -5,-4 -3,6z" /><circle style="fill:#192626" cx="48" cy="338" r="24" /><circle style="fill:none;stroke:#4c4c4c;stroke-width:2" cx="58" cy="336" r="40" /></svg>