<!DOCTYPE svg PUBLIC "-//W3C//DTD SVG 20000303 Stylable//EN" "http://www.w3.org/TR/2000/03/WD-SVG-20000303/DTD/svg-20000303-stylable.dtd"[]><svg xmlns="http://www.w3.org/2000/svg" width="999px" height="959px" viewBox="0 0 998 957"><path style="fill:#d1d9d9" d="M936,879 l-57,-79 -45,-105 -41,-121 -34,-127 -24,-125 -14,-113 -1,-96 10,-72 20,-41 -501,0 22,41 11,72 -2,96 -14,113 -24,125 -34,127 -41,121 -46,105 -59,79 874,0z" /><path style="fill:#ced6d6" d="M937,879 l-18,-25 -18,-25 -18,-24 -12,-25 -11,-27 -12,-26 -11,-26 -11,-29 -10,-31 -10,-30 -10,-30 -9,-31 -8,-32 -9,-32 -8,-31 -7,-32 -6,-31 -6,-31 -6,-31 -4,-30 -3,-28 -4,-28 -3,-29 -2,-31 0,-30 -1,-30 3,-30 4,-31 6,-27 13,-26 4,-10 -93,0 -16,0 -15,0 -267,0 -31,0 -78,0 22,20 22,21 10,27 10,27 8,30 3,30 2,30 2,31 -3,34 -3,36 -3,28 -5,31 -6,31 -6,31 -6,31 -9,32 -9,32 -10,32 -10,32 -11,31 -13,30 -13,30 -13,31 -15,27 -15,26 -15,26 -16,26 -19,22 -20,19 -21,20 -20,20 -6,5 28,0 137,0 54,-1 465,0 54,1 109,0 28,0z" /><path style="fill:#c9d1d1" d="M937,879 l-18,-25 -18,-25 -18,-24 -12,-25 -11,-27 -12,-26 -11,-26 -11,-29 -10,-31 -10,-30 -10,-30 -9,-31 -8,-32 -9,-32 -8,-31 -7,-32 -6,-31 -6,-31 -6,-31 -4,-30 -3,-28 -4,-28 -3,-29 -2,-31 0,-30 -1,-30 3,-30 4,-31 6,-27 13,-26 4,-10 -93,0 -16,0 -15,0 -267,0 -31,0 -78,0 25,15 25,16 17,10 16,27 16,28 11,24 6,30 6,29 6,30 -1,35 -2,34 -2,35 -5,31 -6,31 -6,31 -6,31 -10,33 -10,31 -11,33 -11,32 -14,31 -15,31 -16,30 -15,31 -18,27 -19,26 -20,25 -19,26 -25,22 -26,19 -26,20 -26,20 -7,5 28,0 137,0 54,-1 465,0 54,1 109,0 28,0z" /><path style="fill:#c7cfcf" d="M937,879 l-18,-25 -18,-25 -18,-24 -12,-25 -11,-27 -12,-26 -11,-26 -11,-29 -10,-31 -10,-30 -10,-30 -9,-31 -8,-32 -9,-32 -8,-31 -7,-32 -6,-31 -6,-31 -6,-31 -4,-30 -3,-28 -4,-28 -3,-29 -2,-31 0,-30 -1,-30 3,-30 4,-31 6,-27 13,-26 4,-10 -93,0 -16,0 -15,0 -267,0 -31,0 -78,0 28,12 28,13 28,13 6,3 18,23 18,23 17,24 12,28 9,29 9,30 4,32 0,34 -1,35 -3,36 -6,31 -6,32 -7,31 -9,32 -11,32 -12,33 -11,33 -15,31 -18,31 -14,23 -14,23 -13,23 -22,27 -23,25 -23,26 -23,26 -22,16 -24,15 -24,14 -24,15 -24,15 -8,5 -8,5 28,0 137,0 54,-1 465,0 54,1 109,0 28,0z" /><path style="fill:#c1c9c9" d="M937,879 l-18,-25 -18,-25 -18,-24 -12,-25 -11,-27 -12,-26 -11,-26 -11,-29 -10,-31 -10,-30 -10,-30 -9,-31 -8,-32 -9,-32 -8,-31 -7,-32 -6,-31 -6,-31 -6,-31 -4,-30 -3,-28 -4,-28 -3,-29 -2,-31 0,-30 -1,-30 3,-30 4,-31 6,-27 13,-26 4,-10 -93,0 -16,0 -15,0 -267,0 -31,0 -78,0 28,10 28,10 28,11 28,10 23,24 23,23 23,24 15,28 13,29 12,29 6,32 0,34 1,34 -2,37 -6,31 -6,31 -7,31 -9,32 -13,33 -9,25 -13,33 -14,32 -16,23 -15,23 -16,23 -16,23 -15,24 -21,19 -20,19 -20,18 -21,20 -20,19 -26,16 -27,15 -28,14 -29,15 -28,15 -9,5 -10,5 28,0 137,0 54,-1 465,0 54,1 109,0 28,0z" /><path style="fill:#bfc7c7" d="M937,879 l-18,-25 -18,-25 -18,-24 -12,-25 -11,-27 -12,-26 -11,-26 -11,-29 -10,-31 -10,-30 -10,-30 -9,-31 -8,-32 -9,-32 -8,-31 -7,-32 -6,-31 -6,-31 -6,-31 -4,-30 -3,-28 -4,-28 -3,-29 -2,-31 0,-30 -1,-30 3,-30 4,-31 6,-27 13,-26 4,-10 -93,0 -16,0 -15,0 -267,0 -31,0 -78,0 34,10 33,10 34,11 34,10 22,19 23,19 22,19 22,20 16,28 13,24 15,29 7,11 2,34 2,33 2,34 -4,31 -6,31 -6,31 -7,31 -11,33 -10,25 -10,24 -11,25 -10,25 -15,24 -17,23 -18,23 -17,24 -18,23 -20,22 -23,19 -23,19 -24,18 -23,19 -23,19 -32,15 -33,14 -32,15 -32,15 -33,15 -11,5 28,0 137,0 54,-1 465,0 54,1 109,0 28,0z" /><path style="fill:#bac2c2" d="M937,879 l-18,-25 -18,-25 -18,-24 -12,-25 -11,-27 -12,-26 -11,-26 -11,-29 -10,-31 -10,-30 -10,-30 -9,-31 -8,-32 -9,-32 -8,-31 -7,-32 -6,-31 -6,-31 -6,-31 -4,-30 -3,-28 -4,-28 -3,-29 -2,-31 0,-30 -1,-30 3,-30 4,-31 6,-27 13,-26 4,-10 -93,0 -16,0 -15,0 -267,0 -31,0 -78,0 29,7 30,8 30,8 29,8 30,8 29,17 27,19 26,19 25,20 19,22 15,23 15,23 16,23 3,6 4,33 3,33 4,34 -4,30 -6,31 -6,31 -7,31 -12,33 -11,25 -11,25 -11,26 -11,25 -17,24 -19,23 -19,23 -20,23 -20,24 -21,22 -27,18 -26,19 -26,19 -27,18 -26,19 -36,15 -37,14 -36,15 -37,15 -36,15 -13,5 28,0 137,0 54,-1 465,0 54,1 109,0 28,0z" /><path style="fill:#ccd4d4" d="M937,879 l-58,-79 -45,-106 -41,-120 -34,-127 -24,-125 -13,-114 -2,-96 10,-71 20,-41 -500,0 48,41 29,73 10,95 -9,112 -24,125 -39,128 -53,122 -64,104 -86,79 875,0z" /><path style="fill:#c9d1d1" d="M937,879 l-58,-79 -45,-106 -41,-120 -34,-127 -24,-125 -13,-114 -2,-96 10,-71 20,-41 -500,0 74,41 48,74 22,94 -4,111 -24,125 -44,130 -65,122 -83,103 -112,79 875,0z" /><path style="fill:#c4cccc" d="M937,879 l-58,-79 -45,-106 -41,-120 -34,-127 -24,-125 -13,-114 -2,-96 10,-71 20,-41 -500,0 101,41 65,75 35,94 1,109 -25,125 -48,131 -78,123 -100,102 -139,79 875,0z" /><path style="fill:#bfc7c7" d="M937,879 l-58,-79 -45,-106 -41,-120 -34,-127 -24,-125 -13,-114 -2,-96 10,-71 20,-41 -500,0 127,41 84,76 47,93 6,108 -25,125 -53,133 -90,123 -119,101 -165,79 875,0z" /><path style="fill:#bcc4c4" d="M937,879 l-58,-79 -45,-106 -41,-120 -34,-127 -24,-125 -13,-114 -2,-96 10,-71 20,-41 -500,0 154,41 102,77 59,93 10,107 -24,125 -58,133 -102,124 -138,100 -191,79 875,0z" /><path style="fill:#b7bfbf" d="M936,879 l-57,-79 -45,-105 -41,-121 -34,-127 -24,-125 -14,-113 -1,-96 10,-72 20,-41 -501,0 181,42 120,78 72,92 15,105 -25,125 -62,135 -115,125 -156,99 -217,78 874,0z" /><path style="fill:#b0b8b8" d="M936,879 l-57,-79 -45,-105 -41,-121 -34,-127 -31,-151 -15,115 -37,98 -36,58 -37,41 -114,105 -193,98 -234,68 874,0z" /><path style="fill:none;stroke:#a8b0b0;stroke-width:2" d="M461,0 l3,41 2,72 -1,96 -2,113 -3,125 -6,127 -6,121 -7,105 -9,79" /><path style="fill:none;stroke:#a8b0b0;stroke-width:2" d="M567,879 l-9,-79 -7,-105 -7,-121 -5,-127 -3,-125 -3,-113 0,-96 2,-72 3,-41" /><path style="fill:none;stroke:#a8b0b0;stroke-width:2" d="M398,0 l9,41 4,72 0,96 -6,113 -10,125 -14,127 -16,121 -19,105 -24,79" /><path style="fill:none;stroke:#a8b0b0;stroke-width:2" d="M676,879 l-23,-79 -19,-105 -16,-121 -14,-127 -10,-125 -5,-113 -1,-96 4,-72 9,-41" /><path style="fill:none;stroke:#a8b0b0;stroke-width:2" d="M342,0 l14,41 6,72 -1,96 -9,113 -15,125 -22,127 -25,121 -29,105 -37,79" /><path style="fill:none;stroke:#a8b0b0;stroke-width:2" d="M775,879 l-36,-79 -29,-105 -26,-121 -21,-127 -15,-125 -9,-113 -1,-96 7,-72 13,-41" /><path style="fill:none;stroke:#a8b0b0;stroke-width:2" d="M297,0 l18,41 8,72 -1,96 -11,113 -20,125 -28,127 -32,121 -37,105 -48,79" /><path style="fill:none;stroke:#a8b0b0;stroke-width:2" d="M853,879 l-47,-79 -36,-105 -33,-121 -27,-127 -20,-125 -11,-113 -1,-96 8,-72 16,-41" /><path style="fill:none;stroke:#a8b0b0;stroke-width:2" d="M281,395 l177,0" /><path style="fill:none;stroke:#a8b0b0;stroke-width:2" d="M327,364 l162,0" /><path style="fill:none;stroke:#a8b0b0;stroke-width:2" d="M343,260 l125,0" /><path style="fill:none;stroke:#a8b0b0;stroke-width:2" d="M312,172 l78,0" /><path style="fill:none;stroke:#a8b0b0;stroke-width:2" d="M406,535 l145,0" /><path style="fill:none;stroke:#a8b0b0;stroke-width:2" d="M333,608 l109,0" /><path style="fill:none;stroke:#a8b0b0;stroke-width:2" d="M359,624 l208,0" /><path style="fill:none;stroke:#4c4c4c;stroke-width:2" d="M936,879 l-57,-79 -45,-105 -41,-121 -34,-127 -24,-125 -14,-113 -1,-96 10,-72 20,-41 -501,0 22,41 11,72 -2,96 -14,113 -24,125 -34,127 -41,121 -46,105 -59,79 874,0" /><path style="fill:#99a6a6" d="M0,957 l998,0 0,-125 -998,0 0,125z" /><path style="fill:#9ba8a8" d="M41,957 l917,0 0,-125 -917,0 0,125z" /><path style="fill:#a0adad" d="M82,957 l835,0 0,-125 -835,0 0,125z" /><path style="fill:#a3b0b0" d="M124,957 l751,0 0,-125 -752,0 1,125z" /><path style="fill:#a5b2b2" d="M165,957 l669,0 0,-125 -670,0 1,125z" /><path style="fill:#abb8b8" d="M206,957 l587,0 0,-125 -587,0 0,125z" /><path style="fill:#adbaba" d="M247,957 l505,0 0,-125 -505,0 0,125z" /><path style="fill:#b2bfbf" d="M288,957 l423,0 0,-125 -423,0 0,125z" /><path style="fill:#b5c2c2" d="M329,957 l341,0 0,-125 -341,0 0,125z" /><path style="fill:#b7c4c4" d="M370,957 l259,0 0,-125 -259,0 0,125z" /><path style="fill:#bcc9c9" d="M411,957 l177,0 0,-125 -177,0 0,125z" /><path style="fill:#bfcccc" d="M452,957 l94,0 0,-125 -94,0 0,125z" /><path style="fill:none;stroke:#4c4c4c;stroke-width:2" d="M0,957 l998,0 0,-125 -998,0 0,125" /><path style="fill:none;stroke:#4c4c4c;stroke-width:2" d="M0,853 l998,0" /><path style="fill:none;stroke:#4c4c4c;stroke-width:2" d="M998,874 l-998,0" /><path style="fill:none;stroke:#4c4c4c;stroke-width:2" d="M0,894 l998,0" /><path style="fill:none;stroke:#4c4c4c;stroke-width:2" d="M998,915 l-998,0" /><path style="fill:none;stroke:#4c4c4c;stroke-width:2" d="M0,936 l998,0" /></svg>