<!DOCTYPE svg PUBLIC "-//W3C//DTD SVG 20000303 Stylable//EN" "http://www.w3.org/TR/2000/03/WD-SVG-20000303/DTD/svg-20000303-stylable.dtd"[]><svg xmlns="http://www.w3.org/2000/svg" width="255px" height="999px" viewBox="0 0 211 999"><path style="fill:#727f7f;stroke:#4c4c4c;stroke-width:2" d="M146,996 l-27,3 -28,0 -26,-3 -25,-5 -19,-7 -14,-10 -7,-10 0,-10 7,-9 196,0 8,9 0,10 -8,10 -13,10 -20,7 -24,5z" /><path style="fill:#a5b2b2;stroke:#4c4c4c;stroke-width:2" d="M146,985 l-27,3 -28,0 -26,-3 -25,-5 -19,-7 -14,-9 -7,-10 0,-11 7,-9 14,-9 168,0 14,9 8,10 0,10 -8,10 -13,9 -20,7 -24,5z" /><path style="fill:#263333;fill-rule:evenodd" d="M6,947 l198,0 0,3 -198,0 0,-3z M9,957 l191,-19 1,3 -191,18 -1,-2z M18,965 l171,-36 3,3 -171,36 -3,-3z M33,974 l140,-52 4,2 -139,51 -5,-1z M53,980 l99,-64 5,2 -99,63 -5,-1z M76,984 l51,-71 7,1 -51,71 -7,-1z M102,985 l-1,-73 7,0 1,73 -7,0z M128,985 l-52,-71 6,-1 52,71 -6,1z M152,981 l-100,-63 6,-2 100,64 -6,1z M173,975 l-141,-51 5,-2 141,52 -5,1z M190,968 l-173,-36 3,-3 173,36 -3,3z M200,959 l-192,-18 2,-3 192,19 -2,2z " /><path style="fill:#596666" d="M194,599 l-11,-22 0,-355 11,-11 0,-95 -11,-5 -6,-30 -24,-32 -26,-16 -5,-11 0,-5 -6,-6 0,-11 -22,0 0,11 -6,6 0,5 -5,11 -26,16 -24,32 -6,30 -11,5 0,95 11,11 0,355 -11,22 0,349 6,8 29,14 42,7 46,-2 37,-11 12,-8 6,-8 0,-349z" /><path style="fill:#637070" d="M188,599 l-11,-22 0,-355 11,-11 0,-95 -11,-5 -4,-30 -23,-32 -24,-16 -5,-11 0,-6 -5,-5 0,-11 -21,0 0,11 -5,5 0,6 -5,11 -24,16 -23,32 -5,30 -10,5 0,95 10,11 0,355 -10,22 0,355 32,16 39,6 43,-2 34,-10 17,-10 0,-355z" /><path style="fill:#6d7a7a" d="M181,599 l-9,-22 0,-355 9,-11 0,-95 -9,-5 -4,-30 -21,-32 -22,-16 -5,-11 0,-6 -5,-5 0,-11 -19,0 0,11 -5,5 0,6 -4,11 -22,16 -22,32 -4,30 -10,5 0,95 10,11 0,355 -10,22 0,361 5,3 42,11 19,2 40,-2 31,-10 10,-1 5,-3 0,-361z" /><path style="fill:#788585" d="M175,599 l-9,-22 0,-355 9,-11 0,-95 -9,-5 -4,-30 -19,-32 -20,-16 -4,-11 0,-6 -5,-5 0,-11 -17,0 0,11 -5,5 0,6 -4,11 -31,30 -13,37 0,11 -8,5 0,95 8,11 0,355 -8,22 0,364 4,2 10,-1 29,10 17,2 36,-2 29,-10 9,1 5,-2 0,-364z" /><path style="fill:#7f8c8c" d="M169,599 l-8,-22 0,-355 8,-11 0,-95 -8,-5 -4,-30 -18,-32 -18,-16 -4,-11 0,-6 -4,-5 0,-11 -15,0 0,11 -5,5 -3,17 -29,30 -11,37 0,11 -8,5 0,95 8,11 0,355 -8,22 0,366 4,2 9,-3 26,10 16,2 33,-2 26,-10 8,3 5,-2 0,-366z" /><path style="fill:#899696" d="M162,599 l-7,-22 0,-355 7,-11 0,-95 -7,-5 -3,-30 -16,-32 -16,-16 -4,-17 -4,-5 0,-11 -14,0 0,11 -3,5 -4,17 -25,30 -10,37 0,11 -7,5 0,95 7,11 0,355 -7,22 0,369 22,2 27,6 29,-2 13,-4 22,-2 0,-369z" /><path style="fill:#94a1a1" d="M156,599 l-7,-22 0,-355 7,-11 0,-95 -7,-5 -2,-30 -14,-32 -15,-16 -3,-17 -3,-5 0,-11 -13,0 0,11 -3,5 -3,17 -23,30 -9,37 0,11 -6,5 0,95 6,11 0,355 -6,22 0,371 10,2 9,-2 25,6 37,-6 10,2 10,-2 0,-371z" /><path style="fill:#9eabab" d="M149,599 l-5,-22 0,-355 5,-11 0,-95 -5,-5 -3,-30 -12,-32 -15,-27 0,-6 -3,-5 0,-11 -11,0 0,11 -3,5 -3,17 -20,30 -7,37 0,11 -6,5 0,95 6,11 0,355 -6,22 0,373 3,0 6,1 8,-3 22,6 32,-6 9,3 6,-1 2,0 0,-373z" /><path style="fill:#a8b5b5" d="M143,599 l-5,-22 0,-355 5,-11 0,-95 -5,-5 -2,-30 -10,-32 -14,-27 0,-6 -2,-5 0,-11 -9,0 0,11 -3,5 -2,17 -17,30 -7,37 0,11 -4,5 0,95 4,11 0,355 -4,22 0,374 7,1 7,-4 18,6 28,-6 8,4 7,-1 0,-374z" /><path style="fill:#b2bfbf" d="M137,599 l-4,-22 0,-355 4,-11 0,-95 -4,-5 -2,-30 -9,-32 -11,-27 -2,-22 -8,0 0,11 -2,5 -11,33 -8,32 -2,30 -4,5 0,95 4,11 0,355 -4,22 0,374 6,2 6,-5 15,6 24,-6 5,5 7,-2 0,-374z" /><path style="fill:#bac7c7" d="M130,599 l-3,-22 0,-355 3,-11 0,-95 -3,-5 -1,-30 -7,-32 -9,-27 -1,-22 -7,0 -3,33 -11,30 -4,37 0,11 -3,5 0,95 3,11 0,355 -3,22 0,376 15,-1 6,2 13,-2 15,1 0,-376z" /><path style="fill:#c4d1d1" d="M124,599 l-3,-22 0,-355 3,-11 0,-95 -3,-5 -1,-30 -5,-32 -6,-27 -1,-22 -5,0 -2,33 -8,30 -4,37 0,11 -2,5 0,95 2,11 0,355 -2,22 0,376 11,-1 5,2 5,0 4,-2 12,1 0,-376z" /><path style="fill:#cedbdb" d="M117,599 l-1,-22 0,-355 1,-11 0,-95 -2,-35 -3,-32 -4,-33 -1,-16 -3,0 -2,33 -5,30 -2,37 -2,16 0,95 2,11 0,355 -2,22 0,376 3,0 2,0 3,-1 3,2 3,0 3,-2 3,1 2,0 2,0 0,-376z" /><ellipse style="fill:#d8e5e5" cx="105" cy="488" rx="6" ry="488" /><path style="fill:none;stroke:#4c4c4c;stroke-width:2" d="M194,599 l-11,-22 0,-355 11,-11 0,-95 -11,-5 -6,-30 -24,-32 -26,-16 -5,-11 0,-5 -6,-6 0,-11 -22,0 0,11 -6,6 0,5 -5,11 -26,16 -24,32 -6,30 -11,5 0,95 11,11 0,355 -11,22 0,349 6,8 29,14 42,7 46,-2 37,-11 12,-8 6,-8 0,-349" /><path style="fill:none;stroke:#d8e5e5;stroke-width:2" d="M16,599 l178,0" /><path style="fill:none;stroke:#d8e5e5;stroke-width:2" d="M16,116 l178,0" /><path style="fill:none;stroke:#d8e5e5;stroke-width:2" d="M16,211 l178,0" /><path style="fill:none;stroke:#8c9999;stroke-width:2" d="M27,577 l156,0" /><path style="fill:none;stroke:#8c9999;stroke-width:2" d="M27,222 l156,0" /><path style="fill:none;stroke:#8c9999;stroke-width:2" d="M27,111 l156,0" /><path style="fill:none;stroke:#8c9999;stroke-width:2" d="M83,33 l44,0" /><path style="fill:none;stroke:#8c9999;stroke-width:2" d="M88,22 l34,0" /><path style="fill:none;stroke:#8c9999;stroke-width:2" d="M94,11 l23,0" /><ellipse style="fill:#8c9999" cx="55" cy="910" rx="16" ry="22" /><circle style="fill:#a5b2b2" cx="144" cy="910" r="22" /><ellipse style="fill:#3f4c4c" cx="55" cy="910" rx="11" ry="15" /><circle style="fill:#596666" cx="143" cy="910" r="16" /><circle style="fill:#a5b2b2" cx="105" cy="754" r="22" /><path style="fill:none;stroke:#f2ffff;stroke-width:2" d="M88,768 l-4,-5 -1,-5 0,-6 1,-6 4,-5 4,-4 4,-3 6,-2 6,0 6,2 5,3 4,4" /><path style="fill:none;stroke:#8c9999;stroke-width:2" d="M126,746 l1,6 0,6 -1,5 -3,5 -4,4 -5,3 -6,2 -6,0 -6,-2 -4,-3" /><circle style="fill:#a5b2b2" cx="105" cy="821" r="11" /><path style="fill:none;stroke:#f2ffff;stroke-width:2" d="M96,828 l-1,-2 -1,-3 0,-3 1,-3 1,-3 2,-2 3,-1 3,-1 3,0 3,1 2,1 2,2" /><path style="fill:none;stroke:#8c9999;stroke-width:2" d="M116,817 l0,3 0,3 0,3 -2,2 -2,2 -2,2 -3,1 -3,0 -3,-1 -3,-2" /><path style="fill:#8c9999;stroke:#4c4c4c;stroke-width:2" d="M16,422 l11,0 0,88 -11,0 0,-88z" /><circle style="fill:#a5b2b2" cx="155" cy="172" r="11" /><path style="fill:none;stroke:#f2ffff;stroke-width:2" d="M146,179 l-2,-3 0,-3 0,-3 0,-2 2,-3 2,-2 2,-1 4,-1 3,0 2,1 3,1 2,2" /><path style="fill:none;stroke:#8c9999;stroke-width:2" d="M165,168 l1,2 0,3 -1,3 -1,3 -2,2 -3,1 -2,1 -3,0 -3,-1 -3,-1" /><circle style="fill:#596666" cx="83" cy="77" r="22" /><path style="fill:#bfcccc" d="M95,65 l-7,10 11,-2 0,9 -11,-2 7,10 -8,4 -4,-11 -5,11 -7,-4 7,-10 -12,2 0,-9 12,2 -7,-10 7,-4 5,11 4,-11 8,4z" /><circle style="fill:#727f7f" cx="82" cy="77" r="5" /><path style="fill:#8c9999;stroke:#4c4c4c;stroke-width:2" d="M194,622 l11,0 0,44 -11,0 0,-44z" /><path style="fill:#263333" d="M61,799 l11,0 0,11 -11,0 0,-11z" /><path style="fill:#263333" d="M61,833 l11,0 0,11 -11,0 0,-11z" /><path style="fill:#263333" d="M177,805 l6,0 0,11 -6,0 0,-11z" /><path style="fill:#263333" d="M177,788 l6,0 0,11 -6,0 0,-11z" /></svg>