<!DOCTYPE svg PUBLIC "-//W3C//DTD SVG 20000303 Stylable//EN" "http://www.w3.org/TR/2000/03/WD-SVG-20000303/DTD/svg-20000303-stylable.dtd"[]><svg xmlns="http://www.w3.org/2000/svg" width="238px" height="999px" viewBox="0 0 192 999"><path style="fill:#596666" d="M181,612 l-11,-22 0,-363 11,-11 0,-97 -11,-5 -6,-31 -25,-33 -26,-16 -6,-12 0,-5 -5,-6 0,-11 -23,0 0,11 -6,6 0,5 -5,12 -26,16 -26,33 -5,31 -11,5 0,97 11,11 0,363 -11,22 0,357 6,8 29,15 43,7 47,-3 38,-11 12,-8 6,-8 0,-357z" /><path style="fill:#637070" d="M175,612 l-11,-22 0,-364 11,-11 0,-96 -11,-6 -5,-30 -23,-33 -24,-16 -5,-12 0,-5 -6,-6 0,-11 -21,0 0,11 -5,6 0,5 -5,12 -24,16 -24,32 -5,31 -11,6 0,96 11,11 0,364 -11,22 0,363 33,16 40,7 44,-2 35,-11 17,-10 0,-363z" /><path style="fill:#6d7a7a" d="M168,612 l-9,-22 0,-364 9,-11 0,-96 -9,-6 -5,-30 -21,-33 -23,-16 -5,-12 0,-5 -5,-6 0,-11 -19,0 0,11 -5,6 0,5 -5,12 -22,16 -22,32 -5,31 -9,6 0,96 9,11 0,364 -9,22 0,369 5,3 43,12 19,2 40,-2 33,-11 10,-1 5,-3 0,-369z" /><path style="fill:#788585" d="M162,612 l-9,-22 0,-364 9,-11 0,-96 -9,-6 -4,-30 -20,-33 -21,-16 -4,-12 0,-5 -5,-6 0,-11 -17,0 0,11 -5,6 0,5 -4,12 -32,31 -13,38 0,10 -9,6 0,96 9,11 0,364 -9,22 0,373 5,2 10,-2 29,11 18,2 37,-2 30,-11 9,2 5,-2 0,-373z" /><path style="fill:#7f8c8c" d="M155,612 l-8,-22 0,-364 8,-11 0,-96 -8,-6 -4,-30 -17,-33 -19,-16 -4,-12 0,-5 -4,-6 0,-11 -16,0 0,11 -5,6 -3,17 -30,31 -11,38 0,10 -8,6 0,96 8,11 0,364 -8,22 0,375 4,2 9,-4 27,11 16,2 33,-2 27,-11 9,4 4,-2 0,-375z" /><path style="fill:#899696" d="M149,612 l-8,-22 0,-364 8,-11 0,-96 -8,-6 -3,-30 -16,-33 -17,-16 -3,-17 -4,-6 0,-11 -15,0 0,11 -3,6 -4,17 -26,31 -10,38 0,10 -7,6 0,96 7,11 0,364 -7,22 0,377 22,2 28,7 30,-2 13,-5 23,-2 0,-377z" /><path style="fill:#94a1a1" d="M142,612 l-6,-22 0,-364 6,-11 0,-96 -6,-6 -3,-30 -14,-33 -15,-16 -4,-17 -3,-6 0,-11 -13,0 0,11 -3,6 -3,17 -23,31 -9,38 0,10 -7,6 0,96 7,11 0,364 -7,22 0,379 10,3 10,-3 25,7 38,-7 10,3 10,-3 0,-379z" /><path style="fill:#9eabab" d="M136,612 l-6,-22 0,-364 6,-11 0,-96 -6,-6 -3,-30 -12,-33 -16,-28 0,-5 -3,-6 0,-11 -11,0 0,11 -3,6 -3,17 -20,31 -8,38 0,10 -5,6 0,96 5,11 0,364 -5,22 0,381 3,0 6,2 8,-4 22,7 33,-7 9,4 6,-2 3,0 0,-381z" /><path style="fill:#a8b5b5" d="M129,612 l-5,-22 0,-364 5,-11 0,-96 -5,-6 -2,-30 -11,-33 -13,-28 0,-5 -3,-6 0,-11 -9,0 0,11 -3,6 -2,17 -17,31 -7,38 0,10 -5,6 0,96 5,11 0,364 -5,22 0,382 8,2 7,-5 19,7 28,-7 8,5 7,-2 0,-382z" /><path style="fill:#b2bfbf" d="M123,612 l-4,-22 0,-364 4,-11 0,-96 -4,-6 -2,-30 -9,-33 -12,-28 -1,-22 -8,0 0,11 -3,6 -11,33 -8,32 -2,31 -4,6 0,96 4,11 0,364 -4,22 0,383 6,1 6,-5 15,7 24,-7 6,5 7,-1 0,-383z" /><path style="fill:#bac7c7" d="M116,612 l-3,-22 0,-364 3,-11 0,-96 -3,-6 -2,-30 -7,-33 -9,-28 -1,-22 -7,0 -3,34 -11,31 -5,38 0,10 -3,6 0,96 3,11 0,364 -3,22 0,384 16,0 6,2 13,-2 16,0 0,-384z" /><path style="fill:#c4d1d1" d="M110,612 l-3,-22 0,-364 3,-11 0,-96 -3,-6 -1,-30 -5,-33 -7,-28 -1,-22 -5,0 -2,34 -8,31 -4,38 0,10 -2,6 0,96 2,11 0,364 -2,22 0,385 11,-1 5,2 5,0 5,-2 12,1 0,-385z" /><path style="fill:#cedbdb" d="M103,612 l-1,-22 0,-364 1,-11 0,-96 -2,-36 -3,-33 -5,-28 -1,-22 -3,0 -2,34 -5,31 -2,38 -2,16 0,96 2,11 0,364 -2,22 0,385 3,-1 2,1 3,-1 3,2 3,0 3,-2 3,1 2,-1 3,1 0,-385z" /><ellipse style="fill:#d8e5e5" cx="90" cy="499" rx="6" ry="499" /><path style="fill:none;stroke:#4c4c4c;stroke-width:2" d="M181,612 l-11,-22 0,-363 11,-11 0,-97 -11,-5 -6,-31 -25,-33 -26,-16 -6,-12 0,-5 -5,-6 0,-11 -23,0 0,11 -6,6 0,5 -5,12 -26,16 -26,33 -5,31 -11,5 0,97 11,11 0,363 -11,22 0,357 6,8 29,15 43,7 47,-3 38,-11 12,-8 6,-8 0,-357" /><path style="fill:none;stroke:#d8e5e5;stroke-width:2" d="M0,612 l181,0" /><path style="fill:none;stroke:#d8e5e5;stroke-width:2" d="M0,119 l181,0" /><path style="fill:none;stroke:#d8e5e5;stroke-width:2" d="M0,216 l181,0" /><path style="fill:none;stroke:#8c9999;stroke-width:2" d="M11,590 l159,0" /><path style="fill:none;stroke:#8c9999;stroke-width:2" d="M11,227 l159,0" /><path style="fill:none;stroke:#8c9999;stroke-width:2" d="M11,113 l159,0" /><path style="fill:none;stroke:#8c9999;stroke-width:2" d="M68,34 l45,0" /><path style="fill:none;stroke:#8c9999;stroke-width:2" d="M73,22 l35,0" /><path style="fill:none;stroke:#8c9999;stroke-width:2" d="M79,11 l23,0" /><ellipse style="fill:#8c9999" cx="39" cy="930" rx="17" ry="22" /><circle style="fill:#a5b2b2" cx="130" cy="930" r="23" /><ellipse style="fill:#3f4c4c" cx="39" cy="930" rx="11" ry="15" /><circle style="fill:#596666" cx="130" cy="930" r="17" /><circle style="fill:#a5b2b2" cx="90" cy="771" r="22" /><path style="fill:none;stroke:#f2ffff;stroke-width:2" d="M72,785 l-3,-5 -1,-6 0,-6 1,-6 3,-5 4,-4 6,-3 5,-1 7,0 5,1 5,3 4,4" /><path style="fill:none;stroke:#8c9999;stroke-width:2" d="M112,762 l1,6 0,6 -1,6 -4,5 -4,4 -5,4 -5,1 -7,0 -5,-1 -6,-4" /><circle style="fill:#a5b2b2" cx="90" cy="839" r="11" /><path style="fill:none;stroke:#f2ffff;stroke-width:2" d="M82,847 l-2,-3 -1,-3 0,-3 1,-3 2,-2 1,-3 3,-1 3,-1 3,0 3,1 3,1 2,3" /><path style="fill:none;stroke:#8c9999;stroke-width:2" d="M101,835 l1,3 0,3 -1,3 -1,3 -2,2 -3,1 -3,1 -3,0 -3,-1 -3,-1" /><path style="fill:#8c9999;stroke:#4c4c4c;stroke-width:2" d="M0,431 l11,0 0,91 -11,0 0,-91z" /><circle style="fill:#a5b2b2" cx="141" cy="175" r="11" /><path style="fill:none;stroke:#f2ffff;stroke-width:2" d="M132,183 l-1,-3 -1,-3 0,-3 1,-3 1,-2 2,-2 3,-2 3,-1 3,0 3,1 2,2 3,2" /><path style="fill:none;stroke:#8c9999;stroke-width:2" d="M152,171 l1,3 0,3 -1,3 -1,3 -3,2 -2,2 -3,0 -3,0 -3,0 -3,-2" /><circle style="fill:#596666" cx="67" cy="79" r="22" /><path style="fill:#bfcccc" d="M80,67 l-8,9 12,-1 0,9 -12,-2 8,10 -8,4 -4,-11 -5,11 -8,-4 8,-10 -12,2 0,-9 12,1 -8,-9 8,-5 5,12 4,-12 8,5z" /><circle style="fill:#727f7f" cx="67" cy="79" r="5" /><path style="fill:#8c9999;stroke:#4c4c4c;stroke-width:2" d="M181,635 l11,0 0,46 -11,0 0,-46z" /><path style="fill:#263333" d="M45,817 l11,0 0,11 -11,0 0,-11z" /><path style="fill:#263333" d="M45,851 l11,0 0,11 -11,0 0,-11z" /><path style="fill:#263333" d="M164,823 l6,0 0,11 -6,0 0,-11z" /><path style="fill:#263333" d="M164,806 l6,0 0,11 -6,0 0,-11z" /></svg>