<!DOCTYPE svg PUBLIC "-//W3C//DTD SVG 20000303 Stylable//EN" "http://www.w3.org/TR/2000/03/WD-SVG-20000303/DTD/svg-20000303-stylable.dtd"[]><svg xmlns="http://www.w3.org/2000/svg" width="346px" height="998px" viewBox="0 0 308 999"><path style="fill:#3f4c4c;stroke:#4c4c4c;stroke-width:2" d="M140,60 l0,-52 -13,0 0,-8 39,0 0,8 -12,0 0,52 -14,0z" /><path style="fill:#596666" d="M193,990 l-31,9 -32,0 -31,-9 -27,-15 -23,-23 -16,-27 -8,-31 0,-703 8,-71 16,-39 22,-27 28,-16 31,-8 32,0 31,8 27,16 23,27 16,39 8,71 0,703 -8,31 -16,27 -23,23 -27,15z" /><path style="fill:#637070" d="M189,990 l-28,8 -29,0 -29,-8 -25,-16 -21,-22 -15,-28 -8,-31 0,-702 8,-71 15,-39 20,-27 26,-17 29,-8 29,0 28,8 26,17 21,27 14,39 8,71 0,702 -7,31 -15,28 -21,22 -26,16z" /><path style="fill:#6d7a7a" d="M186,990 l-26,8 -27,0 -27,-8 -23,-16 -19,-22 -14,-28 -7,-31 0,-702 7,-71 14,-39 19,-27 23,-17 27,-8 27,0 26,8 23,17 20,27 13,39 7,71 0,702 -6,31 -14,28 -20,22 -23,16z" /><path style="fill:#788585" d="M183,990 l-24,8 -25,0 -24,-8 -21,-16 -18,-22 -12,-28 -7,-31 0,-702 7,-71 12,-39 17,-27 22,-17 24,-8 25,0 24,8 21,17 18,27 12,39 6,71 0,702 -6,31 -12,28 -18,22 -21,16z" /><path style="fill:#7f8c8c" d="M179,990 l-22,8 -22,0 -21,-8 -20,-16 -16,-22 -11,-28 -6,-31 0,-702 6,-71 11,-39 15,-27 21,-17 21,-8 22,0 22,8 20,17 16,27 11,39 6,71 0,702 -6,31 -11,28 -16,22 -20,16z" /><path style="fill:#899696" d="M176,990 l-20,8 -20,0 -19,-8 -17,-16 -15,-22 -10,-28 -5,-31 0,-702 5,-71 10,-39 14,-27 18,-17 19,-8 20,0 20,8 17,17 15,27 10,39 5,71 0,702 -5,31 -10,28 -15,22 -17,16z" /><path style="fill:#94a1a1" d="M172,990 l-17,8 -17,0 -18,-8 -15,-16 -13,-22 -9,-28 -4,-31 0,-702 4,-71 9,-39 12,-27 16,-16 18,-9 17,0 17,9 16,16 13,27 8,39 5,71 0,702 -5,31 -8,28 -13,22 -16,16z" /><path style="fill:#9eabab" d="M169,990 l-15,8 -15,0 -15,-8 -13,-16 -12,-22 -7,-28 -4,-31 0,-702 4,-71 7,-39 11,-27 14,-16 15,-9 15,0 15,9 13,16 11,27 8,39 4,71 0,702 -4,31 -8,28 -11,22 -13,16z" /><path style="fill:#a8b5b5" d="M166,990 l-13,8 -13,0 -13,-8 -11,-16 -9,-23 -7,-27 -4,-31 0,-702 4,-71 7,-39 9,-28 11,-15 13,-9 13,0 13,9 11,15 9,28 7,39 3,71 0,702 -3,31 -7,27 -9,23 -11,16z" /><path style="fill:#b2bfbf" d="M162,990 l-10,8 -11,0 -10,-8 -9,-16 -8,-23 -6,-27 -3,-31 0,-702 3,-71 6,-39 7,-28 10,-15 10,-9 11,0 10,9 9,15 8,28 5,39 3,71 0,702 -2,31 -6,27 -8,23 -9,16z" /><ellipse style="fill:#bac7c7" cx="146" cy="513" rx="32" ry="484" /><ellipse style="fill:#c4d1d1" cx="146" cy="513" rx="22" ry="484" /><ellipse style="fill:#cedbdb" cx="146" cy="513" rx="14" ry="484" /><ellipse style="fill:#d8e5e5" cx="146" cy="514" rx="5" ry="484" /><path style="fill:#bfcccc" d="M0,620 l25,0 0,15 -25,0 0,-15z" /><path style="fill:#8c9999" d="M0,600 l25,0 0,20 -25,0 0,-20z" /><path style="fill:none;stroke:#4c4c4c;stroke-width:2" d="M0,600 l25,0 0,35 -25,0 0,-35" /><path style="fill:#bfcccc" d="M267,620 l25,0 0,15 -25,0 0,-15z" /><path style="fill:#8c9999" d="M267,600 l25,0 0,20 -25,0 0,-20z" /><path style="fill:none;stroke:#4c4c4c;stroke-width:2" d="M267,600 l25,0 0,35 -25,0 0,-35" /><path style="fill:#727f7f" d="M217,635 l-10,-15 0,-20 -10,0 0,20 -10,15 30,0z" /><path style="fill:#bfcccc" d="M187,635 l10,-15 -15,0 -10,15 15,0z" /><path style="fill:#a5b2b2" d="M197,600 l-15,0 0,20 15,0 0,-20z" /><path style="fill:none;stroke:#3f4c4c;stroke-width:2" d="M217,635 l-10,-15 0,-20 -25,0 0,20 -10,15 45,0" /><path style="fill:#727f7f" d="M75,635 l10,-15 0,-20 11,0 0,20 10,15 -31,0z" /><path style="fill:#a5b2b2" d="M105,635 l-10,-15 16,0 10,15 -16,0z" /><path style="fill:#8c9999" d="M95,600 l16,0 0,20 -16,0 0,-20z" /><path style="fill:none;stroke:#3f4c4c;stroke-width:2" d="M75,635 l10,-15 0,-20 26,0 0,20 10,15 -46,0" /><path style="fill:none;stroke:#bfcccc;stroke-width:2" d="M25,887 l242,0" /><path style="fill:none;stroke:#bfcccc;stroke-width:2" d="M30,897 l232,0" /><path style="fill:none;stroke:#bfcccc;stroke-width:2" d="M262,161 l-232,0" /><path style="fill:none;stroke:#bfcccc;stroke-width:2" d="M262,151 l-232,0" /><path style="fill:none;stroke:#4c4c4c;stroke-width:2" d="M193,990 l-31,9 -32,0 -30,-9 -28,-16 -23,-22 -16,-28 -8,-31 0,-702 8,-71 16,-39 23,-27 27,-16 31,-8 32,0 31,8 27,16 23,27 16,39 8,71 0,702 -8,31 -16,28 -23,22 -27,16" /><path style="fill:#596666" d="M267,791 l20,0 0,7 14,0 0,14 6,0 0,40 -6,0 0,13 -14,0 0,7 -20,0 0,-81z" /><path style="fill:#6d7a7a" d="M267,798 l20,0 0,5 14,0 0,11 7,0 0,35 -7,0 0,11 -14,0 0,6 -20,0 0,-68z" /><path style="fill:#849191" d="M267,803 l20,0 0,5 14,0 0,10 7,0 0,27 -7,0 0,10 -14,0 0,5 -20,0 0,-57z" /><path style="fill:#99a6a6" d="M267,810 l20,0 0,3 14,0 0,8 7,0 0,21 -7,0 0,8 -14,0 0,3 -20,0 0,-43z" /><path style="fill:#adbaba" d="M267,816 l20,0 0,2 14,0 0,6 7,0 0,16 -7,0 0,5 -14,0 0,2 -20,0 0,-31z" /><path style="fill:#c4d1d1" d="M267,822 l20,0 0,1 14,0 0,4 7,0 0,9 -7,0 0,4 -14,0 0,1 -20,0 0,-19z" /><ellipse style="fill:#d8e5e5" cx="287" cy="831" rx="20" ry="3" /><path style="fill:none;stroke:#596666;stroke-width:2" d="M287,865 l0,-67" /><path style="fill:none;stroke:#596666;stroke-width:2" d="M301,852 l0,-40" /><path style="fill:none;stroke:#4c4c4c;stroke-width:2" d="M267,791 l20,0 0,7 14,0 0,14 6,0 0,40 -6,0 0,13 -14,0 0,7 -20,0 0,-81" /><ellipse style="fill:#596666;stroke:#4c4c4c;stroke-width:2" cx="42" cy="797" rx="12" ry="41" /><path style="fill:none;stroke:#596666;stroke-width:2" d="M24,767 l0,61" /><path style="fill:none;stroke:#596666;stroke-width:2" d="M11,779 l0,37" /><path style="fill:#596666" d="M45,832 l-2,2 -20,0 0,-7 -11,0 0,-11 -7,0 0,-37 7,0 0,-11 11,0 0,-7 20,0 2,2 2,5 2,7 1,8 1,10 0,9 -1,9 -1,9 -2,7 -2,5z" /><path style="fill:#6d7a7a" d="M46,826 l-2,2 -20,0 0,-6 -12,0 0,-9 -7,0 0,-31 7,0 0,-10 12,0 0,-6 20,0 2,3 2,3 1,7 2,6 0,8 0,8 0,8 -2,7 -1,6 -2,4z" /><path style="fill:#849191" d="M47,821 l-1,1 -21,0 0,-4 -12,0 0,-8 -8,0 0,-25 8,0 0,-8 12,0 0,-5 21,0 1,2 2,3 1,5 1,6 0,6 0,7 0,6 -1,6 -1,5 -2,3z" /><path style="fill:#99a6a6" d="M48,815 l-1,2 -21,0 0,-4 -13,0 0,-6 -8,0 0,-19 8,0 0,-7 13,0 0,-3 21,0 1,1 1,3 1,3 1,5 0,5 0,5 0,5 -1,4 -1,4 -1,2z" /><path style="fill:#adbaba" d="M49,810 l-1,1 -21,0 0,-2 -13,0 0,-5 -9,0 0,-14 9,0 0,-4 13,0 0,-3 21,0 1,1 1,2 1,3 0,3 0,4 0,3 0,3 0,4 -1,2 -1,2z" /><ellipse style="fill:#c4d1d1" cx="28" cy="797" rx="23" ry="8" /><ellipse style="fill:#d8e5e5" cx="28" cy="797" rx="23" ry="2" /><path style="fill:none;stroke:#4c4c4c;stroke-width:2" d="M45,832 l-2,2 -20,0 0,-7 -11,0 0,-11 -7,0 0,-37 7,0 0,-11 11,0 0,-7 20,0 2,2 2,5 2,7 1,8 1,10 0,9 -1,9 -1,9 -2,7 -2,5" /><path style="fill:none;stroke:#727f7f;stroke-width:2" d="M12,779 l1,1 0,3 1,3 0,4 0,5 0,5 0,4 0,5 -1,3 0,2 -1,2" /><path style="fill:none;stroke:#727f7f;stroke-width:2" d="M23,768 l2,2 1,4 1,5 1,7 0,7 0,8 0,8 -1,7 -1,5 -1,4 -2,2" /><path style="fill:#727f7f" d="M93,60 l0,-52 -12,0 0,-8 39,0 0,8 -13,0 0,52 -14,0z" /><path style="fill:#bfcccc" d="M98,60 l0,-60 22,0 0,8 -18,0 0,52 -4,0z" /><path style="fill:none;stroke:#4c4c4c;stroke-width:2" d="M93,60 l0,-52 -12,0 0,-8 39,0 0,8 -13,0 0,52 -14,0" /><path style="fill:#727f7f" d="M186,60 l0,-52 -13,0 0,-8 39,0 0,8 -13,0 0,52 -13,0z" /><path style="fill:#bfcccc" d="M190,60 l0,-60 22,0 0,8 -18,0 0,52 -4,0z" /><path style="fill:none;stroke:#4c4c4c;stroke-width:2" d="M186,60 l0,-52 -13,0 0,-8 39,0 0,8 -13,0 0,52 -13,0" /><ellipse style="fill:#8c9999" cx="70" cy="123" rx="15" ry="18" /><ellipse style="fill:#8c9999" cx="206" cy="93" rx="15" ry="18" /></svg>