<!DOCTYPE svg PUBLIC "-//W3C//DTD SVG 20000303 Stylable//EN" "http://www.w3.org/TR/2000/03/WD-SVG-20000303/DTD/svg-20000303-stylable.dtd"[]><svg xmlns="http://www.w3.org/2000/svg" width="547px" height="999px" viewBox="0 0 520 999"><path style="fill:#727f7f" d="M458,478 l-396,0 -21,11 -31,-1 -10,11 0,52 10,10 31,1 21,10 364,0 32,0 20,-11 32,0 10,-10 0,-52 -10,-10 -32,0 -20,-11z" /><path style="fill:#7d8a8a" d="M458,482 l-396,1 -20,9 -32,0 -10,9 0,47 10,9 32,1 20,9 365,0 31,0 21,-10 31,0 10,-9 0,-47 -10,-9 -31,0 -21,-10z" /><path style="fill:#899696" d="M458,487 l-396,0 -20,9 -32,-1 -10,9 0,42 10,8 32,0 20,8 365,0 31,0 21,-8 31,0 10,-8 0,-42 -10,-8 -31,0 -21,-9z" /><path style="fill:#94a1a1" d="M458,492 l-396,0 -20,7 -32,0 -10,7 0,37 10,7 32,0 20,8 365,0 31,0 21,-8 31,0 10,-7 0,-37 -10,-7 -31,0 -21,-7z" /><path style="fill:#a0adad" d="M458,496 l-396,0 -20,7 -32,0 -10,6 0,31 10,7 32,0 20,6 365,0 31,0 21,-6 31,0 10,-7 0,-31 -10,-6 -31,0 -21,-7z" /><path style="fill:#abb8b8" d="M458,501 l-396,0 -20,5 -32,0 -10,5 0,27 10,5 32,0 20,6 365,0 31,0 21,-6 31,0 10,-5 0,-27 -10,-5 -31,0 -21,-5z" /><path style="fill:#b7c4c4" d="M458,505 l-396,1 -20,4 -32,0 -10,4 0,21 10,4 32,1 20,4 365,0 31,0 21,-5 31,0 10,-4 0,-21 -10,-4 -31,0 -21,-5z" /><path style="fill:#c2cfcf" d="M458,510 l-396,0 -20,4 -32,-1 -10,4 0,16 10,3 32,0 20,3 365,0 31,0 21,-3 31,0 10,-3 0,-16 -10,-3 -31,0 -21,-4z" /><ellipse style="fill:#cedbdb" cx="260" cy="525" rx="260" ry="10" /><ellipse style="fill:#d8e5e5" cx="260" cy="525" rx="260" ry="5" /><path style="fill:none;stroke:#727f7f;stroke-width:2" d="M478,561 l0,-72" /><path style="fill:none;stroke:#727f7f;stroke-width:2" d="M458,572 l0,-94" /><path style="fill:none;stroke:#727f7f;stroke-width:2" d="M41,561 l0,-72" /><path style="fill:none;stroke:#727f7f;stroke-width:2" d="M62,572 l0,-94" /><path style="fill:none;stroke:#727f7f;stroke-width:2" d="M510,561 l0,-72" /><path style="fill:none;stroke:#4c4c4c;stroke-width:2" d="M458,478 l-396,0 -21,11 -31,-1 -10,11 0,52 10,10 31,1 21,10 364,0 32,0 20,-11 32,0 10,-10 0,-52 -10,-10 -32,0 -20,-11" /><path style="fill:#334040;stroke:#4c4c4c;stroke-width:2" d="M114,338 l292,0 0,36 -292,0 0,-36z" /><path style="fill:#596666" d="M203,208 l0,-188 114,0 0,188 -114,0z" /><path style="fill:#263333;stroke:#4c4c4c;stroke-width:2" d="M203,208 l0,-63 114,0 0,63 -114,0z" /><path style="fill:#596666;stroke:#4c4c4c;stroke-width:2" d="M324,0 l14,0 0,213 -14,0 0,-213z" /><path style="fill:#596666;stroke:#4c4c4c;stroke-width:2" d="M300,0 l14,0 0,213 -14,0 0,-213z" /><path style="fill:#596666;stroke:#4c4c4c;stroke-width:2" d="M277,0 l14,0 0,213 -14,0 0,-213z" /><path style="fill:#596666;stroke:#4c4c4c;stroke-width:2" d="M253,0 l14,0 0,213 -14,0 0,-213z" /><path style="fill:#596666;stroke:#4c4c4c;stroke-width:2" d="M229,0 l14,0 0,213 -14,0 0,-213z" /><path style="fill:#596666;stroke:#4c4c4c;stroke-width:2" d="M206,0 l14,0 0,213 -14,0 0,-213z" /><path style="fill:#596666;stroke:#4c4c4c;stroke-width:2" d="M182,0 l14,0 0,213 -14,0 0,-213z" /><path style="fill:#ccd9d9" d="M186,5 l7,0 0,15 -7,0 0,-15z" /><path style="fill:#ccd9d9" d="M327,5 l7,0 0,15 -7,0 0,-15z" /><path style="fill:#ccd9d9" d="M209,5 l7,0 0,15 -7,0 0,-15z" /><path style="fill:#ccd9d9" d="M233,5 l7,0 0,15 -7,0 0,-15z" /><path style="fill:#ccd9d9" d="M257,5 l6,0 0,15 -6,0 0,-15z" /><path style="fill:#ccd9d9" d="M280,5 l7,0 0,15 -7,0 0,-15z" /><path style="fill:#ccd9d9" d="M304,5 l7,0 0,15 -7,0 0,-15z" /><path style="fill:#ccd9d9" d="M327,31 l7,0 0,181 -7,0 0,-181z" /><path style="fill:#ccd9d9" d="M304,31 l7,0 0,181 -7,0 0,-181z" /><path style="fill:#ccd9d9" d="M280,31 l7,0 0,181 -7,0 0,-181z" /><path style="fill:#ccd9d9" d="M257,31 l6,0 0,181 -6,0 0,-181z" /><path style="fill:#ccd9d9" d="M233,31 l7,0 0,181 -7,0 0,-181z" /><path style="fill:#ccd9d9" d="M209,31 l7,0 0,181 -7,0 0,-181z" /><path style="fill:#ccd9d9" d="M186,31 l7,0 0,181 -7,0 0,-181z" /><path style="fill:none;stroke:#fff;stroke-width:2" d="M331,5 l0,206" /><path style="fill:none;stroke:#fff;stroke-width:2" d="M307,5 l0,206" /><path style="fill:none;stroke:#fff;stroke-width:2" d="M283,5 l0,206" /><path style="fill:none;stroke:#fff;stroke-width:2" d="M260,5 l0,206" /><path style="fill:none;stroke:#fff;stroke-width:2" d="M236,5 l0,206" /><path style="fill:none;stroke:#fff;stroke-width:2" d="M213,5 l0,206" /><path style="fill:none;stroke:#fff;stroke-width:2" d="M189,5 l0,206" /><path style="fill:#8c9999" d="M406,374 l20,0 0,480 -11,42 -22,38 -31,31 -38,22 -42,12 -44,0 -42,-12 -38,-22 -31,-31 -22,-38 -12,-42 0,-480 21,0 11,-21 25,-26 26,-15 1,-104 166,0 0,104 26,15 26,26 11,21z" /><path style="fill:#919e9e" d="M396,374 l19,0 0,480 -10,42 -21,38 -29,31 -35,22 -39,11 -41,0 -40,-11 -35,-22 -29,-31 -20,-38 -11,-42 0,-480 20,0 9,-21 24,-26 24,-16 1,-104 155,0 0,104 24,16 24,26 10,21z" /><path style="fill:#96a3a3" d="M386,374 l17,0 0,480 -9,42 -19,38 -27,31 -32,22 -37,11 -38,0 -36,-11 -32,-22 -27,-31 -19,-38 -10,-42 0,-480 18,0 9,-21 22,-26 22,-16 1,-104 143,0 0,104 22,16 22,26 10,21z" /><path style="fill:#9ba8a8" d="M375,374 l17,0 0,480 -9,42 -18,38 -24,31 -30,22 -33,11 -35,0 -34,-11 -29,-22 -25,-31 -18,-38 -9,-42 0,-480 17,0 8,-21 21,-26 20,-16 132,0 20,16 21,26 8,21z" /><path style="fill:#a0adad" d="M365,374 l15,0 0,480 -8,42 -16,38 -22,31 -27,22 -31,11 -32,0 -30,-11 -27,-22 -23,-31 -16,-38 -8,-42 0,-480 15,0 8,-21 18,-26 19,-16 120,0 19,16 19,26 7,21z" /><path style="fill:#a5b2b2" d="M355,374 l14,0 0,480 -8,42 -14,38 -20,31 -25,22 -27,11 -29,0 -28,-11 -24,-22 -21,-31 -14,-38 -7,-42 0,-480 13,0 7,-21 17,-26 17,-16 109,0 17,16 16,26 7,21z" /><path style="fill:#abb8b8" d="M345,374 l12,0 0,480 -7,42 -12,38 -18,31 -22,22 -25,11 -25,0 -25,-11 -22,-22 -18,-31 -13,-38 -7,-42 0,-480 13,0 6,-21 14,-26 16,-16 97,0 15,16 15,26 6,21z" /><path style="fill:#adbaba" d="M335,374 l10,0 0,480 -5,42 -11,38 -16,31 -20,22 -21,11 -23,0 -22,-11 -19,-22 -16,-31 -11,-38 -6,-42 0,-480 11,0 5,-21 13,-26 13,-16 86,0 13,16 14,26 5,21z" /><path style="fill:#b2bfbf" d="M325,374 l9,0 0,480 -5,42 -10,38 -13,31 -17,22 -19,11 -19,0 -19,-11 -17,-22 -14,-31 -9,-38 -5,-42 0,-480 9,0 4,-21 12,-26 11,-16 74,0 12,16 11,26 5,21z" /><path style="fill:#b7c4c4" d="M315,374 l7,0 0,480 -4,42 -8,38 -12,31 -14,22 -16,11 -16,0 -16,-11 -14,-22 -11,-31 -9,-38 -4,-42 0,-480 8,0 4,-21 9,-26 10,-16 62,0 10,16 10,26 4,21z" /><path style="fill:#bcc9c9" d="M305,374 l6,0 0,480 -4,42 -6,38 -10,31 -11,22 -13,11 -13,0 -13,-11 -12,-22 -9,-31 -7,-38 -3,-42 0,-480 6,0 3,-21 8,-26 8,-16 50,0 8,16 8,26 4,21z" /><path style="fill:#c2cfcf" d="M294,374 l5,0 0,480 -2,42 -5,38 -8,31 -9,22 -10,11 -10,0 -10,-11 -9,-22 -7,-31 -5,-38 -3,-42 0,-480 5,0 3,-21 6,-26 6,-16 39,0 6,16 6,26 2,21z" /><path style="fill:#c7d4d4" d="M284,374 l4,0 0,480 -2,42 -4,38 -5,31 -6,22 -7,11 -7,0 -7,-11 -6,-22 -6,-31 -3,-38 -2,-42 0,-480 3,0 2,-21 4,-26 4,-16 28,0 4,16 4,26 2,21z" /><path style="fill:#ccd9d9" d="M274,374 l2,0 0,480 -1,42 -2,38 -3,31 -4,22 -4,12 -4,0 -4,-12 -4,-22 -3,-31 -2,-38 -1,-42 0,-480 2,0 1,-21 3,-26 2,-15 16,0 2,15 3,26 1,21z" /><path style="fill:none;stroke:#4c4c4c;stroke-width:2" d="M406,374 l20,0 0,480 -11,42 -22,38 -31,31 -38,22 -42,12 -44,0 -42,-12 -38,-22 -31,-31 -22,-38 -12,-42 0,-480 21,0 11,-21 25,-26 26,-15 1,-104 166,0 0,104 26,15 26,26 11,21" /><path style="fill:none;stroke:#e5f2f2;stroke-width:2" d="M99,858 l322,0" /><path style="fill:none;stroke:#e5f2f2;stroke-width:2" d="M99,583 l322,0" /><path style="fill:none;stroke:#e5f2f2;stroke-width:2" d="M99,458 l322,0" /><path style="fill:none;stroke:#8c9999;stroke-width:2" d="M104,474 l312,0" /><path style="fill:none;stroke:#8c9999;stroke-width:2" d="M104,599 l312,0" /><path style="fill:none;stroke:#8c9999;stroke-width:2" d="M104,874 l312,0" /><path style="fill:none;stroke:#4c4c4c;stroke-width:2" d="M119,374 l281,0" /><path style="fill:#8c9999;stroke:#4c4c4c;stroke-width:2" d="M130,374 l0,-21 -5,0 0,-20 -21,0 0,20 15,21 11,0z" /><path style="fill:#8c9999;stroke:#4c4c4c;stroke-width:2" d="M171,374 l0,-21 -5,0 0,-20 -21,0 0,20 16,21 10,0z" /><path style="fill:#8c9999;stroke:#4c4c4c;stroke-width:2" d="M213,374 l0,-21 -5,0 0,-20 -21,0 0,20 16,21 10,0z" /><path style="fill:#8c9999;stroke:#4c4c4c;stroke-width:2" d="M255,374 l0,-21 -5,0 0,-20 -21,0 0,20 15,21 11,0z" /><path style="fill:#8c9999;stroke:#4c4c4c;stroke-width:2" d="M296,374 l0,-21 -5,0 0,-20 -21,0 0,20 16,21 10,0z" /><path style="fill:#8c9999;stroke:#4c4c4c;stroke-width:2" d="M338,374 l0,-21 -5,0 0,-20 -21,0 0,20 16,21 10,0z" /><path style="fill:#8c9999;stroke:#4c4c4c;stroke-width:2" d="M379,374 l0,-21 -5,0 0,-20 -21,0 0,20 16,21 10,0z" /><path style="fill:#8c9999;stroke:#4c4c4c;stroke-width:2" d="M421,374 l0,-21 -5,0 0,-20 -21,0 0,20 16,21 10,0z" /><path style="fill:#ccd9d9;stroke:#4c4c4c;stroke-width:2" d="M390,353 l21,0 0,21 -21,0 0,-21z" /><path style="fill:#ccd9d9;stroke:#4c4c4c;stroke-width:2" d="M348,353 l21,0 0,21 -21,0 0,-21z" /><path style="fill:#ccd9d9;stroke:#4c4c4c;stroke-width:2" d="M307,353 l21,0 0,21 -21,0 0,-21z" /><path style="fill:#ccd9d9;stroke:#4c4c4c;stroke-width:2" d="M265,353 l21,0 0,21 -21,0 0,-21z" /><path style="fill:#ccd9d9;stroke:#4c4c4c;stroke-width:2" d="M224,353 l21,0 0,21 -21,0 0,-21z" /><path style="fill:#ccd9d9;stroke:#4c4c4c;stroke-width:2" d="M182,353 l21,0 0,21 -21,0 0,-21z" /><path style="fill:#ccd9d9;stroke:#4c4c4c;stroke-width:2" d="M140,353 l21,0 0,21 -21,0 0,-21z" /><path style="fill:#ccd9d9;stroke:#4c4c4c;stroke-width:2" d="M99,353 l21,0 0,21 -21,0 0,-21z" /><path style="fill:none;stroke:#727f7f;stroke-width:2" d="M10,561 l0,-72" /><path style="fill:#727f7f;stroke:#4c4c4c;stroke-width:2" d="M350,479 l12,2 32,19 13,20 27,16 4,14 -26,45 -14,3 -27,-15 -24,-1 -32,-19 -9,-9 -6,-11 -3,-11 0,-13 3,-12 6,-11 9,-8 11,-6 12,-4 12,1z" /><path style="fill:#727f7f;stroke:#4c4c4c;stroke-width:2" d="M193,554 l-8,9 -33,19 -23,1 -27,15 -14,-3 -26,-46 3,-14 28,-15 12,-20 33,-19 11,-3 13,0 12,3 11,7 8,8 7,11 3,12 0,12 -4,12 -6,11z" /><path style="fill:#7d8a8a" d="M341,479 l6,0 45,26 12,18 28,16 4,13 -23,40 -14,3 -27,-15 -23,-2 -44,-26 -3,-5 -2,-8 -3,-10 0,-11 3,-11 6,-10 8,-8 9,-6 11,-2 7,-2z" /><path style="fill:#7d8a8a" d="M198,546 l-3,5 -45,26 -23,2 -27,16 -14,-3 -23,-41 4,-13 27,-16 14,-18 44,-26 6,0 8,2 10,3 10,6 8,7 5,10 3,11 0,11 -3,11 -1,7z" /><path style="fill:#899696" d="M333,479 l5,0 51,30 14,17 27,16 5,12 -21,36 -13,2 -27,-15 -22,-3 -51,-30 -2,-4 -2,-6 1,-8 0,-10 2,-10 5,-8 7,-7 8,-6 7,-4 6,-2z" /><path style="fill:#899696" d="M200,539 l-1,4 -51,30 -23,3 -27,16 -13,-2 -21,-37 5,-12 27,-15 14,-18 51,-30 4,1 7,2 7,4 8,5 7,7 5,9 2,9 1,10 0,8 -2,6z" /><path style="fill:#94a1a1" d="M328,481 l4,0 55,32 14,16 27,16 5,11 -18,32 -13,2 -27,-16 -22,-4 -54,-32 -2,-3 0,-6 0,-7 1,-8 3,-8 4,-8 7,-6 5,-5 7,-4 4,-2z" /><path style="fill:#94a1a1" d="M202,534 l-1,3 -56,32 -21,4 -28,16 -12,-2 -18,-31 5,-12 27,-16 14,-16 56,-32 3,0 5,2 6,4 6,5 6,6 5,8 2,8 1,8 0,8 0,5z" /><path style="fill:#a0adad" d="M324,483 l2,-1 59,34 14,16 27,16 6,11 -16,27 -12,0 -27,-15 -21,-6 -59,-34 0,-2 0,-4 0,-6 2,-7 2,-7 4,-7 5,-5 5,-5 5,-3 4,-2z" /><path style="fill:#a0adad" d="M202,529 l0,2 -59,34 -21,5 -27,15 -12,0 -16,-27 6,-11 27,-15 15,-16 59,-34 2,1 4,2 4,3 5,5 6,5 4,7 1,7 2,7 0,5 0,5z" /><path style="fill:#abb8b8" d="M320,485 l1,0 61,35 15,16 28,15 6,10 -13,23 -12,-1 -27,-16 -20,-6 -61,-35 -1,-2 0,-3 2,-4 0,-7 2,-5 4,-6 4,-4 5,-4 2,-3 4,-3z" /><path style="fill:#abb8b8" d="M202,524 l0,2 -61,35 -21,6 -27,15 -12,1 -13,-23 6,-9 28,-16 15,-15 61,-35 2,0 3,2 3,4 5,3 4,5 3,5 2,6 0,6 2,4 0,4z" /><path style="fill:#b7c4c4" d="M316,489 l0,-1 64,36 15,15 28,15 7,9 -11,19 -11,-2 -27,-16 -20,-6 -64,-37 1,-1 0,-3 1,-3 1,-5 1,-5 3,-5 3,-3 4,-3 3,-2 2,-2z" /><path style="fill:#b7c4c4" d="M201,519 l1,1 -64,37 -20,6 -27,16 -11,2 -11,-19 7,-8 27,-16 16,-14 64,-37 0,1 3,2 2,2 4,3 3,4 3,5 1,4 1,5 1,3 0,3z" /><path style="fill:#c2cfcf" d="M312,492 l1,-1 65,37 16,14 27,15 7,8 -8,14 -10,-2 -27,-16 -20,-7 -65,-38 1,-1 1,-1 0,-3 0,-4 1,-3 3,-3 2,-4 3,-2 2,-1 1,-2z" /><path style="fill:#c2cfcf" d="M200,515 l1,1 -65,37 -20,8 -27,15 -10,2 -8,-13 7,-8 27,-16 16,-13 65,-38 1,1 1,2 2,1 3,3 3,2 2,4 1,3 0,4 0,3 1,2z" /><path style="fill:#cedbdb" d="M310,496 l0,-2 65,38 17,13 28,15 7,7 -6,10 -10,-3 -27,-16 -19,-8 -65,-38 1,0 -1,-2 1,-2 0,-3 1,-2 2,-2 1,-2 2,-2 1,-1 2,0z" /><path style="fill:#cedbdb" d="M198,511 l2,0 -66,38 -19,8 -28,16 -9,3 -6,-9 8,-7 27,-16 17,-12 66,-38 -1,1 2,0 2,2 1,1 2,2 1,2 1,3 1,2 0,2 -1,2z" /><path style="fill:#d8e5e5" d="M199,506 l0,0 -68,39 -18,10 -27,15 -10,5 -3,-6 9,-6 27,-15 17,-12 67,-39 1,0 1,1 0,1 0,1 1,1 1,1 0,1 1,2 1,0 0,1z" /><path style="fill:#d8e5e5" d="M305,497 l1,0 67,39 18,12 27,16 8,6 -3,5 -9,-4 -27,-16 -19,-9 -67,-40 0,0 0,0 1,-1 0,-1 1,-2 1,-1 0,-1 1,-1 0,-1 0,-1z" /><path style="fill:none;stroke:#727f7f;stroke-width:2" d="M434,535 l-37,63" /><path style="fill:none;stroke:#727f7f;stroke-width:2" d="M394,500 l-47,82" /><path style="fill:none;stroke:#727f7f;stroke-width:2" d="M407,520 l-36,63" /><path style="fill:none;stroke:#727f7f;stroke-width:2" d="M102,598 l-36,-63" /><path style="fill:none;stroke:#727f7f;stroke-width:2" d="M152,582 l-47,-82" /><path style="fill:none;stroke:#727f7f;stroke-width:2" d="M129,582 l-37,-62" /></svg>