<!DOCTYPE svg PUBLIC "-//W3C//DTD SVG 20000303 Stylable//EN" "http://www.w3.org/TR/2000/03/WD-SVG-20000303/DTD/svg-20000303-stylable.dtd"[]><svg xmlns="http://www.w3.org/2000/svg" width="449px" height="999px" viewBox="0 0 416 998"><path style="fill:#993" d="M400,634 l0,-20 -374,0 0,20 374,0z" /><path style="fill:#cc3" d="M400,631 l0,-14 -374,0 0,14 374,0z" /><path style="fill:#ff0" d="M400,628 l0,-8 -374,0 0,8 374,0z" /><path style="fill:none;stroke:#4c4c4c;stroke-width:2" d="M400,634 l0,-20 -374,0 0,20 374,0" /><path style="fill:#99a6a6" d="M83,0 l0,41 -11,0 11,16 0,47 -21,0 0,270 42,167 -42,0 0,62 10,21 -10,5 0,78 16,0 0,146 47,145 176,0 47,-145 0,-146 16,0 0,-78 -11,-5 11,-21 0,-62 -42,0 42,-167 0,-270 -21,0 0,-47 10,-16 -10,0 0,-41 -260,0z" /><path style="fill:#9eabab" d="M97,0 l0,41 -10,0 10,16 0,46 -19,0 0,271 37,166 -37,0 0,63 9,21 -9,5 0,78 14,0 0,145 42,146 158,0 42,-146 0,-145 14,0 0,-78 -9,-5 9,-21 0,-63 -37,0 37,-166 0,-271 -18,0 0,-46 9,-16 -9,0 0,-41 -233,0z" /><path style="fill:#a3b0b0" d="M110,0 l0,41 -8,0 8,16 0,46 -16,0 0,271 33,166 -33,0 0,63 8,21 -8,5 0,78 12,0 0,145 37,146 140,0 37,-146 0,-145 13,0 0,-78 -8,-5 8,-21 0,-63 -33,0 33,-166 0,-271 -17,0 0,-46 9,-16 -9,0 0,-41 -206,0z" /><path style="fill:#abb8b8" d="M124,0 l0,41 -8,0 8,16 0,46 -15,0 0,271 29,166 -29,0 0,63 7,21 -7,5 0,78 11,0 0,145 32,146 122,0 32,-146 0,-145 11,0 0,-78 -7,-5 7,-21 0,-63 -29,0 29,-166 0,-271 -14,0 0,-46 7,-16 -7,0 0,-41 -179,0z" /><path style="fill:#b0bdbd" d="M137,0 l0,41 -6,0 6,16 0,46 -12,0 0,271 24,166 -24,0 0,63 6,21 -6,5 0,78 9,0 0,145 28,146 103,0 27,-146 0,-145 9,0 0,-78 -6,-5 6,-21 0,-63 -24,0 24,-166 0,-271 -12,0 0,-46 6,-16 -6,0 0,-41 -152,0z" /><path style="fill:#b5c2c2" d="M151,0 l0,41 -6,0 6,16 0,46 -11,0 0,271 21,166 -21,0 0,63 5,21 -5,5 0,78 8,0 0,145 23,146 85,0 22,-146 0,-145 8,0 0,-78 -5,-5 5,-21 0,-63 -20,0 20,-166 0,-271 -10,0 0,-46 5,-16 -5,0 0,-41 -125,0z" /><path style="fill:#bac7c7" d="M164,0 l0,41 -4,0 4,16 0,46 -8,0 0,271 16,166 -16,0 0,63 4,21 -4,5 0,78 6,0 0,145 18,146 67,0 17,-146 0,-145 6,0 0,-78 -4,-5 4,-21 0,-63 -16,0 16,-166 0,-271 -8,0 0,-46 4,-16 -4,0 0,-41 -98,0z" /><path style="fill:#c2cfcf" d="M177,0 l0,41 -2,0 2,16 0,46 -5,0 0,271 11,166 -11,0 0,63 3,21 -3,5 0,78 4,0 0,145 13,146 49,0 12,-146 0,-145 5,0 0,-78 -3,-5 3,-21 0,-63 -12,0 12,-166 0,-271 -6,0 0,-46 3,-16 -3,0 0,-41 -72,0z" /><path style="fill:#c7d4d4" d="M191,0 l0,41 -2,0 2,16 0,46 -4,0 0,271 8,166 -8,0 0,63 2,21 -2,5 0,78 3,0 0,145 8,146 30,0 9,-146 0,-145 2,0 0,-78 -1,-5 1,-21 0,-63 -7,0 7,-166 0,-271 -3,0 0,-46 2,-16 -2,0 0,-41 -45,0z" /><path style="fill:#ccd9d9" d="M204,0 l0,41 -1,0 1,16 0,47 -1,0 0,270 3,167 -3,0 0,62 0,104 1,0 0,146 3,145 12,0 3,-145 0,-146 1,0 0,-78 0,-88 -3,0 3,-167 0,-270 -1,0 0,-47 1,-16 -1,0 0,-41 -18,0z" /><path style="fill:#727f7f" d="M104,541 l0,-167 218,0 0,167 -218,0z" /><path style="fill:#7a8787" d="M117,540 l0,-166 192,0 0,166 -192,0z" /><path style="fill:#828f8f" d="M131,540 l0,-166 165,0 0,166 -165,0z" /><path style="fill:#899696" d="M144,540 l0,-166 138,0 0,166 -138,0z" /><path style="fill:#8f9c9c" d="M158,540 l0,-166 111,0 0,166 -111,0z" /><path style="fill:#96a3a3" d="M171,540 l0,-166 84,0 0,166 -84,0z" /><path style="fill:#9eabab" d="M184,540 l0,-166 58,0 0,166 -58,0z" /><path style="fill:#a5b2b2" d="M197,541 l0,-167 32,0 0,167 -32,0z" /><path style="fill:none;stroke:#4c4c4c;stroke-width:2" d="M104,541 l0,-167 218,0 0,167 -218,0" /><path style="fill:#a0adad;stroke:#4c4c4c;stroke-width:2" d="M323,541 l41,-167 -47,0 0,167 6,0z" /><path style="fill:#a0adad;stroke:#4c4c4c;stroke-width:2" d="M104,541 l-42,-167 47,0 0,167 -5,0z" /><path style="fill:#abb8b8;stroke:#4c4c4c;stroke-width:2" d="M265,541 l41,-167 -52,0 0,167 11,0z" /><path style="fill:#abb8b8;stroke:#4c4c4c;stroke-width:2" d="M161,541 l-42,-167 53,0 0,167 -11,0z" /><path style="fill:none;stroke:#4c4c4c;stroke-width:2" d="M109,541 l-37,-167" /><path style="fill:#d8e5e5;stroke:#4c4c4c;stroke-width:2" d="M203,374 l20,0 -5,167 -10,0 -5,-167z" /><path style="fill:#ccd9d9;stroke:#4c4c4c;stroke-width:2" d="M171,541 l-36,-167 -16,0 42,167 10,0z" /><path style="fill:#ccd9d9;stroke:#4c4c4c;stroke-width:2" d="M254,541 l37,-167 15,0 -41,167 -11,0z" /><path style="fill:#bfcccc;stroke:#4c4c4c;stroke-width:2" d="M317,541 l36,-167 11,0 -42,167 -5,0z" /><path style="fill:#bfcccc;stroke:#4c4c4c;stroke-width:2" d="M109,541 l-37,-167 -10,0 42,167 5,0z" /><path style="fill:none;stroke:#99a6a6;stroke-width:2" d="M72,624 l281,0" /><path style="fill:none;stroke:#99a6a6;stroke-width:2" d="M364,629 l-302,0" /><path style="fill:none;stroke:#99a6a6;stroke-width:2" d="M78,707 l270,0" /><path style="fill:none;stroke:#99a6a6;stroke-width:2" d="M364,603 l-302,0" /><path style="fill:none;stroke:#99a6a6;stroke-width:2" d="M83,104 l260,0" /><path style="fill:none;stroke:#99a6a6;stroke-width:2" d="M88,41 l250,0" /><path style="fill:none;stroke:#99a6a6;stroke-width:2" d="M62,192 l302,0" /><path style="fill:none;stroke:#99a6a6;stroke-width:2" d="M364,281 l-302,0" /><path style="fill:#99a6a6" d="M151,998 l62,-10 62,10 -124,0z" /><path style="fill:#8c9999" d="M67,0 l-31,0 0,88 31,0 0,-88z" /><path style="fill:#a5b2b2" d="M62,0 l-21,0 0,88 21,0 0,-88z" /><path style="fill:#ccd9d9" d="M57,0 l-11,0 0,88 11,0 0,-88z" /><path style="fill:none;stroke:#4c4c4c;stroke-width:2" d="M67,0 l-31,0 0,88 31,0 0,-88" /><path style="fill:#8c9999" d="M83,73 l-32,0 0,5 32,0 0,-5z" /><path style="fill:#8c9999" d="M83,10 l-32,0 0,5 32,0 0,-5z" /><path style="fill:#8c9999" d="M93,11 l52,0 0,25 -52,0 0,-25z" /><path style="fill:#8c9999" d="M187,11 l52,0 0,25 -52,0 0,-25z" /><path style="fill:#8c9999" d="M280,11 l52,0 0,25 -52,0 0,-25z" /><path style="fill:#263333" d="M161,166 l-21,0 0,21 21,0 0,-21z" /><path style="fill:#263333" d="M99,166 l-21,0 0,21 21,0 0,-21z" /><path style="fill:#263333" d="M104,249 l31,0 0,26 -31,0 0,-26z" /><path style="fill:#263333" d="M166,249 l31,0 0,26 -31,0 0,-26z" /><path style="fill:#263333" d="M229,249 l31,0 0,26 -31,0 0,-26z" /><path style="fill:#263333" d="M203,166 l20,0 0,21 -20,0 0,-21z" /><path style="fill:#263333" d="M265,166 l21,0 0,21 -21,0 0,-21z" /><path style="fill:#263333" d="M327,166 l21,0 0,21 -21,0 0,-21z" /><path style="fill:#263333" d="M291,249 l31,0 0,26 -31,0 0,-26z" /><path style="fill:none;stroke:#fff;stroke-width:2" d="M161,187 l-21,0 0,-21" /><path style="fill:none;stroke:#fff;stroke-width:2" d="M98,187 l-20,0 0,-21" /><path style="fill:none;stroke:#fff;stroke-width:2" d="M203,187 l20,0" /><path style="fill:none;stroke:#fff;stroke-width:2" d="M265,187 l20,0 0,-21" /><path style="fill:none;stroke:#fff;stroke-width:2" d="M327,187 l21,0 0,-21" /><path style="fill:none;stroke:#fff;stroke-width:2" d="M197,275 l-31,0 0,-26" /><path style="fill:none;stroke:#fff;stroke-width:2" d="M135,275 l-31,0 0,-26" /><path style="fill:none;stroke:#fff;stroke-width:2" d="M229,275 l31,0 0,-26" /><path style="fill:none;stroke:#fff;stroke-width:2" d="M291,275 l31,0 0,-26" /><path style="fill:#263333" d="M285,15 l42,0 0,16 -42,0 0,-16z" /><path style="fill:#263333" d="M192,15 l42,0 0,16 -42,0 0,-16z" /><path style="fill:#263333" d="M98,15 l42,0 0,16 -42,0 0,-16z" /><path style="fill:#596666" d="M72,624 l281,0 6,-10 -292,0 5,10z" /><path style="fill:#abb8b8" d="M223,634 l-5,26 -10,0 -5,-26 20,0z" /><path style="fill:#ff0" d="M223,634 l0,-20 -20,0 0,20 20,0z" /><path style="fill:#993" d="M220,631 l0,-14 -13,0 0,14 13,0z" /><path style="fill:#000" d="M217,628 l0,-8 -7,0 0,8 7,0z" /><path style="fill:none;stroke:#663;stroke-width:2" d="M223,634 l0,-20 -20,0 0,20 20,0" /><path style="fill:#d8e5e5" d="M83,47 l260,0 0,5 -260,0 0,-5z" /><path style="fill:#d8e5e5" d="M62,109 l302,0 0,5 -302,0 0,-5z" /><path style="fill:#d8e5e5" d="M62,135 l302,0 0,5 -302,0 0,-5z" /><path style="fill:#d8e5e5" d="M62,198 l302,0 0,5 -302,0 0,-5z" /><path style="fill:#d8e5e5" d="M62,286 l302,0 0,5 -302,0 0,-5z" /><path style="fill:#d8e5e5" d="M62,369 l302,0 0,5 -302,0 0,-5z" /><path style="fill:none;stroke:#4c4c4c;stroke-width:2" d="M83,0 l0,41 -11,0 11,16 0,47 -21,0 0,270 42,167 -42,0 0,62 10,21 -10,5 0,78 16,0 0,146 47,145 176,0 47,-145 0,-146 16,0 0,-78 -11,-5 11,-21 0,-62 -42,0 42,-167 0,-270 -21,0 0,-47 10,-16 -10,0 0,-41 -260,0" /><circle style="fill:#cc3;stroke:#993;stroke-width:2" cx="380" cy="109" r="21" /><path style="fill:#cc3;stroke:#993;stroke-width:2" d="M411,125 l-63,0 0,10 63,0 0,-10z" /><path style="fill:#993;stroke:#663;stroke-width:2" d="M416,135 l-94,0 0,10 94,0 0,-10z" /><path style="fill:#993" d="M380,102 l-7,7 7,7 7,-7 -7,-7z" /><path style="fill:none;stroke:#993;stroke-width:2" d="M380,125 l0,-32" /><path style="fill:#bac7c7;stroke:#4c4c4c;stroke-width:2" d="M10,327 l5,-5 131,0 0,177 -131,-5 -5,-5 0,-162z" /><path style="fill:#abb8b8;stroke:#4c4c4c;stroke-width:2" d="M146,322 l31,0 0,172 -31,5 0,-177z" /><path style="fill:none;stroke:#8c9999;stroke-width:2" d="M36,478 l83,0 0,-135" /><path style="fill:#8c9999" d="M353,541 l-10,0 0,-16 10,0 0,16z" /><path style="fill:#8c9999" d="M312,541 l-11,0 0,-16 11,0 0,16z" /><path style="fill:#8c9999" d="M270,541 l-10,0 0,-16 10,0 0,16z" /><path style="fill:#8c9999" d="M229,541 l-11,0 0,-16 11,0 0,16z" /><path style="fill:#8c9999" d="M187,541 l-10,0 0,-16 10,0 0,16z" /><path style="fill:#8c9999" d="M145,541 l-10,0 0,-16 10,0 0,16z" /><path style="fill:#8c9999" d="M104,541 l-11,0 0,-16 11,0 0,16z" /><path style="fill:#c9d1d1" d="M73,541 l20,0 0,-16 -20,0 0,16z" /><path style="fill:#c9d1d1" d="M114,541 l21,0 0,-16 -21,0 0,16z" /><path style="fill:#c9d1d1" d="M156,541 l21,0 0,-16 -21,0 0,16z" /><path style="fill:#c9d1d1" d="M198,541 l20,0 0,-16 -20,0 0,16z" /><path style="fill:#c9d1d1" d="M239,541 l21,0 0,-16 -21,0 0,16z" /><path style="fill:#c9d1d1" d="M281,541 l20,0 0,-16 -20,0 0,16z" /><path style="fill:#c9d1d1" d="M322,541 l21,0 0,-16 -21,0 0,16z" /><path style="fill:none;stroke:#4c4c4c;stroke-width:2" d="M73,541 l31,0 0,-16 -31,0 0,16" /><path style="fill:none;stroke:#4c4c4c;stroke-width:2" d="M114,541 l31,0 0,-16 -31,0 0,16" /><path style="fill:none;stroke:#4c4c4c;stroke-width:2" d="M156,541 l31,0 0,-16 -31,0 0,16" /><path style="fill:none;stroke:#4c4c4c;stroke-width:2" d="M198,541 l31,0 0,-16 -31,0 0,16" /><path style="fill:none;stroke:#4c4c4c;stroke-width:2" d="M239,541 l31,0 0,-16 -31,0 0,16" /><path style="fill:none;stroke:#4c4c4c;stroke-width:2" d="M281,541 l31,0 0,-16 -31,0 0,16" /><path style="fill:none;stroke:#4c4c4c;stroke-width:2" d="M322,541 l31,0 0,-16 -31,0 0,16" /><path style="fill:#99a6a6" d="M348,707 l-5,26 -256,0 -4,-26 265,0z" /><path style="fill:#abb8b8" d="M311,707 l-5,26 -187,0 -4,-26 196,0z" /><circle style="fill:#99a6a6;stroke:#4c4c4c;stroke-width:2" cx="78" cy="801" r="78" /><circle style="fill:#ccd9d9" cx="77" cy="801" r="72" /><circle style="fill:#3f4c4c;stroke:#99a6a6;stroke-width:2" cx="77" cy="801" r="62" /><circle style="fill:#334040" cx="77" cy="801" r="51" /><circle style="fill:#263333" cx="77" cy="800" r="36" /></svg>