<!DOCTYPE svg PUBLIC "-//W3C//DTD SVG 20000303 Stylable//EN" "http://www.w3.org/TR/2000/03/WD-SVG-20000303/DTD/svg-20000303-stylable.dtd"[]><svg xmlns="http://www.w3.org/2000/svg" width="439px" height="999px" viewBox="0 0 405 998"><path style="fill:#993" d="M390,634 l0,-20 -375,0 0,20 375,0z" /><path style="fill:#cc3" d="M390,631 l0,-14 -375,0 0,14 375,0z" /><path style="fill:#ff0" d="M390,628 l0,-8 -375,0 0,8 375,0z" /><path style="fill:none;stroke:#4c4c4c;stroke-width:2" d="M390,634 l0,-20 -375,0 0,20 375,0" /><path style="fill:#99a6a6" d="M72,0 l0,41 -10,0 10,16 0,47 -21,0 0,270 42,167 -42,0 0,62 11,21 -11,5 0,78 16,0 0,146 47,145 176,0 47,-145 0,-146 16,0 0,-78 -10,-5 10,-21 0,-62 -42,0 42,-167 0,-270 -21,0 0,-47 11,-16 -11,0 0,-41 -260,0z" /><path style="fill:#9eabab" d="M86,0 l0,41 -9,0 9,16 0,46 -19,0 0,271 38,166 -38,0 0,63 10,21 -10,5 0,78 14,0 0,145 42,146 159,0 42,-146 0,-145 14,0 0,-78 -10,-5 10,-21 0,-63 -38,0 38,-166 0,-271 -19,0 0,-46 9,-16 -9,0 0,-41 -233,0z" /><path style="fill:#a3b0b0" d="M100,0 l0,41 -9,0 9,16 0,46 -17,0 0,271 33,166 -33,0 0,63 8,21 -8,5 0,78 12,0 0,145 38,146 139,0 38,-146 0,-145 12,0 0,-78 -8,-5 8,-21 0,-63 -33,0 33,-166 0,-271 -17,0 0,-46 9,-16 -9,0 0,-41 -205,0z" /><path style="fill:#abb8b8" d="M113,0 l0,41 -7,0 7,16 0,46 -14,0 0,271 28,166 -28,0 0,63 7,21 -7,5 0,78 10,0 0,145 33,146 121,0 33,-146 0,-145 10,0 0,-78 -7,-5 7,-21 0,-63 -28,0 28,-166 0,-271 -14,0 0,-46 7,-16 -7,0 0,-41 -179,0z" /><path style="fill:#b0bdbd" d="M126,0 l0,41 -6,0 6,16 0,46 -12,0 0,271 25,166 -25,0 0,63 6,21 -6,5 0,78 9,0 0,145 28,146 103,0 28,-146 0,-145 9,0 0,-78 -6,-5 6,-21 0,-63 -25,0 25,-166 0,-271 -12,0 0,-46 6,-16 -6,0 0,-41 -153,0z" /><path style="fill:#b5c2c2" d="M140,0 l0,41 -5,0 5,16 0,46 -10,0 0,271 20,166 -20,0 0,63 5,21 -5,5 0,78 7,0 0,145 23,146 85,0 23,-146 0,-145 7,0 0,-78 -5,-5 5,-21 0,-63 -20,0 20,-166 0,-271 -10,0 0,-46 5,-16 -5,0 0,-41 -125,0z" /><path style="fill:#bac7c7" d="M153,0 l0,41 -4,0 4,16 0,46 -8,0 0,271 16,166 -16,0 0,63 4,21 -4,5 0,78 6,0 0,145 18,146 67,0 18,-146 0,-145 6,0 0,-78 -4,-5 4,-21 0,-63 -16,0 16,-166 0,-271 -8,0 0,-46 4,-16 -4,0 0,-41 -99,0z" /><path style="fill:#c2cfcf" d="M167,0 l0,41 -3,0 3,16 0,46 -6,0 0,271 12,166 -12,0 0,63 3,21 -3,5 0,78 4,0 0,145 13,146 49,0 13,-146 0,-145 4,0 0,-78 -3,-5 3,-21 0,-63 -11,0 11,-166 0,-271 -5,0 0,-46 2,-16 -2,0 0,-41 -72,0z" /><path style="fill:#c7d4d4" d="M180,0 l0,41 -2,0 2,16 0,46 -3,0 0,271 7,166 -7,0 0,63 1,21 -1,5 0,78 2,0 0,145 9,146 30,0 8,-146 0,-145 3,0 0,-78 -2,-5 2,-21 0,-63 -8,0 8,-166 0,-271 -4,0 0,-46 2,-16 -2,0 0,-41 -45,0z" /><path style="fill:#ccd9d9" d="M193,0 l0,41 0,0 0,16 0,47 -1,0 0,270 3,167 -3,0 0,62 0,104 1,0 0,146 3,145 12,0 4,-145 0,-146 1,0 0,-78 0,-88 -3,0 3,-167 0,-270 -2,0 0,-47 1,-16 -1,0 0,-41 -18,0z" /><path style="fill:#727f7f" d="M93,541 l0,-167 218,0 0,167 -218,0z" /><path style="fill:#7a8787" d="M107,540 l0,-166 191,0 0,166 -191,0z" /><path style="fill:#828f8f" d="M120,540 l0,-166 165,0 0,166 -165,0z" /><path style="fill:#899696" d="M133,540 l0,-166 139,0 0,166 -139,0z" /><path style="fill:#8f9c9c" d="M147,540 l0,-166 111,0 0,166 -111,0z" /><path style="fill:#96a3a3" d="M160,540 l0,-166 85,0 0,166 -85,0z" /><path style="fill:#9eabab" d="M174,540 l0,-166 58,0 0,166 -58,0z" /><path style="fill:#a5b2b2" d="M187,541 l0,-167 31,0 0,167 -31,0z" /><path style="fill:none;stroke:#4c4c4c;stroke-width:2" d="M93,541 l0,-167 218,0 0,167 -218,0" /><path style="fill:#a0adad;stroke:#4c4c4c;stroke-width:2" d="M312,541 l41,-167 -46,0 0,167 5,0z" /><path style="fill:#a0adad;stroke:#4c4c4c;stroke-width:2" d="M93,541 l-42,-167 47,0 0,167 -5,0z" /><path style="fill:#abb8b8;stroke:#4c4c4c;stroke-width:2" d="M254,541 l41,-167 -51,0 0,167 10,0z" /><path style="fill:#abb8b8;stroke:#4c4c4c;stroke-width:2" d="M150,541 l-41,-167 52,0 0,167 -11,0z" /><path style="fill:none;stroke:#4c4c4c;stroke-width:2" d="M98,541 l-36,-167" /><path style="fill:#d8e5e5;stroke:#4c4c4c;stroke-width:2" d="M192,374 l21,0 -5,167 -11,0 -5,-167z" /><path style="fill:#ccd9d9;stroke:#4c4c4c;stroke-width:2" d="M161,541 l-37,-167 -15,0 41,167 11,0z" /><path style="fill:#ccd9d9;stroke:#4c4c4c;stroke-width:2" d="M244,541 l36,-167 16,0 -42,167 -10,0z" /><path style="fill:#bfcccc;stroke:#4c4c4c;stroke-width:2" d="M306,541 l37,-167 10,0 -42,167 -5,0z" /><path style="fill:#bfcccc;stroke:#4c4c4c;stroke-width:2" d="M98,541 l-36,-167 -11,0 42,167 5,0z" /><path style="fill:none;stroke:#99a6a6;stroke-width:2" d="M62,624 l281,0" /><path style="fill:none;stroke:#99a6a6;stroke-width:2" d="M353,629 l-302,0" /><path style="fill:none;stroke:#99a6a6;stroke-width:2" d="M67,707 l270,0" /><path style="fill:none;stroke:#99a6a6;stroke-width:2" d="M353,603 l-302,0" /><path style="fill:none;stroke:#99a6a6;stroke-width:2" d="M72,104 l260,0" /><path style="fill:none;stroke:#99a6a6;stroke-width:2" d="M77,41 l250,0" /><path style="fill:none;stroke:#99a6a6;stroke-width:2" d="M51,192 l302,0" /><path style="fill:none;stroke:#99a6a6;stroke-width:2" d="M353,281 l-302,0" /><path style="fill:#99a6a6" d="M140,998 l62,-10 63,10 -125,0z" /><path style="fill:#8c9999" d="M57,0 l-32,0 0,88 32,0 0,-88z" /><path style="fill:#a5b2b2" d="M52,0 l-22,0 0,88 22,0 0,-88z" /><path style="fill:#ccd9d9" d="M46,0 l-10,0 0,88 10,0 0,-88z" /><path style="fill:none;stroke:#4c4c4c;stroke-width:2" d="M57,0 l-32,0 0,88 32,0 0,-88" /><path style="fill:#8c9999" d="M72,73 l-31,0 0,5 31,0 0,-5z" /><path style="fill:#8c9999" d="M72,10 l-31,0 0,5 31,0 0,-5z" /><path style="fill:#8c9999" d="M82,11 l53,0 0,25 -53,0 0,-25z" /><path style="fill:#8c9999" d="M176,11 l52,0 0,25 -52,0 0,-25z" /><path style="fill:#8c9999" d="M269,11 l53,0 0,25 -53,0 0,-25z" /><path style="fill:#263333" d="M150,166 l-20,0 0,21 20,0 0,-21z" /><path style="fill:#263333" d="M88,166 l-21,0 0,21 21,0 0,-21z" /><path style="fill:#263333" d="M93,249 l31,0 0,26 -31,0 0,-26z" /><path style="fill:#263333" d="M155,249 l32,0 0,26 -32,0 0,-26z" /><path style="fill:#263333" d="M218,249 l31,0 0,26 -31,0 0,-26z" /><path style="fill:#263333" d="M192,166 l21,0 0,21 -21,0 0,-21z" /><path style="fill:#263333" d="M254,166 l21,0 0,21 -21,0 0,-21z" /><path style="fill:#263333" d="M317,166 l20,0 0,21 -20,0 0,-21z" /><path style="fill:#263333" d="M280,249 l31,0 0,26 -31,0 0,-26z" /><path style="fill:none;stroke:#fff;stroke-width:2" d="M150,187 l-20,0 0,-21" /><path style="fill:none;stroke:#fff;stroke-width:2" d="M88,187 l-21,0 0,-21" /><path style="fill:none;stroke:#fff;stroke-width:2" d="M192,187 l21,0" /><path style="fill:none;stroke:#fff;stroke-width:2" d="M254,187 l21,0 0,-21" /><path style="fill:none;stroke:#fff;stroke-width:2" d="M317,187 l20,0 0,-21" /><path style="fill:none;stroke:#fff;stroke-width:2" d="M187,275 l-31,0 0,-26" /><path style="fill:none;stroke:#fff;stroke-width:2" d="M125,275 l-31,0 0,-26" /><path style="fill:none;stroke:#fff;stroke-width:2" d="M218,275 l31,0 0,-26" /><path style="fill:none;stroke:#fff;stroke-width:2" d="M280,275 l31,0 0,-26" /><path style="fill:#263333" d="M275,15 l41,0 0,16 -41,0 0,-16z" /><path style="fill:#263333" d="M181,15 l42,0 0,16 -42,0 0,-16z" /><path style="fill:#263333" d="M88,15 l41,0 0,16 -41,0 0,-16z" /><path style="fill:#596666" d="M62,624 l281,0 5,-10 -291,0 5,10z" /><path style="fill:#abb8b8" d="M213,634 l-5,26 -11,0 -4,-26 20,0z" /><path style="fill:#ff0" d="M213,634 l0,-20 -20,0 0,20 20,0z" /><path style="fill:#993" d="M209,631 l0,-14 -13,0 0,14 13,0z" /><path style="fill:#000" d="M206,628 l0,-8 -7,0 0,8 7,0z" /><path style="fill:none;stroke:#663;stroke-width:2" d="M213,634 l0,-20 -20,0 0,20 20,0" /><path style="fill:#d8e5e5" d="M72,47 l260,0 0,5 -260,0 0,-5z" /><path style="fill:#d8e5e5" d="M51,109 l302,0 0,5 -302,0 0,-5z" /><path style="fill:#d8e5e5" d="M51,135 l302,0 0,5 -302,0 0,-5z" /><path style="fill:#d8e5e5" d="M51,198 l302,0 0,5 -302,0 0,-5z" /><path style="fill:#d8e5e5" d="M51,286 l302,0 0,5 -302,0 0,-5z" /><path style="fill:#d8e5e5" d="M51,369 l302,0 0,5 -302,0 0,-5z" /><path style="fill:none;stroke:#4c4c4c;stroke-width:2" d="M72,0 l0,41 -10,0 10,16 0,47 -21,0 0,270 42,167 -42,0 0,62 11,21 -11,5 0,78 16,0 0,146 47,145 176,0 47,-145 0,-146 16,0 0,-78 -10,-5 10,-21 0,-62 -42,0 42,-167 0,-270 -21,0 0,-47 11,-16 -11,0 0,-41 -260,0" /><circle style="fill:#cc3;stroke:#993;stroke-width:2" cx="369" cy="109" r="21" /><path style="fill:#cc3;stroke:#993;stroke-width:2" d="M400,125 l-62,0 0,10 62,0 0,-10z" /><path style="fill:#993;stroke:#663;stroke-width:2" d="M405,135 l-94,0 0,10 94,0 0,-10z" /><path style="fill:#993" d="M369,102 l-7,7 7,7 8,-7 -8,-7z" /><path style="fill:none;stroke:#993;stroke-width:2" d="M369,125 l0,-32" /><path style="fill:#bac7c7;stroke:#4c4c4c;stroke-width:2" d="M0,327 l4,-5 131,0 0,177 -131,-5 -4,-5 0,-162z" /><path style="fill:#abb8b8;stroke:#4c4c4c;stroke-width:2" d="M135,322 l31,0 0,172 -31,5 0,-177z" /><path style="fill:none;stroke:#8c9999;stroke-width:2" d="M25,478 l84,0 0,-135" /><path style="fill:#8c9999" d="M343,541 l-11,0 0,-16 11,0 0,16z" /><path style="fill:#8c9999" d="M301,541 l-10,0 0,-16 10,0 0,16z" /><path style="fill:#8c9999" d="M259,541 l-10,0 0,-16 10,0 0,16z" /><path style="fill:#8c9999" d="M218,541 l-10,0 0,-16 10,0 0,16z" /><path style="fill:#8c9999" d="M176,541 l-10,0 0,-16 10,0 0,16z" /><path style="fill:#8c9999" d="M135,541 l-11,0 0,-16 11,0 0,16z" /><path style="fill:#8c9999" d="M93,541 l-10,0 0,-16 10,0 0,16z" /><path style="fill:#c9d1d1" d="M62,541 l21,0 0,-16 -21,0 0,16z" /><path style="fill:#c9d1d1" d="M104,541 l20,0 0,-16 -20,0 0,16z" /><path style="fill:#c9d1d1" d="M145,541 l21,0 0,-16 -21,0 0,16z" /><path style="fill:#c9d1d1" d="M187,541 l21,0 0,-16 -21,0 0,16z" /><path style="fill:#c9d1d1" d="M229,541 l20,0 0,-16 -20,0 0,16z" /><path style="fill:#c9d1d1" d="M270,541 l21,0 0,-16 -21,0 0,16z" /><path style="fill:#c9d1d1" d="M312,541 l20,0 0,-16 -20,0 0,16z" /><path style="fill:none;stroke:#4c4c4c;stroke-width:2" d="M62,541 l31,0 0,-16 -31,0 0,16" /><path style="fill:none;stroke:#4c4c4c;stroke-width:2" d="M104,541 l31,0 0,-16 -31,0 0,16" /><path style="fill:none;stroke:#4c4c4c;stroke-width:2" d="M145,541 l31,0 0,-16 -31,0 0,16" /><path style="fill:none;stroke:#4c4c4c;stroke-width:2" d="M187,541 l31,0 0,-16 -31,0 0,16" /><path style="fill:none;stroke:#4c4c4c;stroke-width:2" d="M229,541 l30,0 0,-16 -30,0 0,16" /><path style="fill:none;stroke:#4c4c4c;stroke-width:2" d="M270,541 l31,0 0,-16 -31,0 0,16" /><path style="fill:none;stroke:#4c4c4c;stroke-width:2" d="M312,541 l31,0 0,-16 -31,0 0,16" /><path style="fill:#99a6a6" d="M337,707 l-5,26 -256,0 -4,-26 265,0z" /><path style="fill:#abb8b8" d="M301,707 l-5,26 -187,0 -5,-26 197,0z" /></svg>