<!DOCTYPE svg PUBLIC "-//W3C//DTD SVG 20000303 Stylable//EN" "http://www.w3.org/TR/2000/03/WD-SVG-20000303/DTD/svg-20000303-stylable.dtd"[]><svg xmlns="http://www.w3.org/2000/svg" width="999px" height="216px" viewBox="0 0 999 169"><path style="fill:#696" d="M172,125 l654,0 0,-92 -654,0 0,92z" /><circle style="fill:#b2b2b2;stroke:#4c4c4c;stroke-width:2" cx="101" cy="18" r="19" /><path style="fill:#9c9;stroke:#4c4c4c;stroke-width:2" d="M37,41 l139,0 0,64 -139,0 0,-64z" /><path style="fill:#9c9" d="M172,140 l654,0 0,-107 -654,0 0,107z" /><path style="fill:#4c7f4c" d="M817,65 l139,0 0,64 -139,0 0,-64z" /><path style="fill:#696" d="M817,65 l139,0 0,43 -139,0 0,-43z" /><path style="fill:#73a673" d="M817,65 l139,0 0,36 -139,0 0,-36z" /><path style="fill:#7fb27f" d="M817,65 l139,0 0,30 -139,0 0,-30z" /><path style="fill:#8cbf8c" d="M817,65 l139,0 0,24 -139,0 0,-24z" /><path style="fill:#9c9" d="M817,65 l139,0 0,18 -139,0 0,-18z" /><path style="fill:#a6d9a6" d="M817,65 l139,0 0,12 -139,0 0,-12z" /><path style="fill:#b2e5b2" d="M817,65 l139,0 0,5 -139,0 0,-5z" /><path style="fill:#696" d="M956,100 l43,0 0,29 -43,0 0,-29z" /><path style="fill:#b2e5b2" d="M956,100 l43,0 0,5 -43,0 0,-5z" /><path style="fill:none;stroke:#4c4c4c;stroke-width:2" d="M817,65 l139,0 0,64 -139,0 0,-64" /><path style="fill:none;stroke:#4c4c4c;stroke-width:2" d="M956,100 l43,0 0,29 -43,0 0,-29" /><path style="fill:#73a673" d="M828,54 l42,0 0,48 -42,0 0,-48z" /><path style="fill:#b2e5b2" d="M828,54 l42,0 0,3 -42,0 0,-3z" /><path style="fill:none;stroke:#4c4c4c;stroke-width:2" d="M828,65 l0,-11 42,0 0,11" /><path style="fill:#99f" d="M814,129 l185,0 0,30 -185,0 0,-30z" /><path style="fill:#9494fa" d="M814,150 l185,-12 0,21 -185,0 0,-9z" /><path style="fill:#8f8ff5" d="M814,151 l185,-12 0,20 -185,0 0,-8z" /><path style="fill:#8a8af0" d="M814,153 l185,-12 0,18 -185,0 0,-6z" /><path style="fill:none;stroke:#4c4c4c;stroke-width:2" d="M814,129 l185,0 0,30 -185,0 0,-30" /><path style="fill:#9c9" d="M0,85 l58,0 0,68 -58,0 0,-68z" /><path style="fill:#94c794" d="M0,133 l58,-28 0,48 -58,0 0,-20z" /><path style="fill:#8fc28f" d="M0,136 l58,-28 0,45 -58,0 0,-17z" /><path style="fill:#8abd8a" d="M0,141 l58,-29 0,41 -58,0 0,-12z" /><path style="fill:none;stroke:#4c4c4c;stroke-width:2" d="M0,85 l58,0 0,68 -58,0 0,-68" /><path style="fill:#9c9" d="M336,4 l67,0 0,45 -67,0 0,-45z" /><path style="fill:#7f7f7f" d="M86,4 l30,0 0,38 -30,0 0,-38z" /><path style="fill:#999" d="M89,4 l24,0 0,38 -24,0 0,-38z" /><path style="fill:#b2b2b2" d="M92,4 l18,0 0,38 -18,0 0,-38z" /><path style="fill:#ccc" d="M95,4 l12,0 0,38 -12,0 0,-38z" /><path style="fill:#e5e5e5" d="M98,4 l6,0 0,38 -6,0 0,-38z" /><path style="fill:none;stroke:#4c4c4c;stroke-width:2" d="M86,4 l30,0 0,38 -30,0 0,-38" /><path style="fill:#9c9" d="M544,4 l67,0 0,45 -67,0 0,-45z" /><path style="fill:#a6d9a6" d="M552,4 l52,0 0,45 -52,0 0,-45z" /><path style="fill:#b2e5b2" d="M566,4 l24,0 0,45 -24,0 0,-45z" /><path style="fill:#a6d9a6" d="M343,4 l52,0 0,45 -52,0 0,-45z" /><path style="fill:#b2e5b2" d="M357,4 l24,0 0,45 -24,0 0,-45z" /><path style="fill:none;stroke:#4c4c4c;stroke-width:2" d="M172,41 l0,-8 164,0 0,-29 67,0 0,29 142,0 0,-29 66,0 0,29 215,0 0,32" /><path style="fill:#4c7f4c" d="M176,44 l176,0 0,96 -176,0 0,-96z" /><path style="fill:#696" d="M176,44 l176,0 0,54 -176,0 0,-54z" /><path style="fill:#73a673" d="M176,44 l176,0 0,46 -176,0 0,-46z" /><path style="fill:#7fb27f" d="M176,44 l176,0 0,38 -176,0 0,-38z" /><path style="fill:#8cbf8c" d="M176,44 l176,0 0,30 -176,0 0,-30z" /><path style="fill:#9c9" d="M176,44 l176,0 0,22 -176,0 0,-22z" /><path style="fill:#a6d9a6" d="M176,44 l176,0 0,14 -176,0 0,-14z" /><path style="fill:#b2e5b2" d="M176,44 l176,0 0,7 -176,0 0,-7z" /><path style="fill:none;stroke:#4c7f4c;stroke-width:2" d="M176,44 l176,0 0,96 -176,0 0,-96" /><path style="fill:#4c7f4c" d="M385,44 l177,0 0,96 -177,0 0,-96z" /><path style="fill:#696" d="M385,44 l177,0 0,54 -177,0 0,-54z" /><path style="fill:#73a673" d="M385,44 l177,0 0,46 -177,0 0,-46z" /><path style="fill:#7fb27f" d="M385,44 l177,0 0,38 -177,0 0,-38z" /><path style="fill:#8cbf8c" d="M385,44 l177,0 0,30 -177,0 0,-30z" /><path style="fill:#9c9" d="M385,44 l177,0 0,22 -177,0 0,-22z" /><path style="fill:#a6d9a6" d="M385,44 l177,0 0,14 -177,0 0,-14z" /><path style="fill:#b2e5b2" d="M385,44 l177,0 0,7 -177,0 0,-7z" /><path style="fill:none;stroke:#4c7f4c;stroke-width:2" d="M385,44 l177,0 0,96 -177,0 0,-96" /><path style="fill:#4c7f4c" d="M593,44 l176,0 0,96 -176,0 0,-96z" /><path style="fill:#696" d="M593,44 l176,0 0,54 -176,0 0,-54z" /><path style="fill:#73a673" d="M593,44 l176,0 0,46 -176,0 0,-46z" /><path style="fill:#7fb27f" d="M593,44 l176,0 0,38 -176,0 0,-38z" /><path style="fill:#8cbf8c" d="M593,44 l176,0 0,30 -176,0 0,-30z" /><path style="fill:#9c9" d="M593,44 l176,0 0,22 -176,0 0,-22z" /><path style="fill:#a6d9a6" d="M593,44 l176,0 0,14 -176,0 0,-14z" /><path style="fill:#b2e5b2" d="M593,44 l176,0 0,7 -176,0 0,-7z" /><path style="fill:#9c9" d="M58,97 l118,0 0,64 -118,0 0,-64z" /><path style="fill:#94c794" d="M58,143 l118,-27 0,45 -118,0 0,-18z" /><path style="fill:#8fc28f" d="M58,145 l118,-27 0,43 -118,0 0,-16z" /><path style="fill:#8abd8a" d="M58,149 l118,-27 0,39 -118,0 0,-12z" /><path style="fill:none;stroke:#4c4c4c;stroke-width:2" d="M58,97 l118,0 0,64 -118,0 0,-64" /><path style="fill:none;stroke:#cfc;stroke-width:2" d="M419,85 l0,-40" /><path style="fill:none;stroke:#cfc;stroke-width:2" d="M456,85 l0,-40" /><path style="fill:none;stroke:#cfc;stroke-width:2" d="M492,85 l0,-40" /><path style="fill:none;stroke:#cfc;stroke-width:2" d="M528,85 l0,-40" /><path style="fill:none;stroke:#cfc;stroke-width:2" d="M209,85 l0,-40" /><path style="fill:none;stroke:#cfc;stroke-width:2" d="M246,85 l0,-40" /><path style="fill:none;stroke:#cfc;stroke-width:2" d="M282,85 l0,-40" /><path style="fill:none;stroke:#cfc;stroke-width:2" d="M318,85 l0,-40" /><path style="fill:none;stroke:#cfc;stroke-width:2" d="M626,85 l0,-40" /><path style="fill:none;stroke:#cfc;stroke-width:2" d="M662,85 l0,-40" /><path style="fill:none;stroke:#cfc;stroke-width:2" d="M699,85 l0,-40" /><path style="fill:none;stroke:#cfc;stroke-width:2" d="M735,85 l0,-40" /><path style="fill:none;stroke:#363;stroke-width:2" d="M419,85 l0,49" /><path style="fill:none;stroke:#363;stroke-width:2" d="M456,85 l0,49" /><path style="fill:none;stroke:#363;stroke-width:2" d="M492,85 l0,49" /><path style="fill:none;stroke:#363;stroke-width:2" d="M528,85 l0,49" /><path style="fill:none;stroke:#363;stroke-width:2" d="M209,85 l0,49" /><path style="fill:none;stroke:#363;stroke-width:2" d="M246,85 l0,49" /><path style="fill:none;stroke:#363;stroke-width:2" d="M282,85 l0,49" /><path style="fill:none;stroke:#363;stroke-width:2" d="M318,85 l0,49" /><path style="fill:none;stroke:#363;stroke-width:2" d="M626,85 l0,49" /><path style="fill:none;stroke:#363;stroke-width:2" d="M662,85 l0,49" /><path style="fill:none;stroke:#363;stroke-width:2" d="M699,85 l0,49" /><path style="fill:none;stroke:#363;stroke-width:2" d="M735,85 l0,49" /><path style="fill:none;stroke:#fff;stroke-width:2" d="M53,72 l0,-22 79,0" /><path style="fill:none;stroke:#696;stroke-width:2" d="M53,72 l79,0 0,-22" /><path style="fill:#4c7f4c" d="M769,74 l48,0 0,48 -48,0 0,-48z" /><path style="fill:#73a673" d="M769,74 l48,0 0,38 -48,0 0,-38z" /><path style="fill:#a6d9a6" d="M769,74 l48,0 0,7 -48,0 0,-7z" /><path style="fill:#4c7f4c;stroke:#4c4c4c;stroke-width:2" d="M769,74 l48,0 0,48 -48,0 0,-48z" /><path style="fill:none;stroke:#4c7f4c;stroke-width:2" d="M593,44 l176,0 0,96 -176,0 0,-96" /><path style="fill:#99f" d="M172,140 l642,0 0,29 -642,0 0,-29z" /><path style="fill:#9494fa" d="M172,161 l642,-13 0,21 -642,0 0,-8z" /><path style="fill:#8f8ff5" d="M172,162 l642,-12 0,19 -642,0 0,-7z" /><path style="fill:#8a8af0" d="M172,164 l642,-13 0,18 -642,0 0,-5z" /><path style="fill:none;stroke:#4c4c4c;stroke-width:2" d="M172,140 l642,0 0,29 -642,0 0,-29" /></svg>