<!DOCTYPE svg PUBLIC "-//W3C//DTD SVG 20000303 Stylable//EN" "http://www.w3.org/TR/2000/03/WD-SVG-20000303/DTD/svg-20000303-stylable.dtd"[]><svg xmlns="http://www.w3.org/2000/svg" width="999px" height="216px" viewBox="0 0 999 169"><circle style="fill:#b2b2b2;stroke:#4c4c4c;stroke-width:2" cx="101" cy="18" r="19" /><path style="fill:#9c9" d="M37,41 l139,0 0,64 -139,0 0,-64z" /><path style="fill:#73a673" d="M42,54 l134,0 0,51 -134,0 0,-51z" /><path style="fill:none;stroke:#4c4c4c;stroke-width:2" d="M37,41 l139,0 0,64 -139,0 0,-64" /><path style="fill:#4c7f4c" d="M172,49 l655,0 -5,91 -646,0 -4,-91z" /><path style="fill:#9c9" d="M172,49 l654,0 0,-16 -654,0 0,16z" /><path style="fill:#363" d="M178,77 l644,0 0,43 -646,0 2,-43z" /><path style="fill:none;stroke:#4c4c4c;stroke-width:2" d="M172,49 l0,-16 655,0 0,16 -5,91 -646,0 -4,-91" /><path style="fill:#99f" d="M176,140 l638,0 0,29 -638,0 0,-29z" /><path style="fill:#9494fa" d="M176,161 l638,-13 0,21 -638,0 0,-8z" /><path style="fill:#8f8ff5" d="M176,162 l638,-12 0,19 -638,0 0,-7z" /><path style="fill:#8a8af0" d="M176,164 l638,-13 0,18 -638,0 0,-5z" /><path style="fill:none;stroke:#4c4c4c;stroke-width:2" d="M176,140 l638,0 0,29 -638,0 0,-29" /><ellipse style="fill:#4c4c4c" cx="785" cy="97" rx="32" ry="11" /><path style="fill:#4c4c4c" d="M679,102 l0,16 -3,0 0,-16 -3,0 0,18 -3,0 0,-18 -3,0 0,19 -4,0 0,-19 -3,0 0,23 -3,0 0,-23 -3,0 0,27 -3,0 0,-27 -4,0 0,32 -3,0 0,-32 -3,0 0,38 -3,0 -29,-27 0,-32 29,-27 3,0 0,38 3,0 0,-32 3,0 0,32 4,0 0,-27 3,0 0,27 3,0 0,-23 3,0 0,23 3,0 0,-19 4,0 0,19 3,0 0,-18 3,0 0,18 3,0 0,-16 3,0 0,16 3,0 0,-16 4,0 0,16 3,0 0,-18 3,0 0,18 3,0 0,-19 3,0 0,19 3,0 0,-23 3,0 0,23 4,0 0,-27 3,0 0,27 3,0 0,-32 3,0 0,32 3,0 0,-38 3,0 30,27 0,32 -30,27 -3,0 0,-38 -3,0 0,32 -3,0 0,-32 -3,0 0,27 -3,0 0,-27 -4,0 0,23 -3,0 0,-23 -3,0 0,19 -3,0 0,-19 -3,0 0,18 -3,0 0,-18 -3,0 0,16 -4,0 0,-16 -3,0z" /><ellipse style="fill:#4c4c4c" cx="576" cy="97" rx="32" ry="11" /><path style="fill:#4c4c4c" d="M471,102 l0,16 -3,0 0,-16 -4,0 0,18 -3,0 0,-18 -3,0 0,19 -3,0 0,-19 -3,0 0,23 -3,0 0,-23 -4,0 0,27 -3,0 0,-27 -3,0 0,32 -3,0 0,-32 -3,0 0,38 -3,0 -30,-27 0,-32 30,-27 3,0 0,38 3,0 0,-32 3,0 0,32 3,0 0,-27 3,0 0,27 4,0 0,-23 3,0 0,23 3,0 0,-19 3,0 0,19 3,0 0,-18 3,0 0,18 4,0 0,-16 3,0 0,16 3,0 0,-16 3,0 0,16 3,0 0,-18 3,0 0,18 4,0 0,-19 3,0 0,19 3,0 0,-23 3,0 0,23 3,0 0,-27 3,0 0,27 4,0 0,-32 3,0 0,32 3,0 0,-38 3,0 29,27 0,32 -29,27 -3,0 0,-38 -3,0 0,32 -3,0 0,-32 -4,0 0,27 -3,0 0,-27 -3,0 0,23 -3,0 0,-23 -3,0 0,19 -3,0 0,-19 -4,0 0,18 -3,0 0,-18 -3,0 0,16 -3,0 0,-16 -3,0z" /><ellipse style="fill:#4c4c4c" cx="368" cy="97" rx="32" ry="11" /><path style="fill:#4c4c4c" d="M262,102 l0,16 -3,0 0,-16 -3,0 0,18 -3,0 0,-18 -3,0 0,19 -3,0 0,-19 -4,0 0,23 -3,0 0,-23 -3,0 0,27 -3,0 0,-27 -3,0 0,32 -3,0 0,-32 -4,0 0,38 -3,0 -29,-27 0,-32 29,-27 3,0 0,38 4,0 0,-32 3,0 0,32 3,0 0,-27 3,0 0,27 3,0 0,-23 3,0 0,23 4,0 0,-19 3,0 0,19 3,0 0,-18 3,0 0,18 3,0 0,-16 3,0 0,16 3,0 0,-16 4,0 0,16 3,0 0,-18 3,0 0,18 3,0 0,-19 3,0 0,19 4,0 0,-23 3,0 0,23 3,0 0,-27 3,0 0,27 3,0 0,-32 3,0 0,32 4,0 0,-38 3,0 29,27 0,32 -29,27 -3,0 0,-38 -4,0 0,32 -3,0 0,-32 -3,0 0,27 -3,0 0,-27 -3,0 0,23 -3,0 0,-23 -4,0 0,19 -3,0 0,-19 -3,0 0,18 -3,0 0,-18 -3,0 0,16 -4,0 0,-16 -3,0z" /><ellipse style="fill:#4c4c4c" cx="160" cy="97" rx="32" ry="11" /><ellipse style="fill:#999" cx="160" cy="95" rx="32" ry="9" /><path style="fill:#999" d="M262,101 l0,11 -3,0 0,-11 -3,0 0,12 -3,0 0,-12 -3,0 0,13 -3,0 0,-13 -4,0 0,15 -3,0 0,-15 -3,0 0,18 -3,0 0,-18 -3,0 0,22 -3,0 0,-22 -4,0 0,26 -3,0 -29,-19 0,-22 29,-18 3,0 0,25 4,0 0,-22 3,0 0,22 3,0 0,-18 3,0 0,18 3,0 0,-15 3,0 0,15 4,0 0,-12 3,0 0,12 3,0 0,-11 3,0 0,11 3,0 0,-11 3,0 0,11 3,0 0,-11 4,0 0,11 3,0 0,-11 3,0 0,11 3,0 0,-12 3,0 0,12 4,0 0,-15 3,0 0,15 3,0 0,-18 3,0 0,18 3,0 0,-22 3,0 0,22 4,0 0,-25 3,0 29,18 0,22 -29,19 -3,0 0,-26 -4,0 0,22 -3,0 0,-22 -3,0 0,18 -3,0 0,-18 -3,0 0,15 -3,0 0,-15 -4,0 0,13 -3,0 0,-13 -3,0 0,12 -3,0 0,-12 -3,0 0,11 -4,0 0,-11 -3,0z" /><ellipse style="fill:#999" cx="368" cy="95" rx="32" ry="9" /><path style="fill:#999" d="M471,101 l0,11 -3,0 0,-11 -4,0 0,12 -3,0 0,-12 -3,0 0,13 -3,0 0,-13 -3,0 0,15 -3,0 0,-15 -4,0 0,18 -3,0 0,-18 -3,0 0,22 -3,0 0,-22 -3,0 0,26 -3,0 -30,-19 0,-22 30,-18 3,0 0,25 3,0 0,-22 3,0 0,22 3,0 0,-18 3,0 0,18 4,0 0,-15 3,0 0,15 3,0 0,-12 3,0 0,12 3,0 0,-11 3,0 0,11 4,0 0,-11 3,0 0,11 3,0 0,-11 3,0 0,11 3,0 0,-11 3,0 0,11 4,0 0,-12 3,0 0,12 3,0 0,-15 3,0 0,15 3,0 0,-18 3,0 0,18 4,0 0,-22 3,0 0,22 3,0 0,-25 3,0 29,18 0,22 -29,19 -3,0 0,-26 -3,0 0,22 -3,0 0,-22 -4,0 0,18 -3,0 0,-18 -3,0 0,15 -3,0 0,-15 -3,0 0,13 -3,0 0,-13 -4,0 0,12 -3,0 0,-12 -3,0 0,11 -3,0 0,-11 -3,0z" /><ellipse style="fill:#999" cx="576" cy="95" rx="32" ry="9" /><path style="fill:#999" d="M679,101 l0,11 -3,0 0,-11 -3,0 0,12 -3,0 0,-12 -3,0 0,13 -4,0 0,-13 -3,0 0,15 -3,0 0,-15 -3,0 0,18 -3,0 0,-18 -4,0 0,22 -3,0 0,-22 -3,0 0,26 -3,0 -29,-19 0,-22 29,-18 3,0 0,25 3,0 0,-22 3,0 0,22 4,0 0,-18 3,0 0,18 3,0 0,-15 3,0 0,15 3,0 0,-12 4,0 0,12 3,0 0,-11 3,0 0,11 3,0 0,-11 3,0 0,11 3,0 0,-11 4,0 0,11 3,0 0,-11 3,0 0,11 3,0 0,-12 3,0 0,12 3,0 0,-15 3,0 0,15 4,0 0,-18 3,0 0,18 3,0 0,-22 3,0 0,22 3,0 0,-25 3,0 30,18 0,22 -30,19 -3,0 0,-26 -3,0 0,22 -3,0 0,-22 -3,0 0,18 -3,0 0,-18 -4,0 0,15 -3,0 0,-15 -3,0 0,13 -3,0 0,-13 -3,0 0,12 -3,0 0,-12 -3,0 0,11 -4,0 0,-11 -3,0z" /><ellipse style="fill:#999" cx="785" cy="95" rx="32" ry="9" /><ellipse style="fill:#e5e5e5" cx="785" cy="90" rx="32" ry="4" /><ellipse style="fill:#e5e5e5" cx="681" cy="97" rx="72" ry="13" /><ellipse style="fill:#e5e5e5" cx="576" cy="90" rx="32" ry="4" /><ellipse style="fill:#e5e5e5" cx="472" cy="97" rx="72" ry="13" /><ellipse style="fill:#e5e5e5" cx="368" cy="90" rx="32" ry="4" /><ellipse style="fill:#e5e5e5" cx="264" cy="97" rx="72" ry="13" /><ellipse style="fill:#e5e5e5" cx="160" cy="90" rx="32" ry="4" /><path style="fill:#333" d="M726,65 l24,19 0,2 -24,-13 0,5 24,11 0,3 -24,-8 0,5 24,7 -24,-2 0,6 24,-2 -24,7 0,5 24,-8 0,3 -24,11 0,5 24,-13 0,2 -24,19 0,5 25,-22 0,-30 -25,-22 0,5z" /><path style="fill:#333" d="M635,129 l-24,-19 0,-2 24,13 0,-5 -24,-11 0,-3 24,8 0,-5 -24,-7 24,2 0,-6 -24,2 24,-7 0,-5 -24,8 0,-3 24,-11 0,-5 -24,13 0,-2 24,-19 0,-5 -25,22 0,30 25,22 0,-5z" /><path style="fill:#333" d="M518,65 l24,19 0,2 -24,-13 0,5 24,11 0,3 -24,-8 0,5 24,7 -24,-2 0,6 24,-2 -24,7 0,5 24,-8 0,3 -24,11 0,5 24,-13 0,2 -24,19 0,5 25,-22 0,-30 -25,-22 0,5z" /><path style="fill:#333" d="M427,129 l-24,-19 0,-2 24,13 0,-5 -24,-11 0,-3 24,8 0,-5 -24,-7 24,2 0,-6 -24,2 24,-7 0,-5 -24,8 0,-3 24,-11 0,-5 -24,13 0,-2 24,-19 0,-5 -26,22 0,30 26,22 0,-5z" /><path style="fill:#333" d="M219,129 l-24,-19 0,-2 24,13 0,-5 -24,-11 0,-3 24,8 0,-5 -24,-7 24,2 0,-6 -24,2 24,-7 0,-5 -24,8 0,-3 24,-11 0,-5 -24,13 0,-2 24,-19 0,-5 -26,22 0,30 26,22 0,-5z" /><path style="fill:#333" d="M309,65 l24,19 0,2 -24,-13 0,5 24,11 0,3 -24,-8 0,5 24,7 -24,-2 0,6 24,-2 -24,7 0,5 24,-8 0,3 -24,11 0,5 24,-13 0,2 -24,19 0,5 26,-22 0,-30 -26,-22 0,5z" /><path style="fill:#ccc;stroke:#4c4c4c;stroke-width:2" d="M176,125 l641,0 0,15 -641,0 0,-15z" /><path style="fill:#4c7f4c" d="M817,65 l139,0 0,64 -139,0 0,-64z" /><path style="fill:#696" d="M817,65 l139,0 0,43 -139,0 0,-43z" /><path style="fill:#73a673" d="M817,65 l139,0 0,36 -139,0 0,-36z" /><path style="fill:#7fb27f" d="M817,65 l139,0 0,30 -139,0 0,-30z" /><path style="fill:#8cbf8c" d="M817,65 l139,0 0,24 -139,0 0,-24z" /><path style="fill:#9c9" d="M817,65 l139,0 0,18 -139,0 0,-18z" /><path style="fill:#a6d9a6" d="M817,65 l139,0 0,12 -139,0 0,-12z" /><path style="fill:#b2e5b2" d="M817,65 l139,0 0,5 -139,0 0,-5z" /><path style="fill:#696" d="M956,100 l43,0 0,29 -43,0 0,-29z" /><path style="fill:#b2e5b2" d="M956,100 l43,0 0,5 -43,0 0,-5z" /><path style="fill:none;stroke:#4c4c4c;stroke-width:2" d="M817,65 l139,0 0,64 -139,0 0,-64" /><path style="fill:none;stroke:#4c4c4c;stroke-width:2" d="M956,100 l43,0 0,29 -43,0 0,-29" /><path style="fill:#73a673" d="M828,54 l42,0 0,48 -42,0 0,-48z" /><path style="fill:#b2e5b2" d="M828,54 l42,0 0,3 -42,0 0,-3z" /><path style="fill:none;stroke:#4c4c4c;stroke-width:2" d="M828,65 l0,-11 42,0 0,11" /><path style="fill:#99f" d="M814,129 l185,0 0,30 -185,0 0,-30z" /><path style="fill:#9494fa" d="M814,150 l185,-12 0,21 -185,0 0,-9z" /><path style="fill:#8f8ff5" d="M814,151 l185,-12 0,20 -185,0 0,-8z" /><path style="fill:#8a8af0" d="M814,153 l185,-12 0,18 -185,0 0,-6z" /><path style="fill:none;stroke:#4c4c4c;stroke-width:2" d="M814,129 l185,0 0,30 -185,0 0,-30" /><path style="fill:#7f7f7f" d="M144,61 l0,72 -95,0 0,-72 95,0z" /><path style="fill:#999" d="M144,68 l0,58 -95,0 0,-58 95,0z" /><path style="fill:#b2b2b2" d="M144,75 l0,44 -95,0 0,-44 95,0z" /><path style="fill:#ccc" d="M144,82 l0,30 -95,0 0,-30 95,0z" /><path style="fill:#e5e5e5" d="M144,89 l0,16 -95,0 0,-16 95,0z" /><path style="fill:none;stroke:#4c4c4c;stroke-width:2" d="M144,61 l0,72 -95,0 0,-72 95,0" /><path style="fill:#9c9" d="M58,97 l118,0 0,64 -118,0 0,-64z" /><path style="fill:#94c794" d="M58,143 l118,-27 0,45 -118,0 0,-18z" /><path style="fill:#8fc28f" d="M58,145 l118,-27 0,43 -118,0 0,-16z" /><path style="fill:#8abd8a" d="M58,149 l118,-27 0,39 -118,0 0,-12z" /><path style="fill:none;stroke:#4c4c4c;stroke-width:2" d="M58,97 l118,0 0,64 -118,0 0,-64" /><path style="fill:#9c9" d="M0,85 l58,0 0,68 -58,0 0,-68z" /><path style="fill:#94c794" d="M0,133 l58,-28 0,48 -58,0 0,-20z" /><path style="fill:#8fc28f" d="M0,136 l58,-28 0,45 -58,0 0,-17z" /><path style="fill:#8abd8a" d="M0,141 l58,-29 0,41 -58,0 0,-12z" /><path style="fill:none;stroke:#4c4c4c;stroke-width:2" d="M0,85 l58,0 0,68 -58,0 0,-68" /><path style="fill:#9c9" d="M336,4 l67,0 0,45 -67,0 0,-45z" /><path style="fill:#8cbf8c" d="M343,4 l53,0 0,45 -53,0 0,-45z" /><path style="fill:#7fb27f" d="M358,4 l23,0 0,45 -23,0 0,-45z" /><path style="fill:#7f7f7f" d="M86,4 l30,0 0,60 -30,0 0,-60z" /><path style="fill:#999" d="M89,4 l24,0 0,60 -24,0 0,-60z" /><path style="fill:#b2b2b2" d="M92,4 l18,0 0,60 -18,0 0,-60z" /><path style="fill:#ccc" d="M95,4 l12,0 0,60 -12,0 0,-60z" /><path style="fill:#e5e5e5" d="M98,4 l6,0 0,60 -6,0 0,-60z" /><path style="fill:none;stroke:#4c4c4c;stroke-width:2" d="M86,4 l30,0 0,60 -30,0 0,-60" /><path style="fill:none;stroke:#4c4c4c;stroke-width:2" d="M336,33 l0,-29 67,0 0,29" /><path style="fill:#9c9" d="M544,4 l67,0 0,45 -67,0 0,-45z" /><path style="fill:#8cbf8c" d="M552,4 l52,0 0,45 -52,0 0,-45z" /><path style="fill:#7fb27f" d="M566,4 l24,0 0,45 -24,0 0,-45z" /><path style="fill:none;stroke:#4c4c4c;stroke-width:2" d="M544,33 l0,-29 67,0 0,29" /></svg>