<!DOCTYPE svg PUBLIC "-//W3C//DTD SVG 20000303 Stylable//EN" "http://www.w3.org/TR/2000/03/WD-SVG-20000303/DTD/svg-20000303-stylable.dtd"[]><svg xmlns="http://www.w3.org/2000/svg" width="411px" height="999px" viewBox="0 0 376 998"><path style="fill:#727f7f" d="M299,886 l0,-389 30,-83 6,-41 0,-218 -10,-46 -18,-37 -31,-35 -37,-25 -43,-12 -43,0 -42,13 -38,24 -31,35 -18,37 -10,46 0,218 6,41 30,83 0,389 9,32 16,28 23,24 28,16 32,9 33,0 31,-9 29,-16 23,-24 16,-28 9,-32z" /><path style="fill:#7a8787" d="M290,886 l0,-389 28,-84 5,-41 1,-217 -10,-47 -16,-37 -29,-34 -35,-25 -39,-12 -40,0 -39,12 -36,25 -28,34 -16,37 -10,47 0,217 5,41 29,84 0,389 7,32 16,28 21,23 26,17 30,8 30,0 29,-8 27,-17 21,-23 15,-28 8,-32z" /><path style="fill:#828f8f" d="M281,886 l0,-389 26,-84 5,-41 0,-217 -8,-47 -16,-37 -26,-34 -32,-25 -37,-12 -37,0 -36,12 -32,25 -27,34 -15,37 -8,47 0,217 5,41 25,84 0,389 8,32 14,28 20,23 24,17 27,8 28,0 27,-8 24,-17 20,-23 14,-28 7,-32z" /><path style="fill:#899696" d="M272,886 l0,-389 24,-84 5,-41 0,-217 -8,-47 -14,-37 -24,-34 -30,-25 -33,-12 -34,0 -33,12 -30,25 -24,34 -14,37 -8,47 0,217 5,41 23,84 0,389 7,32 13,28 18,23 22,17 25,8 50,-8 23,-17 18,-23 13,-28 6,-32z" /><path style="fill:#919e9e" d="M263,886 l0,-389 22,-84 4,-41 0,-217 -7,-47 -13,-37 -21,-34 -28,-25 -30,-12 -31,0 -30,12 -27,25 -22,34 -12,37 -7,47 0,217 4,41 21,84 0,389 7,32 11,28 17,23 42,25 24,0 42,-25 17,-23 11,-28 6,-32z" /><path style="fill:#99a6a6" d="M254,886 l0,-389 20,-84 3,-41 1,-217 -7,-47 -11,-37 -20,-34 -24,-25 -27,-12 -28,0 -27,12 -24,25 -20,34 -11,37 -7,47 0,217 4,41 19,84 0,389 6,32 10,28 15,23 39,25 20,0 39,-25 15,-23 10,-28 5,-32z" /><path style="fill:#596666" d="M299,497 l-249,0 -31,-83 311,0 -31,83z" /><path style="fill:#616e6e" d="M290,497 l-230,0 -29,-83 288,0 -29,83z" /><path style="fill:#687575" d="M281,497 l-213,0 -26,-83 266,0 -27,83z" /><path style="fill:#707d7d" d="M272,497 l-195,0 -24,-83 244,0 -25,83z" /><path style="fill:#788585" d="M263,497 l-177,0 -22,-83 222,0 -23,83z" /><path style="fill:#7f8c8c" d="M254,497 l-159,0 -20,-83 200,0 -21,83z" /><path style="fill:none;stroke:#4c4c4c;stroke-width:2" d="M299,886 l0,-389 30,-83 6,-41 0,-218 -10,-46 -18,-37 -31,-35 -37,-25 -43,-12 -43,0 -42,13 -38,24 -31,35 -18,37 -10,46 0,218 6,41 30,83 0,389 9,32 16,28 23,24 28,16 32,9 33,0 31,-9 29,-16 23,-24 16,-28 9,-32" /><path style="fill:none;stroke:#a5b2b2;stroke-width:2" d="M14,155 l321,0" /><path style="fill:#727f7f;stroke:#4c4c4c;stroke-width:2" d="M268,887 l11,2 31,18 11,19 26,14 3,13 -24,42 -13,3 -25,-14 -22,-1 -30,-17 -8,-9 -6,-10 -3,-11 0,-11 3,-11 6,-10 8,-8 10,-6 11,-3 11,0z" /><path style="fill:#727f7f;stroke:#4c4c4c;stroke-width:2" d="M122,957 l-8,8 -30,18 -22,1 -25,14 -13,-3 -24,-42 3,-13 25,-15 12,-18 30,-18 11,-2 12,-1 11,3 10,6 8,9 6,10 3,11 0,11 -3,11 -6,10z" /><path style="fill:#7d8a8a" d="M260,887 l5,0 43,24 11,18 26,14 4,12 -22,38 -13,3 -25,-15 -21,-1 -42,-25 -3,-5 -2,-7 -2,-9 0,-10 3,-10 5,-10 7,-7 10,-6 9,-2 7,-2z" /><path style="fill:#7d8a8a" d="M126,950 l-2,5 -42,24 -21,2 -26,14 -13,-2 -21,-38 4,-13 25,-14 12,-18 42,-24 6,0 6,2 10,3 9,5 8,8 5,9 2,10 0,11 -2,9 -2,7z" /><path style="fill:#899696" d="M253,888 l4,-1 48,28 12,16 26,15 5,11 -20,34 -12,2 -25,-15 -21,-2 -48,-28 -2,-4 -1,-6 1,-7 0,-9 2,-9 5,-8 6,-6 8,-6 6,-4 6,-1z" /><path style="fill:#899696" d="M129,943 l-2,4 -47,28 -21,3 -25,15 -13,-2 -19,-34 4,-12 26,-14 13,-17 47,-27 4,0 6,2 7,4 7,5 7,6 4,8 3,9 0,9 0,8 -1,5z" /><path style="fill:#94a1a1" d="M248,889 l3,0 52,30 13,15 26,15 4,10 -17,30 -12,2 -25,-15 -20,-4 -52,-30 -1,-3 0,-5 0,-6 1,-8 2,-8 4,-7 7,-6 5,-4 6,-4 4,-2z" /><path style="fill:#94a1a1" d="M130,938 l-1,3 -52,30 -20,4 -25,15 -12,-2 -17,-29 5,-11 25,-14 14,-16 51,-30 3,1 5,1 6,4 6,5 5,5 4,8 2,7 1,8 0,7 0,4z" /><path style="fill:#a0adad" d="M244,891 l2,-1 55,32 13,15 26,15 5,10 -15,25 -11,1 -25,-15 -20,-5 -55,-32 0,-2 0,-4 0,-5 2,-6 2,-7 4,-7 4,-4 5,-5 4,-3 4,-2z" /><path style="fill:#a0adad" d="M130,934 l0,2 -55,32 -19,4 -26,15 -11,-1 -15,-25 6,-10 25,-15 14,-14 55,-32 2,1 4,2 4,3 5,4 5,5 3,6 2,7 1,6 0,6 0,4z" /><path style="fill:#abb8b8" d="M240,893 l1,0 58,33 13,14 26,15 6,8 -12,22 -11,-1 -25,-14 -19,-6 -58,-32 0,-2 0,-4 2,-3 0,-6 2,-6 3,-5 4,-4 4,-3 3,-4 3,-2z" /><path style="fill:#abb8b8" d="M130,929 l0,2 -57,33 -19,5 -26,15 -10,0 -13,-21 6,-9 26,-15 14,-13 57,-33 2,0 3,2 2,3 5,3 4,5 3,5 1,5 1,6 1,4 0,3z" /><path style="fill:#b7c4c4" d="M236,897 l1,-2 60,35 14,13 25,15 7,8 -10,17 -11,-2 -25,-14 -19,-6 -59,-34 0,-1 1,-3 0,-3 2,-5 1,-4 3,-5 3,-3 3,-3 2,-2 2,-1z" /><path style="fill:#b7c4c4" d="M130,925 l0,1 -59,34 -19,6 -25,15 -11,1 -10,-17 7,-8 25,-15 15,-13 59,-34 1,1 2,1 2,3 4,3 3,3 2,4 2,4 0,5 1,3 1,3z" /><path style="fill:#c2cfcf" d="M233,899 l1,0 60,35 16,12 25,14 7,8 -8,13 -10,-3 -25,-14 -18,-7 -61,-35 0,-1 2,-1 0,-3 0,-3 1,-4 2,-2 2,-4 3,-2 2,-1 1,-2z" /><path style="fill:#c2cfcf" d="M129,921 l0,1 -60,34 -18,7 -26,15 -10,2 -7,-13 7,-7 25,-15 15,-12 61,-35 0,1 1,1 3,2 2,2 2,2 2,4 1,3 1,3 -1,3 2,2z" /><path style="fill:#cedbdb" d="M231,903 l0,-1 61,35 16,11 25,15 7,7 -6,9 -8,-3 -25,-15 -18,-8 -62,-35 2,0 -1,-2 0,-2 1,-2 1,-2 1,-2 1,-2 2,-2 1,0 2,-1z" /><path style="fill:#cedbdb" d="M127,917 l1,0 -62,36 -17,7 -26,15 -9,3 -5,-9 7,-6 26,-15 15,-12 62,-35 -1,1 2,0 2,2 1,1 2,2 1,2 0,2 1,3 0,1 0,2z" /><path style="fill:#d8e5e5" d="M127,913 l0,0 -63,36 -17,9 -25,15 -9,4 -3,-5 8,-6 25,-15 17,-10 62,-37 1,0 1,1 0,1 0,1 1,1 0,1 1,1 0,1 1,1 0,1z" /><path style="fill:#d8e5e5" d="M226,904 l1,0 63,37 17,11 25,14 8,6 -3,5 -9,-4 -25,-15 -18,-9 -63,-36 1,0 0,-1 0,-1 1,-1 0,-1 1,-1 1,-1 0,-1 1,-1 -1,-1z" /><path style="fill:none;stroke:#727f7f;stroke-width:2" d="M347,940 l-35,58" /><path style="fill:none;stroke:#727f7f;stroke-width:2" d="M310,907 l-44,76" /><path style="fill:none;stroke:#727f7f;stroke-width:2" d="M321,926 l-33,58" /><path style="fill:none;stroke:#727f7f;stroke-width:2" d="M37,998 l-34,-58" /><path style="fill:none;stroke:#727f7f;stroke-width:2" d="M84,983 l-44,-76" /><path style="fill:none;stroke:#727f7f;stroke-width:2" d="M62,984 l-34,-58" /><path style="fill:#727f7f" d="M323,339 l6,-2 18,0 9,7 15,0 5,7 0,34 -5,7 -14,0 -10,7 -18,0 -6,-2 -5,-4 -4,-6 -3,-7 -1,-8 0,-8 1,-8 3,-7 4,-6 5,-4z" /><path style="fill:#7d8a8a" d="M319,342 l3,-2 25,0 9,7 15,0 5,6 0,30 -5,7 -15,0 -9,6 -25,0 -3,-2 -2,-4 -4,-5 -2,-6 -1,-7 -1,-8 2,-7 2,-6 4,-5 2,-4z" /><path style="fill:#899696" d="M317,345 l1,-2 28,0 10,6 15,0 5,5 0,28 -5,5 -15,0 -9,6 -29,0 -2,-2 -2,-3 -1,-5 -2,-6 -1,-5 0,-7 1,-6 1,-6 2,-5 3,-3z" /><path style="fill:#94a1a1" d="M315,348 l1,-1 30,0 10,4 15,0 5,5 0,24 -5,5 -15,0 -10,5 -30,0 -1,-2 -2,-2 -1,-5 -2,-5 0,-5 0,-6 1,-6 1,-4 1,-4 2,-3z" /><path style="fill:#a0adad" d="M313,351 l1,-2 33,0 9,5 15,0 5,4 -1,21 -4,4 -15,0 -10,4 -32,0 -1,-2 -1,-2 -1,-3 -1,-5 0,-4 0,-6 0,-4 1,-5 1,-3 1,-2z" /><path style="fill:#abb8b8" d="M312,353 l1,0 33,-1 10,4 15,0 5,3 0,18 -5,3 -15,0 -10,3 -33,1 -1,-1 0,-2 -1,-3 -1,-4 0,-4 0,-4 0,-4 1,-3 1,-3 0,-3z" /><path style="fill:#b7c4c4" d="M312,357 l0,-1 34,-1 10,4 15,0 5,2 0,14 -5,3 -15,0 -10,3 -34,0 0,-1 -1,-2 0,-2 -1,-3 0,-3 -1,-4 1,-3 1,-3 0,-2 1,-1z" /><path style="fill:#c2cfcf" d="M311,359 l0,0 35,0 10,2 15,0 5,2 0,11 -5,1 -15,0 -10,3 -35,0 0,-1 0,-1 -1,-2 0,-2 -1,-2 1,-3 0,-3 0,-2 1,-1 0,-2z" /><ellipse style="fill:#cedbdb" cx="343" cy="368" rx="33" ry="6" /><ellipse style="fill:#d8e5e5" cx="342" cy="368" rx="33" ry="4" /><path style="fill:none;stroke:#4c4c4c;stroke-width:2" d="M323,339 l6,-2 18,0 9,7 15,0 5,7 0,34 -5,7 -14,0 -10,7 -18,0 -6,-2 -5,-4 -4,-6 -3,-7 -1,-8 0,-8 1,-8 3,-7 4,-6 5,-4" /><path style="fill:none;stroke:#727f7f;stroke-width:2" d="M371,344 l0,48" /><path style="fill:none;stroke:#727f7f;stroke-width:2" d="M347,337 l0,62" /><path style="fill:none;stroke:#727f7f;stroke-width:2" d="M356,344 l1,48" /><ellipse style="fill:#8c9999" cx="66" cy="217" rx="24" ry="36" /><ellipse style="fill:#a5b2b2" cx="59" cy="217" rx="14" ry="21" /><path style="fill:#4c4c4c" d="M246,870 l0,-373 17,-84 3,-41 0,-217 -6,-47 -10,-37 -17,-34 -22,-25 -24,-12 -24,0 -25,12 -21,25 -17,34 -10,37 -6,47 0,217 3,41 17,84 0,373 4,24 -105,59 27,42 95,-53 23,28 18,9 18,0 34,-25 7,-12 95,53 26,-42 -104,-59 4,-24z" /><path style="fill:#666" d="M235,870 l0,-373 15,-84 2,-41 1,-149 -154,0 -2,149 3,41 15,84 0,373 2,16 5,15 8,36 8,17 14,16 15,9 16,0 15,-9 14,-16 7,-17 9,-36 5,-15 2,-16z" /><path style="fill:#7f7f7f" d="M92,207 l171,0 0,16 -171,0 0,-16z" /><path style="fill:#696" d="M118,88 l10,0 0,119 -10,0 0,-119z" /><path style="fill:#696" d="M133,88 l11,0 0,119 -11,0 0,-119z" /><path style="fill:#696" d="M149,88 l10,0 0,119 -10,0 0,-119z" /><path style="fill:#696" d="M164,88 l11,0 0,119 -11,0 0,-119z" /><path style="fill:#696" d="M180,88 l10,0 0,119 -10,0 0,-119z" /><path style="fill:#696" d="M195,88 l11,0 0,119 -11,0 0,-119z" /><path style="fill:#696" d="M211,88 l10,0 0,119 -10,0 0,-119z" /><path style="fill:#696" d="M226,88 l11,0 0,119 -11,0 0,-119z" /><path style="fill:#9f9" d="M229,88 l4,0 0,119 -4,0 0,-119z" /><path style="fill:#9f9" d="M214,88 l4,0 0,119 -4,0 0,-119z" /><path style="fill:#9f9" d="M198,88 l4,0 0,119 -4,0 0,-119z" /><path style="fill:#9f9" d="M183,88 l4,0 0,119 -4,0 0,-119z" /><path style="fill:#9f9" d="M167,88 l4,0 0,119 -4,0 0,-119z" /><path style="fill:#9f9" d="M152,88 l4,0 0,119 -4,0 0,-119z" /><path style="fill:#9f9" d="M136,88 l4,0 0,119 -4,0 0,-119z" /><path style="fill:#9f9" d="M121,88 l4,0 0,119 -4,0 0,-119z" /><path style="fill:#4c4c4c" d="M118,233 l10,0 0,-10 -10,0 0,10z" /><path style="fill:#4c4c4c" d="M133,233 l11,0 0,-10 -11,0 0,10z" /><path style="fill:#4c4c4c" d="M149,233 l10,0 0,-10 -10,0 0,10z" /><path style="fill:#4c4c4c" d="M164,233 l11,0 0,-10 -11,0 0,10z" /><path style="fill:#4c4c4c" d="M180,233 l10,0 0,-10 -10,0 0,10z" /><path style="fill:#4c4c4c" d="M195,233 l11,0 0,-10 -11,0 0,10z" /><path style="fill:#4c4c4c" d="M211,233 l10,0 0,-10 -10,0 0,10z" /><path style="fill:#4c4c4c" d="M226,233 l11,0 0,-10 -11,0 0,10z" /><path style="fill:#7f7f7f" d="M250,71 l-4,-8 -142,0 -4,8 150,0z" /><path style="fill:none;stroke:#0c1919;stroke-width:2" d="M187,0 l-24,0 -25,12 -21,25 -17,34 -10,37 -6,47 0,217 3,41 17,84 0,373 4,24 -105,59 27,42" /><path style="fill:none;stroke:#0c1919;stroke-width:2" d="M125,942 l6,12 17,16" /><path style="fill:none;stroke:#d8e5e5;stroke-width:2" d="M30,995 l95,-53" /><path style="fill:none;stroke:#d8e5e5;stroke-width:2" d="M148,970 l18,9 18,0 18,-9 16,-16 7,-12 95,53 26,-42 -104,-59 1,-8 3,-16 0,-373 17,-84 3,-41 0,-217 -6,-47 -10,-37 -17,-34 -22,-25 -24,-12" /><path style="fill:#669" d="M200,57 l-20,-37 -42,0 -20,37 82,0z" /><path style="fill:none;stroke:#b2b2b2;stroke-width:2" d="M86,393 l177,0" /><path style="fill:#630" d="M129,249 l-6,-1 0,632 6,-1 0,-630z" /><path style="fill:#6b3300" d="M134,249 l-10,-1 0,632 10,-2 0,-629z" /><path style="fill:#703300" d="M139,249 l-10,0 0,630 10,-2 0,-628z" /><path style="fill:#733300" d="M144,250 l-10,-1 0,629 10,-2 0,-626z" /><path style="fill:#783300" d="M149,250 l-10,-1 0,628 10,-2 0,-625z" /><path style="fill:#7d3300" d="M153,251 l-9,-1 0,626 9,-2 0,-623z" /><path style="fill:#823300" d="M158,251 l-9,-1 0,625 9,-2 0,-622z" /><path style="fill:#873300" d="M163,252 l-10,-1 0,623 10,-2 0,-620z" /><path style="fill:#8c3300" d="M168,252 l-10,-1 0,622 10,-1 0,-620z" /><path style="fill:#8f3300" d="M173,253 l-10,-1 0,620 10,-1 0,-618z" /><path style="fill:#943300" d="M168,252 l7,1 0,617 -7,2 0,-620z" /><path style="fill:#930" d="M173,253 l2,0 0,617 -2,1 0,-618z" /><path style="fill:#630" d="M220,249 l7,-1 0,632 -7,-2 0,-629z" /><path style="fill:#6b3300" d="M215,249 l10,-1 0,631 -10,-1 0,-629z" /><path style="fill:#703300" d="M210,250 l10,-1 0,629 -10,-1 0,-627z" /><path style="fill:#733300" d="M205,250 l10,-1 0,629 -10,-2 0,-626z" /><path style="fill:#783300" d="M200,251 l10,-1 0,627 -10,-2 0,-624z" /><path style="fill:#7d3300" d="M196,251 l9,-1 0,626 -9,-2 0,-623z" /><path style="fill:#823300" d="M191,252 l9,-1 0,624 -9,-2 0,-621z" /><path style="fill:#873300" d="M186,252 l10,-1 0,623 -10,-2 0,-620z" /><path style="fill:#8c3300" d="M181,253 l10,-1 0,621 -10,-2 0,-618z" /><path style="fill:#8f3300" d="M176,253 l10,-1 0,620 -10,-2 0,-617z" /><path style="fill:#943300" d="M181,253 l-6,0 0,617 6,1 0,-618z" /><path style="fill:#930" d="M176,253 l-1,0 0,617 1,0 0,-617z" /><path style="fill:none;stroke:#c63;stroke-width:2" d="M123,290 l52,7 51,-7" /><path style="fill:none;stroke:#c63;stroke-width:2" d="M123,348 l52,7 51,-7" /><path style="fill:none;stroke:#c63;stroke-width:2" d="M123,406 l52,8 51,-8" /><path style="fill:none;stroke:#c63;stroke-width:2" d="M123,464 l52,8 51,-8" /><path style="fill:none;stroke:#c63;stroke-width:2" d="M123,522 l52,8 51,-8" /><path style="fill:none;stroke:#c63;stroke-width:2" d="M123,580 l52,8 51,-8" /><path style="fill:none;stroke:#c63;stroke-width:2" d="M123,638 l52,8 51,-8" /><path style="fill:none;stroke:#c63;stroke-width:2" d="M123,696 l52,8 51,-8" /><path style="fill:#7f7f7f" d="M168,995 l-14,-291 41,0 -13,291 -14,0z" /><path style="fill:#999" d="M170,995 l-11,-291 31,0 -10,291 -10,0z" /><path style="fill:#b2b2b2" d="M172,995 l-7,-291 20,0 -7,291 -6,0z" /><path style="fill:#ccc" d="M173,995 l-3,-291 10,0 -3,291 -4,0z" /><path style="fill:#e5e5e5" d="M174,995 l-1,-291 4,0 -1,291 -2,0z" /><path style="fill:#4c4c7f" d="M196,57 l-20,-33 -32,0 -19,33 71,0z" /><path style="fill:#99c" d="M222,57 l-12,-21 -23,0 -12,21 47,0z" /><path style="fill:none;stroke:#c63;stroke-width:2" d="M180,734 l46,7" /><path style="fill:none;stroke:#c63;stroke-width:2" d="M180,771 l46,6" /><path style="fill:none;stroke:#c63;stroke-width:2" d="M180,807 l46,6" /><path style="fill:none;stroke:#c63;stroke-width:2" d="M180,843 l46,6" /><path style="fill:none;stroke:#c63;stroke-width:2" d="M164,745 l-41,6" /><path style="fill:none;stroke:#c63;stroke-width:2" d="M164,781 l-41,6" /><path style="fill:none;stroke:#c63;stroke-width:2" d="M164,817 l-41,6" /></svg>