<!DOCTYPE svg PUBLIC "-//W3C//DTD SVG 20000303 Stylable//EN" "http://www.w3.org/TR/2000/03/WD-SVG-20000303/DTD/svg-20000303-stylable.dtd"[]><svg xmlns="http://www.w3.org/2000/svg" width="412px" height="999px" viewBox="0 0 377 999"><path style="fill:#727f7f" d="M300,885 l0,-388 30,-84 5,-41 1,-217 -11,-47 -17,-36 -31,-35 -38,-25 -42,-12 -43,0 -43,13 -37,24 -31,35 -18,36 -10,47 0,217 6,41 30,84 0,388 9,32 16,29 23,23 28,16 32,9 33,0 31,-9 29,-16 23,-23 16,-29 9,-32z" /><path style="fill:#7a8787" d="M291,885 l0,-389 28,-83 5,-41 0,-217 -9,-47 -16,-37 -29,-34 -35,-25 -39,-12 -40,0 -40,12 -35,25 -28,34 -16,37 -10,47 0,217 5,41 28,83 0,389 8,32 16,28 21,23 26,17 29,8 31,0 29,-8 26,-17 22,-23 15,-28 8,-32z" /><path style="fill:#828f8f" d="M282,885 l0,-389 26,-83 5,-41 0,-217 -9,-47 -15,-37 -26,-34 -33,-25 -36,-12 -37,0 -36,12 -32,25 -27,34 -15,37 -8,47 0,217 5,41 25,83 0,389 8,32 14,28 19,23 25,17 27,8 28,0 26,-8 25,-17 20,-23 14,-28 7,-32z" /><path style="fill:#899696" d="M273,885 l0,-389 24,-83 4,-41 0,-217 -8,-47 -13,-37 -24,-34 -30,-25 -33,-12 -35,0 -32,12 -30,25 -24,34 -14,37 -8,47 0,217 5,41 23,83 0,389 7,32 13,28 18,23 22,17 25,8 50,-8 22,-17 19,-23 12,-28 7,-32z" /><path style="fill:#919e9e" d="M264,885 l0,-389 22,-83 4,-41 0,-217 -7,-47 -13,-37 -22,-34 -27,-25 -30,-12 -31,0 -30,12 -27,25 -22,34 -12,37 -8,47 0,217 5,41 21,83 0,389 7,32 11,28 16,23 43,25 23,0 43,-25 17,-23 11,-28 6,-32z" /><path style="fill:#99a6a6" d="M255,885 l0,-389 19,-83 4,-41 0,-217 -6,-47 -11,-37 -20,-34 -25,-25 -26,-12 -28,0 -27,12 -25,25 -19,34 -11,37 -7,47 0,217 4,41 19,83 0,389 6,32 10,28 15,23 38,25 21,0 38,-25 15,-23 11,-28 5,-32z" /><path style="fill:#a0adad" d="M246,885 l0,-389 17,-83 3,-41 1,-217 -6,-47 -10,-37 -17,-34 -22,-25 -24,-12 -25,0 -24,12 -21,25 -17,34 -10,37 -6,47 0,217 3,41 17,83 0,389 5,32 9,28 13,23 34,25 19,0 34,-25 13,-23 9,-28 5,-32z" /><path style="fill:#abb8b8" d="M237,885 l0,-389 15,-83 3,-41 0,-217 -5,-47 -8,-37 -16,-34 -19,-25 -20,-12 -22,0 -21,12 -19,25 -15,34 -9,37 -5,47 0,217 3,41 15,83 0,389 4,32 8,28 26,40 16,8 16,0 29,-25 12,-23 8,-28 4,-32z" /><path style="fill:#b2bfbf" d="M228,885 l0,-389 13,-83 3,-41 0,-217 -5,-47 -7,-37 -13,-34 -16,-25 -18,-12 -19,0 -17,12 -16,25 -14,34 -7,37 -4,47 0,217 2,41 13,83 0,389 4,32 7,28 22,40 13,8 14,0 25,-25 10,-23 7,-28 3,-32z" /><path style="fill:#bac7c7" d="M219,885 l0,-389 11,-83 2,-41 0,-217 -4,-47 -6,-37 -11,-34 -13,-25 -15,-12 -15,0 -15,12 -13,25 -11,34 -6,37 -4,47 0,217 2,41 11,83 0,389 3,32 6,28 18,40 11,8 11,0 22,-25 7,-23 6,-28 3,-32z" /><ellipse style="fill:#c2cfcf" cx="176" cy="496" rx="45" ry="496" /><ellipse style="fill:#c9d6d6" cx="175" cy="496" rx="33" ry="496" /><ellipse style="fill:#d1dede" cx="176" cy="496" rx="22" ry="496" /><ellipse style="fill:#d8e5e5" cx="175" cy="497" rx="10" ry="497" /><path style="fill:#596666" d="M300,497 l-249,0 -31,-83 311,0 -31,83z" /><path style="fill:#616e6e" d="M291,496 l-231,0 -28,-82 288,0 -29,82z" /><path style="fill:#687575" d="M282,496 l-213,0 -26,-82 266,0 -27,82z" /><path style="fill:#707d7d" d="M273,496 l-195,0 -24,-82 244,0 -25,82z" /><path style="fill:#788585" d="M264,496 l-177,0 -22,-82 221,0 -22,82z" /><path style="fill:#7f8c8c" d="M255,496 l-159,0 -20,-82 199,0 -20,82z" /><path style="fill:#879494" d="M246,496 l-141,0 -18,-82 177,0 -18,82z" /><path style="fill:#919e9e" d="M238,496 l-124,0 -15,-82 154,0 -15,82z" /><path style="fill:#99a6a6" d="M229,496 l-106,0 -14,-82 133,0 -13,82z" /><path style="fill:#a0adad" d="M220,496 l-88,0 -11,-82 110,0 -11,82z" /><path style="fill:#a8b5b5" d="M211,496 l-70,0 -9,-82 87,0 -8,82z" /><path style="fill:#b0bdbd" d="M202,496 l-52,0 -7,-82 65,0 -6,82z" /><path style="fill:#b7c4c4" d="M193,496 l-35,0 -4,-82 43,0 -4,82z" /><path style="fill:#bfcccc" d="M184,497 l-17,0 -2,-83 21,0 -2,83z" /><path style="fill:none;stroke:#4c4c4c;stroke-width:2" d="M300,885 l0,-388 30,-84 5,-41 1,-217 -11,-47 -17,-36 -31,-35 -38,-25 -42,-12 -43,0 -43,13 -37,24 -31,35 -18,36 -10,47 0,217 6,41 30,84 0,388 9,32 16,29 23,23 28,16 32,9 33,0 31,-9 29,-16 23,-23 16,-29 9,-32" /><path style="fill:none;stroke:#a5b2b2;stroke-width:2" d="M15,155 l321,0" /><path style="fill:#727f7f;stroke:#4c4c4c;stroke-width:2" d="M269,887 l12,1 30,19 10,19 27,13 3,13 -24,43 -13,4 -26,-15 -22,-2 -30,-18 -7,-7 -6,-11 -4,-11 0,-11 4,-12 6,-9 7,-7 9,-8 14,-1 10,0z" /><path style="fill:#727f7f;stroke:#4c4c4c;stroke-width:2" d="M122,957 l-7,7 -30,18 -22,2 -26,15 -13,-4 -24,-43 3,-13 26,-15 12,-17 29,-19 12,-1 12,0 10,1 11,6 7,9 6,9 4,12 0,11 -4,11 -6,11z" /><path style="fill:#7d8a8a" d="M261,887 l5,0 43,24 11,16 26,16 4,12 -23,38 -13,2 -24,-15 -22,0 -41,-25 -4,-5 -2,-7 -2,-10 0,-11 4,-10 4,-9 7,-7 9,-6 12,-2 6,-1z" /><path style="fill:#7d8a8a" d="M126,950 l-2,4 -41,24 -22,2 -24,15 -13,-4 -23,-37 4,-11 26,-16 11,-18 43,-22 6,-2 5,2 11,3 8,6 7,7 6,9 4,10 0,11 -4,10 -2,7z" /><path style="fill:#899696" d="M253,887 l6,0 46,27 13,17 26,14 4,10 -19,36 -13,2 -24,-15 -20,-2 -49,-28 -2,-3 -2,-8 2,-8 0,-9 2,-8 4,-9 7,-6 8,-5 5,-4 6,-1z" /><path style="fill:#899696" d="M130,943 l-2,3 -49,28 -20,4 -24,13 -13,-2 -19,-34 4,-10 26,-16 13,-17 47,-25 3,0 6,1 7,4 8,5 7,6 4,8 2,9 2,9 -2,8 0,6z" /><path style="fill:#94a1a1" d="M249,888 l2,0 52,30 13,15 26,15 4,11 -17,30 -11,0 -26,-15 -20,-4 -51,-29 -2,-2 0,-6 0,-6 2,-7 2,-9 4,-6 5,-6 6,-5 5,-4 6,-2z" /><path style="fill:#94a1a1" d="M130,937 l0,4 -52,29 -21,4 -24,15 -11,-2 -19,-30 6,-9 26,-15 13,-17 50,-29 4,1 5,2 6,4 6,3 5,6 4,8 2,7 2,8 0,7 -2,4z" /><path style="fill:#a0adad" d="M243,890 l2,0 57,32 12,15 26,15 6,9 -15,24 -11,2 -26,-15 -19,-5 -56,-32 0,-2 0,-4 0,-5 2,-6 2,-7 4,-6 5,-6 4,-3 6,-4 1,-2z" /><path style="fill:#a0adad" d="M132,933 l0,2 -56,32 -21,3 -24,15 -11,0 -15,-24 6,-11 24,-15 15,-13 56,-34 1,2 2,2 6,4 4,3 5,6 4,6 2,5 2,8 0,5 0,4z" /><path style="fill:#abb8b8" d="M240,892 l2,0 57,34 14,13 26,15 5,9 -11,22 -12,-1 -25,-16 -19,-5 -58,-32 0,-2 0,-3 2,-4 0,-6 2,-5 4,-6 4,-3 3,-5 4,-3 2,-2z" /><path style="fill:#abb8b8" d="M132,927 l0,2 -58,34 -19,5 -26,16 -11,0 -11,-21 5,-9 25,-15 15,-13 57,-34 2,0 2,2 2,3 5,5 4,3 4,6 2,3 0,8 2,4 0,1z" /><path style="fill:#b7c4c4" d="M236,896 l2,-2 60,35 13,14 25,14 8,7 -11,18 -9,-2 -26,-13 -19,-6 -60,-35 2,-4 0,-4 2,-4 0,-3 4,-6 2,-2 3,-4 2,-2 2,-1z" /><path style="fill:#b7c4c4" d="M130,924 l2,2 -60,33 -19,5 -26,16 -9,2 -11,-18 7,-9 25,-12 14,-16 60,-33 0,2 4,0 2,3 3,3 2,3 4,4 0,5 2,4 0,4 0,2z" /><path style="fill:#c2cfcf" d="M234,897 l62,36 15,12 24,14 7,8 -7,13 -10,-2 -26,-15 -18,-8 -60,-33 0,-2 2,0 0,-4 0,-4 0,-3 2,-2 4,-4 2,-1 1,-3 2,-2z" /><path style="fill:#c2cfcf" d="M130,920 l-60,35 -18,8 -26,15 -10,2 -7,-13 7,-8 25,-14 14,-14 62,-34 0,2 3,3 2,1 2,2 2,4 2,3 0,4 0,2 2,2z" /><path style="fill:#cedbdb" d="M232,902 l-1,0 61,35 17,11 26,15 5,5 -5,10 -10,-4 -23,-13 -19,-9 -62,-36 2,0 0,-2 0,-2 0,-1 2,-2 0,-2 2,-2 2,-2 2,0 1,-1z" /><path style="fill:#cedbdb" d="M128,916 l-61,36 -17,7 -26,15 -10,4 -3,-10 5,-7 26,-13 15,-13 62,-36 0,3 1,0 2,1 2,2 2,2 0,2 2,2 0,1 0,2 0,2z" /><path style="fill:#d8e5e5" d="M128,912 l-63,36 -17,9 -26,15 -8,4 -3,-6 7,-6 26,-14 17,-9 61,-38 2,0 0,2 0,2 2,0 0,2 2,2 0,1z" /><path style="fill:#d8e5e5" d="M227,903 l2,0 61,38 17,11 26,12 7,6 -4,6 -7,-4 -26,-15 -17,-9 -63,-36 0,-1 2,-2 0,-2 2,0 0,-2 0,-2z" /><path style="fill:none;stroke:#727f7f;stroke-width:2" d="M348,939 l-35,60" /><path style="fill:none;stroke:#727f7f;stroke-width:2" d="M311,907 l-45,75" /><path style="fill:none;stroke:#727f7f;stroke-width:2" d="M321,926 l-33,58" /><path style="fill:none;stroke:#727f7f;stroke-width:2" d="M39,999 l-36,-60" /><path style="fill:none;stroke:#727f7f;stroke-width:2" d="M85,982 l-44,-75" /><path style="fill:none;stroke:#727f7f;stroke-width:2" d="M63,984 l-34,-58" /><path style="fill:#727f7f" d="M324,339 l5,-3 18,1 10,7 15,0 5,7 0,34 -5,6 -15,0 -10,7 -18,1 -5,-3 -5,-4 -4,-5 -3,-8 -2,-8 0,-7 2,-8 3,-7 4,-6 5,-4z" /><path style="fill:#7d8a8a" d="M320,342 l2,-2 25,0 10,6 15,0 4,6 0,31 -4,6 -15,0 -10,7 -25,0 -2,-3 -3,-3 -3,-5 -2,-6 -2,-7 0,-8 2,-7 2,-7 4,-4 2,-4z" /><path style="fill:#899696" d="M317,345 l2,-2 28,0 10,6 14,0 5,5 0,27 -4,6 -15,0 -10,6 -28,0 -2,-2 -2,-3 -1,-5 -3,-6 -1,-6 0,-6 2,-7 2,-5 1,-5 2,-3z" /><path style="fill:#94a1a1" d="M315,347 l2,-1 30,0 10,5 15,0 4,5 0,24 -4,5 -15,0 -10,5 -30,-1 -2,-1 -1,-3 -2,-4 -1,-5 -1,-6 0,-5 1,-6 2,-5 1,-4 1,-3z" /><path style="fill:#a0adad" d="M314,350 l1,-1 32,0 10,5 15,-1 4,5 0,20 -4,4 -15,0 -10,4 -32,0 -1,-1 -1,-2 -1,-4 -1,-4 -1,-5 0,-5 1,-4 1,-5 1,-3 1,-3z" /><path style="fill:#abb8b8" d="M313,353 l1,-1 33,0 10,4 15,0 4,3 0,18 -4,3 -15,0 -10,3 -33,0 -1,-1 -1,-2 0,-3 -1,-4 -1,-3 0,-4 1,-4 1,-4 0,-3 1,-2z" /><path style="fill:#b7c4c4" d="M312,356 l0,-1 35,0 10,3 15,0 4,3 0,14 -5,2 -14,0 -10,4 -35,0 0,-1 0,-2 -1,-2 0,-4 -1,-3 0,-3 1,-3 1,-3 0,-2 0,-2z" /><path style="fill:#c2cfcf" d="M312,359 l0,-1 35,0 10,2 15,0 4,3 0,10 -4,2 -15,0 -10,2 -35,0 0,0 0,-1 -1,-3 -1,-1 0,-3 0,-2 0,-3 1,-2 1,-2 0,-1z" /><ellipse style="fill:#cedbdb" cx="343" cy="367" rx="33" ry="6" /><ellipse style="fill:#d8e5e5" cx="343" cy="367" rx="33" ry="3" /><path style="fill:none;stroke:#4c4c4c;stroke-width:2" d="M324,339 l5,-3 18,1 10,7 15,0 5,7 0,34 -5,6 -15,0 -10,7 -18,1 -5,-3 -5,-4 -4,-5 -3,-8 -2,-8 0,-7 2,-8 3,-7 4,-6 5,-4" /><path style="fill:none;stroke:#727f7f;stroke-width:2" d="M372,344 l-1,47" /><path style="fill:none;stroke:#727f7f;stroke-width:2" d="M347,337 l0,61" /><path style="fill:none;stroke:#727f7f;stroke-width:2" d="M357,344 l0,47" /><ellipse style="fill:#8c9999" cx="67" cy="217" rx="24" ry="36" /><ellipse style="fill:#a5b2b2" cx="60" cy="217" rx="14" ry="21" /></svg>