<!DOCTYPE svg PUBLIC "-//W3C//DTD SVG 20000303 Stylable//EN" "http://www.w3.org/TR/2000/03/WD-SVG-20000303/DTD/svg-20000303-stylable.dtd"[]><svg width="999px" height="842px" viewBox="0 0 999 833" xmlns="http://www.w3.org/2000/svg"><path style="fill:#000" d="M0,0 l999,0 0,833 -999,0 0,-833z" /><path style="fill:#ccc" d="M25,25 l948,0 0,781 -948,0 0,-781z" /><path style="fill:#333" d="M156,104 l686,0 0,343 -73,0 0,94 -72,0 0,94 -72,0 0,94 -250,0 0,-94 -74,0 0,-94 -72,0 0,-94 -73,0 0,-343z" /><path style="fill:none;stroke:#fff;stroke-width:2" d="M156,447 l73,0" /><path style="fill:none;stroke:#fff;stroke-width:2" d="M229,541 l72,0" /><path style="fill:none;stroke:#fff;stroke-width:2" d="M301,635 l74,0" /><path style="fill:none;stroke:#fff;stroke-width:2" d="M769,447 l73,0" /><path style="fill:none;stroke:#fff;stroke-width:2" d="M697,541 l74,0" /><path style="fill:none;stroke:#fff;stroke-width:2" d="M625,635 l72,0" /><path style="fill:none;stroke:#fff;stroke-width:2" d="M375,729 l250,0" /></svg>