<!DOCTYPE svg PUBLIC "-//W3C//DTD SVG 20000303 Stylable//EN" "http://www.w3.org/TR/2000/03/WD-SVG-20000303/DTD/svg-20000303-stylable.dtd"[]><svg width="999px" height="188px" viewBox="0 0 999 139" xmlns="http://www.w3.org/2000/svg"><path style="fill:#000" d="M0,0 l999,0 0,139 -999,0 0,-139z" /><path style="fill:#ccc" d="M6,3 l986,0 0,130 -986,0 0,-130z" /><path style="fill:#333" d="M859,17 l114,0 0,59 -13,0 0,15 -11,0 0,14 -13,0 0,17 -42,0 0,-17 -11,0 0,-14 -12,0 0,-15 -12,0 0,-59z" /><path style="fill:#333" d="M25,17 l114,0 0,59 -12,0 0,15 -12,0 0,14 -11,0 0,17 -42,0 0,-17 -13,0 0,-14 -11,0 0,-15 -13,0 0,-59z" /><path style="fill:#333" d="M191,17 l116,0 0,59 -12,0 0,15 -12,0 0,14 -12,0 0,17 -42,0 0,-17 -12,0 0,-14 -12,0 0,-15 -14,0 0,-59z" /><path style="fill:#333" d="M359,17 l114,0 0,59 -12,0 0,15 -12,0 0,14 -12,0 0,17 -42,0 0,-17 -12,0 0,-14 -12,0 0,-15 -12,0 0,-59z" /><path style="fill:#333" d="M525,17 l114,0 0,59 -12,0 0,15 -12,0 0,14 -12,0 0,17 -42,0 0,-17 -12,0 0,-14 -12,0 0,-15 -12,0 0,-59z" /><path style="fill:#333" d="M691,17 l116,0 0,59 -12,0 0,15 -12,0 0,14 -12,0 0,17 -42,0 0,-17 -12,0 0,-14 -12,0 0,-15 -14,0 0,-59z" /><path style="fill:none;stroke:#fff;stroke-width:2" d="M25,76 l13,0" /><path style="fill:none;stroke:#fff;stroke-width:2" d="M38,91 l11,0" /><path style="fill:none;stroke:#fff;stroke-width:2" d="M49,105 l13,0" /><path style="fill:none;stroke:#fff;stroke-width:2" d="M127,76 l12,0" /><path style="fill:none;stroke:#fff;stroke-width:2" d="M115,91 l12,0" /><path style="fill:none;stroke:#fff;stroke-width:2" d="M104,105 l11,0" /><path style="fill:none;stroke:#fff;stroke-width:2" d="M62,122 l42,0" /><path style="fill:none;stroke:#fff;stroke-width:2" d="M191,76 l14,0" /><path style="fill:none;stroke:#fff;stroke-width:2" d="M205,91 l12,0" /><path style="fill:none;stroke:#fff;stroke-width:2" d="M217,105 l12,0" /><path style="fill:none;stroke:#fff;stroke-width:2" d="M295,76 l12,0" /><path style="fill:none;stroke:#fff;stroke-width:2" d="M283,91 l12,0" /><path style="fill:none;stroke:#fff;stroke-width:2" d="M271,105 l12,0" /><path style="fill:none;stroke:#fff;stroke-width:2" d="M229,122 l42,0" /><path style="fill:none;stroke:#fff;stroke-width:2" d="M359,76 l12,0" /><path style="fill:none;stroke:#fff;stroke-width:2" d="M371,91 l12,0" /><path style="fill:none;stroke:#fff;stroke-width:2" d="M383,105 l12,0" /><path style="fill:none;stroke:#fff;stroke-width:2" d="M461,76 l12,0" /><path style="fill:none;stroke:#fff;stroke-width:2" d="M449,91 l12,0" /><path style="fill:none;stroke:#fff;stroke-width:2" d="M437,105 l12,0" /><path style="fill:none;stroke:#fff;stroke-width:2" d="M395,122 l42,0" /><path style="fill:none;stroke:#fff;stroke-width:2" d="M525,76 l12,0" /><path style="fill:none;stroke:#fff;stroke-width:2" d="M537,91 l12,0" /><path style="fill:none;stroke:#fff;stroke-width:2" d="M549,105 l12,0" /><path style="fill:none;stroke:#fff;stroke-width:2" d="M627,76 l12,0" /><path style="fill:none;stroke:#fff;stroke-width:2" d="M615,91 l12,0" /><path style="fill:none;stroke:#fff;stroke-width:2" d="M603,105 l12,0" /><path style="fill:none;stroke:#fff;stroke-width:2" d="M561,122 l42,0" /><path style="fill:none;stroke:#fff;stroke-width:2" d="M691,76 l14,0" /><path style="fill:none;stroke:#fff;stroke-width:2" d="M705,91 l12,0" /><path style="fill:none;stroke:#fff;stroke-width:2" d="M717,105 l12,0" /><path style="fill:none;stroke:#fff;stroke-width:2" d="M795,76 l12,0" /><path style="fill:none;stroke:#fff;stroke-width:2" d="M783,91 l12,0" /><path style="fill:none;stroke:#fff;stroke-width:2" d="M771,105 l12,0" /><path style="fill:none;stroke:#fff;stroke-width:2" d="M729,122 l42,0" /><path style="fill:none;stroke:#fff;stroke-width:2" d="M859,76 l12,0" /><path style="fill:none;stroke:#fff;stroke-width:2" d="M871,91 l12,0" /><path style="fill:none;stroke:#fff;stroke-width:2" d="M883,105 l11,0" /><path style="fill:none;stroke:#fff;stroke-width:2" d="M960,76 l13,0" /><path style="fill:none;stroke:#fff;stroke-width:2" d="M949,91 l11,0" /><path style="fill:none;stroke:#fff;stroke-width:2" d="M936,105 l13,0" /><path style="fill:none;stroke:#fff;stroke-width:2" d="M894,122 l42,0" /></svg>