<!DOCTYPE svg PUBLIC "-//W3C//DTD SVG 20000303 Stylable//EN" "http://www.w3.org/TR/2000/03/WD-SVG-20000303/DTD/svg-20000303-stylable.dtd"[]><svg width="998px" height="156px" viewBox="0 0 999 105" xmlns="http://www.w3.org/2000/svg"><path style="fill:#000" d="M0,0 l999,0 0,105 -999,0 0,-105z" /><path style="fill:#ccc" d="M4,4 l990,0 0,97 -990,0 0,-97z" /><path style="fill:#333" d="M893,14 l86,0 0,43 -9,0 0,12 -9,0 0,12 -8,0 0,12 -33,0 0,-12 -9,0 0,-12 -8,0 0,-12 -10,0 0,-43z" /><path style="fill:#333" d="M769,14 l86,0 0,43 -10,0 0,12 -8,0 0,12 -10,0 0,12 -30,0 0,-12 -10,0 0,-12 -10,0 0,-12 -8,0 0,-43z" /><path style="fill:#333" d="M643,14 l86,0 0,43 -8,0 0,12 -10,0 0,12 -8,0 0,12 -32,0 0,-12 -10,0 0,-12 -8,0 0,-12 -10,0 0,-43z" /><path style="fill:#333" d="M519,14 l86,0 0,43 -10,0 0,12 -8,0 0,12 -10,0 0,12 -30,0 0,-12 -10,0 0,-12 -10,0 0,-12 -8,0 0,-43z" /><path style="fill:#333" d="M393,14 l86,0 0,43 -8,0 0,12 -10,0 0,12 -8,0 0,12 -32,0 0,-12 -10,0 0,-12 -8,0 0,-12 -10,0 0,-43z" /><path style="fill:#333" d="M143,14 l86,0 0,43 -8,0 0,12 -10,0 0,12 -8,0 0,12 -32,0 0,-12 -10,0 0,-12 -8,0 0,-12 -10,0 0,-43z" /><path style="fill:#333" d="M269,14 l86,0 0,43 -10,0 0,12 -8,0 0,12 -10,0 0,12 -30,0 0,-12 -10,0 0,-12 -10,0 0,-12 -8,0 0,-43z" /><path style="fill:#333" d="M19,14 l86,0 0,43 -10,0 0,12 -8,0 0,12 -9,0 0,12 -31,0 0,-12 -10,0 0,-12 -9,0 0,-12 -9,0 0,-43z" /><path style="fill:none;stroke:#fff;stroke-width:2" d="M920,93 l33,0" /><path style="fill:none;stroke:#fff;stroke-width:2" d="M953,81 l8,0" /><path style="fill:none;stroke:#fff;stroke-width:2" d="M961,69 l9,0" /><path style="fill:none;stroke:#fff;stroke-width:2" d="M970,57 l9,0" /><path style="fill:none;stroke:#fff;stroke-width:2" d="M911,81 l9,0" /><path style="fill:none;stroke:#fff;stroke-width:2" d="M903,69 l8,0" /><path style="fill:none;stroke:#fff;stroke-width:2" d="M893,57 l10,0" /><path style="fill:none;stroke:#fff;stroke-width:2" d="M797,93 l30,0" /><path style="fill:none;stroke:#fff;stroke-width:2" d="M827,81 l10,0" /><path style="fill:none;stroke:#fff;stroke-width:2" d="M837,69 l8,0" /><path style="fill:none;stroke:#fff;stroke-width:2" d="M845,57 l10,0" /><path style="fill:none;stroke:#fff;stroke-width:2" d="M787,81 l10,0" /><path style="fill:none;stroke:#fff;stroke-width:2" d="M777,69 l10,0" /><path style="fill:none;stroke:#fff;stroke-width:2" d="M769,57 l8,0" /><path style="fill:none;stroke:#fff;stroke-width:2" d="M671,93 l32,0" /><path style="fill:none;stroke:#fff;stroke-width:2" d="M703,81 l8,0" /><path style="fill:none;stroke:#fff;stroke-width:2" d="M711,69 l10,0" /><path style="fill:none;stroke:#fff;stroke-width:2" d="M721,57 l8,0" /><path style="fill:none;stroke:#fff;stroke-width:2" d="M661,81 l10,0" /><path style="fill:none;stroke:#fff;stroke-width:2" d="M653,69 l8,0" /><path style="fill:none;stroke:#fff;stroke-width:2" d="M643,57 l10,0" /><path style="fill:none;stroke:#fff;stroke-width:2" d="M547,93 l30,0" /><path style="fill:none;stroke:#fff;stroke-width:2" d="M577,81 l10,0" /><path style="fill:none;stroke:#fff;stroke-width:2" d="M587,69 l8,0" /><path style="fill:none;stroke:#fff;stroke-width:2" d="M595,57 l10,0" /><path style="fill:none;stroke:#fff;stroke-width:2" d="M537,81 l10,0" /><path style="fill:none;stroke:#fff;stroke-width:2" d="M527,69 l10,0" /><path style="fill:none;stroke:#fff;stroke-width:2" d="M519,57 l8,0" /><path style="fill:none;stroke:#fff;stroke-width:2" d="M421,93 l32,0" /><path style="fill:none;stroke:#fff;stroke-width:2" d="M171,93 l32,0" /><path style="fill:none;stroke:#fff;stroke-width:2" d="M453,81 l8,0" /><path style="fill:none;stroke:#fff;stroke-width:2" d="M203,81 l8,0" /><path style="fill:none;stroke:#fff;stroke-width:2" d="M461,69 l10,0" /><path style="fill:none;stroke:#fff;stroke-width:2" d="M211,69 l10,0" /><path style="fill:none;stroke:#fff;stroke-width:2" d="M471,57 l8,0" /><path style="fill:none;stroke:#fff;stroke-width:2" d="M221,57 l8,0" /><path style="fill:none;stroke:#fff;stroke-width:2" d="M411,81 l10,0" /><path style="fill:none;stroke:#fff;stroke-width:2" d="M161,81 l10,0" /><path style="fill:none;stroke:#fff;stroke-width:2" d="M403,69 l8,0" /><path style="fill:none;stroke:#fff;stroke-width:2" d="M153,69 l8,0" /><path style="fill:none;stroke:#fff;stroke-width:2" d="M393,57 l10,0" /><path style="fill:none;stroke:#fff;stroke-width:2" d="M143,57 l10,0" /><path style="fill:none;stroke:#fff;stroke-width:2" d="M297,93 l30,0" /><path style="fill:none;stroke:#fff;stroke-width:2" d="M47,93 l31,0" /><path style="fill:none;stroke:#fff;stroke-width:2" d="M327,81 l10,0" /><path style="fill:none;stroke:#fff;stroke-width:2" d="M78,81 l9,0" /><path style="fill:none;stroke:#fff;stroke-width:2" d="M337,69 l8,0" /><path style="fill:none;stroke:#fff;stroke-width:2" d="M87,69 l8,0" /><path style="fill:none;stroke:#fff;stroke-width:2" d="M345,57 l10,0" /><path style="fill:none;stroke:#fff;stroke-width:2" d="M95,57 l10,0" /><path style="fill:none;stroke:#fff;stroke-width:2" d="M287,81 l10,0" /><path style="fill:none;stroke:#fff;stroke-width:2" d="M37,81 l10,0" /><path style="fill:none;stroke:#fff;stroke-width:2" d="M277,69 l10,0" /><path style="fill:none;stroke:#fff;stroke-width:2" d="M28,69 l9,0" /><path style="fill:none;stroke:#fff;stroke-width:2" d="M269,57 l8,0" /><path style="fill:none;stroke:#fff;stroke-width:2" d="M19,57 l9,0" /></svg>