<!DOCTYPE svg PUBLIC "-//W3C//DTD SVG 20000303 Stylable//EN" "http://www.w3.org/TR/2000/03/WD-SVG-20000303/DTD/svg-20000303-stylable.dtd"[]><svg width="999px" height="916px" viewBox="0 0 999 911" xmlns="http://www.w3.org/2000/svg"><path style="fill:#99f" d="M0,87 l825,0 0,822 -825,0 0,-822z" /><path style="fill:#9494fa" d="M0,514 l827,-344 -2,739 -825,0 0,-395z" /><path style="fill:#8f8ff5" d="M0,561 l827,-346 -2,694 -825,0 0,-348z" /><path style="fill:#8a8af0" d="M0,648 l827,-346 -2,607 -825,0 0,-261z" /><path style="fill:#8585eb" d="M0,685 l827,-346 -2,570 -825,0 0,-224z" /><path style="fill:#7f7fe5" d="M0,769 l827,-346 -2,486 -825,0 0,-140z" /><path style="fill:#7a7ae0" d="M0,866 l827,-346 -2,389 -825,0 0,-43z" /><path style="fill:#66c" d="M999,0 l-174,87 0,822 174,-84 0,-825z" /><path style="fill:#fff" d="M261,325 l-114,0 0,39 -64,-64 64,-62 0,44 135,0 281,395 120,0 0,-41 63,62 -63,62 0,-41 -140,0 -282,-394z" /><path style="fill:#fff" d="M261,673 l-114,0 0,-39 -64,64 64,62 0,-43 135,0 281,-396 120,0 0,41 63,-62 -63,-62 0,41 -140,0 -282,394z" /><path style="fill:#ccf" d="M0,87 l825,0 171,-87 -822,0 -174,87z" /><path style="fill:#fff" d="M561,12 l278,0 13,-6 82,10 -124,10 15,-6 -278,0 14,-8z" /><path style="fill:#fff" d="M520,35 l-278,0 -13,6 -85,-11 127,-10 -15,6 278,0 -14,9z" /><path style="fill:#fff" d="M499,45 l276,0 14,-6 83,10 -124,11 14,-9 -277,0 14,-6z" /><path style="fill:#fff" d="M457,66 l-277,0 -13,8 -84,-10 126,-13 -14,9 275,0 -13,6z" /><path style="fill:none;stroke:#66f;stroke-width:2" d="M83,64 l126,-13" /><path style="fill:none;stroke:#66f;stroke-width:2" d="M195,60 l275,0" /><path style="fill:none;stroke:#66f;stroke-width:2" d="M485,51 l14,-6 276,0 14,-6" /><path style="fill:none;stroke:#66f;stroke-width:2" d="M748,60 l14,-9" /><path style="fill:none;stroke:#66f;stroke-width:2" d="M810,26 l15,-6" /><path style="fill:none;stroke:#66f;stroke-width:2" d="M547,20 l14,-8 278,0 13,-6" /><path style="fill:none;stroke:#66f;stroke-width:2" d="M144,30 l127,-10" /><path style="fill:none;stroke:#66f;stroke-width:2" d="M256,26 l278,0" /><path style="fill:none;stroke:#339;stroke-width:2" d="M0,911 l0,-822 174,-87 825,0 0,823 -174,86 -825,0" /></svg>