<!DOCTYPE svg PUBLIC "-//W3C//DTD SVG 20000303 Stylable//EN" "http://www.w3.org/TR/2000/03/WD-SVG-20000303/DTD/svg-20000303-stylable.dtd"[]><svg width="999px" height="212px" viewBox="0 0 999 165" xmlns="http://www.w3.org/2000/svg"><path style="fill:#19197f" d="M0,0 l999,0 0,165 -999,0 0,-165z" /><path style="fill:#99f" d="M16,4 l977,0 0,155 -977,0 0,-155z" /><path style="fill:#9494fa" d="M16,117 l977,-65 0,107 -977,0 0,-42z" /><path style="fill:#8f8ff5" d="M16,123 l977,-67 0,103 -977,0 0,-36z" /><path style="fill:#8a8af0" d="M16,135 l977,-70 0,94 -977,0 0,-24z" /><path style="fill:#99f" d="M9,4 l88,0 0,41 -88,0 0,-41z" /><path style="fill:none;stroke:#ccf;stroke-width:2" d="M9,45 l0,-41 984,0" /><path style="fill:none;stroke:#4c4c4c;stroke-width:2" d="M0,0 l999,0 0,165 -999,0 0,-165" /><path style="fill:#0f0" d="M61,45 l7,0 0,16 -7,0 0,-16z" /><path style="fill:#0f0" d="M52,45 l5,0 0,16 -5,0 0,-16z" /><path style="fill:#99f" d="M41,9 l52,0 0,31 -52,0 0,-31z" /><path style="fill:#99f" d="M9,65 l94,0 0,12 -94,0 0,-12z" /><path style="fill:#99f" d="M9,87 l94,0 0,10 -94,0 0,-10z" /><path style="fill:#99f" d="M9,107 l94,0 0,10 -94,0 0,-10z" /><path style="fill:#99f" d="M9,129 l94,0 0,10 -94,0 0,-10z" /><path style="fill:#99f" d="M9,149 l94,0 0,10 -94,0 0,-10z" /><path style="fill:#ccf" d="M68,36 l9,-11 10,11 -19,0z" /><path style="fill:#ccf" d="M45,36 l12,-11 11,11 -23,0z" /><path style="fill:none;stroke:#4c4cb2;stroke-width:2" d="M41,40 l52,0 0,-31" /><path style="fill:none;stroke:#4c4cb2;stroke-width:2" d="M57,45 l-37,0 0,16" /><path style="fill:none;stroke:#4c4cb2;stroke-width:2" d="M97,45 l-36,0 0,16" /><path style="fill:none;stroke:#4c4cb2;stroke-width:2" d="M9,77 l94,0 0,-12" /><path style="fill:none;stroke:#4c4cb2;stroke-width:2" d="M9,97 l94,0 0,-10" /><path style="fill:none;stroke:#4c4cb2;stroke-width:2" d="M9,117 l94,0 0,-10" /><path style="fill:none;stroke:#4c4cb2;stroke-width:2" d="M9,139 l94,0 0,-10" /><path style="fill:none;stroke:#4c4cb2;stroke-width:2" d="M9,159 l94,0 0,-10" /><path style="fill:none;stroke:#fff;stroke-width:2" d="M41,40 l0,-31 52,0" /><path style="fill:none;stroke:#fff;stroke-width:2" d="M97,45 l0,16 -36,0" /><path style="fill:none;stroke:#fff;stroke-width:2" d="M57,45 l0,16 -37,0" /><path style="fill:none;stroke:#fff;stroke-width:2" d="M9,77 l0,-12 94,0" /><path style="fill:none;stroke:#fff;stroke-width:2" d="M9,97 l0,-10 94,0" /><path style="fill:none;stroke:#fff;stroke-width:2" d="M9,117 l0,-10 94,0" /><path style="fill:none;stroke:#fff;stroke-width:2" d="M9,139 l0,-10 94,0" /><path style="fill:none;stroke:#fff;stroke-width:2" d="M9,159 l0,-10 94,0" /><path style="fill:#99f" d="M45,71 l42,0 0,20 -42,0 0,-20z" /><path style="fill:none;stroke:#fff;stroke-width:2" d="M45,93 l0,-22 42,0" /><path style="fill:none;stroke:#4c4cb2;stroke-width:2" d="M45,93 l42,0 0,-22" /><path style="fill:#339" d="M103,40 l6,0 0,119 -6,0 0,-119z" /><path style="fill:#339" d="M103,25 l870,0 0,15 -870,0 0,-15z" /><path style="fill:none;stroke:#fff;stroke-width:2" d="M973,81 l0,-56" /></svg>