<!DOCTYPE svg PUBLIC "-//W3C//DTD SVG 20000303 Stylable//EN" "http://www.w3.org/TR/2000/03/WD-SVG-20000303/DTD/svg-20000303-stylable.dtd"[]><svg width="999px" height="212px" viewBox="0 0 999 165" xmlns="http://www.w3.org/2000/svg"><path style="fill:#19197f" d="M0,0 l999,0 0,165 -999,0 0,-165z" /><path style="fill:#99f" d="M15,3 l977,0 0,156 -977,0 0,-156z" /><path style="fill:#9494fa" d="M15,117 l977,-66 0,108 -977,0 0,-42z" /><path style="fill:#8f8ff5" d="M15,123 l977,-68 0,104 -977,0 0,-36z" /><path style="fill:#8a8af0" d="M15,135 l977,-70 0,94 -977,0 0,-24z" /><path style="fill:#99f" d="M9,3 l88,0 0,43 -88,0 0,-43z" /><path style="fill:none;stroke:#ccf;stroke-width:2" d="M9,46 l0,-43 983,0" /><path style="fill:none;stroke:#4c4c4c;stroke-width:2" d="M0,0 l999,0 0,165 -999,0 0,-165" /><path style="fill:#0f0" d="M62,46 l5,0 0,16 -5,0 0,-16z" /><path style="fill:#0f0" d="M51,46 l6,0 0,16 -6,0 0,-16z" /><path style="fill:#99f" d="M41,9 l52,0 0,30 -52,0 0,-30z" /><path style="fill:#99f" d="M9,65 l94,0 0,12 -94,0 0,-12z" /><path style="fill:#99f" d="M9,87 l94,0 0,10 -94,0 0,-10z" /><path style="fill:#99f" d="M9,107 l94,0 0,10 -94,0 0,-10z" /><path style="fill:#99f" d="M9,129 l94,0 0,10 -94,0 0,-10z" /><path style="fill:#99f" d="M9,149 l94,0 0,10 -94,0 0,-10z" /><path style="fill:#ccf" d="M67,35 l10,-10 10,10 -20,0z" /><path style="fill:#ccf" d="M46,35 l11,-10 10,10 -21,0z" /><path style="fill:none;stroke:#4c4cb2;stroke-width:2" d="M41,39 l52,0 0,-30" /><path style="fill:none;stroke:#4c4cb2;stroke-width:2" d="M57,46 l-38,0 0,16" /><path style="fill:none;stroke:#4c4cb2;stroke-width:2" d="M97,46 l-35,0 0,16" /><path style="fill:none;stroke:#4c4cb2;stroke-width:2" d="M9,77 l94,0 0,-12" /><path style="fill:none;stroke:#4c4cb2;stroke-width:2" d="M9,97 l94,0 0,-10" /><path style="fill:none;stroke:#4c4cb2;stroke-width:2" d="M9,117 l94,0 0,-10" /><path style="fill:none;stroke:#4c4cb2;stroke-width:2" d="M9,139 l94,0 0,-10" /><path style="fill:none;stroke:#4c4cb2;stroke-width:2" d="M9,159 l94,0 0,-10" /><path style="fill:none;stroke:#fff;stroke-width:2" d="M41,39 l0,-30 52,0" /><path style="fill:none;stroke:#fff;stroke-width:2" d="M97,46 l0,16 -35,0" /><path style="fill:none;stroke:#fff;stroke-width:2" d="M57,46 l0,16 -38,0" /><path style="fill:none;stroke:#fff;stroke-width:2" d="M9,77 l0,-12 94,0" /><path style="fill:none;stroke:#fff;stroke-width:2" d="M9,97 l0,-10 94,0" /><path style="fill:none;stroke:#fff;stroke-width:2" d="M9,117 l0,-10 94,0" /><path style="fill:none;stroke:#fff;stroke-width:2" d="M9,139 l0,-10 94,0" /><path style="fill:none;stroke:#fff;stroke-width:2" d="M9,159 l0,-10 94,0" /><path style="fill:#99f" d="M46,71 l41,0 0,20 -41,0 0,-20z" /><path style="fill:none;stroke:#fff;stroke-width:2" d="M46,93 l0,-22 41,0" /><path style="fill:none;stroke:#4c4cb2;stroke-width:2" d="M46,93 l41,0 0,-22" /><path style="fill:#339" d="M103,39 l6,0 0,120 -6,0 0,-120z" /><path style="fill:#339" d="M103,25 l870,0 0,14 -870,0 0,-14z" /><path style="fill:none;stroke:#fff;stroke-width:2" d="M973,81 l0,-56" /><path style="fill:#000" d="M119,62 l274,0 0,29 -274,0 0,-29z" /><path style="fill:#000" d="M119,109 l274,0 0,30 -274,0 0,-30z" /><path style="fill:#000" d="M403,109 l276,0 0,30 -276,0 0,-30z" /><path style="fill:#000" d="M403,62 l276,0 0,29 -276,0 0,-29z" /><path style="fill:#000" d="M687,62 l276,0 0,29 -276,0 0,-29z" /><path style="fill:#000" d="M687,109 l276,0 0,30 -276,0 0,-30z" /><path style="fill:#ccc" d="M687,63 l273,0 0,26 -273,0 0,-26z" /><path style="fill:#ccc" d="M687,111 l273,0 0,26 -273,0 0,-26z" /><path style="fill:#ccc" d="M405,111 l272,0 0,26 -272,0 0,-26z" /><path style="fill:#ccc" d="M403,63 l274,0 0,26 -274,0 0,-26z" /><path style="fill:#ccc" d="M119,63 l274,0 0,26 -274,0 0,-26z" /><path style="fill:#ccc" d="M119,111 l274,0 0,26 -274,0 0,-26z" /><path style="fill:#333" d="M933,113 l24,0 0,12 -2,0 0,4 -4,0 0,4 -2,0 0,2 -8,0 0,-2 -2,0 0,-4 -4,0 0,-4 -2,0 0,-12z" /><path style="fill:#333" d="M899,113 l24,0 0,12 -4,0 0,4 -2,0 0,4 -2,0 0,2 -8,0 0,-2 -4,0 0,-4 -2,0 0,-4 -2,0 0,-12z" /><path style="fill:#333" d="M865,113 l22,0 0,12 -2,0 0,4 -2,0 0,4 -2,0 0,2 -10,0 0,-2 -2,0 0,-4 -2,0 0,-4 -2,0 0,-12z" /><path style="fill:#333" d="M829,113 l24,0 0,12 -2,0 0,4 -2,0 0,4 -2,0 0,2 -10,0 0,-2 -2,0 0,-4 -2,0 0,-4 -4,0 0,-12z" /><path style="fill:#333" d="M795,113 l24,0 0,12 -2,0 0,4 -2,0 0,4 -4,0 0,2 -8,0 0,-2 -2,0 0,-4 -4,0 0,-4 -2,0 0,-12z" /><path style="fill:#333" d="M727,113 l24,0 0,12 -4,0 0,4 -2,0 0,4 -2,0 0,2 -8,0 0,-2 -4,0 0,-4 -2,0 0,-4 -2,0 0,-12z" /><path style="fill:#333" d="M761,113 l24,0 0,12 -2,0 0,4 -4,0 0,4 -2,0 0,2 -8,0 0,-2 -2,0 0,-4 -4,0 0,-4 -2,0 0,-12z" /><path style="fill:#333" d="M693,113 l22,0 0,12 -2,0 0,4 -2,0 0,4 -2,0 0,2 -10,0 0,-2 -2,0 0,-4 -2,0 0,-4 -2,0 0,-12z" /><path style="fill:#333" d="M933,65 l24,0 0,12 -2,0 0,2 -4,0 0,4 -2,0 0,4 -8,0 0,-4 -2,0 0,-4 -4,0 0,-2 -2,0 0,-12z" /><path style="fill:#333" d="M899,65 l24,0 0,12 -2,0 0,2 -4,0 0,4 -2,0 0,4 -8,0 0,-4 -4,0 0,-4 -2,0 0,-2 -2,0 0,-12z" /><path style="fill:#333" d="M865,65 l22,0 0,12 -2,0 0,2 -2,0 0,4 -2,0 0,4 -10,0 0,-4 -2,0 0,-4 -2,0 0,-2 -2,0 0,-12z" /><path style="fill:#333" d="M829,65 l24,0 0,12 -2,0 0,2 -2,0 0,4 -2,0 0,4 -10,0 0,-4 -2,0 0,-4 -2,0 0,-2 -4,0 0,-12z" /><path style="fill:#333" d="M795,65 l24,0 0,12 -2,0 0,2 -2,0 0,4 -4,0 0,4 -8,0 0,-4 -2,0 0,-4 -4,0 0,-2 -2,0 0,-12z" /><path style="fill:#333" d="M727,65 l24,0 0,12 -4,0 0,2 -2,0 0,4 -2,0 0,4 -8,0 0,-4 -4,0 0,-4 -2,0 0,-2 -2,0 0,-12z" /><path style="fill:#333" d="M761,65 l24,0 0,12 -2,0 0,2 -4,0 0,4 -2,0 0,4 -8,0 0,-4 -4,0 0,-4 -2,0 0,-2 -2,0 0,-12z" /><path style="fill:#333" d="M693,65 l22,0 0,12 -2,0 0,2 -2,0 0,4 -2,0 0,4 -10,0 0,-4 -2,0 0,-4 -2,0 0,-2 -2,0 0,-12z" /><path style="fill:#333" d="M649,65 l24,0 0,12 -2,0 0,2 -4,0 0,4 -2,0 0,4 -8,0 0,-4 -2,0 0,-4 -4,0 0,-2 -2,0 0,-12z" /><path style="fill:#333" d="M615,65 l24,0 0,12 -4,0 0,2 -2,0 0,4 -2,0 0,4 -8,0 0,-4 -4,0 0,-4 -2,0 0,-2 -2,0 0,-12z" /><path style="fill:#333" d="M581,65 l24,0 0,12 -4,0 0,2 -2,0 0,4 -2,0 0,4 -10,0 0,-4 -2,0 0,-4 -2,0 0,-2 -2,0 0,-12z" /><path style="fill:#333" d="M547,65 l22,0 0,12 -2,0 0,2 -2,0 0,4 -2,0 0,4 -10,0 0,-4 -2,0 0,-4 -2,0 0,-2 -2,0 0,-12z" /><path style="fill:#333" d="M511,65 l24,0 0,12 -2,0 0,2 -2,0 0,4 -4,0 0,4 -8,0 0,-4 -2,0 0,-4 -2,0 0,-2 -4,0 0,-12z" /><path style="fill:#333" d="M443,65 l24,0 0,12 -4,0 0,2 -2,0 0,4 -2,0 0,4 -8,0 0,-4 -2,0 0,-4 -4,0 0,-2 -2,0 0,-12z" /><path style="fill:#333" d="M477,65 l24,0 0,12 -2,0 0,2 -4,0 0,4 -2,0 0,4 -8,0 0,-4 -4,0 0,-4 -2,0 0,-2 -2,0 0,-12z" /><path style="fill:#333" d="M409,65 l24,0 0,12 -4,0 0,2 -2,0 0,4 -2,0 0,4 -10,0 0,-4 -2,0 0,-4 -2,0 0,-2 -2,0 0,-12z" /><path style="fill:#333" d="M649,113 l24,0 0,12 -2,0 0,4 -4,0 0,4 -2,0 0,2 -8,0 0,-2 -2,0 0,-4 -4,0 0,-4 -2,0 0,-12z" /><path style="fill:#333" d="M615,113 l24,0 0,12 -4,0 0,4 -2,0 0,4 -2,0 0,2 -8,0 0,-2 -4,0 0,-4 -2,0 0,-4 -2,0 0,-12z" /><path style="fill:#333" d="M581,113 l24,0 0,12 -4,0 0,4 -2,0 0,4 -2,0 0,2 -10,0 0,-2 -2,0 0,-4 -2,0 0,-4 -2,0 0,-12z" /><path style="fill:#333" d="M545,113 l24,0 0,12 -2,0 0,4 -2,0 0,4 -2,0 0,2 -10,0 0,-2 -2,0 0,-4 -2,0 0,-4 -4,0 0,-12z" /><path style="fill:#333" d="M511,113 l24,0 0,12 -2,0 0,4 -2,0 0,4 -4,0 0,2 -8,0 0,-2 -2,0 0,-4 -2,0 0,-4 -4,0 0,-12z" /><path style="fill:#333" d="M443,113 l24,0 0,12 -4,0 0,4 -2,0 0,4 -2,0 0,2 -8,0 0,-2 -4,0 0,-4 -2,0 0,-4 -2,0 0,-12z" /><path style="fill:#333" d="M477,113 l24,0 0,12 -2,0 0,4 -4,0 0,4 -2,0 0,2 -8,0 0,-2 -2,0 0,-4 -4,0 0,-4 -2,0 0,-12z" /><path style="fill:#333" d="M409,113 l22,0 0,12 -2,0 0,4 -2,0 0,4 -2,0 0,2 -10,0 0,-2 -2,0 0,-4 -2,0 0,-4 -2,0 0,-12z" /><path style="fill:#333" d="M365,113 l24,0 0,12 -4,0 0,4 -2,0 0,4 -2,0 0,2 -8,0 0,-2 -4,0 0,-4 -2,0 0,-4 -2,0 0,-12z" /><path style="fill:#333" d="M331,113 l24,0 0,12 -4,0 0,4 -2,0 0,4 -2,0 0,2 -10,0 0,-2 -2,0 0,-4 -2,0 0,-4 -2,0 0,-12z" /><path style="fill:#333" d="M295,113 l24,0 0,12 -2,0 0,4 -2,0 0,4 -2,0 0,2 -10,0 0,-2 -2,0 0,-4 -2,0 0,-4 -4,0 0,-12z" /><path style="fill:#333" d="M261,113 l24,0 0,12 -2,0 0,4 -2,0 0,4 -4,0 0,2 -8,0 0,-2 -2,0 0,-4 -2,0 0,-4 -4,0 0,-12z" /><path style="fill:#333" d="M227,113 l24,0 0,12 -2,0 0,4 -4,0 0,4 -2,0 0,2 -8,0 0,-2 -2,0 0,-4 -4,0 0,-4 -2,0 0,-12z" /><path style="fill:#333" d="M159,113 l22,0 0,12 -2,0 0,4 -2,0 0,4 -2,0 0,2 -10,0 0,-2 -2,0 0,-4 -2,0 0,-4 -2,0 0,-12z" /><path style="fill:#333" d="M193,113 l24,0 0,12 -4,0 0,4 -2,0 0,4 -2,0 0,2 -8,0 0,-2 -4,0 0,-4 -2,0 0,-4 -2,0 0,-12z" /><path style="fill:#333" d="M123,113 l24,0 0,12 -2,0 0,4 -2,0 0,4 -2,0 0,2 -10,0 0,-2 -2,0 0,-4 -2,0 0,-4 -4,0 0,-12z" /><path style="fill:#333" d="M365,65 l24,0 0,12 -4,0 0,2 -2,0 0,4 -2,0 0,4 -8,0 0,-4 -4,0 0,-4 -2,0 0,-2 -2,0 0,-12z" /><path style="fill:#333" d="M331,65 l24,0 0,12 -4,0 0,2 -2,0 0,4 -2,0 0,4 -8,0 0,-4 -4,0 0,-4 -2,0 0,-2 -2,0 0,-12z" /><path style="fill:#333" d="M295,65 l24,0 0,12 -2,0 0,2 -2,0 0,4 -2,0 0,4 -10,0 0,-4 -2,0 0,-4 -2,0 0,-2 -4,0 0,-12z" /><path style="fill:#333" d="M261,65 l24,0 0,12 -2,0 0,2 -2,0 0,4 -4,0 0,4 -8,0 0,-4 -2,0 0,-4 -2,0 0,-2 -4,0 0,-12z" /><path style="fill:#333" d="M227,65 l24,0 0,12 -2,0 0,2 -4,0 0,4 -2,0 0,4 -8,0 0,-4 -2,0 0,-4 -4,0 0,-2 -2,0 0,-12z" /><path style="fill:#333" d="M159,65 l22,0 0,12 -2,0 0,2 -2,0 0,4 -2,0 0,4 -10,0 0,-4 -2,0 0,-4 -2,0 0,-2 -2,0 0,-12z" /><path style="fill:#333" d="M193,65 l24,0 0,12 -2,0 0,2 -4,0 0,4 -2,0 0,4 -8,0 0,-4 -4,0 0,-4 -2,0 0,-2 -2,0 0,-12z" /><path style="fill:#333" d="M123,65 l24,0 0,12 -2,0 0,2 -2,0 0,4 -2,0 0,4 -10,0 0,-4 -2,0 0,-4 -2,0 0,-2 -4,0 0,-12z" /></svg>