<!DOCTYPE svg PUBLIC "-//W3C//DTD SVG 20000303 Stylable//EN" "http://www.w3.org/TR/2000/03/WD-SVG-20000303/DTD/svg-20000303-stylable.dtd"[]><svg width="998px" height="212px" viewBox="0 0 999 165" xmlns="http://www.w3.org/2000/svg"><path style="fill:#19197f" d="M0,0 l999,0 0,165 -999,0 0,-165z" /><path style="fill:#99f" d="M15,4 l978,0 0,155 -978,0 0,-155z" /><path style="fill:#9494fa" d="M15,117 l978,-66 0,108 -978,0 0,-42z" /><path style="fill:#8f8ff5" d="M15,123 l978,-68 0,104 -978,0 0,-36z" /><path style="fill:#8a8af0" d="M15,135 l978,-70 0,94 -978,0 0,-24z" /><path style="fill:#99f" d="M9,4 l90,0 0,41 -90,0 0,-41z" /><path style="fill:none;stroke:#ccf;stroke-width:2" d="M9,45 l0,-41 984,0" /><path style="fill:none;stroke:#4c4c4c;stroke-width:2" d="M0,0 l999,0 0,165 -999,0 0,-165" /><path style="fill:#0f0" d="M61,45 l6,0 0,16 -6,0 0,-16z" /><path style="fill:#0f0" d="M51,45 l7,0 0,16 -7,0 0,-16z" /><path style="fill:#99f" d="M41,9 l52,0 0,30 -52,0 0,-30z" /><path style="fill:#99f" d="M9,65 l94,0 0,12 -94,0 0,-12z" /><path style="fill:#99f" d="M9,87 l94,0 0,10 -94,0 0,-10z" /><path style="fill:#99f" d="M9,107 l94,0 0,10 -94,0 0,-10z" /><path style="fill:#99f" d="M9,129 l94,0 0,10 -94,0 0,-10z" /><path style="fill:#99f" d="M9,149 l94,0 0,10 -94,0 0,-10z" /><path style="fill:#ccf" d="M67,36 l10,-10 10,10 -20,0z" /><path style="fill:#ccf" d="M47,36 l11,-10 9,10 -20,0z" /><path style="fill:none;stroke:#4c4cb2;stroke-width:2" d="M41,39 l52,0 0,-30" /><path style="fill:none;stroke:#4c4cb2;stroke-width:2" d="M58,45 l-39,0 0,16" /><path style="fill:none;stroke:#4c4cb2;stroke-width:2" d="M99,45 l-38,0 0,16" /><path style="fill:none;stroke:#4c4cb2;stroke-width:2" d="M9,77 l94,0 0,-12" /><path style="fill:none;stroke:#4c4cb2;stroke-width:2" d="M9,97 l94,0 0,-10" /><path style="fill:none;stroke:#4c4cb2;stroke-width:2" d="M9,117 l94,0 0,-10" /><path style="fill:none;stroke:#4c4cb2;stroke-width:2" d="M9,139 l94,0 0,-10" /><path style="fill:none;stroke:#4c4cb2;stroke-width:2" d="M9,159 l94,0 0,-10" /><path style="fill:none;stroke:#fff;stroke-width:2" d="M41,39 l0,-30 52,0" /><path style="fill:none;stroke:#fff;stroke-width:2" d="M99,45 l0,16 -38,0" /><path style="fill:none;stroke:#fff;stroke-width:2" d="M58,45 l0,16 -39,0" /><path style="fill:none;stroke:#fff;stroke-width:2" d="M9,77 l0,-12 94,0" /><path style="fill:none;stroke:#fff;stroke-width:2" d="M9,97 l0,-10 94,0" /><path style="fill:none;stroke:#fff;stroke-width:2" d="M9,117 l0,-10 94,0" /><path style="fill:none;stroke:#fff;stroke-width:2" d="M9,139 l0,-10 94,0" /><path style="fill:none;stroke:#fff;stroke-width:2" d="M9,159 l0,-10 94,0" /><path style="fill:#99f" d="M47,71 l40,0 0,20 -40,0 0,-20z" /><path style="fill:none;stroke:#fff;stroke-width:2" d="M45,93 l0,-22 42,0" /><path style="fill:none;stroke:#4c4cb2;stroke-width:2" d="M45,93 l42,0 0,-22" /><path style="fill:#339" d="M103,39 l6,0 0,120 -6,0 0,-120z" /><path style="fill:#339" d="M103,26 l869,0 0,13 -869,0 0,-13z" /><path style="fill:none;stroke:#fff;stroke-width:2" d="M972,81 l0,-55" /><path style="fill:#000" d="M193,111 l202,0 0,28 -202,0 0,-28z" /><path style="fill:#000" d="M193,63 l202,0 0,28 -202,0 0,-28z" /><path style="fill:#000" d="M515,63 l202,0 0,28 -202,0 0,-28z" /><path style="fill:#000" d="M515,111 l202,0 0,28 -202,0 0,-28z" /><path style="fill:#ccc" d="M515,111 l202,0 0,26 -202,0 0,-26z" /><path style="fill:#ccc" d="M515,65 l202,0 0,26 -202,0 0,-26z" /><path style="fill:#ccc" d="M193,65 l202,0 0,26 -202,0 0,-26z" /><path style="fill:#ccc" d="M193,111 l202,0 0,26 -202,0 0,-26z" /><path style="fill:#333" d="M367,115 l22,0 0,10 -2,0 0,4 -2,0 0,4 -2,0 0,2 -8,0 0,-2 -4,0 0,-4 -2,0 0,-4 -2,0 0,-10z" /><path style="fill:#333" d="M197,115 l24,0 0,10 -2,0 0,4 -4,0 0,4 -2,0 0,2 -8,0 0,-2 -2,0 0,-4 -4,0 0,-4 -2,0 0,-10z" /><path style="fill:#333" d="M231,115 l24,0 0,10 -2,0 0,4 -4,0 0,4 -2,0 0,2 -8,0 0,-2 -2,0 0,-4 -4,0 0,-4 -2,0 0,-10z" /><path style="fill:#333" d="M265,115 l24,0 0,10 -4,0 0,4 -2,0 0,4 -2,0 0,2 -8,0 0,-2 -2,0 0,-4 -4,0 0,-4 -2,0 0,-10z" /><path style="fill:#333" d="M299,115 l24,0 0,10 -4,0 0,4 -2,0 0,4 -2,0 0,2 -8,0 0,-2 -4,0 0,-4 -2,0 0,-4 -2,0 0,-10z" /><path style="fill:#333" d="M333,115 l24,0 0,10 -4,0 0,4 -2,0 0,4 -2,0 0,2 -8,0 0,-2 -4,0 0,-4 -2,0 0,-4 -2,0 0,-10z" /><path style="fill:#333" d="M367,67 l22,0 0,12 -2,0 0,2 -2,0 0,4 -2,0 0,4 -8,0 0,-4 -4,0 0,-4 -2,0 0,-2 -2,0 0,-12z" /><path style="fill:#333" d="M197,67 l24,0 0,12 -2,0 0,2 -4,0 0,4 -2,0 0,4 -8,0 0,-4 -2,0 0,-4 -4,0 0,-2 -2,0 0,-12z" /><path style="fill:#333" d="M231,67 l24,0 0,12 -2,0 0,2 -4,0 0,4 -2,0 0,4 -8,0 0,-4 -2,0 0,-4 -4,0 0,-2 -2,0 0,-12z" /><path style="fill:#333" d="M265,67 l24,0 0,12 -4,0 0,2 -2,0 0,4 -2,0 0,4 -8,0 0,-4 -2,0 0,-4 -4,0 0,-2 -2,0 0,-12z" /><path style="fill:#333" d="M299,67 l24,0 0,12 -4,0 0,2 -2,0 0,4 -2,0 0,4 -8,0 0,-4 -4,0 0,-4 -2,0 0,-2 -2,0 0,-12z" /><path style="fill:#333" d="M333,67 l24,0 0,12 -4,0 0,2 -2,0 0,4 -2,0 0,4 -8,0 0,-4 -4,0 0,-4 -2,0 0,-2 -2,0 0,-12z" /><path style="fill:#333" d="M689,67 l24,0 0,12 -2,0 0,2 -4,0 0,4 -2,0 0,4 -8,0 0,-4 -2,0 0,-4 -4,0 0,-2 -2,0 0,-12z" /><path style="fill:#333" d="M521,67 l22,0 0,12 -2,0 0,2 -2,0 0,4 -2,0 0,4 -10,0 0,-4 -2,0 0,-4 -2,0 0,-2 -2,0 0,-12z" /><path style="fill:#333" d="M553,67 l24,0 0,12 -2,0 0,2 -2,0 0,4 -4,0 0,4 -8,0 0,-4 -2,0 0,-4 -2,0 0,-2 -4,0 0,-12z" /><path style="fill:#333" d="M587,67 l24,0 0,12 -2,0 0,2 -2,0 0,4 -4,0 0,4 -8,0 0,-4 -2,0 0,-4 -2,0 0,-2 -4,0 0,-12z" /><path style="fill:#333" d="M621,67 l24,0 0,12 -2,0 0,2 -4,0 0,4 -2,0 0,4 -8,0 0,-4 -2,0 0,-4 -2,0 0,-2 -4,0 0,-12z" /><path style="fill:#333" d="M655,67 l24,0 0,12 -2,0 0,2 -4,0 0,4 -2,0 0,4 -8,0 0,-4 -2,0 0,-4 -4,0 0,-2 -2,0 0,-12z" /><path style="fill:#333" d="M689,115 l24,0 0,10 -2,0 0,4 -4,0 0,4 -2,0 0,2 -8,0 0,-2 -2,0 0,-4 -4,0 0,-4 -2,0 0,-10z" /><path style="fill:#333" d="M521,115 l22,0 0,10 -2,0 0,4 -2,0 0,4 -2,0 0,2 -10,0 0,-2 -2,0 0,-4 -2,0 0,-4 -2,0 0,-10z" /><path style="fill:#333" d="M553,115 l24,0 0,10 -2,0 0,4 -2,0 0,4 -4,0 0,2 -8,0 0,-2 -2,0 0,-4 -2,0 0,-4 -4,0 0,-10z" /><path style="fill:#333" d="M587,115 l24,0 0,10 -2,0 0,4 -2,0 0,4 -4,0 0,2 -8,0 0,-2 -2,0 0,-4 -2,0 0,-4 -4,0 0,-10z" /><path style="fill:#333" d="M621,115 l24,0 0,10 -2,0 0,4 -4,0 0,4 -2,0 0,2 -8,0 0,-2 -2,0 0,-4 -2,0 0,-4 -4,0 0,-10z" /><path style="fill:#333" d="M655,115 l24,0 0,10 -2,0 0,4 -4,0 0,4 -2,0 0,2 -8,0 0,-2 -2,0 0,-4 -4,0 0,-4 -2,0 0,-10z" /></svg>