<!DOCTYPE svg PUBLIC "-//W3C//DTD SVG 20000303 Stylable//EN" "http://www.w3.org/TR/2000/03/WD-SVG-20000303/DTD/svg-20000303-stylable.dtd"[]><svg width="999px" height="723px" viewBox="0 0 999 706" xmlns="http://www.w3.org/2000/svg"><path style="fill:#99f" d="M0,41 l916,0 0,665 -916,0 0,-665z" /><path style="fill:#9494fa" d="M0,387 l916,-278 0,597 -916,0 0,-319z" /><path style="fill:#8f8ff5" d="M0,424 l916,-278 0,560 -916,0 0,-282z" /><path style="fill:#8a8af0" d="M0,494 l916,-278 0,490 -916,0 0,-212z" /><path style="fill:#8585eb" d="M0,523 l916,-278 0,461 -916,0 0,-183z" /><path style="fill:#7f7fe5" d="M0,589 l916,-279 0,396 -916,0 0,-117z" /><path style="fill:#7a7ae0" d="M0,667 l916,-276 0,315 -916,0 0,-39z" /><path style="fill:#66c" d="M999,0 l-83,43 0,663 83,-41 0,-665z" /><path style="fill:#ccf" d="M999,0 l-83,43 -916,0 78,-43 921,0z" /><path style="fill:none;stroke:#339;stroke-width:2" d="M0,706 l0,-663 78,-43 921,0 0,667 -81,39 -918,0" /><path style="fill:#339" d="M82,364 l167,0 0,-41 64,62 -64,62 0,-42 -167,0 0,-41z" /><path style="fill:#339" d="M82,197 l167,0 0,-41 64,62 -64,62 0,-42 -167,0 0,-41z" /><path style="fill:#339" d="M82,531 l167,0 0,-43 64,63 -64,62 0,-41 -167,0 0,-41z" /><path style="fill:#339" d="M831,405 l-166,0 0,42 -62,-62 62,-64 0,43 166,0 0,41z" /><path style="fill:#fff" d="M831,395 l-166,0 0,41 -62,-64 62,-62 0,42 166,0 0,43z" /><path style="fill:#fff" d="M574,452 l8,9 0,8 -8,8 -16,9 -25,6 -27,4 -33,2 -33,0 -31,-2 -28,-4 -23,-6 -17,-9 -8,-8 0,-8 8,-9 0,-156 -8,-8 0,-10 8,-9 17,-8 23,-6 28,-4 31,-2 33,0 33,2 27,4 25,6 16,8 8,9 0,10 -8,8 0,156z" /><path style="fill:#fff" d="M82,187 l167,0 0,-41 64,61 -64,62 0,-41 -167,0 0,-41z" /><path style="fill:#fff" d="M82,354 l167,0 0,-44 64,64 -64,62 0,-41 -167,0 0,-41z" /><path style="fill:#fff" d="M82,519 l167,0 0,-42 64,64 -64,62 0,-41 -167,0 0,-43z" /><ellipse style="fill:#99f" cx="457" cy="277" rx="93" ry="18" /></svg>