<!DOCTYPE svg PUBLIC "-//W3C//DTD SVG 20000303 Stylable//EN" "http://www.w3.org/TR/2000/03/WD-SVG-20000303/DTD/svg-20000303-stylable.dtd"[]><svg width="999px" height="723px" viewBox="0 0 999 706" xmlns="http://www.w3.org/2000/svg"><path style="fill:#99f" d="M0,41 l916,0 0,665 -916,0 0,-665z" /><path style="fill:#9494fa" d="M0,387 l916,-278 0,597 -916,0 0,-319z" /><path style="fill:#8f8ff5" d="M0,424 l916,-278 0,560 -916,0 0,-282z" /><path style="fill:#8a8af0" d="M0,494 l916,-278 0,490 -916,0 0,-212z" /><path style="fill:#8585eb" d="M0,523 l916,-279 0,462 -916,0 0,-183z" /><path style="fill:#7f7fe5" d="M0,589 l916,-278 0,395 -916,0 0,-117z" /><path style="fill:#7a7ae0" d="M0,667 l916,-276 0,315 -916,0 0,-39z" /><path style="fill:#66c" d="M999,0 l-83,43 0,663 83,-41 0,-665z" /><path style="fill:#ccf" d="M999,0 l-83,43 -916,0 78,-43 921,0z" /><path style="fill:none;stroke:#339;stroke-width:2" d="M0,706 l0,-663 78,-43 921,0 0,667 -81,39 -918,0" /><path style="fill:#e5e5ff" d="M187,317 l-41,0 0,61 -105,-82 105,-84 0,63 41,0 0,42z" /><path style="fill:#e5e5ff" d="M41,463 l41,0 0,-64 105,85 -105,82 0,-62 -41,0 0,-41z" /><path style="fill:#e5e5ff" d="M727,317 l43,0 0,61 103,-82 -103,-84 0,63 -43,0 0,42z" /><path style="fill:#e5e5ff" d="M873,463 l-41,0 0,-64 -105,85 105,82 0,-62 41,0 0,-41z" /><path style="fill:#e5e5ff" d="M265,317 l386,0 0,311 -386,0 0,-311z" /><path style="fill:#e5e5ff" d="M457,146 l194,16 34,74 0,37 -121,-6 -11,-59 -8,-7 -88,-4 -87,4 -10,7 -8,59 -124,6 0,-37 35,-74 194,-16z" /><path style="fill:#e5e5ff;stroke:#99f;stroke-width:2" d="M290,337 l334,0 0,83 -334,0 0,-83z" /><path style="fill:#e5e5ff;stroke:#99f;stroke-width:2" d="M290,463 l334,0 0,144 -334,0 0,-144z" /><path style="fill:none;stroke:#99f;stroke-width:2" d="M290,442 l334,0" /></svg>