<!DOCTYPE svg PUBLIC "-//W3C//DTD SVG 20000303 Stylable//EN" "http://www.w3.org/TR/2000/03/WD-SVG-20000303/DTD/svg-20000303-stylable.dtd"[]><svg width="455px" height="999px" viewBox="0 0 423 999" xmlns="http://www.w3.org/2000/svg"><path style="fill:#a6a6d9" d="M383,941 l34,-308 6,-192 0,-274 -16,-20 -32,-7 -146,-6 -144,6 -32,7 -40,20 318,818 38,-21 14,-23z" /><path style="fill:#e5e5ff" d="M383,187 l40,-20 -16,-20 -32,-7 -146,-6 -144,6 -32,7 -40,20 322,-10 34,10 14,20z" /><path style="fill:#ccf" d="M345,961 l34,-308 4,-192 0,-276 -14,-18 -32,-10 -146,-4 -144,4 -34,10 -13,18 0,276 6,192 31,308 16,24 32,10 106,4 106,-4 34,-10 14,-24z" /><path style="fill:#c7c7fa" d="M345,961 l34,-308 4,-192 0,-192 -383,192 6,192 31,308 16,24 32,10 106,4 106,-4 34,-10 14,-24z" /><path style="fill:#c2c2f5" d="M345,961 l34,-308 4,-192 0,-78 -380,200 3,70 31,308 16,24 32,10 106,4 106,-4 34,-10 14,-24z" /><path style="fill:#bdbdf0" d="M345,961 l34,-308 4,-192 -377,192 31,308 16,24 32,10 106,4 106,-4 34,-10 14,-24z" /><path style="fill:#b8b8eb" d="M345,961 l34,-308 0,-40 -360,170 18,178 16,24 32,10 106,4 106,-4 34,-10 14,-24z" /><path style="fill:#b2b2e5" d="M345,961 l16,-142 -324,142 16,24 32,10 106,4 106,-4 34,-10 14,-24z" /><path style="fill:#033" d="M43,249 l298,0 0,288 -298,0 0,-288z" /><path style="fill:#9c9" d="M57,279 l270,0 0,258 -270,0 0,-258z" /><path style="fill:#7fb27f" d="M78,479 l229,0 0,40 -229,0 0,-40z" /><path style="fill:#7fb27f" d="M78,413 l229,0 0,38 -229,0 0,-38z" /><path style="fill:#7fb27f" d="M78,307 l123,0 0,76 -123,0 0,-76z" /><path style="fill:#7fb27f" d="M229,307 l78,0 0,76 -78,0 0,-76z" /><path style="fill:#333" d="M163,913 l58,0 0,28 -58,0 0,-28z" /><path style="fill:#333" d="M177,187 l29,0 0,28 -29,0 0,-28z" /><path style="fill:#e5e5ff" d="M43,537 l298,0 0,14 -298,0 0,-14z" /><circle style="fill:#99f;stroke:#4c4c4c;stroke-width:2" cx="95" cy="825" r="38" /><circle style="fill:#99f;stroke:#4c4c4c;stroke-width:2" cx="191" cy="825" r="38" /><circle style="fill:#99f;stroke:#4c4c4c;stroke-width:2" cx="191" cy="729" r="38" /><circle style="fill:#99f;stroke:#4c4c4c;stroke-width:2" cx="95" cy="729" r="38" /><circle style="fill:#99f;stroke:#4c4c4c;stroke-width:2" cx="95" cy="633" r="38" /><circle style="fill:#99f;stroke:#4c4c4c;stroke-width:2" cx="191" cy="633" r="38" /><circle style="fill:#99f;stroke:#4c4c4c;stroke-width:2" cx="288" cy="633" r="39" /><circle style="fill:#99f;stroke:#4c4c4c;stroke-width:2" cx="288" cy="729" r="39" /><circle style="fill:#99f;stroke:#4c4c4c;stroke-width:2" cx="288" cy="825" r="39" /><path style="fill:#d1d1f2" d="M407,147 l-32,-7 -40,17 34,10 38,-20z" /><path style="fill:#babae5" d="M383,187 l40,-20 -16,-20 -38,20 14,20z" /><path style="fill:none;stroke:#4c4c4c;stroke-width:2" d="M383,941 l34,-308 6,-192 0,-274 -16,-20 -32,-7 -146,-6 -144,6 -32,7 -40,20 -13,18 0,276 6,192 31,308 16,24 32,10 106,4 106,-4 34,-10 38,-21 14,-23" /><path style="fill:#72727f" d="M78,147 l0,-147 56,0 0,147 -56,0z" /><path style="fill:#7f7f8c" d="M79,147 l0,-147 52,0 0,147 -52,0z" /><path style="fill:#8c8c99" d="M81,147 l0,-147 48,0 0,147 -48,0z" /><path style="fill:#9999a6" d="M84,147 l0,-147 43,0 0,147 -43,0z" /><path style="fill:#a5a5b2" d="M87,147 l0,-147 36,0 0,147 -36,0z" /><path style="fill:#b2b2bf" d="M90,147 l0,-147 31,0 0,147 -31,0z" /><path style="fill:#bfbfcc" d="M91,147 l0,-147 28,0 0,147 -28,0z" /><path style="fill:#ccccd9" d="M96,147 l0,-147 19,0 0,147 -19,0z" /><path style="fill:#d8d8e5" d="M97,147 l0,-147 16,0 0,147 -16,0z" /><path style="fill:#e5e5f2" d="M99,147 l0,-147 13,0 0,147 -13,0z" /><path style="fill:#f2f2ff" d="M101,147 l0,-147 8,0 0,147 -8,0z" /><path style="fill:none;stroke:#4c4c4c;stroke-width:2" d="M78,147 l0,-147 56,0 0,147 -56,0" /><circle style="fill:#ccf" cx="87" cy="816" r="19" /><circle style="fill:#ccf" cx="182" cy="816" r="19" /><circle style="fill:#ccf" cx="278" cy="816" r="19" /><circle style="fill:#ccf" cx="278" cy="720" r="19" /><circle style="fill:#ccf" cx="182" cy="720" r="19" /><circle style="fill:#ccf" cx="87" cy="720" r="19" /><circle style="fill:#ccf" cx="87" cy="624" r="19" /><circle style="fill:#ccf" cx="182" cy="624" r="19" /><circle style="fill:#ccf" cx="278" cy="624" r="19" /></svg>