<!DOCTYPE svg PUBLIC "-//W3C//DTD SVG 20000303 Stylable//EN" "http://www.w3.org/TR/2000/03/WD-SVG-20000303/DTD/svg-20000303-stylable.dtd"[]><svg width="999px" height="623px" viewBox="0 0 999 601" xmlns="http://www.w3.org/2000/svg"><path style="fill:#7fb2b2" d="M701,100 l-15,-29 -33,-26 -46,-22 -55,-15 -62,-8 -65,0 -63,8 -57,15 -46,22 -31,26 -17,31 0,15 -21,-9 -50,6 -23,11 -31,36 -7,46 15,33 -13,0 -31,13 -23,19 -19,21 -8,25 0,27 8,23 19,23 25,19 29,13 19,6 8,33 32,36 46,17 50,-7 13,-8 16,27 26,27 37,23 46,15 49,9 54,0 48,-9 46,-15 38,-23 14,-16 36,14 38,9 38,0 35,-9 34,-14 27,-21 19,-27 8,-30 0,-17 29,0 32,-6 29,-12 25,-19 17,-21 9,-25 0,-25 -9,-26 -17,-23 -25,-16 -29,-13 -13,-8 6,-23 0,-32 -8,-31 -19,-29 -27,-24 -34,-14 -37,-8 -38,0 -36,8 -12,4z" /><path style="fill:#8abdbd" d="M699,102 l-15,-26 -21,-20 -23,-16 -29,-13 -26,-8 -28,-8 -30,-5 -32,-4 -8,0 -8,0 -56,0 -30,3 -31,5 -27,7 -28,8 -29,13 -25,14 -23,21 -15,25 -2,4 0,15 -27,-8 -31,3 -25,10 -9,3 -19,17 -14,25 -5,27 5,28 2,6 8,12 -27,5 -25,13 -21,20 -15,23 -5,12 -1,3 0,3 0,24 12,25 15,21 25,17 26,10 22,9 7,28 13,23 1,3 23,18 26,10 28,3 28,-3 21,-11 13,23 19,22 24,17 27,15 29,11 30,6 24,4 6,0 7,0 45,0 31,-4 30,-6 28,-11 24,-13 19,-10 14,-16 27,11 27,7 32,4 33,-2 26,-6 24,-11 10,-3 21,-19 18,-23 11,-25 4,-11 0,-15 31,-1 27,-5 27,-11 3,-1 22,-17 18,-21 9,-24 1,-3 0,-4 -3,-31 -12,-24 -19,-20 -23,-15 -23,-9 -12,-6 8,-27 0,-28 -8,-27 -16,-25 -21,-22 -23,-14 -24,-12 -28,-6 -34,0 -31,4 -24,10z" /><path style="fill:#91c4c4" d="M695,102 l-15,-24 -22,-20 -22,-15 -28,-14 -26,-8 -27,-7 -30,-5 -30,-5 -8,0 -8,0 -56,0 -30,4 -31,4 -27,7 -28,8 -27,13 -24,14 -24,21 -14,25 -3,4 0,15 -27,-9 -30,3 -26,10 -9,4 -20,21 -12,24 -3,29 6,27 6,12 -1,-1 -11,-1 -26,13 -24,16 -17,21 -10,24 -1,4 0,3 2,30 13,24 10,14 23,17 26,10 24,9 5,27 1,6 13,19 24,18 26,12 15,3 23,0 25,-6 13,-10 13,25 2,4 22,22 3,3 27,16 26,10 28,12 31,3 12,2 6,1 6,0 46,0 29,-4 30,-7 28,-10 24,-13 23,-15 10,-12 25,12 9,5 31,5 33,1 31,-5 14,-1 23,-13 24,-17 19,-21 13,-24 7,-17 0,-15 27,0 28,-6 3,0 26,-12 4,-1 22,-18 17,-22 9,-28 1,-3 0,-3 0,-3 -6,-28 -16,-25 -21,-18 -25,-12 -24,-11 7,-27 -1,-32 -10,-27 -14,-24 -22,-20 -27,-16 -25,-9 -32,-4 -32,1 -27,5 -15,6z" /><path style="fill:#9ccfcf" d="M690,104 l-14,-24 -21,-20 -23,-15 -28,-14 -32,-10 -28,-7 -29,-3 -30,-3 -16,-1 -7,-1 -8,0 -31,2 -31,3 -30,3 -27,7 -28,8 -26,13 -23,14 -21,18 -5,3 -12,24 -3,3 0,15 -27,-7 -30,2 -25,11 -24,17 -3,2 -12,19 -6,21 0,23 6,21 8,12 -12,-2 -26,11 -4,2 -23,19 -17,24 -7,17 -1,2 0,4 3,31 6,16 16,21 23,17 26,10 22,8 7,28 2,6 12,19 17,14 24,12 29,5 29,-3 25,-11 13,23 2,4 22,23 3,4 26,15 9,6 28,7 28,7 29,6 5,1 7,0 46,0 30,-6 29,-6 28,-8 5,-1 26,-17 10,-4 14,-17 26,11 26,7 31,3 31,-2 30,-6 24,-13 25,-17 17,-22 12,-24 4,-27 0,-2 30,-1 29,-5 27,-11 22,-16 3,-2 17,-24 8,-28 0,-4 0,-3 -7,-30 -16,-24 -24,-18 -26,-13 -4,-1 -13,-9 6,-28 -2,-32 -10,-25 -17,-23 -20,-21 -26,-14 -27,-8 -27,-4 -32,2 -31,7 -11,4z" /><path style="fill:#a3d6d6" d="M686,106 l-14,-24 -21,-20 -23,-15 -26,-12 -32,-10 -26,-6 -30,-6 -23,-2 -8,-1 -8,0 -55,0 -28,3 -30,6 -33,8 -30,10 -28,13 -25,18 -19,24 -7,14 0,15 -28,-9 -30,4 -27,10 -23,20 -14,24 -4,28 5,27 1,3 6,12 -2,-1 -8,-1 -26,11 -23,17 -4,2 -16,23 -8,20 0,2 0,4 2,30 6,15 20,23 23,16 26,11 18,6 0,13 7,19 13,19 22,17 15,10 28,4 30,-2 13,-2 12,-9 1,-2 13,24 20,23 25,17 28,14 28,10 28,5 18,3 5,1 6,0 45,0 30,-4 29,-7 26,-10 28,-14 22,-18 5,-6 26,11 26,7 17,5 31,-1 5,1 27,-7 28,-11 24,-16 22,-23 9,-12 8,-26 1,-18 31,-1 27,-5 28,-13 23,-17 16,-21 8,-20 1,-3 0,-3 -3,-31 -14,-25 -22,-21 -23,-13 -14,-5 -14,-9 8,-28 -2,-32 -10,-24 -15,-24 -22,-19 -23,-14 -29,-8 -27,-5 -31,1 -31,7 -11,6z" /><path style="fill:#ade0e0" d="M682,108 l-14,-25 -21,-20 -27,-16 -26,-12 -26,-8 -28,-6 -29,-6 -22,-2 -8,-1 -7,0 -54,0 -28,3 -30,6 -33,8 -30,11 -26,12 -25,17 -12,10 -13,26 -1,3 0,15 -27,-9 -30,4 -20,6 -23,16 -8,6 -2,7 -12,24 -2,30 6,21 6,12 -2,-1 -8,-1 -26,11 -23,16 -18,21 -2,3 -8,20 0,2 0,4 3,29 5,16 16,20 24,17 25,11 21,8 7,27 12,24 23,16 27,12 29,3 29,-6 13,-9 13,24 2,3 22,22 24,16 29,13 27,8 29,5 12,3 5,0 6,0 43,0 30,-5 29,-6 26,-8 27,-15 13,-7 15,-17 25,10 26,8 16,5 31,-1 4,1 30,-8 28,-12 23,-17 19,-20 9,-12 9,-28 0,-14 33,-2 27,-6 27,-13 22,-17 17,-25 5,-14 0,-3 0,-3 -2,-29 -13,-25 -20,-19 -25,-16 -15,-6 -12,-7 8,-28 0,-22 -9,-27 -14,-23 -20,-22 -25,-15 -28,-10 -27,-5 -32,0 -29,7 -15,7z" /><path style="fill:#b5e8e8" d="M678,108 l-14,-24 -20,-19 -27,-16 -27,-12 -32,-9 -27,-6 -29,-5 -15,-2 -8,-1 -7,0 -52,0 -28,4 -30,5 -32,8 -26,9 -26,11 -25,18 -15,12 -14,26 -2,3 0,1 0,12 -27,-6 -30,2 -24,11 -22,16 -14,24 -5,29 6,29 3,2 3,8 -10,0 -27,13 -23,17 -17,21 -7,20 -1,2 0,3 3,29 5,15 20,22 24,17 26,12 16,5 5,29 1,2 13,19 22,16 15,10 29,4 29,-3 11,-1 13,-11 13,27 22,22 24,15 29,14 27,10 28,3 12,2 6,1 6,0 43,0 29,-5 17,-1 26,-10 29,-14 24,-16 11,-12 25,11 30,8 12,4 35,0 30,-8 27,-12 24,-16 19,-23 13,-26 2,-24 26,0 27,-6 4,0 24,-11 23,-17 18,-23 9,-20 1,-3 0,-3 0,-20 -12,-25 -19,-24 -23,-15 -26,-11 -7,-5 7,-28 -3,-29 -9,-26 -17,-23 -23,-21 -27,-13 -29,-8 -31,-2 -30,3 -27,9z" /><path style="fill:#8cbfbf" d="M697,102 l-17,-29 -31,-26 -44,-20 -57,-17 -61,-8 -64,0 -61,8 -55,17 -44,20 -33,26 -17,29 0,15 -46,-7 -46,17 -29,36 -6,44 12,33 -10,-2 -32,15 -23,17 -19,23 -8,23 0,25 8,25 19,23 23,17 32,12 18,7 6,33 32,34 46,18 48,-6 15,-10 15,29 25,25 35,23 46,15 49,8 52,0 48,-8 46,-15 36,-23 16,-14 34,12 35,8 38,0 36,-8 33,-15 25,-21 19,-27 11,-27 -2,-17 27,0 33,-6 30,-13 23,-16 16,-24 9,-22 0,-25 -25,-47 -23,-18 -30,-13 -12,-6 6,-23 0,-32 -11,-31 -16,-27 -27,-24 -32,-16 -38,-6 -37,0 -36,6 -10,6z" /><path style="fill:#a6d9d9" d="M684,106 l-14,-27 -32,-25 -42,-21 -54,-14 -59,-9 -63,0 -58,9 -53,14 -44,21 -31,25 -14,27 0,15 -45,-7 -46,15 -29,36 -6,42 14,33 -12,-2 -29,13 -24,17 -16,23 -8,22 0,24 8,25 16,21 24,17 29,12 18,6 7,32 32,33 43,17 48,-6 11,-9 15,27 25,26 35,21 44,14 46,9 51,0 48,-9 42,-14 35,-21 15,-15 33,13 36,8 36,0 33,-8 31,-15 26,-21 18,-25 9,-28 0,-14 27,0 31,-6 28,-13 23,-17 16,-21 9,-23 0,-25 -25,-44 -23,-16 -28,-13 -12,-9 6,-20 0,-32 -8,-29 -19,-27 -25,-21 -31,-15 -36,-8 -36,0 -35,8 -11,4z" /><path style="fill:#bff2f2" d="M674,110 l-17,-27 -29,-23 -42,-21 -50,-14 -57,-6 -61,0 -56,6 -53,14 -39,21 -32,23 -14,27 0,15 -42,-6 -44,15 -28,33 -6,40 13,33 -13,-2 -27,13 -23,17 -15,21 -8,22 0,24 23,43 23,15 27,13 19,6 6,31 30,32 42,17 45,-7 13,-8 15,27 23,23 33,21 42,15 46,6 49,0 45,-6 42,-15 34,-21 15,-15 31,15 34,7 35,0 32,-7 31,-15 23,-20 19,-25 8,-40 25,0 32,-7 25,-12 23,-17 17,-19 6,-23 0,-23 -6,-23 -17,-21 -23,-17 -25,-12 -13,-7 7,-50 -9,-29 -19,-25 -23,-21 -31,-15 -34,-8 -33,0 -36,8 -8,4z" /><path style="fill:none;stroke:#4c4c4c;stroke-width:2" d="M701,100 l-15,-29 -33,-26 -46,-22 -55,-15 -62,-8 -65,0 -63,8 -57,15 -46,22 -31,26 -17,31 0,15 -21,-9 -50,6 -23,11 -31,36 -7,46 15,33 -13,0 -31,13 -23,19 -19,21 -8,25 0,27 8,23 19,23 25,19 29,13 19,6 8,33 32,36 46,17 50,-7 13,-8 16,27 26,27 37,23 46,15 49,9 54,0 48,-9 46,-15 38,-23 14,-16 36,14 38,9 38,0 35,-9 34,-14 27,-21 19,-27 8,-30 0,-17 29,0 32,-6 29,-12 25,-19 17,-21 9,-25 0,-25 -9,-26 -17,-23 -25,-16 -29,-13 -13,-8 6,-23 0,-32 -8,-31 -19,-29 -27,-24 -34,-14 -37,-8 -38,0 -36,8 -12,4" /></svg>