<!DOCTYPE svg PUBLIC "-//W3C//DTD SVG 20000303 Stylable//EN" "http://www.w3.org/TR/2000/03/WD-SVG-20000303/DTD/svg-20000303-stylable.dtd"[]><svg width="384px" height="999px" viewBox="0 0 347 999" xmlns="http://www.w3.org/2000/svg"><path style="fill:#9191f7" d="M0,86 l173,0 0,913 -173,0 0,-913z" /><path style="fill:#8c8cf2" d="M0,540 l173,-110 0,569 -173,0 0,-459z" /><path style="fill:#8787ed" d="M0,550 l173,-110 0,559 -173,0 0,-449z" /><path style="fill:#8282e8" d="M0,566 l173,-109 0,542 -173,0 0,-433z" /><path style="fill:#7373d9" d="M347,0 l-174,86 0,913 174,-104 0,-895z" /><path style="fill:#d9d9d9" d="M218,974 l0,-153 -45,26 0,-22 116,-67 0,-129 -116,66 0,-22 45,-24 0,-132 -45,27 0,-23 116,-66 0,-130 -116,67 0,-22 45,-27 0,-129 -45,24 0,-20 116,-67 0,-131 10,-7 0,132 48,-28 0,22 -121,69 0,131 121,-70 0,22 -48,28 0,130 48,-29 0,23 -121,68 0,132 121,-71 0,22 -48,29 0,129 48,-26 0,20 -121,71 0,151 -8,6z" /><path style="fill:#99f" d="M0,86 l173,0 174,-86 -151,0 -196,86z" /><path style="fill:#f2f2f2" d="M173,847 l-173,0 0,-22 173,0 0,-130 -173,0 0,-22 173,0 0,-129 -173,-3 0,-20 173,0 0,-129 -173,-2 0,-23 173,3 0,-132 -173,0 0,-22 173,2 0,629z" /><path style="fill:none;stroke:#339;stroke-width:2" d="M0,999 l173,0 174,-104 0,-895 -151,0 -196,86 0,913" /></svg>