<!DOCTYPE svg PUBLIC "-//W3C//DTD SVG 20000303 Stylable//EN" "http://www.w3.org/TR/2000/03/WD-SVG-20000303/DTD/svg-20000303-stylable.dtd"[]><svg width="999px" height="999px" viewBox="0 0 999 999" xmlns="http://www.w3.org/2000/svg"><path style="fill:#699" d="M999,907 l-35,29 -66,22 -94,20 -113,14 -127,7 -132,0 -125,-7 -115,-14 -94,-20 -66,-22 -32,-29 0,-816 34,-27 64,-24 94,-20 113,-12 127,-8 132,0 127,8 115,12 92,20 66,24 35,27 0,816z" /><path style="fill:#6b9e9e" d="M970,928 l-32,14 -63,18 -89,18 -105,14 -121,7 -123,0 -120,-7 -107,-14 -87,-18 -63,-18 -32,-14 0,-844 32,-24 63,-22 87,-18 107,-14 120,-6 123,0 121,6 107,14 87,18 63,22 32,24 0,844z" /><path style="fill:#70a3a3" d="M940,940 l-28,12 -59,12 -83,16 -101,12 -111,7 -118,0 -111,-7 -101,-12 -83,-16 -59,-12 -30,-12 0,-861 30,-23 59,-22 81,-16 101,-12 113,-6 118,0 111,6 101,12 83,16 57,22 30,23 0,861z" /><path style="fill:#75a8a8" d="M912,950 l-29,10 -52,10 -79,12 -93,10 -105,7 -110,0 -105,-7 -93,-10 -78,-12 -55,-10 -29,-10 0,-878 29,-20 55,-20 76,-16 95,-10 105,-6 110,0 105,6 95,10 75,16 54,20 29,20 0,878z" /><path style="fill:#78abab" d="M883,960 l-26,4 -51,10 -72,8 -87,10 -98,7 -100,0 -100,-7 -87,-10 -70,-8 -53,-10 -26,-4 0,-892 26,-20 53,-18 70,-14 87,-10 100,-6 100,0 98,6 89,10 70,14 51,18 26,20 0,892z" /><path style="fill:#7db0b0" d="M855,966 l-24,4 -47,6 -66,8 -82,10 -91,5 -92,0 -91,-5 -82,-10 -66,-8 -46,-6 -25,-4 0,-904 25,-18 46,-16 66,-14 82,-8 91,-6 92,0 91,4 82,10 66,14 47,16 24,18 0,904z" /><path style="fill:#82b5b5" d="M827,972 l-23,4 -44,4 -61,6 -75,8 -82,5 -86,0 -84,-5 -73,-8 -63,-6 -42,-4 -23,-4 0,-916 23,-16 42,-16 61,-10 75,-10 83,-4 87,0 82,4 75,10 61,10 44,16 23,16 0,916z" /><path style="fill:#87baba" d="M798,974 l-20,4 -40,4 -55,4 -69,8 -77,5 -79,0 -74,-5 -69,-8 -55,-4 -40,-4 -20,-4 0,-924 20,-14 40,-14 55,-10 69,-8 74,-4 79,0 77,4 69,8 55,10 40,14 20,14 0,924z" /><path style="fill:#8cbfbf" d="M770,980 l-20,2 -35,2 -50,5 -63,5 -69,5 -70,0 -69,-5 -61,-5 -50,-5 -37,-2 -18,-2 0,-936 18,-12 37,-12 50,-11 61,-5 69,-4 70,0 69,4 63,5 50,11 35,12 20,12 0,936z" /><path style="fill:#91c4c4" d="M740,982 l-16,2 -31,5 -46,2 -55,3 -61,5 -64,0 -61,-5 -55,-3 -46,-2 -32,-5 -17,-2 0,-942 19,-12 30,-10 44,-9 57,-5 61,-4 64,0 61,4 55,5 46,9 31,10 16,12 0,942z" /><path style="fill:#96c9c9" d="M711,984 l-14,2 -28,5 -38,0 -49,5 -55,3 -56,0 -55,-3 -49,-5 -38,0 -28,-5 -16,-2 0,-950 16,-10 28,-10 38,-6 49,-4 55,-4 56,0 55,2 49,6 38,6 28,10 14,10 0,950z" /><path style="fill:#9ccfcf" d="M683,991 l-12,1 -24,0 -35,0 -42,4 -47,3 -48,0 -47,-3 -42,-4 -35,0 -24,0 -12,-1 0,-963 12,-8 24,-8 35,-6 42,-4 47,-2 48,0 47,2 42,4 35,6 24,8 12,8 0,963z" /><path style="fill:#9ed1d1" d="M655,992 l-10,0 -21,2 -30,-2 -34,4 -41,3 -40,0 -41,-3 -36,-4 -28,2 -21,-2 -10,0 0,-970 10,-6 21,-7 28,-3 36,-4 41,-2 40,0 41,2 34,4 30,3 21,7 10,6 0,970z" /><path style="fill:#a3d6d6" d="M626,992 l-9,2 -17,-3 -22,3 -31,2 -32,3 -32,0 -32,-3 -31,-2 -24,-3 -16,3 -8,-2 0,-976 8,-4 16,-4 24,-4 29,-2 32,-2 34,0 32,2 31,2 22,4 17,4 9,4 0,976z" /><path style="fill:#a8dbdb" d="M598,994 l-8,-3 -12,3 -18,2 -23,0 -26,3 -26,0 -24,-3 -23,0 -18,-2 -14,-3 -6,3 0,-982 6,-4 14,-2 18,-4 23,0 24,-2 26,0 26,2 23,0 18,4 12,2 8,4 0,982z" /><path style="fill:#ade0e0" d="M570,992 l-6,2 -8,2 -14,0 -17,3 -18,0 -18,0 -16,0 -18,-3 -13,0 -10,-2 -4,-2 0,-986 6,-2 8,-2 13,0 18,-2 16,0 18,0 18,0 17,2 14,0 8,2 6,2 0,986z" /><path style="fill:#b2e5e5" d="M540,999 l-3,0 -6,0 -8,0 -8,0 -12,0 -10,0 -10,0 -10,0 -8,0 -7,0 -2,0 0,-999 5,0 4,0 8,0 10,0 10,0 10,0 12,0 8,0 8,0 6,0 3,0 0,999z" /><path style="fill:none;stroke:#366;stroke-width:2" d="M999,907 l-35,29 -66,22 -94,20 -113,14 -127,7 -132,0 -125,-7 -115,-14 -94,-20 -66,-22 -32,-29 0,-816 34,-27 64,-24 94,-20 113,-12 127,-8 132,0 127,8 115,12 92,20 66,24 35,27 0,816" /><path style="fill:#9cc;stroke:#366;stroke-width:2" d="M898,168 l-94,19 -113,15 -127,6 -132,0 -127,-6 -113,-15 -94,-19 -64,-23 -34,-28 0,-26 34,-27 64,-24 94,-18 113,-14 127,-8 132,0 127,8 113,14 94,18 66,24 35,27 0,26 -35,28 -66,23z" /><path style="fill:#fff;stroke:#699;stroke-width:2" d="M564,147 l123,45 81,-10 -125,-45 81,-10 -182,-8 -59,36 81,-8z" /><path style="fill:#fff;stroke:#699;stroke-width:2" d="M434,62 l-125,-46 -79,10 125,44 -80,10 181,8 59,-36 -81,10z" /><path style="fill:#fff;stroke:#699;stroke-width:2" d="M811,79 l-217,26 -47,-19 217,-26 -46,-16 177,12 -38,39 -46,-16z" /><path style="fill:#fff;stroke:#699;stroke-width:2" d="M187,131 l217,-26 45,16 -215,26 44,16 -175,-12 38,-38 46,18z" /><path style="fill:#fff;stroke:#699;stroke-width:2" d="M485,437 l0,-112 -29,0 43,-40 41,40 -27,0 0,112 -28,0z" /><path style="fill:#fff;stroke:#699;stroke-width:2" d="M513,770 l0,109 27,0 -41,43 -43,-43 29,0 0,-109 28,0z" /><path style="fill:#fff;stroke:#699;stroke-width:2" d="M331,617 l-109,0 0,28 -42,-43 42,-40 0,26 109,0 0,29z" /><path style="fill:#fff;stroke:#699;stroke-width:2" d="M665,588 l111,0 0,-26 40,40 -40,43 0,-28 -111,0 0,-29z" /><path style="fill:#fff;stroke:#699;stroke-width:2" d="M606,475 l79,-77 -20,-20 59,0 0,59 -21,-21 -77,79 -20,-20z" /><path style="fill:#fff;stroke:#699;stroke-width:2" d="M392,730 l-79,79 20,20 -58,0 0,-59 18,18 79,-77 20,19z" /><path style="fill:#fff;stroke:#699;stroke-width:2" d="M372,495 l-79,-79 -20,21 0,-59 58,0 -18,20 77,77 -18,20z" /><path style="fill:#fff;stroke:#699;stroke-width:2" d="M626,711 l77,77 21,-18 0,59 -59,-2 20,-18 -79,-79 20,-19z" /><path style="fill:#fff;stroke:#699;stroke-width:2" d="M564,758 l-43,10 -44,0 -43,-10 -36,-22 -32,-30 -23,-39 -10,-43 0,-44 10,-40 23,-39 30,-30 38,-22 43,-12 44,0 43,12 36,22 33,30 20,39 12,40 0,44 -12,43 -20,39 -33,30 -36,22z" /></svg>