<!DOCTYPE svg PUBLIC "-//W3C//DTD SVG 20000303 Stylable//EN" "http://www.w3.org/TR/2000/03/WD-SVG-20000303/DTD/svg-20000303-stylable.dtd"[]><svg width="999px" height="562px" viewBox="0 0 999 536" xmlns="http://www.w3.org/2000/svg"><path style="fill:#699" d="M999,446 l-35,27 -66,24 -94,18 -113,15 -127,6 -130,0 -127,-6 -115,-15 -92,-18 -68,-24 -32,-27 0,-344 999,0 0,344z" /><path style="fill:#6b9e9e" d="M970,466 l-33,14 -61,19 -88,19 -107,12 -121,6 -122,0 -121,-6 -107,-12 -88,-19 -61,-19 -33,-14 0,-364 942,0 0,364z" /><path style="fill:#70a3a3" d="M941,478 l-31,11 -57,12 -84,17 -100,12 -113,6 -114,0 -113,-6 -100,-12 -84,-17 -57,-12 -31,-11 0,-376 884,0 0,376z" /><path style="fill:#75a8a8" d="M912,489 l-28,8 -53,10 -78,13 -94,10 -105,6 -110,0 -105,-6 -94,-10 -77,-13 -54,-10 -28,-8 0,-387 826,0 0,387z" /><path style="fill:#78abab" d="M884,497 l-27,6 -51,10 -71,9 -89,10 -96,4 -102,0 -98,-4 -87,-10 -71,-9 -51,-10 -27,-6 0,-395 770,0 0,395z" /><path style="fill:#7db0b0" d="M855,503 l-24,6 -47,6 -66,7 -82,10 -90,4 -94,0 -90,-4 -82,-10 -66,-7 -46,-6 -25,-6 0,-401 712,0 0,401z" /><path style="fill:#82b5b5" d="M827,509 l-23,4 -43,7 -61,4 -74,8 -84,4 -86,0 -84,-4 -74,-8 -61,-4 -43,-7 -22,-4 0,-407 655,0 0,407z" /><path style="fill:#87baba" d="M798,513 l-21,2 -38,7 -56,2 -69,8 -76,4 -78,0 -75,-4 -70,-8 -56,-2 -38,-7 -21,-2 0,-411 598,0 0,411z" /><path style="fill:#8cbfbf" d="M769,520 l-18,0 -35,4 -51,2 -61,6 -70,4 -70,0 -69,-4 -62,-6 -51,-2 -35,-4 -18,0 0,-418 540,0 0,418z" /><path style="fill:#91c4c4" d="M741,520 l-17,2 -33,4 -45,2 -53,6 -63,2 -61,0 -64,-2 -53,-6 -47,-2 -31,-4 -17,-2 0,-418 484,0 0,418z" /><path style="fill:#96c9c9" d="M712,522 l-15,4 -28,2 -39,0 -49,6 -53,2 -57,0 -54,-2 -49,-6 -39,0 -28,-2 -15,-4 0,-420 426,0 0,420z" /><path style="fill:#9ccfcf" d="M683,528 l-12,2 -25,0 -34,0 -41,4 -47,2 -50,0 -47,-2 -40,-4 -35,0 -25,0 -12,-2 0,-426 368,0 0,426z" /><path style="fill:#9ed1d1" d="M655,530 l-11,2 -20,0 -29,0 -37,2 -38,2 -42,0 -38,-2 -37,-2 -29,0 -20,0 -11,-2 0,-428 312,0 0,428z" /><path style="fill:#a3d6d6" d="M626,532 l-8,0 -16,-4 -25,4 -29,4 -33,0 -32,0 -33,0 -29,-4 -24,-4 -17,4 -8,0 0,-430 254,0 0,430z" /><path style="fill:#a8dbdb" d="M597,532 l-6,-4 -12,4 -19,2 -22,2 -27,0 -24,0 -27,0 -22,-2 -19,-2 -12,-4 -6,4 0,-430 196,0 0,430z" /><path style="fill:#ade0e0" d="M569,530 l-5,2 -10,2 -12,2 -16,0 -19,0 -16,0 -18,0 -17,0 -14,-2 -8,-2 -5,-2 0,-428 140,0 0,428z" /><path style="fill:#b2e5e5" d="M540,536 l-2,0 -6,0 -8,0 -9,0 -12,0 -10,0 -10,0 -10,0 -7,0 -6,0 -4,0 0,-434 84,0 0,434z" /><path style="fill:none;stroke:#366;stroke-width:2" d="M999,446 l-35,27 -66,24 -94,18 -113,15 -127,6 -130,0 -127,-6 -115,-15 -92,-18 -68,-24 -32,-27 0,-344 999,0 0,344" /><path style="fill:#9cc;stroke:#366;stroke-width:2" d="M898,168 l-92,18 -115,14 -127,6 -130,0 -127,-6 -115,-14 -92,-18 -65,-25 -35,-27 0,-26 35,-27 65,-25 92,-18 115,-14 127,-6 130,0 127,6 115,14 92,18 66,25 35,27 0,26 -35,27 -66,25z" /><path style="fill:#fff" d="M564,145 l126,45 77,-8 -123,-47 80,-9 -182,-8 -59,37 81,-10z" /><path style="fill:#fff" d="M436,61 l-127,-47 -78,10 123,45 -80,10 184,9 57,-37 -79,10z" /><path style="fill:#fff" d="M810,75 l-215,27 -47,-16 215,-27 -47,-17 178,13 -39,39 -45,-19z" /><path style="fill:#fff" d="M188,128 l215,-24 47,16 -217,25 47,18 -178,-12 39,-39 47,16z" /><path style="fill:#699" d="M716,42 l178,13 -10,10 -133,-10 -35,-13z" /><path style="fill:#699" d="M546,86 l217,-27 0,10 -190,25 -27,-8z" /><path style="fill:#699" d="M480,155 l62,-37 184,8 -59,7 -125,-5 -39,25 -23,2z" /><path style="fill:#699" d="M644,135 l0,12 105,37 22,-2 -127,-47z" /><path style="fill:#699" d="M229,24 l23,8 57,-8 131,47 57,-10 21,-10 -80,10 -129,-47 -80,10z" /><path style="fill:#699" d="M274,79 l51,2 29,-2 0,-10 -80,10z" /><path style="fill:#699" d="M282,163 l-33,-2 -14,-6 0,-10 47,18z" /><path style="fill:#699" d="M141,112 l-41,39 12,2 29,-31 47,17 217,-27 26,10 21,-2 -47,-16 -217,24 -47,-16z" /></svg>