<!DOCTYPE svg PUBLIC "-//W3C//DTD SVG 20000303 Stylable//EN" "http://www.w3.org/TR/2000/03/WD-SVG-20000303/DTD/svg-20000303-stylable.dtd"[]><svg width="998px" height="606px" viewBox="0 0 999 583" xmlns="http://www.w3.org/2000/svg"><path style="fill:#699" d="M999,493 l-35,26 -66,23 -94,21 -113,14 -126,6 -132,0 -126,-6 -115,-14 -92,-21 -68,-23 -32,-26 0,-401 34,-29 66,-23 92,-20 115,-12 126,-8 132,0 126,8 115,12 92,20 66,23 35,29 0,401z" /><path style="fill:#6b9e9e" d="M970,513 l-33,13 -61,20 -88,17 -107,14 -121,6 -122,0 -121,-6 -106,-14 -89,-17 -61,-20 -33,-13 0,-427 33,-27 61,-21 89,-18 106,-14 121,-6 122,0 121,6 107,14 88,18 61,21 33,27 0,427z" /><path style="fill:#70a3a3" d="M941,526 l-30,10 -58,12 -82,17 -102,12 -112,6 -115,0 -113,-6 -100,-12 -84,-17 -58,-12 -30,-10 0,-447 30,-24 58,-21 82,-16 102,-12 113,-6 115,0 114,6 100,12 82,16 58,21 30,24 0,447z" /><path style="fill:#75a8a8" d="M913,536 l-29,8 -53,10 -78,12 -94,11 -105,6 -108,0 -107,-6 -94,-11 -76,-12 -55,-10 -28,-8 0,-463 28,-22 55,-19 76,-16 94,-10 105,-6 110,0 105,6 94,10 78,16 53,19 29,22 0,463z" /><path style="fill:#78abab" d="M884,544 l-27,4 -49,10 -73,8 -86,11 -99,6 -102,0 -96,-6 -88,-11 -72,-8 -51,-10 -27,-4 0,-477 27,-18 51,-19 72,-14 88,-10 96,-6 102,0 99,6 88,10 69,14 51,19 27,18 0,477z" /><path style="fill:#7db0b0" d="M856,550 l-25,4 -47,9 -66,6 -82,10 -90,4 -94,0 -90,-4 -82,-10 -66,-6 -47,-9 -24,-4 0,-487 24,-18 47,-17 66,-14 82,-8 90,-6 94,0 90,6 82,8 66,14 47,17 25,18 0,487z" /><path style="fill:#82b5b5" d="M827,557 l-23,3 -43,5 -61,6 -74,8 -84,4 -86,0 -84,-4 -74,-8 -61,-6 -43,-5 -22,-3 0,-500 22,-17 43,-16 61,-10 74,-8 84,-6 86,0 84,4 76,10 59,10 43,16 23,17 0,500z" /><path style="fill:#87baba" d="M798,560 l-20,3 -39,6 -56,2 -69,8 -76,4 -78,0 -76,-4 -69,-8 -56,-2 -39,-6 -20,-3 0,-509 20,-15 39,-14 56,-10 69,-8 76,-4 78,0 78,4 67,8 56,10 39,14 20,15 0,509z" /><path style="fill:#8cbfbf" d="M769,565 l-18,1 -35,3 -51,4 -61,6 -70,4 -70,0 -69,-4 -62,-6 -51,-4 -35,-3 -18,-1 0,-520 18,-13 35,-12 51,-10 62,-6 69,-4 70,0 70,4 61,6 51,10 35,12 18,13 0,520z" /><path style="fill:#91c4c4" d="M741,566 l-17,3 -31,4 -44,2 -56,4 -61,4 -64,0 -61,-4 -55,-4 -45,-2 -33,-4 -16,-3 0,-526 16,-12 33,-10 45,-8 55,-6 59,-4 66,0 61,4 56,6 44,8 31,10 17,12 0,526z" /><path style="fill:#96c9c9" d="M712,569 l-14,2 -29,4 -39,0 -49,6 -53,2 -57,0 -54,-2 -49,-6 -39,0 -29,-4 -14,-2 0,-535 14,-10 29,-8 39,-8 49,-4 54,-4 57,0 53,4 49,4 39,8 29,8 14,10 0,535z" /><path style="fill:#9ccfcf" d="M683,575 l-12,2 -25,0 -34,0 -41,4 -47,2 -50,0 -47,-2 -41,-4 -34,0 -25,0 -12,-2 0,-547 12,-8 25,-8 34,-6 41,-5 47,-1 50,0 47,1 43,5 32,6 25,8 12,8 0,547z" /><path style="fill:#9ed1d1" d="M655,577 l-11,0 -20,2 -29,-2 -37,4 -39,2 -40,0 -39,-2 -37,-4 -29,2 -20,-2 -10,0 0,-555 10,-6 20,-6 29,-4 37,-5 39,-1 40,0 41,1 35,5 29,4 20,6 11,6 0,555z" /><path style="fill:#a3d6d6" d="M626,577 l-8,2 -17,-4 -24,4 -29,2 -32,2 -33,0 -33,-2 -29,-2 -24,-4 -17,4 -8,-2 0,-559 8,-6 17,-4 24,-4 29,-3 33,-1 33,0 32,1 29,3 24,4 17,4 8,6 0,559z" /><path style="fill:#a8dbdb" d="M597,579 l-6,-4 -12,4 -19,2 -22,2 -27,0 -24,0 -25,0 -24,-2 -17,-2 -14,-4 -6,4 0,-567 6,-4 14,-2 17,-2 24,-3 25,-1 24,0 27,1 22,3 19,2 12,2 6,4 0,567z" /><path style="fill:#ade0e0" d="M569,577 l-4,2 -8,2 -15,0 -16,2 -19,0 -16,0 -19,0 -16,-2 -12,0 -11,-2 -3,-2 0,-571 3,-2 11,0 12,-3 16,0 19,-1 16,0 19,0 16,1 15,3 8,0 4,2 0,571z" /><path style="fill:#b2e5e5" d="M540,583 l-2,0 -6,0 -8,0 -8,0 -11,0 -12,0 -10,0 -11,0 -6,0 -6,0 -2,0 0,-583 2,0 6,0 6,0 11,1 10,-1 12,0 11,0 8,0 8,0 6,0 2,0 0,583z" /><path style="fill:none;stroke:#366;stroke-width:2" d="M999,493 l-35,26 -66,23 -94,21 -113,14 -126,6 -132,0 -126,-6 -115,-14 -92,-21 -68,-23 -32,-26 0,-401 34,-29 66,-23 92,-20 115,-12 126,-8 132,0 126,8 115,12 92,20 66,23 35,29 0,401" /><path style="fill:#9cc;stroke:#366;stroke-width:2" d="M898,167 l-92,21 -115,14 -126,6 -132,0 -126,-6 -115,-14 -92,-21 -66,-22 -34,-27 0,-28 34,-25 66,-25 92,-20 115,-12 126,-8 132,0 126,8 115,12 92,20 66,25 35,25 0,28 -35,27 -66,22z" /><path style="fill:#fff;stroke:#699;stroke-width:2" d="M563,147 l124,45 80,-10 -124,-45 81,-11 -182,-8 -59,39 80,-10z" /><path style="fill:#fff;stroke:#699;stroke-width:2" d="M436,61 l-125,-45 -80,10 125,45 -80,10 182,9 58,-37 -80,8z" /><path style="fill:#fff;stroke:#699;stroke-width:2" d="M810,77 l-217,27 -45,-17 215,-26 -45,-16 178,12 -39,37 -47,-17z" /><path style="fill:#fff;stroke:#699;stroke-width:2" d="M188,131 l215,-27 47,16 -217,27 47,16 -178,-12 39,-37 47,17z" /><path style="fill:#366;stroke:#366;stroke-width:2" d="M440,518 l131,0 127,-7 114,-14 92,-18 66,-25 0,-27 -66,23 -92,21 -114,14 -127,6 -131,0 0,-27 131,-2 127,-6 114,-14 92,-19 66,-24 0,-27 -66,23 -92,20 -114,15 -127,6 -131,0 0,-29 131,0 127,-6 114,-15 92,-18 66,-24 0,-27 -66,22 -92,21 -114,14 -127,6 -131,0 0,-28 131,0 127,-7 114,-14 92,-18 66,-25 0,-27 -66,23 -92,21 -114,14 -127,6 -131,0 0,-27 131,-1 127,-7 114,-14 92,-18 66,-25 0,-27 -66,23 -92,20 -114,15 -127,6 -131,0 0,-12 -31,0 0,274 31,0 0,-14z" /><path style="fill:none;stroke:#fff;stroke-width:2" d="M409,532 l31,0" /><path style="fill:none;stroke:#fff;stroke-width:2" d="M440,518 l131,0 127,-7 114,-14 92,-18 66,-25" /><path style="fill:none;stroke:#fff;stroke-width:2" d="M440,464 l131,-2 127,-6 114,-14 92,-19 66,-24" /><path style="fill:none;stroke:#fff;stroke-width:2" d="M440,407 l131,0 127,-6 114,-15 92,-18 66,-24" /><path style="fill:none;stroke:#fff;stroke-width:2" d="M440,352 l131,0 127,-7 114,-14 92,-18 66,-25" /><path style="fill:none;stroke:#fff;stroke-width:2" d="M440,298 l131,-1 127,-7 114,-14 92,-18 66,-25" /></svg>