<!DOCTYPE svg PUBLIC "-//W3C//DTD SVG 20000303 Stylable//EN" "http://www.w3.org/TR/2000/03/WD-SVG-20000303/DTD/svg-20000303-stylable.dtd"[]><svg width="999px" height="598px" viewBox="0 0 999 574" xmlns="http://www.w3.org/2000/svg"><path style="fill:#4c4cb2" d="M904,551 l-88,0 -453,-441 35,-65 4,82 547,-62 4,45 40,0 6,281 -95,160z" /><path style="fill:#99f" d="M904,551 l-108,4 -83,13 -104,6 -115,0 -105,-6 -82,-13 -109,-4 -198,0 0,-110 221,-396 177,0 -23,65 49,0 17,-45 508,0 -12,45 56,0 -89,331 0,110z" /><path style="fill:#e5e5ff" d="M391,254 l154,0 -59,176 -173,0 78,-176z" /><path style="fill:#66c" d="M496,258 l5,0 38,0 -3,9 -3,9 -4,9 -4,10 -11,-1 -11,0 -11,0 -10,1 3,-11 3,-9 4,-9 4,-8z" /><path style="fill:#66c" d="M443,258 l6,0 39,0 -3,8 -4,9 -3,9 -5,9 -11,0 -11,1 -12,0 -5,1 -6,0 5,-10 3,-9 4,-9 3,-9z" /><path style="fill:#66c" d="M395,258 l6,0 40,0 -4,9 -4,8 -4,9 -5,9 -43,0 4,-9 3,-9 4,-9 3,-8z" /><path style="fill:#66c" d="M377,297 l6,0 39,0 -3,9 -3,10 -4,10 -4,10 -47,0 4,-10 5,-10 4,-9 3,-10z" /><path style="fill:#66c" d="M426,297 l6,0 39,0 -3,10 -3,9 -4,10 -4,10 -45,0 3,-10 4,-10 4,-10 3,-9z" /><path style="fill:#66c" d="M479,297 l6,0 40,0 -5,9 -3,10 -4,10 -3,10 -45,0 3,-10 4,-10 3,-10 4,-9z" /><path style="fill:#66c" d="M463,340 l6,0 39,0 -3,10 -4,9 -4,9 -3,11 -47,0 4,-11 4,-9 4,-9 4,-10z" /><path style="fill:#66c" d="M410,340 l5,0 40,0 -3,10 -4,10 -4,9 -3,10 -48,0 4,-11 4,-9 4,-9 5,-10z" /><path style="fill:#66c" d="M358,340 l6,0 42,0 -5,10 -3,9 -5,9 -4,11 -47,0 5,-11 4,-9 4,-9 3,-10z" /><path style="fill:#66c" d="M340,383 l6,0 41,0 -4,10 -5,10 -4,11 -3,10 -19,0 -12,1 -12,0 -6,1 4,-11 5,-11 4,-11 5,-10z" /><path style="fill:#66c" d="M391,383 l6,0 41,0 -4,10 -4,10 -3,11 -5,10 -49,0 4,-10 5,-11 5,-10 4,-10z" /><path style="fill:#66c" d="M445,383 l6,0 41,0 -4,10 -3,10 -4,11 -3,10 -50,0 5,-10 4,-11 4,-10 4,-10z" /><path style="fill:#ccf" d="M467,81 l431,0 -55,161 -445,0 69,-161z" /><path style="fill:#66c" d="M486,104 l316,0 -41,117 -327,0 52,-117z" /><path style="fill:#339" d="M486,104 l316,0 -6,15 -298,0 -47,102 -17,0 52,-117z" /><path style="fill:none;stroke:#fff;stroke-width:2" d="M398,242 l69,-161 431,0" /><path style="fill:none;stroke:#4c4c4c;stroke-width:2" d="M898,81 l-55,161 -445,0" /><path style="fill:#7f7fe5" d="M793,441 l-80,16 -104,6 -115,0 -105,-6 -82,-12 -109,-4 -198,0 0,110 198,0 109,4 82,13 105,6 115,0 104,-6 83,-13 108,-4 0,-110 -111,0z" /><path style="fill:#fff" d="M691,264 l53,0 17,4 14,6 12,11 9,10 4,12 0,15 -4,12 -9,10 -12,10 -14,7 -17,4 -37,0 0,-15 35,0 13,-2 10,-4 10,-8 6,-8 2,-8 0,-11 -2,-10 -6,-8 -10,-6 -10,-4 -13,-4 -35,0 0,164 -16,0 0,-177z" /><path style="fill:#fff" d="M627,264 l17,0 0,177 -17,0 0,-177z" /><path style="fill:#7878de" d="M793,441 l-80,16 -219,117 115,0 104,-6 83,-13 108,-4 0,-110 -111,0z" /><path style="fill:#7070d6" d="M793,441 l-184,133 104,-6 83,-13 108,-4 0,-110 -111,0z" /><path style="fill:#6969cf" d="M810,441 l-97,127 83,-13 36,-114 -22,0z" /><path style="fill:#339" d="M297,149 l12,-16 49,-45 -32,61 -29,0z" /><path style="fill:#66c" d="M209,408 l-177,0 0,-82 49,-111 68,-121 76,-94 133,0 0,88 -38,61 -11,-16 -61,125 6,39 -45,111z" /><path style="fill:#99f" d="M192,326 l-160,0 49,-111 68,-121 76,-94 133,0 -71,94 -66,121 -29,111z" /><path style="fill:#7f7fe5" d="M209,408 l-177,0 0,-82 160,0 17,82z" /><path style="fill:#9191f7" d="M192,326 l-160,0 49,-111 140,0 -29,111z" /><path style="fill:#9494fa" d="M81,215 l68,-121 138,0 -66,121 -140,0z" /><path style="fill:none;stroke:#339;stroke-width:2" d="M32,408 l177,0 45,-111" /><path style="fill:none;stroke:#4c4c4c;stroke-width:2" d="M904,551 l-108,4 -83,13 -104,6 -115,0 -105,-6 -82,-13 -109,-4 -198,0 0,-110 32,-60 0,-55 49,-111 68,-121 76,-94 133,0 0,45 40,0 4,65 22,0 17,-45 508,0 4,45 40,0 6,281 -95,160" /></svg>