<!DOCTYPE svg PUBLIC "-//W3C//DTD SVG 20000303 Stylable//EN" "http://www.w3.org/TR/2000/03/WD-SVG-20000303/DTD/svg-20000303-stylable.dtd"[]><svg width="904px" height="999px" viewBox="0 0 899 999" xmlns="http://www.w3.org/2000/svg"><path style="fill:#33260d;stroke:#4c4c4c;stroke-width:2" d="M6,973 l459,0 112,-60 0,26 -112,60 -459,0 0,-26z" /><path style="fill:#fff2d9" d="M577,41 l-16,-12 -30,-10 -44,-9 -54,-7 -60,-3 -64,0 -60,3 -54,7 -44,9 -132,60 454,13 104,-51z" /><path style="fill:#e0d3ba" d="M577,41 l-104,51 0,881 104,-55 0,-877z" /><path style="fill:none;stroke:#7f7259;stroke-width:2" d="M577,41 l-16,-12 -30,-10 -44,-9 -54,-7 -60,-3 -64,0 -60,3 -54,7 -44,9 -132,60 454,894 104,-55 0,-877" /><path style="fill:#e5d8bf" d="M473,93 l-18,-12 -30,-10 -44,-9 -54,-7 -60,-2 -62,0 -60,2 -53,7 -44,9 -33,10 -15,12 0,880 473,0 0,-880z" /><path style="fill:#ebdec5" d="M437,93 l-23,-16 -26,-8 -29,-7 -28,-4 -30,-4 -31,-2 -7,-1 -6,0 -48,0 -30,3 -31,3 -29,4 -29,6 -27,9 -14,5 -11,11 -2,1 0,28 0,54 1,55 0,110 0,55 0,302 0,55 0,83 -1,55 0,55 0,28 12,0 38,-1 37,-1 50,0 38,0 75,0 38,0 38,1 37,0 26,1 12,0 0,-28 0,-852z" /><path style="fill:#ede0c7" d="M401,93 l-22,-17 -27,-10 -28,-7 -30,-4 -31,-3 -6,-1 -5,0 -37,0 -31,3 -29,5 -27,5 -29,9 -16,8 -8,9 -4,3 0,28 1,54 0,55 1,55 0,110 0,55 0,192 0,55 0,83 -1,55 0,55 -1,55 0,28 11,0 31,-1 31,-1 41,0 31,0 62,0 31,0 31,1 30,0 21,1 10,0 0,-28 0,-852z" /><path style="fill:#f2e5cc" d="M365,93 l-21,-20 -26,-10 -29,-7 -31,-4 -5,-1 -4,0 -30,0 -32,4 -30,7 -25,10 -14,9 -7,9 -4,3 0,28 1,54 0,55 0,110 1,55 0,302 -1,55 0,83 0,55 -1,55 0,28 17,-1 32,0 32,-1 32,0 49,0 32,0 32,1 16,0 16,1 0,-28 0,-852z" /><path style="fill:#f7ead1" d="M329,93 l-16,-20 -25,-13 -27,-7 -9,-1 -3,-1 -3,0 -30,2 -28,6 -9,3 -24,16 -8,12 -2,3 0,28 0,824 0,28 12,-1 35,-1 34,0 34,0 35,1 23,0 11,1 0,-28 0,-852z" /><path style="fill:#faedd4" d="M291,93 l-2,-12 -19,-20 -25,-9 -2,-1 -1,0 -30,6 -22,16 -8,17 -1,3 0,28 0,824 0,28 7,-1 35,-1 35,0 33,2 1,-56 0,-55 0,-55 0,-55 0,-83 1,-27 0,-28 0,-192 -1,-55 0,-82 0,-55 0,-55 -1,-54 0,-28z" /><path style="fill:#e8dbc2" d="M445,93 l-14,-12 -28,-10 -38,-9 -48,-7 -54,-4 -54,0 -54,4 -48,7 -37,9 -29,10 -14,12 0,880 418,0 0,-880z" /><path style="fill:#ebdec5" d="M419,93 l-14,-12 -24,-10 -32,-9 -42,-7 -46,-4 -50,0 -46,4 -42,7 -34,9 -23,10 -13,12 0,880 366,0 0,-880z" /><path style="fill:#f0e3ca" d="M391,93 l-10,-12 -20,-10 -30,-9 -34,-7 -40,-4 -42,0 -38,4 -36,7 -30,9 -19,10 -11,12 0,880 310,0 0,-880z" /><path style="fill:#f2e5cc" d="M365,93 l-10,-12 -16,-10 -24,-9 -30,-7 -32,-4 -34,0 -32,4 -30,7 -24,9 -15,10 -11,12 0,880 258,0 0,-880z" /><path style="fill:#f5e8cf" d="M337,93 l-6,-12 -14,-10 -18,-9 -24,-7 -26,-4 -26,0 -26,4 -22,7 -20,9 -11,10 -9,12 0,880 202,0 0,-880z" /><path style="fill:#f7ead1" d="M309,93 l-4,-12 -10,-10 -14,-9 -16,-7 -18,-4 -20,0 -20,4 -16,7 -14,9 -10,10 -4,12 0,880 146,0 0,-880z" /><path style="fill:#fcefd6" d="M283,93 l-4,-12 -6,-10 -8,-9 -10,-7 -12,-4 -12,0 -12,4 -12,7 -8,9 -6,10 -4,12 0,880 94,0 0,-880z" /><path style="fill:#fff2d9" d="M255,93 l-2,-12 -2,-10 -4,-9 -4,-7 -4,-2 -6,0 -4,2 -6,7 -2,9 -4,10 0,12 0,880 38,0 0,-880z" /><path style="fill:none;stroke:#7f7259;stroke-width:2" d="M15,81 l-15,12 0,880 473,0" /><path style="fill:#d9ccb3" d="M51,263 l368,0 0,52 -368,0 0,-52z" /><path style="fill:none;stroke:#fff2d9;stroke-width:2" d="M419,315 l-368,0" /><path style="fill:none;stroke:#7f7259;stroke-width:2" d="M419,263 l-368,0" /><path style="fill:#665940" d="M157,283 l158,0 0,12 -158,0 0,-12z" /><path style="fill:#665940" d="M71,157 l330,0 0,20 -330,0 0,-20z" /><path style="fill:#665940" d="M71,892 l330,0 0,26 -330,0 0,-26z" /><path style="fill:#665940" d="M71,840 l330,0 0,26 -330,0 0,-26z" /><path style="fill:#665940" d="M71,789 l330,0 0,26 -330,0 0,-26z" /><circle style="fill:#998c73;stroke:#998c73;stroke-width:2" cx="236" cy="499" r="39" /><circle style="fill:#99f;stroke:#4c4c4c;stroke-width:2" cx="235" cy="499" r="26" /><circle style="fill:#ccf" cx="230" cy="493" r="13" /><path style="fill:#f2e5cc" d="M209,171 l54,0 0,8 -54,0 0,-8z" /><path style="fill:none;stroke:#ccbfa6;stroke-width:2" d="M473,973 l0,-881" /><path style="fill:#b2b2b2" d="M531,728 l368,0 0,185 -368,0 0,-185z" /><path style="fill:#f2f2f2" d="M525,737 l367,0 0,181 -367,0 0,-181z" /><path style="fill:#ebebeb;stroke:#b2b2b2;stroke-width:2" d="M525,918 l184,-103 183,103 -367,0z" /><path style="fill:#d9d9d9" d="M525,749 l184,117 183,-117 0,-12 -367,0 0,12z" /><path style="fill:none;stroke:#4c4c4c;stroke-width:2" d="M525,737 l367,0 0,181 -367,0 0,-181" /><path style="fill:#fafafa;stroke:#7f7f7f;stroke-width:2" d="M525,737 l184,117 183,-117 -367,0z" /></svg>