<!DOCTYPE svg PUBLIC "-//W3C//DTD SVG 20000303 Stylable//EN" "http://www.w3.org/TR/2000/03/WD-SVG-20000303/DTD/svg-20000303-stylable.dtd"[]><svg width="999px" height="955px" viewBox="0 0 999 953" xmlns="http://www.w3.org/2000/svg"><path style="fill:#99f" d="M0,43 l907,0 0,910 -907,0 0,-910z" /><path style="fill:#9494fa" d="M0,514 l907,-380 0,819 -907,0 0,-439z" /><path style="fill:#8f8ff5" d="M0,564 l907,-377 0,766 -907,0 0,-389z" /><path style="fill:#8a8af0" d="M0,662 l907,-380 0,671 -907,0 0,-291z" /><path style="fill:#8585eb" d="M0,701 l907,-380 0,632 -907,0 0,-252z" /><path style="fill:#7f7fe5" d="M0,793 l907,-380 0,540 -907,0 0,-160z" /><path style="fill:#7a7ae0" d="M0,899 l907,-380 0,434 -907,0 0,-54z" /><path style="fill:#66c" d="M999,0 l-92,43 0,910 92,-46 0,-907z" /><path style="fill:#ccf" d="M999,0 l-92,43 -907,0 91,-43 908,0z" /><path style="fill:none;stroke:#339;stroke-width:2" d="M0,953 l0,-910 91,-43 908,0 0,907 -92,46 -907,0" /><path style="fill:#fff" d="M658,498 l0,295 46,0 -69,69 -69,-69 46,0 0,-295 46,0z" /><path style="fill:#fff" d="M454,295 l295,0 0,-46 67,68 -67,67 0,-46 -295,0 0,-43z" /><path style="fill:#fff" d="M249,498 l0,-295 -46,0 69,-69 68,69 -45,0 0,295 -46,0z" /><path style="fill:#fff" d="M454,701 l-295,0 0,46 -68,-68 68,-67 0,44 295,0 0,45z" /><path style="fill:#4c4cb2" d="M533,689 l-52,15 -53,0 -54,-15 -46,-27 -40,-39 -27,-46 -14,-54 0,-54 14,-52 27,-48 40,-37 46,-27 54,-15 53,0 52,15 48,27 38,37 26,48 15,52 0,54 -15,54 -26,46 -38,39 -48,27z" /><path style="fill:#5757b8" d="M525,671 l-50,14 -50,0 -50,-14 -45,-26 -38,-37 -25,-44 -12,-50 0,-51 12,-50 25,-46 38,-35 45,-27 50,-13 50,0 50,13 46,27 37,35 25,46 12,50 0,51 -12,50 -25,44 -37,37 -46,26z" /><path style="fill:#6161bf" d="M517,654 l-46,12 -50,0 -46,-12 -43,-25 -35,-35 -23,-42 -13,-48 0,-48 13,-47 23,-42 35,-35 43,-25 46,-12 50,0 46,12 44,25 35,35 23,42 12,47 0,48 -12,48 -23,42 -35,35 -44,25z" /><path style="fill:#6b6bc4" d="M510,635 l-45,12 -46,0 -45,-12 -40,-23 -33,-31 -23,-41 -11,-44 0,-46 11,-45 23,-40 33,-33 40,-23 45,-10 46,0 45,10 40,23 33,33 21,40 13,45 0,46 -11,44 -23,41 -33,31 -40,23z" /><path style="fill:#7272c9" d="M502,619 l-44,12 -41,0 -43,-12 -36,-21 -33,-32 -21,-37 -10,-41 0,-44 10,-42 21,-39 31,-29 38,-23 43,-10 41,0 44,10 38,23 31,29 20,39 11,42 0,44 -11,41 -20,37 -31,32 -38,21z" /><path style="fill:#7f7fd1" d="M494,602 l-40,10 -41,0 -39,-10 -34,-21 -29,-29 -21,-35 -10,-40 0,-39 10,-40 21,-35 27,-29 36,-21 39,-10 41,0 40,10 35,21 29,29 19,35 10,40 0,39 -10,40 -19,35 -29,29 -35,21z" /><path style="fill:#8787d6" d="M486,583 l-38,11 -37,0 -37,-11 -32,-19 -27,-26 -18,-32 -11,-37 0,-37 11,-38 18,-33 27,-27 32,-19 37,-10 37,0 38,10 33,19 27,27 18,33 9,38 0,37 -9,37 -18,32 -29,26 -31,19z" /><circle style="fill:#9191db" cx="425" cy="442" r="133" /><path style="fill:#9999e0" d="M469,548 l-31,8 -33,0 -31,-8 -28,-15 -23,-23 -16,-29 -8,-31 0,-31 8,-33 16,-27 23,-23 28,-17 31,-8 33,0 31,8 29,17 23,23 14,27 9,33 0,31 -9,31 -14,29 -25,23 -27,15z" /><circle style="fill:#a6a6e8" cx="417" cy="426" r="112" /><path style="fill:#adaded" d="M452,514 l-24,7 -28,0 -26,-7 -23,-14 -19,-19 -15,-23 -6,-26 0,-27 6,-26 15,-22 19,-19 23,-15 26,-6 28,0 24,6 23,15 21,19 12,22 6,26 0,27 -6,26 -12,23 -21,19 -23,14z" /><path style="fill:#b7b7f2" d="M444,496 l-23,6 -25,0 -22,-6 -21,-12 -17,-17 -13,-21 -6,-23 0,-25 6,-23 13,-20 17,-17 21,-13 22,-6 25,0 23,6 21,13 19,17 10,20 6,23 0,25 -6,23 -10,21 -19,17 -21,12z" /><circle style="fill:#c2c2fa" cx="404" cy="403" r="81" /><circle style="fill:#ccf" cx="400" cy="396" r="70" /><path style="fill:none;stroke:#339;stroke-width:2" d="M533,689 l-52,15 -53,0 -54,-15 -46,-27 -40,-39 -27,-46 -14,-54 0,-54 14,-52 27,-48 40,-37 46,-27 54,-15 53,0 52,15 48,27 38,37 26,48 15,52 0,54 -15,54 -26,46 -38,39 -48,27" /></svg>