<!DOCTYPE svg PUBLIC "-//W3C//DTD SVG 20000303 Stylable//EN" "http://www.w3.org/TR/2000/03/WD-SVG-20000303/DTD/svg-20000303-stylable.dtd"[]><svg width="999px" height="678px" viewBox="0 0 999 659" xmlns="http://www.w3.org/2000/svg"><path style="fill:#ffbfcc" d="M999,319 l-7,264 -9,20 -41,22 -927,-572 41,-19 23,-11 100,-9 180,-10 160,-4 160,4 180,10 100,9 24,11 9,19 7,266z" /><path style="fill:#d95973" d="M999,319 l-7,264 -9,20 -41,22 11,-550 -11,-22 41,-19 9,19 7,266z" /><path style="fill:#ff7f99" d="M959,339 l-6,264 -11,22 -23,10 -100,8 -180,10 -160,6 -160,-6 -180,-10 -100,-8 -24,-10 -9,-22 -6,-264 6,-264 9,-22 24,-10 100,-7 180,-10 160,-6 160,6 180,10 100,7 23,10 11,22 6,264z" /><path style="fill:#fa7a94" d="M959,339 l-6,264 -11,22 -23,10 -100,8 -180,10 -160,6 -160,-6 -180,-10 -100,-8 -24,-10 -9,-22 -6,-264 953,-264 6,264z" /><path style="fill:#f5758f" d="M959,339 l-6,264 -11,22 -23,10 -100,8 -180,10 -160,6 -160,-6 -180,-10 -100,-8 -24,-10 -9,-22 -5,-132 955,-264 3,132z" /><path style="fill:#f0708a" d="M959,383 l-6,220 -11,22 -23,10 -100,8 -180,10 -160,6 -160,-6 -180,-10 -100,-8 920,-252z" /><path style="fill:#033" d="M100,100 l759,0 0,319 -759,0 0,-319z" /><path style="fill:#9c9" d="M119,123 l720,0 0,296 -720,0 0,-296z" /><path style="fill:#ffbfcc" d="M100,429 l759,0 0,-10 -759,0 0,10z" /><path style="fill:#7fb27f" d="M159,299 l120,0 0,80 -120,0 0,-80z" /><path style="fill:#7fb27f" d="M319,299 l480,0 0,40 -480,0 0,-40z" /><path style="fill:#7fb27f" d="M319,179 l480,0 0,40 -480,0 0,-40z" /><path style="fill:#7fb27f" d="M159,179 l120,0 0,80 -120,0 0,-80z" /><path style="fill:#e57a8e" d="M953,75 l-11,-22 41,-19 9,19 -39,22z" /><path style="fill:#f29ead" d="M942,53 l-23,-10 40,-20 24,11 -41,19z" /><path style="fill:none;stroke:#4c4c4c;stroke-width:2" d="M999,319 l-7,264 -9,20 -64,32 -100,8 -180,10 -160,6 -160,-6 -180,-10 -100,-8 -24,-10 -9,-22 -6,-264 6,-264 9,-22 64,-30 100,-9 180,-10 160,-4 160,4 180,10 100,9 24,11 9,19 7,266" /><circle style="fill:#ccc" cx="179" cy="544" r="60" /><circle style="fill:#ccc" cx="779" cy="545" r="60" /><path style="fill:#e5e5e5" d="M723,567 l-4,-14 0,-16 4,-16 8,-14 12,-10 14,-8 14,-4 16,0 16,4 12,8 12,10 8,14 -112,46z" /><path style="fill:#e5e5e5" d="M123,567 l-4,-14 0,-16 4,-16 8,-14 10,-10 14,-8 16,-4 16,0 14,4 14,8 12,10 6,14 -110,46z" /><path style="fill:#006" d="M749,501 l0,88 80,-48 -80,-40z" /><path style="fill:#006" d="M209,587 l0,-86 -80,46 80,40z" /><path style="fill:#b2b2b2;stroke:#4c4c4c;stroke-width:2" d="M467,619 l-52,-10 -40,-14 -30,-16 -16,-20 0,-18 16,-20 30,-16 40,-14 52,-10 0,138z" /><path style="fill:#99c;stroke:#4c4c4c;stroke-width:2" d="M487,619 l50,-10 42,-14 30,-16 14,-20 0,-18 -14,-20 -30,-16 -42,-14 -50,-10 0,138z" /><path style="fill:#ccf;stroke:#ccf;stroke-width:2" d="M495,605 l42,-6 42,-14 30,-16 10,-14 0,-12 -10,-12 -30,-18 -42,-14 -42,-10 0,116z" /><path style="fill:#e5e5e5;stroke:#e5e5e5;stroke-width:2" d="M459,605 l-44,-6 -40,-14 -30,-18 -10,-12 0,-12 10,-12 30,-18 40,-14 44,-10 0,116z" /><path style="fill:#f7f7f7" d="M459,535 l-50,4 -44,14 -16,12 -10,-10 0,-10 10,-12 30,-18 50,-16 30,-6 0,42z" /><path style="fill:#e5e5ff" d="M495,533 l48,6 46,16 16,8 10,-8 0,-12 -10,-8 -30,-20 -50,-16 -30,-6 0,40z" /><circle style="fill:none;stroke:#4c4c4c;stroke-width:2" cx="779" cy="544" r="60" /><circle style="fill:none;stroke:#4c4c4c;stroke-width:2" cx="179" cy="545" r="60" /></svg>