<!DOCTYPE svg PUBLIC "-//W3C//DTD SVG 20000303 Stylable//EN" "http://www.w3.org/TR/2000/03/WD-SVG-20000303/DTD/svg-20000303-stylable.dtd"[]><svg width="999px" height="917px" viewBox="0 0 999 913" xmlns="http://www.w3.org/2000/svg"><path style="fill:#999;stroke:#4c4c4c;stroke-width:2" d="M993,575 l-988,244 0,18 902,0 86,-44 0,-218z" /><path style="fill:#fafafa;stroke:#4c4c4c;stroke-width:2" d="M0,603 l85,-44 914,0 -86,44 -913,0z" /><path style="fill:#b2b2b2" d="M225,571 l50,-50 354,0 50,50 -454,0z" /><path style="fill:#e5e5e5" d="M225,597 l0,-26 454,0 0,26 -454,0z" /><path style="fill:none;stroke:#4c4c4c;stroke-width:2" d="M225,597 l0,-26 50,-50 354,0 50,50 0,26 -454,0" /><path style="fill:#e5e5e5" d="M0,603 l913,0 0,216 -913,0 0,-216z" /><path style="fill:#e8e8e8" d="M33,601 l845,0 0,218 -845,0 0,-218z" /><path style="fill:#ebebeb" d="M67,601 l778,0 0,218 -778,0 0,-218z" /><path style="fill:#ededed" d="M101,601 l710,0 0,218 -710,0 0,-218z" /><path style="fill:#f0f0f0" d="M135,601 l642,0 0,218 -642,0 0,-218z" /><path style="fill:#f0f0f0" d="M169,601 l574,0 0,218 -574,0 0,-218z" /><path style="fill:#f2f2f2" d="M203,601 l506,0 0,218 -506,0 0,-218z" /><path style="fill:#f5f5f5" d="M237,601 l438,0 0,218 -438,0 0,-218z" /><path style="fill:#f7f7f7" d="M271,601 l370,0 0,218 -370,0 0,-218z" /><path style="fill:#fafafa" d="M303,603 l304,0 0,216 -304,0 0,-216z" /><path style="fill:#b2b2b2" d="M43,773 l228,0 0,20 -228,0 0,-20z" /><path style="fill:#b2b2b2" d="M43,729 l228,0 0,20 -228,0 0,-20z" /><path style="fill:#b2b2b2" d="M43,685 l228,0 0,20 -228,0 0,-20z" /><path style="fill:#b2b2b2" d="M43,641 l228,0 0,20 -228,0 0,-20z" /><path style="fill:#e5e5e5" d="M641,625 l228,0 0,42 -228,0 0,-42z" /><path style="fill:#b2b2b2" d="M641,641 l228,0 0,10 -228,0 0,-10z" /><path style="fill:none;stroke:#fff;stroke-width:2" d="M641,667 l228,0" /><path style="fill:none;stroke:#7f7f7f;stroke-width:2" d="M641,625 l228,0" /><path style="fill:#7f7f7f" d="M695,713 l174,0 0,20 -174,0 0,-20z" /><path style="fill:none;stroke:#4c4c4c;stroke-width:2" d="M0,603 l913,0 0,216 -913,0 0,-216" /><path style="fill:#ccc;stroke:#4c4c4c;stroke-width:2" d="M999,559 l-86,44 0,216 86,-42 0,-218z" /><path style="fill:#999;stroke:#4c4c4c;stroke-width:2" d="M735,565 l0,-24 -106,-20 50,50 0,26 56,-32z" /><path style="fill:#e5e5e5;stroke:#4c4c4c;stroke-width:2" d="M125,37 l654,504 56,-26 0,-503 -74,-12 -504,0 -76,12 -56,25z" /><path style="fill:#f2f2f2" d="M125,541 l74,12 504,0 76,-12 0,-504 -76,-12 -504,0 -74,12 0,504z" /><path style="fill:#ededed" d="M125,541 l74,12 504,0 76,-12 0,-383 -654,131 0,252z" /><path style="fill:#e8e8e8" d="M125,541 l74,12 504,0 76,-12 0,-340 -654,132 0,208z" /><path style="fill:#e3e3e3" d="M125,541 l74,12 504,0 76,-12 0,-214 -654,132 0,82z" /><path style="fill:#000" d="M199,87 l504,0 0,404 -504,0 0,-404z" /><path style="fill:#039" d="M213,107 l478,0 0,376 -478,0 0,-376z" /><path style="fill:#667fcc" d="M213,465 l478,0 0,18 -478,0 0,-18z" /><path style="fill:#093;stroke:#999;stroke-width:2" d="M213,465 l56,0 0,18 -56,0 0,-18z" /><path style="fill:none;stroke:#4c4c4c;stroke-width:2" d="M125,541 l74,12 504,0 76,-12 0,-504 -76,-12 -504,0 -74,12 0,504" /><circle style="fill:#b2b2e5" cx="660" cy="522" r="19" /><path style="fill:none;stroke:#ccf;stroke-width:2" d="M269,465 l346,0" /><path style="fill:#98cbe5;stroke:#999;stroke-width:2" d="M615,465 l76,0 0,18 -76,0 0,-18z" /><path style="fill:none;stroke:#fff;stroke-width:2" d="M641,471 l38,0" /><path style="fill:none;stroke:#fff;stroke-width:2" d="M465,345 l144,-207" /><path style="fill:none;stroke:#fff;stroke-width:2" d="M445,295 l88,-126" /><path style="fill:none;stroke:#fff;stroke-width:2" d="M547,315 l68,-108" /><path style="fill:#ccc;stroke:#4c4c4c;stroke-width:2" d="M825,799 l-86,64 0,50 86,-66 0,-48z" /><path style="fill:#fafafa;stroke:#4c4c4c;stroke-width:2" d="M22,878 l85,-79 718,0 -86,79 -717,0z" /><path style="fill:#f0f0f0;stroke:#b2b2b2;stroke-width:2" d="M657,825 l22,-22 98,0 -24,22 -96,0z" /><path style="fill:#f0f0f0;stroke:#b2b2b2;stroke-width:2" d="M619,853 l22,-23 98,0 -24,23 -96,0z" /><path style="fill:#f0f0f0;stroke:#b2b2b2;stroke-width:2" d="M587,878 l22,-19 96,0 -22,19 -96,0z" /><path style="fill:#f0f0f0;stroke:#b2b2b2;stroke-width:2" d="M139,825 l24,-22 466,0 -22,22 -468,0z" /><path style="fill:#f0f0f0;stroke:#b2b2b2;stroke-width:2" d="M107,853 l22,-23 468,0 -24,23 -466,0z" /><path style="fill:#f0f0f0;stroke:#b2b2b2;stroke-width:2" d="M75,878 l25,-19 465,0 -22,19 -468,0z" /><path style="fill:#e5e5e5;stroke:#4c4c4c;stroke-width:2" d="M22,878 l717,0 0,35 -717,0 0,-35z" /></svg>