<!DOCTYPE svg PUBLIC "-//W3C//DTD SVG 20000303 Stylable//EN" "http://www.w3.org/TR/2000/03/WD-SVG-20000303/DTD/svg-20000303-stylable.dtd"[]><svg width="603px" height="999px" viewBox="0 0 579 999" xmlns="http://www.w3.org/2000/svg"><path style="fill:#33260d;stroke:#4c4c4c;stroke-width:2" d="M6,972 l459,0 114,-61 0,26 -114,62 -459,0 0,-27z" /><path style="fill:#fff2d9" d="M577,42 l-16,-13 -30,-12 -44,-8 -54,-6 -60,-3 -64,0 -60,3 -54,6 -44,8 -132,61 454,13 104,-49z" /><path style="fill:#e0d3ba" d="M577,42 l-104,49 0,881 104,-53 0,-877z" /><path style="fill:none;stroke:#7f7259;stroke-width:2" d="M577,42 l-16,-13 -30,-12 -44,-8 -54,-6 -60,-3 -64,0 -60,3 -54,6 -44,8 -132,61 454,894 104,-53 0,-877" /><path style="fill:#e5d8bf" d="M473,94 l-16,-13 -32,-10 -44,-10 -54,-6 -60,-3 -62,0 -59,3 -55,6 -43,10 -32,10 -16,13 0,878 473,0 0,-878z" /><path style="fill:#ebdec5" d="M437,94 l-24,-17 -25,-9 -29,-7 -28,-3 -30,-4 -31,-2 -7,0 -6,0 -48,0 -30,2 -31,3 -28,4 -29,6 -16,2 -26,12 -11,10 -3,3 0,27 1,54 0,56 1,54 0,110 0,55 0,192 0,55 0,83 -1,55 0,55 -1,55 0,27 13,0 38,0 37,0 38,-1 151,0 37,1 38,0 38,0 12,0 0,-27 0,-851z" /><path style="fill:#ede0c7" d="M401,94 l-22,-19 -26,-10 -29,-6 -28,-4 -33,-3 -6,0 -4,0 -38,0 -31,2 -29,4 -27,5 -28,9 -25,18 -4,4 0,27 1,54 0,56 1,54 0,110 0,55 0,192 0,55 0,83 -1,55 0,55 -1,55 0,27 11,0 31,0 31,0 31,-1 124,0 30,1 31,0 31,0 10,0 0,-27 0,-851z" /><path style="fill:#f2e5cc" d="M365,94 l-21,-22 -5,-3 -28,-8 -30,-6 -23,-3 -5,0 -3,0 -31,0 -32,3 -30,6 -24,8 -16,12 -6,9 -1,4 0,27 0,824 0,27 15,0 32,0 31,-1 97,0 32,1 32,0 16,0 0,-27 0,-851z" /><path style="fill:#f7ead1" d="M329,94 l-20,-25 -26,-11 -28,-6 -3,0 -3,0 -3,0 -30,1 -27,6 -26,10 -16,21 -1,4 0,27 0,824 0,27 11,0 34,0 35,-1 46,0 34,1 12,0 11,0 0,-27 0,-851z" /><path style="fill:#faedd4" d="M293,94 l-4,-13 -8,-12 -24,-14 -12,-3 -2,0 -1,0 -30,5 -21,12 -9,21 0,4 0,27 0,824 0,27 6,0 36,-1 34,0 28,1 7,0 0,-27 0,-851z" /><path style="fill:#e8dbc2" d="M445,94 l-14,-13 -28,-12 -38,-8 -48,-6 -54,-3 -54,0 -53,3 -49,6 -38,8 -27,12 -14,13 0,878 417,0 0,-878z" /><path style="fill:#ebdec5" d="M419,94 l-12,-13 -24,-12 -34,-8 -42,-6 -46,-3 -48,0 -48,3 -40,6 -36,8 -24,12 -12,13 0,878 366,0 0,-878z" /><path style="fill:#f0e3ca" d="M391,94 l-10,-13 -20,-12 -30,-8 -34,-6 -40,-3 -42,0 -38,3 -36,6 -30,8 -20,12 -10,13 0,878 310,0 0,-878z" /><path style="fill:#f2e5cc" d="M365,94 l-10,-13 -16,-12 -24,-8 -30,-6 -32,-3 -34,0 -32,3 -30,6 -24,8 -16,12 -7,13 0,878 255,0 0,-878z" /><path style="fill:#f5e8cf" d="M337,94 l-6,-13 -14,-12 -18,-8 -24,-6 -26,-3 -26,0 -26,3 -22,6 -19,8 -13,12 -7,13 0,878 201,0 0,-878z" /><path style="fill:#f7ead1" d="M311,94 l-6,-13 -10,-12 -14,-8 -16,-6 -18,-3 -20,0 -20,3 -16,6 -14,8 -10,12 -4,13 0,878 148,0 0,-878z" /><path style="fill:#fcefd6" d="M283,94 l-4,-13 -6,-12 -8,-8 -10,-6 -12,-3 -12,0 -12,3 -12,6 -8,8 -6,12 -4,13 0,878 94,0 0,-878z" /><path style="fill:#fff2d9" d="M255,94 l0,-13 -4,-10 -4,-10 -4,-6 -4,-3 -6,0 -4,3 -4,6 -4,10 -3,10 0,13 0,878 37,0 0,-878z" /><path style="fill:none;stroke:#7f7259;stroke-width:2" d="M16,81 l-16,13 0,878 473,0" /><path style="fill:#d9ccb3" d="M52,263 l369,0 0,52 -369,0 0,-52z" /><path style="fill:none;stroke:#fff2d9;stroke-width:2" d="M421,315 l-369,0" /><path style="fill:none;stroke:#7f7259;stroke-width:2" d="M421,263 l-369,0" /><path style="fill:#665940" d="M157,281 l158,0 0,14 -158,0 0,-14z" /><path style="fill:#665940" d="M71,157 l330,0 0,20 -330,0 0,-20z" /><path style="fill:#665940" d="M71,893 l330,0 0,26 -330,0 0,-26z" /><path style="fill:#665940" d="M71,841 l330,0 0,26 -330,0 0,-26z" /><path style="fill:#665940" d="M71,789 l330,0 0,26 -330,0 0,-26z" /><circle style="fill:#998c73;stroke:#998c73;stroke-width:2" cx="236" cy="499" r="39" /><circle style="fill:#99f;stroke:#4c4c4c;stroke-width:2" cx="236" cy="499" r="27" /><ellipse style="fill:#ccf" cx="230" cy="493" rx="12" ry="14" /><path style="fill:#f2e5cc" d="M209,169 l54,0 0,10 -54,0 0,-10z" /><path style="fill:none;stroke:#ccbfa6;stroke-width:2" d="M473,972 l0,-881" /></svg>