<!DOCTYPE svg PUBLIC "-//W3C//DTD SVG 20000303 Stylable//EN" "http://www.w3.org/TR/2000/03/WD-SVG-20000303/DTD/svg-20000303-stylable.dtd"[]><svg width="825px" height="999px" viewBox="0 0 815 999" xmlns="http://www.w3.org/2000/svg"><path style="fill:#33260d;stroke:#4c4c4c;stroke-width:2" d="M6,972 l460,0 112,-59 0,26 -112,60 -460,0 0,-27z" /><path style="fill:#fff2d9" d="M578,41 l-17,-12 -31,-11 -43,-9 -54,-6 -60,-3 -63,0 -60,3 -54,6 -44,9 -133,60 454,14 105,-51z" /><path style="fill:#e0d3ba" d="M578,41 l-105,51 0,880 105,-52 0,-879z" /><path style="fill:none;stroke:#7f7259;stroke-width:2" d="M578,41 l-17,-12 -31,-11 -43,-9 -54,-6 -60,-3 -63,0 -60,3 -54,6 -44,9 -133,60 454,894 105,-52 0,-879" /><path style="fill:#e5d8bf" d="M473,93 l-17,-12 -31,-10 -44,-9 -53,-7 -61,-3 -62,0 -61,3 -53,7 -44,9 -31,10 -16,12 0,879 473,0 0,-879z" /><path style="fill:#339" d="M815,934 l-11,12 -21,10 -29,8 -36,6 -40,3 -42,0 -40,-3 -36,-6 -29,-8 -21,-10 -11,-12 0,-297 11,-12 21,-10 29,-8 36,-6 40,-3 42,0 40,3 36,6 28,8 22,10 11,12 0,297z" /><path style="fill:#ebdec5" d="M437,93 l-24,-16 -25,-9 -28,-7 -29,-4 -30,-3 -31,-2 -13,0 -7,-1 -7,0 -33,1 -31,2 -31,2 -28,4 -30,6 -27,9 -23,15 -4,3 0,27 0,138 0,54 0,467 0,55 0,110 0,28 12,0 63,0 38,-1 200,0 38,1 38,0 12,0 0,-28 0,-851z" /><path style="fill:#ede0c7" d="M401,93 l-22,-18 -26,-9 -29,-7 -29,-5 -31,-2 -11,0 -6,-1 -5,0 -32,1 -31,2 -29,5 -30,7 -25,9 -11,6 -8,9 -4,3 0,27 0,138 1,54 0,467 -1,55 0,110 0,28 11,0 51,0 31,-1 164,0 31,1 41,0 0,-165 0,-28 0,-27 0,-467 0,-55 0,-137z" /><path style="fill:#f2e5cc" d="M365,93 l-22,-21 -25,-10 -29,-6 -27,-3 -13,-1 -4,-1 -4,0 -30,2 -28,3 -28,6 -25,10 -13,9 -6,9 -3,3 0,27 0,138 1,54 0,467 -1,55 0,110 0,28 17,0 32,0 32,-1 112,0 32,1 32,0 0,-165 0,-28 0,-27 0,-467 0,-55 0,-137z" /><path style="fill:#f7ead1" d="M328,93 l-18,-23 -25,-11 -27,-6 -12,-1 -3,-1 -3,0 -30,3 -27,6 -26,15 -6,6 -4,9 -2,3 0,27 0,138 0,54 0,467 0,55 0,110 0,28 11,0 35,-1 91,0 35,1 11,0 0,-165 1,-28 0,-27 0,-467 -1,-55 0,-137z" /><path style="fill:#faedd4" d="M292,93 l-13,-25 -24,-14 -13,-2 -2,-1 -1,0 -30,7 -22,20 -5,12 -1,3 0,27 0,824 0,28 7,0 35,-1 42,0 27,1 0,-165 1,-28 0,-27 0,-467 -1,-55 0,-137z" /><path style="fill:#e8dbc2" d="M446,93 l-14,-12 -28,-11 -39,-9 -47,-6 -54,-3 -55,0 -53,3 -48,6 -39,9 -28,11 -14,12 0,879 419,0 0,-879z" /><path style="fill:#ebdec5" d="M419,93 l-13,-12 -24,-11 -33,-9 -42,-6 -46,-3 -49,0 -46,3 -41,6 -35,9 -24,11 -12,12 0,879 365,0 0,-879z" /><path style="fill:#f0e3ca" d="M391,93 l-10,-12 -20,-11 -29,-9 -36,-6 -39,-3 -41,0 -39,3 -36,6 -29,9 -20,11 -10,12 0,879 309,0 0,-879z" /><path style="fill:#f2e5cc" d="M365,93 l-9,-12 -17,-11 -24,-9 -29,-6 -33,-3 -34,0 -32,3 -29,6 -24,9 -17,11 -9,12 0,879 257,0 0,-879z" /><path style="fill:#f5e8cf" d="M337,93 l-7,-12 -13,-11 -18,-9 -23,-6 -26,-3 -27,0 -25,3 -23,6 -19,9 -13,11 -7,12 0,879 201,0 0,-879z" /><path style="fill:#f7ead1" d="M310,93 l-5,-12 -10,-11 -13,-9 -17,-6 -19,-3 -19,0 -19,3 -17,6 -14,9 -9,11 -5,12 0,879 147,0 0,-879z" /><path style="fill:#fcefd6" d="M283,93 l-3,-12 -6,-11 -9,-9 -10,-6 -12,-3 -13,0 -11,3 -11,6 -9,9 -6,11 -3,12 0,879 93,0 0,-879z" /><path style="fill:#fff2d9" d="M256,93 l-2,-12 -2,-10 -4,-9 -4,-7 -5,-3 -5,0 -5,3 -5,7 -3,9 -3,10 -1,12 0,879 39,0 0,-879z" /><path style="fill:none;stroke:#7f7259;stroke-width:2" d="M16,81 l-16,12 0,879 473,0" /><path style="fill:#d9ccb3" d="M52,263 l368,0 0,52 -368,0 0,-52z" /><path style="fill:none;stroke:#fff2d9;stroke-width:2" d="M420,315 l-368,0" /><path style="fill:none;stroke:#7f7259;stroke-width:2" d="M420,263 l-368,0" /><path style="fill:#665940" d="M157,282 l158,0 0,13 -158,0 0,-13z" /><path style="fill:#665940" d="M72,157 l328,0 0,20 -328,0 0,-20z" /><path style="fill:#665940" d="M72,893 l328,0 0,27 -328,0 0,-27z" /><path style="fill:#665940" d="M72,841 l328,0 0,26 -328,0 0,-26z" /><path style="fill:#665940" d="M72,788 l328,0 0,27 -328,0 0,-27z" /><circle style="fill:#998c73;stroke:#998c73;stroke-width:2" cx="236" cy="498" r="39" /><circle style="fill:#99f;stroke:#4c4c4c;stroke-width:2" cx="236" cy="499" r="26" /><circle style="fill:#ccf" cx="229" cy="493" r="13" /><path style="fill:#f2e5cc" d="M210,170 l53,0 0,9 -53,0 0,-9z" /><path style="fill:#3d3da3" d="M799,931 l-10,12 -19,9 -25,9 -33,6 -36,3 -37,0 -37,-3 -32,-6 -26,-9 -18,-9 -10,-12 0,-294 9,-12 20,-10 25,-8 32,-6 36,-3 38,0 36,3 33,6 25,8 19,10 10,12 0,294z" /><path style="fill:#4a4ab0" d="M783,928 l-9,11 -16,11 -24,8 -28,5 -32,4 -33,0 -32,-4 -29,-5 -23,-8 -16,-11 -9,-11 0,-291 8,-11 17,-10 23,-8 29,-6 31,-3 34,0 32,3 28,6 24,8 16,10 9,11 0,291z" /><path style="fill:#5454ba" d="M767,926 l-8,11 -14,10 -20,8 -25,6 -28,2 -29,0 -28,-2 -25,-6 -20,-8 -15,-10 -7,-11 0,-289 7,-11 15,-9 20,-9 25,-6 28,-3 29,0 28,3 25,6 20,9 14,9 8,11 0,289z" /><path style="fill:#6161c7" d="M751,923 l-6,11 -13,10 -17,8 -22,6 -24,3 -24,0 -24,-3 -21,-6 -17,-8 -13,-10 -6,-11 0,-286 6,-10 13,-10 17,-9 21,-5 24,-3 25,0 23,3 22,5 17,9 13,10 6,10 0,286z" /><path style="fill:#6b6bd1" d="M735,920 l-6,12 -10,9 -14,8 -18,6 -19,3 -21,0 -20,-3 -17,-6 -15,-8 -10,-9 -5,-12 0,-282 5,-11 11,-9 14,-9 17,-5 20,-3 21,0 19,3 18,5 14,9 10,9 6,11 0,282z" /><path style="fill:#7878de" d="M719,918 l-4,11 -8,9 -12,8 -14,6 -16,3 -16,0 -15,-3 -14,-6 -12,-8 -8,-9 -4,-11 0,-280 4,-11 8,-9 12,-8 14,-6 15,-3 16,0 16,3 14,6 11,8 9,9 4,11 0,280z" /><path style="fill:#8282e8" d="M702,915 l-3,11 -6,9 -8,9 -10,5 -12,3 -12,0 -11,-3 -10,-5 -9,-9 -6,-9 -3,-11 0,-276 3,-12 6,-8 9,-9 10,-5 11,-3 12,0 12,3 10,5 8,9 6,8 3,12 0,276z" /><path style="fill:#8f8ff5" d="M686,912 l-1,12 -4,8 -6,8 -6,6 -8,3 -7,0 -8,-3 -6,-6 -6,-8 -4,-8 -2,-12 0,-273 2,-11 4,-9 6,-8 6,-5 8,-3 7,0 8,3 6,5 5,8 5,9 1,11 0,273z" /><ellipse style="fill:#99f" cx="657" cy="775" rx="13" ry="171" /><path style="fill:none;stroke:#4c4c4c;stroke-width:2" d="M815,934 l-11,12 -21,10 -29,8 -36,6 -40,3 -42,0 -40,-3 -36,-6 -29,-8 -21,-10 -11,-12 0,-297 11,-12 21,-10 29,-8 36,-6 40,-3 42,0 40,3 36,6 28,8 22,10 11,12 0,297" /><path style="fill:none;stroke:#ccbfa6;stroke-width:2" d="M473,972 l0,-880" /><path style="fill:none;stroke:#ccf;stroke-width:2" d="M657,946 l0,-342" /></svg>