<!DOCTYPE svg PUBLIC "-//W3C//DTD SVG 20000303 Stylable//EN" "http://www.w3.org/TR/2000/03/WD-SVG-20000303/DTD/svg-20000303-stylable.dtd"[]><svg width="804px" height="999px" viewBox="0 0 792 998" xmlns="http://www.w3.org/2000/svg"><path style="fill:#99f" d="M0,345 l655,0 0,653 -655,0 0,-653z" /><path style="fill:#9494fa" d="M0,684 l655,-274 0,588 -655,0 0,-314z" /><path style="fill:#8f8ff5" d="M0,721 l655,-274 0,551 -655,0 0,-277z" /><path style="fill:#8a8af0" d="M0,791 l655,-274 0,481 -655,0 0,-207z" /><path style="fill:#8585eb" d="M0,819 l655,-274 0,453 -655,0 0,-179z" /><path style="fill:#7f7fe5" d="M0,884 l655,-274 0,388 -655,0 0,-114z" /><path style="fill:#7a7ae0" d="M0,962 l655,-274 0,310 -655,0 0,-36z" /><path style="fill:#66c" d="M792,276 l-137,69 0,653 137,-69 0,-653z" /><path style="fill:#fff" d="M206,535 l-90,0 0,29 -51,-50 51,-49 0,35 108,0 223,313 94,0 0,-33 49,49 -49,49 0,-33 -110,0 -225,-310z" /><path style="fill:#fff" d="M206,809 l-90,0 0,-29 -51,49 51,49 0,-35 108,0 223,-312 94,0 0,33 49,-50 -49,-49 0,33 -110,0 -225,311z" /><path style="fill:none;stroke:#339;stroke-width:2" d="M0,998 l0,-653 136,-67 656,0 0,653 -137,67 -655,0" /><path style="fill:#cc4c4c;stroke:#991919;stroke-width:2" d="M0,345 l0,-276 136,-69 656,0 0,276 -137,69 -655,0z" /><path style="fill:#ff7f7f" d="M0,69 l653,0 139,-69 -654,0 -138,69z" /><path style="fill:#c74747" d="M0,280 l500,-211 153,0 2,276 -655,0 0,-65z" /><path style="fill:#c24242" d="M67,345 l588,-247 0,247 -588,0z" /><path style="fill:#bd3d3d" d="M167,345 l488,-205 0,205 -488,0z" /><path style="fill:#b23232" d="M792,276 l-137,69 0,-276 137,-69 0,276z" /><path style="fill:#7f0000" d="M0,345 l655,0 0,-9 -655,0 0,9z" /><path style="fill:#600" d="M792,276 l-137,69 0,-11 137,-67 0,9z" /><path style="fill:none;stroke:#991919;stroke-width:2" d="M0,345 l0,-276 136,-69 656,0 0,276 -137,69 -655,0" /><path style="fill:#fff" d="M465,283 l0,19 121,0 0,-51 -121,0 0,16 -276,0 0,-16 -120,0 0,51 120,0 0,-19 276,0z" /><path style="fill:#fff" d="M465,138 l0,17 121,0 0,-51 -121,0 0,16 -276,0 0,-16 -120,0 0,51 120,0 0,-17 276,0z" /><path style="fill:#fff" d="M151,259 l372,-137 6,14 -372,138 -6,-15z" /><path style="fill:#fff" d="M529,259 l-374,-137 -6,14 374,138 6,-15z" /></svg>