<!DOCTYPE svg PUBLIC "-//W3C//DTD SVG 20000303 Stylable//EN" "http://www.w3.org/TR/2000/03/WD-SVG-20000303/DTD/svg-20000303-stylable.dtd"[]><svg width="999px" height="409px" viewBox="0 0 999 374" xmlns="http://www.w3.org/2000/svg"><path style="fill:#8abdbd" d="M0,165 l831,0 0,209 -831,0 0,-209z" /><path style="fill:#699" d="M999,0 l-168,165 0,209 168,-187 0,-187z" /><path style="fill:#9cc" d="M0,165 l831,0 168,-165 -793,0 -206,165z" /><path style="fill:#fff" d="M562,24 l277,0 14,-14 82,20 -125,22 15,-14 -277,0 14,-14z" /><path style="fill:#fff" d="M519,66 l-277,0 -14,12 -83,-20 126,-20 -15,14 277,0 -14,14z" /><path style="fill:#fff" d="M499,86 l277,0 14,-14 83,20 -125,23 14,-14 -277,0 14,-15z" /><path style="fill:#fff" d="M456,127 l-277,0 -12,14 -84,-20 125,-20 -15,14 277,0 -14,12z" /><path style="fill:none;stroke:#033;stroke-width:2" d="M83,121 l125,-20" /><path style="fill:none;stroke:#033;stroke-width:2" d="M193,115 l277,0" /><path style="fill:none;stroke:#033;stroke-width:2" d="M485,101 l14,-15 277,0 14,-14" /><path style="fill:none;stroke:#033;stroke-width:2" d="M748,115 l14,-14" /><path style="fill:none;stroke:#033;stroke-width:2" d="M810,52 l15,-14" /><path style="fill:none;stroke:#033;stroke-width:2" d="M548,38 l14,-14 277,0 14,-14" /><path style="fill:none;stroke:#033;stroke-width:2" d="M145,58 l126,-20" /><path style="fill:none;stroke:#033;stroke-width:2" d="M256,52 l277,0" /><path style="fill:#85b8b8" d="M0,291 l831,-104 0,187 -831,0 0,-83z" /><path style="fill:#7fb2b2" d="M0,313 l831,-105 0,166 -831,0 0,-61z" /><path style="fill:#7aadad" d="M0,337 l831,-103 0,140 -831,0 0,-37z" /><path style="fill:none;stroke:#699;stroke-width:2" d="M0,374 l0,-209 208,-165 791,0 0,185 -168,189 -831,0" /></svg>