<!DOCTYPE svg PUBLIC "-//W3C//DTD SVG 20000303 Stylable//EN" "http://www.w3.org/TR/2000/03/WD-SVG-20000303/DTD/svg-20000303-stylable.dtd"[]><svg width="999px" height="955px" viewBox="0 0 999 953" xmlns="http://www.w3.org/2000/svg"><path style="fill:#99f" d="M0,45 l907,0 0,908 -907,0 0,-908z" /><path style="fill:#9494fa" d="M0,517 l907,-380 0,816 -907,0 0,-436z" /><path style="fill:#8f8ff5" d="M0,567 l907,-381 0,767 -907,0 0,-386z" /><path style="fill:#8a8af0" d="M0,664 l907,-380 0,669 -907,0 0,-289z" /><path style="fill:#8585eb" d="M0,703 l907,-379 0,629 -907,0 0,-250z" /><path style="fill:#7f7fe5" d="M0,795 l907,-380 0,538 -907,0 0,-158z" /><path style="fill:#7a7ae0" d="M0,901 l907,-380 0,432 -907,0 0,-52z" /><path style="fill:#66c" d="M999,0 l-92,45 0,908 92,-44 0,-909z" /><path style="fill:#ccf" d="M999,0 l-92,45 -907,0 91,-45 908,0z" /><path style="fill:none;stroke:#339;stroke-width:2" d="M0,953 l0,-908 91,-45 908,0 0,909 -92,44 -907,0" /><path style="fill:#fff" d="M658,500 l0,295 45,0 -68,69 -68,-69 45,0 0,-295 46,0z" /><path style="fill:#fff" d="M454,295 l295,0 0,-44 67,66 -67,69 0,-46 -295,0 0,-45z" /><path style="fill:#fff" d="M249,500 l0,-295 -46,0 69,-68 68,68 -45,0 0,295 -46,0z" /><path style="fill:#fff" d="M454,703 l-294,0 0,46 -69,-68 69,-69 0,46 294,0 0,45z" /><path style="fill:#fff" d="M454,340 l-23,0 -39,13 -35,20 -29,29 -23,36 -10,41 0,42 10,39 23,38 29,29 35,21 42,10 41,0 40,-10 35,-21 31,-29 21,-38 10,-39 0,-42 -10,-41 -21,-36 -31,-29 -35,-20 -40,-13 -21,0 0,-45 27,0 52,14 46,27 37,40 27,45 15,52 0,54 -15,52 -27,46 -37,39 -46,27 -52,12 -53,0 -52,-12 -48,-27 -38,-39 -27,-46 -14,-52 0,-54 14,-52 27,-48 38,-37 48,-27 52,-14 26,0 0,45z" /></svg>