<!DOCTYPE svg PUBLIC "-//W3C//DTD SVG 20000303 Stylable//EN" "http://www.w3.org/TR/2000/03/WD-SVG-20000303/DTD/svg-20000303-stylable.dtd"[]><svg width="999px" height="717px" viewBox="0 0 999 700" xmlns="http://www.w3.org/2000/svg"><path style="fill:#99f" d="M0,516 l919,0 0,184 -919,0 0,-184z" /><path style="fill:#9494fa" d="M0,610 l919,-75 0,165 -919,0 0,-90z" /><path style="fill:#8f8ff5" d="M0,621 l919,-76 0,155 -919,0 0,-79z" /><path style="fill:#8a8af0" d="M0,641 l919,-77 0,136 -919,0 0,-59z" /><path style="fill:#8585eb" d="M0,649 l919,-77 0,128 -919,0 0,-51z" /><path style="fill:#7f7fe5" d="M0,667 l919,-77 0,110 -919,0 0,-33z" /><path style="fill:#7a7ae0" d="M0,688 l919,-76 0,88 -919,0 0,-12z" /><path style="fill:#66c" d="M999,377 l-80,139 0,184 80,-143 0,-180z" /><path style="fill:#ccf" d="M999,377 l-80,139 -919,0 143,-139 856,0z" /><path style="fill:#66c" d="M183,194 l17,0 0,-115 -6,-4 2,-70 22,-5 23,5 0,70 -6,4 0,115 18,0 0,183 -70,0 0,-183z" /><path style="fill:#e5e5ff" d="M281,377 l-69,92 568,0 63,-92 -562,0z" /><path style="fill:#99f" d="M200,194 l10,0 0,-115 -4,-4 0,-70 12,-5 10,5 0,70 -2,4 0,115 9,0 0,183 -35,0 0,-183z" /><path style="fill:#66c" d="M878,194 l16,0 0,-115 -6,-4 0,-70 25,-5 22,5 0,70 -6,4 0,115 18,0 0,183 -69,0 0,-183z" /><path style="fill:#99f" d="M894,194 l9,0 0,-115 -2,-4 0,-70 12,-5 10,5 0,70 -2,4 0,115 8,0 0,183 -35,0 0,-183z" /><path style="fill:#fff" d="M316,396 l-41,51 477,0 34,-51 -470,0z" /><path style="fill:#ccf" d="M0,612 l919,0 0,31 -919,0 0,-31z" /><path style="fill:none;stroke:#4c4cb2;stroke-width:2" d="M183,194 l17,0 0,-115 -6,-4 2,-70 22,-5 23,5 0,70 -6,4 0,115 18,0 0,183 625,0 0,-183 16,2 0,-117 -6,-4 0,-70 25,-5 22,5 0,70 -6,4 0,115 18,0 -2,183 54,0 0,180 -80,143 -919,0 0,-184 143,-139 40,0 0,-183" /></svg>