<!DOCTYPE svg PUBLIC "-//W3C//DTD SVG 20000303 Stylable//EN" "http://www.w3.org/TR/2000/03/WD-SVG-20000303/DTD/svg-20000303-stylable.dtd"[]><svg xmlns="http://www.w3.org/2000/svg" width="999px" height="716px" viewBox="0 0 500 350"><ellipse style="fill:#7f7f7f;stroke:#4c4c4c;stroke-width:2" cx="491" cy="138" rx="9" ry="29" /><path style="fill:#7f7f7f;stroke:#4c4c4c;stroke-width:2" d="M387,350 l-274,-102 285,0 18,73 -29,29z" /><path style="fill:#7f7f7f;stroke:#4c4c4c;stroke-width:2" d="M445,0 l-408,0 -8,3 -7,8 -6,13 -5,16 -5,21 -3,23 -2,26 -1,28 1,28 2,26 3,24 5,20 5,17 6,13 7,8 8,3 410,0 7,-3 6,-8 6,-13 5,-17 5,-20 3,-24 2,-26 1,-28 -1,-28 -2,-26 -3,-23 -5,-21 -6,-16 -6,-13 -7,-8 -7,-3z" /><path style="fill:none;stroke:#4c4c4c;stroke-width:2" d="M467,138 l15,0" /><ellipse style="fill:none;stroke:#4c4c4c;stroke-width:2" cx="445" cy="138" rx="36" ry="138" /><path style="fill:#b2b2b2;stroke:#4c4c4c;stroke-width:2" d="M37,277 l408,0 -7,-3 -7,-8 -6,-13 -5,-17 -5,-20 -3,-24 -2,-26 -1,-28 0,-16 1,-16 1,-15 2,-15 2,-14 2,-12 3,-12 3,-10 -386,1 -8,3 -7,7 -6,11 -5,15 -5,19 -3,21 -2,23 -1,25 1,25 2,23 3,21 5,18 5,16 6,11 7,7 8,3z" /><path style="fill:#b2b2b2;stroke:#4c4c4c;stroke-width:2" d="M66,350 l18,-73 285,0 18,73 -321,0z" /></svg>