<!DOCTYPE svg PUBLIC "-//W3C//DTD SVG 20000303 Stylable//EN" "http://www.w3.org/TR/2000/03/WD-SVG-20000303/DTD/svg-20000303-stylable.dtd"[]><svg xmlns="http://www.w3.org/2000/svg" width="999px" height="721px" viewBox="0 0 500 353"><path style="fill:#7f7f7f;stroke:#4c4c4c;stroke-width:2" d="M390,353 l-276,-103 287,0 18,74 -29,29z" /><path style="fill:#7f7f7f;stroke:#4c4c4c;stroke-width:2" d="M441,0 l-367,0 -10,2 -11,6 -12,10 -11,13 -10,17 -9,19 -5,22 -2,25 2,26 5,24 9,23 10,21 11,17 12,13 11,9 10,3 345,26 15,-4 13,-10 11,-16 9,-20 8,-23 5,-25 4,-27 1,-26 -1,-25 -2,-24 -4,-21 -6,-18 -6,-16 -8,-11 -8,-7 -9,-3z" /><path style="fill:#b2b2b2;stroke:#4c4c4c;stroke-width:2" d="M66,353 l18,-74 287,0 19,74 -324,0z" /><path style="fill:#b2b2b2;stroke:#4c4c4c;stroke-width:2" d="M412,29 l-368,0 -9,3 -8,7 -7,12 -7,15 -5,19 -4,21 -3,23 -1,25 1,25 3,24 4,21 5,18 7,16 7,11 8,7 9,3 368,0 9,-3 8,-7 7,-11 7,-16 5,-18 5,-21 2,-24 1,-25 -1,-25 -2,-23 -5,-21 -5,-19 -7,-15 -7,-12 -8,-7 -9,-3z" /><path style="fill:none;stroke:#4c4c4c;stroke-width:2" d="M44,29 l0,250" /><path style="fill:none;stroke:#4c4c4c;stroke-width:2" d="M412,29 l0,250" /><path style="fill:none;stroke:#4c4c4c;stroke-width:2" d="M44,29 l30,-29" /><path style="fill:none;stroke:#4c4c4c;stroke-width:2" d="M412,29 l29,-29" /><path style="fill:#7f7f7f;stroke:#4c4c4c;stroke-width:2" d="M456,154 l29,-29 15,0 -29,29 -15,0z" /><path style="fill:#7f7f7f;stroke:#4c4c4c;stroke-width:2" d="M471,169 l0,-29 29,-30 0,30 -29,29z" /></svg>