<!DOCTYPE svg PUBLIC "-//W3C//DTD SVG 20000303 Stylable//EN" "http://www.w3.org/TR/2000/03/WD-SVG-20000303/DTD/svg-20000303-stylable.dtd"[]><svg xmlns="http://www.w3.org/2000/svg" width="999px" height="717px" viewBox="0 0 606 425"><path style="fill:#808080" d="M535,319 l12,-15 11,-17 9,-18 8,-20 6,-21 4,-22 3,-23 1,-23 0,-12 -1,-11 -1,-12 -2,-12 -2,-11 -2,-11 -3,-11 -4,-10 -4,-10 -4,-10 -4,-10 -5,-9 -5,-8 -6,-8 -6,-8 -6,-7 1,319z" /><path style="fill:#808080" d="M53,319 l-12,-15 -11,-17 -9,-18 -7,-20 -6,-21 -4,-22 -3,-23 -1,-23 0,-12 1,-11 1,-12 2,-12 2,-11 2,-11 3,-11 4,-10 3,-10 4,-10 5,-10 5,-9 5,-8 5,-8 6,-8 6,-7 -1,319z" /><path style="fill:#808080" d="M52,0 l484,0 0,320 -484,0 0,-320z" /><path style="fill:none;stroke:#4c4c4c;stroke-width:2" d="M535,319 l12,-15 11,-17 9,-18 8,-20 6,-21 4,-22 3,-23 1,-23 0,-12 -1,-11 -1,-12 -2,-12 -2,-11 -2,-11 -3,-11 -4,-10 -4,-10 -4,-10 -4,-10 -5,-9 -5,-8 -6,-8 -6,-8 -6,-7" /><path style="fill:none;stroke:#4c4c4c;stroke-width:2" d="M53,319 l-12,-15 -11,-17 -9,-18 -7,-20 -6,-21 -4,-22 -3,-23 -1,-23 0,-12 1,-11 1,-12 2,-12 2,-11 2,-11 3,-11 4,-10 3,-10 4,-10 5,-10 5,-9 5,-8 5,-8 6,-8 6,-7" /><path style="fill:none;stroke:#4c4c4c;stroke-width:2" d="M52,0 l484,0 0,320 -484,0 0,-320" /><path style="fill:#808080;stroke:#4c4c4c;stroke-width:2" d="M82,425 l30,-105 364,0 30,105 -424,0z" /><path style="fill:none;stroke:#4c4c4c;stroke-width:2" d="M606,142 l0,35" /><path style="fill:none;stroke:#4c4c4c;stroke-width:2" d="M606,159 l-18,0" /></svg>