<!DOCTYPE svg PUBLIC "-//W3C//DTD SVG 1.1//EN" "http://www.w3.org/Graphics/SVG/1.1/DTD/svg11.dtd"[]><svg version="1.1" xmlns="http://www.w3.org/2000/svg" xmlns:xlink="http://www.w3.org/1999/xlink" width="112px" height="42px" viewBox="0 0 112.5 42.23" enable-background="new 0 0 112.5 42.23" xml:space="preserve">
<g id="Group_Shaft">
	<linearGradient id="SVGID_1_" gradientUnits="userSpaceOnUse" x1="104.3906" y1="28.04" x2="104.3906" y2="23.9854">
		<stop offset="0" style="stop-color:#383838" />
		<stop offset="0.45" style="stop-color:#ECECEC" />
		<stop offset="0.55" style="stop-color:#D9D9D9" />
		<stop offset="0.76" style="stop-color:#A8A8A8" />
		<stop offset="0.77" style="stop-color:#A6A6A6" />
		<stop offset="1" style="stop-color:#383838" />
	</linearGradient>
	<path fill="url(#SVGID_1_)" d="M112.498,23.985H96.282v4.055h16.216V23.985z" />
</g>
<g id="Group_Base">
	<path fill="#4D4D4D" d="M60.248,39.697H7.998v2.531h52.25V39.697z" />
</g>
<g id="Group_MotorBody">
	<path fill="#BA3E1D" d="M9.251,14.076H6.003v24.099h3.249V14.076z" />
	<path fill="#BA3E1D" d="M60.248,12.049H23.987c0,0-0.322-1.643-3.989-1.643c-3.917,0-4.118,1.643-4.118,1.643v28.152h44.368V12.049   z" />
	<path fill="#F55C00" d="M60.248,18.58H15.88v15.09h44.368V18.58z" />
	<linearGradient id="SVGID_2_" gradientUnits="userSpaceOnUse" x1="12.228" y1="40.2012" x2="12.228" y2="11.6152">
		<stop offset="0" style="stop-color:#E04700" />
		<stop offset="0" style="stop-color:#A83C24" />
		<stop offset="0.5" style="stop-color:#FF8A00" />
		<stop offset="1" style="stop-color:#A83C24" />
	</linearGradient>
	<path fill="url(#SVGID_2_)" d="M16.459,11.615H7.998v28.586h8.461V11.615z" />
	<path fill="#FF6600" d="M60.248,22.635H15.88v6.981h44.368V22.635z" />
	<linearGradient id="SVGID_3_" gradientUnits="userSpaceOnUse" x1="75.3379" y1="41.5527" x2="75.3379" y2="10.4731">
		<stop offset="0" style="stop-color:#E04700" />
		<stop offset="0" style="stop-color:#A83C24" />
		<stop offset="0.5" style="stop-color:#FF8A00" />
		<stop offset="1" style="stop-color:#A83C24" />
	</linearGradient>
	<path fill="url(#SVGID_3_)" d="M90.427,10.473H60.248v31.08h30.179V10.473z" />
	<path fill="#FF8A00" d="M90.427,10.022h-2.027v7.883H76.238v-7.883h-4.055v7.883h-2.026v-7.883h-3.829v7.883h-2.027v-7.883h-4.053   v32.206h4.053V34.12h2.027v8.108h3.829V34.12h2.026v8.108h4.055V34.12h12.161v8.108h2.027V10.022z" />
	<linearGradient id="SVGID_4_" gradientUnits="userSpaceOnUse" x1="61.2617" y1="10.0225" x2="61.2617" y2="3.9414">
		<stop offset="0" style="stop-color:#E04700" />
		<stop offset="0" style="stop-color:#A83C24" />
		<stop offset="0.5" style="stop-color:#FF8A00" />
		<stop offset="1" style="stop-color:#A83C24" />
	</linearGradient>
	<path fill="url(#SVGID_4_)" d="M62.274,10.022h-2.026V3.941h2.026V10.022z" />
	<path fill="none" d="M62.274,10.022h-2.026V3.941h2.026V10.022" />
	<path fill="none" d="M112.498,23.985H96.282v4.055h16.216V23.985" />
	<linearGradient id="SVGID_5_" gradientUnits="userSpaceOnUse" x1="38.064" y1="37.499" x2="38.064" y2="14.5269">
		<stop offset="0" style="stop-color:#E04700" />
		<stop offset="0" style="stop-color:#A83C24" />
		<stop offset="0.5" style="stop-color:#DF7E1C" />
		<stop offset="1" style="stop-color:#A83C24" />
	</linearGradient>
	<path fill="url(#SVGID_5_)" d="M60.248,14.526H15.88v22.973h44.368V14.526z" />
</g>
<g id="Group_Screw">
	<polygon fill="#4D4D4D" points="83.945,23.985 83.096,22.513 83.945,21.04 85.646,21.04 86.496,22.513 85.646,23.985  " />
	<circle fill="#7F7F7F" cx="84.796" cy="22.522" r="0.451" />
</g>
<g id="Group_ShaftFacePlate">
	<linearGradient id="SVGID_6_" gradientUnits="userSpaceOnUse" x1="93.4668" y1="40.2012" x2="93.4668" y2="12.0493">
		<stop offset="0" style="stop-color:#E04700" />
		<stop offset="0" style="stop-color:#A83C24" />
		<stop offset="0.5" style="stop-color:#FF8A00" />
		<stop offset="1" style="stop-color:#A83C24" />
	</linearGradient>
	<path fill="url(#SVGID_6_)" d="M96.508,12.049h-6.081v28.152h6.081V12.049" />
</g>
<g id="Group_WiringBox">
	<path fill="#BA3E1D" d="M23.988,1.915H0.002v10.134h23.985V1.915z" />
	<circle fill="#FF8A00" cx="18.92" cy="6.982" r="3.041" />
	<circle fill="#FF8A00" cx="10.925" cy="6.982" r="2.928" />
	<linearGradient id="SVGID_7_" gradientUnits="userSpaceOnUse" x1="11.9951" y1="1.915" x2="11.9951" y2="0">
		<stop offset="0" style="stop-color:#FF8A00" />
		<stop offset="1" style="stop-color:#A83C24" />
	</linearGradient>
	<path fill="url(#SVGID_7_)" d="M23.988,1.915L23.538,0H0.34L0.002,1.915H23.988z" />
</g>
<g id="Group_HeatSink">
	<path fill="#AE6420" d="M60.248,12.95H13.853v2.027h46.395V12.95z" />
	<path fill="#CB7422" d="M60.248,17.004H13.853v2.027h46.395V17.004z" />
	<path fill="#FF8A00" d="M60.248,21.058H13.853v2.027h46.395V21.058z" />
	<path fill="#FF8A00" d="M60.248,25.111H13.853v2.027h46.395V25.111z" />
	<path fill="#FF8A00" d="M60.248,29.166H13.853v1.802h46.395V29.166z" />
	<path fill="#CB7422" d="M60.248,32.994H13.853v2.027h46.395V32.994z" />
	<path fill="#AE6420" d="M60.248,37.048H13.853v2.027h46.395V37.048z" />
</g>
</svg>