<!DOCTYPE svg PUBLIC "-//W3C//DTD SVG 20000303 Stylable//EN" "http://www.w3.org/TR/2000/03/WD-SVG-20000303/DTD/svg-20000303-stylable.dtd"[]><svg xmlns="http://www.w3.org/2000/svg" width="999px" height="763px" viewBox="0 0 999 749"><path style="fill:#808080;stroke:#4c4c4c;stroke-width:2" d="M124,749 l0,-125 63,-21 -146,0 0,-62 -41,-21 0,-396 41,-21 0,-62 208,0 42,-41 333,0 42,41 166,0 0,62 42,21 0,167 125,0 0,83 -125,0 0,146 -42,21 0,62 -83,0 41,21 0,125 -666,0z" /><path style="fill:none;stroke:#4c4c4c;stroke-width:2" d="M124,666 l666,0" /><path style="fill:none;stroke:#4c4c4c;stroke-width:2" d="M187,603 l62,-21 417,0 83,21" /><path style="fill:none;stroke:#4c4c4c;stroke-width:2" d="M41,103 l0,438" /><path style="fill:none;stroke:#4c4c4c;stroke-width:2" d="M832,541 l0,-438" /><path style="fill:none;stroke:#4c4c4c;stroke-width:2" d="M666,41 l0,541" /><path style="fill:none;stroke:#4c4c4c;stroke-width:2" d="M249,582 l0,-541" /><path style="fill:none;stroke:#4c4c4c;stroke-width:2" d="M874,374 l0,-83" /></svg>