<!DOCTYPE svg PUBLIC "-//W3C//DTD SVG 20000303 Stylable//EN" "http://www.w3.org/TR/2000/03/WD-SVG-20000303/DTD/svg-20000303-stylable.dtd"[]><svg xmlns="http://www.w3.org/2000/svg" width="787px" height="999px" viewBox="0 0 776 999"><path style="fill:#400d00;stroke:#4c4c4c;stroke-width:2" d="M771,145 l0,788 -4,23 -13,20 -20,13 -23,4 -646,1 -23,-5 -20,-13 -13,-13 -5,-20 61,-858 646,0 21,3 22,14 13,21 4,22z" /><path style="fill:#7f4c00;stroke:#4c4c4c;stroke-width:2" d="M751,145 l-4,-22 -14,-21 -20,-14 -23,-3 -626,0 -22,4 -20,14 -14,20 -4,22 0,788 3,15 9,14 14,8 15,3 666,0 15,-3 13,-8 9,-14 3,-15 0,-788z" /><path style="fill:#592600" d="M34,125 l707,0 0,838 -707,0 0,-838z" /><path style="fill:#fffff7" d="M24,115 l707,0 0,838 -707,0 0,-838z" /><path style="fill:#f2f2d8" d="M469,203 l-3,8 -10,8 -15,6 -17,1 -17,-1 -14,-6 -10,-8 -3,-8 -83,0 -11,-6 -11,-24 -87,-6 -32,-18 20,-34 414,0 60,52 -70,6 -20,24 -12,6 -79,0z" /><path style="fill:#4c4c4c" d="M156,155 l0,-6 444,0 0,6 -444,0z" /><path style="fill:#4c4c4c" d="M416,32 l-20,-9 -13,-2 -12,2 -12,8 -7,11 -2,12 2,13 6,13 -19,-3 0,-45 39,-22 38,22z" /><path style="fill:#b2b2b2" d="M422,49 l67,0 11,11 11,44 67,12 -400,0 66,-12 12,-44 11,-11 66,0 3,-17 10,-15 15,-10 17,-3 0,12 -13,2 -11,7 -7,11 -3,13 3,12 7,12 11,7 13,2 12,-2 12,-7 7,-12 2,-12 -2,-13 -7,-11 -12,-7 -12,-2 0,-12 17,3 14,10 10,15 3,17z" /><path style="fill:#999" d="M178,116 l-22,33 444,0 -22,-33 -400,0z" /><path style="fill:none;stroke:#4c4c4c;stroke-width:2" d="M422,49 l-3,-17 -10,-15 -14,-10 -17,-3 -17,3 -15,10 -10,15 -3,17 -66,0 -11,11 -12,44 -66,12 -22,33 444,0 -22,-33 -67,-12 -11,-44 -11,-11 -67,0" /><circle style="fill:none;stroke:#4c4c4c;stroke-width:2" cx="377" cy="49" r="33" /><path style="fill:#fff" d="M258,104 l0,-5 240,0 0,5 -240,0z" /><ellipse style="fill:#fffff7" cx="426" cy="202" rx="31" ry="17" /></svg>