<!DOCTYPE svg PUBLIC "-//W3C//DTD SVG 20000303 Stylable//EN" "http://www.w3.org/TR/2000/03/WD-SVG-20000303/DTD/svg-20000303-stylable.dtd"[]><svg xmlns="http://www.w3.org/2000/svg" width="764px" height="999px" viewBox="0 0 750 999"><path style="fill:#fff" d="M85,499 l-83,-41 0,-456 746,0 0,456 -83,41 0,497 -580,0 0,-497z" /><path style="fill:#000" d="M0,458 l1,2 83,41 2,-4 -83,-41 1,2 -4,0 0,1 1,1z" /><path style="fill:#000" d="M2,0 l-2,2 0,456 4,0 0,-456 -2,2 0,-4 -2,0 0,2z" /><path style="fill:#000" d="M750,2 l-2,-2 -746,0 0,4 746,0 -3,-2 5,0 0,-2 -2,0z" /><path style="fill:#000" d="M749,460 l1,-2 0,-456 -5,0 0,456 2,-2 2,4 1,-1 0,-1z" /><path style="fill:#000" d="M667,499 l-1,2 83,-41 -2,-4 -83,41 -2,2 2,-2 -2,1 0,1z" /><path style="fill:#000" d="M665,999 l2,-3 0,-497 -5,0 0,497 3,-2 0,5 2,0 0,-3z" /><path style="fill:#000" d="M82,996 l3,3 580,0 0,-5 -580,0 2,2 -5,0 0,3 3,0z" /><path style="fill:#000" d="M84,501 l-2,-2 0,497 5,0 0,-497 -1,-2 1,2 0,-1 -1,-1z" /><path style="fill:#fff;stroke:#7f7f7f;stroke-width:2" d="M126,468 l-83,-42 0,-383 663,0 0,383 -83,42 -497,0z" /><path style="fill:#fff;stroke:#7f7f7f;stroke-width:2" d="M126,499 l497,0 0,456 -497,0 0,-456z" /><path style="fill:#7f7f7f;stroke:#4c4c4c;stroke-width:2" d="M74,126 l601,0 0,249 -601,0 0,-249z" /><path style="fill:#e5e5e5;stroke:#4c4c4c;stroke-width:2" d="M105,168 l539,0 0,165 -539,0 0,-165z" /><path style="fill:#fff;stroke:#4c4c4c;stroke-width:2" d="M152,515 l73,0 0,59 -73,0 0,-59z" /><path style="fill:#fff;stroke:#4c4c4c;stroke-width:2" d="M152,587 l73,0 0,60 -73,0 0,-60z" /><path style="fill:#fff;stroke:#4c4c4c;stroke-width:2" d="M152,660 l73,0 0,59 -73,0 0,-59z" /><path style="fill:#fff;stroke:#4c4c4c;stroke-width:2" d="M152,733 l73,0 0,59 -73,0 0,-59z" /><path style="fill:#fff;stroke:#4c4c4c;stroke-width:2" d="M152,806 l73,0 0,59 -73,0 0,-59z" /><path style="fill:#f00;stroke:#4c4c4c;stroke-width:2" d="M152,879 l73,0 0,59 -73,0 0,-59z" /><path style="fill:#fff;stroke:#4c4c4c;stroke-width:2" d="M245,516 l73,0 0,59 -73,0 0,-59z" /><path style="fill:#fff;stroke:#4c4c4c;stroke-width:2" d="M245,589 l73,0 0,59 -73,0 0,-59z" /><path style="fill:#fff;stroke:#4c4c4c;stroke-width:2" d="M245,661 l73,0 0,60 -73,0 0,-60z" /><path style="fill:#fff;stroke:#4c4c4c;stroke-width:2" d="M245,734 l73,0 0,59 -73,0 0,-59z" /><path style="fill:#fff;stroke:#4c4c4c;stroke-width:2" d="M245,807 l73,0 0,59 -73,0 0,-59z" /><path style="fill:#fff;stroke:#4c4c4c;stroke-width:2" d="M245,880 l73,0 0,59 -73,0 0,-59z" /><path style="fill:#fff;stroke:#4c4c4c;stroke-width:2" d="M338,516 l73,0 0,59 -73,0 0,-59z" /><path style="fill:#fff;stroke:#4c4c4c;stroke-width:2" d="M338,589 l73,0 0,59 -73,0 0,-59z" /><path style="fill:#fff;stroke:#4c4c4c;stroke-width:2" d="M338,661 l73,0 0,60 -73,0 0,-60z" /><path style="fill:#fff;stroke:#4c4c4c;stroke-width:2" d="M338,734 l73,0 0,59 -73,0 0,-59z" /><path style="fill:#fff;stroke:#4c4c4c;stroke-width:2" d="M338,807 l73,0 0,59 -73,0 0,-59z" /><path style="fill:#fff;stroke:#4c4c4c;stroke-width:2" d="M338,880 l73,0 0,59 -73,0 0,-59z" /><path style="fill:#fff;stroke:#4c4c4c;stroke-width:2" d="M432,516 l72,0 0,59 -72,0 0,-59z" /><path style="fill:#fff;stroke:#4c4c4c;stroke-width:2" d="M432,589 l72,0 0,59 -72,0 0,-59z" /><path style="fill:#fff;stroke:#4c4c4c;stroke-width:2" d="M432,661 l72,0 0,60 -72,0 0,-60z" /><path style="fill:#fff;stroke:#4c4c4c;stroke-width:2" d="M432,734 l72,0 0,59 -72,0 0,-59z" /><path style="fill:#fff;stroke:#4c4c4c;stroke-width:2" d="M432,807 l72,0 0,59 -72,0 0,-59z" /><path style="fill:#fff;stroke:#4c4c4c;stroke-width:2" d="M525,516 l72,0 0,59 -72,0 0,-59z" /><path style="fill:#fff;stroke:#4c4c4c;stroke-width:2" d="M525,589 l72,0 0,59 -72,0 0,-59z" /><path style="fill:#fff;stroke:#4c4c4c;stroke-width:2" d="M525,661 l72,0 0,60 -72,0 0,-60z" /><path style="fill:#fff;stroke:#4c4c4c;stroke-width:2" d="M525,734 l72,0 0,59 -72,0 0,-59z" /><path style="fill:#fff;stroke:#4c4c4c;stroke-width:2" d="M525,807 l72,0 0,59 -72,0 0,-59z" /><path style="fill:#fff;stroke:#4c4c4c;stroke-width:2" d="M431,880 l167,0 0,59 -167,0 0,-59z" /><circle style="fill:#fff;stroke:#4c4c4c;stroke-width:2" cx="463" cy="452" r="5" /></svg>