<!DOCTYPE svg PUBLIC "-//W3C//DTD SVG 20000303 Stylable//EN" "http://www.w3.org/TR/2000/03/WD-SVG-20000303/DTD/svg-20000303-stylable.dtd"[]><svg xmlns="http://www.w3.org/2000/svg" width="999px" height="831px" viewBox="0 0 999 821"><path style="fill:#000;stroke:#4c4c4c;stroke-width:2" d="M0,0 l998,0 0,821 -998,0 0,-821z" /><path style="fill:#ccc;stroke:#4c4c4c;stroke-width:2" d="M10,811 l978,-801 11,-10 -999,0 0,821 10,-10z" /><path style="fill:#7f7f7f;stroke:#4c4c4c;stroke-width:2" d="M10,10 l978,0 0,801 -978,0 0,-801z" /><path style="fill:#000" d="M944,769 l3,-2 -271,0 0,5 271,0 2,-3 -2,3 2,0 0,-3z" /><path style="fill:#000" d="M947,501 l-3,-2 0,270 5,0 0,-270 -2,-2 2,2 0,-2 -2,0z" /><path style="fill:#000" d="M678,499 l-2,2 271,0 0,-4 -271,0 -2,2 2,-2 -2,0 0,2z" /><path style="fill:#000" d="M676,767 l2,2 0,-270 -4,0 0,270 2,3 -2,-3 0,3 2,0z" /><circle style="fill:#ccc;stroke:#e5e5e5;stroke-width:2" cx="811" cy="530" r="21" /><path style="fill:#ccc;stroke:#e5e5e5;stroke-width:2" d="M62,613 l573,0 0,115 -573,0 0,-115z" /><circle style="fill:#4c4c4c;stroke:#4c4c4c;stroke-width:2" cx="98" cy="671" r="26" /><path style="fill:#fff;stroke:#4c4c4c;stroke-width:2" d="M145,676 l31,0 0,31 -31,0 0,-31z" /><path style="fill:#fff;stroke:#4c4c4c;stroke-width:2" d="M145,634 l31,0 0,31 -31,0 0,-31z" /><path style="fill:#fff;stroke:#4c4c4c;stroke-width:2" d="M187,676 l31,0 0,31 -31,0 0,-31z" /><path style="fill:#fff;stroke:#4c4c4c;stroke-width:2" d="M187,634 l31,0 0,31 -31,0 0,-31z" /><path style="fill:#fff;stroke:#4c4c4c;stroke-width:2" d="M228,676 l32,0 0,31 -32,0 0,-31z" /><path style="fill:#fff;stroke:#4c4c4c;stroke-width:2" d="M228,634 l32,0 0,31 -32,0 0,-31z" /><path style="fill:#fff;stroke:#4c4c4c;stroke-width:2" d="M270,676 l31,0 0,31 -31,0 0,-31z" /><path style="fill:#fff;stroke:#4c4c4c;stroke-width:2" d="M270,634 l31,0 0,31 -31,0 0,-31z" /><path style="fill:#fff;stroke:#4c4c4c;stroke-width:2" d="M312,676 l31,0 0,31 -31,0 0,-31z" /><path style="fill:#fff;stroke:#4c4c4c;stroke-width:2" d="M312,634 l31,0 0,31 -31,0 0,-31z" /><path style="fill:#fff;stroke:#4c4c4c;stroke-width:2" d="M353,676 l32,0 0,31 -32,0 0,-31z" /><path style="fill:#fff;stroke:#4c4c4c;stroke-width:2" d="M353,634 l32,0 0,31 -32,0 0,-31z" /><path style="fill:#fff;stroke:#4c4c4c;stroke-width:2" d="M395,676 l31,0 0,31 -31,0 0,-31z" /><path style="fill:#fff;stroke:#4c4c4c;stroke-width:2" d="M395,634 l31,0 0,31 -31,0 0,-31z" /><path style="fill:#fff;stroke:#4c4c4c;stroke-width:2" d="M437,676 l31,0 0,31 -31,0 0,-31z" /><path style="fill:#fff;stroke:#4c4c4c;stroke-width:2" d="M437,634 l31,0 0,31 -31,0 0,-31z" /><path style="fill:#fff;stroke:#4c4c4c;stroke-width:2" d="M478,676 l31,0 0,31 -31,0 0,-31z" /><path style="fill:#fff;stroke:#4c4c4c;stroke-width:2" d="M478,634 l31,0 0,31 -31,0 0,-31z" /><path style="fill:#fff;stroke:#4c4c4c;stroke-width:2" d="M520,676 l31,0 0,31 -31,0 0,-31z" /><path style="fill:#fff;stroke:#4c4c4c;stroke-width:2" d="M520,634 l31,0 0,31 -31,0 0,-31z" /><path style="fill:#4c4c4c;stroke:#4c4c4c;stroke-width:2" d="M93,572 l11,-11 520,-468 10,-10 -541,0 0,489z" /><path style="fill:none;stroke:#4c4c4c;stroke-width:2" d="M93,83 l542,0 0,488 -542,0 0,-488" /><path style="fill:#000;stroke:#4c4c4c;stroke-width:2" d="M104,93 l520,0 0,468 -520,0 0,-468z" /><path style="fill:#e5e5e5;stroke:#e5e5e5;stroke-width:2" d="M676,447 l271,0 0,-364 -271,0 0,364z" /><path style="fill:#fff;stroke:#4c4c4c;stroke-width:2" d="M738,155 l32,0 0,32 -32,0 0,-32z" /><path style="fill:#fff;stroke:#4c4c4c;stroke-width:2" d="M738,114 l32,0 0,31 -32,0 0,-31z" /><path style="fill:#fff;stroke:#4c4c4c;stroke-width:2" d="M780,155 l31,0 0,32 -31,0 0,-32z" /><path style="fill:#fff;stroke:#4c4c4c;stroke-width:2" d="M780,114 l31,0 0,31 -31,0 0,-31z" /><path style="fill:#fff;stroke:#4c4c4c;stroke-width:2" d="M822,155 l31,0 0,32 -31,0 0,-32z" /><path style="fill:#fff;stroke:#4c4c4c;stroke-width:2" d="M822,114 l31,0 0,31 -31,0 0,-31z" /><path style="fill:#fff;stroke:#4c4c4c;stroke-width:2" d="M863,155 l32,0 0,32 -32,0 0,-32z" /><path style="fill:#fff;stroke:#4c4c4c;stroke-width:2" d="M863,114 l32,0 0,31 -32,0 0,-31z" /><path style="fill:#fff;stroke:#4c4c4c;stroke-width:2" d="M738,239 l32,0 0,31 -32,0 0,-31z" /><path style="fill:#fff;stroke:#4c4c4c;stroke-width:2" d="M738,197 l32,0 0,31 -32,0 0,-31z" /><path style="fill:#fff;stroke:#4c4c4c;stroke-width:2" d="M780,239 l31,0 0,31 -31,0 0,-31z" /><path style="fill:#fff;stroke:#4c4c4c;stroke-width:2" d="M780,197 l31,0 0,31 -31,0 0,-31z" /><path style="fill:#fff;stroke:#4c4c4c;stroke-width:2" d="M822,239 l31,0 0,31 -31,0 0,-31z" /><path style="fill:#fff;stroke:#4c4c4c;stroke-width:2" d="M822,197 l31,0 0,31 -31,0 0,-31z" /><path style="fill:#fff;stroke:#4c4c4c;stroke-width:2" d="M863,239 l32,0 0,31 -32,0 0,-31z" /><path style="fill:#fff;stroke:#4c4c4c;stroke-width:2" d="M863,197 l32,0 0,31 -32,0 0,-31z" /><path style="fill:#fff;stroke:#4c4c4c;stroke-width:2" d="M738,301 l32,0 0,31 -32,0 0,-31z" /><path style="fill:#fff;stroke:#4c4c4c;stroke-width:2" d="M780,301 l31,0 0,31 -31,0 0,-31z" /><path style="fill:#fff;stroke:#4c4c4c;stroke-width:2" d="M822,301 l31,0 0,31 -31,0 0,-31z" /><path style="fill:#fff;stroke:#4c4c4c;stroke-width:2" d="M863,301 l31,0 0,31 -31,0 0,-31z" /><path style="fill:#fff;stroke:#4c4c4c;stroke-width:2" d="M738,384 l32,0 0,32 -32,0 0,-32z" /><path style="fill:#fff;stroke:#4c4c4c;stroke-width:2" d="M738,343 l32,0 0,31 -32,0 0,-31z" /><path style="fill:#fff;stroke:#4c4c4c;stroke-width:2" d="M780,384 l31,0 0,32 -31,0 0,-32z" /><path style="fill:#fff;stroke:#4c4c4c;stroke-width:2" d="M780,343 l31,0 0,31 -31,0 0,-31z" /><path style="fill:#fff;stroke:#4c4c4c;stroke-width:2" d="M822,384 l31,0 0,32 -31,0 0,-32z" /><path style="fill:#fff;stroke:#4c4c4c;stroke-width:2" d="M822,343 l31,0 0,31 -31,0 0,-31z" /><path style="fill:#fff;stroke:#4c4c4c;stroke-width:2" d="M863,343 l31,0 0,73 -31,0 0,-73z" /><circle style="fill:#000;stroke:#4c4c4c;stroke-width:2" cx="25" cy="348" r="5" /><circle style="fill:#000;stroke:#4c4c4c;stroke-width:2" cx="25" cy="514" r="5" /><circle style="fill:#000;stroke:#4c4c4c;stroke-width:2" cx="25" cy="285" r="5" /><circle style="fill:#000;stroke:#4c4c4c;stroke-width:2" cx="25" cy="452" r="5" /><circle style="fill:#000;stroke:#4c4c4c;stroke-width:2" cx="25" cy="56" r="5" /><circle style="fill:#000;stroke:#4c4c4c;stroke-width:2" cx="25" cy="774" r="5" /><circle style="fill:#000;stroke:#4c4c4c;stroke-width:2" cx="972" cy="348" r="5" /><circle style="fill:#000;stroke:#4c4c4c;stroke-width:2" cx="972" cy="514" r="5" /><circle style="fill:#000;stroke:#4c4c4c;stroke-width:2" cx="972" cy="285" r="5" /><circle style="fill:#000;stroke:#4c4c4c;stroke-width:2" cx="972" cy="452" r="5" /><circle style="fill:#000;stroke:#4c4c4c;stroke-width:2" cx="972" cy="56" r="5" /><circle style="fill:#000;stroke:#4c4c4c;stroke-width:2" cx="972" cy="774" r="5" /><path style="fill:none;stroke:#fff;stroke-width:2" d="M270,374 l187,-187" /><path style="fill:none;stroke:#fff;stroke-width:2" d="M280,468 l261,-261" /><path style="fill:none;stroke:#fff;stroke-width:2" d="M416,436 l93,-93" /><path style="fill:none;stroke:#fff;stroke-width:2" d="M218,301 l146,-145" /></svg>