<!DOCTYPE svg PUBLIC "-//W3C//DTD SVG 20000303 Stylable//EN" "http://www.w3.org/TR/2000/03/WD-SVG-20000303/DTD/svg-20000303-stylable.dtd"[]><svg xmlns="http://www.w3.org/2000/svg" width="507px" height="998px" viewBox="0 0 477 999"><path style="fill:#b2b2b2;stroke:#4c4c4c;stroke-width:2" d="M434,934 l3,-16 8,-6 11,0 0,43 -11,0 -8,-6 -3,-15z" /><path style="fill:#b2b2b2;stroke:#4c4c4c;stroke-width:2" d="M97,934 l4,-16 7,-6 11,0 0,43 -11,0 -7,-6 -4,-15z" /><path style="fill:#b2b2b2;stroke:#4c4c4c;stroke-width:2" d="M341,971 l4,-19 10,-8 14,0 0,55 -14,0 -10,-8 -4,-20z" /><path style="fill:#b2b2b2;stroke:#4c4c4c;stroke-width:2" d="M8,971 l4,-19 9,-8 14,0 0,55 -14,0 -9,-8 -4,-20z" /><path style="fill:#333;stroke:#4c4c4c;stroke-width:2" d="M445,934 l3,-16 8,-6 7,6 4,16 -4,15 -7,6 -8,-6 -3,-15z" /><path style="fill:#333;stroke:#4c4c4c;stroke-width:2" d="M355,971 l4,-19 10,-8 9,8 4,19 -4,20 -9,8 -10,-8 -4,-20z" /><path style="fill:#333;stroke:#4c4c4c;stroke-width:2" d="M108,934 l3,-16 8,-6 8,6 3,16 -3,15 -8,6 -8,-6 -3,-15z" /><path style="fill:#333;stroke:#4c4c4c;stroke-width:2" d="M21,971 l4,-19 10,-8 10,8 3,19 -3,20 -10,8 -10,-8 -4,-20z" /><path style="fill:#001999;stroke:#4c4c4c;stroke-width:2" d="M467,890 l0,16 -82,44 0,-17 82,-43z" /><path style="fill:#004ccc;stroke:#4c4c4c;stroke-width:2" d="M5,933 l0,17 380,0 0,-17 -380,0z" /><path style="fill:#004ccc;stroke:#4c4c4c;stroke-width:2" d="M477,890 l0,-890 -87,43 0,890 87,-43z" /><path style="fill:#007fff" d="M0,933 l0,-521 10,-5 1,-60 -11,0 0,-304 390,0 0,304 11,-6 0,66 -11,5 0,521 -390,0z" /><path style="fill:#004ccc" d="M390,347 l11,-6 0,66 -391,0 0,-60 380,0z" /><path style="fill:#7fbfff;stroke:#4c4c4c;stroke-width:2" d="M0,43 l390,0 87,-43 -391,0 -86,43z" /><path style="fill:#0065e5" d="M65,86 l260,0 0,174 -260,0 0,-174z" /><path style="fill:#004ccc" d="M86,86 l-10,163 -11,11 0,-174 21,0z" /><path style="fill:#004ccc" d="M97,499 l0,337 -11,10 0,-347 11,0z" /><path style="fill:#7fbfff" d="M65,260 l11,-11 249,0 0,11 -260,0z" /><path style="fill:#7fbfff" d="M86,846 l11,-10 207,0 0,10 -218,0z" /><path style="fill:#7fbfff" d="M0,412 l390,0 11,-5 -391,0 -10,5z" /><path style="fill:none;stroke:#004ccc;stroke-width:2" d="M65,86 l260,0" /><path style="fill:none;stroke:#004ccc;stroke-width:2" d="M86,500 l218,0" /><path style="fill:none;stroke:#7fbfff;stroke-width:2" d="M325,260 l0,-174" /><path style="fill:none;stroke:#7fbfff;stroke-width:2" d="M304,846 l0,-346" /><path style="fill:#000" d="M108,238 l-11,-11 11,-119 11,-11 173,0 12,11 -11,119 -11,11 -174,0z" /><path style="fill:#263a59" d="M113,233 l-10,-11 10,-109 11,-11 163,0 11,11 -10,109 -12,11 -163,0z" /><path style="fill:none;stroke:#fff;stroke-width:2" d="M239,162 l-39,-38" /><path style="fill:none;stroke:#fff;stroke-width:2" d="M184,217 l-27,-27" /><path style="fill:#fff" d="M244,200 l-38,-32 -38,-55 43,44 33,43z" /><path style="fill:#333" d="M341,377 l6,-14 14,-5 13,5 6,14 -6,13 -13,6 -14,-6 -6,-13z" /><path style="fill:#333" d="M190,377 l2,-6 6,-2 5,2 3,6 -3,6 -5,2 -6,-2 -2,-6z" /><path style="fill:#333" d="M32,377 l5,-14 14,-5 14,5 5,14 -5,14 -14,5 -14,-5 -5,-14z" /><path style="fill:#004ccc" d="M0,64 l0,-5 380,0 0,5 -380,0z" /><path style="fill:#666" d="M347,238 l0,-65 22,0 0,65 -22,0z" /><path style="fill:#666" d="M347,586 l0,-65 22,0 0,65 -22,0z" /><path style="fill:#666" d="M347,825 l0,-66 22,0 0,66 -22,0z" /><path style="fill:#000" d="M358,814 l0,-54 -11,0 0,65 22,0 0,-11 -11,0z" /><path style="fill:#000" d="M358,575 l0,-54 -11,0 0,65 22,0 0,-11 -11,0z" /><path style="fill:#000" d="M358,227 l0,-54 -11,0 0,65 22,0 0,-11 -11,0z" /><path style="fill:none;stroke:#4c4c4c;stroke-width:2" d="M0,933 l0,-521 10,-5 1,-60 -11,0 0,-304 390,0 0,304 11,-6 0,66 -11,5 0,521 -390,0" /><path style="fill:none;stroke:#4c4c4c;stroke-width:2" d="M10,347 l380,0" /><path style="fill:none;stroke:#4c4c4c;stroke-width:2" d="M401,928 l0,-891 -385,0" /></svg>