<!DOCTYPE svg PUBLIC "-//W3C//DTD SVG 20000303 Stylable//EN" "http://www.w3.org/TR/2000/03/WD-SVG-20000303/DTD/svg-20000303-stylable.dtd"[]><svg xmlns="http://www.w3.org/2000/svg" width="447px" height="999px" viewBox="0 0 414 999"><path style="fill:#00f;stroke:#4c4c4c;stroke-width:2" d="M29,0 l355,0 0,355 -355,0 0,-355z" /><path style="fill:#00f;stroke:#4c4c4c;stroke-width:2" d="M14,474 l385,0 0,473 -385,0 0,-473z" /><path style="fill:#000;stroke:#4c4c4c;stroke-width:2" d="M73,58 l267,0 0,237 -267,0 0,-237z" /><path style="fill:#7f7f7f;stroke:#4c4c4c;stroke-width:2" d="M88,73 l237,0 0,208 -237,0 0,-208z" /><path style="fill:#7f7f7f;stroke:#4c4c4c;stroke-width:2" d="M73,296 l15,-15 237,0 0,-208 15,-14 0,237 -267,0z" /><circle style="fill:#000;stroke:#4c4c4c;stroke-width:2" cx="73" cy="325" r="14" /><circle style="fill:#000;stroke:#4c4c4c;stroke-width:2" cx="340" cy="325" r="14" /><path style="fill:#00f;stroke:#4c4c4c;stroke-width:2" d="M14,473 l0,-326 15,-14 0,340 -15,0z" /><path style="fill:#00f;stroke:#4c4c4c;stroke-width:2" d="M399,473 l0,-326 -15,-14 0,340 15,0z" /><path style="fill:#000;stroke:#4c4c4c;stroke-width:2" d="M0,162 l15,0 0,45 -15,0 0,-45z" /><path style="fill:#000;stroke:#4c4c4c;stroke-width:2" d="M399,162 l15,0 0,45 -15,0 0,-45z" /><path style="fill:#000;stroke:#4c4c4c;stroke-width:2" d="M0,281 l15,0 0,44 -15,0 0,-44z" /><path style="fill:#000;stroke:#4c4c4c;stroke-width:2" d="M399,281 l15,0 0,44 -15,0 0,-44z" /><path style="fill:#000;stroke:#4c4c4c;stroke-width:2" d="M29,459 l355,0 0,22 -355,0 0,-22z" /><path style="fill:#000;stroke:#4c4c4c;stroke-width:2" d="M29,459 l0,-15 7,-30 252,0 8,30 0,15 -267,0z" /><path style="fill:#fff;stroke:#4c4c4c;stroke-width:2" d="M45,449 l8,-29 219,0 8,29 -235,0z" /><path style="fill:#000" d="M229,451 l7,-1 -8,-35 -13,2 7,36 7,-2z" /><path style="fill:#000;stroke:#4c4c4c;stroke-width:2" d="M303,459 l0,-37 7,-30 60,0 7,30 0,37 -74,0z" /><path style="fill:#fff;stroke:#4c4c4c;stroke-width:2" d="M310,422 l0,7 60,-1 0,-6 -60,0z" /><path style="fill:none;stroke:#7f7f7f;stroke-width:2" d="M29,465 l267,0" /><path style="fill:none;stroke:#7f7f7f;stroke-width:2" d="M303,465 l74,0" /><circle style="fill:#000;stroke:#4c4c4c;stroke-width:2" cx="206" cy="518" r="14" /><circle style="fill:#000;stroke:#4c4c4c;stroke-width:2" cx="206" cy="910" r="14" /><circle style="fill:#000;stroke:#4c4c4c;stroke-width:2" cx="369" cy="592" r="14" /><circle style="fill:#000;stroke:#4c4c4c;stroke-width:2" cx="369" cy="829" r="14" /><path style="fill:none;stroke:#fff;stroke-width:2" d="M60,332 l0,-1 -1,-2 0,-2 0,-1 0,-3 1,-3 1,-3 2,-2 2,-2 3,-1 3,-1 2,-1 2,0 3,1 2,1 1,1" /><path style="fill:none;stroke:#fff;stroke-width:2" d="M327,332 l-1,-1 0,-2 0,-2 0,-1 0,-3 0,-3 2,-3 2,-2 2,-2 3,-1 2,-1 3,-1 2,0 3,1 1,1 2,1" /><path style="fill:none;stroke:#fff;stroke-width:2" d="M193,525 l0,-2 -1,-2 0,-1 0,-2 0,-3 1,-3 1,-3 2,-1 3,-2 2,-2 3,-1 3,0 1,0 3,0 2,1 2,2" /><path style="fill:none;stroke:#fff;stroke-width:2" d="M356,599 l0,-2 -1,-2 0,-1 0,-2 0,-3 1,-3 1,-3 2,-2 3,-1 2,-2 3,-1 3,0 2,0 2,0 2,1 2,2" /><path style="fill:none;stroke:#fff;stroke-width:2" d="M193,917 l0,-1 -1,-2 0,-2 0,-2 0,-2 1,-3 1,-3 2,-2 3,-2 2,-1 3,-1 3,-1 1,0 3,1 2,1 2,1" /><path style="fill:none;stroke:#fff;stroke-width:2" d="M356,835 l0,-1 -1,-2 0,-1 0,-2 0,-3 1,-3 1,-3 2,-2 3,-1 2,-2 3,-1 3,0 2,0 2,0 2,1 2,2" /><path style="fill:#000;stroke:#4c4c4c;stroke-width:2" d="M59,947 l296,0 0,45 -296,0 0,-45z" /><path style="fill:#000" d="M384,992 l0,-7 -355,0 0,14 355,0 0,-7z" /></svg>