<!DOCTYPE svg PUBLIC "-//W3C//DTD SVG 20000303 Stylable//EN" "http://www.w3.org/TR/2000/03/WD-SVG-20000303/DTD/svg-20000303-stylable.dtd"[]><svg xmlns="http://www.w3.org/2000/svg" width="999px" height="881px" viewBox="0 0 999 875"><path style="fill:#f2f2f2;stroke:#4c4c4c;stroke-width:2" d="M87,870 l0,-83 -83,0 0,-741 907,0 0,741 -82,0 0,83 -742,0z" /><path style="fill:none;stroke:#4c4c4c;stroke-width:2" d="M87,787 l742,0" /><path style="fill:none;stroke:#4c4c4c;stroke-width:2" d="M128,664 l0,-495 659,0 0,495 -659,0" /><path style="fill:#7387a6" d="M128,664 l0,-495 659,0 0,495 -659,0z" /><path style="fill:#a6bad9" d="M808,561 l0,-62 62,0 0,62 -62,0z" /><path style="fill:#a6bad9" d="M808,457 l0,-61 62,0 0,61 -62,0z" /><path style="fill:#a6bad9" d="M808,355 l0,-62 62,0 0,62 -62,0z" /><path style="fill:#a6bad9" d="M808,251 l0,-61 62,0 0,61 -62,0z" /><path style="fill:#a6bad9" d="M128,685 l62,0 0,61 -62,0 0,-61z" /><path style="fill:#a6bad9" d="M231,685 l62,0 0,61 -62,0 0,-61z" /><path style="fill:#a6bad9" d="M334,685 l62,0 0,61 -62,0 0,-61z" /><path style="fill:#a6bad9" d="M437,685 l62,0 0,61 -62,0 0,-61z" /><path style="fill:#a6bad9" d="M643,685 l62,0 0,61 -62,0 0,-61z" /><path style="fill:#a6bad9" d="M540,685 l62,0 0,61 -62,0 0,-61z" /><path style="fill:#ccc;stroke:#4c4c4c;stroke-width:2" d="M911,46 l83,-42 0,742 -83,41 0,-741z" /><path style="fill:#999;stroke:#4c4c4c;stroke-width:2" d="M829,870 l82,-41 0,-42 -82,0 0,83z" /><path style="fill:#fff;stroke:#4c4c4c;stroke-width:2" d="M911,46 l83,-42 -907,0 -83,42 907,0z" /><path style="fill:#405473" d="M128,664 l21,0 0,-474 638,0 0,-21 -659,0 0,495z" /></svg>