<!DOCTYPE svg PUBLIC "-//W3C//DTD SVG 20000303 Stylable//EN" "http://www.w3.org/TR/2000/03/WD-SVG-20000303/DTD/svg-20000303-stylable.dtd"[]><svg xmlns="http://www.w3.org/2000/svg" width="488px" height="999px" viewBox="0 0 457 998"><path style="fill:#0000bf;stroke:#4c4c4c;stroke-width:2" d="M260,686 l62,-83 -208,0 63,83 83,0z" /><path style="fill:#0000bf;stroke:#4c4c4c;stroke-width:2" d="M176,884 l-62,83 208,0 -63,-83 -83,0z" /><path style="fill:#0000bf;stroke:#4c4c4c;stroke-width:2" d="M10,530 l416,0 0,58 -416,0 0,-58z" /><path style="fill:#00f;stroke:#4c4c4c;stroke-width:2" d="M10,967 l416,0 0,31 -416,0 0,-31z" /><path style="fill:#00f;stroke:#4c4c4c;stroke-width:2" d="M176,603 l83,0 0,364 -83,0 0,-364z" /><path style="fill:#00f;stroke:#4c4c4c;stroke-width:2" d="M10,0 l416,0 0,457 -416,0 0,-457z" /><path style="fill:none;stroke:#4c4c4c;stroke-width:2" d="M31,20 l374,0 0,396 -374,0 0,-396" /><path style="fill:#0000bf;stroke:#4c4c4c;stroke-width:2" d="M51,311 l21,-20 292,-229 20,-21 -333,0 0,270z" /><path style="fill:#7f7fff;stroke:#4c4c4c;stroke-width:2" d="M384,41 l-21,21 -291,229 -21,20 333,0 0,-270z" /><path style="fill:#333;stroke:#4c4c4c;stroke-width:2" d="M72,62 l292,0 0,229 -292,0 0,-229z" /><path style="fill:#4c4c4c;stroke:#4c4c4c;stroke-width:2" d="M384,332 l-20,0 0,63 20,0 0,-63z" /><path style="fill:#0000d9;stroke:#4c4c4c;stroke-width:2" d="M10,457 l416,0 0,62 -416,0 0,-62z" /><path style="fill:#00f;stroke:#4c4c4c;stroke-width:2" d="M426,447 l10,0 0,119 -10,0 0,-119z" /><path style="fill:#00f;stroke:#4c4c4c;stroke-width:2" d="M0,447 l10,0 0,119 -10,0 0,-119z" /><path style="fill:#00f;stroke:#4c4c4c;stroke-width:2" d="M447,457 l10,0 0,42 -10,0 0,-42z" /><path style="fill:#0000bf;stroke:#4c4c4c;stroke-width:2" d="M447,473 l-11,0 0,10 11,0 0,-10z" /><path style="fill:#7f7fff;stroke:#4c4c4c;stroke-width:2" d="M202,842 l32,0 0,125 -32,0 0,-125z" /><path style="fill:#009;stroke:#4c4c4c;stroke-width:2" d="M36,587 l364,0 0,16 -364,0 0,-16z" /><path style="fill:#000;stroke:#4c4c4c;stroke-width:2" d="M207,624 l22,0 0,21 -22,0 0,-21z" /><path style="fill:#000;stroke:#4c4c4c;stroke-width:2" d="M207,670 l22,0 0,21 -22,0 0,-21z" /><path style="fill:#4c4c4c;stroke:#4c4c4c;stroke-width:2" d="M51,322 l89,0 0,10 -89,0 0,-10z" /><path style="fill:none;stroke:#7f7f7f;stroke-width:2" d="M202,254 l94,-88" /><path style="fill:none;stroke:#7f7f7f;stroke-width:2" d="M124,259 l172,-156" /><path style="fill:none;stroke:#7f7f7f;stroke-width:2" d="M156,166 l67,-63" /></svg>