<!DOCTYPE svg PUBLIC "-//W3C//DTD SVG 20000303 Stylable//EN" "http://www.w3.org/TR/2000/03/WD-SVG-20000303/DTD/svg-20000303-stylable.dtd"[]><svg xmlns="http://www.w3.org/2000/svg" width="999px" height="449px" viewBox="0 0 999 416"><path style="fill:#000;stroke:#4c4c4c;stroke-width:2" d="M0,0 l999,0 0,416 -999,0 0,-416z" /><ellipse style="fill:#fff;stroke:#4c4c4c;stroke-width:2" cx="978" cy="82" rx="21" ry="10" /><ellipse style="fill:#fff;stroke:#4c4c4c;stroke-width:2" cx="978" cy="332" rx="21" ry="10" /><ellipse style="fill:#fff;stroke:#4c4c4c;stroke-width:2" cx="20" cy="82" rx="20" ry="10" /><ellipse style="fill:#fff;stroke:#4c4c4c;stroke-width:2" cx="20" cy="332" rx="20" ry="10" /><path style="fill:#191919;stroke:#7f7f7f;stroke-width:2" d="M135,62 l728,0 0,250 -728,0 0,-250z" /><path style="fill:#7f7f7f" d="M103,381 l0,-319 1,0 -1,2 -1,3 -2,2 -3,2 -3,1 -3,2 -4,0 -4,1 -4,-1 -4,0 -4,-2 -3,-1 -2,-2 -2,-2 -2,-3 0,-2 0,0 0,319 0,0 0,3 2,2 2,2 2,2 3,2 4,1 4,1 4,0 4,0 4,-1 3,-1 3,-2 3,-2 2,-2 1,-2 1,-3 -1,0z" /><path style="fill:#000;stroke:#7f7f7f;stroke-width:2" d="M103,381 l0,2 -1,3 -2,2 -3,2 -3,2 -4,1 -4,1 -4,0 0,-319 4,-1 4,0 4,-2 3,-1 3,-2 2,-2 1,-3 0,-3 0,320z" /><path style="fill:#7f7f7f" d="M936,381 l0,-319 0,0 0,2 -1,3 -2,2 -3,2 -3,1 -4,2 -4,0 -4,1 -4,-1 -4,0 -3,-2 -3,-1 -3,-2 -2,-2 -1,-3 0,-2 -1,0 0,319 1,0 0,3 1,2 2,2 3,2 3,2 3,1 4,1 4,0 4,0 4,-1 4,-1 3,-2 3,-2 2,-2 1,-2 0,-3 0,0z" /><path style="fill:#000;stroke:#7f7f7f;stroke-width:2" d="M936,381 l0,2 -2,3 -2,2 -2,2 -3,2 -4,1 -4,1 -4,0 0,-319 4,-1 4,0 4,-2 3,-1 2,-2 2,-2 2,-3 0,-3 0,320z" /><circle style="fill:#000;stroke:#7f7f7f;stroke-width:2" cx="147" cy="365" r="23" /><circle style="fill:#000;stroke:#fff;stroke-width:2" cx="148" cy="366" r="18" /><circle style="fill:#000" cx="148" cy="366" r="7" /><path style="fill:#7f7f7f" d="M161,366 l-1,-4 -3,-4 -4,-3 -5,-1 0,9 1,1 1,0 1,2 0,0z" /><path style="fill:#7f7f7f" d="M148,379 l5,-1 3,-3 4,-4 1,-5 -10,0 0,1 -1,1 -1,1 -1,0z" /><path style="fill:#7f7f7f" d="M136,366 l1,5 3,4 3,3 5,1 0,-10 -1,0 -1,-1 0,-1 -1,-1z" /><path style="fill:#7f7f7f" d="M148,354 l-5,1 -3,3 -3,4 -1,4 9,0 1,0 0,-2 1,0 1,-1z" /><circle style="fill:#b2b2b2;stroke:#4c4c4c;stroke-width:2" cx="499" cy="103" r="21" /><path style="fill:#7f7f7f" d="M707,82 l125,0 0,42 -125,0 0,-42z" /><circle style="fill:#000;stroke:#4c4c4c;stroke-width:2" cx="179" cy="106" r="18" /><path style="fill:#000" d="M385,104 l83,0 0,166 -83,0 0,-166z" /><path style="fill:none;stroke:#7f7f7f;stroke-width:2" d="M384,271 l84,0 0,-168" /><circle style="fill:#000;stroke:#4c4c4c;stroke-width:2" cx="179" cy="158" r="18" /><circle style="fill:#000;stroke:#4c4c4c;stroke-width:2" cx="179" cy="215" r="18" /><circle style="fill:#000;stroke:#4c4c4c;stroke-width:2" cx="221" cy="106" r="18" /><circle style="fill:#000;stroke:#4c4c4c;stroke-width:2" cx="221" cy="158" r="18" /><circle style="fill:#000;stroke:#4c4c4c;stroke-width:2" cx="221" cy="215" r="18" /><circle style="fill:#000;stroke:#4c4c4c;stroke-width:2" cx="283" cy="106" r="18" /><circle style="fill:#000;stroke:#4c4c4c;stroke-width:2" cx="283" cy="267" r="18" /><circle style="fill:#000;stroke:#4c4c4c;stroke-width:2" cx="283" cy="158" r="18" /><circle style="fill:#000;stroke:#4c4c4c;stroke-width:2" cx="283" cy="215" r="18" /><circle style="fill:#000;stroke:#4c4c4c;stroke-width:2" cx="325" cy="106" r="18" /><circle style="fill:#000;stroke:#4c4c4c;stroke-width:2" cx="325" cy="267" r="18" /><circle style="fill:#000;stroke:#4c4c4c;stroke-width:2" cx="325" cy="158" r="18" /><circle style="fill:#000;stroke:#4c4c4c;stroke-width:2" cx="325" cy="215" r="18" /><circle style="fill:#7f7f7f;stroke:#4c4c4c;stroke-width:2" cx="499" cy="103" r="16" /><path style="fill:#000" d="M496,88 l6,0 0,31 -6,0 0,-31z" /></svg>