<!DOCTYPE svg PUBLIC "-//W3C//DTD SVG 20000303 Stylable//EN" "http://www.w3.org/TR/2000/03/WD-SVG-20000303/DTD/svg-20000303-stylable.dtd"[]><svg xmlns="http://www.w3.org/2000/svg" width="686px" height="999px" viewBox="0 0 667 999"><path style="fill:#7f7f7f" d="M105,416 l-103,-41 0,-373 663,0 0,373 -104,41 0,580 -456,0 0,-580z" /><path style="fill:#000" d="M0,375 l1,2 104,41 1,-4 -103,-42 1,3 -4,0 0,1 1,1z" /><path style="fill:#000" d="M2,0 l-2,2 0,373 4,0 0,-373 -2,2 0,-4 -2,0 0,2z" /><path style="fill:#000" d="M667,2 l-2,-2 -663,0 0,4 663,0 -2,-2 4,0 0,-2 -2,0z" /><path style="fill:#000" d="M666,377 l1,-2 0,-373 -4,0 0,373 1,-3 2,5 1,-1 0,-1z" /><path style="fill:#000" d="M563,416 l-1,2 104,-41 -2,-5 -104,42 -1,2 1,-2 -1,1 0,1z" /><path style="fill:#000" d="M561,999 l2,-3 0,-580 -4,0 0,580 2,-2 0,5 2,0 0,-3z" /><path style="fill:#000" d="M103,996 l2,3 456,0 0,-5 -456,0 3,2 -5,0 0,3 2,0z" /><path style="fill:#000" d="M105,418 l-2,-2 0,580 5,0 0,-580 -2,-2 2,2 0,-1 -2,-1z" /><path style="fill:#000;stroke:#4c4c4c;stroke-width:2" d="M121,343 l425,0 0,612 -425,0 0,-612z" /><path style="fill:#000;stroke:#4c4c4c;stroke-width:2" d="M23,23 l621,0 0,310 -621,0 0,-310z" /><path style="fill:#9cc;stroke:#4c4c4c;stroke-width:2" d="M74,313 l518,0 0,-218 -518,0 0,218z" /><path style="fill:none;stroke:#7f7f7f;stroke-width:2" d="M22,323 l622,0" /><path style="fill:#fff;stroke:#4c4c4c;stroke-width:2" d="M157,435 l60,0 0,60 -60,0 0,-60z" /><path style="fill:#fff;stroke:#4c4c4c;stroke-width:2" d="M157,506 l60,0 0,60 -60,0 0,-60z" /><path style="fill:#fff;stroke:#4c4c4c;stroke-width:2" d="M157,578 l60,0 0,60 -60,0 0,-60z" /><path style="fill:#ccc;stroke:#4c4c4c;stroke-width:2" d="M157,649 l60,0 0,60 -60,0 0,-60z" /><path style="fill:#ccc;stroke:#4c4c4c;stroke-width:2" d="M157,721 l60,0 0,60 -60,0 0,-60z" /><path style="fill:#ccc;stroke:#4c4c4c;stroke-width:2" d="M157,793 l60,0 0,59 -60,0 0,-59z" /><path style="fill:#00f;stroke:#4c4c4c;stroke-width:2" d="M157,864 l60,0 0,60 -60,0 0,-60z" /><path style="fill:#fff;stroke:#4c4c4c;stroke-width:2" d="M229,435 l60,0 0,60 -60,0 0,-60z" /><path style="fill:#fff;stroke:#4c4c4c;stroke-width:2" d="M229,506 l60,0 0,60 -60,0 0,-60z" /><path style="fill:#fff;stroke:#4c4c4c;stroke-width:2" d="M229,578 l60,0 0,60 -60,0 0,-60z" /><path style="fill:#ccc;stroke:#4c4c4c;stroke-width:2" d="M229,649 l60,0 0,60 -60,0 0,-60z" /><path style="fill:#ccc;stroke:#4c4c4c;stroke-width:2" d="M229,721 l60,0 0,60 -60,0 0,-60z" /><path style="fill:#ccc;stroke:#4c4c4c;stroke-width:2" d="M229,793 l60,0 0,59 -60,0 0,-59z" /><path style="fill:#fff;stroke:#4c4c4c;stroke-width:2" d="M301,435 l60,0 0,60 -60,0 0,-60z" /><path style="fill:#fff;stroke:#4c4c4c;stroke-width:2" d="M301,506 l60,0 0,60 -60,0 0,-60z" /><path style="fill:#fff;stroke:#4c4c4c;stroke-width:2" d="M301,578 l60,0 0,60 -60,0 0,-60z" /><path style="fill:#ccc;stroke:#4c4c4c;stroke-width:2" d="M301,649 l60,0 0,60 -60,0 0,-60z" /><path style="fill:#ccc;stroke:#4c4c4c;stroke-width:2" d="M301,721 l60,0 0,60 -60,0 0,-60z" /><path style="fill:#ccc;stroke:#4c4c4c;stroke-width:2" d="M301,793 l60,0 0,59 -60,0 0,-59z" /><path style="fill:#fff;stroke:#4c4c4c;stroke-width:2" d="M373,435 l60,0 0,60 -60,0 0,-60z" /><path style="fill:#fff;stroke:#4c4c4c;stroke-width:2" d="M373,506 l60,0 0,60 -60,0 0,-60z" /><path style="fill:#fff;stroke:#4c4c4c;stroke-width:2" d="M373,578 l60,0 0,60 -60,0 0,-60z" /><path style="fill:#fff;stroke:#4c4c4c;stroke-width:2" d="M373,649 l60,0 0,60 -60,0 0,-60z" /><path style="fill:#fff;stroke:#4c4c4c;stroke-width:2" d="M373,721 l60,0 0,60 -60,0 0,-60z" /><path style="fill:#fff;stroke:#4c4c4c;stroke-width:2" d="M444,435 l60,0 0,60 -60,0 0,-60z" /><path style="fill:#fff;stroke:#4c4c4c;stroke-width:2" d="M444,506 l60,0 0,60 -60,0 0,-60z" /><path style="fill:#fff;stroke:#4c4c4c;stroke-width:2" d="M444,578 l60,0 0,60 -60,0 0,-60z" /><path style="fill:#fff;stroke:#4c4c4c;stroke-width:2" d="M444,649 l60,0 0,60 -60,0 0,-60z" /><path style="fill:#fff;stroke:#4c4c4c;stroke-width:2" d="M444,721 l60,0 0,60 -60,0 0,-60z" /><path style="fill:#f00;stroke:#4c4c4c;stroke-width:2" d="M229,864 l132,0 0,60 -132,0 0,-60z" /><path style="fill:#00f;stroke:#4c4c4c;stroke-width:2" d="M251,354 l72,0 0,31 -72,0 0,-31z" /><path style="fill:#00f;stroke:#4c4c4c;stroke-width:2" d="M157,354 l73,0 0,31 -73,0 0,-31z" /><path style="fill:#00f;stroke:#4c4c4c;stroke-width:2" d="M437,354 l72,0 0,31 -72,0 0,-31z" /><path style="fill:#00f;stroke:#4c4c4c;stroke-width:2" d="M344,354 l72,0 0,31 -72,0 0,-31z" /><ellipse style="fill:#f00;stroke:#4c4c4c;stroke-width:2" cx="193" cy="410" rx="36" ry="15" /><path style="fill:#fff;stroke:#4c4c4c;stroke-width:2" d="M420,834 l20,-40 20,40 -40,0z" /><path style="fill:#fff;stroke:#4c4c4c;stroke-width:2" d="M460,884 l-20,40 -20,-40 40,0z" /><path style="fill:#fff;stroke:#4c4c4c;stroke-width:2" d="M415,879 l-40,-20 40,-20 0,40z" /><path style="fill:#fff;stroke:#4c4c4c;stroke-width:2" d="M464,839 l40,20 -40,20 0,-40z" /><path style="fill:none;stroke:#f0f;stroke-width:2" d="M80,147 l507,0" /><path style="fill:none;stroke:#f0f;stroke-width:2" d="M80,292 l507,0" /><path style="fill:none;stroke:#f0f;stroke-width:2" d="M333,147 l0,-47" /><path style="fill:none;stroke:#f0f;stroke-width:2" d="M463,147 l0,-47" /><path style="fill:none;stroke:#f0f;stroke-width:2" d="M333,292 l0,15" /><path style="fill:none;stroke:#f0f;stroke-width:2" d="M193,292 l0,21" /><path style="fill:none;stroke:#f0f;stroke-width:2" d="M463,292 l0,15" /></svg>