<!DOCTYPE svg PUBLIC "-//W3C//DTD SVG 20000303 Stylable//EN" "http://www.w3.org/TR/2000/03/WD-SVG-20000303/DTD/svg-20000303-stylable.dtd"[]><svg xmlns="http://www.w3.org/2000/svg" width="999px" height="929px" viewBox="0 0 998 926"><path style="fill:#000;stroke:#4c4c4c;stroke-width:2" d="M344,715 l309,0 0,206 -309,0 0,-206z" /><path style="fill:#000;stroke:#4c4c4c;stroke-width:2" d="M684,478 l310,0 0,206 -310,0 0,-206z" /><path style="fill:#000;stroke:#4c4c4c;stroke-width:2" d="M344,478 l309,0 0,206 -309,0 0,-206z" /><path style="fill:#000;stroke:#4c4c4c;stroke-width:2" d="M4,478 l310,0 0,206 -310,0 0,-206z" /><path style="fill:#000;stroke:#4c4c4c;stroke-width:2" d="M4,241 l310,0 0,206 -310,0 0,-206z" /><path style="fill:#000;stroke:#4c4c4c;stroke-width:2" d="M344,241 l309,0 0,206 -309,0 0,-206z" /><path style="fill:#000;stroke:#4c4c4c;stroke-width:2" d="M684,241 l309,0 0,206 -309,0 0,-206z" /><path style="fill:#000;stroke:#4c4c4c;stroke-width:2" d="M684,4 l309,0 0,206 -309,0 0,-206z" /><path style="fill:#000;stroke:#4c4c4c;stroke-width:2" d="M344,4 l309,0 0,206 -309,0 0,-206z" /><path style="fill:#000;stroke:#4c4c4c;stroke-width:2" d="M4,4 l310,0 0,206 -310,0 0,-206z" /><path style="fill:#fff;stroke:#4c4c4c;stroke-width:2" d="M344,921 l13,-13 284,-180 12,-13 -309,0 0,206z" /><path style="fill:#fff;stroke:#4c4c4c;stroke-width:2" d="M684,684 l13,-13 284,-180 13,-13 -310,0 0,206z" /><path style="fill:#fff;stroke:#4c4c4c;stroke-width:2" d="M344,684 l13,-13 284,-180 12,-13 -309,0 0,206z" /><path style="fill:#fff;stroke:#4c4c4c;stroke-width:2" d="M4,684 l13,-13 284,-180 13,-13 -310,0 0,206z" /><path style="fill:#fff;stroke:#4c4c4c;stroke-width:2" d="M4,447 l13,-12 284,-181 13,-13 -310,0 0,206z" /><path style="fill:#fff;stroke:#4c4c4c;stroke-width:2" d="M344,447 l13,-12 284,-181 12,-13 -309,0 0,206z" /><path style="fill:#fff;stroke:#4c4c4c;stroke-width:2" d="M684,447 l13,-12 283,-181 13,-13 -309,0 0,206z" /><path style="fill:#fff;stroke:#4c4c4c;stroke-width:2" d="M684,210 l13,-12 283,-181 13,-13 -309,0 0,206z" /><path style="fill:#fff;stroke:#4c4c4c;stroke-width:2" d="M344,210 l13,-12 284,-181 12,-13 -309,0 0,206z" /><path style="fill:#fff;stroke:#4c4c4c;stroke-width:2" d="M4,210 l13,-12 284,-181 13,-13 -310,0 0,206z" /><path style="fill:#090;stroke:#4c4c4c;stroke-width:2" d="M684,715 l309,0 0,206 -309,0 0,-206z" /><path style="fill:#bfffbf;stroke:#4c4c4c;stroke-width:2" d="M684,921 l13,-13 283,-180 13,-13 -309,0 0,206z" /><path style="fill:#0f0;stroke:#090;stroke-width:2" d="M697,728 l283,0 0,180 -283,0 0,-180z" /><path style="fill:#e5e5e5;stroke:#7f7f7f;stroke-width:2" d="M697,491 l284,0 0,180 -284,0 0,-180z" /><path style="fill:#e5e5e5;stroke:#7f7f7f;stroke-width:2" d="M697,254 l283,0 0,181 -283,0 0,-181z" /><path style="fill:#e5e5e5;stroke:#7f7f7f;stroke-width:2" d="M697,17 l283,0 0,181 -283,0 0,-181z" /><path style="fill:#e5e5e5;stroke:#7f7f7f;stroke-width:2" d="M357,17 l284,0 0,181 -284,0 0,-181z" /><path style="fill:#e5e5e5;stroke:#7f7f7f;stroke-width:2" d="M357,254 l284,0 0,181 -284,0 0,-181z" /><path style="fill:#e5e5e5;stroke:#7f7f7f;stroke-width:2" d="M357,491 l284,0 0,180 -284,0 0,-180z" /><path style="fill:#e5e5e5;stroke:#7f7f7f;stroke-width:2" d="M357,728 l284,0 0,180 -284,0 0,-180z" /><path style="fill:#e5e5e5;stroke:#7f7f7f;stroke-width:2" d="M17,491 l284,0 0,180 -284,0 0,-180z" /><path style="fill:#e5e5e5;stroke:#7f7f7f;stroke-width:2" d="M17,254 l284,0 0,181 -284,0 0,-181z" /><path style="fill:#e5e5e5;stroke:#7f7f7f;stroke-width:2" d="M17,17 l284,0 0,181 -284,0 0,-181z" /><path style="fill:#7f0000;stroke:#4c4c4c;stroke-width:2" d="M4,715 l310,0 0,206 -310,0 0,-206z" /><path style="fill:#ffbfbf;stroke:#4c4c4c;stroke-width:2" d="M4,921 l13,-13 284,-180 13,-13 -310,0 0,206z" /><path style="fill:#f00;stroke:#7f0000;stroke-width:2" d="M17,728 l284,0 0,180 -284,0 0,-180z" /></svg>