<!DOCTYPE svg PUBLIC "-//W3C//DTD SVG 20000303 Stylable//EN" "http://www.w3.org/TR/2000/03/WD-SVG-20000303/DTD/svg-20000303-stylable.dtd"[]><svg xmlns="http://www.w3.org/2000/svg" width="645px" height="999px" viewBox="0 0 623 999"><path style="fill:#ccc" d="M40,40 l543,0 0,915 -543,0 0,-915z" /><path style="fill:#999" d="M0,999 l40,-44 543,0 0,-915 40,-40 0,999 -623,0z" /><path style="fill:#e5e5e5" d="M623,0 l-40,40 -540,0 0,915 -43,44 0,-999 623,0z" /><path style="fill:none;stroke:#4c4c4c;stroke-width:2" d="M0,0 l623,0 0,999 -623,0 0,-999" /><circle style="fill:#ccc;stroke:#4c4c4c;stroke-width:2" cx="311" cy="249" r="20" /><path style="fill:#666;stroke:#4c4c4c;stroke-width:2" d="M291,245 l43,0 0,8 -43,0 0,-8z" /><circle style="fill:#ccc;stroke:#4c4c4c;stroke-width:2" cx="311" cy="748" r="20" /><path style="fill:#666;stroke:#4c4c4c;stroke-width:2" d="M291,745 l43,0 0,8 -43,0 0,-8z" /><path style="fill:#ccc;stroke:#4c4c4c;stroke-width:2" d="M270,394 l83,0 0,208 -83,0 0,-208z" /><path style="fill:#666;stroke:#4c4c4c;stroke-width:2" d="M275,399 l73,0 0,200 -73,0 0,-200z" /><path style="fill:#e5e5e5" d="M302,415 l62,0 0,-51 -62,0 0,51z" /><path style="fill:#b2b2b2" d="M280,488 l19,-73 65,0 -22,73 -62,0z" /><path style="fill:#b2b2b2" d="M280,488 l62,0 0,89 -62,0 0,-89z" /><path style="fill:#7f7f7f" d="M280,588 l62,0 0,-11 -62,0 0,11z" /><path style="fill:#ccc" d="M302,364 l-22,84 0,40 22,-73 0,-51z" /><path style="fill:none;stroke:#4c4c4c;stroke-width:2" d="M280,448 l0,140 62,0 0,-100 22,-73 0,-51 -62,0 -22,84" /><path style="fill:none;stroke:#4c4c4c;stroke-width:2" d="M280,488 l62,0" /></svg>