<!DOCTYPE svg PUBLIC "-//W3C//DTD SVG 20000303 Stylable//EN" "http://www.w3.org/TR/2000/03/WD-SVG-20000303/DTD/svg-20000303-stylable.dtd"[]><svg xmlns="http://www.w3.org/2000/svg" width="999px" height="363px" viewBox="0 0 999 329"><path style="fill:#ccc;stroke:#4c4c4c;stroke-width:2" d="M2,326 l0,-324 994,0 0,324 -994,0z" /><path style="fill:#666" d="M48,14 l-2,5 8,15 -8,16 -19,0 -2,5 23,0 11,-21 -11,-20z" /><path style="fill:#666" d="M48,274 l-2,5 8,15 -8,16 -19,0 -2,5 23,0 11,-21 -11,-20z" /><path style="fill:#666" d="M973,14 l-3,5 9,15 -9,16 -18,0 -2,5 23,0 11,-21 -11,-20z" /><path style="fill:#666" d="M973,274 l-3,5 9,15 -9,16 -18,0 -2,5 23,0 11,-21 -11,-20z" /><path style="fill:#666" d="M510,14 l-2,5 8,15 -8,16 -18,0 -2,5 22,0 11,-21 -11,-20z" /><path style="fill:#666" d="M510,274 l-2,5 8,15 -8,16 -18,0 -2,5 22,0 11,-21 -11,-20z" /><path style="fill:#fff" d="M950,55 l2,-5 -8,-16 8,-15 18,0 3,-5 -23,0 -12,20 12,21z" /><path style="fill:#fff" d="M950,315 l2,-5 -8,-16 8,-15 18,0 3,-5 -23,0 -12,20 12,21z" /><path style="fill:#fff" d="M488,55 l2,-5 -8,-16 8,-15 18,0 2,-5 -22,0 -12,20 12,21z" /><path style="fill:#fff" d="M488,315 l2,-5 -8,-16 8,-15 18,0 2,-5 -22,0 -12,20 12,21z" /><path style="fill:#fff" d="M25,55 l2,-5 -8,-16 8,-15 19,0 2,-5 -23,0 -11,20 11,21z" /><path style="fill:#fff" d="M25,315 l2,-5 -8,-16 8,-15 19,0 2,-5 -23,0 -11,20 11,21z" /><path style="fill:#4c4c4c" d="M59,268 l0,-208 879,0 0,208 -879,0z" /><path style="fill:#000" d="M59,268 l19,-17 0,-174 843,0 17,-17 -879,0 0,208z" /><path style="fill:#7f7f7f" d="M939,60 l-18,17 0,174 -844,0 -18,17 880,0 0,-208z" /><path style="fill:none;stroke:#fff;stroke-width:2" d="M59,268 l879,0 0,-208" /></svg>