<!DOCTYPE svg PUBLIC "-//W3C//DTD SVG 20000303 Stylable//EN" "http://www.w3.org/TR/2000/03/WD-SVG-20000303/DTD/svg-20000303-stylable.dtd"[]><svg xmlns="http://www.w3.org/2000/svg" width="999px" height="560px" viewBox="0 0 999 536"><path style="fill:#ccc;stroke:#4c4c4c;stroke-width:2" d="M2,534 l0,-532 994,0 0,532 -994,0z" /><path style="fill:#4c4c4c" d="M60,476 l0,-416 878,0 0,416 -878,0z" /><path style="fill:#000" d="M60,476 l17,-17 0,-382 844,0 17,-17 -878,0 0,416z" /><path style="fill:#7f7f7f" d="M938,60 l-17,17 0,382 -844,0 -17,17 878,0 0,-416z" /><path style="fill:none;stroke:#fff;stroke-width:2" d="M60,476 l878,0 0,-416" /><path style="fill:#fff" d="M950,522 l2,-5 -8,-15 8,-16 18,0 3,-4 -23,0 -12,20 12,20z" /><path style="fill:#fff" d="M950,54 l2,-5 -8,-15 8,-15 18,0 3,-5 -23,0 -12,20 12,20z" /><path style="fill:#fff" d="M488,522 l2,-5 -8,-15 8,-16 18,0 3,-4 -23,0 -12,20 12,20z" /><path style="fill:#fff" d="M488,54 l2,-5 -8,-15 8,-15 18,0 3,-5 -23,0 -12,20 12,20z" /><path style="fill:#fff" d="M25,522 l3,-5 -9,-15 9,-16 18,0 2,-4 -23,0 -11,20 11,20z" /><path style="fill:#fff" d="M25,54 l3,-5 -9,-15 9,-15 18,0 2,-5 -23,0 -11,20 11,20z" /><path style="fill:#666" d="M973,482 l-3,4 9,16 -9,15 -18,0 -2,5 23,0 11,-20 -11,-20z" /><path style="fill:#666" d="M973,14 l-3,5 9,15 -9,15 -18,0 -2,5 23,0 11,-20 -11,-20z" /><path style="fill:#666" d="M511,482 l-3,4 8,16 -8,15 -18,0 -2,5 23,0 11,-20 -11,-20z" /><path style="fill:#666" d="M511,14 l-3,5 8,15 -8,15 -18,0 -2,5 23,0 11,-20 -11,-20z" /><path style="fill:#666" d="M48,482 l-2,4 8,16 -8,15 -18,0 -3,5 23,0 12,-20 -12,-20z" /><path style="fill:#666" d="M48,14 l-2,5 8,15 -8,15 -18,0 -3,5 23,0 12,-20 -12,-20z" /></svg>