<!DOCTYPE svg PUBLIC "-//W3C//DTD SVG 20000303 Stylable//EN" "http://www.w3.org/TR/2000/03/WD-SVG-20000303/DTD/svg-20000303-stylable.dtd"[]><svg xmlns="http://www.w3.org/2000/svg" width="999px" height="999px" viewBox="0 0 999 999"><path style="fill:#000;stroke:#4c4c4c;stroke-width:2" d="M0,0 l998,0 0,999 -998,0 0,-999z" /><path style="fill:#ccc;stroke:#4c4c4c;stroke-width:2" d="M10,988 l978,-978 11,-10 -999,0 0,998 10,-10z" /><path style="fill:#7f7f7f;stroke:#4c4c4c;stroke-width:2" d="M10,10 l978,0 0,977 -978,0 0,-977z" /><path style="fill:none;stroke:#fff;stroke-width:2" d="M93,103 l635,0 0,489 -635,0 0,-489" /><path style="fill:#4c4c4c;stroke:#4c4c4c;stroke-width:2" d="M93,592 l10,-10 615,-468 10,-11 -635,0 0,489z" /><path style="fill:#000;stroke:#4c4c4c;stroke-width:2" d="M103,114 l615,0 0,468 -615,0 0,-468z" /><path style="fill:none;stroke:#fff;stroke-width:2" d="M270,395 l187,-188" /><path style="fill:none;stroke:#fff;stroke-width:2" d="M280,488 l260,-260" /><path style="fill:none;stroke:#fff;stroke-width:2" d="M415,457 l94,-94" /><path style="fill:none;stroke:#fff;stroke-width:2" d="M218,322 l145,-146" /><path style="fill:#e5e5e5" d="M738,145 l167,0 0,83 -167,0 0,-83z" /><path style="fill:#7f7f7f" d="M907,145 l-2,-2 -167,0 0,4 167,0 -2,-2 4,0 0,-2 -2,0z" /><path style="fill:#7f7f7f" d="M905,231 l2,-3 0,-83 -4,0 0,83 2,-2 0,5 2,0 0,-3z" /><path style="fill:#7f7f7f" d="M736,228 l2,3 167,0 0,-5 -167,0 3,2 -5,0 0,3 2,0z" /><path style="fill:#7f7f7f" d="M738,143 l-2,2 0,83 5,0 0,-83 -3,2 0,-4 -2,0 0,2z" /><path style="fill:#e5e5e5" d="M738,228 l167,0 0,84 -167,0 0,-84z" /><path style="fill:#7f7f7f" d="M907,228 l-2,-2 -167,0 0,5 167,0 -2,-3 4,0 0,-2 -2,0z" /><path style="fill:#7f7f7f" d="M905,314 l2,-2 0,-84 -4,0 0,84 2,-3 0,5 2,0 0,-2z" /><path style="fill:#7f7f7f" d="M736,312 l2,2 167,0 0,-5 -167,0 3,3 -5,0 0,2 2,0z" /><path style="fill:#7f7f7f" d="M738,226 l-2,2 0,84 5,0 0,-84 -3,3 0,-5 -2,0 0,2z" /><path style="fill:#e5e5e5" d="M738,312 l167,0 0,83 -167,0 0,-83z" /><path style="fill:#7f7f7f" d="M907,312 l-2,-3 -167,0 0,5 167,0 -2,-2 4,0 0,-3 -2,0z" /><path style="fill:#7f7f7f" d="M905,397 l2,-2 0,-83 -4,0 0,83 2,-3 0,5 2,0 0,-2z" /><path style="fill:#7f7f7f" d="M736,395 l2,2 167,0 0,-5 -167,0 3,3 -5,0 0,2 2,0z" /><path style="fill:#7f7f7f" d="M738,309 l-2,3 0,83 5,0 0,-83 -3,2 0,-5 -2,0 0,3z" /><path style="fill:#e5e5e5" d="M738,395 l167,0 0,83 -167,0 0,-83z" /><path style="fill:#7f7f7f" d="M907,395 l-2,-3 -167,0 0,5 167,0 -2,-2 4,0 0,-3 -2,0z" /><path style="fill:#7f7f7f" d="M905,480 l2,-2 0,-83 -4,0 0,83 2,-2 0,4 2,0 0,-2z" /><path style="fill:#7f7f7f" d="M736,478 l2,2 167,0 0,-4 -167,0 3,2 -5,0 0,2 2,0z" /><path style="fill:#7f7f7f" d="M738,392 l-2,3 0,83 5,0 0,-83 -3,2 0,-5 -2,0 0,3z" /><path style="fill:#e5e5e5" d="M738,478 l167,0 0,83 -167,0 0,-83z" /><path style="fill:#7f7f7f" d="M907,478 l-2,-2 -167,0 0,4 167,0 -2,-2 4,0 0,-2 -2,0z" /><path style="fill:#7f7f7f" d="M905,564 l2,-3 0,-83 -4,0 0,83 2,-2 0,5 2,0 0,-3z" /><path style="fill:#7f7f7f" d="M736,561 l2,3 167,0 0,-5 -167,0 3,2 -5,0 0,3 2,0z" /><path style="fill:#7f7f7f" d="M738,476 l-2,2 0,83 5,0 0,-83 -3,2 0,-4 -2,0 0,2z" /><circle style="fill:#7f7f7f" cx="863" cy="186" r="31" /><path style="fill:#000" d="M897,186 l0,-3 -1,-3 -1,-4 -1,-3 -1,-3 -2,-2 -2,-3 -2,-2 -2,-2 -3,-2 -3,-2 -3,-1 -3,-1 -3,-1 -3,-1 -4,0 0,5 3,0 3,0 3,1 2,1 3,1 2,2 3,1 2,2 2,2 1,2 2,3 1,2 1,3 1,3 0,2 0,3z" /><path style="fill:#000" d="M863,220 l4,0 3,-1 3,0 3,-2 3,-1 3,-2 3,-2 2,-2 2,-2 2,-3 2,-2 1,-3 1,-4 1,-3 1,-3 0,-4 -5,0 0,3 0,3 -1,3 -1,3 -1,2 -2,3 -1,2 -2,2 -2,2 -3,1 -2,2 -3,1 -2,1 -3,1 -3,0 -3,0z" /><path style="fill:#000" d="M830,186 l0,4 1,3 0,3 1,4 2,3 1,2 2,3 3,2 2,2 3,2 2,2 3,1 3,2 3,0 4,1 3,0 0,-5 -3,0 -3,0 -2,-1 -3,-1 -2,-1 -3,-2 -2,-1 -2,-2 -2,-2 -2,-2 -1,-3 -1,-2 -1,-3 -1,-3 0,-3 -1,-3z" /><path style="fill:#000" d="M863,153 l-3,0 -4,1 -3,1 -3,1 -3,1 -2,2 -3,2 -2,2 -3,2 -2,3 -1,2 -2,3 -1,3 0,4 -1,3 0,3 4,0 1,-3 0,-2 1,-3 1,-3 1,-2 1,-3 2,-2 2,-2 2,-2 2,-1 3,-2 2,-1 3,-1 2,-1 3,0 3,0z" /><circle style="fill:#7f7f7f" cx="863" cy="270" r="31" /><path style="fill:#000" d="M897,270 l0,-4 -1,-3 -1,-3 -1,-3 -1,-3 -2,-3 -2,-3 -2,-2 -2,-2 -3,-2 -3,-2 -3,-1 -3,-1 -3,-1 -3,-1 -4,0 0,5 3,0 3,1 3,0 2,1 3,1 2,2 3,2 2,1 2,2 1,3 2,2 1,3 1,2 1,3 0,3 0,3z" /><path style="fill:#000" d="M863,303 l4,0 3,0 3,-1 3,-1 3,-2 3,-1 3,-2 2,-2 2,-3 2,-2 2,-3 1,-3 1,-3 1,-3 1,-4 0,-3 -5,0 0,3 0,3 -1,2 -1,3 -1,3 -2,2 -1,2 -2,2 -2,2 -3,2 -2,1 -3,1 -2,2 -3,0 -3,1 -3,0z" /><path style="fill:#000" d="M830,270 l0,3 1,4 0,3 1,3 2,3 1,3 2,2 3,3 2,2 3,2 2,1 3,2 3,1 3,1 4,0 3,0 0,-4 -3,0 -3,-1 -2,0 -3,-2 -2,-1 -3,-1 -2,-2 -2,-2 -2,-2 -2,-2 -1,-2 -1,-3 -1,-3 -1,-2 0,-3 -1,-3z" /><path style="fill:#000" d="M863,236 l-3,0 -4,1 -3,1 -3,1 -3,1 -2,2 -3,2 -2,2 -3,2 -2,3 -1,3 -2,3 -1,3 0,3 -1,3 0,4 4,0 1,-3 0,-3 1,-3 1,-2 1,-3 1,-2 2,-3 2,-2 2,-1 2,-2 3,-2 2,-1 3,-1 2,0 3,-1 3,0z" /><circle style="fill:#7f7f7f" cx="863" cy="353" r="31" /><path style="fill:#000" d="M897,353 l0,-3 -1,-4 -1,-3 -1,-3 -1,-3 -2,-3 -2,-2 -2,-3 -2,-2 -3,-2 -3,-1 -3,-2 -3,-1 -3,-1 -3,0 -4,0 0,4 3,0 3,1 3,0 2,2 3,1 2,1 3,2 2,2 2,2 1,2 2,2 1,3 1,2 1,3 0,3 0,3z" /><path style="fill:#000" d="M863,387 l4,-1 3,0 3,-1 3,-1 3,-2 3,-1 3,-2 2,-2 2,-3 2,-2 2,-3 1,-3 1,-3 1,-3 1,-4 0,-3 -5,0 0,3 0,3 -1,3 -1,2 -1,3 -2,2 -1,2 -2,2 -2,2 -3,2 -2,1 -3,2 -2,1 -3,0 -3,1 -3,0z" /><path style="fill:#000" d="M830,353 l0,3 1,4 0,3 1,3 2,3 1,3 2,2 3,3 2,2 3,2 2,1 3,2 3,1 3,1 4,0 3,1 0,-5 -3,0 -3,-1 -2,0 -3,-1 -2,-2 -3,-1 -2,-2 -2,-2 -2,-2 -2,-2 -1,-2 -1,-3 -1,-2 -1,-3 0,-3 -1,-3z" /><path style="fill:#000" d="M863,320 l-3,0 -4,0 -3,1 -3,1 -3,2 -2,1 -3,2 -2,2 -3,3 -2,2 -1,3 -2,3 -1,3 0,3 -1,4 0,3 4,0 1,-3 0,-3 1,-3 1,-2 1,-3 1,-2 2,-2 2,-2 2,-2 2,-2 3,-1 2,-1 3,-2 2,0 3,-1 3,0z" /><circle style="fill:#7f7f7f" cx="863" cy="436" r="31" /><path style="fill:#000" d="M897,436 l0,-3 -1,-4 -1,-3 -1,-3 -1,-3 -2,-2 -2,-3 -2,-2 -2,-3 -3,-2 -3,-1 -3,-2 -3,-1 -3,-1 -3,0 -4,0 0,4 3,1 3,0 3,1 2,1 3,1 2,1 3,2 2,2 2,2 1,2 2,3 1,2 1,3 1,2 0,3 0,3z" /><path style="fill:#000" d="M863,470 l4,0 3,-1 3,-1 3,-1 3,-1 3,-2 3,-2 2,-2 2,-2 2,-3 2,-3 1,-3 1,-3 1,-3 1,-3 0,-4 -5,0 0,3 0,3 -1,3 -1,2 -1,3 -2,2 -1,3 -2,2 -2,2 -3,1 -2,2 -3,1 -2,1 -3,1 -3,0 -3,0z" /><path style="fill:#000" d="M830,436 l0,4 1,3 0,3 1,3 2,3 1,3 2,3 3,2 2,2 3,2 2,2 3,1 3,1 3,1 4,1 3,0 0,-5 -3,0 -3,0 -2,-1 -3,-1 -2,-1 -3,-2 -2,-1 -2,-2 -2,-2 -2,-3 -1,-2 -1,-3 -1,-2 -1,-3 0,-3 -1,-3z" /><path style="fill:#000" d="M863,403 l-3,0 -4,0 -3,1 -3,1 -3,2 -2,1 -3,2 -2,3 -3,2 -2,3 -1,2 -2,3 -1,3 0,3 -1,4 0,3 4,0 1,-3 0,-3 1,-2 1,-3 1,-2 1,-3 2,-2 2,-2 2,-2 2,-2 3,-1 2,-1 3,-1 2,-1 3,0 3,-1z" /><circle style="fill:#7f7f7f" cx="863" cy="519" r="31" /><path style="fill:#000" d="M897,519 l0,-3 -1,-3 -1,-4 -1,-3 -1,-3 -2,-2 -2,-3 -2,-2 -2,-2 -3,-2 -3,-2 -3,-1 -3,-1 -3,-1 -3,-1 -4,0 0,5 3,0 3,0 3,1 2,1 3,1 2,2 3,1 2,2 2,2 1,2 2,3 1,2 1,3 1,3 0,2 0,3z" /><path style="fill:#000" d="M863,553 l4,0 3,-1 3,0 3,-2 3,-1 3,-2 3,-2 2,-2 2,-2 2,-3 2,-2 1,-3 1,-4 1,-3 1,-3 0,-4 -5,0 0,3 0,3 -1,3 -1,3 -1,2 -2,3 -1,2 -2,2 -2,2 -3,1 -2,2 -3,1 -2,1 -3,1 -3,0 -3,0z" /><path style="fill:#000" d="M830,519 l0,4 1,3 0,3 1,4 2,3 1,2 2,3 3,2 2,2 3,2 2,2 3,1 3,2 3,0 4,1 3,0 0,-5 -3,0 -3,0 -2,-1 -3,-1 -2,-1 -3,-2 -2,-1 -2,-2 -2,-2 -2,-2 -1,-3 -1,-2 -1,-3 -1,-3 0,-3 -1,-3z" /><path style="fill:#000" d="M863,486 l-3,0 -4,1 -3,1 -3,1 -3,1 -2,2 -3,2 -2,2 -3,2 -2,3 -1,2 -2,3 -1,3 0,4 -1,3 0,3 4,0 1,-3 0,-2 1,-3 1,-3 1,-2 1,-3 2,-2 2,-2 2,-2 2,-1 3,-2 2,-1 3,-1 2,-1 3,0 3,0z" /><path style="fill:#b2b2b2;stroke:#fff;stroke-width:2" d="M93,655 l812,0 0,260 -812,0 0,-260z" /><path style="fill:#4c4c4c;stroke:#4c4c4c;stroke-width:2" d="M93,915 l10,-10 791,-240 11,-10 -812,0 0,260z" /><path style="fill:#7f7f7f;stroke:#4c4c4c;stroke-width:2" d="M103,665 l792,0 0,240 -792,0 0,-240z" /><path style="fill:#b2b2b2;stroke:#4c4c4c;stroke-width:2" d="M114,676 l100,0 0,72 -100,0 0,-72z" /><path style="fill:#b2b2b2;stroke:#4c4c4c;stroke-width:2" d="M214,676 l100,0 0,72 -100,0 0,-72z" /><path style="fill:#b2b2b2;stroke:#4c4c4c;stroke-width:2" d="M314,676 l100,0 0,72 -100,0 0,-72z" /><path style="fill:#b2b2b2;stroke:#4c4c4c;stroke-width:2" d="M414,676 l100,0 0,72 -100,0 0,-72z" /><path style="fill:#b2b2b2;stroke:#4c4c4c;stroke-width:2" d="M514,676 l100,0 0,72 -100,0 0,-72z" /><path style="fill:#b2b2b2;stroke:#4c4c4c;stroke-width:2" d="M114,749 l100,0 0,72 -100,0 0,-72z" /><path style="fill:#b2b2b2;stroke:#4c4c4c;stroke-width:2" d="M214,749 l100,0 0,72 -100,0 0,-72z" /><path style="fill:#b2b2b2;stroke:#4c4c4c;stroke-width:2" d="M314,749 l100,0 0,72 -100,0 0,-72z" /><path style="fill:#b2b2b2;stroke:#4c4c4c;stroke-width:2" d="M414,749 l100,0 0,72 -100,0 0,-72z" /><path style="fill:#b2b2b2;stroke:#4c4c4c;stroke-width:2" d="M514,749 l100,0 0,72 -100,0 0,-72z" /><path style="fill:#b2b2b2;stroke:#4c4c4c;stroke-width:2" d="M114,821 l100,0 0,73 -100,0 0,-73z" /><path style="fill:#b2b2b2;stroke:#4c4c4c;stroke-width:2" d="M214,821 l100,0 0,73 -100,0 0,-73z" /><path style="fill:#b2b2b2;stroke:#4c4c4c;stroke-width:2" d="M314,821 l100,0 0,73 -100,0 0,-73z" /><path style="fill:#b2b2b2;stroke:#4c4c4c;stroke-width:2" d="M414,821 l100,0 0,73 -100,0 0,-73z" /><path style="fill:#b2b2b2;stroke:#4c4c4c;stroke-width:2" d="M514,821 l100,0 0,73 -100,0 0,-73z" /><path style="fill:#006;stroke:#4c4c4c;stroke-width:2" d="M634,676 l94,0 0,218 -94,0 0,-218z" /><path style="fill:#e5e5e5;stroke:#4c4c4c;stroke-width:2" d="M749,676 l45,0 0,54 -45,0 0,-54z" /><path style="fill:#e5e5e5;stroke:#4c4c4c;stroke-width:2" d="M749,730 l45,0 0,55 -45,0 0,-55z" /><path style="fill:#e5e5e5;stroke:#4c4c4c;stroke-width:2" d="M749,785 l45,0 0,54 -45,0 0,-54z" /><path style="fill:#e5e5e5;stroke:#4c4c4c;stroke-width:2" d="M749,840 l45,0 0,54 -45,0 0,-54z" /><path style="fill:#e5e5e5;stroke:#4c4c4c;stroke-width:2" d="M794,676 l45,0 0,54 -45,0 0,-54z" /><path style="fill:#e5e5e5;stroke:#4c4c4c;stroke-width:2" d="M794,730 l45,0 0,55 -45,0 0,-55z" /><path style="fill:#e5e5e5;stroke:#4c4c4c;stroke-width:2" d="M794,785 l45,0 0,54 -45,0 0,-54z" /><path style="fill:#e5e5e5;stroke:#4c4c4c;stroke-width:2" d="M794,840 l45,0 0,54 -45,0 0,-54z" /><path style="fill:#e5e5e5;stroke:#4c4c4c;stroke-width:2" d="M839,676 l45,0 0,54 -45,0 0,-54z" /><path style="fill:#e5e5e5;stroke:#4c4c4c;stroke-width:2" d="M839,730 l45,0 0,55 -45,0 0,-55z" /><path style="fill:#e5e5e5;stroke:#4c4c4c;stroke-width:2" d="M839,785 l45,0 0,54 -45,0 0,-54z" /><path style="fill:#e5e5e5;stroke:#4c4c4c;stroke-width:2" d="M839,840 l45,0 0,54 -45,0 0,-54z" /><ellipse style="fill:#7f7f7f;stroke:#fff;stroke-width:2" cx="771" cy="703" rx="16" ry="20" /><ellipse style="fill:#7f7f7f;stroke:#fff;stroke-width:2" cx="771" cy="757" rx="16" ry="20" /><ellipse style="fill:#7f7f7f;stroke:#fff;stroke-width:2" cx="771" cy="812" rx="16" ry="20" /><ellipse style="fill:#7f7f7f;stroke:#fff;stroke-width:2" cx="771" cy="867" rx="16" ry="20" /><ellipse style="fill:#7f7f7f;stroke:#fff;stroke-width:2" cx="816" cy="703" rx="16" ry="20" /><ellipse style="fill:#7f7f7f;stroke:#fff;stroke-width:2" cx="816" cy="757" rx="16" ry="20" /><ellipse style="fill:#7f7f7f;stroke:#fff;stroke-width:2" cx="816" cy="812" rx="16" ry="20" /><ellipse style="fill:#7f7f7f;stroke:#fff;stroke-width:2" cx="816" cy="867" rx="16" ry="20" /><ellipse style="fill:#7f7f7f;stroke:#fff;stroke-width:2" cx="862" cy="703" rx="17" ry="20" /><ellipse style="fill:#7f7f7f;stroke:#fff;stroke-width:2" cx="862" cy="757" rx="17" ry="20" /><ellipse style="fill:#7f7f7f;stroke:#fff;stroke-width:2" cx="862" cy="812" rx="17" ry="20" /><ellipse style="fill:#7f7f7f;stroke:#fff;stroke-width:2" cx="862" cy="867" rx="17" ry="20" /></svg>