<!DOCTYPE svg PUBLIC "-//W3C//DTD SVG 20000303 Stylable//EN" "http://www.w3.org/TR/2000/03/WD-SVG-20000303/DTD/svg-20000303-stylable.dtd"[]><svg xmlns="http://www.w3.org/2000/svg" width="999px" height="547px" viewBox="0 0 999 520"><path style="fill:#000;stroke:#4c4c4c;stroke-width:2" d="M0,0 l999,0 0,520 -999,0 0,-520z" /><path style="fill:#e5e5e5;stroke:#4c4c4c;stroke-width:2" d="M0,0 l999,0 -11,15 -978,494 -10,11 0,-520z" /><path style="fill:#7f7f7f;stroke:#4c4c4c;stroke-width:2" d="M10,10 l979,0 0,500 -979,0 0,-500z" /><path style="fill:#ccc;stroke:#7f7f7f;stroke-width:2" d="M41,93 l635,0 0,334 -635,0 0,-334z" /><path style="fill:#0f0;stroke:#4c4c4c;stroke-width:2" d="M83,139 l552,0 0,242 -552,0 0,-242z" /><path style="fill:#093;stroke:#0f0;stroke-width:2" d="M88,145 l38,0 0,54 -38,0 0,-54z" /><path style="fill:#093;stroke:#0f0;stroke-width:2" d="M130,145 l38,0 0,54 -38,0 0,-54z" /><path style="fill:#093;stroke:#0f0;stroke-width:2" d="M172,145 l38,0 0,54 -38,0 0,-54z" /><path style="fill:#093;stroke:#0f0;stroke-width:2" d="M214,145 l38,0 0,54 -38,0 0,-54z" /><path style="fill:#093;stroke:#0f0;stroke-width:2" d="M256,145 l38,0 0,54 -38,0 0,-54z" /><path style="fill:#093;stroke:#0f0;stroke-width:2" d="M298,145 l38,0 0,54 -38,0 0,-54z" /><path style="fill:#093;stroke:#0f0;stroke-width:2" d="M339,145 l38,0 0,54 -38,0 0,-54z" /><path style="fill:#093;stroke:#0f0;stroke-width:2" d="M382,145 l38,0 0,54 -38,0 0,-54z" /><path style="fill:#093;stroke:#0f0;stroke-width:2" d="M423,145 l38,0 0,54 -38,0 0,-54z" /><path style="fill:#093;stroke:#0f0;stroke-width:2" d="M465,145 l38,0 0,54 -38,0 0,-54z" /><path style="fill:#093;stroke:#0f0;stroke-width:2" d="M507,145 l38,0 0,54 -38,0 0,-54z" /><path style="fill:#093;stroke:#0f0;stroke-width:2" d="M549,145 l38,0 0,54 -38,0 0,-54z" /><path style="fill:#093;stroke:#0f0;stroke-width:2" d="M591,145 l38,0 0,54 -38,0 0,-54z" /><path style="fill:#093;stroke:#0f0;stroke-width:2" d="M88,203 l38,0 0,54 -38,0 0,-54z" /><path style="fill:#093;stroke:#0f0;stroke-width:2" d="M130,203 l38,0 0,54 -38,0 0,-54z" /><path style="fill:#093;stroke:#0f0;stroke-width:2" d="M172,203 l38,0 0,54 -38,0 0,-54z" /><path style="fill:#093;stroke:#0f0;stroke-width:2" d="M214,203 l38,0 0,54 -38,0 0,-54z" /><path style="fill:#093;stroke:#0f0;stroke-width:2" d="M256,203 l38,0 0,54 -38,0 0,-54z" /><path style="fill:#093;stroke:#0f0;stroke-width:2" d="M298,203 l38,0 0,54 -38,0 0,-54z" /><path style="fill:#093;stroke:#0f0;stroke-width:2" d="M340,203 l38,0 0,54 -38,0 0,-54z" /><path style="fill:#093;stroke:#0f0;stroke-width:2" d="M382,203 l38,0 0,54 -38,0 0,-54z" /><path style="fill:#093;stroke:#0f0;stroke-width:2" d="M423,203 l38,0 0,54 -38,0 0,-54z" /><path style="fill:#093;stroke:#0f0;stroke-width:2" d="M465,203 l38,0 0,54 -38,0 0,-54z" /><path style="fill:#093;stroke:#0f0;stroke-width:2" d="M507,203 l38,0 0,54 -38,0 0,-54z" /><path style="fill:#093;stroke:#0f0;stroke-width:2" d="M549,203 l38,0 0,54 -38,0 0,-54z" /><path style="fill:#093;stroke:#0f0;stroke-width:2" d="M591,203 l38,0 0,54 -38,0 0,-54z" /><path style="fill:#093;stroke:#0f0;stroke-width:2" d="M88,262 l38,0 0,54 -38,0 0,-54z" /><path style="fill:#093;stroke:#0f0;stroke-width:2" d="M130,262 l38,0 0,54 -38,0 0,-54z" /><path style="fill:#093;stroke:#0f0;stroke-width:2" d="M172,262 l38,0 0,54 -38,0 0,-54z" /><path style="fill:#093;stroke:#0f0;stroke-width:2" d="M214,262 l38,0 0,54 -38,0 0,-54z" /><path style="fill:#093;stroke:#0f0;stroke-width:2" d="M256,262 l38,0 0,54 -38,0 0,-54z" /><path style="fill:#093;stroke:#0f0;stroke-width:2" d="M298,262 l38,0 0,54 -38,0 0,-54z" /><path style="fill:#093;stroke:#0f0;stroke-width:2" d="M339,262 l38,0 0,54 -38,0 0,-54z" /><path style="fill:#093;stroke:#0f0;stroke-width:2" d="M382,262 l38,0 0,54 -38,0 0,-54z" /><path style="fill:#093;stroke:#0f0;stroke-width:2" d="M423,262 l38,0 0,54 -38,0 0,-54z" /><path style="fill:#093;stroke:#0f0;stroke-width:2" d="M465,262 l38,0 0,54 -38,0 0,-54z" /><path style="fill:#093;stroke:#0f0;stroke-width:2" d="M507,262 l38,0 0,54 -38,0 0,-54z" /><path style="fill:#093;stroke:#0f0;stroke-width:2" d="M549,262 l38,0 0,54 -38,0 0,-54z" /><path style="fill:#093;stroke:#0f0;stroke-width:2" d="M591,262 l38,0 0,54 -38,0 0,-54z" /><path style="fill:#093;stroke:#0f0;stroke-width:2" d="M88,321 l38,0 0,53 -38,0 0,-53z" /><path style="fill:#093;stroke:#0f0;stroke-width:2" d="M130,321 l38,0 0,53 -38,0 0,-53z" /><path style="fill:#093;stroke:#0f0;stroke-width:2" d="M172,321 l38,0 0,53 -38,0 0,-53z" /><path style="fill:#093;stroke:#0f0;stroke-width:2" d="M214,321 l38,0 0,53 -38,0 0,-53z" /><path style="fill:#093;stroke:#0f0;stroke-width:2" d="M256,321 l38,0 0,53 -38,0 0,-53z" /><path style="fill:#093;stroke:#0f0;stroke-width:2" d="M298,321 l38,0 0,53 -38,0 0,-53z" /><path style="fill:#093;stroke:#0f0;stroke-width:2" d="M340,321 l38,0 0,53 -38,0 0,-53z" /><path style="fill:#093;stroke:#0f0;stroke-width:2" d="M382,321 l38,0 0,53 -38,0 0,-53z" /><path style="fill:#093;stroke:#0f0;stroke-width:2" d="M423,321 l38,0 0,53 -38,0 0,-53z" /><path style="fill:#093;stroke:#0f0;stroke-width:2" d="M465,321 l38,0 0,53 -38,0 0,-53z" /><path style="fill:#093;stroke:#0f0;stroke-width:2" d="M507,321 l38,0 0,53 -38,0 0,-53z" /><path style="fill:#093;stroke:#0f0;stroke-width:2" d="M549,321 l38,0 0,53 -38,0 0,-53z" /><path style="fill:#093;stroke:#0f0;stroke-width:2" d="M591,321 l38,0 0,53 -38,0 0,-53z" /><path style="fill:#fff;stroke:#4c4c4c;stroke-width:2" d="M707,62 l250,0 0,396 -250,0 0,-396z" /><path style="fill:#0ff;stroke:#4c4c4c;stroke-width:2" d="M728,83 l94,0 0,62 -94,0 0,-62z" /><path style="fill:#0ff;stroke:#4c4c4c;stroke-width:2" d="M728,156 l94,0 0,62 -94,0 0,-62z" /><path style="fill:#e5e5e5;stroke:#4c4c4c;stroke-width:2" d="M728,229 l94,0 0,62 -94,0 0,-62z" /><path style="fill:#e5e5e5;stroke:#4c4c4c;stroke-width:2" d="M728,301 l94,0 0,63 -94,0 0,-63z" /><path style="fill:#e5e5e5;stroke:#4c4c4c;stroke-width:2" d="M728,374 l94,0 0,63 -94,0 0,-63z" /><path style="fill:#0ff;stroke:#4c4c4c;stroke-width:2" d="M842,83 l94,0 0,62 -94,0 0,-62z" /><path style="fill:#0ff;stroke:#4c4c4c;stroke-width:2" d="M842,156 l94,0 0,62 -94,0 0,-62z" /><path style="fill:#e5e5e5;stroke:#4c4c4c;stroke-width:2" d="M842,229 l94,0 0,62 -94,0 0,-62z" /><path style="fill:#e5e5e5;stroke:#4c4c4c;stroke-width:2" d="M842,301 l94,0 0,63 -94,0 0,-63z" /><path style="fill:#0ff;stroke:#4c4c4c;stroke-width:2" d="M842,374 l94,0 0,63 -94,0 0,-63z" /><path style="fill:#000" d="M912,262 l-2,-4 -42,0 0,4 42,0 -2,-4 4,4 4,-4 -6,0z" /><path style="fill:#000" d="M889,281 l2,1 21,-20 -4,-4 -20,21 1,2z" /><path style="fill:#000" d="M889,239 l-1,2 20,21 4,-4 -21,-21 -2,2z" /><path style="fill:#000" d="M752,258 l2,4 42,0 0,-4 -42,0 2,4 -4,-4 -4,4 6,0z" /><path style="fill:#000" d="M775,239 l-2,-1 -21,20 4,4 20,-21 -1,-2z" /><path style="fill:#000" d="M775,281 l1,-2 -20,-21 -4,4 21,21 2,-2z" /></svg>