<!DOCTYPE svg PUBLIC "-//W3C//DTD SVG 20000303 Stylable//EN" "http://www.w3.org/TR/2000/03/WD-SVG-20000303/DTD/svg-20000303-stylable.dtd"[]><svg xmlns="http://www.w3.org/2000/svg" width="998px" height="999px" viewBox="0 0 998 999"><path style="fill:#e5e5e5;stroke:#4c4c4c;stroke-width:2" d="M0,0 l998,0 0,999 -998,0 0,-999z" /><path style="fill:#b2b2b2;stroke:#4c4c4c;stroke-width:2" d="M20,140 l120,-119 723,-1 120,120 0,718 -120,125 -723,0 -120,-125 0,-718z" /><path style="fill:#fff" d="M41,151 l109,-110 703,0 109,110 0,697 -109,114 -703,0 -109,-114 0,-697z" /><path style="fill:#000" d="M150,39 l-1,1 -110,109 4,3 109,-109 -2,1 0,-5 -1,0 0,1z" /><path style="fill:#000" d="M854,40 l-1,-1 -703,0 0,5 703,0 -2,-1 3,-3 0,-1 -1,0z" /><path style="fill:#000" d="M964,151 l0,-2 -110,-109 -3,3 109,109 0,-1 4,0 0,-1 0,-1z" /><path style="fill:#000" d="M964,850 l0,-2 0,-697 -4,0 0,697 0,-2 4,4 0,-1 0,-1z" /><path style="fill:#000" d="M853,964 l1,0 110,-114 -4,-4 -109,114 2,0 0,4 1,0 0,0z" /><path style="fill:#000" d="M149,964 l1,0 703,0 0,-4 -703,0 2,0 -3,4 0,0 1,0z" /><path style="fill:#000" d="M39,848 l0,2 110,114 3,-4 -109,-114 0,2 -4,0 0,1 0,1z" /><path style="fill:#000" d="M39,149 l0,2 0,697 4,0 0,-697 0,1 -4,-3 0,1 0,1z" /><path style="fill:#00f;stroke:#4c4c4c;stroke-width:2" d="M42,796 l920,0 0,52 -920,0 0,-52z" /><circle style="fill:#7f7f7f;stroke:#4c4c4c;stroke-width:2" cx="41" cy="41" r="21" /><path style="fill:#000;stroke:#4c4c4c;stroke-width:2" d="M39,28 l4,0 0,26 -4,0 0,-26z" /><path style="fill:#000;stroke:#4c4c4c;stroke-width:2" d="M28,43 l0,-3 26,0 0,3 -26,0z" /><circle style="fill:#7f7f7f;stroke:#4c4c4c;stroke-width:2" cx="962" cy="41" r="21" /><path style="fill:#000;stroke:#4c4c4c;stroke-width:2" d="M960,28 l3,0 0,26 -3,0 0,-26z" /><path style="fill:#000;stroke:#4c4c4c;stroke-width:2" d="M949,43 l0,-3 26,0 0,3 -26,0z" /><circle style="fill:#7f7f7f;stroke:#4c4c4c;stroke-width:2" cx="41" cy="962" r="21" /><path style="fill:#000;stroke:#4c4c4c;stroke-width:2" d="M39,949 l4,0 0,26 -4,0 0,-26z" /><path style="fill:#000;stroke:#4c4c4c;stroke-width:2" d="M28,964 l0,-3 26,0 0,3 -26,0z" /><circle style="fill:#7f7f7f;stroke:#4c4c4c;stroke-width:2" cx="962" cy="962" r="21" /><path style="fill:#000;stroke:#4c4c4c;stroke-width:2" d="M960,949 l3,0 0,26 -3,0 0,-26z" /><path style="fill:#000;stroke:#4c4c4c;stroke-width:2" d="M949,964 l0,-3 26,0 0,3 -26,0z" /><path style="fill:#fff" d="M197,145 l21,-20 562,0 21,20 0,583 -21,21 -562,0 -21,-21 0,-583z" /><path style="fill:#000" d="M218,122 l-2,1 -20,21 3,3 21,-21 -2,1 0,-5 -1,0 -1,1z" /><path style="fill:#000" d="M782,123 l-2,-1 -562,0 0,5 562,0 -2,-1 4,-3 -1,-1 -1,0z" /><path style="fill:#000" d="M803,145 l-1,-1 -20,-21 -4,3 21,21 -1,-2 5,0 0,-1 -1,0z" /><path style="fill:#000" d="M802,730 l1,-2 0,-583 -5,0 0,583 1,-2 3,4 1,-1 0,-1z" /><path style="fill:#000" d="M780,751 l2,-1 20,-20 -3,-4 -21,21 2,-1 0,5 1,0 1,-1z" /><path style="fill:#000" d="M216,750 l2,1 562,0 0,-5 -562,0 2,1 -4,3 1,1 1,0z" /><path style="fill:#000" d="M195,728 l1,2 20,20 4,-3 -21,-21 1,2 -5,0 0,1 1,1z" /><path style="fill:#000" d="M196,144 l-1,1 0,583 5,0 0,-583 -1,2 -3,-3 -1,0 0,1z" /><path style="fill:#00f" d="M388,468 l76,0 4,0 4,1 3,1 3,2 2,2 2,3 1,2 0,3 0,86 0,3 -1,2 -2,3 -2,2 -3,2 -3,1 -4,1 -4,0 -76,0 -4,0 -3,-1 -4,-1 -2,-2 -3,-2 -2,-3 -1,-2 0,-3 0,-86 0,-3 1,-2 2,-3 3,-2 2,-2 4,-1 3,-1 4,0z" /><path style="fill:#000" d="M464,465 l-76,0 0,5 76,0z" /><path style="fill:#000" d="M486,482 l-1,-3 -1,-4 -2,-2 -3,-3 -3,-2 -4,-1 -3,-1 -5,-1 0,5 4,0 3,1 3,1 3,2 1,2 2,2 1,2 0,2z" /><path style="fill:#000" d="M486,568 l0,-86 -5,0 0,86z" /><path style="fill:#000" d="M464,585 l5,-1 3,-1 4,-1 3,-2 3,-3 2,-2 1,-4 1,-3 -5,0 0,2 -1,2 -2,2 -1,2 -3,2 -3,1 -3,1 -4,0z" /><path style="fill:#000" d="M388,585 l76,0 0,-5 -76,0z" /><path style="fill:#000" d="M367,568 l0,3 1,4 3,2 2,3 3,2 4,1 4,1 4,1 0,-5 -3,0 -4,-1 -3,-1 -2,-2 -2,-2 -2,-2 0,-2 -1,-2z" /><path style="fill:#000" d="M367,482 l0,86 4,0 0,-86z" /><path style="fill:#000" d="M388,465 l-4,1 -4,1 -4,1 -3,2 -2,3 -3,2 -1,4 0,3 4,0 1,-2 0,-2 2,-2 2,-2 2,-2 3,-1 4,-1 3,0z" /><path style="fill:#00f" d="M242,468 l77,0 3,0 4,1 3,1 3,2 2,2 2,3 1,2 1,3 0,86 -1,3 -1,2 -2,3 -2,2 -3,2 -3,1 -4,1 -3,0 -77,0 -3,0 -4,-1 -3,-1 -3,-2 -2,-2 -2,-3 -1,-2 -1,-3 0,-86 1,-3 1,-2 2,-3 2,-2 3,-2 3,-1 4,-1 3,0z" /><path style="fill:#000" d="M319,465 l-77,0 0,5 77,0z" /><path style="fill:#000" d="M340,482 l0,-3 -2,-4 -2,-2 -3,-3 -3,-2 -3,-1 -4,-1 -4,-1 0,5 3,0 3,1 3,1 3,2 2,2 1,2 1,2 0,2z" /><path style="fill:#000" d="M340,568 l0,-86 -5,0 0,86z" /><path style="fill:#000" d="M319,585 l4,-1 4,-1 3,-1 3,-2 3,-3 2,-2 2,-4 0,-3 -5,0 0,2 -1,2 -1,2 -2,2 -3,2 -3,1 -3,1 -3,0z" /><path style="fill:#000" d="M242,585 l77,0 0,-5 -77,0z" /><path style="fill:#000" d="M221,568 l0,3 2,4 2,2 3,3 3,2 3,1 4,1 4,1 0,-5 -3,0 -3,-1 -3,-1 -3,-2 -2,-2 -1,-2 -1,-2 0,-2z" /><path style="fill:#000" d="M221,482 l0,86 5,0 0,-86z" /><path style="fill:#000" d="M242,465 l-4,1 -4,1 -3,1 -3,2 -3,3 -2,2 -2,4 0,3 5,0 0,-2 1,-2 1,-2 2,-2 3,-2 3,-1 3,-1 3,0z" /><path style="fill:#00f" d="M388,608 l76,0 4,1 4,1 3,1 3,2 2,2 2,2 1,3 0,3 0,86 0,2 -1,3 -2,2 -2,3 -3,1 -3,2 -4,0 -4,1 -76,0 -4,-1 -3,0 -4,-2 -2,-1 -3,-3 -2,-2 -1,-3 0,-2 0,-86 0,-3 1,-3 2,-2 3,-2 2,-2 4,-1 3,-1 4,-1z" /><path style="fill:#000" d="M464,606 l-76,0 0,5 76,0z" /><path style="fill:#000" d="M486,623 l-1,-4 -1,-3 -2,-3 -3,-2 -3,-2 -4,-2 -3,-1 -5,0 0,5 4,0 3,1 3,1 3,1 2,2 1,2 1,3 0,2z" /><path style="fill:#000" d="M486,709 l0,-86 -5,0 0,86z" /><path style="fill:#000" d="M464,725 l5,0 3,-1 4,-2 3,-2 3,-2 2,-3 1,-3 1,-3 -5,0 0,2 -1,2 -1,2 -2,2 -3,1 -3,1 -3,1 -4,0z" /><path style="fill:#000" d="M388,725 l76,0 0,-5 -76,0z" /><path style="fill:#000" d="M367,709 l0,3 1,3 3,3 2,2 3,2 4,2 4,1 4,0 0,-5 -3,0 -4,-1 -3,-1 -2,-1 -2,-2 -2,-2 0,-2 -1,-2z" /><path style="fill:#000" d="M367,623 l0,86 4,0 0,-86z" /><path style="fill:#000" d="M388,606 l-4,0 -4,1 -4,2 -3,2 -2,2 -3,3 -1,3 0,4 4,0 1,-2 0,-3 2,-2 2,-2 2,-1 3,-1 4,-1 3,0z" /><path style="fill:#00f" d="M242,608 l77,0 3,1 4,1 3,1 3,2 2,2 2,2 1,3 1,3 0,86 -1,2 -1,3 -2,2 -2,3 -3,1 -3,2 -4,0 -3,1 -77,0 -3,-1 -4,0 -3,-2 -3,-1 -2,-3 -2,-2 -1,-3 -1,-2 0,-86 1,-3 1,-3 2,-2 2,-2 3,-2 3,-1 4,-1 3,-1z" /><path style="fill:#000" d="M319,606 l-77,0 0,5 77,0z" /><path style="fill:#000" d="M340,623 l0,-4 -2,-3 -2,-3 -3,-2 -3,-2 -3,-2 -4,-1 -4,0 0,5 3,0 3,1 3,1 3,1 2,2 1,2 1,3 0,2z" /><path style="fill:#000" d="M340,709 l0,-86 -5,0 0,86z" /><path style="fill:#000" d="M319,725 l4,0 4,-1 3,-2 3,-2 3,-2 2,-3 2,-3 0,-3 -5,0 0,2 -1,2 -1,2 -2,2 -3,1 -3,1 -3,1 -3,0z" /><path style="fill:#000" d="M242,725 l77,0 0,-5 -77,0z" /><path style="fill:#000" d="M221,709 l0,3 2,3 2,3 3,2 3,2 3,2 4,1 4,0 0,-5 -3,0 -3,-1 -3,-1 -3,-1 -2,-2 -1,-2 -1,-2 0,-2z" /><path style="fill:#000" d="M221,623 l0,86 5,0 0,-86z" /><path style="fill:#000" d="M242,606 l-4,0 -4,1 -3,2 -3,2 -3,2 -2,3 -2,3 0,4 5,0 0,-2 1,-3 1,-2 2,-2 3,-1 3,-1 3,-1 3,0z" /><path style="fill:#00f" d="M679,468 l76,0 4,0 4,1 3,1 3,2 2,2 2,3 1,2 1,3 0,86 -1,3 -1,2 -2,3 -2,2 -3,2 -3,1 -4,1 -4,0 -76,0 -4,0 -3,-1 -3,-1 -3,-2 -3,-2 -1,-3 -2,-2 0,-3 0,-86 0,-3 2,-2 1,-3 3,-2 3,-2 3,-1 3,-1 4,0z" /><path style="fill:#000" d="M755,465 l-76,0 0,5 76,0z" /><path style="fill:#000" d="M777,482 l0,-3 -2,-4 -2,-2 -3,-3 -3,-2 -3,-1 -4,-1 -5,-1 0,5 4,0 3,1 3,1 3,2 1,2 2,2 1,2 0,2z" /><path style="fill:#000" d="M777,568 l0,-86 -5,0 0,86z" /><path style="fill:#000" d="M755,585 l5,-1 4,-1 3,-1 3,-2 3,-3 2,-2 2,-4 0,-3 -5,0 0,2 -1,2 -2,2 -1,2 -3,2 -3,1 -3,1 -4,0z" /><path style="fill:#000" d="M679,585 l76,0 0,-5 -76,0z" /><path style="fill:#000" d="M658,568 l0,3 2,4 2,2 2,3 4,2 3,1 4,1 4,1 0,-5 -3,0 -4,-1 -2,-1 -3,-2 -2,-2 -1,-2 -1,-2 -1,-2z" /><path style="fill:#000" d="M658,482 l0,86 4,0 0,-86z" /><path style="fill:#000" d="M679,465 l-4,1 -4,1 -3,1 -4,2 -2,3 -2,2 -2,4 0,3 4,0 1,-2 1,-2 1,-2 2,-2 3,-2 2,-1 4,-1 3,0z" /><path style="fill:#00f" d="M534,468 l76,0 4,0 3,1 4,1 2,2 3,2 2,3 1,2 0,3 0,86 0,3 -1,2 -2,3 -3,2 -2,2 -4,1 -3,1 -4,0 -76,0 -4,0 -4,-1 -3,-1 -3,-2 -2,-2 -2,-3 -1,-2 0,-3 0,-86 0,-3 1,-2 2,-3 2,-2 3,-2 3,-1 4,-1 4,0z" /><path style="fill:#000" d="M610,465 l-76,0 0,5 76,0z" /><path style="fill:#000" d="M631,482 l0,-3 -1,-4 -3,-2 -2,-3 -3,-2 -4,-1 -4,-1 -4,-1 0,5 3,0 4,1 3,1 2,2 2,2 2,2 0,2 1,2z" /><path style="fill:#000" d="M631,568 l0,-86 -4,0 0,86z" /><path style="fill:#000" d="M610,585 l4,-1 4,-1 4,-1 3,-2 2,-3 3,-2 1,-4 0,-3 -4,0 -1,2 0,2 -2,2 -2,2 -2,2 -3,1 -4,1 -3,0z" /><path style="fill:#000" d="M534,585 l76,0 0,-5 -76,0z" /><path style="fill:#000" d="M512,568 l1,3 1,4 2,2 3,3 3,2 4,1 3,1 5,1 0,-5 -4,0 -3,-1 -3,-1 -2,-2 -2,-2 -2,-2 -1,-2 0,-2z" /><path style="fill:#000" d="M512,482 l0,86 5,0 0,-86z" /><path style="fill:#000" d="M534,465 l-5,1 -3,1 -4,1 -3,2 -3,3 -2,2 -1,4 -1,3 5,0 0,-2 1,-2 2,-2 2,-2 2,-2 3,-1 3,-1 4,0z" /><path style="fill:#00f" d="M679,608 l76,0 4,1 4,1 3,1 3,2 2,2 2,2 1,3 1,3 0,86 -1,2 -1,3 -2,2 -2,3 -3,1 -3,2 -4,0 -4,1 -76,0 -4,-1 -3,0 -3,-2 -3,-1 -3,-3 -1,-2 -2,-3 0,-2 0,-86 0,-3 2,-3 1,-2 3,-2 3,-2 3,-1 3,-1 4,-1z" /><path style="fill:#000" d="M755,606 l-76,0 0,5 76,0z" /><path style="fill:#000" d="M777,623 l0,-4 -2,-3 -2,-3 -3,-2 -3,-2 -3,-2 -4,-1 -5,0 0,5 4,0 3,1 3,1 3,1 2,2 1,2 1,3 0,2z" /><path style="fill:#000" d="M777,709 l0,-86 -5,0 0,86z" /><path style="fill:#000" d="M755,725 l5,0 4,-1 3,-2 3,-2 3,-2 2,-3 2,-3 0,-3 -5,0 0,2 -1,2 -1,2 -2,2 -3,1 -3,1 -3,1 -4,0z" /><path style="fill:#000" d="M679,725 l76,0 0,-5 -76,0z" /><path style="fill:#000" d="M658,709 l0,3 2,3 2,3 2,2 4,2 3,2 4,1 4,0 0,-5 -3,0 -4,-1 -2,-1 -3,-1 -2,-2 -1,-2 -1,-2 -1,-2z" /><path style="fill:#000" d="M658,623 l0,86 4,0 0,-86z" /><path style="fill:#000" d="M679,606 l-4,0 -4,1 -3,2 -4,2 -2,2 -2,3 -2,3 0,4 4,0 1,-2 1,-3 1,-2 2,-2 3,-1 2,-1 4,-1 3,0z" /><path style="fill:#00f" d="M534,608 l76,0 4,1 3,1 4,1 2,2 3,2 2,2 1,3 0,3 0,86 0,2 -1,3 -2,2 -3,3 -2,1 -4,2 -3,0 -4,1 -76,0 -4,-1 -4,0 -3,-2 -3,-1 -2,-3 -2,-2 -1,-3 0,-2 0,-86 0,-3 1,-3 2,-2 2,-2 3,-2 3,-1 4,-1 4,-1z" /><path style="fill:#000" d="M610,606 l-76,0 0,5 76,0z" /><path style="fill:#000" d="M631,623 l0,-4 -1,-3 -3,-3 -2,-2 -3,-2 -4,-2 -4,-1 -4,0 0,5 3,0 4,1 3,1 2,1 2,2 2,2 0,3 1,2z" /><path style="fill:#000" d="M631,709 l0,-86 -4,0 0,86z" /><path style="fill:#000" d="M610,725 l4,0 4,-1 4,-2 3,-2 2,-2 3,-3 1,-3 0,-3 -4,0 -1,2 0,2 -2,2 -2,2 -2,1 -3,1 -4,1 -3,0z" /><path style="fill:#000" d="M534,725 l76,0 0,-5 -76,0z" /><path style="fill:#000" d="M512,709 l1,3 1,3 2,3 3,2 3,2 4,2 3,1 5,0 0,-5 -4,0 -3,-1 -3,-1 -2,-1 -2,-2 -2,-2 -1,-2 0,-2z" /><path style="fill:#000" d="M512,623 l0,86 5,0 0,-86z" /><path style="fill:#000" d="M534,606 l-5,0 -3,1 -4,2 -3,2 -3,2 -2,3 -1,3 -1,4 5,0 0,-2 1,-3 2,-2 2,-2 2,-1 3,-1 3,-1 4,0z" /><path style="fill:#9cc" d="M223,145 l552,0 0,292 -552,0 0,-292z" /><path style="fill:#000" d="M777,145 l-2,-2 -552,0 0,5 552,0 -3,-3 5,0 0,-2 -2,0z" /><path style="fill:#000" d="M775,439 l2,-2 0,-292 -5,0 0,292 3,-3 0,5 2,0 0,-2z" /><path style="fill:#000" d="M221,437 l2,2 552,0 0,-5 -552,0 3,3 -5,0 0,2 2,0z" /><path style="fill:#000" d="M223,143 l-2,2 0,292 5,0 0,-292 -3,3 0,-5 -2,0 0,2z" /><circle style="fill:#7f7f7f;stroke:#4c4c4c;stroke-width:2" cx="824" cy="756" r="8" /><circle style="fill:#7f7f7f;stroke:#4c4c4c;stroke-width:2" cx="824" cy="725" r="8" /><circle style="fill:#7f7f7f;stroke:#4c4c4c;stroke-width:2" cx="824" cy="694" r="8" /><circle style="fill:#7f7f7f;stroke:#4c4c4c;stroke-width:2" cx="824" cy="663" r="8" /><path style="fill:#fff" d="M270,655 l10,-20 11,20 -21,0z" /><path style="fill:#fff" d="M282,634 l-4,0 -10,20 4,2 11,-20 -5,0 4,-2 -2,-5 -2,5z" /><path style="fill:#fff" d="M291,658 l2,-4 -11,-20 -4,2 11,20 2,-3 0,5 4,0 -2,-4z" /><path style="fill:#fff" d="M268,654 l2,4 21,0 0,-5 -21,0 2,3 -4,-2 -2,4 4,0z" /><path style="fill:#fff" d="M436,676 l-10,21 -11,-21 21,0z" /><path style="fill:#fff" d="M424,698 l4,0 10,-21 -4,-2 -11,21 5,0 -4,2 2,4 2,-4z" /><path style="fill:#fff" d="M415,674 l-2,3 11,21 4,-2 -11,-21 -2,3 0,-4 -4,0 2,3z" /><path style="fill:#fff" d="M438,677 l-2,-3 -21,0 0,4 21,0 -2,-3 4,2 1,-3 -3,0z" /><path style="fill:#fff" d="M560,676 l-21,-10 21,-11 0,21z" /><path style="fill:#fff" d="M538,664 l0,4 21,10 2,-4 -21,-10 0,4 -2,-4 -4,2 4,2z" /><path style="fill:#fff" d="M562,655 l-3,-2 -21,11 2,4 21,-11 -3,-2 4,0 0,-3 -3,1z" /><path style="fill:#fff" d="M559,678 l3,-2 0,-21 -4,0 0,21 3,-2 -2,4 3,2 0,-4z" /><path style="fill:#fff" d="M725,655 l21,11 -21,10 0,-21z" /><path style="fill:#fff" d="M747,668 l0,-5 -21,-10 -2,4 21,11 0,-4 2,4 4,-2 -4,-3z" /><path style="fill:#fff" d="M723,676 l3,2 21,-10 -2,-4 -21,10 4,2 -5,0 0,4 3,-2z" /><path style="fill:#fff" d="M726,653 l-3,2 0,21 5,0 0,-21 -4,2 2,-4 -3,-1 0,3z" /><path style="fill:#fff" d="M280,697 l3,0 0,-42 -5,0 0,42 2,0z" /><path style="fill:#fff" d="M426,635 l-3,0 0,41 5,0 0,-41 -2,0z" /><path style="fill:#fff" d="M601,666 l0,-2 -41,0 0,4 41,0 0,-2z" /><path style="fill:#fff" d="M684,665 l0,3 41,0 0,-5 -41,0 0,2z" /><path style="fill:#7f7f7f" d="M616,213 l-3,-2 -41,0 0,4 41,0 -2,-2 5,0 0,-2 -3,0z" /><path style="fill:#7f7f7f" d="M613,304 l3,-3 0,-88 -5,0 0,88 2,-2 0,5 3,0 0,-3z" /><path style="fill:#7f7f7f" d="M570,301 l2,3 41,0 0,-5 -41,0 2,2 -4,0 0,3 2,0z" /><path style="fill:#7f7f7f" d="M572,211 l-2,2 0,88 4,0 0,-88 -2,2 0,-4 -2,0 0,2z" /><path style="fill:#7f7f7f" d="M553,213 l-2,-2 -42,0 0,4 42,0 -2,-2 4,0 0,-2 -2,0z" /><path style="fill:#7f7f7f" d="M551,304 l2,-3 0,-88 -4,0 0,88 2,-2 0,5 2,0 0,-3z" /><path style="fill:#7f7f7f" d="M507,301 l2,3 42,0 0,-5 -42,0 3,2 -5,0 0,3 2,0z" /><path style="fill:#7f7f7f" d="M509,211 l-2,2 0,88 5,0 0,-88 -3,2 0,-4 -2,0 0,2z" /></svg>