<!DOCTYPE svg PUBLIC "-//W3C//DTD SVG 20000303 Stylable//EN" "http://www.w3.org/TR/2000/03/WD-SVG-20000303/DTD/svg-20000303-stylable.dtd"[]><svg xmlns="http://www.w3.org/2000/svg" width="684px" height="999px" viewBox="0 0 666 999"><path style="fill:#b2b2b2;stroke:#4c4c4c;stroke-width:2" d="M0,0 l666,0 0,999 -666,0 0,-999z" /><path style="fill:#666;stroke:#4c4c4c;stroke-width:2" d="M41,83 l583,0 0,832 -583,0 0,-832z" /><path style="fill:#e5e5e5;stroke:#4c4c4c;stroke-width:2" d="M124,166 l417,0 0,167 -417,0 0,-167z" /><path style="fill:#0f0" d="M145,207 l375,0 0,105 -375,0 0,-105z" /><path style="fill:#0c0" d="M145,187 l375,0 0,31 -375,0 0,-31z" /><path style="fill:none;stroke:#4c4c4c;stroke-width:2" d="M145,187 l375,0 0,125 -375,0 0,-125" /><path style="fill:#f00;stroke:#4c4c4c;stroke-width:2" d="M124,751 l125,0 0,112 -125,0 0,-112z" /><path style="fill:#e5e5e5;stroke:#4c4c4c;stroke-width:2" d="M124,384 l125,0 0,113 -125,0 0,-113z" /><path style="fill:#e5e5e5;stroke:#4c4c4c;stroke-width:2" d="M124,629 l125,0 0,112 -125,0 0,-112z" /><path style="fill:#e5e5e5;stroke:#4c4c4c;stroke-width:2" d="M124,507 l125,0 0,112 -125,0 0,-112z" /><path style="fill:#ff0;stroke:#4c4c4c;stroke-width:2" d="M416,751 l125,0 0,112 -125,0 0,-112z" /><path style="fill:#e5e5e5;stroke:#4c4c4c;stroke-width:2" d="M416,384 l125,0 0,113 -125,0 0,-113z" /><path style="fill:#e5e5e5;stroke:#4c4c4c;stroke-width:2" d="M416,629 l125,0 0,112 -125,0 0,-112z" /><path style="fill:#ff0;stroke:#4c4c4c;stroke-width:2" d="M416,507 l125,0 0,112 -125,0 0,-112z" /><path style="fill:#e5e5e5;stroke:#4c4c4c;stroke-width:2" d="M270,751 l125,0 0,112 -125,0 0,-112z" /><path style="fill:#e5e5e5;stroke:#4c4c4c;stroke-width:2" d="M270,384 l125,0 0,113 -125,0 0,-113z" /><path style="fill:#e5e5e5;stroke:#4c4c4c;stroke-width:2" d="M270,629 l125,0 0,112 -125,0 0,-112z" /><path style="fill:#e5e5e5;stroke:#4c4c4c;stroke-width:2" d="M270,507 l125,0 0,112 -125,0 0,-112z" /><path style="fill:#000;stroke:#4c4c4c;stroke-width:2" d="M431,605 l47,-84 47,84 -94,0z" /><path style="fill:#000;stroke:#4c4c4c;stroke-width:2" d="M525,765 l-47,84 -46,-84 93,0z" /><circle style="fill:#4c4c4c;stroke:#4c4c4c;stroke-width:2" cx="62" cy="41" r="21" /><circle style="fill:#4c4c4c;stroke:#4c4c4c;stroke-width:2" cx="603" cy="41" r="21" /><circle style="fill:#4c4c4c;stroke:#4c4c4c;stroke-width:2" cx="62" cy="957" r="21" /><circle style="fill:#4c4c4c;stroke:#4c4c4c;stroke-width:2" cx="603" cy="957" r="21" /><path style="fill:#c93;stroke:#4c4c4c;stroke-width:2" d="M62,104 l187,0 0,10 -187,0 0,-10z" /><path style="fill:#c93;stroke:#4c4c4c;stroke-width:2" d="M62,125 l187,0 0,10 -187,0 0,-10z" /><path style="fill:#c93;stroke:#4c4c4c;stroke-width:2" d="M62,145 l187,0 0,11 -187,0 0,-11z" /><path style="fill:#ccc;stroke:#4c4c4c;stroke-width:2" d="M291,104 l312,0 0,10 -312,0 0,-10z" /><path style="fill:#ccc;stroke:#4c4c4c;stroke-width:2" d="M291,125 l312,0 0,10 -312,0 0,-10z" /><path style="fill:#ccc;stroke:#4c4c4c;stroke-width:2" d="M291,145 l312,0 0,11 -312,0 0,-11z" /></svg>