<!DOCTYPE svg PUBLIC "-//W3C//DTD SVG 20000303 Stylable//EN" "http://www.w3.org/TR/2000/03/WD-SVG-20000303/DTD/svg-20000303-stylable.dtd"[]><svg xmlns="http://www.w3.org/2000/svg" width="999px" height="855px" viewBox="0 0 999 847"><path style="fill:#900;stroke:#4c4c4c;stroke-width:2" d="M923,423 l0,344 -847,0 0,-344 0,-22 2,-21 3,-21 4,-21 4,-21 6,-20 7,-20 7,-19 9,-19 9,-18 11,-17 11,-18 12,-17 12,-16 14,-15 14,-15 15,-14 15,-13 16,-13 17,-11 17,-11 17,-10 19,-10 18,-9 20,-7 20,-7 19,-5 21,-5 20,-3 22,-4 21,-1 21,0 22,0 22,1 21,4 21,3 20,5 20,5 20,7 19,7 19,9 18,10 18,10 17,11 16,11 17,13 15,13 15,14 14,15 13,15 13,16 12,17 11,18 10,17 9,18 8,19 8,19 7,20 5,20 6,21 3,21 3,21 1,21 1,22z" /><path style="fill:#f00;stroke:#4c4c4c;stroke-width:2" d="M76,423 l0,-28 4,-28 4,-28 7,-27 8,-26 10,-26 11,-25 13,-24 15,-24 16,-22 18,-22 18,-20 21,-20 21,-17 23,-17 24,-15 0,713 -213,0 0,-344z" /><path style="fill:#f00;stroke:#4c4c4c;stroke-width:2" d="M923,423 l-1,-28 -3,-28 -4,-28 -7,-27 -8,-26 -10,-26 -12,-25 -13,-24 -14,-24 -17,-22 -17,-22 -19,-20 -20,-20 -22,-17 -23,-17 -24,-15 0,713 214,0 0,-344z" /><circle style="fill:#fff" cx="499" cy="423" r="365" /><circle style="fill:#f00;stroke:#fff;stroke-width:2" cx="500" cy="421" r="346" /><circle style="fill:#e5e5e5;stroke:#fff;stroke-width:2" cx="501" cy="421" r="115" /><ellipse style="fill:none;stroke:#fff;stroke-width:2" cx="499" cy="421" rx="155" ry="153" /><path style="fill:#7f7f7f;stroke:#4c4c4c;stroke-width:2" d="M960,847 l-922,0 -8,-1 -7,-2 -7,-4 -5,-5 -5,-6 -3,-7 -3,-8 0,-9 0,-7 3,-7 3,-7 5,-6 5,-4 7,-3 7,-3 8,-1 922,0 8,1 7,3 7,3 6,4 4,6 3,7 3,7 1,7 -1,9 -3,8 -3,7 -4,6 -6,5 -7,4 -7,2 -8,1z" /><path style="fill:#4c4c4c" d="M960,847 l-922,0 -8,-1 -7,-2 -7,-4 -5,-5 -5,-6 -3,-7 -3,-8 0,-9 2,0 8,0 14,0 18,0 23,0 27,0 30,0 34,0 36,0 39,0 42,0 42,0 45,0 46,0 46,0 47,0 47,0 46,0 46,0 45,0 42,0 42,0 39,0 36,0 34,0 30,0 27,0 23,0 18,0 14,0 8,0 3,0 -1,9 -3,8 -3,7 -4,6 -6,5 -7,4 -7,2 -8,1z" /><path style="fill:none;stroke:#4c4c4c;stroke-width:2" d="M960,847 l-922,0 -8,-1 -7,-2 -7,-4 -5,-5 -5,-6 -3,-7 -3,-8 0,-9 0,-7 3,-7 3,-7 5,-6 5,-4 7,-3 7,-3 8,-1 922,0 8,1 7,3 7,3 6,4 4,6 3,7 3,7 1,7 -1,9 -3,8 -3,7 -4,6 -6,5 -7,4 -7,2 -8,1" /></svg>