<!DOCTYPE svg PUBLIC "-//W3C//DTD SVG 20000303 Stylable//EN" "http://www.w3.org/TR/2000/03/WD-SVG-20000303/DTD/svg-20000303-stylable.dtd"[]><svg xmlns="http://www.w3.org/2000/svg" width="999px" height="606px" viewBox="0 0 999 586"><path style="fill:#ccc;stroke:#4c4c4c;stroke-width:2" d="M4,581 l0,-577 990,0 0,577 -990,0z" /><path style="fill:#666" d="M953,25 l-6,8 16,28 -16,28 -31,0 -5,8 42,0 20,-36 -20,-36z" /><path style="fill:#666" d="M953,488 l-6,9 16,27 -16,28 -31,0 -5,9 42,0 20,-37 -20,-36z" /><path style="fill:#666" d="M87,25 l-5,8 15,28 -15,28 -31,0 -5,8 41,0 21,-36 -21,-36z" /><path style="fill:#666" d="M87,488 l-5,9 15,27 -15,28 -31,0 -5,9 41,0 21,-37 -21,-36z" /><path style="fill:#fff" d="M46,561 l5,-9 -16,-28 16,-27 31,0 5,-9 -41,0 -21,36 21,37z" /><path style="fill:#fff" d="M911,561 l5,-9 -15,-28 15,-27 31,0 6,-9 -42,0 -20,36 20,37z" /><path style="fill:#fff" d="M911,97 l5,-8 -15,-28 15,-28 31,0 6,-8 -42,0 -20,36 20,36z" /><path style="fill:#fff" d="M46,97 l5,-8 -16,-28 16,-28 31,0 5,-8 -41,0 -21,36 21,36z" /><path style="fill:#4c4c4c" d="M108,479 l0,-372 782,0 0,372 -782,0z" /><path style="fill:#000" d="M108,478 l30,-30 0,-310 722,0 31,-31 -783,0 0,371z" /><path style="fill:#7f7f7f" d="M891,107 l-31,31 0,310 -722,0 -30,30 783,0 0,-371z" /><path style="fill:none;stroke:#fff;stroke-width:2" d="M108,478 l783,0 0,-371" /></svg>