<!DOCTYPE svg PUBLIC "-//W3C//DTD SVG 20000303 Stylable//EN" "http://www.w3.org/TR/2000/03/WD-SVG-20000303/DTD/svg-20000303-stylable.dtd"[]><svg xmlns="http://www.w3.org/2000/svg" width="684px" height="999px" viewBox="0 0 666 999"><path style="fill:#b2e5e5;stroke:#4c4c4c;stroke-width:2" d="M0,0 l666,0 0,999 -666,0 0,-999z" /><path style="fill:none;stroke:#4c4c4c;stroke-width:2" d="M41,41 l583,0 0,666 -583,0 0,-666" /><path style="fill:none;stroke:#4c4c4c;stroke-width:2" d="M249,83 l167,0 0,62 -167,0 0,-62" /><path style="fill:none;stroke:#4c4c4c;stroke-width:2" d="M83,208 l83,0 0,83 -83,0 0,-83" /><path style="fill:none;stroke:#4c4c4c;stroke-width:2" d="M208,208 l83,0 0,83 -83,0 0,-83" /><path style="fill:none;stroke:#4c4c4c;stroke-width:2" d="M333,208 l83,0 0,83 -83,0 0,-83" /><path style="fill:none;stroke:#4c4c4c;stroke-width:2" d="M83,333 l83,0 0,83 -83,0 0,-83" /><path style="fill:none;stroke:#4c4c4c;stroke-width:2" d="M208,333 l83,0 0,83 -83,0 0,-83" /><path style="fill:none;stroke:#4c4c4c;stroke-width:2" d="M458,187 l124,0 0,125 -124,0 0,-125" /><path style="fill:none;stroke:#4c4c4c;stroke-width:2" d="M458,333 l124,0 0,124 -124,0 0,-124" /><path style="fill:none;stroke:#4c4c4c;stroke-width:2" d="M41,499 l583,0" /><path style="fill:none;stroke:#4c4c4c;stroke-width:2" d="M475,648 l-18,-45 18,-44 45,-18 44,18 18,44 -18,45 -44,18 -45,-18" /></svg>