<!DOCTYPE svg PUBLIC "-//W3C//DTD SVG 20000303 Stylable//EN" "http://www.w3.org/TR/2000/03/WD-SVG-20000303/DTD/svg-20000303-stylable.dtd"[]><svg xmlns="http://www.w3.org/2000/svg" width="465px" height="999px" viewBox="0 0 217 500"><path style="fill:#7f7f7f;stroke:#4c4c4c;stroke-width:2" d="M187,191 l0,-182 -6,-2 -7,-2 -7,-1 -8,-2 -8,-1 -9,0 -9,-1 -9,0 -9,0 -9,1 -9,0 -9,1 -8,2 -7,1 -7,2 -6,2 -29,30 2,2 4,6 6,9 9,12 9,13 11,16 11,16 12,17 12,17 11,16 11,15 9,14 8,11 7,9 4,6 1,2 1,-1 4,-4 4,-4 6,-6 5,-5 5,-4 3,-4 1,-1z" /><path style="fill:#7f7f7f;stroke:#4c4c4c;stroke-width:2" d="M0,404 l29,-29 188,0 0,96 -29,29 -188,-96z" /><path style="fill:#7f7f7f;stroke:#4c4c4c;stroke-width:2" d="M96,228 l29,-29 0,176 -29,29 0,-176z" /><path style="fill:#b2b2b2;stroke:#4c4c4c;stroke-width:2" d="M158,220 l0,-181 -6,-2 -7,-3 -7,-1 -8,-2 -8,-1 -9,0 -9,-1 -9,0 -9,0 -9,1 -9,0 -8,1 -8,2 -8,1 -7,3 -6,2 0,181 6,2 7,2 8,1 8,1 8,1 9,1 9,1 9,0 9,0 9,-1 9,-1 8,-1 8,-1 7,-1 7,-2 6,-2z" /><path style="fill:#b2b2b2;stroke:#4c4c4c;stroke-width:2" d="M0,404 l188,0 0,96 -188,0 0,-96z" /><path style="fill:none;stroke:#4c4c4c;stroke-width:2" d="M188,404 l29,-29" /><path style="fill:none;stroke:#4c4c4c;stroke-width:2" d="M158,39 l29,-30" /></svg>