<!DOCTYPE svg PUBLIC "-//W3C//DTD SVG 20000303 Stylable//EN" "http://www.w3.org/TR/2000/03/WD-SVG-20000303/DTD/svg-20000303-stylable.dtd"[]><svg xmlns="http://www.w3.org/2000/svg" width="209px" height="999px" viewBox="0 0 81 500"><path style="fill:#7f7f7f" d="M36,500 l0,-444 10,0 0,444 -10,0z" /><path style="fill:#999" d="M36,500 l0,-444 9,0 0,444 -9,0z" /><path style="fill:#b2b2b2" d="M37,500 l0,-444 7,0 0,444 -7,0z" /><path style="fill:#ccc" d="M38,500 l0,-444 5,0 0,444 -5,0z" /><path style="fill:#e5e5e5" d="M39,500 l0,-444 3,0 0,444 -3,0z" /><path style="fill:#fff" d="M40,500 l0,-444 1,0 0,444 -1,0z" /><path style="fill:none;stroke:#4c4c4c;stroke-width:2" d="M36,500 l0,-444 10,0 0,444 -10,0" /><path style="fill:#7f7f7f" d="M10,500 l31,-10 -31,-10 -4,1 -3,2 -2,3 -1,4 1,4 2,3 3,2 4,1z" /><path style="fill:#999" d="M10,499 l31,-9 -31,-9 -4,1 -3,2 -2,2 -1,4 1,4 2,2 3,2 4,1z" /><path style="fill:#b2b2b2" d="M10,497 l-4,-1 -3,-1 -2,-2 -1,-3 1,-3 2,-2 3,-1 4,-1 31,7 -31,7z" /><path style="fill:#ccc" d="M10,494 l31,-4 -31,-5 -4,0 -3,1 -2,2 -1,2 1,1 2,2 3,1 4,0z" /><path style="fill:#e5e5e5" d="M10,492 l31,-2 -31,-3 -4,0 -3,1 -2,1 -1,1 1,1 2,0 3,1 4,0z" /><path style="fill:#fff" d="M10,491 l31,-1 -31,-1 -4,0 -3,0 -2,1 -1,0 1,0 2,0 3,1 4,0z" /><path style="fill:none;stroke:#4c4c4c;stroke-width:2" d="M10,500 l31,-10 -31,-10 -4,1 -3,2 -2,3 -1,4 1,4 2,3 3,2 4,1" /><path style="fill:#7f7f7f" d="M71,500 l-30,-10 30,-10 4,1 3,2 2,3 1,4 -1,4 -2,3 -3,2 -4,1z" /><path style="fill:#999" d="M71,499 l-30,-9 30,-9 4,1 3,2 2,2 1,4 -1,4 -2,2 -3,2 -4,1z" /><path style="fill:#b2b2b2" d="M71,497 l4,-1 3,-1 2,-2 1,-3 -1,-3 -2,-2 -3,-1 -4,-1 -30,7 30,7z" /><path style="fill:#ccc" d="M71,494 l-30,-4 30,-5 4,0 3,1 2,2 1,2 -1,1 -2,2 -3,1 -4,0z" /><path style="fill:#e5e5e5" d="M71,492 l-30,-2 30,-3 4,0 3,1 2,1 1,1 -1,1 -2,0 -3,1 -4,0z" /><path style="fill:#fff" d="M71,491 l-30,-1 30,-1 4,0 3,0 2,1 1,0 -1,0 -2,0 -3,1 -4,0z" /><path style="fill:none;stroke:#4c4c4c;stroke-width:2" d="M71,500 l-30,-10 30,-10 4,1 3,2 2,3 1,4 -1,4 -2,3 -3,2 -4,1" /><path style="fill:#7f7f7f" d="M10,399 l31,-10 -31,-10 -4,1 -3,2 -2,3 -1,4 1,4 2,3 3,2 4,1z" /><path style="fill:#999" d="M10,398 l31,-9 -31,-9 -4,1 -3,2 -2,2 -1,4 1,4 2,2 3,2 4,1z" /><path style="fill:#b2b2b2" d="M10,396 l-4,-1 -3,-1 -2,-2 -1,-3 1,-3 2,-2 3,-1 4,-1 31,7 -31,7z" /><path style="fill:#ccc" d="M10,393 l31,-4 -31,-5 -4,0 -3,1 -2,2 -1,2 1,1 2,2 3,1 4,0z" /><path style="fill:#e5e5e5" d="M10,391 l31,-2 -31,-3 -4,0 -3,1 -2,1 -1,1 1,1 2,0 3,1 4,0z" /><path style="fill:#fff" d="M10,390 l31,-1 -31,-1 -4,0 -3,0 -2,1 -1,0 1,0 2,0 3,1 4,0z" /><path style="fill:none;stroke:#4c4c4c;stroke-width:2" d="M10,399 l31,-10 -31,-10 -4,1 -3,2 -2,3 -1,4 1,4 2,3 3,2 4,1" /><path style="fill:#7f7f7f" d="M71,399 l-30,-10 30,-10 4,1 3,2 2,3 1,4 -1,4 -2,3 -3,2 -4,1z" /><path style="fill:#999" d="M71,398 l-30,-9 30,-9 4,1 3,2 2,2 1,4 -1,4 -2,2 -3,2 -4,1z" /><path style="fill:#b2b2b2" d="M71,396 l4,-1 3,-1 2,-2 1,-3 -1,-3 -2,-2 -3,-1 -4,-1 -30,7 30,7z" /><path style="fill:#ccc" d="M71,393 l-30,-4 30,-5 4,0 3,1 2,2 1,2 -1,1 -2,2 -3,1 -4,0z" /><path style="fill:#e5e5e5" d="M71,391 l-30,-2 30,-3 4,0 3,1 2,1 1,1 -1,1 -2,0 -3,1 -4,0z" /><path style="fill:#fff" d="M71,390 l-30,-1 30,-1 4,0 3,0 2,1 1,0 -1,0 -2,0 -3,1 -4,0z" /><path style="fill:none;stroke:#4c4c4c;stroke-width:2" d="M71,399 l-30,-10 30,-10 4,1 3,2 2,3 1,4 -1,4 -2,3 -3,2 -4,1" /><path style="fill:#7f7f7f" d="M10,298 l31,-10 -31,-10 -4,1 -3,2 -2,3 -1,4 1,4 2,3 3,2 4,1z" /><path style="fill:#999" d="M10,297 l31,-9 -31,-9 -4,1 -3,2 -2,2 -1,4 1,4 2,2 3,2 4,1z" /><path style="fill:#b2b2b2" d="M10,295 l-4,-1 -3,-1 -2,-2 -1,-3 1,-3 2,-2 3,-1 4,-1 31,7 -31,7z" /><path style="fill:#ccc" d="M10,292 l31,-4 -31,-5 -4,0 -3,1 -2,2 -1,2 1,1 2,2 3,1 4,0z" /><path style="fill:#e5e5e5" d="M10,290 l31,-2 -31,-3 -4,0 -3,1 -2,1 -1,1 1,1 2,0 3,1 4,0z" /><path style="fill:#fff" d="M10,289 l31,-1 -31,-1 -4,0 -3,0 -2,1 -1,0 1,0 2,0 3,1 4,0z" /><path style="fill:none;stroke:#4c4c4c;stroke-width:2" d="M10,298 l31,-10 -31,-10 -4,1 -3,2 -2,3 -1,4 1,4 2,3 3,2 4,1" /><path style="fill:#7f7f7f" d="M71,298 l-30,-10 30,-10 4,1 3,2 2,3 1,4 -1,4 -2,3 -3,2 -4,1z" /><path style="fill:#999" d="M71,297 l-30,-9 30,-9 4,1 3,2 2,2 1,4 -1,4 -2,2 -3,2 -4,1z" /><path style="fill:#b2b2b2" d="M71,295 l4,-1 3,-1 2,-2 1,-3 -1,-3 -2,-2 -3,-1 -4,-1 -30,7 30,7z" /><path style="fill:#ccc" d="M71,292 l-30,-4 30,-5 4,0 3,1 2,2 1,2 -1,1 -2,2 -3,1 -4,0z" /><path style="fill:#e5e5e5" d="M71,290 l-30,-2 30,-3 4,0 3,1 2,1 1,1 -1,1 -2,0 -3,1 -4,0z" /><path style="fill:#fff" d="M71,289 l-30,-1 30,-1 4,0 3,0 2,1 1,0 -1,0 -2,0 -3,1 -4,0z" /><path style="fill:none;stroke:#4c4c4c;stroke-width:2" d="M71,298 l-30,-10 30,-10 4,1 3,2 2,3 1,4 -1,4 -2,3 -3,2 -4,1" /><path style="fill:#7f7f7f" d="M64,14 l0,42 -49,0 0,-42 49,0z" /><path style="fill:#999" d="M61,14 l0,42 -42,0 0,-42 42,0z" /><path style="fill:#b2b2b2" d="M56,14 l0,42 -33,0 0,-42 33,0z" /><path style="fill:#ccc" d="M50,14 l0,42 -21,0 0,-42 21,0z" /><path style="fill:#e5e5e5" d="M45,14 l0,42 -11,0 0,-42 11,0z" /><path style="fill:#fff" d="M41,14 l0,42 -2,0 0,-42 2,0z" /><path style="fill:none;stroke:#4c4c4c;stroke-width:2" d="M64,14 l0,42 -49,0 0,-42 49,0" /><path style="fill:#7f7f7f" d="M40,14 l-25,0 2,-6 5,-4 8,-3 10,-1 9,1 8,3 5,4 2,6 -24,0z" /><path style="fill:#999" d="M40,14 l-22,0 2,-6 5,-4 7,-3 8,-1 8,1 7,3 4,4 2,6 -21,0z" /><path style="fill:#b2b2b2" d="M40,14 l-17,0 1,-6 4,-4 6,-3 6,-1 6,1 6,3 4,4 1,6 -17,0z" /><path style="fill:#ccc" d="M40,14 l-11,0 1,-6 2,-4 4,-3 4,-1 4,1 3,3 2,4 1,6 -10,0z" /><path style="fill:#e5e5e5" d="M40,14 l-6,0 1,-6 1,-4 2,-3 2,-1 2,1 2,3 1,4 0,6 -5,0z" /><path style="fill:#fff" d="M40,14 l-1,0 0,-6 0,-4 0,-3 1,-1 0,1 1,3 0,4 0,6 -1,0z" /><path style="fill:none;stroke:#4c4c4c;stroke-width:2" d="M40,14 l-25,0 2,-6 5,-4 8,-3 10,-1 9,1 8,3 5,4 2,6 -24,0" /></svg>