<!DOCTYPE svg PUBLIC "-//W3C//DTD SVG 20000303 Stylable//EN" "http://www.w3.org/TR/2000/03/WD-SVG-20000303/DTD/svg-20000303-stylable.dtd"[]><svg xmlns="http://www.w3.org/2000/svg" width="684px" height="999px" viewBox="0 0 670 998"><path style="fill:#0ff;stroke:#4c4c4c;stroke-width:2" d="M663,882 l0,-547 -657,0 0,547 1,6 1,6 2,5 3,5 4,6 4,5 5,5 6,5 6,5 8,5 8,4 8,5 9,4 10,4 11,4 10,4 12,3 12,4 12,3 13,3 14,3 13,3 14,2 15,2 15,2 15,2 16,1 16,2 16,1 16,0 17,1 17,0 16,0 17,-1 17,0 16,-1 16,-2 15,-1 15,-2 15,-2 15,-2 14,-2 14,-3 13,-3 13,-3 13,-3 12,-4 11,-3 11,-4 10,-4 10,-4 9,-4 9,-5 7,-4 8,-5 6,-5 6,-5 5,-5 5,-5 4,-6 2,-5 3,-5 1,-6 0,-6z" /><path style="fill:#8cd98c;stroke:#4c4c4c;stroke-width:2" d="M280,88 l0,-8 -1,-8 -2,-8 -3,-8 -4,-7 -4,-7 -4,-6 -6,-6 -5,-5 -7,-5 -7,-4 -7,-3 -7,-3 -8,-2 -9,-1 -8,-1 -8,1 -9,1 -8,2 -7,3 -7,3 -7,4 -6,5 -6,5 -5,6 -5,6 -4,7 -3,7 -3,8 -2,8 -2,8 0,8 0,247 164,0 0,-247z" /><path style="fill:#8cd98c;stroke:#4c4c4c;stroke-width:2" d="M554,88 l0,-8 -2,-8 -1,-8 -3,-8 -4,-7 -4,-7 -5,-6 -5,-6 -6,-5 -6,-5 -7,-4 -7,-3 -8,-3 -8,-2 -8,-1 -8,-1 -8,1 -9,1 -8,2 -7,3 -7,3 -7,4 -6,5 -6,5 -5,6 -5,6 -4,7 -4,7 -3,8 -1,8 -2,8 0,8 0,247 164,0 0,-247z" /><path style="fill:#fff;stroke:#4c4c4c;stroke-width:2" d="M286,828 l4,-1 4,-3 4,-3 3,-6 3,-6 2,-7 1,-7 1,-9 -1,-8 -1,-7 -2,-7 -3,-6 -3,-6 -4,-3 -4,-3 -4,-1 -176,83 -4,-1 -4,-3 -4,-3 -3,-6 -3,-6 -2,-7 -1,-7 -1,-9 1,-8 1,-7 2,-7 3,-6 3,-6 4,-3 4,-3 4,-1 176,83z" /><path style="fill:#fff" d="M559,828 l5,-1 4,-3 4,-3 3,-6 3,-6 2,-7 1,-7 0,-9 0,-8 -1,-7 -2,-7 -3,-6 -3,-6 -4,-3 -4,-3 -5,-1 -175,83 -4,-1 -5,-3 -3,-3 -3,-6 -3,-6 -2,-7 -1,-7 -1,-9 1,-8 1,-7 2,-7 3,-6 3,-6 3,-3 5,-3 4,-1 175,83z" /><path style="fill:none;stroke:#4c4c4c;stroke-width:2" d="M198,786 l0,-561" /><path style="fill:none;stroke:#4c4c4c;stroke-width:2" d="M559,828 l5,-1 4,-3 4,-3 3,-6 3,-6 2,-7 1,-7 0,-9 0,-8 -1,-7 -2,-7 -3,-6 -3,-6 -4,-3 -4,-3 -5,-1 -175,83 -4,-1 -5,-3 -3,-3 -3,-6 -3,-6 -2,-7 -1,-7 -1,-9 1,-8 1,-7 2,-7 3,-6 3,-6 3,-3 5,-3 4,-1 175,83" /><path style="fill:none;stroke:#4c4c4c;stroke-width:2" d="M472,786 l0,-561" /></svg>