<!DOCTYPE svg PUBLIC "-//W3C//DTD SVG 20000303 Stylable//EN" "http://www.w3.org/TR/2000/03/WD-SVG-20000303/DTD/svg-20000303-stylable.dtd"[]><svg xmlns="http://www.w3.org/2000/svg" width="998px" height="896px" viewBox="0 0 999 889"><path style="fill:#bfbfbf;stroke:#4c4c4c;stroke-width:2" d="M347,294 l130,76 -9,1 -8,2 -8,3 -8,4 -8,6 -7,6 -7,8 -6,8 -6,10 -4,9 -5,11 -3,12 -4,12 -2,12 -1,13 0,13 0,11 1,11 1,10 2,10 3,10 3,10 4,9 4,9 5,8 4,8 6,7 6,6 5,6 7,6 7,4 7,4 -131,-79 -7,-3 -6,-5 -7,-4 -6,-6 -6,-6 -5,-7 -5,-7 -4,-8 -4,-9 -4,-9 -3,-10 -3,-10 -2,-10 -1,-10 -1,-11 -1,-11 1,-13 1,-13 2,-12 3,-12 4,-12 4,-11 5,-9 6,-10 6,-8 7,-8 7,-6 8,-6 8,-4 8,-3 8,-2 9,-1z" /><path style="fill:#bfbfbf;stroke:#4c4c4c;stroke-width:2" d="M792,558 l-7,-3 -7,-4 -6,-5 -6,-6 -6,-6 -5,-7 -5,-7 -4,-8 -5,-9 -3,-9 -3,-9 -3,-10 -2,-10 -1,-11 -1,-11 -1,-10 1,-11 1,-11 1,-10 2,-10 3,-10 3,-10 3,-9 5,-9 4,-8 5,-7 5,-7 6,-6 6,-6 6,-4 7,-4 7,-3 -152,65 -7,3 -7,4 -6,5 -6,5 -6,7 -5,6 -5,8 -5,8 -4,8 -4,9 -3,10 -2,10 -2,10 -2,10 -1,11 0,11 0,11 1,10 2,11 2,10 2,10 3,9 4,9 4,9 5,8 5,7 5,7 6,7 6,5 6,5 7,4 7,3 152,-65z" /><path style="fill:#d9d9d9;stroke:#4c4c4c;stroke-width:2" d="M982,710 l-282,-21 2,-3 2,-5 1,-5 2,-5 1,-6 1,-7 2,-8 1,-8 1,-8 1,-9 0,-10 1,-10 0,-10 1,-10 0,-11 0,-11 0,-13 0,-13 -1,-12 -1,-12 -1,-12 -1,-11 -1,-9 -1,-10 -2,-8 -1,-8 -2,-6 -2,-6 -2,-4 -2,-3 -2,-2 -2,-1 282,22 2,1 2,2 2,3 2,4 2,6 2,6 2,8 1,8 2,9 1,10 1,11 1,11 0,13 1,12 1,13 0,13 0,11 -1,11 0,10 -1,10 0,10 -1,10 -1,9 -1,8 -1,8 -1,8 -2,7 -1,6 -2,5 -1,5 -2,4 -2,3z" /><path style="fill:#d9d9d9;stroke:#4c4c4c;stroke-width:2" d="M298,683 l-282,-11 -2,-3 -2,-4 -1,-5 -2,-5 -1,-7 -2,-6 -1,-8 -1,-8 -1,-9 -1,-9 -1,-9 0,-10 -1,-10 0,-11 0,-10 0,-11 0,-13 0,-13 1,-13 0,-12 1,-11 1,-11 1,-10 2,-9 1,-8 2,-8 2,-7 2,-5 2,-4 2,-4 2,-2 2,0 283,11 -2,0 -2,3 -2,3 -3,4 -1,5 -2,7 -2,8 -1,8 -2,9 -1,10 -1,11 -1,11 -1,12 0,13 -1,13 0,13 0,11 1,11 0,10 0,10 1,10 1,10 1,9 1,8 1,8 1,8 1,6 2,7 1,5 2,5 1,4 2,3z" /><path style="fill:#999;stroke:#4c4c4c;stroke-width:2" d="M716,585 l0,-16 -434,0 0,16 1,7 3,7 6,6 7,7 9,6 11,5 13,6 14,5 15,5 17,4 18,4 19,3 20,2 20,2 22,1 22,1 22,-1 22,-1 20,-2 20,-2 19,-3 18,-4 17,-4 16,-5 13,-5 13,-6 11,-5 9,-6 7,-7 6,-6 3,-7 1,-7z" /><ellipse style="fill:#ccc;stroke:#4c4c4c;stroke-width:2" cx="499" cy="558" rx="217" ry="76" /><path style="fill:#999" d="M651,554 l0,-202 -304,0 0,202 1,5 2,5 4,4 5,5 6,4 8,4 9,4 10,4 10,3 12,3 13,2 13,2 14,2 14,2 15,0 16,1 16,-1 15,0 14,-2 14,-2 13,-2 13,-2 12,-3 10,-3 10,-4 9,-4 8,-4 6,-4 5,-5 4,-4 2,-5 1,-5z" /><path style="fill:#b2b2b2" d="M608,554 l0,-13 0,-12 0,-13 0,-13 0,-13 0,-12 0,-13 0,-13 0,-12 0,-13 0,-13 0,-12 0,-13 0,-13 0,-12 0,-13 -13,0 -14,0 -14,0 -13,0 -14,0 -13,0 -14,0 -13,0 -14,0 -13,0 -14,0 -14,0 -13,0 -14,0 -14,0 -13,0 0,13 0,12 0,13 0,13 0,12 0,13 0,13 0,12 0,13 0,13 0,12 0,13 0,13 0,13 0,12 0,13 0,5 2,4 2,5 4,4 5,5 5,4 7,3 7,4 7,3 9,4 9,2 9,2 10,2 10,1 11,1 11,0 11,0 11,-1 11,-1 9,-2 10,-2 9,-2 8,-4 8,-3 7,-4 6,-3 6,-4 4,-5 4,-4 3,-5 1,-4 1,-5z" /><path style="fill:#ccc" d="M565,554 l0,-13 0,-12 0,-13 0,-13 0,-13 0,-12 0,-13 0,-13 0,-12 0,-13 0,-13 0,-12 0,-13 0,-13 0,-12 0,-13 -8,0 -9,0 -8,0 -8,0 -8,0 -8,0 -8,0 -8,0 -9,0 -8,0 -8,0 -8,0 -8,0 -9,0 -8,0 -8,0 0,13 0,12 0,13 0,13 0,12 0,13 0,13 0,12 0,13 0,13 0,12 0,13 0,13 0,13 0,12 0,13 0,5 1,4 2,5 2,4 3,5 3,4 4,3 4,4 5,3 5,4 5,2 6,2 6,2 6,1 7,1 6,0 7,0 7,-1 6,-1 6,-2 6,-2 5,-2 5,-4 5,-3 4,-4 4,-3 3,-4 2,-5 3,-4 1,-5 1,-4 1,-5z" /><path style="fill:#e5e5e5" d="M521,554 l0,-202 -44,0 0,202 0,10 2,9 2,8 2,8 4,6 3,4 4,4 5,1 5,-1 4,-4 3,-4 4,-6 2,-8 2,-8 2,-9 0,-10z" /><path style="fill:none;stroke:#4c4c4c;stroke-width:2" d="M651,554 l0,-202 -304,0 0,202 1,5 2,5 4,4 5,5 6,4 8,4 9,4 10,4 10,3 12,3 13,2 13,2 14,2 14,2 15,0 16,1 16,-1 15,0 14,-2 14,-2 13,-2 13,-2 12,-3 10,-3 10,-4 9,-4 8,-4 6,-4 5,-5 4,-4 2,-5 1,-5" /><ellipse style="fill:#ccc;stroke:#4c4c4c;stroke-width:2" cx="499" cy="351" rx="152" ry="43" /><path style="fill:#f2f2f2;stroke:#4c4c4c;stroke-width:2" d="M380,743 l7,-3 6,-4 7,-5 6,-6 6,-6 5,-6 5,-8 4,-8 5,-9 3,-9 4,-9 2,-10 2,-10 1,-11 1,-10 1,-11 -1,-13 -1,-14 -2,-12 -3,-12 -4,-11 -4,-11 -5,-10 -6,-9 -6,-9 -6,-7 -8,-7 -7,-5 -8,-5 -9,-3 -8,-2 -9,0 -217,108 9,1 8,2 9,3 8,4 7,6 8,6 6,8 6,8 6,10 5,10 4,10 4,12 3,12 2,12 1,13 1,14 -1,10 -1,11 -1,10 -2,11 -3,10 -3,9 -4,9 -3,9 -5,8 -5,7 -5,7 -6,6 -6,6 -6,5 -7,3 -7,4 217,-109z" /><path style="fill:#f2f2f2;stroke:#4c4c4c;stroke-width:2" d="M689,889 l-130,-152 7,-3 7,-4 6,-5 6,-5 6,-6 5,-7 5,-8 5,-8 3,-8 4,-9 3,-10 3,-10 2,-10 1,-10 1,-11 1,-11 -1,-13 -1,-13 -2,-12 -3,-12 -4,-12 -4,-11 -5,-9 -6,-10 -6,-8 -7,-8 -7,-6 -7,-6 -8,-4 -9,-3 -8,-2 -9,-1 130,152 9,0 8,3 9,3 8,4 7,5 8,7 6,8 7,8 5,9 5,10 5,11 3,11 3,12 2,13 2,13 0,13 0,11 -1,11 -2,10 -2,10 -2,10 -3,10 -4,9 -4,8 -5,8 -5,8 -5,6 -6,7 -6,5 -6,5 -7,4 -7,3z" /><path style="fill:#d9d9d9;stroke:#4c4c4c;stroke-width:2" d="M711,650 l-5,-3 -6,-3 -5,-3 -5,-3 -6,-2 -6,-1 -5,-1 -6,0 -130,-152 5,0 6,1 6,1 5,2 6,3 5,3 5,3 5,4 131,151z" /><path style="fill:#999" d="M607,342 l0,-321 -217,0 0,321 1,2 1,3 3,2 4,3 4,2 6,2 6,2 7,2 8,2 8,2 9,1 10,1 10,1 10,1 11,0 11,0 11,0 11,0 10,-1 10,-1 10,-1 8,-1 9,-2 8,-2 7,-2 6,-2 5,-2 5,-2 4,-3 2,-2 2,-3 0,-2z" /><path style="fill:#b2b2b2" d="M577,342 l0,-10 0,-10 0,-11 0,-10 0,-10 0,-10 1,-10 0,-10 0,-10 0,-10 0,-10 0,-10 0,-10 0,-10 0,-10 0,-10 0,-10 0,-10 0,-10 0,-10 0,-10 0,-10 0,-10 0,-10 0,-10 -1,-10 0,-10 0,-10 0,-10 0,-10 0,-10 0,-10 -10,0 -9,0 -10,0 -9,-1 -10,0 -10,0 -10,0 -9,0 -10,0 -10,0 -9,0 -11,0 -9,1 -10,0 -10,0 -9,0 0,10 0,10 0,10 0,10 0,10 0,10 0,10 0,10 0,10 0,10 0,10 0,10 0,10 0,10 0,10 0,10 0,10 0,10 0,10 0,10 0,10 0,10 0,10 0,10 0,10 0,10 0,10 0,10 0,10 0,11 0,10 0,10 0,2 1,3 2,2 3,2 3,3 4,2 4,2 5,2 6,2 6,1 7,2 6,1 7,1 8,0 7,1 8,0 8,0 8,-1 7,0 8,-1 6,-1 7,-2 6,-1 5,-2 5,-2 5,-2 4,-2 3,-3 3,-2 1,-2 2,-3 0,-2z" /><path style="fill:#ccc" d="M546,342 l0,-10 0,-10 0,-11 0,-10 0,-10 0,-10 1,-10 0,-10 0,-10 0,-10 0,-10 0,-10 0,-10 0,-10 0,-10 0,-10 0,-10 0,-10 0,-10 0,-10 0,-10 0,-10 0,-10 0,-10 0,-10 -1,-10 0,-10 0,-10 0,-10 0,-10 0,-10 0,-10 -6,0 -5,0 -6,0 -6,-1 -6,0 -6,0 -6,0 -6,0 -6,0 -5,0 -6,0 -6,0 -6,1 -6,0 -6,0 -6,0 0,10 0,10 0,10 0,10 0,10 0,10 0,10 0,10 0,10 0,10 0,10 0,10 0,10 0,10 0,10 0,10 0,10 0,10 0,10 0,10 0,10 0,10 0,10 0,10 0,10 0,10 0,10 0,10 0,10 0,11 0,10 0,10 1,5 3,4 4,5 6,4 7,3 8,3 9,1 9,1 10,-1 9,-1 8,-3 7,-3 5,-4 4,-5 3,-4 1,-5z" /><path style="fill:#e5e5e5" d="M515,342 l0,-321 -32,0 0,321 0,5 1,5 1,4 3,4 2,4 3,2 3,2 3,0 3,0 3,-2 3,-2 2,-4 3,-4 1,-4 1,-5 0,-5z" /><path style="fill:none;stroke:#4c4c4c;stroke-width:2" d="M607,342 l0,-321 -217,0 0,321 1,2 1,3 3,2 4,3 4,2 6,2 6,2 7,2 8,2 8,2 9,1 10,1 10,1 10,1 11,0 11,0 11,0 11,0 10,-1 10,-1 10,-1 8,-1 9,-2 8,-2 7,-2 6,-2 5,-2 5,-2 4,-3 2,-2 2,-3 0,-2" /><ellipse style="fill:#ccc;stroke:#4c4c4c;stroke-width:2" cx="498" cy="21" rx="108" ry="21" /><path style="fill:#fff" d="M217,613 l168,-92 27,32 -168,87 -27,-27z" /><path style="fill:#fff" d="M591,732 l22,-21 109,113 -17,22 -114,-114z" /></svg>