<!DOCTYPE svg PUBLIC "-//W3C//DTD SVG 20000303 Stylable//EN" "http://www.w3.org/TR/2000/03/WD-SVG-20000303/DTD/svg-20000303-stylable.dtd"[]><svg xmlns="http://www.w3.org/2000/svg" width="267px" height="999px" viewBox="0 0 112 500"><ellipse style="fill:#7f7f7f;stroke:#4c4c4c;stroke-width:2" cx="56" cy="483" rx="11" ry="16" /><ellipse style="fill:#b2b2b2" cx="56" cy="483" rx="9" ry="16" /><ellipse style="fill:#e5e5e5" cx="56" cy="483" rx="4" ry="16" /><ellipse style="fill:#7f7f7f;stroke:#4c4c4c;stroke-width:2" cx="56" cy="470" rx="11" ry="3" /><path style="fill:#7f7f7f;stroke:#4c4c4c;stroke-width:2" d="M62,231 l-11,0 0,240 11,0 0,-240z" /><path style="fill:#b2b2b2" d="M60,231 l-7,0 0,240 7,0 0,-240z" /><path style="fill:#fff" d="M57,231 l-1,0 0,240 1,0 0,-240z" /><path style="fill:#b2b2b2;stroke:#4c4c4c;stroke-width:2" d="M45,478 l-30,0 -15,15 45,0 0,-15z" /><path style="fill:#8c8c8c;stroke:#4c4c4c;stroke-width:2" d="M67,493 l30,0 15,-15 -45,0 0,15z" /><path style="fill:#999" d="M25,231 l0,-9 15,0 0,-50 -15,0 0,-10 62,0 0,10 -15,0 0,50 15,0 0,9 -62,0z" /><path style="fill:#b2b2b2" d="M30,231 l0,-9 13,0 0,-50 -13,0 0,-10 51,0 0,10 -12,0 0,50 12,0 0,9 -51,0z" /><path style="fill:#ccc" d="M40,231 l0,-9 8,0 0,-50 -8,0 0,-10 32,0 0,10 -8,0 0,50 8,0 0,9 -32,0z" /><path style="fill:#e5e5e5" d="M49,231 l0,-9 3,0 0,-50 -3,0 0,-10 13,0 0,10 -3,0 0,50 3,0 0,9 -13,0z" /><path style="fill:none;stroke:#4c4c4c;stroke-width:2" d="M25,231 l0,-9 15,0 0,-50 -15,0 0,-10 62,0 0,10 -15,0 0,50 15,0 0,9 -62,0" /><path style="fill:none;stroke:#4c4c4c;stroke-width:2" d="M40,172 l32,0" /><path style="fill:none;stroke:#4c4c4c;stroke-width:2" d="M40,222 l32,0" /><path style="fill:#ccc" d="M25,162 l62,0 0,-120 -62,0 0,120z" /><path style="fill:#d9d9d9" d="M32,162 l47,0 0,-120 -47,0 0,120z" /><path style="fill:#e5e5e5" d="M40,162 l32,0 0,-120 -32,0 0,120z" /><path style="fill:#f2f2f2" d="M47,162 l18,0 0,-120 -18,0 0,120z" /><path style="fill:none;stroke:#4c4c4c;stroke-width:2" d="M25,162 l62,0 0,-120 -62,0 0,120" /><path style="fill:#a6a6a6;stroke:#4c4c4c;stroke-width:2" d="M25,62 l62,0 0,45 -62,0 0,-45z" /><path style="fill:#b2b2b2;stroke:#4c4c4c;stroke-width:2" d="M42,107 l17,0 0,-37 -17,0 0,37z" /><path style="fill:#7f7f7f;stroke:#4c4c4c;stroke-width:2" d="M62,107 l7,0 0,-40 -7,0 0,40z" /><path style="fill:#7f7f7f;stroke:#4c4c4c;stroke-width:2" d="M72,107 l7,0 0,-40 -7,0 0,40z" /><path style="fill:#e5e5e5;stroke:#4c4c4c;stroke-width:2" d="M59,92 l25,0 0,15 -25,0 0,-15z" /><path style="fill:#e5e5e5;stroke:#4c4c4c;stroke-width:2" d="M30,107 l25,0 0,-22 -25,0 0,22z" /><path style="fill:#b2b2b2;stroke:#4c4c4c;stroke-width:2" d="M27,42 l57,0 0,-39 -57,0 0,39z" /><path style="fill:#ccc;stroke:#4c4c4c;stroke-width:2" d="M25,0 l62,0 0,3 -62,0 0,-3z" /><path style="fill:none;stroke:#4c4c4c;stroke-width:2" d="M37,5 l0,35" /><path style="fill:none;stroke:#4c4c4c;stroke-width:2" d="M47,5 l0,35" /><path style="fill:none;stroke:#4c4c4c;stroke-width:2" d="M56,5 l0,35" /><path style="fill:none;stroke:#4c4c4c;stroke-width:2" d="M65,5 l0,35" /><path style="fill:none;stroke:#4c4c4c;stroke-width:2" d="M74,5 l0,35" /></svg>