<!DOCTYPE svg PUBLIC "-//W3C//DTD SVG 20000303 Stylable//EN" "http://www.w3.org/TR/2000/03/WD-SVG-20000303/DTD/svg-20000303-stylable.dtd"[]><svg xmlns="http://www.w3.org/2000/svg" width="999px" height="829px" viewBox="0 0 999 821"><path style="fill:#666;stroke:#4c4c4c;stroke-width:2" d="M960,808 l18,-21 5,-37 -11,-48 -21,-46 -30,-42 -35,-33 -35,-14 -27,5 32,-8 40,11 39,31 31,41 20,47 8,50 -11,39 -23,25z" /><path style="fill:#666" d="M946,804 l-22,-20 -28,-38 -27,-43 -24,-45 -18,-43 -7,-30 4,-13 -6,14 4,32 17,43 24,46 27,43 30,36 24,20 16,2 -14,-4z" /><path style="fill:none;stroke:#4c4c4c;stroke-width:2" d="M960,808 l-14,-4 -22,-20 -28,-38 -27,-43 -24,-45 -18,-43 -7,-30 4,-13 -6,14 4,32 17,43 24,46 27,43 30,36 24,20 16,2" /><path style="fill:#999" d="M648,437 l17,30 148,-86 -17,-29 -148,85z" /><path style="fill:#b2b2b2" d="M677,420 l18,30 88,-52 -17,-29 -89,51z" /><path style="fill:#ccc" d="M707,403 l17,29 30,-16 -17,-30 -30,17z" /><path style="fill:#ccc" d="M264,659 l-63,-42 -102,-177 25,-93 354,-205 -26,-44 -127,53 -235,137 -68,18 -17,-29 286,-185 186,-88 104,78 44,-25 94,25 101,177 5,76 -561,324z" /><path style="fill:#b2b2b2" d="M201,617 l576,-333 -103,-177 45,-25 101,177 5,76 -561,324 -63,-42z" /><path style="fill:#e5e5e5" d="M143,414 l576,-332 -94,-25 -44,26 -104,-78 -186,87 -287,185 9,15 287,-185 164,-56 73,57 -413,239 -26,93 103,177 44,-26 -102,-177z" /><path style="fill:none;stroke:#4c4c4c;stroke-width:2" d="M648,437 l148,-85" /><path style="fill:#999" d="M493,134 l-35,-60 -141,62 -295,170 68,-18 235,-137 127,-53 26,44 15,-8z" /><path style="fill:none;stroke:#4c4c4c;stroke-width:2" d="M264,659 l-63,-42 -102,-177 25,-93 354,-205 -26,-44 -127,53 -235,137 -68,18 -17,-29 286,-185 186,-88 104,78 44,-25 94,25 101,177 5,76 -29,17 17,29 -148,86 -17,-30 -384,222" /><path style="fill:#7f7f7f" d="M724,432 l222,384 29,-17 -221,-383 -30,16z" /><path style="fill:#b2b2b2" d="M730,429 l222,384 17,-10 -221,-384 -18,10z" /><path style="fill:#fff" d="M736,425 l222,384 5,-3 -221,-383 -6,2z" /><path style="fill:none;stroke:#4c4c4c;stroke-width:2" d="M724,432 l222,384 29,-17 -221,-383 -30,16" /><path style="fill:#999;stroke:#4c4c4c;stroke-width:2" d="M960,808 l-27,4 -34,-14 -36,-33 -30,-41 -21,-47 -11,-47 6,-37 17,-21 -23,24 -11,40 8,49 20,47 31,41 39,32 40,10 32,-7z" /><path style="fill:#999" d="M964,794 l-7,-30 -18,-43 -23,-45 -27,-43 -29,-37 -22,-21 -14,-3 16,2 24,19 30,37 27,43 24,45 17,44 5,31 -7,15 4,-14z" /><path style="fill:none;stroke:#4c4c4c;stroke-width:2" d="M960,808 l4,-14 -7,-30 -18,-43 -23,-45 -27,-43 -29,-37 -22,-21 -14,-3 16,2 24,19 30,37 27,43 24,45 17,44 5,31 -7,15" /><path style="fill:#7f7f7f;stroke:#4c4c4c;stroke-width:2" d="M470,265 l133,-77 34,59 -133,77 -34,-59z" /><path style="fill:#ccc;stroke:#4c4c4c;stroke-width:2" d="M470,265 l88,-52 34,59 -88,52 -34,-59z" /><path style="fill:#b2b2b2;stroke:#4c4c4c;stroke-width:2" d="M485,256 l44,-25 34,58 -44,26 -34,-59z" /></svg>