<!DOCTYPE svg PUBLIC "-//W3C//DTD SVG 20000303 Stylable//EN" "http://www.w3.org/TR/2000/03/WD-SVG-20000303/DTD/svg-20000303-stylable.dtd"[]><svg xmlns="http://www.w3.org/2000/svg" width="325px" height="999px" viewBox="0 0 284 999"><path style="fill:#7f7f7f;stroke:#4c4c4c;stroke-width:2" d="M264,895 l-116,13 -4,0 -3,1 -4,1 -3,2 -3,2 -3,2 -2,3 -2,3 118,-14 2,-3 2,-2 3,-3 3,-2 3,-1 3,-1 3,-1 3,0z" /><path style="fill:#a6a6a6;stroke:#4c4c4c;stroke-width:2" d="M284,915 l0,-6 -1,-4 -1,-4 -2,-2 -3,-2 -3,-2 -5,0 -5,0 -116,13 5,1 4,1 5,3 3,3 4,5 2,5 1,5 1,6 111,-22z" /><path style="fill:#7f7f7f;stroke:#4c4c4c;stroke-width:2" d="M16,900 l97,11 4,0 3,1 3,1 3,1 2,2 2,2 2,2 2,3 -99,-11 -1,-3 -2,-2 -3,-2 -2,-2 -3,-1 -2,-1 -3,-1 -3,0z" /><path style="fill:#a6a6a6;stroke:#4c4c4c;stroke-width:2" d="M0,917 l0,-5 0,-4 1,-3 2,-2 2,-1 3,-1 4,-1 4,0 97,11 -4,0 -4,2 -3,2 -3,3 -2,4 -2,4 -2,4 0,5 -93,-18z" /><path style="fill:#7f7f7f;stroke:#4c4c4c;stroke-width:2" d="M109,414 l30,0 0,538 -30,0 0,-538z" /><path style="fill:#bfbfbf" d="M120,414 l8,0 0,538 -8,0 0,-538z" /><path style="fill:#060;stroke:#4c4c4c;stroke-width:2" d="M149,266 l0,14 47,0 0,-14 5,-38 -57,0 5,38z" /><path style="fill:#008c00" d="M161,266 l0,14 23,0 0,-14 3,-38 -29,0 3,38z" /><path style="fill:#060" d="M115,38 l0,152 20,38 76,0 19,-38 0,-152 -1,-8 -1,-6 -2,-7 -3,-6 -4,-5 -5,-3 -6,-3 -7,0 -3,0 -4,0 -3,0 -4,0 -4,0 -3,0 -4,0 -3,0 -4,0 -4,0 -3,0 -4,0 -3,0 -4,0 -3,0 -4,0 -6,0 -6,3 -5,3 -4,5 -4,6 -2,7 -1,6 -1,8z" /><path style="fill:#008c00" d="M135,38 l0,152 12,38 51,0 13,-38 0,-152 -1,-8 0,-6 -2,-7 -2,-6 -3,-5 -3,-3 -4,-3 -4,0 -5,0 -5,0 -5,0 -4,0 -5,0 -5,0 -5,0 -4,0 -5,0 -4,3 -3,3 -3,5 -2,6 -1,7 -1,6 0,8z" /><path style="fill:#00b200" d="M144,38 l0,152 10,38 38,0 9,-38 0,-152 0,-8 -1,-6 -1,-7 -1,-6 -2,-5 -3,-3 -3,-3 -3,0 -4,0 -3,0 -4,0 -3,0 -4,0 -4,0 -3,0 -4,0 -3,0 -3,3 -2,3 -2,5 -2,6 -1,7 -1,6 0,8z" /><path style="fill:#00d900" d="M163,38 l0,152 3,38 13,0 3,-38 0,-152 0,-8 0,-6 0,-7 -1,-6 -1,-5 0,-3 -1,-3 -2,0 -2,0 -2,0 -3,0 -2,0 -1,0 -1,3 -1,3 -1,5 0,6 -1,7 0,6 0,8z" /><path style="fill:none;stroke:#4c4c4c;stroke-width:2" d="M115,38 l0,152 20,38 76,0 19,-38 0,-152 -1,-8 -1,-6 -2,-7 -3,-6 -4,-5 -5,-3 -6,-3 -7,0 -3,0 -4,0 -3,0 -4,0 -4,0 -3,0 -4,0 -3,0 -4,0 -4,0 -3,0 -4,0 -3,0 -4,0 -3,0 -4,0 -6,0 -6,3 -5,3 -4,5 -4,6 -2,7 -1,6 -1,8" /><path style="fill:#060;stroke:#4c4c4c;stroke-width:2" d="M115,247 l34,0 0,33 -34,0 0,-33z" /><path style="fill:#060;stroke:#4c4c4c;stroke-width:2" d="M135,52 l95,0 0,138 -95,0 0,-138z" /><path style="fill:#008c00;stroke:#4c4c4c;stroke-width:2" d="M139,38 l10,0 0,152 -10,0 0,-152z" /><path style="fill:#008c00;stroke:#4c4c4c;stroke-width:2" d="M163,38 l10,0 0,152 -10,0 0,-152z" /><path style="fill:#008c00;stroke:#4c4c4c;stroke-width:2" d="M187,38 l9,0 0,152 -9,0 0,-152z" /><path style="fill:#008c00;stroke:#4c4c4c;stroke-width:2" d="M211,38 l9,0 0,152 -9,0 0,-152z" /><path style="fill:#004c00;stroke:#4c4c4c;stroke-width:2" d="M220,28 l24,0 0,152 -24,0 0,-152z" /><path style="fill:#00a600;stroke:#4c4c4c;stroke-width:2" d="M230,280 l-172,0 0,34 172,0 0,-34z" /><path style="fill:#00bf00;stroke:#4c4c4c;stroke-width:2" d="M249,314 l-210,0 0,14 210,0 0,-14z" /><path style="fill:#00bf00;stroke:#4c4c4c;stroke-width:2" d="M230,399 l-210,0 0,15 210,0 0,-15z" /><path style="fill:#008c00;stroke:#4c4c4c;stroke-width:2" d="M230,328 l-172,0 0,71 172,0 0,-71z" /><path style="fill:#fff" d="M163,294 l52,0 0,10 -52,0 0,-10z" /><path style="fill:#a6a6a6;stroke:#4c4c4c;stroke-width:2" d="M74,999 l-7,-58 3,-2 2,-3 4,-2 3,-2 3,-2 4,-2 4,-1 4,-2 4,-1 5,-1 4,-1 4,-1 5,-1 4,0 5,-1 5,0 5,0 4,1 5,0 5,1 4,1 4,1 4,1 5,1 3,2 4,1 4,2 3,2 3,2 3,2 3,3 2,2 -48,58 -3,-3 -3,-3 -4,-2 -4,-2 -5,-1 -5,-1 -5,-1 -5,0 -5,0 -6,1 -5,1 -4,1 -5,2 -4,2 -3,3 -3,3z" /><path style="fill:#e5e5e5" d="M118,972 l6,-41 20,0 -15,47 -11,-6z" /></svg>