<!DOCTYPE svg PUBLIC "-//W3C//DTD SVG 20000303 Stylable//EN" "http://www.w3.org/TR/2000/03/WD-SVG-20000303/DTD/svg-20000303-stylable.dtd"[]><svg xmlns="http://www.w3.org/2000/svg" width="679px" height="998px" viewBox="0 0 660 999"><path style="fill:#e5e5e5;stroke:#4c4c4c;stroke-width:2" d="M417,355 l18,5 -14,51 -18,-4 14,-52z" /><path style="fill:#e5e5e5;stroke:#4c4c4c;stroke-width:2" d="M169,383 l0,-134 161,0 0,134 -161,0z" /><path style="fill:none;stroke:#4c4c4c;stroke-width:2" d="M169,356 l18,0 0,-89 -18,0" /><path style="fill:none;stroke:#4c4c4c;stroke-width:2" d="M205,285 l89,0 0,89 -89,0 0,-89" /><path style="fill:none;stroke:#4c4c4c;stroke-width:2" d="M330,267 l-18,0 0,89 18,0" /><path style="fill:#e5e5e5;stroke:#4c4c4c;stroke-width:2" d="M374,999 l0,-54 286,0 0,36 -286,18z" /><path style="fill:#e5e5e5;stroke:#4c4c4c;stroke-width:2" d="M285,999 l0,-54 -285,0 0,36 285,18z" /><path style="fill:#e5e5e5;stroke:#4c4c4c;stroke-width:2" d="M267,954 l125,0 0,36 -125,0 0,-36z" /><path style="fill:#e5e5e5;stroke:#4c4c4c;stroke-width:2" d="M303,401 l80,0 0,-80 -80,0 0,80z" /><path style="fill:#e5e5e5;stroke:#4c4c4c;stroke-width:2" d="M214,0 l-12,0 -9,3 -6,3 -4,5 -3,5 -1,6 -1,7 0,6 0,179 9,0 0,6 0,7 1,6 1,5 2,5 4,3 4,2 6,1 3,0 4,0 6,0 5,0 6,0 7,0 7,0 7,0 7,0 7,0 6,0 6,0 6,0 5,0 4,0 3,0 6,-1 5,-2 3,-3 2,-5 1,-5 1,-6 0,-7 0,-6 9,0 0,-179 0,-6 -1,-7 -1,-6 -3,-5 -4,-5 -6,-3 -9,-3 -12,0 -71,0z" /><path style="fill:#e5e5e5;stroke:#4c4c4c;stroke-width:2" d="M187,383 l116,0 0,18 -116,0 0,-18z" /><path style="fill:#e5e5e5;stroke:#4c4c4c;stroke-width:2" d="M169,401 l0,187 63,0 0,9 53,0 0,9 89,0 0,-9 54,0 0,-9 62,0 0,-17 -53,0 0,-170 -268,0z" /><path style="fill:#e5e5e5;stroke:#4c4c4c;stroke-width:2" d="M303,945 l54,0 0,54 -54,0 0,-54z" /><path style="fill:#e5e5e5;stroke:#4c4c4c;stroke-width:2" d="M312,606 l36,0 0,339 -36,0 0,-339z" /><path style="fill:none;stroke:#4c4c4c;stroke-width:2" d="M437,571 l-268,0" /><path style="fill:none;stroke:#4c4c4c;stroke-width:2" d="M428,588 l-196,0" /><path style="fill:none;stroke:#4c4c4c;stroke-width:2" d="M374,597 l-89,0" /><path style="fill:none;stroke:#4c4c4c;stroke-width:2" d="M178,26 l143,0" /><path style="fill:none;stroke:#4c4c4c;stroke-width:2" d="M187,214 l125,0" /></svg>