<!DOCTYPE svg PUBLIC "-//W3C//DTD SVG 20000303 Stylable//EN" "http://www.w3.org/TR/2000/03/WD-SVG-20000303/DTD/svg-20000303-stylable.dtd"[]><svg xmlns="http://www.w3.org/2000/svg" width="527px" height="999px" viewBox="0 0 499 999"><path style="fill:#e5e5e5;stroke:#4c4c4c;stroke-width:2" d="M236,499 l27,0 0,500 -27,0 0,-500z" /><path style="fill:#e5e5e5;stroke:#4c4c4c;stroke-width:2" d="M175,243 l14,135 0,121 121,0 0,-121 14,-135 -149,0z" /><path style="fill:#e5e5e5;stroke:#4c4c4c;stroke-width:2" d="M263,189 l68,0 0,13 -68,0 0,-13z" /><path style="fill:#e5e5e5;stroke:#4c4c4c;stroke-width:2" d="M324,0 l9,0 6,2 5,2 3,4 2,4 1,5 1,5 0,5 0,135 -7,0 0,4 0,5 -1,5 -1,4 -1,4 -3,2 -3,2 -5,1 -2,0 -3,0 -4,0 -4,0 -5,0 -5,0 -5,0 -5,0 -6,0 -5,0 -5,0 -4,0 -5,0 -4,0 -3,0 -2,0 -5,-1 -3,-2 -2,-2 -2,-4 -1,-4 0,-5 -1,-5 0,-4 -6,0 0,-135 0,-5 0,-5 1,-5 2,-4 3,-4 5,-2 7,-2 9,0 54,0z" /><path style="fill:#e5e5e5;stroke:#4c4c4c;stroke-width:2" d="M175,202 l0,41 149,0 0,-14 27,0 0,-27 -176,0z" /><path style="fill:none;stroke:#4c4c4c;stroke-width:2" d="M351,27 l-108,0" /><path style="fill:none;stroke:#4c4c4c;stroke-width:2" d="M243,162 l108,0" /><path style="fill:none;stroke:#4c4c4c;stroke-width:2" d="M351,148 l-108,0" /><path style="fill:none;stroke:#4c4c4c;stroke-width:2" d="M175,216 l176,0" /><path style="fill:none;stroke:#4c4c4c;stroke-width:2" d="M189,378 l121,0" /><path style="fill:none;stroke:#4c4c4c;stroke-width:2" d="M189,391 l121,0" /><path style="fill:none;stroke:#4c4c4c;stroke-width:2" d="M189,405 l121,0" /><path style="fill:none;stroke:#4c4c4c;stroke-width:2" d="M189,486 l121,0" /><path style="fill:none;stroke:#4c4c4c;stroke-width:2" d="M209,486 l0,-48 0,-2 0,-3 0,-2 2,-2 1,-2 3,-1 3,-1 4,0 4,0 3,0 4,0 3,0 3,0 4,0 3,0 3,0 4,0 3,0 4,0 3,0 3,0 4,0 3,0 3,0 5,0 3,1 3,1 1,2 1,2 1,2 0,3 0,2 0,48" /><path style="fill:#e5e5e5;stroke:#4c4c4c;stroke-width:2" d="M216,999 l0,-41 -216,0 0,27 216,14z" /><path style="fill:#e5e5e5;stroke:#4c4c4c;stroke-width:2" d="M283,999 l0,-41 216,0 0,27 -216,14z" /><path style="fill:#e5e5e5;stroke:#4c4c4c;stroke-width:2" d="M283,796 l0,-40 216,0 0,27 -216,13z" /><path style="fill:#e5e5e5;stroke:#4c4c4c;stroke-width:2" d="M216,796 l0,-40 -216,0 0,27 216,13z" /><path style="fill:#e5e5e5;stroke:#4c4c4c;stroke-width:2" d="M202,762 l95,0 0,27 -95,0 0,-27z" /><path style="fill:#e5e5e5;stroke:#4c4c4c;stroke-width:2" d="M202,965 l95,0 0,27 -95,0 0,-27z" /><path style="fill:#e5e5e5;stroke:#4c4c4c;stroke-width:2" d="M229,958 l41,0 0,41 -41,0 0,-41z" /><path style="fill:#e5e5e5;stroke:#4c4c4c;stroke-width:2" d="M229,756 l41,0 0,40 -41,0 0,-40z" /></svg>