<!DOCTYPE svg PUBLIC "-//W3C//DTD SVG 20000303 Stylable//EN" "http://www.w3.org/TR/2000/03/WD-SVG-20000303/DTD/svg-20000303-stylable.dtd"[]><svg xmlns="http://www.w3.org/2000/svg" width="580px" height="999px" viewBox="0 0 278 500"><path style="fill:#7f7f7f;stroke:#4c4c4c;stroke-width:2" d="M2,55 l12,0 0,35 -12,0 0,-35z" /><path style="fill:#4c4c4c;stroke:#4c4c4c;stroke-width:2" d="M114,37 l15,0 0,70 -15,0 0,-70z" /><path style="fill:#4c4c4c;stroke:#4c4c4c;stroke-width:2" d="M12,134 l105,0 0,25 -105,0 0,-25z" /><path style="fill:#999;stroke:#4c4c4c;stroke-width:2" d="M89,436 l-8,12 73,-5 10,-10 -75,3z" /><path style="fill:#4c4c4c;stroke:#4c4c4c;stroke-width:2" d="M99,436 l-31,0 0,5 31,0 0,-5z" /><path style="fill:#4c4c4c;stroke:#4c4c4c;stroke-width:2" d="M31,428 l37,10 0,5 -37,-10 0,-5z" /><path style="fill:#ccc;stroke:#4c4c4c;stroke-width:2" d="M44,433 l21,-5 -47,-6 -13,0 39,11z" /><path style="fill:#999;stroke:#4c4c4c;stroke-width:2" d="M34,448 l10,-15 -39,-11 -5,8 34,18z" /><circle style="fill:#666;stroke:#4c4c4c;stroke-width:2" cx="64" cy="446" r="17" /><path style="fill:#7f7f7f;stroke:#4c4c4c;stroke-width:2" d="M70,167 l-11,0 0,267 11,0 0,-267z" /><path style="fill:#b2b2b2" d="M68,167 l-7,0 0,267 7,0 0,-267z" /><path style="fill:#fff" d="M66,167 l-2,0 0,267 2,0 0,-267z" /><path style="fill:#b2b2b2;stroke:#4c4c4c;stroke-width:2" d="M99,441 l-10,-5 75,-3 3,3 -68,5z" /><path style="fill:#4c4c4c;stroke:#4c4c4c;stroke-width:2" d="M61,446 l8,0 -14,18 -8,0 14,-18z" /><path style="fill:#b2b2b2;stroke:#4c4c4c;stroke-width:2" d="M60,454 l-23,0 -21,36 10,0 34,-36z" /><path style="fill:#7f7f7f;stroke:#4c4c4c;stroke-width:2" d="M26,490 l34,-36 16,15 -42,31 -8,-10z" /><path style="fill:#7f7f7f;stroke:#4c4c4c;stroke-width:2" d="M79,167 l-30,0 0,20 30,0 0,-20z" /><path style="fill:#b2b2b2" d="M74,167 l-20,0 0,20 20,0 0,-20z" /><path style="fill:#fff" d="M67,167 l-5,0 0,20 5,0 0,-20z" /><path style="fill:#b2b2b2;stroke:#4c4c4c;stroke-width:2" d="M119,167 l0,-10 -20,0 0,-20 -20,0 0,20 -30,0 0,-20 -20,0 0,20 -20,0 0,10 110,0z" /><path style="fill:#b2b2b2;stroke:#4c4c4c;stroke-width:2" d="M9,77 l3,-45 105,0 2,45 -110,0z" /><path style="fill:#ccc;stroke:#4c4c4c;stroke-width:2" d="M9,77 l110,0 0,57 -110,0 0,-57z" /><circle style="fill:#666;stroke:#4c4c4c;stroke-width:2" cx="22" cy="124" r="2" /><circle style="fill:#666;stroke:#4c4c4c;stroke-width:2" cx="22" cy="84" r="2" /><circle style="fill:#666;stroke:#4c4c4c;stroke-width:2" cx="22" cy="39" r="2" /><circle style="fill:#999;stroke:#4c4c4c;stroke-width:2" cx="22" cy="105" r="5" /><circle style="fill:#666;stroke:#4c4c4c;stroke-width:2" cx="106" cy="124" r="2" /><circle style="fill:#666;stroke:#4c4c4c;stroke-width:2" cx="106" cy="84" r="2" /><circle style="fill:#666;stroke:#4c4c4c;stroke-width:2" cx="106" cy="39" r="2" /><circle style="fill:#999;stroke:#4c4c4c;stroke-width:2" cx="107" cy="105" r="5" /><path style="fill:none;stroke:#fff;stroke-width:2" d="M9,77 l110,0" /><path style="fill:#7f7f7f" d="M124,22 l0,100 10,0 0,-5 50,0 0,-10 40,0 0,10 10,0 0,-22 17,0 0,-48 -17,0 0,-20 -10,0 0,10 -40,0 0,-10 -50,0 0,-5 -10,0z" /><path style="fill:#999" d="M124,32 l0,80 10,0 0,-4 50,0 0,-8 40,0 0,8 10,0 0,-18 17,0 0,-38 -17,0 0,-16 -10,0 0,8 -40,0 0,-8 -50,0 0,-4 -10,0z" /><path style="fill:#b2b2b2" d="M124,45 l0,55 10,0 0,-3 50,0 0,-6 40,0 0,6 10,0 0,-13 17,0 0,-26 -17,0 0,-10 -10,0 0,5 -40,0 0,-5 -50,0 0,-3 -10,0z" /><path style="fill:#ccc" d="M124,57 l0,30 10,0 0,-1 50,0 0,-3 40,0 0,3 10,0 0,-7 17,0 0,-14 -17,0 0,-6 -10,0 0,3 -40,0 0,-3 -50,0 0,-2 -10,0z" /><ellipse style="fill:#e5e5e5" cx="187" cy="72" rx="63" ry="5" /><path style="fill:none;stroke:#4c4c4c;stroke-width:2" d="M124,22 l0,100 10,0 0,-5 50,0 0,-10 40,0 0,10 10,0 0,-22 17,0 0,-48 -17,0 0,-20 -10,0 0,10 -40,0 0,-10 -50,0 0,-5 -10,0" /><path style="fill:none;stroke:#4c4c4c;stroke-width:2" d="M134,117 l0,-90" /><path style="fill:none;stroke:#4c4c4c;stroke-width:2" d="M184,107 l0,-70" /><path style="fill:none;stroke:#4c4c4c;stroke-width:2" d="M224,107 l0,-70" /><path style="fill:none;stroke:#4c4c4c;stroke-width:2" d="M234,95 l0,-48" /><path style="fill:#7f7f7f" d="M196,26 l0,19 23,0 0,-19 0,-1 0,-1 1,0 0,-1 1,0 1,0 0,-1 19,0 0,-22 -19,0 -2,0 -3,1 -3,0 -2,1 -2,1 -2,1 -2,2 -2,2 -2,2 -1,2 -2,2 -1,2 -1,2 0,3 -1,3 0,2z" /><path style="fill:#999" d="M222,1 l-2,1 -3,0 -2,1 -2,0 -2,1 -3,2 -1,1 -2,2 -2,1 -1,2 -1,2 -1,3 -1,2 -1,2 0,3 0,2 0,19 19,0 0,-19 0,-1 1,-1 0,-1 1,0 0,-1 1,-1 1,0 1,0 19,0 0,-20 -19,0z" /><path style="fill:#b2b2b2" d="M222,4 l19,0 0,15 -19,0 -1,0 -2,0 -1,1 -1,1 -1,1 -1,1 0,2 0,1 0,19 -15,0 0,-19 0,-2 0,-2 1,-2 1,-2 1,-2 1,-2 1,-2 1,-2 2,-1 2,-1 2,-2 2,0 2,-1 2,-1 2,0 2,0z" /><path style="fill:#ccc" d="M222,6 l-2,0 -2,1 -2,0 -2,1 -1,1 -2,1 -2,1 -1,1 -1,1 -1,2 -1,2 -1,1 -1,2 0,2 -1,2 0,2 0,19 10,0 0,-19 1,-2 0,-2 1,-1 1,-2 2,-1 2,-1 1,0 2,-1 19,0 0,-10 -19,0z" /><path style="fill:#e5e5e5" d="M222,8 l19,0 0,7 -19,0 -2,0 -2,0 -2,2 -2,1 -1,2 -1,2 -1,2 0,2 0,19 -7,0 0,-19 0,-2 0,-1 1,-2 1,-2 0,-1 1,-2 1,-1 1,-2 2,-1 1,-1 2,-1 1,-1 2,0 2,-1 1,0 2,0z" /><path style="fill:#fff" d="M222,10 l-1,0 -2,0 -2,1 -1,0 -2,1 -1,1 -1,1 -1,1 -1,1 -1,1 -1,1 -1,2 0,1 -1,2 0,2 0,1 0,19 3,0 0,-19 0,-3 1,-2 1,-2 2,-2 2,-2 2,-1 3,-1 2,0 19,0 0,-3 -19,0z" /><path style="fill:none;stroke:#4c4c4c;stroke-width:2" d="M241,0 l-19,0 -2,0 -3,1 -3,0 -2,1 -2,1 -2,1 -2,2 -2,2 -2,2 -1,2 -2,2 -1,2 -1,2 0,3 -1,3 0,2 0,19" /><path style="fill:none;stroke:#4c4c4c;stroke-width:2" d="M219,45 l0,-19 0,-1 0,-1 1,0 0,-1 1,0 1,0 0,-1 19,0" /><path style="fill:#7f7f7f" d="M218,45 l0,20 -21,0 0,-20 21,0z" /><path style="fill:#999" d="M216,45 l0,20 -17,0 0,-20 17,0z" /><path style="fill:#b2b2b2" d="M214,45 l0,20 -13,0 0,-20 13,0z" /><path style="fill:#ccc" d="M212,45 l0,20 -9,0 0,-20 9,0z" /><path style="fill:#e5e5e5" d="M211,45 l0,20 -6,0 0,-20 6,0z" /><path style="fill:#fff" d="M209,45 l0,20 -3,0 0,-20 3,0z" /><path style="fill:none;stroke:#4c4c4c;stroke-width:2" d="M218,45 l0,20 -21,0 0,-20 21,0" /><path style="fill:#7f7f7f" d="M241,1 l37,0 0,21 -37,0 0,-21z" /><path style="fill:#999" d="M241,2 l37,0 0,18 -37,0 0,-18z" /><path style="fill:#b2b2b2" d="M241,5 l37,0 0,13 -37,0 0,-13z" /><path style="fill:#ccc" d="M241,7 l37,0 0,9 -37,0 0,-9z" /><path style="fill:#e5e5e5" d="M241,8 l37,0 0,6 -37,0 0,-6z" /><path style="fill:#fff" d="M241,10 l37,0 0,3 -37,0 0,-3z" /><path style="fill:none;stroke:#4c4c4c;stroke-width:2" d="M241,1 l37,0 0,21 -37,0 0,-21" /></svg>