<!DOCTYPE svg PUBLIC "-//W3C//DTD SVG 20000303 Stylable//EN" "http://www.w3.org/TR/2000/03/WD-SVG-20000303/DTD/svg-20000303-stylable.dtd"[]><svg xmlns="http://www.w3.org/2000/svg" width="495px" height="999px" viewBox="0 0 233 500"><path style="fill:#999;stroke:#4c4c4c;stroke-width:2" d="M100,29 l86,0 0,10 -86,0 0,-10z" /><path style="fill:#7f7f7f;stroke:#4c4c4c;stroke-width:2" d="M149,450 l84,-31 -34,31 -50,19 0,-19z" /><path style="fill:#b2b2b2;stroke:#4c4c4c;stroke-width:2" d="M233,419 l-5,0 -79,29 0,2 84,-31z" /><path style="fill:#4c4c4c;stroke:#4c4c4c;stroke-width:2" d="M91,147 l105,0 0,21 -105,0 0,-21z" /><path style="fill:#7f7f7f;stroke:#4c4c4c;stroke-width:2" d="M154,472 l-1,2 -2,2 -4,1 -4,0 -5,0 -4,-1 -2,-2 -1,-2 0,-27 1,-2 2,-2 4,-1 5,0 4,0 4,1 2,2 1,2 0,27z" /><ellipse style="fill:#b2b2b2" cx="143" cy="458" rx="9" ry="18" /><ellipse style="fill:#e5e5e5" cx="143" cy="458" rx="4" ry="18" /><ellipse style="fill:#7f7f7f;stroke:#4c4c4c;stroke-width:2" cx="142" cy="444" rx="11" ry="4" /><path style="fill:#7f7f7f;stroke:#4c4c4c;stroke-width:2" d="M149,176 l-11,0 0,268 11,0 0,-268z" /><path style="fill:#b2b2b2" d="M147,176 l-7,0 0,268 7,0 0,-268z" /><path style="fill:#fff" d="M144,176 l-1,0 0,268 1,0 0,-268z" /><path style="fill:#7f7f7f;stroke:#4c4c4c;stroke-width:2" d="M158,175 l-30,0 0,20 30,0 0,-20z" /><path style="fill:#b2b2b2" d="M153,175 l-20,0 0,20 20,0 0,-20z" /><path style="fill:#fff" d="M146,175 l-5,0 0,20 5,0 0,-20z" /><path style="fill:#b2b2b2;stroke:#4c4c4c;stroke-width:2" d="M198,175 l0,-9 -20,0 0,-19 -20,0 0,19 -30,0 0,-19 -20,0 0,19 -20,0 0,9 110,0z" /><path style="fill:#b2b2b2;stroke:#4c4c4c;stroke-width:2" d="M141,471 l-70,29 -32,-45 97,-2 5,18z" /><path style="fill:#7f7f7f;stroke:#4c4c4c;stroke-width:2" d="M71,500 l-3,0 -34,-47 97,-3 5,3 -97,3 32,44z" /><path style="fill:#7f7f7f;stroke:#4c4c4c;stroke-width:2" d="M89,175 l24,0 0,8 -24,0 0,-8z" /><path style="fill:#7f7f7f;stroke:#4c4c4c;stroke-width:2" d="M173,175 l23,0 0,8 -23,0 0,-8z" /><path style="fill:#999;stroke:#4c4c4c;stroke-width:2" d="M105,147 l76,0 0,-40 -76,0 0,40z" /><path style="fill:#4c4c4c;stroke:#4c4c4c;stroke-width:2" d="M120,118 l45,0 0,26 -45,0 0,-26z" /><path style="fill:#bfbfbf;stroke:#4c4c4c;stroke-width:2" d="M105,107 l76,0 0,-99 -76,0 0,99z" /><path style="fill:#a6a6a6" d="M126,107 l34,0 0,-62 -34,0 0,62z" /><path style="fill:none;stroke:#4c4c4c;stroke-width:2" d="M126,45 l0,62" /><path style="fill:none;stroke:#4c4c4c;stroke-width:2" d="M160,107 l0,-62" /><path style="fill:#999;stroke:#4c4c4c;stroke-width:2" d="M110,102 l10,0 0,5 -10,0 0,-5z" /><path style="fill:#999;stroke:#4c4c4c;stroke-width:2" d="M165,102 l10,0 0,5 -10,0 0,-5z" /><circle style="fill:#a6a6a6;stroke:#4c4c4c;stroke-width:2" cx="114" cy="20" r="4" /><circle style="fill:#a6a6a6;stroke:#4c4c4c;stroke-width:2" cx="171" cy="20" r="3" /><circle style="fill:#a6a6a6;stroke:#4c4c4c;stroke-width:2" cx="114" cy="62" r="4" /><circle style="fill:#a6a6a6;stroke:#4c4c4c;stroke-width:2" cx="171" cy="62" r="3" /><path style="fill:#999;stroke:#4c4c4c;stroke-width:2" d="M115,5 l53,0 0,3 -53,0 0,-3z" /><path style="fill:#000;stroke:#4c4c4c;stroke-width:2" d="M136,118 l13,0 0,26 -13,0 0,-26z" /><path style="fill:#7f7f7f;stroke:#4c4c4c;stroke-width:2" d="M105,18 l-21,-10 0,52 21,-10 0,-32z" /><path style="fill:#b2b2b2" d="M105,25 l-21,-7 0,32 21,-6 0,-19z" /><path style="fill:#e5e5e5" d="M105,31 l-21,-2 0,10 21,-2 0,-6z" /><path style="fill:#b2b2b2;stroke:#4c4c4c;stroke-width:2" d="M84,0 l-11,0 0,68 11,0 0,-68z" /><path style="fill:none;stroke:#4c4c4c;stroke-width:2" d="M79,68 l0,-68" /><path style="fill:#8c8c8c;stroke:#4c4c4c;stroke-width:2" d="M26,18 l47,0 0,42 -47,0 0,-42z" /><path style="fill:#bfbfbf;stroke:#4c4c4c;stroke-width:2" d="M0,34 l26,0 0,26 -26,0 0,-26z" /><path style="fill:#bfbfbf;stroke:#4c4c4c;stroke-width:2" d="M29,13 l31,0 0,5 -31,0 0,-5z" /><path style="fill:none;stroke:#fff;stroke-width:2" d="M31,55 l0,-29 40,0" /><path style="fill:none;stroke:#4c4c4c;stroke-width:2" d="M5,55 l0,-16 16,0" /></svg>