<!DOCTYPE svg PUBLIC "-//W3C//DTD SVG 20000303 Stylable//EN" "http://www.w3.org/TR/2000/03/WD-SVG-20000303/DTD/svg-20000303-stylable.dtd"[]><svg xmlns="http://www.w3.org/2000/svg" width="714px" height="999px" viewBox="0 0 349 500"><path style="fill:#7f7f7f" d="M285,236 l60,0 0,18 -60,0 0,-18z" /><path style="fill:#b2b2b2" d="M285,239 l60,0 0,12 -60,0 0,-12z" /><path style="fill:#e5e5e5" d="M285,244 l60,0 0,3 -60,0 0,-3z" /><path style="fill:none;stroke:#4c4c4c;stroke-width:2" d="M285,236 l60,0 0,18 -60,0 0,-18" /><path style="fill:#b2b2b2;stroke:#4c4c4c;stroke-width:2" d="M269,190 l7,0 0,7 -7,0 0,-7z" /><path style="fill:#0000bf;stroke:#4c4c4c;stroke-width:2" d="M258,197 l24,0 0,7 -24,0 0,-7z" /><path style="fill:#00f;stroke:#4c4c4c;stroke-width:2" d="M283,215 l8,-22 -8,-20 -28,0 -8,20 8,22 28,0 -7,-11 -14,0 -4,-11 4,-11 14,0 4,11 -4,11 7,11z" /><path style="fill:#00f;stroke:#4c4c4c;stroke-width:2" d="M251,263 l0,-59 31,0 27,16 0,43 -15,0 0,-36 -16,-9 -13,0 0,45 -14,0z" /><path style="fill:#0000bf;stroke:#4c4c4c;stroke-width:2" d="M267,217 l24,0 0,7 -24,0 0,-7z" /><path style="fill:#e5e5e5;stroke:#4c4c4c;stroke-width:2" d="M264,190 l5,0 0,7 -5,0 0,-7z" /><path style="fill:#7f7f7f" d="M285,227 l-5,0 0,37 5,0 0,-37z" /><path style="fill:#b2b2b2" d="M285,233 l-5,0 0,25 5,0 0,-25z" /><path style="fill:#e5e5e5" d="M285,242 l-5,0 0,6 5,0 0,-6z" /><path style="fill:none;stroke:#4c4c4c;stroke-width:2" d="M285,227 l-5,0 0,37 5,0 0,-37" /><path style="fill:#0000b2;stroke:#4c4c4c;stroke-width:2" d="M226,104 l46,-81 61,35 -47,81 -60,-35z" /><path style="fill:#00c" d="M232,107 l47,-80 47,27 -46,81 -48,-28z" /><path style="fill:#0000e5" d="M242,113 l47,-80 27,15 -47,81 -27,-16z" /><path style="fill:#00f" d="M253,119 l46,-80 7,3 -47,81 -6,-4z" /><path style="fill:#00f;stroke:#4c4c4c;stroke-width:2" d="M305,82 l12,-20 20,12 -12,20 -20,-12z" /><path style="fill:#999;stroke:#4c4c4c;stroke-width:2" d="M88,462 l-12,7 64,31 13,-3 -65,-35z" /><path style="fill:#4c4c4c;stroke:#4c4c4c;stroke-width:2" d="M97,467 l-26,-15 -3,4 27,15 2,-4z" /><path style="fill:#4c4c4c;stroke:#4c4c4c;stroke-width:2" d="M44,427 l26,26 -3,5 -26,-27 3,-4z" /><path style="fill:#ccc;stroke:#4c4c4c;stroke-width:2" d="M52,438 l20,6 -37,-28 -11,-6 28,28z" /><path style="fill:#999;stroke:#4c4c4c;stroke-width:2" d="M36,446 l16,-8 -28,-28 -8,4 20,32z" /><circle style="fill:#666;stroke:#4c4c4c;stroke-width:2" cx="63" cy="459" r="17" /><path style="fill:#7f7f7f;stroke:#4c4c4c;stroke-width:2" d="M204,226 l-10,-6 -130,226 10,6 130,-226z" /><path style="fill:#b2b2b2" d="M202,225 l-6,-4 -131,226 7,4 130,-226z" /><path style="fill:#fff" d="M200,224 l-2,-1 -130,225 2,1 130,-225z" /><path style="fill:#b2b2b2;stroke:#4c4c4c;stroke-width:2" d="M95,471 l-7,-9 65,35 1,3 -59,-29z" /><path style="fill:#4c4c4c;stroke:#4c4c4c;stroke-width:2" d="M60,457 l7,4 -21,8 -7,-3 21,-9z" /><path style="fill:#b2b2b2;stroke:#4c4c4c;stroke-width:2" d="M55,463 l-20,-11 -35,20 9,5 46,-14z" /><path style="fill:#7f7f7f;stroke:#4c4c4c;stroke-width:2" d="M9,477 l46,-14 6,21 -50,6 -2,-13z" /><path style="fill:#7f7f7f;stroke:#4c4c4c;stroke-width:2" d="M193,219 l1,-26 31,18 -22,14 -10,-6z" /><path style="fill:#b2b2b2" d="M195,220 l4,-24 21,12 -19,16 -6,-4z" /><path style="fill:#e5e5e5" d="M196,221 l9,-22 10,6 -15,18 -4,-2z" /><path style="fill:#0000d9" d="M196,194 l8,-76 12,-20 80,46 -11,21 -62,45 -27,-16z" /><path style="fill:#00f" d="M199,196 l14,-73 12,-20 62,36 -11,20 -56,49 -21,-12z" /><path style="fill:#5959ff" d="M203,198 l23,-67 12,-20 36,20 -12,21 -47,53 -12,-7z" /><path style="fill:#7f7fff" d="M208,201 l32,-62 12,-20 8,5 -11,20 -38,59 -3,-2z" /><path style="fill:none;stroke:#4c4c4c;stroke-width:2" d="M196,194 l8,-76 12,-20 80,46 -11,21 -62,45 -27,-16" /><path style="fill:#0000d9" d="M262,17 l17,-17 70,41 -6,23 -81,-47z" /><path style="fill:#00f" d="M271,22 l16,-18 55,32 -8,23 -63,-37z" /><path style="fill:#5959ff" d="M285,30 l13,-19 32,18 -9,22 -36,-21z" /><path style="fill:#7f7fff" d="M298,38 l12,-20 8,5 -11,20 -9,-5z" /><path style="fill:none;stroke:#4c4c4c;stroke-width:2" d="M262,17 l17,-17 70,41 -6,23 -81,-47" /></svg>