<!DOCTYPE svg PUBLIC "-//W3C//DTD SVG 20000303 Stylable//EN" "http://www.w3.org/TR/2000/03/WD-SVG-20000303/DTD/svg-20000303-stylable.dtd"[]><svg xmlns="http://www.w3.org/2000/svg" width="999px" height="370px" viewBox="0 0 998 339"><path style="fill:#7f7f7f" d="M4,221 l989,0 0,-103 -989,0 0,103z" /><path style="fill:#999" d="M5,209 l989,0 0,-81 -989,0 0,81z" /><path style="fill:#b2b2b2" d="M5,198 l989,0 0,-58 -989,0 0,58z" /><path style="fill:#ccc" d="M5,187 l989,0 0,-37 -989,0 0,37z" /><path style="fill:#e5e5e5" d="M4,176 l989,0 0,-14 -989,0 0,14z" /><path style="fill:none;stroke:#4c4c4c;stroke-width:2" d="M4,221 l42,0 0,-103 -42,0 0,103" /><path style="fill:#4c4c4c" d="M169,313 l-41,-41 -41,0 -21,-41 -20,0 0,-124 20,0 21,-41 41,0 41,-41 659,0 42,41 41,0 21,41 20,0 0,124 -20,0 -21,41 -41,0 -42,41 -659,0z" /><path style="fill:#5e5e5e" d="M170,293 l-42,-36 -41,0 -20,-35 -21,0 0,-106 21,0 20,-35 41,0 42,-36 659,0 41,36 41,0 21,35 20,0 0,106 -20,0 -21,35 -41,0 -41,36 -659,0z" /><path style="fill:#6e6e6e" d="M170,272 l-42,-30 -41,0 -20,-29 -21,0 0,-89 21,0 20,-29 41,0 42,-29 659,0 41,29 41,0 21,29 20,0 0,89 -20,0 -21,29 -41,0 -41,30 -659,0z" /><path style="fill:#7f7f7f" d="M170,251 l-42,-23 -41,0 -20,-24 -21,0 0,-71 21,0 20,-23 41,0 42,-24 659,0 41,24 41,0 21,23 20,0 0,71 -20,0 -21,24 -41,0 -41,23 -659,0z" /><path style="fill:#919191" d="M170,231 l-42,-18 -41,0 -20,-18 -21,0 0,-53 21,0 20,-18 41,0 42,-17 659,0 41,17 41,0 21,18 20,0 0,53 -20,0 -21,18 -41,0 -41,18 -659,0z" /><path style="fill:#a1a1a1" d="M170,210 l-42,-12 -41,0 -20,-12 -21,0 0,-35 21,0 20,-12 41,0 42,-12 659,0 41,12 41,0 21,12 20,0 0,35 -20,0 -21,12 -41,0 -41,12 -659,0z" /><path style="fill:#b2b2b2" d="M169,185 l-41,-5 -41,0 -21,-4 -20,0 0,-14 20,0 21,-4 41,0 41,-5 659,0 42,5 41,0 21,4 20,0 0,14 -20,0 -21,4 -41,0 -42,5 -659,0z" /><path style="fill:none;stroke:#4c4c4c;stroke-width:2" d="M169,313 l-41,-41 -41,0 -21,-41 -20,0 0,-124 20,0 21,-41 41,0 41,-41 659,0 42,41 41,0 21,41 20,0 0,124 -20,0 -21,41 -41,0 -42,41 -659,0" /><path style="fill:#b2b2b2;stroke:#4c4c4c;stroke-width:2" d="M169,4 l659,0 0,330 -659,0 0,-330z" /><path style="fill:#e5e5e5;stroke:#4c4c4c;stroke-width:2" d="M200,35 l597,0 0,268 -597,0 0,-268z" /><path style="fill:#7f7f7f;stroke:#4c4c4c;stroke-width:2" d="M200,221 l597,0 0,-103 -597,0 0,103z" /><path style="fill:#4c4c4c;stroke:#4c4c4c;stroke-width:2" d="M226,221 l33,-111 13,-17 16,-6 15,6 14,17 2,8 -31,0 -33,110 -14,18 -15,6 -16,-6 -5,-5 0,-20 21,0z" /><path style="fill:#4c4c4c;stroke:#4c4c4c;stroke-width:2" d="M348,221 l31,-111 13,-17 16,-6 15,6 14,17 2,8 -31,0 -31,110 -14,18 -15,6 -16,-6 -13,-18 -2,-7 31,0z" /><path style="fill:#4c4c4c;stroke:#4c4c4c;stroke-width:2" d="M468,221 l33,-111 14,-17 15,-6 16,6 13,17 2,8 -31,0 -32,110 -14,18 -16,6 -15,-6 -14,-18 -2,-7 31,0z" /><path style="fill:#4c4c4c;stroke:#4c4c4c;stroke-width:2" d="M590,221 l31,-111 14,-17 15,-6 16,6 13,17 2,8 -31,0 -31,110 -13,18 -16,6 -15,-6 -14,-18 -2,-7 31,0z" /><path style="fill:#4c4c4c;stroke:#4c4c4c;stroke-width:2" d="M710,221 l31,-111 14,-17 15,-6 16,6 7,9 0,16 -23,0 -31,110 -13,18 -16,6 -15,-6 -14,-18 -2,-7 31,0z" /><path style="fill:none;stroke:#fff;stroke-width:2" d="M911,272 l0,-206" /><path style="fill:none;stroke:#fff;stroke-width:2" d="M87,272 l0,-206" /><path style="fill:none;stroke:#4c4c4c;stroke-width:2" d="M932,231 l0,-124" /><path style="fill:none;stroke:#4c4c4c;stroke-width:2" d="M870,272 l0,-206" /><path style="fill:none;stroke:#4c4c4c;stroke-width:2" d="M66,231 l0,-124" /><path style="fill:none;stroke:#4c4c4c;stroke-width:2" d="M128,272 l0,-206" /></svg>