<!DOCTYPE svg PUBLIC "-//W3C//DTD SVG 20000303 Stylable//EN" "http://www.w3.org/TR/2000/03/WD-SVG-20000303/DTD/svg-20000303-stylable.dtd"[]><svg xmlns="http://www.w3.org/2000/svg" width="563px" height="999px" viewBox="0 0 538 999"><path style="fill:#7f7f7f;stroke:#4c4c4c;stroke-width:2" d="M265,901 l-265,7 91,-56 356,84 91,-49 -259,0 21,112 -132,-49 97,-49z" /><path style="fill:#000;stroke:#4c4c4c;stroke-width:2" d="M258,342 l35,0 0,559 -35,0 0,-559z" /><path style="fill:#7f7f7f;stroke:#4c4c4c;stroke-width:2" d="M146,39 l0,284 2,4 3,4 3,4 5,4 6,3 6,3 8,3 8,3 9,3 9,2 11,2 10,2 12,1 12,1 12,1 12,0 13,0 12,-1 11,-1 12,-1 10,-2 10,-2 10,-2 9,-2 8,-3 7,-3 6,-3 5,-3 5,-3 3,-3 2,-4 1,-3 0,-292 -2,-3 -2,-3 -3,-4 -5,-3 -6,-3 -6,-3 -7,-3 -8,-2 -9,-3 -9,-2 -10,-2 -11,-1 -10,-2 -12,-1 -12,0 -12,0 -12,0 -12,0 -12,1 -11,2 -10,1 -10,2 -10,2 -9,3 -8,3 -8,3 -7,3 -5,4 -5,3 -4,4 -3,4 -2,4z" /><path style="fill:none;stroke:#4c4c4c;stroke-width:2" d="M398,44 l-1,4 -2,4 -4,4 -5,3 -5,4 -6,3 -7,3 -8,3 -9,3 -10,2 -10,2 -10,1 -11,2 -12,1 -12,1 -12,0 -13,0 -12,-1 -12,-1 -12,-2 -10,-1 -11,-3 -9,-2 -9,-3 -8,-3 -7,-3 -6,-3 -6,-4 -4,-4 -3,-4 -2,-4 -1,-4 0,-1 0,0 0,-1 0,0" /><path style="fill:#fff;stroke:#fff;stroke-width:2" d="M335,97 l28,0 0,231 -28,0 0,-231z" /><path style="fill:#000;stroke:#4c4c4c;stroke-width:2" d="M195,97 l14,0 0,231 -14,0 0,-231z" /><path style="fill:#7f7f7f;stroke:#4c4c4c;stroke-width:2" d="M146,195 l-62,0 0,-111 62,0 0,111z" /></svg>