<!DOCTYPE svg PUBLIC "-//W3C//DTD SVG 20000303 Stylable//EN" "http://www.w3.org/TR/2000/03/WD-SVG-20000303/DTD/svg-20000303-stylable.dtd"[]><svg xmlns="http://www.w3.org/2000/svg" width="911px" height="999px" viewBox="0 0 907 998"><path style="fill:#000;stroke:#4c4c4c;stroke-width:2" d="M337,756 l29,0 0,-60 -29,0 0,60z" /><path style="fill:#000;stroke:#4c4c4c;stroke-width:2" d="M845,756 l29,0 0,-60 -29,0 0,60z" /><path style="fill:#b2b2b2" d="M282,537 l-47,0 0,70 47,0 0,-18 10,0 0,-12 -1,0 -1,0 -2,0 -1,0 -1,0 -2,0 -1,0 -1,0 0,-3 0,-2 0,-3 0,-3 0,-3 0,-3 0,-2 0,-3 1,0 1,0 2,0 1,0 1,0 2,0 1,0 1,0 0,-13 -1,0 -1,0 -2,0 -1,0 -1,0 -2,0 -1,0 -1,0 0,0 0,-1 0,-2 0,-2z" /><path style="fill:#b2b2b2" d="M326,537 l0,70 -17,0 0,-18 -10,0 0,-12 1,0 1,0 2,0 1,0 2,0 1,0 1,0 1,0 0,-3 0,-2 0,-3 0,-3 0,-3 0,-3 0,-2 0,-3 -1,0 -1,0 -1,0 -2,0 -1,0 -2,0 -1,0 -1,0 0,-13 1,0 1,0 2,0 1,0 2,0 1,0 1,0 1,0 0,0 0,-1 0,-2 0,-2 17,0z" /><path style="fill:#b2b2b2" d="M178,582 l-3,52 0,57 -2,60 -5,59 -5,57 -10,55 -15,47 -10,22 22,-7 28,-28 20,-42 15,-57 7,-62 5,-69 -3,-69 -7,-70 -37,-5z" /><path style="fill:#b2b2b2" d="M312,756 l575,0 0,111 -575,0 0,-111z" /><path style="fill:#f0f0f0" d="M832,369 l52,0 0,327 -52,0 0,-327z" /><path style="fill:#f0f0f0" d="M832,384 l0,297 -456,0 0,-297 456,0z" /><path style="fill:#f0f0f0" d="M326,369 l50,0 0,327 -50,0 0,-327z" /><path style="fill:#f0f0f0" d="M91,17 l32,29 23,43 15,49 9,60 3,64 0,67 -5,69 -5,70 7,0 25,25 18,44 7,-89 5,-91 0,-90 -5,-82 -10,-72 -17,-56 -28,-38 -37,-15 -37,13z" /><path style="fill:#f0f0f0" d="M39,473 l-15,0 0,62 189,0 -18,-42 -25,-25 -52,-5 -79,10z" /><path style="fill:#f0f0f0" d="M178,582 l-3,52 0,57 -2,60 -5,59 -5,57 -10,55 -15,47 -10,22 -12,3 -32,-13 -23,-32 -20,-49 -12,-65 -7,-72 -3,-79 3,-77 2,-77 35,32 39,13 50,5 30,2z" /><path style="fill:#e0e0e0" d="M282,537 l-47,0 0,-67 47,0 0,15 10,0 0,13 -1,0 -1,0 -2,0 -1,0 -1,0 -2,0 -1,0 -1,0 0,3 0,2 0,3 0,3 0,3 0,3 0,2 0,3 1,0 1,0 2,0 1,0 1,0 2,0 1,0 1,0 0,13 -1,0 -1,0 -2,0 -1,0 -1,0 -2,0 -1,0 -1,0 0,1 0,1 0,1 0,1z" /><path style="fill:#e0e0e0" d="M326,537 l0,-67 -17,0 0,15 -10,0 0,13 1,0 1,0 2,0 1,0 2,0 1,0 1,0 1,0 0,3 0,2 0,3 0,3 0,3 0,3 0,2 0,3 -1,0 -1,0 -1,0 -2,0 -1,0 -2,0 -1,0 -1,0 0,13 1,0 1,0 2,0 1,0 2,0 1,0 1,0 1,0 0,1 0,1 0,1 0,1 17,0z" /><path style="fill:#e0e0e0" d="M123,46 l23,43 15,49 9,60 3,64 0,67 -5,69 -5,70 7,0 25,25 18,44 -18,-44 -25,-25 -52,-5 -94,10 -7,-79 -5,-80 2,-79 10,-74 15,-62 22,-50 30,-32 32,29z" /><path style="fill:#e0e0e0" d="M215,585 l-67,-5 -50,-5 -39,-13 -27,-27 183,0 0,50z" /><path style="fill:#e0e0e0" d="M24,560 l0,-25 0,25z" /><path style="fill:#fff" d="M326,404 l50,0 0,-20 -50,0 0,20z" /><path style="fill:#fff" d="M832,396 l0,20 -456,0 0,-20 456,0z" /><path style="fill:#fff" d="M832,404 l52,0 0,-20 -52,0 0,20z" /><path style="fill:none;stroke:#4c4c4c;stroke-width:2" d="M215,587 l-67,-7 -50,-5 -39,-13 -35,-32 -2,77 -3,77 3,79 7,72 12,65 20,49 23,32 32,13 34,-10 28,-28 20,-42 15,-57 7,-62 5,-69 -3,-69 -7,-70" /><path style="fill:none;stroke:#4c4c4c;stroke-width:2" d="M24,473 l94,-10 52,5 25,25 18,44 7,-89 5,-91 0,-90 -5,-82 -10,-72 -17,-56 -28,-38 -37,-15 -37,13 -30,32 -22,50 -15,62 -10,74 -2,79 5,80 7,79" /><path style="fill:none;stroke:#4c4c4c;stroke-width:2" d="M326,369 l50,0 0,327 -50,0 0,-327" /><path style="fill:none;stroke:#4c4c4c;stroke-width:2" d="M832,369 l52,0 0,327 -52,0 0,-327" /><path style="fill:none;stroke:#4c4c4c;stroke-width:2" d="M832,384 l0,297 -456,0 0,-297 456,0" /><path style="fill:#7f7f7f;stroke:#4c4c4c;stroke-width:2" d="M317,371 l7,0 0,23 -7,0 0,-23z" /><path style="fill:#7f7f7f;stroke:#4c4c4c;stroke-width:2" d="M317,666 l7,0 0,20 -7,0 0,-20z" /><path style="fill:#7f7f7f;stroke:#4c4c4c;stroke-width:2" d="M317,580 l7,0 0,20 -7,0 0,-20z" /><path style="fill:#7f7f7f;stroke:#4c4c4c;stroke-width:2" d="M317,461 l7,0 0,19 -7,0 0,-19z" /><path style="fill:#7f7f7f;stroke:#4c4c4c;stroke-width:2" d="M832,629 l52,0 0,67 -52,0 0,-67z" /><path style="fill:#7f7f7f;stroke:#4c4c4c;stroke-width:2" d="M832,622 l0,59 -456,0 0,-59 456,0z" /><path style="fill:#7f7f7f;stroke:#4c4c4c;stroke-width:2" d="M326,629 l50,0 0,67 -50,0 0,-67z" /><path style="fill:#7f7f7f;stroke:#4c4c4c;stroke-width:2" d="M884,575 l0,-87 18,0 0,87 -18,0z" /><path style="fill:#7f7f7f;stroke:#4c4c4c;stroke-width:2" d="M4,508 l22,0 0,47 -22,0 0,-47z" /><path style="fill:#7f7f7f;stroke:#4c4c4c;stroke-width:2" d="M235,557 l0,-49 -18,0 0,49 18,0z" /><path style="fill:#7f7f7f;stroke:#4c4c4c;stroke-width:2" d="M287,520 l0,0 1,0 2,0 2,0 0,13 -2,0 -2,0 -1,0 0,0 0,9 0,0 1,0 2,0 2,0 0,13 -2,0 -2,0 -1,0 0,0 0,2 17,0 0,-2 -2,0 -1,0 -1,0 -1,0 0,-13 1,0 1,0 1,0 2,0 0,-9 -2,0 -1,0 -1,0 -1,0 0,-13 1,0 1,0 1,0 2,0 0,-12 -17,0 0,12z" /></svg>