<!DOCTYPE svg PUBLIC "-//W3C//DTD SVG 20000303 Stylable//EN" "http://www.w3.org/TR/2000/03/WD-SVG-20000303/DTD/svg-20000303-stylable.dtd"[]><svg xmlns="http://www.w3.org/2000/svg" width="409px" height="999px" viewBox="0 0 374 999"><path style="fill:#d9d9d9;stroke:#4c4c4c;stroke-width:2" d="M150,988 l37,-83 -88,0 -37,83 88,0z" /><path style="fill:#666;stroke:#4c4c4c;stroke-width:2" d="M69,277 l191,0 0,113 -191,0 0,-113z" /><path style="fill:#7f7f7f;stroke:#4c4c4c;stroke-width:2" d="M103,321 l165,0 0,69 -165,0 0,-69z" /><path style="fill:#999;stroke:#4c4c4c;stroke-width:2" d="M0,251 l268,0 0,26 -268,0 0,-26z" /><path style="fill:#666" d="M112,34 l148,0 0,217 -148,0 0,-217z" /><path style="fill:#666" d="M103,34 l165,0 0,-34 -165,0 0,34z" /><path style="fill:#666;stroke:#4c4c4c;stroke-width:2" d="M0,243 l17,0 0,8 -17,0 0,-8z" /><path style="fill:#787878" d="M128,34 l7,0 7,0 8,0 7,0 7,0 8,0 7,0 7,0 8,0 7,0 7,0 7,0 8,0 7,0 7,0 8,0 0,7 0,7 0,7 0,6 0,7 0,7 0,7 0,6 0,7 0,7 0,7 0,7 0,6 0,7 0,7 0,7 0,6 0,7 0,7 0,7 0,7 0,6 0,7 0,7 0,6 0,7 0,7 0,7 0,7 0,6 0,7 0,7 -8,0 -7,0 -7,0 -8,0 -7,0 -7,0 -7,0 -8,0 -7,0 -7,0 -8,0 -7,0 -7,0 -8,0 -7,0 -7,0 0,-7 0,-7 0,-6 0,-7 0,-7 0,-7 0,-7 0,-6 0,-7 0,-7 0,-6 0,-7 0,-7 0,-7 0,-7 0,-6 0,-7 0,-7 0,-7 0,-6 0,-7 0,-7 0,-7 0,-7 0,-6 0,-7 0,-7 0,-7 0,-6 0,-7 0,-7 0,-7z" /><path style="fill:#8c8c8c" d="M143,34 l5,0 6,0 5,0 6,0 5,0 6,0 5,0 6,0 5,0 5,0 5,0 6,0 5,0 6,0 5,0 5,0 0,7 0,7 0,7 0,6 0,7 0,7 0,7 0,6 0,7 0,7 0,7 0,7 0,6 0,7 0,7 0,7 0,6 0,7 0,7 0,7 0,7 0,6 0,7 0,7 0,6 0,7 0,7 0,7 0,7 0,6 0,7 0,7 -5,0 -5,0 -6,0 -5,0 -6,0 -5,0 -5,0 -5,0 -6,0 -5,0 -6,0 -5,0 -6,0 -5,0 -6,0 -5,0 0,-7 0,-7 0,-6 0,-7 0,-7 0,-7 0,-7 0,-6 0,-7 0,-7 0,-6 0,-7 0,-7 0,-7 0,-7 0,-6 0,-7 0,-7 0,-7 0,-6 0,-7 0,-7 0,-7 0,-7 0,-6 0,-7 0,-7 0,-7 0,-6 0,-7 0,-7 0,-7z" /><path style="fill:#9e9e9e" d="M158,34 l4,0 3,0 4,0 3,0 4,0 4,0 3,0 4,0 3,0 4,0 3,0 3,0 4,0 3,0 4,0 3,0 0,7 0,7 0,7 0,6 0,7 0,7 0,7 0,6 0,7 0,7 0,7 0,7 0,6 0,7 0,7 0,7 0,6 0,7 0,7 0,7 0,7 0,6 0,7 0,7 0,6 0,7 0,7 0,7 0,7 0,6 0,7 0,7 -3,0 -4,0 -3,0 -4,0 -3,0 -3,0 -4,0 -3,0 -4,0 -3,0 -4,0 -4,0 -3,0 -4,0 -3,0 -4,0 0,-7 0,-7 0,-6 0,-7 0,-7 0,-7 0,-7 0,-6 0,-7 0,-7 0,-6 0,-7 0,-7 0,-7 0,-7 0,-6 0,-7 0,-7 0,-7 0,-6 0,-7 0,-7 0,-7 0,-7 0,-6 0,-7 0,-7 0,-7 0,-6 0,-7 0,-7 0,-7z" /><path style="fill:#b2b2b2" d="M173,34 l26,0 0,217 -26,0 0,-217z" /><path style="fill:none;stroke:#4c4c4c;stroke-width:2" d="M112,34 l148,0 0,217 -148,0 0,-217" /><path style="fill:#7f7f7f;stroke:#4c4c4c;stroke-width:2" d="M86,69 l44,0 0,44 -44,0 0,-44z" /><path style="fill:#666;stroke:#4c4c4c;stroke-width:2" d="M251,243 l17,0 0,8 -17,0 0,-8z" /><path style="fill:#000;stroke:#4c4c4c;stroke-width:2" d="M103,86 l9,9 -9,9 -8,-9 8,-9z" /><path style="fill:#787878" d="M121,34 l8,0 8,0 8,0 9,0 8,0 8,0 8,0 8,0 9,0 7,0 9,0 8,0 8,0 8,0 8,0 8,0 0,-4 1,-4 0,-5 0,-4 0,-5 0,-4 -1,-4 0,-4 -8,0 -8,0 -8,0 -8,0 -8,0 -9,0 -7,0 -9,0 -8,0 -8,0 -8,0 -8,0 -9,0 -8,0 -8,0 -8,0 0,4 0,4 0,4 0,5 0,4 0,5 0,4 0,4z" /><path style="fill:#8c8c8c" d="M138,34 l6,0 6,0 6,0 6,0 6,0 6,0 6,0 6,0 6,0 6,0 6,0 6,0 6,0 6,0 6,0 6,0 0,-4 1,-4 0,-5 0,-4 0,-5 0,-4 -1,-4 0,-4 -6,0 -6,0 -6,0 -6,0 -6,0 -6,0 -6,0 -6,0 -6,0 -6,0 -6,0 -6,0 -6,0 -6,0 -6,0 -6,0 0,4 0,4 0,4 0,5 0,4 0,5 0,4 0,4z" /><path style="fill:#9e9e9e" d="M155,34 l4,0 4,0 4,0 4,0 4,0 4,0 4,0 4,0 4,0 4,0 3,0 4,0 4,0 4,0 4,0 4,0 0,-4 0,-4 0,-5 0,-4 0,-5 0,-4 0,-4 0,-4 -4,0 -4,0 -4,0 -4,0 -4,0 -3,0 -4,0 -4,0 -4,0 -4,0 -4,0 -4,0 -4,0 -4,0 -4,0 -4,0 0,4 0,4 0,4 0,5 0,4 0,5 0,4 0,4z" /><path style="fill:#b2b2b2" d="M172,34 l29,0 0,-34 -29,0 0,34z" /><path style="fill:none;stroke:#4c4c4c;stroke-width:2" d="M103,34 l165,0 0,-34 -165,0 0,34" /><path style="fill:#b2b2b2" d="M121,373 l17,-26 113,0 -18,26 -112,0z" /><path style="fill:#999;stroke:#4c4c4c;stroke-width:2" d="M166,416 l41,0 0,541 -41,0 0,-541z" /><path style="fill:#ccc" d="M182,416 l10,0 0,541 -10,0 0,-541z" /><path style="fill:#999;stroke:#4c4c4c;stroke-width:2" d="M69,390 l277,0 0,26 -277,0 0,-26z" /><path style="fill:#595959;stroke:#4c4c4c;stroke-width:2" d="M166,936 l41,0 0,42 -41,0 0,-42z" /><path style="fill:#999;stroke:#4c4c4c;stroke-width:2" d="M145,947 l83,0 0,20 -83,0 0,-20z" /><path style="fill:#666;stroke:#4c4c4c;stroke-width:2" d="M228,988 l-41,-94 145,0 42,94 -146,0z" /><path style="fill:#999;stroke:#4c4c4c;stroke-width:2" d="M176,999 l-41,-105 31,0 41,105 -31,0z" /><path style="fill:#d9d9d9;stroke:#4c4c4c;stroke-width:2" d="M166,999 l-42,-105 11,0 41,105 -10,0z" /></svg>