<!DOCTYPE svg PUBLIC "-//W3C//DTD SVG 20000303 Stylable//EN" "http://www.w3.org/TR/2000/03/WD-SVG-20000303/DTD/svg-20000303-stylable.dtd"[]><svg xmlns="http://www.w3.org/2000/svg" width="591px" height="999px" viewBox="0 0 284 500"><path style="fill:#999;stroke:#4c4c4c;stroke-width:2" d="M213,443 l65,-14 6,-6 -68,15 -3,5z" /><path style="fill:#ccc;stroke:#4c4c4c;stroke-width:2" d="M213,443 l0,5 65,-13 0,-6 -65,14z" /><circle style="fill:#666;stroke:#4c4c4c;stroke-width:2" cx="201" cy="447" r="18" /><path style="fill:#999;stroke:#4c4c4c;stroke-width:2" d="M254,488 l6,12 -35,-35 -6,-12 35,35z" /><path style="fill:#7f7f7f;stroke:#4c4c4c;stroke-width:2" d="M195,166 l12,0 0,268 -12,0 0,-268z" /><path style="fill:#b2b2b2" d="M197,166 l8,0 0,268 -8,0 0,-268z" /><path style="fill:#fff" d="M200,166 l2,0 0,268 -2,0 0,-268z" /><ellipse style="fill:#b2b2b2;stroke:#4c4c4c;stroke-width:2" cx="201" cy="163" rx="29" ry="9" /><ellipse style="fill:#7f7f7f;stroke:#4c4c4c;stroke-width:2" cx="94" cy="27" rx="22" ry="24" /><ellipse style="fill:#999" cx="94" cy="27" rx="22" ry="19" /><ellipse style="fill:#b2b2b2" cx="94" cy="27" rx="22" ry="11" /><ellipse style="fill:#ccc" cx="94" cy="27" rx="22" ry="3" /><path style="fill:#999;stroke:#4c4c4c;stroke-width:2" d="M6,0 l24,0 0,53 -24,0 0,-53z" /><path style="fill:#b2b2b2;stroke:#4c4c4c;stroke-width:2" d="M6,53 l-6,-6 0,-41 6,-6 0,53z" /><path style="fill:#7f7f7f;stroke:#4c4c4c;stroke-width:2" d="M30,3 l65,0 0,50 -65,0 0,-50z" /><path style="fill:#b2b2b2;stroke:#4c4c4c;stroke-width:2" d="M30,41 l68,0 0,2 -68,0 0,-2z" /><path style="fill:#b2b2b2;stroke:#4c4c4c;stroke-width:2" d="M30,37 l68,0 0,1 -68,0 0,-1z" /><path style="fill:#b2b2b2;stroke:#4c4c4c;stroke-width:2" d="M30,32 l68,0 0,2 -68,0 0,-2z" /><path style="fill:#b2b2b2;stroke:#4c4c4c;stroke-width:2" d="M30,28 l68,0 0,2 -68,0 0,-2z" /><path style="fill:#b2b2b2;stroke:#4c4c4c;stroke-width:2" d="M30,24 l68,0 0,1 -68,0 0,-1z" /><path style="fill:#b2b2b2;stroke:#4c4c4c;stroke-width:2" d="M30,19 l68,0 0,2 -68,0 0,-2z" /><path style="fill:#b2b2b2;stroke:#4c4c4c;stroke-width:2" d="M30,15 l68,0 0,1 -68,0 0,-1z" /><path style="fill:#b2b2b2;stroke:#4c4c4c;stroke-width:2" d="M30,10 l68,0 0,2 -68,0 0,-2z" /><path style="fill:#b2b2b2;stroke:#4c4c4c;stroke-width:2" d="M30,6 l68,0 0,1 -68,0 0,-1z" /><path style="fill:#b2b2b2;stroke:#4c4c4c;stroke-width:2" d="M30,2 l68,0 0,1 -68,0 0,-1z" /><path style="fill:#7f7f7f;stroke:#4c4c4c;stroke-width:2" d="M160,6 l106,0 0,71 -106,0 0,-71z" /><path style="fill:none;stroke:#fff;stroke-width:2" d="M163,74 l0,-65 100,0" /><path style="fill:#b2b2b2;stroke:#4c4c4c;stroke-width:2" d="M30,46 l68,0 0,1 -68,0 0,-1z" /><path style="fill:#ccc;stroke:#4c4c4c;stroke-width:2" d="M30,59 l1,-12 52,0 34,-22 4,-19 39,0 0,53 -130,0z" /><path style="fill:#999;stroke:#4c4c4c;stroke-width:2" d="M160,59 l-139,0 0,-6 62,-6 77,-41 0,53z" /><path style="fill:#7f7f7f;stroke:#4c4c4c;stroke-width:2" d="M219,160 l18,-83 -71,0 17,83 1,2 4,2 6,1 7,1 7,-1 6,-1 4,-2 1,-2z" /><path style="fill:#b2b2b2;stroke:#4c4c4c;stroke-width:2" d="M102,447 l86,0 1,9 -87,0 0,-9z" /><path style="fill:#ccc;stroke:#4c4c4c;stroke-width:2" d="M102,447 l6,-6 81,0 -1,6 -86,0z" /><path style="fill:#ccc;stroke:#4c4c4c;stroke-width:2" d="M243,488 l11,0 -37,-37 -11,0 37,37z" /></svg>