<!DOCTYPE svg PUBLIC "-//W3C//DTD SVG 20000303 Stylable//EN" "http://www.w3.org/TR/2000/03/WD-SVG-20000303/DTD/svg-20000303-stylable.dtd"[]><svg xmlns="http://www.w3.org/2000/svg" width="703px" height="999px" viewBox="0 0 343 500"><path style="fill:#999;stroke:#4c4c4c;stroke-width:2" d="M93,432 l-9,14 76,-6 11,-10 -78,2z" /><path style="fill:#4c4c4c;stroke:#4c4c4c;stroke-width:2" d="M103,432 l-32,0 0,6 32,0 0,-6z" /><path style="fill:#4c4c4c;stroke:#4c4c4c;stroke-width:2" d="M32,424 l38,10 0,6 -38,-11 0,-5z" /><path style="fill:#ccc;stroke:#4c4c4c;stroke-width:2" d="M46,430 l22,-6 -49,-5 -14,0 41,11z" /><path style="fill:#999;stroke:#4c4c4c;stroke-width:2" d="M35,446 l11,-16 -41,-11 -5,8 35,19z" /><circle style="fill:#666;stroke:#4c4c4c;stroke-width:2" cx="67" cy="443" r="18" /><path style="fill:#7f7f7f;stroke:#4c4c4c;stroke-width:2" d="M73,151 l-12,0 0,280 12,0 0,-280z" /><path style="fill:#b2b2b2" d="M71,151 l-8,0 0,280 8,0 0,-280z" /><path style="fill:#fff" d="M68,151 l-2,0 0,280 2,0 0,-280z" /><path style="fill:#b2b2b2;stroke:#4c4c4c;stroke-width:2" d="M103,438 l-10,-6 78,-2 3,2 -71,6z" /><path style="fill:#4c4c4c;stroke:#4c4c4c;stroke-width:2" d="M64,443 l8,0 -15,19 -8,0 15,-19z" /><path style="fill:#b2b2b2;stroke:#4c4c4c;stroke-width:2" d="M62,451 l-24,0 -22,38 11,0 35,-38z" /><path style="fill:#7f7f7f;stroke:#4c4c4c;stroke-width:2" d="M27,489 l35,-38 17,16 -44,33 -8,-11z" /><path style="fill:#7f7f7f;stroke:#4c4c4c;stroke-width:2" d="M177,14 l-87,0 0,-6 -55,0 0,79 142,0 0,-73z" /><path style="fill:#7f7f7f;stroke:#4c4c4c;stroke-width:2" d="M19,158 l98,0 54,-71 -152,0 0,71z" /><ellipse style="fill:#7f7f7f;stroke:#4c4c4c;stroke-width:2" cx="244" cy="54" rx="23" ry="25" /><ellipse style="fill:#999" cx="244" cy="54" rx="23" ry="20" /><ellipse style="fill:#b2b2b2" cx="244" cy="54" rx="23" ry="12" /><ellipse style="fill:#ccc" cx="244" cy="54" rx="23" ry="3" /><path style="fill:#999;stroke:#4c4c4c;stroke-width:2" d="M337,25 l-25,0 0,56 25,0 0,-56z" /><path style="fill:#b2b2b2;stroke:#4c4c4c;stroke-width:2" d="M337,81 l6,-6 0,-43 -6,-7 0,56z" /><path style="fill:#7f7f7f;stroke:#4c4c4c;stroke-width:2" d="M312,29 l-68,0 0,52 68,0 0,-52z" /><path style="fill:#b2b2b2;stroke:#4c4c4c;stroke-width:2" d="M312,69 l-71,0 0,1 71,0 0,-1z" /><path style="fill:#b2b2b2;stroke:#4c4c4c;stroke-width:2" d="M312,64 l-71,0 0,1 71,0 0,-1z" /><path style="fill:#b2b2b2;stroke:#4c4c4c;stroke-width:2" d="M312,59 l-71,0 0,2 71,0 0,-2z" /><path style="fill:#b2b2b2;stroke:#4c4c4c;stroke-width:2" d="M312,55 l-71,0 0,1 71,0 0,-1z" /><path style="fill:#b2b2b2;stroke:#4c4c4c;stroke-width:2" d="M312,50 l-71,0 0,2 71,0 0,-2z" /><path style="fill:#b2b2b2;stroke:#4c4c4c;stroke-width:2" d="M312,45 l-71,0 0,2 71,0 0,-2z" /><path style="fill:#b2b2b2;stroke:#4c4c4c;stroke-width:2" d="M312,41 l-71,0 0,1 71,0 0,-1z" /><path style="fill:#b2b2b2;stroke:#4c4c4c;stroke-width:2" d="M312,36 l-71,0 0,2 71,0 0,-2z" /><path style="fill:#b2b2b2;stroke:#4c4c4c;stroke-width:2" d="M312,32 l-71,0 0,1 71,0 0,-1z" /><path style="fill:#b2b2b2;stroke:#4c4c4c;stroke-width:2" d="M312,27 l-71,0 0,2 71,0 0,-2z" /><path style="fill:none;stroke:#4c4c4c;stroke-width:2" d="M38,22 l136,0" /><path style="fill:#b2b2b2;stroke:#4c4c4c;stroke-width:2" d="M312,73 l-71,0 0,2 71,0 0,-2z" /><path style="fill:#ccc;stroke:#4c4c4c;stroke-width:2" d="M312,87 l-1,-12 -54,0 -36,-23 -4,-20 -41,0 0,55 136,0z" /><path style="fill:#999;stroke:#4c4c4c;stroke-width:2" d="M176,87 l146,0 0,-6 -65,-6 -81,-43 0,55z" /><path style="fill:none;stroke:#fff;stroke-width:2" d="M23,152 l0,-60 94,0" /><path style="fill:none;stroke:#fff;stroke-width:2" d="M38,76 l136,0" /><path style="fill:none;stroke:#fff;stroke-width:2" d="M155,65 l0,-22" /><path style="fill:none;stroke:#4c4c4c;stroke-width:2" d="M160,65 l0,-22" /><path style="fill:#b2b2b2;stroke:#4c4c4c;stroke-width:2" d="M177,33 l8,0 0,73 -8,0 0,-73z" /><path style="fill:none;stroke:#4c4c4c;stroke-width:2" d="M90,14 l-52,0" /><path style="fill:#ccc;stroke:#4c4c4c;stroke-width:2" d="M158,3 l5,0 0,11 -5,0 0,-11z" /><path style="fill:#999;stroke:#4c4c4c;stroke-width:2" d="M41,3 l43,0 0,5 -43,0 0,-5z" /><path style="fill:#b2b2b2;stroke:#4c4c4c;stroke-width:2" d="M52,0 l21,0 0,3 -21,0 0,-3z" /></svg>