<?xml version="1.0" encoding="UTF-8"?>
<svg viewBox="0 0 697 604" xmlns="http://www.w3.org/2000/svg">
    <g fill="#f4f1d0" fill-rule="evenodd">
        <path
            d="M508.32 24.91l-320.05-.198L28.482 301.743 188.68 579.09l320.05.198 159.787-277.031L508.32 24.91zM522.564.215l174.436 302L522.936 604l-348.5-.216L0 301.784 174.064.0l348.5.215z"
            fill-rule="nonzero"></path>
        <path
            d="M174 0l522.598 302.346L174 603.846l163.769-302L174 0zm65.598 64.846 125.782 237-125.782 237 406-237-406-237z"
            fill-rule="nonzero"></path>
        <path
            d="M522.598.0.0 302.346l522.598 301.5-163.77-302L522.599.0zM457 64.846l-125.782 237 125.782 237-406-237 406-237z"
            fill-rule="nonzero"></path>
        <path d="M198.929 25v555H498.07V25H198.93zM174 0h349v604H174V0z"></path>
        <path d="M8 315v-25h682v25z"></path>
    </g>
</svg>