<!DOCTYPE svg PUBLIC "-//W3C//DTD SVG 1.1//EN" "http://www.w3.org/Graphics/SVG/1.1/DTD/svg11.dtd"[]><svg version="1.1" xmlns="http://www.w3.org/2000/svg" xmlns:xlink="http://www.w3.org/1999/xlink" width="112px" height="112px" viewBox="0 0 112.5 112.5" enable-background="new 0 0 112.5 112.5" xml:space="preserve">
<g id="Group_TankBody">
<linearGradient id="SVGID_1_" gradientUnits="userSpaceOnUse" x1="42.1182" y1="106.4609" x2="70.3818" y2="106.4609">
	<stop offset="0" style="stop-color:#383838" />
	<stop offset="0.11" style="stop-color:#696969" />
	<stop offset="0.24" style="stop-color:#A1A1A1" />
	<stop offset="0.36" style="stop-color:#C9C9C9" />
	<stop offset="0.45" style="stop-color:#E2E2E2" />
	<stop offset="0.5" style="stop-color:#ECECEC" />
	<stop offset="0.56" style="stop-color:#E4E4E4" />
	<stop offset="0.64" style="stop-color:#CFCFCF" />
	<stop offset="0.74" style="stop-color:#ADADAD" />
	<stop offset="0.86" style="stop-color:#7E7E7E" />
	<stop offset="0.98" style="stop-color:#424242" />
	<stop offset="1" style="stop-color:#383838" />
</linearGradient>
<path fill="url(#SVGID_1_)" d="M42.118,100.423V112.5h28.264v-12.077H42.118z" />
<linearGradient id="SVGID_2_" gradientUnits="userSpaceOnUse" x1="0" y1="86.1758" x2="112.5" y2="86.1758">
	<stop offset="0.07" style="stop-color:#383838" />
	<stop offset="0.49" style="stop-color:#ECECEC" />
	<stop offset="0.55" style="stop-color:#D9D9D9" />
	<stop offset="0.67" style="stop-color:#A8A8A8" />
	<stop offset="0.84" style="stop-color:#5A5A5A" />
	<stop offset="0.91" style="stop-color:#383838" />
</linearGradient>
<path fill="url(#SVGID_2_)" d="M0,70.382l42.118,31.589h28.264L112.5,70.382H0z" />
<linearGradient id="SVGID_3_" gradientUnits="userSpaceOnUse" x1="0" y1="42.1182" x2="112.5" y2="42.1182">
	<stop offset="0" style="stop-color:#383838" />
	<stop offset="0.5" style="stop-color:#ECECEC" />
	<stop offset="0.57" style="stop-color:#D9D9D9" />
	<stop offset="0.71" style="stop-color:#A8A8A8" />
	<stop offset="0.92" style="stop-color:#5A5A5A" />
	<stop offset="1" style="stop-color:#383838" />
</linearGradient>
<path fill="url(#SVGID_3_)" d="M112.5,6.927H0v63.455h0l0,0.001c0,2.652,30,6.926,56.25,6.926c26.5,0,56.25-4.273,56.25-6.926  v-0.001l0,0V6.927z" />
<linearGradient id="SVGID_4_" gradientUnits="userSpaceOnUse" x1="56.2495" y1="0" x2="56.2495" y2="14.1318">
	<stop offset="0" style="stop-color:#C8C8C8" />
	<stop offset="0.29" style="stop-color:#B1B1B1" />
	<stop offset="0.91" style="stop-color:#757575" />
	<stop offset="1" style="stop-color:#6C6C6C" />
</linearGradient>
<path fill="url(#SVGID_4_)" d="M56.25,0c31.066,0,56.25,3.102,56.25,6.927s-25.184,7.205-56.25,7.205  C25.184,14.132,0,10.753,0,6.927S25.184,0,56.25,0z" />
</g>
</svg>