<!DOCTYPE svg PUBLIC "-//W3C//DTD SVG 1.1//EN" "http://www.w3.org/Graphics/SVG/1.1/DTD/svg11.dtd"[]><svg version="1.1" xmlns="http://www.w3.org/2000/svg" xmlns:xlink="http://www.w3.org/1999/xlink" width="112px" height="93px" viewBox="0 0 112.5 92.678" enable-background="new 0 0 112.5 92.678" xml:space="preserve">
<g id="Group_TankBody">
	<path fill="#CECECE" d="M1.353,5.518h109.569l0.113,87.16H94.481V84.12h-76.8v8.558H1.353V5.518z" />
	<linearGradient id="SVGID_1_" gradientUnits="userSpaceOnUse" x1="56.2505" y1="87.0481" x2="56.2505" y2="8.446">
		<stop offset="0" style="stop-color:#383838" />
		<stop offset="0.48" style="stop-color:#ECECEC" />
		<stop offset="0.61" style="stop-color:#C4C4C4" />
		<stop offset="0.89" style="stop-color:#616161" />
		<stop offset="1" style="stop-color:#383838" />
	</linearGradient>
	<path fill="url(#SVGID_1_)" d="M106.418,8.446H5.969c0,0-5.969,7.522-5.968,34.233c0,2.562,0,7.686,0,10.248   c0,26.208,5.968,34.121,5.968,34.121h100.449c0,0,6.081-9.979,6.081-34.121c0-2.563,0-7.686,0-10.248   C112.499,15.796,106.418,8.446,106.418,8.446z" />
	<path fill="#D8D8D8" d="M44.82,4.166h22.522v1.352H44.82V4.166z" />
	<path fill="#E5E5E5" d="M52.027,0h8.333v4.166h-8.333V0z" />
</g>
<g id="Group_FrontLegs">
	<linearGradient id="SVGID_2_" gradientUnits="userSpaceOnUse" x1="13.9648" y1="56.0803" x2="13.9648" y2="92.678">
		<stop offset="0" style="stop-color:#C8C8C8" />
		<stop offset="0.29" style="stop-color:#B1B1B1" />
		<stop offset="0.91" style="stop-color:#757575" />
		<stop offset="1" style="stop-color:#6C6C6C" />
	</linearGradient>
	<path fill="url(#SVGID_2_)" d="M5.519,56.08v36.598h16.892V56.08" />
	<linearGradient id="SVGID_3_" gradientUnits="userSpaceOnUse" x1="56.1938" y1="56.0803" x2="56.1938" y2="92.678">
		<stop offset="0" style="stop-color:#C8C8C8" />
		<stop offset="0.29" style="stop-color:#B1B1B1" />
		<stop offset="0.91" style="stop-color:#757575" />
		<stop offset="1" style="stop-color:#6C6C6C" />
	</linearGradient>
	<path fill="url(#SVGID_3_)" d="M47.748,56.08v36.598H64.64V56.08" />
	<linearGradient id="SVGID_4_" gradientUnits="userSpaceOnUse" x1="98.4219" y1="56.0803" x2="98.4219" y2="92.678">
		<stop offset="0" style="stop-color:#C8C8C8" />
		<stop offset="0.29" style="stop-color:#B1B1B1" />
		<stop offset="0.91" style="stop-color:#757575" />
		<stop offset="1" style="stop-color:#6C6C6C" />
	</linearGradient>
	<path fill="url(#SVGID_4_)" d="M89.977,56.08v36.598h16.892V56.08" />
</g>
</svg>