<!DOCTYPE svg PUBLIC "-//W3C//DTD SVG 1.1//EN" "http://www.w3.org/Graphics/SVG/1.1/DTD/svg11.dtd"[]><svg version="1.1" xmlns="http://www.w3.org/2000/svg" xmlns:xlink="http://www.w3.org/1999/xlink" width="112px" height="27px" viewBox="0 0 112.5 27.475" enable-background="new 0 0 112.5 27.475" xml:space="preserve">
<g id="Group_TankBody">
<path fill="#C0C0C0" d="M0.005,0h112.49c0,0-4.833,1.161-5.854,2.364c-0.53,0.625-0.543,2.417-0.901,3.153  c-1.24,2.554-3.693,3.319-4.954,4.392c-0.737,0.627-1.635,2.406-2.252,3.152c-1.117,1.35-3.405,4.065-4.843,5.067  c-1.335,0.93-5.968,2.59-5.968,2.59l-6.644,1.802l-5.968,3.266l-6.869,0.9l-8.558,0.226c0,0-4.784,0.582-6.418,0.563  c-2.04-0.024-6.229-0.688-8.22-1.126c-1.913-0.42-7.432-2.477-7.432-2.477l-6.531-1.802c0,0-6.347-0.52-10.134-1.914  c-3.366-1.239-6.135-5.013-7.882-6.981c-1.136-1.281-3.863-3.438-4.842-4.843C7.764,7.671,7.372,6.038,6.874,5.405  C5.696,3.908,0.005,0,0.005,0z" />
<path fill="none" stroke="#4C4C4C" stroke-width="0.25" d="M27.48,21.619c0,0,1.01-0.751,0-4.391  c-1.01-3.64-1.646-5.569-1.577-6.531s0.338-6.081,0.338-6.081c-4.7,10.277,0.676,17.003,0.676,17.003" />
<path fill="none" stroke="#4C4C4C" stroke-width="0.25" d="M78.723,23.703c0,0,1.01-0.751,0-4.391  c-1.011-3.64-1.646-5.569-1.577-6.531S77.483,6.7,77.483,6.7c-4.7,10.277,0.676,17.003,0.676,17.003" />
<path fill="none" stroke="#4C4C4C" stroke-width="0.25" d="M31.646,22.183c0,0-1.354-1.016,0-6.418l-0.04-0.563  c-0.769-3.911-0.635-7.094-0.635-7.094s3.571,7.797,1.274,13.969" />
<path fill="none" stroke="#4C4C4C" stroke-width="0.25" d="M51.464,25.472c0,1.505-1.929,1.688-4.279,1.44  c-1.951-0.206-3.097-0.81-3.811-1.55c-0.114-0.118-0.609-2.616,2.583-2.616C48.322,22.746,51.464,24.547,51.464,25.472z" />
<path fill="none" stroke="#4C4C4C" stroke-width="0.25" d="M59.685,25.673c0.249,0.894-1.611,1.424-4.217,1.567  c-1.959,0.107-2.665,0.348-3.44-0.328c-0.787-0.686-0.277-2.222,2.301-2.565C56.671,24.034,59.636,25.498,59.685,25.673z" />
<path fill="none" stroke="#4C4C4C" stroke-width="0.25" d="M76.563,24.269c0.125,0.592-1.172,1.679-3.778,1.822  c-1.959,0.107-1.963,0.114-2.345-0.131c-0.518-0.332-0.018-2.176,1.896-2.532C73.944,23.128,76.525,24.091,76.563,24.269z" />
</g>
</svg>