<!DOCTYPE svg PUBLIC "-//W3C//DTD SVG 1.1//EN" "http://www.w3.org/Graphics/SVG/1.1/DTD/svg11.dtd"[]><svg version="1.1" xmlns="http://www.w3.org/2000/svg" xmlns:xlink="http://www.w3.org/1999/xlink" width="32px" height="112px" viewBox="0 0 32.098 112.5" enable-background="new 0 0 32.098 112.5" xml:space="preserve">
<g id="Group_Railing">
	<path fill="none" stroke="#FFCC00" stroke-width="0.25" d="M29.844,3.378l-0.112-0.113l-0.563-0.563l-1.014-0.338l-1.463-0.45   l-1.915-0.225l-1.014-0.113l-1.126-0.113l-1.238-0.112l-1.239-0.113l-1.352-0.113h-1.351h-2.816H13.29l-1.351,0.113L10.7,1.352   L9.461,1.464L8.335,1.577L7.321,1.689L6.308,1.802L4.619,2.14L3.38,2.478L2.366,3.266L2.254,3.378v1.126V2.252l0.112-0.226   l0.563-0.45l1.014-0.451l1.464-0.338L7.321,0.45l1.014-0.112l1.126-0.113L10.7,0.113L11.938,0h1.351h1.352h2.816h1.351h1.352   l1.239,0.113l1.238,0.112l1.126,0.113l1.014,0.112l1.013,0.113l1.689,0.451l1.239,0.338l1.014,0.675l0.112,0.226v2.252H6.871V0.563   L11.488,0v4.504l4.505,0.127V0l4.617,0.041v4.463l4.617,0.127V0.5" />
</g>
<g id="Group_TankBody">
	<linearGradient id="SVGID_1_" gradientUnits="userSpaceOnUse" x1="2.2539" y1="57.376" x2="29.8438" y2="57.376">
		<stop offset="0" style="stop-color:#383838" />
		<stop offset="0.45" style="stop-color:#ECECEC" />
		<stop offset="0.55" style="stop-color:#D9D9D9" />
		<stop offset="0.76" style="stop-color:#A8A8A8" />
		<stop offset="0.77" style="stop-color:#A6A6A6" />
		<stop offset="1" style="stop-color:#383838" />
	</linearGradient>
	<path fill="url(#SVGID_1_)" d="M29.844,110.135c0,0-2.129,2.365-13.851,2.365c-12.402,0-13.739-2.365-13.739-2.365V4.617   c0,0,4.003-2.365,13.739-2.365c10.223,0,13.851,2.365,13.851,2.365V110.135" />
	<path fill="none" stroke="#7F7F7F" stroke-width="0.25" d="M2.254,22.973c0,0,1.503-2.365,13.795-2.365   c12.208,0,13.795,2.365,13.795,2.365" />
	<path fill="none" stroke="#7F7F7F" stroke-width="0.25" d="M2.254,47.072c0,0,5.42-1.239,13.795-1.239   c8.875,0,13.795,1.239,13.795,1.239" />
	<path fill="none" stroke="#7F7F7F" stroke-width="0.25" d="M29.844,91.779c0,0-2.129,2.252-13.795,2.252   c-11.292,0-13.795-2.252-13.795-2.252" />
	<path fill="none" stroke="#7F7F7F" stroke-width="0.25" d="M29.844,69.933c0,0-2.087,1.239-13.337,1.239   c-11.833,0-14.253-1.239-14.253-1.239" />
</g>
<g id="Group_Ladder">
	<path fill="none" stroke="#4C4C4C" stroke-width="0.25" d="M29.731,26.352h1.126l1.238-1.126v-1.126l-1.238-1.239h-1.126V26.352z" />
	<path fill="none" stroke="#4C4C4C" stroke-width="0.25" d="M29.731,23.536h1.802H29.731z" />
	<path fill="none" stroke="#4C4C4C" stroke-width="0.25" d="M29.731,24.099h2.364H29.731z" />
	<path fill="none" stroke="#4C4C4C" stroke-width="0.2865" d="M29.731,24.662h2.366H29.731z" />
	<path fill="none" stroke="#4C4C4C" stroke-width="0.2864" d="M29.731,25.225h2.364H29.731z" />
	<path fill="none" stroke="#4C4C4C" stroke-width="0.3162" d="M29.731,25.788h1.802H29.731z" />
	<path fill="#BFBFBF" d="M32.096,22.86v2.365c0,0-0.037-0.938-1.014-1.915c-0.504-0.504-1.238-0.45-1.238-0.45v-2.252   c0,0,0.806-0.094,1.576,0.676C32.124,21.987,32.096,22.86,32.096,22.86z" />
	<path fill="#A6A6A6" d="M32.096,22.86v2.365c0.205,3.524-13.225,9.291-16.047,10.44C2.689,41.109,1.924,43.042,0.79,43.919   c-0.41,0.317-0.789,1.915-0.789,1.915s0.064-3.555,1.352-4.842c3.363-3.362,13.175-7.095,13.175-7.095s13.624-5.444,16.779-9.009   C31.668,24.48,32.096,22.86,32.096,22.86z" />
	<path fill="#7F7F7F" d="M32.096,25.225c0,0-0.449,1.238-0.953,1.822c-1.668,1.933-7.906,5.109-7.906,5.109   S12.345,37.191,11.601,37.5C0.708,42.015,0.001,45.158,0.001,45.158v1.126c0.797,1.654,2.252,1.915,2.252,1.915v-2.365l0.338-1.239   c0,0,0.082-0.845,3.266-3.266c1.924-1.464,8.559-4.504,8.559-4.504l11.938-5.856c0,0,4.711-3.488,4.954-3.829   C32.098,26.031,32.096,25.225,32.096,25.225z" />
	<path fill="none" stroke="#4C4C4C" stroke-width="0.25" d="M29.731,67.626h1.126l1.238-1.126v-1.127l-1.238-1.238h-1.126V67.626z" />
	<path fill="none" stroke="#4C4C4C" stroke-width="0.25" d="M29.731,64.811h1.802H29.731z" />
	<path fill="none" stroke="#4C4C4C" stroke-width="0.25" d="M29.731,65.373h2.364H29.731z" />
	<path fill="none" stroke="#4C4C4C" stroke-width="0.2865" d="M29.731,65.937h2.366H29.731z" />
	<path fill="none" stroke="#4C4C4C" stroke-width="0.2864" d="M29.731,66.5h2.364H29.731z" />
	<path fill="none" stroke="#4C4C4C" stroke-width="0.3162" d="M29.731,67.063h1.802H29.731z" />
	<path fill="#BFBFBF" d="M32.096,64.135V66.5c0,0-0.037-0.938-1.014-1.915c-0.504-0.504-1.238-0.45-1.238-0.45v-2.252   c0,0,0.806-0.094,1.576,0.676C32.124,63.262,32.096,64.135,32.096,64.135z" />
	<path fill="#A6A6A6" d="M32.096,64.135V66.5c0.205,3.523-13.225,9.29-16.047,10.439C2.689,82.383,1.924,84.316,0.79,85.193   c-0.41,0.316-0.789,1.914-0.789,1.914s0.064-3.555,1.352-4.842c3.363-3.362,13.175-7.095,13.175-7.095s13.624-5.444,16.779-9.009   C31.668,65.754,32.096,64.135,32.096,64.135z" />
	<path fill="#7F7F7F" d="M32.096,66.5c0,0-0.449,1.237-0.953,1.821c-1.668,1.933-7.906,5.109-7.906,5.109   s-10.891,5.035-11.636,5.344C0.708,83.289,0.001,86.432,0.001,86.432v1.127c0.797,1.653,2.252,1.914,2.252,1.914v-2.365   l0.338-1.238c0,0,0.082-0.845,3.266-3.266c1.924-1.465,8.559-4.505,8.559-4.505l11.938-5.856c0,0,4.711-3.487,4.954-3.828   C32.098,67.306,32.096,66.5,32.096,66.5z" />
</g>
</svg>