<!DOCTYPE svg PUBLIC "-//W3C//DTD SVG 1.1//EN" "http://www.w3.org/Graphics/SVG/1.1/DTD/svg11.dtd"[]><svg version="1.1" xmlns="http://www.w3.org/2000/svg" xmlns:xlink="http://www.w3.org/1999/xlink" width="112px" height="108px" viewBox="0 0 112.5 107.654" enable-background="new 0 0 112.5 107.654" xml:space="preserve">
<g id="Group_TankBody">
<path fill="#E5E5E5" stroke="#4C4C4C" stroke-width="0.25" stroke-miterlimit="10" d="M6.983,107.654l-2.252-2.478V23.31h-4.73  v-2.252h112.497v2.252h-4.842v81.867l-2.252,2.478H6.983z" />
<path fill="#E5E5E5" stroke="#4C4C4C" stroke-width="0.25" stroke-miterlimit="10" d="M91.328,39.751V21.058h-4.843v-4.73h2.591  V2.14L91.328,0h9.346l2.253,2.14v14.188h9.571v4.73h-11.824v68.015h-4.617V44.48h-4.729h-2.252v-4.729H91.328z" />
<path fill="none" stroke="#4C4C4C" stroke-width="0.25" stroke-miterlimit="10" d="M89.076,16.328h13.851" />
<path fill="#E5E5E5" stroke="#4C4C4C" stroke-width="0.25" stroke-miterlimit="10" d="M93.805,89.073h9.122v4.505h-9.122V89.073z" />
<path fill="#E5E5E5" stroke="#4C4C4C" stroke-width="0.25" stroke-miterlimit="10" d="M89.076,39.751h11.598v4.729H89.076V39.751z" />
<path fill="none" stroke="#4C4C4C" stroke-width="0.25" stroke-miterlimit="10" d="M91.328,20.833h9.346" />
<path fill="none" stroke="#4C4C4C" stroke-width="0.25" stroke-miterlimit="10" d="M96.057,51.462h4.617" />
</g>
</svg>