<!DOCTYPE svg PUBLIC "-//W3C//DTD SVG 1.1//EN" "http://www.w3.org/Graphics/SVG/1.1/DTD/svg11.dtd"[]><svg version="1.1" xmlns="http://www.w3.org/2000/svg" xmlns:xlink="http://www.w3.org/1999/xlink" width="112px" height="66px" viewBox="0 0 112.5 66.146" enable-background="new 0 0 112.5 66.146" xml:space="preserve">
<g id="Group_Railing">
	<path fill="none" stroke="#4C4C4C" stroke-width="0.25" d="M2.478,2.362V0.45h-1.35h111.369h-3.149v1.912h-5.625V0.45h-5.625v1.912   h-11.25V0.45h-5.624v1.912H75.6V0.45h-5.625v1.912H64.35V0.45H53.1v1.912h-11.25V0.45h-5.625v1.912h-11.25V0.45h-5.625v1.912   h-5.625V0.45H8.103v1.912h84.37V0.45H58.725v1.912H47.476V0.45H30.602v1.912" />
</g>
<g id="Group_TankBody">
	<linearGradient id="SVGID_1_" gradientUnits="userSpaceOnUse" x1="1.1279" y1="33.9736" x2="111.3721" y2="33.9736">
		<stop offset="0" style="stop-color:#383838" />
		<stop offset="0.48" style="stop-color:#ECECEC" />
		<stop offset="0.55" style="stop-color:#D9D9D9" />
		<stop offset="0.7" style="stop-color:#A8A8A8" />
		<stop offset="0.91" style="stop-color:#5A5A5A" />
		<stop offset="1" style="stop-color:#383838" />
	</linearGradient>
	<path fill="url(#SVGID_1_)" d="M1.128,1.8h110.244v64.347H1.128V1.8" />
	<path fill="#666666" d="M0.003,64.881h112.494v1.125H0.003V64.881z" />
	<path fill="#666666" d="M0.003,1.8h112.494v1.125H0.003V1.8z" />
	<path fill="none" stroke="#E5E5E5" stroke-width="0.2531" d="M112.497,1.8H0.003" />
</g>
<g id="Group_Ladder">
	<path fill="#4C4C4C" d="M5.853,0v0.675H4.728V0H4.053v66.146h0.675v-0.675h1.125v0.675h0.675V0H5.853z M5.853,65.021H4.728v-0.675   h1.125V65.021z M5.853,63.671H4.728v-0.674h1.125V63.671z M5.853,62.546H4.728v-0.674h1.125V62.546z M5.853,61.196H4.728v-0.675   h1.125V61.196z M5.853,60.071H4.728v-0.674h1.125V60.071z M5.853,58.722H4.728v-0.675h1.125V58.722z M5.853,57.597H4.728v-0.675   h1.125V57.597z M5.853,56.247H4.728v-0.676h1.125V56.247z M5.853,55.122H4.728v-0.675h1.125V55.122z M5.853,53.772H4.728v-0.676   h1.125V53.772z M5.853,52.647H4.728v-0.676h1.125V52.647z M5.853,51.298H4.728v-0.676h1.125V51.298z M5.853,50.173H4.728v-0.676   h1.125V50.173z M5.853,48.822H4.728v-0.675h1.125V48.822z M5.853,47.697H4.728v-0.675h1.125V47.697z M5.853,46.348H4.728v-0.675   h1.125V46.348z M5.853,45.223H4.728v-0.675h1.125V45.223z M5.853,43.872H4.728v-0.674h1.125V43.872z M5.853,42.747H4.728v-0.674   h1.125V42.747z M5.853,41.397H4.728v-0.675h1.125V41.397z M5.853,40.272H4.728v-0.675h1.125V40.272z M5.853,38.923H4.728v-0.675   h1.125V38.923z M5.853,37.798H4.728v-0.675h1.125V37.798z M5.853,36.448H4.728v-0.676h1.125V36.448z M5.853,35.323H4.728v-0.676   h1.125V35.323z M5.853,33.974H4.728v-0.675h1.125V33.974z M5.853,32.848H4.728v-0.675h1.125V32.848z M5.853,31.498H4.728v-0.675   h1.125V31.498z M5.853,30.374H4.728v-0.675h1.125V30.374z M5.853,29.023H4.728v-0.675h1.125V29.023z M5.853,27.898H4.728v-0.675   h1.125V27.898z M5.853,26.549H4.728v-0.675h1.125V26.549z M5.853,25.424H4.728v-0.675h1.125V25.424z M5.853,24.074H4.728v-0.675   h1.125V24.074z M5.853,22.949H4.728v-0.675h1.125V22.949z M5.853,21.599H4.728v-0.675h1.125V21.599z M5.853,20.474H4.728v-0.675   h1.125V20.474z M5.853,19.124H4.728v-0.675h1.125V19.124z M5.853,17.999H4.728v-0.675h1.125V17.999z M5.853,16.649H4.728v-0.675   h1.125V16.649z M5.853,15.524H4.728v-0.675h1.125V15.524z M5.853,14.174H4.728v-0.675h1.125V14.174z M5.853,13.049H4.728v-0.675   h1.125V13.049z M5.853,11.699H4.728v-0.675h1.125V11.699z M5.853,10.574H4.728V9.899h1.125V10.574z M5.853,9.225H4.728V8.55h1.125   V9.225z M5.853,8.1H4.728V7.425h1.125V8.1z M5.853,6.75H4.728V6.075h1.125V6.75z M5.853,5.625H4.728V4.95h1.125V5.625z    M5.853,4.275H4.728V3.6h1.125V4.275z M5.853,3.15H4.728V2.475h1.125V3.15z M5.853,1.8H4.728V1.125h1.125V1.8z" />
</g>
</svg>