<!DOCTYPE svg PUBLIC "-//W3C//DTD SVG 1.1//EN" "http://www.w3.org/Graphics/SVG/1.1/DTD/svg11.dtd"[]><svg version="1.1" xmlns="http://www.w3.org/2000/svg" xmlns:xlink="http://www.w3.org/1999/xlink" width="112px" height="74px" viewBox="0 0 112.5 73.8" enable-background="new 0 0 112.5 73.8" xml:space="preserve">
<g id="Group_Ladder2">
	<path fill="#666666" d="M57.15,7.425l-0.536,0.311L56.7,7.65l-0.59-0.787l0.59-0.338L56.475,5.85L0.779,38.025H0.225v0.32L0,38.475   l0.225,0.45V40.5H0.9V40.05v-1.35v-0.162l0.379-0.218L0.9,38.701L1.35,39.6l0.675-0.226l-0.661-1.103l1.573-0.902L3.6,38.475   l0.116-0.058l-1.209,0.701l0.418-0.418l-0.45-0.9l-0.45,0.225l0.446,1.114L0.9,40.05L1.125,40.5L57.6,7.875L57.15,7.425z    M4.038,38.23l-0.663-1.105l-0.093,0.046l1.165-0.668L4.05,36.9l0.675,0.9l0.39-0.194L4.038,38.23z M6.227,36.96L5.625,36   l-0.45,0.225l0.534,1.036l-0.536,0.311L4.51,36.467l1.574-0.903l0.658,1.098L6.227,36.96z M6.792,36.633L7.2,36.225l-0.45-0.9   l-0.595,0.198l1.066-0.612L7.875,36l0.059-0.029L6.792,36.633z M8.312,35.751l-0.655-1.09l1.012-0.581l-0.344,0.344l0.45,0.9   l0.45-0.225L8.79,34.012l0.441-0.253l0.649,1.083L8.312,35.751z M10.006,34.769l0.344-0.344l-0.45-0.9l-0.625,0.208l1.094-0.627   l0.646,1.078L10.006,34.769z M11.449,33.932l-0.646-1.075l1.032-0.592l-0.36,0.361l0.45,0.9l0.531-0.177L11.449,33.932z    M12.584,33.273l-0.642-1.07l0.435-0.25l0.641,1.068L12.584,33.273z M13.221,32.904l0.279-0.279l-0.45-0.9l-0.656,0.219   l1.122-0.644l0.637,1.063L13.221,32.904z M14.587,32.112l-0.636-1.061l1.053-0.604l-0.378,0.378l0.45,0.9l0.42-0.14L14.587,32.112z    M16.705,30.883L16.2,29.925l-0.675,0.225l0.733,0.993l-0.536,0.311l-0.633-1.056l1.573-0.903l0.629,1.048L16.705,30.883z    M17.507,30.418l0.268-0.268l-0.675-0.9l-0.083,0.042l0.776-0.445l0.432,1.079l0.311-0.104L17.507,30.418z M18.86,29.633   l-0.625-1.041l0.543-0.311l-0.104,0.069l0.675,0.9l0.45-0.225l-0.433-1.082l0.441-0.253l0.621,1.033L18.86,29.633z M20.721,28.554   l0.204-0.204l-0.675-0.9l-0.179,0.089l0.87-0.499l0.434,1.084l0.202-0.067L20.721,28.554z M21.998,27.813l-0.616-1.026l0.624-0.357   l-0.181,0.12l0.675,0.9l0.45-0.225l-0.436-1.088l0.442-0.253l0.668,0.891l0.45-0.225l-0.675-0.9l-0.277,0.139l0.966-0.554   l0.436,1.091l0.675-0.45l-0.67-0.894l0.703-0.403l-0.257,0.172l0.675,0.9l0.45-0.225l-0.438-1.093l0.44-0.252l0.672,0.896   l0.45-0.225l-0.675-0.9l-0.377,0.188l1.063-0.61l0.437,1.093L21.998,27.813z M27.723,24.493l0.627-0.417l-0.674-0.899l0.695-0.398   L28.8,23.85l0.227-0.113L27.723,24.493z M29.244,23.61l-0.434-1.084l0.443-0.254l-0.003,0.003l0.675,0.9l0.45-0.225l-0.59-0.984   l0.603-0.346l0.59,0.984L29.244,23.61z M31.435,22.34l0.065-0.065l-0.675-0.9l-0.072,0.036l0.766-0.439l0.429,1.071L31.435,22.34z    M32.385,21.789l-0.427-1.069l0.537-0.308L32.4,20.475l0.675,0.9l0.17-0.085L32.385,21.789z M33.518,21.132l-0.425-1.063   l0.443-0.254L34.2,20.7l0.449-0.225L33.518,21.132z M34.65,20.475l-0.675-0.9l-0.169,0.084l0.86-0.494l0.422,1.055L34.65,20.475z    M35.186,20.165L35.55,19.8l-0.443-0.887l0.613-0.352l-0.17,0.113l0.668,0.891L35.186,20.165z M36.659,19.31l-0.418-1.047   l0.442-0.253l0.668,0.89l0.115-0.058L36.659,19.31z M37.786,18.656l-0.661-0.881l-0.265,0.132l0.954-0.547l0.416,1.039   L37.786,18.656z M38.922,17.997l-0.667-0.89L38.79,16.8l0.567,0.945L38.922,17.997z M39.8,17.488l-0.413-1.031l0.44-0.252   l0.663,0.883L39.8,17.488z M40.926,16.835l-0.563-0.938l0.599-0.343l0.409,1.023L40.926,16.835z M42.059,16.178l-0.657-0.876   l0.536-0.307l0.558,0.931L42.059,16.178z M42.941,15.666l-0.406-1.015l0.441-0.253L42.975,14.4l0.651,0.869L42.941,15.666z    M44.064,15.015l-0.554-0.923l0.601-0.345l0.438,0.877l0.438-0.146L44.064,15.015z M45.194,14.359L44.55,13.5l-0.059,0.029   l0.593-0.34l0.549,0.916L45.194,14.359z M45.899,13.95l0.226-0.225l-0.44-0.88l0.459-0.264L46.125,12.6l0.637,0.85L45.899,13.95z    M47.202,13.195l-0.545-0.908l0.601-0.345l0.442,0.883l0.328-0.109L47.202,13.195z M48.337,12.537l-0.542-0.903l0.435-0.25   l0.541,0.9L48.337,12.537z M49.114,12.086l0.161-0.161l-0.443-0.886l0.537-0.308l0.538,0.896L49.114,12.086z M50.34,11.375   l-0.536-0.894l0.602-0.345l0.445,0.889l0.22-0.073L50.34,11.375z M51.475,10.716l-0.533-0.888l0.435-0.25l0.532,0.886   L51.475,10.716z M52.328,10.222l0.097-0.097l-0.445-0.892l0.536-0.308l0.528,0.881L52.328,10.222z M53.478,9.555l-0.527-0.878   l0.602-0.346L54,9.225l0.109-0.037L53.478,9.555z M54.613,8.896l-0.524-0.874l0.601-0.344l0.436,0.871l0.45-0.225l-0.449-0.897   l0.536-0.307l0.52,0.866L54.613,8.896z" />
	<polygon points="0.9,40.5 0.9,38.025 0.225,38.025 0.225,40.5 0.225,41.625 3.15,41.625 3.15,40.5  " />
</g>
<g id="Group_TankBody">
	
		<radialGradient id="SVGID_1_" cx="57.2627" cy="5.5122" r="39.2527" gradientTransform="matrix(1 0 0 0.9 0 0.5512)" gradientUnits="userSpaceOnUse">
		<stop offset="0" style="stop-color:#ECECEC" />
		<stop offset="0.14" style="stop-color:#DDDDDD" />
		<stop offset="0.4" style="stop-color:#B8B8B8" />
		<stop offset="0.75" style="stop-color:#7C7C7C" />
		<stop offset="1" style="stop-color:#4D4D4D" />
	</radialGradient>
	<path fill="url(#SVGID_1_)" d="M2.025,11.025L57.15,0l55.35,11.025H2.025z" />
	<linearGradient id="SVGID_2_" gradientUnits="userSpaceOnUse" x1="2.9248" y1="42.188" x2="111.375" y2="42.188">
		<stop offset="0" style="stop-color:#383838" />
		<stop offset="0.45" style="stop-color:#ECECEC" />
		<stop offset="0.53" style="stop-color:#D9D9D9" />
		<stop offset="0.69" style="stop-color:#A8A8A8" />
		<stop offset="0.91" style="stop-color:#5A5A5A" />
		<stop offset="1" style="stop-color:#383838" />
	</linearGradient>
	<path fill="url(#SVGID_2_)" d="M2.925,10.575h108.45V73.8H2.925V10.575" />
	<path fill="#666666" d="M2.025,71.853H112.5V73.8H2.025V71.853z" />
</g>
<g id="Group_Railing">
	<path fill="none" stroke="#4C4C4C" stroke-width="0.25" d="M109.35,11.138V9.225h3.15H3.15h1.125v1.913H9.9V9.225h5.4v1.913h5.625   V9.225h5.4v1.913h5.625V9.225h5.4v1.913h5.625V9.225H48.6v1.913H54V9.225h5.625v1.913h5.4V9.225h5.625v1.913h5.399V9.225h5.625   v1.913h5.4V9.225H92.7v1.913h5.625V9.225h5.399v1.913" />
	<path fill="#666666" d="M2.025,10.575H112.5V11.7H2.025V10.575z" />
</g>
<g id="Group_Ladder1">
	<path fill="#4C4C4C" d="M56.521,72l0.32-0.534l0.534,0.31l0.45-0.675L1.35,38.701L1.125,39.15l0.438,0.254L1.125,40.5l0.45,0.226   l0.675-0.899L1.987,39.65l0.707,0.41l-0.669,1.115L2.7,41.4l0.434-1.085l0.807,0.468l-0.116-0.058L3.15,41.625l0.45,0.451   l0.663-1.105l0.552,0.32L4.275,42.3l0.45,0.225l0.672-0.897l0.439,0.256L5.4,42.975l0.45,0.226l0.45-0.9l-0.354-0.354l1.021,0.593   l-0.659,1.098L0.45,40.275l-0.225,0.45l55.35,31.881v0.519H58.5V72H56.521z M7.838,44.513l-1.285-0.736l0.196,0.098L7.4,42.79   l1.024,0.594l-0.549-0.183L7.425,44.1L7.838,44.513z M7.882,44.539l0.654-1.09l0.442,0.256l-0.428,1.07L9,45L9.45,44.1l-0.29-0.289   l0.945,0.548l-0.65,1.083L7.882,44.539z M9.616,45.534L9.9,45.675l0.639-1.065l0.699,0.405L10.575,45.9l0.43,0.431L9.616,45.534z    M11.029,46.344l0.646-1.076l0.533,0.309L11.7,46.576l0.45,0.225l0.502-0.965l0.591,0.343l-0.641,1.068L11.029,46.344z    M12.617,47.255l0.658,0.22l0.45-0.899l-0.279-0.279l0.928,0.538l-0.649,0.866l0.447,0.447L12.617,47.255z M14.175,48.149   l0.637-1.061l0.91,0.527L15.3,47.475l-0.45,0.899L15.3,48.6l0.643-0.856l0.438,0.255L15.75,49.05l0.675,0.225l0.45-0.9   l-0.214-0.214l0.855,0.496l-0.628,1.048L14.175,48.149z M18.396,50.571l-1.149-0.659l0.078,0.039l0.625-1.042l0.809,0.469   l-0.309-0.103l-0.45,0.9L18.396,50.571z M18.46,50.608l0.625-1.041l0.434,0.252L18.9,50.85l0.675,0.226l0.45-0.9l-0.151-0.15   l0.78,0.452l-0.621,1.033L18.46,50.608z M21.562,52.387l-1.273-0.731l0.187,0.094l0.613-1.021l0.715,0.415L21.6,51.076l-0.45,0.899   L21.562,52.387z M22.649,53.011l0.526-1.036l-0.45-0.226l-0.689,0.91l-0.429-0.246l0.616-1.026l1.569,0.91l-0.612,1.019   L22.649,53.011z M24.729,54.204l-1.376-0.789l0.272,0.136l0.675-0.9l-0.14-0.14l0.68,0.395l-0.09-0.03l-0.45,0.9L24.729,54.204z    M25.8,54.818l0.525-1.043l-0.45-0.225l-0.675,0.9l0.021,0.036l-0.468-0.269l0.607-1.012l1.569,0.91l-0.603,1.004L25.8,54.818z    M27.461,55.772l-1.071-0.614l0.384,0.192l0.675-0.899l-0.076-0.076l0.524,0.304L27.461,55.772z M28.688,56.475L27.9,56.024   l0.599-0.997l0.757,0.439l-0.231-0.116L28.35,56.25L28.688,56.475z M29.035,56.674l0.435-1.085l0.598,0.348l-0.593,0.988   l0.45,0.225l0.675-0.9l-0.01-0.01L31.04,56.5l-0.43,1.077L29.035,56.674z M32.119,58.444l-1.135-0.651l0.065,0.033l0.587-0.979   l0.534,0.31l-0.446,0.894L32.119,58.444z M32.183,58.48l0.428-1.068l0.867,0.503L33.3,57.826l-0.675,0.899l0.45,0.226l0.663-0.885   l0.443,0.257l-0.424,1.061L32.183,58.48z M35.285,60.26l-1.263-0.725l0.178,0.089l0.675-0.899l0.437,0.253l-0.437,0.872   L35.285,60.26z M35.331,60.287l0.421-1.053l0.691,0.4l-0.668,0.891l0.45,0.225l0.649-0.865l0.605,0.352l-0.573,0.954L35.331,60.287   z M38.039,61.84l-0.952-0.546l0.263,0.131l0.661-0.882l0.444,0.258L38.039,61.84z M39.173,62.491l-0.694-0.398l0.414-1.037   l0.687,0.398l-0.654,0.872L39.173,62.491z M39.613,62.743l0.412-1.03l0.592,0.343l-0.564,0.94L39.613,62.743z M41.187,63.646   l-1.059-0.607l0.372,0.187l0.647-0.862l0.449,0.26L41.187,63.646z M42.405,64.345l-0.779-0.447l0.56-0.933l0.529,0.307l-0.64,0.853   L42.405,64.345z M42.761,64.549l0.406-1.016l0.685,0.397L43.2,64.8l0.45,0.225l0.633-0.844l0.454,0.264l-0.402,1.007L42.761,64.549   z M45.309,66.011l-0.589-0.339l0.056,0.028l0.645-0.859l0.438,0.254L45.309,66.011z M45.908,66.355l0.4-0.999l0.68,0.395   L46.35,66.6l0.02,0.02L45.908,66.355z M46.882,66.914l0.545-0.908l0.451,0.262l-0.396,0.99L46.882,66.914z M48.456,67.816   l-0.697-0.399l0.166,0.083l0.631-0.84l0.44,0.256L48.456,67.816z M49.056,68.161l0.394-0.982l0.674,0.391L49.5,68.4l0.037,0.037   L49.056,68.161z M50.029,68.719l0.536-0.895l0.455,0.265l-0.39,0.975L50.029,68.719z M51.602,69.622l-0.78-0.448l0.254,0.127   l0.616-0.822l0.442,0.257L51.602,69.622z M52.204,69.966L52.59,69l0.669,0.389l-0.609,0.813l0.052,0.052L52.204,69.966z    M53.175,70.524l0.527-0.879l0.633,0.367l-0.11-0.037l-0.448,0.895L53.175,70.524z M54.749,71.427l-0.886-0.509l0.362,0.182   l0.602-0.803l0.445,0.258L54.749,71.427z M55.935,72h-0.188l-0.396-0.227l0.449-0.898l-0.032-0.031l0.639,0.37L55.935,72z" />
</g>
</svg>