<!DOCTYPE svg PUBLIC "-//W3C//DTD SVG 1.1//EN" "http://www.w3.org/Graphics/SVG/1.1/DTD/svg11.dtd"[]><svg version="1.1" xmlns="http://www.w3.org/2000/svg" xmlns:xlink="http://www.w3.org/1999/xlink" width="28px" height="112px" viewBox="0 0 27.813 112.5" enable-background="new 0 0 27.813 112.5" xml:space="preserve">
<g id="Group_Rail2">
	<path fill="#CCCCCC" d="M12.499,10.25V0.003l4.504,0.338v10.36L12.499,10.25z" />
	<path fill="#AAAAAA" d="M22.859,8.899h4.054l0.9,1.126v92.111c0,0-0.234,1.02-0.9,1.352H24.21v-1.352l2.702-0.45V10.476   l-3.49-0.225l-0.563,0.338v0.563h-1.351L22.859,8.899z" />
	<path fill="#D6D6D6" d="M12.499,0.003L7.544,1.692v10.36l4.955-1.802V0.003z" />
</g>
<g id="Group_TankBody">
	<linearGradient id="SVGID_1_" gradientUnits="userSpaceOnUse" x1="0" y1="61.375" x2="25.561" y2="61.375">
		<stop offset="0" style="stop-color:#383838" />
		<stop offset="0.45" style="stop-color:#ECECEC" />
		<stop offset="0.55" style="stop-color:#D9D9D9" />
		<stop offset="0.76" style="stop-color:#A8A8A8" />
		<stop offset="0.77" style="stop-color:#A6A6A6" />
		<stop offset="1" style="stop-color:#383838" />
	</linearGradient>
	<path fill="url(#SVGID_1_)" d="M25.561,11.489c0,0-1.612-1.239-11.71-1.239c-0.527,0-1.582,0-2.11,0C2.24,10.25,0,11.489,0,11.489   v99.769c0,0,0.625,1.242,12.781,1.242c12.001,0,12.78-1.242,12.78-1.242" />
</g>
<g id="Group_Railing">
	<rect x="0" y="69.989" fill="#CCCCCC" width="26.012" height="0.292" />
	<rect x="0" y="80.37" fill="#CCCCCC" width="26.012" height="0.292" />
	<path fill="#CCCCCC" d="M26.012,91.023c0,0-3.23,0.907-13.006,0.907C2.115,91.931,0,91.023,0,91.023v-0.292   c0,0,6.15,0.862,13.006,0.862c7.61,0,13.006-0.862,13.006-0.862V91.023z" />
	<path fill="#CCCCCC" d="M0.338,29.026c0,0,3.23-0.907,13.006-0.907c11.833,0,12.38,0.738,12.38,0.738l-0.004,0.461   c0,0-0.376-0.862-12.376-0.862c-7.61,0-13.006,0.862-13.006,0.862V29.026z" />
	<path fill="#CCCCCC" d="M25.688,101.094c0,0-1.859,1.125-12.682,1.125C0.235,102.219-0.156,101-0.156,101v-0.215   c0,0,1.703,1.097,13.162,1.097c10.197,0,12.682-1.097,12.682-1.097V101.094z" />
	<path fill="#CCCCCC" d="M-0.156,18.991c0,0,1.859-1.125,12.682-1.125c12.771,0,13.162,1.219,13.162,1.219V19.3   c0,0-1.703-1.097-13.162-1.097C2.329,18.203-0.156,19.3-0.156,19.3V18.991z" />
	<rect x="0" y="59.65" fill="#CCCCCC" width="26.012" height="0.292" />
	<rect x="0" y="49.742" fill="#CCCCCC" width="26.012" height="0.292" />
	<rect x="0" y="39.382" fill="#CCCCCC" width="26.012" height="0.292" />
	<path fill="#AAAAAA" d="M13.851,2.593H1.689L0.338,3.945v60.356l1.239,1.352h2.815v-1.352L1.689,62.95V4.846l3.266-0.901H13.4   l0.507,0.112l-0.056,6.193h1.351V3.945L13.851,2.593z" />
	<path fill="#AAAAAA" d="M4.392,111.146H3.829c0,0-2.063-0.255-3.041-1.352v-42.34l0.789-1.351h2.815v1.351l-2.59,0.226   l-0.113,4.392v37.272c0.124,0.563,2.703,0.45,2.703,0.45V111.146z" />
	<path fill="#7F7F7F" d="M17.003,4.846H7.995L1.689,6.197v5.137H2.59V8.899l5.405-0.901v2.252h0.901V7.999h7.657v2.252h0.45V7.999   l5.855,0.901v2.434h0.901V6.197L17.003,4.846z M7.995,7.548L2.59,8.449V6.647l5.405-0.901V7.548z M16.553,7.548H8.896V5.746h7.657   V7.548z M22.859,8.449l-5.855-0.901V5.746l5.855,0.901V8.449z" />
</g>
</svg>