<!DOCTYPE svg PUBLIC "-//W3C//DTD SVG 1.1//EN" "http://www.w3.org/Graphics/SVG/1.1/DTD/svg11.dtd"[]><svg version="1.1" xmlns="http://www.w3.org/2000/svg" xmlns:xlink="http://www.w3.org/1999/xlink" width="112px" height="72px" viewBox="0 0 112.5 72.295" enable-background="new 0 0 112.5 72.295" xml:space="preserve">
<g id="Group_BackLegs">
	<path fill="#003333" d="M22.749,53.49l33.445-22.184L89.639,53.49l1.654-3.873L59.572,28.828l30.066-17.342l1.654-5.768   L56.194,26.351L20.626,5.356l2.123,6.131l30.067,17.342L20.813,49.804L22.749,53.49z" />
	<linearGradient id="SVGID_1_" gradientUnits="userSpaceOnUse" x1="9.3481" y1="58.5002" x2="29.3926" y2="58.5002">
		<stop offset="0" style="stop-color:#003333" />
		<stop offset="0.45" style="stop-color:#699696" />
		<stop offset="0.58" style="stop-color:#588383" />
		<stop offset="0.77" style="stop-color:#365E5E" />
		<stop offset="1" style="stop-color:#003333" />
	</linearGradient>
	<rect x="9.348" y="56.867" fill="url(#SVGID_1_)" width="20.044" height="3.266" />
	<linearGradient id="SVGID_2_" gradientUnits="userSpaceOnUse" x1="15.9922" y1="29.9597" x2="22.7485" y2="29.9597">
		<stop offset="0" style="stop-color:#003333" />
		<stop offset="0.45" style="stop-color:#699696" />
		<stop offset="0.58" style="stop-color:#588383" />
		<stop offset="0.77" style="stop-color:#365E5E" />
		<stop offset="1" style="stop-color:#003333" />
	</linearGradient>
	<rect x="15.992" y="6.023" fill="url(#SVGID_2_)" width="6.756" height="47.874" />
	<linearGradient id="SVGID_3_" gradientUnits="userSpaceOnUse" x1="12.6138" y1="55.179" x2="26.127" y2="55.179">
		<stop offset="0" style="stop-color:#003333" />
		<stop offset="0.45" style="stop-color:#699696" />
		<stop offset="0.58" style="stop-color:#588383" />
		<stop offset="0.77" style="stop-color:#365E5E" />
		<stop offset="1" style="stop-color:#003333" />
	</linearGradient>
	<polygon fill="url(#SVGID_3_)" points="22.726,53.49 16.016,53.49 12.614,53.49 12.614,56.867 26.127,56.867 26.127,53.49  " />
	<linearGradient id="SVGID_4_" gradientUnits="userSpaceOnUse" x1="12.6138" y1="4.7395" x2="26.127" y2="4.7395">
		<stop offset="0" style="stop-color:#003333" />
		<stop offset="0.45" style="stop-color:#699696" />
		<stop offset="0.58" style="stop-color:#588383" />
		<stop offset="0.77" style="stop-color:#365E5E" />
		<stop offset="1" style="stop-color:#003333" />
	</linearGradient>
	<polygon fill="url(#SVGID_4_)" points="22.725,2.835 16.016,2.835 12.614,2.835 12.614,6.644 26.127,6.644 26.127,2.835  " />
	<linearGradient id="SVGID_5_" gradientUnits="userSpaceOnUse" x1="9.3481" y1="1.6047" x2="29.3926" y2="1.6047">
		<stop offset="0" style="stop-color:#003333" />
		<stop offset="0.45" style="stop-color:#699696" />
		<stop offset="0.58" style="stop-color:#588383" />
		<stop offset="0.77" style="stop-color:#365E5E" />
		<stop offset="1" style="stop-color:#003333" />
	</linearGradient>
	<polygon fill="url(#SVGID_5_)" points="26.021,3.266 29.393,3.266 29.393,-0.056 9.348,-0.056 9.348,3.266 12.626,3.266  " />
	<linearGradient id="SVGID_6_" gradientUnits="userSpaceOnUse" x1="89.6387" y1="30.0535" x2="96.3945" y2="30.0535">
		<stop offset="0" style="stop-color:#003333" />
		<stop offset="0.45" style="stop-color:#699696" />
		<stop offset="0.58" style="stop-color:#588383" />
		<stop offset="0.77" style="stop-color:#365E5E" />
		<stop offset="1" style="stop-color:#003333" />
	</linearGradient>
	<rect x="89.639" y="6.21" fill="url(#SVGID_6_)" width="6.756" height="47.687" />
	<linearGradient id="SVGID_7_" gradientUnits="userSpaceOnUse" x1="86.2598" y1="55.3606" x2="99.7734" y2="55.3606">
		<stop offset="0" style="stop-color:#003333" />
		<stop offset="0.45" style="stop-color:#699696" />
		<stop offset="0.58" style="stop-color:#588383" />
		<stop offset="0.77" style="stop-color:#365E5E" />
		<stop offset="1" style="stop-color:#003333" />
	</linearGradient>
	<polygon fill="url(#SVGID_7_)" points="96.372,53.49 89.662,53.49 86.26,53.49 86.26,57.231 99.773,57.231 99.773,53.49  " />
	<linearGradient id="SVGID_8_" gradientUnits="userSpaceOnUse" x1="86.2598" y1="4.7708" x2="99.7734" y2="4.7708">
		<stop offset="0" style="stop-color:#003333" />
		<stop offset="0.45" style="stop-color:#699696" />
		<stop offset="0.58" style="stop-color:#588383" />
		<stop offset="0.77" style="stop-color:#365E5E" />
		<stop offset="1" style="stop-color:#003333" />
	</linearGradient>
	<polygon fill="url(#SVGID_8_)" points="96.371,2.898 89.662,2.898 86.26,2.898 86.26,6.644 99.773,6.644 99.773,2.898  " />
	<linearGradient id="SVGID_9_" gradientUnits="userSpaceOnUse" x1="82.9941" y1="1.6047" x2="103.0391" y2="1.6047">
		<stop offset="0" style="stop-color:#003333" />
		<stop offset="0.45" style="stop-color:#699696" />
		<stop offset="0.58" style="stop-color:#588383" />
		<stop offset="0.77" style="stop-color:#365E5E" />
		<stop offset="1" style="stop-color:#003333" />
	</linearGradient>
	<polygon fill="url(#SVGID_9_)" points="99.667,3.266 103.039,3.266 103.039,-0.056 82.994,-0.056 82.994,3.266 86.273,3.266  " />
	<path fill="#194C4C" d="M48.649,30.855l3.378-2.14l-3.378-2.026l2.928-4.167l4.617,2.928l4.617-2.928l2.928,4.167l-3.378,2.026   l3.378,2.14l-2.928,4.167l-4.617-2.928l-4.617,2.928L48.649,30.855z" />
	<linearGradient id="SVGID_10_" gradientUnits="userSpaceOnUse" x1="82.9941" y1="58.5002" x2="103.0391" y2="58.5002">
		<stop offset="0" style="stop-color:#003333" />
		<stop offset="0.45" style="stop-color:#699696" />
		<stop offset="0.58" style="stop-color:#588383" />
		<stop offset="0.77" style="stop-color:#365E5E" />
		<stop offset="1" style="stop-color:#003333" />
	</linearGradient>
	<rect x="82.994" y="56.867" fill="url(#SVGID_10_)" width="20.045" height="3.266" />
</g>
<g id="Group_FrontLegs">
	<path fill="#336666" d="M15.992,64.188l40.202-26.688l40.201,26.688l2.98-3.958L60.248,34.572l38.46-22.05l-2.313-4.526   L56.194,31.643L15.992,7.995l-2.867,4.234L52.14,34.572L13.792,59.856L15.992,64.188z" />
	<path fill="#669999" d="M47.185,37.048l3.941-2.477l-3.941-2.478l3.491-5.067l5.518,3.604l5.517-3.604l3.492,5.067l-3.941,2.478   l3.941,2.477l-3.492,5.067l-5.517-3.49l-5.518,3.49L47.185,37.048z" />
	<linearGradient id="SVGID_11_" gradientUnits="userSpaceOnUse" x1="96.3389" y1="36.3987" x2="104.334" y2="36.3987">
		<stop offset="0" style="stop-color:#194C4C" />
		<stop offset="0.45" style="stop-color:#99CCCC" />
		<stop offset="0.55" style="stop-color:#86B9B9" />
		<stop offset="0.73" style="stop-color:#568989" />
		<stop offset="0.77" style="stop-color:#4C7F7F" />
		<stop offset="1" style="stop-color:#194C4C" />
	</linearGradient>
	<rect x="96.339" y="7.649" fill="url(#SVGID_11_)" width="7.995" height="57.499" />
	<linearGradient id="SVGID_12_" gradientUnits="userSpaceOnUse" x1="7.9971" y1="35.9187" x2="15.9922" y2="35.9187">
		<stop offset="0" style="stop-color:#194C4C" />
		<stop offset="0.45" style="stop-color:#99CCCC" />
		<stop offset="0.55" style="stop-color:#86B9B9" />
		<stop offset="0.73" style="stop-color:#568989" />
		<stop offset="0.77" style="stop-color:#4C7F7F" />
		<stop offset="1" style="stop-color:#194C4C" />
	</linearGradient>
	<rect x="7.997" y="7.065" fill="url(#SVGID_12_)" width="7.995" height="57.708" />
	<linearGradient id="SVGID_13_" gradientUnits="userSpaceOnUse" x1="92.2852" y1="66.5422" x2="108.3887" y2="66.5422">
		<stop offset="0" style="stop-color:#194C4C" />
		<stop offset="0.45" style="stop-color:#99CCCC" />
		<stop offset="0.55" style="stop-color:#86B9B9" />
		<stop offset="0.73" style="stop-color:#568989" />
		<stop offset="0.77" style="stop-color:#4C7F7F" />
		<stop offset="1" style="stop-color:#194C4C" />
	</linearGradient>
	<polygon fill="url(#SVGID_13_)" points="104.334,64.188 96.339,64.188 92.285,64.188 92.285,68.898 108.389,68.898 108.389,64.188     " />
	<linearGradient id="SVGID_14_" gradientUnits="userSpaceOnUse" x1="88.3438" y1="70.2766" x2="112.4414" y2="70.2766">
		<stop offset="0" style="stop-color:#194C4C" />
		<stop offset="0.45" style="stop-color:#99CCCC" />
		<stop offset="0.55" style="stop-color:#86B9B9" />
		<stop offset="0.73" style="stop-color:#568989" />
		<stop offset="0.77" style="stop-color:#4C7F7F" />
		<stop offset="1" style="stop-color:#194C4C" />
	</linearGradient>
	<rect x="88.344" y="68.258" fill="url(#SVGID_14_)" width="24.098" height="4.037" />
	<linearGradient id="SVGID_15_" gradientUnits="userSpaceOnUse" x1="3.9429" y1="66.4641" x2="20.0459" y2="66.4641">
		<stop offset="0" style="stop-color:#194C4C" />
		<stop offset="0.45" style="stop-color:#99CCCC" />
		<stop offset="0.55" style="stop-color:#86B9B9" />
		<stop offset="0.73" style="stop-color:#568989" />
		<stop offset="0.77" style="stop-color:#4C7F7F" />
		<stop offset="1" style="stop-color:#194C4C" />
	</linearGradient>
	<polygon fill="url(#SVGID_15_)" points="15.992,64.188 7.997,64.188 3.943,64.188 3.943,68.741 20.046,68.741 20.046,64.188  " />
	<linearGradient id="SVGID_16_" gradientUnits="userSpaceOnUse" x1="3.9429" y1="5.78" x2="20.0459" y2="5.78">
		<stop offset="0" style="stop-color:#194C4C" />
		<stop offset="0.45" style="stop-color:#99CCCC" />
		<stop offset="0.55" style="stop-color:#86B9B9" />
		<stop offset="0.73" style="stop-color:#568989" />
		<stop offset="0.77" style="stop-color:#4C7F7F" />
		<stop offset="1" style="stop-color:#194C4C" />
	</linearGradient>
	<polygon fill="url(#SVGID_16_)" points="15.992,3.565 7.997,3.565 3.943,3.565 3.943,7.995 20.046,7.995 20.046,3.565  " />
	<linearGradient id="SVGID_17_" gradientUnits="userSpaceOnUse" x1="0.0015" y1="70.2766" x2="24.1001" y2="70.2766">
		<stop offset="0" style="stop-color:#194C4C" />
		<stop offset="0.45" style="stop-color:#99CCCC" />
		<stop offset="0.55" style="stop-color:#86B9B9" />
		<stop offset="0.73" style="stop-color:#568989" />
		<stop offset="0.77" style="stop-color:#4C7F7F" />
		<stop offset="1" style="stop-color:#194C4C" />
	</linearGradient>
	<rect x="0.001" y="68.258" fill="url(#SVGID_17_)" width="24.099" height="4.037" />
	<linearGradient id="SVGID_18_" gradientUnits="userSpaceOnUse" x1="0.0015" y1="1.9709" x2="24.1001" y2="1.9709">
		<stop offset="0" style="stop-color:#194C4C" />
		<stop offset="0.45" style="stop-color:#99CCCC" />
		<stop offset="0.55" style="stop-color:#86B9B9" />
		<stop offset="0.73" style="stop-color:#568989" />
		<stop offset="0.77" style="stop-color:#4C7F7F" />
		<stop offset="1" style="stop-color:#194C4C" />
	</linearGradient>
	<polygon fill="url(#SVGID_18_)" points="20.046,3.942 24.1,3.942 24.1,0 0.001,0 0.001,3.942 3.943,3.942  " />
	<linearGradient id="SVGID_19_" gradientUnits="userSpaceOnUse" x1="92.2852" y1="5.7185" x2="108.3887" y2="5.7185">
		<stop offset="0" style="stop-color:#194C4C" />
		<stop offset="0.45" style="stop-color:#99CCCC" />
		<stop offset="0.55" style="stop-color:#86B9B9" />
		<stop offset="0.73" style="stop-color:#568989" />
		<stop offset="0.77" style="stop-color:#4C7F7F" />
		<stop offset="1" style="stop-color:#194C4C" />
	</linearGradient>
	<polygon fill="url(#SVGID_19_)" points="104.334,3.442 96.339,3.442 92.285,3.442 92.285,7.995 108.389,7.995 108.389,3.442  " />
	<linearGradient id="SVGID_20_" gradientUnits="userSpaceOnUse" x1="88.3438" y1="1.9426" x2="112.4414" y2="1.9426">
		<stop offset="0" style="stop-color:#194C4C" />
		<stop offset="0.45" style="stop-color:#99CCCC" />
		<stop offset="0.55" style="stop-color:#86B9B9" />
		<stop offset="0.73" style="stop-color:#568989" />
		<stop offset="0.77" style="stop-color:#4C7F7F" />
		<stop offset="1" style="stop-color:#194C4C" />
	</linearGradient>
	<polygon fill="url(#SVGID_20_)" points="108.389,3.942 112.441,3.942 112.441,-0.056 88.344,-0.056 88.344,3.942 92.285,3.942  " />
</g>
</svg>