<!DOCTYPE svg PUBLIC "-//W3C//DTD SVG 1.1//EN" "http://www.w3.org/Graphics/SVG/1.1/DTD/svg11.dtd"[]><svg version="1.1" xmlns="http://www.w3.org/2000/svg" xmlns:xlink="http://www.w3.org/1999/xlink" width="112px" height="112px" viewBox="0 0 112.5 112.5" enable-background="new 0 0 112.5 112.5" xml:space="preserve">
<g id="Group_TankBody">
<linearGradient id="SVGID_1_" gradientUnits="userSpaceOnUse" x1="0" y1="58.5586" x2="112.5" y2="58.5586">
	<stop offset="0" style="stop-color:#383838" />
	<stop offset="0.51" style="stop-color:#ECECEC" />
	<stop offset="0.58" style="stop-color:#D9D9D9" />
	<stop offset="0.72" style="stop-color:#A8A8A8" />
	<stop offset="0.92" style="stop-color:#5A5A5A" />
	<stop offset="1" style="stop-color:#383838" />
</linearGradient>
<path fill="url(#SVGID_1_)" d="M112.5,107.771V4.617H0v103.153v0.226c10.397,2.942,9.534,4.504,52.417,4.504  c2.38,0,7.141-0.113,9.521-0.113c42.146,0,50.449-4.391,50.449-4.391L112.5,107.771" />
<linearGradient id="SVGID_2_" gradientUnits="userSpaceOnUse" x1="56.1929" y1="0" x2="56.1929" y2="9.8979">
	<stop offset="0" style="stop-color:#C8C8C8" />
	<stop offset="0.29" style="stop-color:#B1B1B1" />
	<stop offset="0.91" style="stop-color:#757575" />
	<stop offset="1" style="stop-color:#6C6C6C" />
</linearGradient>
<ellipse fill="url(#SVGID_2_)" cx="56.194" cy="4.949" rx="56.193" ry="4.949" />
<path fill="#7F7F7F" d="M23.423,11.599h2.365v2.365h-2.365V11.599z" />
<path fill="#7F7F7F" d="M23.423,21.059h2.365v2.365h-2.365V21.059z" />
<path fill="#7F7F7F" d="M23.423,30.405h2.365v2.365h-2.365V30.405z" />
<path fill="#7F7F7F" d="M23.423,39.752h2.365v2.365h-2.365V39.752z" />
<path fill="#7F7F7F" d="M23.423,49.099h2.365v2.365h-2.365V49.099z" />
<path fill="#7F7F7F" d="M23.423,58.559h2.365v2.365h-2.365V58.559z" />
<path fill="#7F7F7F" d="M23.423,67.905h2.365v2.365h-2.365V67.905z" />
<path fill="#7F7F7F" d="M23.423,77.252h2.365v2.365h-2.365V77.252z" />
<path fill="#7F7F7F" d="M23.423,86.6h2.365v2.364h-2.365V86.6z" />
<path fill="#7F7F7F" d="M23.423,96.059h2.365v2.365h-2.365V96.059z" />
<path fill="#7F7F7F" d="M23.423,105.405h2.365v2.365h-2.365V105.405z" />
<path fill="#999999" d="M70.271,11.599h2.364v2.365h-2.364V11.599z" />
<path fill="#999999" d="M70.271,21.059h2.364v2.365h-2.364V21.059z" />
<path fill="#999999" d="M70.271,30.405h2.364v2.365h-2.364V30.405z" />
<path fill="#999999" d="M70.271,39.752h2.364v2.365h-2.364V39.752z" />
<path fill="#999999" d="M70.271,49.099h2.364v2.365h-2.364V49.099z" />
<path fill="#999999" d="M70.271,58.559h2.364v2.365h-2.364V58.559z" />
<path fill="#999999" d="M70.271,67.905h2.364v2.365h-2.364V67.905z" />
<path fill="#999999" d="M70.271,77.252h2.364v2.365h-2.364V77.252z" />
<path fill="#999999" d="M70.271,86.6h2.364v2.364h-2.364V86.6z" />
<path fill="#999999" d="M70.271,96.059h2.364v2.365h-2.364V96.059z" />
<path fill="#999999" d="M70.271,105.405h2.364v2.365h-2.364V105.405z" />
<path fill="none" stroke="#4C4C4C" stroke-width="0.25" d="M28.041,8.671l-0.039,102.808" />
<path fill="none" stroke="#4C4C4C" stroke-width="0.25" d="M75,8.671v103.153" />
</g>
</svg>