<!DOCTYPE svg PUBLIC "-//W3C//DTD SVG 1.1//EN" "http://www.w3.org/Graphics/SVG/1.1/DTD/svg11.dtd"[]><svg version="1.1" xmlns="http://www.w3.org/2000/svg" xmlns:xlink="http://www.w3.org/1999/xlink" width="112px" height="112px" viewBox="0 0 112.385 112.5" enable-background="new 0 0 112.385 112.5" xml:space="preserve">
<g id="Group_TankBody">
<linearGradient id="SVGID_1_" gradientUnits="userSpaceOnUse" x1="9.2798" y1="2.5664" x2="103.1064" y2="2.5664">
	<stop offset="0" style="stop-color:#383838" />
	<stop offset="0.52" style="stop-color:#A6A6A6" />
	<stop offset="0.69" style="stop-color:#7B7B7B" />
	<stop offset="0.9" style="stop-color:#4B4B4B" />
	<stop offset="1" style="stop-color:#383838" />
</linearGradient>
<polygon fill="url(#SVGID_1_)" points="103.106,4.668 56.193,0 9.28,4.668 56.136,5.132 " />
<linearGradient id="SVGID_2_" gradientUnits="userSpaceOnUse" x1="-0.1709" y1="60.0615" x2="112.4424" y2="60.0615">
	<stop offset="0" style="stop-color:#383838" />
	<stop offset="0.5" style="stop-color:#ECECEC" />
	<stop offset="0.57" style="stop-color:#D9D9D9" />
	<stop offset="0.71" style="stop-color:#A8A8A8" />
	<stop offset="0.92" style="stop-color:#5A5A5A" />
	<stop offset="1" style="stop-color:#383838" />
</linearGradient>
<path fill="url(#SVGID_2_)" d="M112.263,11.592c0,0-16.956-3.97-50.376-3.97c-3.559,0-10.675,0-14.234,0  C13.92,7.623,0,11.688,0,11.688l-0.171,0.04v93.826l0.114,0.341c0,0,0.908,6.605,52.393,6.605c2.388,0,7.163,0,9.551,0  c45.697,0,50.442-6.605,50.442-6.605l0.113-0.341V11.728L112.263,11.592z" />
<linearGradient id="SVGID_3_" gradientUnits="userSpaceOnUse" x1="2.7427" y1="22.688" x2="108.5949" y2="-3.7039">
	<stop offset="0" style="stop-color:#383838" />
	<stop offset="0.52" style="stop-color:#BFBFBF" />
	<stop offset="0.74" style="stop-color:#7C7C7C" />
	<stop offset="0.91" style="stop-color:#4B4B4B" />
	<stop offset="1" style="stop-color:#383838" />
</linearGradient>
<path fill="url(#SVGID_3_)" d="M103.106,4.668C94.256,4.453,59.433,3.389,56.193,3.53C52.953,3.389,17.849,4.46,9.28,4.668  c0,0-7.117,4.867-9.28,7.02c24.067-2.875,52.192-2.346,56.194-2.351c5.915,0.141,40.311-0.274,56.249,2.391  C110.279,9.575,103.106,4.668,103.106,4.668z" />
</g>
</svg>