<?xml version="1.0" encoding="UTF-8" standalone="no"?>
<!DOCTYPE svg PUBLIC "-//W3C//DTD SVG 1.1//EN" "http://www.w3.org/Graphics/SVG/1.1/DTD/svg11.dtd">
<svg width="100%" height="100%" viewBox="0 0 400 300" version="1.1" xmlns="http://www.w3.org/2000/svg" xmlns:xlink="http://www.w3.org/1999/xlink" xml:space="preserve" xmlns:serif="http://www.serif.com/" style="fill-rule:evenodd;clip-rule:evenodd;stroke-linejoin:round;stroke-miterlimit:2;">
    <g id="text7003" transform="matrix(0.915365,0,0,1.09246,-12.5,-846.448)">
        <path id="path7005" d="M42.763,821.199L59.833,821.199L59.833,811.533L63.646,811.533L63.646,821.199L80.894,821.199L80.894,841.418L77.259,841.418L77.259,839.023L63.646,839.023L63.646,855.517L59.833,855.517L59.833,839.023L46.398,839.023L46.398,841.418L42.763,841.418L42.763,821.199ZM77.259,824.48L63.646,824.48L63.646,835.742L77.259,835.742L77.259,824.48ZM46.398,835.742L59.833,835.742L59.833,824.48L46.398,824.48L46.398,835.742Z" style="fill-rule:nonzero;"/>
        <path id="path7007" d="M74.554,816.393L95.837,816.393C94.344,813.555 93.177,811.486 92.334,810.185L95.748,808.589C96.576,809.86 97.818,811.929 99.473,814.796L96.28,816.393L117.12,816.393L117.12,819.674L108.939,819.674C107.358,828.113 103.959,834.897 98.741,840.025C102.673,842.893 108.917,845.464 117.475,847.74C116.115,849.278 115.08,850.563 114.371,851.598C106.035,848.716 99.879,845.701 95.904,842.553C91.913,845.657 85.536,848.79 76.771,851.953C76.003,850.918 75.116,849.765 74.111,848.494C82.565,845.952 88.927,843.122 93.199,840.003C87.804,834.239 84.375,827.463 82.912,819.674L74.554,819.674L74.554,816.393ZM105.148,819.674L86.459,819.674C87.789,826.945 90.967,832.953 95.992,837.698C100.796,833.234 103.848,827.226 105.148,819.674Z" style="fill-rule:nonzero;"/>
        <path id="path7009" d="M152.603,823.044C154.022,823.783 155.19,824.33 156.106,824.685C154.126,832.075 152.692,837.528 151.805,841.046L148.17,839.361C149.914,834.425 151.392,828.986 152.603,823.044ZM150.919,798.835C152.722,800.342 154.968,802.382 157.658,804.954C156.683,805.9 155.796,806.786 154.998,807.614C152.84,805.22 150.712,803.032 148.613,801.052L150.919,798.835ZM148.923,810.23C151.406,812.24 153.756,814.236 155.973,816.216C155.205,817.014 154.347,817.945 153.402,819.009C150.741,816.379 148.524,814.265 146.751,812.669L148.923,810.23ZM185.947,797.992L201.669,794.069L189.183,835.725C188.195,839.022 187.543,840.824 184.262,840.824C182.843,840.824 181.158,840.794 179.207,840.736C179.089,839.642 178.882,838.43 178.586,837.1C180.478,837.306 182.089,837.41 183.419,837.41C185.104,837.41 185.947,836.568 185.947,834.883L185.947,797.992ZM182.133,830.981L179.03,830.981L179.03,801.584L182.133,801.584L182.133,830.981ZM158.501,800.431L175.217,800.431L175.217,828.454L172.024,828.454L172.024,803.535L161.693,803.535L161.693,828.454L158.501,828.454L158.501,800.431ZM165.418,807.348L168.654,807.348L168.654,818.344C168.654,822.837 168.24,826.444 167.413,829.163C171.256,832.119 174.596,834.779 177.434,837.144L175.039,839.849C172.674,837.602 169.748,835.031 166.26,832.134C164.427,835.77 161.131,838.977 156.372,841.755C155.722,840.81 154.998,839.864 154.2,838.918C158.604,836.376 161.619,833.553 163.245,830.449C164.693,827.759 165.418,823.754 165.418,818.433L165.418,807.348Z" style="fill-rule:nonzero;"/>
        <path id="path7011" d="M202.659,849.828L218.843,849.828C218.814,847.094 218.799,844.123 218.799,840.916L222.302,840.916C222.242,844.434 222.228,847.405 222.257,849.828L233.209,849.828L233.209,853.065L223.013,852.603C223.309,865.107 224.016,874.082 226.514,878.605C227.43,880.142 228.199,880.91 228.819,880.91C229.322,880.91 229.677,880.319 229.884,879.137C230.179,877.334 229.366,875.157 229.514,872.26C230.785,872.763 234.734,871.46 235.68,871.726C235.296,875.067 233.12,879.122 232.766,880.866C232.293,883.349 231.051,884.591 229.041,884.591C227.386,884.591 225.745,883.453 224.119,881.176C221.104,876.802 219.375,867.431 218.932,853.065L202.659,853.065L202.659,849.828ZM201.861,878.294C204.093,877.999 206.428,877.659 208.867,877.275L208.867,863.529L202.526,863.529L202.526,860.381L217.868,860.381L217.868,863.529L212.148,863.529L212.148,876.765C214.468,876.38 216.877,875.959 219.375,875.501C219.316,876.683 219.286,877.836 219.286,878.959C212.813,879.994 207.3,880.925 202.748,881.753L201.861,878.294ZM203.546,869.293C203.694,870.949 203.856,872.382 204.034,873.594C202.053,875.486 200.073,877.452 198.092,879.492C197.176,880.437 196.407,881.339 195.787,882.196L193.304,879.359C194.338,878.206 194.855,876.787 194.855,875.102L194.855,858.785L189.712,858.785L189.712,855.637L198.225,855.637L198.225,874.703C199.821,873.166 201.595,871.363 203.546,869.293ZM194.057,842.069C196.718,844.67 199.053,847.124 201.063,849.429L198.137,851.957C196.274,849.503 194.072,846.961 191.53,844.33L194.057,842.069ZM223.986,844.02L226.026,841.892C228.391,843.636 230.268,845.173 231.657,846.503L229.218,848.986C227.593,847.242 225.849,845.587 223.986,844.02Z" style="fill-rule:nonzero;"/>
        <path id="path7013" d="M262.88,818.776L268.222,854.669L258.667,854.669L258.202,848.217L254.854,848.217L254.3,854.669L244.634,854.669L249.378,818.776L262.88,818.776ZM257.936,841.854C257.463,837.79 256.99,832.772 256.517,826.801C255.571,833.659 254.98,838.677 254.743,841.854L257.936,841.854Z" style="fill-rule:nonzero;"/>
        <path id="path7015" d="M269.819,818.776L279.13,818.776C282.071,818.776 284.296,819.005 285.803,819.463C287.325,819.921 288.552,820.852 289.483,822.256C290.414,823.646 290.88,825.892 290.88,828.996C290.88,831.095 290.547,832.558 289.882,833.386C289.232,834.213 287.939,834.849 286.003,835.292C288.16,835.78 289.624,836.593 290.392,837.731C291.161,838.854 291.545,840.583 291.545,842.919L291.545,846.244C291.545,848.668 291.264,850.464 290.703,851.631C290.156,852.799 289.276,853.597 288.064,854.026C286.852,854.454 284.369,854.669 280.615,854.669L269.819,854.669L269.819,818.776ZM279.152,824.917L279.152,832.898C279.551,832.883 279.862,832.875 280.083,832.875C281,832.875 281.583,832.654 281.835,832.21C282.086,831.752 282.212,830.459 282.212,828.33C282.212,827.207 282.108,826.424 281.901,825.98C281.694,825.522 281.421,825.234 281.081,825.116C280.756,824.998 280.113,824.931 279.152,824.916L279.152,824.917ZM279.152,838.485L279.152,848.528C280.468,848.483 281.303,848.276 281.657,847.907C282.027,847.537 282.212,846.628 282.212,845.18L282.212,841.832C282.212,840.295 282.049,839.364 281.724,839.039C281.399,838.714 280.541,838.529 279.152,838.485Z" style="fill-rule:nonzero;"/>
        <path id="path7017" d="M316.708,834.428L307.374,834.428L307.374,828.176C307.374,826.358 307.271,825.227 307.064,824.784C306.872,824.326 306.436,824.097 305.756,824.097C304.987,824.097 304.499,824.37 304.293,824.917C304.086,825.464 303.982,826.646 303.982,828.464L303.982,845.136C303.982,846.88 304.086,848.018 304.293,848.55C304.499,849.082 304.965,849.348 305.689,849.348C306.384,849.348 306.835,849.082 307.042,848.55C307.263,848.018 307.374,846.769 307.374,844.803L307.374,840.303L316.708,840.303L316.708,841.699C316.708,845.409 316.442,848.04 315.91,849.592C315.392,851.144 314.232,852.503 312.429,853.671C310.641,854.839 308.431,855.422 305.8,855.422C303.066,855.422 300.812,854.927 299.038,853.937C297.265,852.947 296.09,851.58 295.513,849.836C294.937,848.077 294.649,845.439 294.649,841.921L294.649,831.435C294.649,828.848 294.737,826.912 294.915,825.626C295.092,824.326 295.617,823.077 296.489,821.88C297.376,820.682 298.595,819.744 300.147,819.064C301.714,818.369 303.509,818.022 305.534,818.022C308.283,818.022 310.552,818.554 312.34,819.618C314.129,820.682 315.304,822.013 315.865,823.609C316.427,825.19 316.708,827.658 316.708,831.013L316.708,834.428Z" style="fill-rule:nonzero;"/>
        <path id="path7019" d="M333.645,818.776L333.645,854.669L324.689,854.669L324.689,835.425C324.689,832.647 324.622,830.977 324.489,830.415C324.356,829.853 323.987,829.432 323.381,829.151C322.789,828.856 321.459,828.708 319.39,828.708L318.503,828.708L318.503,824.518C322.834,823.587 326.122,821.673 328.369,818.776L333.645,818.776Z" style="fill-rule:nonzero;"/>
        <path id="path7021" d="M356.436,848.55L356.436,854.669L336.727,854.669L336.727,849.547C342.565,840 346.031,834.095 347.124,831.834C348.233,829.558 348.787,827.784 348.787,826.513C348.787,825.538 348.617,824.813 348.277,824.34C347.952,823.853 347.45,823.609 346.77,823.609C346.09,823.609 345.58,823.875 345.24,824.407C344.915,824.939 344.752,825.996 344.752,827.577L344.752,830.991L336.727,830.991L336.727,829.683C336.727,827.673 336.83,826.092 337.037,824.939C337.244,823.771 337.754,822.626 338.567,821.503C339.38,820.379 340.437,819.53 341.737,818.953C343.038,818.377 344.597,818.089 346.415,818.089C349.977,818.089 352.667,818.975 354.485,820.749C356.317,822.508 357.234,824.739 357.234,827.444C357.234,829.499 356.717,831.671 355.682,833.962C354.662,836.253 351.64,841.115 346.615,848.55L356.436,848.55Z" style="fill-rule:nonzero;"/>
        <path id="path7023" d="M376.743,834.339C378.103,834.797 379.115,835.551 379.78,836.6C380.445,837.635 380.778,840.074 380.778,843.916C380.778,846.769 380.453,848.986 379.803,850.567C379.152,852.134 378.029,853.331 376.433,854.159C374.837,854.972 372.79,855.378 370.292,855.378C367.454,855.378 365.222,854.905 363.597,853.959C361.986,852.998 360.921,851.831 360.404,850.456C359.902,849.067 359.65,846.665 359.65,843.251L359.65,840.413L368.607,840.413L368.607,846.244C368.607,847.796 368.696,848.786 368.873,849.215C369.065,849.629 369.479,849.836 370.114,849.836C370.809,849.836 371.267,849.57 371.489,849.037C371.711,848.505 371.821,847.116 371.821,844.87L371.821,842.387C371.821,841.012 371.666,840.007 371.356,839.371C371.046,838.736 370.587,838.322 369.981,838.13C369.375,837.923 368.2,837.805 366.456,837.775L366.456,832.565C368.585,832.565 369.9,832.484 370.403,832.321C370.905,832.159 371.267,831.804 371.489,831.257C371.711,830.71 371.822,829.853 371.822,828.686L371.822,826.69C371.822,825.434 371.688,824.606 371.422,824.207C371.171,823.808 370.772,823.609 370.225,823.609C369.605,823.609 369.176,823.823 368.939,824.252C368.718,824.665 368.607,825.56 368.607,826.934L368.607,829.883L359.65,829.883L359.65,826.823C359.65,823.394 360.434,821.081 362,819.884C363.567,818.672 366.057,818.066 369.472,818.066C373.743,818.066 376.64,818.901 378.162,820.571C379.684,822.242 380.446,824.562 380.446,827.533C380.446,829.543 380.172,830.999 379.625,831.9C379.078,832.787 378.118,833.6 376.743,834.339L376.743,834.339Z" style="fill-rule:nonzero;"/>
        <g transform="matrix(1.7629,0,0,1.47712,-21.141,698.1)">
            <g transform="matrix(12,0,0,12,56.062,127.44)">
                <path d="M-0.001,0L0.273,-0.716L0.375,-0.716L0.668,0L0.561,0L0.477,-0.217L0.178,-0.217L0.099,0L-0.001,0ZM0.205,-0.294L0.448,-0.294L0.373,-0.492C0.35,-0.552 0.333,-0.602 0.322,-0.641C0.313,-0.595 0.3,-0.549 0.284,-0.504L0.205,-0.294Z" style="fill-rule:nonzero;"/>
            </g>
            <g transform="matrix(12,0,0,12,64.0659,127.44)">
                <path d="M0.147,0L0.065,0L0.065,-0.716L0.153,-0.716L0.153,-0.46C0.19,-0.507 0.238,-0.53 0.295,-0.53C0.327,-0.53 0.358,-0.524 0.386,-0.511C0.414,-0.498 0.438,-0.48 0.456,-0.457C0.475,-0.434 0.542,-0.454 0.552,-0.421C0.563,-0.388 0.515,-0.305 0.515,-0.267C0.515,-0.178 0.493,-0.11 0.449,-0.061C0.405,-0.013 0.353,0.012 0.291,0.012C0.23,0.012 0.182,-0.014 0.147,-0.065L0.147,0ZM0.146,-0.263C0.146,-0.201 0.154,-0.156 0.171,-0.128C0.199,-0.083 0.236,-0.061 0.284,-0.061C0.322,-0.061 0.355,-0.077 0.383,-0.111C0.411,-0.144 0.425,-0.194 0.425,-0.26C0.425,-0.327 0.412,-0.377 0.385,-0.41C0.358,-0.442 0.326,-0.458 0.288,-0.458C0.249,-0.458 0.216,-0.441 0.188,-0.408C0.16,-0.375 0.146,-0.326 0.146,-0.263Z" style="fill-rule:nonzero;"/>
            </g>
            <g transform="matrix(12,0,0,12,70.7397,127.44)">
                <path d="M0.404,-0.19L0.491,-0.179C0.481,-0.119 0.457,-0.073 0.418,-0.039C0.379,-0.005 0.332,0.012 0.275,0.012C0.204,0.012 0.147,-0.011 0.104,-0.058C0.061,-0.104 0.039,-0.171 0.039,-0.257C0.039,-0.313 0.048,-0.362 0.067,-0.404C0.085,-0.446 0.114,-0.478 0.152,-0.499C0.19,-0.52 0.231,-0.53 0.275,-0.53C0.332,-0.53 0.378,-0.516 0.414,-0.488C0.449,-0.459 0.472,-0.419 0.482,-0.366L0.397,-0.353C0.389,-0.388 0.374,-0.414 0.354,-0.432C0.333,-0.449 0.308,-0.458 0.279,-0.458C0.235,-0.458 0.199,-0.442 0.171,-0.41C0.143,-0.379 0.129,-0.328 0.129,-0.26C0.129,-0.19 0.143,-0.139 0.169,-0.108C0.196,-0.076 0.231,-0.061 0.274,-0.061C0.308,-0.061 0.337,-0.071 0.36,-0.092C0.383,-0.113 0.398,-0.146 0.404,-0.19Z" style="fill-rule:nonzero;"/>
            </g>
			<animate attributeName="fill" values="#4fd2dd;#235fa7;#4fd2dd" dur="0.5s" begin="0s" repeatCount="indefinite"></animate>
        </g>
        <g id="rect7026" transform="matrix(1.42295,0,0,23.22,-106.038,-18766.5)">
            <rect x="141.392" y="846.634" width="65.593" height="0.458" style="fill:rgb(77,77,77);">
			<animate attributeName="fill" values="#4fd2dd;#235fa7;#4fd2dd" dur="0.5s" begin="0s" repeatCount="indefinite"></animate>
			</rect>
        </g>
    </g>
</svg>
