<!DOCTYPE svg PUBLIC "-//W3C//DTD SVG 20000303 Stylable//EN" "http://www.w3.org/TR/2000/03/WD-SVG-20000303/DTD/svg-20000303-stylable.dtd"[]><svg xmlns="http://www.w3.org/2000/svg" width="999px" height="784px" viewBox="0 0 530 416"><path style="fill:#7f7f7f;stroke:#000;stroke-width:2" d="M388,136 l98,30 29,-30 0,-117 -294,0 -18,1 -19,3 -18,5 -17,7 -18,9 -17,10 -15,11 -15,13 -14,14 -13,15 -11,15 -9,17 -8,17 -5,17 -4,18 -1,18 1,18 3,18 5,17 7,17 8,17 10,15 11,15 13,13 13,13 15,11 15,10 17,8 17,7 17,5 18,3 18,1 18,-1 18,-4 17,-5 17,-8 17,-9 15,-11 15,-13 14,-14 13,-15 11,-16 10,-16 9,-18 7,-18 5,-18 3,-19 1,-18 0,-7 -1,-7 0,-8 -1,-7 -2,-7 -1,-8 -2,-7 -2,-7z" /><path style="fill:#b2b2b2;stroke:#000;stroke-width:2" d="M358,166 l128,0 0,-118 -295,0 -18,1 -17,3 -17,4 -16,6 -16,7 -14,9 -14,10 -12,12 -12,12 -10,14 -9,14 -7,16 -6,16 -4,17 -3,17 -1,18 1,18 3,17 4,17 6,17 7,15 9,15 10,13 12,13 12,11 14,11 14,8 16,8 16,6 17,4 17,3 18,1 18,-1 17,-3 17,-4 17,-6 15,-8 15,-8 13,-11 13,-11 11,-13 11,-13 8,-15 8,-15 6,-17 4,-17 3,-17 1,-18 0,-7 -1,-8 -1,-7 -1,-7 -1,-8 -2,-7 -2,-7 -2,-7z" /><path style="fill:none;stroke:#000;stroke-width:2" d="M486,48 l29,-33" /></svg>