<!DOCTYPE svg PUBLIC "-//W3C//DTD SVG 1.1//EN" "http://www.w3.org/Graphics/SVG/1.1/DTD/svg11.dtd"[]><svg version="1.1" xmlns="http://www.w3.org/2000/svg" xmlns:xlink="http://www.w3.org/1999/xlink" width="112px" height="57px" viewBox="0 0 112.5 57.203" enable-background="new 0 0 112.5 57.203" xml:space="preserve">
<g id="Group_7">
	<rect x="27.029" y="9.683" fill="#194C4C" width="14.526" height="26.575" />
</g>
<g id="Group_6">
	<g>
		<defs>
			<polygon id="SVGID_1_" points="34.235,4.053 51.126,4.053 51.014,5.067 51.014,6.193 50.901,7.206 50.789,8.22 50.563,9.233      50.338,10.246 50,11.26 49.438,13.062 49.1,14.075 48.199,15.764 47.298,17.341 46.172,18.805 44.933,20.156 43.694,21.394      42.343,22.408 40.767,23.309 39.303,23.985 37.614,24.548 36.037,24.885 35.136,24.885 34.235,24.998 33.447,24.885      31.758,24.66 30.182,24.322 28.605,23.647 27.141,22.858 25.677,21.957 24.326,20.831 23.2,19.48 22.074,18.129 20.948,16.553      20.047,14.864 19.709,14.075 19.372,13.062 18.696,11.26 18.471,10.246 18.246,9.233 18.02,8.22 17.908,7.206 17.795,6.193      17.682,5.067 17.682,4.053    " />
		</defs>
		<clipPath id="SVGID_2_">
			<use xlink:href="#SVGID_1_" overflow="visible" />
		</clipPath>
		
			<radialGradient id="SVGID_3_" cx="0.0254" cy="57.2227" r="1.0006" gradientTransform="matrix(13.9518 0 0 -20.9277 34.0479 1212.0757)" gradientUnits="userSpaceOnUse">
			<stop offset="0" style="stop-color:#99CCCC" />
			<stop offset="0.16" style="stop-color:#8BBEBE" />
			<stop offset="0.47" style="stop-color:#659898" />
			<stop offset="0.89" style="stop-color:#295C5C" />
			<stop offset="1" style="stop-color:#194C4C" />
		</radialGradient>
		<rect x="17.682" y="4.053" clip-path="url(#SVGID_2_)" fill="url(#SVGID_3_)" width="33.444" height="20.945" />
	</g>
	<g>
		<defs>
			<rect id="SVGID_4_" x="16.106" y="1.125" width="36.597" height="2.928" />
		</defs>
		<clipPath id="SVGID_5_">
			<use xlink:href="#SVGID_4_" overflow="visible" />
		</clipPath>
		
			<linearGradient id="SVGID_6_" gradientUnits="userSpaceOnUse" x1="-0.0068" y1="57.1963" x2="0.9932" y2="57.1963" gradientTransform="matrix(36.5972 0 0 -36.5972 16.359 2095.8325)">
			<stop offset="0" style="stop-color:#194C4C" />
			<stop offset="0.45" style="stop-color:#99CCCC" />
			<stop offset="0.55" style="stop-color:#86B9B9" />
			<stop offset="0.73" style="stop-color:#568989" />
			<stop offset="0.77" style="stop-color:#4C7F7F" />
			<stop offset="1" style="stop-color:#194C4C" />
		</linearGradient>
		<rect x="16.106" y="1.125" clip-path="url(#SVGID_5_)" fill="url(#SVGID_6_)" width="36.597" height="2.928" />
	</g>
</g>
<g id="Group_5">
	<g>
		<defs>
			<polygon id="SVGID_7_" points="30.182,51.123 19.709,51.123 19.709,48.758 12.502,48.758 12.502,47.857 4.057,47.857      0.003,46.73 0.003,34.232 4.057,33.331 12.502,33.331 12.502,32.205 19.709,32.205 19.709,30.178 30.182,30.178    " />
		</defs>
		<clipPath id="SVGID_8_">
			<use xlink:href="#SVGID_7_" overflow="visible" />
		</clipPath>
		
			<linearGradient id="SVGID_9_" gradientUnits="userSpaceOnUse" x1="0.0054" y1="57.208" x2="1.0054" y2="57.208" gradientTransform="matrix(0 -20.9453 -20.9453 0 1213.3378 51.2395)">
			<stop offset="0" style="stop-color:#194C4C" />
			<stop offset="0.45" style="stop-color:#99CCCC" />
			<stop offset="0.55" style="stop-color:#86B9B9" />
			<stop offset="0.73" style="stop-color:#568989" />
			<stop offset="0.77" style="stop-color:#4C7F7F" />
			<stop offset="1" style="stop-color:#194C4C" />
		</linearGradient>
		<rect x="0.003" y="30.178" clip-path="url(#SVGID_8_)" fill="url(#SVGID_9_)" width="30.179" height="20.945" />
	</g>
	<g>
		<defs>
			<polyline id="SVGID_10_" points="19.709,48.758 12.502,48.758 12.502,47.857 12.502,33.331 12.502,32.205 19.709,32.205    " />
		</defs>
		<clipPath id="SVGID_11_">
			<use xlink:href="#SVGID_10_" overflow="visible" />
		</clipPath>
		
			<linearGradient id="SVGID_12_" gradientUnits="userSpaceOnUse" x1="0.0166" y1="57.2207" x2="1.0166" y2="57.2207" gradientTransform="matrix(0 -16.5527 -16.5527 0 963.2563 49.0376)">
			<stop offset="0" style="stop-color:#194C4C" />
			<stop offset="0.45" style="stop-color:#99CCCC" />
			<stop offset="0.55" style="stop-color:#86B9B9" />
			<stop offset="0.73" style="stop-color:#568989" />
			<stop offset="0.77" style="stop-color:#4C7F7F" />
			<stop offset="1" style="stop-color:#194C4C" />
		</linearGradient>
		<rect x="12.502" y="32.205" clip-path="url(#SVGID_11_)" fill="url(#SVGID_12_)" width="7.207" height="16.553" />
	</g>
	<g>
		<defs>
			<polyline id="SVGID_13_" points="12.502,47.857 4.057,47.857 4.057,33.331 12.502,33.331    " />
		</defs>
		<clipPath id="SVGID_14_">
			<use xlink:href="#SVGID_13_" overflow="visible" />
		</clipPath>
		
			<linearGradient id="SVGID_15_" gradientUnits="userSpaceOnUse" x1="-0.0181" y1="57.1855" x2="0.9819" y2="57.1855" gradientTransform="matrix(0 -14.5264 -14.5264 0 838.9675 47.5919)">
			<stop offset="0" style="stop-color:#194C4C" />
			<stop offset="0.45" style="stop-color:#99CCCC" />
			<stop offset="0.55" style="stop-color:#86B9B9" />
			<stop offset="0.73" style="stop-color:#568989" />
			<stop offset="0.77" style="stop-color:#4C7F7F" />
			<stop offset="1" style="stop-color:#194C4C" />
		</linearGradient>
		<rect x="4.057" y="33.331" clip-path="url(#SVGID_14_)" fill="url(#SVGID_15_)" width="8.445" height="14.526" />
	</g>
	<g>
		<defs>
			<polyline id="SVGID_16_" points="4.057,47.857 0.003,46.73 0.003,34.232 4.057,33.331    " />
		</defs>
		<clipPath id="SVGID_17_">
			<use xlink:href="#SVGID_16_" overflow="visible" />
		</clipPath>
		
			<radialGradient id="SVGID_18_" cx="-0.0029" cy="57.2373" r="0.999" gradientTransform="matrix(5.3324 0 0 -6.9321 2.0504 437.3716)" gradientUnits="userSpaceOnUse">
			<stop offset="0" style="stop-color:#99CCCC" />
			<stop offset="0.16" style="stop-color:#8BBEBE" />
			<stop offset="0.47" style="stop-color:#659898" />
			<stop offset="0.89" style="stop-color:#295C5C" />
			<stop offset="1" style="stop-color:#194C4C" />
		</radialGradient>
		<rect x="0.003" y="33.331" clip-path="url(#SVGID_17_)" fill="url(#SVGID_18_)" width="4.054" height="14.526" />
	</g>
</g>
<g id="Group_4">
	<g>
		<defs>
			<rect id="SVGID_19_" x="102.999" y="14.526" width="5.917" height="9.233" />
		</defs>
		<clipPath id="SVGID_20_">
			<use xlink:href="#SVGID_19_" overflow="visible" />
		</clipPath>
		
			<linearGradient id="SVGID_21_" gradientUnits="userSpaceOnUse" x1="-4.882813e-004" y1="57.2031" x2="0.9995" y2="57.2031" gradientTransform="matrix(0 -9.2334 -9.2334 0 634.1282 23.7532)">
			<stop offset="0" style="stop-color:#5C5D60" />
			<stop offset="0.5" style="stop-color:#ECECED" />
			<stop offset="0.58" style="stop-color:#D9D9DB" />
			<stop offset="0.76" style="stop-color:#A8A9AB" />
			<stop offset="1" style="stop-color:#5C5D60" />
		</linearGradient>
		<rect x="102.999" y="14.526" clip-path="url(#SVGID_20_)" fill="url(#SVGID_21_)" width="5.917" height="9.233" />
	</g>
</g>
<g id="Group_3">
	<g>
		<defs>
			<rect id="SVGID_22_" x="99.082" y="12.499" width="4.969" height="13.288" />
		</defs>
		<clipPath id="SVGID_23_">
			<use xlink:href="#SVGID_22_" overflow="visible" />
		</clipPath>
		
			<linearGradient id="SVGID_24_" gradientUnits="userSpaceOnUse" x1="-0.0015" y1="57.2012" x2="0.9985" y2="57.2012" gradientTransform="matrix(0 -13.2876 -13.2876 0 861.643 25.7744)">
			<stop offset="0" style="stop-color:#194C4C" />
			<stop offset="0.45" style="stop-color:#99CCCC" />
			<stop offset="0.55" style="stop-color:#86B9B9" />
			<stop offset="0.73" style="stop-color:#568989" />
			<stop offset="0.77" style="stop-color:#4C7F7F" />
			<stop offset="1" style="stop-color:#194C4C" />
		</linearGradient>
		<rect x="99.082" y="12.499" clip-path="url(#SVGID_23_)" fill="url(#SVGID_24_)" width="4.969" height="13.288" />
	</g>
	<g>
		<defs>
			<rect id="SVGID_25_" x="94.666" y="7.206" width="5.332" height="23.872" />
		</defs>
		<clipPath id="SVGID_26_">
			<use xlink:href="#SVGID_25_" overflow="visible" />
		</clipPath>
		
			<linearGradient id="SVGID_27_" gradientUnits="userSpaceOnUse" x1="-0.0015" y1="57.2012" x2="0.9985" y2="57.2012" gradientTransform="matrix(0 -23.8711 -23.8711 0 1462.78 31.0286)">
			<stop offset="0" style="stop-color:#194C4C" />
			<stop offset="0.45" style="stop-color:#99CCCC" />
			<stop offset="0.55" style="stop-color:#86B9B9" />
			<stop offset="0.73" style="stop-color:#568989" />
			<stop offset="0.77" style="stop-color:#4C7F7F" />
			<stop offset="1" style="stop-color:#194C4C" />
		</linearGradient>
		<rect x="94.666" y="7.206" clip-path="url(#SVGID_26_)" fill="url(#SVGID_27_)" width="5.332" height="23.872" />
	</g>
	<g>
		<defs>
			<rect id="SVGID_28_" x="108.33" y="12.499" width="4.167" height="13.288" />
		</defs>
		<clipPath id="SVGID_29_">
			<use xlink:href="#SVGID_28_" overflow="visible" />
		</clipPath>
		
			<linearGradient id="SVGID_30_" gradientUnits="userSpaceOnUse" x1="-0.0015" y1="57.2012" x2="0.9985" y2="57.2012" gradientTransform="matrix(0 -13.2876 -13.2876 0 870.4868 25.7744)">
			<stop offset="0" style="stop-color:#194C4C" />
			<stop offset="0.45" style="stop-color:#99CCCC" />
			<stop offset="0.55" style="stop-color:#86B9B9" />
			<stop offset="0.73" style="stop-color:#568989" />
			<stop offset="0.77" style="stop-color:#4C7F7F" />
			<stop offset="1" style="stop-color:#194C4C" />
		</linearGradient>
		<rect x="108.33" y="12.499" clip-path="url(#SVGID_29_)" fill="url(#SVGID_30_)" width="4.167" height="13.288" />
	</g>
	<g>
		<defs>
			<rect id="SVGID_31_" y="-0.001" width="112.5" height="57.204" />
		</defs>
		<clipPath id="SVGID_32_">
			<use xlink:href="#SVGID_31_" overflow="visible" />
		</clipPath>
		<path clip-path="url(#SVGID_32_)" fill="#194C4C" d="M65.09,0c-1.431,0-2.59,1.865-2.59,4.166c0,2.302,1.159,4.167,2.59,4.167    s2.59-1.865,2.59-4.167C67.68,1.865,66.521,0,65.09,0 M65.09,7.207c-0.81,0-1.465-1.361-1.465-3.041    c0-1.679,0.655-3.04,1.465-3.04c0.809,0,1.464,1.361,1.464,3.04C66.554,5.846,65.898,7.207,65.09,7.207" />
	</g>
</g>
<g id="Group_2">
	<g>
		<defs>
			<polygon id="SVGID_33_" points="29.056,51.123 29.056,26.124 45.834,9.233 95.831,9.233 95.831,55.177 33.334,55.177    " />
		</defs>
		<clipPath id="SVGID_34_">
			<use xlink:href="#SVGID_33_" overflow="visible" />
		</clipPath>
		
			<linearGradient id="SVGID_35_" gradientUnits="userSpaceOnUse" x1="-0.0049" y1="57.1992" x2="0.9951" y2="57.1992" gradientTransform="matrix(0 -45.9429 -45.9429 0 2690.2913 54.9626)">
			<stop offset="0" style="stop-color:#194C4C" />
			<stop offset="0.45" style="stop-color:#99CCCC" />
			<stop offset="0.55" style="stop-color:#86B9B9" />
			<stop offset="0.73" style="stop-color:#568989" />
			<stop offset="0.77" style="stop-color:#4C7F7F" />
			<stop offset="1" style="stop-color:#194C4C" />
		</linearGradient>
		<rect x="29.056" y="9.233" clip-path="url(#SVGID_34_)" fill="url(#SVGID_35_)" width="66.775" height="45.944" />
	</g>
	<g>
		<defs>
			<rect id="SVGID_36_" x="52.028" y="9.234" width="36.94" height="45.943" />
		</defs>
		<clipPath id="SVGID_37_">
			<use xlink:href="#SVGID_36_" overflow="visible" />
		</clipPath>
		
			<linearGradient id="SVGID_38_" gradientUnits="userSpaceOnUse" x1="-0.0049" y1="57.1982" x2="0.9951" y2="57.1982" gradientTransform="matrix(0 -45.9429 -45.9429 0 2698.3538 54.9626)">
			<stop offset="0" style="stop-color:#194C4C" />
			<stop offset="0.45" style="stop-color:#8CC7CC" />
			<stop offset="0.55" style="stop-color:#7CB5B9" />
			<stop offset="0.73" style="stop-color:#548889" />
			<stop offset="0.77" style="stop-color:#4C7F7F" />
			<stop offset="1" style="stop-color:#194C4C" />
		</linearGradient>
		<rect x="52.028" y="9.234" clip-path="url(#SVGID_37_)" fill="url(#SVGID_38_)" width="36.94" height="45.943" />
	</g>
</g>
<g id="Group_1">
	<g>
		<defs>
			<rect id="SVGID_39_" x="89.526" y="7.206" width="6.305" height="49.997" />
		</defs>
		<clipPath id="SVGID_40_">
			<use xlink:href="#SVGID_39_" overflow="visible" />
		</clipPath>
		
			<linearGradient id="SVGID_41_" gradientUnits="userSpaceOnUse" x1="-9.765625e-004" y1="57.2012" x2="0.999" y2="57.2012" gradientTransform="matrix(0 -49.9961 -49.9961 0 2952.5896 57.1692)">
			<stop offset="0" style="stop-color:#194C4C" />
			<stop offset="0.45" style="stop-color:#99CCCC" />
			<stop offset="0.55" style="stop-color:#86B9B9" />
			<stop offset="0.73" style="stop-color:#568989" />
			<stop offset="0.77" style="stop-color:#4C7F7F" />
			<stop offset="1" style="stop-color:#194C4C" />
		</linearGradient>
		<rect x="89.526" y="7.206" clip-path="url(#SVGID_40_)" fill="url(#SVGID_41_)" width="6.305" height="49.997" />
	</g>
	<g>
		<defs>
			<rect id="SVGID_42_" x="45.834" y="7.206" width="6.193" height="49.997" />
		</defs>
		<clipPath id="SVGID_43_">
			<use xlink:href="#SVGID_42_" overflow="visible" />
		</clipPath>
		
			<linearGradient id="SVGID_44_" gradientUnits="userSpaceOnUse" x1="-9.765625e-004" y1="57.2012" x2="0.999" y2="57.2012" gradientTransform="matrix(0 -49.9961 -49.9961 0 2908.8396 57.1692)">
			<stop offset="0" style="stop-color:#194C4C" />
			<stop offset="0.45" style="stop-color:#99CCCC" />
			<stop offset="0.55" style="stop-color:#86B9B9" />
			<stop offset="0.73" style="stop-color:#568989" />
			<stop offset="0.77" style="stop-color:#4C7F7F" />
			<stop offset="1" style="stop-color:#194C4C" />
		</linearGradient>
		<rect x="45.834" y="7.206" clip-path="url(#SVGID_43_)" fill="url(#SVGID_44_)" width="6.193" height="49.997" />
	</g>
	<g>
		<defs>
			<rect id="SVGID_45_" x="79.052" y="7.206" width="3.153" height="49.997" />
		</defs>
		<clipPath id="SVGID_46_">
			<use xlink:href="#SVGID_45_" overflow="visible" />
		</clipPath>
		
			<linearGradient id="SVGID_47_" gradientUnits="userSpaceOnUse" x1="-9.765625e-004" y1="57.2012" x2="0.999" y2="57.2012" gradientTransform="matrix(0 -49.9961 -49.9961 0 2940.5271 57.1692)">
			<stop offset="0" style="stop-color:#194C4C" />
			<stop offset="0.45" style="stop-color:#99CCCC" />
			<stop offset="0.55" style="stop-color:#86B9B9" />
			<stop offset="0.73" style="stop-color:#568989" />
			<stop offset="0.77" style="stop-color:#4C7F7F" />
			<stop offset="1" style="stop-color:#194C4C" />
		</linearGradient>
		<rect x="79.052" y="7.206" clip-path="url(#SVGID_46_)" fill="url(#SVGID_47_)" width="3.153" height="49.997" />
	</g>
	<g>
		<defs>
			<rect id="SVGID_48_" x="63.625" y="7.206" width="2.93" height="49.997" />
		</defs>
		<clipPath id="SVGID_49_">
			<use xlink:href="#SVGID_48_" overflow="visible" />
		</clipPath>
		
			<linearGradient id="SVGID_50_" gradientUnits="userSpaceOnUse" x1="-9.765625e-004" y1="57.2021" x2="0.999" y2="57.2021" gradientTransform="matrix(0 -49.9961 -49.9961 0 2924.9958 57.1692)">
			<stop offset="0" style="stop-color:#194C4C" />
			<stop offset="0.45" style="stop-color:#99CCCC" />
			<stop offset="0.55" style="stop-color:#86B9B9" />
			<stop offset="0.73" style="stop-color:#568989" />
			<stop offset="0.77" style="stop-color:#4C7F7F" />
			<stop offset="1" style="stop-color:#194C4C" />
		</linearGradient>
		<rect x="63.625" y="7.206" clip-path="url(#SVGID_49_)" fill="url(#SVGID_50_)" width="2.93" height="49.997" />
	</g>
</g>
</svg>