<!DOCTYPE svg PUBLIC "-//W3C//DTD SVG 1.1//EN" "http://www.w3.org/Graphics/SVG/1.1/DTD/svg11.dtd"[]><svg version="1.1" xmlns="http://www.w3.org/2000/svg" xmlns:xlink="http://www.w3.org/1999/xlink" width="112px" height="90px" viewBox="0 0 112.5 89.863" enable-background="new 0 0 112.5 89.863" xml:space="preserve">
<g id="Group_Port">
	<path fill="#00CCCC" stroke="#4C4C4C" stroke-width="0.25" d="M89.863,44.938c0,24.811-20.116,44.925-44.932,44.925   C20.117,89.863,0,69.749,0,44.938C0,20.115,20.117,0,44.932,0C69.747,0,89.863,20.115,89.863,44.938z" />
	<linearGradient id="SVGID_1_" gradientUnits="userSpaceOnUse" x1="77.791" y1="39.864" x2="77.791" y2="-2.441406e-004">
		<stop offset="0" style="stop-color:#00CCCC" />
		<stop offset="0.25" style="stop-color:#02CECE" />
		<stop offset="0.34" style="stop-color:#09D3D3" />
		<stop offset="0.4" style="stop-color:#14DDDD" />
		<stop offset="0.45" style="stop-color:#25EBEB" />
		<stop offset="0.5" style="stop-color:#3BFDFD" />
		<stop offset="0.5" style="stop-color:#3DFFFF" />
		<stop offset="1" style="stop-color:#00CCCC" />
	</linearGradient>
	<rect x="43.083" y="0" fill="url(#SVGID_1_)" width="69.416" height="39.864" />
</g>
<g id="Group_Blower_Box">
	<radialGradient id="SVGID_2_" cx="45.2813" cy="44.9998" r="43.0679" gradientUnits="userSpaceOnUse">
		<stop offset="0" style="stop-color:#00CCCC" />
		<stop offset="0.44" style="stop-color:#02CECE" />
		<stop offset="0.6" style="stop-color:#09D3D3" />
		<stop offset="0.72" style="stop-color:#14DDDD" />
		<stop offset="0.81" style="stop-color:#25EBEB" />
		<stop offset="0.88" style="stop-color:#3BFDFD" />
		<stop offset="0.89" style="stop-color:#3DFFFF" />
		<stop offset="1" style="stop-color:#00CCCC" />
	</radialGradient>
	<path fill="url(#SVGID_2_)" d="M88.417,45c0,23.752-19.312,43-43.136,43C21.458,88,2.146,68.752,2.146,45   c0-23.747,19.313-43,43.136-43C69.105,2,88.417,21.253,88.417,45z" />
</g>
<g id="Group_Central_Unit">
	<radialGradient id="SVGID_3_" cx="44.9336" cy="44.9324" r="32.5449" gradientUnits="userSpaceOnUse">
		<stop offset="0" style="stop-color:#B2B2B2" />
		<stop offset="0.17" style="stop-color:#A9A9A9" />
		<stop offset="0.44" style="stop-color:#919191" />
		<stop offset="0.78" style="stop-color:#696969" />
		<stop offset="1" style="stop-color:#4C4C4C" />
	</radialGradient>
	<circle fill="url(#SVGID_3_)" stroke="#000000" stroke-width="0.1" cx="44.933" cy="44.932" r="32.545" />
	<radialGradient id="SVGID_4_" cx="44.9326" cy="44.8191" r="15.8779" gradientUnits="userSpaceOnUse">
		<stop offset="0.01" style="stop-color:#595959" />
		<stop offset="0.4" style="stop-color:#5B5B5B" />
		<stop offset="0.54" style="stop-color:#626262" />
		<stop offset="0.64" style="stop-color:#6D6D6D" />
		<stop offset="0.72" style="stop-color:#7E7E7E" />
		<stop offset="0.79" style="stop-color:#949494" />
		<stop offset="0.85" style="stop-color:#ACACAC" />
		<stop offset="0.88" style="stop-color:#A7A7A7" />
		<stop offset="0.91" style="stop-color:#9A9A9A" />
		<stop offset="0.95" style="stop-color:#838383" />
		<stop offset="0.99" style="stop-color:#636363" />
		<stop offset="1" style="stop-color:#595959" />
	</radialGradient>
	<circle fill="url(#SVGID_4_)" cx="44.933" cy="44.819" r="15.878" />
</g>
<g id="Group_Axial">
	<circle fill="#5E5E5E" cx="44.933" cy="44.819" r="11.599" />
</g>
<g id="Group_Bolt">
	<radialGradient id="SVGID_5_" cx="44.9326" cy="44.8191" r="2.5341" gradientUnits="userSpaceOnUse">
		<stop offset="0" style="stop-color:#BFBFBF" />
		<stop offset="0.3" style="stop-color:#BDBDBD" />
		<stop offset="0.41" style="stop-color:#B7B7B7" />
		<stop offset="0.48" style="stop-color:#ABABAB" />
		<stop offset="0.55" style="stop-color:#9A9A9A" />
		<stop offset="0.6" style="stop-color:#848484" />
		<stop offset="0.6" style="stop-color:#848484" />
		<stop offset="1" style="stop-color:#404040" />
	</radialGradient>
	<path fill="url(#SVGID_5_)" d="M45.946,47.297l1.576-1.352v-2.252l-1.576-1.352h-2.027l-1.576,1.352v2.252l1.576,1.352H45.946z" />
	<path fill="none" stroke="#FFFFFF" stroke-width="0.25" d="M47.522,45.945v-2.252l-1.576-1.352h-2.027" />
</g>
</svg>