<svg version="1.1" xmlns="http://www.w3.org/2000/svg" xmlns:xlink="http://www.w3.org/1999/xlink" width="112px" height="27px" viewBox="0 0 112.5 26.799" enable-background="new 0 0 112.5 26.799" xml:space="preserve">
<g id="Group_Rods">
	
		<linearGradient id="SVGID_1_" gradientUnits="userSpaceOnUse" x1="65.625" y1="46.3093" x2="67.541" y2="46.3093" gradientTransform="matrix(0 -1 1 0 42.8977 70.821)">
		<stop offset="0.01" style="stop-color:#737373" />
		<stop offset="0.47" style="stop-color:#E0E0E0" />
		<stop offset="1" style="stop-color:#666666" />
	</linearGradient>
	<path fill="url(#SVGID_1_)" d="M80.396,5.197V3.28H98.02v1.917H80.396z" />
	
		<linearGradient id="SVGID_2_" gradientUnits="userSpaceOnUse" x1="46.4609" y1="-0.1819" x2="48.7549" y2="-0.1819" gradientTransform="matrix(0 -1 1 0 42.8977 70.821)">
		<stop offset="0.01" style="stop-color:#595959" />
		<stop offset="0.5" style="stop-color:#E0E0E0" />
		<stop offset="1" style="stop-color:#595959" />
	</linearGradient>
	<path fill="url(#SVGID_2_)" d="M1.746,24.36v-2.294h81.939v2.294H1.746z" />
	
		<radialGradient id="SVGID_3_" cx="-25.0513" cy="10.7678" r="5.5437" gradientTransform="matrix(-1.2853 0 0 0.9423 53.2904 -1.5887)" gradientUnits="userSpaceOnUse">
		<stop offset="0.01" style="stop-color:#595959" />
		<stop offset="0.62" style="stop-color:#737373" />
		<stop offset="0.81" style="stop-color:#E0E0E0" />
		<stop offset="1" style="stop-color:#737373" />
	</radialGradient>
	<ellipse fill="url(#SVGID_3_)" cx="85.489" cy="8.558" rx="6.989" ry="5.322" />
	
		<radialGradient id="SVGID_4_" cx="-24.9209" cy="18.4089" r="5.544" gradientTransform="matrix(-1.2853 0 0 1.1046 53.2904 -2.1944)" gradientUnits="userSpaceOnUse">
		<stop offset="0.01" style="stop-color:#595959" />
		<stop offset="0.62" style="stop-color:#737373" />
		<stop offset="0.81" style="stop-color:#E0E0E0" />
		<stop offset="1" style="stop-color:#737373" />
	</radialGradient>
	<ellipse fill="url(#SVGID_4_)" cx="85.322" cy="18.141" rx="6.989" ry="6.238" />
	
		<linearGradient id="SVGID_5_" gradientUnits="userSpaceOnUse" x1="46.457" y1="-54.8879" x2="48.6572" y2="-54.8879" gradientTransform="matrix(0 -1 -1 0 18.7048 70.821)">
		<stop offset="0.01" style="stop-color:#737373" />
		<stop offset="0.58" style="stop-color:#EBEBEB" />
		<stop offset="1" style="stop-color:#737373" />
	</linearGradient>
	<path fill="url(#SVGID_5_)" d="M97.998,24.364v-2.2H49.188v2.2H97.998z" />
	<ellipse fill="#FFFFFF" cx="85.833" cy="18.174" rx="4.125" ry="3.922" />
	<rect x="76.854" y="14.131" fill="#FFFFFF" width="8.672" height="7.971" />
	
		<linearGradient id="SVGID_6_" gradientUnits="userSpaceOnUse" x1="56.6484" y1="0.7346" x2="58.9189" y2="0.7346" gradientTransform="matrix(0 -1 1 0 42.8977 70.821)">
		<stop offset="0.01" style="stop-color:#737373" />
		<stop offset="0.47" style="stop-color:#E0E0E0" />
		<stop offset="1" style="stop-color:#666666" />
	</linearGradient>
	<path fill="url(#SVGID_6_)" d="M1.496,14.173v-2.271h84.272v2.271H1.496z" />
	<ellipse fill="#FFFFFF" cx="86" cy="8.586" rx="4.125" ry="3.346" />
	<rect x="77.021" y="5.137" fill="#FFFFFF" width="8.672" height="6.799" />
	
		<linearGradient id="SVGID_7_" gradientUnits="userSpaceOnUse" x1="65.6484" y1="1.0598" x2="67.585" y2="1.0598" gradientTransform="matrix(0 -1 1 0 42.8977 70.821)">
		<stop offset="0.01" style="stop-color:#737373" />
		<stop offset="0.47" style="stop-color:#E0E0E0" />
		<stop offset="1" style="stop-color:#666666" />
	</linearGradient>
	<path fill="url(#SVGID_7_)" d="M1.979,5.173V3.236h83.956v1.937H1.979z" />
	<ellipse fill="#7F7F7F" cx="1.792" cy="4.149" rx="0.542" ry="1" />
	<ellipse fill="#7F7F7F" cx="1.542" cy="13.107" rx="0.542" ry="1.042" />
	<ellipse fill="#7F7F7F" cx="1.542" cy="23.294" rx="0.542" ry="1.145" />
</g>
<g id="Group_Supply">
	<path fill="#7F7F7F" d="M105.736,24.885h1.915v-4.279h-1.915V24.885z" />
	<path fill="#7F7F7F" d="M105.736,24.096h-1.351v-2.928h1.351V24.096z" />
	<path fill="#7F7F7F" d="M105.736,6.305h1.915V2.139h-1.915V6.305z" />
	<path fill="#7F7F7F" d="M105.736,5.517h-1.351V2.815h1.351V5.517z" />
	<path fill="#B2B2B2" stroke="#4C4C4C" stroke-width="0.25" d="M103.484,23.645h-2.477v2.703h2.477V23.645z" />
	<path fill="#B2B2B2" stroke="#4C4C4C" stroke-width="0.25" d="M97.968,23.645h2.815v2.703h-2.815V23.645z" />
	<path fill="#B2B2B2" stroke="#4C4C4C" stroke-width="0.25" d="M97.968,18.917h2.815v2.026h-2.815V18.917z" />
	<path fill="#B2B2B2" stroke="#4C4C4C" stroke-width="0.25" d="M103.484,18.917h-2.477v2.026h2.477V18.917z" />
	<path fill="#B2B2B2" stroke="#4C4C4C" stroke-width="0.25" d="M103.484,25.109h0.901v-4.729h-0.901V25.109z" />
	<path fill="#B2B2B2" stroke="#4C4C4C" stroke-width="0.25" d="M110.578,20.605h-1.238v1.014h1.238V20.605z" />
	<path fill="#B2B2B2" stroke="#4C4C4C" stroke-width="0.25" d="M107.651,20.605h1.464v1.014h-1.464V20.605z" />
	<path fill="#B2B2B2" stroke="#4C4C4C" stroke-width="0.25" d="M107.651,23.307h1.464v1.577h-1.464V23.307z" />
	<path fill="#B2B2B2" stroke="#4C4C4C" stroke-width="0.25" d="M110.578,23.307h-1.238v1.577h1.238V23.307z" />
	<path fill="#B2B2B2" stroke="#4C4C4C" stroke-width="0.25" d="M103.484,5.067h-2.477v2.702h2.477V5.067z" />
	<path fill="#B2B2B2" stroke="#4C4C4C" stroke-width="0.25" d="M97.968,5.067h2.815v2.702h-2.815V5.067z" />
	<path fill="#B2B2B2" stroke="#4C4C4C" stroke-width="0.25" d="M97.968,0.338h2.815v2.027h-2.815V0.338z" />
	<path fill="#B2B2B2" stroke="#4C4C4C" stroke-width="0.25" d="M103.484,0.338h-2.477v2.027h2.477V0.338z" />
	<path fill="#B2B2B2" stroke="#4C4C4C" stroke-width="0.25" d="M103.484,6.531h0.901V1.802h-0.901V6.531z" />
	<path fill="#B2B2B2" stroke="#4C4C4C" stroke-width="0.25" d="M110.578,2.139h-1.238v0.9h1.238V2.139z" />
	<path fill="#B2B2B2" stroke="#4C4C4C" stroke-width="0.25" d="M107.651,2.139h1.464v0.9h-1.464V2.139z" />
	<path fill="#B2B2B2" stroke="#4C4C4C" stroke-width="0.25" d="M107.651,4.842h1.464v1.464h-1.464V4.842z" />
	<path fill="#B2B2B2" stroke="#4C4C4C" stroke-width="0.25" d="M110.578,4.842h-1.238v1.464h1.238V4.842z" />
	<path fill="#F0F0F0" stroke="#4C4C4C" stroke-width="0.25" d="M110.691,23.421h1.352v-1.689h-1.352V23.421z" />
	<path fill="#F0F0F0" stroke="#4C4C4C" stroke-width="0.25" d="M110.691,23.195h-1.352v-1.464h1.352V23.195z" />
	<path fill="#F0F0F0" stroke="#4C4C4C" stroke-width="0.25" d="M107.651,23.195h1.576v-1.464h-1.576V23.195z" />
	<path fill="#F0F0F0" stroke="#4C4C4C" stroke-width="0.25" d="M105.736,23.533h1.915v-2.928h-1.915V23.533z" />
	<path fill="#F0F0F0" stroke="#4C4C4C" stroke-width="0.25" d="M103.484,23.645h-2.477v-2.59h2.477V23.645z" />
	<path fill="#F0F0F0" stroke="#4C4C4C" stroke-width="0.25" d="M98.08,23.645h2.703v-2.59H98.08V23.645z" />
	<path fill="#F0F0F0" stroke="#4C4C4C" stroke-width="0.25" d="M110.691,4.954h1.352V3.265h-1.352V4.954z" />
	<path fill="#F0F0F0" stroke="#4C4C4C" stroke-width="0.25" d="M110.691,4.729h-1.352V3.265h1.352V4.729z" />
	<path fill="#F0F0F0" stroke="#4C4C4C" stroke-width="0.25" d="M107.651,4.729h1.576V3.265h-1.576V4.729z" />
	<path fill="#F0F0F0" stroke="#4C4C4C" stroke-width="0.25" d="M105.736,5.067h1.915V2.139h-1.915V5.067z" />
	<path fill="#F0F0F0" stroke="#4C4C4C" stroke-width="0.25" d="M103.484,5.179h-2.477V2.477h2.477V5.179z" />
	<path fill="#F0F0F0" stroke="#4C4C4C" stroke-width="0.25" d="M98.08,5.179h2.703V2.477H98.08V5.179z" />
</g>
</svg>