<svg version="1.1" xmlns="http://www.w3.org/2000/svg" xmlns:xlink="http://www.w3.org/1999/xlink" width="112px" height="48px" viewBox="0 0 112.5 47.52" enable-background="new 0 0 112.5 47.52" xml:space="preserve">
<g id="Group_Yellow">
	<linearGradient id="SVGID_1_" gradientUnits="userSpaceOnUse" x1="54.7231" y1="42.1643" x2="54.7231" y2="5.5549">
		<stop offset="0.01" style="stop-color:#FFFF00" />
		<stop offset="0.5" style="stop-color:#FFFF7A" />
		<stop offset="1" style="stop-color:#FFFF00" />
	</linearGradient>
	<rect x="9.793" y="5.554" fill="url(#SVGID_1_)" stroke="#000000" stroke-width="0.0973" width="89.86" height="36.61" />
	<linearGradient id="SVGID_2_" gradientUnits="userSpaceOnUse" x1="102.8408" y1="42.1975" x2="102.8408" y2="5.5862">
		<stop offset="0.01" style="stop-color:#FFFF00" />
		<stop offset="0.5" style="stop-color:#FFFF7A" />
		<stop offset="1" style="stop-color:#FFFF00" />
	</linearGradient>
	<path fill="url(#SVGID_2_)" stroke="#000000" stroke-width="0.1" d="M93.721,42.198c3.84,0,7.681,0,11.519,0   c4.302-3.374,7.261-10.401,7.261-18.531c0-7.783-2.711-14.558-6.722-18.081c-4.008,0-8.591,0-12.597,0" />
	<linearGradient id="SVGID_3_" gradientUnits="userSpaceOnUse" x1="9.6592" y1="42.1682" x2="9.6592" y2="5.4612">
		<stop offset="0.01" style="stop-color:#FFFF00" />
		<stop offset="0.5" style="stop-color:#FFFF7A" />
		<stop offset="1" style="stop-color:#FFFF00" />
	</linearGradient>
	<path fill="url(#SVGID_3_)" stroke="#000000" stroke-width="0.1001" d="M18.779,42.168c-3.84,0-7.681,0-11.519,0   C2.959,38.785,0,31.74,0,23.589C0,15.785,2.711,8.993,6.722,5.461c4.008,0,8.591,0,12.597,0" />
</g>
<g id="Group_Layer_3">
	<path fill="#FFFF00" stroke="#4C4C4C" stroke-width="0.2" d="M19.034,46.957V0.45h4.729v46.507H19.034z" />
	<path fill="#FFFF00" stroke="#4C4C4C" stroke-width="0.2" d="M9.8,46.957V0.45h4.617v46.507H9.8z" />
</g>
<g id="Group_Red">
	<path fill="#FF0000" d="M0.454,39.976h23.31l78.825-4.617v-4.729L46.96,28.377l55.628-2.365v-4.616L46.96,19.031l55.628-2.252   v-4.617L23.763,7.432H0.454v4.729h23.31l60.245,2.252L28.38,16.779v4.617l55.628,2.364L28.38,26.012v4.617l55.628,2.364   l-60.245,2.365H0.454V39.976z" />
</g>
</svg>