<svg version="1.1" xmlns="http://www.w3.org/2000/svg" xmlns:xlink="http://www.w3.org/1999/xlink" width="112px" height="69px" viewBox="0 0 112.5 68.918" enable-background="new 0 0 112.5 68.918" xml:space="preserve">
<g id="Group_Back_Support">
	<path fill="#7F7F7F" stroke="#4C4C4C" stroke-width="0.1" d="M46.509,29.616h52.026v31.419H82.77V39.865h-36.26V29.616z" />
	<path fill="#404040" d="M50.676,38.626h28.026v1.238H50.676V38.626z" />
	<path fill="#7F7F7F" stroke="#4C4C4C" stroke-width="0.1" d="M76.802,64.639h27.815v-3.604H76.802V64.639z" />
</g>
<g id="Group_Heater">
	<linearGradient id="SVGID_1_" gradientUnits="userSpaceOnUse" x1="38.8623" y1="51.7698" x2="22.7362" y2="7.4638">
		<stop offset="0" style="stop-color:#D9D9D9" />
		<stop offset="0.25" style="stop-color:#D9D9D9" />
		<stop offset="0.4" style="stop-color:#E5E5E5" />
		<stop offset="1" style="stop-color:#E5E5E5" />
	</linearGradient>
	<path fill="url(#SVGID_1_)" stroke="#4C4C4C" stroke-width="0.1" d="M46.509,10.247H15.09v38.739h31.419V10.247z" />
	<path fill="#CCCCCC" stroke="#4C4C4C" stroke-width="0.1" d="M15.09,10.247L0.563,15.09v24.212l14.527,9.685V10.247z" />
	<linearGradient id="SVGID_2_" gradientUnits="userSpaceOnUse" x1="53.7729" y1="46.509" x2="53.7729" y2="12.613">
		<stop offset="0" style="stop-color:#999999" />
		<stop offset="0.5" style="stop-color:#CCCCCC" />
		<stop offset="1" style="stop-color:#999999" />
	</linearGradient>
	<path fill="url(#SVGID_2_)" stroke="#4C4C4C" stroke-width="0.1" d="M46.509,46.509l14.527-12.05v-9.685L46.509,12.613V46.509" />
</g>
<g id="Group_Stand">
	<path fill="#404040" d="M22.297,64.639h2.478V50.788h13.288v13.851h1.239V48.987H22.297V64.639z" />
	<path fill="#B2B2B2" stroke="#4C4C4C" stroke-width="0.25" d="M17.455,48.987h4.842v15.652h-4.842V48.987z" />
	<path fill="#B2B2B2" stroke="#4C4C4C" stroke-width="0.25" d="M39.302,48.987h4.842v15.652h-4.842V48.987z" />
</g>
<g id="Group_Supply">
	<linearGradient id="SVGID_3_" gradientUnits="userSpaceOnUse" x1="34.6709" y1="12.7932" x2="29.2924" y2="-1.984">
		<stop offset="0" style="stop-color:#D9D9D9" />
		<stop offset="0.25" style="stop-color:#D9D9D9" />
		<stop offset="0.4" style="stop-color:#E5E5E5" />
		<stop offset="1" style="stop-color:#E5E5E5" />
	</linearGradient>
	<path fill="url(#SVGID_3_)" stroke="#4C4C4C" stroke-width="0.1" d="M22.297,0.563h19.37v9.685h-19.37V0.563z" />
	<path fill="#7F7F7F" d="M30.18,1.126h3.604v1.238H30.18V1.126z" />
</g>
<g id="Group_Connector">
	<linearGradient id="SVGID_4_" gradientUnits="userSpaceOnUse" x1="67.0605" y1="38.0627" x2="67.0605" y2="21.0593">
		<stop offset="0" style="stop-color:#595959" />
		<stop offset="0.5" style="stop-color:#E0E0E0" />
		<stop offset="1" style="stop-color:#595959" />
	</linearGradient>
	<path fill="url(#SVGID_4_)" stroke="#4C4C4C" stroke-width="0.1" d="M61.036,38.063V21.059H63.4v2.477h7.32v-2.477h2.365v17.004   h-2.365v-2.478H63.4v2.478H61.036z" />
	<path fill="none" stroke="#4C4C4C" stroke-width="0.1" d="M63.4,35.585v-12.05" />
	<path fill="none" stroke="#4C4C4C" stroke-width="0.1" d="M70.721,35.585v-12.05" />
	<path fill="none" d="M61.036,38.063V21.059H63.4v2.477h7.32v-2.477h2.365v17.004h-2.365v-2.478H63.4v2.478H61.036" />
	<path fill="none" stroke="#FFFFFF" stroke-width="0.25" d="M64.64,24.099v10.924" />
	<path fill="none" stroke="#FFFFFF" stroke-width="0.25" d="M65.879,24.099v10.924" />
	<path fill="none" stroke="#FFFFFF" stroke-width="0.25" d="M67.117,24.099v10.924" />
	<path fill="none" stroke="#FFFFFF" stroke-width="0.25" d="M68.243,24.099v10.924" />
	<path fill="none" stroke="#FFFFFF" stroke-width="0.25" d="M69.482,24.099v10.924" />
</g>
<g id="Group_Pump">
	<rect x="73.086" y="26.001" fill="#CCCCCC" width="18.497" height="7.226" />
	<radialGradient id="SVGID_5_" cx="90.6523" cy="42.2581" r="16.3145" gradientUnits="userSpaceOnUse">
		<stop offset="0" style="stop-color:#E5E5E5" />
		<stop offset="0.69" style="stop-color:#E5E5E5" />
		<stop offset="0.87" style="stop-color:#CCCCCC" />
		<stop offset="1" style="stop-color:#CCCCCC" />
	</radialGradient>
	<ellipse fill="url(#SVGID_5_)" cx="90.653" cy="42.26" rx="16.329" ry="16.301" />
	<circle fill="#404040" stroke="#4C4C4C" stroke-width="0.25" cx="90.652" cy="42.229" r="6.644" />
	<circle fill="#666666" cx="90.652" cy="42.229" r="4.842" />
</g>
<g id="Group_Bottom_Support">
	<path fill="#CCCCCC" stroke="#4C4C4C" stroke-width="0.25" d="M13.176,64.639h95.721v-4.842h2.928v8.445H10.248v-8.445h2.928   V64.639z" />
</g>
</svg>