<svg version="1.1" xmlns="http://www.w3.org/2000/svg" xmlns:xlink="http://www.w3.org/1999/xlink" width="56px" height="112px" viewBox="0 0 56.195 112.5" enable-background="new 0 0 56.195 112.5" xml:space="preserve">
<g id="Group_Steam_Generator">
	<path fill="#C0C0C0" stroke="#4C4C4C" stroke-width="2" d="M0.001,112.5V42.004l13.852-13.964V0h28.153v28.041l14.188,13.964V112.5   H0.001z" />
</g>
<g id="Group_Line">
	<path fill="none" stroke="#4C4C4C" stroke-width="2" d="M0.001,42.117h56.193" />
</g>
<g id="Group_Coil">
	<path fill="none" stroke="#4C4C4C" stroke-width="2" d="M56.195,79.617h-9.347L9.348,75l37.5-4.729l-37.5-4.729l37.5-4.617   l-37.5-4.73l37.5-4.73l-37.5-4.617h37.5l-37.5,4.617l37.5,4.73l-37.5,4.73l37.5,4.617l-37.5,4.729L46.848,75l-37.5,4.617   l37.5,4.729l-37.5,4.617l37.5,4.729l-37.5,4.73l37.5,4.617H0.001" />
</g>
</svg>