<!DOCTYPE svg PUBLIC "-//W3C//DTD SVG 1.1//EN" "http://www.w3.org/Graphics/SVG/1.1/DTD/svg11.dtd"[]><svg version="1.1" xmlns="http://www.w3.org/2000/svg" xmlns:xlink="http://www.w3.org/1999/xlink" width="112px" height="68px" viewBox="0 0 112.5 68.422" enable-background="new 0 0 112.5 68.422" xml:space="preserve">
<g id="Group_Green_Tank">
	<rect x="0.453" y="40.016" fill="#009900" stroke="#4C4C4C" stroke-width="0.2789" width="40.422" height="28.406" />
	<path fill="#009900" stroke="#4C4C4C" stroke-width="0.2789" d="M112.25,54.249c0,7.827-5.66,14.173-12.642,14.173H41.141   c-6.981,0-12.641-6.346-12.641-14.173v-16.49c0-7.827,5.66-14.173,12.641-14.173h58.467c6.981,0,12.642,6.346,12.642,14.173V54.249   z" />
</g>
<g id="Group_Water_Flow_Pipe">
	<path fill="#FF0000" d="M0.566,63.236v-4.621h83.526l1.805-0.338l1.578-1.017l1.014-1.577l0.339-1.804l-0.339-1.69l-1.014-1.578   l-1.578-1.014l-1.805-0.34H0.566v-4.621h83.526l3.494,0.678l3.156,1.916l2.029,3.155l0.676,3.494l-0.676,3.494l-2.029,3.156   l-3.156,2.028l-3.494,0.676H0.566V63.236z" />
</g>
<g id="Group_Upper_Vaccuum">
	<path fill="#009900" stroke="#4C4C4C" stroke-width="0.2967" d="M58.75,23.586c0-5.041,3.568-9.125,7.972-9.125h6.932   c4.403,0,7.972,4.084,7.972,9.125l0,0c0,5.041-3.568,9.125-7.972,9.125h-6.932C62.318,32.711,58.75,28.626,58.75,23.586   L58.75,23.586z" />
</g>
<g id="Group_Up_Arrow">
	<path fill="#000099" d="M69.1,14.428V9.807h-4.733l5.862-9.356l5.748,9.356h-4.621v4.622H69.1V14.428z" />
</g>
</svg>