<!DOCTYPE svg PUBLIC "-//W3C//DTD SVG 20000303 Stylable//EN" "http://www.w3.org/TR/2000/03/WD-SVG-20000303/DTD/svg-20000303-stylable.dtd"[]><svg xmlns="http://www.w3.org/2000/svg" width="999px" height="753px" viewBox="0 0 999 739"><path style="fill:#194c19;stroke:#4c4c4c;stroke-width:2" d="M58,721 l59,-462 764,0 59,462 -882,0z" /><path style="fill:#363" d="M75,721 l58,-462 732,0 58,462 -848,0z" /><path style="fill:#2e612e" d="M75,721 l24,-188 780,-152 44,340 -848,0z" /><path style="fill:#295c29" d="M75,721 l19,-138 791,-150 38,288 -848,0z" /><path style="fill:#245724" d="M75,721 l10,-74 810,-140 28,214 -848,0z" /><path style="fill:none;stroke:#4c4c4c;stroke-width:2" d="M75,721 l58,-462 732,0 58,462 -848,0" /><path style="fill:#696" d="M715,259 l20,0 10,462 -40,0 10,-462z" /><path style="fill:#696" d="M489,259 l20,0 10,462 -40,0 10,-462z" /><path style="fill:#696" d="M263,259 l20,0 10,462 -40,0 10,-462z" /><path style="fill:none;stroke:#cfc;stroke-width:2" d="M255,721 l8,-462" /><path style="fill:none;stroke:#cfc;stroke-width:2" d="M479,721 l10,-462" /><path style="fill:none;stroke:#cfc;stroke-width:2" d="M705,721 l10,-462" /><path style="fill:none;stroke:#030;stroke-width:2" d="M735,259 l10,462" /><path style="fill:none;stroke:#030;stroke-width:2" d="M509,259 l10,462" /><path style="fill:none;stroke:#030;stroke-width:2" d="M283,259 l10,462" /><path style="fill:#363;stroke:#4c4c4c;stroke-width:2" d="M115,221 l768,0 0,38 -768,0 0,-38z" /><path style="fill:#363;stroke:#4c4c4c;stroke-width:2" d="M0,721 l999,0 0,18 -999,0 0,-18z" /><path style="fill:#363;stroke:#4c4c4c;stroke-width:2" d="M153,221 l0,-192 20,-20 172,0 20,-9 268,0 20,9 174,0 18,20 0,192 -692,0z" /><path style="fill:none;stroke:#030;stroke-width:2" d="M345,9 l-18,212" /><path style="fill:none;stroke:#030;stroke-width:2" d="M653,9 l20,212" /><path style="fill:none;stroke:#9c9;stroke-width:2" d="M663,48 l182,0" /><path style="fill:none;stroke:#9c9;stroke-width:2" d="M345,38 l308,0" /><path style="fill:none;stroke:#9c9;stroke-width:2" d="M153,48 l182,0" /></svg>