<!DOCTYPE svg PUBLIC "-//W3C//DTD SVG 20000303 Stylable//EN" "http://www.w3.org/TR/2000/03/WD-SVG-20000303/DTD/svg-20000303-stylable.dtd"[]><svg xmlns="http://www.w3.org/2000/svg" width="660px" height="999px" viewBox="0 0 640 999"><path style="fill:#fff;stroke:#4c4c4c;stroke-width:2" d="M0,15 l640,0 0,936 -640,0 0,-936z" /><path style="fill:#00f;stroke:#4c4c4c;stroke-width:2" d="M15,46 l609,0 0,47 -609,0 0,-47z" /><path style="fill:#e5e5e5;stroke:#4c4c4c;stroke-width:2" d="M249,62 l140,0 0,15 -140,0 0,-15z" /><path style="fill:#7f7f7f;stroke:#4c4c4c;stroke-width:2" d="M77,951 l24,48 438,-1 23,-47 -485,0z" /><path style="fill:#7f7f7f;stroke:#4c4c4c;stroke-width:2" d="M0,15 l16,-15 608,0 16,15 -640,0z" /><path style="fill:none;stroke:#4c4c4c;stroke-width:2" d="M15,31 l609,0" /><path style="fill:#fff;stroke:#4c4c4c;stroke-width:2" d="M335,125 l289,0 0,467 -289,0 0,-467z" /><path style="fill:none;stroke:#4c4c4c;stroke-width:2" d="M640,779 l-640,0" /><path style="fill:#e5e5e5;stroke:#4c4c4c;stroke-width:2" d="M419,607 l155,0 0,154 -108,0 0,-30 -47,0 0,-124z" /><path style="fill:#000;stroke:#4c4c4c;stroke-width:2" d="M476,762 l7,0 0,-33 -7,0 0,33z" /><path style="fill:#000;stroke:#4c4c4c;stroke-width:2" d="M491,762 l8,0 0,-33 -8,0 0,33z" /><path style="fill:#000;stroke:#4c4c4c;stroke-width:2" d="M507,762 l8,0 0,-33 -8,0 0,33z" /><path style="fill:#000;stroke:#4c4c4c;stroke-width:2" d="M522,762 l8,0 0,-33 -8,0 0,33z" /><path style="fill:#000;stroke:#4c4c4c;stroke-width:2" d="M538,762 l8,0 0,-33 -8,0 0,33z" /><path style="fill:#000;stroke:#4c4c4c;stroke-width:2" d="M553,762 l8,0 0,-33 -8,0 0,33z" /><circle style="fill:#000;stroke:#4c4c4c;stroke-width:2" cx="538" cy="706" r="7" /><circle style="fill:#000;stroke:#4c4c4c;stroke-width:2" cx="538" cy="668" r="7" /><circle style="fill:none;stroke:#4c4c4c;stroke-width:2" cx="538" cy="707" r="14" /><circle style="fill:none;stroke:#4c4c4c;stroke-width:2" cx="538" cy="667" r="14" /><path style="fill:#7f7f7f;stroke:#4c4c4c;stroke-width:2" d="M374,577 l211,0 0,-211 -211,0 0,211z" /><path style="fill:#e5e5e5;stroke:#4c4c4c;stroke-width:2" d="M390,538 l39,0 0,31 -39,0 0,-31z" /><path style="fill:#e5e5e5;stroke:#4c4c4c;stroke-width:2" d="M437,538 l39,0 0,31 -39,0 0,-31z" /><path style="fill:#0f0;stroke:#4c4c4c;stroke-width:2" d="M484,538 l39,0 0,31 -39,0 0,-31z" /><path style="fill:#f00;stroke:#4c4c4c;stroke-width:2" d="M531,538 l39,0 0,31 -39,0 0,-31z" /><path style="fill:#e5e5e5;stroke:#4c4c4c;stroke-width:2" d="M390,499 l39,0 0,31 -39,0 0,-31z" /><path style="fill:#e5e5e5;stroke:#4c4c4c;stroke-width:2" d="M437,499 l39,0 0,31 -39,0 0,-31z" /><path style="fill:#e5e5e5;stroke:#4c4c4c;stroke-width:2" d="M484,499 l39,0 0,31 -39,0 0,-31z" /><path style="fill:#00f;stroke:#4c4c4c;stroke-width:2" d="M531,499 l39,0 0,31 -39,0 0,-31z" /><path style="fill:#e5e5e5;stroke:#4c4c4c;stroke-width:2" d="M390,459 l39,0 0,32 -39,0 0,-32z" /><path style="fill:#e5e5e5;stroke:#4c4c4c;stroke-width:2" d="M437,459 l39,0 0,32 -39,0 0,-32z" /><path style="fill:#e5e5e5;stroke:#4c4c4c;stroke-width:2" d="M484,459 l39,0 0,32 -39,0 0,-32z" /><path style="fill:#00f;stroke:#4c4c4c;stroke-width:2" d="M531,459 l39,0 0,32 -39,0 0,-32z" /><path style="fill:#e5e5e5;stroke:#4c4c4c;stroke-width:2" d="M390,421 l39,0 0,31 -39,0 0,-31z" /><path style="fill:#e5e5e5;stroke:#4c4c4c;stroke-width:2" d="M437,421 l39,0 0,31 -39,0 0,-31z" /><path style="fill:#e5e5e5;stroke:#4c4c4c;stroke-width:2" d="M484,421 l39,0 0,31 -39,0 0,-31z" /><path style="fill:#00f;stroke:#4c4c4c;stroke-width:2" d="M531,428 l15,24 8,0 16,-24 0,-7 -39,0 0,7z" /><path style="fill:#00f;stroke:#4c4c4c;stroke-width:2" d="M570,404 l-16,-23 -8,1 -15,23 0,8 39,0 0,-9z" /><path style="fill:#00f;stroke:#4c4c4c;stroke-width:2" d="M390,382 l39,0 0,31 -39,0 0,-31z" /><path style="fill:#00f;stroke:#4c4c4c;stroke-width:2" d="M437,382 l39,0 0,31 -39,0 0,-31z" /><path style="fill:#00f;stroke:#4c4c4c;stroke-width:2" d="M484,382 l39,0 0,31 -39,0 0,-31z" /><path style="fill:#ccc;stroke:#4c4c4c;stroke-width:2" d="M374,171 l211,0 0,-31 -211,0 0,31z" /><path style="fill:#0f0;stroke:#4c4c4c;stroke-width:2" d="M374,343 l211,0 0,-156 -211,0 0,156z" /><path style="fill:#093" d="M374,187 l211,1 0,14 -211,-2 0,-13z" /><circle style="fill:#000;stroke:#4c4c4c;stroke-width:2" cx="538" cy="629" r="7" /><circle style="fill:none;stroke:#4c4c4c;stroke-width:2" cx="538" cy="628" r="14" /><path style="fill:none;stroke:#4c4c4c;stroke-width:2" d="M418,607 l155,0 0,153" /></svg>