<!DOCTYPE svg PUBLIC "-//W3C//DTD SVG 20000303 Stylable//EN" "http://www.w3.org/TR/2000/03/WD-SVG-20000303/DTD/svg-20000303-stylable.dtd"[]><svg xmlns="http://www.w3.org/2000/svg" width="618px" height="999px" viewBox="0 0 596 999"><path style="fill:#ffc;stroke:#4c4c4c;stroke-width:2" d="M0,44 l596,0 0,955 -596,0 0,-955z" /><path style="fill:#ffc;stroke:#4c4c4c;stroke-width:2" d="M82,126 l216,0 0,582 -216,0 0,-582z" /><path style="fill:#000;stroke:#4c4c4c;stroke-width:2" d="M178,343 l15,0 0,14 -15,0 0,-14z" /><path style="fill:#000;stroke:#4c4c4c;stroke-width:2" d="M126,343 l15,0 0,14 -15,0 0,-14z" /><path style="fill:#000;stroke:#4c4c4c;stroke-width:2" d="M231,343 l15,0 0,14 -15,0 0,-14z" /><path style="fill:#0f0;stroke:#4c4c4c;stroke-width:2" d="M111,417 l157,0 0,37 -157,0 0,-37z" /><path style="fill:#093" d="M111,417 l157,0 0,8 -157,0 0,-8z" /><path style="fill:none;stroke:#7f7f7f;stroke-width:2" d="M44,66 l507,0 0,911 -507,0 0,-911" /><path style="fill:#ff9;stroke:#4c4c4c;stroke-width:2" d="M82,126 l216,0 0,194 -216,0 0,-194z" /><path style="fill:#e5e5e5;stroke:#4c4c4c;stroke-width:2" d="M96,141 l187,0 0,164 -187,0 0,-164z" /><path style="fill:#006;stroke:#4c4c4c;stroke-width:2" d="M104,246 l37,0 0,22 -37,0 0,-22z" /><path style="fill:#006;stroke:#4c4c4c;stroke-width:2" d="M149,246 l37,0 0,22 -37,0 0,-22z" /><path style="fill:#006;stroke:#4c4c4c;stroke-width:2" d="M193,246 l37,0 0,22 -37,0 0,-22z" /><path style="fill:#006;stroke:#4c4c4c;stroke-width:2" d="M238,246 l37,0 0,22 -37,0 0,-22z" /><path style="fill:#006;stroke:#4c4c4c;stroke-width:2" d="M104,276 l37,0 0,22 -37,0 0,-22z" /><path style="fill:#006;stroke:#4c4c4c;stroke-width:2" d="M149,276 l37,0 0,22 -37,0 0,-22z" /><path style="fill:#006;stroke:#4c4c4c;stroke-width:2" d="M193,276 l37,0 0,22 -37,0 0,-22z" /><path style="fill:#9cc;stroke:#4c4c4c;stroke-width:2" d="M111,164 l157,0 0,37 -157,0 0,-37z" /><path style="fill:#699" d="M111,164 l157,0 0,7 -157,0 0,-7z" /><path style="fill:#ff9" d="M559,59 l29,-7 0,939 -29,-8 0,-924z" /><path style="fill:#ff9" d="M7,991 l30,-7 522,0 29,7 -581,0z" /><path style="fill:#000;stroke:#4c4c4c;stroke-width:2" d="M14,44 l567,0 0,-44 -567,0 0,44z" /><path style="fill:#c30" d="M29,7 l537,0 0,7 -537,0 0,-7z" /><circle style="fill:#000;stroke:#4c4c4c;stroke-width:2" cx="573" cy="66" r="7" /><path style="fill:none;stroke:#7f7f7f;stroke-width:2" d="M573,74 l0,-15" /><circle style="fill:#000;stroke:#4c4c4c;stroke-width:2" cx="22" cy="66" r="8" /><path style="fill:none;stroke:#7f7f7f;stroke-width:2" d="M22,74 l0,-15" /><circle style="fill:#000;stroke:#4c4c4c;stroke-width:2" cx="573" cy="975" r="7" /><path style="fill:none;stroke:#7f7f7f;stroke-width:2" d="M573,983 l0,-15" /><circle style="fill:#000;stroke:#4c4c4c;stroke-width:2" cx="22" cy="975" r="8" /><path style="fill:none;stroke:#7f7f7f;stroke-width:2" d="M22,983 l0,-15" /></svg>