<!DOCTYPE svg PUBLIC "-//W3C//DTD SVG 20000303 Stylable//EN" "http://www.w3.org/TR/2000/03/WD-SVG-20000303/DTD/svg-20000303-stylable.dtd"[]><svg xmlns="http://www.w3.org/2000/svg" width="406px" height="999px" viewBox="0 0 371 999"><path style="fill:#7f7f7f;stroke:#4c4c4c;stroke-width:2" d="M0,0 l371,0 0,991 -371,0 0,-991z" /><path style="fill:none;stroke:#4c4c4c;stroke-width:2" d="M93,356 l62,0 0,46 -62,0 0,-46" /><path style="fill:none;stroke:#4c4c4c;stroke-width:2" d="M93,410 l62,0 0,70 -62,0 0,-70" /><path style="fill:#333;stroke:#4c4c4c;stroke-width:2" d="M31,464 l30,0 0,78 -30,0 0,-78z" /><path style="fill:#000;stroke:#4c4c4c;stroke-width:2" d="M77,30 l263,0 0,39 -263,0 0,-39z" /><path style="fill:#000;stroke:#4c4c4c;stroke-width:2" d="M77,76 l263,0 0,39 -263,0 0,-39z" /><path style="fill:#000;stroke:#4c4c4c;stroke-width:2" d="M77,874 l263,0 0,39 -263,0 0,-39z" /><path style="fill:#000;stroke:#4c4c4c;stroke-width:2" d="M77,920 l263,0 0,39 -263,0 0,-39z" /><path style="fill:#000;stroke:#4c4c4c;stroke-width:2" d="M77,781 l263,0 0,40 -263,0 0,-40z" /><path style="fill:#000;stroke:#4c4c4c;stroke-width:2" d="M77,828 l263,0 0,39 -263,0 0,-39z" /><path style="fill:#000" d="M100,363 l47,0 0,31 -47,0 0,-31z" /><path style="fill:none;stroke:#fff;stroke-width:2" d="M108,371 l31,0" /><path style="fill:none;stroke:#fff;stroke-width:2" d="M108,379 l15,0" /><ellipse style="fill:#ccc;stroke:#4c4c4c;stroke-width:2" cx="46" cy="499" rx="15" ry="35" /><path style="fill:#000;stroke:#4c4c4c;stroke-width:2" d="M0,991 l371,0 0,8 -371,0 0,-8z" /><path style="fill:none;stroke:#7f7f7f;stroke-width:2" d="M85,874 l0,39" /><path style="fill:none;stroke:#7f7f7f;stroke-width:2" d="M93,874 l0,39" /><path style="fill:none;stroke:#7f7f7f;stroke-width:2" d="M100,874 l0,39" /><path style="fill:none;stroke:#7f7f7f;stroke-width:2" d="M108,874 l0,39" /><path style="fill:none;stroke:#7f7f7f;stroke-width:2" d="M115,874 l0,39" /><path style="fill:none;stroke:#7f7f7f;stroke-width:2" d="M123,874 l0,39" /><path style="fill:none;stroke:#7f7f7f;stroke-width:2" d="M131,874 l0,39" /><path style="fill:none;stroke:#7f7f7f;stroke-width:2" d="M139,874 l0,39" /><path style="fill:none;stroke:#7f7f7f;stroke-width:2" d="M146,874 l0,39" /><path style="fill:none;stroke:#7f7f7f;stroke-width:2" d="M154,874 l0,39" /><path style="fill:none;stroke:#7f7f7f;stroke-width:2" d="M161,874 l0,39" /><path style="fill:none;stroke:#7f7f7f;stroke-width:2" d="M169,874 l0,39" /><path style="fill:none;stroke:#7f7f7f;stroke-width:2" d="M176,874 l0,39" /><path style="fill:none;stroke:#7f7f7f;stroke-width:2" d="M184,874 l0,39" /><path style="fill:none;stroke:#7f7f7f;stroke-width:2" d="M192,874 l0,39" /><path style="fill:none;stroke:#7f7f7f;stroke-width:2" d="M200,874 l0,39" /><path style="fill:none;stroke:#7f7f7f;stroke-width:2" d="M208,874 l0,39" /><path style="fill:none;stroke:#7f7f7f;stroke-width:2" d="M216,874 l0,39" /><path style="fill:none;stroke:#7f7f7f;stroke-width:2" d="M223,874 l0,39" /><path style="fill:none;stroke:#7f7f7f;stroke-width:2" d="M231,874 l0,39" /><path style="fill:none;stroke:#7f7f7f;stroke-width:2" d="M238,874 l0,39" /><path style="fill:none;stroke:#7f7f7f;stroke-width:2" d="M246,874 l0,39" /><path style="fill:none;stroke:#7f7f7f;stroke-width:2" d="M254,874 l0,39" /><path style="fill:none;stroke:#7f7f7f;stroke-width:2" d="M262,874 l0,39" /><path style="fill:none;stroke:#7f7f7f;stroke-width:2" d="M270,874 l0,39" /><path style="fill:none;stroke:#7f7f7f;stroke-width:2" d="M277,874 l0,39" /><path style="fill:none;stroke:#7f7f7f;stroke-width:2" d="M285,874 l0,39" /><path style="fill:none;stroke:#7f7f7f;stroke-width:2" d="M293,874 l0,39" /><path style="fill:none;stroke:#7f7f7f;stroke-width:2" d="M300,874 l0,39" /><path style="fill:none;stroke:#7f7f7f;stroke-width:2" d="M308,874 l0,39" /><path style="fill:none;stroke:#7f7f7f;stroke-width:2" d="M316,874 l0,39" /><path style="fill:none;stroke:#7f7f7f;stroke-width:2" d="M324,874 l0,39" /><path style="fill:none;stroke:#7f7f7f;stroke-width:2" d="M333,874 l0,39" /><path style="fill:none;stroke:#7f7f7f;stroke-width:2" d="M85,920 l0,39" /><path style="fill:none;stroke:#7f7f7f;stroke-width:2" d="M93,920 l0,39" /><path style="fill:none;stroke:#7f7f7f;stroke-width:2" d="M100,920 l0,39" /><path style="fill:none;stroke:#7f7f7f;stroke-width:2" d="M108,920 l0,39" /><path style="fill:none;stroke:#7f7f7f;stroke-width:2" d="M115,920 l0,39" /><path style="fill:none;stroke:#7f7f7f;stroke-width:2" d="M123,920 l0,39" /><path style="fill:none;stroke:#7f7f7f;stroke-width:2" d="M131,920 l0,39" /><path style="fill:none;stroke:#7f7f7f;stroke-width:2" d="M139,920 l0,39" /><path style="fill:none;stroke:#7f7f7f;stroke-width:2" d="M146,920 l0,39" /><path style="fill:none;stroke:#7f7f7f;stroke-width:2" d="M154,920 l0,39" /><path style="fill:none;stroke:#7f7f7f;stroke-width:2" d="M161,920 l0,39" /><path style="fill:none;stroke:#7f7f7f;stroke-width:2" d="M169,920 l0,39" /><path style="fill:none;stroke:#7f7f7f;stroke-width:2" d="M176,920 l0,39" /><path style="fill:none;stroke:#7f7f7f;stroke-width:2" d="M184,920 l0,39" /><path style="fill:none;stroke:#7f7f7f;stroke-width:2" d="M192,920 l0,39" /><path style="fill:none;stroke:#7f7f7f;stroke-width:2" d="M200,920 l0,39" /><path style="fill:none;stroke:#7f7f7f;stroke-width:2" d="M208,920 l0,39" /><path style="fill:none;stroke:#7f7f7f;stroke-width:2" d="M216,920 l0,39" /><path style="fill:none;stroke:#7f7f7f;stroke-width:2" d="M223,920 l0,39" /><path style="fill:none;stroke:#7f7f7f;stroke-width:2" d="M231,920 l0,39" /><path style="fill:none;stroke:#7f7f7f;stroke-width:2" d="M238,920 l0,39" /><path style="fill:none;stroke:#7f7f7f;stroke-width:2" d="M246,920 l0,39" /><path style="fill:none;stroke:#7f7f7f;stroke-width:2" d="M254,920 l0,39" /><path style="fill:none;stroke:#7f7f7f;stroke-width:2" d="M262,920 l0,39" /><path style="fill:none;stroke:#7f7f7f;stroke-width:2" d="M270,920 l0,39" /><path style="fill:none;stroke:#7f7f7f;stroke-width:2" d="M277,920 l0,39" /><path style="fill:none;stroke:#7f7f7f;stroke-width:2" d="M285,920 l0,39" /><path style="fill:none;stroke:#7f7f7f;stroke-width:2" d="M293,920 l0,39" /><path style="fill:none;stroke:#7f7f7f;stroke-width:2" d="M300,920 l0,39" /><path style="fill:none;stroke:#7f7f7f;stroke-width:2" d="M308,920 l0,39" /><path style="fill:none;stroke:#7f7f7f;stroke-width:2" d="M316,920 l0,39" /><path style="fill:none;stroke:#7f7f7f;stroke-width:2" d="M324,920 l0,39" /><path style="fill:none;stroke:#7f7f7f;stroke-width:2" d="M333,920 l0,39" /><path style="fill:none;stroke:#7f7f7f;stroke-width:2" d="M85,781 l0,40" /><path style="fill:none;stroke:#7f7f7f;stroke-width:2" d="M93,781 l0,40" /><path style="fill:none;stroke:#7f7f7f;stroke-width:2" d="M100,781 l0,40" /><path style="fill:none;stroke:#7f7f7f;stroke-width:2" d="M108,781 l0,40" /><path style="fill:none;stroke:#7f7f7f;stroke-width:2" d="M115,781 l0,40" /><path style="fill:none;stroke:#7f7f7f;stroke-width:2" d="M123,781 l0,40" /><path style="fill:none;stroke:#7f7f7f;stroke-width:2" d="M131,781 l0,40" /><path style="fill:none;stroke:#7f7f7f;stroke-width:2" d="M139,781 l0,40" /><path style="fill:none;stroke:#7f7f7f;stroke-width:2" d="M146,781 l0,40" /><path style="fill:none;stroke:#7f7f7f;stroke-width:2" d="M154,781 l0,40" /><path style="fill:none;stroke:#7f7f7f;stroke-width:2" d="M161,781 l0,40" /><path style="fill:none;stroke:#7f7f7f;stroke-width:2" d="M169,781 l0,40" /><path style="fill:none;stroke:#7f7f7f;stroke-width:2" d="M176,781 l0,40" /><path style="fill:none;stroke:#7f7f7f;stroke-width:2" d="M184,781 l0,40" /><path style="fill:none;stroke:#7f7f7f;stroke-width:2" d="M192,781 l0,40" /><path style="fill:none;stroke:#7f7f7f;stroke-width:2" d="M200,781 l0,40" /><path style="fill:none;stroke:#7f7f7f;stroke-width:2" d="M208,781 l0,40" /><path style="fill:none;stroke:#7f7f7f;stroke-width:2" d="M216,781 l0,40" /><path style="fill:none;stroke:#7f7f7f;stroke-width:2" d="M223,781 l0,40" /><path style="fill:none;stroke:#7f7f7f;stroke-width:2" d="M231,781 l0,40" /><path style="fill:none;stroke:#7f7f7f;stroke-width:2" d="M238,781 l0,40" /><path style="fill:none;stroke:#7f7f7f;stroke-width:2" d="M246,781 l0,40" /><path style="fill:none;stroke:#7f7f7f;stroke-width:2" d="M254,781 l0,40" /><path style="fill:none;stroke:#7f7f7f;stroke-width:2" d="M262,781 l0,40" /><path style="fill:none;stroke:#7f7f7f;stroke-width:2" d="M270,781 l0,40" /><path style="fill:none;stroke:#7f7f7f;stroke-width:2" d="M277,781 l0,40" /><path style="fill:none;stroke:#7f7f7f;stroke-width:2" d="M285,781 l0,40" /><path style="fill:none;stroke:#7f7f7f;stroke-width:2" d="M293,781 l0,40" /><path style="fill:none;stroke:#7f7f7f;stroke-width:2" d="M300,781 l0,40" /><path style="fill:none;stroke:#7f7f7f;stroke-width:2" d="M308,781 l0,40" /><path style="fill:none;stroke:#7f7f7f;stroke-width:2" d="M316,781 l0,40" /><path style="fill:none;stroke:#7f7f7f;stroke-width:2" d="M324,781 l0,40" /><path style="fill:none;stroke:#7f7f7f;stroke-width:2" d="M333,781 l0,40" /><path style="fill:none;stroke:#7f7f7f;stroke-width:2" d="M85,828 l0,39" /><path style="fill:none;stroke:#7f7f7f;stroke-width:2" d="M93,828 l0,39" /><path style="fill:none;stroke:#7f7f7f;stroke-width:2" d="M100,828 l0,39" /><path style="fill:none;stroke:#7f7f7f;stroke-width:2" d="M108,828 l0,39" /><path style="fill:none;stroke:#7f7f7f;stroke-width:2" d="M115,828 l0,39" /><path style="fill:none;stroke:#7f7f7f;stroke-width:2" d="M123,828 l0,39" /><path style="fill:none;stroke:#7f7f7f;stroke-width:2" d="M131,828 l0,39" /><path style="fill:none;stroke:#7f7f7f;stroke-width:2" d="M139,828 l0,39" /><path style="fill:none;stroke:#7f7f7f;stroke-width:2" d="M146,828 l0,39" /><path style="fill:none;stroke:#7f7f7f;stroke-width:2" d="M154,828 l0,39" /><path style="fill:none;stroke:#7f7f7f;stroke-width:2" d="M161,828 l0,39" /><path style="fill:none;stroke:#7f7f7f;stroke-width:2" d="M169,828 l0,39" /><path style="fill:none;stroke:#7f7f7f;stroke-width:2" d="M176,828 l0,39" /><path style="fill:none;stroke:#7f7f7f;stroke-width:2" d="M184,828 l0,39" /><path style="fill:none;stroke:#7f7f7f;stroke-width:2" d="M192,828 l0,39" /><path style="fill:none;stroke:#7f7f7f;stroke-width:2" d="M200,828 l0,39" /><path style="fill:none;stroke:#7f7f7f;stroke-width:2" d="M208,828 l0,39" /><path style="fill:none;stroke:#7f7f7f;stroke-width:2" d="M216,828 l0,39" /><path style="fill:none;stroke:#7f7f7f;stroke-width:2" d="M223,828 l0,39" /><path style="fill:none;stroke:#7f7f7f;stroke-width:2" d="M231,828 l0,39" /><path style="fill:none;stroke:#7f7f7f;stroke-width:2" d="M238,828 l0,39" /><path style="fill:none;stroke:#7f7f7f;stroke-width:2" d="M246,828 l0,39" /><path style="fill:none;stroke:#7f7f7f;stroke-width:2" d="M254,828 l0,39" /><path style="fill:none;stroke:#7f7f7f;stroke-width:2" d="M262,828 l0,39" /><path style="fill:none;stroke:#7f7f7f;stroke-width:2" d="M270,828 l0,39" /><path style="fill:none;stroke:#7f7f7f;stroke-width:2" d="M277,828 l0,39" /><path style="fill:none;stroke:#7f7f7f;stroke-width:2" d="M285,828 l0,39" /><path style="fill:none;stroke:#7f7f7f;stroke-width:2" d="M293,828 l0,39" /><path style="fill:none;stroke:#7f7f7f;stroke-width:2" d="M300,828 l0,39" /><path style="fill:none;stroke:#7f7f7f;stroke-width:2" d="M308,828 l0,39" /><path style="fill:none;stroke:#7f7f7f;stroke-width:2" d="M316,828 l0,39" /><path style="fill:none;stroke:#7f7f7f;stroke-width:2" d="M324,828 l0,39" /><path style="fill:none;stroke:#7f7f7f;stroke-width:2" d="M333,828 l0,39" /><path style="fill:none;stroke:#7f7f7f;stroke-width:2" d="M85,30 l0,39" /><path style="fill:none;stroke:#7f7f7f;stroke-width:2" d="M93,30 l0,39" /><path style="fill:none;stroke:#7f7f7f;stroke-width:2" d="M100,30 l0,39" /><path style="fill:none;stroke:#7f7f7f;stroke-width:2" d="M108,30 l0,39" /><path style="fill:none;stroke:#7f7f7f;stroke-width:2" d="M115,30 l0,39" /><path style="fill:none;stroke:#7f7f7f;stroke-width:2" d="M123,30 l0,39" /><path style="fill:none;stroke:#7f7f7f;stroke-width:2" d="M131,30 l0,39" /><path style="fill:none;stroke:#7f7f7f;stroke-width:2" d="M139,30 l0,39" /><path style="fill:none;stroke:#7f7f7f;stroke-width:2" d="M146,30 l0,39" /><path style="fill:none;stroke:#7f7f7f;stroke-width:2" d="M154,30 l0,39" /><path style="fill:none;stroke:#7f7f7f;stroke-width:2" d="M161,30 l0,39" /><path style="fill:none;stroke:#7f7f7f;stroke-width:2" d="M169,30 l0,39" /><path style="fill:none;stroke:#7f7f7f;stroke-width:2" d="M176,30 l0,39" /><path style="fill:none;stroke:#7f7f7f;stroke-width:2" d="M184,30 l0,39" /><path style="fill:none;stroke:#7f7f7f;stroke-width:2" d="M192,30 l0,39" /><path style="fill:none;stroke:#7f7f7f;stroke-width:2" d="M200,30 l0,39" /><path style="fill:none;stroke:#7f7f7f;stroke-width:2" d="M208,30 l0,39" /><path style="fill:none;stroke:#7f7f7f;stroke-width:2" d="M216,30 l0,39" /><path style="fill:none;stroke:#7f7f7f;stroke-width:2" d="M223,30 l0,39" /><path style="fill:none;stroke:#7f7f7f;stroke-width:2" d="M231,30 l0,39" /><path style="fill:none;stroke:#7f7f7f;stroke-width:2" d="M238,30 l0,39" /><path style="fill:none;stroke:#7f7f7f;stroke-width:2" d="M246,30 l0,39" /><path style="fill:none;stroke:#7f7f7f;stroke-width:2" d="M254,30 l0,39" /><path style="fill:none;stroke:#7f7f7f;stroke-width:2" d="M262,30 l0,39" /><path style="fill:none;stroke:#7f7f7f;stroke-width:2" d="M270,30 l0,39" /><path style="fill:none;stroke:#7f7f7f;stroke-width:2" d="M277,30 l0,39" /><path style="fill:none;stroke:#7f7f7f;stroke-width:2" d="M285,30 l0,39" /><path style="fill:none;stroke:#7f7f7f;stroke-width:2" d="M293,30 l0,39" /><path style="fill:none;stroke:#7f7f7f;stroke-width:2" d="M300,30 l0,39" /><path style="fill:none;stroke:#7f7f7f;stroke-width:2" d="M308,30 l0,39" /><path style="fill:none;stroke:#7f7f7f;stroke-width:2" d="M316,30 l0,39" /><path style="fill:none;stroke:#7f7f7f;stroke-width:2" d="M324,30 l0,39" /><path style="fill:none;stroke:#7f7f7f;stroke-width:2" d="M333,30 l0,39" /><path style="fill:none;stroke:#7f7f7f;stroke-width:2" d="M85,76 l0,39" /><path style="fill:none;stroke:#7f7f7f;stroke-width:2" d="M93,76 l0,39" /><path style="fill:none;stroke:#7f7f7f;stroke-width:2" d="M100,76 l0,39" /><path style="fill:none;stroke:#7f7f7f;stroke-width:2" d="M108,76 l0,39" /><path style="fill:none;stroke:#7f7f7f;stroke-width:2" d="M115,76 l0,39" /><path style="fill:none;stroke:#7f7f7f;stroke-width:2" d="M123,76 l0,39" /><path style="fill:none;stroke:#7f7f7f;stroke-width:2" d="M131,76 l0,39" /><path style="fill:none;stroke:#7f7f7f;stroke-width:2" d="M139,76 l0,39" /><path style="fill:none;stroke:#7f7f7f;stroke-width:2" d="M146,76 l0,39" /><path style="fill:none;stroke:#7f7f7f;stroke-width:2" d="M154,76 l0,39" /><path style="fill:none;stroke:#7f7f7f;stroke-width:2" d="M161,76 l0,39" /><path style="fill:none;stroke:#7f7f7f;stroke-width:2" d="M169,76 l0,39" /><path style="fill:none;stroke:#7f7f7f;stroke-width:2" d="M176,76 l0,39" /><path style="fill:none;stroke:#7f7f7f;stroke-width:2" d="M184,76 l0,39" /><path style="fill:none;stroke:#7f7f7f;stroke-width:2" d="M192,76 l0,39" /><path style="fill:none;stroke:#7f7f7f;stroke-width:2" d="M200,76 l0,39" /><path style="fill:none;stroke:#7f7f7f;stroke-width:2" d="M208,76 l0,39" /><path style="fill:none;stroke:#7f7f7f;stroke-width:2" d="M216,76 l0,39" /><path style="fill:none;stroke:#7f7f7f;stroke-width:2" d="M223,76 l0,39" /><path style="fill:none;stroke:#7f7f7f;stroke-width:2" d="M231,76 l0,39" /><path style="fill:none;stroke:#7f7f7f;stroke-width:2" d="M238,76 l0,39" /><path style="fill:none;stroke:#7f7f7f;stroke-width:2" d="M246,76 l0,39" /><path style="fill:none;stroke:#7f7f7f;stroke-width:2" d="M254,76 l0,39" /><path style="fill:none;stroke:#7f7f7f;stroke-width:2" d="M262,76 l0,39" /><path style="fill:none;stroke:#7f7f7f;stroke-width:2" d="M270,76 l0,39" /><path style="fill:none;stroke:#7f7f7f;stroke-width:2" d="M277,76 l0,39" /><path style="fill:none;stroke:#7f7f7f;stroke-width:2" d="M285,76 l0,39" /><path style="fill:none;stroke:#7f7f7f;stroke-width:2" d="M293,76 l0,39" /><path style="fill:none;stroke:#7f7f7f;stroke-width:2" d="M300,76 l0,39" /><path style="fill:none;stroke:#7f7f7f;stroke-width:2" d="M308,76 l0,39" /><path style="fill:none;stroke:#7f7f7f;stroke-width:2" d="M316,76 l0,39" /><path style="fill:none;stroke:#7f7f7f;stroke-width:2" d="M324,76 l0,39" /><path style="fill:none;stroke:#7f7f7f;stroke-width:2" d="M333,76 l0,39" /></svg>