<!DOCTYPE svg PUBLIC "-//W3C//DTD SVG 20000303 Stylable//EN" "http://www.w3.org/TR/2000/03/WD-SVG-20000303/DTD/svg-20000303-stylable.dtd"[]><svg xmlns="http://www.w3.org/2000/svg" width="218px" height="999px" viewBox="0 0 171 998"><path style="fill:#999" d="M43,555 l-5,-6 0,-64 95,0 0,64 -4,6 0,443 -86,0 0,-443z" /><path style="fill:#999" d="M49,165 l-16,-53 0,-11 36,0 0,-6 -9,-10 0,-38 53,0 0,38 -12,10 0,6 38,0 0,11 -16,53 -74,0z" /><path style="fill:#a6a6a6" d="M53,165 l-11,-53 0,-11 32,0 0,-6 -11,-10 0,-38 47,0 0,38 -11,10 0,6 32,0 0,11 -14,53 -64,0z" /><path style="fill:#a6a6a6" d="M49,555 l-4,-6 0,-64 82,0 0,64 -4,6 0,443 -74,0 0,-443z" /><path style="fill:#b2b2b2" d="M56,555 l-5,-6 0,-64 68,0 0,64 -4,6 0,443 -59,0 0,-443z" /><path style="fill:#b2b2b2" d="M60,165 l-11,-53 0,-11 27,0 0,-6 -9,-10 0,-38 38,0 0,38 -8,10 0,6 26,0 0,11 -10,53 -53,0z" /><path style="fill:#bfbfbf" d="M65,165 l-7,-53 0,-11 19,0 0,-6 -6,-10 0,-38 30,0 0,38 -6,10 0,6 20,0 0,11 -8,53 -42,0z" /><path style="fill:#bfbfbf" d="M61,555 l-1,-6 0,-64 53,0 0,64 -3,6 0,443 -49,0 0,-443z" /><path style="fill:#ccc" d="M71,165 l-6,-53 0,-11 14,0 0,-6 -3,-10 0,-38 21,0 0,38 -3,10 0,6 13,0 0,11 -6,53 -30,0z" /><path style="fill:#ccc" d="M69,555 l-4,-6 0,-64 40,0 0,64 -2,6 0,443 -34,0 0,-443z" /><path style="fill:#d9d9d9" d="M77,165 l-3,-53 0,-11 7,0 0,-6 -2,-10 0,-38 15,0 0,38 -5,10 0,6 10,0 0,11 -4,53 -18,0z" /><path style="fill:#d9d9d9" d="M76,555 l-2,-6 0,-64 25,0 0,64 -2,6 0,443 -21,0 0,-443z" /><path style="fill:#e5e5e5" d="M81,555 l-2,-6 0,-64 13,0 0,64 0,6 0,443 -11,0 0,-443z" /><ellipse style="fill:#e5e5e5" cx="85" cy="106" rx="6" ry="59" /><path style="fill:#b2b2b2" d="M139,485 l0,-26 26,0 0,-6 -26,-10 -2,-12 26,0 0,-4 -26,-12 0,-10 26,0 0,-6 -28,-10 0,-10 26,0 0,-6 -26,-10 -2,-12 26,0 0,-4 -26,-12 -2,-10 28,0 -2,-6 -26,-10 0,-10 26,0 0,-6 -28,-10 0,-12 26,0 0,-6 -26,-10 -2,-10 28,0 0,-6 -28,-10 0,-10 26,0 0,-6 -28,-12 0,-10 26,0 0,-6 -26,-10 -2,-10 -76,0 0,10 -27,10 0,6 25,0 0,10 -28,12 0,6 28,0 -2,10 -28,10 0,6 28,0 -1,10 -27,10 0,6 27,0 0,12 -29,10 0,6 27,0 0,10 -27,10 -2,6 29,0 -2,10 -27,12 0,4 27,0 0,12 -29,10 0,6 26,0 0,10 -26,10 -1,6 27,0 -2,10 -25,12 0,4 25,0 0,12 -27,10 0,6 25,0 0,26 108,0z" /><path style="fill:#ccc" d="M129,485 l0,-26 20,0 0,-6 -22,-10 0,-12 22,0 0,-4 -22,-12 0,-10 20,0 0,-6 -22,-10 0,-10 22,0 0,-6 -22,-10 0,-12 20,0 0,-4 -22,-12 0,-10 22,0 -2,-6 -20,-10 -2,-10 22,0 0,-6 -22,-10 0,-12 22,0 -2,-6 -20,-10 -2,-10 22,0 0,-6 -22,-10 0,-10 20,0 0,-6 -22,-12 0,-10 22,0 0,-6 -22,-10 0,-10 -61,0 -3,10 -22,10 0,6 22,0 0,10 -22,12 0,6 20,0 0,10 -22,10 0,6 22,0 0,10 -22,10 0,6 20,0 0,12 -22,10 0,6 22,0 0,10 -22,10 -2,6 22,0 0,10 -22,12 0,4 22,0 -2,12 -20,10 -1,6 21,0 0,10 -21,10 0,6 21,0 -2,10 -21,12 0,4 21,0 0,12 -21,10 0,6 20,0 0,26 87,0z" /><path style="fill:#e5e5e5" d="M107,485 l0,-26 10,0 0,-6 -10,-10 0,-12 10,0 0,-4 -10,-12 -2,-10 12,0 0,-6 -12,-10 0,-10 10,0 0,-6 -10,-10 0,-12 10,0 0,-4 -10,-12 0,-10 10,0 0,-6 -12,-10 0,-10 12,0 0,-6 -12,-10 0,-12 10,0 0,-6 -10,-10 0,-10 10,0 0,-6 -10,-10 -2,-10 12,0 0,-6 -12,-12 0,-10 12,0 0,-6 -12,-10 0,-10 -32,0 0,10 -9,10 0,6 9,0 0,10 -11,12 0,6 11,0 0,10 -11,10 0,6 9,0 0,10 -9,10 0,6 9,0 0,12 -9,10 -2,6 11,0 0,10 -11,10 0,6 11,0 -2,10 -9,12 0,4 9,0 0,12 -9,10 0,6 9,0 0,10 -12,10 0,6 12,0 0,10 -12,12 0,4 10,0 0,12 -10,10 0,6 10,0 0,26 44,0z" /><path style="fill:#333" d="M31,807 l108,0 -10,176 -86,0 -12,-176z" /><path style="fill:#4c4c4c" d="M43,807 l86,0 -10,176 -68,0 -8,-176z" /><path style="fill:#666" d="M63,807 l44,0 -4,176 -34,0 -6,-176z" /><path style="fill:none;stroke:#4c4c4c;stroke-width:2" d="M31,807 l108,0 -10,176 -86,0 -12,-176" /><path style="fill:#b2b2b2;stroke:#4c4c4c;stroke-width:2" d="M0,533 l171,0 0,12 -171,0 0,-12z" /><path style="fill:#333;stroke:#4c4c4c;stroke-width:2" d="M6,533 l0,-20 5,-6 11,0 16,6 0,10 -16,-6 -7,0 0,16 -9,0z" /><path style="fill:#333;stroke:#4c4c4c;stroke-width:2" d="M165,533 l0,-20 -4,-6 -12,0 -16,6 0,10 16,-6 6,0 0,16 10,0z" /><path style="fill:none;stroke:#4c4c4c;stroke-width:2" d="M79,529 l-10,-10 0,-14 10,-8 15,0 7,8 0,14 -7,10 -15,0" /><path style="fill:#b2b2b2;stroke:#4c4c4c;stroke-width:2" d="M65,47 l0,-9 11,-13 19,0 12,13 0,9 -42,0z" /><path style="fill:#ccc;stroke:#4c4c4c;stroke-width:2" d="M76,25 l0,-17 5,-8 11,0 5,8 0,17 -21,0z" /><path style="fill:none;stroke:#4c4c4c;stroke-width:2" d="M43,555 l-5,-6 0,-64 95,0 0,64 -4,6 0,443 -86,0 0,-443" /><path style="fill:none;stroke:#4c4c4c;stroke-width:2" d="M139,485 l0,-26 26,0 0,-6 -26,-10 -2,-12 26,0 0,-4 -26,-12 0,-10 26,0 0,-6 -28,-10 0,-10 26,0 0,-6 -26,-10 -2,-12 26,0 0,-4 -26,-12 -2,-10 28,0 -2,-6 -26,-10 0,-10 26,0 0,-6 -28,-10 0,-12 26,0 0,-6 -26,-10 -2,-10 28,0 0,-6 -28,-10 0,-10 26,0 0,-6 -28,-12 0,-10 26,0 0,-6 -26,-10 -2,-10 -76,0 0,10 -27,10 0,6 25,0 0,10 -28,12 0,6 28,0 -2,10 -28,10 0,6 28,0 -1,10 -27,10 0,6 27,0 0,12 -29,10 0,6 27,0 0,10 -27,10 -2,6 29,0 -2,10 -27,12 0,4 27,0 0,12 -29,10 0,6 26,0 0,10 -26,10 -1,6 27,0 -2,10 -25,12 0,4 25,0 0,12 -27,10 0,6 25,0 0,26 108,0" /><path style="fill:none;stroke:#4c4c4c;stroke-width:2" d="M43,791 l86,0" /><path style="fill:none;stroke:#4c4c4c;stroke-width:2" d="M43,555 l86,0" /><path style="fill:none;stroke:#4c4c4c;stroke-width:2" d="M33,459 l104,0" /><path style="fill:none;stroke:#4c4c4c;stroke-width:2" d="M35,433 l102,0" /><path style="fill:none;stroke:#4c4c4c;stroke-width:2" d="M38,405 l97,0" /><path style="fill:none;stroke:#4c4c4c;stroke-width:2" d="M38,379 l95,0" /><path style="fill:none;stroke:#4c4c4c;stroke-width:2" d="M40,351 l91,0" /><path style="fill:none;stroke:#4c4c4c;stroke-width:2" d="M42,325 l89,0" /><path style="fill:none;stroke:#4c4c4c;stroke-width:2" d="M42,299 l87,0" /><path style="fill:none;stroke:#4c4c4c;stroke-width:2" d="M43,271 l84,0" /><path style="fill:none;stroke:#4c4c4c;stroke-width:2" d="M45,245 l82,0" /><path style="fill:none;stroke:#4c4c4c;stroke-width:2" d="M47,219 l78,0" /><path style="fill:none;stroke:#4c4c4c;stroke-width:2" d="M47,191 l78,0" /><path style="fill:none;stroke:#4c4c4c;stroke-width:2" d="M69,95 l32,0" /><path style="fill:none;stroke:#4c4c4c;stroke-width:2" d="M60,74 l53,0" /><path style="fill:none;stroke:#4c4c4c;stroke-width:2" d="M33,112 l106,0" /><path style="fill:none;stroke:#4c4c4c;stroke-width:2" d="M49,165 l-16,-53 0,-11 36,0 0,-6 -9,-10 0,-38 53,0 0,38 -12,10 0,6 38,0 0,11 -16,53 -74,0" /></svg>