<!DOCTYPE svg PUBLIC "-//W3C//DTD SVG 20000303 Stylable//EN" "http://www.w3.org/TR/2000/03/WD-SVG-20000303/DTD/svg-20000303-stylable.dtd"[]><svg xmlns="http://www.w3.org/2000/svg" width="999px" height="766px" viewBox="0 0 528 398"><path style="fill:#000;stroke:#4c4c4c;stroke-width:2" d="M21,398 l485,0 0,-364 -485,0 0,364z" /><path style="fill:#000;stroke:#7f7f7f;stroke-width:2" d="M14,64 l500,0 0,31 -500,0 0,-31z" /><path style="fill:#000;stroke:#7f7f7f;stroke-width:2" d="M37,34 l30,0 0,-7 -30,0 0,7z" /><path style="fill:#000;stroke:#7f7f7f;stroke-width:2" d="M461,34 l30,0 0,-7 -30,0 0,7z" /><path style="fill:#7f7f7f" d="M14,50 l-14,14 0,31 28,0 0,-31 -14,14 0,-28 -14,0 0,14z" /><path style="fill:#7f7f7f" d="M528,64 l-14,-14 -500,0 0,28 500,0 -14,-14 28,0 0,-14 -14,0z" /><path style="fill:#7f7f7f" d="M514,95 l14,0 0,-31 -28,0 0,31 14,0z" /><path style="fill:#7f7f7f;stroke:#4c4c4c;stroke-width:2" d="M465,27 l22,0 0,-27 -22,0 0,27z" /><path style="fill:#7f7f7f;stroke:#4c4c4c;stroke-width:2" d="M41,27 l22,0 0,-27 -22,0 0,27z" /></svg>