<!DOCTYPE svg PUBLIC "-//W3C//DTD SVG 20000303 Stylable//EN" "http://www.w3.org/TR/2000/03/WD-SVG-20000303/DTD/svg-20000303-stylable.dtd"[]><svg xmlns="http://www.w3.org/2000/svg" width="999px" height="416px" viewBox="0 0 999 381"><path style="fill:#366" d="M233,125 l0,-84 -64,0 0,42 -42,0 -63,-42 -64,0 0,298 64,0 63,-44 42,0 0,44 64,0 0,-86 276,0 64,22 64,0 0,42 22,0 0,-22 128,44 0,20 20,0 0,-20 106,20 0,22 21,0 0,-170 42,0 23,42 0,-128 -23,44 -42,0 0,-169 -21,0 0,19 -106,22 0,-22 -20,0 0,22 -128,42 0,-22 -22,0 0,45 -64,0 -64,19 -276,0z" /><path style="fill:#427575" d="M233,131 l0,-76 -64,0 0,38 -42,0 -63,-38 -64,0 0,268 64,0 63,-38 42,0 0,38 64,0 0,-76 276,0 64,18 64,0 0,40 22,0 0,-20 128,38 0,20 20,0 0,-20 106,20 0,18 21,0 0,-152 42,0 23,38 0,-116 -23,40 -42,0 0,-154 -21,0 0,18 -106,20 0,-20 -20,0 0,20 -128,38 0,-18 -22,0 0,38 -64,0 -64,18 -276,0z" /><path style="fill:#4f8282" d="M233,139 l0,-70 -64,0 0,37 -42,0 -63,-37 -64,0 0,240 64,0 63,-34 42,0 0,34 64,0 0,-68 276,0 64,16 64,0 0,34 22,0 0,-16 128,34 0,16 20,0 0,-16 106,16 0,18 21,0 0,-136 42,0 23,34 0,-102 -23,34 -42,0 0,-138 -21,0 0,19 -106,15 0,-15 -20,0 0,15 -128,37 0,-19 -22,0 0,34 -64,0 -64,18 -276,0z" /><path style="fill:#5e9191" d="M233,145 l0,-60 -64,0 0,30 -42,0 -63,-30 -64,0 0,208 64,0 63,-30 42,0 0,30 64,0 0,-58 276,0 64,14 64,0 0,30 22,0 0,-16 128,30 0,16 20,0 0,-16 106,16 0,14 21,0 0,-118 42,0 23,30 0,-90 -23,30 -42,0 0,-120 -21,0 0,14 -106,16 0,-16 -20,0 0,16 -128,30 0,-16 -22,0 0,30 -64,0 -64,16 -276,0z" /><path style="fill:#6b9e9e" d="M233,151 l0,-52 -64,0 0,26 -42,0 -63,-26 -64,0 0,180 64,0 63,-26 42,0 0,26 64,0 0,-52 276,0 64,14 64,0 0,26 22,0 0,-14 128,26 0,14 20,0 0,-14 106,14 0,12 21,0 0,-102 42,0 23,24 0,-76 -23,26 -42,0 0,-103 -21,0 0,13 -106,12 0,-12 -20,0 0,12 -128,26 0,-14 -22,0 0,26 -64,0 -64,14 -276,0z" /><path style="fill:#7aadad" d="M233,157 l0,-44 -64,0 0,22 -42,0 -63,-22 -64,0 0,152 64,0 63,-22 42,0 0,22 64,0 0,-44 276,0 64,12 64,0 0,20 22,0 0,-10 128,22 0,10 20,0 0,-10 106,10 0,12 21,0 0,-88 42,0 23,22 0,-64 -23,22 -42,0 0,-86 -21,0 0,10 -106,10 0,-10 -20,0 0,10 -128,22 0,-10 -22,0 0,20 -64,0 -64,12 -276,0z" /><path style="fill:#87baba" d="M233,163 l0,-34 -64,0 0,16 -42,0 -63,-16 -64,0 0,122 64,0 63,-18 42,0 0,18 64,0 0,-36 276,0 64,8 64,0 0,18 22,0 0,-8 128,18 0,8 20,0 0,-8 106,8 0,8 21,0 0,-70 42,0 23,18 0,-52 -23,18 -42,0 0,-70 -21,0 0,8 -106,10 0,-10 -20,0 0,10 -128,16 0,-8 -22,0 0,18 -64,0 -64,8 -276,0z" /><path style="fill:#96c9c9" d="M233,169 l0,-26 -64,0 0,14 -42,0 -63,-14 -64,0 0,92 64,0 63,-12 42,0 0,12 64,0 0,-26 276,0 64,6 64,0 0,14 22,0 0,-6 128,12 0,6 20,0 0,-6 106,6 0,8 21,0 0,-54 42,0 23,14 0,-40 -23,14 -42,0 0,-54 -21,0 0,8 -106,6 0,-6 -20,0 0,6 -128,14 0,-8 -22,0 0,14 -64,0 -64,6 -276,0z" /><path style="fill:#a3d6d6" d="M233,175 l0,-18 -64,0 0,10 -42,0 -63,-10 -64,0 0,64 64,0 63,-10 42,0 0,10 64,0 0,-18 276,0 64,4 64,0 0,8 22,0 0,-4 128,10 0,4 20,0 0,-4 106,4 0,4 21,0 0,-36 42,0 23,10 0,-28 -23,10 -42,0 0,-36 -21,0 0,4 -106,4 0,-4 -20,0 0,4 -128,10 0,-4 -22,0 0,8 -64,0 -64,4 -276,0z" /><path style="fill:#cff" d="M233,183 l0,-10 -64,0 0,4 -42,0 -63,-4 -64,0 0,34 64,0 63,-6 42,0 0,6 64,0 0,-10 276,0 64,2 64,0 0,4 22,0 0,-2 128,6 0,2 20,0 0,-2 106,2 0,2 21,0 0,-20 42,0 23,6 0,-14 -23,4 -42,0 0,-18 -21,0 0,2 -106,2 0,-2 -20,0 0,2 -128,4 0,-2 -22,0 0,4 -64,0 -64,4 -276,0z" /><path style="fill:#cc0" d="M255,125 l0,128 126,0 0,-128 -126,0z" /><path style="fill:none;stroke:#4c4c4c;stroke-width:2" d="M934,169 l0,42" /><path style="fill:none;stroke:#4c4c4c;stroke-width:2" d="M976,211 l0,-42" /><path style="fill:none;stroke:#4c4c4c;stroke-width:2" d="M509,253 l64,22 64,0 0,42 22,0 0,-22 128,44 0,20 20,0 0,-20 106,20 0,22 21,0 0,-170 42,0 23,42 0,-128 -23,44 -42,0 0,-169 -21,0 0,19 -106,22 0,-22 -20,0 0,22 -128,42 0,-22 -22,0 0,45 -64,0 -64,19 -276,0 0,-84 -64,0 0,42 -42,0 -63,-42 -64,0 0,298 64,0 63,-44 42,0 0,44 64,0 0,-86 276,0" /><path style="fill:none;stroke:#4c4c4c;stroke-width:2" d="M913,359 l0,-340" /><path style="fill:none;stroke:#4c4c4c;stroke-width:2" d="M807,41 l0,298" /><path style="fill:none;stroke:#4c4c4c;stroke-width:2" d="M787,339 l0,-298" /><path style="fill:none;stroke:#4c4c4c;stroke-width:2" d="M659,83 l0,212" /><path style="fill:none;stroke:#4c4c4c;stroke-width:2" d="M637,275 l0,-169" /><path style="fill:none;stroke:#4c4c4c;stroke-width:2" d="M573,275 l0,-169" /><path style="fill:none;stroke:#4c4c4c;stroke-width:2" d="M381,253 l0,-128" /><path style="fill:none;stroke:#4c4c4c;stroke-width:2" d="M233,125 l0,128" /><path style="fill:none;stroke:#4c4c4c;stroke-width:2" d="M169,295 l0,-212" /><path style="fill:none;stroke:#4c4c4c;stroke-width:2" d="M127,295 l0,-212" /><path style="fill:none;stroke:#4c4c4c;stroke-width:2" d="M64,339 l0,-298" /><path style="fill:none;stroke:#4c4c4c;stroke-width:2" d="M255,125 l0,128" /><path style="fill:#7f7f00" d="M265,115 l0,148 10,0 0,-148 -10,0z" /><path style="fill:#7f7f00" d="M287,115 l0,148 10,0 0,-148 -10,0z" /><path style="fill:#7f7f00" d="M307,115 l0,148 12,0 0,-148 -12,0z" /><path style="fill:#7f7f00" d="M329,115 l0,148 10,0 0,-148 -10,0z" /><path style="fill:#7f7f00" d="M351,115 l0,148 20,0 0,-148 -20,0z" /><path style="fill:#7f7f7f" d="M445,51 l0,276 22,0 0,-276 -22,0z" /><path style="fill:#7f7f7f" d="M563,51 l0,276 20,0 0,-276 -20,0z" /><path style="fill:#919191" d="M447,69 l0,240 20,0 0,-240 -20,0z" /><path style="fill:#919191" d="M563,69 l0,240 20,0 0,-240 -20,0z" /><path style="fill:#a3a3a3" d="M447,87 l0,204 20,0 0,-204 -20,0z" /><path style="fill:#a3a3a3" d="M563,87 l0,204 20,0 0,-204 -20,0z" /><path style="fill:#b5b5b5" d="M447,106 l0,167 20,0 0,-167 -20,0z" /><path style="fill:#b5b5b5" d="M563,106 l0,167 20,0 0,-167 -20,0z" /><path style="fill:#c9c9c9" d="M447,123 l0,132 20,0 0,-132 -20,0z" /><path style="fill:#c9c9c9" d="M563,123 l0,132 20,0 0,-132 -20,0z" /><path style="fill:#dbdbdb" d="M447,143 l0,94 20,0 0,-94 -20,0z" /><path style="fill:#dbdbdb" d="M563,143 l0,94 20,0 0,-94 -20,0z" /><path style="fill:#ededed" d="M563,161 l0,58 20,0 0,-58 -20,0z" /><path style="fill:#ededed" d="M447,161 l0,58 20,0 0,-58 -20,0z" /><path style="fill:#4c4c4c;stroke:#4c4c4c;stroke-width:2" d="M499,125 l20,0 0,128 -20,0 0,-128z" /><path style="fill:#666;stroke:#4c4c4c;stroke-width:2" d="M467,74 l96,0 0,19 -96,0 0,-19z" /><path style="fill:#666;stroke:#4c4c4c;stroke-width:2" d="M467,285 l96,0 0,22 -96,0 0,-22z" /><path style="fill:#999;stroke:#4c4c4c;stroke-width:2" d="M467,253 l96,0 0,22 -96,0 0,-22z" /><path style="fill:#999;stroke:#4c4c4c;stroke-width:2" d="M467,106 l96,0 0,19 -96,0 0,-19z" /><path style="fill:#ccc;stroke:#4c4c4c;stroke-width:2" d="M467,147 l96,0 0,22 -96,0 0,-22z" /><path style="fill:#ccc;stroke:#4c4c4c;stroke-width:2" d="M467,211 l96,0 0,20 -96,0 0,-20z" /><path style="fill:#fff" d="M563,179 l0,20 20,0 0,-20 -20,0z" /><path style="fill:#fff" d="M445,179 l0,20 22,0 0,-20 -22,0z" /><path style="fill:none;stroke:#4c4c4c;stroke-width:2" d="M563,51 l0,276 20,0 0,-276 -20,0" /><path style="fill:none;stroke:#4c4c4c;stroke-width:2" d="M445,51 l0,276 22,0 0,-276 -22,0" /></svg>