<!DOCTYPE svg PUBLIC "-//W3C//DTD SVG 20000303 Stylable//EN" "http://www.w3.org/TR/2000/03/WD-SVG-20000303/DTD/svg-20000303-stylable.dtd"[]><svg xmlns="http://www.w3.org/2000/svg" width="999px" height="593px" viewBox="0 0 999 569"><path style="fill:#e5e5e5;stroke:#4c4c4c;stroke-width:2" d="M999,0 l-79,79 0,490 79,-80 0,-489z" /><path style="fill:#fff;stroke:#4c4c4c;stroke-width:2" d="M799,78 l120,0 80,-78 -121,0 -79,78z" /><path style="fill:#ccc" d="M937,55 l-112,0 -8,8 112,0 8,-8z" /><path style="fill:#ccc" d="M949,45 l-113,0 -9,8 116,0 6,-8z" /><path style="fill:#ccc" d="M960,37 l-114,0 -8,6 115,0 7,-6z" /><path style="fill:#ccc" d="M970,24 l-114,0 -8,8 114,0 8,-8z" /><path style="fill:#ccc" d="M980,12 l-111,0 -9,8 112,0 8,-8z" /><path style="fill:#ccc" d="M929,68 l-114,0 -10,8 115,0 9,-8z" /><path style="fill:#ccc" d="M993,3 l-114,0 -8,9 116,0 6,-9z" /><path style="fill:#ccc;stroke:#4c4c4c;stroke-width:2" d="M260,92 l0,106 -260,0 0,358 908,0 0,-464 -648,0z" /><path style="fill:#ccc" d="M304,47 l-259,0 42,-39 908,0 -87,84 -648,0 44,-45z" /><path style="fill:none;stroke:#4c4c4c;stroke-width:2" d="M260,92 l44,-45 -259,0 42,-39 908,0 -87,84 -648,0" /><path style="fill:#7f7f7f;stroke:#4c4c4c;stroke-width:2" d="M0,92 l260,0 44,-43 -259,0 -45,43z" /><path style="fill:#7f7f7f;stroke:#4c4c4c;stroke-width:2" d="M0,430 l132,0 0,126 -132,0 0,-126z" /><path style="fill:#7f7f7f" d="M260,92 l0,106 -260,0 0,-106 260,0z" /><path style="fill:none;stroke:#4c4c4c;stroke-width:2" d="M0,92 l260,0 0,106 -260,0 0,-106" /><path style="fill:#fff;stroke:#4c4c4c;stroke-width:2" d="M799,78 l121,0 0,490 -121,0 0,-490z" /><path style="fill:#000" d="M120,260 l-69,0 -1,0 -1,1 -1,1 0,2 0,88 0,2 1,2 1,1 1,0 69,0 1,0 2,-1 0,-2 1,-2 0,-88 -1,-2 0,-1 -2,-1 -1,0z" /><path style="fill:#0f0" d="M96,263 l-21,0 0,49 21,0 0,-49z" /><path style="fill:#f00" d="M120,263 l-21,0 0,49 21,0 0,-49z" /><path style="fill:#ff0" d="M72,263 l-21,0 0,49 21,0 0,-49z" /><path style="fill:#ccc;stroke:#4c4c4c;stroke-width:2" d="M46,511 l86,0 0,44 -132,0 46,-44z" /><path style="fill:#e5e5e5;stroke:#4c4c4c;stroke-width:2" d="M0,430 l45,0 0,80 -45,48 0,-128z" /><path style="fill:#e5e5e5;stroke:#4c4c4c;stroke-width:2" d="M0,92 l45,-45 0,103 -45,48 0,-106z" /><ellipse style="fill:#e5e5e5;stroke:#4c4c4c;stroke-width:2" cx="465" cy="331" rx="70" ry="75" /><path style="fill:none;stroke:#4c4c4c;stroke-width:2" d="M925,74 l0,488" /><path style="fill:none;stroke:#4c4c4c;stroke-width:2" d="M990,11 l0,487" /><path style="fill:none;stroke:#4c4c4c;stroke-width:2" d="M979,21 l0,487" /><path style="fill:none;stroke:#4c4c4c;stroke-width:2" d="M968,32 l0,487" /><path style="fill:none;stroke:#4c4c4c;stroke-width:2" d="M957,42 l0,488" /><path style="fill:none;stroke:#4c4c4c;stroke-width:2" d="M946,53 l0,487" /><path style="fill:none;stroke:#4c4c4c;stroke-width:2" d="M936,64 l0,487" /><path style="fill:#b2b2b2" d="M848,15 l-485,0 -70,69 484,0 71,-69z" /><path style="fill:#f00" d="M512,285 l-14,-9 -14,-9 -11,25 -6,23 -6,-3 -8,-6 -1,15 2,15 -6,-1 -6,-1 -10,33 -2,29 6,-26 12,-26 9,3 10,2 -2,-12 0,-11 6,3 7,3 13,-26 21,-21z" /><path style="fill:#b2b2b2;stroke:#4c4c4c;stroke-width:2" d="M0,154 l259,0 0,44 -259,0 0,-44z" /><path style="fill:#0f0;stroke:#4c4c4c;stroke-width:2" d="M45,119 l216,1 -1,14 -227,0 12,-15z" /><path style="fill:#0f0;stroke:#4c4c4c;stroke-width:2" d="M33,163 l227,0 0,-29 -227,0 0,29z" /><path style="fill:#7f7f7f" d="M227,138 l-5,3 -3,5 3,8 5,5 7,-5 2,-8 -2,-5 -7,-3z" /><path style="fill:#7f7f7f" d="M202,138 l-6,3 -4,5 4,8 6,5 7,-5 2,-8 -2,-5 -7,-3z" /><path style="fill:#7f7f7f" d="M178,138 l-7,3 -2,5 2,8 7,5 5,-5 3,-8 -3,-5 -5,-3z" /><path style="fill:#7f7f7f" d="M151,138 l-7,3 -2,5 2,8 7,5 7,-5 3,-8 -3,-5 -7,-3z" /><path style="fill:#7f7f7f" d="M126,138 l-6,3 -2,5 2,8 6,5 6,-5 2,-8 -2,-5 -6,-3z" /><path style="fill:#7f7f7f" d="M99,138 l-6,3 -2,5 2,8 6,5 6,-5 2,-8 -2,-5 -6,-3z" /><path style="fill:#7f7f7f" d="M74,138 l-7,3 -3,5 3,8 7,5 6,-5 2,-8 -2,-5 -6,-3z" /><path style="fill:#7f7f7f" d="M47,138 l-5,3 -3,5 3,8 5,5 7,-5 2,-8 -2,-5 -7,-3z" /><path style="fill:none;stroke:#4c4c4c;stroke-width:2" d="M43,140 l10,14" /><path style="fill:none;stroke:#4c4c4c;stroke-width:2" d="M70,140 l8,14" /><path style="fill:none;stroke:#4c4c4c;stroke-width:2" d="M95,140 l8,14" /><path style="fill:none;stroke:#4c4c4c;stroke-width:2" d="M120,140 l10,14" /><path style="fill:none;stroke:#4c4c4c;stroke-width:2" d="M144,140 l13,14" /><path style="fill:none;stroke:#4c4c4c;stroke-width:2" d="M171,140 l11,14" /><path style="fill:none;stroke:#4c4c4c;stroke-width:2" d="M198,140 l11,14" /><path style="fill:none;stroke:#4c4c4c;stroke-width:2" d="M223,140 l10,14" /></svg>