<!DOCTYPE svg PUBLIC "-//W3C//DTD SVG 20000303 Stylable//EN" "http://www.w3.org/TR/2000/03/WD-SVG-20000303/DTD/svg-20000303-stylable.dtd"[]><svg xmlns="http://www.w3.org/2000/svg" width="999px" height="783px" viewBox="0 0 999 770"><ellipse style="fill:#ccc;stroke:#4c4c4c;stroke-width:2" cx="781" cy="144" rx="38" ry="98" /><path style="fill:#e5e5e5" d="M810,61 l-27,0 -1,0 -2,1 -1,0 0,1 -1,1 -1,1 -1,1 0,1 -1,2 0,2 -1,1 0,2 0,2 0,2 -1,2 0,3 0,1 1,2 0,2 0,1 0,2 1,2 0,1 1,1 0,2 1,1 1,1 1,1 0,0 1,1 2,0 1,0 27,0 -1,0 -1,0 -1,-1 -1,0 0,-1 -1,-1 -1,-1 -1,-2 0,-1 -1,-1 0,-2 0,-2 0,-1 -1,-2 0,-2 0,-1 0,-3 0,-2 1,-2 0,-2 0,-2 0,-1 1,-2 0,-2 1,-1 1,-1 1,-1 0,-1 1,-1 1,0 1,-1 1,0z" /><path style="fill:#e5e5e5" d="M783,46 l-549,0 -2,0 -2,0 -2,1 -2,1 -2,1 -2,1 -1,2 -2,2 -2,2 -1,2 -2,2 -1,3 -2,3 -1,3 -2,3 -1,3 -1,4 -1,4 -1,3 -1,4 -1,4 -1,4 -1,5 0,4 -1,4 -1,5 0,4 0,5 -1,5 0,5 0,5 0,4 0,5 0,5 0,5 1,5 0,4 0,5 1,5 1,4 0,4 1,5 1,4 1,4 1,4 1,3 1,4 1,3 1,4 2,3 1,3 2,3 1,2 2,3 1,2 2,2 2,2 1,2 2,1 2,1 2,1 2,1 2,0 2,0 549,0 -2,0 -2,0 -2,-1 -2,-1 -2,-1 -2,-1 -2,-2 -2,-2 -1,-2 -2,-2 -2,-3 -1,-2 -2,-3 -2,-3 -1,-3 -1,-4 -2,-3 -1,-4 -1,-3 -1,-4 -1,-4 -2,-4 0,-5 -1,-4 -1,-4 -1,-5 0,-5 -1,-4 0,-5 0,-5 0,-5 0,-5 0,-4 0,-5 0,-5 0,-5 1,-5 0,-4 1,-5 1,-4 1,-4 0,-5 2,-4 1,-4 1,-4 1,-3 1,-4 2,-4 1,-3 1,-3 2,-3 2,-3 1,-3 2,-2 2,-2 1,-2 2,-2 2,-2 2,-1 2,-1 2,-1 2,-1 2,0 2,0z" /><ellipse style="fill:#7f7f7f" cx="793" cy="98" rx="16" ry="3" /><path style="fill:#7f7f7f" d="M780,243 l-543,0 -2,0 -3,0 -2,-1 -2,-1 -2,-1 -2,-2 -2,-1 -2,-2 -1,-3 -2,-2 -2,-2 -2,-3 -2,-3 -1,-3 -2,-3 -2,-4 546,0 1,4 1,3 2,3 1,3 2,3 2,2 2,2 2,3 1,2 2,1 2,2 2,1 2,1 2,1 2,0 2,0z" /><ellipse style="fill:#fff" cx="788" cy="69" rx="15" ry="5" /><path style="fill:#fff" d="M758,61 l-543,0 -1,1 -1,2 -1,1 -1,2 -1,2 -1,2 -1,2 0,2 -1,2 -1,2 -1,3 -1,2 -1,3 -1,2 -1,3 -1,3 546,0 0,-3 1,-3 1,-2 0,-3 1,-2 1,-3 1,-2 1,-2 1,-2 1,-2 0,-2 1,-2 1,-2 1,-1 0,-2 1,-1z" /><path style="fill:#b2b2b2" d="M752,212 l-546,0 0,-2 -1,-2 -1,-2 -1,-2 0,-3 -1,-2 -1,-3 -1,-3 0,-3 -1,-3 -1,-3 0,-3 -1,-3 0,-3 0,-3 0,-3 546,0 0,3 0,3 0,3 1,3 0,2 1,3 0,3 1,3 1,3 1,2 0,3 1,2 1,3 1,2 0,3 1,2z" /><ellipse style="fill:#b2b2b2" cx="788" cy="90" rx="15" ry="4" /><path style="fill:#ffc;stroke:#4c4c4c;stroke-width:2" d="M906,712 l59,0 0,-426 -59,0 0,426z" /><path style="fill:#ffc;stroke:#4c4c4c;stroke-width:2" d="M0,712 l965,0 0,58 -965,0 0,-58z" /><path style="fill:#ffc" d="M58,712 l0,-426 -58,0 0,426 58,0z" /><path style="fill:none;stroke:#4c4c4c;stroke-width:2" d="M0,712 l58,0 0,-426 -58,0 0,426" /><path style="fill:#ffc;stroke:#4c4c4c;stroke-width:2" d="M0,286 l0,16 27,27 910,0 28,-27 0,-16 -965,0z" /><path style="fill:none;stroke:#4c4c4c;stroke-width:2" d="M0,770 l965,0 0,-484 -965,0 0,484" /><path style="fill:#333;stroke:#4c4c4c;stroke-width:2" d="M58,329 l848,0 0,383 -848,0 0,-383z" /><path style="fill:#333;stroke:#4c4c4c;stroke-width:2" d="M915,696 l43,0 0,-101 -43,0 0,101z" /><circle style="fill:#333;stroke:#4c4c4c;stroke-width:2" cx="10" cy="721" r="4" /><circle style="fill:#333;stroke:#4c4c4c;stroke-width:2" cx="47" cy="721" r="4" /><circle style="fill:#333;stroke:#4c4c4c;stroke-width:2" cx="10" cy="758" r="4" /><circle style="fill:#333;stroke:#4c4c4c;stroke-width:2" cx="47" cy="758" r="4" /><circle style="fill:#333;stroke:#4c4c4c;stroke-width:2" cx="10" cy="297" r="4" /><circle style="fill:#333;stroke:#4c4c4c;stroke-width:2" cx="47" cy="318" r="4" /><circle style="fill:#333;stroke:#4c4c4c;stroke-width:2" cx="918" cy="318" r="3" /><ellipse style="fill:#333;stroke:#4c4c4c;stroke-width:2" cx="955" cy="297" rx="3" ry="5" /><circle style="fill:#333;stroke:#4c4c4c;stroke-width:2" cx="918" cy="721" r="3" /><circle style="fill:#333;stroke:#4c4c4c;stroke-width:2" cx="918" cy="758" r="3" /><circle style="fill:#333;stroke:#4c4c4c;stroke-width:2" cx="955" cy="721" r="3" /><circle style="fill:#333;stroke:#4c4c4c;stroke-width:2" cx="955" cy="758" r="3" /><path style="fill:#7f7f7f;stroke:#4c4c4c;stroke-width:2" d="M835,678 l59,0 0,3 -59,0 0,-3z" /><path style="fill:#666" d="M826,622 l-56,0 0,19 56,0 0,-19z" /><path style="fill:#666" d="M894,622 l-56,0 0,19 56,0 0,-19z" /><path style="fill:#b2b2b2" d="M764,622 l-68,0 0,19 68,0 0,-19z" /><ellipse style="fill:#b2b2b2" cx="930" cy="637" rx="9" ry="12" /><ellipse style="fill:#b2b2b2" cx="947" cy="637" rx="7" ry="12" /><path style="fill:#b2b2b2" d="M918,625 l3,0 0,25 -3,0 0,-25z" /><path style="fill:#e5e5e5;stroke:#4c4c4c;stroke-width:2" d="M477,345 l10,0 0,37 -10,0 0,-37z" /><path style="fill:#e5e5e5;stroke:#4c4c4c;stroke-width:2" d="M191,345 l9,0 0,37 -9,0 0,-37z" /><path style="fill:#e5e5e5;stroke:#4c4c4c;stroke-width:2" d="M767,345 l10,0 0,37 -10,0 0,-37z" /><path style="fill:#191919" d="M86,403 l808,0 0,16 -808,0 0,-16z" /><path style="fill:#191919" d="M86,431 l808,0 0,16 -808,0 0,-16z" /><path style="fill:#191919" d="M86,462 l808,0 0,15 -808,0 0,-15z" /><path style="fill:#191919" d="M86,490 l808,0 0,15 -808,0 0,-15z" /><path style="fill:#191919" d="M86,521 l808,0 0,15 -808,0 0,-15z" /><path style="fill:#191919" d="M86,548 l808,0 0,16 -808,0 0,-16z" /><path style="fill:#191919" d="M86,579 l808,0 0,16 -808,0 0,-16z" /><path style="fill:#191919" d="M86,607 l808,0 0,15 -808,0 0,-15z" /><path style="fill:#191919" d="M86,638 l808,0 0,15 -808,0 0,-15z" /><path style="fill:none;stroke:#666;stroke-width:2" d="M629,696 l0,-351 265,0" /><path style="fill:none;stroke:#666;stroke-width:2" d="M351,696 l0,-351 262,0" /><path style="fill:none;stroke:#666;stroke-width:2" d="M74,696 l0,-351 262,0" /><path style="fill:#b2b2b2;stroke:#4c4c4c;stroke-width:2" d="M366,481 l0,3 -43,0 0,-3 43,0z" /><path style="fill:#b2b2b2;stroke:#4c4c4c;stroke-width:2" d="M366,598 l0,3 -43,0 0,-3 43,0z" /><path style="fill:#c93;stroke:#4c4c4c;stroke-width:2" d="M915,659 l43,0 0,22 -43,0 0,-22z" /><path style="fill:#c93;stroke:#4c4c4c;stroke-width:2" d="M644,644 l262,0 0,31 -262,0 0,-31z" /><path style="fill:#ff9;stroke:#4c4c4c;stroke-width:2" d="M965,770 l34,-24 0,-484 -34,24 0,484z" /><path style="fill:#ffc;stroke:#4c4c4c;stroke-width:2" d="M0,286 l965,0 34,-24 -966,0 -33,24z" /><path style="fill:#c63;stroke:#4c4c4c;stroke-width:2" d="M810,101 l-1,0 -1,0 -1,-1 -1,0 0,-1 -1,-1 -1,-1 -1,-2 0,-1 -1,-1 0,-2 0,-2 0,-1 -1,-2 0,-2 0,-1 0,-3 0,-2 1,-2 0,-2 0,-2 0,-1 1,-2 0,-2 1,-1 1,-1 1,-1 0,-1 1,-1 1,0 1,-1 1,0 6,0 5,-1 5,-1 4,-2 5,-2 4,-3 4,-3 4,-4 4,-3 3,-4 2,-5 2,-4 2,-5 2,-5 1,-5 0,-5 0,-1 0,-1 1,-1 0,-1 1,-1 1,-1 2,-1 1,0 1,-1 2,0 2,-1 2,0 2,0 2,0 2,0 2,0 2,0 2,0 2,0 1,0 2,0 1,1 2,0 1,1 1,0 1,1 2,1 0,1 1,1 0,1 1,1 0,1 0,5 -1,4 0,5 -1,5 -1,4 -1,5 -2,4 -1,4 -2,4 -2,4 -2,4 -2,4 -3,4 -3,3 -3,3 -3,4 -3,3 -3,3 -4,2 -3,3 -4,2 -4,2 -4,2 -4,2 -4,2 -5,1 -4,1 -5,1 -4,1 -5,1 -5,0 -5,0z" /><path style="fill:none;stroke:#4c4c4c;stroke-width:2" d="M903,9 l0,0 -1,1 0,0 -1,1 0,0 -2,1 -1,1 -1,0 -1,0 -2,1 -1,0 -2,0 -1,1 -2,0 -2,0 -2,0 -2,0 -2,0 -2,0 -2,-1 -2,0 -2,0 -2,-1 -1,0 -1,0 -2,-1 -1,-1 -1,0 0,-1 -1,0 0,-1 0,0" /><path style="fill:#900" d="M807,101 l5,0 4,-1 4,0 4,-1 5,-1 4,-2 4,-1 4,-2 4,-1 4,-2 4,-2 3,-2 4,-3 3,-2 4,-3 3,-3 3,-2 3,-3 3,-4 3,-3 3,-3 2,-4 3,-4 2,-3 2,-4 2,-4 1,-4 2,-4 1,-5 1,-4 1,-5 1,-4 0,0 -1,0 -1,1 -1,1 -1,1 -3,1 -2,1 -3,1 -1,4 -1,4 -1,3 -1,3 -1,4 -2,3 -2,3 -1,4 -2,3 -2,3 -3,2 -2,3 -2,3 -3,2 -3,3 -2,2 -3,2 -3,2 -3,2 -3,2 -3,2 -4,1 -3,2 -4,1 -3,1 -4,1 -3,1 -4,1 -3,0 -4,1 -4,0 -4,0 -1,0 0,0 -1,0 -1,0 0,0 -1,0 -1,0 -1,0 1,2 1,2 1,3 1,1 1,2 1,1 0,1 0,0z" /><path style="fill:#7f7f7f;stroke:#4c4c4c;stroke-width:2" d="M687,243 l40,0 0,34 -40,0 0,-34z" /><path style="fill:#7f7f7f;stroke:#4c4c4c;stroke-width:2" d="M518,268 l-1,1 0,1 -1,1 -1,1 -1,1 -1,0 -2,1 -2,1 -2,0 -2,1 -2,0 -2,0 -3,1 -3,0 -2,0 -3,0 -3,0 -3,0 -3,0 -2,-1 -2,0 -3,0 -2,-1 -2,0 -2,-1 -1,-1 -2,0 -1,-1 -1,-1 0,-1 -1,-1 0,-1 0,-28 56,0 0,28z" /><path style="fill:#7f7f7f;stroke:#4c4c4c;stroke-width:2" d="M262,243 l40,0 0,34 -40,0 0,-34z" /><path style="fill:#333;stroke:#4c4c4c;stroke-width:2" d="M727,277 l16,-9 0,-25 -16,0 0,34z" /><path style="fill:#333;stroke:#4c4c4c;stroke-width:2" d="M302,277 l15,-9 0,-25 -15,0 0,34z" /><path style="fill:none;stroke:#4c4c4c;stroke-width:2" d="M810,61 l-27,0 -1,0 -2,1 -1,0 0,1 -1,1 -1,1 -1,1 0,1 -1,2 0,2 -1,1 0,2 0,2 0,2 -1,2 0,3 0,1 1,2 0,2 0,1 0,2 1,2 0,1 1,1 0,2 1,1 1,1 1,1 0,0 1,1 2,0 1,0 27,0 -1,0 -1,0 -1,-1 -1,0 0,-1 -1,-1 -1,-1 -1,-2 0,-1 -1,-1 0,-2 0,-2 0,-1 -1,-2 0,-2 0,-1 0,-3 0,-2 1,-2 0,-2 0,-2 0,-1 1,-2 0,-2 1,-1 1,-1 1,-1 0,-1 1,-1 1,0 1,-1 1,0" /><path style="fill:none;stroke:#4c4c4c;stroke-width:2" d="M783,46 l-549,0 -2,0 -2,0 -2,1 -2,1 -2,1 -2,1 -1,2 -2,2 -2,2 -1,2 -2,2 -1,3 -2,3 -1,3 -2,3 -1,3 -1,4 -1,4 -1,3 -1,4 -1,4 -1,4 -1,5 0,4 -1,4 -1,5 0,4 0,5 -1,5 0,5 0,5 0,4 0,5 0,5 0,5 1,5 0,4 0,5 1,5 1,4 0,4 1,5 1,4 1,4 1,4 1,3 1,4 1,3 1,4 2,3 1,3 2,3 1,2 2,3 1,2 2,2 2,2 1,2 2,1 2,1 2,1 2,1 2,0 2,0 549,0 -2,0 -2,0 -2,-1 -2,-1 -2,-1 -2,-1 -2,-2 -2,-2 -1,-2 -2,-2 -2,-3 -1,-2 -2,-3 -2,-3 -1,-3 -1,-4 -2,-3 -1,-4 -1,-3 -1,-4 -1,-4 -2,-4 0,-5 -1,-4 -1,-4 -1,-5 0,-5 -1,-4 0,-5 0,-5 0,-5 0,-5 0,-4 0,-5 0,-5 0,-5 1,-5 0,-4 1,-5 1,-4 1,-4 0,-5 2,-4 1,-4 1,-4 1,-3 1,-4 2,-4 1,-3 1,-3 2,-3 2,-3 1,-3 2,-2 2,-2 1,-2 2,-2 2,-2 2,-1 2,-1 2,-1 2,-1 2,0 2,0" /></svg>