<!DOCTYPE svg PUBLIC "-//W3C//DTD SVG 20000303 Stylable//EN" "http://www.w3.org/TR/2000/03/WD-SVG-20000303/DTD/svg-20000303-stylable.dtd"[]><svg xmlns="http://www.w3.org/2000/svg" width="999px" height="460px" viewBox="0 0 999 433"><path style="fill:#000;stroke:#4c4c4c;stroke-width:2" d="M832,25 l-10,20 15,0 10,-20 -15,0z" /><path style="fill:#e5e5dd" d="M322,176 l329,0 0,91 -329,0 0,-91z" /><path style="fill:#ccccbd" d="M322,206 l329,0 0,61 -329,0 0,-61z" /><path style="fill:#b2b29b" d="M322,242 l329,0 0,25 -329,0 0,-25z" /><path style="fill:none;stroke:#999;stroke-width:2" d="M322,176 l329,0" /><path style="fill:#4c4c3a;stroke:#4c4c4c;stroke-width:2" d="M974,267 l0,-162 -61,0 0,-60 -202,0 0,60 -60,0 0,162 323,0z" /><path style="fill:#000" d="M449,247 l95,0 0,20 -95,0 0,-20z" /><path style="fill:#ccccbd" d="M302,125 l20,-20 0,222 -20,-20 -277,0 0,-101 -21,0 0,-81 298,0z" /><path style="fill:#e5e5dd" d="M302,146 l20,-15 0,171 -20,-15 -277,0 0,-81 -21,0 0,-60 298,0z" /><path style="fill:#ccccbd" d="M302,155 l20,-14 0,151 -20,-14 -277,0 0,-72 -21,0 0,-51 298,0z" /><path style="fill:#b2b29b" d="M302,175 l20,-9 0,101 -20,-9 -277,0 0,-52 -21,0 0,-31 298,0z" /><path style="fill:#99997a" d="M302,196 l20,-5 0,50 -20,-4 -277,0 0,-31 -21,0 0,-10 298,0z" /><path style="fill:#7f7f59" d="M322,237 l0,30 -20,-9 -277,0 0,-21 297,0z" /><path style="fill:none;stroke:#4c4c4c;stroke-width:2" d="M302,307 l0,-182" /><path style="fill:none;stroke:#4c4c4c;stroke-width:2" d="M302,125 l20,-20 0,222 -20,-20 -277,0 0,-101 -21,0 0,-81 298,0" /><path style="fill:none;stroke:#4c4c4c;stroke-width:2" d="M25,206 l0,-81" /><path style="fill:#333" d="M25,257 l363,0 0,10 -363,0 0,-10z" /><path style="fill:#99998f;stroke:#4c4c4c;stroke-width:2" d="M35,418 l0,-141 949,0 0,141 -949,0z" /><path style="fill:#e5e5e5;stroke:#4c4c4c;stroke-width:2" d="M25,267 l0,40 40,0 0,-30 888,0 0,30 41,0 0,-40 -969,0z" /><path style="fill:#e5e5e5;stroke:#4c4c4c;stroke-width:2" d="M25,418 l969,0 0,10 -969,0 0,-10z" /><path style="fill:#191900" d="M65,327 l0,-50 888,0 0,50 -30,0 0,-40 -232,0 0,40 -20,0 0,-40 -303,0 0,20 -61,0 0,-20 -212,0 0,40 -30,0z" /><path style="fill:#999;stroke:#4c4c4c;stroke-width:2" d="M873,297 l0,51 -31,-21 -50,0 0,-10 50,0 31,-20z" /><path style="fill:#e5e5e5" d="M873,312 l0,21 -31,-9 -50,0 0,-3 50,0 31,-9z" /><path style="fill:#666657;stroke:#4c4c4c;stroke-width:2" d="M974,408 l0,-146 -101,0 0,146 101,0z" /><path style="fill:#bfbfbf;stroke:#4c4c4c;stroke-width:2" d="M696,353 l20,0 0,20 -20,0 0,-20z" /><path style="fill:#7f7f7f;stroke:#4c4c4c;stroke-width:2" d="M751,348 l0,-41 41,0 0,41 -41,0z" /><path style="fill:none;stroke:#fff;stroke-width:2" d="M751,348 l0,-41 41,0" /><path style="fill:#000" d="M408,338 l0,-26 101,0 0,-5 -106,0 0,31 5,0z" /><path style="fill:#4c4c3a" d="M499,338 l0,35 -30,0 0,10 -5,10 -15,0 -5,-10 0,-5 -41,0 0,-15 -20,0 0,-25 35,0 0,-21 51,0 0,21 30,0z" /><path style="fill:none;stroke:#fff;stroke-width:2" d="M383,363 l0,-25 35,0 0,-21 51,0" /><path style="fill:none;stroke:#fff;stroke-width:2" d="M469,338 l30,0" /><path style="fill:#000" d="M423,353 l86,0 0,5 -86,0 0,-5z" /><path style="fill:#000" d="M423,368 l86,0 0,5 -86,0 0,-5z" /><path style="fill:#7f7f72;stroke:#4c4c4c;stroke-width:2" d="M671,297 l0,111 -162,0 0,-111 162,0z" /><path style="fill:none;stroke:#4c4c4c;stroke-width:2" d="M509,307 l162,0" /><path style="fill:none;stroke:#4c4c4c;stroke-width:2" d="M509,398 l162,0" /><path style="fill:none;stroke:#fff;stroke-width:2" d="M509,408 l0,-111 162,0" /><path style="fill:#e5e5dd;stroke:#4c4c4c;stroke-width:2" d="M166,267 l0,-20 -61,0 0,20 61,0z" /><path style="fill:#e5e5dd;stroke:#4c4c4c;stroke-width:2" d="M307,267 l0,-20 -60,0 0,20 60,0z" /><path style="fill:#e5e5dd;stroke:#4c4c4c;stroke-width:2" d="M449,267 l0,-20 -61,0 0,20 61,0z" /><path style="fill:#e5e5dd;stroke:#4c4c4c;stroke-width:2" d="M605,267 l0,-20 -61,0 0,20 61,0z" /><path style="fill:#b2b29b;stroke:#4c4c4c;stroke-width:2" d="M126,70 l161,0 0,66 -161,0 0,-66z" /><path style="fill:#666" d="M55,75 l-10,5 10,0 0,-5z" /><path style="fill:#666" d="M55,85 l-10,5 10,0 0,-5z" /><path style="fill:#666" d="M55,95 l-10,5 10,0 0,-5z" /><path style="fill:#666" d="M55,105 l-10,6 10,0 0,-6z" /><path style="fill:#666" d="M55,115 l-10,6 10,0 0,-6z" /><path style="fill:none;stroke:#4c4c4c;stroke-width:2" d="M55,181 l0,25 76,0 0,-25 -76,0" /><path style="fill:#4c4c16;stroke:#4c4c4c;stroke-width:2" d="M55,181 l-5,-15 86,0 -5,15 -76,0z" /><path style="fill:#e5e5dd;stroke:#4c4c4c;stroke-width:2" d="M50,166 l5,-101 76,0 5,101 -86,0z" /><path style="fill:none;stroke:#4c4c4c;stroke-width:2" d="M62,156 l61,0 -2,-81" /><path style="fill:none;stroke:#fff;stroke-width:2" d="M62,156 l3,-81 56,0" /><path style="fill:none;stroke:#4c4c4c;stroke-width:2" d="M136,125 l40,0 0,-45" /><path style="fill:none;stroke:#4c4c4c;stroke-width:2" d="M186,125 l41,0 0,-45" /><path style="fill:none;stroke:#4c4c4c;stroke-width:2" d="M237,125 l40,0 0,-45" /><path style="fill:none;stroke:#fff;stroke-width:2" d="M277,80 l-40,0 0,45" /><path style="fill:none;stroke:#fff;stroke-width:2" d="M227,80 l-40,0 0,45" /><path style="fill:none;stroke:#fff;stroke-width:2" d="M176,80 l-40,0 0,45" /><path style="fill:#e5e5dd" d="M252,85 l20,0 0,10 -20,0 0,-10z" /><path style="fill:#e5e5dd" d="M186,166 l46,0 0,20 -46,0 0,-20z" /><path style="fill:#99997a;stroke:#4c4c4c;stroke-width:2" d="M115,247 l182,0 0,-5 -30,0 0,-25 -5,0 0,25 -111,0 0,-25 -5,0 0,25 -31,0 0,5z" /><path style="fill:#e5e5dd" d="M388,146 l0,-21 5,0 0,21 -5,0z" /><path style="fill:#e5e5dd" d="M600,146 l0,-21 5,0 0,21 -5,0z" /><path style="fill:#b2b29b" d="M600,191 l0,-45 5,0 0,45 -5,0z" /><path style="fill:#b2b29b" d="M388,191 l0,-45 5,0 0,45 -5,0z" /><path style="fill:#7f7f59" d="M388,247 l0,-56 5,0 0,56 -5,0z" /><path style="fill:#7f7f59" d="M600,247 l0,-56 5,0 0,56 -5,0z" /><path style="fill:none;stroke:#4c4c4c;stroke-width:2" d="M388,247 l0,-122 5,0 0,122 -5,0" /><path style="fill:none;stroke:#4c4c4c;stroke-width:2" d="M600,247 l0,-122 5,0 0,122 -5,0" /><path style="fill:#e5e5dd" d="M393,136 l207,0 0,111 -207,0 0,-111z" /><path style="fill:#ccccbd" d="M393,155 l207,0 0,92 -207,0 0,-92z" /><path style="fill:#b2b29b" d="M393,182 l207,0 0,65 -207,0 0,-65z" /><path style="fill:none;stroke:#4c4c4c;stroke-width:2" d="M393,136 l207,0 0,111 -207,0 0,-111" /><path style="fill:none;stroke:#7f7f7f;stroke-width:2" d="M393,217 l207,0" /><path style="fill:#ccc;stroke:#4c4c4c;stroke-width:2" d="M398,211 l10,0 0,36 -10,0 0,-36z" /><path style="fill:#ccc;stroke:#4c4c4c;stroke-width:2" d="M424,211 l10,0 0,36 -10,0 0,-36z" /><path style="fill:#ccc;stroke:#4c4c4c;stroke-width:2" d="M560,211 l10,0 0,36 -10,0 0,-36z" /><path style="fill:#ccc;stroke:#4c4c4c;stroke-width:2" d="M585,211 l10,0 0,36 -10,0 0,-36z" /><path style="fill:#4c4c4c;stroke:#4c4c4c;stroke-width:2" d="M701,368 l20,7 17,6 16,5 13,2 12,2 9,0 7,-1 6,-3 4,-3 3,-5 1,-6 -1,-6 -2,-8 -4,-8 -4,-8 -6,-9 0,1 0,2 0,2 0,2 0,2 0,2 0,2 0,2 3,7 2,6 1,6 0,4 -2,4 -2,3 -4,2 -4,1 -6,0 -7,0 -8,-2 -9,-2 -9,-3 -11,-5 -12,-5 -13,-6 -1,1 -2,1 -1,2 -1,1 -1,1 -1,1 -2,1 -1,2z" /><path style="fill:#ccc" d="M898,333 l-15,0 0,45 5,0 0,-30 10,0 0,-15z" /><path style="fill:#b2b2aa;stroke:#4c4c4c;stroke-width:2" d="M651,75 l141,0 0,10 -141,0 0,-10z" /><path style="fill:#7f7f7f" d="M661,75 l-10,-10 0,-51 10,-10 111,0 0,71 -111,0z" /><path style="fill:#b2b2b2" d="M661,65 l-10,-7 0,-37 10,-7 111,0 0,51 -111,0z" /><path style="fill:#e5e5e5" d="M661,50 l-10,-3 0,-15 10,-3 111,0 0,21 -111,0z" /><path style="fill:none;stroke:#4c4c4c;stroke-width:2" d="M661,75 l-10,-10 0,-51 10,-10 111,0 0,71 -111,0" /><path style="fill:none;stroke:#4c4c4c;stroke-width:2" d="M681,75 l0,-71" /><path style="fill:none;stroke:#4c4c4c;stroke-width:2" d="M751,75 l0,-71" /><path style="fill:#4c4c4c;stroke:#4c4c4c;stroke-width:2" d="M691,4 l50,0 0,41 -50,0 0,-41z" /><path style="fill:#000" d="M696,166 l101,0 0,76 -101,0 0,-76z" /><path style="fill:#000" d="M863,227 l90,0 0,20 -90,0 0,-20z" /><path style="fill:#000" d="M863,196 l90,0 0,20 -90,0 0,-20z" /><path style="fill:#bfbfbf;stroke:#4c4c4c;stroke-width:2" d="M807,206 l56,0 0,51 -56,0 0,-51z" /><path style="fill:#999;stroke:#4c4c4c;stroke-width:2" d="M807,257 l56,0 0,15 -56,0 0,-15z" /><path style="fill:#99998f;stroke:#4c4c4c;stroke-width:2" d="M661,176 l302,0 0,20 -302,0 0,-20z" /><path style="fill:#7f7f7f;stroke:#4c4c4c;stroke-width:2" d="M832,25 l41,121 20,0 -46,-121 -15,0z" /><path style="fill:#99998f;stroke:#4c4c4c;stroke-width:2" d="M661,161 l302,0 0,-10 -131,-26 -10,-40 -20,0 -10,40 -131,26 0,10z" /><path style="fill:#ccc;stroke:#4c4c4c;stroke-width:2" d="M797,125 l30,0 0,26 -30,0 0,-26z" /><path style="fill:#b2b2b2;stroke:#4c4c4c;stroke-width:2" d="M802,55 l20,0 0,60 -20,0 0,-60z" /><path style="fill:none;stroke:#4c4c4c;stroke-width:2" d="M802,90 l20,0" /><path style="fill:none;stroke:#4c4c4c;stroke-width:2" d="M802,70 l20,0" /></svg>