<!DOCTYPE svg PUBLIC "-//W3C//DTD SVG 20000303 Stylable//EN" "http://www.w3.org/TR/2000/03/WD-SVG-20000303/DTD/svg-20000303-stylable.dtd"[]><svg xmlns="http://www.w3.org/2000/svg" width="999px" height="578px" viewBox="0 0 999 553"><path style="fill:#630;stroke:#4c4c4c;stroke-width:2" d="M239,509 l522,0 0,44 -522,0 0,-44z" /><path style="fill:#7f4c00" d="M239,509 l652,0 0,-336 -326,-22 -326,0 0,358z" /><path style="fill:#4c1900" d="M683,205 l152,0 0,228 -152,0 0,-228z" /><path style="fill:#4c1900" d="M271,237 l390,0 0,284 -390,0 0,-284z" /><path style="fill:#b27f00;stroke:#4c4c4c;stroke-width:2" d="M391,227 l336,0 0,76 -336,0 0,-76z" /><path style="fill:#b27f00;stroke:#4c4c4c;stroke-width:2" d="M607,401 l120,0 0,76 -120,0 0,-76z" /><path style="fill:#333;stroke:#4c4c4c;stroke-width:2" d="M9,521 l230,0 0,32 -230,0 0,-32z" /><path style="fill:#fc0;stroke:#4c4c4c;stroke-width:2" d="M761,423 l130,0 0,76 -130,0 0,-76z" /><path style="fill:#fc0;stroke:#4c4c4c;stroke-width:2" d="M695,259 l196,0 0,164 -196,0 0,-164z" /><path style="fill:#fc0;stroke:#4c4c4c;stroke-width:2" d="M815,173 l54,0 0,86 -54,0 0,-86z" /><path style="fill:#fc0;stroke:#4c4c4c;stroke-width:2" d="M891,129 l108,0 0,370 -108,0 0,-370z" /><path style="fill:#fc0;stroke:#4c4c4c;stroke-width:2" d="M761,499 l74,0 0,54 -74,0 0,-54z" /><path style="fill:#b27f00;stroke:#4c4c4c;stroke-width:2" d="M9,129 l218,0 0,22 -218,0 0,-22z" /><path style="fill:#000;stroke:#4c4c4c;stroke-width:2" d="M629,161 l-32,22 -22,0 0,-44 12,0 10,-10 -10,-75 86,0 -22,85 -22,22z" /><path style="fill:#4c4c4c;stroke:#4c4c4c;stroke-width:2" d="M629,151 l-26,18 -16,0 4,-22 8,0 8,-8 -12,-72 66,0 -16,68 -16,16z" /><path style="fill:#fc0;stroke:#4c4c4c;stroke-width:2" d="M0,151 l239,0 0,370 -239,0 0,-370z" /><path style="fill:#000" d="M815,537 l6,-4 4,4 -4,6 -6,-6z" /><path style="fill:#000" d="M771,537 l4,-4 6,4 -6,6 -4,-6z" /><path style="fill:#000" d="M771,515 l4,-6 6,6 -6,4 -4,-4z" /><path style="fill:#000" d="M815,515 l6,-6 4,6 -4,4 -6,-4z" /><path style="fill:#4c4c4c" d="M949,219 l12,-14 13,14 -13,12 -12,-12z" /><path style="fill:#4c4c4c" d="M961,295 l13,14 -13,14 -12,-14 12,-14z" /><path style="fill:#4c4c4c" d="M961,385 l13,14 -13,12 -12,-12 12,-14z" /><path style="fill:none;stroke:#4c4c4c;stroke-width:2" d="M717,271 l152,130" /><path style="fill:none;stroke:#4c4c4c;stroke-width:2" d="M739,271 l130,110" /><path style="fill:none;stroke:#4c4c4c;stroke-width:2" d="M761,271 l108,92" /><path style="fill:none;stroke:#4c4c4c;stroke-width:2" d="M781,271 l88,74" /><path style="fill:none;stroke:#4c4c4c;stroke-width:2" d="M803,271 l66,54" /><path style="fill:none;stroke:#4c4c4c;stroke-width:2" d="M825,271 l44,36" /><path style="fill:none;stroke:#4c4c4c;stroke-width:2" d="M847,271 l22,18" /><path style="fill:none;stroke:#4c4c4c;stroke-width:2" d="M717,289 l130,112" /><path style="fill:none;stroke:#4c4c4c;stroke-width:2" d="M717,307 l108,94" /><path style="fill:none;stroke:#4c4c4c;stroke-width:2" d="M717,327 l86,74" /><path style="fill:none;stroke:#4c4c4c;stroke-width:2" d="M717,345 l64,56" /><path style="fill:none;stroke:#4c4c4c;stroke-width:2" d="M717,363 l42,38" /><path style="fill:none;stroke:#4c4c4c;stroke-width:2" d="M717,383 l22,18" /><path style="fill:none;stroke:#4c4c4c;stroke-width:2" d="M869,271 l-152,130" /><path style="fill:none;stroke:#4c4c4c;stroke-width:2" d="M847,271 l-130,110" /><path style="fill:none;stroke:#4c4c4c;stroke-width:2" d="M825,271 l-108,92" /><path style="fill:none;stroke:#4c4c4c;stroke-width:2" d="M803,271 l-86,74" /><path style="fill:none;stroke:#4c4c4c;stroke-width:2" d="M781,271 l-64,54" /><path style="fill:none;stroke:#4c4c4c;stroke-width:2" d="M761,271 l-44,36" /><path style="fill:none;stroke:#4c4c4c;stroke-width:2" d="M739,271 l-22,18" /><path style="fill:none;stroke:#4c4c4c;stroke-width:2" d="M869,289 l-130,112" /><path style="fill:none;stroke:#4c4c4c;stroke-width:2" d="M869,307 l-108,94" /><path style="fill:none;stroke:#4c4c4c;stroke-width:2" d="M869,327 l-86,74" /><path style="fill:none;stroke:#4c4c4c;stroke-width:2" d="M869,345 l-66,56" /><path style="fill:none;stroke:#4c4c4c;stroke-width:2" d="M869,363 l-44,38" /><path style="fill:none;stroke:#4c4c4c;stroke-width:2" d="M869,383 l-22,18" /><path style="fill:none;stroke:#4c4c4c;stroke-width:2" d="M817,433 l62,54" /><path style="fill:none;stroke:#4c4c4c;stroke-width:2" d="M837,433 l42,36" /><path style="fill:none;stroke:#4c4c4c;stroke-width:2" d="M859,433 l20,18" /><path style="fill:none;stroke:#4c4c4c;stroke-width:2" d="M795,433 l62,54" /><path style="fill:none;stroke:#4c4c4c;stroke-width:2" d="M773,433 l62,54" /><path style="fill:none;stroke:#4c4c4c;stroke-width:2" d="M771,451 l42,36" /><path style="fill:none;stroke:#4c4c4c;stroke-width:2" d="M771,469 l22,18" /><path style="fill:none;stroke:#4c4c4c;stroke-width:2" d="M835,433 l-64,54" /><path style="fill:none;stroke:#4c4c4c;stroke-width:2" d="M813,433 l-42,36" /><path style="fill:none;stroke:#4c4c4c;stroke-width:2" d="M791,433 l-20,18" /><path style="fill:none;stroke:#4c4c4c;stroke-width:2" d="M857,433 l-64,54" /><path style="fill:none;stroke:#4c4c4c;stroke-width:2" d="M877,433 l-62,54" /><path style="fill:none;stroke:#4c4c4c;stroke-width:2" d="M879,451 l-42,36" /><path style="fill:none;stroke:#4c4c4c;stroke-width:2" d="M879,469 l-22,18" /><path style="fill:#333;stroke:#fc0;stroke-width:2" d="M0,0 l239,0 0,129 -239,0 0,-129z" /><path style="fill:none;stroke:#fc0;stroke-width:2" d="M161,21 l22,0 0,98 -22,0 0,-98" /><path style="fill:none;stroke:#fc0;stroke-width:2" d="M195,21 l22,0 0,98 -22,0 0,-98" /><path style="fill:none;stroke:#fc0;stroke-width:2" d="M21,43 l98,0 0,64 -98,0 0,-64" /><path style="fill:#7f0000" d="M141,107 l10,0 0,12 -10,0 0,-12z" /><path style="fill:#000" d="M217,505 l6,-4 4,4 -4,4 -6,-4z" /><path style="fill:#000" d="M9,505 l6,-4 5,4 -5,4 -6,-4z" /><path style="fill:#000" d="M9,439 l6,-6 5,6 -5,4 -6,-4z" /><path style="fill:#000" d="M217,439 l6,-6 4,6 -4,4 -6,-4z" /><path style="fill:#000" d="M217,375 l6,-6 4,6 -4,4 -6,-4z" /><path style="fill:#000" d="M9,375 l6,-6 5,6 -5,4 -6,-4z" /><path style="fill:#000" d="M9,307 l6,-4 5,4 -5,6 -6,-6z" /><path style="fill:#000" d="M217,307 l6,-4 4,4 -4,6 -6,-6z" /><path style="fill:#000" d="M217,245 l6,-6 4,6 -4,4 -6,-4z" /><path style="fill:#000" d="M9,245 l6,-6 5,6 -5,4 -6,-4z" /><path style="fill:#000" d="M9,177 l6,-4 5,4 -5,4 -6,-4z" /><path style="fill:#000" d="M217,177 l6,-4 4,4 -4,4 -6,-4z" /><path style="fill:#000" d="M85,173 l4,4 -4,4 -4,-4 4,-4z" /><path style="fill:#000" d="M151,173 l6,4 -6,4 -4,-4 4,-4z" /><path style="fill:#c90;stroke:#4c4c4c;stroke-width:2" d="M97,271 l44,0 0,64 -44,0 0,-64z" /><path style="fill:#ffe57f;stroke:#4c4c4c;stroke-width:2" d="M97,271 l44,0 0,-12 -44,0 0,12z" /><path style="fill:#960;stroke:#4c4c4c;stroke-width:2" d="M97,357 l44,0 0,-22 -44,0 0,22z" /><path style="fill:#c90" d="M531,129 l0,66 -162,0 0,-66 162,0z" /><path style="fill:#c90" d="M293,63 l-22,0 10,-20 88,0 10,20 -22,0 0,164 -64,0 0,-164z" /><path style="fill:#d9ab00" d="M531,135 l0,52 -162,0 0,-52 162,0z" /><path style="fill:#d9ab00" d="M299,63 l-18,0 10,-21 70,0 8,21 -18,0 0,164 -52,0 0,-164z" /><path style="fill:#e5bf26" d="M531,141 l0,40 -162,0 0,-40 162,0z" /><path style="fill:#e5bf26" d="M305,63 l-12,0 6,-21 52,0 6,21 -12,0 0,164 -40,0 0,-164z" /><path style="fill:#f2d151" d="M531,149 l0,26 -162,0 0,-26 162,0z" /><path style="fill:#f2d151" d="M313,63 l-10,0 6,-21 34,0 4,21 -8,0 0,164 -26,0 0,-164z" /><path style="fill:#ffe57f" d="M531,155 l0,12 -162,0 0,-12 162,0z" /><path style="fill:#ffe57f" d="M319,63 l-4,0 2,-20 16,0 4,20 -6,0 0,164 -12,0 0,-164z" /><path style="fill:none;stroke:#4c4c4c;stroke-width:2" d="M293,63 l64,0" /><path style="fill:none;stroke:#4c4c4c;stroke-width:2" d="M531,129 l0,66 -162,0 0,-66 162,0" /><path style="fill:none;stroke:#4c4c4c;stroke-width:2" d="M293,63 l-22,0 10,-20 88,0 10,20 -22,0 0,164 -64,0 0,-164" /><path style="fill:#c90" d="M509,107 l0,108 -64,0 0,-108 64,0z" /><path style="fill:#c90;stroke:#4c4c4c;stroke-width:2" d="M575,119 l0,86 -44,0 0,-86 44,0z" /><path style="fill:#d9ab00" d="M575,127 l0,70 -44,0 0,-70 44,0z" /><path style="fill:#d9ab00" d="M509,117 l0,88 -64,0 0,-88 64,0z" /><path style="fill:#e5bf26" d="M575,135 l0,52 -44,0 0,-52 44,0z" /><path style="fill:#e5bf26" d="M509,129 l0,64 -64,0 0,-64 64,0z" /><path style="fill:#f2d151" d="M575,145 l0,34 -44,0 0,-34 44,0z" /><path style="fill:#f2d151" d="M509,139 l0,44 -64,0 0,-44 64,0z" /><path style="fill:#ffe57f" d="M509,151 l0,22 -64,0 0,-22 64,0z" /><path style="fill:#ffe57f" d="M575,153 l0,16 -44,0 0,-16 44,0z" /><path style="fill:none;stroke:#4c4c4c;stroke-width:2" d="M509,107 l0,108 -64,0 0,-108 64,0" /><path style="fill:#c90" d="M445,293 l54,0 0,194 -54,0 0,-194z" /><path style="fill:#c90;stroke:#4c4c4c;stroke-width:2" d="M239,271 l206,0 0,250 -206,0 0,-250z" /><path style="fill:#d4a400" d="M445,303 l54,0 0,172 -54,0 0,-172z" /><path style="fill:#d4a400" d="M239,285 l206,0 0,220 -206,0 0,-220z" /><path style="fill:#dbb000" d="M445,317 l54,0 0,146 -54,0 0,-146z" /><path style="fill:#dbb000" d="M239,301 l206,0 0,188 -206,0 0,-188z" /><path style="fill:#e3ba1a" d="M445,329 l54,0 0,122 -54,0 0,-122z" /><path style="fill:#e3ba1a" d="M239,317 l206,0 0,156 -206,0 0,-156z" /><path style="fill:#e8c433" d="M445,341 l54,0 0,98 -54,0 0,-98z" /><path style="fill:#e8c433" d="M239,333 l206,0 0,124 -206,0 0,-124z" /><path style="fill:#f0cf4d" d="M445,353 l54,0 0,74 -54,0 0,-74z" /><path style="fill:#f0cf4d" d="M239,347 l206,0 0,96 -206,0 0,-96z" /><path style="fill:#f7db66" d="M445,365 l54,0 0,50 -54,0 0,-50z" /><path style="fill:#f7db66" d="M239,363 l206,0 0,64 -206,0 0,-64z" /><path style="fill:#ffe57f" d="M445,377 l54,0 0,26 -54,0 0,-26z" /><path style="fill:#ffe57f" d="M239,379 l206,0 0,32 -206,0 0,-32z" /><path style="fill:none;stroke:#4c4c4c;stroke-width:2" d="M445,293 l54,0 0,194 -54,0 0,-194" /><path style="fill:#c90" d="M585,313 l0,56 -140,0 0,-56 140,0z" /><path style="fill:#d9ab00" d="M587,319 l0,44 -142,0 0,-44 142,0z" /><path style="fill:#e5bf26" d="M587,325 l0,32 -142,0 0,-32 142,0z" /><path style="fill:#f2d151" d="M587,329 l0,22 -142,0 0,-22 142,0z" /><path style="fill:#ffe57f" d="M585,335 l0,10 -140,0 0,-10 140,0z" /><path style="fill:none;stroke:#4c4c4c;stroke-width:2" d="M585,313 l0,56 -140,0 0,-56 140,0" /><path style="fill:none;stroke:#4c4c4c;stroke-width:2" d="M489,313 l0,56" /></svg>