<!DOCTYPE svg PUBLIC "-//W3C//DTD SVG 20000303 Stylable//EN" "http://www.w3.org/TR/2000/03/WD-SVG-20000303/DTD/svg-20000303-stylable.dtd"[]><svg xmlns="http://www.w3.org/2000/svg" width="436px" height="999px" viewBox="0 0 403 998"><path style="fill:#657fb2" d="M279,995 l-52,3 -54,0 -50,-3 -46,-8 -38,-12 -28,-14 -11,-16 0,-814 403,0 0,814 -14,16 -26,14 -38,12 -46,8z" /><path style="fill:#6b85b8" d="M273,995 l-48,3 -48,0 -48,-3 -40,-8 -36,-10 -24,-12 -12,-14 0,-820 368,0 0,820 -12,14 -24,12 -36,10 -40,8z" /><path style="fill:#708abd" d="M265,995 l-42,3 -44,0 -42,-3 -38,-6 -32,-10 -22,-12 -10,-12 0,-824 332,0 0,824 -12,12 -22,12 -30,10 -38,6z" /><path style="fill:#758fc2" d="M259,995 l-38,3 -40,0 -38,-3 -34,-6 -26,-8 -20,-10 -10,-10 0,-830 296,0 0,830 -10,10 -20,10 -28,10 -32,4z" /><path style="fill:#7a94c7" d="M251,995 l-32,3 -36,0 -32,-3 -30,-4 -24,-8 -18,-8 -8,-10 0,-834 260,0 0,834 -8,10 -18,8 -24,8 -30,4z" /><path style="fill:#7f99cc" d="M245,997 l-30,1 -28,0 -30,-1 -26,-6 -20,-4 -16,-8 -6,-8 0,-840 224,0 0,840 -8,8 -14,8 -22,6 -24,4z" /><path style="fill:#849ed1" d="M237,997 l-24,1 -24,0 -24,-1 -22,-4 -18,-4 -12,-6 -6,-6 0,-846 188,0 0,846 -6,6 -12,6 -18,4 -22,4z" /><path style="fill:#89a3d6" d="M231,997 l-20,1 -20,0 -20,-1 -16,-4 -16,-2 -10,-4 -4,-6 0,-850 152,0 0,850 -4,6 -10,4 -16,4 -16,2z" /><path style="fill:#8ea8db" d="M223,997 l-14,1 -16,0 -14,-1 -14,-2 -10,-2 -8,-2 -4,-4 0,-856 116,0 0,856 -4,4 -8,2 -10,2 -14,2z" /><path style="fill:#93ade0" d="M217,997 l-10,1 -12,0 -10,-1 -8,0 -8,-2 -6,-2 -2,0 0,-862 80,0 0,862 -2,0 -6,2 -8,2 -8,0z" /><path style="fill:#98b2e5" d="M209,997 l-6,1 -6,0 -6,-1 -4,1 -4,-1 -4,0 0,-866 44,0 0,866 -2,0 -2,0 -4,1 -6,-1z" /><path style="fill:none;stroke:#4c4c4c;stroke-width:2" d="M279,995 l-52,3 -54,0 -50,-3 -46,-8 -38,-12 -28,-14 -11,-16 0,-814 403,0 0,814 -14,16 -26,14 -38,12 -46,8" /><ellipse style="fill:#98b2e5;stroke:#4c4c4c;stroke-width:2" cx="201" cy="139" rx="201" ry="62" /><path style="fill:#324c7f" d="M403,361 l-14,16 -26,14 -38,12 -46,8 -52,4 -54,0 -50,-4 -46,-8 -38,-12 -28,-14 -11,-16 11,-6 28,14 38,10 46,10 50,4 54,0 52,-4 46,-8 38,-12 26,-14 14,6z" /><path style="fill:#324c7f" d="M403,799 l-14,16 -26,14 -38,12 -46,8 -52,4 -54,0 -50,-4 -46,-8 -38,-12 -28,-14 -11,-16 11,-6 28,14 38,12 46,8 50,4 54,0 52,-4 46,-8 38,-12 26,-14 14,6z" /><path style="fill:#324c7f" d="M403,409 l-14,16 -26,14 -38,12 -46,8 -52,4 -52,0 -52,-4 -46,-8 -38,-12 -26,-14 -13,-16 13,-6 26,14 38,10 46,10 52,4 52,0 52,-4 46,-8 38,-12 26,-14 14,6z" /><path style="fill:#324c7f" d="M403,459 l-14,14 -26,16 -38,10 -46,8 -52,4 -52,0 -52,-4 -46,-8 -38,-10 -26,-16 -13,-14 13,-8 26,14 38,12 46,8 52,4 52,0 52,-4 46,-8 38,-12 26,-14 14,8z" /><path style="fill:#324c7f" d="M403,507 l-14,16 -26,14 -38,12 -46,6 -52,6 -52,0 -52,-6 -46,-8 -38,-10 -26,-14 -13,-16 13,-8 26,16 38,10 46,8 52,6 52,0 52,-6 46,-8 38,-10 26,-16 14,8z" /><path style="fill:#324c7f" d="M403,555 l-14,16 -26,14 -38,12 -46,8 -52,4 -52,0 -52,-4 -46,-8 -38,-12 -26,-14 -13,-16 13,-6 26,14 38,12 46,8 52,4 52,0 52,-4 46,-8 38,-12 26,-14 14,6z" /><path style="fill:#324c7f" d="M403,605 l-14,14 -26,16 -38,10 -46,8 -52,4 -52,0 -52,-4 -46,-8 -38,-10 -26,-16 -13,-14 13,-8 26,14 38,12 46,8 52,4 52,0 52,-4 46,-8 38,-12 26,-14 14,8z" /><path style="fill:#324c7f" d="M403,653 l-14,16 -26,14 -38,12 -46,8 -52,4 -52,0 -52,-4 -46,-8 -38,-12 -26,-14 -13,-16 13,-6 26,14 38,10 46,10 52,4 52,0 52,-4 46,-8 38,-12 26,-14 14,6z" /><path style="fill:#324c7f" d="M403,701 l-14,16 -26,14 -38,12 -46,8 -52,4 -52,0 -52,-4 -46,-8 -38,-12 -26,-14 -13,-16 13,-6 26,14 38,12 46,8 52,4 52,0 52,-4 46,-8 38,-12 26,-14 14,6z" /><path style="fill:#324c7f" d="M403,751 l-14,14 -26,16 -38,10 -46,8 -52,6 -52,0 -52,-6 -46,-8 -38,-10 -26,-16 -13,-14 13,-8 26,16 38,10 46,8 52,4 52,0 52,-4 46,-8 38,-10 26,-16 14,8z" /><path style="fill:none;stroke:#4c4c4c;stroke-width:2" d="M11,793 l28,14 38,12 46,8 50,4 54,0 52,-4 46,-8 38,-12 26,-14" /><path style="fill:none;stroke:#4c4c4c;stroke-width:2" d="M11,355 l28,14 38,10 46,10 50,4 54,0 52,-4 46,-8 38,-12 26,-14" /><path style="fill:none;stroke:#4c4c4c;stroke-width:2" d="M13,403 l26,14 38,10 46,10 52,4 52,0 52,-4 46,-8 38,-12 26,-14" /><path style="fill:none;stroke:#4c4c4c;stroke-width:2" d="M13,451 l26,14 38,12 46,8 52,4 52,0 52,-4 46,-8 38,-12 26,-14" /><path style="fill:none;stroke:#4c4c4c;stroke-width:2" d="M13,499 l26,16 38,10 46,8 52,6 52,0 52,-6 46,-8 38,-10 26,-16" /><path style="fill:none;stroke:#4c4c4c;stroke-width:2" d="M13,549 l26,14 38,12 46,8 52,4 52,0 52,-4 46,-8 38,-12 26,-14" /><path style="fill:none;stroke:#4c4c4c;stroke-width:2" d="M13,597 l26,14 38,12 46,8 52,4 52,0 52,-4 46,-8 38,-12 26,-14" /><path style="fill:none;stroke:#4c4c4c;stroke-width:2" d="M13,647 l26,14 38,10 46,10 52,4 52,0 52,-4 46,-8 38,-12 26,-14" /><path style="fill:none;stroke:#4c4c4c;stroke-width:2" d="M13,695 l26,14 38,12 46,8 52,4 52,0 52,-4 46,-8 38,-12 26,-14" /><path style="fill:none;stroke:#4c4c4c;stroke-width:2" d="M13,743 l26,16 38,10 46,8 52,4 52,0 52,-4 46,-8 38,-10 26,-16" /><path style="fill:none;stroke:#98b2e5;stroke-width:2" d="M403,799 l-14,16 -26,14 -38,12 -46,8 -52,4 -54,0 -50,-4 -46,-8 -38,-12 -28,-14 -11,-16" /><path style="fill:none;stroke:#98b2e5;stroke-width:2" d="M403,361 l-14,16 -26,14 -38,12 -46,8 -52,4 -54,0 -50,-4 -46,-8 -38,-12 -28,-14 -11,-16" /><path style="fill:none;stroke:#98b2e5;stroke-width:2" d="M403,409 l-14,16 -26,14 -38,12 -46,8 -52,4 -52,0 -52,-4 -46,-8 -38,-12 -26,-14 -13,-16" /><path style="fill:none;stroke:#98b2e5;stroke-width:2" d="M403,459 l-14,14 -26,16 -38,10 -46,8 -52,4 -52,0 -52,-4 -46,-8 -38,-10 -26,-16 -13,-14" /><path style="fill:none;stroke:#98b2e5;stroke-width:2" d="M403,507 l-14,16 -26,14 -38,12 -46,6 -52,6 -52,0 -52,-6 -46,-8 -38,-10 -26,-14 -13,-16" /><path style="fill:none;stroke:#98b2e5;stroke-width:2" d="M403,555 l-14,16 -26,14 -38,12 -46,8 -52,4 -52,0 -52,-4 -46,-8 -38,-12 -26,-14 -13,-16" /><path style="fill:none;stroke:#98b2e5;stroke-width:2" d="M403,605 l-14,14 -26,16 -38,10 -46,8 -52,4 -52,0 -52,-4 -46,-8 -38,-10 -26,-16 -13,-14" /><path style="fill:none;stroke:#98b2e5;stroke-width:2" d="M403,653 l-14,16 -26,14 -38,12 -46,8 -52,4 -52,0 -52,-4 -46,-8 -38,-12 -26,-14 -13,-16" /><path style="fill:none;stroke:#98b2e5;stroke-width:2" d="M403,701 l-14,16 -26,14 -38,12 -46,8 -52,4 -52,0 -52,-4 -46,-8 -38,-12 -26,-14 -13,-16" /><path style="fill:none;stroke:#98b2e5;stroke-width:2" d="M403,751 l-14,14 -26,16 -38,10 -46,8 -52,6 -52,0 -52,-6 -46,-8 -38,-10 -26,-16 -13,-14" /><path style="fill:#657fb2" d="M121,145 l0,-112 90,-22 0,90 -90,44z" /><path style="fill:#657fb2" d="M313,189 l0,-112 90,-22 0,90 -90,44z" /><path style="fill:#7f99cc" d="M121,145 l0,-112 -100,-12 0,102 100,22z" /><path style="fill:#7f99cc" d="M313,189 l0,-112 -102,-10 0,100 102,22z" /><path style="fill:#98b2e5" d="M211,11 l-90,22 -100,-12 78,-21 112,11z" /><path style="fill:#98b2e5" d="M403,55 l-90,22 -102,-10 80,-24 112,12z" /><path style="fill:none;stroke:#4c4c4c;stroke-width:2" d="M21,111 l0,-90 78,-21 112,11 0,56" /><path style="fill:none;stroke:#4c4c4c;stroke-width:2" d="M211,67 l80,-24 112,12 0,90" /></svg>