<!DOCTYPE svg PUBLIC "-//W3C//DTD SVG 20000303 Stylable//EN" "http://www.w3.org/TR/2000/03/WD-SVG-20000303/DTD/svg-20000303-stylable.dtd"[]><svg xmlns="http://www.w3.org/2000/svg" width="381px" height="999px" viewBox="0 0 344 999"><path style="fill:#ababab;stroke:#4c4c4c;stroke-width:2" d="M183,454 l36,0 0,545 -36,0 0,-545z" /><path style="fill:#ababab;stroke:#4c4c4c;stroke-width:2" d="M235,433 l0,15 -8,12 -22,5 -30,-5 -7,-11 0,-16 13,-5 16,-2 20,0 18,7z" /><path style="fill:#ababab;stroke:#4c4c4c;stroke-width:2" d="M222,416 l0,19 -6,4 -7,1 -8,1 -9,-1 -7,-1 -4,-2 0,-21 41,0 0,0z" /><path style="fill:#ababab;stroke:#4c4c4c;stroke-width:2" d="M295,0 l49,0 0,382 -49,36 -3,-418 3,0z" /><path style="fill:#ababab;stroke:#4c4c4c;stroke-width:2" d="M37,0 l260,0 0,418 -260,0 0,-418z" /><path style="fill:#fff;stroke:#4c4c4c;stroke-width:2" d="M206,490 l8,-3 0,512 -8,0 0,-509z" /><path style="fill:none;stroke:#4c4c4c;stroke-width:2" d="M205,447 l-30,-6 0,19" /><path style="fill:none;stroke:#4c4c4c;stroke-width:2" d="M175,441 l-7,-9 0,17" /><path style="fill:none;stroke:#4c4c4c;stroke-width:2" d="M235,433 l-8,9" /><path style="fill:none;stroke:#4c4c4c;stroke-width:2" d="M227,442 l-22,5" /><path style="fill:none;stroke:#4c4c4c;stroke-width:2" d="M227,458 l0,-16 -22,5 0,18" /><path style="fill:#000;stroke:#4c4c4c;stroke-width:2" d="M207,248 l54,0 0,94 -54,0 0,-94z" /><path style="fill:#ababab;stroke:#4c4c4c;stroke-width:2" d="M162,19 l7,0 6,1 7,0 6,2 6,1 5,2 6,2 6,3 5,2 6,3 5,4 5,4 5,4 4,4 5,4 4,5 4,4 4,6 4,5 3,5 4,6 2,6 3,6 3,6 2,6 2,7 1,6 2,7 1,7 1,7 0,7 1,7 -1,7 0,7 -1,7 -1,7 -2,7 -1,6 -2,7 -2,6 -3,6 -3,6 -2,6 -4,5 0,104 -13,12 0,-97 -9,9 -8,10 -10,8 -10,7 -17,8 -29,0 -25,-275 5,-1 7,0 6,-1z" /><ellipse style="fill:#000;stroke:#4c4c4c;stroke-width:2" cx="155" cy="160" rx="121" ry="140" /><path style="fill:#ababab;stroke:#4c4c4c;stroke-width:2" d="M72,285 l161,0 7,2 7,4 3,7 2,8 0,45 -5,2 -188,-62 6,-4 7,-2z" /><path style="fill:#ababab;stroke:#4c4c4c;stroke-width:2" d="M68,287 l161,0 7,2 6,4 4,7 1,8 1,45 -199,0 0,-45 2,-8 4,-7 5,-4 8,-2z" /><path style="fill:#d9d9d9;stroke:#4c4c4c;stroke-width:2" d="M153,21 l12,1 12,2 11,3 11,5 11,6 10,6 9,9 8,9 8,9 7,11 6,11 5,13 4,12 3,14 2,13 1,15 -1,13 -2,14 -3,13 -4,13 -5,12 -6,11 -7,11 -8,10 -8,9 -9,8 -10,7 -11,6 -11,4 -11,6 -16,4 -20,4 -11,0 -11,0 -10,-1 -9,0 -9,-2 -8,-2 -8,-4 -8,-3 -8,-5 -7,-5 -6,-6 -7,-7 -6,-8 -6,-8 -7,-10 -6,-10 -3,-9 -4,-9 -2,-9 -3,-10 -1,-11 -1,-12 0,-12 0,-13 1,-10 1,-9 3,-10 3,-9 4,-8 3,-8 4,-8 3,-6 4,-7 4,-6 4,-5 5,-5 4,-5 5,-4 5,-4 6,-3 5,-4 5,-3 11,-5 12,-3 12,-3 12,-2 13,-1 12,0 12,0z" /><path style="fill:#ababab;stroke:#4c4c4c;stroke-width:2" d="M38,205 l0,-126 12,-16 14,-6 1,196 -27,-48z" /><path style="fill:#fff;stroke:#4c4c4c;stroke-width:2" d="M7,166 l0,12 2,13 3,13 3,13 5,12 6,12 7,11 8,11 9,9 11,9 11,6 12,6 13,4 15,2 15,0 17,-2 16,-6 11,-6 5,-6 -135,-88 -7,-9 -7,-7 -9,-5 -11,-4z" /><ellipse style="fill:#000;stroke:#4c4c4c;stroke-width:2" cx="157" cy="159" rx="108" ry="128" /><path style="fill:#ababab;stroke:#4c4c4c;stroke-width:2" d="M134,38 l2,0 3,0 3,0 2,0 3,1 2,0 2,0 3,0 2,1 2,0 2,1 3,0 2,1 3,1 2,1 2,0 2,1 3,2 3,1 3,2 3,1 3,2 2,2 3,2 3,1 2,3 2,1 2,2 3,3 2,2 2,3 2,2 2,3 2,2 2,3 2,2 1,3 1,3 2,3 1,3 1,2 1,3 1,2 1,3 1,3 0,3 1,3 1,4 0,2 0,3 -1,2 -1,3 -1,2 -2,3 -2,2 -3,2 -2,2 -3,1 -2,1 -2,1 -4,0 -2,1 -2,1 -3,0 -3,1 -2,0 -3,1 -3,0 -3,0 -2,0 -2,0 -3,1 -4,0 -2,0 -3,0 -2,0 -3,0 -2,0 -2,1 -3,0 -2,0 -2,0 -3,0 -2,0 -3,0 -2,0 -3,0 -2,0 -2,0 -3,0 -2,0 -3,0 -2,0 -3,0 -3,0 -2,0 -3,0 -2,0 -2,0 -3,0 -2,0 -3,0 -2,0 -2,0 -2,0 -3,0 -2,0 -2,0 -2,0 -2,0 -4,0 -3,0 -3,0 -3,-1 -3,0 -2,0 -3,0 -3,0 -2,-1 -3,0 -2,-1 -2,0 -2,-1 -3,-1 -3,-1 -2,-1 -2,-1 -2,-2 -3,-2 -1,-3 -1,-3 -1,-2 -1,-3 0,-2 0,-3 0,-3 0,-3 1,-4 1,-3 0,-2 1,-3 1,-3 2,-3 1,-3 1,-3 1,-2 2,-3 1,-2 2,-3 2,-3 2,-2 2,-3 2,-2 2,-2 2,-2 3,-3 1,-2 3,-1 2,-3 3,-2 3,-1 2,-2 3,-2 3,-2 3,-1 3,-1 4,-2 2,-1 3,-1 2,0 3,-1 2,-1 2,-1 3,0 2,0 2,-1 3,0 2,0 2,-1 3,0 3,0 2,0 3,0 1,0z" /><ellipse style="fill:#ababab;stroke:#4c4c4c;stroke-width:2" cx="106" cy="81" rx="17" ry="19" /><circle style="fill:#ababab;stroke:#4c4c4c;stroke-width:2" cx="77" cy="100" r="18" /><ellipse style="fill:#ababab;stroke:#4c4c4c;stroke-width:2" cx="173" cy="100" rx="17" ry="19" /><circle style="fill:#ababab;stroke:#4c4c4c;stroke-width:2" cx="142" cy="80" r="17" /><path style="fill:none;stroke:#4c4c4c;stroke-width:2" d="M64,93 l12,8" /><path style="fill:none;stroke:#4c4c4c;stroke-width:2" d="M106,81 l15,0" /><path style="fill:none;stroke:#4c4c4c;stroke-width:2" d="M142,79 l14,6" /><path style="fill:none;stroke:#4c4c4c;stroke-width:2" d="M160,109 l14,-9" /><path style="fill:#ababab;stroke:#4c4c4c;stroke-width:2" d="M44,127 l3,1 1,3 -1,4 -3,1 -3,-1 -2,-4 2,-3 3,-1z" /><path style="fill:#ababab;stroke:#4c4c4c;stroke-width:2" d="M125,137 l3,2 1,3 -1,4 -3,1 -4,-1 -1,-4 1,-3 4,-2z" /><path style="fill:#ababab;stroke:#4c4c4c;stroke-width:2" d="M220,123 l3,1 1,3 -1,4 -3,1 -3,-1 -2,-4 2,-3 3,-1z" /><path style="fill:#ababab;stroke:#4c4c4c;stroke-width:2" d="M116,200 l-5,-10 -2,-7 -5,-6 -3,-5 -6,-9 -9,-6 -10,-4 -11,-2 -11,0 -11,3 -8,6 -6,8 -3,14 0,8 3,10 3,10 5,11 6,10 7,10 9,8 10,6 10,4 7,0 0,-11 -10,-4 -8,-6 -7,-7 -6,-7 -4,-8 -4,-9 -3,-9 -3,-10 0,-7 3,-9 4,-4 6,-2 12,0 6,1 6,3 5,4 4,4 6,5 6,7 6,10 11,0z" /><path style="fill:#ababab;stroke:#4c4c4c;stroke-width:2" d="M160,153 l-7,1 -6,3 -6,4 -6,5 -4,6 -4,7 -2,8 -3,14 10,1 5,-17 4,-7 5,-8 5,-4 6,-2 8,1 12,3 8,6 5,8 2,11 0,11 -2,11 -4,11 -3,8 -6,8 -6,2 -6,1 -14,2 -2,13 17,-2 9,-1 9,-7 6,-8 5,-7 4,-9 3,-9 3,-10 1,-10 -1,-11 -3,-9 -4,-8 -6,-6 -8,-6 -9,-3 -5,0 -10,-1z" /><path style="fill:#ffff14;stroke:#4c4c4c;stroke-width:2" d="M80,196 l70,0 8,2 7,5 5,7 2,9 0,3 -2,8 -5,8 -7,4 -8,2 -70,1 -8,-2 -7,-5 -5,-7 -1,-9 0,-3 1,-9 5,-7 7,-5 8,-2z" /><path style="fill:none;stroke:#4c4c4c;stroke-width:2" d="M69,235 l89,0" /><path style="fill:#000;stroke:#4c4c4c;stroke-width:2" d="M114,218 l4,2 2,4 -2,4 -4,1 -5,-1 -2,-4 2,-4 5,-2z" /><path style="fill:#fff;stroke:#4c4c4c;stroke-width:2" d="M74,244 l81,0 0,26 -81,0 0,-26z" /><path style="fill:#000;stroke:#4c4c4c;stroke-width:2" d="M9,117 l-3,14 -2,14 -1,13 0,13 1,13 2,12 3,12 3,10 4,11 5,9 5,9 6,8 5,8 6,6 6,6 6,5 -7,-8 -7,-8 -6,-9 -6,-9 -5,-9 -5,-10 -4,-10 -3,-10 -3,-11 -2,-12 -1,-11 -1,-12 1,-12 1,-12 2,-12 3,-12 -3,4z" /><path style="fill:#ababab;stroke:#4c4c4c;stroke-width:2" d="M188,41 l2,1 2,1 2,1 3,1 2,2 2,1 3,2 3,2 2,2 2,1 3,2 2,2 2,2 2,2 2,2 3,3 1,1 3,3 2,2 1,3 2,2 2,3 2,2 1,3 2,2 2,4 0,1 2,2 1,3 1,2 1,2 1,2 1,3 0,2 1,2 1,3 1,2 1,3 0,2 1,3 0,3 1,2 0,3 1,3 0,2 1,3 0,3 0,2 0,3 0,3 1,3 -1,3 0,3 0,3 0,2 0,3 0,3 0,2 -1,3 -2,16 -1,-2 0,-3 0,-3 0,-2 0,-3 0,-2 0,-3 0,-2 0,-3 0,-2 0,-2 0,-2 0,-2 -1,-3 0,-3 0,-2 0,-3 -1,-2 0,-3 -1,-3 0,-3 -1,-2 0,-3 -1,-3 -1,-2 0,-3 -1,-2 0,-3 -2,-2 0,-3 -1,-2 -1,-2 -1,-3 -1,-3 -1,-3 -2,-3 -1,-2 -2,-3 -1,-2 -2,-3 -1,-3 -1,-1 -2,-3 -2,-2 -1,-3 -2,-2 -2,-2 -2,-3 -2,-2 -2,-3 -2,-2 -2,-2 -3,-2 -2,-3 -2,-2 -3,-2 -2,-2 -2,-3 -3,-2 -2,-2 -2,-2 -2,-2z" /><path style="fill:none;stroke:#4c4c4c;stroke-width:2" d="M154,296 l-11,3 -11,3 -12,1 -13,-1 -11,-3 -11,-3 -11,-5 -11,-6 -9,-6 -9,-9 -8,-8 -8,-11 -6,-10 -6,-11 -5,-12 -4,-13 -3,-13 -2,-14 0,-14 0,-14 2,-14 3,-13 4,-13 5,-12 6,-11 6,-11 8,-9 8,-10 9,-8 9,-7 11,-5 11,-6 11,-3 11,-2 13,0" /><path style="fill:#fff;stroke:#4c4c4c;stroke-width:2" d="M41,66 l-2,1 -4,4 -2,3 -2,3 -3,3 -2,2 -2,3 -1,3 -2,4 -1,2 -1,4 -2,3 -1,3 -1,3 -1,4 -1,3 -5,20 1,-2 3,-7 2,-4 2,-4 1,-4 2,-5 2,-4 2,-4 2,-4 2,-5 2,-4 2,-4 2,-4 2,-4 3,-5 3,-4z" /><path style="fill:#fff;stroke:#4c4c4c;stroke-width:2" d="M135,22 l-19,1 -21,4 13,-1 11,1 12,0 9,2 10,2 9,2 8,4 8,4 -7,-7 -10,-6 -11,-4 -12,-2z" /><path style="fill:#fff;stroke:#4c4c4c;stroke-width:2" d="M201,67 l12,21 8,21 6,20 3,19 1,19 -1,17 -3,17 -5,15 -6,15 -7,13 -8,12 -9,11 -9,10 -10,8 -9,6 -10,5 14,-4 14,-7 12,-10 11,-11 10,-13 9,-14 7,-16 6,-17 3,-17 1,-18 0,-18 -3,-18 -5,-17 -8,-18 -10,-16 -14,-15z" /><path style="fill:#fff;stroke:#4c4c4c;stroke-width:2" d="M258,196 l0,-2 1,-3 0,-3 1,-2 0,-3 1,-2 0,-3 1,-2 0,-3 0,-3 0,-2 0,-3 0,-3 0,-2 0,-3 0,-3 0,-3 0,-3 0,-3 0,-2 0,-3 -1,-3 0,-3 -1,-3 0,-3 -1,-3 0,-2 -1,-3 -1,-3 -1,-2 -1,-3 -7,-13 -4,-5 1,3 2,3 0,3 1,2 1,3 1,3 1,2 1,3 1,3 1,3 0,2 0,3 1,2 0,3 1,2 0,3 0,3 0,2 1,3 0,3 0,3 0,2 0,3 0,3 0,3 0,3 0,1 0,3 0,3 -1,3 0,2 0,3 0,2 -1,3 0,3 0,2 -1,3 0,1 -1,3 0,3 -1,3 -1,2 0,3 -1,3 -1,2 4,-7 5,-10z" /></svg>