<!DOCTYPE svg PUBLIC "-//W3C//DTD SVG 20000303 Stylable//EN" "http://www.w3.org/TR/2000/03/WD-SVG-20000303/DTD/svg-20000303-stylable.dtd"[]><svg xmlns="http://www.w3.org/2000/svg" width="999px" height="802px" viewBox="0 0 999 791"><path style="fill:#999" d="M158,599 l0,-296 201,0 0,296 -201,0z" /><path style="fill:#000" d="M158,299 l-2,4 0,296 4,0 0,-296 -2,4 0,-8 -2,0 0,4z" /><path style="fill:#000" d="M361,303 l-2,-4 -201,0 0,8 201,0 -2,-4 4,0 0,-4 -2,0z" /><path style="fill:#000" d="M359,603 l2,-4 0,-296 -4,0 0,296 2,-4 0,8 2,0 0,-4z" /><path style="fill:#000" d="M156,599 l2,4 201,0 0,-8 -201,0 2,4 -4,0 0,4 2,0z" /><path style="fill:#666;stroke:#4c4c4c;stroke-width:2" d="M307,600 l-148,0 0,-53 121,0 12,3 10,7 4,5 1,8 0,30z" /><path style="fill:#666;stroke:#4c4c4c;stroke-width:2" d="M10,600 l148,0 0,-53 -121,0 -12,3 -10,7 -4,5 -1,8 0,30z" /><path style="fill:#b2b2b2;stroke:#4c4c4c;stroke-width:2" d="M211,791 l-21,-646 -43,0 -21,646 85,0z" /><path style="fill:#e5e5e5" d="M182,791 l-7,-634 -13,0 -7,634 27,0z" /><path style="fill:#e5e5e5;stroke:#4c4c4c;stroke-width:2" d="M909,666 l-436,0 8,-20 8,-21 7,-22 6,-23 6,-22 6,-25 4,-24 5,-25 3,-25 3,-25 2,-28 3,-26 1,-27 0,-27 0,-28 -1,-27 -3,-27 -2,-26 -3,-26 -3,-26 -4,-25 -5,-26 -5,-23 -6,-24 -6,-23 -6,-22 16,-7 21,-6 25,-4 26,-2 35,-2 37,-1 40,-1 40,1 38,1 33,1 27,2 24,4 21,7 16,7 -6,22 -6,23 -6,24 -5,23 -4,26 -5,25 -4,26 -2,26 -2,26 -2,27 0,27 -1,28 1,27 0,27 2,26 2,28 3,25 4,25 4,25 6,24 4,25 6,22 7,23 7,22 8,21 8,20z" /><path style="fill:#fff" d="M858,659 l-334,0 6,-20 6,-20 5,-22 5,-22 5,-22 4,-24 4,-24 3,-24 3,-25 2,-24 1,-27 3,-26 0,-26 0,-27 0,-28 0,-26 -3,-26 -1,-26 -2,-26 -3,-25 -3,-25 -4,-24 -3,-23 -5,-23 -4,-22 -6,-23 13,-7 16,-5 19,-4 21,-2 26,-3 28,0 31,-2 31,2 28,0 27,2 20,2 18,4 16,6 13,7 -5,23 -5,22 -4,23 -4,23 -3,24 -4,25 -2,25 -2,26 -2,26 -1,26 -1,26 0,28 0,27 1,26 1,26 2,27 2,24 3,25 3,24 4,24 4,24 4,22 5,22 6,22 6,20 6,20z" /><path style="fill:#ccc;stroke:#4c4c4c;stroke-width:2" d="M338,769 l0,-251 0,-6 2,-14 2,-13 3,-13 6,-14 6,-12 9,-12 10,-11 8,-8 7,-6 9,-7 11,-6 10,-5 11,-4 10,-2 13,-4 13,0 16,-1 17,1 15,4 13,5 12,6 11,8 13,9 10,10 9,11 7,8 8,15 6,12 4,13 3,12 2,11 0,9 0,255 -276,0z" /><path style="fill:none;stroke:#4c4c4c;stroke-width:2" d="M614,515 l-275,0" /><path style="fill:#b2b2b2;stroke:#4c4c4c;stroke-width:2" d="M466,780 l21,0 0,-413 -21,0 0,413z" /><path style="fill:#999;stroke:#4c4c4c;stroke-width:2" d="M423,662 l329,0 0,-95 -329,0 0,95z" /><path style="fill:#ccc;stroke:#4c4c4c;stroke-width:2" d="M999,662 l-117,0 0,-32 -414,0 -2,150 530,0 3,-118z" /><path style="fill:#666;stroke:#4c4c4c;stroke-width:2" d="M731,588 l-286,0 0,22 286,0 0,-22z" /><path style="fill:#e5e5e5;stroke:#4c4c4c;stroke-width:2" d="M0,599 l476,0 0,192 -476,0 0,-192z" /><path style="fill:#333;stroke:#4c4c4c;stroke-width:2" d="M53,716 l31,0 0,43 -31,0 0,-43z" /><path style="fill:#333;stroke:#4c4c4c;stroke-width:2" d="M138,716 l31,0 0,43 -31,0 0,-43z" /><path style="fill:#333;stroke:#4c4c4c;stroke-width:2" d="M223,716 l31,0 0,43 -31,0 0,-43z" /><path style="fill:#333;stroke:#4c4c4c;stroke-width:2" d="M307,716 l31,0 0,43 -31,0 0,-43z" /><path style="fill:#333;stroke:#4c4c4c;stroke-width:2" d="M392,716 l31,0 0,43 -31,0 0,-43z" /><path style="fill:#999;stroke:#4c4c4c;stroke-width:2" d="M53,674 l31,0 0,42 -31,0 0,-42z" /><path style="fill:#999;stroke:#4c4c4c;stroke-width:2" d="M138,674 l31,0 0,42 -31,0 0,-42z" /><path style="fill:#999;stroke:#4c4c4c;stroke-width:2" d="M223,674 l31,0 0,42 -31,0 0,-42z" /><path style="fill:#999;stroke:#4c4c4c;stroke-width:2" d="M307,674 l31,0 0,42 -31,0 0,-42z" /><path style="fill:#999;stroke:#4c4c4c;stroke-width:2" d="M392,674 l31,0 0,42 -31,0 0,-42z" /><path style="fill:#4c4c4c;stroke:#4c4c4c;stroke-width:2" d="M139,188 l62,0 0,13 -62,0 0,-13z" /><path style="fill:#4c4c4c;stroke:#4c4c4c;stroke-width:2" d="M126,491 l82,0 0,13 -82,0 0,-13z" /></svg>