<!DOCTYPE svg PUBLIC "-//W3C//DTD SVG 20000303 Stylable//EN" "http://www.w3.org/TR/2000/03/WD-SVG-20000303/DTD/svg-20000303-stylable.dtd"[]><svg xmlns="http://www.w3.org/2000/svg" width="999px" height="581px" viewBox="0 0 998 556"><path style="fill:#e1e1e1;stroke:#4c4c4c;stroke-width:2" d="M0,556 l0,-26 7,0 7,-1 7,-2 7,-2 6,-2 7,-4 6,-4 6,-4 7,-5 5,-6 6,-7 6,-6 5,-8 5,-8 5,-9 5,-9 4,-11 5,-10 4,-11 4,-12 4,-13 4,-13 4,-13 3,-14 3,-15 3,-16 4,-16 2,-17 3,-17 2,-17 3,-19 2,-19 0,-5 0,-5 1,-6 0,-7 0,-6 0,-8 0,-8 0,-8 0,-9 0,-9 0,-9 -1,-9 0,-9 -1,-9 -1,-9 -1,-9 -1,-9 -2,-9 -1,-9 -2,-9 -2,-9 -2,-9 -2,-9 -2,-9 6,-3 6,-2 6,-3 7,-2 7,-2 7,-2 8,-2 8,-2 8,-1 9,-1 10,-1 9,-1 10,-1 10,0 11,0 11,0 11,0 11,0 10,0 10,1 10,1 10,1 9,1 9,1 9,2 8,2 8,2 8,2 8,2 7,3 6,2 7,3 -2,7 -2,7 -2,7 -2,9 -2,8 -1,9 -2,10 -1,10 -1,11 -1,10 -1,12 -1,12 0,12 0,14 -1,13 0,14 0,7 0,7 1,7 0,7 0,7 0,8 1,7 1,7 0,7 1,7 1,8 1,7 0,7 2,8 1,7 1,8 1,7 1,7 1,7 2,8 1,7 2,7 2,7 1,7 2,8 2,6 2,7 2,7 2,6 2,7 2,7 3,6 2,7 2,6 3,6 2,6 3,6 3,6 2,5 3,6 3,5 3,5 3,4 3,5 4,5 3,4 3,4 3,4 8,8 7,6 7,6 8,5 8,3 8,3 8,1 9,1 2,-1 2,-1 2,0 1,0 0,26 -542,0z" /><path style="fill:#e1e1e1;stroke:#4c4c4c;stroke-width:2" d="M568,556 l0,-20 9,0 8,-2 8,-3 8,-3 7,-5 7,-6 6,-6 6,-8 3,-4 3,-5 3,-5 3,-4 2,-5 3,-5 2,-5 3,-6 2,-5 2,-6 2,-6 2,-6 2,-6 2,-6 2,-6 1,-7 2,-6 2,-7 1,-7 1,-7 2,-7 1,-7 2,-7 1,-8 1,-7 1,-8 1,-7 1,-8 1,-7 1,-8 1,-8 1,-8 1,-9 0,-9 1,-8 0,-7 1,-7 0,-6 0,-5 0,-5 0,-9 0,-8 0,-9 -1,-8 0,-8 -1,-7 0,-8 -1,-7 -2,-7 0,-6 -2,-7 -1,-5 -1,-6 -2,-6 -1,-5 -2,-5 4,-2 5,-2 4,-2 5,-1 6,-2 5,-2 6,-1 6,-1 7,-1 6,-1 7,-1 7,0 8,-1 7,0 8,0 8,0 9,0 8,0 9,0 8,1 7,0 8,1 8,1 7,1 6,1 7,1 7,2 6,2 6,1 6,2 5,2 6,2 -2,7 -2,6 -1,7 -2,7 -1,7 -1,7 -1,8 -2,7 0,8 -1,8 -1,8 -1,7 -1,9 0,8 -1,8 0,9 1,7 1,7 0,7 1,6 0,6 0,5 1,4 0,4 1,12 2,12 1,12 2,12 2,11 3,11 2,11 3,10 2,11 3,10 3,10 4,10 3,9 4,9 3,9 4,9 5,8 4,8 4,8 4,6 5,7 5,5 5,5 5,5 6,4 5,3 6,4 6,2 5,2 7,1 6,1 6,0 0,20 -430,0z" /></svg>