<!DOCTYPE svg PUBLIC "-//W3C//DTD SVG 20000303 Stylable//EN" "http://www.w3.org/TR/2000/03/WD-SVG-20000303/DTD/svg-20000303-stylable.dtd"[]><svg xmlns="http://www.w3.org/2000/svg" width="647px" height="999px" viewBox="0 0 626 999"><path style="fill:#ccc" d="M42,42 l541,0 0,917 -541,0 0,-917z" /><path style="fill:#999" d="M0,999 l42,-40 541,0 0,-917 43,-42 0,999 -626,0z" /><path style="fill:#e5e5e5" d="M626,0 l-43,42 -541,0 0,917 -42,40 0,-999 626,0z" /><path style="fill:none;stroke:#4c4c4c;stroke-width:2" d="M0,0 l626,0 0,999 -626,0 0,-999" /><circle style="fill:#ccc;stroke:#4c4c4c;stroke-width:2" cx="313" cy="500" r="21" /><path style="fill:#666;stroke:#4c4c4c;stroke-width:2" d="M292,495 l43,0 0,8 -43,0 0,-8z" /><path style="fill:#e5e5e5;stroke:#7f7f7f;stroke-width:2" d="M444,125 l-263,0 -4,7 -4,8 -4,9 -3,8 -3,9 -3,9 -2,9 -3,9 -2,9 -2,10 -1,10 -1,10 -2,9 0,10 -1,10 0,10 0,10 1,9 0,10 2,9 1,9 1,10 2,9 2,9 3,9 2,9 3,9 3,9 3,8 4,9 4,8 4,8 263,0 5,-8 4,-8 3,-7 4,-9 3,-9 3,-8 2,-10 3,-9 2,-9 1,-10 2,-9 1,-9 1,-10 1,-10 0,-9 0,-10 0,-10 0,-10 -1,-9 -1,-10 -1,-10 -2,-9 -1,-10 -2,-9 -3,-9 -2,-9 -3,-9 -3,-9 -4,-9 -3,-8 -4,-8 -5,-8z" /><path style="fill:#000;stroke:#4c4c4c;stroke-width:2" d="M220,173 l43,0 0,130 -43,0 0,-130z" /><path style="fill:#999;stroke:#4c4c4c;stroke-width:2" d="M212,311 l8,-8 0,-130 43,0 8,-8 -59,0 0,146z" /><path style="fill:none;stroke:#4c4c4c;stroke-width:2" d="M212,165 l59,0 0,146 -59,0 0,-146" /><path style="fill:#999" d="M332,359 l-5,5 -29,24 -8,6 0,-35 0,-5 2,-4 2,-3 2,-3 4,-3 3,-1 4,-2 4,0 5,0 4,2 4,1 3,3 2,3 2,3 1,4 0,5z" /><path style="fill:#000;stroke:#4c4c4c;stroke-width:2" d="M327,359 l0,29 -29,0 0,-29 0,-3 1,-3 2,-2 2,-3 2,-2 2,-2 2,0 2,-1 3,1 3,0 3,2 2,2 2,3 2,2 1,3 0,3z" /><path style="fill:none;stroke:#4c4c4c;stroke-width:2" d="M332,359 l0,35 -42,0 0,-35 0,-5 2,-4 2,-3 2,-3 4,-3 3,-1 4,-2 4,0 5,0 4,2 4,1 3,3 2,3 2,3 1,4 0,5" /><path style="fill:#000;stroke:#4c4c4c;stroke-width:2" d="M362,173 l42,0 0,130 -42,0 0,-130z" /><path style="fill:#999;stroke:#4c4c4c;stroke-width:2" d="M354,311 l8,-8 0,-130 42,0 8,-8 -58,0 0,146z" /><path style="fill:none;stroke:#4c4c4c;stroke-width:2" d="M354,165 l58,0 0,146 -58,0 0,-146" /><path style="fill:#e5e5e5;stroke:#7f7f7f;stroke-width:2" d="M444,583 l-263,0 -4,8 -4,8 -4,8 -3,8 -3,9 -3,9 -2,9 -3,9 -2,9 -2,10 -1,10 -1,10 -2,10 0,10 -1,10 0,10 0,9 1,10 0,9 2,10 1,9 1,10 2,9 2,9 3,10 2,8 3,10 3,8 3,8 4,9 4,8 4,7 263,3 5,-8 4,-8 3,-8 4,-9 3,-9 3,-9 2,-9 3,-9 2,-10 1,-9 2,-10 1,-10 1,-10 1,-9 0,-10 0,-9 0,-10 0,-10 -1,-10 -1,-10 -1,-10 -2,-9 -1,-9 -2,-10 -3,-9 -2,-9 -3,-9 -3,-9 -4,-8 -3,-9 -4,-8 -5,-8z" /><path style="fill:#000;stroke:#4c4c4c;stroke-width:2" d="M220,631 l43,0 0,133 -43,0 0,-133z" /><path style="fill:#999;stroke:#4c4c4c;stroke-width:2" d="M212,770 l8,-6 0,-133 43,0 8,-5 -59,0 0,144z" /><path style="fill:none;stroke:#4c4c4c;stroke-width:2" d="M212,626 l59,0 0,144 -59,0 0,-144" /><path style="fill:#999" d="M332,817 l-5,8 -29,22 -8,8 0,-38 0,-4 2,-5 2,-3 2,-4 4,-2 3,-1 4,-2 4,0 5,0 4,2 4,1 3,2 2,4 2,3 1,5 0,4z" /><path style="fill:#000;stroke:#4c4c4c;stroke-width:2" d="M327,817 l0,30 -29,0 0,-30 0,-2 1,-4 2,-2 2,-3 2,-2 2,-1 2,-1 2,-1 3,1 3,1 3,1 2,2 2,3 2,2 1,4 0,2z" /><path style="fill:none;stroke:#4c4c4c;stroke-width:2" d="M332,817 l0,38 -42,0 0,-38 0,-4 2,-5 2,-3 2,-4 4,-2 3,-1 4,-2 4,0 5,0 4,2 4,1 3,2 2,4 2,3 1,5 0,4" /><path style="fill:#000;stroke:#4c4c4c;stroke-width:2" d="M362,631 l42,0 0,133 -42,0 0,-133z" /><path style="fill:#999;stroke:#4c4c4c;stroke-width:2" d="M354,770 l8,-6 0,-133 42,0 8,-5 -58,0 0,144z" /><path style="fill:none;stroke:#4c4c4c;stroke-width:2" d="M354,626 l58,0 0,144 -58,0 0,-144" /></svg>