<!DOCTYPE svg PUBLIC "-//W3C//DTD SVG 20000303 Stylable//EN" "http://www.w3.org/TR/2000/03/WD-SVG-20000303/DTD/svg-20000303-stylable.dtd"[]><svg xmlns="http://www.w3.org/2000/svg" width="380px" height="999px" viewBox="0 0 343 999"><path style="fill:#ccc" d="M293,83 l16,-24 0,-7 -16,-52 -244,0 -15,52 0,7 15,24 0,832 -15,26 0,8 15,50 244,0 16,-50 0,-8 -16,-26 0,-832z" /><path style="fill:#d9d9d9" d="M271,83 l14,-24 0,-7 -14,-52 -200,0 -12,52 0,7 12,24 0,832 -12,26 0,8 12,50 200,0 14,-50 0,-8 -14,-26 0,-832z" /><path style="fill:#e5e5e5" d="M233,83 l10,-24 0,-7 -10,-52 -124,0 -8,52 0,7 8,24 0,832 -8,26 0,8 8,50 124,0 10,-50 0,-8 -10,-26 0,-832z" /><path style="fill:#f2f2f2" d="M189,83 l4,-24 0,-7 -4,-52 -36,0 -2,52 0,7 2,24 0,832 -2,26 0,8 2,50 36,0 4,-50 0,-8 -4,-26 0,-832z" /><path style="fill:none;stroke:#4c4c4c;stroke-width:2" d="M293,83 l16,-24 0,-7 -16,-52 -244,0 -15,52 0,7 15,24 0,832 -15,26 0,8 15,50 244,0 16,-50 0,-8 -16,-26 0,-832" /><path style="fill:#999" d="M49,805 l-49,0 0,-16 49,-24 0,-16 -49,0 0,-16 49,-24 0,-16 -49,0 0,-16 49,-24 0,-16 -49,0 0,-14 49,-24 0,-16 -49,0 0,-16 49,-24 0,-16 -49,0 0,-16 49,-24 0,-16 -49,0 0,-16 49,-22 0,-16 -49,0 0,-16 49,-24 0,-16 -49,0 0,-16 49,-24 0,-16 -49,0 0,-16 49,-24 0,-16 -49,0 0,-16 49,-22 0,-18 -49,0 0,-14 49,-24 0,-16 -49,0 0,-16 49,-24 0,-16 244,0 0,16 50,24 0,16 -50,0 0,16 50,24 0,14 -50,0 0,18 50,22 0,16 -50,0 0,16 50,24 0,16 -50,0 0,16 50,24 0,16 -50,0 0,16 50,24 0,16 -50,0 0,16 50,22 0,16 -50,0 0,16 50,24 0,16 -50,0 0,16 50,24 0,16 -50,0 0,16 50,24 0,14 -50,0 0,16 50,24 0,16 -50,0 0,16 50,24 0,16 -50,0 0,16 50,24 0,16 -50,0 0,16 50,24 0,14 -50,0 0,16 50,24 0,16 -343,0 0,-16 49,-24 0,-16 -49,0 0,-14 49,-24 0,-16z" /><path style="fill:#ccc" d="M73,805 l-39,0 0,-16 39,-24 0,-16 -39,0 0,-16 39,-24 0,-16 -39,0 0,-16 39,-24 0,-16 -39,0 0,-14 39,-24 0,-16 -39,0 0,-16 39,-24 0,-16 -39,0 0,-16 39,-24 0,-16 -39,0 0,-16 39,-22 0,-16 -39,0 0,-16 39,-24 0,-16 -39,0 0,-16 39,-24 0,-16 -39,0 0,-16 39,-24 0,-16 -39,0 0,-16 39,-22 0,-18 -39,0 0,-14 39,-24 0,-16 -39,0 0,-16 39,-24 0,-16 196,0 0,16 40,24 0,16 -40,0 0,16 40,24 0,14 -40,0 0,18 40,22 0,16 -40,0 0,16 40,24 0,16 -40,0 0,16 40,24 0,16 -40,0 0,16 40,24 0,16 -40,0 0,16 40,22 0,16 -40,0 0,16 40,24 0,16 -40,0 0,16 40,24 0,16 -40,0 0,16 40,24 0,14 -40,0 0,16 40,24 0,16 -40,0 0,16 40,24 0,16 -40,0 0,16 40,24 0,16 -40,0 0,16 40,24 0,14 -40,0 0,16 40,24 0,16 -275,0 0,-16 39,-24 0,-16 -39,0 0,-14 39,-24 0,-16z" /><path style="fill:#e5e5e5" d="M121,805 l-20,0 0,-16 20,-24 0,-16 -20,0 0,-16 20,-24 0,-16 -20,0 0,-16 20,-24 0,-16 -20,0 0,-14 20,-24 0,-16 -20,0 0,-16 20,-24 0,-16 -20,0 0,-16 20,-24 0,-16 -20,0 0,-16 20,-22 0,-16 -20,0 0,-16 20,-24 0,-16 -20,0 0,-16 20,-24 0,-16 -20,0 0,-16 20,-24 0,-16 -20,0 0,-16 20,-22 0,-18 -20,0 0,-14 20,-24 0,-16 -20,0 0,-16 20,-24 0,-16 100,0 0,16 22,24 0,16 -22,0 0,16 22,24 0,14 -22,0 0,18 22,22 0,16 -22,0 0,16 22,24 0,16 -22,0 0,16 22,24 0,16 -22,0 0,16 22,24 0,16 -22,0 0,16 22,22 0,16 -22,0 0,16 22,24 0,16 -22,0 0,16 22,24 0,16 -22,0 0,16 22,24 0,14 -22,0 0,16 22,24 0,16 -22,0 0,16 22,24 0,16 -22,0 0,16 22,24 0,16 -22,0 0,16 22,24 0,14 -22,0 0,16 22,24 0,16 -142,0 0,-16 20,-24 0,-16 -20,0 0,-14 20,-24 0,-16z" /><path style="fill:none;stroke:#4c4c4c;stroke-width:2" d="M49,805 l-49,0 0,-16 49,-24 0,-16 -49,0 0,-16 49,-24 0,-16 -49,0 0,-16 49,-24 0,-14 -49,0 0,-18 49,-22 0,-16 -49,0 0,-18 49,-22 0,-16 -49,0 0,-16 49,-24 0,-16 -49,0 0,-16 49,-22 0,-18 -49,0 0,-14 49,-24 0,-16 -49,0 0,-16 49,-24 0,-16 -49,0 0,-14 49,-24 0,-18 -49,0 0,-14 49,-26 0,-16 -49,0 0,-14 49,-26 0,-14 -49,0 0,-16 49,-24 0,-16 244,0 0,16 50,24 0,16 -50,0 0,14 50,26 0,14 -50,0 0,16 50,26 0,14 -50,0 0,18 50,24 0,14 -50,0 0,16 50,24 0,16 -50,0 0,16 50,24 0,14 -50,0 0,18 50,22 0,16 -50,0 0,16 50,24 0,16 -50,0 0,16 50,22 0,18 -50,0 0,16 50,22 0,18 -50,0 0,14 50,24 0,16 -50,0 0,16 50,24 0,16 -50,0 0,16 50,24 0,16 -50,0 0,14 50,26 0,14 -50,0 0,16 50,24 0,16 -343,0 0,-16 49,-24 0,-16 -49,0 0,-14 49,-26 0,-14" /><path style="fill:none;stroke:#4c4c4c;stroke-width:2" d="M49,139 l244,0" /><path style="fill:none;stroke:#4c4c4c;stroke-width:2" d="M293,195 l-244,0" /><path style="fill:none;stroke:#4c4c4c;stroke-width:2" d="M49,249 l244,0" /><path style="fill:none;stroke:#4c4c4c;stroke-width:2" d="M293,305 l-244,0" /><path style="fill:none;stroke:#4c4c4c;stroke-width:2" d="M293,361 l-244,0" /><path style="fill:none;stroke:#4c4c4c;stroke-width:2" d="M49,415 l244,0" /><path style="fill:none;stroke:#4c4c4c;stroke-width:2" d="M293,471 l-244,0" /><path style="fill:none;stroke:#4c4c4c;stroke-width:2" d="M49,527 l244,0" /><path style="fill:none;stroke:#4c4c4c;stroke-width:2" d="M293,583 l-244,0" /><path style="fill:none;stroke:#4c4c4c;stroke-width:2" d="M49,637 l244,0" /><path style="fill:none;stroke:#4c4c4c;stroke-width:2" d="M293,693 l-244,0" /><path style="fill:none;stroke:#4c4c4c;stroke-width:2" d="M49,749 l244,0" /><path style="fill:none;stroke:#4c4c4c;stroke-width:2" d="M293,805 l-244,0" /><path style="fill:none;stroke:#4c4c4c;stroke-width:2" d="M49,859 l244,0" /></svg>