<!DOCTYPE svg PUBLIC "-//W3C//DTD SVG 20000303 Stylable//EN" "http://www.w3.org/TR/2000/03/WD-SVG-20000303/DTD/svg-20000303-stylable.dtd"[]><svg xmlns="http://www.w3.org/2000/svg" width="684px" height="999px" viewBox="0 0 665 999"><path style="fill:#4c4c4c" d="M0,0 l665,0 0,999 -665,0 0,-999z" /><path style="fill:#545454" d="M0,399 l631,-399 -631,0 0,399z" /><path style="fill:#666" d="M0,357 l565,-357 -565,0 0,357z" /><path style="fill:#787878" d="M0,315 l499,-315 -499,0 0,315z" /><path style="fill:#878787" d="M0,273 l431,-273 -431,0 0,273z" /><path style="fill:#999" d="M0,231 l365,-231 -365,0 0,231z" /><path style="fill:#ababab" d="M0,187 l297,-187 -297,0 0,187z" /><path style="fill:#bababa" d="M0,145 l231,-145 -231,0 0,145z" /><path style="fill:#ccc" d="M0,103 l163,-103 -163,0 0,103z" /><path style="fill:#f2f2f2" d="M19,19 l626,0 0,959 -626,0 0,-959z" /><path style="fill:#ededed" d="M19,585 l626,-396 0,789 -626,0 0,-393z" /><path style="fill:#e8e8e8" d="M19,673 l626,-396 0,701 -626,0 0,-305z" /><path style="fill:#e3e3e3" d="M19,761 l626,-396 0,613 -626,0 0,-217z" /><path style="fill:#dedede" d="M19,849 l626,-396 0,525 -626,0 0,-129z" /><path style="fill:#d9d9d9" d="M19,937 l626,-396 0,437 -626,0 0,-41z" /><path style="fill:none;stroke:#999;stroke-width:2" d="M19,19 l626,0 0,959 -626,0 0,-959" /><path style="fill:none;stroke:#4c4c4c;stroke-width:2" d="M19,978 l626,0 0,-959" /><path style="fill:none;stroke:#4c4c4c;stroke-width:2" d="M0,0 l665,0 0,999 -665,0 0,-999" /><path style="fill:none;stroke:#ccc;stroke-width:2" d="M557,930 l-18,7 -414,0 -17,-7 -19,-9 -14,-12 -7,-19 -7,-17 0,-748 7,-17 7,-19 14,-12 19,-9 17,-7 414,0 18,7 18,9 14,12 8,19 6,17 0,748 -6,17 -8,19 -14,12 -18,9" /><path style="fill:none;stroke:#7f7f7f;stroke-width:2" d="M487,787 l-12,4 -286,0 -12,-4 -12,-6 -10,-10 -6,-12 -4,-14 0,-242 4,-14 6,-12 10,-10 12,-6 12,-4 286,0 12,4 12,6 10,10 6,12 4,14 0,242 -4,14 -6,12 -10,10 -12,6" /><path style="fill:#fff" d="M227,717 l64,0 0,64 -64,0 0,-64z" /><path style="fill:#fff" d="M311,717 l62,0 0,64 -62,0 0,-64z" /><path style="fill:#fff" d="M395,717 l62,0 0,64 -62,0 0,-64z" /><path style="fill:#fff" d="M395,635 l62,0 0,62 -62,0 0,-62z" /><path style="fill:#fff" d="M311,635 l62,0 0,62 -62,0 0,-62z" /><path style="fill:#fff" d="M227,635 l64,0 0,62 -64,0 0,-62z" /><path style="fill:#fff" d="M227,551 l64,0 0,62 -64,0 0,-62z" /><path style="fill:#fff" d="M311,551 l62,0 0,62 -62,0 0,-62z" /><path style="fill:#fff" d="M395,551 l62,0 0,62 -62,0 0,-62z" /><path style="fill:#fff" d="M395,467 l62,0 0,64 -62,0 0,-64z" /><path style="fill:#fff" d="M311,467 l62,0 0,64 -62,0 0,-64z" /><path style="fill:#fff" d="M227,467 l64,0 0,64 -64,0 0,-64z" /><path style="fill:#ccc;stroke:#b2b2b2;stroke-width:2" d="M487,433 l-12,4 -286,0 -12,-4 -12,-6 -10,-10 -6,-12 -4,-14 0,-242 4,-14 6,-12 10,-10 12,-5 12,-5 286,0 12,5 12,5 10,10 6,12 4,14 0,242 -4,14 -6,12 -10,10 -12,6z" /><path style="fill:none;stroke:#7f7f7f;stroke-width:2" d="M589,89 l8,19 6,17 0,748 -6,17 -8,19 -14,12 -18,9 -18,7 -414,0 -17,-7 -19,-9" /><path style="fill:#999" d="M239,479 l40,0 0,40 -40,0 0,-40z" /><path style="fill:#999" d="M321,479 l42,0 0,40 -42,0 0,-40z" /><path style="fill:#999" d="M405,479 l42,0 0,40 -42,0 0,-40z" /><path style="fill:#999" d="M239,561 l40,0 0,42 -40,0 0,-42z" /><path style="fill:#999" d="M321,561 l42,0 0,42 -42,0 0,-42z" /><path style="fill:#999" d="M405,561 l42,0 0,42 -42,0 0,-42z" /><path style="fill:#999" d="M239,645 l40,0 0,42 -40,0 0,-42z" /><path style="fill:#999" d="M321,645 l42,0 0,42 -42,0 0,-42z" /><path style="fill:#999" d="M405,645 l42,0 0,42 -42,0 0,-42z" /><path style="fill:#999" d="M239,729 l40,0 0,40 -40,0 0,-40z" /><path style="fill:#999" d="M321,729 l42,0 0,40 -42,0 0,-40z" /><path style="fill:#999" d="M405,729 l42,0 0,40 -42,0 0,-40z" /><path style="fill:#b2b2b2" d="M165,217 l334,0 0,32 -334,0 0,-32z" /><path style="fill:#b2b2b2" d="M165,259 l334,0 0,32 -334,0 0,-32z" /><path style="fill:#b2b2b2" d="M165,301 l334,0 0,32 -334,0 0,-32z" /><path style="fill:#b2b2b2" d="M165,343 l334,0 0,32 -334,0 0,-32z" /><path style="fill:#b2b2b2;stroke:#4c4c4c;stroke-width:2" d="M165,385 l334,0 0,30 -334,0 0,-30z" /><path style="fill:#7f7f7f" d="M165,385 l36,0 0,30 -36,0 0,-30z" /><path style="fill:#7f7f7f" d="M165,343 l36,0 0,32 -36,0 0,-32z" /><path style="fill:#7f7f7f" d="M165,301 l36,0 0,32 -36,0 0,-32z" /><path style="fill:#7f7f7f" d="M165,259 l36,0 0,32 -36,0 0,-32z" /><path style="fill:#7f7f7f" d="M165,217 l36,0 0,32 -36,0 0,-32z" /><path style="fill:none;stroke:#4c4c4c;stroke-width:2" d="M165,343 l334,0 0,32 -334,0 0,-32" /><path style="fill:none;stroke:#4c4c4c;stroke-width:2" d="M165,301 l334,0 0,32 -334,0 0,-32" /><path style="fill:none;stroke:#4c4c4c;stroke-width:2" d="M165,259 l334,0 0,32 -334,0 0,-32" /><path style="fill:none;stroke:#4c4c4c;stroke-width:2" d="M165,217 l334,0 0,32 -334,0 0,-32" /><path style="fill:#396" d="M167,125 l332,0 0,78 -332,0 0,-78z" /><path style="fill:#3da370" d="M167,203 l332,-56 0,56 -332,0z" /><path style="fill:#47ad7a" d="M209,203 l290,-48 0,48 -290,0z" /><path style="fill:#52b885" d="M251,203 l248,-42 0,42 -248,0z" /><path style="fill:#5ec491" d="M293,203 l206,-34 0,34 -206,0z" /><path style="fill:#69cf9c" d="M335,203 l164,-28 0,28 -164,0z" /><path style="fill:#73d9a6" d="M377,203 l122,-20 0,20 -122,0z" /><path style="fill:none;stroke:#4c4c4c;stroke-width:2" d="M167,203 l0,-78 332,0" /><path style="fill:none;stroke:#fff;stroke-width:2" d="M499,125 l0,78 -332,0" /></svg>