<!DOCTYPE svg PUBLIC "-//W3C//DTD SVG 20000303 Stylable//EN" "http://www.w3.org/TR/2000/03/WD-SVG-20000303/DTD/svg-20000303-stylable.dtd"[]><svg xmlns="http://www.w3.org/2000/svg" width="999px" height="761px" viewBox="0 0 998 746"><path style="fill:#ccc;stroke:#4c4c4c;stroke-width:2" d="M330,627 l289,119 379,-126 -307,-33 -361,40z" /><path style="fill:none;stroke:#4c4c4c;stroke-width:2" d="M119,205 l10,12 10,11 10,12 11,12 12,11 12,11 12,11 13,12 13,10 13,11 13,10 14,11 14,10 14,10 14,9 15,10 14,9 14,9 15,9 14,8 14,9 15,8 14,7 14,8 13,7 14,7 13,6 13,6 13,6 12,5 11,5 12,5" /><path style="fill:none;stroke:#4c4c4c;stroke-width:2" d="M547,488 l-7,-5 -8,-5 -9,-5 -8,-6 -10,-6 -10,-6 -10,-7 -10,-7 -11,-7 -11,-7 -11,-8 -11,-8 -12,-8 -11,-8 -12,-9 -11,-8 -12,-10 -11,-9 -12,-10 -11,-9 -11,-10 -10,-11 -11,-10 -10,-11 -10,-11 -9,-11 -9,-11 -9,-12 -7,-12 -8,-12 -7,-12 -6,-12" /><path style="fill:none;stroke:#4c4c4c;stroke-width:2" d="M344,205 l6,14 7,13 5,13 7,12 6,13 6,11 7,12 6,11 6,11 7,11 7,10 6,10 7,10 7,9 7,9 7,8 7,9 7,8 7,8 7,8 7,7 7,7 7,7 7,6 8,6 7,7 7,5 7,6 7,5 8,6 7,4 7,5" /><path style="fill:#333;stroke:#4c4c4c;stroke-width:2" d="M562,487 l7,0 0,21 -7,0 0,-21z" /><path style="fill:#333;stroke:#4c4c4c;stroke-width:2" d="M548,489 l8,0 0,22 -8,0 0,-22z" /><path style="fill:#333;stroke:#4c4c4c;stroke-width:2" d="M534,491 l7,0 0,22 -7,0 0,-22z" /><path style="fill:none;stroke:#4c4c4c;stroke-width:2" d="M168,592 l64,91 63,-91" /><path style="fill:none;stroke:#4c4c4c;stroke-width:2" d="M182,493 l50,92 49,-92" /><path style="fill:none;stroke:#4c4c4c;stroke-width:2" d="M196,409 l36,77 35,-77" /><path style="fill:none;stroke:#4c4c4c;stroke-width:2" d="M203,353 l29,48 28,-48" /><path style="fill:none;stroke:#4c4c4c;stroke-width:2" d="M211,303 l21,42 21,-42" /><path style="fill:none;stroke:#4c4c4c;stroke-width:2" d="M218,311 l28,0" /><path style="fill:none;stroke:#4c4c4c;stroke-width:2" d="M211,359 l42,0" /><path style="fill:none;stroke:#4c4c4c;stroke-width:2" d="M203,416 l57,0" /><path style="fill:none;stroke:#4c4c4c;stroke-width:2" d="M189,500 l85,0" /><path style="fill:none;stroke:#4c4c4c;stroke-width:2" d="M176,599 l112,0" /><path style="fill:none;stroke:#4c4c4c;stroke-width:2" d="M147,135 l29,13 27,-13 29,13 28,-13 28,13 28,-13" /><path style="fill:none;stroke:#4c4c4c;stroke-width:2" d="M196,156 l36,42 35,-42" /><path style="fill:none;stroke:#4c4c4c;stroke-width:2" d="M196,261 l15,0" /><path style="fill:none;stroke:#4c4c4c;stroke-width:2" d="M203,276 l15,0" /><path style="fill:none;stroke:#4c4c4c;stroke-width:2" d="M253,261 l14,0" /><path style="fill:none;stroke:#4c4c4c;stroke-width:2" d="M245,276 l15,0" /><path style="fill:none;stroke:#4c4c4c;stroke-width:2" d="M176,163 l14,0" /><path style="fill:none;stroke:#4c4c4c;stroke-width:2" d="M176,177 l14,0" /><path style="fill:none;stroke:#4c4c4c;stroke-width:2" d="M274,163 l14,0" /><path style="fill:none;stroke:#4c4c4c;stroke-width:2" d="M274,177 l14,0" /><path style="fill:#666;stroke:#4c4c4c;stroke-width:2" d="M267,219 l-36,70 8,0 35,-70 -7,0z" /><path style="fill:#666;stroke:#4c4c4c;stroke-width:2" d="M196,219 l36,70 -7,0 -36,-70 7,0z" /><path style="fill:#b2b2b2;stroke:#4c4c4c;stroke-width:2" d="M203,346 l57,0 0,7 -57,0 0,-7z" /><path style="fill:#b2b2b2;stroke:#4c4c4c;stroke-width:2" d="M196,402 l71,0 0,7 -71,0 0,-7z" /><path style="fill:#b2b2b2;stroke:#4c4c4c;stroke-width:2" d="M182,486 l99,0 0,7 -99,0 0,-7z" /><path style="fill:#b2b2b2;stroke:#4c4c4c;stroke-width:2" d="M168,585 l127,0 0,7 -127,0 0,-7z" /><path style="fill:#b2b2b2;stroke:#4c4c4c;stroke-width:2" d="M471,641 l0,-119 112,-22 0,169 -112,-28z" /><path style="fill:#7f7f7f;stroke:#4c4c4c;stroke-width:2" d="M583,500 l289,43 0,98 -289,28 0,-169z" /><path style="fill:#000;stroke:#4c4c4c;stroke-width:2" d="M646,669 l-20,-7 0,-155 20,-21 0,183z" /><path style="fill:#000;stroke:#4c4c4c;stroke-width:2" d="M738,655 l-19,-7 0,-128 19,-20 0,155z" /><path style="fill:#000;stroke:#4c4c4c;stroke-width:2" d="M822,648 l-18,-6 0,-109 18,-18 0,133z" /><path style="fill:#b2b2b2;stroke:#4c4c4c;stroke-width:2" d="M865,644 l-6,-402 0,-2 -1,-2 -2,-1 -2,-2 -3,-1 -3,0 -3,-1 -4,0 -3,0 -3,1 -3,0 -3,1 -2,2 -2,1 -1,2 0,2 -5,402 0,2 1,2 2,2 3,2 3,1 4,1 5,1 4,0 5,0 5,-1 4,-1 3,-1 3,-2 2,-2 1,-2 1,-2z" /><path style="fill:#b2b2b2;stroke:#4c4c4c;stroke-width:2" d="M782,657 l-6,-443 -1,-2 -1,-2 -2,-1 -2,-1 -3,-2 -3,-1 -4,0 -4,0 -4,0 -3,0 -4,1 -2,2 -3,1 -1,1 -1,2 0,2 -7,443 1,2 1,2 2,3 4,1 3,2 4,1 5,1 5,0 5,0 5,-1 5,-1 4,-2 3,-1 2,-3 2,-2 0,-2z" /><path style="fill:#b2b2b2;stroke:#4c4c4c;stroke-width:2" d="M699,669 l-7,-485 0,-2 -2,-2 -2,-2 -2,-1 -4,-2 -3,-1 -4,0 -4,0 -5,0 -4,0 -3,1 -3,2 -3,1 -2,2 -1,2 0,2 -7,485 0,3 2,3 3,2 3,2 4,2 5,1 5,1 6,0 6,0 5,-1 5,-1 4,-2 3,-2 3,-2 2,-3 0,-3z" /><ellipse style="fill:#e5e5e5" cx="842" cy="444" rx="11" ry="211" /><ellipse style="fill:#e5e5e5" cx="757" cy="437" rx="10" ry="232" /><ellipse style="fill:#e5e5e5" cx="671" cy="428" rx="11" ry="254" /><path style="fill:#4c4c4c;stroke:#4c4c4c;stroke-width:2" d="M692,203 l0,-19 0,-2 -2,-2 -2,-2 -2,-1 -4,-2 -3,-1 -4,0 -4,0 -5,0 -4,0 -3,1 -3,2 -3,1 -2,2 -1,2 0,2 0,19 0,3 1,1 2,0 2,-1 3,-1 3,-1 4,0 6,-1 5,1 4,0 4,1 3,1 3,1 1,0 1,-1 0,-3z" /><path style="fill:#4c4c4c;stroke:#4c4c4c;stroke-width:2" d="M776,229 l0,-15 -1,-2 -1,-2 -2,-1 -2,-2 -3,-1 -3,-1 -4,0 -4,0 -4,0 -3,0 -4,1 -3,1 -2,2 -1,1 -2,2 0,2 1,15 0,2 1,1 1,0 2,0 2,-1 3,-1 4,-1 5,0 5,0 4,1 4,1 3,1 2,0 1,0 1,-1 0,-2z" /><path style="fill:#4c4c4c;stroke:#4c4c4c;stroke-width:2" d="M859,255 l0,-13 0,-2 -1,-2 -2,-1 -2,-2 -3,-1 -3,-1 -3,0 -4,0 -3,0 -3,0 -4,1 -2,1 -3,2 -1,1 -1,2 -1,2 0,13 1,2 0,1 2,0 2,-1 2,0 3,-1 4,-1 4,0 5,0 4,1 3,1 3,0 1,1 2,0 0,-1 0,-2z" /><path style="fill:#b2b2b2;stroke:#4c4c4c;stroke-width:2" d="M119,148 l225,0 -112,8 -113,-8z" /><path style="fill:#999;stroke:#4c4c4c;stroke-width:2" d="M267,233 l0,-85 7,0 0,85 -7,0z" /><path style="fill:#999;stroke:#4c4c4c;stroke-width:2" d="M196,233 l0,-85 -7,0 0,85 7,0z" /><path style="fill:#b2b2b2;stroke:#4c4c4c;stroke-width:2" d="M119,148 l28,-28 169,0 28,28 -35,-13 -155,0 -35,13z" /><path style="fill:#b2b2b2;stroke:#4c4c4c;stroke-width:2" d="M316,683 l-56,-394 -57,0 -56,394 14,0 57,-379 28,0 56,379 14,0z" /><path style="fill:#b2b2b2;stroke:#4c4c4c;stroke-width:2" d="M260,289 l35,-141 -7,0 -35,141 7,0z" /><path style="fill:#b2b2b2;stroke:#4c4c4c;stroke-width:2" d="M203,289 l-35,-141 8,0 35,141 -8,0z" /><path style="fill:#333;stroke:#4c4c4c;stroke-width:2" d="M119,148 l7,0 0,57 -7,0 0,-57z" /><path style="fill:#333;stroke:#4c4c4c;stroke-width:2" d="M338,148 l6,0 0,57 -6,0 0,-57z" /><path style="fill:#333;stroke:#4c4c4c;stroke-width:2" d="M218,177 l14,14 14,-14 7,7 -21,21 -21,-21 7,-7z" /><path style="fill:none;stroke:#4c4c4c;stroke-width:2" d="M344,205 l-15,-7 -15,-7 -14,-8 -14,-7 -13,-9 -13,-9 -12,-9 -11,-10 -11,-11 -10,-11 -11,-12 -9,-12 -10,-13 -8,-14 -9,-15 -8,-15" /><path style="fill:none;stroke:#4c4c4c;stroke-width:2" d="M232,205 l-13,-6 -13,-5 -12,-7 -12,-6 -11,-7 -11,-7 -10,-8 -11,-8 -10,-8 -10,-9 -9,-9 -10,-10 -9,-10 -10,-11 -9,-11 -9,-12" /><path style="fill:none;stroke:#4c4c4c;stroke-width:2" d="M119,205 l-9,-2 -9,-1 -8,-2 -9,-1 -7,-2 -8,-2 -8,-3 -7,-3 -7,-4 -7,-4 -7,-4 -7,-6 -7,-6 -6,-7 -7,-8 -6,-8" /><path style="fill:#e5e5e5;stroke:#7f7f7f;stroke-width:2" d="M655,162 l-6,-8 -6,-5 -4,-4 -3,-2 -3,-2 -4,-2 -4,-2 -5,-4 -7,-2 -5,-2 -3,-3 -2,-3 -2,-3 0,-3 -1,-3 -1,-2 -7,-1 -6,0 -6,0 -5,1 -6,1 -6,1 -5,1 -6,1 -10,0 -8,-2 -7,-2 -5,-2 -5,-3 -5,-3 -5,-3 -6,-2 -11,-3 -10,-3 -7,-3 -6,-2 -4,-3 -3,-2 -2,-3 -1,-1 -1,-3 0,-2 0,-2 0,-2 0,-2 -1,-3 -2,-2 -3,-2 -6,0 -6,1 -6,0 -4,-1 -4,0 -4,-1 -3,-1 -3,-1 -3,-1 -3,-2 -2,-1 -3,-1 -3,-1 -2,-2 -3,-1 -4,-1 -3,-4 -1,-4 1,-2 3,-3 4,-2 4,-1 2,0 3,-1 11,-1 11,-1 10,-1 9,0 9,-1 7,0 7,1 7,0 5,0 5,-1 4,0 4,-1 3,-1 2,-1 2,-3 1,-2 0,-5 0,-4 0,-3 1,-3 1,-2 2,-1 2,0 3,1 6,-2 6,0 6,0 6,0 5,0 6,1 5,1 5,1 5,1 5,1 5,2 5,1 5,1 5,1 5,0 4,0 4,0 4,-2 4,-1 4,-1 4,-1 3,0 4,0 3,1 8,1 7,2 7,4 6,3 7,3 5,3 6,1 5,0 5,-1 6,-2 7,-1 7,-1 7,-2 7,-1 6,0 6,-1 3,0 3,0 3,-1 4,0 3,-1 3,1 3,0 3,1 3,1 3,2 2,1 3,1 2,1 3,1 3,1 2,1 4,2 4,3 3,4 3,4 3,3 3,5 3,4 2,4 3,4 2,4 3,4 3,4 2,3 3,3 3,2 3,2 2,1 2,0 3,-1 2,0 2,0 2,1 2,1 2,3 3,3 3,3 2,4 2,3 2,3 2,4 1,3 1,4 0,4 1,3 0,3 0,4 -1,4 -1,3 -1,3 -1,4 -1,4 0,4 1,3 0,3 1,3 1,2 1,3 1,3 1,3 0,4 0,5 0,5 -2,7 -1,7 -3,9 -4,11 0,2 -1,2 -2,1 -2,0 -2,0 -3,0 -3,-1 -4,0 -1,-7 -1,-7 -2,-5 -2,-5 -2,-4 -1,-3 -3,-3 -2,-3 -1,-2 -2,-2 -1,-3 -1,-2 -1,-3 0,-3 0,-4 2,-4 -3,-9 -3,-8 -4,-6 -4,-6 -5,-3 -3,-2 -3,0 -1,2 -2,3 -2,1 -3,0 -3,1 -4,1 -2,3 -2,5 -1,10 2,6 2,4 0,3 0,3 -1,2 0,4 0,7 1,9 -3,0 -3,0 -3,0 -3,0 -4,0 -3,0 -3,0 -3,0 -3,-1 -2,-2 -2,-3 -1,-3 -1,-5 -1,-6 -1,-7 -2,-7 -5,-3 -5,-4 -3,-5 -3,-5 -2,-7 -2,-7 -2,-6 -3,-5 -4,-2 -4,-1 -4,2 -4,2 -5,4 -4,3 -3,2 -2,3 1,5 1,5 2,5 2,5 2,5 1,5 -1,4 -2,3 -3,0 -3,0 -3,0 -4,0 -4,0 -3,-1 -3,1 -3,0z" /><path style="fill:#b2b2b2" d="M655,157 l-6,-7 -5,-5 -4,-3 -4,-3 -3,-2 -4,-2 -4,-3 -5,-3 -5,-2 -5,-2 -2,-2 -2,-3 -1,-2 -1,-2 -1,-3 -1,-2 -3,0 -2,-1 -4,-1 -4,0 -4,-1 -4,0 -4,-1 -4,0 -5,-1 -4,0 -4,0 -4,0 -3,0 -4,0 -3,0 -3,0 -8,0 -7,-2 -5,-1 -4,-2 -5,-2 -4,-3 -4,-2 -5,-2 -9,-3 -8,-2 -6,-2 -5,-3 -4,-2 -2,-1 -2,-2 -1,-2 0,-2 -1,-2 0,-2 0,-1 0,-2 -1,-2 -1,-2 -2,-2 -11,1 -8,-1 -6,-1 -6,-1 -4,-2 -5,-3 -4,-2 -6,-1 -2,-4 -1,-3 1,-3 2,-1 3,-2 3,-1 3,0 2,0 10,-1 10,0 10,0 10,2 10,1 9,2 9,3 9,2 8,3 7,2 7,2 5,1 5,1 4,0 3,-1 1,-2 0,-4 0,-3 0,-3 1,-2 1,-2 1,-1 1,0 3,1 5,-1 5,0 5,-1 5,0 4,1 5,0 4,1 5,1 4,1 4,1 4,1 5,1 3,1 4,0 4,1 4,0 4,-1 2,0 4,-1 3,-1 3,-1 3,-1 3,0 3,1 6,1 7,2 5,3 6,3 5,3 5,2 4,1 4,0 5,-1 5,-1 6,-2 6,-1 6,-1 5,-1 5,0 5,-1 3,0 2,0 3,-1 3,0 2,0 3,0 2,0 3,1 2,1 3,1 2,1 2,1 2,1 3,1 1,1 3,1 3,2 4,2 3,2 4,2 3,2 4,2 4,2 4,2 4,2 3,2 4,2 3,2 4,2 3,1 3,2 3,1 1,1 2,-1 2,0 2,0 2,0 1,1 2,1 1,2 5,6 4,5 3,6 2,6 0,6 0,6 -1,5 -2,6 0,4 0,3 0,2 0,3 1,2 1,2 1,3 1,2 0,3 0,3 0,4 0,5 -1,5 -1,6 -3,8 -3,9 0,2 -1,1 -1,1 -2,0 -2,0 -2,-1 -3,0 -3,0 -2,-11 -2,-9 -2,-6 -3,-4 -2,-4 -2,-5 1,-4 1,-7 -2,-8 -4,-7 -5,-6 -6,-5 -5,-4 -5,-2 -3,-1 -1,2 -2,2 -3,1 -4,1 -5,0 -4,2 -4,2 -2,5 -1,8 1,5 1,4 1,2 -1,2 0,3 0,3 0,5 1,8 -3,0 -2,0 -2,1 -3,1 -2,1 -2,0 -3,1 -2,0 -3,-1 -1,-3 -1,-5 -1,-5 -1,-6 -1,-8 -1,-7 -1,-6 -5,-2 -5,-3 -4,-4 -4,-4 -4,-4 -3,-5 -3,-5 -3,-4 -3,-2 -5,1 -5,2 -5,3 -6,4 -4,3 -4,3 -3,2 1,4 1,4 2,5 2,4 1,4 0,4 0,3 -2,3 -2,1 -2,0 -2,1 -2,0 -2,1 -2,0 -1,1 -3,0z" /></svg>