<!DOCTYPE svg PUBLIC "-//W3C//DTD SVG 20000303 Stylable//EN" "http://www.w3.org/TR/2000/03/WD-SVG-20000303/DTD/svg-20000303-stylable.dtd"[]><svg xmlns="http://www.w3.org/2000/svg" width="382px" height="998px" viewBox="0 0 345 999"><path style="fill:#4c4c4c" d="M42,271 l71,-12 9,52 -72,10 -8,-50z" /><path style="fill:#4c4c4c" d="M231,259 l72,12 -8,50 -70,-10 6,-52z" /><path style="fill:#545454" d="M46,269 l63,-8 9,50 -64,10 -8,-52z" /><path style="fill:#545454" d="M237,261 l62,8 -8,52 -62,-10 8,-50z" /><path style="fill:#5c5c5c" d="M50,269 l55,-8 8,50 -55,8 -8,-50z" /><path style="fill:#5c5c5c" d="M241,261 l54,8 -6,50 -56,-8 8,-50z" /><path style="fill:#636363" d="M54,269 l47,-8 8,52 -47,6 -8,-50z" /><path style="fill:#636363" d="M245,261 l46,8 -8,50 -46,-6 8,-52z" /><path style="fill:#6b6b6b" d="M58,267 l39,-6 8,52 -40,6 -7,-52z" /><path style="fill:#6b6b6b" d="M249,261 l38,6 -8,52 -38,-6 8,-52z" /><path style="fill:#757575" d="M62,267 l31,-4 8,50 -32,4 -7,-50z" /><path style="fill:#757575" d="M253,263 l30,4 -6,50 -32,-4 8,-50z" /><path style="fill:#7d7d7d" d="M65,267 l24,-4 8,50 -24,4 -8,-50z" /><path style="fill:#7d7d7d" d="M257,263 l22,4 -6,50 -24,-4 8,-50z" /><path style="fill:#858585" d="M69,267 l16,-4 8,52 -16,2 -8,-50z" /><path style="fill:#858585" d="M261,263 l14,4 -6,50 -16,-2 8,-52z" /><path style="fill:#8c8c8c" d="M263,265 l8,0 -6,52 -8,-2 6,-50z" /><path style="fill:#8c8c8c" d="M73,265 l8,0 8,50 -8,2 -8,-52z" /><path style="fill:#999" d="M0,63 l25,-4 -1,-9 15,-3 -4,-19 -3,0 -4,-24 19,-4 4,25 -4,0 3,22 15,-4 0,11 27,-4 1,15 -13,2 0,10 16,-2 1,17 -13,1 0,10 15,-2 2,14 -16,4 3,10 15,-2 2,14 -16,2 3,10 15,-2 2,16 -16,2 3,10 15,-2 2,16 -16,2 10,66 -60,8 -10,-66 -16,4 -1,-16 15,-2 -2,-10 -16,2 -1,-16 16,-2 -3,-10 -16,2 -1,-14 16,-4 -3,-10 -16,2 -1,-14 16,-2 -3,-12 -16,4 -1,-16 16,-1 -3,-11 -13,3 -4,-17z" /><path style="fill:#999;stroke:#4c4c4c;stroke-width:2" d="M253,50 l26,4 2,-11 14,3 4,-21 -6,0 4,-25 20,4 -2,24 -6,0 -4,19 16,3 -2,9 26,4 -2,17 -16,-3 -2,11 16,1 -2,16 -16,-4 -2,12 16,2 -2,14 -16,-2 0,10 14,4 -2,14 -16,-2 0,10 14,2 -2,16 -16,-2 0,10 14,2 -2,16 -14,-4 -12,66 -60,-8 10,-66 -16,-2 4,-16 14,2 2,-10 -16,-2 4,-16 14,2 2,-10 -16,-2 4,-14 14,2 2,-10 -16,-4 2,-14 16,2 2,-10 -16,-1 2,-17 16,2 2,-10 -16,-2 2,-15z" /><path style="fill:#a8a8a8" d="M8,63 l21,-4 -1,-9 11,-3 -2,-19 -4,0 -4,-27 18,-1 3,25 -4,0 4,21 12,-3 1,11 22,-3 3,14 -13,2 0,10 14,-2 3,17 -15,1 3,10 13,-2 3,17 -15,1 3,10 13,-2 2,14 -14,2 3,12 13,-2 2,14 -14,2 3,10 11,-2 4,16 -14,2 10,66 -52,8 -9,-66 -13,2 -1,-16 11,-2 -2,-10 -12,2 -1,-14 11,-2 -2,-12 -12,2 -1,-14 12,-2 -3,-10 -12,2 -1,-16 12,-2 0,-10 -15,2 -1,-15 12,-3 0,-10 -15,2 -1,-14z" /><path style="fill:#a8a8a8" d="M261,51 l22,3 0,-11 14,3 2,-21 -4,0 4,-25 18,1 -4,27 -4,0 -4,19 14,3 -2,9 22,4 -2,14 -14,-2 -2,10 14,3 -2,15 -14,-2 -2,10 14,2 -2,16 -14,-2 -2,10 14,2 -2,14 -14,-2 0,12 12,2 -2,14 -14,-2 0,10 12,2 -2,16 -14,-2 -8,66 -52,-8 10,-66 -14,-2 2,-16 14,2 0,-10 -12,-2 2,-14 14,2 0,-10 -12,-2 2,-16 14,2 0,-10 -12,-1 2,-17 14,2 0,-10 -12,-1 2,-17 12,2 2,-10 -12,-2 2,-14z" /><path style="fill:#b8b8b8" d="M13,62 l19,-3 0,-9 10,-3 -5,-19 -2,0 -3,-27 14,-1 4,25 -4,0 4,21 9,0 3,9 15,-4 4,16 -12,2 2,11 10,-3 3,16 -11,0 2,10 10,0 3,15 -11,1 3,10 9,-2 3,16 -11,2 3,10 9,-2 3,16 -11,2 3,10 9,-2 2,16 -10,0 10,66 -44,6 -8,-66 -12,2 -2,-14 10,-2 0,-10 -11,2 -3,-16 10,-2 0,-10 -11,2 -3,-16 12,0 -2,-12 -11,2 -3,-16 12,0 -1,-10 -11,0 -4,-13 12,-3 -1,-10 -11,2 -4,-15z" /><path style="fill:#b8b8b8" d="M267,51 l18,4 2,-9 10,1 4,-22 -4,0 4,-25 14,1 -4,27 -4,0 -2,19 10,3 0,9 16,3 -2,15 -10,-2 -2,10 10,3 -2,13 -10,0 -2,10 10,2 -2,14 -10,-2 -2,12 12,0 -4,16 -10,-2 -2,10 12,2 -4,16 -10,-2 -2,10 12,2 -2,14 -12,-2 -10,66 -42,-6 10,-66 -10,0 0,-16 12,2 2,-10 -12,-2 4,-16 10,2 2,-10 -12,-2 2,-16 12,2 2,-10 -12,-1 2,-15 12,0 0,-8 -10,-2 2,-16 12,3 0,-11 -10,-2 2,-16z" /><path style="fill:#c4c4c4" d="M21,62 l14,-3 -2,-12 9,0 -3,-19 -4,0 -3,-27 11,-1 4,25 -1,0 1,22 8,-1 3,9 13,-1 2,13 -8,2 2,11 8,-3 2,16 -8,2 2,10 9,-2 1,16 -8,0 2,12 9,-2 1,16 -8,0 0,10 11,0 1,14 -8,2 0,10 11,-2 1,16 -8,2 11,66 -34,4 -11,-66 -8,2 -4,-16 11,0 -3,-12 -8,2 -4,-16 11,0 -3,-10 -8,0 -2,-14 9,-2 -3,-10 -7,2 -3,-16 8,-2 -2,-10 -7,2 -3,-16 8,0 -1,-10 -8,0 -3,-13z" /><path style="fill:#c4c4c4" d="M275,54 l14,1 0,-9 10,1 2,-22 -2,0 4,-25 10,1 -4,27 -2,0 -4,19 10,0 -2,12 14,3 -2,13 -8,0 -2,10 8,0 -2,16 -8,-2 -2,10 8,2 -2,16 -8,-2 -2,10 8,2 -2,14 -8,0 -2,10 8,2 -2,14 -8,-2 -2,12 8,0 -2,16 -8,-2 -10,66 -34,-4 10,-66 -8,-2 2,-16 8,2 2,-10 -8,-2 2,-14 8,0 2,-10 -8,0 2,-16 8,2 2,-9 -8,-3 2,-16 8,2 2,-10 -8,-2 2,-16 8,3 2,-11 -10,-2 4,-13z" /><path style="fill:#d4d4d4" d="M28,59 l9,-1 -2,-11 8,0 -4,-22 -2,3 -4,-27 9,-1 4,25 -3,0 4,22 7,-1 0,9 11,-1 2,15 -5,0 1,11 6,0 2,15 -6,0 2,10 6,0 2,14 -6,3 0,9 8,-2 3,16 -7,0 0,12 7,-2 4,16 -7,0 0,10 7,0 4,14 -8,2 9,66 -24,4 -10,-66 -5,0 -3,-14 7,-2 -3,-10 -5,2 -3,-16 7,0 -3,-12 -5,2 -3,-16 7,0 -3,-10 -6,0 -2,-16 7,0 -3,-10 -6,0 -1,-14 5,-1 -2,-11 -6,2 -1,-16z" /><path style="fill:#d4d4d4" d="M281,54 l10,1 2,-9 6,1 2,-22 -2,0 4,-25 10,1 -4,27 -2,0 -4,19 6,0 -2,11 12,1 -2,16 -8,-2 0,11 6,1 -2,14 -8,0 0,10 6,2 -2,14 -8,0 0,10 6,0 -2,16 -6,-2 -2,12 6,0 -2,16 -6,-2 -2,10 6,2 -2,14 -6,0 -10,66 -26,-4 10,-66 -6,-2 2,-14 8,0 0,-10 -6,0 2,-16 6,2 2,-12 -6,0 2,-14 6,0 2,-9 -6,-3 2,-14 6,0 2,-10 -6,0 2,-15 6,0 2,-9 -6,-2 2,-15z" /><path style="fill:#e3e3e3" d="M35,59 l7,-1 -3,-11 4,0 -1,-22 -3,3 -4,-27 7,-1 4,25 -3,0 3,22 4,-1 1,9 7,0 1,14 -4,2 3,10 4,-1 1,15 -4,0 3,10 3,0 2,17 -4,0 2,9 4,0 2,14 -4,2 2,10 4,0 2,14 -4,2 2,10 4,-2 3,16 -5,0 10,66 -16,4 -10,-68 -4,2 -1,-16 4,0 -3,-10 -1,0 -4,-16 4,0 0,-10 -4,0 -4,-14 4,-2 0,-10 -4,0 -4,-14 4,0 0,-10 -4,0 -3,-15 4,0 -1,-11 -5,0 -2,-14z" /><path style="fill:#e3e3e3" d="M289,55 l6,0 2,-9 2,1 4,-22 -2,0 4,-24 6,0 -4,27 -2,-3 -2,22 4,0 -2,11 6,1 -2,14 -4,0 -2,11 4,0 -2,15 -4,0 -2,10 4,0 -2,16 -4,-2 0,12 2,0 -2,14 -4,0 0,10 4,2 -4,14 -4,0 0,10 4,0 -4,16 -4,-2 -10,68 -14,-4 10,-66 -4,0 2,-16 4,2 2,-10 -4,-2 2,-14 4,0 0,-10 -2,-2 2,-14 4,0 0,-9 -4,0 4,-17 4,0 0,-8 -2,-2 2,-14 4,0 0,-10 -4,0 4,-16z" /><path style="fill:#f2f2f2" d="M295,55 l2,3 2,-11 2,0 2,-22 4,-24 2,0 -4,27 -4,19 2,0 -2,11 4,0 -4,15 -2,11 2,0 -4,13 -2,10 2,2 -2,14 -2,0 -2,10 2,0 -2,16 -2,0 -2,10 2,0 -2,16 -2,0 -2,10 2,0 -2,14 -2,0 -10,66 -6,0 10,-66 -2,0 2,-16 2,0 2,-10 -2,0 2,-16 2,2 2,-12 -2,0 2,-14 2,0 2,-10 -2,-1 2,-15 2,0 2,-10 -2,0 2,-16 2,0 0,-10 2,-16z" /><path style="fill:#f2f2f2" d="M42,58 l1,0 -1,-11 1,0 -1,-19 -5,-27 2,0 4,24 -1,0 4,22 1,0 3,11 1,-3 3,16 -3,0 3,10 1,0 3,16 -3,0 3,10 1,0 3,15 -3,1 3,10 1,0 2,14 -2,0 2,10 2,0 2,16 -2,0 2,10 4,16 -2,0 10,66 -6,0 -12,-66 -1,-14 0,-10 -3,0 -1,-16 0,-10 -3,0 -1,-16 0,-10 -3,0 -1,-14 1,-2 -1,-10 -3,0 -1,-13 1,0 -1,-11 -3,0 -1,-15z" /><path style="fill:none;stroke:#4c4c4c;stroke-width:2" d="M279,54 l40,5" /><path style="fill:none;stroke:#4c4c4c;stroke-width:2" d="M327,77 l-60,-10" /><path style="fill:none;stroke:#4c4c4c;stroke-width:2" d="M265,77 l60,11" /><path style="fill:none;stroke:#4c4c4c;stroke-width:2" d="M323,101 l-60,-8" /><path style="fill:none;stroke:#4c4c4c;stroke-width:2" d="M261,103 l60,10" /><path style="fill:none;stroke:#4c4c4c;stroke-width:2" d="M319,127 l-60,-8" /><path style="fill:none;stroke:#4c4c4c;stroke-width:2" d="M315,153 l-60,-10" /><path style="fill:none;stroke:#4c4c4c;stroke-width:2" d="M253,153 l62,10" /><path style="fill:none;stroke:#4c4c4c;stroke-width:2" d="M313,177 l-62,-8" /><path style="fill:none;stroke:#4c4c4c;stroke-width:2" d="M249,179 l62,8" /><path style="fill:none;stroke:#4c4c4c;stroke-width:2" d="M309,203 l-62,-8" /><path style="fill:none;stroke:#4c4c4c;stroke-width:2" d="M257,129 l62,8" /><path style="fill:none;stroke:#4c4c4c;stroke-width:2" d="M295,46 l10,1" /><path style="fill:none;stroke:#4c4c4c;stroke-width:2" d="M309,28 l-10,-3" /><path style="fill:none;stroke:#4c4c4c;stroke-width:2" d="M0,63 l25,-4 -1,-9 15,-3 -4,-19 -3,0 -4,-24 19,-4 4,25 -4,0 3,22 15,-4 0,11 27,-4 1,15 -13,2 0,10 16,-2 1,17 -13,1 0,10 15,-2 2,14 -16,4 3,10 15,-2 2,14 -16,2 3,10 15,-2 2,16 -16,2 3,10 15,-2 2,16 -16,2 10,66 -60,8 -10,-66 -16,4 -1,-16 15,-2 -2,-10 -16,2 -1,-16 16,-2 -3,-10 -16,2 -1,-14 16,-4 -3,-10 -16,2 -1,-14 16,-2 -3,-12 -16,4 -1,-16 16,-1 -3,-11 -13,3 -4,-17" /><path style="fill:none;stroke:#4c4c4c;stroke-width:2" d="M25,59 l40,-5" /><path style="fill:none;stroke:#4c4c4c;stroke-width:2" d="M80,67 l-63,10" /><path style="fill:none;stroke:#4c4c4c;stroke-width:2" d="M20,88 l60,-11" /><path style="fill:none;stroke:#4c4c4c;stroke-width:2" d="M84,93 l-63,8" /><path style="fill:none;stroke:#4c4c4c;stroke-width:2" d="M24,113 l60,-10" /><path style="fill:none;stroke:#4c4c4c;stroke-width:2" d="M85,119 l-60,8" /><path style="fill:none;stroke:#4c4c4c;stroke-width:2" d="M89,143 l-60,10" /><path style="fill:none;stroke:#4c4c4c;stroke-width:2" d="M32,163 l60,-10" /><path style="fill:none;stroke:#4c4c4c;stroke-width:2" d="M93,169 l-60,8" /><path style="fill:none;stroke:#4c4c4c;stroke-width:2" d="M35,187 l61,-8" /><path style="fill:none;stroke:#4c4c4c;stroke-width:2" d="M97,195 l-60,8" /><path style="fill:none;stroke:#4c4c4c;stroke-width:2" d="M28,137 l60,-8" /><path style="fill:none;stroke:#4c4c4c;stroke-width:2" d="M39,47 l11,0" /><path style="fill:none;stroke:#4c4c4c;stroke-width:2" d="M47,25 l-12,3" /><path style="fill:none;stroke:#4c4c4c;stroke-width:2" d="M231,259 l72,12 -8,50 -70,-10 6,-52" /><path style="fill:none;stroke:#4c4c4c;stroke-width:2" d="M42,271 l71,-12 9,52 -72,10 -8,-50" /><path style="fill:#b2b2b2" d="M295,321 l0,66 32,0 0,16 -32,0 0,596 -245,0 0,-340 0,-256 -30,0 0,-16 30,0 0,-66 0,-4 8,-4 15,-4 23,-4 27,-4 32,0 32,0 32,0 28,4 24,4 16,4 8,4 0,4z" /><path style="fill:#bababa" d="M281,321 l0,66 28,0 0,16 -28,0 0,596 -218,0 0,-596 -26,0 0,-16 26,0 0,-66 0,-4 8,-4 14,-6 20,-2 24,-4 28,-2 30,0 26,2 26,4 20,2 14,6 8,4 0,4z" /><path style="fill:#c2c2c2" d="M267,321 l0,66 24,0 0,16 -24,0 0,596 -190,0 0,-596 -22,0 0,-16 22,0 0,-66 0,-4 7,-4 13,-6 16,-2 22,-4 24,-2 26,0 24,2 20,4 18,2 12,6 8,4 0,4z" /><path style="fill:#c9c9c9" d="M253,321 l0,66 20,0 0,16 -22,0 0,596 -159,0 0,-596 -19,0 0,-16 19,0 0,-66 0,-4 5,-4 10,-6 16,-2 18,-4 20,-2 22,0 20,2 18,4 16,2 10,6 4,4 2,4z" /><path style="fill:#d1d1d1" d="M239,321 l0,66 16,0 0,16 -18,0 0,596 -130,0 0,-596 -15,0 0,-16 15,0 0,-66 0,-4 4,-4 8,-6 12,-2 16,-4 16,-2 18,0 16,2 16,4 12,2 8,6 4,4 2,4z" /><path style="fill:#dbdbdb" d="M223,321 l0,66 14,0 0,16 -14,0 0,596 -101,0 0,-596 -13,0 0,-16 13,0 0,-66 0,-4 4,-4 5,-6 10,-2 12,-4 12,-2 14,0 14,2 10,4 10,2 8,6 2,4 0,4z" /><path style="fill:#e3e3e3" d="M209,321 l0,66 10,0 0,16 -10,0 0,596 -74,0 0,-596 -8,0 0,-16 8,0 0,-66 0,-4 4,-4 4,-6 6,-2 8,-4 10,-2 10,0 10,2 8,4 6,2 6,6 2,4 0,4z" /><path style="fill:#ebebeb" d="M195,321 l0,66 6,0 0,16 -6,0 0,596 -46,0 0,-596 -4,0 0,-16 4,0 0,-66 0,-4 2,-4 4,-6 4,-2 4,-4 6,-2 6,0 6,2 6,4 4,2 2,6 2,4 0,4z" /><path style="fill:#f2f2f2" d="M181,321 l0,66 2,0 0,16 -2,0 0,596 -16,0 0,-340 0,-256 -2,0 0,-16 2,0 0,-66 0,-4 0,-4 0,-4 2,-4 2,-4 2,0 2,0 2,0 2,4 2,4 0,4 2,4 0,4z" /><path style="fill:none;stroke:#4c4c4c;stroke-width:2" d="M295,321 l0,66 32,0 0,16 -32,0 0,596 -245,0 0,-340 0,-256 -30,0 0,-16 30,0 0,-66 0,-4 8,-4 15,-4 23,-4 27,-4 32,0 32,0 32,0 28,4 24,4 16,4 8,4 0,4" /><path style="fill:none;stroke:#4c4c4c;stroke-width:2" d="M50,387 l245,0" /><path style="fill:none;stroke:#4c4c4c;stroke-width:2" d="M50,403 l245,0" /><path style="fill:#7f7f7f;stroke:#4c4c4c;stroke-width:2" d="M39,403 l20,0 0,10 -20,0 0,-10z" /><path style="fill:#7f7f7f;stroke:#4c4c4c;stroke-width:2" d="M193,367 l10,0 0,20 -10,0 0,-20z" /><path style="fill:#7f7f7f;stroke:#4c4c4c;stroke-width:2" d="M141,367 l10,0 0,20 -10,0 0,-20z" /><path style="fill:#7f7f7f;stroke:#4c4c4c;stroke-width:2" d="M163,403 l20,0 0,10 -20,0 0,-10z" /><path style="fill:#7f7f7f;stroke:#4c4c4c;stroke-width:2" d="M285,403 l20,0 0,10 -20,0 0,-10z" /><path style="fill:#7f7f7f;stroke:#4c4c4c;stroke-width:2" d="M173,259 l10,0 16,42 -12,0 -14,-42z" /><path style="fill:#ccc;stroke:#4c4c4c;stroke-width:2" d="M141,311 l22,-52 10,0 -22,52 -20,10 -9,0 19,-10z" /></svg>