<!DOCTYPE svg PUBLIC "-//W3C//DTD SVG 20000303 Stylable//EN" "http://www.w3.org/TR/2000/03/WD-SVG-20000303/DTD/svg-20000303-stylable.dtd"[]><svg xmlns="http://www.w3.org/2000/svg" width="782px" height="999px" viewBox="0 0 770 999"><path style="fill:#ccc" d="M0,104 l663,0 0,895 -663,0 0,-895z" /><path style="fill:#c7c7c7" d="M0,738 l663,-373 0,634 -663,0 0,-261z" /><path style="fill:#c2c2c2" d="M0,776 l663,-373 0,596 -663,0 0,-223z" /><path style="fill:#bdbdbd" d="M0,833 l663,-374 0,540 -663,0 0,-166z" /><path style="fill:none;stroke:#4c4c4c;stroke-width:2" d="M0,104 l663,0 0,895 -663,0 0,-895" /><path style="fill:#b2b2b2;stroke:#4c4c4c;stroke-width:2" d="M0,104 l663,0 107,-104 -666,0 -104,104z" /><path style="fill:#7f7f7f;stroke:#4c4c4c;stroke-width:2" d="M768,0 l-105,104 0,892 105,-105 0,-891z" /><path style="fill:#b2b2b2;stroke:#4c4c4c;stroke-width:2" d="M602,518 l48,0 0,77 -48,0 0,-77z" /><path style="fill:#f0f0f0;stroke:#4c4c4c;stroke-width:2" d="M602,549 l48,0 0,15 -48,0 0,-15z" /><path style="fill:#f0f0f0;stroke:#4c4c4c;stroke-width:2" d="M48,129 l566,0 0,51 -566,0 0,-51z" /><path style="fill:#f0f0f0;stroke:#4c4c4c;stroke-width:2" d="M48,159 l566,0 0,8 -566,0 0,-8z" /><path style="fill:#000;fill-rule:evenodd" d="M331,403 l6,4 0,0 25,-26 -12,-10 31,-4 -19,-17 5,-6 17,17 16,-19 -2,-5 2,-2 -16,-18 -17,16 -5,-4 19,-19 -31,-4 11,-11 -26,-25 -4,2 -4,-2 -25,25 10,11 -29,4 19,19 -7,4 -14,-16 -19,18 2,2 -2,5 19,19 14,-17 7,6 -19,17 29,4 -10,10 23,23 6,-1z M342,413 l0,0 -5,6 -6,4 -8,-4 -2,-6 0,-2 -26,-23 -10,10 -4,-29 -17,17 -7,-5 18,-14 -19,-19 -3,0 -8,-2 -2,-9 2,-6 8,-4 4,2 18,-17 -18,-17 7,-4 17,19 4,-29 10,10 28,-25 -2,-4 2,-9 8,-2 6,2 5,9 -3,2 28,27 10,-10 4,29 19,-19 4,4 -16,17 16,17 5,-2 8,4 2,6 -2,9 -8,2 -2,0 -19,19 16,14 -4,5 -19,-17 -4,29 -10,-10 -25,25z " /><path style="fill:#000;stroke:#4c4c4c;stroke-width:2" d="M195,484 l14,5 5,14 -5,13 -14,6 -13,-6 -6,-13 6,-14 13,-5z" /><path style="fill:#000;stroke:#4c4c4c;stroke-width:2" d="M281,484 l13,5 6,14 -6,13 -13,6 -13,-6 -6,-13 6,-14 13,-5z" /><path style="fill:#000;stroke:#4c4c4c;stroke-width:2" d="M371,484 l13,5 6,14 -6,13 -13,6 -15,-6 -4,-13 4,-14 15,-5z" /><path style="fill:#000;stroke:#4c4c4c;stroke-width:2" d="M459,484 l-12,5 -7,14 7,13 12,6 15,-6 4,-13 -4,-14 -15,-5z" /><path style="fill:#000;stroke:#4c4c4c;stroke-width:2" d="M298,681 l-13,5 -6,14 6,13 13,6 14,-6 6,-13 -6,-14 -14,-5z" /><path style="fill:#000;stroke:#4c4c4c;stroke-width:2" d="M362,681 l-12,5 -6,14 6,13 12,6 15,-6 4,-13 -4,-14 -15,-5z" /><path style="fill:#f00" d="M298,686 l-9,4 -4,10 4,11 9,4 10,-4 4,-11 -4,-10 -10,-4z" /><path style="fill:#0f0" d="M362,686 l-10,4 -4,10 4,11 10,4 11,-4 4,-11 -4,-10 -11,-4z" /><path style="fill:#e0e0e0" d="M201,489 l4,1 -16,26 -5,-2 17,-25z" /><path style="fill:#e0e0e0" d="M287,489 l4,1 -16,26 -5,-2 17,-25z" /><path style="fill:#e0e0e0" d="M377,489 l4,1 -16,26 -4,-2 16,-25z" /><path style="fill:#e0e0e0" d="M453,489 l-2,1 14,26 5,-2 -17,-25z" /><path style="fill:#000" d="M285,564 l88,0 -12,50 -59,0 -17,-50z" /><path style="fill:#fff;stroke:#4c4c4c;stroke-width:2" d="M294,568 l73,0 -6,30 -59,0 -8,-30z" /><path style="fill:none;stroke:#4c4c4c;stroke-width:2" d="M337,576 l-8,22" /><path style="fill:none;stroke:#4c4c4c;stroke-width:2" d="M298,570 l0,6" /><path style="fill:none;stroke:#4c4c4c;stroke-width:2" d="M306,570 l0,6" /><path style="fill:none;stroke:#4c4c4c;stroke-width:2" d="M314,570 l0,6" /><path style="fill:none;stroke:#4c4c4c;stroke-width:2" d="M323,570 l0,6" /><path style="fill:none;stroke:#4c4c4c;stroke-width:2" d="M331,570 l0,6" /><path style="fill:none;stroke:#4c4c4c;stroke-width:2" d="M339,570 l0,6" /><path style="fill:none;stroke:#4c4c4c;stroke-width:2" d="M348,570 l0,6" /><path style="fill:none;stroke:#4c4c4c;stroke-width:2" d="M356,570 l0,6" /><path style="fill:none;stroke:#4c4c4c;stroke-width:2" d="M365,570 l0,6" /><path style="fill:#7f7f7f;stroke:#4c4c4c;stroke-width:2" d="M680,85 l-17,17 0,894 17,-16 0,-895z" /><path style="fill:#b2b2b2;stroke:#4c4c4c;stroke-width:2" d="M0,102 l663,0 17,-17 -664,0 -16,17z" /><path style="fill:none;stroke:#fff;stroke-width:2" d="M174,451 l0,-221 312,0" /><path style="fill:none;stroke:#999;stroke-width:2" d="M174,451 l312,0 0,-221" /></svg>