<!DOCTYPE svg PUBLIC "-//W3C//DTD SVG 20000303 Stylable//EN" "http://www.w3.org/TR/2000/03/WD-SVG-20000303/DTD/svg-20000303-stylable.dtd"[]><svg xmlns="http://www.w3.org/2000/svg" width="910px" height="999px" viewBox="0 0 905 999"><path style="fill:#f2e5cc" d="M0,36 l835,0 0,834 -835,0 0,-834z" /><path style="fill:#ede0c7" d="M0,629 l835,-350 0,591 -835,0 0,-241z" /><path style="fill:#e8dbc2" d="M0,663 l835,-350 0,557 -835,0 0,-207z" /><path style="fill:#e3d6bd" d="M0,715 l835,-350 0,505 -835,0 0,-155z" /><path style="fill:none;stroke:#4c4c4c;stroke-width:2" d="M0,36 l835,0 0,834 -835,0 0,-834" /><path style="fill:#51607f" d="M115,499 l604,0 0,186 -604,0 0,-186z" /><path style="fill:#d94000" d="M165,585 l42,0 0,42 -42,0 0,-42z" /><path style="fill:#333" d="M165,523 l42,0 0,42 -42,0 0,-42z" /><path style="fill:#d94000" d="M479,523 l76,0 0,24 -76,0 0,-24z" /><path style="fill:#000" d="M487,557 l24,0 0,24 -24,0 0,-24z" /><path style="fill:#000" d="M521,557 l24,0 0,24 -24,0 0,-24z" /><path style="fill:#000" d="M487,589 l24,0 0,26 -24,0 0,-26z" /><path style="fill:#000" d="M521,589 l24,0 0,26 -24,0 0,-26z" /><path style="fill:#d94000" d="M597,523 l76,0 0,24 -76,0 0,-24z" /><path style="fill:#000" d="M605,557 l26,0 0,24 -26,0 0,-24z" /><path style="fill:#000" d="M639,557 l26,0 0,24 -26,0 0,-24z" /><path style="fill:#000" d="M605,589 l26,0 0,26 -26,0 0,-26z" /><path style="fill:#000" d="M639,589 l26,0 0,26 -26,0 0,-26z" /><path style="fill:#000" d="M231,557 l26,0 0,24 -26,0 0,-24z" /><path style="fill:#000" d="M231,589 l26,0 0,26 -26,0 0,-26z" /><path style="fill:none;stroke:#fff;stroke-width:2" d="M499,511 l34,0" /><path style="fill:none;stroke:#fff;stroke-width:2" d="M615,511 l34,0" /><path style="fill:none;stroke:#fff;stroke-width:2" d="M533,661 l152,0" /><path style="fill:#51607f" d="M115,231 l604,0 0,186 -604,0 0,-186z" /><path style="fill:#d94000" d="M165,317 l42,0 0,42 -42,0 0,-42z" /><path style="fill:#333" d="M165,255 l42,0 0,42 -42,0 0,-42z" /><path style="fill:#d94000" d="M479,255 l76,0 0,26 -76,0 0,-26z" /><path style="fill:#000" d="M487,289 l24,0 0,26 -24,0 0,-26z" /><path style="fill:#000" d="M521,289 l24,0 0,26 -24,0 0,-26z" /><path style="fill:#000" d="M487,323 l24,0 0,24 -24,0 0,-24z" /><path style="fill:#000" d="M521,323 l24,0 0,24 -24,0 0,-24z" /><path style="fill:#d94000" d="M597,255 l76,0 0,26 -76,0 0,-26z" /><path style="fill:#000" d="M605,289 l26,0 0,26 -26,0 0,-26z" /><path style="fill:#000" d="M639,289 l26,0 0,26 -26,0 0,-26z" /><path style="fill:#000" d="M605,323 l26,0 0,24 -26,0 0,-24z" /><path style="fill:#000" d="M639,323 l26,0 0,24 -26,0 0,-24z" /><path style="fill:#000" d="M231,289 l26,0 0,26 -26,0 0,-26z" /><path style="fill:#000" d="M231,323 l26,0 0,24 -26,0 0,-24z" /><path style="fill:none;stroke:#fff;stroke-width:2" d="M499,243 l34,0" /><path style="fill:none;stroke:#fff;stroke-width:2" d="M615,243 l34,0" /><path style="fill:none;stroke:#fff;stroke-width:2" d="M533,395 l152,0" /><path style="fill:#e5cb98;stroke:#4c4c4c;stroke-width:2" d="M109,870 l92,0 0,129 -92,0 0,-129z" /><path style="fill:#e5cb98;stroke:#4c4c4c;stroke-width:2" d="M271,870 l94,0 0,129 -94,0 0,-129z" /><path style="fill:#e5cb98;stroke:#4c4c4c;stroke-width:2" d="M505,870 l92,0 0,129 -92,0 0,-129z" /><path style="fill:#e5cb98;stroke:#4c4c4c;stroke-width:2" d="M667,870 l92,0 0,129 -92,0 0,-129z" /><circle style="fill:#333" cx="156" cy="929" r="22" /><circle style="fill:#333" cx="318" cy="929" r="23" /><circle style="fill:#333" cx="550" cy="929" r="23" /><circle style="fill:#333" cx="714" cy="929" r="23" /><path style="fill:#bfb299;stroke:#4c4c4c;stroke-width:2" d="M201,999 l12,-6 0,-123 -12,0 0,129z" /><path style="fill:#bfb299;stroke:#4c4c4c;stroke-width:2" d="M365,999 l12,-6 0,-123 -12,0 0,129z" /><path style="fill:#bfb299;stroke:#4c4c4c;stroke-width:2" d="M597,999 l12,-6 0,-123 -12,0 0,129z" /><path style="fill:#bfb299;stroke:#4c4c4c;stroke-width:2" d="M759,999 l11,-6 0,-123 -11,0 0,129z" /><path style="fill:#bfb299;stroke:#4c4c4c;stroke-width:2" d="M905,0 l-70,36 0,834 70,-35 0,-835z" /><path style="fill:#faf5eb;stroke:#4c4c4c;stroke-width:2" d="M905,0 l-70,36 -835,0 69,-36 836,0z" /></svg>