<!DOCTYPE svg PUBLIC "-//W3C//DTD SVG 20000303 Stylable//EN" "http://www.w3.org/TR/2000/03/WD-SVG-20000303/DTD/svg-20000303-stylable.dtd"[]><svg xmlns="http://www.w3.org/2000/svg" width="321px" height="999px" viewBox="0 0 280 999"><path style="fill:#191919;stroke:#7f7f7f;stroke-width:2" d="M15,148 l250,0 0,132 -250,0 0,-132z" /><path style="fill:#333;stroke:#7f7f7f;stroke-width:2" d="M15,0 l250,0 0,148 -250,0 0,-148z" /><path style="fill:#4c4c4c" d="M23,124 l234,0 0,47 -234,0 0,-47z" /><path style="fill:#000;stroke:#4c4c4c;stroke-width:2" d="M15,343 l250,0 0,656 -250,0 0,-656z" /><path style="fill:#000;stroke:#4c4c4c;stroke-width:2" d="M23,280 l234,0 0,32 -234,0 0,-32z" /><path style="fill:#000;stroke:#4c4c4c;stroke-width:2" d="M30,163 l11,0 0,102 -11,0 0,-102z" /><path style="fill:#000;stroke:#4c4c4c;stroke-width:2" d="M72,163 l11,0 0,102 -11,0 0,-102z" /><path style="fill:#000;stroke:#4c4c4c;stroke-width:2" d="M113,163 l11,0 0,102 -11,0 0,-102z" /><path style="fill:#000;stroke:#4c4c4c;stroke-width:2" d="M155,163 l11,0 0,102 -11,0 0,-102z" /><path style="fill:#000;stroke:#4c4c4c;stroke-width:2" d="M197,163 l11,0 0,102 -11,0 0,-102z" /><path style="fill:#000;stroke:#4c4c4c;stroke-width:2" d="M238,163 l11,0 0,102 -11,0 0,-102z" /><path style="fill:#000;stroke:#4c4c4c;stroke-width:2" d="M52,163 l11,0 0,102 -11,0 0,-102z" /><path style="fill:#000;stroke:#4c4c4c;stroke-width:2" d="M93,163 l11,0 0,102 -11,0 0,-102z" /><path style="fill:#000;stroke:#4c4c4c;stroke-width:2" d="M135,163 l11,0 0,102 -11,0 0,-102z" /><path style="fill:#000;stroke:#4c4c4c;stroke-width:2" d="M177,163 l11,0 0,102 -11,0 0,-102z" /><path style="fill:#000;stroke:#4c4c4c;stroke-width:2" d="M218,163 l11,0 0,102 -11,0 0,-102z" /><path style="fill:#000;stroke:#4c4c4c;stroke-width:2" d="M30,77 l11,0 0,55 -11,0 0,-55z" /><path style="fill:#000;stroke:#4c4c4c;stroke-width:2" d="M72,77 l10,0 0,55 -10,0 0,-55z" /><path style="fill:#000;stroke:#4c4c4c;stroke-width:2" d="M113,77 l11,0 0,55 -11,0 0,-55z" /><path style="fill:#000;stroke:#4c4c4c;stroke-width:2" d="M155,77 l11,0 0,55 -11,0 0,-55z" /><path style="fill:#000;stroke:#4c4c4c;stroke-width:2" d="M197,77 l11,0 0,55 -11,0 0,-55z" /><path style="fill:#000;stroke:#4c4c4c;stroke-width:2" d="M238,77 l11,0 0,55 -11,0 0,-55z" /><path style="fill:#000;stroke:#4c4c4c;stroke-width:2" d="M52,77 l10,0 0,55 -10,0 0,-55z" /><path style="fill:#000;stroke:#4c4c4c;stroke-width:2" d="M93,77 l11,0 0,55 -11,0 0,-55z" /><path style="fill:#000;stroke:#4c4c4c;stroke-width:2" d="M135,77 l11,0 0,55 -11,0 0,-55z" /><path style="fill:#000;stroke:#4c4c4c;stroke-width:2" d="M177,77 l11,0 0,55 -11,0 0,-55z" /><path style="fill:#000;stroke:#4c4c4c;stroke-width:2" d="M218,77 l11,0 0,55 -11,0 0,-55z" /><path style="fill:#000;stroke:#4c4c4c;stroke-width:2" d="M38,15 l10,0 0,51 -10,0 0,-51z" /><path style="fill:#000;stroke:#4c4c4c;stroke-width:2" d="M77,15 l10,0 0,51 -10,0 0,-51z" /><path style="fill:#000;stroke:#4c4c4c;stroke-width:2" d="M115,15 l10,0 0,51 -10,0 0,-51z" /><path style="fill:#000;stroke:#4c4c4c;stroke-width:2" d="M154,15 l10,0 0,51 -10,0 0,-51z" /><path style="fill:#000;stroke:#4c4c4c;stroke-width:2" d="M193,15 l10,0 0,51 -10,0 0,-51z" /><path style="fill:#000;stroke:#4c4c4c;stroke-width:2" d="M231,15 l10,0 0,51 -10,0 0,-51z" /><path style="fill:#000;stroke:#4c4c4c;stroke-width:2" d="M58,15 l10,0 0,51 -10,0 0,-51z" /><path style="fill:#000;stroke:#4c4c4c;stroke-width:2" d="M97,15 l10,0 0,51 -10,0 0,-51z" /><path style="fill:#000;stroke:#4c4c4c;stroke-width:2" d="M135,15 l10,0 0,51 -10,0 0,-51z" /><path style="fill:#000;stroke:#4c4c4c;stroke-width:2" d="M174,15 l10,0 0,51 -10,0 0,-51z" /><path style="fill:#000;stroke:#4c4c4c;stroke-width:2" d="M213,15 l10,0 0,51 -10,0 0,-51z" /><path style="fill:#fff" d="M93,343 l16,0 0,47 -16,0 0,-47z" /><path style="fill:#fff" d="M62,343 l15,0 0,47 -15,0 0,-47z" /><circle style="fill:#7f7f7f" cx="38" cy="382" r="8" /><path style="fill:#cc3" d="M187,437 l62,0 0,54 -62,0 0,-54z" /><path style="fill:none;stroke:#4c4c4c;stroke-width:2" d="M218,475 l4,-8 -8,0 4,-7" /><path style="fill:none;stroke:#4c4c4c;stroke-width:2" d="M194,484 l24,-39 23,39 -47,0" /><path style="fill:#000;stroke:#7f7f7f;stroke-width:2" d="M54,725 l47,0 0,117 -47,0 0,-117z" /><path style="fill:#333;stroke:#7f7f7f;stroke-width:2" d="M0,312 l280,0 0,31 -280,0 0,-31z" /><path style="fill:none;stroke:#4c4c4c;stroke-width:2" d="M0,343 l280,0" /><path style="fill:#006" d="M264,710 l-2,-14 -4,-13 -6,-12 -9,-10 -10,-9 -12,-6 -13,-4 -14,-2 0,14 11,2 10,3 10,5 8,7 7,8 5,10 3,10 2,11z" /><path style="fill:#006" d="M194,779 l14,-1 13,-4 12,-6 10,-9 8,-10 7,-12 4,-13 2,-14 -14,0 -2,11 -3,11 -5,9 -7,8 -8,7 -9,5 -11,3 -11,1z" /><path style="fill:#006" d="M125,710 l1,14 4,13 7,12 8,10 11,9 12,6 12,4 14,1 0,-14 -11,-1 -10,-3 -9,-5 -9,-7 -7,-8 -5,-9 -3,-11 -1,-11z" /><path style="fill:#006" d="M194,640 l-14,2 -13,4 -11,6 -11,9 -8,10 -7,12 -4,13 -1,14 14,0 1,-11 3,-10 6,-10 6,-8 9,-7 9,-5 10,-3 11,-2z" /><path style="fill:#006" d="M194,647 l-7,0 0,125 14,0 0,-125 -7,0z" /><path style="fill:#006" d="M155,671 l-6,11 39,62 12,-7 -39,-62 -6,10 0,-14 -12,0 6,11z" /><path style="fill:#006" d="M239,682 l-6,-11 -78,0 0,14 78,0 -6,-10 12,7 7,-11 -13,0z" /><path style="fill:#006" d="M188,744 l12,0 39,-62 -12,-7 -39,62 12,0 -12,7 6,10 6,-10z" /><path style="fill:#006" d="M249,717 l0,-7 -39,0 0,14 39,0 0,-7z" /><path style="fill:#006" d="M233,741 l0,-7 -78,0 0,14 78,0 0,-7z" /><path style="fill:none;stroke:#fff;stroke-width:2" d="M54,842 l0,-117 47,0" /></svg>