<!DOCTYPE svg PUBLIC "-//W3C//DTD SVG 20000303 Stylable//EN" "http://www.w3.org/TR/2000/03/WD-SVG-20000303/DTD/svg-20000303-stylable.dtd"[]><svg xmlns="http://www.w3.org/2000/svg" width="822px" height="999px" viewBox="0 0 811 999"><path style="fill:#f60;stroke:#4c4c4c;stroke-width:2" d="M304,873 l483,0 0,94 -483,0 0,-94z" /><path style="fill:#000;fill-rule:evenodd" d="M15,0 l0,999 250,-1 0,-124 530,0 0,-874 -780,0z M756,905 l3,0 3,1 3,1 2,2 2,3 1,2 1,3 1,3 -1,3 -1,3 -1,3 -2,2 -2,2 -3,2 -3,0 -3,1 -3,-1 -3,0 -3,-2 -2,-2 -2,-2 -2,-3 0,-3 -1,-3 1,-3 0,-3 2,-2 2,-3 2,-2 3,-1 3,-1 3,0z M709,905 l3,0 3,1 3,1 2,2 2,3 2,2 1,3 0,3 0,3 -1,3 -2,3 -2,2 -2,2 -3,2 -3,0 -3,1 -3,-1 -3,0 -2,-2 -3,-2 -2,-2 -1,-3 -1,-3 0,-3 0,-3 1,-3 1,-2 2,-3 3,-2 2,-1 3,-1 3,0z M662,905 l3,0 3,1 3,1 2,2 2,3 1,2 1,3 1,3 -1,3 -1,3 -1,3 -2,2 -2,2 -3,2 -3,0 -3,1 -3,-1 -3,0 -2,-2 -3,-2 -2,-2 -1,-3 -1,-3 0,-3 0,-3 1,-3 1,-2 2,-3 3,-2 2,-1 3,-1 3,0z M616,905 l3,0 3,1 3,1 2,2 2,3 1,2 1,3 1,3 -1,3 -1,3 -1,3 -2,2 -2,2 -3,2 -3,0 -3,1 -3,-1 -3,0 -3,-2 -2,-2 -2,-2 -2,-3 0,-3 -1,-3 1,-3 0,-3 2,-2 2,-3 2,-2 3,-1 3,-1 3,0z M569,905 l3,0 3,1 3,1 2,2 2,3 1,2 1,3 1,3 -1,3 -1,3 -1,3 -2,2 -2,2 -3,2 -3,0 -3,1 -3,-1 -3,0 -3,-2 -2,-2 -2,-2 -2,-3 0,-3 -1,-3 1,-3 0,-3 2,-2 2,-3 2,-2 3,-1 3,-1 3,0z M522,905 l3,0 3,1 3,1 2,2 2,3 2,2 1,3 0,3 0,3 -1,3 -2,3 -2,2 -2,2 -3,2 -3,0 -3,1 -3,-1 -3,0 -2,-2 -3,-2 -2,-2 -1,-3 -1,-3 0,-3 0,-3 1,-3 1,-2 2,-3 3,-2 2,-1 3,-1 3,0z M475,905 l3,0 3,1 3,1 2,2 2,3 1,2 1,3 1,3 -1,3 -1,3 -1,3 -2,2 -2,2 -3,2 -3,0 -3,1 -3,-1 -3,0 -3,-2 -2,-2 -2,-2 -2,-3 0,-3 -1,-3 1,-3 0,-3 2,-2 2,-3 2,-2 3,-1 3,-1 3,0z M428,905 l3,0 3,1 3,1 2,2 2,3 2,2 1,3 0,3 0,3 -1,3 -2,3 -2,2 -2,2 -3,2 -3,0 -3,1 -3,-1 -3,0 -2,-2 -3,-2 -2,-2 -1,-3 -1,-3 0,-3 0,-3 1,-3 1,-2 2,-3 3,-2 2,-1 3,-1 3,0z M381,905 l3,0 3,1 3,1 2,2 2,3 2,2 1,3 0,3 0,3 -1,3 -2,3 -2,2 -2,2 -3,2 -3,0 -3,1 -3,-1 -3,0 -2,-2 -3,-2 -2,-2 -1,-3 -1,-3 0,-3 0,-3 1,-3 1,-2 2,-3 3,-2 2,-1 3,-1 3,0z M335,905 l3,0 3,1 3,1 2,2 2,3 1,2 1,3 1,3 -1,3 -1,3 -1,3 -2,2 -2,2 -3,2 -3,0 -3,1 -3,-1 -3,0 -2,-2 -3,-2 -2,-2 -1,-3 -1,-3 0,-3 0,-3 1,-3 1,-2 2,-3 3,-2 2,-1 3,-1 3,0z " /><path style="fill:none;stroke:#4c4c4c;stroke-width:2" d="M15,0 l0,999 250,-1 0,-124 530,0 0,-874 -780,0" /><circle style="fill:none;stroke:#4c4c4c;stroke-width:2" cx="756" cy="920" r="16" /><circle style="fill:none;stroke:#4c4c4c;stroke-width:2" cx="709" cy="920" r="15" /><circle style="fill:none;stroke:#4c4c4c;stroke-width:2" cx="662" cy="920" r="15" /><circle style="fill:none;stroke:#4c4c4c;stroke-width:2" cx="616" cy="920" r="16" /><circle style="fill:none;stroke:#4c4c4c;stroke-width:2" cx="569" cy="920" r="16" /><circle style="fill:none;stroke:#4c4c4c;stroke-width:2" cx="522" cy="920" r="15" /><circle style="fill:none;stroke:#4c4c4c;stroke-width:2" cx="475" cy="920" r="16" /><circle style="fill:none;stroke:#4c4c4c;stroke-width:2" cx="428" cy="920" r="15" /><circle style="fill:none;stroke:#4c4c4c;stroke-width:2" cx="381" cy="920" r="15" /><circle style="fill:none;stroke:#4c4c4c;stroke-width:2" cx="335" cy="920" r="15" /><path style="fill:#191919;stroke:#4c4c4c;stroke-width:2" d="M265,999 l-250,0 0,-999 250,0 0,999z" /><path style="fill:#cc3;stroke:#4c4c4c;stroke-width:2" d="M0,249 l811,0 0,499 -811,0 0,-499z" /><path style="fill:#ff0;stroke:#4c4c4c;stroke-width:2" d="M748,764 l63,0 0,-530 -63,0 0,530z" /><path style="fill:#ff0;stroke:#4c4c4c;stroke-width:2" d="M0,764 l62,0 0,-530 -62,0 0,530z" /><path style="fill:#ff0;stroke:#4c4c4c;stroke-width:2" d="M116,234 l16,0 0,530 -16,0 0,-530z" /><path style="fill:#ff0;stroke:#4c4c4c;stroke-width:2" d="M179,234 l16,0 0,530 -16,0 0,-530z" /><path style="fill:#ff0;stroke:#4c4c4c;stroke-width:2" d="M241,234 l16,0 0,530 -16,0 0,-530z" /><path style="fill:#ff0;stroke:#4c4c4c;stroke-width:2" d="M304,234 l16,0 0,530 -16,0 0,-530z" /><path style="fill:#ff0;stroke:#4c4c4c;stroke-width:2" d="M366,234 l16,0 0,530 -16,0 0,-530z" /><path style="fill:#ff0;stroke:#4c4c4c;stroke-width:2" d="M428,234 l16,0 0,530 -16,0 0,-530z" /><path style="fill:#ff0;stroke:#4c4c4c;stroke-width:2" d="M491,234 l16,0 0,530 -16,0 0,-530z" /><path style="fill:#ff0;stroke:#4c4c4c;stroke-width:2" d="M553,234 l16,0 0,530 -16,0 0,-530z" /><path style="fill:#ff0;stroke:#4c4c4c;stroke-width:2" d="M616,234 l16,0 0,530 -16,0 0,-530z" /><path style="fill:#ff0;stroke:#4c4c4c;stroke-width:2" d="M678,234 l16,0 0,530 -16,0 0,-530z" /><path style="fill:none;stroke:#7f7f7f;stroke-width:2" d="M795,218 l-780,0" /><path style="fill:none;stroke:#7f7f7f;stroke-width:2" d="M265,874 l-250,0" /><circle style="fill:#333;stroke:#ccc;stroke-width:2" cx="717" cy="93" r="31" /><circle style="fill:#333;stroke:#ccc;stroke-width:2" cx="592" cy="93" r="31" /><circle style="fill:#333;stroke:#ccc;stroke-width:2" cx="467" cy="93" r="31" /><circle style="fill:#333;stroke:#4c4c4c;stroke-width:2" cx="140" cy="156" r="31" /><circle style="fill:#000;stroke:#4c4c4c;stroke-width:2" cx="140" cy="156" r="16" /></svg>