<!DOCTYPE svg PUBLIC "-//W3C//DTD SVG 20000303 Stylable//EN" "http://www.w3.org/TR/2000/03/WD-SVG-20000303/DTD/svg-20000303-stylable.dtd"[]><svg xmlns="http://www.w3.org/2000/svg" width="595px" height="998px" viewBox="0 0 571 999"><path style="fill:#7f7f7f;stroke:#4c4c4c;stroke-width:2" d="M231,179 l0,-28 -18,0 0,-8 144,0 0,8 -18,0 0,28 -108,0z" /><path style="fill:#4c4c4c" d="M251,179 l0,-28 68,0 0,28 -68,0z" /><path style="fill:#7f6699" d="M143,962 l0,-695 88,-88 108,0 88,88 0,695 -284,0z" /><path style="fill:#876e9e" d="M159,962 l0,-695 80,-90 94,0 78,90 0,695 -252,0z" /><path style="fill:#8f78a6" d="M177,962 l0,-695 68,-90 82,0 68,90 0,695 -218,0z" /><path style="fill:#9782ab" d="M193,962 l0,-695 58,-90 70,0 56,90 0,695 -184,0z" /><path style="fill:#9e8cb2" d="M209,962 l0,-695 48,-90 56,0 48,90 0,695 -152,0z" /><path style="fill:#a694b8" d="M227,962 l0,-695 36,-90 44,0 38,90 0,695 -118,0z" /><path style="fill:#b09ebf" d="M243,962 l0,-695 26,-90 32,0 26,90 0,695 -84,0z" /><path style="fill:#b5a8c4" d="M259,962 l0,-695 16,-90 20,0 16,90 0,695 -52,0z" /><path style="fill:#bfb2cc" d="M277,962 l0,-695 4,-88 8,0 4,88 0,695 -16,0z" /><path style="fill:none;stroke:#4c4c4c;stroke-width:2" d="M143,962 l0,-695 88,-88 108,0 88,88 0,695 -284,0" /><path style="fill:none;stroke:#4c4c4c;stroke-width:2" d="M143,962 l284,0 0,37 -284,0 0,-37" /><path style="fill:#b299cc" d="M0,357 l0,-18 143,-54 284,0 144,54 0,18 -571,0z" /><path style="fill:#b299cc" d="M0,535 l0,-18 143,-54 284,0 144,54 0,18 -571,0z" /><path style="fill:#b299cc" d="M0,713 l0,-18 143,-52 284,0 144,52 0,18 -571,0z" /><path style="fill:#b299cc;stroke:#4c4c4c;stroke-width:2" d="M0,891 l0,-18 143,-52 284,0 144,52 0,18 -571,0z" /><path style="fill:#b299cc" d="M89,393 l392,0 0,34 -392,0 0,-34z" /><path style="fill:#b299cc" d="M89,571 l392,0 0,36 -392,0 0,-36z" /><path style="fill:#b299cc" d="M89,749 l392,0 0,36 -392,0 0,-36z" /><path style="fill:#b8a1cf" d="M111,391 l348,0 0,36 -348,0 0,-36z" /><path style="fill:#b8a1cf" d="M111,571 l348,0 0,36 -348,0 0,-36z" /><path style="fill:#b8a1cf" d="M111,749 l348,0 0,36 -348,0 0,-36z" /><path style="fill:#b8a1cf" d="M33,357 l0,-18 126,-54 252,0 126,54 0,18 -504,0z" /><path style="fill:#b8a1cf" d="M33,535 l0,-18 126,-54 252,0 126,54 0,18 -504,0z" /><path style="fill:#b8a1cf" d="M33,713 l0,-18 126,-54 252,0 126,54 0,18 -504,0z" /><path style="fill:#b8a1cf" d="M33,891 l0,-18 126,-52 252,0 126,52 0,18 -504,0z" /><path style="fill:#bda8d1" d="M67,357 l0,-18 110,-54 218,0 110,54 0,18 -438,0z" /><path style="fill:#bda8d1" d="M67,535 l0,-18 110,-54 218,0 110,54 0,18 -438,0z" /><path style="fill:#bda8d1" d="M67,713 l0,-18 110,-54 218,0 110,54 0,18 -438,0z" /><path style="fill:#bda8d1" d="M67,891 l0,-18 110,-52 218,0 110,52 0,18 -438,0z" /><path style="fill:#bda8d1" d="M133,391 l304,0 0,36 -304,0 0,-36z" /><path style="fill:#bda8d1" d="M133,571 l304,0 0,36 -304,0 0,-36z" /><path style="fill:#bda8d1" d="M133,749 l304,0 0,36 -304,0 0,-36z" /><path style="fill:#c4b2d6" d="M157,391 l258,0 0,36 -258,0 0,-36z" /><path style="fill:#c4b2d6" d="M157,571 l258,0 0,36 -258,0 0,-36z" /><path style="fill:#c4b2d6" d="M157,749 l258,0 0,36 -258,0 0,-36z" /><path style="fill:#c4b2d6" d="M101,357 l0,-18 92,-54 184,0 94,54 0,18 -370,0z" /><path style="fill:#c4b2d6" d="M101,535 l0,-18 92,-54 184,0 94,54 0,18 -370,0z" /><path style="fill:#c4b2d6" d="M101,713 l0,-18 92,-54 184,0 94,54 0,18 -370,0z" /><path style="fill:#c4b2d6" d="M101,891 l0,-18 92,-52 184,0 94,52 0,18 -370,0z" /><path style="fill:#cabad9" d="M133,357 l0,-18 76,-54 152,0 76,54 0,18 -304,0z" /><path style="fill:#cabad9" d="M133,535 l0,-18 76,-54 152,0 76,54 0,18 -304,0z" /><path style="fill:#cabad9" d="M133,713 l0,-18 76,-54 152,0 76,54 0,18 -304,0z" /><path style="fill:#cabad9" d="M133,891 l0,-18 76,-52 152,0 76,52 0,18 -304,0z" /><path style="fill:#cabad9" d="M179,391 l214,0 0,36 -214,0 0,-36z" /><path style="fill:#cabad9" d="M179,571 l214,0 0,36 -214,0 0,-36z" /><path style="fill:#cabad9" d="M179,749 l214,0 0,36 -214,0 0,-36z" /><path style="fill:#cec1db" d="M201,391 l170,0 0,36 -170,0 0,-36z" /><path style="fill:#cec1db" d="M201,571 l170,0 0,36 -170,0 0,-36z" /><path style="fill:#cec1db" d="M201,749 l170,0 0,36 -170,0 0,-36z" /><path style="fill:#cec1db" d="M167,357 l0,-18 58,-54 120,0 58,54 0,18 -236,0z" /><path style="fill:#cec1db" d="M167,535 l0,-18 58,-54 120,0 58,54 0,18 -236,0z" /><path style="fill:#cec1db" d="M167,713 l0,-18 58,-54 120,0 58,54 0,18 -236,0z" /><path style="fill:#cec1db" d="M167,891 l0,-18 58,-52 120,0 58,52 0,18 -236,0z" /><path style="fill:#d4cade" d="M201,357 l0,-18 42,-54 84,0 44,54 0,18 -170,0z" /><path style="fill:#d4cade" d="M201,535 l0,-18 42,-54 84,0 44,54 0,18 -170,0z" /><path style="fill:#d4cade" d="M201,713 l0,-18 42,-54 84,0 44,54 0,18 -170,0z" /><path style="fill:#d4cade" d="M201,891 l0,-18 42,-52 84,0 44,52 0,18 -170,0z" /><path style="fill:#d4cade" d="M223,391 l124,0 0,36 -124,0 0,-36z" /><path style="fill:#d4cade" d="M223,571 l124,0 0,36 -124,0 0,-36z" /><path style="fill:#d4cade" d="M223,749 l124,0 0,36 -124,0 0,-36z" /><path style="fill:#dbd4e3" d="M245,391 l80,0 0,36 -80,0 0,-36z" /><path style="fill:#dbd4e3" d="M245,571 l80,0 0,36 -80,0 0,-36z" /><path style="fill:#dbd4e3" d="M245,749 l80,0 0,36 -80,0 0,-36z" /><path style="fill:#dbd4e3" d="M233,357 l0,-18 26,-54 52,0 26,54 0,18 -104,0z" /><path style="fill:#dbd4e3" d="M233,535 l0,-18 26,-54 52,0 26,54 0,18 -104,0z" /><path style="fill:#dbd4e3" d="M233,713 l0,-18 26,-54 52,0 26,54 0,18 -104,0z" /><path style="fill:#dbd4e3" d="M233,891 l0,-18 26,-52 52,0 26,52 0,18 -104,0z" /><path style="fill:#e0dbe5" d="M267,357 l0,-18 8,-54 20,0 8,54 0,18 -36,0z" /><path style="fill:#e0dbe5" d="M267,535 l0,-18 8,-54 20,0 8,54 0,18 -36,0z" /><path style="fill:#e0dbe5" d="M267,713 l0,-18 8,-52 20,0 8,52 0,18 -36,0z" /><path style="fill:#e0dbe5" d="M267,891 l0,-18 8,-52 20,0 8,52 0,18 -36,0z" /><path style="fill:#e0dbe5" d="M267,393 l36,0 0,34 -36,0 0,-34z" /><path style="fill:#e0dbe5" d="M267,571 l36,0 0,36 -36,0 0,-36z" /><path style="fill:#e0dbe5" d="M267,749 l36,0 0,36 -36,0 0,-36z" /><path style="fill:#000" d="M143,962 l284,0 0,37 -284,0 0,-37z" /><path style="fill:none;stroke:#4c4c4c;stroke-width:2" d="M0,713 l0,-18 143,-52 284,0 144,52 0,18 -571,0" /><path style="fill:none;stroke:#4c4c4c;stroke-width:2" d="M0,535 l0,-18 143,-54 284,0 144,54 0,18 -571,0" /><path style="fill:none;stroke:#4c4c4c;stroke-width:2" d="M0,357 l0,-18 143,-54 284,0 144,54 0,18 -571,0" /><path style="fill:none;stroke:#4c4c4c;stroke-width:2" d="M89,749 l392,0 0,36 -392,0 0,-36" /><path style="fill:none;stroke:#4c4c4c;stroke-width:2" d="M89,571 l392,0 0,36 -392,0 0,-36" /><path style="fill:none;stroke:#4c4c4c;stroke-width:2" d="M89,393 l392,0 0,34 -392,0 0,-34" /><path style="fill:#171717" d="M159,962 l252,0 0,37 -252,0 0,-37z" /><path style="fill:#2b2b2b" d="M177,962 l218,0 0,37 -218,0 0,-37z" /><path style="fill:#424242" d="M193,962 l184,0 0,37 -184,0 0,-37z" /><path style="fill:#595959" d="M209,962 l152,0 0,37 -152,0 0,-37z" /><path style="fill:#707070" d="M227,962 l118,0 0,37 -118,0 0,-37z" /><path style="fill:#858585" d="M243,962 l84,0 0,37 -84,0 0,-37z" /><path style="fill:#9c9c9c" d="M259,962 l52,0 0,37 -52,0 0,-37z" /><path style="fill:#b2b2b2" d="M277,962 l16,0 0,37 -16,0 0,-37z" /><path style="fill:#7f7f7f;stroke:#4c4c4c;stroke-width:2" d="M241,143 l0,-27 88,0 0,27 -88,0z" /><path style="fill:#7f7f7f" d="M267,116 l0,-116 36,0 0,116 -36,0z" /><path style="fill:#999" d="M271,116 l0,-116 28,0 0,116 -28,0z" /><path style="fill:#b2b2b2" d="M275,116 l0,-116 20,0 0,116 -20,0z" /><path style="fill:#ccc" d="M279,116 l0,-116 12,0 0,116 -12,0z" /><path style="fill:#e5e5e5" d="M283,116 l0,-116 6,0 0,116 -6,0z" /><path style="fill:none;stroke:#4c4c4c;stroke-width:2" d="M267,116 l0,-116 36,0 0,116 -36,0" /></svg>