<!DOCTYPE svg PUBLIC "-//W3C//DTD SVG 20000303 Stylable//EN" "http://www.w3.org/TR/2000/03/WD-SVG-20000303/DTD/svg-20000303-stylable.dtd"[]><svg xmlns="http://www.w3.org/2000/svg" width="999px" height="634px" viewBox="0 0 999 612"><path style="fill:#9c9;stroke:#4c4c4c;stroke-width:2" d="M15,548 l773,0 0,64 -773,0 0,-64z" /><path style="fill:#9c9;stroke:#4c4c4c;stroke-width:2" d="M31,55 l467,0 0,493 -467,0 0,-493z" /><path style="fill:#9c9;stroke:#4c4c4c;stroke-width:2" d="M498,55 l290,0 0,493 -290,0 0,-493z" /><path style="fill:#9c9;stroke:#4c4c4c;stroke-width:2" d="M15,55 l16,0 0,493 -16,0 0,-493z" /><path style="fill:#9c9;stroke:#4c4c4c;stroke-width:2" d="M15,32 l773,0 0,23 -773,0 0,-23z" /><path style="fill:#b6f0bd;stroke:#4c4c4c;stroke-width:2" d="M839,71 l0,-39 58,0 -58,39z" /><path style="fill:#b6f0bd;stroke:#4c4c4c;stroke-width:2" d="M15,32 l48,-32 776,0 -51,32 -773,0z" /><path style="fill:#709e70;stroke:#4c4c4c;stroke-width:2" d="M788,32 l51,-32 0,580 -51,32 0,-580z" /><path style="fill:#709e70;stroke:#4c4c4c;stroke-width:2" d="M839,548 l58,-40 0,-476 -58,39 0,477z" /><path style="fill:#9c9;stroke:#4c4c4c;stroke-width:2" d="M895,47 l16,-15 32,15 -8,16 -19,-10 -21,26 0,-32z" /><path style="fill:#709e70;stroke:#4c4c4c;stroke-width:2" d="M895,460 l104,0 0,32 -104,0 0,-32z" /><path style="fill:#9c9;stroke:#4c4c4c;stroke-width:2" d="M895,95 l104,0 0,365 -104,0 0,-365z" /><path style="fill:#b6f0bd;stroke:#4c4c4c;stroke-width:2" d="M895,63 l104,0 0,32 -104,0 0,-32z" /><path style="fill:#709e70;stroke:#4c4c4c;stroke-width:2" d="M881,468 l104,0 0,32 -104,0 0,-32z" /><path style="fill:#9c9;stroke:#4c4c4c;stroke-width:2" d="M881,103 l104,0 0,365 -104,0 0,-365z" /><path style="fill:#b6f0bd;stroke:#4c4c4c;stroke-width:2" d="M881,71 l104,0 0,32 -104,0 0,-32z" /><path style="fill:#e5e5e5;stroke:#4c4c4c;stroke-width:2" d="M410,250 l64,0 0,104 -64,0 0,-104z" /><path style="fill:#e5e5e5;stroke:#4c4c4c;stroke-width:2" d="M39,37 l112,0 0,16 -112,0 0,-16z" /><circle style="fill:#7f7f7f;stroke:#4c4c4c;stroke-width:2" cx="548" cy="282" r="16" /><circle style="fill:#999" cx="547" cy="282" r="12" /><circle style="fill:#ccc" cx="548" cy="282" r="8" /><circle style="fill:#fff" cx="547" cy="282" r="4" /><path style="fill:#c93;stroke:#4c4c4c;stroke-width:2" d="M210,63 l112,0 0,16 -112,0 0,-16z" /><path style="fill:#c93;stroke:#4c4c4c;stroke-width:2" d="M588,63 l112,0 0,16 -112,0 0,-16z" /><path style="fill:#709e70;stroke:#4c4c4c;stroke-width:2" d="M871,476 l103,0 0,32 -103,0 0,-32z" /><path style="fill:#9c9;stroke:#4c4c4c;stroke-width:2" d="M871,114 l103,0 0,362 -103,0 0,-362z" /><path style="fill:#b6f0bd;stroke:#4c4c4c;stroke-width:2" d="M871,79 l103,0 0,35 -103,0 0,-35z" /><path style="fill:#709e70;stroke:#4c4c4c;stroke-width:2" d="M857,484 l104,0 0,32 -104,0 0,-32z" /><path style="fill:#9c9;stroke:#4c4c4c;stroke-width:2" d="M857,122 l104,0 0,362 -104,0 0,-362z" /><path style="fill:#b6f0bd;stroke:#4c4c4c;stroke-width:2" d="M857,87 l104,0 0,35 -104,0 0,-35z" /><path style="fill:#709e70;stroke:#4c4c4c;stroke-width:2" d="M847,492 l104,0 0,32 -104,0 0,-32z" /><path style="fill:#9c9;stroke:#4c4c4c;stroke-width:2" d="M847,130 l104,0 0,362 -104,0 0,-362z" /><path style="fill:#b6f0bd;stroke:#4c4c4c;stroke-width:2" d="M847,95 l104,0 0,35 -104,0 0,-35z" /><path style="fill:#9c9;stroke:#4c4c4c;stroke-width:2" d="M839,85 l16,-16 32,13 -11,19 -16,-11 -21,27 0,-32z" /><path style="fill:#9c9;stroke:#4c4c4c;stroke-width:2" d="M0,282 l31,0 0,40 -31,0 0,-40z" /><path style="fill:#9c9;stroke:#4c4c4c;stroke-width:2" d="M0,55 l31,0 0,43 -31,0 0,-43z" /><path style="fill:#9c9;stroke:#4c4c4c;stroke-width:2" d="M0,508 l31,0 0,40 -31,0 0,-40z" /></svg>