<!DOCTYPE svg PUBLIC "-//W3C//DTD SVG 20000303 Stylable//EN" "http://www.w3.org/TR/2000/03/WD-SVG-20000303/DTD/svg-20000303-stylable.dtd"[]><svg xmlns="http://www.w3.org/2000/svg" width="645px" height="999px" viewBox="0 0 628 999"><path style="fill:#999;stroke:#4c4c4c;stroke-width:2" d="M149,994 l82,-701 -103,-113 -124,31 104,-83 61,-124 144,0 -102,42 -42,82 144,124 145,-124 -41,-82 -104,-42 145,0 62,124 103,83 -124,-31 -103,113 82,701 -165,-248 -164,248z" /><path style="fill:none;stroke:#4c4c4c;stroke-width:2" d="M180,746 l267,0" /><path style="fill:none;stroke:#4c4c4c;stroke-width:2" d="M154,952 l20,0 -15,-31 41,0 -36,-51 67,0 -57,-83 114,0 -57,-41 -57,41" /><path style="fill:none;stroke:#4c4c4c;stroke-width:2" d="M473,952 l-20,0 15,-31 -41,0 36,-51 -67,0 57,-83 -114,0 57,-41 57,41" /><path style="fill:none;stroke:#4c4c4c;stroke-width:2" d="M231,293 l165,0" /><path style="fill:none;stroke:#4c4c4c;stroke-width:2" d="M211,468 l206,0" /><path style="fill:none;stroke:#4c4c4c;stroke-width:2" d="M231,746 l-47,-31 238,-180 -201,-124 180,-82 -88,-36" /><path style="fill:none;stroke:#4c4c4c;stroke-width:2" d="M396,746 l46,-31 -237,-180 201,-124 -180,-82 87,-36" /><path style="fill:none;stroke:#4c4c4c;stroke-width:2" d="M184,684 l68,-20 -57,-47 237,0 -57,47 67,20" /><path style="fill:none;stroke:#4c4c4c;stroke-width:2" d="M252,664 l-62,-10" /><path style="fill:none;stroke:#4c4c4c;stroke-width:2" d="M375,664 l62,-10" /><path style="fill:none;stroke:#4c4c4c;stroke-width:2" d="M252,617 l0,-46 -52,0 52,46" /><path style="fill:none;stroke:#4c4c4c;stroke-width:2" d="M375,617 l0,-46 52,0 -52,46" /><path style="fill:none;stroke:#4c4c4c;stroke-width:2" d="M360,20 l15,-16 0,21 21,-21 0,31 41,-31 -21,42 52,-16 -41,36 57,0 -42,31 62,0 -47,31 42,52 -57,-36 31,61 -62,-36 36,67 -77,-31 46,67 -103,-20 -102,20 46,-67 -77,31 35,-67 -61,36 30,-61 -56,36 41,-52 -46,-31 61,0 -41,-31 57,0 -41,-36 52,16 -21,-42 41,31 0,-31 21,21 0,-21 15,16" /><path style="fill:none;stroke:#4c4c4c;stroke-width:2" d="M499,180 l20,-52 16,62 26,-26 10,36 21,-10" /><path style="fill:none;stroke:#4c4c4c;stroke-width:2" d="M128,180 l-21,-52 -15,62 -26,-26 -10,36 -21,-10" /></svg>