<!DOCTYPE svg PUBLIC "-//W3C//DTD SVG 20000303 Stylable//EN" "http://www.w3.org/TR/2000/03/WD-SVG-20000303/DTD/svg-20000303-stylable.dtd"[]><svg xmlns="http://www.w3.org/2000/svg" width="561px" height="999px" viewBox="0 0 535 999"><path style="fill:#b2b2b2;stroke:#4c4c4c;stroke-width:2" d="M333,275 l14,-275 29,0 14,275 -57,0z" /><path style="fill:#b2b2b2;stroke:#4c4c4c;stroke-width:2" d="M254,275 l10,-188 19,0 10,188 -39,0z" /><path style="fill:#b2b2b2;stroke:#4c4c4c;stroke-width:2" d="M121,275 l8,-130 14,0 6,130 -28,0z" /><path style="fill:#7f7f7f;stroke:#4c4c4c;stroke-width:2" d="M129,171 l-8,-14 8,-12 14,0 6,12 -6,14 -14,0z" /><path style="fill:#7f7f7f;stroke:#4c4c4c;stroke-width:2" d="M264,125 l-10,-18 10,-20 19,0 10,20 -10,18 -19,0z" /><path style="fill:#7f7f7f;stroke:#4c4c4c;stroke-width:2" d="M347,56 l-14,-28 14,-28 29,0 14,28 -14,28 -29,0z" /><path style="fill:none;stroke:#4c4c4c;stroke-width:2" d="M319,232 l87,0" /><path style="fill:none;stroke:#4c4c4c;stroke-width:2" d="M321,216 l85,0" /><path style="fill:none;stroke:#4c4c4c;stroke-width:2" d="M323,202 l81,0" /><path style="fill:none;stroke:#4c4c4c;stroke-width:2" d="M323,188 l79,0" /><path style="fill:none;stroke:#4c4c4c;stroke-width:2" d="M323,174 l77,0" /><path style="fill:none;stroke:#4c4c4c;stroke-width:2" d="M325,157 l75,0" /><path style="fill:none;stroke:#4c4c4c;stroke-width:2" d="M327,143 l73,0" /><path style="fill:none;stroke:#4c4c4c;stroke-width:2" d="M327,129 l71,0" /><path style="fill:none;stroke:#4c4c4c;stroke-width:2" d="M329,115 l67,0" /><path style="fill:none;stroke:#4c4c4c;stroke-width:2" d="M331,101 l65,0" /><path style="fill:none;stroke:#4c4c4c;stroke-width:2" d="M333,87 l61,0" /><path style="fill:none;stroke:#4c4c4c;stroke-width:2" d="M333,72 l59,0" /><path style="fill:none;stroke:#4c4c4c;stroke-width:2" d="M244,246 l59,0" /><path style="fill:none;stroke:#4c4c4c;stroke-width:2" d="M244,234 l59,0" /><path style="fill:none;stroke:#4c4c4c;stroke-width:2" d="M246,224 l57,0" /><path style="fill:none;stroke:#4c4c4c;stroke-width:2" d="M246,214 l55,0" /><path style="fill:none;stroke:#4c4c4c;stroke-width:2" d="M248,206 l53,0" /><path style="fill:none;stroke:#4c4c4c;stroke-width:2" d="M248,196 l53,0" /><path style="fill:none;stroke:#4c4c4c;stroke-width:2" d="M250,185 l49,0" /><path style="fill:none;stroke:#4c4c4c;stroke-width:2" d="M250,175 l49,0" /><path style="fill:none;stroke:#4c4c4c;stroke-width:2" d="M252,165 l45,0" /><path style="fill:none;stroke:#4c4c4c;stroke-width:2" d="M252,155 l45,0" /><path style="fill:none;stroke:#4c4c4c;stroke-width:2" d="M254,145 l41,0" /><path style="fill:none;stroke:#4c4c4c;stroke-width:2" d="M254,135 l41,0" /><path style="fill:none;stroke:#4c4c4c;stroke-width:2" d="M115,254 l40,0" /><path style="fill:none;stroke:#4c4c4c;stroke-width:2" d="M117,246 l38,0" /><path style="fill:none;stroke:#4c4c4c;stroke-width:2" d="M117,240 l38,0" /><path style="fill:none;stroke:#4c4c4c;stroke-width:2" d="M117,234 l38,0" /><path style="fill:none;stroke:#4c4c4c;stroke-width:2" d="M119,226 l36,0" /><path style="fill:none;stroke:#4c4c4c;stroke-width:2" d="M119,220 l36,0" /><path style="fill:none;stroke:#4c4c4c;stroke-width:2" d="M119,212 l34,0" /><path style="fill:none;stroke:#4c4c4c;stroke-width:2" d="M121,206 l32,0" /><path style="fill:none;stroke:#4c4c4c;stroke-width:2" d="M121,200 l32,0" /><path style="fill:none;stroke:#4c4c4c;stroke-width:2" d="M121,191 l32,0" /><path style="fill:none;stroke:#4c4c4c;stroke-width:2" d="M121,185 l30,0" /><path style="fill:none;stroke:#4c4c4c;stroke-width:2" d="M121,180 l30,0" /><path style="fill:#666;stroke:#4c4c4c;stroke-width:2" d="M0,376 l28,-29 59,0 0,567 -87,0 0,-538z" /><path style="fill:#7f7f7f" d="M232,260 l75,4 77,4 151,7 0,711 -151,7 -77,3 -75,3 0,-739z" /><path style="fill:#999" d="M202,260 l30,0 0,739 -30,0 0,-739z" /><path style="fill:#737373" d="M202,260 l-28,4 -29,4 -58,7 0,711 58,7 29,3 28,3 0,-739z" /><path style="fill:#7f7f7f" d="M202,260 l-57,8 0,725 57,6 0,-739z" /><path style="fill:#8c8c8c" d="M202,260 l-28,4 0,732 28,3 0,-739z" /><path style="fill:#878787" d="M232,260 l152,8 0,725 -152,6 0,-739z" /><path style="fill:#919191" d="M232,260 l75,4 0,732 -75,3 0,-739z" /><path style="fill:none;stroke:#4c4c4c;stroke-width:2" d="M232,260 l303,15 0,711 -303,13 -30,0 -115,-13 0,-711 115,-15 30,0" /><path style="fill:#b2b2b2;stroke:#4c4c4c;stroke-width:2" d="M101,740 l30,0 0,129 -30,0 0,-129z" /><path style="fill:#999" d="M28,362 l14,0 0,72 -14,0 0,-72z" /><path style="fill:#ccc" d="M66,695 l15,0 0,28 -15,0 0,-28z" /></svg>