<!DOCTYPE svg PUBLIC "-//W3C//DTD SVG 20000303 Stylable//EN" "http://www.w3.org/TR/2000/03/WD-SVG-20000303/DTD/svg-20000303-stylable.dtd"[]><svg xmlns="http://www.w3.org/2000/svg" width="999px" height="684px" viewBox="0 0 999 666"><path style="fill:#000;stroke:#4c4c4c;stroke-width:2" d="M7,234 l6,-5 18,16 -5,5 -19,-16z" /><path style="fill:#000;stroke:#4c4c4c;stroke-width:2" d="M29,245 l5,5 16,-16 -5,-5 -16,16z" /><path style="fill:#000;stroke:#4c4c4c;stroke-width:2" d="M117,234 l5,-5 16,16 -5,5 -16,-16z" /><path style="fill:#000;stroke:#4c4c4c;stroke-width:2" d="M138,245 l5,5 16,-16 -5,-5 -16,16z" /><path style="fill:#000;stroke:#4c4c4c;stroke-width:2" d="M0,127 l7,0 0,24 -7,0 0,-24z" /><path style="fill:#000;stroke:#4c4c4c;stroke-width:2" d="M162,127 l8,0 0,24 -8,0 0,-24z" /><path style="fill:#000;stroke:#4c4c4c;stroke-width:2" d="M7,50 l6,-8 18,19 -5,5 -19,-16z" /><path style="fill:#000;stroke:#4c4c4c;stroke-width:2" d="M29,61 l5,5 16,-16 -5,-8 -16,19z" /><path style="fill:#000;stroke:#4c4c4c;stroke-width:2" d="M117,50 l5,-8 16,19 -5,5 -16,-16z" /><path style="fill:#000;stroke:#4c4c4c;stroke-width:2" d="M138,61 l5,5 16,-16 -5,-8 -16,19z" /><path style="fill:none;stroke:#4c4c4c;stroke-width:2" d="M167,154 l27,5 26,5 26,5 26,4 26,4 27,4 26,3 26,3 26,3 26,2 26,2 27,1 26,1 26,1 26,1 26,0 26,0 26,-1 26,-1 26,-1 26,-1 26,-2 26,-2 25,-3 26,-3 26,-3 26,-4 25,-4 26,-4 25,-5 26,-5 26,-5" /><path style="fill:none;stroke:#4c4c4c;stroke-width:2" d="M135,253 l27,5 26,4 26,5 26,4 26,4 27,3 26,3 26,3 26,2 26,3 27,1 26,2 26,1 26,1 26,0 26,0 26,0 26,0 27,-1 26,-1 26,-2 26,-1 26,-3 25,-2 26,-3 26,-3 26,-3 26,-4 26,-4 26,-5 25,-4 26,-5" /><path style="fill:none;stroke:#4c4c4c;stroke-width:2" d="M135,69 l27,5 26,5 26,4 26,4 26,4 27,3 26,3 26,3 26,3 26,2 27,2 26,1 26,1 26,1 26,1 26,0 26,0 26,-1 27,-1 26,-1 26,-1 26,-2 26,-2 25,-3 26,-3 26,-3 26,-3 26,-4 26,-4 26,-4 25,-5 26,-5" /><path style="fill:none;stroke:#4c4c4c;stroke-width:2" d="M61,154 l26,5 26,5 26,5 27,4 26,4 26,4 26,3 26,3 27,3 26,2 26,2 26,1 26,1 26,1 26,1 26,0 26,0 26,-1 26,-1 26,-1 26,-1 26,-2 26,-2 26,-3 26,-3 25,-3 26,-4 26,-4 25,-4 26,-5 25,-5 26,-5" /><path style="fill:none;stroke:#4c4c4c;stroke-width:2" d="M29,253 l26,5 27,4 26,5 27,4 26,4 26,3 27,3 26,3 26,2 27,3 26,1 26,2 26,1 26,1 27,0 26,0 26,0 26,0 26,-1 26,-1 26,-2 26,-1 26,-3 25,-2 26,-3 26,-3 26,-3 25,-4 26,-4 26,-5 25,-4 26,-5" /><path style="fill:none;stroke:#4c4c4c;stroke-width:2" d="M29,69 l26,5 27,5 26,4 27,4 26,4 26,3 27,3 26,3 26,3 27,2 26,2 26,1 26,1 26,1 27,1 26,0 26,0 26,-1 26,-1 26,-1 26,-1 26,-2 26,-2 25,-3 26,-3 26,-3 26,-3 25,-4 26,-4 26,-4 25,-5 26,-5" /><path style="fill:none;stroke:#4c4c4c;stroke-width:2" d="M7,226 l24,24 22,-24" /><path style="fill:none;stroke:#4c4c4c;stroke-width:2" d="M117,226 l21,24 24,-24" /><path style="fill:none;stroke:#4c4c4c;stroke-width:2" d="M2,125 l0,2" /><path style="fill:none;stroke:#4c4c4c;stroke-width:2" d="M167,125 l0,2" /><path style="fill:none;stroke:#4c4c4c;stroke-width:2" d="M117,39 l21,24 24,-24" /><path style="fill:none;stroke:#4c4c4c;stroke-width:2" d="M7,39 l24,24 22,-24" /><path style="fill:none;stroke:#4c4c4c;stroke-width:2" d="M53,39 l64,0 0,187 -64,0 0,-187" /><path style="fill:none;stroke:#4c4c4c;stroke-width:2" d="M7,226 l48,5 59,0 48,-5" /><path style="fill:none;stroke:#4c4c4c;stroke-width:2" d="M162,226 l-155,0 48,-29 59,0 48,29" /><path style="fill:none;stroke:#4c4c4c;stroke-width:2" d="M2,125 l51,2 64,0 50,-2" /><path style="fill:none;stroke:#4c4c4c;stroke-width:2" d="M167,125 l-165,0 51,-32 64,0 50,32" /><path style="fill:none;stroke:#4c4c4c;stroke-width:2" d="M117,226 l-64,-51 64,-50 -64,-54 64,-50 0,18" /><path style="fill:none;stroke:#4c4c4c;stroke-width:2" d="M53,226 l64,-51 -64,-50 64,-54 -64,-50 0,18" /><path style="fill:none;stroke:#4c4c4c;stroke-width:2" d="M167,0 l-165,0 83,39 82,-39" /><path style="fill:none;stroke:#4c4c4c;stroke-width:2" d="M162,39 l-155,0 78,-39 77,39" /><path style="fill:none;stroke:#4c4c4c;stroke-width:2" d="M7,39 l46,-39 32,39 45,-39 32,39" /><path style="fill:none;stroke:#4c4c4c;stroke-width:2" d="M53,175 l64,0" /><path style="fill:none;stroke:#4c4c4c;stroke-width:2" d="M53,71 l64,0" /><path style="fill:none;stroke:#4c4c4c;stroke-width:2" d="M53,21 l64,0" /><path style="fill:none;stroke:#4c4c4c;stroke-width:2" d="M5,666 l48,-440 64,0 50,440 -146,-147 112,-115 -88,-87 72,-75 -64,0 72,75 -88,87 112,115 -144,147" /><path style="fill:none;stroke:#4c4c4c;stroke-width:2" d="M45,317 l80,0" /><path style="fill:none;stroke:#4c4c4c;stroke-width:2" d="M37,404 l96,0" /><path style="fill:none;stroke:#4c4c4c;stroke-width:2" d="M21,519 l128,0" /></svg>