<!DOCTYPE svg PUBLIC "-//W3C//DTD SVG 20000303 Stylable//EN" "http://www.w3.org/TR/2000/03/WD-SVG-20000303/DTD/svg-20000303-stylable.dtd"[]><svg xmlns="http://www.w3.org/2000/svg" width="998px" height="959px" viewBox="0 0 999 957"><path style="fill:#030" d="M0,936 l999,0 0,-21 -999,0 0,21z" /><path style="fill:#696;stroke:#4c4c4c;stroke-width:2" d="M894,915 l84,0 0,42 -84,0 0,-42z" /><path style="fill:#696;stroke:#4c4c4c;stroke-width:2" d="M625,915 l82,0 0,42 -82,0 0,-42z" /><path style="fill:#696;stroke:#4c4c4c;stroke-width:2" d="M291,915 l84,0 0,42 -84,0 0,-42z" /><path style="fill:#696;stroke:#4c4c4c;stroke-width:2" d="M21,915 l83,0 0,42 -83,0 0,-42z" /><path style="fill:#7fb27f" d="M20,41 l958,0 0,832 -958,0 0,-832z" /><path style="fill:#9c9;stroke:#4c4c4c;stroke-width:2" d="M0,873 l999,0 0,42 -999,0 0,-42z" /><path style="fill:#4c7f4c" d="M41,769 l292,0 0,-20 -292,0 0,20z" /><path style="fill:#4c7f4c" d="M41,581 l292,0 0,-20 -292,0 0,20z" /><path style="fill:#4c7f4c" d="M41,395 l292,0 0,-22 -292,0 0,22z" /><path style="fill:#4c7f4c" d="M333,811 l396,0 0,-42 -396,0 0,42z" /><path style="fill:#9c9" d="M41,291 l292,0 0,82 -292,0 0,-82z" /><path style="fill:#9c9" d="M41,477 l292,0 0,84 -292,0 0,-84z" /><path style="fill:#9c9;stroke:#4c4c4c;stroke-width:2" d="M41,665 l292,0 0,84 -292,0 0,-84z" /><path style="fill:#91c491" d="M291,665 l42,0 0,84 -250,0 208,-84z" /><path style="fill:#91c491" d="M291,477 l42,0 0,84 -250,0 208,-84z" /><path style="fill:#91c491" d="M291,291 l42,0 0,82 -250,0 208,-82z" /><path style="fill:none;stroke:#4c4c4c;stroke-width:2" d="M41,477 l292,0 0,84 -292,0 0,-84" /><path style="fill:none;stroke:#4c4c4c;stroke-width:2" d="M41,291 l292,0 0,82 -292,0 0,-82" /><path style="fill:#9c9" d="M333,331 l396,0 0,438 -396,0 0,-438z" /><path style="fill:#94c794" d="M333,557 l396,-184 0,310 -396,0 0,-126z" /><path style="fill:#8fc28f" d="M333,619 l396,-182 0,290 -396,0 0,-108z" /><path style="fill:#8abd8a" d="M333,687 l396,-182 0,264 -396,0 0,-82z" /><path style="fill:none;stroke:#4c4c4c;stroke-width:2" d="M333,331 l396,0 0,438 -396,0 0,-438" /><path style="fill:none;stroke:#363;stroke-width:2" d="M521,519 l20,0 0,62 -20,0 0,-62" /><path style="fill:#8cbf8c" d="M457,333 l42,0 0,-292 -42,0 0,292z" /><path style="fill:#9c9" d="M499,333 l188,0 0,-292 -188,0 0,292z" /><path style="fill:#696" d="M729,333 l-42,0 0,-292 42,0 0,292z" /><path style="fill:none;stroke:#cfc;stroke-width:2" d="M499,331 l0,-290" /><path style="fill:#363" d="M291,291 l20,0 0,-250 -20,0 0,250z" /><path style="fill:none;stroke:#4c4c4c;stroke-width:2" d="M20,41 l958,0 0,832 -958,0 0,-832" /><path style="fill:#696;stroke:#4c4c4c;stroke-width:2" d="M333,395 l-42,0 0,-395 -84,0 0,41 22,0 0,-21 42,0 0,395 62,0 0,-20z" /><path style="fill:#8abd8a;stroke:#4c4c4c;stroke-width:2" d="M729,124 l228,0 0,812 -228,0 0,-812z" /><path style="fill:#e5e5e5" d="M62,509 l83,0 0,30 -83,0 0,-30z" /><path style="fill:#ffb27f" d="M62,499 l83,0 0,10 -83,0 0,-10z" /></svg>