<!DOCTYPE svg PUBLIC "-//W3C//DTD SVG 20000303 Stylable//EN" "http://www.w3.org/TR/2000/03/WD-SVG-20000303/DTD/svg-20000303-stylable.dtd"[]><svg xmlns="http://www.w3.org/2000/svg" width="231px" height="999px" viewBox="0 0 185 999"><path style="fill:#7f7f7f;stroke:#4c4c4c;stroke-width:2" d="M44,100 l23,23 50,0 24,-23 0,-100 -97,0 0,100z" /><path style="fill:#ccc" d="M60,26 l7,-11 10,9 -10,9 -7,-7z" /><path style="fill:#ccc" d="M107,26 l10,-11 8,9 -8,9 -10,-7z" /><path style="fill:#ccc" d="M60,62 l7,-9 10,9 -10,9 -7,-9z" /><path style="fill:#ccc" d="M107,62 l10,-9 8,9 -8,9 -10,-9z" /><path style="fill:#7f7f7f" d="M67,999 l0,-50 -12,0 0,-118 -13,0 0,-348 -42,0 0,-18 42,0 0,-336 25,0 0,-29 50,0 0,29 24,0 0,336 44,0 0,18 -44,0 0,348 -12,0 0,118 -12,0 0,50 -50,0z" /><path style="fill:#919191" d="M71,999 l0,-50 -11,0 0,-118 -11,0 0,-348 -38,0 0,-18 38,0 0,-336 22,0 0,-32 42,0 0,32 22,0 0,336 38,0 0,18 -38,0 0,348 -10,0 0,118 -12,0 0,50 -42,0z" /><path style="fill:#a1a1a1" d="M75,999 l0,-50 -10,0 0,-118 -10,0 0,-348 -29,0 0,-18 29,0 0,-336 20,0 0,-32 36,0 0,32 18,0 0,336 32,0 0,18 -32,0 0,348 -9,0 0,118 -9,0 0,50 -36,0z" /><path style="fill:#b2b2b2" d="M77,999 l0,-50 -8,0 0,-118 -5,0 0,-348 -27,0 0,-18 27,0 0,-336 13,0 0,-32 30,0 0,32 14,0 0,336 28,0 0,18 -28,0 0,348 -6,0 0,118 -8,0 0,50 -30,0z" /><path style="fill:#c4c4c4" d="M82,999 l0,-50 -7,0 0,-118 -6,0 0,-348 -20,0 0,-18 20,0 0,-336 13,0 0,-32 21,0 0,32 12,0 0,336 20,0 0,18 -20,0 0,348 -6,0 0,118 -6,0 0,50 -21,0z" /><path style="fill:#d4d4d4" d="M85,999 l0,-50 -5,0 0,-118 -3,0 0,-348 -15,0 0,-18 15,0 0,-336 8,0 0,-32 17,0 0,32 7,0 0,336 14,0 0,18 -14,0 0,348 -4,0 0,118 -3,0 0,50 -17,0z" /><ellipse style="fill:#e5e5e5" cx="92" cy="549" rx="19" ry="449" /><path style="fill:none;stroke:#4c4c4c;stroke-width:2" d="M67,999 l0,-50 -12,0 0,-118 -13,0 0,-348 -42,0 0,-18 42,0 0,-336 25,0 0,-29 50,0 0,29 24,0 0,336 44,0 0,18 -44,0 0,348 -12,0 0,118 -12,0 0,50 -50,0" /><path style="fill:none;stroke:#4c4c4c;stroke-width:2" d="M42,465 l99,0" /><path style="fill:none;stroke:#4c4c4c;stroke-width:2" d="M141,483 l-99,0" /><path style="fill:none;stroke:#4c4c4c;stroke-width:2" d="M49,831 l86,0 0,12 -86,0 0,14 86,0 0,12 -86,0 0,12 86,0 0,12 -86,0 0,12 86,0 0,13 -86,0 0,13 86,0 0,12 -86,0" /><path style="fill:#7f7f7f;stroke:#4c4c4c;stroke-width:2" d="M17,433 l0,-12 25,-18 99,0 26,18 0,12 -150,0z" /><path style="fill:#7f7f7f;stroke:#4c4c4c;stroke-width:2" d="M17,391 l0,-12 25,-20 99,0 26,20 0,12 -150,0z" /><path style="fill:#7f7f7f;stroke:#4c4c4c;stroke-width:2" d="M17,347 l0,-12 25,-20 99,0 26,20 0,12 -150,0z" /><path style="fill:#7f7f7f;stroke:#4c4c4c;stroke-width:2" d="M17,303 l0,-12 25,-18 99,0 26,18 0,12 -150,0z" /><path style="fill:#7f7f7f;stroke:#4c4c4c;stroke-width:2" d="M17,259 l0,-12 25,-18 99,0 26,18 0,12 -150,0z" /><path style="fill:#7f7f7f;stroke:#4c4c4c;stroke-width:2" d="M17,217 l0,-12 25,-20 99,0 26,20 0,12 -150,0z" /><path style="fill:#7f7f7f;stroke:#4c4c4c;stroke-width:2" d="M17,173 l0,-12 25,-18 99,0 26,18 0,12 -150,0z" /><path style="fill:#8c8c8c" d="M33,433 l0,-12 20,-18 78,0 20,18 0,12 -118,0z" /><path style="fill:#8c8c8c" d="M33,391 l0,-14 20,-18 78,0 20,18 0,14 -118,0z" /><path style="fill:#8c8c8c" d="M33,347 l0,-12 20,-20 78,0 20,20 0,12 -118,0z" /><path style="fill:#8c8c8c" d="M33,303 l0,-12 20,-18 78,0 20,18 0,12 -118,0z" /><path style="fill:#8c8c8c" d="M33,259 l0,-12 20,-18 78,0 20,18 0,12 -118,0z" /><path style="fill:#8c8c8c" d="M33,217 l0,-14 20,-18 78,0 20,18 0,14 -118,0z" /><path style="fill:#8c8c8c" d="M33,173 l0,-12 20,-20 78,0 20,20 0,12 -118,0z" /><path style="fill:#999" d="M49,433 l0,-12 15,-18 57,0 14,18 0,12 -86,0z" /><path style="fill:#999" d="M49,391 l0,-14 15,-18 57,0 14,18 0,14 -86,0z" /><path style="fill:#999" d="M49,347 l0,-12 15,-20 57,0 14,20 0,12 -86,0z" /><path style="fill:#999" d="M49,303 l0,-12 15,-18 57,0 14,18 0,12 -86,0z" /><path style="fill:#999" d="M49,259 l0,-12 15,-18 57,0 14,18 0,12 -86,0z" /><path style="fill:#999" d="M49,217 l0,-14 15,-18 57,0 14,18 0,14 -86,0z" /><path style="fill:#999" d="M49,173 l0,-12 15,-20 57,0 14,20 0,12 -86,0z" /><path style="fill:#a6a6a6" d="M65,433 l0,-12 8,-18 38,0 10,18 0,12 -56,0z" /><path style="fill:#a6a6a6" d="M65,391 l0,-14 8,-18 38,0 10,18 0,14 -56,0z" /><path style="fill:#a6a6a6" d="M65,347 l0,-12 8,-20 38,0 10,20 0,12 -56,0z" /><path style="fill:#a6a6a6" d="M65,303 l0,-12 8,-18 38,0 10,18 0,12 -56,0z" /><path style="fill:#a6a6a6" d="M65,259 l0,-12 8,-18 38,0 10,18 0,12 -56,0z" /><path style="fill:#a6a6a6" d="M65,217 l0,-14 8,-18 38,0 10,18 0,14 -56,0z" /><path style="fill:#a6a6a6" d="M65,173 l0,-12 8,-20 38,0 10,20 0,12 -56,0z" /><path style="fill:#b2b2b2" d="M80,433 l0,-12 4,-18 18,0 3,18 0,12 -25,0z" /><path style="fill:#b2b2b2" d="M80,391 l0,-12 4,-20 18,0 3,20 0,12 -25,0z" /><path style="fill:#b2b2b2" d="M80,347 l0,-12 4,-20 18,0 3,20 0,12 -25,0z" /><path style="fill:#b2b2b2" d="M80,303 l0,-12 4,-18 18,0 3,18 0,12 -25,0z" /><path style="fill:#b2b2b2" d="M80,259 l0,-12 4,-18 18,0 3,18 0,12 -25,0z" /><path style="fill:#b2b2b2" d="M80,217 l0,-12 4,-20 18,0 3,20 0,12 -25,0z" /><path style="fill:#b2b2b2" d="M80,173 l0,-12 4,-18 18,0 3,18 0,12 -25,0z" /></svg>