<!DOCTYPE svg PUBLIC "-//W3C//DTD SVG 20000303 Stylable//EN" "http://www.w3.org/TR/2000/03/WD-SVG-20000303/DTD/svg-20000303-stylable.dtd"[]><svg xmlns="http://www.w3.org/2000/svg" width="942px" height="999px" viewBox="0 0 938 999"><path style="fill:#ccc" d="M0,0 l938,0 0,999 -938,0 0,-999z" /><path style="fill:#c7c7c7" d="M0,709 l938,-418 0,708 -938,0 0,-290z" /><path style="fill:#c2c2c2" d="M0,751 l938,-418 0,666 -938,0 0,-248z" /><path style="fill:#bdbdbd" d="M0,813 l938,-418 0,604 -938,0 0,-186z" /><path style="fill:none;stroke:#4c4c4c;stroke-width:2" d="M0,0 l938,0 0,999 -938,0 0,-999" /><path style="fill:none;stroke:#fff;stroke-width:2" d="M175,529 l0,-354 588,0" /><path style="fill:#999" d="M763,175 l0,354 -588,0 16,14 586,0 0,-354 -14,-14z" /><path style="fill:#333" d="M425,469 l162,0 0,44 -162,0 0,-44z" /><path style="fill:#333" d="M865,808 l44,0 0,147 -44,0 0,-147z" /><path style="fill:#59657f" d="M865,175 l44,0 0,46 -44,0 0,-46z" /><path style="fill:#59657f" d="M453,367 l134,0 0,44 -134,0 0,-44z" /><path style="fill:#59657f" d="M365,675 l206,0 0,44 -206,0 0,-44z" /><path style="fill:#59657f" d="M291,469 l44,0 0,44 -44,0 0,-44z" /><path style="fill:#59657f" d="M307,411 l28,0 0,30 -28,0 0,-30z" /><path style="fill:#59657f" d="M307,367 l28,0 0,28 -28,0 0,-28z" /><path style="fill:#59657f" d="M307,323 l28,0 0,28 -28,0 0,-28z" /><path style="fill:#59657f" d="M307,279 l28,0 0,28 -28,0 0,-28z" /><path style="fill:#59657f" d="M189,73 l14,0 0,14 -14,0 0,-14z" /><path style="fill:#59657f" d="M219,73 l14,0 0,14 -14,0 0,-14z" /><path style="fill:none;stroke:#59657f;stroke-width:2" d="M14,16 l910,0 0,966 -910,0 0,-966" /></svg>