<!DOCTYPE svg PUBLIC "-//W3C//DTD SVG 20000303 Stylable//EN" "http://www.w3.org/TR/2000/03/WD-SVG-20000303/DTD/svg-20000303-stylable.dtd"[]><svg xmlns="http://www.w3.org/2000/svg" width="999px" height="959px" viewBox="0 0 999 957"><path style="fill:#000" d="M0,873 l999,0 0,22 -999,0 0,-22z" /><path style="fill:#f2e5cc" d="M0,0 l999,0 0,873 -999,0 0,-873z" /><path style="fill:#ede0c7" d="M0,620 l999,-365 0,618 -999,0 0,-253z" /><path style="fill:#e8dbc2" d="M0,657 l999,-366 0,582 -999,0 0,-216z" /><path style="fill:#e3d6bd" d="M0,711 l999,-365 0,527 -999,0 0,-162z" /><path style="fill:#666" d="M843,61 l104,0 0,782 -104,0 0,-782z" /><path style="fill:#666" d="M0,0 l999,0 0,41 -999,0 0,-41z" /><path style="fill:none;stroke:#4c4c4c;stroke-width:2" d="M0,0 l999,0 0,873 -999,0 0,-873" /><path style="fill:none;stroke:#bfb299;stroke-width:2" d="M498,853 l0,-792" /><path style="fill:#000" d="M520,498 l0,-82 10,0 0,82 -10,0z" /><path style="fill:#000" d="M468,498 l0,-82 10,0 0,82 -10,0z" /><path style="fill:#333;stroke:#4c4c4c;stroke-width:2" d="M789,873 l42,0 0,84 -42,0 0,-84z" /><path style="fill:#333;stroke:#4c4c4c;stroke-width:2" d="M468,873 l62,0 0,84 -62,0 0,-84z" /><path style="fill:#333;stroke:#4c4c4c;stroke-width:2" d="M22,873 l61,0 0,84 -61,0 0,-84z" /><path style="fill:#4c0000" d="M976,135 l0,-42 13,0 0,42 -13,0z" /><path style="fill:#4c0000" d="M976,478 l0,-42 13,0 0,42 -13,0z" /><path style="fill:#4c0000" d="M976,811 l0,-42 13,0 0,42 -13,0z" /><path style="fill:#4c0000" d="M10,478 l0,-42 9,0 0,42 -9,0z" /><path style="fill:#4c0000" d="M10,811 l0,-42 9,0 0,42 -9,0z" /><path style="fill:#4c0000" d="M10,135 l0,-42 9,0 0,42 -9,0z" /><path style="fill:none;stroke:#4c4c4c;stroke-width:2" d="M0,41 l999,0" /><path style="fill:#333" d="M947,61 l10,0 0,782 -10,0 0,-782z" /><path style="fill:#999" d="M831,61 l12,0 0,782 -12,0 0,-782z" /><path style="fill:none;stroke:#fff;stroke-width:2" d="M22,853 l0,-792 954,0" /><path style="fill:none;stroke:#bfb299;stroke-width:2" d="M22,853 l954,0 0,-792" /><path style="fill:#ccc" d="M863,125 l62,0 0,84 -62,0 0,-84z" /><path style="fill:none;stroke:#fff;stroke-width:2" d="M863,207 l0,-82 62,0" /><path style="fill:none;stroke:#4c4c4c;stroke-width:2" d="M925,125 l0,82 -62,0" /><path style="fill:#696" d="M873,145 l42,0 0,10 -42,0 0,-10z" /><path style="fill:#b23200" d="M947,9 l42,0 0,13 -42,0 0,-13z" /><path style="fill:#b2b2b2" d="M895,821 l42,0 0,12 -42,0 0,-12z" /></svg>