<!DOCTYPE svg PUBLIC "-//W3C//DTD SVG 20000303 Stylable//EN" "http://www.w3.org/TR/2000/03/WD-SVG-20000303/DTD/svg-20000303-stylable.dtd"[]><svg xmlns="http://www.w3.org/2000/svg" width="999px" height="697px" viewBox="0 0 998 679"><path style="fill:#633;stroke:#4c4c4c;stroke-width:2" d="M92,121 l-81,-49 15,0 66,41 15,0 64,-41 14,0 -78,49 -15,0z" /><path style="fill:#633;stroke:#4c4c4c;stroke-width:2" d="M92,211 l-81,-52 15,0 66,41 15,0 64,-41 14,0 -78,52 -15,0z" /><path style="fill:#633;stroke:#4c4c4c;stroke-width:2" d="M87,20 l26,0 0,659 -26,0 0,-659z" /><path style="fill:#963;stroke:#4c4c4c;stroke-width:2" d="M0,145 l194,0 0,14 -194,0 0,-14z" /><path style="fill:#963;stroke:#4c4c4c;stroke-width:2" d="M0,55 l194,0 0,17 -194,0 0,-17z" /><path style="fill:none;stroke:#4c4c4c;stroke-width:2" d="M11,145 l0,-24" /><path style="fill:none;stroke:#4c4c4c;stroke-width:2" d="M5,139 l9,0" /><path style="fill:none;stroke:#4c4c4c;stroke-width:2" d="M14,133 l-9,0" /><path style="fill:none;stroke:#4c4c4c;stroke-width:2" d="M5,127 l9,0" /><path style="fill:none;stroke:#4c4c4c;stroke-width:2" d="M26,145 l0,-24" /><path style="fill:none;stroke:#4c4c4c;stroke-width:2" d="M20,139 l11,0" /><path style="fill:none;stroke:#4c4c4c;stroke-width:2" d="M31,133 l-11,0" /><path style="fill:none;stroke:#4c4c4c;stroke-width:2" d="M20,127 l11,0" /><path style="fill:none;stroke:#4c4c4c;stroke-width:2" d="M174,145 l0,-24" /><path style="fill:none;stroke:#4c4c4c;stroke-width:2" d="M171,139 l9,0" /><path style="fill:none;stroke:#4c4c4c;stroke-width:2" d="M180,133 l-9,0" /><path style="fill:none;stroke:#4c4c4c;stroke-width:2" d="M171,127 l9,0" /><path style="fill:none;stroke:#4c4c4c;stroke-width:2" d="M191,145 l0,-24" /><path style="fill:none;stroke:#4c4c4c;stroke-width:2" d="M185,139 l9,0" /><path style="fill:none;stroke:#4c4c4c;stroke-width:2" d="M194,133 l-9,0" /><path style="fill:none;stroke:#4c4c4c;stroke-width:2" d="M185,127 l9,0" /><path style="fill:none;stroke:#4c4c4c;stroke-width:2" d="M34,153 l125,0" /><path style="fill:none;stroke:#4c4c4c;stroke-width:2" d="M185,55 l26,8 25,7 25,8 26,6 25,6 25,6 25,5 26,4 25,4 25,4 25,3 26,2 25,2 25,1 25,1 26,0 25,0 25,-1 26,-1 25,-2 26,-2 25,-3 26,-4 25,-4 26,-4 25,-5 26,-6 25,-6 26,-6 26,-8 26,-7 25,-8" /><path style="fill:none;stroke:#4c4c4c;stroke-width:2" d="M171,55 l25,8 25,7 26,8 25,6 25,6 26,6 25,5 25,4 25,4 26,4 25,3 25,2 25,2 26,1 25,1 25,0 25,0 26,-1 25,-1 26,-2 25,-2 26,-3 25,-4 26,-4 25,-4 26,-5 25,-6 26,-6 26,-6 25,-8 26,-7 26,-8" /><path style="fill:none;stroke:#4c4c4c;stroke-width:2" d="M26,55 l25,8 25,7 26,8 25,6 25,6 25,6 26,5 25,4 25,4 25,4 26,3 25,2 25,2 25,1 26,1 25,0 25,0 26,-1 25,-1 26,-2 25,-2 25,-3 26,-4 25,-4 26,-4 25,-5 26,-6 26,-6 25,-6 26,-8 26,-7 26,-8" /><path style="fill:none;stroke:#4c4c4c;stroke-width:2" d="M11,55 l25,8 26,7 25,8 25,6 26,6 25,6 25,5 25,4 26,4 25,4 25,3 25,2 26,2 25,1 25,1 25,0 26,0 25,-1 26,-1 25,-2 25,-2 26,-3 25,-4 26,-4 25,-4 26,-5 26,-6 25,-6 26,-6 26,-8 25,-7 26,-8" /><path style="fill:none;stroke:#4c4c4c;stroke-width:2" d="M11,58 l0,-24" /><path style="fill:none;stroke:#4c4c4c;stroke-width:2" d="M17,52 l-12,0" /><path style="fill:none;stroke:#4c4c4c;stroke-width:2" d="M5,46 l12,0" /><path style="fill:none;stroke:#4c4c4c;stroke-width:2" d="M17,40 l-12,0" /><path style="fill:none;stroke:#4c4c4c;stroke-width:2" d="M26,58 l0,-24" /><path style="fill:none;stroke:#4c4c4c;stroke-width:2" d="M28,52 l-5,0" /><path style="fill:none;stroke:#4c4c4c;stroke-width:2" d="M23,46 l5,0" /><path style="fill:none;stroke:#4c4c4c;stroke-width:2" d="M28,40 l-5,0" /><path style="fill:none;stroke:#4c4c4c;stroke-width:2" d="M168,58 l0,-24" /><path style="fill:none;stroke:#4c4c4c;stroke-width:2" d="M174,52 l-9,0" /><path style="fill:none;stroke:#4c4c4c;stroke-width:2" d="M165,46 l9,0" /><path style="fill:none;stroke:#4c4c4c;stroke-width:2" d="M174,40 l-9,0" /><path style="fill:none;stroke:#4c4c4c;stroke-width:2" d="M185,58 l0,-24" /><path style="fill:none;stroke:#4c4c4c;stroke-width:2" d="M191,52 l-11,0" /><path style="fill:none;stroke:#4c4c4c;stroke-width:2" d="M180,46 l11,0" /><path style="fill:none;stroke:#4c4c4c;stroke-width:2" d="M191,40 l-11,0" /><path style="fill:none;stroke:#4c4c4c;stroke-width:2" d="M92,20 l0,-20" /><path style="fill:none;stroke:#4c4c4c;stroke-width:2" d="M98,14 l-11,0" /><path style="fill:none;stroke:#4c4c4c;stroke-width:2" d="M87,11 l11,0" /><path style="fill:none;stroke:#4c4c4c;stroke-width:2" d="M98,5 l-11,0" /><path style="fill:none;stroke:#4c4c4c;stroke-width:2" d="M110,20 l0,-20" /><path style="fill:none;stroke:#4c4c4c;stroke-width:2" d="M113,14 l-9,0" /><path style="fill:none;stroke:#4c4c4c;stroke-width:2" d="M104,11 l9,0" /><path style="fill:none;stroke:#4c4c4c;stroke-width:2" d="M113,5 l-9,0" /><path style="fill:none;stroke:#4c4c4c;stroke-width:2" d="M104,638 l0,-438" /><path style="fill:none;stroke:#4c4c4c;stroke-width:2" d="M34,66 l125,0" /><path style="fill:none;stroke:#4c4c4c;stroke-width:2" d="M185,145 l26,8 25,7 25,7 26,6 25,6 25,6 25,4 26,5 25,4 25,3 25,3 26,2 25,2 25,1 25,1 26,0 25,0 25,-1 26,-1 25,-2 26,-2 25,-3 26,-3 25,-4 26,-5 25,-4 26,-6 25,-6 26,-6 26,-7 26,-7 25,-8" /><path style="fill:none;stroke:#4c4c4c;stroke-width:2" d="M171,145 l25,8 25,7 26,7 25,6 25,6 26,6 25,4 25,5 25,4 26,3 25,3 25,2 25,2 26,1 25,1 25,0 25,0 26,-1 25,-1 26,-2 25,-2 26,-3 25,-3 26,-4 25,-5 26,-4 25,-6 26,-6 26,-6 25,-7 26,-7 26,-8" /><path style="fill:none;stroke:#4c4c4c;stroke-width:2" d="M26,145 l25,8 25,7 26,7 25,6 25,6 25,6 26,4 25,5 25,4 25,3 26,3 25,2 25,2 25,1 26,1 25,0 25,0 26,-1 25,-1 26,-2 25,-2 25,-3 26,-3 25,-4 26,-5 25,-4 26,-6 26,-6 25,-6 26,-7 26,-7 26,-8" /><path style="fill:none;stroke:#4c4c4c;stroke-width:2" d="M11,145 l25,8 26,7 25,7 25,6 26,6 25,6 25,4 25,5 26,4 25,3 25,3 25,2 26,2 25,1 25,1 25,0 26,0 25,-1 26,-1 25,-2 25,-2 26,-3 25,-3 26,-4 25,-5 26,-4 26,-6 25,-6 26,-6 26,-7 25,-7 26,-8" /></svg>