<!DOCTYPE svg PUBLIC "-//W3C//DTD SVG 20000303 Stylable//EN" "http://www.w3.org/TR/2000/03/WD-SVG-20000303/DTD/svg-20000303-stylable.dtd"[]><svg xmlns="http://www.w3.org/2000/svg" width="449px" height="999px" viewBox="0 0 416 998"><path style="fill:#963" d="M166,998 l83,0 0,-936 -20,-62 -42,0 -21,62 0,936z" /><path style="fill:#b27f4c" d="M177,998 l62,0 0,-936 -15,-62 -31,0 -16,62 0,936z" /><path style="fill:#c96" d="M187,998 l42,0 0,-936 -10,-62 -21,0 -11,62 0,936z" /><path style="fill:#e5b27f" d="M197,998 l21,0 0,-936 -5,-62 -10,0 -6,62 0,936z" /><path style="fill:none;stroke:#4c4c4c;stroke-width:2" d="M166,998 l83,0 0,-936 -20,-62 -42,0 -21,62 0,936" /><path style="fill:#630" d="M20,125 l0,-21 14,-21 14,0 14,21 0,21 -42,0z" /><path style="fill:#630" d="M353,125 l0,-21 14,-21 14,0 14,21 0,21 -42,0z" /><path style="fill:#963" d="M0,125 l416,0 0,41 -416,0 0,-41z" /><path style="fill:#630" d="M0,177 l416,0 0,-11 -416,0 0,11z" /><path style="fill:none;stroke:#4c4c4c;stroke-width:2" d="M0,125 l416,0 0,52 -416,0 0,-52" /></svg>