<!DOCTYPE svg PUBLIC "-//W3C//DTD SVG 20000303 Stylable//EN" "http://www.w3.org/TR/2000/03/WD-SVG-20000303/DTD/svg-20000303-stylable.dtd"[]><svg xmlns="http://www.w3.org/2000/svg" width="723px" height="999px" viewBox="0 0 706 999"><path style="fill:#ffff14;stroke:#4c4c4c;stroke-width:2" d="M439,550 l158,0 1,-87 7,-55 12,-41 16,-30 17,-26 17,-25 10,-15 7,-14 9,-21 6,-18 4,-20 3,-18 0,-11 0,-10 -2,-17 -3,-15 -4,-14 -5,-10 -5,-11 -7,-11 -6,-8 -6,-9 -8,-8 -13,-11 -13,-10 -11,-7 -12,-6 -13,-5 -16,-5 -15,-5 -17,-4 -20,-2 -16,-1 -12,0 -13,0 -18,3 -13,2 -16,4 -17,5 -13,6 -10,5 -13,8 -13,10 -11,10 -11,13 -10,13 -9,15 -5,11 -4,10 -4,13 -3,15 -3,19 -2,19 0,11 2,13 3,12 3,10 13,28 8,14 9,16 12,15 10,12 20,28 18,34 15,41 10,53 2,82z" /><path style="fill:#fff;stroke:#fff;stroke-width:2" d="M547,25 l53,19 12,5 15,7 9,5 7,7 7,6 8,9 6,8 7,12 5,12 4,13 3,15 1,14 0,11 -1,14 -2,11 -4,12 -7,16 -7,14 -18,44 20,-76 2,-16 0,-18 -5,-26 -5,-15 -6,-13 -7,-10 -17,-18 -24,-22 -38,-31 -18,-9z" /><path style="fill:#ababab;stroke:#4c4c4c;stroke-width:2" d="M436,550 l165,0 0,91 0,5 -2,6 -2,6 -2,5 -5,5 -5,3 -6,3 -8,1 -101,0 -9,-1 -6,-2 -6,-3 -5,-3 -4,-5 -2,-6 -2,-7 0,-7 0,-91z" /><path style="fill:none;stroke:#4c4c4c;stroke-width:2" d="M437,558 l10,0 11,0 13,0 9,0 9,0 10,1 17,0 10,0 7,0 16,0 10,0 6,0 5,0 9,1 11,0 9,-2 2,2 -14,3 -12,3 -16,3 -14,1 -10,0 -14,2 -17,2 -13,0 -13,1 -15,2 -9,2 -12,0 -6,0 16,2 4,0 10,0 7,0 10,0 6,1 13,0 8,0 10,0 10,0 11,0 11,0 9,0 9,0 12,0 7,0 8,-1 3,0 -6,3 -6,1 -11,3 -9,1 -14,4 -10,2 -10,1 -12,4 -13,2 -12,2 -14,2 -15,1 -12,2 -12,1 -6,0 -2,0 15,0 8,0 8,0 8,0 7,0 7,0 10,0 9,0 8,0 4,0 8,0 6,0 4,0 8,0 7,1 7,0 12,1 10,0 7,0 8,0 5,-1 -8,2 -8,1 -8,1 -12,3 -7,0 -8,2 -6,0 -9,3 -7,1 -8,1 -7,0 -11,2 -10,1 -9,2 -10,2 -12,0 -8,2 -9,1 -7,0 -1,0 12,0 25,0 8,0 6,0 7,0 7,0 6,0 4,0 7,0 9,0 7,0 7,0 5,0 8,0 6,0 4,0 4,0 6,0 6,0 5,0 6,0 4,0 5,0 -10,2 -12,0 -18,3 -10,0 -13,1 -10,1 -9,1 -11,0 -9,1 -8,0 -10,1 -11,0 -9,1 -11,0 -9,1 -5,0 23,1 16,0 19,0 11,0 9,1 13,-1 8,0 11,0 6,0 11,0 11,0 12,0 9,0 5,0" /><path style="fill:#fff;stroke:#fff;stroke-width:2" d="M593,561 l0,79 0,-79z" /><path style="fill:#000;stroke:#4c4c4c;stroke-width:2" d="M501,682 l0,-11 33,0 0,11 -33,0z" /><path style="fill:#ababab;stroke:#4c4c4c;stroke-width:2" d="M410,970 l143,0 0,29 -143,0 0,-29z" /><path style="fill:#ababab;stroke:#4c4c4c;stroke-width:2" d="M455,969 l0,-48 57,0 0,48 -57,0 0,0z" /><path style="fill:#0ff;stroke:#0ff;stroke-width:2" d="M461,911 l48,0 9,-22 9,-23 6,-24 6,-24 3,-23 1,-22 -1,-20 -4,-18 -7,-25 -8,-25 -9,-25 -10,-25 -9,-26 -8,-25 -5,-26 -2,-25 -7,26 -9,25 -9,25 -10,25 -11,26 -10,26 -9,27 -8,28 -1,25 2,22 4,21 7,19 8,20 10,20 11,21 13,22z" /><path style="fill:#fff;stroke:#fff;stroke-width:2" d="M465,902 l36,0 5,-19 5,-19 4,-19 3,-20 2,-19 1,-19 0,-19 -1,-20 -3,-21 -6,-21 -6,-21 -7,-20 -7,-19 -6,-19 -4,-18 -3,-18 -4,20 -5,20 -7,20 -8,19 -7,20 -7,20 -6,20 -4,22 -1,19 0,19 3,19 4,19 6,19 6,19 8,18 9,18z" /><path style="fill:#00f;stroke:#0ff;stroke-width:2" d="M477,882 l13,0 0,-16 0,-17 1,-17 1,-17 0,-16 0,-17 -1,-15 -1,-17 -7,-40 -6,-40 -4,16 -2,14 -3,13 -1,14 -2,12 -1,12 0,12 0,12 0,12 1,12 1,12 1,13 2,14 3,14 2,14 3,16z" /><path style="fill:#fff;stroke:#fff;stroke-width:2" d="M459,925 l50,0 -50,0z" /><path style="fill:#fff;stroke:#fff;stroke-width:2" d="M509,925 l0,39 0,-39z" /><path style="fill:#fff;stroke:#fff;stroke-width:2" d="M515,973 l36,0 -36,0z" /><path style="fill:#fff;stroke:#fff;stroke-width:2" d="M551,973 l0,21 0,-21z" /><path style="fill:#fff;stroke:#fff;stroke-width:2" d="M453,973 l-41,0 41,0z" /><ellipse style="fill:#00f;stroke:#0ff;stroke-width:2" cx="365" cy="602" rx="13" ry="45" /><ellipse style="fill:#0ff;stroke:#0ff;stroke-width:2" cx="373" cy="626" rx="2" ry="17" /><path style="fill:#ababab;stroke:#4c4c4c;stroke-width:2" d="M51,262 l48,0 35,40 0,144 -35,32 -54,0 -45,-54 0,-119 51,-43z" /><path style="fill:#ababab;stroke:#4c4c4c;stroke-width:2" d="M99,262 l-45,43 0,119 45,54 35,-32 0,-144 -35,-40z" /><path style="fill:#ababab;stroke:#4c4c4c;stroke-width:2" d="M74,374 l-1,-2 0,-2 0,-2 -1,-3 0,-1 1,-3 0,-2 0,-2 0,-2 1,-2 0,-2 1,-2 0,-2 1,-3 1,-1 2,-5 3,-4 7,-8 6,-6 7,-5 8,-4 7,-3 7,-2 7,-2 7,-1 7,0 6,0 5,0 6,1 4,1 3,0 2,0 20,-23 3,14 57,49 49,0 -2,3 -1,2 -2,5 -2,5 -1,5 -1,5 0,5 0,5 0,5 1,5 1,5 1,5 1,5 1,5 2,4 1,5 1,4 86,55 2,2 2,2 2,6 1,6 0,7 -1,7 -3,7 -3,8 -5,7 -4,7 -6,6 -6,5 -6,4 -6,3 -6,1 -7,-1 -6,-3 -80,-57 -8,1 -8,1 -16,0 -16,-1 -16,-3 -15,-4 -14,-5 -14,-6 -13,-8 -12,-9 -11,-9 -10,-11 -9,-12 -7,-13 -6,-13 -3,-14 -2,-15z" /><path style="fill:#000;stroke:#4c4c4c;stroke-width:2" d="M378,525 l-1,1 -3,5 -3,3 -2,3 -3,3 -2,2 -3,2 -2,1 -3,2 -2,1 -3,1 -2,0 -2,0 -2,0 -2,0 -2,-1 -3,-3 -1,-1 -1,-2 -1,-3 0,-2 0,-3 0,-3 0,-3 1,-3 1,-3 1,-4 1,-3 2,-3 1,-4 2,-3 1,-2 4,-5 2,-3 3,-2 2,-3 2,-2 3,-2 2,-2 3,-1 2,-2 3,-1 2,0 2,0 2,0 3,0 1,1 3,3 2,4 1,2 0,3 0,2 0,3 0,3 -1,3 -1,4 -1,3 -1,3 -2,4 -1,3 -2,4z" /><path style="fill:none;stroke:#4c4c4c;stroke-width:2" d="M0,424 l54,0" /><path style="fill:none;stroke:#4c4c4c;stroke-width:2" d="M327,545 l-2,-16 2,-11 6,-14 9,-15 6,-7 8,-5" /><path style="fill:none;stroke:#4c4c4c;stroke-width:2" d="M1,305 l53,0" /><path style="fill:#000;stroke:#4c4c4c;stroke-width:2" d="M253,491 l-11,2 -5,0 -8,0 -4,0 -6,0 -16,-3 -7,-1 -7,-2 -9,-1 -8,-3 -9,-3 -3,-2 -4,-2 -5,-2 -4,-2 -7,-3 -9,-6 -10,-8 -8,-7 -8,-10 -10,-14 -4,-7 -8,-19 -3,-8 -2,-11 0,-13 5,11 3,5 3,4 5,8 5,8 6,8 10,11 3,5 8,7 10,7 9,7 8,3 3,2 9,4 3,2 9,3 9,2 15,4 7,2 16,1 6,0 4,0 8,0 5,0 5,0 1,21z" /><path style="fill:#000;stroke:#4c4c4c;stroke-width:2" d="M28,457 l54,0 18,21 -54,0 -18,-21z" /><path style="fill:#000;stroke:#4c4c4c;stroke-width:2" d="M260,471 l65,43 -3,12 1,8 1,9 -61,-47 -3,-9 0,-11 0,-5z" /><path style="fill:#000;stroke:#4c4c4c;stroke-width:2" d="M300,344 l-2,4 -1,0 -45,0 -59,-50 -2,-16 0,3 109,59z" /><path style="fill:#ababab;stroke:#4c4c4c;stroke-width:2" d="M191,282 l0,-31 23,-29 55,0 60,43 5,34 -34,46 -49,0 -57,-49 -3,-14z" /><path style="fill:#000;stroke:#4c4c4c;stroke-width:2" d="M214,222 l0,49 55,46 54,0 11,-18 -5,-34 -60,-43 -55,0z" /><path style="fill:none;stroke:#4c4c4c;stroke-width:2" d="M194,296 l20,-25" /><path style="fill:none;stroke:#4c4c4c;stroke-width:2" d="M251,345 l18,-28" /><path style="fill:#ababab;stroke:#4c4c4c;stroke-width:2" d="M240,233 l37,-52 66,55 -35,49 -5,5 -7,3 -7,1 -6,0 -7,-1 -7,-3 -7,-4 -6,-4 -6,-6 -5,-6 -4,-6 -3,-6 -2,-7 0,-6 1,-6 3,-6z" /><path style="fill:#ff0016;stroke:#4c4c4c;stroke-width:2" d="M357,165 l4,4 4,3 9,8 7,8 7,8 6,8 5,8 5,8 4,7 3,8 2,7 2,7 0,7 0,6 9,-4 -12,15 -3,5 -2,2 -2,2 -4,3 -6,2 -6,2 -6,0 -8,0 -7,-1 -8,-1 -9,-2 -8,-3 -9,-4 -9,-4 -9,-5 -9,-6 -9,-6 -9,-7 -5,-4 -4,-4 -8,-7 -7,-8 -7,-8 -6,-8 -6,-8 -4,-8 -4,-7 -3,-8 -3,-7 -1,-7 -1,-7 0,-6 1,-6 2,-5 3,-5 2,-2 10,-13 -3,8 5,-2 7,-2 6,-1 7,1 8,0 8,2 8,2 9,3 9,4 9,4 9,5 9,6 9,6 9,7z" /><path style="fill:#ff0016;stroke:#4c4c4c;stroke-width:2" d="M371,145 l5,4 4,3 8,8 7,8 7,8 6,8 5,7 5,8 4,8 3,7 3,8 1,7 1,7 0,6 -1,6 -3,5 -2,5 -3,2 -2,2 -4,3 -6,2 -5,1 -7,1 -7,0 -8,-1 -8,-1 -8,-2 -9,-3 -9,-4 -9,-5 -9,-5 -9,-5 -9,-6 -9,-8 -4,-3 -5,-4 -8,-8 -7,-7 -7,-8 -6,-8 -5,-8 -5,-8 -4,-8 -3,-7 -2,-8 -2,-6 0,-7 0,-7 0,-5 3,-5 3,-5 2,-2 2,-2 4,-3 6,-2 6,-2 7,-1 7,0 7,1 8,2 8,2 9,3 9,3 9,5 9,5 9,6 9,6 9,7z" /><path style="fill:none;stroke:#fff;stroke-width:2" d="M259,124 l-2,12 1,13 2,4 4,10 8,10 10,13 9,9 11,11 12,10 12,9 13,9 14,8 13,6 21,5 18,1 10,-2 6,-5 2,-5" /><path style="fill:none;stroke:#fff;stroke-width:2" d="M291,352 l-2,5 -2,7 -1,5 0,6 0,10 1,8 1,7 3,10 1,6 2,6 4,9 0,1" /><path style="fill:none;stroke:#4c4c4c;stroke-width:2" d="M257,493 l-2,-8 0,-8 1,-11 4,-10 5,-8 8,-8 8,-7 4,-2" /><path style="fill:#000;stroke:#4c4c4c;stroke-width:2" d="M247,123 l-2,8 0,6 0,7 0,4 1,2 -14,22 -1,-4 -1,-12 1,-9 3,-6 13,-18z" /><path style="fill:none;stroke:#fff;stroke-width:2" d="M298,431 l65,41" /></svg>