<!DOCTYPE svg PUBLIC "-//W3C//DTD SVG 20000303 Stylable//EN" "http://www.w3.org/TR/2000/03/WD-SVG-20000303/DTD/svg-20000303-stylable.dtd"[]><svg xmlns="http://www.w3.org/2000/svg" width="306px" height="999px" viewBox="0 0 265 998"><path style="fill:#999;stroke:#4c4c4c;stroke-width:2" d="M0,177 l265,0 0,10 -265,0 0,-10z" /><path style="fill:#999;stroke:#4c4c4c;stroke-width:2" d="M0,67 l265,0 0,10 -265,0 0,-10z" /><path style="fill:#b0b0b0" d="M0,177 l263,0 0,8 -263,0 0,-8z" /><path style="fill:#b0b0b0" d="M0,69 l263,0 0,8 -263,0 0,-8z" /><path style="fill:#c4c4c4" d="M0,179 l263,0 0,6 -263,0 0,-6z" /><path style="fill:#c4c4c4" d="M0,69 l263,0 0,6 -263,0 0,-6z" /><path style="fill:#dbdbdb" d="M0,179 l261,0 0,4 -261,0 0,-4z" /><path style="fill:#dbdbdb" d="M0,71 l261,0 0,4 -261,0 0,-4z" /><path style="fill:#f2f2f2" d="M0,181 l259,0 0,2 -259,0 0,-2z" /><path style="fill:#f2f2f2" d="M0,71 l259,0 0,2 -259,0 0,-2z" /><path style="fill:#999" d="M123,0 l12,0 4,998 -20,0 4,-998z" /><path style="fill:#b0b0b0" d="M125,0 l8,0 4,998 -16,0 4,-998z" /><path style="fill:#c4c4c4" d="M125,0 l8,0 2,998 -12,0 2,-998z" /><path style="fill:#dbdbdb" d="M127,0 l4,0 2,998 -8,0 2,-998z" /><path style="fill:#f2f2f2" d="M127,0 l4,0 0,998 -4,0 0,-998z" /><path style="fill:none;stroke:#4c4c4c;stroke-width:2" d="M123,0 l12,0 4,998 -20,0 4,-998" /><path style="fill:none;stroke:#4c4c4c;stroke-width:2" d="M10,67 l-10,-6 10,0 -10,-4 10,0 -10,-6 10,0 -10,-4 10,0" /><path style="fill:none;stroke:#4c4c4c;stroke-width:2" d="M265,67 l-10,-6 10,0 -10,-4 10,0 -10,-6 10,0 -10,-4 10,0" /><path style="fill:none;stroke:#4c4c4c;stroke-width:2" d="M10,177 l-10,-6 10,0 -10,-4 10,0 -10,-6 10,0 -10,-6 10,0" /><path style="fill:none;stroke:#4c4c4c;stroke-width:2" d="M265,177 l-10,-6 10,0 -10,-4 10,0 -10,-6 10,0 -10,-6 10,0" /><path style="fill:none;stroke:#4c4c4c;stroke-width:2" d="M93,177 l-10,-6 10,0 -10,-4 10,0 -10,-6 10,0 -10,-6 10,0" /><path style="fill:none;stroke:#4c4c4c;stroke-width:2" d="M175,177 l-10,-6 10,0 -10,-4 10,0 -10,-6 10,0 -10,-6 10,0" /></svg>