<!DOCTYPE svg PUBLIC "-//W3C//DTD SVG 20000303 Stylable//EN" "http://www.w3.org/TR/2000/03/WD-SVG-20000303/DTD/svg-20000303-stylable.dtd"[]><svg xmlns="http://www.w3.org/2000/svg" width="576px" height="999px" viewBox="0 0 551 999"><path style="fill:#9cc;stroke:#4c4c4c;stroke-width:2" d="M233,0 l84,0 0,999 -84,0 0,-999z" /><path style="fill:#9cc;stroke:#4c4c4c;stroke-width:2" d="M551,139 l0,32 -551,0 0,-32 551,0z" /><path style="fill:#9cc;stroke:#4c4c4c;stroke-width:2" d="M551,45 l0,32 -551,0 0,-32 551,0z" /><path style="fill:#9cc;stroke:#4c4c4c;stroke-width:2" d="M499,103 l18,0 0,36 -18,0 0,-36z" /><path style="fill:#9cc;stroke:#4c4c4c;stroke-width:2" d="M499,9 l18,0 0,36 -18,0 0,-36z" /><path style="fill:#9cc;stroke:#4c4c4c;stroke-width:2" d="M34,103 l17,0 0,36 -17,0 0,-36z" /><path style="fill:#9cc;stroke:#4c4c4c;stroke-width:2" d="M34,9 l17,0 0,36 -17,0 0,-36z" /></svg>