<!DOCTYPE svg PUBLIC "-//W3C//DTD SVG 20000303 Stylable//EN" "http://www.w3.org/TR/2000/03/WD-SVG-20000303/DTD/svg-20000303-stylable.dtd"[]><svg xmlns="http://www.w3.org/2000/svg" width="998px" height="696px" viewBox="0 0 999 678"><path style="fill:#633;stroke:#4c4c4c;stroke-width:2" d="M92,122 l-82,-52 14,0 68,41 16,0 63,-41 13,0 -76,52 -16,0z" /><path style="fill:#633;stroke:#4c4c4c;stroke-width:2" d="M86,19 l28,0 0,659 -28,0 0,-659z" /><path style="fill:#963;stroke:#4c4c4c;stroke-width:2" d="M0,57 l195,0 0,13 -195,0 0,-13z" /><path style="fill:none;stroke:#4c4c4c;stroke-width:2" d="M184,57 l26,7 25,8 25,7 26,6 25,6 25,5 26,5 25,4 25,4 26,3 25,3 25,3 25,1 26,2 25,0 25,1 26,-1 25,0 25,-2 26,-1 25,-3 26,-3 25,-3 26,-4 25,-4 26,-5 25,-5 26,-6 26,-6 26,-7 26,-8 26,-7" /><path style="fill:none;stroke:#4c4c4c;stroke-width:2" d="M171,57 l25,7 25,8 25,7 25,6 26,6 25,5 25,5 25,4 25,4 26,3 25,3 25,3 25,1 26,2 25,0 25,1 26,-1 25,0 25,-2 26,-1 25,-3 26,-3 25,-3 26,-4 25,-4 26,-5 25,-5 26,-6 25,-6 26,-7 26,-8 25,-7" /><path style="fill:none;stroke:#4c4c4c;stroke-width:2" d="M24,57 l25,7 26,8 25,7 26,6 25,6 25,5 26,5 25,4 26,4 25,3 25,3 26,3 25,1 25,2 26,0 25,1 25,-1 26,0 25,-2 26,-1 25,-3 26,-3 25,-3 26,-4 25,-4 26,-5 25,-5 26,-6 25,-6 26,-7 26,-8 25,-7" /><path style="fill:none;stroke:#4c4c4c;stroke-width:2" d="M10,57 l26,7 25,8 26,7 25,6 25,6 26,5 25,5 25,4 25,4 26,3 25,3 25,3 25,1 26,2 25,0 25,1 25,-1 26,0 25,-2 25,-1 26,-3 25,-3 25,-3 26,-4 25,-4 26,-5 25,-5 26,-6 25,-6 26,-7 25,-8 26,-7" /><path style="fill:none;stroke:#4c4c4c;stroke-width:2" d="M10,57 l0,-22" /><path style="fill:none;stroke:#4c4c4c;stroke-width:2" d="M16,51 l-11,0" /><path style="fill:none;stroke:#4c4c4c;stroke-width:2" d="M5,46 l11,0" /><path style="fill:none;stroke:#4c4c4c;stroke-width:2" d="M16,40 l-11,0" /><path style="fill:none;stroke:#4c4c4c;stroke-width:2" d="M24,57 l0,-22" /><path style="fill:none;stroke:#4c4c4c;stroke-width:2" d="M29,51 l-8,0" /><path style="fill:none;stroke:#4c4c4c;stroke-width:2" d="M21,46 l8,0" /><path style="fill:none;stroke:#4c4c4c;stroke-width:2" d="M29,40 l-8,0" /><path style="fill:none;stroke:#4c4c4c;stroke-width:2" d="M168,57 l0,-22" /><path style="fill:none;stroke:#4c4c4c;stroke-width:2" d="M173,51 l-8,0" /><path style="fill:none;stroke:#4c4c4c;stroke-width:2" d="M165,46 l8,0" /><path style="fill:none;stroke:#4c4c4c;stroke-width:2" d="M173,40 l-8,0" /><path style="fill:none;stroke:#4c4c4c;stroke-width:2" d="M184,57 l0,-22" /><path style="fill:none;stroke:#4c4c4c;stroke-width:2" d="M190,51 l-11,0" /><path style="fill:none;stroke:#4c4c4c;stroke-width:2" d="M179,46 l11,0" /><path style="fill:none;stroke:#4c4c4c;stroke-width:2" d="M190,40 l-11,0" /><path style="fill:none;stroke:#4c4c4c;stroke-width:2" d="M92,21 l0,-21" /><path style="fill:none;stroke:#4c4c4c;stroke-width:2" d="M97,16 l-11,0" /><path style="fill:none;stroke:#4c4c4c;stroke-width:2" d="M86,10 l11,0" /><path style="fill:none;stroke:#4c4c4c;stroke-width:2" d="M97,5 l-11,0" /><path style="fill:none;stroke:#4c4c4c;stroke-width:2" d="M108,21 l0,-21" /><path style="fill:none;stroke:#4c4c4c;stroke-width:2" d="M114,16 l-11,0" /><path style="fill:none;stroke:#4c4c4c;stroke-width:2" d="M103,10 l11,0" /><path style="fill:none;stroke:#4c4c4c;stroke-width:2" d="M114,5 l-11,0" /><path style="fill:none;stroke:#4c4c4c;stroke-width:2" d="M103,638 l0,-438" /><path style="fill:none;stroke:#4c4c4c;stroke-width:2" d="M35,67 l125,0" /></svg>