<!DOCTYPE svg PUBLIC "-//W3C//DTD SVG 20000303 Stylable//EN" "http://www.w3.org/TR/2000/03/WD-SVG-20000303/DTD/svg-20000303-stylable.dtd"[]><svg xmlns="http://www.w3.org/2000/svg" width="360px" height="999px" viewBox="0 0 329 999"><path style="fill:#666" d="M144,994 l10,-960 20,0 10,960 -40,0z" /><path style="fill:#b2b2b2" d="M150,994 l7,-960 14,0 8,960 -29,0z" /><path style="fill:#e5e5e5" d="M160,994 l2,-960 5,0 2,960 -9,0z" /><path style="fill:none;stroke:#4c4c4c;stroke-width:2" d="M144,994 l10,-960 20,0 10,960 -40,0" /><path style="fill:#999;stroke:#4c4c4c;stroke-width:2" d="M4,184 l320,0 0,10 -320,0 0,-10z" /><path style="fill:#999;stroke:#4c4c4c;stroke-width:2" d="M4,104 l320,0 0,10 -320,0 0,-10z" /><path style="fill:none;stroke:#4c4c4c;stroke-width:2" d="M4,159 l10,0" /><path style="fill:none;stroke:#4c4c4c;stroke-width:2" d="M14,164 l-10,0" /><path style="fill:none;stroke:#4c4c4c;stroke-width:2" d="M4,169 l10,0" /><path style="fill:none;stroke:#4c4c4c;stroke-width:2" d="M14,174 l-10,0" /><path style="fill:none;stroke:#4c4c4c;stroke-width:2" d="M4,172 l10,0" /><path style="fill:none;stroke:#4c4c4c;stroke-width:2" d="M14,167 l-10,0" /><path style="fill:none;stroke:#4c4c4c;stroke-width:2" d="M4,162 l10,0" /><path style="fill:none;stroke:#4c4c4c;stroke-width:2" d="M9,154 l0,30" /><path style="fill:none;stroke:#4c4c4c;stroke-width:2" d="M314,159 l10,0" /><path style="fill:none;stroke:#4c4c4c;stroke-width:2" d="M324,164 l-10,0" /><path style="fill:none;stroke:#4c4c4c;stroke-width:2" d="M314,169 l10,0" /><path style="fill:none;stroke:#4c4c4c;stroke-width:2" d="M324,174 l-10,0" /><path style="fill:none;stroke:#4c4c4c;stroke-width:2" d="M314,172 l10,0" /><path style="fill:none;stroke:#4c4c4c;stroke-width:2" d="M324,167 l-10,0" /><path style="fill:none;stroke:#4c4c4c;stroke-width:2" d="M314,162 l10,0" /><path style="fill:none;stroke:#4c4c4c;stroke-width:2" d="M319,154 l0,30" /><path style="fill:none;stroke:#4c4c4c;stroke-width:2" d="M104,159 l10,0" /><path style="fill:none;stroke:#4c4c4c;stroke-width:2" d="M114,164 l-10,0" /><path style="fill:none;stroke:#4c4c4c;stroke-width:2" d="M104,169 l10,0" /><path style="fill:none;stroke:#4c4c4c;stroke-width:2" d="M114,174 l-10,0" /><path style="fill:none;stroke:#4c4c4c;stroke-width:2" d="M104,172 l10,0" /><path style="fill:none;stroke:#4c4c4c;stroke-width:2" d="M114,167 l-10,0" /><path style="fill:none;stroke:#4c4c4c;stroke-width:2" d="M104,162 l10,0" /><path style="fill:none;stroke:#4c4c4c;stroke-width:2" d="M110,154 l0,30" /><path style="fill:none;stroke:#4c4c4c;stroke-width:2" d="M214,159 l10,0" /><path style="fill:none;stroke:#4c4c4c;stroke-width:2" d="M224,164 l-10,0" /><path style="fill:none;stroke:#4c4c4c;stroke-width:2" d="M214,169 l10,0" /><path style="fill:none;stroke:#4c4c4c;stroke-width:2" d="M224,174 l-10,0" /><path style="fill:none;stroke:#4c4c4c;stroke-width:2" d="M214,172 l10,0" /><path style="fill:none;stroke:#4c4c4c;stroke-width:2" d="M224,167 l-10,0" /><path style="fill:none;stroke:#4c4c4c;stroke-width:2" d="M214,162 l10,0" /><path style="fill:none;stroke:#4c4c4c;stroke-width:2" d="M219,154 l0,30" /><path style="fill:none;stroke:#4c4c4c;stroke-width:2" d="M314,79 l10,0" /><path style="fill:none;stroke:#4c4c4c;stroke-width:2" d="M324,84 l-10,0" /><path style="fill:none;stroke:#4c4c4c;stroke-width:2" d="M314,89 l10,0" /><path style="fill:none;stroke:#4c4c4c;stroke-width:2" d="M324,94 l-10,0" /><path style="fill:none;stroke:#4c4c4c;stroke-width:2" d="M314,92 l10,0" /><path style="fill:none;stroke:#4c4c4c;stroke-width:2" d="M324,87 l-10,0" /><path style="fill:none;stroke:#4c4c4c;stroke-width:2" d="M314,82 l10,0" /><path style="fill:none;stroke:#4c4c4c;stroke-width:2" d="M319,74 l0,30" /><path style="fill:none;stroke:#4c4c4c;stroke-width:2" d="M159,9 l10,0" /><path style="fill:none;stroke:#4c4c4c;stroke-width:2" d="M169,14 l-10,0" /><path style="fill:none;stroke:#4c4c4c;stroke-width:2" d="M159,19 l10,0" /><path style="fill:none;stroke:#4c4c4c;stroke-width:2" d="M169,24 l-10,0" /><path style="fill:none;stroke:#4c4c4c;stroke-width:2" d="M159,22 l10,0" /><path style="fill:none;stroke:#4c4c4c;stroke-width:2" d="M169,17 l-10,0" /><path style="fill:none;stroke:#4c4c4c;stroke-width:2" d="M159,12 l10,0" /><path style="fill:none;stroke:#4c4c4c;stroke-width:2" d="M164,4 l0,30" /><path style="fill:none;stroke:#4c4c4c;stroke-width:2" d="M4,79 l10,0" /><path style="fill:none;stroke:#4c4c4c;stroke-width:2" d="M14,84 l-10,0" /><path style="fill:none;stroke:#4c4c4c;stroke-width:2" d="M4,89 l10,0" /><path style="fill:none;stroke:#4c4c4c;stroke-width:2" d="M14,94 l-10,0" /><path style="fill:none;stroke:#4c4c4c;stroke-width:2" d="M4,92 l10,0" /><path style="fill:none;stroke:#4c4c4c;stroke-width:2" d="M14,87 l-10,0" /><path style="fill:none;stroke:#4c4c4c;stroke-width:2" d="M4,82 l10,0" /><path style="fill:none;stroke:#4c4c4c;stroke-width:2" d="M9,74 l0,30" /><path style="fill:none;stroke:#fff;stroke-width:2" d="M9,189 l310,0" /><path style="fill:none;stroke:#fff;stroke-width:2" d="M9,109 l310,0" /></svg>