<!DOCTYPE svg PUBLIC "-//W3C//DTD SVG 20000303 Stylable//EN" "http://www.w3.org/TR/2000/03/WD-SVG-20000303/DTD/svg-20000303-stylable.dtd"[]><svg xmlns="http://www.w3.org/2000/svg" width="684px" height="999px" viewBox="0 0 665 999"><path style="fill:#ccc;stroke:#4c4c4c;stroke-width:2" d="M0,0 l665,0 0,999 -665,0 0,-999z" /><path style="fill:#f2f2f2" d="M20,20 l625,0 0,958 -625,0 0,-958z" /><path style="fill:#f0f0f0" d="M20,537 l625,-394 0,835 -625,0 0,-441z" /><path style="fill:#ededed" d="M20,585 l625,-396 0,787 -625,0 0,-391z" /><path style="fill:#ebebeb" d="M20,629 l625,-396 0,743 -625,0 0,-347z" /><path style="fill:#e8e8e8" d="M20,673 l625,-396 0,699 -625,0 0,-303z" /><path style="fill:#e5e5e5" d="M20,717 l625,-396 0,655 -625,0 0,-259z" /><path style="fill:#e3e3e3" d="M20,761 l625,-396 0,611 -625,0 0,-215z" /><path style="fill:#e0e0e0" d="M20,803 l625,-394 0,567 -625,0 0,-173z" /><path style="fill:#dedede" d="M20,847 l625,-394 0,523 -625,0 0,-129z" /><path style="fill:#dbdbdb" d="M20,891 l625,-394 0,479 -625,0 0,-85z" /><path style="fill:#d9d9d9" d="M20,937 l625,-396 0,437 -625,0 0,-41z" /><path style="fill:none;stroke:#999;stroke-width:2" d="M20,20 l625,0 0,958 -625,0 0,-958" /><ellipse style="fill:#fff;stroke:#ccc;stroke-width:2" cx="102" cy="103" rx="21" ry="19" /><path style="fill:#ccc" d="M30,623 l603,0 0,168 -603,0 0,-168z" /><path style="fill:#d9d9d9" d="M249,623 l166,0 0,168 -166,0 0,-168z" /><path style="fill:none;stroke:#666;stroke-width:2" d="M30,623 l603,0" /><path style="fill:#396" d="M435,635 l178,0 0,72 -178,0 0,-72z" /><path style="fill:#3da370" d="M435,707 l178,-52 0,52 -178,0z" /><path style="fill:#47ad7a" d="M459,707 l154,-46 0,46 -154,0z" /><path style="fill:#52b885" d="M481,707 l132,-40 0,40 -132,0z" /><path style="fill:#5ec491" d="M503,707 l110,-32 0,32 -110,0z" /><path style="fill:#69cf9c" d="M525,707 l88,-26 0,26 -88,0z" /><path style="fill:#73d9a6" d="M549,707 l64,-18 0,18 -64,0z" /><path style="fill:none;stroke:#4c4c4c;stroke-width:2" d="M435,707 l0,-72 178,0" /><path style="fill:none;stroke:#fff;stroke-width:2" d="M613,633 l0,74 -176,0" /><path style="fill:#fff" d="M581,739 l32,0 0,30 -32,0 0,-30z" /><path style="fill:#fff" d="M533,739 l32,0 0,30 -32,0 0,-30z" /><path style="fill:#fff" d="M483,739 l34,0 0,30 -34,0 0,-30z" /><path style="fill:#fff" d="M435,739 l34,0 0,30 -34,0 0,-30z" /><path style="fill:#fff" d="M367,755 l32,0 0,14 -32,0 0,-14z" /><path style="fill:#fff" d="M327,755 l30,0 0,14 -30,0 0,-14z" /><path style="fill:#fff" d="M269,649 l20,0 0,32 -20,0 0,-32z" /><path style="fill:#fff" d="M285,739 l30,0 0,30 -30,0 0,-30z" /><circle style="fill:#fff" cx="358" cy="666" r="21" /><path style="fill:#4c4c4c" d="M587,743 l20,0 0,22 -20,0 0,-22z" /><path style="fill:#4c4c4c" d="M537,743 l22,0 0,22 -22,0 0,-22z" /><path style="fill:#4c4c4c" d="M489,743 l22,0 0,22 -22,0 0,-22z" /><path style="fill:#4c4c4c" d="M441,743 l22,0 0,22 -22,0 0,-22z" /><path style="fill:#666" d="M91,93 l6,0 0,20 -6,0 0,-20z" /><path style="fill:#666" d="M107,93 l6,0 0,20 -6,0 0,-20z" /><path style="fill:none;stroke:#fff;stroke-width:2" d="M30,791 l603,0" /><path style="fill:none;stroke:#b2b2b2;stroke-width:2" d="M249,623 l166,0" /><path style="fill:none;stroke:#b2b2b2;stroke-width:2" d="M249,791 l166,0" /><path style="fill:#b2b2b2" d="M373,759 l22,0 0,6 -22,0 0,-6z" /><path style="fill:#b2b2b2" d="M331,759 l22,0 0,6 -22,0 0,-6z" /><path style="fill:#b2b2b2" d="M289,743 l22,0 0,22 -22,0 0,-22z" /><path style="fill:#b2b2b2" d="M275,655 l10,0 0,22 -10,0 0,-22z" /><circle style="fill:#b2b2b2" cx="358" cy="665" r="15" /><path style="fill:none;stroke:#4c4c4c;stroke-width:2" d="M20,976 l625,0 0,-956" /></svg>