<!DOCTYPE svg PUBLIC "-//W3C//DTD SVG 1.1//EN" "http://www.w3.org/Graphics/SVG/1.1/DTD/svg11.dtd"[]><svg version="1.1" xmlns="http://www.w3.org/2000/svg" xmlns:xlink="http://www.w3.org/1999/xlink" width="112px" height="108px" viewBox="0 0 112.5 108.332" enable-background="new 0 0 112.5 108.332" xml:space="preserve">
<g id="Group_45_Bend">
	
		<radialGradient id="SVGID_1_" cx="173.4854" cy="333.7485" r="48.272" gradientTransform="matrix(2.3456 2.0252 2.0174 -2.3363 -973.6466 388.9274)" gradientUnits="userSpaceOnUse">
		<stop offset="0" style="stop-color:#646566" />
		<stop offset="0.42" style="stop-color:#646566" />
		<stop offset="0.52" style="stop-color:#959595" />
		<stop offset="0.68" style="stop-color:#E0E0E0" />
		<stop offset="0.92" style="stop-color:#737373" />
		<stop offset="1" style="stop-color:#666666" />
	</radialGradient>
	<path fill="url(#SVGID_1_)" d="M110.837,24.627c-0.312-0.004-0.601-0.12-0.911-0.124c-20.344,0.104-40.807-7.359-56.692-22.217   C27.53,27.901,0.989,55.038,0.989,55.038c28.58,28.58,68.81,46.939,110.932,46.049" />
</g>
<g id="Group_Fins">
	
		<linearGradient id="SVGID_2_" gradientUnits="userSpaceOnUse" x1="44.9502" y1="116.7944" x2="44.9502" y2="110.3716" gradientTransform="matrix(0.0013 0.9936 0.9916 -0.0016 -3.4406 20.3376)">
		<stop offset="0" style="stop-color:#666666" />
		<stop offset="0.44" style="stop-color:#B2B2B2" />
		<stop offset="1" style="stop-color:#D1D1D1" />
	</linearGradient>
	<path fill="url(#SVGID_2_)" stroke="#4C4C4C" stroke-width="0.2482" d="M112.484,108.563l-6.365,0.009l-0.11-87.497l6.365-0.011   L112.484,108.563z" />
	
		<linearGradient id="SVGID_3_" gradientUnits="userSpaceOnUse" x1="44.5024" y1="104.5308" x2="43.8478" y2="98.3024" gradientTransform="matrix(0.0013 0.9936 0.9916 -0.0016 -3.4406 20.3376)">
		<stop offset="0" style="stop-color:#666666" />
		<stop offset="0.44" style="stop-color:#B2B2B2" />
		<stop offset="1" style="stop-color:#D1D1D1" />
	</linearGradient>
	<path fill="url(#SVGID_3_)" stroke="#4C4C4C" stroke-width="0.2482" d="M98.749,20.305l6.029,0.55l-9.05,87.063l-6.142-0.658   L98.749,20.305z" />
	
		<linearGradient id="SVGID_4_" gradientUnits="userSpaceOnUse" x1="42.9375" y1="92.7808" x2="41.5922" y2="86.4515" gradientTransform="matrix(0.0013 0.9936 0.9916 -0.0016 -3.4406 20.3376)">
		<stop offset="0" style="stop-color:#666666" />
		<stop offset="0.44" style="stop-color:#B2B2B2" />
		<stop offset="1" style="stop-color:#D1D1D1" />
	</linearGradient>
	<path fill="url(#SVGID_4_)" stroke="#4C4C4C" stroke-width="0.2482" d="M91.376,18.639l6.253,1.444l-18.204,85.622l-6.031-1.335   L91.376,18.639z" />
	
		<linearGradient id="SVGID_5_" gradientUnits="userSpaceOnUse" x1="40.4404" y1="81.8091" x2="38.1274" y2="74.2436" gradientTransform="matrix(0.0013 0.9936 0.9916 -0.0016 -3.4406 20.3376)">
		<stop offset="0" style="stop-color:#666666" />
		<stop offset="0.44" style="stop-color:#B2B2B2" />
		<stop offset="1" style="stop-color:#D1D1D1" />
	</linearGradient>
	<path fill="url(#SVGID_5_)" stroke="#4C4C4C" stroke-width="0.2482" d="M84.449,16.747l6.03,1.668l-26.915,83.512l-6.035-2.002   L84.449,16.747z" />
	
		<linearGradient id="SVGID_6_" gradientUnits="userSpaceOnUse" x1="36.6709" y1="70.5073" x2="33.5634" y2="63.1864" gradientTransform="matrix(0.0013 0.9936 0.9916 -0.0016 -3.4406 20.3376)">
		<stop offset="0" style="stop-color:#666666" />
		<stop offset="0.44" style="stop-color:#B2B2B2" />
		<stop offset="1" style="stop-color:#D1D1D1" />
	</linearGradient>
	<path fill="url(#SVGID_6_)" stroke="#4C4C4C" stroke-width="0.2482" d="M77.745,13.849l5.81,2.452L47.924,96.359l-5.589-2.673   L77.745,13.849z" />
	
		<linearGradient id="SVGID_7_" gradientUnits="userSpaceOnUse" x1="31.5181" y1="59.5894" x2="27.7366" y2="52.7675" gradientTransform="matrix(0.0013 0.9936 0.9916 -0.0016 -3.4406 20.3376)">
		<stop offset="0" style="stop-color:#666666" />
		<stop offset="0.44" style="stop-color:#B2B2B2" />
		<stop offset="1" style="stop-color:#D1D1D1" />
	</linearGradient>
	<path fill="url(#SVGID_7_)" stroke="#4C4C4C" stroke-width="0.2482" d="M71.264,10.054l5.589,3.124L33.172,89.221l-5.363-3.122   L71.264,10.054z" />
	
		<linearGradient id="SVGID_8_" gradientUnits="userSpaceOnUse" x1="25.3643" y1="49.2119" x2="20.7812" y2="42.6667" gradientTransform="matrix(0.0013 0.9936 0.9916 -0.0016 -3.4406 20.3376)">
		<stop offset="0" style="stop-color:#666666" />
		<stop offset="0.44" style="stop-color:#B2B2B2" />
		<stop offset="1" style="stop-color:#D1D1D1" />
	</linearGradient>
	<path fill="url(#SVGID_8_)" stroke="#4C4C4C" stroke-width="0.2482" d="M65.452,6.037l4.917,3.571L19.09,80.52l-5.141-3.799   L65.452,6.037z" />
	
		<linearGradient id="SVGID_9_" gradientUnits="userSpaceOnUse" x1="17.75" y1="39.1509" x2="13.4261" y2="34.3487" gradientTransform="matrix(0.0013 0.9936 0.9916 -0.0016 -3.4406 20.3376)">
		<stop offset="0" style="stop-color:#666666" />
		<stop offset="0.44" style="stop-color:#B2B2B2" />
		<stop offset="1" style="stop-color:#D1D1D1" />
	</linearGradient>
	<path fill="url(#SVGID_9_)" stroke="#4C4C4C" stroke-width="0.2482" d="M59.862,1.122l4.694,4.133L6.234,70.467l-4.809-4.242   L59.862,1.122z" />
</g>
</svg>