<!DOCTYPE svg PUBLIC "-//W3C//DTD SVG 1.1//EN" "http://www.w3.org/Graphics/SVG/1.1/DTD/svg11.dtd"[]><svg version="1.1" xmlns="http://www.w3.org/2000/svg" xmlns:xlink="http://www.w3.org/1999/xlink" width="106px" height="112px" viewBox="0 0 105.969 112.5" enable-background="new 0 0 105.969 112.5" xml:space="preserve">
<g id="Group_45_Bend">
	
		<radialGradient id="SVGID_1_" cx="150.6851" cy="333.1904" r="48.2733" gradientTransform="matrix(0.2386 -3.0983 3.2426 0.226 -965.455 494.4041)" gradientUnits="userSpaceOnUse">
		<stop offset="0" style="stop-color:#646566" />
		<stop offset="0.42" style="stop-color:#646566" />
		<stop offset="0.52" style="stop-color:#959595" />
		<stop offset="0.68" style="stop-color:#E0E0E0" />
		<stop offset="0.92" style="stop-color:#737373" />
		<stop offset="1" style="stop-color:#666666" />
	</radialGradient>
	<path fill="url(#SVGID_1_)" d="M106.336,54.407c-0.228,0.224-0.357,0.511-0.586,0.734c-15.23,14.348-24.911,34.144-25.677,55.935   c-38.221,0.063-78.2-0.358-78.2-0.358c0-40.52,16.288-82.052,48.326-111.279" />
</g>
<g id="Group_Fins">
	
		<linearGradient id="SVGID_2_" gradientUnits="userSpaceOnUse" x1="63.1147" y1="111.916" x2="63.1147" y2="105.5303" gradientTransform="matrix(-1 0 0 1 105.9697 0)">
		<stop offset="0" style="stop-color:#666666" />
		<stop offset="0.44" style="stop-color:#B2B2B2" />
		<stop offset="1" style="stop-color:#D1D1D1" />
	</linearGradient>
	<path fill="url(#SVGID_2_)" stroke="#4C4C4C" stroke-width="0.2458" d="M0.056,111.916v-6.386h85.597v6.386H0.056z" />
	
		<linearGradient id="SVGID_3_" gradientUnits="userSpaceOnUse" x1="62.6899" y1="99.8223" x2="62.0178" y2="93.4268" gradientTransform="matrix(-1 0 0 1 105.9697 0)">
		<stop offset="0" style="stop-color:#666666" />
		<stop offset="0.44" style="stop-color:#B2B2B2" />
		<stop offset="1" style="stop-color:#D1D1D1" />
	</linearGradient>
	<path fill="url(#SVGID_3_)" stroke="#4C4C4C" stroke-width="0.2458" d="M86.419,98.249l-0.548,6.049L0.713,95.111L1.37,88.95   L86.419,98.249z" />
	
		<linearGradient id="SVGID_4_" gradientUnits="userSpaceOnUse" x1="61.2163" y1="88.2256" x2="59.8127" y2="81.6221" gradientTransform="matrix(-1 0 0 1 105.9697 0)">
		<stop offset="0" style="stop-color:#666666" />
		<stop offset="0.44" style="stop-color:#B2B2B2" />
		<stop offset="1" style="stop-color:#D1D1D1" />
	</linearGradient>
	<path fill="url(#SVGID_4_)" stroke="#4C4C4C" stroke-width="0.2458" d="M88.06,90.855l-1.423,6.272L2.902,78.755l1.313-6.048   L88.06,90.855z" />
	
		<linearGradient id="SVGID_5_" gradientUnits="userSpaceOnUse" x1="58.8179" y1="77.3838" x2="56.3581" y2="69.3383" gradientTransform="matrix(-1 0 0 1 105.9697 0)">
		<stop offset="0" style="stop-color:#666666" />
		<stop offset="0.44" style="stop-color:#B2B2B2" />
		<stop offset="1" style="stop-color:#D1D1D1" />
	</linearGradient>
	<path fill="url(#SVGID_5_)" stroke="#4C4C4C" stroke-width="0.2458" d="M89.921,83.908l-1.643,6.05L6.624,62.848l1.971-6.05   L89.921,83.908z" />
	
		<linearGradient id="SVGID_6_" gradientUnits="userSpaceOnUse" x1="55.2144" y1="66.2021" x2="51.8535" y2="58.2844" gradientTransform="matrix(-1 0 0 1 105.9697 0)">
		<stop offset="0" style="stop-color:#666666" />
		<stop offset="0.44" style="stop-color:#B2B2B2" />
		<stop offset="1" style="stop-color:#D1D1D1" />
	</linearGradient>
	<path fill="url(#SVGID_6_)" stroke="#4C4C4C" stroke-width="0.2458" d="M92.768,77.188l-2.409,5.824L12.097,47.164l2.627-5.602   L92.768,77.188z" />
	
		<linearGradient id="SVGID_7_" gradientUnits="userSpaceOnUse" x1="50.2827" y1="55.3735" x2="46.1301" y2="47.882" gradientTransform="matrix(-1 0 0 1 105.9697 0)">
		<stop offset="0" style="stop-color:#666666" />
		<stop offset="0.44" style="stop-color:#B2B2B2" />
		<stop offset="1" style="stop-color:#D1D1D1" />
	</linearGradient>
	<path fill="url(#SVGID_7_)" stroke="#4C4C4C" stroke-width="0.2458" d="M96.49,70.689l-3.065,5.602L19.102,32.376l3.065-5.377   L96.49,70.689z" />
	
		<linearGradient id="SVGID_8_" gradientUnits="userSpaceOnUse" x1="44.3784" y1="45.0522" x2="39.3148" y2="37.8207" gradientTransform="matrix(-1 0 0 1 105.9697 0)">
		<stop offset="0" style="stop-color:#666666" />
		<stop offset="0.44" style="stop-color:#B2B2B2" />
		<stop offset="1" style="stop-color:#D1D1D1" />
	</linearGradient>
	<path fill="url(#SVGID_8_)" stroke="#4C4C4C" stroke-width="0.2458" d="M100.429,64.865l-3.502,4.929L27.639,18.261l3.722-5.153   L100.429,64.865z" />
	
		<linearGradient id="SVGID_9_" gradientUnits="userSpaceOnUse" x1="36.9814" y1="34.9683" x2="32.1119" y2="29.5601" gradientTransform="matrix(-1 0 0 1 105.9697 0)">
		<stop offset="0" style="stop-color:#666666" />
		<stop offset="0.44" style="stop-color:#B2B2B2" />
		<stop offset="1" style="stop-color:#D1D1D1" />
	</linearGradient>
	<path fill="url(#SVGID_9_)" stroke="#4C4C4C" stroke-width="0.2458" d="M105.246,59.264l-4.05,4.704L37.491,5.377L41.65,0.56   L105.246,59.264z" />
</g>
</svg>