<!DOCTYPE svg PUBLIC "-//W3C//DTD SVG 1.1//EN" "http://www.w3.org/Graphics/SVG/1.1/DTD/svg11.dtd"[]><svg version="1.1" xmlns="http://www.w3.org/2000/svg" xmlns:xlink="http://www.w3.org/1999/xlink" width="112px" height="108px" viewBox="0 0 112.5 108.223" enable-background="new 0 0 112.5 108.223" xml:space="preserve">
<g id="Group_45_Bend">
	
		<radialGradient id="SVGID_1_" cx="157.9541" cy="335.0208" r="53.0998" gradientTransform="matrix(2.1543 -1.8583 1.8647 2.1574 -857.8885 -279.4279)" gradientUnits="userSpaceOnUse">
		<stop offset="0" style="stop-color:#646566" />
		<stop offset="0.42" style="stop-color:#646566" />
		<stop offset="0.52" style="stop-color:#959595" />
		<stop offset="0.68" style="stop-color:#E0E0E0" />
		<stop offset="0.92" style="stop-color:#737373" />
		<stop offset="1" style="stop-color:#666666" />
	</radialGradient>
	<path fill="url(#SVGID_1_)" d="M111.191,84.92c-0.315,0.004-0.607,0.12-0.923,0.123c-20.609-0.17-41.315,7.324-57.359,22.326   C26.789,81.339-0.183,53.762-0.183,53.762C28.677,24.901,69.371,6.43,112.047,7.468" />
</g>
<g id="Group_Fins">
	
		<linearGradient id="SVGID_2_" gradientUnits="userSpaceOnUse" x1="66.1338" y1="110.5432" x2="66.1338" y2="104.1223" gradientTransform="matrix(-0.0012 -1 1 -0.0012 2.0256 110.2334)">
		<stop offset="0" style="stop-color:#666666" />
		<stop offset="0.44" style="stop-color:#B2B2B2" />
		<stop offset="1" style="stop-color:#D1D1D1" />
	</linearGradient>
	<path fill="url(#SVGID_2_)" stroke="#4C4C4C" stroke-width="0.25" d="M112.437-0.065l-6.419,0.008l0.104,88.063l6.419-0.008   L112.437-0.065z" />
	
		<linearGradient id="SVGID_3_" gradientUnits="userSpaceOnUse" x1="65.6855" y1="98.2776" x2="65.0318" y2="92.0579" gradientTransform="matrix(-0.0012 -1 1 -0.0012 2.0256 110.2334)">
		<stop offset="0" style="stop-color:#666666" />
		<stop offset="0.44" style="stop-color:#B2B2B2" />
		<stop offset="1" style="stop-color:#D1D1D1" />
	</linearGradient>
	<path fill="url(#SVGID_3_)" stroke="#4C4C4C" stroke-width="0.25" d="M98.803,88.803l6.079-0.571L95.545,0.631l-6.193,0.683   L98.803,88.803z" />
	
		<linearGradient id="SVGID_4_" gradientUnits="userSpaceOnUse" x1="64.1211" y1="86.5286" x2="62.7756" y2="80.1983" gradientTransform="matrix(-0.0012 -1 1 -0.0012 2.0256 110.2334)">
		<stop offset="0" style="stop-color:#666666" />
		<stop offset="0.44" style="stop-color:#B2B2B2" />
		<stop offset="1" style="stop-color:#D1D1D1" />
	</linearGradient>
	<path fill="url(#SVGID_4_)" stroke="#4C4C4C" stroke-width="0.25" d="M91.372,90.5l6.304-1.472L79.105,2.902l-6.078,1.359   L91.372,90.5z" />
	
		<linearGradient id="SVGID_5_" gradientUnits="userSpaceOnUse" x1="61.624" y1="75.5588" x2="59.3127" y2="67.999" gradientTransform="matrix(-0.0012 -1 1 -0.0012 2.0256 110.2334)">
		<stop offset="0" style="stop-color:#666666" />
		<stop offset="0.44" style="stop-color:#B2B2B2" />
		<stop offset="1" style="stop-color:#D1D1D1" />
	</linearGradient>
	<path fill="url(#SVGID_5_)" stroke="#4C4C4C" stroke-width="0.25" d="M84.392,92.423l6.079-1.696L63.12,6.75l-6.079,2.035   L84.392,92.423z" />
	
		<linearGradient id="SVGID_6_" gradientUnits="userSpaceOnUse" x1="57.8535" y1="64.2551" x2="54.7483" y2="56.9396" gradientTransform="matrix(-0.0012 -1 1 -0.0012 2.0256 110.2334)">
		<stop offset="0" style="stop-color:#666666" />
		<stop offset="0.44" style="stop-color:#B2B2B2" />
		<stop offset="1" style="stop-color:#D1D1D1" />
	</linearGradient>
	<path fill="url(#SVGID_6_)" stroke="#4C4C4C" stroke-width="0.25" d="M77.639,95.359l5.853-2.484l-36.13-80.475l-5.628,2.709   L77.639,95.359z" />
	
		<linearGradient id="SVGID_7_" gradientUnits="userSpaceOnUse" x1="52.7017" y1="53.3386" x2="48.9231" y2="46.5219" gradientTransform="matrix(-0.0012 -1 1 -0.0012 2.0256 110.2334)">
		<stop offset="0" style="stop-color:#666666" />
		<stop offset="0.44" style="stop-color:#B2B2B2" />
		<stop offset="1" style="stop-color:#D1D1D1" />
	</linearGradient>
	<path fill="url(#SVGID_7_)" stroke="#4C4C4C" stroke-width="0.25" d="M71.111,99.196l5.628-3.16L32.504,19.624l-5.402,3.16   L71.111,99.196z" />
	
		<linearGradient id="SVGID_8_" gradientUnits="userSpaceOnUse" x1="46.5464" y1="42.9631" x2="41.9662" y2="36.4219" gradientTransform="matrix(-0.0012 -1 1 -0.0012 2.0256 110.2334)">
		<stop offset="0" style="stop-color:#666666" />
		<stop offset="0.44" style="stop-color:#B2B2B2" />
		<stop offset="1" style="stop-color:#D1D1D1" />
	</linearGradient>
	<path fill="url(#SVGID_8_)" stroke="#4C4C4C" stroke-width="0.25" d="M65.261,103.256l4.951-3.609L18.326,28.424l-5.176,3.835   L65.261,103.256z" />
	
		<linearGradient id="SVGID_9_" gradientUnits="userSpaceOnUse" x1="38.9355" y1="32.9065" x2="34.6123" y2="28.1051" gradientTransform="matrix(-0.0012 -1 1 -0.0012 2.0256 110.2334)">
		<stop offset="0" style="stop-color:#666666" />
		<stop offset="0.44" style="stop-color:#B2B2B2" />
		<stop offset="1" style="stop-color:#D1D1D1" />
	</linearGradient>
	<path fill="url(#SVGID_9_)" stroke="#4C4C4C" stroke-width="0.25" d="M59.636,108.218l4.725-4.173L5.387,38.575L0.55,42.86   L59.636,108.218z" />
</g>
</svg>