<!DOCTYPE svg PUBLIC "-//W3C//DTD SVG 1.1//EN" "http://www.w3.org/Graphics/SVG/1.1/DTD/svg11.dtd"[]><svg version="1.1" xmlns="http://www.w3.org/2000/svg" xmlns:xlink="http://www.w3.org/1999/xlink" width="112px" height="111px" viewBox="0 0 112.5 110.585" enable-background="new 0 0 112.5 110.585" xml:space="preserve">
<g id="Group_90_Bend">
	
		<radialGradient id="SVGID_1_" cx="142.7822" cy="319.5835" r="30.2106" gradientTransform="matrix(0.2521 3.3666 3.4254 -0.2456 -1027.2747 -395.6557)" gradientUnits="userSpaceOnUse">
		<stop offset="0" style="stop-color:#595959" />
		<stop offset="0.42" style="stop-color:#646566" />
		<stop offset="0.52" style="stop-color:#959595" />
		<stop offset="0.68" style="stop-color:#E0E0E0" />
		<stop offset="0.92" style="stop-color:#737373" />
		<stop offset="1" style="stop-color:#666666" />
	</radialGradient>
	<path fill="url(#SVGID_1_)" d="M107.279,51.896c0.748,0,1.438-0.077,2.157-0.105l-0.156,51.493   c-69.182,0-104.115-52.33-104.115-102.149c0,0,28.14-0.288,54.044-0.23C58.463,26.101,74.449,51.896,107.279,51.896z" />
</g>
<g id="Group_Fins">
	
		<linearGradient id="SVGID_2_" gradientUnits="userSpaceOnUse" x1="60.6924" y1="132.4771" x2="60.6924" y2="128.0825" gradientTransform="matrix(0.0094 1 0.9888 -0.0093 -19.0844 19.4187)">
		<stop offset="0" style="stop-color:#666666" />
		<stop offset="0.44" style="stop-color:#B2B2B2" />
		<stop offset="1" style="stop-color:#D1D1D1" />
	</linearGradient>
	<path fill="url(#SVGID_2_)" stroke="#4C4C4C" stroke-width="0.2486" d="M107.847,48.403l4.343-0.042l0.576,61.034l-4.343,0.04   L107.847,48.403z" />
	
		<linearGradient id="SVGID_3_" gradientUnits="userSpaceOnUse" x1="-7.9888" y1="50.9189" x2="-13.4012" y2="50.2544" gradientTransform="matrix(0.0094 1 0.9888 -0.0093 -19.0844 19.4187)">
		<stop offset="0" style="stop-color:#666666" />
		<stop offset="0.44" style="stop-color:#B2B2B2" />
		<stop offset="1" style="stop-color:#D1D1D1" />
	</linearGradient>
	<path fill="url(#SVGID_3_)" stroke="#4C4C4C" stroke-width="0.2486" d="M1.058,14.051L0.57,9.55l60.072-6.873l0.486,4.275   L1.058,14.051z" />
	
		<linearGradient id="SVGID_4_" gradientUnits="userSpaceOnUse" x1="0.3462" y1="52.5654" x2="-5.0937" y2="51.3095" gradientTransform="matrix(0.0094 1 0.9888 -0.0093 -19.0844 19.4187)">
		<stop offset="0" style="stop-color:#666666" />
		<stop offset="0.44" style="stop-color:#B2B2B2" />
		<stop offset="1" style="stop-color:#D1D1D1" />
	</linearGradient>
	<path fill="url(#SVGID_4_)" stroke="#4C4C4C" stroke-width="0.2486" d="M3.169,25.405l-1.043-4.382L61.359,7.85l0.93,4.271   L3.169,25.405z" />
	
		<linearGradient id="SVGID_5_" gradientUnits="userSpaceOnUse" x1="8.1436" y1="54.8247" x2="3.03" y2="53.064" gradientTransform="matrix(0.0094 1 0.9888 -0.0093 -19.0844 19.4187)">
		<stop offset="0" style="stop-color:#666666" />
		<stop offset="0.44" style="stop-color:#B2B2B2" />
		<stop offset="1" style="stop-color:#D1D1D1" />
	</linearGradient>
	<path fill="url(#SVGID_5_)" stroke="#4C4C4C" stroke-width="0.2486" d="M6.392,36.41l-1.376-4.266l57.28-19.348l1.376,4.042   L6.392,36.41z" />
	
		<linearGradient id="SVGID_6_" gradientUnits="userSpaceOnUse" x1="15.3628" y1="57.9185" x2="11.284" y2="56.1024" gradientTransform="matrix(0.0094 1 0.9888 -0.0093 -19.0844 19.4187)">
		<stop offset="0" style="stop-color:#666666" />
		<stop offset="0.44" style="stop-color:#B2B2B2" />
		<stop offset="1" style="stop-color:#D1D1D1" />
	</linearGradient>
	<path fill="url(#SVGID_6_)" stroke="#4C4C4C" stroke-width="0.2486" d="M10.723,46.956l-1.82-4.037l55.22-25.409l1.709,4.038   L10.723,46.956z" />
	
		<linearGradient id="SVGID_7_" gradientUnits="userSpaceOnUse" x1="23.2246" y1="62.231" x2="18.5244" y2="59.4068" gradientTransform="matrix(0.0094 1 0.9888 -0.0093 -19.0844 19.4187)">
		<stop offset="0" style="stop-color:#666666" />
		<stop offset="0.44" style="stop-color:#B2B2B2" />
		<stop offset="1" style="stop-color:#D1D1D1" />
	</linearGradient>
	<path fill="url(#SVGID_7_)" stroke="#4C4C4C" stroke-width="0.2486" d="M16.165,57.153l-2.041-3.809l52.158-31.125l2.042,3.922   L16.165,57.153z" />
	
		<linearGradient id="SVGID_8_" gradientUnits="userSpaceOnUse" x1="30.0376" y1="67.0103" x2="25.4837" y2="63.5786" gradientTransform="matrix(0.0094 1 0.9888 -0.0093 -19.0844 19.4187)">
		<stop offset="0" style="stop-color:#666666" />
		<stop offset="0.44" style="stop-color:#B2B2B2" />
		<stop offset="1" style="stop-color:#D1D1D1" />
	</linearGradient>
	<path fill="url(#SVGID_8_)" stroke="#4C4C4C" stroke-width="0.2486" d="M22.713,66.55l-2.707-3.578l48.657-36.383l2.817,3.577   L22.713,66.55z" />
	
		<linearGradient id="SVGID_9_" gradientUnits="userSpaceOnUse" x1="36.2466" y1="72.3081" x2="32.4441" y2="68.7622" gradientTransform="matrix(0.0094 1 0.9888 -0.0093 -19.0844 19.4187)">
		<stop offset="0" style="stop-color:#666666" />
		<stop offset="0.44" style="stop-color:#B2B2B2" />
		<stop offset="1" style="stop-color:#D1D1D1" />
	</linearGradient>
	<path fill="url(#SVGID_9_)" stroke="#4C4C4C" stroke-width="0.2486" d="M30.034,75.377l-2.702-3.128l44.599-41.413l2.704,3.128   L30.034,75.377z" />
	
		<linearGradient id="SVGID_10_" gradientUnits="userSpaceOnUse" x1="41.5962" y1="77.9409" x2="38.8053" y2="74.8413" gradientTransform="matrix(0.0094 1 0.9888 -0.0093 -19.0844 19.4187)">
		<stop offset="0" style="stop-color:#666666" />
		<stop offset="0.44" style="stop-color:#B2B2B2" />
		<stop offset="1" style="stop-color:#D1D1D1" />
	</linearGradient>
	<path fill="url(#SVGID_10_)" stroke="#4C4C4C" stroke-width="0.2486" d="M38.349,83.183l-3.143-2.673L75.31,34.634l3.143,2.674   L38.349,83.183z" />
	
		<linearGradient id="SVGID_11_" gradientUnits="userSpaceOnUse" x1="46.7915" y1="84.522" x2="44.2653" y2="81.0449" gradientTransform="matrix(0.0094 1 0.9888 -0.0093 -19.0844 19.4187)">
		<stop offset="0" style="stop-color:#666666" />
		<stop offset="0.44" style="stop-color:#B2B2B2" />
		<stop offset="1" style="stop-color:#D1D1D1" />
	</linearGradient>
	<path fill="url(#SVGID_11_)" stroke="#4C4C4C" stroke-width="0.2486" d="M47.328,90.418l-3.256-2.786l35.055-49.657l3.364,2.446   L47.328,90.418z" />
	
		<linearGradient id="SVGID_12_" gradientUnits="userSpaceOnUse" x1="51.3926" y1="92.2671" x2="48.7394" y2="87.4806" gradientTransform="matrix(0.0094 1 0.9888 -0.0093 -19.0844 19.4187)">
		<stop offset="0" style="stop-color:#666666" />
		<stop offset="0.44" style="stop-color:#B2B2B2" />
		<stop offset="1" style="stop-color:#D1D1D1" />
	</linearGradient>
	<path fill="url(#SVGID_12_)" stroke="#4C4C4C" stroke-width="0.2486" d="M57.295,96.404l-3.807-2.216l29.676-53.321l3.809,2.329   L57.295,96.404z" />
	
		<linearGradient id="SVGID_13_" gradientUnits="userSpaceOnUse" x1="54.814" y1="99.6353" x2="52.7382" y2="94.7451" gradientTransform="matrix(0.0094 1 0.9888 -0.0093 -19.0844 19.4187)">
		<stop offset="0" style="stop-color:#666666" />
		<stop offset="0.44" style="stop-color:#B2B2B2" />
		<stop offset="1" style="stop-color:#D1D1D1" />
	</linearGradient>
	<path fill="url(#SVGID_13_)" stroke="#4C4C4C" stroke-width="0.2486" d="M67.363,101.264l-3.803-1.767l24.081-56.197l3.804,1.879   L67.363,101.264z" />
	
		<linearGradient id="SVGID_14_" gradientUnits="userSpaceOnUse" x1="57.585" y1="107.6646" x2="55.9821" y2="102.4217" gradientTransform="matrix(0.0094 1 0.9888 -0.0093 -19.0844 19.4187)">
		<stop offset="0" style="stop-color:#666666" />
		<stop offset="0.44" style="stop-color:#B2B2B2" />
		<stop offset="1" style="stop-color:#D1D1D1" />
	</linearGradient>
	<path fill="url(#SVGID_14_)" stroke="#4C4C4C" stroke-width="0.2486" d="M78.201,104.992l-4.022-1.313l18.048-58.282l4.245,1.312   L78.201,104.992z" />
	
		<linearGradient id="SVGID_15_" gradientUnits="userSpaceOnUse" x1="59.4053" y1="115.2036" x2="58.494" y2="110.9166" gradientTransform="matrix(0.0094 1 0.9888 -0.0093 -19.0844 19.4187)">
		<stop offset="0" style="stop-color:#666666" />
		<stop offset="0.44" style="stop-color:#B2B2B2" />
		<stop offset="1" style="stop-color:#D1D1D1" />
	</linearGradient>
	<path fill="url(#SVGID_15_)" stroke="#4C4C4C" stroke-width="0.2486" d="M89.363,107.813l-4.238-0.859l12.017-60.026l4.239,0.749   L89.363,107.813z" />
	
		<linearGradient id="SVGID_16_" gradientUnits="userSpaceOnUse" x1="60.5293" y1="123.4028" x2="60.0692" y2="119.0256" gradientTransform="matrix(0.0094 1 0.9888 -0.0093 -19.0844 19.4187)">
		<stop offset="0" style="stop-color:#666666" />
		<stop offset="0.44" style="stop-color:#B2B2B2" />
		<stop offset="1" style="stop-color:#D1D1D1" />
	</linearGradient>
	<path fill="url(#SVGID_16_)" stroke="#4C4C4C" stroke-width="0.2486" d="M100.626,109.283l-4.236-0.408l5.662-60.979l4.236,0.523   L100.626,109.283z" />
</g>
</svg>