<!DOCTYPE svg PUBLIC "-//W3C//DTD SVG 1.1//EN" "http://www.w3.org/Graphics/SVG/1.1/DTD/svg11.dtd"[]><svg version="1.1" xmlns="http://www.w3.org/2000/svg" xmlns:xlink="http://www.w3.org/1999/xlink" width="112px" height="112px" viewBox="0 0 112.5 111.6" enable-background="new 0 0 112.5 111.6" xml:space="preserve">
<g id="Group_Short_Tube">
	<linearGradient id="SVGID_1_" gradientUnits="userSpaceOnUse" x1="36.0366" y1="72.5227" x2="72.1289" y2="36.4304">
		<stop offset="0.01" style="stop-color:#646566" />
		<stop offset="0.16" style="stop-color:#909091" />
		<stop offset="0.49" style="stop-color:#E0E0E0" />
		<stop offset="1" style="stop-color:#646566" />
	</linearGradient>
	<path fill="url(#SVGID_1_)" d="M108.334,72.636L35.923,0.226L0,36.487l72.185,72.185L108.334,72.636z" />
</g>
<g id="Group_135_Lines">
	<linearGradient id="SVGID_2_" gradientUnits="userSpaceOnUse" x1="108.334" y1="72.636" x2="35.9239" y2="0.2259">
		<stop offset="0" style="stop-color:#666666" />
		<stop offset="0.6" style="stop-color:#999999" />
		<stop offset="1" style="stop-color:#999999" />
	</linearGradient>
	<path fill="url(#SVGID_2_)" stroke="#4C4C4C" stroke-width="0.25" d="M35.923,0.226l72.411,72.41" />
	<linearGradient id="SVGID_3_" gradientUnits="userSpaceOnUse" x1="72.1855" y1="108.6721" x2="5.799743e-004" y2="36.4872">
		<stop offset="0" style="stop-color:#666666" />
		<stop offset="0.6" style="stop-color:#999999" />
		<stop offset="1" style="stop-color:#999999" />
	</linearGradient>
	<path fill="url(#SVGID_3_)" stroke="#4C4C4C" stroke-width="0.25" d="M0,36.487l72.185,72.185" />
	<linearGradient id="SVGID_4_" gradientUnits="userSpaceOnUse" x1="91.3301" y1="90.429" x2="88.289" y2="87.3878">
		<stop offset="0" style="stop-color:#666666" />
		<stop offset="0.6" style="stop-color:#999999" />
		<stop offset="1" style="stop-color:#999999" />
	</linearGradient>
	<path fill="url(#SVGID_4_)" stroke="#4C4C4C" stroke-width="0.25" d="M109.347,66.329l3.153,2.928L70.158,111.6l-2.929-2.929   L109.347,66.329z" />
	<linearGradient id="SVGID_5_" gradientUnits="userSpaceOnUse" x1="85.333" y1="84.4885" x2="82.2367" y2="81.3922">
		<stop offset="0" style="stop-color:#666666" />
		<stop offset="0.6" style="stop-color:#999999" />
		<stop offset="1" style="stop-color:#999999" />
	</linearGradient>
	<path fill="url(#SVGID_5_)" stroke="#4C4C4C" stroke-width="0.25" d="M103.379,60.248l3.04,3.153l-42.343,42.117l-2.928-2.929   L103.379,60.248z" />
	<linearGradient id="SVGID_6_" gradientUnits="userSpaceOnUse" x1="79.2803" y1="78.3792" x2="76.2392" y2="75.338">
		<stop offset="0" style="stop-color:#666666" />
		<stop offset="0.6" style="stop-color:#999999" />
		<stop offset="1" style="stop-color:#999999" />
	</linearGradient>
	<path fill="url(#SVGID_6_)" stroke="#4C4C4C" stroke-width="0.25" d="M97.41,54.167l2.928,3.153L58.221,99.438l-3.153-2.929   L97.41,54.167z" />
	<linearGradient id="SVGID_7_" gradientUnits="userSpaceOnUse" x1="73.2549" y1="72.467" x2="70.1019" y2="69.3141">
		<stop offset="0" style="stop-color:#666666" />
		<stop offset="0.6" style="stop-color:#999999" />
		<stop offset="1" style="stop-color:#999999" />
	</linearGradient>
	<path fill="url(#SVGID_7_)" stroke="#4C4C4C" stroke-width="0.25" d="M91.328,48.311l2.929,2.929L52.14,93.581l-3.153-3.153   L91.328,48.311z" />
	<linearGradient id="SVGID_8_" gradientUnits="userSpaceOnUse" x1="67.2295" y1="66.3293" x2="64.1891" y2="63.2889">
		<stop offset="0" style="stop-color:#666666" />
		<stop offset="0.6" style="stop-color:#999999" />
		<stop offset="1" style="stop-color:#999999" />
	</linearGradient>
	<path fill="url(#SVGID_8_)" stroke="#4C4C4C" stroke-width="0.25" d="M85.248,42.23l3.152,2.929L46.059,87.5l-2.928-3.153   L85.248,42.23z" />
	<linearGradient id="SVGID_9_" gradientUnits="userSpaceOnUse" x1="61.1494" y1="60.2493" x2="58.1083" y2="57.2082">
		<stop offset="0" style="stop-color:#666666" />
		<stop offset="0.6" style="stop-color:#999999" />
		<stop offset="1" style="stop-color:#999999" />
	</linearGradient>
	<path fill="url(#SVGID_9_)" stroke="#4C4C4C" stroke-width="0.25" d="M79.166,36.149l3.154,2.929L39.978,81.419l-2.928-2.928   L79.166,36.149z" />
	<linearGradient id="SVGID_10_" gradientUnits="userSpaceOnUse" x1="55.1802" y1="54.28" x2="52.1398" y2="51.2396">
		<stop offset="0" style="stop-color:#666666" />
		<stop offset="0.6" style="stop-color:#999999" />
		<stop offset="1" style="stop-color:#999999" />
	</linearGradient>
	<path fill="url(#SVGID_10_)" stroke="#4C4C4C" stroke-width="0.25" d="M73.311,30.068l2.928,3.153L33.896,75.338l-2.928-2.928   L73.311,30.068z" />
	<linearGradient id="SVGID_11_" gradientUnits="userSpaceOnUse" x1="49.0996" y1="48.199" x2="46.0592" y2="45.1586">
		<stop offset="0" style="stop-color:#666666" />
		<stop offset="0.6" style="stop-color:#999999" />
		<stop offset="1" style="stop-color:#999999" />
	</linearGradient>
	<path fill="url(#SVGID_11_)" stroke="#4C4C4C" stroke-width="0.25" d="M67.229,23.987l2.929,3.153L28.041,69.257l-3.153-2.928   L67.229,23.987z" />
	<linearGradient id="SVGID_12_" gradientUnits="userSpaceOnUse" x1="43.0747" y1="42.2874" x2="39.9217" y2="39.1344">
		<stop offset="0" style="stop-color:#666666" />
		<stop offset="0.6" style="stop-color:#999999" />
		<stop offset="1" style="stop-color:#999999" />
	</linearGradient>
	<path fill="url(#SVGID_12_)" stroke="#4C4C4C" stroke-width="0.25" d="M61.148,18.131l2.928,2.928L21.959,63.402l-3.153-3.153   L61.148,18.131z" />
	<linearGradient id="SVGID_13_" gradientUnits="userSpaceOnUse" x1="37.0503" y1="36.1497" x2="34.0092" y2="33.1085">
		<stop offset="0" style="stop-color:#666666" />
		<stop offset="0.6" style="stop-color:#999999" />
		<stop offset="1" style="stop-color:#999999" />
	</linearGradient>
	<path fill="url(#SVGID_13_)" stroke="#4C4C4C" stroke-width="0.25" d="M55.067,12.05l3.153,2.928L15.878,57.321l-2.928-3.153   L55.067,12.05z" />
	<linearGradient id="SVGID_14_" gradientUnits="userSpaceOnUse" x1="30.9966" y1="30.1526" x2="27.9002" y2="27.0562">
		<stop offset="0" style="stop-color:#666666" />
		<stop offset="0.6" style="stop-color:#999999" />
		<stop offset="1" style="stop-color:#999999" />
	</linearGradient>
	<path fill="url(#SVGID_14_)" stroke="#4C4C4C" stroke-width="0.25" d="M48.986,5.969l3.153,3.04L9.797,51.24l-2.928-2.929   L48.986,5.969z" />
	<linearGradient id="SVGID_15_" gradientUnits="userSpaceOnUse" x1="25.0283" y1="24.1838" x2="21.9313" y2="21.0868">
		<stop offset="0" style="stop-color:#666666" />
		<stop offset="0.6" style="stop-color:#999999" />
		<stop offset="1" style="stop-color:#999999" />
	</linearGradient>
	<path fill="url(#SVGID_15_)" stroke="#4C4C4C" stroke-width="0.25" d="M43.131,0l2.928,3.153L3.716,45.158L0.788,42.23L43.131,0z" />
</g>
</svg>