<!DOCTYPE svg PUBLIC "-//W3C//DTD SVG 20000303 Stylable//EN" "http://www.w3.org/TR/2000/03/WD-SVG-20000303/DTD/svg-20000303-stylable.dtd"[]><svg xmlns="http://www.w3.org/2000/svg" width="999px" height="941px" viewBox="0 0 999 937"><path style="fill:#fff;stroke:#4c4c4c;stroke-width:2" d="M584,482 l0,14 8,3 8,2 11,1 11,2 11,1 9,0 9,0 11,1 12,0 11,-1 11,0 13,-1 10,-1 8,-2 -1,-8 0,-1 9,-3 7,-3 4,-3 56,3 11,-3 -1,0 39,3 0,0 -113,33 -252,-18 98,-19z" /><path style="fill:#fff;stroke:#4c4c4c;stroke-width:2" d="M486,501 l0,25 253,19 112,-37 0,-14 0,-8 -113,33 -252,-18 98,-19 -98,19z" /><path style="fill:#fff;stroke:#4c4c4c;stroke-width:2" d="M382,398 l-5,-3 -5,-5 -4,-6 0,-8 47,-314 2,-6 5,-5 5,-2 7,-2 393,-36 6,0 3,1 4,3 1,5 -55,374 -3,7 -5,6 -8,3 -10,0 -377,-12 -1,0z" /><path style="fill:#fff;stroke:#4c4c4c;stroke-width:2" d="M332,659 l0,-126 478,40 0,0 0,149 -478,-63z" /><path style="fill:#fff;stroke:#4c4c4c;stroke-width:2" d="M810,573 l0,149 57,6 120,-77 0,-150 -176,72 -1,0z" /><path style="fill:#fff;stroke:#4c4c4c;stroke-width:2" d="M811,573 l176,-72 -136,-7 0,0 0,14 -112,37 -253,-19 0,-25 -154,32 478,40 1,0z" /><path style="fill:#fff;stroke:#4c4c4c;stroke-width:2" d="M727,453 l-10,-4 -173,-8 -1,-1 5,8 5,7 7,7 8,7 3,3 5,2 8,5 8,2 8,1 8,2 7,0 10,1 12,1 12,0 13,0 13,0 12,0 13,0 13,-1 13,8 0,-1 9,-3 7,-3 4,-3 5,-5 2,-5 0,0 0,-8 -26,-12z" /><path style="fill:#fff;stroke:#4c4c4c;stroke-width:2" d="M888,484 l-64,-5 2,-1 -74,-34 68,2 0,0 67,37 1,1z" /><path style="fill:#fff;stroke:#4c4c4c;stroke-width:2" d="M486,438 l0,-7 0,0 -67,-4 67,11z" /><path style="fill:#fff;stroke:#4c4c4c;stroke-width:2" d="M887,483 l-67,-37 0,0 -68,-2 -34,-16 -232,-10 0,13 -67,-4 -1,0 -36,-29 1,0 377,12 10,0 8,-3 5,-6 3,-7 55,-374 -1,-5 46,46 4,7 1,6 -13,81 78,108 -28,196 -40,24 -1,0z" /><path style="fill:#fff;stroke:#4c4c4c;stroke-width:2" d="M332,659 l15,2 444,59 19,2 57,6 25,2 6,10 2,6 1,9 1,11 0,7 -1,12 -1,8 -121,134 -5,2 -4,-1 -750,-137 -8,-4 -2,-8 2,-7 205,-127 115,14 0,0z" /><path style="fill:#fff;stroke:#4c4c4c;stroke-width:2" d="M752,444 l-34,-16 -232,-10 0,13 0,7 57,3 174,8 10,4 26,12 49,21 11,-3 14,-5 -75,-34z" /><path style="fill:none;stroke:#4c4c4c;stroke-width:2" d="M354,600 l0,21 69,8 0,-26" /><path style="fill:none;stroke:#4c4c4c;stroke-width:2" d="M755,613 l-15,-21" /><path style="fill:none;stroke:#4c4c4c;stroke-width:2" d="M347,661 l0,-16 444,53 0,22" /><path style="fill:none;stroke:#4c4c4c;stroke-width:2" d="M770,928 l-1,-5 0,-5 1,-4 2,-4 121,-180" /><path style="fill:none;stroke:#4c4c4c;stroke-width:2" d="M717,449 l1,-21" /><path style="fill:none;stroke:#4c4c4c;stroke-width:2" d="M878,156 l-42,282 -5,6 -11,2" /><path style="fill:#fff;stroke:#4c4c4c;stroke-width:2" d="M754,465 l48,21 -56,-3 5,-5 2,-5 0,0 0,-8 1,0z" /><path style="fill:#fff;stroke:#4c4c4c;stroke-width:2" d="M486,438 l58,3 -1,-1 5,8 5,7 7,7 8,7 3,3 -85,-34z" /><path style="fill:#fff;stroke:#4c4c4c;stroke-width:2" d="M584,482 l0,14 8,3 9,2 10,1 12,2 10,1 9,0 9,0 11,1 12,0 11,-1 11,0 13,-1 11,-1 7,-2 0,-8 0,-1 -1,0 0,1 -13,-8 -13,1 -13,0 -12,0 -13,0 -13,0 -12,0 -12,-1 -10,-1 -7,0 -8,-2 -8,-1 -8,-2 0,3z" /><path style="fill:none;stroke:#4c4c4c;stroke-width:2" d="M753,628 l-15,9" /><path style="fill:none;stroke:#4c4c4c;stroke-width:2" d="M738,637 l14,1" /><path style="fill:#fff;stroke:#4c4c4c;stroke-width:2" d="M823,18 l5,0 4,1 1,3 -55,373 -4,6 -7,2 -381,-11 -6,-4 -4,-5 -1,-8 47,-313 5,-6 7,-2 389,-36z" /><path style="fill:#fff;stroke:#4c4c4c;stroke-width:2" d="M697,734 l128,17 -12,23 -129,-18 13,-22z" /><path style="fill:#fff;stroke:#4c4c4c;stroke-width:2" d="M460,724 l107,15 11,-13 -5,-17 -20,-3 -6,5 -3,-6 -22,-3 -4,5 -5,-6 -21,-3 -5,5 -4,-6 -21,-3 -8,8 -4,-10 -19,-3 -5,6 -3,-7 -19,-2 -5,5 -2,-6 -19,-3 -6,5 -4,-6 -18,-3 -8,8 -3,-10 -18,-2 -5,5 -2,-6 -17,-2 -4,4 -2,-5 -16,-2 -4,4 -2,-5 -16,-2 -4,4 -2,-6 -17,-1 -6,7 -2,-9 -17,-2 -12,8 -5,19 24,3 9,-10 0,0 0,11 109,16 8,-10 0,12 122,17 0,0z" /><path style="fill:#fff;stroke:#4c4c4c;stroke-width:2" d="M591,711 l20,3 4,6 4,-5 21,3 5,6 4,-4 22,3 9,13 -11,18 -90,-13 0,-17 12,-13z" /><path style="fill:#fff;stroke:#4c4c4c;stroke-width:2" d="M70,762 l5,-21 16,-5 6,0 1,-4 14,-6 5,1 1,-5 13,-7 5,1 1,-5 13,-7 6,0 0,-4 15,-8 372,55 5,12 15,-9 24,4 3,5 0,0 6,-4 21,3 4,7 6,-6 22,4 6,18 12,-16 23,4 3,7 5,-6 26,4 3,7 6,-6 25,4 3,7 5,-6 23,4 6,18 -3,9 -3,8 -5,9 -4,7 -6,8 -7,8 -7,8 -8,7 -8,5 -10,7 -249,-44 0,-15 -20,12 -62,-11 0,-12 0,0 -11,10 -272,-48 2,-12 -15,9 -37,-6 0,1z" /><path style="fill:#ff2400;stroke:#4c4c4c;stroke-width:2" d="M762,639 l-10,-1 1,-5 0,-5 0,-3 -1,-4 -1,-3 -1,-5 5,0 10,1 -3,26 0,-1z" /><path style="fill:#fff;stroke:#4c4c4c;stroke-width:2" d="M765,614 l3,-19 -28,-3 -9,48 -26,-3 1,-4 10,-56 80,8 -7,62 0,-1 -28,-2 1,-4 3,-26z" /><path style="fill:#0080ff;stroke:#4c4c4c;stroke-width:2" d="M796,585 l0,57 -7,4 7,-61z" /><path style="fill:#0080ff;stroke:#4c4c4c;stroke-width:2" d="M698,637 l8,-4 0,-57 -8,61z" /><path style="fill:#fff;stroke:#4c4c4c;stroke-width:2" d="M698,637 l8,-61 -134,-12 -7,58 134,15 -1,0z" /><path style="fill:#fff;stroke:#4c4c4c;stroke-width:2" d="M557,621 l8,-4 0,-53 -8,57z" /><path style="fill:#fff;stroke:#4c4c4c;stroke-width:2" d="M557,621 l8,-57 -134,-13 -8,57 105,11 1,-8 21,2 -1,8 8,0 0,0z" /><path style="fill:#0080ff;stroke:#4c4c4c;stroke-width:2" d="M415,607 l8,-4 0,-53 -8,57 0,0z" /><path style="fill:#fff;stroke:#4c4c4c;stroke-width:2" d="M423,550 l-8,57 -61,-7 -21,-2 5,-56 85,8z" /><path style="fill:#00f;stroke:#4c4c4c;stroke-width:2" d="M446,353 l-8,-5 -4,-8 -1,-12 1,-27 3,-25 4,-25 12,-79 3,-12 5,-20 5,-16 4,-6 5,-5 8,-4 10,-3 29,-4 30,-3 38,-4 19,-1 19,-1 19,-2 19,-1 19,-1 19,0 19,0 19,0 14,0 26,1 -40,252 -3,8 -7,3 -285,0 -1,0z" /><path style="fill:#000;stroke:#4c4c4c;stroke-width:2" d="M556,477 l-72,-28 -71,-12 -46,-37 -6,-6 -4,-7 0,-9 48,-317 2,-8 4,-7 6,-5 7,-3 405,-38 6,0 6,1 4,3 48,49 5,7 3,8 0,7 -12,77 77,108 -28,205 -32,19 -5,3 98,5 0,165 -100,63 5,6 4,9 3,10 1,10 1,10 0,10 0,8 -3,13 -121,136 -6,4 -6,1 -9,0 -753,-137 -7,-4 -5,-4 -3,-7 0,-7 1,-7 5,-7 208,-132 106,13 0,-121 236,-47 28,5 -98,19 -154,32 0,126 -115,-14 -205,127 -2,7 2,8 8,4 750,137 4,1 5,-2 121,-134 1,-8 1,-12 0,-7 -1,-11 -1,-9 -2,-6 -6,-10 -25,-2 120,-77 0,-150 -136,-7 0,0 0,-8 0,0 -39,-3 12,-5 64,5 40,-24 28,-196 -78,-108 13,-81 -1,-6 -4,-7 -46,-46 -4,-3 -3,-1 -6,0 -393,36 -7,2 -5,2 -5,5 -2,6 -47,314 0,8 4,6 5,5 5,3 36,29 68,11 84,33 14,8 0,3 0,0 -28,-5z" /><path style="fill:#000;stroke:#4c4c4c;stroke-width:2" d="M549,621 l1,-8 -21,-2 -1,8 3,5 18,1 0,-4z" /><path style="fill:#000;stroke:#4c4c4c;stroke-width:2" d="M480,583 l33,3 0,6 38,3 -1,7 -39,-3 -1,5 -34,-3 1,-5 -36,-4 1,-7 37,3 1,-5z" /><path style="fill:#fff;stroke:#4c4c4c;stroke-width:2" d="M534,797 l5,-24 -34,33 14,3 3,8 7,-6 7,0 2,-8 7,-4 -11,-2z" /><path style="fill:#0080ff;stroke:#4c4c4c;stroke-width:2" d="M446,353 l-8,-5 -4,-8 -1,-12 1,-27 3,-25 4,-25 12,-79 3,-12 5,-20 5,-16 4,-6 5,-5 8,-4 10,-3 28,-4 31,-3 38,-4 19,-1 19,-1 19,-2 19,-1 19,-1 19,0 19,0 19,0 14,0 26,1 1,-13 -1,-6 -5,-4 -10,-1 -306,25 -6,4 -4,5 -1,6 -39,233 2,7 4,5 7,2 23,0 -1,0z" /><path style="fill:#fff;stroke:#4c4c4c;stroke-width:2" d="M573,803 l46,8 -6,6 -1,7 -7,-1 -12,8 -2,9 -7,-20 -10,-3 -1,-14z" /></svg>