<!DOCTYPE svg PUBLIC "-//W3C//DTD SVG 20000303 Stylable//EN" "http://www.w3.org/TR/2000/03/WD-SVG-20000303/DTD/svg-20000303-stylable.dtd"[]><svg xmlns="http://www.w3.org/2000/svg" width="792px" height="998px" viewBox="0 0 780 999"><path style="fill:#c1c1c1;stroke:#4c4c4c;stroke-width:2" d="M780,352 l0,647 -718,0 0,-647 718,0z" /><path style="fill:none;stroke:#4c4c4c;stroke-width:2" d="M62,293 l718,0 0,59 -718,0 0,-59" /><path style="fill:none;stroke:#4c4c4c;stroke-width:2" d="M780,293 l-45,-235 -628,0 -45,235 718,0" /><path style="fill:none;stroke:#4c4c4c;stroke-width:2" d="M31,249 l0,137 -31,0 0,-137 31,0" /><path style="fill:none;stroke:#4c4c4c;stroke-width:2" d="M62,304 l0,27 -31,0 0,-27 31,0" /><path style="fill:#fff;stroke:#4c4c4c;stroke-width:2" d="M660,0 l0,176 -478,0 0,-176 478,0z" /><path style="fill:#fff;stroke:#4c4c4c;stroke-width:2" d="M697,382 l0,102 -530,0 0,-102 530,0z" /><path style="fill:#828282;stroke:#4c4c4c;stroke-width:2" d="M635,416 l-31,0 0,34 31,0 0,-34z" /><path style="fill:#828282;stroke:#4c4c4c;stroke-width:2" d="M573,416 l0,34 -32,0 0,-34 32,0z" /><path style="fill:#828282;stroke:#4c4c4c;stroke-width:2" d="M510,416 l0,34 -31,0 0,-34 31,0z" /><path style="fill:#828282;stroke:#4c4c4c;stroke-width:2" d="M448,416 l0,34 -32,0 0,-34 32,0z" /><path style="fill:#828282;stroke:#4c4c4c;stroke-width:2" d="M385,416 l0,34 -31,0 0,-34 31,0z" /><path style="fill:#828282;stroke:#4c4c4c;stroke-width:2" d="M323,416 l0,34 -31,0 0,-34 31,0z" /><path style="fill:#828282;stroke:#4c4c4c;stroke-width:2" d="M260,416 l0,34 -31,0 0,-34 31,0z" /><circle style="fill:#828282;stroke:#4c4c4c;stroke-width:2" cx="637" cy="21" r="6" /><circle style="fill:#828282;stroke:#4c4c4c;stroke-width:2" cx="636" cy="48" r="6" /><circle style="fill:#828282;stroke:#4c4c4c;stroke-width:2" cx="636" cy="75" r="6" /><circle style="fill:#828282;stroke:#4c4c4c;stroke-width:2" cx="636" cy="102" r="6" /><circle style="fill:#828282;stroke:#4c4c4c;stroke-width:2" cx="636" cy="157" r="6" /><circle style="fill:#828282;stroke:#4c4c4c;stroke-width:2" cx="636" cy="130" r="6" /><circle style="fill:#828282;stroke:#4c4c4c;stroke-width:2" cx="203" cy="21" r="6" /><circle style="fill:#828282;stroke:#4c4c4c;stroke-width:2" cx="203" cy="48" r="6" /><circle style="fill:#828282;stroke:#4c4c4c;stroke-width:2" cx="203" cy="75" r="6" /><circle style="fill:#828282;stroke:#4c4c4c;stroke-width:2" cx="203" cy="102" r="6" /><circle style="fill:#828282;stroke:#4c4c4c;stroke-width:2" cx="203" cy="157" r="6" /><circle style="fill:#828282;stroke:#4c4c4c;stroke-width:2" cx="203" cy="130" r="6" /></svg>