<!DOCTYPE svg PUBLIC "-//W3C//DTD SVG 20000303 Stylable//EN" "http://www.w3.org/TR/2000/03/WD-SVG-20000303/DTD/svg-20000303-stylable.dtd"[]><svg xmlns="http://www.w3.org/2000/svg" width="998px" height="998px" viewBox="0 0 999 999"><path style="fill:#333;stroke:#4c4c4c;stroke-width:2" d="M0,687 l0,-6 1,-6 2,-6 2,-5 3,-6 3,-5 4,-5 4,-4 5,-4 5,-4 5,-3 5,-3 6,-2 5,-2 6,-1 5,0 28,0 27,0 27,0 28,0 27,0 27,0 28,0 27,0 27,0 28,0 27,0 28,0 27,0 27,0 28,0 27,0 27,0 28,0 27,0 27,0 28,0 27,0 28,0 27,0 27,0 28,0 27,0 27,0 28,0 27,0 27,0 28,0 5,0 6,1 5,2 6,2 5,3 5,3 5,4 5,4 4,4 4,5 3,5 3,6 2,5 2,6 1,6 1,6 0,8 0,7 0,8 0,8 0,7 0,8 0,8 0,8 0,7 0,8 0,8 0,8 0,8 0,8 0,7 0,8 0,8 0,8 0,8 0,7 0,8 0,8 0,8 0,8 0,8 0,8 0,7 0,8 0,8 0,8 0,8 0,8 -1,7 -1,6 -2,6 -2,6 -3,6 -3,5 -4,4 -4,5 -5,4 -5,3 -5,3 -5,2 -6,2 -5,1 -6,1 -5,1 -28,0 -27,0 -27,0 -28,0 -27,0 -27,0 -28,0 -27,0 -27,0 -28,0 -27,0 -28,0 -27,0 -27,0 -28,0 -27,0 -27,0 -28,0 -27,0 -27,0 -28,0 -27,0 -28,0 -27,0 -27,0 -28,0 -27,0 -27,0 -28,0 -27,0 -27,0 -28,0 -5,-1 -6,-1 -5,-2 -6,-2 -5,-3 -5,-3 -5,-4 -5,-4 -4,-5 -4,-5 -3,-5 -3,-5 -2,-6 -2,-5 -1,-6 0,-5 0,-8 0,-8 0,-8 0,-8 0,-8 0,-7 0,-8 0,-8 0,-8 0,-8 0,-8 0,-8 0,-7 0,-8 0,-8 0,-8 0,-8 0,-7 0,-8 0,-8 0,-8 0,-8 0,-8 0,-7 0,-8 0,-8 0,-8 0,-7 0,-8 0,-8 0,-7 0,-8z" /><path style="fill:#000;stroke:#4c4c4c;stroke-width:2" d="M765,625 l0,-142 16,-16 0,-374 -8,-16 0,-62 8,-15 30,0 8,15 0,62 -8,16 0,374 16,16 0,142 -62,0z" /><path style="fill:#000;stroke:#4c4c4c;stroke-width:2" d="M23,703 l1,-6 1,-5 1,-5 3,-5 2,-5 3,-4 4,-5 4,-4 4,-3 5,-4 4,-3 6,-2 5,-2 5,-2 5,-1 5,0 26,0 26,0 26,0 26,0 27,0 26,0 26,0 26,0 26,0 26,0 26,0 26,0 26,0 26,0 26,0 26,0 26,0 26,0 26,0 26,0 26,0 26,0 26,0 26,0 26,0 26,0 26,0 26,0 27,0 26,0 25,0 27,0 5,0 6,1 5,2 6,2 5,2 5,3 4,4 5,3 4,4 4,5 3,4 2,5 3,5 1,5 1,5 1,6 0,6 0,7 0,7 0,7 0,7 0,6 0,7 0,7 0,7 0,6 0,7 0,7 0,7 0,6 0,7 0,7 0,7 0,7 0,6 0,7 0,7 0,7 0,7 0,7 0,6 0,7 0,7 0,7 0,7 0,7 0,7 0,7 -1,6 -1,6 -1,5 -3,5 -2,5 -3,5 -4,4 -4,3 -5,4 -4,3 -5,2 -5,2 -6,1 -5,2 -6,0 -5,1 -27,0 -25,0 -26,0 -27,0 -26,0 -26,0 -26,0 -26,0 -26,0 -26,0 -26,0 -26,0 -26,0 -26,0 -26,0 -26,0 -26,0 -26,0 -26,0 -26,0 -26,0 -26,0 -26,0 -26,0 -26,0 -26,0 -26,0 -27,0 -26,0 -26,0 -26,0 -26,0 -5,-1 -5,-1 -5,-1 -5,-2 -6,-2 -4,-3 -5,-3 -4,-4 -4,-4 -4,-4 -3,-5 -2,-4 -3,-5 -1,-5 -1,-5 -1,-5 0,-7 0,-7 0,-7 0,-7 0,-7 0,-7 0,-7 0,-6 0,-7 0,-7 0,-7 0,-7 0,-7 0,-6 0,-7 0,-7 0,-7 0,-7 0,-6 0,-7 0,-7 0,-7 0,-6 0,-7 0,-7 0,-7 0,-6 0,-7 0,-7 0,-7 0,-7 0,-6z" /><path style="fill:#fff" d="M23,733 l952,0 0,56 -952,0 0,-56z" /><circle style="fill:#f00;stroke:#4c4c4c;stroke-width:2" cx="811" cy="687" r="16" /><circle style="fill:none;stroke:#7f7f7f;stroke-width:2" cx="812" cy="686" r="23" /></svg>