<!DOCTYPE svg PUBLIC "-//W3C//DTD SVG 20000303 Stylable//EN" "http://www.w3.org/TR/2000/03/WD-SVG-20000303/DTD/svg-20000303-stylable.dtd"[]><svg xmlns="http://www.w3.org/2000/svg" width="712px" height="999px" viewBox="0 0 695 999"><path style="fill:#99f;stroke:#4c4c4c;stroke-width:2" d="M609,43 l86,-43 0,955 -86,44 0,-956z" /><path style="fill:#e5e5ff;stroke:#4c4c4c;stroke-width:2" d="M609,43 l86,-43 -608,0 -87,43 609,0z" /><path style="fill:#ccf;stroke:#4c4c4c;stroke-width:2" d="M609,43 l0,956 -609,0 0,-956 609,0z" /><path style="fill:#ffffb2;stroke:#4c4c4c;stroke-width:2" d="M521,813 l0,77 -434,0 0,-77 434,0z" /><path style="fill:#ffffb2;stroke:#4c4c4c;stroke-width:2" d="M521,699 l0,78 -434,0 0,-78 434,0z" /><path style="fill:#ffffb2;stroke:#4c4c4c;stroke-width:2" d="M521,585 l0,76 -434,0 0,-76 434,0z" /><path style="fill:#e5e5e5" d="M477,108 l0,87 -434,0 0,-87 434,0z" /><path style="fill:#000" d="M435,129 l0,44 -348,0 0,-44 348,0z" /></svg>