<!DOCTYPE svg PUBLIC "-//W3C//DTD SVG 20000303 Stylable//EN" "http://www.w3.org/TR/2000/03/WD-SVG-20000303/DTD/svg-20000303-stylable.dtd"[]><svg xmlns="http://www.w3.org/2000/svg" width="999px" height="243px" viewBox="0 0 999 205"><path style="fill:#4c4c4c;stroke:#4c4c4c;stroke-width:2" d="M4,190 l0,-124 866,0 0,124 -866,0z" /><path style="fill:#7f7f7f;stroke:#4c4c4c;stroke-width:2" d="M4,66 l124,-62 866,0 -124,62 -866,0z" /><path style="fill:#000;stroke:#4c4c4c;stroke-width:2" d="M870,190 l124,-62 0,-124 -124,62 0,124z" /><path style="fill:#e5e5e5" d="M782,200 l0,-82 21,-21 20,21 0,82 -41,0z" /><path style="fill:#e5e5e5" d="M700,200 l0,-82 21,-21 20,21 0,82 -41,0z" /><path style="fill:#e5e5e5" d="M617,200 l0,-82 21,-21 21,21 0,82 -42,0z" /><path style="fill:#e5e5e5" d="M535,200 l0,-82 21,-21 20,21 0,82 -41,0z" /><path style="fill:#e5e5e5" d="M453,200 l0,-82 20,-21 21,21 0,82 -41,0z" /><path style="fill:#e5e5e5" d="M370,200 l0,-82 21,-21 20,21 0,82 -41,0z" /><path style="fill:#e5e5e5" d="M288,200 l0,-82 20,-21 21,21 0,82 -41,0z" /><path style="fill:#e5e5e5;stroke:#4c4c4c;stroke-width:2" d="M205,200 l0,-82 21,-21 20,21 0,82 -41,0z" /><path style="fill:#e5e5e5" d="M123,200 l0,-82 21,-21 20,21 0,82 -41,0z" /><path style="fill:#e5e5e5" d="M40,200 l0,-82 21,-21 21,21 0,82 -42,0z" /><path style="fill:#fff" d="M823,118 l-41,20 0,21 41,-21 0,-20z" /><path style="fill:#fff" d="M741,118 l-41,20 0,21 41,-21 0,-20z" /><path style="fill:#fff" d="M659,118 l-42,20 0,21 42,-21 0,-20z" /><path style="fill:#fff" d="M576,118 l-41,20 0,21 41,-21 0,-20z" /><path style="fill:#fff" d="M494,118 l-41,20 0,21 41,-21 0,-20z" /><path style="fill:#fff" d="M411,118 l-41,20 0,21 41,-21 0,-20z" /><path style="fill:#fff" d="M329,118 l-41,20 0,21 41,-21 0,-20z" /><path style="fill:#fff" d="M246,118 l-41,20 0,21 41,-21 0,-20z" /><path style="fill:#fff" d="M164,118 l-41,20 0,21 41,-21 0,-20z" /><path style="fill:#fff" d="M82,118 l-42,20 0,21 42,-21 0,-20z" /><path style="fill:#999" d="M82,144 l-42,20 0,5 42,-20 0,-5z" /><path style="fill:#999" d="M164,144 l-41,20 0,5 41,-20 0,-5z" /><path style="fill:#999" d="M246,144 l-41,20 0,5 41,-20 0,-5z" /><path style="fill:#999" d="M329,144 l-41,20 0,5 41,-20 0,-5z" /><path style="fill:#999" d="M411,144 l-41,20 0,5 41,-20 0,-5z" /><path style="fill:#999" d="M494,144 l-41,20 0,5 41,-20 0,-5z" /><path style="fill:#999" d="M576,144 l-41,20 0,5 41,-20 0,-5z" /><path style="fill:#999" d="M659,144 l-42,20 0,5 42,-20 0,-5z" /><path style="fill:#999" d="M741,144 l-41,20 0,5 41,-20 0,-5z" /><path style="fill:#999" d="M823,144 l-41,20 0,5 41,-20 0,-5z" /><path style="fill:none;stroke:#4c4c4c;stroke-width:2" d="M288,200 l0,-82 20,-21 21,21 0,82 -41,0" /><path style="fill:none;stroke:#4c4c4c;stroke-width:2" d="M370,200 l0,-82 21,-21 20,21 0,82 -41,0" /><path style="fill:none;stroke:#4c4c4c;stroke-width:2" d="M453,200 l0,-82 20,-21 21,21 0,82 -41,0" /><path style="fill:none;stroke:#4c4c4c;stroke-width:2" d="M535,200 l0,-82 21,-21 20,21 0,82 -41,0" /><path style="fill:none;stroke:#4c4c4c;stroke-width:2" d="M617,200 l0,-82 21,-21 21,21 0,82 -42,0" /><path style="fill:none;stroke:#4c4c4c;stroke-width:2" d="M700,200 l0,-82 21,-21 20,21 0,82 -41,0" /><path style="fill:none;stroke:#4c4c4c;stroke-width:2" d="M782,200 l0,-82 21,-21 20,21 0,82 -41,0" /><path style="fill:none;stroke:#4c4c4c;stroke-width:2" d="M123,200 l0,-82 21,-21 20,21 0,82 -41,0" /><path style="fill:none;stroke:#4c4c4c;stroke-width:2" d="M40,200 l0,-82 21,-21 21,21 0,82 -42,0" /></svg>