<!DOCTYPE svg PUBLIC "-//W3C//DTD SVG 20000303 Stylable//EN" "http://www.w3.org/TR/2000/03/WD-SVG-20000303/DTD/svg-20000303-stylable.dtd"[]><svg xmlns="http://www.w3.org/2000/svg" width="998px" height="882px" viewBox="0 0 999 875"><path style="fill:#000;stroke:#4c4c4c;stroke-width:2" d="M202,511 l558,0 0,31 -558,0 0,-31z" /><path style="fill:#fff;stroke:#4c4c4c;stroke-width:2" d="M15,539 l968,0 3,1 3,1 4,2 3,3 2,4 0,3 1,273 -1,3 -1,5 -3,3 -4,3 -4,1 -3,0 -968,0 -3,0 -3,0 -4,-3 -3,-3 -2,-4 0,-3 0,-273 0,-3 1,-3 2,-4 3,-3 4,-2 3,-1 2,0z" /><path style="fill:#fff;stroke:#4c4c4c;stroke-width:2" d="M159,0 l632,0 3,0 3,1 3,2 4,4 2,3 2,4 1,3 15,475 -1,3 0,3 -2,3 -4,4 -3,2 -3,2 -3,1 -665,0 -4,0 -3,-2 -3,-2 -4,-4 -2,-3 -1,-3 -1,-4 16,-474 1,-3 2,-4 3,-3 2,-4 3,-2 4,-2 3,0z" /><path style="fill:#fff;stroke:#4c4c4c;stroke-width:2" d="M127,606 l751,0 5,0 4,1 4,1 4,1 3,2 4,2 73,201 -3,2 -3,2 -4,1 -4,2 -5,1 -5,0 -897,0 -5,0 -5,-1 -4,-2 -4,-1 -3,-1 -2,-2 72,-202 3,-1 3,-2 4,-1 3,-1 5,-2 4,0 2,0z" /><path style="fill:#ababab;stroke:#4c4c4c;stroke-width:2" d="M49,875 l902,0 25,-10 0,-51 -3,1 -4,2 -4,2 -4,1 -4,1 -5,0 -898,0 -5,0 -4,-2 -4,-1 -4,-2 -3,-2 -3,-1 -1,50 19,12z" /><path style="fill:#ababab;stroke:#4c4c4c;stroke-width:2" d="M244,69 l461,0 4,1 3,2 3,3 2,3 1,4 12,352 -1,4 -2,4 -2,3 -4,2 -4,1 -484,0 -4,0 -3,-2 -3,-3 -2,-4 -1,-4 12,-352 0,-3 3,-4 2,-3 4,-2 3,-2z" /><path style="fill:#000;stroke:#4c4c4c;stroke-width:2" d="M264,82 l427,0 3,1 3,2 4,4 2,3 1,3 9,320 0,4 -2,3 -3,3 -3,2 -4,1 -448,0 -4,-1 -3,-2 -3,-4 -1,-3 -1,-3 11,-320 1,-3 1,-3 3,-3 4,-3 3,-1z" /><path style="fill:#0ff;stroke:#4c4c4c;stroke-width:2" d="M267,97 l420,0 6,318 -433,0 7,-318z" /><path style="fill:#0ff;stroke:#4c4c4c;stroke-width:2" d="M286,133 l121,0 0,109 -121,0 0,-109z" /><path style="fill:#00f;stroke:#4c4c4c;stroke-width:2" d="M286,133 l121,0 0,14 -121,0 0,-14z" /><path style="fill:#00f;stroke:#4c4c4c;stroke-width:2" d="M274,104 l408,0 0,16 -408,0 0,-16z" /><path style="fill:#0ff;stroke:#4c4c4c;stroke-width:2" d="M364,223 l146,0 0,110 -146,0 0,-110z" /><path style="fill:#00f;stroke:#4c4c4c;stroke-width:2" d="M364,225 l146,0 0,15 -146,0 0,-15z" /><path style="fill:#0ff;stroke:#4c4c4c;stroke-width:2" d="M645,276 l-170,0 0,131 170,0 0,-131z" /><path style="fill:#00f;stroke:#4c4c4c;stroke-width:2" d="M645,277 l-170,0 0,15 170,0 0,-15z" /><path style="fill:none;stroke:#4c4c4c;stroke-width:2" d="M566,565 l335,0 0,26" /><path style="fill:#000;stroke:#4c4c4c;stroke-width:2" d="M110,765 l785,0 -46,-140 -695,0 -44,140z" /><path style="fill:#fff;stroke:#4c4c4c;stroke-width:2" d="M131,758 l736,0 -35,-123 -663,0 -38,123z" /><path style="fill:none;stroke:#4c4c4c;stroke-width:2" d="M161,657 l685,0" /><path style="fill:none;stroke:#4c4c4c;stroke-width:2" d="M859,691 l-709,0" /><path style="fill:none;stroke:#4c4c4c;stroke-width:2" d="M140,729 l729,0" /><path style="fill:none;stroke:#4c4c4c;stroke-width:2" d="M174,758 l30,-123" /><path style="fill:none;stroke:#4c4c4c;stroke-width:2" d="M212,758 l30,-123" /><path style="fill:none;stroke:#4c4c4c;stroke-width:2" d="M250,758 l21,-123" /><path style="fill:none;stroke:#4c4c4c;stroke-width:2" d="M289,758 l21,-123" /><path style="fill:none;stroke:#4c4c4c;stroke-width:2" d="M327,758 l12,-123" /><path style="fill:none;stroke:#4c4c4c;stroke-width:2" d="M365,758 l12,-123" /><path style="fill:none;stroke:#4c4c4c;stroke-width:2" d="M403,758 l6,-123" /><path style="fill:none;stroke:#4c4c4c;stroke-width:2" d="M441,758 l4,-123" /><path style="fill:none;stroke:#4c4c4c;stroke-width:2" d="M479,758 l0,-123" /><path style="fill:none;stroke:#4c4c4c;stroke-width:2" d="M518,758 l-4,-123" /><path style="fill:none;stroke:#4c4c4c;stroke-width:2" d="M556,758 l-6,-123" /><path style="fill:none;stroke:#4c4c4c;stroke-width:2" d="M594,758 l-9,-123" /><path style="fill:none;stroke:#4c4c4c;stroke-width:2" d="M632,758 l-11,-123" /><path style="fill:none;stroke:#4c4c4c;stroke-width:2" d="M670,758 l-13,-123" /><path style="fill:none;stroke:#4c4c4c;stroke-width:2" d="M709,758 l-20,-123" /><path style="fill:none;stroke:#4c4c4c;stroke-width:2" d="M747,758 l-25,-123" /><path style="fill:none;stroke:#4c4c4c;stroke-width:2" d="M785,758 l-27,-123" /><path style="fill:none;stroke:#4c4c4c;stroke-width:2" d="M823,758 l-27,-123" /></svg>