<!DOCTYPE svg PUBLIC "-//W3C//DTD SVG 20000303 Stylable//EN" "http://www.w3.org/TR/2000/03/WD-SVG-20000303/DTD/svg-20000303-stylable.dtd"[]><svg xmlns="http://www.w3.org/2000/svg" width="999px" height="995px" viewBox="0 0 998 995"><path style="fill:#fff" d="M83,543 l768,0 0,-20 -768,0 0,20z" /><path style="fill:#fff;stroke:#4c4c4c;stroke-width:2" d="M0,568 l998,0 -20,-33 -958,0 -20,33z" /><path style="fill:#fff;stroke:#4c4c4c;stroke-width:2" d="M24,535 l950,0 -103,-139 -743,0 -104,139z" /><path style="fill:#c1c1c1;stroke:#4c4c4c;stroke-width:2" d="M245,24 l0,-2 0,-2 0,-2 0,-2 0,-1 0,-2 0,-2 0,-1 0,-1 1,-1 0,-2 1,0 0,-1 1,-1 0,-1 1,0 1,-1 1,0 1,-1 2,0 1,-1 2,0 1,0 2,0 2,0 3,0 2,0 3,0 2,0 3,0 3,0 4,0 418,0 4,0 3,0 3,0 2,0 3,0 2,0 3,0 2,0 2,0 1,0 2,1 1,0 2,1 1,0 1,1 1,0 1,1 0,1 1,1 1,1 0,1 0,1 1,2 0,1 0,2 0,1 0,2 0,2 0,3 0,2 0,2 0,3 0,354 0,4 0,3 0,2 0,3 0,2 0,2 0,2 0,2 0,2 0,2 0,1 -1,2 0,1 0,1 -1,1 0,1 -1,0 0,1 -1,1 -1,0 -1,1 -1,0 -1,0 -1,0 -1,1 -1,0 -2,0 -1,0 -2,0 -1,0 -2,0 -2,0 -439,0 -3,0 -3,0 -2,0 -3,0 -2,0 -2,0 -2,0 -1,-1 -2,0 -2,0 -1,0 -1,-1 -1,0 -1,-1 -1,-1 -1,0 -1,-1 0,-1 -1,-1 0,-1 -1,-2 0,-1 0,-2 -1,-2 0,-2 0,-2 0,-2 0,-2 0,-3 0,-2 0,-3 0,-4 0,-359z" /><path style="fill:#828282;stroke:#4c4c4c;stroke-width:2" d="M368,418 l246,0 0,27 -246,0 0,-27z" /><path style="fill:#006;stroke:#4c4c4c;stroke-width:2" d="M282,79 l0,-3 0,-2 0,-3 0,-2 0,-3 0,-2 0,-2 0,-1 1,-2 0,-1 0,-2 1,-1 0,-1 1,-1 0,-1 1,-1 1,-1 0,0 2,-1 1,0 1,-1 1,0 2,0 1,0 2,-1 2,0 2,0 2,0 3,0 2,0 3,0 3,0 359,0 3,0 2,0 2,0 2,0 2,0 2,1 1,0 2,0 1,1 1,0 2,0 1,1 1,0 0,1 1,1 1,0 0,1 1,1 0,1 1,1 0,1 0,1 1,2 0,1 0,1 0,2 0,1 0,2 0,2 0,2 0,2 0,2 0,243 0,2 0,3 0,2 0,2 0,2 0,1 1,2 0,2 -1,1 0,1 0,1 0,1 0,1 0,1 -1,1 0,1 -1,0 0,1 -1,0 -1,1 -1,0 -1,0 -2,1 -1,0 -2,0 -1,0 -2,0 -2,0 -3,0 -2,0 -3,0 -3,0 -359,0 -3,0 -3,0 -2,0 -3,0 -2,0 -2,0 -2,0 -2,0 -1,0 -2,0 -1,0 -1,0 -1,0 -2,-1 0,0 -1,-1 -1,-1 0,0 -1,-1 0,-1 -1,-2 0,-1 0,-2 -1,-1 0,-2 0,-2 0,-3 0,-2 0,-3 0,-2 0,-4 0,-3 0,-234z" /><path style="fill:#c1c1c1;stroke:#4c4c4c;stroke-width:2" d="M245,505 l492,0 0,-20 -123,-40 -246,0 -123,40 0,20z" /><path style="fill:#828282;stroke:#4c4c4c;stroke-width:2" d="M695,370 l0,30 -118,0 0,-30 118,0z" /><path style="fill:none;stroke:#4c4c4c;stroke-width:2" d="M245,485 l492,0" /><path style="fill:#c1c1c1;stroke:#4c4c4c;stroke-width:2" d="M998,775 l0,-207 -998,0 0,207 998,0z" /><path style="fill:#fff" d="M624,667 l92,0 0,-46 -92,0 0,46z" /><path style="fill:#828282;stroke:#4c4c4c;stroke-width:2" d="M616,669 l347,0 0,95 -347,0 0,-95z" /><path style="fill:#000;stroke:#4c4c4c;stroke-width:2" d="M651,696 l277,0 0,41 -277,0 0,-41z" /><path style="fill:#c1c1c1;stroke:#4c4c4c;stroke-width:2" d="M877,696 l86,0 0,41 -86,0 0,-41z" /><path style="fill:#c1c1c1;stroke:#4c4c4c;stroke-width:2" d="M911,696 l17,0 0,41 -17,0 0,-41z" /><path style="fill:#828282;stroke:#4c4c4c;stroke-width:2" d="M618,574 l343,0 0,93 -343,0 0,-93z" /><path style="fill:#000;stroke:#4c4c4c;stroke-width:2" d="M652,614 l275,-1 0,14 -275,0 0,-13z" /><path style="fill:#c1c1c1;stroke:#4c4c4c;stroke-width:2" d="M909,587 l-68,0 0,13 68,0 0,-13z" /><ellipse style="fill:#c1c1c1;stroke:#4c4c4c;stroke-width:2" cx="910" cy="600" rx="17" ry="13" /><path style="fill:#fff;stroke:#4c4c4c;stroke-width:2" d="M138,790 l-28,176 810,0 -64,-176 -718,0z" /><path style="fill:#c1c1c1;stroke:#4c4c4c;stroke-width:2" d="M613,802 l-3,28 31,0 -3,-28 -25,0z" /><path style="fill:#fff;stroke:#4c4c4c;stroke-width:2" d="M614,794 l-1,8 25,0 -2,-8 -22,0z" /><path style="fill:#c1c1c1;stroke:#4c4c4c;stroke-width:2" d="M644,802 l-2,28 30,0 -3,-28 -25,0z" /><path style="fill:#fff;stroke:#4c4c4c;stroke-width:2" d="M646,794 l-2,8 25,0 -1,-8 -22,0z" /><path style="fill:#c1c1c1;stroke:#4c4c4c;stroke-width:2" d="M675,802 l-3,28 31,0 -3,-28 -25,0z" /><path style="fill:#fff;stroke:#4c4c4c;stroke-width:2" d="M677,794 l-2,8 25,0 -2,-8 -21,0z" /><path style="fill:#c1c1c1;stroke:#4c4c4c;stroke-width:2" d="M538,802 l-2,28 30,0 -3,-28 -25,0z" /><path style="fill:#fff;stroke:#4c4c4c;stroke-width:2" d="M540,794 l-2,8 25,0 -1,-8 -22,0z" /><path style="fill:#c1c1c1;stroke:#4c4c4c;stroke-width:2" d="M570,802 l-3,28 31,0 -3,-28 -25,0z" /><path style="fill:#fff;stroke:#4c4c4c;stroke-width:2" d="M571,794 l-1,8 25,0 -2,-8 -22,0z" /><path style="fill:#c1c1c1;stroke:#4c4c4c;stroke-width:2" d="M508,802 l-3,28 31,0 -4,-28 -24,0z" /><path style="fill:#fff;stroke:#4c4c4c;stroke-width:2" d="M509,794 l-1,8 24,0 -1,-8 -22,0z" /><path style="fill:#c1c1c1;stroke:#4c4c4c;stroke-width:2" d="M477,802 l-3,28 31,0 -3,-28 -25,0z" /><path style="fill:#fff;stroke:#4c4c4c;stroke-width:2" d="M479,794 l-2,8 25,0 -2,-8 -21,0z" /><path style="fill:#c1c1c1;stroke:#4c4c4c;stroke-width:2" d="M343,802 l-3,28 30,0 -2,-28 -25,0z" /><path style="fill:#fff;stroke:#4c4c4c;stroke-width:2" d="M344,794 l-1,8 25,0 -2,-8 -22,0z" /><path style="fill:#c1c1c1;stroke:#4c4c4c;stroke-width:2" d="M435,802 l-3,28 30,0 -3,-28 -24,0z" /><path style="fill:#fff;stroke:#4c4c4c;stroke-width:2" d="M436,794 l-1,8 24,0 -1,-8 -22,0z" /><path style="fill:#c1c1c1;stroke:#4c4c4c;stroke-width:2" d="M374,802 l-4,28 31,0 -3,-28 -24,0z" /><path style="fill:#fff;stroke:#4c4c4c;stroke-width:2" d="M375,794 l-1,8 24,0 -1,-8 -22,0z" /><path style="fill:#c1c1c1;stroke:#4c4c4c;stroke-width:2" d="M404,802 l-3,28 31,0 -3,-28 -25,0z" /><path style="fill:#fff;stroke:#4c4c4c;stroke-width:2" d="M406,794 l-2,8 25,0 -2,-8 -21,0z" /><path style="fill:#c1c1c1;stroke:#4c4c4c;stroke-width:2" d="M303,802 l-3,28 31,0 -3,-28 -25,0z" /><path style="fill:#fff;stroke:#4c4c4c;stroke-width:2" d="M305,794 l-2,8 25,0 -2,-8 -21,0z" /><path style="fill:#c1c1c1;stroke:#4c4c4c;stroke-width:2" d="M242,802 l-3,28 30,0 -3,-28 -24,0z" /><path style="fill:#fff;stroke:#4c4c4c;stroke-width:2" d="M243,794 l-1,8 24,0 -2,-8 -21,0z" /><path style="fill:#c1c1c1;stroke:#4c4c4c;stroke-width:2" d="M211,802 l-3,28 31,0 -3,-28 -25,0z" /><path style="fill:#fff;stroke:#4c4c4c;stroke-width:2" d="M213,794 l-2,8 25,0 -2,-8 -21,0z" /><path style="fill:#c1c1c1;stroke:#4c4c4c;stroke-width:2" d="M273,802 l-4,28 31,0 -3,-28 -24,0z" /><path style="fill:#fff;stroke:#4c4c4c;stroke-width:2" d="M274,794 l-1,8 24,0 -2,-8 -21,0z" /><path style="fill:#c1c1c1;stroke:#4c4c4c;stroke-width:2" d="M155,802 l-2,28 30,0 -3,-28 -25,0z" /><path style="fill:#c1c1c1;stroke:#4c4c4c;stroke-width:2" d="M343,831 l-3,27 30,0 -2,-27 -25,0z" /><path style="fill:#fff;stroke:#4c4c4c;stroke-width:2" d="M344,823 l-1,8 25,0 -2,-8 -22,0z" /><path style="fill:#c1c1c1;stroke:#4c4c4c;stroke-width:2" d="M558,831 l-3,27 30,0 -3,-27 -24,0z" /><path style="fill:#fff;stroke:#4c4c4c;stroke-width:2" d="M559,823 l-1,8 24,0 -1,-8 -22,0z" /><path style="fill:#c1c1c1;stroke:#4c4c4c;stroke-width:2" d="M312,831 l-3,27 31,0 -3,-27 -25,0z" /><path style="fill:#fff;stroke:#4c4c4c;stroke-width:2" d="M314,823 l-2,8 25,0 -2,-8 -21,0z" /><path style="fill:#c1c1c1;stroke:#4c4c4c;stroke-width:2" d="M374,831 l-4,27 31,0 -3,-27 -24,0z" /><path style="fill:#fff;stroke:#4c4c4c;stroke-width:2" d="M375,823 l-1,8 24,0 -1,-8 -22,0z" /><path style="fill:#c1c1c1;stroke:#4c4c4c;stroke-width:2" d="M466,831 l-4,27 31,0 -3,-27 -24,0z" /><path style="fill:#fff;stroke:#4c4c4c;stroke-width:2" d="M467,823 l-1,8 24,0 -1,-8 -22,0z" /><path style="fill:#c1c1c1;stroke:#4c4c4c;stroke-width:2" d="M159,831 l-4,27 31,0 -3,-27 -24,0z" /><path style="fill:#fff;stroke:#4c4c4c;stroke-width:2" d="M160,823 l-1,8 24,0 -1,-8 -22,0z" /><path style="fill:#c1c1c1;stroke:#4c4c4c;stroke-width:2" d="M404,831 l-3,27 31,0 -3,-27 -25,0z" /><path style="fill:#fff;stroke:#4c4c4c;stroke-width:2" d="M406,823 l-2,8 25,0 -2,-8 -21,0z" /><path style="fill:#c1c1c1;stroke:#4c4c4c;stroke-width:2" d="M435,831 l-3,27 30,0 -3,-27 -24,0z" /><path style="fill:#fff;stroke:#4c4c4c;stroke-width:2" d="M436,823 l-1,8 24,0 -1,-8 -22,0z" /><path style="fill:#c1c1c1;stroke:#4c4c4c;stroke-width:2" d="M251,831 l-3,27 30,0 -3,-27 -24,0z" /><path style="fill:#fff;stroke:#4c4c4c;stroke-width:2" d="M252,823 l-1,8 24,0 -1,-8 -22,0z" /><path style="fill:#c1c1c1;stroke:#4c4c4c;stroke-width:2" d="M220,831 l-3,27 31,0 -3,-27 -25,0z" /><path style="fill:#fff;stroke:#4c4c4c;stroke-width:2" d="M222,823 l-2,8 25,0 -2,-8 -21,0z" /><path style="fill:#c1c1c1;stroke:#4c4c4c;stroke-width:2" d="M527,831 l-3,27 31,0 -3,-27 -25,0z" /><path style="fill:#fff;stroke:#4c4c4c;stroke-width:2" d="M529,823 l-2,8 25,0 -2,-8 -21,0z" /><path style="fill:#c1c1c1;stroke:#4c4c4c;stroke-width:2" d="M282,831 l-4,27 31,0 -3,-27 -24,0z" /><path style="fill:#fff;stroke:#4c4c4c;stroke-width:2" d="M283,823 l-1,8 24,0 -1,-8 -22,0z" /><path style="fill:#c1c1c1;stroke:#4c4c4c;stroke-width:2" d="M190,831 l-4,27 31,0 -3,-27 -24,0z" /><path style="fill:#fff;stroke:#4c4c4c;stroke-width:2" d="M191,823 l-1,8 24,0 -1,-8 -22,0z" /><path style="fill:#c1c1c1;stroke:#4c4c4c;stroke-width:2" d="M496,831 l-3,27 31,0 -3,-27 -25,0z" /><path style="fill:#fff;stroke:#4c4c4c;stroke-width:2" d="M498,823 l-2,8 25,0 -1,-8 -22,0z" /><path style="fill:#c1c1c1;stroke:#4c4c4c;stroke-width:2" d="M355,844 l-3,27 31,0 -3,-27 -25,0z" /><path style="fill:#fff;stroke:#4c4c4c;stroke-width:2" d="M357,836 l-2,8 25,0 -2,-8 -21,0z" /><path style="fill:#c1c1c1;stroke:#4c4c4c;stroke-width:2" d="M570,844 l-3,27 31,0 -3,-27 -25,0z" /><path style="fill:#fff;stroke:#4c4c4c;stroke-width:2" d="M571,836 l-1,8 25,0 -2,-8 -22,0z" /><path style="fill:#c1c1c1;stroke:#4c4c4c;stroke-width:2" d="M325,844 l-4,27 31,0 -3,-27 -24,0z" /><path style="fill:#fff;stroke:#4c4c4c;stroke-width:2" d="M326,836 l-1,8 24,0 -2,-8 -21,0z" /><path style="fill:#c1c1c1;stroke:#4c4c4c;stroke-width:2" d="M386,844 l-3,27 30,0 -2,-27 -25,0z" /><path style="fill:#fff;stroke:#4c4c4c;stroke-width:2" d="M388,836 l-2,8 25,0 -2,-8 -21,0z" /><path style="fill:#c1c1c1;stroke:#4c4c4c;stroke-width:2" d="M478,844 l-3,27 31,0 -4,-27 -24,0z" /><path style="fill:#fff;stroke:#4c4c4c;stroke-width:2" d="M480,836 l-2,8 24,0 -1,-8 -21,0z" /><path style="fill:#c1c1c1;stroke:#4c4c4c;stroke-width:2" d="M171,844 l-3,27 31,0 -4,-27 -24,0z" /><path style="fill:#fff;stroke:#4c4c4c;stroke-width:2" d="M173,836 l-2,8 24,0 -1,-8 -21,0z" /><path style="fill:#c1c1c1;stroke:#4c4c4c;stroke-width:2" d="M417,844 l-4,27 31,0 -3,-27 -24,0z" /><path style="fill:#fff;stroke:#4c4c4c;stroke-width:2" d="M418,836 l-1,8 24,0 -2,-8 -21,0z" /><path style="fill:#c1c1c1;stroke:#4c4c4c;stroke-width:2" d="M447,844 l-3,27 31,0 -3,-27 -25,0z" /><path style="fill:#fff;stroke:#4c4c4c;stroke-width:2" d="M449,836 l-2,8 25,0 -2,-8 -21,0z" /><path style="fill:#c1c1c1;stroke:#4c4c4c;stroke-width:2" d="M263,844 l-3,27 31,0 -4,-27 -24,0z" /><path style="fill:#fff;stroke:#4c4c4c;stroke-width:2" d="M264,836 l-1,8 24,0 -1,-8 -22,0z" /><path style="fill:#c1c1c1;stroke:#4c4c4c;stroke-width:2" d="M232,844 l-3,27 31,0 -3,-27 -25,0z" /><path style="fill:#fff;stroke:#4c4c4c;stroke-width:2" d="M234,836 l-2,8 25,0 -2,-8 -21,0z" /><path style="fill:#c1c1c1;stroke:#4c4c4c;stroke-width:2" d="M540,844 l-4,27 31,0 -3,-27 -24,0z" /><path style="fill:#fff;stroke:#4c4c4c;stroke-width:2" d="M541,836 l-1,8 24,0 -1,-8 -22,0z" /><path style="fill:#c1c1c1;stroke:#4c4c4c;stroke-width:2" d="M294,844 l-3,27 30,0 -3,-27 -24,0z" /><path style="fill:#fff;stroke:#4c4c4c;stroke-width:2" d="M295,836 l-1,8 24,0 -1,-8 -22,0z" /><path style="fill:#c1c1c1;stroke:#4c4c4c;stroke-width:2" d="M202,844 l-3,27 30,0 -3,-27 -24,0z" /><path style="fill:#fff;stroke:#4c4c4c;stroke-width:2" d="M203,836 l-1,8 24,0 -1,-8 -22,0z" /><path style="fill:#c1c1c1;stroke:#4c4c4c;stroke-width:2" d="M509,844 l-3,27 30,0 -3,-27 -24,0z" /><path style="fill:#fff;stroke:#4c4c4c;stroke-width:2" d="M510,836 l-1,8 24,0 -1,-8 -22,0z" /><path style="fill:#c1c1c1;stroke:#4c4c4c;stroke-width:2" d="M343,860 l-3,28 30,0 -2,-28 -25,0z" /><path style="fill:#fff;stroke:#4c4c4c;stroke-width:2" d="M344,853 l-1,7 25,0 -2,-7 -22,0z" /><path style="fill:#c1c1c1;stroke:#4c4c4c;stroke-width:2" d="M558,860 l-3,28 30,0 -3,-28 -24,0z" /><path style="fill:#fff;stroke:#4c4c4c;stroke-width:2" d="M559,853 l-1,7 24,0 -1,-7 -22,0z" /><path style="fill:#c1c1c1;stroke:#4c4c4c;stroke-width:2" d="M312,860 l-3,28 31,0 -3,-28 -25,0z" /><path style="fill:#fff;stroke:#4c4c4c;stroke-width:2" d="M314,853 l-2,7 25,0 -2,-7 -21,0z" /><path style="fill:#c1c1c1;stroke:#4c4c4c;stroke-width:2" d="M374,860 l-4,28 31,0 -3,-28 -24,0z" /><path style="fill:#fff;stroke:#4c4c4c;stroke-width:2" d="M375,853 l-1,7 24,0 -1,-7 -22,0z" /><path style="fill:#c1c1c1;stroke:#4c4c4c;stroke-width:2" d="M466,860 l-4,28 31,0 -3,-28 -24,0z" /><path style="fill:#fff;stroke:#4c4c4c;stroke-width:2" d="M467,853 l-1,7 24,0 -1,-7 -22,0z" /><path style="fill:#c1c1c1;stroke:#4c4c4c;stroke-width:2" d="M159,860 l-4,28 31,0 -3,-28 -24,0z" /><path style="fill:#fff;stroke:#4c4c4c;stroke-width:2" d="M160,853 l-1,7 24,0 -1,-7 -22,0z" /><path style="fill:#c1c1c1;stroke:#4c4c4c;stroke-width:2" d="M404,860 l-3,28 31,0 -3,-28 -25,0z" /><path style="fill:#fff;stroke:#4c4c4c;stroke-width:2" d="M406,853 l-2,7 25,0 -2,-7 -21,0z" /><path style="fill:#c1c1c1;stroke:#4c4c4c;stroke-width:2" d="M435,860 l-3,28 30,0 -3,-28 -24,0z" /><path style="fill:#fff;stroke:#4c4c4c;stroke-width:2" d="M436,853 l-1,7 24,0 -1,-7 -22,0z" /><path style="fill:#c1c1c1;stroke:#4c4c4c;stroke-width:2" d="M251,860 l-3,28 30,0 -3,-28 -24,0z" /><path style="fill:#fff;stroke:#4c4c4c;stroke-width:2" d="M252,853 l-1,7 24,0 -1,-7 -22,0z" /><path style="fill:#c1c1c1;stroke:#4c4c4c;stroke-width:2" d="M220,860 l-3,28 31,0 -3,-28 -25,0z" /><path style="fill:#fff;stroke:#4c4c4c;stroke-width:2" d="M222,853 l-2,7 25,0 -2,-7 -21,0z" /><path style="fill:#c1c1c1;stroke:#4c4c4c;stroke-width:2" d="M527,860 l-3,28 31,0 -3,-28 -25,0z" /><path style="fill:#fff;stroke:#4c4c4c;stroke-width:2" d="M529,853 l-2,7 25,0 -2,-7 -21,0z" /><path style="fill:#c1c1c1;stroke:#4c4c4c;stroke-width:2" d="M282,860 l-4,28 31,0 -3,-28 -24,0z" /><path style="fill:#fff;stroke:#4c4c4c;stroke-width:2" d="M283,853 l-1,7 24,0 -1,-7 -22,0z" /><path style="fill:#c1c1c1;stroke:#4c4c4c;stroke-width:2" d="M190,860 l-4,28 31,0 -3,-28 -24,0z" /><path style="fill:#fff;stroke:#4c4c4c;stroke-width:2" d="M191,853 l-1,7 24,0 -1,-7 -22,0z" /><path style="fill:#c1c1c1;stroke:#4c4c4c;stroke-width:2" d="M496,860 l-3,28 31,0 -3,-28 -25,0z" /><path style="fill:#fff;stroke:#4c4c4c;stroke-width:2" d="M498,853 l-2,7 25,0 -1,-7 -22,0z" /><path style="fill:#c1c1c1;stroke:#4c4c4c;stroke-width:2" d="M355,880 l-3,28 31,0 -3,-28 -25,0z" /><path style="fill:#fff;stroke:#4c4c4c;stroke-width:2" d="M357,872 l-2,8 25,0 -2,-8 -21,0z" /><path style="fill:#c1c1c1;stroke:#4c4c4c;stroke-width:2" d="M570,880 l-3,28 31,0 -3,-28 -25,0z" /><path style="fill:#fff;stroke:#4c4c4c;stroke-width:2" d="M571,872 l-1,8 25,0 -2,-8 -22,0z" /><path style="fill:#c1c1c1;stroke:#4c4c4c;stroke-width:2" d="M325,880 l-4,28 31,0 -3,-28 -24,0z" /><path style="fill:#fff;stroke:#4c4c4c;stroke-width:2" d="M326,872 l-1,8 24,0 -2,-8 -21,0z" /><path style="fill:#c1c1c1;stroke:#4c4c4c;stroke-width:2" d="M386,880 l-3,28 30,0 -2,-28 -25,0z" /><path style="fill:#fff;stroke:#4c4c4c;stroke-width:2" d="M388,872 l-2,8 25,0 -2,-8 -21,0z" /><path style="fill:#c1c1c1;stroke:#4c4c4c;stroke-width:2" d="M478,880 l-3,28 31,0 -4,-28 -24,0z" /><path style="fill:#fff;stroke:#4c4c4c;stroke-width:2" d="M480,872 l-2,8 24,0 -1,-8 -21,0z" /><path style="fill:#c1c1c1;stroke:#4c4c4c;stroke-width:2" d="M171,880 l-3,28 31,0 -4,-28 -24,0z" /><path style="fill:#fff;stroke:#4c4c4c;stroke-width:2" d="M173,872 l-2,8 24,0 -1,-8 -21,0z" /><path style="fill:#c1c1c1;stroke:#4c4c4c;stroke-width:2" d="M417,880 l-4,28 31,0 -3,-28 -24,0z" /><path style="fill:#fff;stroke:#4c4c4c;stroke-width:2" d="M418,872 l-1,8 24,0 -2,-8 -21,0z" /><path style="fill:#c1c1c1;stroke:#4c4c4c;stroke-width:2" d="M447,880 l-3,28 31,0 -3,-28 -25,0z" /><path style="fill:#fff;stroke:#4c4c4c;stroke-width:2" d="M449,872 l-2,8 25,0 -2,-8 -21,0z" /><path style="fill:#c1c1c1;stroke:#4c4c4c;stroke-width:2" d="M263,880 l-3,28 31,0 -4,-28 -24,0z" /><path style="fill:#fff;stroke:#4c4c4c;stroke-width:2" d="M264,872 l-1,8 24,0 -1,-8 -22,0z" /><path style="fill:#c1c1c1;stroke:#4c4c4c;stroke-width:2" d="M232,880 l-3,28 31,0 -3,-28 -25,0z" /><path style="fill:#fff;stroke:#4c4c4c;stroke-width:2" d="M234,872 l-2,8 25,0 -2,-8 -21,0z" /><path style="fill:#c1c1c1;stroke:#4c4c4c;stroke-width:2" d="M540,880 l-4,28 31,0 -3,-28 -24,0z" /><path style="fill:#fff;stroke:#4c4c4c;stroke-width:2" d="M541,872 l-1,8 24,0 -1,-8 -22,0z" /><path style="fill:#c1c1c1;stroke:#4c4c4c;stroke-width:2" d="M294,880 l-3,28 30,0 -3,-28 -24,0z" /><path style="fill:#fff;stroke:#4c4c4c;stroke-width:2" d="M295,872 l-1,8 24,0 -1,-8 -22,0z" /><path style="fill:#c1c1c1;stroke:#4c4c4c;stroke-width:2" d="M202,880 l-3,28 30,0 -3,-28 -24,0z" /><path style="fill:#fff;stroke:#4c4c4c;stroke-width:2" d="M203,872 l-1,8 24,0 -1,-8 -22,0z" /><path style="fill:#c1c1c1;stroke:#4c4c4c;stroke-width:2" d="M509,880 l-3,28 30,0 -3,-28 -24,0z" /><path style="fill:#fff;stroke:#4c4c4c;stroke-width:2" d="M510,872 l-1,8 24,0 -1,-8 -22,0z" /><path style="fill:#c1c1c1;stroke:#4c4c4c;stroke-width:2" d="M567,906 l-3,28 31,0 -3,-28 -25,0z" /><path style="fill:#fff;stroke:#4c4c4c;stroke-width:2" d="M568,898 l-1,8 25,0 -2,-8 -22,0z" /><path style="fill:#c1c1c1;stroke:#4c4c4c;stroke-width:2" d="M617,830 l-4,28 31,0 -3,-28 -24,0z" /><path style="fill:#fff;stroke:#4c4c4c;stroke-width:2" d="M618,823 l-1,7 24,0 -1,-7 -22,0z" /><path style="fill:#c1c1c1;stroke:#4c4c4c;stroke-width:2" d="M650,830 l-3,28 31,0 -3,-28 -25,0z" /><path style="fill:#fff;stroke:#4c4c4c;stroke-width:2" d="M652,823 l-2,7 25,0 -2,-7 -21,0z" /><path style="fill:#c1c1c1;stroke:#4c4c4c;stroke-width:2" d="M623,844 l-4,27 31,0 -3,-27 -24,0z" /><path style="fill:#fff;stroke:#4c4c4c;stroke-width:2" d="M624,836 l-1,8 24,0 -2,-8 -21,0z" /><path style="fill:#c1c1c1;stroke:#4c4c4c;stroke-width:2" d="M681,830 l-3,28 31,0 -4,-28 -24,0z" /><path style="fill:#fff;stroke:#4c4c4c;stroke-width:2" d="M682,823 l-1,7 24,0 -1,-7 -22,0z" /><path style="fill:#c1c1c1;stroke:#4c4c4c;stroke-width:2" d="M655,844 l-4,27 31,0 -3,-27 -24,0z" /><path style="fill:#fff;stroke:#4c4c4c;stroke-width:2" d="M656,836 l-1,8 24,0 -1,-8 -22,0z" /><path style="fill:#c1c1c1;stroke:#4c4c4c;stroke-width:2" d="M685,844 l-3,27 31,0 -3,-27 -25,0z" /><path style="fill:#fff;stroke:#4c4c4c;stroke-width:2" d="M687,836 l-2,8 25,0 -2,-8 -21,0z" /><path style="fill:#c1c1c1;stroke:#4c4c4c;stroke-width:2" d="M631,905 l-3,28 31,0 -3,-28 -25,0z" /><path style="fill:#fff;stroke:#4c4c4c;stroke-width:2" d="M633,897 l-2,8 25,0 -1,-8 -22,0z" /><path style="fill:#c1c1c1;stroke:#4c4c4c;stroke-width:2" d="M659,880 l-3,28 31,0 -3,-28 -25,0z" /><path style="fill:#fff;stroke:#4c4c4c;stroke-width:2" d="M661,872 l-2,8 25,0 -2,-8 -21,0z" /><path style="fill:#c1c1c1;stroke:#4c4c4c;stroke-width:2" d="M663,905 l-3,28 30,0 -3,-28 -24,0z" /><path style="fill:#fff;stroke:#4c4c4c;stroke-width:2" d="M664,897 l-1,8 24,0 -1,-8 -22,0z" /><path style="fill:#c1c1c1;stroke:#4c4c4c;stroke-width:2" d="M695,905 l-3,28 30,0 -3,-28 -24,0z" /><path style="fill:#fff;stroke:#4c4c4c;stroke-width:2" d="M696,897 l-1,8 24,0 -1,-8 -22,0z" /><path style="fill:#c1c1c1;stroke:#4c4c4c;stroke-width:2" d="M824,830 l-3,28 31,0 -3,-28 -25,0z" /><path style="fill:#fff;stroke:#4c4c4c;stroke-width:2" d="M826,823 l-2,7 25,0 -2,-7 -21,0z" /><path style="fill:#c1c1c1;stroke:#4c4c4c;stroke-width:2" d="M794,830 l-3,28 30,0 -2,-28 -25,0z" /><path style="fill:#fff;stroke:#4c4c4c;stroke-width:2" d="M796,823 l-2,7 25,0 -2,-7 -21,0z" /><path style="fill:#c1c1c1;stroke:#4c4c4c;stroke-width:2" d="M761,830 l-3,28 31,0 -3,-28 -25,0z" /><path style="fill:#fff;stroke:#4c4c4c;stroke-width:2" d="M763,823 l-2,7 25,0 -1,-7 -22,0z" /><path style="fill:#c1c1c1;stroke:#4c4c4c;stroke-width:2" d="M730,830 l-3,28 31,0 -3,-28 -25,0z" /><path style="fill:#fff;stroke:#4c4c4c;stroke-width:2" d="M732,823 l-2,7 25,0 -1,-7 -22,0z" /><path style="fill:#c1c1c1;stroke:#4c4c4c;stroke-width:2" d="M734,844 l-4,27 31,0 -3,-27 -24,0z" /><path style="fill:#fff;stroke:#4c4c4c;stroke-width:2" d="M735,836 l-1,8 24,0 -2,-8 -21,0z" /><path style="fill:#c1c1c1;stroke:#4c4c4c;stroke-width:2" d="M765,844 l-2,27 30,0 -3,-27 -25,0z" /><path style="fill:#fff;stroke:#4c4c4c;stroke-width:2" d="M767,836 l-2,8 25,0 -2,-8 -21,0z" /><path style="fill:#c1c1c1;stroke:#4c4c4c;stroke-width:2" d="M797,844 l-3,27 31,0 -4,-27 -24,0z" /><path style="fill:#fff;stroke:#4c4c4c;stroke-width:2" d="M799,836 l-2,8 24,0 -1,-8 -21,0z" /><path style="fill:#c1c1c1;stroke:#4c4c4c;stroke-width:2" d="M828,844 l-2,27 30,0 -3,-27 -25,0z" /><path style="fill:#fff;stroke:#4c4c4c;stroke-width:2" d="M830,836 l-2,8 25,0 -1,-8 -22,0z" /><path style="fill:#c1c1c1;stroke:#4c4c4c;stroke-width:2" d="M833,861 l-3,27 30,0 -3,-27 -24,0z" /><path style="fill:#fff;stroke:#4c4c4c;stroke-width:2" d="M834,853 l-1,8 24,0 -1,-8 -22,0z" /><path style="fill:#c1c1c1;stroke:#4c4c4c;stroke-width:2" d="M836,880 l-3,28 31,0 -3,-28 -25,0z" /><path style="fill:#fff;stroke:#4c4c4c;stroke-width:2" d="M838,872 l-2,8 25,0 -2,-8 -21,0z" /><path style="fill:#c1c1c1;stroke:#4c4c4c;stroke-width:2" d="M841,905 l-3,28 31,0 -3,-28 -25,0z" /><path style="fill:#fff;stroke:#4c4c4c;stroke-width:2" d="M843,897 l-2,8 25,0 -2,-8 -21,0z" /><path style="fill:#c1c1c1;stroke:#4c4c4c;stroke-width:2" d="M736,861 l-3,27 31,0 -4,-27 -24,0z" /><path style="fill:#fff;stroke:#4c4c4c;stroke-width:2" d="M738,853 l-2,8 24,0 -1,-8 -21,0z" /><path style="fill:#c1c1c1;stroke:#4c4c4c;stroke-width:2" d="M740,880 l-3,28 30,0 -3,-28 -24,0z" /><path style="fill:#fff;stroke:#4c4c4c;stroke-width:2" d="M741,872 l-1,8 24,0 -1,-8 -22,0z" /><path style="fill:#c1c1c1;stroke:#4c4c4c;stroke-width:2" d="M768,861 l-3,27 31,0 -3,-27 -25,0z" /><path style="fill:#fff;stroke:#4c4c4c;stroke-width:2" d="M770,853 l-2,8 25,0 -2,-8 -21,0z" /><path style="fill:#c1c1c1;stroke:#4c4c4c;stroke-width:2" d="M772,880 l-4,28 31,0 -3,-28 -24,0z" /><path style="fill:#fff;stroke:#4c4c4c;stroke-width:2" d="M773,872 l-1,8 24,0 -1,-8 -22,0z" /><path style="fill:#c1c1c1;stroke:#4c4c4c;stroke-width:2" d="M801,861 l-3,27 30,0 -2,-27 -25,0z" /><path style="fill:#fff;stroke:#4c4c4c;stroke-width:2" d="M802,853 l-1,8 25,0 -2,-8 -22,0z" /><path style="fill:#c1c1c1;stroke:#4c4c4c;stroke-width:2" d="M804,880 l-3,28 30,0 -3,-28 -24,0z" /><path style="fill:#fff;stroke:#4c4c4c;stroke-width:2" d="M805,872 l-1,8 24,0 -1,-8 -22,0z" /><path style="fill:#c1c1c1;stroke:#4c4c4c;stroke-width:2" d="M808,905 l-3,28 31,0 -3,-28 -25,0z" /><path style="fill:#fff;stroke:#4c4c4c;stroke-width:2" d="M810,897 l-2,8 25,0 -2,-8 -21,0z" /><path style="fill:#c1c1c1;stroke:#4c4c4c;stroke-width:2" d="M155,906 l-2,28 30,0 -3,-28 -25,0z" /><path style="fill:#fff;stroke:#4c4c4c;stroke-width:2" d="M157,898 l-2,8 25,0 -1,-8 -22,0z" /><path style="fill:#c1c1c1;stroke:#4c4c4c;stroke-width:2" d="M220,906 l-3,28 31,0 -3,-28 -25,0z" /><path style="fill:#fff;stroke:#4c4c4c;stroke-width:2" d="M222,898 l-2,8 25,0 -2,-8 -21,0z" /><path style="fill:#c1c1c1;stroke:#4c4c4c;stroke-width:2" d="M536,906 l-3,28 31,0 -3,-28 -25,0z" /><path style="fill:#fff;stroke:#4c4c4c;stroke-width:2" d="M538,898 l-2,8 25,0 -2,-8 -21,0z" /><path style="fill:#c1c1c1;stroke:#4c4c4c;stroke-width:2" d="M186,906 l-3,28 31,0 -3,-28 -25,0z" /><path style="fill:#fff;stroke:#4c4c4c;stroke-width:2" d="M188,898 l-2,8 25,0 -2,-8 -21,0z" /><path style="fill:#c1c1c1;stroke:#4c4c4c;stroke-width:2" d="M506,906 l-4,28 31,0 -3,-28 -24,0z" /><path style="fill:#fff;stroke:#4c4c4c;stroke-width:2" d="M507,898 l-1,8 24,0 -1,-8 -22,0z" /><path style="fill:#fff;stroke:#4c4c4c;stroke-width:2" d="M157,796 l-2,8 25,0 -1,-8 -22,0z" /><path style="fill:#c1c1c1;stroke:#4c4c4c;stroke-width:2" d="M251,907 l-3,27 254,0 -3,-28 -248,1z" /><path style="fill:#fff;stroke:#4c4c4c;stroke-width:2" d="M252,898 l-1,9 248,-1 -9,-8 -238,0z" /><path style="fill:#c1c1c1;stroke:#4c4c4c;stroke-width:2" d="M775,905 l-3,28 31,0 -3,-28 -25,0z" /><path style="fill:#fff;stroke:#4c4c4c;stroke-width:2" d="M777,897 l-2,8 25,0 -2,-8 -21,0z" /><path style="fill:#c1c1c1;stroke:#4c4c4c;stroke-width:2" d="M743,905 l-2,28 30,0 -3,-28 -25,0z" /><path style="fill:#fff;stroke:#4c4c4c;stroke-width:2" d="M745,897 l-2,8 25,0 -1,-8 -22,0z" /><path style="fill:#e8e8e8" d="M920,969 l-810,0 0,-3 810,0 0,3z" /><path style="fill:#e0e0e0" d="M920,969 l0,3 -810,0 0,-3 810,0z" /><path style="fill:#d6d6d6" d="M920,972 l0,3 -810,0 0,-3 810,0z" /><path style="fill:#cecece" d="M920,975 l0,3 -810,0 0,-3 810,0z" /><path style="fill:#c4c4c4" d="M920,978 l0,3 -810,0 0,-3 810,0z" /><path style="fill:#bcbcbc" d="M920,981 l0,3 -810,0 0,-3 810,0z" /><path style="fill:#b5b5b5" d="M920,984 l0,3 -810,0 0,-3 810,0z" /><path style="fill:#adadad" d="M920,987 l0,3 -810,0 0,-3 810,0z" /><path style="fill:#a3a3a3" d="M920,990 l0,2 -810,0 0,-2 810,0z" /><path style="fill:#9b9b9b" d="M920,992 l0,3 -810,0 0,-3 810,0z" /><path style="fill:none;stroke:#4c4c4c;stroke-width:2" d="M110,966 l0,29 810,0 0,-29 -810,0" /></svg>