<!DOCTYPE svg PUBLIC "-//W3C//DTD SVG 20000303 Stylable//EN" "http://www.w3.org/TR/2000/03/WD-SVG-20000303/DTD/svg-20000303-stylable.dtd"[]><svg xmlns="http://www.w3.org/2000/svg" width="977px" height="999px" viewBox="0 0 907 928"><path style="fill:#c0c0c0;stroke:#4c4c4c;stroke-width:2" d="M92,9 l0,278 16,12 9,6 562,0 10,-5 7,-7 3,-9 2,-6 0,-255 25,-14 70,0 9,-9 47,0 54,55 1,848 -2,5 -3,4 -4,7 -6,6 -7,3 -74,0 0,-518 -2,-9 -2,-5 -6,-6 -4,-3 -5,-2 -6,-1 -6,-1 -666,0 -4,1 -5,1 -4,4 -3,5 -1,5 -1,5 0,524 -76,0 -9,-6 -7,-7 -4,-9 0,-867 3,-11 6,-8 9,-7 11,-4 63,0z" /><path style="fill:#fff;stroke:#4c4c4c;stroke-width:2" d="M811,928 l0,-518 -1,-5 -1,-4 -2,-5 -6,-6 -4,-3 -5,-2 -6,-1 -6,-1 -666,0 -4,1 -5,1 -4,4 -3,5 -1,5 -1,5 0,524 715,0z" /><path style="fill:#f0f0f0;stroke:#4c4c4c;stroke-width:2" d="M216,9 l0,280 1,2 3,5 7,7 5,2 447,0 10,-5 7,-7 3,-9 2,-6 0,-269 -485,0z" /><path style="fill:#c0c0c0;stroke:#4c4c4c;stroke-width:2" d="M92,9 l0,278 16,12 9,6 115,0 -5,-2 -7,-7 -3,-5 -1,-2 0,-280 -124,0z" /><path style="fill:#c0c0c0;stroke:#4c4c4c;stroke-width:2" d="M509,283 l0,-241 120,0 0,241 -120,0z" /><path style="fill:#000;stroke:#4c4c4c;stroke-width:2" d="M35,856 l0,-27 39,0 0,27 -39,0z" /></svg>