<!DOCTYPE svg PUBLIC "-//W3C//DTD SVG 20000303 Stylable//EN" "http://www.w3.org/TR/2000/03/WD-SVG-20000303/DTD/svg-20000303-stylable.dtd"[]><svg xmlns="http://www.w3.org/2000/svg" width="999px" height="482px" viewBox="0 0 999 451"><path style="fill:#bfbfbf;stroke:#4c4c4c;stroke-width:2" d="M510,451 l441,0 4,-4 6,-52 3,-3 7,0 3,-4 0,-36 -2,-5 19,0 2,0 2,-1 1,0 1,-2 1,-2 1,-2 0,-2 0,-1 0,-2 -9,-105 0,-1 -2,-1 -1,-1 -2,0 -1,0 6,-8 -18,-106 -11,-12 -3,0 -94,-79 -2,-1 -13,0 -7,-7 -3,-1 -31,0 -4,-4 -294,0 -247,0 -3,4 -79,0 -3,0 -7,8 -35,0 -2,1 -94,79 -3,0 -11,12 -18,106 5,8 -2,0 -1,0 -1,1 -1,2 -8,105 0,1 0,2 0,2 0,1 0,2 1,2 2,1 1,1 2,0 1,0 19,0 -2,5 0,36 3,4 7,0 3,3 6,52 4,4 463,0z" /><path style="fill:none;stroke:#fff;stroke-width:2" d="M40,101 l918,0" /><path style="fill:none;stroke:#fff;stroke-width:2" d="M26,114 l4,-3 938,0 4,2" /><path style="fill:#fff;stroke:#fff;stroke-width:2" d="M101,96 l0,-6 2,-2 815,0 1,2 0,6 -818,0z" /><path style="fill:none;stroke:#4c4c4c;stroke-width:2" d="M102,88 l77,-75" /><path style="fill:none;stroke:#fff;stroke-width:2" d="M918,88 l-75,-73" /><path style="fill:#fff;stroke:#fff;stroke-width:2" d="M158,67 l22,-23 39,0 -3,3 -33,0 -19,20 -6,0z" /><path style="fill:#fff;stroke:#fff;stroke-width:2" d="M183,30 l9,-10 39,0 -3,4 -33,0 -6,6 -6,0z" /><path style="fill:none;stroke:#4c4c4c;stroke-width:2" d="M158,67 l41,0" /><path style="fill:none;stroke:#4c4c4c;stroke-width:2" d="M182,30 l41,0" /><path style="fill:#000;stroke:#4c4c4c;stroke-width:2" d="M188,56 l-5,7 5,0 0,-7z" /><path style="fill:#000;stroke:#4c4c4c;stroke-width:2" d="M200,22 l-6,8 6,0 0,-8z" /><path style="fill:#adadad;stroke:#4c4c4c;stroke-width:2" d="M188,63 l0,-22 6,0 0,22 -6,0z" /><path style="fill:#adadad;stroke:#4c4c4c;stroke-width:2" d="M200,30 l0,-29 15,0 0,29 -15,0z" /><path style="fill:none;stroke:#fff;stroke-width:2" d="M196,61 l0,-21" /><path style="fill:#fff;stroke:#fff;stroke-width:2" d="M215,30 l1,-3 0,-27 -13,0 -3,1 15,0 0,29z" /><path style="fill:#fff;stroke:#fff;stroke-width:2" d="M262,58 l-4,5 561,0 -5,-5 -552,0z" /><path style="fill:#000;stroke:#4c4c4c;stroke-width:2" d="M202,83 l673,0 -26,-28 -38,0 19,20 -581,0 15,-20 -39,0 -23,28z" /><path style="fill:none;stroke:#4c4c4c;stroke-width:2" d="M848,54 l-44,-45" /><path style="fill:none;stroke:#4c4c4c;stroke-width:2" d="M260,13 l-35,42" /><path style="fill:#000;stroke:#fff;stroke-width:2" d="M291,67 l0,-8 26,-41 -24,42 -2,7z" /><path style="fill:#000;stroke:#fff;stroke-width:2" d="M724,67 l0,-8 -25,-41 23,42 2,7z" /><path style="fill:#000;stroke:#fff;stroke-width:2" d="M792,67 l-1,-8 -38,-41 36,42 3,7z" /><path style="fill:#000;stroke:#fff;stroke-width:2" d="M353,67 l0,-8 19,-41 -17,42 -2,7z" /><path style="fill:#000;stroke:#fff;stroke-width:2" d="M663,67 l-1,-8 -19,-41 17,42 3,7z" /><path style="fill:#000;stroke:#fff;stroke-width:2" d="M408,67 l1,-8 13,-41 -12,42 -2,7z" /><path style="fill:#000;stroke:#fff;stroke-width:2" d="M607,67 l-1,-8 -13,-41 12,42 2,7z" /><path style="fill:#000;stroke:#fff;stroke-width:2" d="M472,67 l0,-8 6,-41 -5,42 -1,7z" /><path style="fill:#000;stroke:#fff;stroke-width:2" d="M543,67 l0,-8 -6,-41 5,42 1,7z" /><path style="fill:none;stroke:#adadad;stroke-width:2" d="M260,60 l-34,0 -16,21" /><path style="fill:none;stroke:#adadad;stroke-width:2" d="M816,60 l31,0 19,21" /><path style="fill:none;stroke:#4c4c4c;stroke-width:2" d="M75,132 l362,0 0,25 -362,0 0,-25" /><path style="fill:#070787;stroke:#4c4c4c;stroke-width:2" d="M94,139 l115,0 0,11 -115,0 0,-11z" /><path style="fill:#fff;stroke:#4c4c4c;stroke-width:2" d="M224,139 l69,0 0,11 -69,0 0,-11z" /><path style="fill:#0ff;stroke:#4c4c4c;stroke-width:2" d="M307,139 l111,0 0,11 -111,0 0,-11z" /><path style="fill:#000;stroke:#4c4c4c;stroke-width:2" d="M13,227 l971,0 5,-6 -5,1 -486,0 -486,0 -3,-1 4,6z" /><ellipse style="fill:#000;stroke:#4c4c4c;stroke-width:2" cx="499" cy="346" rx="499" ry="5" /><path style="fill:none;stroke:#fff;stroke-width:2" d="M10,217 l969,0" /><path style="fill:none;stroke:#fff;stroke-width:2" d="M0,337 l988,0" /><path style="fill:none;stroke:#4c4c4c;stroke-width:2" d="M57,359 l900,0" /><path style="fill:none;stroke:#4c4c4c;stroke-width:2" d="M84,373 l825,0 0,8 -2,-6 -823,0 0,-2" /><path style="fill:none;stroke:#4c4c4c;stroke-width:2" d="M84,390 l825,0 0,8 -1,-7 -824,0 0,-1" /><path style="fill:none;stroke:#4c4c4c;stroke-width:2" d="M84,408 l825,0 0,8 -1,-7 -824,0 0,-1" /><path style="fill:none;stroke:#4c4c4c;stroke-width:2" d="M84,424 l825,0 0,8 -1,-7 -824,0" /><path style="fill:none;stroke:#4c4c4c;stroke-width:2" d="M134,251 l295,0 0,58 -295,0 0,-58" /><path style="fill:none;stroke:#4c4c4c;stroke-width:2" d="M134,263 l295,0" /><path style="fill:none;stroke:#4c4c4c;stroke-width:2" d="M134,274 l295,0" /><path style="fill:none;stroke:#4c4c4c;stroke-width:2" d="M134,286 l295,0" /><path style="fill:none;stroke:#4c4c4c;stroke-width:2" d="M134,297 l295,0" /><path style="fill:none;stroke:#4c4c4c;stroke-width:2" d="M203,251 l0,58" /><path style="fill:none;stroke:#4c4c4c;stroke-width:2" d="M205,251 l0,58" /><path style="fill:none;stroke:#4c4c4c;stroke-width:2" d="M249,251 l0,58" /><path style="fill:none;stroke:#4c4c4c;stroke-width:2" d="M293,251 l0,58" /><path style="fill:none;stroke:#4c4c4c;stroke-width:2" d="M338,251 l0,58" /><path style="fill:none;stroke:#4c4c4c;stroke-width:2" d="M382,251 l0,58" /><path style="fill:#000;stroke:#4c4c4c;stroke-width:2" d="M117,255 l10,0 0,5 -10,0 0,-5z" /><path style="fill:#000;stroke:#4c4c4c;stroke-width:2" d="M223,240 l9,0 0,5 -9,0 0,-5z" /><path style="fill:#000;stroke:#4c4c4c;stroke-width:2" d="M268,240 l10,0 0,5 -10,0 0,-5z" /><path style="fill:#000;stroke:#4c4c4c;stroke-width:2" d="M312,240 l10,0 0,5 -10,0 0,-5z" /><path style="fill:#000;stroke:#4c4c4c;stroke-width:2" d="M356,240 l10,0 0,5 -10,0 0,-5z" /><path style="fill:#000;stroke:#4c4c4c;stroke-width:2" d="M400,240 l10,0 0,5 -10,0 0,-5z" /><path style="fill:#000;stroke:#4c4c4c;stroke-width:2" d="M117,278 l10,0 0,5 -10,0 0,-5z" /><path style="fill:#000;stroke:#4c4c4c;stroke-width:2" d="M117,301 l10,0 0,5 -10,0 0,-5z" /><path style="fill:none;stroke:#4c4c4c;stroke-width:2" d="M122,299 l0,-11" /><path style="fill:none;stroke:#4c4c4c;stroke-width:2" d="M122,274 l0,-11" /><path style="fill:none;stroke:#4c4c4c;stroke-width:2" d="M123,268 l4,0" /><path style="fill:none;stroke:#4c4c4c;stroke-width:2" d="M123,293 l4,0" /><path style="fill:none;stroke:#4c4c4c;stroke-width:2" d="M237,243 l24,0" /><path style="fill:none;stroke:#4c4c4c;stroke-width:2" d="M213,257 l21,0" /><path style="fill:none;stroke:#4c4c4c;stroke-width:2" d="M263,257 l18,0" /><path style="fill:none;stroke:#4c4c4c;stroke-width:2" d="M305,257 l19,0" /><path style="fill:none;stroke:#4c4c4c;stroke-width:2" d="M352,257 l19,0" /><path style="fill:none;stroke:#4c4c4c;stroke-width:2" d="M391,257 l28,0" /><path style="fill:#070787;stroke:#4c4c4c;stroke-width:2" d="M463,262 l32,0 2,1 1,0 1,1 1,1 1,2 0,1 0,28 0,2 -1,2 -1,1 -1,1 -2,0 -33,0 -1,0 -2,-1 -1,-1 -1,-1 -1,-2 0,-1 0,-28 0,-2 1,-1 1,-1 2,-1 1,0 1,-1z" /><path style="fill:#0ff;stroke:#4c4c4c;stroke-width:2" d="M794,262 l33,0 1,1 2,0 1,1 1,1 0,2 0,1 0,28 0,2 0,2 -2,1 -1,1 -2,0 -33,0 -1,0 -1,-1 -2,-1 -1,-1 0,-2 0,-1 0,-28 0,-2 0,-1 2,-1 1,-1 2,0 0,-1z" /><path style="fill:#0f0;stroke:#4c4c4c;stroke-width:2" d="M726,262 l43,0 2,1 1,0 2,0 1,1 1,1 1,2 0,1 0,28 0,2 -2,2 -1,1 -1,0 -2,1 -1,0 -1,0 -43,0 -2,0 -2,0 -1,-1 -1,-1 -1,-1 -1,-2 0,-1 0,-28 0,-2 1,-1 2,-1 1,-1 1,0 2,0 1,-1z" /><path style="fill:#070787;stroke:#4c4c4c;stroke-width:2" d="M535,262 l32,0 2,1 1,0 1,1 2,1 0,2 1,1 0,28 -1,2 -1,2 -1,1 -1,1 -1,0 -34,0 -1,0 -2,-1 -1,-1 -1,-1 -1,-2 0,-1 0,-28 0,-2 1,-1 1,-1 2,-1 1,0 1,-1z" /><path style="fill:#0ff;stroke:#4c4c4c;stroke-width:2" d="M860,262 l33,0 1,1 2,0 1,1 1,1 1,2 0,1 0,28 -1,2 0,2 -2,1 -1,1 -2,0 -33,0 -1,0 -2,-1 -1,-1 -1,-1 0,-2 0,-1 0,-28 0,-2 1,-1 1,-1 1,-1 2,0 0,-1z" /><path style="fill:#070787;stroke:#4c4c4c;stroke-width:2" d="M601,262 l32,0 1,1 2,0 1,1 1,1 1,2 0,1 0,28 0,2 -1,2 -1,1 -2,1 -2,0 -32,0 -1,0 -2,-1 -1,-1 -1,-1 -1,-2 0,-1 0,-28 0,-2 1,-1 1,-1 1,-1 2,0 1,-1z" /><path style="fill:#074407;stroke:#4c4c4c;stroke-width:2" d="M926,257 l33,0 1,0 2,1 1,1 1,1 1,2 0,1 0,33 0,1 -1,2 -1,1 -1,1 -2,1 -1,0 -33,0 -1,0 -1,-1 -2,-1 -1,-1 0,-2 0,-1 0,-33 0,-2 1,-2 1,-1 1,0 2,-1 0,0z" /><path style="fill:#000;stroke:#4c4c4c;stroke-width:2" d="M594,246 l45,0 0,5 -45,0 0,-5z" /><path style="fill:none;stroke:#4c4c4c;stroke-width:2" d="M662,242 l0,72" /><path style="fill:#ff8700;stroke:#4c4c4c;stroke-width:2" d="M673,258 l12,0 0,8 -12,0 0,-8z" /><path style="fill:#ff0016;stroke:#4c4c4c;stroke-width:2" d="M673,294 l12,0 0,9 -12,0 0,-9z" /><path style="fill:none;stroke:#4c4c4c;stroke-width:2" d="M688,299 l22,0" /><path style="fill:none;stroke:#4c4c4c;stroke-width:2" d="M688,263 l22,0" /><path style="fill:none;stroke:#4c4c4c;stroke-width:2" d="M746,254 l0,-16 128,0 0,4" /><path style="fill:none;stroke:#4c4c4c;stroke-width:2" d="M811,238 l0,6" /><path style="fill:#000;stroke:#4c4c4c;stroke-width:2" d="M789,246 l110,0 0,6 -110,0 0,-6z" /><path style="fill:#000;stroke:#4c4c4c;stroke-width:2" d="M718,310 l59,0 0,8 -59,0 0,-8z" /><path style="fill:#000;stroke:#4c4c4c;stroke-width:2" d="M789,310 l110,0 0,8 -110,0 0,-8z" /><path style="fill:#000;stroke:#4c4c4c;stroke-width:2" d="M789,324 l43,0 0,8 -43,0 0,-8z" /><path style="fill:#000;stroke:#4c4c4c;stroke-width:2" d="M855,324 l44,0 0,8 -44,0 0,-8z" /><path style="fill:none;stroke:#4c4c4c;stroke-width:2" d="M510,234 l-486,0 -1,0 -2,0 -1,1 -2,1 -1,2 0,1 0,1 -5,82 0,1 1,1 0,2 1,1 2,1 2,1 1,0 491,0 469,0 2,0 1,-1 1,0 2,-2 1,-2 0,-1 0,-1 -4,-81 0,-2 -1,-1 0,-2 -2,-1 -1,-1 -2,0 -1,0 -465,0" /><path style="fill:none;stroke:#fff;stroke-width:2" d="M969,115 l17,99" /><path style="fill:none;stroke:#fff;stroke-width:2" d="M967,109 l-7,-7" /><path style="fill:none;stroke:#fff;stroke-width:2" d="M954,100 l-91,-78" /><path style="fill:none;stroke:#fff;stroke-width:2" d="M915,87 l-74,-73" /><path style="fill:none;stroke:#fff;stroke-width:2" d="M986,229 l2,2 7,101" /></svg>