<!DOCTYPE svg PUBLIC "-//W3C//DTD SVG 20000303 Stylable//EN" "http://www.w3.org/TR/2000/03/WD-SVG-20000303/DTD/svg-20000303-stylable.dtd"[]><svg xmlns="http://www.w3.org/2000/svg" width="999px" height="680px" viewBox="0 0 999 661"><path style="fill:#c1ffc1;stroke:#4c4c4c;stroke-width:2" d="M894,52 l-894,0 0,476 894,0 0,-476z" /><path style="fill:#c1ffc1;stroke:#4c4c4c;stroke-width:2" d="M820,528 l0,53 -433,0 0,-53 433,0z" /><path style="fill:#c1ffc1;stroke:#4c4c4c;stroke-width:2" d="M343,528 l0,53 -299,0 0,-53 299,0z" /><path style="fill:#fff;stroke:#4c4c4c;stroke-width:2" d="M999,0 l-105,0 0,661 30,0 0,-635 75,0 0,-26z" /><path style="fill:#828282;stroke:#4c4c4c;stroke-width:2" d="M89,132 l187,0 0,83 -187,0 0,-83z" /><path style="fill:#828282;stroke:#4c4c4c;stroke-width:2" d="M89,264 l187,0 0,83 -187,0 0,-83z" /><path style="fill:#828282;stroke:#4c4c4c;stroke-width:2" d="M357,132 l187,0 0,83 -187,0 0,-83z" /><path style="fill:#828282;stroke:#4c4c4c;stroke-width:2" d="M357,304 l187,0 0,83 -187,0 0,-83z" /><path style="fill:#828282;stroke:#4c4c4c;stroke-width:2" d="M641,251 l187,0 0,83 -187,0 0,-83z" /><path style="fill:#828282;stroke:#4c4c4c;stroke-width:2" d="M641,132 l187,0 0,83 -187,0 0,-83z" /></svg>