<!DOCTYPE svg PUBLIC "-//W3C//DTD SVG 20000303 Stylable//EN" "http://www.w3.org/TR/2000/03/WD-SVG-20000303/DTD/svg-20000303-stylable.dtd"[]><svg xmlns="http://www.w3.org/2000/svg" width="999px" height="999px" viewBox="0 0 999 999"><path style="fill:#000" d="M30,999 l-5,-1 -5,0 -3,-1 -4,0 -3,-2 -2,-1 -2,-2 -2,-2 -1,-2 -2,-3 0,-4 -1,-3 0,-5 0,-5 0,-5 0,-928 0,-5 0,-5 0,-5 1,-3 0,-4 2,-3 1,-2 2,-2 2,-2 2,-1 3,-2 4,0 3,-1 5,0 5,0 5,0 72,0 0,6 674,0 0,25 23,0 25,-25 62,0 0,-6 24,0 84,83 0,880 0,0 -1,1 0,2 -1,2 0,3 -2,3 -1,3 -2,4 -2,3 -2,3 -3,3 -4,3 -3,2 -5,2 -5,1 -5,1 -928,0z" /><path style="fill:#fff;stroke:#4c4c4c;stroke-width:2" d="M263,356 l-4,-1 -3,-2 -2,-1 -2,-3 -2,-3 0,-3 -1,-5 0,-338 535,0 0,338 0,1 0,2 0,3 -1,3 -2,4 -3,2 -5,2 -6,1 -1,0 0,0 -1,0 -2,0 -2,0 -2,0 -4,0 -4,0 -5,0 -6,0 -7,0 -8,0 -10,0 -11,0 -12,0 -14,0 -16,0 -17,0 -19,0 -22,0 -23,0 -25,0 -27,0 -30,0 -32,0 -35,0 -37,0 -40,0 -42,0 -46,0z" /><path style="fill:#000" d="M553,53 l142,0 0,268 -142,0z" /><path style="fill:none;stroke:#c0c0c0;stroke-width:2" d="M107,17 l0,321 0,5 0,4 2,3 1,2 3,2 3,1 4,1 4,0 125,0" /><path style="fill:none;stroke:#c0c0c0;stroke-width:2" d="M107,999 l0,-554 0,-4 0,-4 2,-3 1,-2 3,-2 3,-2 4,0 4,0 767,0 5,0 4,0 3,2 2,2 2,2 1,3 1,4 0,4 0,554" /><path style="fill:#808080;stroke:#c0c0c0;stroke-width:2" d="M927,891 l36,0 0,36 -36,0z" /><path style="fill:#000;stroke:#c0c0c0;stroke-width:2" d="M35,891 l36,0 0,36 -36,0z" /><path style="fill:#000;stroke:#c0c0c0;stroke-width:2" d="M57,231 l-26,0 0,-63 -14,0 27,-79 27,79 -14,0z" /></svg>