<!DOCTYPE svg PUBLIC "-//W3C//DTD SVG 20000303 Stylable//EN" "http://www.w3.org/TR/2000/03/WD-SVG-20000303/DTD/svg-20000303-stylable.dtd"[]><svg xmlns="http://www.w3.org/2000/svg" width="999px" height="788px" viewBox="0 0 999 776"><path style="fill:#808080;stroke:#4c4c4c;stroke-width:2" d="M0,749 l499,0 0,-749 -499,0 0,749z" /><path style="fill:#808080;stroke:#4c4c4c;stroke-width:2" d="M499,749 l500,0 0,-749 -500,0 0,749z" /><path style="fill:#808080;stroke:#4c4c4c;stroke-width:2" d="M639,257 l125,0 0,-31 -125,0 0,31z" /><path style="fill:none;stroke:#4c4c4c;stroke-width:2" d="M499,30 l406,0 0,687 -406,0" /><path style="fill:#808080;stroke:#4c4c4c;stroke-width:2" d="M421,93 l62,0 0,-78 -62,0 0,78z" /><path style="fill:#808080;fill-rule:evenodd;stroke:#4c4c4c;stroke-width:2" d="M15,374 l15,0 0,-16 -15,0 0,16z M358,702 l32,0 0,-31 -32,0 0,31z M46,702 l297,0 0,-31 -297,0 0,31z M15,687 l15,0 0,-15 -15,0 0,15z M358,639 l32,0 0,-31 -32,0 0,31z M46,639 l297,0 0,-31 -297,0 0,31z M15,625 l15,0 0,-16 -15,0 0,16z M46,452 l250,0 0,-94 -250,0 0,94z M311,452 l79,0 0,-47 -79,0 0,47z M311,390 l79,0 0,-32 -79,0 0,32z " /><path style="fill:none;stroke:#4c4c4c;stroke-width:2" d="M0,30 l405,0 0,687 -405,0" /><path style="fill:none;stroke:#4c4c4c;stroke-width:2" d="M0,218 l405,0" /><path style="fill:none;stroke:#4c4c4c;stroke-width:2" d="M0,280 l405,0" /><path style="fill:none;stroke:#4c4c4c;stroke-width:2" d="M0,155 l405,0" /><path style="fill:none;stroke:#4c4c4c;stroke-width:2" d="M0,343 l405,0" /><path style="fill:none;stroke:#4c4c4c;stroke-width:2" d="M405,468 l-405,0" /><path style="fill:none;stroke:#4c4c4c;stroke-width:2" d="M0,530 l405,0" /><path style="fill:none;stroke:#4c4c4c;stroke-width:2" d="M0,593 l405,0" /><path style="fill:none;stroke:#4c4c4c;stroke-width:2" d="M0,655 l405,0" /><path style="fill:#808080;fill-rule:evenodd;stroke:#4c4c4c;stroke-width:2" d="M514,374 l16,0 0,-16 -16,0 0,16z M546,452 l250,0 0,-94 -250,0 0,94z M811,452 l78,0 0,-47 -78,0 0,47z M811,390 l78,0 0,-32 -78,0 0,32z M858,514 l31,0 0,-31 -31,0 0,31z M546,514 l296,0 0,-31 -296,0 0,31z M514,500 l16,0 0,-16 -16,0 0,16z M858,577 l31,0 0,-31 -31,0 0,31z M546,577 l296,0 0,-31 -296,0 0,31z M514,563 l16,0 0,-16 -16,0 0,16z M858,639 l31,0 0,-31 -31,0 0,31z M546,639 l296,0 0,-31 -296,0 0,31z M514,625 l16,0 0,-16 -16,0 0,16z M858,702 l31,0 0,-31 -31,0 0,31z M546,702 l296,0 0,-31 -296,0 0,31z M514,687 l16,0 0,-15 -16,0 0,15z M920,93 l63,0 0,-78 -63,0 0,78z M514,124 l16,0 0,-16 -16,0 0,16z M553,148 l297,0 0,-24 -297,0 0,24z M671,117 l62,0 0,-16 -62,0 0,16z M514,187 l16,0 0,-16 -16,0 0,16z M639,210 l125,0 0,-31 -125,0 0,31z " /><path style="fill:none;stroke:#4c4c4c;stroke-width:2" d="M499,280 l406,0" /><path style="fill:none;stroke:#4c4c4c;stroke-width:2" d="M499,343 l406,0" /><path style="fill:none;stroke:#4c4c4c;stroke-width:2" d="M905,468 l-406,0" /><path style="fill:none;stroke:#4c4c4c;stroke-width:2" d="M499,530 l406,0" /><path style="fill:none;stroke:#4c4c4c;stroke-width:2" d="M499,593 l406,0" /><path style="fill:none;stroke:#4c4c4c;stroke-width:2" d="M499,655 l406,0" /><path style="fill:none;stroke:#4c4c4c;stroke-width:2" d="M655,108 l94,0" /><path style="fill:none;stroke:#4c4c4c;stroke-width:2" d="M499,93 l406,0" /><path style="fill:none;stroke:#4c4c4c;stroke-width:2" d="M499,155 l406,0" /><path style="fill:#808080" d="M458,755 l0,21 82,0 0,-21z" /></svg>