<!DOCTYPE svg PUBLIC "-//W3C//DTD SVG 20000303 Stylable//EN" "http://www.w3.org/TR/2000/03/WD-SVG-20000303/DTD/svg-20000303-stylable.dtd"[]><svg xmlns="http://www.w3.org/2000/svg" width="674px" height="999px" viewBox="0 0 328 500"><path style="fill:#fff;stroke:#4c4c4c;stroke-width:2" d="M0,125 l328,0 0,375 -328,0 0,-375z" /><circle style="fill:#000;stroke:#4c4c4c;stroke-width:2" cx="164" cy="230" r="55" /><circle style="fill:#b2b2b2" cx="164" cy="230" r="47" /><path style="fill:#7f7f7f" d="M225,230 l-1,-12 -4,-11 -5,-11 -8,-9 -9,-8 -11,-5 -11,-4 -12,-1 0,28 6,1 7,2 5,3 5,4 4,5 3,5 2,7 1,6z" /><path style="fill:#7f7f7f" d="M164,291 l12,-1 11,-4 11,-5 9,-8 8,-9 5,-11 4,-11 1,-12 -28,0 -1,6 -2,7 -3,5 -4,5 -5,4 -5,3 -7,2 -6,1z" /><path style="fill:#7f7f7f" d="M103,230 l1,12 4,11 5,11 8,9 9,8 11,5 11,4 12,1 0,-28 -6,-1 -7,-2 -5,-3 -5,-4 -4,-5 -3,-5 -2,-7 -1,-6z" /><path style="fill:#7f7f7f" d="M164,169 l-12,1 -11,4 -11,5 -9,8 -8,9 -5,11 -4,11 -1,12 28,0 1,-6 2,-7 3,-5 4,-5 5,-4 5,-3 7,-2 6,-1z" /><circle style="fill:#7f7f7f" cx="164" cy="230" r="23" /><path style="fill:#333" d="M202,230 l-3,-15 -9,-11 -12,-8 -14,-3 0,28 4,1 4,2 1,3 1,3z" /><path style="fill:#333" d="M164,268 l14,-3 13,-8 8,-13 3,-14 -28,0 -1,4 -2,3 -3,2 -4,1z" /><path style="fill:#333" d="M127,230 l3,14 8,12 11,9 15,3 0,-28 -3,-1 -3,-1 -2,-4 -1,-4z" /><path style="fill:#333" d="M164,193 l-15,3 -11,8 -8,11 -3,15 28,0 1,-3 2,-3 3,-2 3,-1z" /><path style="fill:#4c4c4c;stroke:#4c4c4c;stroke-width:2" d="M235,230z" /><path style="fill:#4c4c4c" d="M234,243 l-3,11 -6,12 -7,9 -8,9 -10,7 -12,6 -12,3 0,94 117,0 0,-164 -58,0 -1,13z" /><path style="fill:#4c4c4c" d="M94,230z" /><path style="fill:#4c4c4c" d="M95,243 l3,11 6,12 7,9 8,9 10,7 11,6 12,3 1,94 -117,0 -1,-164 59,0 1,13z" /><path style="fill:none;stroke:#4c4c4c;stroke-width:2" d="M235,230 l-1,13 -3,11 -6,12 -7,9 -8,9 -10,7 -12,6 -12,3 0,94 117,0 0,-164 -58,0" /><path style="fill:none;stroke:#4c4c4c;stroke-width:2" d="M94,230" /><path style="fill:none;stroke:#4c4c4c;stroke-width:2" d="M94,230 l1,13 3,11 6,12 7,9 8,9 10,7 11,6 12,3 1,94 -117,0 -1,-164 59,0" /><path style="fill:#e5e5e5" d="M3,497 l17,-18 288,0 0,-334 17,-17 0,369 -322,0z" /><path style="fill:none;stroke:#ccc;stroke-width:2" d="M20,145 l288,0 0,335 -288,0 0,-335" /><path style="fill:#000;stroke:#4c4c4c;stroke-width:2" d="M149,78 l31,0 0,47 -31,0 0,-47z" /><path style="fill:#7f7f7f;stroke:#4c4c4c;stroke-width:2" d="M153,0 l23,0 0,78 -23,0 0,-78z" /></svg>