<!DOCTYPE svg PUBLIC "-//W3C//DTD SVG 20000303 Stylable//EN" "http://www.w3.org/TR/2000/03/WD-SVG-20000303/DTD/svg-20000303-stylable.dtd"[]><svg xmlns="http://www.w3.org/2000/svg" width="488px" height="999px" viewBox="0 0 457 999"><path style="fill:#e5e5cc;stroke:#4c4c4c;stroke-width:2" d="M0,957 l0,-957 457,0 0,957 -457,0z" /><path style="fill:#7f7f66;stroke:#4c4c4c;stroke-width:2" d="M20,957 l0,42 417,0 0,-42 -417,0z" /><path style="fill:#98987f;fill-rule:evenodd" d="M374,915 l42,0 0,-838 -42,0 0,838z M223,915 l11,0 0,-863 182,0 0,-11 -193,0 0,874z M32,915 l144,0 0,-21 -144,0 0,21z M32,874 l144,0 0,-21 -144,0 0,21z M32,832 l144,0 0,-21 -144,0 0,21z M32,790 l144,0 0,-21 -144,0 0,21z M32,749 l144,0 0,-21 -144,0 0,21z M32,707 l144,0 0,-21 -144,0 0,21z M32,666 l144,0 0,-21 -144,0 0,21z M32,624 l144,0 0,-21 -144,0 0,21z M32,582 l144,0 0,-21 -144,0 0,21z M32,72 l61,0 0,-31 -61,0 0,31z " /></svg>