<!DOCTYPE svg PUBLIC "-//W3C//DTD SVG 20000303 Stylable//EN" "http://www.w3.org/TR/2000/03/WD-SVG-20000303/DTD/svg-20000303-stylable.dtd"[]><svg xmlns="http://www.w3.org/2000/svg" width="457px" height="999px" viewBox="0 0 425 999"><path style="fill:#fff;stroke:#4c4c4c;stroke-width:2" d="M0,154 l334,0 0,845 -334,0 0,-845z" /><path style="fill:#fff;stroke:#4c4c4c;stroke-width:2" d="M334,999 l91,-155 0,-844 -334,0 -91,154 334,0 0,845z" /><path style="fill:#fff;stroke:#4c4c4c;stroke-width:2" d="M18,935 l0,-401 0,-135 0,-135 0,-72 0,-22 251,0 0,22 0,72 0,135 0,135 0,401 -251,0z" /><path style="fill:none;stroke:#4c4c4c;stroke-width:2" d="M269,192 l-251,0" /><path style="fill:none;stroke:#4c4c4c;stroke-width:2" d="M174,205 l-137,0" /><path style="fill:none;stroke:#4c4c4c;stroke-width:2" d="M174,214 l-137,0" /><path style="fill:none;stroke:#4c4c4c;stroke-width:2" d="M174,224 l-137,0" /><path style="fill:none;stroke:#4c4c4c;stroke-width:2" d="M174,233 l-137,0" /><path style="fill:none;stroke:#4c4c4c;stroke-width:2" d="M174,242 l-137,0" /><path style="fill:none;stroke:#4c4c4c;stroke-width:2" d="M174,251 l-137,0" /><path style="fill:#00f;stroke:#4c4c4c;stroke-width:2" d="M182,232 l0,-26 69,0 0,26 -69,0z" /><path style="fill:none;stroke:#4c4c4c;stroke-width:2" d="M269,264 l-251,0" /><path style="fill:#00f;stroke:#4c4c4c;stroke-width:2" d="M75,303 l0,-26 176,0 0,26 -176,0z" /><path style="fill:none;stroke:#4c4c4c;stroke-width:2" d="M251,323 l-214,0" /><path style="fill:none;stroke:#4c4c4c;stroke-width:2" d="M251,332 l-214,0" /><path style="fill:none;stroke:#4c4c4c;stroke-width:2" d="M251,342 l-214,0" /><path style="fill:none;stroke:#4c4c4c;stroke-width:2" d="M251,351 l-214,0" /><path style="fill:none;stroke:#4c4c4c;stroke-width:2" d="M251,360 l-214,0" /><path style="fill:none;stroke:#4c4c4c;stroke-width:2" d="M251,369 l-214,0" /><path style="fill:none;stroke:#4c4c4c;stroke-width:2" d="M251,379 l-214,0" /><path style="fill:none;stroke:#4c4c4c;stroke-width:2" d="M269,399 l-251,0" /><path style="fill:#00f;stroke:#4c4c4c;stroke-width:2" d="M75,439 l0,-27 176,0 0,27 -176,0z" /><path style="fill:none;stroke:#4c4c4c;stroke-width:2" d="M251,459 l-214,0" /><path style="fill:none;stroke:#4c4c4c;stroke-width:2" d="M251,468 l-214,0" /><path style="fill:none;stroke:#4c4c4c;stroke-width:2" d="M251,477 l-214,0" /><path style="fill:none;stroke:#4c4c4c;stroke-width:2" d="M251,487 l-214,0" /><path style="fill:none;stroke:#4c4c4c;stroke-width:2" d="M251,496 l-214,0" /><path style="fill:none;stroke:#4c4c4c;stroke-width:2" d="M251,505 l-214,0" /><path style="fill:none;stroke:#4c4c4c;stroke-width:2" d="M251,514 l-214,0" /><path style="fill:none;stroke:#4c4c4c;stroke-width:2" d="M269,534 l-251,0" /><path style="fill:#00f;stroke:#4c4c4c;stroke-width:2" d="M150,574 l0,-26 101,0 0,26 -101,0z" /><path style="fill:none;stroke:#4c4c4c;stroke-width:2" d="M251,651 l-214,0" /><path style="fill:none;stroke:#4c4c4c;stroke-width:2" d="M251,660 l-214,0" /><path style="fill:none;stroke:#4c4c4c;stroke-width:2" d="M251,669 l-214,0" /><path style="fill:none;stroke:#4c4c4c;stroke-width:2" d="M251,679 l-214,0" /><path style="fill:none;stroke:#4c4c4c;stroke-width:2" d="M251,688 l-214,0" /><path style="fill:none;stroke:#4c4c4c;stroke-width:2" d="M251,697 l-214,0" /><path style="fill:none;stroke:#4c4c4c;stroke-width:2" d="M251,706 l-214,0" /><path style="fill:none;stroke:#4c4c4c;stroke-width:2" d="M251,715 l-214,0" /><path style="fill:none;stroke:#4c4c4c;stroke-width:2" d="M251,725 l-214,0" /><path style="fill:none;stroke:#4c4c4c;stroke-width:2" d="M251,734 l-214,0" /><path style="fill:none;stroke:#4c4c4c;stroke-width:2" d="M251,743 l-214,0" /><path style="fill:none;stroke:#4c4c4c;stroke-width:2" d="M251,752 l-214,0" /><path style="fill:none;stroke:#4c4c4c;stroke-width:2" d="M251,762 l-214,0" /><path style="fill:none;stroke:#4c4c4c;stroke-width:2" d="M251,771 l-214,0" /><path style="fill:none;stroke:#4c4c4c;stroke-width:2" d="M251,780 l-214,0" /><path style="fill:none;stroke:#4c4c4c;stroke-width:2" d="M251,789 l-214,0" /><path style="fill:none;stroke:#4c4c4c;stroke-width:2" d="M251,799 l-214,0" /><path style="fill:none;stroke:#4c4c4c;stroke-width:2" d="M251,808 l-214,0" /><path style="fill:none;stroke:#4c4c4c;stroke-width:2" d="M251,817 l-214,0" /><path style="fill:none;stroke:#4c4c4c;stroke-width:2" d="M251,826 l-214,0" /><path style="fill:none;stroke:#4c4c4c;stroke-width:2" d="M251,835 l-214,0" /><path style="fill:none;stroke:#4c4c4c;stroke-width:2" d="M251,844 l-214,0" /><path style="fill:none;stroke:#4c4c4c;stroke-width:2" d="M251,854 l-214,0" /><path style="fill:none;stroke:#4c4c4c;stroke-width:2" d="M251,863 l-214,0" /><path style="fill:none;stroke:#4c4c4c;stroke-width:2" d="M251,872 l-214,0" /><path style="fill:none;stroke:#4c4c4c;stroke-width:2" d="M251,882 l-214,0" /><path style="fill:none;stroke:#4c4c4c;stroke-width:2" d="M251,891 l-214,0" /><path style="fill:none;stroke:#4c4c4c;stroke-width:2" d="M251,900 l-214,0" /><path style="fill:none;stroke:#4c4c4c;stroke-width:2" d="M251,909 l-214,0" /><path style="fill:#fff;stroke:#4c4c4c;stroke-width:2" d="M279,314 l0,-122 0,-22 44,0 0,22 0,122 -44,0z" /><path style="fill:none;stroke:#4c4c4c;stroke-width:2" d="M323,192 l-44,0" /></svg>