<!DOCTYPE svg PUBLIC "-//W3C//DTD SVG 20000303 Stylable//EN" "http://www.w3.org/TR/2000/03/WD-SVG-20000303/DTD/svg-20000303-stylable.dtd"[]><svg xmlns="http://www.w3.org/2000/svg" width="999px" height="527px" viewBox="0 0 999 499"><path style="fill:#063" d="M0,0 l999,0 0,499 -999,0 0,-499z" /><path style="fill:#b2b2b2" d="M915,41 l42,0 0,124 -42,0 0,-124z" /><path style="fill:#b2b2b2" d="M853,41 l42,0 0,124 -42,0 0,-124z" /><path style="fill:#b2b2b2" d="M791,41 l42,0 0,124 -42,0 0,-124z" /><path style="fill:#b2b2b2" d="M729,41 l40,0 0,124 -40,0 0,-124z" /><path style="fill:#fff" d="M915,145 l42,-62 0,-22 -42,62 0,22z" /><path style="fill:#fff" d="M853,145 l42,-62 0,-22 -42,62 0,22z" /><path style="fill:#fff" d="M791,145 l42,-62 0,-22 -42,62 0,22z" /><path style="fill:#fff" d="M729,145 l40,-62 0,-22 -40,62 0,22z" /><path style="fill:none;stroke:#4c4c4c;stroke-width:2" d="M729,165 l40,0 0,-124" /><path style="fill:none;stroke:#4c4c4c;stroke-width:2" d="M791,165 l42,0 0,-124" /><path style="fill:none;stroke:#4c4c4c;stroke-width:2" d="M853,165 l42,0 0,-124" /><path style="fill:none;stroke:#4c4c4c;stroke-width:2" d="M915,165 l42,0 0,-124" /><path style="fill:#000" d="M791,333 l82,0 0,124 -82,0 0,-124z" /><path style="fill:#000" d="M457,291 l84,0 0,124 -84,0 0,-124z" /><path style="fill:#000" d="M373,123 l84,0 0,126 -84,0 0,-126z" /><path style="fill:#000" d="M165,103 l-62,0 0,-84 -84,0 0,126 146,0 0,-42z" /><path style="fill:#000" d="M61,249 l84,0 0,124 -84,0 0,-124z" /><path style="fill:none;stroke:#4c4c4c;stroke-width:2" d="M0,499 l999,0 0,-499" /><path style="fill:none;stroke:#9fc;stroke-width:2" d="M999,0 l-999,0 0,499" /><path style="fill:#fc0" d="M957,227 l22,0 0,22 -22,0 0,-22z" /><path style="fill:#fc0" d="M957,269 l22,0 0,22 -22,0 0,-22z" /><path style="fill:#fc0" d="M915,269 l22,0 0,22 -22,0 0,-22z" /><path style="fill:#fc0" d="M915,227 l22,0 0,22 -22,0 0,-22z" /><path style="fill:#fc0" d="M645,269 l20,0 0,22 -20,0 0,-22z" /><path style="fill:#fc0" d="M645,227 l20,0 0,22 -20,0 0,-22z" /><path style="fill:#fc0" d="M603,227 l20,0 0,22 -20,0 0,-22z" /><path style="fill:#fc0" d="M603,269 l20,0 0,22 -20,0 0,-22z" /><path style="fill:#fc0" d="M333,415 l20,0 0,22 -20,0 0,-22z" /><path style="fill:#fc0" d="M291,373 l20,0 0,22 -20,0 0,-22z" /><path style="fill:#fc0" d="M333,333 l20,0 0,20 -20,0 0,-20z" /><path style="fill:#fc0" d="M333,457 l20,0 0,20 -20,0 0,-20z" /><path style="fill:#fc0" d="M291,457 l20,0 0,20 -20,0 0,-20z" /><path style="fill:#fc0" d="M291,415 l20,0 0,22 -20,0 0,-22z" /><path style="fill:#fc0" d="M333,373 l20,0 0,22 -20,0 0,-22z" /><path style="fill:#fc0" d="M291,333 l20,0 0,20 -20,0 0,-20z" /><path style="fill:#fc0" d="M415,55 l272,0 0,18 -272,0 0,-18z" /><path style="fill:#fc0" d="M415,19 l272,0 0,18 -272,0 0,-18z" /><path style="fill:#fc0" d="M499,92 l188,0 0,17 -188,0 0,-17z" /><path style="fill:#fc0" d="M499,127 l188,0 0,18 -188,0 0,-18z" /><path style="fill:none;stroke:#9fc;stroke-width:2" d="M291,477 l-272,0 0,-332" /><path style="fill:none;stroke:#9fc;stroke-width:2" d="M915,249 l-166,0 0,-84" /><path style="fill:none;stroke:#9fc;stroke-width:2" d="M665,227 l0,-40" /><path style="fill:none;stroke:#9fc;stroke-width:2" d="M457,187 l250,0 0,-146 -20,0" /><path style="fill:none;stroke:#9fc;stroke-width:2" d="M415,41 l-166,0 0,208 124,0" /><path style="fill:none;stroke:#b2b2b2;stroke-width:2" d="M291,353 l-146,0" /><path style="fill:none;stroke:#b2b2b2;stroke-width:2" d="M291,395 l-250,0 0,-250" /><path style="fill:none;stroke:#b2b2b2;stroke-width:2" d="M603,291 l0,166 -146,0 0,-42" /><path style="fill:none;stroke:#b2b2b2;stroke-width:2" d="M979,291 l0,20 -146,0 0,-84 -22,0 0,-62" /><path style="fill:#b2b2b2" d="M165,187 l22,0 0,62 -22,0 0,-62z" /><path style="fill:#b2b2b2" d="M165,333 l0,-22 64,0 0,22 -64,0z" /><path style="fill:#b2b2b2" d="M207,187 l22,0 0,62 -22,0 0,-62z" /><path style="fill:#b2b2b2" d="M165,291 l0,-22 64,0 0,22 -64,0z" /><path style="fill:none;stroke:#033;stroke-width:2" d="M915,291 l-42,0 0,-126" /><path style="fill:none;stroke:#033;stroke-width:2" d="M665,269 l146,0 0,64" /><path style="fill:none;stroke:#033;stroke-width:2" d="M603,249 l-84,0 0,-42 -62,0" /><path style="fill:none;stroke:#033;stroke-width:2" d="M645,291 l0,146 -166,0 0,-22" /><path style="fill:none;stroke:#033;stroke-width:2" d="M291,437 l-208,0 0,-64" /><path style="fill:none;stroke:#033;stroke-width:2" d="M499,103 l-334,0" /><path style="fill:none;stroke:#033;stroke-width:2" d="M415,83 l-146,0 0,82 -208,0 0,-20" /><path style="fill:none;stroke:#7f7f7f;stroke-width:2" d="M457,353 l84,0" /><path style="fill:none;stroke:#7f7f7f;stroke-width:2" d="M373,187 l84,0" /><path style="fill:#ccc" d="M373,291 l42,0 0,42 -42,0 0,-42z" /><path style="fill:#ccc" d="M373,353 l42,0 0,42 -42,0 0,-42z" /><path style="fill:none;stroke:#b2b2b2;stroke-width:2" d="M665,435 l42,0" /><path style="fill:none;stroke:#b2b2b2;stroke-width:2" d="M729,435 l40,0" /><path style="fill:none;stroke:#b2b2b2;stroke-width:2" d="M665,415 l42,0" /><path style="fill:none;stroke:#b2b2b2;stroke-width:2" d="M729,415 l40,0" /><path style="fill:none;stroke:#b2b2b2;stroke-width:2" d="M665,395 l42,0" /><path style="fill:none;stroke:#b2b2b2;stroke-width:2" d="M729,395 l40,0" /><path style="fill:none;stroke:#b2b2b2;stroke-width:2" d="M665,373 l42,0" /><path style="fill:none;stroke:#b2b2b2;stroke-width:2" d="M729,373 l40,0" /><path style="fill:none;stroke:#b2b2b2;stroke-width:2" d="M665,353 l42,0" /><path style="fill:none;stroke:#b2b2b2;stroke-width:2" d="M729,353 l40,0" /><path style="fill:none;stroke:#b2b2b2;stroke-width:2" d="M665,333 l42,0" /><path style="fill:none;stroke:#b2b2b2;stroke-width:2" d="M729,333 l40,0" /><path style="fill:none;stroke:#b2b2b2;stroke-width:2" d="M665,311 l42,0" /><path style="fill:none;stroke:#b2b2b2;stroke-width:2" d="M729,311 l40,0" /><path style="fill:none;stroke:#b2b2b2;stroke-width:2" d="M665,291 l42,0" /><path style="fill:none;stroke:#b2b2b2;stroke-width:2" d="M729,291 l40,0" /></svg>