<!DOCTYPE svg PUBLIC "-//W3C//DTD SVG 20000303 Stylable//EN" "http://www.w3.org/TR/2000/03/WD-SVG-20000303/DTD/svg-20000303-stylable.dtd"[]><svg xmlns="http://www.w3.org/2000/svg" width="999px" height="423px" viewBox="0 0 998 389"><path style="fill:#828282" d="M998,387 l0,-2 0,-2 0,-4 0,-4 0,-5 0,-5 0,-5 0,-7 0,-7 0,-7 0,-8 0,-7 0,-8 0,-7 0,-9 0,-8 0,-9 0,-8 0,-8 0,-8 0,-8 0,-8 0,-6 0,-8 0,-7 0,-6 0,-5 0,-5 0,-5 0,-3 0,-4 -998,0 0,3 0,2 0,4 0,5 0,5 0,6 0,7 0,7 0,7 0,9 0,8 0,9 0,9 0,9 0,10 0,9 0,9 0,9 0,9 0,8 0,8 0,7 0,7 0,7 0,5 0,6 0,4 0,2 0,3 0,1 998,0 0,-1z" /><path style="fill:#000" d="M998,385 l0,2 0,-2z" /><path style="fill:#000" d="M998,383 l0,2 0,-2z" /><path style="fill:#000" d="M998,379 l0,4 0,-4z" /><path style="fill:#000" d="M998,375 l0,4 0,-4z" /><path style="fill:#000" d="M998,370 l0,5 0,-5z" /><path style="fill:#000" d="M998,365 l0,5 0,-5z" /><path style="fill:#000" d="M998,360 l0,5 0,-5z" /><path style="fill:#000" d="M998,353 l0,7 0,-7z" /><path style="fill:#000" d="M998,346 l0,7 0,-7z" /><path style="fill:#000" d="M998,339 l0,7 0,-7z" /><path style="fill:#000" d="M998,331 l0,8 0,-8z" /><path style="fill:#000" d="M998,324 l0,7 0,-7z" /><path style="fill:#000" d="M998,316 l0,8 0,-8z" /><path style="fill:#000" d="M998,309 l0,7 0,-7z" /><path style="fill:#000" d="M998,300 l0,9 0,-9z" /><path style="fill:#000" d="M998,292 l0,8 0,-8z" /><path style="fill:#000" d="M998,283 l0,9 0,-9z" /><path style="fill:#000" d="M998,275 l0,8 0,-8z" /><path style="fill:#000" d="M998,267 l0,8 0,-8z" /><path style="fill:#000" d="M998,259 l0,8 0,-8z" /><path style="fill:#000" d="M998,251 l0,8 0,-8z" /><path style="fill:#000" d="M998,243 l0,8 0,-8z" /><path style="fill:#000" d="M998,237 l0,6 0,-6z" /><path style="fill:#000" d="M998,229 l0,8 0,-8z" /><path style="fill:#000" d="M998,222 l0,7 0,-7z" /><path style="fill:#000" d="M998,216 l0,6 0,-6z" /><path style="fill:#000" d="M998,211 l0,5 0,-5z" /><path style="fill:#000" d="M998,206 l0,5 0,-5z" /><path style="fill:#000" d="M998,201 l0,5 0,-5z" /><path style="fill:#000" d="M998,198 l0,3 0,-3z" /><path style="fill:#000" d="M998,195 l0,-1 0,4 0,-4 0,0 0,0 0,0z" /><path style="fill:#000" d="M0,194 l0,1 998,0 0,-1 -998,0 0,0 0,0 0,0z" /><path style="fill:#000" d="M0,194 l0,0 0,0z" /><path style="fill:#000" d="M0,194 l0,0 0,0z" /><path style="fill:#000" d="M0,197 l0,-3 0,3z" /><path style="fill:#000" d="M0,199 l0,-2 0,2z" /><path style="fill:#000" d="M0,203 l0,-4 0,4z" /><path style="fill:#000" d="M0,208 l0,-5 0,5z" /><path style="fill:#000" d="M0,213 l0,-5 0,5z" /><path style="fill:#000" d="M0,219 l0,-6 0,6z" /><path style="fill:#000" d="M0,226 l0,-7 0,7z" /><path style="fill:#000" d="M0,233 l0,-7 0,7z" /><path style="fill:#000" d="M0,240 l0,-7 0,7z" /><path style="fill:#000" d="M0,249 l0,-9 0,9z" /><path style="fill:#000" d="M0,257 l0,-8 0,8z" /><path style="fill:#000" d="M0,266 l0,-9 0,9z" /><path style="fill:#000" d="M0,275 l0,-9 0,9z" /><path style="fill:#000" d="M0,284 l0,-9 0,9z" /><path style="fill:#000" d="M0,294 l0,-10 0,10z" /><path style="fill:#000" d="M0,303 l0,-9 0,9z" /><path style="fill:#000" d="M0,312 l0,-9 0,9z" /><path style="fill:#000" d="M0,321 l0,-9 0,9z" /><path style="fill:#000" d="M0,330 l0,-9 0,9z" /><path style="fill:#000" d="M0,338 l0,-8 0,8z" /><path style="fill:#000" d="M0,346 l0,-8 0,8z" /><path style="fill:#000" d="M0,353 l0,-7 0,7z" /><path style="fill:#000" d="M0,360 l0,-7 0,7z" /><path style="fill:#000" d="M0,367 l0,-7 0,7z" /><path style="fill:#000" d="M0,372 l0,-5 0,5z" /><path style="fill:#000" d="M0,378 l0,-6 0,6z" /><path style="fill:#000" d="M0,382 l0,-4 0,4z" /><path style="fill:#000" d="M0,384 l0,-2 0,2z" /><path style="fill:#000" d="M0,387 l0,-3 0,3z" /><path style="fill:#000" d="M0,387 l0,1 0,-1 0,1 0,1 0,-1 0,1z" /><path style="fill:#000" d="M998,388 l0,-1 -998,0 0,2 998,0 0,-1 0,1 0,-1z" /><path style="fill:#000" d="M998,387 l0,1 0,-1z" /><path style="fill:#c1c1c1" d="M967,213 l0,154 -936,0 0,-154 936,0z" /><path style="fill:#000" d="M967,368 l0,-1 0,-154 0,154 0,0 0,1 0,-1z" /><path style="fill:#000" d="M31,367 l0,1 936,0 0,-1 -936,0 0,0 0,1z" /><path style="fill:#000" d="M31,213 l0,0 0,154 0,-154 0,1 0,-1 0,0z" /><path style="fill:#000" d="M967,213 l0,0 -936,0 0,1 936,0 0,-1 0,0z" /><path style="fill:#000" d="M967,146 l0,-1 -936,0 0,1 936,0 0,-1z" /><path style="fill:#000" d="M874,1 l93,145 0,-1 -93,-145z" /><path style="fill:#000" d="M124,1 l750,0 0,-1 -750,0z" /><path style="fill:#000" d="M31,145 l0,1 93,-145 0,-1 -93,145 0,1z" /><path style="fill:#828282" d="M0,194 l998,0 -31,-49 -936,0 -31,49z" /><path style="fill:#000" d="M998,195 l0,-1 -998,0 0,1 998,0 0,-1z" /><path style="fill:#000" d="M967,146 l31,49 0,-1 -31,-49z" /><path style="fill:#000" d="M31,146 l936,0 0,-1 -936,0z" /><path style="fill:#000" d="M0,194 l0,1 31,-49 0,-1 -31,49 0,1z" /><ellipse style="fill:#f00;stroke:#4c4c4c;stroke-width:2" cx="177" cy="298" rx="31" ry="20" /><ellipse style="fill:#f00;stroke:#4c4c4c;stroke-width:2" cx="309" cy="298" rx="30" ry="20" /><ellipse style="fill:#f00;stroke:#4c4c4c;stroke-width:2" cx="434" cy="298" rx="30" ry="20" /><ellipse style="fill:#f00;stroke:#4c4c4c;stroke-width:2" cx="567" cy="298" rx="31" ry="20" /><ellipse style="fill:#f00;stroke:#4c4c4c;stroke-width:2" cx="682" cy="298" rx="30" ry="20" /><ellipse style="fill:#f00;stroke:#4c4c4c;stroke-width:2" cx="804" cy="298" rx="31" ry="20" /></svg>