<!DOCTYPE svg PUBLIC "-//W3C//DTD SVG 20000303 Stylable//EN" "http://www.w3.org/TR/2000/03/WD-SVG-20000303/DTD/svg-20000303-stylable.dtd"[]><svg xmlns="http://www.w3.org/2000/svg" width="999px" height="933px" viewBox="0 0 997 928"><path style="fill:#000;stroke:#4c4c4c;stroke-width:2" d="M657,917 l3,-1 3,-1 23,-31 28,-42 39,-69 1,0 18,-24 29,-8 8,-3 4,-6 1,-6 25,-33 26,-35 54,-74 32,-46 6,-44 -4,4 5,-90 7,-7 2,-29 -5,4 8,-98 6,-5 4,-42 -1,-13 -3,-5 -4,-2 -45,-32 -13,-79 -36,-21 -3,-5 -6,-5 -2,-1 -1,0 -22,-2 -22,-2 -88,-7 -90,-7 -90,-7 -90,-8 -90,-7 -89,-7 -88,-7 -43,-3 -67,8 -16,2 -1,0 -14,3 -9,8 -3,10 -29,552 2,10 6,10 7,7 7,4 10,3 42,11 -2,40 1,13 3,7 8,4 167,38 -32,32 -25,30 -7,12 -8,-13 10,-12 35,-40 -11,-4 -132,-30 -8,-3 -6,-4 -5,-7 -3,-9 0,-42 -33,-9 -10,-3 -7,-4 -10,-8 -8,-11 -4,-8 -2,-14 31,-561 3,-7 1,-3 4,-6 7,-4 3,-2 30,-4 78,-7 44,3 45,3 88,7 89,6 88,7 88,7 89,6 88,7 67,5 22,2 63,36 14,84 55,37 -7,73 -6,4 -5,62 4,9 -5,54 -6,6 -3,51 7,-1 -8,73 -94,128 -45,64 -4,12 -45,16 -22,32 -47,78 -34,48 -11,7 -7,2 -11,0 -101,-8 -35,-3 -47,-6 -36,-6 -20,-3 -45,-9 -67,-13 -20,-5 -26,-7 -28,-7 -18,-6 -23,-6 7,-39 5,-8 7,12 -1,3 -2,11 -1,11 14,4 37,11 39,10 34,8 48,10 43,7 51,8 49,6 115,12 26,2 4,0z" /><path style="fill:#fff;stroke:#4c4c4c;stroke-width:2" d="M789,79 l-719,-58 -14,3 -9,8 -3,10 -29,552 2,10 6,10 7,7 7,4 10,3 42,11 570,115 9,1 53,5 11,-2 8,-13 55,-614 2,-15 3,-19 -3,-8 -4,-5 -3,-3 -1,-2z" /><path style="fill:#0080ff;stroke:#4c4c4c;stroke-width:2" d="M790,81 l3,3 4,5 3,8 8,-2 -3,-7 -8,-7 -2,-3 -6,1 1,2z" /><path style="fill:#e0e0e0;stroke:#4c4c4c;stroke-width:2" d="M805,88 l-8,-7 -2,-3 72,-10 2,1 6,5 3,5 -70,16 -3,-7z" /><path style="fill:#e0e0e0;stroke:#4c4c4c;stroke-width:2" d="M749,742 l-3,6 -3,8 29,-7 29,-8 8,-3 4,-6 1,-6 66,-638 -2,-9 -70,16 -59,647z" /><path style="fill:#e0e0e0;stroke:#4c4c4c;stroke-width:2" d="M972,211 l-45,-32 -13,-79 -36,-21 2,9 -66,638 137,-188 6,-44 -4,4 5,-90 7,-7 2,-29 -5,4 0,-1 8,-97 -1,0 7,-5 4,-42 -1,-13 -3,-5 -4,-2z" /><path style="fill:#e0e0e0;stroke:#4c4c4c;stroke-width:2" d="M970,278 l-8,97 -49,30 10,-102 46,-25 1,0z" /><path style="fill:#e0e0e0;stroke:#4c4c4c;stroke-width:2" d="M953,498 l5,-90 -49,37 -9,94 53,-41z" /><path style="fill:#fff;stroke:#4c4c4c;stroke-width:2" d="M654,826 l5,-72 -570,-115 -2,40 1,13 3,7 8,4 268,61 185,41 102,21z" /><path style="fill:#e0e0e0;stroke:#4c4c4c;stroke-width:2" d="M800,97 l-5,34 -55,614 -4,6 -1,4 -3,3 11,-2 3,-8 3,-6 59,-647 -8,2z" /><path style="fill:#e0e0e0;stroke:#4c4c4c;stroke-width:2" d="M662,825 l6,-70 -9,-1 -5,72 8,-1z" /><path style="fill:#000;stroke:#4c4c4c;stroke-width:2" d="M604,781 l-8,-1 -4,-1 -3,1 -2,3 -1,16 1,4 3,2 4,2 2,-20 5,-3 39,7 0,-1 -1,-2 -5,-2 -30,-5z" /><path style="fill:#ff2400;stroke:#4c4c4c;stroke-width:2" d="M640,791 l-39,-7 -5,3 38,6 6,-2z" /><path style="fill:#ff2400;stroke:#4c4c4c;stroke-width:2" d="M640,790 l-1,21 -6,4 1,-22 6,-2 0,-1z" /><path style="fill:#fff;stroke:#4c4c4c;stroke-width:2" d="M367,764 l173,39 12,2 -8,4 -17,2 -18,2 -27,-2 -20,-3 -22,-6 -18,-6 -16,-7 -21,-11 -15,-12 -3,-2z" /><path style="fill:#bf0000;stroke:#4c4c4c;stroke-width:2" d="M634,793 l-1,22 -19,-4 -20,-4 2,-20 38,6z" /><path style="fill:#e0e0e0;stroke:#4c4c4c;stroke-width:2" d="M773,749 l-30,6 -11,3 -11,2 -53,-5 -6,70 22,-9 29,-12 10,-5 10,-8 21,-18 19,-24z" /><path style="fill:#fff;stroke:#4c4c4c;stroke-width:2" d="M266,741 l-31,32 -26,30 -3,5 -4,6 31,10 59,16 16,3 62,14 65,11 10,2 66,8 16,2 20,3 67,5 40,4 7,0 5,-4 18,-25 34,-55 5,-9 -10,5 -21,9 -8,3 -7,4 -15,5 -8,1 -102,-21 -8,4 -17,2 -18,2 -27,-2 -20,-3 -22,-6 -18,-6 -16,-7 -21,-11 -18,-14 -101,-23z" /><path style="fill:#e0e0e0;stroke:#4c4c4c;stroke-width:2" d="M654,892 l-1,25 4,0 3,-1 1,-24 -7,0z" /><path style="fill:#fff;stroke:#4c4c4c;stroke-width:2" d="M202,814 l31,10 59,16 16,3 62,14 65,11 10,2 66,8 16,2 20,3 67,5 40,4 -1,25 -26,-2 -115,-12 -49,-6 -51,-8 -43,-7 -48,-10 -34,-8 -39,-10 -37,-11 -14,-4 1,-11 2,-11 1,-2 1,-1z" /><path style="fill:#e0e0e0;stroke:#4c4c4c;stroke-width:2" d="M661,892 l5,-4 18,-25 34,-55 5,-9 10,-8 21,-18 -42,72 -23,35 -26,35 -3,1 1,-24z" /><path style="fill:#e0e0e0;stroke:#4c4c4c;stroke-width:2" d="M789,79 l77,-11 -22,-2 -22,-2 -44,-3 -44,-4 -45,-3 -45,-4 -45,-4 -45,-3 -45,-4 -45,-4 -45,-4 -45,-3 -45,-4 -44,-3 -44,-4 -44,-3 -43,-3 -67,8 -17,2 242,20 477,38z" /><path style="fill:#0080ff;stroke:#4c4c4c;stroke-width:2" d="M88,80 l20,33 4,-5 6,-7 10,-5 10,-4 15,-4 118,-2 -165,-12 -10,2 -8,4z" /><path style="fill:#c0c0c0;stroke:#4c4c4c;stroke-width:2" d="M84,445 l1,29 -1,66 4,14 6,10 -41,17 -1,-4 0,-10 3,-64 4,-61 5,-81 3,-44 9,-213 5,-14 4,-7 3,-3 20,33 -5,12 -5,16 -4,40 -3,39 -5,74 -1,47 -1,38 1,31 -1,35z" /><path style="fill:#c0c0c0;stroke:#4c4c4c;stroke-width:2" d="M102,570 l9,6 15,5 69,24 28,8 32,10 63,16 58,12 58,12 66,9 54,6 40,3 86,5 6,-2 6,-4 4,-7 5,-52 4,-62 3,-20 5,-69 31,-332 0,-1 4,2 2,4 -48,552 -5,8 -4,8 -7,5 -8,3 -15,0 -16,-3 -23,-3 -126,-19 -43,-8 -101,-17 -70,-16 -54,-12 -29,-7 -40,-10 -71,-20 -18,-7 -8,-3 -10,-10 -1,-3 41,-17 8,6z" /><path style="fill:#00f;stroke:#4c4c4c;stroke-width:2" d="M103,124 l6,-11 3,-5 6,-7 10,-5 10,-4 14,-4 120,-2 101,6 121,10 112,10 119,16 10,3 5,3 4,4 -31,332 -5,69 -3,20 -4,62 -5,52 -4,7 -6,4 -6,2 -86,-5 -40,-3 -54,-6 -66,-9 -58,-12 -58,-12 -63,-16 -32,-10 -28,-8 -69,-24 -15,-5 -9,-6 -8,-6 -6,-10 -4,-13 1,-57 -1,-69 1,-5 -1,-31 1,-38 1,-47 5,-74 3,-39 4,-40 5,-17z" /></svg>