<!DOCTYPE svg PUBLIC "-//W3C//DTD SVG 20000303 Stylable//EN" "http://www.w3.org/TR/2000/03/WD-SVG-20000303/DTD/svg-20000303-stylable.dtd"[]><svg xmlns="http://www.w3.org/2000/svg" width="576px" height="999px" viewBox="0 0 550 999"><path style="fill:#fff" d="M550,830 l-22,0 9,-3 13,-8 0,11z" /><path style="fill:#fff" d="M25,830 l-25,0 0,-11 12,6 13,5z" /><path style="fill:#f7f7f7" d="M550,830 l0,12 -49,0 6,-3 15,-6 6,-3 22,0z" /><path style="fill:#f7f7f7" d="M25,830 l14,6 15,4 5,2 -59,0 0,-12 25,0z" /><path style="fill:#efefef" d="M550,842 l0,11 -86,0 11,-3 16,-5 10,-3 49,0z" /><path style="fill:#efefef" d="M59,842 l11,3 16,4 15,4 -101,0 0,-11 59,0z" /><path style="fill:#e8e8e8" d="M550,853 l0,11 -140,0 13,-2 18,-3 17,-4 6,-2 86,0z" /><path style="fill:#e8e8e8" d="M101,853 l2,0 17,4 18,3 18,3 8,1 -164,0 0,-11 101,0z" /><ellipse style="fill:#e0e0e0" cx="275" cy="869" rx="275" ry="5" /><path style="fill:#d6d6d6" d="M550,875 l0,11 -550,0 0,-11 550,0z" /><path style="fill:#cecece" d="M550,886 l0,12 -550,0 0,-12 550,0z" /><path style="fill:#c4c4c4" d="M550,898 l0,11 -550,0 0,-11 550,0z" /><path style="fill:#bcbcbc" d="M550,909 l0,11 -550,0 0,-11 550,0z" /><path style="fill:#b5b5b5" d="M550,920 l0,11 -550,0 0,-11 550,0z" /><path style="fill:#adadad" d="M550,931 l0,11 -2,0 -546,0 -2,0 0,-11 550,0z" /><path style="fill:#a3a3a3" d="M548,942 l-22,7 -18,5 -464,0 -19,-5 -23,-7 546,0z" /><path style="fill:#9b9b9b" d="M508,954 l-5,1 -22,6 -14,4 -381,0 -14,-4 -23,-6 -5,-1 464,0z" /><path style="fill:#919191" d="M467,965 l-6,2 -20,5 -16,4 -295,0 -17,-4 -20,-5 -7,-2 381,0z" /><path style="fill:#898989" d="M425,976 l-2,0 -17,5 -16,3 -14,3 -196,0 -14,-3 -17,-3 -18,-5 -1,0 295,0z" /><ellipse style="fill:#828282" cx="278" cy="993" rx="98" ry="6" /><path style="fill:#828282" d="M279,438 l0,1 -1,13 9,0 1,-12 0,1 -9,-3 0,1 0,0z" /><path style="fill:#828282" d="M283,426 l-1,0 -3,12 9,3 4,-12 0,1z" /><path style="fill:#828282" d="M289,413 l-1,1 -5,12 9,4 5,-12 0,1z" /><path style="fill:#828282" d="M297,401 l-1,1 -7,11 8,6 8,-12 -1,1z" /><path style="fill:#828282" d="M306,390 l0,0 -9,11 7,7 10,-12 -1,1z" /><path style="fill:#828282" d="M317,378 l0,1 -11,11 7,7 11,-11 0,0z" /><path style="fill:#828282" d="M329,367 l0,1 -12,10 7,8 12,-11 0,0z" /><path style="fill:#828282" d="M342,356 l0,0 -13,11 7,8 13,-11 0,0z" /><path style="fill:#828282" d="M356,346 l-14,10 7,8 13,-11z" /><path style="fill:#828282" d="M369,335 l-13,11 6,7 14,-11z" /><path style="fill:#828282" d="M383,323 l-14,12 7,7 14,-11z" /><path style="fill:#828282" d="M397,312 l0,0 -14,11 7,8 13,-11 0,0z" /><path style="fill:#828282" d="M410,301 l0,0 -13,11 6,8 14,-11 0,0z" /><path style="fill:#828282" d="M423,290 l0,0 -13,11 7,8 12,-12 1,0z" /><path style="fill:#828282" d="M434,279 l1,-1 -12,12 7,7 11,-12 1,0z" /><path style="fill:#828282" d="M444,267 l1,0 -11,12 8,6 10,-12 0,0z" /><path style="fill:#828282" d="M453,255 l0,0 -9,12 8,6 9,-13 1,0z" /><path style="fill:#828282" d="M460,243 l1,-1 -8,13 9,5 7,-13 0,0z" /><path style="fill:#828282" d="M465,231 l1,-1 -6,13 9,4 6,-13 0,-1z" /><path style="fill:#828282" d="M468,218 l1,-1 -4,14 10,2 3,-14 0,-1 0,1 0,0 0,-1z" /><path style="fill:#828282" d="M469,205 l0,-1 -1,14 10,0 1,-14 0,-1 0,1 0,0 0,-1z" /><path style="fill:#828282" d="M467,191 l0,-1 2,15 10,-2 -2,-14 0,-1 0,1 0,-1 0,0z" /><path style="fill:#828282" d="M462,177 l0,-1 5,15 10,-3 -6,-15 0,-1z" /><path style="fill:#828282" d="M454,161 l0,0 8,16 9,-5 -8,-16 -1,0z" /><path style="fill:#828282" d="M443,145 l-1,0 12,16 8,-5 -11,-17 -1,0z" /><path style="fill:#828282" d="M428,128 l-1,0 16,17 7,-6 -15,-18 -1,0z" /><path style="fill:#828282" d="M408,111 l0,-1 20,18 6,-7 -20,-18 0,0z" /><path style="fill:#828282" d="M384,92 l0,0 24,19 6,-8 -24,-19 0,0z" /><path style="fill:#828282" d="M356,72 l-1,0 29,20 6,-8 -29,-20 0,0z" /><path style="fill:#828282" d="M322,52 l0,0 34,20 5,-8 -34,-21 0,0z" /><path style="fill:#828282" d="M284,31 l0,0 38,21 5,-9 -38,-21 -1,0z" /><path style="fill:#828282" d="M242,4 l-2,4 44,23 4,-9 -44,-22 -2,4z" /><path style="fill:#fff;stroke:#4c4c4c;stroke-width:2" d="M237,535 l13,-92 62,3 19,89 -94,0z" /><path style="fill:none;stroke:#4c4c4c;stroke-width:2" d="M28,647 l504,0" /><path style="fill:none;stroke:#4c4c4c;stroke-width:2" d="M196,647 l0,-115" /><path style="fill:none;stroke:#4c4c4c;stroke-width:2" d="M375,647 l0,-115" /><path style="fill:none;stroke:#4c4c4c;stroke-width:2" d="M550,942 l-25,6 -23,6 -22,6 -20,6 -20,4 -18,5 -17,4 -17,4 -15,3 -15,3 -14,2 -14,2 -14,2 -13,1 -13,1 -12,0 -13,0 -13,-1 -14,0 -13,-2 -14,-2 -15,-2 -15,-3 -16,-3 -16,-4 -18,-4 -19,-5 -19,-5 -22,-5 -22,-6 -24,-6 -25,-7 0,-118 30,-226 1,-4 1,-5 0,-4 1,-4 1,-3 1,-4 1,-3 1,-4 1,-3 2,-3 1,-2 1,-3 2,-2 2,-2 1,-2 2,-2 2,-2 2,-2 3,-1 2,-1 2,-1 3,-1 3,-2 2,0 3,-1 3,-1 4,0 3,-1 4,0 3,0 4,0 4,0 358,1 4,0 4,0 3,0 4,1 3,0 3,0 3,1 3,1 3,1 3,0 2,1 3,2 2,1 2,1 2,2 2,2 2,1 2,3 2,2 1,2 2,2 1,3 1,3 2,3 1,3 1,3 1,4 1,4 1,4 0,4 1,4 1,4 30,226 0,118" /></svg>