<!DOCTYPE svg PUBLIC "-//W3C//DTD SVG 20000303 Stylable//EN" "http://www.w3.org/TR/2000/03/WD-SVG-20000303/DTD/svg-20000303-stylable.dtd"[]><svg xmlns="http://www.w3.org/2000/svg" width="999px" height="651px" viewBox="0 0 999 631"><path style="fill:#ff0;stroke:#4c4c4c;stroke-width:2" d="M299,560 l25,-26 4,1 36,5 35,4 3,0 35,3 50,2 62,0 41,-2 29,-2 11,-1 40,-4 20,24 2,3 -30,5 -46,5 -49,2 -55,1 -40,-1 -30,-1 -30,-1 -37,-4 -43,-6 -33,-7z" /><path style="fill:#000;stroke:#4c4c4c;stroke-width:2" d="M0,495 l0,-65 43,-23 14,13 83,42 10,10 62,20 102,-77 32,14 0,55 -141,135 -205,-124z" /><path style="fill:#000;stroke:#4c4c4c;stroke-width:2" d="M663,430 l23,-9 2,1 63,51 6,5 3,2 8,7 12,9 7,5 59,-16 4,-1 15,-13 28,-14 59,-31 7,-6 40,23 0,60 -3,2 -79,48 -55,32 -44,26 -31,18 -2,2 -2,-2 -17,-18 -36,-36 -50,-51 -25,-27 -2,-2 0,-60 10,-5z" /><path style="fill:#000;stroke:#4c4c4c;stroke-width:2" d="M13,255 l0,119 49,41 83,43 8,9 57,19 9,-53 0,-137 98,-44 1,23 -1,23 0,17 -3,21 -3,16 -5,14 -5,7 -9,10 -13,12 -13,10 -22,14 -25,14 -9,53 135,-101 0,-171 -61,-10 -58,23 -104,-10 -109,38z" /><path style="fill:#000;stroke:#4c4c4c;stroke-width:2" d="M989,257 l-97,-32 -109,9 -60,-25 -63,11 0,168 128,106 -5,-54 -51,-30 -14,-12 -12,-11 -3,-4 -5,-6 -2,-3 -1,-4 -2,-4 -3,-16 -2,-19 0,-38 2,-18 1,-13 0,-3 92,43 0,138 5,54 59,-17 13,-11 94,-48 35,-31 0,-130z" /><path style="fill:#ff0;stroke:#4c4c4c;stroke-width:2" d="M617,174 l0,13 9,0 35,4 29,4 30,6 13,3 21,5 14,3 12,4 17,8 39,-2 -13,-7 -9,-3 -18,-7 -26,-6 -42,-9 -43,-8 -32,-5 -24,-2 -12,-1z" /><path style="fill:#ff0;stroke:#4c4c4c;stroke-width:2" d="M175,210 l2,-1 19,-5 33,-9 27,-6 30,-5 36,-5 18,-3 5,-1 36,-3 11,0 0,12 -22,1 -43,5 -38,5 -24,5 -26,6 -28,8 -36,-4z" /><path style="fill:#000;stroke:#4c4c4c;stroke-width:2" d="M477,123 l-13,0 -46,-16 0,-80 96,-6 26,-21 39,0 0,117 -42,6 0,6 37,0 25,20 0,56 -190,0 0,-58 28,-18 40,0 0,-6z" /><path style="fill:#0ff;stroke:#4c4c4c;stroke-width:2" d="M783,440 l0,-138 -92,-43 0,3 -1,13 -2,18 0,38 2,19 3,16 2,4 1,4 2,3 5,6 3,4 12,11 14,12 51,30z" /><path style="fill:#0ff;stroke:#4c4c4c;stroke-width:2" d="M219,433 l25,-14 22,-14 13,-10 13,-12 9,-10 5,-7 5,-14 3,-16 3,-21 0,-17 1,-23 -1,-23 -98,44 0,137z" /></svg>