<!DOCTYPE svg PUBLIC "-//W3C//DTD SVG 20000303 Stylable//EN" "http://www.w3.org/TR/2000/03/WD-SVG-20000303/DTD/svg-20000303-stylable.dtd"[]><svg xmlns="http://www.w3.org/2000/svg" width="822px" height="999px" viewBox="0 0 812 999"><path style="fill:#7f7f7f;stroke:#4c4c4c;stroke-width:2" d="M0,749 l812,0 0,218 -812,0 0,-218z" /><path style="fill:#7f7f7f;stroke:#4c4c4c;stroke-width:2" d="M140,561 l531,0 0,188 -531,0 0,-188z" /><path style="fill:#7f7f7f;stroke:#4c4c4c;stroke-width:2" d="M93,499 l156,0 0,62 -156,0 0,-62z" /><path style="fill:#7f7f7f;stroke:#4c4c4c;stroke-width:2" d="M250,499 l257,0 0,62 -257,0 0,-62z" /><path style="fill:#7f7f7f;stroke:#4c4c4c;stroke-width:2" d="M507,499 l55,0 0,62 -55,0 0,-62z" /><path style="fill:#7f7f7f;stroke:#4c4c4c;stroke-width:2" d="M562,499 l156,0 0,62 -156,0 0,-62z" /><path style="fill:#7f7f7f;stroke:#4c4c4c;stroke-width:2" d="M718,499 l-625,0 0,-499 625,0 0,499z" /><path style="fill:#fff;stroke:#4c4c4c;stroke-width:2" d="M491,655 l149,0 0,55 -149,0 0,-55z" /><path style="fill:#fff;stroke:#4c4c4c;stroke-width:2" d="M640,623 l-149,0 0,-31 149,0 0,31z" /><path style="fill:#fff;stroke:#4c4c4c;stroke-width:2" d="M640,655 l-149,0 0,-31 149,0 0,31z" /><path style="fill:#000;stroke:#4c4c4c;stroke-width:2" d="M0,967 l812,0 0,32 -812,0 0,-32z" /><path style="fill:#000" d="M671,569 l0,-7 -531,0 0,14 531,0 0,-7z" /><path style="fill:#000;stroke:#4c4c4c;stroke-width:2" d="M156,61 l500,0 0,375 -500,0 0,-375z" /><path style="fill:#00f" d="M163,69 l485,0 0,359 -485,0 0,-359z" /><path style="fill:#fff" d="M585,414 l16,-5 10,-2 6,-3 4,-2 3,-4 2,-7 3,-10 5,-15 0,6 1,7 0,8 1,7 0,7 0,5 -1,5 -1,3 -3,2 -5,1 -6,0 -7,-1 -7,0 -7,-1 -7,-1 -7,0z" /><path style="fill:#fff" d="M226,83 l-16,5 -10,2 -7,3 -3,2 -3,4 -2,7 -3,10 -5,15 0,-6 -1,-7 0,-8 -1,-7 0,-6 0,-6 1,-5 1,-3 3,-2 5,-1 6,0 7,0 7,1 7,1 7,1 7,0z" /></svg>