<!DOCTYPE svg PUBLIC "-//W3C//DTD SVG 20000303 Stylable//EN" "http://www.w3.org/TR/2000/03/WD-SVG-20000303/DTD/svg-20000303-stylable.dtd"[]><svg xmlns="http://www.w3.org/2000/svg" width="999px" height="808px" viewBox="0 0 999 797"><path style="fill:#ccccbf;stroke:#4c4c4c;stroke-width:2" d="M0,797 l0,-42 83,-124 832,0 84,124 0,42 -999,0z" /><path style="fill:#666640" d="M103,651 l792,0 61,104 -914,0 61,-104z" /><path style="fill:#e5e5d8" d="M846,693 l33,0 -15,-24 49,0 18,34 -79,0 -6,-10z" /><path style="fill:#e5e5d8" d="M787,693 l46,0 6,10 -46,0 -6,-10z" /><path style="fill:#e5e5d8" d="M725,693 l46,0 6,10 -46,0 -6,-10z" /><path style="fill:#e5e5d8" d="M663,693 l46,0 6,10 -46,0 -6,-10z" /><path style="fill:#e5e5d8" d="M603,693 l46,0 6,10 -46,0 -6,-10z" /><path style="fill:#e5e5d8" d="M541,693 l46,0 6,10 -46,0 -6,-10z" /><path style="fill:#e5e5d8" d="M805,669 l46,0 6,12 -46,0 -6,-12z" /><path style="fill:#e5e5d8" d="M743,669 l46,0 5,12 -45,0 -6,-12z" /><path style="fill:#e5e5d8" d="M681,669 l46,0 8,12 -48,0 -6,-12z" /><path style="fill:#e5e5d8" d="M621,669 l46,0 6,12 -46,0 -6,-12z" /><path style="fill:#e5e5d8" d="M559,669 l46,0 6,12 -46,0 -6,-12z" /><path style="fill:#e5e5d8" d="M497,669 l46,0 6,12 -46,0 -6,-12z" /><path style="fill:#e5e5d8" d="M823,645 l75,0 6,12 -75,0 -6,-12z" /><path style="fill:#e5e5d8" d="M761,645 l46,0 6,12 -46,0 -6,-12z" /><path style="fill:#e5e5d8" d="M701,645 l46,0 6,12 -46,0 -6,-12z" /><path style="fill:#e5e5d8" d="M639,645 l46,0 6,12 -46,0 -6,-12z" /><path style="fill:#e5e5d8" d="M577,645 l46,0 6,12 -46,0 -6,-12z" /><path style="fill:#e5e5d8" d="M515,645 l48,0 6,12 -46,0 -8,-12z" /><path style="fill:#e5e5d8" d="M753,715 l46,0 6,12 -46,0 -6,-12z" /><path style="fill:#e5e5d8" d="M691,715 l46,0 6,12 -46,0 -6,-12z" /><path style="fill:#e5e5d8" d="M629,715 l46,0 8,12 -48,0 -6,-12z" /><path style="fill:#e5e5d8" d="M569,715 l46,0 6,12 -46,0 -6,-12z" /><path style="fill:#e5e5d8" d="M507,715 l46,0 6,12 -46,0 -6,-12z" /><path style="fill:#e5e5d8" d="M815,715 l122,0 6,12 -122,0 -6,-12z" /><path style="fill:#e5e5d8" d="M703,739 l78,0 6,10 -78,0 -6,-10z" /><path style="fill:#e5e5d8" d="M794,739 l63,0 6,10 -60,0 -9,-10z" /><path style="fill:#e5e5d8" d="M873,739 l76,0 6,10 -76,0 -6,-10z" /><path style="fill:#e5e5d8" d="M335,739 l354,0 6,10 -354,0 -6,-10z" /><path style="fill:#e5e5d8" d="M503,693 l46,0 -6,10 -46,0 6,-10z" /><path style="fill:#e5e5d8" d="M441,693 l46,0 -6,10 -46,0 6,-10z" /><path style="fill:#e5e5d8" d="M379,693 l48,0 -8,10 -46,0 6,-10z" /><path style="fill:#e5e5d8" d="M319,693 l46,0 -6,10 -46,0 6,-10z" /><path style="fill:#e5e5d8" d="M257,693 l46,0 -6,10 -46,0 6,-10z" /><path style="fill:#e5e5d8" d="M195,693 l46,0 -6,10 -46,0 6,-10z" /><path style="fill:#e5e5d8" d="M73,693 l108,0 -8,10 -106,0 6,-10z" /><path style="fill:#e5e5d8" d="M485,669 l46,0 -6,12 -46,0 6,-12z" /><path style="fill:#e5e5d8" d="M423,669 l46,0 -6,12 -46,0 6,-12z" /><path style="fill:#e5e5d8" d="M363,669 l46,0 -8,12 -46,0 8,-12z" /><path style="fill:#e5e5d8" d="M301,669 l46,0 -6,12 -46,0 6,-12z" /><path style="fill:#e5e5d8" d="M239,669 l46,0 -6,12 -46,0 6,-12z" /><path style="fill:#e5e5d8" d="M177,669 l48,0 -8,12 -46,0 6,-12z" /><path style="fill:#e5e5d8" d="M85,669 l78,0 -5,12 -79,0 6,-12z" /><path style="fill:#e5e5d8" d="M529,645 l46,0 -6,12 -46,0 6,-12z" /><path style="fill:#e5e5d8" d="M467,645 l46,0 -6,12 -46,0 6,-12z" /><path style="fill:#e5e5d8" d="M405,645 l46,0 -6,12 -46,0 6,-12z" /><path style="fill:#e5e5d8" d="M345,645 l46,0 -6,12 -48,0 8,-12z" /><path style="fill:#e5e5d8" d="M283,645 l46,0 -6,12 -46,0 6,-12z" /><path style="fill:#e5e5d8" d="M221,645 l46,0 -6,12 -46,0 6,-12z" /><path style="fill:#e5e5d8" d="M161,645 l46,0 -8,12 -46,0 8,-12z" /><path style="fill:#e5e5d8" d="M100,645 l46,0 -6,12 -46,0 6,-12z" /><path style="fill:#e5e5d8" d="M505,715 l46,0 -6,12 -46,0 6,-12z" /><path style="fill:#e5e5d8" d="M443,715 l46,0 -6,12 -46,0 6,-12z" /><path style="fill:#e5e5d8" d="M383,715 l46,0 -8,12 -46,0 8,-12z" /><path style="fill:#e5e5d8" d="M321,715 l46,0 -6,12 -46,0 6,-12z" /><path style="fill:#e5e5d8" d="M259,715 l46,0 -6,12 -46,0 6,-12z" /><path style="fill:#e5e5d8" d="M197,715 l48,0 -8,12 -46,0 6,-12z" /><path style="fill:#e5e5d8" d="M60,715 l123,0 -6,12 -123,0 6,-12z" /><path style="fill:#e5e5d8" d="M48,739 l75,0 -6,10 -75,0 6,-10z" /><path style="fill:#e5e5d8" d="M140,739 l61,0 -6,10 -61,0 6,-10z" /><path style="fill:#e5e5d8" d="M215,739 l78,0 -6,10 -78,0 6,-10z" /><path style="fill:#e5e5d8" d="M309,739 l352,0 -6,10 -354,0 8,-10z" /><path style="fill:#ccccbf" d="M655,631 l-312,0 28,-86 -60,-2 -94,-8 -52,-8 0,-506 52,-9 92,-9 124,-3 132,0 122,3 94,9 52,9 0,506 -52,8 -92,8 -62,2 28,86z" /><path style="fill:#006" d="M551,487 l-104,0 -96,-4 -72,-4 -40,-8 0,-394 40,-7 72,-7 96,-3 104,0 96,3 72,7 40,7 0,394 -40,8 -72,4 -96,4z" /><path style="fill:#474719" d="M357,587 l14,-42 256,0 14,42 -284,0z" /><path style="fill:none;stroke:#4c4c4c;stroke-width:2" d="M655,631 l-312,0 28,-86 -60,-2 -94,-8 -52,-8 0,-506 52,-9 92,-9 124,-3 132,0 122,3 94,9 52,9 0,506 -52,8 -92,8 -62,2 28,86" /><path style="fill:#00004c" d="M551,487 l-104,0 -96,-4 -72,-4 -40,-8 270,-38 146,-58 62,-100 42,-198 0,394 -40,8 -72,4 -96,4z" /><path style="fill:#000059" d="M447,109 l-110,43 -42,71 -56,248 0,-394 40,-7 72,-7 96,-3 104,0 96,3 72,7 40,7 -312,32z" /><path style="fill:#fff;fill-rule:evenodd" d="M505,329 l88,-80 72,-114 -98,114 -62,80z M515,265 l54,-48 44,-70 -60,70 -38,48z " /></svg>