<!DOCTYPE svg PUBLIC "-//W3C//DTD SVG 20000303 Stylable//EN" "http://www.w3.org/TR/2000/03/WD-SVG-20000303/DTD/svg-20000303-stylable.dtd"[]><svg xmlns="http://www.w3.org/2000/svg" width="999px" height="842px" viewBox="0 0 999 833"><path style="fill:#7f7f7f;stroke:#4c4c4c;stroke-width:2" d="M0,833 l0,-250 333,0 20,-42 -166,0 0,-541 624,0 0,541 -166,0 20,42 334,0 0,250 -999,0z" /><path style="fill:#399" d="M229,499 l0,-458 542,0 0,458 -542,0z" /><path style="fill:#e5e5e5" d="M707,687 l0,-22 207,0 0,22 -207,0z" /><path style="fill:none;stroke:#9cc;stroke-width:2" d="M229,499 l542,0 0,-458" /><path style="fill:none;stroke:#066;stroke-width:2" d="M771,41 l-542,0 0,458" /><path style="fill:none;stroke:#4c4c4c;stroke-width:2" d="M707,687 l0,-22 207,0" /><path style="fill:#666" d="M353,583 l22,-42 250,0 20,42 -292,0z" /></svg>