<!DOCTYPE svg PUBLIC "-//W3C//DTD SVG 20000303 Stylable//EN" "http://www.w3.org/TR/2000/03/WD-SVG-20000303/DTD/svg-20000303-stylable.dtd"[]><svg xmlns="http://www.w3.org/2000/svg" width="906px" height="999px" viewBox="0 0 900 999"><path style="fill:#fff;stroke:#4c4c4c;stroke-width:2" d="M22,593 l851,0 -50,-193 -758,0 -43,193z" /><path style="fill:#000" d="M869,593 l4,-4 -851,0 0,7 851,0 3,-5 -3,5 1,-1 3,-2 -3,-3 -1,-1 -4,4z" /><path style="fill:#fff;stroke:#4c4c4c;stroke-width:2" d="M873,593 l0,186 -851,0 0,-186 851,0z" /><path style="fill:#ccf;stroke:#7f7f7f;stroke-width:2" d="M552,716 l0,-77 -475,0 0,77 475,0z" /><path style="fill:#fff;stroke:#4c4c4c;stroke-width:2" d="M900,977 l-44,-210 -818,0 -38,210 0,22 897,0 3,-22z" /><path style="fill:#ccc;stroke:#4c4c4c;stroke-width:2" d="M693,793 l2,27 125,0 -5,-27 -122,0z" /><path style="fill:#ccc;stroke:#4c4c4c;stroke-width:2" d="M702,845 l15,104 125,0 -18,-104 -122,0z" /><path style="fill:#ccc;stroke:#4c4c4c;stroke-width:2" d="M675,847 l14,102 -14,0 -14,0 -15,0 -15,0 -15,0 -16,0 -16,0 -16,0 -16,0 -17,0 -17,0 -18,0 -17,0 -18,0 -18,0 -18,0 -18,0 -19,0 -18,0 -19,0 -19,0 -18,0 -20,0 -19,0 -19,0 -19,0 -19,0 -20,0 -19,0 -19,0 -20,0 -19,0 14,-102 536,0z" /><path style="fill:#ccc;stroke:#4c4c4c;stroke-width:2" d="M114,847 l-15,102 -58,0 17,-102 56,0z" /><path style="fill:#ccc;stroke:#4c4c4c;stroke-width:2" d="M662,793 l-5,27 -595,0 6,-27 594,0z" /><path style="fill:#fff;stroke:#4c4c4c;stroke-width:2" d="M768,54 l0,472 -642,0 0,-472 642,0z" /><path style="fill:#fff" d="M724,472 l0,-357 -98,0 0,357 98,0z" /><path style="fill:#fff" d="M198,468 l4,4 0,-357 -8,0 0,357 4,4 -4,-4 2,2 2,0 2,0 2,-2 -4,-4z" /><path style="fill:#fff" d="M573,472 l3,-4 -378,0 0,8 378,0 4,-4 -4,4 3,-2 1,-2 -1,-2 -3,-2 -3,4z" /><path style="fill:#fff;stroke:#4c4c4c;stroke-width:2" d="M126,54 l642,0 -66,-54 -504,0 -72,54z" /><path style="fill:#666;stroke:#4c4c4c;stroke-width:2" d="M660,403 l33,0 0,34 -33,0 0,-34z" /><path style="fill:#666;stroke:#4c4c4c;stroke-width:2" d="M660,339 l33,0 0,34 -33,0 0,-34z" /><path style="fill:#006;stroke:#4c4c4c;stroke-width:2" d="M216,115 l361,0 5,0 4,1 4,2 3,2 3,3 1,4 2,3 0,5 0,316 0,4 -2,4 -1,3 -3,3 -3,3 -4,2 -4,1 -5,0 -361,0 -4,0 -4,-1 -4,-2 -3,-3 -3,-3 -2,-3 -1,-4 0,-4 0,-316 0,-5 1,-3 2,-4 3,-3 3,-2 4,-2 4,-1 4,0z" /><path style="fill:#7f7f7f;stroke:#4c4c4c;stroke-width:2" d="M620,690 l197,0 0,44 -197,0 0,-44z" /><path style="fill:#7f7f7f;stroke:#4c4c4c;stroke-width:2" d="M620,626 l197,0 0,44 -197,0 0,-44z" /><path style="fill:none;stroke:#4c4c4c;stroke-width:2" d="M0,978 l900,0" /><path style="fill:none;stroke:#4c4c4c;stroke-width:2" d="M58,831 l766,0" /></svg>