<!DOCTYPE svg PUBLIC "-//W3C//DTD SVG 20000303 Stylable//EN" "http://www.w3.org/TR/2000/03/WD-SVG-20000303/DTD/svg-20000303-stylable.dtd"[]><svg xmlns="http://www.w3.org/2000/svg" width="999px" height="868px" viewBox="0 0 998 860"><path style="fill:#c1c1c1;stroke:#4c4c4c;stroke-width:2" d="M0,42 l0,-4 0,-3 0,-4 0,-3 0,-3 0,-3 0,-2 1,-3 0,-2 1,-2 1,-1 1,-2 1,-2 1,-1 1,-1 2,-1 2,-1 2,-1 2,-1 3,0 3,-1 3,0 4,-1 3,0 5,0 4,0 5,0 5,0 6,0 6,0 6,0 7,0 848,0 7,0 6,0 6,0 6,0 5,0 5,0 4,0 5,0 3,1 4,0 3,1 3,0 3,1 2,1 2,1 2,1 2,1 1,1 1,2 1,2 1,2 1,2 1,2 0,3 1,3 0,3 0,3 0,3 0,4 0,4 0,5 0,4 0,603 0,5 0,5 0,5 0,4 0,4 0,4 0,4 0,3 -1,3 0,3 0,2 -1,2 0,2 -1,2 -1,2 -1,1 -1,2 -1,1 -2,1 -1,1 -2,0 -2,1 -2,0 -2,1 -3,0 -2,0 -3,0 -3,1 -3,0 -4,0 -4,0 -4,0 -889,0 -6,0 -6,0 -4,0 -5,0 -5,-1 -4,0 -3,0 -4,0 -3,-1 -3,0 -3,-1 -2,0 -3,-1 -2,-1 -2,-1 -1,-2 -2,-1 -1,-2 -1,-2 -1,-2 -1,-2 -1,-2 -1,-3 0,-3 0,-3 -1,-4 0,-4 0,-4 0,-4 0,-5 0,-5 0,-5 0,-611z" /><path style="fill:#828282;stroke:#4c4c4c;stroke-width:2" d="M249,712 l500,0 0,46 -500,0 0,-46z" /><path style="fill:#006;stroke:#4c4c4c;stroke-width:2" d="M75,135 l0,-5 0,-4 0,-5 0,-4 0,-3 0,-4 1,-3 0,-3 0,-3 1,-3 1,-2 0,-2 1,-2 2,-2 1,-1 1,-2 2,-1 2,-1 2,-1 2,-1 3,0 2,-1 3,0 4,-1 3,0 4,0 4,0 5,0 4,0 6,0 5,0 6,0 728,0 5,0 5,0 4,0 4,0 4,0 4,1 3,0 3,1 3,0 2,1 2,0 3,1 2,1 1,1 2,1 1,1 1,2 1,1 1,2 1,2 1,2 0,1 1,2 0,3 0,2 1,3 0,2 0,3 0,3 0,4 0,3 0,3 0,414 0,5 0,4 0,3 0,4 1,3 0,3 0,3 0,2 0,3 0,2 -1,2 0,1 -1,2 0,2 -1,1 -1,1 -1,1 -1,1 -2,1 -2,1 -2,0 -2,0 -3,1 -3,0 -3,0 -3,1 -4,0 -5,0 -4,0 -5,0 -6,0 -6,0 -728,0 -6,0 -5,0 -6,0 -4,0 -5,0 -4,0 -4,0 -3,0 -4,0 -3,0 -2,0 -3,-1 -2,0 -2,-1 -2,-1 -2,-1 -1,-1 -1,-1 -2,-2 -1,-2 0,-2 -1,-2 -1,-3 0,-3 0,-3 -1,-3 0,-4 0,-4 0,-5 0,-5 0,-5 0,-6 0,-398z" /><path style="fill:#c1c1c1;stroke:#4c4c4c;stroke-width:2" d="M0,860 l998,0 0,-35 -249,-67 -500,0 -249,67 0,35z" /><path style="fill:#828282;stroke:#4c4c4c;stroke-width:2" d="M913,631 l0,50 -240,0 0,-50 240,0z" /><path style="fill:none;stroke:#4c4c4c;stroke-width:2" d="M0,825 l998,0" /></svg>