<!DOCTYPE svg PUBLIC "-//W3C//DTD SVG 20000303 Stylable//EN" "http://www.w3.org/TR/2000/03/WD-SVG-20000303/DTD/svg-20000303-stylable.dtd"[]><svg xmlns="http://www.w3.org/2000/svg" width="999px" height="884px" viewBox="0 0 998 878"><path style="fill:#c1c1c1;stroke:#4c4c4c;stroke-width:2" d="M188,29 l0,-3 0,-2 0,-3 0,-2 1,-2 0,-2 0,-2 0,-1 1,-2 0,-1 0,-2 1,-1 1,0 0,-2 1,0 1,-1 1,-1 2,0 1,-1 2,0 2,0 2,-1 2,0 2,0 3,0 2,0 3,0 4,0 3,0 4,0 4,0 4,0 517,0 4,0 4,0 3,0 4,0 3,0 3,0 3,0 2,0 3,0 2,1 2,0 1,0 2,1 2,0 1,1 1,1 1,1 1,1 1,1 0,1 1,1 0,2 1,2 0,1 0,2 0,3 1,1 0,3 0,3 0,2 0,4 0,3 0,421 0,7 0,6 0,6 -1,5 0,4 -1,3 0,3 -2,2 -1,1 -2,2 -2,1 -3,0 -3,1 -3,0 -4,0 -5,0 -543,0 -4,0 -3,0 -3,0 -3,0 -2,0 -3,0 -2,0 -2,-1 -2,0 -2,0 -2,-1 -1,0 -2,-1 -1,-1 -1,0 -1,-1 -1,-1 -1,-1 -1,-2 0,-1 -1,-2 0,-1 0,-2 -1,-2 0,-3 0,-2 0,-3 0,-3 -1,-3 0,-3 0,-4 0,-3 0,-427z" /><path style="fill:#828282;stroke:#4c4c4c;stroke-width:2" d="M341,497 l305,0 0,32 -305,0 0,-32z" /><path style="fill:#006;stroke:#4c4c4c;stroke-width:2" d="M235,94 l0,-3 0,-4 0,-3 0,-2 0,-3 0,-3 0,-2 0,-2 1,-2 0,-2 0,-1 1,-2 0,-1 1,-1 1,-2 1,0 1,-1 1,-1 1,-1 2,0 1,-1 2,0 2,0 2,0 2,-1 2,0 3,0 3,0 3,0 3,0 3,0 4,0 443,0 6,0 5,0 5,1 3,0 4,1 2,1 2,1 2,2 2,2 1,2 0,3 1,3 0,3 1,4 0,4 0,5 0,290 0,3 0,3 0,2 0,3 0,2 0,2 0,2 0,2 0,2 0,1 0,1 0,2 -1,1 0,1 -1,1 0,0 -1,1 -1,1 -1,0 -1,1 -1,0 -1,1 -2,0 -2,0 -2,0 -2,0 -2,0 -3,0 -3,0 -3,0 -3,0 -4,0 -443,0 -4,0 -3,0 -3,0 -3,1 -3,0 -3,0 -2,0 -2,0 -2,-1 -2,0 -2,0 -1,0 -2,0 -1,-1 -1,-1 -1,0 -1,-1 -1,-1 -1,-1 0,-1 -1,-2 0,-2 0,-1 -1,-2 0,-3 0,-2 0,-3 0,-3 0,-3 0,-3 0,-4 0,-4 0,-278z" /><path style="fill:#c1c1c1;stroke:#4c4c4c;stroke-width:2" d="M188,601 l610,0 0,-25 -152,-47 -305,0 -153,47 0,25z" /><path style="fill:#828282;stroke:#4c4c4c;stroke-width:2" d="M745,440 l0,36 -146,0 0,-36 146,0z" /><path style="fill:none;stroke:#4c4c4c;stroke-width:2" d="M188,576 l610,0" /><path style="fill:#fff;stroke:#4c4c4c;stroke-width:2" d="M34,652 l-34,194 998,0 -79,-194 -885,0z" /><path style="fill:#c1c1c1;stroke:#4c4c4c;stroke-width:2" d="M620,665 l-3,30 37,0 -3,-30 -31,0z" /><path style="fill:#fff;stroke:#4c4c4c;stroke-width:2" d="M622,656 l-2,9 31,0 -2,-9 -27,0z" /><path style="fill:#c1c1c1;stroke:#4c4c4c;stroke-width:2" d="M659,665 l-4,30 38,0 -4,-30 -30,0z" /><path style="fill:#fff;stroke:#4c4c4c;stroke-width:2" d="M661,656 l-2,9 30,0 -2,-9 -26,0z" /><path style="fill:#c1c1c1;stroke:#4c4c4c;stroke-width:2" d="M697,665 l-4,30 38,0 -4,-30 -30,0z" /><path style="fill:#fff;stroke:#4c4c4c;stroke-width:2" d="M699,656 l-2,9 30,0 -2,-9 -26,0z" /><path style="fill:#c1c1c1;stroke:#4c4c4c;stroke-width:2" d="M528,665 l-3,30 38,0 -4,-30 -31,0z" /><path style="fill:#fff;stroke:#4c4c4c;stroke-width:2" d="M531,656 l-3,9 31,0 -2,-9 -26,0z" /><path style="fill:#c1c1c1;stroke:#4c4c4c;stroke-width:2" d="M567,665 l-4,30 38,0 -4,-30 -30,0z" /><path style="fill:#fff;stroke:#4c4c4c;stroke-width:2" d="M569,656 l-2,9 30,0 -1,-9 -27,0z" /><path style="fill:#c1c1c1;stroke:#4c4c4c;stroke-width:2" d="M491,665 l-4,30 38,0 -4,-30 -30,0z" /><path style="fill:#fff;stroke:#4c4c4c;stroke-width:2" d="M492,656 l-1,9 30,0 -2,-9 -27,0z" /><path style="fill:#c1c1c1;stroke:#4c4c4c;stroke-width:2" d="M453,665 l-4,30 38,0 -4,-30 -30,0z" /><path style="fill:#fff;stroke:#4c4c4c;stroke-width:2" d="M455,656 l-2,9 30,0 -2,-9 -26,0z" /><path style="fill:#c1c1c1;stroke:#4c4c4c;stroke-width:2" d="M287,665 l-4,30 38,0 -3,-30 -31,0z" /><path style="fill:#fff;stroke:#4c4c4c;stroke-width:2" d="M289,656 l-2,9 31,0 -2,-9 -27,0z" /><path style="fill:#c1c1c1;stroke:#4c4c4c;stroke-width:2" d="M401,665 l-4,30 38,0 -4,-30 -30,0z" /><path style="fill:#fff;stroke:#4c4c4c;stroke-width:2" d="M403,656 l-2,9 30,0 -2,-9 -26,0z" /><path style="fill:#c1c1c1;stroke:#4c4c4c;stroke-width:2" d="M325,665 l-4,30 38,0 -4,-30 -30,0z" /><path style="fill:#fff;stroke:#4c4c4c;stroke-width:2" d="M327,656 l-2,9 30,0 -2,-9 -26,0z" /><path style="fill:#c1c1c1;stroke:#4c4c4c;stroke-width:2" d="M363,665 l-4,30 38,0 -4,-30 -30,0z" /><path style="fill:#fff;stroke:#4c4c4c;stroke-width:2" d="M365,656 l-2,9 30,0 -2,-9 -26,0z" /><path style="fill:#c1c1c1;stroke:#4c4c4c;stroke-width:2" d="M238,665 l-4,30 38,0 -4,-30 -30,0z" /><path style="fill:#fff;stroke:#4c4c4c;stroke-width:2" d="M240,656 l-2,9 30,0 -2,-9 -26,0z" /><path style="fill:#c1c1c1;stroke:#4c4c4c;stroke-width:2" d="M162,665 l-4,30 38,0 -3,-30 -31,0z" /><path style="fill:#fff;stroke:#4c4c4c;stroke-width:2" d="M164,656 l-2,9 31,0 -3,-9 -26,0z" /><path style="fill:#c1c1c1;stroke:#4c4c4c;stroke-width:2" d="M124,665 l-3,30 37,0 -3,-30 -31,0z" /><path style="fill:#fff;stroke:#4c4c4c;stroke-width:2" d="M126,656 l-2,9 31,0 -2,-9 -27,0z" /><path style="fill:#c1c1c1;stroke:#4c4c4c;stroke-width:2" d="M200,665 l-4,30 38,0 -4,-30 -30,0z" /><path style="fill:#fff;stroke:#4c4c4c;stroke-width:2" d="M202,656 l-2,9 30,0 -2,-9 -26,0z" /><path style="fill:#c1c1c1;stroke:#4c4c4c;stroke-width:2" d="M56,665 l-3,30 37,0 -3,-30 -31,0z" /><path style="fill:#c1c1c1;stroke:#4c4c4c;stroke-width:2" d="M287,696 l-4,30 38,0 -3,-30 -31,0z" /><path style="fill:#fff;stroke:#4c4c4c;stroke-width:2" d="M289,688 l-2,8 31,0 -2,-8 -27,0z" /><path style="fill:#c1c1c1;stroke:#4c4c4c;stroke-width:2" d="M552,696 l-4,30 38,0 -4,-30 -30,0z" /><path style="fill:#fff;stroke:#4c4c4c;stroke-width:2" d="M554,688 l-2,8 30,0 -1,-8 -27,0z" /><path style="fill:#c1c1c1;stroke:#4c4c4c;stroke-width:2" d="M249,696 l-3,30 37,0 -3,-30 -31,0z" /><path style="fill:#fff;stroke:#4c4c4c;stroke-width:2" d="M251,688 l-2,8 31,0 -2,-8 -27,0z" /><path style="fill:#c1c1c1;stroke:#4c4c4c;stroke-width:2" d="M325,696 l-4,30 38,0 -4,-30 -30,0z" /><path style="fill:#fff;stroke:#4c4c4c;stroke-width:2" d="M327,688 l-2,8 30,0 -2,-8 -26,0z" /><path style="fill:#c1c1c1;stroke:#4c4c4c;stroke-width:2" d="M439,696 l-4,30 38,0 -4,-30 -30,0z" /><path style="fill:#fff;stroke:#4c4c4c;stroke-width:2" d="M440,688 l-1,8 30,0 -2,-8 -27,0z" /><path style="fill:#c1c1c1;stroke:#4c4c4c;stroke-width:2" d="M60,696 l-4,30 38,0 -4,-30 -30,0z" /><path style="fill:#fff;stroke:#4c4c4c;stroke-width:2" d="M62,688 l-2,8 30,0 -2,-8 -26,0z" /><path style="fill:#c1c1c1;stroke:#4c4c4c;stroke-width:2" d="M363,696 l-4,30 38,0 -4,-30 -30,0z" /><path style="fill:#fff;stroke:#4c4c4c;stroke-width:2" d="M365,688 l-2,8 30,0 -2,-8 -26,0z" /><path style="fill:#c1c1c1;stroke:#4c4c4c;stroke-width:2" d="M401,696 l-4,30 38,0 -4,-30 -30,0z" /><path style="fill:#fff;stroke:#4c4c4c;stroke-width:2" d="M403,688 l-2,8 30,0 -2,-8 -26,0z" /><path style="fill:#c1c1c1;stroke:#4c4c4c;stroke-width:2" d="M173,696 l-3,30 38,0 -4,-30 -31,0z" /><path style="fill:#fff;stroke:#4c4c4c;stroke-width:2" d="M176,688 l-3,8 31,0 -2,-8 -26,0z" /><path style="fill:#c1c1c1;stroke:#4c4c4c;stroke-width:2" d="M136,696 l-4,30 38,0 -4,-30 -30,0z" /><path style="fill:#fff;stroke:#4c4c4c;stroke-width:2" d="M138,688 l-2,8 30,0 -2,-8 -26,0z" /><path style="fill:#c1c1c1;stroke:#4c4c4c;stroke-width:2" d="M514,696 l-4,30 38,0 -4,-30 -30,0z" /><path style="fill:#fff;stroke:#4c4c4c;stroke-width:2" d="M516,688 l-2,8 30,0 -1,-8 -27,0z" /><path style="fill:#c1c1c1;stroke:#4c4c4c;stroke-width:2" d="M211,696 l-3,30 38,0 -4,-30 -31,0z" /><path style="fill:#fff;stroke:#4c4c4c;stroke-width:2" d="M213,688 l-2,8 31,0 -2,-8 -27,0z" /><path style="fill:#c1c1c1;stroke:#4c4c4c;stroke-width:2" d="M98,696 l-4,30 38,0 -4,-30 -30,0z" /><path style="fill:#fff;stroke:#4c4c4c;stroke-width:2" d="M100,688 l-2,8 30,0 -2,-8 -26,0z" /><path style="fill:#c1c1c1;stroke:#4c4c4c;stroke-width:2" d="M476,696 l-3,30 37,0 -3,-30 -31,0z" /><path style="fill:#fff;stroke:#4c4c4c;stroke-width:2" d="M478,688 l-2,8 31,0 -2,-8 -27,0z" /><path style="fill:#c1c1c1;stroke:#4c4c4c;stroke-width:2" d="M302,711 l-4,30 38,0 -3,-30 -31,0z" /><path style="fill:#fff;stroke:#4c4c4c;stroke-width:2" d="M304,702 l-2,9 31,0 -2,-9 -27,0z" /><path style="fill:#c1c1c1;stroke:#4c4c4c;stroke-width:2" d="M567,711 l-4,30 38,0 -4,-30 -30,0z" /><path style="fill:#fff;stroke:#4c4c4c;stroke-width:2" d="M569,702 l-2,9 30,0 -1,-9 -27,0z" /><path style="fill:#c1c1c1;stroke:#4c4c4c;stroke-width:2" d="M264,711 l-4,30 38,0 -3,-30 -31,0z" /><path style="fill:#fff;stroke:#4c4c4c;stroke-width:2" d="M266,702 l-2,9 31,0 -2,-9 -27,0z" /><path style="fill:#c1c1c1;stroke:#4c4c4c;stroke-width:2" d="M340,711 l-4,30 38,0 -3,-30 -31,0z" /><path style="fill:#fff;stroke:#4c4c4c;stroke-width:2" d="M342,702 l-2,9 31,0 -3,-9 -26,0z" /><path style="fill:#c1c1c1;stroke:#4c4c4c;stroke-width:2" d="M454,711 l-4,30 38,0 -4,-30 -30,0z" /><path style="fill:#fff;stroke:#4c4c4c;stroke-width:2" d="M456,702 l-2,9 30,0 -2,-9 -26,0z" /><path style="fill:#c1c1c1;stroke:#4c4c4c;stroke-width:2" d="M75,711 l-4,30 38,0 -4,-30 -30,0z" /><path style="fill:#fff;stroke:#4c4c4c;stroke-width:2" d="M77,702 l-2,9 30,0 -2,-9 -26,0z" /><path style="fill:#c1c1c1;stroke:#4c4c4c;stroke-width:2" d="M378,711 l-4,30 38,0 -4,-30 -30,0z" /><path style="fill:#fff;stroke:#4c4c4c;stroke-width:2" d="M380,702 l-2,9 30,0 -2,-9 -26,0z" /><path style="fill:#c1c1c1;stroke:#4c4c4c;stroke-width:2" d="M416,711 l-4,30 38,0 -4,-30 -30,0z" /><path style="fill:#fff;stroke:#4c4c4c;stroke-width:2" d="M418,702 l-2,9 30,0 -2,-9 -26,0z" /><path style="fill:#c1c1c1;stroke:#4c4c4c;stroke-width:2" d="M189,711 l-4,30 38,0 -4,-30 -30,0z" /><path style="fill:#fff;stroke:#4c4c4c;stroke-width:2" d="M190,702 l-1,9 30,0 -2,-9 -27,0z" /><path style="fill:#c1c1c1;stroke:#4c4c4c;stroke-width:2" d="M151,711 l-4,30 38,0 -4,-30 -30,0z" /><path style="fill:#fff;stroke:#4c4c4c;stroke-width:2" d="M153,702 l-2,9 30,0 -2,-9 -26,0z" /><path style="fill:#c1c1c1;stroke:#4c4c4c;stroke-width:2" d="M529,711 l-3,30 37,0 -4,-30 -30,0z" /><path style="fill:#fff;stroke:#4c4c4c;stroke-width:2" d="M531,702 l-2,9 30,0 -1,-9 -27,0z" /><path style="fill:#c1c1c1;stroke:#4c4c4c;stroke-width:2" d="M226,711 l-3,30 37,0 -3,-30 -31,0z" /><path style="fill:#fff;stroke:#4c4c4c;stroke-width:2" d="M228,702 l-2,9 31,0 -2,-9 -27,0z" /><path style="fill:#c1c1c1;stroke:#4c4c4c;stroke-width:2" d="M113,711 l-4,30 38,0 -4,-30 -30,0z" /><path style="fill:#fff;stroke:#4c4c4c;stroke-width:2" d="M115,702 l-2,9 30,0 -2,-9 -26,0z" /><path style="fill:#c1c1c1;stroke:#4c4c4c;stroke-width:2" d="M491,711 l-3,30 38,0 -4,-30 -31,0z" /><path style="fill:#fff;stroke:#4c4c4c;stroke-width:2" d="M493,702 l-2,9 31,0 -2,-9 -27,0z" /><path style="fill:#c1c1c1;stroke:#4c4c4c;stroke-width:2" d="M287,729 l-4,31 38,0 -3,-31 -31,0z" /><path style="fill:#fff;stroke:#4c4c4c;stroke-width:2" d="M289,721 l-2,8 31,0 -2,-8 -27,0z" /><path style="fill:#c1c1c1;stroke:#4c4c4c;stroke-width:2" d="M552,729 l-4,31 38,0 -4,-31 -30,0z" /><path style="fill:#fff;stroke:#4c4c4c;stroke-width:2" d="M554,721 l-2,8 30,0 -1,-8 -27,0z" /><path style="fill:#c1c1c1;stroke:#4c4c4c;stroke-width:2" d="M249,729 l-3,31 37,0 -3,-31 -31,0z" /><path style="fill:#fff;stroke:#4c4c4c;stroke-width:2" d="M251,721 l-2,8 31,0 -2,-8 -27,0z" /><path style="fill:#c1c1c1;stroke:#4c4c4c;stroke-width:2" d="M325,729 l-4,31 38,0 -4,-31 -30,0z" /><path style="fill:#fff;stroke:#4c4c4c;stroke-width:2" d="M327,721 l-2,8 30,0 -2,-8 -26,0z" /><path style="fill:#c1c1c1;stroke:#4c4c4c;stroke-width:2" d="M439,729 l-4,31 38,0 -4,-31 -30,0z" /><path style="fill:#fff;stroke:#4c4c4c;stroke-width:2" d="M440,721 l-1,8 30,0 -2,-8 -27,0z" /><path style="fill:#c1c1c1;stroke:#4c4c4c;stroke-width:2" d="M60,729 l-4,31 38,0 -4,-31 -30,0z" /><path style="fill:#fff;stroke:#4c4c4c;stroke-width:2" d="M62,721 l-2,8 30,0 -2,-8 -26,0z" /><path style="fill:#c1c1c1;stroke:#4c4c4c;stroke-width:2" d="M363,729 l-4,31 38,0 -4,-31 -30,0z" /><path style="fill:#fff;stroke:#4c4c4c;stroke-width:2" d="M365,721 l-2,8 30,0 -2,-8 -26,0z" /><path style="fill:#c1c1c1;stroke:#4c4c4c;stroke-width:2" d="M401,729 l-4,31 38,0 -4,-31 -30,0z" /><path style="fill:#fff;stroke:#4c4c4c;stroke-width:2" d="M403,721 l-2,8 30,0 -2,-8 -26,0z" /><path style="fill:#c1c1c1;stroke:#4c4c4c;stroke-width:2" d="M173,729 l-3,31 38,0 -4,-31 -31,0z" /><path style="fill:#fff;stroke:#4c4c4c;stroke-width:2" d="M176,721 l-3,8 31,0 -2,-8 -26,0z" /><path style="fill:#c1c1c1;stroke:#4c4c4c;stroke-width:2" d="M136,729 l-4,31 38,0 -4,-31 -30,0z" /><path style="fill:#fff;stroke:#4c4c4c;stroke-width:2" d="M138,721 l-2,8 30,0 -2,-8 -26,0z" /><path style="fill:#c1c1c1;stroke:#4c4c4c;stroke-width:2" d="M514,729 l-4,31 38,0 -4,-31 -30,0z" /><path style="fill:#fff;stroke:#4c4c4c;stroke-width:2" d="M516,721 l-2,8 30,0 -1,-8 -27,0z" /><path style="fill:#c1c1c1;stroke:#4c4c4c;stroke-width:2" d="M211,729 l-3,31 38,0 -4,-31 -31,0z" /><path style="fill:#fff;stroke:#4c4c4c;stroke-width:2" d="M213,721 l-2,8 31,0 -2,-8 -27,0z" /><path style="fill:#c1c1c1;stroke:#4c4c4c;stroke-width:2" d="M98,729 l-4,31 38,0 -4,-31 -30,0z" /><path style="fill:#fff;stroke:#4c4c4c;stroke-width:2" d="M100,721 l-2,8 30,0 -2,-8 -26,0z" /><path style="fill:#c1c1c1;stroke:#4c4c4c;stroke-width:2" d="M476,729 l-3,31 37,0 -3,-31 -31,0z" /><path style="fill:#fff;stroke:#4c4c4c;stroke-width:2" d="M478,721 l-2,8 31,0 -2,-8 -27,0z" /><path style="fill:#c1c1c1;stroke:#4c4c4c;stroke-width:2" d="M302,751 l-4,30 38,0 -3,-30 -31,0z" /><path style="fill:#fff;stroke:#4c4c4c;stroke-width:2" d="M304,742 l-2,9 31,0 -2,-9 -27,0z" /><path style="fill:#c1c1c1;stroke:#4c4c4c;stroke-width:2" d="M567,751 l-4,30 38,0 -4,-30 -30,0z" /><path style="fill:#fff;stroke:#4c4c4c;stroke-width:2" d="M569,742 l-2,9 30,0 -1,-9 -27,0z" /><path style="fill:#c1c1c1;stroke:#4c4c4c;stroke-width:2" d="M264,751 l-4,30 38,0 -3,-30 -31,0z" /><path style="fill:#fff;stroke:#4c4c4c;stroke-width:2" d="M266,742 l-2,9 31,0 -2,-9 -27,0z" /><path style="fill:#c1c1c1;stroke:#4c4c4c;stroke-width:2" d="M340,751 l-4,30 38,0 -3,-30 -31,0z" /><path style="fill:#fff;stroke:#4c4c4c;stroke-width:2" d="M342,742 l-2,9 31,0 -3,-9 -26,0z" /><path style="fill:#c1c1c1;stroke:#4c4c4c;stroke-width:2" d="M454,751 l-4,30 38,0 -4,-30 -30,0z" /><path style="fill:#fff;stroke:#4c4c4c;stroke-width:2" d="M456,742 l-2,9 30,0 -2,-9 -26,0z" /><path style="fill:#c1c1c1;stroke:#4c4c4c;stroke-width:2" d="M75,751 l-4,30 38,0 -4,-30 -30,0z" /><path style="fill:#fff;stroke:#4c4c4c;stroke-width:2" d="M77,742 l-2,9 30,0 -2,-9 -26,0z" /><path style="fill:#c1c1c1;stroke:#4c4c4c;stroke-width:2" d="M378,751 l-4,30 38,0 -4,-30 -30,0z" /><path style="fill:#fff;stroke:#4c4c4c;stroke-width:2" d="M380,742 l-2,9 30,0 -2,-9 -26,0z" /><path style="fill:#c1c1c1;stroke:#4c4c4c;stroke-width:2" d="M416,751 l-4,30 38,0 -4,-30 -30,0z" /><path style="fill:#fff;stroke:#4c4c4c;stroke-width:2" d="M418,742 l-2,9 30,0 -2,-9 -26,0z" /><path style="fill:#c1c1c1;stroke:#4c4c4c;stroke-width:2" d="M189,751 l-4,30 38,0 -4,-30 -30,0z" /><path style="fill:#fff;stroke:#4c4c4c;stroke-width:2" d="M190,742 l-1,9 30,0 -2,-9 -27,0z" /><path style="fill:#c1c1c1;stroke:#4c4c4c;stroke-width:2" d="M151,751 l-4,30 38,0 -4,-30 -30,0z" /><path style="fill:#fff;stroke:#4c4c4c;stroke-width:2" d="M153,742 l-2,9 30,0 -2,-9 -26,0z" /><path style="fill:#c1c1c1;stroke:#4c4c4c;stroke-width:2" d="M529,751 l-3,30 37,0 -4,-30 -30,0z" /><path style="fill:#fff;stroke:#4c4c4c;stroke-width:2" d="M531,742 l-2,9 30,0 -1,-9 -27,0z" /><path style="fill:#c1c1c1;stroke:#4c4c4c;stroke-width:2" d="M226,751 l-3,30 37,0 -3,-30 -31,0z" /><path style="fill:#fff;stroke:#4c4c4c;stroke-width:2" d="M228,742 l-2,9 31,0 -2,-9 -27,0z" /><path style="fill:#c1c1c1;stroke:#4c4c4c;stroke-width:2" d="M113,751 l-4,30 38,0 -4,-30 -30,0z" /><path style="fill:#fff;stroke:#4c4c4c;stroke-width:2" d="M115,742 l-2,9 30,0 -2,-9 -26,0z" /><path style="fill:#c1c1c1;stroke:#4c4c4c;stroke-width:2" d="M491,751 l-3,30 38,0 -4,-30 -31,0z" /><path style="fill:#fff;stroke:#4c4c4c;stroke-width:2" d="M493,742 l-2,9 31,0 -2,-9 -27,0z" /><path style="fill:#c1c1c1;stroke:#4c4c4c;stroke-width:2" d="M563,780 l-4,30 38,0 -3,-30 -31,0z" /><path style="fill:#fff;stroke:#4c4c4c;stroke-width:2" d="M565,771 l-2,9 31,0 -2,-9 -27,0z" /><path style="fill:#c1c1c1;stroke:#4c4c4c;stroke-width:2" d="M625,696 l-4,30 38,0 -4,-30 -30,0z" /><path style="fill:#fff;stroke:#4c4c4c;stroke-width:2" d="M626,688 l-1,8 30,0 -2,-8 -27,0z" /><path style="fill:#c1c1c1;stroke:#4c4c4c;stroke-width:2" d="M666,696 l-4,30 38,0 -4,-30 -30,0z" /><path style="fill:#fff;stroke:#4c4c4c;stroke-width:2" d="M668,688 l-2,8 30,0 -1,-8 -27,0z" /><path style="fill:#c1c1c1;stroke:#4c4c4c;stroke-width:2" d="M632,711 l-4,30 38,0 -4,-30 -30,0z" /><path style="fill:#fff;stroke:#4c4c4c;stroke-width:2" d="M634,702 l-2,9 30,0 -2,-9 -26,0z" /><path style="fill:#c1c1c1;stroke:#4c4c4c;stroke-width:2" d="M704,696 l-4,30 38,0 -4,-30 -30,0z" /><path style="fill:#fff;stroke:#4c4c4c;stroke-width:2" d="M706,688 l-2,8 30,0 -2,-8 -26,0z" /><path style="fill:#c1c1c1;stroke:#4c4c4c;stroke-width:2" d="M671,711 l-3,30 37,0 -3,-30 -31,0z" /><path style="fill:#fff;stroke:#4c4c4c;stroke-width:2" d="M673,702 l-2,9 31,0 -2,-9 -27,0z" /><path style="fill:#c1c1c1;stroke:#4c4c4c;stroke-width:2" d="M709,711 l-4,30 38,0 -3,-30 -31,0z" /><path style="fill:#fff;stroke:#4c4c4c;stroke-width:2" d="M711,702 l-2,9 31,0 -2,-9 -27,0z" /><path style="fill:#c1c1c1;stroke:#4c4c4c;stroke-width:2" d="M643,779 l-4,30 38,0 -4,-30 -30,0z" /><path style="fill:#fff;stroke:#4c4c4c;stroke-width:2" d="M645,770 l-2,9 30,0 -2,-9 -26,0z" /><path style="fill:#c1c1c1;stroke:#4c4c4c;stroke-width:2" d="M677,751 l-4,30 38,0 -4,-30 -30,0z" /><path style="fill:#fff;stroke:#4c4c4c;stroke-width:2" d="M679,742 l-2,9 30,0 -2,-9 -26,0z" /><path style="fill:#c1c1c1;stroke:#4c4c4c;stroke-width:2" d="M681,779 l-3,30 38,0 -4,-30 -31,0z" /><path style="fill:#fff;stroke:#4c4c4c;stroke-width:2" d="M683,770 l-2,9 31,0 -2,-9 -27,0z" /><path style="fill:#c1c1c1;stroke:#4c4c4c;stroke-width:2" d="M721,779 l-4,30 38,0 -4,-30 -30,0z" /><path style="fill:#fff;stroke:#4c4c4c;stroke-width:2" d="M723,770 l-2,9 30,0 -2,-9 -26,0z" /><path style="fill:#c1c1c1;stroke:#4c4c4c;stroke-width:2" d="M881,696 l-4,30 38,0 -4,-30 -30,0z" /><path style="fill:#fff;stroke:#4c4c4c;stroke-width:2" d="M883,688 l-2,8 30,0 -2,-8 -26,0z" /><path style="fill:#c1c1c1;stroke:#4c4c4c;stroke-width:2" d="M843,696 l-3,30 37,0 -3,-30 -31,0z" /><path style="fill:#fff;stroke:#4c4c4c;stroke-width:2" d="M845,688 l-2,8 31,0 -2,-8 -27,0z" /><path style="fill:#c1c1c1;stroke:#4c4c4c;stroke-width:2" d="M803,696 l-4,30 38,0 -4,-30 -30,0z" /><path style="fill:#fff;stroke:#4c4c4c;stroke-width:2" d="M805,688 l-2,8 30,0 -1,-8 -27,0z" /><path style="fill:#c1c1c1;stroke:#4c4c4c;stroke-width:2" d="M765,696 l-4,30 38,0 -4,-30 -30,0z" /><path style="fill:#fff;stroke:#4c4c4c;stroke-width:2" d="M767,688 l-2,8 30,0 -2,-8 -26,0z" /><path style="fill:#c1c1c1;stroke:#4c4c4c;stroke-width:2" d="M769,711 l-4,30 38,0 -4,-30 -30,0z" /><path style="fill:#fff;stroke:#4c4c4c;stroke-width:2" d="M771,702 l-2,9 30,0 -2,-9 -26,0z" /><path style="fill:#c1c1c1;stroke:#4c4c4c;stroke-width:2" d="M808,711 l-3,30 37,0 -3,-30 -31,0z" /><path style="fill:#fff;stroke:#4c4c4c;stroke-width:2" d="M810,702 l-2,9 31,0 -2,-9 -27,0z" /><path style="fill:#c1c1c1;stroke:#4c4c4c;stroke-width:2" d="M847,711 l-4,30 38,0 -4,-30 -30,0z" /><path style="fill:#fff;stroke:#4c4c4c;stroke-width:2" d="M849,702 l-2,9 30,0 -1,-9 -27,0z" /><path style="fill:#c1c1c1;stroke:#4c4c4c;stroke-width:2" d="M886,711 l-4,30 38,0 -4,-30 -30,0z" /><path style="fill:#fff;stroke:#4c4c4c;stroke-width:2" d="M888,702 l-2,9 30,0 -1,-9 -27,0z" /><path style="fill:#c1c1c1;stroke:#4c4c4c;stroke-width:2" d="M891,730 l-4,30 38,0 -4,-30 -30,0z" /><path style="fill:#fff;stroke:#4c4c4c;stroke-width:2" d="M893,721 l-2,9 30,0 -1,-9 -27,0z" /><path style="fill:#c1c1c1;stroke:#4c4c4c;stroke-width:2" d="M896,751 l-4,30 38,0 -4,-30 -30,0z" /><path style="fill:#fff;stroke:#4c4c4c;stroke-width:2" d="M897,742 l-1,9 30,0 -2,-9 -27,0z" /><path style="fill:#c1c1c1;stroke:#4c4c4c;stroke-width:2" d="M902,779 l-4,30 38,0 -4,-30 -30,0z" /><path style="fill:#fff;stroke:#4c4c4c;stroke-width:2" d="M904,770 l-2,9 30,0 -2,-9 -26,0z" /><path style="fill:#c1c1c1;stroke:#4c4c4c;stroke-width:2" d="M772,730 l-4,30 38,0 -4,-30 -30,0z" /><path style="fill:#fff;stroke:#4c4c4c;stroke-width:2" d="M774,721 l-2,9 30,0 -2,-9 -26,0z" /><path style="fill:#c1c1c1;stroke:#4c4c4c;stroke-width:2" d="M776,751 l-4,30 38,0 -4,-30 -30,0z" /><path style="fill:#fff;stroke:#4c4c4c;stroke-width:2" d="M778,742 l-2,9 30,0 -1,-9 -27,0z" /><path style="fill:#c1c1c1;stroke:#4c4c4c;stroke-width:2" d="M812,730 l-4,30 38,0 -4,-30 -30,0z" /><path style="fill:#fff;stroke:#4c4c4c;stroke-width:2" d="M813,721 l-1,9 30,0 -2,-9 -27,0z" /><path style="fill:#c1c1c1;stroke:#4c4c4c;stroke-width:2" d="M816,751 l-4,30 38,0 -4,-30 -30,0z" /><path style="fill:#fff;stroke:#4c4c4c;stroke-width:2" d="M818,742 l-2,9 30,0 -2,-9 -26,0z" /><path style="fill:#c1c1c1;stroke:#4c4c4c;stroke-width:2" d="M852,730 l-4,30 38,0 -4,-30 -30,0z" /><path style="fill:#fff;stroke:#4c4c4c;stroke-width:2" d="M854,721 l-2,9 30,0 -1,-9 -27,0z" /><path style="fill:#c1c1c1;stroke:#4c4c4c;stroke-width:2" d="M856,751 l-4,30 38,0 -4,-30 -30,0z" /><path style="fill:#fff;stroke:#4c4c4c;stroke-width:2" d="M857,742 l-1,9 30,0 -2,-9 -27,0z" /><path style="fill:#c1c1c1;stroke:#4c4c4c;stroke-width:2" d="M861,779 l-4,30 38,0 -4,-30 -30,0z" /><path style="fill:#fff;stroke:#4c4c4c;stroke-width:2" d="M863,770 l-2,9 30,0 -1,-9 -27,0z" /><path style="fill:#c1c1c1;stroke:#4c4c4c;stroke-width:2" d="M56,780 l-3,30 37,0 -3,-30 -31,0z" /><path style="fill:#fff;stroke:#4c4c4c;stroke-width:2" d="M58,771 l-2,9 31,0 -2,-9 -27,0z" /><path style="fill:#c1c1c1;stroke:#4c4c4c;stroke-width:2" d="M136,780 l-4,30 38,0 -4,-30 -30,0z" /><path style="fill:#fff;stroke:#4c4c4c;stroke-width:2" d="M138,771 l-2,9 30,0 -2,-9 -26,0z" /><path style="fill:#c1c1c1;stroke:#4c4c4c;stroke-width:2" d="M526,780 l-4,30 37,0 -3,-30 -30,0z" /><path style="fill:#fff;stroke:#4c4c4c;stroke-width:2" d="M527,771 l-1,9 30,0 -2,-9 -27,0z" /><path style="fill:#c1c1c1;stroke:#4c4c4c;stroke-width:2" d="M94,780 l-4,30 38,0 -4,-30 -30,0z" /><path style="fill:#fff;stroke:#4c4c4c;stroke-width:2" d="M96,771 l-2,9 30,0 -2,-9 -26,0z" /><path style="fill:#c1c1c1;stroke:#4c4c4c;stroke-width:2" d="M488,780 l-4,30 38,0 -4,-30 -30,0z" /><path style="fill:#fff;stroke:#4c4c4c;stroke-width:2" d="M490,771 l-2,9 30,0 -2,-9 -26,0z" /><path style="fill:#fff;stroke:#4c4c4c;stroke-width:2" d="M58,657 l-2,9 31,0 -2,-9 -27,0z" /><path style="fill:#c1c1c1;stroke:#4c4c4c;stroke-width:2" d="M173,780 l-3,30 314,0 -4,-30 -307,0z" /><path style="fill:#fff;stroke:#4c4c4c;stroke-width:2" d="M175,771 l-2,9 307,0 -12,-9 -293,0z" /><path style="fill:#c1c1c1;stroke:#4c4c4c;stroke-width:2" d="M820,779 l-3,30 38,0 -5,-30 -30,0z" /><path style="fill:#fff;stroke:#4c4c4c;stroke-width:2" d="M822,770 l-2,9 30,0 -1,-9 -27,0z" /><path style="fill:#c1c1c1;stroke:#4c4c4c;stroke-width:2" d="M781,779 l-3,30 37,0 -3,-30 -31,0z" /><path style="fill:#fff;stroke:#4c4c4c;stroke-width:2" d="M783,770 l-2,9 31,0 -2,-9 -27,0z" /><path style="fill:#e8e8e8" d="M998,846 l-998,0 0,0 998,0 0,0z" /><path style="fill:#e0e0e0" d="M998,846 l0,4 -998,0 0,-4 998,0z" /><path style="fill:#d6d6d6" d="M998,850 l0,4 -998,0 0,-4 998,0z" /><path style="fill:#cecece" d="M998,854 l0,4 -998,0 0,-4 998,0z" /><path style="fill:#c4c4c4" d="M998,858 l0,4 -998,0 0,-4 998,0z" /><path style="fill:#bcbcbc" d="M998,862 l0,4 -998,0 0,-4 998,0z" /><path style="fill:#b5b5b5" d="M998,866 l0,3 -998,0 0,-3 998,0z" /><path style="fill:#adadad" d="M998,869 l0,4 -998,0 0,-4 998,0z" /><path style="fill:#a3a3a3" d="M998,873 l0,4 -998,0 0,-4 998,0z" /><path style="fill:#9b9b9b" d="M998,877 l0,1 -998,0 0,-1 998,0z" /><path style="fill:none;stroke:#4c4c4c;stroke-width:2" d="M0,846 l0,32 998,0 0,-32 -998,0" /></svg>