<!DOCTYPE svg PUBLIC "-//W3C//DTD SVG 20000303 Stylable//EN" "http://www.w3.org/TR/2000/03/WD-SVG-20000303/DTD/svg-20000303-stylable.dtd"[]><svg xmlns="http://www.w3.org/2000/svg" width="999px" height="899px" viewBox="0 0 999 894"><path style="fill:#fff;fill-rule:evenodd;stroke:#4c4c4c;stroke-width:2" d="M62,831 l-62,0 0,63 999,0 0,-63 -125,0 0,-32 -812,0 0,32z M874,831 l-796,0 796,0z " /><path style="fill:none;stroke:#4c4c4c;stroke-width:2" d="M203,486 l137,0" /><path style="fill:none;stroke:#4c4c4c;stroke-width:2" d="M407,792 l-204,-306 68,-102" /><path style="fill:none;stroke:#4c4c4c;stroke-width:2" d="M125,799 l215,-313" /><path style="fill:none;stroke:#4c4c4c;stroke-width:2" d="M271,792 l-68,-102 399,0 -59,102" /><path style="fill:none;stroke:#4c4c4c;stroke-width:2" d="M687,799 l-212,-279" /><path style="fill:#000" d="M343,799 l125,0 0,-311 -125,0 0,311z" /><path style="fill:#fff;fill-rule:evenodd;stroke:#4c4c4c;stroke-width:2" d="M53,24 l-9,18 -6,19 -3,22 -1,21 2,24 4,24 8,25 10,26 13,26 15,27 18,26 20,28 22,26 24,27 27,26 28,26 30,25 31,24 33,23 34,23 34,20 36,20 36,18 36,17 37,15 37,13 36,12 36,10 35,8 34,5 34,4 32,3 31,-1 29,-2 27,-4 25,-6 24,-8 21,-10 18,-12 17,-13 14,-16 12,-16 -6,8 -10,6 -11,5 -14,3 -16,2 -19,0 -21,-2 -23,-3 -25,-5 -27,-7 -29,-8 -30,-9 -31,-11 -32,-13 -34,-14 -34,-15 -35,-16 -35,-18 -36,-18 -35,-19 -35,-21 -36,-20 -34,-21 -34,-22 -32,-22 -32,-22 -30,-22 -29,-22 -27,-22 -25,-22 -23,-21 -22,-20 -19,-20 -16,-19 -15,-18 -12,-18 -9,-16 -7,-15 -4,-13 -2,-13 1,-11 4,-9z M53,24 l6,-9 9,-6 11,-5 15,-3 16,-1 19,0 21,1 23,3 25,6 26,6 29,8 30,10 31,11 33,12 33,15 35,14 34,17 36,17 36,18 35,20 35,19 35,21 35,21 33,22 33,22 32,22 30,22 29,22 26,22 26,21 23,22 22,20 18,20 17,19 15,18 12,17 9,17 7,15 4,14 2,12 -1,11 -4,10 -6,8 -10,6 -11,5 -14,3 -16,2 -19,0 -21,-2 -23,-3 -25,-5 -27,-7 -29,-8 -30,-9 -31,-11 -32,-13 -34,-14 -34,-15 -35,-16 -35,-18 -36,-18 -35,-19 -35,-21 -36,-20 -34,-21 -34,-22 -32,-22 -32,-22 -30,-22 -29,-22 -27,-22 -25,-22 -23,-21 -22,-20 -19,-20 -16,-19 -15,-18 -12,-18 -9,-16 -7,-15 -4,-13 -2,-13 1,-11 4,-9z " /><path style="fill:none;stroke:#4c4c4c;stroke-width:2" d="M687,19 l-633,-5" /><path style="fill:none;stroke:#4c4c4c;stroke-width:2" d="M687,19 l-231,385" /><path style="fill:none;stroke:#4c4c4c;stroke-width:2" d="M687,19 l308,538" /><path style="fill:#000" d="M352,310 l3,-4 7,-2 9,0 11,1 12,2 15,5 16,6 17,7 17,9 18,9 18,11 17,10 16,11 14,11 14,11 11,10 9,10 6,9 4,8 2,7 -1,4 -4,4 -6,2 -9,1 -11,-2 -13,-2 -15,-5 -16,-6 -17,-7 -17,-9 -18,-9 -17,-11 -17,-10 -16,-11 -15,-11 -13,-11 -11,-11 -10,-9 -6,-9 -4,-7 -1,-8 1,-4z" /></svg>