<!DOCTYPE svg PUBLIC "-//W3C//DTD SVG 20000303 Stylable//EN" "http://www.w3.org/TR/2000/03/WD-SVG-20000303/DTD/svg-20000303-stylable.dtd"[]><svg xmlns="http://www.w3.org/2000/svg" width="999px" height="999px" viewBox="0 0 999 999"><path style="fill:#090;stroke:#4c4c4c;stroke-width:2" d="M999,999 l-999,0 0,-999 999,0 0,999z" /><circle style="fill:#ccc" cx="853" cy="853" r="88" /><circle style="fill:#ccc" cx="145" cy="145" r="88" /><circle style="fill:#ccc" cx="145" cy="853" r="88" /><circle style="fill:#ccc" cx="617" cy="853" r="88" /><path style="fill:#ccc" d="M86,705 l0,-412 119,0 0,412 -119,0z" /><path style="fill:#ccc" d="M705,205 l-412,0 0,-119 412,0 0,119z" /><path style="fill:#ccc" d="M261,705 l0,-412 120,0 0,412 -120,0z" /><path style="fill:#ccc" d="M529,705 l0,-412 116,0 0,412 -116,0z" /></svg>