<!DOCTYPE svg PUBLIC "-//W3C//DTD SVG 20000303 Stylable//EN" "http://www.w3.org/TR/2000/03/WD-SVG-20000303/DTD/svg-20000303-stylable.dtd"[]><svg xmlns="http://www.w3.org/2000/svg" width="998px" height="626px" viewBox="0 0 998 604"><path style="fill:#e5e5e5;stroke:#4c4c4c;stroke-width:2" d="M18,0 l976,0 0,600 -976,0 0,-600z" /><path style="fill:#fff;stroke:#4c4c4c;stroke-width:2" d="M18,0 l976,0 0,75 -976,0 0,-75z" /><path style="fill:#fff;stroke:#4c4c4c;stroke-width:2" d="M18,525 l976,0 0,75 -976,0 0,-75z" /><path style="fill:#fff;stroke:#4c4c4c;stroke-width:2" d="M18,262 l976,0 0,75 -976,0 0,-75z" /><path style="fill:#333;stroke:#4c4c4c;stroke-width:2" d="M638,263 l-152,-1 -4,-5 -4,-6 -4,-5 -3,-5 -4,-6 -3,-6 -2,-6 -3,-6 -2,-5 -2,-6 -1,-6 -2,-7 -1,-6 -1,-6 0,-6 0,-6 0,-7 0,-6 1,-6 1,-6 2,-7 1,-6 2,-6 2,-6 3,-6 2,-6 3,-6 4,-5 3,-6 4,-5 4,-5 5,-5 152,0 4,6 4,5 4,5 3,6 3,5 3,6 3,6 2,6 3,6 2,6 1,6 2,6 0,6 1,6 1,6 0,7 0,6 -1,6 -1,7 0,6 -2,6 -1,6 -3,6 -2,6 -2,6 -3,6 -3,6 -3,5 -4,6 -4,6 -4,5 -4,5z" /><path style="fill:#000;stroke:#4c4c4c;stroke-width:2" d="M516,103 l18,0 0,66 -18,0 0,-66z" /><path style="fill:#000;stroke:#4c4c4c;stroke-width:2" d="M581,216 l0,18 -37,0 0,-19 0,-3 1,-4 2,-3 2,-3 3,-2 3,-2 3,-1 4,-1 3,1 4,1 3,2 3,2 2,3 2,3 1,4 1,4z" /><path style="fill:none;stroke:#4c4c4c;stroke-width:2" d="M590,216 l0,27 -56,1 0,-28 1,-6 2,-5 2,-5 3,-4 4,-4 5,-2 5,-2 5,-1 6,1 5,2 5,3 4,3 4,4 2,5 2,5 1,6" /><path style="fill:#7f7f7f;stroke:#4c4c4c;stroke-width:2" d="M497,178 l19,-9 18,0 0,-66 19,-10 0,85 -56,0z" /><path style="fill:none;stroke:#4c4c4c;stroke-width:2" d="M553,93 l-19,10 -18,0 0,66 -19,9 0,-85 56,0" /><path style="fill:none;stroke:#4c4c4c;stroke-width:2" d="M516,103 l-19,-10" /><path style="fill:none;stroke:#4c4c4c;stroke-width:2" d="M534,169 l19,9" /><path style="fill:#000;stroke:#4c4c4c;stroke-width:2" d="M591,103 l18,0 0,66 -18,0 0,-66z" /><path style="fill:#7f7f7f;stroke:#4c4c4c;stroke-width:2" d="M572,178 l19,-9 18,0 0,-66 19,-10 0,85 -56,0z" /><path style="fill:none;stroke:#4c4c4c;stroke-width:2" d="M628,93 l-19,10 -18,0 0,66 -19,9 0,-85 56,0" /><path style="fill:none;stroke:#4c4c4c;stroke-width:2" d="M591,103 l-19,-10" /><path style="fill:none;stroke:#4c4c4c;stroke-width:2" d="M609,169 l19,9" /><path style="fill:#7f7f7f;stroke:#4c4c4c;stroke-width:2" d="M534,244 l10,-10 37,0 0,-18 10,0 0,28 -57,0z" /><path style="fill:none;stroke:#4c4c4c;stroke-width:2" d="M581,234 l10,10" /><path style="fill:none;stroke:#4c4c4c;stroke-width:2" d="M544,216 l-10,0" /><path style="fill:#333;stroke:#4c4c4c;stroke-width:2" d="M910,262 l-152,0 -4,-6 -4,-5 -4,-5 -3,-6 -4,-5 -3,-6 -2,-6 -3,-6 -2,-6 -2,-6 -1,-6 -2,-6 -1,-6 -1,-6 0,-6 0,-6 0,-7 0,-6 1,-6 1,-7 2,-6 1,-6 2,-6 2,-6 3,-6 2,-6 3,-6 4,-6 3,-5 4,-6 4,-5 5,-5 152,1 4,5 4,6 4,5 3,6 3,5 3,6 3,6 2,6 3,6 1,6 2,6 1,6 1,6 1,6 1,6 0,7 0,6 -1,6 -1,6 -1,7 -1,6 -2,6 -2,6 -2,6 -2,6 -3,6 -3,6 -3,5 -4,6 -4,5 -4,5 -4,5z" /><path style="fill:#000;stroke:#4c4c4c;stroke-width:2" d="M787,103 l19,0 0,65 -19,0 0,-65z" /><path style="fill:#000;stroke:#4c4c4c;stroke-width:2" d="M853,215 l0,19 -37,0 0,-19 0,-4 1,-3 2,-3 2,-3 2,-3 3,-1 4,-2 4,0 3,0 4,2 3,1 3,3 2,3 2,3 1,3 1,4z" /><path style="fill:none;stroke:#4c4c4c;stroke-width:2" d="M862,216 l0,27 -56,1 0,-29 1,-5 1,-5 3,-5 3,-4 4,-4 5,-2 5,-2 5,-1 6,1 5,2 5,2 4,4 4,4 2,5 2,5 1,6" /><path style="fill:#7f7f7f;stroke:#4c4c4c;stroke-width:2" d="M769,178 l18,-10 19,0 0,-65 19,-10 0,85 -56,0z" /><path style="fill:none;stroke:#4c4c4c;stroke-width:2" d="M825,93 l-19,10 -19,0 0,65 -18,10 0,-85 56,0" /><path style="fill:none;stroke:#4c4c4c;stroke-width:2" d="M787,103 l-18,-10" /><path style="fill:none;stroke:#4c4c4c;stroke-width:2" d="M806,168 l19,10" /><path style="fill:#000;stroke:#4c4c4c;stroke-width:2" d="M863,103 l18,0 0,65 -18,0 0,-65z" /><path style="fill:#7f7f7f;stroke:#4c4c4c;stroke-width:2" d="M844,178 l19,-10 18,0 0,-65 19,-10 0,85 -56,0z" /><path style="fill:none;stroke:#4c4c4c;stroke-width:2" d="M900,93 l-19,10 -18,0 0,65 -19,10 0,-85 56,0" /><path style="fill:none;stroke:#4c4c4c;stroke-width:2" d="M863,103 l-19,-10" /><path style="fill:none;stroke:#4c4c4c;stroke-width:2" d="M881,168 l19,10" /><path style="fill:#7f7f7f;stroke:#4c4c4c;stroke-width:2" d="M806,243 l10,-9 37,0 0,-19 10,0 0,28 -57,0z" /><path style="fill:none;stroke:#4c4c4c;stroke-width:2" d="M853,234 l10,9" /><path style="fill:none;stroke:#4c4c4c;stroke-width:2" d="M816,215 l-10,0" /><path style="fill:#333;stroke:#4c4c4c;stroke-width:2" d="M638,525 l-152,-1 -4,-5 -4,-6 -4,-5 -3,-5 -4,-6 -3,-6 -2,-6 -3,-6 -2,-5 -2,-6 -1,-6 -2,-7 -1,-6 -1,-6 0,-6 0,-6 0,-6 0,-7 1,-6 1,-6 2,-7 1,-6 2,-6 2,-6 3,-6 2,-6 3,-6 4,-5 3,-6 4,-5 4,-5 5,-5 152,1 4,5 4,5 4,5 3,6 3,6 3,5 3,6 2,6 3,6 2,6 1,6 2,6 0,6 1,7 1,6 0,6 0,6 -1,6 -1,7 0,6 -2,6 -1,6 -3,6 -2,6 -2,6 -3,6 -3,6 -3,6 -4,5 -4,6 -4,5 -4,5z" /><path style="fill:#000;stroke:#4c4c4c;stroke-width:2" d="M516,365 l18,0 0,66 -18,0 0,-66z" /><path style="fill:#000;stroke:#4c4c4c;stroke-width:2" d="M581,478 l0,18 -37,0 0,-19 0,-3 1,-4 2,-3 2,-3 3,-2 3,-2 3,-1 4,-1 3,1 4,1 3,2 3,2 2,3 2,3 1,4 1,4z" /><path style="fill:none;stroke:#4c4c4c;stroke-width:2" d="M590,478 l0,27 -56,1 0,-28 1,-6 2,-5 2,-5 3,-4 4,-4 5,-2 5,-2 5,-1 6,1 5,2 5,3 4,3 4,4 2,5 2,5 1,6" /><path style="fill:#7f7f7f;stroke:#4c4c4c;stroke-width:2" d="M497,440 l19,-9 18,0 0,-66 19,-9 0,84 -56,0z" /><path style="fill:none;stroke:#4c4c4c;stroke-width:2" d="M553,356 l-19,9 -18,0 0,66 -19,9 0,-84 56,0" /><path style="fill:none;stroke:#4c4c4c;stroke-width:2" d="M516,365 l-19,-9" /><path style="fill:none;stroke:#4c4c4c;stroke-width:2" d="M534,431 l19,9" /><path style="fill:#000;stroke:#4c4c4c;stroke-width:2" d="M591,365 l18,0 0,66 -18,0 0,-66z" /><path style="fill:#7f7f7f;stroke:#4c4c4c;stroke-width:2" d="M572,440 l19,-9 18,0 0,-66 19,-9 0,84 -56,0z" /><path style="fill:none;stroke:#4c4c4c;stroke-width:2" d="M628,356 l-19,9 -18,0 0,66 -19,9 0,-84 56,0" /><path style="fill:none;stroke:#4c4c4c;stroke-width:2" d="M591,365 l-19,-9" /><path style="fill:none;stroke:#4c4c4c;stroke-width:2" d="M609,431 l19,9" /><path style="fill:#7f7f7f;stroke:#4c4c4c;stroke-width:2" d="M534,506 l10,-10 37,0 0,-18 10,0 0,28 -57,0z" /><path style="fill:none;stroke:#4c4c4c;stroke-width:2" d="M581,496 l10,10" /><path style="fill:none;stroke:#4c4c4c;stroke-width:2" d="M544,478 l-10,0" /><path style="fill:#333;stroke:#4c4c4c;stroke-width:2" d="M910,525 l-152,-1 -4,-5 -4,-6 -4,-5 -3,-6 -4,-5 -3,-6 -2,-6 -3,-6 -2,-6 -2,-6 -1,-6 -2,-6 -1,-6 -1,-6 0,-6 0,-6 0,-7 0,-6 1,-6 1,-7 2,-6 1,-6 2,-6 2,-6 3,-6 2,-6 3,-6 4,-6 3,-5 4,-5 4,-6 5,-5 152,1 4,5 4,6 4,5 3,6 3,5 3,6 3,6 2,6 3,6 1,6 2,6 1,6 1,6 1,6 1,6 0,7 0,6 -1,6 -1,6 -1,7 -1,6 -2,6 -2,6 -2,6 -2,6 -3,6 -3,6 -3,5 -4,6 -4,5 -4,5 -4,6z" /><path style="fill:#000;stroke:#4c4c4c;stroke-width:2" d="M787,365 l19,0 0,65 -19,0 0,-65z" /><path style="fill:#000;stroke:#4c4c4c;stroke-width:2" d="M853,477 l0,19 -37,0 0,-19 0,-4 1,-3 2,-3 2,-3 2,-3 3,-1 4,-2 4,0 3,0 4,2 3,1 3,3 2,3 2,3 1,3 1,4z" /><path style="fill:none;stroke:#4c4c4c;stroke-width:2" d="M862,478 l0,27 -56,1 0,-29 1,-5 1,-5 3,-5 3,-4 4,-4 5,-2 5,-2 5,-1 6,1 5,2 5,2 4,4 4,4 2,5 2,5 1,6" /><path style="fill:#7f7f7f;stroke:#4c4c4c;stroke-width:2" d="M769,440 l18,-10 19,0 0,-65 19,-10 0,85 -56,0z" /><path style="fill:none;stroke:#4c4c4c;stroke-width:2" d="M825,355 l-19,10 -19,0 0,65 -18,10 0,-85 56,0" /><path style="fill:none;stroke:#4c4c4c;stroke-width:2" d="M787,365 l-18,-10" /><path style="fill:none;stroke:#4c4c4c;stroke-width:2" d="M806,430 l19,10" /><path style="fill:#000;stroke:#4c4c4c;stroke-width:2" d="M863,365 l18,0 0,65 -18,0 0,-65z" /><path style="fill:#7f7f7f;stroke:#4c4c4c;stroke-width:2" d="M844,440 l19,-10 18,0 0,-65 19,-10 0,85 -56,0z" /><path style="fill:none;stroke:#4c4c4c;stroke-width:2" d="M900,355 l-19,10 -18,0 0,65 -19,10 0,-85 56,0" /><path style="fill:none;stroke:#4c4c4c;stroke-width:2" d="M863,365 l-19,-10" /><path style="fill:none;stroke:#4c4c4c;stroke-width:2" d="M881,430 l19,10" /><path style="fill:#7f7f7f;stroke:#4c4c4c;stroke-width:2" d="M806,505 l10,-9 37,0 0,-19 10,0 0,28 -57,0z" /><path style="fill:none;stroke:#4c4c4c;stroke-width:2" d="M853,496 l10,9" /><path style="fill:none;stroke:#4c4c4c;stroke-width:2" d="M816,477 l-10,0" /><circle style="fill:#333;stroke:#4c4c4c;stroke-width:2" cx="562" cy="299" r="18" /><path style="fill:#000;stroke:#4c4c4c;stroke-width:2" d="M558,286 l9,0 0,27 -9,0 0,-27z" /><path style="fill:#000;stroke:#4c4c4c;stroke-width:2" d="M548,295 l28,0 0,9 -28,0 0,-9z" /><circle style="fill:#333;stroke:#4c4c4c;stroke-width:2" cx="834" cy="299" r="19" /><path style="fill:#000;stroke:#4c4c4c;stroke-width:2" d="M821,293 l6,-7 20,20 -6,7 -20,-20z" /><path style="fill:#000;stroke:#4c4c4c;stroke-width:2" d="M820,306 l21,-20 6,7 -20,20 -7,-7z" /><path style="fill:#7f7f7f" d="M32,37 l160,0 0,19 -160,0 0,-19z" /><path style="fill:#000;stroke:#4c4c4c;stroke-width:2" d="M994,9 l4,0 0,37 -4,0 0,-37z" /><path style="fill:#000;stroke:#4c4c4c;stroke-width:2" d="M994,591 l4,0 0,-38 -4,0 0,38z" /><path style="fill:#000" d="M994,75 l0,-5 -976,0 0,9 976,0 0,-4z" /><path style="fill:#000" d="M994,337 l0,-4 -976,0 0,8 976,0 0,-4z" /><path style="fill:#000" d="M994,600 l0,-4 -976,0 0,8 976,0 0,-4z" /><path style="fill:none;stroke:#4c4c4c;stroke-width:2" d="M75,516 l0,-94 159,0" /><path style="fill:none;stroke:#fff;stroke-width:2" d="M75,516 l159,0 0,-94" /><path style="fill:#000;stroke:#4c4c4c;stroke-width:2" d="M93,440 l122,0 0,57 -122,0 0,-57z" /><path style="fill:#7f7f7f;stroke:#4c4c4c;stroke-width:2" d="M154,489 l0,-41 31,5 0,41 -31,-5z" /><path style="fill:#333;stroke:#4c4c4c;stroke-width:2" d="M185,453 l26,-5 0,40 -26,6 0,-41z" /><path style="fill:#7f7f7f;stroke:#4c4c4c;stroke-width:2" d="M98,489 l0,-41 31,5 0,41 -31,-5z" /><path style="fill:#333;stroke:#4c4c4c;stroke-width:2" d="M129,453 l25,-5 0,40 -25,6 0,-41z" /><path style="fill:none;stroke:#7f7f7f;stroke-width:2" d="M98,448 l113,0" /><path style="fill:#333;stroke:#4c4c4c;stroke-width:2" d="M56,548 l178,0 0,28 -178,0 0,-28z" /><path style="fill:#000;stroke:#4c4c4c;stroke-width:2" d="M0,121 l18,0 0,85 -18,0 0,-85z" /></svg>