<!DOCTYPE svg PUBLIC "-//W3C//DTD SVG 20000303 Stylable//EN" "http://www.w3.org/TR/2000/03/WD-SVG-20000303/DTD/svg-20000303-stylable.dtd"[]><svg xmlns="http://www.w3.org/2000/svg" width="999px" height="628px" viewBox="0 0 999 606"><path style="fill:#fff;stroke:#4c4c4c;stroke-width:2" d="M0,0 l0,606 999,0 0,-606 -999,0z" /><path style="fill:#7f7f7f;stroke:#4c4c4c;stroke-width:2" d="M47,348 l2,-10 0,-10 3,-9 3,-9 3,-10 3,-9 2,-8 6,-9 3,-8 5,-8 8,-8 6,-8 6,-7 5,-7 8,-7 9,-6 5,-6 11,-6 9,-5 8,-5 9,-5 8,-4 11,-4 8,-3 11,-4 11,-2 11,-2 12,-2 11,-1 11,-1 11,0 11,0 11,1 11,1 11,2 9,2 11,2 11,4 8,3 11,4 9,4 8,5 11,5 8,5 9,6 5,6 8,6 9,7 5,7 9,7 5,8 6,8 5,8 6,8 3,9 5,8 3,9 3,10 3,9 0,9 2,10 0,10 0,10 0,10 0,10 -2,9 0,10 -3,9 -3,9 -3,9 -5,9 -3,8 -6,9 -5,8 -6,8 -5,7 -9,7 -5,8 -9,6 -8,7 -5,6 -9,5 -8,6 -11,5 -8,5 -9,4 -11,4 -8,3 -11,3 -11,3 -9,2 -11,2 -11,1 -11,0 -11,1 -11,-1 -11,0 -11,-1 -12,-2 -11,-2 -11,-3 -11,-3 -8,-3 -11,-4 -8,-4 -9,-5 -8,-5 -9,-6 -11,-5 -5,-6 -9,-7 -8,-6 -5,-8 -6,-7 -6,-7 -8,-8 -5,-8 -3,-9 -6,-8 -2,-9 -3,-9 -3,-9 -3,-9 -3,-10 0,-9 -2,-10 0,-10 0,-10z" /><ellipse style="fill:#7f7f7f;stroke:#4c4c4c;stroke-width:2" cx="733" cy="358" rx="217" ry="193" /><ellipse style="fill:#fff;stroke:#4c4c4c;stroke-width:2" cx="264" cy="358" rx="62" ry="55" /><ellipse style="fill:#fff;stroke:#4c4c4c;stroke-width:2" cx="733" cy="358" rx="62" ry="55" /><path style="fill:none;stroke:#4c4c4c;stroke-width:2" d="M374,0 l61,55 564,0" /><path style="fill:#828282;stroke:#4c4c4c;stroke-width:2" d="M33,74 l0,-2 0,-2 0,-2 0,-1 0,-2 0,-2 3,-1 0,-2 0,-1 0,-2 2,-1 0,-1 3,-2 0,-1 0,-1 3,-1 0,-1 3,-1 2,-1 0,-1 3,-1 0,-1 3,-1 3,0 0,-1 3,0 0,0 2,-1 3,0 3,0 3,0 2,0 0,0 3,1 3,0 3,0 0,1 2,0 3,1 0,1 3,1 0,1 3,1 3,1 0,1 0,1 2,1 0,1 3,2 0,1 0,1 3,2 0,1 0,2 3,1 0,2 0,2 0,1 0,2 0,2 0,2 0,1 0,2 0,2 0,2 0,1 0,2 0,1 0,2 -3,2 0,1 0,2 -3,1 0,2 0,1 -3,1 0,1 -2,2 0,1 0,1 -3,1 -3,1 0,1 -3,1 0,0 -3,1 -2,1 0,0 -3,1 -3,0 -3,0 0,0 -2,1 -3,0 -3,-1 -3,0 -2,0 0,0 -3,-1 0,0 -3,-1 -3,-1 0,0 -3,-1 0,-1 -2,-1 -3,-1 0,-1 -3,-1 0,-2 0,-1 -3,-1 0,-1 -2,-2 0,-1 0,-2 0,-1 -3,-2 0,-2 0,-1 0,-2 0,-1 0,-2 0,-2 0,-2 0,-1z" /><path style="fill:none;stroke:#4c4c4c;stroke-width:2" d="M108,220 l266,-193 500,0 77,289" /><path style="fill:#828282;stroke:#4c4c4c;stroke-width:2" d="M344,66 l0,-2 0,-2 0,-2 0,-2 0,-2 2,-2 0,-2 0,-2 3,-1 0,-2 3,-2 0,-1 3,-2 0,-1 2,-2 0,-1 3,-2 0,-1 3,-1 3,-1 3,-1 0,-1 2,-1 3,-1 3,0 0,-1 3,0 2,0 3,-1 3,0 3,0 2,0 3,1 3,0 3,0 3,1 0,0 2,1 3,1 3,1 3,1 0,1 2,1 0,1 3,2 3,1 0,2 3,1 0,2 3,1 0,2 2,2 0,1 0,2 3,2 0,2 0,2 0,2 0,2 0,2 0,2 0,2 0,3 0,1 0,3 0,2 0,2 0,2 0,2 -3,1 0,2 0,2 -2,2 0,2 -3,1 0,2 -3,1 0,2 -3,1 -3,1 0,2 -2,1 0,1 -3,1 -3,1 -3,0 -2,1 0,1 -3,0 -3,1 -3,0 -3,0 -2,1 -3,0 -3,-1 -3,0 -2,0 -3,-1 0,0 -3,-1 -3,-1 -2,0 0,-1 -3,-1 -3,-1 -3,-1 0,-2 -3,-1 0,-1 -2,-2 0,-1 -3,-2 0,-1 -3,-2 0,-2 -3,-2 0,-2 0,-1 -2,-2 0,-2 0,-2 0,-2 0,-3 0,-1 0,-3 0,-2z" /><ellipse style="fill:#828282;stroke:#4c4c4c;stroke-width:2" cx="850" cy="47" rx="24" ry="20" /></svg>