<!DOCTYPE svg PUBLIC "-//W3C//DTD SVG 20000303 Stylable//EN" "http://www.w3.org/TR/2000/03/WD-SVG-20000303/DTD/svg-20000303-stylable.dtd"[]><svg xmlns="http://www.w3.org/2000/svg" width="370px" height="999px" viewBox="0 0 333 999"><path style="fill:#c1c1c1;stroke:#4c4c4c;stroke-width:2" d="M0,138 l333,0 0,861 -333,0 0,-861z" /><path style="fill:#c1c1c1;stroke:#4c4c4c;stroke-width:2" d="M27,166 l278,0 0,833 -278,0 0,-833z" /><path style="fill:#828282;stroke:#4c4c4c;stroke-width:2" d="M27,208 l278,0 0,97 -278,0 0,-97z" /><path style="fill:#828282;stroke:#4c4c4c;stroke-width:2" d="M27,305 l278,0 0,97 -278,0 0,-97z" /><path style="fill:#000;stroke:#4c4c4c;stroke-width:2" d="M55,249 l222,0 0,14 -222,0 0,-14z" /><path style="fill:#000;stroke:#4c4c4c;stroke-width:2" d="M55,333 l222,0 0,41 -222,0 0,-41z" /><path style="fill:#fff;stroke:#4c4c4c;stroke-width:2" d="M55,0 l222,0 56,138 -333,0 55,-138z" /><path style="fill:#c1c1c1;stroke:#4c4c4c;stroke-width:2" d="M235,333 l70,0 0,41 -70,0 0,-41z" /><path style="fill:#c1c1c1;stroke:#4c4c4c;stroke-width:2" d="M263,333 l14,0 0,41 -14,0 0,-41z" /><path style="fill:#c1c1c1;stroke:#4c4c4c;stroke-width:2" d="M263,221 l-55,0 0,14 55,0 0,-14z" /><circle style="fill:#c1c1c1;stroke:#4c4c4c;stroke-width:2" cx="263" cy="235" r="14" /></svg>