<!DOCTYPE svg PUBLIC "-//W3C//DTD SVG 20000303 Stylable//EN" "http://www.w3.org/TR/2000/03/WD-SVG-20000303/DTD/svg-20000303-stylable.dtd"[]><svg xmlns="http://www.w3.org/2000/svg" width="527px" height="999px" viewBox="0 0 499 999"><path style="fill:#fff;stroke:#4c4c4c;stroke-width:2" d="M297,999 l0,-999 -297,0 0,999 297,0z" /><path style="fill:#fff;stroke:#4c4c4c;stroke-width:2" d="M297,999 l0,-999 202,70 0,804 -202,125z" /><path style="fill:#e5e5e5" d="M266,717 l0,-693 -242,0 0,693 242,0z" /><path style="fill:#000" d="M266,27 l-4,-3 0,693 8,0 0,-693 -4,-5 4,5 -2,-4 -2,-1 -2,1 -2,4 4,3z" /><path style="fill:#000" d="M27,24 l-3,3 242,0 0,-8 -242,0 -5,5 5,-5 -4,1 0,4 0,1 4,2 3,-3z" /><path style="fill:#000" d="M24,714 l3,3 0,-693 -8,0 0,693 5,4 -5,-4 1,2 4,1 1,-1 2,-2 -3,-3z" /><path style="fill:#000" d="M262,717 l4,-3 -242,0 0,7 242,0 4,-4 -4,4 2,-2 2,-2 -2,-2 -2,-1 -4,3z" /><path style="fill:#000" d="M264,660 l2,-1 0,-3 0,-2 -2,0 0,6z" /><path style="fill:#000" d="M53,657 l-3,3 214,0 0,-6 -214,0 -3,2 3,-2 -2,0 -1,2 1,3 2,1 3,-3z" /><path style="fill:#000" d="M24,717 l2,1 27,-61 -6,-1 -27,61 4,0z" /><path style="fill:#000" d="M20,717 l0,2 2,1 3,-1 1,-1 -6,-1z" /><path style="fill:#000" d="M47,656 l1,3 2,1 3,-1 0,-3 -6,0z" /><path style="fill:#000" d="M50,44 l-3,0 0,612 6,0 0,-612 -3,0z" /><path style="fill:#000" d="M53,44 l0,-2 -3,-1 -2,1 -1,2 6,0z" /><path style="fill:#fff" d="M50,157 l-25,56 241,0 0,-56 -216,0z" /><path style="fill:#000" d="M25,210 l3,4 25,-57 -6,-1 -25,56 3,4 -3,-4 2,3 1,1 2,0 1,-2 -3,-4z" /><path style="fill:#000" d="M262,213 l4,-3 -241,0 0,6 241,0 3,-3 -3,3 2,0 1,-3 -1,-2 -2,-1 -4,3z" /><path style="fill:#000" d="M266,159 l-4,-2 0,56 7,0 0,-56 -3,-4 3,4 -1,-2 -2,-2 -2,2 -2,2 4,2z" /><path style="fill:#000" d="M53,157 l-3,2 216,0 0,-6 -216,0 -3,3 3,-3 -2,2 -1,2 1,2 2,0 3,-2z" /><path style="fill:#000" d="M266,213 l-241,0 23,11 218,0 0,-11z" /><path style="fill:#fff" d="M50,270 l-25,55 241,0 0,-55 -216,0z" /><path style="fill:#000" d="M25,323 l3,3 25,-56 -6,-1 -25,56 3,4 -3,-4 2,2 1,2 2,-2 1,-1 -3,-3z" /><path style="fill:#000" d="M262,325 l4,-2 -241,0 0,6 241,0 3,-4 -3,4 2,-2 1,-2 -1,-2 -2,0 -4,2z" /><path style="fill:#000" d="M266,272 l-4,-2 0,55 7,0 0,-55 -3,-4 3,4 -1,-2 -2,-2 -2,2 -2,2 4,2z" /><path style="fill:#000" d="M53,270 l-3,2 216,0 0,-6 -216,0 -3,3 3,-3 -2,2 -1,2 1,1 2,1 3,-2z" /><path style="fill:#000" d="M266,325 l-241,0 23,12 218,0 0,-12z" /><path style="fill:#fff" d="M50,45 l-25,57 241,0 0,-57 -216,0z" /><path style="fill:#000" d="M25,99 l3,4 25,-57 -6,-2 -25,57 3,4 -3,-4 2,2 1,2 2,-1 1,-1 -3,-4z" /><path style="fill:#000" d="M262,102 l4,-3 -241,0 0,6 241,0 3,-3 -3,3 2,-1 1,-2 -1,-3 -2,0 -4,3z" /><path style="fill:#000" d="M266,48 l-4,-3 0,57 7,0 0,-57 -3,-3 3,3 -1,-2 -2,-1 -2,1 -2,2 4,3z" /><path style="fill:#000" d="M53,46 l-3,2 216,0 0,-6 -216,0 -3,2 3,-2 -2,1 -1,2 1,2 2,1 3,-2z" /><path style="fill:#000" d="M266,102 l-241,0 23,10 218,0 0,-10z" /><path style="fill:#000" d="M24,24 l242,0 0,21 -216,0 -26,-21z" /><path style="fill:#000" d="M185,199 l0,-7 64,0 2,-13 -65,0 0,-9 -59,0 -2,9 -63,0 -3,13 64,0 -1,7 63,0z" /><path style="fill:#000" d="M234,62 l-12,40 -36,0 12,-40 36,0z" /><path style="fill:#99f" d="M266,835 l0,-55 -242,0 0,55 242,0z" /><path style="fill:#99f" d="M266,921 l0,-55 -242,0 0,55 242,0z" /><path style="fill:#fff;stroke:#4c4c4c;stroke-width:2" d="M70,363 l175,0 0,270 -175,0 0,-270z" /></svg>