<!DOCTYPE svg PUBLIC "-//W3C//DTD SVG 20000303 Stylable//EN" "http://www.w3.org/TR/2000/03/WD-SVG-20000303/DTD/svg-20000303-stylable.dtd"[]><svg xmlns="http://www.w3.org/2000/svg" width="643px" height="999px" viewBox="0 0 621 999"><path style="fill:#c1c1c1;stroke:#4c4c4c;stroke-width:2" d="M0,169 l0,830 621,0 0,-830 -621,0z" /><path style="fill:#000;stroke:#4c4c4c;stroke-width:2" d="M56,263 l0,57 57,0 0,-57 -57,0z" /><path style="fill:#828282;stroke:#4c4c4c;stroke-width:2" d="M56,320 l0,57 57,0 0,-57 -57,0z" /><path style="fill:none;stroke:#4c4c4c;stroke-width:2" d="M56,527 l0,340 490,0 0,-340 -490,0" /><path style="fill:#fff;stroke:#4c4c4c;stroke-width:2" d="M0,169 l94,-169 433,0 94,169 -621,0z" /><path style="fill:#828282;stroke:#c1c1c1;stroke-width:2" d="M243,422 l-33,27 0,0 31,-29 2,2z" /><path style="fill:#828282;stroke:#c1c1c1;stroke-width:2" d="M351,349 l3,3 -25,23 -2,-24 -19,16 -3,-4 24,-23 4,24 18,-15z" /><path style="fill:#828282;stroke:#c1c1c1;stroke-width:2" d="M449,266 l0,0 -32,29 -1,-1 33,-28z" /><path style="fill:none;stroke:#4c4c4c;stroke-width:2" d="M207,452 l122,-112 4,24 119,-101 -123,112 -2,-24 -120,101" /><path style="fill:none;stroke:#4c4c4c;stroke-width:2" d="M207,452 l122,-112 4,24 119,-101 -123,112 -2,-24 -120,101" /><path style="fill:#828282;stroke:#4c4c4c;stroke-width:2" d="M121,565 l-10,9 0,76 10,9 57,0 10,-9 0,-75 -10,-10 -57,0z" /><path style="fill:#c1c1c1;stroke:#4c4c4c;stroke-width:2" d="M124,569 l-9,9 0,68 9,9 51,0 9,-9 0,-68 -9,-9 -51,0z" /><path style="fill:#000;stroke:#4c4c4c;stroke-width:2" d="M164,593 l0,21 5,0 0,-21 -5,0z" /><path style="fill:#000;stroke:#4c4c4c;stroke-width:2" d="M130,593 l0,21 4,0 0,-21 -4,0z" /><path style="fill:#000;stroke:#4c4c4c;stroke-width:2" d="M146,633 l2,0 1,0 1,0 2,0 4,0 0,-7 -3,-3 -7,0 -4,3 0,7 4,0z" /><path style="fill:#828282;stroke:#4c4c4c;stroke-width:2" d="M422,565 l-10,9 0,76 10,9 58,0 10,-9 0,-75 -10,-10 -58,0z" /><path style="fill:#c1c1c1;stroke:#4c4c4c;stroke-width:2" d="M425,569 l-8,9 0,68 8,9 52,0 8,-9 0,-68 -8,-9 -52,0z" /><path style="fill:#000;stroke:#4c4c4c;stroke-width:2" d="M466,593 l0,21 4,0 0,-21 -4,0z" /><path style="fill:#000;stroke:#4c4c4c;stroke-width:2" d="M432,593 l0,21 4,0 0,-21 -4,0z" /><path style="fill:#000;stroke:#4c4c4c;stroke-width:2" d="M448,633 l2,0 1,0 1,0 2,0 4,0 0,-7 -3,-3 -8,0 -3,3 0,7 4,0z" /><path style="fill:#828282;stroke:#4c4c4c;stroke-width:2" d="M271,565 l-9,9 0,76 9,9 58,0 10,-9 0,-75 -10,-10 -58,0z" /><path style="fill:#c1c1c1;stroke:#4c4c4c;stroke-width:2" d="M275,569 l-9,9 0,68 9,9 51,0 8,-9 0,-68 -8,-9 -51,0z" /><path style="fill:#000;stroke:#4c4c4c;stroke-width:2" d="M315,593 l0,21 5,0 0,-21 -5,0z" /><path style="fill:#000;stroke:#4c4c4c;stroke-width:2" d="M281,593 l0,21 4,0 0,-21 -4,0z" /><path style="fill:#000;stroke:#4c4c4c;stroke-width:2" d="M297,633 l2,0 1,0 1,0 2,0 4,0 0,-7 -3,-3 -7,0 -4,3 0,7 4,0z" /><path style="fill:#828282;stroke:#4c4c4c;stroke-width:2" d="M121,697 l-10,9 0,75 10,10 57,0 10,-9 0,-75 -10,-10 -57,0z" /><path style="fill:#c1c1c1;stroke:#4c4c4c;stroke-width:2" d="M124,701 l-9,9 0,68 9,9 51,0 9,-9 0,-68 -9,-9 -51,0z" /><path style="fill:#000;stroke:#4c4c4c;stroke-width:2" d="M164,725 l0,21 5,0 0,-21 -5,0z" /><path style="fill:#000;stroke:#4c4c4c;stroke-width:2" d="M130,725 l0,21 4,0 0,-21 -4,0z" /><path style="fill:#000;stroke:#4c4c4c;stroke-width:2" d="M146,765 l2,0 1,0 1,0 2,0 4,0 0,-7 -3,-3 -7,0 -4,3 0,7 4,0z" /><path style="fill:#828282;stroke:#4c4c4c;stroke-width:2" d="M271,697 l-9,9 0,75 9,10 58,0 10,-9 0,-75 -10,-10 -58,0z" /><path style="fill:#c1c1c1;stroke:#4c4c4c;stroke-width:2" d="M275,701 l-9,9 0,68 9,9 51,0 8,-9 0,-68 -8,-9 -51,0z" /><path style="fill:#000;stroke:#4c4c4c;stroke-width:2" d="M315,725 l0,21 5,0 0,-21 -5,0z" /><path style="fill:#000;stroke:#4c4c4c;stroke-width:2" d="M281,725 l0,21 4,0 0,-21 -4,0z" /><path style="fill:#000;stroke:#4c4c4c;stroke-width:2" d="M297,765 l2,0 1,0 1,0 2,0 4,0 0,-7 -3,-3 -7,0 -4,3 0,7 4,0z" /><path style="fill:#828282;stroke:#4c4c4c;stroke-width:2" d="M422,697 l-10,9 0,75 10,10 58,0 10,-9 0,-75 -10,-10 -58,0z" /><path style="fill:#c1c1c1;stroke:#4c4c4c;stroke-width:2" d="M425,701 l-8,9 0,68 8,9 52,0 8,-9 0,-68 -8,-9 -52,0z" /><path style="fill:#000;stroke:#4c4c4c;stroke-width:2" d="M466,725 l0,21 4,0 0,-21 -4,0z" /><path style="fill:#000;stroke:#4c4c4c;stroke-width:2" d="M432,725 l0,21 4,0 0,-21 -4,0z" /><path style="fill:#000;stroke:#4c4c4c;stroke-width:2" d="M448,765 l2,0 1,0 1,0 2,0 4,0 0,-7 -3,-3 -8,0 -3,3 0,7 4,0z" /></svg>