<!DOCTYPE svg PUBLIC "-//W3C//DTD SVG 20000303 Stylable//EN" "http://www.w3.org/TR/2000/03/WD-SVG-20000303/DTD/svg-20000303-stylable.dtd"[]><svg xmlns="http://www.w3.org/2000/svg" width="999px" height="527px" viewBox="0 0 999 499"><path style="fill:#adad84" d="M31,499 l54,-47 828,0 15,-15 71,31 -32,31 -936,0z" /><path style="fill:#d7d7c2" d="M31,499 l54,-47 -15,-15 0,-399 -70,-7 0,437 31,31z" /><path style="fill:#ebebe1" d="M967,0 l-54,23 -828,0 -15,15 -70,-7 31,-31 936,0z" /><path style="fill:#d7d7c2" d="M967,0 l-54,23 15,15 0,399 71,31 0,-437 -32,-31z" /><path style="fill:none;stroke:#4c4c4c;stroke-width:2" d="M0,31 l31,-31 936,0 32,31 0,437 -32,31 -936,0 -31,-31 0,-437" /><path style="fill:#ebebe1;stroke:#adad84;stroke-width:2" d="M70,38 l15,-15 828,0 15,15 0,398 -15,16 -828,0 -15,-16 0,-398z" /><path style="fill:#e1e1d1" d="M156,62 l-32,31 -31,109 -15,-15 0,-141 15,-15 640,0 16,15 -593,16z" /><path style="fill:none;stroke:#fff;stroke-width:2" d="M70,436 l0,-398 15,-15 828,0" /><path style="fill:#e1e1d1" d="M764,335 l78,-117 63,-187 15,15 0,383 -15,15 -812,0 -16,-15 687,-94z" /></svg>