<!DOCTYPE svg PUBLIC "-//W3C//DTD SVG 20000303 Stylable//EN" "http://www.w3.org/TR/2000/03/WD-SVG-20000303/DTD/svg-20000303-stylable.dtd"[]><svg xmlns="http://www.w3.org/2000/svg" width="999px" height="818px" viewBox="0 0 999 807"><path style="fill:#e5e5e5;stroke:#4c4c4c;stroke-width:2" d="M891,57 l108,0 0,20 -108,0 0,-20z" /><path style="fill:#e5e5e5;stroke:#4c4c4c;stroke-width:2" d="M891,77 l-429,429 0,-20 429,-429 0,20z" /><path style="fill:#e5e5e5;stroke:#4c4c4c;stroke-width:2" d="M355,486 l107,0 0,20 -107,0 0,-20z" /><path style="fill:#e5e5e5;stroke:#4c4c4c;stroke-width:2" d="M355,506 l-302,301 -17,0 319,-321 0,20z" /><path style="fill:#e5e5e5;stroke:#4c4c4c;stroke-width:2" d="M355,791 l0,-285 107,0 0,285 -7,0 0,-279 -90,0 0,19 0,16 0,14 0,13 0,11 0,10 0,9 0,7 0,6 0,6 0,5 0,4 0,4 0,3 0,3 0,3 0,3 0,4 0,3 0,4 0,5 0,5 0,7 0,7 0,8 0,9 0,11 0,13 0,14 0,15 0,18 0,20 -10,0z" /><path style="fill:#e5e5e5;stroke:#4c4c4c;stroke-width:2" d="M891,187 l0,-110 108,0 0,110 -11,0 0,-104 -87,0 0,18 0,15 0,12 0,10 0,7 0,5 0,4 0,1 0,0 0,-1 0,-2 0,-3 0,-4 0,-5 0,-5 0,-5 0,-5 0,-4 0,-5 0,-3 0,-3 0,-2 0,-1 0,1 0,2 0,4 0,6 0,9 0,10 0,13 0,16 0,19 -10,0z" /><path style="fill:#b2b2b2;stroke:#4c4c4c;stroke-width:2" d="M365,569 l90,0 0,10 -90,0 0,-10z" /><path style="fill:#b2b2b2;stroke:#4c4c4c;stroke-width:2" d="M365,704 l90,0 0,10 -90,0 0,-10z" /><path style="fill:#b2b2b2;stroke:#4c4c4c;stroke-width:2" d="M365,637 l90,0 0,10 -90,0 0,-10z" /><path style="fill:#b2b2b2;stroke:#4c4c4c;stroke-width:2" d="M901,144 l87,0 0,6 -87,0 0,-6z" /><path style="fill:#7f7f7f;stroke:#4c4c4c;stroke-width:2" d="M365,569 l37,-26 -37,-31 10,0 34,24 36,-24 10,0 -36,31 36,26 -10,0 -36,-16 -34,16 -10,0z" /><path style="fill:#7f7f7f;stroke:#4c4c4c;stroke-width:2" d="M365,637 l37,-27 -37,-31 10,0 34,24 36,-24 10,0 -36,31 36,27 -10,0 -36,-17 -34,17 -10,0z" /><path style="fill:#7f7f7f;stroke:#4c4c4c;stroke-width:2" d="M365,704 l37,-27 -37,-30 10,0 34,23 36,-23 10,0 -36,30 36,27 -10,0 -36,-17 -34,17 -10,0z" /><path style="fill:#7f7f7f;stroke:#4c4c4c;stroke-width:2" d="M365,771 l37,-27 -37,-30 10,0 34,23 36,-23 10,0 -36,30 36,27 -10,0 -36,-17 -34,17 -10,0z" /><path style="fill:#7f7f7f;stroke:#4c4c4c;stroke-width:2" d="M901,144 l34,-27 -34,-34 7,0 37,24 37,-24 6,0 -33,34 33,27 -6,0 -37,-20 -37,20 -7,0z" /><path style="fill:none;stroke:#4c4c4c;stroke-width:2" d="M891,30 l108,0" /><path style="fill:none;stroke:#4c4c4c;stroke-width:2" d="M462,486 l0,-54 54,0 0,-54 53,0 0,-53 54,0 0,-54 54,0 0,-54 53,0 0,-53 54,0 0,-54 54,0 0,-53 53,0 0,-51" /><path style="fill:none;stroke:#4c4c4c;stroke-width:2" d="M355,459 l107,0" /><path style="fill:none;stroke:#4c4c4c;stroke-width:2" d="M355,432 l0,54 -54,0 0,53 -50,0 0,54 -54,0 0,54 -53,0 0,53 -54,0 0,54 -54,0 0,53" /><path style="fill:#999;stroke:#4c4c4c;stroke-width:2" d="M0,791 l0,-7 355,-355 107,0 429,-429 108,0 0,6 -108,0 -429,426 -107,0 -355,359z" /></svg>