<!DOCTYPE svg PUBLIC "-//W3C//DTD SVG 20000303 Stylable//EN" "http://www.w3.org/TR/2000/03/WD-SVG-20000303/DTD/svg-20000303-stylable.dtd"[]><svg xmlns="http://www.w3.org/2000/svg" width="227px" height="999px" viewBox="0 0 181 999"><path style="fill:#963;stroke:#4c4c4c;stroke-width:2" d="M0,999 l24,-999 133,0 24,999 -181,0z" /><path style="fill:#c63" d="M12,999 l16,-999 100,0 21,999 -137,0z" /><path style="fill:#f63" d="M32,999 l8,-999 52,0 8,999 -68,0z" /><path style="fill:none;stroke:#4c4c4c;stroke-width:2" d="M0,999 l24,-999 133,0 24,999 -181,0" /><ellipse style="fill:#c63;stroke:#4c4c4c;stroke-width:2" cx="90" cy="4" rx="66" ry="4" /><ellipse style="fill:#000;stroke:#4c4c4c;stroke-width:2" cx="90" cy="2" rx="50" ry="2" /><path style="fill:none;stroke:#630;stroke-width:2" d="M24,44 l133,0" /><path style="fill:none;stroke:#630;stroke-width:2" d="M24,88 l133,0" /><path style="fill:none;stroke:#630;stroke-width:2" d="M24,136 l133,0" /><path style="fill:none;stroke:#630;stroke-width:2" d="M24,181 l133,0" /><path style="fill:none;stroke:#630;stroke-width:2" d="M24,225 l133,0" /><path style="fill:none;stroke:#630;stroke-width:2" d="M24,273 l133,0" /><path style="fill:none;stroke:#630;stroke-width:2" d="M24,318 l133,0" /><path style="fill:none;stroke:#630;stroke-width:2" d="M24,362 l133,0" /><path style="fill:none;stroke:#630;stroke-width:2" d="M24,406 l133,0" /><path style="fill:none;stroke:#630;stroke-width:2" d="M24,455 l133,0" /><path style="fill:none;stroke:#630;stroke-width:2" d="M24,499 l133,0" /><path style="fill:none;stroke:#630;stroke-width:2" d="M24,543 l133,0" /><path style="fill:none;stroke:#630;stroke-width:2" d="M24,588 l133,0" /><path style="fill:none;stroke:#630;stroke-width:2" d="M24,636 l133,0" /><path style="fill:none;stroke:#630;stroke-width:2" d="M24,680 l133,0" /><path style="fill:none;stroke:#630;stroke-width:2" d="M24,725 l133,0" /><path style="fill:none;stroke:#630;stroke-width:2" d="M24,773 l133,0" /><path style="fill:none;stroke:#630;stroke-width:2" d="M24,817 l133,0" /><path style="fill:none;stroke:#630;stroke-width:2" d="M24,862 l133,0" /><path style="fill:none;stroke:#630;stroke-width:2" d="M24,906 l133,0" /><path style="fill:none;stroke:#630;stroke-width:2" d="M24,954 l133,0" /></svg>