<!DOCTYPE svg PUBLIC "-//W3C//DTD SVG 20000303 Stylable//EN" "http://www.w3.org/TR/2000/03/WD-SVG-20000303/DTD/svg-20000303-stylable.dtd"[]><svg xmlns="http://www.w3.org/2000/svg" width="999px" height="684px" viewBox="0 0 999 666"><path style="fill:#999" d="M0,666 l2,0 0,-520 -2,0 0,520z" /><path style="fill:#e5e5e5" d="M2,666 l5,0 0,-520 -5,0 0,520z" /><path style="fill:#ccc" d="M7,666 l3,0 0,-520 -3,0 0,520z" /><path style="fill:#b2b2b2" d="M10,666 l3,0 0,-520 -3,0 0,520z" /><path style="fill:#999" d="M13,666 l2,0 0,-520 -2,0 0,520z" /><path style="fill:#4c4c4c" d="M15,666 l6,0 0,-520 -6,0 0,520z" /><path style="fill:#fff" d="M2,666 l3,0 0,-520 -3,0 0,520z" /><path style="fill:none;stroke:#4c4c4c;stroke-width:2" d="M0,146 l21,0 0,520 -21,0 0,-520" /><path style="fill:#999" d="M0,125 l0,2 999,0 0,-2 -999,0z" /><path style="fill:#e5e5e5" d="M0,127 l0,6 999,0 0,-6 -999,0z" /><path style="fill:#ccc" d="M0,133 l0,2 999,0 0,-2 -999,0z" /><path style="fill:#b2b2b2" d="M0,135 l0,3 999,0 0,-3 -999,0z" /><path style="fill:#999" d="M0,138 l0,3 999,0 0,-3 -999,0z" /><path style="fill:#4c4c4c" d="M0,141 l0,5 999,0 0,-5 -999,0z" /><path style="fill:#fff" d="M0,127 l0,3 999,0 0,-3 -999,0z" /><path style="fill:none;stroke:#4c4c4c;stroke-width:2" d="M999,125 l0,21 -999,0 0,-21 999,0" /><path style="fill:#999" d="M0,125 l0,-125 0,125z" /><path style="fill:#e5e5e5" d="M0,125 l2,0 0,-125 -2,0 0,125z" /><path style="fill:#ccc" d="M2,125 l3,0 0,-125 -3,0 0,125z" /><path style="fill:#b2b2b2" d="M5,125 l2,0 0,-125 -2,0 0,125z" /><path style="fill:#999" d="M7,125 l0,-125 0,125z" /><path style="fill:#4c4c4c" d="M7,125 l3,0 0,-125 -3,0 0,125z" /><path style="fill:#fff" d="M2,125 l0,-125 0,125z" /><path style="fill:none;stroke:#4c4c4c;stroke-width:2" d="M0,0 l10,0 0,125 -10,0 0,-125" /><path style="fill:none;stroke:#4c4c4c;stroke-width:2" d="M42,666 l541,-541 416,415" /><path style="fill:none;stroke:#4c4c4c;stroke-width:2" d="M0,666 l540,-541 459,458" /><path style="fill:none;stroke:#4c4c4c;stroke-width:2" d="M0,623 l498,-498 501,498" /><path style="fill:none;stroke:#4c4c4c;stroke-width:2" d="M0,583 l458,-458 541,541" /><path style="fill:none;stroke:#4c4c4c;stroke-width:2" d="M0,540 l415,-415 541,541" /><path style="fill:none;stroke:#4c4c4c;stroke-width:2" d="M0,498 l375,-373 541,541" /><path style="fill:none;stroke:#4c4c4c;stroke-width:2" d="M0,458 l332,-333 541,541" /><path style="fill:none;stroke:#4c4c4c;stroke-width:2" d="M0,415 l290,-290 541,541" /><path style="fill:none;stroke:#4c4c4c;stroke-width:2" d="M0,375 l250,-250 541,541" /><path style="fill:none;stroke:#4c4c4c;stroke-width:2" d="M0,332 l207,-207 541,541" /><path style="fill:none;stroke:#4c4c4c;stroke-width:2" d="M0,290 l165,-165 543,541" /><path style="fill:none;stroke:#4c4c4c;stroke-width:2" d="M0,250 l125,-125 541,541" /><path style="fill:none;stroke:#4c4c4c;stroke-width:2" d="M0,207 l82,-82 541,541" /><path style="fill:none;stroke:#4c4c4c;stroke-width:2" d="M0,165 l42,-40 541,541" /><path style="fill:none;stroke:#4c4c4c;stroke-width:2" d="M0,125 l540,541" /><path style="fill:none;stroke:#4c4c4c;stroke-width:2" d="M0,165 l498,501" /><path style="fill:none;stroke:#4c4c4c;stroke-width:2" d="M0,207 l458,459" /><path style="fill:none;stroke:#4c4c4c;stroke-width:2" d="M0,250 l415,416" /><path style="fill:none;stroke:#4c4c4c;stroke-width:2" d="M0,290 l375,376" /><path style="fill:none;stroke:#4c4c4c;stroke-width:2" d="M0,332 l332,334" /><path style="fill:none;stroke:#4c4c4c;stroke-width:2" d="M0,375 l290,291" /><path style="fill:none;stroke:#4c4c4c;stroke-width:2" d="M0,415 l250,251" /><path style="fill:none;stroke:#4c4c4c;stroke-width:2" d="M0,458 l207,208" /><path style="fill:none;stroke:#4c4c4c;stroke-width:2" d="M0,498 l165,168" /><path style="fill:none;stroke:#4c4c4c;stroke-width:2" d="M0,540 l125,126" /><path style="fill:none;stroke:#4c4c4c;stroke-width:2" d="M0,583 l82,83" /><path style="fill:none;stroke:#4c4c4c;stroke-width:2" d="M0,623 l42,43" /><path style="fill:none;stroke:#4c4c4c;stroke-width:2" d="M82,666 l541,-541" /><path style="fill:none;stroke:#4c4c4c;stroke-width:2" d="M125,666 l541,-541" /><path style="fill:none;stroke:#4c4c4c;stroke-width:2" d="M165,666 l543,-541" /><path style="fill:none;stroke:#4c4c4c;stroke-width:2" d="M207,666 l541,-541" /><path style="fill:none;stroke:#4c4c4c;stroke-width:2" d="M250,666 l541,-541" /><path style="fill:none;stroke:#4c4c4c;stroke-width:2" d="M290,666 l541,-541" /><path style="fill:none;stroke:#4c4c4c;stroke-width:2" d="M332,666 l541,-541" /><path style="fill:none;stroke:#4c4c4c;stroke-width:2" d="M375,666 l541,-541" /><path style="fill:none;stroke:#4c4c4c;stroke-width:2" d="M415,666 l541,-541" /><path style="fill:none;stroke:#4c4c4c;stroke-width:2" d="M458,666 l541,-541" /><path style="fill:none;stroke:#4c4c4c;stroke-width:2" d="M498,666 l501,-501" /><path style="fill:none;stroke:#4c4c4c;stroke-width:2" d="M540,666 l459,-459" /><path style="fill:none;stroke:#4c4c4c;stroke-width:2" d="M583,666 l416,-416" /><path style="fill:none;stroke:#4c4c4c;stroke-width:2" d="M623,666 l376,-376" /><path style="fill:none;stroke:#4c4c4c;stroke-width:2" d="M666,666 l333,-334" /><path style="fill:none;stroke:#4c4c4c;stroke-width:2" d="M708,666 l291,-291" /><path style="fill:none;stroke:#4c4c4c;stroke-width:2" d="M748,666 l251,-251" /><path style="fill:none;stroke:#4c4c4c;stroke-width:2" d="M791,666 l208,-208" /><path style="fill:none;stroke:#4c4c4c;stroke-width:2" d="M831,666 l168,-168" /><path style="fill:none;stroke:#4c4c4c;stroke-width:2" d="M873,666 l126,-126" /><path style="fill:none;stroke:#4c4c4c;stroke-width:2" d="M916,666 l83,-83" /><path style="fill:none;stroke:#4c4c4c;stroke-width:2" d="M956,666 l43,-43" /><path style="fill:none;stroke:#4c4c4c;stroke-width:2" d="M999,498 l-376,-373" /><path style="fill:none;stroke:#4c4c4c;stroke-width:2" d="M666,125 l333,333" /><path style="fill:none;stroke:#4c4c4c;stroke-width:2" d="M999,415 l-291,-290" /><path style="fill:none;stroke:#4c4c4c;stroke-width:2" d="M748,125 l251,250" /><path style="fill:none;stroke:#4c4c4c;stroke-width:2" d="M999,332 l-208,-207" /><path style="fill:none;stroke:#4c4c4c;stroke-width:2" d="M831,125 l168,165" /><path style="fill:none;stroke:#4c4c4c;stroke-width:2" d="M999,250 l-126,-125" /><path style="fill:none;stroke:#4c4c4c;stroke-width:2" d="M916,125 l83,82" /><path style="fill:none;stroke:#4c4c4c;stroke-width:2" d="M999,165 l-43,-40" /><path style="fill:none;stroke:#4c4c4c;stroke-width:2" d="M42,125 l0,-11" /><path style="fill:none;stroke:#4c4c4c;stroke-width:2" d="M82,125 l0,-11" /><path style="fill:none;stroke:#4c4c4c;stroke-width:2" d="M125,125 l0,-11" /><path style="fill:none;stroke:#4c4c4c;stroke-width:2" d="M165,125 l0,-11" /><path style="fill:none;stroke:#4c4c4c;stroke-width:2" d="M207,125 l0,-11" /><path style="fill:none;stroke:#4c4c4c;stroke-width:2" d="M247,125 l0,-11" /><path style="fill:none;stroke:#4c4c4c;stroke-width:2" d="M290,125 l0,-11" /><path style="fill:none;stroke:#4c4c4c;stroke-width:2" d="M332,125 l0,-11" /><path style="fill:none;stroke:#4c4c4c;stroke-width:2" d="M372,125 l0,-11" /><path style="fill:none;stroke:#4c4c4c;stroke-width:2" d="M415,125 l0,-11" /><path style="fill:none;stroke:#4c4c4c;stroke-width:2" d="M458,125 l0,-11" /><path style="fill:none;stroke:#4c4c4c;stroke-width:2" d="M498,125 l0,-11" /><path style="fill:none;stroke:#4c4c4c;stroke-width:2" d="M540,125 l0,-11" /><path style="fill:none;stroke:#4c4c4c;stroke-width:2" d="M580,125 l0,-11" /><path style="fill:none;stroke:#4c4c4c;stroke-width:2" d="M623,125 l0,-11" /><path style="fill:none;stroke:#4c4c4c;stroke-width:2" d="M666,125 l0,-11" /><path style="fill:none;stroke:#4c4c4c;stroke-width:2" d="M705,125 l0,-11" /><path style="fill:none;stroke:#4c4c4c;stroke-width:2" d="M748,125 l0,-11" /><path style="fill:none;stroke:#4c4c4c;stroke-width:2" d="M791,125 l0,-11" /><path style="fill:none;stroke:#4c4c4c;stroke-width:2" d="M831,125 l0,-11" /><path style="fill:none;stroke:#4c4c4c;stroke-width:2" d="M873,125 l0,-11" /><path style="fill:none;stroke:#4c4c4c;stroke-width:2" d="M913,125 l0,-11" /><path style="fill:none;stroke:#4c4c4c;stroke-width:2" d="M956,125 l0,-11" /><path style="fill:none;stroke:#4c4c4c;stroke-width:2" d="M999,125 l0,-11" /><path style="fill:none;stroke:#4c4c4c;stroke-width:2" d="M10,18 l2,0 2,1 3,0 4,1 4,1 5,1 5,1 5,0 6,1 5,1 6,0 6,0 5,0 5,-1 5,-1 4,-2 2,0 3,0 3,0 4,-1 5,0 5,0 5,0 5,0 5,0 5,0 5,0 5,0 4,0 3,0 3,0 2,1 10,2 9,2 9,1 9,1 9,1 9,1 8,0 8,1 9,0 8,0 8,-1 8,0 8,0 8,-1 8,0 8,-1 8,0 8,-1 8,0 8,-1 9,0 8,-1 9,0 8,0 9,0 9,1 10,0 9,1 10,1 10,1 10,2 11,2 8,-1 8,0 8,-1 8,0 8,0 8,0 7,-1 9,0 8,0 8,0 8,0 8,0 8,0 8,0 8,0 9,0 8,0 8,0 9,0 8,0 9,1 9,0 8,0 9,0 9,0 9,0 9,0 9,-1 10,0 9,0 10,0 9,0 3,0 4,0 3,0 4,0 3,0 4,0 4,0 4,0 4,0 4,0 4,0 5,0 4,0 4,0 5,0 4,0 4,0 5,0 4,0 4,0 5,0 4,0 4,0 4,0 4,0 4,0 4,0 3,0 4,0 3,0 4,0 3,0 4,0 5,1 4,0 5,0 5,0 4,0 5,0 5,-1 5,0 4,0 5,-1 5,0 4,0 5,-1 5,0 4,-1 102,-8" /><path style="fill:none;stroke:#4c4c4c;stroke-width:2" d="M10,58 l2,0 2,1 3,0 4,1 4,1 5,1 5,1 5,0 6,1 5,1 6,0 6,0 5,0 5,-1 5,-2 4,-1 2,0 3,0 3,-1 4,0 5,0 5,0 5,0 5,0 5,0 5,0 5,0 5,0 4,0 3,0 3,0 2,1 10,2 9,2 9,2 9,1 9,1 9,1 8,0 8,1 9,0 8,0 8,0 8,-1 8,0 8,-1 8,0 8,-1 8,-1 8,0 8,-1 8,0 9,-1 8,0 9,0 8,0 9,0 9,0 10,0 9,1 10,1 10,1 10,2 11,1 8,0 7,-1 7,0 7,0 6,-1 7,0 6,0 6,-1 5,0 6,0 5,0 6,-1 5,0 5,0 5,0 6,0 5,0 5,0 6,-1 6,0 5,0 6,0 7,0 6,0 7,0 7,0 8,0 7,0 8,0 9,0 9,0 10,0 3,0 4,0 4,0 4,0 6,1 5,0 6,0 6,0 6,1 7,0 7,0 7,0 7,1 7,0 8,0 7,0 7,1 8,0 7,0 7,0 7,0 7,0 7,1 6,0 6,0 6,-1 6,0 5,0 4,0 5,0 3,-1 4,0 4,-1 5,0 4,0 5,0 5,0 4,-1 5,0 5,0 5,0 4,0 5,0 5,0 4,0 5,0 5,0 4,-1 102,-8" /><path style="fill:none;stroke:#4c4c4c;stroke-width:2" d="M999,93 l-2,0 -2,0 -3,1 -3,1 -3,1 -4,0 -5,1 -4,1 -5,1 -5,0 -4,0 -5,0 -5,0 -4,-1 -4,-1 -4,-2 -2,0 -2,0 -4,0 -4,0 -5,0 -4,0 -6,0 -5,-1 -5,0 -5,0 -5,0 -4,0 -5,0 -3,1 -3,0 -2,0 -9,3 -10,2 -9,1 -9,2 -9,1 -8,0 -9,1 -8,0 -8,0 -9,0 -8,0 -8,0 -8,-1 -8,0 -8,-1 -8,0 -8,-1 -8,0 -8,-1 -8,-1 -8,0 -9,-1 -8,0 -9,0 -9,0 -9,0 -9,1 -10,1 -9,1 -11,1 -10,1 -10,2 -8,0 -8,-1 -8,0 -8,0 -8,-1 -8,0 -8,0 -8,0 -8,0 -8,0 -9,0 -8,0 -8,0 -8,0 -8,0 -9,0 -8,0 -8,0 -9,0 -9,1 -8,0 -9,0 -9,0 -9,0 -9,0 -9,1 -9,0 -10,0 -9,0 -10,0 -10,0 -10,0 -3,0 -3,0 -3,-1 -3,0 -4,0 -3,0 -4,0 -4,0 -4,-1 -4,0 -4,0 -4,0 -4,0 -5,0 -4,0 -4,0 -4,0 -5,0 -4,0 -4,0 -4,0 -5,0 -4,0 -4,1 -4,0 -4,0 -3,0 -4,0 -4,0 -3,1 -3,0 -3,0 -5,0 -5,0 -4,0 -5,0 -5,-1 -5,0 -5,0 -5,0 -5,-1 -4,0 -5,0 -5,0 -4,0 -5,-1 -4,0 -4,0 -112,-10" /><path style="fill:none;stroke:#4c4c4c;stroke-width:2" d="M90,26 l3,-11" /><path style="fill:none;stroke:#4c4c4c;stroke-width:2" d="M93,26 l-3,-11" /><path style="fill:none;stroke:#4c4c4c;stroke-width:2" d="M90,18 l2,0 0,0 1,1 0,2 -1,0 0,0 -2,0 0,-2 0,-1 0,0" /><path style="fill:none;stroke:#4c4c4c;stroke-width:2" d="M167,32 l3,-11" /><path style="fill:none;stroke:#4c4c4c;stroke-width:2" d="M170,32 l-3,-11" /><path style="fill:none;stroke:#4c4c4c;stroke-width:2" d="M170,23 l0,1 0,1 0,1 -2,0 0,0 -1,0 0,-1 1,-1 0,-1 2,0" /><path style="fill:none;stroke:#4c4c4c;stroke-width:2" d="M255,34 l6,-11" /><path style="fill:none;stroke:#4c4c4c;stroke-width:2" d="M261,34 l-6,-11" /><path style="fill:none;stroke:#4c4c4c;stroke-width:2" d="M258,26 l0,1 0,0 0,2 -2,0 0,0 -1,0 0,-2 1,0 0,-1 2,0" /><path style="fill:none;stroke:#4c4c4c;stroke-width:2" d="M335,32 l3,-11" /><path style="fill:none;stroke:#4c4c4c;stroke-width:2" d="M338,32 l-3,-11" /><path style="fill:none;stroke:#4c4c4c;stroke-width:2" d="M335,23 l2,0 0,1 1,1 0,1 -1,0 0,0 -2,0 0,-1 0,-1 0,-1" /><path style="fill:none;stroke:#4c4c4c;stroke-width:2" d="M418,37 l2,-11" /><path style="fill:none;stroke:#4c4c4c;stroke-width:2" d="M420,37 l-2,-11" /><path style="fill:none;stroke:#4c4c4c;stroke-width:2" d="M418,29 l1,0 1,0 0,1 0,2 0,0 -1,0 -1,0 0,-2 0,-1 0,0" /><path style="fill:none;stroke:#4c4c4c;stroke-width:2" d="M500,34 l3,-11" /><path style="fill:none;stroke:#4c4c4c;stroke-width:2" d="M503,34 l-3,-11" /><ellipse style="fill:none;stroke:#4c4c4c;stroke-width:2" cx="501" cy="29" rx="1" ry="3" /><path style="fill:none;stroke:#4c4c4c;stroke-width:2" d="M583,34 l5,-11" /><path style="fill:none;stroke:#4c4c4c;stroke-width:2" d="M588,34 l-5,-11" /><circle style="fill:none;stroke:#4c4c4c;stroke-width:2" cx="585" cy="27" r="2" /><path style="fill:none;stroke:#4c4c4c;stroke-width:2" d="M668,34 l3,-11" /><path style="fill:none;stroke:#4c4c4c;stroke-width:2" d="M671,34 l-3,-11" /><path style="fill:none;stroke:#4c4c4c;stroke-width:2" d="M671,26 l0,1 0,0 0,2 -2,0 -1,0 0,0 0,-2 0,0 1,-1 2,0" /><path style="fill:none;stroke:#4c4c4c;stroke-width:2" d="M751,32 l2,-9" /><path style="fill:none;stroke:#4c4c4c;stroke-width:2" d="M753,32 l-2,-9" /><path style="fill:none;stroke:#4c4c4c;stroke-width:2" d="M751,26 l1,0 1,0 0,0 0,2 0,0 -1,1 -1,0 0,-1 0,0 0,-2" /><path style="fill:none;stroke:#4c4c4c;stroke-width:2" d="M833,37 l3,-11" /><path style="fill:none;stroke:#4c4c4c;stroke-width:2" d="M836,37 l-3,-11" /><path style="fill:none;stroke:#4c4c4c;stroke-width:2" d="M836,29 l0,0 0,1 0,2 -2,0 0,0 -1,0 0,-2 1,-1 0,0 2,0" /><path style="fill:none;stroke:#4c4c4c;stroke-width:2" d="M921,32 l6,-11" /><path style="fill:none;stroke:#4c4c4c;stroke-width:2" d="M927,32 l-6,-11" /><path style="fill:none;stroke:#4c4c4c;stroke-width:2" d="M924,23 l0,1 0,1 0,1 -2,0 0,0 -1,0 0,-1 1,-1 0,-1 2,0" /><path style="fill:none;stroke:#4c4c4c;stroke-width:2" d="M924,63 l0,1 0,1 0,1 -2,0 0,0 -1,0 0,-1 1,-1 0,-1 2,0" /><path style="fill:none;stroke:#4c4c4c;stroke-width:2" d="M927,71 l-6,-10" /><path style="fill:none;stroke:#4c4c4c;stroke-width:2" d="M921,71 l6,-10" /><circle style="fill:none;stroke:#4c4c4c;stroke-width:2" cx="836" cy="68" r="3" /><path style="fill:none;stroke:#4c4c4c;stroke-width:2" d="M839,74 l-6,-11" /><path style="fill:none;stroke:#4c4c4c;stroke-width:2" d="M833,74 l6,-11" /><path style="fill:none;stroke:#4c4c4c;stroke-width:2" d="M751,69 l1,0 1,0 0,1 0,1 0,0 -1,0 -1,0 0,-1 0,-1 0,0" /><path style="fill:none;stroke:#4c4c4c;stroke-width:2" d="M753,77 l-2,-11" /><path style="fill:none;stroke:#4c4c4c;stroke-width:2" d="M751,77 l2,-11" /><circle style="fill:none;stroke:#4c4c4c;stroke-width:2" cx="668" cy="67" r="2" /><path style="fill:none;stroke:#4c4c4c;stroke-width:2" d="M671,71 l-5,-10" /><path style="fill:none;stroke:#4c4c4c;stroke-width:2" d="M666,71 l5,-10" /><path style="fill:none;stroke:#4c4c4c;stroke-width:2" d="M586,66 l1,0 1,0 0,0 0,2 0,0 -1,1 -1,0 0,-1 0,0 0,-2" /><path style="fill:none;stroke:#4c4c4c;stroke-width:2" d="M588,71 l-2,-10" /><path style="fill:none;stroke:#4c4c4c;stroke-width:2" d="M586,71 l2,-10" /><path style="fill:none;stroke:#4c4c4c;stroke-width:2" d="M500,66 l2,0 1,0 0,0 0,2 0,0 -1,1 -2,0 0,-1 0,0 0,-2" /><path style="fill:none;stroke:#4c4c4c;stroke-width:2" d="M503,71 l-3,-10" /><path style="fill:none;stroke:#4c4c4c;stroke-width:2" d="M500,71 l3,-10" /><path style="fill:none;stroke:#4c4c4c;stroke-width:2" d="M418,69 l1,0 1,0 0,1 0,1 0,0 -1,0 -1,0 0,-1 0,-1 0,0" /><path style="fill:none;stroke:#4c4c4c;stroke-width:2" d="M420,77 l-2,-11" /><path style="fill:none;stroke:#4c4c4c;stroke-width:2" d="M418,77 l2,-11" /><path style="fill:none;stroke:#4c4c4c;stroke-width:2" d="M335,63 l2,0 0,0 1,0 0,2 -1,1 0,0 -2,0 0,0 0,-1 0,-2" /><path style="fill:none;stroke:#4c4c4c;stroke-width:2" d="M338,69 l-3,-11" /><path style="fill:none;stroke:#4c4c4c;stroke-width:2" d="M335,69 l3,-11" /><path style="fill:none;stroke:#4c4c4c;stroke-width:2" d="M258,66 l0,0 0,1 0,2 -2,0 0,0 -1,0 0,-2 1,-1 0,0 2,0" /><path style="fill:none;stroke:#4c4c4c;stroke-width:2" d="M261,74 l-6,-11" /><path style="fill:none;stroke:#4c4c4c;stroke-width:2" d="M255,74 l6,-11" /><path style="fill:none;stroke:#4c4c4c;stroke-width:2" d="M170,63 l0,1 0,1 0,1 -2,0 0,0 -1,0 0,-1 1,-1 0,-1 2,0" /><path style="fill:none;stroke:#4c4c4c;stroke-width:2" d="M170,71 l-3,-10" /><path style="fill:none;stroke:#4c4c4c;stroke-width:2" d="M167,71 l3,-10" /><path style="fill:none;stroke:#4c4c4c;stroke-width:2" d="M90,58 l2,0 0,0 1,1 0,2 -1,0 0,0 -2,0 0,-2 0,-1 0,0" /><path style="fill:none;stroke:#4c4c4c;stroke-width:2" d="M93,66 l-3,-10" /><path style="fill:none;stroke:#4c4c4c;stroke-width:2" d="M90,66 l3,-10" /><path style="fill:none;stroke:#4c4c4c;stroke-width:2" d="M929,101 l-2,-11" /><path style="fill:none;stroke:#4c4c4c;stroke-width:2" d="M927,101 l2,-11" /><circle style="fill:none;stroke:#4c4c4c;stroke-width:2" cx="928" cy="95" r="1" /><path style="fill:none;stroke:#4c4c4c;stroke-width:2" d="M852,106 l-5,-11" /><path style="fill:none;stroke:#4c4c4c;stroke-width:2" d="M847,106 l5,-11" /><circle style="fill:none;stroke:#4c4c4c;stroke-width:2" cx="850" cy="100" r="1" /><path style="fill:none;stroke:#4c4c4c;stroke-width:2" d="M764,109 l-5,-11" /><path style="fill:none;stroke:#4c4c4c;stroke-width:2" d="M759,109 l5,-11" /><circle style="fill:none;stroke:#4c4c4c;stroke-width:2" cx="761" cy="103" r="2" /><path style="fill:none;stroke:#4c4c4c;stroke-width:2" d="M684,106 l-3,-11" /><path style="fill:none;stroke:#4c4c4c;stroke-width:2" d="M681,106 l3,-11" /><circle style="fill:none;stroke:#4c4c4c;stroke-width:2" cx="682" cy="100" r="1" /><path style="fill:none;stroke:#4c4c4c;stroke-width:2" d="M602,111 l-3,-10" /><path style="fill:none;stroke:#4c4c4c;stroke-width:2" d="M599,111 l3,-10" /><ellipse style="fill:none;stroke:#4c4c4c;stroke-width:2" cx="600" cy="106" rx="1" ry="3" /><path style="fill:none;stroke:#4c4c4c;stroke-width:2" d="M519,109 l-5,-11" /><path style="fill:none;stroke:#4c4c4c;stroke-width:2" d="M514,109 l5,-11" /><path style="fill:none;stroke:#4c4c4c;stroke-width:2" d="M516,103 l0,2 0,1 0,0 2,0 1,0 0,-1 0,-2 0,0 -1,0 -2,0" /><path style="fill:none;stroke:#4c4c4c;stroke-width:2" d="M436,109 l-5,-11" /><path style="fill:none;stroke:#4c4c4c;stroke-width:2" d="M431,109 l5,-11" /><circle style="fill:none;stroke:#4c4c4c;stroke-width:2" cx="433" cy="103" r="2" /><path style="fill:none;stroke:#4c4c4c;stroke-width:2" d="M351,109 l-3,-11" /><path style="fill:none;stroke:#4c4c4c;stroke-width:2" d="M348,109 l3,-11" /><circle style="fill:none;stroke:#4c4c4c;stroke-width:2" cx="349" cy="103" r="1" /><path style="fill:none;stroke:#4c4c4c;stroke-width:2" d="M269,109 l-3,-11" /><path style="fill:none;stroke:#4c4c4c;stroke-width:2" d="M266,109 l3,-11" /><circle style="fill:none;stroke:#4c4c4c;stroke-width:2" cx="267" cy="103" r="1" /><path style="fill:none;stroke:#4c4c4c;stroke-width:2" d="M186,111 l-5,-10" /><path style="fill:none;stroke:#4c4c4c;stroke-width:2" d="M181,111 l5,-10" /><ellipse style="fill:none;stroke:#4c4c4c;stroke-width:2" cx="184" cy="106" rx="1" ry="3" /><path style="fill:none;stroke:#4c4c4c;stroke-width:2" d="M98,106 l-5,-11" /><path style="fill:none;stroke:#4c4c4c;stroke-width:2" d="M93,106 l5,-11" /><circle style="fill:none;stroke:#4c4c4c;stroke-width:2" cx="95" cy="100" r="2" /></svg>