<!DOCTYPE svg PUBLIC "-//W3C//DTD SVG 20000303 Stylable//EN" "http://www.w3.org/TR/2000/03/WD-SVG-20000303/DTD/svg-20000303-stylable.dtd"[]><svg xmlns="http://www.w3.org/2000/svg" width="999px" height="683px" viewBox="0 0 999 664"><path style="fill:#093" d="M0,664 l21,0 0,-521 -21,0 0,521z" /><path style="fill:#063" d="M18,664 l0,-521 0,521z" /><path style="fill:#033" d="M18,664 l3,0 0,-521 -3,0 0,521z" /><path style="fill:#693" d="M7,664 l6,0 0,-521 -6,0 0,521z" /><path style="fill:#9f9" d="M5,664 l5,0 0,-521 -5,0 0,521z" /><path style="fill:none;stroke:#4c4c4c;stroke-width:2" d="M0,143 l21,0 0,521 -21,0 0,-521" /><path style="fill:#093" d="M0,124 l0,16 999,0 0,-16 -999,0z" /><path style="fill:#063" d="M0,140 l0,3 999,0 0,-3 -999,0z" /><path style="fill:#033" d="M0,143 l999,0 -999,0z" /><path style="fill:#693" d="M0,132 l0,6 999,0 0,-6 -999,0z" /><path style="fill:#9f9" d="M0,127 l0,5 999,0 0,-5 -999,0z" /><path style="fill:none;stroke:#4c4c4c;stroke-width:2" d="M999,124 l0,19 -999,0 0,-19 999,0" /><path style="fill:none;stroke:#4c4c4c;stroke-width:2" d="M42,664 l539,-540 415,415" /><path style="fill:none;stroke:#4c4c4c;stroke-width:2" d="M0,664 l539,-540 457,457" /><path style="fill:none;stroke:#4c4c4c;stroke-width:2" d="M0,621 l499,-497 497,497" /><path style="fill:none;stroke:#4c4c4c;stroke-width:2" d="M0,581 l456,-457 540,540" /><path style="fill:none;stroke:#4c4c4c;stroke-width:2" d="M0,539 l414,-415 542,540" /><path style="fill:none;stroke:#4c4c4c;stroke-width:2" d="M0,496 l374,-372 539,540" /><path style="fill:none;stroke:#4c4c4c;stroke-width:2" d="M0,456 l332,-332 539,540" /><path style="fill:none;stroke:#4c4c4c;stroke-width:2" d="M0,414 l289,-290 542,540" /><path style="fill:none;stroke:#4c4c4c;stroke-width:2" d="M0,371 l249,-247 540,540" /><path style="fill:none;stroke:#4c4c4c;stroke-width:2" d="M0,332 l207,-208 539,540" /><path style="fill:none;stroke:#4c4c4c;stroke-width:2" d="M0,289 l167,-165 539,540" /><path style="fill:none;stroke:#4c4c4c;stroke-width:2" d="M0,247 l124,-123 540,540" /><path style="fill:none;stroke:#4c4c4c;stroke-width:2" d="M0,207 l82,-83 542,540" /><path style="fill:none;stroke:#4c4c4c;stroke-width:2" d="M0,164 l42,-40 539,540" /><path style="fill:none;stroke:#4c4c4c;stroke-width:2" d="M0,124 l539,540" /><path style="fill:none;stroke:#4c4c4c;stroke-width:2" d="M0,164 l499,500" /><path style="fill:none;stroke:#4c4c4c;stroke-width:2" d="M0,207 l456,457" /><path style="fill:none;stroke:#4c4c4c;stroke-width:2" d="M0,247 l414,417" /><path style="fill:none;stroke:#4c4c4c;stroke-width:2" d="M0,289 l374,375" /><path style="fill:none;stroke:#4c4c4c;stroke-width:2" d="M0,332 l332,332" /><path style="fill:none;stroke:#4c4c4c;stroke-width:2" d="M0,371 l289,293" /><path style="fill:none;stroke:#4c4c4c;stroke-width:2" d="M0,414 l249,250" /><path style="fill:none;stroke:#4c4c4c;stroke-width:2" d="M0,456 l207,208" /><path style="fill:none;stroke:#4c4c4c;stroke-width:2" d="M0,496 l167,168" /><path style="fill:none;stroke:#4c4c4c;stroke-width:2" d="M0,539 l124,125" /><path style="fill:none;stroke:#4c4c4c;stroke-width:2" d="M0,581 l82,83" /><path style="fill:none;stroke:#4c4c4c;stroke-width:2" d="M0,621 l42,43" /><path style="fill:none;stroke:#4c4c4c;stroke-width:2" d="M82,664 l542,-540" /><path style="fill:none;stroke:#4c4c4c;stroke-width:2" d="M124,664 l540,-540" /><path style="fill:none;stroke:#4c4c4c;stroke-width:2" d="M167,664 l539,-540" /><path style="fill:none;stroke:#4c4c4c;stroke-width:2" d="M207,664 l539,-540" /><path style="fill:none;stroke:#4c4c4c;stroke-width:2" d="M249,664 l540,-540" /><path style="fill:none;stroke:#4c4c4c;stroke-width:2" d="M289,664 l542,-540" /><path style="fill:none;stroke:#4c4c4c;stroke-width:2" d="M332,664 l539,-540" /><path style="fill:none;stroke:#4c4c4c;stroke-width:2" d="M374,664 l539,-540" /><path style="fill:none;stroke:#4c4c4c;stroke-width:2" d="M414,664 l542,-540" /><path style="fill:none;stroke:#4c4c4c;stroke-width:2" d="M456,664 l540,-540" /><path style="fill:none;stroke:#4c4c4c;stroke-width:2" d="M499,664 l497,-500" /><path style="fill:none;stroke:#4c4c4c;stroke-width:2" d="M539,664 l457,-457" /><path style="fill:none;stroke:#4c4c4c;stroke-width:2" d="M581,664 l415,-417" /><path style="fill:none;stroke:#4c4c4c;stroke-width:2" d="M624,664 l372,-375" /><path style="fill:none;stroke:#4c4c4c;stroke-width:2" d="M664,664 l332,-332" /><path style="fill:none;stroke:#4c4c4c;stroke-width:2" d="M706,664 l290,-293" /><path style="fill:none;stroke:#4c4c4c;stroke-width:2" d="M746,664 l250,-250" /><path style="fill:none;stroke:#4c4c4c;stroke-width:2" d="M789,664 l207,-208" /><path style="fill:none;stroke:#4c4c4c;stroke-width:2" d="M831,664 l165,-168" /><path style="fill:none;stroke:#4c4c4c;stroke-width:2" d="M871,664 l125,-125" /><path style="fill:none;stroke:#4c4c4c;stroke-width:2" d="M913,664 l83,-83" /><path style="fill:none;stroke:#4c4c4c;stroke-width:2" d="M956,664 l40,-43" /><path style="fill:none;stroke:#4c4c4c;stroke-width:2" d="M996,496 l-372,-372" /><path style="fill:none;stroke:#4c4c4c;stroke-width:2" d="M664,124 l332,332" /><path style="fill:none;stroke:#4c4c4c;stroke-width:2" d="M996,414 l-290,-290" /><path style="fill:none;stroke:#4c4c4c;stroke-width:2" d="M746,124 l250,247" /><path style="fill:none;stroke:#4c4c4c;stroke-width:2" d="M996,332 l-207,-208" /><path style="fill:none;stroke:#4c4c4c;stroke-width:2" d="M831,124 l165,165" /><path style="fill:none;stroke:#4c4c4c;stroke-width:2" d="M996,247 l-125,-123" /><path style="fill:none;stroke:#4c4c4c;stroke-width:2" d="M913,124 l83,83" /><path style="fill:none;stroke:#4c4c4c;stroke-width:2" d="M996,164 l-40,-40" /><path style="fill:none;stroke:#4c4c4c;stroke-width:2" d="M42,124 l0,-10" /><path style="fill:none;stroke:#4c4c4c;stroke-width:2" d="M82,124 l0,-10" /><path style="fill:none;stroke:#4c4c4c;stroke-width:2" d="M124,124 l0,-10" /><path style="fill:none;stroke:#4c4c4c;stroke-width:2" d="M167,124 l0,-10" /><path style="fill:none;stroke:#4c4c4c;stroke-width:2" d="M207,124 l0,-10" /><path style="fill:none;stroke:#4c4c4c;stroke-width:2" d="M249,124 l0,-10" /><path style="fill:none;stroke:#4c4c4c;stroke-width:2" d="M289,124 l0,-10" /><path style="fill:none;stroke:#4c4c4c;stroke-width:2" d="M332,124 l0,-10" /><path style="fill:none;stroke:#4c4c4c;stroke-width:2" d="M371,124 l0,-10" /><path style="fill:none;stroke:#4c4c4c;stroke-width:2" d="M414,124 l0,-10" /><path style="fill:none;stroke:#4c4c4c;stroke-width:2" d="M456,124 l0,-10" /><path style="fill:none;stroke:#4c4c4c;stroke-width:2" d="M496,124 l0,-10" /><path style="fill:none;stroke:#4c4c4c;stroke-width:2" d="M539,124 l0,-10" /><path style="fill:none;stroke:#4c4c4c;stroke-width:2" d="M581,124 l0,-10" /><path style="fill:none;stroke:#4c4c4c;stroke-width:2" d="M621,124 l0,-10" /><path style="fill:none;stroke:#4c4c4c;stroke-width:2" d="M664,124 l0,-10" /><path style="fill:none;stroke:#4c4c4c;stroke-width:2" d="M706,124 l0,-10" /><path style="fill:none;stroke:#4c4c4c;stroke-width:2" d="M746,124 l0,-10" /><path style="fill:none;stroke:#4c4c4c;stroke-width:2" d="M789,124 l0,-10" /><path style="fill:none;stroke:#4c4c4c;stroke-width:2" d="M828,124 l0,-10" /><path style="fill:none;stroke:#4c4c4c;stroke-width:2" d="M871,124 l0,-10" /><path style="fill:none;stroke:#4c4c4c;stroke-width:2" d="M913,124 l0,-10" /><path style="fill:none;stroke:#4c4c4c;stroke-width:2" d="M953,124 l0,-10" /><path style="fill:none;stroke:#4c4c4c;stroke-width:2" d="M996,124 l0,-10" /><path style="fill:none;stroke:#4c4c4c;stroke-width:2" d="M10,15 l2,1 2,0 3,1 4,0 4,1 5,1 5,1 5,1 6,0 5,1 6,0 5,0 6,0 5,-1 5,-1 4,-2 2,0 3,0 3,0 4,0 5,0 5,0 5,0 6,0 5,0 5,0 5,0 5,0 4,0 3,0 2,0 2,0 9,2 10,2 9,2 9,1 8,1 9,1 8,1 9,0 8,0 8,0 8,0 8,0 8,-1 8,0 8,-1 8,-1 8,0 8,-1 8,0 8,-1 9,0 8,-1 9,0 8,0 9,0 9,0 10,1 9,0 10,1 10,1 10,2 11,2 8,-1 8,0 8,0 7,0 8,0 8,0 8,0 8,0 8,0 8,0 8,0 9,0 8,0 8,0 8,0 8,0 9,0 8,0 9,0 8,0 9,0 9,0 9,0 9,0 9,0 9,0 9,1 10,0 9,0 10,0 9,0 10,0 3,0 3,0 3,0 4,0 3,0 4,-1 3,0 4,0 4,0 4,0 4,0 4,0 5,0 4,0 4,0 4,0 5,0 4,0 4,0 5,0 4,0 4,0 4,0 4,0 4,0 4,0 4,0 3,0 4,0 3,0 3,0 3,1 5,0 5,0 4,0 5,0 5,0 4,0 5,-1 5,0 4,0 5,0 5,0 4,0 5,-1 5,0 4,0 5,-1 101,-11" /><path style="fill:none;stroke:#4c4c4c;stroke-width:2" d="M10,55 l2,0 2,1 3,1 4,0 4,1 5,1 5,1 5,1 6,0 5,1 6,0 5,0 6,0 5,-1 5,-1 4,-2 2,0 3,0 3,0 4,0 5,0 5,0 5,0 5,0 5,0 5,0 5,0 4,0 4,0 4,0 3,0 2,0 9,2 10,2 9,2 9,1 8,1 9,1 8,1 9,0 8,0 8,0 8,0 8,0 8,0 8,-1 8,0 8,-1 8,0 8,-1 8,0 8,-1 9,0 8,-1 9,0 8,0 9,0 9,0 10,0 9,1 10,1 10,1 10,1 11,2 7,-1 8,0 7,0 7,0 6,0 6,-1 6,0 6,0 6,0 6,0 5,0 5,0 6,0 5,-1 5,0 6,0 5,0 5,0 6,0 6,0 6,0 6,0 6,0 7,0 7,0 7,0 8,0 8,0 8,0 9,0 9,0 10,0 3,0 3,0 4,0 5,0 4,0 6,0 5,1 6,0 7,0 6,0 7,0 7,1 7,0 7,0 7,0 7,0 8,0 7,1 7,0 7,0 7,0 7,0 7,0 6,0 6,0 6,0 5,0 5,0 5,0 4,0 4,0 3,0 5,-1 5,0 4,0 5,-1 5,0 4,0 5,0 5,0 4,0 5,0 5,0 4,0 5,0 5,0 4,-1 5,0 101,-11" /><path style="fill:none;stroke:#4c4c4c;stroke-width:2" d="M996,93 l-1,0 -2,0 -3,1 -3,0 -3,1 -4,1 -4,1 -5,1 -4,1 -5,0 -5,0 -5,0 -4,0 -5,-1 -4,-1 -4,-2 -2,0 -3,0 -3,0 -4,0 -5,0 -5,-1 -5,0 -5,0 -5,0 -5,0 -5,0 -5,0 -4,0 -3,0 -3,1 -2,0 -10,2 -9,2 -9,2 -9,1 -9,1 -9,1 -8,1 -8,0 -9,0 -8,0 -8,0 -8,0 -8,-1 -8,0 -8,-1 -7,-1 -9,0 -8,-1 -8,0 -8,-1 -8,0 -9,-1 -8,0 -9,0 -9,0 -9,0 -9,1 -9,0 -10,1 -10,1 -10,2 -11,2 -8,-1 -8,0 -8,0 -8,-1 -8,0 -8,0 -8,0 -8,0 -8,-1 -8,0 -8,0 -8,0 -8,0 -8,0 -8,0 -9,1 -8,0 -8,0 -9,0 -8,0 -9,0 -8,0 -9,0 -9,0 -9,0 -9,0 -9,0 -9,0 -9,0 -10,0 -9,-1 -10,0 -3,0 -3,0 -4,0 -3,0 -4,0 -3,0 -4,0 -4,0 -4,0 -4,0 -4,0 -4,0 -5,0 -4,0 -4,0 -4,0 -5,0 -4,0 -4,0 -5,0 -4,0 -4,0 -4,0 -4,0 -4,0 -4,0 -4,0 -4,0 -4,0 -3,0 -4,0 -3,0 -4,0 -5,0 -5,0 -5,0 -4,0 -5,0 -5,0 -5,0 -5,0 -5,0 -4,-1 -5,0 -5,0 -4,-1 -4,0 -4,-1 -112,-7" /><path style="fill:none;stroke:#4c4c4c;stroke-width:2" d="M90,23 l3,-10" /><path style="fill:none;stroke:#4c4c4c;stroke-width:2" d="M93,23 l-3,-10" /><path style="fill:none;stroke:#4c4c4c;stroke-width:2" d="M90,18 l1,0 1,0 1,0 0,2 -1,0 -1,1 -1,0 0,-1 0,0 0,-2" /><path style="fill:none;stroke:#4c4c4c;stroke-width:2" d="M167,29 l5,-11" /><path style="fill:none;stroke:#4c4c4c;stroke-width:2" d="M172,29 l-5,-11" /><path style="fill:none;stroke:#4c4c4c;stroke-width:2" d="M170,23 l0,2 0,1 0,0 -2,0 -1,0 0,-1 0,-2 0,0 1,0 2,0" /><path style="fill:none;stroke:#4c4c4c;stroke-width:2" d="M255,31 l5,-10" /><path style="fill:none;stroke:#4c4c4c;stroke-width:2" d="M260,31 l-5,-10" /><circle style="fill:none;stroke:#4c4c4c;stroke-width:2" cx="257" cy="27" r="2" /><path style="fill:none;stroke:#4c4c4c;stroke-width:2" d="M334,29 l3,-11" /><path style="fill:none;stroke:#4c4c4c;stroke-width:2" d="M337,29 l-3,-11" /><path style="fill:none;stroke:#4c4c4c;stroke-width:2" d="M334,23 l2,0 1,0 0,0 0,2 0,1 -1,0 -2,0 0,0 0,-1 0,-2" /><path style="fill:none;stroke:#4c4c4c;stroke-width:2" d="M417,34 l2,-11" /><path style="fill:none;stroke:#4c4c4c;stroke-width:2" d="M419,34 l-2,-11" /><path style="fill:none;stroke:#4c4c4c;stroke-width:2" d="M419,29 l0,1 0,1 0,0 -1,0 -1,0 0,-1 0,-1 0,0 1,0 1,0" /><path style="fill:none;stroke:#4c4c4c;stroke-width:2" d="M499,34 l5,-11" /><path style="fill:none;stroke:#4c4c4c;stroke-width:2" d="M504,34 l-5,-11" /><path style="fill:none;stroke:#4c4c4c;stroke-width:2" d="M502,26 l0,0 0,1 0,2 -2,0 -1,0 0,0 0,-2 0,-1 1,0 2,0" /><path style="fill:none;stroke:#4c4c4c;stroke-width:2" d="M581,31 l6,-10" /><path style="fill:none;stroke:#4c4c4c;stroke-width:2" d="M587,31 l-6,-10" /><ellipse style="fill:none;stroke:#4c4c4c;stroke-width:2" cx="584" cy="27" rx="3" ry="1" /><path style="fill:none;stroke:#4c4c4c;stroke-width:2" d="M666,31 l6,-10" /><path style="fill:none;stroke:#4c4c4c;stroke-width:2" d="M672,31 l-6,-10" /><path style="fill:none;stroke:#4c4c4c;stroke-width:2" d="M669,26 l0,2 0,0 0,1 -1,0 -1,-1 -1,0 0,-2 1,0 1,0 1,0" /><path style="fill:none;stroke:#4c4c4c;stroke-width:2" d="M749,31 l2,-10" /><path style="fill:none;stroke:#4c4c4c;stroke-width:2" d="M751,31 l-2,-10" /><path style="fill:none;stroke:#4c4c4c;stroke-width:2" d="M751,26 l0,2 0,0 0,1 -1,0 -1,-1 0,0 0,-2 0,0 1,0 1,0" /><path style="fill:none;stroke:#4c4c4c;stroke-width:2" d="M831,34 l5,-11" /><path style="fill:none;stroke:#4c4c4c;stroke-width:2" d="M836,34 l-5,-11" /><circle style="fill:none;stroke:#4c4c4c;stroke-width:2" cx="833" cy="30" r="2" /><path style="fill:none;stroke:#4c4c4c;stroke-width:2" d="M919,29 l5,-11" /><path style="fill:none;stroke:#4c4c4c;stroke-width:2" d="M924,29 l-5,-11" /><circle style="fill:none;stroke:#4c4c4c;stroke-width:2" cx="921" cy="24" r="2" /><circle style="fill:none;stroke:#4c4c4c;stroke-width:2" cx="921" cy="64" r="2" /><path style="fill:none;stroke:#4c4c4c;stroke-width:2" d="M924,69 l-5,-8" /><path style="fill:none;stroke:#4c4c4c;stroke-width:2" d="M919,69 l5,-8" /><path style="fill:none;stroke:#4c4c4c;stroke-width:2" d="M834,66 l1,0 1,0 0,1 0,2 0,0 -1,0 -1,0 0,-2 0,-1 0,0" /><path style="fill:none;stroke:#4c4c4c;stroke-width:2" d="M836,74 l-2,-11" /><path style="fill:none;stroke:#4c4c4c;stroke-width:2" d="M834,74 l2,-11" /><path style="fill:none;stroke:#4c4c4c;stroke-width:2" d="M751,69 l0,1 0,1 0,0 -1,0 -1,0 0,-1 0,-1 0,0 1,0 1,0" /><path style="fill:none;stroke:#4c4c4c;stroke-width:2" d="M751,74 l-2,-11" /><path style="fill:none;stroke:#4c4c4c;stroke-width:2" d="M749,74 l2,-11" /><ellipse style="fill:none;stroke:#4c4c4c;stroke-width:2" cx="667" cy="66" rx="1" ry="3" /><path style="fill:none;stroke:#4c4c4c;stroke-width:2" d="M669,71 l-3,-10" /><path style="fill:none;stroke:#4c4c4c;stroke-width:2" d="M666,71 l3,-10" /><ellipse style="fill:none;stroke:#4c4c4c;stroke-width:2" cx="585" cy="66" rx="1" ry="3" /><path style="fill:none;stroke:#4c4c4c;stroke-width:2" d="M587,71 l-3,-10" /><path style="fill:none;stroke:#4c4c4c;stroke-width:2" d="M584,71 l3,-10" /><ellipse style="fill:none;stroke:#4c4c4c;stroke-width:2" cx="500" cy="66" rx="1" ry="3" /><path style="fill:none;stroke:#4c4c4c;stroke-width:2" d="M502,71 l-3,-10" /><path style="fill:none;stroke:#4c4c4c;stroke-width:2" d="M499,71 l3,-10" /><path style="fill:none;stroke:#4c4c4c;stroke-width:2" d="M419,69 l0,1 0,1 0,0 -1,0 -1,0 0,-1 0,-1 0,0 1,0 1,0" /><path style="fill:none;stroke:#4c4c4c;stroke-width:2" d="M419,74 l-2,-11" /><path style="fill:none;stroke:#4c4c4c;stroke-width:2" d="M417,74 l2,-11" /><circle style="fill:none;stroke:#4c4c4c;stroke-width:2" cx="335" cy="63" r="1" /><path style="fill:none;stroke:#4c4c4c;stroke-width:2" d="M337,69 l-3,-11" /><path style="fill:none;stroke:#4c4c4c;stroke-width:2" d="M334,69 l3,-11" /><circle style="fill:none;stroke:#4c4c4c;stroke-width:2" cx="257" cy="67" r="2" /><path style="fill:none;stroke:#4c4c4c;stroke-width:2" d="M260,71 l-5,-8" /><path style="fill:none;stroke:#4c4c4c;stroke-width:2" d="M255,71 l5,-8" /><path style="fill:none;stroke:#4c4c4c;stroke-width:2" d="M170,63 l0,2 0,1 0,0 -2,0 -1,0 0,-1 0,-2 0,0 1,0 2,0" /><path style="fill:none;stroke:#4c4c4c;stroke-width:2" d="M172,69 l-5,-8" /><path style="fill:none;stroke:#4c4c4c;stroke-width:2" d="M167,69 l5,-8" /><path style="fill:none;stroke:#4c4c4c;stroke-width:2" d="M90,58 l1,0 1,0 1,0 0,2 -1,0 -1,1 -1,0 0,-1 0,0 0,-2" /><path style="fill:none;stroke:#4c4c4c;stroke-width:2" d="M93,63 l-3,-8" /><path style="fill:none;stroke:#4c4c4c;stroke-width:2" d="M90,63 l3,-8" /><path style="fill:none;stroke:#4c4c4c;stroke-width:2" d="M927,100 l-3,-10" /><path style="fill:none;stroke:#4c4c4c;stroke-width:2" d="M924,100 l3,-10" /><circle style="fill:none;stroke:#4c4c4c;stroke-width:2" cx="925" cy="95" r="1" /><path style="fill:none;stroke:#4c4c4c;stroke-width:2" d="M850,106 l-3,-11" /><path style="fill:none;stroke:#4c4c4c;stroke-width:2" d="M847,106 l3,-11" /><circle style="fill:none;stroke:#4c4c4c;stroke-width:2" cx="848" cy="100" r="1" /><path style="fill:none;stroke:#4c4c4c;stroke-width:2" d="M762,108 l-3,-10" /><path style="fill:none;stroke:#4c4c4c;stroke-width:2" d="M759,108 l3,-10" /><ellipse style="fill:none;stroke:#4c4c4c;stroke-width:2" cx="760" cy="103" rx="1" ry="3" /><path style="fill:none;stroke:#4c4c4c;stroke-width:2" d="M685,106 l-5,-11" /><path style="fill:none;stroke:#4c4c4c;stroke-width:2" d="M680,106 l5,-11" /><circle style="fill:none;stroke:#4c4c4c;stroke-width:2" cx="682" cy="100" r="2" /><path style="fill:none;stroke:#4c4c4c;stroke-width:2" d="M600,111 l-3,-11" /><path style="fill:none;stroke:#4c4c4c;stroke-width:2" d="M597,111 l3,-11" /><path style="fill:none;stroke:#4c4c4c;stroke-width:2" d="M600,103 l-2,0 0,1 -1,0 0,2 1,0 0,0 2,0 0,-2 0,0 0,-1" /><path style="fill:none;stroke:#4c4c4c;stroke-width:2" d="M518,108 l-3,-10" /><path style="fill:none;stroke:#4c4c4c;stroke-width:2" d="M515,108 l3,-10" /><ellipse style="fill:none;stroke:#4c4c4c;stroke-width:2" cx="516" cy="103" rx="1" ry="3" /><path style="fill:none;stroke:#4c4c4c;stroke-width:2" d="M435,108 l-5,-10" /><path style="fill:none;stroke:#4c4c4c;stroke-width:2" d="M430,108 l5,-10" /><circle style="fill:none;stroke:#4c4c4c;stroke-width:2" cx="432" cy="101" r="2" /><path style="fill:none;stroke:#4c4c4c;stroke-width:2" d="M350,108 l-2,-10" /><path style="fill:none;stroke:#4c4c4c;stroke-width:2" d="M348,108 l2,-10" /><ellipse style="fill:none;stroke:#4c4c4c;stroke-width:2" cx="349" cy="103" rx="1" ry="3" /><path style="fill:none;stroke:#4c4c4c;stroke-width:2" d="M268,108 l-3,-10" /><path style="fill:none;stroke:#4c4c4c;stroke-width:2" d="M265,108 l3,-10" /><path style="fill:none;stroke:#4c4c4c;stroke-width:2" d="M268,100 l-2,0 -1,1 0,1 0,1 0,0 1,0 2,0 0,-1 0,-1 0,-1" /><path style="fill:none;stroke:#4c4c4c;stroke-width:2" d="M186,111 l-3,-11" /><path style="fill:none;stroke:#4c4c4c;stroke-width:2" d="M183,111 l3,-11" /><path style="fill:none;stroke:#4c4c4c;stroke-width:2" d="M183,103 l0,1 0,0 0,2 1,0 1,0 1,0 0,-2 -1,0 -1,-1 -1,0" /><path style="fill:none;stroke:#4c4c4c;stroke-width:2" d="M98,106 l-5,-11" /><path style="fill:none;stroke:#4c4c4c;stroke-width:2" d="M93,106 l5,-11" /><circle style="fill:none;stroke:#4c4c4c;stroke-width:2" cx="95" cy="100" r="2" /><path style="fill:#093" d="M0,124 l10,0 0,-124 -10,0 0,124z" /><path style="fill:#063" d="M10,124 l0,-124 0,124z" /><path style="fill:#033" d="M10,124 l0,-124 0,124z" /><path style="fill:#693" d="M5,124 l2,0 0,-124 -2,0 0,124z" /><path style="fill:#9f9" d="M2,124 l3,0 0,-124 -3,0 0,124z" /><path style="fill:none;stroke:#4c4c4c;stroke-width:2" d="M0,0 l10,0 0,124 -10,0 0,-124" /></svg>