<!DOCTYPE svg PUBLIC "-//W3C//DTD SVG 20000303 Stylable//EN" "http://www.w3.org/TR/2000/03/WD-SVG-20000303/DTD/svg-20000303-stylable.dtd"[]><svg xmlns="http://www.w3.org/2000/svg" width="169px" height="999px" viewBox="0 0 119 999"><path style="fill:none;stroke:#900;stroke-width:2" d="M95,255 l-32,-28 -48,28" /><path style="fill:none;stroke:#900;stroke-width:2" d="M95,223 l-32,4 -48,-4" /><path style="fill:none;stroke:#900;stroke-width:2" d="M95,223 l-32,36 -48,-36" /><path style="fill:none;stroke:#900;stroke-width:2" d="M95,223 l-32,-28 -48,28" /><path style="fill:none;stroke:#900;stroke-width:2" d="M95,191 l-32,4 -48,-4" /><path style="fill:none;stroke:#900;stroke-width:2" d="M95,191 l-32,36 -48,-36" /><path style="fill:none;stroke:#900;stroke-width:2" d="M95,191 l-32,-24 -48,24" /><path style="fill:none;stroke:#900;stroke-width:2" d="M95,163 l-32,4 -48,-4" /><path style="fill:none;stroke:#900;stroke-width:2" d="M95,163 l-32,32 -48,-32" /><path style="fill:none;stroke:#900;stroke-width:2" d="M95,163 l-32,-28 -48,28" /><path style="fill:none;stroke:#900;stroke-width:2" d="M95,131 l-32,4 -48,-4" /><path style="fill:none;stroke:#900;stroke-width:2" d="M95,131 l-32,36 -48,-36" /><path style="fill:none;stroke:#900;stroke-width:2" d="M95,131 l-32,-28 -48,28" /><path style="fill:none;stroke:#900;stroke-width:2" d="M95,99 l-32,4 -48,-4" /><path style="fill:none;stroke:#900;stroke-width:2" d="M95,99 l-32,36 -48,-36" /><path style="fill:none;stroke:#900;stroke-width:2" d="M95,99 l-32,-28 -48,28" /><path style="fill:none;stroke:#900;stroke-width:2" d="M95,67 l-32,4 -48,-4" /><path style="fill:none;stroke:#900;stroke-width:2" d="M95,67 l-32,36 -48,-36" /><path style="fill:none;stroke:#900;stroke-width:2" d="M95,67 l-32,-24 -48,24" /><path style="fill:none;stroke:#900;stroke-width:2" d="M95,39 l-32,4 -48,-4" /><path style="fill:none;stroke:#900;stroke-width:2" d="M95,39 l-32,32 -48,-32" /><path style="fill:none;stroke:#900;stroke-width:2" d="M95,39 l-32,-28 -48,28" /><path style="fill:none;stroke:#900;stroke-width:2" d="M95,7 l-32,4 -48,-4" /><path style="fill:none;stroke:#900;stroke-width:2" d="M95,7 l-32,36 -48,-36" /><path style="fill:none;stroke:#900;stroke-width:2" d="M95,747 l-32,-24 -48,24" /><path style="fill:none;stroke:#900;stroke-width:2" d="M95,719 l-32,4 -48,-4" /><path style="fill:none;stroke:#900;stroke-width:2" d="M95,719 l-32,32 -48,-32" /><path style="fill:none;stroke:#900;stroke-width:2" d="M95,719 l-32,-28 -48,28" /><path style="fill:none;stroke:#900;stroke-width:2" d="M95,687 l-32,4 -48,-4" /><path style="fill:none;stroke:#900;stroke-width:2" d="M95,687 l-32,36 -48,-36" /><path style="fill:none;stroke:#900;stroke-width:2" d="M95,687 l-32,-28 -48,28" /><path style="fill:none;stroke:#900;stroke-width:2" d="M95,655 l-32,4 -48,-4" /><path style="fill:none;stroke:#900;stroke-width:2" d="M95,655 l-32,36 -48,-36" /><path style="fill:none;stroke:#900;stroke-width:2" d="M95,655 l-32,-28 -48,28" /><path style="fill:none;stroke:#900;stroke-width:2" d="M95,623 l-32,4 -48,-4" /><path style="fill:none;stroke:#900;stroke-width:2" d="M95,623 l-32,36 -48,-36" /><path style="fill:none;stroke:#900;stroke-width:2" d="M95,623 l-32,-24 -48,24" /><path style="fill:none;stroke:#900;stroke-width:2" d="M95,595 l-32,4 -48,-4" /><path style="fill:none;stroke:#900;stroke-width:2" d="M95,595 l-32,32 -48,-32" /><path style="fill:none;stroke:#900;stroke-width:2" d="M95,595 l-32,-28 -48,28" /><path style="fill:none;stroke:#900;stroke-width:2" d="M95,563 l-32,4 -48,-4" /><path style="fill:none;stroke:#900;stroke-width:2" d="M95,563 l-32,36 -48,-36" /><path style="fill:none;stroke:#900;stroke-width:2" d="M95,563 l-32,-28 -48,28" /><path style="fill:none;stroke:#900;stroke-width:2" d="M95,531 l-32,4 -48,-4" /><path style="fill:none;stroke:#900;stroke-width:2" d="M95,531 l-32,36 -48,-36" /><path style="fill:none;stroke:#900;stroke-width:2" d="M95,531 l-32,-28 -48,28" /><path style="fill:none;stroke:#900;stroke-width:2" d="M95,503 l-32,0 -48,0" /><path style="fill:none;stroke:#900;stroke-width:2" d="M95,503 l-32,32 -48,-32" /><path style="fill:none;stroke:#f00;stroke-width:2" d="M95,223 l-32,-8 -48,8" /><path style="fill:none;stroke:#f00;stroke-width:2" d="M95,191 l-32,-8 -48,8" /><path style="fill:none;stroke:#f00;stroke-width:2" d="M95,163 l-32,-8 -48,8" /><path style="fill:none;stroke:#f00;stroke-width:2" d="M95,131 l-32,-8 -48,8" /><path style="fill:none;stroke:#f00;stroke-width:2" d="M95,99 l-32,-8 -48,8" /><path style="fill:none;stroke:#f00;stroke-width:2" d="M95,67 l-32,-8 -48,8" /><path style="fill:none;stroke:#f00;stroke-width:2" d="M95,39 l-32,-8 -48,8" /><path style="fill:none;stroke:#f00;stroke-width:2" d="M95,7 l-32,-7 -48,7" /><path style="fill:none;stroke:#f00;stroke-width:2" d="M15,191 l0,32" /><path style="fill:none;stroke:#f00;stroke-width:2" d="M15,163 l0,28" /><path style="fill:none;stroke:#f00;stroke-width:2" d="M15,131 l0,32" /><path style="fill:none;stroke:#f00;stroke-width:2" d="M15,99 l0,32" /><path style="fill:none;stroke:#f00;stroke-width:2" d="M15,67 l0,32" /><path style="fill:none;stroke:#f00;stroke-width:2" d="M15,39 l0,28" /><path style="fill:none;stroke:#f00;stroke-width:2" d="M15,7 l0,32" /><path style="fill:none;stroke:#f00;stroke-width:2" d="M63,183 l0,44" /><path style="fill:none;stroke:#f00;stroke-width:2" d="M63,155 l0,40" /><path style="fill:none;stroke:#f00;stroke-width:2" d="M63,123 l0,44" /><path style="fill:none;stroke:#f00;stroke-width:2" d="M63,91 l0,44" /><path style="fill:none;stroke:#f00;stroke-width:2" d="M63,59 l0,44" /><path style="fill:none;stroke:#f00;stroke-width:2" d="M63,31 l0,40" /><path style="fill:none;stroke:#f00;stroke-width:2" d="M63,0 l0,43" /><path style="fill:none;stroke:#f00;stroke-width:2" d="M95,223 l0,32" /><path style="fill:none;stroke:#f00;stroke-width:2" d="M95,191 l0,32" /><path style="fill:none;stroke:#f00;stroke-width:2" d="M95,163 l0,28" /><path style="fill:none;stroke:#f00;stroke-width:2" d="M95,131 l0,32" /><path style="fill:none;stroke:#f00;stroke-width:2" d="M95,99 l0,32" /><path style="fill:none;stroke:#f00;stroke-width:2" d="M95,67 l0,32" /><path style="fill:none;stroke:#f00;stroke-width:2" d="M95,39 l0,28" /><path style="fill:none;stroke:#f00;stroke-width:2" d="M95,7 l0,32" /><path style="fill:none;stroke:#f00;stroke-width:2" d="M95,39 l-32,-39 -48,39" /><path style="fill:none;stroke:#f00;stroke-width:2" d="M15,7 l48,24 32,-24" /><path style="fill:none;stroke:#f00;stroke-width:2" d="M95,67 l-32,-36 -48,36" /><path style="fill:none;stroke:#f00;stroke-width:2" d="M15,39 l48,20 32,-20" /><path style="fill:none;stroke:#f00;stroke-width:2" d="M95,99 l-32,-40 -48,40" /><path style="fill:none;stroke:#f00;stroke-width:2" d="M15,67 l48,24 32,-24" /><path style="fill:none;stroke:#f00;stroke-width:2" d="M95,131 l-32,-40 -48,40" /><path style="fill:none;stroke:#f00;stroke-width:2" d="M15,99 l48,24 32,-24" /><path style="fill:none;stroke:#f00;stroke-width:2" d="M95,163 l-32,-40 -48,40" /><path style="fill:none;stroke:#f00;stroke-width:2" d="M15,131 l48,24 32,-24" /><path style="fill:none;stroke:#f00;stroke-width:2" d="M95,191 l-32,-36 -48,36" /><path style="fill:none;stroke:#f00;stroke-width:2" d="M15,163 l48,20 32,-20" /><path style="fill:none;stroke:#f00;stroke-width:2" d="M95,223 l-32,-40 -48,40" /><path style="fill:none;stroke:#f00;stroke-width:2" d="M15,191 l48,24 32,-24" /><path style="fill:none;stroke:#f00;stroke-width:2" d="M95,255 l-32,-40 -48,40" /><path style="fill:none;stroke:#f00;stroke-width:2" d="M15,223 l48,24 32,-24" /><path style="fill:none;stroke:#f00;stroke-width:2" d="M63,215 l0,44" /><path style="fill:none;stroke:#f00;stroke-width:2" d="M15,223 l0,32" /><path style="fill:none;stroke:#f00;stroke-width:2" d="M95,503 l0,28" /><path style="fill:none;stroke:#f00;stroke-width:2" d="M63,495 l0,40" /><path style="fill:none;stroke:#f00;stroke-width:2" d="M15,503 l0,28" /><path style="fill:none;stroke:#f00;stroke-width:2" d="M95,531 l-32,-36 -48,36" /><path style="fill:none;stroke:#f00;stroke-width:2" d="M15,503 l48,20 32,-20" /><path style="fill:none;stroke:#f00;stroke-width:2" d="M95,503 l-32,-8 -48,8" /><path style="fill:none;stroke:#f00;stroke-width:2" d="M95,531 l0,32" /><path style="fill:none;stroke:#f00;stroke-width:2" d="M63,523 l0,44" /><path style="fill:none;stroke:#f00;stroke-width:2" d="M15,531 l0,32" /><path style="fill:none;stroke:#f00;stroke-width:2" d="M95,563 l-32,-40 -48,40" /><path style="fill:none;stroke:#f00;stroke-width:2" d="M15,531 l48,24 32,-24" /><path style="fill:none;stroke:#f00;stroke-width:2" d="M95,531 l-32,-8 -48,8" /><path style="fill:none;stroke:#f00;stroke-width:2" d="M95,563 l0,32" /><path style="fill:none;stroke:#f00;stroke-width:2" d="M63,555 l0,44" /><path style="fill:none;stroke:#f00;stroke-width:2" d="M15,563 l0,32" /><path style="fill:none;stroke:#f00;stroke-width:2" d="M95,595 l-32,-40 -48,40" /><path style="fill:none;stroke:#f00;stroke-width:2" d="M15,563 l48,24 32,-24" /><path style="fill:none;stroke:#f00;stroke-width:2" d="M95,563 l-32,-8 -48,8" /><path style="fill:none;stroke:#f00;stroke-width:2" d="M95,595 l0,28" /><path style="fill:none;stroke:#f00;stroke-width:2" d="M63,587 l0,40" /><path style="fill:none;stroke:#f00;stroke-width:2" d="M15,595 l0,28" /><path style="fill:none;stroke:#f00;stroke-width:2" d="M95,623 l-32,-36 -48,36" /><path style="fill:none;stroke:#f00;stroke-width:2" d="M15,595 l48,20 32,-20" /><path style="fill:none;stroke:#f00;stroke-width:2" d="M95,595 l-32,-8 -48,8" /><path style="fill:none;stroke:#f00;stroke-width:2" d="M95,623 l0,32" /><path style="fill:none;stroke:#f00;stroke-width:2" d="M63,615 l0,44" /><path style="fill:none;stroke:#f00;stroke-width:2" d="M15,623 l0,32" /><path style="fill:none;stroke:#f00;stroke-width:2" d="M95,655 l-32,-40 -48,40" /><path style="fill:none;stroke:#f00;stroke-width:2" d="M15,623 l48,24 32,-24" /><path style="fill:none;stroke:#f00;stroke-width:2" d="M95,623 l-32,-8 -48,8" /><path style="fill:none;stroke:#f00;stroke-width:2" d="M95,655 l0,32" /><path style="fill:none;stroke:#f00;stroke-width:2" d="M63,647 l0,44" /><path style="fill:none;stroke:#f00;stroke-width:2" d="M15,655 l0,32" /><path style="fill:none;stroke:#f00;stroke-width:2" d="M95,687 l-32,-40 -48,40" /><path style="fill:none;stroke:#f00;stroke-width:2" d="M15,655 l48,24 32,-24" /><path style="fill:none;stroke:#f00;stroke-width:2" d="M95,655 l-32,-8 -48,8" /><path style="fill:none;stroke:#f00;stroke-width:2" d="M95,687 l0,32" /><path style="fill:none;stroke:#f00;stroke-width:2" d="M63,679 l0,44" /><path style="fill:none;stroke:#f00;stroke-width:2" d="M15,687 l0,32" /><path style="fill:none;stroke:#f00;stroke-width:2" d="M95,719 l-32,-40 -48,40" /><path style="fill:none;stroke:#f00;stroke-width:2" d="M15,687 l48,24 32,-24" /><path style="fill:none;stroke:#f00;stroke-width:2" d="M95,687 l-32,-8 -48,8" /><path style="fill:none;stroke:#f00;stroke-width:2" d="M95,719 l0,28" /><path style="fill:none;stroke:#f00;stroke-width:2" d="M63,711 l0,40" /><path style="fill:none;stroke:#f00;stroke-width:2" d="M15,719 l0,28" /><path style="fill:none;stroke:#f00;stroke-width:2" d="M95,747 l-32,-36 -48,36" /><path style="fill:none;stroke:#f00;stroke-width:2" d="M15,719 l48,20 32,-20" /><path style="fill:none;stroke:#f00;stroke-width:2" d="M95,719 l-32,-8 -48,8" /><path style="fill:none;stroke:#7f7f7f;stroke-width:2" d="M95,503 l-32,-28 -48,28" /><path style="fill:none;stroke:#7f7f7f;stroke-width:2" d="M95,471 l-32,4 -48,-4" /><path style="fill:none;stroke:#7f7f7f;stroke-width:2" d="M95,471 l-32,32 -48,-32" /><path style="fill:none;stroke:#7f7f7f;stroke-width:2" d="M95,471 l-32,-28 -48,28" /><path style="fill:none;stroke:#7f7f7f;stroke-width:2" d="M95,439 l-32,4 -48,-4" /><path style="fill:none;stroke:#7f7f7f;stroke-width:2" d="M95,439 l-32,36 -48,-36" /><path style="fill:none;stroke:#7f7f7f;stroke-width:2" d="M95,439 l-32,-28 -48,28" /><path style="fill:none;stroke:#7f7f7f;stroke-width:2" d="M95,407 l-32,4 -48,-4" /><path style="fill:none;stroke:#7f7f7f;stroke-width:2" d="M95,407 l-32,36 -48,-36" /><path style="fill:none;stroke:#7f7f7f;stroke-width:2" d="M95,407 l-32,-24 -48,24" /><path style="fill:none;stroke:#7f7f7f;stroke-width:2" d="M95,379 l-32,4 -48,-4" /><path style="fill:none;stroke:#7f7f7f;stroke-width:2" d="M95,379 l-32,32 -48,-32" /><path style="fill:none;stroke:#7f7f7f;stroke-width:2" d="M95,379 l-32,-28 -48,28" /><path style="fill:none;stroke:#7f7f7f;stroke-width:2" d="M95,347 l-32,4 -48,-4" /><path style="fill:none;stroke:#7f7f7f;stroke-width:2" d="M95,347 l-32,36 -48,-36" /><path style="fill:none;stroke:#7f7f7f;stroke-width:2" d="M95,347 l-32,-28 -48,28" /><path style="fill:none;stroke:#7f7f7f;stroke-width:2" d="M95,315 l-32,4 -48,-4" /><path style="fill:none;stroke:#7f7f7f;stroke-width:2" d="M95,315 l-32,36 -48,-36" /><path style="fill:none;stroke:#7f7f7f;stroke-width:2" d="M95,315 l-32,-28 -48,28" /><path style="fill:none;stroke:#7f7f7f;stroke-width:2" d="M95,283 l-32,4 -48,-4" /><path style="fill:none;stroke:#7f7f7f;stroke-width:2" d="M95,283 l-32,36 -48,-36" /><path style="fill:none;stroke:#7f7f7f;stroke-width:2" d="M95,283 l-32,-24 -48,24" /><path style="fill:none;stroke:#7f7f7f;stroke-width:2" d="M95,255 l-32,4 -48,-4" /><path style="fill:none;stroke:#7f7f7f;stroke-width:2" d="M95,255 l-32,32 -48,-32" /><path style="fill:none;stroke:#7f7f7f;stroke-width:2" d="M95,995 l-32,-28 -48,28" /><path style="fill:none;stroke:#7f7f7f;stroke-width:2" d="M95,963 l-32,4 -48,-4" /><path style="fill:none;stroke:#7f7f7f;stroke-width:2" d="M95,963 l-32,36 -48,-36" /><path style="fill:none;stroke:#7f7f7f;stroke-width:2" d="M95,963 l-32,-24 -48,24" /><path style="fill:none;stroke:#7f7f7f;stroke-width:2" d="M95,935 l-32,4 -48,-4" /><path style="fill:none;stroke:#7f7f7f;stroke-width:2" d="M95,935 l-32,32 -48,-32" /><path style="fill:none;stroke:#7f7f7f;stroke-width:2" d="M95,935 l-32,-28 -48,28" /><path style="fill:none;stroke:#7f7f7f;stroke-width:2" d="M95,903 l-32,4 -48,-4" /><path style="fill:none;stroke:#7f7f7f;stroke-width:2" d="M95,903 l-32,36 -48,-36" /><path style="fill:none;stroke:#7f7f7f;stroke-width:2" d="M95,903 l-32,-28 -48,28" /><path style="fill:none;stroke:#7f7f7f;stroke-width:2" d="M95,871 l-32,4 -48,-4" /><path style="fill:none;stroke:#7f7f7f;stroke-width:2" d="M95,871 l-32,36 -48,-36" /><path style="fill:none;stroke:#7f7f7f;stroke-width:2" d="M95,871 l-32,-28 -48,28" /><path style="fill:none;stroke:#7f7f7f;stroke-width:2" d="M95,839 l-32,4 -48,-4" /><path style="fill:none;stroke:#7f7f7f;stroke-width:2" d="M95,839 l-32,36 -48,-36" /><path style="fill:none;stroke:#7f7f7f;stroke-width:2" d="M95,839 l-32,-24 -48,24" /><path style="fill:none;stroke:#7f7f7f;stroke-width:2" d="M95,811 l-32,4 -48,-4" /><path style="fill:none;stroke:#7f7f7f;stroke-width:2" d="M95,811 l-32,32 -48,-32" /><path style="fill:none;stroke:#7f7f7f;stroke-width:2" d="M95,811 l-32,-28 -48,28" /><path style="fill:none;stroke:#7f7f7f;stroke-width:2" d="M95,779 l-32,4 -48,-4" /><path style="fill:none;stroke:#7f7f7f;stroke-width:2" d="M95,779 l-32,36 -48,-36" /><path style="fill:none;stroke:#7f7f7f;stroke-width:2" d="M95,779 l-32,-28 -48,28" /><path style="fill:none;stroke:#7f7f7f;stroke-width:2" d="M95,747 l-32,4 -48,-4" /><path style="fill:none;stroke:#7f7f7f;stroke-width:2" d="M95,747 l-32,36 -48,-36" /><path style="fill:none;stroke:#fff;stroke-width:2" d="M95,255 l0,28" /><path style="fill:none;stroke:#fff;stroke-width:2" d="M63,247 l0,40" /><path style="fill:none;stroke:#fff;stroke-width:2" d="M15,255 l0,28" /><path style="fill:none;stroke:#fff;stroke-width:2" d="M95,283 l-32,-36 -48,36" /><path style="fill:none;stroke:#fff;stroke-width:2" d="M15,255 l48,20 32,-20" /><path style="fill:none;stroke:#fff;stroke-width:2" d="M95,255 l-32,-8 -48,8" /><path style="fill:none;stroke:#fff;stroke-width:2" d="M95,283 l0,32" /><path style="fill:none;stroke:#fff;stroke-width:2" d="M63,275 l0,44" /><path style="fill:none;stroke:#fff;stroke-width:2" d="M15,283 l0,32" /><path style="fill:none;stroke:#fff;stroke-width:2" d="M95,315 l-32,-40 -48,40" /><path style="fill:none;stroke:#fff;stroke-width:2" d="M15,283 l48,24 32,-24" /><path style="fill:none;stroke:#fff;stroke-width:2" d="M95,283 l-32,-8 -48,8" /><path style="fill:none;stroke:#fff;stroke-width:2" d="M95,315 l0,32" /><path style="fill:none;stroke:#fff;stroke-width:2" d="M63,307 l0,44" /><path style="fill:none;stroke:#fff;stroke-width:2" d="M15,315 l0,32" /><path style="fill:none;stroke:#fff;stroke-width:2" d="M95,347 l-32,-40 -48,40" /><path style="fill:none;stroke:#fff;stroke-width:2" d="M15,315 l48,24 32,-24" /><path style="fill:none;stroke:#fff;stroke-width:2" d="M95,315 l-32,-8 -48,8" /><path style="fill:none;stroke:#fff;stroke-width:2" d="M95,347 l0,32" /><path style="fill:none;stroke:#fff;stroke-width:2" d="M63,339 l0,44" /><path style="fill:none;stroke:#fff;stroke-width:2" d="M15,347 l0,32" /><path style="fill:none;stroke:#fff;stroke-width:2" d="M95,379 l-32,-40 -48,40" /><path style="fill:none;stroke:#fff;stroke-width:2" d="M15,347 l48,24 32,-24" /><path style="fill:none;stroke:#fff;stroke-width:2" d="M95,347 l-32,-8 -48,8" /><path style="fill:none;stroke:#fff;stroke-width:2" d="M95,379 l0,28" /><path style="fill:none;stroke:#fff;stroke-width:2" d="M63,371 l0,40" /><path style="fill:none;stroke:#fff;stroke-width:2" d="M15,379 l0,28" /><path style="fill:none;stroke:#fff;stroke-width:2" d="M95,407 l-32,-36 -48,36" /><path style="fill:none;stroke:#fff;stroke-width:2" d="M15,379 l48,20 32,-20" /><path style="fill:none;stroke:#fff;stroke-width:2" d="M95,379 l-32,-8 -48,8" /><path style="fill:none;stroke:#fff;stroke-width:2" d="M95,407 l0,32" /><path style="fill:none;stroke:#fff;stroke-width:2" d="M63,399 l0,44" /><path style="fill:none;stroke:#fff;stroke-width:2" d="M15,407 l0,32" /><path style="fill:none;stroke:#fff;stroke-width:2" d="M95,439 l-32,-40 -48,40" /><path style="fill:none;stroke:#fff;stroke-width:2" d="M15,407 l48,24 32,-24" /><path style="fill:none;stroke:#fff;stroke-width:2" d="M95,407 l-32,-8 -48,8" /><path style="fill:none;stroke:#fff;stroke-width:2" d="M95,439 l0,32" /><path style="fill:none;stroke:#fff;stroke-width:2" d="M63,431 l0,44" /><path style="fill:none;stroke:#fff;stroke-width:2" d="M15,439 l0,32" /><path style="fill:none;stroke:#fff;stroke-width:2" d="M95,471 l-32,-40 -48,40" /><path style="fill:none;stroke:#fff;stroke-width:2" d="M15,439 l48,24 32,-24" /><path style="fill:none;stroke:#fff;stroke-width:2" d="M95,439 l-32,-8 -48,8" /><path style="fill:none;stroke:#fff;stroke-width:2" d="M95,471 l0,32" /><path style="fill:none;stroke:#fff;stroke-width:2" d="M63,463 l0,40" /><path style="fill:none;stroke:#fff;stroke-width:2" d="M15,471 l0,32" /><path style="fill:none;stroke:#fff;stroke-width:2" d="M95,503 l-32,-40 -48,40" /><path style="fill:none;stroke:#fff;stroke-width:2" d="M15,471 l48,24 32,-24" /><path style="fill:none;stroke:#fff;stroke-width:2" d="M95,471 l-32,-8 -48,8" /><path style="fill:none;stroke:#fff;stroke-width:2" d="M95,747 l0,32" /><path style="fill:none;stroke:#fff;stroke-width:2" d="M63,739 l0,44" /><path style="fill:none;stroke:#fff;stroke-width:2" d="M15,747 l0,32" /><path style="fill:none;stroke:#fff;stroke-width:2" d="M95,779 l-32,-40 -48,40" /><path style="fill:none;stroke:#fff;stroke-width:2" d="M15,747 l48,24 32,-24" /><path style="fill:none;stroke:#fff;stroke-width:2" d="M95,747 l-32,-8 -48,8" /><path style="fill:none;stroke:#fff;stroke-width:2" d="M95,779 l0,32" /><path style="fill:none;stroke:#fff;stroke-width:2" d="M63,771 l0,44" /><path style="fill:none;stroke:#fff;stroke-width:2" d="M15,779 l0,32" /><path style="fill:none;stroke:#fff;stroke-width:2" d="M95,811 l-32,-40 -48,40" /><path style="fill:none;stroke:#fff;stroke-width:2" d="M15,779 l48,24 32,-24" /><path style="fill:none;stroke:#fff;stroke-width:2" d="M95,779 l-32,-8 -48,8" /><path style="fill:none;stroke:#fff;stroke-width:2" d="M95,811 l0,28" /><path style="fill:none;stroke:#fff;stroke-width:2" d="M63,803 l0,40" /><path style="fill:none;stroke:#fff;stroke-width:2" d="M15,811 l0,28" /><path style="fill:none;stroke:#fff;stroke-width:2" d="M95,839 l-32,-36 -48,36" /><path style="fill:none;stroke:#fff;stroke-width:2" d="M15,811 l48,20 32,-20" /><path style="fill:none;stroke:#fff;stroke-width:2" d="M95,811 l-32,-8 -48,8" /><path style="fill:none;stroke:#fff;stroke-width:2" d="M95,839 l0,32" /><path style="fill:none;stroke:#fff;stroke-width:2" d="M63,831 l0,44" /><path style="fill:none;stroke:#fff;stroke-width:2" d="M15,839 l0,32" /><path style="fill:none;stroke:#fff;stroke-width:2" d="M95,871 l-32,-40 -48,40" /><path style="fill:none;stroke:#fff;stroke-width:2" d="M15,839 l48,24 32,-24" /><path style="fill:none;stroke:#fff;stroke-width:2" d="M95,839 l-32,-8 -48,8" /><path style="fill:none;stroke:#fff;stroke-width:2" d="M95,871 l0,32" /><path style="fill:none;stroke:#fff;stroke-width:2" d="M63,863 l0,44" /><path style="fill:none;stroke:#fff;stroke-width:2" d="M15,871 l0,32" /><path style="fill:none;stroke:#fff;stroke-width:2" d="M95,903 l-32,-40 -48,40" /><path style="fill:none;stroke:#fff;stroke-width:2" d="M15,871 l48,24 32,-24" /><path style="fill:none;stroke:#fff;stroke-width:2" d="M95,871 l-32,-8 -48,8" /><path style="fill:none;stroke:#fff;stroke-width:2" d="M95,903 l0,32" /><path style="fill:none;stroke:#fff;stroke-width:2" d="M63,895 l0,44" /><path style="fill:none;stroke:#fff;stroke-width:2" d="M15,903 l0,32" /><path style="fill:none;stroke:#fff;stroke-width:2" d="M95,935 l-32,-40 -48,40" /><path style="fill:none;stroke:#fff;stroke-width:2" d="M15,903 l48,24 32,-24" /><path style="fill:none;stroke:#fff;stroke-width:2" d="M95,903 l-32,-8 -48,8" /><path style="fill:none;stroke:#fff;stroke-width:2" d="M95,935 l0,28" /><path style="fill:none;stroke:#fff;stroke-width:2" d="M63,927 l0,40" /><path style="fill:none;stroke:#fff;stroke-width:2" d="M15,935 l0,28" /><path style="fill:none;stroke:#fff;stroke-width:2" d="M95,963 l-32,-36 -48,36" /><path style="fill:none;stroke:#fff;stroke-width:2" d="M15,935 l48,20 32,-20" /><path style="fill:none;stroke:#fff;stroke-width:2" d="M95,935 l-32,-8 -48,8" /><path style="fill:none;stroke:#fff;stroke-width:2" d="M95,963 l0,32" /><path style="fill:none;stroke:#fff;stroke-width:2" d="M63,955 l0,44" /><path style="fill:none;stroke:#fff;stroke-width:2" d="M15,963 l0,32" /><path style="fill:none;stroke:#fff;stroke-width:2" d="M95,995 l-32,-40 -48,40" /><path style="fill:none;stroke:#fff;stroke-width:2" d="M15,963 l48,24 32,-24" /><path style="fill:none;stroke:#fff;stroke-width:2" d="M95,963 l-32,-8 -48,8" /><path style="fill:#ccc" d="M19,339 l4,0 4,-1 3,0 3,-2 3,-1 2,-2 3,-2 2,-3 2,-3 2,-3 1,-3 1,-3 1,-4 1,-4 0,-4 0,-5 0,-3 0,-4 -1,-4 -1,-3 -1,-3 -1,-3 -2,-3 -2,-2 -2,-3 -3,-2 -2,-1 -3,-2 -3,-1 -3,-1 -4,-1 -4,0 3,0 2,1 2,1 2,1 2,2 2,1 2,2 2,3 2,2 1,3 1,3 1,3 1,3 1,4 0,4 0,3 0,5 0,4 -1,4 -1,4 -1,3 -1,3 -1,3 -2,3 -2,3 -2,2 -2,2 -2,1 -2,2 -2,0 -2,1 -3,0z" /><ellipse style="fill:#e5e5e5" cx="21" cy="301" rx="21" ry="38" /><ellipse style="fill:#fff" cx="31" cy="301" rx="4" ry="10" /><path style="fill:#900" d="M99,111 l-3,0 -4,0 -3,-2 -3,-1 -3,-2 -3,-2 -2,-2 -2,-3 -2,-3 -2,-3 -1,-4 -1,-3 -1,-3 -1,-4 0,-4 -1,-4 1,-3 0,-4 1,-4 1,-3 1,-4 1,-3 2,-3 2,-3 2,-3 2,-2 3,-2 3,-2 3,-2 3,-1 4,0 3,-1 -2,1 -2,0 -2,1 -2,2 -2,2 -2,2 -2,2 -2,3 -2,3 -1,3 -1,3 -2,4 0,3 -1,4 0,4 -1,3 1,4 0,4 1,4 0,3 2,3 1,4 1,3 2,3 2,3 2,2 2,2 2,2 2,1 2,2 2,0 2,0z" /><ellipse style="fill:#c30" cx="97" cy="71" rx="22" ry="40" /><ellipse style="fill:#f00" cx="87" cy="73" rx="4" ry="10" /></svg>