<!DOCTYPE svg PUBLIC "-//W3C//DTD SVG 20000303 Stylable//EN" "http://www.w3.org/TR/2000/03/WD-SVG-20000303/DTD/svg-20000303-stylable.dtd"[]><svg xmlns="http://www.w3.org/2000/svg" width="520px" height="999px" viewBox="0 0 491 999"><ellipse style="fill:#333;stroke:#4c4c4c;stroke-width:2" cx="343" cy="526" rx="12" ry="9" /><path style="fill:#e5e5e5;stroke:#4c4c4c;stroke-width:2" d="M381,595 l28,-40 -28,-38 -20,38 20,40z" /><path style="fill:#999;stroke:#4c4c4c;stroke-width:2" d="M381,595 l68,0 28,-40 -68,0 -28,40z" /><path style="fill:#ccc;stroke:#4c4c4c;stroke-width:2" d="M409,555 l-28,-38 72,0 28,38 -72,0z" /><path style="fill:#ccc;stroke:#4c4c4c;stroke-width:2" d="M373,587 l-28,0 -5,-1 -5,-1 -4,-3 -4,-4 -3,-5 -3,-6 -1,-6 -1,-6 1,-7 1,-7 3,-6 3,-4 4,-4 4,-4 5,-1 5,-1 28,0 5,1 5,1 5,4 4,4 3,4 2,6 2,7 0,7 0,6 -2,6 -2,6 -3,5 -4,4 -5,3 -5,1 -5,1z" /><ellipse style="fill:#e5e5e5;stroke:#4c4c4c;stroke-width:2" cx="346" cy="554" rx="27" ry="33" /><ellipse style="fill:#999;stroke:#4c4c4c;stroke-width:2" cx="435" cy="988" rx="38" ry="11" /><path style="fill:#ccc" d="M39,41 l0,-38 452,0 0,38 -452,0z" /><path style="fill:#d9d9d9" d="M39,39 l0,-32 452,0 0,32 -452,0z" /><path style="fill:#e5e5e5" d="M39,35 l0,-24 452,0 0,24 -452,0z" /><path style="fill:#f2f2f2" d="M39,29 l0,-14 452,0 0,14 -452,0z" /><path style="fill:#fff" d="M39,25 l0,-4 452,0 0,4 -452,0z" /><path style="fill:none;stroke:#4c4c4c;stroke-width:2" d="M39,41 l0,-38 452,0 0,38 -452,0" /><path style="fill:#ccc" d="M415,0 l38,0 0,989 -38,0 0,-989z" /><path style="fill:#d9d9d9" d="M419,0 l32,0 0,989 -32,0 0,-989z" /><path style="fill:#e5e5e5" d="M423,0 l24,0 0,989 -24,0 0,-989z" /><path style="fill:#f2f2f2" d="M427,0 l14,0 0,989 -14,0 0,-989z" /><path style="fill:#fff" d="M433,0 l4,0 0,989 -4,0 0,-989z" /><path style="fill:none;stroke:#4c4c4c;stroke-width:2" d="M415,0 l38,0 0,989 -38,0 0,-989" /><path style="fill:#b2b2b2;stroke:#4c4c4c;stroke-width:2" d="M413,3 l2,0 0,38 -2,0 0,-38z" /><path style="fill:#b2b2b2;stroke:#4c4c4c;stroke-width:2" d="M453,3 l2,0 0,38 -2,0 0,-38z" /><path style="fill:#b2b2b2;stroke:#4c4c4c;stroke-width:2" d="M415,55 l0,-2 38,0 0,2 -38,0z" /><path style="fill:#b2b2b2;stroke:#4c4c4c;stroke-width:2" d="M477,3 l2,0 0,38 -2,0 0,-38z" /><path style="fill:none;stroke:#7f7f7f;stroke-width:2" d="M419,47 l32,0" /><path style="fill:#b2b2b2;stroke:#4c4c4c;stroke-width:2" d="M415,217 l0,-2 38,0 0,2 -38,0z" /><path style="fill:#b2b2b2;stroke:#4c4c4c;stroke-width:2" d="M415,425 l0,-2 38,0 0,2 -38,0z" /><path style="fill:none;stroke:#7f7f7f;stroke-width:2" d="M303,39 l0,-32" /><circle style="fill:#b2b2b2;stroke:#4c4c4c;stroke-width:2" cx="303" cy="51" r="10" /><circle style="fill:#333;stroke:#4c4c4c;stroke-width:2" cx="302" cy="50" r="7" /><path style="fill:none;stroke:#7f7f7f;stroke-width:2" d="M85,39 l0,-32" /><path style="fill:#4c4c4c;stroke:#4c4c4c;stroke-width:2" d="M0,91 l0,-2 1,-3 1,-3 2,-4 2,-3 3,-2 2,-2 2,-1 5,-1 4,-1 4,0 5,0 4,-1 4,-1 5,-1 5,-3 3,-2 2,-3 1,-3 2,-3 0,-2 0,-3 0,-3 0,-3 2,0 2,0 2,0 2,0 1,0 2,0 2,0 1,0 0,3 0,3 1,3 1,2 0,3 2,3 2,3 2,2 6,3 4,1 5,1 4,1 5,0 4,0 4,1 4,1 3,1 2,2 3,2 2,3 2,4 1,3 1,3 0,2 -8,0 -8,0 -8,0 -8,0 -8,0 -8,0 -8,0 -8,0 -9,0 -8,0 -8,0 -8,0 -8,0 -8,0 -8,0 -8,0z" /><ellipse style="fill:#b2b2b2;stroke:#4c4c4c;stroke-width:2" cx="64" cy="72" rx="57" ry="3" /><path style="fill:#b2b2b2;stroke:#4c4c4c;stroke-width:2" d="M301,61 l2,0 0,182 38,66 -76,0 34,-60 2,0 -32,58 66,0 -32,-58 -2,-6 0,-182z" /><path style="fill:#b2b2b2;stroke:#4c4c4c;stroke-width:2" d="M415,589 l0,-2 38,0 0,2 -38,0z" /><path style="fill:#b2b2b2;stroke:#4c4c4c;stroke-width:2" d="M415,837 l0,-2 38,0 0,2 -38,0z" /><path style="fill:#b2b2b2;stroke:#4c4c4c;stroke-width:2" d="M415,525 l0,-2 38,0 0,2 -38,0z" /><path style="fill:#666;stroke:#4c4c4c;stroke-width:2" d="M453,533 l38,0 0,38 -38,0 0,-38z" /><path style="fill:#fff;stroke:#4c4c4c;stroke-width:2" d="M459,537 l28,0 0,14 -28,0 0,-14z" /><path style="fill:none;stroke:#f00;stroke-width:2" d="M461,549 l12,0" /><path style="fill:none;stroke:#7f7f7f;stroke-width:2" d="M461,549 l1,-2 1,-2 1,-1 1,-1 2,-1 2,-1 2,0 2,0 3,0 3,2 3,2 1,4" /><circle style="fill:#000;stroke:#4c4c4c;stroke-width:2" cx="378" cy="529" r="9" /><circle style="fill:#000;stroke:#fff;stroke-width:2" cx="380" cy="527" r="7" /><ellipse style="fill:#ccc;stroke:#4c4c4c;stroke-width:2" cx="346" cy="554" rx="15" ry="19" /></svg>