<!DOCTYPE svg PUBLIC "-//W3C//DTD SVG 20000303 Stylable//EN" "http://www.w3.org/TR/2000/03/WD-SVG-20000303/DTD/svg-20000303-stylable.dtd"[]><svg xmlns="http://www.w3.org/2000/svg" width="164px" height="999px" viewBox="0 0 123 999"><path style="fill:#999" d="M46,942 l62,0 0,10 -62,0 0,-10z" /><path style="fill:#999" d="M46,901 l62,0 0,10 -62,0 0,-10z" /><path style="fill:#999" d="M46,860 l62,0 0,10 -62,0 0,-10z" /><path style="fill:#999" d="M46,818 l62,0 0,11 -62,0 0,-11z" /><path style="fill:#999" d="M46,777 l62,0 0,10 -62,0 0,-10z" /><path style="fill:#999" d="M46,736 l62,0 0,10 -62,0 0,-10z" /><path style="fill:#999" d="M46,695 l62,0 0,10 -62,0 0,-10z" /><path style="fill:#999" d="M46,654 l62,0 0,10 -62,0 0,-10z" /><path style="fill:#999" d="M46,612 l62,0 0,11 -62,0 0,-11z" /><path style="fill:#999" d="M46,571 l62,0 0,10 -62,0 0,-10z" /><path style="fill:#999" d="M46,530 l62,0 0,10 -62,0 0,-10z" /><path style="fill:#999" d="M46,489 l62,0 0,10 -62,0 0,-10z" /><path style="fill:#999" d="M46,448 l62,0 0,10 -62,0 0,-10z" /><path style="fill:#999" d="M46,406 l62,0 0,11 -62,0 0,-11z" /><path style="fill:#999" d="M46,365 l62,0 0,10 -62,0 0,-10z" /><path style="fill:#999" d="M46,324 l62,0 0,10 -62,0 0,-10z" /><path style="fill:#999" d="M46,283 l62,0 0,10 -62,0 0,-10z" /><path style="fill:#999" d="M46,242 l62,0 0,10 -62,0 0,-10z" /><path style="fill:#999" d="M46,200 l62,0 0,11 -62,0 0,-11z" /><path style="fill:#999" d="M46,159 l62,0 0,10 -62,0 0,-10z" /><path style="fill:#999" d="M46,118 l62,0 0,10 -62,0 0,-10z" /><path style="fill:#999" d="M46,77 l62,0 0,10 -62,0 0,-10z" /><path style="fill:#999" d="M46,35 l62,0 0,11 -62,0 0,-11z" /><path style="fill:none;stroke:#fff;stroke-width:2" d="M46,35 l62,0" /><path style="fill:none;stroke:#fff;stroke-width:2" d="M46,942 l62,0" /><path style="fill:none;stroke:#fff;stroke-width:2" d="M46,901 l62,0" /><path style="fill:none;stroke:#fff;stroke-width:2" d="M46,860 l62,0" /><path style="fill:none;stroke:#fff;stroke-width:2" d="M46,818 l62,0" /><path style="fill:none;stroke:#fff;stroke-width:2" d="M46,777 l62,0" /><path style="fill:none;stroke:#fff;stroke-width:2" d="M46,736 l62,0" /><path style="fill:none;stroke:#fff;stroke-width:2" d="M46,695 l62,0" /><path style="fill:none;stroke:#fff;stroke-width:2" d="M46,654 l62,0" /><path style="fill:none;stroke:#fff;stroke-width:2" d="M46,612 l62,0" /><path style="fill:none;stroke:#fff;stroke-width:2" d="M46,571 l62,0" /><path style="fill:none;stroke:#fff;stroke-width:2" d="M46,530 l62,0" /><path style="fill:none;stroke:#fff;stroke-width:2" d="M46,489 l62,0" /><path style="fill:none;stroke:#fff;stroke-width:2" d="M46,448 l62,0" /><path style="fill:none;stroke:#fff;stroke-width:2" d="M46,406 l62,0" /><path style="fill:none;stroke:#fff;stroke-width:2" d="M46,365 l62,0" /><path style="fill:none;stroke:#fff;stroke-width:2" d="M46,324 l62,0" /><path style="fill:none;stroke:#fff;stroke-width:2" d="M46,283 l62,0" /><path style="fill:none;stroke:#fff;stroke-width:2" d="M46,242 l62,0" /><path style="fill:none;stroke:#fff;stroke-width:2" d="M46,200 l62,0" /><path style="fill:none;stroke:#fff;stroke-width:2" d="M46,159 l62,0" /><path style="fill:none;stroke:#fff;stroke-width:2" d="M46,118 l62,0" /><path style="fill:none;stroke:#fff;stroke-width:2" d="M46,77 l62,0" /><path style="fill:#999;stroke:#4c4c4c;stroke-width:2" d="M118,994 l0,-990 -10,0 0,990 10,0z" /><path style="fill:#999;stroke:#4c4c4c;stroke-width:2" d="M35,994 l0,-990 11,0 0,990 -11,0z" /><path style="fill:#b2b2b2" d="M4,56 l31,-21 11,0 -31,21 -11,0z" /><path style="fill:#b2b2b2" d="M77,56 l31,-21 10,0 -31,21 -10,0z" /><path style="fill:#b2b2b2" d="M4,139 l31,-21 11,0 -31,21 -11,0z" /><path style="fill:#b2b2b2" d="M77,139 l31,-21 10,0 -31,21 -10,0z" /><path style="fill:#b2b2b2" d="M4,221 l31,-21 11,0 -31,21 -11,0z" /><path style="fill:#b2b2b2" d="M77,221 l31,-21 10,0 -31,21 -10,0z" /><path style="fill:#b2b2b2" d="M4,303 l31,-20 11,0 -31,20 -11,0z" /><path style="fill:#b2b2b2" d="M77,303 l31,-20 10,0 -31,20 -10,0z" /><path style="fill:#b2b2b2" d="M4,386 l31,-21 11,0 -31,21 -11,0z" /><path style="fill:#b2b2b2" d="M77,386 l31,-21 10,0 -31,21 -10,0z" /><path style="fill:#b2b2b2" d="M4,468 l31,-20 11,0 -31,20 -11,0z" /><path style="fill:#b2b2b2" d="M77,468 l31,-20 10,0 -31,20 -10,0z" /><path style="fill:#b2b2b2" d="M4,551 l31,-21 11,0 -31,21 -11,0z" /><path style="fill:#b2b2b2" d="M77,551 l31,-21 10,0 -31,21 -10,0z" /><path style="fill:#b2b2b2" d="M4,633 l31,-21 11,0 -31,21 -11,0z" /><path style="fill:#b2b2b2" d="M77,633 l31,-21 10,0 -31,21 -10,0z" /><path style="fill:#b2b2b2" d="M4,716 l31,-21 11,0 -31,21 -11,0z" /><path style="fill:#b2b2b2" d="M77,716 l31,-21 10,0 -31,21 -10,0z" /><path style="fill:#ccc" d="M15,716 l62,0 0,10 -62,0 0,-10z" /><path style="fill:#ccc" d="M15,633 l62,0 0,10 -62,0 0,-10z" /><path style="fill:#ccc" d="M15,551 l62,0 0,10 -62,0 0,-10z" /><path style="fill:#ccc" d="M15,468 l62,0 0,11 -62,0 0,-11z" /><path style="fill:#ccc" d="M15,386 l62,0 0,10 -62,0 0,-10z" /><path style="fill:#ccc" d="M15,303 l62,0 0,11 -62,0 0,-11z" /><path style="fill:#ccc" d="M15,221 l62,0 0,10 -62,0 0,-10z" /><path style="fill:#ccc" d="M15,139 l62,0 0,10 -62,0 0,-10z" /><path style="fill:#ccc" d="M15,56 l62,0 0,10 -62,0 0,-10z" /><path style="fill:none;stroke:#fff;stroke-width:2" d="M15,716 l62,0" /><path style="fill:none;stroke:#fff;stroke-width:2" d="M15,139 l62,0" /><path style="fill:none;stroke:#fff;stroke-width:2" d="M15,221 l62,0" /><path style="fill:none;stroke:#fff;stroke-width:2" d="M15,303 l62,0" /><path style="fill:none;stroke:#fff;stroke-width:2" d="M15,386 l62,0" /><path style="fill:none;stroke:#fff;stroke-width:2" d="M15,468 l62,0" /><path style="fill:none;stroke:#fff;stroke-width:2" d="M15,551 l62,0" /><path style="fill:none;stroke:#fff;stroke-width:2" d="M15,633 l62,0" /><path style="fill:none;stroke:#fff;stroke-width:2" d="M15,56 l62,0" /><path style="fill:#b2b2b2;stroke:#666;stroke-width:2" d="M87,56 l0,670 -10,0 0,-670 10,0z" /><path style="fill:#b2b2b2;stroke:#666;stroke-width:2" d="M4,56 l0,670 11,0 0,-670 -11,0z" /></svg>