<!DOCTYPE svg PUBLIC "-//W3C//DTD SVG 20000303 Stylable//EN" "http://www.w3.org/TR/2000/03/WD-SVG-20000303/DTD/svg-20000303-stylable.dtd"[]><svg xmlns="http://www.w3.org/2000/svg" width="201px" height="999px" viewBox="0 0 153 999"><path style="fill:#e5cb65" d="M68,45 l0,954 -15,0 0,-946 -11,-16 -15,-4 -12,7 0,51 -15,0 0,-61 23,-14 26,5 19,24z" /><path style="fill:#e5cb65" d="M153,30 l0,954 -15,0 0,-938 -11,-16 -15,-15 -13,15 0,47 -15,0 0,-62 24,-15 25,0 20,30z" /><path style="fill:#ccb24c" d="M145,914 l-77,15 0,-15 77,-15 0,15z" /><path style="fill:#ccb24c" d="M145,852 l-77,16 0,-16 77,-15 0,15z" /><path style="fill:#ccb24c" d="M145,791 l-77,15 0,-15 77,-15 0,15z" /><path style="fill:#ccb24c" d="M145,729 l-77,16 0,-16 77,-15 0,15z" /><path style="fill:#ccb24c" d="M145,668 l-77,15 0,-15 77,-15 0,15z" /><path style="fill:#ccb24c" d="M145,607 l-77,15 0,-15 77,-16 0,16z" /><path style="fill:#ccb24c" d="M145,545 l-77,15 0,-15 77,-15 0,15z" /><path style="fill:#ccb24c" d="M145,483 l-77,16 0,-16 77,-15 0,15z" /><path style="fill:#ccb24c" d="M145,422 l-77,15 0,-15 77,-15 0,15z" /><path style="fill:#ccb24c" d="M145,360 l-77,16 0,-16 77,-15 0,15z" /><path style="fill:#ccb24c" d="M145,299 l-77,15 0,-15 77,-15 0,15z" /><path style="fill:#ccb24c" d="M145,238 l-77,15 0,-15 77,-16 0,16z" /><path style="fill:#ccb24c" d="M145,176 l-77,15 0,-15 77,-15 0,15z" /><path style="fill:#ccb24c" d="M145,115 l-77,15 0,-15 77,-16 0,16z" /></svg>