<!DOCTYPE svg PUBLIC "-//W3C//DTD SVG 20000303 Stylable//EN" "http://www.w3.org/TR/2000/03/WD-SVG-20000303/DTD/svg-20000303-stylable.dtd"[]><svg xmlns="http://www.w3.org/2000/svg" width="999px" height="999px" viewBox="0 0 999 999"><path style="fill:#fc0;stroke:#4c4c4c;stroke-width:2" d="M41,874 l916,0 0,5 -916,0 0,-5z" /><path style="fill:#fc0;stroke:#4c4c4c;stroke-width:2" d="M41,790 l916,0 0,6 -916,0 0,-6z" /><path style="fill:#fc0;stroke:#4c4c4c;stroke-width:2" d="M41,707 l916,0 0,5 -916,0 0,-5z" /><path style="fill:#fc0;stroke:#4c4c4c;stroke-width:2" d="M41,624 l916,0 0,5 -916,0 0,-5z" /><path style="fill:#fc0;stroke:#4c4c4c;stroke-width:2" d="M41,541 l916,0 0,5 -916,0 0,-5z" /><path style="fill:#fc0;stroke:#4c4c4c;stroke-width:2" d="M41,457 l916,0 0,6 -916,0 0,-6z" /><path style="fill:#fc0;stroke:#4c4c4c;stroke-width:2" d="M41,374 l916,0 0,5 -916,0 0,-5z" /><path style="fill:#fc0;stroke:#4c4c4c;stroke-width:2" d="M41,291 l916,0 0,5 -916,0 0,-5z" /><path style="fill:#fc0;stroke:#4c4c4c;stroke-width:2" d="M41,208 l916,0 0,5 -916,0 0,-5z" /><path style="fill:#fc0;stroke:#4c4c4c;stroke-width:2" d="M41,124 l916,0 0,6 -916,0 0,-6z" /><path style="fill:#fc0;stroke:#4c4c4c;stroke-width:2" d="M77,960 l0,-916 6,0 0,916 -6,0z" /><path style="fill:#fc0;stroke:#4c4c4c;stroke-width:2" d="M244,960 l0,-916 5,0 0,916 -5,0z" /><path style="fill:#fc0;stroke:#4c4c4c;stroke-width:2" d="M410,960 l0,-916 6,0 0,916 -6,0z" /><path style="fill:#fc0;stroke:#4c4c4c;stroke-width:2" d="M577,960 l0,-916 5,0 0,916 -5,0z" /><path style="fill:#fc0;stroke:#4c4c4c;stroke-width:2" d="M743,960 l0,-916 6,0 0,916 -6,0z" /><path style="fill:#fc0;stroke:#4c4c4c;stroke-width:2" d="M910,960 l0,-916 5,0 0,916 -5,0z" /><path style="fill:#fc0" d="M0,0 l41,41 0,916 916,0 0,-916 -916,0 -41,-41 999,0 0,999 -999,0 0,-999z" /><path style="fill:none;stroke:#4c4c4c;stroke-width:2" d="M0,0 l999,0 0,999 -999,0 0,-999" /><path style="fill:none;stroke:#4c4c4c;stroke-width:2" d="M41,41 l916,0 0,916 -916,0 0,-916" /><path style="fill:#fc0;stroke:#4c4c4c;stroke-width:2" d="M41,915 l916,0 0,6 -916,0 0,-6z" /><path style="fill:#fc0;stroke:#4c4c4c;stroke-width:2" d="M41,832 l916,0 0,5 -916,0 0,-5z" /><path style="fill:#fc0;stroke:#4c4c4c;stroke-width:2" d="M41,749 l916,0 0,5 -916,0 0,-5z" /><path style="fill:#fc0;stroke:#4c4c4c;stroke-width:2" d="M41,666 l916,0 0,5 -916,0 0,-5z" /><path style="fill:#fc0;stroke:#4c4c4c;stroke-width:2" d="M41,582 l916,0 0,6 -916,0 0,-6z" /><path style="fill:#fc0;stroke:#4c4c4c;stroke-width:2" d="M41,499 l916,0 0,5 -916,0 0,-5z" /><path style="fill:#fc0;stroke:#4c4c4c;stroke-width:2" d="M41,416 l916,0 0,5 -916,0 0,-5z" /><path style="fill:#fc0;stroke:#4c4c4c;stroke-width:2" d="M41,333 l916,0 0,5 -916,0 0,-5z" /><path style="fill:#fc0;stroke:#4c4c4c;stroke-width:2" d="M41,249 l916,0 0,6 -916,0 0,-6z" /><path style="fill:#fc0;stroke:#4c4c4c;stroke-width:2" d="M41,166 l916,0 0,5 -916,0 0,-5z" /><path style="fill:#fc0;stroke:#4c4c4c;stroke-width:2" d="M41,83 l916,0 0,5 -916,0 0,-5z" /><path style="fill:#fc0;stroke:#4c4c4c;stroke-width:2" d="M161,960 l0,-916 5,0 0,916 -5,0z" /><path style="fill:#fc0;stroke:#4c4c4c;stroke-width:2" d="M327,960 l0,-916 6,0 0,916 -6,0z" /><path style="fill:#fc0;stroke:#4c4c4c;stroke-width:2" d="M494,960 l0,-916 5,0 0,916 -5,0z" /><path style="fill:#fc0;stroke:#4c4c4c;stroke-width:2" d="M660,960 l0,-916 6,0 0,916 -6,0z" /><path style="fill:#fc0;stroke:#4c4c4c;stroke-width:2" d="M827,960 l0,-916 5,0 0,916 -5,0z" /></svg>