<!DOCTYPE svg PUBLIC "-//W3C//DTD SVG 20000303 Stylable//EN" "http://www.w3.org/TR/2000/03/WD-SVG-20000303/DTD/svg-20000303-stylable.dtd"[]><svg xmlns="http://www.w3.org/2000/svg" width="999px" height="655px" viewBox="0 0 999 638"><path style="fill:#999;stroke:#4c4c4c;stroke-width:2" d="M4,633 l0,-494 165,-83 0,495 -20,10 0,-227 -124,62 0,-20 124,-62 0,-222 -124,62 0,464 -21,15z" /><path style="fill:#666;stroke:#4c4c4c;stroke-width:2" d="M169,56 l825,0 0,495 -21,0 0,-227 -783,0 0,-21 783,0 0,-226 -783,0 0,474 -21,0 0,-495z" /><path style="fill:#e5e5e5;stroke:#4c4c4c;stroke-width:2" d="M4,386 l165,-83 825,0 -165,83 -825,0z" /><path style="fill:#e5e5e5;stroke:#4c4c4c;stroke-width:2" d="M4,139 l165,-83 825,0 -165,83 -825,0z" /><path style="fill:#fc0" d="M988,252 l6,0 0,51 -6,0 0,-51z" /><path style="fill:#fc0" d="M87,293 l5,0 0,52 -5,0 0,-52z" /><path style="fill:#fc0" d="M169,252 l6,0 0,51 -6,0 0,-51z" /><path style="fill:#fc0" d="M375,252 l6,0 0,51 -6,0 0,-51z" /><path style="fill:#fc0" d="M581,252 l6,0 0,51 -6,0 0,-51z" /><path style="fill:#fc0" d="M787,252 l6,0 0,51 -6,0 0,-51z" /><path style="fill:#fc0" d="M988,5 l6,0 0,51 -6,0 0,-51z" /><path style="fill:#fc0" d="M87,46 l5,0 0,51 -5,0 0,-51z" /><path style="fill:#fc0" d="M169,5 l6,0 0,51 -6,0 0,-51z" /><path style="fill:#fc0" d="M375,5 l6,0 0,51 -6,0 0,-51z" /><path style="fill:#fc0" d="M581,5 l6,0 0,51 -6,0 0,-51z" /><path style="fill:#fc0" d="M787,5 l6,0 0,51 -6,0 0,-51z" /><path style="fill:#fc0" d="M994,257 l-825,0 -165,82 0,-5 165,-82 825,0 0,5z" /><path style="fill:#fc0" d="M994,282 l-825,0 -165,83 0,-5 165,-83 825,0 0,5z" /><path style="fill:#fc0" d="M994,9 l-825,0 -165,83 0,-5 165,-83 825,0 0,5z" /><path style="fill:#fc0" d="M994,35 l-825,0 -165,83 0,-5 165,-83 825,0 0,5z" /><path style="fill:#999;stroke:#4c4c4c;stroke-width:2" d="M829,633 l0,-494 165,-83 0,495 -21,10 0,-227 -124,62 0,-20 124,-62 0,-222 -124,62 0,469 -20,10z" /><path style="fill:#fc0" d="M906,293 l5,0 0,52 -5,0 0,-52z" /><path style="fill:#fc0" d="M4,334 l6,0 0,52 -6,0 0,-52z" /><path style="fill:#fc0" d="M211,334 l5,0 0,52 -5,0 0,-52z" /><path style="fill:#fc0" d="M417,334 l5,0 0,52 -5,0 0,-52z" /><path style="fill:#fc0" d="M623,334 l5,0 0,52 -5,0 0,-52z" /><path style="fill:#fc0" d="M823,334 l6,0 0,52 -6,0 0,-52z" /><path style="fill:#fc0" d="M906,46 l5,0 0,51 -5,0 0,-51z" /><path style="fill:#fc0" d="M4,87 l6,0 0,52 -6,0 0,-52z" /><path style="fill:#fc0" d="M211,87 l5,0 0,52 -5,0 0,-52z" /><path style="fill:#fc0" d="M417,87 l5,0 0,52 -5,0 0,-52z" /><path style="fill:#fc0" d="M623,87 l5,0 0,52 -5,0 0,-52z" /><path style="fill:#fc0" d="M823,87 l6,0 0,52 -6,0 0,-52z" /><path style="fill:#b2b2b2;stroke:#4c4c4c;stroke-width:2" d="M4,139 l825,0 0,494 -21,0 0,-226 -783,0 0,-21 783,0 0,-227 -783,0 0,474 -21,0 0,-494z" /><path style="fill:#fc0" d="M4,87 l825,0 165,-82 0,5 -165,82 -825,0 0,-5z" /><path style="fill:#fc0" d="M4,113 l825,0 165,-83 0,5 -165,83 -825,0 0,-5z" /><path style="fill:#fc0" d="M4,334 l825,0 165,-82 0,5 -165,82 -825,0 0,-5z" /><path style="fill:#fc0" d="M4,360 l825,0 165,-82 0,5 -165,82 -825,0 0,-5z" /></svg>