<!DOCTYPE svg PUBLIC "-//W3C//DTD SVG 20000303 Stylable//EN" "http://www.w3.org/TR/2000/03/WD-SVG-20000303/DTD/svg-20000303-stylable.dtd"[]><svg xmlns="http://www.w3.org/2000/svg" width="704px" height="999px" viewBox="0 0 687 999"><path style="fill:#7f7f7f;stroke:#4c4c4c;stroke-width:2" d="M239,183 l0,-183 200,0 0,183 -200,0z" /><path style="fill:#999" d="M279,183 l0,-183 120,0 0,183 -120,0z" /><path style="fill:#b2b2b2" d="M319,183 l0,-183 40,0 0,183 -40,0z" /><path style="fill:#ccc;stroke:#4c4c4c;stroke-width:2" d="M291,19 l96,0 0,92 -96,0 0,-92z" /><path style="fill:#999" d="M291,63 l96,0 0,20 -96,0 0,-20z" /><path style="fill:#333;stroke:#4c4c4c;stroke-width:2" d="M295,83 l88,0 0,24 -88,0 0,-24z" /><path style="fill:none;stroke:#4c4c4c;stroke-width:2" d="M291,19 l96,0 0,92 -96,0 0,-92" /><path style="fill:#4c4c4c;stroke:#4c4c4c;stroke-width:2" d="M523,559 l0,120 -8,0 0,-116 8,-4z" /><path style="fill:#4c4c4c;stroke:#4c4c4c;stroke-width:2" d="M575,531 l0,116 -4,0 0,-116 4,0z" /><path style="fill:#4c4c4c;stroke:#4c4c4c;stroke-width:2" d="M627,487 l0,116 -8,4 0,-120 8,0z" /><path style="fill:#4c4c4c;stroke:#4c4c4c;stroke-width:2" d="M663,419 l0,120 -4,0 0,-120 4,0z" /><path style="fill:#4c4c4c;stroke:#4c4c4c;stroke-width:2" d="M147,823 l0,-120 8,0 0,116 -8,4z" /><path style="fill:#4c4c4c;stroke:#4c4c4c;stroke-width:2" d="M91,851 l0,-116 8,0 0,116 -8,0z" /><path style="fill:#4c4c4c;stroke:#4c4c4c;stroke-width:2" d="M43,895 l0,-116 8,-4 0,120 -8,0z" /><path style="fill:#4c4c4c;stroke:#4c4c4c;stroke-width:2" d="M7,967 l0,-124 4,0 0,124 -4,0z" /><path style="fill:#999;stroke:#4c4c4c;stroke-width:2" d="M679,375 l-2,25 -6,23 -9,22 -12,20 -16,18 -18,18 -21,16 -22,15 -25,14 -27,13 -28,13 -29,12 -30,11 -31,12 -32,11 -32,10 -32,11 -31,11 -31,11 -31,12 -29,11 -28,13 -26,13 -25,14 -23,15 -21,16 -18,17 -15,18 -13,20 -9,21 -6,23 -1,25 11,0 2,-25 6,-23 9,-21 12,-20 14,-18 18,-17 20,-16 22,-15 24,-14 25,-13 28,-13 28,-11 29,-12 30,-11 30,-11 31,-11 31,-10 30,-11 30,-12 29,-11 29,-12 27,-13 25,-13 24,-14 22,-15 20,-16 18,-18 15,-18 12,-20 9,-22 5,-23 2,-25 12,0z" /><path style="fill:#7f7f7f;stroke:#4c4c4c;stroke-width:2" d="M507,531 l0,8 156,0 4,-8 -160,0z" /><path style="fill:#7f7f7f;stroke:#4c4c4c;stroke-width:2" d="M507,563 l0,8 144,0 4,-8 -148,0z" /><path style="fill:#7f7f7f;stroke:#4c4c4c;stroke-width:2" d="M507,599 l0,8 116,0 8,-8 -124,0z" /><path style="fill:#7f7f7f;stroke:#4c4c4c;stroke-width:2" d="M507,627 l0,8 84,0 8,-8 -92,0z" /><path style="fill:#7f7f7f;stroke:#4c4c4c;stroke-width:2" d="M507,651 l0,8 44,0 16,-8 -60,0z" /><path style="fill:#7f7f7f;stroke:#4c4c4c;stroke-width:2" d="M507,671 l0,8 8,0 20,-8 -28,0z" /><path style="fill:#7f7f7f;stroke:#4c4c4c;stroke-width:2" d="M167,967 l0,-12 -152,0 -4,12 156,0z" /><path style="fill:#7f7f7f;stroke:#4c4c4c;stroke-width:2" d="M167,931 l0,-8 -140,0 -4,8 144,0z" /><path style="fill:#7f7f7f;stroke:#4c4c4c;stroke-width:2" d="M167,899 l0,-12 -112,0 -8,12 120,0z" /><path style="fill:#7f7f7f;stroke:#4c4c4c;stroke-width:2" d="M167,867 l0,-8 -80,0 -8,8 88,0z" /><path style="fill:#7f7f7f;stroke:#4c4c4c;stroke-width:2" d="M167,843 l0,-8 -40,0 -16,8 56,0z" /><path style="fill:#7f7f7f;stroke:#4c4c4c;stroke-width:2" d="M167,823 l0,-8 -8,0 -16,8 24,0z" /><path style="fill:#4c4c4c;stroke:#4c4c4c;stroke-width:2" d="M679,495 l-2,25 -6,23 -9,22 -12,20 -16,18 -18,18 -21,16 -22,15 -25,14 -27,13 -28,13 -29,12 -30,11 -31,11 -32,12 -32,10 -32,11 -31,11 -31,11 -31,11 -29,12 -28,13 -26,13 -25,14 -23,15 -21,16 -18,17 -15,18 -13,20 -9,21 -6,23 -1,25 11,0 2,-25 6,-23 9,-21 12,-20 14,-18 18,-17 20,-16 22,-15 24,-14 25,-13 28,-13 28,-12 29,-11 30,-11 30,-11 31,-11 31,-10 30,-12 30,-11 29,-11 29,-12 27,-13 25,-13 24,-14 22,-15 20,-16 18,-18 15,-18 12,-20 9,-22 5,-23 2,-25 12,0z" /><path style="fill:#666;stroke:#4c4c4c;stroke-width:2" d="M471,183 l0,-92 72,0 0,92 8,0 0,-92 72,0 0,92 8,0 0,-100 -1,0 -1,0 -2,0 -3,0 -4,0 -5,0 -5,0 -5,0 -7,0 -6,0 -7,0 -7,0 -8,0 -7,0 -8,0 -8,0 -8,0 -8,0 -7,0 -8,0 -7,0 -7,0 -7,0 -6,0 -5,0 -6,0 -4,0 -4,0 -3,0 -2,0 -2,0 0,0 0,100 8,0z" /><path style="fill:#7f7f7f;stroke:#4c4c4c;stroke-width:2" d="M571,479 l0,-84 72,0 0,84 8,0 0,-3 0,-4 0,-3 0,-3 0,-3 0,-3 0,-3 0,-3 0,-2 0,-3 0,-3 0,-2 0,-3 0,-3 0,-2 0,-3 0,-3 0,-2 0,-3 0,-2 0,-3 0,-3 0,-3 0,-2 0,-3 0,-3 0,-3 0,-3 0,-3 0,-3 0,-4 0,-3 -1,0 -3,0 -4,0 -6,0 -7,0 -7,0 -8,0 -8,0 -8,0 -8,0 -8,0 -6,0 -6,0 -4,0 -3,0 -1,0 0,92 8,0z" /><path style="fill:#7f7f7f;stroke:#4c4c4c;stroke-width:2" d="M571,387 l0,-92 72,0 0,92 8,0 0,-3 0,-3 0,-3 0,-3 0,-3 0,-3 0,-3 0,-4 0,-3 0,-3 0,-3 0,-3 0,-3 0,-3 0,-4 0,-3 0,-3 0,-3 0,-3 0,-4 0,-3 0,-3 0,-3 0,-3 0,-3 0,-3 0,-3 0,-4 0,-3 0,-3 0,-3 0,-3 -1,0 -3,0 -4,0 -6,0 -7,0 -7,0 -8,0 -8,0 -8,0 -8,0 -8,0 -6,0 -6,0 -4,0 -3,0 -1,0 0,100 8,0z" /><path style="fill:#7f7f7f;stroke:#4c4c4c;stroke-width:2" d="M571,287 l0,-96 72,0 0,96 8,0 0,-3 0,-4 0,-3 0,-3 0,-3 0,-4 0,-3 0,-3 0,-3 0,-4 0,-3 0,-3 0,-3 0,-3 0,-4 0,-3 0,-3 0,-3 0,-3 0,-4 0,-3 0,-3 0,-3 0,-3 0,-4 0,-3 0,-3 0,-3 0,-4 0,-3 0,-3 0,-4 -1,0 -3,0 -4,0 -6,0 -7,0 -7,0 -8,0 -8,0 -8,0 -8,0 -8,0 -6,0 -6,0 -4,0 -3,0 -1,0 0,104 8,0z" /><path style="fill:#7f7f7f;stroke:#4c4c4c;stroke-width:2" d="M571,183 l0,-92 72,0 0,92 8,0 0,-3 0,-3 0,-3 0,-3 0,-3 0,-3 0,-3 0,-3 0,-3 0,-4 0,-3 0,-3 0,-3 0,-3 0,-3 0,-4 0,-3 0,-3 0,-3 0,-3 0,-4 0,-3 0,-3 0,-3 0,-3 0,-3 0,-3 0,-3 0,-3 0,-4 0,-3 0,-3 -1,0 -3,0 -4,0 -6,0 -7,0 -7,0 -8,0 -8,0 -8,0 -8,0 -8,0 -6,0 -6,0 -4,0 -3,0 -1,0 0,100 8,0z" /><path style="fill:#7f7f7f;stroke:#4c4c4c;stroke-width:2" d="M179,183 l0,-92 72,0 0,92 8,0 0,-92 76,0 0,92 8,0 0,-92 76,0 0,92 8,0 0,-92 72,0 0,92 8,0 0,-100 -336,0 0,100 8,0z" /><path style="fill:#4c4c4c;stroke:#4c4c4c;stroke-width:2" d="M507,427 l176,0 0,8 -176,0 0,-8z" /><path style="fill:#7f7f7f;stroke:#4c4c4c;stroke-width:2" d="M175,999 l0,-408 328,0 0,408 -328,0z" /><path style="fill:#999" d="M235,999 l0,-408 204,0 0,408 -204,0z" /><path style="fill:#b2b2b2" d="M303,999 l0,-408 68,0 0,408 -68,0z" /><path style="fill:#4c4c4c;stroke:#4c4c4c;stroke-width:2" d="M179,135 l320,0 0,8 -320,0 0,-8z" /><path style="fill:#7f7f7f" d="M171,591 l0,-408 336,0 0,408 -336,0z" /><path style="fill:#999" d="M203,591 l0,-408 272,0 0,408 -272,0z" /><path style="fill:#b2b2b2" d="M235,591 l0,-408 204,0 0,408 -204,0z" /><path style="fill:#ccc" d="M271,591 l0,-408 136,0 0,408 -136,0z" /><path style="fill:#e5e5e5" d="M303,591 l0,-408 68,0 0,408 -68,0z" /><path style="fill:#fff" d="M331,591 l0,-408 16,0 0,408 -16,0z" /><path style="fill:none;stroke:#4c4c4c;stroke-width:2" d="M171,591 l0,-408 336,0 0,408 -336,0" /><path style="fill:none;stroke:#4c4c4c;stroke-width:2" d="M171,183 l336,0 0,-100 -336,0 0,100" /><path style="fill:#4c4c4c;stroke:#4c4c4c;stroke-width:2" d="M159,419 l360,0 0,8 -360,0 0,-8z" /><path style="fill:#4c4c4c;stroke:#4c4c4c;stroke-width:2" d="M159,179 l500,0 0,8 -500,0 0,-8z" /><path style="fill:none;stroke:#7f7f7f;stroke-width:2" d="M171,523 l336,0" /><path style="fill:none;stroke:#7f7f7f;stroke-width:2" d="M171,387 l336,0" /><path style="fill:none;stroke:#7f7f7f;stroke-width:2" d="M171,319 l336,0" /><path style="fill:#666;stroke:#4c4c4c;stroke-width:2" d="M519,479 l0,-96 72,0 0,96 8,0 0,-96 76,0 0,96 8,0 0,-104 -1,0 -1,0 -3,0 -3,0 -4,0 -4,0 -6,0 -6,0 -6,0 -7,0 -7,0 -8,0 -8,0 -8,0 -8,0 -8,0 -8,0 -8,0 -8,0 -8,0 -8,0 -7,0 -7,0 -7,0 -6,0 -5,0 -4,0 -4,0 -4,0 -2,0 -1,0 -1,0 0,104 12,0z" /><path style="fill:#4c4c4c;stroke:#4c4c4c;stroke-width:2" d="M503,479 l184,0 0,16 -184,0 0,-16z" /><path style="fill:#4c4c4c;stroke:#4c4c4c;stroke-width:2" d="M439,15 l12,0 0,52 -12,0 0,-52z" /></svg>