<!DOCTYPE svg PUBLIC "-//W3C//DTD SVG 20000303 Stylable//EN" "http://www.w3.org/TR/2000/03/WD-SVG-20000303/DTD/svg-20000303-stylable.dtd"[]><svg xmlns="http://www.w3.org/2000/svg" width="595px" height="999px" viewBox="0 0 571 999"><path style="fill:#4c4c4c;stroke:#4c4c4c;stroke-width:2" d="M275,0 l168,0 0,75 -168,0 0,-75z" /><path style="fill:#b2b2b2" d="M335,3 l12,0 0,68 -12,0 0,-68z" /><path style="fill:#b2b2b2" d="M319,3 l8,0 0,68 -8,0 0,-68z" /><path style="fill:#b2b2b2" d="M351,3 l12,0 0,68 -12,0 0,-68z" /><path style="fill:#b2b2b2" d="M367,3 l68,0 0,68 -68,0 0,-68z" /><circle style="fill:#0f0;stroke:#4c4c4c;stroke-width:2" cx="285" cy="9" r="6" /><circle style="fill:#7f7f7f;stroke:#4c4c4c;stroke-width:2" cx="301" cy="9" r="6" /><ellipse style="fill:#7f7f7f;stroke:#4c4c4c;stroke-width:2" cx="301" cy="27" rx="6" ry="4" /><ellipse style="fill:#f00;stroke:#4c4c4c;stroke-width:2" cx="285" cy="27" rx="6" ry="4" /><path style="fill:#4c4c4c;stroke:#4c4c4c;stroke-width:2" d="M19,231 l528,0 0,20 -528,0 0,-20z" /><path style="fill:#4c4c4c;stroke:#4c4c4c;stroke-width:2" d="M19,251 l132,132 264,0 132,-132 -44,0 -92,96 -252,0 -96,-96 -44,0z" /><path style="fill:#333" d="M151,355 l264,0 0,-104 -264,0 0,104z" /><path style="fill:#666" d="M163,355 l232,0 0,-104 -232,0 0,104z" /><path style="fill:#7f7f7f" d="M179,355 l188,0 0,-104 -188,0 0,104z" /><path style="fill:#b2b2b2" d="M203,355 l124,0 0,-104 -124,0 0,104z" /><path style="fill:#4c4c4c" d="M151,355 l264,0 0,644 -264,0 0,-644z" /><path style="fill:#999" d="M163,355 l232,0 0,644 -232,0 0,-644z" /><path style="fill:#999" d="M19,203 l528,0 0,28 -528,0 0,-28z" /><path style="fill:#b2b2b2" d="M179,355 l188,0 0,644 -188,0 0,-644z" /><path style="fill:#ccc" d="M203,355 l124,0 0,644 -124,0 0,-644z" /><path style="fill:none;stroke:#4c4c4c;stroke-width:2" d="M151,251 l264,0 0,748 -264,0 0,-748" /><path style="fill:none;stroke:#4c4c4c;stroke-width:2" d="M19,203 l528,0 0,48 -528,0 0,-48" /><path style="fill:#666;stroke:#4c4c4c;stroke-width:2" d="M383,251 l-20,156 32,0 28,-156 -40,0z" /><path style="fill:#666;stroke:#4c4c4c;stroke-width:2" d="M147,251 l28,156 32,0 -20,-156 -40,0z" /><path style="fill:#b2b2b2;stroke:#4c4c4c;stroke-width:2" d="M19,251 l-19,-32 0,-188 571,0 0,188 -24,32 0,-48 -8,0 0,-144 -116,0 0,192 -40,0 0,-192 -196,0 0,192 -40,0 0,-192 -116,0 0,144 -12,0 0,48z" /><path style="fill:#4c4c4c" d="M559,231 l0,-200 12,0 0,188 -12,12z" /><path style="fill:#4c4c4c" d="M411,251 l0,-204 128,0 0,12 -116,0 0,192 -12,0z" /><path style="fill:#4c4c4c" d="M175,251 l0,-204 208,0 0,12 -196,0 0,192 -12,0z" /><path style="fill:#4c4c4c" d="M19,203 l0,-156 128,0 0,12 -116,0 0,144 -12,0z" /><path style="fill:none;stroke:#4c4c4c;stroke-width:2" d="M19,251 l-19,-32 0,-188 571,0 0,188 -24,32 0,-48 -8,0 0,-144 -116,0 0,192 -40,0 0,-192 -196,0 0,192 -40,0 0,-192 -116,0 0,144 -12,0 0,48" /></svg>