<!DOCTYPE svg PUBLIC "-//W3C//DTD SVG 20000303 Stylable//EN" "http://www.w3.org/TR/2000/03/WD-SVG-20000303/DTD/svg-20000303-stylable.dtd"[]><svg xmlns="http://www.w3.org/2000/svg" width="999px" height="919px" viewBox="0 0 999 915"><path style="fill:#b2b2b2;stroke:#4c4c4c;stroke-width:2" d="M473,571 l506,0 0,52 -506,0 0,-52z" /><path style="fill:#8c8c8c" d="M473,587 l506,0 0,20 -506,0 0,-20z" /><path style="fill:#7f7f7f;stroke:#4c4c4c;stroke-width:2" d="M463,582 l0,333 20,0 0,-333 -20,0z" /><path style="fill:#7f7f7f;stroke:#4c4c4c;stroke-width:2" d="M962,249 l0,666 21,0 0,-666 -21,0z" /><path style="fill:#ccc" d="M970,249 l0,660 6,0 0,-660 -6,0z" /><path style="fill:#ccc" d="M470,582 l0,327 7,0 0,-327 -7,0z" /><path style="fill:#7f7f7f;stroke:#4c4c4c;stroke-width:2" d="M0,859 l125,0 0,22 -125,0 0,-22z" /><path style="fill:#7f7f7f;stroke:#4c4c4c;stroke-width:2" d="M875,249 l124,0 0,20 -124,0 0,-20z" /><path style="fill:#7f7f7f;stroke:#4c4c4c;stroke-width:2" d="M79,803 l126,0 0,22 -126,0 0,-22z" /><path style="fill:#7f7f7f;stroke:#4c4c4c;stroke-width:2" d="M159,747 l124,0 0,22 -124,0 0,-22z" /><path style="fill:#7f7f7f;stroke:#4c4c4c;stroke-width:2" d="M239,693 l124,0 0,20 -124,0 0,-20z" /><path style="fill:#7f7f7f;stroke:#4c4c4c;stroke-width:2" d="M317,637 l126,0 0,20 -126,0 0,-20z" /><path style="fill:#7f7f7f;stroke:#4c4c4c;stroke-width:2" d="M397,581 l126,0 0,20 -126,0 0,-20z" /><path style="fill:#7f7f7f;stroke:#4c4c4c;stroke-width:2" d="M477,525 l124,0 0,22 -124,0 0,-22z" /><path style="fill:#7f7f7f;stroke:#4c4c4c;stroke-width:2" d="M555,469 l126,0 0,22 -126,0 0,-22z" /><path style="fill:#7f7f7f;stroke:#4c4c4c;stroke-width:2" d="M635,415 l126,0 0,20 -126,0 0,-20z" /><path style="fill:#7f7f7f;stroke:#4c4c4c;stroke-width:2" d="M715,359 l126,0 0,20 -126,0 0,-20z" /><path style="fill:#7f7f7f;stroke:#4c4c4c;stroke-width:2" d="M795,303 l124,0 0,20 -124,0 0,-20z" /><path style="fill:#fc0" d="M17,787 l462,-312 -12,-18 -462,312 12,18z" /><path style="fill:#fc0" d="M517,453 l462,-312 -12,-16 -462,310 12,18z" /><path style="fill:#fff" d="M513,447 l462,-312 -4,-6 -462,312 4,6z" /><path style="fill:#fff" d="M13,781 l462,-312 -4,-6 -462,312 4,6z" /><path style="fill:#fc0" d="M21,915 l0,-250 442,-298 0,215 20,0 0,-251 -483,324 0,260 21,0z" /><path style="fill:#fc0" d="M521,581 l0,-250 442,-296 0,214 20,0 0,-249 -484,321 0,260 22,0z" /><path style="fill:#fff" d="M513,581 l0,-252 458,-308 0,228 6,0 0,-240 -472,316 0,256 8,0z" /><path style="fill:#fff" d="M13,915 l0,-254 458,-308 0,229 6,0 0,-241 -472,318 0,256 8,0z" /><path style="fill:#bfbfbf;stroke:#4c4c4c;stroke-width:2" d="M999,249 l-948,666 -30,0 0,-42 978,-680 0,56z" /><path style="fill:#999" d="M989,217 l-954,666 12,16 942,-662 0,-20z" /></svg>