<!DOCTYPE svg PUBLIC "-//W3C//DTD SVG 20000303 Stylable//EN" "http://www.w3.org/TR/2000/03/WD-SVG-20000303/DTD/svg-20000303-stylable.dtd"[]><svg xmlns="http://www.w3.org/2000/svg" width="527px" height="999px" viewBox="0 0 499 999"><path style="fill:#000" d="M405,191 l-79,-88 -11,0 90,101 0,-13z" /><path style="fill:#000" d="M93,191 l79,-88 12,0 -91,101 0,-13z" /><path style="fill:#000" d="M96,719 l76,-74 12,0 -88,88 0,-14z" /><path style="fill:#000" d="M403,720 l-77,-75 -11,0 88,88 0,-13z" /><path style="fill:#000" d="M405,444 l-79,-75 -11,0 90,88 0,-13z" /><path style="fill:#000" d="M93,444 l79,-75 12,0 -91,88 0,-13z" /><path style="fill:#c90" d="M99,321 l0,-62 302,0 0,62 -8,0 0,-56 -140,0 0,20 140,0 0,6 -140,0 0,30 -8,0 0,-30 -138,0 0,-6 138,0 0,-20 -138,0 0,56 -8,0z" /><path style="fill:#4c4c4c;fill-rule:evenodd" d="M61,967 l0,-896 376,0 0,896 -32,0 0,-864 -312,0 0,864 -32,0z M93,885 l312,0 0,34 -312,0 0,-34z M93,635 l312,0 0,34 -312,0 0,-34z " /><path style="fill:none;stroke:#4c4c4c;stroke-width:2" d="M61,967 l0,-896 376,0 0,896 -32,0 0,-864 -312,0 0,864 -32,0" /><path style="fill:none;stroke:#4c4c4c;stroke-width:2" d="M93,885 l312,0 0,34 -312,0 0,-34" /><path style="fill:none;stroke:#4c4c4c;stroke-width:2" d="M93,635 l312,0 0,34 -312,0 0,-34" /><path style="fill:#7f7f7f;stroke:#4c4c4c;stroke-width:2" d="M93,915 l0,-30 -52,26 0,46 52,-42z" /><path style="fill:#7f7f7f;stroke:#4c4c4c;stroke-width:2" d="M405,915 l0,-30 52,26 0,46 -52,-42z" /><path style="fill:#7f7f7f;stroke:#4c4c4c;stroke-width:2" d="M93,665 l0,-30 -52,14 0,42 52,-26z" /><path style="fill:#7f7f7f;stroke:#4c4c4c;stroke-width:2" d="M405,665 l0,-30 52,14 0,42 -52,-26z" /><path style="fill:#7f7f7f;stroke:#4c4c4c;stroke-width:2" d="M405,103 l32,0 62,-62 -42,0 -52,62z" /><path style="fill:#7f7f7f;stroke:#4c4c4c;stroke-width:2" d="M93,103 l-32,0 -61,-62 41,0 52,62z" /><path style="fill:#b2b2b2;stroke:#4c4c4c;stroke-width:2" d="M93,103 l0,-32 -52,-71 0,41 52,62z" /><path style="fill:#b2b2b2;stroke:#4c4c4c;stroke-width:2" d="M405,103 l0,-32 52,-71 0,41 -52,62z" /><path style="fill:#b2b2b2;stroke:#4c4c4c;stroke-width:2" d="M93,635 l-32,0 -61,14 41,0 52,-14z" /><path style="fill:#b2b2b2;stroke:#4c4c4c;stroke-width:2" d="M405,635 l32,0 62,14 -42,0 -52,-14z" /><path style="fill:#b2b2b2;stroke:#4c4c4c;stroke-width:2" d="M93,885 l-32,0 -61,26 41,0 52,-26z" /><path style="fill:#b2b2b2;stroke:#4c4c4c;stroke-width:2" d="M405,885 l32,0 62,26 -42,0 -52,-26z" /><path style="fill:none;stroke:#4c4c4c;stroke-width:2" d="M113,333 l0,666" /><path style="fill:none;stroke:#4c4c4c;stroke-width:2" d="M177,333 l0,666" /><path style="fill:none;stroke:#4c4c4c;stroke-width:2" d="M113,373 l64,0" /><path style="fill:none;stroke:#4c4c4c;stroke-width:2" d="M113,415 l64,0" /><path style="fill:none;stroke:#4c4c4c;stroke-width:2" d="M113,457 l64,0" /><path style="fill:none;stroke:#4c4c4c;stroke-width:2" d="M113,499 l64,0" /><path style="fill:none;stroke:#4c4c4c;stroke-width:2" d="M113,541 l64,0" /><path style="fill:none;stroke:#4c4c4c;stroke-width:2" d="M113,583 l64,0" /><path style="fill:none;stroke:#4c4c4c;stroke-width:2" d="M113,623 l64,0" /><path style="fill:none;stroke:#4c4c4c;stroke-width:2" d="M113,665 l64,0" /><path style="fill:none;stroke:#4c4c4c;stroke-width:2" d="M113,707 l64,0" /><path style="fill:none;stroke:#4c4c4c;stroke-width:2" d="M113,749 l64,0" /><path style="fill:none;stroke:#4c4c4c;stroke-width:2" d="M113,791 l64,0" /><path style="fill:none;stroke:#4c4c4c;stroke-width:2" d="M113,833 l64,0" /><path style="fill:none;stroke:#4c4c4c;stroke-width:2" d="M113,873 l64,0" /><path style="fill:none;stroke:#4c4c4c;stroke-width:2" d="M113,915 l64,0" /><path style="fill:none;stroke:#4c4c4c;stroke-width:2" d="M113,957 l64,0" /><path style="fill:#b2b2b2;fill-rule:evenodd" d="M0,999 l0,-999 499,0 0,999 -42,0 0,-958 -416,0 0,958 -41,0z M41,911 l416,0 0,46 -416,0 0,-46z M41,649 l416,0 0,48 -416,0 0,-48z " /><path style="fill:none;stroke:#4c4c4c;stroke-width:2" d="M0,999 l0,-999 499,0 0,999 -42,0 0,-958 -416,0 0,958 -41,0" /><path style="fill:none;stroke:#4c4c4c;stroke-width:2" d="M41,911 l416,0 0,46 -416,0 0,-46" /><path style="fill:none;stroke:#4c4c4c;stroke-width:2" d="M41,649 l416,0 0,48 -416,0 0,-48" /><path style="fill:#666;fill-rule:evenodd" d="M9,993 l0,-984 480,0 0,984 -22,0 0,-962 -436,0 0,962 -22,0z M41,921 l416,0 0,26 -416,0 0,-26z M41,661 l416,0 0,26 -416,0 0,-26z " /><path style="fill:#666" d="M41,353 l416,0 0,16 -416,0 0,-16z" /><path style="fill:#ccc;stroke:#4c4c4c;stroke-width:2" d="M41,333 l416,0 0,20 -416,0 0,-20z" /><path style="fill:#000" d="M457,145 l-104,-104 -16,0 120,120 0,-16z" /><path style="fill:#000" d="M41,145 l104,-104 16,0 -120,120 0,-16z" /><path style="fill:#000" d="M41,801 l104,-104 16,0 -120,120 0,-16z" /><path style="fill:#000" d="M457,801 l-104,-104 -16,0 120,120 0,-16z" /><path style="fill:#000" d="M457,473 l-104,-104 -16,0 120,120 0,-16z" /><path style="fill:#000" d="M41,473 l104,-104 16,0 -120,120 0,-16z" /><path style="fill:#d9d9d9;stroke:#4c4c4c;stroke-width:2" d="M207,749 l-20,-42 124,0 -20,42 -84,0z" /><path style="fill:#999;stroke:#4c4c4c;stroke-width:2" d="M187,707 l20,-84 84,0 20,84 -124,0z" /><path style="fill:none;stroke:#7f7f7f;stroke-width:2" d="M207,749 l10,-42" /><path style="fill:none;stroke:#7f7f7f;stroke-width:2" d="M291,749 l-10,-42" /><path style="fill:#f2f2f2;stroke:#4c4c4c;stroke-width:2" d="M41,333 l52,-12 312,0 52,12 -416,0z" /><path style="fill:#fc0" d="M51,333 l0,-84 396,0 0,84 -10,0 0,-74 -182,0 0,32 182,0 0,10 -182,0 0,32 -12,0 0,-32 -182,0 0,-10 182,0 0,-32 -182,0 0,74 -10,0z" /></svg>