<!DOCTYPE svg PUBLIC "-//W3C//DTD SVG 20000303 Stylable//EN" "http://www.w3.org/TR/2000/03/WD-SVG-20000303/DTD/svg-20000303-stylable.dtd"[]><svg xmlns="http://www.w3.org/2000/svg" width="591px" height="999px" viewBox="0 0 567 999"><path style="fill:#7f7f7f;stroke:#4c4c4c;stroke-width:2" d="M119,347 l0,-304 328,0 0,304 -328,0z" /><path style="fill:#999" d="M183,347 l0,-304 200,0 0,304 -200,0z" /><path style="fill:#b2b2b2" d="M247,347 l0,-304 72,0 0,304 -72,0z" /><path style="fill:#7f7f7f;stroke:#4c4c4c;stroke-width:2" d="M4,999 l0,-652 559,0 0,652 -559,0z" /><path style="fill:#999" d="M111,999 l0,-652 344,0 0,652 -344,0z" /><path style="fill:#b2b2b2" d="M227,999 l0,-652 112,0 0,652 -112,0z" /><path style="fill:#4c4c4c;stroke:#4c4c4c;stroke-width:2" d="M19,263 l528,0 0,16 -528,0 0,-16z" /><path style="fill:#4c4c4c" d="M119,343 l328,0 0,-40 -328,0 0,40z" /><path style="fill:#666" d="M183,343 l200,0 0,-40 -200,0 0,40z" /><path style="fill:none;stroke:#4c4c4c;stroke-width:2" d="M119,343 l328,0 0,-40 -328,0 0,40" /><path style="fill:#7f7f7f;stroke:#4c4c4c;stroke-width:2" d="M19,347 l0,-152 116,0 0,152 16,0 0,-152 124,0 0,152 16,0 0,-152 124,0 0,152 16,0 0,-152 116,0 0,152 16,0 0,-168 -559,0 0,168 15,0z" /><path style="fill:#333;stroke:#4c4c4c;stroke-width:2" d="M515,559 l-56,0 0,20 56,0 0,-20z" /><path style="fill:#333;stroke:#4c4c4c;stroke-width:2" d="M515,835 l-56,0 0,24 56,0 0,-24z" /><path style="fill:#4c4c4c;stroke:#4c4c4c;stroke-width:2" d="M0,343 l567,0 0,12 -567,0 0,-12z" /><path style="fill:#333;stroke:#4c4c4c;stroke-width:2" d="M527,339 l0,-3 -1,-3 0,-2 -1,-2 -1,-3 -2,-1 -1,-2 -2,-2 -2,-1 -2,-1 -2,-2 -3,0 -2,-1 -3,0 -3,-1 -3,0 -60,0 0,16 60,0 3,0 2,1 2,1 2,1 1,1 1,1 1,2 0,1 0,660 16,0 0,-660z" /><path style="fill:#333;stroke:#4c4c4c;stroke-width:2" d="M491,167 l0,-2 0,-2 0,-2 -1,-2 0,-2 -1,-2 0,-1 -1,-2 -1,-2 -1,-1 -1,-2 -1,-2 -1,-1 -1,-2 -1,-1 -2,-2 -64,-60 0,20 52,52 2,2 1,2 1,2 2,2 1,3 0,2 1,2 0,1 0,832 16,0 0,-832z" /><path style="fill:#4c4c4c;stroke:#4c4c4c;stroke-width:2" d="M115,35 l336,0 0,12 -336,0 0,-12z" /><path style="fill:#e5e5e5;stroke:#4c4c4c;stroke-width:2" d="M115,35 l168,-35 168,35 -336,0z" /></svg>