<!DOCTYPE svg PUBLIC "-//W3C//DTD SVG 20000303 Stylable//EN" "http://www.w3.org/TR/2000/03/WD-SVG-20000303/DTD/svg-20000303-stylable.dtd"[]><svg xmlns="http://www.w3.org/2000/svg" width="999px" height="763px" viewBox="0 0 999 754"><path style="fill:#4c4c4c;stroke:#4c4c4c;stroke-width:2" d="M989,581 l0,-490 -653,0 -327,163 0,490 31,-20 0,-439 265,-133 0,439 31,-10 40,0 0,-450 572,0 0,450 41,0z" /><path style="fill:none;stroke:#4c4c4c;stroke-width:2" d="M40,724 l265,-572" /><path style="fill:none;stroke:#4c4c4c;stroke-width:2" d="M305,591 l-265,-306" /><path style="fill:none;stroke:#4c4c4c;stroke-width:2" d="M377,581 l571,-450" /><path style="fill:none;stroke:#4c4c4c;stroke-width:2" d="M948,581 l-571,-450" /><path style="fill:#ccc;stroke:#4c4c4c;stroke-width:2" d="M9,254 l327,-163 653,0 -327,163 -653,0z" /><path style="fill:none;stroke:#7f7f7f;stroke-width:2" d="M50,744 l572,-449" /><path style="fill:none;stroke:#7f7f7f;stroke-width:2" d="M622,744 l-572,-449" /><path style="fill:none;stroke:#7f7f7f;stroke-width:2" d="M693,724 l265,-582" /><path style="fill:none;stroke:#7f7f7f;stroke-width:2" d="M958,601 l-265,-316" /><path style="fill:#7f7f7f;stroke:#4c4c4c;stroke-width:2" d="M9,744 l0,-490 653,0 327,-163 0,490 -31,20 0,-459 -265,143 0,439 -31,20 -40,0 0,-449 -572,0 0,449 -41,0z" /><path style="fill:none;stroke:#fc0;stroke-width:2" d="M173,254 l0,-81" /><path style="fill:none;stroke:#fc0;stroke-width:2" d="M499,254 l0,-81" /><path style="fill:none;stroke:#fc0;stroke-width:2" d="M9,213 l327,-163 653,0 -327,163 -653,0" /><path style="fill:none;stroke:#fc0;stroke-width:2" d="M9,173 l327,-164 653,0 -327,164 -653,0" /><path style="fill:none;stroke:#fc0;stroke-width:2" d="M91,213 l0,-82" /><path style="fill:none;stroke:#fc0;stroke-width:2" d="M254,131 l0,-81" /><path style="fill:none;stroke:#fc0;stroke-width:2" d="M499,91 l0,-82" /><path style="fill:none;stroke:#fc0;stroke-width:2" d="M825,91 l0,-82" /><path style="fill:none;stroke:#fc0;stroke-width:2" d="M907,131 l0,-81" /><path style="fill:none;stroke:#fc0;stroke-width:2" d="M744,213 l0,-82" /></svg>