<!DOCTYPE svg PUBLIC "-//W3C//DTD SVG 20000303 Stylable//EN" "http://www.w3.org/TR/2000/03/WD-SVG-20000303/DTD/svg-20000303-stylable.dtd"[]><svg xmlns="http://www.w3.org/2000/svg" width="999px" height="920px" viewBox="0 0 999 915"><path style="fill:#7f7f7f;stroke:#4c4c4c;stroke-width:2" d="M0,860 l124,0 0,21 -124,0 0,-21z" /><path style="fill:#7f7f7f;stroke:#4c4c4c;stroke-width:2" d="M874,249 l125,0 0,21 -125,0 0,-21z" /><path style="fill:#7f7f7f;stroke:#4c4c4c;stroke-width:2" d="M79,804 l125,0 0,21 -125,0 0,-21z" /><path style="fill:#7f7f7f;stroke:#4c4c4c;stroke-width:2" d="M158,748 l125,0 0,21 -125,0 0,-21z" /><path style="fill:#7f7f7f;stroke:#4c4c4c;stroke-width:2" d="M238,693 l125,0 0,21 -125,0 0,-21z" /><path style="fill:#7f7f7f;stroke:#4c4c4c;stroke-width:2" d="M318,637 l124,0 0,21 -124,0 0,-21z" /><path style="fill:#7f7f7f;stroke:#4c4c4c;stroke-width:2" d="M397,582 l125,0 0,21 -125,0 0,-21z" /><path style="fill:#7f7f7f;stroke:#4c4c4c;stroke-width:2" d="M477,526 l125,0 0,21 -125,0 0,-21z" /><path style="fill:#7f7f7f;stroke:#4c4c4c;stroke-width:2" d="M556,471 l124,0 0,21 -124,0 0,-21z" /><path style="fill:#7f7f7f;stroke:#4c4c4c;stroke-width:2" d="M635,415 l125,0 0,21 -125,0 0,-21z" /><path style="fill:#7f7f7f;stroke:#4c4c4c;stroke-width:2" d="M715,359 l125,0 0,21 -125,0 0,-21z" /><path style="fill:#7f7f7f;stroke:#4c4c4c;stroke-width:2" d="M794,304 l125,0 0,21 -125,0 0,-21z" /><path style="fill:#b2b2b2;stroke:#4c4c4c;stroke-width:2" d="M473,572 l505,0 0,52 -505,0 0,-52z" /><path style="fill:#8c8c8c" d="M473,588 l505,0 0,20 -505,0 0,-20z" /><path style="fill:#7f7f7f;stroke:#4c4c4c;stroke-width:2" d="M17,787 l462,-311 -13,-17 -461,311 12,17z" /><path style="fill:#7f7f7f;stroke:#4c4c4c;stroke-width:2" d="M516,454 l462,-311 -12,-18 -461,312 11,17z" /><path style="fill:#f2f2f2" d="M512,448 l462,-311 -4,-6 -462,311 4,6z" /><path style="fill:#f2f2f2" d="M13,781 l461,-311 -4,-6 -462,311 5,6z" /><path style="fill:#7f7f7f;stroke:#4c4c4c;stroke-width:2" d="M520,582 l0,-249 442,-297 0,879 21,0 0,-915 -484,322 0,260 21,0z" /><path style="fill:#7f7f7f;stroke:#4c4c4c;stroke-width:2" d="M20,915 l0,-249 443,-297 0,546 20,0 0,-582 -483,322 0,260 20,0z" /><path style="fill:#f2f2f2" d="M13,915 l0,-252 457,-308 0,555 7,0 0,-567 -471,316 0,256 7,0z" /><path style="fill:#f2f2f2" d="M513,582 l0,-252 457,-308 0,888 6,0 0,-900 -471,316 0,256 8,0z" /><path style="fill:#bfbfbf;stroke:#4c4c4c;stroke-width:2" d="M999,249 l-948,666 -31,0 0,-41 979,-680 0,55z" /><path style="fill:#999" d="M988,218 l-952,666 10,16 942,-661 0,-21z" /></svg>