<!DOCTYPE svg PUBLIC "-//W3C//DTD SVG 20000303 Stylable//EN" "http://www.w3.org/TR/2000/03/WD-SVG-20000303/DTD/svg-20000303-stylable.dtd"[]><svg xmlns="http://www.w3.org/2000/svg" width="524px" height="999px" viewBox="0 0 495 999"><path style="fill:#ababab;stroke:#4c4c4c;stroke-width:2" d="M354,889 l-99,-873 22,0 104,862 -16,11 -11,0z" /><path style="fill:none;stroke:#fff;stroke-width:2" d="M365,889 l-104,-873" /><path style="fill:#ababab;stroke:#4c4c4c;stroke-width:2" d="M0,971 l255,-955 22,0 -239,938 -28,17 -10,0z" /><path style="fill:none;stroke:#fff;stroke-width:2" d="M10,971 l251,-955" /><path style="fill:#ababab;stroke:#4c4c4c;stroke-width:2" d="M38,878 l0,11 136,16 0,-22 -115,-11 -21,6z" /><path style="fill:none;stroke:#fff;stroke-width:2" d="M38,878 l136,16" /><path style="fill:#ababab;stroke:#4c4c4c;stroke-width:2" d="M65,768 l0,11 136,16 0,-22 -114,-11 -22,6z" /><path style="fill:none;stroke:#fff;stroke-width:2" d="M65,768 l136,16" /><path style="fill:#ababab;stroke:#4c4c4c;stroke-width:2" d="M92,664 l0,11 136,16 0,-22 -114,-11 -22,6z" /><path style="fill:none;stroke:#fff;stroke-width:2" d="M92,664 l136,16" /><path style="fill:#ababab;stroke:#4c4c4c;stroke-width:2" d="M125,554 l0,11 119,5 0,-16 -104,-3 -15,3z" /><path style="fill:none;stroke:#fff;stroke-width:2" d="M125,554 l119,5" /><path style="fill:#ababab;stroke:#4c4c4c;stroke-width:2" d="M146,461 l0,11 115,0 0,-11 -115,0z" /><path style="fill:none;stroke:#fff;stroke-width:2" d="M146,461 l115,0" /><path style="fill:#ababab;stroke:#4c4c4c;stroke-width:2" d="M168,373 l0,11 115,0 0,-11 -115,0z" /><path style="fill:none;stroke:#fff;stroke-width:2" d="M168,373 l115,0" /><path style="fill:#ababab;stroke:#4c4c4c;stroke-width:2" d="M370,856 l-2,-1 -1,-1 -1,-2 0,-2 0,-2 1,-2 1,-1 2,0 98,11 0,11 -98,-11z" /><path style="fill:none;stroke:#fff;stroke-width:2" d="M370,850 l98,11" /><path style="fill:#ababab;stroke:#4c4c4c;stroke-width:2" d="M348,680 l-1,0 -2,-2 0,-1 -1,-2 1,-2 0,-2 2,-1 1,-1 98,11 0,11 -98,-11z" /><path style="fill:none;stroke:#fff;stroke-width:2" d="M348,675 l98,11" /><path style="fill:#ababab;stroke:#4c4c4c;stroke-width:2" d="M326,499 l-1,0 -1,-2 -1,-1 -1,-2 1,-2 1,-2 1,-1 1,-1 98,6 0,11 -98,-6z" /><path style="fill:none;stroke:#fff;stroke-width:2" d="M326,494 l98,5" /><path style="fill:#ababab;stroke:#4c4c4c;stroke-width:2" d="M304,340 l-1,-1 -1,-1 -1,-1 0,-3 0,-1 1,-2 1,-2 1,0 99,0 0,11 -99,0z" /><path style="fill:none;stroke:#fff;stroke-width:2" d="M304,334 l99,0" /><path style="fill:#ababab;stroke:#4c4c4c;stroke-width:2" d="M288,208 l-1,0 -2,-2 -1,-1 0,-2 0,-2 1,-2 2,-1 1,-1 93,-5 0,11 -93,5z" /><path style="fill:none;stroke:#fff;stroke-width:2" d="M288,203 l93,-6" /><path style="fill:#ababab;stroke:#4c4c4c;stroke-width:2" d="M277,98 l-1,0 -1,-1 -1,-2 -1,-2 1,-2 1,-2 1,-1 1,0 82,-12 0,12 -82,10z" /><path style="fill:none;stroke:#fff;stroke-width:2" d="M277,93 l82,-11" /><path style="fill:#ababab;stroke:#4c4c4c;stroke-width:2" d="M195,291 l11,3 93,-3 0,-17 -104,6 0,11z" /><path style="fill:none;stroke:#4c4c4c;stroke-width:2" d="M195,291 l104,-6" /><path style="fill:#ababab;stroke:#4c4c4c;stroke-width:2" d="M218,197 l11,4 92,-4 0,-16 -103,5 0,11z" /><path style="fill:none;stroke:#4c4c4c;stroke-width:2" d="M218,197 l103,-5" /><path style="fill:#ababab;stroke:#4c4c4c;stroke-width:2" d="M239,109 l11,6 82,-11 0,-22 -93,16 0,11z" /><path style="fill:none;stroke:#4c4c4c;stroke-width:2" d="M239,109 l98,-16" /><path style="fill:#ababab;stroke:#4c4c4c;stroke-width:2" d="M261,27 l11,5 82,-10 0,-22 -93,16 0,11z" /><path style="fill:none;stroke:#4c4c4c;stroke-width:2" d="M261,27 l91,-15" /><path style="fill:#ababab;stroke:#4c4c4c;stroke-width:2" d="M468,911 l-131,-911 22,0 136,900 -16,11 -11,0z" /><path style="fill:none;stroke:#fff;stroke-width:2" d="M479,911 l-137,-911" /><path style="fill:#ababab;stroke:#4c4c4c;stroke-width:2" d="M337,0 l22,0 -185,988 -22,11 -16,0 201,-999z" /><path style="fill:none;stroke:#fff;stroke-width:2" d="M152,999 l190,-999" /></svg>