<!DOCTYPE svg PUBLIC "-//W3C//DTD SVG 20000303 Stylable//EN" "http://www.w3.org/TR/2000/03/WD-SVG-20000303/DTD/svg-20000303-stylable.dtd"[]><svg xmlns="http://www.w3.org/2000/svg" width="998px" height="578px" viewBox="0 0 999 553"><path style="fill:#4c4c4c" d="M179,427 l-17,-9 0,-225 18,0 0,225 13,0 0,9 -14,0z" /><path style="fill:#999;stroke:#4c4c4c;stroke-width:2" d="M135,427 l0,-9 13,0 0,-225 18,0 0,225 13,0 0,9 -44,0z" /><path style="fill:#4c4c4c" d="M526,427 l-18,-9 0,-225 18,0 0,225 13,0 0,9 -13,0z" /><path style="fill:#999;stroke:#4c4c4c;stroke-width:2" d="M481,427 l0,-9 14,0 0,-225 18,0 0,225 13,0 0,9 -45,0z" /><path style="fill:#4c4c4c" d="M877,427 l-18,-9 0,-225 18,0 0,225 14,0 0,9 -14,0z" /><path style="fill:#999;stroke:#4c4c4c;stroke-width:2" d="M832,427 l0,-9 14,0 0,-225 18,0 0,225 13,0 0,9 -45,0z" /><path style="fill:#4c4c4c" d="M755,553 l-17,-9 0,-225 18,-13 0,238 13,0 0,9 -14,0z" /><path style="fill:#e5b200" d="M22,211 l126,-55 0,4 -126,55 0,-4z" /><path style="fill:#e5b200" d="M22,238 l126,-62 0,4 -126,63 0,-5z" /><path style="fill:#e5b200" d="M54,198 l4,-5 0,49 -4,5 0,-49z" /><path style="fill:#e5b200" d="M90,184 l4,-5 0,42 -4,3 0,-40z" /><path style="fill:#e5b200" d="M121,170 l5,-4 0,41 -5,4 0,-41z" /><path style="fill:#b2b2b2;stroke:#4c4c4c;stroke-width:2" d="M13,265 l729,0 135,-72 -729,0 -135,72z" /><path style="fill:#fc0" d="M13,211 l9,0 0,54 -9,0 0,-54z" /><path style="fill:#fc0" d="M733,211 l9,0 0,54 -9,0 0,-54z" /><path style="fill:#fc0" d="M157,211 l9,0 0,54 -9,0 0,-54z" /><path style="fill:#fc0" d="M301,211 l9,0 0,54 -9,0 0,-54z" /><path style="fill:#fc0" d="M445,211 l9,0 0,54 -9,0 0,-54z" /><path style="fill:#fc0" d="M589,211 l9,0 0,54 -9,0 0,-54z" /><path style="fill:#bf8c00" d="M148,157 l9,0 0,36 -9,0 0,-36z" /><path style="fill:#bf8c00" d="M868,157 l9,0 0,36 -9,0 0,-36z" /><path style="fill:#bf8c00" d="M292,157 l9,0 0,36 -9,0 0,-36z" /><path style="fill:#bf8c00" d="M436,157 l9,0 0,36 -9,0 0,-36z" /><path style="fill:#bf8c00" d="M580,157 l9,0 0,36 -9,0 0,-36z" /><path style="fill:#bf8c00" d="M724,157 l9,0 0,36 -9,0 0,-36z" /><path style="fill:#fc0" d="M22,211 l711,0 0,4 -711,0 0,-4z" /><path style="fill:#e5b200" d="M778,198 l5,-5 0,49 -5,5 0,-49z" /><path style="fill:#fc0" d="M22,238 l711,0 0,5 -711,0 0,-5z" /><path style="fill:#bf8c00" d="M157,157 l711,0 0,3 -711,0 0,-3z" /><path style="fill:#bf8c00" d="M157,175 l711,0 0,3 -711,0 0,-3z" /><path style="fill:#e5b200" d="M742,211 l126,-53 0,5 -126,52 0,-4z" /><path style="fill:#e5b200" d="M742,238 l126,-63 0,4 -126,64 0,-5z" /><path style="fill:#7f7f7f;stroke:#4c4c4c;stroke-width:2" d="M13,265 l729,0 0,54 -729,0 0,-54z" /><path style="fill:#e5b200" d="M814,184 l5,-5 0,42 -5,3 0,-40z" /><path style="fill:#e5b200" d="M846,170 l4,-4 0,41 -4,4 0,-41z" /><path style="fill:#4c4c4c;stroke:#4c4c4c;stroke-width:2" d="M742,265 l0,54 135,-85 0,-41 -135,72z" /><path style="fill:#333" d="M31,279 l693,0 0,26 -693,0 0,-26z" /><path style="fill:#000" d="M755,270 l0,31 113,-72 0,-22 -113,63z" /><path style="fill:#4c4c4c" d="M44,553 l-17,-9 0,-225 18,0 0,225 13,0 0,9 -14,0z" /><path style="fill:#999;stroke:#4c4c4c;stroke-width:2" d="M0,553 l0,-9 13,0 0,-225 18,0 0,225 13,0 0,9 -44,0z" /><path style="fill:#4c4c4c" d="M387,553 l-18,-9 0,-225 18,0 0,225 13,0 0,9 -13,0z" /><path style="fill:#999;stroke:#4c4c4c;stroke-width:2" d="M342,553 l0,-9 13,0 0,-225 18,0 0,225 14,0 0,9 -45,0z" /><path style="fill:#999;stroke:#4c4c4c;stroke-width:2" d="M711,553 l0,-9 13,0 0,-225 18,0 0,225 13,0 0,9 -44,0z" /><ellipse style="fill:#fff;stroke:#4c4c4c;stroke-width:2" cx="818" cy="96" rx="94" ry="96" /><ellipse style="fill:#000;stroke:#4c4c4c;stroke-width:2" cx="881" cy="96" rx="31" ry="38" /><ellipse style="fill:#fc0;stroke:#4c4c4c;stroke-width:2" cx="884" cy="213" rx="115" ry="61" /><ellipse style="fill:#fff;stroke:#4c4c4c;stroke-width:2" cx="741" cy="146" rx="94" ry="97" /><ellipse style="fill:#000;stroke:#4c4c4c;stroke-width:2" cx="804" cy="145" rx="31" ry="38" /></svg>