<!DOCTYPE svg PUBLIC "-//W3C//DTD SVG 20000303 Stylable//EN" "http://www.w3.org/TR/2000/03/WD-SVG-20000303/DTD/svg-20000303-stylable.dtd"[]><svg xmlns="http://www.w3.org/2000/svg" width="999px" height="726px" viewBox="0 0 999 711"><path style="fill:#bfd3f2" d="M301,57 l690,0 0,132 -690,0 0,-132z" /><path style="fill:#bfbf00" d="M303,49 l687,0 0,-37 -687,0 0,37z" /><path style="fill:#bfbf00" d="M303,190 l687,0 0,129 -687,0 0,-129z" /><path style="fill:#e0e0e0;fill-rule:evenodd" d="M199,327 l778,0 0,20 -778,0 0,-20z M995,327 l-18,0 0,381 18,0 0,-381z M469,47 l-161,0 0,-33 161,0 0,33z M469,184 l-161,0 0,-126 161,0 0,126z M640,184 l-161,0 0,-126 161,0 0,126z M812,184 l-161,0 0,-126 161,0 0,126z M984,184 l-161,0 0,-126 161,0 0,126z M995,195 l0,-11 0,-126 0,-11 0,-33 0,-11 -11,0 -161,0 -11,0 -161,0 -11,0 -161,0 -10,0 -161,0 0,0 -11,0 0,324 11,0 0,0 161,0 0,0 10,0 0,0 161,0 0,0 11,0 0,0 161,0 0,0 11,0 0,0 161,0 0,0 11,0 0,0 0,-11 0,-121z M823,195 l161,0 0,121 -161,0 0,-121z M651,195 l161,0 0,121 -161,0 0,-121z M479,195 l161,0 0,121 -161,0 0,-121z M308,195 l161,0 0,121 -161,0 0,-121z M640,47 l-161,0 0,-33 161,0 0,33z M812,47 l-161,0 0,-33 161,0 0,33z M984,47 l-161,0 0,-33 161,0 0,33z M199,184 l-20,0 0,524 20,0 0,-524z M23,184 l-20,0 0,524 20,0 0,-524z M297,184 l-15,0 0,143 15,0 0,-143z " /><path style="fill:none;stroke:#4c4c4c;stroke-width:2" d="M199,327 l778,0 0,20 -778,0 0,-20" /><path style="fill:none;stroke:#4c4c4c;stroke-width:2" d="M995,327 l-18,0 0,381 18,0 0,-381" /><path style="fill:none;stroke:#4c4c4c;stroke-width:2" d="M469,47 l-161,0 0,-33 161,0 0,33" /><path style="fill:none;stroke:#4c4c4c;stroke-width:2" d="M469,184 l-161,0 0,-126 161,0 0,126" /><path style="fill:none;stroke:#4c4c4c;stroke-width:2" d="M640,184 l-161,0 0,-126 161,0 0,126" /><path style="fill:none;stroke:#4c4c4c;stroke-width:2" d="M812,184 l-161,0 0,-126 161,0 0,126" /><path style="fill:none;stroke:#4c4c4c;stroke-width:2" d="M984,184 l-161,0 0,-126 161,0 0,126" /><path style="fill:none;stroke:#4c4c4c;stroke-width:2" d="M995,195 l0,-11 0,-126 0,-11 0,-33 0,-11 -11,0 -161,0 -11,0 -161,0 -11,0 -161,0 -10,0 -161,0 -11,0 0,324 11,0 161,0 10,0 161,0 11,0 161,0 11,0 161,0 11,0 0,-11 0,-121" /><path style="fill:none;stroke:#4c4c4c;stroke-width:2" d="M823,195 l161,0 0,121 -161,0 0,-121" /><path style="fill:none;stroke:#4c4c4c;stroke-width:2" d="M651,195 l161,0 0,121 -161,0 0,-121" /><path style="fill:none;stroke:#4c4c4c;stroke-width:2" d="M479,195 l161,0 0,121 -161,0 0,-121" /><path style="fill:none;stroke:#4c4c4c;stroke-width:2" d="M308,195 l161,0 0,121 -161,0 0,-121" /><path style="fill:none;stroke:#4c4c4c;stroke-width:2" d="M640,47 l-161,0 0,-33 161,0 0,33" /><path style="fill:none;stroke:#4c4c4c;stroke-width:2" d="M812,47 l-161,0 0,-33 161,0 0,33" /><path style="fill:none;stroke:#4c4c4c;stroke-width:2" d="M984,47 l-161,0 0,-33 161,0 0,33" /><path style="fill:none;stroke:#4c4c4c;stroke-width:2" d="M199,184 l-20,0 0,524 20,0 0,-524" /><path style="fill:none;stroke:#4c4c4c;stroke-width:2" d="M23,184 l-20,0 0,524 20,0 0,-524" /><path style="fill:none;stroke:#4c4c4c;stroke-width:2" d="M297,184 l-15,0 0,143 15,0 0,-143" /><path style="fill:#bfbf00;stroke:#4c4c4c;stroke-width:2" d="M282,327 l0,-11 -83,0 0,11 83,0z" /><path style="fill:#bfbf00;stroke:#4c4c4c;stroke-width:2" d="M23,321 l0,-5 156,0 0,5 -156,0z" /><path style="fill:#bfbf00;stroke:#4c4c4c;stroke-width:2" d="M282,284 l0,-11 -83,0 0,11 83,0z" /><path style="fill:#bfbf00;stroke:#4c4c4c;stroke-width:2" d="M23,277 l0,-4 156,0 0,4 -156,0z" /><path style="fill:#bfbf00;stroke:#4c4c4c;stroke-width:2" d="M282,238 l0,-11 -83,0 0,11 83,0z" /><path style="fill:#bfbf00;stroke:#4c4c4c;stroke-width:2" d="M23,234 l0,-7 156,0 0,7 -156,0z" /><path style="fill:#ff0;stroke:#4c4c4c;stroke-width:2" d="M282,195 l0,-11 -83,0 0,11 83,0z" /><path style="fill:#ff0;stroke:#4c4c4c;stroke-width:2" d="M23,190 l0,-6 156,0 0,6 -156,0z" /><path style="fill:#ffff7f" d="M18,186 l-8,0 0,519 8,0 0,-519z" /><path style="fill:#ffff7f" d="M195,186 l-9,0 0,519 9,0 0,-519z" /><path style="fill:#7f7f7f" d="M23,693 l156,0 0,8 -156,0 0,-8z" /><path style="fill:#7f7f7f" d="M23,660 l156,0 0,9 -156,0 0,-9z" /><path style="fill:#7f7f7f" d="M23,627 l156,0 0,9 -156,0 0,-9z" /><path style="fill:#7f7f7f" d="M23,597 l156,0 0,6 -156,0 0,-6z" /><path style="fill:#7f7f7f" d="M23,564 l156,0 0,9 -156,0 0,-9z" /><path style="fill:#7f7f7f" d="M23,531 l156,0 0,9 -156,0 0,-9z" /><path style="fill:#7f7f7f" d="M23,499 l156,0 0,9 -156,0 0,-9z" /><path style="fill:#7f7f7f" d="M23,466 l156,0 0,9 -156,0 0,-9z" /><path style="fill:#7f7f7f" d="M23,434 l156,0 0,8 -156,0 0,-8z" /><path style="fill:#7f7f7f" d="M23,401 l156,0 0,9 -156,0 0,-9z" /><path style="fill:#7f7f7f" d="M23,369 l156,0 0,8 -156,0 0,-8z" /><path style="fill:#7f7f7f" d="M23,336 l156,0 0,9 -156,0 0,-9z" /></svg>