<!DOCTYPE svg PUBLIC "-//W3C//DTD SVG 20000303 Stylable//EN" "http://www.w3.org/TR/2000/03/WD-SVG-20000303/DTD/svg-20000303-stylable.dtd"[]><svg xmlns="http://www.w3.org/2000/svg" width="999px" height="476px" viewBox="0 0 999 445"><path style="fill:#4c4c4c" d="M983,304 l-20,-10 0,-253 21,0 0,253 15,0 0,10 -16,0z" /><path style="fill:#4c4c4c" d="M847,445 l-20,-10 0,-252 20,-15 0,267 15,0 0,10 -15,0z" /><path style="fill:#4c4c4c" d="M590,304 l-20,-10 0,-253 20,0 0,253 15,0 0,10 -15,0z" /><path style="fill:#4c4c4c" d="M433,445 l-20,-10 0,-252 21,0 0,252 15,0 0,10 -16,0z" /><path style="fill:#4c4c4c" d="M201,304 l-20,-10 0,-253 21,0 0,253 14,0 0,10 -15,0z" /><path style="fill:#4c4c4c" d="M50,445 l-20,-10 0,-252 20,0 0,252 15,0 0,10 -15,0z" /><path style="fill:#999;stroke:#4c4c4c;stroke-width:2" d="M933,304 l0,-10 15,0 0,-253 20,0 0,253 15,0 0,10 -50,0z" /><path style="fill:#999;stroke:#4c4c4c;stroke-width:2" d="M797,445 l0,-10 15,0 0,-252 20,0 0,252 15,0 0,10 -50,0z" /><path style="fill:#999;stroke:#4c4c4c;stroke-width:2" d="M539,304 l0,-10 16,0 0,-253 20,0 0,253 15,0 0,10 -51,0z" /><path style="fill:#999;stroke:#4c4c4c;stroke-width:2" d="M383,445 l0,-10 15,0 0,-252 21,0 0,252 14,0 0,10 -50,0z" /><path style="fill:#999;stroke:#4c4c4c;stroke-width:2" d="M151,304 l0,-10 15,0 0,-253 20,0 0,253 15,0 0,10 -50,0z" /><path style="fill:#999;stroke:#4c4c4c;stroke-width:2" d="M0,445 l0,-10 15,0 0,-252 20,0 0,252 15,0 0,10 -50,0z" /><path style="fill:#e5b200" d="M25,61 l141,-61 0,5 -141,62 0,-6z" /><path style="fill:#e5b200" d="M25,92 l141,-70 0,5 -141,70 0,-5z" /><path style="fill:#e5b200" d="M60,47 l5,-6 0,56 -5,5 0,-55z" /><path style="fill:#e5b200" d="M101,31 l5,-5 0,46 -5,5 0,-46z" /><path style="fill:#e5b200" d="M136,16 l5,-5 0,46 -5,4 0,-45z" /><path style="fill:#b2b2b2;stroke:#4c4c4c;stroke-width:2" d="M15,122 l817,0 151,-81 -817,0 -151,81z" /><path style="fill:#fc0" d="M15,61 l10,0 0,61 -10,0 0,-61z" /><path style="fill:#fc0" d="M822,61 l10,0 0,61 -10,0 0,-61z" /><path style="fill:#fc0" d="M176,61 l10,0 0,61 -10,0 0,-61z" /><path style="fill:#fc0" d="M338,61 l10,0 0,61 -10,0 0,-61z" /><path style="fill:#fc0" d="M499,61 l10,0 0,61 -10,0 0,-61z" /><path style="fill:#fc0" d="M660,61 l10,0 0,61 -10,0 0,-61z" /><path style="fill:#bf8c00" d="M973,1 l10,0 0,40 -10,0 0,-40z" /><path style="fill:#bf8c00" d="M166,1 l10,0 0,40 -10,0 0,-40z" /><path style="fill:#bf8c00" d="M328,1 l10,0 0,40 -10,0 0,-40z" /><path style="fill:#bf8c00" d="M489,1 l10,0 0,40 -10,0 0,-40z" /><path style="fill:#bf8c00" d="M650,1 l10,0 0,40 -10,0 0,-40z" /><path style="fill:#bf8c00" d="M812,1 l10,0 0,40 -10,0 0,-40z" /><path style="fill:#fc0" d="M25,61 l797,0 0,6 -797,0 0,-6z" /><path style="fill:#fc0" d="M25,92 l797,0 0,5 -797,0 0,-5z" /><path style="fill:#e5b200" d="M872,47 l5,-6 0,56 -5,5 0,-55z" /><path style="fill:#bf8c00" d="M176,1 l797,0 0,4 -797,0 0,-4z" /><path style="fill:#bf8c00" d="M176,21 l797,0 0,4 -797,0 0,-4z" /><path style="fill:#e5b200" d="M832,61 l141,-59 0,6 -141,59 0,-6z" /><path style="fill:#e5b200" d="M832,92 l141,-71 0,5 -141,71 0,-5z" /><path style="fill:#7f7f7f;stroke:#4c4c4c;stroke-width:2" d="M15,122 l817,0 0,61 -817,0 0,-61z" /><path style="fill:#e5b200" d="M913,31 l5,-5 0,46 -5,5 0,-46z" /><path style="fill:#e5b200" d="M948,16 l5,-5 0,46 -5,4 0,-45z" /><path style="fill:#4c4c4c;stroke:#4c4c4c;stroke-width:2" d="M832,122 l0,61 151,-96 0,-46 -151,81z" /><path style="fill:#333" d="M35,137 l777,0 0,30 -777,0 0,-30z" /><path style="fill:#000" d="M847,127 l0,36 126,-81 0,-25 -126,70z" /></svg>