<!DOCTYPE svg PUBLIC "-//W3C//DTD SVG 20000303 Stylable//EN" "http://www.w3.org/TR/2000/03/WD-SVG-20000303/DTD/svg-20000303-stylable.dtd"[]><svg xmlns="http://www.w3.org/2000/svg" width="213px" height="999px" viewBox="0 0 166 999"><path style="fill:#000;stroke:#4c4c4c;stroke-width:2" d="M20,728 l125,0 0,20 -125,0 0,-20z" /><path style="fill:#000;stroke:#4c4c4c;stroke-width:2" d="M20,499 l125,0 0,21 -125,0 0,-21z" /><path style="fill:#000;stroke:#4c4c4c;stroke-width:2" d="M41,291 l83,0 0,21 -83,0 0,-21z" /><path style="fill:#000" d="M40,279 l83,-164 -5,-2 -83,163 5,3z" /><path style="fill:#000" d="M124,277 l-83,-163 5,-3 84,164 -6,2z" /><path style="fill:#000" d="M31,506 l101,-200 -6,-3 -101,199 6,4z" /><path style="fill:#000" d="M134,504 l-102,-199 7,-4 101,200 -6,3z" /><path style="fill:#000" d="M26,732 l111,-217 -7,-4 -111,218 7,3z" /><path style="fill:#000" d="M138,731 l-110,-218 7,-3 110,217 -7,4z" /><path style="fill:#000" d="M13,994 l137,-270 -9,-4 -136,270 8,4z" /><path style="fill:#000" d="M152,992 l-137,-270 8,-5 137,270 -8,5z" /><path style="fill:#000;stroke:#4c4c4c;stroke-width:2" d="M0,999 l41,-916 -21,-11 0,-62 11,0 0,57 46,0 0,-57 -57,0 0,-10 125,0 0,10 -57,0 0,57 47,0 0,-57 10,0 0,62 -21,11 42,916 -21,0 -41,-896 -42,0 -42,896 -20,0z" /><path style="fill:#000;stroke:#4c4c4c;stroke-width:2" d="M78,999 l0,-916 10,0 0,916 -10,0z" /></svg>