<!DOCTYPE svg PUBLIC "-//W3C//DTD SVG 20000303 Stylable//EN" "http://www.w3.org/TR/2000/03/WD-SVG-20000303/DTD/svg-20000303-stylable.dtd"[]><svg xmlns="http://www.w3.org/2000/svg" width="999px" height="930px" viewBox="0 0 999 926"><path style="fill:none;stroke:#4c4c4c;stroke-width:2" d="M413,112 l215,0" /><path style="fill:none;stroke:#4c4c4c;stroke-width:2" d="M290,305 l15,-15 -290,-290 -15,15 290,290" /><path style="fill:none;stroke:#4c4c4c;stroke-width:2" d="M290,305 l-58,-88" /><path style="fill:none;stroke:#4c4c4c;stroke-width:2" d="M305,290 l-88,-58" /><path style="fill:none;stroke:#4c4c4c;stroke-width:2" d="M217,232 l-57,-87" /><path style="fill:none;stroke:#4c4c4c;stroke-width:2" d="M232,217 l-87,-57" /><path style="fill:none;stroke:#4c4c4c;stroke-width:2" d="M145,160 l-58,-88" /><path style="fill:none;stroke:#4c4c4c;stroke-width:2" d="M160,145 l-88,-58" /><path style="fill:none;stroke:#4c4c4c;stroke-width:2" d="M72,87 l-57,-87" /><path style="fill:none;stroke:#4c4c4c;stroke-width:2" d="M87,72 l-87,-57" /><path style="fill:none;stroke:#4c4c4c;stroke-width:2" d="M72,87 l15,-15" /><path style="fill:none;stroke:#4c4c4c;stroke-width:2" d="M160,145 l-15,15" /><path style="fill:none;stroke:#4c4c4c;stroke-width:2" d="M217,232 l15,-15" /><path style="fill:none;stroke:#4c4c4c;stroke-width:2" d="M270,255 l-15,15" /><path style="fill:none;stroke:#4c4c4c;stroke-width:2" d="M197,182 l-15,15" /><path style="fill:none;stroke:#4c4c4c;stroke-width:2" d="M122,110 l-12,12" /><path style="fill:none;stroke:#4c4c4c;stroke-width:2" d="M50,37 l-13,13" /><path style="fill:#4c4c4c;stroke:#4c4c4c;stroke-width:2" d="M916,575 l-701,0 0,-82 -20,0 0,-40 -185,0 0,-63 165,0 0,-20 -63,0 0,-40 83,0 0,-63 42,-20 0,-62 103,0 0,-40 -20,0 0,-43 20,0 0,-62 40,0 0,62 20,20 83,0 0,-20 82,0 0,20 63,0 0,-40 350,0 0,165 21,0 0,40 -21,0 0,63 21,0 0,40 -21,0 0,63 21,0 0,40 -21,0 0,62 -62,0 0,20z" /><ellipse style="fill:#4c4c4c;stroke:#4c4c4c;stroke-width:2" cx="360" cy="31" rx="63" ry="31" /><path style="fill:#000;stroke:#4c4c4c;stroke-width:2" d="M876,926 l40,0 0,-351 -40,0 0,351z" /><path style="fill:#000;stroke:#4c4c4c;stroke-width:2" d="M751,926 l42,0 0,-351 -42,0 0,351z" /><path style="fill:#000;stroke:#4c4c4c;stroke-width:2" d="M628,926 l40,0 0,-351 -40,0 0,351z" /><path style="fill:#000;stroke:#4c4c4c;stroke-width:2" d="M505,926 l40,0 0,-351 -40,0 0,351z" /><path style="fill:#000;stroke:#4c4c4c;stroke-width:2" d="M380,926 l43,0 0,-351 -43,0 0,351z" /><path style="fill:#000;stroke:#4c4c4c;stroke-width:2" d="M257,926 l40,0 0,-351 -40,0 0,351z" /><path style="fill:#000;stroke:#4c4c4c;stroke-width:2" d="M896,555 l0,-40 -639,0 0,40 639,0z" /><path style="fill:#000;stroke:#4c4c4c;stroke-width:2" d="M400,453 l0,-20 -390,0 0,20 390,0z" /><path style="fill:#666;stroke:#4c4c4c;stroke-width:2" d="M400,433 l-185,0 0,-83 185,0 0,83z" /><path style="fill:#666;stroke:#4c4c4c;stroke-width:2" d="M999,390 l-414,0 0,-40 414,0 0,40z" /><path style="fill:#000;stroke:#4c4c4c;stroke-width:2" d="M978,433 l0,-43 -393,0 0,43 393,0z" /><path style="fill:#666;stroke:#4c4c4c;stroke-width:2" d="M999,287 l-414,0 0,-40 414,0 0,40z" /><path style="fill:#000;stroke:#4c4c4c;stroke-width:2" d="M978,330 l0,-43 -393,0 0,43 393,0z" /><path style="fill:#000;stroke:#4c4c4c;stroke-width:2" d="M896,761 l0,-20 -619,0 0,20 619,0z" /><path style="fill:none;stroke:#4c4c4c;stroke-width:2" d="M297,906 l83,-123" /><path style="fill:none;stroke:#4c4c4c;stroke-width:2" d="M297,783 l83,123" /><path style="fill:none;stroke:#4c4c4c;stroke-width:2" d="M297,721 l83,-123" /><path style="fill:none;stroke:#4c4c4c;stroke-width:2" d="M297,598 l83,123" /><path style="fill:none;stroke:#4c4c4c;stroke-width:2" d="M423,906 l82,-123" /><path style="fill:none;stroke:#4c4c4c;stroke-width:2" d="M423,783 l82,123" /><path style="fill:none;stroke:#4c4c4c;stroke-width:2" d="M423,721 l82,-123" /><path style="fill:none;stroke:#4c4c4c;stroke-width:2" d="M423,598 l82,123" /><path style="fill:none;stroke:#4c4c4c;stroke-width:2" d="M545,906 l83,-123" /><path style="fill:none;stroke:#4c4c4c;stroke-width:2" d="M545,783 l83,123" /><path style="fill:none;stroke:#4c4c4c;stroke-width:2" d="M545,721 l83,-123" /><path style="fill:none;stroke:#4c4c4c;stroke-width:2" d="M545,598 l83,123" /><path style="fill:none;stroke:#4c4c4c;stroke-width:2" d="M668,906 l83,-123" /><path style="fill:none;stroke:#4c4c4c;stroke-width:2" d="M668,783 l83,123" /><path style="fill:none;stroke:#4c4c4c;stroke-width:2" d="M668,721 l83,-123" /><path style="fill:none;stroke:#4c4c4c;stroke-width:2" d="M668,598 l83,123" /><path style="fill:none;stroke:#4c4c4c;stroke-width:2" d="M793,906 l83,-123" /><path style="fill:none;stroke:#4c4c4c;stroke-width:2" d="M793,783 l83,123" /><path style="fill:none;stroke:#4c4c4c;stroke-width:2" d="M793,721 l83,-123" /><path style="fill:none;stroke:#4c4c4c;stroke-width:2" d="M793,598 l83,123" /><circle style="fill:#e5e5e5;stroke:#4c4c4c;stroke-width:2" cx="433" cy="195" r="10" /><circle style="fill:#e5e5e5;stroke:#4c4c4c;stroke-width:2" cx="535" cy="195" r="10" /><circle style="fill:#e5e5e5;stroke:#4c4c4c;stroke-width:2" cx="433" cy="277" r="10" /><circle style="fill:#e5e5e5;stroke:#4c4c4c;stroke-width:2" cx="307" cy="277" r="10" /><circle style="fill:#e5e5e5;stroke:#4c4c4c;stroke-width:2" cx="947" cy="215" r="11" /><circle style="fill:#e5e5e5;stroke:#4c4c4c;stroke-width:2" cx="783" cy="215" r="10" /><circle style="fill:#e5e5e5;stroke:#4c4c4c;stroke-width:2" cx="307" cy="401" r="10" /><path style="fill:#000;stroke:#4c4c4c;stroke-width:2" d="M793,40 l20,0 0,42 -20,0 0,-42z" /><path style="fill:none;stroke:#4c4c4c;stroke-width:2" d="M237,175 l103,0" /><path style="fill:none;stroke:#4c4c4c;stroke-width:2" d="M473,92 l102,0" /><path style="fill:none;stroke:#4c4c4c;stroke-width:2" d="M618,72 l175,0" /><path style="fill:none;stroke:#4c4c4c;stroke-width:2" d="M946,72 l42,0" /><path style="fill:none;stroke:#4c4c4c;stroke-width:2" d="M999,238 l-414,0" /><path style="fill:none;stroke:#4c4c4c;stroke-width:2" d="M999,340 l-414,0" /><path style="fill:none;stroke:#4c4c4c;stroke-width:2" d="M215,423 l-215,0" /><path style="fill:none;stroke:#4c4c4c;stroke-width:2" d="M102,320 l93,0" /></svg>