<!DOCTYPE svg PUBLIC "-//W3C//DTD SVG 20000303 Stylable//EN" "http://www.w3.org/TR/2000/03/WD-SVG-20000303/DTD/svg-20000303-stylable.dtd"[]><svg xmlns="http://www.w3.org/2000/svg" width="999px" height="824px" viewBox="0 0 999 815"><path style="fill:#e5e5e5;stroke:#4c4c4c;stroke-width:2" d="M501,84 l14,0 0,287 -14,0 0,-287z" /><path style="fill:#999;stroke:#4c4c4c;stroke-width:2" d="M794,330 l33,58 -14,8 -33,-58 14,-8z" /><path style="fill:#999;stroke:#4c4c4c;stroke-width:2" d="M871,296 l25,43 -14,8 -25,-44 14,-7z" /><path style="fill:none;stroke:#4c4c4c;stroke-width:2" d="M744,436 l36,-98" /><path style="fill:none;stroke:#4c4c4c;stroke-width:2" d="M794,330 l87,17" /><path style="fill:none;stroke:#4c4c4c;stroke-width:2" d="M896,339 l26,-64" /><path style="fill:none;stroke:#4c4c4c;stroke-width:2" d="M940,304 l-69,-9" /><path style="fill:none;stroke:#4c4c4c;stroke-width:2" d="M856,303 l-29,85" /><path style="fill:none;stroke:#4c4c4c;stroke-width:2" d="M813,396 l-103,-18" /><path style="fill:#7f7f7f;stroke:#4c4c4c;stroke-width:2" d="M702,363 l274,-119 18,29 -4,5 0,158 -8,0 0,-158 -230,173 -8,-15 230,-171 -264,113 -8,-15z" /><path style="fill:#960;stroke:#4c4c4c;stroke-width:2" d="M256,407 l197,0 0,-105 -197,0 0,105z" /><path style="fill:none;stroke:#fc0;stroke-width:2" d="M373,374 l0,33" /><path style="fill:none;stroke:#fc0;stroke-width:2" d="M306,374 l0,33" /><path style="fill:none;stroke:#fc0;stroke-width:2" d="M239,374 l0,33" /><path style="fill:none;stroke:#fc0;stroke-width:2" d="M172,374 l0,33" /><path style="fill:none;stroke:#fc0;stroke-width:2" d="M139,374 l260,0" /><path style="fill:none;stroke:#fc0;stroke-width:2" d="M399,391 l-260,0" /><path style="fill:#999;stroke:#4c4c4c;stroke-width:2" d="M290,206 l67,0 0,17 -67,0 0,-17z" /><path style="fill:#999;stroke:#4c4c4c;stroke-width:2" d="M299,122 l49,0 0,16 -49,0 0,-16z" /><path style="fill:none;stroke:#4c4c4c;stroke-width:2" d="M357,302 l-67,-79" /><path style="fill:none;stroke:#4c4c4c;stroke-width:2" d="M290,206 l58,-67" /><path style="fill:none;stroke:#4c4c4c;stroke-width:2" d="M348,122 l-42,-55" /><path style="fill:none;stroke:#4c4c4c;stroke-width:2" d="M340,67 l-42,55" /><path style="fill:none;stroke:#4c4c4c;stroke-width:2" d="M298,139 l59,67" /><path style="fill:none;stroke:#4c4c4c;stroke-width:2" d="M357,223 l-67,79" /><path style="fill:#000" d="M726,524 l30,0 0,286 -30,0 0,-286z" /><path style="fill:#000" d="M500,524 l29,0 0,286 -29,0 0,-286z" /><path style="fill:#000" d="M286,524 l29,0 0,286 -29,0 0,-286z" /><path style="fill:#000" d="M59,524 l30,0 0,286 -30,0 0,-286z" /><path style="fill:none;stroke:#4c4c4c;stroke-width:2" d="M529,524 l197,151" /><path style="fill:none;stroke:#4c4c4c;stroke-width:2" d="M726,524 l-197,151" /><path style="fill:none;stroke:#4c4c4c;stroke-width:2" d="M315,524 l185,151" /><path style="fill:none;stroke:#4c4c4c;stroke-width:2" d="M500,524 l-185,151" /><path style="fill:none;stroke:#4c4c4c;stroke-width:2" d="M89,524 l197,151" /><path style="fill:none;stroke:#4c4c4c;stroke-width:2" d="M286,524 l-197,151" /><path style="fill:#333" d="M4,524 l806,0 0,51 -806,0 0,-51z" /><path style="fill:#999;stroke:#4c4c4c;stroke-width:2" d="M550,693 l113,-84 113,84 0,-18 -101,-75 101,-76 0,-16 -113,80 -113,-80 0,16 100,76 -100,75 0,18z" /><path style="fill:#999;stroke:#4c4c4c;stroke-width:2" d="M294,693 l113,-84 113,84 0,-18 -100,-75 100,-76 0,-16 -113,80 -113,-80 0,16 101,76 -101,75 0,18z" /><path style="fill:#999;stroke:#4c4c4c;stroke-width:2" d="M38,693 l113,-84 114,84 0,-18 -101,-75 101,-76 0,-16 -114,80 -113,-80 0,16 101,76 -101,75 0,18z" /><path style="fill:#b2b2b2;stroke:#4c4c4c;stroke-width:2" d="M4,508 l806,0 0,16 -806,0 0,-16z" /><path style="fill:#cc7f00" d="M776,810 l34,0 0,-117 -34,0 0,117z" /><path style="fill:#cc7f00" d="M516,810 l34,0 0,-117 -34,0 0,117z" /><path style="fill:#cc7f00" d="M265,810 l33,0 0,-117 -33,0 0,117z" /><path style="fill:#cc7f00" d="M4,810 l34,0 0,-117 -34,0 0,117z" /><path style="fill:#b2b2b2" d="M776,524 l34,0 0,169 -34,0 0,-169z" /><path style="fill:#b2b2b2" d="M516,524 l34,0 0,169 -34,0 0,-169z" /><path style="fill:#b2b2b2" d="M265,524 l33,0 0,169 -33,0 0,-169z" /><path style="fill:#b2b2b2" d="M4,524 l34,0 0,169 -34,0 0,-169z" /><path style="fill:#fc0" d="M785,810 l17,0 0,-117 -17,0 0,117z" /><path style="fill:#fc0" d="M524,810 l18,0 0,-117 -18,0 0,117z" /><path style="fill:#fc0" d="M273,810 l17,0 0,-117 -17,0 0,117z" /><path style="fill:#fc0" d="M13,810 l17,0 0,-117 -17,0 0,117z" /><path style="fill:#fff" d="M785,524 l17,0 0,169 -17,0 0,-169z" /><path style="fill:#fff" d="M524,524 l18,0 0,169 -18,0 0,-169z" /><path style="fill:#fff" d="M273,524 l17,0 0,169 -17,0 0,-169z" /><path style="fill:#fff" d="M13,524 l17,0 0,169 -17,0 0,-169z" /><path style="fill:none;stroke:#4c4c4c;stroke-width:2" d="M776,524 l34,0 0,286 -34,0 0,-286" /><path style="fill:none;stroke:#4c4c4c;stroke-width:2" d="M516,524 l34,0 0,286 -34,0 0,-286" /><path style="fill:none;stroke:#4c4c4c;stroke-width:2" d="M265,524 l33,0 0,286 -33,0 0,-286" /><path style="fill:none;stroke:#4c4c4c;stroke-width:2" d="M4,524 l34,0 0,286 -34,0 0,-286" /><path style="fill:#666;stroke:#4c4c4c;stroke-width:2" d="M139,407 l260,0 0,101 -260,0 0,-101z" /><path style="fill:#994c4c;stroke:#4c4c4c;stroke-width:2" d="M399,387 l222,0 0,121 -222,0 0,-121z" /><path style="fill:#7f7f7f;stroke:#4c4c4c;stroke-width:2" d="M273,302 l33,-298 34,0 34,298 -17,0 -34,-285 -33,285 -17,0z" /><path style="fill:#b2b2b2;stroke:#4c4c4c;stroke-width:2" d="M382,369 l256,0 0,18 -256,0 0,-18z" /><path style="fill:none;stroke:#fc0;stroke-width:2" d="M382,336 l256,0" /><path style="fill:none;stroke:#fc0;stroke-width:2" d="M382,352 l256,0" /><path style="fill:none;stroke:#fc0;stroke-width:2" d="M407,336 l0,33" /><path style="fill:none;stroke:#fc0;stroke-width:2" d="M474,336 l0,33" /><path style="fill:none;stroke:#fc0;stroke-width:2" d="M541,336 l0,33" /><path style="fill:none;stroke:#fc0;stroke-width:2" d="M608,336 l0,33" /><path style="fill:#4c4c4c;stroke:#4c4c4c;stroke-width:2" d="M666,465 l115,0 0,43 -115,0 0,-43z" /><path style="fill:#c90;stroke:#4c4c4c;stroke-width:2" d="M781,465 l-29,-79 0,43 -28,0 0,-43 36,0 -8,-15 -100,0 -7,86 21,8 115,0z" /><path style="fill:#4c4c4c;stroke:#4c4c4c;stroke-width:2" d="M666,371 l65,0 0,-21 -65,0 0,21z" /><path style="fill:none;stroke:#fc0;stroke-width:2" d="M4,474 l806,0" /><path style="fill:none;stroke:#fc0;stroke-width:2" d="M4,491 l806,0" /><path style="fill:none;stroke:#fc0;stroke-width:2" d="M38,474 l0,34" /><path style="fill:none;stroke:#fc0;stroke-width:2" d="M105,474 l0,34" /><path style="fill:none;stroke:#fc0;stroke-width:2" d="M172,474 l0,34" /><path style="fill:none;stroke:#fc0;stroke-width:2" d="M239,474 l0,34" /><path style="fill:none;stroke:#fc0;stroke-width:2" d="M306,474 l0,34" /><path style="fill:none;stroke:#fc0;stroke-width:2" d="M373,474 l0,34" /><path style="fill:none;stroke:#fc0;stroke-width:2" d="M440,474 l0,34" /><path style="fill:none;stroke:#fc0;stroke-width:2" d="M508,474 l0,34" /><path style="fill:none;stroke:#fc0;stroke-width:2" d="M574,474 l0,34" /><path style="fill:none;stroke:#fc0;stroke-width:2" d="M641,474 l0,34" /><path style="fill:none;stroke:#fc0;stroke-width:2" d="M709,474 l0,34" /><path style="fill:none;stroke:#fc0;stroke-width:2" d="M776,474 l0,34" /></svg>