<!DOCTYPE svg PUBLIC "-//W3C//DTD SVG 20000303 Stylable//EN" "http://www.w3.org/TR/2000/03/WD-SVG-20000303/DTD/svg-20000303-stylable.dtd"[]><svg xmlns="http://www.w3.org/2000/svg" width="999px" height="671px" viewBox="0 0 999 651"><path style="fill:#4c4c4c" d="M414,408 l5,0 0,222 -5,0 0,-222z" /><path style="fill:#4c4c4c" d="M227,496 l5,0 0,134 -5,0 0,-134z" /><path style="fill:#4c4c4c" d="M31,589 l5,0 0,41 -5,0 0,-41z" /><path style="fill:#4c4c4c" d="M393,485 l0,-5 21,0 0,5 -21,0z" /><path style="fill:#4c4c4c" d="M207,566 l0,-5 20,0 0,5 -20,0z" /><path style="fill:#4c4c4c" d="M393,566 l0,-5 21,0 0,5 -21,0z" /><path style="fill:#000" d="M393,398 l5,0 0,222 -5,0 0,-222z" /><path style="fill:#000" d="M207,485 l5,0 0,135 -5,0 0,-135z" /><path style="fill:#000" d="M10,578 l5,0 0,42 -5,0 0,-42z" /><path style="fill:#666;stroke:#4c4c4c;stroke-width:2" d="M564,4 l20,591 -41,5 -41,-6 21,-590 20,-4 21,4z" /><path style="fill:#8c8c8c" d="M551,4 l8,591 -16,5 -16,-6 8,-590 8,-4 8,4z" /><path style="fill:#333;stroke:#4c4c4c;stroke-width:2" d="M507,273 l72,0 0,6 -72,0 0,-6z" /><path style="fill:#333;stroke:#4c4c4c;stroke-width:2" d="M507,222 l72,0 0,5 -72,0 0,-5z" /><path style="fill:#333;stroke:#4c4c4c;stroke-width:2" d="M512,165 l62,0 0,5 -62,0 0,-5z" /><path style="fill:#333;stroke:#4c4c4c;stroke-width:2" d="M517,15 l52,0 0,5 -52,0 0,-5z" /><path style="fill:#000" d="M491,491 l5,0 0,114 -5,0 0,-114z" /><path style="fill:#000" d="M450,491 l5,0 0,114 -5,0 0,-114z" /><path style="fill:#000" d="M533,537 l0,5 -78,0 0,-5 78,0z" /><path style="fill:#4c4c4c;stroke:#4c4c4c;stroke-width:2" d="M717,632 l0,-97 146,0 0,97 -97,-10 -49,10z" /><path style="fill:#7f7f7f;stroke:#4c4c4c;stroke-width:2" d="M533,613 l0,-350 68,-9 0,106 68,0 0,-39 48,0 0,117 49,0 0,97 -49,0 0,97 -184,-19z" /><path style="fill:#b2b2b2;stroke:#4c4c4c;stroke-width:2" d="M766,438 l233,0 0,184 -136,10 0,-97 -97,0 0,-97z" /><path style="fill:#a6a6a6;stroke:#4c4c4c;stroke-width:2" d="M787,438 l-70,0 0,-117 126,0 0,117 -56,0z" /><path style="fill:#a6a6a6;stroke:#4c4c4c;stroke-width:2" d="M669,360 l-39,0 0,-116 174,0 0,77 -135,0 0,39z" /><path style="fill:#4c4c4c" d="M639,302 l156,0 0,10 -156,0 0,-10z" /><path style="fill:#4c4c4c" d="M542,304 l78,-3 0,9 -77,3 -1,-9z" /><path style="fill:#8c8c8c;stroke:#4c4c4c;stroke-width:2" d="M630,360 l-29,0 0,-116 29,0 0,116z" /><path style="fill:#4c4c4c" d="M679,341 l28,0 0,10 -28,0 0,-10z" /><path style="fill:#4c4c4c" d="M727,341 l107,0 0,10 -107,0 0,-10z" /><path style="fill:none;stroke:#4c4c4c;stroke-width:2" d="M766,535 l0,87" /><path style="fill:#4c4c4c" d="M872,574 l117,-4 0,9 -116,4 -1,-9z" /><path style="fill:#e5e5e5;stroke:#4c4c4c;stroke-width:2" d="M795,438 l8,-5 8,5 -16,0z" /><path style="fill:#e5e5e5;stroke:#4c4c4c;stroke-width:2" d="M828,438 l8,-5 8,5 -16,0z" /><path style="fill:#e5e5e5;stroke:#4c4c4c;stroke-width:2" d="M861,438 l8,-5 8,5 -16,0z" /><path style="fill:#e5e5e5;stroke:#4c4c4c;stroke-width:2" d="M893,438 l9,-5 8,5 -17,0z" /><path style="fill:#e5e5e5;stroke:#4c4c4c;stroke-width:2" d="M926,438 l9,-5 8,5 -17,0z" /><path style="fill:#666" d="M810,283 l4,0 0,38 -4,0 0,-38z" /><path style="fill:#666" d="M788,292 l4,0 0,29 -4,0 0,-29z" /><path style="fill:#666" d="M743,307 l4,0 0,14 -4,0 0,-14z" /><path style="fill:#666" d="M725,283 l5,0 0,38 -5,0 0,-38z" /><path style="fill:#666" d="M707,292 l5,0 0,29 -5,0 0,-29z" /><path style="fill:#7f7f7f" d="M639,239 l5,0 0,5 -5,0 0,-5z" /><path style="fill:#7f7f7f" d="M674,239 l4,0 0,5 -4,0 0,-5z" /><path style="fill:#7f7f7f" d="M657,239 l4,0 0,5 -4,0 0,-5z" /><path style="fill:#7f7f7f" d="M708,239 l4,0 0,5 -4,0 0,-5z" /><path style="fill:#7f7f7f" d="M691,239 l4,0 0,5 -4,0 0,-5z" /><path style="fill:#7f7f7f" d="M742,239 l4,0 0,5 -4,0 0,-5z" /><path style="fill:#7f7f7f" d="M725,239 l4,0 0,5 -4,0 0,-5z" /><path style="fill:#7f7f7f" d="M759,239 l4,0 0,5 -4,0 0,-5z" /><path style="fill:#737373" d="M715,630 l0,-98 48,0 0,-16 -228,-85 0,179 180,20z" /><path style="fill:#666" d="M715,630 l-3,-78 -177,-66 0,124 180,20z" /><path style="fill:#4c4c4c" d="M621,574 l87,5 -1,9 -87,-5 1,-9z" /><path style="fill:#4c4c4c" d="M543,569 l68,4 -1,9 -68,-4 1,-9z" /><path style="fill:#333" d="M601,360 l5,0 0,272 -5,0 0,-272z" /><path style="fill:#333" d="M606,431 l101,0 0,4 -101,0 0,-4z" /><path style="fill:#333" d="M606,494 l60,0 0,5 -60,0 0,-5z" /><path style="fill:#000" d="M635,360 l4,0 0,267 -4,0 0,-267z" /><path style="fill:none;stroke:#7f7f7f;stroke-width:2" d="M947,535 l-67,92" /><path style="fill:none;stroke:#7f7f7f;stroke-width:2" d="M932,535 l-67,95" /><path style="fill:none;stroke:#7f7f7f;stroke-width:2" d="M917,535 l-68,97" /><path style="fill:none;stroke:#7f7f7f;stroke-width:2" d="M901,535 l-67,99" /><path style="fill:none;stroke:#7f7f7f;stroke-width:2" d="M833,535 l68,90" /><path style="fill:none;stroke:#7f7f7f;stroke-width:2" d="M848,535 l69,87" /><path style="fill:none;stroke:#7f7f7f;stroke-width:2" d="M864,535 l68,85" /><path style="fill:none;stroke:#7f7f7f;stroke-width:2" d="M880,535 l67,82" /><path style="fill:none;stroke:#7f7f7f;stroke-width:2" d="M618,535 l67,92" /><path style="fill:none;stroke:#7f7f7f;stroke-width:2" d="M633,535 l68,95" /><path style="fill:none;stroke:#7f7f7f;stroke-width:2" d="M649,535 l67,97" /><path style="fill:none;stroke:#7f7f7f;stroke-width:2" d="M664,535 l68,99" /><path style="fill:none;stroke:#7f7f7f;stroke-width:2" d="M732,535 l-68,90" /><path style="fill:none;stroke:#7f7f7f;stroke-width:2" d="M717,535 l-69,87" /><path style="fill:none;stroke:#7f7f7f;stroke-width:2" d="M701,535 l-68,85" /><path style="fill:none;stroke:#7f7f7f;stroke-width:2" d="M686,535 l-68,82" /><path style="fill:none;stroke:#4c4c4c;stroke-width:2" d="M892,642 l0,-126" /><path style="fill:none;stroke:#4c4c4c;stroke-width:2" d="M955,634 l0,-118 -138,0 0,135 138,-17" /><path style="fill:none;stroke:#4c4c4c;stroke-width:2" d="M610,634 l0,-118 139,0 0,135 -139,-17" /><path style="fill:none;stroke:#4c4c4c;stroke-width:2" d="M674,642 l0,-126" /><path style="fill:#bfbfbf;stroke:#4c4c4c;stroke-width:2" d="M533,444 l-57,0 0,47 57,0 0,-47z" /><path style="fill:#7f7f7f;stroke:#4c4c4c;stroke-width:2" d="M450,444 l26,0 0,47 -26,0 0,-47z" /><path style="fill:#4c4c4c" d="M512,491 l5,0 0,119 -5,0 0,-119z" /><path style="fill:#4c4c4c" d="M471,491 l5,0 0,119 -5,0 0,-119z" /><path style="fill:#4c4c4c" d="M533,548 l0,5 -57,0 0,-5 57,0z" /><path style="fill:#737373" d="M604,279 l20,0 0,29 -20,0 0,-29z" /><path style="fill:#4c4c4c;stroke:#4c4c4c;stroke-width:2" d="M626,310 l-26,0 0,-11 -600,285 0,10 15,6 611,-290z" /><path style="fill:#ccc;stroke:#4c4c4c;stroke-width:2" d="M626,310 l-611,290 0,-11 611,-290 0,11z" /></svg>