<!DOCTYPE svg PUBLIC "-//W3C//DTD SVG 20000303 Stylable//EN" "http://www.w3.org/TR/2000/03/WD-SVG-20000303/DTD/svg-20000303-stylable.dtd"[]><svg xmlns="http://www.w3.org/2000/svg" width="998px" height="469px" viewBox="0 0 999 442"><path style="fill:#a6b5a6;stroke:#4c4c4c;stroke-width:2" d="M4,437 l266,-171 724,0 -218,171 -772,0z" /><path style="fill:#e5e5e5;stroke:#4c4c4c;stroke-width:2" d="M232,304 l0,-172 114,0 0,172 -114,0z" /><path style="fill:#b2b2b2;stroke:#4c4c4c;stroke-width:2" d="M346,133 l29,-15 0,172 -29,14 0,-171z" /><path style="fill:#f7f7f7;stroke:#4c4c4c;stroke-width:2" d="M346,133 l29,-15 -114,0 -29,15 114,0z" /><path style="fill:#4c4c4c" d="M239,154 l14,0 0,22 -14,0 0,-22z" /><path style="fill:#4c4c4c" d="M261,154 l14,0 0,22 -14,0 0,-22z" /><path style="fill:#4c4c4c" d="M282,154 l14,0 0,22 -14,0 0,-22z" /><path style="fill:#4c4c4c" d="M304,154 l14,0 0,22 -14,0 0,-22z" /><path style="fill:#4c4c4c" d="M325,154 l14,0 0,22 -14,0 0,-22z" /><path style="fill:#4c4c4c" d="M239,190 l14,0 0,21 -14,0 0,-21z" /><path style="fill:#4c4c4c" d="M261,190 l14,0 0,21 -14,0 0,-21z" /><path style="fill:#4c4c4c" d="M282,190 l14,0 0,21 -14,0 0,-21z" /><path style="fill:#4c4c4c" d="M304,190 l14,0 0,21 -14,0 0,-21z" /><path style="fill:#4c4c4c" d="M325,190 l14,0 0,21 -14,0 0,-21z" /><path style="fill:#4c4c4c" d="M239,225 l14,0 0,22 -14,0 0,-22z" /><path style="fill:#4c4c4c" d="M261,225 l14,0 0,22 -14,0 0,-22z" /><path style="fill:#4c4c4c" d="M282,225 l14,0 0,22 -14,0 0,-22z" /><path style="fill:#4c4c4c" d="M304,225 l14,0 0,22 -14,0 0,-22z" /><path style="fill:#4c4c4c" d="M325,225 l14,0 0,22 -14,0 0,-22z" /><path style="fill:#4c4c4c" d="M239,261 l14,0 0,22 -14,0 0,-22z" /><path style="fill:#4c4c4c" d="M261,261 l14,0 0,22 -14,0 0,-22z" /><path style="fill:#4c4c4c" d="M282,261 l14,0 0,22 -14,0 0,-22z" /><path style="fill:#4c4c4c" d="M304,261 l14,0 0,22 -14,0 0,-22z" /><path style="fill:#4c4c4c" d="M325,261 l14,0 0,22 -14,0 0,-22z" /><path style="fill:#e5e5e5;stroke:#4c4c4c;stroke-width:2" d="M311,347 l0,-129 199,0 1,-57 114,0 0,186 -314,0z" /><path style="fill:#b2b2b2;stroke:#4c4c4c;stroke-width:2" d="M625,161 l22,-14 0,186 -22,14 0,-186z" /><path style="fill:#f7f7f7;stroke:#4c4c4c;stroke-width:2" d="M511,218 l0,-14 -172,0 -28,14 200,0z" /><path style="fill:#bfd3f2;stroke:#4c4c4c;stroke-width:2" d="M311,254 l0,-28 314,0 0,28 -314,0z" /><path style="fill:#8ca0bf;stroke:#4c4c4c;stroke-width:2" d="M647,240 l0,-29 -22,15 0,28 22,-14z" /><path style="fill:none;stroke:#fff;stroke-width:2" d="M311,254 l314,0" /><path style="fill:none;stroke:#e5e5e5;stroke-width:2" d="M625,254 l21,-14" /><path style="fill:#f7f7f7;stroke:#4c4c4c;stroke-width:2" d="M625,161 l22,-14 -108,0 -28,14 114,0z" /><path style="fill:none;stroke:#4c4c4c;stroke-width:2" d="M511,218 l114,0 22,-14" /><path style="fill:#000" d="M325,258 l21,0 0,10 -21,0 0,-10z" /><path style="fill:#000" d="M368,209 l23,0 0,4 -23,0 0,-4z" /><path style="fill:#4c4c4c" d="M378,211 l43,-53 0,-7 -49,60 6,0z" /><path style="fill:#4c4c4c" d="M386,211 l43,-53 0,-7 -49,60 6,0z" /><path style="fill:#4c4c4c" d="M260,358 l72,-90 0,-7 -72,90 0,7z" /><path style="fill:#4c4c4c" d="M268,358 l71,-90 0,-7 -71,90 0,7z" /><path style="fill:#e5e5e5;stroke:#4c4c4c;stroke-width:2" d="M289,376 l0,-86 143,0 0,86 -143,0z" /><path style="fill:#b2b2b2;stroke:#4c4c4c;stroke-width:2" d="M432,290 l29,-15 0,86 -29,15 0,-86z" /><path style="fill:#f7f7f7;stroke:#4c4c4c;stroke-width:2" d="M432,290 l29,-15 -143,0 -29,15 143,0z" /><path style="fill:#ccc" d="M293,347 l136,0 0,14 -136,0 0,-14z" /><path style="fill:#ccc" d="M293,304 l136,0 0,14 -136,0 0,-14z" /><path style="fill:#e5e5e5;stroke:#4c4c4c;stroke-width:2" d="M703,314 l0,-58 201,1 0,57 -201,0z" /><path style="fill:#f7f7f7;stroke:#4c4c4c;stroke-width:2" d="M903,257 l15,-11 -186,0 -29,11 200,0z" /><path style="fill:#b2b2b2;stroke:#4c4c4c;stroke-width:2" d="M903,257 l15,-11 0,57 -15,11 0,-57z" /><path style="fill:#ccc" d="M707,292 l193,0 0,11 -193,0 0,-11z" /><path style="fill:#ccc" d="M707,267 l193,0 0,11 -193,0 0,-11z" /><path style="fill:#7f7f7f" d="M257,365 l0,11 4,0 0,-11 -4,0z" /><path style="fill:#7f7f7f" d="M268,365 l0,11 3,0 0,-11 -3,0z" /><path style="fill:#e5e5cc;stroke:#4c4c4c;stroke-width:2" d="M257,365 l14,0 90,15 0,-11 -90,-15 -14,0 0,11z" /><path style="fill:none;stroke:#4c4c4c;stroke-width:2" d="M271,354 l0,11" /><path style="fill:#f2f2e5;stroke:#4c4c4c;stroke-width:2" d="M257,354 l14,0 90,16 7,-3 -90,-17 -14,0 -7,4z" /><path style="fill:#7f7f66;stroke:#4c4c4c;stroke-width:2" d="M360,369 l0,11 8,-4 0,-10 -8,3z" /><path style="fill:#963" d="M637,342 l28,-14 48,-10 33,-9 57,5 53,9 24,0 19,10 -10,14 -33,5 -48,0 -38,-5 -43,5 19,19 -47,5 -53,-5 -28,-15 19,-14z" /><path style="fill:#ccb299" d="M665,333 l24,-10 24,-5 33,-9 48,5 76,14 10,-5 9,10 5,9 -19,-9 -33,4 -72,-9 -67,9 5,10 -33,9 -10,-19 -19,5 19,-9z" /><path style="fill:#661900" d="M808,337 l-19,5 -14,5 38,5 47,0 -52,-15z" /><path style="fill:#661900" d="M703,337 l5,10 38,24 -19,-19 5,-10 -29,-5z" /><path style="fill:#661900" d="M642,342 l-24,14 28,15 0,-19 19,-5 -23,-5z" /><path style="fill:#661900" d="M170,423 l29,-33 38,-15 81,-4 109,4 105,-4 76,4 29,19 14,29 -105,5 -57,9 -195,-9 -67,5 -57,-10z" /><path style="fill:#963" d="M232,409 l-43,0 14,-19 38,-14 100,-5 67,9 134,-9 80,14 10,19 -81,-10 -95,5 -57,19 -110,-14 -38,19 -19,-14z" /><path style="fill:#ccb299" d="M261,394 l-72,15 14,-19 38,-14 96,0 57,4 133,-4 95,9 -9,5 -57,-5 -95,5 -77,9 -81,-9 -33,19 -9,-15z" /><path style="fill:#963" d="M175,333 l-14,0 14,-19 19,-15 19,5 19,-5 23,0 20,10 5,9 -29,24 -24,29 -43,14 -24,19 -9,14 -76,10 -10,-14 15,-29 95,-52z" /><path style="fill:#661900" d="M199,314 l-19,4 -15,15 24,0 38,-19 -28,0z" /><path style="fill:#661900" d="M237,318 l-19,15 9,33 10,-24 24,-14 -24,-10z" /><path style="fill:#661900" d="M151,371 l10,14 -10,33 10,-14 23,-19 -33,-14z" /><path style="fill:#ccb299" d="M123,361 l85,-43 -5,-9 -9,-5 19,0 19,-5 24,5 14,5 0,4 -28,0 -19,10 -24,38 -19,10 -43,0 -5,19 -29,9 -14,-9 34,-29z" /><path style="fill:#323219;stroke:#4c4c4c;stroke-width:2" d="M621,151 l-3,-147 -14,0 -4,147 21,0z" /><path style="fill:#323219;stroke:#4c4c4c;stroke-width:2" d="M468,211 l0,-14 -22,0 0,14 22,0z" /><path style="fill:#323219;stroke:#4c4c4c;stroke-width:2" d="M281,125 l-2,-64 -6,0 -2,64 10,0z" /><path style="fill:#65654c" d="M618,151 l-3,-147 -9,0 -2,147 14,0z" /><path style="fill:#65654c" d="M464,211 l0,-14 -14,0 0,14 14,0z" /><path style="fill:#65654c" d="M279,125 l-1,-64 -4,0 -1,64 6,0z" /><path style="fill:#98987f" d="M614,151 l-1,-147 -5,0 -1,147 7,0z" /><path style="fill:#98987f" d="M461,211 l0,-14 -7,0 0,14 7,0z" /><path style="fill:#98987f" d="M277,125 l0,-64 -2,0 -1,64 3,0z" /></svg>