<!DOCTYPE svg PUBLIC "-//W3C//DTD SVG 20000303 Stylable//EN" "http://www.w3.org/TR/2000/03/WD-SVG-20000303/DTD/svg-20000303-stylable.dtd"[]><svg xmlns="http://www.w3.org/2000/svg" width="999px" height="837px" viewBox="0 0 999 827"><path style="fill:#b2b2b2;stroke:#4c4c4c;stroke-width:2" d="M23,727 l0,-161 1,-5 2,-4 4,-5 4,-4 6,-4 7,-4 8,-4 9,-3 10,-3 10,-3 11,-2 12,-2 13,-1 13,-1 14,-1 14,0 14,0 15,1 13,1 13,1 12,2 11,2 11,3 10,3 9,3 8,4 7,4 6,4 4,4 4,5 2,4 1,5 0,161 -1,3 -2,2 -4,3 -4,2 -6,2 -7,2 -8,2 -9,2 -10,1 -11,1 -11,2 -12,1 -13,0 -13,1 -15,0 -14,0 -14,0 -14,0 -13,-1 -13,0 -12,-1 -11,-2 -10,-1 -10,-1 -9,-2 -8,-2 -7,-2 -6,-2 -4,-2 -4,-3 -2,-2 -1,-3z" /><path style="fill:#ccc" d="M46,727 l0,-161 0,-5 2,-4 3,-5 3,-4 5,-4 6,-4 7,-4 7,-3 9,-3 8,-3 10,-2 10,-2 11,-1 11,-1 11,-1 12,0 12,0 11,1 11,1 11,1 10,2 10,2 9,3 8,3 7,3 7,4 6,4 5,4 3,4 3,5 2,4 1,5 0,161 -1,3 -2,2 -3,3 -3,2 -5,2 -6,2 -7,2 -7,2 -8,1 -9,1 -10,2 -10,1 -11,0 -11,1 -11,0 -12,0 -12,0 -11,0 -11,-1 -11,0 -10,-1 -10,-2 -8,-1 -9,-1 -7,-2 -7,-2 -6,-2 -5,-2 -3,-2 -3,-3 -2,-2 0,-3z" /><path style="fill:#e5e5e5" d="M81,727 l0,-161 1,-5 1,-4 2,-5 3,-4 3,-4 4,-4 4,-4 6,-3 5,-3 6,-3 7,-2 7,-2 7,-1 8,-1 8,-1 8,0 9,0 8,1 8,1 7,1 7,2 7,2 6,3 6,3 5,3 5,4 4,4 4,4 2,4 2,5 1,4 1,5 0,161 -1,3 -1,2 -2,3 -2,2 -4,2 -4,2 -5,2 -5,2 -6,1 -6,1 -7,2 -7,1 -7,0 -8,1 -8,0 -9,0 -8,0 -8,0 -8,-1 -7,0 -7,-1 -7,-2 -6,-1 -5,-1 -6,-2 -4,-2 -4,-2 -3,-2 -3,-2 -2,-3 -1,-2 -1,-3z" /><path style="fill:none;stroke:#4c4c4c;stroke-width:2" d="M301,566 l-1,1 -2,1 -4,1 -4,1 -6,1 -7,1 -8,1 -9,1 -10,1 -11,0 -11,1 -12,1 -13,0 -13,0 -15,1 -14,0 -14,0 -14,-1 -13,0 -13,0 -12,-1 -11,-1 -10,0 -10,-1 -9,-1 -8,-1 -7,-1 -6,-1 -4,-1 -4,-1 -2,-1 -1,-1" /><path style="fill:#7f7f7f;stroke:#4c4c4c;stroke-width:2" d="M145,520 l6,6 22,0 0,-12 -18,-18 -138,0 -17,18 0,213 23,0 0,-201 6,-6 116,0z" /><path style="fill:#4c4c4c;stroke:#4c4c4c;stroke-width:2" d="M23,727 l-23,0 0,-4 17,0 0,-203 6,-6 128,0 4,6 18,0 0,6 -22,0 -6,-6 -116,0 -6,6 0,201z" /><path style="fill:#b2b2b2;stroke:#4c4c4c;stroke-width:2" d="M975,727 l0,-161 -1,-5 -2,-4 -4,-5 -4,-4 -6,-4 -7,-4 -8,-4 -9,-3 -10,-3 -11,-3 -11,-2 -12,-2 -13,-1 -14,-1 -14,-1 -14,0 -14,0 -14,1 -13,1 -13,1 -12,2 -11,2 -10,3 -10,3 -9,3 -8,4 -7,4 -6,4 -4,4 -4,5 -2,4 -1,5 0,161 1,3 2,2 4,3 4,2 6,2 7,2 8,2 9,2 10,1 10,1 11,2 12,1 13,0 13,1 14,0 14,0 14,0 14,0 14,-1 13,0 12,-1 11,-2 11,-1 10,-1 9,-2 8,-2 7,-2 6,-2 4,-2 4,-3 2,-2 1,-3z" /><path style="fill:#ccc" d="M951,727 l0,-161 -1,-5 -2,-4 -3,-5 -3,-4 -5,-4 -6,-4 -7,-4 -7,-3 -9,-3 -8,-3 -10,-2 -10,-2 -11,-1 -11,-1 -11,-1 -12,0 -12,0 -11,1 -11,1 -11,1 -10,2 -10,2 -9,3 -8,3 -7,3 -7,4 -6,4 -5,4 -3,4 -3,5 -2,4 -1,5 0,161 1,3 2,2 3,3 3,2 5,2 6,2 7,2 7,2 8,1 9,1 10,2 10,1 11,0 11,1 11,0 12,0 12,0 11,0 11,-1 11,0 10,-1 10,-2 8,-1 9,-1 7,-2 7,-2 6,-2 5,-2 3,-2 3,-3 2,-2 1,-3z" /><path style="fill:#e5e5e5" d="M917,727 l0,-161 -1,-5 -1,-4 -2,-5 -3,-4 -3,-4 -4,-4 -5,-4 -5,-3 -6,-3 -6,-3 -7,-2 -7,-2 -8,-1 -7,-1 -8,-1 -9,0 -8,0 -8,1 -8,1 -7,1 -7,2 -6,2 -7,3 -5,3 -6,3 -4,4 -4,4 -4,4 -2,4 -2,5 -1,4 -1,5 0,161 1,3 1,2 2,3 2,2 4,2 4,2 4,2 6,2 5,1 7,1 6,2 7,1 7,0 8,1 8,0 8,0 9,0 8,0 7,-1 8,0 7,-1 7,-2 6,-1 6,-1 5,-2 5,-2 4,-2 3,-2 3,-2 2,-3 1,-2 1,-3z" /><path style="fill:none;stroke:#4c4c4c;stroke-width:2" d="M697,566 l1,1 2,1 4,1 4,1 6,1 7,1 8,1 9,1 10,1 10,0 11,1 12,1 13,0 13,0 14,1 14,0 14,0 14,-1 14,0 13,0 12,-1 11,-1 11,0 10,-1 9,-1 8,-1 7,-1 6,-1 4,-1 4,-1 2,-1 1,-1" /><path style="fill:#7f7f7f;stroke:#4c4c4c;stroke-width:2" d="M853,520 l-6,6 -24,0 0,-12 18,-18 140,0 18,18 0,213 -24,0 0,-201 -6,-6 -116,0z" /><path style="fill:#4c4c4c;stroke:#4c4c4c;stroke-width:2" d="M975,727 l24,0 0,-4 -18,0 0,-203 -6,-6 -128,0 -6,6 -18,0 0,6 24,0 6,-6 116,0 6,6 0,201z" /><path style="fill:#b2b2b2;stroke:#4c4c4c;stroke-width:2" d="M195,763 l0,-470 0,-5 3,-5 3,-4 5,-4 6,-4 7,-4 8,-4 10,-3 9,-3 11,-3 12,-2 13,-2 12,-1 14,-1 14,-1 14,0 15,0 15,1 14,1 12,1 13,2 12,2 11,3 10,3 9,3 9,4 7,4 6,4 5,4 3,4 2,5 1,5 0,470 -1,2 -2,2 -3,3 -5,2 -6,2 -7,2 -9,2 -9,2 -10,1 -11,2 -12,1 -13,1 -12,1 -14,1 -15,0 -15,0 -14,0 -14,0 -14,-1 -12,-1 -13,-1 -12,-1 -11,-2 -9,-1 -10,-2 -8,-2 -7,-2 -6,-2 -5,-2 -3,-3 -3,-2 0,-2z" /><path style="fill:#ccc" d="M219,763 l0,-470 1,-5 1,-5 3,-4 4,-4 5,-4 6,-4 7,-4 8,-3 8,-3 9,-3 10,-2 10,-2 11,-1 11,-1 12,-1 11,0 13,0 12,1 11,1 11,1 10,2 10,2 10,3 8,3 8,3 7,4 6,4 5,4 4,4 3,4 2,5 0,5 0,470 0,2 -2,2 -3,3 -4,2 -5,2 -6,2 -7,2 -8,2 -8,1 -10,2 -10,1 -10,1 -11,1 -11,1 -12,0 -13,0 -11,0 -12,0 -11,-1 -11,-1 -10,-1 -10,-1 -9,-2 -8,-1 -8,-2 -7,-2 -6,-2 -5,-2 -4,-2 -3,-3 -1,-2 -1,-2z" /><path style="fill:#e5e5e5" d="M255,763 l0,-470 0,-5 1,-5 2,-4 3,-4 3,-4 5,-4 4,-4 6,-3 5,-3 6,-3 7,-2 7,-2 8,-1 8,-1 8,-1 8,0 9,0 8,1 8,1 8,1 7,2 7,2 7,3 6,3 5,3 5,4 4,4 4,4 3,4 2,4 1,5 0,5 0,470 0,2 -1,2 -2,3 -3,2 -4,2 -4,2 -5,2 -5,2 -6,1 -7,2 -7,1 -7,1 -8,1 -8,1 -8,0 -9,0 -8,0 -8,0 -8,-1 -8,-1 -7,-1 -7,-1 -6,-2 -5,-1 -6,-2 -4,-2 -5,-2 -3,-2 -3,-2 -2,-3 -1,-2 0,-2z" /><path style="fill:none;stroke:#4c4c4c;stroke-width:2" d="M480,295 l-1,1 -2,1 -3,2 -5,1 -6,1 -7,1 -9,1 -9,1 -10,0 -11,1 -12,0 -13,1 -12,0 -14,0 -15,1 -15,0 -14,0 -14,-1 -14,0 -12,0 -13,-1 -12,0 -11,-1 -9,0 -10,-1 -8,-1 -7,-1 -6,-1 -5,-1 -3,-2 -3,-1 0,-1" /><path style="fill:#7f7f7f;stroke:#4c4c4c;stroke-width:2" d="M319,247 l6,6 23,0 0,-12 -17,-18 -142,0 -18,18 0,522 24,0 0,-510 6,-6 118,0z" /><path style="fill:#4c4c4c;stroke:#4c4c4c;stroke-width:2" d="M195,769 l-24,0 0,-6 18,0 0,-516 6,-6 130,0 6,6 17,0 0,6 -23,0 -6,-6 -118,0 -6,6 0,516z" /><path style="fill:#b2b2b2;stroke:#4c4c4c;stroke-width:2" d="M803,763 l0,-315 0,-5 -3,-5 -3,-4 -5,-4 -6,-4 -8,-4 -8,-4 -9,-3 -11,-4 -11,-2 -12,-3 -12,-2 -13,-1 -14,-2 -14,0 -14,-1 -15,1 -14,0 -13,2 -13,1 -13,2 -12,3 -10,2 -10,4 -10,3 -8,4 -7,4 -6,4 -5,4 -3,4 -2,5 -1,5 0,315 1,2 2,2 3,3 5,2 6,2 7,2 8,2 10,2 10,1 10,2 12,1 13,1 13,1 13,1 14,0 15,0 14,0 14,0 14,-1 13,-1 12,-1 12,-1 11,-2 11,-1 9,-2 8,-2 8,-2 6,-2 5,-2 3,-3 3,-2 0,-2z" /><path style="fill:#ccc" d="M779,763 l0,-315 -1,-5 -1,-5 -3,-4 -4,-4 -6,-4 -5,-4 -7,-4 -8,-3 -9,-4 -9,-2 -10,-3 -10,-2 -11,-1 -11,-2 -12,0 -12,-1 -13,1 -12,0 -11,2 -11,1 -10,2 -10,3 -9,2 -9,4 -7,3 -7,4 -6,4 -6,4 -4,4 -3,4 -1,5 -1,5 0,315 1,2 1,2 3,3 4,2 6,2 6,2 7,2 7,2 9,1 9,2 10,1 10,1 11,1 11,1 12,0 13,0 12,0 12,0 11,-1 11,-1 10,-1 10,-1 9,-2 9,-1 8,-2 7,-2 5,-2 6,-2 4,-2 3,-3 1,-2 1,-2z" /><path style="fill:#e5e5e5" d="M743,763 l0,-315 0,-5 -1,-5 -2,-4 -3,-4 -4,-4 -4,-4 -5,-4 -5,-3 -6,-4 -7,-2 -7,-3 -7,-2 -8,-1 -8,-2 -8,0 -8,-1 -9,1 -8,0 -8,2 -8,1 -7,2 -7,3 -7,2 -6,4 -5,3 -5,4 -4,4 -4,4 -3,4 -2,4 -1,5 0,5 0,315 0,2 1,2 2,3 3,2 4,2 4,2 5,2 5,2 6,1 7,2 7,1 7,1 8,1 8,1 8,0 9,0 8,0 8,0 8,-1 8,-1 7,-1 7,-1 7,-2 6,-1 5,-2 5,-2 4,-2 4,-2 3,-2 2,-3 1,-2 0,-2z" /><path style="fill:none;stroke:#4c4c4c;stroke-width:2" d="M518,448 l1,1 2,1 3,1 5,1 6,2 7,1 8,1 10,0 10,1 10,1 12,1 13,0 13,1 13,0 14,0 15,0 14,0 14,0 14,0 13,-1 12,0 12,-1 11,-1 11,-1 9,0 8,-1 8,-1 6,-2 5,-1 3,-1 3,-1 0,-1" /><path style="fill:#7f7f7f;stroke:#4c4c4c;stroke-width:2" d="M677,400 l-6,6 -23,0 0,-12 18,-17 143,0 16,17 0,369 -22,0 0,-357 -6,-6 -120,0z" /><path style="fill:#4c4c4c;stroke:#4c4c4c;stroke-width:2" d="M803,769 l22,0 0,-6 -16,0 0,-363 -6,-6 -132,0 -5,6 -18,0 0,6 23,0 6,-6 120,0 6,6 0,363z" /><path style="fill:#b2b2b2;stroke:#4c4c4c;stroke-width:2" d="M358,803 l0,-732 1,-4 2,-5 4,-5 5,-4 6,-4 7,-4 8,-4 9,-3 10,-3 12,-3 11,-3 13,-2 13,-1 14,-2 14,0 15,-1 15,1 13,0 14,2 13,1 12,2 12,3 11,3 10,3 9,3 8,4 7,4 6,4 5,4 4,5 2,5 1,4 0,732 -1,3 -2,2 -4,2 -5,3 -6,2 -7,2 -8,2 -9,1 -10,2 -11,1 -12,1 -12,1 -13,1 -14,1 -13,0 -15,0 -15,0 -14,0 -14,-1 -13,-1 -13,-1 -11,-1 -12,-1 -10,-2 -9,-1 -8,-2 -7,-2 -6,-2 -5,-3 -4,-2 -2,-2 -1,-3z" /><path style="fill:#ccc" d="M382,803 l0,-732 1,-4 2,-5 3,-5 4,-4 5,-4 6,-4 7,-4 8,-3 8,-3 9,-3 10,-3 11,-2 11,-1 11,-2 12,0 12,-1 12,1 12,0 11,2 11,1 11,2 9,3 9,3 8,3 8,3 7,4 6,4 5,4 3,4 3,5 2,5 0,4 0,732 0,3 -2,2 -3,2 -3,3 -5,2 -6,2 -7,2 -8,1 -8,2 -9,1 -9,1 -11,1 -11,1 -11,1 -12,0 -12,0 -12,0 -12,0 -11,-1 -11,-1 -11,-1 -10,-1 -9,-1 -8,-2 -8,-1 -7,-2 -6,-2 -5,-2 -4,-3 -3,-2 -2,-2 -1,-3z" /><path style="fill:#e5e5e5" d="M418,803 l0,-732 1,-4 1,-5 2,-5 3,-4 3,-4 5,-4 4,-4 6,-3 6,-3 6,-3 7,-3 8,-2 7,-1 8,-2 8,0 9,-1 9,1 8,0 8,2 7,1 8,2 7,3 6,3 6,3 6,3 4,4 4,4 4,4 3,4 2,5 1,5 1,4 0,732 -1,3 -1,2 -2,2 -3,3 -4,2 -4,2 -4,2 -6,1 -6,2 -6,1 -7,1 -8,1 -7,1 -8,1 -8,0 -9,0 -9,0 -8,0 -8,-1 -7,-1 -8,-1 -7,-1 -6,-1 -6,-2 -6,-1 -4,-2 -5,-2 -3,-2 -3,-3 -2,-2 -1,-2 -1,-3z" /><path style="fill:none;stroke:#4c4c4c;stroke-width:2" d="M644,73 l-1,1 -2,2 -4,1 -5,1 -6,1 -7,1 -8,1 -9,1 -10,0 -11,1 -12,1 -12,0 -13,1 -14,0 -13,0 -15,0 -15,0 -14,0 -14,0 -13,-1 -13,0 -11,-1 -12,-1 -10,0 -9,-1 -8,-1 -7,-1 -6,-1 -5,-1 -4,-1 -2,-2 -1,-1" /><path style="fill:#7f7f7f;stroke:#4c4c4c;stroke-width:2" d="M484,23 l6,6 24,0 0,-12 -18,-17 -144,0 -18,17 0,786 24,0 0,-774 6,-6 120,0z" /><path style="fill:#4c4c4c;stroke:#4c4c4c;stroke-width:2" d="M358,809 l-24,0 0,-6 18,0 0,-780 6,-6 132,0 6,6 18,0 0,6 -24,0 -6,-6 -120,0 -6,6 0,780z" /></svg>