<!DOCTYPE svg PUBLIC "-//W3C//DTD SVG 20000303 Stylable//EN" "http://www.w3.org/TR/2000/03/WD-SVG-20000303/DTD/svg-20000303-stylable.dtd"[]><svg xmlns="http://www.w3.org/2000/svg" width="940px" height="999px" viewBox="0 0 936 998"><path style="fill:#a67300" d="M522,0 l17,0 0,272 -17,0 0,-272z" /><path style="fill:#a67300" d="M891,0 l17,0 0,272 -17,0 0,-272z" /><path style="fill:#a6a6a6;stroke:#4c4c4c;stroke-width:2" d="M516,272 l17,0 0,352 -17,0 0,-352z" /><path style="fill:#a6a6a6;stroke:#4c4c4c;stroke-width:2" d="M896,272 l17,0 0,352 -17,0 0,-352z" /><path style="fill:#7f7f7f;stroke:#4c4c4c;stroke-width:2" d="M525,332 l383,0 0,22 -383,0 0,-22z" /><path style="fill:#7f7f7f;stroke:#4c4c4c;stroke-width:2" d="M525,392 l383,0 0,23 -383,0 0,-23z" /><path style="fill:#7f7f7f;stroke:#4c4c4c;stroke-width:2" d="M525,453 l383,0 0,23 -383,0 0,-23z" /><path style="fill:#7f7f7f;stroke:#4c4c4c;stroke-width:2" d="M525,514 l383,0 0,22 -383,0 0,-22z" /><path style="fill:#7f7f7f;stroke:#4c4c4c;stroke-width:2" d="M520,574 l388,0 0,23 -388,0 0,-23z" /><path style="fill:#7f7f7f;stroke:#4c4c4c;stroke-width:2" d="M525,272 l383,0 0,23 -383,0 0,-23z" /><path style="fill:#7f7f7f;stroke:#4c4c4c;stroke-width:2" d="M433,635 l136,0 0,22 -136,0 0,-22z" /><path style="fill:#7f7f7f;stroke:#4c4c4c;stroke-width:2" d="M346,695 l137,0 0,23 -137,0 0,-23z" /><path style="fill:#7f7f7f;stroke:#4c4c4c;stroke-width:2" d="M260,756 l136,0 0,23 -136,0 0,-23z" /><path style="fill:#7f7f7f;stroke:#4c4c4c;stroke-width:2" d="M173,817 l136,0 0,22 -136,0 0,-22z" /><path style="fill:#7f7f7f;stroke:#4c4c4c;stroke-width:2" d="M87,877 l136,0 0,23 -136,0 0,-23z" /><path style="fill:#7f7f7f;stroke:#4c4c4c;stroke-width:2" d="M0,938 l136,0 0,23 -136,0 0,-23z" /><path style="fill:#c90" d="M892,0 l11,352 22,0 -12,-352 -21,0z" /><path style="fill:#c90" d="M517,0 l-12,352 22,0 12,-352 -22,0z" /><path style="fill:#fc0" d="M505,352 l0,272 22,0 0,-272 -22,0z" /><path style="fill:#fc0" d="M903,352 l0,272 22,0 0,-272 -22,0z" /><path style="fill:#f2e5b2" d="M524,5 l-12,347 9,0 12,-347 -9,0z" /><path style="fill:#f2e5b2" d="M899,5 l11,347 9,0 -11,-347 -9,0z" /><path style="fill:#fff" d="M910,357 l0,261 9,0 0,-261 -9,0z" /><path style="fill:#fff" d="M512,357 l0,261 9,0 0,-261 -9,0z" /><path style="fill:#7f7f7f;stroke:#4c4c4c;stroke-width:2" d="M885,635 l0,363 23,0 0,-363 -23,0z" /><path style="fill:#ccc" d="M893,635 l0,358 7,0 0,-358 -7,0z" /><path style="fill:#7f7f7f;stroke:#4c4c4c;stroke-width:2" d="M505,635 l0,363 22,0 0,-363 -22,0z" /><path style="fill:#ccc" d="M513,635 l0,358 7,0 0,-358 -7,0z" /><path style="fill:#fc0" d="M18,859 l504,-340 -13,-19 -503,340 12,19z" /><path style="fill:#fc0" d="M567,499 l295,0 0,-23 -295,0 0,23z" /><path style="fill:#fff" d="M559,489 l303,0 0,-6 -308,-1 5,7z" /><path style="fill:#fff" d="M14,852 l504,-340 -5,-6 -504,340 5,6z" /><path style="fill:#fc0" d="M568,635 l-1,-261 296,0 0,250 22,0 0,-272 -341,-1 0,284 24,0z" /><path style="fill:#fc0" d="M23,998 l0,-272 482,-325 0,234 22,0 0,-273 -527,353 0,283 23,0z" /><path style="fill:#fff" d="M560,635 l-1,-268 312,0 0,251 8,0 0,-259 -328,-2 0,278 9,0z" /><path style="fill:#fff" d="M15,998 l0,-276 499,-336 0,249 6,0 0,-262 -514,347 0,278 9,0z" /><path style="fill:#bfbfbf;stroke:#4c4c4c;stroke-width:2" d="M936,681 l-428,0 -452,317 -34,0 0,-45 474,-329 440,0 0,57z" /><path style="fill:#999" d="M919,641 l-419,1 -461,322 12,17 453,-317 415,0 0,-23z" /></svg>