<!DOCTYPE svg PUBLIC "-//W3C//DTD SVG 20000303 Stylable//EN" "http://www.w3.org/TR/2000/03/WD-SVG-20000303/DTD/svg-20000303-stylable.dtd"[]><svg xmlns="http://www.w3.org/2000/svg" width="999px" height="999px" viewBox="0 0 999 999"><path style="fill:#7f7f7f" d="M0,999 l0,-999 999,0 0,999 -958,0 0,-42 916,0 0,-437 -62,0 0,437 -42,0 0,-437 -83,0 0,437 -42,0 0,-437 -83,0 0,437 -42,0 0,-437 -83,0 0,437 -42,0 0,-437 -83,0 0,437 -42,0 0,-437 -83,0 0,437 -41,0 0,-437 -84,0 0,437 -41,0 0,-437 -63,0 0,-42 63,0 0,-437 41,0 0,437 84,0 0,-437 41,0 0,437 83,0 0,-437 42,0 0,437 83,0 0,-437 42,0 0,437 83,0 0,-437 42,0 0,437 83,0 0,-437 42,0 0,437 83,0 0,-437 42,0 0,437 62,0 0,-437 -916,0 0,958 -41,0z" /><path style="fill:none;stroke:#4c4c4c;stroke-width:2" d="M0,0 l999,0 0,999 -999,0 0,-999" /><path style="fill:none;stroke:#fff;stroke-width:2" d="M957,41 l0,437 -63,0" /><path style="fill:none;stroke:#fff;stroke-width:2" d="M853,41 l0,437 -84,0" /><path style="fill:none;stroke:#fff;stroke-width:2" d="M728,41 l0,437 -83,0" /><path style="fill:none;stroke:#fff;stroke-width:2" d="M603,41 l0,437 -83,0" /><path style="fill:none;stroke:#fff;stroke-width:2" d="M478,41 l0,437 -83,0" /><path style="fill:none;stroke:#fff;stroke-width:2" d="M353,41 l0,437 -83,0" /><path style="fill:none;stroke:#fff;stroke-width:2" d="M229,41 l0,437 -84,0" /><path style="fill:none;stroke:#fff;stroke-width:2" d="M104,41 l0,437 -63,0" /><path style="fill:none;stroke:#fff;stroke-width:2" d="M957,520 l0,437 -63,0" /><path style="fill:none;stroke:#fff;stroke-width:2" d="M853,520 l0,437 -84,0" /><path style="fill:none;stroke:#fff;stroke-width:2" d="M728,520 l0,437 -83,0" /><path style="fill:none;stroke:#fff;stroke-width:2" d="M603,520 l0,437 -83,0" /><path style="fill:none;stroke:#fff;stroke-width:2" d="M478,520 l0,437 -83,0" /><path style="fill:none;stroke:#fff;stroke-width:2" d="M353,520 l0,437 -83,0" /><path style="fill:none;stroke:#fff;stroke-width:2" d="M229,520 l0,437 -84,0" /><path style="fill:none;stroke:#fff;stroke-width:2" d="M104,520 l0,437 -63,0" /><path style="fill:none;stroke:#4c4c4c;stroke-width:2" d="M41,957 l0,-437 63,0" /><path style="fill:none;stroke:#4c4c4c;stroke-width:2" d="M145,957 l0,-437 84,0" /><path style="fill:none;stroke:#4c4c4c;stroke-width:2" d="M270,957 l0,-437 83,0" /><path style="fill:none;stroke:#4c4c4c;stroke-width:2" d="M395,957 l0,-437 83,0" /><path style="fill:none;stroke:#4c4c4c;stroke-width:2" d="M520,957 l0,-437 83,0" /><path style="fill:none;stroke:#4c4c4c;stroke-width:2" d="M645,957 l0,-437 83,0" /><path style="fill:none;stroke:#4c4c4c;stroke-width:2" d="M769,957 l0,-437 84,0" /><path style="fill:none;stroke:#4c4c4c;stroke-width:2" d="M894,957 l0,-437 63,0" /><path style="fill:none;stroke:#4c4c4c;stroke-width:2" d="M41,478 l0,-437 63,0" /><path style="fill:none;stroke:#4c4c4c;stroke-width:2" d="M145,478 l0,-437 84,0" /><path style="fill:none;stroke:#4c4c4c;stroke-width:2" d="M270,478 l0,-437 83,0" /><path style="fill:none;stroke:#4c4c4c;stroke-width:2" d="M395,478 l0,-437 83,0" /><path style="fill:none;stroke:#4c4c4c;stroke-width:2" d="M520,478 l0,-437 83,0" /><path style="fill:none;stroke:#4c4c4c;stroke-width:2" d="M645,478 l0,-437 83,0" /><path style="fill:none;stroke:#4c4c4c;stroke-width:2" d="M769,478 l0,-437 84,0" /><path style="fill:none;stroke:#4c4c4c;stroke-width:2" d="M894,478 l0,-437 63,0" /></svg>