<!DOCTYPE svg PUBLIC "-//W3C//DTD SVG 20000303 Stylable//EN" "http://www.w3.org/TR/2000/03/WD-SVG-20000303/DTD/svg-20000303-stylable.dtd"[]><svg xmlns="http://www.w3.org/2000/svg" width="229px" height="999px" viewBox="0 0 190 999"><path style="fill:#c90" d="M4,402 l0,-9 172,0 0,9 -172,0z" /><path style="fill:#c90" d="M4,342 l0,-7 181,0 0,7 -181,0z" /><path style="fill:#c90" d="M185,455 l-9,0 0,-113 9,0 0,113z" /><path style="fill:#c90" d="M4,699 l0,-7 172,0 0,7 -172,0z" /><path style="fill:#c90" d="M4,759 l0,-9 172,0 0,9 -172,0z" /><path style="fill:#c90" d="M185,813 l-9,0 0,-121 9,0 0,121z" /><path style="fill:none;stroke:#4c4c4c;stroke-width:2" d="M9,190 l78,0" /><path style="fill:none;stroke:#4c4c4c;stroke-width:2" d="M9,154 l78,0" /><path style="fill:none;stroke:#4c4c4c;stroke-width:2" d="M9,226 l78,0" /><path style="fill:none;stroke:#4c4c4c;stroke-width:2" d="M9,263 l78,0" /><path style="fill:none;stroke:#4c4c4c;stroke-width:2" d="M9,171 l78,0" /><path style="fill:none;stroke:#4c4c4c;stroke-width:2" d="M9,207 l78,0" /><path style="fill:none;stroke:#4c4c4c;stroke-width:2" d="M9,243 l78,0" /><path style="fill:none;stroke:#4c4c4c;stroke-width:2" d="M9,279 l78,0" /><path style="fill:none;stroke:#4c4c4c;stroke-width:2" d="M103,439 l78,0" /><path style="fill:none;stroke:#4c4c4c;stroke-width:2" d="M103,402 l78,0" /><path style="fill:none;stroke:#4c4c4c;stroke-width:2" d="M103,366 l78,0" /><path style="fill:none;stroke:#4c4c4c;stroke-width:2" d="M103,330 l78,0" /><path style="fill:none;stroke:#4c4c4c;stroke-width:2" d="M103,420 l78,0" /><path style="fill:none;stroke:#4c4c4c;stroke-width:2" d="M103,383 l78,0" /><path style="fill:none;stroke:#4c4c4c;stroke-width:2" d="M103,349 l78,0" /><path style="fill:none;stroke:#4c4c4c;stroke-width:2" d="M9,596 l78,0" /><path style="fill:none;stroke:#4c4c4c;stroke-width:2" d="M9,559 l78,0" /><path style="fill:none;stroke:#4c4c4c;stroke-width:2" d="M9,523 l78,0" /><path style="fill:none;stroke:#4c4c4c;stroke-width:2" d="M9,487 l78,0" /><path style="fill:none;stroke:#4c4c4c;stroke-width:2" d="M9,578 l78,0" /><path style="fill:none;stroke:#4c4c4c;stroke-width:2" d="M9,543 l78,0" /><path style="fill:none;stroke:#4c4c4c;stroke-width:2" d="M9,506 l78,0" /><path style="fill:none;stroke:#4c4c4c;stroke-width:2" d="M103,796 l78,0" /><path style="fill:none;stroke:#4c4c4c;stroke-width:2" d="M103,759 l78,0" /><path style="fill:none;stroke:#4c4c4c;stroke-width:2" d="M103,723 l78,0" /><path style="fill:none;stroke:#4c4c4c;stroke-width:2" d="M103,687 l78,0" /><path style="fill:none;stroke:#4c4c4c;stroke-width:2" d="M103,651 l78,0" /><path style="fill:none;stroke:#4c4c4c;stroke-width:2" d="M103,776 l78,0" /><path style="fill:none;stroke:#4c4c4c;stroke-width:2" d="M103,740 l78,0" /><path style="fill:none;stroke:#4c4c4c;stroke-width:2" d="M103,704 l78,0" /><path style="fill:none;stroke:#4c4c4c;stroke-width:2" d="M103,668 l78,0" /><path style="fill:none;stroke:#4c4c4c;stroke-width:2" d="M9,974 l78,0" /><path style="fill:none;stroke:#4c4c4c;stroke-width:2" d="M9,938 l78,0" /><path style="fill:none;stroke:#4c4c4c;stroke-width:2" d="M9,902 l78,0" /><path style="fill:none;stroke:#4c4c4c;stroke-width:2" d="M9,868 l78,0" /><path style="fill:none;stroke:#4c4c4c;stroke-width:2" d="M9,957 l78,0" /><path style="fill:none;stroke:#4c4c4c;stroke-width:2" d="M9,921 l78,0" /><path style="fill:none;stroke:#4c4c4c;stroke-width:2" d="M9,885 l78,0" /><path style="fill:none;stroke:#4c4c4c;stroke-width:2" d="M9,849 l78,0" /><path style="fill:#4c4c4c" d="M4,832 l181,0 0,-19 -181,0 0,19z" /><path style="fill:#4c4c4c" d="M4,475 l181,0 0,-20 -181,0 0,20z" /><path style="fill:#4c4c4c" d="M4,125 l181,0 0,19 -181,0 0,-19z" /><path style="fill:#fc0" d="M14,296 l-10,0 0,-292 10,0 0,292z" /><path style="fill:#fc0" d="M91,185 l-9,0 0,-181 9,0 0,181z" /><path style="fill:#fff" d="M9,296 l0,-292 0,292z" /><path style="fill:#fff" d="M87,185 l-3,0 0,-181 3,0 0,181z" /><path style="fill:#fc0" d="M14,880 l-10,0 0,-188 10,0 0,188z" /><path style="fill:#fc0" d="M91,880 l-9,0 0,-188 9,0 0,188z" /><path style="fill:#000" d="M4,880 l5,0 0,114 -5,0 0,-114z" /><path style="fill:#000" d="M87,880 l4,0 0,114 -4,0 0,-114z" /><path style="fill:#000" d="M99,501 l4,0 0,312 -4,0 0,-312z" /><path style="fill:#000" d="M87,185 l4,0 0,114 -4,0 0,-114z" /><path style="fill:#000" d="M99,185 l4,0 0,270 -4,0 0,-270z" /><path style="fill:#000" d="M87,501 l4,0 0,114 -4,0 0,-114z" /><path style="fill:#000" d="M181,316 l4,0 0,139 -4,0 0,-139z" /><path style="fill:#000" d="M181,632 l4,0 0,181 -4,0 0,-181z" /><path style="fill:#fc0" d="M91,501 l-9,0 0,-166 9,0 0,166z" /><path style="fill:#fc0" d="M14,615 l-10,0 0,-280 10,0 0,280z" /><path style="fill:#fff" d="M87,501 l-3,0 0,-166 3,0 0,166z" /><path style="fill:#fff" d="M9,615 l0,-280 0,280z" /><path style="fill:#7f7f7f" d="M4,316 l181,0 0,-17 -181,0 0,17z" /><path style="fill:#7f7f7f" d="M4,632 l181,0 0,-17 -181,0 0,17z" /><path style="fill:#fff" d="M9,880 l0,-188 0,188z" /><path style="fill:#fff" d="M87,880 l-3,0 0,-188 3,0 0,188z" /><path style="fill:#fc0" d="M185,615 l-9,0 0,-114 9,0 0,114z" /><path style="fill:#fc0" d="M4,559 l0,-7 172,0 0,7 -172,0z" /><path style="fill:#fc0" d="M4,501 l0,-9 181,0 0,9 -181,0z" /><path style="fill:#fff" d="M4,497 l181,0 -181,0z" /><path style="fill:#fff" d="M183,615 l-2,0 0,-114 2,0 0,114z" /><path style="fill:#fff" d="M4,557 l0,-3 172,0 0,3 -172,0z" /><path style="fill:#fc0" d="M185,299 l-9,0 0,-114 9,0 0,114z" /><path style="fill:#fc0" d="M4,243 l0,-9 172,0 0,9 -172,0z" /><path style="fill:#fc0" d="M4,185 l0,-9 181,0 0,9 -181,0z" /><path style="fill:#fff" d="M183,299 l-2,0 0,-114 2,0 0,114z" /><path style="fill:#fff" d="M4,181 l181,0 -181,0z" /><path style="fill:#fff" d="M4,241 l0,-2 172,0 0,2 -172,0z" /></svg>