<!DOCTYPE svg PUBLIC "-//W3C//DTD SVG 20000303 Stylable//EN" "http://www.w3.org/TR/2000/03/WD-SVG-20000303/DTD/svg-20000303-stylable.dtd"[]><svg xmlns="http://www.w3.org/2000/svg" width="999px" height="586px" viewBox="0 0 999 561"><path style="fill:#4c4c4c" d="M165,519 l668,0 0,32 -668,0 0,-32z" /><path style="fill:#e5e5e5" d="M19,435 l0,-62 -19,-62 19,-292 960,0 20,292 -20,62 0,62 -146,0 0,84 -668,0 0,-84 -146,0z" /><path style="fill:#ccc" d="M19,373 l-19,-62 999,0 -20,62 -960,0z" /><path style="fill:none;stroke:#7f7f7f;stroke-width:2" d="M249,373 l-10,-62 10,-292" /><path style="fill:#999" d="M355,40 l-12,271 12,62 288,0 12,-62 -12,-271 -288,0z" /><path style="fill:#666" d="M343,311 l12,62 288,0 12,-62 -312,0z" /><path style="fill:none;stroke:#4c4c4c;stroke-width:2" d="M355,40 l-12,271 12,62 288,0 12,-62 -12,-271 -288,0" /><path style="fill:#b2b2b2" d="M165,457 l0,-22 668,0 0,22 -668,0z" /><path style="fill:none;stroke:#4c4c4c;stroke-width:2" d="M19,435 l0,-62 -19,-62 19,-292 960,0 20,292 -20,62 0,62 -146,0 0,116 -668,0 0,-116 -146,0" /><path style="fill:none;stroke:#4c4c4c;stroke-width:2" d="M165,435 l668,0" /><path style="fill:#000" d="M187,551 l20,0 0,10 -20,0 0,-10z" /><path style="fill:#000" d="M791,551 l20,0 0,10 -20,0 0,-10z" /><path style="fill:#000" d="M489,551 l20,0 0,10 -20,0 0,-10z" /><path style="fill:#000" d="M333,551 l20,0 0,10 -20,0 0,-10z" /><path style="fill:#000" d="M645,551 l20,0 0,10 -20,0 0,-10z" /><path style="fill:none;stroke:#fff;stroke-width:2" d="M253,373 l-10,-62 10,-292" /><path style="fill:#191919" d="M355,71 l240,0 0,32 -240,0 0,-32z" /><path style="fill:#191919" d="M427,103 l36,0 0,82 -36,0 0,-82z" /><path style="fill:#4c4c4c;stroke:#4c4c4c;stroke-width:2" d="M379,311 l72,0 0,-156 -72,0 0,156z" /><path style="fill:#4c4c4c;stroke:#4c4c4c;stroke-width:2" d="M499,145 l108,0 0,40 -108,0 0,-40z" /><path style="fill:#f2e5cc;stroke:#4c4c4c;stroke-width:2" d="M439,185 l144,0 0,126 -144,0 0,-126z" /><path style="fill:#b2ccff;stroke:#4c4c4c;stroke-width:2" d="M403,269 l204,0 0,20 -204,0 0,-20z" /><path style="fill:#b2ccff;stroke:#4c4c4c;stroke-width:2" d="M355,227 l96,0 0,42 -96,0 0,-42z" /><path style="fill:#b2ccff;stroke:#4c4c4c;stroke-width:2" d="M595,40 l12,271 -12,62 48,0 12,-62 -12,-271 -48,0z" /><path style="fill:#000" d="M619,311 l6,-10 0,-52 -6,-12 12,0 6,12 0,52 -6,10 -12,0z" /><path style="fill:#666;stroke:#4c4c4c;stroke-width:2" d="M665,9 l126,0 0,124 -126,0 0,-124z" /><path style="fill:#666;stroke:#4c4c4c;stroke-width:2" d="M707,487 l32,0 0,32 -32,0 0,-32z" /><path style="fill:#4c4c4c;stroke:#4c4c4c;stroke-width:2" d="M675,133 l32,0 0,396 -32,0 0,-396z" /><path style="fill:#7f7f7f" d="M677,19 l72,0 0,63 -72,0 0,-63z" /><path style="fill:#333;stroke:#4c4c4c;stroke-width:2" d="M689,30 l48,0 0,41 -48,0 0,-41z" /><path style="fill:#e5e5e5" d="M675,94 l6,0 0,3 -6,0 0,-3z" /><path style="fill:#e5e5e5" d="M675,106 l6,0 0,5 -6,0 0,-5z" /><path style="fill:#e5e5e5" d="M675,120 l6,0 0,3 -6,0 0,-3z" /><path style="fill:#e5e5e5" d="M693,94 l4,0 0,3 -4,0 0,-3z" /><path style="fill:#e5e5e5" d="M693,106 l4,0 0,5 -4,0 0,-5z" /><path style="fill:#e5e5e5" d="M693,120 l4,0 0,3 -4,0 0,-3z" /><path style="fill:#e5e5e5" d="M709,94 l6,0 0,3 -6,0 0,-3z" /><path style="fill:#e5e5e5" d="M709,106 l6,0 0,5 -6,0 0,-5z" /><path style="fill:#e5e5e5" d="M709,120 l6,0 0,3 -6,0 0,-3z" /><path style="fill:#e5e5e5" d="M725,94 l6,0 0,3 -6,0 0,-3z" /><path style="fill:#e5e5e5" d="M725,106 l6,0 0,5 -6,0 0,-5z" /><path style="fill:#e5e5e5" d="M725,120 l6,0 0,3 -6,0 0,-3z" /><path style="fill:#e5e5e5" d="M741,94 l6,0 0,3 -6,0 0,-3z" /><path style="fill:#e5e5e5" d="M741,106 l6,0 0,5 -6,0 0,-5z" /><path style="fill:#e5e5e5" d="M741,120 l6,0 0,3 -6,0 0,-3z" /><path style="fill:#e5e5e5" d="M759,94 l4,0 0,3 -4,0 0,-3z" /><path style="fill:#e5e5e5" d="M759,106 l4,0 0,5 -4,0 0,-5z" /><path style="fill:#e5e5e5" d="M759,120 l4,0 0,3 -4,0 0,-3z" /><path style="fill:#e5e5e5" d="M775,94 l4,0 0,3 -4,0 0,-3z" /><path style="fill:#e5e5e5" d="M775,106 l4,0 0,5 -4,0 0,-5z" /><path style="fill:#e5e5e5" d="M775,120 l4,0 0,3 -4,0 0,-3z" /><path style="fill:#7f0000" d="M551,473 l32,0 0,20 -32,0 0,-20z" /><path style="fill:#7f0000" d="M545,493 l42,0 0,20 -42,0 0,-20z" /><path style="fill:#7f0000" d="M68,103 l55,0 0,20 -55,0 0,-20z" /><path style="fill:#333;stroke:#4c4c4c;stroke-width:2" d="M375,0 l248,0 0,19 -248,0 0,-19z" /></svg>