<!DOCTYPE svg PUBLIC "-//W3C//DTD SVG 20000303 Stylable//EN" "http://www.w3.org/TR/2000/03/WD-SVG-20000303/DTD/svg-20000303-stylable.dtd"[]><svg xmlns="http://www.w3.org/2000/svg" width="999px" height="921px" viewBox="0 0 999 917"><path style="fill:#333" d="M952,141 l14,0 0,10 -14,0 0,-10z" /><path style="fill:#333" d="M921,193 l16,0 0,16 -16,0 0,-16z" /><path style="fill:#4c7f7f" d="M125,417 l82,0 0,416 -82,0 0,-416z" /><path style="fill:#366" d="M125,417 l82,0 0,82 -82,0 0,-82z" /><path style="fill:none;stroke:#4c4c4c;stroke-width:2" d="M125,417 l82,0 0,416 -82,0 0,-416" /><path style="fill:#033" d="M207,168 l646,0 0,249 -646,0 0,-249z" /><path style="fill:#000" d="M437,42 l270,0 0,365 -270,0 0,-365z" /><path style="fill:#033" d="M941,917 l-26,-36 -666,0 -20,36 -12,0 22,-42 688,0 19,42 -5,0z" /><path style="fill:#699" d="M177,459 l20,416 0,42 20,0 22,-42 688,0 19,42 20,0 0,-42 22,-416 -811,0z" /><path style="fill:#5e9191" d="M191,749 l6,126 0,42 20,0 22,-42 688,0 19,42 20,0 0,-42 18,-356 -793,230z" /><path style="fill:none;stroke:#4c4c4c;stroke-width:2" d="M177,459 l20,416 0,42 20,0 22,-42 688,0 19,42 20,0 0,-42 22,-416 -811,0" /><path style="fill:#699;stroke:#366;stroke-width:2" d="M251,853 l-34,-164 0,-44 12,-44 22,-36 32,-32 38,-22 42,-12 44,0 42,12 38,22 30,32 22,38 12,42 0,44 -34,164 -266,0z" /><path style="fill:none;stroke:#9cc;stroke-width:2" d="M217,689 l0,-44 12,-42 22,-38 32,-32 38,-22 42,-12 44,0 42,12" /><path style="fill:none;stroke:#9cc;stroke-width:2" d="M285,743 l-16,-28 -10,-32 0,-34 10,-30 16,-30 22,-22 30,-16 30,-10 34,0 32,10 28,16 24,22" /><path style="fill:none;stroke:#9cc;stroke-width:2" d="M459,609 l12,22 8,24 0,24 -8,24 -12,22 -16,16 -22,12 -24,8 -24,0 -24,-8 -22,-12 -18,-16" /><path style="fill:none;stroke:#9cc;stroke-width:2" d="M677,667 l166,0" /><path style="fill:none;stroke:#9cc;stroke-width:2" d="M677,697 l166,0" /><path style="fill:none;stroke:#9cc;stroke-width:2" d="M677,729 l166,0" /><path style="fill:none;stroke:#9cc;stroke-width:2" d="M677,761 l166,0" /><path style="fill:none;stroke:#9cc;stroke-width:2" d="M677,791 l166,0" /><path style="fill:none;stroke:#9cc;stroke-width:2" d="M659,811 l-4,-12 0,-140 4,-12 8,-10 10,-8 14,-4 137,0 13,4 10,8" /><path style="fill:none;stroke:#366;stroke-width:2" d="M851,637 l8,10 4,12 0,140 -4,12 -8,10 -10,8 -13,4 -137,0 -14,-4 -10,-8 -8,-10" /><path style="fill:none;stroke:#366;stroke-width:2" d="M485,589 l16,30 8,30 0,34 -8,32 -16,28 -24,24 -28,16 -32,8 -34,0 -30,-8 -30,-16 -22,-24" /><path style="fill:none;stroke:#366;stroke-width:2" d="M309,725 l-12,-22 -6,-24 0,-24 6,-24 12,-22 18,-18 22,-12 24,-6 24,0 24,6 22,12 16,18" /><path style="fill:none;stroke:#366;stroke-width:2" d="M677,781 l166,0" /><path style="fill:none;stroke:#366;stroke-width:2" d="M677,749 l166,0" /><path style="fill:none;stroke:#366;stroke-width:2" d="M677,717 l166,0" /><path style="fill:none;stroke:#366;stroke-width:2" d="M677,687 l166,0" /><path style="fill:none;stroke:#366;stroke-width:2" d="M677,657 l166,0" /><path style="fill:#9cc;stroke:#4c4c4c;stroke-width:2" d="M165,417 l834,0 0,42 -834,0 0,-42z" /><path style="fill:#7fb2b2;stroke:#4c4c4c;stroke-width:2" d="M321,385 l104,0 0,22 292,0 0,-22 282,0 0,32 -678,0 0,-32z" /><path style="fill:#ccc" d="M431,365 l282,0 0,36 -282,0 0,-36z" /><path style="fill:none;stroke:#e5e5e5;stroke-width:2" d="M431,401 l0,-36 282,0" /><path style="fill:none;stroke:#4c4c4c;stroke-width:2" d="M713,365 l0,36 -282,0" /><path style="fill:#4c7f7f;stroke:#4c4c4c;stroke-width:2" d="M0,0 l207,0 0,417 -207,0 0,-417z" /><path style="fill:#033;stroke:#4c4c4c;stroke-width:2" d="M229,0 l-22,0 0,83 22,0 0,-83z" /><path style="fill:#4c7f7f;stroke:#4c4c4c;stroke-width:2" d="M165,83 l266,0 0,85 -266,0 0,-85z" /><path style="fill:#699" d="M333,209 l82,0 0,176 -82,0 0,-176z" /><path style="fill:#366" d="M395,209 l20,0 0,176 -20,0 0,-176z" /><path style="fill:#033" d="M41,168 l84,0 0,165 -84,0 0,-165z" /><path style="fill:#699" d="M83,229 l146,0 0,166 -146,0 0,-166z" /><path style="fill:#366" d="M207,229 l22,0 0,166 -22,0 0,-166z" /><path style="fill:#cff" d="M73,229 l-12,-12 0,-18 12,-12 18,0 12,12 0,18 -12,12 -18,0z" /><path style="fill:#366;stroke:#4c4c4c;stroke-width:2" d="M20,103 l11,0 0,334 -11,0 0,-334z" /><path style="fill:#9cc" d="M24,103 l3,0 0,334 -3,0 0,-334z" /><path style="fill:#699;stroke:#4c4c4c;stroke-width:2" d="M10,365 l73,0 0,26 -73,0 0,-26z" /><path style="fill:#033" d="M165,229 l26,0 0,166 -26,0 0,-166z" /><path style="fill:#9cc" d="M177,381 l-6,-10 0,-12 6,-10 8,0 6,10 0,12 -6,10 -8,0z" /><path style="fill:#9cc" d="M177,343 l-6,-8 0,-14 6,-8 8,0 6,8 0,14 -6,8 -8,0z" /><path style="fill:#9cc" d="M177,307 l-6,-10 0,-12 6,-10 8,0 6,10 0,12 -6,10 -8,0z" /><path style="fill:#9cc" d="M177,271 l-6,-10 0,-12 6,-10 8,0 6,10 0,12 -6,10 -8,0z" /><path style="fill:#ccc" d="M431,125 l282,0 0,166 -282,0 0,-166z" /><path style="fill:#c7c7c7" d="M431,271 l282,-103 0,123 -282,0 0,-20z" /><path style="fill:#dbdbdb" d="M431,109 l282,0 0,16 -282,0 0,-16z" /><path style="fill:#f7f7f7" d="M431,93 l282,0 0,16 -282,0 0,-16z" /><path style="fill:#e5e5e5" d="M431,42 l282,0 0,51 -282,0 0,-51z" /><path style="fill:none;stroke:#4c4c4c;stroke-width:2" d="M431,42 l282,0 0,249 -282,0 0,-249" /><path style="fill:#e5e5e5" d="M583,145 l82,0 0,104 -82,0 0,-104z" /><path style="fill:none;stroke:#fff;stroke-width:2" d="M583,249 l0,-104 82,0" /><path style="fill:#9cc" d="M739,135 l182,0 0,136 -182,0 0,-136z" /><path style="fill:#366" d="M739,223 l182,0 0,48 -182,0 0,-48z" /><path style="fill:none;stroke:#4c4c4c;stroke-width:2" d="M739,135 l182,0 0,136 -182,0 0,-136" /><path style="fill:#699;stroke:#4c4c4c;stroke-width:2" d="M713,291 l26,6 198,0 -6,-88 -88,0 0,20 -130,32 0,30z" /><path style="fill:#333" d="M937,135 l15,0 0,130 -15,0 0,-130z" /><path style="fill:#4c4c4c" d="M937,141 l1,0 3,0 2,0 1,0 2,0 2,0 3,0 1,0 0,4 0,4 0,4 0,3 0,4 0,4 0,4 0,3 0,4 0,3 0,4 0,4 0,3 0,4 0,3 0,3 0,4 0,4 0,4 0,3 0,4 0,4 0,4 0,3 0,4 0,4 0,4 0,3 0,4 0,4 0,4 0,3 -1,-1 -3,0 -2,-1 -2,0 -1,0 -2,1 -3,0 -1,1 0,-3 0,-4 0,-4 0,-4 0,-3 0,-4 0,-4 0,-4 0,-3 0,-4 0,-4 0,-4 0,-3 0,-4 0,-4 0,-4 0,-3 0,-3 0,-4 0,-3 0,-4 0,-4 0,-3 0,-4 0,-3 0,-4 0,-4 0,-4 0,-3 0,-4 0,-4 0,-4z" /><path style="fill:#666" d="M937,149 l15,0 0,102 -15,0 0,-102z" /><path style="fill:#7f7f7f" d="M937,157 l15,0 0,86 -15,0 0,-86z" /><path style="fill:#999" d="M937,163 l15,0 0,74 -15,0 0,-74z" /><path style="fill:#b2b2b2" d="M937,172 l15,0 0,57 -15,0 0,-57z" /><path style="fill:#ccc" d="M937,177 l15,0 0,46 -15,0 0,-46z" /><path style="fill:#e5e5e5" d="M937,185 l15,0 0,30 -15,0 0,-30z" /><path style="fill:#fff" d="M937,193 l15,0 0,16 -15,0 0,-16z" /><path style="fill:none;stroke:#4c4c4c;stroke-width:2" d="M937,135 l15,0 0,130 -15,0 0,-130" /><path style="fill:none;stroke:#4c4c4c;stroke-width:2" d="M333,209 l82,0 0,176 -82,0 0,-176" /><path style="fill:none;stroke:#4c4c4c;stroke-width:2" d="M83,229 l146,0 0,166 -146,0 0,-166" /></svg>