<!DOCTYPE svg PUBLIC "-//W3C//DTD SVG 20000303 Stylable//EN" "http://www.w3.org/TR/2000/03/WD-SVG-20000303/DTD/svg-20000303-stylable.dtd"[]><svg xmlns="http://www.w3.org/2000/svg" width="999px" height="959px" viewBox="0 0 999 957"><path style="fill:#fc0;stroke:#4c4c4c;stroke-width:2" d="M201,893 l26,0 0,64 -26,0 0,-64z" /><path style="fill:#fc0;stroke:#4c4c4c;stroke-width:2" d="M557,893 l26,0 0,64 -26,0 0,-64z" /><path style="fill:#b27f00;stroke:#4c4c4c;stroke-width:2" d="M573,41 l42,0 0,192 -42,0 0,-192z" /><path style="fill:#b27f00;stroke:#4c4c4c;stroke-width:2" d="M615,85 l86,0 0,148 -86,0 0,-148z" /><path style="fill:#b27f00;stroke:#4c4c4c;stroke-width:2" d="M637,169 l42,0 0,298 -42,0 0,-298z" /><path style="fill:#b27f00;stroke:#4c4c4c;stroke-width:2" d="M595,169 l20,0 0,298 -20,0 0,-298z" /><path style="fill:#c90" d="M573,128 l86,0 0,255 -86,0 0,-255z" /><path style="fill:#b27f00" d="M659,128 l84,0 0,85 -84,0 0,-85z" /><path style="fill:#c90" d="M659,137 l84,0 0,64 -84,0 0,-64z" /><path style="fill:#e5b200" d="M659,149 l84,0 0,42 -84,0 0,-42z" /><path style="fill:#fc0" d="M659,159 l84,0 0,22 -84,0 0,-22z" /><path style="fill:#fc0" d="M0,957 l0,-554 85,0 0,-403 488,0 0,467 426,0 0,490 -42,0 0,-64 -916,0 0,64 -41,0z" /><path style="fill:#fac700" d="M0,689 l361,-158 0,318 -361,0 0,-160z" /><path style="fill:#f5c200" d="M0,711 l361,-158 0,296 -361,0 0,-138z" /><path style="fill:#f0bd00" d="M0,747 l361,-160 0,264 -361,0 0,-104z" /><path style="fill:#fac700" d="M85,249 l276,-121 0,275 -276,0 0,-154z" /><path style="fill:#f5c200" d="M85,265 l276,-122 0,260 -276,0 0,-138z" /><path style="fill:#f0bd00" d="M85,291 l276,-120 0,232 -276,2 0,-114z" /><path style="fill:none;stroke:#7f4c00;stroke-width:2" d="M85,403 l276,0" /><path style="fill:none;stroke:#7f4c00;stroke-width:2" d="M0,851 l999,0" /><path style="fill:none;stroke:#b27f00;stroke-width:2" d="M111,447 l-70,0 0,4 70,0 0,4 -70,0 0,4 70,0 0,4 -70,0 0,6 70,0 0,4 -70,0 0,4 70,0 0,4 -70,0 0,4 70,0 0,4 -70,0 0,6 70,0 0,4 -70,0 0,4 70,0 0,4 -70,0 0,4 70,0 0,4 -70,0 0,6 70,0 0,4 -70,0 0,4 70,0 0,4 -70,0 0,4 70,0 0,4 -70,0 0,6 70,0 0,4 -70,0 0,4 70,0 0,4 -70,0 0,4 70,0 0,4 -70,0 0,4 70,0 0,6 -70,0 0,4 70,0 0,4 -70,0 0,4 70,0 0,4 -70,0 0,6 70,0 0,4 -70,0" /><path style="fill:none;stroke:#b27f00;stroke-width:2" d="M215,447 l-70,0 0,4 70,0 0,4 -70,0 0,4 70,0 0,4 -70,0 0,6 70,0 0,4 -70,0 0,4 70,0 0,4 -70,0 0,4 70,0 0,4 -70,0 0,6 70,0 0,4 -70,0 0,4 70,0 0,4 -70,0 0,4 70,0 0,4 -70,0 0,6 70,0 0,4 -70,0 0,4 70,0 0,4 -70,0 0,4 70,0 0,4 -70,0 0,6 70,0 0,4 -70,0 0,4 70,0 0,4 -70,0 0,4 70,0 0,4 -70,0 0,4 70,0 0,6 -70,0 0,4 70,0 0,4 -70,0 0,4 70,0 0,4 -70,0 0,6 70,0 0,4 -70,0" /><path style="fill:none;stroke:#b27f00;stroke-width:2" d="M319,447 l-70,0 0,4 70,0 0,4 -70,0 0,4 70,0 0,4 -70,0 0,6 70,0 0,4 -70,0 0,4 70,0 0,4 -70,0 0,4 70,0 0,4 -70,0 0,6 70,0 0,4 -70,0 0,4 70,0 0,4 -70,0 0,4 70,0 0,4 -70,0 0,6 70,0 0,4 -70,0 0,4 70,0 0,4 -70,0 0,4 70,0 0,4 -70,0 0,6 70,0 0,4 -70,0 0,4 70,0 0,4 -70,0 0,4 70,0 0,4 -70,0 0,4 70,0 0,6 -70,0 0,4 70,0 0,4 -70,0 0,4 70,0 0,4 -70,0 0,6 70,0 0,4 -70,0" /><path style="fill:none;stroke:#b27f00;stroke-width:2" d="M163,105 l-58,0 0,6 58,0 0,7 -58,0 0,5 58,0 0,5 -58,0 0,5 58,0 0,6 -58,0 0,4 58,0 0,6 -58,0 0,6 58,0 0,4 -58,0 0,6 58,0 0,6 -58,0 0,6 58,0 0,4 -58,0 0,6 58,0 0,6 -58,0 0,6 58,0 0,4 -58,0 0,6 58,0 0,6 -58,0 0,4 58,0 0,6 -58,0 0,6 58,0 0,6 -58,0 0,4 58,0 0,6 -58,0 0,6 58,0 0,4 -58,0 0,6 58,0 0,6 -58,0 0,4 58,0 0,6 -58,0 0,6 58,0 0,6 -58,0 0,4 58,0 0,6 -58,0" /><path style="fill:none;stroke:#b27f00;stroke-width:2" d="M251,105 l-58,0 0,6 58,0 0,7 -58,0 0,5 58,0 0,5 -58,0 0,5 58,0 0,6 -58,0 0,4 58,0 0,6 -58,0 0,6 58,0 0,4 -58,0 0,6 58,0 0,6 -58,0 0,6 58,0 0,4 -58,0 0,6 58,0 0,6 -58,0 0,6 58,0 0,4 -58,0 0,6 58,0 0,6 -58,0 0,4 58,0 0,6 -58,0 0,6 58,0 0,6 -58,0 0,4 58,0 0,6 -58,0 0,6 58,0 0,4 -58,0 0,6 58,0 0,6 -58,0 0,4 58,0 0,6 -58,0 0,6 58,0 0,6 -58,0 0,4 58,0 0,6 -58,0" /><path style="fill:none;stroke:#b27f00;stroke-width:2" d="M339,105 l-58,0 0,6 58,0 0,7 -58,0 0,5 58,0 0,5 -58,0 0,5 58,0 0,6 -58,0 0,4 58,0 0,6 -58,0 0,6 58,0 0,4 -58,0 0,6 58,0 0,6 -58,0 0,6 58,0 0,4 -58,0 0,6 58,0 0,6 -58,0 0,6 58,0 0,4 -58,0 0,6 58,0 0,6 -58,0 0,4 58,0 0,6 -58,0 0,6 58,0 0,6 -58,0 0,4 58,0 0,6 -58,0 0,6 58,0 0,4 -58,0 0,6 58,0 0,6 -58,0 0,4 58,0 0,6 -58,0 0,6 58,0 0,6 -58,0 0,4 58,0 0,6 -58,0" /><path style="fill:#333" d="M383,85 l170,0 0,106 -170,0 0,-106z" /><path style="fill:#b2b2b2" d="M383,64 l170,0 0,21 -170,0 0,-21z" /><path style="fill:none;stroke:#4c4c4c;stroke-width:2" d="M383,191 l0,-127 170,0" /><path style="fill:none;stroke:#ff0;stroke-width:2" d="M553,64 l0,127 -170,0" /><path style="fill:#666" d="M383,297 l62,0 0,86 -62,0 0,-86z" /><path style="fill:#fac700" d="M573,689 l426,-158 0,318 -426,0 0,-160z" /><path style="fill:#f5c200" d="M573,711 l426,-158 0,296 -426,0 0,-138z" /><path style="fill:#f0bd00" d="M573,747 l426,-160 0,264 -426,0 0,-104z" /><path style="fill:none;stroke:#c90;stroke-width:2" d="M573,851 l0,-384" /><path style="fill:none;stroke:#c90;stroke-width:2" d="M361,851 l0,-851" /><path style="fill:none;stroke:#4c4c4c;stroke-width:2" d="M0,957 l0,-554 85,0 0,-403 488,0 0,467 426,0 0,490 -42,0 0,-64 -916,0 0,64 -41,0" /><circle style="fill:#c90" cx="510" cy="255" r="21" /><path style="fill:#333" d="M329,855 l32,0 0,32 -32,0 0,-32z" /></svg>