<!DOCTYPE svg PUBLIC "-//W3C//DTD SVG 20000303 Stylable//EN" "http://www.w3.org/TR/2000/03/WD-SVG-20000303/DTD/svg-20000303-stylable.dtd"[]><svg xmlns="http://www.w3.org/2000/svg" width="999px" height="861px" viewBox="0 0 999 852"><path style="fill:#f2e5cc;stroke:#4c4c4c;stroke-width:2" d="M759,311 l0,-62 6,-18 10,-18 12,-12 18,-10 18,-6 20,0 18,6 16,10 14,12 10,18 4,18 0,62 -146,0z" /><path style="fill:#f2e5cc" d="M0,81 l249,0 0,-81 -249,0 0,81z" /><path style="fill:#ccbfa6" d="M0,81 l249,0 0,-62 -178,0 -71,62z" /><path style="fill:none;stroke:#4c4c4c;stroke-width:2" d="M0,81 l249,0 0,-81 -249,0 0,81" /><path style="fill:#f2e5cc;stroke:#4c4c4c;stroke-width:2" d="M437,229 l0,-64 4,-18 10,-16 14,-14 16,-8 18,-6 20,0 18,6 18,8 12,14 10,16 4,18 0,62 -144,2z" /><path style="fill:#7f7259" d="M103,395 l854,0 0,396 -854,0 0,-396z" /><path style="fill:#f2e5cc;stroke:#4c4c4c;stroke-width:2" d="M373,415 l272,0 0,84 -272,0 0,-84z" /><path style="fill:#b2a58c;stroke:#4c4c4c;stroke-width:2" d="M979,373 l20,0 0,84 -20,0 0,-84z" /><path style="fill:#f2e5cc;stroke:#4c4c4c;stroke-width:2" d="M269,331 l84,0 0,168 -84,0 0,-168z" /><path style="fill:#f2e5cc;stroke:#4c4c4c;stroke-width:2" d="M83,791 l896,0 0,40 -896,0 0,-40z" /><path style="fill:#f2e5cc;stroke:#4c4c4c;stroke-width:2" d="M61,831 l938,0 0,21 -938,0 0,-21z" /><path style="fill:#f2e5cc" d="M687,561 l270,0 0,230 -270,0 0,-230z" /><path style="fill:#f2e5cc" d="M373,561 l292,0 0,230 -292,0 0,-230z" /><path style="fill:#f2e5cc" d="M103,561 l250,0 0,230 -250,0 0,-230z" /><path style="fill:#f2e5cc;stroke:#4c4c4c;stroke-width:2" d="M791,207 l104,0 0,84 -104,0 0,-84z" /><path style="fill:#ccbfa6;stroke:#4c4c4c;stroke-width:2" d="M707,291 l272,0 0,208 -272,0 0,-208z" /><path style="fill:#f2e5cc;stroke:#4c4c4c;stroke-width:2" d="M0,81 l291,0 0,418 -291,0 0,-418z" /><circle style="fill:#f2e5cc;stroke:#4c4c4c;stroke-width:2" cx="509" cy="175" r="52" /><path style="fill:#998c73" d="M103,61 l208,0 0,126 -208,0 0,-126z" /><path style="fill:#b0a38a" d="M103,75 l208,0 0,98 -208,0 0,-98z" /><path style="fill:#c4b79e" d="M103,89 l208,0 0,70 -208,0 0,-70z" /><path style="fill:#dbceb5" d="M103,101 l208,0 0,46 -208,0 0,-46z" /><path style="fill:#f2e5cc" d="M103,115 l208,0 0,19 -208,0 0,-19z" /><path style="fill:#f2e5cc" d="M269,61 l42,0 0,126 -42,0 0,-126z" /><path style="fill:none;stroke:#4c4c4c;stroke-width:2" d="M103,61 l208,0 0,126 -208,0 0,-126" /><path style="fill:none;stroke:#4c4c4c;stroke-width:2" d="M273,187 l0,-126" /><path style="fill:#b2a58c" d="M0,415 l103,0 0,84 -103,0 0,-84z" /><path style="fill:#ccbfa6" d="M0,415 l103,0 0,-62 -103,0 0,62z" /><path style="fill:#e5d8bf" d="M0,165 l103,0 0,188 -103,0 0,-188z" /><path style="fill:none;stroke:#4c4c4c;stroke-width:2" d="M0,81 l103,0 0,418 -103,0 0,-418" /><path style="fill:#7f7259" d="M103,187 l166,0 0,250 -166,0 0,-250z" /><path style="fill:#ccbfa6;stroke:#4c4c4c;stroke-width:2" d="M165,207 l104,0 0,62 -104,0 0,-62z" /><path style="fill:#ccbfa6;stroke:#4c4c4c;stroke-width:2" d="M123,269 l106,0 0,126 -126,0 0,-22 20,0 0,-104z" /><path style="fill:#ccbfa6;stroke:#4c4c4c;stroke-width:2" d="M103,395 l208,0 0,62 -208,0 0,-62z" /><path style="fill:#f60" d="M123,405 l168,0 0,22 -168,0 0,-22z" /><path style="fill:#7f7259;stroke:#4c4c4c;stroke-width:2" d="M415,477 l0,-124 -42,-42 0,-84 272,0 0,84 -42,42 0,124 -188,0z" /><path style="fill:#ccbfa6;stroke:#4c4c4c;stroke-width:2" d="M479,269 l82,0 0,230 -82,0 0,-230z" /><path style="fill:#f2e5cc;stroke:#4c4c4c;stroke-width:2" d="M353,227 l312,0 0,12 -312,0 0,-12z" /><path style="fill:none;stroke:#fff;stroke-width:2" d="M499,759 l0,-166 156,0" /><path style="fill:none;stroke:#bfb299;stroke-width:2" d="M499,759 l156,0 0,-166" /><path style="fill:#ccbfa6" d="M373,769 l292,0 0,22 -292,0 0,-22z" /><path style="fill:#ccbfa6" d="M687,769 l270,0 0,22 -270,0 0,-22z" /><path style="fill:#ccbfa6" d="M103,769 l250,0 0,22 -250,0 0,-22z" /><path style="fill:#998c73;stroke:#4c4c4c;stroke-width:2" d="M457,269 l-20,0 0,230 20,0 0,-230z" /><path style="fill:#f2e5cc;stroke:#4c4c4c;stroke-width:2" d="M405,259 l198,0 0,72 -198,0 0,-72z" /><path style="fill:#ccbfa6" d="M373,561 l292,0 0,20 -292,0 0,-20z" /><path style="fill:#ccbfa6" d="M687,561 l270,0 0,20 -270,0 0,-20z" /><path style="fill:#ccbfa6" d="M103,561 l250,0 0,20 -250,0 0,-20z" /><path style="fill:#f2e5cc" d="M19,499 l960,0 0,62 -960,0 0,-62z" /><path style="fill:none;stroke:#4c4c4c;stroke-width:2" d="M687,561 l270,0 0,230 -270,0 0,-230" /><path style="fill:none;stroke:#4c4c4c;stroke-width:2" d="M373,561 l292,0 0,230 -292,0 0,-230" /><path style="fill:none;stroke:#4c4c4c;stroke-width:2" d="M103,561 l250,0 0,230 -250,0 0,-230" /><path style="fill:#7f7259" d="M301,765 l32,0 0,14 -32,0 0,-14z" /><path style="fill:#7f7259" d="M707,765 l32,0 0,14 -32,0 0,-14z" /><path style="fill:#f2e5cc;stroke:#4c4c4c;stroke-width:2" d="M759,385 l126,0 0,114 -126,0 0,-114z" /><circle style="fill:#f2e5cc;stroke:#4c4c4c;stroke-width:2" cx="728" cy="436" r="41" /><path style="fill:#f60" d="M781,405 l52,0 0,10 -52,0 0,-10z" /><circle style="fill:#7f7259" cx="728" cy="436" r="21" /><path style="fill:#b2a58c" d="M489,155 l42,0 0,42 -42,0 0,-42z" /><path style="fill:#e5d8bf" d="M19,499 l314,0 0,62 -314,0 0,-62z" /><path style="fill:#d9ccb3" d="M729,499 l250,0 0,62 -250,0 0,-62z" /><path style="fill:none;stroke:#4c4c4c;stroke-width:2" d="M19,499 l960,0 0,62 -960,0 0,-62" /><circle style="fill:#b2a58c;stroke:#4c4c4c;stroke-width:2" cx="947" cy="321" r="52" /><path style="fill:none;stroke:#fff;stroke-width:2" d="M791,311 l0,62 -62,0" /><path style="fill:none;stroke:#bfb299;stroke-width:2" d="M791,311 l-62,0 0,62" /></svg>