<!DOCTYPE svg PUBLIC "-//W3C//DTD SVG 20000303 Stylable//EN" "http://www.w3.org/TR/2000/03/WD-SVG-20000303/DTD/svg-20000303-stylable.dtd"[]><svg xmlns="http://www.w3.org/2000/svg" width="999px" height="880px" viewBox="0 0 999 873"><path style="fill:#366" d="M19,658 l-19,-18 0,-58 19,-20 116,0 0,96 -116,0z" /><path style="fill:#194c4c;stroke:#4c4c4c;stroke-width:2" d="M214,747 l-155,-59 0,-30 155,0 0,89z" /><path style="fill:#699" d="M135,650 l0,-78 79,0 0,78 -79,0z" /><path style="fill:#9cc" d="M135,572 l0,-38 79,0 0,38 -79,0z" /><path style="fill:#b2e5e5" d="M135,552 l0,-10 79,0 0,10 -79,0z" /><path style="fill:none;stroke:#4c4c4c;stroke-width:2" d="M135,650 l0,-116 79,0 0,116 -79,0" /><path style="fill:#457878" d="M19,652 l-18,-18 0,-48 18,-16 116,0 0,82 -116,0z" /><path style="fill:#548787" d="M19,644 l-18,-14 0,-40 18,-14 116,0 0,68 -116,0z" /><path style="fill:#699" d="M19,636 l-18,-10 0,-32 18,-10 116,0 0,52 -116,0z" /><path style="fill:#78abab" d="M19,630 l-18,-8 0,-24 18,-8 116,0 0,40 -116,0z" /><path style="fill:#87baba" d="M19,622 l-18,-4 0,-16 18,-4 116,0 0,24 -116,0z" /><path style="fill:#9cc" d="M19,614 l-19,0 0,-6 19,-2 116,0 0,8 -116,0z" /><path style="fill:none;stroke:#4c4c4c;stroke-width:2" d="M19,658 l-19,-18 0,-58 19,-20 116,0 0,96 -116,0" /><path style="fill:none;stroke:#4c4c4c;stroke-width:2" d="M39,592 l96,0" /><path style="fill:none;stroke:#4c4c4c;stroke-width:2" d="M39,658 l0,-96" /><path style="fill:#699;stroke:#4c4c4c;stroke-width:2" d="M214,688 l0,-116 -39,58 -116,58 155,0z" /><path style="fill:#033" d="M892,416 l-10,436 78,0 -4,-436 -64,0z" /><path style="fill:#033" d="M220,416 l-6,436 78,0 -10,-436 -62,0z" /><path style="fill:#033" d="M194,852 l116,0 0,6 -116,0 0,-6z" /><path style="fill:#033" d="M864,852 l116,0 0,6 -116,0 0,-6z" /><path style="fill:#699" d="M223,194 l0,48 -13,0 0,98 13,0 0,48 15,0 0,-48 48,0 0,208 40,0 0,-208 14,0 0,198 34,0 0,14 474,0 40,-18 0,-194 48,0 0,48 14,0 0,-48 17,0 0,-98 -17,0 0,-48 -14,0 0,48 -37,0 -11,0 0,-194 -40,-19 -474,0 0,15 -34,0 0,198 -14,0 0,-204 -40,0 0,204 -48,0 0,-48 -15,0z" /><path style="fill:#9cc" d="M892,416 l7,447 75,0 -18,-447 -64,0z" /><path style="fill:#9cc" d="M220,416 l-21,447 79,0 4,-447 -62,0z" /><path style="fill:#6b9e9e" d="M223,200 l0,44 -13,0 0,92 13,0 0,46 15,0 0,-46 48,0 0,196 40,0 0,-196 14,0 0,188 34,0 0,12 477,0 37,-18 0,-182 48,0 0,46 14,0 0,-46 17,0 0,-92 -17,0 0,-44 -14,0 0,44 -37,0 -11,0 0,-182 -37,-18 -477,0 0,14 -34,0 0,186 -14,0 0,-191 -40,0 0,191 -48,0 0,-44 -15,0z" /><path style="fill:#73a6a6" d="M223,204 l0,44 -13,0 0,86 13,0 0,42 15,0 0,-42 48,0 0,184 40,0 0,-184 14,0 0,176 34,0 0,12 477,0 37,-18 0,-170 48,0 0,42 14,0 0,-42 17,0 0,-86 -17,0 0,-44 -14,0 0,44 -37,0 -11,0 0,-173 -37,-15 -477,0 0,12 -34,0 0,176 -14,0 0,-180 -40,0 0,180 -48,0 0,-44 -15,0z" /><path style="fill:#78abab" d="M223,210 l0,40 -13,0 0,80 13,0 0,40 15,0 0,-40 48,0 0,172 40,0 0,-172 14,0 0,164 34,0 0,12 477,0 37,-16 0,-160 48,0 0,40 14,0 0,-40 17,0 0,-80 -17,0 0,-40 -14,0 0,40 -37,0 -11,0 0,-160 -37,-16 -477,0 0,12 -34,0 0,164 -14,0 0,-168 -40,0 0,168 -48,0 0,-40 -15,0z" /><path style="fill:#7fb2b2" d="M223,216 l0,38 -13,0 0,74 13,0 0,36 15,0 0,-36 48,0 0,160 40,0 0,-160 14,0 0,152 34,0 0,12 477,0 37,-16 0,-148 48,0 0,36 14,0 0,-36 17,0 0,-74 -17,0 0,-38 -14,0 0,38 -37,0 -11,0 0,-150 -37,-14 -477,0 0,9 -34,0 0,155 -14,0 0,-158 -40,0 0,158 -48,0 0,-38 -15,0z" /><path style="fill:#85b8b8" d="M223,222 l0,34 -13,0 0,68 13,0 0,36 15,0 0,-36 48,0 0,148 40,0 0,-148 14,0 0,142 34,0 0,10 477,0 37,-14 0,-138 48,0 0,36 14,0 0,-36 17,0 0,-68 -17,0 0,-34 -14,0 0,34 -37,0 -11,0 0,-138 -37,-14 -477,0 0,10 -34,0 0,142 -14,0 0,-144 -40,0 0,144 -48,0 0,-34 -15,0z" /><path style="fill:#8cbfbf" d="M223,226 l0,32 -13,0 0,64 13,0 0,32 15,0 0,-32 48,0 0,136 40,0 0,-136 14,0 0,130 34,0 0,10 477,0 37,-14 0,-126 48,0 0,32 14,0 0,-32 17,0 0,-64 -17,0 0,-32 -14,0 0,32 -37,0 -11,0 0,-126 -37,-12 -477,0 0,10 -34,0 0,128 -14,0 0,-133 -40,0 0,133 -48,0 0,-32 -15,0z" /><path style="fill:#91c4c4" d="M223,232 l0,30 -13,0 0,58 13,0 0,28 15,0 0,-28 48,0 0,124 40,0 0,-124 14,0 0,118 34,0 0,8 477,0 37,-12 0,-114 48,0 0,28 14,0 0,-28 17,0 0,-58 -17,0 0,-30 -14,0 0,30 -37,0 -11,0 0,-116 -37,-12 -477,0 0,10 -34,0 0,118 -14,0 0,-122 -40,0 0,122 -48,0 0,-30 -15,0z" /><path style="fill:#9cc" d="M223,238 l0,26 -13,0 0,52 13,0 0,26 15,0 0,-26 48,0 0,112 40,0 0,-112 14,0 0,108 34,0 0,8 477,0 37,-12 0,-104 48,0 0,26 14,0 0,-26 17,0 0,-52 -17,0 0,-26 -14,0 0,26 -37,0 -11,0 0,-104 -37,-10 -477,0 0,8 -34,0 0,106 -14,0 0,-108 -40,0 0,108 -48,0 0,-26 -15,0z" /><path style="fill:#9ed1d1" d="M223,244 l0,22 -13,0 0,48 13,0 0,22 15,0 0,-22 48,0 0,100 40,0 0,-100 14,0 0,96 34,0 0,6 477,0 37,-10 0,-92 48,0 0,22 14,0 0,-22 17,0 0,-48 -17,0 0,-22 -14,0 0,22 -37,0 -11,0 0,-92 -37,-10 -477,0 0,8 -34,0 0,94 -14,0 0,-96 -40,0 0,96 -48,0 0,-22 -15,0z" /><path style="fill:#a6d9d9" d="M223,250 l0,20 -13,0 0,40 13,0 0,22 15,0 0,-22 48,0 0,88 40,0 0,-88 14,0 0,84 34,0 0,6 477,0 37,-8 0,-82 48,0 0,22 14,0 0,-22 17,0 0,-40 -17,0 0,-20 -14,0 0,20 -37,0 -11,0 0,-82 -37,-8 -477,0 0,6 -34,0 0,84 -14,0 0,-86 -40,0 0,86 -48,0 0,-20 -15,0z" /><path style="fill:#abdede" d="M223,256 l0,16 -13,0 0,36 13,0 0,18 15,0 0,-18 48,0 0,76 40,0 0,-76 14,0 0,72 34,0 0,6 477,0 37,-8 0,-70 48,0 0,18 14,0 0,-18 17,0 0,-36 -17,0 0,-16 -14,0 0,16 -37,0 -11,0 0,-70 -37,-6 -477,0 0,4 -34,0 0,72 -14,0 0,-74 -40,0 0,74 -48,0 0,-16 -15,0z" /><path style="fill:#b2e5e5" d="M223,260 l0,16 -13,0 0,30 13,0 0,14 15,0 0,-14 48,0 0,64 40,0 0,-64 14,0 0,60 34,0 0,4 477,0 37,-6 0,-58 48,0 0,14 14,0 0,-14 17,0 0,-30 -17,0 0,-16 -14,0 0,16 -37,0 -11,0 0,-60 -37,-6 -477,0 0,4 -34,0 0,62 -14,0 0,-62 -40,0 0,62 -48,0 0,-16 -15,0z" /><path style="fill:#b8ebeb" d="M223,266 l0,12 -13,0 0,24 13,0 0,12 15,0 0,-12 48,0 0,52 40,0 0,-52 14,0 0,50 34,0 0,4 477,0 37,-6 0,-48 48,0 0,12 14,0 0,-12 17,0 0,-24 -17,0 0,-12 -14,0 0,12 -37,0 -11,0 0,-48 -37,-4 -477,0 0,4 -34,0 0,48 -14,0 0,-50 -40,0 0,50 -48,0 0,-12 -15,0z" /><path style="fill:#bff2f2" d="M223,272 l0,8 -13,0 0,20 13,0 0,8 15,0 0,-8 48,0 0,40 40,0 0,-40 14,0 0,38 34,0 0,2 477,0 37,-4 0,-36 48,0 0,8 14,0 0,-8 17,0 0,-20 -17,0 0,-8 -14,0 0,8 -37,0 -11,0 0,-36 -37,-4 -477,0 0,4 -34,0 0,36 -14,0 0,-38 -40,0 0,38 -48,0 0,-8 -15,0z" /><ellipse style="fill:#c4f7f7" cx="588" cy="290" rx="378" ry="34" /><ellipse style="fill:#cff" cx="588" cy="291" rx="378" ry="19" /><path style="fill:none;stroke:#4c4c4c;stroke-width:2" d="M888,242 l0,98" /><path style="fill:none;stroke:#4c4c4c;stroke-width:2" d="M950,340 l0,-98" /><path style="fill:none;stroke:#4c4c4c;stroke-width:2" d="M223,242 l0,98" /><path style="fill:none;stroke:#4c4c4c;stroke-width:2" d="M286,242 l0,98" /><path style="fill:none;stroke:#4c4c4c;stroke-width:2" d="M326,242 l0,98" /><path style="fill:none;stroke:#4c4c4c;stroke-width:2" d="M340,242 l0,98" /><path style="fill:#91c4c4" d="M894,662 l5,201 75,0 -12,-303 -68,102z" /><path style="fill:#91c4c4" d="M208,662 l-9,201 79,0 2,-303 -72,102z" /><path style="fill:none;stroke:#4c4c4c;stroke-width:2" d="M220,416 l-21,447 79,0 4,-447 -62,0" /><path style="fill:none;stroke:#4c4c4c;stroke-width:2" d="M892,416 l7,447 75,0 -18,-447 -64,0" /><path style="fill:none;stroke:#366;stroke-width:2" d="M848,552 l0,-523" /><path style="fill:none;stroke:#366;stroke-width:2" d="M374,538 l0,-494" /><path style="fill:none;stroke:#cff;stroke-width:2" d="M220,727 l7,-175 41,0" /><path style="fill:none;stroke:#366;stroke-width:2" d="M268,552 l-6,175 -42,0" /><path style="fill:#699;stroke:#4c4c4c;stroke-width:2" d="M330,272 l-44,0 0,8 44,0 0,-8z" /><path style="fill:#699;stroke:#4c4c4c;stroke-width:2" d="M330,300 l-44,0 0,10 44,0 0,-10z" /><path style="fill:#407373;stroke:#4c4c4c;stroke-width:2" d="M330,388 l-44,0 0,8 44,0 0,-8z" /><path style="fill:#407373;stroke:#4c4c4c;stroke-width:2" d="M330,186 l-44,0 0,10 44,0 0,-10z" /><path style="fill:#194c4c;stroke:#4c4c4c;stroke-width:2" d="M330,474 l-44,0 0,10 44,0 0,-10z" /><path style="fill:#194c4c;stroke:#4c4c4c;stroke-width:2" d="M330,99 l-44,0 0,11 44,0 0,-11z" /><path style="fill:#033;stroke:#4c4c4c;stroke-width:2" d="M330,534 l-44,0 0,8 44,0 0,-8z" /><path style="fill:#033;stroke:#4c4c4c;stroke-width:2" d="M330,44 l-44,0 0,9 44,0 0,-9z" /><path style="fill:#4c7f7f;stroke:#4c4c4c;stroke-width:2" d="M330,214 l-44,0 0,10 44,0 0,-10z" /><path style="fill:#4c7f7f;stroke:#4c4c4c;stroke-width:2" d="M330,358 l-44,0 0,10 44,0 0,-10z" /><path style="fill:#366;stroke:#4c4c4c;stroke-width:2" d="M330,158 l-44,0 0,8 44,0 0,-8z" /><path style="fill:#366;stroke:#4c4c4c;stroke-width:2" d="M330,416 l-44,0 0,10 44,0 0,-10z" /><path style="fill:#265959;stroke:#4c4c4c;stroke-width:2" d="M330,128 l-44,0 0,10 44,0 0,-10z" /><path style="fill:#265959;stroke:#4c4c4c;stroke-width:2" d="M330,446 l-44,0 0,10 44,0 0,-10z" /><path style="fill:#0d4040;stroke:#4c4c4c;stroke-width:2" d="M330,72 l-44,0 0,10 44,0 0,-10z" /><path style="fill:#0d4040;stroke:#4c4c4c;stroke-width:2" d="M330,504 l-44,0 0,10 44,0 0,-10z" /><path style="fill:#699;stroke:#4c4c4c;stroke-width:2" d="M175,863 l127,0 0,10 -127,0 0,-10z" /><path style="fill:#699;stroke:#4c4c4c;stroke-width:2" d="M875,863 l124,0 0,10 -124,0 0,-10z" /><path style="fill:#598c8c" d="M684,29 l0,39 -154,0 0,-39 154,0z" /><path style="fill:none;stroke:#4c4c4c;stroke-width:2" d="M223,194 l0,48 -13,0 0,98 13,0 0,48 15,0 0,-48 48,0 0,208 40,0 0,-208 14,0 0,198 34,0 0,14 474,0 40,-18 0,-194 48,0 0,48 14,0 0,-48 17,0 0,-98 -17,0 0,-48 -14,0 0,48 -37,0 -11,0 0,-194 -40,-19 -474,0 0,15 -34,0 0,198 -14,0 0,-204 -40,0 0,204 -48,0 0,-48 -15,0" /><path style="fill:#699;stroke:#4c4c4c;stroke-width:2" d="M912,184 l24,0 0,214 20,0 0,20 -64,-2 0,-18 20,0 0,-214z" /><path style="fill:#699;stroke:#4c4c4c;stroke-width:2" d="M238,184 l24,0 0,214 20,0 0,18 -64,0 2,-18 18,0 0,-214z" /><path style="fill:#598c8c;stroke:#4c4c4c;stroke-width:2" d="M330,330 l-44,0 0,8 44,0 0,-8z" /><path style="fill:#598c8c;stroke:#4c4c4c;stroke-width:2" d="M330,242 l-44,0 0,10 44,0 0,-10z" /><path style="fill:#9cc;stroke:#4c4c4c;stroke-width:2" d="M520,14 l10,0 0,15 -10,0 0,-15z" /><path style="fill:#9cc;stroke:#4c4c4c;stroke-width:2" d="M684,14 l10,0 0,15 -10,0 0,-15z" /><path style="fill:#9cc;stroke:#4c4c4c;stroke-width:2" d="M530,14 l76,-14 78,14 0,15 -154,0 0,-15z" /><path style="fill:#699" d="M534,20 l72,-17 74,17 0,4 -146,0 0,-4z" /></svg>