<!DOCTYPE svg PUBLIC "-//W3C//DTD SVG 20000303 Stylable//EN" "http://www.w3.org/TR/2000/03/WD-SVG-20000303/DTD/svg-20000303-stylable.dtd"[]><svg xmlns="http://www.w3.org/2000/svg" width="842px" height="999px" viewBox="0 0 833 999"><path style="fill:#7f4c00;stroke:#4c4c4c;stroke-width:2" d="M63,437 l770,0 -42,42 -124,0 0,504 -604,0 0,-504 0,-42z" /><path style="fill:#c93" d="M83,979 l-20,-334 -22,0 0,-166 292,0 0,62 20,20 146,0 0,-82 188,0 0,82 -84,0 0,84 42,0 0,334 -562,0z" /><path style="fill:#c7942e" d="M83,979 l-5,-82 567,-194 0,276 -562,0z" /><path style="fill:#c28f29" d="M83,979 l-4,-62 566,-200 0,262 -562,0z" /><path style="fill:none;stroke:#4c4c4c;stroke-width:2" d="M83,979 l-20,-334 -22,0 0,-166 292,0 0,62 20,20 146,0 0,-82 188,0 0,82 -84,0 0,84 42,0 0,334 -562,0" /><path style="fill:#4c1900" d="M437,0 l104,0 0,41 -104,0 0,-41z" /><path style="fill:#4c1900" d="M22,769 l0,-104 41,0 0,104 -41,0z" /><path style="fill:#630" d="M445,0 l90,0 0,41 -90,0 0,-41z" /><path style="fill:#630" d="M22,763 l0,-92 41,0 0,92 -41,0z" /><path style="fill:#7f4c00" d="M451,0 l76,0 0,41 -76,0 0,-41z" /><path style="fill:#7f4c00" d="M22,755 l0,-76 41,0 0,76 -41,0z" /><path style="fill:#960" d="M457,0 l64,0 0,41 -64,0 0,-41z" /><path style="fill:#960" d="M22,749 l0,-64 41,0 0,64 -41,0z" /><path style="fill:#b27f19" d="M465,0 l50,0 0,41 -50,0 0,-41z" /><path style="fill:#b27f19" d="M22,741 l0,-50 41,0 0,50 -41,0z" /><path style="fill:#c93" d="M471,0 l36,0 0,41 -36,0 0,-41z" /><path style="fill:#c93" d="M22,735 l0,-36 41,0 0,36 -41,0z" /><path style="fill:#e5b24c" d="M477,0 l24,0 0,41 -24,0 0,-41z" /><path style="fill:#e5b24c" d="M22,729 l0,-24 41,0 0,24 -41,0z" /><path style="fill:#fc6" d="M485,0 l10,0 0,41 -10,0 0,-41z" /><path style="fill:#fc6" d="M22,723 l0,-10 41,0 0,10 -41,0z" /><path style="fill:#7f4c00;stroke:#4c4c4c;stroke-width:2" d="M83,41 l480,0 0,354 -480,0 0,-354z" /><path style="fill:#b27f19;stroke:#4c4c4c;stroke-width:2" d="M249,22 l168,0 0,373 -168,0 0,-373z" /><path style="fill:#4c1900" d="M271,31 l124,0 0,20 -124,0 0,-20z" /><path style="fill:#b27f19" d="M561,62 l188,0 0,229 42,0 0,104 -228,0 -2,-104 0,-229z" /><path style="fill:#fc6" d="M563,62 l166,0 0,229 -166,0 0,-229z" /><path style="fill:#b27f19" d="M103,62 l126,0 0,333 -126,0 0,-333z" /><path style="fill:#c93;stroke:#4c4c4c;stroke-width:2" d="M0,395 l833,0 0,42 -833,0 0,-42z" /><path style="fill:#c93;stroke:#4c4c4c;stroke-width:2" d="M603,557 l-10,-88 6,-64 82,0 6,64 -10,88 -74,0z" /><path style="fill:#b27f19" d="M599,469 l10,82 62,0 10,-82 -82,0z" /><path style="fill:#e5b24c" d="M599,469 l4,-58 74,0 4,58 -82,0z" /><path style="fill:#e5b24c;stroke:#4c4c4c;stroke-width:2" d="M609,629 l0,-72 62,0 0,72 -62,0z" /><path style="fill:#960" d="M615,429 l-6,-4 0,-6 6,-4 8,0 6,4 0,6 -6,4 -8,0z" /><path style="fill:#960" d="M615,443 l-6,-4 0,-6 6,-4 8,0 6,4 0,6 -6,4 -8,0z" /><path style="fill:#960" d="M615,457 l-6,-4 0,-4 6,-4 8,0 6,4 0,4 -6,4 -8,0z" /><path style="fill:#960" d="M657,457 l-6,-4 0,-6 6,-2 8,0 6,2 0,6 -6,4 -8,0z" /><path style="fill:#960" d="M657,443 l-6,-4 0,-6 6,-4 8,0 6,4 0,6 -6,4 -8,0z" /><path style="fill:#960" d="M657,429 l-6,-4 0,-6 6,-4 8,0 6,4 0,6 -6,4 -8,0z" /><path style="fill:#000" d="M639,449 l-4,-2 0,-4 4,-2 4,0 2,2 0,4 -2,2 -4,0z" /><path style="fill:#e5b24c" d="M89,535 l166,0 0,84 -166,0 0,-84z" /><path style="fill:none;stroke:#960;stroke-width:2" d="M89,619 l166,0 0,-84" /><path style="fill:none;stroke:#fc6;stroke-width:2" d="M255,535 l-166,0 0,84" /><circle style="fill:#fc6" cx="645" cy="187" r="42" /><path style="fill:#fff" d="M645,187 l-42,-8 8,-16 12,-12 22,36 42,8 -6,16 -12,12 -24,-36z" /><path style="fill:#c93" d="M645,187 l-40,8 -2,-16 42,8 42,-8 0,16 -42,-8z" /><circle style="fill:none;stroke:#4c4c4c;stroke-width:2" cx="645" cy="187" r="42" /><circle style="fill:#000" cx="646" cy="187" r="21" /><path style="fill:none;stroke:#4c4c4c;stroke-width:2" d="M437,0 l104,0 0,41 -104,0 0,-41" /><path style="fill:none;stroke:#4c4c4c;stroke-width:2" d="M22,769 l0,-104 41,0 0,104 -41,0" /><path style="fill:#fc6" d="M67,389 l704,0 0,6 -704,0 0,-6z" /><path style="fill:#c93;stroke:#4c4c4c;stroke-width:2" d="M353,645 l22,-583 188,0 20,583 -20,20 -188,0 -22,-20z" /><path style="fill:#b27f19;stroke:#4c4c4c;stroke-width:2" d="M389,645 l-10,-10 0,-12 10,-10 12,0 10,10 0,12 -10,10 -12,0z" /><path style="fill:#b27f19;stroke:#4c4c4c;stroke-width:2" d="M535,645 l-10,-10 0,-12 10,-10 12,0 10,10 0,12 -10,10 -12,0z" /><path style="fill:#960" d="M501,333 l-2,0 -4,-4 0,-202 4,-2 2,0 4,2 0,202 -4,4z" /><path style="fill:#960" d="M439,333 l-4,0 -2,-4 0,-202 2,-2 4,0 4,2 0,202 -4,4z" /><ellipse style="fill:#960" cx="468" cy="249" rx="11" ry="104" /><path style="fill:#c93;stroke:#4c4c4c;stroke-width:2" d="M51,983 l668,0 0,16 -668,0 0,-16z" /></svg>