<!DOCTYPE svg PUBLIC "-//W3C//DTD SVG 20000303 Stylable//EN" "http://www.w3.org/TR/2000/03/WD-SVG-20000303/DTD/svg-20000303-stylable.dtd"[]><svg xmlns="http://www.w3.org/2000/svg" width="999px" height="793px" viewBox="0 0 999 781"><path style="fill:#9cc" d="M107,477 l784,0 0,260 -784,0 0,-260z" /><path style="fill:#94c7c7" d="M107,661 l392,-108 0,184 -392,0 0,-76z" /><path style="fill:#94c7c7" d="M499,661 l392,-108 0,184 -392,0 0,-76z" /><path style="fill:#8fc2c2" d="M499,673 l392,-110 0,174 -392,0 0,-64z" /><path style="fill:#8fc2c2" d="M107,673 l392,-110 0,174 -392,0 0,-64z" /><path style="fill:#8abdbd" d="M107,689 l392,-110 0,158 -392,0 0,-48z" /><path style="fill:#8abdbd" d="M499,689 l392,-110 0,158 -392,0 0,-48z" /><path style="fill:#366;stroke:#4c4c4c;stroke-width:2" d="M489,107 l10,-22 6,0 42,-70 22,10 -42,72 0,4 -12,22 -26,-16z" /><path style="fill:#366;stroke:#4c4c4c;stroke-width:2" d="M119,259 l152,0 0,-174 22,-54 -22,-12 -12,22 -42,0 0,22 -22,12 -110,-75 -10,9 44,54 -12,12 -22,-22 -10,10 22,22 0,12 32,42 -10,12 0,108z" /><path style="fill:#699" d="M173,167 l92,-92 12,-44 -12,16 -32,0 0,22 -38,22 -110,-82 88,88 -22,22 -66,-56 56,66 32,38z" /><path style="fill:#699" d="M499,101 l6,-10 4,-6 44,-66 6,6 -38,66 0,10 -6,12 -16,-12z" /><path style="fill:#4c4c4c;stroke:#4c4c4c;stroke-width:2" d="M929,373 l6,38 -12,12 -10,-12 4,-38 12,0z" /><path style="fill:#033" d="M195,259 l64,-174 392,22 44,152 0,152 -500,0 0,-152z" /><path style="fill:#366" d="M793,123 l10,0 0,244 -10,0 0,-244z" /><path style="fill:#366" d="M835,119 l0,10 -222,0 0,-10 222,0z" /><path style="fill:#366" d="M129,737 l740,0 0,44 -740,0 0,-44z" /><path style="fill:#9cc;stroke:#4c4c4c;stroke-width:2" d="M107,259 l88,0 0,152 804,0 0,66 -892,0 0,-218z" /><path style="fill:none;stroke:#4c4c4c;stroke-width:2" d="M107,477 l784,0 0,260 -784,0 0,-260" /><path style="fill:none;stroke:#366;stroke-width:2" d="M499,477 l0,260" /><path style="fill:#699" d="M0,715 l0,-412 8,-20 16,-16 20,-8 66,0 -3,456 -107,0z" /><path style="fill:#9cc" d="M6,715 l0,-408 7,-18 15,-16 17,-8 62,0 0,450 -101,0z" /><path style="fill:none;stroke:#4c4c4c;stroke-width:2" d="M0,715 l0,-412 8,-20 16,-16 20,-8 66,0 -3,456 -107,0" /><path style="fill:none;stroke:#cff;stroke-width:2" d="M6,307 l7,-18 15,-16 17,-8" /><path style="fill:#8fc2c2" d="M6,715 l0,-174 101,-42 0,216 -101,0z" /><path style="fill:#033" d="M129,737 l740,0 0,16 -740,0 0,-16z" /><path style="fill:none;stroke:#4c4c4c;stroke-width:2" d="M129,737 l740,0 0,44 -740,0 0,-44" /><path style="fill:#9cc;stroke:#4c4c4c;stroke-width:2" d="M205,389 l0,-130 -76,0 0,-50 18,-52 32,-44 44,-32 52,-18 158,0 0,66 -20,22 -22,44 0,130 -22,22 -110,42 -54,0z" /><path style="fill:none;stroke:#699;stroke-width:2" d="M781,471 l0,-54 129,0" /><path style="fill:none;stroke:#cff;stroke-width:2" d="M913,417 l0,54 -130,0" /><path style="fill:#9cc;stroke:#4c4c4c;stroke-width:2" d="M499,367 l-22,-42 104,0 6,-12 -44,-184 196,22 42,174 22,22 110,0 0,20 -414,0z" /><path style="fill:#9cc" d="M455,303 l0,-196 28,6 32,26 44,22 16,54 12,88 -132,0z" /><path style="fill:#699;stroke:#4c4c4c;stroke-width:2" d="M281,411 l110,-44 434,0 0,44 -544,0z" /><path style="fill:#cff" d="M587,325 l4,-12 180,0 6,12 -190,0z" /><path style="fill:#8fc2c2" d="M455,303 l0,-50 120,-38 12,88 -132,0z" /><path style="fill:none;stroke:#4c4c4c;stroke-width:2" d="M455,303 l0,-196 28,6 32,26 44,22 16,54 12,88 -132,0" /><path style="fill:#9cc;stroke:#4c4c4c;stroke-width:2" d="M445,411 l10,-32 0,-54 -42,0 0,54 10,32 22,0z" /><path style="fill:#366" d="M423,347 l10,-12 12,12 -12,10 -10,-10z" /><path style="fill:#366" d="M173,603 l-6,2 -30,-42 -4,-2 -4,-6 0,-6 4,-4 4,-4 6,0 6,4 2,4 0,6 22,48z" /><circle style="fill:#699" cx="197" cy="170" r="24" /><path style="fill:#366" d="M869,275 l0,12 -108,0 0,-12 108,0z" /><path style="fill:none;stroke:#cff;stroke-width:2" d="M761,281 l108,0" /><path style="fill:#366" d="M869,215 l44,0 0,132 -44,0 0,-132z" /><path style="fill:#598c8c" d="M869,229 l44,0 0,104 -44,0 0,-104z" /><path style="fill:#7fb2b2" d="M869,243 l44,0 0,76 -44,0 0,-76z" /><path style="fill:#a6d9d9" d="M869,255 l44,0 0,50 -44,0 0,-50z" /><path style="fill:#cff" d="M869,269 l44,0 0,22 -44,0 0,-22z" /><path style="fill:none;stroke:#4c4c4c;stroke-width:2" d="M869,215 l44,0 0,132 -44,0 0,-132" /><path style="fill:#7f7f7f" d="M910,189 l22,0 0,184 -22,0 0,-184z" /><path style="fill:#999" d="M913,207 l19,0 0,146 -19,0 0,-146z" /><path style="fill:#b2b2b2" d="M913,227 l19,0 0,108 -19,0 0,-108z" /><path style="fill:#ccc" d="M913,245 l19,0 0,70 -19,0 0,-70z" /><path style="fill:#e5e5e5" d="M910,265 l22,0 0,32 -22,0 0,-32z" /><path style="fill:none;stroke:#4c4c4c;stroke-width:2" d="M910,189 l22,0 0,184 -22,0 0,-184" /><path style="fill:#4c4c4c;stroke:#4c4c4c;stroke-width:2" d="M917,189 l-4,-38 10,-12 9,12 -3,38 -12,0z" /><path style="fill:#4c4c4c;stroke:#4c4c4c;stroke-width:2" d="M923,291 l-10,-10 10,-10 9,10 -9,10z" /></svg>