<!DOCTYPE svg PUBLIC "-//W3C//DTD SVG 20000303 Stylable//EN" "http://www.w3.org/TR/2000/03/WD-SVG-20000303/DTD/svg-20000303-stylable.dtd"[]><svg xmlns="http://www.w3.org/2000/svg" width="714px" height="998px" viewBox="0 0 697 999"><path style="fill:#669;stroke:#4c4c4c;stroke-width:2" d="M45,329 l492,0 8,-10 -508,0 0,302 8,-8 0,-284z" /><path style="fill:#333" d="M17,697 l-17,0 0,-76 545,0 0,-74 132,0 20,74 -20,76 -56,0 0,302 -604,0 0,-302z" /><path style="fill:#2e2e2e" d="M17,911 l604,-126 0,214 -604,0 0,-88z" /><path style="fill:#292929" d="M17,925 l604,-128 0,202 -604,0 0,-74z" /><path style="fill:#242424" d="M17,942 l604,-125 0,182 -604,0 0,-57z" /><path style="fill:#bfbfcc;stroke:#4c4c4c;stroke-width:2" d="M545,547 l0,-228 38,-56 58,284 -96,0z" /><path style="fill:#bfbfcc;stroke:#4c4c4c;stroke-width:2" d="M17,263 l-17,358 37,0 0,-302 -20,-56z" /><path style="fill:#e5e5f2;stroke:#4c4c4c;stroke-width:2" d="M37,319 l508,0 38,-56 -566,0 20,56z" /><path style="fill:#000;stroke:#4c4c4c;stroke-width:2" d="M537,613 l0,-58 8,-8 0,74 -8,-8z" /><path style="fill:#000;stroke:#4c4c4c;stroke-width:2" d="M37,621 l508,0 -8,-8 -492,0 -8,8z" /><path style="fill:#b2b2cc;stroke:#4c4c4c;stroke-width:2" d="M537,555 l0,-226 8,-10 0,228 -8,8z" /><path style="fill:#f2f2ff" d="M243,169 l0,170 96,0 0,-170 -96,0z" /><path style="fill:#f2f2ff;stroke:#4c4c4c;stroke-width:2" d="M253,0 l0,169 76,0 0,-169 -76,0z" /><path style="fill:#ededfa" d="M253,127 l76,-58 0,100 -76,0 0,-42z" /><path style="fill:#ededfa" d="M243,297 l96,-58 0,100 -96,0 0,-42z" /><path style="fill:#e8e8f5" d="M253,133 l76,-57 0,93 -76,0 0,-36z" /><path style="fill:#e8e8f5" d="M243,303 l96,-58 0,94 -96,0 0,-36z" /><path style="fill:#e3e3f0" d="M243,313 l96,-60 0,86 -96,0 0,-26z" /><path style="fill:#e3e3f0" d="M253,143 l76,-60 0,86 -76,0 0,-26z" /><path style="fill:#66c" d="M263,187 l0,58 56,0 0,-58 -56,0z" /><path style="fill:none;stroke:#4c4c4c;stroke-width:2" d="M243,169 l0,170 96,0 0,-170 -96,0" /><path style="fill:none;stroke:#4c4c4c;stroke-width:2" d="M17,697 l604,0" /><path style="fill:none;stroke:#4c4c4c;stroke-width:2" d="M17,697 l-17,0 0,-76 545,0 0,-74 132,0 20,74 -20,76 -56,0 0,302 -604,0 0,-302" /><path style="fill:#f60" d="M537,593 l8,0 0,20 -8,0 0,-20z" /></svg>