<!DOCTYPE svg PUBLIC "-//W3C//DTD SVG 20000303 Stylable//EN" "http://www.w3.org/TR/2000/03/WD-SVG-20000303/DTD/svg-20000303-stylable.dtd"[]><svg xmlns="http://www.w3.org/2000/svg" width="595px" height="999px" viewBox="0 0 571 999"><path style="fill:#333" d="M24,773 l-16,0 0,-96 467,0 0,-66 96,0 0,114 -8,48 -24,0 0,226 -515,0 0,-226z" /><path style="fill:#669;stroke:#4c4c4c;stroke-width:2" d="M47,435 l-7,0 0,242 7,-8 0,-234z" /><path style="fill:#2e2e2e" d="M24,925 l515,-108 0,182 -515,0 0,-74z" /><path style="fill:#292929" d="M24,934 l515,-107 0,172 -515,0 0,-65z" /><path style="fill:#242424" d="M24,951 l515,-108 0,156 -515,0 0,-48z" /><path style="fill:#000;stroke:#4c4c4c;stroke-width:2" d="M467,669 l0,-50 8,-8 0,66 -8,-8z" /><path style="fill:#000;stroke:#4c4c4c;stroke-width:2" d="M40,677 l435,0 -8,-8 -420,0 -7,8z" /><path style="fill:#b2b2cc;stroke:#4c4c4c;stroke-width:2" d="M467,619 l0,-184 8,0 0,176 -8,8z" /><path style="fill:#f60" d="M467,653 l8,0 0,16 -8,0 0,-16z" /><path style="fill:#bfbfcc;stroke:#4c4c4c;stroke-width:2" d="M475,611 l0,-290 48,0 8,290 -56,0z" /><path style="fill:#bfbfcc;stroke:#4c4c4c;stroke-width:2" d="M24,435 l-16,242 32,0 0,-242 -16,0z" /><path style="fill:#191919" d="M24,321 l483,0 0,114 -483,0 0,-114z" /><path style="fill:#e5e5f2;stroke:#4c4c4c;stroke-width:2" d="M555,611 l-16,-282 -16,-8 8,290 24,0z" /><path style="fill:#ccc" d="M201,0 l112,0 0,419 -112,0 0,-419z" /><path style="fill:#66c" d="M233,95 l48,0 0,50 -48,0 0,-50z" /><path style="fill:#999" d="M201,289 l112,0 0,64 -112,0 0,-64z" /><path style="fill:#f2f2f2" d="M201,289 l112,0 0,-64 -112,0 0,64z" /><path style="fill:none;stroke:#4c4c4c;stroke-width:2" d="M201,0 l112,0 0,419 -112,0 0,-419" /><path style="fill:#999" d="M0,725 l571,0 -8,48 -555,0 -8,-48z" /><path style="fill:#ccc" d="M571,725 l-96,0 0,-114 96,0 0,114z" /><path style="fill:#f2f2f2" d="M0,725 l483,0 -8,-48 -467,0 -8,48z" /><path style="fill:none;stroke:#4c4c4c;stroke-width:2" d="M24,773 l-16,0 -8,-48 8,-48 467,0 0,-66 96,0 0,114 -8,48 -24,0 0,226 -515,0 0,-226" /><path style="fill:none;stroke:#4c4c4c;stroke-width:2" d="M483,725 l-8,-48" /><path style="fill:none;stroke:#4c4c4c;stroke-width:2" d="M24,773 l515,0" /><path style="fill:#039" d="M329,677 l130,0 0,40 -130,0 0,-40z" /><path style="fill:#66c" d="M329,677 l130,0 0,24 -130,0 0,-24z" /></svg>