<!DOCTYPE svg PUBLIC "-//W3C//DTD SVG 20000303 Stylable//EN" "http://www.w3.org/TR/2000/03/WD-SVG-20000303/DTD/svg-20000303-stylable.dtd"[]><svg xmlns="http://www.w3.org/2000/svg" width="998px" height="646px" viewBox="0 0 999 625"><path style="fill:#666" d="M249,417 l416,0 0,42 -416,0 0,-42z" /><path style="fill:#999" d="M249,427 l416,0 0,20 -416,0 0,-20z" /><path style="fill:#999;stroke:#4c4c4c;stroke-width:2" d="M665,437 l334,0 0,22 -334,0 0,-22z" /><path style="fill:#f2ffcc;stroke:#4c4c4c;stroke-width:2" d="M0,0 l623,0 84,209 -84,208 -623,0 0,-417z" /><path style="fill:#f2ffcc" d="M665,459 l0,-42 22,-42 166,0 20,42 -20,42 -188,0z" /><path style="fill:#333;stroke:#4c4c4c;stroke-width:2" d="M0,63 l249,0 0,562 -249,0 0,-562z" /><path style="fill:#000" d="M249,459 l750,0 0,20 -84,0 -21,62 -21,0 0,84 -624,0 0,-166z" /><path style="fill:#f2ffcc;stroke:#4c4c4c;stroke-width:2" d="M623,499 l42,0 0,-20 177,0 0,-20 -9,0 0,10 -210,0 0,30z" /><path style="fill:none;stroke:#7f7f7f;stroke-width:2" d="M41,563 l0,-438 166,0" /><path style="fill:none;stroke:#4c4c4c;stroke-width:2" d="M41,563 l166,0 0,-438" /><path style="fill:none;stroke:#7f7f7f;stroke-width:2" d="M201,130 l0,427 -155,0" /><path style="fill:none;stroke:#4c4c4c;stroke-width:2" d="M201,130 l-155,0 0,427" /><path style="fill:#bf0000" d="M311,141 l58,0 0,46 -58,0 0,-46z" /><path style="fill:#b2b2b2" d="M323,159 l34,0 0,12 -34,0 0,-12z" /><path style="fill:#e5e5e5" d="M333,333 l66,0 0,42 -66,0 0,-42z" /><path style="fill:#bf2600" d="M821,375 l0,84 -20,0 0,-84 20,0z" /><path style="fill:#f60" d="M795,375 l0,84 -20,0 0,-84 20,0z" /><path style="fill:none;stroke:#4c4c4c;stroke-width:2" d="M665,459 l0,-42 22,-42 166,0 20,42 -20,42 -188,0" /><path style="fill:#4c4c4c;stroke:#4c4c4c;stroke-width:2" d="M645,495 l-10,-10 10,-12 10,12 -10,10z" /><path style="fill:none;stroke:#bfcc99;stroke-width:2" d="M619,11 l0,400" /><path style="fill:#bf2600" d="M415,291 l36,-82 256,0 -10,20 -234,0 -26,62 -22,0z" /><path style="fill:#f60" d="M445,291 l22,-56 228,0 -8,20 -208,0 -14,36 -20,0z" /><path style="fill:#7f3f00" d="M471,291 l12,-30 202,0 -12,30 -202,0z" /><path style="fill:none;stroke:#bfcc99;stroke-width:2" d="M525,291 l0,120" /></svg>