<!DOCTYPE svg PUBLIC "-//W3C//DTD SVG 20000303 Stylable//EN" "http://www.w3.org/TR/2000/03/WD-SVG-20000303/DTD/svg-20000303-stylable.dtd"[]><svg xmlns="http://www.w3.org/2000/svg" width="998px" height="919px" viewBox="0 0 998 915"><path style="fill:#665940;stroke:#4c4c4c;stroke-width:2" d="M311,289 l62,0 0,168 -62,0 0,-168z" /><path style="fill:#bfb299;stroke:#4c4c4c;stroke-width:2" d="M373,603 l376,0 0,-314 -376,0 0,314z" /><path style="fill:#f2e5cc;stroke:#665940;stroke-width:2" d="M375,457 l238,0 0,52 -238,0 0,-52z" /><path style="fill:#f2e5cc;stroke:#4c4c4c;stroke-width:2" d="M0,603 l998,0 0,62 -998,0 0,-62z" /><path style="fill:#e5d8bf;stroke:#4c4c4c;stroke-width:2" d="M229,665 l540,0 0,62 -104,22 -332,0 -104,-22 0,-62z" /><path style="fill:#665940" d="M623,685 l84,0 0,64 -84,0 0,-64z" /><path style="fill:#665940" d="M291,685 l82,0 0,64 -82,0 0,-64z" /><path style="fill:#998c73" d="M635,697 l62,0 0,40 -62,0 0,-40z" /><path style="fill:#998c73" d="M301,697 l62,0 0,40 -62,0 0,-40z" /><path style="fill:none;stroke:#d9ccb3;stroke-width:2" d="M623,685 l12,12" /><path style="fill:none;stroke:#d9ccb3;stroke-width:2" d="M291,685 l10,12" /><path style="fill:none;stroke:#d9ccb3;stroke-width:2" d="M301,737 l0,-40 62,0" /><path style="fill:none;stroke:#d9ccb3;stroke-width:2" d="M635,737 l0,-40 62,0" /><path style="fill:none;stroke:#4c4c4c;stroke-width:2" d="M697,697 l10,-12" /><path style="fill:none;stroke:#4c4c4c;stroke-width:2" d="M623,685 l84,0 0,64 -84,0 0,-64" /><path style="fill:none;stroke:#4c4c4c;stroke-width:2" d="M291,685 l82,0 0,64 -82,0 0,-64" /><path style="fill:none;stroke:#4c4c4c;stroke-width:2" d="M363,697 l10,-12" /><path style="fill:#f2e5cc" d="M229,457 l144,0 0,146 -144,0 0,-146z" /><path style="fill:#ede0c7" d="M229,561 l144,-62 0,104 -144,0 0,-42z" /><path style="fill:#e8dbc2" d="M229,567 l144,-62 0,98 -144,0 0,-36z" /><path style="fill:#e3d6bd" d="M229,575 l144,-60 0,88 -144,0 0,-28z" /><path style="fill:none;stroke:#4c4c4c;stroke-width:2" d="M229,457 l144,0 0,146 -144,0 0,-146" /><path style="fill:#d9ccb3;stroke:#4c4c4c;stroke-width:2" d="M123,311 l168,0 0,136 -168,0 0,-136z" /><path style="fill:#f2e5cc;stroke:#4c4c4c;stroke-width:2" d="M123,289 l198,0 0,22 -198,0 0,-22z" /><path style="fill:#d9ccb3;stroke:#4c4c4c;stroke-width:2" d="M321,227 l42,0 0,166 -42,0 0,-166z" /><path style="fill:#f2e5cc;stroke:#4c4c4c;stroke-width:2" d="M363,165 l52,0 0,250 -52,0 0,-250z" /><path style="fill:#d9ccb3;stroke:#4c4c4c;stroke-width:2" d="M437,0 l82,0 0,227 -82,0 0,-227z" /><path style="fill:#e5e5e5;stroke:#4c4c4c;stroke-width:2" d="M311,591 l376,0 0,12 -376,0 0,-12z" /><path style="fill:#4c4c4c" d="M125,321 l152,0 0,114 -152,0 0,-114z" /><path style="fill:#f2e5cc;stroke:#4c4c4c;stroke-width:2" d="M457,104 l104,0 0,123 -104,0 0,-123z" /><path style="fill:none;stroke:#fff;stroke-width:2" d="M477,197 l0,-64 64,0" /><path style="fill:none;stroke:#bfb299;stroke-width:2" d="M477,197 l64,0 0,-64" /><path style="fill:#bfb299;stroke:#4c4c4c;stroke-width:2" d="M675,227 l22,0 0,104 -22,0 0,-104z" /><path style="fill:#f2e5cc" d="M685,227 l4,0 0,104 -4,0 0,-104z" /><path style="fill:#333;stroke:#f2e5cc;stroke-width:2" d="M603,331 l166,0 0,188 -166,0 0,-188z" /><path style="fill:#665940" d="M625,353 l54,0 0,62 -54,0 0,-62z" /><path style="fill:#665940" d="M693,353 l56,0 0,30 -56,0 0,-30z" /><path style="fill:#bf0000" d="M625,487 l10,0 0,12 -10,0 0,-12z" /><path style="fill:#fc0" d="M655,487 l10,0 0,12 -10,0 0,-12z" /><path style="fill:#f2e5cc;stroke:#4c4c4c;stroke-width:2" d="M561,197 l136,0 0,30 -136,0 0,-30z" /><path style="fill:none;stroke:#bfb299;stroke-width:2" d="M0,643 l998,0" /><path style="fill:#f2e5cc;stroke:#4c4c4c;stroke-width:2" d="M333,749 l332,0 0,166 -332,0 0,-166z" /><path style="fill:#f2e5cc;stroke:#4c4c4c;stroke-width:2" d="M415,227 l168,0 0,272 -168,0 0,-272z" /><path style="fill:#ede0c7" d="M415,419 l168,-112 0,192 -168,0 0,-80z" /><path style="fill:#ede0c7" d="M333,867 l332,-70 0,118 -332,0 0,-48z" /><path style="fill:#e8dbc2" d="M333,873 l332,-70 0,112 -332,0 0,-42z" /><path style="fill:#e8dbc2" d="M415,431 l168,-114 0,182 -168,0 0,-68z" /><path style="fill:#e3d6bd" d="M333,883 l332,-68 0,100 -332,0 0,-32z" /><path style="fill:#e3d6bd" d="M415,447 l168,-112 0,164 -168,0 0,-52z" /><path style="fill:#bf2600" d="M269,431 l0,-58 -10,0 0,20 -4,0 0,-30 -12,0 0,16 -4,0 0,14 -6,0 0,-52 -10,0 0,32 -6,0 0,-16 -4,0 0,32 -12,0 0,36 -26,0 0,-42 -10,0 0,42 -30,0 0,-72 -6,0 0,78 140,0z" /><path style="fill:#bf2600" d="M457,249 l84,0 0,20 -84,0 0,-20z" /></svg>