<!DOCTYPE svg PUBLIC "-//W3C//DTD SVG 20000303 Stylable//EN" "http://www.w3.org/TR/2000/03/WD-SVG-20000303/DTD/svg-20000303-stylable.dtd"[]><svg xmlns="http://www.w3.org/2000/svg" width="999px" height="484px" viewBox="0 0 998 453"><path style="fill:#e5cb98;stroke:#4c4c4c;stroke-width:2" d="M523,213 l310,0 0,8 -310,0 0,-8z" /><path style="fill:#630;stroke:#4c4c4c;stroke-width:2" d="M537,221 l296,0 0,10 -296,0 0,-10z" /><path style="fill:#c78f1f" d="M0,0 l443,0 0,443 -443,0 0,-443z" /><path style="fill:#bf7f07" d="M0,309 l443,-148 0,282 -443,0 0,-134z" /><path style="fill:none;stroke:#4c4c4c;stroke-width:2" d="M0,0 l443,0 0,443 -443,0 0,-443" /><path style="fill:#c93" d="M241,369 l-40,0 -38,-10 -32,-18 -28,-28 -20,-34 -10,-38 0,-38 10,-38 20,-34 26,-28 34,-20 38,-10 40,0 110,30 0,238 -110,28z" /><path style="fill:#c4912b" d="M241,369 l-40,0 -38,-10 -32,-18 -28,-28 -20,-34 268,-90 0,152 -110,28z" /><path style="fill:none;stroke:#4c4c4c;stroke-width:2" d="M241,369 l-40,0 -38,-10 -32,-18 -28,-28 -20,-34 -10,-38 0,-38 10,-38 20,-34 26,-28 34,-20 38,-10 40,0 110,30 0,238 -110,28" /><path style="fill:#630;stroke:#4c4c4c;stroke-width:2" d="M213,259 l-12,-6 -12,-10 -4,-14 0,-14 4,-14 12,-10 12,-6 174,0 2,8 54,0 0,66 -230,0z" /><path style="fill:#e5cb98" d="M333,231 l665,0 0,18 -665,0 0,-18z" /><path style="fill:#c93" d="M333,249 l665,0 0,204 -665,0 0,-204z" /><path style="fill:none;stroke:#e5cb98;stroke-width:2" d="M389,179 l0,-151 -385,0" /><path style="fill:#c4912b" d="M998,271 l0,182 -665,0 0,-34 665,-148z" /><path style="fill:none;stroke:#960;stroke-width:2" d="M333,259 l665,0" /><path style="fill:none;stroke:#e5cb98;stroke-width:2" d="M685,429 l0,-124 134,0" /><path style="fill:none;stroke:#960;stroke-width:2" d="M685,429 l134,0 0,-124" /><path style="fill:#630" d="M355,429 l46,0 0,20 -46,0 0,-20z" /><path style="fill:#630" d="M929,429 l45,0 0,20 -45,0 0,-20z" /><path style="fill:#630" d="M643,429 l46,0 0,20 -46,0 0,-20z" /><path style="fill:none;stroke:#960;stroke-width:2" d="M333,449 l665,0" /><path style="fill:none;stroke:#4c4c4c;stroke-width:2" d="M333,231 l665,0 0,222 -665,0 0,-222" /><path style="fill:#e5e5e5" d="M333,231 l500,0 0,4 -500,0 0,-4z" /><path style="fill:none;stroke:#4c4c4c;stroke-width:2" d="M333,231 l665,0 0,18 -665,0 0,-18" /><path style="fill:#c93" d="M813,119 l112,0 0,94 -112,0 0,-94z" /><path style="fill:#e5cb98;stroke:#4c4c4c;stroke-width:2" d="M925,213 l55,0 0,-38 18,0 0,56 -73,0 0,-18z" /><path style="fill:#960;stroke:#4c4c4c;stroke-width:2" d="M833,213 l74,0 0,36 -74,0 0,-36z" /><path style="fill:#c4912b" d="M813,193 l112,-36 0,56 -112,0 0,-20z" /><path style="fill:none;stroke:#4c4c4c;stroke-width:2" d="M813,119 l112,0 0,94 -112,0 0,-94" /><path style="fill:#ccc" d="M327,38 l98,0 0,49 -98,0 0,-49z" /><path style="fill:#630" d="M117,42 l-4,-6 4,-8 8,0 4,8 -4,6 -8,0z" /><path style="fill:#630" d="M293,42 l-4,-6 4,-8 8,0 4,8 -4,6 -8,0z" /><path style="fill:#630" d="M141,241 l-10,-16 10,-18 20,0 8,18 -8,16 -20,0z" /><path style="fill:#ccb27f" d="M217,235 l116,0 0,10 -116,0 0,-10z" /><path style="fill:#b2b2b2" d="M217,231 l116,0 0,4 -116,0 0,-4z" /><path style="fill:none;stroke:#4c4c4c;stroke-width:2" d="M217,231 l116,0 0,14 -116,0 0,-14" /><path style="fill:#997f4c" d="M305,199 l138,0 0,22 -138,0 0,-22z" /><path style="fill:#a38956" d="M313,199 l122,0 0,22 -122,0 0,-22z" /><path style="fill:#ab915e" d="M321,199 l106,0 0,22 -106,0 0,-22z" /><path style="fill:#b59b68" d="M329,199 l90,0 0,22 -90,0 0,-22z" /><path style="fill:#bfa572" d="M337,199 l74,0 0,22 -74,0 0,-22z" /><path style="fill:#c9af7c" d="M345,197 l58,0 0,24 -58,0 0,-24z" /><path style="fill:#d1b784" d="M353,197 l42,0 0,24 -42,0 0,-24z" /><path style="fill:#dbc18e" d="M361,197 l26,0 0,24 -26,0 0,-24z" /><path style="fill:#e5cb98" d="M369,199 l10,0 0,22 -10,0 0,-22z" /><path style="fill:#630" d="M313,199 l6,0 0,14 -6,0 0,-14z" /><path style="fill:#630" d="M329,199 l4,0 0,14 -4,0 0,-14z" /><path style="fill:#630" d="M343,199 l4,0 0,14 -4,0 0,-14z" /><path style="fill:#630" d="M357,199 l6,0 0,14 -6,0 0,-14z" /><path style="fill:#630" d="M371,199 l6,0 0,14 -6,0 0,-14z" /><path style="fill:#630" d="M387,199 l4,0 0,14 -4,0 0,-14z" /><path style="fill:#630" d="M401,199 l4,0 0,14 -4,0 0,-14z" /><path style="fill:#630" d="M415,199 l4,0 0,14 -4,0 0,-14z" /><path style="fill:#630" d="M429,199 l6,0 0,14 -6,0 0,-14z" /><path style="fill:none;stroke:#4c4c4c;stroke-width:2" d="M305,199 l138,0 0,22 -138,0 0,-22" /><path style="fill:#997f4c" d="M453,65 l0,60 -10,0 0,-60 10,0z" /><path style="fill:#ab915e" d="M453,71 l0,46 -10,0 0,-46 10,0z" /><path style="fill:#bfa572" d="M453,79 l0,32 -10,0 0,-32 10,0z" /><path style="fill:#d1b784" d="M453,85 l0,18 -10,0 0,-18 10,0z" /><path style="fill:#e5cb98" d="M453,93 l0,4 -10,0 0,-4 10,0z" /><path style="fill:none;stroke:#4c4c4c;stroke-width:2" d="M453,65 l0,60 -10,0 0,-60 10,0" /><path style="fill:#e5cb98;stroke:#4c4c4c;stroke-width:2" d="M841,119 l6,-36 14,0 0,18 18,0 0,-18 14,0 4,36 -56,0z" /></svg>