<!DOCTYPE svg PUBLIC "-//W3C//DTD SVG 20000303 Stylable//EN" "http://www.w3.org/TR/2000/03/WD-SVG-20000303/DTD/svg-20000303-stylable.dtd"[]><svg xmlns="http://www.w3.org/2000/svg" width="999px" height="738px" viewBox="0 0 999 723"><path style="fill:#333" d="M607,679 l196,0 0,8 -196,0 0,-8z" /><path style="fill:#4c4c4c;stroke:#4c4c4c;stroke-width:2" d="M35,589 l0,-108 -17,0 -18,-8 0,-36 18,-8 53,0 0,160 -36,0z" /><path style="fill:#b2b2b2;stroke:#4c4c4c;stroke-width:2" d="M8,589 l0,-98 71,98 -71,0z" /><path style="fill:#7f7f7f;stroke:#4c4c4c;stroke-width:2" d="M25,723 l582,0 0,-54 -582,0 0,54z" /><path style="fill:#ccc;stroke:#4c4c4c;stroke-width:2" d="M61,669 l742,0 0,-88 -742,0 0,88z" /><path style="fill:#b2b2b2" d="M177,10 l36,17 0,554 -36,0 0,-571z" /><path style="fill:#ccc" d="M391,27 l-178,0 0,554 178,0 0,-554z" /><path style="fill:none;stroke:#4c4c4c;stroke-width:2" d="M177,10 l36,17 178,0 0,554 -214,0 0,-571" /><path style="fill:#ccc" d="M169,679 l634,0 0,-98 -634,0 0,98z" /><path style="fill:#b2b2b2" d="M169,679 l634,0 0,-18 -634,0 0,18z" /><path style="fill:none;stroke:#4c4c4c;stroke-width:2" d="M169,679 l634,0 0,-98 -634,0 0,98" /><path style="fill:#ccc;stroke:#4c4c4c;stroke-width:2" d="M713,295 l286,0 -45,70 -241,0 0,-70z" /><path style="fill:#ccc;stroke:#4c4c4c;stroke-width:2" d="M901,365 l18,0 0,350 -18,0 0,-350z" /><path style="fill:#ccc;stroke:#4c4c4c;stroke-width:2" d="M891,723 l36,0 0,-8 -36,0 0,8z" /><path style="fill:none;stroke:#4c4c4c;stroke-width:2" d="M908,365 l-51,36 -54,10 -46,-10 -44,-26" /><path style="fill:#999" d="M71,419 l106,0 0,162 -106,0 0,-162z" /><path style="fill:#ccc" d="M71,419 l106,0 0,-196 -106,0 0,196z" /><path style="fill:#b2b2b2" d="M71,295 l106,0 0,62 -106,0 0,-62z" /><path style="fill:none;stroke:#4c4c4c;stroke-width:2" d="M71,223 l106,0 0,358 -106,0 0,-358" /><path style="fill:#666" d="M90,303 l17,0 0,28 -17,0 0,-28z" /><path style="fill:#666" d="M90,339 l9,0 0,8 -9,0 0,-8z" /><path style="fill:#666" d="M109,339 l10,0 0,8 -10,0 0,-8z" /><path style="fill:#666" d="M129,339 l10,0 0,8 -10,0 0,-8z" /><path style="fill:#666" d="M149,339 l10,0 0,8 -10,0 0,-8z" /><path style="fill:#ccc;stroke:#4c4c4c;stroke-width:2" d="M61,669 l-61,0 0,-80 61,0 0,80z" /><path style="fill:#999" d="M223,35 l170,0 0,46 -170,0 0,-46z" /><path style="fill:#ccc" d="M391,10 l322,0 0,571 -322,0 0,-571z" /><path style="fill:#c7c7c7" d="M391,415 l322,-240 0,406 -322,0 0,-166z" /><path style="fill:#c2c2c2" d="M391,439 l322,-240 0,382 -322,0 0,-142z" /><path style="fill:#bdbdbd" d="M391,473 l322,-238 0,346 -322,0 0,-108z" /><path style="fill:none;stroke:#4c4c4c;stroke-width:2" d="M391,10 l322,0 0,571 -322,0 0,-571" /><path style="fill:#b2b2b2" d="M517,241 l124,0 0,36 -124,0 0,-36z" /><path style="fill:#b2b2b2" d="M481,277 l124,0 0,160 -124,0 0,-160z" /><path style="fill:#b2b2b2" d="M463,197 l144,0 0,18 -144,0 0,-18z" /><path style="fill:#b2b2b2" d="M589,151 l18,0 0,46 -18,0 0,-46z" /><path style="fill:none;stroke:#e5e5e5;stroke-width:2" d="M499,313 l72,-90" /><path style="fill:none;stroke:#e5e5e5;stroke-width:2" d="M499,347 l72,-88" /><path style="fill:none;stroke:#e5e5e5;stroke-width:2" d="M553,331 l70,-90" /><path style="fill:none;stroke:#fff;stroke-width:2" d="M641,151 l0,286 -178,0" /><path style="fill:none;stroke:#999;stroke-width:2" d="M641,151 l-178,0 0,286" /><path style="fill:#999" d="M499,63 l108,0 0,44 -108,0 0,-44z" /><path style="fill:none;stroke:#fff;stroke-width:2" d="M231,54 l144,0" /><path style="fill:none;stroke:#fff;stroke-width:2" d="M231,46 l80,0" /><path style="fill:none;stroke:#fff;stroke-width:2" d="M231,71 l72,0" /><path style="fill:none;stroke:#fff;stroke-width:2" d="M339,71 l26,0" /><path style="fill:#7f7f7f;stroke:#4c4c4c;stroke-width:2" d="M71,223 l44,0 0,-223 -61,0 0,18 17,0 0,205z" /><path style="fill:#b2b2b2;stroke:#4c4c4c;stroke-width:2" d="M134,223 l-19,0 0,-223 19,18 0,205z" /><path style="fill:#4c4c4c" d="M97,223 l-16,0 0,-205 16,17 0,188z" /></svg>