<!DOCTYPE svg PUBLIC "-//W3C//DTD SVG 20000303 Stylable//EN" "http://www.w3.org/TR/2000/03/WD-SVG-20000303/DTD/svg-20000303-stylable.dtd"[]><svg xmlns="http://www.w3.org/2000/svg" width="774px" height="999px" viewBox="0 0 761 998"><path style="fill:#595900" d="M228,719 l185,0 0,140 -185,0 0,-140z" /><path style="fill:#b2b219;stroke:#4c4c4c;stroke-width:2" d="M273,0 l92,0 0,953 -92,0 0,-953z" /><path style="fill:#7f7f00;stroke:#4c4c4c;stroke-width:2" d="M273,347 l92,0 48,372 -185,0 45,-372z" /><path style="fill:#cc3" d="M645,581 l116,0 0,46 -116,0 0,-46z" /><path style="fill:#cc3;stroke:#4c4c4c;stroke-width:2" d="M621,511 l24,0 0,116 -24,0 0,-116z" /><path style="fill:#cc3" d="M249,24 l140,0 0,231 -140,0 0,-231z" /><path style="fill:#333;stroke:#4c4c4c;stroke-width:2" d="M134,953 l371,0 0,21 -371,0 0,-21z" /><path style="fill:#cc3;stroke:#4c4c4c;stroke-width:2" d="M134,974 l371,0 0,24 -371,0 0,-24z" /><path style="fill:#333;stroke:#4c4c4c;stroke-width:2" d="M249,627 l140,0 0,186 -140,0 0,-186z" /><path style="fill:#4c4c4c;stroke:#4c4c4c;stroke-width:2" d="M389,697 l70,0 0,92 -70,0 0,-92z" /><path style="fill:#c7c72e" d="M249,183 l140,-102 0,174 -140,0 0,-72z" /><path style="fill:#c2c229" d="M249,193 l140,-102 0,164 -140,0 0,-62z" /><path style="fill:#bdbd24" d="M249,209 l140,-102 0,148 -140,0 0,-46z" /><path style="fill:none;stroke:#4c4c4c;stroke-width:2" d="M249,24 l140,0 0,231 -140,0 0,-231" /><path style="fill:#cc3" d="M41,417 l187,0 0,466 -187,0 0,-466z" /><path style="fill:#c7c72e" d="M41,739 l187,-206 0,350 -187,0 0,-144z" /><path style="fill:#c2c229" d="M41,761 l187,-206 0,328 -187,0 0,-122z" /><path style="fill:#bdbd24" d="M41,791 l187,-206 0,298 -187,0 0,-92z" /><path style="fill:none;stroke:#4c4c4c;stroke-width:2" d="M41,417 l187,0 0,466 -187,0 0,-466" /><circle style="fill:#666;stroke:#4c4c4c;stroke-width:2" cx="412" cy="650" r="47" /><path style="fill:#cc3;stroke:#4c4c4c;stroke-width:2" d="M215,511 l208,0 0,46 -208,0 0,-46z" /><path style="fill:#e5e54c" d="M645,587 l116,0 0,34 -116,0 0,-34z" /><path style="fill:#ff6" d="M645,597 l116,0 0,12 -116,0 0,-12z" /><path style="fill:none;stroke:#4c4c4c;stroke-width:2" d="M645,581 l116,0 0,46 -116,0 0,-46" /><path style="fill:#333;stroke:#4c4c4c;stroke-width:2" d="M423,133 l180,0 0,222 -180,0 0,-222z" /><path style="fill:#ccc" d="M429,139 l170,0 0,104 6,104 -170,0 -6,-104 0,-104z" /><path style="fill:#b2b219;stroke:#4c4c4c;stroke-width:2" d="M423,279 l-58,0 0,40 58,0 0,-40z" /><path style="fill:#b2b219" d="M453,337 l-6,-8 0,-10 6,-6 10,0 8,6 0,10 -8,8 -10,0z" /><path style="fill:#000" d="M389,209 l-140,0 0,28 140,0 0,-28z" /><path style="fill:#000" d="M389,157 l-140,0 0,40 140,0 0,-40z" /><path style="fill:#000" d="M545,155 l-98,0 0,76 98,0 0,-76z" /><path style="fill:none;stroke:#fff;stroke-width:2" d="M545,155 l0,76 -98,0" /><path style="fill:none;stroke:#999;stroke-width:2" d="M545,155 l-98,0 0,76" /><path style="fill:none;stroke:#4c4c4c;stroke-width:2" d="M180,859 l12,36 30,16 27,0 24,-16 18,-82" /><path style="fill:none;stroke:#4c4c4c;stroke-width:2" d="M157,863 l16,36 40,18 42,0 34,-18 24,-86" /><path style="fill:#cc3;stroke:#4c4c4c;stroke-width:2" d="M215,523 l-197,0 0,10 197,0 0,-10z" /><path style="fill:#cc3;stroke:#4c4c4c;stroke-width:2" d="M64,487 l581,0 0,140 -24,0 -6,-116 -528,0 0,34 -23,0 0,-58z" /><path style="fill:none;stroke:#4c4c4c;stroke-width:2" d="M64,499 l581,0" /><path style="fill:#000" d="M87,511 l534,0 0,6 -534,0 0,-6z" /><path style="fill:#bf2600;stroke:#4c4c4c;stroke-width:2" d="M0,495 l18,0 0,68 -18,0 0,-68z" /></svg>