<!DOCTYPE svg PUBLIC "-//W3C//DTD SVG 20000303 Stylable//EN" "http://www.w3.org/TR/2000/03/WD-SVG-20000303/DTD/svg-20000303-stylable.dtd"[]><svg xmlns="http://www.w3.org/2000/svg" width="999px" height="526px" viewBox="0 0 999 498"><path style="fill:#ccc" d="M103,394 l792,0 0,104 -792,0 0,-104z" /><path style="fill:#c7c7c7" d="M103,468 l792,-44 0,74 -792,0 0,-30z" /><path style="fill:#c2c2c2" d="M103,472 l792,-44 0,70 -792,0 0,-26z" /><path style="fill:#bdbdbd" d="M103,478 l792,-44 0,64 -792,0 0,-20z" /><path style="fill:none;stroke:#7f7f7f;stroke-width:2" d="M322,394 l0,104" /><path style="fill:none;stroke:#7f7f7f;stroke-width:2" d="M749,394 l0,104" /><path style="fill:none;stroke:#4c4c4c;stroke-width:2" d="M103,414 l792,0" /><path style="fill:#600;stroke:#4c4c4c;stroke-width:2" d="M0,291 l999,0 0,103 -999,0 0,-103z" /><path style="fill:#e5e5e5;stroke:#4c4c4c;stroke-width:2" d="M21,0 l956,0 0,291 -956,0 0,-291z" /><path style="fill:#b2b2b2" d="M249,19 l698,0 0,250 -698,0 0,-250z" /><path style="fill:#b8b8b8" d="M249,41 l698,0 0,228 -698,0 0,-228z" /><path style="fill:#bfbfbf" d="M249,65 l698,0 0,204 -698,0 0,-204z" /><path style="fill:#c4c4c4" d="M249,89 l698,0 0,180 -698,0 0,-180z" /><path style="fill:#ccc" d="M249,113 l698,0 0,156 -698,0 0,-156z" /><path style="fill:#d1d1d1" d="M249,137 l698,0 0,132 -698,0 0,-132z" /><path style="fill:#d9d9d9" d="M249,159 l698,0 0,110 -698,0 0,-110z" /><path style="fill:#dedede" d="M249,183 l698,0 0,86 -698,0 0,-86z" /><path style="fill:#e5e5e5" d="M249,207 l698,0 0,62 -698,0 0,-62z" /><path style="fill:#e5e5e5" d="M9,291 l0,-210 12,-72 228,0 0,282 -240,0z" /><path style="fill:#000" d="M249,249 l698,0 0,10 -698,0 0,-10z" /><path style="fill:#666" d="M249,259 l698,0 0,10 -698,0 0,-10z" /><path style="fill:none;stroke:#4c4c4c;stroke-width:2" d="M249,19 l698,0 0,250 -698,0 0,-250" /><path style="fill:#f2f2f2" d="M9,81 l12,-72 228,0 0,72 -240,0z" /><path style="fill:none;stroke:#4c4c4c;stroke-width:2" d="M9,291 l0,-210 12,-72 228,0 0,282 -240,0" /><path style="fill:none;stroke:#4c4c4c;stroke-width:2" d="M103,394 l792,0 0,104 -792,0 0,-104" /><path style="fill:#999" d="M759,476 l124,0 0,16 -124,0 0,-16z" /><path style="fill:#999;stroke:#4c4c4c;stroke-width:2" d="M249,476 l64,0 0,16 -64,0 0,-16z" /><path style="fill:#999" d="M181,476 l64,0 0,16 -64,0 0,-16z" /><path style="fill:#999;stroke:#4c4c4c;stroke-width:2" d="M113,476 l64,0 0,16 -64,0 0,-16z" /><path style="fill:#333" d="M249,476 l64,0 0,6 -64,0 0,-6z" /><path style="fill:#333" d="M181,476 l64,0 0,6 -64,0 0,-6z" /><path style="fill:#333" d="M113,476 l64,0 0,6 -64,0 0,-6z" /><path style="fill:#333" d="M759,476 l124,0 0,6 -124,0 0,-6z" /><path style="fill:none;stroke:#4c4c4c;stroke-width:2" d="M181,476 l64,0 0,16 -64,0 0,-16" /><path style="fill:none;stroke:#4c4c4c;stroke-width:2" d="M759,476 l124,0 0,16 -124,0 0,-16" /><path style="fill:#b2b2b2" d="M291,353 l0,-6 698,0 0,6 -698,0z" /><path style="fill:#000" d="M763,191 l0,-36 12,0 0,36 -12,0z" /><path style="fill:#e5e5e5;stroke:#4c4c4c;stroke-width:2" d="M873,187 l0,62 -84,0 0,-42 -10,0 -10,-20 0,-26 10,-16 110,0 0,42 -16,0z" /><path style="fill:#b2b2b2" d="M831,213 l0,-28 38,0 0,28 -38,0z" /><path style="fill:#666" d="M249,71 l698,0 0,10 -698,0 0,-10z" /><path style="fill:#e5e5e5" d="M488,291 l0,-168 6,-114 229,0 4,114 0,168 -239,0z" /><path style="fill:#f2f2f2" d="M488,123 l6,-114 229,0 4,114 -239,0z" /><path style="fill:none;stroke:#4c4c4c;stroke-width:2" d="M488,291 l0,-168 6,-114 229,0 4,114 0,168 -239,0" /><path style="fill:#333" d="M504,115 l4,-98 199,0 4,98 -207,0z" /><path style="fill:#404040" d="M504,115 l4,-94 199,0 6,94 -209,0z" /><path style="fill:#4c4c4c" d="M504,115 l4,-86 201,0 4,86 -209,0z" /><path style="fill:#595959" d="M504,115 l4,-79 201,0 4,79 -209,0z" /><path style="fill:#666" d="M504,115 l4,-74 201,0 4,74 -209,0z" /><path style="fill:#737373" d="M504,115 l4,-68 201,0 4,68 -209,0z" /><path style="fill:#7f7f7f" d="M504,115 l4,-62 201,0 4,62 -209,0z" /><path style="fill:#8c8c8c" d="M504,115 l2,-56 203,0 4,56 -209,0z" /><path style="fill:#999" d="M504,115 l2,-50 203,0 4,50 -209,0z" /><path style="fill:#a6a6a6" d="M504,115 l2,-44 205,0 2,44 -209,0z" /><path style="fill:#b2b2b2" d="M504,115 l2,-36 205,0 2,36 -209,0z" /><path style="fill:#bfbfbf" d="M504,115 l2,-30 205,0 2,30 -209,0z" /><path style="fill:#ccc" d="M504,115 l2,-24 205,0 0,24 -207,0z" /><path style="fill:none;stroke:#4c4c4c;stroke-width:2" d="M504,115 l4,-98 199,0 4,98 -207,0" /><path style="fill:#b2b2b2;stroke:#4c4c4c;stroke-width:2" d="M520,374 l0,-99 187,0 0,99 -187,0z" /><path style="fill:#ccc;stroke:#4c4c4c;stroke-width:2" d="M514,275 l0,-52 197,0 0,52 -197,0z" /><path style="fill:#666;stroke:#4c4c4c;stroke-width:2" d="M520,223 l4,-74 177,0 6,74 -187,0z" /><path style="fill:#000" d="M498,123 l12,-20 197,0 10,20 -10,0 -10,-16 -177,0 -10,16 -12,0z" /><path style="fill:#7f7f7f" d="M249,123 l32,0 0,-10 51,0 0,114 -51,0 0,-10 -32,0 0,-94z" /><path style="fill:#919191" d="M249,129 l32,0 0,-8 51,0 0,98 -51,0 0,-8 -32,0 0,-82z" /><path style="fill:#a1a1a1" d="M249,135 l32,0 0,-6 51,0 0,82 -51,0 0,-6 -32,0 0,-70z" /><path style="fill:#b2b2b2" d="M249,143 l32,0 0,-6 51,0 0,66 -51,0 0,-6 -32,0 0,-54z" /><path style="fill:#c4c4c4" d="M249,149 l32,0 0,-6 51,0 0,54 -51,0 0,-6 -32,0 0,-42z" /><path style="fill:#d4d4d4" d="M249,155 l32,0 0,-4 51,0 0,38 -51,0 0,-4 -32,0 0,-30z" /><path style="fill:#e5e5e5" d="M249,161 l32,0 0,-2 51,0 0,22 -51,0 0,-2 -32,0 0,-18z" /><path style="fill:none;stroke:#4c4c4c;stroke-width:2" d="M249,123 l32,0 0,-10 51,0 0,114 -51,0 0,-10 -32,0 0,-94" /><path style="fill:none;stroke:#7f7f7f;stroke-width:2" d="M281,217 l0,-94" /><path style="fill:#ccc" d="M61,227 l0,-104 126,0 0,104 -126,0z" /><path style="fill:#b2b2b2" d="M61,139 l0,-16 126,0 0,16 -126,0z" /><path style="fill:none;stroke:#4c4c4c;stroke-width:2" d="M187,227 l0,-104 -126,0 0,104" /></svg>