<!DOCTYPE svg PUBLIC "-//W3C//DTD SVG 20000303 Stylable//EN" "http://www.w3.org/TR/2000/03/WD-SVG-20000303/DTD/svg-20000303-stylable.dtd"[]><svg xmlns="http://www.w3.org/2000/svg" width="999px" height="772px" viewBox="0 0 999 759"><path style="fill:#4c4c4c;stroke:#4c4c4c;stroke-width:2" d="M95,22 l0,-10 284,0 0,10 -284,0z" /><path style="fill:#b2b2b2;stroke:#4c4c4c;stroke-width:2" d="M67,487 l-55,-46 0,-130 55,0 0,176z" /><path style="fill:#bfbfbf" d="M463,293 l0,-271 194,0 0,271 -194,0z" /><path style="fill:#b2b2b2" d="M691,385 l-34,-92 0,-271 46,0 0,363 -12,0z" /><path style="fill:#a6a6a6" d="M419,385 l44,-92 0,-271 -44,0 0,363z" /><path style="fill:#ccc" d="M55,385 l907,0 0,362 -907,0 0,-362z" /><path style="fill:#c7c7c7" d="M55,643 l907,-152 0,256 -907,0 0,-104z" /><path style="fill:#c2c2c2" d="M55,657 l907,-152 0,242 -907,0 0,-90z" /><path style="fill:#bdbdbd" d="M55,681 l907,-152 0,218 -907,0 0,-66z" /><path style="fill:#e5e5e5" d="M67,385 l0,-170 90,0 0,170 -90,0z" /><path style="fill:#f2f2f2" d="M67,215 l12,-193 90,0 -12,193 -90,0z" /><path style="fill:none;stroke:#4c4c4c;stroke-width:2" d="M67,385 l0,-170 12,-193 90,0 -12,193 0,170 -90,0" /><path style="fill:#f2f2f2" d="M691,385 l0,-46 271,0 0,46 -271,0z" /><path style="fill:#e5e5e5" d="M703,339 l0,-46 259,0 0,46 -259,0z" /><path style="fill:#d9d9d9" d="M703,271 l0,22 259,0 0,-22 -259,0z" /><path style="fill:#ccc" d="M703,271 l0,-12 259,0 0,12 -259,0z" /><path style="fill:#bfbfbf" d="M703,259 l0,-10 259,0 0,10 -259,0z" /><path style="fill:none;stroke:#4c4c4c;stroke-width:2" d="M691,385 l0,-46 12,0 0,-90 259,0 0,136 -271,0" /><path style="fill:none;stroke:#7f7f7f;stroke-width:2" d="M703,339 l259,0" /><path style="fill:#999;stroke:#4c4c4c;stroke-width:2" d="M703,249 l-6,-34 277,0 -12,34 -259,0z" /><path style="fill:#ccc;stroke:#4c4c4c;stroke-width:2" d="M703,0 l-6,215 277,0 -12,-215 -259,0z" /><path style="fill:#333" d="M956,12 l6,111 -157,0 0,-111 151,0z" /><path style="fill:#7f0000" d="M759,22 l12,0 0,11 -12,0 0,-11z" /><path style="fill:#7f0000" d="M759,181 l12,0 0,10 -12,0 0,-10z" /><path style="fill:#363" d="M725,22 l12,0 0,11 -12,0 0,-11z" /><path style="fill:#363" d="M725,181 l12,0 0,10 -12,0 0,-10z" /><path style="fill:none;stroke:#fff;stroke-width:2" d="M713,203 l0,-80 68,0" /><path style="fill:none;stroke:#fff;stroke-width:2" d="M713,113 l0,-101 68,0" /><path style="fill:none;stroke:#999;stroke-width:2" d="M713,203 l68,0 0,-80" /><path style="fill:none;stroke:#999;stroke-width:2" d="M713,113 l68,0 0,-101" /><path style="fill:#b2b2b2" d="M959,135 l3,68 -157,0 0,-68 154,0z" /><path style="fill:#999" d="M961,135 l1,34 -80,0 0,-34 79,0z" /><path style="fill:#999" d="M881,169 l1,34 -77,0 0,-34 76,0z" /><path style="fill:#7f0000" d="M743,89 l-6,-5 0,-11 6,-6 10,0 6,6 0,11 -6,5 -10,0z" /><path style="fill:none;stroke:#b2b2b2;stroke-width:2" d="M739,101 l-14,-10 0,-13 14,-11 18,0 12,11 0,13 -12,10 -18,0" /><path style="fill:#000" d="M67,759 l0,-12 883,0 0,12 -883,0z" /><path style="fill:none;stroke:#4c4c4c;stroke-width:2" d="M55,385 l907,0 0,362 -907,0 0,-362" /><path style="fill:#999" d="M419,385 l44,-92 0,-271 -44,249 0,114z" /><path style="fill:#e5e5e5;stroke:#4c4c4c;stroke-width:2" d="M419,22 l0,-10 284,0 0,10 -284,0z" /><path style="fill:#bfbfbf" d="M157,385 l0,-170 262,0 0,170 -262,0z" /><path style="fill:#ccc" d="M157,215 l12,-203 262,0 -12,203 -262,0z" /><path style="fill:#e5e5e5" d="M279,181 l8,-136 104,0 -6,136 -106,0z" /><path style="fill:#999" d="M285,61 l2,-16 104,0 0,16 -106,0z" /><path style="fill:#999" d="M279,181 l8,-136 12,0 -8,136 -12,0z" /><path style="fill:none;stroke:#4c4c4c;stroke-width:2" d="M279,181 l8,-136 104,0" /><path style="fill:none;stroke:#fff;stroke-width:2" d="M393,45 l-8,136 -106,0" /><path style="fill:none;stroke:#4c4c4c;stroke-width:2" d="M157,385 l0,-170 12,-203 262,0 -12,203 0,170 -262,0" /><path style="fill:#4c4c4c" d="M243,747 l0,-22 114,0 0,22 -114,0z" /><path style="fill:#e54c00;stroke:#4c4c4c;stroke-width:2" d="M237,747 l6,-28 50,-6 12,0 52,6 4,28 -16,-22 -90,0 -18,22z" /><path style="fill:#f60;stroke:#4c4c4c;stroke-width:2" d="M237,759 l0,-12 58,0 0,-34 10,0 0,34 56,0 0,12 -124,0z" /><path style="fill:#000" d="M221,537 l-6,-6 6,-4 4,4 -4,6z" /><path style="fill:#000" d="M941,373 l-6,-6 6,-6 6,6 -6,6z" /><path style="fill:none;stroke:#4c4c4c;stroke-width:2" d="M221,531 l0,194 16,10" /><path style="fill:#e5e5e5;stroke:#4c4c4c;stroke-width:2" d="M0,441 l12,0 0,-130 -12,0 0,130z" /><path style="fill:#f60" d="M401,357 l-4,-6 0,-114 4,-6 -4,0 -6,6 0,114 6,6 4,0z" /><path style="fill:#999;stroke:#4c4c4c;stroke-width:2" d="M419,385 l44,-92 194,0 34,92 -272,0z" /><path style="fill:none;stroke:#666;stroke-width:2" d="M475,385 l24,-92" /><path style="fill:none;stroke:#666;stroke-width:2" d="M645,385 l-22,-92" /><path style="fill:none;stroke:#7f7f7f;stroke-width:2" d="M657,293 l0,-271" /><path style="fill:#7f7f7f" d="M435,289 l0,-120 52,0 0,120 -52,0z" /><path style="fill:#919191" d="M437,279 l0,-102 50,0 0,102 -50,0z" /><path style="fill:#a1a1a1" d="M437,271 l0,-86 50,0 0,86 -50,0z" /><path style="fill:#b2b2b2" d="M437,263 l0,-70 50,0 0,70 -50,0z" /><path style="fill:#c4c4c4" d="M437,253 l0,-50 50,0 0,50 -50,0z" /><path style="fill:#d4d4d4" d="M437,245 l0,-34 50,0 0,34 -50,0z" /><path style="fill:#e5e5e5" d="M435,237 l0,-18 52,0 0,18 -52,0z" /><path style="fill:none;stroke:#4c4c4c;stroke-width:2" d="M435,289 l0,-120 52,0 0,120 -52,0" /><path style="fill:#4c4c4c;stroke:#4c4c4c;stroke-width:2" d="M645,327 l0,-112 40,0 0,112 -40,0z" /><path style="fill:#7f7f7f;stroke:#4c4c4c;stroke-width:2" d="M645,175 l0,40 40,0 0,-40 -40,0z" /><path style="fill:none;stroke:#4c4c4c;stroke-width:2" d="M941,367 l2,28 -20,14 24,8 -22,16 24,8 -23,14 24,8 -19,14 22,8 -21,14 24,10 -21,14 24,8 -21,14 24,8 24,-8 -21,-14 23,-8 -20,-14 23,-10 -23,-12 24,-10 -19,-14 21,-8 -20,-14 23,-10 -21,-12 23,-10 -20,-14 1,-62 -12,-108" /><path style="fill:none;stroke:#7f7f7f;stroke-width:2" d="M941,379 l-12,-12 12,-10 9,10 -9,12" /><path style="fill:none;stroke:#7f7f7f;stroke-width:2" d="M221,543 l-12,-12 12,-10 10,10 -10,12" /></svg>