<!DOCTYPE svg PUBLIC "-//W3C//DTD SVG 20000303 Stylable//EN" "http://www.w3.org/TR/2000/03/WD-SVG-20000303/DTD/svg-20000303-stylable.dtd"[]><svg xmlns="http://www.w3.org/2000/svg" width="919px" height="999px" viewBox="0 0 915 999"><path style="fill:#4c3f26" d="M208,187 l499,0 0,666 -499,0 0,-666z" /><path style="fill:#f2e5cc" d="M40,853 l833,0 0,124 -833,0 0,-124z" /><path style="fill:#ede0c7" d="M40,941 l833,-52 0,88 -833,0 0,-36z" /><path style="fill:#e8dbc2" d="M40,946 l833,-52 0,83 -833,0 0,-31z" /><path style="fill:#e3d6bd" d="M40,954 l833,-52 0,75 -833,0 0,-23z" /><path style="fill:none;stroke:#4c4c4c;stroke-width:2" d="M40,853 l833,0 0,124 -833,0 0,-124" /><path style="fill:none;stroke:#4c4c4c;stroke-width:2" d="M40,863 l833,0" /><path style="fill:#f2e5cc;stroke:#4c4c4c;stroke-width:2" d="M477,665 l22,0 0,188 -22,0 0,-188z" /><path style="fill:#f2e5cc;stroke:#4c4c4c;stroke-width:2" d="M415,665 l20,0 0,188 -20,0 0,-188z" /><path style="fill:#333" d="M61,665 l-41,0 0,42 41,0 0,-42z" /><path style="fill:#bfb299;stroke:#4c4c4c;stroke-width:2" d="M208,187 l499,0 0,40 -499,0 0,-40z" /><path style="fill:#665940;stroke:#4c4c4c;stroke-width:2" d="M561,749 l146,0 0,62 -146,0 0,-62z" /><path style="fill:#998c73;stroke:#4c4c4c;stroke-width:2" d="M499,707 l104,0 0,62 -104,0 0,-62z" /><path style="fill:#665940;stroke:#4c4c4c;stroke-width:2" d="M208,687 l165,0 0,124 -165,0 0,-124z" /><path style="fill:#998c73;stroke:#4c4c4c;stroke-width:2" d="M269,707 l84,0 0,104 -84,0 0,-104z" /><path style="fill:#bfb299;stroke:#4c4c4c;stroke-width:2" d="M208,811 l499,0 0,42 -499,0 0,-42z" /><path style="fill:#d9ccb3;stroke:#4c4c4c;stroke-width:2" d="M707,665 l82,0 0,188 -82,0 0,-188z" /><path style="fill:#d9ccb3;stroke:#4c4c4c;stroke-width:2" d="M123,665 l85,0 0,188 -85,0 0,-188z" /><path style="fill:none;stroke:#4c4c4c;stroke-width:2" d="M415,665 l84,0 0,188 -84,0 0,-188" /><path style="fill:#f2e5cc;stroke:#4c4c4c;stroke-width:2" d="M208,83 l19,-41 458,0 22,41 0,104 -499,0 0,-104z" /><path style="fill:#f2e5cc;stroke:#4c4c4c;stroke-width:2" d="M789,665 l62,-62 -62,0 0,-520 -82,0 0,582 82,0z" /><path style="fill:#f2e5cc;stroke:#4c4c4c;stroke-width:2" d="M123,665 l-62,-62 62,0 0,-520 85,0 0,582 -85,0z" /><path style="fill:#f2e5cc;stroke:#4c4c4c;stroke-width:2" d="M873,853 l-84,-146 0,146 84,0z" /><path style="fill:#f2e5cc;stroke:#4c4c4c;stroke-width:2" d="M40,853 l83,-146 0,146 -83,0z" /><path style="fill:#f2e5cc;stroke:#4c4c4c;stroke-width:2" d="M727,977 l188,0 0,22 -188,0 0,-22z" /><path style="fill:#f2e5cc;stroke:#4c4c4c;stroke-width:2" d="M0,977 l185,0 0,22 -185,0 0,-22z" /><path style="fill:#bfb299;stroke:#4c4c4c;stroke-width:2" d="M467,894 l20,0 0,83 -20,0 0,-83z" /><path style="fill:#bfb299;stroke:#4c4c4c;stroke-width:2" d="M425,894 l22,0 0,83 -22,0 0,-83z" /><path style="fill:#f2e5cc;stroke:#4c4c4c;stroke-width:2" d="M509,873 l-104,0 0,21 104,0 0,-21z" /><path style="fill:#bfb299;stroke:#4c4c4c;stroke-width:2" d="M165,749 l20,0 0,104 -20,0 0,-104z" /><path style="fill:#bfb299;stroke:#4c4c4c;stroke-width:2" d="M123,749 l23,0 0,104 -23,0 0,-104z" /><path style="fill:#bfb299;stroke:#4c4c4c;stroke-width:2" d="M769,749 l20,0 0,104 -20,0 0,-104z" /><path style="fill:#bfb299;stroke:#4c4c4c;stroke-width:2" d="M727,749 l22,0 0,104 -22,0 0,-104z" /><path style="fill:#f2e5cc;stroke:#4c4c4c;stroke-width:2" d="M811,727 l-104,0 0,22 104,0 0,-22z" /><path style="fill:#f2e5cc;stroke:#4c4c4c;stroke-width:2" d="M104,727 l104,0 0,22 -104,0 0,-22z" /><path style="fill:#333;stroke:#4c4c4c;stroke-width:2" d="M509,873 l-104,0 0,-40 104,0 0,40z" /><path style="fill:#333;stroke:#4c4c4c;stroke-width:2" d="M411,857 l-10,-16 -6,-20 0,-20 6,-18 10,-16 16,-12 20,-6 20,0 18,6 16,12 12,16 6,18 0,20 -6,20 -12,16 -16,10 -18,6 -20,0 -20,-6 -16,-10z" /><circle style="fill:#666" cx="456" cy="812" r="41" /><circle style="fill:#000" cx="457" cy="811" r="10" /><path style="fill:#333" d="M185,635 l-124,0 0,92 124,0 0,-92z" /><path style="fill:#4c4c4c" d="M185,643 l-124,0 0,76 124,0 0,-76z" /><path style="fill:#666" d="M185,655 l-124,0 0,52 124,0 0,-52z" /><path style="fill:#7f7f7f" d="M185,669 l-124,0 0,24 124,0 0,-24z" /><path style="fill:none;stroke:#4c4c4c;stroke-width:2" d="M185,635 l-124,0 0,92 124,0 0,-92" /><path style="fill:#666" d="M61,671 l-41,0 0,32 41,0 0,-32z" /><path style="fill:#7f7f7f" d="M61,681 l-41,0 0,10 41,0 0,-10z" /><path style="fill:none;stroke:#4c4c4c;stroke-width:2" d="M61,665 l-41,0 0,42 41,0 0,-42" /><path style="fill:#333" d="M853,697 l42,0 0,-42 -42,0 0,42z" /><path style="fill:#333" d="M727,727 l126,0 0,-94 -126,0 0,94z" /><path style="fill:#4c4c4c" d="M727,719 l126,0 0,-76 -126,0 0,76z" /><path style="fill:#666" d="M727,707 l126,0 0,-52 -126,0 0,52z" /><path style="fill:#7f7f7f" d="M727,693 l126,0 0,-24 -126,0 0,24z" /><path style="fill:none;stroke:#4c4c4c;stroke-width:2" d="M727,727 l126,0 0,-94 -126,0 0,94" /><path style="fill:#666" d="M853,691 l42,0 0,-32 -42,0 0,32z" /><path style="fill:#7f7f7f" d="M853,681 l42,0 0,-10 -42,0 0,10z" /><path style="fill:none;stroke:#4c4c4c;stroke-width:2" d="M853,697 l42,0 0,-42 -42,0 0,42" /><path style="fill:#f2e5cc" d="M208,477 l499,0 0,188 -499,0 0,-188z" /><path style="fill:#ede0c7" d="M208,611 l499,-78 0,132 -499,0 0,-54z" /><path style="fill:#e8dbc2" d="M208,619 l499,-78 0,124 -499,0 0,-46z" /><path style="fill:#e3d6bd" d="M208,631 l499,-78 0,112 -499,0 0,-34z" /><path style="fill:none;stroke:#4c4c4c;stroke-width:2" d="M208,477 l499,0 0,188 -499,0 0,-188" /><path style="fill:#f2e5cc;stroke:#4c4c4c;stroke-width:2" d="M289,457 l334,0 0,84 -334,0 0,-84z" /><path style="fill:#333" d="M185,83 l0,-83 -39,0 0,83 39,0z" /><path style="fill:#4c4c4c" d="M181,83 l0,-83 -31,0 0,83 31,0z" /><path style="fill:#666" d="M177,83 l0,-83 -23,0 0,83 23,0z" /><path style="fill:#7f7f7f" d="M171,83 l0,-83 -12,0 0,83 12,0z" /><path style="fill:none;stroke:#4c4c4c;stroke-width:2" d="M185,83 l0,-83 -39,0 0,83 39,0" /><path style="fill:#333" d="M769,83 l0,-83 -42,0 0,83 42,0z" /><path style="fill:#4c4c4c" d="M765,83 l0,-83 -32,0 0,83 32,0z" /><path style="fill:#666" d="M761,83 l0,-83 -24,0 0,83 24,0z" /><path style="fill:#7f7f7f" d="M753,83 l0,-83 -10,0 0,83 10,0z" /><path style="fill:none;stroke:#4c4c4c;stroke-width:2" d="M769,83 l0,-83 -42,0 0,83 42,0" /><path style="fill:#e5e5e5;stroke:#4c4c4c;stroke-width:2" d="M395,61 l124,0 0,104 -124,0 0,-104z" /><path style="fill:#666" d="M405,71 l104,0 0,33 -104,0 0,-33z" /><path style="fill:#999" d="M405,123 l104,0 0,32 -104,0 0,-32z" /><path style="fill:#665940" d="M279,387 l30,58 30,0 30,-58 -30,0 -16,28 -14,-28 -30,0z" /><path style="fill:#665940" d="M369,387 l28,58 30,0 30,-58 -30,0 -14,28 -16,-28 -28,0z" /><path style="fill:#665940" d="M457,387 l30,58 28,0 30,-58 -30,0 -14,28 -14,-28 -30,0z" /><path style="fill:#665940" d="M545,387 l30,58 30,0 28,-58 -28,0 -16,28 -14,-28 -30,0z" /><path style="fill:#998c73" d="M217,301 l20,0 0,552 -20,0 0,-552z" /><path style="fill:#f2e5cc" d="M225,301 l6,0 0,552 -6,0 0,-552z" /><path style="fill:#f2e5cc;stroke:#4c4c4c;stroke-width:2" d="M208,291 l499,0 0,20 -499,0 0,-20z" /></svg>