<!DOCTYPE svg PUBLIC "-//W3C//DTD SVG 20000303 Stylable//EN" "http://www.w3.org/TR/2000/03/WD-SVG-20000303/DTD/svg-20000303-stylable.dtd"[]><svg xmlns="http://www.w3.org/2000/svg" width="999px" height="853px" viewBox="0 0 999 845"><path style="fill:#b2b2b2;stroke:#4c4c4c;stroke-width:2" d="M923,129 l18,0 0,230 -18,0 0,-230z" /><path style="fill:#7f7f7f" d="M173,95 l-135,0 0,-92 135,0 0,92z" /><path style="fill:#999" d="M173,89 l-135,0 0,-80 135,0 0,80z" /><path style="fill:#b2b2b2" d="M173,79 l-135,0 0,-59 135,0 0,59z" /><path style="fill:#ccc" d="M173,71 l-135,0 0,-42 135,0 0,42z" /><path style="fill:#e5e5e5" d="M173,64 l-135,0 0,-28 135,0 0,28z" /><path style="fill:#fff" d="M173,55 l-135,0 0,-11 135,0 0,11z" /><path style="fill:none;stroke:#4c4c4c;stroke-width:2" d="M173,95 l-135,0 0,-92 135,0 0,92" /><path style="fill:none;stroke:#4c4c4c;stroke-width:2" d="M75,3 l0,92" /><path style="fill:#333" d="M173,51 l-78,0 0,-48 78,0 0,48z" /><path style="fill:#333" d="M173,115 l-116,0 0,-20 116,0 0,20z" /><path style="fill:#4c4c4c;stroke:#4c4c4c;stroke-width:2" d="M849,383 l34,0 0,424 -34,0 0,-424z" /><path style="fill:#4c4c4c;stroke:#4c4c4c;stroke-width:2" d="M38,383 l35,0 0,424 -35,0 0,-424z" /><path style="fill:#b2b2b2" d="M0,115 l923,0 0,268 -923,0 0,-268z" /><path style="fill:#adadad" d="M0,305 l923,-112 0,190 -923,0 0,-78z" /><path style="fill:#a8a8a8" d="M0,317 l923,-112 0,178 -923,0 0,-66z" /><path style="fill:#a3a3a3" d="M0,333 l923,-112 0,162 -923,0 0,-50z" /><path style="fill:none;stroke:#4c4c4c;stroke-width:2" d="M0,115 l923,0 0,268 -923,0 0,-268" /><path style="fill:#999;stroke:#4c4c4c;stroke-width:2" d="M883,383 l40,0 0,462 -40,0 0,-462z" /><path style="fill:#999;stroke:#4c4c4c;stroke-width:2" d="M0,383 l38,0 0,462 -38,0 0,-462z" /><path style="fill:#4c4c4c" d="M191,307 l20,0 0,76 -20,0 0,-76z" /><path style="fill:#4c4c4c" d="M711,307 l18,0 0,76 -18,0 0,-76z" /><path style="fill:#ccc" d="M923,115 l-20,-115 -96,0 -20,95 -500,0 -18,-95 -96,0 -20,115 770,0z" /><path style="fill:#e5e5e5" d="M919,91 l-16,-91 -96,0 -20,95 132,-4z" /><path style="fill:#e5e5e5" d="M287,95 l-18,-95 -96,0 -16,91 130,4z" /><path style="fill:none;stroke:#4c4c4c;stroke-width:2" d="M923,115 l-20,-115 -96,0 -20,95 -500,0 -18,-95 -96,0 -20,115 770,0" /><path style="fill:#4c4c4c;stroke:#4c4c4c;stroke-width:2" d="M845,595 l0,38 -770,0 0,-38 770,0z" /><path style="fill:#7f7f7f;stroke:#4c4c4c;stroke-width:2" d="M883,615 l0,38 -845,0 0,-38 845,0z" /><path style="fill:#666;stroke:#4c4c4c;stroke-width:2" d="M941,201 l58,0 0,140 -58,0 0,-140z" /></svg>