<!DOCTYPE svg PUBLIC "-//W3C//DTD SVG 20000303 Stylable//EN" "http://www.w3.org/TR/2000/03/WD-SVG-20000303/DTD/svg-20000303-stylable.dtd"[]><svg xmlns="http://www.w3.org/2000/svg" width="999px" height="731px" viewBox="0 0 998 715"><path style="fill:#333;stroke:#4c4c4c;stroke-width:2" d="M91,20 l634,0 0,695 -634,0 0,-695z" /><path style="fill:#666" d="M135,294 l210,0 0,-191 -210,0 0,191z" /><path style="fill:#4c4c4c" d="M239,294 l401,0 0,190 -401,0 0,-190z" /><path style="fill:#666" d="M957,103 l41,0 0,359 -41,0 0,-359z" /><path style="fill:#ccc" d="M725,0 l232,0 0,357 -232,0 0,-357z" /><path style="fill:#c7c7c7" d="M725,253 l232,-150 0,254 -232,0 0,-104z" /><path style="fill:#c2c2c2" d="M725,269 l232,-150 0,238 -232,0 0,-88z" /><path style="fill:#bdbdbd" d="M725,291 l232,-150 0,216 -232,0 0,-66z" /><path style="fill:none;stroke:#4c4c4c;stroke-width:2" d="M725,0 l232,0 0,357 -232,0 0,-357" /><path style="fill:#ccc" d="M725,357 l232,0 0,358 -232,0 0,-358z" /><path style="fill:#c7c7c7" d="M725,612 l232,-150 0,253 -232,0 0,-103z" /><path style="fill:#c2c2c2" d="M725,626 l232,-150 0,239 -232,0 0,-89z" /><path style="fill:#bdbdbd" d="M725,650 l232,-152 0,217 -232,0 0,-65z" /><path style="fill:none;stroke:#4c4c4c;stroke-width:2" d="M725,357 l232,0 0,358 -232,0 0,-358" /><path style="fill:#707070" d="M957,125 l41,0 0,331 -41,0 0,-331z" /><path style="fill:#7a7a7a" d="M957,145 l41,0 0,305 -41,0 0,-305z" /><path style="fill:#858585" d="M957,167 l41,0 0,277 -41,0 0,-277z" /><path style="fill:#8f8f8f" d="M957,189 l41,0 0,247 -41,0 0,-247z" /><path style="fill:#999" d="M957,209 l41,0 0,221 -41,0 0,-221z" /><path style="fill:#a3a3a3" d="M957,231 l41,0 0,193 -41,0 0,-193z" /><path style="fill:#adadad" d="M957,251 l41,0 0,167 -41,0 0,-167z" /><path style="fill:#b8b8b8" d="M957,273 l41,0 0,139 -41,0 0,-139z" /><path style="fill:#c2c2c2" d="M957,293 l41,0 0,111 -41,0 0,-111z" /><path style="fill:#ccc" d="M957,315 l41,0 0,83 -41,0 0,-83z" /><path style="fill:none;stroke:#4c4c4c;stroke-width:2" d="M957,103 l41,0 0,359 -41,0 0,-359" /><path style="fill:#b2b2b2" d="M155,673 l632,0 0,42 -632,0 0,-42z" /><path style="fill:#b2b2b2;stroke:#4c4c4c;stroke-width:2" d="M662,357 l63,0 0,63 -63,0 0,-63z" /><path style="fill:#b2b2b2;stroke:#4c4c4c;stroke-width:2" d="M450,504 l212,0 0,22 -212,0 0,-22z" /><path style="fill:#b2b2b2;stroke:#4c4c4c;stroke-width:2" d="M492,336 l170,0 0,126 -170,0 0,-126z" /><path style="fill:#666" d="M71,167 l148,0 0,148 -148,0 0,-148z" /><path style="fill:#999" d="M704,484 l-549,0 -20,189 590,0 -21,-189z" /><path style="fill:#b2b2b2" d="M472,231 l20,0 0,337 -20,0 0,-337z" /><path style="fill:#999" d="M155,673 l0,42 -125,0 0,-22 125,-20z" /><path style="fill:#7f7f7f" d="M787,673 l128,20 0,22 -128,0 0,-42z" /><path style="fill:none;stroke:#4c4c4c;stroke-width:2" d="M155,673 l632,0 128,20 0,22 -885,0 0,-22 125,-20" /><path style="fill:#b2b2b2" d="M534,673 l0,-189 170,0 21,189 -43,-169 -126,0 0,169 -22,0z" /><path style="fill:#7f7f7f" d="M725,673 l-63,-147 -106,0 0,-22 126,0 43,169z" /><path style="fill:none;stroke:#4c4c4c;stroke-width:2" d="M534,673 l0,-189 170,0 21,189 -43,-169 -126,0 0,169 -22,0" /><path style="fill:#666" d="M472,442 l20,0 0,84 -20,0 0,-84z" /><path style="fill:#666" d="M472,253 l20,0 0,62 -20,0 0,-62z" /><path style="fill:none;stroke:#4c4c4c;stroke-width:2" d="M472,253 l20,0" /><path style="fill:none;stroke:#fff;stroke-width:2" d="M472,315 l20,0" /><path style="fill:none;stroke:#4c4c4c;stroke-width:2" d="M472,442 l20,0" /><path style="fill:none;stroke:#fff;stroke-width:2" d="M472,526 l20,0" /><path style="fill:none;stroke:#4c4c4c;stroke-width:2" d="M472,231 l20,0 0,337 -20,0 0,-337" /><path style="fill:#4c4c4c" d="M386,294 l-19,0 0,-147 19,0 0,147z" /><path style="fill:#4c4c4c" d="M430,294 l-22,0 0,-147 22,0 0,147z" /><path style="fill:#7f7f7f" d="M725,147 l-380,0 0,-44 380,0 0,44z" /><path style="fill:#666" d="M576,294 l149,0 0,-147 -149,0 0,147z" /><path style="fill:#ccc" d="M7,462 l128,0 0,190 -128,0 0,-190z" /><path style="fill:#c7c7c7" d="M7,598 l128,-80 0,134 -128,0 0,-54z" /><path style="fill:#c2c2c2" d="M7,606 l128,-80 0,126 -128,0 0,-46z" /><path style="fill:#bdbdbd" d="M7,618 l128,-80 0,114 -128,0 0,-34z" /><path style="fill:none;stroke:#4c4c4c;stroke-width:2" d="M7,462 l128,0 0,190 -128,0 0,-190" /><path style="fill:#7f7f7f" d="M472,420 l-253,0 0,-42 253,0 0,42z" /><path style="fill:#999" d="M472,418 l-253,0 0,-38 253,0 0,38z" /><path style="fill:#b2b2b2" d="M472,414 l-253,0 0,-30 253,0 0,30z" /><path style="fill:#ccc" d="M472,408 l-253,0 0,-18 253,0 0,18z" /><path style="fill:#e5e5e5" d="M472,406 l-253,0 0,-14 253,0 0,14z" /><path style="fill:#fff" d="M472,402 l-253,0 0,-6 253,0 0,6z" /><path style="fill:none;stroke:#4c4c4c;stroke-width:2" d="M472,420 l-253,0 0,-42 253,0 0,42" /><path style="fill:#6e6e6e" d="M71,167 l148,0 0,90 -148,0 0,-90z" /><path style="fill:#787878" d="M71,167 l148,0 0,74 -148,0 0,-74z" /><path style="fill:#7f7f7f" d="M71,167 l148,0 0,58 -148,0 0,-58z" /><path style="fill:#878787" d="M71,167 l148,0 0,42 -148,0 0,-42z" /><path style="fill:#919191" d="M71,167 l148,0 0,26 -148,0 0,-26z" /><path style="fill:#999" d="M71,167 l148,0 0,10 -148,0 0,-10z" /><path style="fill:none;stroke:#4c4c4c;stroke-width:2" d="M71,167 l148,0 0,148 -148,0 0,-148" /><path style="fill:#666" d="M49,315 l170,0 0,147 -170,0 0,-147z" /><path style="fill:#6e6e6e" d="M52,315 l167,0 0,89 -167,0 0,-89z" /><path style="fill:#787878" d="M52,315 l167,0 0,73 -167,0 0,-73z" /><path style="fill:#7f7f7f" d="M52,315 l167,0 0,57 -167,0 0,-57z" /><path style="fill:#878787" d="M52,315 l167,0 0,42 -167,0 0,-42z" /><path style="fill:#919191" d="M52,315 l167,0 0,26 -167,0 0,-26z" /><path style="fill:#999" d="M49,315 l170,0 0,11 -170,0 0,-11z" /><path style="fill:none;stroke:#4c4c4c;stroke-width:2" d="M49,315 l170,0 0,147 -170,0 0,-147" /><path style="fill:#4c4c4c" d="M135,462 l-128,0 -3,-10 -3,-18 -1,-22 0,-26 1,-22 3,-18 3,-10 128,0 4,10 2,16 2,24 0,26 -2,22 -2,18 -4,10z" /><path style="fill:#666" d="M4,452 l-3,-18 -1,-22 0,-26 1,-22 3,-18 3,-10 128,0 4,10 2,16 2,24 0,26 -2,22 -2,18 -135,0z" /><path style="fill:#7f7f7f" d="M1,434 l-1,-22 0,-26 1,-22 3,-18 135,0 2,16 2,24 0,26 -2,22 -140,0z" /><path style="fill:#999" d="M0,412 l0,-26 1,-22 140,-2 2,24 0,26 -143,0z" /><path style="fill:none;stroke:#4c4c4c;stroke-width:2" d="M135,462 l-128,0 -3,-10 -3,-18 -1,-22 0,-26 1,-22 3,-18 3,-10 128,0 4,10 2,16 2,24 0,26 -2,22 -2,18 -4,10" /></svg>