<!DOCTYPE svg PUBLIC "-//W3C//DTD SVG 20000303 Stylable//EN" "http://www.w3.org/TR/2000/03/WD-SVG-20000303/DTD/svg-20000303-stylable.dtd"[]><svg xmlns="http://www.w3.org/2000/svg" width="998px" height="948px" viewBox="0 0 999 945"><path style="fill:#333" d="M96,687 l0,258 151,0 20,-22 258,0 22,22 452,0 0,-258 -903,0z" /><path style="fill:#191919" d="M805,713 l22,-20 0,246 -22,0 0,-226z" /><path style="fill:#191919" d="M247,687 l0,258 20,-22 258,0 22,22 0,-258 -300,0z" /><path style="fill:#ccc" d="M139,134 l172,0 0,59 -172,0 0,-59z" /><path style="fill:#ccc" d="M827,557 l54,0 0,130 -54,0 0,-130z" /><path style="fill:#c7c7c7" d="M139,175 l172,-24 0,42 -172,0 0,-18z" /><path style="fill:#c7c7c7" d="M827,623 l54,-28 0,92 -54,0 0,-64z" /><path style="fill:#c2c2c2" d="M139,177 l172,-24 0,40 -172,0 0,-16z" /><path style="fill:#c2c2c2" d="M827,633 l54,-26 0,80 -54,0 0,-54z" /><path style="fill:#bdbdbd" d="M139,181 l172,-24 0,36 -172,0 0,-12z" /><path style="fill:#bdbdbd" d="M827,643 l54,-26 0,70 -54,0 0,-44z" /><path style="fill:#f00;stroke:#4c4c4c;stroke-width:2" d="M17,585 l11,-18 -21,-8 -7,18 17,8z" /><path style="fill:none;stroke:#4c4c4c;stroke-width:2" d="M96,687 l0,258 151,0 20,-22 258,0 22,22 452,0 0,-258 -903,0" /><path style="fill:#e5e5e5" d="M75,709 l730,0 22,-22 0,-560 -22,0 0,-20 44,0 0,-22 -194,0 0,-85 -258,0 0,85 -86,22 0,86 -258,0 0,494 22,22z" /><path style="fill:#e0e0e0" d="M75,709 l730,0 22,-22 0,-408 -774,172 0,236 22,22z" /><path style="fill:#dbdbdb" d="M75,709 l730,0 22,-22 0,-388 -774,172 0,216 22,22z" /><path style="fill:#d6d6d6" d="M75,709 l730,0 22,-22 0,-366 -774,172 0,194 22,22z" /><path style="fill:none;stroke:#fff;stroke-width:2" d="M655,193 l0,450 -258,0" /><path style="fill:#b2b2b2" d="M75,709 l730,0 22,-22 -774,0 22,22z" /><path style="fill:none;stroke:#4c4c4c;stroke-width:2" d="M75,709 l730,0 22,-22 0,-560 -22,0 0,-20 44,0 0,-22 -194,0 0,-85 -258,0 0,85 -86,22 0,86 -258,0 0,494 22,22" /><path style="fill:#333" d="M317,193 l20,-21 0,429 -20,-22 0,-386z" /><path style="fill:#ccc;stroke:#4c4c4c;stroke-width:2" d="M337,172 l22,0 0,429 -22,0 0,-429z" /><path style="fill:none;stroke:#ccc;stroke-width:2" d="M327,365 l0,-162" /><path style="fill:#ffb27f" d="M665,471 l32,0 0,12 -32,0 0,-12z" /><path style="fill:#000;stroke:#4c4c4c;stroke-width:2" d="M451,569 l-12,-10 0,-280 12,-12 150,0 12,12 0,280 -12,10 -150,0z" /><path style="fill:#4c4c4c;stroke:#4c4c4c;stroke-width:2" d="M455,563 l-10,-10 0,-270 10,-10 140,0 12,10 0,270 -12,10 -140,0z" /><path style="fill:none;stroke:#fff;stroke-width:2" d="M505,499 l58,-86" /><path style="fill:none;stroke:#fff;stroke-width:2" d="M489,451 l80,-118" /><path style="fill:none;stroke:#fff;stroke-width:2" d="M489,365 l36,-50" /><path style="fill:#999" d="M149,563 l-10,-10 0,-270 10,-10 64,0 12,10 0,270 -12,10 -64,0z" /><path style="fill:none;stroke:#4c4c4c;stroke-width:2" d="M827,557 l54,0 0,130 -54,0 0,-130" /><path style="fill:none;stroke:#4c4c4c;stroke-width:2" d="M139,134 l172,0 0,59 -172,0 0,-59" /><path style="fill:#000;stroke:#4c4c4c;stroke-width:2" d="M53,601 l-48,0 0,-16 32,-64 16,0 0,80z" /><path style="fill:none;stroke:#4c4c4c;stroke-width:2" d="M32,601 l2,27 3,24 4,20 4,17 5,15 4,12 5,9 5,8 5,6 5,4 5,3 4,2 4,1 3,1 3,0 3,1" /><path style="fill:#333" d="M157,397 l-8,-4 0,-116 8,-4 48,0 8,4 2,116 -10,4 -48,0z" /><path style="fill:#333" d="M157,563 l-8,-4 0,-100 8,-4 48,0 8,4 2,100 -10,4 -48,0z" /><path style="fill:none;stroke:#4c4c4c;stroke-width:2" d="M149,563 l-10,-10 0,-270 10,-10 64,0 12,10 0,270 -12,10 -64,0" /><path style="fill:#7f7f7f;stroke:#4c4c4c;stroke-width:2" d="M783,827 l0,26 -414,0 0,-26 414,0z" /><path style="fill:#7f7f7f;stroke:#4c4c4c;stroke-width:2" d="M343,665 l26,0 0,188 -26,0 0,-188z" /><path style="fill:#b2b2b2" d="M783,831 l0,18 -414,0 0,-18 414,0z" /><path style="fill:#b2b2b2" d="M349,665 l16,0 0,188 -16,0 0,-188z" /><path style="fill:#e5e5e5" d="M783,839 l0,2 -414,0 0,-2 414,0z" /><path style="fill:#e5e5e5" d="M355,665 l4,0 0,188 -4,0 0,-188z" /><path style="fill:#ccc" d="M677,107 l128,0 0,20 -128,0 0,-20z" /><path style="fill:none;stroke:#7f7f7f;stroke-width:2" d="M805,107 l-128,0" /><path style="fill:none;stroke:#7f7f7f;stroke-width:2" d="M655,193 l-258,0 0,450" /><path style="fill:#fc0" d="M837,617 l16,0 0,10 -16,0 0,-10z" /></svg>