<!DOCTYPE svg PUBLIC "-//W3C//DTD SVG 20000303 Stylable//EN" "http://www.w3.org/TR/2000/03/WD-SVG-20000303/DTD/svg-20000303-stylable.dtd"[]><svg xmlns="http://www.w3.org/2000/svg" width="212px" height="998px" viewBox="0 0 165 999"><path style="fill:#7f7f7f;stroke:#4c4c4c;stroke-width:2" d="M165,957 l-84,42 -81,-42 20,-104 -20,-62 0,-62 20,-64 -20,-62 0,-62 20,-62 -20,-64 0,-415 165,0 0,415 -22,64 22,62 0,62 -22,62 22,64 0,62 -22,62 22,104z" /><path style="fill:#999" d="M147,311 l-132,104 0,-415 132,0 0,311z" /><path style="fill:#b2b2b2" d="M131,321 l-100,94 0,-415 100,0 0,321z" /><path style="fill:#ccc" d="M113,333 l-63,82 0,-415 63,0 0,333z" /><path style="fill:#e5e5e5" d="M98,353 l-33,62 0,-415 33,0 0,353z" /><path style="fill:#666" d="M65,988 l-52,-26 74,-89 56,-20 12,62 0,16 -42,5 -48,52z" /><path style="fill:#666" d="M20,853 l-20,-62 87,-104 56,-22 22,64 0,14 -52,6 -93,104z" /><path style="fill:#666" d="M20,665 l-20,-62 87,-104 56,-20 22,62 0,14 -52,6 -93,104z" /><path style="fill:#666" d="M20,477 l-20,-62 87,-104 56,-20 22,62 0,16 -52,4 -93,104z" /><path style="fill:#999" d="M46,363 l41,-46 52,-22 16,32 -109,36z" /><path style="fill:#999" d="M46,551 l41,-48 52,-20 16,32 -109,36z" /><path style="fill:#999" d="M46,739 l41,-48 52,-20 16,30 -109,38z" /><path style="fill:#999" d="M46,924 l41,-45 52,-20 11,30 -104,35z" /><path style="fill:#999" d="M81,993 l-9,-5 41,-52 37,26 -69,31z" /><path style="fill:#4c4c4c" d="M65,988 l-26,-15 12,-11 62,-26 -48,52z" /><path style="fill:#4c4c4c" d="M20,853 l-10,-32 41,-46 62,-26 -93,104z" /><path style="fill:#4c4c4c" d="M20,665 l-10,-30 41,-48 62,-26 -93,104z" /><path style="fill:#4c4c4c" d="M20,477 l-10,-30 41,-48 62,-26 -93,104z" /><path style="fill:#ccc" d="M139,411 l-41,46 -52,20 31,-36 62,-30z" /><path style="fill:#ccc" d="M139,597 l-41,48 -52,20 31,-36 62,-32z" /><path style="fill:#ccc" d="M139,785 l-41,48 -52,20 31,-36 62,-32z" /></svg>