<!DOCTYPE svg PUBLIC "-//W3C//DTD SVG 20000303 Stylable//EN" "http://www.w3.org/TR/2000/03/WD-SVG-20000303/DTD/svg-20000303-stylable.dtd"[]><svg xmlns="http://www.w3.org/2000/svg" width="999px" height="371px" viewBox="0 0 999 333"><path style="fill:#699;stroke:#4c4c4c;stroke-width:2" d="M853,125 l136,0 0,198 -136,0 0,-198z" /><path style="fill:#699;stroke:#4c4c4c;stroke-width:2" d="M9,0 l198,0 0,323 -198,0 0,-323z" /><path style="fill:#5e9191" d="M9,323 l198,-74 0,74 -198,0z" /><path style="fill:#5e9191" d="M853,323 l0,-22 136,-52 0,74 -136,0z" /><path style="fill:#366" d="M9,177 l198,0 0,42 -198,0 0,-42z" /><path style="fill:#033;stroke:#4c4c4c;stroke-width:2" d="M145,125 l834,0 -2,62 -124,0 0,68 -646,0 0,-68 -62,0 0,-62z" /><path style="fill:#9cc" d="M0,187 l999,0 0,10 -156,0 0,52 -626,0 0,-52 -217,0 0,-10z" /><path style="fill:#8cbfbf" d="M217,249 l626,0 0,-52 -626,52z" /><path style="fill:none;stroke:#4c4c4c;stroke-width:2" d="M0,187 l999,0 0,10 -156,0 0,52 -626,0 0,-52 -217,0 0,-10" /><path style="fill:#366" d="M145,67 l62,0 0,26 -62,0 0,-26z" /><path style="fill:#4c7f7f" d="M145,93 l62,0 0,32 -62,0 0,-32z" /><path style="fill:none;stroke:#4c4c4c;stroke-width:2" d="M145,125 l0,-58 62,0" /><path style="fill:#366" d="M151,21 l52,0 0,20 -52,0 0,-20z" /><path style="fill:none;stroke:#033;stroke-width:2" d="M149,41 l0,-20 52,0" /><path style="fill:none;stroke:#9cc;stroke-width:2" d="M201,19 l0,22 -52,0" /><path style="fill:#b2b2b2" d="M71,31 l64,0 0,56 -64,0 0,-56z" /><path style="fill:#ababab" d="M71,73 l64,-26 0,40 -64,0 0,-14z" /><path style="fill:#a1a1a1" d="M71,77 l64,-26 0,36 -64,0 0,-10z" /><path style="fill:#999" d="M71,83 l64,-26 0,30 -64,0 0,-4z" /><path style="fill:none;stroke:#fff;stroke-width:2" d="M71,89 l0,-58 64,0" /><path style="fill:none;stroke:#4c4c4c;stroke-width:2" d="M135,31 l0,56 -64,0" /><path style="fill:#4c4c4c" d="M83,41 l4,0 0,22 -4,0 0,-22z" /><path style="fill:#4c4c4c" d="M105,41 l6,2 -6,20 -4,-2 4,-20z" /><path style="fill:#4c4c4c" d="M119,61 l4,0 0,6 -4,0 0,-6z" /><path style="fill:#4c4c4c" d="M119,73 l4,0 0,4 -4,0 0,-4z" /><path style="fill:#4c4c4c" d="M97,73 l6,0 0,4 -6,0 0,-4z" /><path style="fill:none;stroke:#699;stroke-width:2" d="M479,193 l0,52" /><path style="fill:none;stroke:#cff;stroke-width:2" d="M483,193 l0,52" /><path style="fill:#699;stroke:#4c4c4c;stroke-width:2" d="M541,323 l0,-74 42,0 0,74 -42,0z" /><path style="fill:#9cc;stroke:#4c4c4c;stroke-width:2" d="M529,333 l12,-22 42,0 10,22 -64,0z" /><path style="fill:#9cc;stroke:#4c4c4c;stroke-width:2" d="M957,311 l32,0 10,22 -156,0 10,-22 32,0 10,12 52,0 10,-12z" /><path style="fill:#9cc;stroke:#4c4c4c;stroke-width:2" d="M175,311 l32,0 10,22 -217,0 9,-22 32,0 10,12 114,0 10,-12z" /><path style="fill:#033" d="M863,291 l10,0 0,20 -10,0 0,-20z" /><path style="fill:#033" d="M967,291 l12,0 0,20 -12,0 0,-20z" /><path style="fill:#033" d="M19,291 l12,0 0,20 -12,0 0,-20z" /><path style="fill:#033" d="M187,291 l10,0 0,20 -10,0 0,-20z" /><path style="fill:#033" d="M557,291 l10,0 0,20 -10,0 0,-20z" /><path style="fill:#9cc;stroke:#4c4c4c;stroke-width:2" d="M207,119 l782,0 0,6 -782,0 0,-6z" /><path style="fill:#999;stroke:#4c4c4c;stroke-width:2" d="M145,161 l834,0 0,10 -834,0 0,-10z" /><path style="fill:#999;stroke:#4c4c4c;stroke-width:2" d="M145,135 l834,0 0,10 -834,0 0,-10z" /><path style="fill:#e5e5e5" d="M149,139 l824,0 0,2 -824,0 0,-2z" /><path style="fill:#e5e5e5" d="M149,165 l824,0 0,2 -824,0 0,-2z" /><path style="fill:#9cc;stroke:#4c4c4c;stroke-width:2" d="M333,103 l166,0 0,32 -166,0 0,-32z" /><path style="fill:#699" d="M395,61 l42,0 0,42 -42,0 0,-42z" /><path style="fill:#9cc" d="M395,61 l42,0 0,12 -42,0 0,-12z" /><path style="fill:none;stroke:#4c4c4c;stroke-width:2" d="M395,61 l42,0 0,42 -42,0 0,-42" /><path style="fill:#699;stroke:#4c4c4c;stroke-width:2" d="M353,135 l126,0 0,58 -126,0 0,-58z" /><circle style="fill:#9cc;stroke:#4c4c4c;stroke-width:2" cx="358" cy="150" r="27" /><path style="fill:none;stroke:#366;stroke-width:2" d="M435,139 l0,48" /><path style="fill:none;stroke:#366;stroke-width:2" d="M389,139 l0,48" /><path style="fill:none;stroke:#9cc;stroke-width:2" d="M441,139 l0,48" /><path style="fill:none;stroke:#9cc;stroke-width:2" d="M395,139 l0,48" /><path style="fill:#699" d="M5,125 l140,0 0,52 -140,0 0,-52z" /><path style="fill:#7fb2b2" d="M5,129 l140,0 0,42 -140,0 0,-42z" /><path style="fill:#9cc" d="M5,135 l140,0 0,32 -140,0 0,-32z" /><path style="fill:none;stroke:#4c4c4c;stroke-width:2" d="M5,125 l140,0 0,52 -140,0 0,-52" /><path style="fill:none;stroke:#4c4c4c;stroke-width:2" d="M359,125 l0,52" /><path style="fill:none;stroke:#4c4c4c;stroke-width:2" d="M385,151 l-52,0" /><path style="fill:none;stroke:#4c4c4c;stroke-width:2" d="M339,133 l38,36" /><path style="fill:none;stroke:#4c4c4c;stroke-width:2" d="M377,133 l-38,36" /><path style="fill:#7fb2b2" d="M833,119 l4,-26 114,0 6,26 -124,0z" /><path style="fill:#699" d="M837,93 l0,-46 -16,0 0,-26 130,0 0,72 -114,0z" /><path style="fill:#033" d="M941,67 l10,26 0,-32 -46,-10 36,16z" /><path style="fill:#366" d="M905,51 l0,-4 46,10 0,4 -46,-10z" /><path style="fill:#366" d="M869,21 l-6,30 0,-30 6,0z" /><path style="fill:#366" d="M885,21 l4,30 0,-30 -4,0z" /><path style="fill:#366" d="M951,31 l-46,-6 46,0 0,6z" /><path style="fill:#9cc" d="M821,25 l16,0 0,16 -16,0 0,-16z" /><path style="fill:none;stroke:#4c4c4c;stroke-width:2" d="M833,119 l4,-26 0,-46 -16,0 0,-26 130,0 0,72 6,26 -124,0" /><ellipse style="fill:#699" cx="952" cy="44" rx="11" ry="13" /><path style="fill:#366" d="M949,57 l-4,-4 -4,-6 0,-6 4,-6 6,12 -2,10z" /><ellipse style="fill:none;stroke:#4c4c4c;stroke-width:2" cx="952" cy="44" rx="11" ry="13" /><path style="fill:#9cc;stroke:#4c4c4c;stroke-width:2" d="M821,41 l-10,-8 10,-8 0,16z" /><path style="fill:none;stroke:#366;stroke-width:2" d="M337,109 l156,0" /></svg>