<!DOCTYPE svg PUBLIC "-//W3C//DTD SVG 20000303 Stylable//EN" "http://www.w3.org/TR/2000/03/WD-SVG-20000303/DTD/svg-20000303-stylable.dtd"[]><svg xmlns="http://www.w3.org/2000/svg" width="999px" height="174px" viewBox="0 0 999 125"><path style="fill:#b21919" d="M42,0 l914,0 0,42 -914,0 0,-42z" /><path style="fill:#b21919" d="M0,42 l999,0 0,83 -999,0 0,-83z" /><path style="fill:#ab1212" d="M42,30 l914,-18 0,30 -914,0 0,-12z" /><path style="fill:#ab1212" d="M0,101 l999,-36 0,60 -999,0 0,-24z" /><path style="fill:#a10808" d="M42,32 l914,-18 0,28 -914,0 0,-10z" /><path style="fill:#a10808" d="M0,105 l999,-35 0,55 -999,0 0,-20z" /><path style="fill:#900" d="M42,33 l914,-16 0,25 -914,0 0,-9z" /><path style="fill:#900" d="M0,110 l999,-35 0,50 -999,0 0,-15z" /><path style="fill:none;stroke:#e54c4c;stroke-width:2" d="M42,42 l0,-42 914,0" /><path style="fill:none;stroke:#e54c4c;stroke-width:2" d="M0,125 l0,-83 999,0" /><path style="fill:none;stroke:#4c0000;stroke-width:2" d="M999,42 l0,83 -999,0" /><path style="fill:none;stroke:#4c0000;stroke-width:2" d="M956,0 l0,42" /></svg>