<!DOCTYPE svg PUBLIC "-//W3C//DTD SVG 20000303 Stylable//EN" "http://www.w3.org/TR/2000/03/WD-SVG-20000303/DTD/svg-20000303-stylable.dtd"[]><svg xmlns="http://www.w3.org/2000/svg" width="866px" height="999px" viewBox="0 0 858 999"><path style="fill:#f2e5cc;stroke:#4c4c4c;stroke-width:2" d="M698,0 l73,0 0,213 -73,0 0,-213z" /><path style="fill:#ffb27f" d="M748,217 l0,-213 12,0 0,213 -12,0z" /><path style="fill:#333" d="M724,151 l0,-79 15,0 0,79 -15,0z" /><path style="fill:#f2e5cc;stroke:#4c4c4c;stroke-width:2" d="M109,926 l0,73 589,0 0,-197 160,0 0,-231 -18,0 0,-358 -142,0 0,-17 -303,0 0,17 -268,0 0,713 -18,0z" /><path style="fill:#ede0c7" d="M137,627 l699,-200 0,340 -699,0 0,-140z" /><path style="fill:#ede0c7" d="M119,932 l576,-89 0,151 -576,0 0,-62z" /><path style="fill:#e8dbc2" d="M137,649 l699,-202 0,320 -699,0 0,-118z" /><path style="fill:#e8dbc2" d="M119,941 l576,-90 0,143 -576,0 0,-53z" /><path style="fill:#e3d6bd" d="M137,677 l699,-200 0,290 -699,0 0,-90z" /><path style="fill:#e3d6bd" d="M119,955 l576,-91 0,130 -576,0 0,-39z" /><path style="fill:#e5cb98;stroke:#4c4c4c;stroke-width:2" d="M698,802 l55,0 0,142 -55,0 0,-142z" /><path style="fill:none;stroke:#d9b366;stroke-width:2" d="M145,857 l517,0 0,52 18,0 0,53 18,0" /><path style="fill:#ffb27f" d="M145,821 l535,0 0,22 -535,0 0,-22z" /><path style="fill:#333" d="M145,789 l144,0 0,26 -144,0 0,-26z" /><path style="fill:none;stroke:#4c4c4c;stroke-width:2" d="M127,771 l553,0" /><path style="fill:#f2e5cc" d="M680,571 l178,0 0,231 -178,0 0,-231z" /><path style="fill:#ede0c7" d="M680,735 l178,-96 0,163 -178,0 0,-67z" /><path style="fill:#e8dbc2" d="M680,745 l178,-98 0,155 -178,0 0,-57z" /><path style="fill:#e3d6bd" d="M680,759 l178,-96 0,139 -178,0 0,-43z" /><path style="fill:none;stroke:#fff;stroke-width:2" d="M685,607 l169,0" /><path style="fill:none;stroke:#d9b366;stroke-width:2" d="M685,601 l169,0" /><path style="fill:#630" d="M413,481 l249,0 0,268 -249,0 0,-268z" /><path style="fill:#960" d="M655,749 l0,-232 7,-36 0,268 -7,0z" /><path style="fill:#7f4c00" d="M413,517 l242,0 7,-36 -249,0 0,36z" /><path style="fill:#000" d="M521,623 l124,0 0,126 -124,0 0,-126z" /><path style="fill:none;stroke:#4c4c4c;stroke-width:2" d="M413,481 l249,0 0,268 -249,0 0,-268" /><path style="fill:#999;stroke:#4c4c4c;stroke-width:2" d="M431,481 l0,-214 231,0 0,214 -231,0z" /><path style="fill:#7f7f7f" d="M449,481 l0,-196 196,0 0,196 -196,0z" /><path style="fill:#eddbb7" d="M163,763 l-18,-52 0,-70 18,-174 268,0 18,174 0,70 -18,52 -268,0z" /><path style="fill:#f2e5cc" d="M145,641 l18,-174 268,0 18,174 -304,0z" /><path style="fill:#e8d1a3" d="M163,763 l-18,-52 304,0 -18,52 -268,0z" /><path style="fill:none;stroke:#4c4c4c;stroke-width:2" d="M163,763 l-18,-52 0,-70 18,-174 268,0 18,174 0,70 -18,52 -268,0" /><path style="fill:#f2e5cc" d="M127,767 l-18,-54 0,-72 18,-178 268,0 18,178 0,72 -18,54 -268,0z" /><path style="fill:#f7efe0" d="M109,641 l18,-178 268,0 18,178 -304,0z" /><path style="fill:#eddbb7" d="M127,767 l-18,-54 304,0 -18,54 -268,0z" /><path style="fill:none;stroke:#4c4c4c;stroke-width:2" d="M127,767 l-18,-54 0,-72 18,-178 268,0 18,178 0,72 -18,54 -268,0" /><path style="fill:#333" d="M423,615 l8,0 -8,-80 -8,0 8,80z" /><path style="fill:#333" d="M271,861 l88,0 0,88 -88,0 0,-88z" /><path style="fill:#666" d="M181,861 l76,0 0,26 -76,0 0,-26z" /><path style="fill:none;stroke:#fff;stroke-width:2" d="M525,973 l0,-73 36,0" /><path style="fill:none;stroke:#d9b366;stroke-width:2" d="M525,973 l36,0 0,-73" /><path style="fill:#f2e5cc;stroke:#4c4c4c;stroke-width:2" d="M79,463 l48,0 0,463 -48,0 0,-463z" /><path style="fill:#191919" d="M0,249 l199,0 0,214 -199,0 0,-214z" /><path style="fill:#333" d="M11,307 l174,0 0,90 -174,0 0,-90z" /><path style="fill:#4c4c4c" d="M105,317 l72,0 0,70 -72,0 0,-70z" /><path style="fill:#7f0000" d="M157,445 l-6,-8 0,-10 6,-8 12,0 8,8 0,10 -8,8 -12,0z" /><path style="fill:#000" d="M101,481 l4,0 0,4 -4,0 0,-4z" /><path style="fill:#000" d="M101,507 l4,0 0,6 -4,0 0,-6z" /><path style="fill:none;stroke:#4c4c4c;stroke-width:2" d="M698,213 l0,358" /><path style="fill:none;stroke:#fff;stroke-width:2" d="M680,802 l0,-231 178,0" /><path style="fill:#333" d="M707,339 l126,0 0,124 -126,0 0,-124z" /><path style="fill:none;stroke:#7f7f7f;stroke-width:2" d="M717,463 l0,-124" /><path style="fill:none;stroke:#7f7f7f;stroke-width:2" d="M724,463 l0,-124" /><path style="fill:none;stroke:#7f7f7f;stroke-width:2" d="M735,463 l0,-124" /><path style="fill:none;stroke:#7f7f7f;stroke-width:2" d="M742,463 l0,-124" /><path style="fill:none;stroke:#7f7f7f;stroke-width:2" d="M753,463 l0,-124" /><path style="fill:none;stroke:#7f7f7f;stroke-width:2" d="M760,463 l0,-124" /><path style="fill:none;stroke:#7f7f7f;stroke-width:2" d="M769,463 l0,-124" /><path style="fill:none;stroke:#7f7f7f;stroke-width:2" d="M778,463 l0,-124" /><path style="fill:none;stroke:#7f7f7f;stroke-width:2" d="M789,463 l0,-124" /><path style="fill:none;stroke:#7f7f7f;stroke-width:2" d="M796,463 l0,-124" /><path style="fill:none;stroke:#7f7f7f;stroke-width:2" d="M804,463 l0,-124" /><path style="fill:none;stroke:#7f7f7f;stroke-width:2" d="M815,463 l0,-124" /><path style="fill:none;stroke:#7f7f7f;stroke-width:2" d="M825,463 l0,-124" /><path style="fill:none;stroke:#7f7f7f;stroke-width:2" d="M709,347 l124,0" /><path style="fill:none;stroke:#7f7f7f;stroke-width:2" d="M709,355 l124,0" /><path style="fill:none;stroke:#7f7f7f;stroke-width:2" d="M709,365 l124,0" /><path style="fill:none;stroke:#7f7f7f;stroke-width:2" d="M709,373 l124,0" /><path style="fill:none;stroke:#7f7f7f;stroke-width:2" d="M709,383 l124,0" /><path style="fill:none;stroke:#7f7f7f;stroke-width:2" d="M709,391 l124,0" /><path style="fill:none;stroke:#7f7f7f;stroke-width:2" d="M709,399 l124,0" /><path style="fill:none;stroke:#7f7f7f;stroke-width:2" d="M709,409 l124,0" /><path style="fill:none;stroke:#7f7f7f;stroke-width:2" d="M709,419 l124,0" /><path style="fill:none;stroke:#7f7f7f;stroke-width:2" d="M709,427 l124,0" /><path style="fill:none;stroke:#7f7f7f;stroke-width:2" d="M709,435 l124,0" /><path style="fill:none;stroke:#7f7f7f;stroke-width:2" d="M709,445 l124,0" /><path style="fill:none;stroke:#7f7f7f;stroke-width:2" d="M709,455 l124,0" /></svg>