<!DOCTYPE svg PUBLIC "-//W3C//DTD SVG 20000303 Stylable//EN" "http://www.w3.org/TR/2000/03/WD-SVG-20000303/DTD/svg-20000303-stylable.dtd"[]><svg xmlns="http://www.w3.org/2000/svg" width="999px" height="976px" viewBox="0 0 999 974"><path style="fill:#333" d="M136,737 l-16,237 89,0 0,-24 580,0 0,24 91,0 -18,-237 -726,0z" /><path style="fill:#000" d="M136,737 l-2,28 730,0 -2,-28 -726,0z" /><path style="fill:none;stroke:#4c4c4c;stroke-width:2" d="M136,737 l-16,237 89,0 0,-24 580,0 0,24 91,0 -18,-237 -726,0" /><path style="fill:#699;stroke:#4c4c4c;stroke-width:2" d="M999,737 l0,-713 -429,0 0,713 429,0z" /><path style="fill:#9cc" d="M0,0 l546,0 0,737 -474,0 -72,-70 0,-667z" /><path style="fill:#94c7c7" d="M0,452 l546,-239 0,524 -476,0 -70,-70 0,-215z" /><path style="fill:#8fc2c2" d="M0,500 l546,-237 0,474 -474,0 -72,-70 0,-167z" /><path style="fill:#8abdbd" d="M0,548 l546,-239 0,428 -474,0 -72,-70 0,-119z" /><path style="fill:none;stroke:#4c4c4c;stroke-width:2" d="M0,0 l546,0 0,737 -474,0 -72,-70 0,-667" /><path style="fill:none;stroke:#fff;stroke-width:2" d="M524,42 l0,647 -309,0" /><path style="fill:none;stroke:#699;stroke-width:2" d="M524,42 l-309,0 0,647" /><path style="fill:#366;stroke:#4c4c4c;stroke-width:2" d="M546,737 l0,-737 24,24 0,713 -24,0z" /><path style="fill:#9cc" d="M974,689 l0,-641 -416,0 0,641 416,0z" /><path style="fill:#9cc;stroke:#4c4c4c;stroke-width:2" d="M986,737 l0,-48 -428,0 0,48 428,0z" /><path style="fill:#91c4c4" d="M974,689 l0,-641 -285,0 0,641 285,0z" /><path style="fill:#91c4c4" d="M986,737 l0,-48 -293,0 0,48 293,0z" /><path style="fill:#87baba" d="M974,689 l0,-641 -237,0 0,641 237,0z" /><path style="fill:#87baba" d="M986,737 l0,-48 -245,0 0,48 245,0z" /><path style="fill:#7fb2b2" d="M974,689 l0,-641 -197,0 0,641 197,0z" /><path style="fill:#7fb2b2" d="M986,737 l0,-48 -203,0 0,48 203,0z" /><path style="fill:#78abab" d="M974,689 l0,-641 -161,0 0,641 161,0z" /><path style="fill:#78abab" d="M986,737 l0,-48 -165,0 0,48 165,0z" /><path style="fill:#6ea1a1" d="M974,689 l0,-641 -130,0 0,641 130,0z" /><path style="fill:#6ea1a1" d="M986,737 l0,-48 -134,0 0,48 134,0z" /><path style="fill:#699" d="M974,689 l0,-641 -112,0 0,641 112,0z" /><path style="fill:#699" d="M986,737 l0,-48 -116,0 0,48 116,0z" /><path style="fill:#5e9191" d="M974,689 l0,-641 -88,0 0,641 88,0z" /><path style="fill:#5e9191" d="M986,737 l0,-48 -92,0 0,48 92,0z" /><path style="fill:#548787" d="M974,689 l0,-641 -74,0 0,641 74,0z" /><path style="fill:#548787" d="M986,737 l0,-48 -76,0 0,48 76,0z" /><path style="fill:#4c7f7f" d="M974,689 l0,-641 -60,0 0,641 60,0z" /><path style="fill:#4c7f7f" d="M986,737 l0,-48 -62,0 0,48 62,0z" /><path style="fill:#457878" d="M974,689 l0,-641 -46,0 0,641 46,0z" /><path style="fill:#457878" d="M986,737 l0,-48 -48,0 0,48 48,0z" /><path style="fill:#3b6e6e" d="M974,689 l0,-641 -32,0 0,641 32,0z" /><path style="fill:#3b6e6e" d="M986,737 l0,-48 -34,0 0,48 34,0z" /><path style="fill:#366" d="M974,689 l0,-641 -18,0 0,641 18,0z" /><path style="fill:#366" d="M986,737 l0,-48 -18,0 0,48 18,0z" /><path style="fill:none;stroke:#4c4c4c;stroke-width:2" d="M974,689 l0,-641 -416,0 0,641 416,0" /><circle style="fill:#000" cx="42" cy="612" r="18" /><circle style="fill:#c93" cx="42" cy="558" r="18" /><circle style="fill:#ccc" cx="118" cy="701" r="12" /><path style="fill:#000" d="M618,94 l356,0 0,452 -356,0 0,-452z" /><path style="fill:#7f7f7f" d="M631,106 l337,0 0,428 -337,0 0,-428z" /><path style="fill:#787878" d="M689,106 l279,0 0,428 -279,0 0,-428z" /><path style="fill:#707070" d="M737,106 l231,0 0,428 -231,0 0,-428z" /><path style="fill:#696969" d="M777,106 l191,0 0,428 -191,0 0,-428z" /><path style="fill:#616161" d="M813,106 l155,0 0,428 -155,0 0,-428z" /><path style="fill:#595959" d="M844,106 l124,0 0,428 -124,0 0,-428z" /><path style="fill:#525252" d="M868,106 l100,0 0,428 -100,0 0,-428z" /><path style="fill:#4a4a4a" d="M886,106 l82,0 0,428 -82,0 0,-428z" /><path style="fill:#424242" d="M904,106 l64,0 0,428 -64,0 0,-428z" /><path style="fill:#3b3b3b" d="M920,106 l48,0 0,428 -48,0 0,-428z" /><path style="fill:#333" d="M938,106 l30,0 0,428 -30,0 0,-428z" /><path style="fill:none;stroke:#fff;stroke-width:2" d="M813,313 l67,-93" /><path style="fill:none;stroke:#fff;stroke-width:2" d="M761,464 l113,-161" /><path style="fill:none;stroke:#fff;stroke-width:2" d="M755,339 l89,-126" /></svg>