<!DOCTYPE svg PUBLIC "-//W3C//DTD SVG 20000303 Stylable//EN" "http://www.w3.org/TR/2000/03/WD-SVG-20000303/DTD/svg-20000303-stylable.dtd"[]><svg xmlns="http://www.w3.org/2000/svg" width="727px" height="999px" viewBox="0 0 711 999"><path style="fill:#000" d="M269,25 l0,-8 172,0 0,8 -172,0z" /><path style="fill:#666;stroke:#4c4c4c;stroke-width:2" d="M257,17 l6,-17 184,0 6,17 -196,0z" /><path style="fill:#666;stroke:#4c4c4c;stroke-width:2" d="M245,44 l12,-19 196,0 14,19 -222,0z" /><path style="fill:#787878" d="M269,17 l6,-17 162,0 6,17 -174,0z" /><path style="fill:#787878" d="M259,41 l10,-18 174,0 10,18 -194,0z" /><path style="fill:#8c8c8c" d="M281,17 l4,-17 142,0 4,17 -150,0z" /><path style="fill:#8c8c8c" d="M271,41 l10,-18 150,0 10,18 -170,0z" /><path style="fill:#9e9e9e" d="M293,17 l4,-17 118,0 4,17 -126,0z" /><path style="fill:#9e9e9e" d="M285,41 l8,-18 126,0 8,18 -142,0z" /><path style="fill:#b2b2b2" d="M305,17 l2,-17 98,0 2,17 -102,0z" /><path style="fill:#b2b2b2" d="M297,41 l8,-18 102,0 8,18 -118,0z" /><path style="fill:#c4c4c4" d="M317,17 l2,-17 74,0 2,17 -78,0z" /><path style="fill:#c4c4c4" d="M311,41 l6,-18 78,0 6,18 -90,0z" /><path style="fill:#d9d9d9" d="M327,17 l2,-17 54,0 2,17 -58,0z" /><path style="fill:#d9d9d9" d="M325,41 l2,-18 58,0 4,18 -64,0z" /><path style="fill:#ebebeb" d="M339,17 l2,-17 30,0 2,17 -34,0z" /><path style="fill:#ebebeb" d="M337,41 l2,-18 34,0 2,18 -38,0z" /><path style="fill:#fff" d="M351,17 l0,-17 10,0 0,17 -10,0z" /><path style="fill:#fff" d="M349,44 l2,-19 10,0 0,19 -12,0z" /><path style="fill:#b2b2b2" d="M23,115 l-23,-16 0,-15 23,-16 48,-15 66,-9 82,-8 90,-5 94,0 90,5 82,8 64,9 48,15 24,16 0,15 -24,16 -664,0z" /><path style="fill:#bdbdbd" d="M41,91 l0,-15 22,-13 42,-11 58,-11 72,-8 80,-3 82,0 80,3 72,8 58,11 42,11 22,13 0,15 -630,0z" /><path style="fill:#c4c4c4" d="M84,81 l0,-12 17,-12 36,-10 50,-8 64,-6 70,-3 70,0 70,3 62,6 52,8 36,10 18,12 0,12 -545,0z" /><path style="fill:#cfcfcf" d="M123,73 l2,-10 14,-10 32,-8 42,-7 54,-5 58,-3 62,0 58,3 54,5 42,7 30,8 16,10 0,10 -464,0z" /><path style="fill:#d9d9d9" d="M165,65 l0,-8 14,-8 24,-8 36,-5 44,-5 48,-1 50,0 48,1 44,5 34,5 26,8 12,8 0,8 -380,0z" /><path style="fill:#e3e3e3" d="M207,55 l0,-6 10,-5 20,-5 28,-3 34,-5 38,-1 38,0 38,1 34,5 28,3 20,5 10,5 0,6 -298,0z" /><path style="fill:#ebebeb" d="M249,47 l0,-3 6,-5 14,-3 20,-3 26,-2 26,-1 28,0 28,1 24,2 20,3 14,3 8,5 0,3 -214,0z" /><path style="fill:#f5f5f5" d="M295,115 l-6,-76 0,-1 6,-2 8,-3 12,-2 16,0 16,-1 18,0 16,1 16,0 12,2 8,3 4,2 0,1 -4,76 -122,0z" /><path style="fill:#fff" d="M333,115 l-2,-84 2,-1 2,1 6,0 4,-1 8,1 6,0 6,-1 6,1 4,0 4,-1 2,1 -2,84 -46,0z" /><path style="fill:none;stroke:#4c4c4c;stroke-width:2" d="M23,115 l-23,-16 0,-15 23,-16 48,-15 66,-9 82,-8 90,-5 94,0 90,5 82,8 64,9 48,15 24,16 0,15 -24,16 -664,0" /><path style="fill:#333" d="M0,509 l11,0 0,72 -11,0 0,-72z" /><path style="fill:#4c4c4c" d="M469,994 l-74,5 -78,0 -76,-5 -66,-5 -54,-8 -40,-13 -20,-11 24,-278 540,0 24,278 -20,11 -38,13 -56,8 -66,5z" /><path style="fill:#595959" d="M461,994 l-70,5 -70,0 -70,-5 -62,-5 -50,-8 -36,-11 -19,-11 23,-280 498,0 22,280 -18,11 -36,11 -50,8 -62,5z" /><path style="fill:#666" d="M451,994 l-62,5 -66,0 -64,-5 -56,-3 -46,-8 -34,-10 -16,-11 20,-283 458,0 20,283 -16,11 -34,10 -46,8 -58,3z" /><path style="fill:#737373" d="M443,994 l-58,5 -60,0 -56,-5 -52,-3 -42,-7 -30,-9 -15,-8 17,-288 416,0 20,288 -16,8 -30,9 -42,7 -52,3z" /><path style="fill:#7f7f7f" d="M435,997 l-52,2 -54,0 -52,-2 -46,-6 -38,-5 -28,-8 -14,-10 18,-289 374,0 16,289 -12,10 -28,8 -38,5 -46,6z" /><path style="fill:#8c8c8c" d="M427,997 l-48,2 -48,0 -46,-2 -40,-5 -34,-6 -24,-5 -12,-8 14,-294 334,0 14,294 -12,8 -24,5 -34,6 -40,5z" /><path style="fill:#999" d="M417,997 l-40,2 -42,0 -40,-2 -36,-5 -30,-3 -22,-6 -10,-7 12,-297 292,0 14,297 -10,7 -22,6 -30,3 -36,5z" /><path style="fill:#a6a6a6" d="M409,997 l-36,2 -36,0 -34,-2 -32,-3 -24,-3 -18,-5 -10,-5 12,-302 250,0 12,302 -10,5 -18,5 -26,3 -30,3z" /><path style="fill:#b2b2b2" d="M399,997 l-28,2 -30,0 -30,-2 -26,-3 -20,-2 -16,-3 -8,-5 10,-305 210,0 10,305 -8,5 -16,3 -20,2 -28,3z" /><path style="fill:#bfbfbf" d="M391,997 l-24,2 -24,0 -22,-2 -22,0 -16,-5 -12,-1 -8,-2 8,-310 170,0 6,310 -6,2 -12,1 -18,5 -20,0z" /><path style="fill:#ccc" d="M383,999 l-18,0 -18,0 -18,0 -16,-2 -12,-3 -10,-2 -4,-1 6,-312 126,0 6,312 -4,1 -10,2 -12,3 -16,2z" /><path style="fill:#d9d9d9" d="M373,999 l-10,0 -14,0 -12,0 -10,-2 -8,0 -6,0 -4,-3 4,-315 86,0 4,315 -4,3 -6,0 -8,0 -12,2z" /><path style="fill:#e5e5e5" d="M365,999 l-6,0 -6,0 -6,0 -6,0 -6,0 -2,0 -2,0 2,-320 44,0 2,320 -4,0 -4,0 -6,0z" /><path style="fill:none;stroke:#4c4c4c;stroke-width:2" d="M469,994 l-74,5 -78,0 -76,-5 -66,-5 -54,-8 -40,-13 -20,-11 24,-278 540,0 24,278 -20,11 -38,13 -56,8 -66,5" /><path style="fill:none;stroke:#4c4c4c;stroke-width:2" d="M649,930 l-20,15 -38,9 -56,11 -66,5 -74,5 -78,0 -76,-5 -66,-5 -54,-11 -40,-9 -20,-15" /><path style="fill:#4c4c4c" d="M487,701 l-86,4 -90,0 -88,-4 -78,-6 -64,-10 -46,-10 -21,-12 0,-578 21,-12 46,-12 64,-8 78,-8 88,-1 90,0 86,1 80,8 62,8 46,12 24,12 0,578 -24,12 -44,10 -66,10 -78,6z" /><path style="fill:#595959" d="M477,701 l-80,4 -82,0 -82,-4 -72,-6 -58,-8 -42,-10 -22,-12 0,-584 22,-12 42,-9 58,-8 72,-7 82,-4 82,0 80,4 74,7 58,8 42,9 22,12 0,584 -22,12 -42,10 -58,8 -74,6z" /><path style="fill:#666" d="M467,701 l-74,4 -76,0 -74,-4 -64,-4 -56,-8 -38,-10 -20,-10 0,-592 20,-9 38,-11 54,-5 66,-7 74,-4 76,0 74,4 68,7 52,5 40,11 18,9 0,592 -18,10 -38,10 -56,8 -66,4z" /><path style="fill:#737373" d="M457,701 l-66,4 -70,0 -66,-4 -60,-4 -50,-6 -34,-10 -18,-8 0,-600 18,-8 34,-10 48,-6 62,-4 66,-4 70,0 66,4 60,4 50,6 34,10 18,8 0,600 -18,8 -34,10 -50,6 -60,4z" /><path style="fill:#7f7f7f" d="M447,701 l-60,4 -62,0 -60,-4 -54,-4 -44,-6 -32,-6 -16,-8 0,-606 16,-10 32,-6 42,-6 56,-4 60,-4 62,0 60,4 54,4 44,6 32,6 16,10 0,606 -16,8 -32,6 -44,6 -54,4z" /><path style="fill:#8c8c8c" d="M437,703 l-54,2 -54,0 -54,-2 -48,-4 -40,-6 -28,-6 -14,-8 0,-611 14,-8 28,-7 40,-6 48,-3 54,-3 54,0 54,3 48,3 40,6 28,7 14,8 0,611 -14,8 -28,6 -40,6 -48,4z" /><path style="fill:#999" d="M427,703 l-48,2 -48,0 -46,-2 -42,-4 -34,-4 -24,-6 -14,-6 0,-620 14,-6 24,-5 34,-5 42,-3 46,-3 48,0 48,3 42,3 34,5 24,5 12,6 0,620 -12,6 -24,6 -34,4 -42,4z" /><path style="fill:#a6a6a6" d="M417,703 l-40,2 -42,0 -40,-2 -36,-2 -30,-4 -20,-6 -10,-4 0,-627 10,-5 22,-6 28,-4 36,-1 40,-3 42,0 40,3 36,1 28,4 22,6 10,5 0,627 -10,4 -22,6 -28,4 -36,2z" /><path style="fill:#b2b2b2" d="M407,703 l-34,2 -34,0 -34,-2 -30,-2 -24,-4 -18,-2 -8,-4 0,-636 8,-3 18,-3 24,-4 30,-1 34,-3 34,0 34,3 30,1 24,4 16,3 10,3 0,636 -10,4 -16,2 -24,4 -30,2z" /><path style="fill:#bfbfbf" d="M395,703 l-26,2 -26,0 -28,-2 -24,-2 -18,-2 -14,-2 -8,-2 0,-642 8,-4 14,-2 18,-2 24,-1 28,-3 26,0 26,3 26,1 18,2 14,2 8,4 0,642 -8,2 -14,2 -20,2 -24,2z" /><path style="fill:#ccc" d="M385,703 l-18,2 -22,0 -20,-2 -18,0 -14,-2 -10,-2 -4,-2 0,-648 4,-2 10,-2 14,-1 18,0 20,-3 22,0 18,3 18,0 16,1 10,2 4,2 0,648 -4,2 -10,2 -16,2 -18,0z" /><path style="fill:#d9d9d9" d="M375,703 l-12,2 -14,0 -12,-2 -12,0 -10,0 -8,-2 -2,0 0,-656 2,0 8,-1 10,0 12,0 12,-3 14,0 12,3 12,0 10,0 6,1 4,0 0,656 -4,0 -6,2 -10,0 -12,0z" /><path style="fill:#e5e5e5" d="M365,705 l-6,0 -6,0 -8,0 -4,0 -6,0 -2,0 -2,0 0,-661 2,0 2,0 6,0 4,0 8,0 6,0 6,0 6,0 4,0 4,0 2,0 0,661 -2,0 -4,0 -4,0 -6,0z" /><path style="fill:none;stroke:#4c4c4c;stroke-width:2" d="M487,701 l-86,4 -90,0 -88,-4 -78,-6 -64,-10 -46,-10 -21,-12 0,-578 21,-12 46,-12 64,-8 78,-8 88,-1 90,0 86,1 80,8 62,8 46,12 24,12 0,578 -24,12 -44,10 -66,10 -78,6" /><path style="fill:none;stroke:#fff;stroke-width:2" d="M313,257 l0,-42 86,0" /><path style="fill:none;stroke:#7f7f7f;stroke-width:2" d="M313,257 l86,0 0,-42" /><path style="fill:#999" d="M343,557 l24,0 0,98 -24,0 0,-98z" /><path style="fill:none;stroke:#fff;stroke-width:2" d="M257,962 l0,-159 196,0" /><path style="fill:none;stroke:#7f7f7f;stroke-width:2" d="M257,962 l196,0 0,-159" /><path style="fill:#4c4c4c" d="M503,705 l12,263 36,18 -36,-281 -12,0z" /><path style="fill:#4c4c4c" d="M209,705 l-12,263 -38,18 38,-281 12,0z" /><path style="fill:#fff" d="M325,815 l62,0 0,24 -62,0 0,-24z" /><path style="fill:#333" d="M607,693 l24,250 26,14 -32,-270 -18,6z" /><path style="fill:#333" d="M111,693 l-26,250 -24,14 30,-270 20,6z" /></svg>