<!DOCTYPE svg PUBLIC "-//W3C//DTD SVG 20000303 Stylable//EN" "http://www.w3.org/TR/2000/03/WD-SVG-20000303/DTD/svg-20000303-stylable.dtd"[]><svg xmlns="http://www.w3.org/2000/svg" width="999px" height="292px" viewBox="0 0 999 249"><path style="fill:#000" d="M373,135 l16,-109 78,0 -30,109 -64,0z" /><path style="fill:#4c4c4c;stroke:#4c4c4c;stroke-width:2" d="M291,139 l20,0 0,-103 -20,0 0,103z" /><path style="fill:#4c4c4c;stroke:#4c4c4c;stroke-width:2" d="M833,36 l0,-21 -542,0 0,21 542,0z" /><path style="fill:#000" d="M5,249 l828,0 0,-4 -828,0 0,4z" /><path style="fill:#757575" d="M833,0 l166,0 0,249 -166,0 0,-249z" /><path style="fill:#707070" d="M833,177 l166,-104 0,176 -166,0 0,-72z" /><path style="fill:#6b6b6b" d="M833,187 l166,-104 0,166 -166,0 0,-62z" /><path style="fill:#666" d="M833,203 l166,-104 0,150 -166,0 0,-46z" /><path style="fill:#666;stroke:#4c4c4c;stroke-width:2" d="M5,142 l828,0 0,103 -828,0 0,-103z" /><path style="fill:#e54c00;stroke:#4c4c4c;stroke-width:2" d="M817,129 l0,38 -84,0 -20,-25 0,-13 26,-19 -6,-74 6,0 0,93 78,0z" /><path style="fill:#e54c00;stroke:#4c4c4c;stroke-width:2" d="M415,129 l0,38 84,0 20,-25 0,-13 -26,-19 0,19 -78,0z" /><path style="fill:#999" d="M415,129 l-4,-88 88,0 -6,88 -78,0z" /><path style="fill:#949494" d="M415,129 l-2,-44 84,0 -4,44 -78,0z" /><path style="fill:#8f8f8f" d="M415,129 l0,-22 80,0 -2,22 -78,0z" /><path style="fill:#8f8f8f" d="M739,32 l-6,97 84,0 -6,-97 -72,0z" /><path style="fill:#949494" d="M739,32 l-2,47 78,0 -4,-47 -72,0z" /><path style="fill:#999" d="M739,32 l-2,23 76,0 -2,-23 -72,0z" /><path style="fill:none;stroke:#b2b2b2;stroke-width:2" d="M833,78 l166,0" /><path style="fill:none;stroke:#7f7f7f;stroke-width:2" d="M833,239 l166,0" /><path style="fill:none;stroke:#7f7f7f;stroke-width:2" d="M833,119 l166,0" /><path style="fill:none;stroke:#7f7f7f;stroke-width:2" d="M915,119 l0,120" /><path style="fill:#4c4c4c" d="M847,171 l12,0 0,6 -12,0 0,-6z" /><path style="fill:#4c4c4c" d="M888,171 l11,0 0,6 -11,0 0,-6z" /><path style="fill:#4c4c4c" d="M930,171 l11,0 0,6 -11,0 0,-6z" /><path style="fill:#4c4c4c" d="M972,171 l11,0 0,6 -11,0 0,-6z" /><path style="fill:#cbcb98" d="M937,61 l0,-29 20,0 0,29 -20,0z" /><path style="fill:#191919" d="M437,245 l0,-48 374,0 0,48 -374,0z" /><path style="fill:#333" d="M447,245 l0,-12 68,0 0,12 -68,0z" /><path style="fill:#333" d="M447,203 l6,0 0,30 -6,0 0,-30z" /><path style="fill:#333" d="M479,203 l6,0 0,30 -6,0 0,-30z" /><path style="fill:#333" d="M509,203 l6,0 0,30 -6,0 0,-30z" /><path style="fill:#333" d="M541,245 l0,-12 68,0 0,12 -68,0z" /><path style="fill:#333" d="M541,203 l6,0 0,30 -6,0 0,-30z" /><path style="fill:#333" d="M571,203 l6,0 0,30 -6,0 0,-30z" /><path style="fill:#333" d="M603,203 l6,0 0,30 -6,0 0,-30z" /><path style="fill:#333" d="M633,245 l0,-12 70,0 0,12 -70,0z" /><path style="fill:#333" d="M633,203 l6,0 0,30 -6,0 0,-30z" /><path style="fill:#333" d="M665,203 l6,0 0,30 -6,0 0,-30z" /><path style="fill:#333" d="M697,203 l6,0 0,30 -6,0 0,-30z" /><path style="fill:#333" d="M727,245 l0,-12 68,0 0,12 -68,0z" /><path style="fill:#333" d="M727,203 l6,0 0,30 -6,0 0,-30z" /><path style="fill:#333" d="M759,203 l6,0 0,30 -6,0 0,-30z" /><path style="fill:#333" d="M789,203 l6,0 0,30 -6,0 0,-30z" /><path style="fill:#7f7f7f" d="M411,68 l0,-36 -22,0 0,36 22,0z" /><path style="fill:#4c4c4c" d="M411,78 l0,-10 -22,0 0,10 22,0z" /><path style="fill:#b2b2b2" d="M411,32 l0,-10 -22,0 0,10 22,0z" /><path style="fill:none;stroke:#4c4c4c;stroke-width:2" d="M389,73 l22,0" /><path style="fill:none;stroke:#4c4c4c;stroke-width:2" d="M411,68 l-22,0" /><path style="fill:none;stroke:#4c4c4c;stroke-width:2" d="M389,61 l22,0" /><path style="fill:none;stroke:#4c4c4c;stroke-width:2" d="M411,57 l-22,0" /><path style="fill:none;stroke:#4c4c4c;stroke-width:2" d="M389,51 l22,0" /><path style="fill:none;stroke:#4c4c4c;stroke-width:2" d="M411,47 l-22,0" /><path style="fill:none;stroke:#4c4c4c;stroke-width:2" d="M389,41 l22,0" /><path style="fill:none;stroke:#4c4c4c;stroke-width:2" d="M411,36 l-22,0" /><path style="fill:none;stroke:#4c4c4c;stroke-width:2" d="M389,32 l22,0" /><path style="fill:none;stroke:#4c4c4c;stroke-width:2" d="M411,26 l-22,0" /><path style="fill:none;stroke:#4c4c4c;stroke-width:2" d="M389,22 l22,0" /><path style="fill:none;stroke:#4c4c4c;stroke-width:2" d="M389,78 l22,0" /><path style="fill:#b2b2b2;stroke:#4c4c4c;stroke-width:2" d="M291,93 l-32,-25 0,-7 32,0 0,32z" /><path style="fill:#e5e5e5;stroke:#4c4c4c;stroke-width:2" d="M265,61 l0,-10 16,-15 14,0 0,25 -30,0z" /><path style="fill:#616161" d="M83,203 l214,-58 0,100 -214,0 0,-42z" /><path style="fill:#5c5c5c" d="M83,209 l214,-58 0,94 -214,0 0,-36z" /><path style="fill:#575757" d="M83,219 l214,-60 0,86 -214,0 0,-26z" /><path style="fill:#666" d="M0,249 l0,-68 5,-46 73,0 5,46 0,68 -83,0z" /><path style="fill:#737373" d="M0,181 l5,-46 73,0 5,46 -83,0z" /><path style="fill:none;stroke:#4c4c4c;stroke-width:2" d="M0,249 l0,-68 5,-46 73,0 5,46 0,68 -83,0" /><path style="fill:#666" d="M291,249 l0,-68 4,-46 116,0 4,46 0,68 -124,0z" /><path style="fill:#737373" d="M291,181 l4,-46 116,0 4,46 -124,0z" /><path style="fill:none;stroke:#4c4c4c;stroke-width:2" d="M301,171 l104,0" /><path style="fill:#4c4c4c" d="M359,171 l-6,10 0,-46 58,0 4,46 -10,-10 0,-29 -46,0 0,29z" /><path style="fill:#4c4c4c" d="M347,171 l6,10 0,-46 -58,0 -4,46 10,-10 0,-29 46,0 0,29z" /><path style="fill:none;stroke:#4c4c4c;stroke-width:2" d="M353,181 l0,-46" /><path style="fill:none;stroke:#4c4c4c;stroke-width:2" d="M291,249 l0,-68 4,-46 116,0 4,46 0,68 -124,0" /><path style="fill:#666" d="M41,167 l0,-22 30,0 0,22 -30,0z" /><path style="fill:#4c4c4c" d="M557,181 l0,-52 16,0 0,52 -16,0z" /><path style="fill:#4c4c4c" d="M531,249 l0,-52 16,0 0,52 -16,0z" /><path style="fill:#5e5e5e" d="M531,249 l0,-52 14,0 0,52 -14,0z" /><path style="fill:#5e5e5e" d="M557,181 l0,-52 14,0 0,52 -14,0z" /><path style="fill:#737373" d="M533,249 l0,-52 10,0 0,52 -10,0z" /><path style="fill:#737373" d="M559,181 l0,-52 10,0 0,52 -10,0z" /><path style="fill:#858585" d="M535,249 l0,-52 6,0 0,52 -6,0z" /><path style="fill:#858585" d="M561,181 l0,-52 6,0 0,52 -6,0z" /><path style="fill:#999" d="M563,181 l0,-52 2,0 0,52 -2,0z" /><path style="fill:#999" d="M537,249 l0,-52 2,0 0,52 -2,0z" /><path style="fill:#333;stroke:#4c4c4c;stroke-width:2" d="M577,181 l0,22 -26,0 0,-6 -26,0 0,-20 26,0 0,4 26,0z" /><path style="fill:none;stroke:#4c4c4c;stroke-width:2" d="M557,181 l0,-52 16,0 0,52 -16,0" /><path style="fill:none;stroke:#4c4c4c;stroke-width:2" d="M551,197 l0,-10" /><path style="fill:none;stroke:#4c4c4c;stroke-width:2" d="M531,249 l0,-52 16,0 0,52 -16,0" /><path style="fill:#4c4c4c;stroke:#4c4c4c;stroke-width:2" d="M525,129 l0,-46 52,-5 0,57 -52,-6z" /><path style="fill:#333;stroke:#4c4c4c;stroke-width:2" d="M597,129 l0,-46 -20,-5 0,57 20,-6z" /><path style="fill:#666" d="M529,125 l0,-38 44,-4 0,46 -44,-4z" /><path style="fill:#8c9999" d="M529,115 l0,-28 32,-4 0,36 -32,-4z" /><path style="fill:#bfcccc" d="M51,156 l6,0 0,5 -6,0 0,-5z" /><path style="fill:#bfcccc" d="M61,156 l7,0 0,5 -7,0 0,-5z" /><path style="fill:#bfcccc" d="M51,145 l6,0 0,6 -6,0 0,-6z" /><path style="fill:#bfcccc" d="M61,145 l7,0 0,6 -7,0 0,-6z" /><path style="fill:none;stroke:#4c4c4c;stroke-width:2" d="M41,167 l0,-22 30,0" /><path style="fill:none;stroke:#4c4c4c;stroke-width:2" d="M739,32 l-6,97 84,0 -6,-97 -72,0" /><path style="fill:none;stroke:#4c4c4c;stroke-width:2" d="M415,129 l-4,-88 88,0 -6,88 -78,0" /><path style="fill:none;stroke:#4c4c4c;stroke-width:2" d="M833,0 l166,0 0,249 -166,0 0,-249" /><path style="fill:none;stroke:#4c4c4c;stroke-width:2" d="M833,73 l166,0" /></svg>