<!DOCTYPE svg PUBLIC "-//W3C//DTD SVG 20000303 Stylable//EN" "http://www.w3.org/TR/2000/03/WD-SVG-20000303/DTD/svg-20000303-stylable.dtd"[]><svg xmlns="http://www.w3.org/2000/svg" width="998px" height="898px" viewBox="0 0 999 893"><path style="fill:#7f7f7f;stroke:#4c4c4c;stroke-width:2" d="M599,361 l102,0 0,-176 -102,0 0,176z" /><path style="fill:#666" d="M275,851 l-20,-108 -64,-20 0,-106 42,-22 -22,-22 0,-64 765,0 0,86 -19,42 0,214 -682,0z" /><path style="fill:#616161" d="M275,851 l-20,-108 -64,-20 0,-16 785,-112 -19,42 0,214 -682,0z" /><path style="fill:#5c5c5c" d="M275,851 l-20,-108 -46,-14 755,-108 -7,16 0,214 -682,0z" /><path style="fill:#575757" d="M275,851 l-20,-108 702,-94 0,202 -682,0z" /><path style="fill:none;stroke:#4c4c4c;stroke-width:2" d="M275,851 l-20,-108 -64,-20 0,-106 42,-22 -22,-22 0,-64 765,0 0,86 -19,42 0,214 -682,0" /><path style="fill:#4c4c4c;stroke:#4c4c4c;stroke-width:2" d="M723,383 l42,0 0,84 -42,0 0,-84z" /><path style="fill:#666" d="M297,649 l138,0 0,180 -138,0 0,-180z" /><path style="fill:#333" d="M851,553 l83,0 0,84 -83,0 0,-84z" /><path style="fill:#4c4c4c;stroke:#4c4c4c;stroke-width:2" d="M621,383 l70,0 0,68 -70,0 0,-68z" /><path style="fill:#7f7f7f;stroke:#4c4c4c;stroke-width:2" d="M573,0 l128,0 0,185 -128,0 0,-185z" /><path style="fill:#7f7f7f" d="M489,361 l276,0 0,22 -276,0 0,-22z" /><path style="fill:#7f7f7f" d="M233,319 l256,0 0,148 -256,0 0,-148z" /><path style="fill:#666" d="M211,851 l788,0 0,42 -788,0 0,-42z" /><path style="fill:none;stroke:#4c4c4c;stroke-width:2" d="M233,595 l0,128" /><path style="fill:#7f7f7f;stroke:#4c4c4c;stroke-width:2" d="M361,509 l234,0 0,192 -150,0 0,-64 -84,0 0,-128z" /><path style="fill:#b2b2b2" d="M999,467 l-490,0 0,42 467,0 23,-42z" /><path style="fill:#5c5c5c" d="M999,851 l0,42 -616,0 616,-42z" /><path style="fill:none;stroke:#4c4c4c;stroke-width:2" d="M211,851 l788,0 0,42 -788,0 0,-42" /><path style="fill:#7f7f7f" d="M22,467 l487,0 0,42 -487,0 0,-42z" /><path style="fill:none;stroke:#4c4c4c;stroke-width:2" d="M999,467 l-977,0 0,42 954,0 23,-42" /><path style="fill:none;stroke:#4c4c4c;stroke-width:2" d="M22,489 l487,0" /><path style="fill:#7f7f7f" d="M233,467 l-211,0 -16,-14 -6,-24 0,-30 6,-24 16,-14 211,0 0,106z" /><path style="fill:#8c8c8c" d="M233,453 l-227,0 -6,-24 0,-30 6,-24 16,-14 211,0 0,92z" /><path style="fill:#999" d="M233,429 l-233,0 0,-30 6,-24 16,-14 211,0 0,68z" /><path style="fill:#a6a6a6" d="M233,401 l-233,-2 6,-24 16,-14 211,0 0,40z" /><path style="fill:#b2b2b2" d="M233,375 l-227,0 16,-14 211,0 0,14z" /><path style="fill:none;stroke:#666;stroke-width:2" d="M191,445 l-108,0 -6,-10 -4,-20 0,-24 4,-18 6,-12 108,0 0,84" /><path style="fill:#878787" d="M233,317 l256,0 0,86 -256,0 0,-86z" /><path style="fill:#919191" d="M233,317 l256,0 0,62 -256,0 0,-62z" /><path style="fill:#999" d="M233,317 l256,0 0,50 -256,0 0,-50z" /><path style="fill:#a1a1a1" d="M233,317 l256,0 0,38 -256,0 0,-38z" /><path style="fill:#ababab" d="M233,317 l256,0 0,26 -256,0 0,-26z" /><path style="fill:#b2b2b2" d="M233,319 l256,0 0,12 -256,0 0,-12z" /><path style="fill:none;stroke:#666;stroke-width:2" d="M255,319 l212,0 0,126 -212,0 0,-126" /><path style="fill:none;stroke:#4c4c4c;stroke-width:2" d="M233,467 l-211,0 -16,-14 -6,-24 0,-30 6,-24 16,-14 211,0 0,106" /><path style="fill:none;stroke:#4c4c4c;stroke-width:2" d="M233,319 l256,0 0,148 -256,0 0,-148" /><path style="fill:#e5e5e5" d="M489,367 l276,0 0,8 -276,0 0,-8z" /><path style="fill:none;stroke:#4c4c4c;stroke-width:2" d="M489,361 l276,0 0,22 -276,0 0,-22" /><path style="fill:#ccc;stroke:#4c4c4c;stroke-width:2" d="M653,361 l-30,0 -28,-12 -20,-20 -12,-28 0,-20 150,0 0,20 -12,28 -22,20 -26,12z" /><path style="fill:#999" d="M553,281 l-6,-58 10,-38 160,0 10,38 -4,58 -170,0z" /><path style="fill:#b2b2b2" d="M547,223 l10,-38 160,0 10,38 -180,0z" /><path style="fill:none;stroke:#4c4c4c;stroke-width:2" d="M553,281 l-6,-58 10,-38 160,0 10,38 -4,58 -170,0" /><path style="fill:#333" d="M595,22 l84,0 0,106 -84,0 0,-106z" /><path style="fill:#7f7f7f;stroke:#4c4c4c;stroke-width:2" d="M611,383 l10,0 0,68 -10,0 0,-68z" /><path style="fill:#7f7f7f;stroke:#4c4c4c;stroke-width:2" d="M691,383 l10,0 0,68 -10,0 0,-68z" /><path style="fill:#4c4c4c;stroke:#4c4c4c;stroke-width:2" d="M599,451 l112,0 0,16 -112,0 0,-16z" /><path style="fill:#7f7f7f;stroke:#4c4c4c;stroke-width:2" d="M755,383 l16,0 0,84 -16,0 0,-84z" /><path style="fill:#7f7f7f;stroke:#4c4c4c;stroke-width:2" d="M717,383 l16,0 0,84 -16,0 0,-84z" /><path style="fill:#7f7f7f" d="M489,255 l0,64 -44,0 0,-64 44,0z" /><path style="fill:#999" d="M485,255 l0,64 -36,0 0,-64 36,0z" /><path style="fill:#b2b2b2" d="M481,255 l0,64 -28,0 0,-64 28,0z" /><path style="fill:#ccc" d="M477,255 l0,64 -20,0 0,-64 20,0z" /><path style="fill:#e5e5e5" d="M473,255 l0,64 -12,0 0,-64 12,0z" /><path style="fill:#fff" d="M469,255 l0,64 -4,0 0,-64 4,0z" /><path style="fill:none;stroke:#4c4c4c;stroke-width:2" d="M489,255 l0,64 -44,0 0,-64 44,0" /><path style="fill:none;stroke:#b2b2b2;stroke-width:2" d="M297,829 l0,-180 138,0" /><path style="fill:none;stroke:#4c4c4c;stroke-width:2" d="M297,829 l138,0 0,-180" /><path style="fill:#666" d="M615,637 l86,0 0,128 -86,0 0,-128z" /><path style="fill:none;stroke:#b2b2b2;stroke-width:2" d="M615,765 l0,-128 86,0" /><path style="fill:none;stroke:#4c4c4c;stroke-width:2" d="M615,765 l86,0 0,-128" /><path style="fill:none;stroke:#4c4c4c;stroke-width:2" d="M451,851 l0,-70 266,0 0,-128 227,0 0,-100" /><path style="fill:#666" d="M675,521 l116,0 0,74 -116,0 0,-74z" /><path style="fill:none;stroke:#b2b2b2;stroke-width:2" d="M675,595 l0,-74 116,0" /><path style="fill:none;stroke:#4c4c4c;stroke-width:2" d="M675,595 l116,0 0,-74" /><circle style="fill:#b2b2b2;stroke:#4c4c4c;stroke-width:2" cx="733" cy="552" r="22" /></svg>