<!DOCTYPE svg PUBLIC "-//W3C//DTD SVG 20000303 Stylable//EN" "http://www.w3.org/TR/2000/03/WD-SVG-20000303/DTD/svg-20000303-stylable.dtd"[]><svg xmlns="http://www.w3.org/2000/svg" width="999px" height="810px" viewBox="0 0 998 799"><path style="fill:#b2b2b2;stroke:#4c4c4c;stroke-width:2" d="M886,753 l0,-576 -43,-56 0,632 43,0z" /><path style="fill:#000" d="M243,753 l290,0 0,12 -290,0 0,-12z" /><path style="fill:#69f;stroke:#4c4c4c;stroke-width:2" d="M843,753 l155,0 0,46 -155,0 0,-46z" /><path style="fill:#039;stroke:#4c4c4c;stroke-width:2" d="M843,753 l-66,0 0,46 66,0 0,-46z" /><path style="fill:#030;stroke:#4c4c4c;stroke-width:2" d="M533,753 l244,0 0,46 -244,0 0,-46z" /><path style="fill:#696" d="M709,21 l90,0 0,522 -90,0 0,-522z" /><path style="fill:#696" d="M265,531 l444,0 0,-531 -444,0 0,531z" /><path style="fill:#b2b2b2;stroke:#4c4c4c;stroke-width:2" d="M11,753 l232,0 0,46 -232,0 0,-46z" /><path style="fill:#030" d="M777,21 l22,0 0,510 -22,0 0,-510z" /><path style="fill:none;stroke:#4c4c4c;stroke-width:2" d="M709,21 l90,0 0,522 -90,0 0,-522" /><path style="fill:#ccc;stroke:#4c4c4c;stroke-width:2" d="M755,87 l88,0 0,666 -88,0 0,-666z" /><path style="fill:#b2b2b2" d="M733,531 l88,12 0,210 -88,0 0,-222z" /><path style="fill:#ccc" d="M199,531 l534,0 0,222 -534,0 0,-222z" /><path style="fill:#ccc" d="M0,487 l177,0 0,266 -177,0 0,-266z" /><path style="fill:#c7c7c7" d="M199,665 l534,-112 0,200 -534,0 0,-88z" /><path style="fill:#c7c7c7" d="M0,621 l177,-44 0,176 -177,0 0,-132z" /><path style="fill:#c2c2c2" d="M199,709 l534,-110 0,154 -534,0 0,-44z" /><path style="fill:#c2c2c2" d="M0,667 l177,-46 0,132 -177,0 0,-86z" /><path style="fill:#bdbdbd" d="M199,731 l534,-110 0,132 -534,0 0,-22z" /><path style="fill:#bdbdbd" d="M0,711 l177,-46 0,88 -177,0 0,-42z" /><path style="fill:none;stroke:#4c4c4c;stroke-width:2" d="M199,531 l534,0 88,12 0,210 -622,0 0,-222" /><path style="fill:none;stroke:#4c4c4c;stroke-width:2" d="M0,487 l177,0 0,266 -177,0 0,-266" /><path style="fill:#619461" d="M265,243 l444,-112 0,400 -444,0 0,-288z" /><path style="fill:#5c8f5c" d="M265,343 l444,-112 0,300 -444,0 0,-188z" /><path style="fill:#578a57" d="M265,443 l444,-112 0,200 -444,0 0,-88z" /><path style="fill:none;stroke:#4c4c4c;stroke-width:2" d="M265,531 l444,0 0,-531 -444,0 0,531" /><path style="fill:#b2b2b2" d="M377,665 l178,0 0,22 -178,0 0,-22z" /><path style="fill:none;stroke:#e5e5e5;stroke-width:2" d="M733,753 l0,-222" /><path style="fill:none;stroke:#e5e5e5;stroke-width:2" d="M377,665 l178,0" /><path style="fill:none;stroke:#7f7f7f;stroke-width:2" d="M377,753 l0,-222" /><path style="fill:none;stroke:#7f7f7f;stroke-width:2" d="M555,753 l0,-222" /><path style="fill:none;stroke:#030;stroke-width:2" d="M455,531 l0,-531" /><path style="fill:#fc0" d="M143,499 l22,0 0,44 -22,0 0,-44z" /><path style="fill:#ffb27f" d="M299,21 l66,0 0,23 -66,0 0,-23z" /><path style="fill:#000" d="M299,44 l66,0 0,21 -66,0 0,-21z" /><path style="fill:#000" d="M433,487 l0,-356 -90,0 -22,178 22,178 90,0z" /><path style="fill:#000" d="M477,487 l0,-356 88,0 22,178 -22,178 -88,0z" /><path style="fill:#333" d="M421,477 l0,-334 -66,0 -22,166 22,168 66,0z" /><path style="fill:#333" d="M487,477 l0,-334 66,0 22,166 -22,168 -66,0z" /><path style="fill:#000" d="M443,499 l22,0 0,22 -22,0 0,-22z" /></svg>