<!DOCTYPE svg PUBLIC "-//W3C//DTD SVG 20000303 Stylable//EN" "http://www.w3.org/TR/2000/03/WD-SVG-20000303/DTD/svg-20000303-stylable.dtd"[]><svg xmlns="http://www.w3.org/2000/svg" width="978px" height="999px" viewBox="0 0 977 999"><path style="fill:#7f7f7f;stroke:#4c4c4c;stroke-width:2" d="M249,409 l24,0 0,136 -24,0 0,-136z" /><path style="fill:#7f7f7f" d="M363,545 l454,0 0,340 -454,0 0,-340z" /><path style="fill:#7a7a7a" d="M363,783 l454,-148 0,250 -454,0 0,-102z" /><path style="fill:#757575" d="M363,797 l454,-146 0,234 -454,0 0,-88z" /><path style="fill:#707070" d="M363,819 l454,-146 0,212 -454,0 0,-66z" /><path style="fill:#4c4c4c;stroke:#4c4c4c;stroke-width:2" d="M363,339 l454,0 0,114 -454,0 0,-114z" /><path style="fill:#666;stroke:#4c4c4c;stroke-width:2" d="M817,703 l92,0 0,160 -92,0 0,-160z" /><path style="fill:#7f7f7f;stroke:#4c4c4c;stroke-width:2" d="M409,295 l568,0 0,44 -568,0 0,-44z" /><path style="fill:#666" d="M705,545 l112,0 0,-136 -112,0 0,136z" /><path style="fill:#7f7f7f;stroke:#4c4c4c;stroke-width:2" d="M817,703 l160,0 0,-364 -160,0 0,364z" /><path style="fill:#7f7f7f;stroke:#4c4c4c;stroke-width:2" d="M773,885 l44,0 0,114 -44,0 0,-114z" /><path style="fill:#7f7f7f;stroke:#4c4c4c;stroke-width:2" d="M363,885 l46,0 0,114 -46,0 0,-114z" /><path style="fill:none;stroke:#4c4c4c;stroke-width:2" d="M387,817 l408,0 0,-250 -408,0 0,250" /><path style="fill:#7f7f7f;stroke:#4c4c4c;stroke-width:2" d="M317,952 l410,0 0,-67 22,0 0,92 -432,0 0,-25z" /><path style="fill:#b2b2b2" d="M545,981 l68,0 12,18 -92,0 12,-18z" /><path style="fill:none;stroke:#4c4c4c;stroke-width:2" d="M363,545 l454,0 0,340 -454,0 0,-340" /><path style="fill:none;stroke:#4c4c4c;stroke-width:2" d="M761,545 l0,-136" /><path style="fill:none;stroke:#999;stroke-width:2" d="M767,545 l0,-136" /><path style="fill:none;stroke:#4c4c4c;stroke-width:2" d="M705,545 l112,0 0,-136 -112,0 0,136" /><path style="fill:#999" d="M523,681 l136,0 0,-22 -136,0 0,22z" /><path style="fill:#7f7f7f;stroke:#4c4c4c;stroke-width:2" d="M455,113 l182,0 0,340 -182,0 0,-340z" /><path style="fill:#999;stroke:#4c4c4c;stroke-width:2" d="M46,339 l-46,0 273,92 0,-22 -227,-70z" /><path style="fill:#7f7f7f;stroke:#4c4c4c;stroke-width:2" d="M705,409 l22,0 0,136 -22,0 0,-136z" /><path style="fill:#7f7f7f" d="M273,453 l-24,-22 12,0 22,22 410,0 22,-22 12,0 -22,22 0,92 -432,0 0,-92z" /><path style="fill:#757575" d="M705,453 l0,92 -318,0 318,-92z" /><path style="fill:none;stroke:#4c4c4c;stroke-width:2" d="M273,453 l-24,-22 12,0 22,22 410,0 22,-22 12,0 -22,22 0,92 -432,0 0,-92" /><path style="fill:#999;stroke:#4c4c4c;stroke-width:2" d="M931,339 l46,0 -272,92 0,-22 226,-70z" /><path style="fill:#666;stroke:#4c4c4c;stroke-width:2" d="M477,113 l0,-60 10,-23 20,-20 24,-10 28,0 24,10 20,20 10,23 0,60 -136,0z" /><circle style="fill:#7f7f7f;stroke:#4c4c4c;stroke-width:2" cx="545" cy="67" r="46" /><path style="fill:#d9ccb3;stroke:#4c4c4c;stroke-width:2" d="M317,453 l0,-44 92,-24 46,0 68,46 -68,0 -24,-22 -22,44 -92,0z" /><circle style="fill:#b2b2b2;stroke:#4c4c4c;stroke-width:2" cx="432" cy="431" r="23" /><circle style="fill:#b2b2b2;stroke:#4c4c4c;stroke-width:2" cx="557" cy="329" r="34" /><path style="fill:#333" d="M477,135 l92,0 0,68 -92,0 0,-68z" /><path style="fill:#7f7f7f" d="M545,952 l68,0 0,29 -68,0 0,-29z" /><path style="fill:none;stroke:#4c4c4c;stroke-width:2" d="M545,952 l68,0 0,29 12,18 -92,0 12,-18 0,-29" /><circle style="fill:#333" cx="948" cy="516" r="17" /></svg>