<!DOCTYPE svg PUBLIC "-//W3C//DTD SVG 20000303 Stylable//EN" "http://www.w3.org/TR/2000/03/WD-SVG-20000303/DTD/svg-20000303-stylable.dtd"[]><svg xmlns="http://www.w3.org/2000/svg" width="999px" height="999px" viewBox="0 0 999 999"><path style="fill:#000;stroke:#4c4c4c;stroke-width:2" d="M603,976 l-603,0 0,23 603,0 0,-23z" /><path style="fill:#000;stroke:#4c4c4c;stroke-width:2" d="M729,976 l185,0 0,23 -185,0 0,-23z" /><path style="fill:#ccc" d="M729,165 l185,0 0,811 -185,0 0,-811z" /><path style="fill:#c7c7c7" d="M729,625 l185,-74 0,146 -185,0 0,-72z" /><path style="fill:#c2c2c2" d="M729,635 l185,-62 0,124 -185,0 0,-62z" /><path style="fill:#bdbdbd" d="M729,651 l185,-58 0,386 -185,0 0,-328z" /><path style="fill:none;stroke:#4c4c4c;stroke-width:2" d="M729,165 l185,0 0,811 -185,0 0,-811" /><path style="fill:#e5e5e5;stroke:#4c4c4c;stroke-width:2" d="M665,353 l334,0 0,208 -334,0 0,-208z" /><path style="fill:#ccc;stroke:#4c4c4c;stroke-width:2" d="M437,0 l186,0 0,437 -186,0 0,-437z" /><path style="fill:#333" d="M491,61 l-12,-11 0,-18 12,-13 16,0 12,13 0,18 -12,11 -16,0z" /><path style="fill:#333" d="M457,94 l146,0 0,81 -146,0 0,-81z" /><path style="fill:#e5e5e5;stroke:#4c4c4c;stroke-width:2" d="M395,123 l84,0 0,126 -84,0 0,-126z" /><path style="fill:#e5e5e5;stroke:#4c4c4c;stroke-width:2" d="M353,249 l166,0 0,146 -166,0 0,-146z" /><path style="fill:#999;stroke:#4c4c4c;stroke-width:2" d="M333,395 l270,0 0,42 -270,0 0,-42z" /><path style="fill:#b2b2b2;stroke:#4c4c4c;stroke-width:2" d="M165,311 l168,10 0,116 -168,0 0,-126z" /><path style="fill:#e5e5e5" d="M0,311 l165,0 0,126 -165,0 0,-126z" /><path style="fill:#ccc;stroke:#4c4c4c;stroke-width:2" d="M19,862 l126,0 0,62 -126,0 0,-62z" /><path style="fill:#ccc;stroke:#4c4c4c;stroke-width:2" d="M0,924 l145,0 0,65 -145,0 0,-65z" /><path style="fill:#ccc" d="M145,687 l458,0 0,289 -458,0 0,-289z" /><path style="fill:#999" d="M145,687 l458,0 0,20 -458,0 0,-20z" /><path style="fill:#e5e5e5;stroke:#4c4c4c;stroke-width:2" d="M249,687 l250,0 0,250 -250,0 0,-250z" /><path style="fill:#333" d="M0,801 l145,0 0,61 -145,0 0,-61z" /><path style="fill:#4c4c4c" d="M0,811 l145,0 0,42 -145,0 0,-42z" /><path style="fill:#666" d="M0,821 l145,0 0,22 -145,0 0,-22z" /><path style="fill:none;stroke:#4c4c4c;stroke-width:2" d="M0,801 l145,0 0,61 -145,0 0,-61" /><path style="fill:#b2b2b2" d="M19,311 l126,0 0,126 -126,0 0,-126z" /><path style="fill:none;stroke:#4c4c4c;stroke-width:2" d="M0,311 l165,0 0,126 -165,0 0,-126" /><path style="fill:#ccc" d="M103,687 l0,-126 -103,0 0,-124 749,0 0,124 -104,0 0,126 -542,0z" /><path style="fill:#c7c7c7" d="M103,687 l0,-104 646,-126 0,104 -104,0 0,126 -542,0z" /><path style="fill:#c2c2c2" d="M103,687 l0,-84 646,-126 0,84 -104,0 0,126 -542,0z" /><path style="fill:#bdbdbd" d="M103,687 l0,-64 646,-124 0,62 -104,0 0,126 -542,0z" /><path style="fill:none;stroke:#4c4c4c;stroke-width:2" d="M103,687 l0,-126 -103,0 0,-124 749,0 0,124 -104,0 0,126 -542,0" /><path style="fill:none;stroke:#4c4c4c;stroke-width:2" d="M103,561 l542,0" /><path style="fill:none;stroke:#4c4c4c;stroke-width:2" d="M145,687 l458,0 0,289 -458,0 0,-289" /><path style="fill:#999;stroke:#4c4c4c;stroke-width:2" d="M387,675 l-26,2 -26,-14 -12,-26 0,-26 12,-26 26,-12 26,0 26,12 12,26 0,26 -12,26 -26,12z" /><path style="fill:none;stroke:#4c4c4c;stroke-width:2" d="M343,593 l62,62" /><circle style="fill:#333" cx="374" cy="624" r="11" /><path style="fill:#ccc" d="M665,427 l158,-12 -32,198 -168,0 42,-186z" /><path style="fill:#b2b2b2" d="M875,427 l-52,-12 -32,198 84,-10 0,-176z" /><path style="fill:none;stroke:#4c4c4c;stroke-width:2" d="M623,613 l42,-188 156,-10 52,10 0,178 -82,10 -168,0" /><path style="fill:#4c4c4c" d="M679,491 l38,-2 -2,20 -40,0 4,-18z" /><path style="fill:#4c4c4c" d="M691,447 l38,0 -4,20 -38,0 4,-20z" /><path style="fill:#4c4c4c" d="M753,447 l38,0 -4,20 -38,0 4,-20z" /><path style="fill:#000;stroke:#4c4c4c;stroke-width:2" d="M833,561 l10,-10 0,-62 -10,-12 10,42 -10,42z" /><path style="fill:none;stroke:#4c4c4c;stroke-width:2" d="M895,561 l0,19 0,20 0,18 0,19 0,19 1,18 0,17 0,18 1,17 0,17 1,16 1,16 0,15 1,15 1,14 1,14 1,13 1,13 1,12 1,11 1,10 2,10 1,10 2,8 1,7 1,7 2,6 1,5 2,4 2,4 2,2 1,1 5,-41 5,-40 3,-37 3,-35 3,-33 2,-30 2,-29 1,-27 1,-25 0,-23 0,-21 0,-20 -1,-18 -1,-16 -2,-15 -2,-13 -2,-12 -3,-11 -3,-10 -4,-8 -3,-7 -4,-6 -4,-4 -4,-4 -5,-3 -5,-3 -5,-1 -5,0 -6,0 -5,0 -6,1 -6,2" /><path style="fill:#e5e5e5;stroke:#4c4c4c;stroke-width:2" d="M561,687 l0,40 52,0 0,-40 -52,0z" /><path style="fill:#333;stroke:#4c4c4c;stroke-width:2" d="M645,613 l30,0 1,8 1,9 1,8 1,9 1,8 1,8 1,9 1,8 1,9 2,8 1,9 0,8 1,9 2,8 1,9 0,8 2,9 1,8 0,9 1,8 2,9 0,8 1,9 2,8 0,9 1,8 1,9 1,8 1,9 1,8 1,9 1,9 0,10 2,10 2,9 3,8 2,6 4,5 4,2 5,2 10,-2 7,-4 6,-5 3,-8 2,-8 2,-9 0,-8 0,-8 10,-220 32,0 -1,15 -1,14 -1,14 0,14 -1,13 -1,14 0,12 -1,14 -1,13 0,13 -1,13 -1,14 0,13 -1,14 0,15 0,15 -1,7 -1,7 -1,7 -1,7 -2,6 -3,7 -2,5 -3,6 -3,5 -3,5 -4,4 -3,4 -4,4 -4,3 -4,2 -3,2 -4,0 -4,0 -4,0 -4,0 -4,0 -4,0 -4,0 -4,0 -7,0 -6,-3 -6,-4 -4,-5 -3,-7 -3,-7 -1,-7 0,-9 -42,-311z" /><path style="fill:#e5e5e5" d="M571,781 l146,30 42,0 0,-198 -42,0 0,156 -114,-10 0,-32 -32,0 0,54z" /><path style="fill:#b2b2b2" d="M717,811 l0,-42 -114,-10 -32,22 146,30z" /><path style="fill:none;stroke:#4c4c4c;stroke-width:2" d="M571,781 l146,30 42,0 0,-198 -42,0 0,156 -114,-10 0,-32 -32,0 0,54" /></svg>