<!DOCTYPE svg PUBLIC "-//W3C//DTD SVG 20000303 Stylable//EN" "http://www.w3.org/TR/2000/03/WD-SVG-20000303/DTD/svg-20000303-stylable.dtd"[]><svg xmlns="http://www.w3.org/2000/svg" width="984px" height="999px" viewBox="0 0 983 999"><path style="fill:#000" d="M22,947 l265,0 0,42 -265,0 0,-42z" /><path style="fill:#000" d="M287,956 l685,0 0,43 -685,0 0,-43z" /><path style="fill:#ccc" d="M287,219 l696,0 0,740 -696,0 0,-740z" /><path style="fill:#c7c7c7" d="M287,711 l696,-328 0,573 -696,0 0,-245z" /><path style="fill:#c2c2c2" d="M287,753 l696,-328 0,531 -696,0 0,-203z" /><path style="fill:#bdbdbd" d="M287,793 l696,-328 0,491 -696,0 0,-163z" /><path style="fill:#ccc" d="M983,219 l0,-121 -983,0 0,121 983,0z" /><path style="fill:#d4d4d4" d="M983,149 l0,-51 -983,0 0,51 983,0z" /><path style="fill:#dbdbdb" d="M983,141 l0,-43 -983,0 0,43 983,0z" /><path style="fill:#e3e3e3" d="M983,133 l0,-35 -983,0 0,35 983,0z" /><path style="fill:#ebebeb" d="M983,126 l0,-28 -983,0 0,28 983,0z" /><path style="fill:#f2f2f2" d="M983,117 l0,-19 -983,0 0,19 983,0z" /><path style="fill:#fafafa" d="M983,109 l0,-11 -983,0 0,11 983,0z" /><path style="fill:none;stroke:#4c4c4c;stroke-width:2" d="M983,219 l0,-121 -983,0 0,121 983,0" /><path style="fill:#333;stroke:#4c4c4c;stroke-width:2" d="M635,956 l0,-121 -266,0 0,-616 -82,0 0,737 348,0z" /><path style="fill:none;stroke:#4c4c4c;stroke-width:2" d="M287,219 l696,0 0,740 -696,0 0,-740" /><path style="fill:none;stroke:#7f7f7f;stroke-width:2" d="M635,835 l0,-616" /><path style="fill:none;stroke:#7f7f7f;stroke-width:2" d="M697,956 l0,-737" /><path style="fill:none;stroke:#7f7f7f;stroke-width:2" d="M841,956 l0,-737" /><path style="fill:#999" d="M9,219 l278,0 0,718 -278,0 0,-718z" /><path style="fill:#949494" d="M9,617 l278,-130 0,460 -278,0 0,-330z" /><path style="fill:#8f8f8f" d="M9,635 l278,-132 0,444 -278,0 0,-312z" /><path style="fill:#8a8a8a" d="M9,651 l278,-130 0,426 -278,0 0,-296z" /><path style="fill:#4c4c4c" d="M133,651 l72,0 0,10 -72,0 0,-10z" /><path style="fill:#4c4c4c" d="M205,671 l40,0 0,10 -40,0 0,-10z" /><path style="fill:#b2b2b2;stroke:#4c4c4c;stroke-width:2" d="M267,435 l0,-112 -113,0 0,92 -122,0 0,20 235,0z" /><path style="fill:#666;stroke:#4c4c4c;stroke-width:2" d="M245,671 l0,-246 -40,0 0,20 -72,0 0,206 72,0 0,20 40,0z" /><path style="fill:none;stroke:#4c4c4c;stroke-width:2" d="M287,835 l-124,0" /><path style="fill:none;stroke:#ccc;stroke-width:2" d="M287,841 l-124,0" /><path style="fill:none;stroke:#4c4c4c;stroke-width:2" d="M9,219 l278,0 0,728 -278,0 0,-728" /><path style="fill:#7f7f7f;stroke:#4c4c4c;stroke-width:2" d="M32,415 l-32,0 0,20 32,0 0,-20z" /><path style="fill:#666;stroke:#4c4c4c;stroke-width:2" d="M635,15 l134,0 0,83 -134,0 0,-83z" /><path style="fill:#7f7f7f;stroke:#4c4c4c;stroke-width:2" d="M595,0 l40,0 0,98 -40,0 0,-98z" /><path style="fill:#b2b2b2;stroke:#4c4c4c;stroke-width:2" d="M461,36 l132,0 0,62 -132,0 0,-62z" /><path style="fill:#e5e5e5;stroke:#4c4c4c;stroke-width:2" d="M81,15 l348,0 0,83 -348,0 0,-83z" /></svg>