<!DOCTYPE svg PUBLIC "-//W3C//DTD SVG 20000303 Stylable//EN" "http://www.w3.org/TR/2000/03/WD-SVG-20000303/DTD/svg-20000303-stylable.dtd"[]><svg xmlns="http://www.w3.org/2000/svg" width="999px" height="999px" viewBox="0 0 999 999"><path style="fill:#b2b2b2;stroke:#4c4c4c;stroke-width:2" d="M583,415 l82,0 0,334 -82,0 0,-334z" /><path style="fill:#ccc" d="M0,833 l84,42 19,0 0,81 -19,23 0,20 830,0 0,-20 -19,-23 0,-81 19,0 85,-42 -999,0z" /><path style="fill:#e5e5e5" d="M93,979 l20,-23 776,0 22,23 -818,0z" /><path style="fill:#999" d="M0,833 l21,10 280,0 10,10 416,0 -10,-10 260,0 22,-10 -999,0z" /><path style="fill:none;stroke:#4c4c4c;stroke-width:2" d="M0,833 l84,42 19,0 0,81 -19,23 0,20 830,0 0,-20 -19,-23 0,-81 19,0 85,-42 -999,0" /><path style="fill:#d9d9d9" d="M165,937 l0,-74 6,-4 656,0 6,4 0,74 -6,4 -656,0 -6,-4z" /><path style="fill:none;stroke:#7f7f7f;stroke-width:2" d="M827,859 l6,4 0,74 -6,4 -656,0" /><path style="fill:none;stroke:#fff;stroke-width:2" d="M171,941 l-6,-4 0,-74 6,-4 656,0" /><path style="fill:#e5e5e5;stroke:#4c4c4c;stroke-width:2" d="M999,833 l-22,-42 -270,-10 0,52 292,0z" /><path style="fill:#e5e5e5;stroke:#4c4c4c;stroke-width:2" d="M0,833 l21,-42 270,-10 0,52 -291,0z" /><path style="fill:#ccc;stroke:#4c4c4c;stroke-width:2" d="M291,769 l416,0 0,64 -416,0 0,-64z" /><path style="fill:#ccc;stroke:#4c4c4c;stroke-width:2" d="M307,755 l384,0 0,14 -384,0 0,-14z" /><path style="fill:#ccc;stroke:#4c4c4c;stroke-width:2" d="M333,749 l332,0 0,6 -332,0 0,-6z" /><path style="fill:#d9d9d9;stroke:#4c4c4c;stroke-width:2" d="M353,749 l22,-749 270,0 0,42 -62,0 20,707 -250,0z" /><path style="fill:#ccc" d="M499,42 l52,0 0,671 -52,0 0,-671z" /><path style="fill:#ccc" d="M603,431 l32,0 0,42 -32,0 0,-42z" /><path style="fill:#7f7f7f" d="M401,405 l92,0 0,68 -92,0 0,-68z" /><path style="fill:#4c4c4c" d="M421,489 l72,0 0,26 -72,0 0,-26z" /><path style="fill:#999" d="M411,375 l72,0 0,26 -72,0 0,-26z" /><circle style="fill:#999" cx="634" cy="666" r="21" /><path style="fill:none;stroke:#666;stroke-width:2" d="M635,431 l0,42 -32,0" /><path style="fill:none;stroke:#666;stroke-width:2" d="M551,42 l0,671 -52,0" /><path style="fill:#ccc;stroke:#7f7f7f;stroke-width:2" d="M603,42 l16,0 0,373 -16,0 0,-373z" /><path style="fill:#ccc;stroke:#7f7f7f;stroke-width:2" d="M629,42 l16,0 0,373 -16,0 0,-373z" /><path style="fill:#d9d9d9" d="M415,785 l168,0 0,58 -168,0 0,-58z" /><path style="fill:#d9d9d9" d="M467,843 l64,0 0,58 -64,0 0,-58z" /><path style="fill:none;stroke:#666;stroke-width:2" d="M531,843 l0,58 -64,0" /><path style="fill:none;stroke:#666;stroke-width:2" d="M583,785 l0,58 -168,0" /><path style="fill:#333" d="M317,781 l370,0 0,4 -370,0 0,-4z" /><path style="fill:none;stroke:#fff;stroke-width:2" d="M415,843 l0,-58 168,0" /><path style="fill:none;stroke:#fff;stroke-width:2" d="M467,901 l0,-58" /><path style="fill:none;stroke:#fff;stroke-width:2" d="M603,473 l0,-42 32,0" /><path style="fill:none;stroke:#fff;stroke-width:2" d="M499,713 l0,-671 52,0" /></svg>