<!DOCTYPE svg PUBLIC "-//W3C//DTD SVG 20000303 Stylable//EN" "http://www.w3.org/TR/2000/03/WD-SVG-20000303/DTD/svg-20000303-stylable.dtd"[]><svg xmlns="http://www.w3.org/2000/svg" width="999px" height="931px" viewBox="0 0 999 927"><path style="fill:#7f7f7f" d="M713,739 l0,84 -42,0 0,-84 42,0z" /><path style="fill:#999" d="M709,739 l0,84 -36,0 0,-84 36,0z" /><path style="fill:#b2b2b2" d="M705,739 l0,84 -28,0 0,-84 28,0z" /><path style="fill:#ccc" d="M701,739 l0,84 -18,0 0,-84 18,0z" /><path style="fill:#e5e5e5" d="M697,739 l0,84 -12,0 0,-84 12,0z" /><path style="fill:#fff" d="M695,739 l0,84 -6,0 0,-84 6,0z" /><path style="fill:none;stroke:#4c4c4c;stroke-width:2" d="M713,739 l0,84 -42,0 0,-84 42,0" /><path style="fill:#7f7f7f" d="M717,655 l0,84 -52,0 0,-84 52,0z" /><path style="fill:#999" d="M715,655 l0,84 -46,0 0,-84 46,0z" /><path style="fill:#b2b2b2" d="M709,655 l0,84 -34,0 0,-84 34,0z" /><path style="fill:#ccc" d="M703,655 l0,84 -24,0 0,-84 24,0z" /><path style="fill:#e5e5e5" d="M699,655 l0,84 -14,0 0,-84 14,0z" /><path style="fill:#fff" d="M695,655 l0,84 -6,0 0,-84 6,0z" /><path style="fill:none;stroke:#4c4c4c;stroke-width:2" d="M717,655 l0,84 -52,0 0,-84 52,0" /><path style="fill:#030;stroke:#4c4c4c;stroke-width:2" d="M0,385 l165,0 0,376 -165,0 0,-376z" /><path style="fill:#363;stroke:#4c4c4c;stroke-width:2" d="M873,843 l-458,-82 0,-106 564,0 0,-624 -42,0 0,354 -500,0 0,-354 -333,0 -62,896 811,0 20,-84z" /><path style="fill:#696" d="M83,885 l0,-248 10,-38 18,-32 28,-28 32,-18 38,-10 38,0 38,10 32,18 28,28 18,32 10,38 0,248 -290,0z" /><path style="fill:#4c7f4c" d="M147,803 l0,-140 6,-20 10,-18 16,-16 18,-10 20,-6 22,0 20,6 20,10 14,16 10,18 6,20 0,138 -162,2z" /><path style="fill:#194c19" d="M83,885 l62,-84 166,0 62,84 -290,0z" /><path style="fill:#407340" d="M83,635 l62,20 0,146 -62,84 0,-250z" /><path style="fill:#407340" d="M373,635 l-62,20 0,146 62,84 0,-250z" /><path style="fill:none;stroke:#4c4c4c;stroke-width:2" d="M83,885 l0,-248 10,-38 18,-32 28,-28 32,-18 38,-10 38,0 38,10 32,18 28,28 18,32 10,38 0,248 -290,0" /><path style="fill:none;stroke:#363;stroke-width:2" d="M149,781 l158,0" /><path style="fill:none;stroke:#363;stroke-width:2" d="M307,761 l-158,0" /><path style="fill:none;stroke:#363;stroke-width:2" d="M149,739 l158,0" /><path style="fill:none;stroke:#363;stroke-width:2" d="M307,719 l-158,0" /><path style="fill:none;stroke:#363;stroke-width:2" d="M149,697 l158,0" /><path style="fill:none;stroke:#363;stroke-width:2" d="M307,677 l-158,0" /><path style="fill:none;stroke:#363;stroke-width:2" d="M149,655 l158,0" /><path style="fill:none;stroke:#363;stroke-width:2" d="M161,635 l136,0" /><path style="fill:none;stroke:#363;stroke-width:2" d="M175,615 l106,0" /><path style="fill:none;stroke:#363;stroke-width:2" d="M229,797 l0,-198" /><path style="fill:none;stroke:#363;stroke-width:2" d="M187,609 l0,188" /><path style="fill:none;stroke:#363;stroke-width:2" d="M269,797 l0,-188" /><circle style="fill:#407340" cx="254" cy="307" r="109" /><path style="fill:#4c7f4c" d="M285,265 l-42,12 -36,30 -16,42 -4,46 -20,-20 -14,-26 -8,-28 0,-28 8,-28 14,-26 20,-20 26,-14 26,-8 30,0 28,8 24,14 20,20 16,26 -30,-4 -42,4z" /><circle style="fill:none;stroke:#030;stroke-width:2" cx="254" cy="307" r="109" /><path style="fill:#696;stroke:#4c4c4c;stroke-width:2" d="M243,323 l22,0 0,104 -22,0 0,-104z" /><circle style="fill:#696;stroke:#4c4c4c;stroke-width:2" cx="254" cy="307" r="21" /><circle style="fill:#4c7f4c;stroke:#4c4c4c;stroke-width:2" cx="171" cy="114" r="42" /><path style="fill:#696;stroke:#4c4c4c;stroke-width:2" d="M195,0 l14,4 -26,103 102,28 -4,14 -102,-28 -28,102 -14,-2 28,-104 -104,-28 5,-14 101,29 28,-104z" /><path style="fill:#333" d="M239,57 l166,0 0,36 -166,0 0,-36z" /><path style="fill:#7f0000" d="M255,78 l134,0 0,26 -134,0 0,-26z" /><path style="fill:#696" d="M437,47 l500,0 0,72 -500,0 0,-72z" /><path style="fill:#7fb27f" d="M437,54 l500,0 0,59 -500,0 0,-59z" /><path style="fill:#9c9" d="M437,61 l500,0 0,44 -500,0 0,-44z" /><path style="fill:#b2e5b2" d="M437,69 l500,0 0,28 -500,0 0,-28z" /><path style="fill:#cfc" d="M437,75 l500,0 0,17 -500,0 0,-17z" /><path style="fill:none;stroke:#4c4c4c;stroke-width:2" d="M437,47 l500,0 0,72 -500,0 0,-72" /><path style="fill:#7fb27f;stroke:#4c4c4c;stroke-width:2" d="M343,729 l16,0 0,46 -16,0 0,-46z" /><path style="fill:#2e612e" d="M415,655 l0,-92 564,-146 0,238 -564,0z" /><path style="fill:#295c29" d="M415,655 l0,-62 564,-146 0,208 -564,0z" /><path style="fill:none;stroke:#030;stroke-width:2" d="M781,629 l0,26" /><path style="fill:none;stroke:#030;stroke-width:2" d="M849,619 l0,36" /><path style="fill:none;stroke:#030;stroke-width:2" d="M911,593 l0,62" /><path style="fill:none;stroke:#696;stroke-width:2" d="M785,629 l0,26" /><path style="fill:none;stroke:#696;stroke-width:2" d="M853,619 l0,36" /><path style="fill:none;stroke:#696;stroke-width:2" d="M917,589 l0,66" /><path style="fill:none;stroke:#030;stroke-width:2" d="M425,635 l230,0 110,-6 88,-10 58,-26 30,-36 22,-46 9,-52 0,-54" /><path style="fill:#696;stroke:#030;stroke-width:2" d="M457,365 l334,0 0,62 -104,0 20,36 -166,0 20,-36 -104,0 0,-62z" /><path style="fill:#696" d="M623,42 l94,0 0,83 -94,0 0,-83z" /><path style="fill:#4c7f4c" d="M623,105 l94,0 0,20 -30,0 0,136 -32,0 0,-136 -32,0 0,-20z" /><path style="fill:none;stroke:#4c4c4c;stroke-width:2" d="M623,42 l94,0 0,83 -30,0 0,136 -32,0 0,-136 -32,0 0,-83" /><path style="fill:#696" d="M655,187 l32,0 0,74 -32,0 0,-74z" /><path style="fill:#7fb27f" d="M655,195 l32,0 0,58 -32,0 0,-58z" /><path style="fill:#9c9" d="M655,201 l32,0 0,44 -32,0 0,-44z" /><path style="fill:#b2e5b2" d="M655,209 l32,0 0,30 -32,0 0,-30z" /><path style="fill:#cfc" d="M655,217 l32,0 0,14 -32,0 0,-14z" /><path style="fill:none;stroke:#4c4c4c;stroke-width:2" d="M655,187 l32,0 0,74 -32,0 0,-74" /><path style="fill:#696" d="M437,187 l30,0 0,74 -30,0 0,-74z" /><path style="fill:#7fb27f" d="M437,195 l30,0 0,58 -30,0 0,-58z" /><path style="fill:#9c9" d="M437,201 l30,0 0,44 -30,0 0,-44z" /><path style="fill:#b2e5b2" d="M437,209 l30,0 0,30 -30,0 0,-30z" /><path style="fill:#cfc" d="M437,217 l30,0 0,14 -30,0 0,-14z" /><path style="fill:none;stroke:#4c4c4c;stroke-width:2" d="M437,187 l30,0 0,74 -30,0 0,-74" /><path style="fill:#696" d="M863,42 l74,0 0,83 -74,0 0,-83z" /><path style="fill:#4c7f4c" d="M863,105 l74,0 0,20 -10,0 0,136 -33,0 0,-136 -31,0 0,-20z" /><path style="fill:none;stroke:#4c4c4c;stroke-width:2" d="M863,42 l74,0 0,83 -10,0 0,136 -33,0 0,-136 -31,0 0,-83" /><path style="fill:#696" d="M894,187 l31,0 0,74 -31,0 0,-74z" /><path style="fill:#7fb27f" d="M894,195 l31,0 0,58 -31,0 0,-58z" /><path style="fill:#9c9" d="M894,201 l31,0 0,44 -31,0 0,-44z" /><path style="fill:#b2e5b2" d="M894,209 l31,0 0,30 -31,0 0,-30z" /><path style="fill:#cfc" d="M894,217 l31,0 0,14 -31,0 0,-14z" /><path style="fill:none;stroke:#4c4c4c;stroke-width:2" d="M894,187 l31,0 0,74 -31,0 0,-74" /><path style="fill:#696" d="M979,417 l20,0 0,108 -20,0 0,-108z" /><path style="fill:#7fb27f" d="M979,427 l20,0 0,88 -20,0 0,-88z" /><path style="fill:#9c9" d="M979,439 l20,0 0,66 -20,0 0,-66z" /><path style="fill:#b2e5b2" d="M979,449 l20,0 0,44 -20,0 0,-44z" /><path style="fill:#cfc" d="M979,459 l20,0 0,24 -20,0 0,-24z" /><path style="fill:none;stroke:#4c4c4c;stroke-width:2" d="M979,417 l20,0 0,108 -20,0 0,-108" /><path style="fill:none;stroke:#363;stroke-width:2" d="M489,381 l0,24 -22,0" /><path style="fill:none;stroke:#9c9;stroke-width:2" d="M467,405 l0,-26 22,0" /></svg>