<!DOCTYPE svg PUBLIC "-//W3C//DTD SVG 20000303 Stylable//EN" "http://www.w3.org/TR/2000/03/WD-SVG-20000303/DTD/svg-20000303-stylable.dtd"[]><svg xmlns="http://www.w3.org/2000/svg" width="999px" height="827px" viewBox="0 0 998 817"><path style="fill:#999" d="M45,817 l0,-136 -23,-182 0,-136 -22,-46 22,-228 23,-89 908,0 23,89 22,228 -22,46 0,136 -23,182 0,136 -908,0z" /><path style="fill:#666" d="M45,681 l908,0 0,136 -908,0 0,-136z" /><path style="fill:#4c4c4c" d="M22,499 l954,0 -23,182 -908,0 -23,-182z" /><path style="fill:#7f7f7f" d="M22,475 l954,0 0,24 -954,0 0,-24z" /><path style="fill:#333" d="M0,317 l998,0 -22,46 0,114 -954,0 0,-114 -22,-46z" /><path style="fill:#e5e5e5" d="M22,305 l954,0 0,12 -954,0 0,-12z" /><path style="fill:#949494" d="M0,317 l22,-228 17,-67 920,0 17,67 22,228 -998,0z" /><path style="fill:#8f8f8f" d="M0,317 l22,-228 12,-44 930,0 12,44 22,228 -998,0z" /><path style="fill:#8a8a8a" d="M0,317 l22,-228 954,0 22,228 -998,0z" /><path style="fill:#858585" d="M0,317 l11,-114 976,0 11,114 -998,0z" /><path style="fill:none;stroke:#4c4c4c;stroke-width:2" d="M45,817 l0,-136 -23,-182 0,-136 -22,-46 22,-228 23,-89 908,0 23,89 22,228 -22,46 0,136 -23,182 0,136 -908,0" /><path style="fill:#7f7f7f;stroke:#4c4c4c;stroke-width:2" d="M0,407 l998,0 0,24 -998,0 0,-24z" /><path style="fill:#191919;stroke:#4c4c4c;stroke-width:2" d="M0,363 l998,0 0,22 -998,0 0,-22z" /><path style="fill:#999" d="M409,22 l180,0 0,46 -180,0 0,-46z" /><path style="fill:#666" d="M409,22 l180,0 0,46 -10,-23 -160,0 -10,23 0,-46z" /><path style="fill:none;stroke:#4c4c4c;stroke-width:2" d="M409,68 l0,-46 180,0" /><path style="fill:none;stroke:#fff;stroke-width:2" d="M589,22 l0,46 -180,0" /><path style="fill:#e5e5e5" d="M930,283 l-11,-56 11,-46 23,0 11,46 -11,56 -23,0z" /><path style="fill:#e5e5e5" d="M45,283 l-11,-56 11,-46 23,0 11,46 -11,56 -23,0z" /><path style="fill:none;stroke:#999;stroke-width:2" d="M0,363 l998,0" /><path style="fill:#b2b2b2" d="M55,317 l0,12 46,0 0,-12 -46,0z" /><path style="fill:#b2b2b2" d="M114,317 l0,12 45,0 0,-12 -45,0z" /><path style="fill:#b2b2b2" d="M169,317 l0,12 46,0 0,-12 -46,0z" /><path style="fill:#b2b2b2" d="M227,317 l0,12 44,0 0,-12 -44,0z" /><path style="fill:#b2b2b2" d="M283,317 l0,12 46,0 0,-12 -46,0z" /><path style="fill:#b2b2b2" d="M341,317 l0,12 44,0 0,-12 -44,0z" /><path style="fill:#b2b2b2" d="M397,317 l0,12 46,0 0,-12 -46,0z" /><path style="fill:#b2b2b2" d="M453,317 l0,12 46,0 0,-12 -46,0z" /><path style="fill:#b2b2b2" d="M511,317 l0,12 46,0 0,-12 -46,0z" /><path style="fill:#b2b2b2" d="M567,317 l0,12 46,0 0,-12 -46,0z" /><path style="fill:#b2b2b2" d="M625,317 l0,12 44,0 0,-12 -44,0z" /><path style="fill:#b2b2b2" d="M681,317 l0,12 46,0 0,-12 -46,0z" /><path style="fill:#b2b2b2" d="M737,317 l0,12 46,0 0,-12 -46,0z" /><path style="fill:#b2b2b2" d="M795,317 l0,12 46,0 0,-12 -46,0z" /><path style="fill:#b2b2b2" d="M851,317 l0,12 46,0 0,-12 -46,0z" /><path style="fill:#b2b2b2" d="M909,317 l0,12 44,0 0,-12 -44,0z" /><path style="fill:#fff" d="M71,351 l16,0 0,-34 -16,0 0,34z" /><path style="fill:#fff" d="M130,351 l13,0 0,-34 -13,0 0,34z" /><path style="fill:#fff" d="M185,351 l16,0 0,-34 -16,0 0,34z" /><path style="fill:#fff" d="M241,351 l16,0 0,-34 -16,0 0,34z" /><path style="fill:#fff" d="M299,351 l14,0 0,-34 -14,0 0,34z" /><path style="fill:#fff" d="M355,351 l16,0 0,-34 -16,0 0,34z" /><path style="fill:#fff" d="M413,351 l14,0 0,-34 -14,0 0,34z" /><path style="fill:#fff" d="M469,351 l16,0 0,-34 -16,0 0,34z" /><path style="fill:#fff" d="M527,351 l14,0 0,-34 -14,0 0,34z" /><path style="fill:#fff" d="M583,351 l14,0 0,-34 -14,0 0,34z" /><path style="fill:#fff" d="M639,351 l16,0 0,-34 -16,0 0,34z" /><path style="fill:#fff" d="M697,351 l14,0 0,-34 -14,0 0,34z" /><path style="fill:#fff" d="M753,351 l16,0 0,-34 -16,0 0,34z" /><path style="fill:#fff" d="M811,351 l14,0 0,-34 -14,0 0,34z" /><path style="fill:#fff" d="M867,351 l14,0 0,-34 -14,0 0,34z" /><path style="fill:#fff" d="M923,351 l16,0 0,-34 -16,0 0,34z" /><path style="fill:none;stroke:#4c4c4c;stroke-width:2" d="M0,317 l998,0" /><path style="fill:#7f7f7f;stroke:#4c4c4c;stroke-width:2" d="M34,759 l930,0 0,24 -930,0 0,-24z" /><path style="fill:#333;stroke:#4c4c4c;stroke-width:2" d="M45,681 l908,0 11,46 -930,0 11,-46z" /><path style="fill:#191919" d="M465,295 l68,0 0,10 -68,0 0,-10z" /></svg>