<!DOCTYPE svg PUBLIC "-//W3C//DTD SVG 20000303 Stylable//EN" "http://www.w3.org/TR/2000/03/WD-SVG-20000303/DTD/svg-20000303-stylable.dtd"[]><svg xmlns="http://www.w3.org/2000/svg" width="999px" height="842px" viewBox="0 0 998 833"><path style="fill:#666;stroke:#4c4c4c;stroke-width:2" d="M791,187 l146,0 0,270 -146,0 0,-270z" /><path style="fill:#666;stroke:#4c4c4c;stroke-width:2" d="M61,187 l146,0 0,270 -146,0 0,-270z" /><path style="fill:#999;stroke:#4c4c4c;stroke-width:2" d="M83,249 l832,0 0,208 -832,0 0,-208z" /><path style="fill:#a5b2a5;stroke:#4c4c4c;stroke-width:2" d="M269,187 l-104,166 -123,0 -23,22 0,42 960,0 0,-42 -23,-22 -123,0 -104,-166 -460,0z" /><path style="fill:#9c9" d="M61,0 l876,0 0,187 -876,0 0,-187z" /><path style="fill:#94c794" d="M61,100 l876,-79 0,166 -876,0 0,-87z" /><path style="fill:#8fc28f" d="M61,119 l876,-77 0,145 -876,0 0,-68z" /><path style="fill:#8abd8a" d="M61,141 l876,-80 0,126 -876,0 0,-46z" /><path style="fill:#9c9" d="M0,457 l998,0 0,94 -81,282 -831,0 -86,-282 0,-94z" /><path style="fill:#94c794" d="M998,515 l0,36 -81,282 -831,0 -67,-218 979,-100z" /><path style="fill:#8fc28f" d="M993,573 l-76,260 -831,0 -49,-164 956,-96z" /><path style="fill:#8abd8a" d="M974,637 l-57,196 -831,0 -30,-104 918,-92z" /><path style="fill:none;stroke:#4c4c4c;stroke-width:2" d="M0,457 l998,0 0,94 -81,282 -831,0 -86,-282 0,-94" /><path style="fill:#ccc;stroke:#4c4c4c;stroke-width:2" d="M61,771 l22,0 0,62 -22,0 0,-62z" /><path style="fill:#ccc;stroke:#4c4c4c;stroke-width:2" d="M915,771 l22,0 0,62 -22,0 0,-62z" /><path style="fill:#ccc;stroke:#4c4c4c;stroke-width:2" d="M83,187 l0,20 250,0 40,-20 250,0 42,20 250,0 0,-20 -832,0z" /><path style="fill:#bf2600" d="M19,395 l960,0 0,22 -960,0 0,-22z" /><path style="fill:#000" d="M19,415 l960,0 0,22 -960,0 0,-22z" /><path style="fill:#fc0" d="M19,415 l40,2 40,20 -40,0 -40,-22z" /><path style="fill:#fc0" d="M99,415 l40,2 40,20 -40,0 -40,-22z" /><path style="fill:#fc0" d="M179,415 l40,2 40,20 -40,0 -40,-22z" /><path style="fill:#fc0" d="M259,415 l40,2 40,20 -40,0 -40,-22z" /><path style="fill:#fc0" d="M339,415 l40,2 40,20 -40,0 -40,-22z" /><path style="fill:#fc0" d="M419,415 l40,2 40,20 -40,0 -40,-22z" /><path style="fill:#fc0" d="M499,415 l40,2 40,20 -40,0 -40,-22z" /><path style="fill:#fc0" d="M579,415 l40,2 40,20 -40,0 -40,-22z" /><path style="fill:#fc0" d="M659,415 l40,2 40,20 -40,0 -40,-22z" /><path style="fill:#fc0" d="M739,415 l40,2 40,20 -40,0 -40,-22z" /><path style="fill:#fc0" d="M819,415 l38,2 41,20 -39,0 -40,-22z" /><path style="fill:#fc0" d="M898,415 l39,2 42,20 -40,0 -41,-22z" /><path style="fill:#696" d="M61,167 l876,0 0,20 -876,0 0,-20z" /><path style="fill:none;stroke:#696;stroke-width:2" d="M83,499 l832,0" /><path style="fill:none;stroke:#696;stroke-width:2" d="M83,749 l20,0 0,-208" /><path style="fill:none;stroke:#4c4c4c;stroke-width:2" d="M61,0 l876,0 0,187 -876,0 0,-187" /><path style="fill:#7fb27f" d="M395,103 l208,0 0,42 -208,0 0,-42z" /><path style="fill:none;stroke:#fff;stroke-width:2" d="M561,42 l0,41 -124,0" /><path style="fill:none;stroke:#696;stroke-width:2" d="M561,42 l-124,0 0,41" /><path style="fill:none;stroke:#696;stroke-width:2" d="M895,749 l20,0 0,-208" /><path style="fill:#7f7f7f" d="M947,385 l-896,0 0,-20 896,0 0,20z" /><path style="fill:#b2b2b2" d="M947,381 l-896,0 0,-14 896,0 0,14z" /><path style="fill:#fff" d="M947,375 l-896,0 0,-2 896,0 0,2z" /><path style="fill:none;stroke:#4c4c4c;stroke-width:2" d="M947,385 l-896,0 0,-20 896,0 0,20" /><path style="fill:#cccc7f" d="M561,229 l32,0 0,62 -32,0 0,-62z" /><path style="fill:#ccc;stroke:#4c4c4c;stroke-width:2" d="M489,343 l20,0 0,52 -20,0 0,-52z" /><path style="fill:none;stroke:#fff;stroke-width:2" d="M531,249 l0,42 -64,0" /><path style="fill:none;stroke:#696;stroke-width:2" d="M531,249 l-64,0 0,42" /><path style="fill:#ccc" d="M415,301 l168,0 0,32 -168,0 0,-32z" /><path style="fill:#bdbdbd" d="M415,327 l168,-12 0,18 -168,0 0,-6z" /><path style="fill:none;stroke:#4c4c4c;stroke-width:2" d="M415,301 l168,0 0,32 -168,0 0,-32" /><path style="fill:#ccc;stroke:#4c4c4c;stroke-width:2" d="M905,343 l20,0 0,52 -20,0 0,-52z" /><path style="fill:#ccc;stroke:#4c4c4c;stroke-width:2" d="M72,343 l21,0 0,52 -21,0 0,-52z" /><path style="fill:#ccc" d="M739,273 l146,-6 6,146 -146,6 -6,-146z" /><path style="fill:#c7c7c7" d="M743,377 l144,-68 4,104 -146,6 -2,-42z" /><path style="fill:#c2c2c2" d="M743,383 l144,-68 4,98 -146,6 -2,-36z" /><path style="fill:#bdbdbd" d="M745,391 l142,-66 4,88 -146,6 0,-28z" /><path style="fill:#d94000;stroke:#4c4c4c;stroke-width:2" d="M799,229 l20,0 2,40 -20,2 -2,-42z" /><path style="fill:#333" d="M761,293 l82,-4 4,62 -84,4 -2,-62z" /><path style="fill:none;stroke:#fff;stroke-width:2" d="M843,289 l4,62 -84,4" /><path style="fill:none;stroke:#999;stroke-width:2" d="M843,289 l-82,4 2,62" /><path style="fill:#999" d="M765,377 l104,-6 0,22 -104,4 0,-20z" /><path style="fill:#ccc;stroke:#4c4c4c;stroke-width:2" d="M885,267 l20,-2 7,146 -21,2 -6,-146z" /><path style="fill:none;stroke:#4c4c4c;stroke-width:2" d="M739,273 l146,-6 6,146 -146,6 -6,-146" /><path style="fill:#d94000;stroke:#4c4c4c;stroke-width:2" d="M791,207 l165,0 0,22 -165,0 0,-22z" /></svg>