<!DOCTYPE svg PUBLIC "-//W3C//DTD SVG 20000303 Stylable//EN" "http://www.w3.org/TR/2000/03/WD-SVG-20000303/DTD/svg-20000303-stylable.dtd"[]><svg xmlns="http://www.w3.org/2000/svg" width="999px" height="893px" viewBox="0 0 999 886"><path style="fill:#ccc" d="M93,295 l0,-74 37,-183 37,-21 222,-17 296,0 222,17 35,21 39,183 0,74 -888,0z" /><path style="fill:#c7c7c7" d="M93,295 l0,-74 10,-58 850,-80 28,138 0,74 -888,0z" /><path style="fill:#c2c2c2" d="M93,295 l0,-74 4,-30 860,-90 24,120 0,74 -888,0z" /><path style="fill:#bdbdbd" d="M93,369 l0,-148 870,-82 18,82 0,148 -888,0z" /><path style="fill:none;stroke:#4c4c4c;stroke-width:2" d="M93,369 l0,-148 37,-183 37,-21 222,-17 296,0 222,17 35,21 39,183 0,148 -888,0" /><path style="fill:#7f7f7f" d="M443,17 l186,0 0,56 -186,0 0,-56z" /><path style="fill:#4c4c4c" d="M155,259 l-8,-66 8,-63 50,0 8,63 -8,66 -50,0z" /><path style="fill:none;stroke:#fff;stroke-width:2" d="M155,259 l-8,-66 8,-63 50,0" /><path style="fill:none;stroke:#4c4c4c;stroke-width:2" d="M205,130 l8,63 -8,66 -48,0" /><path style="fill:#4c4c4c" d="M868,259 l-7,-66 7,-63 49,0 8,63 -8,66 -49,0z" /><path style="fill:none;stroke:#fff;stroke-width:2" d="M868,259 l-7,-66 7,-63 49,0" /><path style="fill:none;stroke:#4c4c4c;stroke-width:2" d="M917,130 l8,63 -8,66 -49,0" /><path style="fill:#ccc" d="M112,295 l848,0 0,74 -848,0 0,-74z" /><path style="fill:#e5e5e5" d="M960,295 l0,74 -848,0 848,-74z" /><path style="fill:none;stroke:#7f7f7f;stroke-width:2" d="M960,295 l-848,0 0,74" /><path style="fill:#fff" d="M83,397 l574,0 0,148 -574,0 0,-148z" /><path style="fill:#b2b2b2" d="M989,397 l-332,0 0,148 332,0 0,-148z" /><path style="fill:#999" d="M83,573 l906,0 0,-28 -906,0 0,28z" /><path style="fill:none;stroke:#4c4c4c;stroke-width:2" d="M83,545 l906,0 0,-148 -906,0 0,148" /><path style="fill:#4c4c4c" d="M929,359 l52,0 0,74 -52,0 0,-74z" /><path style="fill:#e5e5e5" d="M929,385 l52,0 0,24 -52,0 0,-24z" /><path style="fill:#333" d="M942,391 l24,0 0,12 -24,0 0,-12z" /><path style="fill:#4c4c4c" d="M853,359 l52,0 0,74 -52,0 0,-74z" /><path style="fill:#e5e5e5" d="M853,385 l52,0 0,24 -52,0 0,-24z" /><path style="fill:#333" d="M865,391 l26,0 0,12 -26,0 0,-12z" /><path style="fill:#4c4c4c" d="M777,359 l52,0 0,74 -52,0 0,-74z" /><path style="fill:#e5e5e5" d="M777,385 l52,0 0,24 -52,0 0,-24z" /><path style="fill:#333" d="M789,391 l26,0 0,12 -26,0 0,-12z" /><path style="fill:#4c4c4c" d="M701,359 l50,0 0,74 -50,0 0,-74z" /><path style="fill:#e5e5e5" d="M701,385 l50,0 0,24 -50,0 0,-24z" /><path style="fill:#333" d="M713,391 l26,0 0,12 -26,0 0,-12z" /><path style="fill:#4c4c4c" d="M625,359 l50,0 0,74 -50,0 0,-74z" /><path style="fill:#e5e5e5" d="M625,385 l50,0 0,24 -50,0 0,-24z" /><path style="fill:#333" d="M637,391 l26,0 0,12 -26,0 0,-12z" /><path style="fill:#4c4c4c" d="M549,359 l50,0 0,74 -50,0 0,-74z" /><path style="fill:#e5e5e5" d="M549,385 l50,0 0,24 -50,0 0,-24z" /><path style="fill:#333" d="M561,391 l26,0 0,12 -26,0 0,-12z" /><path style="fill:#4c4c4c" d="M473,359 l50,0 0,74 -50,0 0,-74z" /><path style="fill:#e5e5e5" d="M473,385 l50,0 0,24 -50,0 0,-24z" /><path style="fill:#333" d="M485,391 l26,0 0,12 -26,0 0,-12z" /><path style="fill:#4c4c4c" d="M397,359 l50,0 0,74 -50,0 0,-74z" /><path style="fill:#e5e5e5" d="M397,385 l50,0 0,24 -50,0 0,-24z" /><path style="fill:#333" d="M409,391 l26,0 0,12 -26,0 0,-12z" /><path style="fill:#4c4c4c" d="M321,359 l50,0 0,74 -50,0 0,-74z" /><path style="fill:#e5e5e5" d="M321,385 l50,0 0,24 -50,0 0,-24z" /><path style="fill:#333" d="M333,391 l26,0 0,12 -26,0 0,-12z" /><path style="fill:#4c4c4c" d="M245,359 l50,0 0,74 -50,0 0,-74z" /><path style="fill:#e5e5e5" d="M245,385 l50,0 0,24 -50,0 0,-24z" /><path style="fill:#333" d="M257,391 l26,0 0,12 -26,0 0,-12z" /><path style="fill:#4c4c4c" d="M169,359 l50,0 0,74 -50,0 0,-74z" /><path style="fill:#e5e5e5" d="M169,385 l50,0 0,24 -50,0 0,-24z" /><path style="fill:#333" d="M181,391 l26,0 0,12 -26,0 0,-12z" /><path style="fill:#4c4c4c" d="M93,359 l50,0 0,74 -50,0 0,-74z" /><path style="fill:#e5e5e5" d="M93,385 l50,0 0,24 -50,0 0,-24z" /><path style="fill:#333" d="M106,391 l25,0 0,12 -25,0 0,-12z" /><path style="fill:#4c4c4c" d="M463,573 l148,0 0,-38 -148,0 0,38z" /><path style="fill:#4c4c4c" d="M93,573 l148,0 0,-38 -148,0 0,38z" /><path style="fill:#4c4c4c" d="M277,573 l148,0 0,-38 -148,0 0,38z" /><path style="fill:#4c4c4c" d="M833,573 l148,0 0,-38 -148,0 0,38z" /><path style="fill:#4c4c4c" d="M647,573 l148,0 0,-38 -148,0 0,38z" /><path style="fill:#e5e5e5" d="M83,609 l906,0 0,-36 -906,0 0,36z" /><path style="fill:#ccc" d="M83,675 l906,0 0,-66 -906,0 0,66z" /><path style="fill:#999" d="M83,777 l906,0 0,-10 -906,0 0,10z" /><path style="fill:none;stroke:#4c4c4c;stroke-width:2" d="M83,777 l906,0 0,-204 -906,0 0,204" /><path style="fill:#ccc" d="M73,767 l926,0 0,-18 -926,0 0,18z" /><path style="fill:#e5e5e5" d="M73,749 l926,0 -10,-74 -906,0 -10,74z" /><path style="fill:none;stroke:#4c4c4c;stroke-width:2" d="M73,749 l0,18 926,0 0,-18 -10,-74 -906,0 -10,74" /><path style="fill:#ccc" d="M93,777 l888,0 0,109 -888,0 0,-109z" /><path style="fill:#c7c7c7" d="M93,855 l888,-46 0,77 -888,0 0,-31z" /><path style="fill:#c2c2c2" d="M93,859 l888,-46 0,73 -888,0 0,-27z" /><path style="fill:#bdbdbd" d="M93,867 l888,-46 0,65 -888,0 0,-19z" /><path style="fill:#666" d="M93,841 l888,0 0,27 -888,0 0,-27z" /><path style="fill:none;stroke:#4c4c4c;stroke-width:2" d="M93,777 l888,0 0,109 -888,0 0,-109" /><path style="fill:#ccc;stroke:#4c4c4c;stroke-width:2" d="M0,249 l93,0 0,286 -93,0 0,-286z" /><path style="fill:#333" d="M9,259 l84,0 0,54 -84,0 0,-54z" /><path style="fill:#333" d="M9,323 l84,0 0,204 -84,0 0,-204z" /><circle style="fill:#e5e5e5;stroke:#7f7f7f;stroke-width:2" cx="46" cy="286" r="19" /><path style="fill:#000" d="M27,499 l11,0 0,8 -11,0 0,-8z" /><path style="fill:#000" d="M65,499 l8,0 0,8 -8,0 0,-8z" /><path style="fill:#000" d="M27,471 l11,0 0,10 -11,0 0,-10z" /><path style="fill:#000" d="M65,471 l8,0 0,10 -8,0 0,-10z" /><path style="fill:#ccc" d="M20,387 l63,0 0,74 -63,0 0,-74z" /><path style="fill:#666" d="M20,351 l63,0 0,36 -63,0 0,-36z" /></svg>