<!DOCTYPE svg PUBLIC "-//W3C//DTD SVG 20000303 Stylable//EN" "http://www.w3.org/TR/2000/03/WD-SVG-20000303/DTD/svg-20000303-stylable.dtd"[]><svg xmlns="http://www.w3.org/2000/svg" width="998px" height="817px" viewBox="0 0 999 807"><path style="fill:#e5cbcb;stroke:#4c4c4c;stroke-width:2" d="M929,241 l70,0 0,430 -70,0 0,-430z" /><path style="fill:#4c3232;stroke:#4c4c4c;stroke-width:2" d="M929,145 l49,0 0,268 -49,0 0,-268z" /><path style="fill:#f2d8d8" d="M929,463 l-26,0 0,-80 26,0 0,80z" /><path style="fill:#f2d8d8" d="M39,383 l26,0 0,80 -26,0 0,-80z" /><path style="fill:#ccb2b2" d="M903,463 l-27,0 0,-80 27,0 0,80z" /><path style="fill:#ccb2b2" d="M65,383 l24,0 0,80 -24,0 0,-80z" /><path style="fill:none;stroke:#4c4c4c;stroke-width:2" d="M929,463 l-53,0 0,-80 53,0 0,80" /><path style="fill:none;stroke:#4c4c4c;stroke-width:2" d="M39,383 l50,0 0,80 -50,0 0,-80" /><path style="fill:#f2d8d8;stroke:#4c4c4c;stroke-width:2" d="M20,161 l0,100 -20,20 0,42 969,0 0,-42 -21,-20 0,-100 -928,0z" /><path style="fill:#b29898" d="M115,191 l738,0 10,-10 20,50 65,0 0,-70 -928,0 0,70 65,0 21,-50 9,10z" /><path style="fill:#ffe5e5" d="M39,807 l0,-162 -39,-40 0,-80 969,0 0,80 -40,40 0,162 -890,0z" /><path style="fill:#ffe5e5;stroke:#4c4c4c;stroke-width:2" d="M867,0 l0,161 20,60 61,0 21,-60 0,-161 -102,0z" /><path style="fill:#ffe5e5;stroke:#4c4c4c;stroke-width:2" d="M846,181 l-724,0 -21,-20 0,-161 766,0 0,161 -21,20z" /><path style="fill:#ffe5e5;stroke:#4c4c4c;stroke-width:2" d="M0,0 l0,161 20,60 59,0 22,-60 0,-161 -101,0z" /><path style="fill:#e5cbcb" d="M79,221 l0,-221 43,0 0,181 -21,-20 -22,60z" /><path style="fill:#e5cbcb" d="M887,221 l0,-221 -41,0 0,181 21,-20 20,60z" /><path style="fill:#ffb28c;stroke:#4c4c4c;stroke-width:2" d="M0,323 l0,60 969,0 0,-60 -969,0z" /><path style="fill:#997f7f;stroke:#4c4c4c;stroke-width:2" d="M0,463 l0,62 969,0 0,-62 -969,0z" /><path style="fill:#f7dddd" d="M39,807 l0,-68 930,-184 0,50 -40,40 0,162 -890,0z" /><path style="fill:none;stroke:#4c4c4c;stroke-width:2" d="M39,807 l0,-162 -39,-40 0,-80 969,0 0,80 -40,40 0,162 -890,0" /><path style="fill:none;stroke:#b29898;stroke-width:2" d="M122,781 l0,-54" /><path style="fill:none;stroke:#b29898;stroke-width:2" d="M867,807 l0,-80" /><path style="fill:none;stroke:#fff7f7;stroke-width:2" d="M867,727 l-21,0 0,54 -724,0" /><path style="fill:none;stroke:#fff7f7;stroke-width:2" d="M101,807 l0,-80 21,0" /><path style="fill:#997f7f" d="M152,25 l0,25 257,0 0,-25 -257,0z" /><path style="fill:#997f7f" d="M125,313 l0,10 721,0 0,-10 -721,0z" /><path style="fill:#ffe5e5" d="M367,231 l232,0 0,50 -232,0 0,-50z" /><path style="fill:none;stroke:#fff;stroke-width:2" d="M367,281 l0,-50 232,0" /><path style="fill:none;stroke:#b29898;stroke-width:2" d="M367,281 l232,0 0,-50" /><path style="fill:none;stroke:#664c4c;stroke-width:2" d="M0,509 l969,0" /><path style="fill:none;stroke:#664c4c;stroke-width:2" d="M6,373 l10,0" /><path style="fill:none;stroke:#664c4c;stroke-width:2" d="M46,373 l9,0" /><path style="fill:none;stroke:#664c4c;stroke-width:2" d="M85,373 l10,0" /><path style="fill:none;stroke:#664c4c;stroke-width:2" d="M125,373 l10,0" /><path style="fill:none;stroke:#664c4c;stroke-width:2" d="M165,373 l12,0" /><path style="fill:none;stroke:#664c4c;stroke-width:2" d="M207,373 l10,0" /><path style="fill:none;stroke:#664c4c;stroke-width:2" d="M247,373 l10,0" /><path style="fill:none;stroke:#664c4c;stroke-width:2" d="M287,373 l10,0" /><path style="fill:none;stroke:#664c4c;stroke-width:2" d="M327,373 l10,0" /><path style="fill:none;stroke:#664c4c;stroke-width:2" d="M367,373 l12,0" /><path style="fill:none;stroke:#664c4c;stroke-width:2" d="M409,373 l10,0" /><path style="fill:none;stroke:#664c4c;stroke-width:2" d="M449,373 l10,0" /><path style="fill:none;stroke:#664c4c;stroke-width:2" d="M489,373 l10,0" /><path style="fill:none;stroke:#664c4c;stroke-width:2" d="M529,373 l10,0" /><path style="fill:none;stroke:#664c4c;stroke-width:2" d="M569,373 l12,0" /><path style="fill:none;stroke:#664c4c;stroke-width:2" d="M611,373 l10,0" /><path style="fill:none;stroke:#664c4c;stroke-width:2" d="M651,373 l10,0" /><path style="fill:none;stroke:#664c4c;stroke-width:2" d="M691,373 l10,0" /><path style="fill:none;stroke:#664c4c;stroke-width:2" d="M731,373 l10,0" /><path style="fill:none;stroke:#664c4c;stroke-width:2" d="M771,373 l12,0" /><path style="fill:none;stroke:#664c4c;stroke-width:2" d="M813,373 l10,0" /><path style="fill:none;stroke:#664c4c;stroke-width:2" d="M853,373 l10,0" /><path style="fill:none;stroke:#664c4c;stroke-width:2" d="M892,373 l11,0" /><path style="fill:none;stroke:#664c4c;stroke-width:2" d="M933,373 l10,0" /><path style="fill:none;stroke:#664c4c;stroke-width:2" d="M25,373 l11,0" /><path style="fill:none;stroke:#664c4c;stroke-width:2" d="M65,373 l11,0" /><path style="fill:none;stroke:#664c4c;stroke-width:2" d="M106,373 l9,0" /><path style="fill:none;stroke:#664c4c;stroke-width:2" d="M145,373 l10,0" /><path style="fill:none;stroke:#664c4c;stroke-width:2" d="M185,373 l12,0" /><path style="fill:none;stroke:#664c4c;stroke-width:2" d="M227,373 l10,0" /><path style="fill:none;stroke:#664c4c;stroke-width:2" d="M267,373 l10,0" /><path style="fill:none;stroke:#664c4c;stroke-width:2" d="M307,373 l10,0" /><path style="fill:none;stroke:#664c4c;stroke-width:2" d="M347,373 l10,0" /><path style="fill:none;stroke:#664c4c;stroke-width:2" d="M387,373 l12,0" /><path style="fill:none;stroke:#664c4c;stroke-width:2" d="M429,373 l10,0" /><path style="fill:none;stroke:#664c4c;stroke-width:2" d="M469,373 l10,0" /><path style="fill:none;stroke:#664c4c;stroke-width:2" d="M509,373 l10,0" /><path style="fill:none;stroke:#664c4c;stroke-width:2" d="M549,373 l10,0" /><path style="fill:none;stroke:#664c4c;stroke-width:2" d="M589,373 l12,0" /><path style="fill:none;stroke:#664c4c;stroke-width:2" d="M631,373 l10,0" /><path style="fill:none;stroke:#664c4c;stroke-width:2" d="M671,373 l10,0" /><path style="fill:none;stroke:#664c4c;stroke-width:2" d="M711,373 l10,0" /><path style="fill:none;stroke:#664c4c;stroke-width:2" d="M751,373 l10,0" /><path style="fill:none;stroke:#664c4c;stroke-width:2" d="M791,373 l12,0" /><path style="fill:none;stroke:#664c4c;stroke-width:2" d="M833,373 l10,0" /><path style="fill:none;stroke:#664c4c;stroke-width:2" d="M873,373 l10,0" /><path style="fill:none;stroke:#664c4c;stroke-width:2" d="M913,373 l9,0" /><path style="fill:none;stroke:#664c4c;stroke-width:2" d="M952,373 l10,0" /><path style="fill:#664c4c" d="M25,473 l25,0 0,10 -25,0 0,-10z" /><path style="fill:#664c4c" d="M106,473 l25,0 0,10 -25,0 0,-10z" /><path style="fill:#664c4c" d="M187,473 l24,0 0,10 -24,0 0,-10z" /><path style="fill:#664c4c" d="M267,473 l26,0 0,10 -26,0 0,-10z" /><path style="fill:#664c4c" d="M349,473 l26,0 0,10 -26,0 0,-10z" /><path style="fill:#664c4c" d="M431,473 l26,0 0,10 -26,0 0,-10z" /><path style="fill:#664c4c" d="M511,473 l26,0 0,10 -26,0 0,-10z" /><path style="fill:#664c4c" d="M593,473 l26,0 0,10 -26,0 0,-10z" /><path style="fill:#664c4c" d="M675,473 l24,0 0,10 -24,0 0,-10z" /><path style="fill:#664c4c" d="M755,473 l26,0 0,10 -26,0 0,-10z" /><path style="fill:#664c4c" d="M837,473 l26,0 0,10 -26,0 0,-10z" /><path style="fill:#664c4c" d="M919,473 l24,0 0,10 -24,0 0,-10z" /><path style="fill:#664c4c" d="M645,237 l82,0 0,70 -82,0 0,-70z" /><path style="fill:#664c4c" d="M741,237 l82,0 0,54 -82,0 0,-54z" /><path style="fill:#664c4c" d="M867,237 l25,0 0,70 -25,0 0,-70z" /><path style="fill:#664c4c" d="M897,287 l46,0 0,20 -46,0 0,-20z" /><path style="fill:#664c4c" d="M892,539 l21,0 0,50 -21,0 0,-50z" /><path style="fill:#664c4c" d="M939,645 l9,0 0,10 -9,0 0,-10z" /><path style="fill:#664c4c" d="M973,645 l9,0 0,10 -9,0 0,-10z" /><path style="fill:none;stroke:#b29898;stroke-width:2" d="M952,545 l7,10 0,10 -7,10 -9,4 -10,0" /><path style="fill:none;stroke:#fff;stroke-width:2" d="M933,579 l-11,-4 -3,-10 0,-10 3,-10 11,-6 10,0 9,6" /><path style="fill:#ffeded" d="M122,161 l724,-132 0,-23 -724,0 0,155z" /></svg>