<!DOCTYPE svg PUBLIC "-//W3C//DTD SVG 20000303 Stylable//EN" "http://www.w3.org/TR/2000/03/WD-SVG-20000303/DTD/svg-20000303-stylable.dtd"[]><svg xmlns="http://www.w3.org/2000/svg" width="998px" height="999px" viewBox="0 0 998 998"><path style="fill:#9cc" d="M540,229 l0,-21 -47,0 0,-41 89,0 0,62 -42,0z" /><path style="fill:#9cc" d="M452,78 l0,-21 317,0 0,-41 -359,0 0,62 42,0z" /><path style="fill:#cff" d="M551,229 l0,-31 -58,0 0,-21 78,0 0,52 -20,0z" /><path style="fill:#cff" d="M442,78 l0,-31 327,0 0,-21 -349,0 0,52 22,0z" /><path style="fill:none;stroke:#fff;stroke-width:2" d="M431,73 l0,-37 338,0" /><path style="fill:none;stroke:#fff;stroke-width:2" d="M561,223 l0,-36 -63,0" /><path style="fill:none;stroke:#4c4c4c;stroke-width:2" d="M540,229 l0,-21 -47,0 0,-41 89,0 0,62 -42,0" /><path style="fill:none;stroke:#4c4c4c;stroke-width:2" d="M452,78 l0,-21 317,0 0,-41 -359,0 0,62 42,0" /><path style="fill:#7f7f7f" d="M582,229 l0,104 -42,0 0,-104 42,0z" /><path style="fill:#7f7f7f" d="M498,16 l105,0 0,41 -105,0 0,-41z" /><path style="fill:#999" d="M579,229 l0,104 -36,0 0,-104 36,0z" /><path style="fill:#999" d="M498,18 l105,0 0,37 -105,0 0,-37z" /><path style="fill:#b2b2b2" d="M575,229 l0,104 -28,0 0,-104 28,0z" /><path style="fill:#b2b2b2" d="M498,23 l105,0 0,27 -105,0 0,-27z" /><path style="fill:#ccc" d="M570,229 l0,104 -18,0 0,-104 18,0z" /><path style="fill:#ccc" d="M498,27 l105,0 0,19 -105,0 0,-19z" /><path style="fill:#e5e5e5" d="M568,229 l0,104 -13,0 0,-104 13,0z" /><path style="fill:#e5e5e5" d="M498,31 l105,0 0,11 -105,0 0,-11z" /><path style="fill:#fff" d="M564,229 l0,104 -6,0 0,-104 6,0z" /><path style="fill:#fff" d="M498,34 l105,0 0,5 -105,0 0,-5z" /><path style="fill:#033" d="M166,993 l687,0 0,5 -687,0 0,-5z" /><path style="fill:#033" d="M36,312 l457,0 0,21 -457,0 0,-21z" /><path style="fill:#699" d="M36,312 l0,-249 457,0 0,249 -457,0z" /><path style="fill:#699" d="M16,333 l0,-292 20,0 0,292 -20,0z" /><path style="fill:#78abab" d="M36,294 l0,-214 457,0 0,214 -457,0z" /><path style="fill:#78abab" d="M15,312 l0,-250 21,0 0,250 -21,0z" /><path style="fill:#87baba" d="M36,277 l0,-180 457,0 0,180 -457,0z" /><path style="fill:#87baba" d="M15,292 l0,-210 21,0 0,210 -21,0z" /><path style="fill:#9cc" d="M36,260 l0,-146 457,0 0,146 -457,0z" /><path style="fill:#9cc" d="M15,272 l0,-170 21,0 0,170 -21,0z" /><path style="fill:#abdede" d="M36,243 l0,-112 457,0 0,112 -457,0z" /><path style="fill:#abdede" d="M15,252 l0,-130 21,0 0,130 -21,0z" /><path style="fill:#baeded" d="M36,225 l0,-77 457,0 0,77 -457,0z" /><path style="fill:#baeded" d="M15,232 l0,-90 21,0 0,90 -21,0z" /><path style="fill:#cff" d="M36,208 l0,-42 457,0 0,42 -457,0z" /><path style="fill:#cff" d="M16,212 l0,-49 20,0 0,49 -20,0z" /><path style="fill:#78abab" d="M882,997 l-58,0 -50,-10 -29,-20 0,-937 29,-19 50,-11 58,0 50,11 28,19 0,937 -28,20 -50,10z" /><path style="fill:#87baba" d="M877,997 l-48,0 -42,-10 -24,-20 0,-937 24,-19 42,-11 48,0 42,11 24,19 0,937 -24,20 -42,10z" /><path style="fill:#9cc" d="M872,997 l-39,0 -34,-10 -19,-20 0,-937 19,-19 34,-11 39,0 34,11 20,19 0,937 -20,20 -34,10z" /><path style="fill:#abdede" d="M868,997 l-30,0 -26,-10 -15,-20 0,-937 15,-19 26,-11 30,0 26,11 15,19 0,937 -15,20 -26,10z" /><path style="fill:#baeded" d="M863,997 l-21,0 -17,-10 -11,-20 0,-937 11,-19 17,-11 21,0 18,11 10,19 0,937 -10,20 -18,10z" /><path style="fill:#baeded" d="M821,333 l-821,0 0,291 166,125 0,228 624,0 0,-436 31,0 0,-208z" /><path style="fill:#b5e8e8" d="M83,686 l83,63 0,228 624,0 0,-436 31,0 0,-105 -738,250z" /><path style="fill:#b0e3e3" d="M124,718 l42,31 0,228 624,0 0,-436 31,0 0,-52 -697,229z" /><path style="fill:#abdede" d="M166,749 l0,244 624,0 0,-452 -624,208z" /><path style="fill:none;stroke:#699;stroke-width:2" d="M790,993 l0,-452 31,0" /><path style="fill:#699" d="M707,83 l291,0 0,21 -291,0 0,-21z" /><path style="fill:#78abab" d="M728,83 l250,0 0,20 -250,0 0,-20z" /><path style="fill:#87baba" d="M747,83 l211,0 0,20 -211,0 0,-20z" /><path style="fill:#9cc" d="M767,83 l170,0 0,20 -170,0 0,-20z" /><path style="fill:#abdede" d="M788,83 l130,0 0,20 -130,0 0,-20z" /><path style="fill:#baeded" d="M808,83 l89,0 0,20 -89,0 0,-20z" /><path style="fill:#cff" d="M828,83 l49,0 0,21 -49,0 0,-21z" /><path style="fill:none;stroke:#366;stroke-width:2" d="M853,125 l-11,-11 11,-10 10,10 -10,11" /><path style="fill:none;stroke:#366;stroke-width:2" d="M853,125 l0,62" /><path style="fill:none;stroke:#366;stroke-width:2" d="M863,156 l-11,-11 11,-10 10,10 -10,11" /><path style="fill:none;stroke:#366;stroke-width:2" d="M795,728 l177,0" /><path style="fill:none;stroke:#cff;stroke-width:2" d="M795,733 l177,0" /><path style="fill:none;stroke:#4c4c4c;stroke-width:2" d="M707,83 l291,0 0,21 -291,0 0,-21" /><path style="fill:none;stroke:#4c4c4c;stroke-width:2" d="M821,333 l-821,0 0,291 166,125 0,244 624,0" /><circle style="fill:#9cc" cx="166" cy="457" r="83" /><path style="fill:#fff" d="M701,349 l110,0 0,31 -110,0 0,-31z" /><path style="fill:#fff" d="M504,800 l78,0 0,32 -78,0 0,-32z" /><path style="fill:#fff" d="M937,161 l35,0 0,24 -35,0 0,-24z" /><path style="fill:#000" d="M546,804 l33,0 0,24 -33,0 0,-24z" /><path style="fill:none;stroke:#4c4c4c;stroke-width:2" d="M514,811 l19,0" /><path style="fill:none;stroke:#4c4c4c;stroke-width:2" d="M36,62 l457,0 0,250 -457,0 0,-250" /><path style="fill:none;stroke:#4c4c4c;stroke-width:2" d="M15,41 l21,0 0,292 -21,0 0,-292" /><path style="fill:#cff" d="M332,187 l16,0 0,146 -16,0 0,-146z" /><path style="fill:none;stroke:#366;stroke-width:2" d="M332,187 l0,146 16,0 0,-146" /><path style="fill:none;stroke:#4c4c4c;stroke-width:2" d="M582,229 l0,104 -42,0 0,-104 42,0" /><path style="fill:none;stroke:#4c4c4c;stroke-width:2" d="M498,16 l105,0 0,41 -105,0 0,-41" /><path style="fill:#9cc" d="M603,0 l0,73 21,0 0,-73 -21,0z" /><path style="fill:#b2e5e5" d="M603,11 l0,51 21,0 0,-51 -21,0z" /><path style="fill:#cff" d="M603,21 l0,31 21,0 0,-31 -21,0z" /><path style="fill:#fff" d="M603,32 l0,9 21,0 0,-9 -21,0z" /><path style="fill:none;stroke:#4c4c4c;stroke-width:2" d="M603,0 l0,73 21,0 0,-73 -21,0" /><path style="fill:none;stroke:#366;stroke-width:2" d="M613,73 l0,-73" /><path style="fill:#e5e5e5" d="M197,244 l-22,-36 22,-36 41,0 22,36 -22,36 -41,0z" /><path style="fill:#7f7f7f" d="M750,723 l34,0 0,24 -34,0 0,-24z" /></svg>