<!DOCTYPE svg PUBLIC "-//W3C//DTD SVG 20000303 Stylable//EN" "http://www.w3.org/TR/2000/03/WD-SVG-20000303/DTD/svg-20000303-stylable.dtd"[]><svg xmlns="http://www.w3.org/2000/svg" width="719px" height="999px" viewBox="0 0 703 999"><path style="fill:#bf8c26" d="M395,0 l264,0 0,207 -264,0 0,-207z" /><path style="fill:#ba8721" d="M395,147 l264,-86 0,146 -264,0 0,-60z" /><path style="fill:#b5821c" d="M395,157 l264,-88 0,138 -264,0 0,-50z" /><path style="fill:#b07d17" d="M395,169 l264,-87 0,125 -264,0 0,-38z" /><path style="fill:none;stroke:#4c4c4c;stroke-width:2" d="M395,0 l264,0 0,207 -264,0 0,-207" /><path style="fill:#4c1900" d="M11,769 l0,220 32,0 0,-12 -10,0 0,-186 10,-22 -32,0z" /><path style="fill:#4c1900" d="M693,769 l0,220 -34,0 0,-12 10,0 0,-186 -10,-22 34,0z" /><path style="fill:#c93" d="M0,207 l703,0 0,572 -703,0 0,-572z" /><path style="fill:#c7942e" d="M0,613 l703,-238 0,404 -703,0 0,-166z" /><path style="fill:#c28f29" d="M0,637 l703,-238 0,380 -703,0 0,-142z" /><path style="fill:#bd8a24" d="M0,673 l703,-238 0,344 -703,0 0,-106z" /><path style="fill:none;stroke:#4c4c4c;stroke-width:2" d="M0,207 l703,0 0,572 -703,0 0,-572" /><path style="fill:#bd8a24;stroke:#4c4c4c;stroke-width:2" d="M0,779 l0,220 33,0 0,-10 -12,0 0,-188 12,-22 -33,0z" /><path style="fill:#bd8a24;stroke:#4c4c4c;stroke-width:2" d="M703,779 l0,220 -34,0 0,-10 12,0 0,-188 -12,-22 34,0z" /><path style="fill:#c93" d="M109,34 l484,0 0,173 -484,0 0,-173z" /><path style="fill:#c7942e" d="M109,157 l484,-74 0,124 -484,0 0,-50z" /><path style="fill:#c28f29" d="M109,165 l484,-74 0,116 -484,0 0,-42z" /><path style="fill:#bd8a24" d="M109,175 l484,-73 0,105 -484,0 0,-32z" /><path style="fill:none;stroke:#4c4c4c;stroke-width:2" d="M109,34 l484,0 0,173 -484,0 0,-173" /><path style="fill:#ccc" d="M389,89 l-10,-11 -18,-7 -20,0 -18,7 -10,11 10,4 18,-6 20,0 18,6 10,-4z" /><path style="fill:none;stroke:#960;stroke-width:2" d="M329,93 l12,10 22,0 10,-10" /><path style="fill:none;stroke:#960;stroke-width:2" d="M357,153 l-12,0 -38,-58 0,-15 12,-13 20,-7 24,0 20,7 12,13 0,15 -38,58" /><path style="fill:none;stroke:#960;stroke-width:2" d="M43,647 l0,-330 616,0 0,330 -616,0" /><path style="fill:none;stroke:#960;stroke-width:2" d="M351,317 l0,330" /><path style="fill:none;stroke:#960;stroke-width:2" d="M125,197 l454,0" /><path style="fill:none;stroke:#960;stroke-width:2" d="M11,757 l682,0" /><path style="fill:#b2b2b2" d="M439,82 l104,0 0,55 -104,0 0,-55z" /><path style="fill:none;stroke:#e5e5e5;stroke-width:2" d="M439,137 l0,-55 104,0" /><path style="fill:none;stroke:#7f7f7f;stroke-width:2" d="M543,82 l0,55 -104,0" /><path style="fill:#960" d="M153,103 l16,0 0,34 -16,0 0,-34z" /><path style="fill:#960" d="M373,307 l16,0 0,32 -16,0 0,-32z" /><path style="fill:#960" d="M373,439 l16,0 0,66 -16,0 0,-66z" /><path style="fill:#960" d="M373,625 l16,0 0,34 -16,0 0,-34z" /><path style="fill:#e5b24c" d="M33,361 l10,0 0,28 -10,0 0,-28z" /><path style="fill:#e5b24c" d="M33,577 l10,0 0,26 -10,0 0,-26z" /><path style="fill:#e5b24c" d="M649,361 l10,0 0,28 -10,0 0,-28z" /><path style="fill:#e5b24c" d="M649,577 l10,0 0,26 -10,0 0,-26z" /><path style="fill:#b27f19" d="M659,577 l10,0 0,26 -10,0 0,-26z" /><path style="fill:#b27f19" d="M659,361 l10,0 0,28 -10,0 0,-28z" /><path style="fill:#b27f19" d="M43,577 l12,0 0,26 -12,0 0,-26z" /><path style="fill:#b27f19" d="M43,361 l12,0 0,28 -12,0 0,-28z" /><path style="fill:none;stroke:#960;stroke-width:2" d="M669,361 l0,28 -262,0" /><path style="fill:none;stroke:#960;stroke-width:2" d="M669,577 l0,26 -262,0" /><path style="fill:none;stroke:#960;stroke-width:2" d="M297,361 l0,28 -264,0" /><path style="fill:none;stroke:#960;stroke-width:2" d="M297,577 l0,26 -264,0" /><path style="fill:none;stroke:#fc6;stroke-width:2" d="M407,603 l0,-26 262,0" /><path style="fill:none;stroke:#fc6;stroke-width:2" d="M407,389 l0,-28 262,0" /><path style="fill:none;stroke:#fc6;stroke-width:2" d="M33,603 l0,-26 264,0" /><path style="fill:none;stroke:#fc6;stroke-width:2" d="M33,389 l0,-28 264,0" /></svg>