<!DOCTYPE svg PUBLIC "-//W3C//DTD SVG 20000303 Stylable//EN" "http://www.w3.org/TR/2000/03/WD-SVG-20000303/DTD/svg-20000303-stylable.dtd"[]><svg xmlns="http://www.w3.org/2000/svg" width="999px" height="733px" viewBox="0 0 999 717"><path style="fill:#e5e5e5;stroke:#4c4c4c;stroke-width:2" d="M21,22 l412,0 0,-22 174,2 0,22 305,0 0,395 -891,0 0,-397z" /><path style="fill:#7f7f7f;stroke:#4c4c4c;stroke-width:2" d="M21,153 l891,0 0,226 -891,0 0,-226z" /><path style="fill:#4c4c4c" d="M281,305 l436,0 0,74 -436,0 0,-74z" /><path style="fill:#4c4c4c" d="M283,208 l434,0 0,-13 -434,0 0,13z" /><path style="fill:#ccc;stroke:#4c4c4c;stroke-width:2" d="M635,163 l108,0 0,206 -108,0 0,-206z" /><path style="fill:#ccc;stroke:#4c4c4c;stroke-width:2" d="M255,299 l140,0 0,76 -140,0 0,-76z" /><path style="fill:#b2b2b2;stroke:#4c4c4c;stroke-width:2" d="M397,277 l238,0 0,82 -238,0 0,-82z" /><path style="fill:#b2b2b2;stroke:#4c4c4c;stroke-width:2" d="M271,185 l86,0 0,114 -86,0 0,-114z" /><path style="fill:#999" d="M689,163 l38,0 0,206 -32,0 10,-22 0,-108 -16,-76z" /><path style="fill:#999" d="M309,185 l-32,0 0,190 32,0 -16,-28 0,-108 16,-54z" /><path style="fill:#7f0000" d="M21,413 l891,0 0,304 -891,0 0,-304z" /><path style="fill:#e5e5e5" d="M21,565 l891,0 0,22 -891,0 0,-22z" /><path style="fill:#e5e5e5" d="M21,521 l891,0 0,22 -891,0 0,-22z" /><path style="fill:none;stroke:#4c4c4c;stroke-width:2" d="M21,413 l891,0 0,304 -891,0 0,-304" /><path style="fill:#e5e5e5" d="M976,379 l23,-32 0,-108 -23,-88 -281,0 22,88 0,108 -22,32 281,0z" /><path style="fill:#e5e5e5" d="M21,379 l-21,-32 0,-108 21,-88 282,0 -22,88 0,108 22,32 -282,0z" /><path style="fill:#d9d9d9" d="M565,521 l-12,-86 240,0 -12,86 -216,0z" /><path style="fill:#f2f2f2" d="M553,435 l12,-34 216,0 12,34 -240,0z" /><path style="fill:none;stroke:#4c4c4c;stroke-width:2" d="M565,521 l-12,-86 12,-34 216,0 12,34 -12,86 -216,0" /><path style="fill:#ccc" d="M559,429 l8,-22 212,0 8,22 -228,0z" /><path style="fill:#333" d="M571,429 l6,-22 192,0 6,22 -204,0z" /><path style="fill:#f2f2f2" d="M0,239 l21,-88 282,0 -22,88 -281,0z" /><path style="fill:#f2f2f2" d="M999,239 l-23,-88 -281,0 22,88 282,0z" /><path style="fill:#000" d="M15,233 l20,-76 250,0 -20,76 -250,0z" /><path style="fill:#000" d="M982,233 l-19,-76 -248,0 18,76 249,0z" /><path style="fill:none;stroke:#fff;stroke-width:2" d="M793,208 l76,-37" /><path style="fill:none;stroke:#fff;stroke-width:2" d="M809,223 l92,-44" /><path style="fill:none;stroke:#fff;stroke-width:2" d="M869,217 l43,-20" /><path style="fill:none;stroke:#fff;stroke-width:2" d="M75,208 l76,-37" /><path style="fill:none;stroke:#fff;stroke-width:2" d="M91,223 l94,-44" /><path style="fill:none;stroke:#fff;stroke-width:2" d="M151,217 l44,-20" /><path style="fill:#ccc" d="M21,379 l-21,-32 281,0 22,32 -282,0z" /><path style="fill:#ccc" d="M976,379 l23,-32 -282,0 -22,32 281,0z" /><path style="fill:#000" d="M259,325 l-8,0 0,-32 8,0 0,4 -2,0 0,24 2,0 0,4z" /><path style="fill:#000" d="M980,293 l8,0 0,32 -8,0 0,-4 4,0 0,-24 -4,0 0,-4z" /><path style="fill:none;stroke:#4c4c4c;stroke-width:2" d="M976,379 l23,-32 0,-108 -23,-88 -281,0 22,88 0,108 -22,32 281,0" /><path style="fill:none;stroke:#4c4c4c;stroke-width:2" d="M21,379 l-21,-32 0,-108 21,-88 282,0 -22,88 0,108 22,32 -282,0" /><path style="fill:#7f7f7f" d="M451,59 l140,0 0,76 -140,0 0,-76z" /><path style="fill:#4c4c4c" d="M81,55 l108,0 0,74 -108,0 0,-74z" /><path style="fill:#e5e5e5;stroke:#4c4c4c;stroke-width:2" d="M303,261 l110,0 0,22 -110,0 0,-22z" /><path style="fill:#e5e5e5;stroke:#4c4c4c;stroke-width:2" d="M337,169 l102,0 0,92 -102,0 0,-92z" /><path style="fill:none;stroke:#7f7f7f;stroke-width:2" d="M397,249 l-18,0 -18,-8 -8,-18 0,-18 8,-16 18,-10 18,0 16,10 10,16 0,18 -10,18 -16,8" /><path style="fill:none;stroke:#7f7f7f;stroke-width:2" d="M429,22 l0,129" /><path style="fill:none;stroke:#7f7f7f;stroke-width:2" d="M613,22 l0,129" /><path style="fill:none;stroke:#4c4c4c;stroke-width:2" d="M609,22 l0,129" /><path style="fill:none;stroke:#4c4c4c;stroke-width:2" d="M433,22 l0,129" /><path style="fill:#ccc" d="M745,59 l140,0 0,44 -140,0 0,-44z" /></svg>