<!DOCTYPE svg PUBLIC "-//W3C//DTD SVG 20000303 Stylable//EN" "http://www.w3.org/TR/2000/03/WD-SVG-20000303/DTD/svg-20000303-stylable.dtd"[]><svg xmlns="http://www.w3.org/2000/svg" width="999px" height="999px" viewBox="0 0 999 999"><path style="fill:#fff" d="M0,665 l999,0 0,62 -999,0 0,-62z" /><path style="fill:#ccc;stroke:#4c4c4c;stroke-width:2" d="M583,83 l40,0 0,166 -40,0 0,-166z" /><path style="fill:#ccc;stroke:#4c4c4c;stroke-width:2" d="M83,415 l832,0 0,250 -832,0 0,-250z" /><path style="fill:#7f7f7f;stroke:#4c4c4c;stroke-width:2" d="M373,373 l252,0 0,250 -252,0 0,-250z" /><path style="fill:#e5e5e5" d="M707,499 l292,0 0,166 -292,0 0,-166z" /><path style="fill:#e5e5e5" d="M0,499 l291,0 0,166 -291,0 0,-166z" /><path style="fill:#d6d6d6" d="M707,635 l292,-70 0,100 -292,0 0,-30z" /><path style="fill:#d6d6d6" d="M0,635 l291,-70 0,100 -291,0 0,-30z" /><path style="fill:#e0e0e0" d="M707,617 l292,-70 0,118 -292,0 0,-48z" /><path style="fill:#e0e0e0" d="M0,617 l291,-70 0,118 -291,0 0,-48z" /><path style="fill:#dbdbdb" d="M707,625 l292,-70 0,110 -292,0 0,-40z" /><path style="fill:#dbdbdb" d="M0,625 l291,-70 0,110 -291,0 0,-40z" /><path style="fill:#000" d="M83,937 l832,0 0,41 -832,0 0,-41z" /><path style="fill:#0cc" d="M41,671 l916,0 0,52 -916,0 0,-52z" /><path style="fill:#7f7f7f;stroke:#4c4c4c;stroke-width:2" d="M0,915 l999,0 0,22 -999,0 0,-22z" /><path style="fill:#4c4c4c;stroke:#4c4c4c;stroke-width:2" d="M41,937 l20,62 22,0 0,-62 396,0 0,62 40,0 0,-62 396,0 0,62 22,0 20,-62 -916,0z" /><path style="fill:#e5e5e5;stroke:#4c4c4c;stroke-width:2" d="M791,188 l208,0 0,185 -208,0 0,-185z" /><path style="fill:#e5e5e5;stroke:#4c4c4c;stroke-width:2" d="M373,249 l250,0 0,-22 -40,-20 20,-19 0,-105 42,0 0,-83 -250,0 0,207 -22,20 0,22z" /><path style="fill:none;stroke:#4c4c4c;stroke-width:2" d="M0,499 l291,0 0,166 -291,0 0,-166" /><path style="fill:none;stroke:#4c4c4c;stroke-width:2" d="M707,499 l292,0 0,166 -292,0 0,-166" /><path style="fill:#ccc;stroke:#4c4c4c;stroke-width:2" d="M395,249 l20,20 0,116 168,0 0,-116 20,-20 -208,0z" /><path style="fill:#4c4c4c;stroke:#4c4c4c;stroke-width:2" d="M291,499 l42,0 0,166 -42,0 0,-166z" /><path style="fill:#4c4c4c;stroke:#4c4c4c;stroke-width:2" d="M665,499 l42,0 0,166 -42,0 0,-166z" /><path style="fill:#999" d="M335,561 l330,0 0,42 -330,0 0,-42z" /><path style="fill:#000" d="M333,557 l330,0 0,10 -330,0 0,-10z" /><path style="fill:#000" d="M333,577 l330,0 0,10 -330,0 0,-10z" /><path style="fill:#000" d="M333,597 l330,0 0,12 -330,0 0,-12z" /><path style="fill:#e5e5e5" d="M447,275 l104,0 0,72 -104,0 0,-72z" /><path style="fill:none;stroke:#fff;stroke-width:2" d="M447,347 l0,-72 104,0" /><path style="fill:none;stroke:#4c4c4c;stroke-width:2" d="M551,275 l0,72 -104,0" /><path style="fill:none;stroke:#fff;stroke-width:2" d="M473,337 l52,-52" /><path style="fill:none;stroke:#fff;stroke-width:2" d="M493,333 l32,-32" /><path style="fill:none;stroke:#fff;stroke-width:2" d="M467,301 l16,-16" /><path style="fill:none;stroke:#7f7f7f;stroke-width:2" d="M583,207 l-22,-149 -140,0 -26,149" /><path style="fill:#000" d="M495,203 l10,0 0,10 -10,0 0,-10z" /><path style="fill:#7f7f7f" d="M477,385 l0,72 8,6 0,36 6,6 0,56 14,0 0,-56 8,-6 0,-36 6,-6 0,-72 -42,0z" /><path style="fill:#9e9e9e" d="M481,383 l0,74 6,6 0,36 6,4 0,58 12,0 0,-58 6,-4 0,-36 4,-6 0,-74 -34,0z" /><path style="fill:#bfbfbf" d="M487,383 l0,74 4,6 0,36 4,4 0,58 8,0 0,-58 4,-4 0,-36 4,-6 0,-74 -24,0z" /><path style="fill:#dedede" d="M491,383 l0,74 2,6 0,36 4,4 0,58 4,0 0,-58 2,-4 0,-36 4,-6 0,-74 -16,0z" /><ellipse style="fill:#fff" cx="498" cy="473" rx="3" ry="88" /><path style="fill:none;stroke:#4c4c4c;stroke-width:2" d="M477,385 l0,72 8,6 0,36 6,6 0,56 14,0 0,-56 8,-6 0,-36 6,-6 0,-72 -42,0" /><path style="fill:none;stroke:#4c4c4c;stroke-width:2" d="M479,457 l40,0" /><path style="fill:none;stroke:#4c4c4c;stroke-width:2" d="M483,499 l26,0" /><path style="fill:none;stroke:#4c4c4c;stroke-width:2" d="M483,463 l26,0" /><path style="fill:none;stroke:#4c4c4c;stroke-width:2" d="M493,505 l12,0" /><path style="fill:#999;stroke:#4c4c4c;stroke-width:2" d="M83,727 l832,0 0,188 -832,0 0,-188z" /><path style="fill:none;stroke:#4c4c4c;stroke-width:2" d="M0,665 l999,0 0,62 -999,0 0,-62" /><path style="fill:#b2b2b2" d="M791,415 l0,-10 113,0 0,10 -113,0z" /><path style="fill:#666" d="M795,191 l198,0 0,178 -198,0 0,-178z" /><path style="fill:#4c4c4c" d="M807,201 l176,0 0,110 -176,0 0,-110z" /><path style="fill:#333" d="M807,321 l176,0 0,-10 -176,0 0,10z" /><path style="fill:#ccc" d="M791,405 l19,-10 74,0 20,10 -113,0z" /><path style="fill:#999" d="M810,395 l0,-22 74,0 0,22 -74,0z" /><path style="fill:none;stroke:#4c4c4c;stroke-width:2" d="M791,415 l0,-10 19,-10 0,-22 74,0 0,22 20,10 0,10 -113,0" /><path style="fill:#4c4c4c" d="M373,833 l38,82 182,0 36,-82 -130,-84 -126,84z" /><path style="fill:#b2b2b2" d="M333,833 l0,-42 40,-64 250,0 42,64 0,42 -82,0 -22,-23 -124,0 -22,23 -82,0z" /><path style="fill:#7f7f7f" d="M353,759 l20,-32 250,0 22,32 -292,0z" /><path style="fill:none;stroke:#4c4c4c;stroke-width:2" d="M333,833 l0,-42 40,-64 250,0 42,64 0,42 -82,0 -22,-23 -124,0 -22,23 -82,0" /><circle style="fill:#7f7f7f;stroke:#4c4c4c;stroke-width:2" cx="384" cy="802" r="31" /><path style="fill:#ccc" d="M269,835 l90,-52 30,54 -90,52 -30,-54z" /><path style="fill:#999" d="M287,825 l54,-32 30,56 -54,29 -30,-53z" /><path style="fill:none;stroke:#4c4c4c;stroke-width:2" d="M291,835 l54,-32" /><path style="fill:none;stroke:#4c4c4c;stroke-width:2" d="M297,843 l54,-30" /><path style="fill:none;stroke:#4c4c4c;stroke-width:2" d="M301,853 l56,-32" /><path style="fill:none;stroke:#4c4c4c;stroke-width:2" d="M307,860 l54,-31" /><path style="fill:none;stroke:#4c4c4c;stroke-width:2" d="M313,871 l54,-32" /><path style="fill:none;stroke:#4c4c4c;stroke-width:2" d="M289,829 l54,-30" /><path style="fill:none;stroke:#4c4c4c;stroke-width:2" d="M295,839 l54,-32" /><path style="fill:none;stroke:#4c4c4c;stroke-width:2" d="M299,847 l54,-31" /><path style="fill:none;stroke:#4c4c4c;stroke-width:2" d="M305,857 l54,-32" /><path style="fill:none;stroke:#4c4c4c;stroke-width:2" d="M309,865 l54,-30" /><path style="fill:none;stroke:#4c4c4c;stroke-width:2" d="M315,875 l54,-32" /><path style="fill:none;stroke:#4c4c4c;stroke-width:2" d="M269,835 l90,-52 30,54 -90,52 -30,-54" /></svg>