<!DOCTYPE svg PUBLIC "-//W3C//DTD SVG 20000303 Stylable//EN" "http://www.w3.org/TR/2000/03/WD-SVG-20000303/DTD/svg-20000303-stylable.dtd"[]><svg xmlns="http://www.w3.org/2000/svg" width="680px" height="999px" viewBox="0 0 661 999"><path style="fill:#ccbfa6" d="M577,999 l0,-32 64,0 0,32 -64,0z" /><path style="fill:#ccbfa6" d="M209,999 l0,-32 62,0 0,32 -62,0z" /><path style="fill:#ccbfa6" d="M20,999 l0,-32 63,0 0,32 -63,0z" /><path style="fill:#e5d8bf" d="M587,999 l0,-32 42,0 0,32 -42,0z" /><path style="fill:#e5d8bf" d="M219,999 l0,-32 42,0 0,32 -42,0z" /><path style="fill:#e5d8bf" d="M29,999 l0,-32 43,0 0,32 -43,0z" /><path style="fill:#f2e5cc" d="M45,999 l0,-32 10,0 0,32 -10,0z" /><path style="fill:#f2e5cc" d="M235,999 l0,-32 10,0 0,32 -10,0z" /><path style="fill:#f2e5cc" d="M603,999 l0,-32 10,0 0,32 -10,0z" /><path style="fill:#f2e5cc;stroke:#4c4c4c;stroke-width:2" d="M645,115 l16,0 0,136 -16,0 0,-136z" /><path style="fill:#b2b2b2;stroke:#4c4c4c;stroke-width:2" d="M213,241 l0,-52 422,0 0,52 -422,0z" /><path style="fill:#999;stroke:#4c4c4c;stroke-width:2" d="M213,189 l0,-12 422,0 0,12 -422,0z" /><path style="fill:#000;stroke:#4c4c4c;stroke-width:2" d="M9,893 l178,0 0,74 -178,0 0,-74z" /><path style="fill:#f2e5cc" d="M187,251 l474,0 0,716 -474,0 0,-716z" /><path style="fill:#ede0c7" d="M187,759 l474,-298 0,506 -474,0 0,-208z" /><path style="fill:#e8dbc2" d="M187,789 l474,-298 0,476 -474,0 0,-178z" /><path style="fill:#e3d6bd" d="M187,835 l474,-300 0,432 -474,0 0,-132z" /><path style="fill:#f2e5cc" d="M9,148 l168,0 0,757 -168,0 0,-757z" /><path style="fill:#ede0c7" d="M9,579 l168,-106 0,178 -168,0 0,-72z" /><path style="fill:#e8dbc2" d="M9,589 l168,-106 0,168 -168,0 0,-62z" /><path style="fill:#e3d6bd" d="M9,605 l168,-106 0,406 -168,0 0,-300z" /><path style="fill:none;stroke:#4c4c4c;stroke-width:2" d="M9,148 l168,0 0,757 -168,0 0,-757" /><path style="fill:none;stroke:#f2e5cc;stroke-width:2" d="M177,905 l0,62" /><path style="fill:#ccc" d="M29,251 l126,0 0,190 -126,0 0,-190z" /><path style="fill:#c7c7c7" d="M29,387 l126,-80 0,134 -126,0 0,-54z" /><path style="fill:#c2c2c2" d="M29,395 l126,-80 0,126 -126,0 0,-46z" /><path style="fill:#bdbdbd" d="M29,405 l126,-78 0,114 -126,0 0,-36z" /><path style="fill:none;stroke:#4c4c4c;stroke-width:2" d="M29,251 l126,0 0,190 -126,0 0,-190" /><path style="fill:#7f7f7f" d="M29,493 l126,0 0,54 -126,0 0,-54z" /><path style="fill:none;stroke:#998c73;stroke-width:2" d="M441,567 l0,400" /><path style="fill:none;stroke:#f2e5cc;stroke-width:2" d="M445,567 l0,400" /><path style="fill:#369" d="M187,589 l474,0 0,10 -474,0 0,-10z" /><path style="fill:#369" d="M187,609 l474,0 0,22 -474,0 0,-22z" /><path style="fill:#369" d="M9,589 l168,0 0,10 -168,0 0,-10z" /><path style="fill:#369" d="M9,609 l168,0 0,22 -168,0 0,-22z" /><path style="fill:none;stroke:#4c4c4c;stroke-width:2" d="M187,251 l474,0 0,716 -474,0 0,-716" /><path style="fill:#d9ccb3;stroke:#4c4c4c;stroke-width:2" d="M177,148 l10,0 0,745 -10,0 0,-745z" /><path style="fill:#d9ccb3;stroke:#4c4c4c;stroke-width:2" d="M0,148 l9,0 0,745 -9,0 0,-745z" /><path style="fill:#ccc" d="M271,251 l306,0 0,316 -306,0 0,-316z" /><path style="fill:#b2b2b2" d="M577,563 l-22,-16 0,-296 22,0 0,312z" /><path style="fill:#b2b2b2" d="M271,563 l22,-16 0,-296 -22,0 0,312z" /><path style="fill:#e5e5e5" d="M271,563 l22,-16 262,0 22,16 -306,0z" /><path style="fill:none;stroke:#ccbfa6;stroke-width:2" d="M193,561 l74,0 0,-72" /><path style="fill:none;stroke:#ccbfa6;stroke-width:2" d="M583,561 l72,0 0,-72" /><path style="fill:none;stroke:#fff;stroke-width:2" d="M583,561 l0,-72 72,0" /><path style="fill:none;stroke:#fff;stroke-width:2" d="M193,561 l0,-72 74,0" /><path style="fill:#7f7f7f" d="M255,493 l6,0 0,6 -6,0 0,-6z" /><path style="fill:#7f7f7f" d="M197,493 l6,0 0,6 -6,0 0,-6z" /><path style="fill:#7f7f7f" d="M197,551 l6,0 0,6 -6,0 0,-6z" /><path style="fill:#7f7f7f" d="M255,551 l6,0 0,6 -6,0 0,-6z" /><path style="fill:#7f7f7f" d="M645,493 l6,0 0,6 -6,0 0,-6z" /><path style="fill:#7f7f7f" d="M587,493 l6,0 0,6 -6,0 0,-6z" /><path style="fill:#7f7f7f" d="M587,551 l6,0 0,6 -6,0 0,-6z" /><path style="fill:#7f7f7f" d="M645,551 l6,0 0,6 -6,0 0,-6z" /><path style="fill:#7f7f7f" d="M429,573 l6,0 0,4 -6,0 0,-4z" /><path style="fill:#7f7f7f" d="M445,573 l6,0 0,4 -6,0 0,-4z" /><path style="fill:#7f7f7f" d="M429,751 l6,0 0,6 -6,0 0,-6z" /><path style="fill:#7f7f7f" d="M445,751 l6,0 0,6 -6,0 0,-6z" /><path style="fill:#7f7f7f" d="M429,956 l6,0 0,5 -6,0 0,-5z" /><path style="fill:#7f7f7f" d="M445,956 l6,0 0,5 -6,0 0,-5z" /><path style="fill:none;stroke:#4c4c4c;stroke-width:2" d="M271,251 l306,0 0,316 -306,0 0,-316" /><path style="fill:#000" d="M271,563 l306,0 0,4 -306,0 0,-4z" /><path style="fill:#f2e5cc;stroke:#4c4c4c;stroke-width:2" d="M593,189 l58,0 0,62 -58,0 0,-62z" /><path style="fill:#f2e5cc;stroke:#4c4c4c;stroke-width:2" d="M197,189 l60,0 0,62 -60,0 0,-62z" /><path style="fill:#999;stroke:#4c4c4c;stroke-width:2" d="M567,115 l10,0 0,448 -10,0 0,-448z" /><path style="fill:#999;stroke:#4c4c4c;stroke-width:2" d="M271,115 l12,0 0,448 -12,0 0,-448z" /><path style="fill:#666;stroke:#4c4c4c;stroke-width:2" d="M283,126 l0,-11 284,0 0,11 -284,0z" /><path style="fill:#7f7f7f" d="M471,505 l-42,0 0,42 -74,0 0,10 190,0 0,-10 -74,0 0,-42z" /><path style="fill:#7f7f7f" d="M541,393 l-180,0 0,12 -6,0 0,16 190,0 0,-16 -4,0 0,-12z" /><path style="fill:#7f7f7f" d="M425,341 l52,0 0,-58 6,0 0,-42 -64,0 0,42 6,0 0,58z" /><path style="fill:#8c8c8c" d="M471,503 l-40,0 0,42 -66,0 0,12 172,0 0,-12 -66,0 0,-42z" /><path style="fill:#8c8c8c" d="M533,393 l-164,0 0,12 -4,0 0,14 172,0 0,-14 -4,0 0,-12z" /><path style="fill:#8c8c8c" d="M427,341 l48,0 0,-58 6,0 0,-42 -58,0 0,42 4,0 0,58z" /><path style="fill:#999" d="M469,503 l-36,0 0,42 -60,0 0,12 156,0 0,-12 -60,0 0,-42z" /><path style="fill:#999" d="M525,393 l-148,0 0,12 -4,0 0,14 156,0 0,-14 -4,0 0,-12z" /><path style="fill:#999" d="M429,341 l44,0 0,-58 4,0 0,-42 -52,0 0,42 4,0 0,58z" /><path style="fill:#a6a6a6" d="M467,503 l-32,0 0,42 -54,0 0,12 140,0 0,-12 -54,0 0,-42z" /><path style="fill:#a6a6a6" d="M517,393 l-132,0 0,12 -4,0 0,14 140,0 0,-14 -4,0 0,-12z" /><path style="fill:#a6a6a6" d="M431,341 l40,0 0,-58 4,0 0,-42 -48,0 0,42 4,0 0,58z" /><path style="fill:#b2b2b2" d="M465,503 l-28,0 0,42 -48,0 0,12 124,0 0,-12 -48,0 0,-42z" /><path style="fill:#b2b2b2" d="M509,393 l-116,0 0,12 -4,0 0,14 124,0 0,-14 -4,0 0,-12z" /><path style="fill:#b2b2b2" d="M435,341 l34,0 0,-58 2,0 0,-42 -40,0 0,42 4,0 0,58z" /><path style="fill:#bfbfbf" d="M463,503 l-24,0 0,42 -40,0 0,12 104,0 0,-12 -40,0 0,-42z" /><path style="fill:#bfbfbf" d="M501,393 l-100,0 0,12 -2,0 0,14 104,0 0,-14 -2,0 0,-12z" /><path style="fill:#bfbfbf" d="M437,341 l28,0 0,-58 4,0 0,-42 -36,0 0,42 4,0 0,58z" /><path style="fill:#ccc" d="M461,503 l-20,0 0,42 -34,0 0,12 88,0 0,-12 -34,0 0,-42z" /><path style="fill:#ccc" d="M493,393 l-84,0 0,12 -2,0 0,14 88,0 0,-14 -2,0 0,-12z" /><path style="fill:#ccc" d="M439,341 l24,0 0,-58 2,0 0,-42 -28,0 0,42 2,0 0,58z" /><path style="fill:#d9d9d9" d="M459,503 l-16,0 0,42 -28,0 0,12 72,0 0,-12 -28,0 0,-42z" /><path style="fill:#d9d9d9" d="M485,393 l-68,0 0,12 -2,0 0,14 72,0 0,-14 -2,0 0,-12z" /><path style="fill:#d9d9d9" d="M441,341 l20,0 0,-58 2,0 0,-42 -24,0 0,42 2,0 0,58z" /><path style="fill:#e5e5e5" d="M457,503 l-12,0 0,42 -22,0 0,12 56,0 0,-12 -22,0 0,-42z" /><path style="fill:#e5e5e5" d="M477,393 l-52,0 0,12 -2,0 0,14 56,0 0,-14 -2,0 0,-12z" /><path style="fill:#e5e5e5" d="M443,341 l16,0 0,-58 2,0 0,-42 -18,0 0,42 0,58z" /><path style="fill:#f2f2f2" d="M455,503 l-8,0 0,42 -14,0 0,12 38,0 0,-12 -16,0 0,-42z" /><path style="fill:#f2f2f2" d="M469,393 l-36,0 0,12 0,14 38,0 0,-14 -2,0 0,-12z" /><path style="fill:#f2f2f2" d="M445,341 l12,0 0,-58 0,-42 -12,0 0,42 0,58z" /><path style="fill:#fff" d="M453,505 l-4,0 0,42 -8,0 0,10 20,0 0,-10 -8,0 0,-42z" /><path style="fill:#fff" d="M461,393 l-20,0 0,12 0,16 20,0 0,-16 0,-12z" /><path style="fill:#fff" d="M447,341 l6,0 0,-58 2,0 0,-42 -8,0 0,42 0,58z" /><path style="fill:none;stroke:#7f7f7f;stroke-width:2" d="M425,283 l52,0" /><path style="fill:none;stroke:#7f7f7f;stroke-width:2" d="M361,405 l180,0" /><path style="fill:none;stroke:#7f7f7f;stroke-width:2" d="M429,547 l42,0" /><path style="fill:none;stroke:#4c4c4c;stroke-width:2" d="M471,505 l-42,0 0,42 -74,0 0,10 190,0 0,-10 -74,0 0,-42" /><path style="fill:none;stroke:#4c4c4c;stroke-width:2" d="M541,393 l-180,0 0,12 -6,0 0,16 190,0 0,-16 -4,0 0,-12" /><path style="fill:none;stroke:#4c4c4c;stroke-width:2" d="M425,341 l52,0 0,-58 6,0 0,-42 -64,0 0,42 6,0 0,58" /><path style="fill:#e5e5e5;stroke:#4c4c4c;stroke-width:2" d="M425,341 l4,0 0,42 -4,0 0,-42z" /><path style="fill:#e5e5e5;stroke:#4c4c4c;stroke-width:2" d="M441,341 l4,0 0,42 -4,0 0,-42z" /><path style="fill:#e5e5e5;stroke:#4c4c4c;stroke-width:2" d="M455,341 l6,0 0,42 -6,0 0,-42z" /><path style="fill:#e5e5e5;stroke:#4c4c4c;stroke-width:2" d="M471,341 l6,0 0,42 -6,0 0,-42z" /><path style="fill:#b2b2b2;stroke:#4c4c4c;stroke-width:2" d="M467,383 l16,0 0,10 -16,0 0,-10z" /><path style="fill:#b2b2b2;stroke:#4c4c4c;stroke-width:2" d="M451,383 l16,0 0,10 -16,0 0,-10z" /><path style="fill:#b2b2b2;stroke:#4c4c4c;stroke-width:2" d="M435,383 l16,0 0,10 -16,0 0,-10z" /><path style="fill:#b2b2b2;stroke:#4c4c4c;stroke-width:2" d="M419,383 l16,0 0,10 -16,0 0,-10z" /><path style="fill:#b2b2b2;stroke:#4c4c4c;stroke-width:2" d="M419,177 l10,-51 42,0 12,51 -64,0z" /><path style="fill:#999" d="M429,115 l0,-115 42,0 0,115 -42,0z" /><path style="fill:#666" d="M435,115 l0,-115 4,0 0,115 -4,0z" /><path style="fill:#666" d="M461,115 l0,-115 6,0 0,115 -6,0z" /><path style="fill:#333" d="M441,115 l0,-115 20,0 0,115 -20,0z" /><path style="fill:none;stroke:#4c4c4c;stroke-width:2" d="M429,115 l0,-115 42,0 0,115 -42,0" /><path style="fill:#999" d="M283,42 l0,293 284,0 0,-293 -274,0 0,9 262,0 0,274 -262,0 0,-283 -10,0z" /><path style="fill:none;stroke:#4c4c4c;stroke-width:2" d="M283,42 l284,0 0,293 -284,0 0,-293" /><path style="fill:none;stroke:#4c4c4c;stroke-width:2" d="M293,51 l262,0 0,274 -262,0 0,-274" /><path style="fill:none;stroke:#4c4c4c;stroke-width:2" d="M209,999 l0,-32 62,0 0,32 -62,0" /><path style="fill:none;stroke:#4c4c4c;stroke-width:2" d="M20,999 l0,-32 63,0 0,32 -63,0" /><path style="fill:none;stroke:#4c4c4c;stroke-width:2" d="M577,999 l0,-32 64,0 0,32 -64,0" /><path style="fill:#333" d="M287,651 l54,0 0,16 -54,0 0,-16z" /><path style="fill:#333" d="M523,651 l54,0 0,16 -54,0 0,-16z" /><path style="fill:#333" d="M39,315 l87,0 0,74 -87,0 0,-74z" /><path style="fill:#333" d="M39,263 l87,0 0,42 -87,0 0,-42z" /></svg>