<!DOCTYPE svg PUBLIC "-//W3C//DTD SVG 20000303 Stylable//EN" "http://www.w3.org/TR/2000/03/WD-SVG-20000303/DTD/svg-20000303-stylable.dtd"[]><svg xmlns="http://www.w3.org/2000/svg" width="763px" height="999px" viewBox="0 0 749 999"><path style="fill:#699" d="M75,49 l0,-23 24,-26 500,49 24,26 0,724 -473,0 0,-100 25,0 6,-6 0,-88 -6,-6 -25,0 0,-424 -75,-126z" /><path style="fill:#5e9191" d="M623,299 l0,500 -473,0 0,-100 25,0 6,-6 0,-88 -6,-6 -25,0 0,-88 473,-212z" /><path style="fill:none;stroke:#4c4c4c;stroke-width:2" d="M75,49 l0,-23 24,-26 500,49 24,26 0,724 -473,0 0,-100 25,0 6,-6 0,-88 -6,-6 -25,0 0,-424 -75,-126" /><path style="fill:#033" d="M250,805 l0,-6 299,0 0,6 -299,0z" /><path style="fill:#9cc" d="M126,349 l24,0 0,250 -24,0 0,-250z" /><path style="fill:#366" d="M126,861 l24,0 0,138 -24,0 0,-138z" /><path style="fill:#9cc" d="M126,649 l24,0 0,188 -24,0 0,-188z" /><path style="fill:#699;stroke:#4c4c4c;stroke-width:2" d="M549,817 l0,-18 100,0 0,18 -100,0z" /><path style="fill:#699;stroke:#4c4c4c;stroke-width:2" d="M150,817 l0,-18 100,0 0,18 -100,0z" /><path style="fill:none;stroke:#366;stroke-width:2" d="M155,749 l270,0 0,-76 24,0 0,-198" /><path style="fill:none;stroke:#9cc;stroke-width:2" d="M155,755 l276,0 0,-74 24,0 0,-206" /><path style="fill:none;stroke:#366;stroke-width:2" d="M411,387 l126,0 0,100 -126,0 0,-100" /><path style="fill:#9cc" d="M199,399 l32,0 0,44 -32,0 0,-44z" /><path style="fill:none;stroke:#699;stroke-width:2" d="M150,425 l-24,0" /><path style="fill:none;stroke:#4c4c4c;stroke-width:2" d="M126,349 l24,0 0,250 -24,0 0,-250" /><path style="fill:#000" d="M537,99 l200,0 0,50 -200,0 0,-50z" /><path style="fill:#333" d="M463,53 l236,22 -2,12 -236,-20 2,-14z" /><path style="fill:#333" d="M491,291 l208,-116 -6,-11 -208,117 6,10z" /><path style="fill:#b2b2b2" d="M555,105 l162,0 0,38 -162,0 0,-38z" /><circle style="fill:#7f7f7f;stroke:#4c4c4c;stroke-width:2" cx="699" cy="124" r="50" /><circle style="fill:#9cc" cx="474" cy="174" r="125" /><path style="fill:#9cc" d="M291,287 l-30,30 -36,20 -42,12 -41,0 -43,-12 -35,-20 -32,-30 -20,-38 -12,-42 0,-42 12,-40 22,-38 30,-30 35,-22 43,-9 41,0 42,9 36,22 30,30 22,36 10,42 0,42 -10,42 -22,38z" /><path style="fill:#a6d9d9" d="M291,287 l-130,-100 -149,62 -12,-42 0,-42 12,-40 22,-38 127,100 152,-64 10,42 0,42 -10,42 -22,38z" /><path style="fill:#a6d9d9" d="M573,251 l-98,-76 -118,48 -8,-32 0,-34 8,-30 16,-30 100,78 118,-48 8,30 0,34 -8,32 -18,28z" /><path style="fill:#7fb2b2" d="M164,187 l-132,100 -20,-38 149,-62 130,-100 22,36 -149,64z" /><path style="fill:#7fb2b2" d="M475,175 l-102,76 -16,-28 116,-48 100,-78 18,30 -116,48z" /><circle style="fill:none;stroke:#366;stroke-width:2" cx="474" cy="174" r="63" /><ellipse style="fill:none;stroke:#366;stroke-width:2" cx="162" cy="187" rx="36" ry="38" /><circle style="fill:none;stroke:#4c4c4c;stroke-width:2" cx="474" cy="174" r="125" /><path style="fill:none;stroke:#4c4c4c;stroke-width:2" d="M291,287 l-30,30 -36,20 -42,12 -41,0 -43,-12 -35,-20 -32,-30 -20,-38 -12,-42 0,-42 12,-40 22,-38 30,-30 35,-22 43,-9 41,0 42,9 36,22 30,30 22,36 10,42 0,42 -10,42 -22,38" /><circle style="fill:#033" cx="474" cy="175" r="51" /><path style="fill:#366" d="M423,425 l100,0 0,50 -100,0 0,-50z" /><path style="fill:#699" d="M431,149 l86,0 6,276 -100,0 8,-276z" /><path style="fill:none;stroke:#4c4c4c;stroke-width:2" d="M431,149 l86,0 6,326 -100,0 8,-326" /><path style="fill:#699" d="M126,837 l24,0 0,24 -24,0 0,-24z" /><path style="fill:none;stroke:#4c4c4c;stroke-width:2" d="M126,649 l24,0 0,350 -24,0 0,-350" /></svg>