<!DOCTYPE svg PUBLIC "-//W3C//DTD SVG 20000303 Stylable//EN" "http://www.w3.org/TR/2000/03/WD-SVG-20000303/DTD/svg-20000303-stylable.dtd"[]><svg xmlns="http://www.w3.org/2000/svg" width="998px" height="953px" viewBox="0 0 999 950"><path style="fill:#9cc" d="M821,451 l178,-48 0,-262 -49,0 -48,166 -81,0 0,144z" /><path style="fill:#699" d="M821,451 l178,-48 0,-18 -178,48 0,18z" /><path style="fill:none;stroke:#4c4c4c;stroke-width:2" d="M821,451 l178,-48 0,-262 -49,0 -48,166 -81,0 0,144" /><path style="fill:#033" d="M36,18 l785,0 0,385 -785,0 0,-385z" /><path style="fill:#9cc" d="M803,285 l0,-267 30,0 0,-18 -810,0 0,18 30,0 0,267 750,0z" /><path style="fill:#9cc;stroke:#4c4c4c;stroke-width:2" d="M0,617 l0,192 189,141 476,0 192,-141 0,-192 -857,0z" /><path style="fill:#9cc;stroke:#4c4c4c;stroke-width:2" d="M0,451 l857,0 0,24 -857,0 0,-24z" /><path style="fill:#174a4a" d="M729,403 l0,-118 64,0 0,118 -64,0z" /><path style="fill:#174a4a" d="M62,403 l0,-118 65,0 0,118 -65,0z" /><path style="fill:#2e6161" d="M66,403 l0,-118 57,0 0,118 -57,0z" /><path style="fill:#2e6161" d="M733,403 l0,-118 56,0 0,118 -56,0z" /><path style="fill:#457878" d="M735,403 l0,-118 50,0 0,118 -50,0z" /><path style="fill:#457878" d="M70,403 l0,-118 49,0 0,118 -49,0z" /><path style="fill:#5c8f8f" d="M73,403 l0,-118 42,0 0,118 -42,0z" /><path style="fill:#5c8f8f" d="M739,403 l0,-118 42,0 0,118 -42,0z" /><path style="fill:#70a3a3" d="M743,403 l0,-118 36,0 0,118 -36,0z" /><path style="fill:#70a3a3" d="M77,403 l0,-118 34,0 0,118 -34,0z" /><path style="fill:#87baba" d="M81,403 l0,-118 26,0 0,118 -26,0z" /><path style="fill:#87baba" d="M747,403 l0,-118 28,0 0,118 -28,0z" /><path style="fill:#9ed1d1" d="M751,403 l0,-118 20,0 0,118 -20,0z" /><path style="fill:#9ed1d1" d="M84,403 l0,-118 21,0 0,118 -21,0z" /><path style="fill:#b5e8e8" d="M88,403 l0,-118 13,0 0,118 -13,0z" /><path style="fill:#b5e8e8" d="M755,403 l0,-118 12,0 0,118 -12,0z" /><path style="fill:#cff" d="M757,403 l0,-118 6,0 0,118 -6,0z" /><path style="fill:#cff" d="M92,403 l0,-118 5,0 0,118 -5,0z" /><path style="fill:#033" d="M114,331 l17,0 0,24 -17,0 0,-24z" /><path style="fill:#033" d="M59,331 l18,0 0,24 -18,0 0,-24z" /><path style="fill:#033" d="M779,331 l18,0 0,24 -18,0 0,-24z" /><path style="fill:#033" d="M725,331 l18,0 0,24 -18,0 0,-24z" /><path style="fill:none;stroke:#4c4c4c;stroke-width:2" d="M59,403 l0,-118 72,0 0,118 -72,0" /><path style="fill:none;stroke:#4c4c4c;stroke-width:2" d="M131,355 l-72,0" /><path style="fill:none;stroke:#4c4c4c;stroke-width:2" d="M59,331 l66,0" /><path style="fill:none;stroke:#4c4c4c;stroke-width:2" d="M725,403 l0,-118 72,0 0,118 -72,0" /><path style="fill:none;stroke:#4c4c4c;stroke-width:2" d="M797,355 l-72,0" /><path style="fill:none;stroke:#4c4c4c;stroke-width:2" d="M725,331 l72,0" /><path style="fill:#9cc" d="M0,571 l857,0 0,-168 -96,0 -48,-118 -572,0 -45,118 -96,0 0,168z" /><path style="fill:#91c4c4" d="M0,571 l857,0 0,-168 -96,0 -22,-56 -739,140 0,84z" /><path style="fill:none;stroke:#4c4c4c;stroke-width:2" d="M0,571 l857,0 0,-168 -96,0 -48,-118 -572,0 -45,118 -96,0 0,168" /><path style="fill:#033;stroke:#4c4c4c;stroke-width:2" d="M809,23 l48,0 0,308 -48,0 0,-308z" /><path style="fill:#033;stroke:#4c4c4c;stroke-width:2" d="M0,23 l48,0 0,308 -48,0 0,-308z" /><path style="fill:#174a4a" d="M809,37 l48,0 0,278 -48,0 0,-278z" /><path style="fill:#174a4a" d="M0,37 l48,0 0,278 -48,0 0,-278z" /><path style="fill:#2e6161" d="M809,53 l48,0 0,246 -48,0 0,-246z" /><path style="fill:#2e6161" d="M0,53 l48,0 0,246 -48,0 0,-246z" /><path style="fill:#457878" d="M809,70 l48,0 0,213 -48,0 0,-213z" /><path style="fill:#457878" d="M0,70 l48,0 0,213 -48,0 0,-213z" /><path style="fill:#5c8f8f" d="M809,85 l48,0 0,182 -48,0 0,-182z" /><path style="fill:#5c8f8f" d="M0,85 l48,0 0,182 -48,0 0,-182z" /><path style="fill:#70a3a3" d="M809,101 l48,0 0,152 -48,0 0,-152z" /><path style="fill:#70a3a3" d="M0,101 l48,0 0,152 -48,0 0,-152z" /><path style="fill:#87baba" d="M809,118 l48,0 0,119 -48,0 0,-119z" /><path style="fill:#87baba" d="M0,118 l48,0 0,119 -48,0 0,-119z" /><path style="fill:#9ed1d1" d="M809,133 l48,0 0,88 -48,0 0,-88z" /><path style="fill:#9ed1d1" d="M0,133 l48,0 0,88 -48,0 0,-88z" /><path style="fill:#b5e8e8" d="M809,149 l48,0 0,56 -48,0 0,-56z" /><path style="fill:#b5e8e8" d="M0,149 l48,0 0,56 -48,0 0,-56z" /><path style="fill:#cff" d="M809,165 l48,0 0,24 -48,0 0,-24z" /><path style="fill:#cff" d="M0,165 l48,0 0,24 -48,0 0,-24z" /><path style="fill:#91c4c4" d="M803,285 l0,-215 -750,155 0,60 750,0z" /><path style="fill:#699" d="M53,255 l750,0 0,18 -750,0 0,-18z" /><path style="fill:#366" d="M53,273 l750,0 0,12 -750,0 0,-12z" /><path style="fill:none;stroke:#4c4c4c;stroke-width:2" d="M96,285 l665,0" /><path style="fill:#033" d="M141,285 l572,0 6,12 -582,0 4,-12z" /><path style="fill:none;stroke:#4c4c4c;stroke-width:2" d="M803,285 l0,-267 30,0 0,-18 -810,0 0,18 30,0 0,267 750,0" /><path style="fill:#4c7f7f;stroke:#4c4c4c;stroke-width:2" d="M11,571 l12,0 0,46 -12,0 0,-46z" /><path style="fill:#4c7f7f;stroke:#4c4c4c;stroke-width:2" d="M827,571 l12,0 0,46 -12,0 0,-46z" /><path style="fill:none;stroke:#366;stroke-width:2" d="M831,749 l0,-96" /><path style="fill:none;stroke:#366;stroke-width:2" d="M803,749 l0,-96" /><path style="fill:none;stroke:#366;stroke-width:2" d="M11,475 l840,0" /><path style="fill:none;stroke:#366;stroke-width:2" d="M18,749 l0,-96" /><path style="fill:none;stroke:#366;stroke-width:2" d="M71,18 l720,0" /><path style="fill:none;stroke:#cff;stroke-width:2" d="M71,23 l720,0" /><path style="fill:none;stroke:#cff;stroke-width:2" d="M11,481 l840,0" /><path style="fill:none;stroke:#cff;stroke-width:2" d="M11,563 l840,0" /><path style="fill:none;stroke:#cff;stroke-width:2" d="M23,749 l0,-96" /><path style="fill:none;stroke:#cff;stroke-width:2" d="M837,749 l0,-96" /><path style="fill:none;stroke:#cff;stroke-width:2" d="M809,749 l0,-96" /><path style="fill:#033" d="M23,617 l0,-46 804,0 0,46 -6,0 0,-36 -792,0 0,36 -6,0z" /><path style="fill:#366" d="M18,761 l821,0 0,12 -821,0 0,-12z" /><path style="fill:#366;stroke:#4c4c4c;stroke-width:2" d="M18,629 l821,0 0,12 -821,0 0,-12z" /><path style="fill:#cff" d="M18,633 l821,0 0,6 -821,0 0,-6z" /><path style="fill:#cff" d="M18,763 l821,0 0,6 -821,0 0,-6z" /><path style="fill:none;stroke:#4c4c4c;stroke-width:2" d="M18,761 l821,0 0,12 -821,0 0,-12" /></svg>