<!DOCTYPE svg PUBLIC "-//W3C//DTD SVG 20000303 Stylable//EN" "http://www.w3.org/TR/2000/03/WD-SVG-20000303/DTD/svg-20000303-stylable.dtd"[]><svg xmlns="http://www.w3.org/2000/svg" width="998px" height="876px" viewBox="0 0 999 869"><path style="fill:none;stroke:#4c4c4c;stroke-width:2" d="M851,75 l4,58" /><path style="fill:none;stroke:#666;stroke-width:2" d="M949,811 l-15,-42 -31,-30" /><path style="fill:none;stroke:#666;stroke-width:2" d="M49,811 l15,-42 31,-30" /><path style="fill:#666;stroke:#4c4c4c;stroke-width:2" d="M961,855 l0,-52 22,4 16,32 -38,16z" /><path style="fill:#666;stroke:#4c4c4c;stroke-width:2" d="M37,855 l0,-52 -22,4 -15,32 37,16z" /><path style="fill:#ccc;stroke:#4c4c4c;stroke-width:2" d="M961,855 l0,-52 -38,4 -6,32 44,16z" /><path style="fill:#ccc;stroke:#4c4c4c;stroke-width:2" d="M37,855 l0,-52 38,4 6,32 -44,16z" /><path style="fill:#999;stroke:#4c4c4c;stroke-width:2" d="M861,573 l-116,0 116,-38 0,-20 114,-38 0,-58 -58,-18 0,-38 -18,-58 0,-152 -58,-40 0,-18 20,-20 0,-56 -116,0 -382,134 -228,0 0,228 152,0 96,38 0,78 -58,0 0,-20 -134,0 -18,-20 -20,0 -18,20 0,96 -20,38 -20,0 0,134 804,0 0,-134 -20,0 -18,-38z" /><path style="fill:#ccc;stroke:#4c4c4c;stroke-width:2" d="M415,329 l-46,14 -48,0 -46,-14 -40,-30 -28,-38 -16,-46 0,-48 16,-46 28,-40 40,-28 46,-16 454,-37 18,0 18,6 14,9 12,16 4,17 0,17 -4,18 -12,15 -14,11 -396,220z" /><circle style="fill:#b2b2b2" cx="345" cy="190" r="76" /><path style="fill:none;stroke:#666;stroke-width:2" d="M289,245 l-14,-20 -6,-22 0,-24 6,-24 14,-20 20,-14 24,-8 24,0 22,8 20,14" /><path style="fill:none;stroke:#fff;stroke-width:2" d="M399,135 l14,20 8,24 0,24 -8,22 -14,20 -20,14 -22,8 -24,0 -24,-8 -20,-14" /><path style="fill:#e5e5e5;stroke:#666;stroke-width:2" d="M327,199 l-2,-12 6,-10 10,-6 12,2 8,8 2,12 -4,10 -12,6 -12,-2 -8,-8z" /><path style="fill:#333" d="M287,219 l2,-6 4,-4 6,-2 6,4 2,4 0,6 -4,4 -6,2 -6,-2 -4,-6z" /><path style="fill:#333" d="M307,145 l2,-6 4,-4 6,-2 4,4 4,4 0,6 -4,4 -6,2 -6,-2 -4,-6z" /><path style="fill:#333" d="M381,165 l2,-6 4,-4 6,-2 4,2 4,6 0,6 -4,4 -6,2 -6,-2 -4,-6z" /><path style="fill:#333" d="M361,239 l2,-6 4,-4 6,-2 4,4 4,4 0,6 -4,4 -6,2 -6,-2 -4,-6z" /><path style="fill:#333" d="M139,567 l602,0 0,6 -602,0 0,-6z" /><path style="fill:#333" d="M119,607 l756,0 0,4 -756,0 0,-4z" /><path style="fill:none;stroke:#ccc;stroke-width:2" d="M139,573 l602,0" /><path style="fill:none;stroke:#ccc;stroke-width:2" d="M119,611 l756,0" /><circle style="fill:#b2b2b2" cx="655" cy="281" r="38" /><path style="fill:#666;stroke:#4c4c4c;stroke-width:2" d="M139,381 l0,30 48,0 0,-30 -48,0z" /><path style="fill:#666" d="M173,457 l4,20 14,0 -18,-20z" /><circle style="fill:#ccc" cx="655" cy="281" r="28" /><path style="fill:#b2b2b2" d="M451,473 l108,-108 68,64 -72,86 -62,0 -42,-42z" /><path style="fill:#fff" d="M449,497 l0,14 144,0 0,-14 -144,0z" /><path style="fill:#ccc" d="M511,515 l0,-48 38,0 0,30 10,0 0,-44 44,0 0,-10 -44,0 0,-42 32,0 14,4 12,10 10,12 4,14 0,16 -4,14 -10,12 -12,8 -14,6 -12,0 0,18 -68,0z" /><path style="fill:none;stroke:#4c4c4c;stroke-width:2" d="M321,497 l-158,0" /><path style="fill:none;stroke:#ccc;stroke-width:2" d="M139,377 l0,-72 48,0" /><path style="fill:none;stroke:#666;stroke-width:2" d="M187,305 l0,72 -48,0" /><path style="fill:#666" d="M101,279 l24,24 28,24 6,-6 -27,-22 -27,-26 -4,6z" /><path style="fill:#666" d="M159,353 l32,8 32,6 2,-6 -32,-6 -32,-8 -2,6z" /><path style="fill:#000" d="M99,281 l-4,-4 -1,-4 1,-4 4,-2 4,0 4,2 0,4 0,4 -4,4 -4,0z" /><path style="fill:#000" d="M159,355 l-4,0 -4,-2 0,-4 2,-4 4,-2 4,0 2,4 2,4 -2,4 -4,0z" /><path style="fill:#b2b2b2;stroke:#4c4c4c;stroke-width:2" d="M217,369 l-2,-4 0,-4 4,-4 4,0 4,2 2,4 0,6 -4,2 -4,2 -4,-4z" /><circle style="fill:#b2b2b2;stroke:#4c4c4c;stroke-width:2" cx="163" cy="329" r="14" /><path style="fill:none;stroke:#e5e5e5;stroke-width:2" d="M363,615 l0,124" /><path style="fill:none;stroke:#e5e5e5;stroke-width:2" d="M631,615 l0,124" /><path style="fill:none;stroke:#666;stroke-width:2" d="M625,615 l0,124" /><path style="fill:none;stroke:#666;stroke-width:2" d="M359,615 l0,124" /><path style="fill:none;stroke:#7f7f7f;stroke-width:2" d="M651,281 l-14,24" /><path style="fill:#ccc;stroke:#4c4c4c;stroke-width:2" d="M81,611 l14,0 0,134 -14,0 0,-134z" /><path style="fill:#ccc;stroke:#4c4c4c;stroke-width:2" d="M899,611 l13,0 0,134 -13,0 0,-134z" /><path style="fill:#ccc;stroke:#4c4c4c;stroke-width:2" d="M81,745 l-8,96 854,0 -15,-96 -831,0z" /><path style="fill:none;stroke:#666;stroke-width:2" d="M377,639 l0,-14 44,0" /><path style="fill:none;stroke:#666;stroke-width:2" d="M569,639 l0,-14 42,0" /><path style="fill:none;stroke:#666;stroke-width:2" d="M645,639 l0,-14 44,0" /><path style="fill:none;stroke:#666;stroke-width:2" d="M837,639 l0,-14 42,0" /><path style="fill:none;stroke:#e5e5e5;stroke-width:2" d="M879,625 l0,14 -42,0" /><path style="fill:none;stroke:#e5e5e5;stroke-width:2" d="M689,625 l0,14 -44,0" /><path style="fill:none;stroke:#e5e5e5;stroke-width:2" d="M613,625 l0,14 -44,0" /><path style="fill:none;stroke:#e5e5e5;stroke-width:2" d="M421,625 l0,14 -44,0" /><path style="fill:#666" d="M769,195 l10,0 0,296 -10,0 0,-296z" /><path style="fill:#666" d="M793,195 l10,0 0,296 -10,0 0,-296z" /><path style="fill:#b2b2b2" d="M745,373 l78,0 0,84 -78,0 0,-84z" /><circle style="fill:none;stroke:#ccc;stroke-width:2" cx="768" cy="327" r="21" /><path style="fill:none;stroke:#ccc;stroke-width:2" d="M767,327 l-16,-14" /><path style="fill:none;stroke:#ccc;stroke-width:2" d="M787,317 l-20,10" /><path style="fill:none;stroke:#ccc;stroke-width:2" d="M765,349 l2,-22" /><path style="fill:#666" d="M459,383 l6,-8 44,44 -6,6 -44,-42z" /><path style="fill:#666" d="M477,365 l6,-6 44,42 -8,6 -42,-42z" /><path style="fill:#666" d="M431,371 l40,-42 20,22 -40,40 -20,-20z" /><circle style="fill:none;stroke:#ccc;stroke-width:2" cx="461" cy="360" r="22" /><path style="fill:none;stroke:#ccc;stroke-width:2" d="M461,359 l14,-16" /><path style="fill:none;stroke:#ccc;stroke-width:2" d="M471,379 l-10,-20" /><path style="fill:none;stroke:#ccc;stroke-width:2" d="M439,357 l22,2" /><path style="fill:#e5e5e5;stroke:#4c4c4c;stroke-width:2" d="M101,739 l90,0 0,6 -90,0 0,-6z" /><path style="fill:#e5e5e5;stroke:#4c4c4c;stroke-width:2" d="M803,739 l90,0 0,6 -90,0 0,-6z" /><path style="fill:#e5e5e5;stroke:#4c4c4c;stroke-width:2" d="M64,841 l873,0 0,8 -873,0 0,-8z" /><circle style="fill:#333" cx="124" cy="792" r="19" /><circle style="fill:#333" cx="866" cy="792" r="19" /><path style="fill:#666;stroke:#4c4c4c;stroke-width:2" d="M487,869 l0,-66 -28,4 -20,42 48,20z" /><path style="fill:#ccc;stroke:#4c4c4c;stroke-width:2" d="M487,869 l0,-66 48,4 10,42 -58,20z" /><path style="fill:none;stroke:#666;stroke-width:2" d="M503,803 l-14,-21 -12,-19 -10,-17 -8,-15 -6,-14 -4,-11 -2,-9 0,-7 2,-5 5,-3 7,-1 10,2 12,3 15,6 17,8 20,11 7,5 4,5 3,6 1,5 -1,4 -2,5 -4,4 -6,3 -6,3 -7,3 -9,3 -9,1 -10,1 -10,0 -11,0 -10,-2 -11,-2 -10,-3 -11,-4 -10,-5 -9,-6 -9,-7 -8,-8 -7,-9 -5,-10 -5,-12 -3,-13 -2,-15 0,-16 2,-17 4,-19 6,-20" /><path style="fill:none;stroke:#4c4c4c;stroke-width:2" d="M0,839 l37,-4" /><path style="fill:none;stroke:#4c4c4c;stroke-width:2" d="M999,839 l-38,-4" /><path style="fill:none;stroke:#4c4c4c;stroke-width:2" d="M439,849 l48,-4" /></svg>