<!DOCTYPE svg PUBLIC "-//W3C//DTD SVG 20000303 Stylable//EN" "http://www.w3.org/TR/2000/03/WD-SVG-20000303/DTD/svg-20000303-stylable.dtd"[]><svg xmlns="http://www.w3.org/2000/svg" width="527px" height="998px" viewBox="0 0 499 998"><path style="fill:#333;stroke:#4c4c4c;stroke-width:2" d="M423,811 l0,156 -30,0 -58,-156 88,0z" /><path style="fill:#333;stroke:#4c4c4c;stroke-width:2" d="M75,811 l0,156 30,0 58,-156 -88,0z" /><path style="fill:#666" d="M35,249 l428,0 0,562 -428,0 0,-562z" /><path style="fill:#616161" d="M35,625 l428,-268 0,454 -428,0 0,-186z" /><path style="fill:#5c5c5c" d="M35,653 l428,-268 0,426 -428,0 0,-158z" /><path style="fill:#575757" d="M35,693 l428,-268 0,386 -428,0 0,-118z" /><path style="fill:#333" d="M103,249 l292,0 0,-62 -292,0 0,62z" /><path style="fill:#666;stroke:#4c4c4c;stroke-width:2" d="M457,811 l0,187 -34,0 -70,-187 104,0z" /><path style="fill:#666;stroke:#4c4c4c;stroke-width:2" d="M42,811 l0,187 33,0 70,-187 -103,0z" /><path style="fill:#454545" d="M119,249 l260,0 0,-64 -260,0 0,64z" /><path style="fill:#595959" d="M133,249 l232,0 0,-64 -232,0 0,64z" /><path style="fill:#6b6b6b" d="M149,249 l200,0 0,-64 -200,0 0,64z" /><path style="fill:#7f7f7f" d="M165,249 l170,0 0,-64 -170,0 0,64z" /><path style="fill:#919191" d="M179,249 l140,0 0,-64 -140,0 0,64z" /><path style="fill:#a6a6a6" d="M195,249 l108,0 0,-64 -108,0 0,64z" /><path style="fill:#b8b8b8" d="M209,249 l80,0 0,-64 -80,0 0,64z" /><path style="fill:#ccc" d="M229,249 l40,0 0,-62 -40,0 0,62z" /><path style="fill:none;stroke:#4c4c4c;stroke-width:2" d="M103,249 l292,0 0,-62 -292,0 0,62" /><path style="fill:none;stroke:#999;stroke-width:2" d="M51,801 l0,-84 396,0" /><path style="fill:none;stroke:#4c4c4c;stroke-width:2" d="M51,801 l396,0 0,-84" /><path style="fill:none;stroke:#999;stroke-width:2" d="M441,723 l0,72 -384,0" /><path style="fill:none;stroke:#4c4c4c;stroke-width:2" d="M441,723 l-384,0 0,72" /><path style="fill:none;stroke:#999;stroke-width:2" d="M51,701 l0,-358 396,0" /><path style="fill:none;stroke:#4c4c4c;stroke-width:2" d="M51,701 l396,0 0,-358" /><path style="fill:none;stroke:#999;stroke-width:2" d="M441,347 l0,350 -384,0" /><path style="fill:none;stroke:#4c4c4c;stroke-width:2" d="M441,347 l-384,0 0,350" /><path style="fill:none;stroke:#4c4c4c;stroke-width:2" d="M35,249 l428,0 0,562 -428,0 0,-562" /><path style="fill:#666;stroke:#4c4c4c;stroke-width:2" d="M0,249 l499,0 0,-10 -499,0 0,10z" /><path style="fill:none;stroke:#999;stroke-width:2" d="M227,479 l0,-32 42,0" /><path style="fill:none;stroke:#999;stroke-width:2" d="M265,453 l0,20 -32,0" /><path style="fill:none;stroke:#4c4c4c;stroke-width:2" d="M265,453 l-32,0 0,20" /><path style="fill:none;stroke:#999;stroke-width:2" d="M223,509 l0,-32 52,0" /><path style="fill:none;stroke:#4c4c4c;stroke-width:2" d="M223,509 l52,0 0,-32" /><path style="fill:none;stroke:#999;stroke-width:2" d="M271,483 l0,20 -44,0" /><path style="fill:none;stroke:#4c4c4c;stroke-width:2" d="M271,483 l-44,0 0,20" /><path style="fill:none;stroke:#4c4c4c;stroke-width:2" d="M227,479 l42,0 0,-32" /><path style="fill:#333;stroke:#4c4c4c;stroke-width:2" d="M25,395 l32,0 0,26 -32,0 0,-26z" /><path style="fill:#999;stroke:#4c4c4c;stroke-width:2" d="M57,399 l11,0 0,16 -11,0 0,-16z" /><path style="fill:#333;stroke:#4c4c4c;stroke-width:2" d="M25,629 l32,0 0,26 -32,0 0,-26z" /><path style="fill:#999;stroke:#4c4c4c;stroke-width:2" d="M57,635 l11,0 0,14 -11,0 0,-14z" /><path style="fill:#333;stroke:#4c4c4c;stroke-width:2" d="M25,749 l32,0 0,26 -32,0 0,-26z" /><path style="fill:#999;stroke:#4c4c4c;stroke-width:2" d="M57,753 l11,0 0,16 -11,0 0,-16z" /><path style="fill:#333;stroke:#4c4c4c;stroke-width:2" d="M473,395 l-30,0 0,26 30,0 0,-26z" /><path style="fill:#999;stroke:#4c4c4c;stroke-width:2" d="M443,399 l-12,0 0,16 12,0 0,-16z" /><path style="fill:#333;stroke:#4c4c4c;stroke-width:2" d="M473,629 l-30,0 0,26 30,0 0,-26z" /><path style="fill:#999;stroke:#4c4c4c;stroke-width:2" d="M443,635 l-12,0 0,14 12,0 0,-14z" /><path style="fill:#333;stroke:#4c4c4c;stroke-width:2" d="M473,749 l-30,0 0,26 30,0 0,-26z" /><path style="fill:#999;stroke:#4c4c4c;stroke-width:2" d="M443,753 l-12,0 0,16 12,0 0,-16z" /><path style="fill:#333" d="M187,187 l124,0 0,-187 -124,0 0,187z" /><path style="fill:#454545" d="M193,187 l112,0 0,-187 -112,0 0,187z" /><path style="fill:#595959" d="M199,187 l100,0 0,-187 -100,0 0,187z" /><path style="fill:#6b6b6b" d="M207,187 l84,0 0,-187 -84,0 0,187z" /><path style="fill:#7f7f7f" d="M213,187 l72,0 0,-187 -72,0 0,187z" /><path style="fill:#919191" d="M219,187 l60,0 0,-187 -60,0 0,187z" /><path style="fill:#a6a6a6" d="M225,187 l48,0 0,-187 -48,0 0,187z" /><path style="fill:#b8b8b8" d="M233,187 l32,0 0,-187 -32,0 0,187z" /><path style="fill:#ccc" d="M241,187 l16,0 0,-187 -16,0 0,187z" /><path style="fill:none;stroke:#4c4c4c;stroke-width:2" d="M187,187 l124,0 0,-187 -124,0 0,187" /><path style="fill:none;stroke:#4c4c4c;stroke-width:2" d="M187,42 l124,0" /><path style="fill:none;stroke:#4c4c4c;stroke-width:2" d="M187,145 l124,0" /><path style="fill:#4c4c4c;stroke:#4c4c4c;stroke-width:2" d="M311,42 l22,0 0,41 -22,0 0,-41z" /></svg>