<!DOCTYPE svg PUBLIC "-//W3C//DTD SVG 20000303 Stylable//EN" "http://www.w3.org/TR/2000/03/WD-SVG-20000303/DTD/svg-20000303-stylable.dtd"[]><svg xmlns="http://www.w3.org/2000/svg" width="901px" height="999px" viewBox="0 0 895 999"><circle style="fill:#ccc;stroke:#4c4c4c;stroke-width:2" cx="94" cy="650" r="42" /><path style="fill:#666" d="M187,717 l62,0 0,156 -62,0 0,-156z" /><path style="fill:#4c4c4c;stroke:#4c4c4c;stroke-width:2" d="M665,165 l22,0 0,62 -22,0 0,-62z" /><path style="fill:#ccc" d="M675,165 l2,0 0,62 -2,0 0,-62z" /><path style="fill:none;stroke:#4c4c4c;stroke-width:2" d="M207,187 l0,82 22,64 40,62" /><path style="fill:#b2b2b2;stroke:#4c4c4c;stroke-width:2" d="M0,937 l187,20 0,-62 -187,0 0,42z" /><path style="fill:#ccc" d="M0,687 l187,0 0,208 -187,0 0,-208z" /><path style="fill:#c7c7c7" d="M0,835 l187,-88 0,148 -187,0 0,-60z" /><path style="fill:#c2c2c2" d="M0,843 l187,-88 0,140 -187,0 0,-52z" /><path style="fill:#bdbdbd" d="M0,855 l187,-86 0,126 -187,0 0,-40z" /><path style="fill:none;stroke:#4c4c4c;stroke-width:2" d="M0,687 l187,0 0,208 -187,0 0,-208" /><ellipse style="fill:#ccc;stroke:#4c4c4c;stroke-width:2" cx="93" cy="780" rx="71" ry="73" /><path style="fill:#ccc" d="M83,895 l792,0 0,104 -792,0 0,-104z" /><path style="fill:#ccc;stroke:#4c4c4c;stroke-width:2" d="M249,165 l230,0 0,710 -230,0 0,-710z" /><path style="fill:#ccc" d="M249,165 l480,0 0,-165 -480,0 0,165z" /><path style="fill:#c7c7c7" d="M269,809 l188,-96 0,160 -188,0 0,-64z" /><path style="fill:#c7c7c7" d="M269,573 l188,-94 0,160 -188,0 0,-66z" /><path style="fill:#c7c7c7" d="M269,339 l188,-96 0,162 -188,0 0,-66z" /><path style="fill:none;stroke:#999;stroke-width:2" d="M457,655 l-188,0 0,218" /><path style="fill:none;stroke:#999;stroke-width:2" d="M457,421 l-188,0 0,218" /><path style="fill:none;stroke:#999;stroke-width:2" d="M457,187 l-188,0 0,218" /><path style="fill:#b2b2b2" d="M83,895 l792,0 0,-22 -792,0 0,22z" /><path style="fill:none;stroke:#4c4c4c;stroke-width:2" d="M83,873 l792,0 0,126 -792,0 0,-126" /><path style="fill:#999" d="M249,41 l104,0 0,124 -104,0 0,-124z" /><path style="fill:#ccc" d="M311,41 l22,0 0,124 -22,0 0,-124z" /><path style="fill:none;stroke:#7f7f7f;stroke-width:2" d="M561,165 l0,-42 168,0" /><path style="fill:none;stroke:#e5e5e5;stroke-width:2" d="M353,61 l376,0" /><path style="fill:#b2b2b2" d="M395,0 l20,0 0,61 -20,0 0,-61z" /><path style="fill:none;stroke:#4c4c4c;stroke-width:2" d="M249,165 l480,0 0,-165 -480,0 0,165" /><path style="fill:#ccc;stroke:#4c4c4c;stroke-width:2" d="M479,853 l20,0 376,-126 0,-40 -396,0 0,166z" /><path style="fill:none;stroke:#4c4c4c;stroke-width:2" d="M249,41 l104,0" /><path style="fill:#ccc;stroke:#4c4c4c;stroke-width:2" d="M229,83 l62,0 0,62 -62,0 0,-62z" /><path style="fill:none;stroke:#4c4c4c;stroke-width:2" d="M229,145 l-22,42" /><ellipse style="fill:#7f7f7f" cx="374" cy="478" rx="63" ry="21" /><path style="fill:#ccc;stroke:#4c4c4c;stroke-width:2" d="M479,665 l416,0 0,22 -416,0 0,-22z" /><path style="fill:#ccc;stroke:#4c4c4c;stroke-width:2" d="M541,463 l0,-14 14,-14 14,-144 204,0 14,144 14,14 0,14 -260,0z" /><path style="fill:#ccc;stroke:#4c4c4c;stroke-width:2" d="M603,227 l146,0 0,64 -146,0 0,-64z" /><path style="fill:#ccc" d="M541,457 l250,0 0,42 -250,0 0,-42z" /><path style="fill:#b2b2b2" d="M561,457 l210,0 0,42 -210,0 0,-42z" /><path style="fill:#999" d="M625,457 l82,0 0,42 -82,0 0,-42z" /><path style="fill:#7f7f7f" d="M665,457 l22,0 0,42 -22,0 0,-42z" /><path style="fill:#ccc;stroke:#4c4c4c;stroke-width:2" d="M645,457 l20,0 0,42 -20,0 0,-42z" /><path style="fill:none;stroke:#4c4c4c;stroke-width:2" d="M541,457 l250,0 0,42 -250,0 0,-42" /><path style="fill:#999;stroke:#4c4c4c;stroke-width:2" d="M561,499 l6,52 10,0 6,-52 -22,0z" /><path style="fill:#999;stroke:#4c4c4c;stroke-width:2" d="M603,499 l6,52 4,0 6,-52 -16,0z" /><path style="fill:#999;stroke:#4c4c4c;stroke-width:2" d="M645,499 l4,52 6,0 6,-52 -16,0z" /><path style="fill:#999;stroke:#4c4c4c;stroke-width:2" d="M687,499 l4,52 6,0 6,-52 -16,0z" /><path style="fill:#999;stroke:#4c4c4c;stroke-width:2" d="M727,499 l6,52 6,-52 -12,0z" /><path style="fill:#999;stroke:#4c4c4c;stroke-width:2" d="M753,499 l6,52 6,-52 -12,0z" /><path style="fill:#ccc;stroke:#4c4c4c;stroke-width:2" d="M567,609 l0,-58 10,0 0,58 -10,0z" /><path style="fill:#ccc;stroke:#4c4c4c;stroke-width:2" d="M609,603 l0,-52 4,0 0,52 -4,0z" /><path style="fill:#ccc;stroke:#4c4c4c;stroke-width:2" d="M649,597 l0,-46 6,0 0,46 -6,0z" /><path style="fill:#ccc;stroke:#4c4c4c;stroke-width:2" d="M691,593 l0,-42 6,0 0,42 -6,0z" /><path style="fill:none;stroke:#4c4c4c;stroke-width:2" d="M733,551 l0,36" /><path style="fill:none;stroke:#4c4c4c;stroke-width:2" d="M759,551 l0,36" /><path style="fill:none;stroke:#fff;stroke-width:2" d="M597,425 l0,-104 158,0" /><path style="fill:none;stroke:#999;stroke-width:2" d="M597,425 l158,0 0,-104" /><ellipse style="fill:#e5e5e5" cx="93" cy="780" rx="45" ry="47" /><path style="fill:none;stroke:#e5e5e5;stroke-width:2" d="M94,972 l769,0" /></svg>