<!DOCTYPE svg PUBLIC "-//W3C//DTD SVG 20000303 Stylable//EN" "http://www.w3.org/TR/2000/03/WD-SVG-20000303/DTD/svg-20000303-stylable.dtd"[]><svg xmlns="http://www.w3.org/2000/svg" width="521px" height="998px" viewBox="0 0 493 999"><path style="fill:#630" d="M103,531 l10,0 0,114 -10,0 0,-114z" /><path style="fill:#630" d="M301,531 l10,0 0,114 -10,0 0,-114z" /><path style="fill:#960;stroke:#4c4c4c;stroke-width:2" d="M415,333 l42,0 0,-249 -42,0 0,249z" /><path style="fill:#960;stroke:#4c4c4c;stroke-width:2" d="M353,415 l62,0 0,-415 -62,0 0,415z" /><path style="fill:#a6730d" d="M417,317 l40,0 0,-220 -40,0 0,220z" /><path style="fill:#a6730d" d="M353,391 l64,0 0,-368 -64,0 0,368z" /><path style="fill:#b27f19" d="M417,303 l40,0 0,-192 -40,0 0,192z" /><path style="fill:#b27f19" d="M353,367 l64,0 0,-320 -64,0 0,320z" /><path style="fill:#bf8c26" d="M417,289 l40,0 0,-164 -40,0 0,164z" /><path style="fill:#bf8c26" d="M353,343 l64,0 0,-272 -64,0 0,272z" /><path style="fill:#c93" d="M417,275 l40,0 0,-136 -40,0 0,136z" /><path style="fill:#c93" d="M353,319 l64,0 0,-224 -64,0 0,224z" /><path style="fill:#d9a640" d="M417,259 l40,0 0,-104 -40,0 0,104z" /><path style="fill:#d9a640" d="M353,295 l64,0 0,-176 -64,0 0,176z" /><path style="fill:#e5b24c" d="M417,245 l40,0 0,-76 -40,0 0,76z" /><path style="fill:#e5b24c" d="M353,271 l64,0 0,-128 -64,0 0,128z" /><path style="fill:#f2bf59" d="M417,231 l40,0 0,-48 -40,0 0,48z" /><path style="fill:#f2bf59" d="M353,247 l64,0 0,-80 -64,0 0,80z" /><path style="fill:#fc6" d="M415,217 l42,0 0,-20 -42,0 0,20z" /><path style="fill:#fc6" d="M353,223 l62,0 0,-32 -62,0 0,32z" /><path style="fill:#c93" d="M61,707 l0,249 292,0 0,-249 -292,0z" /><path style="fill:#c93" d="M61,853 l0,103 292,0 0,-103 -292,0z" /><path style="fill:#bf8c26" d="M63,853 l0,103 290,0 0,-103 -290,0z" /><path style="fill:#b27f19" d="M63,881 l0,75 290,0 0,-75 -290,0z" /><path style="fill:#a6730d" d="M63,895 l0,61 290,0 0,-61 -290,0z" /><path style="fill:#960" d="M63,908 l0,48 290,0 0,-48 -290,0z" /><path style="fill:#8c5900" d="M63,921 l0,35 290,0 0,-35 -290,0z" /><path style="fill:#7f4c00" d="M61,937 l0,19 292,0 0,-19 -292,0z" /><path style="fill:none;stroke:#4c4c4c;stroke-width:2" d="M61,707 l0,249 292,0 0,-249 -292,0" /><path style="fill:#c93;stroke:#4c4c4c;stroke-width:2" d="M333,749 l82,0 0,250 -82,0 0,-250z" /><path style="fill:#c93;stroke:#4c4c4c;stroke-width:2" d="M0,749 l83,0 0,250 -83,0 0,-250z" /><path style="fill:#d4a13b" d="M333,749 l82,0 0,146 -82,0 0,-146z" /><path style="fill:#d4a13b" d="M0,749 l83,0 0,146 -83,0 0,-146z" /><path style="fill:#deab45" d="M333,749 l82,0 0,62 -82,0 0,-62z" /><path style="fill:#deab45" d="M0,749 l83,0 0,62 -83,0 0,-62z" /><path style="fill:#e5b24c" d="M0,749 l83,0 0,20 -83,0 0,-20z" /><path style="fill:#e5b24c" d="M333,749 l82,0 0,20 -82,0 0,-20z" /><path style="fill:#ccc" d="M167,721 l0,28 82,0 0,-28 -82,0z" /><path style="fill:#000" d="M167,707 l0,14 82,0 0,-14 -82,0z" /><path style="fill:#7f0000" d="M187,707 l0,14 42,0 0,-14 -42,0z" /><path style="fill:#e5b24c" d="M291,707 l62,0 0,42 -62,0 0,-42z" /><path style="fill:#e5b24c" d="M61,707 l64,0 0,42 -64,0 0,-42z" /><path style="fill:#ccc" d="M19,645 l376,0 0,62 -376,0 0,-62z" /><path style="fill:#bfbfbf" d="M19,697 l376,-42 0,52 -376,0 0,-10z" /><path style="fill:none;stroke:#e5e5e5;stroke-width:2" d="M35,695 l346,-38" /><path style="fill:none;stroke:#4c4c4c;stroke-width:2" d="M21,645 l374,0 0,62 -374,0 0,-62" /><path style="fill:none;stroke:#4c4c4c;stroke-width:2" d="M21,687 l374,0" /><path style="fill:#c93;stroke:#4c4c4c;stroke-width:2" d="M307,395 l68,0 0,250 -68,0 0,-250z" /><path style="fill:#c93;stroke:#4c4c4c;stroke-width:2" d="M41,395 l66,0 0,250 -66,0 0,-250z" /><path style="fill:#d4a13b" d="M307,395 l68,0 0,146 -68,0 0,-146z" /><path style="fill:#d4a13b" d="M41,395 l66,0 0,146 -66,0 0,-146z" /><path style="fill:#deab45" d="M287,395 l54,0 0,62 -54,0 0,-62z" /><path style="fill:#deab45" d="M73,395 l54,0 0,62 -54,0 0,-62z" /><path style="fill:#e5b24c" d="M73,395 l54,0 0,20 -54,0 0,-20z" /><path style="fill:#e5b24c" d="M287,395 l54,0 0,20 -54,0 0,-20z" /><path style="fill:#c93" d="M57,477 l300,0 18,-144 -334,0 16,144z" /><path style="fill:#e5b24c" d="M375,333 l-18,-333 -300,0 -16,333 334,0z" /><path style="fill:#deab45" d="M375,333 l-12,-210 -318,106 -4,104 334,0z" /><path style="fill:#333" d="M201,645 l12,0 0,36 -12,0 0,-36z" /><path style="fill:#333" d="M165,645 l12,0 0,36 -12,0 0,-36z" /><path style="fill:#333" d="M237,645 l12,0 0,36 -12,0 0,-36z" /><path style="fill:none;stroke:#4c4c4c;stroke-width:2" d="M57,477 l300,0 18,-144 -18,-333 -300,0 -16,333 16,144" /><path style="fill:#e5b24c;stroke:#4c4c4c;stroke-width:2" d="M83,477 l-10,42 270,0 -10,-42 -250,0z" /><path style="fill:#e5cb98" d="M285,515 l-10,-16 10,-16 18,0 8,16 -8,16 -18,0z" /><path style="fill:#e5cb98" d="M117,515 l-8,-16 8,-16 18,0 10,16 -10,16 -18,0z" /><path style="fill:#333" d="M191,483 l38,0 0,32 -38,0 0,-32z" /><path style="fill:#f00" d="M211,509 l-14,-10 14,-10 12,10 -12,10z" /><path style="fill:#960;stroke:#4c4c4c;stroke-width:2" d="M83,519 l4,12 240,0 6,-12 -250,0z" /><path style="fill:#960" d="M375,425 l72,0 32,-40 -12,-168 -10,0 0,-16 22,0 14,188 -40,52 -78,0 0,-16z" /><path style="fill:none;stroke:#c93;stroke-width:2" d="M375,437 l72,-6 42,-46 -16,-172 -16,0" /><path style="fill:#e5b24c;stroke:#4c4c4c;stroke-width:2" d="M0,425 l41,0 0,126 -41,0 0,-126z" /><path style="fill:none;stroke:#f2e5cc;stroke-width:2" d="M11,537 l-6,-6 0,-8 2,-8 8,-4 8,-2 6,4" /><path style="fill:none;stroke:#f2e5cc;stroke-width:2" d="M11,495 l-6,-6 0,-8 2,-8 8,-4 8,-2 6,4" /><path style="fill:none;stroke:#960;stroke-width:2" d="M29,471 l6,6 0,8 -2,8 -6,4 -8,2 -8,-4" /><path style="fill:none;stroke:#960;stroke-width:2" d="M29,513 l6,6 0,8 -2,8 -6,4 -8,2 -8,-4" /><path style="fill:#630" d="M83,707 l20,0 0,42 -20,0 0,-42z" /><path style="fill:#630" d="M311,707 l22,0 0,42 -22,0 0,-42z" /><path style="fill:none;stroke:#4c4c4c;stroke-width:2" d="M61,707 l64,0 0,42 -64,0 0,-42" /><path style="fill:none;stroke:#4c4c4c;stroke-width:2" d="M291,707 l62,0 0,42 -62,0 0,-42" /></svg>