<!DOCTYPE svg PUBLIC "-//W3C//DTD SVG 20000303 Stylable//EN" "http://www.w3.org/TR/2000/03/WD-SVG-20000303/DTD/svg-20000303-stylable.dtd"[]><svg xmlns="http://www.w3.org/2000/svg" width="683px" height="999px" viewBox="0 0 665 999"><path style="fill:#630" d="M165,463 l0,14 -84,0 0,-20 240,0 0,240 -10,0 0,-230 -84,0 0,-4 -62,0z" /><path style="fill:#b27f19;stroke:#4c4c4c;stroke-width:2" d="M499,769 l0,-753 -334,0 0,441 166,0 0,250 -312,0 0,62 480,0z" /><path style="fill:#c93" d="M0,999 l39,-250 584,0 42,250 -665,0z" /><path style="fill:#c93;stroke:#4c4c4c;stroke-width:2" d="M165,473 l-84,0 -30,-140 36,-333 78,0 0,473z" /><path style="fill:#c93" d="M317,415 l-54,0 -54,-14 -46,-28 -40,-38 -28,-48 -14,-52 0,-56 14,-52 28,-47 40,-39 46,-28 54,-13 54,0 244,41 0,332 -244,42z" /><path style="fill:#c4912b" d="M317,415 l-54,0 -54,-14 -46,-28 -40,-38 -28,-48 466,-116 0,202 -244,42z" /><path style="fill:none;stroke:#960;stroke-width:2" d="M367,107 l22,24 18,28 8,32 0,32 -8,32 -18,28 -22,24 -30,16 -30,10 -34,0 -32,-10 -28,-16" /><path style="fill:none;stroke:#f2e5cc;stroke-width:2" d="M213,307 l-24,-24 -16,-28 -8,-32 0,-32 8,-32 16,-28 24,-24 28,-16 32,-8 34,0 32,8 28,16" /><ellipse style="fill:#630" cx="357" cy="209" rx="18" ry="42" /><path style="fill:#630" d="M319,161 l-56,0 -10,-5 -4,-9 0,-10 4,-8 10,-5 56,0 8,5 4,8 0,10 -4,9 -8,5z" /><ellipse style="fill:#630" cx="223" cy="209" rx="18" ry="42" /><path style="fill:#630" d="M319,295 l-56,0 -10,-6 -4,-8 0,-10 4,-8 10,-4 56,0 8,4 4,8 0,10 -4,8 -8,6z" /><path style="fill:none;stroke:#4c4c4c;stroke-width:2" d="M317,415 l-54,0 -54,-14 -46,-28 -40,-38 -28,-48 -14,-52 0,-56 14,-52 28,-47 40,-39 46,-28 54,-13 54,0 244,41 0,332 -244,42" /><path style="fill:#c4912b" d="M0,999 l11,-72 624,-110 30,182 -665,0z" /><path style="fill:none;stroke:#4c4c4c;stroke-width:2" d="M0,999 l39,-250 584,0 42,250 -665,0" /><path style="fill:none;stroke:#f2e5cc;stroke-width:2" d="M645,936 l0,40 -84,0" /><path style="fill:none;stroke:#f2e5cc;stroke-width:2" d="M103,936 l0,40 -84,0" /><path style="fill:none;stroke:#960;stroke-width:2" d="M645,936 l-84,0 0,40" /><path style="fill:none;stroke:#960;stroke-width:2" d="M103,936 l-84,0 0,40" /><path style="fill:#960" d="M287,219 l-6,-12 6,-10 12,0 6,10 -6,12 -12,0z" /><path style="fill:#ccc" d="M39,645 l272,0 0,62 -272,0 0,-62z" /><path style="fill:#bfbfbf" d="M39,697 l272,-42 0,52 -272,0 0,-10z" /><path style="fill:none;stroke:#e5e5e5;stroke-width:2" d="M51,695 l250,-38" /><path style="fill:none;stroke:#4c4c4c;stroke-width:2" d="M39,645 l272,0 0,62 -272,0 0,-62" /><path style="fill:none;stroke:#4c4c4c;stroke-width:2" d="M39,687 l272,0" /><path style="fill:#c93" d="M249,697 l0,52 82,0 22,-42 0,-250 -22,-42 -104,22 0,26 94,0 0,234 -72,0z" /><path style="fill:#ccc" d="M181,417 l-6,-12 6,-10 14,0 6,10 -6,12 -14,0z" /><path style="fill:#7f4c00" d="M269,451 l0,-2 0,-2 0,-3 0,-2 0,-3 0,-2 0,-3 0,-3 5,-1 5,-1 5,-1 5,-1 4,-1 5,-1 5,-1 4,-1 4,-1 4,-2 4,-1 4,-2 4,-3 3,-2 4,-4 3,-3 3,-1 2,-2 2,-4 1,-5 1,-5 1,-7 0,-8 0,-8 0,-9 -1,-9 0,-10 -1,-9 -1,-9 -1,-8 -1,-8 -1,-8 -1,-7 -2,-7 -2,-6 -3,-7 -3,-5 -3,-6 -4,-5 -4,-5 -4,-5 -5,-5 -4,-4 -4,-4 -5,-4 -4,-4 -4,-4 -4,-4 2,-1 1,-2 2,-1 2,-2 2,-1 2,-2 3,-1 2,-2 4,4 4,5 4,4 5,5 4,4 4,5 5,6 4,4 4,6 4,6 3,6 3,6 3,7 2,7 2,7 1,8 2,8 1,10 2,9 0,10 1,11 1,10 0,11 0,9 0,10 -1,9 -1,9 -1,7 -1,7 -2,4 -3,4 -2,2 -5,5 -5,4 -5,3 -5,3 -5,3 -5,2 -4,2 -6,1 -5,2 -5,1 -5,0 -6,1 -5,1 -6,1 -6,0 -6,1z" /><path style="fill:none;stroke:#c93;stroke-width:2" d="M275,441 l46,-10 26,-20 6,-16 4,-32 -10,-82 -16,-32 -36,-36" /><path style="fill:#333" d="M181,421 l14,0 0,30 -14,0 0,-30z" /><path style="fill:#630" d="M259,697 l30,0 0,16 -30,0 0,-16z" /><path style="fill:#630" d="M71,707 l84,0 0,20 -84,0 0,-20z" /><path style="fill:none;stroke:#4c4c4c;stroke-width:2" d="M249,697 l0,52 82,0 22,-42 0,-250 -22,-42 -104,22 0,26 94,0 0,234 -72,0" /><path style="fill:#960;stroke:#4c4c4c;stroke-width:2" d="M79,479 l-24,36 24,14 24,-36 -24,-14z" /><path style="fill:#e5b24c;stroke:#4c4c4c;stroke-width:2" d="M79,483 l-18,32 -20,-16 16,-26 22,10z" /><path style="fill:#c93;stroke:#4c4c4c;stroke-width:2" d="M81,473 l-30,46 10,6 30,-48 -10,-4z" /></svg>