<!DOCTYPE svg PUBLIC "-//W3C//DTD SVG 20000303 Stylable//EN" "http://www.w3.org/TR/2000/03/WD-SVG-20000303/DTD/svg-20000303-stylable.dtd"[]><svg xmlns="http://www.w3.org/2000/svg" width="999px" height="424px" viewBox="0 0 999 390"><path style="fill:#b2bfbf;stroke:#4c4c4c;stroke-width:2" d="M83,0 l83,0 0,379 -83,0 0,-379z" /><path style="fill:none;stroke:#859999;stroke-width:2" d="M93,0 l0,379" /><path style="fill:#c2cccc;stroke:#4c4c4c;stroke-width:2" d="M130,223 l0,11 36,15 666,0 36,-15 0,-11 -738,0z" /><path style="fill:#d1d9d9;stroke:#4c4c4c;stroke-width:2" d="M999,218 l-999,0 0,-26 20,-21 953,0 26,21 0,26z" /><path style="fill:#e0e5e5;stroke:#4c4c4c;stroke-width:2" d="M166,384 l0,-161 -42,0 0,-166 750,0 0,166 -42,0 0,161 -666,0z" /><path style="fill:none;stroke:#4c4c4c;stroke-width:2" d="M166,223 l0,-15" /><path style="fill:none;stroke:#4c4c4c;stroke-width:2" d="M832,208 l0,15" /><path style="fill:none;stroke:#fff;stroke-width:2" d="M426,171 l0,-83 141,0" /><path style="fill:none;stroke:#fff;stroke-width:2" d="M176,171 l0,-83 141,0" /><path style="fill:none;stroke:#7f7f7f;stroke-width:2" d="M567,88 l0,83 -141,0" /><path style="fill:none;stroke:#7f7f7f;stroke-width:2" d="M317,88 l0,83 -141,0" /><path style="fill:#d6dede" d="M171,384 l0,-26 656,-83 0,109 -656,0z" /><path style="fill:#ced6d6" d="M234,384 l593,-77 0,77 -593,0z" /><path style="fill:#c2cccc" d="M364,384 l463,-57 0,57 -463,0z" /><path style="fill:#d1d9d9;stroke:#a3b2b2;stroke-width:2" d="M327,208 l89,0 0,176 -89,0 0,-176z" /><path style="fill:#d1d9d9;stroke:#a3b2b2;stroke-width:2" d="M577,208 l89,0 0,176 -89,0 0,-176z" /><path style="fill:#004c4c" d="M166,384 l666,0 0,6 -666,0 0,-6z" /><path style="fill:#004c4c" d="M83,379 l83,0 0,6 -83,0 0,-6z" /><path style="fill:#fff" d="M281,98 l20,0 0,16 -20,0 0,-16z" /><path style="fill:#fff" d="M530,98 l21,0 0,16 -21,0 0,-16z" /><path style="fill:#eff2f2;stroke:#657f7f;stroke-width:2" d="M166,208 l10,-16 646,0 10,16 -666,0z" /><path style="fill:#f00" d="M884,187 l21,0 0,10 -21,0 0,-10z" /><path style="fill:#f00" d="M93,187 l21,0 0,10 -21,0 0,-10z" /><path style="fill:none;stroke:#e0e5e5;stroke-width:2" d="M541,387 l21,0" /><path style="fill:none;stroke:#a3b2b2;stroke-width:2" d="M749,57 l0,135" /><path style="fill:none;stroke:#a3b2b2;stroke-width:2" d="M374,57 l0,135" /><path style="fill:none;stroke:#a3b2b2;stroke-width:2" d="M624,57 l0,135" /><path style="fill:none;stroke:#fff;stroke-width:2" d="M717,88 l0,83 -62,0" /><path style="fill:none;stroke:#fff;stroke-width:2" d="M842,88 l0,83 -62,0" /><path style="fill:none;stroke:#7f7f7f;stroke-width:2" d="M655,171 l0,-83 62,0" /><path style="fill:none;stroke:#7f7f7f;stroke-width:2" d="M780,171 l0,-83 62,0" /></svg>