<!DOCTYPE svg PUBLIC "-//W3C//DTD SVG 20000303 Stylable//EN" "http://www.w3.org/TR/2000/03/WD-SVG-20000303/DTD/svg-20000303-stylable.dtd"[]><svg xmlns="http://www.w3.org/2000/svg" width="999px" height="663px" viewBox="0 0 999 643"><path style="fill:#ccc;stroke:#4c4c4c;stroke-width:2" d="M111,33 l714,0 0,22 -714,0 0,-22z" /><path style="fill:#999;stroke:#4c4c4c;stroke-width:2" d="M900,55 l-862,0 0,588 862,0 0,-588z" /><path style="fill:#7f7f7f" d="M881,643 l-826,0 0,-264 826,0 0,264z" /><path style="fill:#7a7a7a" d="M881,457 l-826,110 0,-188 826,0 0,78z" /><path style="fill:#757575" d="M881,445 l-826,110 0,-176 826,0 0,66z" /><path style="fill:#707070" d="M881,429 l-826,110 0,-160 826,0 0,50z" /><path style="fill:none;stroke:#4c4c4c;stroke-width:2" d="M881,643 l-826,0 0,-264 826,0 0,264" /><path style="fill:#7f7f7f" d="M919,625 l-901,0 0,-20 901,0 0,20z" /><path style="fill:#999" d="M919,623 l-901,0 0,-16 901,0 0,16z" /><path style="fill:#b2b2b2" d="M919,621 l-901,0 0,-12 901,0 0,12z" /><path style="fill:#ccc" d="M919,619 l-901,0 0,-8 901,0 0,8z" /><path style="fill:#e5e5e5" d="M919,617 l-901,0 0,-6 901,0 0,6z" /><path style="fill:#fff" d="M919,615 l-901,0 0,-2 901,0 0,2z" /><path style="fill:none;stroke:#4c4c4c;stroke-width:2" d="M919,625 l-901,0 0,-20 901,0 0,20" /><path style="fill:#ccc" d="M55,41 l76,0 0,38 676,0 0,-38 74,0 0,264 -826,0 0,-264z" /><path style="fill:#c7c7c7" d="M55,239 l826,-94 0,160 -826,0 0,-66z" /><path style="fill:#c2c2c2" d="M55,249 l826,-94 0,150 -826,0 0,-56z" /><path style="fill:#bdbdbd" d="M55,263 l826,-94 0,136 -826,0 0,-42z" /><path style="fill:none;stroke:#7f7f7f;stroke-width:2" d="M55,79 l826,0" /><path style="fill:#b2b2b2;stroke:#4c4c4c;stroke-width:2" d="M55,305 l826,0 0,56 -826,0 0,-56z" /><path style="fill:#b2b2b2;stroke:#4c4c4c;stroke-width:2" d="M38,361 l862,0 0,18 -862,0 0,-18z" /><path style="fill:#999" d="M393,173 l150,0 0,56 -150,0 0,-56z" /><path style="fill:none;stroke:#fff;stroke-width:2" d="M731,287 l0,-76 94,0" /><path style="fill:none;stroke:#999;stroke-width:2" d="M731,287 l94,0 0,-76" /><path style="fill:none;stroke:#4c4c4c;stroke-width:2" d="M55,41 l76,0 0,38 676,0 0,-38 74,0 0,264 -826,0 0,-264" /><path style="fill:#333" d="M741,221 l76,0 0,32 -76,0 0,-32z" /><path style="fill:none;stroke:#fff;stroke-width:2" d="M817,221 l0,32 -76,0" /><path style="fill:none;stroke:#999;stroke-width:2" d="M817,221 l-76,0 0,32" /><path style="fill:#999" d="M741,267 l76,0 0,10 -76,0 0,-10z" /><path style="fill:#666" d="M76,361 l-11,-18 0,-20 11,-8 35,0 10,8 0,20 -10,18 -35,0z" /><path style="fill:#999" d="M65,323 l56,0 0,14 -56,0 0,-14z" /><path style="fill:none;stroke:#4c4c4c;stroke-width:2" d="M65,337 l56,0" /><path style="fill:none;stroke:#4c4c4c;stroke-width:2" d="M76,361 l-11,-18 0,-20 11,-8 35,0 10,8 0,20 -10,18 -35,0" /><path style="fill:#666" d="M149,361 l-10,-18 0,-20 10,-8 38,0 10,8 0,20 -10,18 -38,0z" /><path style="fill:#999" d="M139,323 l58,0 0,14 -58,0 0,-14z" /><path style="fill:none;stroke:#4c4c4c;stroke-width:2" d="M139,337 l58,0" /><path style="fill:none;stroke:#4c4c4c;stroke-width:2" d="M149,361 l-10,-18 0,-20 10,-8 38,0 10,8 0,20 -10,18 -38,0" /><path style="fill:#666" d="M225,361 l-10,-18 0,-20 10,-8 36,0 10,8 0,20 -10,18 -36,0z" /><path style="fill:#999" d="M215,323 l56,0 0,14 -56,0 0,-14z" /><path style="fill:none;stroke:#4c4c4c;stroke-width:2" d="M215,337 l56,0" /><path style="fill:none;stroke:#4c4c4c;stroke-width:2" d="M225,361 l-10,-18 0,-20 10,-8 36,0 10,8 0,20 -10,18 -36,0" /><path style="fill:#666" d="M299,361 l-8,-18 0,-20 8,-8 38,0 10,8 0,20 -10,18 -38,0z" /><path style="fill:#999" d="M291,323 l56,0 0,14 -56,0 0,-14z" /><path style="fill:none;stroke:#4c4c4c;stroke-width:2" d="M291,337 l56,0" /><path style="fill:none;stroke:#4c4c4c;stroke-width:2" d="M299,361 l-8,-18 0,-20 8,-8 38,0 10,8 0,20 -10,18 -38,0" /><path style="fill:#666" d="M375,361 l-10,-18 0,-20 10,-8 38,0 8,8 0,20 -8,18 -38,0z" /><path style="fill:#999" d="M365,323 l56,0 0,14 -56,0 0,-14z" /><path style="fill:none;stroke:#4c4c4c;stroke-width:2" d="M365,337 l56,0" /><path style="fill:none;stroke:#4c4c4c;stroke-width:2" d="M375,361 l-10,-18 0,-20 10,-8 38,0 8,8 0,20 -8,18 -38,0" /><path style="fill:#666" d="M449,361 l-8,-18 0,-20 8,-8 38,0 10,8 0,20 -10,18 -38,0z" /><path style="fill:#999" d="M441,323 l56,0 0,14 -56,0 0,-14z" /><path style="fill:none;stroke:#4c4c4c;stroke-width:2" d="M441,337 l56,0" /><path style="fill:none;stroke:#4c4c4c;stroke-width:2" d="M449,361 l-8,-18 0,-20 8,-8 38,0 10,8 0,20 -10,18 -38,0" /><path style="fill:#666" d="M525,361 l-10,-18 0,-20 10,-8 38,0 8,8 0,20 -8,18 -38,0z" /><path style="fill:#999" d="M515,323 l56,0 0,14 -56,0 0,-14z" /><path style="fill:none;stroke:#4c4c4c;stroke-width:2" d="M515,337 l56,0" /><path style="fill:none;stroke:#4c4c4c;stroke-width:2" d="M525,361 l-10,-18 0,-20 10,-8 38,0 8,8 0,20 -8,18 -38,0" /><path style="fill:#666" d="M599,361 l-8,-18 0,-20 8,-8 38,0 10,8 0,20 -10,18 -38,0z" /><path style="fill:#999" d="M591,323 l56,0 0,14 -56,0 0,-14z" /><path style="fill:none;stroke:#4c4c4c;stroke-width:2" d="M591,337 l56,0" /><path style="fill:none;stroke:#4c4c4c;stroke-width:2" d="M599,361 l-8,-18 0,-20 8,-8 38,0 10,8 0,20 -10,18 -38,0" /><path style="fill:#666" d="M675,361 l-10,-18 0,-20 10,-8 38,0 8,8 0,20 -8,18 -38,0z" /><path style="fill:#999" d="M665,323 l56,0 0,14 -56,0 0,-14z" /><path style="fill:none;stroke:#4c4c4c;stroke-width:2" d="M665,337 l56,0" /><path style="fill:none;stroke:#4c4c4c;stroke-width:2" d="M675,361 l-10,-18 0,-20 10,-8 38,0 8,8 0,20 -8,18 -38,0" /><path style="fill:#666" d="M751,361 l-10,-18 0,-20 10,-8 36,0 10,8 0,20 -10,18 -36,0z" /><path style="fill:#999" d="M741,323 l56,0 0,14 -56,0 0,-14z" /><path style="fill:none;stroke:#4c4c4c;stroke-width:2" d="M741,337 l56,0" /><path style="fill:none;stroke:#4c4c4c;stroke-width:2" d="M751,361 l-10,-18 0,-20 10,-8 36,0 10,8 0,20 -10,18 -36,0" /><path style="fill:#666" d="M825,361 l-8,-18 0,-20 8,-8 37,0 11,8 0,20 -11,18 -37,0z" /><path style="fill:#999" d="M817,323 l56,0 0,14 -56,0 0,-14z" /><path style="fill:none;stroke:#4c4c4c;stroke-width:2" d="M817,337 l56,0" /><path style="fill:none;stroke:#4c4c4c;stroke-width:2" d="M825,361 l-8,-18 0,-20 8,-8 37,0 11,8 0,20 -11,18 -37,0" /><path style="fill:#7f7f7f" d="M111,41 l-27,0 0,-36 27,0 0,36z" /><path style="fill:#999" d="M111,38 l-27,0 0,-33 27,0 0,33z" /><path style="fill:#b2b2b2" d="M111,29 l-27,0 0,-24 27,0 0,24z" /><path style="fill:#ccc" d="M111,21 l-27,0 0,-16 27,0 0,16z" /><path style="fill:#e5e5e5" d="M111,16 l-27,0 0,-11 27,0 0,11z" /><path style="fill:#fff" d="M111,10 l-27,0 0,-10 27,0 0,10z" /><path style="fill:none;stroke:#4c4c4c;stroke-width:2" d="M111,41 l-27,0 0,-36 27,0 0,36" /><path style="fill:#7f7f7f" d="M853,41 l-28,0 0,-36 28,0 0,36z" /><path style="fill:#999" d="M853,38 l-28,0 0,-33 28,0 0,33z" /><path style="fill:#b2b2b2" d="M853,29 l-28,0 0,-24 28,0 0,24z" /><path style="fill:#ccc" d="M853,21 l-28,0 0,-16 28,0 0,16z" /><path style="fill:#e5e5e5" d="M853,16 l-28,0 0,-11 28,0 0,11z" /><path style="fill:#fff" d="M853,10 l-28,0 0,-10 28,0 0,10z" /><path style="fill:none;stroke:#4c4c4c;stroke-width:2" d="M853,41 l-28,0 0,-36 28,0 0,36" /><path style="fill:#b2b2b2;stroke:#4c4c4c;stroke-width:2" d="M0,625 l55,0 0,18 -55,0 0,-18z" /><path style="fill:#b2b2b2;stroke:#4c4c4c;stroke-width:2" d="M881,625 l58,0 0,18 -58,0 0,-18z" /><path style="fill:none;stroke:#7f7f7f;stroke-width:2" d="M41,371 l859,0" /><path style="fill:#b2b2b2;stroke:#4c4c4c;stroke-width:2" d="M93,357 l76,0 0,38 -76,0 0,-38z" /><path style="fill:#b2b2b2;stroke:#4c4c4c;stroke-width:2" d="M393,357 l76,0 0,38 -76,0 0,-38z" /><path style="fill:#4c4c4c" d="M900,385 l57,0 0,198 -57,0 0,-198z" /><path style="fill:#7f7f7f" d="M900,65 l99,0 0,268 -99,0 0,-268z" /><path style="fill:#333" d="M900,559 l57,0 0,24 -57,0 0,-24z" /><path style="fill:#7f7f7f" d="M900,385 l57,0 0,14 -57,0 0,-14z" /><path style="fill:none;stroke:#4c4c4c;stroke-width:2" d="M900,385 l57,0 0,198 -57,0 0,-198" /><path style="fill:none;stroke:#4c4c4c;stroke-width:2" d="M900,65 l99,0 0,268 -99,0 0,-268" /><path style="fill:#666" d="M900,85 l80,0 0,230 -80,0 0,-230z" /><path style="fill:#4c4c4c" d="M900,93 l47,0 38,20 0,146 -38,18 -47,0 0,-184z" /><path style="fill:#5e5e5e" d="M900,107 l47,0 38,16 0,124 -38,16 -47,0 0,-156z" /><path style="fill:#6e6e6e" d="M900,119 l47,0 38,14 0,104 -38,14 -47,0 0,-132z" /><path style="fill:#7f7f7f" d="M900,133 l47,0 38,10 0,84 -38,10 -47,0 0,-104z" /><path style="fill:#919191" d="M900,147 l47,0 38,8 0,60 -38,8 -47,0 0,-76z" /><path style="fill:#a1a1a1" d="M900,159 l47,0 38,6 0,40 -38,6 -47,0 0,-52z" /><path style="fill:#b2b2b2" d="M900,173 l47,0 38,2 0,20 -38,2 -47,0 0,-24z" /><path style="fill:none;stroke:#4c4c4c;stroke-width:2" d="M900,93 l47,0 38,20 0,146 -38,18 -47,0 0,-184" /><path style="fill:none;stroke:#666;stroke-width:2" d="M947,273 l0,-174" /></svg>