<!DOCTYPE svg PUBLIC "-//W3C//DTD SVG 20000303 Stylable//EN" "http://www.w3.org/TR/2000/03/WD-SVG-20000303/DTD/svg-20000303-stylable.dtd"[]><svg xmlns="http://www.w3.org/2000/svg" width="625px" height="999px" viewBox="0 0 603 999"><path style="fill:#7f7f7f" d="M0,166 l20,0 0,21 187,0 0,-83 -187,0 0,19 -20,0 0,43z" /><path style="fill:#878787" d="M0,163 l20,0 0,18 187,0 0,-74 -187,0 0,20 -20,0 0,36z" /><path style="fill:#919191" d="M0,159 l20,0 0,16 187,0 0,-62 -187,0 0,16 -20,0 0,30z" /><path style="fill:#999" d="M0,157 l20,0 0,14 187,0 0,-52 -187,0 0,12 -20,0 0,26z" /><path style="fill:#a1a1a1" d="M0,155 l20,0 0,11 187,0 0,-43 -187,0 0,10 -20,0 0,22z" /><path style="fill:#ababab" d="M0,153 l20,0 0,8 187,0 0,-32 -187,0 0,9 -20,0 0,15z" /><path style="fill:#b2b2b2" d="M0,151 l20,0 0,4 187,0 0,-22 -187,0 0,6 -20,0 0,12z" /><path style="fill:none;stroke:#4c4c4c;stroke-width:2" d="M0,166 l20,0 0,21 187,0 0,-83 -187,0 0,19 -20,0 0,43" /><path style="fill:#ccc" d="M0,207 l41,0 0,-146 146,0 0,146 416,0 0,146 -603,0 0,-146z" /><path style="fill:#c7c7c7" d="M0,311 l603,-62 0,104 -603,0 0,-42z" /><path style="fill:#c2c2c2" d="M0,317 l603,-62 0,98 -603,0 0,-36z" /><path style="fill:#bdbdbd" d="M0,325 l603,-60 0,88 -603,0 0,-28z" /><path style="fill:none;stroke:#4c4c4c;stroke-width:2" d="M0,207 l41,0 0,-146 146,0 0,146 416,0 0,146 -603,0 0,-146" /><path style="fill:#7f7f7f" d="M311,249 l126,0 0,84 -126,0 0,-84z" /><path style="fill:#8a8a8a" d="M319,249 l110,0 0,82 -110,0 0,-82z" /><path style="fill:#919191" d="M325,249 l98,0 0,82 -98,0 0,-82z" /><path style="fill:#9c9c9c" d="M331,249 l86,0 0,82 -86,0 0,-82z" /><path style="fill:#a6a6a6" d="M337,249 l74,0 0,82 -74,0 0,-82z" /><path style="fill:#b0b0b0" d="M345,249 l58,0 0,82 -58,0 0,-82z" /><path style="fill:#b8b8b8" d="M351,249 l46,0 0,82 -46,0 0,-82z" /><path style="fill:#c2c2c2" d="M357,249 l34,0 0,82 -34,0 0,-82z" /><path style="fill:#ccc" d="M363,249 l20,0 0,84 -20,0 0,-84z" /><path style="fill:none;stroke:#4c4c4c;stroke-width:2" d="M311,249 l126,0 0,84 -126,0 0,-84" /><path style="fill:none;stroke:#999;stroke-width:2" d="M253,239 l246,0" /><path style="fill:#7f7f7f" d="M253,249 l6,0 0,84 -6,0 0,-84z" /><path style="fill:#7f7f7f" d="M489,249 l4,0 0,84 -4,0 0,-84z" /><path style="fill:#7f7f7f" d="M269,249 l4,0 0,84 -4,0 0,-84z" /><path style="fill:#7f7f7f" d="M473,249 l4,0 0,84 -4,0 0,-84z" /><path style="fill:#bdbdbd" d="M149,104 l-55,0 0,-21 -49,0 0,124 104,0 0,-103z" /><path style="fill:#bdbdbd" d="M207,227 l-58,0 0,-20 -45,0 0,126 103,0 0,-106z" /><path style="fill:none;stroke:#4c4c4c;stroke-width:2" d="M41,207 l63,0 0,110" /><path style="fill:#7f7f7f" d="M71,35 l6,0 0,172 -6,0 0,-172z" /><path style="fill:#7f7f7f" d="M77,41 l0,-6 172,0 0,6 -172,0z" /><path style="fill:#7f7f7f" d="M233,281 l-6,0 0,-240 6,0 0,240z" /><path style="fill:#7f7f7f" d="M227,277 l0,6 -52,0 0,-6 52,0z" /><path style="fill:#7f7f7f" d="M227,187 l0,4 -78,0 0,-4 78,0z" /><path style="fill:#7f7f7f" d="M145,187 l4,0 0,52 -4,0 0,-52z" /><path style="fill:none;stroke:#fff;stroke-width:2" d="M119,295 l0,-56 56,0" /><path style="fill:none;stroke:#7f7f7f;stroke-width:2" d="M119,295 l56,0 0,-56" /><path style="fill:#7f7f7f;stroke:#4c4c4c;stroke-width:2" d="M583,207 l-84,0 0,-130 52,0 20,12 10,18 0,22 -10,20 12,58z" /><path style="fill:none;stroke:#4c4c4c;stroke-width:2" d="M20,166 l0,-43" /><path style="fill:#ccc" d="M249,0 l250,0 0,249 -250,0 0,-249z" /><path style="fill:#ccc" d="M249,333 l250,0 0,124 -250,0 0,-124z" /><path style="fill:#c7c7c7" d="M249,177 l250,-106 0,178 -250,0 0,-72z" /><path style="fill:#c7c7c7" d="M249,421 l250,-52 0,88 -250,0 0,-36z" /><path style="fill:#c2c2c2" d="M249,187 l250,-104 0,166 -250,0 0,-62z" /><path style="fill:#c2c2c2" d="M249,427 l250,-54 0,84 -250,0 0,-30z" /><path style="fill:#bdbdbd" d="M249,433 l250,-52 0,76 -250,0 0,-24z" /><path style="fill:#bdbdbd" d="M249,203 l250,-106 0,152 -250,0 0,-46z" /><path style="fill:#7f7f7f" d="M253,457 l6,0 0,312 -6,0 0,-312z" /><path style="fill:#7f7f7f" d="M489,457 l4,0 0,312 -4,0 0,-312z" /><path style="fill:#ccc" d="M477,769 l-20,0 0,-312 20,0 0,312z" /><path style="fill:#ccc" d="M269,457 l22,0 0,312 -22,0 0,-312z" /><path style="fill:#b2b2b2" d="M477,769 l-10,0 0,-312 10,0 0,312z" /><path style="fill:#b2b2b2" d="M269,457 l10,0 0,312 -10,0 0,-312z" /><path style="fill:#7f7f7f" d="M477,769 l-4,0 0,-312 4,0 0,312z" /><path style="fill:#7f7f7f" d="M269,457 l6,0 0,312 -6,0 0,-312z" /><path style="fill:#b2b2b2;stroke:#4c4c4c;stroke-width:2" d="M311,769 l126,0 0,230 -126,0 0,-230z" /><path style="fill:#4c4c4c" d="M311,894 l126,0 0,63 -126,0 0,-63z" /><path style="fill:#ccc" d="M249,769 l62,0 0,230 -62,0 0,-230z" /><path style="fill:#ccc" d="M435,769 l64,0 0,230 -64,0 0,-230z" /><path style="fill:#d6d6d6" d="M435,915 l64,0 0,84 -64,0 0,-84z" /><path style="fill:#d6d6d6" d="M249,915 l62,0 0,84 -62,0 0,-84z" /><path style="fill:#dedede" d="M435,935 l64,0 0,64 -64,0 0,-64z" /><path style="fill:#dedede" d="M249,935 l62,0 0,64 -62,0 0,-64z" /><path style="fill:#e8e8e8" d="M435,957 l64,0 0,42 -64,0 0,-42z" /><path style="fill:#e8e8e8" d="M249,957 l62,0 0,42 -62,0 0,-42z" /><path style="fill:#f2f2f2" d="M249,976 l62,0 0,23 -62,0 0,-23z" /><path style="fill:#f2f2f2" d="M435,976 l64,0 0,23 -64,0 0,-23z" /><path style="fill:#ccc;stroke:#4c4c4c;stroke-width:2" d="M499,395 l42,0 0,458 -42,0 0,-458z" /><path style="fill:#ccc;stroke:#4c4c4c;stroke-width:2" d="M387,937 l-26,0 -22,-6 -18,-9 -10,-12 0,-119 126,0 0,119 -10,12 -18,9 -22,6z" /><path style="fill:none;stroke:#4c4c4c;stroke-width:2" d="M249,769 l62,0 0,230 -62,0 0,-230" /><path style="fill:none;stroke:#4c4c4c;stroke-width:2" d="M435,769 l64,0 0,230 -64,0 0,-230" /><path style="fill:#e5e5e5;stroke:#4c4c4c;stroke-width:2" d="M311,769 l126,0 0,22 -126,0 0,-22z" /><circle style="fill:#fff;stroke:#4c4c4c;stroke-width:2" cx="519" cy="665" r="10" /><circle style="fill:#fff;stroke:#4c4c4c;stroke-width:2" cx="519" cy="582" r="10" /><path style="fill:#b2b2b2;stroke:#4c4c4c;stroke-width:2" d="M503,811 l0,-62 32,0 0,62 -32,0z" /><path style="fill:none;stroke:#666;stroke-width:2" d="M509,759 l0,42" /><path style="fill:none;stroke:#666;stroke-width:2" d="M529,759 l0,42" /><path style="fill:none;stroke:#7f7f7f;stroke-width:2" d="M269,623 l22,0" /><path style="fill:none;stroke:#7f7f7f;stroke-width:2" d="M457,623 l20,0" /><path style="fill:none;stroke:#4c4c4c;stroke-width:2" d="M477,769 l-20,0 0,-312 20,0 0,312" /><path style="fill:none;stroke:#4c4c4c;stroke-width:2" d="M269,457 l22,0 0,312 -22,0 0,-312" /><path style="fill:#ccc" d="M265,519 l218,0 0,64 -218,0 0,-64z" /><path style="fill:#c7c7c7" d="M265,565 l218,-28 0,46 -218,0 0,-18z" /><path style="fill:#c2c2c2" d="M265,567 l218,-26 0,42 -218,0 0,-16z" /><path style="fill:#bdbdbd" d="M265,571 l218,-26 0,38 -218,0 0,-12z" /><path style="fill:none;stroke:#4c4c4c;stroke-width:2" d="M265,519 l218,0 0,64 -218,0 0,-64" /><path style="fill:none;stroke:#4c4c4c;stroke-width:2" d="M249,0 l250,0 0,249 -250,0 0,-249" /><path style="fill:none;stroke:#4c4c4c;stroke-width:2" d="M249,333 l250,0 0,124 -250,0 0,-124" /><path style="fill:#999" d="M305,457 l0,32 12,0 0,-10 10,0 0,10 10,0 0,-10 10,0 0,10 10,0 0,-10 12,0 0,10 10,0 0,-10 10,0 0,10 10,0 0,-10 10,0 0,10 12,0 0,-10 10,0 0,10 10,0 0,-32 -136,0z" /><path style="fill:#4c4c4c" d="M305,457 l0,16 136,0 0,-16 -136,0z" /><path style="fill:#595959" d="M315,457 l0,16 116,0 0,-16 -116,0z" /><path style="fill:#666" d="M325,457 l0,16 98,0 0,-16 -98,0z" /><path style="fill:#737373" d="M335,457 l0,16 78,0 0,-16 -78,0z" /><path style="fill:#7f7f7f" d="M345,457 l0,16 58,0 0,-16 -58,0z" /><path style="fill:#8c8c8c" d="M353,457 l0,16 40,0 0,-16 -40,0z" /><path style="fill:#999" d="M363,457 l0,16 20,0 0,-16 -20,0z" /><path style="fill:none;stroke:#4c4c4c;stroke-width:2" d="M305,457 l0,32 12,0 0,-10 10,0 0,10 10,0 0,-10 10,0 0,10 10,0 0,-10 12,0 0,10 10,0 0,-10 10,0 0,10 10,0 0,-10 10,0 0,10 12,0 0,-10 10,0 0,10 10,0 0,-32 -136,0" /><ellipse style="fill:#b2b2b2;stroke:#666;stroke-width:2" cx="371" cy="124" rx="14" ry="41" /><circle style="fill:#b2b2b2;stroke:#666;stroke-width:2" cx="374" cy="395" r="37" /><path style="fill:#000" d="M503,619 l12,0 0,10 -12,0 0,-10z" /><path style="fill:#000" d="M525,619 l10,0 0,10 -10,0 0,-10z" /><path style="fill:#000" d="M369,145 l4,0 0,10 -4,0 0,-10z" /><path style="fill:#000" d="M369,94 l4,0 0,10 -4,0 0,-10z" /><path style="fill:#000" d="M317,389 l10,0 0,12 -10,0 0,-12z" /><path style="fill:#000" d="M421,389 l10,0 0,12 -10,0 0,-12z" /><path style="fill:#7f7f7f" d="M457,999 l0,-42 20,0 0,42 -20,0z" /><path style="fill:#7f7f7f;stroke:#4c4c4c;stroke-width:2" d="M269,999 l0,-42 22,0 0,42 -22,0z" /><path style="fill:#e5e5e5" d="M277,999 l0,-42 6,0 0,42 -6,0z" /><path style="fill:#e5e5e5" d="M465,999 l0,-42 6,0 0,42 -6,0z" /><path style="fill:none;stroke:#4c4c4c;stroke-width:2" d="M457,999 l0,-42 20,0 0,42 -20,0" /></svg>