<!DOCTYPE svg PUBLIC "-//W3C//DTD SVG 20000303 Stylable//EN" "http://www.w3.org/TR/2000/03/WD-SVG-20000303/DTD/svg-20000303-stylable.dtd"[]><svg xmlns="http://www.w3.org/2000/svg" width="842px" height="999px" viewBox="0 0 833 999"><path style="fill:#b2b2b2;stroke:#4c4c4c;stroke-width:2" d="M705,401 l-52,14 -236,0 0,-415 236,0 52,14 48,28 37,37 29,48 14,52 0,56 -14,52 -29,48 -37,38 -48,28z" /><circle style="fill:#ccc;stroke:#4c4c4c;stroke-width:2" cx="425" cy="34" r="34" /><path style="fill:#b2b2b2" d="M479,373 l0,168 146,0 0,-84 -20,-20 0,-64 -126,0z" /><path style="fill:#e5e5e5" d="M479,519 l146,0 0,22 -146,0 0,-22z" /><path style="fill:#a6a6a6" d="M479,373 l0,94 126,-42 0,-52 -126,0z" /><path style="fill:#ccc" d="M479,499 l146,0 0,20 -146,0 0,-20z" /><path style="fill:none;stroke:#4c4c4c;stroke-width:2" d="M479,373 l0,168 146,0 0,-84 -20,-20 0,-64 -126,0" /><path style="fill:none;stroke:#fff;stroke-width:2" d="M485,519 l134,0" /><path style="fill:none;stroke:#fff;stroke-width:2" d="M485,499 l134,0" /><path style="fill:#ccc" d="M126,936 l0,-563 41,-62 0,-249 332,0 0,395 -40,0 -22,20 0,272 188,0 0,104 -42,83 -457,0z" /><path style="fill:#c7c7c7" d="M126,936 l0,-291 311,-138 0,242 188,0 0,104 -42,83 -457,0z" /><path style="fill:#c2c2c2" d="M126,936 l0,-259 311,-136 0,208 188,0 0,104 -42,83 -457,0z" /><path style="fill:#bdbdbd" d="M126,936 l0,-133 311,-138 0,84 188,0 0,104 -42,83 -457,0z" /><path style="fill:none;stroke:#4c4c4c;stroke-width:2" d="M126,936 l0,-563 41,-62 0,-249 332,0 0,395 -40,0 -22,20 0,272 188,0 0,104 -42,83 -457,0" /><path style="fill:#ccc;stroke:#4c4c4c;stroke-width:2" d="M625,999 l-84,-166 -332,0 -64,-126 -40,0 -105,292 625,0z" /><path style="fill:none;stroke:#fff;stroke-width:2" d="M479,311 l0,126 -20,0" /><path style="fill:none;stroke:#7f7f7f;stroke-width:2" d="M479,311 l-46,0 0,146 -10,20 0,272" /><path style="fill:none;stroke:#fff;stroke-width:2" d="M0,999 l21,-23 62,0 22,23" /><path style="fill:none;stroke:#fff;stroke-width:2" d="M521,999 l20,-23 62,0 22,23" /><path style="fill:none;stroke:#7f7f7f;stroke-width:2" d="M531,838 l10,19 -10,15 -20,0" /><path style="fill:none;stroke:#7f7f7f;stroke-width:2" d="M136,713 l9,18 -9,18 -20,0" /><path style="fill:none;stroke:#fff;stroke-width:2" d="M511,872 l-12,-15 12,-19 20,0" /><path style="fill:none;stroke:#fff;stroke-width:2" d="M116,749 l-11,-18 11,-18 20,0" /><path style="fill:#ccc;stroke:#4c4c4c;stroke-width:2" d="M625,833 l42,-22 0,-62 -42,-22 0,106z" /><path style="fill:#b2b2b2;stroke:#4c4c4c;stroke-width:2" d="M459,0 l124,0 0,83 64,0 0,208 -188,0 0,-291z" /><path style="fill:#ccc" d="M437,333 l0,-178 6,-22 12,-17 14,-17 20,-10 20,-6 22,0 22,4 18,12 16,17 12,17 4,22 0,178 -166,0z" /><circle style="fill:#999" cx="521" cy="166" r="20" /><path style="fill:#4c4c4c;stroke:#4c4c4c;stroke-width:2" d="M531,333 l52,0 0,40 -52,0 0,-40z" /><path style="fill:#b2b2b2;stroke:#4c4c4c;stroke-width:2" d="M499,333 l22,0 0,124 -22,0 0,-124z" /><path style="fill:#ccc;stroke:#4c4c4c;stroke-width:2" d="M521,333 l0,124 10,0 0,-62 22,0 0,-42 -22,0 0,-20 -10,0z" /><path style="fill:#999" d="M437,749 l188,0 0,10 -188,0 0,-10z" /><path style="fill:#e5e5e5" d="M343,477 l68,0 0,42 -68,0 0,-42z" /><path style="fill:#4c4c4c" d="M136,477 l207,0 0,42 -207,0 0,-42z" /><path style="fill:#c4c4c4" d="M437,333 l0,-84 166,-74 0,158 -166,0z" /><path style="fill:none;stroke:#4c4c4c;stroke-width:2" d="M437,333 l0,-178 6,-22 12,-17 14,-17 20,-10 20,-6 22,0 22,4 18,12 16,17 12,17 4,22 0,178 -166,0" /><path style="fill:#b2b2b2;stroke:#4c4c4c;stroke-width:2" d="M437,727 l188,0 0,22 -188,0 0,-22z" /><path style="fill:#666" d="M579,727 l4,0 0,22 -4,0 0,-22z" /><path style="fill:#666" d="M479,727 l6,0 0,22 -6,0 0,-22z" /><path style="fill:#ccc;stroke:#4c4c4c;stroke-width:2" d="M437,687 l188,0 0,42 -188,0 0,-42z" /><path style="fill:#333" d="M443,405 l26,0 0,26 -26,0 0,-26z" /><path style="fill:#666" d="M443,373 l26,0 0,26 -26,0 0,-26z" /><path style="fill:#b2b2b2" d="M443,343 l26,0 0,26 -26,0 0,-26z" /><path style="fill:#e5e5e5" d="M453,405 l16,0 0,16 -16,0 0,-16z" /><path style="fill:none;stroke:#7f7f7f;stroke-width:2" d="M539,379 l8,-8 -8,-8 -8,8 8,8" /><path style="fill:#999;stroke:#7f7f7f;stroke-width:2" d="M489,451 l1,0 2,-1 2,-1 1,-2 -16,-2 -15,-2 -14,-3 -12,-3 -11,-3 -10,-4 -9,-4 -8,-4 -8,-4 -6,-5 -6,-5 -6,-5 -5,-5 -4,-5 -5,-5 -4,-5 -4,-5 -4,-4 -5,-5 -4,-4 -5,-4 -5,-4 -5,-3 -6,-4 -7,-2 -7,-3 -8,-1 -10,-2 -10,0 -11,-1 -12,1 -14,1 0,3 0,2 0,3 0,2 11,-1 9,-1 10,0 8,1 7,1 7,2 7,2 6,3 6,4 6,3 5,4 6,4 4,5 6,5 5,5 5,5 5,5 6,5 5,5 6,5 7,5 6,5 8,4 8,4 8,4 10,3 10,3 10,3 12,2 13,2 13,1 15,0z" /><path style="fill:#999" d="M229,327 l20,0 0,58 -20,0 0,-58z" /><path style="fill:#999" d="M271,343 l52,0 0,46 -52,0 0,-46z" /><path style="fill:#999;stroke:#666;stroke-width:2" d="M333,359 l52,0 0,46 -52,0 0,-46z" /><path style="fill:#a6a6a6" d="M231,327 l16,0 0,56 -16,0 0,-56z" /><path style="fill:#a6a6a6" d="M277,343 l40,0 0,46 -40,0 0,-46z" /><path style="fill:#a6a6a6" d="M339,359 l42,0 0,46 -42,0 0,-46z" /><path style="fill:#b2b2b2" d="M343,359 l32,0 0,46 -32,0 0,-46z" /><path style="fill:#b2b2b2" d="M281,343 l32,0 0,46 -32,0 0,-46z" /><path style="fill:#b2b2b2" d="M233,327 l12,0 0,56 -12,0 0,-56z" /><path style="fill:#bfbfbf" d="M349,359 l20,0 0,46 -20,0 0,-46z" /><path style="fill:#bfbfbf" d="M287,343 l20,0 0,46 -20,0 0,-46z" /><path style="fill:#bfbfbf" d="M235,327 l8,0 0,56 -8,0 0,-56z" /><path style="fill:#ccc" d="M353,359 l12,0 0,46 -12,0 0,-46z" /><path style="fill:#ccc" d="M291,343 l12,0 0,46 -12,0 0,-46z" /><path style="fill:#ccc" d="M237,327 l4,0 0,58 -4,0 0,-58z" /><path style="fill:none;stroke:#666;stroke-width:2" d="M271,343 l52,0 0,46 -52,0 0,-46" /><path style="fill:none;stroke:#666;stroke-width:2" d="M229,327 l20,0 0,58 -20,0 0,-58" /><path style="fill:#ccc" d="M645,351 l118,-118 46,44 -118,118 -46,-44z" /><circle style="fill:none;stroke:#4c4c4c;stroke-width:2" cx="521" cy="40" r="20" /></svg>