<!DOCTYPE svg PUBLIC "-//W3C//DTD SVG 20000303 Stylable//EN" "http://www.w3.org/TR/2000/03/WD-SVG-20000303/DTD/svg-20000303-stylable.dtd"[]><svg xmlns="http://www.w3.org/2000/svg" width="395px" height="999px" viewBox="0 0 359 999"><path style="fill:#4c4c4c" d="M68,457 l187,0 0,230 -187,0 0,-230z" /><path style="fill:#b2b2b2;stroke:#4c4c4c;stroke-width:2" d="M48,291 l227,0 0,166 -227,0 0,-166z" /><path style="fill:#ccc" d="M58,976 l0,-227 207,0 0,227 -19,0 0,-124 -169,0 0,124 -19,0z" /><path style="fill:#e5e5e5" d="M36,833 l22,0 0,19 -22,0 0,-19z" /><path style="fill:#999" d="M36,852 l22,0 0,21 -22,0 0,-21z" /><path style="fill:none;stroke:#4c4c4c;stroke-width:2" d="M36,833 l22,0 0,40 -22,0 0,-40" /><path style="fill:#e5e5e5" d="M265,833 l20,0 0,19 -20,0 0,-19z" /><path style="fill:#999" d="M265,852 l20,0 0,21 -20,0 0,-21z" /><path style="fill:none;stroke:#4c4c4c;stroke-width:2" d="M265,833 l20,0 0,40 -20,0 0,-40" /><path style="fill:#b2b2b2" d="M58,852 l19,0 0,124 -19,0 0,-124z" /><path style="fill:#b2b2b2" d="M244,852 l21,0 0,124 -21,0 0,-124z" /><path style="fill:none;stroke:#4c4c4c;stroke-width:2" d="M58,976 l0,-227 207,0 0,227 -19,0 0,-124 -169,0 0,124 -19,0" /><path style="fill:#ccc;stroke:#4c4c4c;stroke-width:2" d="M16,833 l20,0 0,166 -20,0 0,-166z" /><path style="fill:#ccc;stroke:#4c4c4c;stroke-width:2" d="M285,833 l22,0 0,166 -22,0 0,-166z" /><path style="fill:#ccc;stroke:#4c4c4c;stroke-width:2" d="M42,687 l239,0 0,62 -239,0 0,-62z" /><path style="fill:none;stroke:#7f7f7f;stroke-width:2" d="M42,727 l239,0" /><path style="fill:#ccc" d="M99,727 l124,0 0,64 -124,0 0,-64z" /><path style="fill:none;stroke:#fff;stroke-width:2" d="M99,791 l0,-64 124,0" /><path style="fill:none;stroke:#7f7f7f;stroke-width:2" d="M99,791 l124,0 0,-64" /><path style="fill:#4c4c4c" d="M151,749 l21,0 0,20 -21,0 0,-20z" /><path style="fill:#4c4c4c" d="M90,291 l143,0 0,82 -143,0 0,-82z" /><path style="fill:#ccc" d="M48,83 l227,0 0,208 -227,0 0,-208z" /><path style="fill:#c4c4c4" d="M48,229 l227,-83 0,145 -227,0 0,-62z" /><path style="fill:none;stroke:#4c4c4c;stroke-width:2" d="M48,83 l227,0 0,208 -227,0 0,-208" /><path style="fill:#999;stroke:#4c4c4c;stroke-width:2" d="M48,457 l20,0 0,230 -20,0 0,-230z" /><path style="fill:#999;stroke:#4c4c4c;stroke-width:2" d="M255,457 l20,0 0,230 -20,0 0,-230z" /><path style="fill:#ccc" d="M58,541 l207,0 0,-22 -19,-20 0,-126 -169,0 0,126 -19,20 0,22z" /><path style="fill:#e5e5e5" d="M265,519 l-19,-20 -169,0 -19,20 207,0z" /><path style="fill:none;stroke:#4c4c4c;stroke-width:2" d="M58,541 l207,0 0,-22 -19,-20 0,-126 -169,0 0,126 -19,20 0,22" /><path style="fill:none;stroke:#fff;stroke-width:2" d="M223,395 l0,82 -124,0" /><path style="fill:none;stroke:#7f7f7f;stroke-width:2" d="M223,395 l-124,0 0,82" /><path style="fill:#b2b2b2;stroke:#4c4c4c;stroke-width:2" d="M22,707 l14,0 0,126 -14,0 0,-126z" /><path style="fill:#b2b2b2;stroke:#4c4c4c;stroke-width:2" d="M285,707 l16,0 0,126 -16,0 0,-126z" /><path style="fill:#b2b2b2" d="M0,83 l48,0 0,250 -48,0 0,-250z" /><path style="fill:#bfbfbf" d="M0,83 l48,0 0,66 -48,0 0,-66z" /><path style="fill:#ccc" d="M0,83 l48,0 0,46 -48,0 0,-46z" /><path style="fill:#d9d9d9" d="M0,83 l48,0 0,26 -48,0 0,-26z" /><path style="fill:#e5e5e5" d="M0,83 l48,0 0,11 -48,0 0,-11z" /><path style="fill:none;stroke:#4c4c4c;stroke-width:2" d="M0,83 l48,0 0,250 -48,0 0,-250" /><path style="fill:#7f7f7f" d="M275,0 l84,0 0,415 -84,0 0,-415z" /><path style="fill:#878787" d="M275,18 l84,0 0,379 -84,0 0,-379z" /><path style="fill:#8f8f8f" d="M275,35 l84,0 0,344 -84,0 0,-344z" /><path style="fill:#969696" d="M275,53 l84,0 0,308 -84,0 0,-308z" /><path style="fill:#9e9e9e" d="M275,72 l84,0 0,271 -84,0 0,-271z" /><path style="fill:#a6a6a6" d="M275,89 l84,0 0,236 -84,0 0,-236z" /><path style="fill:#adadad" d="M275,107 l84,0 0,198 -84,0 0,-198z" /><path style="fill:#b5b5b5" d="M275,127 l84,0 0,160 -84,0 0,-160z" /><path style="fill:#bdbdbd" d="M275,146 l84,0 0,123 -84,0 0,-123z" /><path style="fill:#c4c4c4" d="M275,163 l84,0 0,88 -84,0 0,-88z" /><path style="fill:#ccc" d="M275,181 l84,0 0,52 -84,0 0,-52z" /><path style="fill:none;stroke:#4c4c4c;stroke-width:2" d="M275,0 l84,0 0,415 -84,0 0,-415" /><path style="fill:#333" d="M249,333 l26,0 0,72 -26,0 0,-72z" /><path style="fill:#ccc" d="M249,301 l26,0 0,32 -26,0 0,-32z" /><path style="fill:none;stroke:#4c4c4c;stroke-width:2" d="M249,301 l26,0 0,104 -26,0 0,-104" /><path style="fill:#b2b2b2;stroke:#4c4c4c;stroke-width:2" d="M58,0 l30,0 0,83 -30,0 0,-83z" /><path style="fill:#7f7f7f" d="M88,9 l187,0 0,33 -187,0 0,-33z" /><path style="fill:#949494" d="M90,11 l185,0 0,29 -185,0 0,-29z" /><path style="fill:#ababab" d="M90,14 l185,0 0,23 -185,0 0,-23z" /><path style="fill:#bfbfbf" d="M90,18 l185,0 0,15 -185,0 0,-15z" /><path style="fill:#d4d4d4" d="M90,20 l185,0 0,11 -185,0 0,-11z" /><path style="fill:#ebebeb" d="M90,22 l185,0 0,7 -185,0 0,-7z" /><path style="fill:#fff" d="M88,24 l187,0 0,3 -187,0 0,-3z" /><path style="fill:none;stroke:#4c4c4c;stroke-width:2" d="M88,9 l187,0 0,33 -187,0 0,-33" /><path style="fill:#7f7f7f" d="M88,46 l187,0 0,15 -187,0 0,-15z" /><path style="fill:#949494" d="M88,48 l187,0 0,13 -187,0 0,-13z" /><path style="fill:#ababab" d="M88,49 l187,0 0,10 -187,0 0,-10z" /><path style="fill:#bfbfbf" d="M88,49 l187,0 0,8 -187,0 0,-8z" /><path style="fill:#d4d4d4" d="M88,51 l187,0 0,6 -187,0 0,-6z" /><path style="fill:#ebebeb" d="M88,51 l187,0 0,4 -187,0 0,-4z" /><path style="fill:#fff" d="M88,53 l187,0 0,2 -187,0 0,-2z" /><path style="fill:none;stroke:#4c4c4c;stroke-width:2" d="M88,46 l187,0 0,15 -187,0 0,-15" /><path style="fill:#999;stroke:#4c4c4c;stroke-width:2" d="M181,369 l0,-22 6,0 0,-20 5,0 0,-20 -63,0 0,20 6,0 0,20 5,0 0,22 41,0z" /><path style="fill:none;stroke:#666;stroke-width:2" d="M140,327 l41,0" /><path style="fill:none;stroke:#666;stroke-width:2" d="M146,347 l31,0" /><path style="fill:#333" d="M125,415 l72,0 0,58 -72,0 0,-58z" /><path style="fill:#e5e5e5" d="M131,437 l63,0 0,30 -63,0 0,-30z" /></svg>