<!DOCTYPE svg PUBLIC "-//W3C//DTD SVG 20000303 Stylable//EN" "http://www.w3.org/TR/2000/03/WD-SVG-20000303/DTD/svg-20000303-stylable.dtd"[]><svg xmlns="http://www.w3.org/2000/svg" width="999px" height="825px" viewBox="0 0 999 814"><path style="fill:#ccc" d="M335,355 l102,0 0,16 -102,0 0,-16z" /><path style="fill:#ccc" d="M499,355 l102,0 0,16 -102,0 0,-16z" /><path style="fill:#ccc" d="M335,401 l102,0 0,16 -102,0 0,-16z" /><path style="fill:#ccc" d="M499,401 l102,0 0,16 -102,0 0,-16z" /><path style="fill:#ccc" d="M335,447 l102,0 0,16 -102,0 0,-16z" /><path style="fill:#ccc" d="M499,447 l102,0 0,16 -102,0 0,-16z" /><path style="fill:#ccc" d="M335,493 l102,0 0,16 -102,0 0,-16z" /><path style="fill:#ccc" d="M499,493 l102,0 0,16 -102,0 0,-16z" /><path style="fill:#ccc" d="M437,539 l0,-214 62,0 0,214 -62,0z" /><path style="fill:#ccc" d="M305,539 l326,0 0,32 -326,0 0,-32z" /><path style="fill:#ccc" d="M601,539 l0,-214 30,0 0,214 -30,0z" /><path style="fill:#ccc" d="M305,295 l326,0 0,30 -326,0 0,-30z" /><path style="fill:#ccc" d="M305,325 l30,0 0,214 -30,0 0,-214z" /><path style="fill:none;stroke:#4c4c4c;stroke-width:2" d="M335,509 l102,0 0,30 -102,0 0,-30" /><path style="fill:none;stroke:#4c4c4c;stroke-width:2" d="M499,509 l102,0 0,30 -102,0 0,-30" /><path style="fill:none;stroke:#4c4c4c;stroke-width:2" d="M335,463 l102,0 0,30 -102,0 0,-30" /><path style="fill:none;stroke:#4c4c4c;stroke-width:2" d="M499,463 l102,0 0,30 -102,0 0,-30" /><path style="fill:none;stroke:#4c4c4c;stroke-width:2" d="M335,417 l102,0 0,30 -102,0 0,-30" /><path style="fill:none;stroke:#4c4c4c;stroke-width:2" d="M499,417 l102,0 0,30 -102,0 0,-30" /><path style="fill:none;stroke:#4c4c4c;stroke-width:2" d="M335,325 l102,0 0,30 -102,0 0,-30" /><path style="fill:none;stroke:#4c4c4c;stroke-width:2" d="M499,325 l102,0 0,30 -102,0 0,-30" /><path style="fill:none;stroke:#4c4c4c;stroke-width:2" d="M305,295 l326,0 0,276 -326,0 0,-276" /><path style="fill:none;stroke:#4c4c4c;stroke-width:2" d="M335,371 l102,0 0,30 -102,0 0,-30" /><path style="fill:none;stroke:#4c4c4c;stroke-width:2" d="M499,371 l102,0 0,30 -102,0 0,-30" /><path style="fill:#999;stroke:#4c4c4c;stroke-width:2" d="M917,673 l82,0 0,136 -82,0 0,-136z" /><path style="fill:#999;stroke:#4c4c4c;stroke-width:2" d="M0,187 l81,0 0,138 -81,0 0,-138z" /><path style="fill:#999;stroke:#4c4c4c;stroke-width:2" d="M20,571 l653,0 0,60 -653,0 0,-60z" /><path style="fill:#4c4c4c;stroke:#4c4c4c;stroke-width:2" d="M102,631 l815,0 0,168 -815,0 0,-168z" /><path style="fill:#333" d="M387,601 l244,0 0,10 -244,0 0,-10z" /><path style="fill:#bfbfbf" d="M41,163 l876,0 0,162 -876,0 0,-162z" /><path style="fill:none;stroke:#4c4c4c;stroke-width:2" d="M41,184 l876,0" /><path style="fill:none;stroke:#4c4c4c;stroke-width:2" d="M41,163 l876,0 0,162 -876,0 0,-162" /><path style="fill:#ccc" d="M673,243 l244,0 0,450 -244,0 0,-450z" /><path style="fill:#c7c7c7" d="M673,465 l244,-120 0,348 -244,0 0,-228z" /><path style="fill:#c2c2c2" d="M673,477 l244,-120 0,336 -244,0 0,-216z" /><path style="fill:#bdbdbd" d="M673,495 l244,-120 0,318 -244,0 0,-198z" /><path style="fill:none;stroke:#4c4c4c;stroke-width:2" d="M673,243 l244,0 0,450 -244,0 0,-450" /><path style="fill:#ccc" d="M20,243 l245,0 0,286 -245,0 0,-286z" /><path style="fill:#c7c7c7" d="M20,447 l245,-120 0,202 -245,0 0,-82z" /><path style="fill:#c2c2c2" d="M20,459 l245,-120 0,190 -245,0 0,-70z" /><path style="fill:#bdbdbd" d="M20,477 l245,-120 0,172 -245,0 0,-52z" /><path style="fill:none;stroke:#4c4c4c;stroke-width:2" d="M20,243 l245,0 0,286 -245,0 0,-286" /><path style="fill:#f60;stroke:#4c4c4c;stroke-width:2" d="M141,447 l184,0 0,246 -184,0 0,-246z" /><path style="fill:#f60;stroke:#4c4c4c;stroke-width:2" d="M693,447 l184,0 0,246 -184,0 0,-246z" /><path style="fill:#999" d="M733,571 l203,0 0,20 -203,0 0,-20z" /><path style="fill:#ccc" d="M733,489 l203,0 0,80 -203,0 0,-80z" /><path style="fill:none;stroke:#4c4c4c;stroke-width:2" d="M733,489 l203,0 0,102 -203,0 0,-102" /><path style="fill:none;stroke:#fff;stroke-width:2" d="M265,263 l408,0" /><path style="fill:none;stroke:#4c4c4c;stroke-width:2" d="M265,259 l408,0" /><path style="fill:#ccc" d="M204,0 l529,0 0,163 -529,0 0,-163z" /><path style="fill:#999" d="M733,39 l-529,0 0,-13 529,0 0,13z" /><path style="fill:#999" d="M733,121 l-529,0 0,-16 529,0 0,16z" /><path style="fill:#999" d="M41,184 l878,0 0,13 -878,0 0,-13z" /><path style="fill:#333" d="M735,26 l-531,0 0,-17 531,0 0,17z" /><path style="fill:#4c4c4c" d="M213,117 l32,0 0,46 -32,0 0,-46z" /><path style="fill:#4c4c4c" d="M693,117 l30,0 0,46 -30,0 0,-46z" /><path style="fill:#7f7f7f;stroke:#4c4c4c;stroke-width:2" d="M341,673 l-36,80 -10,-71 46,-9z" /><path style="fill:#b2b2b2;stroke:#4c4c4c;stroke-width:2" d="M102,753 l203,0 -10,-71 -36,0 0,11 -20,0 0,-11 -71,0 0,11 -21,0 0,-11 -36,0 -9,71z" /><path style="fill:#ccc;stroke:#4c4c4c;stroke-width:2" d="M66,673 l36,80 9,-71 -45,-9z" /><path style="fill:#fc0" d="M209,503 l50,0 0,42 -50,0 0,-42z" /><path style="fill:#fc0" d="M147,453 l42,0 0,20 -42,0 0,-20z" /><path style="fill:#fc0" d="M280,453 l41,0 0,20 -41,0 0,-20z" /><path style="fill:#4c4c4c" d="M127,325 l41,0 0,20 -41,0 0,-20z" /><path style="fill:#4c4c4c" d="M775,325 l39,0 0,20 -39,0 0,-20z" /><path style="fill:#fc0" d="M814,381 l73,0 0,66 -73,0 0,-66z" /><path style="fill:#fc0" d="M703,381 l70,0 0,56 -70,0 0,-56z" /><path style="fill:#fc0" d="M169,381 l70,0 0,66 -70,0 0,-66z" /><path style="fill:#fc0" d="M56,381 l69,0 0,56 -69,0 0,-56z" /><path style="fill:#fc0" d="M697,453 l42,0 0,20 -42,0 0,-20z" /><path style="fill:#fc0" d="M830,453 l41,0 0,20 -41,0 0,-20z" /><path style="fill:none;stroke:#fff;stroke-width:2" d="M748,561 l0,-62 112,0" /><path style="fill:none;stroke:#fff;stroke-width:2" d="M877,561 l0,-62 19,0" /><path style="fill:none;stroke:#999;stroke-width:2" d="M877,561 l19,0 0,-62" /><path style="fill:none;stroke:#999;stroke-width:2" d="M748,561 l112,0 0,-62" /><path style="fill:#fc0" d="M443,391 l50,0 0,42 -50,0 0,-42z" /><path style="fill:#ccc" d="M367,611 l286,0 0,203 -286,0 0,-203z" /><path style="fill:#c7c7c7" d="M367,755 l286,-84 0,143 -286,0 0,-59z" /><path style="fill:#c2c2c2" d="M367,765 l286,-86 0,135 -286,0 0,-49z" /><path style="fill:#bdbdbd" d="M367,777 l286,-86 0,123 -286,0 0,-37z" /><path style="fill:none;stroke:#4c4c4c;stroke-width:2" d="M367,611 l286,0 0,203 -286,0 0,-203" /><path style="fill:#7f7f7f" d="M387,581 l244,0 0,20 -244,0 0,-20z" /><path style="fill:#b2b2b2" d="M387,585 l244,0 0,12 -244,0 0,-12z" /><path style="fill:#fff" d="M387,589 l244,0 0,4 -244,0 0,-4z" /><path style="fill:none;stroke:#4c4c4c;stroke-width:2" d="M387,581 l244,0 0,20 -244,0 0,-20" /><path style="fill:#e5e5e5;stroke:#4c4c4c;stroke-width:2" d="M347,693 l20,30 286,0 20,-30 -20,10 -286,0 -20,-10z" /><path style="fill:#333" d="M469,693 l80,0 0,10 -80,0 0,-10z" /><path style="fill:#f60;stroke:#4c4c4c;stroke-width:2" d="M613,581 l40,0 0,-16 -40,-30 0,46z" /><path style="fill:#f60;stroke:#4c4c4c;stroke-width:2" d="M407,581 l-40,0 0,-16 40,-30 0,46z" /><path style="fill:#f60;stroke:#4c4c4c;stroke-width:2" d="M407,513 l10,0 0,68 -10,0 0,-68z" /><path style="fill:#f60;stroke:#4c4c4c;stroke-width:2" d="M601,513 l10,0 0,68 -10,0 0,-68z" /><path style="fill:#ccc;stroke:#4c4c4c;stroke-width:2" d="M631,575 l22,0 0,36 -22,0 0,-36z" /><path style="fill:#ccc;stroke:#4c4c4c;stroke-width:2" d="M367,575 l20,0 0,36 -20,0 0,-36z" /><path style="fill:#999;stroke:#4c4c4c;stroke-width:2" d="M102,753 l203,0 0,56 -203,0 0,-56z" /><path style="fill:#ccc;stroke:#4c4c4c;stroke-width:2" d="M917,673 l0,-72 9,0 33,72 -42,0z" /><path style="fill:none;stroke:#f60;stroke-width:2" d="M729,26 l-522,0" /><path style="fill:none;stroke:#f60;stroke-width:2" d="M51,197 l862,0" /><path style="fill:none;stroke:#4c4c4c;stroke-width:2" d="M204,0 l529,0 0,163 -529,0 0,-163" /><path style="fill:none;stroke:#4c4c4c;stroke-width:2" d="M204,105 l529,0" /></svg>