<!DOCTYPE svg PUBLIC "-//W3C//DTD SVG 20000303 Stylable//EN" "http://www.w3.org/TR/2000/03/WD-SVG-20000303/DTD/svg-20000303-stylable.dtd"[]><svg xmlns="http://www.w3.org/2000/svg" width="957px" height="999px" viewBox="0 0 954 999"><path style="fill:#36c" d="M151,803 l652,0 0,173 -652,0 0,-173z" /><path style="fill:#039;stroke:#4c4c4c;stroke-width:2" d="M151,976 l66,0 0,23 -66,0 0,-23z" /><path style="fill:#039;stroke:#4c4c4c;stroke-width:2" d="M737,976 l66,0 0,23 -66,0 0,-23z" /><path style="fill:#36c" d="M0,717 l954,0 0,86 -954,0 0,-86z" /><path style="fill:#ccc" d="M0,88 l954,0 0,627 -954,0 0,-627z" /><path style="fill:#e5e5e5" d="M0,88 l954,0 -19,-88 -916,0 -19,88z" /><path style="fill:#333" d="M369,933 l64,0 0,21 -64,0 0,-21z" /><path style="fill:#333" d="M521,933 l64,0 0,21 -64,0 0,-21z" /><path style="fill:#c7c7c7" d="M0,511 l954,-294 0,500 -954,0 0,-206z" /><path style="fill:#c2c2c2" d="M0,541 l954,-294 0,470 -954,0 0,-176z" /><path style="fill:#bdbdbd" d="M0,585 l954,-294 0,426 -954,0 0,-132z" /><path style="fill:none;stroke:#fff;stroke-width:2" d="M717,129 l0,478 -478,0" /><path style="fill:none;stroke:#999;stroke-width:2" d="M717,129 l-478,0 0,478" /><path style="fill:#36c" d="M21,261 l152,0 0,130 -152,0 0,-130z" /><path style="fill:#ffb27f;stroke:#f60;stroke-width:2" d="M445,369 l10,0 0,174 -10,0 0,-174z" /><path style="fill:#ffb27f;stroke:#f60;stroke-width:2" d="M499,369 l10,0 0,174 -10,0 0,-174z" /><path style="fill:none;stroke:#4c4c4c;stroke-width:2" d="M477,607 l0,-478" /><path style="fill:#999" d="M575,521 l-22,-22 0,-304 22,-22 64,0 22,22 0,304 -22,22 -64,0z" /><path style="fill:#999" d="M325,521 l-22,-22 0,-304 22,-22 66,0 22,22 0,304 -22,22 -66,0z" /><path style="fill:none;stroke:#fff;stroke-width:2" d="M661,195 l0,304 -22,22 -64,0" /><path style="fill:none;stroke:#fff;stroke-width:2" d="M411,195 l0,304 -22,22 -64,0" /><path style="fill:none;stroke:#4c4c4c;stroke-width:2" d="M325,521 l-22,-22 0,-304 22,-22 66,0 22,22" /><path style="fill:none;stroke:#4c4c4c;stroke-width:2" d="M575,521 l-22,-22 0,-304 22,-22 64,0 22,22" /><path style="fill:none;stroke:#4c4c4c;stroke-width:2" d="M19,0 l916,0 19,86 0,717 -954,0 0,-717 19,-86" /><path style="fill:#039" d="M151,803 l652,0 0,32 -652,0 0,-32z" /><path style="fill:#039" d="M357,835 l240,0 0,77 -240,0 0,-77z" /><path style="fill:none;stroke:#4c4c4c;stroke-width:2" d="M151,803 l652,0 0,173 -652,0 0,-173" /><path style="fill:#000" d="M487,227 l34,0 0,110 -34,0 0,-110z" /><path style="fill:#f00" d="M497,337 l-10,-10 0,-14 10,-10 14,0 10,10 0,14 -10,10 -14,0z" /><path style="fill:#fc0" d="M737,189 l56,0 0,82 -56,0 0,-82z" /><path style="fill:#fc0" d="M737,129 l56,0 0,12 -56,0 0,-12z" /><path style="fill:#999" d="M44,357 l107,0 0,22 -107,0 0,-22z" /><path style="fill:#000" d="M205,857 l98,0 0,76 -98,0 0,-76z" /><path style="fill:none;stroke:#fff;stroke-width:2" d="M205,933 l0,-76 98,0" /><path style="fill:none;stroke:#999;stroke-width:2" d="M303,857 l0,76 -98,0" /></svg>