<!DOCTYPE svg PUBLIC "-//W3C//DTD SVG 20000303 Stylable//EN" "http://www.w3.org/TR/2000/03/WD-SVG-20000303/DTD/svg-20000303-stylable.dtd"[]><svg xmlns="http://www.w3.org/2000/svg" width="999px" height="393px" viewBox="0 0 999 357"><path style="fill:#000" d="M83,209 l32,0 0,-36 -32,0 0,36z" /><path style="fill:#000" d="M115,209 l32,0 0,-26 -32,0 0,26z" /><path style="fill:#000" d="M147,199 l630,0 0,-6 -630,0 0,6z" /><path style="fill:#e5e5e5" d="M819,10 l-409,0 -22,19 -331,0 -26,26 0,154 10,0 0,-148 22,-20 756,0 0,-31z" /><path style="fill:#000" d="M462,357 l526,0 0,-11 -526,0 0,11z" /><path style="fill:#0cf" d="M819,0 l169,0 0,346 -169,0 0,-346z" /><path style="fill:#00c7fa" d="M819,195 l169,-72 0,223 -169,0 0,-151z" /><path style="fill:#00c2f5" d="M819,217 l169,-80 0,209 -169,0 0,-129z" /><path style="fill:#00bdf0" d="M819,239 l169,-80 0,187 -169,0 0,-107z" /><path style="fill:none;stroke:#4c4c4c;stroke-width:2" d="M819,0 l169,0 0,346 -169,0 0,-346" /><path style="fill:#0cf" d="M819,41 l-756,0 -22,20 0,148 42,0 0,-42 736,0 0,-126z" /><path style="fill:#00c7fa" d="M41,147 l0,62 42,0 0,-42 736,0 0,-106 -778,86z" /><path style="fill:#00c2f5" d="M41,157 l0,52 42,0 0,-42 736,0 0,-94 -778,84z" /><path style="fill:#00bdf0" d="M41,167 l0,42 42,0 0,-42 736,0 0,-84 -778,84z" /><path style="fill:none;stroke:#4c4c4c;stroke-width:2" d="M819,41 l-756,0 -22,20 0,148 42,0 0,-42 736,0 0,-126" /><path style="fill:#0cf;stroke:#4c4c4c;stroke-width:2" d="M999,10 l-11,0 0,324 11,0 0,-324z" /><path style="fill:#0cf;stroke:#4c4c4c;stroke-width:2" d="M0,209 l0,106 41,42 421,0 0,-148 -462,0z" /><path style="fill:#0cf;stroke:#4c4c4c;stroke-width:2" d="M462,346 l357,0 0,-137 -357,0 0,137z" /><path style="fill:#ff8c40" d="M819,19 l-421,0 -10,10 431,0 0,-10z" /><path style="fill:none;stroke:#4c4c4c;stroke-width:2" d="M819,10 l-409,0 -22,19 -331,0 -26,26 0,154 10,0 0,-148 22,-20 756,0 0,-31" /><path style="fill:#e5e5e5" d="M462,193 l0,-90 20,-20 275,0 20,20 0,90 -315,0z" /><path style="fill:#e0e0e0" d="M462,193 l0,-34 315,-46 0,80 -315,0z" /><path style="fill:#dbdbdb" d="M462,193 l0,-30 315,-46 0,76 -315,0z" /><path style="fill:#d6d6d6" d="M462,193 l0,-24 315,-46 0,70 -315,0z" /><path style="fill:#f2f2f2" d="M462,103 l20,-20 275,0 20,20 -315,0z" /><path style="fill:none;stroke:#4c4c4c;stroke-width:2" d="M462,193 l0,-90 20,-20 275,0 20,20 0,90 -315,0" /><path style="fill:none;stroke:#7f7f7f;stroke-width:2" d="M492,193 l0,-90 4,-20" /><path style="fill:none;stroke:#7f7f7f;stroke-width:2" d="M749,193 l0,-90 -6,-20" /><path style="fill:#4c4c4c" d="M783,199 l6,0 0,6 -6,0 0,-6z" /><path style="fill:#4c4c4c" d="M783,173 l6,0 0,4 -6,0 0,-4z" /><path style="fill:#4c4c4c" d="M93,209 l42,0 0,-20 -42,0 0,20z" /><path style="fill:#e5e5e5" d="M841,67 l126,0 0,126 -126,0 0,-126z" /><path style="fill:none;stroke:#fff;stroke-width:2" d="M841,193 l0,-126 126,0" /><path style="fill:none;stroke:#4c4c4c;stroke-width:2" d="M967,67 l0,126 -126,0" /><path style="fill:#7f7f7f" d="M851,77 l106,0 0,68 -106,0 0,-68z" /><path style="fill:#7f7f7f" d="M851,151 l106,0 0,22 -106,0 0,-22z" /><path style="fill:#333" d="M859,83 l56,0 0,36 -56,0 0,-36z" /><path style="fill:#fc0" d="M777,45 l40,0 0,16 -40,0 0,-16z" /><path style="fill:#333" d="M859,83 l56,0 0,36 -56,0 0,-36z" /><path style="fill:#09c" d="M472,209 l347,0 0,10 -347,0 0,-10z" /><path style="fill:#09c" d="M83,235 l379,0 0,12 -379,0 0,-12z" /><path style="fill:#33d6ff;stroke:#4c4c4c;stroke-width:2" d="M83,209 l389,0 0,26 -389,0 0,-26z" /><path style="fill:#b2b2b2;stroke:#4c4c4c;stroke-width:2" d="M147,199 l630,0 0,10 -630,0 0,-10z" /><path style="fill:#e5e5e5;stroke:#4c4c4c;stroke-width:2" d="M777,209 l0,-42 42,0 0,42 -42,0z" /><path style="fill:#4c4c4c" d="M522,167 l0,-20 58,0 0,20 -58,0z" /><path style="fill:#4c4c4c" d="M472,183 l4,0 0,6 -4,0 0,-6z" /><path style="fill:#4c4c4c" d="M472,131 l4,0 0,4 -4,0 0,-4z" /><path style="fill:#4c4c4c" d="M472,115 l4,0 0,4 -4,0 0,-4z" /><path style="fill:#4c4c4c" d="M809,199 l6,0 0,6 -6,0 0,-6z" /><path style="fill:#4c4c4c" d="M809,173 l6,0 0,4 -6,0 0,-4z" /><path style="fill:#4c4c4c" d="M825,315 l6,0 0,6 -6,0 0,-6z" /><path style="fill:#4c4c4c" d="M825,29 l6,0 0,6 -6,0 0,-6z" /><path style="fill:#4c4c4c" d="M825,177 l6,0 0,6 -6,0 0,-6z" /><path style="fill:#4c4c4c" d="M161,67 l-4,-2 0,-6 4,-2 4,0 2,2 0,6 -2,2 -4,0z" /><path style="fill:#4c4c4c" d="M713,67 l-3,-2 0,-6 3,-2 4,0 2,2 0,6 -2,2 -4,0z" /><path style="fill:none;stroke:#069;stroke-width:2" d="M189,357 l0,-122" /><path style="fill:none;stroke:#069;stroke-width:2" d="M378,357 l0,-122" /><path style="fill:none;stroke:#069;stroke-width:2" d="M715,346 l0,-137" /><path style="fill:none;stroke:#069;stroke-width:2" d="M777,346 l0,-137" /><path style="fill:none;stroke:#069;stroke-width:2" d="M179,273 l0,52 -74,0" /><path style="fill:none;stroke:#7fe5ff;stroke-width:2" d="M105,325 l0,-52 74,0" /></svg>