<!DOCTYPE svg PUBLIC "-//W3C//DTD SVG 20000303 Stylable//EN" "http://www.w3.org/TR/2000/03/WD-SVG-20000303/DTD/svg-20000303-stylable.dtd"[]><svg xmlns="http://www.w3.org/2000/svg" width="999px" height="999px" viewBox="0 0 999 999"><path style="fill:#b2b2b2" d="M103,71 l126,0 0,512 -126,0 0,-512z" /><path style="fill:#bfbfbf" d="M113,71 l106,0 0,510 -106,0 0,-510z" /><path style="fill:#ccc" d="M121,71 l90,0 0,510 -90,0 0,-510z" /><path style="fill:#d9d9d9" d="M131,71 l70,0 0,510 -70,0 0,-510z" /><path style="fill:#e5e5e5" d="M139,71 l52,0 0,510 -52,0 0,-510z" /><path style="fill:#f2f2f2" d="M149,71 l34,0 0,510 -34,0 0,-510z" /><path style="fill:#fff" d="M157,71 l16,0 0,512 -16,0 0,-512z" /><path style="fill:none;stroke:#4c4c4c;stroke-width:2" d="M103,71 l126,0 0,512 -126,0 0,-512" /><path style="fill:#ccc" d="M42,927 l914,0 0,61 -914,0 0,-61z" /><path style="fill:#bdbdbd" d="M42,977 l914,-27 0,38 43,0 0,11 -999,0 0,-11 42,0 0,-11z" /><path style="fill:none;stroke:#4c4c4c;stroke-width:2" d="M42,927 l914,-3 0,64 43,0 0,11 -999,0 0,-11 42,0 0,-61" /><path style="fill:none;stroke:#7f7f7f;stroke-width:2" d="M42,988 l914,0" /><path style="fill:#7f7f7f" d="M83,19 l20,0 0,-19 126,0 0,19 20,0 0,52 -166,0 0,-52z" /><path style="fill:#7f7f7f" d="M83,333 l166,0 0,10 500,0 218,62 32,0 0,84 -750,0 0,10 -166,0 0,-10 -83,0 0,-146 83,0 0,-10z" /><path style="fill:#7f7f7f" d="M83,583 l166,0 0,341 -166,0 0,-341z" /><path style="fill:#8c8c8c" d="M95,19 l18,0 0,-19 106,0 0,19 18,0 0,52 -142,0 0,-52z" /><path style="fill:#8c8c8c" d="M95,331 l142,0 0,168 -142,0 0,-168z" /><path style="fill:#8c8c8c" d="M95,581 l142,0 0,343 -142,0 0,-343z" /><path style="fill:#999" d="M107,19 l14,0 0,-19 90,0 0,19 14,0 0,52 -118,0 0,-52z" /><path style="fill:#999" d="M107,331 l118,0 0,168 -118,0 0,-168z" /><path style="fill:#999" d="M107,581 l118,0 0,343 -118,0 0,-343z" /><path style="fill:#a6a6a6" d="M119,19 l12,0 0,-19 70,0 0,19 12,0 0,52 -94,0 0,-52z" /><path style="fill:#a6a6a6" d="M119,331 l94,0 0,168 -94,0 0,-168z" /><path style="fill:#a6a6a6" d="M119,581 l94,0 0,343 -94,0 0,-343z" /><path style="fill:#b2b2b2" d="M131,19 l8,0 0,-19 52,0 0,19 10,0 0,52 -70,0 0,-52z" /><path style="fill:#b2b2b2" d="M131,331 l70,0 0,168 -70,0 0,-168z" /><path style="fill:#b2b2b2" d="M131,581 l70,0 0,343 -70,0 0,-343z" /><path style="fill:#bfbfbf" d="M143,19 l6,0 0,-19 34,0 0,19 6,0 0,52 -46,0 0,-52z" /><path style="fill:#bfbfbf" d="M143,331 l46,0 0,168 -46,0 0,-168z" /><path style="fill:#bfbfbf" d="M143,581 l46,0 0,343 -46,0 0,-343z" /><path style="fill:#ccc" d="M155,19 l2,0 0,-19 16,0 0,19 2,0 0,52 -20,0 0,-52z" /><path style="fill:#ccc" d="M155,333 l20,0 0,166 -20,0 0,-166z" /><path style="fill:#ccc" d="M155,583 l20,0 0,341 -20,0 0,-341z" /><path style="fill:#999" d="M10,353 l83,0 0,124 -83,0 0,-124z" /><path style="fill:#999" d="M239,353 l552,0 176,52 -728,0 0,-52z" /><path style="fill:#999" d="M239,425 l760,0 0,52 -760,0 0,-52z" /><path style="fill:none;stroke:#ccc;stroke-width:2" d="M239,477 l760,0" /><path style="fill:none;stroke:#ccc;stroke-width:2" d="M239,407 l717,0" /><path style="fill:none;stroke:#4c4c4c;stroke-width:2" d="M83,19 l20,0 0,-19 126,0 0,19 20,0 0,52 -166,0 0,-52" /><path style="fill:none;stroke:#4c4c4c;stroke-width:2" d="M83,333 l166,0 0,10 500,0 218,62 32,0 0,84 -750,0 0,10 -166,0 0,-10 -83,0 0,-146 83,0 0,-10" /><path style="fill:none;stroke:#4c4c4c;stroke-width:2" d="M83,583 l166,0 0,341 -166,0 0,-341" /><path style="fill:none;stroke:#4c4c4c;stroke-width:2" d="M239,353 l542,0" /><path style="fill:none;stroke:#4c4c4c;stroke-width:2" d="M239,425 l760,0" /><path style="fill:#b2b2b2;stroke:#4c4c4c;stroke-width:2" d="M447,395 l188,0 0,198 -188,0 0,-198z" /><path style="fill:#ccc;stroke:#4c4c4c;stroke-width:2" d="M455,227 l158,0 0,168 -158,0 0,-168z" /><path style="fill:#ccc;stroke:#4c4c4c;stroke-width:2" d="M665,415 l-30,0 0,168 30,0 0,-168z" /><circle style="fill:#d9d9d9;stroke:#4c4c4c;stroke-width:2" cx="540" cy="499" r="73" /><path style="fill:none;stroke:#fff;stroke-width:2" d="M447,593 l0,-198 188,0" /><path style="fill:#ccc;stroke:#4c4c4c;stroke-width:2" d="M613,395 l-18,-10 -152,262 18,10 152,-262z" /><circle style="fill:#e5e5e5;stroke:#7f7f7f;stroke-width:2" cx="541" cy="499" r="24" /><path style="fill:#b2b2b2" d="M531,593 l20,0 0,30 -20,0 0,-30z" /><path style="fill:#ccc" d="M533,593 l16,0 0,30 -16,0 0,-30z" /><path style="fill:#e5e5e5" d="M537,593 l8,0 0,30 -8,0 0,-30z" /><path style="fill:#fff" d="M539,593 l2,0 0,30 -2,0 0,-30z" /><path style="fill:none;stroke:#4c4c4c;stroke-width:2" d="M531,593 l20,0 0,30 -20,0 0,-30" /><path style="fill:none;stroke:#999;stroke-width:2" d="M467,373 l18,0 0,-124" /><path style="fill:none;stroke:#999;stroke-width:2" d="M503,373 l18,0 0,-124" /><path style="fill:none;stroke:#999;stroke-width:2" d="M539,373 l18,0 0,-124" /><path style="fill:none;stroke:#999;stroke-width:2" d="M575,373 l18,0 0,-124" /><path style="fill:#b2b2b2;stroke:#4c4c4c;stroke-width:2" d="M657,551 l-8,0 -8,-2 -6,-4 -6,-8 -4,-8 0,-12 0,-10 2,-10 6,-10 6,-8 8,-6 8,-4 8,0 6,2 8,4 4,8 4,8 2,10 -2,12 -2,10 -4,10 -8,8 -6,6 -8,4z" /><path style="fill:#666" d="M655,505 l20,-22 -26,-8 6,30z" /><path style="fill:#666" d="M649,509 l-8,-20 -8,30 16,-10z" /><path style="fill:#666" d="M653,515 l-20,22 26,6 -6,-28z" /><path style="fill:#666" d="M657,511 l14,26 12,-44 -26,18z" /></svg>