<!DOCTYPE svg PUBLIC "-//W3C//DTD SVG 20000303 Stylable//EN" "http://www.w3.org/TR/2000/03/WD-SVG-20000303/DTD/svg-20000303-stylable.dtd"[]><svg xmlns="http://www.w3.org/2000/svg" width="999px" height="927px" viewBox="0 0 998 922"><path style="fill:#4c4c4c" d="M171,577 l156,0 0,230 -156,0 0,-230z" /><path style="fill:#4c4c4c" d="M171,0 l156,0 0,57 -156,0 0,-57z" /><path style="fill:#575757" d="M181,577 l136,0 0,230 -136,0 0,-230z" /><path style="fill:#575757" d="M181,0 l136,0 0,57 -136,0 0,-57z" /><path style="fill:#5e5e5e" d="M189,577 l120,0 0,230 -120,0 0,-230z" /><path style="fill:#5e5e5e" d="M189,0 l120,0 0,57 -120,0 0,-57z" /><path style="fill:#696969" d="M197,0 l104,0 0,57 -104,0 0,-57z" /><path style="fill:#696969" d="M197,577 l104,0 0,230 -104,0 0,-230z" /><path style="fill:#737373" d="M207,577 l84,0 0,230 -84,0 0,-230z" /><path style="fill:#737373" d="M207,0 l84,0 0,57 -84,0 0,-57z" /><path style="fill:#7d7d7d" d="M215,0 l68,0 0,57 -68,0 0,-57z" /><path style="fill:#7d7d7d" d="M215,577 l68,0 0,230 -68,0 0,-230z" /><path style="fill:#858585" d="M223,577 l52,0 0,230 -52,0 0,-230z" /><path style="fill:#858585" d="M223,0 l52,0 0,57 -52,0 0,-57z" /><path style="fill:#8f8f8f" d="M231,577 l36,0 0,230 -36,0 0,-230z" /><path style="fill:#8f8f8f" d="M231,0 l36,0 0,57 -36,0 0,-57z" /><path style="fill:#999" d="M241,0 l18,0 0,57 -18,0 0,-57z" /><path style="fill:#999" d="M241,577 l18,0 0,230 -18,0 0,-230z" /><path style="fill:#7f7f7f;stroke:#4c4c4c;stroke-width:2" d="M76,922 l0,-37 19,0 0,-38 883,0 0,38 20,0 0,37 -922,0z" /><path style="fill:#999;stroke:#4c4c4c;stroke-width:2" d="M153,807 l192,0 0,40 -192,0 0,-40z" /><path style="fill:none;stroke:#4c4c4c;stroke-width:2" d="M171,577 l156,0 0,230 -156,0 0,-230" /><path style="fill:none;stroke:#4c4c4c;stroke-width:2" d="M171,0 l156,0 0,57 -156,0 0,-57" /><path style="fill:#999" d="M183,57 l134,0 0,520 -134,0 0,-520z" /><path style="fill:#a3a3a3" d="M189,57 l120,0 0,520 -120,0 0,-520z" /><path style="fill:#ababab" d="M197,57 l104,0 0,520 -104,0 0,-520z" /><path style="fill:#b5b5b5" d="M205,57 l88,0 0,520 -88,0 0,-520z" /><path style="fill:#bfbfbf" d="M213,57 l74,0 0,520 -74,0 0,-520z" /><path style="fill:#c9c9c9" d="M219,57 l60,0 0,520 -60,0 0,-520z" /><path style="fill:#d1d1d1" d="M227,57 l44,0 0,520 -44,0 0,-520z" /><path style="fill:#dbdbdb" d="M235,57 l28,0 0,520 -28,0 0,-520z" /><path style="fill:#e5e5e5" d="M243,57 l14,0 0,520 -14,0 0,-520z" /><path style="fill:none;stroke:#4c4c4c;stroke-width:2" d="M183,57 l134,0 0,520 -134,0 0,-520" /><path style="fill:none;stroke:#4c4c4c;stroke-width:2" d="M99,885 l876,0" /><path style="fill:none;stroke:#b2b2b2;stroke-width:2" d="M99,879 l876,0" /><path style="fill:#666;stroke:#4c4c4c;stroke-width:2" d="M345,499 l0,20 -18,20 -307,0 -20,-20 0,-38 173,0 0,38 154,0 0,-20 18,0z" /><path style="fill:#4c4c4c;stroke:#4c4c4c;stroke-width:2" d="M998,461 l0,-84 -26,-26 -50,-26 -67,-20 -86,-14 -96,-8 -100,0 -246,0 0,-14 -154,0 0,250 154,0 0,-58 671,0z" /><path style="fill:#575757" d="M181,269 l136,0 0,250 -136,0 0,-250z" /><path style="fill:#5e5e5e" d="M189,269 l120,0 0,250 -120,0 0,-250z" /><path style="fill:#696969" d="M197,269 l104,0 0,250 -104,0 0,-250z" /><path style="fill:#737373" d="M207,269 l86,0 0,250 -86,0 0,-250z" /><path style="fill:#7d7d7d" d="M215,269 l68,0 0,250 -68,0 0,-250z" /><path style="fill:#858585" d="M223,269 l52,0 0,250 -52,0 0,-250z" /><path style="fill:#8f8f8f" d="M231,269 l36,0 0,250 -36,0 0,-250z" /><path style="fill:#999" d="M241,269 l18,0 0,250 -18,0 0,-250z" /><path style="fill:#191919" d="M76,347 l97,0 0,134 -97,0 0,-134z" /><path style="fill:#4c4c4c" d="M133,327 l0,96 -133,0 0,-96 133,0z" /><path style="fill:#575757" d="M133,333 l0,84 -133,0 0,-84 133,0z" /><path style="fill:#5e5e5e" d="M133,337 l0,76 -133,0 0,-76 133,0z" /><path style="fill:#696969" d="M133,343 l0,64 -133,0 0,-64 133,0z" /><path style="fill:#737373" d="M133,349 l0,52 -133,0 0,-52 133,0z" /><path style="fill:#7d7d7d" d="M133,353 l0,44 -133,0 0,-44 133,0z" /><path style="fill:#858585" d="M133,359 l0,32 -133,0 0,-32 133,0z" /><path style="fill:#8f8f8f" d="M133,363 l0,22 -133,0 0,-22 133,0z" /><path style="fill:#999" d="M133,369 l0,12 -133,0 0,-12 133,0z" /><path style="fill:none;stroke:#4c4c4c;stroke-width:2" d="M133,327 l0,96 -133,0 0,-96 133,0" /><path style="fill:#4c4c4c;stroke:#4c4c4c;stroke-width:2" d="M143,413 l20,0 0,96 -20,0 0,-96z" /><path style="fill:#e5e5e5" d="M151,413 l4,0 0,96 -4,0 0,-96z" /><path style="fill:#4c4c4c;stroke:#4c4c4c;stroke-width:2" d="M143,231 l20,0 0,538 -20,0 0,-538z" /><path style="fill:#e5e5e5" d="M151,231 l4,0 0,538 -4,0 0,-538z" /><path style="fill:#4c4c4c" d="M0,423 l173,0 0,38 -173,0 0,-38z" /><path style="fill:#4c4c4c" d="M76,461 l-56,0 0,20 56,0 0,-20z" /><path style="fill:none;stroke:#ccc;stroke-width:2" d="M139,423 l0,38" /><path style="fill:none;stroke:#7f7f7f;stroke-width:2" d="M168,423 l0,38" /><path style="fill:none;stroke:#4c4c4c;stroke-width:2" d="M998,461 l0,-84 -26,-26 -50,-26 -67,-20 -86,-14 -96,-8 -100,0 -246,0 0,-14 -154,0 0,154 -173,0 0,38 173,0 0,58 154,0 0,-58 671,0" /><path style="fill:#b2b2b2;stroke:#4c4c4c;stroke-width:2" d="M351,337 l647,0 0,42 -647,0 0,-42z" /><path style="fill:#b2b2b2;stroke:#4c4c4c;stroke-width:2" d="M351,399 l647,0 0,28 -647,0 0,-28z" /><path style="fill:#666;stroke:#4c4c4c;stroke-width:2" d="M575,539 l-38,-40 0,-384 20,-38 134,0 20,38 0,250 18,0 0,134 -38,40 -116,0z" /><path style="fill:none;stroke:#4c4c4c;stroke-width:2" d="M575,307 l98,0 0,-192" /><path style="fill:none;stroke:#4c4c4c;stroke-width:2" d="M623,279 l0,-164" /><path style="fill:none;stroke:#4c4c4c;stroke-width:2" d="M575,279 l98,0" /><path style="fill:none;stroke:#b2b2b2;stroke-width:2" d="M673,115 l-96,0 0,192" /><circle style="fill:#4c4c4c;stroke:#4c4c4c;stroke-width:2" cx="633" cy="461" r="34" /><path style="fill:#000" d="M573,363 l8,-4 48,84 -8,4 -48,-84z" /><path style="fill:#000" d="M637,477 l8,-6 50,88 -8,4 -50,-86z" /><path style="fill:#999;stroke:#4c4c4c;stroke-width:2" d="M489,361 l48,0 0,138 -48,0 0,-138z" /><path style="fill:none;stroke:#4c4c4c;stroke-width:2" d="M711,365 l-154,0" /><circle style="fill:#b2b2b2" cx="513" cy="437" r="14" /><circle style="fill:#b2b2b2" cx="513" cy="394" r="14" /><path style="fill:#4c4c4c" d="M375,57 l-48,0 0,-57 48,0 0,57z" /><path style="fill:#4c4c4c" d="M123,653 l50,0 0,58 -50,0 0,-58z" /><path style="fill:#191919" d="M335,57 l-8,0 0,-57 8,0 0,57z" /><path style="fill:#191919" d="M163,653 l10,0 0,58 -10,0 0,-58z" /><path style="fill:#999;stroke:#4c4c4c;stroke-width:2" d="M615,539 l28,0 0,76 -28,0 0,-76z" /><path style="fill:#999;stroke:#4c4c4c;stroke-width:2" d="M123,769 l58,0 0,78 -58,0 0,-78z" /><path style="fill:#ababab" d="M617,539 l22,0 0,76 -22,0 0,-76z" /><path style="fill:#ababab" d="M131,769 l44,0 0,78 -44,0 0,-78z" /><path style="fill:#bfbfbf" d="M621,539 l16,0 0,76 -16,0 0,-76z" /><path style="fill:#bfbfbf" d="M137,769 l32,0 0,78 -32,0 0,-78z" /><path style="fill:#d1d1d1" d="M143,769 l20,0 0,78 -20,0 0,-78z" /><path style="fill:#d1d1d1" d="M623,539 l10,0 0,76 -10,0 0,-76z" /><path style="fill:#e5e5e5" d="M149,769 l6,0 0,78 -6,0 0,-78z" /><path style="fill:#e5e5e5" d="M627,539 l4,0 0,76 -4,0 0,-76z" /><path style="fill:#ccc;stroke:#4c4c4c;stroke-width:2" d="M369,837 l595,0 0,10 -595,0 0,-10z" /><path style="fill:none;stroke:#b2b2b2;stroke-width:2" d="M139,711 l0,-58" /><path style="fill:none;stroke:#b2b2b2;stroke-width:2" d="M359,0 l0,57" /><path style="fill:none;stroke:#4c4c4c;stroke-width:2" d="M375,57 l-48,0 0,-57 48,0 0,57" /><path style="fill:none;stroke:#4c4c4c;stroke-width:2" d="M123,653 l50,0 0,58 -50,0 0,-58" /><path style="fill:none;stroke:#4c4c4c;stroke-width:2" d="M173,711 l154,0" /><path style="fill:none;stroke:#4c4c4c;stroke-width:2" d="M173,653 l154,0" /><path style="fill:none;stroke:#4c4c4c;stroke-width:2" d="M173,499 l154,0" /><path style="fill:none;stroke:#4c4c4c;stroke-width:2" d="M20,327 l0,96" /></svg>