<!DOCTYPE svg PUBLIC "-//W3C//DTD SVG 20000303 Stylable//EN" "http://www.w3.org/TR/2000/03/WD-SVG-20000303/DTD/svg-20000303-stylable.dtd"[]><svg xmlns="http://www.w3.org/2000/svg" width="999px" height="601px" viewBox="0 0 999 577"><path style="fill:#b2b2b2;stroke:#4c4c4c;stroke-width:2" d="M0,15 l999,0 0,396 -999,0 0,-396z" /><path style="fill:#7f7fcc" d="M6,42 l986,0 0,3 -986,0 0,-3z" /><path style="fill:#7f7fcc" d="M6,20 l986,0 0,5 -986,0 0,-5z" /><path style="fill:#339" d="M123,411 l0,20 64,0 0,104 -22,20 0,22 668,0 0,-22 -22,-20 0,-104 62,0 0,-20 -750,0z" /><path style="fill:#006" d="M187,431 l624,0 0,104 -624,0 0,-104z" /><path style="fill:#4c4cb2" d="M187,535 l624,0 22,20 -668,0 22,-20z" /><path style="fill:none;stroke:#4c4c4c;stroke-width:2" d="M123,411 l0,20 64,0 0,104 -22,20 0,22 668,0 0,-22 -22,-20 0,-104 62,0 0,-20 -750,0" /><path style="fill:#ccc;stroke:#4c4c4c;stroke-width:2" d="M20,411 l0,104 103,0 0,-42 -39,0 0,-62 -64,0z" /><path style="fill:#006;stroke:#4c4c4c;stroke-width:2" d="M125,473 l62,0 0,42 -62,0 0,-42z" /><path style="fill:none;stroke:#7f7f7f;stroke-width:2" d="M93,509 l0,-32" /><path style="fill:none;stroke:#fff;stroke-width:2" d="M97,509 l0,-32" /><path style="fill:none;stroke:#7f7f7f;stroke-width:2" d="M25,447 l52,0" /><path style="fill:none;stroke:#fff;stroke-width:2" d="M25,453 l52,0" /><path style="fill:#ccc" d="M62,0 l874,0 0,415 -874,0 0,-415z" /><path style="fill:#c7c7c7" d="M62,295 l874,-174 0,294 -874,0 0,-120z" /><path style="fill:#c2c2c2" d="M62,313 l874,-173 0,275 -874,0 0,-102z" /><path style="fill:#bdbdbd" d="M62,339 l874,-176 0,252 -874,0 0,-76z" /><path style="fill:none;stroke:#4c4c4c;stroke-width:2" d="M62,0 l874,0 0,415 -874,0 0,-415" /><path style="fill:none;stroke:#7f7f7f;stroke-width:2" d="M629,35 l0,376" /><path style="fill:none;stroke:#7f7f7f;stroke-width:2" d="M369,35 l0,376" /><path style="fill:none;stroke:#7f7f7f;stroke-width:2" d="M67,35 l864,0" /><path style="fill:none;stroke:#fff;stroke-width:2" d="M633,42 l0,369" /><path style="fill:none;stroke:#fff;stroke-width:2" d="M373,42 l0,369" /><path style="fill:#7f7f7f" d="M689,373 l-12,-12 0,-214 12,-12 152,0 12,12 0,214 -12,12 -152,0z" /><path style="fill:#7f7f7f" d="M441,373 l-12,-12 0,-214 12,-12 116,0 12,12 0,214 -12,12 -116,0z" /><path style="fill:#7f7f7f" d="M157,373 l-12,-12 0,-214 12,-12 152,0 12,12 0,214 -12,12 -152,0z" /><path style="fill:#333" d="M695,369 l-12,-12 2,-208 12,-12 138,0 12,12 2,208 -12,12 -142,0z" /><path style="fill:#333" d="M447,369 l-12,-12 2,-208 12,-12 100,0 12,12 2,208 -12,12 -104,0z" /><path style="fill:#333" d="M163,369 l-12,-12 0,-208 12,-12 140,0 12,12 2,208 -12,12 -142,0z" /><path style="fill:none;stroke:#b2b2b2;stroke-width:2" d="M733,311 l84,-110" /><path style="fill:none;stroke:#b2b2b2;stroke-width:2" d="M743,259 l58,-72" /><path style="fill:none;stroke:#b2b2b2;stroke-width:2" d="M723,191 l32,-36" /><path style="fill:none;stroke:#b2b2b2;stroke-width:2" d="M457,311 l84,-110" /><path style="fill:none;stroke:#b2b2b2;stroke-width:2" d="M467,259 l58,-72" /><path style="fill:none;stroke:#b2b2b2;stroke-width:2" d="M447,191 l32,-36" /><path style="fill:none;stroke:#b2b2b2;stroke-width:2" d="M201,311 l82,-110" /><path style="fill:none;stroke:#b2b2b2;stroke-width:2" d="M211,259 l56,-72" /><path style="fill:none;stroke:#b2b2b2;stroke-width:2" d="M189,191 l32,-36" /><path style="fill:#7f7fcc" d="M67,25 l864,0 0,5 -864,0 0,-5z" /><path style="fill:#7f7fcc" d="M67,3 l864,0 0,7 -864,0 0,-7z" /><path style="fill:#7f7f7f" d="M597,233 l6,0 0,42 -6,0 0,-42z" /></svg>