<!DOCTYPE svg PUBLIC "-//W3C//DTD SVG 20000303 Stylable//EN" "http://www.w3.org/TR/2000/03/WD-SVG-20000303/DTD/svg-20000303-stylable.dtd"[]><svg xmlns="http://www.w3.org/2000/svg" width="957px" height="999px" viewBox="0 0 954 999"><path style="fill:#7f7f7f" d="M85,999 l0,-130 -54,-130 -31,0 0,-196 954,0 0,456 -869,0z" /><path style="fill:#7a7a7a" d="M85,999 l0,-130 -24,-62 893,-192 0,384 -869,0z" /><path style="fill:#757575" d="M85,999 l0,-130 -10,-24 879,-200 0,354 -869,0z" /><path style="fill:#707070" d="M85,999 l0,-122 869,-194 0,316 -869,0z" /><path style="fill:#4c4c4c" d="M673,999 l0,-32 20,-22 22,22 0,32 -42,0z" /><path style="fill:#7f7f7f;stroke:#4c4c4c;stroke-width:2" d="M629,543 l0,-543 158,0 36,27 34,55 25,77 19,94 9,104 0,184 -281,2z" /><circle style="fill:#999" cx="780" cy="260" r="65" /><path style="fill:#999" d="M325,0 l304,0 0,303 -304,0 0,-303z" /><path style="fill:#949494" d="M325,215 l304,-128 0,216 -304,0 0,-88z" /><path style="fill:#8f8f8f" d="M325,227 l304,-126 0,202 -304,0 0,-76z" /><path style="fill:#8a8a8a" d="M325,247 l304,-128 0,184 -304,0 0,-56z" /><path style="fill:none;stroke:#4c4c4c;stroke-width:2" d="M325,0 l304,0 0,303 -304,0 0,-303" /><path style="fill:none;stroke:#b2b2b2;stroke-width:2" d="M367,287 l44,0 0,-266" /><path style="fill:none;stroke:#4c4c4c;stroke-width:2" d="M367,287 l0,-266 44,0" /><path style="fill:none;stroke:#b2b2b2;stroke-width:2" d="M455,287 l44,0 0,-266" /><path style="fill:none;stroke:#4c4c4c;stroke-width:2" d="M455,287 l0,-266 44,0" /><path style="fill:none;stroke:#b2b2b2;stroke-width:2" d="M541,287 l44,0 0,-266" /><path style="fill:none;stroke:#4c4c4c;stroke-width:2" d="M541,287 l0,-266 44,0" /><path style="fill:#999" d="M347,217 l260,0 0,260 -260,0 0,-260z" /><path style="fill:none;stroke:#e5e5e5;stroke-width:2" d="M347,477 l0,-260 260,0" /><path style="fill:none;stroke:#4c4c4c;stroke-width:2" d="M347,477 l260,0 0,-260" /><path style="fill:#7f7f7f" d="M499,369 l22,0 0,108 -22,0 0,-108z" /><path style="fill:#333" d="M325,303 l304,0 0,240 -304,0 0,-240z" /><path style="fill:#919191" d="M85,477 l240,0 0,-282 -240,0 0,282z" /><path style="fill:#999" d="M85,477 l174,-66 66,-216 -240,0 0,282z" /><path style="fill:none;stroke:#4c4c4c;stroke-width:2" d="M85,477 l240,0 0,-282 -240,0 0,282" /><path style="fill:none;stroke:#4c4c4c;stroke-width:2" d="M85,999 l0,-130 -54,-130 -31,0 0,-196 954,0 0,456 -869,0" /><path style="fill:#b2b2b2;stroke:#4c4c4c;stroke-width:2" d="M21,477 l64,0 0,-304 -64,0 0,304z" /><path style="fill:none;stroke:#b2b2b2;stroke-width:2" d="M435,845 l-16,-16 -12,-20 -6,-22 0,-22 6,-22 12,-20 16,-16 20,-12 22,-6 22,0 22,6 20,12" /><path style="fill:none;stroke:#4c4c4c;stroke-width:2" d="M541,707 l16,16" /><path style="fill:none;stroke:#4c4c4c;stroke-width:2" d="M557,829 l-16,16 -20,12 -22,6 -22,0 -24,-6 -18,-12" /><path style="fill:none;stroke:#b2b2b2;stroke-width:2" d="M537,711 l16,16" /><path style="fill:none;stroke:#b2b2b2;stroke-width:2" d="M553,827 l-16,14 -18,10 -20,6 -22,0 -20,-6 -20,-10" /><path style="fill:none;stroke:#4c4c4c;stroke-width:2" d="M437,841 l-14,-16 -12,-18 -4,-20 0,-22 4,-20 12,-18 14,-16 20,-10 20,-6 22,0 20,6 18,10" /><path style="fill:none;stroke:#b2b2b2;stroke-width:2" d="M591,741 l8,8 6,10 2,12 0,10 -2,12 -6,10 -8,8 -10,6 -12,2 -12,0 -10,-2 -10,-6" /><path style="fill:none;stroke:#4c4c4c;stroke-width:2" d="M537,811 l-8,-8 -6,-10 -2,-12 0,-10 2,-12 6,-10 8,-8 10,-6 10,-2 12,0 12,2 10,6" /><path style="fill:none;stroke:#b2b2b2;stroke-width:2" d="M533,815 l-8,-10 -6,-10 -4,-12 0,-14 4,-12 6,-10 8,-10 12,-6 12,-4 14,0 12,4 10,6" /><path style="fill:none;stroke:#4c4c4c;stroke-width:2" d="M593,737 l10,10 6,10 4,12 0,14 -4,12 -6,10 -10,10 -10,6 -12,4 -14,0 -12,-4 -12,-6" /><path style="fill:none;stroke:#b2b2b2;stroke-width:2" d="M901,695 l0,48 -148,0" /><path style="fill:none;stroke:#4c4c4c;stroke-width:2" d="M901,695 l-148,0 0,48" /><path style="fill:#7f7f7f;stroke:#4c4c4c;stroke-width:2" d="M21,477 l592,0 0,66 -592,0 0,-66z" /><circle style="fill:#ccc;stroke:#4c4c4c;stroke-width:2" cx="292" cy="597" r="45" /><path style="fill:#b2b2b2;stroke:#666;stroke-width:2" d="M285,585 l58,-210 16,4 -56,212 212,56 -4,18 -212,-56 -58,210 -18,-4 58,-212 -212,-56 4,-18 212,56z" /><circle style="fill:#ccc" cx="738" cy="390" r="87" /><circle style="fill:#7f7f7f" cx="737" cy="390" r="72" /><path style="fill:#ccc" d="M709,307 l12,-2 46,168 -14,2 -44,-168z" /><path style="fill:#ccc" d="M655,419 l-4,-12 168,-46 4,14 -168,44z" /><circle style="fill:#ccc;stroke:#4c4c4c;stroke-width:2" cx="694" cy="86" r="21" /><path style="fill:#7f7f7f" d="M715,565 l0,64 -86,0 0,-64 86,0z" /><path style="fill:#999" d="M711,565 l0,64 -78,0 0,-64 78,0z" /><path style="fill:#b2b2b2" d="M701,565 l0,64 -58,0 0,-64 58,0z" /><path style="fill:#ccc" d="M691,565 l0,64 -38,0 0,-64 38,0z" /><path style="fill:#e5e5e5" d="M685,565 l0,64 -26,0 0,-64 26,0z" /><path style="fill:#fff" d="M677,565 l0,64 -10,0 0,-64 10,0z" /><path style="fill:none;stroke:#666;stroke-width:2" d="M629,629 l86,0" /><path style="fill:none;stroke:#b2b2b2;stroke-width:2" d="M651,179 l0,-50 146,0" /><path style="fill:none;stroke:#4c4c4c;stroke-width:2" d="M651,179 l146,0 0,-50" /><path style="fill:#8c8c8c;stroke:#4c4c4c;stroke-width:2" d="M607,477 l0,88 66,0 22,-22 64,0 0,-66 -152,0z" /><path style="fill:none;stroke:#b2b2b2;stroke-width:2" d="M721,673 l0,-114 212,0" /><path style="fill:none;stroke:#4c4c4c;stroke-width:2" d="M721,673 l212,0 0,-114" /></svg>