<!DOCTYPE svg PUBLIC "-//W3C//DTD SVG 20000303 Stylable//EN" "http://www.w3.org/TR/2000/03/WD-SVG-20000303/DTD/svg-20000303-stylable.dtd"[]><svg xmlns="http://www.w3.org/2000/svg" width="998px" height="998px" viewBox="0 0 999 999"><path style="fill:#ccc;stroke:#4c4c4c;stroke-width:2" d="M498,500 l0,-477 44,-21 -22,21 -22,477z" /><path style="fill:#ccc;stroke:#4c4c4c;stroke-width:2" d="M498,500 l-42,-475 42,-25 -20,23 20,477z" /><path style="fill:#ccc;stroke:#4c4c4c;stroke-width:2" d="M498,500 l-81,-469 37,-29 -17,25 61,473z" /><path style="fill:#ccc;stroke:#4c4c4c;stroke-width:2" d="M498,500 l-123,-461 36,-32 -14,26 101,467z" /><path style="fill:#ccc;stroke:#4c4c4c;stroke-width:2" d="M498,500 l-162,-449 33,-34 -13,28 142,455z" /><path style="fill:#ccc;stroke:#4c4c4c;stroke-width:2" d="M498,500 l-200,-433 30,-38 -10,30 180,441z" /><path style="fill:#ccc;stroke:#4c4c4c;stroke-width:2" d="M498,500 l-237,-414 27,-39 -7,30 217,423z" /><path style="fill:#ccc;stroke:#4c4c4c;stroke-width:2" d="M498,500 l-273,-392 24,-41 -6,30 255,403z" /><path style="fill:#ccc;stroke:#4c4c4c;stroke-width:2" d="M498,500 l-305,-366 18,-44 -2,30 289,380z" /><path style="fill:#ccc;stroke:#4c4c4c;stroke-width:2" d="M498,500 l-336,-338 15,-46 0,32 321,352z" /><path style="fill:#ccc;stroke:#4c4c4c;stroke-width:2" d="M498,500 l-364,-307 12,-47 2,30 350,324z" /><path style="fill:#ccc;stroke:#4c4c4c;stroke-width:2" d="M498,500 l-390,-273 8,-50 6,32 376,291z" /><path style="fill:#ccc;stroke:#4c4c4c;stroke-width:2" d="M498,500 l-412,-239 2,-48 9,30 401,257z" /><path style="fill:#ccc;stroke:#4c4c4c;stroke-width:2" d="M498,500 l-431,-202 0,-49 10,30 421,221z" /><path style="fill:#ccc;stroke:#4c4c4c;stroke-width:2" d="M498,500 l-447,-164 -6,-48 14,28 439,184z" /><path style="fill:#ccc;stroke:#4c4c4c;stroke-width:2" d="M498,500 l-459,-125 -10,-47 16,28 453,144z" /><path style="fill:#ccc;stroke:#4c4c4c;stroke-width:2" d="M498,500 l-469,-83 -14,-48 18,26 465,105z" /><path style="fill:#ccc;stroke:#4c4c4c;stroke-width:2" d="M498,500 l-473,-42 -18,-45 20,24 471,63z" /><path style="fill:#ccc;stroke:#4c4c4c;stroke-width:2" d="M498,500 l-475,0 -21,-44 21,22 475,22z" /><path style="fill:#ccc;stroke:#4c4c4c;stroke-width:2" d="M498,500 l-473,42 -25,-42 23,20 475,-20z" /><path style="fill:#ccc;stroke:#4c4c4c;stroke-width:2" d="M498,500 l-469,81 -27,-37 23,17 473,-61z" /><path style="fill:#ccc;stroke:#4c4c4c;stroke-width:2" d="M498,500 l-459,123 -32,-36 26,14 465,-101z" /><path style="fill:#ccc;stroke:#4c4c4c;stroke-width:2" d="M498,500 l-447,162 -36,-33 28,13 455,-142z" /><path style="fill:#ccc;stroke:#4c4c4c;stroke-width:2" d="M498,500 l-431,200 -38,-30 30,10 439,-180z" /><path style="fill:#ccc;stroke:#4c4c4c;stroke-width:2" d="M498,500 l-412,237 -41,-27 30,7 423,-217z" /><path style="fill:#ccc;stroke:#4c4c4c;stroke-width:2" d="M498,500 l-390,273 -41,-24 30,6 401,-255z" /><path style="fill:#ccc;stroke:#4c4c4c;stroke-width:2" d="M498,500 l-364,305 -44,-18 30,2 378,-289z" /><path style="fill:#ccc;stroke:#4c4c4c;stroke-width:2" d="M498,500 l-336,336 -46,-15 30,0 352,-321z" /><path style="fill:#ccc;stroke:#4c4c4c;stroke-width:2" d="M498,500 l-305,364 -47,-12 30,-2 322,-350z" /><path style="fill:#ccc;stroke:#4c4c4c;stroke-width:2" d="M498,500 l-273,390 -48,-8 30,-6 291,-376z" /><path style="fill:#ccc;stroke:#4c4c4c;stroke-width:2" d="M498,500 l-237,412 -48,-2 30,-9 255,-401z" /><path style="fill:#ccc;stroke:#4c4c4c;stroke-width:2" d="M498,500 l-200,431 -49,0 30,-10 219,-421z" /><path style="fill:#ccc;stroke:#4c4c4c;stroke-width:2" d="M498,500 l-162,447 -48,6 28,-14 182,-439z" /><path style="fill:#ccc;stroke:#4c4c4c;stroke-width:2" d="M498,500 l-123,459 -47,10 26,-16 144,-453z" /><path style="fill:#ccc;stroke:#4c4c4c;stroke-width:2" d="M498,500 l-81,469 -48,14 26,-18 103,-465z" /><path style="fill:#ccc;stroke:#4c4c4c;stroke-width:2" d="M498,500 l-42,473 -43,18 22,-20 63,-471z" /><path style="fill:#ccc;stroke:#4c4c4c;stroke-width:2" d="M498,500 l0,475 -42,21 20,-21 22,-475z" /><path style="fill:#ccc;stroke:#4c4c4c;stroke-width:2" d="M498,500 l42,473 -40,26 18,-24 -20,-475z" /><path style="fill:#ccc;stroke:#4c4c4c;stroke-width:2" d="M498,500 l83,469 -37,27 15,-23 -61,-473z" /><path style="fill:#ccc;stroke:#4c4c4c;stroke-width:2" d="M498,500 l125,459 -38,32 16,-26 -103,-465z" /><path style="fill:#ccc;stroke:#4c4c4c;stroke-width:2" d="M498,500 l164,447 -33,36 11,-28 -142,-455z" /><path style="fill:#ccc;stroke:#4c4c4c;stroke-width:2" d="M498,500 l202,431 -30,38 10,-30 -182,-439z" /><path style="fill:#ccc;stroke:#4c4c4c;stroke-width:2" d="M498,500 l239,412 -27,41 7,-30 -219,-423z" /><path style="fill:#ccc;stroke:#4c4c4c;stroke-width:2" d="M498,500 l273,390 -22,41 4,-30 -255,-401z" /><path style="fill:#ccc;stroke:#4c4c4c;stroke-width:2" d="M498,500 l307,364 -20,44 4,-30 -291,-378z" /><path style="fill:#ccc;stroke:#4c4c4c;stroke-width:2" d="M498,500 l338,336 -15,46 0,-30 -323,-352z" /><path style="fill:#ccc;stroke:#4c4c4c;stroke-width:2" d="M498,500 l366,305 -12,47 -2,-30 -352,-322z" /><path style="fill:#ccc;stroke:#4c4c4c;stroke-width:2" d="M498,500 l392,273 -8,48 -6,-30 -378,-291z" /><path style="fill:#ccc;stroke:#4c4c4c;stroke-width:2" d="M498,500 l414,237 -4,48 -8,-30 -402,-255z" /><path style="fill:#ccc;stroke:#4c4c4c;stroke-width:2" d="M498,500 l433,200 0,49 -10,-30 -423,-219z" /><path style="fill:#ccc;stroke:#4c4c4c;stroke-width:2" d="M498,500 l449,162 4,48 -12,-28 -441,-182z" /><path style="fill:#ccc;stroke:#4c4c4c;stroke-width:2" d="M498,500 l461,123 10,47 -16,-26 -455,-144z" /><path style="fill:#ccc;stroke:#4c4c4c;stroke-width:2" d="M498,500 l469,81 16,48 -18,-26 -467,-103z" /><path style="fill:#ccc;stroke:#4c4c4c;stroke-width:2" d="M498,500 l475,42 18,43 -20,-22 -473,-63z" /><path style="fill:#ccc;stroke:#4c4c4c;stroke-width:2" d="M498,500 l477,0 21,42 -21,-20 -477,-22z" /><path style="fill:#ccc;stroke:#4c4c4c;stroke-width:2" d="M498,500 l475,-42 26,40 -24,-18 -477,20z" /><path style="fill:#ccc;stroke:#4c4c4c;stroke-width:2" d="M498,500 l469,-83 29,37 -25,-15 -473,61z" /><path style="fill:#ccc;stroke:#4c4c4c;stroke-width:2" d="M498,500 l461,-125 32,38 -26,-16 -467,103z" /><path style="fill:#ccc;stroke:#4c4c4c;stroke-width:2" d="M498,500 l449,-164 34,33 -28,-11 -455,142z" /><path style="fill:#ccc;stroke:#4c4c4c;stroke-width:2" d="M498,500 l433,-202 38,30 -30,-10 -441,182z" /><path style="fill:#ccc;stroke:#4c4c4c;stroke-width:2" d="M498,500 l414,-239 39,27 -30,-7 -423,219z" /><path style="fill:#ccc;stroke:#4c4c4c;stroke-width:2" d="M498,500 l392,-273 41,22 -30,-4 -403,255z" /><path style="fill:#ccc;stroke:#4c4c4c;stroke-width:2" d="M498,500 l366,-307 44,20 -30,-4 -380,291z" /><path style="fill:#ccc;stroke:#4c4c4c;stroke-width:2" d="M498,500 l338,-338 46,15 -32,0 -352,323z" /><path style="fill:#ccc;stroke:#4c4c4c;stroke-width:2" d="M498,500 l307,-366 47,12 -30,2 -324,352z" /><path style="fill:#ccc;stroke:#4c4c4c;stroke-width:2" d="M498,500 l273,-392 50,8 -32,6 -291,378z" /><path style="fill:#ccc;stroke:#4c4c4c;stroke-width:2" d="M498,500 l239,-414 48,4 -30,8 -257,402z" /><path style="fill:#ccc;stroke:#4c4c4c;stroke-width:2" d="M498,500 l202,-433 49,0 -30,10 -221,423z" /><path style="fill:#ccc;stroke:#4c4c4c;stroke-width:2" d="M498,500 l164,-449 48,-4 -28,12 -184,441z" /><path style="fill:#ccc;stroke:#4c4c4c;stroke-width:2" d="M498,500 l125,-461 47,-10 -28,16 -144,455z" /><path style="fill:#ccc;stroke:#4c4c4c;stroke-width:2" d="M498,500 l83,-469 48,-16 -26,18 -105,467z" /><path style="fill:#ccc;stroke:#4c4c4c;stroke-width:2" d="M498,500 l42,-475 45,-18 -24,20 -63,473z" /><circle style="fill:#e5e5e5;stroke:#7f7f7f;stroke-width:2" cx="499" cy="499" r="476" /><path style="fill:#dedede" d="M498,498 l-453,61 0,-120 30,-115 61,-105 85,-83 103,-61 115,-30 120,0 -61,453 455,-59 0,120 -32,115 -59,103 -85,85 -103,59 -115,32 -120,0 59,-455z" /><path style="fill:#d6d6d6" d="M75,324 l61,-105 85,-83 103,-61 174,423 423,176 -59,103 -85,85 -103,59 -176,-423 -423,-174z" /><path style="fill:#ccc" d="M136,219 l85,-83 277,362 364,279 -85,85 -279,-364 -362,-279z" /><circle style="fill:#333" cx="499" cy="499" r="21" /></svg>