<!DOCTYPE svg PUBLIC "-//W3C//DTD SVG 20000303 Stylable//EN" "http://www.w3.org/TR/2000/03/WD-SVG-20000303/DTD/svg-20000303-stylable.dtd"[]><svg xmlns="http://www.w3.org/2000/svg" width="999px" height="446px" viewBox="0 0 999 413"><path style="fill:#98b27f;stroke:#4c4c4c;stroke-width:2" d="M61,0 l30,0 0,163 -30,0 0,-163z" /><path style="fill:#193300" d="M97,326 l778,-20 0,-36 -778,0 0,56z" /><path style="fill:#b2cc99" d="M97,169 l149,0 0,101 -149,0 0,-101z" /><path style="fill:#adc794" d="M97,218 l149,-40 0,92 -149,0 0,-52z" /><path style="fill:#a8c28f" d="M97,234 l149,-41 0,77 -149,0 0,-36z" /><path style="fill:#a3bd8a" d="M97,250 l149,-42 0,62 -149,0 0,-20z" /><path style="fill:#b2cc99" d="M246,169 l151,0 0,101 -151,0 0,-101z" /><path style="fill:#adc794" d="M246,218 l151,-40 0,92 -151,0 0,-52z" /><path style="fill:#a8c28f" d="M246,234 l151,-41 0,77 -151,0 0,-36z" /><path style="fill:#a3bd8a" d="M246,250 l151,-42 0,62 -151,0 0,-20z" /><path style="fill:#b2cc99" d="M397,169 l150,0 0,101 -150,0 0,-101z" /><path style="fill:#adc794" d="M397,218 l150,-40 0,92 -150,0 0,-52z" /><path style="fill:#a8c28f" d="M397,234 l150,-41 0,77 -150,0 0,-36z" /><path style="fill:#a3bd8a" d="M397,250 l150,-42 0,62 -150,0 0,-20z" /><path style="fill:#b2cc99" d="M547,169 l151,0 0,101 -151,0 0,-101z" /><path style="fill:#adc794" d="M547,218 l151,-40 0,92 -151,0 0,-52z" /><path style="fill:#a8c28f" d="M547,234 l151,-41 0,77 -151,0 0,-36z" /><path style="fill:#a3bd8a" d="M547,250 l151,-42 0,62 -151,0 0,-20z" /><path style="fill:#b2cc99" d="M698,169 l149,0 0,101 -149,0 0,-101z" /><path style="fill:#adc794" d="M698,218 l149,-40 0,92 -149,0 0,-52z" /><path style="fill:#a8c28f" d="M698,234 l149,-41 0,77 -149,0 0,-36z" /><path style="fill:#a3bd8a" d="M698,250 l149,-42 0,62 -149,0 0,-20z" /><path style="fill:#b2cc99" d="M847,169 l152,0 0,101 -152,0 0,-101z" /><path style="fill:#adc794" d="M847,218 l152,-40 0,92 -152,0 0,-52z" /><path style="fill:#a8c28f" d="M847,234 l152,-41 0,77 -152,0 0,-36z" /><path style="fill:#a3bd8a" d="M847,250 l152,-42 0,62 -152,0 0,-20z" /><path style="fill:#7f9966" d="M15,300 l984,0 0,-30 -984,0 0,30z" /><path style="fill:#b2cc99" d="M15,163 l82,0 0,250 -82,0 0,-250z" /><path style="fill:#adc794" d="M15,274 l82,-20 0,159 -82,0 0,-139z" /><path style="fill:#a8c28f" d="M15,304 l82,-22 0,131 -82,0 0,-109z" /><path style="fill:#a3bd8a" d="M15,332 l82,-22 0,103 -82,0 0,-81z" /><path style="fill:#98b27f" d="M97,326 l902,0 0,87 -902,0 0,-87z" /><path style="fill:#91ab78" d="M768,326 l231,0 0,87 -605,0 374,-87z" /><path style="fill:none;stroke:#4c4c4c;stroke-width:2" d="M97,326 l902,0 0,87 -902,0 0,-87" /><path style="fill:#b2cc99;stroke:#4c4c4c;stroke-width:2" d="M879,101 l42,0 0,66 -42,0 0,-66z" /><path style="fill:#7f9966" d="M891,61 l20,0 0,40 -20,0 0,-40z" /><path style="fill:#91ab78" d="M893,61 l16,0 0,40 -16,0 0,-40z" /><path style="fill:#a5bf8c" d="M895,61 l12,0 0,40 -12,0 0,-40z" /><path style="fill:#b7d19e" d="M897,61 l8,0 0,40 -8,0 0,-40z" /><path style="fill:#cbe5b2" d="M899,61 l4,0 0,40 -4,0 0,-40z" /><path style="fill:none;stroke:#4c4c4c;stroke-width:2" d="M891,61 l20,0 0,40 -20,0 0,-40" /><path style="fill:#193300" d="M123,372 l30,0 0,22 -30,0 0,-22z" /><path style="fill:#193300" d="M286,372 l32,0 0,22 -32,0 0,-22z" /><path style="fill:#193300" d="M449,372 l32,0 0,22 -32,0 0,-22z" /><path style="fill:#193300" d="M614,372 l30,0 0,22 -30,0 0,-22z" /><path style="fill:#193300" d="M778,372 l32,0 0,22 -32,0 0,-22z" /><path style="fill:#193300" d="M941,372 l32,0 0,22 -32,0 0,-22z" /><path style="fill:#193300" d="M183,188 l10,0 0,10 -10,0 0,-10z" /><path style="fill:#193300" d="M203,218 l8,0 0,10 -8,0 0,-10z" /><path style="fill:#193300" d="M145,188 l10,0 0,10 -10,0 0,-10z" /><path style="fill:#193300" d="M127,218 l8,0 0,10 -8,0 0,-10z" /><path style="fill:#193300" d="M220,250 l10,0 0,10 -10,0 0,-10z" /><path style="fill:#193300" d="M107,250 l10,0 0,10 -10,0 0,-10z" /><path style="fill:#193300" d="M334,188 l10,0 0,10 -10,0 0,-10z" /><path style="fill:#193300" d="M354,218 l8,0 0,10 -8,0 0,-10z" /><path style="fill:#193300" d="M296,188 l10,0 0,10 -10,0 0,-10z" /><path style="fill:#193300" d="M278,218 l8,0 0,10 -8,0 0,-10z" /><path style="fill:#193300" d="M372,250 l10,0 0,10 -10,0 0,-10z" /><path style="fill:#193300" d="M258,250 l10,0 0,10 -10,0 0,-10z" /><path style="fill:#193300" d="M485,188 l10,0 0,10 -10,0 0,-10z" /><path style="fill:#193300" d="M505,218 l10,0 0,10 -10,0 0,-10z" /><path style="fill:#193300" d="M447,188 l10,0 0,10 -10,0 0,-10z" /><path style="fill:#193300" d="M429,218 l10,0 0,10 -10,0 0,-10z" /><path style="fill:#193300" d="M523,250 l10,0 0,10 -10,0 0,-10z" /><path style="fill:#193300" d="M410,250 l10,0 0,10 -10,0 0,-10z" /><path style="fill:#193300" d="M636,188 l10,0 0,10 -10,0 0,-10z" /><path style="fill:#193300" d="M656,218 l10,0 0,10 -10,0 0,-10z" /><path style="fill:#193300" d="M598,188 l10,0 0,10 -10,0 0,-10z" /><path style="fill:#193300" d="M581,218 l10,0 0,10 -10,0 0,-10z" /><path style="fill:#193300" d="M674,250 l10,0 0,10 -10,0 0,-10z" /><path style="fill:#193300" d="M561,250 l10,0 0,10 -10,0 0,-10z" /><path style="fill:#193300" d="M790,188 l7,0 0,10 -7,0 0,-10z" /><path style="fill:#193300" d="M807,218 l10,0 0,10 -10,0 0,-10z" /><path style="fill:#193300" d="M752,188 l8,0 0,10 -8,0 0,-10z" /><path style="fill:#193300" d="M732,218 l10,0 0,10 -10,0 0,-10z" /><path style="fill:#193300" d="M827,250 l8,0 0,10 -8,0 0,-10z" /><path style="fill:#193300" d="M712,250 l10,0 0,10 -10,0 0,-10z" /><path style="fill:#193300" d="M941,188 l10,0 0,10 -10,0 0,-10z" /><path style="fill:#193300" d="M959,218 l10,0 0,10 -10,0 0,-10z" /><path style="fill:#193300" d="M903,188 l10,0 0,10 -10,0 0,-10z" /><path style="fill:#193300" d="M883,218 l10,0 0,10 -10,0 0,-10z" /><path style="fill:#193300" d="M978,250 l10,0 0,10 -10,0 0,-10z" /><path style="fill:#193300" d="M865,250 l8,0 0,10 -8,0 0,-10z" /><path style="fill:none;stroke:#e5ffcc;stroke-width:2" d="M25,403 l0,-61 62,0" /><path style="fill:none;stroke:#7f9966;stroke-width:2" d="M87,342 l0,61 -62,0" /><path style="fill:none;stroke:#7f9966;stroke-width:2" d="M246,270 l0,-101" /><path style="fill:none;stroke:#7f9966;stroke-width:2" d="M397,270 l0,-101" /><path style="fill:none;stroke:#7f9966;stroke-width:2" d="M547,270 l0,-101" /><path style="fill:none;stroke:#7f9966;stroke-width:2" d="M698,270 l0,-101" /><path style="fill:none;stroke:#7f9966;stroke-width:2" d="M847,270 l0,-101" /><path style="fill:none;stroke:#4c4c4c;stroke-width:2" d="M97,167 l902,0 0,133 -902,0 0,-133" /><path style="fill:none;stroke:#4c4c4c;stroke-width:2" d="M15,163 l82,0 0,250 -82,0 0,-250" /><path style="fill:#b2cc99" d="M0,147 l81,0 0,143 -81,0 0,-143z" /><path style="fill:#adc794" d="M0,211 l81,-10 0,89 -81,0 0,-79z" /><path style="fill:#a8c28f" d="M0,228 l81,-12 0,74 -81,0 0,-62z" /><path style="fill:#a3bd8a" d="M0,244 l81,-12 0,58 -81,0 0,-46z" /><path style="fill:none;stroke:#4c4c4c;stroke-width:2" d="M0,147 l81,0 0,143 -81,0 0,-143" /></svg>