<!DOCTYPE svg PUBLIC "-//W3C//DTD SVG 20000303 Stylable//EN" "http://www.w3.org/TR/2000/03/WD-SVG-20000303/DTD/svg-20000303-stylable.dtd"[]><svg xmlns="http://www.w3.org/2000/svg" width="999px" height="684px" viewBox="0 0 999 665"><path style="fill:#9cc" d="M0,0 l999,0 0,81 -999,0 0,-81z" /><path style="fill:#9cc;stroke:#4c4c4c;stroke-width:2" d="M415,81 l168,0 0,84 -168,0 0,-84z" /><path style="fill:#9cc;stroke:#4c4c4c;stroke-width:2" d="M457,165 l84,0 0,42 -84,0 0,-42z" /><path style="fill:none;stroke:#4c4c4c;stroke-width:2" d="M0,0 l999,0" /><path style="fill:none;stroke:#4c4c4c;stroke-width:2" d="M999,81 l-999,0" /><path style="fill:none;stroke:#4c4c4c;stroke-width:2" d="M457,207 l-292,374" /><path style="fill:none;stroke:#4c4c4c;stroke-width:2" d="M541,207 l292,374" /><path style="fill:none;stroke:#4c4c4c;stroke-width:2" d="M479,207 l-106,458" /><path style="fill:none;stroke:#4c4c4c;stroke-width:2" d="M519,207 l104,458" /><path style="fill:none;stroke:#4c4c4c;stroke-width:2" d="M541,415 l-42,-208" /><path style="fill:none;stroke:#4c4c4c;stroke-width:2" d="M603,393 l-84,-186" /><path style="fill:none;stroke:#4c4c4c;stroke-width:2" d="M395,373 l84,-166" /></svg>