<!DOCTYPE svg PUBLIC "-//W3C//DTD SVG 20000303 Stylable//EN" "http://www.w3.org/TR/2000/03/WD-SVG-20000303/DTD/svg-20000303-stylable.dtd"[]><svg xmlns="http://www.w3.org/2000/svg" width="880px" height="999px" viewBox="0 0 873 999"><path style="fill:#666;stroke:#4c4c4c;stroke-width:2" d="M88,505 l697,0 0,234 -697,0 0,-234z" /><path style="fill:#999;stroke:#4c4c4c;stroke-width:2" d="M30,962 l74,-109 665,0 72,109 -811,0z" /><path style="fill:#b2b2b2;stroke:#4c4c4c;stroke-width:2" d="M20,962 l833,0 0,15 -833,0 0,-15z" /><path style="fill:#7f7f7f;stroke:#4c4c4c;stroke-width:2" d="M104,989 l0,-989 665,0 0,989 -665,0z" /><path style="fill:#666" d="M165,165 l542,0 0,584 -542,0 0,-584z" /><path style="fill:#333" d="M165,707 l542,0 0,42 -542,0 0,-42z" /><path style="fill:#333" d="M165,165 l542,0 0,42 -542,0 0,-42z" /><path style="fill:none;stroke:#4c4c4c;stroke-width:2" d="M165,165 l542,0 0,584 -542,0 0,-584" /><path style="fill:#666" d="M165,781 l542,0 0,208 -542,0 0,-208z" /><path style="fill:#616161" d="M165,929 l542,-88 0,148 -542,0 0,-60z" /><path style="fill:#5c5c5c" d="M165,937 l542,-88 0,140 -542,0 0,-52z" /><path style="fill:#575757" d="M165,949 l542,-87 0,127 -542,0 0,-40z" /><path style="fill:#4c4c4c" d="M165,781 l542,0 0,20 -542,0 0,-20z" /><path style="fill:none;stroke:#b2b2b2;stroke-width:2" d="M207,145 l0,-104 104,0" /><path style="fill:none;stroke:#b2b2b2;stroke-width:2" d="M561,145 l0,-104 104,0" /><path style="fill:#e54c00" d="M165,541 l542,0 0,42 -542,0 0,-42z" /><path style="fill:#f60" d="M188,519 l497,0 22,22 -542,0 23,-22z" /><path style="fill:#c30;stroke:#4c4c4c;stroke-width:2" d="M185,281 l84,0 0,-116 62,0 0,116 210,0 -2,-116 64,0 0,116 84,0 0,218 -502,0 0,-218z" /><path style="fill:none;stroke:#4c4c4c;stroke-width:2" d="M561,145 l104,0 0,-104" /><path style="fill:none;stroke:#4c4c4c;stroke-width:2" d="M207,145 l104,0 0,-104" /><circle style="fill:none;stroke:#666;stroke-width:2" cx="258" cy="92" r="31" /><circle style="fill:none;stroke:#666;stroke-width:2" cx="612" cy="92" r="31" /><path style="fill:#333" d="M211,136 l6,0 0,4 -6,0 0,-4z" /><path style="fill:#333" d="M211,45 l6,0 0,7 -6,0 0,-7z" /><path style="fill:#333" d="M299,45 l6,0 0,7 -6,0 0,-7z" /><path style="fill:#333" d="M299,136 l6,0 0,4 -6,0 0,-4z" /><path style="fill:#333" d="M565,136 l6,0 0,4 -6,0 0,-4z" /><path style="fill:#333" d="M565,45 l6,0 0,7 -6,0 0,-7z" /><path style="fill:#333" d="M655,45 l4,0 0,7 -4,0 0,-7z" /><path style="fill:#333" d="M655,136 l4,0 0,4 -4,0 0,-4z" /><path style="fill:#999" d="M207,821 l56,0 0,32 -56,0 0,-32z" /><path style="fill:#cc590d" d="M207,827 l56,0 0,6 -56,0 0,-6z" /><path style="fill:#000" d="M565,447 l12,0 0,52 -12,0 0,-52z" /><path style="fill:#000" d="M431,447 l10,0 0,52 -10,0 0,-52z" /><path style="fill:#000" d="M295,447 l10,0 0,52 -10,0 0,-52z" /><path style="fill:#000" d="M669,781 l16,0 0,10 -16,0 0,-10z" /><path style="fill:#000" d="M519,781 l16,0 0,10 -16,0 0,-10z" /><path style="fill:#000" d="M337,781 l16,0 0,10 -16,0 0,-10z" /><path style="fill:#000" d="M185,781 l16,0 0,10 -16,0 0,-10z" /><path style="fill:#000" d="M40,941 l9,0 0,21 -9,0 0,-21z" /><path style="fill:#000" d="M821,941 l10,0 0,21 -10,0 0,-21z" /><path style="fill:#e54c00;stroke:#4c4c4c;stroke-width:2" d="M207,281 l0,-16 332,0 0,16 -332,0z" /><path style="fill:#e54c00;stroke:#4c4c4c;stroke-width:2" d="M617,281 l-4,-16 16,-48 30,-52 26,0 0,116 -68,0z" /><path style="fill:#191919" d="M165,583 l36,0 0,104 -36,0 0,-104z" /><path style="fill:#191919" d="M671,583 l36,0 0,104 -36,0 0,-104z" /><path style="fill:#666;stroke:#4c4c4c;stroke-width:2" d="M415,165 l42,0 0,100 -42,0 0,-100z" /><path style="fill:#666;stroke:#4c4c4c;stroke-width:2" d="M727,124 l22,0 0,625 -22,0 0,-625z" /><path style="fill:#666;stroke:#4c4c4c;stroke-width:2" d="M124,124 l20,0 0,625 -20,0 0,-625z" /><path style="fill:#b2b2b2" d="M421,165 l30,0 0,100 -30,0 0,-100z" /><path style="fill:#b2b2b2" d="M731,124 l14,0 0,625 -14,0 0,-625z" /><path style="fill:#b2b2b2" d="M125,124 l16,0 0,625 -16,0 0,-625z" /><path style="fill:#e5e5e5" d="M431,165 l10,0 0,100 -10,0 0,-100z" /><path style="fill:#e5e5e5" d="M132,124 l5,0 0,625 -5,0 0,-625z" /><path style="fill:#e5e5e5" d="M735,124 l6,0 0,625 -6,0 0,-625z" /><path style="fill:#fc0" d="M753,519 l-26,0 0,-20 -582,0 0,20 -25,0 0,42 25,0 0,84 20,0 0,-126 542,0 0,42 46,0 0,-42z" /><path style="fill:#fc0" d="M117,687 l27,0 0,20 583,0 0,-20 26,0 0,-42 -26,0 0,-84 -20,0 0,126 -542,0 0,-42 -48,0 0,42z" /><path style="fill:none;stroke:#4c4c4c;stroke-width:2" d="M117,645 l0,42 27,0 0,20 583,0 0,-20 26,0 0,-42 -26,0 0,-84 26,0 0,-42 -26,0 0,-20 -582,0 0,20 -25,0 0,42 25,0 0,84 -28,0" /><path style="fill:none;stroke:#4c4c4c;stroke-width:2" d="M165,519 l542,0 0,168 -542,0 0,-168" /><path style="fill:none;stroke:#4c4c4c;stroke-width:2" d="M165,583 l542,0" /><path style="fill:#000" d="M104,989 l665,0 0,10 -665,0 0,-10z" /><path style="fill:none;stroke:#4c4c4c;stroke-width:2" d="M165,781 l542,0 0,208 -542,0 0,-208" /><path style="fill:#ffb27f;stroke:#4c4c4c;stroke-width:2" d="M779,977 l94,0 0,22 -94,0 0,-22z" /><path style="fill:#ffb27f;stroke:#4c4c4c;stroke-width:2" d="M0,977 l92,0 0,22 -92,0 0,-22z" /><path style="fill:#ffd9bf" d="M805,977 l42,0 0,22 -42,0 0,-22z" /><path style="fill:#ffd9bf" d="M26,977 l39,0 0,22 -39,0 0,-22z" /><path style="fill:#333;stroke:#999;stroke-width:2" d="M117,20 l84,0 0,104 -84,0 0,-104z" /><path style="fill:#333;stroke:#999;stroke-width:2" d="M669,20 l84,0 0,104 -84,0 0,-104z" /></svg>