<!DOCTYPE svg PUBLIC "-//W3C//DTD SVG 20000303 Stylable//EN" "http://www.w3.org/TR/2000/03/WD-SVG-20000303/DTD/svg-20000303-stylable.dtd"[]><svg xmlns="http://www.w3.org/2000/svg" width="999px" height="440px" viewBox="0 0 999 407"><path style="fill:#333;stroke:#4c4c4c;stroke-width:2" d="M129,391 l652,0 173,-88 45,0 0,-20 -45,0 -259,-66 0,-173 -44,0 0,-44 -44,0 0,131 -478,0 0,260z" /><path style="fill:#191919" d="M97,325 l0,-194 510,0 0,194 -510,0z" /><path style="fill:#333" d="M467,325 l0,-130 108,0 0,130 -108,0z" /><path style="fill:#4c4c4c" d="M66,22 l0,261 41,0 0,-44 328,0 0,44 42,0 0,-261 -42,0 0,44 -328,0 0,-44 -41,0z" /><path style="fill:#595959" d="M66,39 l0,224 43,0 0,-36 326,0 0,36 42,0 0,-224 -42,0 0,38 -326,0 0,-38 -43,0z" /><path style="fill:#666" d="M66,57 l0,188 43,0 0,-30 326,0 0,30 42,0 0,-188 -42,0 0,32 -326,0 0,-32 -43,0z" /><path style="fill:#737373" d="M66,75 l0,152 43,0 0,-24 326,0 0,24 42,0 0,-152 -42,0 0,27 -326,0 0,-27 -43,0z" /><path style="fill:#7f7f7f" d="M66,93 l0,116 43,0 0,-20 326,0 0,20 42,0 0,-116 -42,0 0,20 -326,0 0,-20 -43,0z" /><path style="fill:#8c8c8c" d="M66,111 l0,80 43,0 0,-12 326,0 0,12 42,0 0,-80 -42,0 0,14 -326,0 0,-14 -43,0z" /><path style="fill:#999" d="M66,129 l0,44 41,0 0,-6 328,0 0,6 42,0 0,-44 -42,0 0,8 -328,0 0,-8 -41,0z" /><path style="fill:none;stroke:#4c4c4c;stroke-width:2" d="M66,22 l0,261 41,0 0,-44 328,0 0,44 42,0 0,-261 -42,0 0,44 -328,0 0,-44 -41,0" /><path style="fill:#666" d="M44,283 l85,0 0,98 -85,0 0,-98z" /><path style="fill:#7f7f7f" d="M44,283 l85,0 0,54 -85,0 0,-54z" /><path style="fill:#999" d="M44,283 l85,0 0,32 -85,0 0,-32z" /><path style="fill:#b2b2b2" d="M44,283 l85,0 0,10 -85,0 0,-10z" /><path style="fill:none;stroke:#4c4c4c;stroke-width:2" d="M44,283 l85,0 0,98 -85,0 0,-98" /><path style="fill:#191919" d="M0,131 l66,0 0,42 -66,0 0,-42z" /><path style="fill:#7f7f7f" d="M31,131 l13,0 0,42 -13,0 0,-42z" /><path style="fill:none;stroke:#999;stroke-width:2" d="M433,383 l0,-36 56,0" /><path style="fill:none;stroke:#4c4c4c;stroke-width:2" d="M433,383 l56,0 0,-36" /><path style="fill:#4c4c4c;stroke:#4c4c4c;stroke-width:2" d="M129,391 l0,-250 294,0 0,250 -294,0z" /><path style="fill:#ccc" d="M315,369 l0,-32 86,0 0,32 -86,0z" /><path style="fill:none;stroke:#4c4c4c;stroke-width:2" d="M413,325 l-240,0 0,-174" /><path style="fill:none;stroke:#4c4c4c;stroke-width:2" d="M369,325 l0,-174" /><path style="fill:none;stroke:#4c4c4c;stroke-width:2" d="M173,325 l0,56" /><circle style="fill:none;stroke:#999;stroke-width:2" cx="651" cy="130" r="44" /><path style="fill:none;stroke:#999;stroke-width:2" d="M651,173 l0,-44" /><path style="fill:none;stroke:#999;stroke-width:2" d="M651,173 l0,-44" /><path style="fill:none;stroke:#999;stroke-width:2" d="M693,143 l-42,-14" /><path style="fill:none;stroke:#999;stroke-width:2" d="M677,95 l-26,34" /><path style="fill:none;stroke:#999;stroke-width:2" d="M625,95 l26,34" /><path style="fill:none;stroke:#999;stroke-width:2" d="M609,143 l42,-14" /><path style="fill:none;stroke:#999;stroke-width:2" d="M499,383 l0,-36 54,0" /><path style="fill:none;stroke:#4c4c4c;stroke-width:2" d="M499,383 l54,0 0,-36" /><path style="fill:none;stroke:#4c4c4c;stroke-width:2" d="M433,337 l446,0" /><path style="fill:#666" d="M629,293 l0,-10 325,0 0,10 -325,0z" /><path style="fill:#7f7f7f" d="M629,271 l0,-22 250,0 0,22 -250,0z" /><circle style="fill:none;stroke:#999;stroke-width:2" cx="662" cy="217" r="33" /><path style="fill:none;stroke:#999;stroke-width:2" d="M663,249 l0,-32" /><path style="fill:none;stroke:#999;stroke-width:2" d="M663,249 l0,-32" /><path style="fill:none;stroke:#999;stroke-width:2" d="M693,227 l-30,-10" /><path style="fill:none;stroke:#999;stroke-width:2" d="M681,191 l-18,26" /><path style="fill:none;stroke:#999;stroke-width:2" d="M643,191 l20,26" /><path style="fill:none;stroke:#999;stroke-width:2" d="M631,227 l32,-10" /><path style="fill:#666" d="M695,249 l0,-64 54,0 0,64 -54,0z" /><path style="fill:none;stroke:#666;stroke-width:2" d="M433,331 l446,0" /><path style="fill:none;stroke:#999;stroke-width:2" d="M601,407 l40,-146" /><path style="fill:none;stroke:#999;stroke-width:2" d="M547,315 l148,40" /><path style="fill:none;stroke:#999;stroke-width:2" d="M555,373 l132,-76" /><path style="fill:none;stroke:#999;stroke-width:2" d="M583,269 l76,132" /><circle style="fill:none;stroke:#999;stroke-width:2" cx="621" cy="334" r="54" /><path style="fill:none;stroke:#4c4c4c;stroke-width:2" d="M0,131 l66,0 0,42 -66,0 0,-42" /></svg>