<!DOCTYPE svg PUBLIC "-//W3C//DTD SVG 20000303 Stylable//EN" "http://www.w3.org/TR/2000/03/WD-SVG-20000303/DTD/svg-20000303-stylable.dtd"[]><svg xmlns="http://www.w3.org/2000/svg" width="763px" height="998px" viewBox="0 0 749 998"><path style="fill:#000;fill-rule:evenodd" d="M229,499 l0,-52 10,0 0,-32 52,0 0,-40 -104,0 0,124 42,0z M603,499 l0,-52 -10,0 0,-32 -52,0 0,-40 104,0 0,124 -42,0z M249,415 l6,0 0,84 -6,0 0,-84z M281,415 l4,0 0,84 -4,0 0,-84z M547,415 l4,0 0,84 -4,0 0,-84z M577,415 l6,0 0,84 -6,0 0,-84z " /><path style="fill:none;stroke:#4c4c4c;stroke-width:2" d="M229,499 l0,-52 10,0 0,-32 52,0 0,-40 -104,0 0,124 42,0" /><path style="fill:none;stroke:#4c4c4c;stroke-width:2" d="M603,499 l0,-52 -10,0 0,-32 -52,0 0,-40 104,0 0,124 -42,0" /><path style="fill:none;stroke:#4c4c4c;stroke-width:2" d="M249,415 l6,0 0,84 -6,0 0,-84" /><path style="fill:none;stroke:#4c4c4c;stroke-width:2" d="M281,415 l4,0 0,84 -4,0 0,-84" /><path style="fill:none;stroke:#4c4c4c;stroke-width:2" d="M547,415 l4,0 0,84 -4,0 0,-84" /><path style="fill:none;stroke:#4c4c4c;stroke-width:2" d="M577,415 l6,0 0,84 -6,0 0,-84" /><path style="fill:#696" d="M541,249 l42,0 0,-208 -42,0 0,208z" /><path style="fill:#696" d="M249,249 l42,0 0,-208 -42,0 0,208z" /><path style="fill:#598c59" d="M551,249 l22,0 0,-208 -22,0 0,208z" /><path style="fill:#598c59" d="M259,249 l22,0 0,-208 -22,0 0,208z" /><path style="fill:#333" d="M155,571 l10,0 0,188 -10,0 0,-188z" /><path style="fill:#696;stroke:#4c4c4c;stroke-width:2" d="M187,727 l458,0 0,22 -458,0 0,-22z" /><path style="fill:#363;stroke:#4c4c4c;stroke-width:2" d="M665,61 l84,0 0,438 -84,0 0,-438z" /><path style="fill:#363;stroke:#4c4c4c;stroke-width:2" d="M0,41 l165,0 0,458 -165,0 0,-458z" /><path style="fill:#3d703d" d="M667,93 l82,0 0,400 -82,0 0,-400z" /><path style="fill:#3d703d" d="M0,60 l167,0 0,429 -167,0 0,-429z" /><path style="fill:#477a47" d="M667,123 l82,0 0,362 -82,0 0,-362z" /><path style="fill:#477a47" d="M0,77 l167,0 0,400 -167,0 0,-400z" /><path style="fill:#528552" d="M667,155 l82,0 0,324 -82,0 0,-324z" /><path style="fill:#528552" d="M0,97 l167,0 0,370 -167,0 0,-370z" /><path style="fill:#5c8f5c" d="M667,187 l82,0 0,286 -82,0 0,-286z" /><path style="fill:#5c8f5c" d="M0,115 l167,0 0,342 -167,0 0,-342z" /><path style="fill:#696" d="M667,217 l82,0 0,250 -82,0 0,-250z" /><path style="fill:#696" d="M0,135 l167,0 0,312 -167,0 0,-312z" /><path style="fill:#70a370" d="M667,249 l82,0 0,212 -82,0 0,-212z" /><path style="fill:#70a370" d="M0,153 l167,0 0,284 -167,0 0,-284z" /><path style="fill:#7aad7a" d="M667,281 l82,0 0,174 -82,0 0,-174z" /><path style="fill:#7aad7a" d="M0,171 l167,0 0,254 -167,0 0,-254z" /><path style="fill:#85b885" d="M667,311 l82,0 0,138 -82,0 0,-138z" /><path style="fill:#85b885" d="M0,191 l167,0 0,224 -167,0 0,-224z" /><path style="fill:#8fc28f" d="M667,343 l82,0 0,100 -82,0 0,-100z" /><path style="fill:#8fc28f" d="M0,209 l167,0 0,196 -167,0 0,-196z" /><path style="fill:#9c9" d="M665,375 l84,0 0,62 -84,0 0,-62z" /><path style="fill:#9c9" d="M0,229 l165,0 0,166 -165,0 0,-166z" /><path style="fill:#70a370" d="M187,873 l0,-124 458,0 0,124 -42,0 -42,42 -290,0 -42,-42 -42,0z" /><path style="fill:#6b9e6b" d="M187,873 l0,-12 458,-82 0,94 -42,0 -42,42 -290,0 -42,-42 -42,0z" /><path style="fill:#696" d="M645,791 l0,82 -42,0 -42,42 -290,0 -42,-42 -22,0 438,-82z" /><path style="fill:none;stroke:#4c4c4c;stroke-width:2" d="M187,873 l0,-124 458,0 0,124 -42,0 -42,42 -290,0 -42,-42 -42,0" /><path style="fill:#ccc;stroke:#4c4c4c;stroke-width:2" d="M165,707 l500,0 0,22 -500,0 0,-22z" /><path style="fill:#696;stroke:#4c4c4c;stroke-width:2" d="M645,249 l20,0 0,749 -20,0 0,-749z" /><path style="fill:#696;stroke:#4c4c4c;stroke-width:2" d="M165,249 l22,0 0,749 -22,0 0,-749z" /><path style="fill:#ccc" d="M74,561 l81,0 0,208 -81,0 0,-208z" /><path style="fill:#c7c7c7" d="M74,667 l81,-42 0,144 -81,0 0,-102z" /><path style="fill:#c2c2c2" d="M74,687 l81,-42 0,124 -81,0 0,-82z" /><path style="fill:#bdbdbd" d="M74,707 l81,-42 0,104 -81,0 0,-62z" /><path style="fill:none;stroke:#4c4c4c;stroke-width:2" d="M74,561 l81,0 0,208 -81,0 0,-208" /><path style="fill:#696;stroke:#4c4c4c;stroke-width:2" d="M187,583 l458,0 0,20 -458,0 0,-20z" /><path style="fill:#73a673;stroke:#4c4c4c;stroke-width:2" d="M187,519 l458,0 0,64 -458,0 0,-64z" /><path style="fill:#696;stroke:#4c4c4c;stroke-width:2" d="M645,477 l0,42 -458,0 0,-42 20,22 42,0 62,-62 210,0 62,62 42,0 20,-22z" /><path style="fill:#73a673" d="M311,499 l210,0 0,42 -210,0 0,-42z" /><path style="fill:none;stroke:#363;stroke-width:2" d="M521,499 l0,42 -208,0" /><path style="fill:#75a875" d="M187,249 l458,0 0,126 -458,0 0,-126z" /><path style="fill:#70a370" d="M187,337 l458,-52 0,90 -458,0 0,-38z" /><path style="fill:#6b9e6b" d="M187,343 l458,-52 0,84 -458,0 0,-32z" /><path style="fill:#696" d="M187,351 l458,-52 0,76 -458,0 0,-24z" /><path style="fill:none;stroke:#4c4c4c;stroke-width:2" d="M187,249 l458,0 0,126 -458,0 0,-126" /><path style="fill:#030" d="M343,519 l10,-10 10,10 -10,10 -10,-10z" /><path style="fill:#030" d="M405,521 l10,-12 12,12 -12,10 -10,-10z" /><path style="fill:#030" d="M469,519 l10,-10 10,10 -10,12 -10,-12z" /><path style="fill:none;stroke:#4c4c4c;stroke-width:2" d="M103,707 l32,0" /><path style="fill:#d9d9d9" d="M83,593 l62,0 0,82 -62,0 0,-82z" /><path style="fill:#7f7f7f" d="M83,613 l10,-10 10,10 -10,10 -10,-10z" /><path style="fill:#7f7f7f" d="M125,613 l10,-10 10,10 -10,10 -10,-10z" /><path style="fill:#7f7f7f" d="M83,655 l10,-10 10,10 -10,10 -10,-10z" /><path style="fill:#7f7f7f" d="M103,707 l10,-10 12,10 -12,10 -10,-10z" /><path style="fill:none;stroke:#9c9;stroke-width:2" d="M197,363 l438,0" /><path style="fill:none;stroke:#9c9;stroke-width:2" d="M187,583 l458,0" /><path style="fill:none;stroke:#4c4c4c;stroke-width:2" d="M541,249 l42,0 0,-208 -42,0 0,208" /><path style="fill:none;stroke:#4c4c4c;stroke-width:2" d="M249,249 l42,0 0,-208 -42,0 0,208" /><path style="fill:#9c9;stroke:#4c4c4c;stroke-width:2" d="M265,5 l10,0 0,244 -10,0 0,-244z" /><path style="fill:#9c9;stroke:#4c4c4c;stroke-width:2" d="M557,5 l10,0 0,244 -10,0 0,-244z" /><path style="fill:#000" d="M541,0 l42,0 0,5 -42,0 0,-5z" /><path style="fill:#000" d="M249,0 l42,0 0,5 -42,0 0,-5z" /><path style="fill:none;stroke:#cfc;stroke-width:2" d="M311,541 l0,-42 210,0" /><path style="fill:#4c7f4c;stroke:#4c4c4c;stroke-width:2" d="M165,924 l0,74 -30,0 0,-9 20,0 0,-65 10,0z" /><path style="fill:#4c7f4c;stroke:#4c4c4c;stroke-width:2" d="M665,924 l0,74 32,0 0,-9 -20,0 0,-65 -12,0z" /></svg>