<!DOCTYPE svg PUBLIC "-//W3C//DTD SVG 20000303 Stylable//EN" "http://www.w3.org/TR/2000/03/WD-SVG-20000303/DTD/svg-20000303-stylable.dtd"[]><svg xmlns="http://www.w3.org/2000/svg" width="904px" height="999px" viewBox="0 0 898 999"><path style="fill:#4c4c4c;stroke:#4c4c4c;stroke-width:2" d="M46,191 l727,0 0,120 -727,0 0,-120z" /><path style="fill:#666;stroke:#4c4c4c;stroke-width:2" d="M449,33 l86,0 0,192 -86,0 0,-192z" /><path style="fill:#7f7f7f" d="M117,363 l768,0 0,78 -26,28 0,530 -742,0 0,-636z" /><path style="fill:#7a7a7a" d="M171,363 l636,0 0,636 -636,0 0,-636z" /><path style="fill:#757575" d="M249,363 l478,0 0,636 -478,0 0,-636z" /><path style="fill:#7f7f7f" d="M249,973 l54,0 0,26 -54,0 0,-26z" /><path style="fill:#7f7f7f" d="M727,999 l-54,0 0,-28 54,0 0,28z" /><path style="fill:#858585" d="M727,999 l106,0 0,-28 -106,0 0,28z" /><path style="fill:#858585" d="M249,973 l-104,0 0,26 104,0 0,-26z" /><path style="fill:#8c8c8c" d="M753,999 l54,0 0,-28 -54,0 0,28z" /><path style="fill:#8c8c8c" d="M223,973 l-52,0 0,26 52,0 0,-26z" /><path style="fill:none;stroke:#ccc;stroke-width:2" d="M131,965 l716,0" /><path style="fill:#4c4c4c" d="M117,455 l755,0 -13,14 -742,0 0,-14z" /><path style="fill:none;stroke:#4c4c4c;stroke-width:2" d="M117,377 l768,0" /><path style="fill:none;stroke:#4c4c4c;stroke-width:2" d="M131,973 l716,0" /><path style="fill:none;stroke:#4c4c4c;stroke-width:2" d="M117,363 l768,0 0,78 -26,28 0,530 -742,0 0,-636" /><path style="fill:#333" d="M289,879 l398,0 0,-316 6,-8 0,332 -410,0 6,-8z" /><path style="fill:#999" d="M687,561 l-398,0 0,318 -6,8 0,-332 410,0 -6,6z" /><path style="fill:#7f7f7f" d="M289,561 l398,0 0,318 -398,0 0,-318z" /><circle style="fill:#999" cx="323" cy="728" r="26" /><path style="fill:#666;stroke:#4c4c4c;stroke-width:2" d="M681,793 l20,0 0,48 -20,0 0,-48z" /><path style="fill:#666;stroke:#4c4c4c;stroke-width:2" d="M681,601 l20,0 0,46 -20,0 0,-46z" /><path style="fill:none;stroke:#b2b2b2;stroke-width:2" d="M149,439 l-4,-14 0,-16 4,-14 12,-12 14,-6 16,0 14,6 12,10" /><path style="fill:none;stroke:#b2b2b2;stroke-width:2" d="M211,397 l6,12 0,14 -6,12 -8,10 -12,4 -14,0 -12,-4 -10,-10" /><path style="fill:none;stroke:#4c4c4c;stroke-width:2" d="M155,435 l-4,-12 0,-14 4,-12 10,-8 12,-6 14,0 12,6 8,8" /><path style="fill:none;stroke:#4c4c4c;stroke-width:2" d="M217,393 l6,16 0,16 -6,14 -10,12 -16,4 -16,0 -14,-4 -12,-12" /><path style="fill:#7f7f7f" d="M5,363 l106,0 6,6 0,609 -6,6 -106,0 -5,-6 0,-609 5,-6z" /><path style="fill:#4c4c4c" d="M5,984 l-5,-6 117,0 -6,6 -106,0z" /><path style="fill:#e5e5e5" d="M111,363 l6,6 -117,0 5,-6 106,0z" /><path style="fill:none;stroke:#4c4c4c;stroke-width:2" d="M5,363 l106,0 6,6 0,609 -6,6 -106,0 -5,-6 0,-609 5,-6" /><path style="fill:#7f7f7f" d="M653,231 l0,126 -6,6 -521,0 -9,-6 0,-126 9,-6 521,0 6,6z" /><path style="fill:#787878" d="M653,231 l0,126 -6,6 -521,0 -9,-6 0,-34 536,-92z" /><path style="fill:none;stroke:#4c4c4c;stroke-width:2" d="M653,231 l0,126 -6,6 -521,0 -9,-6 0,-126 9,-6 521,0 6,6" /><path style="fill:#7f7f7f" d="M1,139 l116,0 0,92 -116,0 0,-92z" /><path style="fill:#999" d="M1,151 l116,0 0,66 -116,0 0,-66z" /><path style="fill:#b2b2b2" d="M1,165 l116,0 0,40 -116,0 0,-40z" /><path style="fill:#ccc" d="M1,177 l116,0 0,14 -116,0 0,-14z" /><path style="fill:none;stroke:#4c4c4c;stroke-width:2" d="M1,139 l116,0 0,92 -116,0 0,-92" /><path style="fill:#333" d="M20,177 l78,0 0,40 -78,0 0,-40z" /><path style="fill:#7f7f7f;stroke:#4c4c4c;stroke-width:2" d="M72,191 l19,0 0,172 -19,0 0,-172z" /><path style="fill:#7f7f7f;stroke:#4c4c4c;stroke-width:2" d="M25,191 l21,0 0,172 -21,0 0,-172z" /><path style="fill:#7f7f7f" d="M537,139 l204,0 0,66 -204,0 0,-66z" /><path style="fill:#999" d="M537,147 l204,0 0,48 -204,0 0,-48z" /><path style="fill:#b2b2b2" d="M537,157 l204,0 0,28 -204,0 0,-28z" /><path style="fill:#ccc" d="M537,167 l204,0 0,8 -204,0 0,-8z" /><path style="fill:none;stroke:#4c4c4c;stroke-width:2" d="M537,139 l204,0 0,66 -204,0 0,-66" /><path style="fill:#7f7f7f;stroke:#4c4c4c;stroke-width:2" d="M741,211 l118,0 0,72 -118,0 0,-72z" /><path style="fill:#7f7f7f;stroke:#4c4c4c;stroke-width:2" d="M787,139 l40,0 0,72 -40,0 0,-72z" /><path style="fill:#7f7f7f;stroke:#4c4c4c;stroke-width:2" d="M739,165 l159,0 0,20 -159,0 0,-20z" /><path style="fill:none;stroke:#4c4c4c;stroke-width:2" d="M627,139 l0,-48 -12,-12 -126,0" /><path style="fill:#666;stroke:#4c4c4c;stroke-width:2" d="M383,0 l26,0 20,191 -26,0 -20,-191z" /><path style="fill:#666;stroke:#4c4c4c;stroke-width:2" d="M429,0 l26,0 -26,191 -26,0 26,-191z" /></svg>