<!DOCTYPE svg PUBLIC "-//W3C//DTD SVG 20000303 Stylable//EN" "http://www.w3.org/TR/2000/03/WD-SVG-20000303/DTD/svg-20000303-stylable.dtd"[]><svg xmlns="http://www.w3.org/2000/svg" width="999px" height="923px" viewBox="0 0 999 918"><path style="fill:#f2f2f2" d="M21,40 l958,0 0,878 -958,0 0,-878z" /><path style="fill:#ededed" d="M21,662 l958,-366 0,622 -958,0 0,-256z" /><path style="fill:#e8e8e8" d="M21,698 l958,-366 0,586 -958,0 0,-220z" /><path style="fill:#e3e3e3" d="M21,753 l958,-367 0,532 -958,0 0,-165z" /><path style="fill:none;stroke:#4c4c4c;stroke-width:2" d="M21,40 l958,0 0,878 -958,0 0,-878" /><path style="fill:#4c4c4c" d="M320,199 l360,0 0,220 -360,0 0,-220z" /><path style="fill:#b2b2b2" d="M400,247 l200,0 0,123 -200,0 0,-123z" /><path style="fill:none;stroke:#fff;stroke-width:2" d="M400,370 l200,0 0,-123" /><path style="fill:none;stroke:#4c4c4c;stroke-width:2" d="M600,247 l-200,0 0,121" /><path style="fill:none;stroke:#fff;stroke-width:2" d="M309,773 l0,-175 375,0" /><path style="fill:none;stroke:#fff;stroke-width:2" d="M60,878 l0,-798 878,0" /><path style="fill:#ccc;stroke:#4c4c4c;stroke-width:2" d="M21,678 l-14,0 -7,-70 3,-71 18,0 0,141z" /><path style="fill:#ccc;stroke:#4c4c4c;stroke-width:2" d="M739,40 l0,-40 80,0 0,40 -80,0z" /><path style="fill:#ccc;stroke:#4c4c4c;stroke-width:2" d="M181,40 l0,-40 80,0 0,40 -80,0z" /><path style="fill:#ccc;stroke:#4c4c4c;stroke-width:2" d="M958,118 l41,0 0,81 -41,0 0,-81z" /><path style="fill:#ccc;stroke:#4c4c4c;stroke-width:2" d="M958,678 l41,0 0,79 -41,0 0,-79z" /><path style="fill:#333" d="M769,19 l10,-9 10,9 -10,11 -10,-11z" /><path style="fill:#333" d="M211,19 l10,-9 10,9 -10,11 -10,-11z" /><path style="fill:#333" d="M160,298 l61,0 0,80 -61,0 0,-80z" /><path style="fill:#333" d="M300,479 l60,0 0,58 -60,0 0,-58z" /><path style="fill:#333" d="M640,479 l58,0 0,58 -58,0 0,-58z" /><path style="fill:#fff" d="M166,314 l8,0 0,4 -8,0 0,-4z" /><path style="fill:#fff" d="M205,314 l10,0 0,4 -10,0 0,-4z" /><path style="fill:#fff" d="M181,310 l20,0 0,4 -20,0 0,-4z" /><path style="fill:#4c4c4c" d="M191,368 l-21,-20 21,-20 20,20 -20,20z" /><path style="fill:none;stroke:#b2b2b2;stroke-width:2" d="M191,348 l-17,-20" /><path style="fill:none;stroke:#b2b2b2;stroke-width:2" d="M309,527 l41,0" /><path style="fill:none;stroke:#b2b2b2;stroke-width:2" d="M650,527 l38,0" /><path style="fill:none;stroke:#999;stroke-width:2" d="M60,878 l878,0 0,-798" /><path style="fill:none;stroke:#999;stroke-width:2" d="M309,773 l375,0 0,-175" /><path style="fill:#d9d9d9;stroke:#4c4c4c;stroke-width:2" d="M984,517 l-40,0 0,-78 40,0 0,78z" /><path style="fill:none;stroke:#fff;stroke-width:2" d="M975,449 l0,60 -17,0" /><path style="fill:none;stroke:#999;stroke-width:2" d="M975,449 l-17,0 0,60" /></svg>