<!DOCTYPE svg PUBLIC "-//W3C//DTD SVG 20000303 Stylable//EN" "http://www.w3.org/TR/2000/03/WD-SVG-20000303/DTD/svg-20000303-stylable.dtd"[]><svg xmlns="http://www.w3.org/2000/svg" width="447px" height="999px" viewBox="0 0 414 999"><path style="fill:#4c4c4c" d="M83,895 l250,0 0,94 -250,0 0,-94z" /><path style="fill:#4c4c4c" d="M51,610 l311,0 0,139 -311,0 0,-139z" /><path style="fill:#4c4c4c" d="M51,271 l311,0 0,16 -311,0 0,-16z" /><path style="fill:#ccc;stroke:#4c4c4c;stroke-width:2" d="M0,624 l414,0 0,83 -414,0 0,-83z" /><path style="fill:none;stroke:#7f7f7f;stroke-width:2" d="M9,636 l395,0" /><path style="fill:none;stroke:#fff;stroke-width:2" d="M404,640 l-395,0" /><path style="fill:#666;stroke:#4c4c4c;stroke-width:2" d="M0,833 l414,0 0,62 -414,0 0,-62z" /><path style="fill:#ccc;stroke:#4c4c4c;stroke-width:2" d="M0,749 l414,0 0,84 -414,0 0,-84z" /><path style="fill:#7f7f7f" d="M310,833 l0,70 -6,16 -13,14 -20,12 -24,8 -26,4 -28,0 -26,-4 -24,-8 -20,-12 -12,-14 -8,-16 0,-70 207,0z" /><path style="fill:#8a8a8a" d="M301,831 l0,72 -7,16 -11,14 -18,12 -20,8 -24,4 -26,0 -24,-4 -20,-8 -18,-12 -12,-14 -8,-16 0,-72 188,0z" /><path style="fill:#919191" d="M291,831 l0,72 -6,16 -10,14 -16,12 -18,8 -22,4 -22,0 -22,-4 -18,-8 -16,-12 -12,-14 -4,-16 0,-72 166,0z" /><path style="fill:#9c9c9c" d="M281,831 l0,72 -6,16 -8,14 -14,12 -16,8 -20,4 -18,0 -20,-4 -16,-8 -14,-12 -10,-14 -4,-16 0,-72 146,0z" /><path style="fill:#a6a6a6" d="M271,831 l0,72 -4,16 -10,14 -10,12 -16,8 -16,4 -16,0 -16,-4 -14,-8 -12,-12 -8,-14 -4,-16 0,-72 126,0z" /><path style="fill:#b0b0b0" d="M259,831 l0,72 -2,16 -8,14 -10,12 -12,8 -12,4 -14,0 -14,-4 -12,-8 -8,-12 -8,-14 -4,-16 0,-72 104,0z" /><path style="fill:#b8b8b8" d="M249,831 l0,72 -2,16 -6,14 -8,12 -10,8 -10,4 -10,0 -12,-4 -8,-8 -8,-12 -6,-14 -2,-16 0,-72 82,0z" /><path style="fill:#c2c2c2" d="M239,831 l0,72 -2,16 -4,14 -6,12 -8,8 -8,4 -8,0 -8,-4 -6,-8 -6,-12 -4,-14 -2,-16 0,-72 62,0z" /><path style="fill:#ccc" d="M227,833 l0,70 0,16 -4,14 -2,12 -6,8 -4,4 -6,0 -6,-4 -4,-8 -4,-12 -2,-14 -2,-16 0,-70 40,0z" /><path style="fill:none;stroke:#4c4c4c;stroke-width:2" d="M310,833 l0,70 -6,16 -13,14 -20,12 -24,8 -26,4 -28,0 -26,-4 -24,-8 -20,-12 -12,-14 -8,-16 0,-70 207,0" /><path style="fill:#7f7f7f;stroke:#4c4c4c;stroke-width:2" d="M61,999 l291,0 0,-10 -291,0 0,10z" /><path style="fill:none;stroke:#7f7f7f;stroke-width:2" d="M291,919 l-20,6 -24,4 -26,2 -28,0 -26,-2 -24,-4 -20,-6" /><path style="fill:#999;stroke:#4c4c4c;stroke-width:2" d="M323,989 l-26,0 -16,-64 4,-10 38,74z" /><path style="fill:#999;stroke:#4c4c4c;stroke-width:2" d="M93,989 l26,0 16,-64 -6,-10 -36,74z" /><path style="fill:#ccc;stroke:#4c4c4c;stroke-width:2" d="M333,989 l-42,-74 -6,0 38,74 10,0z" /><path style="fill:#ccc;stroke:#4c4c4c;stroke-width:2" d="M83,989 l42,-74 4,0 -36,74 -10,0z" /><path style="fill:#c4c4c4" d="M333,759 l71,0 0,62 -71,0 0,-62z" /><path style="fill:#c4c4c4" d="M9,759 l74,0 0,62 -74,0 0,-62z" /><path style="fill:#ccc" d="M356,759 l44,0 0,62 -44,0 0,-62z" /><path style="fill:#ccc" d="M13,759 l44,0 0,62 -44,0 0,-62z" /><path style="fill:#d4d4d4" d="M362,759 l34,0 0,62 -34,0 0,-62z" /><path style="fill:#d4d4d4" d="M19,759 l34,0 0,62 -34,0 0,-62z" /><path style="fill:#dedede" d="M366,759 l26,0 0,62 -26,0 0,-62z" /><path style="fill:#dedede" d="M23,759 l26,0 0,62 -26,0 0,-62z" /><path style="fill:#f2f2f2" d="M371,759 l15,0 0,62 -15,0 0,-62z" /><path style="fill:#f2f2f2" d="M28,759 l15,0 0,62 -15,0 0,-62z" /><path style="fill:#b2b2b2" d="M83,759 l250,0 0,64 -250,0 0,-64z" /><path style="fill:#bababa" d="M113,759 l188,0 0,62 -188,0 0,-62z" /><path style="fill:#c4c4c4" d="M141,759 l132,0 0,62 -132,0 0,-62z" /><path style="fill:#ccc" d="M153,759 l110,0 0,62 -110,0 0,-62z" /><path style="fill:#d4d4d4" d="M165,759 l86,0 0,62 -86,0 0,-62z" /><path style="fill:#dedede" d="M175,759 l66,0 0,62 -66,0 0,-62z" /><path style="fill:#e5e5e5" d="M187,759 l42,0 0,64 -42,0 0,-64z" /><path style="fill:#999" d="M41,821 l42,-10 124,10 126,-10 41,10 -333,0z" /><path style="fill:#999" d="M374,759 l-41,10 -126,-10 -124,10 -42,-10 333,0z" /><path style="fill:none;stroke:#7f7f7f;stroke-width:2" d="M9,759 l395,0" /><path style="fill:none;stroke:#7f7f7f;stroke-width:2" d="M9,821 l395,0" /><path style="fill:#7f7f7f;stroke:#4c4c4c;stroke-width:2" d="M364,0 l30,0 0,749 -30,0 0,-749z" /><path style="fill:#7f7f7f;stroke:#4c4c4c;stroke-width:2" d="M22,0 l29,0 0,749 -29,0 0,-749z" /><path style="fill:#919191" d="M366,2 l26,0 0,747 -26,0 0,-747z" /><path style="fill:#919191" d="M23,2 l26,0 0,747 -26,0 0,-747z" /><path style="fill:#a1a1a1" d="M368,2 l22,0 0,747 -22,0 0,-747z" /><path style="fill:#a1a1a1" d="M25,2 l22,0 0,747 -22,0 0,-747z" /><path style="fill:#b2b2b2" d="M371,2 l17,0 0,747 -17,0 0,-747z" /><path style="fill:#b2b2b2" d="M28,2 l17,0 0,747 -17,0 0,-747z" /><path style="fill:#c4c4c4" d="M372,2 l14,0 0,747 -14,0 0,-747z" /><path style="fill:#c4c4c4" d="M29,2 l14,0 0,747 -14,0 0,-747z" /><path style="fill:#d4d4d4" d="M376,2 l8,0 0,747 -8,0 0,-747z" /><path style="fill:#d4d4d4" d="M33,2 l8,0 0,747 -8,0 0,-747z" /><path style="fill:#fff" d="M378,0 l2,0 0,749 -2,0 0,-749z" /><path style="fill:#fff" d="M35,0 l3,0 0,749 -3,0 0,-749z" /><path style="fill:none;stroke:#666;stroke-width:2" d="M22,303 l29,0" /><path style="fill:none;stroke:#666;stroke-width:2" d="M22,345 l29,0" /><path style="fill:none;stroke:#666;stroke-width:2" d="M364,303 l30,0" /><path style="fill:none;stroke:#666;stroke-width:2" d="M364,345 l30,0" /><path style="fill:none;stroke:#ccc;stroke-width:2" d="M364,364 l30,0" /><path style="fill:none;stroke:#ccc;stroke-width:2" d="M364,323 l30,0" /><path style="fill:none;stroke:#ccc;stroke-width:2" d="M22,364 l29,0" /><path style="fill:none;stroke:#ccc;stroke-width:2" d="M22,323 l29,0" /><path style="fill:#ccc" d="M0,125 l414,0 0,146 -414,0 0,-146z" /><path style="fill:#c7c7c7" d="M0,229 l414,-60 0,102 -414,0 0,-42z" /><path style="fill:#c2c2c2" d="M0,235 l414,-60 0,96 -414,0 0,-36z" /><path style="fill:#bdbdbd" d="M0,245 l414,-62 0,88 -414,0 0,-26z" /><path style="fill:none;stroke:#4c4c4c;stroke-width:2" d="M0,125 l414,0 0,146 -414,0 0,-146" /><path style="fill:#ccc;stroke:#4c4c4c;stroke-width:2" d="M57,624 l0,-14 18,0 0,6 14,0 0,-6 26,0 0,6 12,0 0,-6 26,0 0,6 12,0 0,-6 40,0 0,6 12,0 0,-6 38,0 0,6 14,0 0,-6 25,0 0,6 13,0 0,-6 26,0 0,6 12,0 0,-6 13,0 0,14 -301,0z" /><path style="fill:#ccc;stroke:#4c4c4c;stroke-width:2" d="M358,271 l0,16 -19,0 0,-8 -13,0 0,8 -25,0 0,-8 -12,0 0,8 -26,0 0,-8 -14,0 0,8 -38,0 0,-8 -12,0 0,8 -40,0 0,-8 -12,0 0,8 -26,0 0,-8 -12,0 0,8 -26,0 0,-8 -14,0 0,8 -12,0 0,-16 301,0z" /><path style="fill:#bfbfbf;stroke:#4c4c4c;stroke-width:2" d="M9,833 l13,0 0,40 -13,-4 0,-36z" /><path style="fill:#bfbfbf;stroke:#4c4c4c;stroke-width:2" d="M404,869 l-10,4 0,-42 10,0 0,38z" /><path style="fill:#bfbfbf;stroke:#4c4c4c;stroke-width:2" d="M368,125 l-16,0 0,-36 16,-6 0,42z" /><path style="fill:#bfbfbf;stroke:#4c4c4c;stroke-width:2" d="M9,89 l13,-4 0,40 -13,0 0,-36z" /><path style="fill:#999;stroke:#4c4c4c;stroke-width:2" d="M406,125 l-12,0 0,-42 12,6 0,36z" /><path style="fill:#999;stroke:#4c4c4c;stroke-width:2" d="M47,85 l16,4 0,36 -16,0 0,-40z" /><path style="fill:#999;stroke:#4c4c4c;stroke-width:2" d="M368,873 l-16,-4 0,-38 16,0 0,42z" /><path style="fill:#999;stroke:#4c4c4c;stroke-width:2" d="M47,833 l14,0 0,36 -14,4 0,-40z" /><path style="fill:#e5e5e5;stroke:#4c4c4c;stroke-width:2" d="M22,85 l25,0 0,40 -25,0 0,-40z" /><path style="fill:#e5e5e5;stroke:#4c4c4c;stroke-width:2" d="M394,125 l-26,0 0,-42 26,0 0,42z" /><path style="fill:#e5e5e5;stroke:#4c4c4c;stroke-width:2" d="M394,873 l-26,0 0,-42 26,0 0,42z" /><path style="fill:#e5e5e5;stroke:#4c4c4c;stroke-width:2" d="M22,833 l25,0 0,40 -25,0 0,-40z" /><path style="fill:#c4c4c4" d="M333,141 l71,0 0,114 -71,0 0,-114z" /><path style="fill:#c4c4c4" d="M9,141 l74,0 0,114 -74,0 0,-114z" /><path style="fill:#ccc" d="M356,141 l44,0 0,114 -44,0 0,-114z" /><path style="fill:#ccc" d="M13,141 l44,0 0,114 -44,0 0,-114z" /><path style="fill:#d4d4d4" d="M362,141 l34,0 0,114 -34,0 0,-114z" /><path style="fill:#d4d4d4" d="M19,141 l34,0 0,114 -34,0 0,-114z" /><path style="fill:#dedede" d="M366,141 l26,0 0,114 -26,0 0,-114z" /><path style="fill:#dedede" d="M23,141 l26,0 0,114 -26,0 0,-114z" /><path style="fill:#e5e5e5" d="M371,143 l15,0 0,114 -15,0 0,-114z" /><path style="fill:#e5e5e5" d="M28,143 l15,0 0,114 -15,0 0,-114z" /><path style="fill:none;stroke:#7f7f7f;stroke-width:2" d="M333,141 l0,116 -250,0" /><path style="fill:none;stroke:#7f7f7f;stroke-width:2" d="M9,137 l395,0" /><path style="fill:none;stroke:#7f7f7f;stroke-width:2" d="M9,261 l395,0" /><path style="fill:none;stroke:#7f7f7f;stroke-width:2" d="M259,219 l0,22 -104,0" /><path style="fill:none;stroke:#fff;stroke-width:2" d="M83,255 l0,-114 250,0" /><path style="fill:none;stroke:#fff;stroke-width:2" d="M155,241 l0,-22 104,0" /><path style="fill:#000" d="M167,229 l6,-6 8,8 -8,6 -6,-8z" /><path style="fill:#000" d="M201,229 l6,-6 8,8 -8,6 -6,-8z" /><path style="fill:#000" d="M235,229 l6,-6 8,8 -6,6 -8,-8z" /><path style="fill:#b2b2b2" d="M181,151 l52,0 0,22 -52,0 0,-22z" /></svg>