<!DOCTYPE svg PUBLIC "-//W3C//DTD SVG 20000303 Stylable//EN" "http://www.w3.org/TR/2000/03/WD-SVG-20000303/DTD/svg-20000303-stylable.dtd"[]><svg xmlns="http://www.w3.org/2000/svg" width="999px" height="774px" viewBox="0 0 998 761"><path style="fill:#b2b2b2;stroke:#4c4c4c;stroke-width:2" d="M125,83 l624,0 0,62 -624,0 0,-62z" /><path style="fill:#fff" d="M395,100 l84,0 0,31 -84,0 0,-31z" /><path style="fill:#4c4c4c" d="M291,93 l82,0 0,42 -82,0 0,-42z" /><path style="fill:none;stroke:#7f7f7f;stroke-width:2" d="M229,145 l0,-62" /><path style="fill:none;stroke:#ccc;stroke-width:2" d="M233,145 l0,-62" /><path style="fill:#e5e5e5;stroke:#4c4c4c;stroke-width:2" d="M749,0 l249,0 0,249 -249,0 0,-249z" /><path style="fill:#7f7f7f;stroke:#4c4c4c;stroke-width:2" d="M749,249 l249,0 0,210 -249,0 0,-210z" /><path style="fill:#7f7f7f;stroke:#4c4c4c;stroke-width:2" d="M83,459 l0,-210 20,-104 312,0 0,314 -332,0z" /><path style="fill:#666" d="M187,249 l228,0 0,210 -228,0 0,-210z" /><path style="fill:none;stroke:#4c4c4c;stroke-width:2" d="M187,459 l0,-210" /><path style="fill:#ccc" d="M415,145 l334,0 0,314 -334,0 0,-314z" /><path style="fill:#e5e5e5" d="M415,145 l334,0 0,104 -334,0 0,-104z" /><path style="fill:none;stroke:#4c4c4c;stroke-width:2" d="M415,145 l334,0 0,314 -334,0 0,-314" /><path style="fill:none;stroke:#4c4c4c;stroke-width:2" d="M561,271 l42,0" /><path style="fill:none;stroke:#4c4c4c;stroke-width:2" d="M603,291 l-42,0" /><path style="fill:#4c4c4c" d="M701,291 l28,0 0,42 -28,0 0,-42z" /><path style="fill:#000;stroke:#4c4c4c;stroke-width:2" d="M675,223 l0,-50 -18,-18 -150,0 -16,18 0,50 16,16 150,0 18,-16z" /><path style="fill:#4c4c4c" d="M673,219 l0,-44 -14,-14 -150,0 -14,14 0,44 14,16 150,0 14,-16z" /><path style="fill:#7f7f7f" d="M0,459 l998,0 0,290 -998,0 0,-290z" /><path style="fill:#7a7a7a" d="M0,665 l998,-122 0,206 -998,0 0,-84z" /><path style="fill:#757575" d="M0,677 l998,-122 0,194 -998,0 0,-72z" /><path style="fill:#707070" d="M0,695 l998,-122 0,176 -998,0 0,-54z" /><path style="fill:none;stroke:#4c4c4c;stroke-width:2" d="M0,459 l998,0 0,290 -998,0 0,-290" /><path style="fill:#666" d="M93,583 l78,0 0,146 -78,0 0,-146z" /><path style="fill:none;stroke:#999;stroke-width:2" d="M93,729 l0,-146 78,0" /><path style="fill:none;stroke:#4c4c4c;stroke-width:2" d="M171,583 l0,146 -78,0" /><path style="fill:none;stroke:#999;stroke-width:2" d="M421,749 l0,-166 376,0 0,166" /><path style="fill:none;stroke:#4c4c4c;stroke-width:2" d="M415,749 l0,-166 376,0 0,166" /><path style="fill:#333" d="M763,291 l14,0 0,22 -14,0 0,-22z" /><path style="fill:#4c4c4c" d="M755,6 l237,0 0,239 -237,0 0,-239z" /><path style="fill:#000" d="M817,46 l114,0 0,56 -114,0 0,-56z" /><path style="fill:#ccc" d="M833,51 l82,0 0,42 -82,0 0,-42z" /><path style="fill:none;stroke:#fff;stroke-width:2" d="M811,157 l125,0" /><path style="fill:none;stroke:#fff;stroke-width:2" d="M811,161 l125,0" /><path style="fill:none;stroke:#fff;stroke-width:2" d="M811,167 l125,0" /><path style="fill:none;stroke:#fff;stroke-width:2" d="M811,171 l125,0" /><path style="fill:none;stroke:#fff;stroke-width:2" d="M811,177 l125,0" /><path style="fill:#e5e5e5" d="M405,235 l0,-68 -208,0 -10,68 218,0z" /><path style="fill:#b2b2b2" d="M207,177 l198,-10 -208,0 -10,68 20,-58z" /><path style="fill:none;stroke:#4c4c4c;stroke-width:2" d="M405,235 l0,-68 -208,0 -10,68 218,0" /><path style="fill:none;stroke:#ccc;stroke-width:2" d="M213,157 l176,0" /><path style="fill:#000" d="M651,749 l134,0 0,12 -134,0 0,-12z" /><path style="fill:#000" d="M947,749 l42,0 0,12 -42,0 0,-12z" /><path style="fill:#000" d="M807,749 l42,0 0,12 -42,0 0,-12z" /><path style="fill:#000" d="M333,749 l108,0 0,12 -108,0 0,-12z" /><path style="fill:#000" d="M16,749 l109,0 0,12 -109,0 0,-12z" /><path style="fill:#999" d="M767,719 l14,0 0,26 -14,0 0,-26z" /><path style="fill:#fff" d="M120,405 l31,0 0,32 -31,0 0,-32z" /><path style="fill:#fff" d="M123,235 l30,0 -2,16 -31,0 3,-16z" /><path style="fill:#000" d="M130,317 l9,0 0,32 -9,0 0,-32z" /></svg>