<!DOCTYPE svg PUBLIC "-//W3C//DTD SVG 20000303 Stylable//EN" "http://www.w3.org/TR/2000/03/WD-SVG-20000303/DTD/svg-20000303-stylable.dtd"[]><svg xmlns="http://www.w3.org/2000/svg" width="999px" height="450px" viewBox="0 0 999 417"><path style="fill:#ccc;stroke:#4c4c4c;stroke-width:2" d="M347,6 l645,0 0,249 -645,0 0,-249z" /><path style="fill:#999" d="M365,21 l610,0 0,100 -610,0 0,-100z" /><path style="fill:#9e9e9e" d="M365,28 l610,0 0,93 -610,0 0,-93z" /><path style="fill:#a6a6a6" d="M365,35 l610,0 0,86 -610,0 0,-86z" /><path style="fill:#ababab" d="M365,41 l610,0 0,80 -610,0 0,-80z" /><path style="fill:#b2b2b2" d="M365,48 l610,0 0,73 -610,0 0,-73z" /><path style="fill:#b8b8b8" d="M365,53 l610,0 0,66 -610,0 0,-66z" /><path style="fill:#bfbfbf" d="M365,62 l610,0 0,57 -610,0 0,-57z" /><path style="fill:#c4c4c4" d="M365,67 l610,0 0,52 -610,0 0,-52z" /><path style="fill:#ccc" d="M365,85 l610,0 0,36 -610,0 0,-36z" /><path style="fill:#7f7f7f" d="M365,121 l610,0 0,28 -610,0 0,-28z" /><path style="fill:#4c4c4c" d="M365,149 l610,0 0,20 -610,0 0,-20z" /><path style="fill:#7f7f7f;stroke:#4c4c4c;stroke-width:2" d="M209,301 l650,0 0,110 -650,0 0,-110z" /><path style="fill:#e5e5e5;stroke:#4c4c4c;stroke-width:2" d="M70,255 l0,162 139,0 0,-116 650,0 0,116 140,0 0,-162 -929,0z" /><path style="fill:#9cc" d="M209,261 l790,0 0,10 -790,0 0,-10z" /><path style="fill:none;stroke:#7f7f7f;stroke-width:2" d="M209,301 l0,-46" /><path style="fill:none;stroke:#7f7f7f;stroke-width:2" d="M859,301 l0,-46" /><path style="fill:#e5e5e5" d="M63,255 l-63,-24 0,-92 18,-139 329,0 0,255 -284,0z" /><path style="fill:#ccc" d="M63,255 l-63,-24 347,0 0,24 -284,0z" /><path style="fill:#d9d9d9" d="M0,231 l0,-92 347,0 0,92 -347,0z" /><path style="fill:none;stroke:#4c4c4c;stroke-width:2" d="M63,255 l-63,-24 0,-92 18,-139 329,0 0,255 -284,0" /><path style="fill:#e5e5e5;stroke:#7f7f7f;stroke-width:2" d="M347,173 l633,0 0,30 -633,0 0,-30z" /><path style="fill:#f2f2f2;stroke:#7f7f7f;stroke-width:2" d="M371,161 l70,0 0,82 -70,0 0,-82z" /><path style="fill:#7f7f7f;stroke:#4c4c4c;stroke-width:2" d="M359,213 l621,0 0,18 -621,0 0,-18z" /><path style="fill:#ccc" d="M365,219 l610,0 0,8 -610,0 0,-8z" /><path style="fill:#000" d="M353,80 l24,0 0,81 -24,0 0,-81z" /><path style="fill:#4c4c4c;stroke:#4c4c4c;stroke-width:2" d="M377,149 l6,0 0,24 46,0 0,-24 24,0 0,-57 -76,0 0,57z" /><path style="fill:none;stroke:#fff;stroke-width:2" d="M215,213 l0,-58 92,0" /><path style="fill:none;stroke:#7f7f7f;stroke-width:2" d="M215,213 l92,0 0,-58" /><path style="fill:none;stroke:#fff;stroke-width:2" d="M255,203 l30,-24" /><path style="fill:none;stroke:#fff;stroke-width:2" d="M237,203 l42,-36" /><path style="fill:none;stroke:#fff;stroke-width:2" d="M225,179 l24,-18" /><path style="fill:none;stroke:#7f7f7f;stroke-width:2" d="M173,255 l0,-116 6,-139" /><path style="fill:#000" d="M183,103 l2,-52 6,0 -2,52 -6,0z" /><path style="fill:#7f7f7f" d="M331,103 l-8,6 -114,0 -6,-6 0,-62 6,-6 114,0 8,6 0,62z" /><path style="fill:#333" d="M327,99 l-6,8 -110,-2 -6,-6 0,-54 6,-7 110,0 6,5 0,56z" /><path style="fill:none;stroke:#7f7f7f;stroke-width:2" d="M263,95 l36,-28" /><path style="fill:none;stroke:#7f7f7f;stroke-width:2" d="M243,95 l48,-42" /><path style="fill:none;stroke:#7f7f7f;stroke-width:2" d="M229,67 l26,-19" /><path style="fill:#fff" d="M905,371 l48,0 0,-70 -234,-24 0,-116 -22,0 0,140 208,24 0,46z" /><path style="fill:#f2f2f2" d="M953,301 l-234,-24 -22,24 208,24 48,-24z" /><path style="fill:none;stroke:#4c4c4c;stroke-width:2" d="M905,371 l48,0 0,-70 -234,-24 0,-116 -22,0 0,140 208,24 0,46" /><path style="fill:#7f7f7f;stroke:#4c4c4c;stroke-width:2" d="M755,185 l-116,-6 0,-99 116,-10 0,115z" /><path style="fill:#e5e5e5;stroke:#4c4c4c;stroke-width:2" d="M755,185 l40,-6 0,-99 -40,-10 0,115z" /><path style="fill:#333" d="M725,161 l-80,-4 0,-70 80,-7 0,81z" /><path style="fill:none;stroke:#ccc;stroke-width:2" d="M645,161 l98,6" /><path style="fill:none;stroke:#4c4c4c;stroke-width:2" d="M767,167 l6,-6 0,-64 -6,-5" /><path style="fill:none;stroke:#4c4c4c;stroke-width:2" d="M905,325 l0,-24 48,0" /><path style="fill:none;stroke:#7f7f7f;stroke-width:2" d="M905,331 l48,0" /><path style="fill:#e5e5e5" d="M970,149 l-69,0 0,-22 -30,-35 0,-17 99,0 0,74z" /><path style="fill:#b2b2b2" d="M970,127 l-12,0 0,-35 12,0 0,35z" /><path style="fill:#b2b2b2" d="M916,127 l-15,0 -30,-35 42,0 3,35z" /><path style="fill:none;stroke:#4c4c4c;stroke-width:2" d="M970,149 l-69,0 0,-22 -30,-35 0,-17 99,0 0,74" /><path style="fill:#000" d="M871,85 l-12,0 -12,-5 12,-5 12,0 0,10z" /><path style="fill:#b2b2b2;stroke:#4c4c4c;stroke-width:2" d="M980,97 l-12,0 0,-34 12,0 0,34z" /></svg>