<!DOCTYPE svg PUBLIC "-//W3C//DTD SVG 20000303 Stylable//EN" "http://www.w3.org/TR/2000/03/WD-SVG-20000303/DTD/svg-20000303-stylable.dtd"[]><svg xmlns="http://www.w3.org/2000/svg" width="999px" height="999px" viewBox="0 0 999 999"><path style="fill:#000" d="M123,977 l752,0 0,22 -752,0 0,-22z" /><path style="fill:#fc0" d="M0,977 l999,0 0,-228 -999,0 0,228z" /><path style="fill:#c90" d="M0,977 l999,0 0,-40 -999,0 0,40z" /><path style="fill:#ffe57f" d="M0,811 l999,0 0,-62 -999,0 0,62z" /><path style="fill:none;stroke:#4c4c4c;stroke-width:2" d="M0,977 l999,0 0,-228 -999,0 0,228" /><path style="fill:#4c4c4c" d="M31,769 l166,0 0,22 -166,0 0,-22z" /><path style="fill:#fc0" d="M373,0 l252,0 0,749 -252,0 0,-749z" /><path style="fill:#fac700" d="M373,415 l252,-120 0,454 -252,0 0,-334z" /><path style="fill:#f5c200" d="M373,427 l252,-120 0,442 -252,0 0,-322z" /><path style="fill:#f0bd00" d="M373,445 l252,-120 0,424 -252,0 0,-304z" /><path style="fill:none;stroke:#4c4c4c;stroke-width:2" d="M373,0 l252,0 0,749 -252,0 0,-749" /><path style="fill:#000" d="M457,727 l10,0 0,12 -10,0 0,-12z" /><path style="fill:#000" d="M531,727 l10,0 0,12 -10,0 0,-12z" /><path style="fill:#7f7f7f" d="M707,749 l0,-42 10,-42 32,-10 0,-72 10,-12 0,-52 32,0 0,52 10,12 0,72 32,10 10,42 0,42 -136,0z" /><path style="fill:#8f8f8f" d="M715,749 l0,-42 10,-42 28,-10 0,-74 8,-10 0,-52 28,0 0,52 10,10 0,74 26,10 10,42 0,42 -120,0z" /><path style="fill:#9e9e9e" d="M723,749 l0,-42 8,-42 24,-10 0,-74 8,-10 0,-52 24,0 0,52 8,10 0,74 24,10 7,42 0,42 -103,0z" /><path style="fill:#b0b0b0" d="M731,749 l0,-42 6,-42 22,-10 0,-74 6,-10 0,-52 20,0 0,52 8,10 0,74 20,10 6,42 0,42 -88,0z" /><path style="fill:#bfbfbf" d="M739,749 l0,-42 6,-42 16,-10 0,-74 6,-10 0,-52 16,0 0,52 6,10 0,74 18,10 4,42 0,42 -72,0z" /><path style="fill:#cfcfcf" d="M747,749 l0,-42 4,-42 14,-10 0,-74 4,-10 0,-52 12,0 0,52 6,10 0,74 12,10 4,42 0,42 -56,0z" /><path style="fill:#dedede" d="M755,749 l0,-42 2,-42 10,-10 0,-74 4,-10 0,-52 10,0 0,52 2,10 0,74 10,10 4,42 0,42 -42,0z" /><path style="fill:#f0f0f0" d="M763,749 l0,-42 0,-42 8,-10 0,-74 2,-10 0,-52 6,0 0,52 2,10 0,74 6,10 2,42 0,42 -26,0z" /><ellipse style="fill:#fff" cx="775" cy="634" rx="6" ry="115" /><path style="fill:none;stroke:#7f7f7f;stroke-width:2" d="M749,583 l52,0" /><path style="fill:none;stroke:#7f7f7f;stroke-width:2" d="M717,665 l116,0" /><path style="fill:none;stroke:#4c4c4c;stroke-width:2" d="M707,749 l0,-42 10,-42 32,-10 0,-72 10,-12 0,-52 32,0 0,52 10,12 0,72 32,10 10,42 0,42 -136,0" /><path style="fill:none;stroke:#4c4c4c;stroke-width:2" d="M749,655 l52,0" /><path style="fill:none;stroke:#4c4c4c;stroke-width:2" d="M759,571 l32,0" /><path style="fill:none;stroke:#4c4c4c;stroke-width:2" d="M707,707 l136,0" /><path style="fill:#333;stroke:#4c4c4c;stroke-width:2" d="M613,447 l104,0 0,84 -104,0 0,-84z" /><path style="fill:#b2b2b2;stroke:#4c4c4c;stroke-width:2" d="M625,363 l30,0 0,84 -30,0 0,-84z" /><path style="fill:#333;stroke:#4c4c4c;stroke-width:2" d="M591,447 l-16,0 -16,-6 -12,-12 -6,-16 0,-16 6,-16 12,-10 16,-8 60,0 0,22 -12,0 2,28 -8,16 -12,12 -14,6z" /><path style="fill:#999" d="M589,437 l-12,0 -10,-6 -10,-8 -4,-12 0,-12 4,-12 10,-8 10,-4 46,0 0,10 -8,0 0,26 -4,12 -10,8 -12,6z" /><path style="fill:#f00" d="M581,415 l-10,-10 10,-10 12,10 -12,10z" /><path style="fill:#ccc" d="M729,519 l92,0 22,-30 -22,-32 -92,0 -12,-10 0,84 12,-12z" /><path style="fill:#999" d="M729,519 l0,-62 -12,-10 0,84 12,-12z" /><path style="fill:#b2b2b2" d="M821,519 l22,-30 -22,-32 0,62z" /><path style="fill:none;stroke:#4c4c4c;stroke-width:2" d="M729,519 l92,0 22,-30 -22,-32 -92,0 -12,-10 0,84 12,-12" /><path style="fill:#c93" d="M759,479 l32,0 0,52 -32,0 0,-52z" /><path style="fill:#d1a347" d="M761,477 l28,0 0,54 -28,0 0,-54z" /><path style="fill:#d6ad59" d="M763,477 l24,0 0,54 -24,0 0,-54z" /><path style="fill:#dbb76d" d="M765,477 l20,0 0,54 -20,0 0,-54z" /><path style="fill:#debd7d" d="M767,477 l16,0 0,54 -16,0 0,-54z" /><path style="fill:#e3c791" d="M769,477 l14,0 0,54 -14,0 0,-54z" /><path style="fill:#e8d1a6" d="M769,477 l12,0 0,54 -12,0 0,-54z" /><path style="fill:#eddbb7" d="M771,477 l8,0 0,54 -8,0 0,-54z" /><path style="fill:#f2e5cc" d="M773,479 l4,0 0,52 -4,0 0,-52z" /><path style="fill:none;stroke:#4c4c4c;stroke-width:2" d="M759,479 l32,0 0,52 -32,0 0,-52" /><path style="fill:none;stroke:#c90;stroke-width:2" d="M395,165 l218,0 0,-82" /></svg>