<!DOCTYPE svg PUBLIC "-//W3C//DTD SVG 20000303 Stylable//EN" "http://www.w3.org/TR/2000/03/WD-SVG-20000303/DTD/svg-20000303-stylable.dtd"[]><svg xmlns="http://www.w3.org/2000/svg" width="563px" height="998px" viewBox="0 0 537 998"><path style="fill:#ccc" d="M3,589 l3,-573 449,0 0,245 -246,0 0,328 286,0 0,409 -492,0 0,-409z" /><path style="fill:#c7c7c7" d="M3,589 l206,-102 0,102 286,0 0,409 -492,0 0,-409z" /><path style="fill:#c2c2c2" d="M3,609 l206,-102 0,82 286,0 0,409 -492,0 0,-389z" /><path style="fill:#bdbdbd" d="M3,629 l206,-102 0,62 286,0 0,409 -492,0 0,-369z" /><path style="fill:none;stroke:#4c4c4c;stroke-width:2" d="M3,589 l3,-573 449,0 0,245 -246,0 0,328 286,0 0,409 -492,0 0,-409" /><path style="fill:none;stroke:#7f7f7f;stroke-width:2" d="M455,629 l-266,0 0,245 40,43" /><path style="fill:none;stroke:#7f7f7f;stroke-width:2" d="M189,629 l0,-600" /><path style="fill:none;stroke:#e5e5e5;stroke-width:2" d="M229,917 l226,0 0,-288" /><path style="fill:none;stroke:#666;stroke-width:2" d="M39,957 l114,0" /><path style="fill:none;stroke:#666;stroke-width:2" d="M39,937 l114,0" /><path style="fill:none;stroke:#666;stroke-width:2" d="M153,917 l-114,0" /><path style="fill:none;stroke:#666;stroke-width:2" d="M39,897 l114,0" /><path style="fill:none;stroke:#666;stroke-width:2" d="M153,874 l-114,0" /><path style="fill:none;stroke:#666;stroke-width:2" d="M39,854 l114,0" /><path style="fill:none;stroke:#666;stroke-width:2" d="M153,835 l-114,0" /><path style="fill:none;stroke:#666;stroke-width:2" d="M39,815 l114,0" /><path style="fill:none;stroke:#666;stroke-width:2" d="M153,793 l-114,0" /><path style="fill:none;stroke:#666;stroke-width:2" d="M39,773 l114,0" /><path style="fill:none;stroke:#666;stroke-width:2" d="M153,753 l-114,0" /><path style="fill:none;stroke:#666;stroke-width:2" d="M39,733 l114,0" /><path style="fill:#e5e5e5;stroke:#4c4c4c;stroke-width:2" d="M77,691 l-11,-12 0,-16 11,-12 19,0 11,12 0,16 -11,12 -19,0z" /><path style="fill:#333;stroke:#4c4c4c;stroke-width:2" d="M77,487 l-11,-14 0,-16 11,-12 19,0 11,12 0,16 -11,14 -19,0z" /><path style="fill:#999;stroke:#4c4c4c;stroke-width:2" d="M209,569 l266,0 0,20 -266,0 0,-20z" /><path style="fill:#333;stroke:#4c4c4c;stroke-width:2" d="M209,527 l328,0 0,42 -328,0 0,-42z" /><path style="fill:#ccc;stroke:#4c4c4c;stroke-width:2" d="M435,261 l0,206 -22,0 0,-206 22,0z" /><path style="fill:#000;stroke:#4c4c4c;stroke-width:2" d="M373,291 l-42,0 0,-10 42,0 0,10z" /><path style="fill:none;stroke:#4c4c4c;stroke-width:2" d="M353,281 l0,-20" /><path style="fill:#999" d="M239,127 l186,0 0,42 -186,0 0,-42z" /><path style="fill:#666" d="M61,87 l66,0 0,24 -66,0 0,-24z" /><path style="fill:#4c4c4c;stroke:#4c4c4c;stroke-width:2" d="M39,998 l-39,0 0,-9 39,0 0,9z" /><path style="fill:#4c4c4c;stroke:#4c4c4c;stroke-width:2" d="M501,998 l-40,0 0,-9 40,0 0,9z" /><path style="fill:none;stroke:#4c4c4c;stroke-width:2" d="M229,16 l-4,-7 0,-6 4,-3 6,0 4,3 0,6 -4,7 -6,0" /></svg>