<!DOCTYPE svg PUBLIC "-//W3C//DTD SVG 20000303 Stylable//EN" "http://www.w3.org/TR/2000/03/WD-SVG-20000303/DTD/svg-20000303-stylable.dtd"[]><svg xmlns="http://www.w3.org/2000/svg" width="657px" height="998px" viewBox="0 0 637 999"><path style="fill:#b2b2b2;stroke:#4c4c4c;stroke-width:2" d="M615,989 l-594,0 107,-330 381,0 106,330z" /><path style="fill:#ccc;stroke:#4c4c4c;stroke-width:2" d="M489,95 l-6,-21 -12,-20 -16,-17 -20,-10 -20,-6 -96,0 -18,33 -16,-17 -20,-10 -20,-6 -24,0 -20,6 -20,10 -16,17 -12,20 -6,21 0,904 342,0 0,-904z" /><path style="fill:#999" d="M319,85 l142,0 0,404 -142,0 0,-404z" /><path style="fill:none;stroke:#fff;stroke-width:2" d="M461,85 l0,404 -142,0" /><path style="fill:none;stroke:#4c4c4c;stroke-width:2" d="M461,85 l-142,0 0,404" /><path style="fill:#b2b2b2;stroke:#7f7f7f;stroke-width:2" d="M191,149 l52,0 0,372 -52,0 0,-372z" /><path style="fill:none;stroke:#fff;stroke-width:2" d="M243,149 l0,372 -52,0" /><path style="fill:none;stroke:#4c4c4c;stroke-width:2" d="M243,149 l-52,0 0,372" /><path style="fill:#ccc;stroke:#4c4c4c;stroke-width:2" d="M0,989 l637,0 0,10 -637,0 0,-10z" /><path style="fill:#999" d="M191,659 l254,0 0,318 -254,0 0,-318z" /><path style="fill:#b2b2b2;stroke:#4c4c4c;stroke-width:2" d="M457,829 l-22,0 0,170 22,0 0,-170z" /><path style="fill:#b2b2b2;stroke:#4c4c4c;stroke-width:2" d="M201,829 l-22,0 0,170 22,0 0,-170z" /><path style="fill:#ccc;stroke:#4c4c4c;stroke-width:2" d="M191,957 l254,0 0,42 -254,0 0,-42z" /><path style="fill:#7f7f7f" d="M191,659 l254,0 0,74 -254,0 0,-74z" /><path style="fill:#b2b2b2;stroke:#4c4c4c;stroke-width:2" d="M435,659 l22,0 0,106 -22,0 0,-106z" /><path style="fill:#b2b2b2;stroke:#4c4c4c;stroke-width:2" d="M307,659 l22,0 0,106 -22,0 0,-106z" /><path style="fill:#b2b2b2;stroke:#4c4c4c;stroke-width:2" d="M179,659 l22,0 0,106 -22,0 0,-106z" /><path style="fill:#ccc;stroke:#4c4c4c;stroke-width:2" d="M128,617 l381,0 0,42 -381,0 0,-42z" /><path style="fill:#7f7f7f" d="M201,117 l0,244 -64,0 0,-244 64,0z" /><path style="fill:#999" d="M197,117 l0,244 -55,0 0,-244 55,0z" /><path style="fill:#b2b2b2" d="M191,117 l0,244 -44,0 0,-244 44,0z" /><path style="fill:#ccc" d="M183,117 l0,244 -27,0 0,-244 27,0z" /><path style="fill:#e5e5e5" d="M179,117 l0,244 -20,0 0,-244 20,0z" /><path style="fill:#fff" d="M173,117 l0,244 -8,0 0,-244 8,0z" /><path style="fill:none;stroke:#4c4c4c;stroke-width:2" d="M201,117 l0,244 -64,0 0,-244 64,0" /><path style="fill:#7f7f7f" d="M179,531 l0,-150 -20,0 0,150 20,0z" /><path style="fill:#999" d="M179,531 l0,-150 -20,0 0,150 20,0z" /><path style="fill:#b2b2b2" d="M177,531 l0,-150 -14,0 0,150 14,0z" /><path style="fill:#ccc" d="M175,531 l0,-150 -10,0 0,150 10,0z" /><path style="fill:#e5e5e5" d="M173,531 l0,-150 -6,0 0,150 6,0z" /><path style="fill:#fff" d="M171,531 l0,-150 -4,0 0,150 4,0z" /><path style="fill:none;stroke:#4c4c4c;stroke-width:2" d="M179,531 l0,-150 -20,0 0,150 20,0" /><path style="fill:#b2b2b2;stroke:#4c4c4c;stroke-width:2" d="M128,361 l83,0 0,20 -83,0 0,-20z" /><path style="fill:#b2b2b2;stroke:#4c4c4c;stroke-width:2" d="M128,95 l83,0 0,22 -83,0 0,-22z" /><path style="fill:#ccb27f;stroke:#4c4c4c;stroke-width:2" d="M265,585 l64,0 0,32 -64,0 0,-32z" /><path style="fill:#ccb27f;stroke:#4c4c4c;stroke-width:2" d="M371,585 l64,0 0,32 -64,0 0,-32z" /><path style="fill:#b2b2b2;stroke:#7f7f7f;stroke-width:2" d="M307,191 l54,0 0,372 -54,0 0,-372z" /><path style="fill:#4c4c4c" d="M273,117 l0,404 -6,0 0,-404 6,0z" /><path style="fill:#b2b2b2;stroke:#4c4c4c;stroke-width:2" d="M243,149 l54,0 0,20 -54,0 0,-20z" /><path style="fill:#4c4c4c" d="M261,351 l0,170 -6,0 0,-170 6,0z" /><path style="fill:#4c4c4c" d="M287,351 l0,170 -8,0 0,-170 8,0z" /><path style="fill:#b2b2b2;stroke:#4c4c4c;stroke-width:2" d="M243,415 l54,0 0,20 -54,0 0,-20z" /><path style="fill:#ccc" d="M383,223 l52,0 0,276 -52,0 0,-276z" /><path style="fill:#e5e5e5" d="M383,275 l52,0 0,138 -52,0 0,-138z" /><path style="fill:none;stroke:#4c4c4c;stroke-width:2" d="M383,223 l52,0 0,276 -52,0 0,-276" /><path style="fill:#e5e5e5;stroke:#7f7f7f;stroke-width:2" d="M287,297 l106,0 0,-192 -22,0 0,150 -84,0 0,42z" /><path style="fill:none;stroke:#4c4c4c;stroke-width:2" d="M415,563 l-14,0 -14,-6 -10,-10 -6,-14 0,-14 6,-14 6,-6 52,0 6,6 4,14 0,14 -4,14 -12,10 -14,6" /><path style="fill:#7f7f7f" d="M351,191 l0,-128 -22,0 0,128 22,0z" /><path style="fill:#999" d="M349,191 l0,-128 -18,0 0,128 18,0z" /><path style="fill:#b2b2b2" d="M347,191 l0,-128 -14,0 0,128 14,0z" /><path style="fill:#ccc" d="M345,191 l0,-128 -10,0 0,128 10,0z" /><path style="fill:#e5e5e5" d="M343,191 l0,-128 -6,0 0,128 6,0z" /><path style="fill:#fff" d="M341,191 l0,-128 -2,0 0,128 2,0z" /><path style="fill:none;stroke:#4c4c4c;stroke-width:2" d="M351,191 l0,-128 -22,0 0,128 22,0" /><path style="fill:#7f7f7f" d="M329,63 l4,-22 0,-32 2,-9 8,0 4,9 0,32 4,22 -22,0z" /><path style="fill:#e5e5e5" d="M335,63 l2,-22 0,-32 2,-9 2,0 0,9 0,32 2,22 -8,0z" /><path style="fill:none;stroke:#4c4c4c;stroke-width:2" d="M329,63 l4,-22 0,-32 2,-9 8,0 4,9 0,32 4,22 -22,0" /><path style="fill:#b2b2b2;stroke:#4c4c4c;stroke-width:2" d="M329,9 l22,0 0,6 -22,0 0,-6z" /><path style="fill:#b2b2b2;stroke:#4c4c4c;stroke-width:2" d="M329,37 l22,0 0,4 -22,0 0,-4z" /><path style="fill:none;stroke:#fff;stroke-width:2" d="M243,541 l0,54 -52,0" /><path style="fill:none;stroke:#999;stroke-width:2" d="M243,541 l-52,0 0,54" /><path style="fill:none;stroke:#4c4c4c;stroke-width:2" d="M201,845 l234,0" /></svg>