<!DOCTYPE svg PUBLIC "-//W3C//DTD SVG 20000303 Stylable//EN" "http://www.w3.org/TR/2000/03/WD-SVG-20000303/DTD/svg-20000303-stylable.dtd"[]><svg xmlns="http://www.w3.org/2000/svg" width="999px" height="919px" viewBox="0 0 999 915"><path style="fill:#ccc;stroke:#4c4c4c;stroke-width:2" d="M583,207 l156,0 0,42 -156,0 0,-42z" /><path style="fill:#699;stroke:#4c4c4c;stroke-width:2" d="M42,811 l914,0 0,82 -914,0 0,-82z" /><path style="fill:#033;stroke:#4c4c4c;stroke-width:2" d="M20,915 l958,0 0,-22 -958,0 0,22z" /><path style="fill:#e5e5e5" d="M42,811 l-42,-128 20,-434 958,0 21,434 -43,128 -914,0z" /><path style="fill:#e0e0e0" d="M42,811 l-42,-128 9,-216 973,-110 17,326 -43,128 -914,0z" /><path style="fill:#dbdbdb" d="M42,811 l-42,-128 5,-108 984,-108 10,216 -43,128 -914,0z" /><path style="fill:#d6d6d6" d="M42,811 l-42,-128 993,-108 6,108 -43,128 -914,0z" /><path style="fill:none;stroke:#4c4c4c;stroke-width:2" d="M42,811 l-42,-128 20,-434 958,0 21,434 -43,128 -914,0" /><path style="fill:#366" d="M249,249 l500,0 0,416 -500,0 0,-416z" /><path style="fill:#ccc;stroke:#4c4c4c;stroke-width:2" d="M311,249 l376,0 0,416 -376,0 0,-416z" /><path style="fill:none;stroke:#4c4c4c;stroke-width:2" d="M249,249 l500,0 0,416 -500,0 0,-416" /><path style="fill:#333;stroke:#4c4c4c;stroke-width:2" d="M311,623 l376,0 0,42 -376,0 0,-42z" /><path style="fill:#7f7f7f;stroke:#4c4c4c;stroke-width:2" d="M311,623 l376,0 0,-20 -376,0 0,20z" /><path style="fill:#e5e5e5;stroke:#4c4c4c;stroke-width:2" d="M311,603 l42,-22 292,0 42,22 -376,0z" /><path style="fill:#e5e5e5" d="M415,0 l168,0 0,331 -168,0 0,-331z" /><path style="fill:#d9d9d9" d="M415,0 l168,0 0,81 -168,0 0,-81z" /><path style="fill:#ccc" d="M415,0 l168,0 0,61 -168,0 0,-61z" /><path style="fill:#bfbfbf" d="M415,0 l168,0 0,39 -168,0 0,-39z" /><path style="fill:#b2b2b2" d="M415,0 l168,0 0,20 -168,0 0,-20z" /><path style="fill:#033" d="M707,561 l22,0 0,82 -22,0 0,-82z" /><path style="fill:#033" d="M269,561 l22,0 0,82 -22,0 0,-82z" /><path style="fill:#033" d="M183,603 l46,0 0,30 -46,0 0,-30z" /><path style="fill:#033" d="M125,603 l44,0 0,30 -44,0 0,-30z" /><path style="fill:#033" d="M73,603 l44,0 0,30 -44,0 0,-30z" /><path style="fill:#033" d="M20,603 l45,0 0,30 -45,0 0,-30z" /><path style="fill:#033" d="M183,567 l46,0 0,30 -46,0 0,-30z" /><path style="fill:#033" d="M125,567 l44,0 0,30 -44,0 0,-30z" /><path style="fill:#033" d="M73,567 l44,0 0,30 -44,0 0,-30z" /><path style="fill:#033" d="M183,529 l46,0 0,30 -46,0 0,-30z" /><path style="fill:#033" d="M125,529 l44,0 0,30 -44,0 0,-30z" /><path style="fill:#033" d="M183,493 l46,0 0,28 -46,0 0,-28z" /><path style="fill:none;stroke:#fff;stroke-width:2" d="M603,353 l0,208 -208,0" /><path style="fill:none;stroke:#999;stroke-width:2" d="M603,353 l-208,0 0,208" /><path style="fill:#7f7f7f" d="M457,415 l0,-84 84,0 0,84 -84,0z" /><path style="fill:#999" d="M463,415 l0,-84 72,0 0,84 -72,0z" /><path style="fill:#b2b2b2" d="M471,415 l0,-84 56,0 0,84 -56,0z" /><path style="fill:#ccc" d="M481,415 l0,-84 36,0 0,84 -36,0z" /><path style="fill:#e5e5e5" d="M487,415 l0,-84 24,0 0,84 -24,0z" /><path style="fill:#fff" d="M493,415 l0,-84 12,0 0,84 -12,0z" /><path style="fill:none;stroke:#4c4c4c;stroke-width:2" d="M457,415 l0,-84 84,0 0,84 -84,0" /><path style="fill:#ccc" d="M291,61 l124,0 0,188 -124,0 0,-188z" /><path style="fill:#c7c7c7" d="M291,193 l124,-77 0,133 -124,0 0,-56z" /><path style="fill:#c2c2c2" d="M291,201 l124,-78 0,126 -124,0 0,-48z" /><path style="fill:#bdbdbd" d="M291,213 l124,-78 0,114 -124,0 0,-36z" /><path style="fill:#b2b2b2;stroke:#4c4c4c;stroke-width:2" d="M311,269 l62,0 0,42 -62,0 0,-42z" /><path style="fill:#b2b2b2;stroke:#4c4c4c;stroke-width:2" d="M311,311 l42,0 0,52 -42,0 0,-52z" /><path style="fill:#fc0" d="M457,831 l499,0 0,22 -499,0 0,-22z" /><path style="fill:#fc0" d="M61,831 l376,0 0,22 -376,0 0,-22z" /><path style="fill:#fc0" d="M707,269 l22,0 0,20 -22,0 0,-20z" /><path style="fill:#fc0" d="M425,279 l64,0 0,42 -64,0 0,-42z" /><path style="fill:#fc0" d="M321,341 l32,0 0,22 -32,0 0,-22z" /><path style="fill:#fc0" d="M229,581 l20,0 0,22 -20,0 0,-22z" /><path style="fill:#699;stroke:#4c4c4c;stroke-width:2" d="M769,331 l168,0 0,168 -168,0 0,-168z" /><path style="fill:#ccc;stroke:#4c4c4c;stroke-width:2" d="M843,551 l-62,0 -12,-52 84,0 -10,52z" /><path style="fill:#ccc;stroke:#4c4c4c;stroke-width:2" d="M781,279 l62,0 10,52 -84,0 12,-52z" /><path style="fill:none;stroke:#033;stroke-width:2" d="M61,321 l168,0" /><path style="fill:none;stroke:#033;stroke-width:2" d="M61,341 l168,0" /><path style="fill:none;stroke:#033;stroke-width:2" d="M781,499 l0,-168" /><path style="fill:#033" d="M791,341 l84,0 0,74 -84,0 0,-74z" /><path style="fill:none;stroke:#4c4c4c;stroke-width:2" d="M791,415 l0,-74 82,0" /><path style="fill:none;stroke:#9cc;stroke-width:2" d="M873,341 l0,74 -82,0" /><path style="fill:none;stroke:#9cc;stroke-width:2" d="M791,435 l134,0" /><path style="fill:none;stroke:#9cc;stroke-width:2" d="M833,435 l0,52" /><path style="fill:none;stroke:#9cc;stroke-width:2" d="M895,435 l0,52" /><path style="fill:none;stroke:#4c4c4c;stroke-width:2" d="M415,0 l168,0 0,331 -168,0 0,-331" /><path style="fill:none;stroke:#4c4c4c;stroke-width:2" d="M291,61 l124,0 0,188 -124,0 0,-188" /><path style="fill:#e5e5e5;stroke:#4c4c4c;stroke-width:2" d="M311,269 l376,0 0,-20 -376,0 0,20z" /></svg>