<!DOCTYPE svg PUBLIC "-//W3C//DTD SVG 20000303 Stylable//EN" "http://www.w3.org/TR/2000/03/WD-SVG-20000303/DTD/svg-20000303-stylable.dtd"[]><svg xmlns="http://www.w3.org/2000/svg" width="998px" height="998px" viewBox="0 0 999 999"><path style="fill:#ccc" d="M0,373 l249,0 0,210 -249,0 0,-210z" /><path style="fill:#c7c7c7" d="M0,521 l249,-86 0,148 -249,0 0,-62z" /><path style="fill:#c2c2c2" d="M0,531 l249,-88 0,140 -249,0 0,-52z" /><path style="fill:#bdbdbd" d="M0,543 l249,-86 0,126 -249,0 0,-40z" /><path style="fill:none;stroke:#7f7f7f;stroke-width:2" d="M114,373 l0,178" /><path style="fill:none;stroke:#fff;stroke-width:2" d="M123,373 l0,178" /><path style="fill:none;stroke:#4c4c4c;stroke-width:2" d="M0,373 l249,0 0,210 -249,0 0,-210" /><path style="fill:#4c4c4c" d="M51,571 l376,0 0,240 -376,0 0,-240z" /><path style="fill:#99f" d="M9,832 l980,0 0,167 -980,0 0,-167z" /><path style="fill:#66c" d="M405,999 l0,-84 -250,0 0,84 -10,0 0,-104 270,0 0,104 -10,0z" /><path style="fill:none;stroke:#4c4c4c;stroke-width:2" d="M145,999 l0,-104 270,0 0,104" /><path style="fill:#f2f2f2" d="M9,541 l42,0 0,270 374,0 0,-280 304,-2 0,12 260,0 10,240 -10,30 0,21 -980,0 0,-21 -9,-30 9,-240z" /><path style="fill:#8585eb" d="M155,915 l250,0 0,84 -250,0 0,-84z" /><path style="fill:none;stroke:#4c4c4c;stroke-width:2" d="M9,832 l980,0 0,167 -980,0 0,-167" /><path style="fill:#b2b2b2" d="M0,781 l51,0 0,30 -42,0 -9,-30z" /><path style="fill:#b2b2b2" d="M999,781 l-10,30 -564,0 0,-30 574,0z" /><path style="fill:#b2b2b2" d="M61,571 l354,0 0,240 -354,0 0,-240z" /><path style="fill:#ccc;stroke:#4c4c4c;stroke-width:2" d="M51,551 l374,0 0,20 -374,0 0,-20z" /><path style="fill:#ededed" d="M739,721 l250,-88 10,148 -260,0 0,-60z" /><path style="fill:#ededed" d="M425,707 l304,-104 10,178 -314,0 0,-74z" /><path style="fill:#e8e8e8" d="M739,729 l250,-86 10,138 -260,0 0,-52z" /><path style="fill:#e8e8e8" d="M425,719 l304,-106 10,168 -314,0 0,-62z" /><path style="fill:#e3e3e3" d="M739,741 l250,-86 10,126 -260,0 0,-40z" /><path style="fill:#e3e3e3" d="M425,733 l304,-104 10,152 -314,0 0,-48z" /><path style="fill:none;stroke:#7f7f7f;stroke-width:2" d="M51,821 l927,0" /><path style="fill:none;stroke:#7f7f7f;stroke-width:2" d="M729,541 l10,240 -10,30 0,10" /><path style="fill:none;stroke:#4c4c4c;stroke-width:2" d="M9,541 l42,0 0,270 374,0 0,-280 304,-2 0,12 260,0 10,240 -10,30 0,21 -980,0 0,-21 -9,-30 9,-240" /><path style="fill:#99f" d="M249,0 l166,0 0,551 -166,0 0,-551z" /><path style="fill:#9494fa" d="M249,315 l166,-66 0,302 -166,0 0,-236z" /><path style="fill:#8f8ff5" d="M249,321 l166,-66 0,296 -166,0 0,-230z" /><path style="fill:#8a8af0" d="M249,331 l166,-66 0,286 -166,0 0,-220z" /><path style="fill:none;stroke:#4c4c4c;stroke-width:2" d="M249,0 l166,0 0,551 -166,0 0,-551" /><path style="fill:#4c4c4c" d="M123,727 l230,0 0,64 -10,0 0,20 -208,0 0,-20 -12,0 0,-64z" /><path style="fill:#5e5e5e" d="M137,727 l204,0 0,62 -10,0 0,22 -183,0 0,-22 -11,0 0,-62z" /><path style="fill:#737373" d="M151,727 l176,0 0,62 -8,0 0,22 -160,0 0,-22 -8,0 0,-62z" /><path style="fill:#858585" d="M163,727 l152,0 0,62 -8,0 0,22 -136,0 0,-22 -8,0 0,-62z" /><path style="fill:#999" d="M177,727 l124,0 0,62 -6,0 0,22 -114,0 0,-22 -4,0 0,-62z" /><path style="fill:#ababab" d="M189,727 l100,0 0,62 -6,0 0,22 -90,0 0,-22 -4,0 0,-62z" /><path style="fill:#bfbfbf" d="M203,727 l72,0 0,62 -4,0 0,22 -66,0 0,-22 -2,0 0,-62z" /><path style="fill:#d1d1d1" d="M215,727 l48,0 0,62 -4,0 0,22 -42,0 0,-22 -2,0 0,-62z" /><path style="fill:#e5e5e5" d="M229,727 l20,0 0,64 0,20 -20,0 0,-20 0,-64z" /><path style="fill:none;stroke:#4c4c4c;stroke-width:2" d="M123,727 l230,0 0,64 -10,0 0,20 -208,0 0,-20 -12,0 0,-64" /><path style="fill:none;stroke:#7f7f7f;stroke-width:2" d="M145,791 l188,0" /><path style="fill:#8585eb" d="M42,904 l72,0 0,85 -72,0 0,-85z" /><path style="fill:#000" d="M67,953 l36,0 0,30 -36,0 0,-30z" /><path style="fill:#000" d="M71,931 l23,0 0,20 -23,0 0,-20z" /><path style="fill:#66c" d="M56,931 l11,0 0,52 -11,0 0,-52z" /><path style="fill:#fff;stroke:#4c4c4c;stroke-width:2" d="M56,931 l11,0 0,-11 -11,0 0,11z" /><path style="fill:#339" d="M42,904 l72,0 0,85 -4,-6 0,-72 -59,0 0,72 -9,6 0,-85z" /><path style="fill:none;stroke:#4c4c4c;stroke-width:2" d="M42,904 l72,0 0,85 -72,0 0,-85" /><path style="fill:#333" d="M749,583 l83,0 0,166 -83,0 0,-166z" /><path style="fill:#333" d="M583,583 l82,0 0,166 -82,0 0,-166z" /><path style="fill:#ccc" d="M499,583 l84,0 0,166 -84,0 0,-166z" /><path style="fill:none;stroke:#4c4c4c;stroke-width:2" d="M499,749 l0,-166 166,0" /><path style="fill:none;stroke:#fff;stroke-width:2" d="M665,583 l0,166 -166,0" /><path style="fill:#b2b2ff;stroke:#4c4c4c;stroke-width:2" d="M515,983 l52,0 0,16 -52,0 0,-16z" /><path style="fill:#b2b2ff;stroke:#4c4c4c;stroke-width:2" d="M525,807 l32,0 0,176 -32,0 0,-176z" /><path style="fill:#b2b2ff;stroke:#4c4c4c;stroke-width:2" d="M515,791 l52,0 0,16 -52,0 0,-16z" /><path style="fill:#ccf;stroke:#4c4c4c;stroke-width:2" d="M609,623 l10,6 0,130 -10,6 0,-142z" /><path style="fill:#b2b2ff" d="M519,759 l42,0 0,32 -42,0 0,-32z" /><path style="fill:#c7c7ff" d="M525,759 l32,0 0,32 -32,0 0,-32z" /><path style="fill:#dedeff" d="M531,759 l20,0 0,32 -20,0 0,-32z" /><path style="fill:#f2f2ff" d="M535,759 l10,0 0,32 -10,0 0,-32z" /><path style="fill:none;stroke:#4c4c4c;stroke-width:2" d="M519,759 l42,0 0,32 -42,0 0,-32" /><path style="fill:#e5e5e5;stroke:#4c4c4c;stroke-width:2" d="M505,759 l0,-124 104,-12 0,142 -104,-6z" /><path style="fill:#7f7f7f" d="M509,639 l0,42 94,0 0,-52 -94,10z" /><path style="fill:#333" d="M515,645 l0,32 36,0 0,-36 -36,4z" /><path style="fill:#000" d="M561,687 l6,0 0,68 -6,0 0,-68z" /><path style="fill:#000" d="M571,687 l6,0 0,68 -6,0 0,-68z" /><path style="fill:none;stroke:#b2b2b2;stroke-width:2" d="M551,755 l0,-48 -42,0" /><path style="fill:none;stroke:#ccf;stroke-width:2" d="M269,333 l0,-84 126,0" /><path style="fill:none;stroke:#66c;stroke-width:2" d="M269,333 l126,0 0,-84" /><path style="fill:none;stroke:#66c;stroke-width:2" d="M255,343 l156,0" /></svg>