<!DOCTYPE svg PUBLIC "-//W3C//DTD SVG 20000303 Stylable//EN" "http://www.w3.org/TR/2000/03/WD-SVG-20000303/DTD/svg-20000303-stylable.dtd"[]><svg xmlns="http://www.w3.org/2000/svg" width="891px" height="999px" viewBox="0 0 885 999"><path style="fill:#7f7f7f;stroke:#4c4c4c;stroke-width:2" d="M23,763 l-6,40 -17,0 0,20 101,0 0,-60 -78,0z" /><path style="fill:#7f7f7f" d="M101,763 l-20,60 98,176 706,0 0,-216 -18,-20 -766,0z" /><path style="fill:#787878" d="M143,933 l36,66 706,0 0,-216 -742,150z" /><path style="fill:none;stroke:#4c4c4c;stroke-width:2" d="M101,763 l-20,60 98,176 706,0 0,-216 -18,-20 -766,0" /><path style="fill:#666;stroke:#4c4c4c;stroke-width:2" d="M395,333 l0,430 -332,0 0,-430 332,0z" /><path style="fill:#5e5e5e" d="M395,333 l0,430 -332,0 332,-430z" /><path style="fill:#666" d="M395,97 l0,412 256,0 0,-412 -256,0z" /><path style="fill:#737373" d="M415,97 l0,412 216,0 0,-412 -216,0z" /><path style="fill:none;stroke:#4c4c4c;stroke-width:2" d="M395,97 l0,412 256,0 0,-412 -256,0" /><path style="fill:#4c4c4c;stroke:#4c4c4c;stroke-width:2" d="M395,763 l0,-254 256,0 0,254 -256,0z" /><path style="fill:#7f7f7f;stroke:#4c4c4c;stroke-width:2" d="M23,351 l0,412 40,0 0,-450 -40,38z" /><path style="fill:#7f7f7f;stroke:#4c4c4c;stroke-width:2" d="M493,97 l0,-58 -38,18 0,40 38,0z" /><path style="fill:#4c4c4c" d="M493,97 l0,-58 158,0 0,58 -158,0z" /><path style="fill:#7f7f7f" d="M591,743 l0,-372 -216,0 0,372 216,0z" /><path style="fill:#7f7f7f;stroke:#4c4c4c;stroke-width:2" d="M651,763 l0,-706 136,0 24,8 20,13 16,16 11,21 9,22 -2,626 -214,0z" /><path style="fill:#8c8c8c" d="M591,803 l0,-412 -216,0 0,352 -196,0 0,60 412,0z" /><path style="fill:none;stroke:#4c4c4c;stroke-width:2" d="M591,803 l0,-432 -216,0 0,372 -196,0 0,60 412,0" /><path style="fill:none;stroke:#b2b2b2;stroke-width:2" d="M179,763 l412,0" /><path style="fill:none;stroke:#666;stroke-width:2" d="M179,759 l412,0" /><path style="fill:none;stroke:#666;stroke-width:2" d="M375,743 l216,0" /><path style="fill:#7f7f7f" d="M439,451 l0,304 -24,0 0,-304 24,0z" /><path style="fill:#999" d="M437,451 l0,304 -20,0 0,-304 20,0z" /><path style="fill:#b2b2b2" d="M435,451 l0,304 -16,0 0,-304 16,0z" /><path style="fill:#ccc" d="M433,451 l0,304 -12,0 0,-304 12,0z" /><path style="fill:#e5e5e5" d="M431,451 l0,304 -8,0 0,-304 8,0z" /><path style="fill:#fff" d="M429,451 l0,304 -4,0 0,-304 4,0z" /><path style="fill:none;stroke:#4c4c4c;stroke-width:2" d="M439,451 l0,304 -24,0 0,-304 24,0" /><path style="fill:#7f7f7f" d="M553,451 l0,304 -24,0 0,-304 24,0z" /><path style="fill:#999" d="M551,451 l0,304 -22,0 0,-304 22,0z" /><path style="fill:#b2b2b2" d="M549,451 l0,304 -16,0 0,-304 16,0z" /><path style="fill:#ccc" d="M545,451 l0,304 -10,0 0,-304 10,0z" /><path style="fill:#e5e5e5" d="M543,451 l0,304 -6,0 0,-304 6,0z" /><path style="fill:#fff" d="M541,451 l0,304 -2,0 0,-304 2,0z" /><path style="fill:none;stroke:#4c4c4c;stroke-width:2" d="M553,451 l0,304 -24,0 0,-304 24,0" /><path style="fill:#7f7f7f" d="M733,793 l-254,0 0,-14 254,0 0,14z" /><path style="fill:#999" d="M733,793 l-254,0 0,-14 254,0 0,14z" /><path style="fill:#b2b2b2" d="M733,791 l-254,0 0,-10 254,0 0,10z" /><path style="fill:#ccc" d="M733,789 l-254,0 0,-6 254,0 0,6z" /><path style="fill:#e5e5e5" d="M733,789 l-254,0 0,-6 254,0 0,6z" /><path style="fill:#fff" d="M733,787 l-254,0 0,-2 254,0 0,2z" /><path style="fill:none;stroke:#4c4c4c;stroke-width:2" d="M733,793 l-254,0 0,-14 254,0 0,14" /><path style="fill:#666" d="M651,97 l0,-58 -80,18 -58,40 138,0z" /><path style="fill:#999" d="M661,421 l102,0 0,180 -102,0 0,-180z" /><path style="fill:none;stroke:#ccc;stroke-width:2" d="M661,601 l0,-180 102,0" /><path style="fill:none;stroke:#4c4c4c;stroke-width:2" d="M661,601 l102,0 0,-180" /><circle style="fill:none;stroke:#4c4c4c;stroke-width:2" cx="721" cy="565" r="52" /><path style="fill:none;stroke:#4c4c4c;stroke-width:2" d="M709,615 l26,-100" /><path style="fill:none;stroke:#4c4c4c;stroke-width:2" d="M671,553 l100,26" /><path style="fill:none;stroke:#4c4c4c;stroke-width:2" d="M493,97 l0,-58 158,0 0,58 -158,0" /><path style="fill:#999" d="M597,749 l270,0 0,14 -270,0 0,-14z" /><path style="fill:#4c4c4c" d="M469,142 l138,0 0,83 -138,0 0,-83z" /><path style="fill:none;stroke:#4c4c4c;stroke-width:2" d="M489,475 l-10,-402 10,-43 20,-25 14,-5 20,5 10,14 4,20" /><path style="fill:#999" d="M475,475 l24,0 0,76 -24,0 0,-76z" /><path style="fill:none;stroke:#ccc;stroke-width:2" d="M475,551 l0,-76 24,0" /><path style="fill:none;stroke:#4c4c4c;stroke-width:2" d="M475,551 l24,0 0,-76" /><path style="fill:#4c4c4c" d="M189,931 l20,0 0,48 -20,0 0,-48z" /><path style="fill:#4c4c4c" d="M847,931 l20,0 0,48 -20,0 0,-48z" /></svg>