<!DOCTYPE svg PUBLIC "-//W3C//DTD SVG 20000303 Stylable//EN" "http://www.w3.org/TR/2000/03/WD-SVG-20000303/DTD/svg-20000303-stylable.dtd"[]><svg xmlns="http://www.w3.org/2000/svg" width="999px" height="999px" viewBox="0 0 999 999"><path style="fill:#e5e5e5" d="M20,333 l-20,500 20,143 313,23 332,0 313,-23 21,-143 -21,-500 -958,0z" /><path style="fill:#e0e0e0" d="M0,833 l20,143 313,23 332,0 313,-23 21,-143 -999,0z" /><path style="fill:#32b2b2" d="M6,781 l986,0 0,-32 -986,0 0,32z" /><path style="fill:#000" d="M411,989 l4,0 0,3 -4,0 0,-3z" /><path style="fill:#000" d="M411,937 l4,0 0,6 -4,0 0,-6z" /><path style="fill:#000" d="M411,887 l4,0 0,5 -4,0 0,-5z" /><path style="fill:#000" d="M411,837 l4,0 0,4 -4,0 0,-4z" /><path style="fill:#000" d="M411,785 l4,0 0,6 -4,0 0,-6z" /><path style="fill:#000" d="M603,989 l6,0 0,3 -6,0 0,-3z" /><path style="fill:#000" d="M603,937 l6,0 0,6 -6,0 0,-6z" /><path style="fill:#000" d="M603,887 l6,0 0,5 -6,0 0,-5z" /><path style="fill:#000" d="M603,837 l6,0 0,4 -6,0 0,-4z" /><path style="fill:#000" d="M603,785 l6,0 0,6 -6,0 0,-6z" /><path style="fill:#000" d="M481,785 l6,0 0,6 -6,0 0,-6z" /><path style="fill:#000" d="M509,785 l6,0 0,6 -6,0 0,-6z" /><path style="fill:none;stroke:#b2b2b2;stroke-width:2" d="M619,999 l0,-218" /><path style="fill:none;stroke:#b2b2b2;stroke-width:2" d="M395,999 l0,-218" /><path style="fill:none;stroke:#b2b2b2;stroke-width:2" d="M20,957 l375,0" /><path style="fill:none;stroke:#b2b2b2;stroke-width:2" d="M623,957 l355,0" /><path style="fill:none;stroke:#fff;stroke-width:2" d="M623,999 l0,-218" /><path style="fill:none;stroke:#fff;stroke-width:2" d="M399,999 l0,-218" /><path style="fill:#e5e5e5" d="M353,0 l166,0 0,333 -166,0 0,-333z" /><path style="fill:#e0e0e0" d="M353,235 l166,-137 0,235 -166,0 0,-98z" /><path style="fill:#dbdbdb" d="M353,249 l166,-138 0,222 -166,0 0,-84z" /><path style="fill:#d6d6d6" d="M353,271 l166,-140 0,202 -166,0 0,-62z" /><path style="fill:none;stroke:#4c4c4c;stroke-width:2" d="M353,0 l166,0 0,333 -166,0 0,-333" /><path style="fill:#e5e5e5" d="M187,269 l166,0 0,64 -166,0 0,-64z" /><path style="fill:none;stroke:#4c4c4c;stroke-width:2" d="M20,333 l-20,500 20,143 313,23 332,0 313,-23 21,-143 -21,-500 -958,0" /><path style="fill:#b2b2b2;stroke:#7f7f7f;stroke-width:2" d="M395,123 l84,0 0,84 -84,0 0,-84z" /><path style="fill:#b2b2b2;stroke:#7f7f7f;stroke-width:2" d="M249,269 l42,0 0,22 -42,0 0,-22z" /><path style="fill:none;stroke:#4c4c4c;stroke-width:2" d="M187,269 l166,0 0,64 -166,0 0,-64" /><path style="fill:#e5e5e5;stroke:#4c4c4c;stroke-width:2" d="M519,227 l224,-29 0,29 -224,22 0,-22z" /><path style="fill:#fff;stroke:#4c4c4c;stroke-width:2" d="M785,198 l-42,0 0,29 42,0 0,-29z" /><path style="fill:#ccc" d="M781,229 l-32,0 0,140 32,0 0,-140z" /><path style="fill:#e5e5e5" d="M777,229 l-24,0 0,140 24,0 0,-140z" /><path style="fill:#f2f2f2" d="M773,229 l-16,0 0,140 16,0 0,-140z" /><path style="fill:#fff" d="M769,229 l-8,0 0,140 8,0 0,-140z" /><path style="fill:none;stroke:#4c4c4c;stroke-width:2" d="M781,229 l-32,0 0,140 32,0 0,-140" /><path style="fill:#fff;stroke:#4c4c4c;stroke-width:2" d="M291,707 l42,-20 332,0 42,20 -416,0z" /><path style="fill:#ccc;stroke:#4c4c4c;stroke-width:2" d="M291,707 l42,-20 0,-292 -42,-22 0,334z" /><path style="fill:#ccc;stroke:#4c4c4c;stroke-width:2" d="M707,707 l-40,-20 0,-292 40,-22 0,334z" /><path style="fill:#b2b2b2;stroke:#4c4c4c;stroke-width:2" d="M291,373 l42,22 332,0 42,-22 -416,0z" /><path style="fill:#d9d9d9" d="M707,707 l-32,0 0,-334 32,2 0,332z" /><path style="fill:#d9d9d9" d="M291,373 l30,0 0,334 -30,0 0,-334z" /><path style="fill:#000" d="M301,583 l0,-84 10,0 0,84 -10,0z" /><path style="fill:#000" d="M687,583 l0,-84 10,0 0,84 -10,0z" /><path style="fill:none;stroke:#7f7f7f;stroke-width:2" d="M675,707 l0,-332" /><path style="fill:none;stroke:#7f7f7f;stroke-width:2" d="M321,373 l0,334" /><path style="fill:none;stroke:#fff;stroke-width:2" d="M707,375 l0,332 -416,0" /><path style="fill:none;stroke:#4c4c4c;stroke-width:2" d="M291,707 l0,-332 416,0" /><path style="fill:none;stroke:#4c4c4c;stroke-width:2" d="M717,493 l0,16 94,10 0,-20" /><path style="fill:#ccc;stroke:#4c4c4c;stroke-width:2" d="M697,369 l124,-10 0,146 -124,-12 0,-124z" /><path style="fill:#fff;stroke:#4c4c4c;stroke-width:2" d="M843,369 l-22,-10 0,146 22,-12 0,-124z" /><path style="fill:#666" d="M719,381 l80,-6 0,94 -80,-8 0,-80z" /><path style="fill:#333" d="M723,385 l72,-6 0,84 -72,-6 0,-72z" /><path style="fill:none;stroke:#7f7f7f;stroke-width:2" d="M697,467 l124,12" /><path style="fill:none;stroke:#7f7f7f;stroke-width:2" d="M755,499 l0,-26" /></svg>