<!DOCTYPE svg PUBLIC "-//W3C//DTD SVG 20000303 Stylable//EN" "http://www.w3.org/TR/2000/03/WD-SVG-20000303/DTD/svg-20000303-stylable.dtd"[]><svg xmlns="http://www.w3.org/2000/svg" width="999px" height="812px" viewBox="0 0 999 801"><path style="fill:#7f4c00" d="M947,177 l30,0 0,165 -30,0 0,-165z" /><path style="fill:#8f5c00" d="M947,191 l30,0 0,138 -30,0 0,-138z" /><path style="fill:#9e6b05" d="M947,207 l30,0 0,106 -30,0 0,-106z" /><path style="fill:#ad7a14" d="M947,221 l30,0 0,78 -30,0 0,-78z" /><path style="fill:#bd8a24" d="M947,235 l30,0 0,50 -30,0 0,-50z" /><path style="fill:#c93" d="M947,251 l30,0 0,18 -30,0 0,-18z" /><path style="fill:none;stroke:#4c4c4c;stroke-width:2" d="M947,177 l30,0 0,165 -30,0 0,-165" /><path style="fill:#7f4c00" d="M947,406 l52,0 0,188 -52,0 0,-188z" /><path style="fill:#8f5c00" d="M947,422 l52,0 0,154 -52,0 0,-154z" /><path style="fill:#9e6b05" d="M947,438 l52,0 0,122 -52,0 0,-122z" /><path style="fill:#ad7a14" d="M947,454 l52,0 0,88 -52,0 0,-88z" /><path style="fill:#bd8a24" d="M947,472 l52,0 0,54 -52,0 0,-54z" /><path style="fill:#c93" d="M947,488 l52,0 0,22 -52,0 0,-22z" /><path style="fill:none;stroke:#4c4c4c;stroke-width:2" d="M947,406 l52,0 0,188 -52,0 0,-188" /><path style="fill:#7f4c00" d="M895,177 l0,-104 62,0 0,104 -62,0z" /><path style="fill:#8f5c00" d="M899,177 l0,-104 52,0 0,104 -52,0z" /><path style="fill:#9e6b05" d="M905,177 l0,-104 40,0 0,104 -40,0z" /><path style="fill:#ad7a14" d="M911,177 l0,-104 30,0 0,104 -30,0z" /><path style="fill:#bd8a24" d="M917,177 l0,-104 18,0 0,104 -18,0z" /><path style="fill:#c93" d="M923,177 l0,-104 6,0 0,104 -6,0z" /><path style="fill:none;stroke:#4c4c4c;stroke-width:2" d="M895,177 l0,-104 62,0 0,104 -62,0" /><path style="fill:#000" d="M0,769 l999,0 0,-10 -999,0 0,10z" /><path style="fill:#c93" d="M0,93 l749,0 0,271 -749,0 0,-271z" /><path style="fill:#c93;stroke:#4c4c4c;stroke-width:2" d="M0,636 l999,0 0,123 -999,0 0,-123z" /><path style="fill:#c93;stroke:#4c4c4c;stroke-width:2" d="M41,11 l541,0 0,20 -541,0 0,-20z" /><path style="fill:#960;stroke:#4c4c4c;stroke-width:2" d="M83,31 l457,0 0,62 -457,0 0,-62z" /><path style="fill:#960" d="M749,636 l198,0 0,-148 -198,0 0,148z" /><path style="fill:#c93;stroke:#4c4c4c;stroke-width:2" d="M31,791 l82,0 0,10 -82,0 0,-10z" /><path style="fill:#960;stroke:#4c4c4c;stroke-width:2" d="M41,791 l62,0 0,-32 -62,0 0,32z" /><path style="fill:#c93;stroke:#4c4c4c;stroke-width:2" d="M873,791 l84,0 0,10 -84,0 0,-10z" /><path style="fill:#960;stroke:#4c4c4c;stroke-width:2" d="M883,791 l64,0 0,-32 -64,0 0,32z" /><path style="fill:#c93" d="M749,177 l208,0 0,311 -208,0 0,-311z" /><path style="fill:#c7942e" d="M749,398 l208,-129 0,219 -208,0 0,-90z" /><path style="fill:#c28f29" d="M749,412 l208,-131 0,207 -208,0 0,-76z" /><path style="fill:#bd8a24" d="M749,430 l208,-129 0,187 -208,0 0,-58z" /><path style="fill:none;stroke:#4c4c4c;stroke-width:2" d="M749,177 l208,0 0,311 -208,0 0,-311" /><path style="fill:#f2e5cc" d="M771,342 l24,0 0,42 -24,0 0,-42z" /><path style="fill:#333" d="M865,406 l68,0 0,62 -68,0 0,-62z" /><path style="fill:none;stroke:#4c4c4c;stroke-width:2" d="M749,177 l208,0 0,311 -208,0 0,-311" /><path style="fill:#e5e5e5" d="M875,416 l48,0 0,20 -48,0 0,-20z" /><path style="fill:#c7942e" d="M0,273 l749,-130 0,221 -749,0 0,-91z" /><path style="fill:#c28f29" d="M0,287 l749,-130 0,207 -749,0 0,-77z" /><path style="fill:#bd8a24" d="M0,307 l749,-132 0,189 -749,0 0,-57z" /><path style="fill:none;stroke:#4c4c4c;stroke-width:2" d="M0,93 l749,0 0,271 -749,0 0,-271" /><path style="fill:#bf2600" d="M187,177 l146,0 0,42 -146,0 0,-42z" /><path style="fill:#c93" d="M0,364 l749,0 0,272 -749,0 0,-272z" /><path style="fill:#c7942e" d="M0,544 l749,-130 0,222 -749,0 0,-92z" /><path style="fill:#c28f29" d="M0,558 l749,-132 0,210 -749,0 0,-78z" /><path style="fill:#bd8a24" d="M0,576 l749,-130 0,190 -749,0 0,-60z" /><path style="fill:none;stroke:#4c4c4c;stroke-width:2" d="M0,364 l749,0 0,272 -749,0 0,-272" /><path style="fill:#c93;stroke:#4c4c4c;stroke-width:2" d="M135,31 l28,0 0,62 -28,0 0,-62z" /><path style="fill:#c93;stroke:#4c4c4c;stroke-width:2" d="M247,31 l28,0 0,62 -28,0 0,-62z" /><path style="fill:#c93;stroke:#4c4c4c;stroke-width:2" d="M358,31 l28,0 0,62 -28,0 0,-62z" /><path style="fill:#c93;stroke:#4c4c4c;stroke-width:2" d="M470,31 l28,0 0,62 -28,0 0,-62z" /><path style="fill:#bf2600;stroke:#4c4c4c;stroke-width:2" d="M61,11 l501,0 0,-11 -501,0 0,11z" /><path style="fill:#8c5900" d="M749,542 l198,-32 0,-22 -198,0 0,54z" /><path style="fill:none;stroke:#4c4c4c;stroke-width:2" d="M749,636 l198,0 0,-148 -198,0 0,148" /><path style="fill:none;stroke:#fc6;stroke-width:2" d="M749,368 l-749,0" /><path style="fill:none;stroke:#7f4c00;stroke-width:2" d="M749,364 l-749,0" /><path style="fill:none;stroke:#fc6;stroke-width:2" d="M999,640 l-999,0" /><path style="fill:none;stroke:#7f4c00;stroke-width:2" d="M749,636 l-749,0" /></svg>