<!DOCTYPE svg PUBLIC "-//W3C//DTD SVG 20000303 Stylable//EN" "http://www.w3.org/TR/2000/03/WD-SVG-20000303/DTD/svg-20000303-stylable.dtd"[]><svg xmlns="http://www.w3.org/2000/svg" width="823px" height="999px" viewBox="0 0 813 999"><path style="fill:#191919;stroke:#4c4c4c;stroke-width:2" d="M102,990 l-102,0 0,-355 18,0 0,-196 84,0 0,551z" /><path style="fill:#ccc;stroke:#4c4c4c;stroke-width:2" d="M85,643 l0,-118 524,0 0,-170 -42,0 0,-34 177,0 0,627 -34,0 -625,-305z" /><path style="fill:#000" d="M85,980 l17,19 101,0 16,-19 -134,0z" /><path style="fill:#000" d="M559,980 l16,19 102,0 18,-19 -136,0z" /><path style="fill:#000" d="M219,980 l-8,10 356,0 -8,-10 -340,0z" /><path style="fill:#333" d="M68,643 l0,337 642,0 0,-337 -642,0z" /><path style="fill:#2e2e2e" d="M68,890 l642,-129 0,219 -642,0 0,-90z" /><path style="fill:#292929" d="M68,904 l642,-129 0,205 -642,0 0,-76z" /><path style="fill:#242424" d="M68,924 l642,-130 0,186 -642,0 0,-56z" /><path style="fill:none;stroke:#7f7f7f;stroke-width:2" d="M710,930 l34,0" /><path style="fill:none;stroke:#4c4c4c;stroke-width:2" d="M68,643 l0,337 642,0 0,-337 -642,0" /><path style="fill:none;stroke:#7f7f7f;stroke-width:2" d="M68,980 l0,-337 642,0" /><path style="fill:#b2b2b2;stroke:#4c4c4c;stroke-width:2" d="M102,439 l507,0 0,86 -507,0 0,-86z" /><path style="fill:#999;stroke:#4c4c4c;stroke-width:2" d="M567,355 l42,0 0,84 -42,0 0,-84z" /><path style="fill:#4c4c4c;stroke:#4c4c4c;stroke-width:2" d="M237,7 l330,0 0,432 -330,0 0,-432z" /><path style="fill:#000" d="M363,60 l112,0 0,431 -112,0 0,-431z" /><path style="fill:#333" d="M373,60 l92,0 0,431 -92,0 0,-431z" /><path style="fill:#4c4c4c" d="M389,60 l60,0 0,431 -60,0 0,-431z" /><path style="fill:none;stroke:#4c4c4c;stroke-width:2" d="M363,60 l112,0 0,431 -112,0 0,-431" /><path style="fill:#ccc;stroke:#4c4c4c;stroke-width:2" d="M305,439 l0,-439 170,0 0,117 -18,0 0,-57 -94,0 0,379 -58,0z" /><path style="fill:#7f7f7f" d="M601,449 l0,76 -84,0 0,-76 84,0z" /><path style="fill:#999" d="M595,449 l0,76 -74,0 0,-76 74,0z" /><path style="fill:#b2b2b2" d="M587,449 l0,76 -56,0 0,-76 56,0z" /><path style="fill:#ccc" d="M579,449 l0,76 -40,0 0,-76 40,0z" /><path style="fill:#e5e5e5" d="M571,449 l0,76 -24,0 0,-76 24,0z" /><path style="fill:#fff" d="M565,449 l0,76 -12,0 0,-76 12,0z" /><path style="fill:none;stroke:#4c4c4c;stroke-width:2" d="M601,449 l0,76 -84,0 0,-76 84,0" /><path style="fill:#e5e5e5" d="M729,253 l34,0 0,186 -34,0 0,-186z" /><path style="fill:#e5e5e5" d="M627,271 l34,0 0,50 -34,0 0,-50z" /><path style="fill:#b2b2b2" d="M627,271 l102,-18 0,34 -68,8 -34,-24z" /><path style="fill:none;stroke:#4c4c4c;stroke-width:2" d="M627,321 l0,-50 102,-18 34,0 0,186 -34,0 0,-152 -68,8 0,26 -34,0" /><path style="fill:#e5e5e5;stroke:#4c4c4c;stroke-width:2" d="M669,439 l117,-8 0,204 -117,-8 0,-188z" /><path style="fill:#b2b2b2;stroke:#4c4c4c;stroke-width:2" d="M813,439 l-27,-8 0,204 27,-8 0,-188z" /><path style="fill:none;stroke:#fff;stroke-width:2" d="M677,559 l0,-102 102,-4" /><path style="fill:none;stroke:#999;stroke-width:2" d="M677,559 l102,-2 0,-104" /><path style="fill:#4c4c4c;stroke:#4c4c4c;stroke-width:2" d="M685,483 l86,-6 0,52 -86,0 0,-46z" /><path style="fill:none;stroke:#4c4c4c;stroke-width:2" d="M677,605 l102,4" /><path style="fill:none;stroke:#4c4c4c;stroke-width:2" d="M379,48 l-10,-13 0,-15 10,-13 16,0 12,13 0,15 -12,13 -16,0" /><path style="fill:#7f7f7f" d="M551,673 l134,0 0,30 -134,0 0,-30z" /></svg>