<svg version="1.1" xmlns="http://www.w3.org/2000/svg" xmlns:xlink="http://www.w3.org/1999/xlink" width="112px" height="45px" viewBox="0 0 112.5 44.936" enable-background="new 0 0 112.5 44.936" xml:space="preserve">
<g id="Group_Pusher_Body">
	
		<linearGradient id="SVGID_1_" gradientUnits="userSpaceOnUse" x1="67.3652" y1="53.1628" x2="45.0204" y2="-8.2292" gradientTransform="matrix(-1 0 0 -1 112.5 44.9351)">
		<stop offset="0" style="stop-color:#596D8C" />
		<stop offset="0.28" style="stop-color:#5D7190" />
		<stop offset="0.5" style="stop-color:#6F83A2" />
		<stop offset="1" style="stop-color:#7387A6" />
	</linearGradient>
	<path fill="url(#SVGID_1_)" d="M90.091,0.002v44.932H22.522V0.002H90.091z" />
	<path fill="none" stroke="#4C4C4C" stroke-width="0.25" d="M90.091,44.933V0.002" />
	<path fill="none" stroke="#4C4C4C" stroke-width="0.25" d="M90.091,0.002v44.932H22.522V0.002H90.091" />
	<path fill="none" stroke="#BFD3F2" stroke-width="0.25" d="M90.091,0.002v44.932H22.522" />
</g>
<g id="Group_Handle">
	<path fill="#263A59" stroke="#4C4C4C" d="M90.091,0.002v44.932H112.5V0.002H90.091z" />
	
		<linearGradient id="SVGID_2_" gradientUnits="userSpaceOnUse" x1="25.7988" y1="38.7761" x2="-1.4751" y2="6.2723" gradientTransform="matrix(-1 0 0 -1 112.5 44.9351)">
		<stop offset="0" style="stop-color:#CCCCCC" />
		<stop offset="0.5" style="stop-color:#F0F0F0" />
		<stop offset="1" style="stop-color:#CCCCCC" />
	</linearGradient>
	<path fill="url(#SVGID_2_)" d="M91.893,43.019h16.892V1.803H91.893V43.019z" />
	<path fill="none" stroke="#4C4C4C" d="M91.893,43.019h16.892V1.803H91.893V43.019" />
	<path id="old" fill="none" stroke="#7387A6" d="M112.5,0.002v44.932H90.091" />
	<path fill="none" stroke="#FFFFFF" stroke-width="2" d="M91.665,43.075V1.86h16.892" />
</g>
<g id="Group_Yellow_Stripe">
	<path fill="#FFFF00" stroke="#4C4C4C" stroke-width="0.25" d="M22.522,0.002v44.932H0V0.002H22.522z" />
</g>
<g id="Group_Black_Stripe">
	<path fill="#333333" d="M22.522,44.933V33.559L11.262,44.933H22.522z" />
	<path fill="#333333" d="M11.262,33.785l11.261-11.261V11.15L11.262,22.524V33.785z" />
	<path fill="#333333" d="M11.262,11.262L22.522,0.002H11.262V11.262z" />
	<path fill="#333333" d="M11.374,44.933V33.559L0,44.933H11.374z" />
	<path fill="#333333" d="M0,33.785l11.374-11.261V11.15L0,22.524V33.785z" />
	<path fill="#333333" d="M0,11.262L11.374,0.002H0V11.262z" />
</g>
</svg>