<!DOCTYPE svg PUBLIC "-//W3C//DTD SVG 20000303 Stylable//EN" "http://www.w3.org/TR/2000/03/WD-SVG-20000303/DTD/svg-20000303-stylable.dtd"[]><svg xmlns="http://www.w3.org/2000/svg" width="292px" height="999px" viewBox="0 0 249 999"><path style="fill:#0ff;stroke:#4c4c4c;stroke-width:2" d="M249,61 l0,-61 -249,0 0,61 249,0z" /><path style="fill:#0ff;stroke:#4c4c4c;stroke-width:2" d="M218,436 l0,-375 -31,0 0,375 31,0z" /><path style="fill:#0ff;stroke:#4c4c4c;stroke-width:2" d="M62,436 l0,-375 -31,0 0,375 31,0z" /><path style="fill:#0ff;stroke:#4c4c4c;stroke-width:2" d="M249,999 l-249,0 0,-563 249,0 0,563z" /><path style="fill:#0ff;stroke:#4c4c4c;stroke-width:2" d="M15,890 l0,92 218,1 0,-93 -218,0z" /><path style="fill:none;stroke:#4c4c4c;stroke-width:2" d="M218,61 l-63,-61" /><path style="fill:none;stroke:#4c4c4c;stroke-width:2" d="M155,61 l-62,-61" /><path style="fill:none;stroke:#4c4c4c;stroke-width:2" d="M93,61 l-63,-61" /><path style="fill:none;stroke:#4c4c4c;stroke-width:2" d="M30,61 l-30,-31" /><path style="fill:none;stroke:#4c4c4c;stroke-width:2" d="M249,30 l-31,-30" /><path style="fill:none;stroke:#4c4c4c;stroke-width:2" d="M249,499 l-249,0" /><path style="fill:none;stroke:#4c4c4c;stroke-width:2" d="M249,874 l-249,0" /><path style="fill:none;stroke:#4c4c4c;stroke-width:2" d="M218,499 l-63,-62" /><path style="fill:none;stroke:#4c4c4c;stroke-width:2" d="M155,499 l-62,-62" /><path style="fill:none;stroke:#4c4c4c;stroke-width:2" d="M93,499 l-63,-62" /><path style="fill:none;stroke:#4c4c4c;stroke-width:2" d="M30,499 l-30,-31" /><path style="fill:none;stroke:#4c4c4c;stroke-width:2" d="M249,468 l-31,-31" /></svg>