<!DOCTYPE svg PUBLIC "-//W3C//DTD SVG 1.1//EN" "http://www.w3.org/Graphics/SVG/1.1/DTD/svg11.dtd"[]><svg version="1.1" xmlns="http://www.w3.org/2000/svg" xmlns:xlink="http://www.w3.org/1999/xlink" width="98px" height="112px" viewBox="0 0 97.617 112.5" enable-background="new 0 0 97.617 112.5" xml:space="preserve">

<g id="Group_45_Angle">
<linearGradient id="SVGID_1_" gradientUnits="userSpaceOnUse" x1="44.5852" y1="42.4512" x2="80.9229" y2="120.3777" gradientTransform="matrix(0 -1 -1 0 127.6116 128.9475)">
	<stop offset="0.01" style="stop-color:#646566" />
	<stop offset="0.53" style="stop-color:#CCCCCC" />
	<stop offset="1" style="stop-color:#646566" />
</linearGradient>
<path fill="url(#SVGID_1_)" d="M72.172,112.22l0.001-35.614l25.202-26.191L47.253-0.412c0,0-28.912,29.12-32.542,34.626  C11.08,39.721,1.875,56.246,1.283,69.007C0.689,81.769,0.987,112.21,0.987,112.21L72.172,112.22z" />
<linearGradient id="SVGID_2_" gradientUnits="userSpaceOnUse" x1="26.2478" y1="40.5879" x2="95.3469" y2="40.5879" gradientTransform="matrix(-0.7438 -0.7336 -0.6929 0.7025 131.3488 55.8203)">
	<stop offset="0" style="stop-color:#646566" />
	<stop offset="0.52" style="stop-color:#E0E0E0" />
	<stop offset="0.84" style="stop-color:#929293" />
	<stop offset="0.99" style="stop-color:#656667" />
</linearGradient>
<path fill="url(#SVGID_2_)" d="M21.912,26.348c0,0.127-0.011,0.246-0.018,0.368l47.299,53.073l28.424-29.173L46.99-0.152  L21.764,25.077C21.858,25.47,21.912,25.891,21.912,26.348z" />
<linearGradient id="SVGID_3_" gradientUnits="userSpaceOnUse" x1="-2.8528" y1="21.7935" x2="67.1887" y2="21.7935" gradientTransform="matrix(1.027 -9.000000e-004 -9.000000e-004 -1.0367 3.1917 116.807)">
	<stop offset="0.01" style="stop-color:#656667" />
	<stop offset="0.16" style="stop-color:#909091" />
	<stop offset="0.49" style="stop-color:#E0E0E0" />
	<stop offset="1" style="stop-color:#646566" />
</linearGradient>
<path fill="url(#SVGID_3_)" d="M0.258,76.019v36.323l71.902,0.01l-0.001-36.298L0.258,76.019z" />
<linearGradient id="SVGID_4_" gradientUnits="userSpaceOnUse" x1="42.9695" y1="95.2207" x2="50.4874" y2="23.5696" gradientTransform="matrix(0.6569 -0.754 -0.754 -0.6569 57.8607 128.7714)">
	<stop offset="0.01" style="stop-color:#636465" />
	<stop offset="0.17" style="stop-color:#909091" />
	<stop offset="0.49" style="stop-color:#E0E0E0" />
	<stop offset="1" style="stop-color:#646566" />
</linearGradient>
<path fill="url(#SVGID_4_)" d="M72.161,76.777L8.324,44.04c0,0,2.676-6.192,6.162-10.318c1.4-1.656,1.4-1.656,7.516-8.893  L72.161,76.777z" />
<linearGradient id="SVGID_5_" gradientUnits="userSpaceOnUse" x1="27.825" y1="97.2051" x2="40.9497" y2="26.5058" gradientTransform="matrix(0.5034 -0.864 -0.864 -0.5034 74.4001 125.6332)">
	<stop offset="0.01" style="stop-color:#636465" />
	<stop offset="0.17" style="stop-color:#909091" />
	<stop offset="0.49" style="stop-color:#E0E0E0" />
	<stop offset="1" style="stop-color:#646566" />
</linearGradient>
<path fill="url(#SVGID_5_)" d="M72.161,76.777c0,0-70.718-12.609-70.64-12.963c2.354-10.529,2.621-10.271,3.354-12.279  c0.625-1.71,0.625-1.71,4.264-9.389L72.161,76.777z" />
<linearGradient id="SVGID_6_" gradientUnits="userSpaceOnUse" x1="17.4998" y1="92.0127" x2="30.6416" y2="21.2212" gradientTransform="matrix(0.2833 -0.9591 -0.9591 -0.2833 83.7822 112.6682)">
	<stop offset="0.01" style="stop-color:#636465" />
	<stop offset="0.17" style="stop-color:#909091" />
	<stop offset="0.49" style="stop-color:#E0E0E0" />
	<stop offset="1" style="stop-color:#646566" />
</linearGradient>
<path fill="url(#SVGID_6_)" d="M72.161,76.777L0.258,80.191c0,0,0.076-9.074,0.299-11.004c0.279-2.42,1.852-9.567,1.852-9.567  L72.161,76.777z" />
</g>
</svg>