<!DOCTYPE svg PUBLIC "-//W3C//DTD SVG 1.1//EN" "http://www.w3.org/Graphics/SVG/1.1/DTD/svg11.dtd"[]><svg version="1.1" xmlns="http://www.w3.org/2000/svg" xmlns:xlink="http://www.w3.org/1999/xlink" width="98px" height="112px" viewBox="0 0 97.617 112.5" enable-background="new 0 0 97.617 112.5" xml:space="preserve">

<g id="Group_45_Angle">
<linearGradient id="SVGID_1_" gradientUnits="userSpaceOnUse" x1="81.76" y1="120.5508" x2="45.3694" y2="42.511" gradientTransform="matrix(0 1 -1 0 127.6116 -17.8889)">
	<stop offset="0.01" style="stop-color:#646566" />
	<stop offset="0.5" style="stop-color:#CCCCCC" />
	<stop offset="1" style="stop-color:#646566" />
</linearGradient>
<path fill="url(#SVGID_1_)" d="M72.286,0l0.002,35.396l25.329,26.03l-50.375,50.515c0,0-29.058-28.941-32.706-34.414  S1.637,55.631,1.041,42.948C0.445,30.265,0.743,0.01,0.743,0.01L72.286,0z" />
<linearGradient id="SVGID_2_" gradientUnits="userSpaceOnUse" x1="26.2473" y1="40.5879" x2="95.3459" y2="40.5879" gradientTransform="matrix(-0.7438 0.7336 -0.6929 -0.7025 131.3488 56.379)">
	<stop offset="0" style="stop-color:#646566" />
	<stop offset="0.52" style="stop-color:#E0E0E0" />
	<stop offset="0.84" style="stop-color:#929293" />
	<stop offset="0.99" style="stop-color:#656667" />
</linearGradient>
<path fill="url(#SVGID_2_)" d="M21.912,85.852c0-0.127-0.011-0.246-0.018-0.368L69.194,32.41l28.424,29.173L46.99,112.352  L21.764,87.122C21.858,86.729,21.912,86.309,21.912,85.852z" />
<linearGradient id="SVGID_3_" gradientUnits="userSpaceOnUse" x1="-2.8528" y1="21.7935" x2="67.1887" y2="21.7935" gradientTransform="matrix(1.027 9.000000e-004 -9.000000e-004 1.0367 3.1917 -4.6078)">
	<stop offset="0.01" style="stop-color:#656667" />
	<stop offset="0.16" style="stop-color:#909091" />
	<stop offset="0.49" style="stop-color:#E0E0E0" />
	<stop offset="1" style="stop-color:#646566" />
</linearGradient>
<path fill="url(#SVGID_3_)" d="M0.258,36.181V-0.143l71.902-0.01l-0.001,36.298L0.258,36.181z" />
<linearGradient id="SVGID_4_" gradientUnits="userSpaceOnUse" x1="42.9695" y1="95.2217" x2="50.4874" y2="23.5706" gradientTransform="matrix(0.6569 0.754 -0.754 0.6569 57.8607 -16.5722)">
	<stop offset="0.01" style="stop-color:#636465" />
	<stop offset="0.17" style="stop-color:#909091" />
	<stop offset="0.49" style="stop-color:#E0E0E0" />
	<stop offset="1" style="stop-color:#646566" />
</linearGradient>
<path fill="url(#SVGID_4_)" d="M72.161,35.422L8.324,68.159c0,0,2.676,6.192,6.162,10.318c1.4,1.656,1.4,1.656,7.516,8.893  L72.161,35.422z" />
<linearGradient id="SVGID_5_" gradientUnits="userSpaceOnUse" x1="27.825" y1="97.2041" x2="40.9498" y2="26.5043" gradientTransform="matrix(0.5034 0.864 -0.864 0.5034 74.4001 -13.434)">
	<stop offset="0.01" style="stop-color:#636465" />
	<stop offset="0.17" style="stop-color:#909091" />
	<stop offset="0.49" style="stop-color:#E0E0E0" />
	<stop offset="1" style="stop-color:#646566" />
</linearGradient>
<path fill="url(#SVGID_5_)" d="M72.161,35.422c0,0-70.718,12.609-70.64,12.963c2.354,10.529,2.621,10.271,3.354,12.279  c0.625,1.71,0.625,1.71,4.264,9.389L72.161,35.422z" />
<linearGradient id="SVGID_6_" gradientUnits="userSpaceOnUse" x1="17.4988" y1="92.0127" x2="30.6407" y2="21.2212" gradientTransform="matrix(0.2833 0.9591 -0.9591 0.2833 83.7822 -0.469)">
	<stop offset="0.01" style="stop-color:#636465" />
	<stop offset="0.17" style="stop-color:#909091" />
	<stop offset="0.49" style="stop-color:#E0E0E0" />
	<stop offset="1" style="stop-color:#646566" />
</linearGradient>
<path fill="url(#SVGID_6_)" d="M72.161,35.422L0.258,32.008c0,0,0.076,9.074,0.299,11.004c0.279,2.42,1.852,9.567,1.852,9.567  L72.161,35.422z" />
</g>
</svg>