<!DOCTYPE svg PUBLIC "-//W3C//DTD SVG 1.1//EN" "http://www.w3.org/Graphics/SVG/1.1/DTD/svg11.dtd"[]><svg version="1.1" xmlns="http://www.w3.org/2000/svg" xmlns:xlink="http://www.w3.org/1999/xlink" width="112px" height="98px" viewBox="0 0 112.5 97.66" enable-background="new 0 0 112.5 97.66" xml:space="preserve">

<g id="Group_45_Angle_Pipe">
<linearGradient id="SVGID_1_" gradientUnits="userSpaceOnUse" x1="49.3555" y1="41.1819" x2="93.814" y2="118.1863" gradientTransform="matrix(-1 0 0 -1 140.5039 125.4341)">
	<stop offset="0.01" style="stop-color:#646566" />
	<stop offset="0.49" style="stop-color:#CCCCCC" />
	<stop offset="1" style="stop-color:#646566" />
</linearGradient>
<path fill="url(#SVGID_1_)" d="M112.219,72.087l-35.396,0.001l-26.03,25.329L0.277,47.043c0,0,28.941-29.057,34.414-32.706  c5.473-3.648,21.896-12.899,34.579-13.496c12.684-0.597,42.938-0.297,42.938-0.297L112.219,72.087z" />
<linearGradient id="SVGID_2_" gradientUnits="userSpaceOnUse" x1="33.6011" y1="33.0774" x2="102.7002" y2="33.0774" gradientTransform="matrix(-0.7336 -0.7438 0.7025 -0.6929 66.6437 131.3577)">
	<stop offset="0" style="stop-color:#646566" />
	<stop offset="0.52" style="stop-color:#E0E0E0" />
	<stop offset="0.84" style="stop-color:#929293" />
	<stop offset="0.99" style="stop-color:#656667" />
</linearGradient>
<path fill="url(#SVGID_2_)" d="M26.5,21.655c0.127,0,0.246-0.011,0.368-0.018l53.073,47.299L50.769,97.36L0,46.733l25.229-25.227  C25.622,21.6,26.043,21.655,26.5,21.655z" />
<linearGradient id="SVGID_3_" gradientUnits="userSpaceOnUse" x1="4.7124" y1="14.3733" x2="74.7539" y2="14.3733" gradientTransform="matrix(-9.000000e-004 1.027 -1.0367 -9.000000e-004 109.2741 -4.8419)">
	<stop offset="0.01" style="stop-color:#656667" />
	<stop offset="0.16" style="stop-color:#909091" />
	<stop offset="0.49" style="stop-color:#E0E0E0" />
	<stop offset="1" style="stop-color:#646566" />
</linearGradient>
<path fill="url(#SVGID_3_)" d="M76.171,0h36.323l0.01,71.902l-36.298-0.001L76.171,0z" />
<linearGradient id="SVGID_4_" gradientUnits="userSpaceOnUse" x1="50.4932" y1="87.7063" x2="58.0111" y2="16.0552" gradientTransform="matrix(-0.754 0.6569 -0.6569 -0.754 129.6604 46.9934)">
	<stop offset="0.01" style="stop-color:#636465" />
	<stop offset="0.17" style="stop-color:#909091" />
	<stop offset="0.49" style="stop-color:#E0E0E0" />
	<stop offset="1" style="stop-color:#646566" />
</linearGradient>
<path fill="url(#SVGID_4_)" d="M76.93,71.904L44.192,8.067c0,0-6.192,2.676-10.318,6.162c-1.656,1.4-1.656,1.4-8.893,7.516  L76.93,71.904z" />
<linearGradient id="SVGID_5_" gradientUnits="userSpaceOnUse" x1="35.3315" y1="89.6731" x2="48.4564" y2="18.9733" gradientTransform="matrix(-0.864 0.5034 -0.5034 -0.864 128.4796 63.8569)">
	<stop offset="0.01" style="stop-color:#636465" />
	<stop offset="0.17" style="stop-color:#909091" />
	<stop offset="0.49" style="stop-color:#E0E0E0" />
	<stop offset="1" style="stop-color:#646566" />
</linearGradient>
<path fill="url(#SVGID_5_)" d="M76.93,71.904c0,0-12.609-70.718-12.963-70.64C53.438,3.617,53.696,3.885,51.688,4.617  c-1.71,0.625-1.71,0.625-9.389,4.264L76.93,71.904z" />
<linearGradient id="SVGID_6_" gradientUnits="userSpaceOnUse" x1="24.9766" y1="84.469" x2="38.1185" y2="13.677" gradientTransform="matrix(-0.9591 0.2833 -0.2833 -0.9591 117.8554 74.1712)">
	<stop offset="0.01" style="stop-color:#636465" />
	<stop offset="0.17" style="stop-color:#909091" />
	<stop offset="0.49" style="stop-color:#E0E0E0" />
	<stop offset="1" style="stop-color:#646566" />
</linearGradient>
<path fill="url(#SVGID_6_)" d="M76.93,71.904L80.344,0c0,0-9.074,0.076-11.004,0.299c-2.42,0.279-9.567,1.852-9.567,1.852  L76.93,71.904z" />
</g>
</svg>