<!DOCTYPE svg PUBLIC "-//W3C//DTD SVG 1.1//EN" "http://www.w3.org/Graphics/SVG/1.1/DTD/svg11.dtd"[]><svg version="1.1" xmlns="http://www.w3.org/2000/svg" xmlns:xlink="http://www.w3.org/1999/xlink" width="112px" height="100px" viewBox="0 0 112.5 99.835" enable-background="new 0 0 112.5 99.835" xml:space="preserve">

<g id="Group_60_Deg_Pipe">
<linearGradient id="SVGID_1_" gradientUnits="userSpaceOnUse" x1="27.9971" y1="84.9937" x2="71.6885" y2="9.3179" gradientTransform="matrix(-1 0 0 1 114.5 0)">
	<stop offset="0" style="stop-color:#323232" />
	<stop offset="0.5" style="stop-color:#CCCCCC" />
	<stop offset="1" style="stop-color:#383838" />
</linearGradient>
<path fill="url(#SVGID_1_)" d="M60.416,100.054l17.5-30.251H112.5V0.219c0,0-45.583-1.916-62.25,5.584s-22.168,12.833-29.334,24  S0,64.97,0,64.97L60.416,100.054z" />
<linearGradient id="SVGID_2_" gradientUnits="userSpaceOnUse" x1="94.25" y1="99.9087" x2="94.25" y2="30.168" gradientTransform="matrix(1 0 0 -1 0 99.9082)">
	<stop offset="0" style="stop-color:#3C3C3C" />
	<stop offset="0.19" style="stop-color:#868686" />
	<stop offset="0.45" style="stop-color:#ECECEC" />
	<stop offset="0.55" style="stop-color:#D9D9D9" />
	<stop offset="0.76" style="stop-color:#A8A8A8" />
	<stop offset="0.77" style="stop-color:#A6A6A6" />
	<stop offset="1" style="stop-color:#383838" />
</linearGradient>
<rect x="76" y="0" fill="url(#SVGID_2_)" width="36.5" height="69.741" />
<linearGradient id="SVGID_3_" gradientUnits="userSpaceOnUse" x1="54.4751" y1="96.5942" x2="89.4054" y2="36.0932" gradientTransform="matrix(0 1 -1 0 106.1675 -6.2593)">
	<stop offset="0" style="stop-color:#3D3D3D" />
	<stop offset="0.21" style="stop-color:#8C8C8C" />
	<stop offset="0.44" style="stop-color:#ECECEC" />
	<stop offset="0.55" style="stop-color:#D9D9D9" />
	<stop offset="0.76" style="stop-color:#A8A8A8" />
	<stop offset="0.77" style="stop-color:#A6A6A6" />
	<stop offset="1" style="stop-color:#383838" />
</linearGradient>
<path fill="url(#SVGID_3_)" d="M0,64.798l19.393-33.277l58.422,38.22L60.373,99.909" />
<linearGradient id="SVGID_4_" gradientUnits="userSpaceOnUse" x1="52.2427" y1="84.2505" x2="67.7595" y2="15.8793" gradientTransform="matrix(-0.4573 0.8893 -0.8893 -0.4573 121.5134 18.354)">
	<stop offset="0" style="stop-color:#323232" />
	<stop offset="0.21" style="stop-color:#838383" />
	<stop offset="0.46" style="stop-color:#ECECEC" />
	<stop offset="0.56" style="stop-color:#D9D9D9" />
	<stop offset="0.76" style="stop-color:#A8A8A8" />
	<stop offset="0.77" style="stop-color:#A6A6A6" />
	<stop offset="1" style="stop-color:#383838" />
</linearGradient>
<path fill="url(#SVGID_4_)" d="M31.5,16.616c0.486,0,0.932-0.063,1.345-0.168L77.71,69.796L15.294,38.424l1.998-3.453  c0,0,4.948-7.944,6.791-10.313c1.472-1.893,5.563-6.203,7.33-8.046C31.442,16.612,31.47,16.616,31.5,16.616z" />
<linearGradient id="SVGID_5_" gradientUnits="userSpaceOnUse" x1="26.0664" y1="87.1782" x2="38.768" y2="18.7583" gradientTransform="matrix(-0.9225 0.3859 -0.3859 -0.9225 120.5362 72.2595)">
	<stop offset="0" style="stop-color:#383838" />
	<stop offset="0.21" style="stop-color:#868686" />
	<stop offset="0.46" style="stop-color:#ECECEC" />
	<stop offset="0.56" style="stop-color:#D9D9D9" />
	<stop offset="0.76" style="stop-color:#A8A8A8" />
	<stop offset="0.77" style="stop-color:#A6A6A6" />
	<stop offset="1" style="stop-color:#383838" />
</linearGradient>
<path fill="url(#SVGID_5_)" d="M77.748,69.87L77.375,0.073c0,0-4.789,0.037-13.073,1.563c-8.821,1.625-11.907,3.21-11.907,3.21  l-3.517,1.455L77.748,69.87z" />
<linearGradient id="SVGID_6_" gradientUnits="userSpaceOnUse" x1="42.0259" y1="85.1841" x2="49.366" y2="15.2273" gradientTransform="matrix(-0.8004 0.5994 -0.5994 -0.8004 126.3275 52.5037)">
	<stop offset="0" style="stop-color:#303030" />
	<stop offset="0.11" style="stop-color:#595959" />
	<stop offset="0.21" style="stop-color:#828282" />
	<stop offset="0.47" style="stop-color:#ECECEC" />
	<stop offset="0.56" style="stop-color:#D9D9D9" />
	<stop offset="0.76" style="stop-color:#A8A8A8" />
	<stop offset="0.77" style="stop-color:#A6A6A6" />
	<stop offset="1" style="stop-color:#383838" />
</linearGradient>
<path fill="url(#SVGID_6_)" d="M77.748,69.87L53.173,4.571c0,0-8.198,3.222-10.757,4.587c-2.672,1.427-5.625,3.035-11.026,7.478  L77.748,69.87z" />
</g>
</svg>