<!DOCTYPE svg PUBLIC "-//W3C//DTD SVG 1.1//EN" "http://www.w3.org/Graphics/SVG/1.1/DTD/svg11.dtd"[]><svg version="1.1" xmlns="http://www.w3.org/2000/svg" xmlns:xlink="http://www.w3.org/1999/xlink" width="38px" height="112px" viewBox="0 0 37.576 112.5" enable-background="new 0 0 37.576 112.5" xml:space="preserve">
<g id="Group_Pipe">
	<linearGradient id="SVGID_1_" gradientUnits="userSpaceOnUse" x1="14.0642" y1="112.5" x2="14.0642" y2="4.882813e-004">
		<stop offset="0.01" style="stop-color:#646566" />
		<stop offset="0.16" style="stop-color:#909091" />
		<stop offset="0.49" style="stop-color:#E0E0E0" />
		<stop offset="1" style="stop-color:#646566" />
	</linearGradient>
	<path fill="url(#SVGID_1_)" d="M28.126,0H0.001v112.5h28.125V0" />
</g>
<g id="Group_Bolt">
	<path fill="#E5E5E5" d="M37.575,9.45V6.975l-9.449-2.25v3.6L37.575,9.45z" />
	<polygon fill="#B2B2B2" points="28.126,20.025 37.575,18.675 37.575,9.45 28.126,8.325  " />
	<polygon fill="#7F7F7F" points="28.126,23.4 37.575,21.15 37.575,18.675 28.126,20.025  " />
	<polygon fill="#B2B2B2" points="28.126,62.1 37.575,60.975 37.575,51.525 28.126,50.4  " />
	<polygon fill="#7F7F7F" points="28.126,65.7 37.575,63.45 37.575,60.975 28.126,62.1  " />
	<polygon fill="#7F7F7F" points="28.126,65.7 37.575,63.45 37.575,60.975 28.126,62.1  " />
	<polygon fill="#E5E5E5" points="28.126,47.025 28.126,50.4 37.575,51.525 37.575,49.275  " />
	<path fill="#E5E5E5" d="M37.575,93.825v-2.25L28.126,89.1V92.7L37.575,93.825z" />
	<polygon fill="#7F7F7F" points="28.126,107.775 37.575,105.525 37.575,103.275 28.126,104.4  " />
	<polygon fill="#B2B2B2" points="28.126,104.4 37.575,103.275 37.575,93.825 28.126,92.7  " />
</g>
</svg>