<!DOCTYPE svg PUBLIC "-//W3C//DTD SVG 1.1//EN" "http://www.w3.org/Graphics/SVG/1.1/DTD/svg11.dtd"[]><svg version="1.1" xmlns="http://www.w3.org/2000/svg" xmlns:xlink="http://www.w3.org/1999/xlink" width="112px" height="38px" viewBox="0 0 112.5 37.576" enable-background="new 0 0 112.5 37.576" xml:space="preserve">
<g id="Group_Flange">
	<linearGradient id="SVGID_1_" gradientUnits="userSpaceOnUse" x1="0" y1="14.0637" x2="112.5" y2="14.0637">
		<stop offset="0.01" style="stop-color:#646566" />
		<stop offset="0.18" style="stop-color:#959595" />
		<stop offset="0.5" style="stop-color:#E0E0E0" />
		<stop offset="1" style="stop-color:#666666" />
	</linearGradient>
	<path fill="url(#SVGID_1_)" d="M0,28.126V0.001h112.5v28.125H0" />
</g>
<g id="Group_Bolt">
	<path fill="#E5E5E5" d="M9.45,37.576H7.2l-2.475-9.45h3.6L9.45,37.576z" />
	<polygon fill="#7F7F7F" points="20.025,28.126 18.9,37.576 21.15,37.576 23.4,28.126  " />
	<polygon fill="#B2B2B2" points="8.325,28.126 9.45,37.576 18.9,37.576 20.025,28.126  " />
	<path fill="#E5E5E5" d="M51.525,37.576h-2.25l-2.25-9.45H50.4L51.525,37.576z" />
	<polygon fill="#7F7F7F" points="62.1,28.126 60.975,37.576 63.45,37.576 65.7,28.126  " />
	<polygon fill="#B2B2B2" points="50.4,28.126 51.525,37.576 60.975,37.576 62.1,28.126  " />
	<path fill="#E5E5E5" d="M93.825,37.576h-2.25l-2.476-9.45H92.7L93.825,37.576z" />
	<polygon fill="#7F7F7F" points="104.4,28.126 103.275,37.576 105.525,37.576 108,28.126  " />
	<polygon fill="#B2B2B2" points="92.7,28.126 93.825,37.576 103.275,37.576 104.4,28.126  " />
</g>
</svg>