<!DOCTYPE svg PUBLIC "-//W3C//DTD SVG 20000303 Stylable//EN" "http://www.w3.org/TR/2000/03/WD-SVG-20000303/DTD/svg-20000303-stylable.dtd"[]><svg xmlns="http://www.w3.org/2000/svg" width="999px" height="183px" viewBox="0 0 999 134"><path style="fill:#ccc7c2" d="M0,61 l36,16 26,16 21,26 5,15 879,0 11,-41 21,-37 -999,5z" /><path style="fill:#99948f" d="M140,82 l52,0 0,-5 -52,0 0,5z" /><path style="fill:#e5e0db;stroke:#4c4c4c;stroke-width:2" d="M140,72 l52,0 0,5 -52,0 0,-5z" /><path style="fill:#b2ada8" d="M0,61 l36,16 952,-3 11,-18 -999,5z" /><path style="fill:#c4bfba" d="M85,126 l3,8 879,0 6,-21 -888,13z" /><path style="fill:none;stroke:#4c4c4c;stroke-width:2" d="M0,61 l36,16 26,16 21,26 5,15 879,0 11,-41 21,-37 -999,5" /><path style="fill:#ccc7c2;stroke:#4c4c4c;stroke-width:2" d="M634,20 l26,0 0,10 -26,0 0,-10z" /><path style="fill:#e5e0db;stroke:#4c4c4c;stroke-width:2" d="M608,51 l0,-26 -10,-5 0,-11 31,0 0,21 62,0 0,21 -83,0z" /><path style="fill:#e5e0db" d="M281,67 l176,0 0,-16 -176,0 0,16z" /><path style="fill:#ccc7c2;stroke:#4c4c4c;stroke-width:2" d="M999,51 l-58,0 0,10 58,0 0,-10z" /><path style="fill:#d9d4cf;stroke:#4c4c4c;stroke-width:2" d="M832,51 l109,0 0,10 -109,0 0,-10z" /><path style="fill:#e5e0db;stroke:#4c4c4c;stroke-width:2" d="M0,51 l281,0 0,10 -281,0 0,-10z" /><path style="fill:#b2ada8;stroke:#4c4c4c;stroke-width:2" d="M619,51 l83,0 0,-16 -83,0 0,16z" /><path style="fill:none;stroke:#4c4c4c;stroke-width:2" d="M614,0 l0,9" /><path style="fill:none;stroke:#4c4c4c;stroke-width:2" d="M608,3 l11,0" /><path style="fill:none;stroke:#4c4c4c;stroke-width:2" d="M608,0 l11,0" /><path style="fill:none;stroke:#4c4c4c;stroke-width:2" d="M608,6 l11,0" /><path style="fill:none;stroke:#4c4c4c;stroke-width:2" d="M634,20 l0,-16" /><path style="fill:none;stroke:#4c4c4c;stroke-width:2" d="M598,15 l26,0" /><path style="fill:none;stroke:#4c4c4c;stroke-width:2" d="M598,20 l26,0" /><path style="fill:#f2ede8" d="M307,67 l46,0 0,-16 -46,0 0,16z" /><path style="fill:none;stroke:#4c4c4c;stroke-width:2" d="M281,67 l176,0 0,-16 -176,0 0,16" /><path style="fill:#66615c;stroke:#4c4c4c;stroke-width:2" d="M728,82 l99,0 0,-21 -99,0 0,21z" /><path style="fill:#e5e0db;stroke:#4c4c4c;stroke-width:2" d="M723,82 l109,0 0,5 -109,0 0,-5z" /><path style="fill:#e5e0db;stroke:#4c4c4c;stroke-width:2" d="M457,51 l375,0 0,10 -375,0 0,-10z" /><path style="fill:#7f7f7f" d="M50,77 l8,-13 -1,11 10,-6 -8,13 -9,-5z" /></svg>