<!DOCTYPE svg PUBLIC "-//W3C//DTD SVG 20000303 Stylable//EN" "http://www.w3.org/TR/2000/03/WD-SVG-20000303/DTD/svg-20000303-stylable.dtd"[]><svg xmlns="http://www.w3.org/2000/svg" width="300px" height="999px" viewBox="0 0 259 999"><path style="fill:#b2ada8" d="M24,834 l0,-95 -4,-12 0,-271 -20,-107 0,-41 20,-9 0,-20 54,-8 4,-78 -17,-9 0,-37 21,-12 8,-135 78,8 21,222 57,74 0,505 -20,21 0,74 -17,8 9,58 -120,29 -16,-9 -4,-53 -29,0 0,-91 -25,-12z" /><path style="fill:none;stroke:#fff;stroke-width:2" d="M143,982 l-135,-670 12,-4 136,670" /><path style="fill:none;stroke:#fff;stroke-width:2" d="M213,966 l-139,-687 -50,8" /><path style="fill:none;stroke:#fff;stroke-width:2" d="M201,966 l-140,-685" /><path style="fill:none;stroke:#fff;stroke-width:2" d="M98,986 l-8,-74 -29,0 0,-66 -33,-16 0,-374 -28,-124" /><path style="fill:none;stroke:#fff;stroke-width:2" d="M201,896 l17,-5 0,-69 20,-17 0,-497 -57,-74 -21,-218 -62,-8 -16,267" /><path style="fill:#fff;stroke:#fff;stroke-width:2" d="M216,961 l2,9 -119,28 -1,-8 118,-29z" /><path style="fill:none;stroke:#fff;stroke-width:2" d="M180,970 l-143,-687" /><path style="fill:none;stroke:#fc0;stroke-width:2" d="M112,644 l-8,-36" /><path style="fill:none;stroke:#fc0;stroke-width:2" d="M97,572 l-8,-36" /><path style="fill:none;stroke:#fc0;stroke-width:2" d="M82,500 l-8,-36" /><path style="fill:none;stroke:#fc0;stroke-width:2" d="M67,428 l-8,-36" /><path style="fill:none;stroke:#fc0;stroke-width:2" d="M52,355 l-8,-36" /><path style="fill:none;stroke:#fc0;stroke-width:2" d="M142,789 l-7,-36" /><path style="fill:none;stroke:#fc0;stroke-width:2" d="M127,717 l-7,-36" /><path style="fill:none;stroke:#fc0;stroke-width:2" d="M157,861 l-7,-36" /><path style="fill:none;stroke:#fc0;stroke-width:2" d="M172,934 l-7,-37" /><path style="fill:none;stroke:#4c4c4c;stroke-width:2" d="M24,834 l0,-95 -4,-12 0,-271 -20,-107 0,-41 20,-9 0,-20 54,-8 4,-78 -17,-9 0,-37 21,-12 8,-135 78,8 21,222 57,74 0,505 -20,21 0,74 -17,8 9,58 -120,29 -16,-9 -4,-53 -29,0 0,-91 -25,-12" /><path style="fill:none;stroke:#999;stroke-width:2" d="M111,36 l32,292 9,0 -4,-292" /><path style="fill:none;stroke:#fc0;stroke-width:2" d="M238,316 l-45,4 0,87 45,4" /><path style="fill:none;stroke:#fc0;stroke-width:2" d="M238,505 l-45,4 0,86 45,5" /><path style="fill:none;stroke:#fc0;stroke-width:2" d="M238,706 l-45,5 0,86 45,4" /><path style="fill:none;stroke:#fc0;stroke-width:2" d="M28,822 l46,-5 0,-86 -46,-4" /><path style="fill:#fff" d="M188,903 l13,-2 2,12 -12,2 -3,-12z" /><path style="fill:#fff" d="M130,915 l12,-2 2,12 -12,2 -2,-12z" /><path style="fill:#fff" d="M174,832 l12,-2 2,12 -12,2 -2,-12z" /><path style="fill:#fff" d="M115,844 l13,-2 2,12 -12,2 -3,-12z" /><path style="fill:#fff" d="M160,764 l12,-2 2,12 -12,2 -2,-12z" /><path style="fill:#fff" d="M101,776 l13,-2 2,12 -12,2 -3,-12z" /><path style="fill:#fff" d="M146,694 l12,-2 2,12 -12,2 -2,-12z" /><path style="fill:#fff" d="M87,706 l12,-2 3,12 -13,2 -2,-12z" /><path style="fill:#fff" d="M132,629 l13,-3 2,13 -12,2 -3,-12z" /><path style="fill:#fff" d="M74,640 l12,-2 2,12 -12,3 -2,-13z" /><path style="fill:#fff" d="M117,554 l13,-3 2,13 -12,2 -3,-12z" /><path style="fill:#fff" d="M59,566 l12,-3 2,13 -12,2 -2,-12z" /><path style="fill:#fff" d="M103,484 l13,-2 2,12 -12,2 -3,-12z" /><path style="fill:#fff" d="M44,496 l13,-2 2,12 -12,2 -3,-12z" /><path style="fill:#fff" d="M89,414 l12,-2 2,12 -12,2 -2,-12z" /><path style="fill:#fff" d="M30,426 l12,-2 2,12 -12,2 -2,-12z" /><path style="fill:#fff" d="M75,345 l12,-3 2,13 -12,2 -2,-12z" /><path style="fill:#fff" d="M16,357 l13,-3 2,13 -12,2 -3,-12z" /><path style="fill:#4c443d" d="M204,620 l30,0 0,69 -30,0 0,-69z" /><path style="fill:#7f7770" d="M199,608 l60,0 0,18 -60,0 0,-18z" /><path style="fill:#7f7770" d="M210,631 l24,0 0,68 -24,0 0,-68z" /><path style="fill:#99918a" d="M215,621 l14,0 0,56 -14,0 0,-56z" /></svg>