<!DOCTYPE svg PUBLIC "-//W3C//DTD SVG 20000303 Stylable//EN" "http://www.w3.org/TR/2000/03/WD-SVG-20000303/DTD/svg-20000303-stylable.dtd"[]><svg xmlns="http://www.w3.org/2000/svg" width="300px" height="999px" viewBox="0 0 259 999"><path style="fill:#b2ada8" d="M24,834 l0,-95 -4,-12 0,-271 -20,-107 0,-41 20,-9 0,-20 54,-8 4,-78 -17,-9 0,-37 21,-12 8,-135 78,8 21,222 57,74 0,505 -20,21 0,74 -17,8 9,58 -120,29 -16,-9 -4,-53 -29,0 0,-91 -25,-12z" /><path style="fill:none;stroke:#fff;stroke-width:2" d="M143,982 l-135,-670 12,-4 136,670" /><path style="fill:none;stroke:#fff;stroke-width:2" d="M213,966 l-139,-687 -50,8" /><path style="fill:none;stroke:#fff;stroke-width:2" d="M201,966 l-140,-685" /><path style="fill:none;stroke:#fff;stroke-width:2" d="M98,986 l-8,-74 -29,0 0,-66 -33,-16 0,-374 -28,-124" /><path style="fill:none;stroke:#fff;stroke-width:2" d="M201,896 l17,-5 0,-69 20,-17 0,-497 -57,-74 -21,-218 -62,-8 -16,267" /><path style="fill:#fff;stroke:#fff;stroke-width:2" d="M216,961 l2,9 -119,28 -1,-8 118,-29z" /><path style="fill:none;stroke:#fff;stroke-width:2" d="M180,970 l-143,-687" /><path style="fill:none;stroke:#fc0;stroke-width:2" d="M112,645 l-7,-37" /><path style="fill:none;stroke:#fc0;stroke-width:2" d="M97,572 l-8,-36" /><path style="fill:none;stroke:#fc0;stroke-width:2" d="M82,500 l-8,-36" /><path style="fill:none;stroke:#fc0;stroke-width:2" d="M67,428 l-8,-36" /><path style="fill:none;stroke:#fc0;stroke-width:2" d="M52,355 l-8,-36" /><path style="fill:none;stroke:#fc0;stroke-width:2" d="M142,789 l-7,-36" /><path style="fill:none;stroke:#fc0;stroke-width:2" d="M127,717 l-7,-36" /><path style="fill:none;stroke:#fc0;stroke-width:2" d="M157,861 l-7,-36" /><path style="fill:none;stroke:#fc0;stroke-width:2" d="M172,934 l-7,-37" /><path style="fill:none;stroke:#4c4c4c;stroke-width:2" d="M24,834 l0,-95 -4,-12 0,-271 -20,-107 0,-41 20,-9 0,-20 54,-8 4,-78 -17,-9 0,-37 21,-12 8,-135 78,8 21,222 57,74 0,505 -20,21 0,74 -17,8 9,58 -120,29 -16,-9 -4,-53 -29,0 0,-91 -25,-12" /><path style="fill:none;stroke:#999;stroke-width:2" d="M111,36 l32,292 9,0 -4,-292" /><path style="fill:none;stroke:#fc0;stroke-width:2" d="M238,316 l-45,4 0,87 45,4" /><path style="fill:none;stroke:#fc0;stroke-width:2" d="M238,505 l-45,4 0,86 45,5" /><path style="fill:none;stroke:#fc0;stroke-width:2" d="M238,706 l-45,5 0,86 45,4" /><path style="fill:none;stroke:#fc0;stroke-width:2" d="M28,822 l46,-5 0,-86 -46,-4" /><path style="fill:#fff" d="M188,903 l13,-2 2,12 -12,2 -3,-12z" /><path style="fill:#fff" d="M130,915 l12,-2 2,12 -12,2 -2,-12z" /><path style="fill:#fff" d="M174,832 l12,-2 2,12 -12,2 -2,-12z" /><path style="fill:#fff" d="M115,844 l13,-2 2,12 -12,2 -3,-12z" /><path style="fill:#fff" d="M160,764 l12,-2 2,12 -12,2 -2,-12z" /><path style="fill:#fff" d="M101,776 l13,-2 2,12 -12,2 -3,-12z" /><path style="fill:#fff" d="M146,694 l12,-2 2,12 -12,2 -2,-12z" /><path style="fill:#fff" d="M87,706 l12,-2 3,12 -13,2 -2,-12z" /><path style="fill:#fff" d="M132,629 l13,-3 2,13 -12,2 -3,-12z" /><path style="fill:#fff" d="M74,640 l12,-2 2,12 -12,3 -2,-13z" /><path style="fill:#fff" d="M117,554 l13,-3 2,13 -12,2 -3,-12z" /><path style="fill:#fff" d="M59,566 l12,-3 2,13 -12,2 -2,-12z" /><path style="fill:#fff" d="M103,484 l13,-2 2,12 -12,2 -3,-12z" /><path style="fill:#fff" d="M44,496 l13,-2 2,12 -12,2 -3,-12z" /><path style="fill:#fff" d="M89,414 l12,-2 2,12 -12,2 -2,-12z" /><path style="fill:#fff" d="M30,426 l12,-2 2,12 -12,2 -2,-12z" /><path style="fill:#fff" d="M75,345 l12,-3 2,13 -12,2 -2,-12z" /><path style="fill:#fff" d="M16,357 l13,-3 2,13 -12,2 -3,-12z" /><path style="fill:#4c443d" d="M204,620 l30,0 0,69 -30,0 0,-69z" /><path style="fill:#7f7770" d="M199,608 l60,0 0,18 -60,0 0,-18z" /><path style="fill:#7f7770" d="M210,631 l24,0 0,68 -24,0 0,-68z" /><path style="fill:#99918a" d="M215,621 l14,0 0,56 -14,0 0,-56z" /><path style="fill:#edf2f2" d="M84,283 l12,3 9,9 -1,-14 11,6 2,-4 -5,-16 7,-20 -14,16 -17,4 -2,3 11,7 -13,6z" /><path style="fill:#edf2f2" d="M84,251 l13,3 8,9 -1,-14 11,6 2,-4 -5,-17 7,-19 -13,16 -18,4 -1,3 10,6 -13,7z" /><path style="fill:#edf2f2" d="M84,219 l13,3 8,9 -1,-14 11,6 2,-4 -5,-17 7,-19 -13,15 -18,5 -1,3 10,6 -13,7z" /><path style="fill:#edf2f2" d="M84,187 l13,3 8,9 -1,-14 11,6 2,-4 -5,-16 7,-20 -13,16 -18,4 -1,3 10,7 -13,6z" /><path style="fill:#edf2f2" d="M84,155 l13,3 8,10 -1,-15 11,6 2,-3 -5,-17 7,-20 -13,16 -18,4 -1,4 10,6 -13,6z" /><path style="fill:#edf2f2" d="M84,123 l13,3 8,10 -1,-15 11,6 2,-3 -5,-17 7,-20 -13,16 -18,4 -1,4 10,6 -13,6z" /><path style="fill:#edf2f2" d="M84,91 l13,3 8,10 -1,-15 11,6 2,-3 -5,-17 7,-20 -13,16 -18,4 -1,4 10,6 -13,6z" /><path style="fill:#edf2f2" d="M84,60 l12,3 9,9 -1,-15 11,6 2,-3 -5,-17 7,-20 -14,16 -17,5 -2,3 11,6 -13,7z" /><path style="fill:#edf2f2" d="M153,61 l9,-10 13,-3 -13,-6 10,-7 -2,-3 -17,-4 -14,-16 7,19 -4,17 2,4 10,-6 -1,15z" /><path style="fill:#edf2f2" d="M158,102 l9,-10 13,-3 -13,-6 10,-7 -2,-3 -17,-4 -14,-16 7,19 -4,17 2,4 10,-6 -1,15z" /><path style="fill:#edf2f2" d="M163,143 l9,-10 12,-3 -13,-6 11,-7 -2,-3 -17,-4 -14,-16 7,20 -5,17 3,3 10,-6 -1,15z" /><path style="fill:#edf2f2" d="M168,184 l9,-10 12,-2 -13,-7 11,-6 -2,-4 -17,-4 -14,-16 7,20 -5,17 2,3 11,-6 -1,15z" /><path style="fill:#edf2f2" d="M173,225 l9,-9 12,-3 -13,-7 11,-6 -3,-3 -16,-5 -14,-16 7,20 -5,17 2,4 11,-7 -1,15z" /><path style="fill:#edf2f2" d="M178,266 l8,-9 13,-3 -13,-7 10,-6 -2,-3 -17,-5 -13,-16 7,20 -5,17 2,4 11,-7 -1,15z" /><path style="fill:#edf2f2" d="M182,308 l9,-10 12,-3 -13,-6 11,-6 -2,-4 -17,-4 -14,-16 7,20 -5,17 2,3 11,-6 -1,15z" /><path style="fill:#edf2f2" d="M64,554 l-2,2 2,3 2,0 2,-3 -2,-2 0,-31 14,11 1,-3 -14,-13 1,-4 13,-17 -1,-3 -14,16 -5,-5 -3,5 -14,-12 -2,2 15,14 1,7 -12,15 3,2 10,-14 5,30z" /><path style="fill:#edf2f2" d="M54,454 l-1,3 2,3 2,0 2,-4 -2,-2 0,-31 14,12 1,-3 -14,-13 0,-4 14,-18 -1,-2 -14,16 -5,-5 -4,4 -14,-11 -2,2 16,14 1,7 -12,14 2,3 11,-14 4,29z" /><path style="fill:#edf2f2" d="M90,349 l4,12 -4,12 13,-8 0,13 4,0 12,-13 20,-4 -20,-4 -12,-12 -4,0 0,12 -13,-8z" /><path style="fill:#edf2f2" d="M97,379 l4,13 -4,12 12,-8 0,12 4,0 12,-12 21,-4 -21,-4 -12,-13 -4,0 0,13 -12,-9z" /><path style="fill:#edf2f2" d="M103,410 l4,13 -4,12 12,-8 0,12 4,0 13,-12 20,-4 -20,-5 -13,-12 -4,0 0,12 -12,-8z" /><path style="fill:#edf2f2" d="M109,441 l4,13 -4,12 12,-8 0,12 4,0 13,-12 20,-4 -20,-5 -13,-12 -4,0 0,12 -12,-8z" /><path style="fill:#edf2f2" d="M115,472 l4,12 -4,13 12,-9 0,13 4,0 13,-13 20,-4 -20,-4 -13,-12 -4,0 0,12 -12,-8z" /><path style="fill:#edf2f2" d="M121,503 l4,12 -4,12 13,-8 0,12 4,0 12,-12 21,-4 -21,-4 -12,-12 -4,0 0,12 -13,-8z" /><path style="fill:#edf2f2" d="M127,534 l4,12 -4,12 12,-8 0,13 4,0 13,-13 20,-4 -20,-4 -13,-12 -4,0 0,12 -12,-8z" /><path style="fill:#edf2f2" d="M238,357 l-4,-12 4,-12 -12,8 0,-13 -4,0 -13,13 -20,4 20,4 13,12 4,0 0,-12 12,8z" /><path style="fill:#edf2f2" d="M238,394 l-4,-12 4,-13 -12,9 0,-13 -4,0 -13,13 -20,4 20,4 13,12 4,0 0,-12 12,8z" /><path style="fill:#edf2f2" d="M238,452 l-4,-13 4,-12 -12,8 0,-12 -4,0 -13,12 -20,4 20,5 13,12 4,0 0,-12 12,8z" /><path style="fill:#edf2f2" d="M238,489 l-4,-13 4,-12 -12,8 0,-12 -4,0 -13,12 -20,4 20,4 13,13 4,0 0,-13 12,9z" /><path style="fill:#edf2f2" d="M238,546 l-4,-12 4,-12 -12,8 0,-12 -4,0 -13,12 -20,4 20,4 13,12 4,0 0,-12 12,8z" /><path style="fill:#edf2f2" d="M238,583 l-4,-12 4,-12 -12,8 0,-13 -4,0 -13,13 -20,4 20,4 13,12 4,0 0,-12 12,8z" /><path style="fill:#edf2f2" d="M238,748 l-4,-13 4,-12 -12,8 0,-12 -4,0 -13,12 -20,4 20,5 13,12 4,0 0,-12 12,8z" /><path style="fill:#edf2f2" d="M238,785 l-4,-13 4,-12 -12,8 0,-12 -4,0 -13,12 -20,4 20,4 13,13 4,0 0,-13 12,9z" /><path style="fill:#edf2f2" d="M28,744 l4,12 -4,12 13,-8 0,12 4,0 12,-12 21,-4 -21,-4 -12,-13 -4,0 0,13 -13,-8z" /><path style="fill:#edf2f2" d="M28,780 l4,13 -4,12 13,-8 0,12 4,0 12,-12 21,-4 -21,-4 -12,-13 -4,0 0,13 -13,-9z" /></svg>