<!DOCTYPE svg PUBLIC "-//W3C//DTD SVG 20000303 Stylable//EN" "http://www.w3.org/TR/2000/03/WD-SVG-20000303/DTD/svg-20000303-stylable.dtd"[]><svg xmlns="http://www.w3.org/2000/svg" width="999px" height="562px" viewBox="0 0 999 536"><path style="fill:#194c4c;stroke:#4c4c4c;stroke-width:2" d="M862,536 l-593,0 -21,-10 -110,-82 -9,-22 0,-23 9,-22 17,-17 21,-9 775,0 21,9 17,17 10,22 0,23 -10,22 -106,82 -21,10z" /><path style="fill:#033" d="M397,160 l590,0 0,251 -124,95 -594,-1 -264,-220 392,-125z" /><path style="fill:#000" d="M212,387 l697,0 0,72 -697,0 0,-72z" /><circle style="fill:#699;stroke:#4c4c4c;stroke-width:2" cx="937" cy="410" r="49" /><circle style="fill:#699;stroke:#4c4c4c;stroke-width:2" cx="281" cy="477" r="49" /><circle style="fill:#699;stroke:#4c4c4c;stroke-width:2" cx="395" cy="477" r="49" /><circle style="fill:#699;stroke:#4c4c4c;stroke-width:2" cx="508" cy="477" r="49" /><circle style="fill:#699;stroke:#4c4c4c;stroke-width:2" cx="622" cy="477" r="49" /><circle style="fill:#699;stroke:#4c4c4c;stroke-width:2" cx="736" cy="477" r="49" /><circle style="fill:#699;stroke:#4c4c4c;stroke-width:2" cx="850" cy="477" r="49" /><circle style="fill:#699;stroke:#4c4c4c;stroke-width:2" cx="188" cy="410" r="49" /><circle style="fill:#366" cx="188" cy="410" r="39" /><circle style="fill:#366" cx="281" cy="477" r="39" /><circle style="fill:#366" cx="395" cy="477" r="39" /><circle style="fill:#366" cx="508" cy="477" r="38" /><circle style="fill:#366" cx="622" cy="478" r="38" /><circle style="fill:#366" cx="736" cy="477" r="39" /><circle style="fill:#366" cx="850" cy="477" r="39" /><circle style="fill:#366" cx="937" cy="410" r="38" /><path style="fill:#265959" d="M155,160 l0,-47 -16,-15 0,-26 176,0 0,26 -21,15 0,47 -139,0z" /><path style="fill:#0d4040" d="M155,113 l-16,-15 176,0 -21,15 -139,0z" /><path style="fill:none;stroke:#4c4c4c;stroke-width:2" d="M155,160 l0,-47 -16,-15 0,-26 176,0 0,26 -21,15 0,47 -139,0" /><path style="fill:#033" d="M170,139 l217,0 0,10 -217,0 0,-10z" /><path style="fill:#366;stroke:#4c4c4c;stroke-width:2" d="M206,139 l0,10 -31,0 0,-10 -10,0 0,-13 17,-16 32,-11 42,-7 45,0 42,7 32,11 17,16 0,13 -15,0 0,10 -31,0 0,-10 -26,0 0,10 -31,0 0,-10 -26,0 0,10 -31,0 0,-10 -26,0z" /><path style="fill:none;stroke:#4c4c4c;stroke-width:2" d="M175,129 l207,0" /><path style="fill:#033" d="M77,77 l62,0 0,10 -62,0 0,-10z" /><path style="fill:#366;stroke:#4c4c4c;stroke-width:2" d="M165,423 l-165,-145 0,-61 5,0 0,-16 160,-52 227,0 62,83 83,21 455,0 0,108 -455,0 -83,62 -289,0z" /><path style="fill:#366;stroke:#4c4c4c;stroke-width:2" d="M403,154 l51,73 83,21 83,-11 82,11 83,-11 83,11 62,-6 62,6 0,-94 -589,0z" /><path style="fill:#699" d="M25,278 l243,37 264,41 -320,-26 -187,-52z" /><path style="fill:none;stroke:#4c4c4c;stroke-width:2" d="M165,413 l15,-57 32,-21 309,21" /><path style="fill:none;stroke:#4c4c4c;stroke-width:2" d="M160,154 l67,47" /><path style="fill:#033;stroke:#4c4c4c;stroke-width:2" d="M496,154 l5,0 0,-77 -5,0 0,77z" /><path style="fill:#033;stroke:#4c4c4c;stroke-width:2" d="M620,154 l5,0 0,-77 -5,0 0,77z" /><path style="fill:#033;stroke:#4c4c4c;stroke-width:2" d="M744,154 l5,0 0,-77 -5,0 0,77z" /><path style="fill:#033;stroke:#4c4c4c;stroke-width:2" d="M868,154 l5,0 0,-77 -5,0 0,77z" /><path style="fill:none;stroke:#4c4c4c;stroke-width:2" d="M496,77 l0,-77" /><path style="fill:none;stroke:#4c4c4c;stroke-width:2" d="M620,77 l0,-77" /><path style="fill:none;stroke:#4c4c4c;stroke-width:2" d="M744,77 l0,-77" /><path style="fill:none;stroke:#4c4c4c;stroke-width:2" d="M868,77 l0,-77" /><path style="fill:#699;stroke:#4c4c4c;stroke-width:2" d="M155,72 l10,-11 124,0 10,11 -144,0z" /></svg>