<!DOCTYPE svg PUBLIC "-//W3C//DTD SVG 20000303 Stylable//EN" "http://www.w3.org/TR/2000/03/WD-SVG-20000303/DTD/svg-20000303-stylable.dtd"[]><svg xmlns="http://www.w3.org/2000/svg" width="999px" height="341px" viewBox="0 0 999 302"><path style="fill:none;stroke:#4c4c4c;stroke-width:2" d="M756,222 l32,24 0,-28" /><path style="fill:none;stroke:#4c4c4c;stroke-width:2" d="M760,222 l32,24 0,-28" /><path style="fill:none;stroke:#4c4c4c;stroke-width:2" d="M316,250 l44,32" /><path style="fill:#000;stroke:#4c4c4c;stroke-width:2" d="M372,250 l-8,0 0,28 -12,4 -44,-32 -8,0 52,40 20,-4 0,-36z" /><path style="fill:none;stroke:#4c4c4c;stroke-width:2" d="M404,118 l0,12" /><path style="fill:none;stroke:#4c4c4c;stroke-width:2" d="M408,130 l0,-12" /><path style="fill:#4c4c4c" d="M416,118 l0,12 4,0 0,-12 -4,0z" /><path style="fill:#4c4c4c" d="M396,118 l0,12 4,0 0,-12 -4,0z" /><path style="fill:#f2e5cc" d="M239,254 l-31,-8 -8,-20 32,-20 28,-36 36,-4 20,-12 7,-20 29,-8 168,8 112,24 240,0 48,-80 -8,-4 8,-20 48,4 -32,100 12,0 0,8 -12,8 -112,40 -228,36 -357,4z" /><path style="fill:#4c4c4c" d="M403,102 l-11,-16 32,0 -11,16 -10,0z" /><path style="fill:#4c4c4c;stroke:#4c4c4c;stroke-width:2" d="M392,102 l392,-28 32,0 -392,28 -32,0z" /><path style="fill:#4c4c4c;stroke:#4c4c4c;stroke-width:2" d="M424,102 l-393,-28 -31,0 392,28 32,0z" /><path style="fill:#b2b2b2" d="M400,82 l-8,4 32,0 -8,-4 -16,0z" /><path style="fill:#333;stroke:#4c4c4c;stroke-width:2" d="M388,118 l4,-12 12,0 0,-4 8,0 0,4 12,0 4,12 -40,0z" /><circle style="fill:#333;stroke:#4c4c4c;stroke-width:2" cx="360" cy="286" r="16" /><circle style="fill:#333;stroke:#4c4c4c;stroke-width:2" cx="788" cy="246" r="12" /><circle style="fill:#b2a58c;stroke:#4c4c4c;stroke-width:2" cx="360" cy="286" r="8" /><path style="fill:#fff7e8" d="M407,170 l32,0 0,36 -32,0 0,-36z" /><path style="fill:#fff7e8" d="M368,170 l32,0 0,36 -32,0 0,-36z" /><path style="fill:#e5e5e5;stroke:#4c4c4c;stroke-width:2" d="M300,170 l12,0 0,40 -16,0 4,-40z" /><path style="fill:#e5e5e5;stroke:#4c4c4c;stroke-width:2" d="M260,174 l32,-4 -4,32 -53,4 25,-32z" /><path style="fill:#33260d" d="M260,174 l32,-4 -1,4 -31,4 -18,27 -7,1 25,-32z" /><path style="fill:#33260d" d="M300,170 l12,0 0,2 -10,0 -4,38 -2,0 4,-40z" /><path style="fill:none;stroke:#fff;stroke-width:2" d="M357,238 l0,-79 92,0" /><path style="fill:none;stroke:#bfb299;stroke-width:2" d="M357,238 l92,0 0,-79" /><path style="fill:#d9ccb3" d="M239,254 l-31,-8 445,-5 -57,9 -357,4z" /><path style="fill:#fff2d9" d="M316,154 l7,-20 29,-8 168,8 112,24 240,0 64,0 12,0 0,8 -632,-12z" /><path style="fill:none;stroke:#4c4c4c;stroke-width:2" d="M239,254 l-31,-8 -8,-20 32,-20 28,-36 36,-4 20,-12 7,-20 29,-8 168,8 112,24 240,0 48,-80 -8,-4 8,-20 48,4 -32,100 12,0 0,8 -12,8 -112,40 -228,36 -357,4" /><path style="fill:none;stroke:#4c4c4c;stroke-width:2" d="M368,206 l0,-36 32,0" /><path style="fill:none;stroke:#4c4c4c;stroke-width:2" d="M408,206 l0,-36 32,0" /><path style="fill:none;stroke:#bfb299;stroke-width:2" d="M632,174 l-132,0 0,56" /><path style="fill:none;stroke:#bfb299;stroke-width:2" d="M956,70 l-36,8" /><path style="fill:#998c73;stroke:#4c4c4c;stroke-width:2" d="M903,132 l-14,-8 41,-55 -64,-32 7,-14 56,41 32,-64 14,8 -41,55 65,32 -9,14 -55,-41 -32,64z" /></svg>