<!DOCTYPE svg PUBLIC "-//W3C//DTD SVG 20000303 Stylable//EN" "http://www.w3.org/TR/2000/03/WD-SVG-20000303/DTD/svg-20000303-stylable.dtd"[]><svg xmlns="http://www.w3.org/2000/svg" width="999px" height="824px" viewBox="0 0 999 813"><path style="fill:#a0b2b2;stroke:#4c4c4c;stroke-width:2" d="M296,480 l11,31 10,11 10,-11 11,-31 5,-31 -52,0 5,31z" /><path style="fill:#a0b2b2;stroke:#4c4c4c;stroke-width:2" d="M135,480 l10,31 11,11 10,-11 11,-31 5,-31 -52,0 5,31z" /><path style="fill:#a0b2b2;stroke:#4c4c4c;stroke-width:2" d="M822,480 l10,31 10,11 11,-11 10,-31 5,-31 -52,0 6,31z" /><path style="fill:#a0b2b2;stroke:#4c4c4c;stroke-width:2" d="M661,480 l10,31 10,11 10,-11 11,-31 5,-31 -52,0 6,31z" /><path style="fill:#000;stroke:#4c4c4c;stroke-width:2" d="M130,262 l5,-21 10,-5 21,0 11,5 5,21 -52,0z" /><path style="fill:#000;stroke:#4c4c4c;stroke-width:2" d="M291,262 l5,-21 11,-5 20,0 11,5 5,21 -52,0z" /><path style="fill:#000;stroke:#4c4c4c;stroke-width:2" d="M255,236 l-6,-11 68,5 -5,6 -57,0z" /><path style="fill:#000;stroke:#4c4c4c;stroke-width:2" d="M378,236 l6,-11 -66,5 4,6 56,0z" /><path style="fill:#000;stroke:#4c4c4c;stroke-width:2" d="M93,236 l-5,-11 68,5 -6,6 -57,0z" /><path style="fill:#000;stroke:#4c4c4c;stroke-width:2" d="M217,236 l6,-11 -67,5 5,6 56,0z" /><path style="fill:none;stroke:#4c4c4c;stroke-width:2" d="M934,417 l-205,42 -230,0 -229,0 -208,-42" /><path style="fill:#b2cccc;stroke:#4c4c4c;stroke-width:2" d="M270,480 l-208,-42 0,-21 -52,-10 -10,-10 0,-63 10,-10 977,0 12,10 0,63 -12,10 -53,10 0,21 -205,42 -459,0z" /><path style="fill:none;stroke:#4c4c4c;stroke-width:2" d="M936,417 l-208,37 -458,0 -208,-37" /><path style="fill:#b2cccc;stroke:#4c4c4c;stroke-width:2" d="M489,803 l-156,-16 -6,-26 6,-5 140,-32 52,0 141,32 5,5 -5,26 -157,16 -20,0z" /><path style="fill:#a0b2b2" d="M525,32 l-16,-5 -20,0 -16,5 -16,11 -10,21 -26,41 -5,16 0,505 5,15 47,73 10,26 11,63 10,10 10,-10 11,-63 10,-26 47,-73 5,-15 0,-505 -5,-16 -26,-41 -10,-21 -16,-11z" /><path style="fill:#aebdbd" d="M523,37 l-14,-5 -19,0 -14,5 -15,11 -9,19 -24,38 -5,16 1,504 4,16 43,73 10,26 9,62 9,11 10,-11 9,-62 10,-26 42,-73 5,-16 0,-504 -5,-16 -23,-38 -9,-19 -15,-11z" /><path style="fill:#b7c4c4" d="M521,42 l-13,-5 -17,0 -13,5 -13,11 -9,18 -21,34 -4,16 0,504 4,16 39,73 8,26 9,62 8,11 9,-11 9,-62 8,-26 38,-73 5,-16 0,-504 -5,-16 -21,-34 -8,-18 -13,-11z" /><path style="fill:#c5cfcf" d="M518,48 l-11,-5 -15,0 -12,5 -11,10 -8,16 -19,31 -4,16 0,504 4,16 34,73 8,26 8,62 7,11 8,-11 8,-62 7,-26 34,-73 4,-16 0,-504 -4,-16 -19,-31 -7,-16 -12,-10z" /><path style="fill:#ccd6d6" d="M516,53 l-10,-5 -13,0 -10,5 -11,10 -6,15 -17,27 -3,16 0,504 3,16 30,73 7,26 7,62 6,11 7,-11 7,-62 6,-26 31,-73 3,-16 0,-504 -3,-16 -17,-27 -7,-15 -10,-10z" /><path style="fill:#d8e0e0" d="M514,58 l-9,-5 -11,0 -9,5 -9,11 -6,13 -14,23 -3,16 0,504 3,16 26,73 6,26 6,62 5,11 6,-11 6,-62 6,-26 26,-73 3,-16 0,-504 -3,-16 -15,-23 -5,-13 -9,-11z" /><path style="fill:#e3e8e8" d="M511,63 l-7,-5 -10,0 -7,5 -7,11 -5,12 -12,19 -2,16 0,504 2,16 22,73 5,26 4,62 5,11 5,-11 5,-62 5,-26 22,-73 2,-16 0,-504 -2,-16 -12,-19 -5,-12 -8,-11z" /><path style="fill:#eff2f2" d="M509,69 l-6,-5 -8,0 -6,5 -6,10 -4,11 -9,15 -2,16 0,505 2,15 17,73 4,26 4,63 4,10 4,-10 4,-63 4,-26 17,-73 2,-15 0,-505 -2,-16 -9,-15 -4,-11 -6,-10z" /><path style="fill:none;stroke:#4c4c4c;stroke-width:2" d="M525,32 l-16,-5 -20,0 -16,5 -16,11 -10,21 -26,41 -5,16 0,505 5,15 47,73 10,26 11,63 10,10 10,-10 11,-63 10,-26 47,-73 5,-15 0,-505 -5,-16 -26,-41 -10,-21 -16,-11" /><path style="fill:#b2cccc" d="M499,808 l-5,-5 5,-261 5,146 5,26 -5,89 -5,5z" /><path style="fill:#000;stroke:#4c4c4c;stroke-width:2" d="M457,43 l16,-11 16,-5 21,0 15,5 16,11 -5,-16 -6,-12 -10,-10 -13,-5 -15,0 -13,5 -10,10 -6,12 -6,16z" /><path style="fill:#000;stroke:#4c4c4c;stroke-width:2" d="M501,84 l9,2 7,-22 -14,-3 -2,23z" /><path style="fill:#000;stroke:#4c4c4c;stroke-width:2" d="M514,87 l8,5 15,-17 -12,-8 -11,20z" /><path style="fill:#000;stroke:#4c4c4c;stroke-width:2" d="M525,95 l5,8 20,-10 -8,-12 -17,14z" /><path style="fill:#000;stroke:#4c4c4c;stroke-width:2" d="M531,107 l3,9 22,-1 -3,-15 -22,7z" /><path style="fill:#000;stroke:#4c4c4c;stroke-width:2" d="M488,85 l9,-1 -1,-23 -15,3 7,21z" /><path style="fill:#000;stroke:#4c4c4c;stroke-width:2" d="M476,92 l8,-5 -10,-20 -13,8 15,17z" /><path style="fill:#000;stroke:#4c4c4c;stroke-width:2" d="M468,103 l5,-8 -17,-14 -8,12 20,10z" /><path style="fill:#000;stroke:#4c4c4c;stroke-width:2" d="M464,116 l2,-9 -21,-7 -3,15 22,1z" /><path style="fill:#000;stroke:#4c4c4c;stroke-width:2" d="M507,101 l4,2 8,-9 -6,-4 -6,11z" /><path style="fill:#000;stroke:#4c4c4c;stroke-width:2" d="M513,105 l2,4 11,-5 -4,-7 -9,8z" /><path style="fill:#000;stroke:#4c4c4c;stroke-width:2" d="M516,111 l1,5 12,-1 -1,-7 -12,3z" /><path style="fill:#000;stroke:#4c4c4c;stroke-width:2" d="M487,103 l4,-2 -5,-11 -7,4 8,9z" /><path style="fill:#000;stroke:#4c4c4c;stroke-width:2" d="M483,109 l2,-4 -9,-8 -4,7 11,5z" /><path style="fill:#000;stroke:#4c4c4c;stroke-width:2" d="M481,116 l1,-5 -12,-3 -1,7 12,1z" /><path style="fill:#546666" d="M301,256 l6,-20 20,0 6,20 -32,0z" /><path style="fill:#546666" d="M140,256 l5,-20 21,0 5,20 -31,0z" /><path style="fill:#000;stroke:#4c4c4c;stroke-width:2" d="M655,262 l6,-21 10,-5 20,0 11,5 5,21 -52,0z" /><path style="fill:#000;stroke:#4c4c4c;stroke-width:2" d="M816,262 l6,-21 10,-5 21,0 10,5 5,21 -52,0z" /><path style="fill:#000;stroke:#4c4c4c;stroke-width:2" d="M780,236 l-5,-11 67,5 -5,6 -57,0z" /><path style="fill:#000;stroke:#4c4c4c;stroke-width:2" d="M904,236 l6,-11 -67,5 5,6 56,0z" /><path style="fill:#000;stroke:#4c4c4c;stroke-width:2" d="M619,236 l-5,-11 67,5 -5,6 -57,0z" /><path style="fill:#000;stroke:#4c4c4c;stroke-width:2" d="M743,236 l6,-11 -67,5 4,6 57,0z" /><path style="fill:#a0b2b2;stroke:#4c4c4c;stroke-width:2" d="M816,262 l-5,62 11,0 10,31 10,10 11,-10 10,-31 11,0 -6,-62 -10,-6 -31,0 -11,6z" /><path style="fill:#a0b2b2;stroke:#4c4c4c;stroke-width:2" d="M655,262 l-5,62 11,0 10,31 10,10 10,-10 11,-31 10,0 -5,-62 -10,-6 -31,0 -11,6z" /><path style="fill:#a0b2b2;stroke:#4c4c4c;stroke-width:2" d="M291,262 l-5,62 10,0 11,31 10,10 10,-10 11,-31 10,0 -5,-62 -10,-6 -32,0 -10,6z" /><path style="fill:#a0b2b2;stroke:#4c4c4c;stroke-width:2" d="M130,262 l-6,62 11,0 10,31 11,10 10,-10 11,-31 10,0 -5,-62 -11,-6 -31,0 -10,6z" /><path style="fill:#546666" d="M827,256 l5,-20 21,0 5,20 -31,0z" /><path style="fill:#546666" d="M666,256 l5,-20 20,0 6,20 -31,0z" /><path style="fill:none;stroke:#b2cccc;stroke-width:2" d="M521,231 l4,10 0,10 -4,10 -7,7 -10,4 -10,0 -10,-4 -7,-7" /><path style="fill:none;stroke:#fff;stroke-width:2" d="M477,261 l-4,-10 0,-10 4,-10 7,-7 10,-4 10,0 10,4 7,7" /></svg>