<!DOCTYPE svg PUBLIC "-//W3C//DTD SVG 20000303 Stylable//EN" "http://www.w3.org/TR/2000/03/WD-SVG-20000303/DTD/svg-20000303-stylable.dtd"[]><svg xmlns="http://www.w3.org/2000/svg" width="998px" height="999px" viewBox="0 0 998 998"><path style="fill:#a0b2b2;stroke:#4c4c4c;stroke-width:2" d="M785,458 l5,62 -5,125 -6,31 -10,31 -10,11 -10,-11 -11,-31 -5,-31 -5,-125 5,-62 11,-6 30,0 11,6z" /><path style="fill:#a0b2b2;stroke:#4c4c4c;stroke-width:2" d="M671,426 l5,63 -5,124 -5,32 -10,31 -11,10 -10,-10 -11,-31 -5,-32 -5,-124 5,-63 11,-5 31,0 10,5z" /><path style="fill:#a0b2b2;stroke:#4c4c4c;stroke-width:2" d="M327,426 l-5,63 5,124 5,32 11,31 10,10 10,-10 11,-31 5,-32 5,-124 -5,-63 -10,-5 -32,0 -10,5z" /><path style="fill:#a0b2b2;stroke:#4c4c4c;stroke-width:2" d="M213,458 l-5,62 5,125 5,31 11,31 10,11 10,-11 11,-31 5,-31 5,-125 -5,-62 -11,-6 -31,0 -10,6z" /><path style="fill:#b2cccc;stroke:#4c4c4c;stroke-width:2" d="M499,567 l478,130 21,-5 0,-73 -5,-11 -494,-192 -494,192 -5,11 0,73 20,5 479,-130z" /><path style="fill:none;stroke:#4c4c4c;stroke-width:2" d="M957,692 l0,-26 -458,-136 -458,136 0,26" /><path style="fill:#a0b2b2" d="M492,0 l-21,15 -11,29 -9,20 -14,42 -5,16 0,689 4,16 24,73 15,36 24,31 24,-31 14,-36 24,-73 5,-16 0,-689 -5,-16 -14,-42 -14,-36 -15,-22 -13,-6 -13,0z" /><path style="fill:#aebdbd" d="M494,9 l-20,15 -9,26 -8,18 -12,38 -5,15 0,690 5,18 21,67 13,40 20,31 21,-31 13,-40 21,-67 5,-18 0,-690 -5,-15 -12,-38 -13,-32 -24,-27 -11,0z" /><path style="fill:#b7c4c4" d="M494,18 l-20,25 -11,29 -11,34 -4,15 1,690 4,20 18,62 11,43 17,31 18,-31 10,-43 18,-62 5,-20 0,-690 -3,-15 -11,-34 -11,-29 -11,-19 -10,-5 -10,-1z" /><path style="fill:#c5cfcf" d="M495,28 l-17,23 -9,25 -9,30 -4,15 1,690 4,22 15,58 9,45 14,31 14,-31 9,-45 15,-58 5,-22 0,-690 -3,-15 -9,-30 -13,-34 -14,-14 -8,0z" /><ellipse style="fill:#ccd6d6" cx="499" cy="502" rx="34" ry="464" /><ellipse style="fill:#d8e0e0" cx="499" cy="507" rx="26" ry="460" /><ellipse style="fill:#e3e8e8" cx="499" cy="512" rx="18" ry="455" /><ellipse style="fill:#eff2f2" cx="499" cy="517" rx="10" ry="450" /><path style="fill:none;stroke:#4c4c4c;stroke-width:2" d="M492,0 l-21,15 -11,29 -9,20 -14,42 -5,16 0,689 4,16 24,73 15,36 24,31 24,-31 14,-36 24,-73 5,-16 0,-689 -5,-16 -14,-42 -14,-36 -15,-22 -13,-6 -13,0" /><path style="fill:#000;stroke:#4c4c4c;stroke-width:2" d="M500,100 l19,9 14,-17 -31,-14 -2,22z" /><path style="fill:#000;stroke:#4c4c4c;stroke-width:2" d="M522,112 l5,8 19,-10 -8,-12 -16,14z" /><path style="fill:#000;stroke:#4c4c4c;stroke-width:2" d="M478,109 l19,-8 -1,-23 -31,14 13,17z" /><path style="fill:#000;stroke:#4c4c4c;stroke-width:2" d="M471,120 l4,-8 -15,-14 -8,12 19,10z" /><path style="fill:#b2cccc;stroke:#4c4c4c;stroke-width:2" d="M489,988 l-157,-15 -5,-26 5,-6 141,-31 16,0 5,-16 5,-10 0,-31 0,31 5,10 5,16 16,0 140,31 6,6 -6,26 -156,15 -5,10 -10,0 -5,-10z" /></svg>