<!DOCTYPE svg PUBLIC "-//W3C//DTD SVG 20000303 Stylable//EN" "http://www.w3.org/TR/2000/03/WD-SVG-20000303/DTD/svg-20000303-stylable.dtd"[]><svg xmlns="http://www.w3.org/2000/svg" width="343px" height="999px" viewBox="0 0 303 999"><path style="fill:#73664d" d="M70,142 l-6,61 12,85 155,1 11,-91 -8,-57 -164,1z" /><path style="fill:#73664d;stroke:#4c4c4c;stroke-width:2" d="M85,103 l67,16 73,-16 -16,-57 -109,0 -15,57z" /><path style="fill:#963;stroke:#4c4c4c;stroke-width:2" d="M135,139 l-11,26 -65,16 -36,25 -16,47 3,83 5,47 3,31 21,15 25,-14 -4,-88 4,-53 0,26 21,103 -5,42 -8,67 -10,93 5,140 -5,41 5,155 -10,26 -16,16 6,10 41,0 26,-21 -5,-31 -6,-26 26,-175 16,-177 15,0 0,88 11,99 -6,77 21,109 -10,41 5,11 26,10 31,0 10,-10 -26,-47 11,-129 0,-42 5,-191 -5,-88 0,-67 -3,-21 10,-93 5,-41 3,57 -5,67 28,15 24,-20 5,-62 -5,-83 -21,-47 -26,-15 -67,-21 -10,-21 -36,0z" /><path style="fill:#7f4c19;stroke:#4c4c4c;stroke-width:2" d="M196,103 l-83,0 -11,-8 -6,-10 0,-10 6,-10 104,0 6,10 0,10 -6,10 -10,8z" /><ellipse style="fill:#963;stroke:#4c4c4c;stroke-width:2" cx="154" cy="80" rx="50" ry="65" /><path style="fill:#963;stroke:#4c4c4c;stroke-width:2" d="M106,76 l-4,-12 -6,12 6,-45 14,-16 17,-8 20,-2 20,2 17,8 14,16 8,45 -6,-12 -4,12 -8,-32 -8,-13 -2,-4 -4,8 -47,7 -19,0 -2,2 -6,32z" /><path style="fill:#633" d="M153,102 l14,4 -28,0 14,-4z" /><path style="fill:#b27f7f" d="M139,121 l-4,-4 36,0 -4,4 -28,0z" /><path style="fill:#633" d="M180,35 l4,-20 2,0 0,16 -2,-4 -4,8z" /><path style="fill:#d9ccb3;stroke:#4c4c4c;stroke-width:2" d="M219,103 l-10,-47 -109,0 -10,47 -5,0 10,-57 119,0 11,57 -6,0z" /><path style="fill:#73664d;stroke:#4c4c4c;stroke-width:2" d="M118,127 l-9,-17 -5,-19 -4,-35 4,-5 4,39 5,19 8,17 12,11 15,5 13,0 14,-6 12,-11 8,-17 5,-20 5,-37 4,5 -5,35 -5,19 -9,17 -13,12 -15,6 -16,0 -15,-6 -13,-12z" /><path style="fill:#f2e5cc;stroke:#4c4c4c;stroke-width:2" d="M95,46 l11,-21 12,-17 24,-8 26,0 23,8 12,17 11,21 -119,0z" /><path style="fill:#fff2d9;stroke:#4c4c4c;stroke-width:2" d="M95,46 l0,10 119,0 0,-10 -119,0z" /><path style="fill:#40331a;stroke:#4c4c4c;stroke-width:2" d="M111,72 l83,0 -6,16 -31,5 -5,-11 -5,11 -31,-5 -5,-16z" /><path style="fill:#000" d="M184,64 l-25,-4 2,4 25,2 -2,-2z" /><path style="fill:#000" d="M123,64 l24,-4 -2,4 -24,2 2,-2z" /><path style="fill:#000" d="M133,84 l4,0 2,-6 -2,-6 -4,0 -2,6 2,6z" /><path style="fill:#000" d="M169,84 l5,0 1,-6 -1,-6 -5,0 -1,6 1,6z" /><path style="fill:none;stroke:#4c4c4c;stroke-width:2" d="M105,72 l99,0" /><path style="fill:none;stroke:#4c4c4c;stroke-width:2" d="M147,41 l0,-16" /><path style="fill:none;stroke:#4c4c4c;stroke-width:2" d="M157,41 l0,-16" /><path style="fill:#f2e5cc;stroke:#4c4c4c;stroke-width:2" d="M107,944 l-7,-3 -36,-50 -4,-90 -1,-61 -5,-135 10,-114 10,-41 52,5 63,5 46,-10 10,98 5,72 -10,130 -5,66 -6,101 1,24 -41,0 -6,6 -18,-120 -2,-82 -11,-172 -10,167 -21,129 -14,75z" /><path style="fill:#d9ccb3" d="M152,564 l-10,160 -21,140 -16,63 6,-48 0,-88 26,-108 5,-104 0,-36 0,-21 5,-41 0,36 5,31 21,-36 -10,46 10,104 5,129 5,93 16,42 -16,5 -10,-67 -10,-135 -11,-165z" /><path style="fill:#f2e5cc;stroke:#4c4c4c;stroke-width:2" d="M76,451 l-13,-34 -23,13 -25,-23 -7,-38 -8,-113 17,-61 41,-22 63,-12 30,7 38,-11 48,16 43,22 20,47 3,78 -10,88 -22,7 -28,-16 -4,18 6,18 -8,18 -48,11 -113,-13z" /><path style="fill:#8c7f66" d="M66,411 l-8,-19 7,-14 -4,-35 3,-18 -8,-31 -11,-23 12,6 0,-34 6,18 13,-15 -9,35 10,28 -1,18 2,13 -7,23 5,24 -10,24z" /><ellipse style="fill:#8c7f66" cx="243" cy="328" rx="13" ry="81" /><path style="fill:#594c33;stroke:#4c4c4c;stroke-width:2" d="M68,435 l1,15 96,5 76,-4 3,-14 -37,-3 14,-156 2,-53 26,-52 -19,-8 -36,33 -78,-1 -36,-31 -18,3 22,56 -1,52 16,154 -31,4z" /><path style="fill:#40331a" d="M109,220 l-3,62 6,85 80,0 6,-90 -4,-58 -85,1z" /><path style="fill:#8c7f66" d="M209,354 l-115,-163 -8,32 121,178 2,-47z" /><path style="fill:#f2e5cc;stroke:#4c4c4c;stroke-width:2" d="M123,379 l12,-3 18,-5 9,-14 -2,-9 -11,-24 -11,-4 -24,8 -15,21 24,30z" /><path style="fill:#333;stroke:#4c4c4c;stroke-width:2" d="M66,355 l2,-29 203,-90 7,5 -3,7 -84,40 5,9 -61,24 -2,5 -14,5 -3,-3 -18,27 -32,0z" /><path style="fill:#f2e5cc;stroke:#4c4c4c;stroke-width:2" d="M200,335 l-12,-8 -9,-10 -3,-16 -5,-12 -2,-8 0,-7 13,-8 17,-3 14,21 6,19 5,4 -24,28z" /><path style="fill:#f2e5cc;stroke:#4c4c4c;stroke-width:2" d="M269,415 l-33,-19 -48,-64 28,-21 4,-13 47,43 25,36 4,22 -8,15 -19,1z" /><path style="fill:#f2e5cc;stroke:#4c4c4c;stroke-width:2" d="M38,430 l38,-9 54,-42 -21,-28 -1,-14 -48,23 -34,28 -11,20 4,17 19,5z" /><path style="fill:#f2e5cc" d="M17,411 l-5,-23 21,-15 10,11 -26,27z" /><path style="fill:#f2e5cc" d="M295,380 l-1,15 -30,-49 9,-6 22,40z" /><path style="fill:#fff;stroke:#4c4c4c;stroke-width:2" d="M122,161 l30,7 37,-10 4,1 -26,13 -30,0 -22,-9 7,-2z" /><path style="fill:#a69980;stroke:#4c4c4c;stroke-width:2" d="M83,996 l-27,1 -18,-1 -5,-7 -1,-12 7,-12 15,-6 8,-10 3,-33 -7,-96 10,-2 45,0 17,8 -13,87 2,44 4,5 2,11 -5,4 -21,8 -16,11z" /><path style="fill:#a69980;stroke:#4c4c4c;stroke-width:2" d="M214,998 l26,1 15,-3 4,-7 1,-12 -6,-12 -14,-6 -7,-10 -3,-33 7,-96 -10,-2 -48,0 -16,8 12,87 2,50 -4,6 -1,16 5,5 19,7 18,1z" /><path style="fill:none;stroke:#4c4c4c;stroke-width:2" d="M227,836 l-37,0 37,14 -35,0 34,11 -30,0 29,11 -27,1 26,9 -24,1 24,8 -22,1 21,6 -19,1 18,7 -15,0" /><path style="fill:none;stroke:#4c4c4c;stroke-width:2" d="M68,836 l40,0 -40,14 38,0 -37,11 33,0 -32,11 29,1 -28,9 26,1 -25,8 23,1 -22,6 20,1 -20,7 17,0" /><path style="fill:#b2a58c" d="M213,994 l-6,-5 -2,-10 12,-6 27,-2 12,5 1,9 -6,10 -27,1 -11,-2z" /><path style="fill:#b2a58c" d="M42,991 l-6,-4 -1,-10 11,-7 27,-1 12,4 1,10 -6,10 -27,1 -11,-3z" /><path style="fill:#ccbfa6" d="M195,676 l6,55 13,24 21,-9 7,-62 5,-57 -22,11 -30,38z" /><path style="fill:#ccbfa6" d="M195,606 l30,-12 11,-24 5,-49 -23,-30 -19,7 -9,37 5,71z" /><path style="fill:#ccbfa6" d="M103,616 l41,53 4,-60 0,-51 -18,-16 -30,5 -14,36 17,33z" /><path style="fill:#ccbfa6" d="M65,548 l46,-25 12,-18 -2,-35 -19,-14 -26,9 -8,38 -3,45z" /><path style="fill:#ccbfa6" d="M65,749 l30,-12 10,-23 6,-50 -23,-30 -20,7 -9,37 6,71z" /><path style="fill:#ccbfa6" d="M8,341 l30,-13 2,-28 -7,-30 -18,-16 -12,16 5,71z" /><path style="fill:#ccbfa6" d="M122,382 l-26,-20 -25,13 -22,22 -6,22 20,3 59,-40z" /><path style="fill:#ccbfa6" d="M294,234 l-30,13 -2,28 7,30 18,16 12,-16 -5,-71z" /><path style="fill:#40331a;stroke:#4c4c4c;stroke-width:2" d="M50,649 l99,-7 0,14 -99,10 0,-17z" /><path style="fill:#40331a;stroke:#4c4c4c;stroke-width:2" d="M57,588 l-11,-3 0,-117 26,-18 14,3 -1,12 154,-10 0,14 -155,14 -27,105z" /></svg>