<!DOCTYPE svg PUBLIC "-//W3C//DTD SVG 20000303 Stylable//EN" "http://www.w3.org/TR/2000/03/WD-SVG-20000303/DTD/svg-20000303-stylable.dtd"[]><svg xmlns="http://www.w3.org/2000/svg" width="297px" height="999px" viewBox="0 0 255 999"><path style="fill:#000;stroke:#4c4c4c;stroke-width:2" d="M183,93 l-8,77 -8,-6 -1,6 -9,0 -12,-11 -3,-11 20,-43 21,-12z" /><path style="fill:#000;stroke:#4c4c4c;stroke-width:2" d="M65,93 l10,83 3,-6 2,6 8,0 -1,-11 6,11 21,-51 -49,-32z" /><path style="fill:#a69980;stroke:#4c4c4c;stroke-width:2" d="M163,172 l-5,-25 -68,0 -5,25 78,0z" /><path style="fill:#963;stroke:#4c4c4c;stroke-width:2" d="M105,146 l-11,25 -54,21 -21,37 -10,47 0,66 -5,51 -3,121 4,35 10,31 23,15 0,-38 -5,-42 14,-134 9,-55 5,-67 -2,49 18,74 -18,48 -14,64 -8,115 5,138 -5,41 1,154 -11,26 -15,15 5,10 41,0 26,-20 -5,-31 -5,-26 25,-174 21,-174 5,11 5,75 10,98 4,75 12,110 -10,41 5,11 28,6 31,0 7,-6 -25,-47 0,-172 7,-40 16,-129 0,-70 -5,-54 -7,-42 -17,-55 22,-72 -5,-61 8,96 2,66 13,90 -6,15 -5,33 0,43 27,-38 5,-50 4,-98 -4,-73 -3,-69 -20,-63 -25,-17 -48,-16 -11,-20 -35,0z" /><path style="fill:#963;stroke:#4c4c4c;stroke-width:2" d="M167,111 l-85,0 -11,-9 -6,-10 0,-11 6,-10 107,0 5,10 0,11 -5,10 -11,9z" /><ellipse style="fill:#963;stroke:#4c4c4c;stroke-width:2" cx="124" cy="86" rx="51" ry="66" /><path style="fill:#633" d="M123,110 l15,3 -29,1 14,-4z" /><path style="fill:#b27f7f" d="M109,128 l-4,-4 37,0 -4,4 -29,0z" /><path style="fill:#000" d="M155,70 l-26,-4 2,4 25,2 -1,-2z" /><path style="fill:#000" d="M92,70 l25,-4 -2,4 -25,2 2,-2z" /><path style="fill:#000" d="M103,91 l4,0 2,-7 -2,-5 -4,0 -2,5 2,7z" /><path style="fill:#000" d="M140,91 l4,0 2,-7 -2,-5 -4,0 -2,5 2,7z" /><path style="fill:#333;stroke:#4c4c4c;stroke-width:2" d="M75,83 l-4,-13 -6,13 11,-46 10,-17 16,-8 21,-2 21,2 16,8 12,17 11,46 -6,-13 -4,13 -8,-34 -11,-16 2,20 -64,0 2,-20 -12,16 -7,34z" /><path style="fill:#f2e5cc;stroke:#4c4c4c;stroke-width:2" d="M71,52 l14,6 38,-7 34,7 19,-7 -25,-18 -55,0 -25,19z" /><path style="fill:#d9ccb3;stroke:#4c4c4c;stroke-width:2" d="M71,52 l9,-42 28,-10 33,0 28,10 7,40 -24,-10 -30,-3 -28,4 -23,11z" /><path style="fill:#a69980;stroke:#4c4c4c;stroke-width:2" d="M53,454 l0,-21 152,0 0,21 -152,0z" /><path style="fill:#f2e5cc;stroke:#4c4c4c;stroke-width:2" d="M88,829 l-14,0 -37,0 -3,-12 -1,-68 1,-142 8,-110 9,-46 59,-3 55,5 42,1 7,30 6,48 -3,70 -7,76 -9,89 -6,56 -10,-5 -39,6 -5,5 -11,-143 -9,-86 -11,86 -12,79 -10,64z" /><path style="fill:#bfb299" d="M122,594 l-27,170 -13,95 -3,62 -6,-46 8,-84 24,-105 5,-51 0,-51 0,-21 5,-35 0,30 5,31 21,-36 -11,46 11,66 5,129 5,92 16,41 -16,5 -6,-74 -12,-168 -11,-96z" /><path style="fill:#bfb299" d="M160,804 l18,1 11,-8 7,-15 5,-31 7,-76 -20,107 -18,13 -18,-15 8,24z" /><path style="fill:#bfb299" d="M67,798 l-16,3 -6,-10 -9,4 4,-23 -4,-77 2,-38 12,122 12,5 20,-12 -15,26z" /><path style="fill:#8c7f66;stroke:#4c4c4c;stroke-width:2" d="M59,995 l-21,1 -19,0 -9,-7 2,-11 7,-12 6,-6 8,-11 3,-32 -7,-96 10,-2 45,0 10,7 -11,91 2,40 4,5 2,11 -5,5 -7,5 -20,12z" /><path style="fill:#8c7f66;stroke:#4c4c4c;stroke-width:2" d="M184,998 l26,1 8,-3 4,-7 -4,-12 -12,-20 -9,-20 -1,-42 2,-74 -10,-2 -33,-1 -16,8 11,109 -3,28 -6,12 1,10 5,5 19,7 18,1z" /><path style="fill:#73664d" d="M169,995 l-16,-5 -10,-7 4,-10 27,8 20,-6 25,9 -4,11 -20,2 -26,-2z" /><path style="fill:#73664d" d="M21,994 l-5,-5 -1,-12 23,-5 15,7 34,-15 2,9 -37,21 -17,0 -14,0z" /><path style="fill:none;stroke:#bfb299;stroke-width:2" d="M197,837 l-37,0 37,14 -35,0 34,11 -30,0 29,11 -27,0 26,10 -24,0 24,8 -22,1 21,6 -19,1 18,7 -15,0" /><path style="fill:none;stroke:#bfb299;stroke-width:2" d="M39,837 l40,0 -40,14 38,0 -37,11 32,0 -31,11 29,0 -28,10 26,0 -26,8 24,1 -22,6 19,1 -19,7 16,0" /><path style="fill:#f2e5cc;stroke:#4c4c4c;stroke-width:2" d="M56,434 l-2,-9 5,-12 -3,-29 -8,11 -10,84 -19,4 -19,13 2,-98 1,-81 2,-62 12,-50 21,-22 52,-12 36,35 1,-11 31,-28 50,11 26,18 14,63 0,48 7,96 -6,91 -9,-7 -19,1 -6,-50 -7,-47 1,-45 -7,29 2,45 -2,15 -146,-1z" /><path style="fill:#d9ccb3" d="M126,266 l1,-13 -70,0 2,13 67,0z" /><path style="fill:#ccbfa6" d="M215,388 l8,-11 15,-2 -23,-8 -4,-52 0,-28 -5,-46 -4,63 -19,12 17,5 1,48 9,-27 -1,49 7,40 -1,-43z" /><path style="fill:#ccbfa6" d="M41,434 l-4,-48 -14,-19 23,0 0,-24 7,-48 -7,-24 7,7 1,-51 8,75 22,11 -16,10 -5,19 -2,-19 -5,58 -7,9 -8,44z" /><path style="fill:#4c4c4c;stroke:#4c4c4c;stroke-width:2" d="M29,609 l-12,-3 0,-117 27,-18 14,3 -2,12 162,-9 0,14 -163,13 -26,105z" /><path style="fill:none;stroke:#4c4c4c;stroke-width:2" d="M56,261 l3,44 -6,82" /><path style="fill:none;stroke:#4c4c4c;stroke-width:2" d="M207,251 l2,34 -3,36 1,33" /><path style="fill:#e5e5e5;stroke:#4c4c4c;stroke-width:2" d="M126,207 l-20,-20 35,0 -13,9 -2,11z" /><path style="fill:#d9ccb3;stroke:#4c4c4c;stroke-width:2" d="M131,220 l2,-39 25,-34 5,24 -32,49z" /><path style="fill:#d9ccb3;stroke:#4c4c4c;stroke-width:2" d="M118,220 l-2,-38 -26,-35 -5,25 33,48z" /><path style="fill:none;stroke:#998c73;stroke-width:2" d="M130,434 l5,-11 -2,-10 3,-152 -4,-41" /><path style="fill:none;stroke:#998c73;stroke-width:2" d="M139,318 l29,9 29,-9 0,-48 -53,0 0,-9 53,0" /><path style="fill:none;stroke:#998c73;stroke-width:2" d="M126,270 l0,48 -29,9 -29,-9" /><path style="fill:#fff" d="M5,270 l20,3 1,-31 -17,-1 -4,29z" /><path style="fill:#f00" d="M25,248 l1,-6 -17,-1 -1,5 17,2z" /><path style="fill:#f00" d="M25,261 l0,-7 -17,-2 -1,6 18,3z" /><path style="fill:#f00" d="M5,270 l20,3 0,-6 -19,-3 -1,6z" /><path style="fill:#00f" d="M14,255 l11,1 1,-14 -11,0 -1,13z" /></svg>