<!DOCTYPE svg PUBLIC "-//W3C//DTD SVG 20000303 Stylable//EN" "http://www.w3.org/TR/2000/03/WD-SVG-20000303/DTD/svg-20000303-stylable.dtd"[]><svg xmlns="http://www.w3.org/2000/svg" width="297px" height="999px" viewBox="0 0 255 999"><path style="fill:#cccc4c;stroke:#4c4c4c;stroke-width:2" d="M183,94 l-8,77 -8,-6 -2,6 -8,0 -12,-11 -3,-10 20,-43 21,-13z" /><path style="fill:#cccc4c;stroke:#4c4c4c;stroke-width:2" d="M65,94 l10,83 2,-6 2,6 9,0 -1,-11 6,11 21,-50 -49,-33z" /><path style="fill:#407340;stroke:#4c4c4c;stroke-width:2" d="M163,174 l-5,-26 -68,0 -5,25 78,1z" /><path style="fill:#fc9;stroke:#4c4c4c;stroke-width:2" d="M105,147 l-11,25 -54,21 -21,37 -10,47 0,65 -5,52 -3,120 4,36 10,30 23,16 0,-38 -6,-42 15,-134 8,-55 6,-67 -2,49 17,74 -17,48 -14,64 -8,114 5,139 -5,41 1,153 -11,26 -15,15 5,10 41,0 26,-20 -5,-31 -5,-26 25,-174 21,-174 5,12 5,75 10,97 3,75 13,110 -11,41 6,11 28,6 31,0 7,-6 -26,-47 0,-172 8,-39 15,-129 0,-70 -5,-54 -7,-42 -16,-55 22,-72 -6,-61 8,95 3,66 12,90 -5,16 -6,32 0,43 28,-37 4,-51 5,-97 -5,-74 -2,-68 -20,-63 -25,-17 -48,-16 -11,-20 -35,0z" /><path style="fill:#fc9;stroke:#4c4c4c;stroke-width:2" d="M166,112 l-84,0 -11,-9 -6,-10 0,-10 6,-10 106,0 6,10 0,10 -6,10 -11,9z" /><ellipse style="fill:#fc9;stroke:#4c4c4c;stroke-width:2" cx="124" cy="88" rx="51" ry="66" /><path style="fill:#963" d="M123,111 l15,4 -29,0 14,-4z" /><path style="fill:#e5b2b2" d="M109,129 l-4,-4 37,0 -4,4 -29,0z" /><path style="fill:#633" d="M154,71 l-25,-4 2,4 25,3 -2,-3z" /><path style="fill:#633" d="M92,71 l25,-4 -2,4 -25,3 2,-3z" /><path style="fill:#633" d="M102,92 l5,0 2,-6 -2,-6 -5,0 -2,6 2,6z" /><path style="fill:#633" d="M140,92 l4,0 2,-6 -2,-6 -4,0 -2,6 2,6z" /><path style="fill:#e5e565;stroke:#4c4c4c;stroke-width:2" d="M75,84 l-4,-13 -6,13 4,-30 17,-32 16,-9 21,-1 21,1 16,9 17,27 6,35 -6,-13 -4,13 -9,-33 -10,-17 2,21 -64,0 2,-21 -12,17 -7,33z" /><path style="fill:#4c7f4c;stroke:#4c4c4c;stroke-width:2" d="M53,455 l0,-21 152,0 0,21 -152,0z" /><path style="fill:#696;stroke:#4c4c4c;stroke-width:2" d="M87,829 l-13,0 -37,0 -4,-11 0,-68 1,-143 8,-110 9,-45 59,-3 55,5 42,0 7,31 5,48 -2,69 -7,77 -10,88 -5,56 -10,-5 -39,6 -5,5 -11,-143 -9,-86 -11,86 -12,79 -11,64z" /><path style="fill:#4c7f4c" d="M121,594 l-26,170 -13,95 -3,62 -6,-46 8,-84 24,-105 5,-51 0,-51 0,-20 5,-35 0,29 5,31 21,-36 -11,47 11,66 5,128 5,92 15,41 -15,5 -6,-74 -12,-167 -12,-97z" /><path style="fill:#4c7f4c" d="M159,804 l19,1 11,-8 7,-14 4,-32 8,-76 -21,108 -17,12 -18,-15 7,24z" /><path style="fill:#4c7f4c" d="M67,799 l-16,2 -7,-10 -8,5 4,-24 -4,-76 2,-38 12,121 12,6 20,-13 -15,27z" /><path style="fill:#4c4c4c;stroke:#4c4c4c;stroke-width:2" d="M59,995 l-21,1 -19,0 -9,-7 2,-11 7,-12 6,-6 7,-11 4,-32 -7,-96 10,-2 45,0 10,7 -11,91 2,40 4,5 2,11 -5,5 -7,5 -20,12z" /><path style="fill:#4c4c4c;stroke:#4c4c4c;stroke-width:2" d="M184,998 l25,1 8,-3 5,-7 -5,-12 -11,-20 -9,-20 -1,-42 2,-74 -10,-2 -34,-1 -15,8 11,109 -3,28 -6,12 1,10 5,5 19,7 18,1z" /><path style="fill:#333" d="M169,995 l-16,-5 -10,-7 4,-10 27,8 20,-6 25,9 -4,11 -20,2 -26,-2z" /><path style="fill:#333" d="M21,994 l-5,-5 -1,-12 23,-5 15,7 34,-15 1,9 -36,21 -17,0 -14,0z" /><path style="fill:none;stroke:#7f7f7f;stroke-width:2" d="M197,837 l-37,0 37,14 -35,0 34,11 -30,0 29,11 -27,1 26,9 -24,0 23,8 -21,1 20,6 -18,1 18,7 -15,0" /><path style="fill:none;stroke:#7f7f7f;stroke-width:2" d="M39,837 l39,0 -39,14 37,0 -36,11 32,0 -31,11 29,1 -28,9 26,0 -26,8 23,1 -22,6 20,1 -19,7 16,0" /><path style="fill:#696;stroke:#4c4c4c;stroke-width:2" d="M56,435 l-2,-9 5,-12 -4,-29 -7,11 -10,83 -19,5 -19,12 2,-98 1,-80 2,-62 12,-50 21,-22 52,-12 36,35 1,-11 31,-28 50,11 26,19 13,62 1,48 7,96 -6,91 -10,-7 -18,1 -6,-50 -7,-47 1,-45 -7,28 2,46 -2,15 -146,-1z" /><path style="fill:#e5e5e5" d="M126,267 l1,-13 -70,0 2,13 67,0z" /><path style="fill:#4c7f4c" d="M215,388 l8,-10 15,-2 -23,-8 -5,-52 1,-28 -5,-46 -4,63 -20,12 18,5 1,48 9,-27 -1,49 7,40 -1,-44z" /><path style="fill:#4c7f4c" d="M41,435 l-4,-48 -14,-19 23,0 0,-24 7,-48 -7,-24 7,7 1,-51 8,75 22,11 -16,10 -5,18 -2,-18 -5,58 -7,9 -8,44z" /><path style="fill:#4c4c4c;stroke:#4c4c4c;stroke-width:2" d="M29,609 l-12,-3 0,-116 27,-18 14,3 -2,12 161,-9 1,14 -163,12 -26,105z" /><path style="fill:none;stroke:#4c4c4c;stroke-width:2" d="M55,262 l4,44 -6,82" /><path style="fill:none;stroke:#4c4c4c;stroke-width:2" d="M207,253 l2,33 -4,36 2,32" /><path style="fill:#e5e5e5;stroke:#4c4c4c;stroke-width:2" d="M126,209 l-20,-21 35,0 -13,9 -2,12z" /><path style="fill:#696;stroke:#4c4c4c;stroke-width:2" d="M131,221 l2,-39 25,-34 5,25 -32,48z" /><path style="fill:#696;stroke:#4c4c4c;stroke-width:2" d="M118,221 l-2,-38 -26,-35 -5,25 33,48z" /><path style="fill:#fff" d="M5,271 l20,3 1,-31 -17,-1 -4,29z" /><path style="fill:#f00" d="M25,249 l1,-6 -17,-1 -1,5 17,2z" /><path style="fill:#f00" d="M25,262 l0,-7 -17,-2 -1,6 18,3z" /><path style="fill:#f00" d="M5,271 l20,3 0,-6 -19,-3 -1,6z" /><path style="fill:#00f" d="M14,256 l11,1 1,-14 -11,0 -1,13z" /><path style="fill:none;stroke:#363;stroke-width:2" d="M128,430 l5,-11 -3,-10 4,-146 -4,-47" /><path style="fill:none;stroke:#363;stroke-width:2" d="M138,318 l28,10 28,-10 0,-46 -51,0 0,-9 51,0" /><path style="fill:none;stroke:#363;stroke-width:2" d="M124,272 l0,46 -28,10 -28,-10" /><path style="fill:#7fb27f;stroke:#4c4c4c;stroke-width:2" d="M69,54 l15,6 39,-7 36,7 19,-7 -26,-19 -56,0 -27,20z" /><path style="fill:#696;stroke:#4c4c4c;stroke-width:2" d="M69,54 l10,-44 29,-10 34,0 29,11 7,41 -24,-10 -32,-4 -29,5 -24,11z" /></svg>