<!DOCTYPE svg PUBLIC "-//W3C//DTD SVG 20000303 Stylable//EN" "http://www.w3.org/TR/2000/03/WD-SVG-20000303/DTD/svg-20000303-stylable.dtd"[]><svg xmlns="http://www.w3.org/2000/svg" width="299px" height="998px" viewBox="0 0 258 999"><path style="fill:#cc3;stroke:#4c4c4c;stroke-width:2" d="M187,83 l-8,78 -8,-6 -2,6 -8,0 -12,-11 -3,-11 20,-43 21,-13z" /><path style="fill:#cc3;stroke:#4c4c4c;stroke-width:2" d="M68,83 l10,84 2,-6 3,6 8,0 -1,-11 6,11 21,-51 -49,-33z" /><path style="fill:#98b2b2;stroke:#4c4c4c;stroke-width:2" d="M165,164 l-6,-23 -63,0 -5,23 74,0z" /><path style="fill:#fc9;stroke:#4c4c4c;stroke-width:2" d="M108,136 l-11,26 -54,21 -21,38 -10,47 0,66 -6,52 -3,123 4,35 11,31 23,16 0,-38 -6,-43 15,-136 9,-56 5,-67 -2,50 18,74 -18,49 -14,65 -8,115 5,140 -5,42 1,156 -11,25 -16,16 6,10 41,0 26,-20 -5,-31 -5,-27 26,-176 21,-176 5,12 5,76 10,98 2,77 14,110 -10,42 5,10 26,11 31,0 10,-11 -26,-46 0,-175 8,-40 15,-130 0,-71 -5,-55 -7,-42 -17,-56 23,-72 -6,-62 8,97 3,66 13,91 -6,16 -6,33 0,43 28,-38 5,-51 4,-98 -4,-75 -3,-69 -20,-64 -25,-17 -49,-16 -11,-21 -36,0z" /><path style="fill:#fc9;stroke:#4c4c4c;stroke-width:2" d="M170,101 l-85,0 -11,-9 -6,-10 0,-11 6,-10 108,0 5,10 0,11 -5,10 -12,9z" /><ellipse style="fill:#fc9;stroke:#4c4c4c;stroke-width:2" cx="127" cy="77" rx="51" ry="67" /><path style="fill:#e5b27f" d="M127,100 l14,4 -29,0 15,-4z" /><path style="fill:#e5b2b2" d="M112,119 l-4,-4 37,0 -4,4 -29,0z" /><path style="fill:none;stroke:#c99;stroke-width:2" d="M108,115 l37,0" /><path style="fill:#665940" d="M158,60 l-25,-4 2,4 25,2 -2,-2z" /><path style="fill:#665940" d="M95,60 l26,-4 -3,4 -25,2 2,-2z" /><path style="fill:#665940" d="M106,81 l4,0 2,-6 -2,-6 -4,0 -2,6 2,6z" /><path style="fill:#665940" d="M143,81 l5,0 2,-6 -2,-6 -5,0 -1,6 1,6z" /><path style="fill:#e5e54c;stroke:#4c4c4c;stroke-width:2" d="M78,73 l-4,-13 -6,13 6,-46 15,-17 16,-9 22,-1 21,1 16,9 15,17 8,46 -6,-13 -4,13 -9,-34 -10,-17 2,21 -65,0 2,-21 -12,17 -7,34z" /><path style="fill:#000;stroke:#4c4c4c;stroke-width:2" d="M229,993 l0,-11 -23,-24 -12,-19 -25,0 -10,-17 -6,33 -5,16 0,11 5,11 22,6 49,0 5,-6z" /><path style="fill:#000;stroke:#4c4c4c;stroke-width:2" d="M13,993 l0,-11 17,-16 11,-27 26,0 16,-17 5,39 1,12 -11,9 -11,11 -22,6 -26,0 -6,-6z" /><path style="fill:#fff" d="M194,258 l18,3 1,-28 -15,-1 -4,26z" /><path style="fill:#f00" d="M213,238 l0,-5 -15,-1 -1,4 16,2z" /><path style="fill:#f00" d="M212,250 l0,-7 -15,-1 -1,5 16,3z" /><path style="fill:#f00" d="M194,258 l18,3 0,-6 -17,-3 -1,6z" /><path style="fill:#00f" d="M202,244 l10,1 1,-12 -10,-1 -1,12z" /><path style="fill:#e5ffff;stroke:#4c4c4c;stroke-width:2" d="M64,409 l0,-35 -4,-35 -4,-17 1,11 -5,37 -13,130 -14,-3 -24,12 -1,-116 7,-98 8,-52 11,-39 17,-25 53,-16 34,33 1,-11 29,-26 56,15 15,17 19,64 4,59 4,84 -4,94 -6,-5 -20,4 -12,-89 -2,-69 -1,-26 -11,31 1,53 5,9 -5,7 -139,2z" /><path style="fill:#cbe5e5;stroke:#4c4c4c;stroke-width:2" d="M131,209 l-1,-35 30,-34 5,24 -34,45z" /><path style="fill:#cbe5e5;stroke:#4c4c4c;stroke-width:2" d="M128,209 l0,-36 -32,-32 -5,23 37,45z" /><path style="fill:#cbe5e5" d="M223,446 l-1,-54 19,-6 -17,-15 -6,-49 8,-12 -12,-41 -2,-26 -3,47 -16,19 -39,1 46,29 8,-17 5,-20 2,32 2,67 6,45z" /><path style="fill:#cbe5e5" d="M41,452 l0,-58 -18,-5 20,-4 6,-35 -3,-26 5,-19 1,-40 8,32 51,14 -47,13 0,33 -8,-37 -2,3 1,11 -7,63 -7,55z" /><path style="fill:#006" d="M120,259 l0,-12 -65,-1 2,13 63,0z" /><path style="fill:#006" d="M165,160 l52,13 10,14 -67,-17 5,-10z" /><path style="fill:#006" d="M95,162 l-59,18 -8,17 73,-23 -6,-12z" /><path style="fill:#ccc" d="M153,247 l44,0 0,5 -44,0 0,-5z" /><path style="fill:#006" d="M163,247 l0,-20 5,0 0,20 -5,0z" /><path style="fill:#f00" d="M158,247 l0,-15 5,0 0,15 -5,0z" /><path style="fill:#000" d="M173,247 l0,-15 5,0 0,15 -5,0z" /><path style="fill:none;stroke:#339;stroke-width:2" d="M130,414 l3,-3 -2,-20 4,-139 -5,-49" /><path style="fill:none;stroke:#339;stroke-width:2" d="M145,310 l29,10 28,-10 0,-48 -52,0 0,-10 52,0" /><path style="fill:none;stroke:#339;stroke-width:2" d="M118,261 l0,48 -29,10 -29,-10" /><path style="fill:#006;stroke:#4c4c4c;stroke-width:2" d="M129,179 l-9,9 5,15 -9,198 15,12 17,-13 -14,-196 4,-17 -9,-8z" /><path style="fill:#006;stroke:#4c4c4c;stroke-width:2" d="M88,950 l-16,-11 -34,-1 -1,-146 2,-65 0,-136 7,-106 15,-62 38,-5 66,5 43,0 12,95 2,84 -13,139 -3,67 -4,138 -7,-4 -35,0 -7,6 -10,-129 -6,-87 -11,-130 -10,125 -22,136 -6,87z" /><path style="fill:#003" d="M126,597 l-11,127 -21,133 -7,90 -13,-11 21,-161 15,-108 6,-54 4,-33 1,-26 1,-38 3,31 3,40 6,-41 3,45 11,54 6,136 -2,59 10,98 -8,6 -6,-81 -11,-147 -11,-119z" /><path style="fill:#000" d="M191,432 l20,65 -9,-64 -11,-1z" /><path style="fill:#000" d="M77,432 l-28,65 14,-64 14,-1z" /><path style="fill:#000;stroke:#4c4c4c;stroke-width:2" d="M62,428 l0,-22 144,0 0,22 -144,0z" /><path style="fill:#ff0;stroke:#4c4c4c;stroke-width:2" d="M116,404 l26,1 0,23 -27,0 1,-24z" /><path style="fill:#000" d="M119,407 l19,0 0,17 -20,0 1,-17z" /></svg>