<!DOCTYPE svg PUBLIC "-//W3C//DTD SVG 20000303 Stylable//EN" "http://www.w3.org/TR/2000/03/WD-SVG-20000303/DTD/svg-20000303-stylable.dtd"[]><svg xmlns="http://www.w3.org/2000/svg" width="999px" height="508px" viewBox="0 0 999 479"><path style="fill:#193300" d="M0,307 l0,-57 396,-62 -1,-136 604,0 0,261 -105,93 -749,0 -109,-99 -36,0z" /><path style="fill:#000" d="M457,172 l484,0 0,146 -484,0 0,-146z" /><path style="fill:#ccc;stroke:#4c4c4c;stroke-width:2" d="M20,182 l11,0 0,42 -11,0 0,-42z" /><path style="fill:#7fb27f" d="M20,297 l5,-99 6,-21 213,0 0,-42 16,0 0,-88 -16,-6 166,0 0,328 -140,0 0,-46 -73,-73 -104,0 -57,47 -16,0z" /><path style="fill:#000;fill-rule:evenodd" d="M132,265 l20,0 0,214 -20,0 0,-214z M105,271 l19,-5 55,207 -19,5 -55,-207z M80,285 l17,-10 107,185 -17,10 -107,-185z M60,303 l13,-13 152,151 -14,14 -151,-152z M45,327 l10,-17 185,107 -10,17 -185,-107z M36,354 l5,-19 207,55 -5,19 -207,-55z M35,382 l0,-20 214,0 0,20 -214,0z M41,409 l-5,-19 207,-55 5,19 -207,55z M55,434 l-10,-17 185,-107 10,17 -185,107z M73,455 l-13,-14 151,-151 14,13 -152,152z M97,470 l-17,-10 107,-185 17,10 -107,185z M124,478 l-19,-5 55,-207 19,5 -55,207z " /><circle style="fill:#333;stroke:#4c4c4c;stroke-width:2" cx="142" cy="372" r="102" /><circle style="fill:#4c4c4c" cx="142" cy="372" r="43" /><circle style="fill:#98b27f;stroke:#4c4c4c;stroke-width:2" cx="142" cy="372" r="34" /><path style="fill:#000" d="M147,377 l18,5 -3,5 -5,5 -5,3 -5,-18z" /><path style="fill:#000" d="M137,377 l-4,18 -6,-3 -4,-5 -3,-5 17,-5z" /><path style="fill:#000" d="M137,367 l-17,-4 3,-6 4,-4 6,-3 4,17z" /><path style="fill:#000" d="M147,367 l5,-17 5,3 5,4 3,6 -18,4z" /><path style="fill:#000;fill-rule:evenodd" d="M882,265 l20,0 0,214 -20,0 0,-214z M855,271 l19,-5 55,207 -19,5 -55,-207z M830,285 l17,-10 107,185 -17,10 -107,-185z M810,303 l13,-13 152,151 -14,14 -151,-152z M795,327 l10,-17 185,107 -10,17 -185,-107z M786,354 l5,-19 207,55 -5,19 -207,-55z M785,382 l0,-20 214,0 0,20 -214,0z M791,409 l-5,-19 207,-55 5,19 -207,55z M805,434 l-10,-17 185,-107 10,17 -185,107z M823,455 l-13,-14 151,-151 14,13 -152,152z M847,470 l-17,-10 107,-185 17,10 -107,185z M874,478 l-19,-5 55,-207 19,5 -55,207z " /><circle style="fill:#333;stroke:#4c4c4c;stroke-width:2" cx="892" cy="372" r="102" /><circle style="fill:#4c4c4c" cx="892" cy="372" r="43" /><circle style="fill:#98b27f;stroke:#4c4c4c;stroke-width:2" cx="892" cy="372" r="34" /><path style="fill:#000" d="M897,377 l18,5 -3,5 -5,5 -5,3 -5,-18z" /><path style="fill:#000" d="M887,377 l-4,18 -6,-3 -4,-5 -3,-5 17,-5z" /><path style="fill:#000" d="M887,367 l-17,-4 3,-6 4,-4 6,-3 4,17z" /><path style="fill:#000" d="M897,367 l5,-17 5,3 5,4 3,6 -18,4z" /><path style="fill:#000;fill-rule:evenodd" d="M664,265 l19,0 0,214 -19,0 0,-214z M636,271 l19,-5 55,207 -19,5 -55,-207z M612,285 l17,-10 106,184 -17,10 -106,-184z M591,303 l14,-13 151,151 -14,13 -151,-151z M576,327 l10,-17 185,107 -10,17 -185,-107z M568,354 l5,-19 206,55 -5,19 -206,-55z M567,382 l0,-20 213,0 0,20 -213,0z M573,409 l-5,-19 206,-55 5,19 -206,55z M586,434 l-10,-17 185,-107 10,17 -185,107z M605,454 l-14,-13 151,-151 14,13 -151,151z M629,469 l-17,-10 106,-184 17,10 -106,184z M655,478 l-19,-5 55,-207 19,5 -55,207z " /><circle style="fill:#333;stroke:#4c4c4c;stroke-width:2" cx="673" cy="372" r="101" /><circle style="fill:#4c4c4c" cx="673" cy="372" r="43" /><circle style="fill:#98b27f;stroke:#4c4c4c;stroke-width:2" cx="673" cy="372" r="33" /><path style="fill:#000" d="M678,377 l18,4 -3,6 -5,4 -5,3 -5,-17z" /><path style="fill:#000" d="M668,377 l-4,17 -5,-3 -5,-4 -3,-6 17,-4z" /><path style="fill:#000" d="M668,367 l-17,-5 3,-5 5,-5 5,-3 4,18z" /><path style="fill:#000" d="M678,367 l5,-18 5,3 5,5 3,5 -18,5z" /><path style="fill:#cfc" d="M416,15 l583,0 0,32 -583,0 0,-32z" /><path style="fill:#9c9" d="M416,47 l583,0 0,125 -583,0 0,-125z" /><path style="fill:#9c9;stroke:#4c4c4c;stroke-width:2" d="M483,172 l516,0 0,10 -516,0 0,-10z" /><path style="fill:#9c9" d="M31,177 l218,0 11,21 -235,0 6,-21z" /><path style="fill:#8cbf8c" d="M25,198 l235,0 5,41 -240,0 0,-41z" /><path style="fill:#9c9" d="M270,57 l130,0 0,224 -130,0 0,-224z" /><path style="fill:#030" d="M286,73 l98,0 0,67 -98,0 0,-67z" /><path style="fill:#9c9;stroke:#4c4c4c;stroke-width:2" d="M390,286 l156,0 0,83 -156,0 0,-83z" /><path style="fill:#9c9;stroke:#4c4c4c;stroke-width:2" d="M0,161 l10,0 0,141 -10,0 0,-141z" /><path style="fill:#b2cc99;stroke:#4c4c4c;stroke-width:2" d="M281,364 l0,-46 -79,-79 -114,0 -52,53 -16,0 0,10 21,0 52,-52 104,0 73,73 0,51 120,0 0,-10 -109,0z" /><path style="fill:#4c7f4c" d="M244,135 l21,0 0,42 -21,0 0,-42z" /><path style="fill:none;stroke:#4c4c4c;stroke-width:2" d="M20,297 l5,-99 6,-21 213,0 0,-42 16,0 0,-88 -16,-6 166,0 0,328 -140,0 0,-46 -73,-73 -104,0 -57,47 -16,0" /><path style="fill:#633;stroke:#4c4c4c;stroke-width:2" d="M249,10 l11,-10 10,0 0,10 -5,0 -5,5 0,120 -11,0 0,-125z" /><path style="fill:none;stroke:#b27f7f;stroke-width:2" d="M255,130 l0,-120 5,-5 5,0" /><path style="fill:#9c9;stroke:#4c4c4c;stroke-width:2" d="M489,182 l505,0 0,47 -505,0 0,-47z" /><path style="fill:#7fb27f;stroke:#4c4c4c;stroke-width:2" d="M494,187 l120,0 0,37 -120,0 0,-37z" /><path style="fill:#9c9;stroke:#4c4c4c;stroke-width:2" d="M483,229 l516,0 0,10 -516,0 0,-10z" /><path style="fill:#7fb27f;stroke:#4c4c4c;stroke-width:2" d="M619,187 l119,0 0,37 -119,0 0,-37z" /><path style="fill:#7fb27f;stroke:#4c4c4c;stroke-width:2" d="M744,187 l119,0 0,37 -119,0 0,-37z" /><path style="fill:#7fb27f;stroke:#4c4c4c;stroke-width:2" d="M869,187 l119,0 0,37 -119,0 0,-37z" /><path style="fill:none;stroke:#4c4c4c;stroke-width:2" d="M416,15 l583,0 0,157 -583,0 0,-157" /><path style="fill:none;stroke:#cfc;stroke-width:2" d="M270,281 l0,-224 130,0" /><path style="fill:none;stroke:#cfc;stroke-width:2" d="M390,68 l0,78 -109,0" /><path style="fill:none;stroke:#4c7f4c;stroke-width:2" d="M400,57 l0,224 -130,0" /><path style="fill:none;stroke:#4c7f4c;stroke-width:2" d="M281,146 l0,-78 109,0" /><path style="fill:none;stroke:#4c7f4c;stroke-width:2" d="M374,166 l16,0" /><path style="fill:none;stroke:#4c7f4c;stroke-width:2" d="M437,146 l541,0" /></svg>