<!DOCTYPE svg PUBLIC "-//W3C//DTD SVG 20000303 Stylable//EN" "http://www.w3.org/TR/2000/03/WD-SVG-20000303/DTD/svg-20000303-stylable.dtd"[]><svg xmlns="http://www.w3.org/2000/svg" width="999px" height="387px" viewBox="0 0 999 351"><path style="fill:#000;stroke:#4c4c4c;stroke-width:2" d="M278,249 l677,0 0,62 -159,0 0,-55 -518,0 0,-7z" /><path style="fill:#4c4c4c;stroke:#4c4c4c;stroke-width:2" d="M817,271 l116,0 0,32 -116,0 0,-32z" /><path style="fill:#000" d="M21,260 l47,-4 167,4 58,0 0,-11 141,0 0,11 36,0 0,51 -449,0 0,-51z" /><path style="fill:#4c4c4c;stroke:#4c4c4c;stroke-width:2" d="M86,278 l199,0 0,18 -199,0 0,-18z" /><path style="fill:#7f9966;stroke:#4c4c4c;stroke-width:2" d="M250,238 l718,0 0,11 -718,0 0,-11z" /><path style="fill:#666" d="M202,130 l14,0 0,141 -14,0 0,-141z" /><path style="fill:#4c6633;stroke:#4c4c4c;stroke-width:2" d="M213,256 l275,0 0,11 -275,0 0,-11z" /><path style="fill:#4c4c4c;stroke:#4c4c4c;stroke-width:2" d="M285,271 l185,0 0,32 -185,0 0,-32z" /><path style="fill:#000;fill-rule:evenodd" d="M66,260 l8,0 0,91 -8,0 0,-91z M54,263 l8,-3 23,88 -7,2 -24,-87z M43,268 l8,-4 45,78 -7,5 -46,-79z M35,276 l6,-6 64,64 -6,6 -64,-64z M28,286 l5,-7 78,45 -4,8 -79,-46z M25,298 l2,-8 88,23 -2,8 -88,-23z M25,309 l0,-8 90,0 0,8 -90,0z M27,321 l-2,-8 88,-23 2,8 -88,23z M33,332 l-5,-8 79,-45 4,7 -78,46z M41,340 l-6,-6 64,-64 6,6 -64,64z M51,347 l-8,-5 46,-78 7,4 -45,79z M62,350 l-8,-2 24,-88 7,3 -23,87z " /><circle style="fill:#333;stroke:#4c4c4c;stroke-width:2" cx="70" cy="305" r="43" /><circle style="fill:#4c4c4c" cx="69" cy="305" r="18" /><circle style="fill:#e5e5e5;stroke:#4c4c4c;stroke-width:2" cx="69" cy="305" r="14" /><path style="fill:#000" d="M72,307 l7,2 -1,3 -2,2 -2,1 -2,-8z" /><path style="fill:#000" d="M68,307 l-2,8 -3,-1 -1,-2 -2,-3 8,-2z" /><path style="fill:#000" d="M68,303 l-8,-2 2,-2 1,-2 3,-1 2,7z" /><path style="fill:#000" d="M72,303 l2,-7 2,1 2,2 1,2 -7,2z" /><path style="fill:#000;fill-rule:evenodd" d="M334,260 l8,0 0,91 -8,0 0,-91z M322,263 l8,-3 23,88 -8,2 -23,-87z M311,268 l8,-4 45,78 -7,5 -46,-79z M303,276 l6,-6 64,64 -6,6 -64,-64z M296,286 l5,-7 78,45 -4,8 -79,-46z M293,298 l2,-8 88,23 -3,8 -87,-23z M292,309 l0,-8 91,0 0,8 -91,0z M295,321 l-2,-8 87,-23 3,8 -88,23z M301,332 l-5,-8 79,-45 4,7 -78,46z M309,340 l-6,-6 64,-64 6,6 -64,64z M319,347 l-8,-5 46,-78 7,4 -45,79z M330,350 l-8,-2 23,-88 8,3 -23,87z " /><circle style="fill:#333;stroke:#4c4c4c;stroke-width:2" cx="338" cy="305" r="43" /><circle style="fill:#4c4c4c" cx="337" cy="305" r="18" /><circle style="fill:#e5e5e5;stroke:#4c4c4c;stroke-width:2" cx="337" cy="305" r="14" /><path style="fill:#000" d="M340,307 l7,2 -1,3 -2,2 -2,1 -2,-8z" /><path style="fill:#000" d="M336,307 l-2,8 -3,-1 -2,-2 -1,-3 8,-2z" /><path style="fill:#000" d="M336,303 l-8,-2 1,-2 2,-2 3,-1 2,7z" /><path style="fill:#000" d="M340,303 l2,-7 2,1 2,2 1,2 -7,2z" /><path style="fill:#000;fill-rule:evenodd" d="M431,260 l8,0 0,91 -8,0 0,-91z M420,263 l8,-3 23,88 -8,2 -23,-87z M409,268 l7,-4 46,78 -7,5 -46,-79z M401,276 l5,-6 64,64 -6,6 -63,-64z M394,286 l4,-7 79,45 -4,8 -79,-46z M391,298 l2,-8 87,23 -2,8 -87,-23z M390,309 l0,-8 91,0 0,8 -91,0z M393,321 l-2,-8 87,-23 2,8 -87,23z M398,332 l-4,-8 79,-45 4,7 -79,46z M406,340 l-5,-6 63,-64 6,6 -64,64z M416,347 l-7,-5 46,-78 7,4 -46,79z M428,350 l-8,-2 23,-88 8,3 -23,87z " /><circle style="fill:#333;stroke:#4c4c4c;stroke-width:2" cx="435" cy="305" r="43" /><circle style="fill:#4c4c4c" cx="435" cy="305" r="18" /><circle style="fill:#e5e5e5;stroke:#4c4c4c;stroke-width:2" cx="435" cy="305" r="14" /><path style="fill:#000" d="M437,307 l8,2 -1,3 -2,2 -3,1 -2,-8z" /><path style="fill:#000" d="M433,307 l-2,8 -2,-1 -2,-2 -1,-3 7,-2z" /><path style="fill:#000" d="M433,303 l-7,-2 1,-2 2,-2 2,-1 2,7z" /><path style="fill:#000" d="M437,303 l2,-7 3,1 2,2 1,2 -8,2z" /><path style="fill:#000;fill-rule:evenodd" d="M822,260 l8,0 0,91 -8,0 0,-91z M811,263 l8,-3 23,88 -8,2 -23,-87z M800,268 l7,-4 46,78 -8,5 -45,-79z M791,276 l6,-6 64,64 -6,6 -64,-64z M785,286 l4,-7 79,45 -5,8 -78,-46z M782,298 l2,-8 87,23 -2,8 -87,-23z M781,309 l0,-8 91,0 0,8 -91,0z M784,321 l-2,-8 87,-23 2,8 -87,23z M789,332 l-4,-8 78,-45 5,7 -79,46z M797,340 l-6,-6 64,-64 6,6 -64,64z M807,347 l-7,-5 45,-78 8,4 -46,79z M819,350 l-8,-2 23,-88 8,3 -23,87z " /><circle style="fill:#333;stroke:#4c4c4c;stroke-width:2" cx="826" cy="305" r="43" /><circle style="fill:#4c4c4c" cx="826" cy="305" r="18" /><circle style="fill:#e5e5e5;stroke:#4c4c4c;stroke-width:2" cx="826" cy="305" r="14" /><path style="fill:#000" d="M828,307 l8,2 -1,3 -2,2 -3,1 -2,-8z" /><path style="fill:#000" d="M824,307 l-2,8 -2,-1 -2,-2 -1,-3 7,-2z" /><path style="fill:#000" d="M824,303 l-7,-2 1,-2 2,-2 2,-1 2,7z" /><path style="fill:#000" d="M828,303 l2,-7 3,1 2,2 1,2 -8,2z" /><path style="fill:#000;fill-rule:evenodd" d="M920,260 l8,0 0,91 -8,0 0,-91z M908,263 l8,-3 24,88 -8,2 -24,-87z M898,268 l7,-4 45,78 -7,5 -45,-79z M889,276 l6,-6 64,64 -6,6 -64,-64z M883,286 l4,-7 78,45 -4,8 -78,-46z M879,298 l2,-8 88,23 -2,8 -88,-23z M879,309 l0,-8 90,0 0,8 -90,0z M881,321 l-2,-8 88,-23 2,8 -88,23z M887,332 l-4,-8 78,-45 4,7 -78,46z M895,340 l-6,-6 64,-64 6,6 -64,64z M905,347 l-7,-5 45,-78 7,4 -45,79z M916,350 l-8,-2 24,-88 8,3 -24,87z " /><circle style="fill:#333;stroke:#4c4c4c;stroke-width:2" cx="924" cy="305" r="43" /><circle style="fill:#4c4c4c" cx="924" cy="305" r="18" /><circle style="fill:#e5e5e5;stroke:#4c4c4c;stroke-width:2" cx="924" cy="305" r="14" /><path style="fill:#000" d="M926,307 l8,2 -2,3 -2,2 -2,1 -2,-8z" /><path style="fill:#000" d="M922,307 l-2,8 -2,-1 -2,-2 -2,-3 8,-2z" /><path style="fill:#000" d="M922,303 l-8,-2 2,-2 2,-2 2,-1 2,7z" /><path style="fill:#000" d="M926,303 l2,-7 2,1 2,2 2,2 -8,2z" /><path style="fill:#324c19;stroke:#4c4c4c;stroke-width:2" d="M291,238 l670,0 0,-7 -670,0 0,7z" /><path style="fill:#98b27f;stroke:#4c4c4c;stroke-width:2" d="M14,86 l181,-47 0,243 -11,0 0,7 -54,0 -4,11 58,0 0,7 -65,0 0,-18 -11,-18 -18,-11 -22,-4 -21,4 -15,11 -11,18 0,14 -18,0 -3,-25 14,-4 0,-108 7,-69 -3,0 -4,-11z" /><path style="fill:#000;stroke:#4c4c4c;stroke-width:2" d="M25,104 l65,0 0,55 -69,0 4,-55z" /><path style="fill:none;stroke:#4c4c4c;stroke-width:2" d="M195,86 l-181,0" /><path style="fill:#633;stroke:#4c4c4c;stroke-width:2" d="M206,7 l7,0 0,123 -7,0 0,-123z" /><path style="fill:none;stroke:#b27f7f;stroke-width:2" d="M209,128 l0,-120" /><path style="fill:#ccc" d="M205,130 l8,0 0,141 -8,0 0,-141z" /><path style="fill:none;stroke:#4c4c4c;stroke-width:2" d="M202,130 l14,0 0,141 -14,0 0,-141" /><path style="fill:#657f4c;stroke:#4c4c4c;stroke-width:2" d="M180,274 l80,0 0,44 -80,0 0,-44z" /><path style="fill:#7f9966" d="M184,278 l72,0 0,36 -72,0 0,-36z" /><path style="fill:#657f4c" d="M972,227 l-11,8 -678,0 -11,-8 -9,-16 -9,-22 -6,-26 -2,-30 0,-31 2,-30 6,-27 8,-22 10,-15 11,-8 678,0 11,8 10,15 8,22 5,27 3,30 0,31 -3,30 -5,26 -9,22 -9,16z" /><path style="fill:#6b8552" d="M974,220 l-11,8 -682,0 -10,-8 -9,-14 -8,-21 -6,-25 -2,-29 0,-29 2,-28 6,-25 8,-21 9,-15 10,-7 682,0 11,7 9,15 7,21 6,25 3,28 0,29 -3,29 -6,25 -7,21 -9,14z" /><path style="fill:#728c59" d="M975,214 l-9,7 -687,0 -10,-7 -9,-13 -7,-20 -5,-24 -2,-26 0,-28 2,-26 5,-24 7,-20 9,-13 10,-7 687,0 9,7 9,13 7,20 5,24 3,26 0,28 -3,26 -5,24 -7,20 -9,13z" /><path style="fill:#77915e" d="M977,208 l-9,7 -692,0 -9,-7 -7,-13 -7,-18 -5,-22 -2,-25 0,-26 2,-25 5,-22 6,-18 8,-13 9,-7 692,0 9,7 8,13 7,18 4,22 3,25 0,26 -3,25 -4,22 -7,18 -8,13z" /><path style="fill:#7f9966" d="M979,202 l-9,6 -696,0 -8,-6 -7,-12 -7,-17 -4,-21 -2,-23 0,-24 2,-23 4,-21 6,-17 8,-12 8,-6 696,0 9,6 7,12 6,17 4,21 3,23 0,24 -3,23 -4,21 -6,17 -7,12z" /><path style="fill:#849e6b" d="M980,195 l-7,6 -701,0 -8,-6 -7,-10 -5,-16 -4,-20 -2,-21 0,-22 2,-22 4,-19 5,-16 7,-11 8,-5 701,0 7,5 7,11 5,16 4,19 3,22 0,22 -2,21 -5,20 -5,16 -7,10z" /><path style="fill:#8ca673" d="M982,189 l-7,5 -706,0 -6,-5 -6,-10 -6,-14 -3,-18 -2,-20 0,-20 2,-20 3,-18 5,-14 7,-11 6,-5 706,0 7,5 6,11 5,14 4,18 2,20 0,20 -2,20 -4,18 -5,14 -6,10z" /><path style="fill:#91ab78" d="M984,183 l-7,5 -710,0 -6,-5 -5,-9 -5,-14 -3,-16 -2,-18 0,-19 2,-17 3,-17 4,-13 6,-9 6,-5 710,0 7,5 5,9 5,13 3,17 2,17 0,19 -2,18 -3,16 -5,14 -5,9z" /><path style="fill:#98b27f" d="M985,177 l-5,4 -715,0 -6,-4 -5,-9 -4,-11 -3,-15 -1,-17 0,-17 1,-16 3,-15 4,-12 5,-8 6,-4 715,0 5,4 5,8 4,12 3,15 2,16 0,17 -2,17 -3,15 -4,11 -5,9z" /><path style="fill:#9eb885" d="M987,171 l-5,4 -720,0 -5,-4 -4,-8 -3,-11 -3,-13 -1,-15 0,-15 1,-14 3,-14 3,-10 4,-8 5,-4 720,0 5,4 4,8 4,10 2,14 2,14 0,15 -2,15 -2,13 -4,11 -4,8z" /><path style="fill:#a5bf8c" d="M989,164 l-5,4 -724,0 -4,-4 -4,-6 -3,-10 -2,-11 -1,-13 0,-14 1,-13 2,-11 3,-10 4,-7 4,-3 724,0 5,3 3,7 3,10 2,11 2,13 0,14 -2,13 -2,11 -3,10 -3,6z" /><path style="fill:#aac491" d="M990,158 l-3,3 -729,0 -4,-3 -3,-6 -3,-8 -1,-10 -1,-11 0,-12 1,-11 1,-10 3,-9 3,-6 4,-2 729,0 3,2 3,6 3,9 2,10 1,11 0,12 -1,11 -2,10 -3,8 -3,6z" /><path style="fill:#b2cc99" d="M992,152 l-3,3 -734,0 -3,-3 -2,-5 -2,-7 -1,-9 -1,-9 0,-10 1,-10 1,-8 2,-7 2,-5 3,-3 734,0 3,3 2,5 2,7 2,8 1,10 0,10 -1,9 -2,9 -2,7 -2,5z" /><path style="fill:#b7d19e" d="M993,146 l-1,2 -739,0 -2,-2 -2,-4 -1,-6 -2,-7 0,-8 0,-8 0,-8 2,-7 1,-6 2,-4 2,-2 739,0 1,2 3,4 1,6 1,7 1,8 0,8 -1,8 -1,7 -2,6 -2,4z" /><path style="fill:#bfd9a6" d="M995,140 l-1,1 -743,0 -2,-1 -1,-4 -1,-4 -1,-6 0,-6 0,-6 0,-7 1,-5 1,-5 1,-3 2,-2 743,0 1,2 2,3 0,5 1,5 1,7 0,6 -1,6 -1,6 -1,4 -1,4z" /><path style="fill:#c4deab" d="M997,133 l-1,2 -748,0 0,-2 -1,-2 -1,-3 0,-4 0,-5 0,-4 0,-5 0,-4 1,-3 1,-3 0,-1 748,0 1,1 1,3 0,3 0,4 1,5 0,4 -1,5 0,4 0,3 -1,2z" /><path style="fill:#cbe5b2" d="M998,128 l0,0 -752,0 0,0 0,-2 0,-2 0,-3 0,-2 0,-3 0,-3 0,-3 0,-2 0,-1 0,-1 752,0 0,1 1,1 -1,2 0,3 0,3 0,3 0,2 0,3 0,2 0,2z" /><path style="fill:none;stroke:#4c4c4c;stroke-width:2" d="M972,227 l-11,8 -678,0 -11,-8 -10,-16 -8,-22 -6,-26 -2,-30 0,-31 2,-30 6,-27 8,-22 10,-15 11,-8 678,0 11,8 10,15 8,22 5,27 3,30 0,31 -3,30 -5,26 -9,22 -9,16" /><path style="fill:#000" d="M607,264 l4,0 0,-8 10,0 0,8 193,0 0,14 -207,0 0,-14z" /></svg>