<!DOCTYPE svg PUBLIC "-//W3C//DTD SVG 20000303 Stylable//EN" "http://www.w3.org/TR/2000/03/WD-SVG-20000303/DTD/svg-20000303-stylable.dtd"[]><svg xmlns="http://www.w3.org/2000/svg" width="999px" height="297px" viewBox="0 0 999 255"><path style="fill:#7f7f7f;stroke:#4c4c4c;stroke-width:2" d="M494,176 l57,0 0,16 -57,0 0,-16z" /><path style="fill:#7f7f7f;stroke:#4c4c4c;stroke-width:2" d="M556,145 l52,0 0,26 -52,0 0,-26z" /><path style="fill:none;stroke:#4c4c4c;stroke-width:2" d="M504,46 l-26,0" /><path style="fill:#7f7f7f;stroke:#4c4c4c;stroke-width:2" d="M10,197 l0,-26 2,0 0,13 3,0 0,13 -5,0z" /><path style="fill:#b2b2b2;stroke:#4c4c4c;stroke-width:2" d="M171,213 l0,-26 21,0 0,15 -10,11 -11,0z" /><path style="fill:#b2b2b2;stroke:#4c4c4c;stroke-width:2" d="M145,192 l26,0 0,5 -26,0 0,-5z" /><path style="fill:#b2b2b2;stroke:#4c4c4c;stroke-width:2" d="M234,192 l10,0 0,21 -10,0 0,-21z" /><path style="fill:#ccc;stroke:#4c4c4c;stroke-width:2" d="M229,197 l20,0 0,5 -20,0 0,-5z" /><path style="fill:#b2b2b2;stroke:#4c4c4c;stroke-width:2" d="M353,182 l141,0 0,5 57,0 0,-16 78,0 0,-15 26,0 0,5 6,0 0,10 -6,0 0,42 -302,0 0,-31z" /><path style="fill:#999;stroke:#4c4c4c;stroke-width:2" d="M353,166 l99,0 0,16 -99,0 0,-16z" /><path style="fill:none;stroke:#4c4c4c;stroke-width:2" d="M598,130 l0,-37" /><path style="fill:#999;stroke:#4c4c4c;stroke-width:2" d="M655,202 l130,0 0,11 -130,0 0,-11z" /><path style="fill:none;stroke:#4c4c4c;stroke-width:2" d="M655,197 l130,0" /><path style="fill:#b2b2b2;stroke:#4c4c4c;stroke-width:2" d="M915,239 l0,-26 -20,0 0,15 10,11 10,0z" /><path style="fill:#b2b2b2;stroke:#4c4c4c;stroke-width:2" d="M941,218 l-26,0 0,5 26,0 0,-5z" /><path style="fill:#b2b2b2;stroke:#4c4c4c;stroke-width:2" d="M853,192 l-10,0 0,21 10,0 0,-21z" /><path style="fill:#ccc;stroke:#4c4c4c;stroke-width:2" d="M858,197 l-20,0 0,5 20,0 0,-5z" /><path style="fill:#999;stroke:#4c4c4c;stroke-width:2" d="M785,218 l99,0 0,11 -99,0 0,-11z" /><path style="fill:#e5e5e5;stroke:#4c4c4c;stroke-width:2" d="M57,255 l-57,-58 176,5 11,11 104,0 0,-37 62,6 21,0 0,15 -21,0 0,16 489,0 11,15 130,0 -5,27 -921,0z" /><path style="fill:#b2b2b2;stroke:#4c4c4c;stroke-width:2" d="M957,208 l-4,0 0,21 4,0 0,-21z" /><path style="fill:#ccc;stroke:#4c4c4c;stroke-width:2" d="M962,213 l-15,0 0,5 15,0 0,-5z" /><path style="fill:#b2b2b2;stroke:#4c4c4c;stroke-width:2" d="M973,207 l-5,0 0,21 5,0 0,-21z" /><path style="fill:#ccc;stroke:#4c4c4c;stroke-width:2" d="M978,212 l-16,0 0,6 16,0 0,-6z" /><path style="fill:none;stroke:#4c4c4c;stroke-width:2" d="M426,145 l73,-83" /><path style="fill:none;stroke:#4c4c4c;stroke-width:2" d="M426,140 l68,-77" /><path style="fill:#ccc;stroke:#4c4c4c;stroke-width:2" d="M291,176 l0,-10 5,-10 11,-6 46,0 0,32 -62,-6z" /><path style="fill:none;stroke:#4c4c4c;stroke-width:2" d="M374,166 l-21,-14" /><path style="fill:none;stroke:#4c4c4c;stroke-width:2" d="M353,166 l21,-14" /><path style="fill:none;stroke:#4c4c4c;stroke-width:2" d="M353,152 l21,0 0,14 -21,0 0,-14" /><path style="fill:none;stroke:#4c4c4c;stroke-width:2" d="M374,152 l-21,-14" /><path style="fill:none;stroke:#4c4c4c;stroke-width:2" d="M353,152 l21,-14" /><path style="fill:none;stroke:#4c4c4c;stroke-width:2" d="M353,138 l21,0 0,14 -21,0 0,-14" /><path style="fill:none;stroke:#4c4c4c;stroke-width:2" d="M374,137 l-21,-14" /><path style="fill:none;stroke:#4c4c4c;stroke-width:2" d="M353,137 l21,-14" /><path style="fill:none;stroke:#4c4c4c;stroke-width:2" d="M353,123 l21,0 0,14 -21,0 0,-14" /><path style="fill:none;stroke:#4c4c4c;stroke-width:2" d="M374,123 l-21,-14" /><path style="fill:none;stroke:#4c4c4c;stroke-width:2" d="M353,123 l21,-14" /><path style="fill:none;stroke:#4c4c4c;stroke-width:2" d="M353,109 l21,0 0,14 -21,0 0,-14" /><path style="fill:none;stroke:#4c4c4c;stroke-width:2" d="M494,89 l26,0 0,22 -26,0 0,-22" /><path style="fill:none;stroke:#4c4c4c;stroke-width:2" d="M494,111 l26,-22" /><path style="fill:none;stroke:#4c4c4c;stroke-width:2" d="M520,111 l-26,-22" /><path style="fill:none;stroke:#4c4c4c;stroke-width:2" d="M494,111 l26,0 0,22 -26,0 0,-22" /><path style="fill:none;stroke:#4c4c4c;stroke-width:2" d="M494,133 l26,-22" /><path style="fill:none;stroke:#4c4c4c;stroke-width:2" d="M520,133 l-26,-22" /><path style="fill:none;stroke:#4c4c4c;stroke-width:2" d="M494,67 l26,0 0,22 -26,0 0,-22" /><path style="fill:none;stroke:#4c4c4c;stroke-width:2" d="M494,89 l26,-22" /><path style="fill:none;stroke:#4c4c4c;stroke-width:2" d="M520,89 l-26,-22" /><path style="fill:none;stroke:#4c4c4c;stroke-width:2" d="M494,133 l26,0 0,21 -26,0 0,-21" /><path style="fill:none;stroke:#4c4c4c;stroke-width:2" d="M494,154 l26,-21" /><path style="fill:none;stroke:#4c4c4c;stroke-width:2" d="M520,154 l-26,-21" /><path style="fill:none;stroke:#4c4c4c;stroke-width:2" d="M494,155 l26,0 0,21 -26,0 0,-21" /><path style="fill:none;stroke:#4c4c4c;stroke-width:2" d="M494,176 l26,-21" /><path style="fill:none;stroke:#4c4c4c;stroke-width:2" d="M520,176 l-26,-21" /><path style="fill:none;stroke:#4c4c4c;stroke-width:2" d="M374,98 l-10,-10" /><circle style="fill:none;stroke:#4c4c4c;stroke-width:2" cx="322" cy="166" r="10" /><path style="fill:#e5e5e5;stroke:#4c4c4c;stroke-width:2" d="M593,124 l5,0 0,6 -5,0 0,-6z" /><path style="fill:#e5e5e5;stroke:#4c4c4c;stroke-width:2" d="M493,62 l6,0 0,-26 -6,0 0,26z" /><path style="fill:#e5e5e5;stroke:#4c4c4c;stroke-width:2" d="M473,67 l47,0 0,-5 -47,0 0,5z" /><path style="fill:#e5e5e5;stroke:#4c4c4c;stroke-width:2" d="M520,103 l42,0 0,-5 -42,0 0,5z" /><path style="fill:#e5e5e5;stroke:#4c4c4c;stroke-width:2" d="M572,130 l41,0 0,21 -41,0 0,-21z" /><path style="fill:#e5e5e5;stroke:#4c4c4c;stroke-width:2" d="M567,150 l52,0 0,21 -52,0 0,-21z" /><path style="fill:#e5e5e5;stroke:#4c4c4c;stroke-width:2" d="M452,150 l42,0 0,32 -42,0 0,-32z" /><path style="fill:#e5e5e5;stroke:#4c4c4c;stroke-width:2" d="M384,140 l47,0 0,26 -47,0 0,-26z" /><path style="fill:#e5e5e5;stroke:#4c4c4c;stroke-width:2" d="M390,140 l36,0 0,-26 -36,0 0,26z" /><path style="fill:#e5e5e5;stroke:#4c4c4c;stroke-width:2" d="M358,88 l26,0 0,-5 -26,0 0,5z" /><path style="fill:#e5e5e5;stroke:#4c4c4c;stroke-width:2" d="M374,166 l5,0 0,-78 -5,0 0,78z" /><path style="fill:#e5e5e5;stroke:#4c4c4c;stroke-width:2" d="M343,109 l31,0 0,-5 -31,0 0,5z" /><path style="fill:#e5e5e5;stroke:#4c4c4c;stroke-width:2" d="M338,130 l10,0 0,-16 -10,0 0,16z" /><path style="fill:#e5e5e5;stroke:#4c4c4c;stroke-width:2" d="M312,150 l41,0 0,-20 -41,0 0,20z" /><path style="fill:none;stroke:#4c4c4c;stroke-width:2" d="M213,200 l16,0" /><path style="fill:none;stroke:#4c4c4c;stroke-width:2" d="M983,197 l0,31 16,-20" /><path style="fill:none;stroke:#4c4c4c;stroke-width:2" d="M884,213 l-42,0" /><path style="fill:none;stroke:#4c4c4c;stroke-width:2" d="M874,200 l-16,0" /><path style="fill:none;stroke:#4c4c4c;stroke-width:2" d="M650,156 l0,-21" /><path style="fill:none;stroke:#4c4c4c;stroke-width:2" d="M598,124 l0,-31" /><path style="fill:none;stroke:#4c4c4c;stroke-width:2" d="M546,103 l-26,47" /><path style="fill:none;stroke:#4c4c4c;stroke-width:2" d="M499,36 l0,-36" /><path style="fill:none;stroke:#4c4c4c;stroke-width:2" d="M410,114 l0,-37" /><path style="fill:none;stroke:#4c4c4c;stroke-width:2" d="M395,114 l0,-37" /><path style="fill:none;stroke:#4c4c4c;stroke-width:2" d="M374,83 l0,-11" /><path style="fill:none;stroke:#4c4c4c;stroke-width:2" d="M312,130 l-26,-32" /><path style="fill:none;stroke:#4c4c4c;stroke-width:2" d="M291,208 l-109,0" /><path style="fill:none;stroke:#4c4c4c;stroke-width:2" d="M629,166 l-10,0" /><path style="fill:none;stroke:#4c4c4c;stroke-width:2" d="M551,182 l-57,0" /><path style="fill:none;stroke:#4c4c4c;stroke-width:2" d="M353,161 l99,0" /><path style="fill:none;stroke:#4c4c4c;stroke-width:2" d="M494,176 l-141,0" /></svg>