<!DOCTYPE svg PUBLIC "-//W3C//DTD SVG 20000303 Stylable//EN" "http://www.w3.org/TR/2000/03/WD-SVG-20000303/DTD/svg-20000303-stylable.dtd"[]><svg xmlns="http://www.w3.org/2000/svg" width="999px" height="243px" viewBox="0 0 999 197"><path style="fill:#666" d="M400,77 l412,0 0,11 -412,0 0,-11z" /><path style="fill:#f7f7f7" d="M973,197 l26,-83 -31,0 0,-47 -26,0 0,-16 -26,0 0,21 -11,0 -10,-47 -21,0 0,21 -42,0 0,-11 -20,0 0,53 -521,0 0,-16 104,0 0,-16 -104,0 0,-15 -167,0 0,47 -124,-6 15,37 0,21 -15,31 0,16 4,10 969,0z" /><path style="fill:#666" d="M291,72 l99,0 0,16 -99,0 0,-16z" /><path style="fill:#b2b2b2" d="M124,93 l83,0 0,15 -83,0 0,-15z" /><path style="fill:#bababa" d="M133,92 l74,0 0,16 -74,0 0,-16z" /><path style="fill:#bfbfbf" d="M141,92 l65,0 0,16 -65,0 0,-16z" /><path style="fill:#c7c7c7" d="M149,92 l56,0 0,16 -56,0 0,-16z" /><path style="fill:#cfcfcf" d="M158,92 l46,0 0,16 -46,0 0,-16z" /><path style="fill:#d4d4d4" d="M166,92 l36,0 0,16 -36,0 0,-16z" /><path style="fill:#dbdbdb" d="M174,92 l27,0 0,16 -27,0 0,-16z" /><path style="fill:#e3e3e3" d="M183,92 l17,0 0,16 -17,0 0,-16z" /><path style="fill:#ebebeb" d="M191,92 l8,0 0,16 -8,0 0,-16z" /><ellipse style="fill:#f0f0f0" cx="199" cy="100" rx="1" ry="8" /><path style="fill:#f7f7f7" d="M207,93 l-10,0 0,15 10,0 0,-15z" /><path style="fill:none;stroke:#b2b2b2;stroke-width:2" d="M832,46 l0,68 136,0" /><path style="fill:#f0f0f0" d="M749,197 l125,-57 123,-20 -24,77 -224,0z" /><path style="fill:#e8e8e8" d="M754,197 l130,-52 112,-23 -23,75 -219,0z" /><path style="fill:#e0e0e0" d="M765,197 l130,-47 100,-25 -22,72 -208,0z" /><path style="fill:#d9d9d9" d="M775,197 l135,-42 84,-26 -21,68 -198,0z" /><path style="fill:#d1d1d1" d="M780,197 l141,-37 72,-28 -20,65 -193,0z" /><path style="fill:#966" d="M973,197 l9,-26 -982,0 0,16 4,10 969,0z" /><path style="fill:#666" d="M134,46 l11,0 0,10 -11,0 0,-10z" /><path style="fill:#666" d="M155,46 l11,0 0,10 -11,0 0,-10z" /><path style="fill:#f0f0f0" d="M0,171 l15,-31 0,-21 -6,-21 -9,-16 124,6 0,5 10,15 -134,63z" /><path style="fill:#e8e8e8" d="M0,171 l15,-31 0,-21 -6,-21 -9,-16 124,6 0,5 0,10 -124,68z" /><path style="fill:#e0e0e0" d="M15,140 l0,-21 -6,-21 -9,-16 124,6 -5,5 -52,26 -52,21z" /><path style="fill:#d9d9d9" d="M15,129 l0,-10 -6,-21 -9,-16 124,6 -10,5 -52,15 -47,21z" /><path style="fill:#d1d1d1" d="M15,119 l-6,-21 -9,-16 124,6 -36,5 -26,5 -47,21z" /><path style="fill:none;stroke:#4c4c4c;stroke-width:2" d="M973,197 l26,-83 -31,0 0,-47 -26,0 0,-16 -26,0 0,21 -11,0 -10,-47 -21,0 0,21 -42,0 0,-11 -20,0 0,53 -521,0 0,-16 104,0 0,-16 -104,0 0,-15 -167,0 0,47 -124,-6 15,37 0,21 -15,31 0,16 4,10 969,0" /><path style="fill:#ccc" d="M520,67 l193,0 0,21 -193,0 0,-21z" /><path style="fill:#ccc" d="M405,67 l99,0 0,21 -99,0 0,-21z" /><path style="fill:#b2b2b2" d="M702,72 l99,0 0,16 -99,0 0,-16z" /><path style="fill:#fff;stroke:#4c4c4c;stroke-width:2" d="M166,0 l5,0 0,41 -5,0 0,-41z" /><path style="fill:#fff;stroke:#4c4c4c;stroke-width:2" d="M233,20 l6,0 0,21 -6,0 0,-21z" /><path style="fill:#666" d="M843,56 l5,0 0,6 -5,0 0,-6z" /><path style="fill:#666" d="M853,56 l6,0 0,6 -6,0 0,-6z" /><path style="fill:#666" d="M843,72 l5,0 0,5 -5,0 0,-5z" /><path style="fill:#666" d="M853,72 l6,0 0,5 -6,0 0,-5z" /><path style="fill:#666" d="M843,87 l5,0 0,6 -5,0 0,-6z" /><path style="fill:#666" d="M853,87 l6,0 0,6 -6,0 0,-6z" /><path style="fill:#666" d="M864,56 l5,0 0,6 -5,0 0,-6z" /><path style="fill:#666" d="M874,56 l6,0 0,6 -6,0 0,-6z" /><path style="fill:#666" d="M864,72 l5,0 0,5 -5,0 0,-5z" /><path style="fill:#666" d="M874,72 l6,0 0,5 -6,0 0,-5z" /><path style="fill:#666" d="M864,87 l5,0 0,6 -5,0 0,-6z" /><path style="fill:#666" d="M874,87 l6,0 0,6 -6,0 0,-6z" /><path style="fill:#f2f2f2" d="M34,93 l-8,15 15,9 8,-15 -14,7 -1,-16z" /><path style="fill:none;stroke:#4c4c4c;stroke-width:2" d="M124,88 l0,5 83,0" /><path style="fill:none;stroke:#4c4c4c;stroke-width:2" d="M187,41 l0,-26" /><path style="fill:none;stroke:#4c4c4c;stroke-width:2" d="M218,41 l0,-21" /><path style="fill:none;stroke:#4c4c4c;stroke-width:2" d="M629,88 l0,-26 78,0 0,26" /><path style="fill:none;stroke:#4c4c4c;stroke-width:2" d="M655,88 l0,-26 26,0 0,26" /><path style="fill:none;stroke:#4c4c4c;stroke-width:2" d="M416,88 l0,-26 78,0 0,26" /><path style="fill:none;stroke:#4c4c4c;stroke-width:2" d="M442,88 l0,-26 26,0 0,26" /><path style="fill:none;stroke:#4c4c4c;stroke-width:2" d="M525,88 l0,-26 78,0 0,26" /><path style="fill:none;stroke:#4c4c4c;stroke-width:2" d="M551,88 l0,-26 26,0 0,26" /><path style="fill:#966" d="M885,36 l0,-6 5,0 0,6 5,0 0,5 -5,0 0,5 -5,0 0,-5 -6,0 0,-5 6,0z" /><path style="fill:#966" d="M766,126 l0,-18 18,0 0,18 17,0 0,17 -17,0 0,17 -18,0 0,-17 -17,0 0,-17 17,0z" /><path style="fill:#966" d="M428,125 l0,-17 17,0 0,17 18,0 0,18 -18,0 0,17 -17,0 0,-17 -17,0 0,-18 17,0z" /><path style="fill:#966" d="M89,126 l0,-18 18,0 0,18 17,0 0,17 -17,0 0,17 -18,0 0,-17 -17,0 0,-17 17,0z" /></svg>