<!DOCTYPE svg PUBLIC "-//W3C//DTD SVG 20000303 Stylable//EN" "http://www.w3.org/TR/2000/03/WD-SVG-20000303/DTD/svg-20000303-stylable.dtd"[]><svg xmlns="http://www.w3.org/2000/svg" width="999px" height="414px" viewBox="0 0 999 379"><path style="fill:#d9ccb3;stroke:#4c4c4c;stroke-width:2" d="M10,135 l21,0 0,41 -21,0 0,-41z" /><path style="fill:#e5d8bf;stroke:#4c4c4c;stroke-width:2" d="M301,83 l11,0 0,36 -11,0 0,-36z" /><path style="fill:#665940" d="M25,161 l474,-57 474,57 26,41 -84,99 -832,0 -68,-109 10,-31z" /><path style="fill:#f2e5cc" d="M25,124 l18,-1 3,-9 245,-16 7,7 9,-2 15,-103 375,0 265,0 16,88 0,31 21,83 -32,0 -16,-10 -20,-21 -78,-15 -78,15 -32,21 -10,57 -16,42 -437,0 -15,-42 -11,-57 -31,-20 -78,-16 -78,15 -26,21 -26,0 10,-68z" /><path style="fill:#000;fill-rule:evenodd" d="M133,166 l19,0 0,213 -19,0 0,-213z M105,172 l19,-5 56,206 -19,5 -56,-206z M81,185 l17,-10 106,185 -17,10 -106,-185z M60,204 l14,-14 151,151 -14,14 -151,-151z M45,228 l10,-17 185,107 -10,16 -185,-106z M37,255 l5,-19 206,55 -5,19 -206,-55z M36,283 l0,-20 213,0 0,20 -213,0z M42,310 l-5,-19 206,-55 5,19 -206,55z M55,334 l-10,-16 185,-107 10,17 -185,106z M74,355 l-14,-14 151,-151 14,14 -151,151z M98,370 l-17,-10 106,-185 17,10 -106,185z M124,378 l-19,-5 56,-206 19,5 -56,206z " /><circle style="fill:#333;stroke:#4c4c4c;stroke-width:2" cx="142" cy="272" r="101" /><circle style="fill:#4c4c4c" cx="142" cy="272" r="43" /><circle style="fill:#b2a58c;stroke:#4c4c4c;stroke-width:2" cx="142" cy="273" r="33" /><path style="fill:#000" d="M147,278 l18,4 -3,6 -5,4 -5,3 -5,-17z" /><path style="fill:#000" d="M138,278 l-5,17 -5,-3 -5,-4 -3,-6 18,-4z" /><path style="fill:#000" d="M138,268 l-18,-5 3,-5 5,-5 5,-3 5,18z" /><path style="fill:#000" d="M147,268 l5,-18 5,3 5,5 3,5 -18,5z" /><path style="fill:#000;fill-rule:evenodd" d="M840,166 l20,0 0,213 -20,0 0,-213z M813,172 l19,-5 55,206 -19,5 -55,-206z M788,185 l17,-10 107,185 -17,10 -107,-185z M768,204 l13,-14 152,151 -14,14 -151,-151z M753,228 l10,-17 185,107 -10,16 -185,-106z M744,255 l5,-19 207,55 -5,19 -207,-55z M743,283 l0,-20 214,0 0,20 -214,0z M749,310 l-5,-19 207,-55 5,19 -207,55z M763,334 l-10,-16 185,-107 10,17 -185,106z M781,355 l-13,-14 151,-151 14,14 -152,151z M805,370 l-17,-10 107,-185 17,10 -107,185z M832,378 l-19,-5 55,-206 19,5 -55,206z " /><circle style="fill:#333;stroke:#4c4c4c;stroke-width:2" cx="850" cy="272" r="102" /><circle style="fill:#4c4c4c" cx="850" cy="272" r="43" /><circle style="fill:#b2a58c;stroke:#4c4c4c;stroke-width:2" cx="850" cy="273" r="34" /><path style="fill:#000" d="M855,278 l18,4 -3,6 -5,4 -5,3 -5,-17z" /><path style="fill:#000" d="M845,278 l-4,17 -6,-3 -4,-4 -3,-6 17,-4z" /><path style="fill:#000" d="M845,268 l-17,-5 3,-5 4,-5 6,-3 4,18z" /><path style="fill:#000" d="M855,268 l5,-18 5,3 5,5 3,5 -18,5z" /><path style="fill:#ebdec5" d="M822,0 l140,0 16,88 0,31 21,83 -32,0 -16,-10 -20,-21 -78,-15 -78,15 -32,21 -10,57 -16,42 -437,0 -15,-42 -11,-57 -31,-20 599,-172z" /><path style="fill:#e3d6bd" d="M962,0 l16,88 0,31 21,83 -32,0 -16,-10 -20,-21 -78,-15 -78,15 -32,21 -10,57 -16,42 -437,0 -15,-42 -5,-28 702,-221z" /><path style="fill:#dbceb5" d="M966,21 l12,67 0,31 21,83 -32,0 -16,-10 -20,-21 -78,-15 -78,15 -32,21 -10,57 -16,42 -437,0 -15,-42 701,-228z" /><path style="fill:#f2e5cc" d="M723,28 l239,-3 16,94 -240,-10 -15,-81z" /><path style="fill:none;stroke:#4c4c4c;stroke-width:2" d="M25,124 l18,-1 3,-9 245,-16 7,7 8,-2 16,-103 640,0 16,88 0,31 21,83 -32,0 -16,-10 -20,-21 -78,-15 -78,15 -32,21 -10,57 -16,42 -437,0 -15,-42 -11,-57 -31,-20 -78,-16 -78,15 -26,21 -26,0 10,-68" /><path style="fill:#f7ead1" d="M338,31 l10,10 0,187 -10,11 0,-208z" /><path style="fill:#f7ead1" d="M515,31 l10,10 0,187 -10,11 0,-208z" /><path style="fill:none;stroke:#b2a58c;stroke-width:2" d="M489,51 l-125,0 0,73" /><path style="fill:none;stroke:#b2a58c;stroke-width:2" d="M666,51 l-125,0 0,73" /><path style="fill:#b2a58c" d="M515,239 l10,-10 156,0 10,10 -176,0z" /><path style="fill:#b2a58c" d="M338,239 l10,-10 156,0 11,10 -177,0z" /><path style="fill:#ccbfa6" d="M691,239 l-10,-11 0,-187 10,-11 0,209z" /><path style="fill:#ccbfa6" d="M515,239 l-11,-11 0,-187 11,-10 0,208z" /><path style="fill:#fff2d9" d="M691,31 l-10,10 -156,0 -10,-10 176,0z" /><path style="fill:#fff2d9" d="M515,31 l-11,10 -156,0 -10,-10 177,0z" /><path style="fill:none;stroke:#fff;stroke-width:2" d="M525,228 l0,-187 156,0" /><path style="fill:none;stroke:#fff;stroke-width:2" d="M666,51 l0,73 -125,0" /><path style="fill:none;stroke:#fff;stroke-width:2" d="M489,51 l0,73 -125,0" /><path style="fill:none;stroke:#fff;stroke-width:2" d="M348,228 l0,-187 156,0" /><path style="fill:none;stroke:#998c73;stroke-width:2" d="M525,228 l156,0 0,-187" /><path style="fill:none;stroke:#998c73;stroke-width:2" d="M348,228 l156,0 0,-187" /><path style="fill:#ccbfa6" d="M322,20 l640,0 0,5 -640,0 0,-5z" /><path style="fill:none;stroke:#7f7259;stroke-width:2" d="M322,5 l0,15 640,0 0,-15" /><path style="fill:#ccbfa6" d="M291,275 l416,0 0,6 -416,0 0,-6z" /><path style="fill:none;stroke:#7f7259;stroke-width:2" d="M707,291 l0,-15 -416,0 0,15" /><path style="fill:#f2e5cc;stroke:#4c4c4c;stroke-width:2" d="M10,115 l11,1 -11,83 -10,-2 10,-82z" /><path style="fill:#d9ccb3;stroke:#4c4c4c;stroke-width:2" d="M312,94 l15,-15 14,15 -14,15 -15,-15z" /><path style="fill:#faedd4;stroke:#4c4c4c;stroke-width:2" d="M310,49 l10,-2 18,70 -9,3 -19,-71z" /><path style="fill:#bfb299" d="M702,202 l5,0 0,6 -5,0 0,-6z" /><path style="fill:#bfb299" d="M702,218 l5,0 0,5 -5,0 0,-5z" /><path style="fill:#bfb299" d="M702,234 l5,0 0,5 -5,0 0,-5z" /><path style="fill:#bfb299" d="M702,249 l5,0 0,6 -5,0 0,-6z" /><path style="fill:#bfb299" d="M718,249 l5,0 0,6 -5,0 0,-6z" /><path style="fill:#bfb299" d="M718,234 l5,0 0,5 -5,0 0,-5z" /><path style="fill:#bfb299" d="M718,218 l5,0 0,5 -5,0 0,-5z" /><path style="fill:#bfb299" d="M718,202 l5,0 0,6 -5,0 0,-6z" /><path style="fill:#bfb299" d="M281,202 l5,0 0,6 -5,0 0,-6z" /><path style="fill:#bfb299" d="M281,218 l5,0 0,5 -5,0 0,-5z" /><path style="fill:#bfb299" d="M281,234 l5,0 0,5 -5,0 0,-5z" /><path style="fill:#bfb299" d="M281,249 l5,0 0,6 -5,0 0,-6z" /><path style="fill:#bfb299" d="M296,249 l5,0 0,6 -5,0 0,-6z" /><path style="fill:#bfb299" d="M296,234 l5,0 0,5 -5,0 0,-5z" /><path style="fill:#bfb299" d="M296,218 l5,0 0,5 -5,0 0,-5z" /><path style="fill:#bfb299" d="M296,202 l5,0 0,6 -5,0 0,-6z" /><path style="fill:none;stroke:#b2a58c;stroke-width:2" d="M973,119 l-235,-10 -15,-78" /><path style="fill:#7f7259" d="M546,57 l114,0 0,62 -114,0 0,-62z" /><path style="fill:#7f7259" d="M369,57 l114,0 0,62 -114,0 0,-62z" /><path style="fill:#fc0" d="M25,176 l11,0 0,11 -11,0 0,-11z" /><path style="fill:#fc0" d="M973,176 l10,0 0,11 -10,0 0,-11z" /><path style="fill:none;stroke:#b2a58c;stroke-width:2" d="M46,124 l250,-15" /><path style="fill:none;stroke:#fffaf0;stroke-width:2" d="M41,187 l26,-21 78,-16 78,16 32,21 83,-42" /><path style="fill:none;stroke:#fff2d9;stroke-width:2" d="M743,187 l32,-21 78,-16 78,16 21,21 15,10 26,0" /></svg>