<!DOCTYPE svg PUBLIC "-//W3C//DTD SVG 20000303 Stylable//EN" "http://www.w3.org/TR/2000/03/WD-SVG-20000303/DTD/svg-20000303-stylable.dtd"[]><svg xmlns="http://www.w3.org/2000/svg" width="999px" height="532px" viewBox="0 0 999 504"><path style="fill:#7f9966;stroke:#4c4c4c;stroke-width:2" d="M10,260 l21,0 0,41 -21,0 0,-41z" /><path style="fill:#7f9966;stroke:#4c4c4c;stroke-width:2" d="M275,166 l11,0 0,36 -11,0 0,-36z" /><path style="fill:#193300" d="M25,286 l474,-21 500,26 0,42 -99,20 -45,0 -49,73 -723,0 -68,-109 10,-31z" /><path style="fill:#98b27f" d="M25,249 l18,-1 19,-25 218,-31 11,-131 10,-31 21,-30 666,0 0,291 11,0 0,36 -32,0 -140,-10 -21,-21 -36,-10 -41,-5 -38,5 -41,10 -31,21 -10,57 -16,42 -313,0 -15,-42 -11,-57 -31,-20 -78,-16 -78,15 -26,21 -26,0 10,-68z" /><path style="fill:#000;fill-rule:evenodd" d="M133,291 l19,0 0,213 -19,0 0,-213z M105,297 l19,-5 56,206 -19,5 -56,-206z M81,310 l17,-10 106,185 -17,10 -106,-185z M60,329 l14,-14 151,151 -14,14 -151,-151z M45,353 l10,-17 185,106 -10,17 -185,-106z M37,379 l5,-19 206,56 -5,19 -206,-56z M36,407 l0,-19 213,0 0,19 -213,0z M42,435 l-5,-19 206,-56 5,19 -206,56z M55,459 l-10,-17 185,-106 10,17 -185,106z M74,480 l-14,-14 151,-151 14,14 -151,151z M98,495 l-17,-10 106,-185 17,10 -106,185z M124,503 l-19,-5 56,-206 19,5 -56,206z " /><circle style="fill:#333;stroke:#4c4c4c;stroke-width:2" cx="142" cy="397" r="101" /><circle style="fill:#4c4c4c" cx="142" cy="397" r="43" /><circle style="fill:#98b27f;stroke:#4c4c4c;stroke-width:2" cx="142" cy="397" r="33" /><path style="fill:#000" d="M147,402 l18,5 -3,5 -5,5 -5,3 -5,-18z" /><path style="fill:#000" d="M138,402 l-5,18 -5,-3 -5,-5 -3,-5 18,-5z" /><path style="fill:#000" d="M138,393 l-18,-5 3,-5 5,-5 5,-3 5,18z" /><path style="fill:#000" d="M147,393 l5,-18 5,3 5,5 3,5 -18,5z" /><path style="fill:#93ad7a" d="M988,77 l0,214 11,0 0,36 -32,0 -140,-10 -21,-21 -36,-11 -41,-4 -38,5 -41,10 -31,21 -10,57 -16,42 -313,0 -15,-42 -11,-57 -31,-20 765,-220z" /><path style="fill:#8ea875" d="M988,114 l0,177 11,0 0,36 -32,0 -140,-10 -21,-21 -36,-10 -41,-5 -38,5 -46,15 -26,32 -10,41 -16,42 -313,0 -15,-42 -5,-29 728,-231z" /><path style="fill:#89a370" d="M988,140 l0,151 11,0 0,36 -165,0 -23,-25 -41,-16 -41,-5 -38,5 -46,16 -26,31 -10,41 -16,42 -313,0 -15,-42 723,-234z" /><path style="fill:none;stroke:#4c4c4c;stroke-width:2" d="M25,249 l18,-1 19,-24 218,-32 11,-131 10,-30 21,-31 666,0 0,291 11,0 0,36 -162,6 -26,-31 -41,-16 -42,-5 -37,5 -46,16 -26,31 -10,41 -16,42 -313,0 -15,-42 -11,-57 -31,-20 -78,-16 -78,15 -26,21 -26,0 10,-68" /><path style="fill:none;stroke:#e5ffcc;stroke-width:2" d="M452,67 l0,135 -125,0" /><path style="fill:none;stroke:#e5ffcc;stroke-width:2" d="M317,390 l0,-333 146,0" /><path style="fill:none;stroke:#e5ffcc;stroke-width:2" d="M41,312 l26,-21 78,-16 78,16 32,21" /><path style="fill:none;stroke:#e5ffcc;stroke-width:2" d="M619,322 l26,-26 46,-15 42,-6 37,6 41,15 31,31" /><path style="fill:#7f9966" d="M478,15 l505,0 0,5 -505,0 0,-5z" /><path style="fill:none;stroke:#657f4c;stroke-width:2" d="M478,0 l0,15 505,0 0,-15" /><path style="fill:#7f9966" d="M291,400 l416,0 0,5 -416,0 0,-5z" /><path style="fill:#98b27f;stroke:#4c4c4c;stroke-width:2" d="M10,240 l11,1 -11,83 -10,-2 10,-82z" /><path style="fill:#7f9966;stroke:#4c4c4c;stroke-width:2" d="M286,177 l15,-15 14,15 -14,15 -15,-15z" /><path style="fill:#98b27f;stroke:#4c4c4c;stroke-width:2" d="M284,132 l10,-2 19,70 -10,3 -19,-71z" /><path style="fill:#728c59" d="M567,327 l5,0 0,6 -5,0 0,-6z" /><path style="fill:#728c59" d="M567,343 l5,0 0,5 -5,0 0,-5z" /><path style="fill:#728c59" d="M567,358 l5,0 0,6 -5,0 0,-6z" /><path style="fill:#728c59" d="M567,374 l5,0 0,5 -5,0 0,-5z" /><path style="fill:#728c59" d="M583,374 l5,0 0,5 -5,0 0,-5z" /><path style="fill:#728c59" d="M583,358 l5,0 0,6 -5,0 0,-6z" /><path style="fill:#728c59" d="M583,343 l5,0 0,5 -5,0 0,-5z" /><path style="fill:#728c59" d="M583,327 l5,0 0,6 -5,0 0,-6z" /><path style="fill:#728c59" d="M281,327 l5,0 0,6 -5,0 0,-6z" /><path style="fill:#728c59" d="M281,343 l5,0 0,5 -5,0 0,-5z" /><path style="fill:#728c59" d="M281,358 l5,0 0,6 -5,0 0,-6z" /><path style="fill:#728c59" d="M281,374 l5,0 0,5 -5,0 0,-5z" /><path style="fill:#728c59" d="M296,374 l5,0 0,5 -5,0 0,-5z" /><path style="fill:#728c59" d="M296,358 l5,0 0,6 -5,0 0,-6z" /><path style="fill:#728c59" d="M296,343 l5,0 0,5 -5,0 0,-5z" /><path style="fill:#728c59" d="M296,327 l5,0 0,6 -5,0 0,-6z" /><path style="fill:#193300" d="M333,72 l114,0 0,125 -114,0 0,-125z" /><path style="fill:#fc0" d="M25,301 l11,0 0,11 -11,0 0,-11z" /><path style="fill:#fc0" d="M973,307 l10,0 0,10 -10,0 0,-10z" /><path style="fill:#fff" d="M621,50 l211,0 0,212 -211,0 0,-212z" /><path style="fill:#f00" d="M693,257 l0,-68 -67,0 0,-67 67,0 0,-68 67,0 0,68 68,0 0,67 -68,0 0,68 -67,0z" /><path style="fill:none;stroke:#657f4c;stroke-width:2" d="M452,67 l-125,0 0,135" /><path style="fill:none;stroke:#657f4c;stroke-width:2" d="M317,390 l146,0 0,-333" /><path style="fill:none;stroke:#657f4c;stroke-width:2" d="M707,416 l0,-16 -416,0 0,16" /><path style="fill:none;stroke:#657f4c;stroke-width:2" d="M299,50 l174,0 0,350" /><path style="fill:none;stroke:#657f4c;stroke-width:2" d="M46,249 l250,-15" /><path style="fill:#000;fill-rule:evenodd" d="M714,291 l20,0 0,213 -20,0 0,-213z M687,297 l19,-5 55,206 -19,5 -55,-206z M662,310 l17,-10 107,185 -17,10 -107,-185z M642,329 l13,-14 151,151 -13,14 -151,-151z M627,353 l10,-17 184,106 -10,17 -184,-106z M618,379 l5,-19 207,56 -5,19 -207,-56z M617,407 l0,-19 214,0 0,19 -214,0z M623,435 l-5,-19 207,-56 5,19 -207,56z M637,459 l-10,-17 184,-106 10,17 -184,106z M655,480 l-13,-14 151,-151 13,14 -151,151z M679,495 l-17,-10 107,-185 17,10 -107,185z M706,503 l-19,-5 55,-206 19,5 -55,206z " /><circle style="fill:#333;stroke:#4c4c4c;stroke-width:2" cx="724" cy="397" r="102" /><circle style="fill:#4c4c4c" cx="723" cy="397" r="43" /><circle style="fill:#98b27f;stroke:#4c4c4c;stroke-width:2" cx="724" cy="397" r="34" /><path style="fill:#000" d="M729,402 l17,5 -3,5 -4,5 -6,3 -4,-18z" /><path style="fill:#000" d="M719,402 l-5,18 -5,-3 -5,-5 -3,-5 18,-5z" /><path style="fill:#000" d="M719,393 l-18,-5 3,-5 5,-5 5,-3 5,18z" /><path style="fill:#000" d="M729,393 l4,-18 6,3 4,5 3,5 -17,5z" /></svg>