<!DOCTYPE svg PUBLIC "-//W3C//DTD SVG 20000303 Stylable//EN" "http://www.w3.org/TR/2000/03/WD-SVG-20000303/DTD/svg-20000303-stylable.dtd"[]><svg xmlns="http://www.w3.org/2000/svg" width="999px" height="532px" viewBox="0 0 999 504"><path style="fill:#ccbfa6;stroke:#4c4c4c;stroke-width:2" d="M9,259 l21,0 0,42 -21,0 0,-42z" /><path style="fill:#ccbfa6;stroke:#4c4c4c;stroke-width:2" d="M275,165 l10,0 0,36 -10,0 0,-36z" /><path style="fill:#4c3f26" d="M25,285 l474,-21 500,26 0,42 -99,21 -44,0 -49,73 -725,0 -67,-109 10,-32z" /><path style="fill:#e5d8bf" d="M25,249 l18,-2 18,-24 219,-32 10,-130 11,-31 21,-30 667,0 -1,290 11,0 0,37 -32,0 -140,-11 -21,-21 -36,-10 -41,-5 -38,5 -41,10 -32,21 -10,58 -16,41 -312,0 -16,-41 -10,-58 -31,-20 -78,-16 -79,15 -26,21 -26,0 11,-67z" /><path style="fill:#000;fill-rule:evenodd" d="M132,290 l20,0 0,214 -20,0 0,-214z M105,296 l19,-5 55,207 -19,5 -55,-207z M80,310 l17,-10 107,185 -17,10 -107,-185z M60,328 l13,-13 152,151 -14,14 -151,-152z M45,352 l10,-17 185,107 -10,17 -185,-107z M36,379 l5,-19 207,55 -5,19 -207,-55z M35,407 l0,-20 214,0 0,20 -214,0z M41,434 l-5,-19 207,-55 5,19 -207,55z M55,459 l-10,-17 185,-107 10,17 -185,107z M73,480 l-13,-14 151,-151 14,13 -152,152z M97,495 l-17,-10 107,-185 17,10 -107,185z M124,503 l-19,-5 55,-207 19,5 -55,207z " /><circle style="fill:#333;stroke:#4c4c4c;stroke-width:2" cx="142" cy="397" r="102" /><circle style="fill:#4c4c4c" cx="142" cy="397" r="43" /><circle style="fill:#b2a58c;stroke:#4c4c4c;stroke-width:2" cx="142" cy="397" r="34" /><path style="fill:#000" d="M147,402 l18,5 -3,5 -5,5 -5,3 -5,-18z" /><path style="fill:#000" d="M137,402 l-4,18 -6,-3 -4,-5 -3,-5 17,-5z" /><path style="fill:#000" d="M137,392 l-17,-4 3,-6 4,-4 6,-3 4,17z" /><path style="fill:#000" d="M147,392 l5,-17 5,3 5,4 3,6 -18,4z" /><path style="fill:#e0d3ba" d="M988,77 l1,213 10,0 0,37 -32,0 -140,-11 -21,-21 -36,-10 -41,-5 -38,5 -41,10 -32,21 -10,58 -16,41 -312,0 -16,-41 -10,-58 -31,-20 765,-219z" /><path style="fill:#dbceb5" d="M988,113 l1,177 10,0 0,37 -32,0 -140,-11 -21,-21 -36,-10 -41,-5 -38,5 -46,16 -27,31 -10,42 -16,41 -312,0 -16,-41 -5,-29 729,-232z" /><path style="fill:#d6c9b0" d="M989,139 l0,151 10,0 0,37 -165,0 -23,-26 -41,-16 -41,-5 -38,5 -46,16 -27,31 -10,42 -16,41 -312,0 -16,-41 725,-235z" /><path style="fill:none;stroke:#4c4c4c;stroke-width:2" d="M25,249 l18,-2 18,-24 219,-32 10,-130 11,-31 21,-30 666,0 1,290 10,0 0,37 -162,5 -26,-31 -41,-16 -42,-5 -37,5 -46,16 -27,31 -10,42 -16,41 -312,0 -16,-41 -10,-58 -31,-20 -78,-16 -79,15 -26,21 -26,0 11,-67" /><path style="fill:none;stroke:#e5ffcc;stroke-width:2" d="M452,66 l0,136 -125,0" /><path style="fill:none;stroke:#e5ffcc;stroke-width:2" d="M317,389 l0,-333 146,0" /><path style="fill:none;stroke:#e5ffcc;stroke-width:2" d="M41,311 l26,-21 78,-15 78,15 31,21" /><path style="fill:none;stroke:#e5ffcc;stroke-width:2" d="M619,322 l26,-26 47,-16 41,-5 37,5 42,16 31,31" /><path style="fill:#b2a58c" d="M478,14 l505,0 0,5 -505,0 0,-5z" /><path style="fill:none;stroke:#657f4c;stroke-width:2" d="M478,0 l0,14 505,0 0,-14" /><path style="fill:#b2a58c" d="M291,400 l416,0 0,5 -416,0 0,-5z" /><path style="fill:#e5d8bf;stroke:#4c4c4c;stroke-width:2" d="M10,239 l10,1 -11,83 -9,-1 10,-83z" /><path style="fill:#ccbfa6;stroke:#4c4c4c;stroke-width:2" d="M286,176 l14,-14 15,14 -15,15 -14,-15z" /><path style="fill:#e5d8bf;stroke:#4c4c4c;stroke-width:2" d="M283,132 l10,-3 19,70 -10,3 -19,-70z" /><path style="fill:#b2a58c" d="M567,327 l5,0 0,5 -5,0 0,-5z" /><path style="fill:#b2a58c" d="M567,342 l5,0 0,6 -5,0 0,-6z" /><path style="fill:#b2a58c" d="M567,358 l5,0 0,5 -5,0 0,-5z" /><path style="fill:#b2a58c" d="M567,374 l5,0 0,5 -5,0 0,-5z" /><path style="fill:#b2a58c" d="M583,374 l5,0 0,5 -5,0 0,-5z" /><path style="fill:#b2a58c" d="M583,358 l5,0 0,5 -5,0 0,-5z" /><path style="fill:#b2a58c" d="M583,342 l5,0 0,6 -5,0 0,-6z" /><path style="fill:#b2a58c" d="M583,327 l5,0 0,5 -5,0 0,-5z" /><path style="fill:#b2a58c" d="M280,327 l5,0 0,5 -5,0 0,-5z" /><path style="fill:#b2a58c" d="M280,342 l5,0 0,6 -5,0 0,-6z" /><path style="fill:#b2a58c" d="M280,358 l5,0 0,5 -5,0 0,-5z" /><path style="fill:#b2a58c" d="M280,374 l5,0 0,5 -5,0 0,-5z" /><path style="fill:#b2a58c" d="M296,374 l5,0 0,5 -5,0 0,-5z" /><path style="fill:#b2a58c" d="M296,358 l5,0 0,5 -5,0 0,-5z" /><path style="fill:#b2a58c" d="M296,342 l5,0 0,6 -5,0 0,-6z" /><path style="fill:#b2a58c" d="M296,327 l5,0 0,5 -5,0 0,-5z" /><path style="fill:#33260d" d="M332,71 l115,0 0,125 -115,0 0,-125z" /><path style="fill:#fc0" d="M25,301 l10,0 0,10 -10,0 0,-10z" /><path style="fill:#fc0" d="M973,306 l10,0 0,10 -10,0 0,-10z" /><path style="fill:#fff" d="M622,49 l210,0 0,212 -210,0 0,-212z" /><path style="fill:#f00" d="M694,256 l0,-68 -68,0 0,-67 68,0 0,-67 66,0 0,67 68,0 0,67 -68,0 0,68 -66,0z" /><path style="fill:none;stroke:#657f4c;stroke-width:2" d="M452,66 l-125,0 0,136" /><path style="fill:none;stroke:#657f4c;stroke-width:2" d="M317,389 l146,0 0,-333" /><path style="fill:none;stroke:#657f4c;stroke-width:2" d="M707,415 l0,-15 -416,0 0,15" /><path style="fill:none;stroke:#657f4c;stroke-width:2" d="M299,50 l174,0 0,349" /><path style="fill:none;stroke:#657f4c;stroke-width:2" d="M46,249 l250,-16" /><path style="fill:#000;fill-rule:evenodd" d="M714,290 l20,0 0,214 -20,0 0,-214z M687,296 l19,-5 55,207 -19,5 -55,-207z M662,310 l17,-10 107,185 -17,10 -107,-185z M642,328 l13,-13 152,151 -14,14 -151,-152z M627,352 l10,-17 185,107 -10,17 -185,-107z M618,379 l5,-19 207,55 -5,19 -207,-55z M617,407 l0,-20 214,0 0,20 -214,0z M623,434 l-5,-19 207,-55 5,19 -207,55z M637,459 l-10,-17 185,-107 10,17 -185,107z M655,480 l-13,-14 151,-151 14,13 -152,152z M679,495 l-17,-10 107,-185 17,10 -107,185z M706,503 l-19,-5 55,-207 19,5 -55,207z " /><circle style="fill:#333;stroke:#4c4c4c;stroke-width:2" cx="724" cy="397" r="102" /><circle style="fill:#4c4c4c" cx="724" cy="397" r="43" /><circle style="fill:#b2a58c;stroke:#4c4c4c;stroke-width:2" cx="724" cy="397" r="34" /><path style="fill:#000" d="M729,402 l18,5 -3,5 -5,5 -5,3 -5,-18z" /><path style="fill:#000" d="M719,402 l-4,18 -6,-3 -4,-5 -3,-5 17,-5z" /><path style="fill:#000" d="M719,392 l-17,-4 3,-6 4,-4 6,-3 4,17z" /><path style="fill:#000" d="M729,392 l5,-17 5,3 5,4 3,6 -18,4z" /></svg>