<!DOCTYPE svg PUBLIC "-//W3C//DTD SVG 20000303 Stylable//EN" "http://www.w3.org/TR/2000/03/WD-SVG-20000303/DTD/svg-20000303-stylable.dtd"[]><svg xmlns="http://www.w3.org/2000/svg" width="213px" height="999px" viewBox="0 0 166 998"><path style="fill:#7f7f7f" d="M124,936 l0,-811 -83,0 0,811 83,0z" /><path style="fill:#7f7f7f" d="M41,936 l21,62 42,0 20,-62 -83,0z" /><path style="fill:#000;stroke:#4c4c4c;stroke-width:2" d="M41,353 l-41,63 0,104 41,-63 0,-104z" /><path style="fill:#000;stroke:#4c4c4c;stroke-width:2" d="M125,353 l41,63 0,104 -41,-63 0,-104z" /><path style="fill:#000;stroke:#4c4c4c;stroke-width:2" d="M125,832 l41,62 0,104 -41,-62 0,-104z" /><path style="fill:#000;stroke:#4c4c4c;stroke-width:2" d="M41,832 l-41,62 0,104 41,-62 0,-104z" /><path style="fill:none;stroke:#4c4c4c;stroke-width:2" d="M124,125 l-26,-110 -15,-15 -16,15 -26,110 83,0" /><path style="fill:#919191" d="M119,936 l0,-812 -72,0 0,812 72,0z" /><path style="fill:#a1a1a1" d="M113,936 l0,-812 -60,0 0,812 60,0z" /><path style="fill:#b2b2b2" d="M106,936 l0,-812 -47,0 0,812 47,0z" /><path style="fill:#c4c4c4" d="M100,936 l0,-812 -34,0 0,812 34,0z" /><path style="fill:#d4d4d4" d="M94,936 l0,-812 -22,0 0,812 22,0z" /><path style="fill:#e5e5e5" d="M88,936 l0,-811 -11,0 0,811 11,0z" /><path style="fill:none;stroke:#4c4c4c;stroke-width:2" d="M124,936 l0,-811 -83,0 0,811 83,0" /><path style="fill:#000" d="M124,125 l-26,-110 -15,-15 -16,15 -26,110 83,0z" /><path style="fill:#141414" d="M119,124 l-23,-109 -13,-15 -13,15 -23,109 72,0z" /><path style="fill:#2b2b2b" d="M113,124 l-19,-109 -11,-15 -11,15 -19,109 60,0z" /><path style="fill:#404040" d="M106,124 l-14,-109 -9,-15 -9,15 -15,109 47,0z" /><path style="fill:#545454" d="M100,124 l-10,-109 -7,-15 -7,15 -10,109 34,0z" /><path style="fill:#6b6b6b" d="M94,124 l-7,-109 -4,-15 -4,15 -7,109 22,0z" /><path style="fill:#7f7f7f" d="M88,125 l-3,-110 -2,-15 -2,15 -4,110 11,0z" /><path style="fill:none;stroke:#4c4c4c;stroke-width:2" d="M124,936 l0,-811 -83,0 0,811 83,0" /><path style="fill:none;stroke:#4c4c4c;stroke-width:2" d="M124,125 l-26,-110 -15,-15 -16,15 -26,110 83,0" /><path style="fill:none;stroke:#fff;stroke-width:2" d="M98,114 l-10,-99" /><path style="fill:none;stroke:#4c4c4c;stroke-width:2" d="M41,936 l21,62 42,0 20,-62 -83,0" /><path style="fill:none;stroke:#4c4c4c;stroke-width:2" d="M53,936 l15,62 30,0 15,-62 -60,0" /><path style="fill:none;stroke:#4c4c4c;stroke-width:2" d="M66,936 l8,62 18,0 8,-62 -34,0" /><path style="fill:none;stroke:#4c4c4c;stroke-width:2" d="M77,936 l3,62 5,0 3,-62 -11,0" /><path style="fill:none;stroke:#b2b2b2;stroke-width:2" d="M5,894 l0,84 31,-47" /><path style="fill:none;stroke:#b2b2b2;stroke-width:2" d="M161,894 l0,84 -31,-47" /><path style="fill:none;stroke:#b2b2b2;stroke-width:2" d="M161,416 l0,83 -31,-47" /><path style="fill:none;stroke:#b2b2b2;stroke-width:2" d="M5,416 l0,83 31,-47" /><path style="fill:#666" d="M77,353 l11,0 0,63 -11,0 0,-63z" /><path style="fill:#666" d="M77,832 l11,0 0,62 -11,0 0,-62z" /><path style="fill:#333" d="M77,998 l11,0 0,-104 -11,0 0,104z" /><path style="fill:#333" d="M77,520 l11,0 0,-104 -11,0 0,104z" /></svg>