<!DOCTYPE svg PUBLIC "-//W3C//DTD SVG 20000303 Stylable//EN" "http://www.w3.org/TR/2000/03/WD-SVG-20000303/DTD/svg-20000303-stylable.dtd"[]><svg xmlns="http://www.w3.org/2000/svg" width="999px" height="272px" viewBox="0 0 999 228"><path style="fill:#b2b2b2;stroke:#4c4c4c;stroke-width:2" d="M645,82 l25,0 0,16 -25,0 0,-16z" /><path style="fill:#b2b2b2;stroke:#4c4c4c;stroke-width:2" d="M655,119 l26,0 0,10 -26,0 0,-10z" /><path style="fill:#b2b2b2;stroke:#4c4c4c;stroke-width:2" d="M598,98 l26,0 0,10 -26,0 0,-10z" /><path style="fill:#b2b2b2;stroke:#4c4c4c;stroke-width:2" d="M577,119 l26,0 0,10 -26,0 0,-10z" /><path style="fill:#b2b2b2;stroke:#4c4c4c;stroke-width:2" d="M530,87 l26,0 0,11 -26,0 0,-11z" /><path style="fill:#b2b2b2;stroke:#4c4c4c;stroke-width:2" d="M520,108 l26,0 0,11 -26,0 0,-11z" /><path style="fill:#b2b2b2;stroke:#4c4c4c;stroke-width:2" d="M499,119 l26,0 0,10 -26,0 0,-10z" /><path style="fill:#b2b2b2;stroke:#4c4c4c;stroke-width:2" d="M442,108 l26,0 0,11 -26,0 0,-11z" /><path style="fill:#b2b2b2;stroke:#4c4c4c;stroke-width:2" d="M416,108 l26,0 0,11 -26,0 0,-11z" /><path style="fill:#b2b2b2;stroke:#4c4c4c;stroke-width:2" d="M358,93 l32,0 0,15 -32,0 0,-15z" /><path style="fill:#b2b2b2;stroke:#4c4c4c;stroke-width:2" d="M364,119 l26,0 0,10 -26,0 0,-10z" /><path style="fill:#b2b2b2;stroke:#4c4c4c;stroke-width:2" d="M312,108 l26,0 0,11 -26,0 0,-11z" /><path style="fill:#b2b2b2;stroke:#4c4c4c;stroke-width:2" d="M307,119 l26,0 0,10 -26,0 0,-10z" /><path style="fill:#b2b2b2;stroke:#4c4c4c;stroke-width:2" d="M281,87 l26,0 0,11 -26,0 0,-11z" /><path style="fill:#b2b2b2;stroke:#4c4c4c;stroke-width:2" d="M255,119 l26,0 0,10 -26,0 0,-10z" /><path style="fill:#b2b2b2;stroke:#4c4c4c;stroke-width:2" d="M234,108 l26,0 0,11 -26,0 0,-11z" /><path style="fill:#b2b2b2;stroke:#4c4c4c;stroke-width:2" d="M197,82 l26,0 0,16 -26,0 0,-16z" /><path style="fill:#b2b2b2;stroke:#4c4c4c;stroke-width:2" d="M156,98 l26,0 0,10 -26,0 0,-10z" /><path style="fill:#b2b2b2;stroke:#4c4c4c;stroke-width:2" d="M124,108 l26,0 0,11 -26,0 0,-11z" /><path style="fill:#b2b2b2;stroke:#4c4c4c;stroke-width:2" d="M145,87 l26,0 0,11 -26,0 0,-11z" /><path style="fill:#333" d="M717,103 l-608,0 0,26 608,0 0,-26z" /><path style="fill:#999;stroke:#4c4c4c;stroke-width:2" d="M619,82 l26,0 0,15 -26,0 0,-15z" /><path style="fill:#999;stroke:#4c4c4c;stroke-width:2" d="M441,82 l26,0 0,15 -26,0 0,-15z" /><path style="fill:#999;stroke:#4c4c4c;stroke-width:2" d="M228,87 l26,0 0,10 -26,0 0,-10z" /><path style="fill:#999;stroke:#4c4c4c;stroke-width:2" d="M624,98 l26,0 0,10 -26,0 0,-10z" /><path style="fill:#999;stroke:#4c4c4c;stroke-width:2" d="M546,98 l26,0 0,10 -26,0 0,-10z" /><path style="fill:#999;stroke:#4c4c4c;stroke-width:2" d="M390,98 l26,0 0,10 -26,0 0,-10z" /><path style="fill:#999;stroke:#4c4c4c;stroke-width:2" d="M260,98 l26,0 0,10 -26,0 0,-10z" /><path style="fill:#999;stroke:#4c4c4c;stroke-width:2" d="M208,98 l26,0 0,10 -26,0 0,-10z" /><path style="fill:#999;stroke:#4c4c4c;stroke-width:2" d="M130,98 l26,0 0,10 -26,0 0,-10z" /><path style="fill:#999;stroke:#4c4c4c;stroke-width:2" d="M629,108 l26,0 0,10 -26,0 0,-10z" /><path style="fill:#999;stroke:#4c4c4c;stroke-width:2" d="M572,108 l26,0 0,10 -26,0 0,-10z" /><path style="fill:#999;stroke:#4c4c4c;stroke-width:2" d="M629,118 l26,0 0,11 -26,0 0,-11z" /><path style="fill:#999;stroke:#4c4c4c;stroke-width:2" d="M525,118 l26,0 0,11 -26,0 0,-11z" /><path style="fill:#999;stroke:#4c4c4c;stroke-width:2" d="M468,118 l26,0 0,11 -26,0 0,-11z" /><path style="fill:#999;stroke:#4c4c4c;stroke-width:2" d="M416,118 l26,0 0,11 -26,0 0,-11z" /><path style="fill:#999;stroke:#4c4c4c;stroke-width:2" d="M338,118 l26,0 0,11 -26,0 0,-11z" /><path style="fill:#999;stroke:#4c4c4c;stroke-width:2" d="M281,118 l26,0 0,11 -26,0 0,-11z" /><path style="fill:#999;stroke:#4c4c4c;stroke-width:2" d="M171,118 l26,0 0,11 -26,0 0,-11z" /><path style="fill:#999;stroke:#4c4c4c;stroke-width:2" d="M119,118 l26,0 0,11 -26,0 0,-11z" /><path style="fill:#e5e5e5;stroke:#4c4c4c;stroke-width:2" d="M707,119 l26,0 0,10 -26,0 0,-10z" /><path style="fill:#e5e5e5;stroke:#4c4c4c;stroke-width:2" d="M681,108 l26,0 0,11 -26,0 0,-11z" /><path style="fill:#e5e5e5;stroke:#4c4c4c;stroke-width:2" d="M676,98 l26,0 0,10 -26,0 0,-10z" /><path style="fill:#e5e5e5;stroke:#4c4c4c;stroke-width:2" d="M650,98 l26,0 0,10 -26,0 0,-10z" /><path style="fill:#e5e5e5;stroke:#4c4c4c;stroke-width:2" d="M603,119 l26,0 0,10 -26,0 0,-10z" /><path style="fill:#e5e5e5;stroke:#4c4c4c;stroke-width:2" d="M572,98 l26,0 0,10 -26,0 0,-10z" /><path style="fill:#e5e5e5;stroke:#4c4c4c;stroke-width:2" d="M582,87 l26,0 0,11 -26,0 0,-11z" /><path style="fill:#e5e5e5;stroke:#4c4c4c;stroke-width:2" d="M546,108 l26,0 0,11 -26,0 0,-11z" /><path style="fill:#e5e5e5;stroke:#4c4c4c;stroke-width:2" d="M520,98 l26,0 0,10 -26,0 0,-10z" /><path style="fill:#e5e5e5;stroke:#4c4c4c;stroke-width:2" d="M442,119 l26,0 0,10 -26,0 0,-10z" /><path style="fill:#e5e5e5;stroke:#4c4c4c;stroke-width:2" d="M468,108 l26,0 0,11 -26,0 0,-11z" /><path style="fill:#e5e5e5;stroke:#4c4c4c;stroke-width:2" d="M467,98 l26,0 0,10 -26,0 0,-10z" /><path style="fill:#e5e5e5;stroke:#4c4c4c;stroke-width:2" d="M416,98 l26,0 0,10 -26,0 0,-10z" /><path style="fill:#e5e5e5;stroke:#4c4c4c;stroke-width:2" d="M364,108 l26,0 0,11 -26,0 0,-11z" /><path style="fill:#e5e5e5;stroke:#4c4c4c;stroke-width:2" d="M312,98 l26,0 0,10 -26,0 0,-10z" /><path style="fill:#e5e5e5;stroke:#4c4c4c;stroke-width:2" d="M307,87 l26,0 0,11 -26,0 0,-11z" /><path style="fill:#e5e5e5;stroke:#4c4c4c;stroke-width:2" d="M260,108 l26,0 0,11 -26,0 0,-11z" /><path style="fill:#e5e5e5;stroke:#4c4c4c;stroke-width:2" d="M228,119 l26,0 0,10 -26,0 0,-10z" /><path style="fill:#e5e5e5;stroke:#4c4c4c;stroke-width:2" d="M234,98 l26,0 0,10 -26,0 0,-10z" /><path style="fill:#e5e5e5;stroke:#4c4c4c;stroke-width:2" d="M171,87 l26,0 0,11 -26,0 0,-11z" /><path style="fill:#e5e5e5;stroke:#4c4c4c;stroke-width:2" d="M182,98 l26,0 0,10 -26,0 0,-10z" /><path style="fill:#e5e5e5;stroke:#4c4c4c;stroke-width:2" d="M182,108 l26,0 0,11 -26,0 0,-11z" /><path style="fill:#e5e5e5;stroke:#4c4c4c;stroke-width:2" d="M145,119 l26,0 0,10 -26,0 0,-10z" /><path style="fill:#e5e5e5;stroke:#4c4c4c;stroke-width:2" d="M93,119 l26,0 0,10 -26,0 0,-10z" /><path style="fill:#ccc;stroke:#4c4c4c;stroke-width:2" d="M681,118 l26,0 0,11 -26,0 0,-11z" /><path style="fill:#ccc;stroke:#4c4c4c;stroke-width:2" d="M670,87 l26,0 0,10 -26,0 0,-10z" /><path style="fill:#ccc;stroke:#4c4c4c;stroke-width:2" d="M655,108 l26,0 0,10 -26,0 0,-10z" /><path style="fill:#ccc;stroke:#4c4c4c;stroke-width:2" d="M603,108 l26,0 0,10 -26,0 0,-10z" /><path style="fill:#ccc;stroke:#4c4c4c;stroke-width:2" d="M556,87 l26,0 0,10 -26,0 0,-10z" /><path style="fill:#ccc;stroke:#4c4c4c;stroke-width:2" d="M551,118 l26,0 0,11 -26,0 0,-11z" /><path style="fill:#ccc;stroke:#4c4c4c;stroke-width:2" d="M494,103 l26,0 0,15 -26,0 0,-15z" /><path style="fill:#ccc;stroke:#4c4c4c;stroke-width:2" d="M467,87 l26,0 0,10 -26,0 0,-10z" /><path style="fill:#ccc;stroke:#4c4c4c;stroke-width:2" d="M441,98 l26,0 0,10 -26,0 0,-10z" /><path style="fill:#ccc;stroke:#4c4c4c;stroke-width:2" d="M390,108 l26,0 0,10 -26,0 0,-10z" /><path style="fill:#ccc;stroke:#4c4c4c;stroke-width:2" d="M390,118 l26,0 0,11 -26,0 0,-11z" /><path style="fill:#ccc;stroke:#4c4c4c;stroke-width:2" d="M338,108 l26,0 0,10 -26,0 0,-10z" /><path style="fill:#ccc;stroke:#4c4c4c;stroke-width:2" d="M286,98 l26,0 0,10 -26,0 0,-10z" /><path style="fill:#ccc;stroke:#4c4c4c;stroke-width:2" d="M286,108 l26,0 0,10 -26,0 0,-10z" /><path style="fill:#ccc;stroke:#4c4c4c;stroke-width:2" d="M255,82 l26,0 0,15 -26,0 0,-15z" /><path style="fill:#ccc;stroke:#4c4c4c;stroke-width:2" d="M208,108 l26,0 0,10 -26,0 0,-10z" /><path style="fill:#ccc;stroke:#4c4c4c;stroke-width:2" d="M197,118 l26,0 0,11 -26,0 0,-11z" /><path style="fill:#ccc;stroke:#4c4c4c;stroke-width:2" d="M150,108 l26,0 0,10 -26,0 0,-10z" /><path style="fill:#ccc;stroke:#4c4c4c;stroke-width:2" d="M104,98 l26,0 0,10 -26,0 0,-10z" /><path style="fill:#ccc;stroke:#4c4c4c;stroke-width:2" d="M98,108 l26,0 0,10 -26,0 0,-10z" /><path style="fill:#999;stroke:#4c4c4c;stroke-width:2" d="M791,129 l203,-5 0,10 -203,5 -547,0 0,-10 547,0z" /><path style="fill:none;stroke:#4c4c4c;stroke-width:2" d="M35,119 l0,-84" /><path style="fill:none;stroke:#4c4c4c;stroke-width:2" d="M249,134 l542,0 208,-5" /><path style="fill:#ccc" d="M999,134 l-208,5 -532,0 -26,-20 -233,-6 35,99 0,16 912,0 21,-5 15,-11 6,-10 5,-21 5,-47z" /><path style="fill:#c7c7c7" d="M6,131 l29,81 0,16 912,0 21,-5 15,-11 6,-10 -983,-71z" /><path style="fill:#c2c2c2" d="M13,150 l22,62 0,16 912,0 21,-5 15,-11 -970,-62z" /><path style="fill:#bdbdbd" d="M18,164 l17,48 0,16 912,0 21,-5 -950,-59z" /><path style="fill:#4c4c4c;stroke:#4c4c4c;stroke-width:2" d="M35,212 l0,16 912,0 21,-5 15,-11 -948,0z" /><path style="fill:none;stroke:#4c4c4c;stroke-width:2" d="M999,134 l-208,5 -532,0 -26,-20 -233,-6 35,99 0,16 912,0 21,-5 15,-11 6,-10 5,-21 5,-47" /><path style="fill:#e5e5e5;stroke:#4c4c4c;stroke-width:2" d="M749,139 l0,-88 52,0 0,15 52,0 0,16 52,0 0,57 -156,0z" /><path style="fill:#666" d="M770,56 l-21,0 0,11 21,0 0,-11z" /><path style="fill:#666" d="M822,72 l-21,0 0,5 21,0 0,-5z" /><path style="fill:#666" d="M905,88 l-156,0 0,10 156,0 0,-10z" /><path style="fill:#666" d="M905,108 l-156,0 0,11 156,0 0,-11z" /><path style="fill:#999" d="M874,14 l5,68 -15,0 -1,-68 11,0z" /><path style="fill:#e5e5e5" d="M872,14 l2,68 -6,0 0,-68 4,0z" /><path style="fill:none;stroke:#4c4c4c;stroke-width:2" d="M874,14 l5,68 -15,0 -1,-68 11,0" /><path style="fill:none;stroke:#4c4c4c;stroke-width:2" d="M796,51 l0,-51" /><path style="fill:#e5e5e5;stroke:#4c4c4c;stroke-width:2" d="M41,72 l-21,0 0,-5 21,0 0,5z" /><path style="fill:#7f7f7f" d="M25,121 l-8,13 14,8 7,-13 -9,6 -4,-3 0,-11z" /><path style="fill:#b2b2b2" d="M62,129 l109,0 0,5 -109,0 0,-5z" /></svg>