<!DOCTYPE svg PUBLIC "-//W3C//DTD SVG 20000303 Stylable//EN" "http://www.w3.org/TR/2000/03/WD-SVG-20000303/DTD/svg-20000303-stylable.dtd"[]><svg xmlns="http://www.w3.org/2000/svg" width="342px" height="999px" viewBox="0 0 303 999"><path style="fill:#98b2b2;stroke:#4c4c4c;stroke-width:2" d="M194,160 l-6,-26 -69,1 -5,25 80,0z" /><path style="fill:#963;stroke:#4c4c4c;stroke-width:2" d="M135,135 l-11,26 -83,26 -26,31 -7,36 1,79 -5,52 5,93 6,42 6,20 20,23 9,-2 -12,-25 -4,-23 6,-7 6,33 6,-6 2,-26 -13,-34 15,-109 0,-47 6,-68 5,42 10,83 0,73 -5,62 -10,94 5,140 -5,42 5,156 -11,26 -15,16 5,10 42,0 26,-20 -5,-32 -6,-26 26,-177 16,-177 16,0 0,89 10,99 -5,78 21,109 -11,42 5,10 26,11 32,0 10,-11 -26,-47 10,-130 0,-42 6,-192 -6,-88 0,-68 6,-94 5,-83 5,78 -5,68 15,88 -8,21 3,32 6,5 2,-23 3,-1 -7,57 7,8 20,-44 4,-29 -3,-21 10,-99 5,-62 -6,-65 -20,-65 -26,-15 -68,-22 -10,-20 -36,0z" /><path style="fill:#fff" d="M226,261 l19,4 1,-31 -16,-1 -4,28z" /><path style="fill:#f00" d="M245,240 l1,-6 -16,-1 -1,5 16,2z" /><path style="fill:#f00" d="M245,252 l0,-7 -17,-1 0,6 17,2z" /><path style="fill:#f00" d="M226,261 l19,4 0,-7 -18,-2 -1,5z" /><path style="fill:#00f" d="M235,246 l10,1 1,-13 -11,0 0,12z" /><path style="fill:#000;stroke:#4c4c4c;stroke-width:2" d="M251,993 l0,-10 -15,-16 -11,-26 -31,0 -15,-15 -1,31 -5,16 0,10 5,10 21,6 47,0 5,-6z" /><path style="fill:#000;stroke:#4c4c4c;stroke-width:2" d="M33,993 l0,-10 15,-16 11,-26 31,0 15,-15 6,36 5,11 -16,10 -10,10 -21,6 -31,0 -5,-6z" /><path style="fill:#000;stroke:#4c4c4c;stroke-width:2" d="M64,452 l0,-21 172,0 0,21 -172,0z" /><path style="fill:#963;stroke:#4c4c4c;stroke-width:2" d="M193,99 l-84,0 -10,-9 -6,-10 0,-10 6,-10 105,0 6,10 0,10 -6,10 -11,9z" /><ellipse style="fill:#963;stroke:#4c4c4c;stroke-width:2" cx="151" cy="75" rx="50" ry="65" /><path style="fill:#333;stroke:#4c4c4c;stroke-width:2" d="M103,71 l-4,-12 -6,12 6,-45 14,-16 17,-9 20,-1 21,1 16,9 14,16 9,45 -7,-12 -4,12 -8,-33 -8,-12 -2,-4 -4,8 -47,6 -19,0 -2,2 -6,33z" /><path style="fill:#633" d="M150,98 l14,4 -28,0 14,-4z" /><path style="fill:#b27f7f" d="M136,116 l-4,-4 37,0 -5,4 -28,0z" /><path style="fill:#000" d="M177,30 l4,-20 2,0 0,16 -2,-4 -4,8z" /><path style="fill:#000" d="M181,59 l-25,-4 2,4 25,2 -2,-2z" /><path style="fill:#000" d="M119,59 l25,-4 -2,4 -24,2 1,-2z" /><path style="fill:#000" d="M130,79 l4,0 2,-6 -2,-6 -4,0 -2,6 2,6z" /><path style="fill:#000" d="M167,79 l4,0 2,-6 -2,-6 -4,0 -2,6 2,6z" /><path style="fill:#006;stroke:#4c4c4c;stroke-width:2" d="M111,952 l-16,-11 -42,0 -5,-140 5,-63 -5,-135 10,-114 6,-42 57,-5 63,5 51,0 6,99 5,73 -11,130 6,67 -11,131 -5,-6 -41,0 -6,6 -15,-120 -5,-84 -11,-124 -10,119 -21,130 -5,84z" /><path style="fill:#003" d="M147,614 l-10,109 -21,140 -5,63 -6,-47 0,-89 27,-109 5,-52 0,-36 0,-21 5,-94 0,89 5,31 21,-37 -10,47 10,52 5,130 5,94 16,42 -16,5 -10,-68 -10,-135 -11,-114z" /><path style="fill:#e5ffff;stroke:#4c4c4c;stroke-width:2" d="M66,431 l1,-23 -3,-30 -1,-32 -2,-63 -2,37 -3,63 -13,91 -15,3 -20,13 -8,-105 3,-76 3,-64 16,-53 42,-19 55,-15 37,36 1,-11 31,-29 82,24 14,21 17,50 2,81 -7,111 -8,41 -14,-7 -19,2 -11,-65 0,-62 0,-17 -1,-42 -2,32 -2,40 -4,42 -2,28 -167,-2z" /><path style="fill:#cbe5e5;stroke:#4c4c4c;stroke-width:2" d="M157,208 l-1,-37 32,-37 5,25 -36,49z" /><path style="fill:#cbe5e5;stroke:#4c4c4c;stroke-width:2" d="M154,209 l0,-39 -35,-35 -5,25 40,49z" /><path style="fill:#cbe5e5" d="M248,371 l6,-15 20,-3 -19,-14 -5,-60 5,-12 -9,-15 -12,21 4,52 5,-36 2,14 0,20 0,87 3,-39z" /><path style="fill:#cbe5e5" d="M46,425 l-7,-55 -14,-20 21,-5 2,-19 3,-39 5,-21 15,12 -2,45 -7,-42 -5,20 1,22 -2,62 -10,40z" /><path style="fill:#006" d="M142,264 l0,-13 -71,-1 2,13 69,1z" /><path style="fill:#006" d="M194,156 l76,21 11,16 -92,-27 5,-10z" /><path style="fill:#006" d="M114,159 l-90,26 -8,18 105,-32 -7,-12z" /><path style="fill:#ccc" d="M173,249 l47,0 0,6 -47,0 0,-6z" /><path style="fill:#006" d="M183,249 l0,-21 6,0 0,21 -6,0z" /><path style="fill:#f00" d="M178,249 l0,-15 6,0 0,15 -6,0z" /><path style="fill:#000" d="M194,249 l0,-15 5,0 0,15 -5,0z" /><path style="fill:#000" d="M223,456 l10,62 -5,-61 -5,-1z" /><path style="fill:#000" d="M72,456 l-8,62 5,-61 3,-1z" /><path style="fill:#ff0;stroke:#4c4c4c;stroke-width:2" d="M137,428 l25,1 0,23 -26,-1 1,-23z" /><path style="fill:#000" d="M140,431 l18,1 0,16 -19,0 1,-17z" /><path style="fill:none;stroke:#006;stroke-width:2" d="M156,431 l4,-4 -3,-22 5,-150 -5,-53" /><path style="fill:none;stroke:#006;stroke-width:2" d="M166,317 l31,10 32,-10 0,-52 -58,0 0,-10 58,0" /><path style="fill:none;stroke:#006;stroke-width:2" d="M140,265 l0,52 -31,10 -32,-10" /><path style="fill:#006;stroke:#4c4c4c;stroke-width:2" d="M155,176 l-9,10 5,16 -10,214 16,13 19,-14 -16,-212 5,-19 -10,-8z" /></svg>