<!DOCTYPE svg PUBLIC "-//W3C//DTD SVG 20000303 Stylable//EN" "http://www.w3.org/TR/2000/03/WD-SVG-20000303/DTD/svg-20000303-stylable.dtd"[]><svg xmlns="http://www.w3.org/2000/svg" width="338px" height="999px" viewBox="0 0 298 999"><path style="fill:#a69980;stroke:#4c4c4c;stroke-width:2" d="M191,172 l-5,-25 -68,0 -6,25 79,0z" /><path style="fill:#fc9;stroke:#4c4c4c;stroke-width:2" d="M133,147 l-11,26 -81,26 -26,30 -7,36 1,78 -5,51 5,92 6,41 10,31 15,15 5,-36 11,-10 -16,-46 16,-108 0,-46 5,-67 5,41 10,82 0,72 -5,62 -10,92 5,138 -5,41 5,154 -10,26 -16,15 5,10 41,0 26,-20 -5,-31 -5,-26 25,-174 16,-174 15,0 0,87 10,97 -5,77 21,108 -10,41 5,10 25,11 31,0 10,-11 -25,-46 10,-128 0,-41 5,-190 -5,-87 0,-67 5,-92 5,-82 5,77 -5,67 15,87 -7,21 2,31 6,4 2,-22 3,-1 -7,56 7,8 19,-43 4,-28 -3,-21 11,-97 5,-62 -6,-64 -20,-64 -26,-15 -66,-21 -11,-21 -35,0z" /><path style="fill:#a69980;stroke:#4c4c4c;stroke-width:2" d="M66,454 l0,-21 169,0 0,21 -169,0z" /><path style="fill:#fc9;stroke:#4c4c4c;stroke-width:2" d="M193,112 l-82,0 -11,-8 -5,-10 0,-10 5,-10 104,0 5,10 0,10 -5,10 -11,8z" /><ellipse style="fill:#fc9;stroke:#4c4c4c;stroke-width:2" cx="152" cy="88" rx="49" ry="64" /><path style="fill:#963;stroke:#4c4c4c;stroke-width:2" d="M104,85 l-3,-12 -6,12 7,-44 13,-17 16,-8 20,-2 20,2 16,8 14,17 8,44 -6,-12 -4,12 -8,-32 -8,-12 -2,-4 -4,7 -46,7 -18,0 -2,2 -7,32z" /><path style="fill:#e5b27f" d="M151,111 l14,4 -28,0 14,-4z" /><path style="fill:#e5b2b2" d="M137,129 l-4,-4 36,0 -4,4 -28,0z" /><path style="fill:none;stroke:#cc99b2;stroke-width:2" d="M133,125 l36,0" /><path style="fill:#630" d="M177,44 l4,-20 2,0 0,17 -2,-4 -4,7z" /><path style="fill:#665940" d="M181,73 l-24,-4 2,4 24,2 -2,-2z" /><path style="fill:#665940" d="M121,73 l24,-4 -2,4 -24,2 2,-2z" /><path style="fill:#665940" d="M131,93 l4,0 2,-6 -2,-6 -4,0 -2,6 2,6z" /><path style="fill:#665940" d="M167,93 l4,0 2,-6 -2,-6 -4,0 -2,6 2,6z" /><path style="fill:#f2e5cc;stroke:#4c4c4c;stroke-width:2" d="M122,840 l-20,-11 -41,0 -10,-36 5,-51 -6,-133 11,-113 4,-42 57,-5 62,5 50,0 5,79 6,9 3,73 -3,9 -4,72 -1,92 -10,41 -10,-5 -41,0 -5,5 -11,0 -5,-82 -10,-139 -10,134 -5,41 -11,57z" /><path style="fill:#bfb299" d="M148,604 l-10,123 -21,138 -5,62 -5,-46 0,-88 26,-107 5,-51 0,-52 0,-20 5,-35 0,30 5,31 20,-36 -10,46 10,66 6,128 5,93 15,41 -15,5 -11,-67 -10,-133 -10,-128z" /><path style="fill:#bfb299" d="M198,812 l23,0 9,-11 5,-21 0,-30 1,-75 -14,100 -15,21 -27,-16 18,32z" /><path style="fill:#bfb299" d="M95,798 l-18,5 -11,-12 -10,6 12,-26 -10,-75 2,-39 18,122 32,-8 -15,27z" /><path style="fill:#8c7f66;stroke:#4c4c4c;stroke-width:2" d="M81,996 l-27,1 -17,-1 -5,-7 -1,-12 7,-12 15,-6 7,-10 3,-32 -7,-96 11,-2 44,0 17,8 -12,86 2,44 4,5 1,11 -5,5 -20,7 -17,11z" /><path style="fill:#8c7f66;stroke:#4c4c4c;stroke-width:2" d="M212,998 l25,1 15,-3 5,-7 1,-12 -7,-12 -13,-6 -8,-10 -2,-32 6,-96 -10,-2 -47,0 -16,8 12,86 2,50 -4,6 -1,16 5,5 19,7 18,1z" /><path style="fill:#73664d" d="M209,996 l-28,-6 -10,-7 4,-9 27,7 28,-6 26,5 -5,14 -20,3 -22,-1z" /><path style="fill:#73664d" d="M37,994 l-4,-6 -1,-11 23,-5 26,6 39,-16 2,10 -42,23 -28,-1 -15,0z" /><path style="fill:#4c4c4c;stroke:#4c4c4c;stroke-width:2" d="M52,609 l-12,-4 1,-116 26,-18 14,3 -2,12 161,-9 0,14 -162,13 -26,105z" /><path style="fill:#f2e5cc;stroke:#4c4c4c;stroke-width:2" d="M69,437 l-6,-9 6,-11 -3,-27 -4,-34 -1,-63 -2,37 -3,62 -13,90 -15,3 -20,13 -8,-104 3,-75 3,-63 14,-52 43,-19 55,-14 36,35 1,-11 31,-29 80,24 14,21 17,49 1,80 -6,110 -8,40 -14,-7 -19,1 -11,-63 0,-61 1,-18 -2,-41 -2,32 0,57 -2,30 5,13 -7,9 -164,-5z" /><path style="fill:#f2e5cc;stroke:#4c4c4c;stroke-width:2" d="M99,52 l14,6 37,-7 35,7 19,-7 -26,-18 -54,0 -25,19z" /><path style="fill:#d9ccb3;stroke:#4c4c4c;stroke-width:2" d="M99,52 l9,-42 28,-10 33,0 28,10 7,40 -24,-9 -31,-4 -27,4 -23,11z" /><path style="fill:#e5e5e5" d="M155,196 l17,-14 -40,0 21,25 2,-11z" /><path style="fill:#d9ccb3" d="M138,275 l1,-13 -70,-1 2,13 67,1z" /><path style="fill:none;stroke:#363;stroke-width:2" d="M153,437 l5,-12 -3,-11 5,-148 -6,-52" /><path style="fill:none;stroke:#363;stroke-width:2" d="M164,327 l30,10 31,-10 0,-51 -56,0 0,-10 56,0" /><path style="fill:none;stroke:#363;stroke-width:2" d="M138,276 l0,51 -31,10 -31,-10" /><path style="fill:#d9ccb3;stroke:#4c4c4c;stroke-width:2" d="M159,220 l2,-39 25,-34 4,24 -31,49z" /><path style="fill:#d9ccb3;stroke:#4c4c4c;stroke-width:2" d="M145,220 l-1,-38 -26,-35 -6,25 33,48z" /><ellipse style="fill:#bfb299" cx="250" cy="341" rx="19" ry="78" /><path style="fill:#bfb299" d="M45,434 l-6,-55 -14,-19 7,-15 15,-9 3,-39 6,-20 14,12 -2,44 -7,-42 -7,19 3,23 -2,61 -10,40z" /><path style="fill:#fff" d="M5,272 l19,4 1,-31 -16,0 -4,27z" /><path style="fill:#f00" d="M24,251 l1,-6 -16,0 -1,4 16,2z" /><path style="fill:#f00" d="M24,263 l0,-7 -16,-1 -1,6 17,2z" /><path style="fill:#f00" d="M5,272 l19,4 0,-7 -18,-2 -1,5z" /><path style="fill:#00f" d="M14,257 l10,1 1,-13 -11,0 0,12z" /><path style="fill:none;stroke:#bfb299;stroke-width:2" d="M225,837 l-37,0 37,14 -35,0 34,11 -31,0 30,11 -27,0 26,10 -24,0 23,8 -21,1 20,6 -18,1 18,7 -15,1" /><path style="fill:none;stroke:#bfb299;stroke-width:2" d="M66,837 l40,0 -40,14 38,0 -36,11 32,0 -31,11 29,0 -29,10 26,0 -25,8 23,1 -22,6 20,1 -20,7 17,1" /></svg>