<!DOCTYPE svg PUBLIC "-//W3C//DTD SVG 20000303 Stylable//EN" "http://www.w3.org/TR/2000/03/WD-SVG-20000303/DTD/svg-20000303-stylable.dtd"[]><svg xmlns="http://www.w3.org/2000/svg" width="527px" height="999px" viewBox="0 0 499 998"><path style="fill:#e50000;stroke:#4c4c4c;stroke-width:2" d="M83,624 l-83,125 0,249 20,0 146,-124 166,0 146,124 21,0 0,-244 -83,-130 -333,0z" /><path style="fill:#900;stroke:#4c4c4c;stroke-width:2" d="M97,624 l-77,125 0,249 153,-124 152,0 153,124 0,-244 -76,-130 -305,0z" /><path style="fill:#7f7f7f;stroke:#4c4c4c;stroke-width:2" d="M313,904 l-42,11 -44,0 -42,-11 -38,-22 -31,-31 -22,-38 -11,-42 0,-627 11,-42 22,-38 31,-31 38,-22 42,-11 44,0 42,11 38,22 31,31 22,38 12,42 0,627 -12,42 -22,38 -31,31 -38,22z" /><path style="fill:#878787" d="M309,904 l-39,11 -41,0 -39,-11 -35,-22 -29,-31 -21,-38 -10,-43 0,-626 10,-42 21,-38 28,-31 36,-22 39,-11 41,0 39,11 36,22 28,31 21,38 10,42 0,626 -10,43 -21,38 -29,31 -35,22z" /><path style="fill:#8f8f8f" d="M305,904 l-37,11 -37,0 -37,-11 -32,-22 -27,-31 -19,-38 -10,-43 0,-626 10,-42 19,-38 27,-31 32,-22 37,-11 37,0 37,11 32,22 27,31 19,38 10,42 0,626 -10,43 -19,38 -27,31 -32,22z" /><path style="fill:#969696" d="M300,904 l-33,11 -35,0 -33,-11 -30,-22 -25,-31 -17,-38 -9,-43 0,-626 9,-42 17,-38 25,-31 30,-22 33,-11 35,0 33,11 30,22 25,31 17,38 9,42 0,626 -9,43 -17,38 -25,31 -30,22z" /><path style="fill:#9e9e9e" d="M296,904 l-31,11 -31,0 -31,-11 -27,-22 -23,-31 -15,-38 -9,-43 0,-626 9,-42 15,-38 23,-31 27,-22 31,-11 31,0 31,11 27,22 23,31 15,38 9,42 0,626 -9,43 -15,38 -23,31 -27,22z" /><path style="fill:#a6a6a6" d="M291,904 l-27,11 -29,0 -27,-11 -25,-22 -20,-31 -15,-38 -7,-43 0,-626 7,-42 15,-38 20,-31 25,-22 27,-11 29,0 27,11 25,22 20,31 14,38 8,42 0,626 -7,43 -15,38 -20,31 -25,22z" /><path style="fill:#adadad" d="M287,904 l-25,11 -25,0 -25,-11 -22,-22 -18,-31 -13,-38 -6,-43 0,-626 6,-42 13,-38 18,-31 22,-22 25,-11 25,0 25,11 22,22 18,31 13,38 6,42 0,626 -6,43 -13,38 -18,31 -22,22z" /><path style="fill:#b8b8b8" d="M282,904 l-21,11 -23,0 -21,-11 -20,-22 -16,-31 -11,-38 -6,-43 0,-626 6,-42 11,-38 16,-31 20,-22 21,-11 23,0 21,11 20,22 16,31 11,38 6,42 0,626 -6,43 -11,38 -16,31 -20,22z" /><path style="fill:#bfbfbf" d="M278,904 l-19,11 -19,0 -19,-12 -17,-21 -13,-31 -10,-38 -5,-43 0,-626 5,-42 10,-38 13,-31 17,-22 19,-11 19,0 19,11 17,22 13,31 10,38 5,42 0,626 -5,43 -10,38 -13,31 -17,22z" /><path style="fill:#c7c7c7" d="M273,904 l-16,11 -16,0 -15,-12 -14,-21 -12,-31 -8,-38 -4,-43 0,-626 4,-42 8,-38 11,-31 15,-22 15,-11 16,0 16,11 14,22 12,31 8,38 4,42 0,626 -4,43 -8,38 -12,31 -14,22z" /><path style="fill:#cfcfcf" d="M269,904 l-13,11 -13,0 -13,-12 -11,-21 -10,-31 -6,-38 -4,-43 0,-626 4,-42 6,-38 10,-31 11,-22 13,-11 13,0 13,11 11,22 10,31 6,38 4,42 0,626 -4,43 -6,38 -10,31 -11,22z" /><ellipse style="fill:#d6d6d6" cx="249" cy="457" rx="38" ry="457" /><ellipse style="fill:#dedede" cx="249" cy="457" rx="27" ry="457" /><ellipse style="fill:#e5e5e5" cx="249" cy="457" rx="15" ry="457" /><path style="fill:#900;stroke:#4c4c4c;stroke-width:2" d="M239,998 l20,0 0,-249 -20,0 0,249z" /><path style="fill:#e50000;stroke:#4c4c4c;stroke-width:2" d="M239,624 l20,0 0,125 -20,0 0,-125z" /></svg>