<!DOCTYPE svg PUBLIC "-//W3C//DTD SVG 20000303 Stylable//EN" "http://www.w3.org/TR/2000/03/WD-SVG-20000303/DTD/svg-20000303-stylable.dtd"[]><svg xmlns="http://www.w3.org/2000/svg" width="999px" height="714px" viewBox="0 0 999 697"><path style="fill:#696;stroke:#4c4c4c;stroke-width:2" d="M41,697 l0,-458 916,0 0,458 -916,0z" /><path style="fill:#333;stroke:#4c4c4c;stroke-width:2" d="M499,249 l10,151 0,146 16,151 -156,0 120,-354 10,-94z" /><path style="fill:#7fb27f;stroke:#4c4c4c;stroke-width:2" d="M660,239 l-156,5 -130,-5 -265,10 -68,-10 -5,-21 109,-15 104,-37 104,-52 104,-63 37,-41 15,0 32,41 104,63 104,52 104,37 109,15 -5,21 -104,0 -31,10 -162,-10z" /><path style="fill:#668c4c" d="M650,655 l146,-5 88,11 37,-21 -6,-162 6,-114 -21,-78 -141,-11 -140,6 -104,0 20,145 0,130 11,94 104,5z" /><path style="fill:#668c4c" d="M338,655 l-146,-5 -88,11 -37,-21 5,-162 26,-114 -10,-78 141,-16 140,21 104,-5 -89,307 -46,62z" /><path style="fill:#696" d="M525,140 l37,57 41,21 -31,-26 -47,-78 -15,-73 5,104 10,-5z" /><path style="fill:#696" d="M863,218 l-119,-42 -94,-52 94,63 119,31z" /><path style="fill:#696" d="M707,182 l-114,-78 -84,-73 68,73 130,78z" /><path style="fill:#696" d="M629,151 l-62,-42 -42,-47 47,68 57,21z" /><path style="fill:#696" d="M759,223 l-83,-26 -88,-36 67,52 104,10z" /><path style="fill:#333;stroke:#4c4c4c;stroke-width:2" d="M504,10 l0,-10 -5,0 0,10 5,0z" /><path style="fill:#333;stroke:#4c4c4c;stroke-width:2" d="M958,697 l30,-83 11,5 -31,78 -10,0z" /><path style="fill:#333;stroke:#4c4c4c;stroke-width:2" d="M41,697 l-31,-83 -10,5 31,78 10,0z" /><path style="fill:#696" d="M483,223 l0,-83 -36,57 -42,21 32,-26 46,-78 16,-73 -5,104 -11,78z" /><path style="fill:#696" d="M124,223 l141,-47 93,-52 -124,84 -110,15z" /><path style="fill:#696" d="M301,182 l120,-89 73,-68 -63,73 -130,84z" /><path style="fill:#696" d="M364,161 l62,-42 42,-47 -47,68 -57,21z" /><path style="fill:#696" d="M229,229 l83,-26 88,-37 -67,52 -104,11z" /><path style="fill:none;stroke:#663;stroke-width:2" d="M515,691 l-6,-98 6,-104 -11,-105 0,-129" /><path style="fill:none;stroke:#663;stroke-width:2" d="M473,691 l10,-98 -10,-104 20,-105 0,-129" /><path style="fill:#7fb27f;stroke:#4c4c4c;stroke-width:2" d="M374,697 l115,-354 10,-68 -89,177 -83,99 47,146z" /></svg>