<!DOCTYPE svg PUBLIC "-//W3C//DTD SVG 20000303 Stylable//EN" "http://www.w3.org/TR/2000/03/WD-SVG-20000303/DTD/svg-20000303-stylable.dtd"[]><svg xmlns="http://www.w3.org/2000/svg" width="999px" height="381px" viewBox="0 0 999 344"><path style="fill:#000;stroke:#4c4c4c;stroke-width:2" d="M278,242 l677,0 0,62 -159,0 0,-55 -518,0 0,-7z" /><path style="fill:#4c4c4c;stroke:#4c4c4c;stroke-width:2" d="M818,264 l115,0 0,32 -115,0 0,-32z" /><path style="fill:#000" d="M21,253 l47,-4 167,4 58,0 0,-11 141,0 0,11 36,0 0,51 -449,0 0,-51z" /><path style="fill:#4c4c4c;stroke:#4c4c4c;stroke-width:2" d="M86,271 l199,0 0,18 -199,0 0,-18z" /><path style="fill:#7f9966;stroke:#4c4c4c;stroke-width:2" d="M250,231 l749,0 0,11 -749,0 0,-11z" /><path style="fill:#666" d="M202,123 l15,0 0,141 -15,0 0,-141z" /><path style="fill:#4c6633;stroke:#4c4c4c;stroke-width:2" d="M212,249 l276,0 0,11 -276,0 0,-11z" /><path style="fill:#4c4c4c;stroke:#4c4c4c;stroke-width:2" d="M285,264 l185,0 0,32 -185,0 0,-32z" /><path style="fill:#000;fill-rule:evenodd" d="M65,253 l9,0 0,91 -9,0 0,-91z M54,256 l8,-3 23,88 -8,2 -23,-87z M43,261 l8,-4 45,79 -7,3 -46,-78z M35,269 l6,-6 64,64 -6,6 -64,-64z M29,279 l4,-7 78,45 -4,7 -78,-45z M25,290 l2,-8 88,24 -2,8 -88,-24z M25,302 l0,-8 90,0 0,8 -90,0z M27,314 l-2,-8 88,-24 2,8 -88,24z M33,324 l-4,-7 78,-45 4,7 -78,45z M41,333 l-6,-6 64,-64 6,6 -64,64z M51,339 l-8,-3 46,-79 7,4 -45,78z M62,343 l-8,-2 23,-88 8,3 -23,87z " /><circle style="fill:#333;stroke:#4c4c4c;stroke-width:2" cx="70" cy="298" r="43" /><circle style="fill:#4c4c4c" cx="69" cy="298" r="18" /><circle style="fill:#e5e5e5;stroke:#4c4c4c;stroke-width:2" cx="69" cy="298" r="14" /><path style="fill:#000" d="M72,300 l8,2 -2,2 -2,2 -2,2 -2,-8z" /><path style="fill:#000" d="M68,300 l-2,8 -3,-2 -1,-2 -2,-2 8,-2z" /><path style="fill:#000" d="M68,296 l-8,-2 2,-2 1,-2 3,-2 2,8z" /><path style="fill:#000" d="M72,296 l2,-8 2,2 2,2 2,2 -8,2z" /><path style="fill:#000;fill-rule:evenodd" d="M334,253 l8,0 0,91 -8,0 0,-91z M322,256 l8,-3 24,88 -8,2 -24,-87z M312,261 l7,-4 45,79 -7,3 -45,-78z M303,269 l5,-6 65,64 -6,6 -64,-64z M296,279 l4,-7 79,45 -4,7 -79,-45z M293,290 l2,-8 87,24 -2,8 -87,-24z M292,302 l0,-8 91,0 0,8 -91,0z M295,314 l-2,-8 87,-24 2,8 -87,24z M300,324 l-4,-7 79,-45 4,7 -79,45z M308,333 l-5,-6 64,-64 6,6 -65,64z M319,339 l-7,-3 45,-79 7,4 -45,78z M330,343 l-8,-2 24,-88 8,3 -24,87z " /><circle style="fill:#333;stroke:#4c4c4c;stroke-width:2" cx="337" cy="298" r="43" /><circle style="fill:#4c4c4c" cx="337" cy="298" r="18" /><circle style="fill:#e5e5e5;stroke:#4c4c4c;stroke-width:2" cx="338" cy="298" r="14" /><path style="fill:#000" d="M339,300 l8,2 -1,2 -2,2 -2,2 -3,-8z" /><path style="fill:#000" d="M335,300 l-1,8 -2,-2 -2,-2 -2,-2 7,-2z" /><path style="fill:#000" d="M335,296 l-7,-2 2,-2 2,-2 2,-2 1,8z" /><path style="fill:#000" d="M339,296 l3,-8 2,2 2,2 1,2 -8,2z" /><path style="fill:#000;fill-rule:evenodd" d="M432,253 l7,0 0,91 -7,0 0,-91z M419,256 l8,-3 24,88 -7,2 -25,-87z M410,261 l6,-4 45,79 -6,3 -45,-78z M401,269 l5,-6 64,64 -5,6 -64,-64z M394,279 l4,-7 79,45 -4,7 -79,-45z M391,290 l2,-8 87,24 -2,8 -87,-24z M390,302 l0,-8 91,0 0,8 -91,0z M393,314 l-2,-8 87,-24 2,8 -87,24z M398,324 l-4,-7 79,-45 4,7 -79,45z M406,333 l-5,-6 64,-64 5,6 -64,64z M416,339 l-6,-3 45,-79 6,4 -45,78z M427,343 l-8,-2 25,-88 7,3 -24,87z " /><circle style="fill:#333;stroke:#4c4c4c;stroke-width:2" cx="435" cy="298" r="43" /><circle style="fill:#4c4c4c" cx="435" cy="298" r="18" /><circle style="fill:#e5e5e5;stroke:#4c4c4c;stroke-width:2" cx="435" cy="298" r="14" /><path style="fill:#000" d="M438,300 l7,2 -1,2 -3,2 -2,2 -1,-8z" /><path style="fill:#000" d="M434,300 l-2,8 -3,-2 -2,-2 -1,-2 8,-2z" /><path style="fill:#000" d="M434,296 l-8,-2 1,-2 2,-2 3,-2 2,8z" /><path style="fill:#000" d="M438,296 l1,-8 2,2 3,2 1,2 -7,2z" /><path style="fill:#000;fill-rule:evenodd" d="M822,253 l8,0 0,91 -8,0 0,-91z M811,256 l8,-3 23,88 -8,2 -23,-87z M800,261 l8,-4 45,79 -8,3 -45,-78z M791,269 l7,-6 63,64 -6,6 -64,-64z M785,279 l5,-7 77,45 -4,7 -78,-45z M781,290 l3,-8 87,24 -2,8 -88,-24z M781,302 l0,-8 90,0 0,8 -90,0z M784,314 l-3,-8 88,-24 2,8 -87,24z M790,324 l-5,-7 78,-45 4,7 -77,45z M798,333 l-7,-6 64,-64 6,6 -63,64z M808,339 l-8,-3 45,-79 8,4 -45,78z M819,343 l-8,-2 23,-88 8,3 -23,87z " /><circle style="fill:#333;stroke:#4c4c4c;stroke-width:2" cx="826" cy="298" r="43" /><circle style="fill:#4c4c4c" cx="826" cy="298" r="18" /><circle style="fill:#e5e5e5;stroke:#4c4c4c;stroke-width:2" cx="826" cy="298" r="14" /><path style="fill:#000" d="M828,300 l8,2 -1,2 -2,2 -3,2 -2,-8z" /><path style="fill:#000" d="M824,300 l-2,8 -2,-2 -2,-2 -1,-2 7,-2z" /><path style="fill:#000" d="M824,296 l-7,-2 1,-2 2,-2 2,-2 2,8z" /><path style="fill:#000" d="M828,296 l2,-8 3,2 2,2 1,2 -8,2z" /><path style="fill:#000;fill-rule:evenodd" d="M920,253 l8,0 0,91 -8,0 0,-91z M909,256 l8,-3 23,88 -8,2 -23,-87z M898,261 l7,-4 46,79 -8,3 -45,-78z M889,269 l5,-6 65,64 -6,6 -64,-64z M883,279 l4,-7 78,45 -4,7 -78,-45z M879,290 l2,-8 88,24 -2,8 -88,-24z M879,302 l0,-8 90,0 0,8 -90,0z M881,314 l-2,-8 88,-24 2,8 -88,24z M887,324 l-4,-7 78,-45 4,7 -78,45z M894,333 l-5,-6 64,-64 6,6 -65,64z M905,339 l-7,-3 45,-79 8,4 -46,78z M917,343 l-8,-2 23,-88 8,3 -23,87z " /><circle style="fill:#333;stroke:#4c4c4c;stroke-width:2" cx="924" cy="298" r="43" /><circle style="fill:#4c4c4c" cx="924" cy="298" r="19" /><circle style="fill:#e5e5e5;stroke:#4c4c4c;stroke-width:2" cx="924" cy="298" r="14" /><path style="fill:#000" d="M926,300 l8,2 -2,2 -1,2 -3,2 -2,-8z" /><path style="fill:#000" d="M922,300 l-2,8 -2,-2 -2,-2 -1,-2 7,-2z" /><path style="fill:#000" d="M922,296 l-7,-2 1,-2 2,-2 2,-2 2,8z" /><path style="fill:#000" d="M926,296 l2,-8 3,2 1,2 2,2 -8,2z" /><path style="fill:#98b27f" d="M14,80 l181,-48 0,243 -11,0 0,6 -55,0 -3,12 58,-1 0,8 -65,0 0,-19 -11,-17 -18,-11 -22,-4 -21,4 -15,11 -11,17 0,15 -18,0 -3,-25 13,-4 1,-108 7,-69 -4,0 -3,-10z" /><path style="fill:#000;stroke:#4c4c4c;stroke-width:2" d="M25,97 l65,0 0,54 -69,0 4,-54z" /><path style="fill:none;stroke:#4c4c4c;stroke-width:2" d="M195,80 l-181,0" /><path style="fill:#633;stroke:#4c4c4c;stroke-width:2" d="M206,0 l6,0 0,123 -6,0 0,-123z" /><path style="fill:none;stroke:#b27f7f;stroke-width:2" d="M209,120 l0,-118" /><path style="fill:#ccc" d="M205,123 l7,0 0,141 -7,0 0,-141z" /><path style="fill:none;stroke:#4c4c4c;stroke-width:2" d="M202,123 l15,0 0,141 -15,0 0,-141" /><path style="fill:#000" d="M607,256 l0,-7 13,0 0,7 193,0 0,15 -206,0 0,-15z" /><path style="fill:#93ad7a" d="M195,128 l0,147 -11,0 0,7 -54,0 -4,11 58,-1 0,8 -65,0 0,-18 -11,-18 -18,-11 -22,-4 -21,4 -15,11 -11,18 0,14 -18,0 -3,-25 14,-4 0,-81 181,-58z" /><path style="fill:#8ea875" d="M195,152 l0,123 -11,0 0,7 -54,0 -4,11 58,-1 0,8 -65,0 0,-18 -11,-18 -18,-11 -22,-4 -21,4 -15,11 -11,18 0,14 -18,0 -3,-25 14,-4 0,-61 181,-54z" /><path style="fill:#89a370" d="M195,188 l0,87 -11,0 0,7 -54,0 -4,11 58,-1 0,8 -65,0 0,-18 -11,-18 -18,-11 -22,-4 -21,4 -15,11 -11,18 0,14 -18,0 -3,-25 14,-4 0,-30 181,-49z" /><path style="fill:none;stroke:#4c4c4c;stroke-width:2" d="M14,79 l181,-47 0,243 -11,0 0,7 -54,0 -4,11 58,-1 0,8 -65,0 0,-18 -11,-18 -18,-11 -22,-4 -21,4 -15,11 -11,18 0,14 -18,0 -3,-25 14,-4 0,-108 7,-69 -3,0 -4,-11" /><path style="fill:#657f4c;stroke:#4c4c4c;stroke-width:2" d="M180,267 l80,0 0,44 -80,0 0,-44z" /><path style="fill:#7f9966" d="M184,271 l72,0 0,36 -72,0 0,-36z" /></svg>