<svg version="1.1" xmlns="http://www.w3.org/2000/svg" xmlns:xlink="http://www.w3.org/1999/xlink" width="28px" height="112px" viewBox="0 0 28.375 112.5" xml:space="preserve" enable-background="new 0 0 28.375 112.5">
<g id="Group_LeftArm">
	<path d="M27.699,37.727l-0.338-7.657l-2.139-7.206l-2.815-1.802   L21.91,20.9c-0.806,3.017,0.188,6.309,0.977,9.21l-0.142-1.729l0.147,1.75c0.104,0.38,0.204,0.755,0.295,1.119   c-0.091-0.364-0.191-0.739-0.295-1.119l0.754,8.948l0.225,7.319l1.464,10.134l-0.676,1.801l-0.563,3.603v4.842l3.041-4.166   l0.563-5.742l0.563-10.922L27.699,37.727z" fill="#996633" stroke="#4C4C4C" stroke-width="0.25" />
</g>
<g id="Group_Neck">
	<path d="M16.891,19.261l-1.127-2.252H11.71l-1.126,2.815L9.488,20.25   c2.222,1.792,6.727,2.083,10.432,0L16.891,19.261z" fill="#996633" stroke="#4C4C4C" stroke-width="0.25" />
</g>
<g id="Group_RightArm">
	<path d="M6.509,21.409l-2.005,0.78l-2.252,4.166l-1.239,5.18v7.432   L0.45,44.708L0.113,58.221l0.45,4.053l1.239,3.379l2.477,1.689v-4.167l-0.563-4.842l1.576-14.976l0.226-9.008l1.084-3.705   c-0.128,0.2-0.261,0.401-0.415,0.606c0.154-0.205,0.286-0.406,0.415-0.606l0.267-0.911l-0.02,0.497   C8.619,27.103,7.437,24.519,6.509,21.409z" fill="#996633" stroke="#4C4C4C" stroke-width="0.25" />
</g>
<g id="Group_LeftLeg">
	<path d="M21.169,90.23v-4.615l0.788-4.504l0.676-11.936l0.135-2.926   c-2.721,0-6.131,0-8.896,0l0.203,0.447l0.563,8.445l-0.113,10.811l0.113,8.445l1.689,12.273l-1.239,4.615l0.563,1.127l2.928,1.238   h3.378l1.238-1.238l-2.928-5.18L21.169,90.23z" fill="#996633" stroke="#4C4C4C" stroke-width="0.25" />
</g>
<g id="Group_RightLeg">
	<path d="M5.048,66.25l-0.093,3.826l1.689,15.426l-0.563,4.617v17.227   l-1.126,2.816l-1.689,1.688l0.563,1.24h4.616l2.815-2.252l-0.563-3.492l-0.563-2.928l2.815-19.592l0.54-18.576   c-0.099,0-0.205,0-0.302,0C10.772,66.25,7.716,66.25,5.048,66.25z" fill="#996633" stroke="#4C4C4C" stroke-width="0.25" />
</g>
<g id="Group_BackHair">
	<path d="M20.493,11.041l-0.901,8.67l-0.787-0.676l-0.226,0.676h-1.014l-1.351-1.239   l-0.338-1.239l2.252-4.729L20.493,11.041z" stroke="#4C4C4C" stroke-width="0.25" />
	<path d="M7.319,11.041l1.126,9.346l0.226-0.675l0.225,0.675h0.901v-1.238l0.563,1.238   l2.364-5.743L7.319,11.041z" stroke="#4C4C4C" stroke-width="0.25" />
</g>
<g id="Group_Face">
	<path d="M18.691,13.068H9.233l-1.239-1.013l-0.676-1.126V9.802   l0.676-1.126H19.93l0.563,1.126v1.126l-0.563,1.126L18.691,13.068z" fill="#996633" stroke="#4C4C4C" stroke-width="0.25" />
	<ellipse cx="13.85" cy="10.365" rx="5.631" ry="7.431" fill="#996633" stroke="#4C4C4C" stroke-width="0.25" />
	<path d="M13.85,12.955l1.576,0.451h-3.265L13.85,12.955z" fill="#663333" />
	<path d="M12.161,14.982l-0.45-0.45h4.167l-0.451,0.45H12.161z" fill="#B27F7F" />
	<path d="M11.71,14.532h4.167" fill="none" stroke="#CC9999" stroke-width="0.25" />
	<path d="M17.34,8.451l-2.814-0.338l0.225,0.338l2.703,0.338L17.34,8.451z" />
	<path d="M10.359,8.451l2.815-0.338l-0.338,0.338l-2.703,0.338L10.359,8.451z" />
	<path d="M11.485,10.816h0.45l0.225-0.676l-0.225-0.675h-0.45L11.26,10.14L11.485,10.816z" />
	<path d="M15.651,10.816h0.45l0.226-0.676l-0.226-0.675h-0.45l-0.226,0.675L15.651,10.816z" />
</g>
<g id="Group_TopHair">
	<path d="M10.134,3.497l1.352-2.815l1.351-0.676h1.914l1.352,0.676   l1.127,2.815H10.134z" fill="#333333" stroke="#4C4C4C" stroke-width="0.25" />
	<path d="M8.445,9.915l-0.45-1.464L7.319,9.915l0.676-4.617l1.576-2.364   l1.915-0.901l2.364-0.225l2.252,0.225l1.914,0.901l1.465,2.477l1.013,4.504l-0.676-1.464l-0.45,1.464l-0.9-3.716L17.453,4.96   l-1.914-0.45H11.71L9.909,4.848L9.121,6.199L8.445,9.915z" fill="#333333" stroke="#4C4C4C" stroke-width="0.25" />
</g>
<g id="Group_Dress">
	<path d="M0.113,52.252L0,44.483l0.788-11.71l1.014-5.292l1.576-4.617   l1.577-1.126l5.292-1.802l1.914,1.126h4.167l2.14-1.464l4.729,1.464l2.478,2.139l2.026,7.207l0.226,9.796l0.45,4.504L28.15,49.1   l-3.941,0.788l-0.563-3.604l-1.014-13.962l0.788,24.546l0.226,3.604l-0.338,10.81L23.195,86.82l-4.616,0.901l-5.067-0.563   l-5.855,0.676l-3.828-0.112l0.563-12.948l0.563-15.314l-0.338-1.352l1.576-18.354v-6.869L5.18,45.046l-0.563,7.77L0.113,52.252z" fill="#FFCCE5" stroke="#4C4C4C" stroke-width="0.25" />
	<path d="M8.558,72.971l-2.14,2.703l-2.026-3.49l2.927-1.127L5.18,68.805l3.378-1.352l0.45,2.928l2.14-1.688   l1.351,3.153L9.684,72.07l2.14,1.802l-2.928,2.026L8.558,72.971z" fill="#E5E5B2" />
	<path d="M18.917,83.781l-2.14,2.701l-2.027-3.377l2.928-1.238l-2.139-2.141l3.378-1.351l0.45,2.815   l2.14-1.689l1.351,3.152l-2.814,0.338l2.139,1.802l-2.928,1.915L18.917,83.781z" fill="#E5E5B2" />
	<path d="M19.48,60.248l-2.252,2.701l-1.915-3.377l2.928-1.239l-2.14-2.252l3.379-1.239l0.449,2.816   l2.141-1.69l1.351,3.153l-2.815,0.226l2.14,1.802l-2.928,2.026L19.48,60.248z" fill="#E5E5B2" />
	<path d="M8.445,52.027l-2.139,2.815l-1.014-2.139l0.226-1.689l1.801-0.901l-1.801-2.139l3.04-1.352   l0.45,2.815l2.14-1.576l1.351,3.153l-2.815,0.225l2.027,1.802l-2.815,1.914L8.445,52.027z" fill="#E5E5B2" />
	<path d="M17.791,42.569l-2.14,2.703l-1.914-3.378l2.928-1.239l-2.14-2.139l3.378-1.351l0.338,2.815   l2.14-1.689l1.352,3.265l-2.703,0.225l2.027,1.802l-2.815,1.914L17.791,42.569z" fill="#E5E5B2" />
	<path d="M10.021,29.845l-2.14,2.815l-1.914-3.491l2.928-1.238l-2.14-2.14l3.378-1.351l0.451,2.815   l2.139-1.576l1.352,3.153l-2.815,0.225l2.14,1.802l-2.928,1.914L10.021,29.845z" fill="#E5E5B2" />
	<path d="M23.759,26.354l-2.252,2.703l-1.915-3.378l2.928-1.239l-2.139-2.139l2.928-1.126l0.9,2.59   l1.014-0.676l0.9,2.252l-1.238,0.112l2.139,1.802l-2.928,2.027L23.759,26.354z" fill="#E5E5B2" />
	<path d="M10.134,30.408l-1.689-2.477l2.14-0.901l1.464,2.252L10.134,30.408z" fill="#FFCCAB" />
	<path d="M23.759,26.917L22.07,24.44l2.139-1.013l1.464,2.252L23.759,26.917z" fill="#FFCCAB" />
	<path d="M17.903,43.132l-1.688-2.478l2.139-1.013l1.464,2.365L17.903,43.132z" fill="#FFCCAB" />
	<path d="M8.558,52.59l-1.689-2.477l2.139-0.901l1.464,2.252L8.558,52.59z" fill="#FFCCAB" />
	<path d="M19.48,60.811l-1.577-2.478l2.026-1.013l1.465,2.252L19.48,60.811z" fill="#FFCCAB" />
	<path d="M8.558,73.534l-1.577-2.478l2.14-1.014l1.351,2.252L8.558,73.534z" fill="#FFCCAB" />
	<path d="M18.917,84.344l-1.577-2.477l2.141-1.014l1.351,2.364L18.917,84.344z" fill="#FFCCAB" />
	<path d="M12.161,87.271l0.789-15.201h1.013l1.013,15.088l-1.576-0.112L12.161,87.271z" fill="#F2BFD8" />
</g>
</svg>