<svg version="1.1" xmlns="http://www.w3.org/2000/svg" xmlns:xlink="http://www.w3.org/1999/xlink" width="33px" height="112px" viewBox="0 0 33.336 112.5" xml:space="preserve" enable-background="new 0 0 33.336 112.5">
<g id="Group_LeftLeg">
	<path d="M25.678,86.712l0.433-13.935   c-2.848-0.178-5.694-0.354-8.542-0.492v0.913l1.127,11.148l-0.563,8.784l2.365,12.274l-1.239,4.729l0.563,1.239l2.928,1.126h3.604   l1.126-1.126l-2.928-5.293l1.127-14.753V86.712z" fill="#FFCC99" stroke="#4C4C4C" stroke-width="0.25" />
</g>
<g id="Group_RightLeg">
	<path d="M6.568,72.069l0.416,11.714L6.42,88.4l0.563,17.681l-1.239,2.929   l-1.689,1.688l0.563,1.239h4.729l2.928-2.365l-0.563-3.491v-1.239l-0.675-1.688l2.928-19.933l0.993-11.046   C12.162,72.069,9.365,72.022,6.568,72.069z" fill="#FFCC99" stroke="#4C4C4C" stroke-width="0.25" />
</g>
<g id="Group_LeftArm">
	<path d="M32.771,26.802l-2.365-5.18l-2.928-1.802l-0.274-0.085   c-0.494,4.445-0.843,8.861-0.614,13.162l0.326-5.419l0.563,8.784l-0.563,7.658l0.45,10.473l-0.563,5.856l0.676,4.729l2.252-0.563   l0.676-5.855v-3.604l2.365-11.712l0.563-6.982L32.771,26.802z" fill="#FFCC99" stroke="#4C4C4C" stroke-width="0.25" />
</g>
<g id="Group_RightArm">
	<path d="M4.055,20.383l-2.928,2.365l-1.126,5.293l0.45,9.459v6.982   l0.563,9.347l0.676,4.73l1.126,3.49l2.365,1.803v-4.167l1.126-1.126l-1.689-5.293l1.126-12.275v-5.292l0.676-7.658l0.248,2.08   c0-3.466,0-6.932,0-10.398L4.055,20.383z" fill="#FFCC99" stroke="#4C4C4C" stroke-width="0.25" />
</g>
<g id="Group_Neck">
	<path d="M22.289,18.217l-2.468-0.762l-1.126-2.365h-4.054l-1.239,2.928   l-1.926,0.487C14.55,22.449,20.709,22.019,22.289,18.217z" fill="#FFCC99" stroke="#4C4C4C" stroke-width="0.25" />
</g>
<g id="Group_Shoes">
	<path d="M28.042,111.938v-1.239l-1.689-1.688l-1.239-2.929h-3.49   l-1.689-1.802l-0.112,3.49l-0.563,1.803v1.126l0.563,1.239l2.364,0.563h5.293L28.042,111.938z" fill="#98B2B2" stroke="#4C4C4C" stroke-width="0.25" />
	<path d="M3.492,111.938v-1.239l1.689-1.688l1.239-2.929h3.491l1.689-1.802   l0.675,4.166l0.563,1.127l-1.802,1.126l-1.126,1.239L7.546,112.5H4.055L3.492,111.938z" fill="#98B2B2" stroke="#4C4C4C" stroke-width="0.25" />
</g>
<g id="Group_Belt">
	<path d="M6.983,52.14v-2.365h19.369v2.365H6.983z" fill="#B2CCCC" stroke="#4C4C4C" stroke-width="0.25" />
</g>
<g id="Group_BottomBody">
	<path d="M12.614,107.207l-1.802-1.126H6.083L5.52,90.203l0.563-6.982   L5.52,67.905l1.126-12.838l0.676-3.604l6.419-0.563l7.095,0.563h5.743l0.676,10.022l0.563,8.221l-1.238,14.64l0.676,7.657   l-1.238,14.641l-0.564-0.563h-4.616l-0.676,0.563L18.47,93.131l-0.563-9.348l-1.238-14.076l-1.126,13.514l-2.365,14.64   L12.614,107.207z" fill="#B2CCCC" stroke="#4C4C4C" stroke-width="0.25" />
	<path d="M16.668,69.145l-1.126,12.274l-2.365,15.878l-0.563,6.982l-0.675-5.293v-9.91l3.041-12.387   l0.563-5.855v-4.055v-2.365l0.563-10.585v10.023l0.563,3.49l2.365-4.166l-1.127,5.293l1.127,5.855l0.563,14.752l0.563,10.473   l1.802,4.73l-1.802,0.563l-1.126-7.545l-1.127-15.314L16.668,69.145z" fill="#98B2B2" />
</g>
<g id="Group_UpperBody">
	<path d="M6.42,35.022l-3.604-6.419l-2.815-2.365v-2.252l4.054-4.167   l9.347-2.365l0.563-1.689l1.239,2.252h2.928l1.126-2.252l1.239,1.689l7.545,2.365l2.928,1.802l1.802,3.491v2.365l-2.365,1.689   l-3.49,6.532l-0.563,2.928v4.617l-0.675,2.365l0.675,1.802v1.126l-0.675,1.239H7.546l-0.563-0.676l0.563-3.153l-0.563-0.901   l0.563-2.928L6.42,35.022z" fill="#B2CCCC" stroke="#4C4C4C" stroke-width="0.25" />
	<path d="M4.619,32.095l1.689,2.928l0.676,1.802v-5.856l-1.239-3.491l0.563,5.292L4.619,32.095z" fill="#98B2B2" />
	<path d="M25.113,28.041l0.564,5.293l-0.564,1.126l1.239,4.167l0.563-2.928l1.126-0.676V32.77l-1.126,1.126   v-8.784l-0.563,5.292L25.113,28.041z" fill="#98B2B2" />
	<path d="M7.546,48.536l9.347-0.563H8.672L7.546,48.536z" fill="#98B2B2" />
	<path d="M25.113,47.973l-9.346,0.563l9.911,0.563L25.113,47.973z" fill="#98B2B2" />
</g>
<g id="Group_Stethoscope">
	<path d="M20.497,46.847l-1.239-2.365l1.239-2.365l1.126,2.365   L20.497,46.847z" fill="#FFFFFF" stroke="#4C4C4C" stroke-width="0.25" />
	<path d="M20.497,39.752v2.928l0.563,0.563v-2.928l0.563-5.293v-5.18l-0.563-5.856   l0.563-5.968l-1.689-1.689h-0.676l0.676,0.563l1.127,1.802l-0.563,5.292l0.563,5.856v5.18L20.497,39.752z" stroke="#4C4C4C" stroke-width="0.25" />
	<path d="M12.839,39.752h0.563l0.563,5.292l-0.563,2.928l-1.802,0.563v-0.563   l1.239-0.563l0.563-2.365l-0.563-4.729h-0.563l-0.675-5.293v-5.18l0.675-5.856l-0.675-5.968l1.802-1.689h0.563l-0.563,0.563   l-1.126,1.802l0.563,5.292l-0.563,5.856v5.18L12.839,39.752z" stroke="#4C4C4C" stroke-width="0.25" />
	<path d="M12.164,39.527L11.15,40.09l2.14,4.842l1.915,2.252l1.802-0.338   l-0.338-0.563l-1.239,0.113l-1.689-1.802l-1.802-4.279l0.45-0.338L12.164,39.527z" fill="#4C4C4C" stroke="#4C4C4C" stroke-width="0.25" />
</g>
<g id="Group_Face">
	<path d="M21.51,11.036h-9.459l-1.126-0.901l-0.676-1.126V7.883   l0.676-1.126h11.824l0.676,1.126v1.126l-0.676,1.126L21.51,11.036z" fill="#FFCC99" stroke="#4C4C4C" stroke-width="0.25" />
	<ellipse cx="16.781" cy="8.333" rx="5.63" ry="7.32" fill="#FFCC99" stroke="#4C4C4C" stroke-width="0.25" />
	<path d="M16.668,10.923l1.576,0.451h-3.153L16.668,10.923z" fill="#E5B27F" />
	<path d="M15.091,13.063l-0.45-0.45h4.167l-0.563,0.45H15.091z" fill="#E5B2B2" />
	<path d="M14.641,12.613h4.167" fill="none" stroke="#CC99B2" stroke-width="0.25" />
	<path d="M20.159,6.532l-2.815-0.338l0.225,0.338l2.816,0.338L20.159,6.532z" />
	<path d="M13.177,6.532l2.815-0.338l-0.225,0.338L13.064,6.87L13.177,6.532z" />
	<path d="M14.416,8.896h0.451l0.225-0.676l-0.225-0.676h-0.451L14.19,8.221L14.416,8.896z" />
	<path d="M18.582,8.896h0.451l0.225-0.676l-0.225-0.676h-0.451l-0.225,0.676L18.582,8.896z" />
</g>
<g id="Group_Hair">
	<path d="M11.375,7.996l-0.45-1.464l-0.676,1.464l0.676-5.068l1.577-1.914   l1.914-0.901L16.668,0l2.365,0.113l1.801,0.901l1.577,1.914l1.014,5.068l-0.788-1.464l-0.451,1.464l-0.9-3.716l-0.9-1.352   l-0.226-0.45l-0.45,0.901l-5.293,0.676h-2.14l-0.225,0.225L11.375,7.996z" fill="#996633" stroke="#4C4C4C" stroke-width="0.25" />
	<path d="M19.709,3.378l0.45-2.365h0.226v1.914l-0.226-0.45L19.709,3.378z" />
</g>
<g id="Group_Cap">
	<path d="M12.276,5.63L11.15,6.532l-0.676,1.464l0.338-2.815l0.338-2.252   l1.577-1.914l1.915-0.901L16.893,0l2.365,0.113l1.803,0.901l1.576,1.914l0.45,2.252l0.563,2.815l-0.789-1.464l-0.9-0.676   l-0.9-0.676l-1.127-0.45L18.02,4.504h-2.027l-2.027,0.451L12.276,5.63z" fill="#B2CCCC" stroke="#4C4C4C" stroke-width="0.25" />
	<path d="M11.375,4.73l1.802-3.266l3.491-1.126l2.928,0.45l2.365,1.689l0.225,2.252l-0.787-2.027   l-2.365-1.464l-0.563,2.14l-0.226-2.365l-1.576-0.226L13.74,1.915L11.375,4.73z" fill="#98B2B2" />
</g>
</svg>