<svg version="1.1" xmlns="http://www.w3.org/2000/svg" xmlns:xlink="http://www.w3.org/1999/xlink" width="33px" height="112px" viewBox="0 0 33.443 112.5" xml:space="preserve" enable-background="new 0 0 33.443 112.5">
<g id="Group_LeftArm">
	<path d="M32.769,26.916l-2.365-5.292l-2.445-1.411   c-0.283,3.218-0.581,6.416-0.896,9.594l0.413,6.455l-0.563,7.657l1.801,9.91l-0.563,5.855l1.126,3.604l1.802,0.563l0.563-5.855   v-3.604l1.239-11.148l0.563-6.982L32.769,26.916z" fill="#996633" stroke="#4C4C4C" stroke-width="0.25" />
</g>
<g id="Group_Neck">
	<path d="M22.916,18.438l-2.985-0.98l-1.238-2.252h-4.054l-1.162,2.746   C16.623,17.674,19.77,18.309,22.916,18.438z" fill="#996633" stroke="#4C4C4C" stroke-width="0.25" />
</g>
<g id="Group_RightArm">
	<path d="M4.054,20.385L1.126,22.75L0,28.042l0.563,9.459L0,43.356   l0.563,10.473l0.563,4.729l1.126,3.49l1.802,1.803l0.563-4.167l1.239-1.126l-1.802-5.292l1.802-12.274v-5.292l0.563-7.657   l0.268,2.247c-0.106-3.265-0.702-6.773-1.221-10.244L4.054,20.385z" fill="#996633" stroke="#4C4C4C" stroke-width="0.25" />
</g>
<g id="Group_LeftLeg">
	<path d="M25.786,91.326v-4.729l0.557-21.348c-2.924,0-5.858,0-8.776,0   v7.947l1.126,11.148l-0.563,8.783l2.365,12.273l-1.126,4.729l0.563,1.126l2.928,1.238h3.491l1.126-1.238l-2.928-5.293   L25.786,91.326z" fill="#996633" stroke="#4C4C4C" stroke-width="0.25" />
</g>
<g id="Group_RightLeg">
	<path d="M6.418,67.904L6.982,83.67l-0.563,4.729l0.563,17.566   l-1.126,2.929l-1.802,1.802l0.563,1.126h4.729l2.928-2.253l-0.563-3.604l-0.563-2.928l2.928-19.931l1.514-17.856   c-3.005,0-5.978,0-8.889,0L6.418,67.904z" fill="#996633" stroke="#4C4C4C" stroke-width="0.25" />
</g>
<g id="Group_Belt">
	<path d="M6.982,52.14v-2.365H26.35v2.365H6.982z" fill="#99CC99" stroke="#4C4C4C" stroke-width="0.25" />
</g>
<g id="Group_Shoes">
	<path d="M28.152,111.821v-1.126l-1.802-1.802l-1.126-2.929H21.62   l-1.689-1.688v3.491l-0.563,1.801v1.127l0.563,1.126l2.365,0.675h5.292L28.152,111.821z" fill="#99CC99" stroke="#4C4C4C" stroke-width="0.25" />
	<path d="M3.49,111.821v-1.126l1.802-1.802l1.126-2.929h3.491l1.802-1.688   l0.563,4.054l0.563,1.238l-1.689,1.127l-1.238,1.126l-2.365,0.675h-3.49L3.49,111.821z" fill="#99CC99" stroke="#4C4C4C" stroke-width="0.25" />
</g>
<g id="Group_LowerBody">
	<path d="M12.274,107.204l-1.802-1.239H5.856L5.18,90.201l0.676-7.095   L5.18,67.904l1.238-12.836l0.563-3.604l6.418-0.563l7.095,0.563h5.855l0.563,10.022l0.563,8.221L26.35,84.346l0.563,7.544   l-1.127,14.751l-0.563-0.676h-4.729l-0.563,0.676l-1.802-13.512l-0.563-9.459l-1.239-13.963l-1.126,13.399l-2.364,14.64   L12.274,107.204z" fill="#99CC99" stroke="#4C4C4C" stroke-width="0.25" />
	<path d="M16.327,69.144l-1.126,12.274l-2.364,15.764l-0.563,7.095l-0.563-5.292V88.962l2.928-12.274   l0.563-5.855v-4.053v-2.365l0.563-10.585v10.022l0.563,3.49l2.365-4.166l-1.126,5.292l1.126,5.855l0.676,14.639l0.563,10.585   l1.689,4.729l-1.689,0.563l-1.238-7.658L17.567,81.98L16.327,69.144z" fill="#7FB27F" />
</g>
<g id="Group_UpperBody">
	<path d="M6.418,35.136l-3.49-6.418L0,26.353v-2.365l4.054-4.167   L13.4,17.57l0.676-1.802l1.126,2.365h2.928l1.239-2.365l1.126,1.802l7.657,2.252l2.928,1.802l1.689,3.491v2.365l-2.365,1.802   l-3.49,6.418l-0.563,2.928v4.617l-0.563,2.365l0.563,2.928l-0.563,1.238H7.544L6.982,49.1l0.563-3.153l-0.563-0.901l0.563-2.928   L6.418,35.136z" fill="#99CC99" stroke="#4C4C4C" stroke-width="0.25" />
	<path d="M4.616,32.208l1.802,2.928l0.563,1.689V30.97l-1.126-3.491l0.563,5.292L4.616,32.208z" fill="#7FB27F" />
	<path d="M25.112,28.042l0.675,5.292l-0.563,1.239l1.126,4.054l0.563-2.928l1.238-0.563v-2.365l-1.238,1.126   v-8.784l-0.563,5.292L25.112,28.042z" fill="#7FB27F" />
	<path d="M7.544,48.537l9.459-0.563h-8.22L7.544,48.537z" fill="#7FB27F" />
	<path d="M25.224,47.974l-9.459,0.563L25.786,49.1L25.224,47.974z" fill="#7FB27F" />
</g>
<g id="Group_Stethoscope">
	<path d="M12.837,39.753H13.4l0.676,5.292L13.4,47.974l-1.688,0.563v-0.563l1.126-0.563   l0.563-2.365l-0.563-4.729h-0.563l-0.563-5.18v-5.292l0.563-5.855l-0.563-5.855l1.688-1.802h0.676L13.4,16.894l-1.126,1.802   l0.563,5.292l-0.563,5.855v5.292L12.837,39.753z" stroke="#4C4C4C" stroke-width="0.25" />
	<path d="M12.161,39.528l-1.014,0.563l2.14,4.842l2.027,2.252l1.688-0.338   l-0.225-0.563l-1.352,0.113l-1.576-1.802l-1.915-4.279l0.563-0.338L12.161,39.528z" fill="#4C4C4C" stroke="#4C4C4C" stroke-width="0.25" />
	<path d="M20.494,46.847l-1.126-2.364l1.126-2.365l1.238,2.365   L20.494,46.847z" fill="#FFFFFF" stroke="#4C4C4C" stroke-width="0.25" />
	<path d="M20.494,39.753v2.928l0.563,0.563v-2.928l0.563-5.18v-5.292l-0.563-5.855   l0.563-5.855l-1.689-1.802h-0.675l0.675,0.563l1.126,1.802l-0.563,5.292l0.563,5.855v5.292L20.494,39.753z" stroke="#4C4C4C" stroke-width="0.25" />
</g>
<g id="Group_Face">
	<path d="M21.508,11.151h-9.347l-1.238-1.014l-0.676-1.126V7.886   l0.676-1.126h11.823l0.676,1.126v1.126l-0.676,1.126L21.508,11.151z" fill="#996633" stroke="#4C4C4C" stroke-width="0.25" />
	<ellipse cx="16.779" cy="8.449" rx="5.63" ry="7.319" fill="#996633" stroke="#4C4C4C" stroke-width="0.25" />
	<path d="M16.779,11.039l1.576,0.451h-3.266L16.779,11.039z" fill="#663300" />
	<path d="M15.089,13.065l-0.45-0.45h4.166l-0.45,0.45H15.089z" fill="#B27F7F" />
	<path d="M14.639,12.615h4.166" fill="none" stroke="#CC99B2" stroke-width="0.25" />
	<path d="M20.156,6.647l-2.702-0.45l0.225,0.45l2.703,0.225L20.156,6.647z" fill="#663300" />
	<path d="M13.287,6.647l2.815-0.45l-0.338,0.45l-2.702,0.225L13.287,6.647z" fill="#663300" />
	<path d="M14.413,8.899h0.45l0.226-0.675l-0.226-0.676h-0.45l-0.225,0.676L14.413,8.899z" fill="#663300" />
	<path d="M18.58,8.899h0.45l0.226-0.675l-0.226-0.676h-0.45l-0.226,0.676L18.58,8.899z" fill="#663300" />
</g>
<g id="Group_Hair">
	<path d="M11.373,7.999l-0.45-1.352l-0.676,1.352l0.676-5.067l1.688-1.802   l1.802-1.014l2.365-0.112l2.252,0.112l1.802,1.014l1.688,1.802l0.901,5.067l-0.676-1.352l-0.45,1.352l-0.901-3.716l-1.013-1.351   L20.156,2.48l-0.45,0.901l-5.293,0.676h-2.026l-0.226,0.225L11.373,7.999z" fill="#333333" stroke="#4C4C4C" stroke-width="0.25" />
	<path d="M19.706,3.381l0.45-2.252h0.226v1.802L20.156,2.48L19.706,3.381z" />
</g>
<g id="Group_Cap">
	<path d="M12.387,5.746l-1.239,0.901l-0.676,1.352l0.338-2.703l0.338-2.365   l1.689-1.802l1.802-1.014l2.364-0.112l2.253,0.112l1.801,1.014l1.689,1.802l0.338,2.252l0.563,2.815l-0.676-1.352l-0.901-0.676   l-1.014-0.788l-1.126-0.45l-1.802-0.226H15.99l-2.027,0.451L12.387,5.746z" fill="#99CC99" stroke="#4C4C4C" stroke-width="0.25" />
	<path d="M11.373,4.733l1.914-3.153l3.378-1.238l2.928,0.45l2.365,1.689l0.338,2.252l-0.788-2.027   l-2.478-1.352l-0.45,2.027l-0.338-2.252l-1.577-0.338L13.851,2.03L11.373,4.733z" fill="#7FB27F" />
</g>
</svg>