<svg version="1.1" xmlns="http://www.w3.org/2000/svg" xmlns:xlink="http://www.w3.org/1999/xlink" width="56px" height="112px" viewBox="0 0 55.965 112.5" xml:space="preserve" enable-background="new 0 0 55.965 112.5">
<g id="Group_Grou_LeftHandle">
	<path d="M55.29,59.459l0.676-8.896v-21.17l-0.676-4.729h-4.729   l-0.563,4.729v21.17l0.563,8.896H55.29z" fill="#F2E5CC" stroke="#4C4C4C" stroke-width="0.25" />
	<path d="M53.601,65.878l1.126-1.126l0.563-27.139l-0.563-18.805   l-1.126-1.126h-1.239l-1.125,1.126l-0.676,18.805l0.676,27.139l1.125,1.126H53.601z" fill="#98B27F" stroke="#4C4C4C" stroke-width="0.25" />
</g>
<g id="Group_RightHandle">
	<path d="M5.855,35.249v23.534H0V35.249H5.855z" fill="#E5E0D6" stroke="#4C4C4C" stroke-width="0.25" />
	<path d="M8.22,59.459l0.563-8.896v-21.17L8.22,24.664H3.491l-0.563,4.729   v21.17l0.563,8.896H8.22z" fill="#F2E5CC" stroke="#4C4C4C" stroke-width="0.25" />
	<path d="M6.418,65.878l1.239-1.126L8.22,37.613L7.657,18.808l-1.239-1.126   H5.292l-1.239,1.126L3.491,37.613l0.563,27.139l1.239,1.126H6.418z" fill="#98B27F" stroke="#4C4C4C" stroke-width="0.25" />
</g>
<g id="Group_LegRest">
	<path d="M48.083,80.066v7.094H12.162v-7.094H48.083z" fill="#7F7F7F" />
	<path d="M29.391,107.992l18.242-0.563l0.675-1.802V88.625l-1.238-2.928   l-1.802-1.127H29.391H13.513l-1.802,1.127l-1.126,2.928v17.003l0.563,1.802L29.391,107.992z" fill="#B2CCCC" stroke="#4C4C4C" stroke-width="0.25" />
</g>
<g id="Group_Bed">
	<path d="M26.462,69.481l1.239-10.698l-0.675-6.418l-0.563,11.261V69.481z" fill="#98B2B2" />
	<path d="M32.43,31.758l-1.238,17.454l0.563,10.811l0.675-18.58V31.758z" fill="#98B2B2" />
	<path d="M51.799,27.028v30.63H6.418v-30.63H51.799z" fill="#7F7F7F" />
	<path d="M44.706,1.692v6.982H13.513V1.692H44.706z" fill="#E5E0D6" stroke="#4C4C4C" stroke-width="0.25" />
	<path d="M49.434,9.349v75.334H9.346V9.349H49.434z" fill="#333333" />
	<path d="M29.391,86.484l18.242-0.563l0.675-1.802l-0.675-28.264   l0.675-27.026L47.633,8.11L47.07,5.183l-1.802-1.126H35.02l-9.796-0.563L13.513,4.057l-1.802,1.126L11.148,8.11l-0.563,20.72   l0.563,27.026L10.585,84.12l0.563,1.802L29.391,86.484z" fill="#B2CCCC" stroke="#4C4C4C" stroke-width="0.25" />
	<path d="M3.491,1.692H55.29V0.003H3.491V1.692z" fill="#996633" stroke="#4C4C4C" stroke-width="0.25" />
</g>
<g id="Group_Body">
	<path d="M35.921,102.024l-2.815-0.788v-1.352l2.141-0.676l0.675-4.166l0.676,4.166l2.14,0.676l1.352,0.676   l-0.676,0.676L35.921,102.024z" fill="#FAFAFA" />
	<path d="M25.449,97.07l0.676-1.352l1.464-4.166l-1.464-4.279l-3.491-6.307l-3.491-4.842l-1.351,0.676   l0.675,3.49l5.518,6.307l2.14,3.49l-0.676,2.815l-2.815,2.815v2.027L25.449,97.07z" fill="#FAFAFA" />
	<path d="M35.358,78.603l0.901,1.688l0.788-3.49V66.328l-0.788-4.842l-3.94-2.815l3.152,0.676l-2.365-3.491   h-8.558l-2.478,4.167l-3.941,6.981l-1.464,4.279l0.675,1.352h2.365l3.941-4.167l0.788-4.167l-0.788-2.59l3.941,2.59h1.576   l0.789,1.352l2.477,4.504l0.676,4.617L35.358,78.603z" fill="#FAFAFA" />
	<path d="M22.972,55.405l3.153-0.675l6.418-2.14l3.041-2.14l0.9-4.842l-5.631-2.139h3.266l2.365,0.675   l-2.365-2.027l-4.842-0.675h3.941l4.054,0.675l2.364-2.139v-2.027l-2.364-2.928l-4.054-0.563h-8.671l-3.266,0.563l-1.577,2.14v5.63   l1.577,8.333l4.842-0.676l-4.279,2.027L22.972,55.405z" fill="#FAFAFA" />
</g>
<g id="Group_Bedsheet">
	<path d="M10.36,111.821l-0.676-2.59L9.009,87.048l1.351-23.422V49.325   l-0.676-9.009l1.915-2.703l4.617-0.675l6.531-3.153l7.77-0.676l7.095,1.351l2.702,2.478l5.743,0.675l2.702,3.266l0.563,14.301   l-1.239,11.711l0.676,19.593v22.071l-1.351,3.266l-11.712,0.676H20.044L10.36,111.821z" fill="#F2F2F2" stroke="#4C4C4C" stroke-width="0.25" />
	<path d="M10.81,107.655l1.239-42.565l-0.563-26.012l-0.676,44.93V107.655z" fill="#E5E5E5" />
	<path d="M46.282,107.205l1.126-39.525l-0.563-24.21l-0.563,41.777V107.205z" fill="#E5E5E5" />
	<path d="M15.652,42.568l3.491-1.352l1.464-4.166l-2.815,3.491l-4.955,2.027H15.652z M30.292,107.655   l3.49-4.279h3.491l5.63,3.491l-5.63-1.352l1.464,3.49l-1.464-0.676l-2.702-2.814L30.292,107.655z M31.643,102.024h-2.027   l-2.027-1.464l-2.815,0.676l2.815-2.703l1.351-4.166h2.14l2.702-2.814l-2.139,4.166l-2.027,0.676v2.139l2.814-0.787l1.352-2.027   l-1.352,3.49l-2.139,1.352L31.643,102.024z M19.819,97.07l2.815-4.167v-5.63l-2.139-2.703v2.703l-3.491,2.814l-3.491,0.789h4.955   l2.815-2.14l-0.788,4.166l-2.703,3.491l-4.955,2.139l5.63-0.787l0.676,2.139l2.815,1.352L19.819,97.07z M25.449,83.106l2.703,4.167   l2.14-0.676l0.788-2.815v-6.981l-2.14,7.77h-1.351L25.449,83.106z M40.088,67.004l-2.14-0.676l-2.027-3.49l2.815,2.814l3.378,1.352   H40.088z M40.088,74.098l-2.14-0.676l-2.027-3.49l2.815,2.703l3.378,1.463H40.088z M40.764,82.432l-2.027-0.676l-2.027-3.491   l2.703,2.702l3.49,1.465H40.764z M41.551,85.922l-2.139-0.676l-2.027-3.49l2.815,2.814l3.378,1.352H41.551z M35.921,60.811   l3.491,0.676l-2.14-0.676l-0.676-1.464l0.676-2.026l4.954,0.675l-4.954-2.139l-0.676-0.676h2.815l-1.352-0.676v-1.464l5.518,0.789   l-3.49-1.352l-2.027-2.928l1.352,0.788h6.981l-3.491-0.788h-2.814l-2.815-2.703l-0.676,3.491l-1.351,5.518L35.921,60.811z    M27.251,78.603l-2.59-0.676l-4.617-3.153l2.703-0.676l3.153-2.026l0.676-3.829l-0.676-1.914l2.027,1.914l2.59,1.914l-1.352,2.591   l-2.589,1.351h3.265l1.352-0.676l-2.027,1.915l-2.589,0.676l3.265,0.675l1.352-0.675l-2.027,1.914L27.251,78.603z M16.328,53.041   l2.139-0.563l2.14-3.491l-2.815,2.703l-3.491,1.351H16.328z M17.116,49.55l2.027-0.676l2.815-4.166l-4.167,2.815l-4.955,2.027   H17.116z M15.652,58.671l4.167-1.351l2.14-3.491l-2.815,2.702l-6.981,2.14H15.652z M18.017,58.445l1.577-0.563l1.689-2.703   l-2.252,2.14l-2.703,1.125H18.017z M15.089,77.589l0.563-4.278l6.306-14.64l-2.815,2.815l-4.842,2.027l4.054,0.225l-4.054,11.035   L15.089,77.589z" fill="#E5E5E5" />
	<path d="M15.202,39.979l-2.365,0.225l-2.815,3.041v0.675l2.815-3.153L15.202,39.979z" fill="#CCCCCC" />
	<path d="M43.579,40.316l2.252,0.113l2.703,3.041l-0.113,0.675l-2.59-3.153L43.579,40.316z" fill="#CCCCCC" />
	<path d="M19.706,38.627l3.491-1.689l5.968-0.563l6.531,0.45l2.59,1.239l1.127,1.014l-1.802-1.014   l-3.491-1.239l-6.531-0.112l-4.842,0.563L19.706,38.627z" fill="#CCCCCC" />
</g>
<g id="Group_Hands">
	<path d="M43.466,36.375l-1.239-1.915l-0.676-2.027l-1.914-1.239   l-7.207-1.351l-0.563-1.352h-4.617l-0.676,1.352l-7.094,1.351l-2.59,2.59l-1.352,3.828l-0.675,5.293l0.675,6.418v6.531l3.941,0.675   v-7.77l-0.45-5.855l1.013-7.883l2.703-1.238l7.77-0.676l7.095,1.351l2.026,3.153l-0.676,6.531v5.18l-0.676,5.855l4.617-0.676v-5.18   l0.563-8.446V36.375z" fill="#D8E5E5" stroke="#99CCCC" stroke-width="0.25" />
	<path d="M16.553,57.207l-1.014-0.676v-0.675l1.352-0.676h1.914   l0.676,1.351l-0.45,0.676l-0.226-0.676l-1.914-0.675L16.553,57.207z" fill="#A5B2B2" stroke="#4C4C4C" stroke-width="0.25" />
	<path d="M39.299,56.757l-1.014-0.901V55.18l1.352-0.676h3.266l0.226,1.014   l-0.563,0.901l-0.338-1.239l-2.59,0.676L39.299,56.757z" fill="#A5B2B2" stroke="#4C4C4C" stroke-width="0.25" />
	<path d="M39.637,55.856l-0.676,2.027v1.914l0.676-1.352h0.676v1.352v1.238   l0.563,0.676l0.675,0.676l0.676-1.352l0.676-2.59l-0.676-3.265L39.637,55.856z" fill="#996633" stroke="#4C4C4C" stroke-width="0.25" />
	<path d="M18.805,56.531l0.676,2.59l-0.676,0.676v2.59l-0.675,0.676   l-1.915-3.266v-1.238l0.676-2.703L18.805,56.531z" fill="#996633" stroke="#4C4C4C" stroke-width="0.25" />
	<path d="M38.512,54.842l0.563-5.63v-4.955l0.788-6.644l0.676,3.716l-0.226,4.617h1.014l-1.689,1.014   l0.338,5.405L38.512,54.842z" fill="#BFCCCC" />
	<path d="M19.143,54.167l-0.112-6.531l-0.451-5.18l0.563-4.167l-1.126,4.279l0.225,4.617h-1.013l1.238,0.676   l0.113,5.743L19.143,54.167z" fill="#BFCCCC" />
	<path d="M40.313,57.207l-0.676,1.126h0.789v2.478l0.787-3.49L40.313,57.207z" fill="#663300" />
	<path d="M18.017,57.545l-0.676,1.464l1.239,1.014l0.338-0.563L18.017,57.545z" fill="#663300" />
</g>
<g id="Group_Pillow">
	<path d="M45.831,23.087l-0.563,2.703l-30.629,0.112l-0.675-0.45   l-1.126-4.054V15.88l-0.451-6.531l1.126-4.054l2.365-0.676l30.179,0.338l1.126,3.604l-0.676,4.617v5.63L45.831,23.087z" fill="#F7F7F7" stroke="#4C4C4C" stroke-width="0.25" />
	<path d="M42.903,23.538l1.239-10.585l-0.563-6.531l-0.676,11.261V23.538z" fill="#E5E5E5" />
	<path d="M20.044,25.339l13.4-1.126l3.379-6.081l3.49,0.675l-3.49-2.139l-1.576-2.815l2.252-4.392   L32.43,12.39l-4.391-1.464l-3.604,2.14l-1.464-1.464v1.464H18.58l5.855,2.928l-4.392,1.464l2.928,1.351l-1.351,1.577L20.044,25.339   z" fill="#E5E5E5" />
</g>
<g id="Group_Neck">
	<path d="M27.251,28.492l-0.676,1.352l1.351,1.351h2.59l1.914-1.351   l-0.563-1.352l-1.576,0.676h-1.689L27.251,28.492z" fill="#996633" stroke="#4C4C4C" stroke-width="0.25" />
	<path d="M27.251,28.492v0.676l1.239,0.676h2.026l1.352-0.676v-0.676l-1.576,0.789h-1.576L27.251,28.492z" fill="#663300" />
</g>
<g id="Group_HairBack">
	<path d="M35.696,22.75l-1.125,8.67l-0.113-0.675l-0.225,0.675h-0.901   v-2.815l-0.45,1.014l0.676-5.63L35.696,22.75z" fill="#191919" stroke="#4C4C4C" stroke-width="0.25" />
	<path d="M23.31,22.75l1.126,8.67l0.226-0.675l0.225,0.675h0.788v-2.815   l0.451,1.014l-0.676-5.63L23.31,22.75z" fill="#191919" stroke="#4C4C4C" stroke-width="0.25" />
</g>
<g id="Group_Face">
	<path d="M33.895,24.776h-8.784l-1.126-0.901l-0.563-1.126v-1.014   l0.563-1.013h11.148l0.563,1.013v1.014l-0.676,1.126L33.895,24.776z" fill="#996633" stroke="#4C4C4C" stroke-width="0.25" />
	<ellipse cx="29.502" cy="22.187" rx="5.293" ry="6.869" fill="#996633" stroke="#4C4C4C" stroke-width="0.25" />
	<path d="M29.391,24.664l1.576,0.338h-3.041L29.391,24.664z" fill="#663300" />
	<path d="M27.926,26.578l-0.45-0.45h3.941l-0.45,0.45H27.926z" fill="#E5B2B2" />
	<path d="M27.476,26.128h3.941" fill="none" stroke="#CC99B2" stroke-width="0.25" />
	<path d="M32.656,20.497l-2.59-0.337l0.226,0.337l2.59,0.226L32.656,20.497z" />
	<path d="M26.237,20.497l2.589-0.337l-0.337,0.337l-2.478,0.226L26.237,20.497z" />
	<path d="M27.251,22.637h0.45l0.225-0.563h-0.225h-0.45h-0.225L27.251,22.637z" />
	<path d="M31.192,22.637h0.451l0.112-0.563h-0.112h-0.451h-0.225L31.192,22.637z" />
	<path d="M32.092,28.042l0.676-0.788l0.676-1.577l0.338-1.014v-1.126l-0.563-0.901l-1.576-0.112v-0.338   l1.351-0.901l0.226-0.789l-0.226-1.801l-1.576-0.901h-0.788l2.026-1.464l1.915,3.378l0.112,1.802v1.915l-0.45,2.027l-0.901,1.689   L32.092,28.042z" fill="#663300" />
</g>
<g id="Group_HairTop">
	<path d="M24.436,22.299l-0.45-1.238l-0.563,1.238l0.563-4.729l1.576-1.802   l1.689-0.788l2.251-0.225l2.141,0.225l1.688,0.788l1.577,1.802l0.787,4.729l-0.676-1.238l-0.337,1.238l-0.901-3.491l-1.126-1.689   l0.226,2.14h-6.756l0.225-2.14l-1.239,1.689L24.436,22.299z" fill="#333333" stroke="#4C4C4C" stroke-width="0.25" />
</g>
</svg>