<svg version="1.1" xmlns="http://www.w3.org/2000/svg" xmlns:xlink="http://www.w3.org/1999/xlink" width="29px" height="112px" viewBox="0 0 28.943 112.5" xml:space="preserve" enable-background="new 0 0 28.943 112.5">
<g id="Group_LeftLeg">
	<path d="M23.005,73.555c-2.705-0.233-5.41-0.497-8.116-0.782l0.09,1.327   l1.126,10.923l0.226,8.333l1.464,12.162l-1.126,4.617l0.563,1.127l2.929,1.238h3.378l1.126-1.238l-2.815-5.068V86.938   L23.005,73.555z" fill="#996633" stroke="#4C4C4C" stroke-width="0.25" />
</g>
<g id="Group_RightLeg">
	<path d="M5.182,84.459l-0.563,4.617v17.117l-1.126,2.816l-1.689,1.688   l0.563,1.126h4.617l2.814-2.252l-0.563-3.379l-0.563-2.928l2.929-19.482l1.313-11.223c-2.733-0.298-5.467-0.61-8.2-0.93   L5.182,84.459z" fill="#996633" stroke="#4C4C4C" stroke-width="0.25" />
</g>
<g id="Group_LeftArm">
	<path d="M27.929,57.095l0.563-10.811l-0.563-8.221l-0.338-7.545   l-2.14-7.207l-2.024-1.295c-1.283,4.663-0.484,9.757-0.114,14.657l0.289-0.932l-0.515-6.912l0.563,6.757l-0.048,0.155l0.273,3.674   l0.338,7.32l0.788,9.797l0.226,2.815l-0.226,3.267l0.112,4.053l2.703-3.49l1.126-2.59L27.929,57.095z" fill="#996633" stroke="#4C4C4C" stroke-width="0.25" />
</g>
<g id="Group_Neck">
	<path d="M17.965,19.952l-0.734-0.245l-1.126-2.252h-3.941l-1.238,2.928   l-1.562,0.589C12.231,21.763,15.098,21.183,17.965,19.952z" fill="#996633" stroke="#4C4C4C" stroke-width="0.25" />
</g>
<g id="Group_RightArm">
	<path d="M4.956,22.635l-2.252,4.167l-1.239,5.18v7.32l-0.563,5.743   l-0.338,13.4l-0.563,3.83l1.126,3.49l2.478,1.689L3.83,63.4l0.112-3.378v-2.14l1.802-14.189L6.646,37.5l0.487-6.442   c-0.204-3.01-0.441-6.02-0.568-9.029L4.956,22.635z" fill="#996633" stroke="#4C4C4C" stroke-width="0.25" />
</g>
<g id="Group_Shoes">
	<path d="M25.339,111.824v-1.126l-1.802-1.688l-1.126-2.816h-3.379   l-1.688-1.801l-0.113,3.49l-0.563,1.689v1.126l0.563,1.126l2.365,0.676h5.18L25.339,111.824z" fill="#E5E5E5" stroke="#4C4C4C" stroke-width="0.25" />
	<path d="M1.24,111.824v-1.126l1.688-1.688l1.239-2.816h3.378l1.689-1.801   l0.563,4.053l0.563,1.127l-1.689,1.126l-1.126,1.126L5.294,112.5H1.803L1.24,111.824z" fill="#E5E5E5" stroke="#4C4C4C" stroke-width="0.25" />
</g>
<g id="Group_LowerBody">
	<path d="M9.461,104.504H6.984l-3.041,0.563V84.347L3.83,76.238   L3.492,64.302l1.352-10.135l1.576-3.829l4.843-0.563l6.193,0.45l5.631,0.113l2.252,7.996l-0.226,9.459l-2.026,11.486l0.563,6.757   l-1.238,18.468l-0.45-0.563H18.02l-0.563,0.563l-2.027-17.566l-0.563-8.334l-1.014-12.387l-1.014,11.937l-2.027,12.95   L9.461,104.504z" fill="#FFFFFF" stroke="#4C4C4C" stroke-width="0.25" />
	<path d="M13.853,65.766l-1.014,10.811l-2.027,13.965l-0.563,6.193l-0.563-4.617v-8.783l2.59-10.924   l0.563-5.18v-3.604V61.6l0.45-9.347v8.784l0.563,3.153l2.027-3.604l-1.014,4.617l1.014,5.18l0.563,12.951l0.45,9.233l1.577,4.167   l-1.577,0.563l-1.013-6.756L14.866,77.14L13.853,65.766z" fill="#CCCCCC" />
</g>
<g id="Group_HairBack">
	<path d="M20.834,11.599l-0.9,8.559l-0.901-0.563l-0.112,0.563h-1.014l-1.352-1.126   l-0.225-1.239l2.14-4.73L20.834,11.599z" stroke="#4C4C4C" stroke-width="0.25" />
	<path d="M7.659,11.599l1.238,9.234l0.226-0.676l0.225,0.676h0.901l-0.113-1.239   l0.676,1.239l3.604-3.716L7.659,11.599z" stroke="#4C4C4C" stroke-width="0.25" />
</g>
<g id="Group_Face">
	<path d="M19.032,13.514H9.573l-1.239-0.901l-0.675-1.126V10.36   l0.675-1.126h11.825l0.675,1.126v1.126l-0.675,1.126L19.032,13.514z" fill="#996633" stroke="#4C4C4C" stroke-width="0.25" />
	<ellipse cx="14.303" cy="10.811" rx="5.631" ry="7.32" fill="#996633" stroke="#4C4C4C" stroke-width="0.25" />
	<path d="M14.191,13.401l1.576,0.563h-3.153L14.191,13.401z" fill="#663333" />
	<path d="M12.614,15.541l-0.563-0.45h4.166l-0.45,0.45H12.614z" fill="#996666" />
	<path d="M12.051,15.09h4.166" fill="none" stroke="#CC9999" stroke-width="0.25" />
	<path d="M17.682,9.009l-2.815-0.338l0.225,0.338l2.703,0.337L17.682,9.009z" />
	<path d="M10.699,9.009l2.815-0.338l-0.338,0.338l-2.703,0.337L10.699,9.009z" />
	<path d="M11.825,11.374h0.563l0.112-0.676l-0.112-0.676h-0.563l-0.112,0.676L11.825,11.374z" />
	<path d="M15.992,11.374h0.45l0.226-0.676l-0.226-0.676h-0.45l-0.226,0.676L15.992,11.374z" />
</g>
<g id="Group_Hair">
	<path d="M8.785,10.473L8.334,9.122l-0.675,1.352l0.675-5.068l1.689-1.915   l1.802-0.9l2.365-0.226l2.252,0.226l1.802,0.9l1.689,1.915l0.9,5.068l-0.675-1.352l-0.451,1.352l-0.9-3.716l-1.239-1.802   l0.226,2.252h-7.095l0.226-2.252L9.573,6.757L8.785,10.473z" fill="#333333" stroke="#4C4C4C" stroke-width="0.25" />
</g>
<g id="Group_Cap">
	<path d="M9.798,4.617l-0.9-2.478l2.815-1.802L14.415,0l2.703,0.338   l2.815,1.802l-0.788,2.478l-1.802-0.676l-2.929-0.451l-2.814,0.451L9.798,4.617z" fill="#F7F7F7" stroke="#4C4C4C" stroke-width="0.25" />
	<path d="M13.965,1.239V0.338h0.901v0.901h0.9V2.14h-0.9v0.901h-0.901V2.14h-0.9V1.239H13.965z" fill="#CC0000" />
	<path d="M9.798,4.617l0.338,0.113l1.689-0.451l2.59-0.451l2.591,0.451   l1.688,0.451l0.451-0.113l-1.802-0.676l-2.929-0.451l-2.814,0.451L9.798,4.617z" fill="#CCCCCC" stroke="#4C4C4C" stroke-width="0.25" />
</g>
<g id="Group_UpperBody">
	<path d="M5.52,35.585l-5.068-1.239l0.676-4.955l1.239-3.604l2.14-3.378   l3.941-1.238l3.266-1.689l2.027,1.126h2.252l1.576-1.126l6.307,2.252l2.365,1.689l1.464,3.266v2.252l0.676,5.743l-4.505,0.901   l-0.676,10.36v3.829l0.676,1.802H5.52v-1.239l0.675-2.478L5.52,35.585z" fill="#FFFFFF" stroke="#4C4C4C" stroke-width="0.25" />
	<path d="M4.844,31.306l0.45,3.041l-0.788,0.789l1.464,0.338l0.112,2.928l1.126-9.91L5.97,34.347   L4.844,31.306z" fill="#CCCCCC" />
	<path d="M22.974,28.716l0.451,5.63l-0.901,0.676l0.901,3.829l0.112-3.378l1.576-0.338l-0.9-0.451   l0.563-4.729l-0.9,2.252L22.974,28.716z" fill="#CCCCCC" />
	<path d="M6.42,35.36l0.676,1.464l3.941,1.126l3.941-1.239l6.982,0.901l1.351,1.351l-0.788-3.941   l-4.842,1.352l-2.815-0.901l-4.055,1.013L6.42,35.36z" fill="#F2F2F2" />
	<path d="M15.204,51.126V21.734l-1.464-0.901" fill="none" stroke="#CCCCCC" stroke-width="0.25" />
</g>
</svg>