<svg version="1.1" xmlns="http://www.w3.org/2000/svg" xmlns:xlink="http://www.w3.org/1999/xlink" width="41px" height="112px" viewBox="0 0 40.543 112.5" xml:space="preserve" enable-background="new 0 0 40.543 112.5">
<g id="Group_LeftLeg">
	<path d="M26.353,83.896l1.099-10.983   c-3.011-0.153-6.027-0.272-9.035-0.229l0.279,2.092L19.483,87.5l0.563,7.996l0.901,8.445l-0.563,4.393l0.338,1.238l3.041,2.703   h5.292v-1.352l-2.814-3.829l-1.238-2.702l0.111-8.896L26.353,83.896z" fill="#FFCC99" stroke="#4C4C4C" stroke-width="0.25" />
</g>
<g id="Group_RightLeg">
	<path d="M6.646,77.252l0.338,11.036l1.013,6.081l0.901,11.148   l-1.915,3.941l-1.802,1.689l0.563,1.014l5.743-0.563l2.928-2.253l-0.337-3.829l-0.789-0.9l1.577-16.104l1.7-15.772   c-3.353,0.128-6.687,0.497-9.979,1.266L6.646,77.252z" fill="#FFCC99" stroke="#4C4C4C" stroke-width="0.25" />
</g>
<g id="Group_LeftArm">
	<path d="M34.235,27.815l-2.364-4.279l-0.755-0.265   c-1.209,5.215-2.048,10.369-2.037,15.703l0.202-2.037l0.563-5.856l0.112,9.009l-0.337,10.135l-0.113,7.658l-0.451,3.041   l0.113,2.702l0.338,4.729l0.9-0.338l1.803-5.631l0.676-4.617l1.463-12.5l0.563-11.711L34.235,27.815z" fill="#FFCC99" stroke="#4C4C4C" stroke-width="0.25" />
</g>
<g id="Group_Neck">
	<path d="M23.313,21.667l-2.928-0.271l-0.563-2.59h-5.406l-1.238,2.252   l-2.579,0.621C14.34,25.23,19.682,26.332,23.313,21.667z" fill="#FFCC99" stroke="#4C4C4C" stroke-width="0.25" />
</g>
<g id="Group_RightArm">
	<path d="M2.929,25.788L1.24,34.122l-0.676,9.91l1.239,12.951l-0.789,3.49   l0.563,4.167l2.703,3.829l1.239,0.225l0.112-3.266l-0.563-3.716l0.563-2.591L5.52,41.554l0.283-8.017   c-0.209-3.135-0.471-6.269-0.762-9.404L2.929,25.788z" fill="#FFCC99" stroke="#4C4C4C" stroke-width="0.25" />
</g>
<g id="Group_Shoes">
	<path d="M5.407,112.387l5.968-0.111l3.378-2.816l-0.901-2.928l0.226-1.126   l-0.338-1.239l-0.226-1.013l-0.901,0.563l-2.59,0.225l-1.352-0.338l0.113,2.365l-2.14,3.266l-2.027,1.914L5.407,112.387z" fill="#FFCCE5" stroke="#4C4C4C" stroke-width="0.25" />
	<path d="M29.281,112.275l-6.42,0.225l-3.04-2.59l0.675-3.829l-0.112-1.126   l0.676-1.689l-0.227-0.45l1.803,0.226l1.914,0.112l0.563-0.45l0.113,1.689l1.126,2.364l3.04,4.279L29.281,112.275z" fill="#FFCCE5" stroke="#4C4C4C" stroke-width="0.25" />
	<path d="M11.15,112.049l-0.45-1.125l-1.352-0.338H7.096l-1.126,0.676l0.225,1.014l1.689,0.111L11.15,112.049   z" fill="#CC99B2" />
	<path d="M13.627,110.36l0.451-0.45l-0.226-1.803l-0.675,2.027L13.627,110.36z" fill="#CC99B2" />
	<path d="M23.425,112.049l0.338-1.125l1.577-0.338h2.364l1.239,0.676l-0.226,1.014l-1.802,0.111   L23.425,112.049z" fill="#CC99B2" />
	<path d="M20.834,110.36l-0.675-0.45l0.225-1.803l0.788,2.027L20.834,110.36z" fill="#CC99B2" />
</g>
<g id="Group_Dress">
	<path d="M0.001,50.563l0.338-5.405l0.225-3.941l0.225-7.883l1.014-6.87   l4.167-3.829l7.095-2.365l2.252,1.352h4.167l1.688-1.464l5.744,1.352l5.518,1.802l2.365,4.842l0.45,6.756l-0.338,7.095   l-0.901,7.771l-5.18,1.577l-0.338-9.122l0.226,10.698l-0.226,8.559l-0.225,9.572l-0.563,15.203l-5.969,0.676l-5.067-0.451   l-5.743,0.563L5.52,86.486l0.338-10.022l0.45-9.571l0.451-13.739v-6.081L6.42,43.468l-1.014,9.347L0.001,50.563z" fill="#FF99CC" stroke="#4C4C4C" stroke-width="0.25" />
	<path d="M13.402,43.468l3.153-0.338l5.18,0.113l4.054,1.577l-4.955-0.788h-3.04h-3.941l-4.617,1.013   L13.402,43.468z" fill="#F28CBF" />
	<path d="M15.316,86.486l0.789-14.865l1.802-0.111l0.901,14.864l-1.577-0.112L15.316,86.486z" fill="#F28CBF" />
	<path d="M29.168,37.275l-0.788,5.067l0.226-6.982l-0.226-5.18l0.788,3.829l1.014-2.59l-0.563,4.392   l1.013,0.788L29.168,37.275z" fill="#F28CBF" />
	<path d="M5.857,38.063l0.788,5.067L6.42,36.261l0.225-5.18l-0.788,3.716L4.731,32.32l0.676,4.279   l-1.014,0.788L5.857,38.063z" fill="#F28CBF" />
</g>
<g id="Group_HairBack">
	<path d="M8.785,11.937L7.884,21.959l0.901-0.338l0.563,16.892l1.126-2.027   v-8.108l0.789,4.279l0.45-11.937l1.577-0.338l0.338,0.225l3.153-6.644l3.491,6.87l0.9-0.563l0.901,0.226L21.848,30.63l1.352-5.067   l-0.112,12.388l1.352-3.266l1.239-13.626l1.238,0.338l-1.238-9.459H8.785z" fill="#FFFF66" stroke="#4C4C4C" stroke-width="0.25" />
</g>
<g id="Group_Face">
	<path d="M23.313,14.415H11.15l-1.577-1.239l-0.901-1.352v-1.577   l0.901-1.464h15.315l0.789,1.464v1.577l-0.789,1.352L23.313,14.415z" fill="#FFCC99" stroke="#4C4C4C" stroke-width="0.25" />
	<ellipse cx="17.119" cy="10.923" rx="7.208" ry="9.459" fill="#FFCC99" stroke="#4C4C4C" stroke-width="0.25" />
	<path d="M17.006,13.063l2.14,0.563h-4.167L17.006,13.063z" fill="#CC9966" />
	<path d="M14.979,16.892l-0.676-0.563h5.405l-0.563,0.563H14.979z" fill="#E5B2B2" />
	<path d="M14.303,16.329h5.405" fill="none" stroke="#CC99B2" stroke-width="0.25" />
	<path d="M18.583,10.923h0.563l0.225-0.788l-0.225-0.901h-0.563l-0.338,0.901L18.583,10.923z" fill="#663333" />
	<path d="M14.641,10.923h0.563l0.225-0.901l-0.225-0.788h-0.563l-0.338,0.788L14.641,10.923z" fill="#663333" />
	<path d="M12.614,8.559l3.604-0.563L15.88,8.559l-3.604,0.338L12.614,8.559z" fill="#663333" />
	<path d="M21.51,8.559l-3.603-0.563l0.338,0.563l3.603,0.338L21.51,8.559z" fill="#663333" />
</g>
<g id="Group_Teddy">
	<path d="M29.055,69.145v2.928l0.451,2.365L30.182,75l0.9-0.225   l0.563-0.901l0.226-2.478l-0.338-2.478l-1.127-0.338L29.055,69.145z" fill="#663333" stroke="#4C4C4C" stroke-width="0.25" />
	<path d="M34.123,64.076l2.478,1.465l2.364,0.787l0.901-0.338l0.226-0.9   l-0.563-0.9l-2.026-1.576l-2.365-0.901L34.348,62.5L34.123,64.076z" fill="#4C1919" stroke="#4C4C4C" stroke-width="0.25" />
	<path d="M34.573,68.469h2.929l2.364-0.451l0.676-0.676l-0.338-1.014   l-0.901-0.449l-2.477-0.338l-2.479,0.338l-0.338,1.125L34.573,68.469z" fill="#663333" stroke="#4C4C4C" stroke-width="0.25" />
	<path d="M31.533,69.257l1.801-0.112l1.239-0.676l0.563-2.252l-0.226-2.479   l-0.226-2.026l-2.252-0.676h-2.59l-2.252,1.013l-0.901,1.465l1.689,5.518L31.533,69.257z" fill="#663333" stroke="#4C4C4C" stroke-width="0.25" />
	<path d="M23.875,75.225l1.576-0.449l0.676-1.127l-0.112-1.464l1.464-1.013   l1.014-1.577l0.338-3.04l-0.338-2.365l-0.9-2.365l-1.239-1.238l-1.688-0.113l-1.465,1.239l-0.676,1.576L21.285,62.5l-1.239,0.225   l-0.901,1.465v1.689l0.563,1.014l1.125,0.563l1.239-0.225l0.226,1.688l0.563,1.688l0.676,0.902l-0.9,0.9l-0.226,1.352l0.45,1.125   L23.875,75.225z" fill="#663333" stroke="#4C4C4C" stroke-width="0.25" />
	<path d="M30.406,73.762l-0.9,0.676L30.182,75l0.9-0.225l0.563-0.901   L30.406,73.762z" fill="#FFCC99" stroke="#4C4C4C" stroke-width="0.25" />
	<path d="M22.523,63.288L21.285,62.5l-1.239,0.225l-0.901,1.465v1.689l0.563,1.014   l1.125,0.563l1.239-0.225l-1.464-0.676l-0.563-1.127l0.113-1.352l0.788-0.788H22.523z" stroke="#4C4C4C" stroke-width="0.25" />
	<path d="M23.875,75.225l1.576-0.449l0.676-1.127L25.113,74.1l-1.238,0.112l-0.788-0.563   l-0.45-1.238l-0.226,1.352l0.45,1.125L23.875,75.225z" stroke="#4C4C4C" stroke-width="0.25" />
</g>
<g id="Group_TopFinger">
	<path d="M30.182,60.924l0.338,1.801l-1.014,5.631l0.9-0.338l2.59-3.828l-0.787-3.266l-2.479-1.127   L30.182,60.924z" fill="#FFCC99" />
</g>
<g id="Group_HairTop">
	<path d="M10.024,10.473L9.461,8.671L8.56,10.473l0.901-6.645l2.14-2.365   l2.365-1.239L17.006,0l3.041,0.225l2.365,1.239l2.14,2.365l1.238,6.645l-0.9-1.802l-0.676,1.802L22.975,5.63L21.51,3.266   l0.338,2.928h-9.346l0.225-2.928L10.925,5.63L10.024,10.473z" fill="#FFFF66" stroke="#4C4C4C" stroke-width="0.25" />
</g>
</svg>