<svg version="1.1" xmlns="http://www.w3.org/2000/svg" xmlns:xlink="http://www.w3.org/1999/xlink" width="41px" height="112px" viewBox="0 0 40.579 112.5" xml:space="preserve" enable-background="new 0 0 40.579 112.5">
<g id="Group_LeftLeg">
	<path d="M25.024,104.494l0.113-8.904l1.239-11.611l0.973-9.729   c-2.895,0-5.792,0-8.703,0l0.065,0.599L19.5,87.586l0.563,8.004l0.901,8.453l-0.563,4.396l0.338,1.24l3.043,2.705h5.298v-1.354   l-2.705-3.832L25.024,104.494z" fill="#996633" stroke="#4C4C4C" stroke-width="0.25" />
</g>
<g id="Group_RightLeg">
	<path d="M6.65,77.328l0.338,11.047l1.014,5.975l0.902,11.271l-1.916,3.945   l-1.804,1.691l0.563,1.014l5.749-0.563l2.931-2.255l-0.338-3.832l-0.789-0.901l1.578-16.119l1.538-14.351c-3.252,0-6.524,0-9.822,0   L6.65,77.328z" fill="#996633" stroke="#4C4C4C" stroke-width="0.25" />
</g>
<g id="Group_LeftArm">
	<path d="M34.267,27.845L31.9,23.448l-3.383-1.188   c-0.196,4.818,0.49,9.722,0.798,14.519L29.871,31l0.112,9.018l-0.225,10.258l-0.113,7.666l-0.563,3.043l0.112,2.705l0.451,4.734   l0.902-0.451l1.69-5.523l0.789-4.621l1.353-12.512l0.564-11.723L34.267,27.845z" fill="#996633" stroke="#4C4C4C" stroke-width="0.25" />
</g>
<g id="Group_Neck">
	<path d="M22.29,24.25c1.03-0.773,1.792-1.613,2.395-2.501l-4.282-0.329   l-0.563-2.593l-5.411-0.112l-1.24,2.367l-3.34,0.742C12.887,26.008,17.23,27.623,22.29,24.25z" fill="#996633" stroke="#4C4C4C" stroke-width="0.25" />
</g>
<g id="Group_RightArm">
	<path d="M8.424,22.14l-1.323,0.294l-4.171,3.381L1.24,34.044l-0.676,9.919   l1.24,13.076l-0.789,3.494l0.563,4.171l2.705,3.833l1.24,0.225l0.113-3.269l-0.564-3.72l0.564-2.705L5.523,41.484l0.338-9.582   l0.338,6.65l0.135,1.496C7.719,33.829,9.074,28.079,8.424,22.14z" fill="#996633" stroke="#4C4C4C" stroke-width="0.25" />
</g>
<g id="Group_Face">
	<path d="M23.333,14.431H11.159l-1.578-1.24l-0.902-1.465V10.26   l0.902-1.465h15.33L25.7,10.26v1.465l-0.789,1.465L23.333,14.431z" fill="#996633" stroke="#4C4C4C" stroke-width="0.25" />
	<ellipse cx="17.133" cy="10.937" rx="7.215" ry="9.468" fill="#996633" stroke="#4C4C4C" stroke-width="0.25" />
	<path d="M17.021,12.965l2.142,0.564h-4.171L17.021,12.965z" fill="#663333" />
	<path d="M14.992,16.911l-0.676-0.563h5.411l-0.563,0.563H14.992z" fill="#B27F7F" />
	<path d="M14.315,16.347h5.411" fill="none" stroke="#CC99B2" stroke-width="0.25" />
	<path d="M18.599,10.937h0.564l0.225-0.902l-0.225-0.902h-0.564l-0.338,0.902L18.599,10.937z" />
	<path d="M14.654,10.824h0.563l0.226-0.789l-0.226-0.902h-0.563l-0.338,0.902L14.654,10.824z" />
	<path d="M12.625,8.569l3.607-0.563l-0.338,0.563l-3.607,0.338L12.625,8.569z" />
	<path d="M21.53,8.569l-3.607-0.563l0.338,0.563l3.607,0.338L21.53,8.569z" />
</g>
<g id="Group_Socks">
	<path d="M5.411,112.497l5.974-0.112l3.494-2.818l-0.676-2.931l0.226-1.353   l-0.676-1.353l1.127-12.399l-2.479,0.563h-3.72l-1.127-0.677l0.902,14.992l-1.804,2.932l-2.029,1.916L5.411,112.497z" fill="#FFFFFF" stroke="#4C4C4C" stroke-width="0.25" />
	<path d="M29.307,112.385l-6.425,0.112l-3.043-2.479l0.676-3.832   l-0.113-1.128l0.676-1.69l-1.465-11.836l1.803,0.226h3.27l1.24-0.339l0.111,14.88l1.805,2.705l1.578,2.142L29.307,112.385z" fill="#FFFFFF" stroke="#4C4C4C" stroke-width="0.25" />
	<path d="M11.159,112.159l-0.451-1.128l-1.353-0.338H7.102l-1.127,0.677l0.226,1.015l1.691,0.112   L11.159,112.159z" fill="#E5E5E5" />
	<path d="M13.639,110.469l0.451-0.451l-0.113-1.804l-0.789,2.028L13.639,110.469z" fill="#E5E5E5" />
	<path d="M23.446,112.159l0.451-1.128l1.465-0.338h2.367l1.24,0.677l-0.226,1.015l-1.804,0.112   L23.446,112.159z" fill="#E5E5E5" />
	<path d="M20.853,110.469l-0.676-0.451l0.226-1.804l0.79,2.028L20.853,110.469z" fill="#E5E5E5" />
</g>
<g id="Group_PinkStripes">
	<path d="M25.7,94.35l-1.803,0.451h-2.705l-1.015-0.227l-0.113-1.239l1.128,0.45h2.592l1.916-0.45V94.35z" fill="#FF7F7F" />
	<path d="M8.229,94.462l1.917,0.451h3.156l1.127-0.226v-1.127l-1.015,0.338h-3.269l-1.804-0.451L8.229,94.462   z" fill="#FF7F7F" />
</g>
<g id="Group_BlueStripes">
	<path d="M8.003,95.702l1.691,0.338h3.269l1.014-0.226l0.113-0.676l-1.127,0.451H9.807l-1.916-0.451   L8.003,95.702z" fill="#7F7FFF" />
	<path d="M25.7,95.59l-1.803,0.338l-2.48,0.112l-1.127-0.338v-0.677l1.127,0.451h2.367l2.029-0.563   L25.7,95.59z" fill="#7F7FFF" />
	<path d="M25.926,92.884l-2.029,0.339h-2.705l-1.24-0.227V92.32l1.24,0.338h2.705l2.029-0.451V92.884z" fill="#7F7FFF" />
	<path d="M7.891,93.109l1.916,0.451h3.156l1.24-0.226l0.113-0.677l-1.24,0.338H9.919l-2.029-0.45V93.109z" fill="#7F7FFF" />
</g>
<g id="Group_Dress">
	<path d="M0,50.614l0.338-5.523l0.225-3.833l0.226-7.891l1.015-6.876   l4.17-3.945l7.102-2.254l2.254,1.24h4.17l1.691-1.353l5.748,1.24l5.523,1.917l2.367,4.847l0.451,6.763l-0.338,7.102l-0.902,7.777   l-5.072,1.466l-0.451-9.13l0.226,10.821l-0.226,8.567l-0.226,9.581l-0.563,15.217l-5.975,0.677l-5.072-0.45l-5.749,0.563   l-5.411-0.563l0.338-10.033l0.451-9.58l0.451-13.865V47.12l-0.338-3.607l-1.014,9.355L0,50.614z" fill="#FFB27F" stroke="#4C4C4C" stroke-width="0.25" />
	<path d="M13.414,43.513l3.156-0.451l5.185,0.226l4.059,1.578l-4.96-0.902H17.81l-3.833,0.113l-4.734,0.902   L13.414,43.513z" fill="#F2A572" />
	<path d="M15.33,86.572l0.789-14.879l1.803-0.113l0.902,14.879l-1.578-0.113L15.33,86.572z" fill="#F2A572" />
	<path d="M29.194,37.313l-0.789,4.96l0.227-6.876l-0.227-5.186l0.789,3.72l1.016-2.479l-0.451,4.283   l0.901,0.789L29.194,37.313z" fill="#F2A572" />
	<path d="M5.861,38.102l0.789,4.959l-0.226-6.763L6.65,31l-0.789,3.72l-1.127-2.479l0.676,4.396l-1.015,0.789   L5.861,38.102z" fill="#F2A572" />
</g>
<g id="Group_Teddy">
	<path d="M29.082,69.213v2.818l0.451,2.479l0.677,0.563l0.901-0.226   l0.563-0.901l0.226-2.593l-0.339-2.479l-1.014-0.227L29.082,69.213z" fill="#663333" stroke="#4C4C4C" stroke-width="0.25" />
	<path d="M34.155,64.141l2.479,1.353L39,66.395l0.902-0.338l0.226-0.902   l-0.563-0.901l-2.029-1.578l-2.367-0.901l-0.789,0.789L34.155,64.141z" fill="#4C1919" stroke="#4C4C4C" stroke-width="0.25" />
	<path d="M34.605,68.537h2.931l2.367-0.564l0.676-0.563l-0.225-1.015   l-1.015-0.451l-2.479-0.338l-2.48,0.338l-0.338,1.128L34.605,68.537z" fill="#663333" stroke="#4C4C4C" stroke-width="0.25" />
	<path d="M31.561,69.326l1.805-0.113l1.352-0.676l0.451-2.255l-0.225-2.479   l-0.227-2.029l-2.254-0.676h-2.593l-2.255,0.9l-0.9,1.578l1.689,5.523L31.561,69.326z" fill="#663333" stroke="#4C4C4C" stroke-width="0.25" />
	<path d="M24.009,75.3l1.578-0.451l0.563-1.127l-0.113-1.466l1.467-1.014   l1.014-1.691l0.338-2.931l-0.338-2.367l-0.902-2.366l-1.127-1.24l-1.69-0.113l-1.578,1.24l-0.677,1.578l-1.127-0.789l-1.353,0.225   l-0.901,1.466v1.69l0.676,1.016l1.014,0.563l1.353-0.338l0.113,1.804l0.563,1.69l0.677,0.902l-0.902,0.901l-0.226,1.353   l0.451,1.127L24.009,75.3z" fill="#663333" stroke="#4C4C4C" stroke-width="0.25" />
	<path d="M30.434,73.722l-0.901,0.789l0.677,0.563l0.901-0.226l0.563-0.901   L30.434,73.722z" fill="#FFCC99" stroke="#4C4C4C" stroke-width="0.25" />
	<path d="M22.543,63.352l-1.127-0.789l-1.353,0.225l-0.901,1.466v1.69l0.676,1.016   l1.014,0.563l1.353-0.338l-1.578-0.563l-0.564-1.127l0.113-1.353l0.789-0.789H22.543z" stroke="#4C4C4C" stroke-width="0.25" />
	<path d="M24.009,75.3l1.578-0.451l0.563-1.127l-1.014,0.45l-1.128,0.113l-0.901-0.676   l-0.451-1.128l-0.226,1.353l0.451,1.127L24.009,75.3z" stroke="#4C4C4C" stroke-width="0.25" />
</g>
<g id="Group_FrontFinger">
	<path d="M30.209,60.984l0.338,1.803l-0.902,5.637l0.902-0.451l2.479-3.72l-0.789-3.269l-2.479-1.24   L30.209,60.984z" fill="#996633" />
</g>
<g id="Group_Hair">
	<path d="M10.032,8.569H9.581L9.243,9.358l0.789-5.749l1.69-2.142l2.367-1.24   l2.931-0.226l3.043,0.226l2.367,1.24l1.69,2.142l1.128,5.749l-0.451-0.789h-0.45l-1.354-2.931l-1.127-1.804l-2.029-0.676   l-5.523,0.113L12.625,3.61l-1.578,2.029L10.032,8.569z" stroke="#4C4C4C" stroke-width="0.25" />
</g>
</svg>