<svg version="1.1" xmlns="http://www.w3.org/2000/svg" xmlns:xlink="http://www.w3.org/1999/xlink" width="40px" height="112px" viewBox="0 0 40.428 112.5" xml:space="preserve" enable-background="new 0 0 40.428 112.5">
<g id="Group_LeftLeg">
	<path d="M25,104.393l0.112-8.896l1.239-11.6l1.064-10.646   c-2.972,0-5.945,0-8.926,0l0.203,1.525l0.788,12.838l0.563,7.883l0.9,8.445l-0.563,4.393l0.225,1.238l3.153,2.703h5.293v-1.352   l-2.815-3.829L25,104.393z" fill="#996633" stroke="#4C4C4C" stroke-width="0.25" />
</g>
<g id="Group_RightLeg">
	<path d="M6.644,77.252l0.338,11.036l1.014,6.081l0.901,11.148   l-1.915,3.941l-1.802,1.689l0.563,1.014l5.743-0.563l2.928-2.253l-0.45-3.829l-0.676-0.9l1.576-16.104L16.51,73.25   c-3.303,0-6.615,0-9.938,0L6.644,77.252z" fill="#996633" stroke="#4C4C4C" stroke-width="0.25" />
</g>
<g id="Group_LeftArm">
	<path d="M31.869,23.536l-0.665-0.233   c-0.74,3.629-1.126,7.382-1.433,11.117l0.07,5.67l-0.225,10.248l-0.113,7.545l-0.45,3.153l0.112,2.59l0.338,4.729l0.901-0.338   l1.802-5.518l0.676-4.73l1.464-12.387l0.563-11.711l-0.676-5.744L31.869,23.536z" fill="#996633" stroke="#4C4C4C" stroke-width="0.25" />
</g>
<g id="Group_Neck">
	<path d="M23.452,21.68l-3.069-0.283l-0.563-2.478l-5.405-0.113   l-1.238,2.365l-3.438,0.764c0.603,1.227,0.838,2.676,1.477,3.314C15.691,26.146,20.961,25.427,23.452,21.68z" fill="#996633" stroke="#4C4C4C" stroke-width="0.25" />
</g>
<g id="Group_RightArm">
	<path d="M2.928,25.901l-1.689,8.221l-0.676,9.91l1.239,12.951l-0.788,3.49   l0.563,4.167l2.703,3.829l1.238,0.225l0.113-3.266l-0.563-3.604l0.563-2.703L5.518,41.554l0.338-9.572l0.019,0.375   c0.101-3.156,0.374-6.313,0.77-9.469L2.928,25.901z" fill="#996633" stroke="#4C4C4C" stroke-width="0.25" />
</g>
<g id="Group_Dress">
	<path d="M0,50.563l0.338-5.405l0.225-3.941l0.226-7.771l1.014-6.982   l4.166-3.829l7.095-2.252l2.253,1.239h4.166l1.689-1.352l5.743,1.239l5.405,1.914l2.365,4.73l0.563,6.869l-0.45,6.982l-0.9,7.771   l-5.067,1.577l-0.338-9.122l0.225,10.698l-0.225,8.559l-0.226,9.572l-0.563,15.203l-5.968,0.676l-5.068-0.451l-5.743,0.563   l-5.405-0.563l0.338-10.022l0.45-9.571l0.451-13.739v-6.081l-0.338-3.491l-1.014,9.347L0,50.563z" fill="#FF99CC" stroke="#4C4C4C" stroke-width="0.25" />
	<path d="M13.401,43.581l3.153-0.451l5.181,0.226l4.054,1.464l-4.955-0.788h-3.04h-3.941l-4.617,1.013   L13.401,43.581z" fill="#F28CBF" />
	<path d="M15.316,86.486l0.788-14.865l1.802-0.111l0.9,14.864l-1.576-0.112L15.316,86.486z" fill="#F28CBF" />
	<path d="M29.166,37.275l-0.788,5.067l0.226-6.869l-0.226-5.18l0.788,3.716l1.014-2.59l-0.563,4.392   l1.014,0.788L29.166,37.275z" fill="#F28CBF" />
	<path d="M5.856,38.063l0.788,5.067l-0.225-6.869l0.225-5.18l-0.788,3.716L4.73,32.32l0.676,4.392L4.392,37.5   L5.856,38.063z" fill="#F28CBF" />
</g>
<g id="Group_HairBack">
	<path d="M8.897,11.937L7.995,22.072l0.788-0.338l0.676,16.892l1.126-2.14v-7.996   l0.789,4.167l0.45-11.824l1.464-0.338l0.45,0.112l3.153-6.644l3.491,6.87l0.788-0.451l0.901,0.225L21.847,30.63l1.352-5.067   l-0.113,12.388l1.352-3.266l1.239-13.513l1.238,0.225l-1.238-9.459H8.897z" stroke="#4C4C4C" stroke-width="0.25" />
</g>
<g id="Group_Face">
	<path d="M23.311,14.527H11.149l-1.576-1.351l-0.789-1.352V10.36   l0.789-1.464h15.314l0.789,1.464v1.464l-0.789,1.352L23.311,14.527z" fill="#996633" stroke="#4C4C4C" stroke-width="0.25" />
	<ellipse cx="17.23" cy="11.036" rx="7.207" ry="9.459" fill="#996633" stroke="#4C4C4C" stroke-width="0.25" />
	<path d="M17.117,13.063l2.026,0.563h-4.166L17.117,13.063z" fill="#663300" />
	<path d="M15.09,17.004l-0.676-0.563h5.293l-0.563,0.563H15.09z" fill="#B27F7F" />
	<path d="M14.414,16.441h5.293" fill="none" stroke="#CC99B2" stroke-width="0.25" />
	<path d="M18.581,11.036h0.676l0.225-0.901l-0.225-0.901h-0.676l-0.226,0.901L18.581,11.036z" />
	<path d="M14.64,10.923h0.563l0.338-0.788l-0.338-0.901H14.64l-0.226,0.901L14.64,10.923z" />
	<path d="M12.613,8.671l3.604-0.563l-0.338,0.563l-3.604,0.338L12.613,8.671z" />
	<path d="M21.509,8.671l-3.491-0.563l0.226,0.563l3.604,0.338L21.509,8.671z" />
</g>
<g id="Group_Teddy">
	<path d="M28.942,69.145v2.928l0.563,2.365l0.676,0.676l0.901-0.338   l0.45-0.901l0.338-2.478l-0.338-2.478l-1.126-0.338L28.942,69.145z" fill="#663333" stroke="#4C4C4C" stroke-width="0.25" />
	<path d="M34.009,64.076l2.59,1.465l2.365,0.787l0.788-0.225l0.338-1.014   l-0.563-0.788L37.5,62.725l-2.365-0.9l-0.788,0.789L34.009,64.076z" fill="#4C1919" stroke="#4C4C4C" stroke-width="0.25" />
	<path d="M34.573,68.469H37.5l2.364-0.451l0.563-0.676l-0.226-1.014   l-0.9-0.449l-2.478-0.338l-2.478,0.449l-0.338,1.014L34.573,68.469z" fill="#663333" stroke="#4C4C4C" stroke-width="0.25" />
	<path d="M31.419,69.369l1.914-0.225l1.239-0.563l0.563-2.364l-0.225-2.479   l-0.226-1.914l-2.252-0.676h-2.591l-2.252,0.9l-0.9,1.465l1.688,5.518L31.419,69.369z" fill="#663333" stroke="#4C4C4C" stroke-width="0.25" />
	<path d="M23.874,75.225l1.576-0.449l0.676-1.127l-0.112-1.464l1.351-1.013   l1.127-1.577l0.338-3.04l-0.338-2.253l-0.901-2.478l-1.238-1.238l-1.689-0.113l-1.464,1.239L22.523,63.4l-1.239-0.9l-1.238,0.338   l-1.014,1.352l0.112,1.689l0.563,1.014l1.126,0.563l1.239-0.225l0.225,1.688l0.563,1.688l0.676,0.902l-0.901,0.9l-0.225,1.352   L22.861,75L23.874,75.225z" fill="#663333" stroke="#4C4C4C" stroke-width="0.25" />
	<path d="M30.406,73.762l-0.901,0.676l0.676,0.676l0.901-0.338l0.45-0.901   L30.406,73.762z" fill="#FFCC99" stroke="#4C4C4C" stroke-width="0.25" />
	<path d="M22.523,63.4l-1.239-0.9l-1.238,0.338l-1.014,1.352l0.112,1.689l0.563,1.014   l1.126,0.563l1.239-0.225l-1.465-0.564l-0.563-1.238l0.112-1.238l0.788-0.789H22.523z" stroke="#4C4C4C" stroke-width="0.25" />
	<path d="M23.874,75.225l1.576-0.449l0.676-1.127l-1.014,0.563h-1.238l-0.789-0.563   l-0.45-1.238l-0.225,1.352L22.861,75L23.874,75.225z" stroke="#4C4C4C" stroke-width="0.25" />
</g>
<g id="Group_FrontFinger">
	<path d="M30.18,61.036l0.338,1.802l-1.014,5.518l0.901-0.338l2.59-3.828l-0.788-3.266l-2.478-1.127   L30.18,61.036z" fill="#996633" />
</g>
<g id="Group_Socks">
	<path d="M5.406,112.387l5.969-0.111l3.49-2.816l-0.9-2.928l0.112-1.126   l-0.225-1.239l-0.226-1.013l-1.014,0.563l-2.478,0.225l-1.464-0.338l0.112,2.365l-2.026,3.266l-2.027,1.914L5.406,112.387z" fill="#FFCCE5" stroke="#4C4C4C" stroke-width="0.25" />
	<path d="M29.392,112.275l-6.419,0.225l-3.153-2.59l0.676-3.829   l-0.112-1.126l0.676-1.576l-0.113-0.563l1.802,0.226l1.915,0.112l0.563-0.45v1.689l1.239,2.364l3.04,4.279L29.392,112.275z" fill="#FFCCE5" stroke="#4C4C4C" stroke-width="0.25" />
	<path d="M11.149,112.049l-0.45-1.125l-1.239-0.338H7.095l-1.127,0.676l0.226,1.014l1.689,0.111   L11.149,112.049z" fill="#CC99B2" />
	<path d="M13.626,110.36l0.563-0.45l-0.226-1.803l-0.788,2.027L13.626,110.36z" fill="#CC99B2" />
	<path d="M23.423,112.049l0.451-1.125l1.464-0.338h2.478l1.126,0.676l-0.226,1.014l-1.802,0.111   L23.423,112.049z" fill="#CC99B2" />
	<path d="M20.833,110.36l-0.563-0.45l0.225-1.803l0.788,2.027L20.833,110.36z" fill="#CC99B2" />
</g>
<g id="Group_HairTop">
	<path d="M10.135,10.585L9.459,8.784l-0.9,1.802l0.9-6.757l2.14-2.365   l2.365-1.239L17.004,0l3.041,0.225l2.478,1.239l2.14,2.365l1.238,6.757l-1.014-1.802l-0.563,1.802l-1.239-4.842l-1.576-2.365   l0.338,2.928H12.5l0.338-2.928l-1.802,2.365L10.135,10.585z" fill="#333333" stroke="#4C4C4C" stroke-width="0.25" />
</g>
</svg>