<!DOCTYPE svg PUBLIC "-//W3C//DTD SVG 20000303 Stylable//EN" "http://www.w3.org/TR/2000/03/WD-SVG-20000303/DTD/svg-20000303-stylable.dtd"[]><svg xmlns="http://www.w3.org/2000/svg" width="999px" height="944px" viewBox="0 0 500 471"><path style="fill:#7f7f7f;stroke:#4c4c4c;stroke-width:2" d="M500,412 l-81,0 -16,-2 -15,-6 -14,-8 -12,-12 -10,-14 -8,-16 -4,-18 -2,-19 2,-19 4,-18 8,-17 10,-14 12,-12 14,-8 15,-6 16,-2 81,0 -29,30 -81,0 -16,2 -16,5 -13,9 -12,12 -10,14 -8,16 -4,18 -2,19 2,19 4,18 8,17 10,14 12,12 13,8 16,6 16,2 81,0 29,-30z" /><path style="fill:#7f7f7f;stroke:#4c4c4c;stroke-width:2" d="M29,412 l-29,30 81,0 16,-2 16,-6 13,-8 12,-12 10,-14 8,-17 4,-18 2,-19 -2,-19 -4,-18 -8,-16 -10,-14 -12,-12 -13,-9 -16,-5 -16,-2 -81,0 29,-30 81,0 16,2 16,6 13,8 12,12 10,14 8,16 4,18 2,19 -2,19 -4,18 -8,17 -10,14 -12,12 -13,8 -16,6 -16,2 -81,0z" /><path style="fill:#7f7f7f;stroke:#4c4c4c;stroke-width:2" d="M500,221 l-81,0 -16,-2 -15,-6 -14,-8 -12,-12 -10,-14 -8,-17 -4,-18 -2,-19 2,-19 4,-18 8,-16 10,-14 12,-12 14,-8 15,-6 16,-2 81,0 -29,29 -81,0 -16,2 -16,6 -13,8 -12,12 -10,14 -8,17 -4,18 -2,19 2,19 4,18 8,16 10,14 12,12 13,8 16,6 16,2 81,0 29,-29z" /><path style="fill:#7f7f7f;stroke:#4c4c4c;stroke-width:2" d="M210,30 l29,-30 0,442 -29,29 0,-441z" /><path style="fill:#7f7f7f;stroke:#4c4c4c;stroke-width:2" d="M261,30 l29,-30 0,442 -29,29 0,-441z" /><path style="fill:#7f7f7f;stroke:#4c4c4c;stroke-width:2" d="M29,221 l-29,29 81,0 16,-2 16,-6 13,-8 12,-12 10,-14 8,-16 4,-18 2,-19 -2,-19 -4,-18 -8,-17 -10,-14 -12,-12 -13,-8 -16,-6 -16,-2 -81,0 29,-29 81,0 16,2 16,6 13,8 12,12 10,14 8,16 4,18 2,19 -2,19 -4,18 -8,17 -10,14 -12,12 -13,8 -16,6 -16,2 -81,0z" /></svg>