<!DOCTYPE svg PUBLIC "-//W3C//DTD SVG 20000303 Stylable//EN" "http://www.w3.org/TR/2000/03/WD-SVG-20000303/DTD/svg-20000303-stylable.dtd"[]><svg xmlns="http://www.w3.org/2000/svg" width="999px" height="312px" viewBox="0 0 500 136"><path style="fill:#7f7f7f;stroke:#4c4c4c;stroke-width:2" d="M0,29 l29,-29 471,0 0,107 -29,29 -471,-107z" /><path style="fill:#b2b2b2;stroke:#4c4c4c;stroke-width:2" d="M0,31 l471,0 0,104 -471,0 0,-104z" /><path style="fill:none;stroke:#4c4c4c;stroke-width:2" d="M0,30 l52,106 53,-105 52,104 52,-104 52,104 52,-104 54,104 52,-104 52,105" /><path style="fill:none;stroke:#4c4c4c;stroke-width:2" d="M471,29 l29,-29" /><path style="fill:none;stroke:#4c4c4c;stroke-width:2" d="M419,29 l29,-29" /><path style="fill:none;stroke:#4c4c4c;stroke-width:2" d="M312,29 l30,-29" /><path style="fill:none;stroke:#4c4c4c;stroke-width:2" d="M210,29 l29,-29" /><path style="fill:none;stroke:#4c4c4c;stroke-width:2" d="M107,29 l29,-29" /></svg>