<!DOCTYPE svg PUBLIC "-//W3C//DTD SVG 20000303 Stylable//EN" "http://www.w3.org/TR/2000/03/WD-SVG-20000303/DTD/svg-20000303-stylable.dtd"[]><svg xmlns="http://www.w3.org/2000/svg" width="403px" height="999px" viewBox="0 0 184 500"><path style="fill:#7f7f7f;stroke:#4c4c4c;stroke-width:2" d="M183,443 l0,-415 -4,-6 -7,-5 -8,-5 -9,-4 -11,-3 -12,-3 -12,-1 -13,-1 -14,1 -15,2 -15,4 -14,6 -14,7 -13,10 -11,11 -9,14 28,388 4,7 7,8 8,8 9,9 11,8 12,6 12,4 13,2 13,-2 13,-4 12,-6 11,-8 9,-9 8,-8 7,-8 4,-7z" /><path style="fill:#b2b2b2;stroke:#4c4c4c;stroke-width:2" d="M154,472 l0,-414 -5,-6 -6,-6 -9,-5 -9,-4 -11,-3 -12,-3 -12,-1 -13,-1 -13,1 -13,1 -12,3 -11,3 -9,4 -8,5 -7,5 -4,6 0,415 4,6 7,6 8,4 9,4 11,4 12,2 13,1 13,1 13,-1 12,-1 12,-2 11,-4 9,-4 9,-4 6,-6 5,-6z" /><path style="fill:none;stroke:#4c4c4c;stroke-width:2" d="M154,58 l30,-29" /><path style="fill:none;stroke:#4c4c4c;stroke-width:2" d="M154,472 l30,-29" /><path style="fill:none;stroke:#4c4c4c;stroke-width:2" d="M0,96 l76,0" /><path style="fill:none;stroke:#4c4c4c;stroke-width:2" d="M64,109 l12,-13 12,13" /></svg>