<!DOCTYPE svg PUBLIC "-//W3C//DTD SVG 20000303 Stylable//EN" "http://www.w3.org/TR/2000/03/WD-SVG-20000303/DTD/svg-20000303-stylable.dtd"[]><svg xmlns="http://www.w3.org/2000/svg" width="808px" height="999px" viewBox="0 0 399 500"><path style="fill:#7f7f7f;stroke:#4c4c4c;stroke-width:2" d="M399,421 l0,-372 -8,-5 -9,-6 -10,-5 -10,-4 -10,-5 -11,-4 -12,-3 -11,-4 -13,-3 -12,-2 -13,-3 -12,-2 -13,-1 -13,-1 -14,-1 -13,0 -14,0 -13,1 -14,1 -13,1 -13,2 -13,3 -12,2 -12,3 -12,4 -11,3 -11,4 -11,5 -10,4 -9,5 -9,6 -8,5 -29,31 3,4 8,12 12,18 17,24 20,28 23,31 25,34 28,34 29,35 31,34 30,31 31,28 30,24 29,18 28,12 25,4 1,-1 4,-4 4,-4 6,-6 5,-6 5,-4 3,-4 1,-1z" /><path style="fill:#b2b2b2;stroke:#4c4c4c;stroke-width:2" d="M369,450 l0,-371 -8,-6 -9,-5 -9,-5 -10,-5 -11,-4 -11,-4 -11,-4 -12,-3 -12,-3 -12,-3 -13,-2 -13,-2 -13,-1 -13,-1 -14,-1 -13,0 -14,0 -13,1 -13,1 -14,1 -13,2 -12,2 -13,3 -12,3 -11,3 -12,4 -10,4 -11,4 -10,5 -9,5 -9,5 -8,6 0,372 8,5 9,6 9,5 10,4 11,5 10,4 12,3 11,4 12,3 13,2 12,3 13,2 14,1 13,1 13,1 14,0 13,0 14,-1 13,-1 13,-2 13,-2 13,-2 12,-3 12,-3 12,-3 11,-4 11,-4 11,-5 10,-4 9,-5 9,-5 8,-6z" /><path style="fill:none;stroke:#4c4c4c;stroke-width:2" d="M369,79 l30,-30" /><path style="fill:none;stroke:#4c4c4c;stroke-width:2" d="M0,450 l369,0" /><path style="fill:none;stroke:#4c4c4c;stroke-width:2" d="M0,79 l369,0" /></svg>