<!DOCTYPE svg PUBLIC "-//W3C//DTD SVG 20000303 Stylable//EN" "http://www.w3.org/TR/2000/03/WD-SVG-20000303/DTD/svg-20000303-stylable.dtd"[]><svg xmlns="http://www.w3.org/2000/svg" width="735px" height="999px" viewBox="0 0 360 500"><path style="fill:#7f7f7f;stroke:#4c4c4c;stroke-width:2" d="M360,82 l0,259 -31,29 -327,-265 1,-9 4,-8 5,-9 8,-9 9,-9 10,-9 13,-8 13,-8 14,-8 16,-7 16,-6 16,-5 17,-4 18,-3 17,-2 17,-1 17,0 16,2 16,2 15,2 14,4 14,4 12,5 12,5 11,6 9,6 8,7 7,7 6,8 4,8 2,8 1,8z" /><path style="fill:#b2b2b2;stroke:#4c4c4c;stroke-width:2" d="M329,111 l0,259 -164,130 -165,-130 0,-259 1,-8 2,-8 4,-8 6,-8 7,-7 8,-7 10,-6 10,-6 12,-5 13,-5 13,-4 15,-4 15,-2 16,-2 16,-2 17,0 17,0 16,2 16,2 15,2 14,4 13,4 13,5 12,5 10,6 10,6 8,7 7,7 6,8 4,8 2,8 1,8z" /></svg>