<!DOCTYPE svg PUBLIC "-//W3C//DTD SVG 20000303 Stylable//EN" "http://www.w3.org/TR/2000/03/WD-SVG-20000303/DTD/svg-20000303-stylable.dtd"[]><svg xmlns="http://www.w3.org/2000/svg" width="999px" height="999px" viewBox="0 0 500 500"><path style="fill:#7f7f7f;stroke:#4c4c4c;stroke-width:2" d="M15,30 l29,-30 434,0 -22,30 -441,0z" /><path style="fill:#7f7f7f;stroke:#4c4c4c;stroke-width:2" d="M0,500 l29,-30 471,0 -30,30 -470,0z" /><path style="fill:#7f7f7f;stroke:#4c4c4c;stroke-width:2" d="M456,30 l22,-30 0,412 -22,29 0,-411z" /><path style="fill:#7f7f7f;stroke:#4c4c4c;stroke-width:2" d="M0,500 l0,-118 29,-29 0,117 -29,30z" /><path style="fill:#7f7f7f;stroke:#4c4c4c;stroke-width:2" d="M471,500 l0,-118 29,-29 0,118 -29,29z" /><path style="fill:#7f7f7f;stroke:#4c4c4c;stroke-width:2" d="M15,441 l0,-411 29,0 0,382 -29,29z" /></svg>