<!DOCTYPE svg PUBLIC "-//W3C//DTD SVG 20000303 Stylable//EN" "http://www.w3.org/TR/2000/03/WD-SVG-20000303/DTD/svg-20000303-stylable.dtd"[]><svg xmlns="http://www.w3.org/2000/svg" width="783px" height="999px" viewBox="0 0 384 497"><circle style="fill:#7f7f7f" cx="47" cy="367" r="47" /><circle style="fill:#999" cx="47" cy="367" r="43" /><circle style="fill:#b2b2b2" cx="47" cy="367" r="36" /><circle style="fill:#ccc" cx="47" cy="367" r="27" /><circle style="fill:#e5e5e5" cx="47" cy="367" r="19" /><circle style="fill:none;stroke:#4c4c4c;stroke-width:2" cx="47" cy="367" r="47" /><circle style="fill:#fff" cx="47" cy="367" r="11" /><path style="fill:#7f7f7f;stroke:#4c4c4c;stroke-width:2" d="M308,137 l13,-1 28,-30 0,-85 -6,-5 -7,-4 -8,-3 -9,-3 -9,-3 -10,-2 -11,-1 -10,0 -11,0 -13,2 -13,3 -13,4 -14,7 -12,8 -11,12 -10,14 27,56 41,40 0,37 -17,3 -16,6 -16,6 -14,9 -14,9 -11,12 -9,13 -6,14 4,-3 10,-7 9,-7 4,-3 1,168 75,65 106,-35 28,-30 0,-168 -1,-9 -5,-8 -6,-8 -9,-7 -11,-7 -14,-5 -14,-5 -17,-3 1,-46z" /><path style="fill:#7f7f7f;stroke:#4c4c4c;stroke-width:2" d="M47,386 l29,-29 23,-11 0,4 49,0 0,42 -72,0 -5,6 -24,-12z" /><path style="fill:#b2b2b2;stroke:#4c4c4c;stroke-width:2" d="M47,386 l23,12 0,-6 77,0 0,-12 -77,0 0,-6 -23,12z" /><path style="fill:none;stroke:#4c4c4c;stroke-width:2" d="M70,379 l29,-29" /><path style="fill:none;stroke:#4c4c4c;stroke-width:2" d="M70,375 l29,-29" /><path style="fill:#b2b2b2;stroke:#4c4c4c;stroke-width:2" d="M280,176 l41,-41 -1,-85 -6,-5 -7,-4 -8,-3 -8,-3 -10,-3 -9,-2 -11,-1 -10,0 -10,0 -11,1 -9,2 -10,3 -9,3 -8,3 -7,4 -6,5 0,85 40,40 0,37 -16,4 -14,4 -13,6 -11,6 -9,8 -7,7 -4,8 -2,9 1,168 76,65 58,0 75,-65 0,-168 -1,-9 -5,-8 -6,-7 -9,-8 -11,-6 -13,-6 -15,-4 -16,-4 1,-36z" /><path style="fill:none;stroke:#4c4c4c;stroke-width:2" d="M320,51 l28,-30" /><path style="fill:none;stroke:#4c4c4c;stroke-width:2" d="M279,212 l28,-29" /><path style="fill:none;stroke:#4c4c4c;stroke-width:2" d="M222,212 l0,221" /><path style="fill:none;stroke:#4c4c4c;stroke-width:2" d="M279,212 l0,221" /></svg>