<!DOCTYPE svg PUBLIC "-//W3C//DTD SVG 20000303 Stylable//EN" "http://www.w3.org/TR/2000/03/WD-SVG-20000303/DTD/svg-20000303-stylable.dtd"[]><svg xmlns="http://www.w3.org/2000/svg" width="778px" height="999px" viewBox="0 0 383 500"><path style="fill:#7f7f7f;stroke:#4c4c4c;stroke-width:2" d="M237,467 l0,-85 -3,-1 -3,-1 -3,-1 -4,0 -4,-1 -4,0 -5,0 -4,0 -8,0 -8,1 -7,1 -6,2 -31,30 17,3 12,10 9,13 7,15 4,15 3,14 3,9 4,4 1,-1 4,-3 5,-5 6,-5 5,-5 5,-5 4,-3 1,-1z" /><path style="fill:#7f7f7f;stroke:#4c4c4c;stroke-width:2" d="M176,407 l30,-29 -30,0 0,29z" /><path style="fill:#7f7f7f;stroke:#4c4c4c;stroke-width:2" d="M277,20 l24,164 82,0 0,123 -31,29 -352,-123 31,-29 82,0 -8,-135 9,-14 12,-11 13,-8 14,-7 15,-4 14,-3 13,-2 12,0 11,0 10,1 10,2 9,2 9,3 8,4 7,4 6,4z" /><path style="fill:#b2b2b2;stroke:#4c4c4c;stroke-width:2" d="M246,50 l24,163 82,0 0,123 -147,47 -58,0 -147,-47 0,-123 82,0 24,-163 6,-5 7,-4 8,-3 9,-3 10,-3 9,-2 11,-1 10,0 11,0 10,1 10,2 9,3 9,3 8,3 7,4 6,5z" /><path style="fill:#b2b2b2;stroke:#4c4c4c;stroke-width:2" d="M206,496 l0,-84 -3,-1 -3,-1 -3,-1 -4,0 -4,-1 -4,0 -5,0 -4,0 -8,0 -8,1 -7,1 -6,2 0,84 6,2 7,1 8,1 8,0 4,0 5,0 4,0 4,-1 4,0 3,-1 3,-1 3,-1z" /><path style="fill:none;stroke:#4c4c4c;stroke-width:2" d="M206,412 l31,-29" /><path style="fill:none;stroke:#4c4c4c;stroke-width:2" d="M176,383 l0,-144" /><path style="fill:none;stroke:#4c4c4c;stroke-width:2" d="M246,50 l31,-30" /><ellipse style="fill:none;stroke:#4c4c4c;stroke-width:2" cx="176" cy="240" rx="38" ry="9" /><path style="fill:none;stroke:#4c4c4c;stroke-width:2" d="M100,195 l46,94" /><path style="fill:none;stroke:#4c4c4c;stroke-width:2" d="M253,195 l-47,94" /><path style="fill:none;stroke:#4c4c4c;stroke-width:2" d="M82,213 l-5,41" /><path style="fill:none;stroke:#4c4c4c;stroke-width:2" d="M271,213 l5,41" /><path style="fill:none;stroke:#4c4c4c;stroke-width:2" d="M271,213 l30,-30" /><path style="fill:none;stroke:#4c4c4c;stroke-width:2" d="M353,213 l30,-30" /></svg>