<!DOCTYPE svg PUBLIC "-//W3C//DTD SVG 20000303 Stylable//EN" "http://www.w3.org/TR/2000/03/WD-SVG-20000303/DTD/svg-20000303-stylable.dtd"[]><svg xmlns="http://www.w3.org/2000/svg" width="778px" height="999px" viewBox="0 0 383 500"><path style="fill:#7f7f7f;stroke:#4c4c4c;stroke-width:2" d="M383,353 l-25,-2 -24,-5 -23,-9 -22,-12 -21,-15 -20,-17 -19,-21 -17,-22 -16,-25 -13,-28 -13,-29 -10,-31 -8,-32 -6,-34 -4,-35 -1,-36 -112,0 -29,28 81,302 272,169 30,-28 0,-118z" /><path style="fill:#b2b2b2;stroke:#4c4c4c;stroke-width:2" d="M354,382 l-25,-2 -24,-5 -23,-9 -22,-12 -21,-15 -20,-18 -18,-20 -17,-23 -16,-25 -14,-27 -12,-29 -10,-31 -8,-32 -6,-34 -4,-35 -1,-36 -112,0 1,471 352,0 0,-118z" /><path style="fill:none;stroke:#4c4c4c;stroke-width:2" d="M113,29 l28,-29" /><path style="fill:none;stroke:#4c4c4c;stroke-width:2" d="M354,382 l28,-29" /></svg>