<!DOCTYPE svg PUBLIC "-//W3C//DTD SVG 20000303 Stylable//EN" "http://www.w3.org/TR/2000/03/WD-SVG-20000303/DTD/svg-20000303-stylable.dtd"[]><svg xmlns="http://www.w3.org/2000/svg" width="999px" height="676px" viewBox="0 0 999 657"><path style="fill:#000;stroke:#4c4c4c;stroke-width:2" d="M180,23 l685,0 0,344 -685,0 0,-344z" /><path style="fill:#7f7f7f" d="M999,655 l-999,0 0,-66 999,0 0,66z" /><path style="fill:#b2b2b2" d="M999,649 l-999,0 0,-54 999,0 0,54z" /><path style="fill:#e5e5e5" d="M999,641 l-999,0 0,-38 999,0 0,38z" /><path style="fill:#fff" d="M999,629 l-999,0 0,-14 999,0 0,14z" /><path style="fill:none;stroke:#4c4c4c;stroke-width:2" d="M999,589 l-999,0" /><path style="fill:none;stroke:#4c4c4c;stroke-width:2" d="M0,655 l999,0" /><path style="fill:#7f7f7f" d="M470,522 l0,67 -33,0 0,68 135,0 0,-68 -34,0 0,-67 -68,0z" /><path style="fill:#b2b2b2" d="M476,522 l0,73 -39,0 0,54 135,0 0,-54 -42,0 0,-73 -54,0z" /><path style="fill:#e5e5e5" d="M486,522 l0,83 -49,0 0,36 135,0 0,-36 -50,0 0,-83 -36,0z" /><path style="fill:#fff" d="M496,522 l0,95 -59,0 0,12 135,0 0,-12 -62,0 0,-95 -14,0z" /><path style="fill:none;stroke:#4c4c4c;stroke-width:2" d="M470,522 l0,67 -33,0" /><path style="fill:none;stroke:#4c4c4c;stroke-width:2" d="M538,522 l0,67 34,0" /><path style="fill:none;stroke:#4c4c4c;stroke-width:2" d="M572,657 l-135,0" /><path style="fill:#7f7f7f" d="M536,335 l0,234 -66,0 0,-234 66,0z" /><path style="fill:#b2b2b2" d="M530,335 l0,234 -54,0 0,-234 54,0z" /><path style="fill:#e5e5e5" d="M522,335 l0,234 -38,0 0,-234 38,0z" /><path style="fill:#fff" d="M510,335 l0,234 -12,0 0,-234 12,0z" /><path style="fill:none;stroke:#4c4c4c;stroke-width:2" d="M470,335 l0,234" /><path style="fill:none;stroke:#4c4c4c;stroke-width:2" d="M536,569 l0,-234" /><path style="fill:#7f7f7f;stroke:#4c4c4c;stroke-width:2" d="M844,343 l-686,0 0,-343 686,0 0,343z" /><path style="fill:#000" d="M503,4 l-7,0 -335,334 7,7 335,-334 -7,0 7,-7 -3,-3 -4,3z" /><path style="fill:#000" d="M838,341 l3,-3 -338,-334 -7,7 338,334 4,-4z" /></svg>