<!DOCTYPE svg PUBLIC "-//W3C//DTD SVG 20000303 Stylable//EN" "http://www.w3.org/TR/2000/03/WD-SVG-20000303/DTD/svg-20000303-stylable.dtd"[]><svg xmlns="http://www.w3.org/2000/svg" width="999px" height="667px" viewBox="0 0 500 324"><path style="fill:#7f7f7f;stroke:#4c4c4c;stroke-width:2" d="M0,30 l29,-30 471,0 0,295 -29,29 -471,-294z" /><path style="fill:#b2b2b2;stroke:#4c4c4c;stroke-width:2" d="M0,30 l470,0 0,294 -470,0 0,-294z" /><path style="fill:none;stroke:#4c4c4c;stroke-width:2" d="M24,52 l423,0 0,250 -423,0 0,-250" /><path style="fill:none;stroke:#4c4c4c;stroke-width:2" d="M72,302 l0,-23" /><path style="fill:none;stroke:#4c4c4c;stroke-width:2" d="M72,256 l0,-22" /><path style="fill:none;stroke:#4c4c4c;stroke-width:2" d="M72,211 l0,-23" /><path style="fill:none;stroke:#4c4c4c;stroke-width:2" d="M72,166 l0,-23" /><path style="fill:none;stroke:#4c4c4c;stroke-width:2" d="M72,120 l0,-23" /><path style="fill:none;stroke:#4c4c4c;stroke-width:2" d="M72,75 l0,-23" /><path style="fill:none;stroke:#4c4c4c;stroke-width:2" d="M127,302 l0,-23" /><path style="fill:none;stroke:#4c4c4c;stroke-width:2" d="M127,256 l0,-22" /><path style="fill:none;stroke:#4c4c4c;stroke-width:2" d="M127,211 l0,-23" /><path style="fill:none;stroke:#4c4c4c;stroke-width:2" d="M127,166 l0,-23" /><path style="fill:none;stroke:#4c4c4c;stroke-width:2" d="M127,120 l0,-23" /><path style="fill:none;stroke:#4c4c4c;stroke-width:2" d="M127,75 l0,-23" /><path style="fill:none;stroke:#4c4c4c;stroke-width:2" d="M181,302 l0,-23" /><path style="fill:none;stroke:#4c4c4c;stroke-width:2" d="M181,256 l0,-22" /><path style="fill:none;stroke:#4c4c4c;stroke-width:2" d="M181,211 l0,-23" /><path style="fill:none;stroke:#4c4c4c;stroke-width:2" d="M181,166 l0,-23" /><path style="fill:none;stroke:#4c4c4c;stroke-width:2" d="M181,120 l0,-23" /><path style="fill:none;stroke:#4c4c4c;stroke-width:2" d="M181,75 l0,-23" /><path style="fill:none;stroke:#4c4c4c;stroke-width:2" d="M235,302 l0,-23" /><path style="fill:none;stroke:#4c4c4c;stroke-width:2" d="M235,256 l0,-22" /><path style="fill:none;stroke:#4c4c4c;stroke-width:2" d="M235,211 l0,-23" /><path style="fill:none;stroke:#4c4c4c;stroke-width:2" d="M235,166 l0,-23" /><path style="fill:none;stroke:#4c4c4c;stroke-width:2" d="M235,120 l0,-23" /><path style="fill:none;stroke:#4c4c4c;stroke-width:2" d="M235,75 l0,-23" /><path style="fill:none;stroke:#4c4c4c;stroke-width:2" d="M289,302 l0,-23" /><path style="fill:none;stroke:#4c4c4c;stroke-width:2" d="M289,256 l0,-22" /><path style="fill:none;stroke:#4c4c4c;stroke-width:2" d="M289,211 l0,-23" /><path style="fill:none;stroke:#4c4c4c;stroke-width:2" d="M289,166 l0,-23" /><path style="fill:none;stroke:#4c4c4c;stroke-width:2" d="M289,120 l0,-23" /><path style="fill:none;stroke:#4c4c4c;stroke-width:2" d="M289,75 l0,-23" /><path style="fill:none;stroke:#4c4c4c;stroke-width:2" d="M343,302 l0,-23" /><path style="fill:none;stroke:#4c4c4c;stroke-width:2" d="M343,256 l0,-22" /><path style="fill:none;stroke:#4c4c4c;stroke-width:2" d="M343,211 l0,-23" /><path style="fill:none;stroke:#4c4c4c;stroke-width:2" d="M343,166 l0,-23" /><path style="fill:none;stroke:#4c4c4c;stroke-width:2" d="M343,120 l0,-23" /><path style="fill:none;stroke:#4c4c4c;stroke-width:2" d="M343,75 l0,-23" /><path style="fill:none;stroke:#4c4c4c;stroke-width:2" d="M397,302 l0,-23" /><path style="fill:none;stroke:#4c4c4c;stroke-width:2" d="M397,256 l0,-22" /><path style="fill:none;stroke:#4c4c4c;stroke-width:2" d="M397,211 l0,-23" /><path style="fill:none;stroke:#4c4c4c;stroke-width:2" d="M397,166 l0,-23" /><path style="fill:none;stroke:#4c4c4c;stroke-width:2" d="M397,120 l0,-23" /><path style="fill:none;stroke:#4c4c4c;stroke-width:2" d="M397,75 l0,-23" /><path style="fill:none;stroke:#4c4c4c;stroke-width:2" d="M471,30 l29,-30" /></svg>