<!DOCTYPE svg PUBLIC "-//W3C//DTD SVG 20000303 Stylable//EN" "http://www.w3.org/TR/2000/03/WD-SVG-20000303/DTD/svg-20000303-stylable.dtd"[]><svg xmlns="http://www.w3.org/2000/svg" width="499px" height="999px" viewBox="0 0 235 500"><path style="fill:#7f7f7f;stroke:#4c4c4c;stroke-width:2" d="M30,400 l69,0 -29,-308 3,-15 7,-16 11,-15 13,-15 16,-12 16,-10 16,-7 15,-2 14,1 12,5 12,6 10,9 8,10 7,12 4,13 1,14 -29,29 -39,-29 0,330 -2,15 -7,17 -11,17 -13,16 -15,14 -15,11 -16,7 -15,3 -14,-1 -13,-4 -12,-7 -11,-8 -10,-11 -7,-12 -4,-13 -2,-14 1,-1 4,-4 4,-4 6,-6 6,-6 4,-4 4,-4 1,-1z" /><path style="fill:#b2b2b2;stroke:#4c4c4c;stroke-width:2" d="M0,429 l69,0 0,-329 1,-14 4,-14 6,-12 9,-10 10,-9 11,-6 13,-5 14,-1 14,1 13,5 12,6 10,9 8,10 7,12 4,14 1,14 -69,0 0,329 -1,14 -4,14 -7,12 -8,10 -10,9 -12,6 -12,5 -14,1 -14,-1 -13,-5 -12,-6 -10,-9 -8,-10 -7,-12 -4,-14 -1,-14z" /></svg>