<!DOCTYPE svg PUBLIC "-//W3C//DTD SVG 20000303 Stylable//EN" "http://www.w3.org/TR/2000/03/WD-SVG-20000303/DTD/svg-20000303-stylable.dtd"[]><svg xmlns="http://www.w3.org/2000/svg" width="999px" height="999px" viewBox="0 0 500 500"><path style="fill:#7f7f7f;stroke:#4c4c4c;stroke-width:2" d="M0,110 l29,-25 471,0 0,386 -29,29 -471,-390z" /><path style="fill:#7f7f7f;stroke:#4c4c4c;stroke-width:2" d="M29,472 l471,0 0,-388 -471,0 0,388z" /><path style="fill:#b2b2b2;stroke:#4c4c4c;stroke-width:2" d="M1,500 l471,0 0,-388 -471,0 0,388z" /><path style="fill:#7f7f7f;stroke:#4c4c4c;stroke-width:2" d="M237,111 l0,-81 28,-30 0,85 -28,26z" /><path style="fill:none;stroke:#4c4c4c;stroke-width:2" d="M472,112 l28,-28" /><path style="fill:none;stroke:#4c4c4c;stroke-width:2" d="M37,407 l399,0" /><path style="fill:none;stroke:#4c4c4c;stroke-width:2" d="M37,347 l399,0" /><path style="fill:none;stroke:#4c4c4c;stroke-width:2" d="M37,289 l399,0" /><path style="fill:none;stroke:#4c4c4c;stroke-width:2" d="M237,407 l0,-295" /><path style="fill:none;stroke:#4c4c4c;stroke-width:2" d="M37,229 l399,0" /><path style="fill:none;stroke:#4c4c4c;stroke-width:2" d="M499,178 l-27,28 -188,0" /><path style="fill:none;stroke:#4c4c4c;stroke-width:2" d="M499,237 l-27,28 -188,0" /><path style="fill:none;stroke:#4c4c4c;stroke-width:2" d="M499,295 l-27,28 -188,0" /><path style="fill:none;stroke:#4c4c4c;stroke-width:2" d="M499,354 l-27,28 -188,1" /></svg>