<!DOCTYPE svg PUBLIC "-//W3C//DTD SVG 20000303 Stylable//EN" "http://www.w3.org/TR/2000/03/WD-SVG-20000303/DTD/svg-20000303-stylable.dtd"[]><svg xmlns="http://www.w3.org/2000/svg" width="999px" height="556px" viewBox="0 0 500 265"><path style="fill:#7f7f7f;stroke:#4c4c4c;stroke-width:2" d="M40,30 l30,-30 390,0 0,184 -30,30 -390,-184z" /><path style="fill:none;stroke:#4c4c4c;stroke-width:2" d="M29,195 l0,41 471,0 0,-41" /><path style="fill:#b2b2b2;stroke:#4c4c4c;stroke-width:2" d="M41,30 l389,0 0,182 -389,0 0,-182z" /><path style="fill:none;stroke:#4c4c4c;stroke-width:2" d="M105,1 l-29,29 0,183" /><path style="fill:none;stroke:#4c4c4c;stroke-width:2" d="M141,1 l-29,29 0,183" /><path style="fill:none;stroke:#4c4c4c;stroke-width:2" d="M176,1 l-30,29 1,183" /><path style="fill:none;stroke:#4c4c4c;stroke-width:2" d="M212,1 l-30,29 0,183" /><path style="fill:none;stroke:#4c4c4c;stroke-width:2" d="M246,1 l-29,29 0,183" /><path style="fill:none;stroke:#4c4c4c;stroke-width:2" d="M282,1 l-29,29 0,183" /><path style="fill:none;stroke:#4c4c4c;stroke-width:2" d="M317,1 l-29,29 0,183" /><path style="fill:none;stroke:#4c4c4c;stroke-width:2" d="M353,1 l-30,29 1,183" /><path style="fill:none;stroke:#4c4c4c;stroke-width:2" d="M388,1 l-29,29 0,183" /><path style="fill:none;stroke:#4c4c4c;stroke-width:2" d="M423,1 l-29,29 0,183" /><path style="fill:none;stroke:#4c4c4c;stroke-width:2" d="M430,30 l29,-29" /><path style="fill:none;stroke:#4c4c4c;stroke-width:2" d="M0,224 l0,41 471,0 0,-41" /><path style="fill:#7f7f7f;stroke:#4c4c4c;stroke-width:2" d="M0,265 l0,-44 29,-29 0,44 442,0 0,29 -471,0z" /><path style="fill:none;stroke:#4c4c4c;stroke-width:2" d="M0,265 l29,-29" /><path style="fill:#7f7f7f;stroke:#4c4c4c;stroke-width:2" d="M471,265 l0,-44 29,-29 0,44 -29,29z" /></svg>