<!DOCTYPE svg PUBLIC "-//W3C//DTD SVG 20000303 Stylable//EN" "http://www.w3.org/TR/2000/03/WD-SVG-20000303/DTD/svg-20000303-stylable.dtd"[]><svg xmlns="http://www.w3.org/2000/svg" width="999px" height="887px" viewBox="0 0 500 441"><path style="fill:#7f7f7f;stroke:#4c4c4c;stroke-width:2" d="M448,316 l30,-29 22,0 -30,29 -22,0z" /><path style="fill:#7f7f7f;stroke:#4c4c4c;stroke-width:2" d="M0,316 l29,-29 22,0 -29,29 -22,0z" /><path style="fill:#7f7f7f;stroke:#4c4c4c;stroke-width:2" d="M11,29 l0,287 29,-29 0,-287 -29,29z" /><path style="fill:#7f7f7f;stroke:#4c4c4c;stroke-width:2" d="M41,0 l-30,29 301,412 29,-29 0,-106 147,-306 -447,0z" /><path style="fill:#7f7f7f;stroke:#4c4c4c;stroke-width:2" d="M459,29 l0,287 30,-29 0,-287 -30,29z" /><path style="fill:#b2b2b2;stroke:#4c4c4c;stroke-width:2" d="M12,30 l147,306 0,105 152,0 0,-105 147,-306 -446,0z" /><path style="fill:none;stroke:#4c4c4c;stroke-width:2" d="M311,336 l30,-30" /></svg>