<!DOCTYPE svg PUBLIC "-//W3C//DTD SVG 20000303 Stylable//EN" "http://www.w3.org/TR/2000/03/WD-SVG-20000303/DTD/svg-20000303-stylable.dtd"[]><svg xmlns="http://www.w3.org/2000/svg" width="999px" height="667px" viewBox="0 0 500 324"><path style="fill:#7f7f7f;stroke:#4c4c4c;stroke-width:2" d="M59,177 l59,0 0,-29 -30,0 -4,0 -3,2 -4,2 -3,3 -30,30 3,-3 4,-3 4,-1 4,-1z" /><path style="fill:#7f7f7f;stroke:#4c4c4c;stroke-width:2" d="M88,265 l-6,-1 -5,-4 -5,-5 -4,-7 -4,-9 -3,-10 -1,-11 -1,-12 0,-8 1,-7 0,-8 1,-6 -7,1 -6,4 -5,5 -5,7 -4,9 -3,10 -1,11 -1,12 1,12 1,11 3,10 4,8 4,8 6,5 5,4 6,1 59,0 0,-30 -30,0z" /><path style="fill:#7f7f7f;stroke:#4c4c4c;stroke-width:2" d="M118,59 l-118,0 29,-29 89,0 0,29z" /><path style="fill:#7f7f7f;stroke:#4c4c4c;stroke-width:2" d="M353,324 l0,-294 29,-30 0,295 -29,29z" /><path style="fill:#7f7f7f;stroke:#4c4c4c;stroke-width:2" d="M294,324 l0,-294 30,-30 0,295 -30,29z" /><path style="fill:#7f7f7f;stroke:#4c4c4c;stroke-width:2" d="M235,324 l0,-294 30,-30 0,295 -30,29z" /><path style="fill:#7f7f7f;stroke:#4c4c4c;stroke-width:2" d="M176,324 l0,-294 30,-30 0,295 -30,29z" /><path style="fill:#7f7f7f;stroke:#4c4c4c;stroke-width:2" d="M118,324 l0,-294 29,-30 0,295 -29,29z" /><path style="fill:#7f7f7f;stroke:#4c4c4c;stroke-width:2" d="M176,295 l0,-30 -29,0 -29,30 58,0z" /><path style="fill:#7f7f7f;stroke:#4c4c4c;stroke-width:2" d="M235,295 l0,-30 -29,0 -30,30 59,0z" /><path style="fill:#7f7f7f;stroke:#4c4c4c;stroke-width:2" d="M294,295 l0,-30 -29,0 -30,30 59,0z" /><path style="fill:#7f7f7f;stroke:#4c4c4c;stroke-width:2" d="M353,295 l0,-30 -29,0 -30,30 59,0z" /><path style="fill:#7f7f7f;stroke:#4c4c4c;stroke-width:2" d="M353,177 l0,-29 -29,0 -30,29 59,0z" /><path style="fill:#7f7f7f;stroke:#4c4c4c;stroke-width:2" d="M294,177 l0,-29 -29,0 -30,29 59,0z" /><path style="fill:#7f7f7f;stroke:#4c4c4c;stroke-width:2" d="M235,177 l0,-29 -29,0 -30,29 59,0z" /><path style="fill:#7f7f7f;stroke:#4c4c4c;stroke-width:2" d="M176,177 l0,-29 -29,0 -29,29 58,0z" /><path style="fill:#7f7f7f;stroke:#4c4c4c;stroke-width:2" d="M176,59 l0,-29 -29,0 -29,29 58,0z" /><path style="fill:#7f7f7f;stroke:#4c4c4c;stroke-width:2" d="M235,59 l0,-29 -29,0 -30,29 59,0z" /><path style="fill:#7f7f7f;stroke:#4c4c4c;stroke-width:2" d="M294,59 l0,-29 -29,0 -30,29 59,0z" /><path style="fill:#7f7f7f;stroke:#4c4c4c;stroke-width:2" d="M353,59 l0,-29 -29,0 -30,29 59,0z" /><path style="fill:#7f7f7f;stroke:#4c4c4c;stroke-width:2" d="M437,148 l-55,0 -29,29 59,0 7,-2 7,-6 6,-9 5,-12z" /><path style="fill:#7f7f7f" d="M471,295 l29,-30 -118,0 -29,30 118,0z" /><path style="fill:#7f7f7f" d="M427,169 l29,-29 3,-4 3,-6 3,-5 2,-7 2,-7 1,-7 1,-7 0,-8 -1,-12 -1,-11 -3,-10 -4,-9 -4,-7 -6,-5 -5,-4 -6,-1 -59,0 -29,29 59,0 6,1 5,4 5,5 5,7 3,9 3,10 1,11 1,12 0,8 -1,7 -1,8 -2,7 -2,6 -2,6 -3,5 -3,4z" /><path style="fill:none;stroke:#4c4c4c;stroke-width:2" d="M353,295 l118,0 29,-30 -118,0 -29,30" /><path style="fill:none;stroke:#4c4c4c;stroke-width:2" d="M427,169 l29,-29 3,-4 3,-6 3,-5 2,-7 2,-7 1,-7 1,-7 0,-8 -1,-12 -1,-11 -3,-10 -4,-9 -4,-7 -6,-5 -5,-4 -6,-1 -59,0 -29,29 59,0 6,1 5,4 5,5 5,7 3,9 3,10 1,11 1,12 0,8 -1,7 -1,8 -2,7 -2,6 -2,6 -3,5 -3,4" /></svg>