<!DOCTYPE svg PUBLIC "-//W3C//DTD SVG 20000303 Stylable//EN" "http://www.w3.org/TR/2000/03/WD-SVG-20000303/DTD/svg-20000303-stylable.dtd"[]><svg xmlns="http://www.w3.org/2000/svg" width="999px" height="999px" viewBox="0 0 500 500"><path style="fill:#7f7f7f;stroke:#4c4c4c;stroke-width:2" d="M0,29 l29,-29 471,0 0,471 -29,29 -471,-471z" /><path style="fill:#b2b2b2;stroke:#4c4c4c;stroke-width:2" d="M0,29 l470,0 0,471 -470,0 0,-471z" /><path style="fill:none;stroke:#4c4c4c;stroke-width:2" d="M471,29 l29,-29" /><path style="fill:none;stroke:#4c4c4c;stroke-width:2" d="M288,465 l-106,-400 1,-7 3,-7 5,-6 6,-6 8,-4 9,-3 10,-2 11,-1 11,1 10,2 9,3 7,4 7,6 5,6 3,7 1,7 -106,400 1,7 3,6 5,6 6,6 8,4 9,3 10,2 11,1 11,-1 10,-2 9,-3 7,-4 7,-6 5,-6 3,-6 1,-7" /></svg>