<!DOCTYPE svg PUBLIC "-//W3C//DTD SVG 20000303 Stylable//EN" "http://www.w3.org/TR/2000/03/WD-SVG-20000303/DTD/svg-20000303-stylable.dtd"[]><svg xmlns="http://www.w3.org/2000/svg" width="999px" height="536px" viewBox="0 0 501 255"><path style="fill:#7f7f7f;stroke:#4c4c4c;stroke-width:2" d="M0,30 l30,-30 471,0 0,59 -29,30 -472,-59z" /><path style="fill:#7f7f7f;stroke:#4c4c4c;stroke-width:2" d="M236,203 l-203,37 -6,-1 -6,-3 -5,-5 -4,-6 -4,-8 -3,-8 -1,-10 -1,-10 2,-11 4,-11 7,-12 9,-10 9,-9 9,-7 8,-5 7,-2 206,51 207,-51 6,1 5,3 5,5 5,6 3,8 3,8 1,10 1,10 -1,12 -4,12 -6,13 -7,12 -8,11 -9,9 -7,6 -7,2 -215,-47z" /><path style="fill:none;stroke:#4c4c4c;stroke-width:2" d="M472,31 l29,-31" /><path style="fill:none;stroke:#4c4c4c;stroke-width:2" d="M236,203 l28,-30" /><path style="fill:none;stroke:#4c4c4c;stroke-width:2" d="M442,152 l29,-30" /><path style="fill:none;stroke:#4c4c4c;stroke-width:2" d="M29,152 l30,-30" /><path style="fill:#b2b2b2;stroke:#4c4c4c;stroke-width:2" d="M442,255 l-206,-52 206,-51 6,1 5,3 5,5 5,6 3,8 3,8 1,10 1,10 -1,11 -1,9 -3,9 -3,8 -5,6 -5,5 -5,3 -6,1z" /><path style="fill:#b2b2b2;stroke:#4c4c4c;stroke-width:2" d="M30,255 l206,-52 -207,-51 -6,1 -5,3 -5,5 -4,6 -4,8 -3,8 -1,10 -1,10 1,11 1,9 3,9 4,8 4,6 5,5 6,3 6,1z" /><path style="fill:#b2b2b2;stroke:#4c4c4c;stroke-width:2" d="M1,90 l471,0 0,-59 -471,0 0,59z" /></svg>