<!DOCTYPE svg PUBLIC "-//W3C//DTD SVG 20000303 Stylable//EN" "http://www.w3.org/TR/2000/03/WD-SVG-20000303/DTD/svg-20000303-stylable.dtd"[]><svg xmlns="http://www.w3.org/2000/svg" width="999px" height="940px" viewBox="0 0 500 469"><path style="fill:#7f7f7f;stroke:#4c4c4c;stroke-width:2" d="M412,53 l0,148 88,0 -29,33 -206,206 -265,-206 29,-33 59,0 0,-114 29,-34 14,-11 16,-11 18,-9 18,-8 20,-6 20,-4 21,-3 21,-1 21,1 21,3 20,4 20,6 18,8 17,9 16,11 14,11z" /><path style="fill:#b2b2b2;stroke:#4c4c4c;stroke-width:2" d="M0,234 l236,235 235,-235 -89,-1 -147,148 -147,-148 -88,1z" /><path style="fill:#b2b2b2;stroke:#4c4c4c;stroke-width:2" d="M88,233 l147,148 147,-148 0,-147 -294,0 0,147z" /><path style="fill:#b2b2b2" d="M87,86 l14,-12 16,-10 18,-9 19,-8 19,-6 21,-4 21,-3 21,-1 21,1 21,3 20,4 20,6 18,8 18,9 16,10 14,12 -297,0z" /><path style="fill:none;stroke:#4c4c4c;stroke-width:2" d="M87,86 l14,-12 16,-10 18,-9 19,-8 19,-6 21,-4 21,-3 21,-1 21,1 21,3 20,4 20,6 18,8 18,9 16,10 14,12" /><path style="fill:none;stroke:#4c4c4c;stroke-width:2" d="M382,234 l30,-33" /><path style="fill:none;stroke:#4c4c4c;stroke-width:2" d="M382,87 l30,-34" /></svg>