<!DOCTYPE svg PUBLIC "-//W3C//DTD SVG 20000303 Stylable//EN" "http://www.w3.org/TR/2000/03/WD-SVG-20000303/DTD/svg-20000303-stylable.dtd"[]><svg xmlns="http://www.w3.org/2000/svg" width="999px" height="333px" viewBox="0 0 500 147"><path style="fill:#7f7f7f;stroke:#4c4c4c;stroke-width:2" d="M442,140 l10,-5 10,-8 9,-10 9,-11 8,-13 6,-12 5,-12 1,-11 -1,-10 -2,-9 -4,-9 -5,-8 -7,-7 -7,-6 -9,-5 -9,-4 -383,0 -10,4 -11,7 -11,8 -10,10 -9,11 -7,11 -5,11 -2,11 1,10 2,9 4,9 5,9 7,7 7,6 9,5 9,4 390,8z" /><path style="fill:#b2b2b2;stroke:#4c4c4c;stroke-width:2" d="M427,147 l9,-4 9,-5 7,-7 7,-7 5,-8 4,-9 2,-9 1,-10 -1,-10 -2,-9 -4,-9 -5,-9 -7,-7 -7,-6 -9,-5 -9,-4 -383,0 -9,4 -9,5 -7,6 -7,7 -5,9 -4,9 -2,9 -1,10 1,10 2,9 4,9 5,8 7,7 7,7 9,5 9,4 383,0z" /><path style="fill:none;stroke:#4c4c4c;stroke-width:2" d="M427,29 l29,-29" /><path style="fill:none;stroke:#4c4c4c;stroke-width:2" d="M44,29 l30,-29" /><path style="fill:none;stroke:#4c4c4c;stroke-width:2" d="M44,147 l0,-118" /><path style="fill:none;stroke:#4c4c4c;stroke-width:2" d="M427,29 l0,118" /></svg>