<!DOCTYPE svg PUBLIC "-//W3C//DTD SVG 20000303 Stylable//EN" "http://www.w3.org/TR/2000/03/WD-SVG-20000303/DTD/svg-20000303-stylable.dtd"[]><svg xmlns="http://www.w3.org/2000/svg" width="999px" height="902px" viewBox="0 0 500 449"><path style="fill:#7f7f7f;stroke:#4c4c4c;stroke-width:2" d="M357,220 l-31,31 -182,-182 32,-31 10,-9 10,-7 11,-7 11,-5 12,-4 12,-3 12,-2 13,-1 12,1 12,2 12,3 12,4 11,5 11,7 10,7 10,9 9,10 7,10 7,11 5,11 4,12 3,12 2,13 1,12 -1,12 -2,13 -3,12 -4,11 -5,12 -7,11 -7,10 -9,10z" /><path style="fill:#7f7f7f;stroke:#4c4c4c;stroke-width:2" d="M500,420 l0,-236 -107,-62 -28,29 105,63 0,235 30,-29z" /><path style="fill:#7f7f7f;stroke:#4c4c4c;stroke-width:2" d="M470,449 l-470,0 0,-235 29,-30 0,236 441,0 0,29z" /><path style="fill:none;stroke:#4c4c4c;stroke-width:2" d="M470,213 l30,-29" /><path style="fill:none;stroke:#4c4c4c;stroke-width:2" d="M0,449 l29,-29" /><circle style="fill:#b2b2b2;stroke:#4c4c4c;stroke-width:2" cx="235" cy="158" r="128" /></svg>