<!DOCTYPE svg PUBLIC "-//W3C//DTD SVG 20000303 Stylable//EN" "http://www.w3.org/TR/2000/03/WD-SVG-20000303/DTD/svg-20000303-stylable.dtd"[]><svg xmlns="http://www.w3.org/2000/svg" width="999px" height="778px" viewBox="0 0 500 383"><path style="fill:#7f7f7f;stroke:#4c4c4c;stroke-width:2" d="M0,170 l29,-29 45,0 0,-111 29,-29 33,0 0,58 228,0 0,-29 30,-29 32,0 0,73 41,67 33,0 0,73 -29,28 -22,0 -23,38 0,73 -29,30 -33,-59 -228,0 0,29 -29,30 -26,-59 -81,-154z" /><path style="fill:#b2b2b2;stroke:#4c4c4c;stroke-width:2" d="M0,243 l0,-74 34,0 48,-80 308,0 48,80 33,0 0,74 -33,0 -48,81 -308,0 -48,-81 -34,0z" /><path style="fill:#b2b2b2;stroke:#4c4c4c;stroke-width:2" d="M364,30 l33,0 0,353 -33,0 0,-353z" /><path style="fill:#b2b2b2;stroke:#4c4c4c;stroke-width:2" d="M73,30 l34,0 0,353 -34,0 0,-353z" /><path style="fill:none;stroke:#4c4c4c;stroke-width:2" d="M397,309 l30,-29" /><path style="fill:none;stroke:#4c4c4c;stroke-width:2" d="M437,170 l30,-30" /><path style="fill:none;stroke:#4c4c4c;stroke-width:2" d="M471,170 l29,-30" /><path style="fill:none;stroke:#4c4c4c;stroke-width:2" d="M107,30 l29,-30" /><path style="fill:none;stroke:#4c4c4c;stroke-width:2" d="M107,89 l29,-30" /><path style="fill:none;stroke:#4c4c4c;stroke-width:2" d="M397,30 l30,-30" /><path style="fill:none;stroke:#4c4c4c;stroke-width:2" d="M397,103 l30,-29" /></svg>