<!DOCTYPE svg PUBLIC "-//W3C//DTD SVG 20000303 Stylable//EN" "http://www.w3.org/TR/2000/03/WD-SVG-20000303/DTD/svg-20000303-stylable.dtd"[]><svg xmlns="http://www.w3.org/2000/svg" width="403px" height="999px" viewBox="0 0 184 500"><path style="fill:#7f7f7f;stroke:#4c4c4c;stroke-width:2" d="M184,443 l0,-415 -5,-6 -6,-6 -9,-4 -9,-4 -11,-4 -12,-2 -12,-1 -13,-1 -13,0 -11,1 -12,3 -12,4 -12,7 -14,10 -15,14 -18,18 31,386 5,7 6,8 7,9 9,8 10,8 11,7 12,4 13,2 13,-2 13,-4 12,-7 11,-8 11,-8 8,-9 7,-8 5,-7z" /><path style="fill:#b2b2b2;stroke:#4c4c4c;stroke-width:2" d="M152,473 l0,-415 -4,-6 -7,-6 -8,-4 -9,-4 -11,-4 -12,-2 -12,-1 -13,-1 -13,1 -12,1 -12,2 -10,4 -10,4 -8,4 -6,6 -5,6 0,415 5,6 6,5 8,5 10,3 10,4 12,2 12,1 13,1 13,-1 12,-1 12,-2 11,-4 9,-3 8,-5 7,-5 4,-6z" /><path style="fill:none;stroke:#4c4c4c;stroke-width:2" d="M87,257 l22,0" /><path style="fill:none;stroke:#4c4c4c;stroke-width:2" d="M131,257 l21,0" /><path style="fill:none;stroke:#4c4c4c;stroke-width:2" d="M0,259 l21,0" /><path style="fill:none;stroke:#4c4c4c;stroke-width:2" d="M43,259 l23,0" /><path style="fill:none;stroke:#4c4c4c;stroke-width:2" d="M87,400 l22,0" /><path style="fill:none;stroke:#4c4c4c;stroke-width:2" d="M131,400 l21,0" /><path style="fill:none;stroke:#4c4c4c;stroke-width:2" d="M0,401 l21,0" /><path style="fill:none;stroke:#4c4c4c;stroke-width:2" d="M43,401 l23,0" /><path style="fill:none;stroke:#4c4c4c;stroke-width:2" d="M87,115 l22,0" /><path style="fill:none;stroke:#4c4c4c;stroke-width:2" d="M131,115 l21,0" /><path style="fill:none;stroke:#4c4c4c;stroke-width:2" d="M0,117 l21,0" /><path style="fill:none;stroke:#4c4c4c;stroke-width:2" d="M43,117 l23,0" /><path style="fill:none;stroke:#4c4c4c;stroke-width:2" d="M152,473 l32,-30" /><path style="fill:none;stroke:#4c4c4c;stroke-width:2" d="M152,58 l32,-30" /><path style="fill:none;stroke:#4c4c4c;stroke-width:2" d="M152,115 l6,-5" /><path style="fill:none;stroke:#4c4c4c;stroke-width:2" d="M177,92 l7,-7" /><path style="fill:none;stroke:#4c4c4c;stroke-width:2" d="M164,104 l9,-8" /><path style="fill:none;stroke:#4c4c4c;stroke-width:2" d="M152,258 l6,-6" /><path style="fill:none;stroke:#4c4c4c;stroke-width:2" d="M177,234 l7,-6" /><path style="fill:none;stroke:#4c4c4c;stroke-width:2" d="M164,247 l9,-9" /><path style="fill:none;stroke:#4c4c4c;stroke-width:2" d="M152,400 l6,-6" /><path style="fill:none;stroke:#4c4c4c;stroke-width:2" d="M177,377 l7,-7" /><path style="fill:none;stroke:#4c4c4c;stroke-width:2" d="M164,389 l9,-8" /></svg>