<!DOCTYPE svg PUBLIC "-//W3C//DTD SVG 20000303 Stylable//EN" "http://www.w3.org/TR/2000/03/WD-SVG-20000303/DTD/svg-20000303-stylable.dtd"[]><svg xmlns="http://www.w3.org/2000/svg" width="557px" height="999px" viewBox="0 0 266 500"><path style="fill:#7f7f7f;stroke:#4c4c4c;stroke-width:2" d="M1,29 l29,-29 236,0 0,257 -30,30 -235,-258z" /><path style="fill:#b2b2b2;stroke:#4c4c4c;stroke-width:2" d="M0,29 l235,0 0,259 -235,0 0,-259z" /><path style="fill:#b2b2b2;stroke:#4c4c4c;stroke-width:2" d="M0,288 l117,94 118,-94 -235,0z" /><path style="fill:none;stroke:#4c4c4c;stroke-width:2" d="M117,382 l0,47" /><path style="fill:none;stroke:#4c4c4c;stroke-width:2" d="M235,30 l31,-30" /><circle style="fill:#7f7f7f" cx="118" cy="463" r="36" /><circle style="fill:#999" cx="118" cy="463" r="33" /><circle style="fill:#b2b2b2" cx="118" cy="463" r="28" /><circle style="fill:#ccc" cx="119" cy="463" r="21" /><circle style="fill:#e5e5e5" cx="119" cy="463" r="15" /><circle style="fill:none;stroke:#4c4c4c;stroke-width:2" cx="118" cy="463" r="36" /><circle style="fill:#fff" cx="118" cy="463" r="8" /></svg>