<!DOCTYPE svg PUBLIC "-//W3C//DTD SVG 20000303 Stylable//EN" "http://www.w3.org/TR/2000/03/WD-SVG-20000303/DTD/svg-20000303-stylable.dtd"[]><svg xmlns="http://www.w3.org/2000/svg" width="999px" height="999px" viewBox="0 0 501 501"><path style="fill:#7f7f7f;stroke:#4c4c4c;stroke-width:2" d="M432,402 l-30,30 -333,-333 30,-30 8,-8 9,-7 9,-7 9,-7 10,-6 10,-6 10,-5 11,-5 11,-4 11,-4 11,-3 11,-2 11,-2 12,-2 11,-1 12,0 24,1 23,4 23,6 22,8 20,10 20,11 18,14 17,15 15,17 14,18 11,20 10,20 8,22 6,23 4,23 1,24 0,12 -1,11 -2,12 -2,11 -2,11 -3,11 -4,11 -4,11 -5,11 -5,10 -6,10 -6,10 -7,9 -7,9 -7,9 -8,8z" /><circle style="fill:#b2b2b2;stroke:#4c4c4c;stroke-width:2" cx="236" cy="265" r="236" /><path style="fill:none;stroke:#4c4c4c;stroke-width:2" d="M3,236 l466,0" /><path style="fill:none;stroke:#4c4c4c;stroke-width:2" d="M3,295 l466,0" /><path style="fill:none;stroke:#4c4c4c;stroke-width:2" d="M468,295 l31,-31" /><path style="fill:none;stroke:#4c4c4c;stroke-width:2" d="M468,236 l31,-31" /></svg>