<!DOCTYPE svg PUBLIC "-//W3C//DTD SVG 20000303 Stylable//EN" "http://www.w3.org/TR/2000/03/WD-SVG-20000303/DTD/svg-20000303-stylable.dtd"[]><svg xmlns="http://www.w3.org/2000/svg" width="999px" height="778px" viewBox="0 0 498 382"><ellipse style="fill:#7f7f7f;stroke:#4c4c4c;stroke-width:2" cx="197" cy="176" rx="183" ry="176" /><path style="fill:#7f7f7f;stroke:#4c4c4c;stroke-width:2" d="M469,206 l-2,-1 -5,-4 -9,-6 -11,-8 -13,-9 -14,-11 -16,-12 -16,-12 -16,-12 -16,-12 -14,-11 -13,-10 -11,-8 -9,-6 -5,-5 -2,-1 -5,-3 1,-4 3,-5 6,-6 7,-5 7,-5 5,-2 3,-1 174,129 -29,30z" /><circle style="fill:#b2b2b2;stroke:#4c4c4c;stroke-width:2" cx="176" cy="206" r="176" /><path style="fill:#b2b2b2;stroke:#4c4c4c;stroke-width:2" d="M293,335 l13,-13 12,-14 10,-15 9,-16 6,-17 5,-17 3,-18 1,-19 -1,-18 -3,-18 -5,-18 -6,-17 -8,-16 -10,-15 -12,-14 -13,-13 175,129 -176,129z" /></svg>