<!DOCTYPE svg PUBLIC "-//W3C//DTD SVG 20000303 Stylable//EN" "http://www.w3.org/TR/2000/03/WD-SVG-20000303/DTD/svg-20000303-stylable.dtd"[]><svg xmlns="http://www.w3.org/2000/svg" width="999px" height="333px" viewBox="0 0 500 147"><path style="fill:#7f7f7f;stroke:#4c4c4c;stroke-width:2" d="M0,40 l29,-29 37,0 11,-11 22,0 0,11 320,0 11,-11 22,0 0,11 48,0 0,96 -29,29 -37,0 -11,11 -22,-11 -320,0 -11,11 -70,-107z" /><path style="fill:#b2b2b2;stroke:#4c4c4c;stroke-width:2" d="M0,40 l471,0 0,96 -471,0 0,-96z" /><path style="fill:#b2b2b2;stroke:#4c4c4c;stroke-width:2" d="M47,30 l23,0 0,117 -23,0 0,-117z" /><path style="fill:#b2b2b2;stroke:#4c4c4c;stroke-width:2" d="M400,30 l24,0 0,117 -24,0 0,-117z" /><path style="fill:none;stroke:#4c4c4c;stroke-width:2" d="M48,29 l29,-29" /><path style="fill:none;stroke:#4c4c4c;stroke-width:2" d="M70,29 l29,-29" /><path style="fill:none;stroke:#4c4c4c;stroke-width:2" d="M70,40 l29,-29" /><path style="fill:none;stroke:#4c4c4c;stroke-width:2" d="M401,29 l29,-29" /><path style="fill:none;stroke:#4c4c4c;stroke-width:2" d="M423,29 l29,-29" /><path style="fill:none;stroke:#4c4c4c;stroke-width:2" d="M423,40 l29,-29" /><path style="fill:none;stroke:#4c4c4c;stroke-width:2" d="M471,40 l29,-29" /></svg>