<!DOCTYPE svg PUBLIC "-//W3C//DTD SVG 20000303 Stylable//EN" "http://www.w3.org/TR/2000/03/WD-SVG-20000303/DTD/svg-20000303-stylable.dtd"[]><svg xmlns="http://www.w3.org/2000/svg" width="396px" height="999px" viewBox="0 0 178 491"><path style="fill:#7f7f7f;stroke:#4c4c4c;stroke-width:2" d="M178,435 l0,-407 -4,-6 -7,-6 -7,-4 -10,-4 -10,-4 -12,-2 -12,-1 -13,-1 -13,1 -12,1 -12,2 -10,3 -10,4 -8,5 -6,5 -5,6 -24,25 24,383 5,6 7,8 8,9 11,8 11,8 12,6 13,4 13,2 12,-2 12,-4 11,-6 10,-8 9,-8 7,-9 6,-8 4,-6z" /><path style="fill:#b2b2b2;stroke:#4c4c4c;stroke-width:2" d="M150,464 l0,-407 -4,-6 -7,-5 -7,-5 -10,-4 -10,-3 -12,-2 -12,-1 -13,-1 -13,1 -12,1 -11,2 -11,3 -9,4 -8,5 -7,5 -4,6 0,407 4,6 7,5 8,5 9,3 11,4 11,2 12,1 13,1 13,-1 12,-1 12,-2 10,-4 10,-3 7,-5 7,-5 4,-6z" /><path style="fill:none;stroke:#4c4c4c;stroke-width:2" d="M150,464 l28,-29" /><path style="fill:none;stroke:#4c4c4c;stroke-width:2" d="M150,57 l28,-29" /></svg>