<!DOCTYPE svg PUBLIC "-//W3C//DTD SVG 20000303 Stylable//EN" "http://www.w3.org/TR/2000/03/WD-SVG-20000303/DTD/svg-20000303-stylable.dtd"[]><svg xmlns="http://www.w3.org/2000/svg" width="999px" height="667px" viewBox="0 0 500 324"><path style="fill:#7f7f7f;stroke:#4c4c4c;stroke-width:2" d="M29,295 l159,-236 30,-30 58,-29 6,77 53,17 6,59 53,24 30,53 52,29 24,36 -30,28 -441,-28z" /><path style="fill:#b2b2b2;stroke:#4c4c4c;stroke-width:2" d="M0,324 l188,-265 59,-30 6,77 53,17 6,59 53,24 29,53 53,30 24,35 -471,0z" /><path style="fill:none;stroke:#4c4c4c;stroke-width:2" d="M248,29 l28,-29" /><path style="fill:none;stroke:#4c4c4c;stroke-width:2" d="M253,106 l29,-29" /><path style="fill:none;stroke:#4c4c4c;stroke-width:2" d="M306,124 l29,-29" /><path style="fill:none;stroke:#4c4c4c;stroke-width:2" d="M312,182 l29,-28" /><path style="fill:none;stroke:#4c4c4c;stroke-width:2" d="M365,205 l29,-28" /><path style="fill:none;stroke:#4c4c4c;stroke-width:2" d="M395,260 l28,-30" /><path style="fill:none;stroke:#4c4c4c;stroke-width:2" d="M447,288 l29,-28" /></svg>