<!DOCTYPE svg PUBLIC "-//W3C//DTD SVG 20000303 Stylable//EN" "http://www.w3.org/TR/2000/03/WD-SVG-20000303/DTD/svg-20000303-stylable.dtd"[]><svg xmlns="http://www.w3.org/2000/svg" width="999px" height="825px" viewBox="0 0 500 408"><path style="fill:#7f7f7f;stroke:#4c4c4c;stroke-width:2" d="M0,33 l29,-33 96,0 0,95 327,0 0,48 48,0 0,96 -29,29 -19,0 0,19 -25,25 -302,0 0,67 -30,29 -95,-375z" /><path style="fill:#b2b2b2;stroke:#4c4c4c;stroke-width:2" d="M0,31 l94,0 0,377 -94,0 0,-377z" /><path style="fill:#b2b2b2;stroke:#4c4c4c;stroke-width:2" d="M94,126 l330,0 0,188 -330,0 0,-188z" /><path style="fill:#b2b2b2;stroke:#4c4c4c;stroke-width:2" d="M424,173 l47,0 0,94 -47,0 0,-94z" /><path style="fill:none;stroke:#4c4c4c;stroke-width:2" d="M500,143 l-29,30" /><path style="fill:none;stroke:#4c4c4c;stroke-width:2" d="M452,143 l-29,30" /><path style="fill:none;stroke:#4c4c4c;stroke-width:2" d="M452,95 l-29,30" /><path style="fill:none;stroke:#4c4c4c;stroke-width:2" d="M125,95 l-30,30" /><path style="fill:none;stroke:#4c4c4c;stroke-width:2" d="M125,0 l-30,29" /></svg>