<!DOCTYPE svg PUBLIC "-//W3C//DTD SVG 20000303 Stylable//EN" "http://www.w3.org/TR/2000/03/WD-SVG-20000303/DTD/svg-20000303-stylable.dtd"[]><svg xmlns="http://www.w3.org/2000/svg" width="999px" height="677px" viewBox="0 0 999 658"><path style="fill:#000;stroke:#4c4c4c;stroke-width:2" d="M179,25 l687,0 0,344 -687,0 0,-344z" /><path style="fill:#7f7f7f" d="M999,658 l-999,0 0,-66 999,0 0,66z" /><path style="fill:#b2b2b2" d="M999,652 l-999,0 0,-54 999,0 0,54z" /><path style="fill:#e5e5e5" d="M999,644 l-999,0 0,-38 999,0 0,38z" /><path style="fill:#fff" d="M999,632 l-999,0 0,-14 999,0 0,14z" /><path style="fill:none;stroke:#4c4c4c;stroke-width:2" d="M999,592 l-999,0" /><path style="fill:none;stroke:#4c4c4c;stroke-width:2" d="M0,658 l999,0" /><path style="fill:#7f7f7f" d="M470,524 l0,68 -34,0 0,66 134,0 0,-66 -32,0 0,-68 -68,0z" /><path style="fill:#b2b2b2" d="M476,524 l0,74 -40,0 0,54 134,0 0,-54 -40,0 0,-74 -54,0z" /><path style="fill:#e5e5e5" d="M486,524 l0,84 -50,0 0,36 134,0 0,-36 -48,0 0,-84 -36,0z" /><path style="fill:#fff" d="M498,524 l0,96 -62,0 0,12 134,0 0,-12 -60,0 0,-96 -12,0z" /><path style="fill:none;stroke:#4c4c4c;stroke-width:2" d="M470,524 l0,68 -34,0" /><path style="fill:none;stroke:#4c4c4c;stroke-width:2" d="M538,524 l0,68 32,0" /><path style="fill:none;stroke:#4c4c4c;stroke-width:2" d="M570,658 l-134,0" /><path style="fill:#7f7f7f" d="M536,339 l0,233 -66,0 0,-233 66,0z" /><path style="fill:#b2b2b2" d="M530,339 l0,233 -54,0 0,-233 54,0z" /><path style="fill:#e5e5e5" d="M522,339 l0,233 -36,0 0,-233 36,0z" /><path style="fill:#fff" d="M510,339 l0,233 -12,0 0,-233 12,0z" /><path style="fill:none;stroke:#4c4c4c;stroke-width:2" d="M470,339 l0,233" /><path style="fill:none;stroke:#4c4c4c;stroke-width:2" d="M536,572 l0,-233" /><path style="fill:#7f7f7f;stroke:#4c4c4c;stroke-width:2" d="M156,1 l688,0 0,346 -688,0 0,-346z" /><path style="fill:#000" d="M496,342 l7,0 336,-335 -7,-7 -336,335 7,0 -7,7 4,4 3,-4z" /><path style="fill:#000" d="M162,3 l-3,4 337,335 7,-7 -337,-335 -4,3z" /></svg>