<!DOCTYPE svg PUBLIC "-//W3C//DTD SVG 20000303 Stylable//EN" "http://www.w3.org/TR/2000/03/WD-SVG-20000303/DTD/svg-20000303-stylable.dtd"[]><svg xmlns="http://www.w3.org/2000/svg" width="999px" height="333px" viewBox="0 0 500 147"><path style="fill:#7f7f7f;stroke:#4c4c4c;stroke-width:2" d="M0,29 l29,-29 471,0 0,118 -29,29 -471,-118z" /><path style="fill:#b2b2b2;stroke:#4c4c4c;stroke-width:2" d="M471,30 l-23,0 -21,0 -21,0 -20,0 -21,0 -21,0 -22,0 -24,0 -26,0 -28,0 -31,0 -34,0 -38,0 -42,0 -47,0 -52,0 0,117 471,0 0,-117z" /><path style="fill:none;stroke:#4c4c4c;stroke-width:2" d="M471,88 l29,-29" /><path style="fill:none;stroke:#4c4c4c;stroke-width:2" d="M471,29 l29,-29" /><path style="fill:none;stroke:#4c4c4c;stroke-width:2" d="M382,29 l30,-29" /><path style="fill:none;stroke:#4c4c4c;stroke-width:2" d="M265,29 l29,-29" /><path style="fill:none;stroke:#4c4c4c;stroke-width:2" d="M151,29 l29,-29" /><path style="fill:none;stroke:#4c4c4c;stroke-width:2" d="M33,29 l30,-29" /><path style="fill:none;stroke:#4c4c4c;stroke-width:2" d="M471,89 l-471,0" /><path style="fill:none;stroke:#4c4c4c;stroke-width:2" d="M471,88 l-32,59 -58,-117 -58,117 -59,-117 -57,117 -58,-117 -58,117 -58,-117 -33,58" /></svg>