<!DOCTYPE svg PUBLIC "-//W3C//DTD SVG 20000303 Stylable//EN" "http://www.w3.org/TR/2000/03/WD-SVG-20000303/DTD/svg-20000303-stylable.dtd"[]><svg xmlns="http://www.w3.org/2000/svg" width="999px" height="282px" viewBox="0 0 500 120"><path style="fill:#7f7f7f;stroke:#4c4c4c;stroke-width:2" d="M469,82 l-34,35 -1,1 -2,1 -1,1 -2,0 -3,-1 -2,-2 -1,-2 -1,-3 0,-1 0,-2 1,-1 1,-1 34,-35 1,-1 1,0 2,-1 1,0 3,1 3,1 1,2 1,3 0,1 -1,2 0,1 -1,1z" /><path style="fill:#7f7f7f;stroke:#4c4c4c;stroke-width:2" d="M77,82 l-35,35 -1,1 -1,1 -2,1 -1,0 -3,-1 -2,-2 -2,-2 -1,-3 0,-1 1,-2 1,-1 1,-1 34,-35 1,-1 1,0 2,-1 1,0 3,1 3,1 1,2 1,3 0,1 -1,2 0,1 -1,1z" /><path style="fill:#7f7f7f;stroke:#4c4c4c;stroke-width:2" d="M500,56 l-34,35 -10,-6 -11,-6 -12,-6 -12,-6 -13,-4 -14,-5 -14,-4 -15,-4 -15,-4 -16,-3 -16,-2 -17,-2 -16,-2 -17,-1 -18,-1 -17,0 -17,0 -18,1 -17,1 -16,2 -17,2 -16,2 -16,3 -15,4 -15,4 -14,4 -14,5 -13,4 -12,6 -12,6 -11,6 -10,6 34,-35 10,-6 11,-6 12,-6 12,-5 14,-5 13,-5 15,-4 15,-4 15,-3 16,-3 16,-3 16,-2 17,-2 17,-1 17,-1 17,0 17,0 18,1 17,1 16,2 17,2 16,3 16,3 15,3 15,4 14,4 14,5 13,5 12,5 12,6 11,6 10,6z" /><circle style="fill:#b2b2b2;stroke:#4c4c4c;stroke-width:2" cx="429" cy="112" r="7" /><circle style="fill:#b2b2b2;stroke:#4c4c4c;stroke-width:2" cx="37" cy="112" r="8" /></svg>