<!DOCTYPE svg PUBLIC "-//W3C//DTD SVG 20000303 Stylable//EN" "http://www.w3.org/TR/2000/03/WD-SVG-20000303/DTD/svg-20000303-stylable.dtd"[]><svg xmlns="http://www.w3.org/2000/svg" width="999px" height="887px" viewBox="0 0 500 441"><path style="fill:#7f7f7f;stroke:#4c4c4c;stroke-width:2" d="M396,313 l-13,12 -14,11 -16,9 -16,8 -18,6 -17,4 -19,3 -18,1 -18,-1 -18,-3 -18,-4 -17,-6 -17,-8 -16,-9 -15,-11 -14,-12 -103,99 442,29 29,-29 -104,-99z" /><ellipse style="fill:#7f7f7f;stroke:#4c4c4c;stroke-width:2" cx="264" cy="183" rx="188" ry="183" /><path style="fill:#b2b2b2;stroke:#4c4c4c;stroke-width:2" d="M367,342 l-13,12 -15,11 -16,9 -16,8 -18,6 -17,4 -19,3 -18,1 -18,-1 -18,-3 -18,-4 -17,-6 -17,-8 -15,-9 -15,-11 -14,-12 -103,99 471,0 -104,-99z" /><ellipse style="fill:#b2b2b2;stroke:#4c4c4c;stroke-width:2" cx="235" cy="212" rx="189" ry="183" /></svg>