<!DOCTYPE svg PUBLIC "-//W3C//DTD SVG 20000303 Stylable//EN" "http://www.w3.org/TR/2000/03/WD-SVG-20000303/DTD/svg-20000303-stylable.dtd"[]><svg xmlns="http://www.w3.org/2000/svg" width="999px" height="867px" viewBox="0 0 498 429"><path style="fill:#7f7f7f;stroke:#4c4c4c;stroke-width:2" d="M498,341 l0,-341 -468,0 -29,30 0,7 2,15 2,20 3,25 3,28 4,32 4,33 4,34 5,34 4,33 5,30 5,26 4,23 4,17 3,10 3,3 4,-3 5,-5 5,-7 7,-9 6,-9 6,-10 6,-8 5,-8 305,27 2,6 4,6 6,5 8,4 8,4 8,3 7,2 6,1 3,-2 5,-4 6,-7 7,-8 6,-9 7,-10 5,-9 5,-9z" /><path style="fill:#b2b2b2;stroke:#4c4c4c;stroke-width:2" d="M469,371 l0,-341 -469,0 0,341 1,7 2,6 3,6 4,5 6,5 6,3 6,2 7,1 7,-1 7,-2 6,-3 6,-5 4,-5 3,-6 2,-6 1,-7 70,0 93,58 94,-58 71,0 1,7 2,6 3,6 4,5 6,5 6,3 6,2 7,1 7,-1 7,-2 6,-3 5,-5 4,-5 3,-6 2,-6 1,-7z" /><path style="fill:#b2b2b2;fill-rule:evenodd" d="M135,183 l24,5 0,-5 0,-1 0,-1 0,-5 -24,7z M94,100 l-23,0 0,188 93,0 -70,-188z M375,100 l24,0 0,188 -94,0 70,-188z M334,183 l-23,-7 0,12 23,-5z M159,183 l152,0 -152,0z M235,183 l0,-153 0,153z M469,30 l29,-30 -29,30z M235,30 l30,-30 -30,30z M71,370 l0,-18 0,18z M399,370 l0,-18 0,18z " /><path style="fill:none;stroke:#4c4c4c;stroke-width:2" d="M135,183 l24,5 0,-5 0,-1 0,-1 0,-5 -24,7" /><path style="fill:none;stroke:#4c4c4c;stroke-width:2" d="M94,100 l-23,0 0,188 93,0" /><path style="fill:none;stroke:#4c4c4c;stroke-width:2" d="M375,100 l24,0 0,188 -94,0" /><path style="fill:none;stroke:#4c4c4c;stroke-width:2" d="M334,183 l-23,-7 0,12 23,-5" /><path style="fill:none;stroke:#4c4c4c;stroke-width:2" d="M159,183 l152,0" /><path style="fill:none;stroke:#4c4c4c;stroke-width:2" d="M235,183 l0,-153" /><path style="fill:none;stroke:#4c4c4c;stroke-width:2" d="M469,30 l29,-30" /><path style="fill:none;stroke:#4c4c4c;stroke-width:2" d="M235,30 l30,-30" /><path style="fill:none;stroke:#4c4c4c;stroke-width:2" d="M71,370 l0,-18" /><path style="fill:none;stroke:#4c4c4c;stroke-width:2" d="M399,370 l0,-18" /></svg>