<!DOCTYPE svg PUBLIC "-//W3C//DTD SVG 20000303 Stylable//EN" "http://www.w3.org/TR/2000/03/WD-SVG-20000303/DTD/svg-20000303-stylable.dtd"[]><svg xmlns="http://www.w3.org/2000/svg" width="999px" height="514px" viewBox="0 0 500 243"><path style="fill:#7f7f7f;stroke:#4c4c4c;stroke-width:2" d="M0,30 l29,-30 471,0 0,214 -29,29 -471,-213z" /><path style="fill:#b2b2b2;stroke:#4c4c4c;stroke-width:2" d="M0,30 l471,0 0,213 -471,0 0,-213z" /><path style="fill:none;stroke:#4c4c4c;stroke-width:2" d="M471,30 l29,-30" /><path style="fill:none;stroke:#4c4c4c;stroke-width:2" d="M70,139 l8,-7 9,-7 10,-5 10,-5 11,-4 11,-3 11,-1 12,-1 12,1 12,1 11,3 11,4 10,5 10,5 9,7 8,7" /><path style="fill:none;stroke:#4c4c4c;stroke-width:2" d="M402,139 l-9,8 -9,7 -10,6 -10,5 -11,4 -11,3 -12,1 -11,1 -12,-1 -11,-1 -11,-3 -11,-4 -11,-5 -10,-6 -9,-7 -9,-8" /></svg>