<!DOCTYPE svg PUBLIC "-//W3C//DTD SVG 1.1//EN" "http://www.w3.org/Graphics/SVG/1.1/DTD/svg11.dtd"[]><svg version="1.1" xmlns="http://www.w3.org/2000/svg" xmlns:xlink="http://www.w3.org/1999/xlink" width="112px" height="103px" viewBox="0 0 112.5 103.154" enable-background="new 0 0 112.5 103.154" xml:space="preserve">
<g id="Group_BoilerBody">
	<linearGradient id="SVGID_1_" gradientUnits="userSpaceOnUse" x1="33.7837" y1="19.2422" x2="78.3789" y2="19.2422">
		<stop offset="0" style="stop-color:#383838" />
		<stop offset="0.01" style="stop-color:#3B3B3B" />
		<stop offset="0.25" style="stop-color:#757575" />
		<stop offset="0.42" style="stop-color:#989898" />
		<stop offset="0.51" style="stop-color:#A6A6A6" />
		<stop offset="0.69" style="stop-color:#818181" />
		<stop offset="1" style="stop-color:#383838" />
	</linearGradient>
	<path fill="url(#SVGID_1_)" d="M33.784,38.485V0h44.595v38.485H33.784z" />
	<linearGradient id="SVGID_2_" gradientUnits="userSpaceOnUse" x1="12.7251" y1="70.8193" x2="99.6621" y2="70.8193">
		<stop offset="0" style="stop-color:#383838" />
		<stop offset="0.01" style="stop-color:#3B3B3B" />
		<stop offset="0.25" style="stop-color:#757575" />
		<stop offset="0.42" style="stop-color:#989898" />
		<stop offset="0.51" style="stop-color:#A6A6A6" />
		<stop offset="0.69" style="stop-color:#818181" />
		<stop offset="1" style="stop-color:#383838" />
	</linearGradient>
	<path fill="url(#SVGID_2_)" d="M12.725,103.153V51.69c0,0,32.929-13.205,43.975-13.205c10.688,0,42.962,13.205,42.962,13.205   v51.463H12.725" />
	<linearGradient id="SVGID_3_" gradientUnits="userSpaceOnUse" x1="12.7251" y1="43.4131" x2="99.6621" y2="43.4131">
		<stop offset="0" style="stop-color:#383838" />
		<stop offset="0.5" style="stop-color:#ECECEC" />
		<stop offset="0.57" style="stop-color:#D9D9D9" />
		<stop offset="0.71" style="stop-color:#A8A8A8" />
		<stop offset="0.92" style="stop-color:#5A5A5A" />
		<stop offset="1" style="stop-color:#383838" />
	</linearGradient>
	<path fill="url(#SVGID_3_)" d="M12.725,51.69l21.059-16.554h44.595L99.662,51.69H12.725z" />
</g>
<g id="Group_CombustionChamber">
	<path fill="#336666" d="M15.203,53.829h81.982v46.848H15.203V53.829z" />
</g>
<g id="Group_Fire">
	<path fill="#FFFF00" d="M24.437,86.6l-0.901,1.126c0,0-2.219-7.228-2.365-8.333c-0.262-1.989-0.676-7.995-0.676-7.995l-2.027,9.572   c0,0-1.726-1.418-2.14-2.027c-0.255-0.376-0.675-1.689-0.675-1.689s-0.451,14.953,2.365,19.482c0.937,1.508,6.419,3.04,6.419,3.04   l9.347,0.901c0,0,32.676-0.226,42.68-0.563c2.296-0.077,9.009-1.802,9.009-1.802s2.985,0.713,3.941,0.45   c1.705-0.468,4.767-2.737,5.631-4.279c1.129-2.014,2.027-6.7,2.027-9.009c0-4.428-2.252-17.567-2.252-17.567l-1.014,5.292   c-1.584,0.372-3.941-5.18-3.941-5.18s-0.226,1.863,0.225,4.73c0.496,3.162,2.365,6.869,2.365,6.869l-5.743,9.009   c0,0-0.416-2.442-0.45-3.267c-0.134-3.199,1.689-5.742,1.689-5.742s-1.07-0.65-1.239-1.014c-0.854-1.839,0.112-8.108,0.112-8.108   s-5.236,0.135-6.081,4.392c-0.782,3.941,2.364,9.572,2.364,9.572c-2.481-1.301-2.477-3.941-2.477-3.941s-1.296,0.808-0.338,4.393   c0.285,1.066,0.45,8.896,0.45,8.896S79.388,90.5,79.504,86.6c0.039-1.315-0.9-1.577-0.9-1.577l-4.842,6.307   c0,0,1.854-5.127,2.364-6.869c1.002-3.424,2.543-6.269,1.126-7.545c-3.708-3.34-3.49-6.645-3.49-6.645s-4.334,3.5-4.955,5.181   c-0.714,1.931,0.675,6.176,0.45,8.221c-0.379,3.447-6.644,2.364-6.644,2.364s2.734-4.404,2.928-6.08   c0.148-1.29-2.155-5.982-2.816-7.996c-0.772-2.355-1.191-7.394-2.139-9.685c-0.248-0.6-1.465-2.14-1.465-2.14   s-0.486,2.982-0.787,3.941c-0.326,1.039-3.077,3.07-3.625,8.589c-0.542,5.458,2.471,7.202,2.529,9.71   c0.025,1.094-2.396,3.66-2.396,3.66s-2.124-2.959-1.577-7.432c0.027-0.226-0.797-0.496-1.703,0.957   c-1.233,1.977-0.211,3.772-0.211,3.772s-0.899-0.855-1.014-1.239c-1.088-3.639,0.005-5.526,0.676-7.207   c1.403-3.515,0.45-9.009,0.45-9.009l-4.054,4.729l-5.405-3.378c0,0-1.671,1.685-1.754,5.893c-0.028,1.437,3.036,7.291,3.444,9.873   c0.639,4.042-3.716,6.644-3.716,6.644s-0.796-0.87-0.901-1.238c-0.426-1.493,0.659-4.655,0.45-6.193   c-0.163-1.202-0.277-4.377-4.054-9.234l-3.829,6.645c-1.617,1.338-3.716-1.239-3.716-1.239s1.371,3.238,1.464,4.392   c0.072,0.882-0.476,0.789-0.563,3.491c-0.069,2.145,2.815,8.108,2.815,8.108L24.437,86.6z" />
	<path fill="#FF7F00" d="M26.352,90.315C26.375,89.894,25,91.329,25,91.329s-4.166-5.21-4.504-12.725l-2.14,8.445l-2.14-3.378   c0,0,0.368,10.53,3.716,13.514c3.1,2.762,16.329,3.04,16.329,3.04l33.221-0.45l8.783-0.788c0,0,0.111-0.576,4.279-0.901   c1.88-0.146,5.843,0.813,7.545,0c5.162-2.466,7.095-8.758,7.095-11.937c0-6.28-2.364-11.824-2.364-11.824l-0.676,4.054   l-2.703-7.657c0,0,1.072,8.52,1.014,11.373c-0.04,1.966-0.704,5.399-3.704,6.94c-2.553,1.312-4.292,0.83-4.292,0.83l1.577-8.333   c0,0-1.618-1.455-1.577-3.604c0.02-1.023,0.563-4.055,0.563-4.055s-1.646,2.253-1.915,5.293c-0.084,0.954,0.162,2.886,0,3.829   c-0.328,1.913-2.59,7.319-2.59,7.319l-2.477-4.279c0,0,2.377,6.75,1.576,8.334c0,0-1.361-3.212-2.365-3.604   c-1.081-0.422-4.504,1.126-4.504,1.126s2.921-10.481,2.365-13.063c-0.35-1.625-3.154-5.855-3.154-5.855s-1.945,1.914-2.249,5.104   c-0.188,1.971,0.289,6.199-0.224,7.917c-0.609,2.041-3.607,5.447-3.607,5.447s-4.873-1.803-4.393-4.843   c0.25-1.58,2.995-4.031,3.041-5.63c0.1-3.475-2.038-4.912-2.365-6.645c-0.178-0.944,0.34-1.997-0.338-3.829   c-0.346-0.934-1.689-3.604-1.689-3.604s-3.785,4.436-3.266,9.685c0.184,1.852,2.842,4.793,2.252,7.095   c-0.4,1.563-4.729,4.392-4.729,4.392l-1.126-5.518c0,0-0.806,2.032-2.365,2.14c-0.484,0.033-0.733-0.232-1.126-1.577   c-1.23-4.215,1.334-9.173,1.393-10.988c0.042-1.301-0.604-2.863-0.604-2.863l-3.604,4.279l-3.829-4.279   c0,0-1.838,3.946-0.563,8.559c0.41,1.483,2.91,3.644,3.491,5.068c0.479,1.175,0.669,3.88,0.225,5.067   c-0.757,2.022-4.786,5.031-7.996,3.266c-1.014-0.558,0.13-3.014-0.337-4.617c-0.367-1.26-0.949-1.764-1.239-2.364   c-0.919-1.907-0.519-2.947-0.563-3.941c-0.049-1.098,0.226-4.393,0.226-4.393s-1.075,4.633-2.365,5.293   c-0.742,0.38-3.266-0.676-3.266-0.676s1.26,2.565,1.239,3.491c-0.038,1.68-1.23,3.026-1.014,6.644   c0.083,1.396,1.802,5.293,1.802,5.293S26.293,91.369,26.352,90.315z" />
	<path fill="#FF0000" d="M26.352,92.456c0,0-1.875,3.374-2.928,3.152c-1.428-0.301-1.915-5.518-1.915-5.518l-2.703-2.815   c0,0,1.174,2.504,1.464,3.378c0.347,1.044,0.834,3.194,1.013,4.279c0.074,0.448-0.075,1.462,0.225,1.803   c2.583,2.939,18.694,3.716,18.694,3.716s24.34-0.226,31.081-0.45c4.988-0.166,16.1-2.317,19.596-3.829   c1.267-0.548,3.49-4.279,3.49-4.279l-2.252,1.802l0,0c0,0,3.874-5.01,4.166-7.031c0.131-0.907-0.9-3.555-0.9-3.555l-0.45,3.041   l-2.591-6.982c0,0,1.449,7.053,0.676,9.234c-0.632,1.783-7.883,7.207-7.883,7.207c-5.697,1.656-9.572-4.279-9.572-4.279   s-1.193,6.9-3.04,6.757c0,0-0.96-3.509-2.702-4.279c-1.952-0.863,1.238-8.446,1.238-8.446S64.313,97.015,62.5,96.51   c-1.562-0.435-1.238-17.117-1.238-17.117s-4.066,10.453-7.32,11.374c-0.751,0.213-2.355-0.721-2.815-1.352   c-1.652-2.267-3.716-10.586-3.716-10.586s1.967,9.458,1.014,11.486c-0.666,1.416-4.458,3.064-5.405,3.154   c-0.365,0.034-1.239-0.789-1.239-0.789s-1.007,1.596-1.577,1.689c-1.292,0.213-4.617-2.478-4.617-2.478s2.883,4.121,1.915,5.067   C35.351,99.062,26.352,92.456,26.352,92.456z" />
	<path fill="#FFFF00" d="M80.518,69.257c0,0-1.537-1.588-2.026-2.139c-0.467-0.525-1.072-1.286-0.447-2.778   c1.243-2.969,3.149-7.583,3.149-7.583s2.059,3.379,1.689,5.519c-0.122,0.707-0.262,0.864-1.238,2.59   C80.662,66.601,80.518,69.257,80.518,69.257z" />
	<path fill="#FF7F00" d="M80.18,68.47l-1.463-1.689c0,0-0.514-2.081-0.113-2.59c1.398-1.775,2.365-5.631,2.365-5.631   s1.212,3.091,1.126,4.166c-0.049,0.615-0.698,1.722-1.014,2.252C80.275,66.332,80.18,68.47,80.18,68.47z" />
	<path fill="#FF0000" d="M80.203,68.47l-1.094-1.264c0,0-0.384-1.556-0.084-1.937c1.045-1.327,1.769-4.21,1.769-4.21   s0.906,2.312,0.842,3.115c-0.037,0.46-0.522,1.287-0.758,1.684C80.275,66.871,80.203,68.47,80.203,68.47z" />
	<path fill="#FFFF00" d="M38.852,67.681c0,0-1.057-0.676-1.557-2.347c-0.194-0.647-0.625-1.416,0.208-2.547   c1.211-1.644,1.912-5.467,1.912-5.467s1.255,1.577,1.464,3.266c0.081,0.65-0.175,1.583-1,2.421   C38.985,63.914,38.852,67.681,38.852,67.681z" />
	<path fill="#FF7F00" d="M38.868,67.591c0,0-0.887-0.567-1.307-1.969c-0.163-0.544-0.524-1.188,0.175-2.138   c1.017-1.379,1.604-4.587,1.604-4.587s1.053,1.323,1.229,2.74c0.067,0.546-0.147,1.328-0.84,2.031   C38.979,64.431,38.868,67.591,38.868,67.591z" />
	<path fill="#FF0000" d="M38.462,66.355c0,0-0.655-0.356-0.964-1.236c-0.12-0.342-0.387-0.746,0.129-1.342   c0.75-0.865,1.184-2.879,1.184-2.879s0.777,0.83,0.907,1.72c0.05,0.343-0.109,0.834-0.62,1.275   C38.545,64.372,38.462,66.355,38.462,66.355z" />
	<path fill="#FFFF00" d="M27.365,79.167c0,0,3.465-3.965,3.604-5.631c0.137-1.646-1.909-4.575-2.59-6.08   c-0.79-1.744-2.252-7.32-2.252-7.32s-2.604,6.165-2.478,8.334c0.1,1.712,2.081,4.707,2.703,6.306   C26.76,75.825,27.365,79.167,27.365,79.167z" />
	<path fill="#FF7F00" d="M27.104,77.58c0,0,2.805-3.21,2.917-4.559c0.111-1.333-1.545-3.703-2.097-4.922   c-0.639-1.412-1.823-5.926-1.823-5.926s-2.108,4.991-2.006,6.746c0.081,1.387,1.685,3.811,2.188,5.105   C26.615,74.875,27.104,77.58,27.104,77.58z" />
	<path fill="#FF0000" d="M27.34,76.9c0,0,1.975-2.26,2.054-3.209c0.078-0.938-1.088-2.606-1.476-3.464   c-0.45-0.994-1.283-4.171-1.283-4.171s-1.484,3.513-1.412,4.748c0.057,0.977,1.186,2.683,1.54,3.594   C26.996,74.996,27.34,76.9,27.34,76.9z" />
	<path fill="#FFFF00" d="M66.893,77.253c0,0,2.052-1.979,2.477-2.815c0.519-1.021,0.88-3.954,0.463-4.561   c-2.197-3.198-4.066-8.615-4.066-8.615s-1.968,2.882-2.279,4.195c-0.117,0.493-0.106,2.343,0.14,2.786   C65.502,71.624,66.893,77.253,66.893,77.253z" />
	<path fill="#FF7F00" d="M67.117,76.127c0,0,2.282-2.439,2.365-3.491c0.1-1.26-1.802-3.843-2.105-4.596   c-0.425-1.052-1.049-4.413-1.049-4.413s-1.893,2.997-1.403,4.374C66.418,72.207,67.117,76.127,67.117,76.127z" />
</g>
<g id="Group_Pipe">
	<linearGradient id="SVGID_4_" gradientUnits="userSpaceOnUse" x1="56.2505" y1="84.2354" x2="56.2505" y2="74.8877">
		<stop offset="0" style="stop-color:#383838" />
		<stop offset="0.5" style="stop-color:#ECECEC" />
		<stop offset="0.57" style="stop-color:#D9D9D9" />
		<stop offset="0.71" style="stop-color:#A8A8A8" />
		<stop offset="0.92" style="stop-color:#5A5A5A" />
		<stop offset="1" style="stop-color:#383838" />
	</linearGradient>
	<path fill="url(#SVGID_4_)" d="M0,74.888h112.5v9.348H0V74.888z" />
</g>
</svg>