<!DOCTYPE svg PUBLIC "-//W3C//DTD SVG 1.1//EN" "http://www.w3.org/Graphics/SVG/1.1/DTD/svg11.dtd"[]><svg version="1.1" xmlns="http://www.w3.org/2000/svg" xmlns:xlink="http://www.w3.org/1999/xlink" width="95px" height="112px" viewBox="0 0 94.594 112.5" enable-background="new 0 0 94.594 112.5" xml:space="preserve">
<g id="Group_BoilerBody">
	<linearGradient id="SVGID_1_" gradientUnits="userSpaceOnUse" x1="0" y1="77.125" x2="94.5938" y2="77.125">
		<stop offset="0" style="stop-color:#383838" />
		<stop offset="0.01" style="stop-color:#3B3B3B" />
		<stop offset="0.25" style="stop-color:#757575" />
		<stop offset="0.42" style="stop-color:#989898" />
		<stop offset="0.51" style="stop-color:#A6A6A6" />
		<stop offset="0.69" style="stop-color:#818181" />
		<stop offset="1" style="stop-color:#383838" />
	</linearGradient>
	<path fill="url(#SVGID_1_)" d="M0,112.5V56.197c0,0,35.829-14.447,47.848-14.447c11.631,0,46.746,14.447,46.746,14.447V112.5H0" />
	<linearGradient id="SVGID_2_" gradientUnits="userSpaceOnUse" x1="22.9727" y1="20.875" x2="71.2832" y2="20.875">
		<stop offset="0" style="stop-color:#383838" />
		<stop offset="0.01" style="stop-color:#3B3B3B" />
		<stop offset="0.25" style="stop-color:#757575" />
		<stop offset="0.42" style="stop-color:#989898" />
		<stop offset="0.51" style="stop-color:#A6A6A6" />
		<stop offset="0.69" style="stop-color:#818181" />
		<stop offset="1" style="stop-color:#383838" />
	</linearGradient>
	<path fill="url(#SVGID_2_)" d="M22.973,41.75V0h48.311v41.75H22.973z" />
	<linearGradient id="SVGID_3_" gradientUnits="userSpaceOnUse" x1="0" y1="47.3394" x2="94.5488" y2="47.3394">
		<stop offset="0" style="stop-color:#383838" />
		<stop offset="0.5" style="stop-color:#ECECEC" />
		<stop offset="0.57" style="stop-color:#D9D9D9" />
		<stop offset="0.71" style="stop-color:#A8A8A8" />
		<stop offset="0.92" style="stop-color:#5A5A5A" />
		<stop offset="1" style="stop-color:#383838" />
	</linearGradient>
	<path fill="url(#SVGID_3_)" d="M0,56.194l22.902-17.709h48.5l23.146,17.709H0z" />
</g>
<g id="Group_CombustionChamber">
	<path fill="#336666" d="M2.59,58.783h89.414v51.126H2.59V58.783z" />
</g>
<g id="Group_Fire">
	<path fill="#FFFF00" d="M12.396,92.997l-0.99,1.237c0,0-2.438-7.941-2.598-9.156c-0.288-2.186-0.743-8.785-0.743-8.785   L5.837,86.811c0,0-1.896-1.558-2.351-2.228c-0.281-0.413-0.742-1.856-0.742-1.856s-0.495,16.432,2.598,21.408   c1.03,1.656,7.054,3.34,7.054,3.34l10.27,0.991c0,0,35.905-0.248,46.897-0.62c2.524-0.084,9.9-1.979,9.9-1.979   s3.279,0.783,4.331,0.495c1.873-0.515,5.236-3.008,6.188-4.702c1.241-2.212,2.228-7.362,2.228-9.898   c0-4.865-2.475-19.305-2.475-19.305l-1.114,5.815c-1.74,0.409-4.33-5.691-4.33-5.691s-0.249,2.047,0.246,5.198   c0.545,3.475,2.6,7.547,2.6,7.547l-6.313,9.899c0,0-0.456-2.683-0.493-3.589c-0.147-3.516,1.856-6.311,1.856-6.311   s-1.176-0.714-1.363-1.113c-0.938-2.021,0.124-8.909,0.124-8.909s-5.753,0.147-6.683,4.825c-0.858,4.331,2.599,10.519,2.599,10.519   c-2.728-1.43-2.721-4.331-2.721-4.331s-1.426,0.888-0.371,4.826c0.313,1.172,0.493,9.775,0.493,9.775s-1.489-3.634-1.359-7.92   c0.042-1.445-0.99-1.733-0.99-1.733l-5.319,6.931c0,0,2.035-5.634,2.596-7.548c1.101-3.763,2.794-6.889,1.238-8.291   c-4.075-3.67-3.834-7.302-3.834-7.302s-4.764,3.846-5.445,5.693c-0.786,2.122,0.74,6.786,0.493,9.033   c-0.416,3.788-7.299,2.598-7.299,2.598s3.005-4.84,3.217-6.681c0.163-1.418-2.369-6.574-3.094-8.787   c-0.852-2.588-1.31-8.124-2.352-10.641c-0.271-0.659-1.609-2.352-1.609-2.352s-0.534,3.277-0.865,4.331   c-0.358,1.142-3.381,3.373-3.983,9.438c-0.595,5.997,2.715,7.914,2.779,10.67c0.028,1.202-2.633,4.021-2.633,4.021   s-2.333-3.251-1.732-8.166c0.03-0.247-0.875-0.545-1.872,1.052c-1.354,2.172-0.232,4.145-0.232,4.145s-0.987-0.939-1.114-1.36   c-1.195-3.999,0.005-6.073,0.743-7.92c1.542-3.861,0.495-9.899,0.495-9.899l-4.455,5.197L31.7,71.714c0,0-1.836,1.852-1.928,6.476   c-0.031,1.578,3.335,8.011,3.784,10.848c0.702,4.441-4.084,7.301-4.084,7.301s-0.875-0.956-0.99-1.361   c-0.469-1.64,0.724-5.115,0.495-6.805c-0.179-1.321-0.304-4.81-4.454-10.147l-4.208,7.301c-1.777,1.471-4.083-1.36-4.083-1.36   s1.506,3.558,1.609,4.825c0.079,0.969-0.523,0.867-0.619,3.836c-0.077,2.356,3.094,8.909,3.094,8.909L12.396,92.997z" />
	<path fill="#FF7F00" d="M14.5,97.08c0.026-0.464-1.485,1.114-1.485,1.114s-4.577-5.726-4.95-13.982l-2.351,9.279L3.363,89.78   c0,0,0.404,11.57,4.083,14.85c3.407,3.034,17.942,3.34,17.942,3.34l36.505-0.495l9.651-0.865c0,0,0.122-0.634,4.702-0.991   c2.064-0.16,6.419,0.895,8.29,0c5.673-2.709,7.795-9.623,7.795-13.115c0-6.901-2.597-12.993-2.597-12.993l-0.743,4.455l-2.97-8.414   c0,0,1.179,9.361,1.114,12.497c-0.045,2.16-0.774,5.933-4.071,7.626c-2.806,1.441-4.716,0.912-4.716,0.912l1.732-9.157   c0,0-1.777-1.599-1.732-3.959c0.022-1.125,0.619-4.456,0.619-4.456s-1.811,2.477-2.104,5.816c-0.092,1.049,0.179,3.171,0,4.207   c-0.36,2.103-2.845,8.043-2.845,8.043l-2.722-4.702c0,0,2.611,7.417,1.732,9.157c0,0-1.496-3.528-2.6-3.96   c-1.188-0.462-4.949,1.238-4.949,1.238s3.209-11.518,2.6-14.354c-0.384-1.786-3.466-6.435-3.466-6.435s-2.138,2.104-2.473,5.609   c-0.206,2.165,0.318,6.813-0.245,8.699c-0.669,2.242-3.964,5.985-3.964,5.985s-5.354-1.98-4.826-5.321   c0.275-1.736,3.29-4.43,3.342-6.187c0.108-3.817-2.241-5.397-2.6-7.301c-0.195-1.038,0.374-2.194-0.371-4.207   c-0.38-1.025-1.856-3.96-1.856-3.96s-4.16,4.874-3.589,10.642c0.202,2.035,3.123,5.268,2.475,7.796   c-0.44,1.717-5.196,4.825-5.196,4.825l-1.238-6.063c0,0-0.885,2.232-2.599,2.351c-0.532,0.037-0.805-0.255-1.237-1.732   c-1.352-4.632,1.466-10.079,1.53-12.074c0.045-1.43-0.666-3.146-0.666-3.146l-3.959,4.702l-4.207-4.702c0,0-2.02,4.336-0.619,9.404   c0.451,1.631,3.197,4.004,3.836,5.569c0.526,1.291,0.736,4.264,0.248,5.568c-0.832,2.223-5.259,5.528-8.786,3.589   c-1.114-0.613,0.143-3.312-0.371-5.074c-0.404-1.384-1.043-1.938-1.361-2.598c-1.009-2.096-0.57-3.238-0.619-4.331   c-0.055-1.206,0.248-4.827,0.248-4.827s-1.181,5.091-2.599,5.816c-0.816,0.417-3.589-0.742-3.589-0.742s1.384,2.819,1.361,3.836   c-0.042,1.847-1.352,3.325-1.114,7.3c0.091,1.534,1.98,5.816,1.98,5.816S14.436,98.237,14.5,97.08z" />
	<path fill="#FF0000" d="M14.5,99.433c0,0-2.061,3.707-3.217,3.464c-1.569-0.331-2.104-6.063-2.104-6.063l-2.97-3.093   c0,0,1.29,2.751,1.609,3.711c0.381,1.147,0.917,3.511,1.113,4.703c0.081,0.492-0.082,1.605,0.247,1.98   c2.839,3.229,20.542,4.083,20.542,4.083s26.746-0.248,34.152-0.495c5.481-0.183,17.691-2.546,21.533-4.207   c1.39-0.603,3.835-4.702,3.835-4.702l-2.476,1.979l0,0c0,0,4.256-5.505,4.579-7.727c0.143-0.996-0.99-3.905-0.99-3.905   l-0.495,3.342l-2.847-7.673c0,0,1.593,7.75,0.743,10.146c-0.696,1.96-5.818,7.196-8.662,7.92c-1.878,0.478-6.057-0.046-7.672-1.114   c-0.956-0.631-2.847-3.588-2.847-3.588s0.387,3.641-0.122,4.702c-0.457,0.95-3.219,2.722-3.219,2.722s-0.336-2.431-1.03-3.166   c-0.288-0.307-1.775-1.146-1.938-1.535c-0.908-2.163,1.36-9.281,1.36-9.281s-3.45,7.793-6.929,10.643   c-0.571,0.466-2.476,1.609-2.476,1.609s-1.523-2.9-1.731-3.96c-0.715-3.645,0.371-14.85,0.371-14.85s-4.469,11.486-8.044,12.497   c-0.827,0.234-2.588-0.791-3.094-1.484c-1.816-2.49-4.083-11.632-4.083-11.632s2.162,10.393,1.114,12.621   c-0.732,1.556-4.899,3.367-5.94,3.467c-0.401,0.036-1.361-0.868-1.361-0.868s-1.107,1.754-1.732,1.856   c-1.42,0.234-5.074-2.722-5.074-2.722s3.168,4.527,2.104,5.568C24.388,106.69,14.5,99.433,14.5,99.433z" />
	<path fill="#FFFF00" d="M74.02,73.94c0,0-1.689-1.744-2.228-2.35c-0.514-0.578-1.179-1.414-0.492-3.053   c1.368-3.262,3.462-8.333,3.462-8.333s2.262,3.713,1.856,6.064c-0.136,0.776-0.287,0.949-1.36,2.846   C74.179,71.021,74.02,73.94,74.02,73.94z" />
	<path fill="#FF7F00" d="M73.648,73.076L72.04,71.22c0,0-0.563-2.287-0.124-2.847c1.537-1.95,2.599-6.188,2.599-6.188   s1.331,3.397,1.236,4.578c-0.054,0.677-0.767,1.893-1.114,2.476C73.754,70.727,73.648,73.076,73.648,73.076z" />
	<path fill="#FF0000" d="M73.674,73.076l-1.202-1.39c0,0-0.423-1.709-0.092-2.127c1.147-1.458,1.941-4.626,1.941-4.626   s0.997,2.539,0.926,3.423c-0.041,0.505-0.573,1.414-0.833,1.851C73.754,71.318,73.674,73.076,73.674,73.076z" />
	<path fill="#FFFF00" d="M28.235,72.209c0,0-1.162-0.742-1.711-2.579c-0.213-0.712-0.687-1.556,0.229-2.798   c1.332-1.806,2.101-6.007,2.101-6.007s1.379,1.731,1.609,3.587c0.088,0.715-0.193,1.74-1.1,2.661   C28.382,68.069,28.235,72.209,28.235,72.209z" />
	<path fill="#FF7F00" d="M28.252,72.109c0,0-0.975-0.623-1.435-2.163c-0.179-0.598-0.577-1.306,0.192-2.349   c1.117-1.516,1.763-5.041,1.763-5.041s1.157,1.455,1.349,3.013c0.075,0.6-0.162,1.459-0.922,2.231   C28.375,68.638,28.252,72.109,28.252,72.109z" />
	<path fill="#FF0000" d="M27.808,70.753c0,0-0.72-0.393-1.06-1.359c-0.132-0.375-0.425-0.819,0.142-1.474   c0.824-0.951,1.301-3.164,1.301-3.164s0.854,0.912,0.996,1.89c0.055,0.377-0.12,0.917-0.68,1.402   C27.898,68.573,27.808,70.753,27.808,70.753z" />
	<path fill="#FFFF00" d="M15.613,84.83c0,0,3.808-4.356,3.96-6.188c0.15-1.809-2.098-5.026-2.846-6.681   c-0.867-1.917-2.475-8.044-2.475-8.044s-2.861,6.774-2.723,9.158c0.11,1.881,2.287,5.172,2.97,6.929   C14.949,81.158,15.613,84.83,15.613,84.83z" />
	<path fill="#FF7F00" d="M15.327,83.086c0,0,3.083-3.527,3.206-5.009c0.122-1.465-1.699-4.069-2.304-5.408   c-0.702-1.552-2.003-6.512-2.003-6.512s-2.316,5.485-2.204,7.413c0.089,1.523,1.851,4.187,2.405,5.61   C14.789,80.114,15.327,83.086,15.327,83.086z" />
	<path fill="#FF0000" d="M15.586,82.34c0,0,2.17-2.483,2.257-3.526c0.084-1.03-1.196-2.864-1.622-3.806   c-0.495-1.093-1.41-4.584-1.41-4.584s-1.631,3.86-1.551,5.218c0.062,1.073,1.303,2.947,1.692,3.949   C15.208,80.247,15.586,82.34,15.586,82.34z" />
	<path fill="#FFFF00" d="M59.048,82.727c0,0,2.253-2.175,2.721-3.093c0.569-1.123,0.966-4.346,0.51-5.012   c-2.415-3.514-4.469-9.467-4.469-9.467s-2.164,3.166-2.504,4.609c-0.13,0.542-0.118,2.574,0.151,3.062   C57.52,76.542,59.048,82.727,59.048,82.727z" />
	<path fill="#FF7F00" d="M59.295,81.49c0,0,2.507-2.681,2.599-3.837c0.109-1.384-1.981-4.223-2.313-5.05   c-0.468-1.156-1.152-4.849-1.152-4.849s-2.08,3.293-1.543,4.806C58.526,77.183,59.295,81.49,59.295,81.49z" />
</g>
</svg>