<!DOCTYPE svg PUBLIC "-//W3C//DTD SVG 1.1//EN" "http://www.w3.org/Graphics/SVG/1.1/DTD/svg11.dtd"[]><svg version="1.1" xmlns="http://www.w3.org/2000/svg" xmlns:xlink="http://www.w3.org/1999/xlink" width="104px" height="114px" viewBox="0 0 103.558 113.998" enable-background="new 0 0 103.558 113.998" xml:space="preserve">
<g id="Group_Center">
</g>
<g id="Group_Motion">
	
		<radialGradient id="SVGID_1_" cx="45.5996" cy="57.2766" r="4.6938" gradientTransform="matrix(1.0126 0 0 1 -0.3667 0)" gradientUnits="userSpaceOnUse">
		<stop offset="0" style="stop-color:#FFFFFF" />
		<stop offset="0.5" style="stop-color:#AAAAAA" />
		<stop offset="1" style="stop-color:#CCCCCC" />
	</radialGradient>
	<path fill="url(#SVGID_1_)" d="M45.122,59.795c-0.628-0.166-1.667-1.202-1.849-1.826c-0.179-0.618,0.127-2.05,0.578-2.51   c0.5-0.51,2.088-0.886,2.773-0.686c0.604,0.177,1.581,1.215,1.733,1.826c0.158,0.632-0.232,2.052-0.694,2.511   C47.197,59.574,45.758,59.963,45.122,59.795z" />
	<path fill="none" stroke="#CCCCCC" stroke-width="0.25" d="M27.341,3.484c-5.54,1.307-10.84,3.509-15.602,6.364" />
	<path fill="none" stroke="#CCCCCC" stroke-width="0.25" d="M29.063,10.382c-4.807,1.13-9.404,3.037-13.535,5.511" />
	<path fill="none" stroke="#CCCCCC" stroke-width="0.25" d="M30.667,16.81c-4.123,0.966-8.082,2.644-11.625,4.762" />
	<path fill="none" stroke="#CCCCCC" stroke-width="0.25" d="M32.256,23.172c-3.446,0.802-6.742,2.163-9.705,3.93" />
	<path fill="none" stroke="#CCCCCC" stroke-width="0.25" d="M34.089,30.513c-2.665,0.614-5.214,1.662-7.505,3.022" />
	<path fill="none" stroke="#CCCCCC" stroke-width="0.25" d="M35.734,37.101c-1.963,0.445-3.838,1.216-5.528,2.213" />
	<path fill="none" stroke="#CCCCCC" stroke-width="0.25" d="M33.859,45.295c1.07-0.621,2.328-1.133,3.57-1.404" />
	<path fill="none" stroke="#E5E5E5" stroke-width="0.25" d="M11.739,9.848C6.928,12.745,2.592,16.353-1.09,20.552" />
	<path fill="none" stroke="#E5E5E5" stroke-width="0.25" d="M15.528,15.893c-4.175,2.51-7.939,5.638-11.136,9.279" />
	<path fill="none" stroke="#E5E5E5" stroke-width="0.25" d="M19.111,21.531c-3.583,2.15-6.813,4.83-9.555,7.952" />
	<path fill="none" stroke="#E5E5E5" stroke-width="0.25" d="M22.552,27.102c-2.996,1.793-5.698,4.03-7.992,6.637" />
	<path fill="none" stroke="#E5E5E5" stroke-width="0.25" d="M26.584,33.535c-2.32,1.383-4.411,3.11-6.188,5.123" />
	<path fill="none" stroke="#E5E5E5" stroke-width="0.25" d="M31.034,47.622c0.835-0.932,1.808-1.734,2.896-2.368" />
	<path fill="none" stroke="#E5E5E5" stroke-width="0.25" d="M30.206,39.314c-1.712,1.013-3.247,2.288-4.56,3.769" />
	<path fill="none" stroke="#CCCCCC" stroke-width="0.25" d="M101.452,66.469c1.437-5.423,1.958-11.062,1.638-16.542" />
	<path fill="none" stroke="#CCCCCC" stroke-width="0.25" d="M94.458,64.712c1.248-4.705,1.702-9.594,1.43-14.346" />
	<path fill="none" stroke="#CCCCCC" stroke-width="0.25" d="M87.942,63.073c1.073-4.033,1.434-8.262,1.202-12.336" />
	<path fill="none" stroke="#CCCCCC" stroke-width="0.25" d="M81.49,61.451c0.902-3.37,1.234-6.872,1.045-10.276" />
	<path fill="none" stroke="#CCCCCC" stroke-width="0.25" d="M74.047,59.578c0.703-2.602,0.965-5.309,0.823-7.938" />
	<path fill="none" stroke="#CCCCCC" stroke-width="0.25" d="M67.367,57.897c0.525-1.913,0.717-3.904,0.618-5.841" />
	<path fill="none" stroke="#CCCCCC" stroke-width="0.25" d="M60.905,52.407c0.052,1.221-0.081,2.555-0.421,3.759" />
	<path fill="none" stroke="#E5E5E5" stroke-width="0.25" d="M103.089,49.928c-0.33-5.541-1.524-11.006-3.554-16.183" />
	<path fill="none" stroke="#E5E5E5" stroke-width="0.25" d="M95.888,50.365c-0.284-4.808-1.317-9.549-3.075-14.042" />
	<path fill="none" stroke="#E5E5E5" stroke-width="0.25" d="M89.148,50.817c-0.241-4.124-1.121-8.191-2.629-12.044" />
	<path fill="none" stroke="#E5E5E5" stroke-width="0.25" d="M82.535,51.175c-0.196-3.447-0.93-6.846-2.188-10.067" />
	<path fill="none" stroke="#E5E5E5" stroke-width="0.25" d="M74.871,51.639c-0.146-2.666-0.711-5.295-1.68-7.787" />
	<path fill="none" stroke="#E5E5E5" stroke-width="0.25" d="M60.147,48.857c0.443,1.164,0.705,2.386,0.76,3.628" />
	<path fill="none" stroke="#E5E5E5" stroke-width="0.25" d="M67.985,52.056c-0.103-1.963-0.521-3.896-1.23-5.734" />
	<path fill="none" stroke="#CCCCCC" stroke-width="0.25" d="M8.984,98.611c3.953,4.041,8.567,7.426,13.482,10.021" />
	<path fill="none" stroke="#CCCCCC" stroke-width="0.25" d="M14.156,93.662c3.426,3.507,7.428,6.444,11.689,8.698" />
	<path fill="none" stroke="#CCCCCC" stroke-width="0.25" d="M18.976,89.05c2.936,3.01,6.414,5.521,10.065,7.457" />
	<path fill="none" stroke="#CCCCCC" stroke-width="0.25" d="M23.749,84.484c2.448,2.519,5.311,4.626,8.36,6.247" />
	<path fill="none" stroke="#CCCCCC" stroke-width="0.25" d="M29.253,79.216c1.888,1.951,4.098,3.585,6.452,4.84" />
	<path fill="none" stroke="#CCCCCC" stroke-width="0.25" d="M34.194,74.488c1.385,1.44,3.011,2.643,4.741,3.571" />
	<path fill="none" stroke="#CCCCCC" stroke-width="0.25" d="M42.325,71.935c-1.086-0.596-2.172-1.405-3.04-2.319" />
	<path fill="none" stroke="#E5E5E5" stroke-width="0.25" d="M22.467,108.633c4.976,2.617,10.335,4.472,15.882,5.474" />
	<path fill="none" stroke="#E5E5E5" stroke-width="0.25" d="M25.845,102.36c4.315,2.274,8.963,3.886,13.774,4.756" />
	<path fill="none" stroke="#E5E5E5" stroke-width="0.25" d="M28.97,96.469c3.7,1.952,7.686,3.339,11.811,4.088" />
	<path fill="none" stroke="#E5E5E5" stroke-width="0.25" d="M32.109,90.731c3.09,1.637,6.42,2.797,9.867,3.426" />
	<path fill="none" stroke="#E5E5E5" stroke-width="0.25" d="M35.705,84.055c2.388,1.27,4.96,2.172,7.625,2.661" />
	<path fill="none" stroke="#E5E5E5" stroke-width="0.25" d="M45.796,73.154c-1.239-0.237-2.437-0.656-3.541-1.258" />
	<path fill="none" stroke="#E5E5E5" stroke-width="0.25" d="M38.935,78.059c1.755,0.941,3.65,1.599,5.613,1.964" />
</g>
<g id="Group_Blades">
	<linearGradient id="SVGID_2_" gradientUnits="userSpaceOnUse" x1="34.895" y1="28.1755" x2="38.4026" y2="27.2353">
		<stop offset="0" style="stop-color:#8C8C8C" />
		<stop offset="0.5" style="stop-color:#F2F2F2" />
		<stop offset="1" style="stop-color:#8C8C8C" />
	</linearGradient>
	<path fill="url(#SVGID_2_)" d="M46.625,54.773L29.748,0.228L29.05,0l-0.333,0.457l9.95,43.477c0,0,0.45,2.668,0.687,3.537   c0.135,0.496,0.453,1.481,0.686,1.939c0.524,1.03,2.516,3.88,2.516,3.88l1.295,2.169L46.625,54.773z" />
	<linearGradient id="SVGID_3_" gradientUnits="userSpaceOnUse" x1="75.689" y1="65.6531" x2="76.4498" y2="62.8393">
		<stop offset="0" style="stop-color:#8C8C8C" />
		<stop offset="0.5" style="stop-color:#F2F2F2" />
		<stop offset="1" style="stop-color:#8C8C8C" />
	</linearGradient>
	<path fill="url(#SVGID_3_)" d="M47.664,59.11l55.422,13.163l0.686-0.289l-0.342-0.746L60.752,58.02l-3.311-1.148l-1.939-0.345   l-4.679,0.115l-2.466-0.042L47.664,59.11z" />
	<linearGradient id="SVGID_4_" gradientUnits="userSpaceOnUse" x1="23.6602" y1="79.0369" x2="25.8619" y2="81.2568">
		<stop offset="0" style="stop-color:#8C8C8C" />
		<stop offset="0.5" style="stop-color:#F2F2F2" />
		<stop offset="1" style="stop-color:#8C8C8C" />
	</linearGradient>
	<path fill="url(#SVGID_4_)" d="M43.273,57.969L4.262,99.721v0.639l0.639,0.214l33.013-30.51l2.645-2.396l1.38-1.483l2.069-4.107   l1.114-2.282L43.273,57.969z" />
</g>
<g id="Group_Strips">
	<linearGradient id="SVGID_5_" gradientUnits="userSpaceOnUse" x1="81.7046" y1="67.2839" x2="82.3297" y2="64.5888">
		<stop offset="0" style="stop-color:#D61A09" />
		<stop offset="0.5" style="stop-color:#FF3927" />
		<stop offset="1" style="stop-color:#D61A09" />
	</linearGradient>
	<path fill="url(#SVGID_5_)" d="M78.862,63.579l6.797,2.107l-0.427,2.377l-7.031-1.655L78.862,63.579z" />
	<linearGradient id="SVGID_6_" gradientUnits="userSpaceOnUse" x1="95.7778" y1="70.5574" x2="96.2213" y2="68.9914">
		<stop offset="0" style="stop-color:#D61A09" />
		<stop offset="0.5" style="stop-color:#FF3927" />
		<stop offset="1" style="stop-color:#D61A09" />
	</linearGradient>
	<path fill="url(#SVGID_6_)" d="M94.216,68.385l3.986,1.234l-0.381,1.413l-4.064-0.958L94.216,68.385z" />
	<linearGradient id="SVGID_7_" gradientUnits="userSpaceOnUse" x1="19.3394" y1="83.7478" x2="21.0545" y2="85.4375">
		<stop offset="0" style="stop-color:#D61A09" />
		<stop offset="0.5" style="stop-color:#FF3927" />
		<stop offset="1" style="stop-color:#D61A09" />
	</linearGradient>
	<path fill="url(#SVGID_7_)" d="M23.772,83.135l-5.213,4.817l-1.667-1.635l4.762-5.068L23.772,83.135z" />
	<linearGradient id="SVGID_8_" gradientUnits="userSpaceOnUse" x1="9.3887" y1="94.2693" x2="10.4189" y2="95.3671">
		<stop offset="0" style="stop-color:#D61A09" />
		<stop offset="0.5" style="stop-color:#FF3927" />
		<stop offset="1" style="stop-color:#D61A09" />
	</linearGradient>
	<path fill="url(#SVGID_8_)" d="M12.055,93.963l-3.151,2.912l-0.993-1.031l2.948-3.133L12.055,93.963z" />
	<linearGradient id="SVGID_9_" gradientUnits="userSpaceOnUse" x1="33.4849" y1="22.301" x2="36.3387" y2="21.4107">
		<stop offset="0" style="stop-color:#D61A09" />
		<stop offset="0.51" style="stop-color:#FF3927" />
		<stop offset="1" style="stop-color:#D61A09" />
	</linearGradient>
	<path fill="url(#SVGID_9_)" d="M34.479,25.628l-1.568-6.85l2.229-0.74l2.073,6.846L34.479,25.628z" />
	<linearGradient id="SVGID_10_" gradientUnits="userSpaceOnUse" x1="30.4746" y1="8.0256" x2="31.9933" y2="7.6093">
		<stop offset="0" style="stop-color:#D61A09" />
		<stop offset="0.5" style="stop-color:#FF3927" />
		<stop offset="1" style="stop-color:#D61A09" />
	</linearGradient>
	<path fill="url(#SVGID_10_)" d="M30.937,10.153l-0.972-4.247l1.378-0.407l1.28,4.228L30.937,10.153z" />
</g>
</svg>