<!DOCTYPE svg PUBLIC "-//W3C//DTD SVG 1.1//EN" "http://www.w3.org/Graphics/SVG/1.1/DTD/svg11.dtd"[]><svg version="1.1" id="Blades" xmlns="http://www.w3.org/2000/svg" xmlns:xlink="http://www.w3.org/1999/xlink" width="81px" height="114px" viewBox="0 0 80.906 113.998" enable-background="new 0 0 80.906 113.998" xml:space="preserve">
<g id="Group_Blades">
<linearGradient id="SVGID_1_" gradientUnits="userSpaceOnUse" x1="27.9106" y1="81.6189" x2="30.1807" y2="82.0401">
	<stop offset="0" style="stop-color:#8C8C8C" />
	<stop offset="0.5" style="stop-color:#F2F2F2" />
	<stop offset="1" style="stop-color:#8C8C8C" />
</linearGradient>
<path fill="url(#SVGID_1_)" d="M33.077,49.628l-10.482,63.571l0.342,0.799l0.457-0.457l10.612-49.296l1.027-3.88l0.342-2.168  l-0.228-5.478l-0.114-3.081L33.077,49.628z" />
<linearGradient id="SVGID_2_" gradientUnits="userSpaceOnUse" x1="57.7764" y1="35.5417" x2="58.9401" y2="38.477">
	<stop offset="0" style="stop-color:#8C8C8C" />
	<stop offset="0.5" style="stop-color:#F2F2F2" />
	<stop offset="1" style="stop-color:#8C8C8C" />
</linearGradient>
<path fill="url(#SVGID_2_)" d="M36.799,48.098l43.879-18.886l0.229-0.799l-0.457-0.456L45.303,39.482l-2.853,0.799l-1.598,0.686  l-3.081,2.853l-1.826,1.825L36.799,48.098z" />
<linearGradient id="SVGID_3_" gradientUnits="userSpaceOnUse" x1="15.0254" y1="24.2659" x2="17.5928" y2="22.4473">
	<stop offset="0" style="stop-color:#8C8C8C" />
	<stop offset="0.5" style="stop-color:#F2F2F2" />
	<stop offset="1" style="stop-color:#8C8C8C" />
</linearGradient>
<path fill="url(#SVGID_3_)" d="M34.348,45.188L0.571,0H0v0.913l24.534,37.771l1.826,3.08l1.255,1.484l3.423,2.51l1.465,1.034  L34.348,45.188z" />
</g>
</svg>