<!DOCTYPE svg PUBLIC "-//W3C//DTD SVG 1.1//EN" "http://www.w3.org/Graphics/SVG/1.1/DTD/svg11.dtd"[]><svg version="1.1" xmlns="http://www.w3.org/2000/svg" xmlns:xlink="http://www.w3.org/1999/xlink" width="81px" height="114px" viewBox="0 0 80.668 113.998" enable-background="new 0 0 80.668 113.998" xml:space="preserve">
<g id="Group_Blades">
	<linearGradient id="SVGID_1_" gradientUnits="userSpaceOnUse" x1="27.9258" y1="81.7859" x2="30.5107" y2="82.2616">
		<stop offset="0" style="stop-color:#8C8C8C" />
		<stop offset="0.5" style="stop-color:#F2F2F2" />
		<stop offset="1" style="stop-color:#8C8C8C" />
	</linearGradient>
	<path fill="url(#SVGID_1_)" d="M33.228,49.919l-10.357,63.37l0.178,0.709l0.709-0.354l10.46-49.109l0.887-3.724l0.354-2.305   l-0.177-5.318l-0.177-3.191L33.228,49.919z" />
	<linearGradient id="SVGID_2_" gradientUnits="userSpaceOnUse" x1="15.188" y1="24.095" x2="17.5878" y2="22.4111">
		<stop offset="0" style="stop-color:#8C8C8C" />
		<stop offset="0.5" style="stop-color:#F2F2F2" />
		<stop offset="1" style="stop-color:#8C8C8C" />
	</linearGradient>
	<path fill="url(#SVGID_2_)" d="M34.218,45.032L0.71,0H0.178L0.001,0.886l24.466,37.586l1.95,3.014l1.241,1.596l3.191,2.481   l1.586,1.058L34.218,45.032z" />
	<linearGradient id="SVGID_3_" gradientUnits="userSpaceOnUse" x1="57.5044" y1="35.2214" x2="58.76" y2="38.6468">
		<stop offset="0" style="stop-color:#8C8C8C" />
		<stop offset="0.5" style="stop-color:#F2F2F2" />
		<stop offset="1" style="stop-color:#8C8C8C" />
	</linearGradient>
	<path fill="url(#SVGID_3_)" d="M36.811,48.199L80.313,29.43l0.355-0.709l-0.532-0.532L45.209,39.713l-2.836,0.71l-1.596,0.709   l-3.191,2.836l-1.773,1.773L36.811,48.199z" />
</g>
<g id="Group_Strips">
	<linearGradient id="SVGID_4_" gradientUnits="userSpaceOnUse" x1="26.9014" y1="88.6599" x2="28.9698" y2="89.1221">
		<stop offset="0" style="stop-color:#D61A09" />
		<stop offset="0.5" style="stop-color:#FF3927" />
		<stop offset="1" style="stop-color:#D61A09" />
	</linearGradient>
	<path fill="url(#SVGID_4_)" d="M29.808,85.236l-1.67,7.841l-1.883-0.489l1.294-7.923L29.808,85.236z" />
	<linearGradient id="SVGID_5_" gradientUnits="userSpaceOnUse" x1="24.3184" y1="104.948" x2="25.6145" y2="105.1857">
		<stop offset="0" style="stop-color:#D61A09" />
		<stop offset="0.5" style="stop-color:#FF3927" />
		<stop offset="1" style="stop-color:#D61A09" />
	</linearGradient>
	<path fill="url(#SVGID_5_)" d="M26.063,102.827l-1.021,4.788l-1.187-0.348l0.784-4.794L26.063,102.827z" />
	<linearGradient id="SVGID_6_" gradientUnits="userSpaceOnUse" x1="11.6089" y1="19.0007" x2="13.9181" y2="17.4939">
		<stop offset="0" style="stop-color:#D61A09" />
		<stop offset="0.5" style="stop-color:#FF3927" />
		<stop offset="1" style="stop-color:#D61A09" />
	</linearGradient>
	<path fill="url(#SVGID_6_)" d="M13.802,22.088l-3.956-6.077l1.679-1.474l4.319,5.801L13.802,22.088z" />
	<linearGradient id="SVGID_7_" gradientUnits="userSpaceOnUse" x1="4.0122" y1="7.0452" x2="5.4113" y2="5.9844">
		<stop offset="0" style="stop-color:#D61A09" />
		<stop offset="0.5" style="stop-color:#FF3927" />
		<stop offset="1" style="stop-color:#D61A09" />
	</linearGradient>
	<path fill="url(#SVGID_7_)" d="M5.291,9.012L2.798,5.184l1.056-0.958l2.649,3.56L5.291,9.012z" />
	<linearGradient id="SVGID_8_" gradientUnits="userSpaceOnUse" x1="62.6528" y1="34.0364" x2="63.6701" y2="36.8535">
		<stop offset="0" style="stop-color:#D61A09" />
		<stop offset="0.5" style="stop-color:#FF3927" />
		<stop offset="1" style="stop-color:#D61A09" />
	</linearGradient>
	<path fill="url(#SVGID_8_)" d="M59.981,34.839l5.646-1.863l0.615,2.525l-5.552,2.396L59.981,34.839z" />
	<linearGradient id="SVGID_9_" gradientUnits="userSpaceOnUse" x1="73.9731" y1="30.2566" x2="74.5446" y2="31.8922">
		<stop offset="0" style="stop-color:#D61A09" />
		<stop offset="0.5" style="stop-color:#FF3927" />
		<stop offset="1" style="stop-color:#D61A09" />
	</linearGradient>
	<path fill="url(#SVGID_9_)" d="M72.283,30.781l3.415-1.114l0.538,1.536l-3.368,1.419L72.283,30.781z" />
</g>
</svg>