<!DOCTYPE svg PUBLIC "-//W3C//DTD SVG 1.1//EN" "http://www.w3.org/Graphics/SVG/1.1/DTD/svg11.dtd"[]><svg version="1.1" id="Center" xmlns="http://www.w3.org/2000/svg" xmlns:xlink="http://www.w3.org/1999/xlink" width="91px" height="114px" viewBox="0 0 90.777 113.998" enable-background="new 0 0 90.777 113.998" xml:space="preserve">
<g id="Group_Center">
<radialGradient id="SVGID_1_" cx="0.0925" cy="49.2454" r="91.3462" gradientUnits="userSpaceOnUse">
	<stop offset="0.12" style="stop-color:#E5E5E5" />
	<stop offset="1" style="stop-color:#7F7F7F" />
</radialGradient>
<path fill="url(#SVGID_1_)" d="M84.444,25.333c-1.998-4.076-7.467-11.45-10.556-14.777C71.083,7.534,61.222,0,61.222,0H46.445  c0,0-8.086,7.758-10.556,10.556c-0.893,1.012-2.419,3.251-3.314,4.261c-0.609,0.687-1.033,1.667-1.9,2.072  c-0.732,0.341-2.499-0.342-3.23,0c-2.8,1.311-5.618,7.435-7.918,9.501c-1.061,0.954-3.739,2.157-4.748,3.165  c-1.346,1.346-3.016,4.862-4.223,6.334c-1.419,1.731-4.914,4.602-6.333,6.333c-1.207,1.471-4.222,6.333-4.222,6.333  s1.377,4.834,2.11,6.333c1.672,3.419,5.589,10.149,8.444,12.667c0.126,0.111,0.487,0.18,0.604,0.302  c1.54,1.609,2.225,5.839,3.764,7.449c0.408,0.427,1.559,1.322,1.966,1.749c1.796,1.879,2.426,7.62,4.222,9.499  c0.299,0.313,1.252,0.459,1.548,0.774c0.248,0.265,0.386,1.021,0.563,1.337c2.214,3.964,7.466,11.45,10.555,14.777  c2.804,3.021,12.667,10.556,12.667,10.556s11.304,1.258,14.777,0c3.876-1.403,9.861-7.534,12.666-10.556  c3.089-3.327,8.558-10.701,10.556-14.777c2.426-4.947,5.681-15.64,6.333-21.11c0.625-5.241,0.767-15.89,0-21.111  C89.977,40.992,86.869,30.28,84.444,25.333z" />
</g>
</svg>