<!DOCTYPE svg PUBLIC "-//W3C//DTD SVG 1.1//EN" "http://www.w3.org/Graphics/SVG/1.1/DTD/svg11.dtd"[]><svg version="1.1" id="Motion" xmlns="http://www.w3.org/2000/svg" xmlns:xlink="http://www.w3.org/1999/xlink" width="87px" height="114px" viewBox="0 0 86.789 113.998" enable-background="new 0 0 86.789 113.998" xml:space="preserve">
<g id="Group_Motion">
<path fill="none" stroke="#CCCCCC" stroke-width="0.25" d="M34.502,112.712c4.235,0.919,8.712,1.052,13.125,0.48" />
<path fill="none" stroke="#CCCCCC" stroke-width="0.25" d="M36.43,105.212c3.598,0.813,7.393,0.963,11.128,0.524" />
<path fill="none" stroke="#CCCCCC" stroke-width="0.25" d="M37.904,97.95c3.032,0.647,6.27,0.697,9.435,0.268" />
<path fill="none" stroke="#CCCCCC" stroke-width="0.25" d="M39.43,90.855c2.421,0.488,4.993,0.508,7.539,0.114" />
<path fill="none" stroke="#CCCCCC" stroke-width="0.25" d="M41.144,82.713c1.833,0.358,3.781,0.354,5.718,0.031" />
<path fill="none" stroke="#CCCCCC" stroke-width="0.25" d="M42.874,75.213c1.205,0.216,2.497,0.177,3.784-0.069" />
<path fill="none" stroke="#CCCCCC" stroke-width="0.25" d="M46.816,67.374c-0.748,0.13-1.544,0.145-2.243,0.006" />
<path fill="none" stroke="#E5E5E5" stroke-width="0.25" d="M47.627,113.192c4.463-0.587,8.932-1.901,13.231-3.909" />
<path fill="none" stroke="#E5E5E5" stroke-width="0.25" d="M47.558,105.736c3.779-0.452,7.556-1.516,11.187-3.162" />
<path fill="none" stroke="#E5E5E5" stroke-width="0.25" d="M47.277,98.226c3.206-0.441,6.417-1.406,9.51-2.871" />
<path fill="none" stroke="#E5E5E5" stroke-width="0.25" d="M46.969,90.969c2.578-0.401,5.169-1.231,7.675-2.472" />
<path fill="none" stroke="#E5E5E5" stroke-width="0.25" d="M46.862,82.744c1.962-0.331,3.938-0.988,5.854-1.96" />
<path fill="none" stroke="#E5E5E5" stroke-width="0.25" d="M49.042,66.585c-0.748,0.389-1.515,0.662-2.274,0.797" />
<path fill="none" stroke="#E5E5E5" stroke-width="0.25" d="M46.658,75.143c1.307-0.254,2.628-0.74,3.915-1.431" />
<path fill="none" stroke="#CCCCCC" stroke-width="0.25" d="M86.21,30.638c-1.093-5.976-2.992-11.68-5.49-16.796" />
<path fill="none" stroke="#CCCCCC" stroke-width="0.25" d="M80.94,32.139c-0.893-5.145-2.47-10.051-4.539-14.45" />
<path fill="none" stroke="#CCCCCC" stroke-width="0.25" d="M75.881,33.853c-0.782-4.315-2.184-8.447-3.978-12.14" />
<path fill="none" stroke="#CCCCCC" stroke-width="0.25" d="M70.822,35.568c-0.647-3.464-1.771-6.773-3.247-9.738" />
<path fill="none" stroke="#CCCCCC" stroke-width="0.25" d="M65.13,37.491c-0.489-2.584-1.342-5.051-2.469-7.266" />
<path fill="none" stroke="#CCCCCC" stroke-width="0.25" d="M60.07,39.21c-0.347-1.781-0.962-3.478-1.763-5.007" />
<path fill="none" stroke="#CCCCCC" stroke-width="0.25" d="M53.375,38.516c0.463,0.788,0.843,1.709,1.042,2.623" />
<path fill="none" stroke="#E5E5E5" stroke-width="0.25" d="M76.401,17.689c-2.1-4.443-4.745-8.437-7.843-11.813" />
<path fill="none" stroke="#E5E5E5" stroke-width="0.25" d="M71.941,21.786c-1.82-3.733-4.107-7.087-6.786-9.925" />
<path fill="none" stroke="#E5E5E5" stroke-width="0.25" d="M67.575,25.83c-1.499-3-3.38-5.699-5.587-7.985" />
<path fill="none" stroke="#E5E5E5" stroke-width="0.25" d="M62.661,30.225c-1.144-2.241-2.577-4.259-4.262-5.968" />
<path fill="none" stroke="#E5E5E5" stroke-width="0.25" d="M51.641,36.441c0.692,0.615,1.292,1.328,1.761,2.126" />
<path fill="none" stroke="#E5E5E5" stroke-width="0.25" d="M58.307,34.203c-0.813-1.549-1.842-2.935-3.039-4.116" />
<path fill="none" stroke="#E5E5E5" stroke-width="0.25" d="M80.719,13.843C78.185,8.679,75,4.033,71.278,0.104" />
<path fill="none" stroke="#CCCCCC" stroke-width="0.25" d="M11.3,7.299c-3.556,4.74-6.294,10.128-8.139,15.758" />
<path fill="none" stroke="#CCCCCC" stroke-width="0.25" d="M14.708,13.05c-3.04,4.071-5.371,8.707-6.939,13.551" />
<path fill="none" stroke="#CCCCCC" stroke-width="0.25" d="M18.648,18.692c-2.572,3.445-4.525,7.415-5.849,11.517" />
<path fill="none" stroke="#CCCCCC" stroke-width="0.25" d="M21.949,24.124c-2.058,2.808-3.622,6.018-4.65,9.388" />
<path fill="none" stroke="#CCCCCC" stroke-width="0.25" d="M25.783,29.77c-1.496,2.107-2.607,4.532-3.318,7.091" />
<path fill="none" stroke="#CCCCCC" stroke-width="0.25" d="M29.616,35.837c-1.05,1.472-1.825,3.173-2.327,4.967" />
<path fill="none" stroke="#CCCCCC" stroke-width="0.25" d="M32.043,44.652c0.215-0.894,0.584-1.788,1.074-2.505" />
<path fill="none" stroke="#E5E5E5" stroke-width="0.25" d="M3.161,23.057C1.3,28.756,0.325,34.786,0.288,40.924" />
<path fill="none" stroke="#E5E5E5" stroke-width="0.25" d="M7.769,26.6c-1.573,4.901-2.391,10.099-2.401,15.392" />
<path fill="none" stroke="#E5E5E5" stroke-width="0.25" d="M12.824,30.126c-1.332,4.153-2.022,8.553-2.03,13.039" />
<path fill="none" stroke="#E5E5E5" stroke-width="0.25" d="M17.299,33.511c-1.04,3.413-1.555,7.037-1.504,10.741" />
<path fill="none" stroke="#E5E5E5" stroke-width="0.25" d="M22.465,36.861c-0.716,2.593-1.033,5.359-0.926,8.203" />
<path fill="none" stroke="#E5E5E5" stroke-width="0.25" d="M31.851,47.497c-0.074-1.014-0.008-1.994,0.208-2.903" />
<path fill="none" stroke="#E5E5E5" stroke-width="0.25" d="M27.289,40.803c-0.507,1.816-0.718,3.762-0.643,5.757" />
</g>
</svg>