<!DOCTYPE svg PUBLIC "-//W3C//DTD SVG 1.1//EN" "http://www.w3.org/Graphics/SVG/1.1/DTD/svg11.dtd"[]><svg version="1.1" id="Motion" xmlns="http://www.w3.org/2000/svg" xmlns:xlink="http://www.w3.org/1999/xlink" width="73px" height="114px" viewBox="0 0 73.439 113.998" enable-background="new 0 0 73.439 113.998" xml:space="preserve">
<g id="Group_Motion">
<path fill="none" stroke="#CCCCCC" stroke-width="0.25" d="M72.728,62.665c0.729-4.029,0.796-8.158,0.274-12.122" />
<path fill="none" stroke="#CCCCCC" stroke-width="0.25" d="M67.656,61.805c0.636-3.493,0.696-7.076,0.246-10.513" />
<path fill="none" stroke="#CCCCCC" stroke-width="0.25" d="M62.932,61.005c0.549-2.998,0.577-6.092,0.191-9.04" />
<path fill="none" stroke="#CCCCCC" stroke-width="0.25" d="M58.255,60.209c0.461-2.501,0.508-5.067,0.189-7.53" />
<path fill="none" stroke="#CCCCCC" stroke-width="0.25" d="M52.858,59.295c0.361-1.933,0.401-3.915,0.159-5.819" />
<path fill="none" stroke="#CCCCCC" stroke-width="0.25" d="M48.016,58.474c0.271-1.423,0.3-2.881,0.126-4.284" />
<path fill="none" stroke="#CCCCCC" stroke-width="0.25" d="M43.121,54.869c0.104,0.884,0.081,1.862-0.097,2.758" />
<path fill="none" stroke="#E5E5E5" stroke-width="0.25" d="M73.002,50.543c-0.534-4.008-1.677-7.909-3.401-11.55" />
<path fill="none" stroke="#E5E5E5" stroke-width="0.25" d="M67.903,51.292c-0.462-3.479-1.45-6.863-2.944-10.022" />
<path fill="none" stroke="#E5E5E5" stroke-width="0.25" d="M63.132,52.023c-0.395-2.982-1.24-5.887-2.52-8.598" />
<path fill="none" stroke="#E5E5E5" stroke-width="0.25" d="M58.445,52.679c-0.325-2.494-1.03-4.921-2.099-7.187" />
<path fill="none" stroke="#E5E5E5" stroke-width="0.25" d="M53.017,53.476c-0.248-1.929-0.79-3.807-1.613-5.56" />
<path fill="none" stroke="#E5E5E5" stroke-width="0.25" d="M42.393,52.334c0.377,0.819,0.629,1.693,0.736,2.592" />
<path fill="none" stroke="#E5E5E5" stroke-width="0.25" d="M48.142,54.191c-0.18-1.421-0.583-2.802-1.186-4.095" />
<path fill="none" stroke="#CCCCCC" stroke-width="0.25" d="M4.316,99.291c2.948,3.53,6.414,6.563,10.118,8.978" />
<path fill="none" stroke="#CCCCCC" stroke-width="0.25" d="M7.773,94.587c2.586,3.016,5.646,5.597,8.934,7.63" />
<path fill="none" stroke="#CCCCCC" stroke-width="0.25" d="M12.045,90.078c2.145,2.517,4.716,4.665,7.437,6.363" />
<path fill="none" stroke="#CCCCCC" stroke-width="0.25" d="M15.386,85.177c1.818,2.138,3.972,3.972,6.282,5.421" />
<path fill="none" stroke="#CCCCCC" stroke-width="0.25" d="M19.316,80.08c1.412,1.6,3.1,2.957,4.922,4.02" />
<path fill="none" stroke="#CCCCCC" stroke-width="0.25" d="M23.051,75.179c1.038,1.169,2.286,2.148,3.637,2.921" />
<path fill="none" stroke="#CCCCCC" stroke-width="0.25" d="M29.323,71.456c-0.868-0.649-1.741-1.495-2.443-2.419" />
<path fill="none" stroke="#E5E5E5" stroke-width="0.25" d="M14.434,108.268c3.751,2.431,7.81,4.268,12.024,5.419" />
<path fill="none" stroke="#E5E5E5" stroke-width="0.25" d="M16.706,102.217c3.331,2.052,6.944,3.581,10.71,4.514" />
<path fill="none" stroke="#E5E5E5" stroke-width="0.25" d="M19.429,96.408c2.756,1.72,5.745,3.003,8.859,3.792" />
<path fill="none" stroke="#E5E5E5" stroke-width="0.25" d="M21.668,90.597c2.341,1.465,4.879,2.558,7.527,3.231" />
<path fill="none" stroke="#E5E5E5" stroke-width="0.25" d="M24.238,84.099c1.851,1.076,3.868,1.86,5.982,2.322" />
<path fill="none" stroke="#E5E5E5" stroke-width="0.25" d="M32.081,72.918c-0.979-0.341-1.931-0.846-2.814-1.505" />
<path fill="none" stroke="#E5E5E5" stroke-width="0.25" d="M26.688,78.1c1.375,0.773,2.875,1.33,4.451,1.657" />
<path fill="none" stroke="#CCCCCC" stroke-width="0.25" d="M21.24,0.327C17.136,1.905,13.206,4.43,9.665,7.635" />
<path fill="none" stroke="#CCCCCC" stroke-width="0.25" d="M22.452,7.635C18.895,9,15.482,11.187,12.41,13.965" />
<path fill="none" stroke="#CCCCCC" stroke-width="0.25" d="M23.582,14.446c-3.054,1.167-5.992,3.088-8.627,5.468" />
<path fill="none" stroke="#CCCCCC" stroke-width="0.25" d="M24.698,21.189c-2.55,0.969-4.996,2.531-7.197,4.516" />
<path fill="none" stroke="#CCCCCC" stroke-width="0.25" d="M25.989,28.968c-1.972,0.743-3.864,1.943-5.568,3.473" />
<path fill="none" stroke="#CCCCCC" stroke-width="0.25" d="M27.146,35.948c-1.454,0.541-2.845,1.425-4.101,2.546" />
<path fill="none" stroke="#CCCCCC" stroke-width="0.25" d="M25.692,44.759c0.795-0.697,1.728-1.286,2.646-1.617" />
<path fill="none" stroke="#E5E5E5" stroke-width="0.25" d="M9.665,7.635c-3.578,3.251-6.811,7.246-9.566,11.852" />
<path fill="none" stroke="#E5E5E5" stroke-width="0.25" d="M12.41,13.965c-3.105,2.819-5.912,6.28-8.303,10.274" />
<path fill="none" stroke="#E5E5E5" stroke-width="0.25" d="M15.008,19.866c-2.664,2.414-5.073,5.382-7.125,8.805" />
<path fill="none" stroke="#E5E5E5" stroke-width="0.25" d="M17.5,25.704c-2.229,2.012-4.244,4.49-5.96,7.351" />
<path fill="none" stroke="#E5E5E5" stroke-width="0.25" d="M20.421,32.441c-1.725,1.552-3.284,3.464-4.614,5.672" />
<path fill="none" stroke="#E5E5E5" stroke-width="0.25" d="M23.585,47.338c0.624-1.022,1.35-1.911,2.157-2.624" />
<path fill="none" stroke="#E5E5E5" stroke-width="0.25" d="M23.045,38.493c-1.273,1.138-2.417,2.55-3.4,4.173" />
</g>
</svg>