<!DOCTYPE svg PUBLIC "-//W3C//DTD SVG 1.1//EN" "http://www.w3.org/Graphics/SVG/1.1/DTD/svg11.dtd"[]><svg version="1.1" id="Motion" xmlns="http://www.w3.org/2000/svg" xmlns:xlink="http://www.w3.org/1999/xlink" width="73px" height="114px" viewBox="0 0 73.439 113.998" enable-background="new 0 0 73.439 113.998" xml:space="preserve">
<g id="Group_Motion">
<path fill="none" stroke="#CCCCCC" stroke-width="0.25" d="M46.875,0.103c4.133,0.934,8.148,2.721,11.809,5.153" />
<path fill="none" stroke="#CCCCCC" stroke-width="0.25" d="M46.776,6.782c3.451,0.839,6.812,2.401,9.887,4.501" />
<path fill="none" stroke="#CCCCCC" stroke-width="0.25" d="M45.69,13.657c2.991,0.634,5.899,1.917,8.538,3.623" />
<path fill="none" stroke="#CCCCCC" stroke-width="0.25" d="M45.098,20.533c2.466,0.498,4.854,1.495,7.023,2.875" />
<path fill="none" stroke="#CCCCCC" stroke-width="0.25" d="M44.308,27.998c1.889,0.32,3.703,1.018,5.349,2.002" />
<path fill="none" stroke="#CCCCCC" stroke-width="0.25" d="M43.519,35.07c1.341,0.161,2.622,0.589,3.774,1.209" />
<path fill="none" stroke="#CCCCCC" stroke-width="0.25" d="M44.733,42.999c-0.593-0.261-1.297-0.435-2.004-0.465" />
<path fill="none" stroke="#E5E5E5" stroke-width="0.25" d="M58.684,5.256c3.703,2.465,7.103,5.625,10.061,9.374" />
<path fill="none" stroke="#E5E5E5" stroke-width="0.25" d="M56.662,11.283c3.108,2.13,5.976,4.851,8.484,8.062" />
<path fill="none" stroke="#E5E5E5" stroke-width="0.25" d="M54.176,17.246c2.665,1.733,5.11,3.963,7.233,6.618" />
<path fill="none" stroke="#E5E5E5" stroke-width="0.25" d="M52.121,23.408c2.197,1.399,4.207,3.208,5.945,5.369" />
<path fill="none" stroke="#E5E5E5" stroke-width="0.25" d="M49.656,30c1.662,1,3.175,2.309,4.477,3.886" />
<path fill="none" stroke="#E5E5E5" stroke-width="0.25" d="M46.266,44.104c-0.444-0.473-0.971-0.854-1.572-1.121" />
<path fill="none" stroke="#E5E5E5" stroke-width="0.25" d="M47.293,36.279c1.168,0.628,2.212,1.485,3.103,2.52" />
<path fill="none" stroke="#CCCCCC" stroke-width="0.25" d="M2.237,45.686c-1.414,5.5-1.943,11.18-1.659,16.671" />
<path fill="none" stroke="#CCCCCC" stroke-width="0.25" d="M6.446,48.004c-1.264,4.86-1.749,9.874-1.521,14.722" />
<path fill="none" stroke="#CCCCCC" stroke-width="0.25" d="M10.647,49.948c-1.018,4.093-1.331,8.364-1.062,12.469" />
<path fill="none" stroke="#CCCCCC" stroke-width="0.25" d="M15.198,51.891c-0.795,3.293-1.036,6.707-0.775,10.021" />
<path fill="none" stroke="#CCCCCC" stroke-width="0.25" d="M20.251,54.224c-0.556,2.436-0.688,4.967-0.439,7.435" />
<path fill="none" stroke="#CCCCCC" stroke-width="0.25" d="M25.108,56.189c-0.383,1.686-0.458,3.45-0.278,5.167" />
<path fill="none" stroke="#CCCCCC" stroke-width="0.25" d="M30.064,61.301c-0.107-0.853-0.083-1.777,0.096-2.606" />
<path fill="none" stroke="#E5E5E5" stroke-width="0.25" d="M0.577,62.357c0.297,5.553,1.427,10.996,3.37,16.113" />
<path fill="none" stroke="#E5E5E5" stroke-width="0.25" d="M4.925,62.725c0.24,4.896,1.215,9.697,2.903,14.212" />
<path fill="none" stroke="#E5E5E5" stroke-width="0.25" d="M9.58,62.335c0.282,4.154,1.191,8.229,2.714,12.08" />
<path fill="none" stroke="#E5E5E5" stroke-width="0.25" d="M14.424,61.912c0.269,3.36,1.052,6.664,2.338,9.787" />
<path fill="none" stroke="#E5E5E5" stroke-width="0.25" d="M19.812,61.659c0.255,2.502,0.904,4.974,1.928,7.323" />
<path fill="none" stroke="#E5E5E5" stroke-width="0.25" d="M30.819,63.793c-0.389-0.821-0.648-1.681-0.76-2.551" />
<path fill="none" stroke="#E5E5E5" stroke-width="0.25" d="M24.83,61.356c0.185,1.74,0.662,3.46,1.39,5.104" />
<path fill="none" stroke="#CCCCCC" stroke-width="0.25" d="M53.448,113.938c3.857-1.729,7.507-4.365,10.746-7.641" />
<path fill="none" stroke="#CCCCCC" stroke-width="0.25" d="M51.922,106.938c3.347-1.496,6.514-3.781,9.324-6.616" />
<path fill="none" stroke="#CCCCCC" stroke-width="0.25" d="M50.499,100.418c2.872-1.28,5.596-3.282,8.009-5.716" />
<path fill="none" stroke="#CCCCCC" stroke-width="0.25" d="M49.094,93.958c2.398-1.061,4.668-2.69,6.682-4.719" />
<path fill="none" stroke="#CCCCCC" stroke-width="0.25" d="M47.468,86.513c1.856-0.819,3.609-2.072,5.17-3.637" />
<path fill="none" stroke="#CCCCCC" stroke-width="0.25" d="M46.012,79.827c1.366-0.594,2.656-1.52,3.809-2.663" />
<path fill="none" stroke="#CCCCCC" stroke-width="0.25" d="M46.969,71.245c-0.729,0.716-1.596,1.327-2.463,1.692" />
<path fill="none" stroke="#E5E5E5" stroke-width="0.25" d="M64.194,106.298c3.272-3.319,6.174-7.341,8.591-11.928" />
<path fill="none" stroke="#E5E5E5" stroke-width="0.25" d="M61.246,100.322c2.839-2.876,5.356-6.363,7.454-10.341" />
<path fill="none" stroke="#E5E5E5" stroke-width="0.25" d="M58.459,94.753c2.436-2.467,4.599-5.455,6.4-8.861" />
<path fill="none" stroke="#E5E5E5" stroke-width="0.25" d="M55.776,89.239c2.039-2.06,3.847-4.55,5.354-7.397" />
<path fill="none" stroke="#E5E5E5" stroke-width="0.25" d="M52.638,82.877c1.577-1.587,2.978-3.509,4.146-5.711" />
<path fill="none" stroke="#E5E5E5" stroke-width="0.25" d="M48.861,68.649c-0.548,1.019-1.199,1.913-1.938,2.642" />
<path fill="none" stroke="#E5E5E5" stroke-width="0.25" d="M49.821,77.164c1.164-1.161,2.191-2.585,3.054-4.199" />
</g>
</svg>