<!DOCTYPE svg PUBLIC "-//W3C//DTD SVG 1.1//EN" "http://www.w3.org/Graphics/SVG/1.1/DTD/svg11.dtd"[]><svg version="1.1" id="Motion" xmlns="http://www.w3.org/2000/svg" xmlns:xlink="http://www.w3.org/1999/xlink" width="87px" height="114px" viewBox="0 0 86.789 113.998" enable-background="new 0 0 86.789 113.998" xml:space="preserve">
<g id="Group_Motion">
<path fill="none" stroke="#CCCCCC" stroke-width="0.25" d="M78.367,99.246c2.572-3.255,4.56-7.104,5.906-11.238" />
<path fill="none" stroke="#CCCCCC" stroke-width="0.25" d="M73.932,94.612c2.234-2.821,3.958-6.156,5.129-9.741" />
<path fill="none" stroke="#CCCCCC" stroke-width="0.25" d="M69.801,90.297c1.916-2.418,3.385-5.318,4.39-8.392" />
<path fill="none" stroke="#CCCCCC" stroke-width="0.25" d="M65.71,86.021c1.604-2.017,2.843-4.402,3.687-6.968" />
<path fill="none" stroke="#CCCCCC" stroke-width="0.25" d="M60.989,81.09c1.244-1.554,2.204-3.395,2.86-5.374" />
<path fill="none" stroke="#CCCCCC" stroke-width="0.25" d="M56.751,76.665c0.923-1.14,1.629-2.496,2.115-3.95" />
<path fill="none" stroke="#CCCCCC" stroke-width="0.25" d="M53.763,69.573c-0.313,0.913-0.79,1.818-1.377,2.53" />
<path fill="none" stroke="#E5E5E5" stroke-width="0.25" d="M84.273,88.008c1.355-4.188,2.082-8.734,2.132-13.47" />
<path fill="none" stroke="#E5E5E5" stroke-width="0.25" d="M79.061,84.871c1.177-3.632,1.809-7.574,1.855-11.684" />
<path fill="none" stroke="#E5E5E5" stroke-width="0.25" d="M74.172,81.967c1.013-3.114,1.557-6.494,1.6-10.018" />
<path fill="none" stroke="#E5E5E5" stroke-width="0.25" d="M69.396,79.053c0.849-2.601,1.307-5.423,1.343-8.368" />
<path fill="none" stroke="#E5E5E5" stroke-width="0.25" d="M63.849,75.716c0.657-2.01,1.018-4.19,1.049-6.468" />
<path fill="none" stroke="#E5E5E5" stroke-width="0.25" d="M54.248,66.631c-0.021,1.058-0.187,2.07-0.503,3.002" />
<path fill="none" stroke="#E5E5E5" stroke-width="0.25" d="M58.866,72.715c0.493-1.476,0.75-3.082,0.776-4.759" />
<path fill="none" stroke="#CCCCCC" stroke-width="0.25" d="M0.401,85.746c1.508,5.641,3.715,10.947,6.4,15.628" />
<path fill="none" stroke="#CCCCCC" stroke-width="0.25" d="M5.788,83.291c1.307,4.897,3.218,9.496,5.544,13.561" />
<path fill="none" stroke="#CCCCCC" stroke-width="0.25" d="M10.808,81.006c1.118,4.198,2.792,8.158,4.786,11.642" />
<path fill="none" stroke="#CCCCCC" stroke-width="0.25" d="M15.777,78.744c0.93,3.506,2.296,6.806,3.958,9.716" />
<path fill="none" stroke="#CCCCCC" stroke-width="0.25" d="M21.512,76.125c0.714,2.717,1.764,5.269,3.046,7.522" />
<path fill="none" stroke="#CCCCCC" stroke-width="0.25" d="M26.658,73.783c0.518,2.001,1.294,3.877,2.233,5.543" />
<path fill="none" stroke="#CCCCCC" stroke-width="0.25" d="M33.383,74.947c-0.587-1.053-1.102-2.313-1.422-3.58" />
<path fill="none" stroke="#E5E5E5" stroke-width="0.25" d="M6.801,101.374c2.722,4.729,5.977,8.896,9.648,12.325" />
<path fill="none" stroke="#E5E5E5" stroke-width="0.25" d="M11.332,96.851c2.361,4.103,5.182,7.72,8.366,10.699" />
<path fill="none" stroke="#E5E5E5" stroke-width="0.25" d="M15.554,92.578c2.023,3.524,4.44,6.627,7.17,9.182" />
<path fill="none" stroke="#E5E5E5" stroke-width="0.25" d="M19.736,88.46c1.688,2.95,3.705,5.548,5.987,7.686" />
<path fill="none" stroke="#E5E5E5" stroke-width="0.25" d="M24.558,83.647c1.304,2.28,2.86,4.294,4.623,5.951" />
<path fill="none" stroke="#E5E5E5" stroke-width="0.25" d="M35.483,77.664c-0.816-0.781-1.54-1.712-2.137-2.787" />
<path fill="none" stroke="#E5E5E5" stroke-width="0.25" d="M28.891,79.326c0.954,1.685,2.105,3.159,3.399,4.38" />
<path fill="none" stroke="#CCCCCC" stroke-width="0.25" d="M52.287,1.286c-3.962-0.974-8.304-1.132-12.717-0.561" />
<path fill="none" stroke="#CCCCCC" stroke-width="0.25" d="M50.358,8.522c-3.341-0.805-7.007-0.915-10.737-0.407" />
<path fill="none" stroke="#CCCCCC" stroke-width="0.25" d="M48.858,15.961c-2.823-0.672-5.963-0.726-9.124-0.281" />
<path fill="none" stroke="#CCCCCC" stroke-width="0.25" d="M47.557,22.928c-2.281-0.498-4.803-0.504-7.382-0.074" />
<path fill="none" stroke="#CCCCCC" stroke-width="0.25" d="M46.609,30.856c-1.839-0.374-3.879-0.337-5.976,0.056" />
<path fill="none" stroke="#CCCCCC" stroke-width="0.25" d="M45.644,38.678c-1.473-0.338-3.106-0.347-4.773-0.083" />
<path fill="none" stroke="#CCCCCC" stroke-width="0.25" d="M41.266,46.515c1.311,0.012,2.707,0.233,3.931,0.674" />
<path fill="none" stroke="#E5E5E5" stroke-width="0.25" d="M39.57,0.725c-4.465,0.587-9.07,1.929-13.639,3.989" />
<path fill="none" stroke="#E5E5E5" stroke-width="0.25" d="M39.621,8.115c-3.775,0.522-7.674,1.684-11.548,3.456" />
<path fill="none" stroke="#E5E5E5" stroke-width="0.25" d="M39.797,15.671c-3.201,0.456-6.506,1.454-9.795,2.972" />
<path fill="none" stroke="#E5E5E5" stroke-width="0.25" d="M40.176,22.854c-2.613,0.439-5.322,1.327-8.031,2.646" />
<path fill="none" stroke="#E5E5E5" stroke-width="0.25" d="M40.634,30.912c-2.127,0.405-4.339,1.175-6.561,2.302" />
<path fill="none" stroke="#E5E5E5" stroke-width="0.25" d="M37.353,47.141c1.317-0.418,2.665-0.634,3.998-0.625" />
<path fill="none" stroke="#E5E5E5" stroke-width="0.25" d="M40.871,38.595c-1.693,0.27-3.45,0.847-5.204,1.69" />
</g>
</svg>