<!DOCTYPE svg PUBLIC "-//W3C//DTD SVG 1.1//EN" "http://www.w3.org/Graphics/SVG/1.1/DTD/svg11.dtd"[]><svg version="1.1" id="Motion" xmlns="http://www.w3.org/2000/svg" xmlns:xlink="http://www.w3.org/1999/xlink" width="105px" height="114px" viewBox="0 0 104.76 113.998" enable-background="new 0 0 104.76 113.998" xml:space="preserve">
<g id="Group_Motion">
<path fill="none" stroke="#CCCCCC" stroke-width="0.25" d="M28.001,0.272C22.483,2.025,17.275,4.68,12.661,7.97" />
<path fill="none" stroke="#CCCCCC" stroke-width="0.25" d="M30.256,7.25c-4.788,1.517-9.306,3.817-13.309,6.668" />
<path fill="none" stroke="#CCCCCC" stroke-width="0.25" d="M32.357,13.753c-4.106,1.296-7.996,3.314-11.43,5.756" />
<path fill="none" stroke="#CCCCCC" stroke-width="0.25" d="M34.437,20.189c-3.433,1.079-6.672,2.722-9.543,4.759" />
<path fill="none" stroke="#CCCCCC" stroke-width="0.25" d="M36.837,27.616c-2.655,0.828-5.16,2.093-7.382,3.663" />
<path fill="none" stroke="#CCCCCC" stroke-width="0.25" d="M38.991,34.281c-1.957,0.603-3.8,1.533-5.439,2.684" />
<path fill="none" stroke="#CCCCCC" stroke-width="0.25" d="M37.697,42.858c1.038-0.718,2.275-1.338,3.513-1.708" />
<path fill="none" stroke="#E5E5E5" stroke-width="0.25" d="M12.661,7.97C8,11.305,3.872,15.339,0.451,19.934" />
<path fill="none" stroke="#E5E5E5" stroke-width="0.25" d="M16.947,13.918c-4.046,2.891-7.629,6.388-10.599,10.373" />
<path fill="none" stroke="#E5E5E5" stroke-width="0.25" d="M20.995,19.462c-3.472,2.477-6.547,5.474-9.097,8.89" />
<path fill="none" stroke="#E5E5E5" stroke-width="0.25" d="M24.894,24.948c-2.904,2.067-5.477,4.568-7.609,7.421" />
<path fill="none" stroke="#E5E5E5" stroke-width="0.25" d="M29.455,31.279c-2.249,1.594-4.241,3.525-5.893,5.729" />
<path fill="none" stroke="#E5E5E5" stroke-width="0.25" d="M35.006,45.462c0.776-1.021,1.704-1.918,2.758-2.65" />
<path fill="none" stroke="#E5E5E5" stroke-width="0.25" d="M33.552,36.965c-1.66,1.169-3.121,2.595-4.341,4.216" />
<path fill="none" stroke="#CCCCCC" stroke-width="0.25" d="M103.734,65.826c1-5.665,1.06-11.477,0.282-17.061" />
<path fill="none" stroke="#CCCCCC" stroke-width="0.25" d="M96.527,64.57c0.87-4.913,0.924-9.954,0.254-14.797" />
<path fill="none" stroke="#CCCCCC" stroke-width="0.25" d="M89.811,63.4c0.751-4.213,0.763-8.569,0.19-12.722" />
<path fill="none" stroke="#CCCCCC" stroke-width="0.25" d="M83.162,62.241c0.632-3.519,0.676-7.129,0.202-10.6" />
<path fill="none" stroke="#CCCCCC" stroke-width="0.25" d="M75.49,60.904c0.495-2.718,0.534-5.509,0.173-8.19" />
<path fill="none" stroke="#CCCCCC" stroke-width="0.25" d="M68.605,59.705c0.372-2,0.401-4.054,0.141-6.028" />
<path fill="none" stroke="#CCCCCC" stroke-width="0.25" d="M61.624,54.586c0.154,1.247,0.131,2.622-0.113,3.881" />
<path fill="none" stroke="#E5E5E5" stroke-width="0.25" d="M104.017,48.765c-0.794-5.647-2.453-11.148-4.933-16.29" />
<path fill="none" stroke="#E5E5E5" stroke-width="0.25" d="M96.781,49.773c-0.687-4.899-2.122-9.673-4.271-14.134" />
<path fill="none" stroke="#E5E5E5" stroke-width="0.25" d="M90.013,50.76c-0.586-4.203-1.813-8.298-3.654-12.125" />
<path fill="none" stroke="#E5E5E5" stroke-width="0.25" d="M83.364,51.641c-0.485-3.513-1.508-6.937-3.044-10.136" />
<path fill="none" stroke="#E5E5E5" stroke-width="0.25" d="M75.663,52.714c-0.37-2.717-1.156-5.365-2.341-7.84" />
<path fill="none" stroke="#E5E5E5" stroke-width="0.25" d="M60.566,51.011c0.543,1.156,0.908,2.388,1.067,3.655" />
<path fill="none" stroke="#E5E5E5" stroke-width="0.25" d="M68.746,53.677c-0.266-2.002-0.852-3.948-1.72-5.774" />
<path fill="none" stroke="#CCCCCC" stroke-width="0.25" d="M6.507,100.77c4.344,3.828,9.301,6.926,14.498,9.187" />
<path fill="none" stroke="#CCCCCC" stroke-width="0.25" d="M11.327,95.245c3.766,3.322,8.064,6.011,12.569,7.975" />
<path fill="none" stroke="#CCCCCC" stroke-width="0.25" d="M15.819,90.094c3.226,2.853,6.959,5.146,10.821,6.833" />
<path fill="none" stroke="#CCCCCC" stroke-width="0.25" d="M20.267,84.998c2.692,2.387,5.769,4.317,8.993,5.729" />
<path fill="none" stroke="#CCCCCC" stroke-width="0.25" d="M25.396,79.115c2.077,1.851,4.452,3.347,6.941,4.442" />
<path fill="none" stroke="#CCCCCC" stroke-width="0.25" d="M30.001,73.837c1.524,1.368,3.271,2.469,5.102,3.281" />
<path fill="none" stroke="#CCCCCC" stroke-width="0.25" d="M38.02,70.53c-1.15-0.521-2.318-1.263-3.273-2.133" />
<path fill="none" stroke="#E5E5E5" stroke-width="0.25" d="M21.005,109.957c5.259,2.278,10.843,3.738,16.543,4.306" />
<path fill="none" stroke="#E5E5E5" stroke-width="0.25" d="M23.896,103.219c4.562,1.979,9.405,3.25,14.35,3.744" />
<path fill="none" stroke="#E5E5E5" stroke-width="0.25" d="M26.564,96.895c3.912,1.7,8.064,2.793,12.305,3.22" />
<path fill="none" stroke="#E5E5E5" stroke-width="0.25" d="M29.26,90.727c3.267,1.426,6.736,2.343,10.28,2.702" />
<path fill="none" stroke="#E5E5E5" stroke-width="0.25" d="M32.337,83.557c2.525,1.106,5.206,1.82,7.945,2.102" />
<path fill="none" stroke="#E5E5E5" stroke-width="0.25" d="M41.637,71.496c-1.274-0.141-2.521-0.473-3.692-1" />
<path fill="none" stroke="#E5E5E5" stroke-width="0.25" d="M35.103,77.118c1.857,0.821,3.831,1.339,5.849,1.551" />
</g>
</svg>