<!DOCTYPE svg PUBLIC "-//W3C//DTD SVG 1.1//EN" "http://www.w3.org/Graphics/SVG/1.1/DTD/svg11.dtd"[]><svg version="1.1" xmlns="http://www.w3.org/2000/svg" xmlns:xlink="http://www.w3.org/1999/xlink" width="78px" height="114px" viewBox="0 0 77.709 113.998" enable-background="new 0 0 77.709 113.998" xml:space="preserve">
<g id="Group_Pole">
	<linearGradient id="SVGID_1_" gradientUnits="userSpaceOnUse" x1="30.3538" y1="72.0046" x2="34.4612" y2="72.0046">
		<stop offset="0" style="stop-color:#999999" />
		<stop offset="0.5" style="stop-color:#E5E5E5" />
		<stop offset="1" style="stop-color:#999999" />
	</linearGradient>
	<path fill="url(#SVGID_1_)" d="M34.461,99.391l-0.912-54.773h-2.282l-0.913,54.773H34.461z" />
</g>
<g id="Group_Steps">
	<path fill="#B00C0A" stroke="#B00C0A" stroke-width="0.25" d="M35.146,99.506v14.492" />
	<path fill="#B00C0A" stroke="#B00C0A" stroke-width="0.25" d="M34.575,100.418h0.57" />
	<path fill="#B00C0A" stroke="#B00C0A" stroke-width="0.25" d="M34.575,101.901h0.57" />
	<path fill="#B00C0A" stroke="#B00C0A" stroke-width="0.25" d="M34.575,103.271h0.57" />
	<path fill="#B00C0A" stroke="#B00C0A" stroke-width="0.25" d="M34.575,104.755h0.57" />
	<path fill="#B00C0A" stroke="#B00C0A" stroke-width="0.25" d="M34.575,106.238h0.57" />
	<path fill="#B00C0A" stroke="#B00C0A" stroke-width="0.25" d="M34.575,107.607h0.57" />
	<path fill="#B00C0A" stroke="#B00C0A" stroke-width="0.25" d="M34.575,108.976h0.57" />
	<path fill="#B00C0A" stroke="#B00C0A" stroke-width="0.25" d="M34.575,110.574h0.57" />
	<path fill="#B00C0A" stroke="#B00C0A" stroke-width="0.25" d="M34.575,111.943h0.57" />
	<path fill="#B00C0A" stroke="#B00C0A" stroke-width="0.25" d="M34.575,113.312h0.57" />
	<path fill="none" stroke="#666666" stroke-width="0.25" d="M29.098,99.049v-1.141" />
	<path fill="none" stroke="#666666" stroke-width="0.25" d="M35.032,99.049v-1.141" />
	<path fill="none" stroke="#666666" stroke-width="0.25" d="M29.669,99.049v-1.141" />
	<path fill="none" stroke="#666666" stroke-width="0.25" d="M30.924,99.049v-1.141" />
	<path fill="none" stroke="#666666" stroke-width="0.25" d="M32.407,99.049v-1.141" />
	<path fill="none" stroke="#666666" stroke-width="0.25" d="M33.891,99.049v-1.141" />
	<path fill="none" stroke="#666666" stroke-width="0.25" d="M35.603,99.049v-1.141" />
	<path fill="none" stroke="#B2B2B2" stroke-width="0.25" d="M28.948,97.908h6.797" />
</g>
<g id="Group_Base">
	<linearGradient id="SVGID_2_" gradientUnits="userSpaceOnUse" x1="30.011" y1="106.4656" x2="34.804" y2="106.4656">
		<stop offset="0" style="stop-color:#D11101" />
		<stop offset="0.52" style="stop-color:#FF3927" />
		<stop offset="1" style="stop-color:#D11101" />
	</linearGradient>
	<path fill="url(#SVGID_2_)" d="M30.011,99.163h4.793v14.606h-4.793V99.163z" />
	<path fill="#E62E1D" stroke="#E62E1D" stroke-width="0.25" stroke-miterlimit="10" d="M29.098,99.049h6.505v0.457h-6.505V99.049z" />
	<path fill="#E62E1D" stroke="#E62E1D" stroke-width="0.25" d="M30.011,113.769h4.793v0.228h-4.793V113.769z" />
	<path fill="#75150C" d="M34.801,99.506h-4.793h-0.913l0.913,0.228v0.685c0,0,0.859-0.56,2.282-0.575   c1.593-0.018,2.511,0.575,2.511,0.575v-0.685l0.799-0.228H34.801z" />
</g>
<g id="Group_Center">
	<radialGradient id="SVGID_3_" cx="32.3562" cy="44.8401" r="3.6091" gradientUnits="userSpaceOnUse">
		<stop offset="0" style="stop-color:#FFFFFF" />
		<stop offset="0.5" style="stop-color:#AAAAAA" />
		<stop offset="1" style="stop-color:#CCCCCC" />
	</radialGradient>
	<path fill="url(#SVGID_3_)" d="M31.837,46.786c-0.507-0.134-1.354-0.975-1.483-1.483c-0.125-0.49,0.199-1.597,0.57-1.94   c0.386-0.357,1.548-0.603,2.054-0.456c0.465,0.135,1.237,0.903,1.37,1.369c0.137,0.479-0.111,1.581-0.457,1.94   C33.521,46.6,32.353,46.922,31.837,46.786z" />
</g>
<g id="Group_Blades">
	<linearGradient id="SVGID_4_" gradientUnits="userSpaceOnUse" x1="56.3713" y1="48.9602" x2="55.5844" y2="51.8201">
		<stop offset="0" style="stop-color:#8C8C8C" />
		<stop offset="0.5" style="stop-color:#F2F2F2" />
		<stop offset="1" style="stop-color:#8C8C8C" />
	</linearGradient>
	<path fill="url(#SVGID_4_)" d="M33.891,46.216l43.477,10.155l0.342-0.228l-0.228-0.571l-33.32-10.27l-2.739-0.913l-1.483-0.229   l-3.651,0.114h-1.939L33.891,46.216z" />
	<linearGradient id="SVGID_5_" gradientUnits="userSpaceOnUse" x1="26.7703" y1="21.2986" x2="23.9579" y2="22.0497">
		<stop offset="0" style="stop-color:#8C8C8C" />
		<stop offset="0.5" style="stop-color:#F2F2F2" />
		<stop offset="1" style="stop-color:#8C8C8C" />
	</linearGradient>
	<path fill="url(#SVGID_5_)" d="M32.978,42.906L19.856,0.228l-0.457-0.228L19.17,0.343l7.76,34.119l0.571,2.739l0.456,1.483   l1.939,3.081l1.027,1.597L32.978,42.906z" />
	<linearGradient id="SVGID_6_" gradientUnits="userSpaceOnUse" x1="14.5652" y1="61.2566" x2="17.1111" y2="63.8724">
		<stop offset="0" style="stop-color:#8C8C8C" />
		<stop offset="0.5" style="stop-color:#F2F2F2" />
		<stop offset="1" style="stop-color:#8C8C8C" />
	</linearGradient>
	<path fill="url(#SVGID_6_)" d="M30.354,45.302L0,77.938v0.57h0.57l25.561-23.735l2.055-1.825l1.026-1.142l1.712-3.194l0.913-1.826   L30.354,45.302z" />
</g>
<g id="Group_Strips">
	<linearGradient id="SVGID_7_" gradientUnits="userSpaceOnUse" x1="60.5588" y1="52.5818" x2="61.1134" y2="50.5442">
		<stop offset="0" style="stop-color:#D61A09" />
		<stop offset="0.5" style="stop-color:#FF3927" />
		<stop offset="1" style="stop-color:#D61A09" />
	</linearGradient>
	<path fill="url(#SVGID_7_)" d="M58.448,49.705l5.257,1.621l-0.391,1.762l-5.401-1.262L58.448,49.705z" />
	<linearGradient id="SVGID_8_" gradientUnits="userSpaceOnUse" x1="71.634" y1="55.0691" x2="71.9458" y2="53.8794">
		<stop offset="0" style="stop-color:#D61A09" />
		<stop offset="0.5" style="stop-color:#FF3927" />
		<stop offset="1" style="stop-color:#D61A09" />
	</linearGradient>
	<path fill="url(#SVGID_8_)" d="M70.322,53.365l3.223,0.994l-0.245,1.067l-3.314-0.77L70.322,53.365z" />
	<linearGradient id="SVGID_9_" gradientUnits="userSpaceOnUse" x1="11.6853" y1="65.3777" x2="13.2601" y2="66.8841">
		<stop offset="0" style="stop-color:#D61A09" />
		<stop offset="0.42" style="stop-color:#FF3927" />
		<stop offset="1" style="stop-color:#D61A09" />
	</linearGradient>
	<path fill="url(#SVGID_9_)" d="M15.205,64.919l-4.12,3.825l-1.304-1.322l3.84-4.13L15.205,64.919z" />
	<linearGradient id="SVGID_10_" gradientUnits="userSpaceOnUse" x1="3.9646" y1="73.6316" x2="4.9041" y2="74.46">
		<stop offset="0" style="stop-color:#D61A09" />
		<stop offset="0.42" style="stop-color:#FF3927" />
		<stop offset="1" style="stop-color:#D61A09" />
	</linearGradient>
	<path fill="url(#SVGID_10_)" d="M6.164,73.314l-2.542,2.36l-0.763-0.787l2.326-2.524L6.164,73.314z" />
	<linearGradient id="SVGID_11_" gradientUnits="userSpaceOnUse" x1="22.8518" y1="17.1716" x2="25.0043" y2="16.5943">
		<stop offset="0" style="stop-color:#D61A09" />
		<stop offset="0.5" style="stop-color:#FF3927" />
		<stop offset="1" style="stop-color:#D61A09" />
	</linearGradient>
	<path fill="url(#SVGID_11_)" d="M23.611,19.855l-1.255-5.478l1.717-0.435l1.656,5.385L23.611,19.855z" />
	<linearGradient id="SVGID_12_" gradientUnits="userSpaceOnUse" x1="20.5027" y1="6.1594" x2="21.6509" y2="5.8044">
		<stop offset="0" style="stop-color:#D61A09" />
		<stop offset="0.5" style="stop-color:#FF3927" />
		<stop offset="1" style="stop-color:#D61A09" />
	</linearGradient>
	<path fill="url(#SVGID_12_)" d="M20.863,7.784L20.12,4.521l0.95-0.299l0.979,3.22L20.863,7.784z" />
</g>
</svg>