<!DOCTYPE svg PUBLIC "-//W3C//DTD SVG 1.1//EN" "http://www.w3.org/Graphics/SVG/1.1/DTD/svg11.dtd"[]><svg version="1.1" xmlns="http://www.w3.org/2000/svg" xmlns:xlink="http://www.w3.org/1999/xlink" width="131px" height="41px" viewBox="0 0 131.25 40.73" enable-background="new 0 0 131.25 40.73" xml:space="preserve">
<g id="Group_Frame">
	<linearGradient id="SVGID_1_" gradientUnits="userSpaceOnUse" x1="109.4604" y1="19.7705" x2="108.4313" y2="10.3141">
		<stop offset="0" style="stop-color:#B2B2B2" />
		<stop offset="0.5" style="stop-color:#CCCCCC" />
		<stop offset="1" style="stop-color:#B2B2B2" />
	</linearGradient>
	<path fill="url(#SVGID_1_)" d="M89.076,6.439l1.576,2.627l0.395-0.131l1.971,3.81c0,0,23.775-3.218,31.531-5.124   c0.683-0.168,1.693-0.563,2.126-1.839c0.337-0.993,1.159-2.497,1.159-2.497l1.707,21.152l-0.656-0.525c0,0-0.296-1.144-0.657-1.707   c-0.689-1.074-2.738-1.235-3.416-1.446c-1.825-0.567-6.7-3.679-6.7-3.679l-28.51,5.518L89.076,6.439z" />
	<linearGradient id="SVGID_2_" gradientUnits="userSpaceOnUse" x1="130.2378" y1="26.9775" x2="127.8648" y2="0.5409">
		<stop offset="0" style="stop-color:#6E6E6E" />
		<stop offset="0.5" style="stop-color:#EDEDED" />
		<stop offset="1" style="stop-color:#6E6E6E" />
	</linearGradient>
	<path fill="url(#SVGID_2_)" d="M131.25,26.934l-2.104,0.264l-2.364-26.145l2.233-0.263L131.25,26.934z" />
</g>
<g id="Group_Layer_6">
	<path fill="none" stroke="#DC0000" stroke-width="0.25" d="M45.852,22.599l18.788-1.445" />
	<path fill="#DC0000" d="M46.114,20.234l4.993-0.394l0.525,4.729l-5.124,0.525L46.114,20.234z" />
	<path fill="#DC0000" d="M62.011,19.445l2.365-0.131l0.394,3.678l-2.365,0.264L62.011,19.445z" />
</g>
<g id="Group_Motor">
	<path fill="#999999" stroke="#999999" stroke-width="0.25" d="M16.554,9.198c0,0-0.732,0.005-0.792,0.48   c-0.09,0.718,0.923,0.702,0.923,0.702l0.526,0.329l-0.457,0.419c0,0-1.645-0.342-1.645-1.405c0-1.046,1.333-1.404,1.333-1.404   l0.683,0.327L16.554,9.198z" />
	<path fill="#999999" d="M7.226,16.949l-1.577,0.131v1.051L7.357,18L7.226,16.949z" />
	<path fill="#B2B2B2" d="M18.262,25.489l-0.525-3.022L7.489,23.124l-0.92-10.642h0.526L6.569,6.964L12.35,6.57l0.263,5.387   l4.205-0.263l-0.395-3.547l0.789,0.263V5.914c0,0,11.124-4.393,14.977-5.387c1.127-0.291,3.528-0.567,4.64-0.398   c1.991,0.304,7.185,3.157,7.185,3.157l0.131,2.628h0.92l1.577,17.342L18.262,25.489z" />
	<linearGradient id="SVGID_3_" gradientUnits="userSpaceOnUse" x1="15.9917" y1="22.6318" x2="15.1484" y2="11.7849">
		<stop offset="0" style="stop-color:#545454" />
		<stop offset="0.5" style="stop-color:#D4D4D4" />
		<stop offset="1" style="stop-color:#545454" />
	</linearGradient>
	<path fill="url(#SVGID_3_)" d="M17.605,22.476l-3.165,0.202l-0.908-10.778l3.148-0.196L17.605,22.476z" />
	<path fill="#666666" d="M17.868,22.073l6.963-0.525L24.7,19.183l-6.963,0.526L17.868,22.073z" />
	<path fill="#666666" d="M39.02,20.234l6.963-0.657l-0.263-2.365l-6.963,0.657L39.02,20.234z" />
	<path fill="#CCCCCC" stroke="#CCCCCC" stroke-width="0.25" d="M29.929,5.742l1.702-0.146l0.113,1.309l-1.702,0.146L29.929,5.742z" />
	<path fill="#CCCCCC" d="M46.114,18.526l1.708-0.131l-0.919-8.671l-1.577,0.131L46.114,18.526z" />
</g>
<g id="Group_Board">
	<path fill="#336699" d="M23.515,6.294l6.17-0.538l0.127,1.594l2.234-0.172L31.89,5.583l6.155-0.54l0.845,9.817l-14.529,1.251   L23.515,6.294z" />
</g>
<g id="Group_Generator">
	<path fill="#999999" d="M63.982,8.935l-0.919,2.891l1.445,13.795l1.577-0.132L63.982,8.935z" />
	<path fill="none" stroke="#999999" stroke-width="0.25" d="M66.61,8.016V6.964h2.759L69.5,8.016" />
	<path fill="#B2B2B2" d="M65.821,26.803L63.851,8.935l1.708-0.263c0,0,0.278-0.827,0.526-0.919c0.837-0.313,3.331-0.415,4.073-0.263   c0.304,0.062,1.051,0.657,1.051,0.657l1.707,17.474L65.821,26.803z" />
	<linearGradient id="SVGID_4_" gradientUnits="userSpaceOnUse" x1="76.4517" y1="25.8955" x2="75.1698" y2="9.1734">
		<stop offset="0" style="stop-color:#6E6E6E" />
		<stop offset="0.5" style="stop-color:#EDEDED" />
		<stop offset="1" style="stop-color:#6E6E6E" />
	</linearGradient>
	<path fill="url(#SVGID_4_)" d="M80.93,25.489l-8.671,0.788L70.683,9.46l8.802-0.657L80.93,25.489z" />
	<linearGradient id="SVGID_5_" gradientUnits="userSpaceOnUse" x1="86.1431" y1="28.8057" x2="84.144" y2="5.2634">
		<stop offset="0" style="stop-color:#6E6E6E" />
		<stop offset="0.5" style="stop-color:#EDEDED" />
		<stop offset="1" style="stop-color:#6E6E6E" />
	</linearGradient>
	<path fill="url(#SVGID_5_)" d="M91.703,28.379l-11.035,0.92L78.566,5.782l11.166-0.92L91.703,28.379z" />
	<linearGradient id="SVGID_6_" gradientUnits="userSpaceOnUse" x1="96.853" y1="24.668" x2="95.3483" y2="6.7724">
		<stop offset="0" style="stop-color:#6E6E6E" />
		<stop offset="0.5" style="stop-color:#EDEDED" />
		<stop offset="1" style="stop-color:#6E6E6E" />
	</linearGradient>
	<path fill="url(#SVGID_6_)" d="M99.585,24.438L94.2,24.832L92.623,7.096l5.387-0.525L99.585,24.438z" />
	<linearGradient id="SVGID_7_" gradientUnits="userSpaceOnUse" x1="88.5894" y1="19.0869" x2="88.2383" y2="14.8129">
		<stop offset="0" style="stop-color:#6E6E6E" />
		<stop offset="0.5" style="stop-color:#EDEDED" />
		<stop offset="1" style="stop-color:#6E6E6E" />
	</linearGradient>
	<path fill="url(#SVGID_7_)" d="M94.593,18.526l-12.086,1.051l-0.264-4.073l12.088-1.051L94.593,18.526z" />
	<path fill="none" stroke="#999999" stroke-width="0.25" d="M66.216,15.636l-0.264-2.497l3.285-0.394l0.131,2.233" />
	<path fill="none" stroke="#999999" stroke-width="0.25" d="M69.631,17.475l0.395,2.497l-3.284,0.525l-0.264-2.365" />
	<linearGradient id="SVGID_8_" gradientUnits="userSpaceOnUse" x1="88.4692" y1="20.7271" x2="87.4372" y2="6.0348">
		<stop offset="0" style="stop-color:#6E6E6E" />
		<stop offset="0.5" style="stop-color:#EDEDED" />
		<stop offset="1" style="stop-color:#6E6E6E" />
	</linearGradient>
	<path fill="url(#SVGID_8_)" d="M90.39,20.497l-3.68,0.263l-1.182-14.32l3.547-0.263L90.39,20.497z" />
</g>
<g id="Group_Connector">
	<path fill="#CCCCCC" d="M46.771,13.008l16.554-1.182l0.131,2.233l-16.554,1.182L46.771,13.008z" />
	<path fill="none" stroke="#FFFFFF" stroke-width="2" d="M47.034,13.796l15.634-1.183" />
	<linearGradient id="SVGID_9_" gradientUnits="userSpaceOnUse" x1="55.2788" y1="15.6216" x2="54.9512" y2="11.9904">
		<stop offset="0" style="stop-color:#B2B2B2" />
		<stop offset="0.5" style="stop-color:#FFFFFF" />
		<stop offset="1" style="stop-color:#B2B2B2" />
	</linearGradient>
	<path fill="url(#SVGID_9_)" d="M61.88,15.241l-13.269,0.92l-0.263-3.679l13.269-1.051L61.88,15.241z" />
	<linearGradient id="SVGID_10_" gradientUnits="userSpaceOnUse" x1="51.6992" y1="18.4712" x2="51.013" y2="9.6492">
		<stop offset="0" style="stop-color:#B2B2B2" />
		<stop offset="0.5" style="stop-color:#E5E5E5" />
		<stop offset="1" style="stop-color:#B2B2B2" />
	</linearGradient>
	<path fill="url(#SVGID_10_)" d="M52.684,18.395l-1.971,0.131l-0.657-8.802l1.839-0.132L52.684,18.395z" />
	<linearGradient id="SVGID_11_" gradientUnits="userSpaceOnUse" x1="58.9521" y1="17.8628" x2="58.2359" y2="9.305">
		<stop offset="0" style="stop-color:#B2B2B2" />
		<stop offset="0.5" style="stop-color:#E5E5E5" />
		<stop offset="1" style="stop-color:#B2B2B2" />
	</linearGradient>
	<path fill="url(#SVGID_11_)" d="M59.909,17.869L57.938,18l-0.657-8.671l1.971-0.131L59.909,17.869z" />
</g>
<g id="Group_Supporter">
	<path fill="#CCCCCC" d="M21.284,27.328v0.264l2.89-0.264v-0.263L21.284,27.328z" />
	<path fill="#B2B2B2" d="M20.89,27.592l3.416-0.395l0.263,3.678l-3.284,0.264L20.89,27.592z" />
	<path fill="#B2B2B2" d="M21.415,26.803v0.525l2.627-0.263v-0.394L21.415,26.803z" />
	<path fill="#CCCCCC" d="M41.91,25.095l2.891-0.263l-1.004-1.436l-1.098,0.122L41.91,25.095z" />
	<path fill="#CCCCCC" d="M21.284,26.803l2.89-0.131l-0.983-1.57l-1.25,0.125L21.284,26.803z" />
	<path fill="#CCCCCC" d="M41.91,25.489l0.131,0.394l2.891-0.262l-0.131-0.395L41.91,25.489z" />
	<path fill="#B2B2B2" d="M42.042,25.095v0.395l2.759-0.132v-0.525L42.042,25.095z" />
	<path fill="#B2B2B2" d="M41.647,25.752l3.416-0.263l0.263,3.679l-3.416,0.263L41.647,25.752z" />
</g>
<g id="Group_Base">
	<path fill="#B2B2B2" d="M49.399,36.394h2.891v2.496h-2.891V36.394z" />
	<ellipse fill="#B2B2B2" stroke="#B2B2B2" stroke-width="0.25" cx="115.22" cy="27.066" rx="0.92" ry="1.445" />
	<path fill="#999999" d="M70.814,38.232h4.336v2.496h-4.336V38.232z" />
	<path fill="#999999" d="M108.652,38.232h4.336v2.496h-4.336V38.232z" />
	<path fill="#B2B2B2" d="M69.238,36v2.89l1.576,0.92h42.333l1.153-1.183v-2.233L69.238,36z" />
	<path fill="none" stroke="#4C4C4C" stroke-width="0.25" d="M112.461,36.787v2.234" />
	<path fill="none" stroke="#4C4C4C" stroke-width="0.25" d="M111.279,36.787v2.234" />
	<path fill="none" stroke="#4C4C4C" stroke-width="0.25" d="M109.965,36.787v2.234" />
	<path fill="none" stroke="#4C4C4C" stroke-width="0.25" d="M108.652,36.787v2.234" />
	<path fill="none" stroke="#4C4C4C" stroke-width="0.25" d="M107.468,36.787v2.234" />
	<path fill="none" stroke="#4F4F4F" stroke-width="0.25" d="M106.156,36.787v2.234" />
	<path fill="none" stroke="#5E5E5E" stroke-width="0.25" d="M104.841,36.787v2.234" />
	<path fill="none" stroke="#6E6E6E" stroke-width="0.25" d="M103.66,36.787v2.234" />
	<path fill="none" stroke="#7F7F7F" stroke-width="0.25" d="M102.345,36.787v2.234" />
	<path fill="none" stroke="#8F8F8F" stroke-width="0.25" d="M101.031,36.787v2.234" />
	<path fill="none" stroke="#9E9E9E" stroke-width="0.25" d="M99.849,36.787v2.234" />
	<path fill="none" stroke="#ADADAD" stroke-width="0.25" d="M98.535,36.787v2.234" />
	<path fill="none" stroke="#BFBFBF" stroke-width="0.25" d="M97.221,36.787v2.234" />
	<path fill="none" stroke="#CFCFCF" stroke-width="0.25" d="M96.039,36.787v2.234" />
	<path fill="none" stroke="#DEDEDE" stroke-width="0.25" d="M94.725,36.787v2.234" />
	<path fill="none" stroke="#EDEDED" stroke-width="0.25" d="M93.412,36.787v2.234" />
	<path fill="none" stroke="#FFFFFF" stroke-width="0.25" d="M92.229,36.787v2.234" />
	<path fill="none" stroke="#4C4C4C" stroke-width="0.25" d="M70.551,36.787v2.234" />
	<path fill="none" stroke="#4C4C4C" stroke-width="0.25" d="M71.865,36.787v2.234" />
	<path fill="none" stroke="#4C4C4C" stroke-width="0.25" d="M73.179,36.787v2.234" />
	<path fill="none" stroke="#4C4C4C" stroke-width="0.25" d="M74.361,36.787v2.234" />
	<path fill="none" stroke="#4C4C4C" stroke-width="0.25" d="M75.675,36.787v2.234" />
	<path fill="none" stroke="#4F4F4F" stroke-width="0.25" d="M76.989,36.787v2.234" />
	<path fill="none" stroke="#5E5E5E" stroke-width="0.25" d="M78.171,36.787v2.234" />
	<path fill="none" stroke="#6E6E6E" stroke-width="0.25" d="M79.485,36.787v2.234" />
	<path fill="none" stroke="#7F7F7F" stroke-width="0.25" d="M80.798,36.787v2.234" />
	<path fill="none" stroke="#8F8F8F" stroke-width="0.25" d="M81.982,36.787v2.234" />
	<path fill="none" stroke="#9E9E9E" stroke-width="0.25" d="M83.294,36.787v2.234" />
	<path fill="none" stroke="#ADADAD" stroke-width="0.25" d="M84.609,36.787v2.234" />
	<path fill="none" stroke="#BFBFBF" stroke-width="0.25" d="M85.791,36.787v2.234" />
	<path fill="none" stroke="#CFCFCF" stroke-width="0.25" d="M87.105,36.787v2.234" />
	<path fill="none" stroke="#DEDEDE" stroke-width="0.25" d="M88.419,36.787v2.234" />
	<path fill="none" stroke="#EDEDED" stroke-width="0.25" d="M89.601,36.787v2.234" />
	<path fill="none" stroke="#FFFFFF" stroke-width="0.25" d="M90.916,36.787v2.234" />
	<path fill="#666666" d="M69.238,36.262h0.656v2.496h-0.656V36.262z" />
	<path fill="#7F7F7F" d="M68.318,28.511h1.971v-0.263h2.233v-0.395h2.233v-0.131c0,0,0.792-0.046,1.051,0   c0.072,0.013,0.211,0.079,0.264,0.131c0.209,0.206,0.525,1.051,0.525,1.051h0.131v0.658l-0.263,0.131l-1.577,2.496h-2.364v-1.314   h-0.788v1.314h-2.496l-1.709-1.971v-0.92L68.318,28.511L68.318,28.511z" />
	<path fill="#666666" d="M69.894,36.131l44.406,0.131v0.395H69.894V36.131z" />
	<path fill="none" stroke="#7F7F7F" stroke-width="0.25" d="M97.353,36.656h9.722" />
	<path fill="#B2B2B2" stroke="#B2B2B2" stroke-width="0.25" d="M119.687,1.972c0,0-0.078-0.638-0.591-0.642   c-0.525-0.003-0.591,0.773-0.591,0.773l-0.789,0.657V1.972c0,0,0.299-1.341,1.38-1.341c0.985-0.002,1.38,1.078,1.38,1.078v0.657   L119.687,1.972z" />
	<path fill="#999999" d="M117.322,14.19l-0.656-9.985c0,0,0.467-2.047,2.431-2.281c2.365-0.281,3.009,1.469,3.219,1.887   c0.183,0.363,0.394,1.576,0.394,1.576s0.618,1.252,0.658,1.708c0.159,1.792,0.131,6.832,0.131,6.832L117.322,14.19z" />
	<path fill="none" stroke="#7F7F7F" stroke-width="0.25" d="M117.848,3.548l0.525,4.861" />
	<path fill="none" stroke="#7F7F7F" stroke-width="0.25" d="M119.292,3.417l0.395,4.73" />
	<path fill="none" stroke="#7F7F7F" stroke-width="0.25" d="M120.476,3.286l0.525,4.73" />
	<path fill="#CCCCCC" d="M58.99,30.35l0.131-5.78l9.197-0.132l0.92,5.519l-9.723,1.445L58.99,30.35z" />
	<path fill="#CCCCCC" d="M60.566,27.854L0,32.846l0.263,0.92c0,0,2.878,1.099,3.285,1.183c8.007,1.661,32.582,2.891,32.582,2.891   l25.356-1.708L60.566,27.854z" />
	<path fill="none" stroke="#E5E5E5" stroke-width="0.25" d="M36.655,37.182l24.305-1.839" />
	<path fill="none" stroke="#7F7F7F" stroke-width="0.25" d="M3.153,33.109l57.019-4.73" />
	<path fill="#999999" d="M91.149,29.988c-0.535,0.675-1.928,1.707-2.729,1.938c-0.853,0.246-2.714,0.435-3.548,0.132   c-0.661-0.239-2.301-1.203-2.364-2.496c-0.052-1.052,0.041-3.089,0.534-4.02c0.342-0.644,1.424-1.601,2.093-1.893   c1.091-0.476,3.555-0.71,4.73-0.526c0.319,0.05,0.663,0.237,1.182,0.526c0.018,0.01,0.795,0.443,1.938,1.121   c0.913,0.542,2.243,1.358,2.259,1.37l-0.386-5.514c-0.247,0.01-4.207,0.159-4.46,0.169c-1.717,0.067-3.513,0.141-4.551,0.191   c-0.732,0.036-2.986,0.162-3.603,0.546c-0.589,0.366-1.445,2.116-1.445,2.116l-20.363,3.941l1.051,8.539l29.408,0.076h3.439v-6.523   c0,0-0.098-0.644,0.074-1.428c0.242-1.103,0.835-2.114,0.835-2.114l-2.356-1.428l-2.109-1.227c0,0,0.215,0.139,0.372,0.242   c0.944,0.62,1.081,1.989,1.081,2.208C92.23,28.622,91.149,29.988,91.149,29.988z" />
	<path fill="#999999" d="M124.548,15.636v-2.521l-9.705,0.344l0.114,2.965c0,0-2.476,0.111-7.489,0.688   c-1.171,0.135-4.353,0.595-5.05,0.948c-0.45,0.228-0.729,0.992-0.729,0.992s-4.533-0.264-5.519,0.131   c-0.257,0.103-1.106,1.045-1.39,1.542l0.359,5.469c0.721-0.801,2.359-2.042,3.264-2.412c2.266-0.927,9.591-1.971,9.591-1.971   s2.847-0.575,3.81-0.657c0.426-0.036,1.289-0.081,1.709,0c0.348,0.067,1.06,0.278,1.313,0.526c0.576,0.566,1.396,2.083,1.445,2.89   c0.059,0.978-0.92,3.81-0.92,3.81s-0.263,1.512-1.89,2.737c-1.439,1.084-3.628,0.942-3.628,0.942s-9.785,0.9-12.875,0   c-0.478-0.14-1.171-0.615-1.716-1.136c-1.024-0.979-1.009-1.518-1.009-1.518v6.812l18.621,0.045c0,0,2.285-0.268,3.972-1.45   c1.441-1.011,2.072-3.542,2.072-3.542s2.553-7.886,3.416-10.51c0.294-0.894,1.183-2.102,1.183-2.102l1.84-0.394v-2.679   L124.548,15.636z" />
</g>
</svg>