<!DOCTYPE svg PUBLIC "-//W3C//DTD SVG 1.1//EN" "http://www.w3.org/Graphics/SVG/1.1/DTD/svg11.dtd"[]><svg version="1.1" xmlns="http://www.w3.org/2000/svg" xmlns:xlink="http://www.w3.org/1999/xlink" width="131px" height="113px" viewBox="0 0 131.25 112.594" enable-background="new 0 0 131.25 112.594" xml:space="preserve">
<g id="Group_Valve">
	<path fill="#0049B1" stroke="#7F7F7F" stroke-width="0.25" d="M24.568,4.467v11.036h2.365V4.467H24.568z" />
	<path fill="#0049B1" stroke="#666666" stroke-width="0.25" d="M22.334,3.285c-0.302,0.302,0,1.708,0,1.708h6.832   c0,0,0.302-1.406,0-1.708C27.959,2.077,23.542,2.077,22.334,3.285z" />
</g>
<g id="Group_InnerFrame">
	<path fill="#002F97" stroke="#4C4C4C" stroke-width="0.25" d="M73.179,91.967h9.196v-71.34h-9.196V91.967z" />
	<path fill="none" stroke="#0072DB" stroke-width="2" d="M30.48,12.613V7.357H19.05l-0.526,3.941" />
	<path fill="none" stroke="#0072DB" stroke-width="2" d="M20.89,7.357l-0.526,3.941" />
</g>
<g id="Group_WindingFrame">
	<path fill="#0091F0" d="M14.058,13.007l2.102-1.971h28.772h29.692l1.182,1.051v88.025l-1.445,1.576H15.503l-1.445-1.444V13.007z" />
</g>
<g id="Group_Shadow">
	<path fill="#007BD9" d="M12.612,91.31v5.255h1.577V91.31H12.612z" />
	<path fill="#0091F0" stroke="#7F7F7F" stroke-width="2" d="M11.562,52.29h-1.314v1.577h1.314V52.29z" />
	<path fill="#0091F0" stroke="#7F7F7F" stroke-width="0.25" d="M11.562,45.983h-1.314v1.577h1.314V45.983z" />
	<path fill="#0091F0" stroke="#7F7F7F" stroke-width="0.25" d="M11.562,43.093h-1.314v1.576h1.314V43.093z" />
	<path fill="#0091F0" stroke="#7F7F7F" stroke-width="2" d="M11.562,60.436h-1.314v-1.576h1.314V60.436z" />
	<path fill="#0091F0" stroke="#7F7F7F" stroke-width="0.25" d="M11.562,66.742h-1.314v-1.577h1.314V66.742z" />
	<path fill="#0091F0" stroke="#7F7F7F" stroke-width="0.25" d="M11.562,69.632h-1.314v-1.577h1.314V69.632z" />
	<path fill="#0091F0" stroke="#7F7F7F" stroke-width="0.25" d="M11.299,71.209h2.759V41.517h-2.759V71.209z" />
	<path fill="none" stroke="#2496FF" stroke-width="0.25" d="M14.058,71.311V41.517h8.014" />
	<path fill="none" stroke="#0072DB" stroke-width="0.25" d="M14.058,70.025h8.014v-9.459" />
	<path fill="#0069D2" d="M73.835,71.471V61.355h1.576v10.115H73.835z" />
	<path fill="#2496FF" d="M60.698,61.355h14.714v1.445H60.698V61.355z" />
	<path fill="#0069D2" d="M60.698,69.895h14.714v1.576H60.698V69.895z" />
	<path fill="#2496FF" d="M60.698,71.471V61.355h1.577v10.115H60.698z" />
	<path fill="#0069D2" d="M73.835,51.107v-9.985h1.576v9.985H73.835z" />
	<path fill="#2496FF" d="M60.698,41.123h14.714v1.445H60.698V41.123z" />
	<path fill="#0069D2" d="M60.698,49.531h14.714v1.577H60.698V49.531z" />
	<path fill="#2496FF" d="M60.698,51.107v-9.985h1.577v9.985H60.698z" />
	<path fill="none" stroke="#0072DB" stroke-width="0.25" d="M22.072,52.158v-9.459" />
	<path fill="#0069D2" d="M22.334,73.836h9.985v1.445h-9.985V73.836z" />
	<path fill="#0069D2" d="M32.319,60.566v14.715h-1.445V60.566H32.319z" />
	<path fill="#2496FF" d="M23.911,60.566v14.715h-1.577V60.566H23.911z" />
	<path fill="#2496FF" d="M22.334,60.566h9.985v1.576h-9.985V60.566z" />
	<path fill="#0069D2" d="M73.835,61.486V51.239h1.576v10.248H73.835z" />
	<path fill="#2496FF" d="M14.189,51.239h61.223v1.577H14.189V51.239z" />
	<path fill="#0069D2" d="M14.32,59.91h61.091v1.576H14.32V59.91z" />
	<path fill="#2496FF" d="M14.189,61.486V51.239h1.445v10.248H14.189z" />
	<path fill="#2496FF" d="M14.058,12.613l1.458-1.577h6.557v31.531h-8.014V12.613z" />
	<path fill="#2496FF" d="M75.806,12.087l-1.182-1.051h-6.964v19.313h8.146V12.087z" />
	<path fill="#0069D2" d="M15.503,100.112h58.858v1.576H15.503V100.112z" />
	<path fill="#007BD9" d="M29.561,13.664h27.064V26.67H29.561V13.664z" />
	<path fill="#007BD9" d="M32.714,61.355h4.073v2.758h-4.073V61.355z" />
	<path fill="#007BD9" d="M53.34,61.355h4.073v2.758H53.34V61.355z" />
	<path fill="#007BD9" d="M63.457,38.363h4.072v2.628h-4.072V38.363z" />
	<path fill="#007BD9" d="M32.714,48.611h4.073v2.497h-4.073V48.611z" />
	<path fill="#007BD9" d="M53.34,48.611h4.073v2.497H53.34V48.611z" />
	<rect x="15.634" y="52.815" fill="#0091F0" width="58.201" height="7.095" />
	<rect x="23.911" y="62.143" fill="#0091F0" width="6.963" height="11.693" />
	<rect x="62.274" y="62.801" fill="#0091F0" width="11.561" height="7.094" />
	<rect x="62.274" y="42.567" fill="#0091F0" width="11.561" height="6.963" />
	<rect x="14.058" y="42.567" fill="#0091F0" width="8.014" height="8.671" />
	<rect x="14.058" y="61.354" fill="#0091F0" width="8.014" height="8.671" />
</g>
<g id="Group_Body">
	<path fill="#0049B1" stroke="#7F7F7F" stroke-width="0.25" d="M78.171,12.744h-1.445v1.577h1.445V12.744z" />
	<path fill="#0049B1" stroke="#666666" stroke-width="0.25" d="M80.405,11.956h-2.233v3.153h2.233V11.956z" />
	<path fill="#0049B1" stroke="#7F7F7F" stroke-width="0.25" d="M78.171,55.443h-1.445v1.577h1.445V55.443z" />
	<path fill="#0049B1" stroke="#666666" stroke-width="0.25" d="M80.405,54.654h-2.233v3.285h2.233V54.654z" />
	<path fill="#0049B1" stroke="#7F7F7F" stroke-width="0.25" d="M78.171,23.912h-1.445v1.577h1.445V23.912z" />
	<path fill="#0049B1" stroke="#666666" stroke-width="0.25" d="M80.405,23.255h-2.233v3.153h2.233V23.255z" />
	<path fill="#0049B1" stroke="#7F7F7F" stroke-width="0.25" d="M78.171,6.438h-1.445v1.577h1.445V6.438z" />
	<path fill="#0049B1" stroke="#666666" stroke-width="0.25" d="M80.405,5.65h-2.233v3.153h2.233V5.65z" />
	<path fill="#0049B1" stroke="#7F7F7F" stroke-width="0.25" d="M78.171,39.152h-1.445v1.576h1.445V39.152z" />
	<path fill="#0049B1" stroke="#666666" stroke-width="0.25" d="M80.405,38.232h-2.233v3.285h2.233V38.232z" />
	<path fill="#0049B1" stroke="#7F7F7F" stroke-width="0.25" d="M78.171,1.577h-1.445v1.576h1.445V1.577z" />
	<path fill="#0049B1" stroke="#666666" stroke-width="0.25" d="M80.405,0.657h-2.233v3.285h2.233V0.657z" />
	<path fill="#0049B1" stroke="#7F7F7F" stroke-width="0.25" d="M78.171,99.718h-1.445v-1.576h1.445V99.718z" />
	<path fill="#0049B1" stroke="#666666" stroke-width="0.25" d="M80.405,100.638h-2.233v-3.284h2.233V100.638z" />
	<path fill="#0049B1" stroke="#7F7F7F" stroke-width="0.25" d="M78.171,88.551h-1.445v-1.576h1.445V88.551z" />
	<path fill="#0049B1" stroke="#666666" stroke-width="0.25" d="M80.405,89.339h-2.233v-3.153h2.233V89.339z" />
	<path fill="#0049B1" stroke="#7F7F7F" stroke-width="0.25" d="M78.171,106.156h-1.445v-1.577h1.445V106.156z" />
	<path fill="#0049B1" stroke="#666666" stroke-width="0.25" d="M80.405,106.943h-2.233v-3.284h2.233V106.943z" />
	<path fill="#0049B1" stroke="#7F7F7F" stroke-width="0.25" d="M78.171,73.441h-1.445v-1.576h1.445V73.441z" />
	<path fill="#0049B1" stroke="#666666" stroke-width="0.25" d="M80.405,74.23h-2.233v-3.153h2.233V74.23z" />
	<path fill="#0049B1" stroke="#7F7F7F" stroke-width="0.25" d="M78.171,111.017h-1.445v-1.577h1.445V111.017z" />
	<path fill="#0049B1" stroke="#666666" stroke-width="0.25" d="M80.405,111.805h-2.233v-3.152h2.233V111.805z" />
	<linearGradient id="SVGID_1_" gradientUnits="userSpaceOnUse" x1="96.9341" y1="112.3926" x2="96.85" y2="-0.7342">
		<stop offset="0" style="stop-color:#000066" />
		<stop offset="0.5" style="stop-color:#0072DB" />
		<stop offset="0.99" style="stop-color:#000066" />
	</linearGradient>
	<path fill="url(#SVGID_1_)" d="M81.062,0h31.531l0.787,0.788v111.016l-0.919,0.789H81.193l-0.788-0.789V0.657L81.062,0z" />
</g>
<g id="Group_Pipe">
	<linearGradient id="SVGID_2_" gradientUnits="userSpaceOnUse" x1="107.1411" y1="63.8555" x2="107.1411" y2="48.4639">
		<stop offset="0" style="stop-color:#262626" />
		<stop offset="0.5" style="stop-color:#E5E5E5" />
		<stop offset="1" style="stop-color:#262626" />
	</linearGradient>
	<path fill="url(#SVGID_2_)" d="M131.25,63.72H83.033V48.742h48.217V63.72z" />
	<linearGradient id="SVGID_3_" gradientUnits="userSpaceOnUse" x1="7.2915" y1="61.8145" x2="7.2915" y2="50.7109">
		<stop offset="0" style="stop-color:#262626" />
		<stop offset="0.5" style="stop-color:#E5E5E5" />
		<stop offset="1" style="stop-color:#262626" />
	</linearGradient>
	<path fill="url(#SVGID_3_)" d="M14.583,62.143H0v-11.43h14.583V62.143z" />
</g>
<g id="Group_Frame">
	<linearGradient id="SVGID_4_" gradientUnits="userSpaceOnUse" x1="107.8071" y1="73.2334" x2="108.1825" y2="39.3792">
		<stop offset="0" style="stop-color:#0042A9" />
		<stop offset="0.5" style="stop-color:#0072DB" />
		<stop offset="1" style="stop-color:#0042A9" />
	</linearGradient>
	<path fill="url(#SVGID_4_)" d="M102.608,39.152h10.772v34.29h-10.772V39.152z" />
</g>
</svg>