<!DOCTYPE svg PUBLIC "-//W3C//DTD SVG 1.1//EN" "http://www.w3.org/Graphics/SVG/1.1/DTD/svg11.dtd"[]><svg version="1.1" xmlns="http://www.w3.org/2000/svg" xmlns:xlink="http://www.w3.org/1999/xlink" width="113px" height="114px" viewBox="0 0 112.975 113.998" enable-background="new 0 0 112.975 113.998" xml:space="preserve">
<g id="Group_Blades">
	<path fill="#C1D4D2" stroke="#999999" stroke-width="0.25" d="M48.614,62.99L29.671,0.228L28.987,0l-0.57,0.57l11.411,49.867   l0.799,3.994l0.799,2.168l2.738,4.564l1.826,2.511L48.614,62.99z" />
	<path fill="#C1D4D2" stroke="#999999" stroke-width="0.25" d="M48.5,67.44l63.788,14.834l0.685-0.342l-0.343-0.799L63.677,66.184   l-3.766-1.369l-2.282-0.456l-5.25,0.229l-3.194,0.228L48.5,67.44z" />
	<path fill="#C1D4D2" stroke="#999999" stroke-width="0.25" d="M44.734,65.272L0.002,113.085v0.799l0.799,0.114L38.23,79.08   l3.081-2.511l1.598-1.826l2.396-4.679l1.369-2.853L44.734,65.272z" />
</g>
<g id="Group_Center">
	<circle fill="#C1D4D2" stroke="#999999" stroke-width="0.25" cx="47.13" cy="65.157" r="3.309" />
	<circle fill="#C1D4D2" stroke="#999999" stroke-width="0.25" cx="47.13" cy="65.157" r="1.94" />
</g>
</svg>