<!DOCTYPE svg PUBLIC "-//W3C//DTD SVG 20000303 Stylable//EN" "http://www.w3.org/TR/2000/03/WD-SVG-20000303/DTD/svg-20000303-stylable.dtd"[]><svg xmlns="http://www.w3.org/2000/svg" width="370px" height="999px" viewBox="0 0 333 999"><path style="fill:#999;stroke:#4c4c4c;stroke-width:2" d="M249,218 l0,-10 63,-32 0,11 21,0 -63,31 -21,0z" /><path style="fill:#009;stroke:#4c4c4c;stroke-width:2" d="M0,228 l20,-10 0,-11 230,-10 0,21 20,0 -21,10 -249,0z" /><path style="fill:#00f;stroke:#4c4c4c;stroke-width:2" d="M0,228 l249,0 0,771 -249,0 0,-771z" /><path style="fill:#00f;stroke:#4c4c4c;stroke-width:2" d="M0,41 l249,0 0,166 -249,0 0,-166z" /><path style="fill:#7f7fff;stroke:#4c4c4c;stroke-width:2" d="M0,41 l20,-10 250,0 -21,10 -249,0z" /><path style="fill:#0000bf;stroke:#4c4c4c;stroke-width:2" d="M249,999 l21,-11 0,-770 -21,10 0,771z" /><path style="fill:#0000bf;stroke:#4c4c4c;stroke-width:2" d="M249,207 l21,-10 0,-166 -21,10 0,166z" /><path style="fill:#009" d="M41,333 l167,0 0,83 -167,0 0,-83z" /><path style="fill:#bfbfff" d="M72,447 l104,0 0,62 -104,0 0,-62z" /><path style="fill:#f2f2f2;stroke:#4c4c4c;stroke-width:2" d="M20,31 l63,-31 250,0 -63,31 -250,0z" /><path style="fill:#ccc;stroke:#4c4c4c;stroke-width:2" d="M270,842 l63,-31 0,-624 -63,31 0,624z" /><path style="fill:#ccc;stroke:#4c4c4c;stroke-width:2" d="M270,197 l63,-31 0,-166 -63,31 0,166z" /><path style="fill:#000;stroke:#4c4c4c;stroke-width:2" d="M270,842 l63,-31 0,146 -63,31 0,-146z" /><path style="fill:#4c4c4c" d="M296,603 l5,0 0,177 -5,0 0,-177z" /></svg>