<!DOCTYPE svg PUBLIC "-//W3C//DTD SVG 20000303 Stylable//EN" "http://www.w3.org/TR/2000/03/WD-SVG-20000303/DTD/svg-20000303-stylable.dtd"[]><svg xmlns="http://www.w3.org/2000/svg" width="737px" height="999px" viewBox="0 0 724 999"><path style="fill:#033;stroke:#4c4c4c;stroke-width:2" d="M633,994 l79,-46 0,-13 -79,38 -624,0 0,21 624,0z" /><path style="fill:#4c7f7f;stroke:#4c4c4c;stroke-width:2" d="M4,82 l636,0 0,891 -636,0 0,-891z" /><path style="fill:none;stroke:#4c4c4c;stroke-width:2" d="M45,499 l556,0 0,476 -556,0 0,-476" /><path style="fill:none;stroke:#4c4c4c;stroke-width:2" d="M45,82 l277,0 0,415 -277,0 0,-415" /><path style="fill:none;stroke:#4c4c4c;stroke-width:2" d="M322,82 l277,0 0,415 -277,0 0,-415" /><path style="fill:#699;stroke:#4c4c4c;stroke-width:2" d="M4,43 l636,0 0,39 -636,0 0,-39z" /><path style="fill:#999;stroke:#4c4c4c;stroke-width:2" d="M322,658 l39,0 0,38 -39,0 0,-38z" /><circle style="fill:#000;stroke:#4c4c4c;stroke-width:2" cx="343" cy="677" r="14" /><path style="fill:#033;stroke:#4c4c4c;stroke-width:2" d="M63,102 l30,0 0,25 -30,0 0,-25z" /><path style="fill:#366;stroke:#4c4c4c;stroke-width:2" d="M640,975 l79,-38 0,-933 -79,39 0,932z" /><path style="fill:#9cc;stroke:#4c4c4c;stroke-width:2" d="M4,43 l80,-39 635,0 -79,39 -636,0z" /></svg>