<!DOCTYPE svg PUBLIC "-//W3C//DTD SVG 20000303 Stylable//EN" "http://www.w3.org/TR/2000/03/WD-SVG-20000303/DTD/svg-20000303-stylable.dtd"[]><svg xmlns="http://www.w3.org/2000/svg" width="999px" height="979px" viewBox="0 0 998 978"><path style="fill:#4c4c4c;stroke:#4c4c4c;stroke-width:2" d="M20,915 l958,0 0,63 -958,0 0,-63z" /><path style="fill:#ffffd9;stroke:#4c4c4c;stroke-width:2" d="M0,0 l998,0 0,915 -998,0 0,-915z" /><path style="fill:#fffff2;stroke:#4c4c4c;stroke-width:2" d="M0,10 l333,0 0,894 -333,0 0,-894z" /><path style="fill:#fffff2;stroke:#4c4c4c;stroke-width:2" d="M333,10 l333,0 0,894 -333,0 0,-894z" /><path style="fill:#fffff2;stroke:#4c4c4c;stroke-width:2" d="M666,10 l332,0 0,894 -332,0 0,-894z" /><path style="fill:#ffc;stroke:#4c4c4c;stroke-width:2" d="M0,83 l10,0 0,62 -10,0 0,-62z" /><path style="fill:#ffc;stroke:#4c4c4c;stroke-width:2" d="M0,416 l10,0 0,62 -10,0 0,-62z" /><path style="fill:#ffc;stroke:#4c4c4c;stroke-width:2" d="M655,83 l11,0 0,62 -11,0 0,-62z" /><path style="fill:#ffc;stroke:#4c4c4c;stroke-width:2" d="M655,416 l11,0 0,62 -11,0 0,-62z" /><path style="fill:#ffc;stroke:#4c4c4c;stroke-width:2" d="M666,83 l11,0 0,62 -11,0 0,-62z" /><path style="fill:#ffc;stroke:#4c4c4c;stroke-width:2" d="M666,416 l11,0 0,62 -11,0 0,-62z" /><path style="fill:#999" d="M281,364 l31,0 0,114 -31,0 0,-114z" /><path style="fill:#999" d="M353,364 l32,0 0,114 -32,0 0,-114z" /><path style="fill:none;stroke:#4c4c4c;stroke-width:2" d="M281,478 l0,-114 31,0" /><path style="fill:none;stroke:#4c4c4c;stroke-width:2" d="M354,478 l0,-114 31,0" /><path style="fill:#999" d="M947,364 l31,0 0,114 -31,0 0,-114z" /><path style="fill:none;stroke:#4c4c4c;stroke-width:2" d="M947,478 l0,-114 31,0" /><path style="fill:#ffc;stroke:#4c4c4c;stroke-width:2" d="M0,749 l10,0 0,62 -10,0 0,-62z" /><path style="fill:#ffc;stroke:#4c4c4c;stroke-width:2" d="M655,749 l11,0 0,62 -11,0 0,-62z" /><path style="fill:#ffc;stroke:#4c4c4c;stroke-width:2" d="M666,749 l11,0 0,62 -11,0 0,-62z" /></svg>