<!DOCTYPE svg PUBLIC "-//W3C//DTD SVG 20000303 Stylable//EN" "http://www.w3.org/TR/2000/03/WD-SVG-20000303/DTD/svg-20000303-stylable.dtd"[]><svg xmlns="http://www.w3.org/2000/svg" width="898px" height="998px" viewBox="0 0 892 999"><path style="fill:#ccc" d="M0,26 l841,0 0,946 -841,0 0,-946z" /><path style="fill:#c7c7c7" d="M0,605 l419,-264 0,631 -419,0 0,-367z" /><path style="fill:#c2c2c2" d="M0,631 l419,-264 0,605 -419,0 0,-341z" /><path style="fill:#bdbdbd" d="M0,671 l419,-264 0,565 -419,0 0,-301z" /><path style="fill:#c7c7c7" d="M419,605 l422,-264 0,631 -422,0 0,-367z" /><path style="fill:#c2c2c2" d="M419,631 l422,-264 0,605 -422,0 0,-341z" /><path style="fill:#bdbdbd" d="M419,671 l422,-264 0,565 -422,0 0,-301z" /><path style="fill:none;stroke:#7f7f7f;stroke-width:2" d="M419,26 l0,946" /><path style="fill:none;stroke:#e5e5e5;stroke-width:2" d="M427,26 l0,946" /><path style="fill:#333" d="M77,131 l264,0 0,210 -264,0 0,-210z" /><path style="fill:#9c9" d="M103,157 l212,0 0,158 -212,0 0,-158z" /><path style="fill:#696" d="M103,157 l212,0 -186,26 -26,132 0,-158z" /><path style="fill:none;stroke:#fff;stroke-width:2" d="M315,157 l0,156 -212,0" /><path style="fill:none;stroke:#363;stroke-width:2" d="M315,157 l-212,0 0,156" /><path style="fill:#666;stroke:#4c4c4c;stroke-width:2" d="M183,473 l52,0 0,52 -52,0 0,-52z" /><path style="fill:#e5e5e5" d="M683,103 l132,0 0,80 -132,0 0,-80z" /><path style="fill:#b2b2b2" d="M0,999 l841,0 0,-27 -841,0 0,27z" /><path style="fill:none;stroke:#4c4c4c;stroke-width:2" d="M0,26 l841,0 0,973 -841,0 0,-973" /><path style="fill:#030" d="M507,275 l30,0 0,30 -30,0 0,-30z" /><path style="fill:#0f0" d="M579,275 l30,0 0,30 -30,0 0,-30z" /><path style="fill:#030" d="M651,275 l30,0 0,30 -30,0 0,-30z" /><path style="fill:#030" d="M723,275 l30,0 0,30 -30,0 0,-30z" /><path style="fill:#f00" d="M507,337 l30,0 0,30 -30,0 0,-30z" /><path style="fill:#7f0000" d="M579,337 l30,0 0,30 -30,0 0,-30z" /><path style="fill:#f00" d="M651,337 l30,0 0,30 -30,0 0,-30z" /><path style="fill:#f00" d="M723,337 l30,0 0,30 -30,0 0,-30z" /><path style="fill:#030" d="M753,499 l-30,0 0,-32 30,0 0,32z" /><path style="fill:#0f0" d="M681,499 l-30,0 0,-32 30,0 0,32z" /><path style="fill:#030" d="M609,499 l-30,0 0,-32 30,0 0,32z" /><path style="fill:#030" d="M539,499 l-32,0 0,-32 32,0 0,32z" /><path style="fill:#f00" d="M753,437 l-30,0 0,-30 30,0 0,30z" /><path style="fill:#7f0000" d="M681,437 l-30,0 0,-30 30,0 0,30z" /><path style="fill:#f00" d="M609,437 l-30,0 0,-30 30,0 0,30z" /><path style="fill:#f00" d="M539,437 l-32,0 0,-30 32,0 0,30z" /><path style="fill:none;stroke:#fff;stroke-width:2" d="M485,525 l0,-276 290,0" /><path style="fill:none;stroke:#999;stroke-width:2" d="M485,525 l290,0 0,-276" /><path style="fill:#999;stroke:#4c4c4c;stroke-width:2" d="M841,999 l51,-27 0,-972 -51,26 0,973z" /><path style="fill:none;stroke:#4c4c4c;stroke-width:2" d="M0,972 l841,0 51,-25" /><path style="fill:#e5e5e5;stroke:#4c4c4c;stroke-width:2" d="M0,26 l51,-26 841,0 -51,26 -841,0z" /></svg>