<!DOCTYPE svg PUBLIC "-//W3C//DTD SVG 20000303 Stylable//EN" "http://www.w3.org/TR/2000/03/WD-SVG-20000303/DTD/svg-20000303-stylable.dtd"[]><svg xmlns="http://www.w3.org/2000/svg" width="999px" height="424px" viewBox="0 0 999 394"><path style="fill:#65657f" d="M5,47 l936,0 0,337 -936,0 0,-337z" /><path style="fill:#bfbfff;fill-rule:evenodd" d="M931,55 l-208,0 0,301 208,0 0,-301z M487,55 l228,0 0,301 -228,0 0,-301z M479,55 l-232,0 0,301 232,0 0,-301z M15,55 l224,0 0,301 -224,0 0,-301z M531,87 l12,0 10,3 4,10 0,167 -4,10 -10,4 -12,0 -10,-4 -4,-10 0,-167 4,-10 10,-3z M420,87 l14,0 7,3 6,10 0,167 -6,10 -7,4 -14,0 -8,-4 -4,-10 0,-167 4,-10 8,-3z M767,211 l6,2 2,4 -2,6 -6,0 -2,0 -2,-6 2,-4 2,-2z M767,227 l6,4 2,4 -2,4 -6,0 -2,0 -2,-4 2,-4 2,-4z M785,211 l4,2 2,4 -2,6 -4,0 -4,0 -2,-6 2,-4 4,-2z M785,227 l4,4 2,4 -2,4 -4,0 -4,0 -2,-4 2,-4 4,-4z M800,211 l4,2 2,4 -2,6 -4,0 -4,0 -2,-6 2,-4 4,-2z M800,227 l4,4 2,4 -2,4 -4,0 -4,0 -2,-4 2,-4 4,-4z M818,211 l4,2 2,4 -2,6 -4,0 -6,0 -2,-6 2,-4 6,-2z M818,227 l4,4 2,4 -2,4 -4,0 -6,0 -2,-4 2,-4 6,-4z M834,211 l4,2 2,4 -2,6 -4,0 -4,0 -4,-6 4,-4 4,-2z M834,227 l4,4 2,4 -2,4 -4,0 -4,0 -4,-4 4,-4 4,-4z M850,211 l4,2 2,4 -2,6 -4,0 -4,0 -2,-6 2,-4 4,-2z M850,227 l4,4 2,4 -2,4 -4,0 -4,0 -2,-4 2,-4 4,-4z M866,211 l4,2 2,4 -2,6 -4,0 -4,0 -2,-6 2,-4 4,-2z M866,227 l4,4 2,4 -2,4 -4,0 -4,0 -2,-4 2,-4 4,-4z M882,211 l6,2 2,4 -2,6 -6,0 -4,0 -2,-6 2,-4 4,-2z M882,227 l6,4 2,4 -2,4 -6,0 -4,0 -2,-4 2,-4 4,-4z M898,211 l6,2 2,4 -2,6 -6,0 -2,0 -4,-6 4,-4 2,-2z M898,227 l6,4 2,4 -2,4 -6,0 -2,0 -4,-4 4,-4 2,-4z M731,174 l6,0 0,35 -6,0 0,-35z M499,174 l8,0 0,35 -8,0 0,-35z M459,174 l6,0 0,35 -6,0 0,-35z M227,174 l4,0 0,35 -4,0 0,-35z M15,75 l6,0 0,10 -6,0 0,-10z M15,330 l6,0 0,10 -6,0 0,-10z M15,200 l6,0 0,9 -6,0 0,-9z M249,75 l4,0 0,10 -4,0 0,-10z M249,330 l4,0 0,10 -4,0 0,-10z M249,200 l4,0 0,9 -4,0 0,-9z M709,75 l4,0 0,10 -4,0 0,-10z M709,330 l4,0 0,10 -4,0 0,-10z M709,200 l4,0 0,9 -4,0 0,-9z M925,75 l4,0 0,10 -4,0 0,-10z M925,330 l4,0 0,10 -4,0 0,-10z M925,200 l4,0 0,9 -4,0 0,-9z " /><path style="fill:#fff" d="M814,124 l40,0 0,26 -40,0 0,-26z" /><path style="fill:#fff" d="M872,124 l39,0 0,26 -39,0 0,-26z" /><path style="fill:#fff" d="M872,85 l39,0 0,23 -39,0 0,-23z" /><path style="fill:#fff" d="M814,85 l40,0 0,23 -40,0 0,-23z" /><path style="fill:#fff" d="M755,85 l41,0 0,23 -41,0 0,-23z" /><path style="fill:#fff" d="M755,124 l41,0 0,26 -41,0 0,-26z" /><path style="fill:#fff" d="M755,166 l41,0 0,24 -41,0 0,-24z" /><path style="fill:#fff" d="M814,166 l40,0 0,24 -40,0 0,-24z" /><path style="fill:#fff" d="M872,166 l39,0 0,24 -39,0 0,-24z" /><path style="fill:#fff" d="M146,85 l42,0 0,23 -42,0 0,-23z" /><path style="fill:#fff" d="M87,85 l41,0 0,23 -41,0 0,-23z" /><path style="fill:#00007f;fill-rule:evenodd" d="M3,364 l938,0 0,26 -938,0 0,-26z M876,370 l43,0 0,14 -43,0 0,-14z M709,370 l44,0 0,14 -44,0 0,-14z M541,370 l43,0 0,14 -43,0 0,-14z M372,370 l44,0 0,14 -44,0 0,-14z M204,370 l45,0 0,14 -45,0 0,-14z M37,370 l44,0 0,14 -44,0 0,-14z " /><path style="fill:#3232b2" d="M995,3 l-54,42 0,345 54,-44 0,-343z" /><path style="fill:#7f7fff" d="M3,47 l938,0 52,-40 -938,0 -52,40z" /><path style="fill:#000;fill-rule:evenodd" d="M23,15 l6,0 2,4 2,2 0,6 0,2 -2,6 -2,0 -4,0 0,8 -4,0 0,-8 0,0 -4,0 -2,-6 -2,-2 2,-6 2,-2 4,-4 2,0z M23,19 l4,2 2,0 0,2 0,4 0,2 0,2 -2,2 -4,0 -2,0 0,-2 -2,-2 0,-2 0,-4 2,-2 0,0 2,-2z M263,15 l4,0 4,4 2,2 2,6 -2,2 -2,6 -4,0 0,0 0,8 -4,0 0,-8 -2,0 -4,0 -2,-6 0,-2 0,-6 2,-2 4,-4 2,0z M263,19 l4,2 0,0 2,2 2,4 -2,2 -2,2 0,2 -4,0 -2,0 0,-2 -2,-2 0,-2 0,-4 2,-2 0,0 2,-2z M499,15 l2,0 4,4 2,2 0,6 0,2 -2,6 -4,0 -2,0 0,8 -2,0 0,-8 -2,0 -4,0 -2,-6 0,-2 0,-6 2,-2 4,-4 4,0z M499,19 l0,2 2,0 2,2 2,4 -2,2 -2,2 -2,2 0,0 -4,0 -2,-2 -2,-2 0,-2 0,-4 2,-2 2,0 4,-2z M733,15 l4,0 2,4 4,2 0,6 0,2 -4,6 -2,0 -2,0 0,8 -4,0 0,-8 0,0 -4,0 -2,-6 -2,-2 2,-6 2,-2 4,-4 2,0z M733,19 l4,2 0,0 2,2 0,4 0,2 -2,2 0,2 -4,0 -2,0 -2,-2 -2,-2 0,-2 0,-4 2,-2 2,0 2,-2z M935,15 l4,0 2,4 2,2 2,6 -2,2 -2,6 -2,0 -2,0 0,8 -4,0 0,-8 0,0 -6,0 -2,-6 0,-2 0,-6 2,-2 6,-4 2,0z M935,19 l2,2 2,0 2,2 0,4 0,2 -2,2 -2,2 -2,0 -2,0 -2,-2 -2,-2 0,-2 0,-4 2,-2 2,0 2,-2z " /><path style="fill:#7f7f7f" d="M787,85 l9,0 0,9 -9,-9z" /><path style="fill:#7f7f7f" d="M787,124 l9,0 0,12 -9,-12z" /><path style="fill:#7f7f7f" d="M787,166 l9,0 0,10 -9,-10z" /><path style="fill:#7f7f7f" d="M846,85 l8,0 0,9 -8,-9z" /><path style="fill:#7f7f7f" d="M846,124 l8,0 0,12 -8,-12z" /><path style="fill:#7f7f7f" d="M846,166 l8,0 0,10 -8,-10z" /><path style="fill:#7f7f7f" d="M904,85 l7,0 0,9 -7,-9z" /><path style="fill:#7f7f7f" d="M904,124 l7,0 0,12 -7,-12z" /><path style="fill:#7f7f7f" d="M904,166 l7,0 0,10 -7,-10z" /><path style="fill:#7f7f7f" d="M763,85 l-8,0 0,9 8,-9z" /><path style="fill:#7f7f7f" d="M763,124 l-8,0 0,12 8,-12z" /><path style="fill:#7f7f7f" d="M763,166 l-8,0 0,10 8,-10z" /><path style="fill:#7f7f7f" d="M822,85 l-8,0 0,9 8,-9z" /><path style="fill:#7f7f7f" d="M822,124 l-8,0 0,12 8,-12z" /><path style="fill:#7f7f7f" d="M822,166 l-8,0 0,10 8,-10z" /><path style="fill:#7f7f7f" d="M880,85 l-8,0 0,9 8,-9z" /><path style="fill:#7f7f7f" d="M880,124 l-8,0 0,12 8,-12z" /><path style="fill:#7f7f7f" d="M880,166 l-8,0 0,10 8,-10z" /><path style="fill:#7f7f7f" d="M769,108 l12,0 15,0 0,6 -41,0 0,-6 14,0z" /><path style="fill:#7f7f7f" d="M769,148 l12,0 0,2 15,0 0,4 -41,0 0,-4 14,0 0,-2z" /><path style="fill:#7f7f7f" d="M769,188 l12,0 0,2 15,0 0,6 -41,0 0,-6 14,0 0,-2z" /><path style="fill:#7f7f7f" d="M828,108 l12,0 14,0 0,6 -40,0 0,-6 14,0z" /><path style="fill:#7f7f7f" d="M828,148 l12,0 0,2 14,0 0,4 -40,0 0,-4 14,0 0,-2z" /><path style="fill:#7f7f7f" d="M828,188 l12,0 0,2 14,0 0,6 -40,0 0,-6 14,0 0,-2z" /><path style="fill:#7f7f7f" d="M888,108 l10,0 13,0 0,6 -39,0 0,-6 16,0z" /><path style="fill:#7f7f7f" d="M888,148 l10,0 0,2 13,0 0,4 -39,0 0,-4 16,0 0,-2z" /><path style="fill:#7f7f7f" d="M888,188 l10,0 0,2 13,0 0,6 -39,0 0,-6 16,0 0,-2z" /><path style="fill:#7f7f7f" d="M120,85 l8,0 0,9 -8,-9z" /><path style="fill:#7f7f7f" d="M178,85 l10,0 0,9 -10,-9z" /><path style="fill:#7f7f7f" d="M94,85 l-7,0 0,9 7,-9z" /><path style="fill:#7f7f7f" d="M154,85 l-8,0 0,9 8,-9z" /><path style="fill:#7f7f7f" d="M102,108 l10,0 16,0 0,6 -41,0 0,-6 15,0z" /><path style="fill:#7f7f7f" d="M162,108 l10,0 16,0 0,6 -42,0 0,-6 16,0z" /><path style="fill:#000" d="M900,87 l-8,21 8,-21z" /><path style="fill:#000" d="M898,126 l-6,22 6,-22z" /><path style="fill:#000" d="M892,166 l0,22 0,-22z" /><path style="fill:#000" d="M846,170 l2,2 -14,16 -2,0 14,-18z" /><path style="fill:#000" d="M820,130 l14,18 -2,0 -12,-18z" /><path style="fill:#000" d="M830,87 l4,21 -2,0 -2,-21z" /><path style="fill:#000" d="M777,85 l2,2 -4,21 2,-23z" /><path style="fill:#000" d="M781,126 l-6,22 6,-22z" /><path style="fill:#000" d="M757,176 l0,-2 18,14 -18,-12z" /><path style="fill:#000" d="M152,90 l14,18 -14,-18z" /><path style="fill:#000" d="M94,90 l14,18 -14,-18z" /><path style="fill:#fff" d="M422,90 l10,0 9,4 2,8 0,163 -2,10 -9,2 -10,0 -8,-2 -2,-10 0,-163 2,-8 8,-4z" /><path style="fill:#fff" d="M533,90 l10,0 8,4 4,8 0,163 -4,10 -8,2 -10,0 -8,-2 -4,-10 0,-163 4,-8 8,-4z" /><path style="fill:#ccf" d="M443,198 l-31,23 0,44 2,10 8,2 10,0 9,-2 2,-10 0,-67z" /><path style="fill:#ccf" d="M555,192 l-34,27 0,46 4,10 8,2 10,0 8,-2 4,-10 0,-73z" /></svg>