<!DOCTYPE svg PUBLIC "-//W3C//DTD SVG 20000303 Stylable//EN" "http://www.w3.org/TR/2000/03/WD-SVG-20000303/DTD/svg-20000303-stylable.dtd"[]><svg xmlns="http://www.w3.org/2000/svg" width="999px" height="488px" viewBox="0 0 999 457"><path style="fill:#f2f2e5;stroke:#4c4c4c;stroke-width:2" d="M0,457 l0,-416 41,-41 334,0 40,41 42,-41 84,0 42,41 42,-41 332,0 42,41 0,416 -999,0z" /><path style="fill:#cc9" d="M603,185 l22,0 0,64 -22,0 0,-64z" /><path style="fill:#cc9" d="M531,157 l0,-46 -64,0 0,46 52,0 0,-12 -40,0 0,-22 40,0 0,34 12,0z" /><path style="fill:#ededdb" d="M5,451 l988,0 0,-244 -988,124 0,120z" /><path style="fill:#e8e8d1" d="M5,451 l988,0 -5,-186 -987,125 4,61z" /><path style="fill:#e3e3c7" d="M5,451 l988,0 0,-160 -988,124 0,36z" /><path style="fill:none;stroke:#4c4c4c;stroke-width:2" d="M999,41 l-416,0" /><path style="fill:none;stroke:#4c4c4c;stroke-width:2" d="M791,41 l0,416" /><path style="fill:none;stroke:#4c4c4c;stroke-width:2" d="M791,61 l-208,0" /><path style="fill:none;stroke:#4c4c4c;stroke-width:2" d="M791,435 l-208,0" /><path style="fill:none;stroke:#4c4c4c;stroke-width:2" d="M0,41 l415,0" /><path style="fill:none;stroke:#4c4c4c;stroke-width:2" d="M207,41 l0,416" /><path style="fill:none;stroke:#4c4c4c;stroke-width:2" d="M207,61 l208,0" /><path style="fill:none;stroke:#4c4c4c;stroke-width:2" d="M207,435 l208,0" /><path style="fill:none;stroke:#4c4c4c;stroke-width:2" d="M415,41 l168,0" /><path style="fill:none;stroke:#4c4c4c;stroke-width:2" d="M437,41 l0,416" /><path style="fill:none;stroke:#4c4c4c;stroke-width:2" d="M561,41 l0,416" /><path style="fill:none;stroke:#4c4c4c;stroke-width:2" d="M415,41 l0,416" /><path style="fill:none;stroke:#4c4c4c;stroke-width:2" d="M583,41 l0,416" /></svg>