<!DOCTYPE svg PUBLIC "-//W3C//DTD SVG 20000303 Stylable//EN" "http://www.w3.org/TR/2000/03/WD-SVG-20000303/DTD/svg-20000303-stylable.dtd"[]><svg xmlns="http://www.w3.org/2000/svg" width="792px" height="999px" viewBox="0 0 780 999"><path style="fill:#fff" d="M6,380 l48,0 0,-203 -48,0 0,203z" /><path style="fill:#fff" d="M6,813 l48,0 0,-203 -48,0 0,203z" /><path style="fill:#e5e5e5" d="M6,380 l9,0 0,-203 -9,0 0,203z" /><path style="fill:#e5e5e5" d="M6,813 l9,0 0,-203 -9,0 0,203z" /><path style="fill:#ccc" d="M41,380 l13,0 0,-203 -13,0 0,203z" /><path style="fill:#ccc" d="M41,813 l13,0 0,-203 -13,0 0,203z" /><path style="fill:none;stroke:#4c4c4c;stroke-width:2" d="M6,380 l48,0 0,-203 -48,0 0,203" /><path style="fill:none;stroke:#4c4c4c;stroke-width:2" d="M6,813 l48,0 0,-203 -48,0 0,203" /><path style="fill:#ffff7f" d="M0,360 l61,0 0,-83 -61,0 0,83z" /><path style="fill:#ffff7f;stroke:#4c4c4c;stroke-width:2" d="M0,190 l61,0 0,83 -61,0 0,-83z" /><path style="fill:#ffff7f" d="M0,793 l61,0 0,-83 -61,0 0,83z" /><path style="fill:#ffff7f" d="M0,623 l61,0 0,83 -61,0 0,-83z" /><path style="fill:#e5e5e5" d="M0,190 l10,0 0,83 -10,0 0,-83z" /><path style="fill:#e5e5e5" d="M0,360 l10,0 0,-83 -10,0 0,83z" /><path style="fill:#e5e5e5" d="M0,623 l10,0 0,83 -10,0 0,-83z" /><path style="fill:#e5e5e5" d="M0,793 l10,0 0,-83 -10,0 0,83z" /><path style="fill:#ccc" d="M45,360 l16,0 0,-83 -16,0 0,83z" /><path style="fill:#ccc" d="M45,190 l16,0 0,83 -16,0 0,-83z" /><path style="fill:#ccc" d="M45,793 l16,0 0,-83 -16,0 0,83z" /><path style="fill:#ccc" d="M45,623 l16,0 0,83 -16,0 0,-83z" /><path style="fill:none;stroke:#4c4c4c;stroke-width:2" d="M0,360 l61,0 0,-83 -61,0 0,83" /><path style="fill:none;stroke:#4c4c4c;stroke-width:2" d="M0,623 l61,0 0,83 -61,0 0,-83" /><path style="fill:none;stroke:#4c4c4c;stroke-width:2" d="M0,793 l61,0 0,-83 -61,0 0,83" /><path style="fill:#7f7f7f;stroke:#4c4c4c;stroke-width:2" d="M124,0 l601,0 22,4 17,11 11,17 5,22 0,879 -5,22 -11,15 -17,13 -22,4 -601,0 -22,-4 -17,-13 -11,-15 -5,-22 0,-879 5,-22 11,-17 17,-11 22,-4z" /><path style="fill:#f0f0f0" d="M111,11 l601,0 22,4 17,11 11,17 5,22 0,879 -5,20 -11,17 -17,13 -22,5 -601,0 -22,-5 -17,-13 -11,-17 -5,-20 0,-879 5,-22 11,-17 17,-11 22,-4z" /><path style="fill:#ccc" d="M714,82 l46,-43 2,4 5,22 0,879 -5,20 -11,17 -17,13 -22,5 -601,0 -2,-3 21,-50 3,2 17,4 523,0 17,-4 16,-11 10,-15 3,-18 0,-800 -3,-19 -2,-3z" /><path style="fill:none;stroke:#4c4c4c;stroke-width:2" d="M111,11 l601,0 22,4 17,11 11,17 5,22 0,879 -5,20 -11,17 -17,13 -22,5 -601,0 -22,-5 -17,-13 -11,-17 -5,-20 0,-879 5,-22 11,-17 17,-11 22,-4" /><path style="fill:#f0f0f0;stroke:#4c4c4c;stroke-width:2" d="M150,54 l523,0 17,5 16,10 10,16 3,19 0,800 -3,18 -10,15 -16,11 -17,4 -523,0 -17,-4 -16,-11 -8,-15 -5,-18 0,-800 5,-19 8,-16 16,-10 17,-5z" /><path style="fill:#ffff7f;stroke:#4c4c4c;stroke-width:2" d="M161,69 l501,0 17,5 13,11 11,15 5,17 0,772 -5,20 -11,15 -13,9 -17,4 -501,0 -17,-4 -14,-9 -10,-15 -3,-20 0,-772 3,-17 10,-15 14,-11 17,-5z" /><path style="fill:#000" d="M85,948 l11,-4 13,4 4,13 -4,13 -13,5 -11,-5 -7,-13 7,-13z" /><path style="fill:#000" d="M85,34 l11,-4 13,4 4,14 -4,13 -13,4 -11,-4 -7,-13 7,-14z" /><path style="fill:#000" d="M716,948 l13,-4 12,4 6,13 -6,13 -12,5 -13,-5 -4,-13 4,-13z" /><path style="fill:#000" d="M716,34 l13,-4 12,4 6,14 -6,13 -12,4 -13,-4 -4,-13 4,-14z" /><path style="fill:#f0f0f0;stroke:#4c4c4c;stroke-width:2" d="M107,948 l-25,22 -4,-9 7,-13 11,-4 11,4z" /><path style="fill:#f0f0f0;stroke:#4c4c4c;stroke-width:2" d="M87,974 l24,-22 2,9 -4,13 -13,5 -9,-5z" /><path style="fill:#f0f0f0;stroke:#4c4c4c;stroke-width:2" d="M107,34 l-25,22 -4,-8 7,-14 11,-4 11,4z" /><path style="fill:#f0f0f0;stroke:#4c4c4c;stroke-width:2" d="M87,61 l24,-22 2,9 -4,13 -13,4 -9,-4z" /><path style="fill:#f0f0f0;stroke:#4c4c4c;stroke-width:2" d="M738,948 l-24,22 -2,-9 4,-13 13,-4 9,4z" /><path style="fill:#f0f0f0;stroke:#4c4c4c;stroke-width:2" d="M719,974 l23,-22 5,9 -6,13 -12,5 -10,-5z" /><path style="fill:#f0f0f0;stroke:#4c4c4c;stroke-width:2" d="M738,34 l-24,22 -2,-8 4,-14 13,-4 9,4z" /><path style="fill:#f0f0f0;stroke:#4c4c4c;stroke-width:2" d="M719,61 l23,-22 5,9 -6,13 -12,4 -10,-4z" /><path style="fill:#fff;stroke:#4c4c4c;stroke-width:2" d="M139,148 l549,0 0,308 -549,0 0,-308z" /></svg>