<!DOCTYPE svg PUBLIC "-//W3C//DTD SVG 20000303 Stylable//EN" "http://www.w3.org/TR/2000/03/WD-SVG-20000303/DTD/svg-20000303-stylable.dtd"[]><svg xmlns="http://www.w3.org/2000/svg" width="999px" height="959px" viewBox="0 0 999 956"><path style="fill:#ccccc2" d="M916,42 l83,-42 0,914 -83,42 0,-914z" /><path style="fill:#f2f2ef;stroke:#4c4c4c;stroke-width:2" d="M916,42 l83,-42 -915,0 -84,42 916,0z" /><path style="fill:#bfbfb2" d="M916,520 l83,-230 0,624 -83,42 0,-436z" /><path style="fill:none;stroke:#4c4c4c;stroke-width:2" d="M916,42 l83,-42 0,914 -83,42 0,-914" /><path style="fill:#a6a694" d="M0,42 l916,0 0,914 -916,0 0,-914z" /><path style="fill:#b2b2a3" d="M0,42 l916,0 0,707 -916,82 0,-789z" /><path style="fill:#bfbfb2" d="M0,42 l916,0 0,561 -916,82 0,-643z" /><path style="fill:#ccccc2" d="M0,42 l916,0 0,518 -916,83 0,-601z" /><path style="fill:#d9d9d1" d="M0,42 l916,0 0,457 -916,83 0,-540z" /><path style="fill:#e5e5e0" d="M0,42 l916,0 0,311 -916,82 0,-393z" /><path style="fill:#f2f2ef" d="M0,42 l916,0 0,144 -916,85 0,-229z" /><path style="fill:none;stroke:#4c4c4c;stroke-width:2" d="M0,42 l916,0 0,914 -916,0 0,-914" /><path style="fill:#d9d9d1;stroke:#999985;stroke-width:2" d="M47,118 l-6,-15 6,-15 15,-6 15,6 6,15 -6,15 -15,6 -15,-6z" /><path style="fill:#d9d9d1;stroke:#999985;stroke-width:2" d="M838,118 l-6,-15 6,-15 15,-6 15,6 6,15 -6,15 -15,6 -15,-6z" /><path style="fill:#d9d9d1;stroke:#999985;stroke-width:2" d="M47,909 l-6,-15 6,-15 15,-6 15,6 6,15 -6,15 -15,6 -15,-6z" /><path style="fill:#d9d9d1;stroke:#999985;stroke-width:2" d="M838,909 l-6,-15 6,-15 15,-6 15,6 6,15 -6,15 -15,6 -15,-6z" /><path style="fill:none;stroke:#7f7f68;stroke-width:2" d="M25,30 l916,0 0,911" /></svg>