<!DOCTYPE svg PUBLIC "-//W3C//DTD SVG 20000303 Stylable//EN" "http://www.w3.org/TR/2000/03/WD-SVG-20000303/DTD/svg-20000303-stylable.dtd"[]><svg xmlns="http://www.w3.org/2000/svg" width="999px" height="959px" viewBox="0 0 999 957"><path style="fill:#ccc" d="M915,41 l84,-41 0,915 -84,42 0,-916z" /><path style="fill:#f2f2f2;stroke:#4c4c4c;stroke-width:2" d="M915,41 l84,-41 -916,0 -83,41 915,0z" /><path style="fill:#bfbfbf" d="M915,520 l84,-229 0,624 -84,42 0,-437z" /><path style="fill:none;stroke:#4c4c4c;stroke-width:2" d="M915,41 l84,-41 0,915 -84,42 0,-916" /><path style="fill:#a6a6a6" d="M0,41 l915,0 0,916 -915,0 0,-916z" /><path style="fill:#b2b2b2" d="M0,41 l915,0 0,708 -915,83 0,-791z" /><path style="fill:#bfbfbf" d="M0,41 l915,0 0,562 -915,83 0,-645z" /><path style="fill:#ccc" d="M0,41 l915,0 0,520 -915,84 0,-604z" /><path style="fill:#d9d9d9" d="M0,41 l915,0 0,458 -915,83 0,-541z" /><path style="fill:#e5e5e5" d="M0,41 l915,0 0,312 -915,83 0,-395z" /><path style="fill:#f2f2f2" d="M0,41 l915,0 0,146 -915,83 0,-229z" /><path style="fill:none;stroke:#4c4c4c;stroke-width:2" d="M0,41 l915,0 0,916 -915,0 0,-916" /><path style="fill:none;stroke:#fff;stroke-width:2" d="M41,915 l0,-832 791,0" /><path style="fill:none;stroke:#4c4c4c;stroke-width:2" d="M832,83 l0,832 -791,0" /><path style="fill:#666" d="M853,124 l42,0 0,63 -42,0 0,-63z" /><path style="fill:#666" d="M853,478 l42,0 0,63 -42,0 0,-63z" /><path style="fill:#666" d="M853,645 l42,0 0,62 -42,0 0,-62z" /><path style="fill:#666" d="M853,811 l42,0 0,63 -42,0 0,-63z" /><path style="fill:#999;stroke:#4c4c4c;stroke-width:2" d="M863,333 l21,0 0,104 -21,0 0,-104z" /><path style="fill:#bf0000;stroke:#4c4c4c;stroke-width:2" d="M853,333 l42,0 0,-105 -42,0 0,105z" /><path style="fill:#ff7f00" d="M593,114 l124,0 0,31 -124,0 0,-31z" /><circle style="fill:#bf0000" cx="132" cy="740" r="18" /><circle style="fill:#bf0000" cx="132" cy="813" r="18" /><circle style="fill:#bf0000" cx="132" cy="667" r="18" /><circle style="fill:#bf0000" cx="220" cy="569" r="18" /><circle style="fill:#00bf00" cx="303" cy="740" r="18" /><circle style="fill:#00bf00" cx="303" cy="813" r="18" /><circle style="fill:#00bf00" cx="303" cy="667" r="18" /><path style="fill:#366" d="M447,353 l104,0 0,104 -104,0 0,-104z" /><circle style="fill:#033" cx="499" cy="405" r="31" /><path style="fill:#033" d="M582,374 l125,0 0,52 -125,0 0,-52z" /><path style="fill:none;stroke:#fff;stroke-width:2" d="M582,426 l0,-52 125,0" /><path style="fill:none;stroke:#fff;stroke-width:2" d="M477,427 l-2,-2 -2,-2 -1,-3 -2,-3 -1,-3 0,-3 -1,-3 0,-3 1,-6 1,-6 3,-5 4,-5 5,-4 5,-3 6,-1 6,-1 3,0 3,1 3,0 3,1 3,2 3,1 2,2 2,2" /></svg>