<!DOCTYPE svg PUBLIC "-//W3C//DTD SVG 20000303 Stylable//EN" "http://www.w3.org/TR/2000/03/WD-SVG-20000303/DTD/svg-20000303-stylable.dtd"[]><svg xmlns="http://www.w3.org/2000/svg" width="612px" height="999px" viewBox="0 0 588 999"><path style="fill:#bfbfbf;stroke:#4c4c4c;stroke-width:2" d="M42,31 l0,-21 10,-10 21,0 11,10 0,21 -11,0 0,-16 -5,-5 -11,0 -5,5 0,16 -10,0z" /><path style="fill:#bfbfbf;stroke:#4c4c4c;stroke-width:2" d="M504,31 l0,-21 11,-10 21,0 10,10 0,21 -10,0 0,-16 -6,-5 -10,0 -5,5 0,16 -11,0z" /><path style="fill:#8c8c8c;stroke:#4c4c4c;stroke-width:2" d="M0,31 l588,0 0,968 -588,0 0,-968z" /><path style="fill:#a6a6a6" d="M26,52 l504,0 0,925 -504,0 0,-925z" /><path style="fill:#b2b2b2" d="M26,52 l504,0 0,526 -504,105 0,-631z" /><path style="fill:#bfbfbf" d="M26,52 l504,0 0,431 -504,105 0,-536z" /><path style="fill:#666" d="M530,152 l21,0 0,68 -21,0 0,-68z" /><path style="fill:#666" d="M530,488 l21,0 0,69 -21,0 0,-69z" /><path style="fill:#666" d="M530,825 l21,0 0,68 -21,0 0,-68z" /><path style="fill:none;stroke:#4c4c4c;stroke-width:2" d="M530,52 l0,925 -504,0" /><path style="fill:none;stroke:#4c4c4c;stroke-width:2" d="M10,956 l0,-42" /><path style="fill:none;stroke:#4c4c4c;stroke-width:2" d="M10,872 l0,-42" /><path style="fill:none;stroke:#4c4c4c;stroke-width:2" d="M10,788 l0,-42" /><path style="fill:none;stroke:#4c4c4c;stroke-width:2" d="M10,704 l0,-42" /><path style="fill:none;stroke:#4c4c4c;stroke-width:2" d="M10,620 l0,-42" /><path style="fill:none;stroke:#4c4c4c;stroke-width:2" d="M10,536 l0,-42" /><path style="fill:none;stroke:#4c4c4c;stroke-width:2" d="M10,452 l0,-42" /><path style="fill:none;stroke:#4c4c4c;stroke-width:2" d="M10,368 l0,-42" /><path style="fill:none;stroke:#4c4c4c;stroke-width:2" d="M10,283 l0,-42" /><path style="fill:none;stroke:#4c4c4c;stroke-width:2" d="M10,199 l0,-42" /><path style="fill:none;stroke:#4c4c4c;stroke-width:2" d="M10,115 l0,-42" /><path style="fill:#b2b2b2;stroke:#4c4c4c;stroke-width:2" d="M63,31 l42,0 0,21 -42,0 0,-21z" /><path style="fill:#b2b2b2;stroke:#4c4c4c;stroke-width:2" d="M441,31 l42,0 0,21 -42,0 0,-21z" /><path style="fill:#b2b2b2;stroke:#4c4c4c;stroke-width:2" d="M257,31 l42,0 0,21 -42,0 0,-21z" /><path style="fill:none;stroke:#fff;stroke-width:2" d="M26,977 l0,-925 504,0" /></svg>