<!DOCTYPE svg PUBLIC "-//W3C//DTD SVG 20000303 Stylable//EN" "http://www.w3.org/TR/2000/03/WD-SVG-20000303/DTD/svg-20000303-stylable.dtd"[]><svg xmlns="http://www.w3.org/2000/svg" width="882px" height="999px" viewBox="0 0 875 999"><path style="fill:#696;stroke:#4c4c4c;stroke-width:2" d="M84,791 l103,-104 500,0 104,104 0,-126 -707,0 0,126z" /><path style="fill:#696;stroke:#4c4c4c;stroke-width:2" d="M0,988 l103,0 0,11 -103,0 0,-11z" /><path style="fill:#696;stroke:#4c4c4c;stroke-width:2" d="M771,988 l104,0 0,11 -104,0 0,-11z" /><path style="fill:#001900;stroke:#4c4c4c;stroke-width:2" d="M145,457 l32,62 260,0 0,-364 -84,0 0,-84 -56,0 -152,386z" /><path style="fill:#85b885" d="M21,519 l834,0 0,104 -834,0 0,-104z" /><path style="fill:#9c9" d="M437,0 l396,0 0,519 -396,0 0,-519z" /><path style="fill:#94c794" d="M437,369 l396,-218 0,368 -396,0 0,-150z" /><path style="fill:#8fc28f" d="M437,391 l396,-218 0,346 -396,0 0,-128z" /><path style="fill:#8abd8a" d="M437,423 l396,-218 0,314 -396,0 0,-96z" /><path style="fill:none;stroke:#4c4c4c;stroke-width:2" d="M437,0 l396,0 0,519 -396,0 0,-519" /><path style="fill:#85b885;stroke:#4c4c4c;stroke-width:2" d="M21,623 l832,0 0,365 -62,0 0,-301 -707,0 0,301 -63,0 0,-365z" /><path style="fill:#696" d="M21,541 l834,0 0,20 -834,0 0,-20z" /><circle style="fill:#ccc" cx="599" cy="399" r="100" /><path style="fill:#ccc;stroke:#4c4c4c;stroke-width:2" d="M639,275 l-26,6 -26,0 -26,-6 -22,-12 -20,-20 -12,-22 -8,-26 0,-26 8,-26 12,-22 20,-18 22,-14 26,-5 26,0 26,5 22,14 18,18 14,22 6,26 0,26 -6,26 -14,22 -18,20 -22,12z" /><path style="fill:#d9d9d9" d="M613,281 l-26,0 -26,-6 -22,-12 -20,-20 -12,-22 -8,-26 100,-12 -12,-99 26,0 26,5 22,14 18,18 14,22 6,26 -100,14 14,98z" /><path style="fill:#d9d9d9" d="M613,499 l-26,0 -26,-6 -22,-14 -20,-18 -12,-24 -8,-24 100,-14 -12,-100 26,0 26,6 22,14 18,18 14,24 6,24 -100,14 14,100z" /><path style="fill:#e5e5e5" d="M561,275 l-22,-12 -20,-20 80,-60 40,-94 22,14 18,18 -80,62 -38,92z" /><path style="fill:#e5e5e5" d="M561,493 l-22,-14 -20,-18 80,-62 40,-94 22,14 18,18 -80,62 -38,94z" /><circle style="fill:#f2f2f2" cx="600" cy="182" r="45" /><circle style="fill:#f2f2f2" cx="600" cy="399" r="45" /><path style="fill:#333" d="M573,139 l70,70 -16,16 -70,-70 16,-16z" /><path style="fill:#333" d="M573,355 l70,70 -16,16 -70,-70 16,-16z" /><circle style="fill:none;stroke:#4c4c4c;stroke-width:2" cx="599" cy="399" r="100" /><path style="fill:none;stroke:#4c4c4c;stroke-width:2" d="M21,541 l832,0" /><path style="fill:#333" d="M521,15 l234,0 0,56 -234,0 0,-56z" /><path style="fill:#b2b2b2" d="M651,20 l94,0 0,32 -94,0 0,-32z" /><path style="fill:#b2b2b2" d="M541,20 l94,0 0,32 -94,0 0,-32z" /><path style="fill:#ccc" d="M130,207 l167,0 0,250 -167,0 0,-250z" /><path style="fill:#c7c7c7" d="M130,385 l167,-104 0,176 -167,0 0,-72z" /><path style="fill:#c2c2c2" d="M130,395 l167,-104 0,166 -167,0 0,-62z" /><path style="fill:#bdbdbd" d="M130,411 l167,-104 0,150 -167,0 0,-46z" /><path style="fill:#b2b2b2" d="M151,0 l146,0 0,207 -146,0 0,-207z" /><path style="fill:#adadad" d="M151,147 l146,-88 0,148 -146,0 0,-60z" /><path style="fill:#a8a8a8" d="M151,155 l146,-85 0,137 -146,0 0,-52z" /><path style="fill:#a3a3a3" d="M151,169 l146,-88 0,126 -146,0 0,-38z" /><path style="fill:#000" d="M145,245 l104,0 0,108 -104,0 0,-108z" /><path style="fill:#000" d="M333,373 l72,0 0,142 -72,0 0,-142z" /><circle style="fill:none;stroke:#7f7f7f;stroke-width:2" cx="196" cy="298" r="39" /><path style="fill:#7f7f7f" d="M42,269 l0,126 21,0 0,-22 67,0 0,-82 -67,0 0,-22 -21,0z" /><path style="fill:#999" d="M42,279 l0,106 21,0 0,-18 67,0 0,-70 -67,0 0,-18 -21,0z" /><path style="fill:#b2b2b2" d="M42,295 l0,74 21,0 0,-12 67,0 0,-50 -67,0 0,-12 -21,0z" /><path style="fill:none;stroke:#4c4c4c;stroke-width:2" d="M21,519 l834,0 0,104 -834,0 0,-104" /><path style="fill:none;stroke:#4c4c4c;stroke-width:2" d="M151,0 l146,0 0,207 -146,0 0,-207" /><path style="fill:none;stroke:#4c4c4c;stroke-width:2" d="M130,207 l167,0 0,250 -167,0 0,-250" /><path style="fill:none;stroke:#4c4c4c;stroke-width:2" d="M42,269 l0,126 21,0 0,-22 67,0 0,-82 -67,0 0,-22 -21,0" /><path style="fill:#cc8561;stroke:#4c4c4c;stroke-width:2" d="M307,249 l188,0 26,20 20,6 146,0 0,32 -146,0 -20,4 -26,22 -188,0 0,-84z" /></svg>