<!DOCTYPE svg PUBLIC "-//W3C//DTD SVG 20000303 Stylable//EN" "http://www.w3.org/TR/2000/03/WD-SVG-20000303/DTD/svg-20000303-stylable.dtd"[]><svg xmlns="http://www.w3.org/2000/svg" width="999px" height="263px" viewBox="0 0 999 219"><path style="fill:#bfcccc;stroke:#4c4c4c;stroke-width:2" d="M97,67 l0,-10 26,0 0,10 -26,0z" /><path style="fill:#bfcccc;stroke:#4c4c4c;stroke-width:2" d="M103,57 l0,-16 6,0 0,-41 4,0 0,41 6,0 0,16 -16,0z" /><path style="fill:#fafafa" d="M35,93 l0,-10 6,0 0,-16 82,0 0,78 -104,0 0,-52 16,0z" /><path style="fill:#f5f5f5" d="M19,123 l104,-34 0,56 -104,0 0,-22z" /><path style="fill:#f0f0f0" d="M19,125 l104,-32 0,52 -104,0 0,-20z" /><path style="fill:#ebebeb" d="M19,131 l104,-34 0,48 -104,0 0,-14z" /><path style="fill:none;stroke:#4c4c4c;stroke-width:2" d="M35,93 l0,-10 6,0 0,-16 82,0 0,78 -104,0 0,-52 16,0" /><path style="fill:#ccc" d="M103,93 l0,-10 20,0 0,10 -20,0z" /><path style="fill:#fff" d="M103,83 l0,-16 20,0 0,16 -20,0z" /><path style="fill:#e5e5e5" d="M103,67 l0,-6 20,0 0,6 -20,0z" /><path style="fill:none;stroke:#4c4c4c;stroke-width:2" d="M103,93 l0,-32 20,0 0,32" /><path style="fill:#333;stroke:#4c4c4c;stroke-width:2" d="M45,67 l0,-10 22,0 4,10 -26,0z" /><path style="fill:none;stroke:#666;stroke-width:2" d="M103,83 l20,0" /><path style="fill:#333" d="M5,135 l-5,42 979,0 20,-52 -120,0 -30,10 -844,0z" /><path style="fill:#7f0000" d="M0,177 l15,42 984,0 -16,-22 -4,-20 -979,0z" /><path style="fill:#000" d="M31,125 l0,-6 82,0 0,6 -4,0 0,10 -74,0 0,-10 -4,0z" /><path style="fill:#000" d="M83,83 l0,-6 14,0 0,6 -14,0z" /><path style="fill:#000" d="M65,83 l0,-6 14,0 0,6 -14,0z" /><path style="fill:#000" d="M47,83 l0,-6 14,0 0,6 -14,0z" /><path style="fill:none;stroke:#4c4c4c;stroke-width:2" d="M0,177 l15,42 984,0 -16,-22 -4,-20 20,-52 -120,0 -30,10 -844,0 -5,42" /><path style="fill:#666" d="M905,141 l74,0 0,-6 -74,0 0,6z" /><path style="fill:#ccc" d="M963,161 l6,0 0,-6 -6,0 0,6z" /><path style="fill:none;stroke:#c30;stroke-width:2" d="M1,179 l976,0" /></svg>