<!DOCTYPE svg PUBLIC "-//W3C//DTD SVG 20000303 Stylable//EN" "http://www.w3.org/TR/2000/03/WD-SVG-20000303/DTD/svg-20000303-stylable.dtd"[]><svg xmlns="http://www.w3.org/2000/svg" width="999px" height="537px" viewBox="0 0 999 509"><path style="fill:#cc3" d="M811,493 l-755,16 -17,-16 -16,-34 -11,-48 -8,-58 -4,-64 0,-68 4,-64 8,-60 11,-46 16,-34 17,-17 755,17 0,476z" /><path style="fill:#d1d138" d="M811,465 l-761,16 -16,-16 -13,-30 -9,-42 -8,-52 -4,-56 0,-60 4,-58 8,-52 9,-42 13,-30 16,-14 761,14 0,422z" /><path style="fill:#d9d940" d="M811,437 l-769,14 -13,-14 -9,-26 -11,-36 -5,-44 -4,-50 0,-52 4,-50 5,-46 8,-36 12,-26 13,-14 769,14 0,366z" /><path style="fill:#dede45" d="M811,411 l-776,10 -12,-10 -8,-22 -8,-32 -3,-38 -4,-42 0,-44 4,-44 3,-38 8,-30 8,-21 12,-13 776,13 0,311z" /><path style="fill:#e5e54c" d="M811,383 l-783,10 -8,-10 -8,-18 -6,-26 -5,-32 -1,-34 0,-36 1,-36 5,-32 6,-26 8,-18 8,-8 783,8 0,258z" /><path style="fill:#ebeb52" d="M811,355 l-790,8 -7,-8 -5,-14 -3,-20 -5,-24 -1,-28 0,-28 1,-28 5,-26 3,-20 5,-14 7,-8 790,8 0,202z" /><path style="fill:#f2f259" d="M811,329 l-797,4 -5,-4 -3,-10 -2,-16 -4,-38 0,-22 4,-38 2,-14 3,-10 5,-6 797,6 0,148z" /><path style="fill:#f7f75e" d="M811,301 l-804,4 -3,-10 -4,-34 0,-14 4,-34 3,-10 804,4 0,94z" /><path style="fill:#ff6" d="M811,275 l-811,0 0,-42 811,2 0,40z" /><path style="fill:none;stroke:#4c4c4c;stroke-width:2" d="M811,493 l-755,16 -17,-16 -16,-34 -11,-48 -8,-58 -4,-64 0,-68 4,-64 8,-60 11,-46 16,-34 17,-17 755,17 0,476" /><path style="fill:#bfbf26" d="M527,489 l-58,-10 -14,-8 -10,-14 0,-16 10,-14 14,-8 340,-102 0,168 -282,4z" /><path style="fill:#bfbf26" d="M527,21 l-58,10 -14,8 -10,14 0,18 10,15 14,7 340,104 0,-171 -282,-5z" /><path style="fill:#262626" d="M765,361 l22,0 20,22 0,126 105,-20 44,-106 21,-22 22,-106 -43,-22 -44,-64 0,-20 44,-44 -63,-105 -86,0 0,149 -20,42 -22,0 0,170z" /><path style="fill:#000" d="M765,361 l22,0 20,22 0,126 105,-20 44,-106 21,-22 22,-100 -16,14 -122,38 -96,22 0,26z" /><path style="fill:#000" d="M787,191 l42,0 10,-10 54,-28 -12,-16 16,-48 -90,0 0,60 -20,42z" /><path style="fill:#666" d="M829,191 l32,122 36,22 15,32 71,-106 -6,-16 -21,-12 -47,-58 -22,-16 -58,32z" /><path style="fill:#666" d="M912,169 l-19,-16 -12,-16 16,-48 48,0 11,16 -44,44 0,20z" /><path style="fill:none;stroke:#666;stroke-width:2" d="M912,367 l-19,94" /><path style="fill:none;stroke:#4c4c4c;stroke-width:2" d="M765,361 l22,0 20,22 0,126 105,-20 44,-106 21,-22 22,-106 -43,-22 -44,-64 0,-20 44,-44 -63,-105 -86,0 0,149 -20,42 -22,0 0,170" /><path style="fill:none;stroke:#7f7f7f;stroke-width:2" d="M807,89 l138,0" /></svg>