<!DOCTYPE svg PUBLIC "-//W3C//DTD SVG 20000303 Stylable//EN" "http://www.w3.org/TR/2000/03/WD-SVG-20000303/DTD/svg-20000303-stylable.dtd"[]><svg xmlns="http://www.w3.org/2000/svg" width="999px" height="410px" viewBox="0 0 999 375"><path style="fill:#cc3;stroke:#4c4c4c;stroke-width:2" d="M0,0 l999,0 0,249 -999,0 0,-249z" /><path style="fill:#990" d="M921,255 l-6,-72 7,-6 21,-4 28,0 22,4 6,6 -6,72 -72,0z" /><path style="fill:#990" d="M839,255 l-6,-72 6,-6 20,-4 28,0 22,4 6,6 -6,72 -70,0z" /><path style="fill:#990" d="M755,255 l-6,-72 6,-6 22,-4 28,0 20,4 8,6 -6,72 -72,0z" /><path style="fill:#990" d="M671,255 l-6,-72 8,-6 20,-4 28,0 20,4 8,6 -6,72 -72,0z" /><path style="fill:#990" d="M589,255 l-6,-72 6,-6 20,-4 28,0 22,4 6,6 -6,72 -70,0z" /><path style="fill:#990" d="M505,255 l-6,-72 6,-6 22,-4 28,0 20,4 8,6 -6,72 -72,0z" /><path style="fill:#990" d="M421,255 l-6,-72 8,-6 20,-4 28,0 20,4 8,6 -6,72 -72,0z" /><path style="fill:#990" d="M339,255 l-6,-72 6,-6 20,-4 28,0 22,4 6,6 -6,72 -70,0z" /><path style="fill:#990" d="M255,255 l-6,-72 6,-6 22,-4 28,0 20,4 8,6 -6,72 -72,0z" /><path style="fill:#990" d="M171,255 l-6,-72 8,-6 20,-4 28,0 20,4 8,6 -6,72 -72,0z" /><path style="fill:#990" d="M89,255 l-6,-72 6,-6 20,-4 28,0 22,4 6,6 -6,72 -70,0z" /><path style="fill:#990" d="M5,255 l-5,-72 5,-6 22,-4 28,0 21,4 7,6 -6,72 -72,0z" /><circle style="fill:#990" cx="40" cy="62" r="21" /><circle style="fill:#990" cx="144" cy="62" r="21" /><circle style="fill:#990" cx="854" cy="62" r="21" /><circle style="fill:#990" cx="957" cy="62" r="21" /><circle style="fill:#990" cx="354" cy="62" r="21" /><circle style="fill:#990" cx="644" cy="62" r="21" /><circle style="fill:#990" cx="499" cy="62" r="20" /><path style="fill:#cc3;stroke:#4c4c4c;stroke-width:2" d="M921,255 l6,-46 60,0 6,46 -72,0z" /><path style="fill:#cc3;stroke:#4c4c4c;stroke-width:2" d="M839,255 l6,-46 58,0 6,46 -70,0z" /><path style="fill:#cc3;stroke:#4c4c4c;stroke-width:2" d="M755,255 l6,-46 60,0 6,46 -72,0z" /><path style="fill:#cc3;stroke:#4c4c4c;stroke-width:2" d="M671,255 l6,-46 60,0 6,46 -72,0z" /><path style="fill:#cc3;stroke:#4c4c4c;stroke-width:2" d="M589,255 l6,-46 58,0 6,46 -70,0z" /><path style="fill:#cc3;stroke:#4c4c4c;stroke-width:2" d="M505,255 l6,-46 60,0 6,46 -72,0z" /><path style="fill:#cc3;stroke:#4c4c4c;stroke-width:2" d="M421,255 l6,-46 60,0 6,46 -72,0z" /><path style="fill:#cc3;stroke:#4c4c4c;stroke-width:2" d="M339,255 l6,-46 58,0 6,46 -70,0z" /><path style="fill:#cc3;stroke:#4c4c4c;stroke-width:2" d="M255,255 l6,-46 60,0 6,46 -72,0z" /><path style="fill:#cc3;stroke:#4c4c4c;stroke-width:2" d="M171,255 l6,-46 60,0 6,46 -72,0z" /><path style="fill:#cc3;stroke:#4c4c4c;stroke-width:2" d="M89,255 l6,-46 58,0 6,46 -70,0z" /><path style="fill:#cc3;stroke:#4c4c4c;stroke-width:2" d="M5,255 l6,-46 60,0 6,46 -72,0z" /><path style="fill:#cc3;stroke:#4c4c4c;stroke-width:2" d="M927,327 l-6,-74 6,-4 17,-4 25,0 18,4 6,4 -6,74 -60,0z" /><path style="fill:#cc3;stroke:#4c4c4c;stroke-width:2" d="M845,327 l-6,-74 6,-4 16,-4 24,0 18,4 6,4 -6,74 -58,0z" /><path style="fill:#cc3;stroke:#4c4c4c;stroke-width:2" d="M761,327 l-6,-74 6,-4 18,-4 24,0 18,4 6,4 -6,74 -60,0z" /><path style="fill:#cc3;stroke:#4c4c4c;stroke-width:2" d="M677,327 l-6,-74 6,-4 18,-4 24,0 18,4 6,4 -6,74 -60,0z" /><path style="fill:#cc3;stroke:#4c4c4c;stroke-width:2" d="M595,327 l-6,-74 6,-4 16,-4 24,0 18,4 6,4 -6,74 -58,0z" /><path style="fill:#cc3;stroke:#4c4c4c;stroke-width:2" d="M511,327 l-6,-74 6,-4 18,-4 24,0 18,4 6,4 -6,74 -60,0z" /><path style="fill:#cc3;stroke:#4c4c4c;stroke-width:2" d="M427,327 l-6,-74 6,-4 18,-4 24,0 18,4 6,4 -6,74 -60,0z" /><path style="fill:#cc3;stroke:#4c4c4c;stroke-width:2" d="M345,327 l-6,-74 6,-4 16,-4 24,0 18,4 6,4 -6,74 -58,0z" /><path style="fill:#cc3;stroke:#4c4c4c;stroke-width:2" d="M261,327 l-6,-74 6,-4 18,-4 24,0 18,4 6,4 -6,74 -60,0z" /><path style="fill:#cc3;stroke:#4c4c4c;stroke-width:2" d="M177,327 l-6,-74 6,-4 18,-4 24,0 18,4 6,4 -6,74 -60,0z" /><path style="fill:#cc3;stroke:#4c4c4c;stroke-width:2" d="M95,327 l-6,-74 6,-4 16,-4 24,0 18,4 6,4 -6,74 -58,0z" /><path style="fill:#cc3;stroke:#4c4c4c;stroke-width:2" d="M11,327 l-6,-74 6,-4 18,-4 25,0 17,4 6,4 -6,74 -60,0z" /><path style="fill:#d9d940" d="M933,327 l-4,-74 4,-4 14,-4 19,0 14,4 5,4 -5,74 -47,0z" /><path style="fill:#d9d940" d="M851,327 l-6,-74 6,-4 14,-6 18,0 14,6 6,4 -6,74 -46,0z" /><path style="fill:#d9d940" d="M767,327 l-4,-74 4,-4 14,-6 18,0 16,6 4,4 -4,74 -48,0z" /><path style="fill:#d9d940" d="M683,327 l-4,-74 4,-4 14,-6 20,0 14,6 4,4 -4,74 -48,0z" /><path style="fill:#d9d940" d="M601,327 l-6,-74 6,-4 14,-6 18,0 14,6 6,4 -6,74 -46,0z" /><path style="fill:#d9d940" d="M517,327 l-4,-74 4,-4 14,-6 18,0 16,6 4,4 -4,74 -48,0z" /><path style="fill:#d9d940" d="M433,327 l-4,-74 4,-4 14,-6 20,0 14,6 4,4 -4,74 -48,0z" /><path style="fill:#d9d940" d="M351,327 l-6,-74 6,-4 14,-6 18,0 14,6 6,4 -6,74 -46,0z" /><path style="fill:#d9d940" d="M267,327 l-4,-74 4,-4 14,-6 18,0 16,6 4,4 -4,74 -48,0z" /><path style="fill:#d9d940" d="M183,327 l-4,-74 4,-4 14,-6 20,0 14,6 4,4 -4,74 -48,0z" /><path style="fill:#d9d940" d="M101,327 l-6,-74 6,-4 14,-6 18,0 14,6 6,4 -6,74 -46,0z" /><path style="fill:#d9d940" d="M18,327 l-5,-74 5,-4 14,-6 17,0 16,6 4,4 -4,74 -47,0z" /><path style="fill:#e5e54c" d="M941,327 l-5,-74 5,-4 10,-4 14,0 9,4 5,4 -5,74 -33,0z" /><path style="fill:#e5e54c" d="M857,327 l-4,-74 4,-4 10,-6 14,0 10,6 4,4 -4,74 -34,0z" /><path style="fill:#e5e54c" d="M773,327 l-4,-74 4,-4 10,-6 14,0 10,6 4,4 -4,74 -34,0z" /><path style="fill:#e5e54c" d="M689,327 l-2,-74 2,-4 12,-6 14,0 10,6 4,4 -4,74 -36,0z" /><path style="fill:#e5e54c" d="M607,327 l-4,-74 4,-4 10,-6 14,0 10,6 4,4 -4,74 -34,0z" /><path style="fill:#e5e54c" d="M523,327 l-4,-74 4,-4 10,-6 14,0 10,6 4,4 -4,74 -34,0z" /><path style="fill:#e5e54c" d="M439,327 l-2,-74 2,-4 12,-6 14,0 10,6 4,4 -4,74 -36,0z" /><path style="fill:#e5e54c" d="M357,327 l-4,-74 4,-4 10,-6 14,0 10,6 4,4 -4,74 -34,0z" /><path style="fill:#e5e54c" d="M273,327 l-4,-74 4,-4 10,-6 14,0 10,6 4,4 -4,74 -34,0z" /><path style="fill:#e5e54c" d="M189,327 l-2,-74 2,-4 12,-6 14,0 10,6 4,4 -4,74 -36,0z" /><path style="fill:#e5e54c" d="M107,327 l-4,-74 4,-4 10,-6 14,0 10,6 4,4 -4,74 -34,0z" /><path style="fill:#e5e54c" d="M24,327 l-5,-74 5,-4 9,-6 14,0 10,6 5,4 -5,74 -33,0z" /><path style="fill:#f2f259" d="M944,327 l-1,-74 1,-4 8,-4 8,0 9,4 2,4 -2,74 -25,0z" /><path style="fill:#f2f259" d="M863,327 l-2,-74 2,-4 6,-6 10,0 6,6 2,4 -2,74 -22,0z" /><path style="fill:#f2f259" d="M779,327 l-2,-74 2,-4 8,-6 8,0 6,6 2,4 -2,74 -22,0z" /><path style="fill:#f2f259" d="M697,327 l-4,-74 4,-4 6,-6 8,0 8,6 2,4 -2,74 -22,0z" /><path style="fill:#f2f259" d="M613,327 l-2,-74 2,-4 6,-6 10,0 6,6 2,4 -2,74 -22,0z" /><path style="fill:#f2f259" d="M529,327 l-2,-74 2,-4 8,-6 8,0 6,6 2,4 -2,74 -22,0z" /><path style="fill:#f2f259" d="M447,327 l-4,-74 4,-4 6,-6 8,0 8,6 2,4 -2,74 -22,0z" /><path style="fill:#f2f259" d="M363,327 l-2,-74 2,-4 6,-6 10,0 6,6 2,4 -2,74 -22,0z" /><path style="fill:#f2f259" d="M279,327 l-2,-74 2,-4 8,-6 8,0 6,6 2,4 -2,74 -22,0z" /><path style="fill:#f2f259" d="M197,327 l-4,-74 4,-4 6,-6 8,0 8,6 2,4 -2,74 -22,0z" /><path style="fill:#f2f259" d="M113,327 l-2,-74 2,-4 6,-6 10,0 6,6 2,4 -2,74 -22,0z" /><path style="fill:#f2f259" d="M29,327 l-2,-74 2,-4 9,-6 8,0 5,6 3,4 -3,74 -22,0z" /><path style="fill:#ff6" d="M952,327 l-1,-74 1,-4 3,-4 3,0 5,4 0,4 0,74 -11,0z" /><path style="fill:#ff6" d="M869,327 l-2,-74 2,-4 2,-4 4,0 4,4 0,4 0,74 -10,0z" /><path style="fill:#ff6" d="M785,327 l0,-74 0,-4 4,-4 4,0 2,4 2,4 -2,74 -10,0z" /><path style="fill:#ff6" d="M703,327 l-2,-74 2,-4 2,-4 4,0 4,4 0,4 0,74 -10,0z" /><path style="fill:#ff6" d="M619,327 l-2,-74 2,-4 2,-4 4,0 4,4 0,4 0,74 -10,0z" /><path style="fill:#ff6" d="M535,327 l0,-74 0,-4 4,-4 4,0 2,4 2,4 -2,74 -10,0z" /><path style="fill:#ff6" d="M453,327 l-2,-74 2,-4 2,-4 4,0 4,4 0,4 0,74 -10,0z" /><path style="fill:#ff6" d="M369,327 l-2,-74 2,-4 2,-4 4,0 4,4 0,4 0,74 -10,0z" /><path style="fill:#ff6" d="M285,327 l0,-74 0,-4 4,-4 4,0 2,4 2,4 -2,74 -10,0z" /><path style="fill:#ff6" d="M203,327 l-2,-74 2,-4 2,-4 4,0 4,4 0,4 0,74 -10,0z" /><path style="fill:#ff6" d="M119,327 l-2,-74 2,-4 2,-4 4,0 4,4 0,4 0,74 -10,0z" /><path style="fill:#ff6" d="M35,327 l0,-74 0,-4 5,-4 3,0 3,4 1,4 -1,74 -11,0z" /><path style="fill:#000" d="M963,375 l-12,0 -12,-6 -12,-42 6,-6 18,-6 12,0 17,6 7,6 -13,42 -11,6z" /><path style="fill:#000" d="M881,375 l-14,0 -10,-6 -12,-42 6,-6 16,-6 14,0 16,6 6,6 -12,42 -10,6z" /><path style="fill:#000" d="M797,375 l-12,0 -12,-6 -12,-42 6,-6 18,-6 12,0 18,6 6,6 -14,42 -10,6z" /><path style="fill:#000" d="M713,375 l-12,0 -12,-6 -12,-42 6,-6 18,-6 12,0 18,6 6,6 -12,42 -12,6z" /><path style="fill:#000" d="M631,375 l-14,0 -10,-6 -12,-42 6,-6 16,-6 14,0 16,6 6,6 -12,42 -10,6z" /><path style="fill:#000" d="M547,375 l-12,0 -12,-6 -12,-42 6,-6 18,-6 12,0 18,6 6,6 -14,42 -10,6z" /><path style="fill:#000" d="M463,375 l-12,0 -12,-6 -12,-42 6,-6 18,-6 12,0 18,6 6,6 -12,42 -12,6z" /><path style="fill:#000" d="M381,375 l-14,0 -10,-6 -12,-42 6,-6 16,-6 14,0 16,6 6,6 -12,42 -10,6z" /><path style="fill:#000" d="M297,375 l-12,0 -12,-6 -12,-42 6,-6 18,-6 12,0 18,6 6,6 -14,42 -10,6z" /><path style="fill:#000" d="M213,375 l-12,0 -12,-6 -12,-42 6,-6 18,-6 12,0 18,6 6,6 -12,42 -12,6z" /><path style="fill:#000" d="M131,375 l-14,0 -10,-6 -12,-42 6,-6 16,-6 14,0 16,6 6,6 -12,42 -10,6z" /><path style="fill:#000" d="M47,375 l-12,0 -11,-6 -13,-42 7,-6 17,-6 12,0 18,6 6,6 -14,42 -10,6z" /><path style="fill:#4c4c4c" d="M960,375 l-8,0 -5,-6 -8,-50 13,-4 8,0 14,4 -8,50 -6,6z" /><path style="fill:#4c4c4c" d="M877,375 l-6,0 -8,-6 -6,-50 14,-4 6,0 14,4 -6,50 -8,6z" /><path style="fill:#4c4c4c" d="M795,375 l-8,0 -6,-6 -8,-50 14,-4 8,0 14,4 -8,50 -6,6z" /><path style="fill:#4c4c4c" d="M711,375 l-8,0 -6,-6 -8,-50 14,-4 8,0 14,4 -8,50 -6,6z" /><path style="fill:#4c4c4c" d="M627,375 l-6,0 -8,-6 -6,-50 14,-4 6,0 14,4 -6,50 -8,6z" /><path style="fill:#4c4c4c" d="M545,375 l-8,0 -6,-6 -8,-50 14,-4 8,0 14,4 -8,50 -6,6z" /><path style="fill:#4c4c4c" d="M461,375 l-8,0 -6,-6 -8,-50 14,-4 8,0 14,4 -8,50 -6,6z" /><path style="fill:#4c4c4c" d="M377,375 l-6,0 -8,-6 -6,-50 14,-4 6,0 14,4 -6,50 -8,6z" /><path style="fill:#4c4c4c" d="M295,375 l-8,0 -6,-6 -8,-50 14,-4 8,0 14,4 -8,50 -6,6z" /><path style="fill:#4c4c4c" d="M211,375 l-8,0 -6,-6 -8,-50 14,-4 8,0 14,4 -8,50 -6,6z" /><path style="fill:#4c4c4c" d="M127,375 l-6,0 -8,-6 -6,-50 14,-4 6,0 14,4 -6,50 -8,6z" /><path style="fill:#4c4c4c" d="M46,375 l-8,0 -6,-6 -8,-50 14,-4 8,0 13,4 -8,50 -5,6z" /><path style="fill:#999" d="M958,375 l-3,0 -3,-6 -1,-54 12,0 -3,54 -2,6z" /><path style="fill:#999" d="M875,375 l-2,0 -2,-6 -4,-54 12,0 -2,54 -2,6z" /><path style="fill:#999" d="M791,375 l-2,0 -2,-6 -2,-54 12,0 -2,54 -4,6z" /><path style="fill:#999" d="M709,375 l-4,0 -2,-6 -2,-54 12,0 -2,54 -2,6z" /><path style="fill:#999" d="M625,375 l-2,0 -2,-6 -4,-54 12,0 -2,54 -2,6z" /><path style="fill:#999" d="M541,375 l-2,0 -2,-6 -2,-54 12,0 -2,54 -4,6z" /><path style="fill:#999" d="M459,375 l-4,0 -2,-6 -2,-54 12,0 -2,54 -2,6z" /><path style="fill:#999" d="M375,375 l-2,0 -2,-6 -4,-54 12,0 -2,54 -2,6z" /><path style="fill:#999" d="M291,375 l-2,0 -2,-6 -2,-54 12,0 -2,54 -4,6z" /><path style="fill:#999" d="M209,375 l-4,0 -2,-6 -2,-54 12,0 -2,54 -2,6z" /><path style="fill:#999" d="M125,375 l-2,0 -2,-6 -4,-54 12,0 -2,54 -2,6z" /><path style="fill:#999" d="M41,375 l-1,0 -2,-6 -3,-54 12,0 -1,54 -5,6z" /></svg>