<!DOCTYPE svg PUBLIC "-//W3C//DTD SVG 20000303 Stylable//EN" "http://www.w3.org/TR/2000/03/WD-SVG-20000303/DTD/svg-20000303-stylable.dtd"[]><svg xmlns="http://www.w3.org/2000/svg" width="998px" height="537px" viewBox="0 0 999 509"><path style="fill:#cc3" d="M810,493 l-754,16 -16,-16 -17,-34 -12,-48 -7,-58 -4,-64 0,-67 4,-64 7,-61 12,-46 17,-33 16,-18 754,18 0,475z" /><path style="fill:#d1d138" d="M810,465 l-761,16 -16,-16 -12,-30 -10,-42 -7,-52 -4,-56 0,-60 4,-57 7,-52 10,-42 12,-30 16,-14 761,14 0,421z" /><path style="fill:#d9d940" d="M810,437 l-768,14 -12,-14 -11,-26 -10,-36 -5,-44 -4,-50 0,-52 4,-50 5,-46 8,-36 13,-26 12,-14 768,14 0,366z" /><path style="fill:#dede45" d="M810,411 l-775,10 -12,-10 -8,-22 -8,-32 -3,-38 -4,-42 0,-44 4,-44 3,-37 8,-31 8,-22 12,-12 775,12 0,312z" /><path style="fill:#e5e54c" d="M810,383 l-782,10 -9,-10 -8,-18 -5,-26 -4,-32 -2,-34 0,-36 2,-35 4,-32 5,-27 8,-18 9,-7 782,7 0,258z" /><path style="fill:#ebeb52" d="M810,355 l-789,8 -8,-8 -4,-14 -3,-20 -4,-23 -2,-29 0,-28 2,-28 4,-26 3,-19 4,-14 8,-8 789,8 0,201z" /><path style="fill:#f2f259" d="M810,329 l-797,4 -4,-4 -3,-10 -2,-16 -4,-38 0,-22 4,-37 2,-15 3,-10 4,-6 797,6 0,148z" /><path style="fill:#f7f75e" d="M810,301 l-803,4 -3,-9 -4,-35 0,-13 4,-35 3,-9 803,4 0,93z" /><path style="fill:#ff6" d="M810,275 l-810,0 0,-42 810,2 0,40z" /><path style="fill:none;stroke:#4c4c4c;stroke-width:2" d="M810,493 l-754,16 -16,-16 -17,-34 -12,-48 -7,-58 -4,-64 0,-67 4,-64 7,-61 12,-46 17,-33 16,-18 754,18 0,475" /><path style="fill:#bfbf26" d="M486,179 l-59,11 -14,8 -9,15 0,16 9,15 14,8 338,65 0,-170 -279,32z" /><path style="fill:#262626" d="M765,147 l21,0 21,-22 0,-125 105,19 44,106 20,22 23,106 -43,22 -44,64 0,20 44,44 -63,106 -86,0 0,-150 -21,-42 -21,0 0,-170z" /><path style="fill:#000" d="M765,147 l21,0 21,-22 0,-125 105,19 44,106 20,22 23,100 -16,-14 -123,-38 -95,-22 0,-26z" /><path style="fill:#000" d="M786,317 l42,0 11,10 54,28 -13,16 17,48 -90,0 0,-60 -21,-42z" /><path style="fill:#666" d="M828,317 l32,-122 37,-22 15,-32 71,106 -7,16 -20,12 -47,58 -23,16 -58,-32z" /><path style="fill:#666" d="M912,339 l-19,16 -13,16 17,48 48,0 11,-16 -44,-44 0,-20z" /><path style="fill:none;stroke:#666;stroke-width:2" d="M912,141 l-19,-94" /><path style="fill:none;stroke:#4c4c4c;stroke-width:2" d="M765,147 l21,0 21,-22 0,-125 105,19 44,106 20,22 23,106 -43,22 -44,64 0,20 44,44 -63,106 -86,0 0,-150 -21,-42 -21,0 0,-170" /><path style="fill:none;stroke:#7f7f7f;stroke-width:2" d="M807,419 l138,0" /></svg>