<!DOCTYPE svg PUBLIC "-//W3C//DTD SVG 20000303 Stylable//EN" "http://www.w3.org/TR/2000/03/WD-SVG-20000303/DTD/svg-20000303-stylable.dtd"[]><svg xmlns="http://www.w3.org/2000/svg" width="999px" height="757px" viewBox="0 0 999 743"><path style="fill:#363" d="M105,21 l22,0 0,574 -22,0 0,-574z" /><path style="fill:#9c9" d="M105,0 l-84,0 0,147 84,0 0,-147z" /><path style="fill:#9c9" d="M829,21 l-702,0 0,594 786,0 0,-362 -84,0 0,-232z" /><path style="fill:#94c794" d="M127,443 l710,-226 76,36 0,362 -786,0 0,-172z" /><path style="fill:#8fc28f" d="M127,467 l706,-222 80,8 0,362 -786,0 0,-148z" /><path style="fill:#8abd8a" d="M127,505 l786,-250 0,360 -786,0 0,-110z" /><path style="fill:none;stroke:#4c4c4c;stroke-width:2" d="M829,21 l-702,0 0,594 786,0 0,-362 -84,0 0,-232" /><path style="fill:#8abd8a" d="M105,149 l-84,-2 0,448 84,0 0,-446z" /><path style="fill:#363" d="M999,211 l-68,0 0,234 -18,0 0,64 18,0 0,234 68,0 0,-532z" /><path style="fill:#427542" d="M999,237 l-68,0 0,212 -18,0 0,56 18,0 0,212 68,0 0,-480z" /><path style="fill:#528552" d="M999,263 l-68,0 0,188 -18,0 0,52 18,-2 0,190 68,0 0,-428z" /><path style="fill:#619461" d="M999,287 l-68,0 0,168 -18,0 0,44 18,0 0,168 68,0 0,-380z" /><path style="fill:#70a370" d="M999,313 l-68,0 0,144 -18,0 0,40 18,-2 0,146 68,0 0,-328z" /><path style="fill:#7fb27f" d="M999,339 l-68,0 0,122 -18,0 0,32 18,0 0,122 68,0 0,-276z" /><path style="fill:#8fc28f" d="M999,363 l-68,0 0,100 -18,0 0,28 18,-2 0,100 68,0 0,-226z" /><path style="fill:#9ed19e" d="M999,389 l-68,0 0,78 -18,0 0,20 18,0 0,78 68,0 0,-176z" /><path style="fill:#ade0ad" d="M999,415 l-68,0 0,54 -18,0 0,16 18,-2 0,56 68,0 0,-124z" /><path style="fill:#bdf0bd" d="M999,441 l-68,0 0,32 -18,0 0,8 18,0 0,32 68,0 0,-72z" /><path style="fill:#cfc" d="M999,467 l-68,0 0,8 -18,0 0,4 18,0 0,8 68,0 0,-20z" /><path style="fill:none;stroke:#4c4c4c;stroke-width:2" d="M999,211 l-68,0 0,234 -18,0 0,64 18,-2 0,236 68,0 0,-532" /><path style="fill:none;stroke:#4c4c4c;stroke-width:2" d="M931,509 l0,-64" /><path style="fill:#696" d="M255,83 l254,0 0,128 -254,0 0,-128z" /><path style="fill:#696" d="M531,83 l254,0 0,128 -254,0 0,-128z" /><path style="fill:#cfc" d="M531,109 l254,0 0,26 -254,0 0,-26z" /><path style="fill:#cfc" d="M255,109 l254,0 0,26 -254,0 0,-26z" /><path style="fill:#363" d="M255,135 l254,0 0,26 -254,0 0,-26z" /><path style="fill:#363" d="M531,135 l254,0 0,26 -254,0 0,-26z" /><path style="fill:#696;stroke:#4c4c4c;stroke-width:2" d="M913,253 l-84,-232 0,232 84,0z" /><path style="fill:#696" d="M191,361 l658,0 0,42 -658,0 0,-42z" /><path style="fill:none;stroke:#363;stroke-width:2" d="M233,233 l0,-170 574,0" /><path style="fill:none;stroke:#363;stroke-width:2" d="M255,211 l0,-128 254,0" /><path style="fill:none;stroke:#363;stroke-width:2" d="M531,211 l0,-128 254,0" /><path style="fill:none;stroke:#363;stroke-width:2" d="M211,275 l618,0" /><path style="fill:none;stroke:#363;stroke-width:2" d="M191,595 l0,-234 658,0" /><path style="fill:none;stroke:#cfc;stroke-width:2" d="M849,361 l0,234 -658,0" /><path style="fill:none;stroke:#cfc;stroke-width:2" d="M807,63 l0,170 -574,0" /><path style="fill:none;stroke:#cfc;stroke-width:2" d="M785,83 l0,128 -254,0" /><path style="fill:none;stroke:#cfc;stroke-width:2" d="M509,83 l0,128 -254,0" /><path style="fill:#b2e5b2" d="M679,285 l128,0 0,86 -128,0 0,-86z" /><path style="fill:#b2e5b2" d="M233,285 l128,0 0,86 -128,0 0,-86z" /><path style="fill:none;stroke:#cfc;stroke-width:2" d="M679,371 l0,-86 128,0" /><path style="fill:none;stroke:#cfc;stroke-width:2" d="M233,371 l0,-86 128,0" /><path style="fill:none;stroke:#363;stroke-width:2" d="M807,285 l0,86 -128,0" /><path style="fill:none;stroke:#363;stroke-width:2" d="M361,285 l0,86 -128,0" /><path style="fill:#363" d="M287,329 l20,0 0,10 -20,0 0,-10z" /><path style="fill:#363" d="M731,329 l22,0 0,10 -22,0 0,-10z" /><path style="fill:none;stroke:#cfc;stroke-width:2" d="M105,147 l-84,0" /><path style="fill:none;stroke:#4c4c4c;stroke-width:2" d="M37,0 l0,595" /><path style="fill:none;stroke:#4c4c4c;stroke-width:2" d="M21,0 l84,0 0,595 -84,0 0,-595" /><path style="fill:#8abd8a;stroke:#4c4c4c;stroke-width:2" d="M53,309 l-53,-2 0,298 53,0 0,-296z" /></svg>