<!DOCTYPE svg PUBLIC "-//W3C//DTD SVG 20000303 Stylable//EN" "http://www.w3.org/TR/2000/03/WD-SVG-20000303/DTD/svg-20000303-stylable.dtd"[]><svg xmlns="http://www.w3.org/2000/svg" width="999px" height="339px" viewBox="0 0 999 299"><path style="fill:#333" d="M0,285 l27,-48 45,-28 11,-30 26,-28 38,-16 18,-28 16,-21 28,-11 16,-29 18,-10 18,-24 24,-4 56,4 54,-12 68,15 22,-3 60,-2 48,2 16,1 58,-8 54,15 18,-5 50,21 64,12 21,29 35,6 27,26 28,2 24,36 11,40 -49,16 -26,-4 -37,14 -32,6 -24,24 -110,4 -68,20 -94,2 -70,24 -106,-8 -56,6 -82,-4 -92,12 -54,-6 -65,2 -34,-10z" /><path style="fill:#2e2e2e" d="M425,277 l-32,-42 10,-46 -16,-34 -18,-40 6,-24 28,-28 54,-27 38,-16 36,2 32,-5 30,-5 16,1 58,-8 54,15 18,-5 50,21 64,12 21,29 35,6 27,26 28,2 24,36 11,40 -49,16 -26,-4 -37,14 -32,6 -24,24 -110,4 -68,20 -94,2 -70,24 -64,-16z" /><path style="fill:#292929" d="M461,257 l-4,-34 -12,-34 -18,-24 6,-24 28,-28 54,-27 38,-17 36,3 60,17 -10,-26 70,9 12,-7 32,-10 32,24 36,10 34,4 28,22 29,9 29,15 28,6 16,24 14,18 -49,16 -31,-14 -48,-4 -30,30 -10,28 -110,4 -68,20 -94,2 -46,6 -52,-18z" /><path style="fill:#191919" d="M201,223 l36,-22 20,-80 4,-75 -32,125 -10,-2 -4,-40 -6,48 12,14 -20,32z" /><path style="fill:#191919" d="M135,159 l-32,40 -29,52 59,-84 2,-8z" /><path style="fill:#191919" d="M223,83 l-58,72 -52,94 108,-151 2,-15z" /><path style="fill:#191919" d="M199,173 l-32,40 -30,54 60,-86 2,-8z" /><path style="fill:#191919" d="M525,225 l-74,-54 -76,-78 144,118 6,14z" /><path style="fill:#191919" d="M549,197 l-74,-56 -76,-76 144,118 6,14z" /><path style="fill:#191919" d="M617,225 l-74,-54 -76,-78 144,118 6,14z" /><path style="fill:#191919" d="M645,161 l-42,-30 -40,-42 78,66 4,6z" /><path style="fill:#191919" d="M751,213 l-76,-56 -74,-76 142,118 8,14z" /><path style="fill:#191919" d="M705,133 l-44,-32 -42,-44 82,68 4,8z" /><path style="fill:#191919" d="M793,107 l-26,-18 -26,-26 48,40 4,4z" /><path style="fill:#191919" d="M885,157 l-44,-32 -42,-44 82,68 4,8z" /><path style="fill:none;stroke:#4c4c4c;stroke-width:2" d="M0,285 l27,-48 45,-28 11,-30 26,-28 38,-16 18,-28 16,-21 28,-11 16,-29 18,-10 18,-24 24,-4 56,4 54,-12 68,15 22,-3 60,-2 48,2 16,1 58,-8 54,15 18,-5 50,21 64,12 21,29 35,6 27,26 28,2 24,36 11,40 -49,16 -26,-4 -37,14 -32,6 -24,24 -110,4 -68,20 -94,2 -70,24 -106,-8 -56,6 -82,-4 -92,12 -54,-6 -65,2 -34,-10" /></svg>