<!DOCTYPE svg PUBLIC "-//W3C//DTD SVG 20000303 Stylable//EN" "http://www.w3.org/TR/2000/03/WD-SVG-20000303/DTD/svg-20000303-stylable.dtd"[]><svg xmlns="http://www.w3.org/2000/svg" width="923px" height="999px" viewBox="0 0 918 999"><path style="fill:#7f7f7f" d="M832,475 l-31,-30 61,-60 30,30 -60,60z" /><path style="fill:#7f7f7f" d="M832,477 l60,-62 5,2 1,4 3,4 3,2 3,4 1,4 2,4 0,4 2,4 2,4 3,4 0,4 0,4 1,4 0,6 0,4 -86,0z" /><path style="fill:#7f7f7f" d="M832,519 l0,-42 86,0 0,42 -86,0z" /><path style="fill:#7f7f7f" d="M914,735 l0,-216 -82,0 0,216 0,2 -1,4 0,2 -2,2 -3,2 -4,2 -1,0 -2,0 -70,0 0,84 70,0 10,-2 9,0 8,-2 11,-4 8,-4 7,-6 9,-6 6,-6 5,-6 6,-8 4,-8 5,-8 3,-8 2,-10 2,-10 0,-10z" /><path style="fill:#999" d="M836,473 l-31,-32 53,-54 30,32 -52,54z" /><path style="fill:#999" d="M832,477 l56,-58 4,2 2,4 3,2 1,4 3,4 1,2 2,4 3,4 1,4 0,4 2,4 0,4 2,4 0,4 0,4 0,4 -80,0z" /><path style="fill:#999" d="M836,519 l0,-42 76,0 0,42 -76,0z" /><path style="fill:#999" d="M819,827 l7,0 10,-2 9,-2 10,-4 7,-2 9,-6 6,-4 5,-6 6,-8 6,-6 4,-8 4,-8 5,-8 1,-10 2,-8 0,-10 0,-216 -74,0 0,216 0,4 0,4 -1,2 -3,4 -3,2 -3,2 -4,2 -3,0 -70,0 0,72 70,0z" /><path style="fill:#b2b2b2" d="M842,465 l-31,-30 41,-40 30,30 -40,40z" /><path style="fill:#b2b2b2" d="M832,477 l50,-52 6,6 4,4 5,8 1,6 3,6 1,6 2,8 0,8 -72,0z" /><path style="fill:#b2b2b2" d="M846,519 l0,-42 58,0 0,42 -58,0z" /><path style="fill:#b2b2b2" d="M819,819 l-70,0 0,-56 70,0 6,0 4,-2 6,-2 3,-4 3,-4 4,-4 0,-6 1,-6 0,-216 56,0 0,216 -1,8 0,8 -4,8 -3,8 -3,8 -4,6 -5,8 -5,4 -6,6 -6,4 -7,6 -7,2 -9,4 -7,2 -9,2 -7,0z" /><path style="fill:#ccc" d="M848,459 l-29,-30 27,-28 31,30 -29,28z" /><path style="fill:#ccc" d="M832,477 l45,-46 4,6 3,4 4,4 3,6 1,6 2,6 0,6 0,8 -62,0z" /><path style="fill:#ccc" d="M855,519 l0,-42 39,0 0,42 -39,0z" /><path style="fill:#ccc" d="M819,809 l7,0 6,0 9,-2 5,-4 9,-2 6,-4 6,-4 4,-6 6,-4 4,-6 3,-6 3,-6 1,-8 3,-6 1,-8 0,-8 0,-216 -37,0 0,216 0,8 -3,6 -4,6 -3,6 -7,4 -6,4 -7,2 -6,0 -70,0 0,38 70,0z" /><path style="fill:#e5e5e5" d="M852,455 l-30,-30 19,-20 30,32 -19,18z" /><path style="fill:#e5e5e5" d="M832,477 l40,-40 2,4 4,4 3,4 1,6 2,6 3,4 0,6 1,6 -56,0z" /><path style="fill:#e5e5e5" d="M862,519 l0,-42 26,0 0,42 -26,0z" /><path style="fill:#e5e5e5" d="M819,803 l-70,0 0,-24 70,0 7,-2 9,-2 7,-4 6,-6 7,-6 3,-6 3,-10 1,-8 0,-216 25,0 0,216 0,8 -3,6 -2,6 -1,6 -3,6 -4,6 -3,6 -4,4 -6,4 -4,4 -6,4 -6,2 -7,4 -6,0 -7,2 -6,0z" /><path style="fill:#fff" d="M858,449 l-29,-30 6,-8 32,30 -9,8z" /><path style="fill:#fff" d="M832,477 l35,-36 1,4 4,4 2,4 3,4 1,4 0,6 3,4 0,6 -49,0z" /><path style="fill:#fff" d="M871,519 l0,-42 10,0 0,42 -10,0z" /><path style="fill:#fff" d="M819,797 l6,-2 6,0 5,-2 6,-2 4,-2 6,-4 5,-2 4,-6 4,-4 3,-4 3,-4 3,-6 3,-6 1,-6 0,-6 0,-6 0,-216 -10,0 0,216 -1,10 -2,10 -4,8 -6,8 -9,6 -8,4 -9,4 -10,0 -70,0 0,12 70,0z" /><path style="fill:#7f7f7f" d="M375,0 l0,197 -126,0 0,-197 126,0z" /><path style="fill:#999" d="M367,0 l0,197 -110,0 0,-197 110,0z" /><path style="fill:#b2b2b2" d="M353,0 l0,197 -82,0 0,-197 82,0z" /><path style="fill:#ccc" d="M341,0 l0,197 -58,0 0,-197 58,0z" /><path style="fill:#e5e5e5" d="M331,0 l0,197 -38,0 0,-197 38,0z" /><path style="fill:#fff" d="M319,0 l0,197 -14,0 0,-197 14,0z" /><path style="fill:none;stroke:#4c4c4c;stroke-width:2" d="M375,0 l0,197 -126,0 0,-197 126,0" /><path style="fill:#7f7f7f" d="M447,135 l-84,0 0,-84 84,0 0,84z" /><path style="fill:#7f7f7f" d="M491,135 l-44,0 0,-85 44,-3 0,88z" /><path style="fill:#7f7f7f" d="M491,47 l4,3 4,0 4,0 4,0 4,1 4,0 6,2 2,2 4,2 4,3 4,1 4,2 4,2 2,2 4,4 4,2 -62,62 0,-88z" /><path style="fill:#7f7f7f" d="M521,165 l-30,-30 62,-62 30,33 -62,59z" /><path style="fill:#999" d="M447,129 l-84,0 0,-74 84,0 0,74z" /><path style="fill:#999" d="M491,129 l-44,0 0,-76 44,0 0,76z" /><path style="fill:#999" d="M491,135 l0,-82 4,0 4,0 4,2 4,0 4,2 4,0 4,3 4,0 2,1 4,2 4,2 2,2 4,3 4,1 2,5 4,1 -58,58z" /><path style="fill:#999" d="M525,161 l-30,-30 54,-54 30,30 -54,54z" /><path style="fill:#b2b2b2" d="M447,121 l-104,0 0,-56 104,0 0,56z" /><path style="fill:#b2b2b2" d="M491,119 l-44,0 0,-56 44,0 0,56z" /><path style="fill:#b2b2b2" d="M491,135 l0,-72 8,0 6,0 8,2 6,2 6,4 6,5 6,4 6,3 -52,52z" /><path style="fill:#b2b2b2" d="M531,155 l-30,-30 42,-42 30,33 -42,39z" /><path style="fill:#ccc" d="M447,111 l-114,0 0,-38 114,0 0,38z" /><path style="fill:#ccc" d="M491,111 l-44,0 0,-40 44,0 0,40z" /><path style="fill:#ccc" d="M491,135 l0,-64 6,2 6,0 6,0 6,4 6,3 4,3 6,3 4,5 -44,44z" /><path style="fill:#ccc" d="M539,149 l-32,-30 28,-28 32,30 -28,28z" /><path style="fill:#e5e5e5" d="M447,106 l-124,0 0,-25 124,0 0,25z" /><path style="fill:#e5e5e5" d="M491,106 l-42,0 -2,-26 44,0 0,26z" /><path style="fill:#e5e5e5" d="M491,135 l0,-55 6,0 4,0 6,1 6,2 4,3 4,3 6,2 4,5 -40,39z" /><path style="fill:#e5e5e5" d="M543,143 l-30,-30 18,-17 30,29 -18,18z" /><path style="fill:#fff" d="M447,97 l-136,0 0,-10 136,0 0,10z" /><path style="fill:#fff" d="M491,97 l-44,0 0,-10 44,0 0,10z" /><path style="fill:#fff" d="M491,135 l0,-48 4,0 6,0 4,2 4,0 4,2 4,5 4,1 4,4 -34,34z" /><path style="fill:#fff" d="M549,139 l-32,-32 8,-6 30,30 -6,8z" /><path style="fill:#fafafa" d="M489,873 l136,0 0,126 -136,0 0,-126z" /><path style="fill:#fafafa" d="M0,873 l135,0 0,126 -135,0 0,-126z" /><path style="fill:#f5f5f5" d="M489,937 l136,-32 0,94 -136,0 0,-62z" /><path style="fill:#f5f5f5" d="M0,937 l135,-32 0,94 -135,0 0,-62z" /><path style="fill:#f0f0f0" d="M0,947 l135,-32 0,84 -135,0 0,-52z" /><path style="fill:#f0f0f0" d="M489,947 l136,-32 0,84 -136,0 0,-52z" /><path style="fill:#ebebeb" d="M489,957 l136,-32 0,74 -136,0 0,-42z" /><path style="fill:#ebebeb" d="M0,957 l135,-32 0,74 -135,0 0,-42z" /><path style="fill:#333;stroke:#4c4c4c;stroke-width:2" d="M21,873 l40,-124 500,0 42,124 -30,0 -64,-72 -396,0 -62,72 -30,0z" /><path style="fill:#7f7f7f" d="M499,207 l-12,-8 -26,-4 -34,-4 -42,-4 -48,0 -50,0 -48,0 -42,4 -34,4 -26,4 -12,8 0,354 -22,22 0,166 418,0 0,-166 -22,-22 0,-354z" /><path style="fill:#8f8f8f" d="M479,207 l-12,-8 -22,-4 -30,-4 -38,-4 -42,0 -44,0 -44,0 -36,4 -32,4 -22,4 -12,8 0,354 -18,20 0,168 370,0 0,-168 -18,-20 0,-354z" /><path style="fill:#9e9e9e" d="M457,207 l-10,-8 -18,-4 -28,-4 -32,-4 -38,0 -38,0 -36,0 -34,4 -26,4 -20,4 -10,8 0,354 -16,20 0,168 322,0 0,-168 -16,-20 0,-354z" /><path style="fill:#b0b0b0" d="M437,207 l-10,-8 -16,-4 -22,-4 -28,-4 -32,0 -34,0 -30,0 -30,4 -22,4 -16,4 -10,8 0,354 -12,20 0,168 276,0 0,-168 -14,-20 0,-354z" /><path style="fill:#bfbfbf" d="M415,207 l-6,-8 -14,-4 -20,-4 -22,-4 -28,0 -26,0 -26,0 -24,4 -20,4 -14,4 -6,8 0,354 -12,20 0,168 230,0 0,-168 -12,-20 0,-354z" /><path style="fill:#cfcfcf" d="M395,207 l-6,-8 -12,-4 -14,-4 -20,-4 -20,0 -22,0 -20,0 -20,4 -14,4 -12,4 -4,8 0,354 -10,20 0,168 182,0 0,-168 -8,-20 0,-354z" /><path style="fill:#dedede" d="M373,207 l-4,-8 -8,-4 -12,-4 -14,-4 -14,0 -16,0 -16,0 -14,4 -12,4 -8,4 -4,8 0,354 -6,20 0,168 134,0 0,-168 -6,-20 0,-354z" /><path style="fill:#f0f0f0" d="M353,207 l-4,-8 -4,-4 -8,-4 -10,-4 -10,0 -10,0 -10,0 -10,4 -6,4 -6,4 -2,8 0,354 -6,20 0,168 90,0 0,-168 -4,-20 0,-354z" /><path style="fill:#fff" d="M331,207 l-2,-8 -2,-4 -4,-4 -4,-4 -4,0 -6,0 -4,0 -4,4 -4,4 -2,4 -2,8 0,354 -2,22 0,166 42,0 0,-166 -2,-22 0,-354z" /><path style="fill:none;stroke:#4c4c4c;stroke-width:2" d="M499,207 l-12,-8 -26,-4 -34,-4 -42,-4 -48,0 -50,0 -48,0 -42,4 -34,4 -26,4 -12,8 0,354 -22,22 0,166 418,0 0,-166 -22,-22 0,-354" /><path style="fill:none;stroke:#7f7f7f;stroke-width:2" d="M125,227 l374,0" /><path style="fill:none;stroke:#7f7f7f;stroke-width:2" d="M125,561 l374,0" /><path style="fill:none;stroke:#7f7f7f;stroke-width:2" d="M103,583 l418,0" /><path style="fill:none;stroke:#7f7f7f;stroke-width:2" d="M395,561 l0,-334" /><path style="fill:none;stroke:#7f7f7f;stroke-width:2" d="M415,227 l0,-20 -104,-20" /><path style="fill:none;stroke:#7f7f7f;stroke-width:2" d="M447,135 l0,-84" /><path style="fill:none;stroke:#7f7f7f;stroke-width:2" d="M249,10 l126,0" /><path style="fill:#b2b2b2;stroke:#4c4c4c;stroke-width:2" d="M21,873 l40,-124 500,0 42,124 -20,0 -62,-82 -418,0 -62,82 -20,0z" /><path style="fill:none;stroke:#4c4c4c;stroke-width:2" d="M489,873 l136,0 0,126 -136,0 0,-126" /><path style="fill:none;stroke:#4c4c4c;stroke-width:2" d="M0,873 l135,0 0,126 -135,0 0,-126" /><path style="fill:#7f7f7f" d="M805,447 l-296,-294 60,-60 293,296 -57,58z" /><path style="fill:#999" d="M809,443 l-296,-294 52,-52 293,294 -49,52z" /><path style="fill:#b2b2b2" d="M815,437 l-296,-294 40,-40 293,296 -37,38z" /><path style="fill:#ccc" d="M821,431 l-296,-294 28,-28 293,296 -25,26z" /><path style="fill:#e5e5e5" d="M825,427 l-294,-296 16,-15 295,293 -17,18z" /><path style="fill:#fff" d="M831,421 l-296,-294 8,-8 293,296 -5,6z" /><path style="fill:none;stroke:#4c4c4c;stroke-width:2" d="M569,93 l293,296" /><path style="fill:none;stroke:#4c4c4c;stroke-width:2" d="M805,447 l-296,-294" /><path style="fill:#e5e5e5" d="M832,477 l26,-28 3,4 1,2 3,4 2,2 1,4 0,4 0,4 3,4 -39,0z" /><path style="fill:#ccc" d="M832,477 l23,-22 2,2 0,2 1,2 3,4 0,2 1,4 0,2 0,4 -30,0z" /><path style="fill:#b2b2b2" d="M832,477 l16,-18 3,2 0,2 1,2 3,2 0,2 0,2 2,2 0,4 -25,0z" /><path style="fill:#999" d="M832,477 l10,-12 3,4 0,2 1,2 0,4 -14,0z" /><path style="fill:#7f7f7f" d="M832,477 l4,-4 0,2 0,2 -4,0z" /><path style="fill:#b2b2b2;stroke:#4c4c4c;stroke-width:2" d="M780,999 l-145,0 0,-22 145,0 0,22z" /><path style="fill:#e5e5e5" d="M491,135 l0,-38 4,0 4,0 4,2 2,0 4,2 4,2 2,3 2,3 -26,26z" /><path style="fill:#ccc" d="M491,135 l0,-29 2,0 4,0 2,0 4,1 2,0 4,2 2,2 2,2 -22,22z" /><path style="fill:#b2b2b2" d="M491,135 l0,-24 2,0 2,0 2,2 2,0 4,0 2,3 2,1 0,2 -16,16z" /><path style="fill:#999" d="M491,135 l0,-14 2,0 4,0 2,2 2,2 -10,10z" /><path style="fill:#7f7f7f" d="M491,135 l0,-6 2,0 2,2 -4,4z" /><path style="fill:none;stroke:#4c4c4c;stroke-width:2" d="M375,51 l72,0" /><path style="fill:none;stroke:#4c4c4c;stroke-width:2" d="M375,135 l72,0" /><path style="fill:none;stroke:#4c4c4c;stroke-width:2" d="M491,47 l-44,3" /><path style="fill:none;stroke:#4c4c4c;stroke-width:2" d="M491,135 l30,30" /><path style="fill:none;stroke:#4c4c4c;stroke-width:2" d="M583,106 l-30,-33" /><path style="fill:none;stroke:#4c4c4c;stroke-width:2" d="M491,47 l4,3 4,0 4,0 4,0 4,1 4,0 6,2 2,2 4,2 4,3 4,1 4,2 4,2 2,2 4,4 4,2" /><path style="fill:none;stroke:#4c4c4c;stroke-width:2" d="M447,135 l44,0" /><path style="fill:none;stroke:#4c4c4c;stroke-width:2" d="M832,519 l0,216 0,2 -1,4 0,2 -2,2 -3,2 -4,2 -1,0 -2,0 -70,0" /><path style="fill:none;stroke:#4c4c4c;stroke-width:2" d="M749,833 l70,0 10,-2 9,0 8,-2 11,-4 8,-4 7,-6 9,-6 6,-6 5,-6 6,-8 4,-8 5,-8 3,-8 2,-10 2,-10 0,-10 0,-216" /><path style="fill:none;stroke:#4c4c4c;stroke-width:2" d="M892,415 l-30,-30" /><path style="fill:none;stroke:#4c4c4c;stroke-width:2" d="M832,477 l0,42" /><path style="fill:none;stroke:#4c4c4c;stroke-width:2" d="M918,519 l0,-42" /><path style="fill:none;stroke:#4c4c4c;stroke-width:2" d="M892,415 l5,2 1,4 3,4 3,2 3,4 1,4 2,4 0,4 2,4 2,4 3,4 0,4 0,4 1,4 0,6 0,4" /><path style="fill:none;stroke:#4c4c4c;stroke-width:2" d="M801,445 l31,30" /><path style="fill:#7f7f7f" d="M770,957 l-125,0 0,-334 125,0 0,334z" /><path style="fill:#999" d="M770,935 l-125,0 0,-292 125,0 0,292z" /><path style="fill:#b2b2b2" d="M770,902 l-125,0 0,-223 125,0 0,223z" /><path style="fill:#ccc" d="M770,867 l-125,0 0,-152 125,0 0,152z" /><path style="fill:#e5e5e5" d="M770,839 l-125,0 0,-98 125,0 0,98z" /><path style="fill:#fff" d="M770,811 l-125,0 0,-40 125,0 0,40z" /><path style="fill:none;stroke:#4c4c4c;stroke-width:2" d="M770,957 l-125,0 0,-334 125,0 0,334" /><path style="fill:#7f7f7f;stroke:#4c4c4c;stroke-width:2" d="M655,977 l22,-104 10,84 42,0 10,-84 20,104 -104,0z" /><path style="fill:#7f7f7f;stroke:#4c4c4c;stroke-width:2" d="M177,529 l-6,-10 -6,-14 0,-138 6,-12 6,-10 12,-8 12,-4 14,0 12,4 10,8 8,10 4,12 0,138 -4,14 -8,10 -10,8 -12,4 -14,0 -12,-4 -12,-8z" /><path style="fill:#b2b2b2;stroke:#4c4c4c;stroke-width:2" d="M175,501 l-6,-8 -4,-10 0,-104 4,-8 6,-8 8,-6 10,-4 10,0 8,4 8,6 6,8 4,8 0,104 -4,10 -6,8 -8,6 -8,2 -10,0 -10,-2 -8,-6z" /><path style="fill:none;stroke:#fff;stroke-width:2" d="M405,509 l0,-84 62,0" /><path style="fill:none;stroke:#4c4c4c;stroke-width:2" d="M405,509 l62,0 0,-84" /></svg>