<!DOCTYPE svg PUBLIC "-//W3C//DTD SVG 20000303 Stylable//EN" "http://www.w3.org/TR/2000/03/WD-SVG-20000303/DTD/svg-20000303-stylable.dtd"[]><svg xmlns="http://www.w3.org/2000/svg" width="999px" height="999px" viewBox="0 0 999 999"><path style="fill:#4c4c4c;stroke:#4c4c4c;stroke-width:2" d="M87,169 l21,-36 72,-20 72,0 41,-31 21,-42 77,-10 36,-26 108,11 57,46 25,-10 73,0 87,20 46,52 31,-10 73,41 0,15 -840,0z" /><path style="fill:#000" d="M746,169 l-51,-15 41,-31 -31,-16 36,-15 -10,15 41,-10 51,26 -56,-10 -31,31 10,25z" /><path style="fill:#000" d="M592,66 l-26,36 -62,5 26,31 31,-25 72,25 36,-31 -46,11 -16,-31 -20,20 5,-41z" /><path style="fill:#000" d="M442,113 l-31,56 21,0 47,-31 30,31 -10,-62 -57,6z" /><path style="fill:#000" d="M314,40 l108,21 67,46 20,-56 -41,15 -77,-36 -77,10z" /><path style="fill:#000" d="M293,82 l5,41 72,-16 26,31 -36,-15 -52,41 -36,-15 16,-16 5,-51z" /><path style="fill:#000" d="M180,113 l25,20 -36,36 73,0 -37,-10 6,-31 -31,-15z" /><path style="fill:#333" d="M252,829 l0,41 494,0 0,-41 -494,0z" /><path style="fill:#7f7f7f" d="M46,211 l41,576 41,42 742,0 41,-42 41,-576 42,0 0,-42 -990,0 0,42 42,0z" /><path style="fill:#ccc;stroke:#4c4c4c;stroke-width:2" d="M848,829 l0,41 -102,0 -41,-41 143,0z" /><path style="fill:#ccc;stroke:#4c4c4c;stroke-width:2" d="M149,829 l0,41 103,0 41,-41 -144,0z" /><path style="fill:#666" d="M82,705 l20,62 21,20 129,0 41,-453 41,453 124,0 41,-453 41,453 124,0 41,-453 41,453 124,0 26,-20 20,-62 -5,82 -41,42 -742,0 -41,-42 -5,-82z" /><path style="fill:#666" d="M46,211 l20,288 62,-247 742,0 62,247 20,-288 -906,0z" /><circle style="fill:#7f7f7f;stroke:#4c4c4c;stroke-width:2" cx="798" cy="921" r="72" /><circle style="fill:#7f7f7f;stroke:#4c4c4c;stroke-width:2" cx="200" cy="921" r="72" /><circle style="fill:#4c4c4c" cx="797" cy="921" r="41" /><circle style="fill:#4c4c4c" cx="200" cy="921" r="41" /><path style="fill:none;stroke:#ccc;stroke-width:2" d="M293,334 l41,453" /><path style="fill:none;stroke:#ccc;stroke-width:2" d="M499,334 l41,453" /><path style="fill:none;stroke:#ccc;stroke-width:2" d="M705,334 l41,453" /><path style="fill:none;stroke:#4c4c4c;stroke-width:2" d="M46,211 l906,0" /><path style="fill:none;stroke:#4c4c4c;stroke-width:2" d="M293,334 l-41,453" /><path style="fill:none;stroke:#4c4c4c;stroke-width:2" d="M499,334 l-41,453" /><path style="fill:none;stroke:#4c4c4c;stroke-width:2" d="M705,334 l-41,453" /><path style="fill:none;stroke:#4c4c4c;stroke-width:2" d="M46,211 l41,576 41,42 742,0 41,-42 41,-576 42,0 0,-42 -990,0 0,42 42,0" /><path style="fill:none;stroke:#fff;stroke-width:2" d="M4,211 l0,-42 990,0" /></svg>