<!DOCTYPE svg PUBLIC "-//W3C//DTD SVG 20000303 Stylable//EN" "http://www.w3.org/TR/2000/03/WD-SVG-20000303/DTD/svg-20000303-stylable.dtd"[]><svg xmlns="http://www.w3.org/2000/svg" width="998px" height="637px" viewBox="0 0 999 615"><path style="fill:none;stroke:#b2b2b2;stroke-width:2" d="M41,45 l28,45 54,1 30,46 52,2 30,44 52,4 30,44 52,4 30,44 54,4 28,44 54,2 30,46 52,2 30,44 52,4 30,44 54,4 28,44 54,4 30,44 52,2" /><path style="fill:#ccc" d="M11,0 l986,569 -12,20 -985,-567 11,-22z" /><path style="fill:#d1d1d1" d="M13,1 l986,570 -11,18 -987,-567 12,-21z" /><path style="fill:#d9d9d9" d="M13,4 l986,569 -11,16 -984,-570 9,-15z" /><path style="fill:#dedede" d="M11,5 l986,568 -9,14 -984,-570 7,-12z" /><path style="fill:#e5e5e5" d="M11,5 l986,570 -6,12 -986,-570 6,-12z" /><path style="fill:#ebebeb" d="M10,7 l987,568 -6,10 -986,-569 5,-9z" /><path style="fill:#f2f2f2" d="M10,7 l984,570 -3,6 -986,-567 5,-9z" /><path style="fill:#f7f7f7" d="M10,10 l984,569 -1,4 -986,-570 3,-3z" /><path style="fill:#fff" d="M5,10 l986,569 0,2 -986,-570 0,-1z" /><path style="fill:none;stroke:#4c4c4c;stroke-width:2" d="M11,0 l986,569 -12,20 -985,-567 11,-22" /><path style="fill:none;stroke:#4c4c4c;stroke-width:2" d="M0,22 l7,31 950,548 31,-10 -53,-2 -30,-44 -52,-4 -30,-44 -52,-4 -30,-44 -54,-4 -28,-44 -54,-4 -28,-44 -54,-2 -30,-44 -52,-4 -30,-44 -52,-4 -30,-44 -54,-4 -28,-44 -54,-4 -30,-44 -52,-2 -30,-46 -52,-2 -29,-43" /><path style="fill:#e5e5e5;stroke:#4c4c4c;stroke-width:2" d="M311,211 l8,0 0,404 -8,0 0,-404z" /><path style="fill:#e5e5e5;stroke:#4c4c4c;stroke-width:2" d="M365,211 l10,0 0,404 -10,0 0,-404z" /><path style="fill:#e5e5e5;stroke:#4c4c4c;stroke-width:2" d="M365,247 l0,8 -46,0 0,-8 46,0z" /><path style="fill:#e5e5e5;stroke:#4c4c4c;stroke-width:2" d="M365,357 l0,10 -46,0 0,-10 46,0z" /><path style="fill:#e5e5e5;stroke:#4c4c4c;stroke-width:2" d="M365,467 l0,10 -46,0 0,-10 46,0z" /><path style="fill:#e5e5e5;stroke:#4c4c4c;stroke-width:2" d="M365,579 l0,8 -46,0 0,-8 46,0z" /><path style="fill:none;stroke:#4c4c4c;stroke-width:2" d="M365,579 l-46,-102 0,-10 46,-100 0,-10 -46,-102 46,0 -46,102 0,10 46,100 0,10 -46,102" /></svg>