<!DOCTYPE svg PUBLIC "-//W3C//DTD SVG 20000303 Stylable//EN" "http://www.w3.org/TR/2000/03/WD-SVG-20000303/DTD/svg-20000303-stylable.dtd"[]><svg xmlns="http://www.w3.org/2000/svg" width="999px" height="999px" viewBox="0 0 999 999"><path style="fill:#660;stroke:#4c4c4c;stroke-width:2" d="M107,555 l-4,6 -38,-10 -4,6 22,24 40,42 -16,-68z" /><path style="fill:#660;stroke:#4c4c4c;stroke-width:2" d="M135,655 l-2,8 -40,-2 -2,6 28,20 48,28 -32,-60z" /><path style="fill:#660;stroke:#4c4c4c;stroke-width:2" d="M187,745 l0,6 -38,10 0,6 30,12 56,14 -48,-48z" /><path style="fill:#660;stroke:#4c4c4c;stroke-width:2" d="M261,817 l2,6 -34,20 0,6 34,2 58,2 -60,-36z" /><path style="fill:#660;stroke:#4c4c4c;stroke-width:2" d="M351,867 l4,6 -28,28 2,6 34,-6 56,-14 -68,-20z" /><path style="fill:#660;stroke:#4c4c4c;stroke-width:2" d="M451,893 l6,4 -20,34 4,6 30,-14 50,-30 -70,0z" /><path style="fill:#660;stroke:#4c4c4c;stroke-width:2" d="M555,891 l6,4 -10,38 6,4 24,-22 42,-40 -68,16z" /><path style="fill:#660;stroke:#4c4c4c;stroke-width:2" d="M655,863 l8,2 -2,40 8,2 18,-26 28,-50 -60,32z" /><path style="fill:#660;stroke:#4c4c4c;stroke-width:2" d="M745,811 l6,0 10,38 6,0 12,-30 14,-56 -48,48z" /><path style="fill:#660;stroke:#4c4c4c;stroke-width:2" d="M817,737 l6,-2 20,34 6,0 2,-34 2,-58 -36,60z" /><path style="fill:#660;stroke:#4c4c4c;stroke-width:2" d="M867,647 l6,-4 28,28 6,-2 -6,-34 -16,-56 -18,68z" /><path style="fill:#660;stroke:#4c4c4c;stroke-width:2" d="M893,547 l4,-6 34,20 6,-4 -14,-30 -28,-50 -2,70z" /><path style="fill:#660;stroke:#4c4c4c;stroke-width:2" d="M891,443 l4,-6 38,10 4,-6 -22,-24 -40,-42 16,68z" /><path style="fill:#660;stroke:#4c4c4c;stroke-width:2" d="M863,343 l2,-8 40,2 2,-6 -28,-20 -48,-28 32,60z" /><path style="fill:#660;stroke:#4c4c4c;stroke-width:2" d="M811,253 l0,-6 38,-10 0,-6 -30,-12 -56,-14 48,48z" /><path style="fill:#660;stroke:#4c4c4c;stroke-width:2" d="M737,181 l-2,-6 34,-20 0,-6 -34,-2 -58,-2 60,36z" /><path style="fill:#660;stroke:#4c4c4c;stroke-width:2" d="M647,131 l-4,-6 28,-28 -2,-6 -34,6 -56,14 68,20z" /><path style="fill:#660;stroke:#4c4c4c;stroke-width:2" d="M547,105 l-6,-4 20,-34 -4,-6 -30,14 -50,30 70,0z" /><path style="fill:#660;stroke:#4c4c4c;stroke-width:2" d="M443,107 l-6,-4 10,-38 -6,-4 -24,22 -42,40 68,-16z" /><path style="fill:#660;stroke:#4c4c4c;stroke-width:2" d="M343,135 l-8,-2 2,-40 -6,-2 -20,28 -28,48 60,-32z" /><path style="fill:#660;stroke:#4c4c4c;stroke-width:2" d="M253,187 l-6,0 -10,-38 -6,0 -12,30 -14,56 48,-48z" /><path style="fill:#660;stroke:#4c4c4c;stroke-width:2" d="M181,261 l-6,2 -20,-34 -6,0 -2,34 0,58 34,-60z" /><path style="fill:#660;stroke:#4c4c4c;stroke-width:2" d="M131,351 l-6,4 -28,-28 -6,2 6,34 16,56 18,-68z" /><path style="fill:#660;stroke:#4c4c4c;stroke-width:2" d="M105,451 l-4,6 -34,-20 -6,4 14,30 28,50 2,-70z" /><path style="fill:#990;stroke:#4c4c4c;stroke-width:2" d="M91,565 l-4,8 -40,-12 -3,6 21,26 44,42 -18,-70z" /><path style="fill:#990;stroke:#4c4c4c;stroke-width:2" d="M121,669 l-2,8 -41,0 -3,6 30,20 52,28 -36,-62z" /><path style="fill:#990;stroke:#4c4c4c;stroke-width:2" d="M179,761 l0,8 -40,10 0,8 32,10 58,16 -50,-52z" /><path style="fill:#990;stroke:#4c4c4c;stroke-width:2" d="M257,835 l2,8 -36,20 2,8 34,2 60,-2 -62,-36z" /><path style="fill:#990;stroke:#4c4c4c;stroke-width:2" d="M353,887 l4,6 -30,30 4,5 34,-8 58,-15 -70,-18z" /><path style="fill:#990;stroke:#4c4c4c;stroke-width:2" d="M457,911 l6,5 -20,37 4,4 32,-16 50,-30 -72,0z" /><path style="fill:#990;stroke:#4c4c4c;stroke-width:2" d="M565,907 l8,4 -12,40 6,3 26,-21 42,-44 -70,18z" /><path style="fill:#990;stroke:#4c4c4c;stroke-width:2" d="M669,877 l8,2 0,40 8,4 18,-30 30,-52 -64,36z" /><path style="fill:#990;stroke:#4c4c4c;stroke-width:2" d="M761,819 l8,0 10,40 8,0 10,-32 16,-58 -52,50z" /><path style="fill:#990;stroke:#4c4c4c;stroke-width:2" d="M835,741 l8,-2 20,36 8,-2 2,-34 -2,-60 -36,62z" /><path style="fill:#990;stroke:#4c4c4c;stroke-width:2" d="M887,645 l6,-4 30,30 5,-4 -8,-34 -15,-58 -18,70z" /><path style="fill:#990;stroke:#4c4c4c;stroke-width:2" d="M911,541 l5,-6 37,20 5,-4 -15,-30 -32,-54 0,74z" /><path style="fill:#990;stroke:#4c4c4c;stroke-width:2" d="M907,433 l4,-8 40,12 3,-6 -21,-26 -44,-42 18,70z" /><path style="fill:#990;stroke:#4c4c4c;stroke-width:2" d="M877,329 l2,-8 41,0 3,-6 -30,-20 -52,-28 36,62z" /><path style="fill:#990;stroke:#4c4c4c;stroke-width:2" d="M819,237 l0,-8 40,-10 0,-8 -32,-10 -58,-16 50,52z" /><path style="fill:#990;stroke:#4c4c4c;stroke-width:2" d="M741,163 l-2,-8 36,-20 -2,-8 -34,-2 -60,2 62,36z" /><path style="fill:#990;stroke:#4c4c4c;stroke-width:2" d="M645,111 l-4,-6 30,-30 -4,-5 -34,8 -58,15 70,18z" /><path style="fill:#990;stroke:#4c4c4c;stroke-width:2" d="M541,87 l-6,-5 20,-37 -4,-4 -32,14 -52,32 74,0z" /><path style="fill:#990;stroke:#4c4c4c;stroke-width:2" d="M433,91 l-8,-4 12,-40 -6,-3 -26,21 -42,44 70,-18z" /><path style="fill:#990;stroke:#4c4c4c;stroke-width:2" d="M329,121 l-8,-2 0,-41 -6,-3 -20,30 -28,52 62,-36z" /><path style="fill:#990;stroke:#4c4c4c;stroke-width:2" d="M237,179 l-8,0 -10,-40 -8,0 -10,32 -16,58 52,-50z" /><path style="fill:#990;stroke:#4c4c4c;stroke-width:2" d="M163,257 l-8,2 -20,-36 -8,2 -2,34 2,60 36,-62z" /><path style="fill:#990;stroke:#4c4c4c;stroke-width:2" d="M111,353 l-6,4 -30,-30 -5,4 8,34 15,58 18,-70z" /><path style="fill:#990;stroke:#4c4c4c;stroke-width:2" d="M87,457 l-5,6 -37,-20 -5,4 15,30 32,54 0,-74z" /><path style="fill:#7f7f7f" d="M515,661 l4,8 -4,10 -12,0 -4,-10 4,-8 12,0z" /><path style="fill:#7f7f7f" d="M483,337 l-4,-8 4,-10 12,0 4,10 -4,8 -12,0z" /><path style="fill:#7f7f7f" d="M631,405 l6,-10 10,0 6,10 -6,8 -10,0 -6,-8z" /><path style="fill:#7f7f7f" d="M367,593 l-6,10 -10,0 -6,-10 6,-8 10,0 6,8z" /><path style="fill:#7f7f7f" d="M351,431 l-10,0 -6,-8 6,-10 10,0 4,10 -4,8z" /><path style="fill:#7f7f7f" d="M647,567 l10,0 6,8 -6,10 -10,0 -4,-10 4,-8z" /><path style="fill:#cc3;stroke:#4c4c4c;stroke-width:2" d="M251,835 l-66,6 -6,-6 -66,-16 0,-14 66,-14 6,-8 66,-6 0,58z" /><path style="fill:#cc3;stroke:#4c4c4c;stroke-width:2" d="M347,887 l-62,24 -8,-6 -68,3 -4,-13 60,-32 4,-8 62,-24 16,56z" /><path style="fill:#cc3;stroke:#4c4c4c;stroke-width:2" d="M451,912 l-52,41 -10,-4 -64,20 -8,-12 50,-46 2,-10 54,-38 28,49z" /><path style="fill:#cc3;stroke:#4c4c4c;stroke-width:2" d="M561,911 l-42,51 -10,0 -56,37 -10,-10 36,-56 0,-13 40,-49 42,40z" /><path style="fill:#cc3;stroke:#4c4c4c;stroke-width:2" d="M665,881 l-26,60 -10,4 -46,49 -12,-8 20,-63 -2,-11 26,-59 50,28z" /><path style="fill:#cc3;stroke:#4c4c4c;stroke-width:2" d="M759,825 l-10,66 -10,4 -30,59 -14,-3 2,-66 -4,-10 10,-64 56,14z" /><path style="fill:#cc3;stroke:#4c4c4c;stroke-width:2" d="M835,747 l6,66 -6,6 -16,66 -14,0 -14,-66 -8,-6 -6,-66 58,0z" /><path style="fill:#cc3;stroke:#4c4c4c;stroke-width:2" d="M887,651 l24,62 -6,8 3,68 -13,4 -32,-60 -8,-4 -24,-62 56,-16z" /><path style="fill:#cc3;stroke:#4c4c4c;stroke-width:2" d="M912,547 l41,52 -4,10 20,64 -12,8 -46,-50 -10,-2 -38,-54 49,-28z" /><path style="fill:#cc3;stroke:#4c4c4c;stroke-width:2" d="M911,437 l51,42 0,10 37,56 -10,10 -56,-36 -13,0 -49,-40 40,-42z" /><path style="fill:#cc3;stroke:#4c4c4c;stroke-width:2" d="M881,333 l60,26 4,10 49,46 -8,12 -63,-20 -11,2 -59,-26 28,-50z" /><path style="fill:#cc3;stroke:#4c4c4c;stroke-width:2" d="M825,239 l66,10 4,10 59,30 -3,14 -66,-2 -10,4 -64,-10 14,-56z" /><path style="fill:#cc3;stroke:#4c4c4c;stroke-width:2" d="M747,163 l66,-6 6,6 66,16 0,14 -66,14 -6,8 -66,6 0,-58z" /><path style="fill:#cc3;stroke:#4c4c4c;stroke-width:2" d="M651,111 l62,-24 8,6 68,-3 4,13 -60,32 -4,8 -62,24 -16,-56z" /><path style="fill:#cc3;stroke:#4c4c4c;stroke-width:2" d="M547,86 l52,-41 10,4 64,-20 8,12 -50,46 -2,10 -54,38 -28,-49z" /><path style="fill:#cc3;stroke:#4c4c4c;stroke-width:2" d="M437,87 l42,-51 10,0 56,-36 10,9 -36,56 0,13 -40,49 -42,-40z" /><path style="fill:#cc3;stroke:#4c4c4c;stroke-width:2" d="M333,117 l26,-60 10,-4 46,-49 12,8 -20,63 2,11 -26,59 -50,-28z" /><path style="fill:#cc3;stroke:#4c4c4c;stroke-width:2" d="M239,173 l10,-66 10,-4 30,-59 14,3 -2,66 4,10 -10,64 -56,-14z" /><path style="fill:#cc3;stroke:#4c4c4c;stroke-width:2" d="M163,251 l-6,-66 6,-6 16,-66 14,0 14,66 8,6 8,66 -60,0z" /><path style="fill:#cc3;stroke:#4c4c4c;stroke-width:2" d="M111,347 l-24,-62 6,-8 -3,-68 13,-4 32,60 8,4 24,62 -56,16z" /><path style="fill:#cc3;stroke:#4c4c4c;stroke-width:2" d="M86,451 l-41,-52 4,-10 -20,-64 12,-8 46,50 10,2 38,54 -49,28z" /><path style="fill:#cc3;stroke:#4c4c4c;stroke-width:2" d="M87,561 l-51,-42 0,-10 -36,-56 9,-10 56,36 13,0 49,40 -40,42z" /><path style="fill:#cc3;stroke:#4c4c4c;stroke-width:2" d="M117,665 l-60,-26 -4,-10 -49,-46 8,-12 63,20 11,-2 59,26 -28,50z" /><path style="fill:#cc3;stroke:#4c4c4c;stroke-width:2" d="M173,759 l-66,-10 -4,-10 -59,-30 3,-14 66,2 10,-4 64,10 -14,56z" /><path style="fill:#cc3" d="M657,883 l-104,28 -108,0 -104,-28 -94,-54 -78,-76 -54,-94 -28,-106 0,-108 28,-106 54,-94 76,-76 94,-54 106,-28 108,0 106,28 94,54 76,78 54,92 28,106 0,108 -28,104 -54,96 -78,76 -94,54z" /><path style="fill:#b2b219" d="M437,87 l20,82 42,0 0,-82 -62,0z" /><path style="fill:#b2b219" d="M333,117 l40,74 40,-10 -20,-80 -60,16z" /><path style="fill:#b2b219" d="M239,173 l60,60 36,-20 -42,-72 -54,32z" /><path style="fill:#b2b219" d="M163,251 l74,44 28,-30 -58,-58 -44,44z" /><path style="fill:#b2b219" d="M111,347 l82,22 20,-34 -72,-42 -30,54z" /><path style="fill:#b2b219" d="M86,451 l83,2 12,-40 -80,-20 -15,58z" /><path style="fill:#b2b219" d="M87,561 l82,-20 0,-42 -82,0 0,62z" /><path style="fill:#b2b219" d="M117,665 l74,-42 -10,-38 -80,20 16,60z" /><path style="fill:#b2b219" d="M173,759 l60,-60 -20,-36 -72,42 32,54z" /><path style="fill:#b2b219" d="M251,835 l44,-74 -30,-28 -58,58 44,44z" /><path style="fill:#b2b219" d="M347,887 l22,-82 -34,-20 -42,72 54,30z" /><path style="fill:#b2b219" d="M451,912 l2,-83 -40,-12 -20,80 58,15z" /><path style="fill:#b2b219" d="M561,911 l-20,-82 -42,0 0,82 62,0z" /><path style="fill:#b2b219" d="M665,881 l-42,-74 -38,10 20,80 60,-16z" /><path style="fill:#b2b219" d="M759,825 l-60,-60 -36,20 42,72 54,-32z" /><path style="fill:#b2b219" d="M835,747 l-74,-44 -28,30 58,58 44,-44z" /><path style="fill:#b2b219" d="M887,651 l-82,-22 -20,34 72,42 30,-54z" /><path style="fill:#b2b219" d="M912,547 l-83,-2 -12,40 80,20 15,-58z" /><path style="fill:#b2b219" d="M911,437 l-82,20 0,42 82,0 0,-62z" /><path style="fill:#b2b219" d="M881,333 l-74,42 10,38 80,-20 -16,-60z" /><path style="fill:#b2b219" d="M825,239 l-60,60 20,36 72,-42 -32,-54z" /><path style="fill:#b2b219" d="M747,163 l-44,74 30,28 58,-58 -44,-44z" /><path style="fill:#b2b219" d="M651,111 l-22,82 34,20 42,-72 -54,-30z" /><path style="fill:#b2b219" d="M547,86 l-2,83 40,12 20,-80 -58,-15z" /><circle style="fill:#d9d940" cx="499" cy="499" r="206" /><circle style="fill:#cc3" cx="499" cy="499" r="186" /><path style="fill:none;stroke:#990;stroke-width:2" d="M385,647 l-34,-34 -24,-42 -14,-48 0,-48 14,-48 24,-42 34,-34 42,-24 48,-14 48,0 48,14 42,24" /><path style="fill:none;stroke:#ff6;stroke-width:2" d="M613,351 l34,34 24,42 14,48 0,48 -14,48 -24,42 -34,34 -42,24 -48,14 -48,0 -48,-14 -42,-24" /><path style="fill:#d9d940" d="M499,293 l20,0 0,-186 -20,0 0,186z" /><path style="fill:#d9d940" d="M321,395 l10,-16 -160,-94 -12,18 162,92z" /><path style="fill:#d9d940" d="M677,603 l-10,16 160,94 12,-18 -162,-92z" /><path style="fill:#d9d940" d="M499,705 l-20,0 0,186 20,0 0,-186z" /><path style="fill:#d9d940" d="M321,603 l-10,-18 -162,92 10,18 162,-92z" /><path style="fill:#d9d940" d="M677,395 l10,18 162,-92 -10,-18 -162,92z" /><path style="fill:none;stroke:#4c4c4c;stroke-width:2" d="M657,883 l-104,28 -108,0 -104,-28 -94,-54 -78,-76 -54,-94 -28,-106 0,-108 28,-106 54,-94 76,-76 94,-54 106,-28 108,0 106,28 94,54 76,78 54,92 28,106 0,108 -28,104 -54,96 -78,76 -94,54" /><path style="fill:#000" d="M285,911 l-8,-6 -12,-42 4,-8 16,56z" /><path style="fill:#000" d="M185,841 l-6,-6 0,-44 6,-8 0,58z" /><path style="fill:#000" d="M107,749 l-4,-10 10,-42 10,-4 -16,56z" /><path style="fill:#000" d="M639,941 l-10,4 -38,-22 -2,-11 50,29z" /><path style="fill:#000" d="M519,962 l-10,0 -30,-29 0,-13 40,42z" /><path style="fill:#000" d="M399,953 l-10,-4 -22,-38 2,-10 30,52z" /><path style="fill:#000" d="M841,813 l-6,6 -44,0 -8,-6 58,0z" /><path style="fill:#000" d="M749,891 l-10,4 -42,-10 -4,-10 56,16z" /><path style="fill:#000" d="M911,713 l-6,8 -42,12 -8,-4 56,-16z" /><path style="fill:#000" d="M962,479 l0,10 -29,30 -13,0 42,-40z" /><path style="fill:#000" d="M953,599 l-4,10 -38,22 -10,-2 52,-30z" /><path style="fill:#000" d="M891,249 l4,10 -10,42 -10,4 16,-56z" /><path style="fill:#000" d="M941,359 l4,10 -22,38 -11,2 29,-50z" /><path style="fill:#000" d="M813,157 l6,6 0,44 -6,8 0,-58z" /><path style="fill:#000" d="M713,87 l8,6 12,42 -4,8 -16,-56z" /><path style="fill:#000" d="M479,36 l10,0 30,29 0,13 -40,-42z" /><path style="fill:#000" d="M599,45 l10,4 22,38 -2,10 -30,-52z" /><path style="fill:#000" d="M359,57 l10,-4 38,22 2,11 -50,-29z" /><path style="fill:#000" d="M249,107 l10,-4 42,10 4,10 -56,-16z" /><path style="fill:#000" d="M157,185 l6,-6 44,0 8,6 -58,0z" /><path style="fill:#000" d="M87,285 l6,-8 42,-12 8,4 -56,16z" /><path style="fill:#000" d="M45,399 l4,-10 38,-22 10,2 -52,30z" /><path style="fill:#000" d="M36,519 l0,-10 29,-30 13,0 -42,40z" /><path style="fill:#000" d="M57,639 l-4,-10 22,-38 11,-2 -29,50z" /></svg>