<!DOCTYPE svg PUBLIC "-//W3C//DTD SVG 20000303 Stylable//EN" "http://www.w3.org/TR/2000/03/WD-SVG-20000303/DTD/svg-20000303-stylable.dtd"[]><svg xmlns="http://www.w3.org/2000/svg" width="371px" height="998px" viewBox="0 0 333 998"><path style="fill:#999;stroke:#4c4c4c;stroke-width:2" d="M99,25 l0,-25 134,0 0,25 -134,0z" /><path style="fill:#7f7f7f" d="M63,739 l0,-22 20,0 0,22 -20,0z" /><path style="fill:#7f7f7f" d="M249,717 l0,-20 64,0 0,20 -64,0z" /><path style="fill:#b2b2b2" d="M249,713 l0,-12 64,0 0,12 -64,0z" /><path style="fill:#b2b2b2" d="M63,735 l0,-14 20,0 0,14 -20,0z" /><path style="fill:#e5e5e5" d="M249,709 l0,-4 64,0 0,4 -64,0z" /><path style="fill:#e5e5e5" d="M63,729 l0,-4 20,0 0,4 -20,0z" /><path style="fill:#999" d="M207,976 l0,-81 22,0 0,-22 -22,0 22,-104 20,0 0,-146 -20,0 38,-264 24,-6 0,-20 -20,0 0,-168 62,0 -42,-20 0,-84 -84,-20 0,-22 -82,0 0,22 -84,20 0,84 -41,20 63,0 0,168 -22,0 0,20 24,0 38,270 -20,0 0,146 20,0 22,104 -22,0 0,22 22,0 0,81 10,15 20,7 22,0 20,-7 10,-15z" /><path style="fill:#a6a6a6" d="M203,976 l0,-81 18,0 0,-22 -18,0 18,-104 16,0 0,-146 -16,0 32,-264 20,-6 0,-22 -18,0 0,-166 54,0 -36,-20 0,-84 -70,-21 0,-21 -72,0 0,21 -72,21 0,84 -34,20 52,0 0,166 -18,0 0,22 22,0 32,270 -18,0 0,146 18,0 18,104 -18,0 0,22 18,0 0,81 10,15 16,7 20,0 16,-7 10,-15z" /><path style="fill:#b2b2b2" d="M197,976 l0,-81 14,0 0,-22 -14,0 14,-104 14,0 0,-146 -14,0 26,-264 18,-6 0,-22 -14,0 0,-166 44,0 -30,-20 0,-84 -58,-21 0,-21 -60,0 0,21 -60,21 0,84 -28,20 44,0 0,166 -16,0 0,22 18,0 28,270 -16,0 0,146 16,0 14,104 -14,0 0,22 14,0 0,81 8,15 14,7 16,0 12,-7 10,-15z" /><path style="fill:#bfbfbf" d="M189,976 l0,-81 12,0 0,-22 -12,0 12,-104 12,0 0,-146 -12,0 22,-264 14,-6 0,-22 -12,0 0,-166 36,0 -24,-20 0,-84 -48,-21 0,-21 -46,0 0,21 -46,21 0,84 -24,20 34,0 0,166 -10,0 0,22 12,0 22,270 -12,0 0,146 12,0 12,104 -12,0 0,22 12,0 0,81 6,15 12,7 12,0 10,-7 6,-15z" /><path style="fill:#ccc" d="M183,976 l0,-81 10,0 0,-22 -10,0 10,-104 8,0 0,-146 -8,0 16,-264 10,-6 0,-22 -10,0 0,-166 28,0 -18,-20 0,-84 -36,-21 0,-21 -34,0 0,21 -34,21 0,84 -18,20 26,0 0,166 -8,0 0,22 10,0 16,270 -10,0 0,146 10,0 8,104 -8,0 0,22 8,0 0,81 4,15 8,7 10,0 8,-7 4,-15z" /><path style="fill:#d9d9d9" d="M177,976 l0,-81 6,0 0,-22 -6,0 6,-104 6,0 0,-146 -6,0 10,-264 8,-6 0,-22 -6,0 0,-166 16,0 -10,-20 0,-84 -24,-21 0,-21 -22,0 0,21 -22,21 0,84 -12,20 18,0 0,166 -6,0 0,22 6,0 10,270 -6,0 0,146 6,0 6,104 -6,0 0,22 6,0 0,81 4,15 4,7 6,0 6,-7 2,-15z" /><ellipse style="fill:#e5e5e5" cx="166" cy="508" rx="21" ry="489" /><path style="fill:none;stroke:#7f7f7f;stroke-width:2" d="M63,165 l208,0" /><path style="fill:none;stroke:#7f7f7f;stroke-width:2" d="M291,145 l-250,0" /><path style="fill:none;stroke:#7f7f7f;stroke-width:2" d="M63,333 l208,0" /><path style="fill:none;stroke:#7f7f7f;stroke-width:2" d="M271,353 l-208,0" /><path style="fill:none;stroke:#7f7f7f;stroke-width:2" d="M103,623 l126,0" /><path style="fill:none;stroke:#7f7f7f;stroke-width:2" d="M229,769 l-126,0" /><path style="fill:none;stroke:#7f7f7f;stroke-width:2" d="M125,873 l82,0" /><path style="fill:none;stroke:#7f7f7f;stroke-width:2" d="M207,895 l-82,0" /><path style="fill:none;stroke:#7f7f7f;stroke-width:2" d="M103,885 l126,0" /><path style="fill:#4c4c4c" d="M52,52 l11,0 0,9 -11,0 0,-9z" /><path style="fill:#4c4c4c" d="M52,83 l11,0 0,10 -11,0 0,-10z" /><path style="fill:#4c4c4c" d="M113,52 l12,0 0,9 -12,0 0,-9z" /><path style="fill:#4c4c4c" d="M113,83 l12,0 0,10 -12,0 0,-10z" /><path style="fill:#4c4c4c" d="M271,52 l10,0 0,9 -10,0 0,-9z" /><path style="fill:#4c4c4c" d="M271,83 l10,0 0,10 -10,0 0,-10z" /><path style="fill:#4c4c4c" d="M207,52 l12,0 0,9 -12,0 0,-9z" /><path style="fill:#4c4c4c" d="M207,83 l12,0 0,10 -12,0 0,-10z" /><path style="fill:#4c4c4c" d="M109,5 l10,0 0,11 -10,0 0,-11z" /><path style="fill:#4c4c4c" d="M213,5 l10,0 0,11 -10,0 0,-11z" /><path style="fill:#4c4c4c" d="M52,321 l11,0 0,12 -11,0 0,-12z" /><path style="fill:#4c4c4c" d="M52,353 l11,0 0,10 -11,0 0,-10z" /><path style="fill:#4c4c4c" d="M271,321 l10,0 0,12 -10,0 0,-12z" /><path style="fill:#4c4c4c" d="M271,353 l10,0 0,10 -10,0 0,-10z" /><path style="fill:#4c4c4c" d="M125,321 l10,0 0,12 -10,0 0,-12z" /><path style="fill:#4c4c4c" d="M125,353 l10,0 0,10 -10,0 0,-10z" /><path style="fill:#4c4c4c" d="M197,321 l10,0 0,12 -10,0 0,-12z" /><path style="fill:#4c4c4c" d="M197,353 l10,0 0,10 -10,0 0,-10z" /><path style="fill:#999" d="M141,129 l0,-26 52,0 0,26 -52,0z" /><path style="fill:#999" d="M135,207 l0,-10 62,0 0,10 -62,0z" /><path style="fill:#fff" d="M135,233 l0,-26 62,0 0,26 -62,0z" /><path style="fill:#b2b2b2" d="M145,691 l0,-30 42,0 0,30 -42,0z" /><path style="fill:none;stroke:#4c4c4c;stroke-width:2" d="M207,976 l0,-81 22,0 0,-22 -22,0 22,-104 20,0 0,-146 -20,0 38,-264 24,-6 0,-20 -20,0 0,-168 62,0 -42,-20 0,-84 -84,-20 0,-22 -82,0 0,22 -84,20 0,84 -41,20 63,0 0,168 -22,0 0,20 24,0 38,270 -20,0 0,146 20,0 22,104 -22,0 0,22 22,0 0,81 10,15 20,7 22,0 20,-7 10,-15" /><path style="fill:none;stroke:#4c4c4c;stroke-width:2" d="M83,749 l166,0" /><path style="fill:none;stroke:#4c4c4c;stroke-width:2" d="M249,717 l0,-20 64,0 0,20 -64,0" /><path style="fill:none;stroke:#4c4c4c;stroke-width:2" d="M271,717 l0,-20" /><path style="fill:none;stroke:#4c4c4c;stroke-width:2" d="M63,739 l0,-22 20,0 0,22 -20,0" /><path style="fill:none;stroke:#4c4c4c;stroke-width:2" d="M41,61 l250,0" /><path style="fill:none;stroke:#4c4c4c;stroke-width:2" d="M291,83 l-250,0" /><path style="fill:none;stroke:#4c4c4c;stroke-width:2" d="M129,10 l12,0" /><path style="fill:none;stroke:#4c4c4c;stroke-width:2" d="M151,10 l10,0" /><path style="fill:none;stroke:#4c4c4c;stroke-width:2" d="M171,10 l10,0" /><path style="fill:none;stroke:#4c4c4c;stroke-width:2" d="M193,10 l10,0" /></svg>