<!DOCTYPE svg PUBLIC "-//W3C//DTD SVG 20000303 Stylable//EN" "http://www.w3.org/TR/2000/03/WD-SVG-20000303/DTD/svg-20000303-stylable.dtd"[]><svg xmlns="http://www.w3.org/2000/svg" width="297px" height="998px" viewBox="0 0 255 998"><path style="fill:#c30;stroke:#4c4c4c;stroke-width:2" d="M25,81 l54,0 0,80 -54,0 0,-80z" /><path style="fill:#c30;stroke:#4c4c4c;stroke-width:2" d="M241,49 l0,116 -54,822 -26,11 -28,-11 -54,-822 0,-116 40,-12 0,-9 82,0 0,9 40,12z" /><path style="fill:#d43b00" d="M25,85 l54,0 0,70 -54,0 0,-70z" /><path style="fill:#d43b00" d="M231,49 l0,116 -46,822 -24,11 -24,-11 -46,-822 0,-116 34,-12 0,-12 70,0 0,12 36,12z" /><path style="fill:#de4500" d="M25,91 l54,0 0,58 -54,0 0,-58z" /><path style="fill:#de4500" d="M219,49 l0,116 -38,822 -20,11 -20,-11 -38,-822 0,-116 28,-12 0,-12 60,0 0,12 28,12z" /><path style="fill:#e54c00" d="M25,97 l54,0 0,48 -54,0 0,-48z" /><path style="fill:#e54c00" d="M207,49 l0,116 -30,822 -16,11 -16,-11 -30,-822 0,-116 22,-12 0,-12 48,0 0,12 22,12z" /><path style="fill:#ed5400" d="M25,103 l54,0 0,36 -54,0 0,-36z" /><path style="fill:#ed5400" d="M197,49 l0,116 -24,822 -12,11 -12,-11 -24,-822 0,-116 18,-12 0,-12 36,0 0,12 18,12z" /><path style="fill:#f75e00" d="M25,109 l54,0 0,24 -54,0 0,-24z" /><path style="fill:#f75e00" d="M185,49 l0,116 -16,822 -8,11 -8,-11 -16,-822 0,-116 12,-12 0,-12 24,0 0,12 12,12z" /><path style="fill:#f60" d="M173,49 l0,116 -8,822 -4,11 -4,-11 -10,-822 0,-116 8,-12 0,-9 12,0 0,9 6,12z" /><path style="fill:#f60" d="M25,115 l54,0 0,12 -54,0 0,-12z" /><path style="fill:#c30" d="M255,95 l0,36 -190,0 0,-36 190,0z" /><path style="fill:#c30" d="M255,199 l0,36 -190,0 0,-36 190,0z" /><path style="fill:#d43b00" d="M243,199 l0,36 -164,0 0,-36 164,0z" /><path style="fill:#d43b00" d="M243,95 l0,34 -164,0 0,-34 164,0z" /><path style="fill:#de4500" d="M229,95 l0,34 -136,0 0,-34 136,0z" /><path style="fill:#de4500" d="M229,199 l0,36 -136,0 0,-36 136,0z" /><path style="fill:#e54c00" d="M215,199 l0,36 -110,0 0,-36 110,0z" /><path style="fill:#e54c00" d="M215,95 l0,34 -110,0 0,-34 110,0z" /><path style="fill:#ed5400" d="M201,95 l0,34 -82,0 0,-34 82,0z" /><path style="fill:#ed5400" d="M201,199 l0,36 -82,0 0,-36 82,0z" /><path style="fill:#f75e00" d="M187,199 l0,36 -54,0 0,-36 54,0z" /><path style="fill:#f75e00" d="M187,95 l0,34 -54,0 0,-34 54,0z" /><path style="fill:#f60" d="M173,95 l0,36 -26,0 0,-36 26,0z" /><path style="fill:#f60" d="M173,199 l0,36 -26,0 0,-36 26,0z" /><path style="fill:none;stroke:#b21900;stroke-width:2" d="M79,165 l162,-12" /><path style="fill:#7f7f7f;stroke:#4c4c4c;stroke-width:2" d="M227,797 l0,40 -134,0 0,-40 134,0z" /><path style="fill:#7f7f7f;stroke:#4c4c4c;stroke-width:2" d="M241,513 l0,40 -162,0 0,-40 162,0z" /><path style="fill:#7f7f7f;stroke:#4c4c4c;stroke-width:2" d="M0,73 l25,0 0,96 -25,0 0,-96z" /><path style="fill:#7f7f7f;stroke:#4c4c4c;stroke-width:2" d="M201,0 l0,28 -82,0 0,-28 82,0z" /><path style="fill:#999" d="M219,797 l0,40 -118,0 0,-40 118,0z" /><path style="fill:#999" d="M231,513 l0,40 -142,0 0,-40 142,0z" /><path style="fill:#999" d="M0,79 l25,0 0,84 -25,0 0,-84z" /><path style="fill:#999" d="M195,0 l0,28 -70,0 0,-28 70,0z" /><path style="fill:#b2b2b2" d="M205,797 l0,40 -90,0 0,-40 90,0z" /><path style="fill:#b2b2b2" d="M215,513 l0,40 -110,0 0,-40 110,0z" /><path style="fill:#b2b2b2" d="M0,89 l25,0 0,64 -25,0 0,-64z" /><path style="fill:#b2b2b2" d="M187,0 l0,28 -54,0 0,-28 54,0z" /><path style="fill:#ccc" d="M197,513 l0,40 -74,0 0,-40 74,0z" /><path style="fill:#ccc" d="M191,797 l0,40 -62,0 0,-40 62,0z" /><path style="fill:#ccc" d="M0,99 l25,0 0,44 -25,0 0,-44z" /><path style="fill:#ccc" d="M179,0 l0,28 -38,0 0,-28 38,0z" /><path style="fill:#e5e5e5" d="M181,797 l0,40 -40,0 0,-40 40,0z" /><path style="fill:#e5e5e5" d="M185,513 l0,40 -48,0 0,-40 48,0z" /><path style="fill:#e5e5e5" d="M173,0 l0,28 -24,0 0,-28 24,0z" /><path style="fill:#e5e5e5" d="M0,107 l25,0 0,28 -25,0 0,-28z" /><path style="fill:#fff" d="M165,0 l0,28 -10,0 0,-28 10,0z" /><path style="fill:#fff" d="M0,115 l25,0 0,12 -25,0 0,-12z" /><path style="fill:#fff" d="M169,513 l0,40 -18,0 0,-40 18,0z" /><path style="fill:#fff" d="M169,797 l0,40 -16,0 0,-40 16,0z" /><path style="fill:none;stroke:#4c4c4c;stroke-width:2" d="M255,201 l0,34 -190,0 0,-34 190,0" /><path style="fill:none;stroke:#4c4c4c;stroke-width:2" d="M255,95 l0,36 -190,0 0,-36 190,0" /></svg>