<!DOCTYPE svg PUBLIC "-//W3C//DTD SVG 20000303 Stylable//EN" "http://www.w3.org/TR/2000/03/WD-SVG-20000303/DTD/svg-20000303-stylable.dtd"[]><svg xmlns="http://www.w3.org/2000/svg" width="374px" height="999px" viewBox="0 0 337 999"><path style="fill:#00197f;stroke:#4c4c4c;stroke-width:2" d="M213,67 l-26,0 0,130 26,0 0,-130z" /><path style="fill:#00197f" d="M193,395 l0,-341 -171,0 0,341 19,84 22,520 87,0 21,-520 22,-84z" /><path style="fill:#00248a" d="M184,395 l0,-343 -154,0 0,343 20,84 17,520 78,0 18,-520 21,-84z" /><path style="fill:#002b91" d="M173,395 l0,-343 -134,0 0,343 17,84 17,520 66,0 18,-520 16,-84z" /><path style="fill:#03369c" d="M163,395 l0,-343 -115,0 0,343 15,84 14,520 58,0 15,-520 13,-84z" /><path style="fill:#0d40a6" d="M156,395 l0,-343 -98,0 0,343 11,84 13,520 49,0 12,-520 13,-84z" /><path style="fill:#174ab0" d="M145,395 l0,-343 -78,0 0,343 10,84 11,520 37,0 10,-520 10,-84z" /><path style="fill:#1f52b8" d="M137,395 l0,-343 -60,0 0,343 7,84 8,520 30,0 7,-520 8,-84z" /><path style="fill:#295cc2" d="M127,395 l0,-343 -41,0 0,343 6,84 3,520 23,0 4,-520 5,-84z" /><path style="fill:#36c" d="M118,395 l0,-341 -23,0 0,341 4,84 2,520 10,0 5,-520 2,-84z" /><path style="fill:none;stroke:#4c4c4c;stroke-width:2" d="M193,395 l0,-341 -171,0 0,341 19,84 22,520 87,0 21,-520 22,-84" /><path style="fill:#00197f" d="M165,957 l-117,0 0,26 117,0 0,-26z" /><path style="fill:#00197f" d="M171,795 l-130,0 0,28 130,0 0,-28z" /><path style="fill:#00197f" d="M181,639 l-150,0 0,26 150,0 0,-26z" /><path style="fill:#00197f" d="M193,477 l-171,0 0,28 171,0 0,-28z" /><path style="fill:#00197f" d="M213,369 l-213,0 0,26 213,0 0,-26z" /><path style="fill:#00197f" d="M213,217 l-213,0 0,26 213,0 0,-26z" /><path style="fill:#00197f" d="M213,77 l-213,0 0,26 213,0 0,-26z" /><path style="fill:#00197f;stroke:#4c4c4c;stroke-width:2" d="M127,0 l-41,0 0,52 41,0 0,-52z" /><path style="fill:#00248a" d="M125,0 l-37,0 0,52 37,0 0,-52z" /><path style="fill:#00248a" d="M201,77 l-192,0 0,26 192,0 0,-26z" /><path style="fill:#00248a" d="M201,217 l-192,0 0,26 192,0 0,-26z" /><path style="fill:#00248a" d="M201,369 l-192,0 0,26 192,0 0,-26z" /><path style="fill:#00248a" d="M184,477 l-154,0 0,26 154,0 0,-26z" /><path style="fill:#00248a" d="M173,639 l-134,0 0,26 134,0 0,-26z" /><path style="fill:#00248a" d="M163,795 l-113,0 0,26 113,0 0,-26z" /><path style="fill:#00248a" d="M159,957 l-105,0 0,26 105,0 0,-26z" /><path style="fill:#002b91" d="M152,957 l-92,0 0,26 92,0 0,-26z" /><path style="fill:#002b91" d="M156,795 l-100,0 0,26 100,0 0,-26z" /><path style="fill:#002b91" d="M165,639 l-117,0 0,26 117,0 0,-26z" /><path style="fill:#002b91" d="M173,477 l-134,0 0,26 134,0 0,-26z" /><path style="fill:#002b91" d="M189,369 l-167,0 0,26 167,0 0,-26z" /><path style="fill:#002b91" d="M189,217 l-167,0 0,26 167,0 0,-26z" /><path style="fill:#002b91" d="M189,77 l-167,0 0,26 167,0 0,-26z" /><path style="fill:#002b91" d="M124,0 l-34,0 0,52 34,0 0,-52z" /><path style="fill:#03369c" d="M122,0 l-30,0 0,52 30,0 0,-52z" /><path style="fill:#03369c" d="M177,77 l-144,0 0,26 144,0 0,-26z" /><path style="fill:#03369c" d="M177,217 l-144,0 0,26 144,0 0,-26z" /><path style="fill:#03369c" d="M177,369 l-144,0 0,26 144,0 0,-26z" /><path style="fill:#03369c" d="M163,477 l-115,0 0,26 115,0 0,-26z" /><path style="fill:#03369c" d="M157,639 l-101,0 0,26 101,0 0,-26z" /><path style="fill:#03369c" d="M150,795 l-87,0 0,26 87,0 0,-26z" /><path style="fill:#03369c" d="M145,957 l-78,0 0,26 78,0 0,-26z" /><path style="fill:#0d40a6" d="M120,0 l-27,0 0,52 27,0 0,-52z" /><path style="fill:#0d40a6" d="M167,77 l-121,0 0,26 121,0 0,-26z" /><path style="fill:#0d40a6" d="M167,217 l-121,0 0,26 121,0 0,-26z" /><path style="fill:#0d40a6" d="M167,369 l-121,0 0,26 121,0 0,-26z" /><path style="fill:#0d40a6" d="M156,477 l-98,0 0,28 98,0 0,-28z" /><path style="fill:#0d40a6" d="M150,639 l-87,0 0,26 87,0 0,-26z" /><path style="fill:#0d40a6" d="M143,795 l-74,0 0,28 74,0 0,-28z" /><path style="fill:#0d40a6" d="M139,957 l-66,0 0,26 66,0 0,-26z" /><path style="fill:#174ab0" d="M116,0 l-19,0 0,52 19,0 0,-52z" /><path style="fill:#174ab0" d="M156,77 l-98,0 0,26 98,0 0,-26z" /><path style="fill:#174ab0" d="M156,217 l-98,0 0,26 98,0 0,-26z" /><path style="fill:#174ab0" d="M156,369 l-98,0 0,26 98,0 0,-26z" /><path style="fill:#174ab0" d="M145,477 l-78,0 0,28 78,0 0,-28z" /><path style="fill:#174ab0" d="M139,639 l-68,0 0,26 68,0 0,-26z" /><path style="fill:#174ab0" d="M135,795 l-58,0 0,28 58,0 0,-28z" /><path style="fill:#174ab0" d="M133,957 l-53,0 0,26 53,0 0,-26z" /><path style="fill:#1f52b8" d="M114,0 l-15,0 0,52 15,0 0,-52z" /><path style="fill:#1f52b8" d="M143,77 l-74,0 0,26 74,0 0,-26z" /><path style="fill:#1f52b8" d="M143,217 l-74,0 0,26 74,0 0,-26z" /><path style="fill:#1f52b8" d="M143,369 l-74,0 0,26 74,0 0,-26z" /><path style="fill:#1f52b8" d="M135,477 l-58,0 0,28 58,0 0,-28z" /><path style="fill:#1f52b8" d="M131,639 l-51,0 0,26 51,0 0,-26z" /><path style="fill:#1f52b8" d="M127,795 l-43,0 0,28 43,0 0,-28z" /><path style="fill:#1f52b8" d="M127,957 l-41,0 0,26 41,0 0,-26z" /><path style="fill:#295cc2" d="M111,0 l-10,0 0,52 10,0 0,-52z" /><path style="fill:#295cc2" d="M131,77 l-49,0 0,26 49,0 0,-26z" /><path style="fill:#295cc2" d="M131,217 l-49,0 0,26 49,0 0,-26z" /><path style="fill:#295cc2" d="M131,369 l-49,0 0,26 49,0 0,-26z" /><path style="fill:#295cc2" d="M125,477 l-39,0 0,28 39,0 0,-28z" /><path style="fill:#295cc2" d="M124,639 l-34,0 0,26 34,0 0,-26z" /><path style="fill:#295cc2" d="M122,795 l-30,0 0,28 30,0 0,-28z" /><path style="fill:#295cc2" d="M120,957 l-28,0 0,26 28,0 0,-26z" /><path style="fill:#36c" d="M109,0 l-6,0 0,52 6,0 0,-52z" /><path style="fill:#36c" d="M120,77 l-27,0 0,26 27,0 0,-26z" /><path style="fill:#36c" d="M120,217 l-27,0 0,26 27,0 0,-26z" /><path style="fill:#36c" d="M120,369 l-27,0 0,26 27,0 0,-26z" /><path style="fill:#36c" d="M118,477 l-23,0 0,28 23,0 0,-28z" /><path style="fill:#36c" d="M116,639 l-19,0 0,26 19,0 0,-26z" /><path style="fill:#36c" d="M114,795 l-15,0 0,28 15,0 0,-28z" /><path style="fill:#36c" d="M114,957 l-15,0 0,26 15,0 0,-26z" /><path style="fill:none;stroke:#4c4c4c;stroke-width:2" d="M165,957 l-117,0 0,26 117,0 0,-26" /><path style="fill:none;stroke:#4c4c4c;stroke-width:2" d="M171,795 l-130,0 0,28 130,0 0,-28" /><path style="fill:none;stroke:#4c4c4c;stroke-width:2" d="M181,639 l-150,0 0,26 150,0 0,-26" /><path style="fill:none;stroke:#4c4c4c;stroke-width:2" d="M193,477 l-171,0 0,28 171,0 0,-28" /><path style="fill:none;stroke:#4c4c4c;stroke-width:2" d="M213,369 l-213,0 0,26 213,0 0,-26" /><path style="fill:none;stroke:#4c4c4c;stroke-width:2" d="M213,217 l-213,0 0,26 213,0 0,-26" /><path style="fill:none;stroke:#4c4c4c;stroke-width:2" d="M213,77 l-213,0 0,26 213,0 0,-26" /><path style="fill:#194cb2;stroke:#4c4c4c;stroke-width:2" d="M229,58 l-16,9 0,130 16,10 0,-149z" /><path style="fill:#36c;stroke:#4c4c4c;stroke-width:2" d="M229,58 l108,19 0,114 -108,16 0,-149z" /><path style="fill:#039;stroke:#4c4c4c;stroke-width:2" d="M273,165 l32,0 8,-8 2,-16 0,-17 -2,-17 -8,-10 -32,0 -6,10 -4,17 0,17 4,16 6,8z" /><ellipse style="fill:#69f;stroke:#4c4c4c;stroke-width:2" cx="302" cy="131" rx="13" ry="34" /><ellipse style="fill:#e5e5e5;stroke:#4c4c4c;stroke-width:2" cx="106" cy="142" rx="52" ry="29" /><circle style="fill:none;stroke:#4c4c4c;stroke-width:2" cx="182" cy="41" r="11" /></svg>