<!DOCTYPE svg PUBLIC "-//W3C//DTD SVG 20000303 Stylable//EN" "http://www.w3.org/TR/2000/03/WD-SVG-20000303/DTD/svg-20000303-stylable.dtd"[]><svg xmlns="http://www.w3.org/2000/svg" width="999px" height="778px" viewBox="0 0 998 765"><path style="fill:#900;stroke:#4c4c4c;stroke-width:2" d="M213,521 l108,0 0,160 -108,0 0,-160z" /><path style="fill:#7f0000;stroke:#4c4c4c;stroke-width:2" d="M457,349 l312,0 0,332 -312,0 0,-332z" /><path style="fill:#c30;stroke:#4c4c4c;stroke-width:2" d="M743,603 l-452,0 0,78 452,0 0,-78z" /><path style="fill:#c30;stroke:#4c4c4c;stroke-width:2" d="M84,681 l830,0 64,0 0,6 -64,0 0,72 69,-42 0,6 -69,42 -830,0 -69,-42 0,-6 69,42 0,-72 -64,0 0,-6 64,0z" /><path style="fill:#7f0000;stroke:#4c4c4c;stroke-width:2" d="M11,723 l-11,-12 0,-18 11,-12 18,0 12,12 0,18 -12,12 -18,0z" /><path style="fill:#7f0000;stroke:#4c4c4c;stroke-width:2" d="M969,723 l-12,-12 0,-18 12,-12 18,0 11,12 0,18 -11,12 -18,0z" /><path style="fill:#b21900" d="M100,691 l801,0 0,26 -801,0 0,-26z" /><path style="fill:none;stroke:#f60;stroke-width:2" d="M97,755 l804,0" /><path style="fill:#e54c00;stroke:#4c4c4c;stroke-width:2" d="M239,593 l62,0 0,110 -62,0 0,-110z" /><path style="fill:#e54c00;stroke:#4c4c4c;stroke-width:2" d="M869,681 l-126,0 0,-108 126,0 0,108z" /><path style="fill:#b21900;stroke:#4c4c4c;stroke-width:2" d="M369,535 l338,0 0,68 -338,0 0,-68z" /><path style="fill:#900;stroke:#4c4c4c;stroke-width:2" d="M437,499 l182,0 0,36 -182,0 0,-36z" /><path style="fill:#333" d="M827,573 l-120,0 0,-396 120,0 0,396z" /><path style="fill:#c30;stroke:#4c4c4c;stroke-width:2" d="M457,223 l250,0 0,188 -250,0 0,-188z" /><path style="fill:#f60;stroke:#4c4c4c;stroke-width:2" d="M583,363 l124,0 0,84 -124,0 0,-84z" /><path style="fill:#f60" d="M515,100 l68,0 0,665 -68,0 0,-665z" /><path style="fill:#c30" d="M525,100 l46,0 0,665 -46,0 0,-665z" /><path style="fill:none;stroke:#4c4c4c;stroke-width:2" d="M515,100 l68,0 0,665 -68,0 0,-665" /><path style="fill:#2e2e2e" d="M707,307 l120,-42 0,308 -120,0 0,-266z" /><path style="fill:#292929" d="M707,353 l120,-42 0,262 -120,0 0,-220z" /><path style="fill:#242424" d="M707,413 l120,-44 0,204 -120,0 0,-160z" /><path style="fill:none;stroke:#4c4c4c;stroke-width:2" d="M827,573 l-120,0 0,-396 120,0 0,396" /><path style="fill:#b21900" d="M515,411 l-172,0 0,-22 -142,0 0,-56 -66,0 0,250 66,0 0,-62 142,0 0,-22 172,0 0,-88z" /><path style="fill:#bd2400" d="M515,415 l-172,0 0,-18 -140,0 0,-50 -68,0 0,220 68,0 0,-54 140,0 0,-18 172,0 0,-80z" /><path style="fill:#c42b00" d="M515,421 l-172,0 0,-16 -140,0 0,-44 -68,0 0,192 68,0 0,-48 140,0 0,-16 172,0 0,-68z" /><path style="fill:#cf3600" d="M515,427 l-172,0 0,-14 -140,0 0,-38 -68,0 0,164 68,0 0,-40 140,0 0,-14 172,0 0,-58z" /><path style="fill:#d94000" d="M515,431 l-172,0 0,-10 -140,0 0,-32 -68,0 0,136 68,0 0,-34 140,0 0,-12 172,0 0,-48z" /><path style="fill:#e34a00" d="M515,437 l-172,0 0,-8 -140,0 0,-26 -68,0 0,108 68,0 0,-26 140,0 0,-10 172,0 0,-38z" /><path style="fill:#eb5200" d="M515,443 l-172,0 0,-6 -140,0 0,-18 -68,0 0,78 68,0 0,-20 140,0 0,-6 172,0 0,-28z" /><path style="fill:#f55c00" d="M515,447 l-172,0 0,-4 -140,0 0,-10 -68,0 0,48 68,0 0,-12 140,0 0,-4 172,0 0,-18z" /><path style="fill:#f60" d="M515,453 l-172,0 0,-2 -142,0 0,-4 -66,0 0,20 66,0 0,-4 142,0 0,-2 172,0 0,-8z" /><path style="fill:#7f7f7f" d="M135,505 l-12,0 0,-22 -55,22 -11,0 0,-94 11,0 55,20 0,-20 12,0 0,94z" /><path style="fill:#999" d="M135,495 l-10,0 0,-16 -57,16 -11,0 0,-76 11,0 57,18 0,-18 10,0 0,76z" /><path style="fill:#b2b2b2" d="M135,485 l-10,0 0,-12 -57,12 -11,0 0,-56 11,0 57,12 0,-12 10,0 0,56z" /><path style="fill:#ccc" d="M135,477 l-10,0 0,-10 -57,10 -11,0 0,-40 11,0 57,10 0,-10 10,0 0,40z" /><path style="fill:#e5e5e5" d="M135,467 l-12,0 0,-4 -55,4 -11,0 0,-20 11,0 55,4 0,-4 12,0 0,20z" /><path style="fill:#000;stroke:#4c4c4c;stroke-width:2" d="M255,281 l78,0 0,-38 -52,0 0,32 -26,0 0,6z" /><path style="fill:#c30" d="M281,389 l-12,-4 0,-10 12,-6 -16,-10 0,-16 16,-10 0,-26 -12,-6 0,-10 12,-6 0,-4 52,0 0,4 10,6 0,10 -10,6 0,26 14,10 0,16 -14,10 10,6 0,10 -10,4 -52,0z" /><path style="fill:#e54c00" d="M287,389 l-8,-4 0,-10 8,-6 -12,-10 0,-16 12,-10 0,-26 -8,-6 0,-10 8,-6 0,-4 38,0 0,4 8,6 0,10 -8,6 0,26 12,10 0,16 -12,10 8,6 0,10 -8,4 -38,0z" /><path style="fill:none;stroke:#4c4c4c;stroke-width:2" d="M515,411 l-172,0 0,-22 -142,0 0,-56 -66,0 0,250 66,0 0,-62 142,0 0,-22 172,0 0,-88" /><path style="fill:none;stroke:#4c4c4c;stroke-width:2" d="M201,521 l0,-132" /><path style="fill:none;stroke:#4c4c4c;stroke-width:2" d="M343,499 l0,-88" /><path style="fill:none;stroke:#4c4c4c;stroke-width:2" d="M123,483 l0,-52" /><path style="fill:none;stroke:#4c4c4c;stroke-width:2" d="M135,505 l-12,0 0,-22 -55,22 -11,0 0,-94 11,0 55,20 0,-20 12,0 0,94" /><path style="fill:none;stroke:#4c4c4c;stroke-width:2" d="M281,389 l-12,-4 0,-10 12,-6 -16,-10 0,-16 16,-10 0,-26 -12,-6 0,-10 12,-6 0,-4 52,0 0,4 10,6 0,10 -10,6 0,26 14,10 0,16 -14,10 10,6 0,10 -10,4 -52,0" /><path style="fill:none;stroke:#4c4c4c;stroke-width:2" d="M281,369 l52,0" /><path style="fill:none;stroke:#4c4c4c;stroke-width:2" d="M333,333 l-52,0" /><path style="fill:none;stroke:#4c4c4c;stroke-width:2" d="M281,307 l52,0" /><path style="fill:none;stroke:#4c4c4c;stroke-width:2" d="M333,285 l-52,0" /><circle style="fill:#c30;stroke:#4c4c4c;stroke-width:2" cx="270" cy="577" r="63" /><circle style="fill:#7f0000" cx="270" cy="577" r="27" /><path style="fill:none;stroke:#4c4c4c;stroke-width:2" d="M285,539 l4,-10" /><path style="fill:none;stroke:#4c4c4c;stroke-width:2" d="M255,539 l-4,-10" /><path style="fill:none;stroke:#4c4c4c;stroke-width:2" d="M309,561 l8,-4" /><path style="fill:none;stroke:#4c4c4c;stroke-width:2" d="M255,615 l-6,10" /><path style="fill:none;stroke:#4c4c4c;stroke-width:2" d="M231,561 l-10,-4" /><path style="fill:none;stroke:#4c4c4c;stroke-width:2" d="M309,593 l10,4" /><path style="fill:none;stroke:#4c4c4c;stroke-width:2" d="M285,615 l6,10" /><path style="fill:none;stroke:#4c4c4c;stroke-width:2" d="M231,593 l-10,4" /><path style="fill:#c30" d="M535,100 l0,-43 -16,0 -4,-57 68,0 -6,57 -16,0 0,43 -26,0z" /><path style="fill:#e54c00" d="M539,100 l0,-43 -10,0 -4,-57 46,0 -2,57 -12,0 0,43 -18,0z" /><path style="fill:none;stroke:#4c4c4c;stroke-width:2" d="M535,100 l0,-43 -16,0 -4,-57 68,0 -6,57 -16,0 0,43 -26,0" /><path style="fill:#b2b2b2" d="M517,15 l62,0 0,10 -60,0 -2,-10z" /></svg>