<!DOCTYPE svg PUBLIC "-//W3C//DTD SVG 20000303 Stylable//EN" "http://www.w3.org/TR/2000/03/WD-SVG-20000303/DTD/svg-20000303-stylable.dtd"[]><svg xmlns="http://www.w3.org/2000/svg" width="999px" height="227px" viewBox="0 0 999 181"><path style="fill:#999" d="M859,42 l129,77 0,62 -129,0 0,-139z" /><path style="fill:#b2b2b2;stroke:#4c4c4c;stroke-width:2" d="M291,0 l624,0 0,42 -56,0 0,97 56,0 0,42 -624,0 0,-181z" /><path style="fill:#999" d="M249,15 l166,0 0,166 -166,0 0,-166z" /><path style="fill:#b2b2b2" d="M249,19 l166,0 0,156 -166,0 0,-156z" /><path style="fill:#ccc" d="M249,26 l166,0 0,139 -166,0 0,-139z" /><path style="fill:none;stroke:#4c4c4c;stroke-width:2" d="M249,15 l166,0 0,166 -166,0 0,-166" /><path style="fill:#ccc;stroke:#4c4c4c;stroke-width:2" d="M863,133 l52,0 0,-14 73,0 0,-12 -77,-56 0,-9 -48,0 0,91z" /><path style="fill:#ccc;stroke:#4c4c4c;stroke-width:2" d="M921,123 l78,0 0,58 -78,0 0,-58z" /><path style="fill:#999" d="M833,155 l0,-125 -12,0 0,16 -52,0 0,93 52,0 0,16 12,0z" /><path style="fill:#ccc" d="M769,46 l52,0 0,83 -52,0 0,-83z" /><path style="fill:#7f7f7f" d="M739,10 l62,0 0,4 -62,0 0,-4z" /><path style="fill:#7f7f7f" d="M281,30 l62,0 0,5 -62,0 0,-5z" /><path style="fill:#7f7f7f;stroke:#4c4c4c;stroke-width:2" d="M427,19 l312,0 0,156 -312,0 0,-156z" /><path style="fill:#ccc;stroke:#4c4c4c;stroke-width:2" d="M701,175 l-20,6 -20,0 -106,-6 -138,-10 -2,-123 140,-11 106,-5 20,0 20,4 18,12 14,13 10,19 6,19 0,20 -6,20 -10,18 -14,14 -18,10z" /><path style="fill:none;stroke:#fff;stroke-width:2" d="M269,159 l0,-20 64,0" /><path style="fill:none;stroke:#fff;stroke-width:2" d="M531,127 l-4,-6 -4,-6 -4,-8 0,-8 4,-8 4,-8 4,-4 8,-4 8,-4 8,0 8,4 6,4" /><path style="fill:none;stroke:#fff;stroke-width:2" d="M639,137 l-6,-8 -6,-10 -4,-10 0,-12 4,-10 6,-10 6,-7 10,-4 10,-4 12,0 10,4 10,4" /><path style="fill:none;stroke:#fff;stroke-width:2" d="M931,175 l32,-26" /><path style="fill:none;stroke:#fff;stroke-width:2" d="M833,30 l0,125 -12,0" /><path style="fill:none;stroke:#fff;stroke-width:2" d="M821,139 l-52,0" /><path style="fill:none;stroke:#7f7f7f;stroke-width:2" d="M963,175 l0,-26" /><path style="fill:none;stroke:#7f7f7f;stroke-width:2" d="M821,155 l0,-16" /><path style="fill:none;stroke:#7f7f7f;stroke-width:2" d="M821,30 l0,99 -52,0" /><path style="fill:none;stroke:#7f7f7f;stroke-width:2" d="M769,139 l0,-93 52,0" /><path style="fill:none;stroke:#7f7f7f;stroke-width:2" d="M915,159 l-156,0 0,-129" /><path style="fill:none;stroke:#7f7f7f;stroke-width:2" d="M691,70 l8,7 6,10 2,10 0,12 -2,10 -6,10 -8,8 -10,4 -10,4 -12,0 -10,-4 -10,-4" /><path style="fill:none;stroke:#7f7f7f;stroke-width:2" d="M569,79 l6,4 4,8 2,8 0,8 -2,8 -4,6 -6,6 -6,4 -8,2 -8,0 -8,-2 -8,-4" /><path style="fill:none;stroke:#7f7f7f;stroke-width:2" d="M269,159 l64,0 0,-20" /><path style="fill:#b2b2b2" d="M67,181 l0,-155 162,0 20,4 0,145 -20,6 -162,0z" /><path style="fill:#bfbfbf" d="M67,175 l0,-145 162,0 20,5 0,136 -20,4 -162,0z" /><path style="fill:#ccc" d="M67,165 l0,-123 162,0 20,4 0,115 -20,4 -162,0z" /><path style="fill:#d9d9d9" d="M67,149 l0,-94 162,0 20,4 0,88 -20,2 -162,0z" /><path style="fill:#e5e5e5" d="M67,129 l0,-52 162,0 20,2 0,48 -20,2 -162,0z" /><path style="fill:none;stroke:#4c4c4c;stroke-width:2" d="M67,181 l0,-155 162,0 20,4 0,145 -20,6 -162,0" /><path style="fill:#999" d="M67,26 l-67,4 0,145 67,6 0,-155z" /><path style="fill:#b2b2b2" d="M67,30 l-67,5 0,136 67,4 0,-145z" /><path style="fill:#ccc" d="M67,42 l-67,4 0,115 67,4 0,-123z" /><path style="fill:#666" d="M67,62 l140,0 0,109 -140,0 0,-109z" /><path style="fill:#666" d="M0,119 l10,0 0,52 -10,0 0,-52z" /><path style="fill:#666" d="M0,62 l10,0 0,51 -10,0 0,-51z" /><path style="fill:none;stroke:#4c4c4c;stroke-width:2" d="M67,71 l146,0" /><path style="fill:none;stroke:#4c4c4c;stroke-width:2" d="M67,81 l146,0" /><path style="fill:none;stroke:#4c4c4c;stroke-width:2" d="M67,93 l146,0" /><path style="fill:none;stroke:#4c4c4c;stroke-width:2" d="M67,103 l146,0" /><path style="fill:none;stroke:#4c4c4c;stroke-width:2" d="M67,113 l146,0" /><path style="fill:none;stroke:#4c4c4c;stroke-width:2" d="M67,123 l146,0" /><path style="fill:none;stroke:#4c4c4c;stroke-width:2" d="M67,133 l146,0" /><path style="fill:none;stroke:#4c4c4c;stroke-width:2" d="M67,143 l146,0" /><path style="fill:none;stroke:#4c4c4c;stroke-width:2" d="M67,153 l146,0" /><path style="fill:none;stroke:#4c4c4c;stroke-width:2" d="M67,165 l146,0" /><path style="fill:none;stroke:#4c4c4c;stroke-width:2" d="M67,67 l146,0" /><path style="fill:none;stroke:#4c4c4c;stroke-width:2" d="M67,77 l146,0" /><path style="fill:none;stroke:#4c4c4c;stroke-width:2" d="M67,87 l146,0" /><path style="fill:none;stroke:#4c4c4c;stroke-width:2" d="M67,97 l146,0" /><path style="fill:none;stroke:#4c4c4c;stroke-width:2" d="M67,107 l146,0" /><path style="fill:none;stroke:#4c4c4c;stroke-width:2" d="M67,117 l146,0" /><path style="fill:none;stroke:#4c4c4c;stroke-width:2" d="M67,127 l146,0" /><path style="fill:none;stroke:#4c4c4c;stroke-width:2" d="M67,139 l146,0" /><path style="fill:none;stroke:#4c4c4c;stroke-width:2" d="M67,149 l146,0" /><path style="fill:none;stroke:#4c4c4c;stroke-width:2" d="M67,159 l146,0" /><path style="fill:none;stroke:#4c4c4c;stroke-width:2" d="M67,26 l-67,4 0,145 67,6 0,-155" /></svg>