<!DOCTYPE svg PUBLIC "-//W3C//DTD SVG 20000303 Stylable//EN" "http://www.w3.org/TR/2000/03/WD-SVG-20000303/DTD/svg-20000303-stylable.dtd"[]><svg xmlns="http://www.w3.org/2000/svg" width="625px" height="998px" viewBox="0 0 603 999"><path style="fill:#7f7f7f" d="M187,915 l0,-406 26,0 0,406 -26,0z" /><path style="fill:#7f7f7f" d="M187,249 l0,-146 26,0 0,146 -26,0z" /><path style="fill:#7f7f7f;stroke:#4c4c4c;stroke-width:2" d="M583,811 l-366,-166 0,-10 366,166 0,10z" /><path style="fill:none;stroke:#7f7f7f;stroke-width:2" d="M197,915 l30,-42 -30,-40 30,-42 -30,-42 30,-42 -30,-42 30,-42 -30,-40 30,-42 -30,-42 30,-42 -30,-42 30,-42 -30,-40 30,-42 -30,-42 30,-42 -30,-42 30,-42 -30,-40 30,-42 -30,-41 0,915" /><path style="fill:none;stroke:#7f7f7f;stroke-width:2" d="M227,915 l-30,-42 30,-40 -30,-42 30,-42 -30,-42 30,-42 -30,-42 30,-40 -30,-42 30,-42 -30,-42 30,-42 -30,-42 30,-40 -30,-42 30,-42 -30,-42 30,-42 -30,-42 30,-40 -30,-42 30,-41 0,915" /><path style="fill:none;stroke:#7f7f7f;stroke-width:2" d="M197,0 l30,0" /><path style="fill:none;stroke:#4c4c4c;stroke-width:2" d="M175,915 l42,-42 -42,-40 42,-42 -42,-42 42,-42 -42,-42 42,-42 -42,-40 42,-42 -42,-42 42,-42 -42,-42 42,-42 -42,-40 42,-42 -42,-42 42,-42 -42,-42 42,-42 -42,-40 42,-42 -42,-41 0,915" /><path style="fill:none;stroke:#4c4c4c;stroke-width:2" d="M217,915 l-40,-42 40,-40 -40,-42 40,-42 -40,-42 40,-42 -40,-42 40,-40 -40,-42 40,-42 -40,-42 40,-42 -40,-42 40,-40 -40,-42 40,-42 -40,-42 40,-42 -40,-42 40,-40 -40,-42 40,-41 0,915" /><path style="fill:none;stroke:#4c4c4c;stroke-width:2" d="M175,0 l42,0" /><path style="fill:#e5e5e5;stroke:#4c4c4c;stroke-width:2" d="M135,425 l0,12 62,0 0,-12 -62,0z" /><path style="fill:#039;stroke:#4c4c4c;stroke-width:2" d="M93,979 l-83,-64 83,0 0,64z" /><path style="fill:#36c;stroke:#4c4c4c;stroke-width:2" d="M135,895 l0,20 124,0 0,-20 334,0 0,42 -22,0 -20,40 -479,0 0,-62 -62,0 0,-20 125,0z" /><path style="fill:#e5e5e5;stroke:#4c4c4c;stroke-width:2" d="M259,895 l20,-84 272,0 20,-10 22,0 0,94 -334,0z" /><path style="fill:#333;stroke:#4c4c4c;stroke-width:2" d="M61,999 l-10,-11 0,-22 10,-9 510,0 12,9 0,22 -12,11 -510,0z" /><path style="fill:#000" d="M104,966 l415,0 0,22 -415,0 0,-22z" /><path style="fill:none;stroke:#999;stroke-width:2" d="M291,873 l146,0 0,-30" /><path style="fill:none;stroke:#999;stroke-width:2" d="M551,873 l20,0 0,-30" /><path style="fill:none;stroke:#999;stroke-width:2" d="M519,873 l22,0 0,-30" /><path style="fill:none;stroke:#fff;stroke-width:2" d="M551,873 l0,-30 20,0" /><path style="fill:none;stroke:#fff;stroke-width:2" d="M519,873 l0,-30 22,0" /><path style="fill:none;stroke:#fff;stroke-width:2" d="M291,873 l0,-30 146,0" /><path style="fill:#e5e5e5;stroke:#4c4c4c;stroke-width:2" d="M10,821 l125,0 0,74 -125,0 0,-74z" /><path style="fill:none;stroke:#fc0;stroke-width:2" d="M0,885 l145,0 0,20 104,0 0,-20 354,0" /><path style="fill:none;stroke:#fc0;stroke-width:2" d="M165,905 l0,-490" /><path style="fill:none;stroke:#fc0;stroke-width:2" d="M135,415 l52,0 0,490" /><path style="fill:#ccc;stroke:#4c4c4c;stroke-width:2" d="M571,801 l-354,-166 0,-12 376,178 -22,0z" /><path style="fill:#ccc;stroke:#4c4c4c;stroke-width:2" d="M321,801 l104,0 -10,10 -82,0 -12,-10z" /><path style="fill:#000" d="M32,811 l81,0 0,10 -81,0 0,-10z" /><path style="fill:#000" d="M42,885 l0,-52 9,0 0,52 -9,0z" /><path style="fill:#000" d="M83,885 l0,-52 10,0 0,52 -10,0z" /></svg>