<!DOCTYPE svg PUBLIC "-//W3C//DTD SVG 20000303 Stylable//EN" "http://www.w3.org/TR/2000/03/WD-SVG-20000303/DTD/svg-20000303-stylable.dtd"[]><svg xmlns="http://www.w3.org/2000/svg" width="999px" height="729px" viewBox="0 0 998 713"><path style="fill:#4c1900" d="M289,343 l-248,-194 328,-24 594,126 -272,324 -678,0 66,-212 210,-20z" /><path style="fill:#d9a600;stroke:#4c4c4c;stroke-width:2" d="M421,393 l108,0 0,144 -108,0 0,-144z" /><path style="fill:#d9a600;stroke:#4c4c4c;stroke-width:2" d="M23,349 l86,0 -62,222 -24,0 0,-222z" /><path style="fill:#000;fill-rule:evenodd" d="M685,389 l28,0 0,324 -28,0 0,-324z M643,399 l28,-8 84,312 -28,8 -84,-312z M605,419 l26,-14 162,278 -26,16 -162,-280z M575,447 l20,-20 228,228 -20,20 -228,-228z M551,483 l16,-26 278,162 -14,26 -280,-162z M539,523 l8,-28 312,84 -8,28 -312,-84z M537,565 l0,-28 324,0 0,28 -324,0z M547,607 l-8,-28 312,-84 8,28 -312,84z M567,645 l-16,-26 280,-162 14,26 -278,162z M595,675 l-20,-20 228,-228 20,20 -228,228z M631,699 l-26,-16 162,-278 26,14 -162,280z M671,711 l-28,-8 84,-312 28,8 -84,312z M223,389 l30,0 0,324 -30,0 0,-324z M181,399 l30,-8 82,312 -28,8 -84,-312z M145,419 l24,-14 162,278 -26,16 -160,-280z M113,447 l20,-20 230,228 -22,20 -228,-228z M91,483 l14,-26 280,162 -16,26 -278,-162z M78,523 l7,-28 312,84 -8,28 -311,-84z M78,565 l0,-28 321,0 0,28 -321,0z M85,607 l-7,-28 311,-84 8,28 -312,84z M105,645 l-14,-26 278,-162 16,26 -280,162z M133,675 l-20,-20 228,-228 22,20 -230,228z M169,699 l-24,-16 160,-278 26,14 -162,280z M211,711 l-30,-8 84,-312 28,8 -82,312z " /><circle style="fill:#333;stroke:#4c4c4c;stroke-width:2" cx="699" cy="551" r="154" /><circle style="fill:#333;stroke:#4c4c4c;stroke-width:2" cx="237" cy="551" r="154" /><circle style="fill:#4c4c4c" cx="699" cy="551" r="66" /><circle style="fill:#4c4c4c" cx="237" cy="551" r="66" /><circle style="fill:#c90;stroke:#4c4c4c;stroke-width:2" cx="698" cy="552" r="51" /><circle style="fill:#c90;stroke:#4c4c4c;stroke-width:2" cx="238" cy="551" r="51" /><path style="fill:#000" d="M707,559 l26,6 -4,8 -8,8 -8,4 -6,-26z" /><path style="fill:#000" d="M691,559 l-6,26 -8,-4 -8,-8 -4,-8 26,-6z" /><path style="fill:#000" d="M691,543 l-26,-6 4,-8 8,-8 8,-4 6,26z" /><path style="fill:#000" d="M707,543 l6,-26 8,4 8,8 4,8 -26,6z" /><path style="fill:#000" d="M245,559 l26,6 -4,8 -8,8 -8,4 -6,-26z" /><path style="fill:#000" d="M231,559 l-8,26 -8,-4 -6,-8 -6,-8 28,-6z" /><path style="fill:#000" d="M231,543 l-28,-6 6,-8 6,-8 8,-4 8,26z" /><path style="fill:#000" d="M245,543 l6,-26 10,4 6,8 4,8 -26,6z" /><path style="fill:#d9a600;stroke:#4c4c4c;stroke-width:2" d="M103,199 l186,0 30,144 -216,0 0,-144z" /><path style="fill:#300" d="M119,231 l40,0 -12,70 -28,0 0,-70z" /><path style="fill:#300" d="M171,231 l28,0 0,70 -40,0 12,-70z" /><path style="fill:#f2bf00;stroke:#4c4c4c;stroke-width:2" d="M75,199 l214,0 0,-16 -214,0 0,16z" /><path style="fill:#f2bf00;stroke:#4c4c4c;stroke-width:2" d="M103,343 l220,0 0,24 -200,0 -48,108 -24,0 52,-132z" /><path style="fill:#fc0;stroke:#4c4c4c;stroke-width:2" d="M369,425 l-68,-262 -78,-2 -18,-16 -170,2 0,-40 176,-40 674,28 113,232 -629,98z" /><path style="fill:#fc0;stroke:#4c4c4c;stroke-width:2" d="M823,205 l-14,32 -148,-16 -262,-82 -20,-22 70,-117 180,143 160,44 34,18z" /><path style="fill:#fc0;stroke:#4c4c4c;stroke-width:2" d="M761,175 l44,-40 70,22 22,64 -136,-46z" /><path style="fill:none;stroke:#c90;stroke-width:2" d="M931,259 l-506,34 -62,-214" /><path style="fill:#fc0" d="M0,291 l5,0 0,280 -5,0 0,-280z" /><path style="fill:#fc0" d="M29,291 l6,0 0,280 -6,0 0,-280z" /><path style="fill:#fc0" d="M5,333 l24,0 0,6 -24,0 0,-6z" /><path style="fill:#fc0" d="M5,381 l24,0 0,6 -24,0 0,-6z" /><path style="fill:#fc0" d="M5,429 l24,0 0,6 -24,0 0,-6z" /><path style="fill:#fc0" d="M5,477 l24,0 0,6 -24,0 0,-6z" /><path style="fill:#fc0" d="M5,523 l24,0 0,6 -24,0 0,-6z" /><path style="fill:#fc0" d="M5,309 l24,0 0,6 -24,0 0,-6z" /><path style="fill:#fc0" d="M5,357 l24,0 0,6 -24,0 0,-6z" /><path style="fill:#fc0" d="M5,405 l24,0 0,6 -24,0 0,-6z" /><path style="fill:#fc0" d="M5,453 l24,0 0,6 -24,0 0,-6z" /><path style="fill:#fc0" d="M5,499 l24,0 0,8 -24,0 0,-8z" /><path style="fill:#fc0" d="M5,547 l24,0 0,6 -24,0 0,-6z" /></svg>