<!DOCTYPE svg PUBLIC "-//W3C//DTD SVG 20000303 Stylable//EN" "http://www.w3.org/TR/2000/03/WD-SVG-20000303/DTD/svg-20000303-stylable.dtd"[]><svg xmlns="http://www.w3.org/2000/svg" width="889px" height="999px" viewBox="0 0 882 999"><path style="fill:none;stroke:#4c4c4c;stroke-width:2" d="M679,433 l-12,-22 34,-353 12,353 -12,22" /><path style="fill:none;stroke:#4c4c4c;stroke-width:2" d="M193,411 l468,-348 -440,394 -4,-24 474,-388 -486,378" /><path style="fill:#333;stroke:#4c4c4c;stroke-width:2" d="M255,547 l458,-547 22,0 23,45 -389,616 -114,-114z" /><path style="fill:#191919" d="M335,577 l396,-510 -344,532 -52,-22z" /><path style="fill:#000;stroke:#4c4c4c;stroke-width:2" d="M67,907 l206,0 0,92 -206,0 0,-92z" /><path style="fill:#000;stroke:#4c4c4c;stroke-width:2" d="M211,753 l114,0 92,-114 -162,-136 -44,44 0,206z" /><path style="fill:#333" d="M301,617 l344,0 0,22 -344,0 0,-22z" /><path style="fill:#7f7f7f;stroke:#4c4c4c;stroke-width:2" d="M301,571 l274,0 70,-24 0,92 -70,-22 -274,0 0,-46z" /><path style="fill:#bfb299" d="M211,547 l90,0 0,138 -90,0 0,-138z" /><path style="fill:#7f7f7f" d="M579,767 l142,82 133,-176 -189,-110 -86,204z" /><path style="fill:#666;stroke:#4c4c4c;stroke-width:2" d="M689,577 l193,48 -28,48 -165,-96z" /><path style="fill:none;stroke:#4c4c4c;stroke-width:2" d="M579,767 l142,82 133,-176 -189,-110 -86,204" /><path style="fill:#666" d="M617,757 l24,14 58,-156 -24,-14 -58,156z" /><path style="fill:#666" d="M703,775 l42,42 90,-116 -40,-32 -92,106z" /><path style="fill:#999;stroke:#4c4c4c;stroke-width:2" d="M645,571 l92,0 0,46 -92,0 0,-46z" /><path style="fill:#ccc;stroke:#4c4c4c;stroke-width:2" d="M679,387 l22,0 0,184 -22,0 0,-184z" /><path style="fill:#4c4c4c;stroke:#4c4c4c;stroke-width:2" d="M159,547 l34,-136 24,0 44,274 -22,0 -34,-252 -22,114 -24,0z" /><path style="fill:#f2e5cc" d="M27,547 l200,0 -16,138 90,0 0,206 -274,0 0,-344z" /><path style="fill:#ede0c7" d="M27,791 l274,-144 0,244 -274,0 0,-100z" /><path style="fill:#e8dbc2" d="M27,805 l274,-142 0,228 -274,0 0,-86z" /><path style="fill:#e3d6bd" d="M27,827 l274,-144 0,208 -274,0 0,-64z" /><path style="fill:none;stroke:#4c4c4c;stroke-width:2" d="M27,547 l200,0 -16,138 90,0 0,206 -274,0 0,-344" /><path style="fill:none;stroke:#fc0;stroke-width:2" d="M187,685 l0,-34 114,0 0,34" /><path style="fill:none;stroke:#fc0;stroke-width:2" d="M187,667 l114,0" /><path style="fill:none;stroke:#fc0;stroke-width:2" d="M221,685 l0,-34" /><path style="fill:none;stroke:#fc0;stroke-width:2" d="M267,685 l0,-34" /><path style="fill:#333;stroke:#4c4c4c;stroke-width:2" d="M175,605 l36,0 -6,62 -30,0 0,-62z" /><path style="fill:#333;stroke:#4c4c4c;stroke-width:2" d="M141,605 l30,0 0,62 -30,0 0,-62z" /><path style="fill:#333;stroke:#4c4c4c;stroke-width:2" d="M107,605 l28,0 0,62 -28,0 0,-62z" /><path style="fill:#665940;stroke:#4c4c4c;stroke-width:2" d="M47,853 l92,-154 14,8 -92,154 -14,-8z" /><path style="fill:none;stroke:#fff;stroke-width:2" d="M291,783 l0,90 -92,0" /><path style="fill:none;stroke:#bfb299;stroke-width:2" d="M291,783 l-92,0 0,90" /><path style="fill:none;stroke:#4c4c4c;stroke-width:2" d="M691,571 l0,-104" /><path style="fill:none;stroke:#fc0;stroke-width:2" d="M147,457 l0,-34 114,0 0,34" /><path style="fill:none;stroke:#fc0;stroke-width:2" d="M147,439 l114,0" /><path style="fill:none;stroke:#fc0;stroke-width:2" d="M183,457 l0,-34" /><path style="fill:none;stroke:#fc0;stroke-width:2" d="M227,457 l0,-34" /><path style="fill:none;stroke:#fc0;stroke-width:2" d="M97,679 l0,-34 114,0 0,34" /><path style="fill:none;stroke:#fc0;stroke-width:2" d="M97,663 l114,0" /><path style="fill:none;stroke:#fc0;stroke-width:2" d="M131,679 l0,-34" /><path style="fill:none;stroke:#fc0;stroke-width:2" d="M177,679 l0,-34" /><path style="fill:none;stroke:#fc0;stroke-width:2" d="M75,807 l-30,-16 56,-100 30,18" /><path style="fill:none;stroke:#fc0;stroke-width:2" d="M59,799 l58,-98" /><path style="fill:none;stroke:#fc0;stroke-width:2" d="M91,779 l-30,-18" /><path style="fill:none;stroke:#fc0;stroke-width:2" d="M115,739 l-30,-18" /><path style="fill:none;stroke:#fc0;stroke-width:2" d="M0,851 l0,-34 113,0 0,34" /><path style="fill:none;stroke:#fc0;stroke-width:2" d="M0,833 l113,0" /><path style="fill:none;stroke:#fc0;stroke-width:2" d="M33,851 l0,-34" /><path style="fill:none;stroke:#fc0;stroke-width:2" d="M79,851 l0,-34" /><path style="fill:none;stroke:#fc0;stroke-width:2" d="M301,645 l0,-34 116,0 0,34" /><path style="fill:none;stroke:#fc0;stroke-width:2" d="M301,627 l116,0" /><path style="fill:none;stroke:#fc0;stroke-width:2" d="M337,645 l0,-34" /><path style="fill:none;stroke:#fc0;stroke-width:2" d="M383,645 l0,-34" /><path style="fill:none;stroke:#fc0;stroke-width:2" d="M307,891 l0,-34 34,0 0,34" /><path style="fill:none;stroke:#fc0;stroke-width:2" d="M307,873 l34,0" /><path style="fill:#333;stroke:#4c4c4c;stroke-width:2" d="M27,891 l314,0 0,16 -314,0 0,-16z" /><path style="fill:#333;stroke:#4c4c4c;stroke-width:2" d="M301,645 l116,0 0,12 -116,0 0,-12z" /><path style="fill:#333;stroke:#4c4c4c;stroke-width:2" d="M147,457 l114,0 0,10 -114,0 0,-10z" /><path style="fill:#4c4c4c;stroke:#4c4c4c;stroke-width:2" d="M0,851 l181,0 0,73 -181,0 0,-73z" /><path style="fill:#4c4c4c;stroke:#4c4c4c;stroke-width:2" d="M21,924 l24,0 0,75 -24,0 0,-75z" /><path style="fill:#4c4c4c;stroke:#4c4c4c;stroke-width:2" d="M107,924 l24,0 0,75 -24,0 0,-75z" /><path style="fill:#4c4c4c;stroke:#4c4c4c;stroke-width:2" d="M199,907 l22,0 0,92 -22,0 0,-92z" /><path style="fill:#4c4c4c;stroke:#4c4c4c;stroke-width:2" d="M279,907 l22,0 0,92 -22,0 0,-92z" /><path style="fill:#000;stroke:#4c4c4c;stroke-width:2" d="M97,679 l114,0 0,28 -114,0 0,-28z" /></svg>