<!DOCTYPE svg PUBLIC "-//W3C//DTD SVG 20000303 Stylable//EN" "http://www.w3.org/TR/2000/03/WD-SVG-20000303/DTD/svg-20000303-stylable.dtd"[]><svg xmlns="http://www.w3.org/2000/svg" width="999px" height="614px" viewBox="0 0 998 591"><path style="fill:#4c1900" d="M309,245 l-36,-132 -150,-92 152,0 686,142 -272,298 -640,0 0,-216 260,0z" /><path style="fill:#000;fill-rule:evenodd" d="M681,287 l28,0 0,304 -28,0 0,-304z M643,297 l26,-8 78,294 -26,8 -78,-294z M607,315 l24,-14 152,264 -24,14 -152,-264z M577,341 l20,-18 216,214 -20,20 -216,-216z M555,375 l16,-24 262,152 -14,24 -264,-152z M545,413 l6,-26 294,78 -6,28 -294,-80z M543,453 l0,-26 304,0 0,26 -304,0z M551,493 l-6,-28 294,-78 6,26 -294,80z M571,527 l-16,-24 264,-152 14,24 -262,152z M597,557 l-20,-20 216,-214 20,18 -216,216z M631,579 l-24,-14 152,-264 24,14 -152,264z M669,591 l-26,-8 78,-294 26,8 -78,294z M247,287 l26,0 0,304 -26,0 0,-304z M207,297 l28,-8 78,294 -28,8 -78,-294z M171,315 l24,-14 154,264 -24,14 -154,-264z M143,341 l20,-18 214,214 -20,20 -214,-216z M121,375 l14,-24 264,152 -14,24 -264,-152z M109,413 l8,-26 294,78 -8,28 -294,-80z M107,453 l0,-26 306,0 0,26 -306,0z M117,493 l-8,-28 294,-78 8,26 -294,80z M135,527 l-14,-24 264,-152 14,24 -264,152z M163,557 l-20,-20 214,-214 20,18 -214,216z M195,579 l-24,-14 154,-264 24,14 -154,264z M235,591 l-28,-8 78,-294 28,8 -78,294z " /><circle style="fill:#333;stroke:#4c4c4c;stroke-width:2" cx="695" cy="440" r="146" /><circle style="fill:#333;stroke:#4c4c4c;stroke-width:2" cx="260" cy="440" r="145" /><circle style="fill:#4c4c4c" cx="695" cy="439" r="62" /><circle style="fill:#4c4c4c" cx="260" cy="439" r="63" /><circle style="fill:#c90;stroke:#4c4c4c;stroke-width:2" cx="695" cy="440" r="48" /><circle style="fill:#c90;stroke:#4c4c4c;stroke-width:2" cx="260" cy="440" r="49" /><path style="fill:#000" d="M701,447 l26,6 -4,8 -8,6 -6,4 -8,-24z" /><path style="fill:#000" d="M689,447 l-8,24 -8,-4 -6,-6 -4,-8 26,-6z" /><path style="fill:#000" d="M689,433 l-26,-6 4,-8 6,-6 8,-6 8,26z" /><path style="fill:#000" d="M701,433 l8,-26 6,6 8,6 4,8 -26,6z" /><path style="fill:#000" d="M267,447 l26,6 -6,8 -6,6 -8,4 -6,-24z" /><path style="fill:#000" d="M253,447 l-6,24 -8,-4 -6,-6 -6,-8 26,-6z" /><path style="fill:#000" d="M253,433 l-26,-6 6,-8 6,-6 8,-6 6,26z" /><path style="fill:#000" d="M267,433 l6,-26 8,6 6,6 6,8 -26,6z" /><path style="fill:#fc0;stroke:#4c4c4c;stroke-width:2" d="M477,331 l-44,-152 -184,-158 -129,0 43,-21 194,0 566,21 75,136 -521,174z" /><path style="fill:#e5b200" d="M499,157 l455,0 -411,130 -44,-130z" /><path style="fill:#e5b200" d="M499,135 l-44,-86 458,22 20,64 -434,0z" /><path style="fill:#e5e5e5;stroke:#4c4c4c;stroke-width:2" d="M44,325 l0,-48 10,0 0,48 -10,0z" /><path style="fill:none;stroke:#fc0;stroke-width:2" d="M37,461 l0,-260" /><path style="fill:none;stroke:#fc0;stroke-width:2" d="M16,461 l0,-260" /><path style="fill:none;stroke:#fc0;stroke-width:2" d="M16,265 l21,0" /><path style="fill:none;stroke:#fc0;stroke-width:2" d="M16,287 l21,0" /><path style="fill:none;stroke:#fc0;stroke-width:2" d="M16,309 l21,0" /><path style="fill:none;stroke:#fc0;stroke-width:2" d="M16,331 l21,0" /><path style="fill:none;stroke:#fc0;stroke-width:2" d="M16,353 l21,0" /><path style="fill:none;stroke:#fc0;stroke-width:2" d="M16,375 l21,0" /><path style="fill:none;stroke:#fc0;stroke-width:2" d="M16,397 l21,0" /><path style="fill:none;stroke:#fc0;stroke-width:2" d="M16,419 l21,0" /><path style="fill:none;stroke:#fc0;stroke-width:2" d="M16,439 l21,0" /><path style="fill:none;stroke:#fc0;stroke-width:2" d="M16,245 l21,0" /><path style="fill:none;stroke:#fc0;stroke-width:2" d="M16,223 l21,0" /><path style="fill:#d9a600;stroke:#4c4c4c;stroke-width:2" d="M97,109 l212,0 0,136 -212,0 0,-136z" /><path style="fill:#300" d="M189,135 l28,0 0,66 -28,0 0,-66z" /><path style="fill:#300" d="M103,135 l38,0 -12,66 -26,0 0,-66z" /><path style="fill:#300" d="M151,135 l28,0 0,66 -38,0 10,-66z" /><path style="fill:#f2bf00;fill-rule:evenodd" d="M69,109 l240,0 0,-18 -240,0 0,18z M44,245 l369,0 0,20 -262,0 -97,218 -54,0 0,-22 44,0 47,-114 -47,0 0,-22 59,0 26,-60 -85,0 0,-20z M54,325 l0,-48 43,6 0,38 -43,4z " /><path style="fill:none;stroke:#4c4c4c;stroke-width:2" d="M69,109 l240,0 0,-18 -240,0 0,18" /><path style="fill:none;stroke:#4c4c4c;stroke-width:2" d="M44,245 l369,0 0,20 -262,0 -97,218 -54,0 0,-22 44,0 47,-114 -47,0 0,-22 59,0 26,-60 -85,0 0,-20" /><path style="fill:none;stroke:#4c4c4c;stroke-width:2" d="M54,325 l0,-48 43,6 0,38 -43,4" /></svg>