<!DOCTYPE svg PUBLIC "-//W3C//DTD SVG 20000303 Stylable//EN" "http://www.w3.org/TR/2000/03/WD-SVG-20000303/DTD/svg-20000303-stylable.dtd"[]><svg xmlns="http://www.w3.org/2000/svg" width="999px" height="919px" viewBox="0 0 999 915"><path style="fill:#4c1900" d="M207,707 l584,0 0,20 -584,0 0,-20z" /><path style="fill:#4c3200" d="M31,373 l936,0 0,-333 -936,0 0,333z" /><path style="fill:#422b00" d="M31,373 l936,0 0,-298 -936,0 0,298z" /><path style="fill:#382400" d="M31,373 l936,0 0,-260 -936,0 0,260z" /><path style="fill:#302100" d="M31,373 l936,0 0,-224 -936,0 0,224z" /><path style="fill:#261900" d="M31,373 l936,0 0,-188 -936,0 0,188z" /><path style="fill:#1c1200" d="M31,373 l936,0 0,-152 -936,0 0,152z" /><path style="fill:#120a00" d="M31,373 l936,0 0,-114 -936,0 0,114z" /><path style="fill:#0a0700" d="M31,373 l936,0 0,-78 -936,0 0,78z" /><path style="fill:#000" d="M31,373 l936,0 0,-42 -936,0 0,42z" /><path style="fill:none;stroke:#4c4c4c;stroke-width:2" d="M31,373 l936,0 0,-333 -936,0 0,333" /><path style="fill:#4c3200" d="M937,40 l31,0 0,167 -31,0 0,-167z" /><path style="fill:#4c3200" d="M809,40 l30,0 0,167 -30,0 0,-167z" /><path style="fill:#4c3200" d="M679,40 l30,0 0,167 -30,0 0,-167z" /><path style="fill:#4c3200" d="M549,40 l30,0 0,167 -30,0 0,-167z" /><path style="fill:#4c3200" d="M419,40 l32,0 0,167 -32,0 0,-167z" /><path style="fill:#4c3200" d="M289,40 l32,0 0,167 -32,0 0,-167z" /><path style="fill:#4c3200" d="M161,40 l30,0 0,167 -30,0 0,-167z" /><path style="fill:#4c3200" d="M31,40 l30,0 0,167 -30,0 0,-167z" /><path style="fill:#c90" d="M83,289 l250,0 0,84 -250,0 0,-84z" /><path style="fill:#bf8c00" d="M83,289 l250,0 0,42 -250,0 0,-42z" /><path style="fill:#b27f00" d="M83,289 l250,0 0,22 -250,0 0,-22z" /><path style="fill:none;stroke:#4c4c4c;stroke-width:2" d="M83,289 l250,0 0,84 -250,0 0,-84" /><path style="fill:#000" d="M665,519 l334,0 0,364 -21,22 -291,0 -22,-22 0,-364z" /><path style="fill:#000" d="M0,519 l333,0 0,364 -22,22 -291,0 -20,-22 0,-364z" /><path style="fill:#333" d="M791,561 l208,0 0,332 -21,22 -167,0 -20,-22 0,-332z" /><path style="fill:#333" d="M0,561 l207,0 0,332 -20,22 -167,0 -20,-22 0,-332z" /><path style="fill:#4c4c4c" d="M811,613 l166,0 0,280 -166,0 0,-280z" /><path style="fill:#4c4c4c" d="M20,613 l167,0 0,280 -167,0 0,-280z" /><path style="fill:#4c4c4c;stroke:#4c4c4c;stroke-width:2" d="M707,165 l208,0 22,166 -250,0 20,-166z" /><path style="fill:#e5b200;stroke:#4c4c4c;stroke-width:2" d="M687,331 l250,0 0,42 -250,0 0,-42z" /><path style="fill:#e5b200;stroke:#4c4c4c;stroke-width:2" d="M0,373 l999,0 0,166 -999,0 0,-166z" /><path style="fill:none;stroke:#4c4c4c;stroke-width:2" d="M791,561 l208,0 0,332 -21,22 -167,0 -20,-22 0,-332" /><path style="fill:none;stroke:#4c4c4c;stroke-width:2" d="M0,561 l207,0 0,332 -20,22 -167,0 -20,-22 0,-332" /><path style="fill:#191919" d="M725,179 l174,0 16,138 -208,0 18,-138z" /><path style="fill:none;stroke:#4c4c4c;stroke-width:2" d="M229,373 l0,-124 -229,0 0,124" /><path style="fill:none;stroke:#4c4c4c;stroke-width:2" d="M113,249 l0,124" /><path style="fill:none;stroke:#4c4c4c;stroke-width:2" d="M229,311 l-229,0" /><path style="fill:none;stroke:#4c4c4c;stroke-width:2" d="M999,373 l0,-124 -230,0 0,124" /><path style="fill:none;stroke:#4c4c4c;stroke-width:2" d="M885,249 l0,124" /><path style="fill:none;stroke:#4c4c4c;stroke-width:2" d="M999,311 l-230,0" /><path style="fill:none;stroke:#4c4c4c;stroke-width:2" d="M697,311 l-396,0" /><path style="fill:none;stroke:#4c4c4c;stroke-width:2" d="M433,249 l0,124" /><path style="fill:none;stroke:#4c4c4c;stroke-width:2" d="M697,373 l0,-124 -396,0 0,124" /><path style="fill:none;stroke:#4c4c4c;stroke-width:2" d="M565,373 l0,-124" /><path style="fill:none;stroke:#b27f00;stroke-width:2" d="M103,529 l94,0 0,-62" /><path style="fill:none;stroke:#b27f00;stroke-width:2" d="M801,529 l94,0 0,-62" /><path style="fill:none;stroke:#ffe57f;stroke-width:2" d="M801,529 l0,-62 94,0" /><path style="fill:none;stroke:#ffe57f;stroke-width:2" d="M103,529 l0,-62 94,0" /><circle style="fill:#f5c200;stroke:#960;stroke-width:2" cx="848" cy="431" r="27" /><circle style="fill:#f5c200;stroke:#960;stroke-width:2" cx="150" cy="431" r="27" /><path style="fill:none;stroke:#fc0;stroke-width:2" d="M239,363 l0,416" /><path style="fill:none;stroke:#fc0;stroke-width:2" d="M291,363 l0,416" /><path style="fill:none;stroke:#fc0;stroke-width:2" d="M239,405 l52,0" /><path style="fill:none;stroke:#fc0;stroke-width:2" d="M239,447 l52,0" /><path style="fill:none;stroke:#fc0;stroke-width:2" d="M239,487 l52,0" /><path style="fill:none;stroke:#fc0;stroke-width:2" d="M239,529 l52,0" /><path style="fill:none;stroke:#fc0;stroke-width:2" d="M239,571 l52,0" /><path style="fill:none;stroke:#fc0;stroke-width:2" d="M239,613 l52,0" /><path style="fill:none;stroke:#fc0;stroke-width:2" d="M239,655 l52,0" /><path style="fill:none;stroke:#fc0;stroke-width:2" d="M239,697 l52,0" /><path style="fill:none;stroke:#fc0;stroke-width:2" d="M291,737 l-52,0" /><path style="fill:none;stroke:#fc0;stroke-width:2" d="M707,363 l0,416" /><path style="fill:none;stroke:#fc0;stroke-width:2" d="M759,363 l0,416" /><path style="fill:none;stroke:#fc0;stroke-width:2" d="M707,405 l52,0" /><path style="fill:none;stroke:#fc0;stroke-width:2" d="M707,447 l52,0" /><path style="fill:none;stroke:#fc0;stroke-width:2" d="M707,487 l52,0" /><path style="fill:none;stroke:#fc0;stroke-width:2" d="M707,529 l52,0" /><path style="fill:none;stroke:#fc0;stroke-width:2" d="M707,571 l52,0" /><path style="fill:none;stroke:#fc0;stroke-width:2" d="M707,613 l52,0" /><path style="fill:none;stroke:#fc0;stroke-width:2" d="M707,655 l52,0" /><path style="fill:none;stroke:#fc0;stroke-width:2" d="M707,697 l52,0" /><path style="fill:none;stroke:#fc0;stroke-width:2" d="M759,737 l-52,0" /><path style="fill:#fc0" d="M311,353 l376,0 0,312 -376,0 0,-312z" /><path style="fill:#f5c200" d="M311,517 l376,-124 0,272 -376,0 0,-148z" /><path style="fill:#ebb800" d="M311,561 l376,-124 0,228 -376,0 0,-104z" /><path style="fill:#e0ad00" d="M311,621 l376,-124 0,168 -376,0 0,-44z" /><path style="fill:none;stroke:#4c4c4c;stroke-width:2" d="M311,353 l376,0 0,312 -376,0 0,-312" /><path style="fill:#333" d="M343,383 l312,0 0,282 -312,0 0,-282z" /><path style="fill:#191919" d="M353,393 l292,0 0,126 -292,0 0,-126z" /><path style="fill:#191919" d="M353,529 l292,0 0,126 -292,0 0,-126z" /><path style="fill:#ccc" d="M613,393 l32,0 0,12 -32,0 0,-12z" /><path style="fill:#ccc" d="M353,393 l32,0 0,12 -32,0 0,-12z" /><path style="fill:#ccc" d="M353,643 l32,0 0,12 -32,0 0,-12z" /><path style="fill:#ccc" d="M613,643 l32,0 0,12 -32,0 0,-12z" /><path style="fill:#7f7f7f" d="M10,405 l83,0 0,62 -83,0 0,-62z" /><path style="fill:#7f7f7f" d="M905,405 l83,0 0,62 -83,0 0,-62z" /><path style="fill:#f60" d="M905,447 l83,0 0,10 -83,0 0,-10z" /><path style="fill:#f60" d="M10,447 l83,0 0,10 -83,0 0,-10z" /><path style="fill:#fc0;stroke:#4c4c4c;stroke-width:2" d="M187,665 l624,0 0,42 -624,0 0,-42z" /><path style="fill:#fc0;stroke:#4c4c4c;stroke-width:2" d="M0,0 l999,0 0,40 -999,0 0,-40z" /></svg>