<!DOCTYPE svg PUBLIC "-//W3C//DTD SVG 20000303 Stylable//EN" "http://www.w3.org/TR/2000/03/WD-SVG-20000303/DTD/svg-20000303-stylable.dtd"[]><svg xmlns="http://www.w3.org/2000/svg" width="999px" height="610px" viewBox="0 0 999 587"><path style="fill:#000" d="M81,207 l62,-181 136,0 160,445 -352,6 -6,-270z" /><path style="fill:#c90;stroke:#4c4c4c;stroke-width:2" d="M345,299 l484,-70 -50,226 -380,0 -54,-156z" /><path style="fill:none;stroke:#fc0;stroke-width:2" d="M681,311 l0,28 -280,0" /><path style="fill:none;stroke:#fc0;stroke-width:2" d="M401,437 l0,-88 142,0" /><path style="fill:none;stroke:#960;stroke-width:2" d="M681,311 l-280,0 0,28" /><path style="fill:none;stroke:#960;stroke-width:2" d="M401,437 l142,0 0,-88" /><path style="fill:#fc0;stroke:#4c4c4c;stroke-width:2" d="M241,455 l462,0 0,22 -462,0 0,-22z" /><path style="fill:#000;fill-rule:evenodd" d="M701,585 l-28,-8 84,-310 28,8 -84,310z M661,573 l-26,-16 162,-276 24,14 -160,278z M625,551 l-20,-22 226,-226 22,20 -228,228z M597,519 l-14,-24 278,-162 14,26 -278,160z M577,481 l-8,-28 312,-82 6,28 -310,82z M569,441 l0,-30 320,0 0,30 -320,0z M569,399 l8,-28 310,82 -6,28 -312,-82z M583,359 l14,-26 278,162 -14,24 -278,-160z M605,323 l20,-20 228,226 -22,22 -226,-228z M635,295 l26,-14 160,276 -24,16 -162,-278z M673,275 l28,-8 84,310 -28,8 -84,-310z M715,265 l28,0 0,322 -28,0 0,-322z M193,585 l-30,-8 84,-310 28,8 -82,310z M151,573 l-24,-16 160,-276 26,14 -162,278z M117,551 l-22,-22 228,-226 20,20 -226,228z M87,519 l-14,-24 278,-162 14,26 -278,160z M70,481 l-9,-28 310,-82 8,28 -309,82z M59,441 l0,-30 322,0 0,30 -322,0z M61,399 l9,-28 309,82 -8,28 -310,-82z M73,359 l14,-26 278,162 -14,24 -278,-160z M95,323 l22,-20 226,226 -20,22 -228,-228z M127,295 l24,-14 162,276 -26,16 -160,-278z M163,275 l30,-8 82,310 -28,8 -84,-310z M205,265 l28,0 0,322 -28,0 0,-322z " /><circle style="fill:#333;stroke:#4c4c4c;stroke-width:2" cx="728" cy="426" r="153" /><circle style="fill:#333;stroke:#4c4c4c;stroke-width:2" cx="220" cy="426" r="153" /><circle style="fill:#4c4c4c" cx="220" cy="427" r="65" /><circle style="fill:#4c4c4c" cx="729" cy="427" r="66" /><circle style="fill:#c90;stroke:#4c4c4c;stroke-width:2" cx="220" cy="426" r="51" /><circle style="fill:#c90;stroke:#4c4c4c;stroke-width:2" cx="728" cy="426" r="51" /><path style="fill:#ffd940;stroke:#4c4c4c;stroke-width:2" d="M339,301 l-88,-264 -148,-5 0,-32 16,0 0,16 144,0 702,43 34,148 -660,94z" /><path style="fill:#fc0;stroke:#4c4c4c;stroke-width:2" d="M77,317 l54,-44 182,0 -66,-225 -116,0 -38,115 -16,10 0,144z" /><path style="fill:#333" d="M119,141 l24,-71 92,0 16,71 -132,0z" /><path style="fill:#999;stroke:#4c4c4c;stroke-width:2" d="M317,295 l-180,-22 0,-22 174,0 6,44z" /><path style="fill:#ccc;stroke:#4c4c4c;stroke-width:2" d="M0,251 l137,0 0,10 -137,0 0,-10z" /><path style="fill:none;stroke:#fc0;stroke-width:2" d="M203,70 l0,77" /><path style="fill:none;stroke:#4c4c4c;stroke-width:2" d="M285,191 l-285,0 0,60" /><path style="fill:none;stroke:#4c4c4c;stroke-width:2" d="M0,223 l295,0" /><path style="fill:none;stroke:#4c4c4c;stroke-width:2" d="M87,191 l0,60" /><path style="fill:none;stroke:#4c4c4c;stroke-width:2" d="M163,191 l0,60" /><path style="fill:none;stroke:#4c4c4c;stroke-width:2" d="M235,191 l0,60" /><path style="fill:none;stroke:#fff2bf;stroke-width:2" d="M439,75 l20,60 -122,0" /><path style="fill:none;stroke:#fff2bf;stroke-width:2" d="M587,75 l20,60 -122,0" /><path style="fill:none;stroke:#fff2bf;stroke-width:2" d="M735,75 l20,60 -120,0" /><path style="fill:none;stroke:#fff2bf;stroke-width:2" d="M883,75 l20,60 -120,0" /><path style="fill:none;stroke:#fff2bf;stroke-width:2" d="M461,157 l20,60 -122,0" /><path style="fill:none;stroke:#fff2bf;stroke-width:2" d="M609,157 l20,60 -122,0" /><path style="fill:none;stroke:#fff2bf;stroke-width:2" d="M757,157 l20,60 -120,0" /><path style="fill:none;stroke:#c90;stroke-width:2" d="M883,75 l-120,0 20,60" /><path style="fill:none;stroke:#c90;stroke-width:2" d="M735,75 l-120,0 20,60" /><path style="fill:none;stroke:#c90;stroke-width:2" d="M757,157 l-120,0 20,60" /><path style="fill:none;stroke:#c90;stroke-width:2" d="M609,157 l-122,0 20,60" /><path style="fill:none;stroke:#c90;stroke-width:2" d="M587,75 l-122,0 20,60" /><path style="fill:none;stroke:#c90;stroke-width:2" d="M439,75 l-122,0 20,60" /><path style="fill:none;stroke:#c90;stroke-width:2" d="M461,157 l-122,0 20,60" /></svg>