<!DOCTYPE svg PUBLIC "-//W3C//DTD SVG 20000303 Stylable//EN" "http://www.w3.org/TR/2000/03/WD-SVG-20000303/DTD/svg-20000303-stylable.dtd"[]><svg xmlns="http://www.w3.org/2000/svg" width="999px" height="633px" viewBox="0 0 999 611"><path style="fill:#7f0000" d="M137,511 l800,0 0,12 -800,0 0,-12z" /><path style="fill:#7f7f7f" d="M137,173 l-137,0 0,-50 137,0 0,50z" /><path style="fill:#999" d="M137,171 l-137,0 0,-44 137,0 0,44z" /><path style="fill:#b2b2b2" d="M137,165 l-137,0 0,-34 137,0 0,34z" /><path style="fill:#ccc" d="M137,159 l-137,0 0,-22 137,0 0,22z" /><path style="fill:#e5e5e5" d="M137,155 l-137,0 0,-14 137,0 0,14z" /><path style="fill:#fff" d="M137,151 l-137,0 0,-6 137,0 0,6z" /><path style="fill:none;stroke:#4c4c4c;stroke-width:2" d="M137,173 l-137,0 0,-50 137,0 0,50" /><path style="fill:#000" d="M937,211 l62,0 0,38 -62,0 0,-38z" /><path style="fill:#7f0000" d="M937,401 l13,0 0,-28 35,0 0,28 9,0 0,30 -9,0 0,30 -35,0 0,-30 -13,0 0,-30z" /><path style="fill:#f00" d="M937,407 l13,0 0,-22 35,0 0,22 9,0 0,20 -9,0 0,22 -35,0 0,-22 -13,0 0,-20z" /><path style="fill:none;stroke:#4c4c4c;stroke-width:2" d="M937,401 l13,0 0,-28 35,0 0,28 9,0 0,30 -9,0 0,30 -35,0 0,-30 -13,0 0,-30" /><path style="fill:#e50000" d="M937,511 l0,100 -62,0 -88,-100 150,0z" /><path style="fill:#e50000" d="M137,511 l0,100 62,0 88,-100 -150,0z" /><path style="fill:#b20000" d="M910,511 l0,88 -23,0 -74,-88 97,0z" /><path style="fill:#b20000" d="M161,511 l0,88 26,0 74,-88 -100,0z" /><path style="fill:#c00" d="M137,511 l0,-450 24,-49 50,-12 650,0 49,12 27,49 0,450 -800,0z" /><path style="fill:#e50000" d="M137,61 l24,-49 50,-12 650,0 49,12 27,49 -800,0z" /><path style="fill:#f00" d="M161,12 l50,-12 650,0 49,12 -749,0z" /><path style="fill:none;stroke:#4c4c4c;stroke-width:2" d="M137,511 l0,-450 24,-49 50,-12 650,0 49,12 27,49 0,450 -800,0" /><path style="fill:#ccc" d="M125,111 l824,0 0,374 -824,0 0,-374z" /><path style="fill:#c7c7c7" d="M125,377 l824,-156 0,264 -824,0 0,-108z" /><path style="fill:#c2c2c2" d="M125,393 l824,-156 0,248 -824,0 0,-92z" /><path style="fill:#bdbdbd" d="M125,417 l824,-158 0,226 -824,0 0,-68z" /><path style="fill:none;stroke:#4c4c4c;stroke-width:2" d="M125,111 l824,0 0,374 -824,0 0,-374" /><path style="fill:none;stroke:#fff;stroke-width:2" d="M161,361 l0,-150 749,0" /><path style="fill:#b2b2b2" d="M161,361 l26,0 0,100 -26,0 0,-100z" /><path style="fill:#b2b2b2" d="M287,361 l50,0 0,100 -50,0 0,-100z" /><path style="fill:#b2b2b2" d="M437,361 l50,0 0,100 -50,0 0,-100z" /><path style="fill:#b2b2b2" d="M587,361 l50,0 0,100 -50,0 0,-100z" /><path style="fill:#b2b2b2" d="M737,361 l50,0 0,100 -50,0 0,-100z" /><path style="fill:#b2b2b2" d="M887,361 l23,0 0,100 -23,0 0,-100z" /><path style="fill:none;stroke:#999;stroke-width:2" d="M487,461 l100,0 0,-100" /><path style="fill:none;stroke:#999;stroke-width:2" d="M637,461 l100,0 0,-100" /><path style="fill:none;stroke:#999;stroke-width:2" d="M787,461 l100,0 0,-100" /><path style="fill:none;stroke:#999;stroke-width:2" d="M187,461 l100,0 0,-100" /><path style="fill:none;stroke:#999;stroke-width:2" d="M337,461 l100,0 0,-100" /><path style="fill:none;stroke:#fff;stroke-width:2" d="M787,461 l0,-100" /><path style="fill:none;stroke:#fff;stroke-width:2" d="M637,461 l0,-100" /><path style="fill:none;stroke:#fff;stroke-width:2" d="M487,461 l0,-100" /><path style="fill:none;stroke:#fff;stroke-width:2" d="M337,461 l0,-100" /><path style="fill:none;stroke:#fff;stroke-width:2" d="M187,461 l0,-100" /><path style="fill:#ccc;stroke:#4c4c4c;stroke-width:2" d="M187,85 l100,0 0,26 -100,0 0,-26z" /><path style="fill:#ccc;stroke:#4c4c4c;stroke-width:2" d="M337,85 l100,0 0,26 -100,0 0,-26z" /><path style="fill:#ccc;stroke:#4c4c4c;stroke-width:2" d="M487,85 l100,0 0,26 -100,0 0,-26z" /><path style="fill:#ccc;stroke:#4c4c4c;stroke-width:2" d="M637,85 l100,0 0,26 -100,0 0,-26z" /><path style="fill:#ccc;stroke:#4c4c4c;stroke-width:2" d="M787,85 l100,0 0,26 -100,0 0,-26z" /><path style="fill:#e5e5e5;stroke:#4c4c4c;stroke-width:2" d="M199,74 l12,0 0,11 -12,0 0,-11z" /><path style="fill:#e5e5e5;stroke:#4c4c4c;stroke-width:2" d="M261,74 l14,0 0,11 -14,0 0,-11z" /><path style="fill:#e5e5e5;stroke:#4c4c4c;stroke-width:2" d="M349,74 l12,0 0,11 -12,0 0,-11z" /><path style="fill:#e5e5e5;stroke:#4c4c4c;stroke-width:2" d="M411,74 l14,0 0,11 -14,0 0,-11z" /><path style="fill:#e5e5e5;stroke:#4c4c4c;stroke-width:2" d="M499,74 l12,0 0,11 -12,0 0,-11z" /><path style="fill:#e5e5e5;stroke:#4c4c4c;stroke-width:2" d="M561,74 l14,0 0,11 -14,0 0,-11z" /><path style="fill:#e5e5e5;stroke:#4c4c4c;stroke-width:2" d="M649,74 l12,0 0,11 -12,0 0,-11z" /><path style="fill:#e5e5e5;stroke:#4c4c4c;stroke-width:2" d="M711,74 l14,0 0,11 -14,0 0,-11z" /><path style="fill:#e5e5e5;stroke:#4c4c4c;stroke-width:2" d="M799,74 l12,0 0,11 -12,0 0,-11z" /><path style="fill:#e5e5e5;stroke:#4c4c4c;stroke-width:2" d="M861,74 l14,0 0,11 -14,0 0,-11z" /><path style="fill:#999" d="M263,23 l636,0 11,38 -661,0 14,-38z" /><path style="fill:#7f7f7f" d="M287,35 l588,0 12,26 -612,0 12,-26z" /><path style="fill:#b2b2b2;stroke:#4c4c4c;stroke-width:2" d="M475,487 l124,0 0,124 -124,0 0,-124z" /><path style="fill:none;stroke:#4c4c4c;stroke-width:2" d="M937,511 l0,100 -62,0 -88,-100 150,0" /><path style="fill:none;stroke:#4c4c4c;stroke-width:2" d="M137,511 l0,100 62,0 88,-100 -150,0" /><path style="fill:#7f7f7f" d="M281,245 l-8,-10 8,-12 12,0 6,12 -6,10 -12,0z" /><path style="fill:#7f7f7f" d="M181,245 l-6,-10 6,-12 12,0 6,12 -6,10 -12,0z" /><path style="fill:#7f7f7f" d="M181,349 l-6,-12 6,-10 12,0 6,10 -6,12 -12,0z" /><path style="fill:#7f7f7f" d="M281,349 l-8,-12 8,-10 12,0 6,10 -6,12 -12,0z" /><path style="fill:#7f7f7f" d="M431,245 l-8,-10 8,-12 12,0 6,12 -6,10 -12,0z" /><path style="fill:#7f7f7f" d="M331,245 l-6,-10 6,-12 12,0 6,12 -6,10 -12,0z" /><path style="fill:#7f7f7f" d="M331,349 l-6,-12 6,-10 12,0 6,10 -6,12 -12,0z" /><path style="fill:#7f7f7f" d="M431,349 l-8,-12 8,-10 12,0 6,10 -6,12 -12,0z" /><path style="fill:#7f7f7f" d="M581,245 l-8,-10 8,-12 12,0 6,12 -6,10 -12,0z" /><path style="fill:#7f7f7f" d="M481,245 l-6,-10 6,-12 12,0 6,12 -6,10 -12,0z" /><path style="fill:#7f7f7f" d="M481,349 l-6,-12 6,-10 12,0 6,10 -6,12 -12,0z" /><path style="fill:#7f7f7f" d="M581,349 l-8,-12 8,-10 12,0 6,10 -6,12 -12,0z" /><path style="fill:#7f7f7f" d="M731,245 l-8,-10 8,-12 12,0 6,12 -6,10 -12,0z" /><path style="fill:#7f7f7f" d="M631,245 l-6,-10 6,-12 12,0 6,12 -6,10 -12,0z" /><path style="fill:#7f7f7f" d="M631,349 l-6,-12 6,-10 12,0 6,10 -6,12 -12,0z" /><path style="fill:#7f7f7f" d="M731,349 l-8,-12 8,-10 12,0 6,10 -6,12 -12,0z" /><path style="fill:#7f7f7f" d="M881,245 l-8,-10 8,-12 12,0 6,12 -6,10 -12,0z" /><path style="fill:#7f7f7f" d="M781,245 l-6,-10 6,-12 12,0 6,12 -6,10 -12,0z" /><path style="fill:#7f7f7f" d="M781,349 l-6,-12 6,-10 12,0 6,10 -6,12 -12,0z" /><path style="fill:#7f7f7f" d="M881,349 l-8,-12 8,-10 12,0 6,10 -6,12 -12,0z" /><path style="fill:#7f7f7f" d="M255,395 l-6,-10 6,-12 12,0 8,12 -8,10 -12,0z" /><path style="fill:#7f7f7f" d="M205,395 l-6,-10 6,-12 12,0 8,12 -8,10 -12,0z" /><path style="fill:#7f7f7f" d="M205,449 l-6,-12 6,-10 12,0 8,10 -8,12 -12,0z" /><path style="fill:#7f7f7f" d="M255,449 l-6,-12 6,-10 12,0 8,10 -8,12 -12,0z" /><path style="fill:#7f7f7f" d="M405,395 l-6,-10 6,-12 12,0 8,12 -8,10 -12,0z" /><path style="fill:#7f7f7f" d="M355,395 l-6,-10 6,-12 12,0 8,12 -8,10 -12,0z" /><path style="fill:#7f7f7f" d="M355,449 l-6,-12 6,-10 12,0 8,10 -8,12 -12,0z" /><path style="fill:#7f7f7f" d="M405,449 l-6,-12 6,-10 12,0 8,10 -8,12 -12,0z" /><path style="fill:#7f7f7f" d="M555,395 l-6,-10 6,-12 12,0 8,12 -8,10 -12,0z" /><path style="fill:#7f7f7f" d="M505,395 l-6,-10 6,-12 12,0 8,12 -8,10 -12,0z" /><path style="fill:#7f7f7f" d="M505,449 l-6,-12 6,-10 12,0 8,10 -8,12 -12,0z" /><path style="fill:#7f7f7f" d="M555,449 l-6,-12 6,-10 12,0 8,10 -8,12 -12,0z" /><path style="fill:#7f7f7f" d="M705,395 l-6,-10 6,-12 12,0 8,12 -8,10 -12,0z" /><path style="fill:#7f7f7f" d="M655,395 l-6,-10 6,-12 12,0 8,12 -8,10 -12,0z" /><path style="fill:#7f7f7f" d="M655,449 l-6,-12 6,-10 12,0 8,10 -8,12 -12,0z" /><path style="fill:#7f7f7f" d="M705,449 l-6,-12 6,-10 12,0 8,10 -8,12 -12,0z" /><path style="fill:#7f7f7f" d="M855,395 l-6,-10 6,-12 12,0 8,12 -8,10 -12,0z" /><path style="fill:#7f7f7f" d="M805,395 l-6,-10 6,-12 12,0 8,12 -8,10 -12,0z" /><path style="fill:#7f7f7f" d="M805,449 l-6,-12 6,-10 12,0 8,10 -8,12 -12,0z" /><path style="fill:#7f7f7f" d="M855,449 l-6,-12 6,-10 12,0 8,10 -8,12 -12,0z" /><path style="fill:none;stroke:#999;stroke-width:2" d="M161,361 l749,0 0,-150" /><path style="fill:none;stroke:#999;stroke-width:2" d="M463,361 l0,-150 148,0" /><path style="fill:none;stroke:#999;stroke-width:2" d="M461,211 l0,150" /><path style="fill:none;stroke:#999;stroke-width:2" d="M611,211 l0,150" /><path style="fill:none;stroke:#999;stroke-width:2" d="M761,211 l0,150" /><path style="fill:none;stroke:#999;stroke-width:2" d="M311,211 l0,150" /></svg>