<!DOCTYPE svg PUBLIC "-//W3C//DTD SVG 20000303 Stylable//EN" "http://www.w3.org/TR/2000/03/WD-SVG-20000303/DTD/svg-20000303-stylable.dtd"[]><svg xmlns="http://www.w3.org/2000/svg" width="999px" height="861px" viewBox="0 0 999 853"><path style="fill:#ccc;stroke:#4c4c4c;stroke-width:2" d="M749,665 l124,-82 64,-146 19,-146 43,-62 0,-126 -43,-103 -19,103 -22,42 -166,84 -334,40 -20,-42 -22,22 -228,-62 -145,-126 0,188 249,228 0,188 146,22 42,40 -22,42 42,84 104,-20 42,-42 146,-126z" /><path style="fill:none;stroke:#4c4c4c;stroke-width:2" d="M623,603 l0,-42 42,-42 146,-42 42,-62 0,-62 -42,-42 -146,-20 -208,42 -42,-22 0,-42 -62,0 -62,42" /><path style="fill:none;stroke:#4c4c4c;stroke-width:2" d="M645,623 l104,42" /><path style="fill:none;stroke:#4c4c4c;stroke-width:2" d="M749,665 l-104,-42 -500,-436 -84,20 -61,42" /><path style="fill:none;stroke:#4c4c4c;stroke-width:2" d="M956,291 l-41,0 0,-146" /><path style="fill:none;stroke:#4c4c4c;stroke-width:2" d="M937,103 l62,0" /><path style="fill:none;stroke:#4c4c4c;stroke-width:2" d="M353,373 l20,-40 42,-22 22,126" /><path style="fill:none;stroke:#4c4c4c;stroke-width:2" d="M249,477 l354,314" /><path style="fill:#fff;stroke:#4c4c4c;stroke-width:2" d="M283,645 l-12,-12 0,-18 12,-12 16,0 12,12 0,18 -12,12 -16,0z" /><path style="fill:#fff;stroke:#4c4c4c;stroke-width:2" d="M469,811 l-12,-12 0,-18 12,-12 18,0 12,12 0,18 -12,12 -18,0z" /></svg>