<!DOCTYPE svg PUBLIC "-//W3C//DTD SVG 20000303 Stylable//EN" "http://www.w3.org/TR/2000/03/WD-SVG-20000303/DTD/svg-20000303-stylable.dtd"[]><svg xmlns="http://www.w3.org/2000/svg" width="893px" height="999px" viewBox="0 0 887 998"><path style="fill:#ccc;stroke:#4c4c4c;stroke-width:2" d="M112,613 l48,142 125,98 134,58 50,55 120,32 110,-14 -94,-46 -34,-31 -38,-182 46,-330 46,-10 -16,-26 120,-204 158,-108 -180,-47 -286,181 -180,-48 -58,134 -50,30 -36,-32 -89,20 -8,104 30,52 82,172z" /><path style="fill:none;stroke:#4c4c4c;stroke-width:2" d="M205,509 l40,10 28,52 4,150 48,58 60,16 52,-30 58,-136 12,-210 32,-36 40,12 16,-60 -24,-72" /><path style="fill:none;stroke:#4c4c4c;stroke-width:2" d="M180,523 l-68,90" /><path style="fill:none;stroke:#4c4c4c;stroke-width:2" d="M112,613 l68,-90 549,-368 2,-85 -24,-70" /><path style="fill:none;stroke:#4c4c4c;stroke-width:2" d="M419,911 l10,-40 142,36" /><path style="fill:none;stroke:#4c4c4c;stroke-width:2" d="M605,938 l-16,60" /><path style="fill:none;stroke:#4c4c4c;stroke-width:2" d="M495,307 l34,32 10,44 -126,-12" /><path style="fill:none;stroke:#4c4c4c;stroke-width:2" d="M421,181 l-391,260" /><path style="fill:#fff;stroke:#4c4c4c;stroke-width:2" d="M253,169 l14,-8 18,4 8,16 -4,16 -16,8 -16,-4 -8,-16 4,-16z" /><path style="fill:#fff;stroke:#4c4c4c;stroke-width:2" d="M44,307 l16,-8 15,4 9,14 -4,18 -15,8 -18,-4 -7,-16 4,-16z" /></svg>