<!DOCTYPE svg PUBLIC "-//W3C//DTD SVG 20000303 Stylable//EN" "http://www.w3.org/TR/2000/03/WD-SVG-20000303/DTD/svg-20000303-stylable.dtd"[]><svg xmlns="http://www.w3.org/2000/svg" width="925px" height="999px" viewBox="0 0 921 999"><path style="fill:#963;stroke:#4c4c4c;stroke-width:2" d="M787,95 l-38,-18 -38,-77 -78,0 -76,19 -58,-19 -134,40 -78,0 -96,55 -18,78 -78,18 -37,78 -39,18 -19,154 76,20 193,0 96,18 134,-18 96,0 116,18 154,-18 56,-38 -18,-96 -58,-96 -38,-40 -20,-96z" /><path style="fill:#630" d="M845,423 l-38,-40 38,-38 -20,-38 -18,38 -96,38 134,40z" /><path style="fill:#630" d="M595,58 l76,19 58,0 -38,38 -20,58 0,-58 -76,-57z" /><path style="fill:#630" d="M191,173 l20,18 76,-38 78,38 76,-58 -20,-93 0,75 -114,18 -20,-38 -38,58 -58,20z" /><path style="fill:#630" d="M461,173 l58,58 -20,56 -78,20 -18,-38 -78,18 -38,-38 20,58 76,38 58,0 58,78 38,0 0,-78 38,-38 116,20 76,-58 -76,38 -58,-20 -18,-38 38,-38 -58,20 -96,-58 0,-58 -38,58z" /><path style="fill:#630" d="M269,441 l-20,-38 -58,-38 -38,38 -95,20 -21,-40 21,-56 0,56 75,0 40,-56 76,18 38,58 -18,38z" /><path style="fill:#ccc;stroke:#4c4c4c;stroke-width:2" d="M691,827 l116,-78 58,-134 18,-134 38,-58 0,-116 -38,-96 -18,96 -20,38 -154,78 -308,38 -18,-38 -20,18 -212,-58 -133,-114 0,172 229,212 0,174 136,18 38,38 -20,39 38,77 98,-20 38,-39 134,-113z" /><path style="fill:none;stroke:#4c4c4c;stroke-width:2" d="M575,769 l0,-40 40,-38 134,-38 38,-58 0,-58 -38,-38 -134,-18 -194,38 -38,-20 0,-38 -58,0 -56,38" /><path style="fill:none;stroke:#4c4c4c;stroke-width:2" d="M595,787 l96,40" /><path style="fill:none;stroke:#4c4c4c;stroke-width:2" d="M691,827 l-96,-40 -462,-404 -75,20 -58,38" /><path style="fill:none;stroke:#4c4c4c;stroke-width:2" d="M883,481 l-38,0 0,-136" /><path style="fill:none;stroke:#4c4c4c;stroke-width:2" d="M865,307 l56,0" /><path style="fill:none;stroke:#4c4c4c;stroke-width:2" d="M325,557 l20,-38 38,-20 20,116" /><path style="fill:none;stroke:#4c4c4c;stroke-width:2" d="M229,653 l328,287" /><path style="fill:#fff;stroke:#4c4c4c;stroke-width:2" d="M261,807 l-12,-12 0,-16 12,-10 16,0 10,10 0,16 -10,12 -16,0z" /><path style="fill:#fff;stroke:#4c4c4c;stroke-width:2" d="M433,961 l-12,-12 0,-16 12,-11 16,0 12,11 0,16 -12,12 -16,0z" /></svg>