<!DOCTYPE svg PUBLIC "-//W3C//DTD SVG 20000303 Stylable//EN" "http://www.w3.org/TR/2000/03/WD-SVG-20000303/DTD/svg-20000303-stylable.dtd"[]><svg xmlns="http://www.w3.org/2000/svg" width="999px" height="863px" viewBox="0 0 999 855"><path style="fill:#c00" d="M21,855 l0,-776 58,0 0,-30 862,0 0,30 58,0 0,776 -978,0z" /><path style="fill:#b20000" d="M21,575 l978,0 0,244 -978,0 0,-244z" /><path style="fill:#c00" d="M229,575 l158,0 0,244 -158,0 0,-244z" /><path style="fill:#c00" d="M511,575 l114,0 0,244 -114,0 0,-244z" /><path style="fill:#c00" d="M727,575 l86,0 0,244 -86,0 0,-244z" /><path style="fill:none;stroke:#f00;stroke-width:2" d="M21,301 l969,0" /><path style="fill:none;stroke:#f00;stroke-width:2" d="M147,49 l-12,-10 0,-14 12,-12 14,0 10,12 0,14 -10,10 -14,0" /><path style="fill:none;stroke:#f00;stroke-width:2" d="M813,49 l-16,-14 0,-19 16,-16 20,0 14,16 0,19 -14,14 -20,0" /><path style="fill:#b20000" d="M21,401 l28,0 0,74 -28,0 0,-74z" /><path style="fill:#b20000" d="M968,401 l31,0 0,74 -31,0 0,-74z" /><path style="fill:#b20000" d="M827,841 l-252,0 0,14 252,0 0,-14z" /><path style="fill:#b20000" d="M445,841 l-252,0 0,14 252,0 0,-14z" /><path style="fill:#e50000" d="M21,295 l0,-216 58,0 0,-30 862,0 0,30 58,0 0,216 -978,0z" /><path style="fill:#f00" d="M79,79 l0,-30 862,0 0,30 -862,0z" /><path style="fill:none;stroke:#4c4c4c;stroke-width:2" d="M21,855 l0,-776 58,0 0,-30 862,0 0,30 58,0 0,776 -978,0" /><path style="fill:#d90000" d="M495,93 l30,0 0,202 -30,0 0,-202z" /><path style="fill:#d90000" d="M561,93 l28,0 0,202 -28,0 0,-202z" /><path style="fill:#d90000" d="M625,93 l28,0 0,202 -28,0 0,-202z" /><path style="fill:#d90000" d="M691,93 l28,0 0,202 -28,0 0,-202z" /><path style="fill:#d90000" d="M755,93 l28,0 0,202 -28,0 0,-202z" /><path style="fill:#d90000" d="M819,93 l28,0 0,202 -28,0 0,-202z" /><path style="fill:#d90000" d="M885,93 l28,0 0,202 -28,0 0,-202z" /><path style="fill:#d90000" d="M949,93 l28,0 0,202 -28,0 0,-202z" /><path style="fill:#d90000" d="M237,93 l28,0 0,202 -28,0 0,-202z" /><path style="fill:#d90000" d="M301,93 l28,0 0,202 -28,0 0,-202z" /><path style="fill:#d90000" d="M365,93 l30,0 0,202 -30,0 0,-202z" /><path style="fill:#d90000" d="M431,93 l28,0 0,202 -28,0 0,-202z" /><path style="fill:#d90000" d="M41,93 l30,0 0,202 -30,0 0,-202z" /><path style="fill:#d90000" d="M107,93 l28,0 0,202 -28,0 0,-202z" /><path style="fill:#d90000" d="M171,93 l30,0 0,202 -30,0 0,-202z" /><path style="fill:#333;stroke:#4c4c4c;stroke-width:2" d="M0,525 l21,0 0,186 -21,0 0,-186z" /><path style="fill:none;stroke:#f00;stroke-width:2" d="M21,819 l208,0 0,-244" /><path style="fill:none;stroke:#f00;stroke-width:2" d="M387,819 l124,0 0,-244" /><path style="fill:none;stroke:#f00;stroke-width:2" d="M625,819 l100,0 0,-244" /><path style="fill:none;stroke:#f00;stroke-width:2" d="M813,819 l186,0" /><path style="fill:none;stroke:#7f0000;stroke-width:2" d="M21,575 l208,0" /><path style="fill:none;stroke:#7f0000;stroke-width:2" d="M625,819 l0,-244 100,0" /><path style="fill:none;stroke:#7f0000;stroke-width:2" d="M387,819 l0,-244 124,0" /><path style="fill:none;stroke:#7f0000;stroke-width:2" d="M813,819 l0,-244 186,0" /><path style="fill:none;stroke:#7f0000;stroke-width:2" d="M193,841 l252,0" /><path style="fill:none;stroke:#7f0000;stroke-width:2" d="M575,841 l252,0" /><path style="fill:#e50000;stroke:#4c4c4c;stroke-width:2" d="M683,539 l-28,28 -32,20 -36,10 -38,0 -36,-10 -34,-20 -26,-28 -6,20 -32,32 -40,22 -44,12 -46,0 -44,-12 -38,-22 -32,-32 -24,-40 -12,-44 0,-44 12,-46 24,-38 32,-32 38,-22 44,-12 46,0 44,12 40,22 32,32 6,18 26,-28 34,-18 36,-10 38,0 36,10 32,18 28,28 16,-4 26,-16 28,-8 30,0 30,8 26,16 22,22 16,26 6,28 0,30 -6,30 -16,26 -22,22 -26,16 -30,6 -30,0 -28,-6 -26,-16 -16,-6z" /><circle style="fill:#f00;stroke:#4c4c4c;stroke-width:2" cx="769" cy="453" r="58" /><circle style="fill:#f00;stroke:#4c4c4c;stroke-width:2" cx="567" cy="453" r="86" /><circle style="fill:#f00;stroke:#4c4c4c;stroke-width:2" cx="308" cy="452" r="115" /><path style="fill:#7f0000" d="M173,383 l8,-12 12,6 -6,14 -14,-8z" /><path style="fill:#7f0000" d="M181,535 l-8,-14 12,-6 8,12 -12,8z" /><path style="fill:#7f0000" d="M315,605 l-14,0 0,-16 14,0 0,16z" /><path style="fill:#7f0000" d="M301,301 l16,0 0,14 -16,0 0,-14z" /><path style="fill:#7f0000" d="M435,371 l8,12 -12,8 -8,-12 12,-8z" /><path style="fill:#7f0000" d="M443,523 l-8,12 -12,-8 8,-12 12,8z" /><path style="fill:#7f0000" d="M487,545 l-12,-10 12,-10 10,10 -10,10z" /><path style="fill:#7f0000" d="M475,373 l12,-12 10,10 -12,12 -10,-10z" /><path style="fill:#7f0000" d="M649,361 l10,10 -10,10 -10,-10 10,-10z" /><path style="fill:#7f0000" d="M661,533 l-12,12 -10,-12 10,-10 12,10z" /><path style="fill:#7f0000" d="M709,525 l-12,-12 10,-10 12,12 -10,10z" /><path style="fill:#7f0000" d="M841,513 l-10,12 -12,-12 12,-10 10,10z" /><path style="fill:#7f0000" d="M829,381 l12,10 -10,12 -12,-12 10,-10z" /><path style="fill:#7f0000" d="M697,391 l10,-10 12,10 -12,12 -10,-12z" /><circle style="fill:#999;stroke:#4c4c4c;stroke-width:2" cx="768" cy="453" r="37" /><circle style="fill:#000" cx="769" cy="453" r="22" /><path style="fill:#ffb2b2" d="M389,395 l-18,-22 -24,-14 -26,-8 -26,0 -26,8 -22,14 -20,18 -12,22 -8,26 0,28 8,24 12,24 22,18 -14,-16 -14,-24 -6,-24 0,-26 6,-24 14,-22 18,-18 22,-12 24,-8 26,0 24,6 22,14 18,16z" /><path style="fill:#ffb2b2" d="M633,413 l-14,-16 -18,-12 -20,-4 -20,0 -18,4 -18,12 -14,14 -12,16 -4,20 0,20 4,18 12,18 16,14 -12,-12 -10,-18 -4,-18 0,-20 4,-18 10,-16 14,-14 16,-10 18,-6 20,0 18,6 18,10 14,12z" /></svg>