<!DOCTYPE svg PUBLIC "-//W3C//DTD SVG 20000303 Stylable//EN" "http://www.w3.org/TR/2000/03/WD-SVG-20000303/DTD/svg-20000303-stylable.dtd"[]><svg xmlns="http://www.w3.org/2000/svg" width="999px" height="999px" viewBox="0 0 999 999"><path style="fill:#e5cb98;stroke:#4c4c4c;stroke-width:2" d="M821,723 l3,164 -54,-66 -107,32 -75,146 -16,-85 -107,-25 -140,85 30,-81 -80,-72 -164,3 66,-54 -36,-107 -141,-75 84,-16 25,-110 -85,-135 81,28 72,-83 -3,-161 54,66 107,-36 75,-141 16,84 105,22 140,-82 -28,81 80,70 164,-1 -66,54 36,107 142,75 -85,16 -22,105 82,142 -81,-30 -72,80z" /><path style="fill:#eddbb7" d="M164,657 l-35,-192 71,-180 143,-121 190,-35 178,67 126,145 34,190 -69,180 -145,123 -190,33 -180,-63 -123,-147z" /><path style="fill:#f0e1c2" d="M164,657 l-35,-192 71,-180 143,-121 156,335 338,-158 34,190 -69,180 -145,123 -158,-335 -335,158z" /><path style="fill:#f2e5cc" d="M129,465 l71,-180 299,214 372,32 -69,180 -303,-212 -370,-34z" /><circle style="fill:none;stroke:#7f7f7f;stroke-width:2" cx="499" cy="499" r="170" /><path style="fill:#331900" d="M410,556 l-12,-25 -4,-28 0,-26 10,-29 16,-24 22,-14 25,-12 28,-4 26,0 29,10 24,16 14,22 12,25 4,28 0,26 -10,29 -16,24 -22,14 -25,12 -28,4 -26,0 -29,-10 -24,-16 -14,-22z" /><path style="fill:#331900" d="M638,400 l-16,-20 -6,-20 8,-23 19,-12 22,-6 22,10 12,16 4,21 -8,22 -14,18 -24,2 -19,-8z" /><circle style="fill:#331900" cx="536" cy="706" r="43" /><circle style="fill:#331900" cx="300" cy="427" r="44" /><path style="fill:#f2e5cc;stroke:#4c4c4c;stroke-width:2" d="M90,384 l-22,6 -16,-23 10,-22 22,-4 17,19 -11,24z" /><path style="fill:#f2e5cc;stroke:#4c4c4c;stroke-width:2" d="M90,602 l-20,14 -22,-8 -2,-22 16,-18 24,10 4,24z" /><path style="fill:#f2e5cc;stroke:#4c4c4c;stroke-width:2" d="M194,792 l-4,22 -26,7 -17,-20 8,-25 25,-4 14,20z" /><path style="fill:#f2e5cc;stroke:#4c4c4c;stroke-width:2" d="M384,908 l6,22 -23,16 -22,-10 -4,-22 19,-17 24,11z" /><path style="fill:#f2e5cc;stroke:#4c4c4c;stroke-width:2" d="M602,908 l14,20 -8,22 -22,2 -18,-16 10,-24 24,-4z" /><path style="fill:#f2e5cc;stroke:#4c4c4c;stroke-width:2" d="M792,804 l25,7 4,23 -20,17 -25,-8 0,-25 16,-14z" /><path style="fill:#f2e5cc;stroke:#4c4c4c;stroke-width:2" d="M908,614 l22,-6 16,23 -10,22 -22,4 -17,-19 11,-24z" /><path style="fill:#f2e5cc;stroke:#4c4c4c;stroke-width:2" d="M908,396 l20,-14 22,8 2,22 -16,18 -24,-10 -4,-24z" /><path style="fill:#f2e5cc;stroke:#4c4c4c;stroke-width:2" d="M206,194 l-22,-4 -7,-26 20,-17 25,8 4,25 -20,14z" /><path style="fill:#f2e5cc;stroke:#4c4c4c;stroke-width:2" d="M396,90 l-14,-20 8,-22 22,-2 18,16 -10,24 -24,4z" /><path style="fill:#f2e5cc;stroke:#4c4c4c;stroke-width:2" d="M614,90 l-6,-22 23,-16 22,10 4,22 -19,17 -24,-11z" /><path style="fill:#f2e5cc;stroke:#4c4c4c;stroke-width:2" d="M804,206 l7,-25 23,-4 17,20 -8,25 -25,0 -14,-16z" /></svg>