<!DOCTYPE svg PUBLIC "-//W3C//DTD SVG 20000303 Stylable//EN" "http://www.w3.org/TR/2000/03/WD-SVG-20000303/DTD/svg-20000303-stylable.dtd"[]><svg xmlns="http://www.w3.org/2000/svg" width="999px" height="331px" viewBox="0 0 998 291"><path style="fill:#7f7f7f" d="M0,61 l22,-19 561,0 0,207 -561,0 -22,-20 0,-168z" /><path style="fill:#bfcc00" d="M583,42 l20,-42 62,0 22,19 227,42 42,42 0,84 -42,42 -227,40 -22,22 -62,0 -20,-42 0,-207z" /><path style="fill:#4c4c4c;stroke:#4c4c4c;stroke-width:2" d="M956,187 l42,-42 -42,-42 0,84z" /><path style="fill:#c4d100" d="M583,51 l20,-35 62,0 22,17 227,38 42,36 0,74 -42,38 -227,38 -22,18 -62,0 -20,-38 0,-186z" /><path style="fill:#ccd900" d="M583,63 l20,-31 62,0 22,16 227,31 42,32 0,66 -42,32 -227,34 -22,16 -62,0 -20,-32 0,-164z" /><path style="fill:#d1de00" d="M583,75 l20,-30 62,0 22,14 227,30 42,28 0,56 -42,28 -227,28 -22,14 -62,0 -20,-28 0,-140z" /><path style="fill:#d8e500" d="M583,85 l20,-24 62,0 22,12 227,24 42,24 0,48 -42,24 -227,22 -22,12 -62,0 -20,-22 0,-120z" /><path style="fill:#deeb00" d="M583,97 l20,-20 62,0 22,10 227,18 42,20 0,38 -42,20 -227,20 -22,10 -62,0 -20,-20 0,-96z" /><path style="fill:#e5f200" d="M583,107 l20,-13 62,0 22,7 227,14 42,14 0,30 -42,16 -227,14 -22,8 -62,0 -20,-16 0,-74z" /><path style="fill:#eaf700" d="M583,119 l20,-10 62,0 22,4 227,10 42,12 0,20 -42,10 -227,10 -22,6 -62,0 -20,-10 0,-52z" /><path style="fill:#f2ff00" d="M583,131 l20,-6 62,0 22,2 227,6 42,6 0,12 -42,6 -227,6 -22,2 -62,0 -20,-6 0,-28z" /><path style="fill:none;stroke:#ff0;stroke-width:2" d="M603,291 l0,-291" /><path style="fill:none;stroke:#ff0;stroke-width:2" d="M665,0 l0,291" /><path style="fill:none;stroke:#ff0;stroke-width:2" d="M687,269 l0,-250" /><path style="fill:none;stroke:#ff0;stroke-width:2" d="M914,61 l0,168" /><path style="fill:#8a8a8a" d="M0,69 l22,-18 561,0 0,188 -561,0 -22,-20 0,-150z" /><path style="fill:#919191" d="M0,77 l22,-16 561,0 0,168 -561,0 -22,-18 0,-134z" /><path style="fill:#9c9c9c" d="M0,87 l22,-16 561,0 0,146 -561,0 -22,-14 0,-116z" /><path style="fill:#a6a6a6" d="M0,95 l22,-11 561,0 0,123 -561,0 -22,-12 0,-100z" /><path style="fill:#b0b0b0" d="M0,103 l22,-9 561,0 0,103 -561,0 -22,-10 0,-84z" /><path style="fill:#b8b8b8" d="M0,111 l22,-8 561,0 0,84 -561,0 -22,-10 0,-66z" /><path style="fill:#c2c2c2" d="M0,119 l22,-6 561,0 0,62 -561,0 -22,-6 0,-50z" /><path style="fill:#ccc" d="M0,129 l22,-4 561,0 0,40 -561,0 -22,-4 0,-32z" /><path style="fill:none;stroke:#4c4c4c;stroke-width:2" d="M561,42 l0,207" /><path style="fill:#4c4c4c" d="M58,42 l113,0 0,207 -113,0 0,-207z" /><path style="fill:#575757" d="M61,51 l104,0 0,188 -104,0 0,-188z" /><path style="fill:#5e5e5e" d="M61,61 l104,0 0,168 -104,0 0,-168z" /><path style="fill:#696969" d="M61,71 l104,0 0,146 -104,0 0,-146z" /><path style="fill:#737373" d="M61,84 l104,0 0,123 -104,0 0,-123z" /><path style="fill:#7d7d7d" d="M61,94 l104,0 0,103 -104,0 0,-103z" /><path style="fill:#858585" d="M61,103 l104,0 0,84 -104,0 0,-84z" /><path style="fill:#8f8f8f" d="M61,113 l104,0 0,62 -104,0 0,-62z" /><path style="fill:#999" d="M61,125 l104,0 0,40 -104,0 0,-40z" /><path style="fill:none;stroke:#4c4c4c;stroke-width:2" d="M0,61 l22,-19 561,0 0,207 -561,0 -22,-20 0,-168" /><path style="fill:#4c4c4c" d="M113,113 l52,0 0,48 -52,0 0,-48z" /><path style="fill:#4c4c4c" d="M61,161 l52,0 0,46 -52,0 0,-46z" /><path style="fill:none;stroke:#4c4c4c;stroke-width:2" d="M583,42 l20,-42 62,0 22,19 227,42 42,42 0,84 -42,42 -227,40 -22,22 -62,0 -20,-42 0,-207" /></svg>