<!DOCTYPE svg PUBLIC "-//W3C//DTD SVG 20000303 Stylable//EN" "http://www.w3.org/TR/2000/03/WD-SVG-20000303/DTD/svg-20000303-stylable.dtd"[]><svg xmlns="http://www.w3.org/2000/svg" width="999px" height="999px" viewBox="0 0 999 999"><path style="fill:#e5cb98;stroke:#4c4c4c;stroke-width:2" d="M889,464 l110,124 -85,-16 -61,93 34,159 -66,-54 -97,51 -53,153 -29,-81 -108,-4 -124,110 16,-85 -95,-59 -157,32 54,-66 -51,-99 -153,-49 81,-31 1,-111 -106,-121 84,16 59,-95 -32,-157 66,54 96,-51 52,-153 31,81 107,1 125,-106 -16,84 95,59 157,-32 -54,66 51,96 153,54 -81,29 -4,108z" /><path style="fill:#eddbb7" d="M343,835 l-149,-124 -63,-184 32,-186 124,-147 180,-65 190,32 147,124 65,182 -34,188 -124,147 -177,67 -191,-34z" /><path style="fill:#f0e1c2" d="M343,835 l-149,-124 -63,-184 32,-186 336,158 158,-338 147,124 65,182 -34,188 -336,-156 -156,336z" /><path style="fill:#f2e5cc" d="M194,711 l-63,-184 368,-28 305,-214 65,182 -370,32 -305,212z" /><circle style="fill:none;stroke:#7f7f7f;stroke-width:2" cx="499" cy="499" r="170" /><path style="fill:#331900" d="M467,600 l-25,-12 -22,-18 -16,-21 -10,-28 -4,-28 8,-26 12,-25 18,-22 21,-16 28,-10 28,-4 26,8 25,12 22,18 16,21 10,28 4,28 -8,26 -12,25 -18,22 -21,16 -28,10 -28,4 -26,-8z" /><path style="fill:#331900" d="M541,333 l-24,-4 -18,-12 -8,-22 6,-22 14,-19 23,-6 20,4 16,15 8,22 0,22 -16,16 -21,6z" /><path style="fill:#331900" d="M620,616 l14,-18 25,-6 20,4 18,15 6,20 -2,22 -14,16 -22,8 -23,-2 -16,-16 -8,-20 2,-23z" /><path style="fill:#331900" d="M337,546 l6,22 -2,22 -14,18 -22,6 -23,-3 -17,-15 -9,-22 4,-20 14,-19 23,-8 22,4 18,15z" /><path style="fill:#f2e5cc;stroke:#4c4c4c;stroke-width:2" d="M113,673 l-15,18 -26,-6 -6,-22 14,-18 25,3 8,25z" /><path style="fill:#f2e5cc;stroke:#4c4c4c;stroke-width:2" d="M252,841 l-6,24 -22,8 -16,-16 0,-24 26,-9 18,17z" /><path style="fill:#f2e5cc;stroke:#4c4c4c;stroke-width:2" d="M455,920 l9,20 -15,20 -25,-4 -10,-24 16,-18 25,6z" /><path style="fill:#f2e5cc;stroke:#4c4c4c;stroke-width:2" d="M673,885 l18,15 -6,26 -22,6 -18,-14 3,-25 25,-8z" /><path style="fill:#f2e5cc;stroke:#4c4c4c;stroke-width:2" d="M841,746 l24,6 8,22 -16,16 -24,0 -9,-26 17,-18z" /><path style="fill:#f2e5cc;stroke:#4c4c4c;stroke-width:2" d="M920,543 l22,-9 20,15 -6,25 -24,10 -17,-18 5,-23z" /><path style="fill:#f2e5cc;stroke:#4c4c4c;stroke-width:2" d="M885,325 l15,-18 26,6 6,22 -14,18 -25,-3 -8,-25z" /><path style="fill:#f2e5cc;stroke:#4c4c4c;stroke-width:2" d="M746,157 l6,-24 22,-8 16,16 0,24 -26,9 -18,-17z" /><path style="fill:#f2e5cc;stroke:#4c4c4c;stroke-width:2" d="M78,455 l-20,9 -20,-15 4,-25 24,-10 18,16 -6,25z" /><path style="fill:#f2e5cc;stroke:#4c4c4c;stroke-width:2" d="M157,252 l-24,-6 -8,-22 16,-16 24,0 9,26 -17,18z" /><path style="fill:#f2e5cc;stroke:#4c4c4c;stroke-width:2" d="M325,113 l-18,-15 6,-26 22,-6 18,14 -3,25 -25,8z" /><path style="fill:#f2e5cc;stroke:#4c4c4c;stroke-width:2" d="M543,78 l-9,-22 15,-20 25,6 10,24 -18,17 -23,-5z" /></svg>