<!DOCTYPE svg PUBLIC "-//W3C//DTD SVG 20000303 Stylable//EN" "http://www.w3.org/TR/2000/03/WD-SVG-20000303/DTD/svg-20000303-stylable.dtd"[]><svg xmlns="http://www.w3.org/2000/svg" width="999px" height="704px" viewBox="0 0 999 687"><path style="fill:#366;stroke:#4c4c4c;stroke-width:2" d="M895,26 l-772,0 -20,-26 -61,0 -27,26 0,645 880,0 0,-645z" /><path style="fill:#295c5c" d="M129,67 l114,0 0,562 -114,0 0,-562z" /><path style="fill:#194c4c" d="M109,375 l140,0 0,166 -140,0 0,-166z" /><path style="fill:#699;stroke:#4c4c4c;stroke-width:2" d="M249,35 l665,0 0,646 -665,0 0,-646z" /><path style="fill:#699;stroke:#4c4c4c;stroke-width:2" d="M146,285 l103,0 0,22 -103,0 0,-22z" /><path style="fill:#7fb2b2" d="M333,42 l519,0 0,145 -519,0 0,-145z" /><path style="fill:#699;stroke:#4c4c4c;stroke-width:2" d="M333,203 l519,0 0,166 -519,0 0,-166z" /><path style="fill:#366" d="M343,233 l500,0 0,104 -500,0 0,-104z" /><path style="fill:#033" d="M681,47 l166,0 0,78 -166,0 0,-78z" /><path style="fill:#033" d="M509,47 l166,0 0,78 -166,0 0,-78z" /><path style="fill:#033" d="M337,47 l168,0 0,78 -168,0 0,-78z" /><path style="fill:#366" d="M847,181 l-14,-56 14,-78 0,134z" /><path style="fill:#366" d="M681,181 l16,-56 -16,-78 0,134z" /><path style="fill:#366" d="M675,181 l-14,-56 14,-78 0,134z" /><path style="fill:#366" d="M509,181 l16,-56 -16,-78 0,134z" /><path style="fill:#366" d="M505,181 l-16,-56 16,-78 0,134z" /><path style="fill:#366" d="M339,181 l14,-56 -14,-78 0,134z" /><path style="fill:#619494" d="M311,389 l562,0 0,272 -562,0 0,-272z" /><path style="fill:#5c8f8f" d="M311,521 l564,-104 0,212 -564,0 0,-108z" /><path style="fill:#578a8a" d="M311,557 l564,-104 0,176 -564,0 0,-72z" /><path style="fill:#528585" d="M311,583 l564,-104 0,182 -564,0 0,-78z" /><path style="fill:none;stroke:#033;stroke-width:2" d="M311,661 l0,-272 562,0" /><path style="fill:#295c5c" d="M343,233 l500,0 0,38 -500,0 0,-38z" /><path style="fill:none;stroke:#033;stroke-width:2" d="M343,233 l500,0" /><path style="fill:none;stroke:#9cc;stroke-width:2" d="M843,337 l-500,0" /><path style="fill:#9cc;stroke:#4c4c4c;stroke-width:2" d="M895,0 l104,0 0,687 -104,0 0,-687z" /><path style="fill:#9cc;stroke:#4c4c4c;stroke-width:2" d="M0,15 l103,0 0,666 -103,0 0,-666z" /><path style="fill:#94c7c7" d="M895,299 l104,-14 0,166 -104,0 0,-152z" /><path style="fill:#94c7c7" d="M0,295 l103,-14 0,166 -103,0 0,-152z" /><path style="fill:#8fc2c2" d="M895,311 l104,-16 0,156 -104,0 0,-140z" /><path style="fill:#8fc2c2" d="M0,307 l103,-16 0,156 -103,0 0,-140z" /><path style="fill:#8abdbd" d="M895,321 l104,-16 0,380 -104,0 0,-364z" /><path style="fill:#8abdbd" d="M0,317 l103,-16 0,380 -103,0 0,-364z" /><path style="fill:#699" d="M895,26 l0,-20 97,0 0,20 -97,0z" /><path style="fill:#699" d="M6,42 l0,-20 97,0 0,20 -97,0z" /><path style="fill:none;stroke:#4c4c4c;stroke-width:2" d="M103,22 l-97,0 0,655 97,0" /><path style="fill:none;stroke:#4c4c4c;stroke-width:2" d="M895,681 l97,0 0,-675 -97,0" /><path style="fill:none;stroke:#4c4c4c;stroke-width:2" d="M895,301 l97,0" /><path style="fill:none;stroke:#4c4c4c;stroke-width:2" d="M6,297 l97,0" /><path style="fill:#4c7f7f;stroke:#4c4c4c;stroke-width:2" d="M343,233 l-58,-14 0,134 58,-16 0,-104z" /><path style="fill:#4c7f7f;stroke:#4c4c4c;stroke-width:2" d="M905,219 l-6,0 0,134 6,0 0,-134z" /><path style="fill:#7fb2b2;stroke:#4c4c4c;stroke-width:2" d="M843,233 l56,-14 0,134 -56,-16 0,-104z" /><path style="fill:#7fb2b2;stroke:#4c4c4c;stroke-width:2" d="M281,219 l4,0 0,134 -4,0 0,-134z" /><path style="fill:#699;stroke:#4c4c4c;stroke-width:2" d="M187,181 l62,0 0,64 -62,0 0,-64z" /><path style="fill:#699;stroke:#4c4c4c;stroke-width:2" d="M146,139 l41,0 0,146 -41,0 0,-146z" /><path style="fill:#7fb2b2" d="M187,189 l62,0 0,48 -62,0 0,-48z" /><path style="fill:#7fb2b2" d="M146,155 l41,0 0,116 -41,0 0,-116z" /><path style="fill:#9cc" d="M187,199 l62,0 0,28 -62,0 0,-28z" /><path style="fill:#9cc" d="M146,181 l41,0 0,64 -41,0 0,-64z" /><path style="fill:#b2e5e5" d="M187,211 l62,0 0,4 -62,0 0,-4z" /><path style="fill:#b2e5e5" d="M146,207 l41,0 0,12 -41,0 0,-12z" /><path style="fill:none;stroke:#cff;stroke-width:2" d="M885,239 l0,88 -38,-4" /><path style="fill:none;stroke:#4c4c4c;stroke-width:2" d="M333,317 l-32,6 0,-78" /></svg>