<!DOCTYPE svg PUBLIC "-//W3C//DTD SVG 20000303 Stylable//EN" "http://www.w3.org/TR/2000/03/WD-SVG-20000303/DTD/svg-20000303-stylable.dtd"[]><svg xmlns="http://www.w3.org/2000/svg" width="999px" height="286px" viewBox="0 0 999 243"><path style="fill:#033;stroke:#4c4c4c;stroke-width:2" d="M725,181 l0,24 100,0 50,-24 0,-26 -150,26z" /><path style="fill:#699;stroke:#4c4c4c;stroke-width:2" d="M955,215 l-9,4 -7,-2 -9,-2 -7,-4 -6,-6 -4,-6 -2,-8 0,-4 -124,0 0,-32 159,0 9,2 8,4 4,6 6,8 1,8 0,8 -1,8 -6,6 -4,6 -8,4z" /><circle style="fill:#9cc;stroke:#4c4c4c;stroke-width:2" cx="68" cy="193" r="50" /><circle style="fill:#9cc;stroke:#4c4c4c;stroke-width:2" cx="949" cy="49" r="50" /><path style="fill:#4c7f7f;stroke:#4c4c4c;stroke-width:2" d="M199,149 l0,-56 600,0 0,56 -600,0z" /><path style="fill:#366;stroke:#4c4c4c;stroke-width:2" d="M325,199 l-26,0 0,20 -24,0 -2,-20 -50,0 -64,-26 -26,6 -12,-26 38,-12 166,0 0,58z" /><path style="fill:#366;stroke:#4c4c4c;stroke-width:2" d="M685,141 l0,58 70,0 0,20 24,0 0,-20 34,0 0,-8 20,0 0,-44 -20,0 0,-6 -128,0z" /><path style="fill:#033;stroke:#4c4c4c;stroke-width:2" d="M311,181 l0,24 -100,0 -50,-24 0,-26 150,26z" /><path style="fill:#033;stroke:#4c4c4c;stroke-width:2" d="M731,217 l74,0 0,26 -74,0 0,-26z" /><path style="fill:#033;stroke:#4c4c4c;stroke-width:2" d="M249,217 l76,0 0,26 -76,0 0,-26z" /><path style="fill:#033;stroke:#4c4c4c;stroke-width:2" d="M37,243 l-12,-8 -12,-14 -4,-18 0,-22 4,-18 12,-14 12,-8 -18,8 -13,14 -6,18 0,22 6,18 13,14 18,8z" /><path style="fill:#033;stroke:#4c4c4c;stroke-width:2" d="M915,101 l-13,-5 -11,-17 -4,-17 0,-21 4,-20 11,-13 13,-8 -18,8 -12,13 -8,20 0,21 8,17 12,17 18,5z" /><path style="fill:#699;stroke:#4c4c4c;stroke-width:2" d="M223,147 l546,0 12,6 58,0 0,32 -58,0 -12,6 -546,0 0,-44z" /><path style="fill:none;stroke:#9cc;stroke-width:2" d="M235,159 l678,0" /><path style="fill:#699;stroke:#4c4c4c;stroke-width:2" d="M74,211 l-9,0 -6,-2 -6,-6 -1,-8 0,-6 1,-8 6,-6 6,-2 9,0 7,2 52,-22 8,20 -51,22 -5,8 -4,6 -7,2z" /><path style="fill:none;stroke:#033;stroke-width:2" d="M237,179 l674,0" /><path style="fill:#366;stroke:#4c4c4c;stroke-width:2" d="M833,191 l-26,-26 101,-106 0,-16 7,-13 9,-11 15,-6 16,0 13,6 11,11 6,13 0,16 -6,15 -11,11 -13,6 -16,0 -106,100z" /><path style="fill:#366;stroke:#4c4c4c;stroke-width:2" d="M877,46 l78,0 0,11 -78,0 0,-11z" /><path style="fill:#366;stroke:#4c4c4c;stroke-width:2" d="M0,185 l77,0 0,14 -77,0 0,-14z" /><path style="fill:#699;stroke:#4c4c4c;stroke-width:2" d="M811,169 l108,-107 0,-10 38,-27 17,18 -28,36 -10,0 -107,108 -18,-18z" /><path style="fill:none;stroke:#033;stroke-width:2" d="M599,143 l0,-44" /><path style="fill:none;stroke:#033;stroke-width:2" d="M399,143 l0,-44" /><path style="fill:none;stroke:#9cc;stroke-width:2" d="M605,143 l0,-44" /><path style="fill:none;stroke:#9cc;stroke-width:2" d="M405,143 l0,-44" /></svg>