<!DOCTYPE svg PUBLIC "-//W3C//DTD SVG 20000303 Stylable//EN" "http://www.w3.org/TR/2000/03/WD-SVG-20000303/DTD/svg-20000303-stylable.dtd"[]><svg xmlns="http://www.w3.org/2000/svg" width="999px" height="243px" viewBox="0 0 999 197"><path style="fill:#666" d="M191,31 l668,0 0,140 -668,0 0,-140z" /><path style="fill:#000;fill-rule:evenodd" d="M683,31 l16,0 0,166 -16,0 0,-166z M663,35 l14,-4 44,162 -16,2 -42,-160z M643,45 l14,-8 82,144 -12,8 -84,-144z M627,60 l10,-11 118,118 -10,10 -118,-117z M615,79 l8,-14 144,84 -8,12 -144,-82z M609,99 l4,-14 160,42 -2,16 -162,-44z M609,121 l0,-16 166,0 0,16 -166,0z M613,143 l-4,-16 162,-42 2,14 -160,44z M623,161 l-8,-12 144,-84 8,14 -144,82z M637,177 l-10,-10 118,-118 10,11 -118,117z M657,189 l-14,-8 84,-144 12,8 -82,144z M677,195 l-14,-2 42,-162 16,4 -44,160z M351,31 l14,0 0,166 -14,0 0,-166z M329,35 l14,-4 44,162 -14,2 -44,-160z M309,45 l14,-8 84,144 -14,8 -84,-144z M293,60 l12,-11 118,118 -12,10 -118,-117z M283,79 l6,-14 146,84 -8,12 -144,-82z M275,99 l4,-14 162,42 -4,16 -162,-44z M275,121 l0,-16 166,0 0,16 -166,0z M279,143 l-4,-16 162,-42 4,14 -162,44z M289,161 l-6,-12 144,-84 8,14 -146,82z M305,177 l-12,-10 118,-118 12,11 -118,117z M323,189 l-14,-8 84,-144 14,8 -84,144z M343,195 l-14,-2 44,-162 14,4 -44,160z " /><circle style="fill:#333" cx="692" cy="114" r="79" /><circle style="fill:#333" cx="358" cy="114" r="79" /><circle style="fill:#191919" cx="691" cy="113" r="42" /><circle style="fill:#191919" cx="358" cy="113" r="41" /><circle style="fill:#c30" cx="692" cy="114" r="35" /><circle style="fill:#c30" cx="358" cy="114" r="35" /><circle style="fill:#e5e5e5" cx="359" cy="113" r="28" /><circle style="fill:#e5e5e5" cx="691" cy="113" r="28" /><circle style="fill:none;stroke:#7f7f7f;stroke-width:2" cx="692" cy="114" r="17" /><circle style="fill:none;stroke:#7f7f7f;stroke-width:2" cx="358" cy="114" r="17" /><path style="fill:#e5e5e5;stroke:#4c4c4c;stroke-width:2" d="M255,175 l0,-144 166,0 42,62 0,82 124,0 0,-82 42,-62 166,0 0,144 104,0 0,-20 100,0 0,-124 -100,0 -20,-31 -578,0 -22,25 -140,0 -87,42 -52,37 0,71 255,0z" /><path style="fill:#999" d="M139,31 l0,104 116,0 0,-104 -116,0z" /><path style="fill:none;stroke:#fff;stroke-width:2" d="M6,135 l129,0 0,-83" /><path style="fill:none;stroke:#7f7f7f;stroke-width:2" d="M6,109 l52,-38 77,-36" /><path style="fill:none;stroke:#fff;stroke-width:2" d="M123,171 l0,-26 48,0" /><path style="fill:#b2b2b2" d="M139,104 l0,31 100,0 0,-31 -100,0z" /><path style="fill:#7f7f7f" d="M139,31 l0,36 116,0 0,-36 -116,0z" /><path style="fill:none;stroke:#4c4c4c;stroke-width:2" d="M139,31 l0,104 116,0 0,-104 -116,0" /><path style="fill:#ccc;stroke:#4c4c4c;stroke-width:2" d="M139,31 l0,21 130,0 22,-21 -152,0z" /><path style="fill:#4c4c4c;stroke:#4c4c4c;stroke-width:2" d="M437,31 l26,40 0,-9 124,0 0,9 26,-40 -176,0z" /><path style="fill:#e5e5e5;stroke:#4c4c4c;stroke-width:2" d="M463,45 l124,0 0,13 -124,0 0,-13z" /><path style="fill:#b2b2b2" d="M463,97 l124,0 0,7 -124,0 0,-7z" /><path style="fill:#b2b2b2" d="M463,135 l124,0 0,4 -124,0 0,-4z" /><path style="fill:#b2b2b2" d="M801,62 l93,0 0,5 -93,0 0,-5z" /><path style="fill:#b2b2b2" d="M894,155 l0,-93 5,0 0,93 -5,0z" /><path style="fill:#000" d="M509,71 l32,0 0,16 -32,0 0,-16z" /><path style="fill:#000" d="M67,113 l30,0 0,16 -30,0 0,-16z" /><path style="fill:#000" d="M52,87 l6,0 0,22 -6,0 0,-22z" /><path style="fill:#000" d="M41,149 l17,0 0,16 -17,0 0,-16z" /><path style="fill:#fff" d="M801,58 l98,0 0,4 -98,0 0,-4z" /><path style="fill:#fff" d="M463,93 l124,0 0,4 -124,0 0,-4z" /><path style="fill:#fff" d="M463,129 l124,0 0,6 -124,0 0,-6z" /><path style="fill:#fff" d="M463,165 l124,0 0,6 -124,0 0,-6z" /><path style="fill:#4c4c4c;stroke:#4c4c4c;stroke-width:2" d="M801,31 l93,0 0,21 -93,0 0,-21z" /><path style="fill:#999" d="M899,35 l93,0 0,114 -93,0 0,-114z" /><path style="fill:#ccc" d="M899,83 l58,0 0,66 -58,0 0,-66z" /><path style="fill:none;stroke:#4c4c4c;stroke-width:2" d="M899,149 l0,-114 93,0" /><path style="fill:none;stroke:#fff;stroke-width:2" d="M992,35 l0,114 -91,0" /><path style="fill:none;stroke:#666;stroke-width:2" d="M139,75 l32,-4 12,8 8,12 0,14 -8,12 -12,6 -32,-4" /><path style="fill:#e5d8a5" d="M415,10 l172,0 0,10 -172,0 0,-10z" /></svg>