<!DOCTYPE svg PUBLIC "-//W3C//DTD SVG 20000303 Stylable//EN" "http://www.w3.org/TR/2000/03/WD-SVG-20000303/DTD/svg-20000303-stylable.dtd"[]><svg xmlns="http://www.w3.org/2000/svg" width="998px" height="635px" viewBox="0 0 999 613"><path style="fill:none;stroke:#4c4c4c;stroke-width:2" d="M273,145 l0,-80 -80,0 -16,96" /><path style="fill:none;stroke:#4c4c4c;stroke-width:2" d="M79,193 l16,-64 82,0" /><path style="fill:none;stroke:#4c4c4c;stroke-width:2" d="M79,161 l98,0" /><path style="fill:none;stroke:#4c4c4c;stroke-width:2" d="M0,467 l0,66 47,0 0,-66" /><path style="fill:none;stroke:#4c4c4c;stroke-width:2" d="M47,499 l-47,0" /><path style="fill:#9cc;stroke:#4c4c4c;stroke-width:2" d="M419,467 l0,6 -12,40 -22,38 -30,30 -36,22 -40,10 -44,0 -40,-12 -36,-20 -30,-30 -21,-38 -13,-40 0,-6 -95,0 0,-32 15,-16 0,-210 194,-64 144,0 -16,-80 -144,0 0,-16 160,0 98,274 -82,-305 -224,0 -16,-18 258,0 32,81 532,16 48,96 -226,64 0,50 34,16 30,30 22,36 10,42 0,42 -10,40 -22,38 -30,30 -36,22 -40,10 -44,0 -40,-12 -38,-20 -30,-30 -20,-38 -12,-46 -128,0z" /></svg>