<!DOCTYPE svg PUBLIC "-//W3C//DTD SVG 20000303 Stylable//EN" "http://www.w3.org/TR/2000/03/WD-SVG-20000303/DTD/svg-20000303-stylable.dtd"[]><svg xmlns="http://www.w3.org/2000/svg" width="998px" height="593px" viewBox="0 0 999 569"><path style="fill:none;stroke:#4c4c4c;stroke-width:2" d="M359,103 l0,-58" /><path style="fill:none;stroke:#4c4c4c;stroke-width:2" d="M533,45 l0,140" /><path style="fill:none;stroke:#4c4c4c;stroke-width:2" d="M359,139 l616,0" /><path style="fill:none;stroke:#4c4c4c;stroke-width:2" d="M533,185 l280,0" /><path style="fill:none;stroke:#4c4c4c;stroke-width:2" d="M615,139 l0,80" /><path style="fill:none;stroke:#4c4c4c;stroke-width:2" d="M719,139 l0,80" /><path style="fill:none;stroke:#4c4c4c;stroke-width:2" d="M837,139 l0,46" /><path style="fill:none;stroke:#4c4c4c;stroke-width:2" d="M953,139 l0,46" /><path style="fill:none;stroke:#4c4c4c;stroke-width:2" d="M465,139 l0,46" /><path style="fill:none;stroke:#4c4c4c;stroke-width:2" d="M371,405 l-174,-244" /><path style="fill:none;stroke:#4c4c4c;stroke-width:2" d="M395,279 l-314,-94" /><path style="fill:none;stroke:#4c4c4c;stroke-width:2" d="M173,417 l-58,-324" /><path style="fill:#9cc;fill-rule:evenodd" d="M325,23 l208,0 0,22 -208,0 0,-22z M719,441 l36,24 0,80 -36,24 -430,0 -34,-24 0,-80 46,-24 140,-12 -70,-12 0,-34 34,-24 0,-58 -302,-186 -10,13 58,289 22,0 -12,118 -33,22 -128,12 57,-34 12,-36 -46,-104 22,-24 -45,-232 11,-94 128,-45 220,103 0,82 174,0 0,34 280,0 0,-34 162,0 24,186 -24,46 -348,12 92,12z " /><path style="fill:none;stroke:#4c4c4c;stroke-width:2" d="M325,23 l208,0 0,22 -208,0 0,-22" /><path style="fill:none;stroke:#4c4c4c;stroke-width:2" d="M719,441 l36,24 0,80 -36,24 -430,0 -34,-24 0,-80 46,-24 140,-12 -70,-12 0,-34 34,-24 0,-58 -302,-186 -10,13 58,289 22,0 -12,118 -33,22 -128,12 57,-34 12,-36 -46,-104 22,-24 -45,-232 11,-94 128,-45 220,103 0,82 174,0 0,34 280,0 0,-34 162,0 24,186 -24,46 -348,12 92,12" /></svg>