<!DOCTYPE svg PUBLIC "-//W3C//DTD SVG 20000303 Stylable//EN" "http://www.w3.org/TR/2000/03/WD-SVG-20000303/DTD/svg-20000303-stylable.dtd"[]><svg xmlns="http://www.w3.org/2000/svg" width="999px" height="505px" viewBox="0 0 999 475"><path style="fill:none;stroke:#4c4c4c;stroke-width:2" d="M127,103 l14,-90 76,0 0,90" /><path style="fill:#9cc;stroke:#4c4c4c;stroke-width:2" d="M371,363 l-8,32 -18,30 -24,24 -30,16 -32,10 -34,0 -32,-10 -30,-16 -22,-24 -18,-30 -8,-32 -115,-18 0,-24 13,-14 0,-166 114,-26 0,-12 166,0 0,-90 -152,0 0,-13 178,0 26,51 602,0 52,64 -180,76 -36,52 24,24 16,30 10,32 0,34 -10,32 -16,30 -24,24 -30,16 -32,10 -34,0 -32,-10 -30,-16 -24,-24 -16,-30 -10,-32 -204,0z" /></svg>