<!DOCTYPE svg PUBLIC "-//W3C//DTD SVG 20000303 Stylable//EN" "http://www.w3.org/TR/2000/03/WD-SVG-20000303/DTD/svg-20000303-stylable.dtd"[]><svg xmlns="http://www.w3.org/2000/svg" width="999px" height="422px" viewBox="0 0 999 387"><path style="fill:#9cc;stroke:#4c4c4c;stroke-width:2" d="M333,303 l0,12 -6,20 -12,20 -16,16 -18,10 -22,6 -20,0 -22,-6 -18,-10 -16,-16 -12,-20 -6,-20 0,-22 0,-18 -165,-28 0,-82 165,-28 0,-14 84,-14 126,0 0,-70 -126,0 0,-11 138,0 0,207 84,0 -56,-235 28,0 14,39 500,0 42,140 -106,48 18,10 16,16 9,18 6,22 0,22 -6,20 -9,20 -16,16 -18,10 -22,6 -22,0 -22,-6 -18,-10 -16,-16 -10,-20 -6,-20 -6,20 -12,20 -14,16 -20,10 -20,6 -22,0 -22,-6 -18,-10 -16,-16 -12,-20 -4,-20 0,-22 4,-30 -130,0 0,40 -152,0z" /><path style="fill:none;stroke:#4c4c4c;stroke-width:2" d="M249,39 l0,70" /><path style="fill:none;stroke:#4c4c4c;stroke-width:2" d="M319,109 l0,-70" /></svg>