<!DOCTYPE svg PUBLIC "-//W3C//DTD SVG 20000303 Stylable//EN" "http://www.w3.org/TR/2000/03/WD-SVG-20000303/DTD/svg-20000303-stylable.dtd"[]><svg xmlns="http://www.w3.org/2000/svg" width="998px" height="389px" viewBox="0 0 999 352"><path style="fill:#039" d="M25,235 l900,0 0,8 -900,0 0,-8z" /><path style="fill:#ccc;stroke:#4c4c4c;stroke-width:2" d="M71,3 l804,0 0,8 -804,0 0,-8z" /><path style="fill:#598cf2" d="M25,11 l900,0 0,222 -900,0 0,-222z" /><path style="fill:#4c7fe5;stroke:#4c4c4c;stroke-width:2" d="M737,233 l70,0 0,119 -70,0 0,-119z" /><path style="fill:#4c7fe5;stroke:#4c4c4c;stroke-width:2" d="M141,233 l68,0 0,119 -68,0 0,-119z" /><path style="fill:#477ae0" d="M737,319 l70,-50 0,83 -70,0 0,-33z" /><path style="fill:#477ae0" d="M141,319 l68,-50 0,83 -68,0 0,-33z" /><path style="fill:#4275db" d="M737,323 l70,-50 0,79 -70,0 0,-29z" /><path style="fill:#4275db" d="M141,323 l68,-50 0,79 -68,0 0,-29z" /><path style="fill:#3d70d6" d="M737,330 l70,-49 0,71 -70,0 0,-22z" /><path style="fill:#3d70d6" d="M141,330 l68,-49 0,71 -68,0 0,-22z" /><path style="fill:#36c" d="M71,29 l804,0 0,188 -804,0 0,-188z" /><path style="fill:#194cb2" d="M71,45 l0,-16 804,0 0,16 -804,0z" /><path style="fill:#194cb2" d="M71,115 l0,-18 804,0 0,18 -804,0z" /><path style="fill:#194cb2" d="M71,183 l0,-18 804,0 0,18 -804,0z" /><path style="fill:#69f" d="M71,29 l0,-18 804,0 0,18 -804,0z" /><path style="fill:#69f" d="M71,97 l0,-18 804,0 0,18 -804,0z" /><path style="fill:#69f" d="M71,165 l0,-16 804,0 0,16 -804,0z" /><path style="fill:#69f" d="M71,233 l0,-16 804,0 0,16 -804,0z" /><path style="fill:none;stroke:#039;stroke-width:2" d="M25,233 l900,0 0,-222" /><path style="fill:none;stroke:#039;stroke-width:2" d="M875,233 l0,-222" /><path style="fill:#69f" d="M123,11 l18,0 0,206 -18,0 0,-206z" /><path style="fill:#69f" d="M261,11 l16,0 0,206 -16,0 0,-206z" /><path style="fill:#69f" d="M396,11 l18,0 0,206 -18,0 0,-206z" /><path style="fill:#69f" d="M532,11 l18,0 0,206 -18,0 0,-206z" /><path style="fill:#69f" d="M669,11 l18,0 0,206 -18,0 0,-206z" /><path style="fill:#69f" d="M805,11 l18,0 0,206 -18,0 0,-206z" /><path style="fill:#000" d="M901,45 l-10,-8 10,-8 8,8 -8,8z" /><path style="fill:#000" d="M901,79 l-10,-8 10,-8 8,8 -8,8z" /><path style="fill:#000" d="M901,199 l-10,-8 10,-8 8,8 -8,8z" /><path style="fill:#000" d="M901,165 l-10,-8 10,-8 8,8 -8,8z" /><path style="fill:none;stroke:#039;stroke-width:2" d="M909,97 l0,34 -18,0 0,-34" /><path style="fill:#36c;stroke:#4c4c4c;stroke-width:2" d="M925,183 l18,-34 0,-70 -18,-34 0,138z" /><path style="fill:#ccc;stroke:#4c4c4c;stroke-width:2" d="M37,0 l18,0 0,127 -18,0 0,-127z" /><path style="fill:#f00;stroke:#4c4c4c;stroke-width:2" d="M22,63 l15,-4 18,66 -18,4 -15,-66z" /><path style="fill:#c93;stroke:#4c4c4c;stroke-width:2" d="M71,233 l0,-72 -20,-4 -51,60 3,22 68,-6z" /><path style="fill:#c93;stroke:#4c4c4c;stroke-width:2" d="M925,233 l0,-72 22,-4 52,60 -4,22 -70,-6z" /><path style="fill:none;stroke:#998c73;stroke-width:2" d="M63,181 l0,8 -6,6 -8,0 -6,-6" /><path style="fill:none;stroke:#998c73;stroke-width:2" d="M33,205 l0,10 -6,6 -8,0 -8,-6" /><path style="fill:none;stroke:#998c73;stroke-width:2" d="M63,211 l0,8 -6,6 -8,0 -6,-6" /><path style="fill:none;stroke:#998c73;stroke-width:2" d="M984,211 l0,8 -5,6 -8,0 -6,-6" /><path style="fill:none;stroke:#998c73;stroke-width:2" d="M955,215 l0,8 -6,6 -8,0 -6,-6" /><path style="fill:none;stroke:#998c73;stroke-width:2" d="M955,181 l0,8 -6,6 -8,0 -6,-6" /><path style="fill:none;stroke:#f2e5cc;stroke-width:2" d="M935,189 l0,-8 6,-6 8,0 6,6" /><path style="fill:none;stroke:#f2e5cc;stroke-width:2" d="M935,223 l0,-8 6,-6 8,0 6,6" /><path style="fill:none;stroke:#f2e5cc;stroke-width:2" d="M965,219 l0,-8 6,-8 8,0 5,8" /><path style="fill:none;stroke:#f2e5cc;stroke-width:2" d="M43,219 l0,-8 6,-8 8,0 6,8" /><path style="fill:none;stroke:#f2e5cc;stroke-width:2" d="M43,189 l0,-8 6,-6 8,0 6,6" /><path style="fill:none;stroke:#f2e5cc;stroke-width:2" d="M11,215 l0,-10 8,-6 8,0 6,6" /><path style="fill:none;stroke:#98b2e5;stroke-width:2" d="M71,217 l804,0" /><path style="fill:none;stroke:#98b2e5;stroke-width:2" d="M71,149 l804,0" /><path style="fill:none;stroke:#98b2e5;stroke-width:2" d="M71,79 l804,0" /><path style="fill:none;stroke:#98b2e5;stroke-width:2" d="M925,11 l-854,0 0,222" /></svg>