<svg width="16" height="16" viewBox="0 0 16 16" fill="none" xmlns="http://www.w3.org/2000/svg">
<path fill-rule="evenodd" clip-rule="evenodd" d="M3.16667 2C3.01346 2 2.86175 2.03018 2.7202 2.08881C2.57866 2.14744 2.45004 2.23337 2.34171 2.34171C2.23337 2.45004 2.14744 2.57866 2.08881 2.7202C2.03018 2.86175 2 3.01346 2 3.16667C2 3.31988 2.03018 3.47158 2.08881 3.61313C2.14744 3.75468 2.23337 3.88329 2.34171 3.99162C2.45004 4.09996 2.57866 4.1859 2.7202 4.24453C2.86175 4.30316 3.01346 4.33333 3.16667 4.33333C3.47609 4.33333 3.77283 4.21042 3.99162 3.99162C4.21042 3.77283 4.33333 3.47609 4.33333 3.16667C4.33333 2.85725 4.21042 2.5605 3.99162 2.34171C3.77283 2.12292 3.47609 2 3.16667 2ZM1 3.16667C1 2.59203 1.22827 2.04093 1.6346 1.6346C2.04093 1.22827 2.59203 1 3.16667 1C3.7413 1 4.2924 1.22827 4.69873 1.6346C5.10506 2.04093 5.33333 2.59203 5.33333 3.16667C5.33333 3.7413 5.10506 4.2924 4.69873 4.69873C4.2924 5.10506 3.7413 5.33333 3.16667 5.33333C2.59203 5.33333 2.04093 5.10506 1.6346 4.69873C1.22827 4.2924 1 3.7413 1 3.16667ZM3.16667 11.6667C2.85725 11.6667 2.5605 11.7896 2.34171 12.0084C2.12292 12.2272 2 12.5239 2 12.8333C2 13.1428 2.12292 13.4395 2.34171 13.6583C2.5605 13.8771 2.85725 14 3.16667 14C3.47609 14 3.77283 13.8771 3.99162 13.6583C4.21042 13.4395 4.33333 13.1428 4.33333 12.8333C4.33333 12.5239 4.21042 12.2272 3.99162 12.0084C3.77283 11.7896 3.47609 11.6667 3.16667 11.6667ZM1 12.8333C1 12.2587 1.22827 11.7076 1.6346 11.3013C2.04093 10.8949 2.59203 10.6667 3.16667 10.6667C3.7413 10.6667 4.2924 10.8949 4.69873 11.3013C5.10506 11.7076 5.33333 12.2587 5.33333 12.8333C5.33333 13.408 5.10506 13.9591 4.69873 14.3654C4.2924 14.7717 3.7413 15 3.16667 15C2.59203 15 2.04093 14.7717 1.6346 14.3654C1.22827 13.9591 1 13.408 1 12.8333ZM12.8333 11.6667C12.5239 11.6667 12.2272 11.7896 12.0084 12.0084C11.7896 12.2272 11.6667 12.5239 11.6667 12.8333C11.6667 13.1428 11.7896 13.4395 12.0084 13.6583C12.2272 13.8771 12.5239 14 12.8333 14C13.1428 14 13.4395 13.8771 13.6583 13.6583C13.8771 13.4395 14 13.1428 14 12.8333C14 12.5239 13.8771 12.2272 13.6583 12.0084C13.4395 11.7896 13.1428 11.6667 12.8333 11.6667ZM10.6667 12.8333C10.6667 12.2587 10.8949 11.7076 11.3013 11.3013C11.7076 10.8949 12.2587 10.6667 12.8333 10.6667C13.408 10.6667 13.9591 10.8949 14.3654 11.3013C14.7717 11.7076 15 12.2587 15 12.8333C15 13.408 14.7717 13.9591 14.3654 14.3654C13.9591 14.7717 13.408 15 12.8333 15C12.2587 15 11.7076 14.7717 11.3013 14.3654C10.8949 13.9591 10.6667 13.408 10.6667 12.8333Z" fill="#fff"/>
<path fill-rule="evenodd" clip-rule="evenodd" d="M3.16667 4.83333C3.29928 4.83333 3.42646 4.88601 3.52023 4.97978C3.61399 5.07355 3.66667 5.20073 3.66667 5.33333V10.6667C3.66667 10.7993 3.61399 10.9265 3.52023 11.0202C3.42646 11.114 3.29928 11.1667 3.16667 11.1667C3.03406 11.1667 2.90689 11.114 2.81312 11.0202C2.71935 10.9265 2.66667 10.7993 2.66667 10.6667V5.33333C2.66667 5.20073 2.71935 5.07355 2.81312 4.97978C2.90689 4.88601 3.03406 4.83333 3.16667 4.83333ZM8.93667 1.14667C9.0303 1.24042 9.0829 1.3675 9.0829 1.5C9.0829 1.6325 9.0303 1.75958 8.93667 1.85333L8.12334 2.66667H10.8333C11.4964 2.66667 12.1323 2.93006 12.6011 3.3989C13.0699 3.86774 13.3333 4.50363 13.3333 5.16667V11C13.3333 11.1326 13.2807 11.2598 13.1869 11.3536C13.0931 11.4473 12.9659 11.5 12.8333 11.5C12.7007 11.5 12.5736 11.4473 12.4798 11.3536C12.386 11.2598 12.3333 11.1326 12.3333 11V5.16667C12.3333 4.76884 12.1753 4.38731 11.894 4.10601C11.6127 3.8247 11.2312 3.66667 10.8333 3.66667H8.124L8.93734 4.48C9.02837 4.57434 9.07871 4.70067 9.07751 4.83177C9.07631 4.96287 9.02367 5.08825 8.93092 5.18091C8.83817 5.27357 8.71274 5.32609 8.58164 5.32717C8.45054 5.32825 8.32426 5.27779 8.23 5.18667L6.56334 3.52C6.4697 3.42625 6.41711 3.29917 6.41711 3.16667C6.41711 3.03417 6.4697 2.90708 6.56334 2.81333L8.23 1.14667C8.32375 1.05303 8.45084 1.00044 8.58334 1.00044C8.71584 1.00044 8.84292 1.05303 8.93667 1.14667Z" fill="#fff"/>
</svg>
