<!DOCTYPE svg PUBLIC "-//W3C//DTD SVG 1.1//EN" "http://www.w3.org/Graphics/SVG/1.1/DTD/svg11.dtd"[]><svg version="1.1" id="_x23__x23_Group_x5F_Box" xmlns="http://www.w3.org/2000/svg" xmlns:xlink="http://www.w3.org/1999/xlink" width="112px" height="103px" viewBox="0 0 112.5 103.039" enable-background="new 0 0 112.5 103.039" xml:space="preserve">
<g id="Group_Box">
<path fill="#C2A385" d="M0.001,9.122h93.805v93.917H0.001V9.122z" />
<path fill="#D6C2AD" d="M0.001,9.122L18.582,0h93.917L93.806,9.122H0.001z" />
<path fill="#AD845B" d="M93.806,103.039V9.122L112.499,0v93.58L93.806,103.039z" />
<path fill="#CCB299" d="M42.23,37.274V9.122h9.234v28.153H42.23z" />
<polygon fill="#E0D1C1" points="105.518,3.266 63.609,3.266 70.383,0 60.924,0 54.231,3.266 11.6,3.266 6.87,5.743 49.154,5.743   42.23,9.122 51.464,9.122 58.471,5.743 100.787,5.743 " />
<path fill="#B89471" d="M100.787,32.544V5.743l4.73-2.478v27.027L100.787,32.544z" />
<path d="M13.176,19.707v5.855h4.054v-5.855h3.829l-5.856-5.856l-5.855,5.856h4.279v-0.451h-3.153l4.729-4.729l4.73,4.729h-3.378  v5.856h-2.928v-5.405H13.176z" />
<path d="M76.464,19.707v5.855h4.054v-5.855h3.829l-5.856-5.856l-5.855,5.856h4.504v-0.451h-3.377l4.729-4.729l4.73,4.729h-3.153  v5.856h-2.929v-5.405H76.464z" />
</g>
</svg>