<!DOCTYPE svg PUBLIC "-//W3C//DTD SVG 1.1//EN" "http://www.w3.org/Graphics/SVG/1.1/DTD/svg11.dtd"[]><svg version="1.1" id="_x23__x23_Group_x5F_Box" xmlns="http://www.w3.org/2000/svg" xmlns:xlink="http://www.w3.org/1999/xlink" width="112px" height="112px" viewBox="0 0 112.5 112.5" enable-background="new 0 0 112.5 112.5" xml:space="preserve">
<g id="Group_Box">
<path fill="#D6C2AD" d="M23.311,111.824L25.788,86.6l30.406-3.486L86.6,86.6l-2.591,25.225H23.311z" />
<path fill="#996633" d="M25.788,25.788H86.6V86.6H25.788V25.788z" />
<path fill="#AD845B" d="M86.6,86.6V25.788l10.021-4.955v60.698L86.6,86.6z" />
<path fill="#AD845B" d="M25.788,86.6V25.788h10.135v55.743L25.788,86.6z" />
<path fill="#C2A385" d="M25.788,25.788l10.135-4.955h60.698L86.6,25.788H25.788z" />
<path fill="#C2A385" d="M25.788,86.712L86.6,86.6v-5.068l-50.563,0.113L25.788,86.712z" />
<path fill="#D6C2AD" d="M86.486,86.374V25.676l25.338,2.703v60.698L86.486,86.374z" />
<path fill="#D6C2AD" d="M0.563,89.076V28.378l25.225-2.59V86.6L0.563,89.076z" />
<path fill="#D6C2AD" d="M26.014,25.788L23.311,0.563h60.698l2.365,25.225H26.014z" />
</g>
</svg>