<!DOCTYPE svg PUBLIC "-//W3C//DTD SVG 1.1//EN" "http://www.w3.org/Graphics/SVG/1.1/DTD/svg11.dtd"[]><svg version="1.1" id="_x23__x23_Group_x5F_TopGrid" xmlns="http://www.w3.org/2000/svg" xmlns:xlink="http://www.w3.org/1999/xlink" width="112px" height="112px" viewBox="0 0 112.5 112.5" enable-background="new 0 0 112.5 112.5" xml:space="preserve">
<g id="Group_TopGrid">
<path fill="#666666" d="M0,0v112.5h112.5V0H0z M101.014,2.252v6.982h-6.982V2.252H101.014z M55.067,57.32v6.981h-6.982V57.32H55.067  z M48.085,55.067v-6.982h6.982v6.982H48.085z M57.32,57.32h6.981v6.981H57.32V57.32z M57.32,55.067v-6.982h6.981v6.982H57.32z   M57.32,45.833v-6.982h6.981v6.982H57.32z M55.067,45.833h-6.982v-6.982h6.982V45.833z M45.833,45.833h-6.757v-6.982h6.757V45.833z   M45.833,48.085v6.982h-6.757v-6.982H45.833z M45.833,57.32v6.981h-6.757V57.32H45.833z M45.833,66.555v6.756h-6.757v-6.756H45.833z   M48.085,66.555h6.982v6.756h-6.982V66.555z M57.32,66.555h6.981v6.756H57.32V66.555z M66.555,66.555h6.756v6.756h-6.756V66.555z   M66.555,64.302V57.32h6.756v6.981H66.555z M66.555,55.067v-6.982h6.756v6.982H66.555z M66.555,45.833v-6.982h6.756v6.982H66.555z   M66.555,36.599v-6.757h6.756v6.757H66.555z M64.302,36.599H57.32v-6.757h6.981V36.599z M55.067,36.599h-6.982v-6.757h6.982V36.599z   M45.833,36.599h-6.757v-6.757h6.757V36.599z M36.599,36.599h-6.757v-6.757h6.757V36.599z M36.599,38.852v6.982h-6.757v-6.982  H36.599z M36.599,48.085v6.982h-6.757v-6.982H36.599z M36.599,57.32v6.981h-6.757V57.32H36.599z M36.599,66.555v6.756h-6.757v-6.756  H36.599z M36.599,75.788v6.757h-6.757v-6.757H36.599z M39.077,75.788h6.757v6.757h-6.757V75.788z M48.085,75.788h6.982v6.757h-6.982  V75.788z M57.32,75.788h6.981v6.757H57.32V75.788z M66.555,75.788h6.756v6.757h-6.756V75.788z M75.788,75.788h6.757v6.757h-6.757  V75.788z M75.788,73.311v-6.756h6.757v6.756H75.788z M75.788,64.302V57.32h6.757v6.981H75.788z M75.788,55.067v-6.982h6.757v6.982  H75.788z M75.788,45.833v-6.982h6.757v6.982H75.788z M75.788,36.599v-6.757h6.757v6.757H75.788z M75.788,27.365v-6.757h6.757v6.757  H75.788z M73.311,27.365h-6.756v-6.757h6.756V27.365z M64.302,27.365H57.32v-6.757h6.981V27.365z M55.067,27.365h-6.982v-6.757  h6.982V27.365z M45.833,27.365h-6.757v-6.757h6.757V27.365z M36.599,27.365h-6.757v-6.757h6.757V27.365z M27.365,27.365h-6.757  v-6.757h6.757V27.365z M27.365,29.842v6.757h-6.757v-6.757H27.365z M27.365,38.852v6.982h-6.757v-6.982H27.365z M27.365,48.085  v6.982h-6.757v-6.982H27.365z M27.365,57.32v6.981h-6.757V57.32H27.365z M27.365,66.555v6.756h-6.757v-6.756H27.365z M27.365,75.788  v6.757h-6.757v-6.757H27.365z M27.365,84.797v6.982h-6.757v-6.982H27.365z M29.842,84.797h6.757v6.982h-6.757V84.797z   M39.077,84.797h6.757v6.982h-6.757V84.797z M48.085,84.797h6.982v6.982h-6.982V84.797z M57.32,84.797h6.981v6.982H57.32V84.797z   M66.555,84.797h6.756v6.982h-6.756V84.797z M75.788,84.797h6.757v6.982h-6.757V84.797z M85.022,84.797h6.757v6.982h-6.757V84.797z   M85.022,82.545v-6.757h6.757v6.757H85.022z M85.022,73.311v-6.756h6.757v6.756H85.022z M85.022,64.302V57.32h6.757v6.981H85.022z   M85.022,55.067v-6.982h6.757v6.982H85.022z M85.022,45.833v-6.982h6.757v6.982H85.022z M85.022,36.599v-6.757h6.757v6.757H85.022z   M85.022,27.365v-6.757h6.757v6.757H85.022z M85.022,18.356v-6.982h6.757v6.982H85.022z M82.545,18.356h-6.757v-6.982h6.757V18.356z   M73.311,18.356h-6.756v-6.982h6.756V18.356z M64.302,18.356H57.32v-6.982h6.981V18.356z M55.067,18.356h-6.982v-6.982h6.982V18.356  z M45.833,18.356h-6.757v-6.982h6.757V18.356z M36.599,18.356h-6.757v-6.982h6.757V18.356z M27.365,18.356h-6.757v-6.982h6.757  V18.356z M18.356,18.356h-6.982v-6.982h6.982V18.356z M18.356,20.608v6.757h-6.982v-6.757H18.356z M18.356,29.842v6.757h-6.982  v-6.757H18.356z M18.356,38.852v6.982h-6.982v-6.982H18.356z M18.356,48.085v6.982h-6.982v-6.982H18.356z M18.356,57.32v6.981  h-6.982V57.32H18.356z M18.356,66.555v6.756h-6.982v-6.756H18.356z M18.356,75.788v6.757h-6.982v-6.757H18.356z M18.356,84.797  v6.982h-6.982v-6.982H18.356z M18.356,94.031v6.982h-6.982v-6.982H18.356z M20.608,94.031h6.757v6.982h-6.757V94.031z   M29.842,94.031h6.757v6.982h-6.757V94.031z M39.077,94.031h6.757v6.982h-6.757V94.031z M48.085,94.031h6.982v6.982h-6.982V94.031z   M57.32,94.031h6.981v6.982H57.32V94.031z M66.555,94.031h6.756v6.982h-6.756V94.031z M75.788,94.031h6.757v6.982h-6.757V94.031z   M85.022,94.031h6.757v6.982h-6.757V94.031z M94.031,94.031h6.982v6.982h-6.982V94.031z M94.031,91.779v-6.982h6.982v6.982H94.031z   M94.031,82.545v-6.757h6.982v6.757H94.031z M94.031,73.311v-6.756h6.982v6.756H94.031z M94.031,64.302V57.32h6.982v6.981H94.031z   M94.031,55.067v-6.982h6.982v6.982H94.031z M94.031,45.833v-6.982h6.982v6.982H94.031z M94.031,36.599v-6.757h6.982v6.757H94.031z   M94.031,27.365v-6.757h6.982v6.757H94.031z M94.031,18.356v-6.982h6.982v6.982H94.031z M91.779,2.252v6.982h-6.757V2.252H91.779z   M82.545,2.252v6.982h-6.757V2.252H82.545z M73.311,2.252v6.982h-6.756V2.252H73.311z M64.302,2.252v6.982H57.32V2.252H64.302z   M55.067,2.252v6.982h-6.982V2.252H55.067z M45.833,2.252v6.982h-6.757V2.252H45.833z M36.599,2.252v6.982h-6.757V2.252H36.599z   M27.365,2.252v6.982h-6.757V2.252H27.365z M18.356,2.252v6.982h-6.982V2.252H18.356z M2.252,2.252h6.982v6.982H2.252V2.252z   M2.252,11.374h6.982v6.982H2.252V11.374z M2.252,20.608h6.982v6.757H2.252V20.608z M2.252,29.842h6.982v6.757H2.252V29.842z   M2.252,38.852h6.982v6.982H2.252V38.852z M2.252,48.085h6.982v6.982H2.252V48.085z M2.252,57.32h6.982v6.981H2.252V57.32z   M2.252,66.555h6.982v6.756H2.252V66.555z M2.252,75.788h6.982v6.757H2.252V75.788z M2.252,84.797h6.982v6.982H2.252V84.797z   M2.252,94.031h6.982v6.982H2.252V94.031z M2.252,110.135v-6.981h6.982v6.981H2.252z M11.374,110.135v-6.981h6.982v6.981H11.374z   M20.608,110.135v-6.981h6.757v6.981H20.608z M29.842,110.135v-6.981h6.757v6.981H29.842z M39.077,110.135v-6.981h6.757v6.981  H39.077z M48.085,110.135v-6.981h6.982v6.981H48.085z M57.32,110.135v-6.981h6.981v6.981H57.32z M66.555,110.135v-6.981h6.756v6.981  H66.555z M75.788,110.135v-6.981h6.757v6.981H75.788z M85.022,110.135v-6.981h6.757v6.981H85.022z M94.031,110.135v-6.981h6.982  v6.981H94.031z M110.135,110.135h-6.981v-6.981h6.981V110.135z M110.135,101.014h-6.981v-6.982h6.981V101.014z M110.135,91.779  h-6.981v-6.982h6.981V91.779z M110.135,82.545h-6.981v-6.757h6.981V82.545z M110.135,73.311h-6.981v-6.756h6.981V73.311z   M110.135,64.302h-6.981V57.32h6.981V64.302z M110.135,55.067h-6.981v-6.982h6.981V55.067z M110.135,45.833h-6.981v-6.982h6.981  V45.833z M110.135,36.599h-6.981v-6.757h6.981V36.599z M110.135,27.365h-6.981v-6.757h6.981V27.365z M110.135,18.356h-6.981v-6.982  h6.981V18.356z M110.135,9.234h-6.981V2.252h6.981V9.234z" />
<path fill="none" d="M0,0h112.5v112.5H0V0" />
</g>
</svg>