<!DOCTYPE svg PUBLIC "-//W3C//DTD SVG 1.1//EN" "http://www.w3.org/Graphics/SVG/1.1/DTD/svg11.dtd"[]><svg version="1.1" id="_x23__x23_Group_x5F_Barrel" xmlns="http://www.w3.org/2000/svg" xmlns:xlink="http://www.w3.org/1999/xlink" width="75px" height="112px" viewBox="0 0 75.34 112.5" enable-background="new 0 0 75.34 112.5" xml:space="preserve">
<g id="Group_Barrel">
<linearGradient id="SVGID_1_" gradientUnits="userSpaceOnUse" x1="2.8169" y1="58.2148" x2="72.4116" y2="58.2148">
	<stop offset="0" style="stop-color:#333399" />
	<stop offset="0.52" style="stop-color:#C7C4E2" />
	<stop offset="0.65" style="stop-color:#A3A0D0" />
	<stop offset="0.94" style="stop-color:#4747A3" />
	<stop offset="1" style="stop-color:#333399" />
</linearGradient>
<path fill="url(#SVGID_1_)" d="M72.412,107.207V5.18H2.817v102.027l0.112,0.226l35.991,3.817l33.491-3.817V107.207z" />
<radialGradient id="SVGID_2_" cx="37.6138" cy="79.3926" r="26.4795" gradientUnits="userSpaceOnUse">
	<stop offset="0" style="stop-color:#C7C4E2" />
	<stop offset="0.27" style="stop-color:#A3A0D0" />
	<stop offset="0.87" style="stop-color:#4747A3" />
	<stop offset="1" style="stop-color:#333399" />
</radialGradient>
<path fill="url(#SVGID_2_)" d="M72.412,79.393l2.364-4.617l-36.23,4.617L0.452,74.775l2.365,4.617c0,0,2.729,4.616,35.979,4.616  C68.795,84.009,72.412,79.393,72.412,79.393z" />
<radialGradient id="SVGID_3_" cx="37.6138" cy="76.2549" r="26.4178" gradientUnits="userSpaceOnUse">
	<stop offset="0" style="stop-color:#C7C4E2" />
	<stop offset="0.27" style="stop-color:#A3A0D0" />
	<stop offset="0.87" style="stop-color:#4747A3" />
	<stop offset="1" style="stop-color:#333399" />
</radialGradient>
<path fill="url(#SVGID_3_)" d="M74.776,74.775l-2.364-2.365v0.225c0,0-7.627,4.079-33.972,4.079  c-29.436,0-35.623-4.304-35.623-4.304l-2.365,2.365L0.564,75c0,0,8.356,5.1,37.756,5.1C65.045,80.1,74.776,74.775,74.776,74.775z" />
<radialGradient id="SVGID_4_" cx="37.6138" cy="108.7998" r="26.4178" gradientUnits="userSpaceOnUse">
	<stop offset="0" style="stop-color:#C7C4E2" />
	<stop offset="0.27" style="stop-color:#A3A0D0" />
	<stop offset="0.87" style="stop-color:#4747A3" />
	<stop offset="1" style="stop-color:#333399" />
</radialGradient>
<path fill="url(#SVGID_4_)" d="M74.776,107.32l-2.364-2.365v0.225c0,0-7.627,4.079-33.972,4.079  c-29.436,0-35.623-4.304-35.623-4.304l-2.365,2.365l0.112,0.225c0,0,8.356,5.1,37.756,5.1  C65.045,112.645,74.776,107.32,74.776,107.32z" />
<radialGradient id="SVGID_5_" cx="37.6138" cy="9.6846" r="26.4796" gradientUnits="userSpaceOnUse">
	<stop offset="0" style="stop-color:#C7C4E2" />
	<stop offset="0.27" style="stop-color:#A3A0D0" />
	<stop offset="0.87" style="stop-color:#4747A3" />
	<stop offset="1" style="stop-color:#333399" />
</radialGradient>
<path fill="url(#SVGID_5_)" d="M72.412,9.685l2.364-4.617l-36.23,4.617L0.452,5.068l2.365,4.617c0,0,2.729,4.616,35.979,4.616  C68.795,14.301,72.412,9.685,72.412,9.685z" />
<ellipse fill="#333399" cx="37.614" cy="5.067" rx="37.162" ry="4.617" />
<radialGradient id="SVGID_6_" cx="37.6138" cy="42.2295" r="26.4796" gradientUnits="userSpaceOnUse">
	<stop offset="0" style="stop-color:#C7C4E2" />
	<stop offset="0.27" style="stop-color:#A3A0D0" />
	<stop offset="0.87" style="stop-color:#4747A3" />
	<stop offset="1" style="stop-color:#333399" />
</radialGradient>
<path fill="url(#SVGID_6_)" d="M72.412,42.23l2.364-4.617l-36.23,4.617L0.452,37.613l2.365,4.617c0,0,2.729,4.616,35.979,4.616  C68.795,46.846,72.412,42.23,72.412,42.23z" />
<radialGradient id="SVGID_7_" cx="37.6138" cy="39.0923" r="26.4178" gradientUnits="userSpaceOnUse">
	<stop offset="0" style="stop-color:#C7C4E2" />
	<stop offset="0.27" style="stop-color:#A3A0D0" />
	<stop offset="0.87" style="stop-color:#4747A3" />
	<stop offset="1" style="stop-color:#333399" />
</radialGradient>
<path fill="url(#SVGID_7_)" d="M74.776,37.613l-2.364-2.365v0.225c0,0-7.627,4.079-33.972,4.079  c-29.436,0-35.623-4.304-35.623-4.304l-2.365,2.365l0.112,0.225c0,0,8.356,5.1,37.756,5.1  C65.045,42.937,74.776,37.613,74.776,37.613z" />
<path fill="none" d="M-5.266,5.637c0.185-0.187,0.291-0.376,0.292-0.568v0l0,0v0c0-2.55-16.638-4.617-37.162-4.617  c-20.524,0-37.162,2.067-37.162,4.617v0l0,0v0c0,0.192,0.107,0.382,0.292,0.568l2.073,4.048v25.563l-2.365,2.365l0.112,0.225  l0.004,0.002l2.249,4.39v30.18l-2.365,2.365L-79.186,75l0.004,0.002l2.249,4.391v25.563l-2.365,2.365l0.112,0.225  c0,0,8.356,5.1,37.756,5.1c26.725,0,36.455-5.324,36.455-5.324l-2.364-2.365V79.393l2.364-4.617l-2.364-2.365V42.23l2.364-4.617  l-2.364-2.365V9.685L-5.266,5.637z" />
<path fill="none" d="M74.541,5.637c0.185-0.187,0.291-0.376,0.292-0.568v0l0,0v0c0-2.55-16.639-4.617-37.162-4.617  c-20.524,0-37.162,2.067-37.162,4.617v0l0,0v0c0,0.192,0.107,0.382,0.292,0.568l2.073,4.048v25.563l-2.365,2.365l0.112,0.225  l0.004,0.002l2.249,4.39v30.18l-2.365,2.365L0.621,75l0.004,0.002l2.249,4.391v25.563l-2.365,2.365l0.112,0.225  c0,0,8.356,5.1,37.757,5.1c26.725,0,36.455-5.324,36.455-5.324l-2.365-2.365V79.393l2.365-4.617l-2.365-2.365V42.23l2.365-4.617  l-2.365-2.365V9.685L74.541,5.637z" />
</g>
</svg>