<!DOCTYPE svg PUBLIC "-//W3C//DTD SVG 1.1//EN" "http://www.w3.org/Graphics/SVG/1.1/DTD/svg11.dtd"[]><svg version="1.1" xmlns="http://www.w3.org/2000/svg" xmlns:xlink="http://www.w3.org/1999/xlink" width="112px" height="19px" viewBox="0 0 112.5 18.691" enable-background="new 0 0 112.5 18.691" xml:space="preserve">
<g id="Group_PalletBase">
	<path fill="#211F1D" d="M112.492,9.346H18.699L0.233,18.691h93.456L112.492,9.346z" />
	<path fill="none" stroke="#999999" stroke-width="0.25" d="M112.492,9.346l-18.804,9.346h-2.252l18.804-9.346h-2.477l-18.805,9.346   h-2.252l18.805-9.346h-2.478L84.23,18.691h-2.252l18.804-9.346h-2.364l-18.804,9.346h-2.252l18.804-9.346h-2.478l-18.804,9.346   h-2.252l18.804-9.346h-2.478l-18.803,9.346h-2.252l18.803-9.346H84.23l-18.578,9.346h-2.365l18.691-9.346H79.84l-18.805,9.346   h-2.477l18.804-9.346H75.11l-18.804,9.346h-2.477l18.804-9.346h-2.252l-18.804,9.346H49.1l18.804-9.346h-2.252l-18.804,9.346   h-2.365l18.804-9.346h-2.252l-18.804,9.346h-2.477l18.804-9.346h-2.252l-18.804,9.346H35.25l18.804-9.346h-2.477l-18.804,9.346   h-2.252l18.804-9.346h-2.477l-18.691,9.346h-2.252l18.804-9.346h-2.478l-18.804,9.346h-2.252l18.804-9.346h-2.477l-18.804,9.346   h-2.252L35.25,9.346h-2.477L13.97,18.691h-2.14l18.691-9.346h-2.365L9.353,18.691H7.101l18.804-9.346h-2.477L4.624,18.691H2.485   l18.691-9.346h-2.477L0.233,18.691" />
	<path fill="none" stroke="#999999" stroke-width="0.25" d="M4.849,16.214h93.569l4.616-2.252H9.353l4.955-2.14h93.202l4.982-2.477   H18.699" />
</g>
<g id="Group_InsideGridBoxes">
	<path fill="#CCCCCC" d="M0.007,11.146h9.346v5.969H0.007V11.146z" />
	<path fill="#CCCCCC" d="M46.735,11.146h9.346v5.969h-9.346V11.146z" />
	<path fill="#CCCCCC" stroke="#4C4C4C" stroke-width="0.25" d="M84.23,11.146h9.458v5.855H84.23V11.146z" />
	<path fill="#CCCCCC" d="M99.713,9.346h9.457l-15.2,7.77h-9.458L99.713,9.346z" />
	<path fill="#999999" d="M62.161,9.346h9.346l-15.201,7.77h-9.458L62.161,9.346z" />
	<path fill="#999999" d="M15.096,9.346h9.458l-15.201,7.77H0.007L15.096,9.346z" />
	<path fill="#666666" d="M99.432,3.491h9.457v5.855h-9.457V3.491z" />
	<path fill="#666666" d="M62.161,3.491h9.346v5.855h-9.346V3.491z" />
	<path fill="#666666" d="M15.096,3.491h9.458v5.855h-9.458V3.491z" />
	<path fill="#666666" d="M8.227,7.094h9.346v5.855H8.227V7.094z" />
	<path fill="#666666" d="M92.563,7.094h9.346v5.855h-9.346V7.094z" />
	<path fill="#666666" d="M54.955,7.094h9.458v5.855h-9.458V7.094z" />
	<polygon points="9.353,9.346 9.353,11.146 24.554,3.501 24.554,9.346 28.157,7.544 28.157,0  " />
	<polygon fill="#191919" points="21.176,11.056 21.176,5.292 17.573,7.094 17.573,12.867 12.956,15.189 12.956,9.346 9.353,11.146    9.353,18.691 28.157,9.346 28.157,7.544  " />
	<polygon points="56.306,9.346 56.306,11.146 71.507,3.409 71.507,9.346 74.885,7.544 74.885,1.689 74.885,0  " />
	<polygon fill="#191919" points="67.904,11.098 67.904,5.292 64.413,7.094 64.413,12.875 59.684,15.282 59.684,9.346 56.306,11.146    56.306,17.002 56.306,18.691 74.885,9.346 74.885,7.544  " />
</g>
<g id="Group_TopGrid">
	<path fill="#1E1E1E" d="M112.492,0H18.699L0.233,9.346h93.456L112.492,0z" />
	<path fill="none" stroke="#999999" stroke-width="0.25" d="M112.492,0L93.688,9.346h-2.252L110.24,0h-2.477L88.959,9.346h-2.252   L105.512,0h-2.478L84.23,9.346h-2.252L100.782,0h-2.364L79.614,9.346h-2.252L96.166,0h-2.478L74.885,9.346h-2.252L91.437,0h-2.478   L70.156,9.346h-2.252L86.707,0H84.23L65.652,9.346h-2.365L81.979,0H79.84L61.035,9.346h-2.477L77.362,0H75.11L56.306,9.346h-2.477   L72.633,0h-2.252L51.577,9.346H49.1L67.904,0h-2.252L46.848,9.346h-2.365L63.287,0h-2.252L42.231,9.346h-2.477L58.559,0h-2.252   L37.502,9.346H35.25L54.054,0h-2.477L32.773,9.346h-2.252L49.325,0h-2.477L28.157,9.346h-2.252L44.709,0h-2.478L23.428,9.346   h-2.252L39.979,0h-2.477L18.699,9.346h-2.252L35.25,0h-2.477L13.97,9.346h-2.14L30.521,0h-2.365L9.353,9.346H7.101L25.905,0h-2.477   L4.624,9.346H2.485L21.176,0h-2.477L0.233,9.346" />
	<path fill="none" stroke="#999999" stroke-width="0.25" d="M4.849,7.094h93.569l4.616-2.477H9.353l4.955-2.14h93.456L112.492,0   H18.699" />
</g>
<g id="Group_GridSides">
	<path fill="#999999" d="M93.688,17.002l3.604-1.914V9.346l-3.604,1.801l-1.271,2.491L93.688,17.002z" />
	<path fill="#999999" d="M108.889,9.346l3.604-1.802V1.689l-3.604,1.802V9.346z" />
	<path fill="#999999" d="M101.908,12.949l3.604-1.803V5.2l-3.604,1.813V12.949z" />
	<path fill="#B2B2B2" d="M112.492,0L93.688,9.236l-1.126,0.955l1.126,0.955l18.804-9.458V0z" />
	<path fill="#B2B2B2" d="M112.492,7.544l-18.804,9.259l-0.729,1.168l0.729,0.721l18.804-9.18V7.544z" />
	<rect x="0.007" y="11.146" fill="#A5A5A5" width="9.346" height="5.969" />
	<rect x="46.735" y="11.146" fill="#A5A5A5" width="9.571" height="5.855" />
	<rect x="84.23" y="11.146" fill="#A5A5A5" width="9.458" height="5.855" />
	<rect y="9.236" fill="#C1BFBF" width="93.688" height="1.91" />
	<rect y="16.781" fill="#C1BFBF" width="93.688" height="1.91" />
</g>
</svg>