<!DOCTYPE svg PUBLIC "-//W3C//DTD SVG 1.1//EN" "http://www.w3.org/Graphics/SVG/1.1/DTD/svg11.dtd"[]><svg version="1.1" xmlns="http://www.w3.org/2000/svg" xmlns:xlink="http://www.w3.org/1999/xlink" width="112px" height="19px" viewBox="0 0 112.5 18.807" enable-background="new 0 0 112.5 18.807" xml:space="preserve">
<g id="Group_BackLegs">
	<path fill="#333333" d="M108.896,11.149l2.365-1.014V4.167h0.788V2.365h0.45V0l-3.604,1.689V11.149z" />
	<path fill="#333333" d="M66.779,11.149l2.252-1.014V4.167h0.676V2.365h0.676V1.689h-3.604l-2.467,6.151L66.779,11.149z" />
	<path fill="#333333" d="M24.437,11.149l2.478-1.014V4.167h0.675V2.365h0.451V1.689h-3.604l-2.843,4.842L24.437,11.149z" />
	<path fill="#4C4C4C" d="M15.653,1.689v1.802h0.675v1.802h0.451v5.856h7.658V5.293h0.676V3.491h0.45V1.689H15.653z" />
	<path fill="#4C4C4C" d="M100.338,1.689v1.802h0.45v1.802h0.563v5.856h7.77V5.293h0.338V3.491h0.789V1.689H100.338z" />
	<path fill="#4C4C4C" d="M57.996,1.689v1.802h0.676v1.802h0.449v5.856h7.658V5.293h0.676V3.491h0.45V1.689H57.996z" />
	<path fill="#333333" d="M101.914,14.753l2.479-1.352V7.545h0.449V5.969h0.676V3.491l-4.471,2.256L101.914,14.753z" />
	<path fill="#333333" d="M59.797,14.753l2.253-1.352V7.545h0.675V5.969h0.451V5.293h-3.379l-2.141,5.985L59.797,14.753z" />
	<path fill="#333333" d="M17.455,14.753l2.478-1.352V7.545h0.45V5.969h0.676V5.293h-3.604l-3.018,4.923L17.455,14.753z" />
	<path fill="#4C4C4C" d="M8.671,5.293v1.802h0.675v1.802h0.451v5.856h7.658V8.896h0.676V7.095h0.45V5.293H8.671z" />
	<path fill="#4C4C4C" d="M93.131,5.293v1.802h0.676v1.802h0.45v5.856h7.657V8.896h0.676V7.095h0.451V5.293H93.131z" />
	<path fill="#4C4C4C" d="M51.014,5.293v1.802h0.675v1.802h0.451v5.856h7.657V8.896h0.451V7.095h0.676V5.293H51.014z" />
	<path fill="#4C4C4C" d="M98.311,0h13.852l-2.703,1.126H95.607L98.311,0z" />
	<path fill="#4C4C4C" d="M17.905,0h13.964l-2.703,1.126H15.203L17.905,0z" />
	<path fill="#4C4C4C" d="M82.996,5.969h13.963l-2.702,1.126H80.293L82.996,5.969z" />
	<path fill="#4C4C4C" d="M3.002,5.969h13.777l-2.928,1.126H0L3.002,5.969z" />
	<path fill="none" d="M0.563,11.149h8.671" />
	<path fill="none" d="M8.671,12.838H1.126" />
	<path fill="none" d="M0,7.996h94.257" />
	<path fill="none" d="M85.022,11.149h8.784" />
	<path fill="none" d="M93.355,12.95h-7.657" />
	<path fill="none" d="M42.905,11.149h8.559" />
	<path fill="none" d="M51.014,12.838h-7.658" />
</g>
<g id="Group_FrontLegs">
	<path fill="#333333" d="M93.131,18.806l2.477-1.125v-6.082h0.451v-1.463h0.676V7.545l-3.604,1.802l-2.475,5.9L93.131,18.806z" />
	<path fill="#333333" d="M51.014,18.806l2.252-1.125v-6.082h0.676v-1.463h0.451V9.347h-3.378l-1.076,6.588L51.014,18.806z" />
	<path fill="#333333" d="M8.671,18.806l2.477-1.125v-6.082h0.451v-1.463h0.676V9.347H8.671l-2.546,6.182L8.671,18.806z" />
	<path fill="#7F7F7F" d="M0,9.347v1.803h0.563v1.801h0.563v5.855h7.545V12.95h0.675v-1.801h0.451V9.347L5.25,8.221L0,9.347z" />
	<path fill="#7F7F7F" d="M84.347,9.347v1.803h0.676v1.801h0.45v5.855h7.658V12.95h0.676v-1.801h0.45V9.347l-4.955-1.126   L84.347,9.347z" />
	<path fill="#7F7F7F" d="M42.229,9.347v1.803h0.676v1.801h0.451v5.855h7.658V12.95h0.45v-1.801h0.676V9.347l-4.955-1.126   L42.229,9.347z" />
</g>
<g id="Group_GridSides">
	<path fill="#999999" d="M0,7.095h94.257v2.252H0V7.095z" />
	<path fill="#999999" d="M112.5,0L94.257,7.095v2.252L112.5,2.365V0z" />
</g>
<g id="Group_TopGrid">
	<polygon fill="#6D6A6A" points="17.905,0 0,7.095 94.257,7.095 112.162,0  " />
	<path fill="#B2B2B2" d="M17.905,0L0,7.095h94.257L112.5,0H17.905z M88.454,0.338h8.559l-1.13,0.451h-8.559L88.454,0.338z    M95.036,1.126l-1.413,0.563h-8.559l1.413-0.563H95.036z M9.749,4.392l1.421-0.563h8.498l-1.43,0.563H9.749z M17.38,4.73   l-0.857,0.337H8.044L8.896,4.73H17.38z M79.164,2.928l-1.431,0.563h-8.559l1.431-0.563H79.164z M71.462,2.59l1.431-0.563h8.559   L80.021,2.59H71.462z M68.534,2.59h-8.559l1.431-0.563h8.559L68.534,2.59z M67.678,2.928l-1.431,0.563h-8.559l1.431-0.563H67.678z    M57.048,2.59h-8.559l1.43-0.563h8.559L57.048,2.59z M56.19,2.928L54.76,3.491h-8.559l1.431-0.563H56.19z M45.561,2.59h-8.559   l1.43-0.563h8.559L45.561,2.59z M44.704,2.928l-1.431,0.563h-8.559l1.431-0.563H44.704z M34.3,2.59h-8.701l1.412-0.563h8.719   L34.3,2.59z M33.443,2.928l-1.431,0.563h-8.673l1.413-0.563H33.443z M25.102,1.689H16.57l1.422-0.563h8.541L25.102,1.689z    M24.243,2.027l-1.43,0.563h-8.518l1.421-0.563H24.243z M21.957,2.928l-1.431,0.563h-8.503l1.422-0.563H21.957z M20.232,4.73h8.634   l-0.857,0.337h-8.623L20.232,4.73z M21.08,4.392l1.412-0.563h8.662l-1.43,0.563H21.08z M31.568,4.73h8.559l-0.856,0.337h-8.559   L31.568,4.73z M32.427,4.392l1.43-0.563h8.559l-1.43,0.563H32.427z M43.055,4.73h8.558l-0.856,0.337h-8.559L43.055,4.73z    M43.913,4.392l1.43-0.563h8.558l-1.43,0.563H43.913z M54.542,4.73h8.559l-0.857,0.337h-8.558L54.542,4.73z M55.4,4.392l1.43-0.563   h8.559l-1.43,0.563H55.4z M66.028,4.73h8.559l-0.857,0.337h-8.559L66.028,4.73z M66.887,4.392l1.43-0.563h8.559l-1.43,0.563H66.887   z M77.439,4.73h8.559l-0.847,0.337h-8.559L77.439,4.73z M78.287,4.392l1.411-0.563h8.559l-1.411,0.563H78.287z M80.546,3.491   l1.413-0.563h8.559l-1.413,0.563H80.546z M82.806,2.59l1.412-0.563h8.559L91.364,2.59H82.806z M77.183,0.338h8.559l-1.145,0.451   h-8.559L77.183,0.338z M75.182,1.126h8.559l-1.432,0.563H73.75L75.182,1.126z M65.696,0.338h8.559L73.11,0.789h-8.559L65.696,0.338   z M63.695,1.126h8.559l-1.432,0.563h-8.559L63.695,1.126z M54.209,0.338h8.558l-1.145,0.451h-8.558L54.209,0.338z M52.208,1.126   h8.559l-1.432,0.563h-8.558L52.208,1.126z M42.723,0.338h8.559l-1.145,0.451h-8.559L42.723,0.338z M49.28,1.126l-1.431,0.563   h-8.559l1.431-0.563H49.28z M31.247,0.338h8.773l-1.145,0.451h-8.759L31.247,0.338z M38.019,1.126l-1.431,0.563h-8.73l1.413-0.563   H38.019z M28.534,0.338L27.39,0.789h-8.546l1.137-0.451H28.534z M11.946,6.87h-8.45l1.705-0.676h8.461L11.946,6.87z M14.233,5.969   H5.77l1.706-0.676h8.475L14.233,5.969z M23.432,6.87h-8.566l1.695-0.676h8.587L23.432,6.87z M17.125,5.969l1.695-0.676h8.616   L25.72,5.969H17.125z M34.693,6.87h-8.559l1.716-0.676h8.559L34.693,6.87z M36.981,5.969h-8.559l1.716-0.676h8.559L36.981,5.969z    M46.18,6.87h-8.558l1.716-0.676h8.558L46.18,6.87z M48.467,5.969h-8.558l1.716-0.676h8.558L48.467,5.969z M57.666,6.87h-8.558   l1.716-0.676h8.559L57.666,6.87z M59.954,5.969h-8.558l1.716-0.676h8.559L59.954,5.969z M69.152,6.87h-8.559l1.717-0.676h8.559   L69.152,6.87z M71.44,5.969h-8.559l1.717-0.676h8.559L71.44,5.969z M80.632,6.87h-8.559l1.695-0.676h8.559L80.632,6.87z    M74.333,5.969l1.694-0.676h8.559l-1.694,0.676H74.333z M91.899,6.87h-8.558l1.717-0.676h8.558L91.899,6.87z M94.188,5.969H85.63   l1.716-0.676h8.559L94.188,5.969z M96.477,5.067h-8.558l0.857-0.337h8.558L96.477,5.067z M98.192,4.392h-8.559l1.43-0.563h8.559   L98.192,4.392z M100.48,3.491h-8.559l1.431-0.563h8.559L100.48,3.491z M102.768,2.59H94.21l1.43-0.563h8.559L102.768,2.59z    M105.056,1.689h-8.558l1.431-0.563h8.559L105.056,1.689z M107.344,0.789h-8.559l1.145-0.451h8.559L107.344,0.789z" />
</g>
</svg>