<!DOCTYPE svg PUBLIC "-//W3C//DTD SVG 1.1//EN" "http://www.w3.org/Graphics/SVG/1.1/DTD/svg11.dtd"[]><svg version="1.1" xmlns="http://www.w3.org/2000/svg" xmlns:xlink="http://www.w3.org/1999/xlink" width="112px" height="16px" viewBox="0 0 112.5 16.121" enable-background="new 0 0 112.5 16.121" xml:space="preserve">
<g id="Group_GridBase">
	<path fill="#C1C1C1" d="M103.82,5.975h3.832v2.479h-3.832V5.975z" />
	<path fill="#4C4C4C" d="M15.895,8.004H112.5L96.381,16.12H0L15.895,8.004z" />
	<path fill="#C1C1C1" d="M112.5,8.004h-2.593h-7.891h-2.479h-7.215h-2.705H81.05H78.57h-7.779h-2.705h-7.665h-2.706h-7.89h-2.48   H40.13h-2.593H28.97h-2.48H18.6h-2.705L5.739,13.189H5.523l-0.451,0.226h0.225l-3.09,1.578H2.142l-0.451,0.226h0.074L0,16.12h2.593   l1.778-0.901h7.69l-1.803,0.901h2.706l1.778-0.901h8.567l-1.778,0.901h2.48l1.79-0.901h7.214l-1.79,0.901h2.705l1.765-0.901h7.791   l-1.778,0.901h2.48l1.803-0.901h7.866l-1.778,0.901h2.706l1.778-0.901h7.677l-1.79,0.901h2.706l1.766-0.901h8.567l-1.766,0.901   h2.367l1.803-0.901h7.414l-1.777,0.901h2.48l1.777-0.901h7.891L93.9,16.12h2.48L112.5,8.004z M109.462,8.229l-1.334,0.677h-7.891   l1.334-0.677H109.462z M99.092,8.229l-1.334,0.677h-7.24l1.354-0.677H99.092z M50.601,11.611h-7.84l1.323-0.676h7.85L50.601,11.611   z M54.558,10.935h7.746l-1.332,0.676h-7.766L54.558,10.935z M50.156,11.837l-1.335,0.677h-7.828l1.325-0.677H50.156z    M52.755,11.837h7.771l-1.335,0.677h-7.79L52.755,11.837z M63.231,11.837h7.726l-1.345,0.677h-7.715L63.231,11.837z M63.677,11.611   l1.333-0.676h7.737l-1.342,0.676H63.677z M65.454,10.71l1.335-0.677h7.75l-1.344,0.677H65.454z M62.749,10.71h-7.74l1.354-0.677   h7.722L62.749,10.71z M52.378,10.71h-7.853l1.325-0.677h7.862L52.378,10.71z M41.97,10.71h-7.214l1.344-0.677h7.214L41.97,10.71z    M41.522,10.935l-1.342,0.676h-7.214l1.342-0.676H41.522z M39.732,11.837l-1.344,0.677h-7.214l1.344-0.677H39.732z M37.942,12.738   l-0.896,0.451h-7.214l0.896-0.451H37.942z M40.553,12.738h7.825l-0.89,0.451h-7.819L40.553,12.738z M50.952,12.738h7.797   l-0.89,0.451h-7.81L50.952,12.738z M61.454,12.738h7.712l-0.896,0.451h-7.706L61.454,12.738z M71.778,12.738h8.567l-0.884,0.451   h-8.567L71.778,12.738z M72.218,12.513l1.325-0.677h8.567l-1.325,0.677H72.218z M73.985,11.611l1.323-0.676h8.567l-1.323,0.676   H73.985z M75.75,10.71l1.326-0.677h8.566l-1.325,0.677H75.75z M77.518,9.807l1.323-0.676h8.567l-1.323,0.676H77.518z M74.987,9.807   h-7.754l1.333-0.676h7.764L74.987,9.807z M64.528,9.807h-7.715l1.352-0.676h7.696L64.528,9.807z M54.158,9.807h-7.865l1.323-0.676   h7.875L54.158,9.807z M43.762,9.807h-7.214l1.342-0.676h7.214L43.762,9.807z M33.98,9.807h-8.567l1.333-0.676h8.567L33.98,9.807z    M33.535,10.033l-1.334,0.677h-8.567l1.334-0.677H33.535z M31.756,10.935l-1.333,0.676h-8.567l1.333-0.676H31.756z M29.978,11.837   l-1.334,0.677h-8.567l1.334-0.677H29.978z M28.2,12.738l-0.89,0.451h-8.567l0.89-0.451H28.2z M26.866,13.415l-1.402,0.711h-8.567   l1.402-0.711H26.866z M29.383,13.415h7.214l-1.412,0.711h-7.214L29.383,13.415z M39.228,13.415h7.816l-1.402,0.711h-7.806   L39.228,13.415z M49.599,13.415h7.815l-1.402,0.711h-7.835L49.599,13.415z M60.119,13.415h7.703l-1.412,0.711h-7.692L60.119,13.415   z M70.453,13.415h8.567l-1.393,0.711h-8.567L70.453,13.415z M81.5,13.415h7.364l-1.401,0.711h-7.385L81.5,13.415z M81.951,13.189   l0.902-0.451h7.346l-0.89,0.451H81.951z M83.303,12.513l1.354-0.677h7.321l-1.335,0.677H83.303z M85.107,11.611l1.352-0.676h7.296   l-1.333,0.676H85.107z M86.91,10.71l1.354-0.677h7.271L94.2,10.71H86.91z M88.715,9.807l1.352-0.676h7.246l-1.333,0.676H88.715z    M89.176,8.229L87.85,8.906h-8.567l1.326-0.677H89.176z M78.122,8.229l-1.344,0.677h-7.767l1.334-0.677H78.122z M67.641,8.229   l-1.334,0.677h-7.69l1.354-0.677H67.641z M57.27,8.229l-1.334,0.677h-7.878l1.325-0.677H57.27z M46.896,8.229l-1.344,0.677h-7.214   l1.344-0.677H46.896z M37.093,8.229l-1.335,0.677H27.19l1.335-0.677H37.093z M18.155,8.229h7.884l-1.354,0.677H16.82L18.155,8.229z    M16.375,9.132h7.859l-1.352,0.676h-7.84L16.375,9.132z M14.598,10.033h7.834l-1.354,0.677h-7.815L14.598,10.033z M12.818,10.935   h7.809l-1.352,0.676h-7.791L12.818,10.935z M11.04,11.837h7.784l-1.354,0.677H9.706L11.04,11.837z M9.263,12.738h7.759   l-0.902,0.451H8.373L9.263,12.738z M7.928,13.415h7.74l-1.422,0.711H6.525L7.928,13.415z M4.815,14.993l1.265-0.642h7.714   l-1.283,0.642H4.815z M15.186,14.993l1.265-0.642h8.567l-1.265,0.642H15.186z M26.249,14.993l1.274-0.642h7.214l-1.274,0.642   H26.249z M36.137,14.993l1.256-0.642h7.803l-1.265,0.642H36.137z M46.442,14.993l1.283-0.642h7.841l-1.265,0.642H46.442z    M57.007,14.993l1.266-0.642h7.689l-1.274,0.642H57.007z M67.362,14.993l1.257-0.642h8.567l-1.257,0.642H67.362z M78.344,14.993   l1.283-0.642h7.391l-1.266,0.642H78.344z M96.123,14.993h-7.891l1.266-0.642h7.891L96.123,14.993z M97.833,14.126h-7.891   l1.402-0.711h7.891L97.833,14.126z M99.681,13.189H91.79l0.89-0.451h7.891L99.681,13.189z M101.013,12.513h-7.891l1.335-0.677   h7.891L101.013,12.513z M102.793,11.611h-7.891l1.332-0.676h7.891L102.793,11.611z M104.57,10.71H96.68l1.335-0.677h7.891   L104.57,10.71z M106.35,9.807h-7.891l1.333-0.676h7.891L106.35,9.807z" />
	<path fill="none" d="M15.895,8.004H112.5L96.381,16.12H0L15.895,8.004" />
	<path fill="none" d="M15.669,0.001h96.38L96.381,8.004H0L15.669,0.001" />
</g>
<g id="Group_InsideGridBoxes">
	<path fill="#4C4C4C" d="M15.669,0.001h96.38L96.381,8.004H0L15.669,0.001z" />
</g>
<g id="Group_GridSides">
	<path fill="#BCBCBC" d="M0.451,10.976h7.102v2.546H0.451V10.976z" />
	<path fill="#999999" d="M107.652,6.426h3.945l-14.09,7.215h-4.059L107.652,6.426z" />
	<path fill="#B2B2B2" d="M112.5,2.931l-1.353,0.563v2.029l1.353-0.677V2.931z" />
	<path fill="#ADADAD" d="M97.057,10.328l-1.463,0.832v2.713l1.463-0.823V10.328z" />
	<path fill="#BCBCBC" d="M44.639,10.935h6.989v2.583h-6.989V10.935z" />
	<path fill="#666666" d="M107.652,2.48h3.945v4.171h-3.945V2.48z" />
	<path fill="#BCBCBC" d="M88.94,10.935h6.989v2.479H88.94V10.935z" />
	<path fill="#666666" d="M99.987,6.342h4.058v3.917h-4.058V6.342z" />
	<path fill="#A3A3A3" d="M112.5,4.847l-1.353,0.677v1.127l-5.975,2.931V8.68l-1.353,0.677v0.901l-6.088,3.156v-0.901l-1.352,0.676   l-2.339,1.465l2.339,1.466L112.5,8.004V4.847z" />
	<path fill="#B2B2B2" d="M105.173,6.651l-1.127,0.564l-0.001,2.142l1.128-0.677V6.651z" />
	<path fill="#C6C6C6" d="M96.381,11.16l1.352-0.676V9.357l6.088-2.932v0.902l1.353-0.677V5.75l5.975-3.27v1.015l1.353-0.563V0.001   L96.381,8.004l-0.99,1.697L96.381,11.16z" />
	<path fill="#B2B2B2" d="M0,13.189h8.003v0.902h36.185v-0.902h8.116v0.902h36.185v-0.902h7.892v2.931H0V13.189z" />
	<path fill="#CECECE" d="M96.381,11.16h-8.117v-1.127H52.079v1.127h-8.116v-1.127H8.003v1.127H0V8.004h96.381V11.16z" />
</g>
<g id="Group_TopGrid">
	<path fill="#DDDDDD" d="M15.669,0.001L0,8.004V8.3h96.325L112.5,0.001H15.669z M91.649,0.113h7.218l-1.533,0.789h-7.24   L91.649,0.113z M97.113,1.015L95.8,1.691h-7.262l1.332-0.676H97.113z M16.521,6.2l1.333-0.676h8.498L25.037,6.2H16.521z    M24.598,6.426l-0.877,0.451h-8.536l0.89-0.451H24.598z M83.511,2.931l-1.087,0.563h-8.44l1.103-0.563H83.511z M75.748,2.594   l1.325-0.677h8.396l-1.306,0.677H75.748z M71.776,4.622h8.473l-1.307,0.677h-8.491L71.776,4.622z M69.511,4.397h-7.716L63.11,3.72   h7.726L69.511,4.397z M72.217,4.397l1.324-0.677h8.447l-1.307,0.677H72.217z M73.042,2.594h-7.741l1.315-0.677h7.751L73.042,2.594z    M72.381,2.931l-1.104,0.563h-7.729l1.096-0.563H72.381z M62.748,2.594h-7.891l1.334-0.677h7.892L62.748,2.594z M62.082,2.931   l-1.111,0.563H53.08l1.111-0.563H62.082z M60.525,3.72l-1.334,0.677H51.3l1.334-0.677H60.525z M52.225,2.594h-7.702l1.325-0.677   h7.692L52.225,2.594z M51.568,2.931l-1.095,0.563h-7.715l1.104-0.563H51.568z M40.551,4.622h7.731l-1.315,0.677h-7.74L40.551,4.622   z M38.286,4.397h-7.214l1.325-0.677h7.214L38.286,4.397z M40.991,4.397l1.325-0.677h7.718l-1.315,0.677H40.991z M41.817,2.594   h-7.214l1.325-0.677h7.214L41.817,2.594z M41.156,2.931l-1.103,0.563h-7.214l1.103-0.563H41.156z M32.047,2.594h-8.415l1.334-0.677   h8.396L32.047,2.594z M31.39,2.931l-1.095,0.563h-8.44l1.111-0.563H31.39z M29.856,3.72l-1.315,0.677h-8.466L21.41,3.72H29.856z    M28.104,4.622l-1.315,0.677h-8.491l1.334-0.677H28.104z M27.101,6.426h7.214l-0.883,0.451h-7.214L27.101,6.426z M27.542,6.2   l1.323-0.676h7.214L34.756,6.2H27.542z M29.307,5.299l1.325-0.677h7.214l-1.325,0.677H29.307z M37.02,6.426h7.756l-0.877,0.451   h-7.762L37.02,6.426z M37.462,6.2l1.323-0.676h7.744L45.214,6.2H37.462z M47.3,6.426h7.891l-0.89,0.451h-7.891L47.3,6.426z    M47.745,6.2l1.333-0.676h7.891L55.636,6.2H47.745z M49.522,5.299l1.335-0.677h7.891l-1.334,0.677H49.522z M57.853,6.426h7.687   l-0.883,0.451h-7.681L57.853,6.426z M58.291,6.2l1.313-0.676h7.699L65.98,6.2H58.291z M60.043,5.299l1.315-0.677h7.713   l-1.325,0.677H60.043z M68.245,6.426h8.522l-0.87,0.451h-8.536L68.245,6.426z M68.687,6.2l1.323-0.676h8.498L77.203,6.2H68.687z    M79.202,6.426h7.395L85.72,6.877h-7.407L79.202,6.426z M79.646,6.2l1.333-0.676h7.37L87.035,6.2H79.646z M81.424,5.299   l1.335-0.677h7.345l-1.316,0.677H81.424z M83.201,4.397l1.335-0.677h7.319L90.54,4.397H83.201z M84.98,3.495l1.111-0.563h7.297   l-1.095,0.563H84.98z M86.758,2.594l1.335-0.677h7.269l-1.315,0.677H86.758z M80.604,0.113h8.345l-1.522,0.789H79.06L80.604,0.113z    M87.208,1.015l-1.304,0.676h-8.39l1.323-0.676H87.208z M70.122,0.113h7.777l-1.545,0.789h-7.766L70.122,0.113z M76.133,1.015   L74.81,1.691h-7.755l1.313-0.676H76.133z M59.748,0.113h7.892l-1.556,0.789h-7.892L59.748,0.113z M65.86,1.015l-1.333,0.676h-7.891   l1.333-0.676H65.86z M49.379,0.113h7.667l-1.533,0.789h-7.678L49.379,0.113z M55.292,1.015l-1.314,0.676H46.29l1.323-0.676H55.292z    M39.459,0.113h7.214l-1.545,0.789h-7.214L39.459,0.113z M44.907,1.015l-1.323,0.676H36.37l1.323-0.676H44.907z M28.523,0.113   h8.345l-1.534,0.789h-8.367L28.523,0.113z M35.115,1.015l-1.314,0.676h-8.389l1.333-0.676H35.115z M17.931,0.113h7.888   l-1.556,0.789h-7.865L17.931,0.113z M16.177,1.015h7.862l-1.333,0.676h-7.843L16.177,1.015z M14.425,1.917h7.836l-1.334,0.677   h-7.818L14.425,1.917z M12.452,2.931h7.808l-1.111,0.563h-7.792L12.452,2.931z M10.918,3.72h7.786L17.37,4.397H9.603L10.918,3.72z    M9.167,4.622h7.76l-1.334,0.677H7.851L9.167,4.622z M7.412,5.524h7.735L13.814,6.2H6.099L7.412,5.524z M5.66,6.426h7.71   l-0.89,0.451H4.783L5.66,6.426z M2.643,8.004l1.702-0.901h7.69l-1.777,0.901H2.643z M12.963,8.004l1.777-0.901h8.542l-1.752,0.901   H12.963z M24.011,8.004l1.765-0.901h7.214l-1.765,0.901H24.011z M33.93,8.004l1.765-0.901h7.766l-1.752,0.901H33.93z M44.188,8.004   l1.777-0.901h7.891l-1.777,0.901H44.188z M54.785,8.004l1.752-0.901h7.677l-1.765,0.901H54.785z M65.155,8.004l1.765-0.901h8.542   l-1.739,0.901H65.155z M76.09,8.004l1.777-0.901h7.414l-1.752,0.901H76.09z M86.01,8.004l1.777-0.901h7.878L93.9,8.004H86.01z    M96.106,6.877h-7.874l0.89-0.451h7.868L96.106,6.877z M97.432,6.2h-7.865l1.333-0.676h7.855L97.432,6.2z M99.196,5.299h-7.853   l1.335-0.677h7.843L99.196,5.299z M100.961,4.397h-7.84l1.335-0.677h7.83L100.961,4.397z M102.729,3.495H94.9l1.111-0.563h7.819   L102.729,3.495z M104.493,2.594h-7.815l1.335-0.677h7.806L104.493,2.594z M106.26,1.691h-7.802l1.332-0.676h7.793L106.26,1.691z    M100.014,0.902l1.556-0.789h7.78l-1.545,0.789H100.014z" />
</g>
</svg>