<!DOCTYPE svg PUBLIC "-//W3C//DTD SVG 1.1//EN" "http://www.w3.org/Graphics/SVG/1.1/DTD/svg11.dtd"[]><svg version="1.1" id="_x23__x23_Group_x5F_Box" xmlns="http://www.w3.org/2000/svg" xmlns:xlink="http://www.w3.org/1999/xlink" width="112px" height="103px" viewBox="0 0 112.5 103.154" enable-background="new 0 0 112.5 103.154" xml:space="preserve">
<g id="Group_Box">
<path fill="#C2A385" d="M0.451,9.911l44.82-6.272l48.085,6.272l17.085,43.975l-17.085,48.705H0.451V9.911z" />
<path fill="#D6C2AD" d="M0.451,9.911l18.468-9.459h93.019L93.243,9.911H0.451z" />
<path fill="#AD845B" d="M93.355,102.591V9.911l18.582-9.459v92.905L93.355,102.591z" />
<path fill="#CCB299" d="M93.355,63.177V49.212H0.563L0.451,63.289L93.355,63.177z" />
<path fill="#B89471" d="M93.355,63.177V49.212l9.234-4.617v13.851L93.355,63.177z" />
<path fill="#FFFFFF" d="M28.378,20.947h37.049v14.865H28.378V20.947z" />
<path d="M31.757,20.947h-3.378v14.865h3.378V20.947z" />
<path d="M35.135,20.947h3.378v14.865h-3.378V20.947z" />
<path d="M45.271,20.947h-3.378v14.865h3.378V20.947z" />
<path d="M48.536,20.947h3.378v14.865h-3.378V20.947z" />
<path d="M58.672,20.947h-3.379v14.865h3.379V20.947z" />
<path d="M62.049,20.947h3.379v14.865h-3.379V20.947z" />
</g>
</svg>