<!DOCTYPE svg PUBLIC "-//W3C//DTD SVG 1.1//EN" "http://www.w3.org/Graphics/SVG/1.1/DTD/svg11.dtd"[]><svg version="1.1" id="_x23__x23_Group_x5F_Box" xmlns="http://www.w3.org/2000/svg" xmlns:xlink="http://www.w3.org/1999/xlink" width="112px" height="112px" viewBox="0 0 112.5 112.277" enable-background="new 0 0 112.5 112.277" xml:space="preserve">
<g id="Group_Box">
<path fill="#C2A385" d="M0.563,0.564H111.6V111.6H0.563V0.564z" />
<path fill="#FFFF00" d="M0.676,47.636h111.036v16.666H0.676V47.636z" />
<path d="M95.158,64.302l16.666-16.666v11.148l-5.631,5.518H95.158z" />
<path d="M72.86,64.302l16.667-16.666h11.148L84.009,64.302H72.86z" />
<path d="M47.86,64.302l16.667-16.666h11.148L59.009,64.302H47.86z" />
<path d="M25.676,64.302l16.667-16.666h11.149L36.712,64.302H25.676z" />
<path d="M3.378,64.302l16.667-16.666h11.149L14.527,64.302H3.378z" />
<path d="M0.563,47.636h8.333l-8.333,8.333V47.636z" />
</g>
</svg>