<!DOCTYPE svg PUBLIC "-//W3C//DTD SVG 1.1//EN" "http://www.w3.org/Graphics/SVG/1.1/DTD/svg11.dtd"[]><svg version="1.1" xmlns="http://www.w3.org/2000/svg" xmlns:xlink="http://www.w3.org/1999/xlink" width="112px" height="9px" viewBox="0 0 112.5 9.346" enable-background="new 0 0 112.5 9.346" xml:space="preserve">
<g id="Group_TopGrid">
	<path fill="#FFE57F" d="M8.79,0h103.702l-9.458,4.617H0.007L8.79,0z" />
	<path fill="#666666" d="M10.367,0.225h99.649l-8.332,4.279H2.259L10.367,0.225z" />
</g>
<g id="Group_InsideGridBoxes">
	<path d="M5.074,3.828h9.571l-1.013,0.338H4.174L5.074,3.828z" />
	<path d="M17.46,3.828h9.458l-0.901,0.338H16.56L17.46,3.828z" />
	<path d="M29.846,3.828h9.233l-0.901,0.338h-9.233L29.846,3.828z" />
	<path d="M42.006,3.828h9.458l-0.901,0.338h-9.458L42.006,3.828z" />
	<path d="M54.392,3.828h9.458l-0.901,0.338h-9.458L54.392,3.828z" />
	<path d="M66.777,3.828h9.233l-0.9,0.338h-9.233L66.777,3.828z" />
	<path d="M78.938,3.828h9.458l-0.9,0.338h-9.233L78.938,3.828z" />
	<path d="M91.324,3.828h9.458l-0.901,0.338h-9.457L91.324,3.828z" />
	<path d="M6.538,3.04h9.346l-0.901,0.451H5.525L6.538,3.04z" />
	<path d="M18.812,3.04h9.233l-0.676,0.451h-9.458L18.812,3.04z" />
	<path d="M30.972,3.04h9.458l-0.901,0.451h-9.233L30.972,3.04z" />
	<path d="M43.357,3.04h9.458l-0.901,0.451h-9.458L43.357,3.04z" />
	<path d="M55.743,3.04h9.233l-0.676,0.451h-9.458L55.743,3.04z" />
	<path d="M67.904,3.04h9.458l-0.901,0.451h-9.232L67.904,3.04z" />
	<path d="M80.289,3.04h9.459l-0.9,0.451h-9.459L80.289,3.04z" />
	<path d="M92.676,3.04h9.346l-0.789,0.451h-9.458L92.676,3.04z" />
	<path d="M7.777,2.365h9.233l-0.676,0.563H6.876L7.777,2.365z" />
	<path d="M19.938,2.365h9.458l-0.901,0.563h-9.233L19.938,2.365z" />
	<path d="M32.323,2.365h9.458L40.88,2.928h-9.458L32.323,2.365z" />
	<path d="M44.709,2.365h9.233l-0.676,0.563h-9.458L44.709,2.365z" />
	<path d="M56.869,2.365h9.459l-0.901,0.563h-9.233L56.869,2.365z" />
	<path d="M69.255,2.365h9.458l-0.9,0.563h-9.458L69.255,2.365z" />
	<path d="M81.641,2.365H91.1l-0.901,0.563H80.74L81.641,2.365z" />
	<path d="M94.026,2.365h9.12l-0.787,0.563h-9.234L94.026,2.365z" />
	<path d="M9.241,1.802h9.12l-0.901,0.45H8.227L9.241,1.802z" />
	<path d="M21.289,1.802h9.458l-0.901,0.45h-9.458L21.289,1.802z" />
	<path d="M33.674,1.802h9.458l-0.901,0.45h-9.458L33.674,1.802z" />
	<path d="M46.06,1.802h9.233l-0.901,0.45h-9.233L46.06,1.802z" />
	<path d="M58.221,1.802h9.458l-0.901,0.45H57.32L58.221,1.802z" />
	<path d="M70.606,1.802h9.458l-0.9,0.45h-9.459L70.606,1.802z" />
	<path d="M82.992,1.802h9.232l-0.676,0.45h-9.457L82.992,1.802z" />
	<path d="M95.04,1.802h9.571l-1.014,0.45h-9.121L95.04,1.802z" />
	<path d="M10.367,1.126h9.345l-0.9,0.338H9.353L10.367,1.126z" />
	<path d="M22.64,1.126h9.458l-0.9,0.338h-9.458L22.64,1.126z" />
	<path d="M35.025,1.126h9.233l-0.901,0.338h-9.233L35.025,1.126z" />
	<path d="M47.186,1.126h9.458l-0.901,0.338h-9.458L47.186,1.126z" />
	<path d="M59.572,1.126h9.457l-0.9,0.338h-9.458L59.572,1.126z" />
	<path d="M71.957,1.126h9.233l-0.901,0.338h-9.232L71.957,1.126z" />
	<path d="M84.118,1.126h9.458l-0.9,0.338h-9.233L84.118,1.126z" />
	<path d="M96.504,1.126h9.346l-0.789,0.338h-9.457L96.504,1.126z" />
	<path d="M11.605,0.338h9.458l-0.901,0.45h-9.458L11.605,0.338z" />
	<path d="M23.991,0.338h9.233l-0.675,0.45H23.09L23.991,0.338z" />
	<path d="M36.151,0.338h9.458l-0.9,0.45h-9.233L36.151,0.338z" />
	<path d="M48.537,0.338h9.458l-0.9,0.45h-9.458L48.537,0.338z" />
	<path d="M60.923,0.338h9.233l-0.676,0.45h-9.459L60.923,0.338z" />
	<path d="M73.084,0.338h9.457l-0.9,0.45h-9.232L73.084,0.338z" />
	<path d="M85.469,0.338h9.459l-0.901,0.45h-9.458L85.469,0.338z" />
	<path d="M97.742,0.338h9.57l-1.013,0.45h-9.346L97.742,0.338z" />
</g>
<g id="Group_GridSides">
	<path d="M111.704,0.676l-9.12,4.616v4.054l9.12-4.729V0.676z" />
	<path fill="#FFCC00" d="M0.007,4.617h103.027l9.458-0.451l-9.458,4.616H0.007V4.617z" />
	<path fill="#333333" d="M0.007,9.346h102.577V8.782H0.007V9.346z" />
	<path fill="#BF8C00" d="M112.492,0l-9.458,4.617v4.166l9.458-4.616V0z" />
	<path fill="none" d="M0.007,4.617L8.79,0h103.702v3.941l-9.458,4.841H0.007V4.617" />
</g>
</svg>