<!DOCTYPE svg PUBLIC "-//W3C//DTD SVG 20000303 Stylable//EN" "http://www.w3.org/TR/2000/03/WD-SVG-20000303/DTD/svg-20000303-stylable.dtd"[]><svg xmlns="http://www.w3.org/2000/svg" width="999px" height="427px" viewBox="0 0 750 296"><path style="fill:none;stroke:#4c4c4c;stroke-width:2" d="M624,187 l1,-6 2,-6 3,-5 4,-5 4,-4 6,-3 6,-1 6,-1 7,1 6,1 5,3 5,4 4,5 3,5 1,6 1,6" /><path style="fill:none;stroke:#4c4c4c;stroke-width:2" d="M438,187 l1,-6 1,-6 3,-5 4,-5 5,-4 5,-3 6,-1 7,-1 7,1 6,1 5,3 5,4 4,5 3,5 1,6 1,6" /><path style="fill:none;stroke:#4c4c4c;stroke-width:2" d="M500,187 l1,-6 1,-6 3,-5 4,-5 5,-4 5,-3 6,-1 6,-1 7,1 6,1 5,3 5,4 4,5 3,5 1,6 1,6" /><path style="fill:none;stroke:#4c4c4c;stroke-width:2" d="M563,187 l1,-6 1,-6 3,-5 4,-5 5,-4 5,-3 6,-1 6,-1 7,1 6,1 5,3 5,4 4,5 3,5 1,6 1,6" /><path style="fill:none;stroke:#4c4c4c;stroke-width:2" d="M344,31 l1,-6 1,-6 3,-5 4,-5 5,-4 5,-3 6,-1 6,-1 7,1 6,1 5,3 5,4 4,5 3,5 1,6 1,6" /><path style="fill:none;stroke:#4c4c4c;stroke-width:2" d="M158,31 l1,-6 1,-6 3,-5 4,-5 5,-4 5,-3 6,-1 6,-1 7,1 6,1 5,3 5,4 4,5 3,5 1,6 1,6" /><path style="fill:none;stroke:#4c4c4c;stroke-width:2" d="M219,31 l1,-6 1,-6 3,-5 4,-5 5,-4 5,-3 6,-1 7,-1 6,1 6,1 5,3 5,4 4,5 3,5 1,6 1,6" /><path style="fill:none;stroke:#4c4c4c;stroke-width:2" d="M407,31 l342,0" /><path style="fill:none;stroke:#4c4c4c;stroke-width:2" d="M158,31 l-156,0" /><path style="fill:none;stroke:#4c4c4c;stroke-width:2" d="M688,187 l62,0" /><path style="fill:none;stroke:#4c4c4c;stroke-width:2" d="M399,186 l39,0" /><path style="fill:none;stroke:#4c4c4c;stroke-width:2" d="M72,187 l-72,0" /><path style="fill:none;stroke:#4c4c4c;stroke-width:2" d="M282,31 l1,-6 1,-6 3,-5 4,-5 5,-4 5,-3 7,-1 7,-1 6,1 6,1 5,3 4,4 4,5 3,5 1,6 1,6" /><path style="fill:none;stroke:#4c4c4c;stroke-width:2" d="M134,225 l-62,0 0,-77 62,0" /><path style="fill:none;stroke:#4c4c4c;stroke-width:2" d="M337,148 l62,0 0,77 -62,0" /><circle style="fill:#0ff;stroke:#4c4c4c;stroke-width:2" cx="235" cy="187" r="109" /></svg>