<!DOCTYPE svg PUBLIC "-//W3C//DTD SVG 20000303 Stylable//EN" "http://www.w3.org/TR/2000/03/WD-SVG-20000303/DTD/svg-20000303-stylable.dtd"[]><svg xmlns="http://www.w3.org/2000/svg" width="999px" height="435px" viewBox="0 0 750 302"><path style="fill:none;stroke:#4c4c4c;stroke-width:2" d="M423,24 l2,-9 5,-8 7,-5 9,-2 9,2 7,5 5,8 2,9" /><path style="fill:none;stroke:#4c4c4c;stroke-width:2" d="M377,24 l2,-9 5,-8 7,-5 8,-2 9,2 7,5 5,8 2,9" /><path style="fill:none;stroke:#4c4c4c;stroke-width:2" d="M281,24 l2,-9 5,-8 7,-5 9,-2 9,2 7,5 5,8 2,9" /><path style="fill:none;stroke:#4c4c4c;stroke-width:2" d="M469,24 l281,0" /><path style="fill:none;stroke:#4c4c4c;stroke-width:2" d="M281,24 l-281,0" /><path style="fill:none;stroke:#4c4c4c;stroke-width:2" d="M328,24 l2,-9 5,-8 8,-5 9,-2 8,2 8,5 5,8 2,9" /><path style="fill:none;stroke:#4c4c4c;stroke-width:2" d="M203,176 l-172,0" /><path style="fill:none;stroke:#4c4c4c;stroke-width:2" d="M258,133 l-55,0 0,86 55,0" /><path style="fill:none;stroke:#4c4c4c;stroke-width:2" d="M547,176 l172,0" /><path style="fill:none;stroke:#4c4c4c;stroke-width:2" d="M493,133 l54,0 0,86 -54,0" /><circle style="fill:#0ff;stroke:#4c4c4c;stroke-width:2" cx="375" cy="176" r="124" /></svg>