<!DOCTYPE svg PUBLIC "-//W3C//DTD SVG 20000303 Stylable//EN" "http://www.w3.org/TR/2000/03/WD-SVG-20000303/DTD/svg-20000303-stylable.dtd"[]><svg xmlns="http://www.w3.org/2000/svg" width="999px" height="269px" viewBox="0 0 225 52"><path style="fill:none;stroke:#4c4c4c;stroke-width:2" d="M75,47 l-75,0" /><path style="fill:none;stroke:#4c4c4c;stroke-width:2" d="M75,10 l-75,0" /><path style="fill:none;stroke:#4c4c4c;stroke-width:2" d="M150,47 l75,0" /><path style="fill:none;stroke:#4c4c4c;stroke-width:2" d="M150,10 l75,0" /><path style="fill:none;stroke:#4c4c4c;stroke-width:2" d="M112,10 l33,-10" /><path style="fill:none;stroke:#4c4c4c;stroke-width:2" d="M112,47 l33,-9" /><path style="fill:#fff;stroke:#4c4c4c;stroke-width:2" d="M70,10 l1,3 4,1 3,-1 1,-3 -1,-4 -3,-1 -4,1 -1,4z" /><path style="fill:#fff;stroke:#4c4c4c;stroke-width:2" d="M108,10 l1,3 3,1 4,-1 1,-3 -1,-4 -4,-1 -3,1 -1,4z" /><path style="fill:#fff;stroke:#4c4c4c;stroke-width:2" d="M145,10 l1,3 4,1 3,-1 1,-3 -1,-4 -3,-1 -4,1 -1,4z" /><path style="fill:#fff;stroke:#4c4c4c;stroke-width:2" d="M70,47 l1,4 4,1 3,-1 1,-4 -1,-3 -3,-1 -4,1 -1,3z" /><path style="fill:#fff;stroke:#4c4c4c;stroke-width:2" d="M108,47 l1,4 3,1 4,-1 1,-4 -1,-3 -4,-1 -3,1 -1,3z" /><path style="fill:#fff;stroke:#4c4c4c;stroke-width:2" d="M145,47 l1,4 4,1 3,-1 1,-4 -1,-3 -3,-1 -4,1 -1,3z" /><path style="fill:none;stroke:#4c4c4c;stroke-width:2" d="M131,5 l0,38" /></svg>