<!DOCTYPE svg PUBLIC "-//W3C//DTD SVG 20000303 Stylable//EN" "http://www.w3.org/TR/2000/03/WD-SVG-20000303/DTD/svg-20000303-stylable.dtd"[]><svg xmlns="http://www.w3.org/2000/svg" width="999px" height="336px" viewBox="0 0 999 296"><path style="fill:#0ff;stroke:#4c4c4c;stroke-width:2" d="M269,296 l0,-296 459,0 0,296 -459,0z" /><path style="fill:#0ff;stroke:#4c4c4c;stroke-width:2" d="M729,251 l0,-51 58,0 27,7 159,0 11,1 8,3 5,6 2,8 -2,8 -5,6 -8,4 -11,1 -159,0 -26,7 -59,0z" /><path style="fill:#0ff;stroke:#4c4c4c;stroke-width:2" d="M269,173 l-57,0 -28,-7 -158,0 -12,-1 -8,-4 -5,-6 -1,-7 1,-8 5,-6 8,-4 12,-1 158,0 28,-7 57,0 0,51z" /><path style="fill:#0ff;stroke:#4c4c4c;stroke-width:2" d="M729,94 l0,-50 58,0 27,7 159,0 11,1 8,3 5,6 2,8 -2,8 -5,5 -8,4 -11,1 -159,0 -26,7 -59,0z" /><path style="fill:#0ff;stroke:#4c4c4c;stroke-width:2" d="M287,279 l425,0 0,-263 -425,0 0,263z" /></svg>