<!DOCTYPE svg PUBLIC "-//W3C//DTD SVG 20000303 Stylable//EN" "http://www.w3.org/TR/2000/03/WD-SVG-20000303/DTD/svg-20000303-stylable.dtd"[]><svg xmlns="http://www.w3.org/2000/svg" width="999px" height="526px" viewBox="0 0 999 498"><path style="fill:#0ff;stroke:#4c4c4c;stroke-width:2" d="M653,240 l346,0 0,18 -346,0 -2,18 -3,18 -4,17 -6,17 -6,14 -7,14 -8,14 -10,12 -9,12 -11,11 -11,10 -11,9 -13,9 -13,8 -13,7 -14,7 -14,6 -14,6 -15,5 -15,4 -15,4 -15,4 -16,3 -15,2 -15,3 -15,1 -16,2 -14,1 -15,1 -14,0 -15,1 -13,0 0,-103 -276,0 0,-18 276,0 0,-258 -276,0 0,-17 276,0 0,-102 15,0 16,0 16,1 16,1 16,1 16,1 15,2 16,2 16,3 15,3 15,3 15,4 15,5 15,5 14,5 14,6 13,7 13,8 11,8 12,8 11,10 11,10 10,11 9,11 8,13 8,13 6,14 7,15 4,16 4,17 3,18 2,19z" /><path style="fill:#0ff;stroke:#4c4c4c;stroke-width:2" d="M310,16 l-1,0 -2,0 -3,0 -3,0 -3,0 -4,0 -1,0 -1,0 0,466 8,0 9,-1 8,0 9,-1 8,0 9,-1 9,-1 9,-1 8,-2 9,-1 9,-1 8,-2 9,-2 8,-2 9,-1 8,-2 17,-4 16,-4 17,-6 17,-7 16,-7 16,-9 16,-10 15,-11 14,-13 13,-14 12,-16 11,-17 9,-20 9,-21 6,-22 4,-25 0,-2 0,-2 0,-3 0,-2 0,-3 0,-2 0,-2 0,-2 -4,-25 -6,-23 -8,-22 -8,-19 -11,-18 -12,-16 -14,-15 -15,-14 -17,-12 -18,-11 -20,-10 -21,-8 -23,-8 -24,-6 -26,-6 -27,-5 -11,-2 -9,-1 -9,-1 -8,-1 -9,0 -8,-1 -9,0 -10,0z" /></svg>