<!DOCTYPE svg PUBLIC "-//W3C//DTD SVG 20000303 Stylable//EN" "http://www.w3.org/TR/2000/03/WD-SVG-20000303/DTD/svg-20000303-stylable.dtd"[]><svg xmlns="http://www.w3.org/2000/svg" width="999px" height="734px" viewBox="0 0 999 718"><path style="fill:none;stroke:#4c4c4c;stroke-width:2" d="M124,359 l0,-3 1,-2 0,-2 0,-3 0,-2 0,-2 0,-3 0,-2 1,-2 0,-3 0,-2 0,-2 0,-3 0,-2 0,-2 0,-3" /><path style="fill:none;stroke:#4c4c4c;stroke-width:2" d="M126,321 l1,-2 0,-2 1,-3 0,-2 0,-2 1,-3 0,-2 1,-2 0,-3 0,-2 1,-2 0,-3 0,-2 1,-2 0,-3 1,-2" /><path style="fill:none;stroke:#4c4c4c;stroke-width:2" d="M133,284 l0,-2 1,-3 0,-2 1,-2 1,-2 0,-3 1,-2 1,-2 0,-2 1,-3 0,-2 1,-2 1,-3 0,-2 1,-2 1,-2" /><path style="fill:none;stroke:#4c4c4c;stroke-width:2" d="M143,248 l1,-3 0,-2 1,-2 1,-2 1,-2 1,-3 1,-2 1,-2 1,-2 0,-2 1,-2 1,-3 1,-2 1,-2 1,-2 1,-2" /><path style="fill:none;stroke:#4c4c4c;stroke-width:2" d="M157,213 l1,-3 1,-2 1,-2 1,-2 1,-2 1,-2 1,-2 2,-2 1,-2 1,-2 1,-3 1,-2 1,-2 1,-2 1,-2 2,-2" /><path style="fill:none;stroke:#4c4c4c;stroke-width:2" d="M175,179 l1,-2 1,-2 2,-2 1,-2 1,-2 2,-2 1,-2 1,-2 2,-2 1,-2 1,-2 2,-2 1,-2 1,-2 2,-1 1,-2" /><path style="fill:none;stroke:#4c4c4c;stroke-width:2" d="M196,148 l1,-2 2,-2 1,-2 2,-2 2,-2 1,-1 2,-2 1,-2 2,-2 1,-2 2,-2 1,-1 2,-2 2,-2 1,-2 2,-2" /><path style="fill:none;stroke:#4c4c4c;stroke-width:2" d="M221,118 l1,-1 2,-2 2,-2 1,-1 2,-2 2,-2 2,-1 1,-2 2,-2 2,-1 2,-2 1,-2 2,-1 2,-2 2,-2 1,-1" /><path style="fill:none;stroke:#4c4c4c;stroke-width:2" d="M248,92 l2,-2 2,-1 2,-2 2,-1 2,-2 2,-1 2,-2 1,-1 2,-2 2,-1 2,-1 2,-2 2,-1 2,-2 2,-1 2,-2" /><path style="fill:none;stroke:#4c4c4c;stroke-width:2" d="M279,68 l2,-1 2,-1 2,-2 2,-1 2,-1 2,-2 2,-1 2,-1 2,-1 2,-2 2,-1 3,-1 2,-2 2,-1 2,-1 2,-1" /><path style="fill:none;stroke:#4c4c4c;stroke-width:2" d="M312,48 l2,-1 2,-2 2,-1 2,-1 3,-1 2,-1 2,-1 2,-1 2,-1 2,-1 3,-1 2,-1 2,-1 2,-1 3,-2 2,-1" /><path style="fill:none;stroke:#4c4c4c;stroke-width:2" d="M347,30 l2,0 2,-1 3,-1 2,-1 2,-1 2,-1 3,0 2,-1 2,-1 2,-1 3,-1 2,-1 2,0 3,-1 2,-1 2,-1" /><path style="fill:none;stroke:#4c4c4c;stroke-width:2" d="M383,17 l3,-1 2,0 2,-1 3,0 2,-1 2,-1 3,0 2,-1 3,0 2,-1 2,-1 3,0 2,-1 2,0 3,-1 2,-1" /><path style="fill:none;stroke:#4c4c4c;stroke-width:2" d="M421,7 l2,0 3,0 2,-1 3,0 2,0 3,-1 2,0 2,-1 3,0 2,0 3,-1 2,0 3,-1 2,0 2,0 3,-1" /><path style="fill:none;stroke:#4c4c4c;stroke-width:2" d="M460,1 l2,0 3,0 2,0 3,0 2,0 3,0 2,0 3,-1 2,0 2,0 3,0 2,0 3,0 2,0 3,0 2,0" /><path style="fill:none;stroke:#4c4c4c;stroke-width:2" d="M499,0 l2,0 3,0 2,0 3,0 2,0 3,0 2,0 3,0 2,1 2,0 3,0 2,0 3,0 2,0 3,0 2,0" /><path style="fill:none;stroke:#4c4c4c;stroke-width:2" d="M538,1 l3,1 2,0 2,0 3,1 2,0 3,1 2,0 2,0 3,1 2,0 3,1 2,0 3,0 2,1 3,0 2,0" /><path style="fill:none;stroke:#4c4c4c;stroke-width:2" d="M577,7 l2,1 3,1 2,0 2,1 3,0 2,1 2,1 3,0 2,1 3,0 2,1 2,1 3,0 2,1 2,0 3,1" /><path style="fill:none;stroke:#4c4c4c;stroke-width:2" d="M615,17 l2,1 2,1 3,1 2,0 2,1 3,1 2,1 2,1 2,1 3,0 2,1 2,1 2,1 3,1 2,1 2,0" /><path style="fill:none;stroke:#4c4c4c;stroke-width:2" d="M651,30 l2,1 3,2 2,1 2,1 2,1 2,1 3,1 2,1 2,1 2,1 2,1 3,1 2,1 2,1 2,2 2,1" /><path style="fill:none;stroke:#4c4c4c;stroke-width:2" d="M686,48 l2,1 2,1 2,1 2,2 2,1 3,1 2,2 2,1 2,1 2,1 2,2 2,1 2,1 2,2 2,1 2,1" /><path style="fill:none;stroke:#4c4c4c;stroke-width:2" d="M719,68 l2,2 2,1 2,2 2,1 2,2 2,1 1,1 2,2 2,1 2,2 2,1 2,2 2,1 2,2 2,1 2,2" /><path style="fill:none;stroke:#4c4c4c;stroke-width:2" d="M750,92 l1,1 2,2 2,2 2,1 1,2 2,2 2,1 2,2 1,2 2,1 2,2 1,2 2,1 2,2 2,2 1,1" /><path style="fill:none;stroke:#4c4c4c;stroke-width:2" d="M777,118 l2,2 1,2 2,2 2,2 1,1 2,2 1,2 2,2 1,2 2,2 1,1 2,2 1,2 2,2 1,2 2,2" /><path style="fill:none;stroke:#4c4c4c;stroke-width:2" d="M802,148 l1,2 2,1 1,2 1,2 2,2 1,2 1,2 2,2 1,2 1,2 2,2 1,2 1,2 2,2 1,2 1,2" /><path style="fill:none;stroke:#4c4c4c;stroke-width:2" d="M823,179 l2,2 1,2 1,2 1,2 1,2 1,3 1,2 1,2 1,2 2,2 1,2 1,2 1,2 1,2 1,2 1,3" /><path style="fill:none;stroke:#4c4c4c;stroke-width:2" d="M841,213 l1,2 1,2 1,2 1,2 1,3 1,2 0,2 1,2 1,2 1,2 1,3 1,2 1,2 1,2 0,2 1,3" /><path style="fill:none;stroke:#4c4c4c;stroke-width:2" d="M855,248 l1,2 0,2 1,2 1,3 0,2 1,2 1,3 0,2 1,2 1,2 0,3 1,2 0,2 1,2 1,3 0,2" /><path style="fill:none;stroke:#4c4c4c;stroke-width:2" d="M865,284 l1,2 0,3 1,2 0,2 0,3 1,2 0,2 1,3 0,2 0,2 1,3 0,2 0,2 1,3 0,2 1,2" /><path style="fill:none;stroke:#4c4c4c;stroke-width:2" d="M872,321 l0,3 0,2 0,2 0,3 0,2 0,2 0,3 1,2 0,2 0,3 0,2 0,2 0,3 0,2 1,2 0,3" /><path style="fill:none;stroke:#4c4c4c;stroke-width:2" d="M874,359 l0,2 -1,2 0,3 0,2 0,2 0,3 0,2 0,2 -1,3 0,2 0,3 0,2 0,2 0,3 0,2 0,2" /><path style="fill:none;stroke:#4c4c4c;stroke-width:2" d="M872,396 l-1,3 0,2 -1,2 0,2 0,3 -1,2 0,2 0,3 -1,2 0,2 -1,3 0,2 0,2 -1,3 0,2 -1,2" /><path style="fill:none;stroke:#4c4c4c;stroke-width:2" d="M865,433 l0,3 -1,2 -1,2 0,3 -1,2 0,2 -1,2 -1,3 0,2 -1,2 -1,2 0,3 -1,2 -1,2 0,3 -1,2" /><path style="fill:none;stroke:#4c4c4c;stroke-width:2" d="M855,470 l-1,2 0,2 -1,2 -1,3 -1,2 -1,2 -1,2 -1,2 -1,3 0,2 -1,2 -1,2 -1,2 -1,2 -1,3 -1,2" /><path style="fill:none;stroke:#4c4c4c;stroke-width:2" d="M841,505 l-1,2 -1,2 -1,2 -1,2 -1,2 -1,2 -2,3 -1,2 -1,2 -1,2 -1,2 -1,2 -1,2 -1,2 -1,2 -2,2" /><path style="fill:none;stroke:#4c4c4c;stroke-width:2" d="M823,538 l-1,2 -1,2 -2,2 -1,2 -1,2 -2,2 -1,2 -1,2 -2,2 -1,2 -1,2 -2,2 -1,2 -1,2 -2,2 -1,2" /><path style="fill:none;stroke:#4c4c4c;stroke-width:2" d="M802,570 l-2,2 -1,2 -2,1 -1,2 -2,2 -1,2 -2,2 -1,2 -2,1 -1,2 -2,2 -1,2 -2,2 -2,2 -1,1 -2,2" /><path style="fill:none;stroke:#4c4c4c;stroke-width:2" d="M777,599 l-1,2 -2,1 -2,2 -2,2 -1,1 -2,2 -2,2 -1,1 -2,2 -2,2 -2,1 -1,2 -2,2 -2,1 -2,2 -1,2" /><path style="fill:none;stroke:#4c4c4c;stroke-width:2" d="M750,626 l-2,1 -2,2 -2,1 -2,2 -2,1 -2,2 -2,1 -2,2 -2,1 -1,1 -2,2 -2,1 -2,2 -2,1 -2,2 -2,1" /><path style="fill:none;stroke:#4c4c4c;stroke-width:2" d="M719,649 l-2,2 -2,1 -2,1 -2,1 -2,2 -2,1 -2,1 -2,2 -2,1 -2,1 -3,1 -2,2 -2,1 -2,1 -2,2 -2,1" /><path style="fill:none;stroke:#4c4c4c;stroke-width:2" d="M686,670 l-2,1 -2,1 -2,1 -2,1 -3,1 -2,1 -2,1 -2,1 -2,1 -3,2 -2,1 -2,1 -2,1 -2,1 -3,1 -2,1" /><path style="fill:none;stroke:#4c4c4c;stroke-width:2" d="M651,687 l-2,1 -2,1 -3,1 -2,0 -2,1 -2,1 -3,1 -2,1 -2,0 -2,1 -3,1 -2,1 -2,1 -3,1 -2,1 -2,0" /><path style="fill:none;stroke:#4c4c4c;stroke-width:2" d="M615,700 l-3,1 -2,1 -2,0 -3,1 -2,0 -2,1 -3,1 -2,0 -3,1 -2,0 -2,1 -3,1 -2,0 -2,1 -3,1 -2,0" /><path style="fill:none;stroke:#4c4c4c;stroke-width:2" d="M577,710 l-2,1 -3,0 -2,0 -3,1 -2,0 -3,0 -2,1 -3,0 -2,0 -2,1 -3,0 -2,1 -3,0 -2,0 -2,1 -3,0" /><path style="fill:none;stroke:#4c4c4c;stroke-width:2" d="M538,716 l-2,0 -3,0 -2,0 -3,1 -2,0 -3,0 -2,0 -2,0 -3,0 -2,0 -3,0 -2,0 -3,1 -2,0 -3,0 -2,0" /><path style="fill:none;stroke:#4c4c4c;stroke-width:2" d="M499,718 l-2,0 -3,0 -2,0 -3,-1 -2,0 -3,0 -2,0 -2,0 -3,0 -2,0 -3,0 -2,0 -3,-1 -2,0 -3,0 -2,0" /><path style="fill:none;stroke:#4c4c4c;stroke-width:2" d="M460,716 l-3,0 -2,-1 -2,0 -3,0 -2,-1 -3,0 -2,-1 -3,0 -2,0 -2,-1 -3,0 -2,0 -3,-1 -2,0 -3,0 -2,-1" /><path style="fill:none;stroke:#4c4c4c;stroke-width:2" d="M421,710 l-2,0 -3,-1 -2,-1 -2,0 -3,-1 -2,-1 -2,0 -3,-1 -2,0 -3,-1 -2,-1 -2,0 -3,-1 -2,0 -2,-1 -3,-1" /><path style="fill:none;stroke:#4c4c4c;stroke-width:2" d="M383,700 l-2,0 -2,-1 -3,-1 -2,-1 -2,-1 -3,-1 -2,-1 -2,0 -2,-1 -3,-1 -2,-1 -2,-1 -2,0 -3,-1 -2,-1 -2,-1" /><path style="fill:none;stroke:#4c4c4c;stroke-width:2" d="M347,687 l-2,-1 -3,-1 -2,-1 -2,-1 -2,-1 -3,-1 -2,-2 -2,-1 -2,-1 -2,-1 -2,-1 -3,-1 -2,-1 -2,-1 -2,-1 -2,-1" /><path style="fill:none;stroke:#4c4c4c;stroke-width:2" d="M312,670 l-2,-1 -2,-2 -2,-1 -2,-1 -3,-2 -2,-1 -2,-1 -2,-1 -2,-2 -2,-1 -2,-1 -2,-2 -2,-1 -2,-1 -2,-1 -2,-2" /><path style="fill:none;stroke:#4c4c4c;stroke-width:2" d="M279,649 l-2,-1 -2,-2 -2,-1 -2,-2 -2,-1 -2,-2 -2,-1 -2,-1 -1,-2 -2,-1 -2,-2 -2,-1 -2,-2 -2,-1 -2,-2 -2,-1" /><path style="fill:none;stroke:#4c4c4c;stroke-width:2" d="M248,626 l-1,-2 -2,-2 -2,-1 -2,-2 -1,-2 -2,-1 -2,-2 -2,-2 -1,-1 -2,-2 -2,-2 -2,-1 -1,-2 -2,-2 -2,-1 -1,-2" /><path style="fill:none;stroke:#4c4c4c;stroke-width:2" d="M221,599 l-2,-2 -1,-1 -2,-2 -2,-2 -1,-2 -2,-2 -1,-2 -2,-1 -1,-2 -2,-2 -1,-2 -2,-2 -2,-2 -1,-1 -2,-2 -1,-2" /><path style="fill:none;stroke:#4c4c4c;stroke-width:2" d="M196,570 l-1,-2 -2,-2 -1,-2 -1,-2 -2,-2 -1,-2 -1,-2 -2,-2 -1,-2 -1,-2 -2,-2 -1,-2 -1,-2 -2,-2 -1,-2 -1,-2" /><path style="fill:none;stroke:#4c4c4c;stroke-width:2" d="M175,538 l-2,-2 -1,-2 -1,-2 -1,-2 -1,-2 -1,-2 -1,-2 -1,-2 -2,-2 -1,-3 -1,-2 -1,-2 -1,-2 -1,-2 -1,-2 -1,-2" /><path style="fill:none;stroke:#4c4c4c;stroke-width:2" d="M157,505 l-1,-2 -1,-3 -1,-2 -1,-2 -1,-2 -1,-2 0,-2 -1,-3 -1,-2 -1,-2 -1,-2 -1,-2 -1,-3 -1,-2 0,-2 -1,-2" /><path style="fill:none;stroke:#4c4c4c;stroke-width:2" d="M143,470 l-1,-2 -1,-3 0,-2 -1,-2 -1,-3 0,-2 -1,-2 0,-2 -1,-3 -1,-2 0,-2 -1,-2 -1,-3 0,-2 -1,-2 0,-3" /><path style="fill:none;stroke:#4c4c4c;stroke-width:2" d="M133,433 l-1,-2 0,-2 -1,-3 0,-2 0,-2 -1,-3 0,-2 0,-2 -1,-3 0,-2 -1,-2 0,-3 0,-2 -1,-2 0,-2 -1,-3" /><path style="fill:none;stroke:#4c4c4c;stroke-width:2" d="M126,396 l0,-2 0,-2 0,-3 0,-2 0,-2 0,-3 0,-2 -1,-3 0,-2 0,-2 0,-3 0,-2 0,-2 0,-3 -1,-2 0,-2" /><path style="fill:none;stroke:#4c4c4c;stroke-width:2" d="M999,239 l0,120" /><path style="fill:none;stroke:#4c4c4c;stroke-width:2" d="M999,479 l-147,0" /><path style="fill:none;stroke:#4c4c4c;stroke-width:2" d="M999,359 l0,120" /><path style="fill:none;stroke:#4c4c4c;stroke-width:2" d="M852,239 l147,0" /><path style="fill:none;stroke:#4c4c4c;stroke-width:2" d="M0,359 l0,-120" /><path style="fill:none;stroke:#4c4c4c;stroke-width:2" d="M146,479 l-146,0" /><path style="fill:none;stroke:#4c4c4c;stroke-width:2" d="M0,479 l0,-120" /><path style="fill:none;stroke:#4c4c4c;stroke-width:2" d="M0,239 l146,0" /></svg>