<!DOCTYPE svg PUBLIC "-//W3C//DTD SVG 20000303 Stylable//EN" "http://www.w3.org/TR/2000/03/WD-SVG-20000303/DTD/svg-20000303-stylable.dtd"[]><svg xmlns="http://www.w3.org/2000/svg" width="999px" height="202px" viewBox="0 0 225 36"><path style="fill:none;stroke:#4c4c4c;stroke-width:2" d="M0,18 l70,0" /><path style="fill:none;stroke:#4c4c4c;stroke-width:2" d="M154,18 l71,0" /><path style="fill:none;stroke:#4c4c4c;stroke-width:2" d="M75,18 l2,-8 5,-7 7,-3 9,0 7,3 5,7 2,8 2,8 5,7 8,3 8,0 8,-3 5,-7 2,-8" /><path style="fill:#fff;stroke:#4c4c4c;stroke-width:2" d="M145,18 l1,-3 4,-2 3,2 1,3 -1,3 -3,2 -4,-2 -1,-3z" /><path style="fill:#fff;stroke:#4c4c4c;stroke-width:2" d="M70,18 l1,-3 4,-2 3,2 1,3 -1,3 -3,2 -4,-2 -1,-3z" /></svg>