<!DOCTYPE svg PUBLIC "-//W3C//DTD SVG 20000303 Stylable//EN" "http://www.w3.org/TR/2000/03/WD-SVG-20000303/DTD/svg-20000303-stylable.dtd"[]><svg xmlns="http://www.w3.org/2000/svg" width="999px" height="657px" viewBox="0 0 999 636"><circle style="fill:none;stroke:#4c4c4c;stroke-width:2" cx="686" cy="324" r="62" /><circle style="fill:none;stroke:#4c4c4c;stroke-width:2" cx="312" cy="324" r="63" /><path style="fill:none;stroke:#4c4c4c;stroke-width:2" d="M245,323 l-245,0" /><path style="fill:none;stroke:#4c4c4c;stroke-width:2" d="M751,323 l248,0" /><path style="fill:none;stroke:#4c4c4c;stroke-width:2" d="M499,496 l0,-333 156,-90" /><path style="fill:none;stroke:#4c4c4c;stroke-width:2" d="M251,247 l496,0" /><circle style="fill:none;stroke:#4c4c4c;stroke-width:2" cx="686" cy="573" r="62" /><circle style="fill:none;stroke:#4c4c4c;stroke-width:2" cx="312" cy="573" r="63" /><path style="fill:none;stroke:#4c4c4c;stroke-width:2" d="M245,572 l-245,0" /><path style="fill:none;stroke:#4c4c4c;stroke-width:2" d="M751,572 l248,0" /><path style="fill:none;stroke:#4c4c4c;stroke-width:2" d="M251,496 l496,0" /><path style="fill:none;stroke:#4c4c4c;stroke-width:2" d="M247,199 l0,-102" /><path style="fill:none;stroke:#4c4c4c;stroke-width:2" d="M323,199 l0,-102" /><path style="fill:none;stroke:#4c4c4c;stroke-width:2" d="M323,147 l-76,0" /><ellipse style="fill:none;stroke:#4c4c4c;stroke-width:2" cx="498" cy="49" rx="38" ry="49" /><path style="fill:none;stroke:#4c4c4c;stroke-width:2" d="M675,199 l37,-102 39,102" /><path style="fill:none;stroke:#4c4c4c;stroke-width:2" d="M740,173 l-56,0" /></svg>