<!DOCTYPE svg PUBLIC "-//W3C//DTD SVG 20000303 Stylable//EN" "http://www.w3.org/TR/2000/03/WD-SVG-20000303/DTD/svg-20000303-stylable.dtd"[]><svg xmlns="http://www.w3.org/2000/svg" width="999px" height="690px" viewBox="0 0 998 671"><ellipse style="fill:#0ff;stroke:#4c4c4c;stroke-width:2" cx="499" cy="335" rx="369" ry="335" /><path style="fill:none;stroke:#4c4c4c;stroke-width:2" d="M437,337 l1,-25" /><path style="fill:none;stroke:#4c4c4c;stroke-width:2" d="M438,312 l6,-23" /><path style="fill:none;stroke:#4c4c4c;stroke-width:2" d="M444,289 l9,-23" /><path style="fill:none;stroke:#4c4c4c;stroke-width:2" d="M453,266 l13,-22" /><path style="fill:none;stroke:#4c4c4c;stroke-width:2" d="M466,244 l16,-19" /><path style="fill:none;stroke:#4c4c4c;stroke-width:2" d="M482,225 l19,-18" /><path style="fill:none;stroke:#4c4c4c;stroke-width:2" d="M501,207 l22,-14" /><path style="fill:none;stroke:#4c4c4c;stroke-width:2" d="M523,193 l23,-12" /><path style="fill:none;stroke:#4c4c4c;stroke-width:2" d="M546,181 l25,-8" /><path style="fill:none;stroke:#4c4c4c;stroke-width:2" d="M571,173 l26,-6" /><path style="fill:none;stroke:#4c4c4c;stroke-width:2" d="M597,167 l27,-1" /><path style="fill:none;stroke:#4c4c4c;stroke-width:2" d="M624,166 l27,1" /><path style="fill:none;stroke:#4c4c4c;stroke-width:2" d="M651,167 l26,6" /><path style="fill:none;stroke:#4c4c4c;stroke-width:2" d="M677,173 l25,8" /><path style="fill:none;stroke:#4c4c4c;stroke-width:2" d="M702,181 l23,12" /><path style="fill:none;stroke:#4c4c4c;stroke-width:2" d="M725,193 l22,14" /><path style="fill:none;stroke:#4c4c4c;stroke-width:2" d="M747,207 l18,18" /><path style="fill:none;stroke:#4c4c4c;stroke-width:2" d="M765,225 l16,19" /><path style="fill:none;stroke:#4c4c4c;stroke-width:2" d="M781,244 l13,22" /><path style="fill:none;stroke:#4c4c4c;stroke-width:2" d="M794,266 l10,23" /><path style="fill:none;stroke:#4c4c4c;stroke-width:2" d="M804,289 l5,23" /><path style="fill:none;stroke:#4c4c4c;stroke-width:2" d="M809,312 l2,25" /><path style="fill:none;stroke:#4c4c4c;stroke-width:2" d="M561,337 l-2,15" /><path style="fill:none;stroke:#4c4c4c;stroke-width:2" d="M559,352 l-6,13" /><path style="fill:none;stroke:#4c4c4c;stroke-width:2" d="M553,365 l-10,12" /><path style="fill:none;stroke:#4c4c4c;stroke-width:2" d="M543,377 l-13,9" /><path style="fill:none;stroke:#4c4c4c;stroke-width:2" d="M530,386 l-15,6" /><path style="fill:none;stroke:#4c4c4c;stroke-width:2" d="M515,392 l-16,2" /><path style="fill:none;stroke:#4c4c4c;stroke-width:2" d="M499,394 l-16,-2" /><path style="fill:none;stroke:#4c4c4c;stroke-width:2" d="M483,392 l-15,-6" /><path style="fill:none;stroke:#4c4c4c;stroke-width:2" d="M468,386 l-13,-9" /><path style="fill:none;stroke:#4c4c4c;stroke-width:2" d="M455,377 l-10,-12" /><path style="fill:none;stroke:#4c4c4c;stroke-width:2" d="M445,365 l-6,-13" /><path style="fill:none;stroke:#4c4c4c;stroke-width:2" d="M439,352 l-2,-15" /><path style="fill:none;stroke:#4c4c4c;stroke-width:2" d="M187,337 l2,-25" /><path style="fill:none;stroke:#4c4c4c;stroke-width:2" d="M189,312 l5,-23" /><path style="fill:none;stroke:#4c4c4c;stroke-width:2" d="M194,289 l10,-23" /><path style="fill:none;stroke:#4c4c4c;stroke-width:2" d="M204,266 l13,-22" /><path style="fill:none;stroke:#4c4c4c;stroke-width:2" d="M217,244 l16,-19" /><path style="fill:none;stroke:#4c4c4c;stroke-width:2" d="M233,225 l18,-18" /><path style="fill:none;stroke:#4c4c4c;stroke-width:2" d="M251,207 l22,-14" /><path style="fill:none;stroke:#4c4c4c;stroke-width:2" d="M273,193 l23,-12" /><path style="fill:none;stroke:#4c4c4c;stroke-width:2" d="M296,181 l25,-8" /><path style="fill:none;stroke:#4c4c4c;stroke-width:2" d="M321,173 l26,-6" /><path style="fill:none;stroke:#4c4c4c;stroke-width:2" d="M347,167 l27,-1" /><path style="fill:none;stroke:#4c4c4c;stroke-width:2" d="M374,166 l27,1" /><path style="fill:none;stroke:#4c4c4c;stroke-width:2" d="M401,167 l26,6" /><path style="fill:none;stroke:#4c4c4c;stroke-width:2" d="M427,173 l25,8" /><path style="fill:none;stroke:#4c4c4c;stroke-width:2" d="M452,181 l23,12" /><path style="fill:none;stroke:#4c4c4c;stroke-width:2" d="M475,193 l22,14" /><path style="fill:none;stroke:#4c4c4c;stroke-width:2" d="M497,207 l19,18" /><path style="fill:none;stroke:#4c4c4c;stroke-width:2" d="M516,225 l16,19" /><path style="fill:none;stroke:#4c4c4c;stroke-width:2" d="M532,244 l13,22" /><path style="fill:none;stroke:#4c4c4c;stroke-width:2" d="M545,266 l9,23" /><path style="fill:none;stroke:#4c4c4c;stroke-width:2" d="M554,289 l6,23" /><path style="fill:none;stroke:#4c4c4c;stroke-width:2" d="M560,312 l1,25" /><path style="fill:none;stroke:#4c4c4c;stroke-width:2" d="M811,337 l187,0" /><path style="fill:none;stroke:#4c4c4c;stroke-width:2" d="M0,337 l187,0" /></svg>