<!DOCTYPE svg PUBLIC "-//W3C//DTD SVG 20000303 Stylable//EN" "http://www.w3.org/TR/2000/03/WD-SVG-20000303/DTD/svg-20000303-stylable.dtd"[]><svg xmlns="http://www.w3.org/2000/svg" width="914px" height="998px" viewBox="0 0 908 999"><path style="fill:none;stroke:#4c4c4c;stroke-width:2" d="M0,619 l821,0" /><path style="fill:none;stroke:#4c4c4c;stroke-width:2" d="M98,619 l10,-96 34,-95 49,-81 67,-62 70,-34 82,-13 77,13 76,34 61,62 49,81 33,95 11,96 -11,101 -33,89 -49,81 -61,61 -76,34 -77,14 -82,-14 -70,-34 -67,-61 -49,-81 -34,-89 -10,-101" /><path style="fill:none;stroke:#4c4c4c;stroke-width:2" d="M98,619 l619,0" /><path style="fill:none;stroke:#4c4c4c;stroke-width:2" d="M459,556 l0,130" /><path style="fill:none;stroke:#4c4c4c;stroke-width:2" d="M717,476 l142,-177" /><path style="fill:none;stroke:#4c4c4c;stroke-width:2" d="M525,238 l142,-178" /><path style="fill:#000" d="M694,85 l-18,0 -41,-51 82,-34 -23,85z" /><path style="fill:#000" d="M694,85 l-5,17 -13,-17 18,0z" /><path style="fill:#000" d="M903,255 l-36,0 41,-17 -5,17z" /><path style="fill:#000" d="M903,255 l-23,84 -53,-67 40,-17 36,0z" /><path style="fill:#000;stroke:#4c4c4c;stroke-width:2" d="M355,619 l0,-63 104,63 -104,67 0,-67z" /></svg>