<!DOCTYPE svg PUBLIC "-//W3C//DTD SVG 20000303 Stylable//EN" "http://www.w3.org/TR/2000/03/WD-SVG-20000303/DTD/svg-20000303-stylable.dtd"[]><svg xmlns="http://www.w3.org/2000/svg" width="999px" height="968px" viewBox="0 0 999 967"><circle style="fill:none;stroke:#4c4c4c;stroke-width:2" cx="80" cy="367" r="41" /><ellipse style="fill:none;stroke:#4c4c4c;stroke-width:2" cx="397" cy="367" rx="40" ry="42" /><ellipse style="fill:none;stroke:#4c4c4c;stroke-width:2" cx="701" cy="367" rx="40" ry="42" /><circle style="fill:none;stroke:#4c4c4c;stroke-width:2" cx="80" cy="41" r="41" /><circle style="fill:none;stroke:#4c4c4c;stroke-width:2" cx="397" cy="41" r="40" /><circle style="fill:none;stroke:#4c4c4c;stroke-width:2" cx="701" cy="41" r="40" /><path style="fill:none;stroke:#4c4c4c;stroke-width:2" d="M277,195 l684,0 38,-112" /><circle style="fill:none;stroke:#4c4c4c;stroke-width:2" cx="85" cy="922" r="40" /><path style="fill:none;stroke:#4c4c4c;stroke-width:2" d="M157,571 l0,8 -1,8 -2,8 -3,7 -3,7 -4,7 -5,6 -5,5 -5,6 -6,4 -7,4 -7,3 -7,3 -7,2 -8,1 -8,1 -8,-1 -8,-1 -7,-2 -8,-3 -7,-3 -6,-4 -6,-4 -6,-6 -5,-5 -5,-6 -4,-7 -3,-7 -3,-7 -2,-8 -1,-8 0,-8 0,-8 1,-8 2,-8 3,-8 3,-7 4,-6 5,-7 5,-6 6,-5 6,-5 6,-4 7,-3 8,-3 7,-2 8,-2 8,0" /><path style="fill:none;stroke:#4c4c4c;stroke-width:2" d="M0,729 l0,-9 1,-8 2,-8 3,-7 3,-7 4,-7 5,-6 5,-5 5,-5 6,-5 7,-4 6,-3 8,-3 7,-2 8,-1 7,0 9,0 7,1 8,2 8,3 7,3 6,4 6,4 6,5 5,6 5,6 4,6 3,7 3,7 2,8 1,8 0,8 0,8 -1,8 -2,7 -2,8 -3,7 -4,6 -4,7 -5,5 -6,5 -6,5 -6,4 -7,3 -7,3 -8,2 -8,1 -9,1" /><path style="fill:none;stroke:#4c4c4c;stroke-width:2" d="M79,495 l0,-86" /><path style="fill:none;stroke:#4c4c4c;stroke-width:2" d="M87,885 l0,-80" /><circle style="fill:none;stroke:#4c4c4c;stroke-width:2" cx="403" cy="922" r="42" /><path style="fill:none;stroke:#4c4c4c;stroke-width:2" d="M475,565 l0,1 0,1 0,1 0,1 0,8 -2,8 -2,8 -3,7 -3,7 -4,6 -5,7 -5,5 -6,6 -6,4 -7,4 -7,4 -7,2 -7,2 -8,1 -8,1 -8,-1 -7,-1 -8,-2 -7,-2 -7,-4 -7,-4 -6,-4 -6,-6 -5,-5 -5,-7 -4,-6 -3,-7 -3,-7 -2,-8 -1,-8 -1,-8 1,-9 1,-8 2,-8 3,-7 3,-7 4,-7 5,-6 5,-5 6,-5 6,-5 7,-4 7,-3 7,-3 8,-2 7,-1 8,0" /><path style="fill:none;stroke:#4c4c4c;stroke-width:2" d="M779,565 l-1,8 -1,8 -2,8 -2,7 -3,7 -4,7 -4,6 -5,5 -6,6 -6,4 -6,4 -7,4 -7,2 -7,2 -8,1 -7,1 -9,-1 -8,-1 -8,-2 -7,-2 -7,-4 -7,-4 -6,-4 -6,-6 -4,-5 -5,-6 -4,-7 -3,-7 -3,-7 -2,-8 -1,-8 0,-8 0,-8 1,-7 2,-8 3,-7 3,-7 4,-7 5,-6 4,-6 6,-5 6,-5 7,-4 7,-3 7,-3 8,-2 8,-1 9,-1" /><path style="fill:none;stroke:#4c4c4c;stroke-width:2" d="M315,727 l1,-9 1,-7 2,-8 3,-8 3,-7 4,-6 5,-7 5,-6 6,-5 6,-5 7,-4 7,-3 7,-3 8,-2 7,-2 8,0 8,0 8,2 7,1 7,3 7,3 7,4 6,4 6,6 5,5 5,6 4,7 3,7 3,7 2,8 2,8 0,9 0,8 -2,8 -1,7 -3,8 -3,7 -4,6 -5,6 -5,6 -5,5 -7,5 -6,4 -7,3 -7,3 -8,2 -8,1 -9,1" /><path style="fill:none;stroke:#4c4c4c;stroke-width:2" d="M623,725 l0,-1 0,-1 0,-2 0,0 0,-8 1,-8 2,-7 3,-7 3,-7 4,-7 4,-6 5,-6 5,-5 6,-5 6,-4 7,-3 7,-3 8,-2 7,-2 8,0 8,0 8,2 8,2 8,3 7,3 6,4 6,5 6,5 5,6 5,6 4,7 3,7 2,7 2,7 1,8 1,8 0,8 -1,9 -1,7 -3,8 -3,7 -4,7 -4,6 -5,6 -6,5 -6,5 -6,4 -7,3 -7,3 -8,2 -8,1 -7,1" /><path style="fill:none;stroke:#4c4c4c;stroke-width:2" d="M395,495 l0,-90" /><path style="fill:none;stroke:#4c4c4c;stroke-width:2" d="M703,493 l0,-88" /><path style="fill:none;stroke:#4c4c4c;stroke-width:2" d="M403,883 l0,-80" /><path style="fill:none;stroke:#4c4c4c;stroke-width:2" d="M707,881 l0,-80" /><circle style="fill:none;stroke:#4c4c4c;stroke-width:2" cx="707" cy="926" r="42" /></svg>