<!DOCTYPE svg PUBLIC "-//W3C//DTD SVG 20000303 Stylable//EN" "http://www.w3.org/TR/2000/03/WD-SVG-20000303/DTD/svg-20000303-stylable.dtd"[]><svg xmlns="http://www.w3.org/2000/svg" width="999px" height="424px" viewBox="0 0 999 390"><path style="fill:#0ff;stroke:#4c4c4c;stroke-width:2" d="M499,390 l-166,0 0,-9 0,-8 1,-8 2,-8 2,-8 2,-8 3,-8 3,-7 3,-8 4,-7 4,-7 4,-7 5,-6 5,-7 5,-6 5,-5 6,-6 6,-5 6,-5 7,-5 7,-4 7,-4 7,-4 7,-3 8,-3 8,-3 7,-2 9,-2 8,-2 8,-1 8,0 9,-1 9,1 8,0 8,1 9,2 8,2 8,2 7,3 8,3 7,3 7,4 7,4 7,4 7,5 6,5 6,5 6,6 5,5 6,6 4,7 5,6 4,7 4,7 4,7 3,8 3,7 3,8 2,8 2,8 2,8 1,8 0,8 1,9 -167,0z" /><circle style="fill:none;stroke:#4c4c4c;stroke-width:2" cx="947" cy="59" r="51" /><path style="fill:none;stroke:#4c4c4c;stroke-width:2" d="M499,223 l0,-191" /><path style="fill:none;stroke:#4c4c4c;stroke-width:2" d="M103,57 l894,-57" /><circle style="fill:none;stroke:#4c4c4c;stroke-width:2" cx="51" cy="58" r="51" /></svg>