<!DOCTYPE svg PUBLIC "-//W3C//DTD SVG 20000303 Stylable//EN" "http://www.w3.org/TR/2000/03/WD-SVG-20000303/DTD/svg-20000303-stylable.dtd"[]><svg xmlns="http://www.w3.org/2000/svg" width="999px" height="684px" viewBox="0 0 999 666"><path style="fill:#0ff;stroke:#4c4c4c;stroke-width:2" d="M332,0 l31,0 30,1 29,1 28,2 27,2 26,3 25,3 25,5 24,4 24,6 22,6 22,6 22,8 21,7 20,9 20,10 19,10 19,10 18,12 18,12 18,14 17,14 17,14 17,16 16,17 17,17 16,18 16,19 15,21 16,21 16,22 16,22 -16,23 -16,22 -16,21 -15,20 -16,20 -16,18 -17,17 -16,17 -17,16 -17,14 -17,14 -18,13 -18,13 -18,12 -19,11 -19,10 -20,9 -20,9 -21,8 -22,7 -22,7 -22,5 -23,6 -25,5 -24,4 -26,3 -26,3 -27,2 -28,2 -29,2 -30,0 -31,1 -332,0 15,-16 14,-18 13,-18 12,-18 12,-20 10,-19 9,-21 8,-21 8,-22 6,-22 5,-23 5,-22 3,-23 2,-24 2,-23 0,-23 0,-24 -2,-23 -2,-23 -3,-23 -5,-23 -5,-23 -6,-22 -8,-21 -8,-22 -9,-20 -10,-20 -12,-20 -12,-19 -13,-17 -14,-17 -15,-16 332,0z" /></svg>