<!DOCTYPE svg PUBLIC "-//W3C//DTD SVG 20000303 Stylable//EN" "http://www.w3.org/TR/2000/03/WD-SVG-20000303/DTD/svg-20000303-stylable.dtd"[]><svg xmlns="http://www.w3.org/2000/svg" width="999px" height="821px" viewBox="0 0 999 811"><path style="fill:none;stroke:#4c4c4c;stroke-width:2" d="M0,404 l999,0" /><path style="fill:none;stroke:#4c4c4c;stroke-width:2" d="M282,187 l-188,-187" /><path style="fill:none;stroke:#4c4c4c;stroke-width:2" d="M717,187 l188,-187" /><path style="fill:none;stroke:#4c4c4c;stroke-width:2" d="M905,811 l-188,-188" /><path style="fill:none;stroke:#4c4c4c;stroke-width:2" d="M282,623 l-188,188" /><circle style="fill:#0ff;stroke:#4c4c4c;stroke-width:2" cx="499" cy="405" r="249" /><path style="fill:none;stroke:#4c4c4c;stroke-width:2" d="M546,484 l-83,-97 5,0 4,0 4,0 4,0 3,0 3,0 2,0 3,0 3,0 2,0 3,0 3,0 4,0 4,0 4,0 5,0 7,-1 6,-2 6,-4 4,-5 4,-6 2,-7 1,-6 1,-8 -1,-7 -1,-7 -2,-6 -4,-6 -4,-5 -6,-4 -6,-2 -7,-1 -83,0 0,174" /></svg>