<!DOCTYPE svg PUBLIC "-//W3C//DTD SVG 20000303 Stylable//EN" "http://www.w3.org/TR/2000/03/WD-SVG-20000303/DTD/svg-20000303-stylable.dtd"[]><svg xmlns="http://www.w3.org/2000/svg" width="999px" height="409px" viewBox="0 0 998 374"><path style="fill:none;stroke:#4c4c4c;stroke-width:2" d="M166,332 l0,-17 2,-17 2,-16 3,-17 3,-16 5,-15 5,-16 6,-15 7,-15 7,-14 8,-14 9,-14 9,-13 10,-12 11,-12 11,-12 11,-11 12,-10 13,-10 13,-10 13,-8 14,-8 15,-8 14,-6 15,-6 16,-6 16,-4 16,-4 16,-3 17,-2 17,-1 17,0 17,0 17,1 17,2 16,3 16,4 16,4 15,6 16,6 14,6 15,8 14,8 13,8 13,10 13,10 12,10 11,11 11,12 11,12 10,12 9,13 9,14 8,14 7,14 7,15 6,15 5,16 5,15 3,16 3,17 2,16 2,17 0,17" /><path style="fill:none;stroke:#4c4c4c;stroke-width:2" d="M464,309 l-273,-276" /><circle style="fill:none;stroke:#4c4c4c;stroke-width:2" cx="41" cy="332" r="41" /><circle style="fill:none;stroke:#4c4c4c;stroke-width:2" cx="957" cy="332" r="41" /><circle style="fill:none;stroke:#4c4c4c;stroke-width:2" cx="499" cy="332" r="41" /><path style="fill:none;stroke:#4c4c4c;stroke-width:2" d="M83,332 l83,0" /><path style="fill:none;stroke:#4c4c4c;stroke-width:2" d="M832,332 l84,0" /></svg>