<!DOCTYPE svg PUBLIC "-//W3C//DTD SVG 20000303 Stylable//EN" "http://www.w3.org/TR/2000/03/WD-SVG-20000303/DTD/svg-20000303-stylable.dtd"[]><svg xmlns="http://www.w3.org/2000/svg" width="492px" height="999px" viewBox="0 0 463 999"><path style="fill:none;stroke:#4c4c4c;stroke-width:2" d="M228,134 l49,13 44,36 18,50 0,65 -18,49 -44,35 -49,15 -50,-15 -37,-35 -25,-49 0,-65 25,-50 37,-36 50,-13" /><path style="fill:none;stroke:#4c4c4c;stroke-width:2" d="M228,0 l-68,14 -68,36 -49,56 -31,77 -12,85 12,79 31,77 49,57 68,36 68,13" /><path style="fill:none;stroke:#4c4c4c;stroke-width:2" d="M228,0 l74,14 61,36 56,56 31,77 13,85 -13,79 -31,77 -56,57 -61,36 -74,13" /><path style="fill:none;stroke:#4c4c4c;stroke-width:2" d="M228,530 l0,397" /><path style="fill:none;stroke:#4c4c4c;stroke-width:2" d="M55,927 l346,0" /><path style="fill:none;stroke:#4c4c4c;stroke-width:2" d="M111,999 l234,0" /></svg>