<!DOCTYPE svg PUBLIC "-//W3C//DTD SVG 20000303 Stylable//EN" "http://www.w3.org/TR/2000/03/WD-SVG-20000303/DTD/svg-20000303-stylable.dtd"[]><svg xmlns="http://www.w3.org/2000/svg" width="999px" height="248px" viewBox="0 0 225 47"><path style="fill:none;stroke:#4c4c4c;stroke-width:2" d="M136,24 l-61,0" /><path style="fill:#fff;stroke:#4c4c4c;stroke-width:2" d="M70,24 l1,3 4,1 3,-1 1,-3 -1,-4 -3,-1 -4,1 -1,4z" /><path style="fill:#fff;stroke:#4c4c4c;stroke-width:2" d="M145,5 l1,3 4,2 3,-2 1,-3 -1,-3 -3,-2 -4,2 -1,3z" /><path style="fill:#fff;stroke:#4c4c4c;stroke-width:2" d="M145,43 l1,3 4,1 3,-1 1,-3 -1,-4 -3,-1 -4,1 -1,4z" /><path style="fill:none;stroke:#4c4c4c;stroke-width:2" d="M0,24 l70,0" /><path style="fill:none;stroke:#4c4c4c;stroke-width:2" d="M225,5 l-71,0" /><path style="fill:none;stroke:#4c4c4c;stroke-width:2" d="M225,43 l-71,0" /></svg>