<!DOCTYPE svg PUBLIC "-//W3C//DTD SVG 20000303 Stylable//EN" "http://www.w3.org/TR/2000/03/WD-SVG-20000303/DTD/svg-20000303-stylable.dtd"[]><svg xmlns="http://www.w3.org/2000/svg" width="846px" height="999px" viewBox="0 0 837 999"><path style="fill:#fff" d="M837,250 l-278,0 278,-250 0,250z" /><path style="fill:#fff" d="M837,250 l0,249 -556,0 0,-245 274,0 4,-4 278,0z" /><path style="fill:#fff" d="M837,499 l0,250 -556,0 0,-250 556,0z" /><path style="fill:#fff" d="M837,749 l0,250 -282,-246 -274,0 0,-4 556,0z" /><path style="fill:none;stroke:#4c4c4c;stroke-width:2" d="M281,254 l0,499 274,0 0,-499 -274,0" /><path style="fill:none;stroke:#4c4c4c;stroke-width:2" d="M837,0 l0,999 -282,-246 0,-499 282,-254" /><path style="fill:none;stroke:#4c4c4c;stroke-width:2" d="M281,626 l-281,0" /><path style="fill:none;stroke:#4c4c4c;stroke-width:2" d="M281,374 l-281,0" /></svg>