<!DOCTYPE svg PUBLIC "-//W3C//DTD SVG 20000303 Stylable//EN" "http://www.w3.org/TR/2000/03/WD-SVG-20000303/DTD/svg-20000303-stylable.dtd"[]><svg xmlns="http://www.w3.org/2000/svg" width="762px" height="999px" viewBox="0 0 747 999"><path style="fill:none;stroke:#4c4c4c;stroke-width:2" d="M286,12 l0,974" /><path style="fill:none;stroke:#4c4c4c;stroke-width:2" d="M0,743 l25,9" /><path style="fill:none;stroke:#4c4c4c;stroke-width:2" d="M25,752 l27,3" /><path style="fill:none;stroke:#4c4c4c;stroke-width:2" d="M52,755 l27,-2" /><path style="fill:none;stroke:#4c4c4c;stroke-width:2" d="M79,753 l26,-7" /><path style="fill:none;stroke:#4c4c4c;stroke-width:2" d="M105,746 l24,-12" /><path style="fill:none;stroke:#4c4c4c;stroke-width:2" d="M129,734 l21,-16" /><path style="fill:none;stroke:#4c4c4c;stroke-width:2" d="M150,718 l17,-21" /><path style="fill:none;stroke:#4c4c4c;stroke-width:2" d="M167,697 l13,-24" /><path style="fill:none;stroke:#4c4c4c;stroke-width:2" d="M180,673 l8,-26" /><path style="fill:none;stroke:#4c4c4c;stroke-width:2" d="M188,647 l3,-26" /><path style="fill:none;stroke:#4c4c4c;stroke-width:2" d="M191,621 l-3,-27" /><path style="fill:none;stroke:#4c4c4c;stroke-width:2" d="M188,594 l-8,-26" /><path style="fill:none;stroke:#4c4c4c;stroke-width:2" d="M180,568 l-13,-23" /><path style="fill:none;stroke:#4c4c4c;stroke-width:2" d="M167,545 l-17,-21" /><path style="fill:none;stroke:#4c4c4c;stroke-width:2" d="M150,524 l-21,-16" /><path style="fill:none;stroke:#4c4c4c;stroke-width:2" d="M129,508 l-24,-13" /><path style="fill:none;stroke:#4c4c4c;stroke-width:2" d="M105,495 l-26,-7" /><path style="fill:none;stroke:#4c4c4c;stroke-width:2" d="M79,488 l-27,-1" /><path style="fill:none;stroke:#4c4c4c;stroke-width:2" d="M52,487 l-27,3" /><path style="fill:none;stroke:#4c4c4c;stroke-width:2" d="M25,490 l-25,9" /><path style="fill:none;stroke:#4c4c4c;stroke-width:2" d="M0,499 l25,9" /><path style="fill:none;stroke:#4c4c4c;stroke-width:2" d="M25,508 l27,3" /><path style="fill:none;stroke:#4c4c4c;stroke-width:2" d="M52,511 l27,-1" /><path style="fill:none;stroke:#4c4c4c;stroke-width:2" d="M79,510 l26,-7" /><path style="fill:none;stroke:#4c4c4c;stroke-width:2" d="M105,503 l24,-12" /><path style="fill:none;stroke:#4c4c4c;stroke-width:2" d="M129,491 l21,-17" /><path style="fill:none;stroke:#4c4c4c;stroke-width:2" d="M150,474 l17,-21" /><path style="fill:none;stroke:#4c4c4c;stroke-width:2" d="M167,453 l13,-23" /><path style="fill:none;stroke:#4c4c4c;stroke-width:2" d="M180,430 l8,-26" /><path style="fill:none;stroke:#4c4c4c;stroke-width:2" d="M188,404 l3,-27" /><path style="fill:none;stroke:#4c4c4c;stroke-width:2" d="M191,377 l-3,-26" /><path style="fill:none;stroke:#4c4c4c;stroke-width:2" d="M188,351 l-8,-26" /><path style="fill:none;stroke:#4c4c4c;stroke-width:2" d="M180,325 l-13,-24" /><path style="fill:none;stroke:#4c4c4c;stroke-width:2" d="M167,301 l-17,-21" /><path style="fill:none;stroke:#4c4c4c;stroke-width:2" d="M150,280 l-21,-16" /><path style="fill:none;stroke:#4c4c4c;stroke-width:2" d="M129,264 l-24,-12" /><path style="fill:none;stroke:#4c4c4c;stroke-width:2" d="M105,252 l-26,-7" /><path style="fill:none;stroke:#4c4c4c;stroke-width:2" d="M79,245 l-27,-2" /><path style="fill:none;stroke:#4c4c4c;stroke-width:2" d="M52,243 l-27,3" /><path style="fill:none;stroke:#4c4c4c;stroke-width:2" d="M25,246 l-25,9" /><path style="fill:none;stroke:#4c4c4c;stroke-width:2" d="M0,986 l25,9" /><path style="fill:none;stroke:#4c4c4c;stroke-width:2" d="M25,995 l27,4" /><path style="fill:none;stroke:#4c4c4c;stroke-width:2" d="M52,999 l27,-2" /><path style="fill:none;stroke:#4c4c4c;stroke-width:2" d="M79,997 l26,-7" /><path style="fill:none;stroke:#4c4c4c;stroke-width:2" d="M105,990 l24,-12" /><path style="fill:none;stroke:#4c4c4c;stroke-width:2" d="M129,978 l21,-17" /><path style="fill:none;stroke:#4c4c4c;stroke-width:2" d="M150,961 l17,-20" /><path style="fill:none;stroke:#4c4c4c;stroke-width:2" d="M167,941 l13,-24" /><path style="fill:none;stroke:#4c4c4c;stroke-width:2" d="M180,917 l8,-26" /><path style="fill:none;stroke:#4c4c4c;stroke-width:2" d="M188,891 l3,-27" /><path style="fill:none;stroke:#4c4c4c;stroke-width:2" d="M191,864 l-3,-26" /><path style="fill:none;stroke:#4c4c4c;stroke-width:2" d="M188,838 l-8,-26" /><path style="fill:none;stroke:#4c4c4c;stroke-width:2" d="M180,812 l-13,-24" /><path style="fill:none;stroke:#4c4c4c;stroke-width:2" d="M167,788 l-17,-20" /><path style="fill:none;stroke:#4c4c4c;stroke-width:2" d="M150,768 l-21,-17" /><path style="fill:none;stroke:#4c4c4c;stroke-width:2" d="M129,751 l-24,-12" /><path style="fill:none;stroke:#4c4c4c;stroke-width:2" d="M105,739 l-26,-7" /><path style="fill:none;stroke:#4c4c4c;stroke-width:2" d="M79,732 l-27,-2" /><path style="fill:none;stroke:#4c4c4c;stroke-width:2" d="M52,730 l-27,4" /><path style="fill:none;stroke:#4c4c4c;stroke-width:2" d="M25,734 l-25,9" /><path style="fill:none;stroke:#4c4c4c;stroke-width:2" d="M0,255 l25,9" /><path style="fill:none;stroke:#4c4c4c;stroke-width:2" d="M25,264 l27,4" /><path style="fill:none;stroke:#4c4c4c;stroke-width:2" d="M52,268 l27,-2" /><path style="fill:none;stroke:#4c4c4c;stroke-width:2" d="M79,266 l26,-7" /><path style="fill:none;stroke:#4c4c4c;stroke-width:2" d="M105,259 l24,-12" /><path style="fill:none;stroke:#4c4c4c;stroke-width:2" d="M129,247 l21,-17" /><path style="fill:none;stroke:#4c4c4c;stroke-width:2" d="M150,230 l17,-20" /><path style="fill:none;stroke:#4c4c4c;stroke-width:2" d="M167,210 l13,-24" /><path style="fill:none;stroke:#4c4c4c;stroke-width:2" d="M180,186 l8,-26" /><path style="fill:none;stroke:#4c4c4c;stroke-width:2" d="M188,160 l3,-26" /><path style="fill:none;stroke:#4c4c4c;stroke-width:2" d="M191,134 l-3,-27" /><path style="fill:none;stroke:#4c4c4c;stroke-width:2" d="M188,107 l-8,-26" /><path style="fill:none;stroke:#4c4c4c;stroke-width:2" d="M180,81 l-13,-24" /><path style="fill:none;stroke:#4c4c4c;stroke-width:2" d="M167,57 l-17,-20" /><path style="fill:none;stroke:#4c4c4c;stroke-width:2" d="M150,37 l-21,-17" /><path style="fill:none;stroke:#4c4c4c;stroke-width:2" d="M129,20 l-24,-12" /><path style="fill:none;stroke:#4c4c4c;stroke-width:2" d="M105,8 l-26,-7" /><path style="fill:none;stroke:#4c4c4c;stroke-width:2" d="M79,1 l-27,-1" /><path style="fill:none;stroke:#4c4c4c;stroke-width:2" d="M52,0 l-27,3" /><path style="fill:none;stroke:#4c4c4c;stroke-width:2" d="M25,3 l-25,9" /><path style="fill:none;stroke:#4c4c4c;stroke-width:2" d="M461,12 l0,974" /><path style="fill:none;stroke:#4c4c4c;stroke-width:2" d="M747,499 l-25,-9" /><path style="fill:none;stroke:#4c4c4c;stroke-width:2" d="M722,490 l-27,-3" /><path style="fill:none;stroke:#4c4c4c;stroke-width:2" d="M695,487 l-27,1" /><path style="fill:none;stroke:#4c4c4c;stroke-width:2" d="M668,488 l-26,7" /><path style="fill:none;stroke:#4c4c4c;stroke-width:2" d="M642,495 l-24,13" /><path style="fill:none;stroke:#4c4c4c;stroke-width:2" d="M618,508 l-21,16" /><path style="fill:none;stroke:#4c4c4c;stroke-width:2" d="M597,524 l-17,21" /><path style="fill:none;stroke:#4c4c4c;stroke-width:2" d="M580,545 l-13,23" /><path style="fill:none;stroke:#4c4c4c;stroke-width:2" d="M567,568 l-8,26" /><path style="fill:none;stroke:#4c4c4c;stroke-width:2" d="M559,594 l-3,27" /><path style="fill:none;stroke:#4c4c4c;stroke-width:2" d="M556,621 l3,26" /><path style="fill:none;stroke:#4c4c4c;stroke-width:2" d="M559,647 l8,26" /><path style="fill:none;stroke:#4c4c4c;stroke-width:2" d="M567,673 l13,24" /><path style="fill:none;stroke:#4c4c4c;stroke-width:2" d="M580,697 l17,21" /><path style="fill:none;stroke:#4c4c4c;stroke-width:2" d="M597,718 l21,16" /><path style="fill:none;stroke:#4c4c4c;stroke-width:2" d="M618,734 l24,12" /><path style="fill:none;stroke:#4c4c4c;stroke-width:2" d="M642,746 l26,7" /><path style="fill:none;stroke:#4c4c4c;stroke-width:2" d="M668,753 l27,2" /><path style="fill:none;stroke:#4c4c4c;stroke-width:2" d="M695,755 l27,-3" /><path style="fill:none;stroke:#4c4c4c;stroke-width:2" d="M722,752 l25,-9" /><path style="fill:none;stroke:#4c4c4c;stroke-width:2" d="M747,255 l-25,-8" /><path style="fill:none;stroke:#4c4c4c;stroke-width:2" d="M722,247 l-27,-4" /><path style="fill:none;stroke:#4c4c4c;stroke-width:2" d="M695,243 l-27,2" /><path style="fill:none;stroke:#4c4c4c;stroke-width:2" d="M668,245 l-26,7" /><path style="fill:none;stroke:#4c4c4c;stroke-width:2" d="M642,252 l-24,12" /><path style="fill:none;stroke:#4c4c4c;stroke-width:2" d="M618,264 l-21,16" /><path style="fill:none;stroke:#4c4c4c;stroke-width:2" d="M597,280 l-17,21" /><path style="fill:none;stroke:#4c4c4c;stroke-width:2" d="M580,301 l-13,24" /><path style="fill:none;stroke:#4c4c4c;stroke-width:2" d="M567,325 l-8,26" /><path style="fill:none;stroke:#4c4c4c;stroke-width:2" d="M559,351 l-3,26" /><path style="fill:none;stroke:#4c4c4c;stroke-width:2" d="M556,377 l3,27" /><path style="fill:none;stroke:#4c4c4c;stroke-width:2" d="M559,404 l8,26" /><path style="fill:none;stroke:#4c4c4c;stroke-width:2" d="M567,430 l13,23" /><path style="fill:none;stroke:#4c4c4c;stroke-width:2" d="M580,453 l17,21" /><path style="fill:none;stroke:#4c4c4c;stroke-width:2" d="M597,474 l21,17" /><path style="fill:none;stroke:#4c4c4c;stroke-width:2" d="M618,491 l24,12" /><path style="fill:none;stroke:#4c4c4c;stroke-width:2" d="M642,503 l26,7" /><path style="fill:none;stroke:#4c4c4c;stroke-width:2" d="M668,510 l27,1" /><path style="fill:none;stroke:#4c4c4c;stroke-width:2" d="M695,511 l27,-3" /><path style="fill:none;stroke:#4c4c4c;stroke-width:2" d="M722,508 l25,-9" /><path style="fill:none;stroke:#4c4c4c;stroke-width:2" d="M747,743 l-25,-9" /><path style="fill:none;stroke:#4c4c4c;stroke-width:2" d="M722,734 l-27,-4" /><path style="fill:none;stroke:#4c4c4c;stroke-width:2" d="M695,730 l-27,2" /><path style="fill:none;stroke:#4c4c4c;stroke-width:2" d="M668,732 l-26,7" /><path style="fill:none;stroke:#4c4c4c;stroke-width:2" d="M642,739 l-24,12" /><path style="fill:none;stroke:#4c4c4c;stroke-width:2" d="M618,751 l-21,17" /><path style="fill:none;stroke:#4c4c4c;stroke-width:2" d="M597,768 l-17,20" /><path style="fill:none;stroke:#4c4c4c;stroke-width:2" d="M580,788 l-13,24" /><path style="fill:none;stroke:#4c4c4c;stroke-width:2" d="M567,812 l-8,26" /><path style="fill:none;stroke:#4c4c4c;stroke-width:2" d="M559,838 l-3,26" /><path style="fill:none;stroke:#4c4c4c;stroke-width:2" d="M556,864 l3,27" /><path style="fill:none;stroke:#4c4c4c;stroke-width:2" d="M559,891 l8,26" /><path style="fill:none;stroke:#4c4c4c;stroke-width:2" d="M567,917 l13,24" /><path style="fill:none;stroke:#4c4c4c;stroke-width:2" d="M580,941 l17,20" /><path style="fill:none;stroke:#4c4c4c;stroke-width:2" d="M597,961 l21,17" /><path style="fill:none;stroke:#4c4c4c;stroke-width:2" d="M618,978 l24,12" /><path style="fill:none;stroke:#4c4c4c;stroke-width:2" d="M642,990 l26,7" /><path style="fill:none;stroke:#4c4c4c;stroke-width:2" d="M668,997 l27,2" /><path style="fill:none;stroke:#4c4c4c;stroke-width:2" d="M695,999 l27,-4" /><path style="fill:none;stroke:#4c4c4c;stroke-width:2" d="M722,995 l25,-9" /><path style="fill:none;stroke:#4c4c4c;stroke-width:2" d="M747,12 l-25,-9" /><path style="fill:none;stroke:#4c4c4c;stroke-width:2" d="M722,3 l-27,-3" /><path style="fill:none;stroke:#4c4c4c;stroke-width:2" d="M695,0 l-27,1" /><path style="fill:none;stroke:#4c4c4c;stroke-width:2" d="M668,1 l-26,7" /><path style="fill:none;stroke:#4c4c4c;stroke-width:2" d="M642,8 l-24,12" /><path style="fill:none;stroke:#4c4c4c;stroke-width:2" d="M618,20 l-21,17" /><path style="fill:none;stroke:#4c4c4c;stroke-width:2" d="M597,37 l-17,20" /><path style="fill:none;stroke:#4c4c4c;stroke-width:2" d="M580,57 l-13,24" /><path style="fill:none;stroke:#4c4c4c;stroke-width:2" d="M567,81 l-8,26" /><path style="fill:none;stroke:#4c4c4c;stroke-width:2" d="M559,107 l-3,27" /><path style="fill:none;stroke:#4c4c4c;stroke-width:2" d="M556,134 l3,26" /><path style="fill:none;stroke:#4c4c4c;stroke-width:2" d="M559,160 l8,26" /><path style="fill:none;stroke:#4c4c4c;stroke-width:2" d="M567,186 l13,24" /><path style="fill:none;stroke:#4c4c4c;stroke-width:2" d="M580,210 l17,20" /><path style="fill:none;stroke:#4c4c4c;stroke-width:2" d="M597,230 l21,17" /><path style="fill:none;stroke:#4c4c4c;stroke-width:2" d="M618,247 l24,12" /><path style="fill:none;stroke:#4c4c4c;stroke-width:2" d="M642,259 l26,7" /><path style="fill:none;stroke:#4c4c4c;stroke-width:2" d="M668,266 l27,2" /><path style="fill:none;stroke:#4c4c4c;stroke-width:2" d="M695,268 l27,-4" /><path style="fill:none;stroke:#4c4c4c;stroke-width:2" d="M722,264 l25,-9" /></svg>