<!DOCTYPE svg PUBLIC "-//W3C//DTD SVG 20000303 Stylable//EN" "http://www.w3.org/TR/2000/03/WD-SVG-20000303/DTD/svg-20000303-stylable.dtd"[]><svg xmlns="http://www.w3.org/2000/svg" width="999px" height="731px" viewBox="0 0 999 715"><path style="fill:none;stroke:#4c4c4c;stroke-width:2" d="M703,715 l-8,-8 -8,-8 -7,-9 -7,-9 -7,-9 -7,-9 -7,-9 -6,-10 -7,-10 -5,-11 -6,-10 -6,-11 -5,-11 -5,-11 -5,-11 -5,-11 -4,-12 -4,-12 -4,-11 -4,-12 -3,-12 -3,-13 -3,-12 -3,-12 -2,-13 -2,-12 -2,-13 -1,-13 -1,-12 -1,-13 0,-13 -1,-13 1,-13 0,-13 1,-13 1,-13 1,-13 2,-13 2,-12 2,-13 3,-13 3,-12 3,-13 3,-12 4,-12 4,-12 4,-12 5,-12 5,-12 5,-11 5,-11 6,-11 6,-11 6,-11 6,-10 7,-10 6,-10 7,-10 8,-9 7,-10 8,-9 8,-8 8,-8 9,-8" /><path style="fill:none;stroke:#4c4c4c;stroke-width:2" d="M455,12 l0,699" /><path style="fill:none;stroke:#4c4c4c;stroke-width:2" d="M452,360 l-452,0" /><path style="fill:none;stroke:#4c4c4c;stroke-width:2" d="M562,360 l437,0" /><path style="fill:none;stroke:#4c4c4c;stroke-width:2" d="M197,711 l675,-690" /><path style="fill:#000;stroke:#4c4c4c;stroke-width:2" d="M871,12 l-68,34 50,44 18,-78z" /></svg>