<!DOCTYPE svg PUBLIC "-//W3C//DTD SVG 20000303 Stylable//EN" "http://www.w3.org/TR/2000/03/WD-SVG-20000303/DTD/svg-20000303-stylable.dtd"[]><svg xmlns="http://www.w3.org/2000/svg" width="999px" height="999px" viewBox="0 0 999 999"><path style="fill:#adad84" d="M61,999 l110,-94 656,0 32,-30 140,62 -62,62 -876,0z" /><path style="fill:#d7d7c2" d="M61,999 l110,-94 -32,-30 0,-798 -139,-16 0,876 61,62z" /><path style="fill:#ebebe1" d="M937,0 l-110,47 -656,0 -32,30 -139,-16 61,-61 876,0z" /><path style="fill:#d7d7c2" d="M937,0 l-110,47 32,30 0,798 140,62 0,-876 -62,-61z" /><path style="fill:none;stroke:#4c4c4c;stroke-width:2" d="M0,61 l61,-61 876,0 62,61 0,876 -62,62 -876,0 -61,-62 0,-876" /><path style="fill:#ebebe1;stroke:#adad84;stroke-width:2" d="M139,77 l32,-32 656,0 32,32 0,796 -32,32 -656,0 -32,-32 0,-796z" /><path style="fill:#e1e1d1" d="M531,671 l156,-234 124,-376 32,32 0,766 -32,30 -624,0 -32,-30 376,-188z" /><path style="fill:#e1e1d1" d="M311,125 l-62,62 -62,218 -32,-30 0,-282 32,-32 280,0 32,32 -188,32z" /><path style="fill:none;stroke:#fff;stroke-width:2" d="M139,873 l0,-796 32,-32 656,0" /><path style="fill:#666" d="M540,725 l0,-111 -210,0 0,-60 223,-282 46,0 0,282 59,0 0,60 -59,0 0,111 -59,0z" /><path style="fill:#ebebe1" d="M540,554 l0,-170 -138,170 138,0z" /></svg>