<!DOCTYPE svg PUBLIC "-//W3C//DTD SVG 20000303 Stylable//EN" "http://www.w3.org/TR/2000/03/WD-SVG-20000303/DTD/svg-20000303-stylable.dtd"[]><svg xmlns="http://www.w3.org/2000/svg" width="999px" height="527px" viewBox="0 0 999 499"><path style="fill:#adad84" d="M31,499 l54,-46 828,0 16,-16 70,30 -32,32 -936,0z" /><path style="fill:#d7d7c2" d="M31,499 l54,-46 -16,-16 0,-398 -69,-8 0,436 31,32z" /><path style="fill:#ebebe1" d="M967,0 l-54,23 -828,0 -16,16 -69,-8 31,-31 936,0z" /><path style="fill:#d7d7c2" d="M967,0 l-54,23 16,16 0,398 70,30 0,-436 -32,-31z" /><path style="fill:none;stroke:#4c4c4c;stroke-width:2" d="M0,31 l31,-31 936,0 32,31 0,436 -32,32 -936,0 -31,-32 0,-436" /><path style="fill:#ebebe1;stroke:#adad84;stroke-width:2" d="M69,38 l16,-15 828,0 16,15 0,399 -16,16 -828,0 -16,-16 0,-399z" /><path style="fill:#e1e1d1" d="M155,61 l-30,32 -32,110 -16,-16 0,-140 16,-16 640,0 16,16 -594,14z" /><path style="fill:none;stroke:#fff;stroke-width:2" d="M69,437 l0,-399 16,-15 828,0" /><path style="fill:#e1e1d1" d="M765,335 l78,-118 62,-186 16,14 0,384 -16,16 -812,0 -16,-16 688,-94z" /><path style="fill:#666" d="M613,305 l2,17 -1,0 -2,0 -2,0 -2,0 -2,0 -2,0 -2,0 -1,0 -2,0 -2,0 -1,-1 -2,0 -2,0 -1,-1 -2,0 -1,0 -1,0 -2,-1 -1,0 -1,-1 -1,-1 -1,-1 -1,-2 0,0 0,-2 0,-2 -1,-3 0,-2 0,-4 -1,-3 0,-3 0,-4 0,-60 -12,0 0,-17 12,0 0,-25 19,-10 0,35 16,0 0,17 -16,0 0,62 0,1 0,2 0,1 0,2 0,1 0,1 0,0 0,0 0,1 1,0 0,1 1,0 0,0 0,1 1,0 1,0 1,1 1,0 1,0 1,0 0,0 1,0 0,0 2,0 1,0 1,0 2,0 1,0z" /><path style="fill:#666" d="M530,320 l0,-145 19,0 0,145 -19,0z" /><path style="fill:#666" d="M377,320 l62,-145 17,0 60,145 -19,0 -18,-46 -62,0 -17,46 -23,0z" /><path style="fill:#e1e1d1" d="M423,258 l49,0 -14,-37 -1,-3 -1,-2 0,-2 -1,-2 -1,-2 -1,-2 0,-2 -1,-2 -1,-2 0,-2 -1,-1 -1,-2 0,-1 0,-2 -1,-1 0,-1 -1,1 0,2 -1,1 0,2 -1,2 -1,1 0,2 -1,2 -1,2 0,1 -1,2 -1,2 0,1 -1,2 -1,2 -1,1 -14,40z" /></svg>