<!DOCTYPE svg PUBLIC "-//W3C//DTD SVG 20000303 Stylable//EN" "http://www.w3.org/TR/2000/03/WD-SVG-20000303/DTD/svg-20000303-stylable.dtd"[]><svg xmlns="http://www.w3.org/2000/svg" width="999px" height="527px" viewBox="0 0 999 499"><path style="fill:#adad84" d="M30,499 l55,-47 828,0 16,-15 70,31 -31,31 -938,0z" /><path style="fill:#d7d7c2" d="M30,499 l55,-47 -16,-15 0,-399 -69,-8 0,438 30,31z" /><path style="fill:#ebebe1" d="M968,0 l-55,23 -828,0 -16,15 -69,-8 30,-30 938,0z" /><path style="fill:#d7d7c2" d="M968,0 l-55,23 16,15 0,399 70,31 0,-438 -31,-30z" /><path style="fill:none;stroke:#4c4c4c;stroke-width:2" d="M0,30 l30,-30 938,0 31,30 0,438 -31,31 -938,0 -30,-31 0,-438" /><path style="fill:#ebebe1;stroke:#adad84;stroke-width:2" d="M69,38 l16,-16 828,0 16,16 0,398 -16,16 -828,0 -16,-16 0,-398z" /><path style="fill:#e1e1d1" d="M155,62 l-31,31 -31,109 -16,-15 0,-141 16,-16 640,0 16,16 -594,16z" /><path style="fill:none;stroke:#fff;stroke-width:2" d="M69,436 l0,-398 16,-16 828,0" /><path style="fill:#e1e1d1" d="M765,335 l78,-117 62,-188 16,16 0,383 -16,15 -812,0 -16,-15 688,-94z" /><path style="fill:#666" d="M458,268 l19,6 -2,6 -2,6 -2,5 -3,5 -3,4 -3,4 -3,3 -3,2 -4,3 -5,3 -4,2 -5,2 -5,1 -6,1 -5,1 -5,0 -6,0 -5,-1 -5,-1 -5,-1 -5,-1 -4,-1 -4,-2 -4,-1 -3,-3 -3,-3 -3,-3 -2,-3 -3,-4 -2,-4 -3,-4 -1,-3 -2,-5 -1,-5 -2,-5 -1,-5 -1,-5 -1,-5 0,-5 -1,-5 1,-5 0,-5 1,-6 1,-5 1,-5 2,-4 1,-5 2,-4 1,-4 3,-4 3,-3 3,-4 3,-3 3,-3 3,-2 3,-2 4,-2 5,-2 4,-2 4,-1 5,-1 4,-1 5,-1 5,0 4,0 5,1 5,1 5,1 4,1 5,2 4,2 3,2 3,4 3,3 3,4 3,4 2,5 3,4 2,5 2,4 -19,5 -2,-4 -1,-4 -2,-3 -2,-3 -2,-3 -2,-2 -2,-2 -2,-2 -2,-2 -3,-1 -3,-2 -3,-1 -4,-1 -3,-1 -3,0 -3,-1 -4,1 -4,0 -4,1 -3,1 -4,1 -3,2 -3,1 -2,2 -3,2 -2,2 -2,2 -2,3 -2,2 -2,3 -1,3 -1,3 -1,4 0,3 -1,4 -1,4 0,4 -1,4 0,3 0,3 0,5 0,4 1,4 0,4 1,4 1,4 0,3 1,3 2,3 2,3 2,3 2,3 2,3 2,2 2,2 3,2 3,2 3,1 3,1 3,1 3,0 3,1 4,0 3,0 3,0 4,0 4,-1 4,-1 3,-2 3,-1 3,-2 2,-1 3,-2 3,-2 3,-3 2,-3 2,-4 2,-4 1,-4 1,-5 0,-2z" /><path style="fill:#666" d="M539,305 l2,17 -2,0 -2,0 -2,0 -2,0 -1,0 -2,0 -2,0 -2,0 -1,0 -2,0 -2,-1 -2,0 -1,0 -2,-1 -1,0 -1,0 -2,0 -1,-1 -2,-1 -1,-1 -1,-1 -1,-1 0,-1 -1,0 0,-2 0,-2 0,-3 -1,-3 0,-3 0,-3 -1,-4 0,-3 0,-60 -12,0 0,-17 12,0 0,-25 19,-10 0,35 17,0 0,17 -17,0 0,62 0,1 0,2 0,1 0,1 0,2 0,0 0,1 0,0 0,0 1,1 1,1 0,0 1,0 2,1 2,1 1,0 1,0 0,0 1,0 1,0 1,0 2,0 1,0 2,0z" /><path style="fill:#666" d="M557,320 l0,-106 17,0 0,15 1,-2 1,-2 1,-1 1,-2 1,-2 1,-1 1,-2 1,-1 2,0 1,-1 2,-1 1,0 2,-1 1,0 2,-1 2,0 1,0 2,1 3,0 2,1 3,1 2,1 3,1 2,1 -6,17 -2,-1 -1,-2 -2,-1 -1,-1 -2,0 -1,-1 -2,0 -1,0 -2,0 -1,0 -2,1 -1,0 -2,1 -1,0 -1,1 -1,1 -1,1 -1,1 -1,1 -1,1 -1,2 0,1 -1,2 0,1 0,3 0,2 -1,3 0,2 0,3 -1,3 0,2 0,3 0,56 -19,0z" /><path style="fill:#666" d="M626,320 l0,-145 18,0 0,145 -18,0z" /></svg>