<!DOCTYPE svg PUBLIC "-//W3C//DTD SVG 20000303 Stylable//EN" "http://www.w3.org/TR/2000/03/WD-SVG-20000303/DTD/svg-20000303-stylable.dtd"[]><svg xmlns="http://www.w3.org/2000/svg" width="999px" height="999px" viewBox="0 0 999 999"><path style="fill:#adad84" d="M62,999 l109,-95 656,0 32,-29 140,61 -63,63 -874,0z" /><path style="fill:#d7d7c2" d="M62,999 l109,-95 -32,-29 0,-797 -139,-16 0,874 62,63z" /><path style="fill:#ebebe1" d="M936,0 l-109,47 -656,0 -32,31 -139,-16 62,-62 874,0z" /><path style="fill:#d7d7c2" d="M936,0 l-109,47 32,31 0,797 140,61 0,-874 -63,-62z" /><path style="fill:none;stroke:#4c4c4c;stroke-width:2" d="M0,62 l62,-62 874,0 63,62 0,874 -63,63 -874,0 -62,-63 0,-874" /><path style="fill:#ebebe1;stroke:#adad84;stroke-width:2" d="M139,78 l32,-32 656,0 32,32 0,795 -32,31 -656,0 -32,-31 0,-795z" /><path style="fill:#e1e1d1" d="M531,671 l156,-234 124,-375 32,32 0,765 -32,29 -624,0 -32,-29 376,-188z" /><path style="fill:#e1e1d1" d="M311,125 l-62,62 -62,218 -32,-30 0,-281 32,-32 280,0 32,32 -188,31z" /><path style="fill:none;stroke:#fff;stroke-width:2" d="M139,873 l0,-795 32,-32 656,0" /><path style="fill:#666" d="M744,640 l0,-290 37,0 0,290 -37,0z" /><path style="fill:#666" d="M661,574 l33,4 0,4 -1,4 -2,4 -1,3 -2,4 -1,4 -2,3 -2,4 -3,3 -2,3 -2,3 -3,2 -3,3 -3,2 -2,2 -4,2 -3,1 -3,2 -3,1 -4,2 -3,1 -4,2 -4,1 -4,1 -4,1 -4,1 -4,1 -4,1 -4,0 -5,1 -4,0 -5,0 -5,0 -6,0 -5,-1 -5,0 -5,-1 -5,-1 -4,-2 -5,-1 -4,-2 -4,-2 -4,-1 -4,-3 -4,-2 -3,-3 -4,-3 -3,-3 -3,-3 -3,-3 -3,-4 -3,-5 -2,-4 -3,-5 -2,-5 -2,-6 -2,-5 -1,-6 -2,-6 -1,-6 -1,-6 0,-6 -1,-6 0,-7 0,-6 0,-6 1,-6 0,-5 1,-6 1,-6 2,-5 1,-5 2,-5 1,-5 3,-4 2,-4 2,-4 3,-4 3,-4 2,-3 4,-4 3,-3 4,-4 4,-3 4,-3 5,-3 4,-2 5,-2 5,-2 5,-2 5,-1 5,-2 6,-1 5,0 6,-1 5,0 5,0 4,1 5,0 5,1 5,1 5,2 5,1 4,2 5,2 4,2 5,3 4,2 4,3 4,3 3,3 3,3 3,3 3,4 3,4 3,4 2,5 3,5 2,5 2,5 2,6 1,5 2,6 1,6 1,6 1,6 0,6 0,6 0,1 0,1 -1,1 -1,2 0,1 -1,2 0,1 -1,0 -157,0 0,4 0,4 1,3 0,4 1,4 1,3 1,4 1,3 2,4 1,2 1,3 1,3 2,3 2,2 1,2 1,1 3,2 2,2 3,1 2,2 3,1 3,2 3,1 3,1 3,1 3,1 3,1 3,1 3,1 3,0 3,0 3,0 2,0 3,0 2,0 2,0 3,-1 2,0 2,-1 2,0 2,-1 2,-1 2,0 2,-1 2,-1 2,0 2,-1 1,-1 3,-2 4,-2 4,-4 3,-4 4,-3 2,-5 3,-5 2,-4 4,0z" /><path style="fill:#ebebe1" d="M537,512 l124,0 0,-2 0,-3 0,-2 -1,-2 -1,-3 -1,-2 -1,-2 -1,-2 -1,-2 -1,-2 -2,-3 -1,-1 -2,-2 -1,-2 -2,-2 -1,-1 -2,-3 -2,-2 -2,-2 -2,-2 -3,-2 -3,-1 -3,-2 -3,-1 -3,-2 -3,-1 -4,-1 -3,-1 -3,0 -4,-1 -3,0 -3,0 -3,0 -3,0 -3,1 -3,0 -3,1 -3,1 -3,1 -3,1 -2,1 -3,1 -2,2 -3,1 -2,2 -2,1 -1,2 -2,1 -2,2 -3,2 -2,2 -2,2 -2,3 -1,2 -2,2 -1,3 -2,2 -1,3 -1,3 -1,2 0,3 -1,2 0,3 0,2z" /><path style="fill:#666" d="M227,640 l0,-290 99,0 4,0 3,0 4,0 4,1 4,0 3,1 4,0 3,0 4,1 2,0 3,1 3,0 3,0 2,0 2,1 2,0 3,0 3,2 3,1 3,1 3,1 3,2 3,2 2,1 3,2 3,2 2,2 2,1 3,2 2,2 1,1 2,2 3,2 3,2 3,2 3,2 2,3 3,3 2,3 3,3 2,3 2,3 2,4 2,3 2,3 2,4 1,3 2,3 2,4 1,4 1,4 2,4 1,4 1,5 1,4 0,5 1,4 1,5 0,4 1,5 0,4 0,5 1,4 0,5 0,4 -1,4 0,4 0,4 -1,3 0,4 0,4 -1,4 -1,3 0,4 -1,3 0,4 -1,3 -1,3 -1,4 -1,3 0,3 -1,3 -1,3 -2,3 -1,3 -1,3 -1,3 -2,3 -1,3 -1,2 -2,3 -1,2 -2,2 -1,2 -2,2 -2,1 -2,4 -4,3 -3,4 -3,4 -3,3 -3,3 -3,3 -3,1 -2,2 -2,2 -2,1 -2,2 -2,1 -2,1 -3,2 -2,1 -3,1 -2,1 -3,1 -2,0 -3,1 -3,0 -2,1 -2,0 -3,0 -2,0 -3,0 -3,1 -2,0 -3,0 -3,1 -3,0 -3,1 -3,0 -2,0 -4,1 -3,0 -3,0 -3,0 -3,0 -103,0z" /><path style="fill:#ebebe1" d="M264,607 l62,0 3,0 3,0 4,-1 3,0 3,0 4,0 3,-1 3,0 3,0 3,-1 3,0 2,0 3,0 2,-1 2,0 2,0 3,0 3,-1 4,-2 4,-2 3,-2 3,-2 2,-2 2,-2 2,-1 1,-2 2,-2 2,-2 2,-3 2,-2 1,-2 2,-3 2,-2 2,-3 1,-3 2,-2 1,-3 1,-2 1,-3 1,-2 1,-3 1,-4 0,-3 1,-3 1,-4 0,-3 1,-4 1,-3 0,-4 1,-4 0,-4 1,-3 0,-4 0,-4 1,-4 0,-4 0,-5 -1,-6 0,-5 -1,-5 -1,-5 -1,-5 -1,-4 -1,-5 -1,-4 -1,-4 -2,-4 -1,-4 -2,-4 -1,-3 -2,-4 -1,-3 -2,-3 -2,-3 -2,-3 -2,-3 -2,-2 -2,-3 -3,-2 -2,-2 -3,-2 -2,-2 -3,-2 -2,-2 -3,-1 -3,-1 -2,-1 -2,-1 -2,-1 -2,-1 -2,-1 -3,0 -3,-1 -3,-1 -2,0 -4,-1 -3,0 -4,-1 -3,0 -4,-1 -4,0 -4,0 -3,-1 -4,0 -62,0 0,224z" /></svg>