<!DOCTYPE svg PUBLIC "-//W3C//DTD SVG 20000303 Stylable//EN" "http://www.w3.org/TR/2000/03/WD-SVG-20000303/DTD/svg-20000303-stylable.dtd"[]><svg xmlns="http://www.w3.org/2000/svg" width="998px" height="527px" viewBox="0 0 999 499"><path style="fill:#adad84" d="M31,499 l54,-46 828,0 16,-16 70,30 -32,32 -936,0z" /><path style="fill:#d7d7c2" d="M31,499 l54,-46 -16,-16 0,-398 -69,-8 0,436 31,32z" /><path style="fill:#ebebe1" d="M967,0 l-54,23 -828,0 -16,16 -69,-8 31,-31 936,0z" /><path style="fill:#d7d7c2" d="M967,0 l-54,23 16,16 0,398 70,30 0,-436 -32,-31z" /><path style="fill:none;stroke:#4c4c4c;stroke-width:2" d="M0,31 l31,-31 936,0 32,31 0,436 -32,32 -936,0 -31,-32 0,-436" /><path style="fill:#ebebe1;stroke:#adad84;stroke-width:2" d="M69,37 l16,-14 828,0 16,14 0,400 -16,16 -828,0 -16,-16 0,-400z" /><path style="fill:#e1e1d1" d="M155,62 l-30,31 -32,110 -15,-16 0,-140 15,-16 640,0 16,16 -594,15z" /><path style="fill:none;stroke:#fff;stroke-width:2" d="M69,437 l0,-400 16,-14 828,0" /><path style="fill:#e1e1d1" d="M765,335 l78,-118 62,-186 15,15 0,383 -15,16 -812,0 -15,-16 687,-94z" /><path style="fill:#666" d="M688,320 l0,-106 16,0 0,15 1,-2 1,-2 1,-2 1,-1 2,-2 1,-2 1,-1 0,-1 2,0 2,-1 1,-1 2,-1 1,0 2,0 1,-1 2,0 2,0 2,1 2,0 2,1 3,1 3,1 2,1 3,1 -6,17 -2,-1 -2,-2 -1,-1 -2,-1 -1,0 -2,-1 -1,0 -2,0 -2,0 -1,0 -2,0 -1,1 -1,1 -1,0 -1,1 -1,1 -1,1 -1,1 -1,1 -1,1 -1,2 -1,1 0,2 -1,1 0,3 0,2 0,3 -1,3 0,2 0,3 -1,3 0,2 0,56 -18,0z" /><path style="fill:#666" d="M646,287 l17,2 -1,4 -2,3 -1,4 -2,3 -2,4 -3,2 -3,3 -3,2 -1,0 -2,1 -1,1 -2,1 -2,0 -2,1 -2,1 -2,0 -2,1 -2,0 -2,1 -2,0 -2,1 -2,0 -2,0 -3,0 -2,0 -3,0 -2,0 -3,-1 -2,0 -3,-1 -2,-1 -2,0 -3,-1 -2,-1 -2,-1 -2,-1 -2,-1 -2,-2 -1,-1 -2,-2 -1,-1 -2,-2 -1,-2 -2,-2 -1,-2 -1,-3 -1,-2 -1,-3 -1,-3 -1,-3 -1,-3 0,-3 -1,-3 0,-3 0,-3 0,-3 0,-3 0,-3 0,-3 1,-3 0,-3 0,-3 1,-2 1,-3 1,-2 0,-3 1,-2 1,-2 2,-2 1,-2 1,-2 2,-1 2,-2 1,-2 2,-2 2,-1 2,-2 3,-1 2,-1 2,-1 3,-1 2,-1 3,-1 3,-1 2,0 3,0 3,-1 2,0 3,0 2,1 3,0 2,0 2,1 3,1 2,0 2,1 3,1 2,1 2,2 2,1 2,1 2,2 2,1 2,2 1,1 2,2 1,2 1,2 2,3 1,2 1,3 1,2 1,3 1,3 0,3 1,3 1,3 0,3 0,3 0,3 0,1 -1,1 -1,2 0,0 -79,0 0,4 1,4 1,4 1,3 1,3 1,3 2,2 1,2 3,1 2,2 3,1 3,2 3,1 3,1 3,0 3,1 3,-1 2,0 2,0 2,-1 2,-1 2,0 2,-1 2,-1 2,-1 1,-1 2,-2 2,-1 1,-2 2,-3 1,-2 1,-2 2,0z" /><path style="fill:#e1e1d1" d="M584,256 l62,0 0,-3 0,-2 -1,-2 -1,-2 -1,-3 -2,-1 -1,-2 -2,-2 -2,-2 -2,-2 -3,-2 -3,-1 -3,-2 -3,-1 -3,0 -4,0 -3,0 -3,0 -3,1 -3,1 -2,2 -3,1 -2,1 -1,2 -3,2 -2,2 -1,2 -2,3 -1,2 -1,3 -1,2 0,3z" /><path style="fill:#666" d="M555,306 l2,16 -1,0 -2,0 -2,0 -2,0 -2,0 -2,0 -1,0 -2,0 -2,0 -1,0 -2,-1 -2,0 -2,0 -1,-1 -2,0 -1,0 -1,0 -2,-1 -1,-1 -1,0 -1,-1 -1,-1 -1,-1 0,-1 0,-2 0,-2 -1,-3 0,-3 0,-3 -1,-3 0,-3 0,-4 0,-60 -12,0 0,-17 12,0 0,-25 19,-10 0,35 16,0 0,17 -16,0 0,62 0,2 0,1 0,1 0,1 0,2 0,0 0,1 0,0 0,0 1,1 0,1 1,0 0,0 0,1 1,0 1,0 1,1 1,0 1,0 1,1 0,0 1,0 0,0 2,0 1,0 1,0 2,0 1,0z" /><path style="fill:#666" d="M404,320 l0,-106 19,0 0,17 1,-3 1,-2 2,-2 2,-1 1,-2 2,-2 2,-1 2,-1 2,-1 2,-1 2,-1 3,-1 2,0 2,0 3,-1 2,0 2,0 2,1 2,0 2,0 2,1 3,1 2,1 1,0 2,1 2,1 1,1 2,1 1,2 2,1 1,1 0,0 1,2 1,2 1,2 1,2 1,2 0,2 1,2 0,1 0,1 0,1 1,2 0,2 1,2 0,3 0,3 0,3 0,64 -19,0 0,-62 0,-3 0,-2 0,-2 -1,-2 0,-2 0,-2 -1,-1 0,-1 0,-1 0,-2 -1,-1 -1,-2 -1,-1 -1,-1 -1,-1 -1,-1 -1,-1 -2,-1 -2,0 -2,-1 -2,-1 -2,0 -2,0 -2,0 -2,0 -2,0 -2,1 -2,0 -2,1 -2,1 -2,2 -2,1 -1,2 -2,2 -1,4 -2,3 -1,4 0,5 -1,4 0,5 0,56 -19,0z" /><path style="fill:#666" d="M272,320 l0,-145 103,0 0,17 -85,0 0,45 79,0 0,17 -79,0 0,49 89,0 0,17 -107,0z" /></svg>