<!DOCTYPE svg PUBLIC "-//W3C//DTD SVG 20000303 Stylable//EN" "http://www.w3.org/TR/2000/03/WD-SVG-20000303/DTD/svg-20000303-stylable.dtd"[]><svg xmlns="http://www.w3.org/2000/svg" width="999px" height="999px" viewBox="0 0 999 999"><path style="fill:#adad84" d="M62,999 l109,-94 656,0 31,-31 141,62 -63,63 -874,0z" /><path style="fill:#d7d7c2" d="M62,999 l109,-94 -31,-31 0,-797 -140,-15 0,874 62,63z" /><path style="fill:#ebebe1" d="M936,0 l-109,46 -656,0 -31,31 -140,-15 62,-62 874,0z" /><path style="fill:#d7d7c2" d="M936,0 l-109,46 31,31 0,797 141,62 0,-874 -63,-62z" /><path style="fill:none;stroke:#4c4c4c;stroke-width:2" d="M0,62 l62,-62 874,0 63,62 0,874 -63,63 -874,0 -62,-63 0,-874" /><path style="fill:#ebebe1;stroke:#adad84;stroke-width:2" d="M140,77 l31,-31 656,0 31,31 0,796 -31,32 -656,0 -31,-32 0,-796z" /><path style="fill:#e1e1d1" d="M530,671 l156,-234 125,-375 31,31 0,765 -31,31 -624,0 -32,-31 375,-187z" /><path style="fill:#e1e1d1" d="M312,124 l-63,63 -62,218 -31,-31 0,-281 31,-31 281,0 31,31 -187,31z" /><path style="fill:none;stroke:#fff;stroke-width:2" d="M140,873 l0,-796 31,-31 656,0" /><path style="fill:#666" d="M293,640 l0,-290 195,0 0,34 -158,0 0,91 133,0 0,32 -133,0 0,133 -37,0z" /><path style="fill:#666" d="M661,640 l-37,0 0,-223 -4,3 -4,3 -4,3 -5,3 -5,3 -6,3 -5,4 -4,3 -5,3 -5,3 -4,2 -4,3 -5,2 -4,2 -3,1 -4,0 0,-33 7,-3 6,-4 7,-4 7,-4 6,-4 6,-5 6,-5 5,-4 5,-5 4,-5 5,-6 4,-5 4,-5 4,-6 4,-5 3,-5 25,0 0,290z" /></svg>