<!DOCTYPE svg PUBLIC "-//W3C//DTD SVG 20000303 Stylable//EN" "http://www.w3.org/TR/2000/03/WD-SVG-20000303/DTD/svg-20000303-stylable.dtd"[]><svg xmlns="http://www.w3.org/2000/svg" width="998px" height="998px" viewBox="0 0 999 999"><path style="fill:#adad84" d="M62,999 l109,-95 656,0 32,-29 140,61 -63,63 -874,0z" /><path style="fill:#d7d7c2" d="M62,999 l109,-95 -32,-29 0,-797 -139,-16 0,874 62,63z" /><path style="fill:#ebebe1" d="M936,0 l-109,47 -656,0 -32,31 -139,-16 62,-62 874,0z" /><path style="fill:#d7d7c2" d="M936,0 l-109,47 32,31 0,797 140,61 0,-874 -63,-62z" /><path style="fill:none;stroke:#4c4c4c;stroke-width:2" d="M0,62 l62,-62 874,0 63,62 0,874 -63,63 -874,0 -62,-63 0,-874" /><path style="fill:#ebebe1;stroke:#adad84;stroke-width:2" d="M139,78 l32,-32 656,0 32,32 0,795 -32,31 -656,0 -32,-31 0,-795z" /><path style="fill:#e1e1d1" d="M531,671 l156,-234 124,-375 32,32 0,765 -32,30 -624,0 -32,-30 376,-188z" /><path style="fill:#e1e1d1" d="M311,125 l-62,62 -62,218 -32,-30 0,-281 32,-32 280,0 32,32 -188,31z" /><path style="fill:none;stroke:#fff;stroke-width:2" d="M139,873 l0,-795 32,-32 656,0" /><path style="fill:#666" d="M645,640 l0,-70 -133,0 0,-37 141,-178 29,0 0,178 37,0 0,37 -37,0 0,70 -37,0z" /><path style="fill:#666" d="M293,640 l0,-290 194,0 0,34 -157,0 0,91 133,0 0,32 -133,0 0,133 -37,0z" /><path style="fill:#ebebe1" d="M645,533 l0,-108 -87,108 87,0z" /></svg>