<!DOCTYPE svg PUBLIC "-//W3C//DTD SVG 20000303 Stylable//EN" "http://www.w3.org/TR/2000/03/WD-SVG-20000303/DTD/svg-20000303-stylable.dtd"[]><svg xmlns="http://www.w3.org/2000/svg" width="999px" height="999px" viewBox="0 0 999 999"><path style="fill:#adad84" d="M61,999 l110,-94 656,0 32,-30 140,62 -62,62 -876,0z" /><path style="fill:#d7d7c2" d="M61,999 l110,-94 -32,-30 0,-798 -139,-16 0,876 61,62z" /><path style="fill:#ebebe1" d="M937,0 l-110,47 -656,0 -32,30 -139,-16 61,-61 876,0z" /><path style="fill:#d7d7c2" d="M937,0 l-110,47 32,30 0,798 140,62 0,-876 -62,-61z" /><path style="fill:none;stroke:#4c4c4c;stroke-width:2" d="M0,61 l61,-61 876,0 62,61 0,876 -62,62 -876,0 -61,-62 0,-876" /><path style="fill:#ebebe1;stroke:#adad84;stroke-width:2" d="M139,77 l32,-32 656,0 32,32 0,796 -32,32 -656,0 -32,-32 0,-796z" /><path style="fill:#e1e1d1" d="M531,671 l156,-234 124,-376 32,32 0,766 -32,30 -624,0 -32,-30 376,-188z" /><path style="fill:#e1e1d1" d="M311,125 l-62,62 -62,218 -32,-30 0,-282 32,-32 280,0 32,32 -188,32z" /><path style="fill:none;stroke:#fff;stroke-width:2" d="M139,873 l0,-796 32,-32 656,0" /><path style="fill:#666" d="M548,431 l37,0 0,3 1,4 0,3 1,4 2,3 1,3 2,3 1,2 2,0 2,1 1,1 2,1 2,1 2,0 2,1 3,1 2,0 3,1 2,0 3,0 2,1 3,0 3,0 3,0 3,0 3,0 3,0 3,-1 3,0 2,0 3,-1 2,0 2,-1 3,-1 2,0 2,-1 2,-1 1,-1 2,-1 2,0 3,-2 3,-3 3,-3 2,-3 2,-4 2,-3 1,-4 0,-3 0,-1 1,-1 0,-2 0,-1 0,-2 1,-3 0,-2 1,-3 0,-2 0,-3 0,-4 1,-3 0,-3 0,-4 0,-4 0,-3 -3,3 -3,2 -3,3 -4,2 -3,3 -4,2 -3,1 -4,2 -4,2 -3,1 -4,1 -4,1 -4,1 -4,0 -4,1 -4,0 -4,-1 -5,0 -4,-1 -5,-1 -4,-1 -5,-1 -4,-2 -4,-2 -4,-2 -4,-2 -4,-2 -3,-3 -3,-3 -3,-2 -3,-3 -3,-3 -3,-4 -2,-5 -3,-4 -3,-5 -2,-4 -2,-5 -2,-5 -1,-5 -2,-4 -1,-5 -1,-5 -1,-5 -1,-5 0,-5 -1,-5 0,-4 0,-4 1,-3 0,-3 0,-3 1,-4 0,-3 1,-4 0,-3 1,-4 1,-3 0,-3 1,-4 1,-3 1,-3 0,-3 1,-4 2,-3 1,-3 2,-3 2,-3 1,-3 2,-3 2,-3 2,-3 2,-3 2,-2 2,-2 2,-3 2,-2 2,-2 1,-2 2,-1 2,-2 3,-1 2,-2 3,-1 3,-2 2,-1 3,-1 3,-2 3,-1 3,-1 3,-1 3,0 3,-1 3,0 3,-1 3,0 5,1 5,0 4,1 4,0 5,2 4,1 4,2 4,1 3,2 4,3 4,2 3,3 4,2 3,3 3,3 3,3 0,-25 38,0 0,183 0,6 0,6 -1,5 0,6 0,5 -1,5 0,5 -1,4 0,5 -1,4 -1,4 0,3 -1,3 -1,3 -1,3 -1,3 -3,4 -3,5 -4,4 -5,4 -4,4 -4,3 -5,3 -5,2 -3,1 -3,2 -3,1 -4,1 -3,1 -4,1 -3,1 -4,1 -3,1 -4,0 -3,1 -4,0 -3,1 -3,0 -3,0 -4,0 -4,0 -5,0 -4,-1 -5,0 -4,-1 -5,-1 -4,-1 -4,-1 -4,-1 -4,-2 -4,-1 -3,-1 -3,-2 -3,-1 -3,-2 -3,-1 -3,-2 -2,-2 -3,-2 -2,-3 -2,-3 -1,-3 -2,-3 -1,-3 -1,-4 -1,-3 -1,-4 0,-5 -1,-4 0,-4 0,-5 0,-4 0,4z" /><path style="fill:#ebebe1" d="M581,307 l0,4 0,5 0,5 1,4 0,5 1,4 0,4 1,4 1,4 1,3 1,3 1,4 1,2 1,3 2,2 1,2 2,1 2,2 2,1 2,2 2,1 2,2 3,1 2,1 3,1 2,1 3,1 2,1 3,1 3,0 2,0 2,0 3,0 4,0 3,0 3,-1 3,-1 3,-1 3,-1 2,-1 3,-1 3,-1 2,-2 2,-1 3,-2 1,-1 2,-2 2,-1 2,-2 1,-2 2,-3 1,-2 1,-4 2,-3 1,-3 1,-4 1,-4 1,-4 1,-4 1,-5 1,-4 0,-5 0,-5 0,-4 0,-4 0,-4 0,-4 -1,-4 -1,-3 -1,-4 -1,-4 -1,-3 -1,-4 -1,-3 -2,-3 -1,-3 -1,-3 -2,-3 -1,-3 -2,-2 -2,-3 -2,-2 -1,-2 -3,-2 -2,-2 -2,-1 -3,-2 -3,-1 -2,-2 -3,0 -3,-1 -3,-1 -3,-1 -3,0 -4,-1 -3,0 -4,1 -5,1 -4,1 -5,2 -4,3 -4,2 -3,3 -4,4 -1,2 -2,3 -1,3 -2,3 -1,3 -1,3 -2,3 -1,4 -1,4 -1,4 -1,4 -1,4 0,4 -1,4 0,5 0,5z" /><path style="fill:#666" d="M316,415 l0,-291 104,0 3,0 3,1 3,0 3,0 4,1 3,0 3,0 3,1 3,0 3,1 3,0 3,0 2,1 2,0 2,0 2,0 5,0 4,1 5,2 4,1 4,2 4,3 4,1 3,2 3,3 3,4 3,4 3,4 3,4 2,3 2,4 2,3 3,4 2,4 2,4 2,5 1,5 1,5 1,5 0,5 0,5 0,5 -1,4 -1,4 0,5 -1,3 -2,5 -1,3 -2,4 -1,4 -3,4 -2,3 -2,4 -3,3 -2,3 -3,3 -4,3 -3,3 -4,3 -4,2 -4,3 -5,2 -5,1 -5,2 -6,1 -5,2 -6,1 -6,1 -6,0 -7,1 -7,0 -6,0 -71,0 0,121 -37,0z" /><path style="fill:#ebebe1" d="M353,261 l71,0 4,0 5,0 4,0 4,0 4,-1 4,0 4,-1 4,-1 3,-1 3,-1 3,-1 3,-1 3,-1 2,-1 2,-2 2,-1 1,-2 2,-2 1,-1 1,-2 2,-2 1,-2 2,-2 1,-3 1,-2 1,-3 1,-2 1,-3 0,-3 1,-3 0,-3 0,-3 0,-4 -1,-5 0,-4 -2,-4 -1,-5 -1,-4 -2,-3 -2,-4 -3,-3 -3,-2 -3,-3 -3,-3 -3,-2 -3,-2 -3,-1 -4,0 -3,0 -3,-1 -4,0 -5,-1 -4,-1 -6,0 -5,-1 -6,0 -71,0 0,103z" /><path style="fill:#666" d="M571,789 l0,-211 37,0 0,33 3,-5 2,-4 3,-4 4,-3 3,-4 4,-3 3,-2 4,-3 5,-2 4,-2 4,-2 5,-1 4,-1 5,-1 4,0 5,0 3,0 4,1 5,0 5,1 4,2 5,1 4,1 3,2 4,2 3,2 3,2 4,2 2,2 3,3 1,2 1,1 1,4 2,3 3,4 1,4 2,4 2,4 1,3 0,3 1,3 0,2 0,4 1,3 1,5 1,5 0,6 0,6 0,128 -37,0 0,-124 0,-5 0,-4 -1,-5 -1,-4 -1,-4 -1,-3 0,-2 0,-2 0,-3 -2,-3 -1,-3 -2,-3 -2,-3 -2,-2 -2,-2 -1,-2 -4,-1 -3,-2 -4,-1 -4,-2 -4,-1 -4,0 -3,-1 -3,0 -5,0 -4,1 -5,1 -5,1 -4,2 -4,2 -3,2 -4,3 -1,2 -2,2 -1,3 -2,2 -1,3 -1,4 -2,3 -1,4 -1,4 -1,4 -1,5 -1,4 0,4 -1,5 0,5 0,4 0,112 -37,0z" /><path style="fill:#666" d="M281,789 l0,-290 99,0 4,0 4,0 4,1 4,0 3,0 4,1 3,0 4,0 3,1 3,0 3,1 3,0 2,0 2,0 2,1 2,0 3,0 3,1 3,2 3,1 3,1 3,2 3,2 3,1 2,2 3,2 2,1 3,2 2,2 2,2 2,1 2,2 3,2 3,2 2,2 3,2 3,3 2,3 3,3 2,3 2,3 2,3 3,3 2,4 2,3 1,3 2,4 1,3 2,4 1,4 2,4 1,4 1,4 1,4 1,5 1,4 1,5 0,4 1,5 0,4 0,5 1,5 0,4 0,5 0,4 0,4 -1,3 0,4 0,4 -1,4 0,4 -1,3 0,4 -1,4 -1,3 0,4 -1,3 -1,4 0,3 -1,3 -1,3 -1,3 -1,3 -1,3 -1,3 -1,3 -2,3 -1,3 -1,3 -2,2 -1,3 -2,2 -1,2 -2,2 -1,2 -2,1 -3,4 -3,3 -3,4 -3,3 -4,4 -3,3 -3,2 -3,2 -3,4 -4,3 -5,2 -5,3 -5,2 -5,1 -5,1 -5,1 -2,0 -3,0 -2,0 -3,0 -3,1 -2,0 -3,1 -3,0 -3,0 -3,1 -3,0 -3,0 -3,1 -3,0 -3,0 -3,0 -104,0z" /><path style="fill:#ebebe1" d="M318,756 l62,0 3,0 3,0 4,-1 3,0 3,0 4,0 3,-1 3,0 3,-1 3,0 3,0 2,0 3,-1 2,0 2,0 1,0 4,-1 3,-1 4,-1 4,-2 3,-2 3,-2 3,-2 1,-2 2,-1 2,-2 2,-2 1,-2 2,-3 2,-2 2,-3 2,-2 1,-3 2,-2 2,-3 1,-2 1,-3 2,-2 1,-3 0,-2 1,-3 1,-3 1,-4 1,-3 0,-4 1,-3 1,-4 0,-4 1,-3 0,-4 1,-4 0,-4 1,-4 0,-3 0,-4 0,-4 0,-5 0,-6 -1,-5 0,-5 -1,-5 -1,-5 -1,-4 -1,-5 -2,-4 -1,-4 -1,-4 -2,-4 -1,-4 -2,-4 -1,-3 -2,-3 -3,-6 -4,-6 -5,-5 -5,-4 -5,-5 -5,-3 -5,-3 -5,-2 -2,0 -2,-1 -2,-1 -2,0 -3,-1 -3,-1 -3,-1 -3,0 -4,-1 -3,0 -4,-1 -3,0 -4,0 -4,0 -4,-1 -4,0 -62,0 0,224z" /></svg>