<!DOCTYPE svg PUBLIC "-//W3C//DTD SVG 20000303 Stylable//EN" "http://www.w3.org/TR/2000/03/WD-SVG-20000303/DTD/svg-20000303-stylable.dtd"[]><svg xmlns="http://www.w3.org/2000/svg" width="999px" height="999px" viewBox="0 0 999 999"><path style="fill:#adad84" d="M62,999 l109,-94 656,0 31,-31 141,62 -63,63 -874,0z" /><path style="fill:#d7d7c2" d="M62,999 l109,-94 -31,-31 0,-797 -140,-15 0,874 62,63z" /><path style="fill:#ebebe1" d="M936,0 l-109,46 -656,0 -31,31 -140,-15 62,-62 874,0z" /><path style="fill:#d7d7c2" d="M936,0 l-109,46 31,31 0,797 141,62 0,-874 -63,-62z" /><path style="fill:none;stroke:#4c4c4c;stroke-width:2" d="M0,62 l62,-62 874,0 63,62 0,874 -63,63 -874,0 -62,-63 0,-874" /><path style="fill:#ebebe1;stroke:#adad84;stroke-width:2" d="M140,77 l31,-31 656,0 31,31 0,796 -31,32 -656,0 -31,-32 0,-796z" /><path style="fill:#e1e1d1" d="M530,671 l156,-234 125,-375 31,31 0,765 -31,31 -624,0 -32,-31 375,-187z" /><path style="fill:#e1e1d1" d="M312,124 l-63,63 -62,218 -31,-31 0,-281 31,-31 281,0 31,31 -187,31z" /><path style="fill:none;stroke:#fff;stroke-width:2" d="M140,873 l0,-796 31,-31 656,0" /><path style="fill:#666" d="M323,567 l59,0 1,10 0,9 2,8 1,8 2,7 2,7 3,6 2,5 6,5 5,5 6,6 6,6 7,5 5,5 6,4 5,3 8,3 8,2 9,2 9,2 9,2 10,1 9,1 10,0 8,0 8,-1 8,-1 8,-1 8,-1 8,-1 6,-1 6,0 5,-3 5,-3 6,-4 6,-4 5,-5 5,-4 4,-5 3,-5 3,-5 2,-5 2,-5 2,-5 2,-5 1,-5 1,-5 0,-5 0,-5 -1,-4 -1,-5 -2,-5 -2,-4 -2,-3 -2,-4 -3,-3 -3,-5 -4,-4 -5,-5 -5,-4 -6,-3 -6,-3 -5,-1 -5,-1 -6,0 -7,-2 -8,-2 -9,-3 -10,-3 -12,-4 -13,-3 -14,-3 -7,-2 -8,-3 -7,-2 -7,-2 -7,-3 -7,-2 -6,-2 -7,-2 -6,-3 -5,-1 -6,-2 -5,-2 -4,-1 -4,-2 -3,-1 -3,-2 -8,-5 -7,-5 -7,-5 -6,-5 -6,-5 -5,-4 -4,-5 -3,-5 -3,-6 -2,-6 -2,-8 -2,-8 -2,-8 -1,-8 -1,-8 0,-8 0,-10 1,-9 1,-10 2,-9 2,-8 2,-7 2,-7 3,-5 5,-8 6,-7 7,-7 7,-6 7,-6 9,-5 9,-5 9,-3 5,-2 5,-2 6,-2 5,-2 5,-2 6,-2 5,-1 6,-1 5,-2 6,-1 5,0 6,-1 5,-1 6,0 5,0 4,0 5,0 5,0 6,0 5,1 5,1 6,0 5,1 6,2 5,1 6,1 5,2 6,2 5,2 6,2 5,2 5,2 9,6 9,5 9,6 7,6 7,7 7,6 6,5 5,6 5,7 5,9 4,8 4,9 3,10 3,9 2,10 0,10 -59,0 -1,-10 -2,-9 -4,-8 -4,-8 -6,-7 -5,-6 -6,-6 -5,-5 -6,-5 -7,-5 -9,-4 -10,-4 -11,-4 -11,-2 -12,-2 -13,-1 -11,1 -12,0 -10,2 -10,2 -9,3 -8,3 -6,5 -6,4 -5,6 -4,6 -5,7 -4,7 -3,8 -3,7 -2,6 0,6 0,5 1,5 1,6 2,6 2,5 2,5 3,4 2,3 3,3 3,2 4,3 4,2 4,2 5,3 5,2 6,2 6,2 6,2 7,2 7,2 8,2 8,1 8,2 8,1 8,3 9,2 8,3 8,2 7,2 8,3 7,2 6,2 7,2 6,2 5,2 5,2 4,2 4,1 4,2 2,1 10,3 9,4 8,5 8,5 7,6 6,5 6,6 6,5 4,8 4,8 4,9 2,9 3,9 1,10 1,9 0,10 0,8 -1,8 -1,9 -3,8 -2,9 -4,8 -4,8 -4,8 -6,8 -7,7 -7,7 -8,6 -9,6 -10,5 -9,4 -10,3 -5,3 -5,2 -6,2 -5,2 -5,2 -6,1 -5,2 -6,1 -5,1 -6,1 -5,1 -6,1 -5,1 -6,0 -5,0 -5,0 -7,0 -7,0 -7,0 -7,-1 -6,-1 -7,0 -6,-1 -7,-1 -6,-1 -6,-1 -5,-1 -6,-1 -5,-2 -6,-1 -5,-1 -5,-1 -10,-5 -9,-6 -10,-7 -9,-7 -8,-8 -8,-8 -6,-9 -6,-9 -2,-5 -3,-5 -2,-6 -2,-5 -3,-6 -2,-5 -2,-6 -2,-6 -2,-6 -1,-6 -2,-6 -1,-6 -1,-6 -1,-6 0,-7 0,-6z" /></svg>