<!DOCTYPE svg PUBLIC "-//W3C//DTD SVG 20000303 Stylable//EN" "http://www.w3.org/TR/2000/03/WD-SVG-20000303/DTD/svg-20000303-stylable.dtd"[]><svg xmlns="http://www.w3.org/2000/svg" width="999px" height="527px" viewBox="0 0 999 499"><path style="fill:#adad84" d="M31,499 l54,-46 828,0 15,-16 71,30 -32,32 -936,0z" /><path style="fill:#d7d7c2" d="M31,499 l54,-46 -15,-16 0,-398 -70,-8 0,436 31,32z" /><path style="fill:#ebebe1" d="M967,0 l-54,23 -828,0 -15,16 -70,-8 31,-31 936,0z" /><path style="fill:#d7d7c2" d="M967,0 l-54,23 15,16 0,398 71,30 0,-436 -32,-31z" /><path style="fill:none;stroke:#4c4c4c;stroke-width:2" d="M0,31 l31,-31 936,0 32,31 0,436 -32,32 -936,0 -31,-32 0,-436" /><path style="fill:#ebebe1;stroke:#adad84;stroke-width:2" d="M70,38 l15,-15 828,0 15,15 0,399 -15,16 -828,0 -15,-16 0,-399z" /><path style="fill:#e1e1d1" d="M155,61 l-30,32 -32,110 -16,-16 0,-140 16,-16 640,0 16,16 -594,14z" /><path style="fill:none;stroke:#fff;stroke-width:2" d="M70,437 l0,-399 15,-15 828,0" /><path style="fill:#e1e1d1" d="M765,335 l78,-118 62,-186 16,14 0,384 -16,16 -812,0 -16,-16 688,-94z" /><path style="fill:#666" d="M580,320 l-19,0 0,-145 19,0 0,54 3,-4 2,-3 4,-3 3,-2 4,-2 3,-2 4,0 4,-1 2,0 3,1 2,0 3,1 3,0 2,1 2,1 2,0 1,1 2,1 2,1 2,2 2,1 1,2 1,1 1,2 2,1 1,2 2,3 1,2 1,3 1,2 1,3 1,2 1,3 1,2 1,3 0,3 1,2 0,3 1,3 0,2 0,3 -1,3 0,3 0,3 -1,3 0,3 -1,3 -1,3 -1,2 0,3 -1,3 -1,2 -2,2 -1,2 -2,2 -1,1 -2,2 -1,1 -2,2 -2,1 -2,1 -2,2 -2,1 -2,1 -2,1 -2,1 -2,0 -3,1 -2,0 -2,1 -3,0 -2,0 -5,0 -4,-1 -4,-2 -4,-1 -3,-3 -3,-3 -2,-3 -2,-4 0,15z" /><ellipse style="fill:#e1e1d1" cx="607" cy="267" rx="27" ry="38" /><path style="fill:#666" d="M516,307 l-2,2 -3,2 -3,1 -2,2 -3,2 -2,1 -2,0 -2,1 -2,0 -3,1 -2,1 -3,1 -3,0 -3,1 -2,0 -3,0 -3,0 -4,-1 -4,-1 -3,-1 -3,-1 -3,-1 -2,-2 -2,-1 -2,-2 -1,-2 -2,-3 -1,-2 -1,-3 -1,-3 0,-3 0,-3 0,-2 0,-2 0,-1 1,-2 0,-2 0,-2 1,-2 0,-2 0,-1 1,-2 2,-1 1,-1 1,-1 1,-1 1,-1 1,0 1,-1 2,-1 1,-1 2,-1 2,-1 1,0 2,-1 1,0 2,0 2,-1 2,0 2,-1 2,-1 2,-1 2,0 3,0 4,-1 5,0 4,-1 4,-1 4,-1 3,-1 3,-1 2,-1 0,0 1,-2 1,-1 0,0 0,-3 0,-2 -1,-2 -1,-2 -1,-2 -1,-2 -1,-1 -1,-1 -2,-1 -2,-2 -2,-1 -2,-1 -3,0 -2,-1 -3,0 -3,0 -3,0 -3,0 -2,1 -3,0 -2,1 -1,0 -2,1 -1,1 -1,1 -2,1 -1,2 -1,2 -1,2 -1,2 0,2 -1,2 -18,-2 0,-2 0,-2 1,-3 1,-2 1,-2 1,-2 1,-2 1,-1 1,-2 2,-2 2,-2 2,-1 2,-2 3,-1 2,-2 2,-1 3,0 3,-1 3,-1 3,0 3,-1 4,0 3,-1 3,0 3,0 3,1 3,0 3,1 3,0 2,1 2,1 2,0 2,1 1,1 2,1 2,1 2,2 1,1 1,1 1,1 1,1 1,1 1,1 1,2 1,2 1,2 0,1 1,2 0,1 0,1 0,2 1,2 0,2 0,3 1,2 0,3 0,23 0,6 0,4 0,5 0,4 0,3 0,3 0,3 0,1 0,2 0,2 1,2 1,2 1,2 1,1 1,2 1,2 -19,0 -1,-1 -2,-1 -1,-2 -1,-2 0,-1 -1,-2 0,-2 0,-2z" /><path style="fill:#e1e1d1" d="M514,270 l-3,1 -3,1 -3,1 -3,1 -4,1 -4,0 -4,1 -5,0 -2,0 -3,1 -2,1 -2,0 -2,1 -1,1 -2,0 -1,0 -1,1 -1,0 -1,1 0,0 -1,1 -1,1 0,0 -1,1 0,1 0,1 0,1 -1,1 0,1 -1,1 0,1 0,1 0,1 0,2 1,1 0,2 1,1 1,0 0,1 1,0 1,1 1,1 2,0 2,1 2,1 2,0 2,0 3,0 2,0 2,0 3,0 2,-1 2,-1 2,0 2,-1 1,-1 2,-1 2,-1 2,-1 1,-1 2,-2 2,-1 1,-2 1,-1 0,-1 0,-1 0,-2 1,-2 0,-2 0,-2 1,-2 0,-3 2,-6z" /><path style="fill:#666" d="M388,320 l0,-128 -48,0 0,-17 114,0 0,17 -48,0 0,128 -18,0z" /></svg>