<!DOCTYPE svg PUBLIC "-//W3C//DTD SVG 20000303 Stylable//EN" "http://www.w3.org/TR/2000/03/WD-SVG-20000303/DTD/svg-20000303-stylable.dtd"[]><svg xmlns="http://www.w3.org/2000/svg" width="999px" height="999px" viewBox="0 0 999 999"><path style="fill:#adad84" d="M61,999 l110,-94 656,0 32,-30 140,62 -62,62 -876,0z" /><path style="fill:#d7d7c2" d="M61,999 l110,-94 -32,-30 0,-798 -139,-16 0,876 61,62z" /><path style="fill:#ebebe1" d="M937,0 l-110,47 -656,0 -32,30 -139,-16 61,-61 876,0z" /><path style="fill:#d7d7c2" d="M937,0 l-110,47 32,30 0,798 140,62 0,-876 -62,-61z" /><path style="fill:none;stroke:#4c4c4c;stroke-width:2" d="M0,61 l61,-61 876,0 62,61 0,876 -62,62 -876,0 -61,-62 0,-876" /><path style="fill:#ebebe1;stroke:#adad84;stroke-width:2" d="M139,77 l32,-32 656,0 32,32 0,796 -32,32 -656,0 -32,-32 0,-796z" /><path style="fill:#e1e1d1" d="M531,671 l156,-234 124,-376 32,32 0,766 -32,30 -624,0 -32,-30 376,-188z" /><path style="fill:#e1e1d1" d="M311,125 l-62,62 -62,218 -32,-30 0,-282 32,-32 280,0 32,32 -188,32z" /><path style="fill:none;stroke:#fff;stroke-width:2" d="M139,873 l0,-796 32,-32 656,0" /><path style="fill:#666" d="M349,502 l0,-10 0,-9 1,-10 0,-9 1,-9 1,-9 0,-9 1,-8 1,-8 1,-8 1,-8 1,-7 1,-8 2,-7 1,-6 1,-6 3,-7 2,-6 3,-6 3,-6 3,-6 3,-5 4,-6 3,-5 4,-6 3,-4 4,-5 3,-4 4,-4 4,-4 3,-2 4,-3 4,-3 4,-2 4,-3 5,-2 5,-2 5,-3 5,-2 6,-1 5,-2 6,-2 6,-1 6,-1 6,-1 6,-1 6,0 6,-1 5,0 5,1 5,0 5,0 5,1 4,1 5,0 4,1 4,1 4,1 4,1 4,2 3,1 4,1 3,1 2,1 4,3 3,3 4,3 4,2 3,3 3,3 4,3 3,3 3,4 3,3 3,3 2,3 2,2 2,3 2,3 1,3 3,2 2,3 3,3 2,4 2,3 3,4 2,4 2,4 2,5 2,4 2,5 2,5 1,4 2,5 1,5 2,5 1,5 1,6 1,6 2,6 1,7 1,7 1,7 1,7 1,8 1,7 0,8 1,8 1,7 0,8 0,8 0,7 0,10 0,9 0,10 -1,9 -1,9 0,9 -2,8 -1,9 -1,8 -1,8 -2,8 -2,7 -2,8 -2,6 -2,7 -3,6 -2,7 -3,5 -3,6 -3,6 -3,5 -3,5 -3,5 -3,5 -4,5 -3,4 -4,4 -4,4 -3,3 -4,3 -3,3 -4,3 -4,2 -4,3 -4,2 -5,2 -5,3 -5,2 -6,2 -5,2 -6,2 -5,1 -6,2 -6,1 -6,1 -6,1 -6,0 -7,0 -7,0 -7,0 -8,-1 -7,-1 -7,-2 -7,-1 -7,-3 -7,-2 -7,-2 -6,-3 -7,-3 -6,-4 -6,-4 -6,-4 -5,-4 -5,-5 -3,-4 -2,-4 -2,-4 -2,-4 -3,-5 -2,-4 -2,-5 -2,-5 -2,-5 -2,-5 -2,-5 -2,-6 -2,-5 -1,-6 -2,-5 -2,-6 -1,-7 -2,-6 -1,-6 -1,-6 -1,-7 -1,-7 -2,-7 0,-7 -1,-7 -1,-7 -1,-7 0,-8 0,-7 -1,-8 0,-8 0,-8z" /><path style="fill:#ebebe1" d="M409,502 l0,13 0,13 1,13 1,12 1,11 1,10 2,11 2,9 2,9 2,8 2,8 2,7 2,6 3,5 2,5 2,4 3,4 3,3 3,4 4,3 3,3 4,3 4,2 4,2 5,2 4,2 5,2 5,1 5,1 5,1 4,0 5,0 5,0 5,0 5,-1 5,-1 5,-1 4,-2 5,-2 4,-2 4,-2 4,-2 4,-3 4,-3 3,-3 4,-4 3,-3 2,-4 4,-4 3,-5 4,-5 2,-6 3,-7 3,-8 3,-8 2,-9 2,-9 2,-11 1,-10 2,-11 1,-12 0,-13 1,-13 0,-13 0,-13 -1,-13 0,-13 -1,-11 -2,-12 -1,-10 -1,-11 -2,-9 -2,-9 -2,-8 -2,-8 -3,-7 -2,-6 -2,-6 -3,-5 -2,-4 -4,-5 -4,-4 -4,-4 -4,-4 -4,-4 -5,-3 -4,-3 -5,-2 -5,-3 -5,-2 -4,-2 -5,-1 -5,-1 -5,-1 -5,0 -5,0 -5,0 -4,0 -5,1 -5,1 -5,1 -5,2 -4,2 -5,2 -4,2 -4,3 -4,2 -3,3 -4,3 -3,4 -3,3 -3,4 -1,2 -1,3 -1,3 -1,3 -1,3 -2,3 -1,4 -1,3 -1,4 -1,4 -1,4 -1,4 -1,4 -1,5 -1,4 -1,5 -1,5 -1,5 -1,5 -1,5 0,6 -1,5 -1,6 0,6 -1,5 0,6 0,7 -1,6 0,6 0,7 0,6 0,7z" /></svg>