<!DOCTYPE svg PUBLIC "-//W3C//DTD SVG 20000303 Stylable//EN" "http://www.w3.org/TR/2000/03/WD-SVG-20000303/DTD/svg-20000303-stylable.dtd"[]><svg xmlns="http://www.w3.org/2000/svg" width="625px" height="999px" viewBox="0 0 603 999"><path style="fill:#fff;fill-rule:evenodd" d="M190,534 l-2,3 -3,3 -3,5 -4,5 -4,6 -5,7 -5,7 -4,7 -4,8 -4,8 -4,8 -2,7 -2,8 -1,7 1,7 2,6 1,2 -1,3 -2,2 -3,3 -4,2 -5,1 -6,2 -5,1 -6,0 -6,0 -5,-1 -4,-2 -4,-2 -3,-3 -1,-4 0,-4 1,-8 2,-7 2,-7 3,-6 3,-7 3,-5 4,-5 3,-5 4,-5 4,-4 4,-4 4,-4 4,-4 3,-3 3,-3 3,-3 3,-3 4,-3 4,-4 4,-3 5,-3 4,-3 5,-2 4,-2 4,-2 4,-2 3,-1 2,0 2,0 1,1 0,2 -1,3z M364,31 l0,-1 0,1 -1,0 -2,1 -2,1 -2,1 -3,1 -3,2 -4,1 -5,2 -5,1 -6,1 -7,1 -7,1 -9,0 -9,1 -7,0 -6,0 -7,0 -6,-1 -5,-1 -5,-1 -5,-1 -4,-2 -3,-1 -3,-2 -3,-1 -2,-1 -2,-1 -1,0 -1,-1 0,0 0,408 -1,6 -2,5 -3,5 -4,4 -5,4 -6,4 -7,4 -8,3 -8,4 -9,3 -10,4 -9,4 -11,5 -10,4 -11,6 -10,5 -11,7 -11,7 -10,7 -10,9 -10,9 -10,11 -9,11 -8,13 -8,13 -7,15 -6,16 -5,18 -4,19 -4,21 -2,22 0,24 0,15 0,14 2,14 2,14 3,13 3,13 4,12 4,12 5,12 6,11 6,11 7,10 8,11 8,9 8,9 9,9 10,8 10,7 11,8 11,6 12,7 12,5 13,5 13,5 13,4 15,3 14,4 15,2 16,2 16,1 16,1 17,0 17,0 17,-1 16,-1 16,-3 15,-2 15,-3 14,-4 14,-4 13,-4 13,-6 12,-5 12,-7 12,-6 10,-7 11,-8 9,-8 10,-9 8,-9 8,-10 8,-10 7,-10 6,-11 6,-12 5,-11 5,-13 4,-12 3,-13 3,-14 3,-14 1,-14 1,-15 0,-15 0,-23 -2,-22 -3,-20 -4,-19 -6,-17 -6,-16 -7,-14 -7,-13 -9,-12 -9,-11 -9,-10 -10,-9 -10,-9 -11,-7 -10,-7 -11,-6 -11,-5 -11,-5 -10,-5 -10,-4 -10,-4 -10,-4 -8,-4 -9,-3 -8,-4 -7,-4 -6,-4 -5,-4 -4,-4 -3,-5 -2,-6 -1,-6 0,-21 0,-21 0,-20 0,-20 0,-18 0,-18 0,-17 0,-17 0,-16 0,-15 0,-15 0,-14 0,-14 0,-13 0,-12 0,-12 0,-12 0,-11 0,-11 0,-11 0,-10 0,-9 0,-10 0,-9 0,-9 0,-9 0,-8 0,-8 0,-8 0,-8 0,-8 0,-7z M231,425 l0,-15 0,-14 0,-14 0,-12 0,-12 0,-12 0,-11 0,-11 0,-10 0,-10 0,-10 0,-10 0,-9 0,-10 0,-9 0,-10 0,-10 0,-10 0,-10 0,-10 0,-11 0,-11 0,-12 0,-13 0,-13 0,-13 0,-15 0,-15 0,-16 0,-17 0,-18 0,-20 0,0 0,-1 0,-2 1,-2 1,-3 2,-3 2,-3 3,-3 4,-3 4,-3 6,-2 7,-3 7,-2 9,-1 11,-1 11,0 12,0 11,0 9,1 8,2 7,2 6,2 4,3 4,3 3,3 3,3 1,3 1,3 1,2 1,2 0,2 0,1 0,1 0,3 0,4 0,5 0,6 0,7 1,8 0,10 0,10 0,11 0,12 0,13 0,13 0,14 0,14 -1,15 0,15 0,16 0,15 0,16 0,17 0,16 0,16 0,16 0,16 0,16 0,16 0,15 0,15 0,14 0,14 0,14 0,8 2,7 3,7 5,6 5,6 6,5 7,4 8,4 8,4 9,4 10,4 10,4 10,4 11,5 11,5 11,5 10,5 11,7 11,7 10,8 10,9 10,10 9,11 9,13 8,13 7,15 6,17 5,18 5,20 3,21 2,24 1,25 -1,16 0,15 -2,15 -2,14 -3,14 -4,14 -4,13 -5,12 -5,12 -6,12 -7,11 -7,11 -8,10 -8,10 -9,10 -9,9 -10,8 -11,8 -11,7 -12,7 -12,7 -12,5 -14,6 -13,4 -14,4 -15,4 -15,3 -16,3 -16,2 -16,1 -17,1 -17,1 -18,-1 -17,0 -16,-2 -16,-1 -16,-3 -15,-3 -14,-4 -14,-4 -14,-5 -13,-5 -13,-6 -12,-6 -12,-7 -11,-7 -10,-8 -10,-9 -10,-9 -9,-9 -8,-10 -8,-10 -7,-11 -7,-11 -6,-12 -6,-12 -4,-13 -5,-13 -3,-14 -3,-14 -3,-14 -1,-15 -1,-15 0,-16 0,-25 2,-23 4,-21 4,-20 5,-18 7,-16 7,-15 7,-14 9,-12 9,-11 10,-10 10,-10 10,-8 10,-7 11,-7 11,-6 11,-6 10,-5 11,-4 10,-5 10,-4 9,-4 9,-4 9,-4 8,-5 7,-4 6,-5 5,-5 4,-6 3,-6 2,-8 1,-7z M302,5 l5,0 5,1 5,0 5,1 6,0 4,1 5,1 4,1 4,1 3,2 3,1 2,1 2,1 2,2 1,1 0,2 0,2 -1,1 -2,2 -2,2 -3,1 -3,2 -3,1 -4,1 -4,2 -5,1 -5,0 -5,1 -5,1 -6,0 -5,1 -6,0 -5,0 -6,-1 -5,0 -5,-1 -5,0 -5,-1 -4,-1 -4,-1 -4,-1 -3,-1 -3,-1 -3,-1 -2,-2 -1,-2 -1,-1 -1,-2 1,-1 1,-2 1,-2 2,-1 3,-2 3,-1 4,-1 4,-2 4,-1 5,-1 5,-1 5,-1 5,-1 5,0 6,0 6,-1z " /><path style="fill:none;stroke:#4c4c4c;stroke-width:2" d="M190,534 l-2,3 -3,3 -3,5 -4,5 -4,6 -5,7 -5,7 -4,7 -4,8 -4,8 -4,8 -2,7 -2,8 -1,7 1,7 2,6 1,2 -1,3 -2,2 -3,3 -4,2 -5,1 -6,2 -5,1 -6,0 -6,0 -5,-1 -4,-2 -4,-2 -3,-3 -1,-4 0,-4 1,-8 2,-7 2,-7 3,-6 3,-7 3,-5 4,-5 3,-5 4,-5 4,-4 4,-4 4,-4 4,-4 3,-3 3,-3 3,-3 3,-3 4,-3 4,-4 4,-3 5,-3 4,-3 5,-2 4,-2 4,-2 4,-2 3,-1 2,0 2,0 1,1 0,2 -1,3" /><path style="fill:none;stroke:#4c4c4c;stroke-width:2" d="M364,31 l0,-1 0,1 -1,0 -2,1 -2,1 -2,1 -3,1 -3,2 -4,1 -5,2 -5,1 -6,1 -7,1 -7,1 -9,0 -9,1 -7,0 -6,0 -7,0 -6,-1 -5,-1 -5,-1 -5,-1 -4,-2 -3,-1 -3,-2 -3,-1 -2,-1 -2,-1 -1,0 -1,-1 0,0 0,408 -1,6 -2,5 -3,5 -4,4 -5,4 -6,4 -7,4 -8,3 -8,4 -9,3 -10,4 -9,4 -11,5 -10,4 -11,6 -10,5 -11,7 -11,7 -10,7 -10,9 -10,9 -10,11 -9,11 -8,13 -8,13 -7,15 -6,16 -5,18 -4,19 -4,21 -2,22 0,24 0,15 0,14 2,14 2,14 3,13 3,13 4,12 4,12 5,12 6,11 6,11 7,10 8,11 8,9 8,9 9,9 10,8 10,7 11,8 11,6 12,7 12,5 13,5 13,5 13,4 15,3 14,4 15,2 16,2 16,1 16,1 17,0 17,0 17,-1 16,-1 16,-3 15,-2 15,-3 14,-4 14,-4 13,-4 13,-6 12,-5 12,-7 12,-6 10,-7 11,-8 9,-8 10,-9 8,-9 8,-10 8,-10 7,-10 6,-11 6,-12 5,-11 5,-13 4,-12 3,-13 3,-14 3,-14 1,-14 1,-15 0,-15 0,-23 -2,-22 -3,-20 -4,-19 -6,-17 -6,-16 -7,-14 -7,-13 -9,-12 -9,-11 -9,-10 -10,-9 -10,-9 -11,-7 -10,-7 -11,-6 -11,-5 -11,-5 -10,-5 -10,-4 -10,-4 -10,-4 -8,-4 -9,-3 -8,-4 -7,-4 -6,-4 -5,-4 -4,-4 -3,-5 -2,-6 -1,-6 0,-21 0,-21 0,-20 0,-20 0,-18 0,-18 0,-17 0,-17 0,-16 0,-15 0,-15 0,-14 0,-14 0,-13 0,-12 0,-12 0,-12 0,-11 0,-11 0,-11 0,-10 0,-9 0,-10 0,-9 0,-9 0,-9 0,-8 0,-8 0,-8 0,-8 0,-8 0,-7" /><path style="fill:none;stroke:#4c4c4c;stroke-width:2" d="M231,425 l0,-15 0,-14 0,-14 0,-12 0,-12 0,-12 0,-11 0,-11 0,-10 0,-10 0,-10 0,-10 0,-9 0,-10 0,-9 0,-10 0,-10 0,-10 0,-10 0,-10 0,-11 0,-11 0,-12 0,-13 0,-13 0,-13 0,-15 0,-15 0,-16 0,-17 0,-18 0,-20 0,0 0,-1 0,-2 1,-2 1,-3 2,-3 2,-3 3,-3 4,-3 4,-3 6,-2 7,-3 7,-2 9,-1 11,-1 11,0 12,0 11,0 9,1 8,2 7,2 6,2 4,3 4,3 3,3 3,3 1,3 1,3 1,2 1,2 0,2 0,1 0,1 0,3 0,4 0,5 0,6 0,7 1,8 0,10 0,10 0,11 0,12 0,13 0,13 0,14 0,14 -1,15 0,15 0,16 0,15 0,16 0,17 0,16 0,16 0,16 0,16 0,16 0,16 0,15 0,15 0,14 0,14 0,14 0,8 2,7 3,7 5,6 5,6 6,5 7,4 8,4 8,4 9,4 10,4 10,4 10,4 11,5 11,5 11,5 10,5 11,7 11,7 10,8 10,9 10,10 9,11 9,13 8,13 7,15 6,17 5,18 5,20 3,21 2,24 1,25 -1,16 0,15 -2,15 -2,14 -3,14 -4,14 -4,13 -5,12 -5,12 -6,12 -7,11 -7,11 -8,10 -8,10 -9,10 -9,9 -10,8 -11,8 -11,7 -12,7 -12,7 -12,5 -14,6 -13,4 -14,4 -15,4 -15,3 -16,3 -16,2 -16,1 -17,1 -17,1 -18,-1 -17,0 -16,-2 -16,-1 -16,-3 -15,-3 -14,-4 -14,-4 -14,-5 -13,-5 -13,-6 -12,-6 -12,-7 -11,-7 -10,-8 -10,-9 -10,-9 -9,-9 -8,-10 -8,-10 -7,-11 -7,-11 -6,-12 -6,-12 -4,-13 -5,-13 -3,-14 -3,-14 -3,-14 -1,-15 -1,-15 0,-16 0,-25 2,-23 4,-21 4,-20 5,-18 7,-16 7,-15 7,-14 9,-12 9,-11 10,-10 10,-10 10,-8 10,-7 11,-7 11,-6 11,-6 10,-5 11,-4 10,-5 10,-4 9,-4 9,-4 9,-4 8,-5 7,-4 6,-5 5,-5 4,-6 3,-6 2,-8 1,-7" /><ellipse style="fill:none;stroke:#4c4c4c;stroke-width:2" cx="300" cy="22" rx="58" ry="17" /></svg>