<!DOCTYPE svg PUBLIC "-//W3C//DTD SVG 20000303 Stylable//EN" "http://www.w3.org/TR/2000/03/WD-SVG-20000303/DTD/svg-20000303-stylable.dtd"[]><svg xmlns="http://www.w3.org/2000/svg" width="908px" height="999px" viewBox="0 0 903 999"><path style="fill:#fff;fill-rule:evenodd" d="M860,54 l-6,0 -6,2 -6,1 -5,2 -5,3 -3,2 -2,3 -1,3 0,880 -2,7 -6,6 -11,6 -13,5 -17,5 -20,4 -23,3 -25,3 -28,3 -29,2 -31,2 -33,1 -33,1 -34,0 -35,1 -35,-1 -35,-1 -35,-1 -35,-1 -33,-2 -32,-2 -31,-2 -30,-3 -27,-3 -25,-3 -23,-4 -20,-3 -17,-4 -14,-5 -10,-4 -6,-5 -2,-5 0,-878 0,-1 0,0 -1,-1 0,-2 -1,-1 -1,-2 -1,-2 -2,-1 -1,-1 -2,-2 -3,-2 -3,-1 -5,-2 -5,-2 -6,-2 -8,-1 -4,0 -5,-1 -4,0 -3,-1 -4,-1 -3,-1 -3,-1 -2,-1 -2,-2 -2,-1 -2,-1 -1,-1 -1,-1 -1,0 0,-1 0,0 0,-2 2,-2 3,-2 4,-2 5,-1 6,-2 7,-2 8,-2 9,-1 10,-2 11,-1 12,-2 12,-1 13,-2 15,-1 14,-1 16,-1 16,-1 17,-1 18,-1 18,-1 19,-1 19,-1 20,-1 20,0 21,-1 22,0 22,-1 22,0 23,0 23,0 23,0 23,0 23,0 23,0 22,0 22,1 22,0 21,1 20,1 20,0 20,1 19,1 18,1 18,1 17,1 17,2 16,1 15,1 14,1 13,2 13,1 12,2 11,1 10,2 9,1 8,2 7,1 6,2 5,2 4,1 3,2 1,2 1,2 -1,0 0,1 -1,1 0,2 -2,1 -1,1 -2,2 -2,1 -3,1 -3,2 -4,1 -3,1 -5,1 -5,1 -5,1 -6,1z M816,949 l0,-863 0,-2 0,-3 0,-4 0,-4 0,-4 0,-4 0,-2 0,-1 -25,0 -25,1 -24,1 -24,1 -22,0 -22,1 -21,0 -21,1 -20,0 -20,0 -20,1 -20,0 -19,0 -20,0 -19,1 -19,0 -20,0 -20,0 -20,0 -20,0 -21,0 -22,-1 -22,0 -22,0 -24,0 -24,-1 -25,0 -26,-1 -27,0 -28,-1 -29,0 -31,-1 -2,0 -1,1 -1,1 0,2 0,4 0,4 0,5 0,7 -2,855 1,2 1,1 3,2 4,2 5,2 6,2 7,2 7,2 9,2 9,2 11,2 11,1 11,2 13,2 13,1 14,2 14,1 15,2 15,1 15,1 16,2 17,0 16,1 18,1 17,1 17,0 18,1 18,0 18,0 18,0 17,0 18,0 31,0 29,0 27,0 25,-1 23,0 22,-1 20,-1 18,-1 17,-1 16,-1 14,-1 13,-1 12,-2 10,-1 10,-2 8,-1 7,-2 7,-1 5,-2 5,-1 4,-2 3,-1 3,-2 2,-1 2,-2 1,-1 1,-1 1,-1 0,-1 0,-1 0,0 0,-1z M132,126 l1,-2 1,-2 2,-2 3,-1 3,-1 3,-1 4,0 4,0 4,0 3,1 4,1 3,1 3,1 2,1 2,2 1,2 0,1 0,1 0,2 0,3 1,2 0,4 0,3 1,4 0,4 0,5 0,4 1,5 0,6 0,5 0,6 1,6 0,7 0,6 0,7 1,7 0,7 0,7 0,7 0,8 0,7 0,8 0,7 0,8 -1,7 0,8 0,8 0,7 -1,4 -1,1 -3,1 -3,-1 -3,-2 -3,-2 -4,-4 -3,-4 -4,-5 -4,-5 -3,-5 -3,-5 -3,-6 -2,-5 -2,-4 0,-4 -5,-131z M285,659 l16,1 17,0 16,1 16,0 16,0 17,1 16,0 16,0 17,1 16,0 16,0 17,0 16,0 16,1 17,0 16,0 16,0 17,0 16,-1 17,0 16,0 16,0 17,0 17,-1 16,0 17,0 16,-1 17,0 16,0 17,-1 16,0 17,-1 0,6 -17,1 -16,0 -17,1 -16,1 -16,0 -16,1 -16,0 -17,1 -16,0 -16,0 -16,0 -16,1 -16,0 -16,0 -16,0 -16,0 -16,0 -16,0 -16,0 -16,0 -17,-1 -16,0 -16,0 -17,0 -17,-1 -16,0 -17,-1 -17,0 -17,-1 -17,-1 -17,0 -18,-1 0,-6z M283,739 l16,1 17,0 16,1 16,0 16,1 17,0 16,0 16,1 17,0 16,0 16,1 17,0 16,0 16,0 17,0 16,0 17,0 16,0 17,0 16,0 16,0 17,-1 16,0 17,0 16,-1 17,0 16,0 17,-1 16,0 17,-1 16,0 17,-1 0,7 -17,0 -16,1 -16,0 -17,1 -16,1 -16,0 -16,1 -16,0 -16,0 -16,1 -16,0 -16,0 -17,0 -16,0 -16,1 -16,0 -16,0 -16,-1 -16,0 -16,0 -16,0 -17,0 -16,-1 -17,0 -16,0 -17,-1 -17,0 -17,-1 -17,-1 -17,0 -17,-1 -18,0 0,-7z M289,363 l17,1 16,0 16,1 16,0 16,1 17,0 16,0 16,1 16,0 17,0 16,1 16,0 17,0 16,0 17,0 16,0 16,0 17,0 16,0 17,0 16,0 17,-1 16,0 17,0 16,-1 17,0 16,0 17,-1 16,0 17,-1 16,0 17,-1 0,5 -16,0 -17,1 -16,1 -17,1 -16,1 -16,0 -16,1 -16,0 -16,0 -16,1 -17,0 -16,1 -16,0 -16,0 -16,0 -16,0 -16,0 -16,0 -16,0 -16,0 -16,-1 -17,0 -16,-1 -17,0 -16,0 -17,-1 -17,0 -17,-1 -17,-1 -17,-1 -17,-1 -18,0 0,-5z M287,432 l17,1 16,0 16,1 16,0 17,1 16,0 16,1 17,0 16,1 16,0 17,0 16,0 17,0 16,1 16,0 17,0 16,0 17,0 16,-1 17,0 16,0 17,0 16,0 17,-1 16,0 16,-1 17,0 16,-1 17,0 16,-1 17,0 16,-1 0,6 -16,0 -17,1 -16,1 -16,0 -16,1 -16,0 -16,1 -17,0 -16,0 -16,1 -16,0 -16,0 -16,1 -16,0 -16,0 -16,0 -16,0 -16,0 -16,0 -17,-1 -16,0 -16,0 -17,-1 -16,0 -17,0 -17,-1 -17,0 -17,-1 -17,0 -17,-1 -17,-1 -18,0 0,-6z M287,500 l17,1 16,1 16,0 16,1 17,0 16,1 16,0 16,1 17,0 16,0 16,0 17,1 16,0 16,0 17,0 16,0 17,0 16,0 16,0 17,0 16,-1 17,0 16,0 17,0 16,-1 17,0 16,-1 17,0 16,-1 17,0 16,-1 17,-1 0,6 -16,1 -17,1 -16,0 -17,1 -16,0 -16,1 -17,0 -16,1 -16,0 -16,0 -16,1 -16,0 -16,0 -16,0 -16,0 -17,0 -16,0 -16,0 -16,0 -16,0 -16,0 -17,-1 -16,0 -17,0 -16,-1 -17,0 -16,-1 -17,0 -17,-1 -17,0 -17,-1 -18,-1 0,-6z M285,579 l16,0 17,1 16,0 16,1 16,0 17,0 16,1 16,0 17,0 16,1 16,0 17,0 16,0 16,0 17,0 16,0 16,0 17,0 16,0 17,0 16,0 16,0 17,-1 17,0 16,0 17,-1 16,0 17,0 16,-1 17,0 16,-1 17,0 0,6 -17,0 -16,1 -17,1 -16,0 -16,1 -17,0 -16,1 -16,0 -16,1 -16,0 -16,0 -16,0 -16,0 -16,1 -16,0 -17,0 -16,0 -16,0 -16,-1 -16,0 -17,0 -16,0 -16,0 -17,-1 -16,0 -17,-1 -17,0 -16,-1 -17,0 -17,-1 -17,-1 -18,0 0,-6z M450,9 l22,0 21,0 22,1 21,0 20,0 21,0 20,1 19,1 19,0 19,1 18,1 18,0 17,1 17,1 16,1 15,1 14,1 14,1 13,1 13,1 11,1 11,1 10,1 8,1 9,2 6,1 6,1 6,1 3,1 3,1 2,1 1,2 -1,1 -2,1 -3,1 -3,1 -6,1 -6,1 -6,1 -9,0 -8,1 -10,1 -11,1 -11,1 -13,0 -13,1 -14,0 -14,1 -15,1 -16,0 -17,1 -17,0 -18,1 -18,0 -19,0 -19,0 -19,1 -20,0 -21,0 -20,0 -21,0 -22,1 -21,0 -22,0 -22,0 -22,0 -21,-1 -22,0 -20,0 -21,0 -20,0 -19,-1 -19,0 -19,0 -18,0 -18,-1 -16,0 -17,-1 -15,0 -15,-1 -15,-1 -13,0 -13,-1 -12,0 -11,-1 -10,-1 -10,-1 -9,-1 -7,0 -7,-1 -6,-1 -5,-1 -3,-1 -3,-1 -2,-1 -1,-1 1,-2 2,-1 3,-1 3,-2 5,-1 6,-1 7,-1 7,-2 9,-1 10,-1 10,-1 11,-1 12,-1 13,-1 13,-1 15,-1 15,-1 15,-1 17,0 16,-1 18,-1 18,-1 19,0 19,-1 19,0 20,-1 21,0 20,0 22,-1 21,0 22,0 22,0z M46,36 l42,1 12,-1 12,-1 12,-1 13,0 13,-1 14,-1 13,-1 14,0 15,-1 15,0 15,-1 15,0 15,-1 15,0 16,0 15,-1 16,0 16,0 16,0 16,0 16,0 15,0 16,0 15,0 16,0 15,0 15,0 15,0 15,0 15,0 14,0 14,0 14,0 15,0 14,0 13,1 13,0 13,0 13,0 12,1 11,0 11,1 11,0 11,0 9,1 10,0 9,1 8,0 8,1 8,0 7,1 7,0 6,1 5,0 6,1 4,0 5,0 3,1 3,0 3,0 2,0 1,0 2,0 0,0 33,-1 -1,-1 -3,0 -5,0 -7,-1 -10,-1 -11,-1 -13,-1 -15,-1 -17,-1 -19,-2 -20,-1 -22,-1 -23,-1 -25,-1 -26,-2 -27,-1 -29,-1 -29,0 -31,-1 -32,0 -33,0 -34,0 -34,0 -35,1 -36,0 -37,2 -37,1 -37,2 -38,2 -38,3 -39,3 -38,4z " /><path style="fill:none;stroke:#4c4c4c;stroke-width:2" d="M860,54 l-6,0 -6,2 -6,1 -5,2 -5,3 -3,2 -2,3 -1,3 0,880 -2,7 -6,6 -11,6 -13,5 -17,5 -20,4 -23,3 -25,3 -28,3 -29,2 -31,2 -33,1 -33,1 -34,0 -35,1 -35,-1 -35,-1 -35,-1 -35,-1 -33,-2 -32,-2 -31,-2 -30,-3 -27,-3 -25,-3 -23,-4 -20,-3 -17,-4 -14,-5 -10,-4 -6,-5 -2,-5 0,-878 0,-1 0,0 -1,-1 0,-2 -1,-1 -1,-2 -1,-2 -2,-1 -1,-1 -2,-2 -3,-2 -3,-1 -5,-2 -5,-2 -6,-2 -8,-1 -4,0 -5,-1 -4,0 -3,-1 -4,-1 -3,-1 -3,-1 -2,-1 -2,-2 -2,-1 -2,-1 -1,-1 -1,-1 -1,0 0,-1 0,0 0,-2 2,-2 3,-2 4,-2 5,-1 6,-2 7,-2 8,-2 9,-1 10,-2 11,-1 12,-2 12,-1 13,-2 15,-1 14,-1 16,-1 16,-1 17,-1 18,-1 18,-1 19,-1 19,-1 20,-1 20,0 21,-1 22,0 22,-1 22,0 23,0 23,0 23,0 23,0 23,0 23,0 22,0 22,1 22,0 21,1 20,1 20,0 20,1 19,1 18,1 18,1 17,1 17,2 16,1 15,1 14,1 13,2 13,1 12,2 11,1 10,2 9,1 8,2 7,1 6,2 5,2 4,1 3,2 1,2 1,2 -1,0 0,1 -1,1 0,2 -2,1 -1,1 -2,2 -2,1 -3,1 -3,2 -4,1 -3,1 -5,1 -5,1 -5,1 -6,1" /><path style="fill:none;stroke:#4c4c4c;stroke-width:2" d="M816,949 l0,-863 0,-2 0,-3 0,-4 0,-4 0,-4 0,-4 0,-2 0,-1 -25,0 -25,1 -24,1 -24,1 -22,0 -22,1 -21,0 -21,1 -20,0 -20,0 -20,1 -20,0 -19,0 -20,0 -19,1 -19,0 -20,0 -20,0 -20,0 -20,0 -21,0 -22,-1 -22,0 -22,0 -24,0 -24,-1 -25,0 -26,-1 -27,0 -28,-1 -29,0 -31,-1 -2,0 -1,1 -1,1 0,2 0,4 0,4 0,5 0,7 -2,855 1,2 1,1 3,2 4,2 5,2 6,2 7,2 7,2 9,2 9,2 11,2 11,1 11,2 13,2 13,1 14,2 14,1 15,2 15,1 15,1 16,2 17,0 16,1 18,1 17,1 17,0 18,1 18,0 18,0 18,0 17,0 18,0 31,0 29,0 27,0 25,-1 23,0 22,-1 20,-1 18,-1 17,-1 16,-1 14,-1 13,-1 12,-2 10,-1 10,-2 8,-1 7,-2 7,-1 5,-2 5,-1 4,-2 3,-1 3,-2 2,-1 2,-2 1,-1 1,-1 1,-1 0,-1 0,-1 0,0 0,-1" /><path style="fill:none;stroke:#4c4c4c;stroke-width:2" d="M132,126 l1,-2 1,-2 2,-2 3,-1 3,-1 3,-1 4,0 4,0 4,0 3,1 4,1 3,1 3,1 2,1 2,2 1,2 0,1 0,1 0,2 0,3 1,2 0,4 0,3 1,4 0,4 0,5 0,4 1,5 0,6 0,5 0,6 1,6 0,7 0,6 0,7 1,7 0,7 0,7 0,7 0,8 0,7 0,8 0,7 0,8 -1,7 0,8 0,8 0,7 -1,4 -1,1 -3,1 -3,-1 -3,-2 -3,-2 -4,-4 -3,-4 -4,-5 -4,-5 -3,-5 -3,-5 -3,-6 -2,-5 -2,-4 0,-4 -5,-131" /><path style="fill:none;stroke:#4c4c4c;stroke-width:2" d="M285,659 l16,1 17,0 16,1 16,0 16,0 17,1 16,0 16,0 17,1 16,0 16,0 17,0 16,0 16,1 17,0 16,0 16,0 17,0 16,-1 17,0 16,0 16,0 17,0 17,-1 16,0 17,0 16,-1 17,0 16,0 17,-1 16,0 17,-1 0,6 -17,1 -16,0 -17,1 -16,1 -16,0 -16,1 -16,0 -17,1 -16,0 -16,0 -16,0 -16,1 -16,0 -16,0 -16,0 -16,0 -16,0 -16,0 -16,0 -16,0 -17,-1 -16,0 -16,0 -17,0 -17,-1 -16,0 -17,-1 -17,0 -17,-1 -17,-1 -17,0 -18,-1 0,-6" /><path style="fill:none;stroke:#4c4c4c;stroke-width:2" d="M283,739 l16,1 17,0 16,1 16,0 16,1 17,0 16,0 16,1 17,0 16,0 16,1 17,0 16,0 16,0 17,0 16,0 17,0 16,0 17,0 16,0 16,0 17,-1 16,0 17,0 16,-1 17,0 16,0 17,-1 16,0 17,-1 16,0 17,-1 0,7 -17,0 -16,1 -16,0 -17,1 -16,1 -16,0 -16,1 -16,0 -16,0 -16,1 -16,0 -16,0 -17,0 -16,0 -16,1 -16,0 -16,0 -16,-1 -16,0 -16,0 -16,0 -17,0 -16,-1 -17,0 -16,0 -17,-1 -17,0 -17,-1 -17,-1 -17,0 -17,-1 -18,0 0,-7" /><path style="fill:none;stroke:#4c4c4c;stroke-width:2" d="M289,363 l17,1 16,0 16,1 16,0 16,1 17,0 16,0 16,1 16,0 17,0 16,1 16,0 17,0 16,0 17,0 16,0 16,0 17,0 16,0 17,0 16,0 17,-1 16,0 17,0 16,-1 17,0 16,0 17,-1 16,0 17,-1 16,0 17,-1 0,5 -16,0 -17,1 -16,1 -17,1 -16,1 -16,0 -16,1 -16,0 -16,0 -16,1 -17,0 -16,1 -16,0 -16,0 -16,0 -16,0 -16,0 -16,0 -16,0 -16,0 -16,-1 -17,0 -16,-1 -17,0 -16,0 -17,-1 -17,0 -17,-1 -17,-1 -17,-1 -17,-1 -18,0 0,-5" /><path style="fill:none;stroke:#4c4c4c;stroke-width:2" d="M287,432 l17,1 16,0 16,1 16,0 17,1 16,0 16,1 17,0 16,1 16,0 17,0 16,0 17,0 16,1 16,0 17,0 16,0 17,0 16,-1 17,0 16,0 17,0 16,0 17,-1 16,0 16,-1 17,0 16,-1 17,0 16,-1 17,0 16,-1 0,6 -16,0 -17,1 -16,1 -16,0 -16,1 -16,0 -16,1 -17,0 -16,0 -16,1 -16,0 -16,0 -16,1 -16,0 -16,0 -16,0 -16,0 -16,0 -16,0 -17,-1 -16,0 -16,0 -17,-1 -16,0 -17,0 -17,-1 -17,0 -17,-1 -17,0 -17,-1 -17,-1 -18,0 0,-6" /><path style="fill:none;stroke:#4c4c4c;stroke-width:2" d="M287,500 l17,1 16,1 16,0 16,1 17,0 16,1 16,0 16,1 17,0 16,0 16,0 17,1 16,0 16,0 17,0 16,0 17,0 16,0 16,0 17,0 16,-1 17,0 16,0 17,0 16,-1 17,0 16,-1 17,0 16,-1 17,0 16,-1 17,-1 0,6 -16,1 -17,1 -16,0 -17,1 -16,0 -16,1 -17,0 -16,1 -16,0 -16,0 -16,1 -16,0 -16,0 -16,0 -16,0 -17,0 -16,0 -16,0 -16,0 -16,0 -16,0 -17,-1 -16,0 -17,0 -16,-1 -17,0 -16,-1 -17,0 -17,-1 -17,0 -17,-1 -18,-1 0,-6" /><path style="fill:none;stroke:#4c4c4c;stroke-width:2" d="M285,579 l16,0 17,1 16,0 16,1 16,0 17,0 16,1 16,0 17,0 16,1 16,0 17,0 16,0 16,0 17,0 16,0 16,0 17,0 16,0 17,0 16,0 16,0 17,-1 17,0 16,0 17,-1 16,0 17,0 16,-1 17,0 16,-1 17,0 0,6 -17,0 -16,1 -17,1 -16,0 -16,1 -17,0 -16,1 -16,0 -16,1 -16,0 -16,0 -16,0 -16,0 -16,1 -16,0 -17,0 -16,0 -16,0 -16,-1 -16,0 -17,0 -16,0 -16,0 -17,-1 -16,0 -17,-1 -17,0 -16,-1 -17,0 -17,-1 -17,-1 -18,0 0,-6" /><ellipse style="fill:none;stroke:#4c4c4c;stroke-width:2" cx="452" cy="31" rx="433" ry="22" /><path style="fill:none;stroke:#4c4c4c;stroke-width:2" d="M46,36 l42,1 12,-1 12,-1 12,-1 13,0 13,-1 14,-1 13,-1 14,0 15,-1 15,0 15,-1 15,0 15,-1 15,0 16,0 15,-1 16,0 16,0 16,0 16,0 16,0 15,0 16,0 15,0 16,0 15,0 15,0 15,0 15,0 15,0 14,0 14,0 14,0 15,0 14,0 13,1 13,0 13,0 13,0 12,1 11,0 11,1 11,0 11,0 9,1 10,0 9,1 8,0 8,1 8,0 7,1 7,0 6,1 5,0 6,1 4,0 5,0 3,1 3,0 3,0 2,0 1,0 2,0 0,0 33,-1 -1,-1 -3,0 -5,0 -7,-1 -10,-1 -11,-1 -13,-1 -15,-1 -17,-1 -19,-2 -20,-1 -22,-1 -23,-1 -25,-1 -26,-2 -27,-1 -29,-1 -29,0 -31,-1 -32,0 -33,0 -34,0 -34,0 -35,1 -36,0 -37,2 -37,1 -37,2 -38,2 -38,3 -39,3 -38,4" /></svg>