<!DOCTYPE svg PUBLIC "-//W3C//DTD SVG 20000303 Stylable//EN" "http://www.w3.org/TR/2000/03/WD-SVG-20000303/DTD/svg-20000303-stylable.dtd"[]><svg xmlns="http://www.w3.org/2000/svg" width="283px" height="999px" viewBox="0 0 240 999"><path style="fill:#fff;fill-rule:evenodd" d="M37,56 l0,102 1,7 3,8 4,8 5,7 5,6 4,4 3,0 2,-5 1,-12 0,-11 0,-12 0,-12 0,-11 0,-11 0,-11 0,-10 0,-10 0,-8 -1,-8 0,-7 -1,-5 -1,-4 -1,-3 -1,-2 -3,-1 -4,-2 -4,-1 -4,-1 -3,0 -3,0 -2,2 0,3z M16,17 l9,0 24,-3 21,-2 20,-1 19,-1 17,-1 16,1 14,0 12,1 11,1 9,1 8,1 7,1 5,1 3,1 2,0 1,0 10,0 -1,0 -2,-1 -4,-1 -5,-1 -8,-1 -10,-2 -11,-1 -12,-2 -14,-1 -16,0 -17,0 -19,0 -21,2 -21,2 -23,2 -24,4z M123,4 l11,0 11,0 11,0 10,1 9,0 9,1 8,1 8,0 7,1 6,1 6,2 4,1 4,1 2,1 2,2 0,1 0,2 -2,1 -2,1 -4,2 -4,1 -5,1 -6,1 -7,1 -8,1 -8,0 -9,1 -10,1 -10,0 -10,0 -11,1 -12,0 -11,0 -12,-1 -11,0 -10,0 -10,-1 -9,-1 -9,0 -8,-1 -7,-1 -7,-1 -6,-1 -4,-1 -4,-2 -3,-1 -2,-1 0,-2 0,-1 2,-2 3,-1 4,-1 4,-1 6,-2 7,-1 7,-1 8,0 9,-1 9,-1 10,0 10,-1 11,0 12,0 11,0z M218,920 l-2,9 -2,8 -4,8 -4,7 -5,6 -6,6 -6,5 -6,4 -7,4 -8,4 -8,3 -8,2 -8,2 -9,1 -9,1 -8,0 -9,0 -8,-1 -9,-1 -9,-2 -8,-2 -8,-3 -7,-3 -8,-4 -6,-5 -6,-5 -6,-6 -4,-6 -4,-8 -2,-8 -2,-8 -1,-10 0,-19 0,-21 0,-21 0,-22 0,-22 0,-24 0,-24 0,-25 0,-26 0,-26 0,-27 0,-27 0,-27 0,-29 0,-28 0,-28 0,-30 0,-29 0,-29 0,-29 0,-30 0,-29 0,-29 0,-30 0,-29 0,-29 0,-29 0,-29 0,-28 0,-28 0,-28 0,-27 0,-3 1,-3 1,-4 1,-5 0,-4 1,-3 1,-2 1,-1 16,1 14,1 13,1 12,1 11,1 10,0 10,1 9,0 9,0 10,-1 9,0 10,-1 11,-1 12,-1 12,-1 15,-1 0,0 1,0 1,1 2,2 1,3 2,5 0,6 1,8 0,860z M231,9 l7,4 2,4 0,4 -3,4 -4,4 -4,4 -3,4 -1,4 0,883 -1,9 -3,9 -3,8 -4,7 -5,7 -6,6 -7,5 -7,5 -7,4 -8,4 -9,3 -8,3 -9,2 -9,1 -10,1 -9,1 -9,0 -9,-2 -9,-1 -9,-1 -9,-3 -8,-2 -9,-4 -8,-4 -7,-4 -7,-6 -6,-6 -5,-6 -5,-8 -3,-8 -2,-10 -1,-10 0,-20 0,-22 0,-23 0,-23 0,-24 0,-25 0,-25 0,-26 0,-26 0,-28 0,-27 0,-28 0,-29 0,-29 0,-29 0,-29 0,-30 0,-30 0,-30 0,-30 0,-30 0,-30 0,-30 0,-30 0,-30 0,-30 0,-29 0,-30 0,-28 0,-29 0,-29 0,-27 -1,-3 -3,-4 -4,-4 -4,-4 -2,-4 0,-4 3,-4 7,-3 1,0 3,-1 3,0 4,-1 5,-1 5,-1 6,0 7,-1 8,-1 8,-1 9,0 10,-1 10,-1 11,0 11,0 12,0 10,0 10,0 9,0 9,0 8,1 8,0 8,1 7,0 6,1 7,1 6,1 5,0 4,1 4,1 4,1 3,1z " /><path style="fill:none;stroke:#4c4c4c;stroke-width:2" d="M37,56 l0,102 1,7 3,8 4,8 5,7 5,6 4,4 3,0 2,-5 1,-12 0,-11 0,-12 0,-12 0,-11 0,-11 0,-11 0,-10 0,-10 0,-8 -1,-8 0,-7 -1,-5 -1,-4 -1,-3 -1,-2 -3,-1 -4,-2 -4,-1 -4,-1 -3,0 -3,0 -2,2 0,3" /><ellipse style="fill:none;stroke:#4c4c4c;stroke-width:2" cx="120" cy="12" rx="104" ry="5" /><ellipse style="fill:none;stroke:#4c4c4c;stroke-width:2" cx="120" cy="17" rx="110" ry="13" /><path style="fill:none;stroke:#4c4c4c;stroke-width:2" d="M218,920 l-2,9 -2,8 -4,8 -4,7 -5,6 -6,6 -6,5 -6,4 -7,4 -8,4 -8,3 -8,2 -8,2 -9,1 -9,1 -8,0 -9,0 -8,-1 -9,-1 -9,-2 -8,-2 -8,-3 -7,-3 -8,-4 -6,-5 -6,-5 -6,-6 -4,-6 -4,-8 -2,-8 -2,-8 -1,-10 0,-19 0,-21 0,-21 0,-22 0,-22 0,-24 0,-24 0,-25 0,-26 0,-26 0,-27 0,-27 0,-27 0,-29 0,-28 0,-28 0,-30 0,-29 0,-29 0,-29 0,-30 0,-29 0,-29 0,-30 0,-29 0,-29 0,-29 0,-29 0,-28 0,-28 0,-28 0,-27 0,-3 1,-3 1,-4 1,-5 0,-4 1,-3 1,-2 1,-1 16,1 14,1 13,1 12,1 11,1 10,0 10,1 9,0 9,0 10,-1 9,0 10,-1 11,-1 12,-1 12,-1 15,-1 0,0 1,0 1,1 2,2 1,3 2,5 0,6 1,8 0,860" /><path style="fill:none;stroke:#4c4c4c;stroke-width:2" d="M231,9 l7,4 2,4 0,4 -3,4 -4,4 -4,4 -3,4 -1,4 0,883 -1,9 -3,9 -3,8 -4,7 -5,7 -6,6 -7,5 -7,5 -7,4 -8,4 -9,3 -8,3 -9,2 -9,1 -10,1 -9,1 -9,0 -9,-2 -9,-1 -9,-1 -9,-3 -8,-2 -9,-4 -8,-4 -7,-4 -7,-6 -6,-6 -5,-6 -5,-8 -3,-8 -2,-10 -1,-10 0,-20 0,-22 0,-23 0,-23 0,-24 0,-25 0,-25 0,-26 0,-26 0,-28 0,-27 0,-28 0,-29 0,-29 0,-29 0,-29 0,-30 0,-30 0,-30 0,-30 0,-30 0,-30 0,-30 0,-30 0,-30 0,-30 0,-29 0,-30 0,-28 0,-29 0,-29 0,-27 -1,-3 -3,-4 -4,-4 -4,-4 -2,-4 0,-4 3,-4 7,-3 1,0 3,-1 3,0 4,-1 5,-1 5,-1 6,0 7,-1 8,-1 8,-1 9,0 10,-1 10,-1 11,0 11,0 12,0 10,0 10,0 9,0 9,0 8,1 8,0 8,1 7,0 6,1 7,1 6,1 5,0 4,1 4,1 4,1 3,1" /></svg>