<!DOCTYPE svg PUBLIC "-//W3C//DTD SVG 20000303 Stylable//EN" "http://www.w3.org/TR/2000/03/WD-SVG-20000303/DTD/svg-20000303-stylable.dtd"[]><svg xmlns="http://www.w3.org/2000/svg" width="999px" height="744px" viewBox="0 0 998 729"><path style="fill:#f0f0f0" d="M42,729 l-42,-62 19,-522 64,-62 332,-41 168,0 332,41 64,62 19,522 -42,62 -914,0z" /><path style="fill:#f2f2f2" d="M415,0 l168,0 0,42 -168,0 0,-42z" /><path style="fill:none;stroke:#ccc;stroke-width:2" d="M415,21 l168,0" /><path style="fill:#e5e5e5" d="M42,729 l-42,-62 998,0 -42,62 -914,0z" /><path style="fill:#f7f7f7" d="M19,145 l480,-20 480,20 -64,-62 -332,-41 -168,0 -332,41 -64,62z" /><path style="fill:none;stroke:#4c4c4c;stroke-width:2" d="M42,729 l-42,-62 19,-522 64,-62 332,-41 168,0 332,41 64,62 19,522 -42,62 -914,0" /><path style="fill:#d9d9d9" d="M83,167 l832,0 21,478 -874,0 21,-478z" /><path style="fill:#d4d4d4" d="M499,395 l-396,-228 792,0 -396,228z" /><path style="fill:#d4d4d4" d="M499,417 l-396,228 792,0 -396,-228z" /><path style="fill:#d4d4d4" d="M62,625 l395,-220 -374,-218 -21,438z" /><path style="fill:#d4d4d4" d="M936,625 l-395,-220 376,-218 19,438z" /><path style="fill:none;stroke:#7f7f7f;stroke-width:2" d="M62,645 l21,-478 832,0" /><path style="fill:none;stroke:#fff;stroke-width:2" d="M915,167 l21,478 -874,0" /><path style="fill:none;stroke:#ccc;stroke-width:2" d="M415,11 l168,0" /><path style="fill:none;stroke:#ccc;stroke-width:2" d="M415,31 l168,0" /><path style="fill:none;stroke:#4c4c4c;stroke-width:2" d="M415,0 l168,0 0,42 -168,0 0,-42" /></svg>