<!DOCTYPE svg PUBLIC "-//W3C//DTD SVG 20000303 Stylable//EN" "http://www.w3.org/TR/2000/03/WD-SVG-20000303/DTD/svg-20000303-stylable.dtd"[]><svg xmlns="http://www.w3.org/2000/svg" width="999px" height="999px" viewBox="0 0 999 999"><path style="fill:#f7f7f7;stroke:#4c4c4c;stroke-width:2" d="M999,999 l-999,0 0,-999 999,0 0,999z" /><path style="fill:#fff;stroke:#4c4c4c;stroke-width:2" d="M205,852 l-53,-54 242,-432 0,-243 -33,0 0,-36 276,0 0,36 -33,0 0,243 242,432 -50,54 -591,0z" /><path style="fill:#fc0" d="M248,818 l-46,-45 176,-302 242,0 176,302 -46,45 -502,0z" /><path style="fill:none;stroke:#4c4c4c;stroke-width:2" d="M394,123 l210,0" /><path style="fill:none;stroke:#4c4c4c;stroke-width:2" d="M394,191 l71,0" /><path style="fill:none;stroke:#4c4c4c;stroke-width:2" d="M394,262 l71,0" /><path style="fill:none;stroke:#4c4c4c;stroke-width:2" d="M394,330 l71,0" /><path style="fill:#fff" d="M394,530 l9,-20 17,-5 20,5 8,20 -8,20 -20,5 -17,-5 -9,-20z" /><path style="fill:#fff" d="M428,601 l9,-20 20,-9 17,9 8,20 -8,17 -17,8 -20,-8 -9,-17z" /><path style="fill:#fff" d="M361,652 l8,-17 17,-9 20,9 5,17 -5,19 -20,6 -17,-6 -8,-19z" /></svg>