<!DOCTYPE svg PUBLIC "-//W3C//DTD SVG 20000303 Stylable//EN" "http://www.w3.org/TR/2000/03/WD-SVG-20000303/DTD/svg-20000303-stylable.dtd"[]><svg xmlns="http://www.w3.org/2000/svg" width="763px" height="999px" viewBox="0 0 749 999"><path style="fill:#7f7f7f;stroke:#4c4c4c;stroke-width:2" d="M0,0 l749,0 -104,707 0,83 41,209 -624,0 42,-209 0,-83 -104,-707z" /><path style="fill:none;stroke:#4c4c4c;stroke-width:2" d="M104,707 l541,0" /><path style="fill:none;stroke:#4c4c4c;stroke-width:2" d="M645,790 l-541,0" /><path style="fill:#999;stroke:#4c4c4c;stroke-width:2" d="M93,978 l31,-167 500,0 31,167 -562,0z" /><path style="fill:#ccc;stroke:#4c4c4c;stroke-width:2" d="M104,973 l5,-26 531,0 5,26 -541,0z" /><path style="fill:#4c4c4c;stroke:#4c4c4c;stroke-width:2" d="M271,707 l207,0 0,281 -207,0 0,-281z" /><path style="fill:#b2b2b2;stroke:#4c4c4c;stroke-width:2" d="M307,879 l135,0 0,89 -135,0 0,-89z" /><path style="fill:#b2b2b2;stroke:#4c4c4c;stroke-width:2" d="M307,723 l135,0 0,52 -135,0 0,-52z" /><path style="fill:#000;stroke:#4c4c4c;stroke-width:2" d="M354,567 l41,0 0,208 -41,0 0,-208z" /><path style="fill:#666;stroke:#4c4c4c;stroke-width:2" d="M0,0 l749,0 0,25 -749,0 0,-25z" /><path style="fill:#ccc;stroke:#4c4c4c;stroke-width:2" d="M166,249 l21,-62 395,0 -21,62 -395,0z" /><path style="fill:none;stroke:#fff;stroke-width:2" d="M124,666 l-83,-604 666,0" /></svg>