<!DOCTYPE svg PUBLIC "-//W3C//DTD SVG 20000303 Stylable//EN" "http://www.w3.org/TR/2000/03/WD-SVG-20000303/DTD/svg-20000303-stylable.dtd"[]><svg xmlns="http://www.w3.org/2000/svg" width="606px" height="999px" viewBox="0 0 586 999"><path style="fill:#666;stroke:#4c4c4c;stroke-width:2" d="M108,705 l0,113 -62,165 494,0 -61,-165 0,-113 -371,0z" /><path style="fill:#595959" d="M108,705 l371,0 0,88 -371,0 0,-88z" /><path style="fill:#7f7f7f;stroke:#4c4c4c;stroke-width:2" d="M97,705 l-93,-701 577,0 -92,701 -392,0z" /><path style="fill:#787878" d="M97,700 l-36,-283 464,0 -36,283 -392,0z" /><path style="fill:#6e6e6e" d="M97,700 l-26,-206 443,0 -25,206 -392,0z" /><path style="fill:#666" d="M97,700 l-15,-129 422,0 -15,129 -392,0z" /><path style="fill:#4c4c4c;stroke:#4c4c4c;stroke-width:2" d="M46,983 l31,0 0,11 -31,0 0,-11z" /><path style="fill:#4c4c4c;stroke:#4c4c4c;stroke-width:2" d="M509,983 l31,0 0,11 -31,0 0,-11z" /><path style="fill:#7f7f7f;stroke:#4c4c4c;stroke-width:2" d="M190,705 l206,0 0,263 -206,0 0,-263z" /><path style="fill:#4c4c4c;stroke:#4c4c4c;stroke-width:2" d="M211,710 l164,0 0,242 -164,0 0,-242z" /><path style="fill:#b2b2b2;stroke:#4c4c4c;stroke-width:2" d="M221,715 l144,0 0,52 -144,0 0,-52z" /><path style="fill:#b2b2b2;stroke:#4c4c4c;stroke-width:2" d="M226,808 l134,0 0,36 -134,0 0,-36z" /><path style="fill:#b2b2b2;stroke:#4c4c4c;stroke-width:2" d="M226,865 l134,0 0,67 -134,0 0,-67z" /><path style="fill:#333" d="M242,726 l102,0 0,10 -102,0 0,-10z" /><path style="fill:#4c4c4c;stroke:#4c4c4c;stroke-width:2" d="M283,592 l20,0 0,160 -20,0 0,-160z" /><path style="fill:#b2b2b2" d="M66,947 l119,0 0,21 -119,0 0,-21z" /></svg>