<!DOCTYPE svg PUBLIC "-//W3C//DTD SVG 20000303 Stylable//EN" "http://www.w3.org/TR/2000/03/WD-SVG-20000303/DTD/svg-20000303-stylable.dtd"[]><svg xmlns="http://www.w3.org/2000/svg" width="999px" height="999px" viewBox="0 0 999 999"><path style="fill:#b2b2b2;stroke:#4c4c4c;stroke-width:2" d="M0,999 l0,-166 375,-668 0,-165 250,0 0,165 374,668 0,166 -999,0z" /><path style="fill:#999" d="M9,843 l980,0 0,146 -980,0 0,-146z" /><path style="fill:#999" d="M395,123 l32,-52 146,0 30,52 0,-104 -208,0 0,104z" /><path style="fill:#e5e5e5;stroke:#4c4c4c;stroke-width:2" d="M395,165 l-20,0 0,-165 250,0 0,165 -22,0 -10,-134 -188,0 -10,134z" /><path style="fill:none;stroke:#7f7f7f;stroke-width:2" d="M21,833 l968,0" /><path style="fill:#999" d="M967,811 l-104,-188 -166,126 -490,62 760,0z" /></svg>