<!DOCTYPE svg PUBLIC "-//W3C//DTD SVG 20000303 Stylable//EN" "http://www.w3.org/TR/2000/03/WD-SVG-20000303/DTD/svg-20000303-stylable.dtd"[]><svg xmlns="http://www.w3.org/2000/svg" width="673px" height="999px" viewBox="0 0 653 999"><path style="fill:#fff;fill-rule:evenodd" d="M311,7 l12,1 11,0 11,1 10,1 10,1 10,1 9,2 8,1 7,2 7,2 5,2 5,1 4,2 3,2 2,2 0,1 0,2 -2,2 -3,1 -4,2 -5,2 -5,2 -7,1 -7,2 -8,1 -9,1 -10,1 -10,1 -10,1 -11,0 -11,1 -12,0 -11,0 -11,-1 -11,0 -10,-1 -10,-1 -9,-1 -9,-1 -7,-1 -7,-2 -7,-1 -5,-2 -5,-2 -4,-2 -2,-1 -2,-2 -1,-2 1,-2 2,-2 2,-2 4,-2 5,-1 5,-2 7,-2 7,-1 7,-2 9,-1 9,-2 10,-1 10,0 11,-1 11,0 11,-1z M217,47 l-3,1 -2,2 -2,4 -1,4 0,5 0,4 -1,5 0,4 0,7 0,6 0,7 0,6 0,7 0,6 0,7 0,6 0,7 0,6 0,6 0,7 0,6 0,7 0,6 0,6 0,7 0,6 0,6 0,6 0,6 0,6 0,6 0,6 0,6 0,6 0,6 0,5 0,6 0,5 0,6 0,5 -1,20 -2,20 -4,22 -5,22 -7,23 -7,24 -9,24 -9,25 -10,25 -11,25 -11,25 -11,26 -12,25 -11,25 -11,25 -12,25 -10,24 -10,24 -10,23 -8,22 -8,21 -6,21 -6,20 -4,18 -3,17 -1,16 1,15 3,13 4,12 7,9 9,8 12,6 20,8 19,8 19,7 19,6 18,6 18,6 18,5 18,4 17,4 18,3 17,3 17,2 18,2 16,1 17,1 17,0 17,0 17,-1 17,-1 17,-2 17,-2 16,-3 18,-4 17,-3 17,-5 18,-5 17,-5 18,-6 18,-6 18,-7 18,-8 19,-8 12,-6 9,-8 6,-9 5,-12 2,-13 0,-14 -2,-16 -4,-16 -5,-18 -7,-19 -8,-20 -9,-21 -10,-22 -11,-23 -11,-23 -13,-23 -12,-24 -13,-25 -13,-25 -13,-25 -13,-25 -12,-25 -12,-25 -11,-25 -10,-25 -10,-24 -9,-24 -7,-24 -6,-22 -4,-22 -3,-22 -1,-21 0,-6 0,-6 0,-6 0,-6 0,-6 0,-7 0,-6 0,-6 0,-6 0,-7 0,-6 0,-6 0,-6 0,-7 0,-6 0,-6 0,-7 0,-6 0,-6 0,-7 0,-6 0,-7 0,-6 0,-6 0,-7 0,-6 0,-6 0,-7 0,-6 0,-6 0,-7 0,-6 0,-4 1,-5 0,-5 0,-5 -1,-4 -1,-4 -2,-2 -3,0 -7,1 -7,1 -7,1 -6,1 -6,1 -6,0 -6,1 -5,1 -6,0 -5,1 -5,0 -5,1 -5,0 -5,0 -4,0 -5,0 -5,0 -5,0 -5,0 -6,0 -5,0 -5,-1 -6,0 -6,-1 -6,0 -7,-1 -7,-1 -7,-1 -7,-1 -8,-1 -9,-1 -8,-1z M417,401 l9,16 7,14 7,14 5,12 5,12 3,11 3,10 3,9 1,8 1,7 1,6 0,5 -1,5 0,3 -1,2 -1,2 -6,5 -5,3 -5,2 -4,-1 -4,-2 -3,-3 -3,-4 -3,-5 -2,-6 -2,-6 -2,-6 -2,-6 -1,-6 -1,-5 0,-5 -1,-4 -1,-4 -1,-4 -1,-4 0,-4 -1,-3 -1,-4 0,-3 -1,-4 -1,-3 0,-4 -1,-4 -1,-4 -1,-4 -1,-5 -1,-5 -1,-6 -2,-6 1,-5 1,-5 3,-4 3,-3 3,-2 4,1 2,2z M626,880 l-19,-6 -19,-6 -19,-5 -19,-5 -19,-5 -18,-4 -19,-3 -19,-3 -19,-2 -18,-2 -19,-2 -19,-1 -18,-1 -19,0 -19,0 -18,0 -19,1 -18,1 -19,1 -18,2 -19,2 -18,3 -19,2 -18,3 -19,4 -18,3 -18,4 -19,4 -18,5 -19,4 -18,5 -18,5 15,-6 17,-6 16,-5 18,-6 18,-4 19,-5 19,-4 20,-4 20,-3 20,-3 21,-3 21,-2 21,-2 21,-1 21,-1 21,-1 21,0 21,0 20,1 21,1 20,2 20,2 19,2 19,3 18,3 18,4 17,5 16,4 16,6 14,6 14,6 13,7z M222,293 l3,1 3,2 4,2 4,1 4,2 5,2 5,1 6,2 5,1 6,1 7,2 7,1 7,1 7,0 8,0 8,1 8,0 8,-1 6,0 7,0 5,-1 5,0 5,-1 5,-1 4,-1 5,-1 5,-2 5,-1 6,-2 6,-2 7,-3 8,-2 -2,0 -2,0 -2,0 -3,1 -2,0 -3,1 -3,1 -4,1 -4,1 -4,2 -4,1 -5,1 -4,1 -5,1 -6,1 -5,1 -6,1 -6,0 -7,1 -6,0 -7,0 -7,0 -8,0 -8,0 -8,-1 -8,-1 -8,-2 -9,-2 -9,-2 -9,-3 -10,-3 -10,-3z M226,271 l10,-3 10,-3 9,-3 9,-2 9,-2 8,-1 8,-1 8,-1 8,-1 7,0 8,0 7,0 6,0 6,1 7,0 5,1 6,1 5,1 5,1 5,1 4,1 5,2 4,1 3,1 4,1 3,1 3,1 2,0 2,1 3,0 1,0 2,0 -8,-2 -6,-2 -7,-2 -5,-2 -5,-2 -5,-2 -5,-1 -5,-1 -4,-1 -5,0 -6,-1 -5,-1 -6,0 -7,0 -8,0 -8,0 -8,0 -7,0 -7,1 -7,0 -7,1 -6,1 -6,1 -6,2 -5,1 -5,2 -5,1 -4,2 -4,2 -4,2 -3,1 -3,2z M427,64 l0,21 0,16 0,11 0,8 0,5 0,2 0,1 0,-1 0,-1 0,-1 0,0 0,2 0,3 0,6 0,9 0,14 0,1 0,3 0,4 0,5 0,6 0,6 0,8 0,7 0,9 0,9 0,9 0,9 0,9 0,10 0,9 0,8 1,22 3,22 5,23 6,23 7,24 9,24 9,25 11,25 11,25 12,25 13,25 12,25 13,26 13,24 13,25 13,24 12,24 11,23 11,23 10,22 8,21 8,20 6,20 5,18 3,17 1,17 0,15 -3,13 -5,13 -8,11 -10,9 -13,8 -7,3 -8,4 -8,3 -8,4 -9,3 -8,3 -8,3 -8,3 -8,3 -8,3 -9,2 -8,3 -8,2 -8,3 -9,2 -8,2 -8,2 -9,2 -8,2 -9,2 -8,2 -9,1 -8,2 -9,1 -9,1 -8,1 -9,1 -9,1 -8,1 -9,1 -9,0 -9,1 -10,0 -11,0 -10,-1 -10,0 -10,-1 -10,0 -10,-1 -10,-1 -10,-1 -9,-1 -10,-2 -10,-1 -10,-2 -9,-1 -10,-2 -10,-2 -9,-2 -10,-3 -9,-2 -10,-3 -9,-2 -9,-3 -10,-3 -9,-3 -9,-3 -9,-3 -10,-4 -9,-3 -9,-4 -9,-4 -9,-4 -9,-4 -12,-7 -10,-9 -8,-11 -5,-13 -3,-14 -1,-15 0,-17 2,-18 4,-19 5,-21 7,-21 7,-22 9,-23 9,-23 10,-24 11,-25 11,-24 12,-26 11,-25 12,-25 11,-26 11,-25 11,-25 10,-25 9,-24 9,-25 8,-23 7,-23 5,-22 4,-21 2,-20 1,-19 0,-6 0,-7 0,-7 0,-6 0,-7 0,-6 0,-7 0,-7 0,-6 0,-7 0,-6 0,-7 0,-6 0,-7 0,-6 0,-7 0,-6 0,-7 0,-6 0,-7 0,-6 0,-7 0,-6 0,-7 0,-6 0,-7 0,-6 0,-7 0,-6 0,-7 0,-6 0,-7 0,-3 1,-4 0,-4 -1,-3 0,-4 -1,-3 -2,-3 -2,-3 -2,-2 -1,-1 -1,-2 -1,-1 0,-2 1,-2 1,-2 3,-2 2,-2 2,-1 4,-2 3,-2 5,-2 5,-1 6,-2 6,-2 8,-2 8,-1 9,-2 10,-1 12,-1 12,-1 13,-1 15,0 16,0 15,1 14,1 13,1 12,2 10,3 10,2 9,3 7,3 7,3 4,4 4,3 2,3 0,3 -1,4 -2,3 -1,3 -2,3 0,3 -1,3 -1,3 0,3 -1,4 0,3z " /><ellipse style="fill:none;stroke:#4c4c4c;stroke-width:2" cx="312" cy="28" rx="112" ry="21" /><path style="fill:none;stroke:#4c4c4c;stroke-width:2" d="M217,47 l-3,1 -2,2 -2,4 -1,4 0,5 0,4 -1,5 0,4 0,7 0,6 0,7 0,6 0,7 0,6 0,7 0,6 0,7 0,6 0,6 0,7 0,6 0,7 0,6 0,6 0,7 0,6 0,6 0,6 0,6 0,6 0,6 0,6 0,6 0,6 0,6 0,5 0,6 0,5 0,6 0,5 -1,20 -2,20 -4,22 -5,22 -7,23 -7,24 -9,24 -9,25 -10,25 -11,25 -11,25 -11,26 -12,25 -11,25 -11,25 -12,25 -10,24 -10,24 -10,23 -8,22 -8,21 -6,21 -6,20 -4,18 -3,17 -1,16 1,15 3,13 4,12 7,9 9,8 12,6 20,8 19,8 19,7 19,6 18,6 18,6 18,5 18,4 17,4 18,3 17,3 17,2 18,2 16,1 17,1 17,0 17,0 17,-1 17,-1 17,-2 17,-2 16,-3 18,-4 17,-3 17,-5 18,-5 17,-5 18,-6 18,-6 18,-7 18,-8 19,-8 12,-6 9,-8 6,-9 5,-12 2,-13 0,-14 -2,-16 -4,-16 -5,-18 -7,-19 -8,-20 -9,-21 -10,-22 -11,-23 -11,-23 -13,-23 -12,-24 -13,-25 -13,-25 -13,-25 -13,-25 -12,-25 -12,-25 -11,-25 -10,-25 -10,-24 -9,-24 -7,-24 -6,-22 -4,-22 -3,-22 -1,-21 0,-6 0,-6 0,-6 0,-6 0,-6 0,-7 0,-6 0,-6 0,-6 0,-7 0,-6 0,-6 0,-6 0,-7 0,-6 0,-6 0,-7 0,-6 0,-6 0,-7 0,-6 0,-7 0,-6 0,-6 0,-7 0,-6 0,-6 0,-7 0,-6 0,-6 0,-7 0,-6 0,-4 1,-5 0,-5 0,-5 -1,-4 -1,-4 -2,-2 -3,0 -7,1 -7,1 -7,1 -6,1 -6,1 -6,0 -6,1 -5,1 -6,0 -5,1 -5,0 -5,1 -5,0 -5,0 -4,0 -5,0 -5,0 -5,0 -5,0 -6,0 -5,0 -5,-1 -6,0 -6,-1 -6,0 -7,-1 -7,-1 -7,-1 -7,-1 -8,-1 -9,-1 -8,-1" /><path style="fill:none;stroke:#4c4c4c;stroke-width:2" d="M417,401 l9,16 7,14 7,14 5,12 5,12 3,11 3,10 3,9 1,8 1,7 1,6 0,5 -1,5 0,3 -1,2 -1,2 -6,5 -5,3 -5,2 -4,-1 -4,-2 -3,-3 -3,-4 -3,-5 -2,-6 -2,-6 -2,-6 -2,-6 -1,-6 -1,-5 0,-5 -1,-4 -1,-4 -1,-4 -1,-4 0,-4 -1,-3 -1,-4 0,-3 -1,-4 -1,-3 0,-4 -1,-4 -1,-4 -1,-4 -1,-5 -1,-5 -1,-6 -2,-6 1,-5 1,-5 3,-4 3,-3 3,-2 4,1 2,2" /><path style="fill:none;stroke:#4c4c4c;stroke-width:2" d="M626,880 l-19,-6 -19,-6 -19,-5 -19,-5 -19,-5 -18,-4 -19,-3 -19,-3 -19,-2 -18,-2 -19,-2 -19,-1 -18,-1 -19,0 -19,0 -18,0 -19,1 -18,1 -19,1 -18,2 -19,2 -18,3 -19,2 -18,3 -19,4 -18,3 -18,4 -19,4 -18,5 -19,4 -18,5 -18,5 15,-6 17,-6 16,-5 18,-6 18,-4 19,-5 19,-4 20,-4 20,-3 20,-3 21,-3 21,-2 21,-2 21,-1 21,-1 21,-1 21,0 21,0 20,1 21,1 20,2 20,2 19,2 19,3 18,3 18,4 17,5 16,4 16,6 14,6 14,6 13,7" /><path style="fill:none;stroke:#4c4c4c;stroke-width:2" d="M222,293 l3,1 3,2 4,2 4,1 4,2 5,2 5,1 6,2 5,1 6,1 7,2 7,1 7,1 7,0 8,0 8,1 8,0 8,-1 6,0 7,0 5,-1 5,0 5,-1 5,-1 4,-1 5,-1 5,-2 5,-1 6,-2 6,-2 7,-3 8,-2 -2,0 -2,0 -2,0 -3,1 -2,0 -3,1 -3,1 -4,1 -4,1 -4,2 -4,1 -5,1 -4,1 -5,1 -6,1 -5,1 -6,1 -6,0 -7,1 -6,0 -7,0 -7,0 -8,0 -8,0 -8,-1 -8,-1 -8,-2 -9,-2 -9,-2 -9,-3 -10,-3 -10,-3" /><path style="fill:none;stroke:#4c4c4c;stroke-width:2" d="M226,271 l10,-3 10,-3 9,-3 9,-2 9,-2 8,-1 8,-1 8,-1 8,-1 7,0 8,0 7,0 6,0 6,1 7,0 5,1 6,1 5,1 5,1 5,1 4,1 5,2 4,1 3,1 4,1 3,1 3,1 2,0 2,1 3,0 1,0 2,0 -8,-2 -6,-2 -7,-2 -5,-2 -5,-2 -5,-2 -5,-1 -5,-1 -4,-1 -5,0 -6,-1 -5,-1 -6,0 -7,0 -8,0 -8,0 -8,0 -7,0 -7,1 -7,0 -7,1 -6,1 -6,1 -6,2 -5,1 -5,2 -5,1 -4,2 -4,2 -4,2 -3,1 -3,2" /><path style="fill:none;stroke:#4c4c4c;stroke-width:2" d="M427,64 l0,21 0,16 0,11 0,8 0,5 0,2 0,1 0,-1 0,-1 0,-1 0,2 0,3 0,6 0,9 0,14 0,1 0,3 0,4 0,5 0,6 0,6 0,8 0,7 0,9 0,9 0,9 0,9 0,9 0,10 0,9 0,8 1,22 3,22 5,23 6,23 7,24 9,24 9,25 11,25 11,25 12,25 13,25 12,25 13,26 13,24 13,25 13,24 12,24 11,23 11,23 10,22 8,21 8,20 6,20 5,18 3,17 1,17 0,15 -3,13 -5,13 -8,11 -10,9 -13,8 -7,3 -8,4 -8,3 -8,4 -9,3 -8,3 -8,3 -8,3 -8,3 -8,3 -9,2 -8,3 -8,2 -8,3 -9,2 -8,2 -8,2 -9,2 -8,2 -9,2 -8,2 -9,1 -8,2 -9,1 -9,1 -8,1 -9,1 -9,1 -8,1 -9,1 -9,0 -9,1 -10,0 -11,0 -10,-1 -10,0 -10,-1 -10,0 -10,-1 -10,-1 -10,-1 -9,-1 -10,-2 -10,-1 -10,-2 -9,-1 -10,-2 -10,-2 -9,-2 -10,-3 -9,-2 -10,-3 -9,-2 -9,-3 -10,-3 -9,-3 -9,-3 -9,-3 -10,-4 -9,-3 -9,-4 -9,-4 -9,-4 -9,-4 -12,-7 -10,-9 -8,-11 -5,-13 -3,-14 -1,-15 0,-17 2,-18 4,-19 5,-21 7,-21 7,-22 9,-23 9,-23 10,-24 11,-25 11,-24 12,-26 11,-25 12,-25 11,-26 11,-25 11,-25 10,-25 9,-24 9,-25 8,-23 7,-23 5,-22 4,-21 2,-20 1,-19 0,-6 0,-7 0,-7 0,-6 0,-7 0,-6 0,-7 0,-7 0,-6 0,-7 0,-6 0,-7 0,-6 0,-7 0,-6 0,-7 0,-6 0,-7 0,-6 0,-7 0,-6 0,-7 0,-6 0,-7 0,-6 0,-7 0,-6 0,-7 0,-6 0,-7 0,-6 0,-7 0,-3 1,-4 0,-4 -1,-3 0,-4 -1,-3 -2,-3 -2,-3 -2,-2 -1,-1 -1,-2 -1,-1 0,-2 1,-2 1,-2 3,-2 2,-2 2,-1 4,-2 3,-2 5,-2 5,-1 6,-2 6,-2 8,-2 8,-1 9,-2 10,-1 12,-1 12,-1 13,-1 15,0 16,0 15,1 14,1 13,1 12,2 10,3 10,2 9,3 7,3 7,3 4,4 4,3 2,3 0,3 -1,4 -2,3 -1,3 -2,3 0,3 -1,3 -1,3 0,3 -1,4 0,3" /></svg>