<!DOCTYPE svg PUBLIC "-//W3C//DTD SVG 20000303 Stylable//EN" "http://www.w3.org/TR/2000/03/WD-SVG-20000303/DTD/svg-20000303-stylable.dtd"[]><svg xmlns="http://www.w3.org/2000/svg" width="999px" height="645px" viewBox="0 0 999 628"><path style="fill:#7387a6;stroke:#4c4c4c;stroke-width:2" d="M4,45 l907,0 0,578 -907,0 0,-578z" /><path style="fill:#405473" d="M66,602 l42,-21 0,-288 -42,0 0,309z" /><path style="fill:#263a59" d="M108,581 l741,0 0,-288 -741,0 0,288z" /><path style="fill:#596d8c" d="M66,602 l42,-21 741,0 0,21 -783,0z" /><path style="fill:#596d8c;stroke:#4c4c4c;stroke-width:2" d="M911,623 l83,-42 0,-577 -83,42 0,577z" /><path style="fill:#bfd3f2;stroke:#4c4c4c;stroke-width:2" d="M4,46 l83,-42 907,0 -83,42 -907,0z" /><path style="fill:#a6bad9;stroke:#4c4c4c;stroke-width:2" d="M4,46 l907,0 0,165 -907,0 0,-165z" /><path style="fill:#a6bad9;stroke:#4c4c4c;stroke-width:2" d="M4,231 l907,0 0,62 -907,0 0,-62z" /><path style="fill:#8ca0bf;stroke:#4c4c4c;stroke-width:2" d="M849,293 l62,0 0,309 -62,0 0,-309z" /><path style="fill:#8ca0bf;stroke:#4c4c4c;stroke-width:2" d="M4,293 l62,0 0,309 -62,0 0,-309z" /><circle style="fill:none;stroke:#4c4c4c;stroke-width:2" cx="35" cy="416" r="20" /><circle style="fill:none;stroke:#4c4c4c;stroke-width:2" cx="35" cy="519" r="20" /><circle style="fill:none;stroke:#4c4c4c;stroke-width:2" cx="880" cy="416" r="21" /><circle style="fill:none;stroke:#4c4c4c;stroke-width:2" cx="880" cy="519" r="21" /><path style="fill:none;stroke:#4c4c4c;stroke-width:2" d="M66,602 l783,0" /><path style="fill:none;stroke:#fff;stroke-width:2" d="M540,277 l0,-30 247,0" /><path style="fill:none;stroke:#263a59;stroke-width:2" d="M787,246 l0,31 -247,0" /></svg>