<!DOCTYPE svg PUBLIC "-//W3C//DTD SVG 20000303 Stylable//EN" "http://www.w3.org/TR/2000/03/WD-SVG-20000303/DTD/svg-20000303-stylable.dtd"[]><svg xmlns="http://www.w3.org/2000/svg" width="842px" height="999px" viewBox="0 0 833 999"><path style="fill:#ccc" d="M0,41 l353,500 22,458 82,0 22,-458 354,-500 -833,0z" /><path style="fill:#d1d1d1" d="M34,41 l325,500 20,458 76,0 20,-458 326,-500 -767,0z" /><path style="fill:#d4d4d4" d="M65,41 l300,500 16,458 70,0 18,-458 298,-500 -702,0z" /><path style="fill:#d9d9d9" d="M99,41 l270,500 16,458 64,0 16,-458 270,-500 -636,0z" /><path style="fill:#dedede" d="M132,41 l241,500 16,458 56,0 14,-458 242,-500 -569,0z" /><path style="fill:#e0e0e0" d="M165,41 l214,500 12,458 50,0 14,-458 214,-500 -504,0z" /><path style="fill:#e5e5e5" d="M197,41 l186,500 12,458 44,0 10,-458 186,-500 -438,0z" /><path style="fill:#ebebeb" d="M231,41 l158,500 8,458 38,0 10,-458 158,-500 -372,0z" /><path style="fill:#ededed" d="M263,41 l130,500 8,458 30,0 8,-458 130,-500 -306,0z" /><path style="fill:#f2f2f2" d="M297,41 l102,500 6,458 24,0 6,-458 102,-500 -240,0z" /><path style="fill:#f7f7f7" d="M329,41 l74,500 4,458 18,0 4,-458 74,-500 -174,0z" /><path style="fill:#fafafa" d="M363,41 l46,500 2,458 10,0 4,-458 46,-500 -108,0z" /><path style="fill:#fff" d="M395,41 l18,500 2,458 4,0 0,-458 18,-500 -42,0z" /><path style="fill:none;stroke:#4c4c4c;stroke-width:2" d="M0,41 l353,500 22,458 82,0 22,-458 354,-500 -833,0" /><ellipse style="fill:#e5e5e5" cx="416" cy="41" rx="416" ry="41" /><ellipse style="fill:#d9d9d9" cx="416" cy="62" rx="333" ry="21" /><ellipse style="fill:none;stroke:#4c4c4c;stroke-width:2" cx="416" cy="41" rx="416" ry="41" /></svg>