<!DOCTYPE svg PUBLIC "-//W3C//DTD SVG 20000303 Stylable//EN" "http://www.w3.org/TR/2000/03/WD-SVG-20000303/DTD/svg-20000303-stylable.dtd"[]><svg xmlns="http://www.w3.org/2000/svg" width="654px" height="999px" viewBox="0 0 634 999"><path style="fill:#fff;fill-rule:evenodd" d="M0,50 l2,-2 3,-2 3,-1 3,-1 19,-5 18,-5 19,-4 20,-5 20,-4 20,-3 21,-4 20,-3 21,-2 22,-3 21,-1 21,-2 22,-1 21,-1 21,-1 21,0 21,0 21,0 21,1 20,1 20,1 19,2 19,2 19,2 18,3 17,3 17,4 16,4 16,4 14,5 14,5 13,5 3,1 4,3 2,3 2,3 -1,3 -3,5 -4,6 -5,8 -6,9 -7,12 -8,12 -9,14 -10,14 -10,16 -12,16 -11,17 -12,18 -12,18 -13,18 -12,18 -13,18 -13,18 -12,18 -12,17 -11,17 -11,15 -11,15 -9,14 -10,13 -8,12 -7,10 -5,9 -5,7 -4,5 -2,3 -1,1 0,477 -13,6 -12,10 -10,12 -9,12 -7,12 -6,10 -5,7 -4,5 -1,0 -2,-3 0,-5 -1,-7 0,-10 0,-14 -1,-16 0,-21 0,-475 -12,-14 -11,-14 -12,-14 -13,-15 -12,-15 -13,-16 -12,-16 -13,-16 -13,-16 -12,-16 -13,-16 -12,-16 -12,-16 -12,-16 -12,-15 -11,-15 -11,-15 -11,-15 -10,-14 -9,-13 -10,-13 -8,-12 -8,-11 -7,-11 -6,-9 -6,-9 -4,-8 -4,-6 -3,-6 -2,-5 0,-3 0,-2z M11,58 l6,10 6,10 7,10 6,10 7,10 7,11 8,11 7,10 8,12 7,11 9,11 8,11 8,12 10,12 8,11 9,13 9,12 10,12 10,13 9,12 11,13 10,13 11,13 10,13 10,14 11,13 11,14 11,14 12,14 11,14 12,15 11,14 0,-1 0,3 0,6 0,9 0,10 0,14 0,14 0,18 0,18 0,21 0,21 0,23 0,23 0,25 0,24 0,26 0,25 0,25 0,25 0,25 0,23 0,23 0,22 0,21 0,19 0,17 0,16 0,14 0,11 0,9 0,6 0,4 1,-1 3,-6 5,-9 7,-11 8,-12 9,-12 11,-9 10,-6 2,-471 1,-2 2,-3 4,-6 6,-7 6,-10 8,-11 9,-13 10,-13 10,-16 11,-15 12,-17 12,-18 13,-18 13,-19 13,-18 13,-19 12,-19 13,-19 12,-18 13,-18 11,-17 11,-16 10,-15 9,-15 8,-12 7,-12 6,-10 5,-8 3,-6 1,-4 0,-2 -2,0 -5,3 -8,3 -11,3 -12,3 -15,4 -17,3 -18,4 -20,3 -21,4 -22,3 -24,3 -24,2 -24,2 -25,2 -25,0 -25,0 -42,-1 -38,-1 -36,-3 -32,-3 -29,-4 -26,-4 -23,-5 -20,-4 -17,-3 -15,-4 -12,-3 -9,-3 -7,-1 -4,0 -2,1 0,2z M329,86 l-27,0 -27,0 -27,-2 -26,-2 -26,-2 -25,-3 -24,-3 -22,-3 -21,-3 -19,-4 -17,-3 -14,-3 -11,-3 -9,-3 -5,-2 -2,-2 2,-1 5,-2 8,-2 11,-3 14,-3 16,-3 18,-3 21,-4 22,-3 24,-4 25,-3 27,-2 27,-2 29,-2 28,-2 29,0 29,-1 27,1 27,1 25,2 24,3 23,3 21,3 20,3 18,5 16,3 14,4 11,3 9,3 7,3 4,2 2,1 -2,2 -4,1 -8,3 -10,2 -12,4 -15,3 -16,3 -19,3 -21,3 -21,3 -23,2 -25,3 -25,2 -26,2 -27,2 -27,0z M130,141 l9,4 9,2 8,2 7,1 6,1 5,1 3,2 1,2 1,4 1,5 2,6 2,6 2,6 3,6 3,6 3,6 3,6 3,6 2,5 3,6 2,5 1,4 1,3 0,3 -1,1 -4,-2 -5,-4 -7,-7 -9,-8 -8,-9 -10,-9 -9,-11 -9,-10 -8,-10 -7,-9 -5,-7 -4,-7 0,-4 1,-2 5,0z " /><path style="fill:none;stroke:#4c4c4c;stroke-width:2" d="M0,50 l2,-2 3,-2 3,-1 3,-1 19,-5 18,-5 19,-4 20,-5 20,-4 20,-3 21,-4 20,-3 21,-2 22,-3 21,-1 21,-2 22,-1 21,-1 21,-1 21,0 21,0 21,0 21,1 20,1 20,1 19,2 19,2 19,2 18,3 17,3 17,4 16,4 16,4 14,5 14,5 13,5 3,1 4,3 2,3 2,3 -1,3 -3,5 -4,6 -5,8 -6,9 -7,12 -8,12 -9,14 -10,14 -10,16 -12,16 -11,17 -12,18 -12,18 -13,18 -12,18 -13,18 -13,18 -12,18 -12,17 -11,17 -11,15 -11,15 -9,14 -10,13 -8,12 -7,10 -5,9 -5,7 -4,5 -2,3 -1,1 0,477 -13,6 -12,10 -10,12 -9,12 -7,12 -6,10 -5,7 -4,5 -1,0 -2,-3 0,-5 -1,-7 0,-10 0,-14 -1,-16 0,-21 0,-475 -12,-14 -11,-14 -12,-14 -13,-15 -12,-15 -13,-16 -12,-16 -13,-16 -13,-16 -12,-16 -13,-16 -12,-16 -12,-16 -12,-16 -12,-15 -11,-15 -11,-15 -11,-15 -10,-14 -9,-13 -10,-13 -8,-12 -8,-11 -7,-11 -6,-9 -6,-9 -4,-8 -4,-6 -3,-6 -2,-5 0,-3 0,-2" /><path style="fill:none;stroke:#4c4c4c;stroke-width:2" d="M11,58 l6,10 6,10 7,10 6,10 7,10 7,11 8,11 7,10 8,12 7,11 9,11 8,11 8,12 10,12 8,11 9,13 9,12 10,12 10,13 9,12 11,13 10,13 11,13 10,13 10,14 11,13 11,14 11,14 12,14 11,14 12,15 11,14 0,-1 0,3 0,6 0,9 0,10 0,14 0,14 0,18 0,18 0,21 0,21 0,23 0,23 0,25 0,24 0,26 0,25 0,25 0,25 0,25 0,23 0,23 0,22 0,21 0,19 0,17 0,16 0,14 0,11 0,9 0,6 0,4 1,-1 3,-6 5,-9 7,-11 8,-12 9,-12 11,-9 10,-6 2,-471 1,-2 2,-3 4,-6 6,-7 6,-10 8,-11 9,-13 10,-13 10,-16 11,-15 12,-17 12,-18 13,-18 13,-19 13,-18 13,-19 12,-19 13,-19 12,-18 13,-18 11,-17 11,-16 10,-15 9,-15 8,-12 7,-12 6,-10 5,-8 3,-6 1,-4 0,-2 -2,0 -5,3 -8,3 -11,3 -12,3 -15,4 -17,3 -18,4 -20,3 -21,4 -22,3 -24,3 -24,2 -24,2 -25,2 -25,0 -25,0 -42,-1 -38,-1 -36,-3 -32,-3 -29,-4 -26,-4 -23,-5 -20,-4 -17,-3 -15,-4 -12,-3 -9,-3 -7,-1 -4,0 -2,1 0,2" /><ellipse style="fill:none;stroke:#4c4c4c;stroke-width:2" cx="318" cy="47" rx="291" ry="39" /><path style="fill:none;stroke:#4c4c4c;stroke-width:2" d="M130,141 l9,4 9,2 8,2 7,1 6,1 5,1 3,2 1,2 1,4 1,5 2,6 2,6 2,6 3,6 3,6 3,6 3,6 3,6 2,5 3,6 2,5 1,4 1,3 0,3 -1,1 -4,-2 -5,-4 -7,-7 -9,-8 -8,-9 -10,-9 -9,-11 -9,-10 -8,-10 -7,-9 -5,-7 -4,-7 0,-4 1,-2 5,0" /></svg>