<!DOCTYPE svg PUBLIC "-//W3C//DTD SVG 20000303 Stylable//EN" "http://www.w3.org/TR/2000/03/WD-SVG-20000303/DTD/svg-20000303-stylable.dtd"[]><svg xmlns="http://www.w3.org/2000/svg" width="999px" height="594px" viewBox="0 0 999 570"><path style="fill:#fff;fill-rule:evenodd" d="M797,307 l4,-2 8,-3 10,-3 10,-2 11,-2 9,-1 7,0 4,1 0,7 1,8 0,9 0,9 -1,11 -2,9 -3,10 -3,8 -2,4 -2,6 -3,6 -3,7 -3,7 -3,6 -3,5 -3,4 -5,5 -5,6 -5,5 -6,5 -5,5 -6,5 -5,5 -6,4 -7,4 -6,4 -7,3 -7,2 -7,2 -7,2 -8,0 -8,0 -2,-1 1,-2 2,-3 4,-3 5,-4 5,-4 5,-3 4,-4 6,-7 7,-9 7,-9 6,-9 6,-9 5,-10 3,-9 3,-10 1,-7 0,-8 0,-8 0,-9 0,-9 -1,-9 0,-8 0,-7z M117,288 l-1,5 0,6 0,6 0,5 0,6 0,5 1,6 0,6 0,6 0,6 1,7 2,6 2,7 3,7 3,7 3,6 4,7 4,7 4,6 5,7 5,6 5,6 5,5 5,6 2,0 3,-1 3,0 2,-1 -3,-6 -3,-6 -4,-6 -4,-6 -4,-6 -4,-6 -3,-5 -3,-6 -1,-9 -1,-9 0,-10 0,-10 1,-10 0,-10 1,-10 0,-9 0,-1 0,-2 0,-3 0,-3 -1,-2 0,-3 -1,-1 -2,-1 -29,-5z M501,401 l2,-1 1,-3 1,-3 0,-4 0,-3 -1,-3 -1,-2 -2,0 -9,6 -8,1 -8,-3 -6,-4 -5,-4 -4,-2 -2,1 1,5 0,5 -1,6 -1,6 -1,6 0,7 1,7 3,8 6,8 5,1 6,3 7,2 6,2 4,1 4,1 2,-1 -2,-2 -6,-9 -3,-8 -1,-6 0,-6 2,-5 3,-3 4,-2 3,-2z M17,208 l-3,-3 -2,2 -1,7 0,10 2,14 4,17 5,19 8,21 9,22 11,24 14,24 15,25 19,23 20,23 24,22 26,20 14,9 15,8 15,8 17,8 17,7 18,6 18,6 20,6 20,5 21,4 22,4 22,3 23,2 24,2 24,2 25,0 14,0 14,0 13,-1 13,0 13,-1 12,-1 13,-1 12,-2 12,-1 12,-2 11,-2 12,-2 11,-2 11,-3 11,-2 10,-3 11,-3 10,-3 9,-3 10,-3 10,-3 9,-4 9,-4 9,-3 8,-4 9,-4 8,-5 8,-4 7,-5 8,-4 7,-5 7,-4 30,-22 27,-23 23,-23 20,-24 17,-24 14,-23 12,-23 9,-21 7,-20 5,-18 3,-15 1,-12 0,-9 -1,-5 -3,-2 -3,3 -4,5 -4,4 -6,4 -7,5 -8,4 -9,5 -10,5 -10,4 -12,5 -12,5 -13,4 -13,5 -14,5 -15,4 -16,5 -15,4 -16,4 -16,4 -17,4 -17,4 -16,4 -18,3 -17,3 -17,3 -17,3 -17,3 -17,2 -17,2 -16,2 -16,2 -16,1 -15,1 -5,2 -6,4 -6,7 -6,7 -6,7 -7,6 -6,5 -7,1 -6,-1 -7,-5 -7,-6 -7,-7 -7,-7 -6,-7 -6,-4 -5,-2 -12,-1 -13,-1 -13,-1 -14,-1 -14,-1 -14,-2 -15,-1 -15,-2 -16,-2 -16,-2 -15,-3 -16,-2 -15,-3 -16,-3 -16,-3 -15,-4 -15,-4 -16,-4 -15,-4 -14,-4 -14,-5 -14,-5 -13,-5 -13,-6 -12,-6 -12,-6 -11,-6 -10,-7 -9,-7 -9,-7 -8,-7 -7,-8z M499,8 l-25,0 -25,1 -24,1 -24,1 -23,2 -23,2 -24,2 -22,3 -21,3 -21,3 -20,4 -20,4 -19,4 -19,5 -17,4 -18,5 -16,6 -15,5 -15,6 -13,6 -13,6 -12,7 -11,6 -9,7 -9,7 -8,7 -6,7 -6,8 -4,7 -3,8 -2,7 -1,8 1,8 1,8 3,7 4,7 5,7 5,8 7,6 8,7 8,7 10,7 10,6 11,6 12,6 13,6 14,6 14,5 15,5 17,5 16,5 17,5 18,4 19,4 19,4 20,3 20,3 21,3 22,2 22,2 23,2 23,1 23,1 24,1 3,1 3,5 3,6 4,8 5,7 6,6 7,5 8,1 6,-1 6,-5 6,-5 6,-7 6,-8 4,-5 4,-5 3,-1 24,-2 23,-3 23,-2 23,-3 22,-3 22,-3 21,-3 21,-3 20,-4 19,-4 19,-4 18,-4 18,-4 17,-5 17,-5 15,-5 15,-5 14,-5 13,-5 12,-6 11,-6 11,-6 10,-6 9,-6 7,-6 7,-7 6,-7 5,-7 4,-7 3,-7 1,-8 1,-8 -1,-8 -2,-7 -3,-8 -4,-7 -6,-8 -6,-7 -8,-7 -9,-7 -9,-7 -11,-6 -12,-7 -13,-6 -13,-6 -15,-6 -15,-5 -16,-6 -18,-5 -17,-4 -19,-5 -19,-4 -20,-4 -20,-4 -21,-3 -21,-3 -22,-3 -24,-2 -23,-2 -23,-2 -24,-1 -24,-1 -25,-1 -25,0z M499,0 l26,0 26,1 25,1 25,1 24,2 24,2 24,2 22,3 23,3 21,4 21,4 20,4 20,4 18,5 19,5 17,5 16,5 16,6 15,6 13,6 13,7 12,6 11,7 10,7 9,8 7,7 7,7 5,8 5,8 3,8 2,8 1,8 0,10 -1,10 -1,11 -1,12 -2,14 -2,14 -3,15 -4,15 -4,16 -6,17 -6,17 -7,17 -9,18 -9,17 -11,18 -12,17 -13,17 -15,16 -17,16 -18,16 -19,15 -22,14 -23,14 -25,12 -27,12 -29,10 -32,9 -33,8 -36,6 -38,4 -40,3 -43,2 -43,-1 -40,-2 -38,-4 -35,-6 -34,-7 -31,-9 -28,-10 -27,-11 -24,-13 -23,-13 -21,-15 -19,-15 -17,-15 -16,-16 -14,-17 -13,-17 -11,-18 -10,-17 -9,-18 -7,-18 -7,-17 -5,-17 -5,-17 -4,-17 -3,-15 -2,-15 -2,-15 -1,-13 -1,-13 -1,-11 0,-10 0,-10 0,-8 2,-8 3,-8 5,-8 5,-8 7,-7 7,-7 9,-8 10,-7 11,-7 12,-6 13,-7 13,-6 15,-6 16,-6 16,-5 17,-5 19,-5 18,-5 20,-4 20,-4 21,-4 21,-4 23,-3 22,-3 24,-2 24,-2 24,-2 25,-1 25,-1 26,-1 26,0z " /><path style="fill:none;stroke:#4c4c4c;stroke-width:2" d="M797,307 l4,-2 8,-3 10,-3 10,-2 11,-2 9,-1 7,0 4,1 0,7 1,8 0,9 0,9 -1,11 -2,9 -3,10 -3,8 -2,4 -2,6 -3,6 -3,7 -3,7 -3,6 -3,5 -3,4 -5,5 -5,6 -5,5 -6,5 -5,5 -6,5 -5,5 -6,4 -7,4 -6,4 -7,3 -7,2 -7,2 -7,2 -8,0 -8,0 -2,-1 1,-2 2,-3 4,-3 5,-4 5,-4 5,-3 4,-4 6,-7 7,-9 7,-9 6,-9 6,-9 5,-10 3,-9 3,-10 1,-7 0,-8 0,-8 0,-9 0,-9 -1,-9 0,-8 0,-7" /><path style="fill:none;stroke:#4c4c4c;stroke-width:2" d="M117,288 l-1,5 0,6 0,6 0,5 0,6 0,5 1,6 0,6 0,6 0,6 1,7 2,6 2,7 3,7 3,7 3,6 4,7 4,7 4,6 5,7 5,6 5,6 5,5 5,6 2,0 3,-1 3,0 2,-1 -3,-6 -3,-6 -4,-6 -4,-6 -4,-6 -4,-6 -3,-5 -3,-6 -1,-9 -1,-9 0,-10 0,-10 1,-10 0,-10 1,-10 0,-9 0,-1 0,-2 0,-3 0,-3 -1,-2 0,-3 -1,-1 -2,-1 -29,-5" /><path style="fill:none;stroke:#4c4c4c;stroke-width:2" d="M501,401 l2,-1 1,-3 1,-3 0,-4 0,-3 -1,-3 -1,-2 -2,0 -9,6 -8,1 -8,-3 -6,-4 -5,-4 -4,-2 -2,1 1,5 0,5 -1,6 -1,6 -1,6 0,7 1,7 3,8 6,8 5,1 6,3 7,2 6,2 4,1 4,1 2,-1 -2,-2 -6,-9 -3,-8 -1,-6 0,-6 2,-5 3,-3 4,-2 3,-2" /><path style="fill:none;stroke:#4c4c4c;stroke-width:2" d="M17,208 l-3,-3 -2,2 -1,7 0,10 2,14 4,17 5,19 8,21 9,22 11,24 14,24 15,25 19,23 20,23 24,22 26,20 14,9 15,8 15,8 17,8 17,7 18,6 18,6 20,6 20,5 21,4 22,4 22,3 23,2 24,2 24,2 25,0 14,0 14,0 13,-1 13,0 13,-1 12,-1 13,-1 12,-2 12,-1 12,-2 11,-2 12,-2 11,-2 11,-3 11,-2 10,-3 11,-3 10,-3 9,-3 10,-3 10,-3 9,-4 9,-4 9,-3 8,-4 9,-4 8,-5 8,-4 7,-5 8,-4 7,-5 7,-4 30,-22 27,-23 23,-23 20,-24 17,-24 14,-23 12,-23 9,-21 7,-20 5,-18 3,-15 1,-12 0,-9 -1,-5 -3,-2 -3,3 -4,5 -4,4 -6,4 -7,5 -8,4 -9,5 -10,5 -10,4 -12,5 -12,5 -13,4 -13,5 -14,5 -15,4 -16,5 -15,4 -16,4 -16,4 -17,4 -17,4 -16,4 -18,3 -17,3 -17,3 -17,3 -17,3 -17,2 -17,2 -16,2 -16,2 -16,1 -15,1 -5,2 -6,4 -6,7 -6,7 -6,7 -7,6 -6,5 -7,1 -6,-1 -7,-5 -7,-6 -7,-7 -7,-7 -6,-7 -6,-4 -5,-2 -12,-1 -13,-1 -13,-1 -14,-1 -14,-1 -14,-2 -15,-1 -15,-2 -16,-2 -16,-2 -15,-3 -16,-2 -15,-3 -16,-3 -16,-3 -15,-4 -15,-4 -16,-4 -15,-4 -14,-4 -14,-5 -14,-5 -13,-5 -13,-6 -12,-6 -12,-6 -11,-6 -10,-7 -9,-7 -9,-7 -8,-7 -7,-8" /><path style="fill:none;stroke:#4c4c4c;stroke-width:2" d="M499,8 l-25,0 -25,1 -24,1 -24,1 -23,2 -23,2 -24,2 -22,3 -21,3 -21,3 -20,4 -20,4 -19,4 -19,5 -17,4 -18,5 -16,6 -15,5 -15,6 -13,6 -13,6 -12,7 -11,6 -9,7 -9,7 -8,7 -6,7 -6,8 -4,7 -3,8 -2,7 -1,8 1,8 1,8 3,7 4,7 5,7 5,8 7,6 8,7 8,7 10,7 10,6 11,6 12,6 13,6 14,6 14,5 15,5 17,5 16,5 17,5 18,4 19,4 19,4 20,3 20,3 21,3 22,2 22,2 23,2 23,1 23,1 24,1 3,1 3,5 3,6 4,8 5,7 6,6 7,5 8,1 6,-1 6,-5 6,-5 6,-7 6,-8 4,-5 4,-5 3,-1 24,-2 23,-3 23,-2 23,-3 22,-3 22,-3 21,-3 21,-3 20,-4 19,-4 19,-4 18,-4 18,-4 17,-5 17,-5 15,-5 15,-5 14,-5 13,-5 12,-6 11,-6 11,-6 10,-6 9,-6 7,-6 7,-7 6,-7 5,-7 4,-7 3,-7 1,-8 1,-8 -1,-8 -2,-7 -3,-8 -4,-7 -6,-8 -6,-7 -8,-7 -9,-7 -9,-7 -11,-6 -12,-7 -13,-6 -13,-6 -15,-6 -15,-5 -16,-6 -18,-5 -17,-4 -19,-5 -19,-4 -20,-4 -20,-4 -21,-3 -21,-3 -22,-3 -24,-2 -23,-2 -23,-2 -24,-1 -24,-1 -25,-1 -25,0" /><path style="fill:none;stroke:#4c4c4c;stroke-width:2" d="M499,0 l26,0 26,1 25,1 25,1 24,2 24,2 24,2 22,3 23,3 21,4 21,4 20,4 20,4 18,5 19,5 17,5 16,5 16,6 15,6 13,6 13,7 12,6 11,7 10,7 9,8 7,7 7,7 5,8 5,8 3,8 2,8 1,8 0,10 -1,10 -1,11 -1,12 -2,14 -2,14 -3,15 -4,15 -4,16 -6,17 -6,17 -7,17 -9,18 -9,17 -11,18 -12,17 -13,17 -15,16 -17,16 -18,16 -19,15 -22,14 -23,14 -25,12 -27,12 -29,10 -32,9 -33,8 -36,6 -38,4 -40,3 -43,2 -43,-1 -40,-2 -38,-4 -35,-6 -34,-7 -31,-9 -28,-10 -27,-11 -24,-13 -23,-13 -21,-15 -19,-15 -17,-15 -16,-16 -14,-17 -13,-17 -11,-18 -10,-17 -9,-18 -7,-18 -7,-17 -5,-17 -5,-17 -4,-17 -3,-15 -2,-15 -2,-15 -1,-13 -1,-13 -1,-11 0,-10 0,-10 0,-8 2,-8 3,-8 5,-8 5,-8 7,-7 7,-7 9,-8 10,-7 11,-7 12,-6 13,-7 13,-6 15,-6 16,-6 16,-5 17,-5 19,-5 18,-5 20,-4 20,-4 21,-4 21,-4 23,-3 22,-3 24,-2 24,-2 24,-2 25,-1 25,-1 26,-1 26,0" /></svg>