<!DOCTYPE svg PUBLIC "-//W3C//DTD SVG 20000303 Stylable//EN" "http://www.w3.org/TR/2000/03/WD-SVG-20000303/DTD/svg-20000303-stylable.dtd"[]><svg xmlns="http://www.w3.org/2000/svg" width="730px" height="999px" viewBox="0 0 717 999"><path style="fill:#000" d="M108,664 l41,123 185,0 351,-82 0,-41 -577,0z" /><path style="fill:#000" d="M375,890 l248,0 0,21 -248,0 0,-21z" /><path style="fill:#666" d="M169,911 l124,0 0,-247 -124,0 0,247z" /><path style="fill:#666" d="M375,664 l0,41 42,0 0,82 -42,0 0,42 248,0 0,-42 -42,0 0,-82 42,0 0,-41 -248,0z" /><path style="fill:#7f7f7f" d="M190,911 l82,0 0,-247 -82,0 0,247z" /><path style="fill:#7f7f7f" d="M417,664 l0,41 27,0 0,82 -27,0 0,42 164,0 0,-42 -27,0 0,-82 27,0 0,-41 -164,0z" /><path style="fill:#999" d="M211,911 l41,0 0,-247 -41,0 0,247z" /><path style="fill:#999" d="M458,664 l0,41 14,0 0,82 -14,0 0,42 82,0 0,-42 -14,0 0,-82 14,0 0,-41 -82,0z" /><path style="fill:#666" d="M437,396 l124,0 0,165 -124,0 0,-165z" /><path style="fill:#666" d="M417,87 l164,0 0,309 -164,0 0,-309z" /><path style="fill:#666" d="M128,293 l124,0 0,247 -124,0 0,-247z" /><path style="fill:#7f7f7f" d="M453,396 l92,0 0,165 -92,0 0,-165z" /><path style="fill:#7f7f7f" d="M437,87 l124,0 0,309 -124,0 0,-309z" /><path style="fill:#7f7f7f" d="M144,293 l93,0 0,247 -93,0 0,-247z" /><path style="fill:#999" d="M175,293 l30,0 0,247 -30,0 0,-247z" /><path style="fill:#999" d="M479,87 l40,0 0,309 -40,0 0,-309z" /><path style="fill:#999" d="M484,396 l30,0 0,165 -30,0 0,-165z" /><path style="fill:#b2b2b2" d="M417,4 l164,0 0,83 -164,0 0,-83z" /><path style="fill:#b2b2b2" d="M620,528 l71,-41 21,36 -72,41 -20,-36z" /><path style="fill:#b2b2b2" d="M458,561 l82,0 0,41 -82,0 0,-41z" /><path style="fill:#b2b2b2" d="M108,540 l164,0 0,83 -164,0 0,-83z" /><path style="fill:#b2b2b2" d="M108,211 l164,0 0,82 -164,0 0,-82z" /><path style="fill:#ccc" d="M437,4 l124,0 0,83 -124,0 0,-83z" /><path style="fill:#ccc" d="M629,523 l53,-31 21,36 -54,31 -20,-36z" /><path style="fill:#ccc" d="M468,561 l62,0 0,41 -62,0 0,-41z" /><path style="fill:#ccc" d="M128,540 l124,0 0,83 -124,0 0,-83z" /><path style="fill:#ccc" d="M128,211 l124,0 0,82 -124,0 0,-82z" /><path style="fill:#e5e5e5" d="M647,513 l18,-10 20,36 -18,10 -20,-36z" /><path style="fill:#e5e5e5" d="M489,561 l20,0 0,41 -20,0 0,-41z" /><path style="fill:#e5e5e5" d="M170,540 l41,0 0,83 -41,0 0,-83z" /><path style="fill:#e5e5e5" d="M479,4 l40,0 0,83 -40,0 0,-83z" /><path style="fill:#e5e5e5" d="M170,211 l41,0 0,82 -41,0 0,-82z" /><path style="fill:#666" d="M4,911 l165,0 0,83 -165,0 0,-83z" /><path style="fill:#737373" d="M169,911 l62,0 0,83 -62,0 0,-83z" /><path style="fill:#7f7f7f" d="M231,911 l21,0 0,83 -21,0 0,-83z" /><path style="fill:#8c8c8c" d="M252,911 l41,0 0,83 -41,0 0,-83z" /><path style="fill:#999" d="M293,911 l412,0 0,83 -412,0 0,-83z" /><path style="fill:#999" d="M87,623 l247,0 0,41 -247,0 0,-41z" /><path style="fill:#ccc" d="M417,623 l288,0 0,41 -288,0 0,-41z" /><path style="fill:#a6a6a6" d="M375,623 l-41,0 0,41 41,0 0,-41z" /><path style="fill:#b2b2b2" d="M375,623 l42,0 0,41 -42,0 0,-41z" /><path style="fill:#ccc;stroke:#4c4c4c;stroke-width:2" d="M396,870 l206,0 0,20 -206,0 0,-20z" /><path style="fill:none;stroke:#4c4c4c;stroke-width:2" d="M128,293 l124,0 0,247 -124,0 0,-247" /><path style="fill:none;stroke:#4c4c4c;stroke-width:2" d="M417,87 l164,0 0,309 -164,0 0,-309" /><path style="fill:#4c4c4c;stroke:#4c4c4c;stroke-width:2" d="M252,540 l7,-18 8,-18 8,-16 8,-14 9,-13 8,-12 9,-10 10,-10 10,-8 10,-7 11,-5 12,-5 12,-4 14,-2 14,-2 15,0 0,-185 -42,0 0,11 -2,12 -2,12 -3,12 -5,12 -5,10 -6,10 -8,8 -8,7 -9,5 -10,4 -11,1 -12,-2 -13,-3 -14,-7 -15,-10 0,247z" /><path style="fill:none;stroke:#4c4c4c;stroke-width:2" d="M437,396 l124,0 0,165 -124,0 0,-165" /><path style="fill:#666" d="M520,396 l107,-62 82,143 -107,62 -82,-143z" /><path style="fill:#7f7f7f" d="M533,388 l80,-46 83,142 -81,47 -82,-143z" /><path style="fill:#999" d="M560,373 l26,-15 83,142 -27,15 -82,-142z" /><path style="fill:none;stroke:#4c4c4c;stroke-width:2" d="M520,396 l107,-62 82,143 -107,62 -82,-143" /><path style="fill:#b2b2b2" d="M190,727 l11,-28 28,-11 29,11 11,28 -11,29 -29,11 -28,-11 -11,-29z" /><path style="fill:none;stroke:#4c4c4c;stroke-width:2" d="M417,705 l164,0" /><path style="fill:none;stroke:#4c4c4c;stroke-width:2" d="M581,787 l-164,0" /><path style="fill:none;stroke:#4c4c4c;stroke-width:2" d="M169,911 l124,0 0,-247 -124,0 0,247" /><path style="fill:none;stroke:#4c4c4c;stroke-width:2" d="M375,664 l0,41 42,0 0,82 -42,0 0,42 248,0 0,-42 -42,0 0,-82 42,0 0,-41 -248,0" /><path style="fill:none;stroke:#4c4c4c;stroke-width:2" d="M417,4 l164,0 0,83 -164,0 0,-83" /><path style="fill:none;stroke:#4c4c4c;stroke-width:2" d="M620,528 l71,-41 21,36 -72,41 -20,-36" /><path style="fill:none;stroke:#4c4c4c;stroke-width:2" d="M458,561 l82,0 0,41 -82,0 0,-41" /><path style="fill:none;stroke:#4c4c4c;stroke-width:2" d="M108,540 l164,0 0,83 -164,0 0,-83" /><path style="fill:none;stroke:#4c4c4c;stroke-width:2" d="M108,211 l164,0 0,82 -164,0 0,-82" /><path style="fill:none;stroke:#4c4c4c;stroke-width:2" d="M87,623 l618,0 0,41 -618,0 0,-41" /><path style="fill:none;stroke:#4c4c4c;stroke-width:2" d="M4,911 l701,0 0,83 -701,0 0,-83" /><circle style="fill:#666;stroke:#4c4c4c;stroke-width:2" cx="396" cy="148" r="82" /><circle style="fill:#000" cx="396" cy="148" r="50" /></svg>