<!DOCTYPE svg PUBLIC "-//W3C//DTD SVG 20000303 Stylable//EN" "http://www.w3.org/TR/2000/03/WD-SVG-20000303/DTD/svg-20000303-stylable.dtd"[]><svg xmlns="http://www.w3.org/2000/svg" width="999px" height="999px" viewBox="0 0 999 999"><path style="fill:#bfd3f2;stroke:#4c4c4c;stroke-width:2" d="M999,999 l-999,0 0,-999 999,0 0,999z" /><path style="fill:#e5e5e5;stroke:#4c4c4c;stroke-width:2" d="M911,392 l-31,-26 -87,-25 -139,-14 -155,-3 -155,3 -139,14 -87,25 -31,26 33,84 88,51 0,156 34,34 85,53 -102,102 548,0 -102,-102 85,-53 34,-34 0,-156 88,-51 33,-84z" /><ellipse style="fill:#8ca0bf;stroke:#4c4c4c;stroke-width:2" cx="499" cy="397" rx="379" ry="56" /><path style="fill:#e5e5e5;stroke:#4c4c4c;stroke-width:2" d="M728,197 l-178,254 138,-3 99,-217 -59,-34z" /><circle style="fill:#8ca0bf;stroke:#4c4c4c;stroke-width:2" cx="759" cy="213" r="68" /></svg>