<!DOCTYPE svg PUBLIC "-//W3C//DTD SVG 20000303 Stylable//EN" "http://www.w3.org/TR/2000/03/WD-SVG-20000303/DTD/svg-20000303-stylable.dtd"[]><svg xmlns="http://www.w3.org/2000/svg" width="998px" height="746px" viewBox="0 0 999 731"><path style="fill:#fff;stroke:#4c4c4c;stroke-width:2" d="M472,671 l16,0 14,-2 13,-3 11,-6 9,-4 8,-8 3,-8 4,-16 0,-15 -4,-7 -3,-7 -8,-7 -9,-6 -11,-4 -13,-5 -14,-3 -16,-1 -16,1 -14,3 -14,5 -11,4 -9,6 -8,7 -4,7 -2,7 0,15 2,16 4,8 8,8 9,4 11,6 14,3 14,2 16,0z" /><path style="fill:none;stroke:#808080;stroke-width:2" d="M394,607 l1,6 4,6 6,5 10,5 10,3 15,4 14,2 18,0 18,0 13,-2 13,-4 12,-3 10,-5 6,-5 5,-6 1,-6" /><path style="fill:#fff;stroke:#4c4c4c;stroke-width:2" d="M178,671 l15,0 15,-2 13,-3 11,-6 9,-4 8,-8 4,-8 3,-16 0,-15 -3,-7 -4,-7 -8,-7 -9,-6 -11,-4 -13,-5 -15,-3 -15,-1 -16,1 -15,3 -14,5 -11,4 -9,6 -7,7 -4,7 -1,7 0,15 1,16 4,8 7,8 9,4 11,6 14,3 15,2 16,0z" /><path style="fill:none;stroke:#808080;stroke-width:2" d="M101,607 l0,6 4,6 7,5 9,5 10,3 14,4 15,2 17,0 18,0 15,-2 12,-4 12,-3 9,-5 6,-5 6,-6 1,-6" /><path style="fill:#fff;stroke:#4c4c4c;stroke-width:2" d="M277,731 l15,0 14,-3 12,-3 12,-6 9,-5 7,-6 5,-8 3,-16 0,-16 -3,-7 -5,-8 -7,-6 -9,-7 -12,-3 -12,-5 -14,-2 -15,-1 -17,1 -14,2 -14,5 -11,3 -10,7 -7,6 -4,8 -2,7 0,16 2,16 4,8 7,6 10,5 11,6 14,3 14,3 17,0z" /><path style="fill:none;stroke:#808080;stroke-width:2" d="M198,667 l2,6 4,5 6,5 8,6 11,3 14,4 15,1 18,0 16,0 16,-1 12,-4 11,-3 11,-6 5,-5 5,-5 2,-6" /><path style="fill:#ffff14;stroke:#f80;stroke-width:2" d="M820,414 l130,-28 23,-8 16,-17 9,-20 1,-25 -11,-21 -16,-17 -22,-6 -25,0 -131,27 26,115z" /><path style="fill:#00f;stroke:#050588;stroke-width:2" d="M814,295 l-131,28 -23,11 -17,14 -8,21 0,24 9,23 16,15 23,10 26,-3 131,-27 2,-16 2,-15 0,-14 -2,-16 -4,-14 -7,-14 -8,-14 -9,-13z" /><path style="fill:none;stroke:#fff;stroke-width:2" d="M703,338 l114,-24" /><path style="fill:none;stroke:#c2c200;stroke-width:2" d="M838,308 l77,-15" /><path style="fill:#ffff14;stroke:#f80;stroke-width:2" d="M749,532 l133,0 24,-5 19,-12 13,-19 5,-23 -5,-24 -13,-19 -19,-11 -24,-6 -133,0 0,119z" /><path style="fill:#00f;stroke:#050588;stroke-width:2" d="M769,413 l-135,0 -25,6 -20,11 -13,19 -3,24 3,23 13,19 20,12 25,5 135,0 5,-15 5,-15 3,-14 1,-15 -1,-15 -3,-15 -5,-14 -5,-16z" /><path style="fill:none;stroke:#fff;stroke-width:2" d="M651,433 l117,0" /><path style="fill:none;stroke:#c2c200;stroke-width:2" d="M788,433 l79,0" /><path style="fill:#fff;stroke:#808080;stroke-width:2" d="M21,76 l43,330 15,16 20,15 23,9 30,5 22,11 35,7 37,3 37,1 32,-1 33,-3 33,-7 32,-11 30,-5 22,-9 19,-15 17,-16 43,-330 -523,0z" /><path style="fill:none;stroke:#808080;stroke-width:2" d="M152,451 l-22,-375" /><path style="fill:none;stroke:#808080;stroke-width:2" d="M283,473 l0,-397" /><path style="fill:none;stroke:#808080;stroke-width:2" d="M413,451 l21,-375" /><ellipse style="fill:#fff;stroke:#808080;stroke-width:2" cx="283" cy="76" rx="283" ry="76" /><ellipse style="fill:#fff;stroke:#808080;stroke-width:2" cx="281" cy="77" rx="260" ry="59" /><path style="fill:none;stroke:#808080;stroke-width:2" d="M71,58 l0,46" /><path style="fill:none;stroke:#808080;stroke-width:2" d="M87,48 l0,63" /><path style="fill:none;stroke:#808080;stroke-width:2" d="M106,41 l0,73" /><path style="fill:none;stroke:#808080;stroke-width:2" d="M54,75 l0,23" /></svg>