<!DOCTYPE svg PUBLIC "-//W3C//DTD SVG 20000303 Stylable//EN" "http://www.w3.org/TR/2000/03/WD-SVG-20000303/DTD/svg-20000303-stylable.dtd"[]><svg xmlns="http://www.w3.org/2000/svg" width="789px" height="999px" viewBox="0 0 777 999"><path style="fill:#7f7f7f" d="M22,999 l0,-977 755,0 0,977 -755,0z" /><path style="fill:#fffff7;stroke:#4c4c4c;stroke-width:2" d="M0,976 l0,-976 754,0 0,976 -754,0z" /><path style="fill:none;stroke:#4c4c4c;stroke-width:2" d="M88,177 l622,0" /><path style="fill:none;stroke:#4c4c4c;stroke-width:2" d="M88,199 l622,0" /><path style="fill:none;stroke:#4c4c4c;stroke-width:2" d="M88,222 l622,0" /><path style="fill:none;stroke:#4c4c4c;stroke-width:2" d="M88,244 l622,0" /><path style="fill:none;stroke:#4c4c4c;stroke-width:2" d="M88,266 l467,0" /><path style="fill:none;stroke:#4c4c4c;stroke-width:2" d="M88,310 l622,0" /><path style="fill:none;stroke:#4c4c4c;stroke-width:2" d="M88,332 l622,0" /><path style="fill:none;stroke:#4c4c4c;stroke-width:2" d="M88,355 l622,0" /><path style="fill:none;stroke:#4c4c4c;stroke-width:2" d="M88,377 l622,0" /><path style="fill:none;stroke:#4c4c4c;stroke-width:2" d="M88,399 l622,0" /><path style="fill:none;stroke:#4c4c4c;stroke-width:2" d="M88,421 l622,0" /><path style="fill:none;stroke:#4c4c4c;stroke-width:2" d="M88,444 l200,0" /><path style="fill:none;stroke:#4c4c4c;stroke-width:2" d="M88,488 l622,0" /><path style="fill:none;stroke:#4c4c4c;stroke-width:2" d="M88,510 l622,0" /><path style="fill:none;stroke:#4c4c4c;stroke-width:2" d="M88,532 l622,0" /><path style="fill:none;stroke:#4c4c4c;stroke-width:2" d="M88,554 l45,0" /><path style="fill:none;stroke:#4c4c4c;stroke-width:2" d="M88,599 l622,0" /><path style="fill:none;stroke:#4c4c4c;stroke-width:2" d="M88,621 l622,0" /><path style="fill:none;stroke:#4c4c4c;stroke-width:2" d="M88,643 l622,0" /><path style="fill:none;stroke:#4c4c4c;stroke-width:2" d="M88,666 l622,0" /><path style="fill:none;stroke:#4c4c4c;stroke-width:2" d="M88,688 l622,0" /><path style="fill:none;stroke:#4c4c4c;stroke-width:2" d="M88,710 l622,0" /><path style="fill:none;stroke:#4c4c4c;stroke-width:2" d="M88,732 l422,0" /><path style="fill:none;stroke:#4c4c4c;stroke-width:2" d="M377,776 l200,0" /><path style="fill:none;stroke:#4c4c4c;stroke-width:2" d="M377,799 l200,0" /><path style="fill:none;stroke:#4c4c4c;stroke-width:2" d="M222,88 l310,0" /><path style="fill:none;stroke:#4c4c4c;stroke-width:2" d="M266,110 l222,0" /><path style="fill:none;stroke:#4c4c4c;stroke-width:2" d="M288,66 l178,0" /></svg>