<!DOCTYPE svg PUBLIC "-//W3C//DTD SVG 20000303 Stylable//EN" "http://www.w3.org/TR/2000/03/WD-SVG-20000303/DTD/svg-20000303-stylable.dtd"[]><svg xmlns="http://www.w3.org/2000/svg" width="181px" height="999px" viewBox="0 0 132 999"><path style="fill:#fff;fill-rule:evenodd" d="M111,892 l0,-869 0,-3 -1,-2 -1,-3 -2,-2 -2,-2 -3,-2 -3,-2 -3,-2 -3,-1 -4,-1 -4,-1 -4,-1 -4,-1 -4,0 -3,0 -4,0 -4,0 -4,0 -4,1 -4,1 -4,1 -4,1 -4,1 -3,1 -4,2 -3,1 -2,2 -3,2 -2,2 -1,3 -1,2 0,3 0,27 0,27 0,28 0,27 0,27 0,27 0,27 0,27 0,27 0,27 0,27 0,28 0,27 0,27 0,27 0,27 0,27 0,28 0,27 0,27 0,27 0,27 0,27 0,27 0,28 0,27 0,27 0,27 0,27 0,27 0,27 0,28 -8,11 -6,11 -3,10 -2,10 0,9 1,9 2,8 4,7 5,7 6,6 7,5 7,4 8,4 8,3 8,2 8,1 8,-1 9,-1 9,-2 8,-3 8,-5 6,-5 7,-6 5,-7 4,-7 3,-8 1,-9 0,-10 -2,-10 -4,-11 -6,-11 -9,-11z M102,892 l7,10 5,11 3,9 2,9 1,8 -1,8 -2,6 -3,6 -4,6 -5,4 -5,4 -6,3 -7,3 -6,2 -8,1 -7,0 -7,0 -7,-1 -7,-2 -7,-3 -6,-3 -5,-4 -5,-4 -4,-6 -3,-6 -2,-6 0,-8 0,-8 2,-9 4,-9 5,-11 6,-10 0,-853 1,-6 3,-6 3,-4 5,-4 5,-3 6,-2 7,-1 6,-1 7,1 6,1 6,2 6,3 4,4 4,4 2,6 1,6 0,853z M98,63 l-5,1 -4,0 -3,1 -4,0 -4,1 -4,0 -4,1 -4,0 -4,0 -4,-1 -4,0 -3,-1 -3,-1 -4,0 -4,-1 -4,0 0,0 0,-1 0,-1 0,0 0,-1 0,-1 0,-1 0,-1 4,0 4,1 4,1 3,1 3,0 4,0 4,1 4,0 4,0 4,-1 4,0 4,0 4,-1 3,-1 4,-1 5,0 0,1 0,1 0,1 0,1 0,0 0,1 0,1 0,0z M98,167 l-5,1 -4,1 -3,1 -4,0 -4,1 -4,0 -4,1 -4,0 -4,0 -4,-1 -4,0 -3,-1 -3,0 -4,-1 -4,-1 -4,-1 0,0 0,0 0,0 0,-1 0,-1 0,-1 0,0 0,-1 4,1 4,0 4,1 3,0 3,1 4,1 4,0 4,0 4,0 4,0 4,-1 4,-1 4,0 3,-1 4,0 5,-1 0,2 0,0 0,1 0,0 0,1 0,0 0,0 0,0z M98,274 l-5,0 -4,1 -3,0 -4,0 -4,1 -4,0 -4,0 -4,0 -4,0 -4,0 -4,0 -3,-1 -3,-1 -4,0 -4,-1 -4,-1 0,0 0,0 0,0 0,-2 0,0 0,0 0,-1 0,-1 4,1 4,1 4,0 3,1 3,1 4,0 4,0 4,0 4,0 4,0 4,0 4,-1 4,-1 3,0 4,-1 5,-1 0,1 0,1 0,1 0,1 0,1 0,0 0,1 0,0z M98,379 l-5,1 -4,1 -3,0 -4,1 -4,1 -4,0 -4,0 -4,0 -4,0 -4,0 -4,0 -3,-1 -3,-1 -4,0 -4,-1 -4,-1 0,0 0,-1 0,-1 0,0 0,0 0,-1 0,-1 0,-2 4,1 4,1 4,0 3,1 3,0 4,1 4,0 4,0 4,0 4,0 4,-1 4,0 4,-1 3,0 4,-1 5,-1 0,2 0,1 0,1 0,0 0,1 0,1 0,0 0,0z M98,484 l-5,1 -4,1 -3,0 -4,1 -4,0 -4,1 -4,0 -4,0 -4,0 -4,0 -4,-1 -3,0 -3,-1 -4,0 -4,-1 -4,-1 0,0 0,0 0,-1 0,-1 0,0 0,-1 0,-1 0,0 4,1 4,0 4,1 3,1 3,0 4,1 4,0 4,0 4,0 4,-1 4,0 4,-1 4,-1 3,0 4,-1 5,0 0,1 0,1 0,0 0,0 0,1 0,1 0,0 0,0z M98,591 l-5,1 -4,0 -3,0 -4,1 -4,0 -4,0 -4,0 -4,0 -4,0 -4,0 -4,-1 -3,0 -3,-1 -4,-1 -4,-1 -4,0 0,0 0,0 0,0 0,0 0,-1 0,-1 0,-1 0,-1 4,0 4,1 4,1 3,1 3,0 4,0 4,1 4,0 4,0 4,-1 4,0 4,0 4,-1 3,-1 4,-1 5,0 0,1 0,1 0,1 0,1 0,0 0,1 0,1 0,0z M98,696 l-5,0 -4,1 -3,1 -4,0 -4,1 -4,0 -4,1 -4,0 -4,0 -4,-1 -4,0 -3,-1 -3,0 -4,-1 -4,-1 -4,0 0,-1 0,-1 0,0 0,0 0,-1 0,-1 0,-1 0,-2 4,1 4,1 4,1 3,0 3,1 4,0 4,1 4,0 4,0 4,-1 4,0 4,0 4,-1 3,0 4,0 5,0 0,0 0,1 0,0 0,1 0,1 0,0 0,1 0,0z M98,802 l-5,0 -4,1 -3,0 -4,0 -4,1 -4,0 -4,1 -4,0 -4,0 -4,-1 -4,0 -3,-1 -3,0 -4,-1 -4,-1 -4,0 0,0 0,-1 0,0 0,-2 0,0 0,0 0,0 0,-2 4,1 4,1 4,1 3,0 3,1 4,0 4,1 4,0 4,0 4,-1 4,0 4,-1 4,0 3,-1 4,-1 5,-1 0,2 0,0 0,0 0,0 0,2 0,1 0,1 0,0z M106,927 l0,2 0,3 0,2 1,2 0,2 0,2 0,3 0,2 0,6 0,4 -1,4 -1,2 -3,2 -3,1 -4,0 -5,0 -3,0 -2,0 -2,0 -2,-1 -2,0 -3,0 -2,0 -2,0 2,-3 1,-2 2,-2 2,-2 2,-2 2,-3 3,-2 2,-2 2,-2 2,-3 2,-2 3,-2 2,-2 2,-2 3,-3 2,-2z " /><path style="fill:none;stroke:#4c4c4c;stroke-width:2" d="M111,892 l0,-869 0,-3 -1,-2 -1,-3 -2,-2 -2,-2 -3,-2 -3,-2 -3,-2 -3,-1 -4,-1 -4,-1 -4,-1 -4,-1 -4,0 -3,0 -4,0 -4,0 -4,0 -4,1 -4,1 -4,1 -4,1 -4,1 -3,1 -4,2 -3,1 -2,2 -3,2 -2,2 -1,3 -1,2 0,3 0,27 0,27 0,28 0,27 0,27 0,27 0,27 0,27 0,27 0,27 0,27 0,28 0,27 0,27 0,27 0,27 0,27 0,28 0,27 0,27 0,27 0,27 0,27 0,27 0,28 0,27 0,27 0,27 0,27 0,27 0,27 0,28 -8,11 -6,11 -3,10 -2,10 0,9 1,9 2,8 4,7 5,7 6,6 7,5 7,4 8,4 8,3 8,2 8,1 8,-1 9,-1 9,-2 8,-3 8,-5 6,-5 7,-6 5,-7 4,-7 3,-8 1,-9 0,-10 -2,-10 -4,-11 -6,-11 -9,-11" /><path style="fill:none;stroke:#4c4c4c;stroke-width:2" d="M102,892 l7,10 5,11 3,9 2,9 1,8 -1,8 -2,6 -3,6 -4,6 -5,4 -5,4 -6,3 -7,3 -6,2 -8,1 -7,0 -7,0 -7,-1 -7,-2 -7,-3 -6,-3 -5,-4 -5,-4 -4,-6 -3,-6 -2,-6 0,-8 0,-8 2,-9 4,-9 5,-11 6,-10 0,-853 1,-6 3,-6 3,-4 5,-4 5,-3 6,-2 7,-1 6,-1 7,1 6,1 6,2 6,3 4,4 4,4 2,6 1,6 0,853" /><ellipse style="fill:none;stroke:#4c4c4c;stroke-width:2" cx="67" cy="62" rx="31" ry="5" /><ellipse style="fill:none;stroke:#4c4c4c;stroke-width:2" cx="67" cy="167" rx="31" ry="4" /><ellipse style="fill:none;stroke:#4c4c4c;stroke-width:2" cx="67" cy="272" rx="31" ry="4" /><ellipse style="fill:none;stroke:#4c4c4c;stroke-width:2" cx="67" cy="378" rx="31" ry="5" /><ellipse style="fill:none;stroke:#4c4c4c;stroke-width:2" cx="67" cy="484" rx="31" ry="4" /><ellipse style="fill:none;stroke:#4c4c4c;stroke-width:2" cx="67" cy="589" rx="31" ry="4" /><ellipse style="fill:none;stroke:#4c4c4c;stroke-width:2" cx="67" cy="694" rx="31" ry="5" /><ellipse style="fill:none;stroke:#4c4c4c;stroke-width:2" cx="67" cy="800" rx="31" ry="4" /><path style="fill:none;stroke:#4c4c4c;stroke-width:2" d="M106,927 l0,2 0,3 0,2 1,2 0,2 0,2 0,3 0,2 0,6 0,4 -1,4 -1,2 -3,2 -3,1 -4,0 -5,0 -3,0 -2,0 -2,0 -2,-1 -2,0 -3,0 -2,0 -2,0 2,-3 1,-2 2,-2 2,-2 2,-2 2,-3 3,-2 2,-2 2,-2 2,-3 2,-2 3,-2 2,-2 2,-2 3,-3 2,-2" /></svg>