<!DOCTYPE svg PUBLIC "-//W3C//DTD SVG 1.1//EN" "http://www.w3.org/Graphics/SVG/1.1/DTD/svg11.dtd"[]><svg version="1.1" xmlns="http://www.w3.org/2000/svg" xmlns:xlink="http://www.w3.org/1999/xlink" width="112px" height="112px" viewBox="0 0 112.5 112.5" enable-background="new 0 0 112.5 112.5" xml:space="preserve">
<g id="Group_Segmented_Pipe">
	
		<linearGradient id="SVGID_1_" gradientUnits="userSpaceOnUse" x1="73.7217" y1="73.502" x2="38.9685" y2="38.7488" gradientTransform="matrix(1 0 0 1 0.0088 0.0215)">
		<stop offset="0" style="stop-color:#336666" />
		<stop offset="0.5" style="stop-color:#99CCCC" />
		<stop offset="1" style="stop-color:#336666" />
	</linearGradient>
	<path fill="url(#SVGID_1_)" d="M-0.049,77.918L77.972-0.225l34.846,34.661l-78.083,78.083L-0.049,77.918z" />
</g>
<g id="Group_Ring">
	
		<linearGradient id="SVGID_2_" gradientUnits="userSpaceOnUse" x1="-3.7222" y1="117.0039" x2="-3.5001" y2="67.9365" gradientTransform="matrix(0.7039 -0.7103 0.7103 0.7039 -45.1855 26.8788)">
		<stop offset="0" style="stop-color:#336666" />
		<stop offset="0.53" style="stop-color:#C9E8E6" />
		<stop offset="1" style="stop-color:#336666" />
	</linearGradient>
	<polygon fill="url(#SVGID_2_)" points="35.709,111.475 34.909,112.273 0.202,77.596 0.974,76.816  " />
	
		<linearGradient id="SVGID_3_" gradientUnits="userSpaceOnUse" x1="31.6689" y1="117.2041" x2="31.8914" y2="68.0518" gradientTransform="matrix(0.7039 -0.7103 0.7103 0.7039 -45.1855 26.8788)">
		<stop offset="0" style="stop-color:#336666" />
		<stop offset="0.53" style="stop-color:#C9E8E6" />
		<stop offset="1" style="stop-color:#336666" />
	</linearGradient>
	<polygon fill="url(#SVGID_3_)" points="60.75,86.489 59.955,87.271 25.238,52.524 25.978,51.75  " />
	<line fill="none" stroke="#4C4C4C" stroke-width="0.75" x1="25.094" y1="52.651" x2="59.796" y2="87.413" />
	<line fill="none" stroke="#4C4C4C" stroke-width="0.75" x1="0" y1="77.737" x2="34.702" y2="112.5" />
	
		<linearGradient id="SVGID_4_" gradientUnits="userSpaceOnUse" x1="69.4629" y1="117.335" x2="69.685" y2="68.2676" gradientTransform="matrix(0.7039 -0.7103 0.7103 0.7039 -45.1855 26.8788)">
		<stop offset="0" style="stop-color:#336666" />
		<stop offset="0.53" style="stop-color:#C9E8E6" />
		<stop offset="1" style="stop-color:#336666" />
	</linearGradient>
	<polygon fill="url(#SVGID_4_)" points="87.459,59.725 86.659,60.523 51.952,25.846 52.724,25.066  " />
	
		<linearGradient id="SVGID_5_" gradientUnits="userSpaceOnUse" x1="104.8535" y1="117.5352" x2="105.076" y2="68.3828" gradientTransform="matrix(0.7039 -0.7103 0.7103 0.7039 -45.1855 26.8788)">
		<stop offset="0" style="stop-color:#336666" />
		<stop offset="0.53" style="stop-color:#C9E8E6" />
		<stop offset="1" style="stop-color:#336666" />
	</linearGradient>
	<polygon fill="url(#SVGID_5_)" points="112.5,34.739 111.705,35.521 76.988,0.774 77.728,0  " />
	<line fill="none" stroke="#4C4C4C" stroke-width="0.75" x1="76.844" y1="0.901" x2="111.546" y2="35.663" />
	<line fill="none" stroke="#4C4C4C" stroke-width="0.75" x1="51.677" y1="26.067" x2="86.379" y2="60.83" />
</g>
</svg>