<!DOCTYPE svg PUBLIC "-//W3C//DTD SVG 1.1//EN" "http://www.w3.org/Graphics/SVG/1.1/DTD/svg11.dtd"[]><svg version="1.1" xmlns="http://www.w3.org/2000/svg" xmlns:xlink="http://www.w3.org/1999/xlink" width="112px" height="87px" viewBox="0 0 112.5 87.047" enable-background="new 0 0 112.5 87.047" xml:space="preserve">
<g id="Group_Segmented_45_Bend">
	
		<linearGradient id="SVGID_1_" gradientUnits="userSpaceOnUse" x1="91.9336" y1="51.1509" x2="41.9778" y2="27.8561" gradientTransform="matrix(0 1 -1 0 99.7739 -12.7251)">
		<stop offset="0" style="stop-color:#336666" />
		<stop offset="0.5" style="stop-color:#99CCCC" />
		<stop offset="1" style="stop-color:#336666" />
	</linearGradient>
	<path fill="url(#SVGID_1_)" stroke="#4C4C4C" stroke-width="0.25" d="M90.09,37.725L50.676,21.509L30.181,70.608l39.639,16.44   L90.09,37.725z" />
	
		<linearGradient id="SVGID_2_" gradientUnits="userSpaceOnUse" x1="68.4004" y1="84.6089" x2="27.855" y2="44.0635" gradientTransform="matrix(0 1 -1 0 99.7739 -12.7251)">
		<stop offset="0" style="stop-color:#336666" />
		<stop offset="0.5" style="stop-color:#99CCCC" />
		<stop offset="1" style="stop-color:#336666" />
	</linearGradient>
	<path fill="url(#SVGID_2_)" d="M40.439,0l30.436,30.294L30.366,70.876L0,40.51L40.439,0z" />
	
		<linearGradient id="SVGID_3_" gradientUnits="userSpaceOnUse" x1="139.1387" y1="57.1021" x2="98.5933" y2="16.5567" gradientTransform="matrix(0.7071 0.7071 -0.7071 0.7071 32.9946 -51.7275)">
		<stop offset="0" style="stop-color:#336666" />
		<stop offset="0.5" style="stop-color:#99CCCC" />
		<stop offset="1" style="stop-color:#336666" />
	</linearGradient>
	<path fill="url(#SVGID_3_)" d="M69.506,29.794l42.942-0.1l0.052,57.339l-42.944,0.001L69.506,29.794z" />
</g>
<g id="Group_Stripes">
	
		<linearGradient id="SVGID_4_" gradientUnits="userSpaceOnUse" x1="9.4497" y1="117.4243" x2="9.7088" y2="60.1793" gradientTransform="matrix(0.7103 0.7039 -0.7039 0.7103 76.6633 -48.8723)">
		<stop offset="0" style="stop-color:#336666" />
		<stop offset="0.53" style="stop-color:#C9E8E6" />
		<stop offset="1" style="stop-color:#336666" />
	</linearGradient>
	<polygon fill="url(#SVGID_4_)" points="1.195,41.661 0.265,40.728 40.722,0.236 41.631,1.138  " />
	
		<linearGradient id="SVGID_5_" gradientUnits="userSpaceOnUse" x1="50.7412" y1="117.6577" x2="51.0007" y2="60.3131" gradientTransform="matrix(0.7103 0.7039 -0.7039 0.7103 76.6633 -48.8723)">
		<stop offset="0" style="stop-color:#336666" />
		<stop offset="0.53" style="stop-color:#C9E8E6" />
		<stop offset="1" style="stop-color:#336666" />
	</linearGradient>
	<polygon fill="url(#SVGID_5_)" points="30.346,70.876 29.433,69.948 69.972,29.445 70.875,30.308  " />
	<line fill="none" stroke="#4C4C4C" stroke-width="0.4725" x1="69.824" y1="29.276" x2="29.268" y2="69.763" />
	<line fill="none" stroke="#4C4C4C" stroke-width="0.4725" x1="40.557" y1="0" x2="0" y2="40.486" />
	
		<linearGradient id="SVGID_6_" gradientUnits="userSpaceOnUse" x1="78.9111" y1="147.9077" x2="79.1702" y2="90.6612" gradientTransform="matrix(1 -0.0045 0.0045 1 -9.0353 -60.549)">
		<stop offset="0" style="stop-color:#336666" />
		<stop offset="0.53" style="stop-color:#C9E8E6" />
		<stop offset="1" style="stop-color:#336666" />
	</linearGradient>
	<polygon fill="url(#SVGID_6_)" points="71.215,87.003 69.896,87 69.871,29.761 71.152,29.756  " />
	
		<linearGradient id="SVGID_7_" gradientUnits="userSpaceOnUse" x1="120.2021" y1="148.1372" x2="120.4617" y2="90.794" gradientTransform="matrix(1 -0.0045 0.0045 1 -9.0353 -60.549)">
		<stop offset="0" style="stop-color:#336666" />
		<stop offset="0.53" style="stop-color:#C9E8E6" />
		<stop offset="1" style="stop-color:#336666" />
	</linearGradient>
	<polygon fill="url(#SVGID_7_)" points="112.485,87.048 111.183,87.038 111.208,29.732 112.458,29.704  " />
	<line fill="none" stroke="#4C4C4C" stroke-width="0.4725" x1="110.985" y1="29.717" x2="110.936" y2="87.024" />
	<line fill="none" stroke="#4C4C4C" stroke-width="0.4725" x1="69.589" y1="29.711" x2="69.538" y2="87.017" />
</g>
</svg>