<!DOCTYPE svg PUBLIC "-//W3C//DTD SVG 1.1//EN" "http://www.w3.org/Graphics/SVG/1.1/DTD/svg11.dtd"[]><svg version="1.1" xmlns="http://www.w3.org/2000/svg" xmlns:xlink="http://www.w3.org/1999/xlink" width="112px" height="112px" viewBox="0 0 112.5 112.5" enable-background="new 0 0 112.5 112.5" xml:space="preserve">
<g id="Group_90_Bend">
	
		<linearGradient id="SVGID_1_" gradientUnits="userSpaceOnUse" x1="53.5767" y1="56.5415" x2="89.4495" y2="23.0895" gradientTransform="matrix(1 0 0 -1 0 112)">
		<stop offset="0" style="stop-color:#336666" />
		<stop offset="0.5" style="stop-color:#99CCCC" />
		<stop offset="1" style="stop-color:#336666" />
	</linearGradient>
	<path fill="url(#SVGID_1_)" d="M50.422,58.841l24.945,43.452l27.306-27.563L59.716,49.376" />
	
		<linearGradient id="SVGID_2_" gradientUnits="userSpaceOnUse" x1="44.3286" y1="51.6636" x2="56.9075" y2="4.7185" gradientTransform="matrix(1 0 0 -1 0 112)">
		<stop offset="0" style="stop-color:#336666" />
		<stop offset="0.5" style="stop-color:#99CCCC" />
		<stop offset="1" style="stop-color:#336666" />
	</linearGradient>
	<path fill="url(#SVGID_2_)" d="M38.017,111.899l37.671-9.65L50.039,59.01l-12.29,3.089L38.017,111.899z" />
	
		<linearGradient id="SVGID_3_" gradientUnits="userSpaceOnUse" x1="62.0859" y1="72.4521" x2="109.144" y2="55.3244" gradientTransform="matrix(1 0 0 -1 0 112)">
		<stop offset="0" style="stop-color:#336666" />
		<stop offset="0.5" style="stop-color:#99CCCC" />
		<stop offset="1" style="stop-color:#336666" />
	</linearGradient>
	<path fill="url(#SVGID_3_)" d="M102.669,74.465l9.566-36.809l-49.366-0.261l-3.062,11.746L102.669,74.465z" />
	
		<linearGradient id="SVGID_4_" gradientUnits="userSpaceOnUse" x1="114.4053" y1="42.0547" x2="149.6591" y2="77.3085" gradientTransform="matrix(-0.7071 0.7071 0.7071 0.7071 70.5068 -48.501)">
		<stop offset="0" style="stop-color:#336666" />
		<stop offset="0.5" style="stop-color:#99CCCC" />
		<stop offset="1" style="stop-color:#336666" />
	</linearGradient>
	<path fill="url(#SVGID_4_)" d="M38.695,62.219L0.047,62.132L0,111.988h38.65L38.695,62.219z" />
	
		<linearGradient id="SVGID_5_" gradientUnits="userSpaceOnUse" x1="-18.1782" y1="88.6797" x2="17.0763" y2="123.9342" gradientTransform="matrix(0.7071 0.7071 0.7071 -0.7071 12.7803 94.9073)">
		<stop offset="0" style="stop-color:#336666" />
		<stop offset="0.5" style="stop-color:#99CCCC" />
		<stop offset="1" style="stop-color:#336666" />
	</linearGradient>
	<path fill="url(#SVGID_5_)" d="M62.719,0l-0.087,38.648l49.856,0.047V0.045L62.719,0z" />
</g>
<g id="Group_Ring">
	
		<linearGradient id="SVGID_6_" gradientUnits="userSpaceOnUse" x1="83.0498" y1="173.3848" x2="83.2751" y2="123.6099" gradientTransform="matrix(-1 -0.0045 -0.0045 1 121.5926 -61.05)">
		<stop offset="0" style="stop-color:#336666" />
		<stop offset="0.53" style="stop-color:#C9E8E6" />
		<stop offset="1" style="stop-color:#336666" />
	</linearGradient>
	<polygon fill="url(#SVGID_6_)" points="37.156,111.962 38.344,111.959 38.366,62.189 37.213,62.186  " />
	
		<linearGradient id="SVGID_7_" gradientUnits="userSpaceOnUse" x1="120.2119" y1="173.5908" x2="120.4376" y2="123.7329" gradientTransform="matrix(-1 -0.0045 -0.0045 1 121.5926 -61.05)">
		<stop offset="0" style="stop-color:#336666" />
		<stop offset="0.53" style="stop-color:#C9E8E6" />
		<stop offset="1" style="stop-color:#336666" />
	</linearGradient>
	<polygon fill="url(#SVGID_7_)" points="0.014,112 1.186,111.991 1.162,62.165 0.037,62.141  " />
	<line fill="none" stroke="#4C4C4C" stroke-width="0.4" x1="1.363" y1="62.151" x2="1.408" y2="111.979" />
	<line fill="none" stroke="#4C4C4C" stroke-width="0.4" x1="38.62" y1="62.146" x2="38.666" y2="111.973" />
	
		<linearGradient id="SVGID_8_" gradientUnits="userSpaceOnUse" x1="-43.3926" y1="112.0342" x2="-43.1673" y2="62.2603" gradientTransform="matrix(-0.0045 1 1 0.0045 0.2312 43.8215)">
		<stop offset="0" style="stop-color:#336666" />
		<stop offset="0.53" style="stop-color:#C9E8E6" />
		<stop offset="1" style="stop-color:#336666" />
	</linearGradient>
	<polygon fill="url(#SVGID_8_)" points="112.461,1.539 112.459,0.352 62.689,0.329 62.686,1.482  " />
	
		<linearGradient id="SVGID_9_" gradientUnits="userSpaceOnUse" x1="-6.231" y1="112.2402" x2="-6.0053" y2="62.3823" gradientTransform="matrix(-0.0045 1 1 0.0045 0.2312 43.8215)">
		<stop offset="0" style="stop-color:#336666" />
		<stop offset="0.53" style="stop-color:#C9E8E6" />
		<stop offset="1" style="stop-color:#336666" />
	</linearGradient>
	<polygon fill="url(#SVGID_9_)" points="112.5,38.682 112.491,37.51 62.664,37.533 62.641,38.658  " />
	<line fill="none" stroke="#4C4C4C" stroke-width="0.4" x1="62.651" y1="37.332" x2="112.479" y2="37.287" />
	<line fill="none" stroke="#4C4C4C" stroke-width="0.4" x1="62.646" y1="0.075" x2="112.473" y2="0.029" />
	
		<linearGradient id="SVGID_10_" gradientUnits="userSpaceOnUse" x1="55.332" y1="169.4854" x2="55.5602" y2="119.062" gradientTransform="matrix(-0.8683 0.4961 0.4961 0.8683 38.9791 -72.0974)">
		<stop offset="0" style="stop-color:#336666" />
		<stop offset="0.53" style="stop-color:#C9E8E6" />
		<stop offset="1" style="stop-color:#336666" />
	</linearGradient>
	<polygon fill="url(#SVGID_10_)" points="74.434,102.854 75.448,102.251 50.396,58.526 49.406,59.076  " />
	<line fill="none" stroke="#4C4C4C" stroke-width="0.4036" x1="50.956" y1="58.21" x2="75.26" y2="102.355" />
	
		<linearGradient id="SVGID_11_" gradientUnits="userSpaceOnUse" x1="22.4756" y1="145.8936" x2="22.7038" y2="95.4693" gradientTransform="matrix(-0.5039 0.8638 0.8638 0.5039 -11.9136 -18.3445)">
		<stop offset="0" style="stop-color:#336666" />
		<stop offset="0.53" style="stop-color:#C9E8E6" />
		<stop offset="1" style="stop-color:#336666" />
	</linearGradient>
	<polygon fill="url(#SVGID_11_)" points="102.447,75.169 103.025,74.141 59.467,48.799 58.884,49.771  " />
	<line fill="none" stroke="#4C4C4C" stroke-width="0.4036" x1="59.556" y1="48.616" x2="103.126" y2="73.94" />
</g>
</svg>