<!DOCTYPE svg PUBLIC "-//W3C//DTD SVG 1.1//EN" "http://www.w3.org/Graphics/SVG/1.1/DTD/svg11.dtd"[]><svg version="1.1" xmlns="http://www.w3.org/2000/svg" xmlns:xlink="http://www.w3.org/1999/xlink" width="112px" height="112px" viewBox="0 0 112.5 112.5" enable-background="new 0 0 112.5 112.5" xml:space="preserve">
<g id="Group_90_Bend">
	
		<linearGradient id="SVGID_1_" gradientUnits="userSpaceOnUse" x1="53.5762" y1="56.542" x2="89.4488" y2="23.0902" gradientTransform="matrix(-1 0 0 1 112.5 0)">
		<stop offset="0" style="stop-color:#336666" />
		<stop offset="0.5" style="stop-color:#99CCCC" />
		<stop offset="1" style="stop-color:#336666" />
	</linearGradient>
	<path fill="url(#SVGID_1_)" d="M62.078,53.159L37.133,9.707L9.827,37.271l42.957,25.353" />
	
		<linearGradient id="SVGID_2_" gradientUnits="userSpaceOnUse" x1="44.3286" y1="51.6641" x2="56.9075" y2="4.719" gradientTransform="matrix(-1 0 0 1 112.5 0)">
		<stop offset="0" style="stop-color:#336666" />
		<stop offset="0.5" style="stop-color:#99CCCC" />
		<stop offset="1" style="stop-color:#336666" />
	</linearGradient>
	<path fill="url(#SVGID_2_)" d="M74.483,0.101L36.813,9.751L62.461,52.99l12.29-3.089L74.483,0.101z" />
	
		<linearGradient id="SVGID_3_" gradientUnits="userSpaceOnUse" x1="62.0859" y1="72.4521" x2="109.144" y2="55.3244" gradientTransform="matrix(-1 0 0 1 112.5 0)">
		<stop offset="0" style="stop-color:#336666" />
		<stop offset="0.5" style="stop-color:#99CCCC" />
		<stop offset="1" style="stop-color:#336666" />
	</linearGradient>
	<path fill="url(#SVGID_3_)" d="M9.831,37.535L0.265,74.344l49.366,0.261l3.062-11.746L9.831,37.535z" />
	
		<linearGradient id="SVGID_4_" gradientUnits="userSpaceOnUse" x1="114.4053" y1="42.0547" x2="149.6598" y2="77.3092" gradientTransform="matrix(0.7071 -0.7071 -0.7071 -0.7071 41.9932 160.501)">
		<stop offset="0" style="stop-color:#336666" />
		<stop offset="0.5" style="stop-color:#99CCCC" />
		<stop offset="1" style="stop-color:#336666" />
	</linearGradient>
	<path fill="url(#SVGID_4_)" d="M73.805,49.782l38.648,0.086L112.5,0.012l-38.65,0L73.805,49.782z" />
	
		<linearGradient id="SVGID_5_" gradientUnits="userSpaceOnUse" x1="-18.1777" y1="88.6807" x2="17.0768" y2="123.9352" gradientTransform="matrix(-0.7071 -0.7071 -0.7071 0.7071 99.7197 17.0928)">
		<stop offset="0" style="stop-color:#336666" />
		<stop offset="0.5" style="stop-color:#99CCCC" />
		<stop offset="1" style="stop-color:#336666" />
	</linearGradient>
	<path fill="url(#SVGID_5_)" d="M49.781,112l0.087-38.648L0.012,73.305v38.65L49.781,112z" />
</g>
<g id="Group_Ring">
	
		<linearGradient id="SVGID_6_" gradientUnits="userSpaceOnUse" x1="83.0508" y1="173.3838" x2="83.276" y2="123.6089" gradientTransform="matrix(1 0.0045 0.0045 -1 -9.0925 173.05)">
		<stop offset="0" style="stop-color:#336666" />
		<stop offset="0.53" style="stop-color:#C9E8E6" />
		<stop offset="1" style="stop-color:#336666" />
	</linearGradient>
	<polygon fill="url(#SVGID_6_)" points="75.344,0.039 74.156,0.042 74.134,49.811 75.287,49.814  " />
	
		<linearGradient id="SVGID_7_" gradientUnits="userSpaceOnUse" x1="120.2119" y1="173.5908" x2="120.4376" y2="123.732" gradientTransform="matrix(1 0.0045 0.0045 -1 -9.0925 173.05)">
		<stop offset="0" style="stop-color:#336666" />
		<stop offset="0.53" style="stop-color:#C9E8E6" />
		<stop offset="1" style="stop-color:#336666" />
	</linearGradient>
	<polygon fill="url(#SVGID_7_)" points="112.486,0 111.314,0.009 111.338,49.835 112.463,49.86  " />
	<line fill="none" stroke="#4C4C4C" stroke-width="0.4" x1="111.137" y1="49.849" x2="111.092" y2="0.021" />
	<line fill="none" stroke="#4C4C4C" stroke-width="0.4" x1="73.88" y1="49.854" x2="73.834" y2="0.027" />
	
		<linearGradient id="SVGID_8_" gradientUnits="userSpaceOnUse" x1="-43.3926" y1="112.0342" x2="-43.1673" y2="62.2598" gradientTransform="matrix(0.0045 -1 -1 -0.0045 112.2688 68.1785)">
		<stop offset="0" style="stop-color:#336666" />
		<stop offset="0.53" style="stop-color:#C9E8E6" />
		<stop offset="1" style="stop-color:#336666" />
	</linearGradient>
	<polygon fill="url(#SVGID_8_)" points="0.039,110.461 0.041,111.648 49.811,111.671 49.814,110.518  " />
	
		<linearGradient id="SVGID_9_" gradientUnits="userSpaceOnUse" x1="-6.2314" y1="112.2402" x2="-6.0058" y2="62.3819" gradientTransform="matrix(0.0045 -1 -1 -0.0045 112.2688 68.1785)">
		<stop offset="0" style="stop-color:#336666" />
		<stop offset="0.53" style="stop-color:#C9E8E6" />
		<stop offset="1" style="stop-color:#336666" />
	</linearGradient>
	<polygon fill="url(#SVGID_9_)" points="0,73.318 0.009,74.49 49.836,74.467 49.859,73.342  " />
	<line fill="none" stroke="#4C4C4C" stroke-width="0.4" x1="49.849" y1="74.668" x2="0.021" y2="74.713" />
	<line fill="none" stroke="#4C4C4C" stroke-width="0.4" x1="49.854" y1="111.925" x2="0.027" y2="111.971" />
	
		<linearGradient id="SVGID_10_" gradientUnits="userSpaceOnUse" x1="55.332" y1="169.4854" x2="55.5602" y2="119.062" gradientTransform="matrix(0.8683 -0.4961 -0.4961 -0.8683 73.521 184.0974)">
		<stop offset="0" style="stop-color:#336666" />
		<stop offset="0.53" style="stop-color:#C9E8E6" />
		<stop offset="1" style="stop-color:#336666" />
	</linearGradient>
	<polygon fill="url(#SVGID_10_)" points="38.066,9.147 37.052,9.749 62.104,53.474 63.094,52.924  " />
	<line fill="none" stroke="#4C4C4C" stroke-width="0.4036" x1="61.544" y1="53.791" x2="37.24" y2="9.645" />
	
		<linearGradient id="SVGID_11_" gradientUnits="userSpaceOnUse" x1="22.4756" y1="145.8936" x2="22.7038" y2="95.4693" gradientTransform="matrix(0.5039 -0.8638 -0.8638 -0.5039 124.4136 130.3445)">
		<stop offset="0" style="stop-color:#336666" />
		<stop offset="0.53" style="stop-color:#C9E8E6" />
		<stop offset="1" style="stop-color:#336666" />
	</linearGradient>
	<polygon fill="url(#SVGID_11_)" points="10.053,36.831 9.475,37.859 53.033,63.201 53.616,62.229  " />
	<line fill="none" stroke="#4C4C4C" stroke-width="0.4036" x1="52.944" y1="63.384" x2="9.374" y2="38.06" />
</g>
</svg>