<!DOCTYPE svg PUBLIC "-//W3C//DTD SVG 1.1//EN" "http://www.w3.org/Graphics/SVG/1.1/DTD/svg11.dtd"[]><svg version="1.1" xmlns="http://www.w3.org/2000/svg" xmlns:xlink="http://www.w3.org/1999/xlink" width="112px" height="98px" viewBox="0 0 112.5 98.309" enable-background="new 0 0 112.5 98.309" xml:space="preserve">
<g id="Group_Segmented_Pipe">
	
		<linearGradient id="SVGID_1_" gradientUnits="userSpaceOnUse" x1="56.1582" y1="47.1172" x2="22.7916" y2="13.7506" gradientTransform="matrix(0.7071 0.7071 -0.7071 0.7071 52.8879 -25.8254)">
		<stop offset="0" style="stop-color:#336666" />
		<stop offset="0.5" style="stop-color:#99CCCC" />
		<stop offset="1" style="stop-color:#336666" />
	</linearGradient>
	<path fill="url(#SVGID_1_)" d="M6.099,0.096l106.238-0.082l0.126,47.188H6.223L6.099,0.096z" />
	
		<linearGradient id="SVGID_2_" gradientUnits="userSpaceOnUse" x1="-0.1938" y1="83.4688" x2="0.0193" y2="36.3603" gradientTransform="matrix(1 -0.0045 0.0045 1 6.8603 -36.3176)">
		<stop offset="0" style="stop-color:#336666" />
		<stop offset="0.53" style="stop-color:#C9E8E6" />
		<stop offset="1" style="stop-color:#336666" />
	</linearGradient>
	<polygon fill="url(#SVGID_2_)" points="7.596,47.152 6.508,47.152 6.489,0.049 7.543,0.043  " />
	
		<linearGradient id="SVGID_3_" gradientUnits="userSpaceOnUse" x1="33.856" y1="83.6611" x2="34.0695" y2="36.4707" gradientTransform="matrix(1 -0.0045 0.0045 1 6.8603 -36.3176)">
		<stop offset="0" style="stop-color:#336666" />
		<stop offset="0.53" style="stop-color:#C9E8E6" />
		<stop offset="1" style="stop-color:#336666" />
	</linearGradient>
	<polygon fill="url(#SVGID_3_)" points="41.629,47.191 40.557,47.184 40.579,0.023 41.607,0  " />
	<line fill="none" stroke="#4C4C4C" stroke-width="0.3892" x1="40.393" y1="0.012" x2="40.352" y2="47.171" />
	<line fill="none" stroke="#4C4C4C" stroke-width="0.3892" x1="6.256" y1="0.006" x2="6.213" y2="47.166" />
	
		<linearGradient id="SVGID_4_" gradientUnits="userSpaceOnUse" x1="70.2148" y1="83.7861" x2="70.428" y2="36.6777" gradientTransform="matrix(1 -0.0045 0.0045 1 6.8603 -36.3176)">
		<stop offset="0" style="stop-color:#336666" />
		<stop offset="0.53" style="stop-color:#C9E8E6" />
		<stop offset="1" style="stop-color:#336666" />
	</linearGradient>
	<polygon fill="url(#SVGID_4_)" points="78.007,47.152 76.919,47.152 76.898,0.049 77.955,0.043  " />
	
		<linearGradient id="SVGID_5_" gradientUnits="userSpaceOnUse" x1="104.7461" y1="83.9805" x2="104.9597" y2="36.79" gradientTransform="matrix(1 -0.0045 0.0045 1 6.8603 -36.3176)">
		<stop offset="0" style="stop-color:#336666" />
		<stop offset="0.53" style="stop-color:#C9E8E6" />
		<stop offset="1" style="stop-color:#336666" />
	</linearGradient>
	<polygon fill="url(#SVGID_5_)" points="112.521,47.191 111.449,47.184 111.47,0.023 112.498,0  " />
	<line fill="none" stroke="#4C4C4C" stroke-width="0.3892" x1="111.285" y1="0.012" x2="111.245" y2="47.171" />
	<line fill="none" stroke="#4C4C4C" stroke-width="0.3892" x1="76.561" y1="0.012" x2="76.521" y2="47.171" />
</g>
<g id="Group_Angle">
	
		<linearGradient id="SVGID_6_" gradientUnits="userSpaceOnUse" x1="25.3677" y1="58.5625" x2="59.0127" y2="24.9175" gradientTransform="matrix(1 0 0 -1 0 98.3086)">
		<stop offset="0" style="stop-color:#336666" />
		<stop offset="0.5" style="stop-color:#99CCCC" />
		<stop offset="1" style="stop-color:#336666" />
	</linearGradient>
	<path fill="url(#SVGID_6_)" d="M0,65.154l33.5,33.154l47.25-46.654c0,0,4-4,0.75-6.5s-9.25-8.75-21.75-9.25s-29.5,0.25-35.75,5.75   S0,65.154,0,65.154z" />
	<path fill="none" stroke="#4C4C4C" stroke-width="0.4" d="M23.204,42.69c0.313-0.278,0.61-0.547,0.879-0.786   c6.25-5.498,23.252-6.25,35.752-5.749c12.5,0.5,18.496,6.75,21.748,9.25c0.796,0.613,1.152,1.313,1.245,2.026" />
	
		<linearGradient id="SVGID_7_" gradientUnits="userSpaceOnUse" x1="23.2871" y1="56.1758" x2="82.9116" y2="56.1758" gradientTransform="matrix(1 0 0 -1 0 98.3086)">
		<stop offset="0" style="stop-color:#336666" />
		<stop offset="0.53" style="stop-color:#C9E8E6" />
		<stop offset="1" style="stop-color:#336666" />
	</linearGradient>
	<path fill="url(#SVGID_7_)" d="M81.393,47.972c-0.098,0.043-0.195,0.09-0.288,0.134c-4.81-4.587-11.299-9.06-18.14-9.814   c-2.212-0.62-4.624-0.986-7.275-0.986c-0.986,0-1.938,0.049-2.861,0.14c-0.088-0.006-0.156-0.037-0.244-0.039   c-3.628-0.066-7.373,0.336-11.064,0.954c-0.088,0-0.176,0.022-0.264,0.024c-1.035,0.021-2.061,0.129-3.076,0.271   c-1.758,0.229-3.501,0.524-5.181,0.793c-2.285,0.363-4.546,1.367-6.636,2.742c-0.435-0.025-0.859-0.068-1.309-0.076   c-0.225-0.07-0.464-0.176-0.688-0.239c6.406-5.349,23.179-6.081,35.547-5.586c12.5,0.501,18.501,6.751,21.753,9.251   c0.796,0.612,1.152,1.315,1.245,2.025C82.403,47.624,81.891,47.754,81.393,47.972z" />
</g>
</svg>