<svg version="1.1" xmlns="http://www.w3.org/2000/svg" xmlns:xlink="http://www.w3.org/1999/xlink" width="112px" height="110px" viewBox="0 0 112.5 109.684" enable-background="new 0 0 112.5 109.684" xml:space="preserve">
<g id="Group_Spherical_Tank">
	<ellipse fill="#D1D1D1" stroke="#4C4C4C" stroke-width="0.1" cx="39.335" cy="13.104" rx="12.082" ry="13.005" />
	<ellipse fill="#D1D1D1" stroke="#4C4C4C" stroke-width="0.1" cx="67.335" cy="13.104" rx="12.082" ry="13.005" />
	<radialGradient id="SVGID_1_" cx="54.417" cy="9.8379" r="12.6843" gradientUnits="userSpaceOnUse">
		<stop offset="0" style="stop-color:#E6E6E6" />
		<stop offset="0.5" style="stop-color:#CCCCCC" />
		<stop offset="1" style="stop-color:#CCCCCC" />
	</radialGradient>
	<rect x="39.417" fill="url(#SVGID_1_)" width="30" height="19.676" />
</g>
<g id="Group_Cooling_Tower">
	<linearGradient id="SVGID_2_" gradientUnits="userSpaceOnUse" x1="81.8389" y1="102.272" x2="45.2918" y2="1.8598">
		<stop offset="0" style="stop-color:#CCCCCC" />
		<stop offset="0.3" style="stop-color:#CCCCCC" />
		<stop offset="0.5" style="stop-color:#E6E6E6" />
		<stop offset="1" style="stop-color:#E6E6E6" />
	</linearGradient>
	<path fill="url(#SVGID_2_)" stroke="#4C4C4C" stroke-width="0.1" d="M27.252,103.153h21.284v6.531h9.909v-6.531l21.284-0.112   l26.352-85.022H0.901L27.252,103.153z" />
</g>
<g id="Group_Cooling_Rods">
	<path fill="none" stroke="#4C4C4C" stroke-width="0.25" d="M104.842,26.239l2.703,2.252l-7.094,0.676l5.404,4.617l-7.094,0.676   l5.404,4.504l-7.094,0.676l5.405,4.617l-7.095,0.676l5.405,4.617l-6.981,0.563L99.1,54.73l-6.982,0.675l5.405,4.617l-7.095,0.676   l5.406,4.505l-7.096,0.676l5.519,4.617l-7.095,0.676l5.405,4.505l-7.095,0.676l5.406,4.617l-7.096,0.675l5.406,4.505l-7.095,0.676   l5.405,4.617l-3.604,0.338" />
	<path fill="none" stroke="#4C4C4C" stroke-width="0.25" d="M2.703,26.239L0,28.491l6.982,0.676l-5.405,4.617l7.095,0.676   l-5.406,4.504l7.095,0.676l-5.405,4.617l7.094,0.676L6.644,49.55l6.982,0.563L8.333,54.73l6.982,0.675L9.91,60.022l7.095,0.676   l-5.405,4.505l7.095,0.676l-5.406,4.617l7.095,0.676l-5.405,4.505l6.982,0.676l-5.293,4.617l6.982,0.675l-5.405,4.505l7.095,0.676   l-5.405,4.617l3.604,0.338" />
</g>
<g id="Group_Lines">
	<path fill="none" stroke="#4C4C4C" stroke-width="0.25" d="M79.729,13.063H112.5" />
	<path fill="none" stroke="#4C4C4C" stroke-width="0.25" d="M94.369,18.018v-4.955" />
	<path fill="#FFFFFF" stroke="#4C4C4C" stroke-width="0.25" d="M15.766,13.063h8.221v4.955h-8.221V13.063z" />
	<path fill="#FFFFFF" stroke="#4C4C4C" stroke-width="0.25" d="M1.014,13.063h8.221v4.955H1.014V13.063z" />
	<path fill="#FFFFFF" stroke="#4C4C4C" stroke-width="0.25" d="M82.883,13.063h8.334v4.955h-8.334V13.063z" />
	<path fill="none" stroke="#4C4C4C" stroke-width="0.25" d="M48.536,103.153h9.909" />
</g>
<g id="Group_Fins">
	<ellipse fill="none" stroke="#4C4C4C" stroke-width="0.25" cx="42.004" cy="5.631" rx="11.487" ry="2.365" />
	<ellipse fill="none" stroke="#4C4C4C" stroke-width="0.25" cx="64.978" cy="5.631" rx="11.486" ry="2.365" />
	<path fill="#E5E5E5" stroke="#4C4C4C" stroke-width="0.25" d="M51.802,3.266h3.266v4.843h-3.266V3.266z" />
</g>
</svg>