<svg version="1.1" xmlns="http://www.w3.org/2000/svg" xmlns:xlink="http://www.w3.org/1999/xlink" width="62px" height="112px" viewBox="0 0 61.826 112.5" enable-background="new 0 0 61.826 112.5" xml:space="preserve">
<g id="Group_Motor">
	<path fill="#99CCCC" stroke="#4C4C4C" stroke-width="0.25" d="M23.086,28.266h15.766v1.802H23.086V28.266z" />
	<path fill="#99CCCC" stroke="#4C4C4C" stroke-width="0.25" d="M23.086,48.986h15.766v1.802H23.086V48.986z" />
	<path fill="#99CCCC" d="M38.853,48.986l-1.352-1.351V31.419l1.165-1.352H23.269l0.944,1.352v16.216l-1.126,1.351H38.853z" />
	<path fill="#99CCCC" d="M21.51,50.788v1.802l6.306-0.675h6.306l6.082,0.675v-1.802H21.51z" />
	<path fill="#99CCCC" d="M23.086,26.464h15.766v1.802H23.086V26.464z" />
	<path fill="#99CCCC" d="M43.132,20.045l-1.352,0.338h-3.604l-0.676,0.676v4.279l1.187,1.126H23.241l0.972-1.126v-4.279   c0,0,0.45-0.597,0.675-0.676c0.696-0.242,2.217,0.531,2.928,0.338c0.23-0.063,0.676-0.676,0.676-0.676v-5.518h-0.676V8.446   l0.676-7.432h-0.676l2.478-0.451L35.699,0l5.631,0.563l2.252,0.451h-0.45l0.45,7.432v6.081h-0.45V20.045z" />
	<path fill="none" stroke="#4C4C4C" stroke-width="0.25" d="M23.241,48.937l15.446-0.009l-1.187-1.293V31.419l1.165-1.352H23.269   l0.944,1.352v16.216L23.241,48.937z" />
	<path fill="none" stroke="#4C4C4C" stroke-width="0.25" d="M21.51,52.59l6.306-0.675h6.306l6.082,0.675v-1.802H21.51V52.59z" />
	<path fill="none" stroke="#4C4C4C" stroke-width="0.25" d="M23.086,26.464h15.766v1.802H23.086V26.464z" />
	<path fill="none" stroke="#4C4C4C" stroke-width="0.25" d="M43.132,20.045c0,0-1.006,0.295-1.352,0.338   c-0.894,0.11-3.604,0-3.604,0l-0.676,0.676v4.279l1.187,1.126H23.241l0.972-1.126v-4.279c0,0,0.45-0.597,0.675-0.676   c0.696-0.242,2.217,0.531,2.928,0.338c0.23-0.063,0.676-0.676,0.676-0.676v-5.518h-0.676V8.446l0.676-7.432h-0.676l2.478-0.451   L35.699,0l5.631,0.563l2.252,0.451h-0.45l0.45,7.432v6.081h-0.45V20.045z" />
	<path fill="none" stroke="#4C4C4C" stroke-width="0.25" d="M28.492,14.527h14.64" />
	<path fill="none" stroke="#4C4C4C" stroke-width="0.25" d="M43.582,8.446H27.816" />
	<path fill="none" stroke="#4C4C4C" stroke-width="0.25" d="M38.177,20.383h-4.279c0,0-0.451,0.22-0.451,0.676" />
	<path fill="none" stroke="#4C4C4C" stroke-width="0.25" d="M35.249,21.734c0,0.45,0.45,0.45,0.45,0.45h1.802" />
	<path fill="#003333" stroke="#4C4C4C" stroke-width="0.25" d="M28.492,1.014h14.64l-4.955,0.225v1.689h-4.73V1.239L28.492,1.014z" />
	<path fill="#336666" d="M26.69,33.221h8.559v11.486H26.69V33.221z" />
	<path fill="none" stroke="#003333" stroke-width="0.25" d="M26.69,44.707V33.221h8.559" />
	<path fill="none" stroke="#CCFFFF" stroke-width="0.25" d="M35.249,33.221v11.486H26.69" />
</g>
<g id="Group_Background">
	<path stroke="#4C4C4C" stroke-width="0.25" d="M33.446,110.022h-4.954c0,0-8.154,0.222-12.811-1.363   c-5.498-1.871-9.036-7.083-9.036-7.083V60.248c0,0,2.701-3.651,7.72-5.993c4.267-1.991,13.451-2.341,13.451-2.341h6.306   c0,0,8.353,0.086,13.568,2.293c6.162,2.607,7.378,6.04,7.378,6.04v41.328c0,0-1.535,4.517-8.786,7.181   C41.771,110.414,33.446,110.022,33.446,110.022z" />
</g>
<g id="Group_Column">
	<path fill="#E5E5E5" stroke="#4C4C4C" stroke-width="0.25" d="M33.446,109.234h-4.954c0,0-7.85-0.461-11.937-1.689   c-4.604-1.384-9.234-6.307-9.234-6.307v-40.54c0,0,2.899-3.286,7.593-5.562c4.946-2.398,12.903-2.546,12.903-2.546h6.306   c0,0,9.349,0.812,12.572,2.092c6.071,2.411,7.924,6.016,7.924,6.016v40.54c0,0-4.733,4.945-9.234,6.307   C41.961,108.58,33.446,109.234,33.446,109.234z" />
</g>
<g id="Group_MixingRod">
	<path fill="#B2B2B2" stroke="#4C4C4C" stroke-width="0.25" d="M29.843,87.05v-1.126h-1.351v-2.479h1.351V56.194h-0.676v-1.126   h-0.675l-0.676-2.478h6.306l-0.676,2.478h-0.675v1.126h-0.676v27.251h1.351v2.479h-1.351v1.126H29.843z" />
	<path fill="none" stroke="#4C4C4C" stroke-width="0.25" d="M21.285,85.924h19.37" />
	<path fill="none" stroke="#4C4C4C" stroke-width="0.25" d="M30.97,84.121v3.604" />
	<path fill="none" stroke="#4C4C4C" stroke-width="0.25" d="M29.843,56.194h2.252" />
	<path fill="none" stroke="#4C4C4C" stroke-width="0.25" d="M32.771,55.067h-3.604" />
	<path fill="#7F7F7F" stroke="#4C4C4C" stroke-width="0.25" d="M29.843,44.707v-7.883h-0.676v-3.604h3.604v3.604h-0.676v7.883   H29.843z" />
</g>
<g id="Group_Frame">
	<path fill="none" stroke="#4C4C4C" stroke-width="0.25" d="M50.339,71.283h4.729v30.293c0,0-1.159,1.882-1.688,2.425   c-0.654,0.671-3.041,2.599-3.041,2.599V71.283" />
	<path fill="#B2B2B2" stroke="#4C4C4C" stroke-width="0.25" d="M49.888,71.283h4.73v29.955c0,0-1.118,1.271-2.119,2.121   c-0.727,0.617-2.611,1.869-2.611,1.869V71.283z" />
	<path fill="#B2B2B2" stroke="#4C4C4C" stroke-width="0.25" d="M12.236,105.377c0,0-1.996-1.529-2.851-2.196   c-0.561-0.438-2.064-1.942-2.064-1.942V71.283h4.842L12.236,105.377z" />
</g>
<g id="Group_MixingBlade">
	<path fill="#B2B2B2" stroke="#4C4C4C" stroke-width="0.25" d="M17.681,84.121h4.73v3.604h-4.73V84.121z" />
	<path fill="#B2B2B2" stroke="#4C4C4C" stroke-width="0.25" d="M39.528,84.121h4.729v3.604h-4.729V84.121z" />
</g>
<g id="Group_Stands">
	<rect x="0.001" y="80.969" fill="#FFFFFF" width="8.446" height="1.126" />
	<rect x="53.267" y="80.969" fill="#FFFFFF" width="8.559" height="1.126" />
	<rect x="4.843" y="61.374" fill="#FFFFFF" width="1.802" height="1.126" />
	<rect x="4.843" y="60.473" fill="#FFFFFF" width="1.802" height="2.928" />
	<rect x="55.068" y="61.374" fill="#FFFFFF" width="1.802" height="1.126" />
	<rect x="55.068" y="60.473" fill="#FFFFFF" width="1.802" height="2.928" />
	<path fill="none" stroke="#4C4C4C" stroke-width="0.25" d="M8.447,80.969H0.001v1.126h8.446V80.969z" />
	<path fill="none" stroke="#4C4C4C" stroke-width="0.25" d="M53.267,80.969h8.559v1.126h-8.559V80.969z" />
	<path fill="none" stroke="#4C4C4C" stroke-width="0.25" d="M4.843,61.374h1.802V62.5H4.843V61.374" />
	<path fill="none" stroke="#4C4C4C" stroke-width="0.25" d="M4.843,60.473h1.802V63.4H4.843V60.473z" />
	<path fill="none" stroke="#4C4C4C" stroke-width="0.25" d="M55.068,61.374h1.802V62.5h-1.802V61.374" />
	<path fill="none" stroke="#4C4C4C" stroke-width="0.25" d="M55.068,60.473h1.802V63.4h-1.802V60.473" />
	<path fill="none" stroke="#4C4C4C" stroke-width="0.25" d="M61.825,80.969l-8.559-7.207" />
	<path fill="none" stroke="#4C4C4C" stroke-width="0.25" d="M0.226,80.969l8.559-7.207" />
</g>
<g id="Group_Port2">
	<rect x="1.916" y="63.4" fill="#FFFFFF" width="1.239" height="9.686" />
	<rect x="3.154" y="65.879" fill="#FFFFFF" width="3.491" height="4.955" />
	<path fill="none" stroke="#4C4C4C" stroke-width="0.25" d="M3.154,63.4v9.686H1.916V63.4H3.154z" />
	<path fill="none" stroke="#4C4C4C" stroke-width="0.25" d="M6.645,65.879v4.955H3.154v-4.955H6.645" />
</g>
<g id="Group_Port1">
	<rect x="26.015" y="111.374" fill="#FFFFFF" width="9.685" height="1.126" />
	<rect x="28.492" y="107.545" fill="#FFFFFF" width="4.954" height="3.829" />
	<path fill="none" stroke="#4C4C4C" stroke-width="0.25" d="M26.015,111.374h9.685v1.126h-9.685V111.374z" />
	<path fill="none" stroke="#4C4C4C" stroke-width="0.25" d="M28.492,107.545h4.954v3.829h-4.954V107.545z" />
</g>
</svg>