<svg version="1.1" xmlns="http://www.w3.org/2000/svg" xmlns:xlink="http://www.w3.org/1999/xlink" width="24px" height="112px" viewBox="0 0 24.351 112.5" enable-background="new 0 0 24.351 112.5" xml:space="preserve">
<g id="Group_Background">
	<path fill="#4C4C4C" stroke="#4C4C4C" stroke-width="0.25" d="M21.418,110.368c0,0-2.142,2.141-9.3,2.132   c-6.673-0.008-9.3-2.316-9.3-2.316V5.186c0,0,1.493-5.186,9.356-5.186c8.176,0,9.243,4.516,9.243,4.516V110.368z" />
</g>
<g id="Group_Column">
	<linearGradient id="SVGID_1_" gradientUnits="userSpaceOnUse" x1="3.3828" y1="56.1758" x2="20.855" y2="56.1758">
		<stop offset="0" style="stop-color:#636363" />
		<stop offset="0.5" style="stop-color:#F2F2F2" />
		<stop offset="1" style="stop-color:#636363" />
	</linearGradient>
	<path fill="url(#SVGID_1_)" d="M20.855,110.184c0,0-4.689,1.717-8.68,1.717c-3.286,0-8.792-1.772-8.792-1.772V5.186   c0,0,2.355-4.734,8.792-4.734c6.334,0,8.68,4.17,8.68,4.17v0.564V110.184z" />
	<path fill="none" stroke="#999999" stroke-width="0.25" d="M10.033,109.344h1.466" />
	<path fill="none" stroke="#999999" stroke-width="0.25" d="M10.033,8.68v18.6" />
	<path fill="none" stroke="#999999" stroke-width="0.25" d="M11.499,8.68v18.6" />
	<path fill="none" stroke="#999999" stroke-width="0.25" d="M10.033,10.146h1.466" />
	<path fill="none" stroke="#999999" stroke-width="0.25" d="M10.033,11.724h1.466" />
	<path fill="none" stroke="#999999" stroke-width="0.25" d="M10.033,13.302h1.466" />
	<path fill="none" stroke="#999999" stroke-width="0.25" d="M10.033,14.88h1.466" />
	<path fill="none" stroke="#999999" stroke-width="0.25" d="M10.033,16.458h1.466" />
	<path fill="none" stroke="#999999" stroke-width="0.25" d="M10.033,17.923h1.466" />
	<path fill="none" stroke="#999999" stroke-width="0.25" d="M10.033,19.501h1.466" />
	<path fill="none" stroke="#999999" stroke-width="0.25" d="M10.033,21.08h1.466" />
	<path fill="none" stroke="#999999" stroke-width="0.25" d="M10.033,22.545h1.466" />
	<path fill="none" stroke="#999999" stroke-width="0.25" d="M10.033,24.123h1.466" />
	<path fill="none" stroke="#999999" stroke-width="0.25" d="M10.033,25.701h1.466" />
	<path fill="none" stroke="#999999" stroke-width="0.25" d="M6.877,22.658v18.487" />
	<path fill="none" stroke="#999999" stroke-width="0.25" d="M8.455,22.658v18.487" />
	<path fill="none" stroke="#999999" stroke-width="0.25" d="M6.877,24.123h1.578" />
	<path fill="none" stroke="#999999" stroke-width="0.25" d="M6.877,25.701h1.578" />
	<path fill="none" stroke="#999999" stroke-width="0.25" d="M6.877,27.167h1.578" />
	<path fill="none" stroke="#999999" stroke-width="0.25" d="M6.877,28.858h1.578" />
	<path fill="none" stroke="#999999" stroke-width="0.25" d="M6.877,30.323h1.578" />
	<path fill="none" stroke="#999999" stroke-width="0.25" d="M6.877,31.901h1.578" />
	<path fill="none" stroke="#999999" stroke-width="0.25" d="M6.877,33.367h1.578" />
	<path fill="none" stroke="#999999" stroke-width="0.25" d="M6.877,34.945h1.578" />
	<path fill="none" stroke="#999999" stroke-width="0.25" d="M6.877,36.523h1.578" />
	<path fill="none" stroke="#999999" stroke-width="0.25" d="M6.877,38.101h1.578" />
	<path fill="none" stroke="#999999" stroke-width="0.25" d="M6.877,39.679h1.578" />
	<path fill="none" stroke="#999999" stroke-width="0.25" d="M10.033,36.523v18.6" />
	<path fill="none" stroke="#999999" stroke-width="0.25" d="M11.499,36.523v18.6" />
	<path fill="none" stroke="#999999" stroke-width="0.25" d="M10.033,38.101h1.466" />
	<path fill="none" stroke="#999999" stroke-width="0.25" d="M10.033,39.679h1.466" />
	<path fill="none" stroke="#999999" stroke-width="0.25" d="M10.033,41.145h1.466" />
	<path fill="none" stroke="#999999" stroke-width="0.25" d="M10.033,42.723h1.466" />
	<path fill="none" stroke="#999999" stroke-width="0.25" d="M10.033,44.301h1.466" />
	<path fill="none" stroke="#999999" stroke-width="0.25" d="M10.033,45.879h1.466" />
	<path fill="none" stroke="#999999" stroke-width="0.25" d="M10.033,47.345h1.466" />
	<path fill="none" stroke="#999999" stroke-width="0.25" d="M10.033,48.923h1.466" />
	<path fill="none" stroke="#999999" stroke-width="0.25" d="M10.033,50.388h1.466" />
	<path fill="none" stroke="#999999" stroke-width="0.25" d="M10.033,52.079h1.466" />
	<path fill="none" stroke="#999999" stroke-width="0.25" d="M10.033,53.544h1.466" />
	<path fill="none" stroke="#999999" stroke-width="0.25" d="M6.877,50.501v18.6" />
	<path fill="none" stroke="#999999" stroke-width="0.25" d="M8.455,50.501v18.6" />
	<path fill="none" stroke="#999999" stroke-width="0.25" d="M6.877,51.966h1.578" />
	<path fill="none" stroke="#999999" stroke-width="0.25" d="M6.877,53.544h1.578" />
	<path fill="none" stroke="#999999" stroke-width="0.25" d="M6.877,55.123h1.578" />
	<path fill="none" stroke="#999999" stroke-width="0.25" d="M6.877,56.701h1.578" />
	<path fill="none" stroke="#999999" stroke-width="0.25" d="M6.877,58.279h1.578" />
	<path fill="none" stroke="#999999" stroke-width="0.25" d="M6.877,59.744h1.578" />
	<path fill="none" stroke="#999999" stroke-width="0.25" d="M6.877,61.322h1.578" />
	<path fill="none" stroke="#999999" stroke-width="0.25" d="M6.877,62.9h1.578" />
	<path fill="none" stroke="#999999" stroke-width="0.25" d="M6.877,64.366h1.578" />
	<path fill="none" stroke="#999999" stroke-width="0.25" d="M6.877,65.944h1.578" />
	<path fill="none" stroke="#999999" stroke-width="0.25" d="M6.877,67.522h1.578" />
	<path fill="none" stroke="#999999" stroke-width="0.25" d="M10.033,64.366v18.6" />
	<path fill="none" stroke="#999999" stroke-width="0.25" d="M11.499,64.366v18.6" />
	<path fill="none" stroke="#999999" stroke-width="0.25" d="M10.033,65.944h1.466" />
	<path fill="none" stroke="#999999" stroke-width="0.25" d="M10.033,67.522h1.466" />
	<path fill="none" stroke="#999999" stroke-width="0.25" d="M10.033,68.988h1.466" />
	<path fill="none" stroke="#999999" stroke-width="0.25" d="M10.033,70.566h1.466" />
	<path fill="none" stroke="#999999" stroke-width="0.25" d="M10.033,72.145h1.466" />
	<path fill="none" stroke="#999999" stroke-width="0.25" d="M10.033,73.723h1.466" />
	<path fill="none" stroke="#999999" stroke-width="0.25" d="M10.033,75.188h1.466" />
	<path fill="none" stroke="#999999" stroke-width="0.25" d="M10.033,76.766h1.466" />
	<path fill="none" stroke="#999999" stroke-width="0.25" d="M10.033,78.344h1.466" />
	<path fill="none" stroke="#999999" stroke-width="0.25" d="M10.033,79.922h1.466" />
	<path fill="none" stroke="#999999" stroke-width="0.25" d="M10.033,81.5h1.466" />
	<path fill="none" stroke="#999999" stroke-width="0.25" d="M10.033,92.322v18.486" />
	<path fill="none" stroke="#999999" stroke-width="0.25" d="M11.499,92.322v18.486" />
	<path fill="none" stroke="#999999" stroke-width="0.25" d="M10.033,93.787h1.466" />
	<path fill="none" stroke="#999999" stroke-width="0.25" d="M10.033,95.365h1.466" />
	<path fill="none" stroke="#999999" stroke-width="0.25" d="M10.033,96.831h1.466" />
	<path fill="none" stroke="#999999" stroke-width="0.25" d="M10.033,98.521h1.466" />
	<path fill="none" stroke="#999999" stroke-width="0.25" d="M10.033,99.987h1.466" />
	<path fill="none" stroke="#999999" stroke-width="0.25" d="M10.033,101.565h1.466" />
	<path fill="none" stroke="#999999" stroke-width="0.25" d="M10.033,103.031h1.466" />
	<path fill="none" stroke="#999999" stroke-width="0.25" d="M10.033,104.609h1.466" />
	<path fill="none" stroke="#999999" stroke-width="0.25" d="M10.033,106.188h1.466" />
	<path fill="none" stroke="#999999" stroke-width="0.25" d="M10.033,107.766h1.466" />
	<path fill="none" stroke="#999999" stroke-width="0.25" d="M7.103,78.344v18.6" />
	<path fill="none" stroke="#999999" stroke-width="0.25" d="M8.681,78.344v18.6" />
	<path fill="none" stroke="#999999" stroke-width="0.25" d="M7.103,79.81h1.578" />
	<path fill="none" stroke="#999999" stroke-width="0.25" d="M7.103,81.388h1.578" />
	<path fill="none" stroke="#999999" stroke-width="0.25" d="M7.103,82.966h1.578" />
	<path fill="none" stroke="#999999" stroke-width="0.25" d="M7.103,84.544h1.578" />
	<path fill="none" stroke="#999999" stroke-width="0.25" d="M7.103,86.122h1.578" />
	<path fill="none" stroke="#999999" stroke-width="0.25" d="M7.103,87.588h1.578" />
	<path fill="none" stroke="#999999" stroke-width="0.25" d="M7.103,89.166h1.578" />
	<path fill="none" stroke="#999999" stroke-width="0.25" d="M7.103,90.744h1.578" />
	<path fill="none" stroke="#999999" stroke-width="0.25" d="M7.103,92.209h1.578" />
	<path fill="none" stroke="#999999" stroke-width="0.25" d="M7.103,93.787h1.578" />
	<path fill="none" stroke="#999999" stroke-width="0.25" d="M7.103,95.365h1.578" />
</g>
<g id="Group_Levels">
	<path fill="#4C4C4C" d="M6.313,13.302H0.452v1.127h5.862V13.302z" />
	<path fill="#4C4C4C" d="M6.313,27.279H0.452v1.127h5.862V27.279z" />
	<path fill="#4C4C4C" d="M6.313,41.145H0.452v1.24h5.862V41.145z" />
	<path fill="#4C4C4C" d="M6.313,55.123H0.452v1.127h5.862V55.123z" />
	<path fill="#4C4C4C" d="M6.313,69.101H0.452v1.128h5.862V69.101z" />
	<path fill="#4C4C4C" d="M6.313,82.966H0.452v1.128h5.862V82.966z" />
	<path fill="#4C4C4C" d="M6.313,96.943H0.452v1.128h5.862V96.943z" />
	<path fill="#4C4C4C" d="M23.787,13.302h-5.862v1.127h5.862V13.302z" />
	<path fill="#4C4C4C" d="M23.787,27.279h-5.862v1.127h5.862V27.279z" />
	<path fill="#4C4C4C" d="M23.787,41.145h-5.862v1.24h5.862V41.145z" />
	<path fill="#4C4C4C" d="M23.787,55.123h-5.862v1.127h5.862V55.123z" />
	<path fill="#4C4C4C" d="M23.787,69.101h-5.862v1.128h5.862V69.101z" />
	<path fill="#4C4C4C" d="M23.787,82.966h-5.862v1.128h5.862V82.966z" />
	<path fill="#4C4C4C" d="M23.787,96.943h-5.862v1.128h5.862V96.943z" />
	<path fill="#7F7F7F" d="M12.175,13.302H6.313v1.127h5.862V13.302z" />
	<path fill="#7F7F7F" d="M12.175,27.279H6.313v1.127h5.862V27.279z" />
	<path fill="#7F7F7F" d="M12.175,41.145H6.313v1.24h5.862V41.145z" />
	<path fill="#7F7F7F" d="M12.175,55.123H6.313v1.127h5.862V55.123z" />
	<path fill="#7F7F7F" d="M12.175,69.101H6.313v1.128h5.862V69.101z" />
	<path fill="#7F7F7F" d="M12.175,82.966H6.313v1.128h5.862V82.966z" />
	<path fill="#7F7F7F" d="M12.175,96.943H6.313v1.128h5.862V96.943z" />
	<path fill="none" stroke="#4C4C4C" stroke-width="0.25" d="M0.452,14.429h11.724" />
	<path fill="none" stroke="#4C4C4C" stroke-width="0.25" d="M17.924,14.429h5.862" />
	<path fill="none" stroke="#4C4C4C" stroke-width="0.25" d="M0.452,28.407h11.724" />
	<path fill="none" stroke="#4C4C4C" stroke-width="0.25" d="M17.924,28.407h5.862" />
	<path fill="none" stroke="#4C4C4C" stroke-width="0.25" d="M0.452,42.385h11.724" />
	<path fill="none" stroke="#4C4C4C" stroke-width="0.25" d="M17.924,42.385h5.862" />
	<path fill="none" stroke="#4C4C4C" stroke-width="0.25" d="M0.452,56.25h11.724" />
	<path fill="none" stroke="#4C4C4C" stroke-width="0.25" d="M17.924,56.25h5.862" />
	<path fill="none" stroke="#4C4C4C" stroke-width="0.25" d="M0.452,70.229h11.724" />
	<path fill="none" stroke="#4C4C4C" stroke-width="0.25" d="M17.924,70.229h5.862" />
	<path fill="none" stroke="#4C4C4C" stroke-width="0.25" d="M0.452,84.094h11.724" />
	<path fill="none" stroke="#4C4C4C" stroke-width="0.25" d="M17.924,84.094h5.862" />
	<path fill="none" stroke="#4C4C4C" stroke-width="0.25" d="M0.452,98.071h11.724" />
	<path fill="none" stroke="#4C4C4C" stroke-width="0.25" d="M17.924,98.071h5.862" />
</g>
</svg>