<svg version="1.1" xmlns="http://www.w3.org/2000/svg" xmlns:xlink="http://www.w3.org/1999/xlink" width="38px" height="112px" viewBox="0 0 38.174 112.5" enable-background="new 0 0 38.174 112.5" xml:space="preserve">
<g id="Group_Column">
	<path fill="#8CA0BF" d="M0.45,0.452h37.161v111.483H0.45V0.452z" />
	<path fill="none" stroke="#4C4C4C" stroke-width="0.25" d="M0.45,0.452h37.161v111.483H0.45V0.452z" />
</g>
<g id="Group_Levels">
	<path fill="#FFFFFF" d="M0.45,85.135h30.179v-5.181h-1.126v4.167H0.45V85.135z" />
	<path fill="#FFFFFF" d="M37.612,93.354H7.432v-5.18h1.126v4.167h29.054V93.354z" />
	<path fill="#FFFFFF" d="M0.45,68.693h30.179v-5.067h-1.126v4.167H0.45V68.693z" />
	<path fill="#FFFFFF" d="M37.612,76.914H7.432v-5.068h1.126V75.9h29.054V76.914z" />
	<path fill="#FFFFFF" d="M0.45,52.365h30.179v-5.18h-1.126v4.167H0.45V52.365z" />
	<path fill="#FFFFFF" d="M37.612,60.586H7.432v-5.181h1.126v4.167h29.054V60.586z" />
	<path fill="#FFFFFF" d="M0.45,35.924h30.179v-5.068h-1.126v4.054H0.45V35.924z" />
	<path fill="#FFFFFF" d="M37.612,44.145H7.432v-5.18h1.126v4.167h29.054V44.145z" />
	<path fill="#FFFFFF" d="M0.45,19.596h30.179v-5.18h-1.126v4.167H0.45V19.596z" />
	<path fill="#FFFFFF" d="M37.612,27.704H7.432v-5.067h1.126v4.167h29.054V27.704z" />
</g>
</svg>