<svg version="1.1" xmlns="http://www.w3.org/2000/svg" xmlns:xlink="http://www.w3.org/1999/xlink" width="47px" height="112px" viewBox="0 0 46.851 112.5" enable-background="new 0 0 46.851 112.5" xml:space="preserve">
<g id="Group_Column">
	<linearGradient id="SVGID_1_" gradientUnits="userSpaceOnUse" x1="15.2046" y1="57.9961" x2="31.646" y2="57.9961">
		<stop offset="0" style="stop-color:#7F7F7F" />
		<stop offset="0.5" style="stop-color:#E5E5E5" />
		<stop offset="1" style="stop-color:#7F7F7F" />
	</linearGradient>
	<path fill="url(#SVGID_1_)" d="M15.205,3.491h16.441V112.5H15.205V3.491z" />
	<path fill="none" stroke="#4C4C4C" stroke-width="0.25" d="M15.205,3.491h16.441V112.5H15.205V3.491" />
	<path fill="none" stroke="#4C4C4C" stroke-width="0.25" d="M15.205,28.041h16.441" />
	<path fill="none" stroke="#4C4C4C" stroke-width="0.25" d="M15.205,70.271h16.441" />
	<path fill="none" stroke="#7F7F7F" stroke-width="0.25" d="M15.205,84.347h16.441" />
	<path fill="none" stroke="#7F7F7F" stroke-width="0.25" d="M15.205,98.424h16.441" />
	<path fill="none" stroke="#7F7F7F" stroke-width="0.25" d="M15.205,42.117h16.441" />
	<path fill="none" stroke="#7F7F7F" stroke-width="0.25" d="M15.205,56.194h16.441" />
</g>
<g id="Group_Pipe">
	<linearGradient id="SVGID_2_" gradientUnits="userSpaceOnUse" x1="23.3691" y1="92.0469" x2="23.3691" y2="87.7201">
		<stop offset="0" style="stop-color:#7F7F7F" />
		<stop offset="0.5" style="stop-color:#E5E5E5" />
		<stop offset="1" style="stop-color:#7F7F7F" />
	</linearGradient>
	<path fill="url(#SVGID_2_)" d="M10.475,87.275h25.789v5.742H10.475V87.275z" />
	<path fill="none" stroke="#4C4C4C" stroke-width="0.25" d="M10.475,87.275h25.789v5.742H10.475V87.275" />
</g>
<g id="Group_Grills">
	<path fill="none" stroke="#4C4C4C" stroke-width="0.25" d="M13.065,0.901l12.612,12.613" />
	<path fill="none" stroke="#4C4C4C" stroke-width="0.25" d="M16.781,0.901l12.613,12.613" />
	<path fill="none" stroke="#4C4C4C" stroke-width="0.25" d="M20.61,0.901l12.612,12.613" />
	<path fill="none" stroke="#4C4C4C" stroke-width="0.25" d="M24.326,0.901l9.348,9.234" />
	<path fill="none" stroke="#4C4C4C" stroke-width="0.25" d="M28.155,0.676l5.519,5.518" />
	<path fill="none" stroke="#4C4C4C" stroke-width="0.25" d="M31.871,0.676l1.803,1.802" />
	<path fill="none" stroke="#4C4C4C" stroke-width="0.25" d="M13.065,4.392l8.896,8.896" />
	<path fill="none" stroke="#4C4C4C" stroke-width="0.25" d="M13.065,8.333l5.18,5.18" />
	<path fill="none" stroke="#4C4C4C" stroke-width="0.25" d="M13.065,12.05l1.351,1.464" />
	<path fill="none" stroke="#4C4C4C" stroke-width="0.25" d="M33.673,0.901L21.061,13.514" />
	<path fill="none" stroke="#4C4C4C" stroke-width="0.25" d="M29.957,0.901L17.344,13.514" />
	<path fill="none" stroke="#4C4C4C" stroke-width="0.25" d="M26.241,0.901L13.628,13.514" />
	<path fill="none" stroke="#4C4C4C" stroke-width="0.25" d="M22.412,0.901l-9.347,9.234" />
	<path fill="none" stroke="#4C4C4C" stroke-width="0.25" d="M18.695,0.676l-5.63,5.518" />
	<path fill="none" stroke="#4C4C4C" stroke-width="0.25" d="M14.979,0.676l-1.915,1.802" />
	<path fill="none" stroke="#4C4C4C" stroke-width="0.25" d="M33.673,4.392l-8.896,8.896" />
	<path fill="none" stroke="#4C4C4C" stroke-width="0.25" d="M33.673,8.333l-5.068,5.18" />
	<path fill="none" stroke="#4C4C4C" stroke-width="0.25" d="M33.673,12.05l-1.352,1.464" />
	<path fill="#7F7F7F" stroke="#4C4C4C" stroke-width="0.25" d="M12.164,13.514V0h22.523v13.514h-1.014V0.901H13.065v5.067h20.608   v1.014H13.065v6.532H12.164z" />
	<path fill="#E5E5E5" d="M12.389,13.288V0.113h21.96v13.175h-0.451V0.676H12.84v5.63h21.058v0.451H12.84v6.531H12.389z" />
	<path fill="none" stroke="#7F7F7F" stroke-width="0.25" d="M0.903,1.239l6.306,12.387" />
	<path fill="none" stroke="#7F7F7F" stroke-width="0.25" d="M2.705,1.239l6.306,12.387" />
	<path fill="none" stroke="#7F7F7F" stroke-width="0.25" d="M4.619,1.126l6.307,12.388" />
	<path fill="none" stroke="#7F7F7F" stroke-width="0.25" d="M6.533,1.014l4.617,9.234" />
	<path fill="none" stroke="#7F7F7F" stroke-width="0.25" d="M8.335,0.788l2.815,5.518" />
	<path fill="none" stroke="#7F7F7F" stroke-width="0.25" d="M10.25,0.676l0.901,1.802" />
	<path fill="none" stroke="#7F7F7F" stroke-width="0.25" d="M0.903,4.729l4.392,8.784" />
	<path fill="none" stroke="#7F7F7F" stroke-width="0.25" d="M0.903,8.784l2.478,4.955" />
	<path fill="none" stroke="#7F7F7F" stroke-width="0.25" d="M0.903,12.5l0.675,1.352" />
	<path fill="none" stroke="#7F7F7F" stroke-width="0.25" d="M11.15,0.901L4.844,13.739" />
	<path fill="none" stroke="#7F7F7F" stroke-width="0.25" d="M9.349,1.014L3.042,13.739" />
	<path fill="none" stroke="#7F7F7F" stroke-width="0.25" d="M7.434,1.014L1.128,13.852" />
	<path fill="none" stroke="#7F7F7F" stroke-width="0.25" d="M5.52,1.126l-4.617,9.459" />
	<path fill="none" stroke="#7F7F7F" stroke-width="0.25" d="M3.718,0.901L0.903,6.644" />
	<path fill="none" stroke="#7F7F7F" stroke-width="0.25" d="M1.804,1.014L0.903,2.815" />
	<path fill="none" stroke="#7F7F7F" stroke-width="0.25" d="M11.15,4.392l-4.392,9.009" />
	<path fill="none" stroke="#7F7F7F" stroke-width="0.25" d="M11.15,8.446l-2.59,5.18" />
	<path fill="none" stroke="#7F7F7F" stroke-width="0.25" d="M11.15,12.162l-0.676,1.352" />
	<path fill="#7F7F7F" stroke="#4C4C4C" stroke-width="0.25" d="M0.002,13.964V0.338L12.164,0v13.514H11.15V0.901L0.903,1.239v5.18   L11.15,6.081v0.901L0.903,7.32v6.532L0.002,13.964z" />
	<path fill="#E5E5E5" d="M0.114,13.626V0.563l11.824-0.45v13.175h-0.563V0.676L0.677,1.014v5.63l10.811-0.338v0.451L0.677,7.095   v6.531H0.114z" />
	<path fill="none" stroke="#7F7F7F" stroke-width="0.25" d="M35.587,0.901l6.307,12.838" />
	<path fill="none" stroke="#7F7F7F" stroke-width="0.25" d="M37.501,1.014l6.193,12.725" />
	<path fill="none" stroke="#7F7F7F" stroke-width="0.25" d="M39.304,1.014l6.306,12.838" />
	<path fill="none" stroke="#7F7F7F" stroke-width="0.25" d="M41.218,1.126l4.617,9.459" />
	<path fill="none" stroke="#7F7F7F" stroke-width="0.25" d="M43.02,0.901l2.815,5.743" />
	<path fill="none" stroke="#7F7F7F" stroke-width="0.25" d="M44.934,1.014l0.901,1.802" />
	<path fill="none" stroke="#7F7F7F" stroke-width="0.25" d="M35.587,4.392l4.393,9.009" />
	<path fill="none" stroke="#7F7F7F" stroke-width="0.25" d="M35.587,8.446l2.478,5.18" />
	<path fill="none" stroke="#7F7F7F" stroke-width="0.25" d="M35.587,12.162l0.676,1.352" />
	<path fill="none" stroke="#7F7F7F" stroke-width="0.25" d="M45.835,1.239l-6.307,12.387" />
	<path fill="none" stroke="#7F7F7F" stroke-width="0.25" d="M44.033,1.239l-6.306,12.387" />
	<path fill="none" stroke="#7F7F7F" stroke-width="0.25" d="M42.119,1.126l-6.307,12.388" />
	<path fill="none" stroke="#7F7F7F" stroke-width="0.25" d="M40.205,1.014l-4.617,9.234" />
	<path fill="none" stroke="#7F7F7F" stroke-width="0.25" d="M38.403,0.788l-2.815,5.518" />
	<path fill="none" stroke="#7F7F7F" stroke-width="0.25" d="M36.488,0.676l-0.9,1.802" />
	<path fill="none" stroke="#7F7F7F" stroke-width="0.25" d="M45.835,4.729l-4.393,8.784" />
	<path fill="none" stroke="#7F7F7F" stroke-width="0.25" d="M45.835,8.784l-2.59,4.955" />
	<path fill="none" stroke="#7F7F7F" stroke-width="0.25" d="M45.835,12.5l-0.676,1.352" />
	<path fill="#7F7F7F" stroke="#4C4C4C" stroke-width="0.25" d="M34.687,13.514V0l12.162,0.338v13.626l-1.014-0.112V1.239   L35.587,0.901v5.18l10.248,0.338V7.32L35.587,6.982v6.532H34.687z" />
	<path fill="#E5E5E5" d="M34.912,13.288V0.113l11.712,0.45v13.063H46.06V1.014L35.363,0.676v5.63l10.811,0.338v0.451L35.363,6.757   v6.531H34.912z" />
</g>
<g id="Group_Staircase">
	<path fill="#B2B2B2" stroke="#4C4C4C" stroke-width="0.25" d="M0.002,13.514h11.711v2.928H0.002V13.514z" />
	<path fill="#8C8C8C" stroke="#4C4C4C" stroke-width="0.25" d="M11.713,13.514h23.423v2.928H11.713V13.514z" />
	<path fill="#666666" stroke="#4C4C4C" stroke-width="0.25" d="M35.136,13.514h11.713v2.928H35.136V13.514z" />
	<path fill="#333333" stroke="#4C4C4C" stroke-width="0.25" d="M3.831,16.441h39.077v1.915H3.831V16.441z" />
</g>
</svg>