<svg version="1.1" xmlns="http://www.w3.org/2000/svg" xmlns:xlink="http://www.w3.org/1999/xlink" width="112px" height="63px" viewBox="0 0 112.5 63.403" enable-background="new 0 0 112.5 63.403" xml:space="preserve">
<g id="Group_Connector2">
	<linearGradient id="SVGID_1_" gradientUnits="userSpaceOnUse" x1="36.7114" y1="42.8774" x2="36.7114" y2="30.8788">
		<stop offset="0" style="stop-color:#7F7F7F" />
		<stop offset="0.5" style="stop-color:#B2B2B2" />
		<stop offset="1" style="stop-color:#7F7F7F" />
	</linearGradient>
	<path fill="url(#SVGID_1_)" d="M30.518,30.744h12.387v12.163H30.518V30.744z" />
	<path fill="none" stroke="#4C4C4C" stroke-width="0.25" d="M30.518,30.744h12.387v12.163H30.518V30.744" />
</g>
<g id="Group_Connector1">
	<linearGradient id="SVGID_2_" gradientUnits="userSpaceOnUse" x1="22.4009" y1="55.2974" x2="22.4182" y2="18.4812">
		<stop offset="0" style="stop-color:#999999" />
		<stop offset="1" style="stop-color:#E5E5E5" />
	</linearGradient>
	<path fill="url(#SVGID_2_)" stroke="#4C4C4C" stroke-width="0.25" d="M14.302,18.357h16.216v36.937H14.302V18.357z" />
</g>
<g id="Group_SquarePipe">
	<g>
		<linearGradient id="SVGID_3_" gradientUnits="userSpaceOnUse" x1="-0.0684" y1="19.4263" x2="5.8686" y2="19.4263">
			<stop offset="0" style="stop-color:#999999" />
			<stop offset="0.5" style="stop-color:#CCCCCC" />
			<stop offset="1" style="stop-color:#999999" />
		</linearGradient>
		<polygon fill="url(#SVGID_3_)" points="0,0.001 0,38.852 6.082,32.772 6.082,6.082   " />
		<linearGradient id="SVGID_4_" gradientUnits="userSpaceOnUse" x1="7.1509" y1="39.2261" x2="7.1509" y2="32.8127">
			<stop offset="0" style="stop-color:#999999" />
			<stop offset="0.5" style="stop-color:#CCCCCC" />
			<stop offset="1" style="stop-color:#999999" />
		</linearGradient>
		<polygon fill="url(#SVGID_4_)" points="0,38.852 14.302,38.852 14.302,32.772 6.082,32.772   " />
		<linearGradient id="SVGID_5_" gradientUnits="userSpaceOnUse" x1="19.9985" y1="6.0039" x2="19.8823" y2="0.2968">
			<stop offset="0" style="stop-color:#999999" />
			<stop offset="0.5" style="stop-color:#CCCCCC" />
			<stop offset="1" style="stop-color:#999999" />
		</linearGradient>
		<polygon fill="url(#SVGID_5_)" points="39.752,0.001 0,0.001 6.082,6.082 33.671,6.082   " />
		<linearGradient id="SVGID_6_" gradientUnits="userSpaceOnUse" x1="33.6919" y1="16.7798" x2="39.6294" y2="16.7798">
			<stop offset="0" style="stop-color:#999999" />
			<stop offset="0.5" style="stop-color:#CCCCCC" />
			<stop offset="1" style="stop-color:#999999" />
		</linearGradient>
		<path fill="url(#SVGID_6_)" d="M33.671,6.082v24.662c0,0,0.188,2.815,3.041,2.815c2.835,0,3.04-2.815,3.04-2.815l0-30.743    L33.671,6.082z" />
	</g>
	<path fill="none" stroke="#4C4C4C" stroke-width="0.25" d="M14.302,32.772H6.081V6.082h27.59v24.662c0,0,0.063,2.815,3.041,2.815   c2.882,0,3.041-2.815,3.041-2.815V0.001H0v38.851h14.302V32.772z" />
</g>
<g id="Group_Column">
	<linearGradient id="SVGID_7_" gradientUnits="userSpaceOnUse" x1="104.2764" y1="55.3003" x2="43.0264" y2="22.4673">
		<stop offset="0" style="stop-color:#999999" />
		<stop offset="1" style="stop-color:#B2B2B2" />
	</linearGradient>
	<path fill="url(#SVGID_7_)" stroke="#4C4C4C" stroke-width="0.25" d="M42.905,55.293h61.374V22.411H42.905V55.293z" />
</g>
<g id="Group_Base">
	<linearGradient id="SVGID_8_" gradientUnits="userSpaceOnUse" x1="73.6484" y1="63.0034" x2="73.6484" y2="55.4039">
		<stop offset="0" style="stop-color:#7F7F7F" />
		<stop offset="0.25" style="stop-color:#666666" />
		<stop offset="1" style="stop-color:#7F7F7F" />
	</linearGradient>
	<path fill="url(#SVGID_8_)" stroke="#4C4C4C" stroke-width="0.25" d="M34.797,55.293H112.5v8.108H34.797V55.293z" />
</g>
</svg>