<svg version="1.1" xmlns="http://www.w3.org/2000/svg" xmlns:xlink="http://www.w3.org/1999/xlink" width="28px" height="112px" viewBox="0 0 27.727 112.5" enable-background="new 0 0 27.727 112.5" xml:space="preserve">
<g id="Group_Column">
	<linearGradient id="SVGID_1_" gradientUnits="userSpaceOnUse" x1="8.679" y1="56.3262" x2="27.1633" y2="56.3262">
		<stop offset="0" style="stop-color:#7F7F7F" />
		<stop offset="0.5" style="stop-color:#E5E5E5" />
		<stop offset="1" style="stop-color:#7F7F7F" />
	</linearGradient>
	<path fill="url(#SVGID_1_)" d="M24.909,2.863v44.184l2.254,6.875V109.9c0,0-1.142,2.143-9.242,2.143   c-7.833,0-9.242-2.328-9.242-2.328V53.922l2.254-6.875V2.863L13.3,0.609h9.242L24.909,2.863z" />
	<linearGradient id="SVGID_2_" gradientUnits="userSpaceOnUse" x1="12.0422" y1="1.6973" x2="23.645" y2="1.6973">
		<stop offset="0" style="stop-color:#B2B2B2" />
		<stop offset="0.5" style="stop-color:#FFFFFF" />
		<stop offset="1" style="stop-color:#B2B2B2" />
	</linearGradient>
	<path fill="url(#SVGID_2_)" d="M10.933,2.824L13.3,0.57h9.242l2.367,2.254H10.933z" />
	<linearGradient id="SVGID_3_" gradientUnits="userSpaceOnUse" x1="8.679" y1="50.4453" x2="27.1633" y2="50.4453">
		<stop offset="0" style="stop-color:#B2B2B2" />
		<stop offset="0.5" style="stop-color:#FFFFFF" />
		<stop offset="1" style="stop-color:#B2B2B2" />
	</linearGradient>
	<path fill="url(#SVGID_3_)" d="M8.679,53.883l2.254-6.875h13.977l2.254,6.875H8.679z" />
	<path fill="none" stroke="#999999" stroke-width="0.25" d="M10.933,9.813h13.977" />
	<path fill="none" stroke="#999999" stroke-width="0.25" d="M10.933,19.167h13.977" />
	<path fill="none" stroke="#999999" stroke-width="0.25" d="M10.933,28.41h13.977" />
	<path fill="none" stroke="#999999" stroke-width="0.25" d="M10.933,37.652h13.977" />
	<path fill="none" stroke="#999999" stroke-width="0.25" d="M10.933,47.008h13.977" />
	<path fill="none" stroke="#999999" stroke-width="0.25" d="M10.369,56.25h14.54" />
	<path fill="none" stroke="#999999" stroke-width="0.25" d="M10.369,65.605h14.54" />
	<path fill="none" stroke="#999999" stroke-width="0.25" d="M10.369,74.848h14.54" />
	<path fill="none" stroke="#999999" stroke-width="0.25" d="M10.369,84.09h14.54" />
	<path fill="none" stroke="#999999" stroke-width="0.25" d="M10.369,93.445h14.54" />
	<path fill="none" stroke="#999999" stroke-width="0.25" d="M10.369,102.688h14.54" />
	<path fill="none" stroke="#4C4C4C" stroke-width="0.25" d="M24.909,2.824v44.184l2.254,6.875V109.9c0,0-1.274,2.143-8.228,2.143   c-9.256,0-10.257-2.367-10.257-2.367V53.883l2.254-6.875V2.824L13.3,0.57h9.242L24.909,2.824z" />
</g>
<g id="Group_Pipe4">
	<linearGradient id="SVGID_4_" gradientUnits="userSpaceOnUse" x1="7.4104" y1="86.457" x2="9.8167" y2="86.457">
		<stop offset="0" style="stop-color:#7F7F7F" />
		<stop offset="0.5" style="stop-color:#FFFFFF" />
		<stop offset="1" style="stop-color:#7F7F7F" />
	</linearGradient>
	<path fill="url(#SVGID_4_)" d="M7.439,112.043V60.871l2.367,2.367v48.805H7.439z" />
	<linearGradient id="SVGID_5_" gradientUnits="userSpaceOnUse" x1="9.8059" y1="63.167" x2="9.8059" y2="60.8953">
		<stop offset="0" style="stop-color:#7F7F7F" />
		<stop offset="0.5" style="stop-color:#FFFFFF" />
		<stop offset="1" style="stop-color:#7F7F7F" />
	</linearGradient>
	<polygon fill="url(#SVGID_5_)" points="7.439,60.871 9.806,63.238 12.173,63.22 12.173,60.871  " />
	<path fill="none" stroke="#4C4C4C" stroke-width="0.25" d="M7.439,112.043V60.871h4.734v2.367H9.806v48.805H7.439z" />
</g>
<g id="Group_Pipe3">
	<linearGradient id="SVGID_6_" gradientUnits="userSpaceOnUse" x1="6.8792" y1="45.8379" x2="6.8714" y2="44.077">
		<stop offset="0" style="stop-color:#7F7F7F" />
		<stop offset="0.5" style="stop-color:#FFFFFF" />
		<stop offset="1" style="stop-color:#7F7F7F" />
	</linearGradient>
	<path fill="url(#SVGID_6_)" stroke="#4C4C4C" stroke-width="0.25" d="M2.818,45.88v-1.803h8.115v1.803H2.818z" />
</g>
<g id="Group_Pipe2">
	<linearGradient id="SVGID_7_" gradientUnits="userSpaceOnUse" x1="8.0588" y1="15.6655" x2="8.0588" y2="13.8721">
		<stop offset="0" style="stop-color:#7F7F7F" />
		<stop offset="0.5" style="stop-color:#FFFFFF" />
		<stop offset="1" style="stop-color:#7F7F7F" />
	</linearGradient>
	<path fill="url(#SVGID_7_)" stroke="#4C4C4C" stroke-width="0.25" d="M2.818,15.674V13.87H13.3v1.804H2.818z" />
</g>
<g id="Group_Pipe1">
	<linearGradient id="SVGID_8_" gradientUnits="userSpaceOnUse" x1="0.5916" y1="4.2085" x2="2.8463" y2="6.3336">
		<stop offset="0" style="stop-color:#7F7F7F" />
		<stop offset="0.5" style="stop-color:#FFFFFF" />
		<stop offset="1" style="stop-color:#7F7F7F" />
	</linearGradient>
	<rect x="0.45" y="4.064" fill="url(#SVGID_8_)" width="2.367" height="2.254" />
	<linearGradient id="SVGID_9_" gradientUnits="userSpaceOnUse" x1="0.4417" y1="57.5889" x2="2.8345" y2="57.5889">
		<stop offset="0" style="stop-color:#7F7F7F" />
		<stop offset="0.5" style="stop-color:#FFFFFF" />
		<stop offset="1" style="stop-color:#7F7F7F" />
	</linearGradient>
	<path fill="url(#SVGID_9_)" d="M0.45,110.803V4.375l2.367,1.944v104.484H0.45z" />
	<linearGradient id="SVGID_10_" gradientUnits="userSpaceOnUse" x1="5.7678" y1="6.2505" x2="5.7678" y2="4.0875">
		<stop offset="0" style="stop-color:#7F7F7F" />
		<stop offset="0.5" style="stop-color:#FFFFFF" />
		<stop offset="1" style="stop-color:#7F7F7F" />
	</linearGradient>
	<polygon fill="url(#SVGID_10_)" points="0.661,4.064 2.818,6.318 10.875,6.318 10.875,4.064  " />
	<path fill="none" stroke="#4C4C4C" stroke-width="0.25" d="M0.45,110.803V4.064h10.482v2.254H2.818v104.484H0.45z" />
</g>
</svg>