<svg version="1.1" xmlns="http://www.w3.org/2000/svg" xmlns:xlink="http://www.w3.org/1999/xlink" width="24px" height="112px" viewBox="0 0 23.652 112.5" enable-background="new 0 0 23.652 112.5" xml:space="preserve">
<g id="Group_Column">
	<linearGradient id="SVGID_1_" gradientUnits="userSpaceOnUse" x1="5.1497" y1="61.9932" x2="18.9763" y2="61.9932">
		<stop offset="0" style="stop-color:#B2BFBF" />
		<stop offset="0.5" style="stop-color:#EFF2F2" />
		<stop offset="1" style="stop-color:#B2BFBF" />
	</linearGradient>
	<path fill="url(#SVGID_1_)" d="M20.385,110.36c0,0-1.563,2.14-7.433,2.14c-8.916,0-9.347-2.14-9.347-2.14V15.766   c0,0,0.843-4.279,8.446-4.279c7.726,0,8.333,4.279,8.333,4.279V110.36z" />
	<path fill="none" stroke="#A3B2B2" stroke-width="0.25" d="M3.605,17.793h16.779" />
	<path fill="none" stroke="#A3B2B2" stroke-width="0.25" d="M3.605,34.685h16.779" />
	<path fill="none" stroke="#A3B2B2" stroke-width="0.25" d="M3.605,51.464h16.779" />
	<path fill="none" stroke="#A3B2B2" stroke-width="0.25" d="M3.605,68.243h16.779" />
	<path fill="none" stroke="#A3B2B2" stroke-width="0.25" d="M3.605,85.135h16.779" />
	<path fill="none" stroke="#A3B2B2" stroke-width="0.25" d="M3.605,101.914h16.779" />
	<path fill="none" stroke="#A3B2B2" stroke-width="0.25" d="M3.605,21.959h16.779" />
	<path fill="none" stroke="#A3B2B2" stroke-width="0.25" d="M3.605,38.852h16.779" />
	<path fill="none" stroke="#A3B2B2" stroke-width="0.25" d="M3.605,55.631h16.779" />
	<path fill="none" stroke="#A3B2B2" stroke-width="0.25" d="M3.605,72.522h16.779" />
	<path fill="none" stroke="#A3B2B2" stroke-width="0.25" d="M3.605,89.302h16.779" />
	<path fill="none" stroke="#A3B2B2" stroke-width="0.25" d="M3.605,106.081h16.779" />
	<path fill="none" stroke="#A3B2B2" stroke-width="0.25" d="M3.605,26.239h16.779" />
	<path fill="none" stroke="#A3B2B2" stroke-width="0.25" d="M3.605,43.018h16.779" />
	<path fill="none" stroke="#A3B2B2" stroke-width="0.25" d="M3.605,59.91h16.779" />
	<path fill="none" stroke="#A3B2B2" stroke-width="0.25" d="M3.605,76.689h16.779" />
	<path fill="none" stroke="#A3B2B2" stroke-width="0.25" d="M3.605,93.469h16.779" />
	<path fill="none" stroke="#A3B2B2" stroke-width="0.25" d="M3.605,30.405h16.779" />
	<path fill="none" stroke="#A3B2B2" stroke-width="0.25" d="M3.605,47.297h16.779" />
	<path fill="none" stroke="#A3B2B2" stroke-width="0.25" d="M3.605,64.076h16.779" />
	<path fill="none" stroke="#A3B2B2" stroke-width="0.25" d="M3.605,80.855h16.779" />
	<path fill="none" stroke="#A3B2B2" stroke-width="0.25" d="M3.605,97.748h16.779" />
	<path fill="none" stroke="#4C4C4C" stroke-width="0.25" d="M20.385,110.36c0,0-1.189,2.14-7.433,2.14   c-8.733,0-9.347-2.14-9.347-2.14V15.766c0,0,0.878-4.279,8.446-4.279c7.762,0,8.333,4.279,8.333,4.279V110.36" />
	<path fill="none" stroke="#4C4C4C" stroke-width="0.25" d="M20.385,57.207h3.266" />
	<path fill="none" stroke="#4C4C4C" stroke-width="0.25" d="M20.385,58.896h3.266" />
	<path fill="none" stroke="#4C4C4C" stroke-width="0.25" d="M20.385,60.586h3.266" />
	<path fill="none" stroke="#4C4C4C" stroke-width="0.25" d="M20.385,62.275h3.266" />
	<path fill="none" stroke="#4C4C4C" stroke-width="0.25" d="M20.385,63.964h3.266" />
	<path fill="none" stroke="#4C4C4C" stroke-width="0.25" d="M20.385,65.653h3.266" />
	<path fill="none" stroke="#4C4C4C" stroke-width="0.25" d="M20.385,67.342h3.266" />
	<path fill="none" stroke="#4C4C4C" stroke-width="0.25" d="M20.385,69.031h3.266" />
	<path fill="none" stroke="#4C4C4C" stroke-width="0.25" d="M20.385,70.721h3.266" />
	<path fill="none" stroke="#4C4C4C" stroke-width="0.25" d="M20.385,72.41h3.266" />
	<path fill="none" stroke="#4C4C4C" stroke-width="0.25" d="M20.385,74.1h3.266" />
	<path fill="none" stroke="#4C4C4C" stroke-width="0.25" d="M20.385,75.788h3.266" />
	<path fill="none" stroke="#4C4C4C" stroke-width="0.25" d="M20.385,77.478h3.266" />
	<path fill="none" stroke="#4C4C4C" stroke-width="0.25" d="M20.385,79.055h3.266" />
	<path fill="none" stroke="#4C4C4C" stroke-width="0.25" d="M20.385,80.743h3.266" />
	<path fill="none" stroke="#4C4C4C" stroke-width="0.25" d="M20.385,82.433h3.266" />
	<path fill="none" stroke="#4C4C4C" stroke-width="0.25" d="M20.385,84.121h3.266" />
	<path fill="none" stroke="#4C4C4C" stroke-width="0.25" d="M20.385,85.811h3.266" />
	<path fill="none" stroke="#4C4C4C" stroke-width="0.25" d="M20.385,87.5h3.266" />
	<path fill="none" stroke="#4C4C4C" stroke-width="0.25" d="M20.385,89.189h3.266" />
	<path fill="none" stroke="#4C4C4C" stroke-width="0.25" d="M20.385,90.879h3.266" />
	<path fill="none" stroke="#4C4C4C" stroke-width="0.25" d="M20.385,92.567h3.266" />
	<path fill="none" stroke="#4C4C4C" stroke-width="0.25" d="M20.385,94.257h3.266" />
	<path fill="none" stroke="#4C4C4C" stroke-width="0.25" d="M20.385,95.945h3.266" />
	<path fill="none" stroke="#4C4C4C" stroke-width="0.25" d="M20.385,97.635h3.266" />
	<path fill="none" stroke="#4C4C4C" stroke-width="0.25" d="M20.385,99.324h3.266" />
	<path fill="none" stroke="#4C4C4C" stroke-width="0.25" d="M20.385,101.014h3.266" />
	<path fill="none" stroke="#4C4C4C" stroke-width="0.25" d="M20.385,102.703h3.266" />
	<path fill="none" stroke="#4C4C4C" stroke-width="0.25" d="M20.385,104.393h3.266" />
	<path fill="none" stroke="#4C4C4C" stroke-width="0.25" d="M20.385,105.969h3.266" />
	<path fill="none" stroke="#4C4C4C" stroke-width="0.25" d="M20.385,107.658h3.266" />
	<path fill="none" stroke="#4C4C4C" stroke-width="0.25" d="M20.385,109.347h3.266" />
	<path fill="none" stroke="#4C4C4C" stroke-width="0.25" d="M20.385,55.518h3.266" />
	<path fill="none" stroke="#4C4C4C" stroke-width="0.25" d="M20.385,53.829h3.266" />
	<path fill="none" stroke="#4C4C4C" stroke-width="0.25" d="M20.385,52.14h3.266" />
	<path fill="none" stroke="#4C4C4C" stroke-width="0.25" d="M20.385,50.563h3.266" />
	<path fill="none" stroke="#4C4C4C" stroke-width="0.25" d="M20.385,48.874h3.266" />
	<path fill="none" stroke="#4C4C4C" stroke-width="0.25" d="M20.385,47.185h3.266" />
	<path fill="none" stroke="#4C4C4C" stroke-width="0.25" d="M20.385,45.496h3.266" />
	<path fill="none" stroke="#4C4C4C" stroke-width="0.25" d="M20.385,43.806h3.266" />
	<path fill="none" stroke="#4C4C4C" stroke-width="0.25" d="M20.385,42.117h3.266" />
	<path fill="none" stroke="#4C4C4C" stroke-width="0.25" d="M20.385,40.428h3.266" />
	<path fill="none" stroke="#4C4C4C" stroke-width="0.25" d="M20.385,38.739h3.266" />
	<path fill="none" stroke="#4C4C4C" stroke-width="0.25" d="M20.385,37.05h3.266" />
	<path fill="none" stroke="#4C4C4C" stroke-width="0.25" d="M20.385,35.36h3.266" />
	<path fill="none" stroke="#4C4C4C" stroke-width="0.25" d="M20.385,33.671h3.266" />
	<path fill="none" stroke="#4C4C4C" stroke-width="0.25" d="M20.385,31.982h3.266" />
	<path fill="none" stroke="#4C4C4C" stroke-width="0.25" d="M20.385,30.293h3.266" />
	<path fill="none" stroke="#4C4C4C" stroke-width="0.25" d="M20.385,28.604h3.266" />
	<path fill="none" stroke="#4C4C4C" stroke-width="0.25" d="M20.385,26.915h3.266" />
	<path fill="none" stroke="#4C4C4C" stroke-width="0.25" d="M20.385,25.225h3.266" />
	<path fill="none" stroke="#4C4C4C" stroke-width="0.25" d="M20.385,23.648h3.266" />
	<path fill="none" stroke="#4C4C4C" stroke-width="0.25" d="M20.385,21.959h3.266" />
	<path fill="none" stroke="#4C4C4C" stroke-width="0.25" d="M20.385,20.271h3.266" />
	<path fill="none" stroke="#4C4C4C" stroke-width="0.25" d="M21.961,19.933v90.878" />
	<path fill="none" stroke="#4C4C4C" stroke-width="0.25" d="M23.65,110.811V19.933" />
	<path d="M23.65,26.802h-3.266v-0.563h3.266V26.802z" />
</g>
<g id="Group_Pipe">
	<g>
		<linearGradient id="SVGID_2_" gradientUnits="userSpaceOnUse" x1="0.4324" y1="55.688" x2="4.6082" y2="55.688">
			<stop offset="0" style="stop-color:#B2BFBF" />
			<stop offset="0.5" style="stop-color:#EFF2F2" />
			<stop offset="1" style="stop-color:#B2BFBF" />
		</linearGradient>
		<path fill="url(#SVGID_2_)" d="M14.191,6.194V9.91H9.912V6.194c0,0-0.462-2.027-2.591-2.027c-1.896,0-2.702,2.59-2.702,2.59    v104.617H0.452V6.869c0,0,0.483-6.867,6.702-6.867C13.601,0.002,14.191,6.194,14.191,6.194z" />
		<linearGradient id="SVGID_3_" gradientUnits="userSpaceOnUse" x1="1.2844" y1="3.7754" x2="5.3091" y2="5.2638">
			<stop offset="0" style="stop-color:#B2BFBF" />
			<stop offset="0.5" style="stop-color:#EFF2F2" />
			<stop offset="1" style="stop-color:#B2BFBF" />
		</linearGradient>
		<path fill="url(#SVGID_3_)" d="M3.486,1.068C0.999,2.801,0.529,6.34,0.458,6.992h4.154c0,0,0.461-1.715,1.505-2.438L3.486,1.068z" />
		<linearGradient id="SVGID_4_" gradientUnits="userSpaceOnUse" x1="9.9309" y1="8.1216" x2="14.1819" y2="8.103">
			<stop offset="0" style="stop-color:#B2BFBF" />
			<stop offset="0.69" style="stop-color:#EFF2F2" />
			<stop offset="1" style="stop-color:#B2BFBF" />
		</linearGradient>
		<rect x="9.906" y="6.317" fill="url(#SVGID_4_)" width="4.28" height="3.591" />
		<linearGradient id="SVGID_5_" gradientUnits="userSpaceOnUse" x1="6.658" y1="0.0723" x2="6.7469" y2="4.2426">
			<stop offset="0" style="stop-color:#B2BFBF" />
			<stop offset="0.5" style="stop-color:#EFF2F2" />
			<stop offset="1" style="stop-color:#B2BFBF" />
		</linearGradient>
		<path fill="url(#SVGID_5_)" d="M9.859,0.458C9.093,0.179,8.206,0,7.147,0C5.653,0,4.39,0.465,3.486,1.068l2.632,3.486    c0.319-0.203,0.771-0.39,1.197-0.39c0.482,0,0.869,0.113,1.194,0.273L9.859,0.458z" />
		<linearGradient id="SVGID_6_" gradientUnits="userSpaceOnUse" x1="12.7234" y1="2.8066" x2="9.4283" y2="5.5393">
			<stop offset="0" style="stop-color:#B2BFBF" />
			<stop offset="0.5" style="stop-color:#EFF2F2" />
			<stop offset="1" style="stop-color:#B2BFBF" />
		</linearGradient>
		<path fill="url(#SVGID_6_)" d="M14.185,6.317c-0.096-0.675-0.998-4.504-4.326-5.859l-1.351,3.98    c1.024,0.571,1.397,1.959,1.397,1.959L14.185,6.317z" />
	</g>
	<path fill="none" stroke="#4C4C4C" stroke-width="0.25" d="M14.191,6.194V9.91H9.912V6.194c0,0-0.462-2.027-2.591-2.027   c-1.938,0-2.702,2.59-2.702,2.59v104.617H0.452V6.869c0,0,0.355-6.869,6.869-6.869C13.58,0,14.191,6.194,14.191,6.194z" />
</g>
<g id="Group_Support">
	<path fill="#999999" stroke="#4C4C4C" stroke-width="0.25" d="M0.002,25.676h5.743v1.577H0.002V25.676z" />
	<path fill="#4C4C4C" d="M3.605,25.676h2.14v1.577h-2.14V25.676z" />
	<path fill="#999999" stroke="#4C4C4C" stroke-width="0.25" d="M0.002,51.464h5.743v1.577H0.002V51.464z" />
	<path fill="#4C4C4C" d="M3.605,51.464h2.14v1.577h-2.14V51.464z" />
	<path fill="#999999" stroke="#4C4C4C" stroke-width="0.25" d="M0.002,89.865h5.743v1.576H0.002V89.865z" />
	<path fill="#4C4C4C" d="M3.605,89.865h2.14v1.576h-2.14V89.865z" />
</g>
<g id="Group_Grills">
	<path fill="#666666" stroke="#4C4C4C" stroke-width="0.25" d="M5.745,9.91h12.612v1.013H5.745V9.91z" />
	<path d="M5.745,9.91V6.194h12.612V9.91h-1.126V6.644H6.759v1.352h4.729V6.644h1.126v1.352h4.617v0.45h-4.617V9.91h-1.126V8.446   H6.759V9.91H5.745z" />
	<path fill="#E5E5E5" stroke="#4C4C4C" stroke-width="0.25" d="M16.218,10.923h1.014v3.266h-1.014V10.923z" />
	<path fill="#E5E5E5" stroke="#4C4C4C" stroke-width="0.25" d="M6.759,10.923h1.014v3.266H6.759V10.923z" />
	<path fill="#333333" d="M7.772,10.923l0.466,0.885c0,0,1.667-0.442,3.813-0.442c2.134,0,3.762,0.412,3.762,0.412l0.404-0.854H7.772   z" />
</g>
</svg>