<svg version="1.1" xmlns="http://www.w3.org/2000/svg" xmlns:xlink="http://www.w3.org/1999/xlink" width="30px" height="112px" viewBox="0 0 30.291 112.5" enable-background="new 0 0 30.291 112.5" xml:space="preserve">
<g id="Group_Column">
	<path fill="#999999" stroke="#4C4C4C" stroke-width="0.25" d="M20.944,7.549v104.947l9.347-6.419V2.819L20.944,7.549z" />
	<linearGradient id="SVGID_1_" gradientUnits="userSpaceOnUse" x1="11.6545" y1="112.0693" x2="11.6545" y2="7.7283">
		<stop offset="0" style="stop-color:#B2B2B2" />
		<stop offset="1" style="stop-color:#D9D9D9" />
	</linearGradient>
	<path fill="url(#SVGID_1_)" stroke="#4C4C4C" stroke-width="0.25" d="M2.365,7.549v104.947h18.579V7.549H2.365z" />
	<path fill="#F2F2F2" stroke="#4C4C4C" stroke-width="0.25" d="M20.944,7.549l9.347-4.729H13.963L2.365,7.549H20.944z" />
</g>
<g id="Group_Levels">
	<path fill="none" stroke="#FFCC00" stroke-width="0.25" d="M8.783,53.829H5.855" />
	<path fill="none" stroke="#FFCC00" stroke-width="0.25" d="M8.783,72.972H5.855" />
	<path fill="none" stroke="#FFCC00" stroke-width="0.25" d="M8.783,75.336H5.855" />
	<path fill="none" stroke="#FFCC00" stroke-width="0.25" d="M8.783,94.479H5.855" />
	<path fill="#F2F2F2" stroke="#4C4C4C" stroke-width="0.25" d="M0,94.366h11.035L13.4,93.24H2.365L0,94.366z" />
	<path fill="#F2F2F2" stroke="#4C4C4C" stroke-width="0.25" d="M0,73.985h22.184l5.854-2.928h-3.603l-3.491,1.802H2.365L0,73.985z" />
	<path fill="#F2F2F2" stroke="#4C4C4C" stroke-width="0.25" d="M0,53.041h22.184l5.854-2.928h-3.603l-3.491,1.689H2.365L0,53.041z" />
	<path fill="#F2F2F2" stroke="#4C4C4C" stroke-width="0.25" d="M0,32.66h22.184l5.854-3.041h-3.603l-3.491,1.802H2.365L0,32.66z" />
	<path fill="#B2B2B2" stroke="#4C4C4C" stroke-width="0.25" d="M11.035,96.056L13.4,94.93V93.24l-2.365,1.126V96.056z" />
	<path fill="#B2B2B2" stroke="#4C4C4C" stroke-width="0.25" d="M22.183,75.787l5.854-3.491v-1.238l-5.854,2.928V75.787z" />
	<path fill="#B2B2B2" stroke="#4C4C4C" stroke-width="0.25" d="M22.183,54.73l5.854-3.491v-1.126l-5.854,2.928V54.73z" />
	<path fill="#B2B2B2" stroke="#4C4C4C" stroke-width="0.25" d="M22.183,34.349l5.854-3.491v-1.239l-5.854,3.041V34.349z" />
	<path fill="none" stroke="#CC9900" stroke-width="0.25" d="M21.62,31.534l2.815-1.802" />
	<path fill="#CCCCCC" stroke="#4C4C4C" stroke-width="0.25" d="M0,32.66h22.184v1.689H0V32.66z" />
	<path fill="#CCCCCC" stroke="#4C4C4C" stroke-width="0.25" d="M0,53.041h22.184v1.689H0V53.041z" />
	<path fill="#CCCCCC" stroke="#4C4C4C" stroke-width="0.25" d="M0,73.985h22.184v1.802H0V73.985z" />
	<path fill="#CCCCCC" stroke="#4C4C4C" stroke-width="0.25" d="M0,94.366h11.035v1.689H0V94.366z" />
</g>
<g id="Group_Steps">
	<path fill="none" stroke="#FFCC00" stroke-width="0.25" d="M8.783,49.1H5.855" />
	<path fill="none" stroke="#FFCC00" stroke-width="0.25" d="M8.783,58.671H5.855" />
	<path fill="none" stroke="#FFCC00" stroke-width="0.25" d="M8.783,68.242H5.855" />
	<path fill="none" stroke="#FFCC00" stroke-width="0.25" d="M8.783,77.813H5.855" />
	<path fill="none" stroke="#FFCC00" stroke-width="0.25" d="M8.783,87.385H5.855" />
	<path fill="none" stroke="#FFCC00" stroke-width="0.25" d="M8.783,96.956H5.855" />
	<path fill="none" stroke="#FFCC00" stroke-width="0.25" d="M8.783,51.464H5.855" />
	<path fill="none" stroke="#FFCC00" stroke-width="0.25" d="M8.783,61.035H5.855" />
	<path fill="none" stroke="#FFCC00" stroke-width="0.25" d="M8.783,70.607H5.855" />
	<path fill="none" stroke="#FFCC00" stroke-width="0.25" d="M8.783,80.178H5.855" />
	<path fill="none" stroke="#FFCC00" stroke-width="0.25" d="M8.783,89.75H5.855" />
	<path fill="none" stroke="#FFCC00" stroke-width="0.25" d="M8.783,99.32H5.855" />
	<path fill="none" stroke="#FFCC00" stroke-width="0.25" d="M8.783,63.4H5.855" />
	<path fill="none" stroke="#FFCC00" stroke-width="0.25" d="M8.783,82.543H5.855" />
	<path fill="none" stroke="#FFCC00" stroke-width="0.25" d="M8.783,92.114H5.855" />
	<path fill="none" stroke="#FFCC00" stroke-width="0.25" d="M8.783,101.686H5.855" />
	<path fill="none" stroke="#FFCC00" stroke-width="0.25" d="M8.783,56.194H5.855" />
	<path fill="none" stroke="#FFCC00" stroke-width="0.25" d="M8.783,65.766H5.855" />
	<path fill="none" stroke="#FFCC00" stroke-width="0.25" d="M8.783,84.908H5.855" />
	<path fill="none" stroke="#FFCC00" stroke-width="0.25" d="M8.783,104.051H5.855" />
	<path fill="none" stroke="#FFCC00" stroke-width="0.25" d="M8.783,106.415H5.855" />
	<path fill="none" stroke="#FFCC00" stroke-width="0.25" d="M8.783,111.145H5.855" />
	<path fill="none" stroke="#FFCC00" stroke-width="0.25" d="M8.783,108.779H5.855" />
	<path fill="none" stroke="#FFCC00" stroke-width="0.25" d="M5.855,47.749v64.748" />
	<path fill="none" stroke="#FFCC00" stroke-width="0.25" d="M8.783,112.496V47.749" />
	<path fill="none" stroke="#CC9900" stroke-width="0.25" d="M21.62,14.868l2.815-1.802" />
	<path fill="none" stroke="#CC9900" stroke-width="0.25" d="M21.62,24.439l2.815-1.689" />
	<path fill="none" stroke="#CC9900" stroke-width="0.25" d="M21.62,43.582l2.815-1.802" />
	<path fill="none" stroke="#CC9900" stroke-width="0.25" d="M21.62,8l2.815-1.689" />
	<path fill="none" stroke="#CC9900" stroke-width="0.25" d="M21.62,17.233l2.815-1.802" />
	<path fill="none" stroke="#CC9900" stroke-width="0.25" d="M21.62,26.804l2.815-1.802" />
	<path fill="none" stroke="#CC9900" stroke-width="0.25" d="M21.62,36.375l2.815-1.802" />
	<path fill="none" stroke="#CC9900" stroke-width="0.25" d="M21.62,45.947l2.815-1.802" />
	<path fill="none" stroke="#CC9900" stroke-width="0.25" d="M21.62,10.026l2.815-1.802" />
	<path fill="none" stroke="#CC9900" stroke-width="0.25" d="M21.62,19.598l2.815-1.802" />
	<path fill="none" stroke="#CC9900" stroke-width="0.25" d="M21.62,29.169l2.815-1.802" />
	<path fill="none" stroke="#CC9900" stroke-width="0.25" d="M21.62,38.74l2.815-1.802" />
	<path fill="none" stroke="#CC9900" stroke-width="0.25" d="M21.62,48.312l2.815-1.802" />
	<path fill="none" stroke="#CC9900" stroke-width="0.25" d="M21.62,12.391l2.815-1.689" />
	<path fill="none" stroke="#CC9900" stroke-width="0.25" d="M21.62,21.962l2.815-1.689" />
	<path fill="none" stroke="#CC9900" stroke-width="0.25" d="M21.62,41.105l2.815-1.802" />
	<path fill="none" stroke="#CC9900" stroke-width="0.25" d="M21.62,50.676l2.815-1.802" />
	<path fill="none" stroke="#CC9900" stroke-width="0.25" d="M24.435,5.86v44.816" />
	<path fill="none" stroke="#CC9900" stroke-width="0.25" d="M21.62,51.802V6.986" />
	<path fill="none" stroke="#CC9900" stroke-width="0.25" d="M28.038,71.058v-4.054" />
	<path fill="none" stroke="#CC9900" stroke-width="0.25" d="M22.183,69.932l5.854-2.928h-3.603" />
	<path fill="none" stroke="#CC9900" stroke-width="0.25" d="M22.183,72.184l5.854-2.815h-3.603" />
	<path fill="none" stroke="#CC9900" stroke-width="0.25" d="M28.038,50.113V46.06" />
	<path fill="none" stroke="#CC9900" stroke-width="0.25" d="M22.183,48.875l5.854-2.815h-3.603" />
	<path fill="none" stroke="#CC9900" stroke-width="0.25" d="M22.183,51.239l5.854-2.928h-3.603" />
	<path fill="none" stroke="#CC9900" stroke-width="0.25" d="M28.038,29.732v-4.167" />
	<path fill="none" stroke="#CC9900" stroke-width="0.25" d="M22.183,28.493l5.854-2.928h-3.603" />
	<path fill="none" stroke="#CC9900" stroke-width="0.25" d="M22.183,30.858l5.854-2.928h-3.603" />
	<path fill="none" stroke="#FFCC00" stroke-width="0.25" d="M11.035,94.366v-4.054" />
	<path fill="none" stroke="#FFCC00" stroke-width="0.25" d="M0,94.366v-4.054" />
	<path fill="none" stroke="#FFCC00" stroke-width="0.25" d="M13.4,91.438l-2.365,1.239H0l2.365-1.239" />
	<path fill="none" stroke="#FFCC00" stroke-width="0.25" d="M2.365,89.074L0,90.313h11.035l2.365-1.238" />
	<path fill="none" stroke="#FFCC00" stroke-width="0.25" d="M11.035,73.985v-4.054" />
	<path fill="none" stroke="#FFCC00" stroke-width="0.25" d="M2.365,68.693L0,69.932" />
	<path fill="none" stroke="#FFCC00" stroke-width="0.25" d="M0,73.985v-4.054h22.184v4.054" />
	<path fill="none" stroke="#FFCC00" stroke-width="0.25" d="M22.183,72.184H0l2.365-1.126" />
	<path fill="none" stroke="#FFCC00" stroke-width="0.25" d="M11.035,53.041v-4.167" />
	<path fill="none" stroke="#FFCC00" stroke-width="0.25" d="M2.365,47.749L0,48.875" />
	<path fill="none" stroke="#FFCC00" stroke-width="0.25" d="M0,53.041v-4.167h22.184v4.167" />
	<path fill="none" stroke="#FFCC00" stroke-width="0.25" d="M22.183,51.239H0l2.365-1.126" />
	<path fill="none" stroke="#FFCC00" stroke-width="0.25" d="M11.035,32.66v-4.167" />
	<path fill="none" stroke="#FFCC00" stroke-width="0.25" d="M2.365,27.367L0,28.493" />
	<path fill="none" stroke="#FFCC00" stroke-width="0.25" d="M0,32.66v-4.167h22.184v4.167" />
	<path fill="none" stroke="#FFCC00" stroke-width="0.25" d="M22.183,30.858H0l2.365-1.126" />
	<path fill="none" stroke="#FFCC00" stroke-width="0.25" d="M11.711,7.549V3.495" />
	<path fill="none" stroke="#FFCC00" stroke-width="0.25" d="M13.963,0.004L2.365,3.495" />
	<path fill="none" stroke="#FFCC00" stroke-width="0.25" d="M2.365,7.549V3.495h18.579v4.054" />
	<path fill="none" stroke="#FFCC00" stroke-width="0.25" d="M20.944,5.86H2.365l11.598-4.167" />
	<path fill="none" stroke="#FFCC00" stroke-width="0.25" d="M13.963,2.819V0.004h16.328v2.815" />
	<path fill="none" stroke="#FFCC00" stroke-width="0.25" d="M22.183,0.004v2.815" />
	<path fill="none" stroke="#FFCC00" stroke-width="0.25" d="M13.963,1.693h16.328" />
	<path fill="none" stroke="#FFCC00" stroke-width="0.25" d="M8.783,4.959V1.468" />
	<path fill="none" stroke="#FFCC00" stroke-width="0.25" d="M24.998,5.522V2.031l5.293-2.027" />
	<path fill="none" stroke="#FFCC00" stroke-width="0.25" d="M30.291,1.693l-5.293,2.478" />
	<path fill="none" stroke="#CC9900" stroke-width="0.25" d="M21.62,34.011l2.815-1.802" />
</g>
</svg>