<svg version="1.1" xmlns="http://www.w3.org/2000/svg" xmlns:xlink="http://www.w3.org/1999/xlink" width="37px" height="112px" viewBox="0 0 37.498 112.5" enable-background="new 0 0 37.498 112.5" xml:space="preserve">
<g id="Group_Supporters">
	<path stroke="#4C4C4C" stroke-width="0.25" d="M2.252,79.615l7.095,8.221h18.692l7.094-8.221h-4.729l-4.054,4.73H11.035   l-4.054-4.73H2.252z" />
	<path stroke="#4C4C4C" stroke-width="0.25" d="M2.252,51.464l7.095,8.22h18.692l7.094-8.22h-4.729l-4.054,4.729H11.035   l-4.054-4.729H2.252z" />
	<path stroke="#4C4C4C" stroke-width="0.25" d="M2.252,23.426l7.095,8.22h18.692l7.094-8.22h-4.729l-4.054,4.617H11.035   l-4.054-4.617H2.252z" />
</g>
<g id="Group_Column">
	<linearGradient id="SVGID_1_" gradientUnits="userSpaceOnUse" x1="9.3464" y1="56.25" x2="28.0388" y2="56.25">
		<stop offset="0" style="stop-color:#BFBFB2" />
		<stop offset="0.5" style="stop-color:#F2F2EF" />
		<stop offset="1" style="stop-color:#BFBFB2" />
	</linearGradient>
	<path fill="url(#SVGID_1_)" d="M28.039,110.132c0,0-1.86,2.368-9.218,2.364c-8.879-0.005-9.475-2.364-9.475-2.364V4.621   c0,0,0.875-4.614,9.346-4.617C27.096,0,28.039,4.413,28.039,4.413V110.132z" />
	<path fill="none" stroke="#B2B2A3" stroke-width="0.25" d="M9.346,6.985h18.692" />
	<path fill="none" stroke="#B2B2A3" stroke-width="0.25" d="M9.346,25.678h18.692" />
	<path fill="none" stroke="#B2B2A3" stroke-width="0.25" d="M9.346,44.483h18.692" />
	<path fill="none" stroke="#B2B2A3" stroke-width="0.25" d="M9.346,63.176h18.692" />
	<path fill="none" stroke="#B2B2A3" stroke-width="0.25" d="M9.346,81.98h18.692" />
	<path fill="none" stroke="#B2B2A3" stroke-width="0.25" d="M9.346,100.673h18.692" />
	<path fill="none" stroke="#B2B2A3" stroke-width="0.25" d="M9.346,11.602h18.692" />
	<path fill="none" stroke="#B2B2A3" stroke-width="0.25" d="M9.346,30.407h18.692" />
	<path fill="none" stroke="#B2B2A3" stroke-width="0.25" d="M9.346,49.1h18.692" />
	<path fill="none" stroke="#B2B2A3" stroke-width="0.25" d="M9.346,67.904h18.692" />
	<path fill="none" stroke="#B2B2A3" stroke-width="0.25" d="M9.346,86.598h18.692" />
	<path fill="none" stroke="#B2B2A3" stroke-width="0.25" d="M9.346,105.402h18.692" />
	<path fill="none" stroke="#B2B2A3" stroke-width="0.25" d="M9.346,16.332h18.692" />
	<path fill="none" stroke="#B2B2A3" stroke-width="0.25" d="M9.346,35.137h18.692" />
	<path fill="none" stroke="#B2B2A3" stroke-width="0.25" d="M9.346,53.829h18.692" />
	<path fill="none" stroke="#B2B2A3" stroke-width="0.25" d="M9.346,72.635h18.692" />
	<path fill="none" stroke="#B2B2A3" stroke-width="0.25" d="M9.346,91.326h18.692" />
	<path fill="none" stroke="#B2B2A3" stroke-width="0.25" d="M9.346,21.061h18.692" />
	<path fill="none" stroke="#B2B2A3" stroke-width="0.25" d="M9.346,39.753h18.692" />
	<path fill="none" stroke="#B2B2A3" stroke-width="0.25" d="M9.346,58.559h18.692" />
	<path fill="none" stroke="#B2B2A3" stroke-width="0.25" d="M9.346,77.251h18.692" />
	<path fill="none" stroke="#B2B2A3" stroke-width="0.25" d="M9.346,96.057h18.692" />
	<path fill="none" stroke="#4C4C4C" stroke-width="0.25" d="M28.039,110.132c0,0-1.762,2.368-9.347,2.364   c-8.792-0.005-9.346-2.364-9.346-2.364V4.621c0,0,0.827-4.614,9.346-4.617C27.38,0,28.039,4.621,28.039,4.621V110.132z" />
	<path fill="none" stroke="#4C4C4C" stroke-width="0.25" d="M21.057,9.913h4.729v39.862h-4.729V9.913" />
	<path fill="none" stroke="#4C4C4C" stroke-width="0.25" d="M21.057,12.277h4.729" />
	<path fill="none" stroke="#4C4C4C" stroke-width="0.25" d="M25.787,14.643h-4.729" />
	<path fill="none" stroke="#4C4C4C" stroke-width="0.25" d="M21.057,19.259h4.729" />
	<path fill="none" stroke="#4C4C4C" stroke-width="0.25" d="M21.057,23.876h4.729" />
	<path fill="none" stroke="#4C4C4C" stroke-width="0.25" d="M21.057,26.354h4.729" />
	<path fill="none" stroke="#4C4C4C" stroke-width="0.25" d="M25.787,28.718h-4.729" />
	<path fill="none" stroke="#4C4C4C" stroke-width="0.25" d="M21.057,31.083h4.729" />
	<path fill="none" stroke="#4C4C4C" stroke-width="0.25" d="M21.057,33.335h4.729" />
	<path fill="none" stroke="#4C4C4C" stroke-width="0.25" d="M25.787,35.587h-4.729" />
	<path fill="none" stroke="#4C4C4C" stroke-width="0.25" d="M21.057,37.952h4.729" />
	<path fill="none" stroke="#4C4C4C" stroke-width="0.25" d="M21.057,40.429h4.729" />
	<path fill="none" stroke="#4C4C4C" stroke-width="0.25" d="M25.787,42.681h-4.729" />
	<path fill="none" stroke="#4C4C4C" stroke-width="0.25" d="M21.057,45.046h4.729" />
	<path fill="none" stroke="#4C4C4C" stroke-width="0.25" d="M21.057,47.298h4.729" />
	<path fill="none" stroke="#4C4C4C" stroke-width="0.25" d="M21.057,103.601h4.729" />
	<path fill="none" stroke="#4C4C4C" stroke-width="0.25" d="M21.057,101.349h4.729" />
	<path fill="none" stroke="#4C4C4C" stroke-width="0.25" d="M25.787,98.984h-4.729" />
	<path fill="none" stroke="#4C4C4C" stroke-width="0.25" d="M21.057,96.619h4.729" />
	<path fill="none" stroke="#4C4C4C" stroke-width="0.25" d="M21.057,94.142h4.729" />
	<path fill="none" stroke="#4C4C4C" stroke-width="0.25" d="M25.787,91.777h-4.729" />
	<path fill="none" stroke="#4C4C4C" stroke-width="0.25" d="M21.057,89.525h4.729" />
	<path fill="none" stroke="#4C4C4C" stroke-width="0.25" d="M21.057,87.273h4.729" />
	<path fill="none" stroke="#4C4C4C" stroke-width="0.25" d="M25.787,84.908h-4.729" />
	<path fill="none" stroke="#4C4C4C" stroke-width="0.25" d="M21.057,82.543h4.729" />
	<path fill="none" stroke="#4C4C4C" stroke-width="0.25" d="M21.057,80.066h4.729" />
	<path fill="none" stroke="#4C4C4C" stroke-width="0.25" d="M25.787,77.701h-4.729" />
	<path fill="none" stroke="#4C4C4C" stroke-width="0.25" d="M21.057,75.449h4.729" />
	<path fill="none" stroke="#4C4C4C" stroke-width="0.25" d="M25.787,70.832h-4.729" />
	<path fill="none" stroke="#4C4C4C" stroke-width="0.25" d="M21.057,68.468h4.729" />
	<path fill="none" stroke="#4C4C4C" stroke-width="0.25" d="M21.057,66.104h4.729v46.393h-4.729V66.104" />
	<path fill="none" stroke="#4C4C4C" stroke-width="0.25" d="M21.057,110.695h4.729" />
	<path fill="none" stroke="#4C4C4C" stroke-width="0.25" d="M25.787,108.33h-4.729" />
	<path fill="none" stroke="#4C4C4C" stroke-width="0.25" d="M21.057,106.078h4.729" />
	<path fill="none" stroke="#4C4C4C" stroke-width="0.25" d="M21.057,73.197h4.729" />
	<path fill="none" stroke="#4C4C4C" stroke-width="0.25" d="M21.057,17.007h4.729" />
	<path fill="none" stroke="#4C4C4C" stroke-width="0.25" d="M25.787,21.511h-4.729" />
</g>
<g id="Group_Levels">
	<path fill="#4C4C28" stroke="#4C4C4C" stroke-width="0.25" d="M17.566,23.426h2.252v8.783h-2.252V23.426z" />
	<path fill="#4C4C28" stroke="#4C4C4C" stroke-width="0.25" d="M17.566,51.464h2.252v8.784h-2.252V51.464z" />
	<path fill="#4C4C28" stroke="#4C4C4C" stroke-width="0.25" d="M17.566,79.615h2.252v8.783h-2.252V79.615z" />
	<path fill="#666647" stroke="#4C4C4C" stroke-width="0.25" d="M0,77.814h37.498v1.801H0V77.814z" />
	<path fill="#666647" stroke="#4C4C4C" stroke-width="0.25" d="M0,49.775h37.498v1.689H0V49.775z" />
	<path fill="#666647" stroke="#4C4C4C" stroke-width="0.25" d="M0,21.624h37.498v1.802H0V21.624z" />
	<path stroke="#4C4C4C" stroke-width="0.25" d="M1.126,69.144h35.133v1.126H1.126V69.144z" />
	<path stroke="#4C4C4C" stroke-width="0.25" d="M1.126,73.197h35.133v1.126H1.126V73.197z" />
	<path stroke="#4C4C4C" stroke-width="0.25" d="M1.126,40.992h35.133v1.126H1.126V40.992z" />
	<path stroke="#4C4C4C" stroke-width="0.25" d="M1.126,45.046h35.133v1.126H1.126V45.046z" />
	<path stroke="#4C4C4C" stroke-width="0.25" d="M1.126,12.841h35.133v1.126H1.126V12.841z" />
	<path stroke="#4C4C4C" stroke-width="0.25" d="M1.126,16.895h35.133v1.238H1.126V16.895z" />
	<path fill="#4C4C28" stroke="#4C4C4C" stroke-width="0.25" d="M35.133,77.814h1.126v-8.671h-1.126V77.814z" />
	<path fill="#4C4C28" stroke="#4C4C4C" stroke-width="0.25" d="M25.674,77.814h1.239v-8.671h-1.239V77.814z" />
	<path fill="#4C4C28" stroke="#4C4C4C" stroke-width="0.25" d="M10.472,77.814h1.238v-8.671h-1.238V77.814z" />
	<path fill="#4C4C28" stroke="#4C4C4C" stroke-width="0.25" d="M1.126,77.814h1.126v-8.671H1.126V77.814z" />
	<path fill="#4C4C28" stroke="#4C4C4C" stroke-width="0.25" d="M35.133,49.775h1.126v-8.783h-1.126V49.775z" />
	<path fill="#4C4C28" stroke="#4C4C4C" stroke-width="0.25" d="M25.674,49.775h1.239v-8.783h-1.239V49.775z" />
	<path fill="#4C4C28" stroke="#4C4C4C" stroke-width="0.25" d="M10.472,49.775h1.238v-8.783h-1.238V49.775z" />
	<path fill="#4C4C28" stroke="#4C4C4C" stroke-width="0.25" d="M1.126,49.775h1.126v-8.783H1.126V49.775z" />
	<path fill="#4C4C28" stroke="#4C4C4C" stroke-width="0.25" d="M35.133,21.624h1.126v-8.783h-1.126V21.624z" />
	<path fill="#4C4C28" stroke="#4C4C4C" stroke-width="0.25" d="M25.674,21.624h1.239v-8.783h-1.239V21.624z" />
	<path fill="#4C4C28" stroke="#4C4C4C" stroke-width="0.25" d="M10.472,21.624h1.238v-8.783h-1.238V21.624z" />
	<path fill="#4C4C28" stroke="#4C4C4C" stroke-width="0.25" d="M1.126,21.624h1.126v-8.783H1.126V21.624z" />
</g>
</svg>