<svg version="1.1" xmlns="http://www.w3.org/2000/svg" xmlns:xlink="http://www.w3.org/1999/xlink" width="85px" height="112px" viewBox="0 0 84.571 112.5" enable-background="new 0 0 84.571 112.5" xml:space="preserve">
<g id="Group_Column">
	<linearGradient id="SVGID_1_" gradientUnits="userSpaceOnUse" x1="0.4507" y1="56.2251" x2="84.0083" y2="56.2251">
		<stop offset="0" style="stop-color:#405473" />
		<stop offset="0.5" style="stop-color:#263A59" />
		<stop offset="1" style="stop-color:#405473" />
	</linearGradient>
	<path fill="url(#SVGID_1_)" d="M46.959,107.238l4.279-0.226l4.053-0.45l3.83-0.563l3.49-0.675l3.153-0.901l3.491-1.239l2.814-1.463   l2.365-2.479l0.338-1.238v-60.36h9.234V28.41h-9.234V14.446c0,0-0.283-3.802-5.97-6.38c-6.421-2.912-21.845-2.854-21.845-2.854   V0.482h-9.347v4.729c0,0-12.741,0.189-18.58,2.21c-7.05,2.439-9.235,7.024-9.235,7.024v60.359H0.451v9.234h9.347v13.964   c0,0,0.738,4.205,10.698,7.176c6.748,2.013,17.117,2.059,17.117,2.059v4.729h9.347V107.238z" />
</g>
<g id="Group_Mixer">
	<linearGradient id="SVGID_2_" gradientUnits="userSpaceOnUse" x1="12.0947" y1="91.6094" x2="72.0063" y2="91.6094">
		<stop offset="0" style="stop-color:#8CA0BF" />
		<stop offset="0.5" style="stop-color:#7387A6" />
		<stop offset="0.93" style="stop-color:#8CA0BF" />
	</linearGradient>
	<path fill="url(#SVGID_2_)" d="M46.959,107.207c0,0,9.336,0.409,18.798-2.582c8.695-2.749,9.017-6.652,9.017-6.652V71.283H9.797   v3.491H0.451v9.234h9.347v13.964c0,0,1.224,4.236,9.822,6.653c9.339,2.625,17.993,2.581,17.993,2.581v4.729h9.347V107.207z" />
</g>
<g id="Group_Mix">
	<path fill="#4C3F32" d="M46.959,107.207c0,0,7.545,0.262,16.207-1.9c11.669-2.913,11.607-7.334,11.607-7.334   s-5.163-2.065-6.982-2.365c-2.278-0.376-6.955-0.375-9.233,0c-1.818,0.3-5.143,2.25-6.981,2.365   c-2.954,0.186-8.654-2.067-11.6-2.365c-2.325-0.234-7.069-0.523-9.347,0c-1.77,0.407-5.055,2.455-6.869,2.365   c-1.841-0.092-5.139-2.365-6.982-2.365c-1.843,0-6.982,2.365-6.982,2.365s0.738,5.215,12.95,7.658   c10.468,2.095,14.865,1.576,14.865,1.576v4.729h9.347V107.207z" />
	<path fill="#4C3F32" d="M67.792,84.009c-0.816,0-2.224-1.448-2.364-2.253c-0.227-1.302,1.043-4.729,2.364-4.729   s2.618,3.431,2.365,4.729C70,82.558,68.609,84.009,67.792,84.009z" />
	<path fill="#4C3F32" d="M53.829,84.009c-0.796-0.01-2.117-1.468-2.252-2.253c-0.222-1.29,0.942-4.716,2.252-4.729   c1.321-0.013,2.592,3.427,2.365,4.729C56.053,82.561,54.646,84.02,53.829,84.009z" />
	<path fill="#4C3F32" d="M39.977,84.009c-0.817,0.01-2.224-1.448-2.365-2.253c-0.227-1.302,1.043-4.741,2.365-4.729   c1.309,0.013,2.474,3.438,2.252,4.729C42.095,82.541,40.773,83.999,39.977,84.009z" />
	<path fill="#4C3F32" d="M26.013,84.009c-0.796-0.01-2.117-1.468-2.252-2.253c-0.222-1.29,0.942-4.716,2.252-4.729   c1.321-0.013,2.617,3.431,2.365,4.729C28.223,82.558,26.83,84.019,26.013,84.009z" />
	<path fill="#4C3F32" d="M60.81,90.99c-0.836,0-2.234-1.539-2.364-2.364c-0.202-1.281,1.067-4.617,2.364-4.617   s2.566,3.336,2.364,4.617C63.044,89.451,61.646,90.99,60.81,90.99z" />
	<path fill="#4C3F32" d="M46.846,90.99c-0.815-0.011-2.127-1.559-2.252-2.364c-0.196-1.269,0.968-4.604,2.252-4.617   c1.297-0.013,2.567,3.336,2.365,4.617C49.081,89.452,47.682,91.001,46.846,90.99z" />
	<path fill="#4C3F32" d="M32.995,90.99c-0.836,0.01-2.235-1.538-2.365-2.364c-0.202-1.281,1.068-4.63,2.365-4.617   c1.284,0.013,2.47,3.352,2.252,4.617C35.109,89.431,33.811,90.98,32.995,90.99z" />
	<path fill="#4C3F32" d="M19.031,90.99c-0.816-0.01-2.127-1.558-2.252-2.364c-0.197-1.27,0.968-4.604,2.252-4.617   c1.297-0.013,2.587,3.34,2.365,4.617C21.252,89.45,19.867,91,19.031,90.99z" />
</g>
<g id="Group_Content">
	<path fill="#CC9900" d="M14.414,65.428c0.01-0.816,1.548-2.262,2.365-2.252c0.796,0.01,2.242,1.456,2.252,2.252   c0.01,0.816-1.435,2.355-2.252,2.365C15.943,67.804,14.403,66.265,14.414,65.428z" />
	<path fill="#CC9900" d="M17.905,58.445c0.01-0.816,1.548-2.262,2.365-2.251c0.796,0.01,2.243,1.456,2.252,2.251   c0.01,0.816-1.436,2.355-2.252,2.365C19.434,60.821,17.895,59.282,17.905,58.445z" />
	<path fill="#CC9900" d="M14.414,51.577c-0.01-0.836,1.529-2.375,2.365-2.365c0.816,0.01,2.262,1.548,2.252,2.365   c-0.01,0.796-1.456,2.243-2.252,2.252C15.963,53.839,14.424,52.393,14.414,51.577z" />
	<path fill="#CC9900" d="M17.905,44.595c-0.01-0.836,1.529-2.375,2.365-2.365c0.816,0.01,2.263,1.548,2.252,2.365   c-0.01,0.796-1.457,2.243-2.252,2.252C19.454,46.857,17.916,45.411,17.905,44.595z" />
	<path fill="#CC9900" d="M21.396,65.428c0.01-0.816,1.548-2.262,2.365-2.252c0.796,0.01,2.242,1.456,2.252,2.252   c0.01,0.816-1.435,2.355-2.252,2.365C22.925,67.804,21.385,66.265,21.396,65.428z" />
	<path fill="#CC9900" d="M24.887,58.445c0.01-0.816,1.548-2.262,2.365-2.251c0.796,0.01,2.243,1.456,2.252,2.251   c0.01,0.816-1.436,2.355-2.252,2.365C26.416,60.821,24.876,59.282,24.887,58.445z" />
	<path fill="#CC9900" d="M21.396,51.577c-0.01-0.836,1.529-2.375,2.365-2.365c0.816,0.01,2.262,1.548,2.252,2.365   c-0.01,0.796-1.456,2.243-2.252,2.252C22.945,53.839,21.406,52.393,21.396,51.577z" />
	<path fill="#CC9900" d="M24.887,44.595c-0.01-0.836,1.529-2.375,2.365-2.365c0.816,0.01,2.263,1.548,2.252,2.365   c-0.01,0.796-1.457,2.243-2.252,2.252C26.436,46.857,24.897,45.411,24.887,44.595z" />
	<path fill="#CC9900" d="M28.378,65.428c0.01-0.796,1.457-2.242,2.252-2.252c0.816-0.01,2.354,1.436,2.365,2.252   c0.011,0.837-1.528,2.375-2.365,2.365C29.814,67.783,28.368,66.244,28.378,65.428z" />
	<path fill="#CC9900" d="M31.869,58.445c0.01-0.796,1.456-2.242,2.252-2.251c0.816-0.01,2.355,1.435,2.365,2.251   c0.011,0.837-1.529,2.376-2.365,2.365C33.304,60.801,31.859,59.262,31.869,58.445z" />
	<path fill="#CC9900" d="M28.378,51.577c-0.01-0.816,1.436-2.354,2.252-2.365c0.836-0.01,2.375,1.529,2.365,2.365   c-0.01,0.816-1.548,2.263-2.365,2.252C29.834,53.819,28.388,52.373,28.378,51.577z" />
	<path fill="#CC9900" d="M31.869,44.595c-0.01-0.816,1.436-2.354,2.252-2.365c0.836-0.01,2.375,1.529,2.365,2.365   c-0.01,0.816-1.549,2.263-2.365,2.252C33.325,46.837,31.879,45.391,31.869,44.595z" />
	<path fill="#CC9900" d="M35.36,65.428c0.01-0.796,1.457-2.242,2.252-2.252c0.816-0.01,2.354,1.436,2.365,2.252   c0.011,0.837-1.528,2.375-2.365,2.365C36.796,67.783,35.35,66.244,35.36,65.428z" />
	<path fill="#CC9900" d="M38.851,58.445c0.01-0.796,1.456-2.242,2.252-2.251c0.816-0.01,2.354,1.436,2.365,2.251   c0.011,0.836-1.529,2.376-2.365,2.365C40.286,60.801,38.841,59.262,38.851,58.445z" />
	<path fill="#CC9900" d="M35.36,51.577c-0.01-0.816,1.436-2.354,2.252-2.365c0.836-0.01,2.375,1.529,2.365,2.365   c-0.01,0.816-1.548,2.263-2.365,2.252C36.816,53.819,35.37,52.373,35.36,51.577z" />
	<path fill="#CC9900" d="M38.851,44.595c-0.01-0.816,1.436-2.354,2.252-2.365c0.836-0.01,2.375,1.529,2.365,2.365   c-0.01,0.816-1.549,2.263-2.365,2.252C40.307,46.837,38.861,45.391,38.851,44.595z" />
	<path fill="#CC9900" d="M42.342,65.428c0.01-0.796,1.457-2.242,2.252-2.252c0.816-0.01,2.355,1.435,2.365,2.252   c0.011,0.837-1.528,2.375-2.365,2.365C43.778,67.783,42.332,66.244,42.342,65.428z" />
	<path fill="#CC9900" d="M45.833,58.445c0.01-0.796,1.455-2.242,2.252-2.251c0.816-0.01,2.355,1.436,2.365,2.251   c0.011,0.837-1.528,2.376-2.365,2.365C47.267,60.801,45.822,59.262,45.833,58.445z" />
	<path fill="#CC9900" d="M42.342,51.577c-0.01-0.816,1.436-2.355,2.252-2.365c0.837-0.01,2.376,1.528,2.365,2.365   c-0.01,0.817-1.549,2.262-2.365,2.252C43.797,53.819,42.352,52.373,42.342,51.577z" />
	<path fill="#CC9900" d="M45.833,44.595c-0.01-0.816,1.436-2.354,2.252-2.365c0.837-0.011,2.376,1.528,2.365,2.365   c-0.01,0.817-1.549,2.263-2.365,2.252C47.289,46.837,45.842,45.391,45.833,44.595z" />
	<path fill="#CC9900" d="M49.324,65.428c0.01-0.796,1.457-2.242,2.253-2.252c0.815-0.01,2.354,1.437,2.364,2.252   c0.011,0.836-1.528,2.375-2.364,2.365C50.76,67.783,49.314,66.244,49.324,65.428z" />
	<path fill="#CC9900" d="M52.815,58.445c0.01-0.796,1.455-2.242,2.252-2.251c0.816-0.01,2.355,1.436,2.365,2.251   c0.011,0.837-1.528,2.376-2.365,2.365C54.25,60.801,52.804,59.262,52.815,58.445z" />
	<path fill="#CC9900" d="M49.324,51.577c-0.01-0.817,1.437-2.355,2.253-2.365c0.836-0.01,2.374,1.529,2.364,2.365   c-0.01,0.816-1.548,2.262-2.364,2.252C50.78,53.82,49.333,52.373,49.324,51.577z" />
	<path fill="#CC9900" d="M52.815,44.595c-0.01-0.816,1.436-2.354,2.252-2.365c0.837-0.011,2.376,1.528,2.365,2.365   c-0.01,0.817-1.549,2.263-2.365,2.252C54.271,46.837,52.825,45.391,52.815,44.595z" />
	<path fill="#CC9900" d="M56.305,65.428c0.01-0.796,1.457-2.242,2.253-2.252c0.815-0.01,2.354,1.437,2.364,2.252   c0.011,0.836-1.528,2.375-2.364,2.365C57.742,67.783,56.295,66.244,56.305,65.428z" />
	<path fill="#CC9900" d="M59.797,58.445c0.01-0.796,1.455-2.242,2.252-2.251c0.816-0.01,2.354,1.436,2.364,2.251   c0.011,0.836-1.528,2.375-2.364,2.365C61.232,60.801,59.787,59.262,59.797,58.445z" />
	<path fill="#CC9900" d="M56.305,51.577c-0.01-0.817,1.437-2.355,2.253-2.365c0.836-0.01,2.374,1.529,2.364,2.365   c-0.01,0.816-1.548,2.262-2.364,2.252C57.761,53.82,56.315,52.373,56.305,51.577z" />
	<path fill="#CC9900" d="M59.797,44.595c-0.01-0.816,1.436-2.354,2.252-2.365c0.836-0.01,2.374,1.529,2.364,2.365   c-0.01,0.816-1.548,2.263-2.364,2.252C61.253,46.837,59.807,45.391,59.797,44.595z" />
	<path fill="#CC9900" d="M63.288,65.428c0.01-0.796,1.456-2.242,2.252-2.252c0.816-0.011,2.355,1.435,2.365,2.252   c0.011,0.837-1.528,2.376-2.365,2.365C64.722,67.783,63.277,66.244,63.288,65.428z" />
	<path fill="#CC9900" d="M66.779,58.445c0.01-0.796,1.455-2.242,2.252-2.251c0.816-0.01,2.354,1.436,2.364,2.251   c0.011,0.836-1.528,2.375-2.364,2.365C68.213,60.801,66.768,59.263,66.779,58.445z" />
	<path fill="#CC9900" d="M63.288,51.577c-0.01-0.816,1.436-2.354,2.252-2.365c0.837-0.011,2.377,1.529,2.365,2.365   c-0.012,0.816-1.549,2.263-2.365,2.252C64.744,53.819,63.297,52.373,63.288,51.577z" />
	<path fill="#CC9900" d="M66.779,44.595c-0.01-0.817,1.436-2.354,2.252-2.365c0.836-0.01,2.374,1.529,2.364,2.365   c-0.01,0.816-1.548,2.263-2.364,2.252C68.235,46.837,66.789,45.391,66.779,44.595z" />
</g>
<g id="Group_Frame">
	<path fill="#E5E5E5" d="M49.211,5.181c0,0,12.914,0.174,19.053,2.652c5.834,2.355,6.51,6.583,6.51,6.583v13.964h9.234v2.252h-11.6   V14.415c0,0-1.046-3.581-7.436-4.853c-6.281-1.25-20.379-2.129-20.379-2.129V0.451h2.365v2.928h2.252V5.181z M35.36,5.181   c0,0-12.04,0.643-18.258,2.952c-7.158,2.658-7.304,6.282-7.304,6.282v60.359H0.451v2.365h11.711V14.415   c0,0,0.602-2.634,5.672-4.297c8.019-2.63,22.143-2.685,22.143-2.685V0.451h-2.365v2.928H35.36V5.181z M37.612,107.207   c0,0-7.743,0.252-17.117-2.027c-9.727-2.365-10.698-7.207-10.698-7.207V84.009H0.451v-2.253h11.711v16.217   c0,0,2.751,3.973,10.749,5.736c8.125,1.792,17.066,1.246,17.066,1.246v6.981h-2.365V107.207z M46.959,107.207   c0,0,7.91,0.252,16.592-1.951c11.007-2.793,11.223-7.283,11.223-7.283v-60.36h9.234v-2.365h-11.6v62.725   c0,0-1.66,2.708-10.202,5.084c-8.161,2.271-17.612,1.898-17.612,1.898v6.981h2.365V107.207z M12.162,70.158v2.252h4.617v-2.252   H12.162z M21.396,70.158v2.252h6.982v-2.252H21.396z M32.995,70.158v2.252h6.982v-2.252H32.995z M44.594,70.158v2.252h6.982v-2.252   H44.594z M56.194,70.158v2.252h6.98v-2.252H56.194z M67.792,70.158v2.252h4.617v-2.252H67.792z" />
	<path fill="none" stroke="#4C4C4C" stroke-width="0.25" d="M49.211,5.181c0,0,12.032,0.319,17.679,2.147   c7.278,2.356,7.884,7.118,7.884,7.118v13.933h9.234v2.252h-11.6V14.415c0,0-1.082-3.415-6.748-4.707   c-6.35-1.447-21.066-2.275-21.066-2.275V0.451h2.365v2.928h2.252V5.181" />
	<path fill="none" stroke="#4C4C4C" stroke-width="0.25" d="M35.36,5.181c0,0-10.673,0.73-15.78,2.152   c-9.61,2.677-9.783,7.082-9.783,7.082v60.359H0.451v2.365h11.711V14.415c0,0,0.522-3.502,9.249-5.248   c8.542-1.708,18.566-1.734,18.566-1.734V0.451h-2.365v2.928H35.36V5.181z" />
	<path fill="none" stroke="#4C4C4C" stroke-width="0.25" d="M37.612,107.207c0,0-9.176-0.018-15.755-1.677   c-11.113-2.803-12.06-7.558-12.06-7.558V84.009H0.451v-2.253h11.711v16.217c0,0,2.469,3.991,11.27,5.857   c7.289,1.546,16.545,1.125,16.545,1.125v6.981h-2.365V107.207z" />
	<path fill="none" stroke="#4C4C4C" stroke-width="0.25" d="M46.959,107.207c0,0,9.826,0.252,18.13-2.365   c9.672-3.049,9.685-6.869,9.685-6.869v-60.36h9.234v-2.365h-11.6v62.725c0,0-1.852,3.114-12.162,5.631   c-5.646,1.378-15.652,1.352-15.652,1.352v6.981h2.365V107.207z" />
	<path fill="none" stroke="#4C4C4C" stroke-width="0.25" d="M12.162,70.158v2.252h4.617v-2.252H12.162" />
	<path fill="none" stroke="#4C4C4C" stroke-width="0.25" d="M21.396,70.158v2.252h6.982v-2.252H21.396" />
	<path fill="none" stroke="#4C4C4C" stroke-width="0.25" d="M32.995,70.158v2.252h6.982v-2.252H32.995" />
	<path fill="none" stroke="#4C4C4C" stroke-width="0.25" d="M44.594,70.158v2.252h6.982v-2.252H44.594" />
	<path fill="none" stroke="#4C4C4C" stroke-width="0.25" d="M56.194,70.158v2.252h6.98v-2.252H56.194" />
	<path fill="none" stroke="#4C4C4C" stroke-width="0.25" d="M67.792,70.158v2.252h4.617v-2.252H67.792" />
</g>
</svg>