<svg version="1.1" xmlns="http://www.w3.org/2000/svg" xmlns:xlink="http://www.w3.org/1999/xlink" width="25px" height="112px" viewBox="0 0 25.453 112.5" enable-background="new 0 0 25.453 112.5" xml:space="preserve">
<g id="Group_Outlets">
	<path fill="#386666" stroke="#4C4C4C" stroke-width="0.25" d="M22.523,86.374h1.239V87.5h-1.239V86.374z" />
	<path fill="#386666" stroke="#4C4C4C" stroke-width="0.25" d="M5.181,56.757h1.126v1.239H5.181V56.757z" />
	<path fill="#386666" stroke="#4C4C4C" stroke-width="0.25" d="M8.672,1.689h1.126V0.45H8.672V1.689z" />
	<path fill="#386666" stroke="#4C4C4C" stroke-width="0.25" d="M5.181,12.05h1.126v1.238H5.181V12.05z" />
	<path fill="#386666" stroke="#4C4C4C" stroke-width="0.25" d="M20.271,20.833h1.126v1.126h-1.126V20.833z" />
</g>
<g id="Group_Column">
	<path fill="#597F7F" stroke="#4C4C4C" stroke-width="0.25" d="M20.271,5.18v51.014l2.252,9.234v23.198l2.365,23.312H1.69   l2.252-23.312V65.428l2.365-9.234V5.18c0,0,1.427-5.083,6.981-5.083C18.147,0.098,20.271,5.18,20.271,5.18z" />
</g>
<g id="Group_Level">
	<path fill="#7F7F7F" stroke="#4C4C4C" stroke-width="0.25" d="M7.996,32.996h10.473v22.072H7.996V32.996z" />
	<path fill="none" stroke="#4C4C4C" stroke-width="0.25" d="M7.996,55.067l10.473-22.072" />
	<path fill="none" stroke="#4C4C4C" stroke-width="0.25" d="M18.469,55.067L7.996,32.996" />
</g>
<g id="Group_Lines">
	<path fill="none" stroke="#4C4C4C" stroke-width="0.25" d="M22.523,88.626c0,0-2.038,4.729-9.234,4.729   c-7.861,0-9.234-4.729-9.234-4.729" />
	<path fill="none" stroke="#4C4C4C" stroke-width="0.25" d="M6.307,5.18h13.964" />
	<path fill="none" stroke="#4C4C4C" stroke-width="0.25" d="M6.307,30.631h13.964" />
	<path fill="none" stroke="#4C4C4C" stroke-width="0.25" d="M6.307,30.067h13.964" />
	<path fill="none" stroke="#4C4C4C" stroke-width="0.25" d="M6.307,29.504h13.964" />
	<path fill="none" stroke="#4C4C4C" stroke-width="0.25" d="M17.906,28.378H6.307" />
	<path fill="none" stroke="#4C4C4C" stroke-width="0.25" d="M8.672,26.014h11.599" />
	<path fill="none" stroke="#4C4C4C" stroke-width="0.25" d="M17.906,23.761H6.307" />
	<path fill="none" stroke="#4C4C4C" stroke-width="0.25" d="M8.672,21.396h11.599" />
	<path fill="none" stroke="#4C4C4C" stroke-width="0.25" d="M17.906,19.032H6.307" />
	<path fill="none" stroke="#4C4C4C" stroke-width="0.25" d="M8.672,16.779h11.599" />
	<path fill="none" stroke="#4C4C4C" stroke-width="0.25" d="M17.906,14.415H6.307" />
	<path fill="none" stroke="#4C4C4C" stroke-width="0.25" d="M8.672,12.05h11.599" />
	<path fill="none" stroke="#4C4C4C" stroke-width="0.25" d="M3.942,65.428h18.581" />
	<path fill="none" stroke="#4C4C4C" stroke-width="0.25" d="M20.271,56.194H6.307" />
	<path fill="none" stroke="#4C4C4C" stroke-width="0.25" d="M3.942,88.626h18.581" />
	<path fill="none" stroke="#4C4C4C" stroke-width="0.25" d="M13.289,93.355l-0.563,1.127h1.126L13.289,93.355" />
	<path fill="#333333" stroke="#4C4C4C" stroke-width="0.25" d="M5.181,43.468h16.216v1.126H5.181V43.468z" />
</g>
<g id="Group_Grills">
	<path fill="none" stroke="#4C4C4C" stroke-width="0.25" d="M3.942,65.428H0.451v4.73h3.491V65.428" />
	<path fill="none" stroke="#4C4C4C" stroke-width="0.25" d="M2.253,70.158v-4.73" />
	<path fill="none" stroke="#4C4C4C" stroke-width="0.25" d="M0.451,67.793h3.491" />
</g>
<g id="Group_Board">
	<path fill="#BDCCCC" stroke="#4C4C4C" stroke-width="0.25" d="M5.181,66.104h16.216v21.959H5.181V66.104z" />
</g>
</svg>