<svg version="1.1" xmlns="http://www.w3.org/2000/svg" xmlns:xlink="http://www.w3.org/1999/xlink" width="22px" height="112px" viewBox="0 0 21.621 112.5" enable-background="new 0 0 21.621 112.5" xml:space="preserve">
<g id="Group_Column">
	<path fill="#597F7F" stroke="#4C4C4C" stroke-width="0.25" d="M16.554,6.757c0,0-0.664-4.504-6.869-4.504   c-5.74,0-6.869,4.504-6.869,4.504v45.721L0.45,70.721v41.217h18.355V70.721l-2.252-18.243V6.757z" />
	<path fill="#164C4C" stroke="#4C4C4C" stroke-width="0.25" d="M7.32,97.072v2.252H5.068v1.126h9.121v-1.126h-2.252v-2.252H7.32z" />
</g>
<g id="Group_Outlet5">
	<path fill="#164C4C" stroke="#4C4C4C" stroke-width="0.25" d="M18.806,75.338h1.689v1.126h0.563v-4.617h-0.563v1.239h-1.689V75.338   z" />
</g>
<g id="Group_Outlet4">
	<path fill="#164C4C" stroke="#4C4C4C" stroke-width="0.25" d="M16.971,55.856h1.272v1.239h0.563v-4.617h-0.563v1.126h-1.551   L16.971,55.856z" />
</g>
<g id="Group_Outlet3">
	<path fill="#164C4C" stroke="#4C4C4C" stroke-width="0.25" d="M16.554,33.671h1.689v1.126h0.563V30.18h-0.563v1.126h-1.689V33.671z   " />
</g>
<g id="Group_Outlet2">
	<path fill="#164C4C" stroke="#4C4C4C" stroke-width="0.25" d="M16.554,10.135h1.689v1.239h0.563V6.757h-0.563v1.126h-1.689V10.135z   " />
</g>
<g id="Group_Outlet1">
	<path fill="#164C4C" stroke="#4C4C4C" stroke-width="0.25" d="M10.811,2.815V1.126h1.126V0.451H7.32v0.675h1.126v1.689H10.811z" />
</g>
<g id="Group_Board">
	<path fill="#BDCCCC" stroke="#4C4C4C" stroke-width="0.25" d="M3.942,30.743h11.374v21.171H3.942V30.743z" />
</g>
<g id="Group_Front">
	<path fill="#333333" d="M2.816,30.18h13.738v-0.563H2.816V30.18z" />
	<path fill="#333333" d="M0.563,93.018h18.243v-0.563H0.563V93.018z" />
	<path fill="none" stroke="#4C4C4C" stroke-width="0.25" d="M0.45,70.834h18.355" />
	<path fill="none" stroke="#4C4C4C" stroke-width="0.25" d="M16.554,52.59H2.816" />
	<path fill="none" stroke="#4C4C4C" stroke-width="0.25" d="M2.816,50.225h11.373" />
	<path fill="none" stroke="#4C4C4C" stroke-width="0.25" d="M16.554,47.86H5.068" />
	<path fill="none" stroke="#4C4C4C" stroke-width="0.25" d="M2.816,45.608h11.373" />
	<path fill="none" stroke="#4C4C4C" stroke-width="0.25" d="M16.554,43.356H5.068" />
	<path fill="none" stroke="#4C4C4C" stroke-width="0.25" d="M2.816,40.991h11.373" />
	<path fill="none" stroke="#4C4C4C" stroke-width="0.25" d="M16.554,38.739H5.068" />
	<path fill="none" stroke="#4C4C4C" stroke-width="0.25" d="M16.554,6.757H2.816" />
	<path fill="none" stroke="#4C4C4C" stroke-width="0.25" d="M18.806,92.455c0,0-0.563,4.617-9.121,4.617   c-8.064,0-9.234-4.617-9.234-4.617" />
</g>
</svg>