<svg version="1.1" xmlns="http://www.w3.org/2000/svg" xmlns:xlink="http://www.w3.org/1999/xlink" width="27px" height="112px" viewBox="0 0 27.029 112.5" enable-background="new 0 0 27.029 112.5" xml:space="preserve">
<g id="Group_Column">
	<linearGradient id="SVGID_1_" gradientUnits="userSpaceOnUse" x1="4.7302" y1="58.333" x2="22.2986" y2="58.333">
		<stop offset="0" style="stop-color:#663300" />
		<stop offset="0.5" style="stop-color:#B28C65" />
		<stop offset="1" style="stop-color:#663300" />
	</linearGradient>
	<path fill="url(#SVGID_1_)" d="M4.73,4.167h17.568V112.5H4.73V4.167z" />
	<path fill="none" stroke="#4C4C4C" stroke-width="0.25" d="M4.73,12.5h17.568v100H4.73V12.5" />
	<path fill="none" stroke="#4C4C4C" stroke-width="0.25" d="M4.73,4.167h17.568V112.5H4.73V4.167" />
	<path fill="none" stroke="#4C4C4C" stroke-width="0.25" d="M8.334,37.5v4.167" />
	<path fill="none" stroke="#4C4C4C" stroke-width="0.25" d="M6.195,37.5v4.167" />
</g>
<g id="Group_MiddleColumn">
	<linearGradient id="SVGID_2_" gradientUnits="userSpaceOnUse" x1="4.8508" y1="61.8809" x2="22.2986" y2="61.8809">
		<stop offset="0" style="stop-color:#4C4C4C" />
		<stop offset="0.5" style="stop-color:#999999" />
		<stop offset="1" style="stop-color:#4C4C4C" />
	</linearGradient>
	<path fill="url(#SVGID_2_)" d="M4.851,44.242h17.448V79.52H4.851V44.242z" />
</g>
<g id="Group_Levels">
	<path fill="#4C1900" d="M4.168,22.86h18.693v3.153H4.168V22.86z" />
	<path fill="none" stroke="#4C4C4C" stroke-width="0.25" d="M4.168,22.86h18.693v3.153H4.168V22.86" />
	<linearGradient id="SVGID_3_" gradientUnits="userSpaceOnUse" x1="4.1677" y1="99.3809" x2="22.8611" y2="99.3809">
		<stop offset="0" style="stop-color:#4C1900" />
		<stop offset="0.25" style="stop-color:#663333" />
		<stop offset="0.5" style="stop-color:#996633" />
		<stop offset="0.75" style="stop-color:#663333" />
		<stop offset="1" style="stop-color:#4C1900" />
	</linearGradient>
	<path fill="url(#SVGID_3_)" d="M4.168,97.86h18.693v3.04H4.168V97.86z" />
	<path fill="none" stroke="#4C4C4C" stroke-width="0.25" d="M4.168,97.86h18.693v3.04H4.168V97.86" />
	<path fill="#4C1900" d="M4.168,60.36h18.693v3.04H4.168V60.36z" />
	<linearGradient id="SVGID_4_" gradientUnits="userSpaceOnUse" x1="4.1677" y1="61.8809" x2="22.8611" y2="61.8809">
		<stop offset="0" style="stop-color:#4C1900" />
		<stop offset="0.25" style="stop-color:#663333" />
		<stop offset="0.5" style="stop-color:#996633" />
		<stop offset="0.75" style="stop-color:#663333" />
		<stop offset="1" style="stop-color:#4C1900" />
	</linearGradient>
	<path fill="url(#SVGID_4_)" d="M4.168,60.36h18.693v3.04H4.168V60.36" />
	<linearGradient id="SVGID_5_" gradientUnits="userSpaceOnUse" x1="4.1677" y1="43.1309" x2="22.8611" y2="43.1309">
		<stop offset="0" style="stop-color:#4C1900" />
		<stop offset="0.25" style="stop-color:#663333" />
		<stop offset="0.5" style="stop-color:#996633" />
		<stop offset="0.75" style="stop-color:#663333" />
		<stop offset="1" style="stop-color:#4C1900" />
	</linearGradient>
	<path fill="url(#SVGID_5_)" d="M4.168,41.554h18.693v3.153H4.168V41.554z" />
	<path fill="none" stroke="#4C4C4C" stroke-width="0.25" d="M4.168,41.554h18.693v3.153H4.168V41.554" />
	<linearGradient id="SVGID_6_" gradientUnits="userSpaceOnUse" x1="4.1677" y1="80.6309" x2="22.8611" y2="80.6309">
		<stop offset="0" style="stop-color:#4C1900" />
		<stop offset="0.25" style="stop-color:#663333" />
		<stop offset="0.5" style="stop-color:#996633" />
		<stop offset="0.75" style="stop-color:#663333" />
		<stop offset="1" style="stop-color:#4C1900" />
	</linearGradient>
	<path fill="url(#SVGID_6_)" d="M4.168,79.055h18.693v3.152H4.168V79.055z" />
	<path fill="none" stroke="#4C4C4C" stroke-width="0.25" d="M4.168,79.055h18.693v3.152H4.168V79.055" />
	<path fill="none" stroke="#4C4C4C" stroke-width="0.25" d="M4.168,60.305h18.693v3.152H4.168V60.305" />
	<linearGradient id="SVGID_7_" gradientUnits="userSpaceOnUse" x1="4.1677" y1="5.6865" x2="22.8611" y2="5.6865">
		<stop offset="0" style="stop-color:#4C1900" />
		<stop offset="0.25" style="stop-color:#663333" />
		<stop offset="0.5" style="stop-color:#996633" />
		<stop offset="0.75" style="stop-color:#663333" />
		<stop offset="1" style="stop-color:#4C1900" />
	</linearGradient>
	<path fill="url(#SVGID_7_)" d="M4.168,4.167h18.693v3.041H4.168V4.167z" />
	<path fill="none" stroke="#4C4C4C" stroke-width="0.25" d="M4.168,4.167h18.693v3.041H4.168V4.167" />
	<linearGradient id="SVGID_8_" gradientUnits="userSpaceOnUse" x1="4.1677" y1="24.437" x2="22.8611" y2="24.437">
		<stop offset="0" style="stop-color:#4C1900" />
		<stop offset="0.25" style="stop-color:#663333" />
		<stop offset="0.5" style="stop-color:#996633" />
		<stop offset="0.75" style="stop-color:#663333" />
		<stop offset="1" style="stop-color:#4C1900" />
	</linearGradient>
	<path fill="url(#SVGID_8_)" d="M4.168,22.86h18.693v3.153H4.168V22.86z" />
	<path fill="none" stroke="#4C4C4C" stroke-width="0.25" d="M4.168,22.86h18.693v3.153H4.168V22.86" />
</g>
<g id="Group_Pipe2">
	<linearGradient id="SVGID_9_" gradientUnits="userSpaceOnUse" x1="15.8796" y1="77.5898" x2="18.6941" y2="77.5898">
		<stop offset="0" style="stop-color:#4C4C4C" />
		<stop offset="0.5" style="stop-color:#BFBFBF" />
		<stop offset="1" style="stop-color:#4C4C4C" />
	</linearGradient>
	<path fill="url(#SVGID_9_)" d="M15.88,58.334h2.814v38.513H15.88V58.334z" />
	<path fill="none" stroke="#4C4C4C" stroke-width="0.25" d="M15.88,58.334h2.814v38.513H15.88V58.334z" />
</g>
<g id="Group_Pipe1">
	<linearGradient id="SVGID_10_" gradientUnits="userSpaceOnUse" x1="6.1951" y1="58.2773" x2="9.0095" y2="58.2773">
		<stop offset="0" style="stop-color:#4C4C4C" />
		<stop offset="0.5" style="stop-color:#BFBFBF" />
		<stop offset="1" style="stop-color:#4C4C4C" />
	</linearGradient>
	<path fill="url(#SVGID_10_)" d="M6.195,7.207H9.01v102.14H6.195V7.207z" />
	<path fill="none" stroke="#4C4C4C" stroke-width="0.25" d="M6.195,7.207H9.01v102.14H6.195V7.207z" />
</g>
<g id="Group_Steps">
	<path fill="none" stroke="#4C4C4C" stroke-width="0.25" d="M2.028,64.527h2.14" />
	<path fill="none" stroke="#4C4C4C" stroke-width="0.25" d="M2.028,66.666h2.14" />
	<path fill="none" stroke="#4C4C4C" stroke-width="0.25" d="M2.028,68.693h2.14" />
	<path fill="none" stroke="#4C4C4C" stroke-width="0.25" d="M2.028,70.834h2.14" />
	<path fill="none" stroke="#4C4C4C" stroke-width="0.25" d="M2.028,72.86h2.14" />
	<path fill="none" stroke="#4C4C4C" stroke-width="0.25" d="M2.028,74.887h2.14" />
	<path fill="none" stroke="#4C4C4C" stroke-width="0.25" d="M2.028,77.027h2.14" />
	<path fill="none" stroke="#4C4C4C" stroke-width="0.25" d="M2.028,79.055h2.14" />
	<path fill="none" stroke="#4C4C4C" stroke-width="0.25" d="M2.028,81.193h2.14" />
	<path fill="none" stroke="#4C4C4C" stroke-width="0.25" d="M2.028,83.221h2.14" />
	<path fill="none" stroke="#4C4C4C" stroke-width="0.25" d="M2.028,85.36h2.14" />
	<path fill="none" stroke="#4C4C4C" stroke-width="0.25" d="M2.028,87.387h2.14" />
	<path fill="none" stroke="#4C4C4C" stroke-width="0.25" d="M2.028,89.527h2.14" />
	<path fill="none" stroke="#4C4C4C" stroke-width="0.25" d="M2.028,91.555h2.14" />
	<path fill="none" stroke="#4C4C4C" stroke-width="0.25" d="M2.028,93.693h2.14" />
	<path fill="none" stroke="#4C4C4C" stroke-width="0.25" d="M2.028,95.721h2.14" />
	<path fill="none" stroke="#4C4C4C" stroke-width="0.25" d="M2.028,97.86h2.14" />
	<path fill="none" stroke="#4C4C4C" stroke-width="0.25" d="M2.028,99.887h2.14" />
	<path fill="none" stroke="#4C4C4C" stroke-width="0.25" d="M2.028,102.027h2.14" />
	<path fill="none" stroke="#4C4C4C" stroke-width="0.25" d="M2.028,104.055h2.14" />
	<path fill="none" stroke="#4C4C4C" stroke-width="0.25" d="M2.028,106.193h2.14" />
	<path fill="none" stroke="#4C4C4C" stroke-width="0.25" d="M2.028,108.221h2.14" />
	<path fill="none" stroke="#4C4C4C" stroke-width="0.25" d="M2.028,110.36h2.14" />
	<path fill="none" stroke="#4C4C4C" stroke-width="0.25" d="M2.028,16.554h2.14" />
	<path fill="none" stroke="#4C4C4C" stroke-width="0.25" d="M2.028,18.694h2.14" />
	<path fill="none" stroke="#4C4C4C" stroke-width="0.25" d="M2.028,20.721h2.14" />
	<path fill="none" stroke="#4C4C4C" stroke-width="0.25" d="M2.028,22.86h2.14" />
	<path fill="none" stroke="#4C4C4C" stroke-width="0.25" d="M2.028,24.887h2.14" />
	<path fill="none" stroke="#4C4C4C" stroke-width="0.25" d="M2.028,26.915h2.14" />
	<path fill="none" stroke="#4C4C4C" stroke-width="0.25" d="M2.028,29.054h2.14" />
	<path fill="none" stroke="#4C4C4C" stroke-width="0.25" d="M2.028,31.081h2.14" />
	<path fill="none" stroke="#4C4C4C" stroke-width="0.25" d="M2.028,33.221h2.14" />
	<path fill="none" stroke="#4C4C4C" stroke-width="0.25" d="M2.028,35.248h2.14" />
	<path fill="none" stroke="#4C4C4C" stroke-width="0.25" d="M2.028,37.387h2.14" />
	<path fill="none" stroke="#4C4C4C" stroke-width="0.25" d="M2.028,39.415h2.14" />
	<path fill="none" stroke="#4C4C4C" stroke-width="0.25" d="M2.028,41.554h2.14" />
	<path fill="none" stroke="#4C4C4C" stroke-width="0.25" d="M2.028,43.581h2.14" />
	<path fill="none" stroke="#4C4C4C" stroke-width="0.25" d="M2.028,45.721h2.14" />
	<path fill="none" stroke="#4C4C4C" stroke-width="0.25" d="M2.028,47.748h2.14" />
	<path fill="none" stroke="#4C4C4C" stroke-width="0.25" d="M2.028,49.887h2.14" />
	<path fill="none" stroke="#4C4C4C" stroke-width="0.25" d="M2.028,51.915h2.14" />
	<path fill="none" stroke="#4C4C4C" stroke-width="0.25" d="M2.028,54.054h2.14" />
	<path fill="none" stroke="#4C4C4C" stroke-width="0.25" d="M2.028,56.081h2.14" />
	<path fill="none" stroke="#4C4C4C" stroke-width="0.25" d="M2.028,58.221h2.14" />
	<path fill="none" stroke="#4C4C4C" stroke-width="0.25" d="M2.028,60.248h2.14" />
	<path fill="none" stroke="#4C4C4C" stroke-width="0.25" d="M2.028,62.387h2.14" />
	<path fill="none" stroke="#4C4C4C" stroke-width="0.25" d="M2.028,14.527h2.14" />
	<path fill="none" stroke="#4C4C4C" stroke-width="0.25" d="M4.168,12.5h-2.14" />
	<path fill="none" stroke="#4C4C4C" stroke-width="0.25" d="M2.028,10.36h2.14" />
	<path fill="none" stroke="#4C4C4C" stroke-width="0.25" d="M4.168,8.333h-2.14" />
	<path fill="none" stroke="#4C4C4C" stroke-width="0.25" d="M2.028,6.194h2.14" />
	<path fill="none" stroke="#4C4C4C" stroke-width="0.25" d="M2.028,2.027h2.14" />
	<path fill="none" stroke="#4C4C4C" stroke-width="0.25" d="M27.028,37.5v4.167H0.001V37.5H27.028z" />
	<path fill="none" stroke="#4C4C4C" stroke-width="0.25" d="M25.001,37.5v4.167" />
	<path fill="none" stroke="#4C4C4C" stroke-width="0.25" d="M22.861,37.5v4.167" />
	<path fill="none" stroke="#4C4C4C" stroke-width="0.25" d="M20.834,37.5v4.167" />
	<path fill="none" stroke="#4C4C4C" stroke-width="0.25" d="M18.694,37.5v4.167" />
	<path fill="none" stroke="#4C4C4C" stroke-width="0.25" d="M16.668,37.5v4.167" />
	<path fill="none" stroke="#4C4C4C" stroke-width="0.25" d="M14.528,37.5v4.167" />
	<path fill="none" stroke="#4C4C4C" stroke-width="0.25" d="M12.501,37.5v4.167" />
	<path fill="none" stroke="#4C4C4C" stroke-width="0.25" d="M10.361,37.5v4.167" />
	<path fill="none" stroke="#4C4C4C" stroke-width="0.25" d="M2.028,37.5v4.167" />
	<path fill="none" stroke="#4C4C4C" stroke-width="0.25" d="M27.028,0v4.167H0.001V0H27.028z" />
	<path fill="none" stroke="#4C4C4C" stroke-width="0.25" d="M25.001,0v4.167" />
	<path fill="none" stroke="#4C4C4C" stroke-width="0.25" d="M22.861,0v4.167" />
	<path fill="none" stroke="#4C4C4C" stroke-width="0.25" d="M20.834,0v4.167" />
	<path fill="none" stroke="#4C4C4C" stroke-width="0.25" d="M18.694,0v4.167" />
	<path fill="none" stroke="#4C4C4C" stroke-width="0.25" d="M16.668,0v4.167" />
	<path fill="none" stroke="#4C4C4C" stroke-width="0.25" d="M14.528,0v4.167" />
	<path fill="none" stroke="#4C4C4C" stroke-width="0.25" d="M12.501,0v4.167" />
	<path fill="none" stroke="#4C4C4C" stroke-width="0.25" d="M10.361,0v4.167" />
	<path fill="none" stroke="#4C4C4C" stroke-width="0.25" d="M8.334,0v4.167" />
	<path fill="none" stroke="#4C4C4C" stroke-width="0.25" d="M6.195,0v4.167" />
	<path fill="none" stroke="#4C4C4C" stroke-width="0.25" d="M4.168,0v4.167" />
	<path fill="none" stroke="#4C4C4C" stroke-width="0.25" d="M2.028,4.167V0h2.14v112.5h-2.14V0" />
	<path fill="none" stroke="#4C4C4C" stroke-width="0.25" d="M4.168,4.167h-2.14" />
	<path fill="none" stroke="#4C4C4C" stroke-width="0.25" d="M4.168,37.5v4.167" />
</g>
</svg>