<svg version="1.1" xmlns="http://www.w3.org/2000/svg" xmlns:xlink="http://www.w3.org/1999/xlink" width="52px" height="112px" viewBox="0 0 52.193 112.5" enable-background="new 0 0 52.193 112.5" xml:space="preserve">
<g id="Group_TopColumn">
	<linearGradient id="SVGID_1_" gradientUnits="userSpaceOnUse" x1="0.5642" y1="20.3467" x2="47.0066" y2="20.3467">
		<stop offset="0" style="stop-color:#FFCC00" />
		<stop offset="0.5" style="stop-color:#FFB200" />
		<stop offset="1" style="stop-color:#FFCC00" />
	</linearGradient>
	<path fill="url(#SVGID_1_)" d="M47.007,9.92v30.098H0.564V9.92c0,0,1.068-2.451,6.386-3.42c8-1.458,10.974-1.202,10.974-1.202   V1.804H15.67V0.676h16.232v1.127h-2.367l0.112,3.494c0,0,5.449-0.173,11.303,1.265C46.47,7.918,47.007,9.92,47.007,9.92z" />
	<path fill="none" stroke="#4C4C4C" stroke-width="0.25" d="M0.564,40.581V9.939c0,0,1.058-2.229,6.386-3.354   c6-1.268,10.974-1.22,10.974-1.22V1.707H15.67V0.563h16.232v1.144h-2.367l0.112,3.658c0,0,5.615-0.175,11.303,1.283   c5.066,1.299,6.057,3.291,6.057,3.291v30.642H0" />
</g>
<g id="Group_MiddleColumn">
	<path fill="#B2B2E5" d="M0.564,40.018v39.454h46.442v-9.243h4.622v-6.99h-4.622V47.006h4.622v-6.989H0.564z" />
	<path fill="none" stroke="#4C4C4C" stroke-width="0.25" d="M47.007,107.314V70.229h4.622v-6.99h-4.622V47.006h4.622v-6.989h-4.622   V9.807c0,0-0.99-1.964-6.057-3.245c-5.688-1.438-11.303-1.265-11.303-1.265l-0.112-3.607h2.367V0.563H15.67v1.127h2.254v3.607   c0,0-4.974-0.048-10.974,1.202C1.622,7.61,0.564,9.807,0.564,9.807v30.102v67.406c0,0,0.468,4.734,23.222,4.734   C46.358,112.049,47.007,107.314,47.007,107.314" />
</g>
<g id="Group_BottomColumn">
	<path fill="#7387A6" d="M47.007,107.314V79.472H0.564v27.843c0,0,0.299,4.734,23.222,4.734   C45.894,112.049,47.007,107.314,47.007,107.314z" />
	<path fill="none" stroke="#4C4C4C" stroke-width="0.25" d="M47.007,107.314V70.229h4.622v-6.99h-4.622V47.006h4.622v-6.989h-4.622   V9.807c0,0-0.99-1.964-6.057-3.245c-5.688-1.438-11.303-1.265-11.303-1.265l-0.112-3.607h2.367V0.563H15.67v1.127h2.254v3.607   c0,0-4.974-0.048-10.974,1.202C1.622,7.61,0.564,9.807,0.564,9.807v97.507c0,0,0.468,4.734,23.222,4.734   C46.358,112.049,47.007,107.314,47.007,107.314" />
</g>
<g id="Group_Filter">
	<linearGradient id="SVGID_2_" gradientUnits="userSpaceOnUse" x1="0.5642" y1="75.4131" x2="47.0066" y2="75.4131">
		<stop offset="0" style="stop-color:#7FCC7F" />
		<stop offset="0.5" style="stop-color:#66CC66" />
		<stop offset="1" style="stop-color:#7FCC7F" />
	</linearGradient>
	<path fill="url(#SVGID_2_)" d="M0.564,40.018v9.244l18.6,18.6v42.947h9.243V67.861l18.6-18.6v-9.244H0.564z" />
	<path fill="none" stroke="#4C4C4C" stroke-width="0.25" d="M19.164,105.061v-2.367" />
	<path fill="none" stroke="#4C4C4C" stroke-width="0.25" d="M19.164,100.326v-2.255" />
	<path fill="none" stroke="#4C4C4C" stroke-width="0.25" d="M19.164,95.704v-2.255" />
	<path fill="none" stroke="#4C4C4C" stroke-width="0.25" d="M19.164,91.082v-2.254" />
	<path fill="none" stroke="#4C4C4C" stroke-width="0.25" d="M19.164,86.461v-2.367" />
	<path fill="none" stroke="#4C4C4C" stroke-width="0.25" d="M19.164,81.839v-2.367" />
	<path fill="none" stroke="#4C4C4C" stroke-width="0.25" d="M19.164,77.104V74.85" />
	<path fill="none" stroke="#4C4C4C" stroke-width="0.25" d="M19.164,72.482v-2.254" />
	<path fill="none" stroke="#4C4C4C" stroke-width="0.25" d="M19.052,67.861L17.36,66.17" />
	<path fill="none" stroke="#4C4C4C" stroke-width="0.25" d="M15.782,64.592l-1.69-1.691" />
	<path fill="none" stroke="#4C4C4C" stroke-width="0.25" d="M12.513,61.322l-1.691-1.69" />
	<path fill="none" stroke="#4C4C4C" stroke-width="0.25" d="M9.244,58.054l-1.69-1.691" />
	<path fill="none" stroke="#4C4C4C" stroke-width="0.25" d="M5.975,54.785l-1.691-1.691" />
	<path fill="none" stroke="#4C4C4C" stroke-width="0.25" d="M2.594,51.403l-1.578-1.578" />
	<path fill="none" stroke="#4C4C4C" stroke-width="0.25" d="M28.407,105.061v-2.367" />
	<path fill="none" stroke="#4C4C4C" stroke-width="0.25" d="M28.407,100.326v-2.255" />
	<path fill="none" stroke="#4C4C4C" stroke-width="0.25" d="M28.407,95.704v-2.255" />
	<path fill="none" stroke="#4C4C4C" stroke-width="0.25" d="M28.407,91.082v-2.254" />
	<path fill="none" stroke="#4C4C4C" stroke-width="0.25" d="M28.407,86.461v-2.367" />
	<path fill="none" stroke="#4C4C4C" stroke-width="0.25" d="M28.407,81.839v-2.367" />
	<path fill="none" stroke="#4C4C4C" stroke-width="0.25" d="M28.407,77.104V74.85" />
	<path fill="none" stroke="#4C4C4C" stroke-width="0.25" d="M28.407,72.482v-2.254" />
	<path fill="none" stroke="#4C4C4C" stroke-width="0.25" d="M28.407,67.974l1.578-1.69" />
	<path fill="none" stroke="#4C4C4C" stroke-width="0.25" d="M31.677,64.592l1.69-1.578" />
	<path fill="none" stroke="#4C4C4C" stroke-width="0.25" d="M34.945,61.322l1.691-1.578" />
	<path fill="none" stroke="#4C4C4C" stroke-width="0.25" d="M38.327,58.054l1.578-1.578" />
	<path fill="none" stroke="#4C4C4C" stroke-width="0.25" d="M41.596,54.785l1.578-1.691" />
	<path fill="none" stroke="#4C4C4C" stroke-width="0.25" d="M44.865,51.516l1.578-1.691" />
	<path fill="none" stroke="#4C4C4C" stroke-width="0.25" d="M19.164,109.682v-2.367" />
	<path fill="none" stroke="#4C4C4C" stroke-width="0.25" d="M28.407,109.682v-2.367" />
</g>
<g id="Group_Pebbles">
	<path fill="#990000" stroke="#4C4C4C" stroke-width="0.25" d="M37.651,108.893c-0.04,0.352,0.379,1.049,0.676,1.24   c0.333,0.214,1.278,0.371,1.578,0.113c0.278-0.239,0.28-1.139,0.113-1.466c-0.195-0.384-1.04-0.964-1.466-0.901   C38.217,107.929,37.69,108.555,37.651,108.893z" />
	<path fill="#990000" stroke="#4C4C4C" stroke-width="0.25" d="M33.255,109.23c-0.173,0.29-0.168,1.061,0,1.354   c0.194,0.339,0.973,0.882,1.353,0.789c0.357-0.087,0.78-0.873,0.789-1.24c0.011-0.454-0.464-1.454-0.901-1.578   C34.155,108.458,33.435,108.927,33.255,109.23z" />
	<path fill="#990000" stroke="#4C4C4C" stroke-width="0.25" d="M34.269,108.104c0.062-0.335-0.3-1.024-0.563-1.24   c-0.291-0.238-1.147-0.537-1.466-0.338s-0.457,1.109-0.338,1.466c0.14,0.417,0.913,1.146,1.353,1.127   C33.613,109.103,34.205,108.457,34.269,108.104z" />
	<path fill="#990000" stroke="#4C4C4C" stroke-width="0.25" d="M35.396,109.23c-0.072,0.322,0.201,1.023,0.451,1.24   c0.305,0.265,1.238,0.555,1.578,0.338c0.316-0.202,0.458-1.108,0.338-1.465c-0.141-0.417-0.913-1.147-1.353-1.127   C36.052,108.233,35.474,108.88,35.396,109.23z" />
	<path fill="#990000" stroke="#4C4C4C" stroke-width="0.25" d="M29.873,107.314c-0.33-0.111-1.1,0.099-1.353,0.338   c-0.278,0.264-0.619,1.121-0.451,1.466c0.172,0.353,1.082,0.645,1.466,0.563c0.429-0.091,1.216-0.803,1.239-1.24   C30.794,108.081,30.215,107.43,29.873,107.314z" />
	<path fill="#990000" stroke="#4C4C4C" stroke-width="0.25" d="M32.691,111.035c0.232-0.251,0.339-1.03,0.226-1.354   c-0.125-0.358-0.749-1.033-1.128-1.014c-0.378,0.02-0.94,0.755-1.015,1.127c-0.082,0.411,0.194,1.38,0.563,1.578   C31.645,111.538,32.454,111.291,32.691,111.035z" />
	<path fill="#990000" stroke="#4C4C4C" stroke-width="0.25" d="M25.476,107.766c-0.122,0.326,0.111,1.089,0.338,1.353   c0.239,0.277,1.017,0.708,1.354,0.563c0.36-0.154,0.636-1.079,0.563-1.465c-0.077-0.412-0.711-1.193-1.128-1.24   C26.261,106.938,25.596,107.443,25.476,107.766z" />
	<path fill="#990000" stroke="#4C4C4C" stroke-width="0.25" d="M25.476,111.26c0.122-0.326-0.107-1.092-0.338-1.353   c-0.26-0.294-1.105-0.718-1.466-0.563c-0.336,0.144-0.627,0.992-0.563,1.353c0.08,0.452,0.784,1.303,1.24,1.353   C24.691,112.086,25.356,111.582,25.476,111.26z" />
	<path fill="#990000" stroke="#4C4C4C" stroke-width="0.25" d="M27.844,107.879c0.292,0.172,1.069,0.072,1.353-0.113   c0.348-0.228,0.914-1.068,0.789-1.465c-0.113-0.36-0.977-0.712-1.353-0.678c-0.421,0.038-1.248,0.606-1.353,1.016   C27.195,106.969,27.55,107.706,27.844,107.879z" />
	<path fill="#990000" stroke="#4C4C4C" stroke-width="0.25" d="M29.535,109.484c-0.345-0.092-1.115,0.185-1.354,0.451   c-0.27,0.301-0.554,1.237-0.338,1.578c0.201,0.317,1.109,0.458,1.466,0.338c0.417-0.141,1.134-0.913,1.127-1.353   C30.43,110.159,29.863,109.572,29.535,109.484z" />
	<path fill="#990000" stroke="#4C4C4C" stroke-width="0.25" d="M23.898,109.682c0.336-0.051,0.897-0.582,1.015-0.901   c0.137-0.374,0.093-1.339-0.226-1.578s-1.28-0.039-1.578,0.226c-0.327,0.291-0.639,1.295-0.451,1.69   C22.803,109.426,23.562,109.732,23.898,109.682z" />
	<path fill="#990000" stroke="#4C4C4C" stroke-width="0.25" d="M26.495,109.397c-0.336,0.051-0.898,0.582-1.015,0.901   c-0.137,0.374-0.094,1.341,0.226,1.578c0.297,0.221,1.183,0.014,1.466-0.225c0.341-0.287,0.742-1.283,0.563-1.691   C27.598,109.648,26.831,109.347,26.495,109.397z" />
	<path fill="#990000" stroke="#4C4C4C" stroke-width="0.25" d="M23.109,110.809c0-0.328-0.391-0.966-0.677-1.127   c-0.343-0.194-1.299-0.279-1.578,0c-0.259,0.259-0.192,1.154,0,1.466c0.232,0.375,1.155,0.913,1.578,0.789   C22.748,111.845,23.11,111.138,23.109,110.809z" />
	<path fill="#990000" stroke="#4C4C4C" stroke-width="0.25" d="M20.854,110.02c0.029,0.353-0.379,1.048-0.676,1.24   c-0.308,0.2-1.178,0.342-1.466,0.113c-0.291-0.23-0.386-1.132-0.226-1.466c0.197-0.409,1.132-0.989,1.578-0.901   C20.381,109.068,20.828,109.699,20.854,110.02z" />
	<path fill="#990000" stroke="#4C4C4C" stroke-width="0.25" d="M8.68,108.58c0.172,0.29,0.168,1.059,0,1.352   c-0.195,0.34-0.972,0.881-1.353,0.789c-0.357-0.086-0.78-0.872-0.789-1.239c-0.011-0.454,0.464-1.455,0.901-1.578   C7.78,107.808,8.5,108.276,8.68,108.58z" />
	<path fill="#990000" stroke="#4C4C4C" stroke-width="0.25" d="M9.807,107.54c-0.071-0.349,0.178-1.124,0.451-1.353   c0.306-0.256,1.25-0.451,1.578-0.226c0.31,0.213,0.465,1.112,0.338,1.466c-0.156,0.435-1.005,1.171-1.465,1.127   C10.372,108.522,9.876,107.873,9.807,107.54z" />
	<path fill="#990000" stroke="#4C4C4C" stroke-width="0.25" d="M21.419,105.962c0.081,0.319-0.21,1.016-0.451,1.24   c-0.3,0.279-1.234,0.674-1.578,0.45c-0.334-0.217-0.37-1.207-0.226-1.578c0.146-0.373,0.84-1.022,1.24-1.014   C20.743,105.067,21.336,105.633,21.419,105.962z" />
	<path fill="#990000" stroke="#4C4C4C" stroke-width="0.25" d="M22.884,105.061c0.336-0.094,1.097,0.101,1.353,0.338   c0.261,0.242,0.603,1.03,0.451,1.353c-0.167,0.354-1.082,0.646-1.466,0.563c-0.429-0.092-1.226-0.803-1.239-1.24   C21.972,105.735,22.557,105.152,22.884,105.061z" />
	<path fill="#990000" stroke="#4C4C4C" stroke-width="0.25" d="M11.385,110.358c-0.232-0.252-0.339-1.029-0.226-1.353   c0.125-0.358,0.749-1.035,1.128-1.015s0.941,0.755,1.015,1.127c0.081,0.411-0.195,1.381-0.564,1.578   C12.431,110.86,11.622,110.614,11.385,110.358z" />
	<path fill="#990000" stroke="#4C4C4C" stroke-width="0.25" d="M17.36,105.962c0.139,0.35-0.095,1.179-0.338,1.466   c-0.236,0.279-1.016,0.707-1.353,0.563c-0.361-0.154-0.646-1.082-0.564-1.466c0.091-0.43,0.804-1.196,1.24-1.24   C16.649,105.255,17.247,105.679,17.36,105.962z" />
	<path fill="#990000" stroke="#4C4C4C" stroke-width="0.25" d="M13.302,110.133c-0.133-0.321,0.107-1.092,0.338-1.353   c0.26-0.294,1.104-0.718,1.465-0.563c0.336,0.144,0.636,0.993,0.564,1.353c-0.085,0.43-0.805,1.186-1.24,1.239   C14.103,110.849,13.428,110.437,13.302,110.133z" />
	<path fill="#990000" stroke="#4C4C4C" stroke-width="0.25" d="M14.429,108.555c-0.298,0.161-1.069,0.072-1.353-0.113   c-0.348-0.228-0.915-1.068-0.789-1.465c0.114-0.36,0.976-0.703,1.353-0.676c0.444,0.032,1.362,0.581,1.465,1.014   C15.187,107.658,14.74,108.387,14.429,108.555z" />
	<path fill="#990000" stroke="#4C4C4C" stroke-width="0.25" d="M20.968,107.314c0.335-0.061,1.015,0.309,1.24,0.564   c0.253,0.288,0.645,1.135,0.45,1.465c-0.205,0.348-1.197,0.47-1.578,0.338c-0.416-0.144-1.147-0.913-1.127-1.353   C19.969,107.971,20.614,107.379,20.968,107.314z" />
	<path fill="#990000" stroke="#4C4C4C" stroke-width="0.25" d="M18.375,109.118c-0.335-0.056-0.898-0.582-1.015-0.901   c-0.137-0.374-0.093-1.339,0.226-1.578s1.272-0.03,1.578,0.225c0.343,0.285,0.748,1.286,0.563,1.691   C19.575,108.888,18.736,109.179,18.375,109.118z" />
	<path fill="#990000" stroke="#4C4C4C" stroke-width="0.25" d="M9.921,108.139c0.319,0.038,0.884,0.495,1.015,0.789   c0.161,0.361,0.186,1.319-0.113,1.578s-1.266,0.13-1.578-0.113c-0.352-0.273-0.742-1.282-0.563-1.69   C8.817,108.39,9.583,108.099,9.921,108.139z" />
	<path fill="#990000" stroke="#4C4C4C" stroke-width="0.25" d="M15.67,110.246c0-0.345,0.484-0.969,0.789-1.128   c0.325-0.169,1.206-0.259,1.465,0s0.188,1.151,0,1.466c-0.213,0.357-1.06,0.885-1.465,0.789   C16.124,111.293,15.67,110.59,15.67,110.246z" />
	<path fill="#990000" stroke="#4C4C4C" stroke-width="0.25" d="M0.564,47.57c-0.007-0.353,0.372-1.06,0.676-1.24   c0.339-0.202,1.299-0.279,1.578,0s0.208,1.243,0,1.578c-0.232,0.375-1.155,0.913-1.578,0.789   C0.925,48.605,0.571,47.899,0.564,47.57z" />
	<path fill="#990000" stroke="#4C4C4C" stroke-width="0.25" d="M4.847,42.836c0.347-0.082,1.113,0.187,1.353,0.451   c0.253,0.278,0.541,1.148,0.339,1.465c-0.216,0.34-1.2,0.48-1.578,0.338c-0.396-0.148-1.044-0.931-1.015-1.353   C3.969,43.42,4.537,42.909,4.847,42.836z" />
	<path fill="#990000" stroke="#4C4C4C" stroke-width="0.25" d="M2.818,40.807c0.122,0.326-0.111,1.088-0.338,1.353   c-0.239,0.278-1.016,0.708-1.353,0.564c-0.361-0.155-0.636-1.08-0.563-1.466c0.077-0.412,0.71-1.193,1.127-1.24   C2.033,39.979,2.698,40.484,2.818,40.807z" />
	<path fill="#990000" stroke="#4C4C4C" stroke-width="0.25" d="M5.975,40.581c0.331-0.111,1.099,0.099,1.353,0.338   c0.278,0.264,0.613,1.119,0.45,1.465c-0.156,0.331-0.992,0.627-1.353,0.563c-0.452-0.08-1.317-0.783-1.353-1.24   C5.045,41.349,5.634,40.696,5.975,40.581z" />
	<path fill="#990000" stroke="#4C4C4C" stroke-width="0.25" d="M5.186,41.483c0.092,0.345-0.186,1.115-0.451,1.353   c-0.301,0.269-1.239,0.557-1.578,0.338s-0.48-1.2-0.339-1.578c0.148-0.396,0.931-1.032,1.354-1.015   C4.511,40.595,5.098,41.155,5.186,41.483z" />
	<path fill="#990000" stroke="#4C4C4C" stroke-width="0.25" d="M0.451,44.301c-0.082-0.357,0.284-1.117,0.564-1.353   c0.287-0.243,1.148-0.54,1.465-0.338c0.34,0.217,0.479,1.2,0.338,1.578c-0.148,0.396-0.93,1.032-1.353,1.015   C1.126,45.189,0.527,44.632,0.451,44.301z" />
	<path fill="#990000" stroke="#4C4C4C" stroke-width="0.25" d="M4.172,44.301c0.183,0.285,0.153,1.051,0,1.353   c-0.174,0.342-0.863,0.969-1.24,0.902c-0.4-0.072-0.895-0.946-0.902-1.353c-0.008-0.43,0.491-1.34,0.902-1.466   C3.257,43.638,3.987,44.015,4.172,44.301z" />
	<path fill="#990000" stroke="#4C4C4C" stroke-width="0.25" d="M46.894,47.57c0.007-0.353-0.373-1.06-0.677-1.24   c-0.339-0.202-1.299-0.279-1.578,0s-0.207,1.243,0,1.578c0.231,0.375,1.154,0.913,1.578,0.789   C46.533,48.605,46.887,47.899,46.894,47.57z" />
	<path fill="#990000" stroke="#4C4C4C" stroke-width="0.25" d="M42.611,42.836c-0.321-0.071-1.014,0.212-1.24,0.451   c-0.264,0.278-0.646,1.135-0.451,1.465c0.204,0.348,1.2,0.48,1.578,0.338c0.396-0.148,1.045-0.931,1.015-1.353   C43.49,43.419,42.923,42.905,42.611,42.836z" />
	<path fill="#990000" stroke="#4C4C4C" stroke-width="0.25" d="M44.639,40.807c-0.122,0.326,0.111,1.088,0.339,1.353   c0.239,0.277,1.016,0.708,1.353,0.564c0.361-0.155,0.636-1.08,0.563-1.466c-0.077-0.412-0.71-1.193-1.127-1.24   C45.426,39.979,44.76,40.484,44.639,40.807z" />
	<path fill="#990000" stroke="#4C4C4C" stroke-width="0.25" d="M41.483,40.581c-0.33-0.111-1.1,0.099-1.353,0.338   c-0.278,0.264-0.619,1.121-0.451,1.465c0.172,0.353,1.082,0.645,1.466,0.563c0.43-0.091,1.216-0.802,1.24-1.24   C42.406,41.348,41.825,40.696,41.483,40.581z" />
	<path fill="#990000" stroke="#4C4C4C" stroke-width="0.25" d="M42.272,41.483c-0.082,0.357,0.283,1.116,0.563,1.353   c0.287,0.243,1.148,0.54,1.466,0.338c0.341-0.216,0.479-1.2,0.338-1.578c-0.147-0.396-0.93-1.03-1.353-1.015   C42.948,40.593,42.348,41.152,42.272,41.483z" />
	<path fill="#990000" stroke="#4C4C4C" stroke-width="0.25" d="M47.007,44.301c0.071-0.359-0.283-1.116-0.563-1.353   c-0.287-0.243-1.147-0.54-1.465-0.338c-0.341,0.216-0.487,1.203-0.339,1.578c0.164,0.415,1.022,1.055,1.466,1.015   C46.423,45.174,46.944,44.614,47.007,44.301z" />
	<path fill="#990000" stroke="#4C4C4C" stroke-width="0.25" d="M43.287,44.301c-0.183,0.285-0.159,1.054,0,1.353   c0.191,0.358,0.957,0.993,1.353,0.902c0.381-0.088,0.794-0.961,0.789-1.353c-0.005-0.43-0.49-1.34-0.901-1.466   C44.202,43.638,43.47,44.015,43.287,44.301z" />
	<path fill="#990000" stroke="#4C4C4C" stroke-width="0.25" d="M4.172,48.81c0.183,0.285,0.153,1.051,0,1.353   c-0.174,0.342-0.863,0.969-1.24,0.901c-0.4-0.072-0.895-0.946-0.902-1.353c-0.008-0.43,0.491-1.34,0.902-1.465   C3.257,48.147,3.987,48.524,4.172,48.81z" />
	<path fill="#990000" stroke="#4C4C4C" stroke-width="0.25" d="M43.287,48.81c-0.183,0.285-0.159,1.055,0,1.353   c0.191,0.358,0.957,0.993,1.353,0.901c0.381-0.088,0.794-0.961,0.789-1.353c-0.005-0.43-0.49-1.34-0.901-1.465   C44.202,48.147,43.47,48.524,43.287,48.81z" />
	<path fill="#990000" stroke="#4C4C4C" stroke-width="0.25" d="M4.847,51.064c0.344-0.092,1.113,0.188,1.353,0.451   c0.253,0.278,0.541,1.148,0.339,1.465c-0.216,0.34-1.197,0.472-1.578,0.338c-0.378-0.132-1.023-0.839-1.015-1.24   C3.953,51.74,4.519,51.152,4.847,51.064z" />
	<path fill="#990000" stroke="#4C4C4C" stroke-width="0.25" d="M42.611,51.064c-0.32-0.081-1.014,0.212-1.24,0.451   c-0.264,0.278-0.646,1.135-0.451,1.465c0.204,0.348,1.197,0.472,1.578,0.338c0.378-0.132,1.022-0.839,1.015-1.24   C43.506,51.74,42.94,51.148,42.611,51.064z" />
</g>
</svg>