<!DOCTYPE svg PUBLIC "-//W3C//DTD SVG 1.1//EN" "http://www.w3.org/Graphics/SVG/1.1/DTD/svg11.dtd"[]><svg version="1.1" xmlns="http://www.w3.org/2000/svg" xmlns:xlink="http://www.w3.org/1999/xlink" width="76px" height="112px" viewBox="0 0 75.564 112.5" enable-background="new 0 0 75.564 112.5" xml:space="preserve">
<g id="Group_Body">
	<linearGradient id="SVGID_1_" gradientUnits="userSpaceOnUse" x1="23.9871" y1="56.25" x2="52.1404" y2="56.25">
		<stop offset="0" style="stop-color:#383838" />
		<stop offset="0.5" style="stop-color:#ECECEC" />
		<stop offset="0.57" style="stop-color:#D9D9D9" />
		<stop offset="0.71" style="stop-color:#A8A8A8" />
		<stop offset="0.92" style="stop-color:#5A5A5A" />
		<stop offset="1" style="stop-color:#383838" />
	</linearGradient>
	<path fill="url(#SVGID_1_)" d="M23.987,112.5H52.14V0H23.987V112.5z" />
	<linearGradient id="SVGID_2_" gradientUnits="userSpaceOnUse" x1="23.9871" y1="5.5181" x2="52.1404" y2="5.5181">
		<stop offset="0" style="stop-color:#383838" />
		<stop offset="0.01" style="stop-color:#3B3B3B" />
		<stop offset="0.25" style="stop-color:#757575" />
		<stop offset="0.42" style="stop-color:#989898" />
		<stop offset="0.51" style="stop-color:#A6A6A6" />
		<stop offset="0.69" style="stop-color:#818181" />
		<stop offset="1" style="stop-color:#383838" />
	</linearGradient>
	<rect x="23.987" fill="url(#SVGID_2_)" width="28.153" height="11.036" />
	<path fill="none" stroke="#4C4C4C" stroke-width="0.25" d="M26.352,0v11.036" />
	<path fill="none" stroke="#4C4C4C" stroke-width="0.25" d="M35.699,0v11.036" />
	<path fill="none" stroke="#4C4C4C" stroke-width="0.25" d="M45.046,0v11.036" />
	<path fill="none" stroke="#4C4C4C" stroke-width="0.25" d="M28.717,0v11.036" />
	<path fill="none" stroke="#4C4C4C" stroke-width="0.25" d="M38.063,0v11.036" />
	<path fill="none" stroke="#4C4C4C" stroke-width="0.25" d="M47.298,0v11.036" />
	<path fill="none" stroke="#4C4C4C" stroke-width="0.25" d="M31.082,0v11.036" />
	<path fill="none" stroke="#4C4C4C" stroke-width="0.25" d="M40.428,0v11.036" />
	<path fill="none" stroke="#4C4C4C" stroke-width="0.25" d="M49.775,0v11.036" />
	<path fill="none" stroke="#4C4C4C" stroke-width="0.25" d="M33.334,0v11.036" />
	<path fill="none" stroke="#4C4C4C" stroke-width="0.25" d="M42.68,0v11.036" />
	<path fill="none" stroke="#4C4C4C" stroke-width="0.25" d="M25.113,11.036V0" />
	<path fill="none" stroke="#4C4C4C" stroke-width="0.25" d="M39.077,11.036V0" />
	<path fill="none" stroke="#4C4C4C" stroke-width="0.25" d="M27.478,11.036V0" />
	<path fill="none" stroke="#4C4C4C" stroke-width="0.25" d="M41.442,11.036V0" />
	<path fill="none" stroke="#4C4C4C" stroke-width="0.25" d="M29.843,11.036V0" />
	<path fill="none" stroke="#4C4C4C" stroke-width="0.25" d="M43.806,11.036V0" />
	<path fill="none" stroke="#4C4C4C" stroke-width="0.25" d="M32.208,11.036V0" />
	<path fill="none" stroke="#4C4C4C" stroke-width="0.25" d="M46.172,11.036V0" />
	<path fill="none" stroke="#4C4C4C" stroke-width="0.25" d="M34.573,11.036V0" />
	<path fill="none" stroke="#4C4C4C" stroke-width="0.25" d="M48.537,11.036V0" />
	<path fill="none" stroke="#4C4C4C" stroke-width="0.25" d="M36.937,11.036V0" />
	<path fill="none" stroke="#4C4C4C" stroke-width="0.25" d="M50.901,11.036V0" />
</g>
<g id="Group_Pipes">
	<linearGradient id="SVGID_3_" gradientUnits="userSpaceOnUse" x1="8.1082" y1="53.8286" x2="14.6404" y2="53.8286">
		<stop offset="0" style="stop-color:#383838" />
		<stop offset="0.5" style="stop-color:#ECECEC" />
		<stop offset="0.57" style="stop-color:#D9D9D9" />
		<stop offset="0.71" style="stop-color:#A8A8A8" />
		<stop offset="0.92" style="stop-color:#5A5A5A" />
		<stop offset="1" style="stop-color:#383838" />
	</linearGradient>
	<rect x="8.108" y="13.964" fill="url(#SVGID_3_)" width="6.532" height="79.729" />
	<linearGradient id="SVGID_4_" gradientUnits="userSpaceOnUse" x1="7.3206" y1="93.6934" x2="7.3206" y2="87.8379">
		<stop offset="0" style="stop-color:#383838" />
		<stop offset="0.5" style="stop-color:#ECECEC" />
		<stop offset="0.57" style="stop-color:#D9D9D9" />
		<stop offset="0.71" style="stop-color:#A8A8A8" />
		<stop offset="0.92" style="stop-color:#5A5A5A" />
		<stop offset="1" style="stop-color:#383838" />
	</linearGradient>
	<polygon fill="url(#SVGID_4_)" points="8.108,87.838 0.001,87.838 0.001,93.693 14.64,93.693  " />
	<linearGradient id="SVGID_5_" gradientUnits="userSpaceOnUse" x1="30.1243" y1="19.8198" x2="30.1243" y2="13.9639">
		<stop offset="0" style="stop-color:#383838" />
		<stop offset="0.5" style="stop-color:#ECECEC" />
		<stop offset="0.57" style="stop-color:#D9D9D9" />
		<stop offset="0.71" style="stop-color:#A8A8A8" />
		<stop offset="0.92" style="stop-color:#5A5A5A" />
		<stop offset="1" style="stop-color:#383838" />
	</linearGradient>
	<polygon fill="url(#SVGID_5_)" points="52.14,13.964 8.108,13.964 14.64,19.82 52.14,19.82  " />
	<linearGradient id="SVGID_6_" gradientUnits="userSpaceOnUse" x1="7.324219e-004" y1="112.291" x2="66.2166" y2="112.291">
		<stop offset="0" style="stop-color:#383838" />
		<stop offset="0.5" style="stop-color:#ECECEC" />
		<stop offset="0.57" style="stop-color:#D9D9D9" />
		<stop offset="0.71" style="stop-color:#A8A8A8" />
		<stop offset="0.92" style="stop-color:#5A5A5A" />
		<stop offset="1" style="stop-color:#383838" />
	</linearGradient>
	<path fill="url(#SVGID_6_)" d="M46.519,112.5c-3.206-0.367-6.69-0.717-9.054,0H46.519z" />
	<linearGradient id="SVGID_7_" gradientUnits="userSpaceOnUse" x1="34.573" y1="21.2837" x2="41.5544" y2="21.2837">
		<stop offset="0" style="stop-color:#383838" />
		<stop offset="0.5" style="stop-color:#ECECEC" />
		<stop offset="0.57" style="stop-color:#D9D9D9" />
		<stop offset="0.71" style="stop-color:#A8A8A8" />
		<stop offset="0.92" style="stop-color:#5A5A5A" />
		<stop offset="1" style="stop-color:#383838" />
	</linearGradient>
	<path fill="url(#SVGID_7_)" d="M41.554,19.82v5.856h-6.981V19.82c0,0,0-2.928,3.459-2.928C41.554,16.892,41.554,19.82,41.554,19.82   z" />
	<path fill="none" stroke="#4C4C4C" stroke-width="0.25" d="M52.14,35.135" />
	<path fill="none" stroke="#4C4C4C" stroke-width="0.25" d="M23.987,35.135" />
</g>
<g id="Group_Outer_Body">
	<linearGradient id="SVGID_8_" gradientUnits="userSpaceOnUse" x1="23.9871" y1="57.376" x2="52.1404" y2="57.376">
		<stop offset="0" style="stop-color:#383838" />
		<stop offset="0.01" style="stop-color:#3B3B3B" />
		<stop offset="0.25" style="stop-color:#757575" />
		<stop offset="0.42" style="stop-color:#989898" />
		<stop offset="0.51" style="stop-color:#A6A6A6" />
		<stop offset="0.69" style="stop-color:#818181" />
		<stop offset="1" style="stop-color:#383838" />
	</linearGradient>
	<rect x="23.987" y="35.135" fill="url(#SVGID_8_)" width="28.153" height="44.482" />
	<path fill="none" stroke="#4C4C4C" stroke-width="0.25" d="M26.465,79.617V35.135" />
	<path fill="none" stroke="#4C4C4C" stroke-width="0.25" d="M31.082,35.135v44.482" />
	<path fill="none" stroke="#4C4C4C" stroke-width="0.25" d="M35.811,79.617V35.135" />
	<path fill="none" stroke="#4C4C4C" stroke-width="0.25" d="M40.428,35.135v44.482" />
	<path fill="none" stroke="#4C4C4C" stroke-width="0.25" d="M45.158,79.617V35.135" />
	<path fill="none" stroke="#4C4C4C" stroke-width="0.25" d="M49.775,79.617V35.135" />
	<path fill="none" stroke="#4C4C4C" stroke-width="0.25" d="M28.717,35.135v44.482" />
	<path fill="none" stroke="#4C4C4C" stroke-width="0.25" d="M33.334,79.617V35.135" />
	<path fill="none" stroke="#4C4C4C" stroke-width="0.25" d="M38.063,35.135v44.482" />
	<path fill="none" stroke="#4C4C4C" stroke-width="0.25" d="M42.68,79.617V35.135" />
	<path fill="none" stroke="#4C4C4C" stroke-width="0.25" d="M47.41,35.135v44.482" />
	<linearGradient id="SVGID_9_" gradientUnits="userSpaceOnUse" x1="23.9871" y1="30.4053" x2="52.1404" y2="30.4053">
		<stop offset="0.06" style="stop-color:#808080" />
		<stop offset="0.13" style="stop-color:#8D8D8D" />
		<stop offset="0.28" style="stop-color:#B0B0B0" />
		<stop offset="0.48" style="stop-color:#E8E8E8" />
		<stop offset="0.48" style="stop-color:#EBEBEB" />
		<stop offset="0.57" style="stop-color:#E0E0E0" />
		<stop offset="0.72" style="stop-color:#C3C3C3" />
		<stop offset="0.92" style="stop-color:#949494" />
		<stop offset="1" style="stop-color:#808080" />
	</linearGradient>
	<polygon fill="url(#SVGID_9_)" points="41.554,25.676 34.573,25.676 23.987,35.135 52.14,35.135  " />
</g>
<g id="Group_Small_Pipe">
	<linearGradient id="SVGID_10_" gradientUnits="userSpaceOnUse" x1="57.7488" y1="105.4053" x2="57.7488" y2="100.6758">
		<stop offset="0" style="stop-color:#383838" />
		<stop offset="0.5" style="stop-color:#ECECEC" />
		<stop offset="0.57" style="stop-color:#D9D9D9" />
		<stop offset="0.71" style="stop-color:#A8A8A8" />
		<stop offset="0.92" style="stop-color:#5A5A5A" />
		<stop offset="1" style="stop-color:#383838" />
	</linearGradient>
	<path fill="url(#SVGID_10_)" d="M52.14,105.405h14.076v-4.729H52.14c0,0-2.858,0-2.858,2.324   C49.282,105.405,52.14,105.405,52.14,105.405z" />
</g>
<g id="Group_Compressor">
	<linearGradient id="SVGID_11_" gradientUnits="userSpaceOnUse" x1="57.7488" y1="93.6367" x2="57.7488" y2="84.29">
		<stop offset="0" style="stop-color:#383838" />
		<stop offset="0.5" style="stop-color:#ECECEC" />
		<stop offset="0.57" style="stop-color:#D9D9D9" />
		<stop offset="0.71" style="stop-color:#A8A8A8" />
		<stop offset="0.92" style="stop-color:#5A5A5A" />
		<stop offset="1" style="stop-color:#383838" />
	</linearGradient>
	<path fill="url(#SVGID_11_)" d="M52.14,93.637h14.076l-8.186-9.347H52.14c0,0-2.858,0-2.858,4.528   C49.282,93.58,52.14,93.637,52.14,93.637z" />
	<radialGradient id="SVGID_12_" cx="66.2166" cy="84.29" r="9.3467" gradientUnits="userSpaceOnUse">
		<stop offset="0" style="stop-color:#ECECEC" />
		<stop offset="0.14" style="stop-color:#DDDDDD" />
		<stop offset="0.4" style="stop-color:#B8B8B8" />
		<stop offset="0.75" style="stop-color:#7C7C7C" />
		<stop offset="1" style="stop-color:#4D4D4D" />
	</radialGradient>
	<circle fill="url(#SVGID_12_)" cx="66.217" cy="84.29" r="9.347" />
	<circle fill="#CCCCCC" stroke="#4D4D4D" stroke-width="0.25" stroke-miterlimit="10" cx="66.216" cy="84.291" r="3.491" />
</g>
</svg>