<svg version="1.1" xmlns="http://www.w3.org/2000/svg" xmlns:xlink="http://www.w3.org/1999/xlink" width="73px" height="112px" viewBox="0 0 73.426 112.5" enable-background="new 0 0 73.426 112.5" xml:space="preserve">
<g id="Group_Column">
	<linearGradient id="SVGID_1_" gradientUnits="userSpaceOnUse" x1="0.4517" y1="57.9961" x2="59.7988" y2="57.9961">
		<stop offset="0" style="stop-color:#B2B2B2" />
		<stop offset="0.5" style="stop-color:#FFFFFF" />
		<stop offset="1" style="stop-color:#B2B2B2" />
	</linearGradient>
	<path fill="url(#SVGID_1_)" stroke="#4C4C4C" stroke-width="0.25" d="M0.452,102.703c0,0,6.097,9.797,29.842,9.797   c21.084,0,29.505-9.797,29.505-9.797V13.626c0,0-3.685-10.135-29.505-10.135c-25.229,0-29.842,10.135-29.842,10.135V102.703z" />
</g>
<g id="Group_Grills">
	<path fill="#CCCCCC" stroke="#7F7F7F" stroke-width="0.25" d="M0.001,54.504h35.36v1.689H0.001V54.504z" />
	<path fill="#7F7F7F" stroke="#4C4C4C" stroke-width="0.25" d="M49.438,0H11.375v0.225h38.063V0z" />
	<path fill="#7F7F7F" stroke="#4C4C4C" stroke-width="0.25" d="M49.438,5.743H11.375v0.338h38.063V5.743z" />
	<path fill="none" stroke="#4C4C4C" stroke-width="0.25" d="M11.375,5.743V0.225" />
	<path fill="none" stroke="#4C4C4C" stroke-width="0.25" d="M17.794,5.743V0.225" />
	<path fill="none" stroke="#4C4C4C" stroke-width="0.25" d="M23.875,5.743V0.225" />
	<path fill="none" stroke="#4C4C4C" stroke-width="0.25" d="M30.294,5.743V0.225" />
	<path fill="none" stroke="#4C4C4C" stroke-width="0.25" d="M36.713,5.743V0.225" />
	<path fill="none" stroke="#4C4C4C" stroke-width="0.25" d="M43.132,5.743V0.225" />
	<path fill="none" stroke="#4C4C4C" stroke-width="0.25" d="M49.438,0.225v5.518" />
	<path fill="none" stroke="#4C4C4C" stroke-width="0.25" d="M11.375,3.041h38.063" />
	<path fill="#7F7F7F" stroke="#4C4C4C" stroke-width="0.25" d="M0.001,56.194h35.36v0.563H0.001V56.194z" />
	<path fill="#7F7F7F" stroke="#4C4C4C" stroke-width="0.25" d="M73.424,50.563H35.361v0.338h38.063V50.563z" />
	<path fill="#7F7F7F" stroke="#4C4C4C" stroke-width="0.25" d="M73.424,56.419H35.361v0.338h38.063V56.419z" />
	<path fill="none" stroke="#4C4C4C" stroke-width="0.25" d="M35.361,56.419v-5.518" />
	<path fill="none" stroke="#4C4C4C" stroke-width="0.25" d="M41.668,56.419v-5.518" />
	<path fill="none" stroke="#4C4C4C" stroke-width="0.25" d="M48.087,56.419v-5.518" />
	<path fill="none" stroke="#4C4C4C" stroke-width="0.25" d="M54.506,56.419v-5.518" />
	<path fill="none" stroke="#4C4C4C" stroke-width="0.25" d="M60.924,56.419v-5.518" />
	<path fill="none" stroke="#4C4C4C" stroke-width="0.25" d="M67.006,56.419v-5.518" />
	<path fill="none" stroke="#4C4C4C" stroke-width="0.25" d="M73.424,50.901v5.518" />
	<path fill="none" stroke="#4C4C4C" stroke-width="0.25" d="M35.361,53.716h38.063" />
</g>
</svg>