<svg version="1.1" xmlns="http://www.w3.org/2000/svg" xmlns:xlink="http://www.w3.org/1999/xlink" width="19px" height="112px" viewBox="0 0 18.583 112.5" enable-background="new 0 0 18.583 112.5" xml:space="preserve">
<g id="Group_Column">
	<linearGradient id="SVGID_1_" gradientUnits="userSpaceOnUse" x1="-0.0176" y1="56.1553" x2="18.5825" y2="56.1553">
		<stop offset="0" style="stop-color:#CC9933" />
		<stop offset="0.54" style="stop-color:#F5EBD6" />
		<stop offset="1" style="stop-color:#CC9933" />
	</linearGradient>
	<path fill="url(#SVGID_1_)" d="M18.583,110.698c0,0-2.286,1.617-9.291,1.617c-6.992,0-9.291-1.617-9.291-1.617L-0.018,1.689   c0,0,2.1-1.694,9.309-1.694c7.688,0,9.272,1.694,9.272,1.694" />
	<path fill="none" stroke="#4C4C4C" stroke-width="0.25" d="M18.583,110.698c0,0-1.929,1.617-9.291,1.617   c-6.97,0-9.291-1.617-9.291-1.617V1.689c0,0,1.932-1.694,9.291-1.694c7.48,0,9.291,1.694,9.291,1.694" />
</g>
<g id="Group_Levels">
	<path fill="none" stroke="#CC9933" stroke-width="0.25" d="M18.583,99.438c0,0-2.994,1.905-9.348,1.905   c-4.794,0-9.234-1.905-9.234-1.905" />
	<path fill="none" stroke="#CC9933" stroke-width="0.25" d="M18.583,74.438c0,0-4.042,1.234-9.31,1.128   c-4.966-0.101-9.272-1.128-9.272-1.128" />
	<path fill="none" stroke="#CC9933" stroke-width="0.25" d="M0.001,49.887h18.582" />
	<path fill="none" stroke="#CC9933" stroke-width="0.25" d="M0.001,37.95c0,0,3.941-0.45,9.326-0.45c5.201,0,9.256,0.45,9.256,0.45" />
	<path fill="none" stroke="#CC9933" stroke-width="0.25" d="M0.001,48.085h18.582" />
	<path fill="none" stroke="#CC9933" stroke-width="0.25" d="M18.583,72.635c0,0-2.671,1.13-9.31,1.13   c-4.776,0-9.272-1.13-9.272-1.13" />
	<path fill="none" stroke="#CC9933" stroke-width="0.25" d="M18.583,97.635c0,0-3.736,1.906-9.348,1.906   c-4.928,0-9.234-1.906-9.234-1.906" />
	<path fill="none" stroke="#CC9933" stroke-width="0.25" d="M0.001,36.374c0,0,3.941-0.678,9.234-0.678   c5.293,0,9.348,0.678,9.348,0.678" />
	<path fill="none" stroke="#CC9933" stroke-width="0.25" d="M0.001,62.05h18.582" />
	<path fill="none" stroke="#CC9933" stroke-width="0.25" d="M0.001,60.248h18.582" />
	<path fill="none" stroke="#CC9933" stroke-width="0.25" d="M18.583,87.95c0,0-3.279,1.126-9.31,1.126   c-4.414,0-9.272-1.126-9.272-1.126" />
	<path fill="none" stroke="#CC9933" stroke-width="0.25" d="M18.583,86.148c0,0-2.861,1.13-9.291,1.13   c-4.243,0-9.291-1.13-9.291-1.13" />
	<path fill="none" stroke="#F5EBD6" stroke-width="0.25" d="M14.528,105.631c0,0-4.39,0.448-5.236,0.464   c-1.802,0.032-5.349-0.464-5.349-0.464" />
	<path fill="none" stroke="#F5EBD6" stroke-width="0.25" d="M14.528,80.067c0,0-4.334,0.243-5.18,0.258   c-1.802,0.032-5.405-0.258-5.405-0.258" />
	<path fill="none" stroke="#F5EBD6" stroke-width="0.25" d="M3.942,42.229c0,0,3.546-0.391,5.349-0.391   c1.786,0,5.236,0.391,5.236,0.391" />
	<path fill="none" stroke="#F5EBD6" stroke-width="0.25" d="M3.942,18.356c0,0,3.968-0.225,5.292-0.225s5.293,0.225,5.293,0.225" />
	<path fill="none" stroke="#F5EBD6" stroke-width="0.25" d="M3.942,30.067c0,0,3.582-0.384,5.384-0.353   c0.847,0.015,5.201,0.353,5.201,0.353" />
	<path fill="none" stroke="#F5EBD6" stroke-width="0.25" d="M14.528,93.581c0,0-4.391,0.361-5.236,0.376   c-1.802,0.032-5.349-0.376-5.349-0.376" />
	<path fill="none" stroke="#F5EBD6" stroke-width="0.25" d="M3.942,6.757c0,0,3.528-0.257,5.331-0.225   c0.847,0.015,5.255,0.225,5.255,0.225" />
	<path fill="none" stroke="#CC9933" stroke-width="0.25" d="M0.001,3.494c0,0,1.932-1.694,9.291-1.694   c7.48,0,9.291,1.694,9.291,1.694" />
	<path fill="none" stroke="#CC9933" stroke-width="0.25" d="M0.001,12.725c0,0,1.932-1.126,9.291-1.126   c7.48,0,9.359,1.126,9.359,1.126" />
	<path fill="none" stroke="#CC9933" stroke-width="0.25" d="M0.001,14.527c0,0,1.932-1.126,9.291-1.126   c7.48,0,9.359,1.208,9.359,1.208" />
	<path fill="none" stroke="#CC9933" stroke-width="0.25" d="M0.001,26.239c0,0,1.932-1.126,9.291-1.126   c7.48,0,9.359,1.208,9.359,1.208" />
	<path fill="none" stroke="#CC9933" stroke-width="0.25" d="M0.002,24.396c0,0,1.932-1.126,9.291-1.126   c7.479,0,9.358,1.208,9.358,1.208" />
</g>
</svg>