<svg version="1.1" xmlns="http://www.w3.org/2000/svg" xmlns:xlink="http://www.w3.org/1999/xlink" width="21px" height="112px" viewBox="0 0 21.061 112.5" enable-background="new 0 0 21.061 112.5" xml:space="preserve">
<g id="Group_Background">
	<path fill="#00194C" d="M4.28,67.905h6.869v23.424H4.28V67.905z" />
</g>
<g id="Group_Column4">
	<linearGradient id="SVGID_1_" gradientUnits="userSpaceOnUse" x1="2.4783" y1="101.5313" x2="12.9509" y2="101.5313">
		<stop offset="0" style="stop-color:#007FB2" />
		<stop offset="0.5" style="stop-color:#00CCFF" />
		<stop offset="1" style="stop-color:#007FB2" />
	</linearGradient>
	<path fill="url(#SVGID_1_)" stroke="#4C4C4C" stroke-width="0.25" d="M12.951,111.036c0,0-1.218,1.464-5.236,1.464   c-3.578,0-5.236-1.464-5.236-1.464V92.229c0,0,1.067-1.667,5.236-1.667c4.347,0,5.236,1.667,5.236,1.667V111.036z" />
</g>
<g id="Group_Column3">
	<linearGradient id="SVGID_2_" gradientUnits="userSpaceOnUse" x1="2.4783" y1="79.7969" x2="12.9509" y2="79.7969">
		<stop offset="0" style="stop-color:#007FB2" />
		<stop offset="0.5" style="stop-color:#00CCFF" />
		<stop offset="1" style="stop-color:#007FB2" />
	</linearGradient>
	<path fill="url(#SVGID_2_)" stroke="#4C4C4C" stroke-width="0.25" d="M12.951,89.527c0,0-0.687,1.035-5.236,1.035   c-4.044,0-5.236-1.035-5.236-1.035V70.383c0,0,1.364-1.352,5.236-1.352c4.19,0,5.236,1.352,5.236,1.352V89.527z" />
</g>
<g id="Group_Column2">
	<linearGradient id="SVGID_3_" gradientUnits="userSpaceOnUse" x1="2.3723" y1="53.0405" x2="13.0515" y2="53.0405">
		<stop offset="0" style="stop-color:#007FB2" />
		<stop offset="0.5" style="stop-color:#00CCFF" />
		<stop offset="1" style="stop-color:#007FB2" />
	</linearGradient>
	<path fill="url(#SVGID_3_)" stroke="#4C4C4C" stroke-width="0.25" d="M4.28,37.5v4.054L2.478,42.68L2.372,66.846   c0,0,1.751,1.735,5.342,1.735c3.425,0,5.337-1.728,5.337-1.728l-0.1-24.15l-1.803-1.149V37.5H4.28z" />
</g>
<g id="Group_Pipe4">
	<path fill="#007FB2" stroke="#4C4C4C" stroke-width="0.25" d="M5.294,21.059v0.45h4.729v-0.45H5.294z" />
	<linearGradient id="SVGID_4_" gradientUnits="userSpaceOnUse" x1="5.8562" y1="29.5044" x2="9.4827" y2="29.5044">
		<stop offset="0" style="stop-color:#007FB2" />
		<stop offset="0.5" style="stop-color:#00CCFF" />
		<stop offset="1" style="stop-color:#007FB2" />
	</linearGradient>
	<rect x="5.856" y="21.509" fill="url(#SVGID_4_)" stroke="#4C4C4C" stroke-width="0.25" width="3.626" height="15.991" />
</g>
<g id="Group_Column1">
	<linearGradient id="SVGID_5_" gradientUnits="userSpaceOnUse" x1="4.1677" y1="10.5293" x2="11.1482" y2="10.5293">
		<stop offset="0" style="stop-color:#007FB2" />
		<stop offset="0.5" style="stop-color:#00CCFF" />
		<stop offset="1" style="stop-color:#007FB2" />
	</linearGradient>
	<polygon fill="url(#SVGID_5_)" stroke="#4C4C4C" stroke-width="0.25" points="9.426,21.059 5.844,21.059 4.168,18.581 4.212,2.297    5.26,0.676 4.688,0 10.574,0 9.989,0.676 11.148,2.25 11.148,18.561  " />
	<path fill="#004C7F" stroke="#4C4C4C" stroke-width="0.25" d="M5.856,21.059l-1.654-2.478h6.947L9.46,21.059H5.856z" />
	
		<rect x="5.294" y="21.059" fill="none" stroke="#4C4C4C" stroke-width="0.25" stroke-miterlimit="10" width="4.729" height="0.45" />
</g>
<g id="Group_Steps">
	<path fill="none" stroke="#FFCC00" stroke-width="0.25" d="M15.879,2.252v109.122" />
	<path fill="none" stroke="#FFCC00" stroke-width="0.25" d="M18.807,1.014V112.5" />
	<path fill="none" stroke="#FFCC00" stroke-width="0.25" d="M13.402,111.374l2.477-1.239" />
	<path fill="none" stroke="#FFCC00" stroke-width="0.25" d="M13.402,1.014l2.477,1.239" />
	<path fill="none" stroke="#FFCC00" stroke-width="0.25" d="M13.402,109.009l2.477-1.013" />
	<path fill="none" stroke="#FFCC00" stroke-width="0.25" d="M13.402,107.095l2.477-1.126" />
	<path fill="none" stroke="#FFCC00" stroke-width="0.25" d="M13.402,104.729l2.477-1.013" />
	<path fill="none" stroke="#FFCC00" stroke-width="0.25" d="M13.402,102.59l2.477-0.9" />
	<path fill="none" stroke="#FFCC00" stroke-width="0.25" d="M13.402,100.563l2.477-1.125" />
	<path fill="none" stroke="#FFCC00" stroke-width="0.25" d="M13.402,98.311l2.477-0.9" />
	<path fill="none" stroke="#FFCC00" stroke-width="0.25" d="M13.402,96.283l2.477-0.9" />
	<path fill="none" stroke="#FFCC00" stroke-width="0.25" d="M13.402,94.031l2.477-0.9" />
	<path fill="none" stroke="#FFCC00" stroke-width="0.25" d="M13.402,91.779l2.477-0.676" />
	<path fill="none" stroke="#FFCC00" stroke-width="0.25" d="M13.402,89.752l2.477-0.9" />
	<path fill="none" stroke="#FFCC00" stroke-width="0.25" d="M13.402,87.5l2.477-0.676" />
	<path fill="none" stroke="#FFCC00" stroke-width="0.25" d="M13.402,85.473l2.477-0.676" />
	<path fill="none" stroke="#FFCC00" stroke-width="0.25" d="M13.402,83.221l2.477-0.676" />
	<path fill="none" stroke="#FFCC00" stroke-width="0.25" d="M13.402,80.969l2.477-0.451" />
	<path fill="none" stroke="#FFCC00" stroke-width="0.25" d="M13.402,78.941l2.477-0.676" />
	<path fill="none" stroke="#FFCC00" stroke-width="0.25" d="M13.402,76.689l2.477-0.451" />
	<path fill="none" stroke="#FFCC00" stroke-width="0.25" d="M13.402,74.662l2.477-0.45" />
	<path fill="none" stroke="#FFCC00" stroke-width="0.25" d="M13.402,72.41l2.477-0.451" />
	<path fill="none" stroke="#FFCC00" stroke-width="0.25" d="M13.402,70.158l2.477-0.226" />
	<path fill="none" stroke="#FFCC00" stroke-width="0.25" d="M13.402,63.852l2.477-0.226" />
	<path fill="none" stroke="#FFCC00" stroke-width="0.25" d="M13.402,59.347h2.477" />
	<path fill="none" stroke="#FFCC00" stroke-width="0.25" d="M13.402,57.32h2.477" />
	<path fill="none" stroke="#FFCC00" stroke-width="0.25" d="M13.402,55.067h2.477" />
	<path fill="none" stroke="#FFCC00" stroke-width="0.25" d="M13.402,42.229l2.477,0.226" />
	<path fill="none" stroke="#FFCC00" stroke-width="0.25" d="M13.402,39.978l2.477,0.225" />
	<path fill="none" stroke="#FFCC00" stroke-width="0.25" d="M13.402,37.725l2.477,0.451" />
	<path fill="none" stroke="#FFCC00" stroke-width="0.25" d="M13.402,35.698l2.477,0.45" />
	<path fill="none" stroke="#FFCC00" stroke-width="0.25" d="M13.402,33.446l2.477,0.451" />
	<path fill="none" stroke="#FFCC00" stroke-width="0.25" d="M13.402,31.419l2.477,0.45" />
	<path fill="none" stroke="#FFCC00" stroke-width="0.25" d="M13.402,29.167l2.477,0.451" />
	<path fill="none" stroke="#FFCC00" stroke-width="0.25" d="M13.402,26.915l2.477,0.675" />
	<path fill="none" stroke="#FFCC00" stroke-width="0.25" d="M13.402,24.887l2.477,0.676" />
	<path fill="none" stroke="#FFCC00" stroke-width="0.25" d="M13.402,22.635l2.477,0.675" />
	<path fill="none" stroke="#FFCC00" stroke-width="0.25" d="M13.402,20.608l2.477,0.676" />
	<path fill="none" stroke="#FFCC00" stroke-width="0.25" d="M13.402,18.356l2.477,0.676" />
	<path fill="none" stroke="#FFCC00" stroke-width="0.25" d="M13.402,14.077l2.477,0.901" />
	<path fill="none" stroke="#FFCC00" stroke-width="0.25" d="M13.402,11.824l2.477,0.901" />
	<path fill="none" stroke="#FFCC00" stroke-width="0.25" d="M13.402,9.797l2.477,0.901" />
	<path fill="none" stroke="#FFCC00" stroke-width="0.25" d="M13.402,7.658l2.477,0.901" />
	<path fill="none" stroke="#FFCC00" stroke-width="0.25" d="M13.402,5.293l2.477,1.126" />
	<path fill="none" stroke="#FFCC00" stroke-width="0.25" d="M13.402,3.378l2.477,1.014" />
	<path fill="none" stroke="#FFCC00" stroke-width="0.25" d="M14.753,2.252c-0.427-0.166-1.373-0.781-1.351-1.239   C13.423,0.592,14.753,0,14.753,0s2.063-0.214,2.703,0c0.4,0.134,1.331,0.592,1.352,1.014c0.022,0.458-0.925,1.073-1.352,1.239   C16.826,2.498,15.383,2.498,14.753,2.252z" />
	<path fill="none" stroke="#FFCC00" stroke-width="0.25" d="M14.753,18.356c-0.389-0.118-1.376-0.496-1.351-0.901   c0.023-0.377,0.983-0.589,1.351-0.676c0.657-0.155,2.035-0.1,2.703,0c0.373,0.056,1.328,0.299,1.352,0.676   c0.025,0.405-0.963,0.783-1.352,0.901C16.809,18.552,15.399,18.552,14.753,18.356z" />
	<path fill="none" stroke="#FFCC00" stroke-width="0.25" d="M14.753,34.572c-0.352-0.057-1.325-0.095-1.351-0.451   c-0.026-0.377,0.983-0.589,1.351-0.676c0.657-0.155,2.046-0.155,2.703,0c0.367,0.087,1.378,0.299,1.352,0.676   c-0.025,0.355-1,0.394-1.352,0.451C16.789,34.681,15.42,34.681,14.753,34.572z" />
	<path fill="none" stroke="#FFCC00" stroke-width="0.25" d="M14.753,67.004c-0.367-0.087-1.378-0.298-1.351-0.675   c0.025-0.355,0.999-0.394,1.351-0.45c0.667-0.108,2.036-0.108,2.703,0c0.352,0.057,1.326,0.095,1.352,0.45   c0.027,0.377-0.984,0.588-1.352,0.675C16.799,67.159,15.41,67.159,14.753,67.004z" />
	<path fill="none" stroke="#FFCC00" stroke-width="0.25" d="M14.753,82.996c-0.367-0.087-1.351-0.298-1.351-0.676   s0.983-0.589,1.351-0.676c0.657-0.155,2.034-0.098,2.703,0c0.374,0.055,1.352,0.298,1.352,0.676s-0.984,0.589-1.352,0.676   C16.799,83.151,15.41,83.151,14.753,82.996z" />
	<path fill="none" stroke="#FFCC00" stroke-width="0.25" d="M14.753,98.986c-0.367-0.087-1.327-0.299-1.351-0.676   c-0.025-0.405,0.962-0.783,1.351-0.9c0.646-0.195,2.057-0.196,2.703,0c0.389,0.118,1.377,0.495,1.352,0.9   c-0.023,0.377-0.984,0.589-1.352,0.676C16.799,99.142,15.41,99.142,14.753,98.986z" />
	<path fill="none" stroke="#FFCC00" stroke-width="0.25" d="M13.402,1.014V112.5" />
	<path fill="none" stroke="#FFCC00" stroke-width="0.25" d="M13.402,65.879l2.477-0.226" />
	<path fill="none" stroke="#FFCC00" stroke-width="0.25" d="M13.402,53.041h2.477" />
	<path fill="none" stroke="#FFCC00" stroke-width="0.25" d="M13.402,44.257l2.477,0.225" />
	<path fill="none" stroke="#FFCC00" stroke-width="0.25" d="M13.402,16.104l2.477,0.901" />
	<path fill="none" stroke="#FFCC00" stroke-width="0.25" d="M14.753,50.788c0.674,0.056,2.029,0.056,2.703,0   c0.342-0.028,1.352,0.117,1.352-0.225s-1.01-0.197-1.352-0.225c-0.674-0.056-2.029-0.056-2.703,0   c-0.342,0.028-1.351-0.117-1.351,0.225S14.411,50.76,14.753,50.788z" />
	<path fill="none" stroke="#FFCC00" stroke-width="0.25" d="M13.402,50.788h2.477" />
	<path fill="none" stroke="#FFCC00" stroke-width="0.25" d="M13.402,48.536l2.477,0.225" />
	<path fill="none" stroke="#FFCC00" stroke-width="0.25" d="M13.402,46.509l2.477,0.226" />
	<path fill="none" stroke="#FFCC00" stroke-width="0.25" d="M13.402,68.131l2.477-0.226" />
	<path fill="none" stroke="#FFCC00" stroke-width="0.25" d="M13.402,61.6l2.477-0.226" />
</g>
<g id="Group_Grills">
	<path fill="#007FB2" d="M13.402,64.302v0.676h7.657v-0.676H13.402z" />
	<path fill="#0099CC" d="M20.384,61.6v6.306h0.676V61.6H20.384z" />
	<path fill="#0099CC" d="M13.402,60.924V61.6h7.657v-0.676H13.402z" />
	<path fill="#0099CC" d="M13.402,61.6v6.306h0.675V61.6H13.402z" />
	<path fill="#0099CC" d="M15.879,61.6v6.306h0.563V61.6H15.879z" />
	<path fill="#0099CC" d="M18.132,61.6v6.306h0.676V61.6H18.132z" />
	<path fill="none" stroke="#4C4C4C" stroke-width="0.25" d="M13.402,67.905v-6.981h7.657v6.981H13.402z" />
	<path fill="#004C7F" d="M11.149,67.905v1.802h2.928v-1.802H11.149z" />
	<path fill="#0099CC" d="M14.077,67.905v1.802h6.982v-1.802H14.077z" />
	<path fill="none" stroke="#4C4C4C" stroke-width="0.25" d="M11.149,67.905v1.802h9.91v-1.802H11.149z" />
</g>
<g id="Group_Pipe3">
	<linearGradient id="SVGID_6_" gradientUnits="userSpaceOnUse" x1="3.4919" y1="108.1084" x2="5.8562" y2="108.1084">
		<stop offset="0" style="stop-color:#006699" />
		<stop offset="0.5" style="stop-color:#00A6D9" />
		<stop offset="1" style="stop-color:#006699" />
	</linearGradient>
	<path fill="url(#SVGID_6_)" d="M3.492,103.717h2.364v8.783H3.492V103.717z" />
	<path fill="none" stroke="#4C4C4C" stroke-width="0.25" d="M3.492,103.717h2.364v8.783H3.492V103.717z" />
</g>
<g id="Group_Pipe2">
	<path fill="#007FB2" stroke="#4C4C4C" stroke-width="0.25" d="M0.001,112.5V5.856l1.352-1.239h3.941v1.802H1.69V112.5H0.001z" />
	<path fill="#006699" stroke="#4C4C4C" stroke-width="0.25" d="M0.001,112.5V5.856l1.352-1.239h3.941v1.802H1.69V112.5H0.001z" />
</g>
<g id="Group_Pipe1">
	<path fill="#007FB2" stroke="#4C4C4C" stroke-width="0.25" d="M14.077,47.41V16.441l-1.126-1.239H8.672v1.802h3.604V47.41h-2.252   v1.802h2.928L14.077,47.41z" />
	<linearGradient id="SVGID_7_" gradientUnits="userSpaceOnUse" x1="11.5994" y1="47.9727" x2="16.4421" y2="47.9727">
		<stop offset="0" style="stop-color:#006699" />
		<stop offset="0.5" style="stop-color:#00A6D9" />
		<stop offset="1" style="stop-color:#006699" />
	</linearGradient>
	<path fill="url(#SVGID_7_)" d="M11.599,45.608h4.843v4.73h-4.843V45.608z" />
	<path fill="none" stroke="#4C4C4C" stroke-width="0.25" d="M11.599,45.608h4.843v4.73h-4.843V45.608z" />
</g>
</svg>