<!DOCTYPE svg PUBLIC "-//W3C//DTD SVG 20000303 Stylable//EN" "http://www.w3.org/TR/2000/03/WD-SVG-20000303/DTD/svg-20000303-stylable.dtd"[]><svg xmlns="http://www.w3.org/2000/svg" width="207px" height="999px" viewBox="0 0 207 999"><path style="fill:none;stroke:#000;stroke-width:2" d="M27,27 l152,0" /><path style="fill:none;stroke:#000;stroke-width:2" d="M27,65 l38,0" /><path style="fill:none;stroke:#000;stroke-width:2" d="M27,253 l38,0" /><path style="fill:none;stroke:#000;stroke-width:2" d="M27,442 l38,0" /><path style="fill:none;stroke:#000;stroke-width:2" d="M27,630 l38,0" /><path style="fill:none;stroke:#000;stroke-width:2" d="M27,819 l38,0" /><path style="fill:none;stroke:#000;stroke-width:2" d="M27,103 l38,0" /><path style="fill:none;stroke:#000;stroke-width:2" d="M27,290 l38,0" /><path style="fill:none;stroke:#000;stroke-width:2" d="M27,479 l38,0" /><path style="fill:none;stroke:#000;stroke-width:2" d="M27,668 l38,0" /><path style="fill:none;stroke:#000;stroke-width:2" d="M27,857 l38,0" /><path style="fill:none;stroke:#000;stroke-width:2" d="M27,141 l38,0" /><path style="fill:none;stroke:#000;stroke-width:2" d="M27,328 l38,0" /><path style="fill:none;stroke:#000;stroke-width:2" d="M27,517 l38,0" /><path style="fill:none;stroke:#000;stroke-width:2" d="M27,706 l38,0" /><path style="fill:none;stroke:#000;stroke-width:2" d="M27,895 l38,0" /><path style="fill:none;stroke:#000;stroke-width:2" d="M27,179 l38,0" /><path style="fill:none;stroke:#000;stroke-width:2" d="M27,366 l38,0" /><path style="fill:none;stroke:#000;stroke-width:2" d="M27,555 l38,0" /><path style="fill:none;stroke:#000;stroke-width:2" d="M27,744 l38,0" /><path style="fill:none;stroke:#000;stroke-width:2" d="M27,933 l38,0" /><path style="fill:none;stroke:#000;stroke-width:2" d="M27,216 l152,0" /><path style="fill:none;stroke:#000;stroke-width:2" d="M27,404 l152,0" /><path style="fill:none;stroke:#000;stroke-width:2" d="M27,593 l152,0" /><path style="fill:none;stroke:#000;stroke-width:2" d="M27,782 l152,0" /><path style="fill:none;stroke:#000;stroke-width:2" d="M27,971 l152,0" /><path style="fill:none;stroke:#000;stroke-width:2" d="M27,46 l38,0" /><path style="fill:none;stroke:#000;stroke-width:2" d="M27,234 l38,0" /><path style="fill:none;stroke:#000;stroke-width:2" d="M27,423 l38,0" /><path style="fill:none;stroke:#000;stroke-width:2" d="M27,612 l38,0" /><path style="fill:none;stroke:#000;stroke-width:2" d="M27,801 l38,0" /><path style="fill:none;stroke:#000;stroke-width:2" d="M27,84 l38,0" /><path style="fill:none;stroke:#000;stroke-width:2" d="M27,272 l38,0" /><path style="fill:none;stroke:#000;stroke-width:2" d="M27,460 l38,0" /><path style="fill:none;stroke:#000;stroke-width:2" d="M27,649 l38,0" /><path style="fill:none;stroke:#000;stroke-width:2" d="M27,838 l38,0" /><path style="fill:none;stroke:#000;stroke-width:2" d="M27,122 l76,0" /><path style="fill:none;stroke:#000;stroke-width:2" d="M27,309 l76,0" /><path style="fill:none;stroke:#000;stroke-width:2" d="M27,498 l76,0" /><path style="fill:none;stroke:#000;stroke-width:2" d="M27,687 l76,0" /><path style="fill:none;stroke:#000;stroke-width:2" d="M27,876 l76,0" /><path style="fill:none;stroke:#000;stroke-width:2" d="M65,160 l-38,0" /><path style="fill:none;stroke:#000;stroke-width:2" d="M65,347 l-38,0" /><path style="fill:none;stroke:#000;stroke-width:2" d="M65,536 l-38,0" /><path style="fill:none;stroke:#000;stroke-width:2" d="M65,725 l-38,0" /><path style="fill:none;stroke:#000;stroke-width:2" d="M65,914 l-38,0" /><path style="fill:none;stroke:#000;stroke-width:2" d="M27,197 l38,0" /><path style="fill:none;stroke:#000;stroke-width:2" d="M27,385 l38,0" /><path style="fill:none;stroke:#000;stroke-width:2" d="M27,574 l38,0" /><path style="fill:none;stroke:#000;stroke-width:2" d="M27,763 l38,0" /><path style="fill:none;stroke:#000;stroke-width:2" d="M27,952 l38,0" /></svg>