<!DOCTYPE svg PUBLIC "-//W3C//DTD SVG 20000303 Stylable//EN" "http://www.w3.org/TR/2000/03/WD-SVG-20000303/DTD/svg-20000303-stylable.dtd"[]><svg xmlns="http://www.w3.org/2000/svg" width="106px" height="998px" viewBox="0 0 106 998"><path style="fill:none;stroke:#000;stroke-width:2" d="M28,719 l50,0" /><path style="fill:none;stroke:#000;stroke-width:2" d="M28,782 l50,0" /><path style="fill:none;stroke:#000;stroke-width:2" d="M28,845 l50,0" /><path style="fill:none;stroke:#000;stroke-width:2" d="M28,907 l50,0" /><path style="fill:none;stroke:#000;stroke-width:2" d="M28,970 l50,0" /><path style="fill:none;stroke:#000;stroke-width:2" d="M40,663 l25,0" /><path style="fill:none;stroke:#000;stroke-width:2" d="M40,725 l25,0" /><path style="fill:none;stroke:#000;stroke-width:2" d="M40,788 l25,0" /><path style="fill:none;stroke:#000;stroke-width:2" d="M40,851 l25,0" /><path style="fill:none;stroke:#000;stroke-width:2" d="M40,914 l25,0" /><path style="fill:none;stroke:#000;stroke-width:2" d="M40,669 l25,0" /><path style="fill:none;stroke:#000;stroke-width:2" d="M40,732 l25,0" /><path style="fill:none;stroke:#000;stroke-width:2" d="M40,794 l25,0" /><path style="fill:none;stroke:#000;stroke-width:2" d="M40,857 l25,0" /><path style="fill:none;stroke:#000;stroke-width:2" d="M40,920 l25,0" /><path style="fill:none;stroke:#000;stroke-width:2" d="M40,675 l25,0" /><path style="fill:none;stroke:#000;stroke-width:2" d="M40,738 l25,0" /><path style="fill:none;stroke:#000;stroke-width:2" d="M40,801 l25,0" /><path style="fill:none;stroke:#000;stroke-width:2" d="M40,864 l25,0" /><path style="fill:none;stroke:#000;stroke-width:2" d="M40,926 l25,0" /><path style="fill:none;stroke:#000;stroke-width:2" d="M40,682 l25,0" /><path style="fill:none;stroke:#000;stroke-width:2" d="M40,744 l25,0" /><path style="fill:none;stroke:#000;stroke-width:2" d="M40,807 l25,0" /><path style="fill:none;stroke:#000;stroke-width:2" d="M40,870 l25,0" /><path style="fill:none;stroke:#000;stroke-width:2" d="M40,933 l25,0" /><path style="fill:none;stroke:#000;stroke-width:2" d="M40,688 l25,0" /><path style="fill:none;stroke:#000;stroke-width:2" d="M40,750 l25,0" /><path style="fill:none;stroke:#000;stroke-width:2" d="M40,813 l25,0" /><path style="fill:none;stroke:#000;stroke-width:2" d="M40,876 l25,0" /><path style="fill:none;stroke:#000;stroke-width:2" d="M40,939 l25,0" /><path style="fill:none;stroke:#000;stroke-width:2" d="M40,694 l25,0" /><path style="fill:none;stroke:#000;stroke-width:2" d="M40,757 l25,0" /><path style="fill:none;stroke:#000;stroke-width:2" d="M40,820 l25,0" /><path style="fill:none;stroke:#000;stroke-width:2" d="M40,882 l25,0" /><path style="fill:none;stroke:#000;stroke-width:2" d="M40,945 l25,0" /><path style="fill:none;stroke:#000;stroke-width:2" d="M40,701 l25,0" /><path style="fill:none;stroke:#000;stroke-width:2" d="M40,763 l25,0" /><path style="fill:none;stroke:#000;stroke-width:2" d="M40,826 l25,0" /><path style="fill:none;stroke:#000;stroke-width:2" d="M40,889 l25,0" /><path style="fill:none;stroke:#000;stroke-width:2" d="M40,951 l25,0" /><path style="fill:none;stroke:#000;stroke-width:2" d="M40,707 l25,0" /><path style="fill:none;stroke:#000;stroke-width:2" d="M40,769 l25,0" /><path style="fill:none;stroke:#000;stroke-width:2" d="M40,832 l25,0" /><path style="fill:none;stroke:#000;stroke-width:2" d="M40,895 l25,0" /><path style="fill:none;stroke:#000;stroke-width:2" d="M40,958 l25,0" /><path style="fill:none;stroke:#000;stroke-width:2" d="M40,713 l25,0" /><path style="fill:none;stroke:#000;stroke-width:2" d="M40,776 l25,0" /><path style="fill:none;stroke:#000;stroke-width:2" d="M40,838 l25,0" /><path style="fill:none;stroke:#000;stroke-width:2" d="M40,901 l25,0" /><path style="fill:none;stroke:#000;stroke-width:2" d="M40,964 l25,0" /><path style="fill:none;stroke:#000;stroke-width:2" d="M28,28 l50,0" /><path style="fill:none;stroke:#000;stroke-width:2" d="M28,657 l50,0" /><path style="fill:none;stroke:#000;stroke-width:2" d="M28,90 l50,0" /><path style="fill:none;stroke:#000;stroke-width:2" d="M28,153 l50,0" /><path style="fill:none;stroke:#000;stroke-width:2" d="M28,216 l50,0" /><path style="fill:none;stroke:#000;stroke-width:2" d="M28,279 l50,0" /><path style="fill:none;stroke:#000;stroke-width:2" d="M28,341 l50,0" /><path style="fill:none;stroke:#000;stroke-width:2" d="M28,404 l50,0" /><path style="fill:none;stroke:#000;stroke-width:2" d="M28,467 l50,0" /><path style="fill:none;stroke:#000;stroke-width:2" d="M28,530 l50,0" /><path style="fill:none;stroke:#000;stroke-width:2" d="M28,593 l50,0" /><path style="fill:none;stroke:#000;stroke-width:2" d="M40,34 l25,0" /><path style="fill:none;stroke:#000;stroke-width:2" d="M40,96 l25,0" /><path style="fill:none;stroke:#000;stroke-width:2" d="M40,159 l25,0" /><path style="fill:none;stroke:#000;stroke-width:2" d="M40,222 l25,0" /><path style="fill:none;stroke:#000;stroke-width:2" d="M40,285 l25,0" /><path style="fill:none;stroke:#000;stroke-width:2" d="M40,348 l25,0" /><path style="fill:none;stroke:#000;stroke-width:2" d="M40,411 l25,0" /><path style="fill:none;stroke:#000;stroke-width:2" d="M40,473 l25,0" /><path style="fill:none;stroke:#000;stroke-width:2" d="M40,536 l25,0" /><path style="fill:none;stroke:#000;stroke-width:2" d="M40,599 l25,0" /><path style="fill:none;stroke:#000;stroke-width:2" d="M40,40 l25,0" /><path style="fill:none;stroke:#000;stroke-width:2" d="M40,103 l25,0" /><path style="fill:none;stroke:#000;stroke-width:2" d="M40,165 l25,0" /><path style="fill:none;stroke:#000;stroke-width:2" d="M40,228 l25,0" /><path style="fill:none;stroke:#000;stroke-width:2" d="M40,291 l25,0" /><path style="fill:none;stroke:#000;stroke-width:2" d="M40,354 l25,0" /><path style="fill:none;stroke:#000;stroke-width:2" d="M40,417 l25,0" /><path style="fill:none;stroke:#000;stroke-width:2" d="M40,480 l25,0" /><path style="fill:none;stroke:#000;stroke-width:2" d="M40,542 l25,0" /><path style="fill:none;stroke:#000;stroke-width:2" d="M40,605 l25,0" /><path style="fill:none;stroke:#000;stroke-width:2" d="M40,47 l25,0" /><path style="fill:none;stroke:#000;stroke-width:2" d="M40,109 l25,0" /><path style="fill:none;stroke:#000;stroke-width:2" d="M40,172 l25,0" /><path style="fill:none;stroke:#000;stroke-width:2" d="M40,235 l25,0" /><path style="fill:none;stroke:#000;stroke-width:2" d="M40,297 l25,0" /><path style="fill:none;stroke:#000;stroke-width:2" d="M40,360 l25,0" /><path style="fill:none;stroke:#000;stroke-width:2" d="M40,423 l25,0" /><path style="fill:none;stroke:#000;stroke-width:2" d="M40,486 l25,0" /><path style="fill:none;stroke:#000;stroke-width:2" d="M40,549 l25,0" /><path style="fill:none;stroke:#000;stroke-width:2" d="M40,612 l25,0" /><path style="fill:none;stroke:#000;stroke-width:2" d="M40,53 l25,0" /><path style="fill:none;stroke:#000;stroke-width:2" d="M40,115 l25,0" /><path style="fill:none;stroke:#000;stroke-width:2" d="M40,178 l25,0" /><path style="fill:none;stroke:#000;stroke-width:2" d="M40,241 l25,0" /><path style="fill:none;stroke:#000;stroke-width:2" d="M40,304 l25,0" /><path style="fill:none;stroke:#000;stroke-width:2" d="M40,367 l25,0" /><path style="fill:none;stroke:#000;stroke-width:2" d="M40,429 l25,0" /><path style="fill:none;stroke:#000;stroke-width:2" d="M40,492 l25,0" /><path style="fill:none;stroke:#000;stroke-width:2" d="M40,555 l25,0" /><path style="fill:none;stroke:#000;stroke-width:2" d="M40,618 l25,0" /><path style="fill:none;stroke:#000;stroke-width:2" d="M40,59 l25,0" /><path style="fill:none;stroke:#000;stroke-width:2" d="M40,121 l25,0" /><path style="fill:none;stroke:#000;stroke-width:2" d="M40,184 l25,0" /><path style="fill:none;stroke:#000;stroke-width:2" d="M40,247 l25,0" /><path style="fill:none;stroke:#000;stroke-width:2" d="M40,310 l25,0" /><path style="fill:none;stroke:#000;stroke-width:2" d="M40,373 l25,0" /><path style="fill:none;stroke:#000;stroke-width:2" d="M40,436 l25,0" /><path style="fill:none;stroke:#000;stroke-width:2" d="M40,498 l25,0" /><path style="fill:none;stroke:#000;stroke-width:2" d="M40,561 l25,0" /><path style="fill:none;stroke:#000;stroke-width:2" d="M40,624 l25,0" /><path style="fill:none;stroke:#000;stroke-width:2" d="M40,65 l25,0" /><path style="fill:none;stroke:#000;stroke-width:2" d="M40,128 l25,0" /><path style="fill:none;stroke:#000;stroke-width:2" d="M40,191 l25,0" /><path style="fill:none;stroke:#000;stroke-width:2" d="M40,253 l25,0" /><path style="fill:none;stroke:#000;stroke-width:2" d="M40,316 l25,0" /><path style="fill:none;stroke:#000;stroke-width:2" d="M40,379 l25,0" /><path style="fill:none;stroke:#000;stroke-width:2" d="M40,442 l25,0" /><path style="fill:none;stroke:#000;stroke-width:2" d="M40,505 l25,0" /><path style="fill:none;stroke:#000;stroke-width:2" d="M40,568 l25,0" /><path style="fill:none;stroke:#000;stroke-width:2" d="M40,630 l25,0" /><path style="fill:none;stroke:#000;stroke-width:2" d="M40,72 l25,0" /><path style="fill:none;stroke:#000;stroke-width:2" d="M40,134 l25,0" /><path style="fill:none;stroke:#000;stroke-width:2" d="M40,197 l25,0" /><path style="fill:none;stroke:#000;stroke-width:2" d="M40,260 l25,0" /><path style="fill:none;stroke:#000;stroke-width:2" d="M40,323 l25,0" /><path style="fill:none;stroke:#000;stroke-width:2" d="M40,385 l25,0" /><path style="fill:none;stroke:#000;stroke-width:2" d="M40,448 l25,0" /><path style="fill:none;stroke:#000;stroke-width:2" d="M40,511 l25,0" /><path style="fill:none;stroke:#000;stroke-width:2" d="M40,574 l25,0" /><path style="fill:none;stroke:#000;stroke-width:2" d="M40,637 l25,0" /><path style="fill:none;stroke:#000;stroke-width:2" d="M40,78 l25,0" /><path style="fill:none;stroke:#000;stroke-width:2" d="M40,140 l25,0" /><path style="fill:none;stroke:#000;stroke-width:2" d="M40,203 l25,0" /><path style="fill:none;stroke:#000;stroke-width:2" d="M40,266 l25,0" /><path style="fill:none;stroke:#000;stroke-width:2" d="M40,329 l25,0" /><path style="fill:none;stroke:#000;stroke-width:2" d="M40,392 l25,0" /><path style="fill:none;stroke:#000;stroke-width:2" d="M40,455 l25,0" /><path style="fill:none;stroke:#000;stroke-width:2" d="M40,517 l25,0" /><path style="fill:none;stroke:#000;stroke-width:2" d="M40,580 l25,0" /><path style="fill:none;stroke:#000;stroke-width:2" d="M40,643 l25,0" /><path style="fill:none;stroke:#000;stroke-width:2" d="M40,84 l25,0" /><path style="fill:none;stroke:#000;stroke-width:2" d="M40,147 l25,0" /><path style="fill:none;stroke:#000;stroke-width:2" d="M40,209 l25,0" /><path style="fill:none;stroke:#000;stroke-width:2" d="M40,272 l25,0" /><path style="fill:none;stroke:#000;stroke-width:2" d="M40,335 l25,0" /><path style="fill:none;stroke:#000;stroke-width:2" d="M40,398 l25,0" /><path style="fill:none;stroke:#000;stroke-width:2" d="M40,461 l25,0" /><path style="fill:none;stroke:#000;stroke-width:2" d="M40,524 l25,0" /><path style="fill:none;stroke:#000;stroke-width:2" d="M40,586 l25,0" /><path style="fill:none;stroke:#000;stroke-width:2" d="M40,649 l25,0" /></svg>