<!DOCTYPE svg PUBLIC "-//W3C//DTD SVG 20000303 Stylable//EN" "http://www.w3.org/TR/2000/03/WD-SVG-20000303/DTD/svg-20000303-stylable.dtd"[]><svg xmlns="http://www.w3.org/2000/svg" width="307px" height="999px" viewBox="0 0 244 792"><path style="fill:none;stroke:#000;stroke-width:2" d="M22,22 l200,0" /><path style="fill:none;stroke:#000;stroke-width:2" d="M22,270 l200,0" /><path style="fill:none;stroke:#000;stroke-width:2" d="M22,520 l200,0" /><path style="fill:none;stroke:#000;stroke-width:2" d="M22,770 l200,0" /><path style="fill:none;stroke:#000;stroke-width:2" d="M72,47 l100,0" /><path style="fill:none;stroke:#000;stroke-width:2" d="M72,295 l100,0" /><path style="fill:none;stroke:#000;stroke-width:2" d="M72,545 l100,0" /><path style="fill:none;stroke:#000;stroke-width:2" d="M72,72 l100,0" /><path style="fill:none;stroke:#000;stroke-width:2" d="M72,320 l100,0" /><path style="fill:none;stroke:#000;stroke-width:2" d="M72,570 l100,0" /><path style="fill:none;stroke:#000;stroke-width:2" d="M72,97 l100,0" /><path style="fill:none;stroke:#000;stroke-width:2" d="M72,345 l100,0" /><path style="fill:none;stroke:#000;stroke-width:2" d="M72,595 l100,0" /><path style="fill:none;stroke:#000;stroke-width:2" d="M72,122 l100,0" /><path style="fill:none;stroke:#000;stroke-width:2" d="M72,370 l100,0" /><path style="fill:none;stroke:#000;stroke-width:2" d="M72,620 l100,0" /><path style="fill:none;stroke:#000;stroke-width:2" d="M72,147 l100,0" /><path style="fill:none;stroke:#000;stroke-width:2" d="M72,395 l100,0" /><path style="fill:none;stroke:#000;stroke-width:2" d="M72,645 l100,0" /><path style="fill:none;stroke:#000;stroke-width:2" d="M72,172 l100,0" /><path style="fill:none;stroke:#000;stroke-width:2" d="M72,420 l100,0" /><path style="fill:none;stroke:#000;stroke-width:2" d="M72,670 l100,0" /><path style="fill:none;stroke:#000;stroke-width:2" d="M72,197 l100,0" /><path style="fill:none;stroke:#000;stroke-width:2" d="M72,445 l100,0" /><path style="fill:none;stroke:#000;stroke-width:2" d="M72,695 l100,0" /><path style="fill:none;stroke:#000;stroke-width:2" d="M72,222 l100,0" /><path style="fill:none;stroke:#000;stroke-width:2" d="M72,470 l100,0" /><path style="fill:none;stroke:#000;stroke-width:2" d="M72,720 l100,0" /><path style="fill:none;stroke:#000;stroke-width:2" d="M72,247 l100,0" /><path style="fill:none;stroke:#000;stroke-width:2" d="M72,495 l100,0" /><path style="fill:none;stroke:#000;stroke-width:2" d="M72,745 l100,0" /></svg>