<!DOCTYPE svg PUBLIC "-//W3C//DTD SVG 20000303 Stylable//EN" "http://www.w3.org/TR/2000/03/WD-SVG-20000303/DTD/svg-20000303-stylable.dtd"[]><svg xmlns="http://www.w3.org/2000/svg" width="433px" height="999px" viewBox="0 0 228 526"><path style="fill:none;stroke:#000;stroke-width:2" d="M14,14 l200,0" /><path style="fill:none;stroke:#000;stroke-width:2" d="M14,262 l200,0" /><path style="fill:none;stroke:#000;stroke-width:2" d="M14,512 l200,0" /><path style="fill:none;stroke:#000;stroke-width:2" d="M64,39 l100,0" /><path style="fill:none;stroke:#000;stroke-width:2" d="M64,287 l100,0" /><path style="fill:none;stroke:#000;stroke-width:2" d="M64,64 l100,0" /><path style="fill:none;stroke:#000;stroke-width:2" d="M64,312 l100,0" /><path style="fill:none;stroke:#000;stroke-width:2" d="M64,89 l100,0" /><path style="fill:none;stroke:#000;stroke-width:2" d="M64,337 l100,0" /><path style="fill:none;stroke:#000;stroke-width:2" d="M64,114 l100,0" /><path style="fill:none;stroke:#000;stroke-width:2" d="M64,362 l100,0" /><path style="fill:none;stroke:#000;stroke-width:2" d="M64,139 l100,0" /><path style="fill:none;stroke:#000;stroke-width:2" d="M64,387 l100,0" /><path style="fill:none;stroke:#000;stroke-width:2" d="M64,164 l100,0" /><path style="fill:none;stroke:#000;stroke-width:2" d="M64,412 l100,0" /><path style="fill:none;stroke:#000;stroke-width:2" d="M64,189 l100,0" /><path style="fill:none;stroke:#000;stroke-width:2" d="M64,437 l100,0" /><path style="fill:none;stroke:#000;stroke-width:2" d="M64,214 l100,0" /><path style="fill:none;stroke:#000;stroke-width:2" d="M64,462 l100,0" /><path style="fill:none;stroke:#000;stroke-width:2" d="M64,239 l100,0" /><path style="fill:none;stroke:#000;stroke-width:2" d="M64,487 l100,0" /></svg>