<!DOCTYPE svg PUBLIC "-//W3C//DTD SVG 20000303 Stylable//EN" "http://www.w3.org/TR/2000/03/WD-SVG-20000303/DTD/svg-20000303-stylable.dtd"[]><svg xmlns="http://www.w3.org/2000/svg" width="307px" height="999px" viewBox="0 0 244 792"><path style="fill:none;stroke:#000;stroke-width:2" d="M22,22 l200,0" /><path style="fill:none;stroke:#000;stroke-width:2" d="M22,72 l50,0" /><path style="fill:none;stroke:#000;stroke-width:2" d="M22,320 l50,0" /><path style="fill:none;stroke:#000;stroke-width:2" d="M22,570 l50,0" /><path style="fill:none;stroke:#000;stroke-width:2" d="M22,122 l50,0" /><path style="fill:none;stroke:#000;stroke-width:2" d="M22,370 l50,0" /><path style="fill:none;stroke:#000;stroke-width:2" d="M22,620 l50,0" /><path style="fill:none;stroke:#000;stroke-width:2" d="M22,172 l50,0" /><path style="fill:none;stroke:#000;stroke-width:2" d="M22,420 l50,0" /><path style="fill:none;stroke:#000;stroke-width:2" d="M22,670 l50,0" /><path style="fill:none;stroke:#000;stroke-width:2" d="M22,222 l50,0" /><path style="fill:none;stroke:#000;stroke-width:2" d="M22,470 l50,0" /><path style="fill:none;stroke:#000;stroke-width:2" d="M22,720 l50,0" /><path style="fill:none;stroke:#000;stroke-width:2" d="M22,272 l200,0" /><path style="fill:none;stroke:#000;stroke-width:2" d="M22,520 l200,0" /><path style="fill:none;stroke:#000;stroke-width:2" d="M22,770 l200,0" /><path style="fill:none;stroke:#000;stroke-width:2" d="M22,47 l50,0" /><path style="fill:none;stroke:#000;stroke-width:2" d="M22,295 l50,0" /><path style="fill:none;stroke:#000;stroke-width:2" d="M22,545 l50,0" /><path style="fill:none;stroke:#000;stroke-width:2" d="M22,97 l50,0" /><path style="fill:none;stroke:#000;stroke-width:2" d="M22,345 l50,0" /><path style="fill:none;stroke:#000;stroke-width:2" d="M22,595 l50,0" /><path style="fill:none;stroke:#000;stroke-width:2" d="M22,147 l100,0" /><path style="fill:none;stroke:#000;stroke-width:2" d="M22,395 l100,0" /><path style="fill:none;stroke:#000;stroke-width:2" d="M22,645 l100,0" /><path style="fill:none;stroke:#000;stroke-width:2" d="M72,197 l-50,0" /><path style="fill:none;stroke:#000;stroke-width:2" d="M72,445 l-50,0" /><path style="fill:none;stroke:#000;stroke-width:2" d="M72,695 l-50,0" /><path style="fill:none;stroke:#000;stroke-width:2" d="M22,247 l50,0" /><path style="fill:none;stroke:#000;stroke-width:2" d="M22,495 l50,0" /><path style="fill:none;stroke:#000;stroke-width:2" d="M22,745 l50,0" /></svg>