<!DOCTYPE svg PUBLIC "-//W3C//DTD SVG 20000303 Stylable//EN" "http://www.w3.org/TR/2000/03/WD-SVG-20000303/DTD/svg-20000303-stylable.dtd"[]><svg xmlns="http://www.w3.org/2000/svg" width="131px" height="999px" viewBox="0 0 131 999"><path style="fill:none;stroke:#000;stroke-width:2" d="M28,28 l75,0" /><path style="fill:none;stroke:#000;stroke-width:2" d="M28,970 l75,0" /><path style="fill:none;stroke:#000;stroke-width:2" d="M28,121 l75,0" /><path style="fill:none;stroke:#000;stroke-width:2" d="M28,215 l75,0" /><path style="fill:none;stroke:#000;stroke-width:2" d="M28,310 l75,0" /><path style="fill:none;stroke:#000;stroke-width:2" d="M28,404 l75,0" /><path style="fill:none;stroke:#000;stroke-width:2" d="M28,498 l75,0" /><path style="fill:none;stroke:#000;stroke-width:2" d="M28,592 l75,0" /><path style="fill:none;stroke:#000;stroke-width:2" d="M28,686 l75,0" /><path style="fill:none;stroke:#000;stroke-width:2" d="M28,780 l75,0" /><path style="fill:none;stroke:#000;stroke-width:2" d="M28,875 l75,0" /><path style="fill:none;stroke:#000;stroke-width:2" d="M47,37 l37,0" /><path style="fill:none;stroke:#000;stroke-width:2" d="M47,131 l37,0" /><path style="fill:none;stroke:#000;stroke-width:2" d="M47,225 l37,0" /><path style="fill:none;stroke:#000;stroke-width:2" d="M47,319 l37,0" /><path style="fill:none;stroke:#000;stroke-width:2" d="M47,413 l37,0" /><path style="fill:none;stroke:#000;stroke-width:2" d="M47,507 l37,0" /><path style="fill:none;stroke:#000;stroke-width:2" d="M47,601 l37,0" /><path style="fill:none;stroke:#000;stroke-width:2" d="M47,696 l37,0" /><path style="fill:none;stroke:#000;stroke-width:2" d="M47,790 l37,0" /><path style="fill:none;stroke:#000;stroke-width:2" d="M47,884 l37,0" /><path style="fill:none;stroke:#000;stroke-width:2" d="M47,47 l37,0" /><path style="fill:none;stroke:#000;stroke-width:2" d="M47,140 l37,0" /><path style="fill:none;stroke:#000;stroke-width:2" d="M47,234 l37,0" /><path style="fill:none;stroke:#000;stroke-width:2" d="M47,328 l37,0" /><path style="fill:none;stroke:#000;stroke-width:2" d="M47,423 l37,0" /><path style="fill:none;stroke:#000;stroke-width:2" d="M47,517 l37,0" /><path style="fill:none;stroke:#000;stroke-width:2" d="M47,611 l37,0" /><path style="fill:none;stroke:#000;stroke-width:2" d="M47,705 l37,0" /><path style="fill:none;stroke:#000;stroke-width:2" d="M47,799 l37,0" /><path style="fill:none;stroke:#000;stroke-width:2" d="M47,893 l37,0" /><path style="fill:none;stroke:#000;stroke-width:2" d="M47,56 l37,0" /><path style="fill:none;stroke:#000;stroke-width:2" d="M47,149 l37,0" /><path style="fill:none;stroke:#000;stroke-width:2" d="M47,244 l37,0" /><path style="fill:none;stroke:#000;stroke-width:2" d="M47,338 l37,0" /><path style="fill:none;stroke:#000;stroke-width:2" d="M47,432 l37,0" /><path style="fill:none;stroke:#000;stroke-width:2" d="M47,526 l37,0" /><path style="fill:none;stroke:#000;stroke-width:2" d="M47,620 l37,0" /><path style="fill:none;stroke:#000;stroke-width:2" d="M47,714 l37,0" /><path style="fill:none;stroke:#000;stroke-width:2" d="M47,809 l37,0" /><path style="fill:none;stroke:#000;stroke-width:2" d="M47,903 l37,0" /><path style="fill:none;stroke:#000;stroke-width:2" d="M47,65 l37,0" /><path style="fill:none;stroke:#000;stroke-width:2" d="M47,159 l37,0" /><path style="fill:none;stroke:#000;stroke-width:2" d="M47,253 l37,0" /><path style="fill:none;stroke:#000;stroke-width:2" d="M47,347 l37,0" /><path style="fill:none;stroke:#000;stroke-width:2" d="M47,441 l37,0" /><path style="fill:none;stroke:#000;stroke-width:2" d="M47,536 l37,0" /><path style="fill:none;stroke:#000;stroke-width:2" d="M47,630 l37,0" /><path style="fill:none;stroke:#000;stroke-width:2" d="M47,724 l37,0" /><path style="fill:none;stroke:#000;stroke-width:2" d="M47,818 l37,0" /><path style="fill:none;stroke:#000;stroke-width:2" d="M47,912 l37,0" /><path style="fill:none;stroke:#000;stroke-width:2" d="M47,75 l37,0" /><path style="fill:none;stroke:#000;stroke-width:2" d="M47,168 l37,0" /><path style="fill:none;stroke:#000;stroke-width:2" d="M47,262 l37,0" /><path style="fill:none;stroke:#000;stroke-width:2" d="M47,357 l37,0" /><path style="fill:none;stroke:#000;stroke-width:2" d="M47,451 l37,0" /><path style="fill:none;stroke:#000;stroke-width:2" d="M47,545 l37,0" /><path style="fill:none;stroke:#000;stroke-width:2" d="M47,639 l37,0" /><path style="fill:none;stroke:#000;stroke-width:2" d="M47,733 l37,0" /><path style="fill:none;stroke:#000;stroke-width:2" d="M47,827 l37,0" /><path style="fill:none;stroke:#000;stroke-width:2" d="M47,922 l37,0" /><path style="fill:none;stroke:#000;stroke-width:2" d="M47,84 l37,0" /><path style="fill:none;stroke:#000;stroke-width:2" d="M47,178 l37,0" /><path style="fill:none;stroke:#000;stroke-width:2" d="M47,272 l37,0" /><path style="fill:none;stroke:#000;stroke-width:2" d="M47,366 l37,0" /><path style="fill:none;stroke:#000;stroke-width:2" d="M47,460 l37,0" /><path style="fill:none;stroke:#000;stroke-width:2" d="M47,554 l37,0" /><path style="fill:none;stroke:#000;stroke-width:2" d="M47,649 l37,0" /><path style="fill:none;stroke:#000;stroke-width:2" d="M47,743 l37,0" /><path style="fill:none;stroke:#000;stroke-width:2" d="M47,837 l37,0" /><path style="fill:none;stroke:#000;stroke-width:2" d="M47,931 l37,0" /><path style="fill:none;stroke:#000;stroke-width:2" d="M47,94 l37,0" /><path style="fill:none;stroke:#000;stroke-width:2" d="M47,187 l37,0" /><path style="fill:none;stroke:#000;stroke-width:2" d="M47,281 l37,0" /><path style="fill:none;stroke:#000;stroke-width:2" d="M47,375 l37,0" /><path style="fill:none;stroke:#000;stroke-width:2" d="M47,470 l37,0" /><path style="fill:none;stroke:#000;stroke-width:2" d="M47,564 l37,0" /><path style="fill:none;stroke:#000;stroke-width:2" d="M47,658 l37,0" /><path style="fill:none;stroke:#000;stroke-width:2" d="M47,752 l37,0" /><path style="fill:none;stroke:#000;stroke-width:2" d="M47,846 l37,0" /><path style="fill:none;stroke:#000;stroke-width:2" d="M47,940 l37,0" /><path style="fill:none;stroke:#000;stroke-width:2" d="M47,103 l37,0" /><path style="fill:none;stroke:#000;stroke-width:2" d="M47,197 l37,0" /><path style="fill:none;stroke:#000;stroke-width:2" d="M47,291 l37,0" /><path style="fill:none;stroke:#000;stroke-width:2" d="M47,385 l37,0" /><path style="fill:none;stroke:#000;stroke-width:2" d="M47,479 l37,0" /><path style="fill:none;stroke:#000;stroke-width:2" d="M47,573 l37,0" /><path style="fill:none;stroke:#000;stroke-width:2" d="M47,667 l37,0" /><path style="fill:none;stroke:#000;stroke-width:2" d="M47,762 l37,0" /><path style="fill:none;stroke:#000;stroke-width:2" d="M47,856 l37,0" /><path style="fill:none;stroke:#000;stroke-width:2" d="M47,950 l37,0" /><path style="fill:none;stroke:#000;stroke-width:2" d="M47,113 l37,0" /><path style="fill:none;stroke:#000;stroke-width:2" d="M47,206 l37,0" /><path style="fill:none;stroke:#000;stroke-width:2" d="M47,300 l37,0" /><path style="fill:none;stroke:#000;stroke-width:2" d="M47,394 l37,0" /><path style="fill:none;stroke:#000;stroke-width:2" d="M47,488 l37,0" /><path style="fill:none;stroke:#000;stroke-width:2" d="M47,583 l37,0" /><path style="fill:none;stroke:#000;stroke-width:2" d="M47,677 l37,0" /><path style="fill:none;stroke:#000;stroke-width:2" d="M47,771 l37,0" /><path style="fill:none;stroke:#000;stroke-width:2" d="M47,865 l37,0" /><path style="fill:none;stroke:#000;stroke-width:2" d="M47,959 l37,0" /></svg>