<!DOCTYPE svg PUBLIC "-//W3C//DTD SVG 20000303 Stylable//EN" "http://www.w3.org/TR/2000/03/WD-SVG-20000303/DTD/svg-20000303-stylable.dtd"[]><svg xmlns="http://www.w3.org/2000/svg" width="150px" height="999px" viewBox="0 0 150 999"><path style="fill:none;stroke:#000;stroke-width:2" d="M27,27 l95,0" /><path style="fill:none;stroke:#000;stroke-width:2" d="M27,51 l24,0" /><path style="fill:none;stroke:#000;stroke-width:2" d="M27,168 l24,0" /><path style="fill:none;stroke:#000;stroke-width:2" d="M27,286 l24,0" /><path style="fill:none;stroke:#000;stroke-width:2" d="M27,404 l24,0" /><path style="fill:none;stroke:#000;stroke-width:2" d="M27,522 l24,0" /><path style="fill:none;stroke:#000;stroke-width:2" d="M27,640 l24,0" /><path style="fill:none;stroke:#000;stroke-width:2" d="M27,758 l24,0" /><path style="fill:none;stroke:#000;stroke-width:2" d="M27,876 l24,0" /><path style="fill:none;stroke:#000;stroke-width:2" d="M27,75 l24,0" /><path style="fill:none;stroke:#000;stroke-width:2" d="M27,192 l24,0" /><path style="fill:none;stroke:#000;stroke-width:2" d="M27,310 l24,0" /><path style="fill:none;stroke:#000;stroke-width:2" d="M27,428 l24,0" /><path style="fill:none;stroke:#000;stroke-width:2" d="M27,546 l24,0" /><path style="fill:none;stroke:#000;stroke-width:2" d="M27,664 l24,0" /><path style="fill:none;stroke:#000;stroke-width:2" d="M27,782 l24,0" /><path style="fill:none;stroke:#000;stroke-width:2" d="M27,900 l24,0" /><path style="fill:none;stroke:#000;stroke-width:2" d="M27,98 l24,0" /><path style="fill:none;stroke:#000;stroke-width:2" d="M27,215 l24,0" /><path style="fill:none;stroke:#000;stroke-width:2" d="M27,333 l24,0" /><path style="fill:none;stroke:#000;stroke-width:2" d="M27,451 l24,0" /><path style="fill:none;stroke:#000;stroke-width:2" d="M27,569 l24,0" /><path style="fill:none;stroke:#000;stroke-width:2" d="M27,687 l24,0" /><path style="fill:none;stroke:#000;stroke-width:2" d="M27,805 l24,0" /><path style="fill:none;stroke:#000;stroke-width:2" d="M27,923 l24,0" /><path style="fill:none;stroke:#000;stroke-width:2" d="M27,122 l24,0" /><path style="fill:none;stroke:#000;stroke-width:2" d="M27,239 l24,0" /><path style="fill:none;stroke:#000;stroke-width:2" d="M27,357 l24,0" /><path style="fill:none;stroke:#000;stroke-width:2" d="M27,475 l24,0" /><path style="fill:none;stroke:#000;stroke-width:2" d="M27,593 l24,0" /><path style="fill:none;stroke:#000;stroke-width:2" d="M27,711 l24,0" /><path style="fill:none;stroke:#000;stroke-width:2" d="M27,829 l24,0" /><path style="fill:none;stroke:#000;stroke-width:2" d="M27,947 l24,0" /><path style="fill:none;stroke:#000;stroke-width:2" d="M27,145 l95,0" /><path style="fill:none;stroke:#000;stroke-width:2" d="M27,262 l95,0" /><path style="fill:none;stroke:#000;stroke-width:2" d="M27,380 l95,0" /><path style="fill:none;stroke:#000;stroke-width:2" d="M27,499 l95,0" /><path style="fill:none;stroke:#000;stroke-width:2" d="M27,617 l95,0" /><path style="fill:none;stroke:#000;stroke-width:2" d="M27,735 l95,0" /><path style="fill:none;stroke:#000;stroke-width:2" d="M27,853 l95,0" /><path style="fill:none;stroke:#000;stroke-width:2" d="M27,971 l95,0" /><path style="fill:none;stroke:#000;stroke-width:2" d="M27,39 l24,0" /><path style="fill:none;stroke:#000;stroke-width:2" d="M27,156 l24,0" /><path style="fill:none;stroke:#000;stroke-width:2" d="M27,274 l24,0" /><path style="fill:none;stroke:#000;stroke-width:2" d="M27,392 l24,0" /><path style="fill:none;stroke:#000;stroke-width:2" d="M27,510 l24,0" /><path style="fill:none;stroke:#000;stroke-width:2" d="M27,628 l24,0" /><path style="fill:none;stroke:#000;stroke-width:2" d="M27,746 l24,0" /><path style="fill:none;stroke:#000;stroke-width:2" d="M27,864 l24,0" /><path style="fill:none;stroke:#000;stroke-width:2" d="M27,63 l24,0" /><path style="fill:none;stroke:#000;stroke-width:2" d="M27,180 l24,0" /><path style="fill:none;stroke:#000;stroke-width:2" d="M27,298 l24,0" /><path style="fill:none;stroke:#000;stroke-width:2" d="M27,416 l24,0" /><path style="fill:none;stroke:#000;stroke-width:2" d="M27,534 l24,0" /><path style="fill:none;stroke:#000;stroke-width:2" d="M27,652 l24,0" /><path style="fill:none;stroke:#000;stroke-width:2" d="M27,770 l24,0" /><path style="fill:none;stroke:#000;stroke-width:2" d="M27,888 l24,0" /><path style="fill:none;stroke:#000;stroke-width:2" d="M27,86 l48,0" /><path style="fill:none;stroke:#000;stroke-width:2" d="M27,203 l48,0" /><path style="fill:none;stroke:#000;stroke-width:2" d="M27,321 l48,0" /><path style="fill:none;stroke:#000;stroke-width:2" d="M27,440 l48,0" /><path style="fill:none;stroke:#000;stroke-width:2" d="M27,558 l48,0" /><path style="fill:none;stroke:#000;stroke-width:2" d="M27,676 l48,0" /><path style="fill:none;stroke:#000;stroke-width:2" d="M27,794 l48,0" /><path style="fill:none;stroke:#000;stroke-width:2" d="M27,912 l48,0" /><path style="fill:none;stroke:#000;stroke-width:2" d="M51,110 l-24,0" /><path style="fill:none;stroke:#000;stroke-width:2" d="M51,227 l-24,0" /><path style="fill:none;stroke:#000;stroke-width:2" d="M51,345 l-24,0" /><path style="fill:none;stroke:#000;stroke-width:2" d="M51,463 l-24,0" /><path style="fill:none;stroke:#000;stroke-width:2" d="M51,581 l-24,0" /><path style="fill:none;stroke:#000;stroke-width:2" d="M51,699 l-24,0" /><path style="fill:none;stroke:#000;stroke-width:2" d="M51,817 l-24,0" /><path style="fill:none;stroke:#000;stroke-width:2" d="M51,935 l-24,0" /><path style="fill:none;stroke:#000;stroke-width:2" d="M27,134 l24,0" /><path style="fill:none;stroke:#000;stroke-width:2" d="M27,251 l24,0" /><path style="fill:none;stroke:#000;stroke-width:2" d="M27,369 l24,0" /><path style="fill:none;stroke:#000;stroke-width:2" d="M27,487 l24,0" /><path style="fill:none;stroke:#000;stroke-width:2" d="M27,605 l24,0" /><path style="fill:none;stroke:#000;stroke-width:2" d="M27,723 l24,0" /><path style="fill:none;stroke:#000;stroke-width:2" d="M27,841 l24,0" /><path style="fill:none;stroke:#000;stroke-width:2" d="M27,959 l24,0" /></svg>