<!DOCTYPE svg PUBLIC "-//W3C//DTD SVG 20000303 Stylable//EN" "http://www.w3.org/TR/2000/03/WD-SVG-20000303/DTD/svg-20000303-stylable.dtd"[]><svg xmlns="http://www.w3.org/2000/svg" width="181px" height="999px" viewBox="0 0 181 999"><path style="fill:none;stroke:#000;stroke-width:2" d="M27,27 l126,0" /><path style="fill:none;stroke:#000;stroke-width:2" d="M27,183 l126,0" /><path style="fill:none;stroke:#000;stroke-width:2" d="M27,341 l126,0" /><path style="fill:none;stroke:#000;stroke-width:2" d="M27,498 l126,0" /><path style="fill:none;stroke:#000;stroke-width:2" d="M27,656 l126,0" /><path style="fill:none;stroke:#000;stroke-width:2" d="M27,813 l126,0" /><path style="fill:none;stroke:#000;stroke-width:2" d="M27,971 l126,0" /><path style="fill:none;stroke:#000;stroke-width:2" d="M59,43 l63,0" /><path style="fill:none;stroke:#000;stroke-width:2" d="M59,199 l63,0" /><path style="fill:none;stroke:#000;stroke-width:2" d="M59,357 l63,0" /><path style="fill:none;stroke:#000;stroke-width:2" d="M59,514 l63,0" /><path style="fill:none;stroke:#000;stroke-width:2" d="M59,672 l63,0" /><path style="fill:none;stroke:#000;stroke-width:2" d="M59,829 l63,0" /><path style="fill:none;stroke:#000;stroke-width:2" d="M59,59 l63,0" /><path style="fill:none;stroke:#000;stroke-width:2" d="M59,215 l63,0" /><path style="fill:none;stroke:#000;stroke-width:2" d="M59,372 l63,0" /><path style="fill:none;stroke:#000;stroke-width:2" d="M59,530 l63,0" /><path style="fill:none;stroke:#000;stroke-width:2" d="M59,687 l63,0" /><path style="fill:none;stroke:#000;stroke-width:2" d="M59,845 l63,0" /><path style="fill:none;stroke:#000;stroke-width:2" d="M59,74 l63,0" /><path style="fill:none;stroke:#000;stroke-width:2" d="M59,231 l63,0" /><path style="fill:none;stroke:#000;stroke-width:2" d="M59,388 l63,0" /><path style="fill:none;stroke:#000;stroke-width:2" d="M59,546 l63,0" /><path style="fill:none;stroke:#000;stroke-width:2" d="M59,703 l63,0" /><path style="fill:none;stroke:#000;stroke-width:2" d="M59,861 l63,0" /><path style="fill:none;stroke:#000;stroke-width:2" d="M59,90 l63,0" /><path style="fill:none;stroke:#000;stroke-width:2" d="M59,246 l63,0" /><path style="fill:none;stroke:#000;stroke-width:2" d="M59,404 l63,0" /><path style="fill:none;stroke:#000;stroke-width:2" d="M59,561 l63,0" /><path style="fill:none;stroke:#000;stroke-width:2" d="M59,719 l63,0" /><path style="fill:none;stroke:#000;stroke-width:2" d="M59,876 l63,0" /><path style="fill:none;stroke:#000;stroke-width:2" d="M59,106 l63,0" /><path style="fill:none;stroke:#000;stroke-width:2" d="M59,262 l63,0" /><path style="fill:none;stroke:#000;stroke-width:2" d="M59,420 l63,0" /><path style="fill:none;stroke:#000;stroke-width:2" d="M59,577 l63,0" /><path style="fill:none;stroke:#000;stroke-width:2" d="M59,735 l63,0" /><path style="fill:none;stroke:#000;stroke-width:2" d="M59,892 l63,0" /><path style="fill:none;stroke:#000;stroke-width:2" d="M59,122 l63,0" /><path style="fill:none;stroke:#000;stroke-width:2" d="M59,278 l63,0" /><path style="fill:none;stroke:#000;stroke-width:2" d="M59,435 l63,0" /><path style="fill:none;stroke:#000;stroke-width:2" d="M59,593 l63,0" /><path style="fill:none;stroke:#000;stroke-width:2" d="M59,750 l63,0" /><path style="fill:none;stroke:#000;stroke-width:2" d="M59,908 l63,0" /><path style="fill:none;stroke:#000;stroke-width:2" d="M59,137 l63,0" /><path style="fill:none;stroke:#000;stroke-width:2" d="M59,294 l63,0" /><path style="fill:none;stroke:#000;stroke-width:2" d="M59,451 l63,0" /><path style="fill:none;stroke:#000;stroke-width:2" d="M59,609 l63,0" /><path style="fill:none;stroke:#000;stroke-width:2" d="M59,766 l63,0" /><path style="fill:none;stroke:#000;stroke-width:2" d="M59,924 l63,0" /><path style="fill:none;stroke:#000;stroke-width:2" d="M59,153 l63,0" /><path style="fill:none;stroke:#000;stroke-width:2" d="M59,309 l63,0" /><path style="fill:none;stroke:#000;stroke-width:2" d="M59,467 l63,0" /><path style="fill:none;stroke:#000;stroke-width:2" d="M59,624 l63,0" /><path style="fill:none;stroke:#000;stroke-width:2" d="M59,782 l63,0" /><path style="fill:none;stroke:#000;stroke-width:2" d="M59,939 l63,0" /><path style="fill:none;stroke:#000;stroke-width:2" d="M59,169 l63,0" /><path style="fill:none;stroke:#000;stroke-width:2" d="M59,325 l63,0" /><path style="fill:none;stroke:#000;stroke-width:2" d="M59,483 l63,0" /><path style="fill:none;stroke:#000;stroke-width:2" d="M59,640 l63,0" /><path style="fill:none;stroke:#000;stroke-width:2" d="M59,798 l63,0" /><path style="fill:none;stroke:#000;stroke-width:2" d="M59,955 l63,0" /></svg>