<!DOCTYPE svg PUBLIC "-//W3C//DTD SVG 20000303 Stylable//EN" "http://www.w3.org/TR/2000/03/WD-SVG-20000303/DTD/svg-20000303-stylable.dtd"[]><svg xmlns="http://www.w3.org/2000/svg" width="244px" height="999px" viewBox="0 0 244 999"><path style="fill:none;stroke:#000;stroke-width:2" d="M27,27 l189,0" /><path style="fill:none;stroke:#000;stroke-width:2" d="M27,262 l189,0" /><path style="fill:none;stroke:#000;stroke-width:2" d="M27,498 l189,0" /><path style="fill:none;stroke:#000;stroke-width:2" d="M27,735 l189,0" /><path style="fill:none;stroke:#000;stroke-width:2" d="M27,971 l189,0" /><path style="fill:none;stroke:#000;stroke-width:2" d="M74,51 l95,0" /><path style="fill:none;stroke:#000;stroke-width:2" d="M74,285 l95,0" /><path style="fill:none;stroke:#000;stroke-width:2" d="M74,522 l95,0" /><path style="fill:none;stroke:#000;stroke-width:2" d="M74,758 l95,0" /><path style="fill:none;stroke:#000;stroke-width:2" d="M74,74 l95,0" /><path style="fill:none;stroke:#000;stroke-width:2" d="M74,309 l95,0" /><path style="fill:none;stroke:#000;stroke-width:2" d="M74,545 l95,0" /><path style="fill:none;stroke:#000;stroke-width:2" d="M74,782 l95,0" /><path style="fill:none;stroke:#000;stroke-width:2" d="M74,98 l95,0" /><path style="fill:none;stroke:#000;stroke-width:2" d="M74,333 l95,0" /><path style="fill:none;stroke:#000;stroke-width:2" d="M74,569 l95,0" /><path style="fill:none;stroke:#000;stroke-width:2" d="M74,806 l95,0" /><path style="fill:none;stroke:#000;stroke-width:2" d="M74,122 l95,0" /><path style="fill:none;stroke:#000;stroke-width:2" d="M74,356 l95,0" /><path style="fill:none;stroke:#000;stroke-width:2" d="M74,593 l95,0" /><path style="fill:none;stroke:#000;stroke-width:2" d="M74,829 l95,0" /><path style="fill:none;stroke:#000;stroke-width:2" d="M74,145 l95,0" /><path style="fill:none;stroke:#000;stroke-width:2" d="M74,380 l95,0" /><path style="fill:none;stroke:#000;stroke-width:2" d="M74,616 l95,0" /><path style="fill:none;stroke:#000;stroke-width:2" d="M74,853 l95,0" /><path style="fill:none;stroke:#000;stroke-width:2" d="M74,169 l95,0" /><path style="fill:none;stroke:#000;stroke-width:2" d="M74,403 l95,0" /><path style="fill:none;stroke:#000;stroke-width:2" d="M74,640 l95,0" /><path style="fill:none;stroke:#000;stroke-width:2" d="M74,876 l95,0" /><path style="fill:none;stroke:#000;stroke-width:2" d="M74,192 l95,0" /><path style="fill:none;stroke:#000;stroke-width:2" d="M74,427 l95,0" /><path style="fill:none;stroke:#000;stroke-width:2" d="M74,664 l95,0" /><path style="fill:none;stroke:#000;stroke-width:2" d="M74,900 l95,0" /><path style="fill:none;stroke:#000;stroke-width:2" d="M74,216 l95,0" /><path style="fill:none;stroke:#000;stroke-width:2" d="M74,451 l95,0" /><path style="fill:none;stroke:#000;stroke-width:2" d="M74,687 l95,0" /><path style="fill:none;stroke:#000;stroke-width:2" d="M74,924 l95,0" /><path style="fill:none;stroke:#000;stroke-width:2" d="M74,240 l95,0" /><path style="fill:none;stroke:#000;stroke-width:2" d="M74,474 l95,0" /><path style="fill:none;stroke:#000;stroke-width:2" d="M74,711 l95,0" /><path style="fill:none;stroke:#000;stroke-width:2" d="M74,947 l95,0" /></svg>