<!DOCTYPE svg PUBLIC "-//W3C//DTD SVG 20000303 Stylable//EN" "http://www.w3.org/TR/2000/03/WD-SVG-20000303/DTD/svg-20000303-stylable.dtd"[]><svg xmlns="http://www.w3.org/2000/svg" width="103px" height="999px" viewBox="0 0 103 999"><path style="fill:none;stroke:#000;stroke-width:2" d="M28,676 l47,0" /><path style="fill:none;stroke:#000;stroke-width:2" d="M28,735 l47,0" /><path style="fill:none;stroke:#000;stroke-width:2" d="M28,794 l47,0" /><path style="fill:none;stroke:#000;stroke-width:2" d="M28,852 l47,0" /><path style="fill:none;stroke:#000;stroke-width:2" d="M28,911 l47,0" /><path style="fill:none;stroke:#000;stroke-width:2" d="M28,970 l47,0" /><path style="fill:none;stroke:#000;stroke-width:2" d="M40,623 l23,0" /><path style="fill:none;stroke:#000;stroke-width:2" d="M40,682 l23,0" /><path style="fill:none;stroke:#000;stroke-width:2" d="M40,741 l23,0" /><path style="fill:none;stroke:#000;stroke-width:2" d="M40,799 l23,0" /><path style="fill:none;stroke:#000;stroke-width:2" d="M40,858 l23,0" /><path style="fill:none;stroke:#000;stroke-width:2" d="M40,917 l23,0" /><path style="fill:none;stroke:#000;stroke-width:2" d="M40,629 l23,0" /><path style="fill:none;stroke:#000;stroke-width:2" d="M40,687 l23,0" /><path style="fill:none;stroke:#000;stroke-width:2" d="M40,746 l23,0" /><path style="fill:none;stroke:#000;stroke-width:2" d="M40,805 l23,0" /><path style="fill:none;stroke:#000;stroke-width:2" d="M40,864 l23,0" /><path style="fill:none;stroke:#000;stroke-width:2" d="M40,923 l23,0" /><path style="fill:none;stroke:#000;stroke-width:2" d="M40,635 l23,0" /><path style="fill:none;stroke:#000;stroke-width:2" d="M40,693 l23,0" /><path style="fill:none;stroke:#000;stroke-width:2" d="M40,752 l23,0" /><path style="fill:none;stroke:#000;stroke-width:2" d="M40,811 l23,0" /><path style="fill:none;stroke:#000;stroke-width:2" d="M40,870 l23,0" /><path style="fill:none;stroke:#000;stroke-width:2" d="M40,929 l23,0" /><path style="fill:none;stroke:#000;stroke-width:2" d="M40,641 l23,0" /><path style="fill:none;stroke:#000;stroke-width:2" d="M40,699 l23,0" /><path style="fill:none;stroke:#000;stroke-width:2" d="M40,758 l23,0" /><path style="fill:none;stroke:#000;stroke-width:2" d="M40,817 l23,0" /><path style="fill:none;stroke:#000;stroke-width:2" d="M40,876 l23,0" /><path style="fill:none;stroke:#000;stroke-width:2" d="M40,935 l23,0" /><path style="fill:none;stroke:#000;stroke-width:2" d="M40,647 l23,0" /><path style="fill:none;stroke:#000;stroke-width:2" d="M40,705 l23,0" /><path style="fill:none;stroke:#000;stroke-width:2" d="M40,764 l23,0" /><path style="fill:none;stroke:#000;stroke-width:2" d="M40,823 l23,0" /><path style="fill:none;stroke:#000;stroke-width:2" d="M40,882 l23,0" /><path style="fill:none;stroke:#000;stroke-width:2" d="M40,941 l23,0" /><path style="fill:none;stroke:#000;stroke-width:2" d="M40,653 l23,0" /><path style="fill:none;stroke:#000;stroke-width:2" d="M40,711 l23,0" /><path style="fill:none;stroke:#000;stroke-width:2" d="M40,770 l23,0" /><path style="fill:none;stroke:#000;stroke-width:2" d="M40,829 l23,0" /><path style="fill:none;stroke:#000;stroke-width:2" d="M40,888 l23,0" /><path style="fill:none;stroke:#000;stroke-width:2" d="M40,947 l23,0" /><path style="fill:none;stroke:#000;stroke-width:2" d="M40,659 l23,0" /><path style="fill:none;stroke:#000;stroke-width:2" d="M40,717 l23,0" /><path style="fill:none;stroke:#000;stroke-width:2" d="M40,776 l23,0" /><path style="fill:none;stroke:#000;stroke-width:2" d="M40,835 l23,0" /><path style="fill:none;stroke:#000;stroke-width:2" d="M40,894 l23,0" /><path style="fill:none;stroke:#000;stroke-width:2" d="M40,953 l23,0" /><path style="fill:none;stroke:#000;stroke-width:2" d="M40,664 l23,0" /><path style="fill:none;stroke:#000;stroke-width:2" d="M40,723 l23,0" /><path style="fill:none;stroke:#000;stroke-width:2" d="M40,782 l23,0" /><path style="fill:none;stroke:#000;stroke-width:2" d="M40,841 l23,0" /><path style="fill:none;stroke:#000;stroke-width:2" d="M40,900 l23,0" /><path style="fill:none;stroke:#000;stroke-width:2" d="M40,958 l23,0" /><path style="fill:none;stroke:#000;stroke-width:2" d="M40,670 l23,0" /><path style="fill:none;stroke:#000;stroke-width:2" d="M40,729 l23,0" /><path style="fill:none;stroke:#000;stroke-width:2" d="M40,788 l23,0" /><path style="fill:none;stroke:#000;stroke-width:2" d="M40,847 l23,0" /><path style="fill:none;stroke:#000;stroke-width:2" d="M40,905 l23,0" /><path style="fill:none;stroke:#000;stroke-width:2" d="M40,964 l23,0" /><path style="fill:none;stroke:#000;stroke-width:2" d="M28,28 l47,0" /><path style="fill:none;stroke:#000;stroke-width:2" d="M28,617 l47,0" /><path style="fill:none;stroke:#000;stroke-width:2" d="M28,86 l47,0" /><path style="fill:none;stroke:#000;stroke-width:2" d="M28,145 l47,0" /><path style="fill:none;stroke:#000;stroke-width:2" d="M28,204 l47,0" /><path style="fill:none;stroke:#000;stroke-width:2" d="M28,263 l47,0" /><path style="fill:none;stroke:#000;stroke-width:2" d="M28,322 l47,0" /><path style="fill:none;stroke:#000;stroke-width:2" d="M28,381 l47,0" /><path style="fill:none;stroke:#000;stroke-width:2" d="M28,440 l47,0" /><path style="fill:none;stroke:#000;stroke-width:2" d="M28,499 l47,0" /><path style="fill:none;stroke:#000;stroke-width:2" d="M28,557 l47,0" /><path style="fill:none;stroke:#000;stroke-width:2" d="M40,34 l23,0" /><path style="fill:none;stroke:#000;stroke-width:2" d="M40,92 l23,0" /><path style="fill:none;stroke:#000;stroke-width:2" d="M40,151 l23,0" /><path style="fill:none;stroke:#000;stroke-width:2" d="M40,210 l23,0" /><path style="fill:none;stroke:#000;stroke-width:2" d="M40,269 l23,0" /><path style="fill:none;stroke:#000;stroke-width:2" d="M40,328 l23,0" /><path style="fill:none;stroke:#000;stroke-width:2" d="M40,387 l23,0" /><path style="fill:none;stroke:#000;stroke-width:2" d="M40,446 l23,0" /><path style="fill:none;stroke:#000;stroke-width:2" d="M40,504 l23,0" /><path style="fill:none;stroke:#000;stroke-width:2" d="M40,563 l23,0" /><path style="fill:none;stroke:#000;stroke-width:2" d="M40,40 l23,0" /><path style="fill:none;stroke:#000;stroke-width:2" d="M40,98 l23,0" /><path style="fill:none;stroke:#000;stroke-width:2" d="M40,157 l23,0" /><path style="fill:none;stroke:#000;stroke-width:2" d="M40,216 l23,0" /><path style="fill:none;stroke:#000;stroke-width:2" d="M40,275 l23,0" /><path style="fill:none;stroke:#000;stroke-width:2" d="M40,334 l23,0" /><path style="fill:none;stroke:#000;stroke-width:2" d="M40,393 l23,0" /><path style="fill:none;stroke:#000;stroke-width:2" d="M40,451 l23,0" /><path style="fill:none;stroke:#000;stroke-width:2" d="M40,510 l23,0" /><path style="fill:none;stroke:#000;stroke-width:2" d="M40,569 l23,0" /><path style="fill:none;stroke:#000;stroke-width:2" d="M40,45 l23,0" /><path style="fill:none;stroke:#000;stroke-width:2" d="M40,104 l23,0" /><path style="fill:none;stroke:#000;stroke-width:2" d="M40,163 l23,0" /><path style="fill:none;stroke:#000;stroke-width:2" d="M40,222 l23,0" /><path style="fill:none;stroke:#000;stroke-width:2" d="M40,281 l23,0" /><path style="fill:none;stroke:#000;stroke-width:2" d="M40,339 l23,0" /><path style="fill:none;stroke:#000;stroke-width:2" d="M40,398 l23,0" /><path style="fill:none;stroke:#000;stroke-width:2" d="M40,457 l23,0" /><path style="fill:none;stroke:#000;stroke-width:2" d="M40,516 l23,0" /><path style="fill:none;stroke:#000;stroke-width:2" d="M40,575 l23,0" /><path style="fill:none;stroke:#000;stroke-width:2" d="M40,51 l23,0" /><path style="fill:none;stroke:#000;stroke-width:2" d="M40,110 l23,0" /><path style="fill:none;stroke:#000;stroke-width:2" d="M40,169 l23,0" /><path style="fill:none;stroke:#000;stroke-width:2" d="M40,228 l23,0" /><path style="fill:none;stroke:#000;stroke-width:2" d="M40,286 l23,0" /><path style="fill:none;stroke:#000;stroke-width:2" d="M40,345 l23,0" /><path style="fill:none;stroke:#000;stroke-width:2" d="M40,404 l23,0" /><path style="fill:none;stroke:#000;stroke-width:2" d="M40,463 l23,0" /><path style="fill:none;stroke:#000;stroke-width:2" d="M40,522 l23,0" /><path style="fill:none;stroke:#000;stroke-width:2" d="M40,581 l23,0" /><path style="fill:none;stroke:#000;stroke-width:2" d="M40,57 l23,0" /><path style="fill:none;stroke:#000;stroke-width:2" d="M40,116 l23,0" /><path style="fill:none;stroke:#000;stroke-width:2" d="M40,175 l23,0" /><path style="fill:none;stroke:#000;stroke-width:2" d="M40,233 l23,0" /><path style="fill:none;stroke:#000;stroke-width:2" d="M40,292 l23,0" /><path style="fill:none;stroke:#000;stroke-width:2" d="M40,351 l23,0" /><path style="fill:none;stroke:#000;stroke-width:2" d="M40,410 l23,0" /><path style="fill:none;stroke:#000;stroke-width:2" d="M40,469 l23,0" /><path style="fill:none;stroke:#000;stroke-width:2" d="M40,528 l23,0" /><path style="fill:none;stroke:#000;stroke-width:2" d="M40,587 l23,0" /><path style="fill:none;stroke:#000;stroke-width:2" d="M40,63 l23,0" /><path style="fill:none;stroke:#000;stroke-width:2" d="M40,122 l23,0" /><path style="fill:none;stroke:#000;stroke-width:2" d="M40,180 l23,0" /><path style="fill:none;stroke:#000;stroke-width:2" d="M40,239 l23,0" /><path style="fill:none;stroke:#000;stroke-width:2" d="M40,298 l23,0" /><path style="fill:none;stroke:#000;stroke-width:2" d="M40,357 l23,0" /><path style="fill:none;stroke:#000;stroke-width:2" d="M40,416 l23,0" /><path style="fill:none;stroke:#000;stroke-width:2" d="M40,475 l23,0" /><path style="fill:none;stroke:#000;stroke-width:2" d="M40,534 l23,0" /><path style="fill:none;stroke:#000;stroke-width:2" d="M40,593 l23,0" /><path style="fill:none;stroke:#000;stroke-width:2" d="M40,69 l23,0" /><path style="fill:none;stroke:#000;stroke-width:2" d="M40,127 l23,0" /><path style="fill:none;stroke:#000;stroke-width:2" d="M40,186 l23,0" /><path style="fill:none;stroke:#000;stroke-width:2" d="M40,245 l23,0" /><path style="fill:none;stroke:#000;stroke-width:2" d="M40,304 l23,0" /><path style="fill:none;stroke:#000;stroke-width:2" d="M40,363 l23,0" /><path style="fill:none;stroke:#000;stroke-width:2" d="M40,422 l23,0" /><path style="fill:none;stroke:#000;stroke-width:2" d="M40,481 l23,0" /><path style="fill:none;stroke:#000;stroke-width:2" d="M40,540 l23,0" /><path style="fill:none;stroke:#000;stroke-width:2" d="M40,599 l23,0" /><path style="fill:none;stroke:#000;stroke-width:2" d="M40,75 l23,0" /><path style="fill:none;stroke:#000;stroke-width:2" d="M40,133 l23,0" /><path style="fill:none;stroke:#000;stroke-width:2" d="M40,192 l23,0" /><path style="fill:none;stroke:#000;stroke-width:2" d="M40,251 l23,0" /><path style="fill:none;stroke:#000;stroke-width:2" d="M40,310 l23,0" /><path style="fill:none;stroke:#000;stroke-width:2" d="M40,369 l23,0" /><path style="fill:none;stroke:#000;stroke-width:2" d="M40,428 l23,0" /><path style="fill:none;stroke:#000;stroke-width:2" d="M40,487 l23,0" /><path style="fill:none;stroke:#000;stroke-width:2" d="M40,546 l23,0" /><path style="fill:none;stroke:#000;stroke-width:2" d="M40,605 l23,0" /><path style="fill:none;stroke:#000;stroke-width:2" d="M40,81 l23,0" /><path style="fill:none;stroke:#000;stroke-width:2" d="M40,139 l23,0" /><path style="fill:none;stroke:#000;stroke-width:2" d="M40,198 l23,0" /><path style="fill:none;stroke:#000;stroke-width:2" d="M40,257 l23,0" /><path style="fill:none;stroke:#000;stroke-width:2" d="M40,316 l23,0" /><path style="fill:none;stroke:#000;stroke-width:2" d="M40,375 l23,0" /><path style="fill:none;stroke:#000;stroke-width:2" d="M40,434 l23,0" /><path style="fill:none;stroke:#000;stroke-width:2" d="M40,493 l23,0" /><path style="fill:none;stroke:#000;stroke-width:2" d="M40,552 l23,0" /><path style="fill:none;stroke:#000;stroke-width:2" d="M40,610 l23,0" /></svg>