<!DOCTYPE svg PUBLIC "-//W3C//DTD SVG 20000303 Stylable//EN" "http://www.w3.org/TR/2000/03/WD-SVG-20000303/DTD/svg-20000303-stylable.dtd"[]><svg xmlns="http://www.w3.org/2000/svg" width="110px" height="999px" viewBox="0 0 110 999"><path style="fill:none;stroke:#000;stroke-width:2" d="M28,768 l54,0" /><path style="fill:none;stroke:#000;stroke-width:2" d="M28,836 l54,0" /><path style="fill:none;stroke:#000;stroke-width:2" d="M28,903 l54,0" /><path style="fill:none;stroke:#000;stroke-width:2" d="M28,970 l54,0" /><path style="fill:none;stroke:#000;stroke-width:2" d="M41,708 l27,0" /><path style="fill:none;stroke:#000;stroke-width:2" d="M41,775 l27,0" /><path style="fill:none;stroke:#000;stroke-width:2" d="M41,842 l27,0" /><path style="fill:none;stroke:#000;stroke-width:2" d="M41,910 l27,0" /><path style="fill:none;stroke:#000;stroke-width:2" d="M41,715 l27,0" /><path style="fill:none;stroke:#000;stroke-width:2" d="M41,782 l27,0" /><path style="fill:none;stroke:#000;stroke-width:2" d="M41,849 l27,0" /><path style="fill:none;stroke:#000;stroke-width:2" d="M41,916 l27,0" /><path style="fill:none;stroke:#000;stroke-width:2" d="M41,722 l27,0" /><path style="fill:none;stroke:#000;stroke-width:2" d="M41,788 l27,0" /><path style="fill:none;stroke:#000;stroke-width:2" d="M41,856 l27,0" /><path style="fill:none;stroke:#000;stroke-width:2" d="M41,923 l27,0" /><path style="fill:none;stroke:#000;stroke-width:2" d="M41,728 l27,0" /><path style="fill:none;stroke:#000;stroke-width:2" d="M41,795 l27,0" /><path style="fill:none;stroke:#000;stroke-width:2" d="M41,863 l27,0" /><path style="fill:none;stroke:#000;stroke-width:2" d="M41,930 l27,0" /><path style="fill:none;stroke:#000;stroke-width:2" d="M41,735 l27,0" /><path style="fill:none;stroke:#000;stroke-width:2" d="M41,802 l27,0" /><path style="fill:none;stroke:#000;stroke-width:2" d="M41,869 l27,0" /><path style="fill:none;stroke:#000;stroke-width:2" d="M41,937 l27,0" /><path style="fill:none;stroke:#000;stroke-width:2" d="M41,742 l27,0" /><path style="fill:none;stroke:#000;stroke-width:2" d="M41,809 l27,0" /><path style="fill:none;stroke:#000;stroke-width:2" d="M41,876 l27,0" /><path style="fill:none;stroke:#000;stroke-width:2" d="M41,943 l27,0" /><path style="fill:none;stroke:#000;stroke-width:2" d="M41,749 l27,0" /><path style="fill:none;stroke:#000;stroke-width:2" d="M41,815 l27,0" /><path style="fill:none;stroke:#000;stroke-width:2" d="M41,883 l27,0" /><path style="fill:none;stroke:#000;stroke-width:2" d="M41,950 l27,0" /><path style="fill:none;stroke:#000;stroke-width:2" d="M41,755 l27,0" /><path style="fill:none;stroke:#000;stroke-width:2" d="M41,822 l27,0" /><path style="fill:none;stroke:#000;stroke-width:2" d="M41,889 l27,0" /><path style="fill:none;stroke:#000;stroke-width:2" d="M41,957 l27,0" /><path style="fill:none;stroke:#000;stroke-width:2" d="M41,762 l27,0" /><path style="fill:none;stroke:#000;stroke-width:2" d="M41,829 l27,0" /><path style="fill:none;stroke:#000;stroke-width:2" d="M41,896 l27,0" /><path style="fill:none;stroke:#000;stroke-width:2" d="M41,963 l27,0" /><path style="fill:none;stroke:#000;stroke-width:2" d="M28,28 l54,0" /><path style="fill:none;stroke:#000;stroke-width:2" d="M28,701 l54,0" /><path style="fill:none;stroke:#000;stroke-width:2" d="M28,95 l54,0" /><path style="fill:none;stroke:#000;stroke-width:2" d="M28,162 l54,0" /><path style="fill:none;stroke:#000;stroke-width:2" d="M28,229 l54,0" /><path style="fill:none;stroke:#000;stroke-width:2" d="M28,297 l54,0" /><path style="fill:none;stroke:#000;stroke-width:2" d="M28,364 l54,0" /><path style="fill:none;stroke:#000;stroke-width:2" d="M28,431 l54,0" /><path style="fill:none;stroke:#000;stroke-width:2" d="M28,498 l54,0" /><path style="fill:none;stroke:#000;stroke-width:2" d="M28,566 l54,0" /><path style="fill:none;stroke:#000;stroke-width:2" d="M28,633 l54,0" /><path style="fill:none;stroke:#000;stroke-width:2" d="M41,35 l27,0" /><path style="fill:none;stroke:#000;stroke-width:2" d="M41,101 l27,0" /><path style="fill:none;stroke:#000;stroke-width:2" d="M41,169 l27,0" /><path style="fill:none;stroke:#000;stroke-width:2" d="M41,236 l27,0" /><path style="fill:none;stroke:#000;stroke-width:2" d="M41,303 l27,0" /><path style="fill:none;stroke:#000;stroke-width:2" d="M41,371 l27,0" /><path style="fill:none;stroke:#000;stroke-width:2" d="M41,438 l27,0" /><path style="fill:none;stroke:#000;stroke-width:2" d="M41,505 l27,0" /><path style="fill:none;stroke:#000;stroke-width:2" d="M41,573 l27,0" /><path style="fill:none;stroke:#000;stroke-width:2" d="M41,640 l27,0" /><path style="fill:none;stroke:#000;stroke-width:2" d="M41,41 l27,0" /><path style="fill:none;stroke:#000;stroke-width:2" d="M41,108 l27,0" /><path style="fill:none;stroke:#000;stroke-width:2" d="M41,175 l27,0" /><path style="fill:none;stroke:#000;stroke-width:2" d="M41,243 l27,0" /><path style="fill:none;stroke:#000;stroke-width:2" d="M41,310 l27,0" /><path style="fill:none;stroke:#000;stroke-width:2" d="M41,377 l27,0" /><path style="fill:none;stroke:#000;stroke-width:2" d="M41,445 l27,0" /><path style="fill:none;stroke:#000;stroke-width:2" d="M41,512 l27,0" /><path style="fill:none;stroke:#000;stroke-width:2" d="M41,579 l27,0" /><path style="fill:none;stroke:#000;stroke-width:2" d="M41,647 l27,0" /><path style="fill:none;stroke:#000;stroke-width:2" d="M41,48 l27,0" /><path style="fill:none;stroke:#000;stroke-width:2" d="M41,115 l27,0" /><path style="fill:none;stroke:#000;stroke-width:2" d="M41,182 l27,0" /><path style="fill:none;stroke:#000;stroke-width:2" d="M41,249 l27,0" /><path style="fill:none;stroke:#000;stroke-width:2" d="M41,317 l27,0" /><path style="fill:none;stroke:#000;stroke-width:2" d="M41,384 l27,0" /><path style="fill:none;stroke:#000;stroke-width:2" d="M41,451 l27,0" /><path style="fill:none;stroke:#000;stroke-width:2" d="M41,519 l27,0" /><path style="fill:none;stroke:#000;stroke-width:2" d="M41,586 l27,0" /><path style="fill:none;stroke:#000;stroke-width:2" d="M41,653 l27,0" /><path style="fill:none;stroke:#000;stroke-width:2" d="M41,55 l27,0" /><path style="fill:none;stroke:#000;stroke-width:2" d="M41,121 l27,0" /><path style="fill:none;stroke:#000;stroke-width:2" d="M41,189 l27,0" /><path style="fill:none;stroke:#000;stroke-width:2" d="M41,256 l27,0" /><path style="fill:none;stroke:#000;stroke-width:2" d="M41,323 l27,0" /><path style="fill:none;stroke:#000;stroke-width:2" d="M41,391 l27,0" /><path style="fill:none;stroke:#000;stroke-width:2" d="M41,458 l27,0" /><path style="fill:none;stroke:#000;stroke-width:2" d="M41,525 l27,0" /><path style="fill:none;stroke:#000;stroke-width:2" d="M41,593 l27,0" /><path style="fill:none;stroke:#000;stroke-width:2" d="M41,660 l27,0" /><path style="fill:none;stroke:#000;stroke-width:2" d="M41,61 l27,0" /><path style="fill:none;stroke:#000;stroke-width:2" d="M41,128 l27,0" /><path style="fill:none;stroke:#000;stroke-width:2" d="M41,196 l27,0" /><path style="fill:none;stroke:#000;stroke-width:2" d="M41,263 l27,0" /><path style="fill:none;stroke:#000;stroke-width:2" d="M41,330 l27,0" /><path style="fill:none;stroke:#000;stroke-width:2" d="M41,397 l27,0" /><path style="fill:none;stroke:#000;stroke-width:2" d="M41,465 l27,0" /><path style="fill:none;stroke:#000;stroke-width:2" d="M41,532 l27,0" /><path style="fill:none;stroke:#000;stroke-width:2" d="M41,599 l27,0" /><path style="fill:none;stroke:#000;stroke-width:2" d="M41,667 l27,0" /><path style="fill:none;stroke:#000;stroke-width:2" d="M41,68 l27,0" /><path style="fill:none;stroke:#000;stroke-width:2" d="M41,135 l27,0" /><path style="fill:none;stroke:#000;stroke-width:2" d="M41,202 l27,0" /><path style="fill:none;stroke:#000;stroke-width:2" d="M41,270 l27,0" /><path style="fill:none;stroke:#000;stroke-width:2" d="M41,337 l27,0" /><path style="fill:none;stroke:#000;stroke-width:2" d="M41,404 l27,0" /><path style="fill:none;stroke:#000;stroke-width:2" d="M41,472 l27,0" /><path style="fill:none;stroke:#000;stroke-width:2" d="M41,539 l27,0" /><path style="fill:none;stroke:#000;stroke-width:2" d="M41,606 l27,0" /><path style="fill:none;stroke:#000;stroke-width:2" d="M41,673 l27,0" /><path style="fill:none;stroke:#000;stroke-width:2" d="M41,75 l27,0" /><path style="fill:none;stroke:#000;stroke-width:2" d="M41,142 l27,0" /><path style="fill:none;stroke:#000;stroke-width:2" d="M41,209 l27,0" /><path style="fill:none;stroke:#000;stroke-width:2" d="M41,276 l27,0" /><path style="fill:none;stroke:#000;stroke-width:2" d="M41,344 l27,0" /><path style="fill:none;stroke:#000;stroke-width:2" d="M41,411 l27,0" /><path style="fill:none;stroke:#000;stroke-width:2" d="M41,478 l27,0" /><path style="fill:none;stroke:#000;stroke-width:2" d="M41,546 l27,0" /><path style="fill:none;stroke:#000;stroke-width:2" d="M41,613 l27,0" /><path style="fill:none;stroke:#000;stroke-width:2" d="M41,680 l27,0" /><path style="fill:none;stroke:#000;stroke-width:2" d="M41,82 l27,0" /><path style="fill:none;stroke:#000;stroke-width:2" d="M41,148 l27,0" /><path style="fill:none;stroke:#000;stroke-width:2" d="M41,216 l27,0" /><path style="fill:none;stroke:#000;stroke-width:2" d="M41,283 l27,0" /><path style="fill:none;stroke:#000;stroke-width:2" d="M41,350 l27,0" /><path style="fill:none;stroke:#000;stroke-width:2" d="M41,418 l27,0" /><path style="fill:none;stroke:#000;stroke-width:2" d="M41,485 l27,0" /><path style="fill:none;stroke:#000;stroke-width:2" d="M41,552 l27,0" /><path style="fill:none;stroke:#000;stroke-width:2" d="M41,620 l27,0" /><path style="fill:none;stroke:#000;stroke-width:2" d="M41,687 l27,0" /><path style="fill:none;stroke:#000;stroke-width:2" d="M41,88 l27,0" /><path style="fill:none;stroke:#000;stroke-width:2" d="M41,155 l27,0" /><path style="fill:none;stroke:#000;stroke-width:2" d="M41,222 l27,0" /><path style="fill:none;stroke:#000;stroke-width:2" d="M41,290 l27,0" /><path style="fill:none;stroke:#000;stroke-width:2" d="M41,357 l27,0" /><path style="fill:none;stroke:#000;stroke-width:2" d="M41,424 l27,0" /><path style="fill:none;stroke:#000;stroke-width:2" d="M41,492 l27,0" /><path style="fill:none;stroke:#000;stroke-width:2" d="M41,559 l27,0" /><path style="fill:none;stroke:#000;stroke-width:2" d="M41,626 l27,0" /><path style="fill:none;stroke:#000;stroke-width:2" d="M41,694 l27,0" /></svg>