<!DOCTYPE svg PUBLIC "-//W3C//DTD SVG 20000303 Stylable//EN" "http://www.w3.org/TR/2000/03/WD-SVG-20000303/DTD/svg-20000303-stylable.dtd"[]><svg xmlns="http://www.w3.org/2000/svg" width="94px" height="998px" viewBox="0 0 94 998"><path style="fill:none;stroke:#000;stroke-width:2" d="M28,509 l9,0" /><path style="fill:none;stroke:#000;stroke-width:2" d="M28,555 l9,0" /><path style="fill:none;stroke:#000;stroke-width:2" d="M28,602 l9,0" /><path style="fill:none;stroke:#000;stroke-width:2" d="M28,650 l9,0" /><path style="fill:none;stroke:#000;stroke-width:2" d="M28,697 l9,0" /><path style="fill:none;stroke:#000;stroke-width:2" d="M28,744 l9,0" /><path style="fill:none;stroke:#000;stroke-width:2" d="M28,791 l9,0" /><path style="fill:none;stroke:#000;stroke-width:2" d="M28,838 l9,0" /><path style="fill:none;stroke:#000;stroke-width:2" d="M28,885 l9,0" /><path style="fill:none;stroke:#000;stroke-width:2" d="M28,932 l9,0" /><path style="fill:none;stroke:#000;stroke-width:2" d="M28,518 l9,0" /><path style="fill:none;stroke:#000;stroke-width:2" d="M28,565 l9,0" /><path style="fill:none;stroke:#000;stroke-width:2" d="M28,612 l9,0" /><path style="fill:none;stroke:#000;stroke-width:2" d="M28,659 l9,0" /><path style="fill:none;stroke:#000;stroke-width:2" d="M28,706 l9,0" /><path style="fill:none;stroke:#000;stroke-width:2" d="M28,753 l9,0" /><path style="fill:none;stroke:#000;stroke-width:2" d="M28,800 l9,0" /><path style="fill:none;stroke:#000;stroke-width:2" d="M28,847 l9,0" /><path style="fill:none;stroke:#000;stroke-width:2" d="M28,894 l9,0" /><path style="fill:none;stroke:#000;stroke-width:2" d="M28,942 l9,0" /><path style="fill:none;stroke:#000;stroke-width:2" d="M28,527 l9,0" /><path style="fill:none;stroke:#000;stroke-width:2" d="M28,574 l9,0" /><path style="fill:none;stroke:#000;stroke-width:2" d="M28,621 l9,0" /><path style="fill:none;stroke:#000;stroke-width:2" d="M28,668 l9,0" /><path style="fill:none;stroke:#000;stroke-width:2" d="M28,715 l9,0" /><path style="fill:none;stroke:#000;stroke-width:2" d="M28,763 l9,0" /><path style="fill:none;stroke:#000;stroke-width:2" d="M28,810 l9,0" /><path style="fill:none;stroke:#000;stroke-width:2" d="M28,857 l9,0" /><path style="fill:none;stroke:#000;stroke-width:2" d="M28,904 l9,0" /><path style="fill:none;stroke:#000;stroke-width:2" d="M28,951 l9,0" /><path style="fill:none;stroke:#000;stroke-width:2" d="M28,537 l9,0" /><path style="fill:none;stroke:#000;stroke-width:2" d="M28,584 l9,0" /><path style="fill:none;stroke:#000;stroke-width:2" d="M28,631 l9,0" /><path style="fill:none;stroke:#000;stroke-width:2" d="M28,678 l9,0" /><path style="fill:none;stroke:#000;stroke-width:2" d="M28,725 l9,0" /><path style="fill:none;stroke:#000;stroke-width:2" d="M28,772 l9,0" /><path style="fill:none;stroke:#000;stroke-width:2" d="M28,819 l9,0" /><path style="fill:none;stroke:#000;stroke-width:2" d="M28,866 l9,0" /><path style="fill:none;stroke:#000;stroke-width:2" d="M28,913 l9,0" /><path style="fill:none;stroke:#000;stroke-width:2" d="M28,960 l9,0" /><path style="fill:none;stroke:#000;stroke-width:2" d="M28,546 l37,0" /><path style="fill:none;stroke:#000;stroke-width:2" d="M28,593 l37,0" /><path style="fill:none;stroke:#000;stroke-width:2" d="M28,640 l37,0" /><path style="fill:none;stroke:#000;stroke-width:2" d="M28,687 l37,0" /><path style="fill:none;stroke:#000;stroke-width:2" d="M28,734 l37,0" /><path style="fill:none;stroke:#000;stroke-width:2" d="M28,781 l37,0" /><path style="fill:none;stroke:#000;stroke-width:2" d="M28,829 l37,0" /><path style="fill:none;stroke:#000;stroke-width:2" d="M28,876 l37,0" /><path style="fill:none;stroke:#000;stroke-width:2" d="M28,923 l37,0" /><path style="fill:none;stroke:#000;stroke-width:2" d="M28,970 l37,0" /><path style="fill:none;stroke:#000;stroke-width:2" d="M28,504 l9,0" /><path style="fill:none;stroke:#000;stroke-width:2" d="M28,551 l9,0" /><path style="fill:none;stroke:#000;stroke-width:2" d="M28,598 l9,0" /><path style="fill:none;stroke:#000;stroke-width:2" d="M28,645 l9,0" /><path style="fill:none;stroke:#000;stroke-width:2" d="M28,692 l9,0" /><path style="fill:none;stroke:#000;stroke-width:2" d="M28,739 l9,0" /><path style="fill:none;stroke:#000;stroke-width:2" d="M28,786 l9,0" /><path style="fill:none;stroke:#000;stroke-width:2" d="M28,833 l9,0" /><path style="fill:none;stroke:#000;stroke-width:2" d="M28,880 l9,0" /><path style="fill:none;stroke:#000;stroke-width:2" d="M28,927 l9,0" /><path style="fill:none;stroke:#000;stroke-width:2" d="M28,513 l9,0" /><path style="fill:none;stroke:#000;stroke-width:2" d="M28,560 l9,0" /><path style="fill:none;stroke:#000;stroke-width:2" d="M28,607 l9,0" /><path style="fill:none;stroke:#000;stroke-width:2" d="M28,654 l9,0" /><path style="fill:none;stroke:#000;stroke-width:2" d="M28,701 l9,0" /><path style="fill:none;stroke:#000;stroke-width:2" d="M28,748 l9,0" /><path style="fill:none;stroke:#000;stroke-width:2" d="M28,796 l9,0" /><path style="fill:none;stroke:#000;stroke-width:2" d="M28,843 l9,0" /><path style="fill:none;stroke:#000;stroke-width:2" d="M28,890 l9,0" /><path style="fill:none;stroke:#000;stroke-width:2" d="M28,937 l9,0" /><path style="fill:none;stroke:#000;stroke-width:2" d="M28,523 l19,0" /><path style="fill:none;stroke:#000;stroke-width:2" d="M28,569 l19,0" /><path style="fill:none;stroke:#000;stroke-width:2" d="M28,617 l19,0" /><path style="fill:none;stroke:#000;stroke-width:2" d="M28,664 l19,0" /><path style="fill:none;stroke:#000;stroke-width:2" d="M28,711 l19,0" /><path style="fill:none;stroke:#000;stroke-width:2" d="M28,758 l19,0" /><path style="fill:none;stroke:#000;stroke-width:2" d="M28,805 l19,0" /><path style="fill:none;stroke:#000;stroke-width:2" d="M28,852 l19,0" /><path style="fill:none;stroke:#000;stroke-width:2" d="M28,899 l19,0" /><path style="fill:none;stroke:#000;stroke-width:2" d="M28,946 l19,0" /><path style="fill:none;stroke:#000;stroke-width:2" d="M37,532 l-9,0" /><path style="fill:none;stroke:#000;stroke-width:2" d="M37,579 l-9,0" /><path style="fill:none;stroke:#000;stroke-width:2" d="M37,626 l-9,0" /><path style="fill:none;stroke:#000;stroke-width:2" d="M37,673 l-9,0" /><path style="fill:none;stroke:#000;stroke-width:2" d="M37,720 l-9,0" /><path style="fill:none;stroke:#000;stroke-width:2" d="M37,767 l-9,0" /><path style="fill:none;stroke:#000;stroke-width:2" d="M37,814 l-9,0" /><path style="fill:none;stroke:#000;stroke-width:2" d="M37,862 l-9,0" /><path style="fill:none;stroke:#000;stroke-width:2" d="M37,909 l-9,0" /><path style="fill:none;stroke:#000;stroke-width:2" d="M37,956 l-9,0" /><path style="fill:none;stroke:#000;stroke-width:2" d="M28,542 l9,0" /><path style="fill:none;stroke:#000;stroke-width:2" d="M28,588 l9,0" /><path style="fill:none;stroke:#000;stroke-width:2" d="M28,635 l9,0" /><path style="fill:none;stroke:#000;stroke-width:2" d="M28,683 l9,0" /><path style="fill:none;stroke:#000;stroke-width:2" d="M28,730 l9,0" /><path style="fill:none;stroke:#000;stroke-width:2" d="M28,777 l9,0" /><path style="fill:none;stroke:#000;stroke-width:2" d="M28,824 l9,0" /><path style="fill:none;stroke:#000;stroke-width:2" d="M28,871 l9,0" /><path style="fill:none;stroke:#000;stroke-width:2" d="M28,918 l9,0" /><path style="fill:none;stroke:#000;stroke-width:2" d="M28,28 l37,0" /><path style="fill:none;stroke:#000;stroke-width:2" d="M28,499 l37,0" /><path style="fill:none;stroke:#000;stroke-width:2" d="M28,37 l9,0" /><path style="fill:none;stroke:#000;stroke-width:2" d="M28,84 l9,0" /><path style="fill:none;stroke:#000;stroke-width:2" d="M28,131 l9,0" /><path style="fill:none;stroke:#000;stroke-width:2" d="M28,178 l9,0" /><path style="fill:none;stroke:#000;stroke-width:2" d="M28,225 l9,0" /><path style="fill:none;stroke:#000;stroke-width:2" d="M28,272 l9,0" /><path style="fill:none;stroke:#000;stroke-width:2" d="M28,319 l9,0" /><path style="fill:none;stroke:#000;stroke-width:2" d="M28,367 l9,0" /><path style="fill:none;stroke:#000;stroke-width:2" d="M28,414 l9,0" /><path style="fill:none;stroke:#000;stroke-width:2" d="M28,461 l9,0" /><path style="fill:none;stroke:#000;stroke-width:2" d="M28,47 l9,0" /><path style="fill:none;stroke:#000;stroke-width:2" d="M28,93 l9,0" /><path style="fill:none;stroke:#000;stroke-width:2" d="M28,140 l9,0" /><path style="fill:none;stroke:#000;stroke-width:2" d="M28,188 l9,0" /><path style="fill:none;stroke:#000;stroke-width:2" d="M28,235 l9,0" /><path style="fill:none;stroke:#000;stroke-width:2" d="M28,282 l9,0" /><path style="fill:none;stroke:#000;stroke-width:2" d="M28,329 l9,0" /><path style="fill:none;stroke:#000;stroke-width:2" d="M28,376 l9,0" /><path style="fill:none;stroke:#000;stroke-width:2" d="M28,423 l9,0" /><path style="fill:none;stroke:#000;stroke-width:2" d="M28,470 l9,0" /><path style="fill:none;stroke:#000;stroke-width:2" d="M28,56 l9,0" /><path style="fill:none;stroke:#000;stroke-width:2" d="M28,103 l9,0" /><path style="fill:none;stroke:#000;stroke-width:2" d="M28,150 l9,0" /><path style="fill:none;stroke:#000;stroke-width:2" d="M28,197 l9,0" /><path style="fill:none;stroke:#000;stroke-width:2" d="M28,244 l9,0" /><path style="fill:none;stroke:#000;stroke-width:2" d="M28,291 l9,0" /><path style="fill:none;stroke:#000;stroke-width:2" d="M28,338 l9,0" /><path style="fill:none;stroke:#000;stroke-width:2" d="M28,385 l9,0" /><path style="fill:none;stroke:#000;stroke-width:2" d="M28,432 l9,0" /><path style="fill:none;stroke:#000;stroke-width:2" d="M28,480 l9,0" /><path style="fill:none;stroke:#000;stroke-width:2" d="M28,65 l9,0" /><path style="fill:none;stroke:#000;stroke-width:2" d="M28,112 l9,0" /><path style="fill:none;stroke:#000;stroke-width:2" d="M28,159 l9,0" /><path style="fill:none;stroke:#000;stroke-width:2" d="M28,206 l9,0" /><path style="fill:none;stroke:#000;stroke-width:2" d="M28,253 l9,0" /><path style="fill:none;stroke:#000;stroke-width:2" d="M28,301 l9,0" /><path style="fill:none;stroke:#000;stroke-width:2" d="M28,348 l9,0" /><path style="fill:none;stroke:#000;stroke-width:2" d="M28,395 l9,0" /><path style="fill:none;stroke:#000;stroke-width:2" d="M28,442 l9,0" /><path style="fill:none;stroke:#000;stroke-width:2" d="M28,489 l9,0" /><path style="fill:none;stroke:#000;stroke-width:2" d="M28,75 l37,0" /><path style="fill:none;stroke:#000;stroke-width:2" d="M28,122 l37,0" /><path style="fill:none;stroke:#000;stroke-width:2" d="M28,169 l37,0" /><path style="fill:none;stroke:#000;stroke-width:2" d="M28,216 l37,0" /><path style="fill:none;stroke:#000;stroke-width:2" d="M28,263 l37,0" /><path style="fill:none;stroke:#000;stroke-width:2" d="M28,310 l37,0" /><path style="fill:none;stroke:#000;stroke-width:2" d="M28,357 l37,0" /><path style="fill:none;stroke:#000;stroke-width:2" d="M28,404 l37,0" /><path style="fill:none;stroke:#000;stroke-width:2" d="M28,451 l37,0" /><path style="fill:none;stroke:#000;stroke-width:2" d="M28,32 l9,0" /><path style="fill:none;stroke:#000;stroke-width:2" d="M28,79 l9,0" /><path style="fill:none;stroke:#000;stroke-width:2" d="M28,126 l9,0" /><path style="fill:none;stroke:#000;stroke-width:2" d="M28,173 l9,0" /><path style="fill:none;stroke:#000;stroke-width:2" d="M28,221 l9,0" /><path style="fill:none;stroke:#000;stroke-width:2" d="M28,268 l9,0" /><path style="fill:none;stroke:#000;stroke-width:2" d="M28,315 l9,0" /><path style="fill:none;stroke:#000;stroke-width:2" d="M28,362 l9,0" /><path style="fill:none;stroke:#000;stroke-width:2" d="M28,409 l9,0" /><path style="fill:none;stroke:#000;stroke-width:2" d="M28,456 l9,0" /><path style="fill:none;stroke:#000;stroke-width:2" d="M28,42 l9,0" /><path style="fill:none;stroke:#000;stroke-width:2" d="M28,89 l9,0" /><path style="fill:none;stroke:#000;stroke-width:2" d="M28,136 l9,0" /><path style="fill:none;stroke:#000;stroke-width:2" d="M28,183 l9,0" /><path style="fill:none;stroke:#000;stroke-width:2" d="M28,230 l9,0" /><path style="fill:none;stroke:#000;stroke-width:2" d="M28,277 l9,0" /><path style="fill:none;stroke:#000;stroke-width:2" d="M28,324 l9,0" /><path style="fill:none;stroke:#000;stroke-width:2" d="M28,371 l9,0" /><path style="fill:none;stroke:#000;stroke-width:2" d="M28,418 l9,0" /><path style="fill:none;stroke:#000;stroke-width:2" d="M28,465 l9,0" /><path style="fill:none;stroke:#000;stroke-width:2" d="M28,51 l19,0" /><path style="fill:none;stroke:#000;stroke-width:2" d="M28,98 l19,0" /><path style="fill:none;stroke:#000;stroke-width:2" d="M28,145 l19,0" /><path style="fill:none;stroke:#000;stroke-width:2" d="M28,192 l19,0" /><path style="fill:none;stroke:#000;stroke-width:2" d="M28,239 l19,0" /><path style="fill:none;stroke:#000;stroke-width:2" d="M28,286 l19,0" /><path style="fill:none;stroke:#000;stroke-width:2" d="M28,334 l19,0" /><path style="fill:none;stroke:#000;stroke-width:2" d="M28,381 l19,0" /><path style="fill:none;stroke:#000;stroke-width:2" d="M28,428 l19,0" /><path style="fill:none;stroke:#000;stroke-width:2" d="M28,475 l19,0" /><path style="fill:none;stroke:#000;stroke-width:2" d="M37,61 l-9,0" /><path style="fill:none;stroke:#000;stroke-width:2" d="M37,107 l-9,0" /><path style="fill:none;stroke:#000;stroke-width:2" d="M37,155 l-9,0" /><path style="fill:none;stroke:#000;stroke-width:2" d="M37,202 l-9,0" /><path style="fill:none;stroke:#000;stroke-width:2" d="M37,249 l-9,0" /><path style="fill:none;stroke:#000;stroke-width:2" d="M37,296 l-9,0" /><path style="fill:none;stroke:#000;stroke-width:2" d="M37,343 l-9,0" /><path style="fill:none;stroke:#000;stroke-width:2" d="M37,390 l-9,0" /><path style="fill:none;stroke:#000;stroke-width:2" d="M37,437 l-9,0" /><path style="fill:none;stroke:#000;stroke-width:2" d="M37,484 l-9,0" /><path style="fill:none;stroke:#000;stroke-width:2" d="M28,70 l9,0" /><path style="fill:none;stroke:#000;stroke-width:2" d="M28,117 l9,0" /><path style="fill:none;stroke:#000;stroke-width:2" d="M28,164 l9,0" /><path style="fill:none;stroke:#000;stroke-width:2" d="M28,211 l9,0" /><path style="fill:none;stroke:#000;stroke-width:2" d="M28,258 l9,0" /><path style="fill:none;stroke:#000;stroke-width:2" d="M28,305 l9,0" /><path style="fill:none;stroke:#000;stroke-width:2" d="M28,352 l9,0" /><path style="fill:none;stroke:#000;stroke-width:2" d="M28,400 l9,0" /><path style="fill:none;stroke:#000;stroke-width:2" d="M28,447 l9,0" /><path style="fill:none;stroke:#000;stroke-width:2" d="M28,494 l9,0" /><path style="fill:none;stroke:#000;stroke-width:2" d="M28,965 l9,0" /></svg>