<!DOCTYPE svg PUBLIC "-//W3C//DTD SVG 20000303 Stylable//EN" "http://www.w3.org/TR/2000/03/WD-SVG-20000303/DTD/svg-20000303-stylable.dtd"[]><svg xmlns="http://www.w3.org/2000/svg" width="93px" height="999px" viewBox="0 0 93 999"><path style="fill:none;stroke:#000;stroke-width:2" d="M28,546 l37,0" /><path style="fill:none;stroke:#000;stroke-width:2" d="M28,594 l37,0" /><path style="fill:none;stroke:#000;stroke-width:2" d="M28,641 l37,0" /><path style="fill:none;stroke:#000;stroke-width:2" d="M28,688 l37,0" /><path style="fill:none;stroke:#000;stroke-width:2" d="M28,735 l37,0" /><path style="fill:none;stroke:#000;stroke-width:2" d="M28,782 l37,0" /><path style="fill:none;stroke:#000;stroke-width:2" d="M28,829 l37,0" /><path style="fill:none;stroke:#000;stroke-width:2" d="M28,876 l37,0" /><path style="fill:none;stroke:#000;stroke-width:2" d="M28,924 l37,0" /><path style="fill:none;stroke:#000;stroke-width:2" d="M37,504 l19,0" /><path style="fill:none;stroke:#000;stroke-width:2" d="M37,551 l19,0" /><path style="fill:none;stroke:#000;stroke-width:2" d="M37,598 l19,0" /><path style="fill:none;stroke:#000;stroke-width:2" d="M37,645 l19,0" /><path style="fill:none;stroke:#000;stroke-width:2" d="M37,693 l19,0" /><path style="fill:none;stroke:#000;stroke-width:2" d="M37,740 l19,0" /><path style="fill:none;stroke:#000;stroke-width:2" d="M37,787 l19,0" /><path style="fill:none;stroke:#000;stroke-width:2" d="M37,834 l19,0" /><path style="fill:none;stroke:#000;stroke-width:2" d="M37,881 l19,0" /><path style="fill:none;stroke:#000;stroke-width:2" d="M37,928 l19,0" /><path style="fill:none;stroke:#000;stroke-width:2" d="M37,509 l19,0" /><path style="fill:none;stroke:#000;stroke-width:2" d="M37,556 l19,0" /><path style="fill:none;stroke:#000;stroke-width:2" d="M37,603 l19,0" /><path style="fill:none;stroke:#000;stroke-width:2" d="M37,650 l19,0" /><path style="fill:none;stroke:#000;stroke-width:2" d="M37,697 l19,0" /><path style="fill:none;stroke:#000;stroke-width:2" d="M37,744 l19,0" /><path style="fill:none;stroke:#000;stroke-width:2" d="M37,792 l19,0" /><path style="fill:none;stroke:#000;stroke-width:2" d="M37,839 l19,0" /><path style="fill:none;stroke:#000;stroke-width:2" d="M37,886 l19,0" /><path style="fill:none;stroke:#000;stroke-width:2" d="M37,933 l19,0" /><path style="fill:none;stroke:#000;stroke-width:2" d="M37,514 l19,0" /><path style="fill:none;stroke:#000;stroke-width:2" d="M37,560 l19,0" /><path style="fill:none;stroke:#000;stroke-width:2" d="M37,608 l19,0" /><path style="fill:none;stroke:#000;stroke-width:2" d="M37,655 l19,0" /><path style="fill:none;stroke:#000;stroke-width:2" d="M37,702 l19,0" /><path style="fill:none;stroke:#000;stroke-width:2" d="M37,749 l19,0" /><path style="fill:none;stroke:#000;stroke-width:2" d="M37,796 l19,0" /><path style="fill:none;stroke:#000;stroke-width:2" d="M37,843 l19,0" /><path style="fill:none;stroke:#000;stroke-width:2" d="M37,891 l19,0" /><path style="fill:none;stroke:#000;stroke-width:2" d="M37,938 l19,0" /><path style="fill:none;stroke:#000;stroke-width:2" d="M37,518 l19,0" /><path style="fill:none;stroke:#000;stroke-width:2" d="M37,565 l19,0" /><path style="fill:none;stroke:#000;stroke-width:2" d="M37,612 l19,0" /><path style="fill:none;stroke:#000;stroke-width:2" d="M37,660 l19,0" /><path style="fill:none;stroke:#000;stroke-width:2" d="M37,707 l19,0" /><path style="fill:none;stroke:#000;stroke-width:2" d="M37,754 l19,0" /><path style="fill:none;stroke:#000;stroke-width:2" d="M37,801 l19,0" /><path style="fill:none;stroke:#000;stroke-width:2" d="M37,848 l19,0" /><path style="fill:none;stroke:#000;stroke-width:2" d="M37,895 l19,0" /><path style="fill:none;stroke:#000;stroke-width:2" d="M37,942 l19,0" /><path style="fill:none;stroke:#000;stroke-width:2" d="M37,523 l19,0" /><path style="fill:none;stroke:#000;stroke-width:2" d="M37,570 l19,0" /><path style="fill:none;stroke:#000;stroke-width:2" d="M37,617 l19,0" /><path style="fill:none;stroke:#000;stroke-width:2" d="M37,664 l19,0" /><path style="fill:none;stroke:#000;stroke-width:2" d="M37,711 l19,0" /><path style="fill:none;stroke:#000;stroke-width:2" d="M37,759 l19,0" /><path style="fill:none;stroke:#000;stroke-width:2" d="M37,806 l19,0" /><path style="fill:none;stroke:#000;stroke-width:2" d="M37,853 l19,0" /><path style="fill:none;stroke:#000;stroke-width:2" d="M37,900 l19,0" /><path style="fill:none;stroke:#000;stroke-width:2" d="M37,947 l19,0" /><path style="fill:none;stroke:#000;stroke-width:2" d="M37,528 l19,0" /><path style="fill:none;stroke:#000;stroke-width:2" d="M37,575 l19,0" /><path style="fill:none;stroke:#000;stroke-width:2" d="M37,622 l19,0" /><path style="fill:none;stroke:#000;stroke-width:2" d="M37,669 l19,0" /><path style="fill:none;stroke:#000;stroke-width:2" d="M37,716 l19,0" /><path style="fill:none;stroke:#000;stroke-width:2" d="M37,763 l19,0" /><path style="fill:none;stroke:#000;stroke-width:2" d="M37,810 l19,0" /><path style="fill:none;stroke:#000;stroke-width:2" d="M37,858 l19,0" /><path style="fill:none;stroke:#000;stroke-width:2" d="M37,905 l19,0" /><path style="fill:none;stroke:#000;stroke-width:2" d="M37,952 l19,0" /><path style="fill:none;stroke:#000;stroke-width:2" d="M37,533 l19,0" /><path style="fill:none;stroke:#000;stroke-width:2" d="M37,579 l19,0" /><path style="fill:none;stroke:#000;stroke-width:2" d="M37,627 l19,0" /><path style="fill:none;stroke:#000;stroke-width:2" d="M37,674 l19,0" /><path style="fill:none;stroke:#000;stroke-width:2" d="M37,721 l19,0" /><path style="fill:none;stroke:#000;stroke-width:2" d="M37,768 l19,0" /><path style="fill:none;stroke:#000;stroke-width:2" d="M37,815 l19,0" /><path style="fill:none;stroke:#000;stroke-width:2" d="M37,862 l19,0" /><path style="fill:none;stroke:#000;stroke-width:2" d="M37,909 l19,0" /><path style="fill:none;stroke:#000;stroke-width:2" d="M37,957 l19,0" /><path style="fill:none;stroke:#000;stroke-width:2" d="M37,537 l19,0" /><path style="fill:none;stroke:#000;stroke-width:2" d="M37,584 l19,0" /><path style="fill:none;stroke:#000;stroke-width:2" d="M37,631 l19,0" /><path style="fill:none;stroke:#000;stroke-width:2" d="M37,678 l19,0" /><path style="fill:none;stroke:#000;stroke-width:2" d="M37,726 l19,0" /><path style="fill:none;stroke:#000;stroke-width:2" d="M37,773 l19,0" /><path style="fill:none;stroke:#000;stroke-width:2" d="M37,820 l19,0" /><path style="fill:none;stroke:#000;stroke-width:2" d="M37,867 l19,0" /><path style="fill:none;stroke:#000;stroke-width:2" d="M37,914 l19,0" /><path style="fill:none;stroke:#000;stroke-width:2" d="M37,961 l19,0" /><path style="fill:none;stroke:#000;stroke-width:2" d="M37,542 l19,0" /><path style="fill:none;stroke:#000;stroke-width:2" d="M37,589 l19,0" /><path style="fill:none;stroke:#000;stroke-width:2" d="M37,636 l19,0" /><path style="fill:none;stroke:#000;stroke-width:2" d="M37,683 l19,0" /><path style="fill:none;stroke:#000;stroke-width:2" d="M37,730 l19,0" /><path style="fill:none;stroke:#000;stroke-width:2" d="M37,777 l19,0" /><path style="fill:none;stroke:#000;stroke-width:2" d="M37,825 l19,0" /><path style="fill:none;stroke:#000;stroke-width:2" d="M37,872 l19,0" /><path style="fill:none;stroke:#000;stroke-width:2" d="M37,919 l19,0" /><path style="fill:none;stroke:#000;stroke-width:2" d="M28,28 l37,0" /><path style="fill:none;stroke:#000;stroke-width:2" d="M28,500 l37,0" /><path style="fill:none;stroke:#000;stroke-width:2" d="M28,74 l37,0" /><path style="fill:none;stroke:#000;stroke-width:2" d="M28,122 l37,0" /><path style="fill:none;stroke:#000;stroke-width:2" d="M28,169 l37,0" /><path style="fill:none;stroke:#000;stroke-width:2" d="M28,216 l37,0" /><path style="fill:none;stroke:#000;stroke-width:2" d="M28,263 l37,0" /><path style="fill:none;stroke:#000;stroke-width:2" d="M28,310 l37,0" /><path style="fill:none;stroke:#000;stroke-width:2" d="M28,357 l37,0" /><path style="fill:none;stroke:#000;stroke-width:2" d="M28,404 l37,0" /><path style="fill:none;stroke:#000;stroke-width:2" d="M28,452 l37,0" /><path style="fill:none;stroke:#000;stroke-width:2" d="M37,32 l19,0" /><path style="fill:none;stroke:#000;stroke-width:2" d="M37,79 l19,0" /><path style="fill:none;stroke:#000;stroke-width:2" d="M37,126 l19,0" /><path style="fill:none;stroke:#000;stroke-width:2" d="M37,173 l19,0" /><path style="fill:none;stroke:#000;stroke-width:2" d="M37,221 l19,0" /><path style="fill:none;stroke:#000;stroke-width:2" d="M37,268 l19,0" /><path style="fill:none;stroke:#000;stroke-width:2" d="M37,315 l19,0" /><path style="fill:none;stroke:#000;stroke-width:2" d="M37,362 l19,0" /><path style="fill:none;stroke:#000;stroke-width:2" d="M37,409 l19,0" /><path style="fill:none;stroke:#000;stroke-width:2" d="M37,456 l19,0" /><path style="fill:none;stroke:#000;stroke-width:2" d="M37,37 l19,0" /><path style="fill:none;stroke:#000;stroke-width:2" d="M37,84 l19,0" /><path style="fill:none;stroke:#000;stroke-width:2" d="M37,131 l19,0" /><path style="fill:none;stroke:#000;stroke-width:2" d="M37,178 l19,0" /><path style="fill:none;stroke:#000;stroke-width:2" d="M37,225 l19,0" /><path style="fill:none;stroke:#000;stroke-width:2" d="M37,272 l19,0" /><path style="fill:none;stroke:#000;stroke-width:2" d="M37,320 l19,0" /><path style="fill:none;stroke:#000;stroke-width:2" d="M37,367 l19,0" /><path style="fill:none;stroke:#000;stroke-width:2" d="M37,414 l19,0" /><path style="fill:none;stroke:#000;stroke-width:2" d="M37,461 l19,0" /><path style="fill:none;stroke:#000;stroke-width:2" d="M37,42 l19,0" /><path style="fill:none;stroke:#000;stroke-width:2" d="M37,89 l19,0" /><path style="fill:none;stroke:#000;stroke-width:2" d="M37,136 l19,0" /><path style="fill:none;stroke:#000;stroke-width:2" d="M37,183 l19,0" /><path style="fill:none;stroke:#000;stroke-width:2" d="M37,230 l19,0" /><path style="fill:none;stroke:#000;stroke-width:2" d="M37,277 l19,0" /><path style="fill:none;stroke:#000;stroke-width:2" d="M37,324 l19,0" /><path style="fill:none;stroke:#000;stroke-width:2" d="M37,371 l19,0" /><path style="fill:none;stroke:#000;stroke-width:2" d="M37,419 l19,0" /><path style="fill:none;stroke:#000;stroke-width:2" d="M37,466 l19,0" /><path style="fill:none;stroke:#000;stroke-width:2" d="M37,46 l19,0" /><path style="fill:none;stroke:#000;stroke-width:2" d="M37,93 l19,0" /><path style="fill:none;stroke:#000;stroke-width:2" d="M37,140 l19,0" /><path style="fill:none;stroke:#000;stroke-width:2" d="M37,188 l19,0" /><path style="fill:none;stroke:#000;stroke-width:2" d="M37,235 l19,0" /><path style="fill:none;stroke:#000;stroke-width:2" d="M37,282 l19,0" /><path style="fill:none;stroke:#000;stroke-width:2" d="M37,329 l19,0" /><path style="fill:none;stroke:#000;stroke-width:2" d="M37,376 l19,0" /><path style="fill:none;stroke:#000;stroke-width:2" d="M37,423 l19,0" /><path style="fill:none;stroke:#000;stroke-width:2" d="M37,471 l19,0" /><path style="fill:none;stroke:#000;stroke-width:2" d="M37,51 l19,0" /><path style="fill:none;stroke:#000;stroke-width:2" d="M37,98 l19,0" /><path style="fill:none;stroke:#000;stroke-width:2" d="M37,145 l19,0" /><path style="fill:none;stroke:#000;stroke-width:2" d="M37,192 l19,0" /><path style="fill:none;stroke:#000;stroke-width:2" d="M37,239 l19,0" /><path style="fill:none;stroke:#000;stroke-width:2" d="M37,287 l19,0" /><path style="fill:none;stroke:#000;stroke-width:2" d="M37,334 l19,0" /><path style="fill:none;stroke:#000;stroke-width:2" d="M37,381 l19,0" /><path style="fill:none;stroke:#000;stroke-width:2" d="M37,428 l19,0" /><path style="fill:none;stroke:#000;stroke-width:2" d="M37,475 l19,0" /><path style="fill:none;stroke:#000;stroke-width:2" d="M37,56 l19,0" /><path style="fill:none;stroke:#000;stroke-width:2" d="M37,103 l19,0" /><path style="fill:none;stroke:#000;stroke-width:2" d="M37,150 l19,0" /><path style="fill:none;stroke:#000;stroke-width:2" d="M37,197 l19,0" /><path style="fill:none;stroke:#000;stroke-width:2" d="M37,244 l19,0" /><path style="fill:none;stroke:#000;stroke-width:2" d="M37,291 l19,0" /><path style="fill:none;stroke:#000;stroke-width:2" d="M37,338 l19,0" /><path style="fill:none;stroke:#000;stroke-width:2" d="M37,386 l19,0" /><path style="fill:none;stroke:#000;stroke-width:2" d="M37,433 l19,0" /><path style="fill:none;stroke:#000;stroke-width:2" d="M37,480 l19,0" /><path style="fill:none;stroke:#000;stroke-width:2" d="M37,61 l19,0" /><path style="fill:none;stroke:#000;stroke-width:2" d="M37,107 l19,0" /><path style="fill:none;stroke:#000;stroke-width:2" d="M37,155 l19,0" /><path style="fill:none;stroke:#000;stroke-width:2" d="M37,202 l19,0" /><path style="fill:none;stroke:#000;stroke-width:2" d="M37,249 l19,0" /><path style="fill:none;stroke:#000;stroke-width:2" d="M37,296 l19,0" /><path style="fill:none;stroke:#000;stroke-width:2" d="M37,343 l19,0" /><path style="fill:none;stroke:#000;stroke-width:2" d="M37,390 l19,0" /><path style="fill:none;stroke:#000;stroke-width:2" d="M37,438 l19,0" /><path style="fill:none;stroke:#000;stroke-width:2" d="M37,485 l19,0" /><path style="fill:none;stroke:#000;stroke-width:2" d="M37,65 l19,0" /><path style="fill:none;stroke:#000;stroke-width:2" d="M37,112 l19,0" /><path style="fill:none;stroke:#000;stroke-width:2" d="M37,159 l19,0" /><path style="fill:none;stroke:#000;stroke-width:2" d="M37,206 l19,0" /><path style="fill:none;stroke:#000;stroke-width:2" d="M37,254 l19,0" /><path style="fill:none;stroke:#000;stroke-width:2" d="M37,301 l19,0" /><path style="fill:none;stroke:#000;stroke-width:2" d="M37,348 l19,0" /><path style="fill:none;stroke:#000;stroke-width:2" d="M37,395 l19,0" /><path style="fill:none;stroke:#000;stroke-width:2" d="M37,442 l19,0" /><path style="fill:none;stroke:#000;stroke-width:2" d="M37,489 l19,0" /><path style="fill:none;stroke:#000;stroke-width:2" d="M37,70 l19,0" /><path style="fill:none;stroke:#000;stroke-width:2" d="M37,117 l19,0" /><path style="fill:none;stroke:#000;stroke-width:2" d="M37,164 l19,0" /><path style="fill:none;stroke:#000;stroke-width:2" d="M37,211 l19,0" /><path style="fill:none;stroke:#000;stroke-width:2" d="M37,258 l19,0" /><path style="fill:none;stroke:#000;stroke-width:2" d="M37,305 l19,0" /><path style="fill:none;stroke:#000;stroke-width:2" d="M37,353 l19,0" /><path style="fill:none;stroke:#000;stroke-width:2" d="M37,400 l19,0" /><path style="fill:none;stroke:#000;stroke-width:2" d="M37,447 l19,0" /><path style="fill:none;stroke:#000;stroke-width:2" d="M37,494 l19,0" /><path style="fill:none;stroke:#000;stroke-width:2" d="M37,966 l19,0" /><path style="fill:none;stroke:#000;stroke-width:2" d="M28,970 l37,0" /></svg>