<!DOCTYPE svg PUBLIC "-//W3C//DTD SVG 1.1//EN" "http://www.w3.org/Graphics/SVG/1.1/DTD/svg11.dtd"[]><svg version="1.1" xmlns="http://www.w3.org/2000/svg" xmlns:xlink="http://www.w3.org/1999/xlink" width="37px" height="112px" viewBox="0 0 37.498 112.5" enable-background="new 0 0 37.498 112.5" xml:space="preserve">
<g id="Group_bottle_body">
	
		<linearGradient id="body_1_" gradientUnits="userSpaceOnUse" x1="0" y1="736.8184" x2="37.498" y2="736.8184" gradientTransform="matrix(1 0 0 1 0 -679.5)">
		<stop offset="0" style="stop-color:#C3922E" />
		<stop offset="0.49" style="stop-color:#FFFBCC" />
		<stop offset="1" style="stop-color:#C3922E" />
	</linearGradient>
	<path id="body" fill="url(#body_1_)" stroke="#4C4C4C" stroke-width="0.25" d="M35.246,65.652l0.899-2.928l1.353-3.38v-5.63   l-1.353-3.378l-3.377-2.478l-2.252-19.818l-3.604-21.17l1.126-2.928l-0.227-1.802H9.571l0.451,3.491l0.563,1.239l-3.49,21.17   l-2.478,19.82l-3.04,2.478L0.45,51.915L0,53.716v5.63l0.45,1.803l1.127,1.576l0.788,2.928v32.656l-1.915,4.277L0,106.078   l1.577,3.716l2.814,2.14l1.914,0.563h24.887l3.603-1.463l2.253-3.041l0.45-3.604l-1.353-3.378l-0.899-2.702V65.652z" />
</g>
<g id="Group_beer_cap">
	
		<radialGradient id="cap_1_" cx="18.6929" cy="681.248" r="7.1934" gradientTransform="matrix(1 0 0 1 0 -679.5)" gradientUnits="userSpaceOnUse">
		<stop offset="0" style="stop-color:#465053" />
		<stop offset="0.01" style="stop-color:#465053" />
		<stop offset="0.52" style="stop-color:#E0E0E0" />
		<stop offset="1" style="stop-color:#465053" />
	</radialGradient>
	<path id="cap" fill="url(#cap_1_)" d="M8.671,3.494l1.126-3.491h17.792l1.126,3.491H8.671z" />
</g>
<g id="Group_Beer_Bottom_Label">
	
		<linearGradient id="Beer_x5F_Bottom_x5F_Label_2_" gradientUnits="userSpaceOnUse" x1="2.3652" y1="759.791" x2="35.2461" y2="759.791" gradientTransform="matrix(1 0 0 1 0 -679.5)">
		<stop offset="0" style="stop-color:#A23642" />
		<stop offset="0.5" style="stop-color:#E8B091" />
		<stop offset="1" style="stop-color:#A81330" />
	</linearGradient>
	<path id="Beer_x5F_Bottom_x5F_Label" fill="url(#Beer_x5F_Bottom_x5F_Label_2_)" d="M2.365,65.652h32.881V94.93H2.365V65.652z" />
</g>
<g id="Group_beer_top_label">
	
		<linearGradient id="Beer_x5F_Top_x5F_Label_1_" gradientUnits="userSpaceOnUse" x1="6.3052" y1="702.418" x2="31.416" y2="702.418" gradientTransform="matrix(1 0 0 1 0 -679.5)">
		<stop offset="0" style="stop-color:#401617" />
		<stop offset="0.01" style="stop-color:#401617" />
		<stop offset="0.5" style="stop-color:#E5D4B5" />
		<stop offset="1" style="stop-color:#401617" />
	</linearGradient>
	<path id="Beer_x5F_Top_x5F_Label" fill="url(#Beer_x5F_Top_x5F_Label_1_)" d="M10.022,11.039h17.566l2.929,17.003l0.899,6.756   H6.305l0.789-6.756L10.022,11.039z" />
</g>
</svg>