<svg version="1.1" xmlns="http://www.w3.org/2000/svg" xmlns:xlink="http://www.w3.org/1999/xlink" width="112px" height="49px" viewBox="0 0 112.5 48.988" enable-background="new 0 0 112.5 48.988" xml:space="preserve">
<g id="Group_Inlet">
	<linearGradient id="SVGID_1_" gradientUnits="userSpaceOnUse" x1="108.5586" y1="27.8167" x2="108.5586" y2="22.4119">
		<stop offset="0.01" style="stop-color:#595959" />
		<stop offset="0.5" style="stop-color:#E0E0E0" />
		<stop offset="1" style="stop-color:#595959" />
	</linearGradient>
	<path fill="url(#SVGID_1_)" d="M104.617,22.411h7.883v5.405h-7.883V22.411" />
</g>
<g id="Group_Milling_Machine">
	<linearGradient id="SVGID_2_" gradientUnits="userSpaceOnUse" x1="52.9282" y1="44.9338" x2="52.9282" y2="5.2947">
		<stop offset="0.01" style="stop-color:#595959" />
		<stop offset="0.5" style="stop-color:#E0E0E0" />
		<stop offset="1" style="stop-color:#595959" />
	</linearGradient>
	<path fill="url(#SVGID_2_)" d="M63.4,10.474h10.812V9.123h7.883v1.351H92.68V9.123h7.883v1.351h2.027l0.901,0.901l1.576,4.729   l0.676,3.379l0.112,3.604v3.828l-0.112,3.829l-0.676,3.153l-1.576,4.729l-0.901,1.126h-2.027v1.126H92.68v-1.126H82.095v1.126   h-7.883v-1.126H63.4v5.181H4.392l-1.352-1.352l-1.014-2.478l-1.013-3.829l-0.563-4.504L0,27.591v-5.18l0.451-4.955l0.563-4.505   l1.013-3.828l1.014-2.478l1.352-1.352H63.4V10.474" />
</g>
<g id="Group_Colloid_Part">
	<path fill="none" stroke="#4C4C4C" stroke-width="0.25" d="M63.4,39.753V10.474" />
	<path fill="none" stroke="#7F7F7F" stroke-width="0.25" d="M74.212,39.753V10.474" />
	<path fill="none" stroke="#7F7F7F" stroke-width="0.25" d="M100.563,39.753V10.474" />
	<path fill="#4C4C4C" d="M66.104,10.474h4.055v29.279h-4.055V10.474z" />
	<linearGradient id="SVGID_3_" gradientUnits="userSpaceOnUse" x1="66.7793" y1="42.9065" x2="66.7793" y2="8.448">
		<stop offset="0.01" style="stop-color:#404040" />
		<stop offset="0.5" style="stop-color:#C7C7C7" />
		<stop offset="1" style="stop-color:#404040" />
	</linearGradient>
	<path fill="url(#SVGID_3_)" stroke="#4C4C4C" stroke-width="0.25" d="M64.752,8.448h4.055v34.459h-4.055V8.448" />
</g>
<g id="Group_Tuner">
	<path fill="#333333" d="M72.86,23.763v-1.352l-0.676-0.676v-1.577l0.676-0.675v-1.352l-0.676-0.676v-1.352l0.676-0.676v-1.352   l-0.676-0.676v-1.351l0.676-0.901V9.798l-0.676-0.675h-2.702v3.828l-0.676,0.901v6.531l0.676,0.226v3.828h2.702L72.86,23.763z" />
</g>
<g id="Group_Tuner_Part">
	<path fill="#E5E5E5" stroke="#4C4C4C" stroke-width="0.25" d="M72.86,14.077h-2.702v-0.676h2.026L72.86,14.077z" />
	<path fill="#E5E5E5" stroke="#4C4C4C" stroke-width="0.25" d="M72.86,9.798h-2.702V9.123h2.026L72.86,9.798z" />
	<path fill="#E5E5E5" stroke="#4C4C4C" stroke-width="0.25" d="M72.86,18.132h-2.702v-0.676h2.026L72.86,18.132z" />
	<path fill="#E5E5E5" stroke="#4C4C4C" stroke-width="0.25" d="M72.86,22.411h-2.702v-0.676h2.026L72.86,22.411z" />
</g>
<g id="Group_Base_Support">
	<path fill="#999999" stroke="#4C4C4C" stroke-width="0.25" d="M8.446,44.934H63.4v4.054H8.446V44.934z" />
</g>
<g id="Group_Base_Pillar">
	<path fill="#666666" d="M17.905,44.934h12.388v4.054H17.905V44.934z" />
	<path fill="#666666" d="M41.554,44.934h12.612v4.054H41.554V44.934z" />
</g>
<g id="Group_Level_Monitor">
	<path fill="#CCCCCC" stroke="#4C4C4C" stroke-width="0.25" d="M42.229,0.001h2.027v5.293h-2.027V0.001z" />
</g>
<g id="Group_Indicators">
	<path fill="none" stroke="#7F7F7F" stroke-width="0.25" d="M82.095,39.753V10.474" />
	<path fill="none" stroke="#7F7F7F" stroke-width="0.25" d="M92.455,39.753V10.474" />
	<path fill="#CCCCCC" d="M74.887,27.141h6.532v5.855h-6.532V27.141z" />
	<path fill="#333333" d="M74.887,28.943h6.532v2.027h-6.532V28.943z" />
	<path fill="none" stroke="#4C4C4C" stroke-width="0.25" d="M74.887,27.141h6.532v5.855h-6.532V27.141" />
	<path fill="#CCCCCC" d="M93.355,27.141h6.531v5.855h-6.531V27.141z" />
	<path fill="#333333" d="M93.355,28.943h6.531v2.027h-6.531V28.943z" />
	<path fill="none" stroke="#4C4C4C" stroke-width="0.25" d="M93.355,27.141h6.531v5.855h-6.531V27.141" />
	<path fill="#CCCCCC" stroke="#4C4C4C" stroke-width="0.25" d="M76.689,27.141h2.703v-1.352h-2.703V27.141z" />
	<path fill="#CCCCCC" stroke="#4C4C4C" stroke-width="0.25" d="M95.383,27.141h2.478v-1.352h-2.478V27.141z" />
</g>
</svg>