<svg version="1.1" xmlns="http://www.w3.org/2000/svg" xmlns:xlink="http://www.w3.org/1999/xlink" width="112px" height="65px" viewBox="0 0 112.5 64.527" enable-background="new 0 0 112.5 64.527" xml:space="preserve">
<g id="Group_Filling_Stores">
	<path fill="#F2F2F2" stroke="#CCCCCC" stroke-width="0.25" d="M22.185,19.932h49.774v24.099H22.185V19.932z" />
	<path fill="#F2F2F2" stroke="#CCCCCC" stroke-width="0.25" d="M112.5,19.932H73.086v24.099H112.5V19.932z" />
	<linearGradient id="SVGID_1_" gradientUnits="userSpaceOnUse" x1="54.3921" y1="31.9814" x2="69.0313" y2="31.9814">
		<stop offset="0.01" style="stop-color:#B2B2B2" />
		<stop offset="0.5" style="stop-color:#EBEBEB" />
		<stop offset="1" style="stop-color:#B2B2B2" />
	</linearGradient>
	<path fill="url(#SVGID_1_)" d="M54.392,19.932h14.639v24.099H54.392V19.932z" />
	<path fill="#B2B2B2" d="M57.32,41.103h8.783v2.928H57.32V41.103z" />
	<path fill="#B2B2B2" d="M57.32,26.914h8.783v11.712H57.32V26.914z" />
	<path fill="#B2B2B2" d="M57.32,19.932h8.783v5.18H57.32V19.932z" />
	<path fill="#B2B2B2" d="M67.905,32.319h2.928v11.711h-2.928V32.319z" />
	<linearGradient id="SVGID_2_" gradientUnits="userSpaceOnUse" x1="39.7524" y1="40.7651" x2="54.3921" y2="40.7651">
		<stop offset="0.01" style="stop-color:#B2B2B2" />
		<stop offset="0.5" style="stop-color:#EBEBEB" />
		<stop offset="1" style="stop-color:#B2B2B2" />
	</linearGradient>
	<path fill="url(#SVGID_2_)" d="M39.752,37.5h14.64v6.531h-14.64V37.5z" />
	<path fill="#B2B2B2" d="M52.59,32.319h2.928v11.711H52.59V32.319z" />
	<path fill="#B2B2B2" d="M42.005,39.301h9.009v2.929h-9.009V39.301z" />
	<linearGradient id="SVGID_3_" gradientUnits="userSpaceOnUse" x1="25.1128" y1="31.9814" x2="39.7524" y2="31.9814">
		<stop offset="0.01" style="stop-color:#B2B2B2" />
		<stop offset="0.5" style="stop-color:#EBEBEB" />
		<stop offset="1" style="stop-color:#B2B2B2" />
	</linearGradient>
	<path fill="url(#SVGID_3_)" d="M25.113,19.932h14.64v24.099h-14.64V19.932z" />
	<path fill="#B2B2B2" d="M28.041,40.427h8.784v3.604h-8.784V40.427z" />
	<path fill="#B2B2B2" d="M28.041,26.914h8.784v11.712h-8.784V26.914z" />
	<path fill="#B2B2B2" d="M28.041,19.932h8.784v5.18h-8.784V19.932z" />
	<path fill="#B2B2B2" d="M70.158,35.248h23.648v8.783H70.158V35.248z" />
	<path fill="#7F7F7F" d="M71.959,35.248h1.127v8.783h-1.127V35.248z" />
	<path fill="#CCCCCC" d="M94.932,33.896h16.329v10.135H94.932V33.896z" />
	<path fill="#999999" d="M94.932,33.896h13.965v-4.054H94.932V33.896z" />
	<path fill="#B2B2B2" d="M93.807,29.842h16.215v-9.91H93.807V29.842z" />
	<path fill="#CCCCCC" d="M93.807,17.68h16.215v2.252H93.807V17.68z" />
	<path fill="#B2B2B2" d="M28.041,41.554h-5.856v2.477h5.856V41.554z" />
	<path fill="none" stroke="#7F7F7F" stroke-width="0.25" d="M0,44.482h112.5" />
	<linearGradient id="SVGID_4_" gradientUnits="userSpaceOnUse" x1="25.1128" y1="17.3423" x2="39.7524" y2="17.3423">
		<stop offset="0.01" style="stop-color:#595959" />
		<stop offset="0.5" style="stop-color:#E0E0E0" />
		<stop offset="1" style="stop-color:#595959" />
	</linearGradient>
	<path fill="url(#SVGID_4_)" d="M25.113,19.932v-5.18h14.64v5.18h-2.928V18.13h-8.784v1.802H25.113z" />
	<linearGradient id="SVGID_5_" gradientUnits="userSpaceOnUse" x1="54.3921" y1="17.3423" x2="69.0313" y2="17.3423">
		<stop offset="0.01" style="stop-color:#595959" />
		<stop offset="0.5" style="stop-color:#E0E0E0" />
		<stop offset="1" style="stop-color:#595959" />
	</linearGradient>
	<path fill="url(#SVGID_5_)" d="M54.392,19.932v-5.18h14.639v5.18h-2.928V18.13H57.32v1.802H54.392z" />
	<path fill="#999999" d="M31.645,19.932h1.802v5.18h-1.802V19.932z" />
	<path fill="#999999" d="M31.645,26.914h1.802v9.459h-1.802V26.914z" />
	<path fill="#999999" d="M28.041,38.626h8.784v-2.253h-8.784V38.626z" />
	<path fill="#999999" d="M60.924,19.932h1.801v5.18h-1.801V19.932z" />
	<path fill="#999999" d="M60.924,26.914h1.801v9.459h-1.801V26.914z" />
	<path fill="#999999" d="M57.32,38.626h8.783v-2.253H57.32V38.626z" />
	<path fill="#666666" stroke="#4C4C4C" stroke-width="0.25" d="M31.645,19.932h1.802V18.13h-1.802V19.932z" />
	<path fill="#666666" stroke="#4C4C4C" stroke-width="0.25" d="M60.924,19.932h1.801V18.13h-1.801V19.932z" />
	<path fill="#999999" d="M48.536,25.788h2.478V37.5h-2.478V25.788z" />
	<path fill="#CCCCCC" d="M43.807,19.932h1.351V37.5h-1.351V19.932z" />
	<linearGradient id="SVGID_6_" gradientUnits="userSpaceOnUse" x1="43.8066" y1="17.3423" x2="45.1577" y2="17.3423">
		<stop offset="0.01" style="stop-color:#595959" />
		<stop offset="0.5" style="stop-color:#E0E0E0" />
		<stop offset="1" style="stop-color:#595959" />
	</linearGradient>
	<path fill="url(#SVGID_6_)" d="M43.807,19.932h1.351v-5.18h-1.351V19.932z" />
	<path fill="#666666" d="M101.352,17.68l-0.113-1.577h-1.126v-0.225h2.928v0.225h-1.126l-0.225,1.577H101.352z" />
</g>
<g id="Group_Stand_1">
	<linearGradient id="SVGID_7_" gradientUnits="userSpaceOnUse" x1="83.6709" y1="38.2876" x2="85.0225" y2="38.2876">
		<stop offset="0.01" style="stop-color:#595959" />
		<stop offset="0.5" style="stop-color:#E0E0E0" />
		<stop offset="1" style="stop-color:#595959" />
	</linearGradient>
	<path fill="url(#SVGID_7_)" d="M83.671,33.896h1.352v8.783h-1.352V33.896z" />
	<linearGradient id="SVGID_8_" gradientUnits="userSpaceOnUse" x1="90.8779" y1="38.2876" x2="92.0039" y2="38.2876">
		<stop offset="0.01" style="stop-color:#595959" />
		<stop offset="0.5" style="stop-color:#E0E0E0" />
		<stop offset="1" style="stop-color:#595959" />
	</linearGradient>
	<path fill="url(#SVGID_8_)" d="M90.878,33.896h1.126v8.783h-1.126V33.896z" />
	<linearGradient id="SVGID_9_" gradientUnits="userSpaceOnUse" x1="85.0225" y1="36.0356" x2="90.8779" y2="36.0356">
		<stop offset="0.01" style="stop-color:#595959" />
		<stop offset="0.5" style="stop-color:#E0E0E0" />
		<stop offset="1" style="stop-color:#595959" />
	</linearGradient>
	<path fill="url(#SVGID_9_)" d="M85.022,34.572h5.855V37.5h-5.855V34.572z" />
</g>
<g id="Group_Monitors">
	<path fill="#CCCCCC" stroke="#4C4C4C" stroke-width="0.1" d="M9.798,37.049h8.784v4.505H9.798V37.049z" />
	<linearGradient id="SVGID_10_" gradientUnits="userSpaceOnUse" x1="20.6655" y1="33.1646" x2="7.7153" y2="20.2143">
		<stop offset="0.01" style="stop-color:#595959" />
		<stop offset="1" style="stop-color:#E0E0E0" />
	</linearGradient>
	<path fill="url(#SVGID_10_)" stroke="#4C4C4C" stroke-width="0.1" d="M11.6,16.329h5.18v20.721H11.6V16.329z" />
	<path fill="#CCCCCC" stroke="#4C4C4C" stroke-width="0.1" d="M1.69,41.554h20.495v2.477H1.69V41.554z" />
	<path fill="#7F7F7F" stroke="#4C4C4C" stroke-width="0.1" d="M10.924,34.572h1.802v9.459h-1.802V34.572z" />
	<path fill="#CCCCCC" stroke="#4C4C4C" stroke-width="0.1" d="M7.545,26.464h8.784v8.108H7.545V26.464z" />
	<path fill="#E5E5E5" d="M8.672,27.59h6.531v4.054H8.672V27.59z" />
	<path fill="#666666" stroke="#4C4C4C" stroke-width="0.25" d="M21.059,38.175h-2.478v3.379h2.478V38.175z" />
</g>
<g id="Group_Inlet_Outlet">
	<linearGradient id="SVGID_11_" gradientUnits="userSpaceOnUse" x1="48.2227" y1="16.0386" x2="45.9223" y2="2.9928">
		<stop offset="0" style="stop-color:#3D3D3D" />
		<stop offset="0.5" style="stop-color:#808080" />
		<stop offset="1" style="stop-color:#BFBFBF" />
	</linearGradient>
	<path fill="url(#SVGID_11_)" d="M38.626,4.279h16.892v10.473H38.626V4.279z" />
	<linearGradient id="SVGID_12_" gradientUnits="userSpaceOnUse" x1="26.9146" y1="0.8442" x2="37.9507" y2="0.8442">
		<stop offset="0.01" style="stop-color:#B2B2B2" />
		<stop offset="0.5" style="stop-color:#EBEBEB" />
		<stop offset="1" style="stop-color:#B2B2B2" />
	</linearGradient>
	<path fill="url(#SVGID_12_)" stroke="#4C4C4C" stroke-width="0.25" d="M26.915,0h11.036v1.689H26.915V0z" />
	<linearGradient id="SVGID_13_" gradientUnits="userSpaceOnUse" x1="27.5903" y1="8.2202" x2="37.5" y2="8.2202">
		<stop offset="0.01" style="stop-color:#595959" />
		<stop offset="0.5" style="stop-color:#E0E0E0" />
		<stop offset="1" style="stop-color:#595959" />
	</linearGradient>
	<path fill="url(#SVGID_13_)" d="M27.59,1.689h9.91v8.333l-2.928,2.928h-1.352l0.226,1.802h-1.802V12.95h-1.126l-2.928-2.928V1.689z   " />
	<linearGradient id="SVGID_14_" gradientUnits="userSpaceOnUse" x1="56.1938" y1="0.8442" x2="67.2295" y2="0.8442">
		<stop offset="0.01" style="stop-color:#B2B2B2" />
		<stop offset="0.5" style="stop-color:#EBEBEB" />
		<stop offset="1" style="stop-color:#B2B2B2" />
	</linearGradient>
	<path fill="url(#SVGID_14_)" stroke="#4C4C4C" stroke-width="0.25" d="M56.194,0h11.036v1.689H56.194V0z" />
	<linearGradient id="SVGID_15_" gradientUnits="userSpaceOnUse" x1="56.8691" y1="8.2202" x2="66.7793" y2="8.2202">
		<stop offset="0.01" style="stop-color:#595959" />
		<stop offset="0.5" style="stop-color:#E0E0E0" />
		<stop offset="1" style="stop-color:#595959" />
	</linearGradient>
	<path fill="url(#SVGID_15_)" d="M56.869,1.689h9.91v8.333l-2.928,2.928h-1.127v1.802h-1.801V12.95h-1.127l-2.928-2.928V1.689z" />
	<path fill="#7F7F7F" d="M37.5,2.815h4.505v1.464H37.5V2.815z" />
	<path fill="#7F7F7F" d="M52.14,2.815h4.729v1.464H52.14V2.815z" />
	<path fill="#4D4D4D" d="M31.194,4.842l1.352-1.126l1.126,1.464l-1.126,1.013L31.194,4.842z" />
	<path fill="#4D4D4D" d="M60.473,4.842l1.352-1.126L62.95,5.18l-1.126,1.013L60.473,4.842z" />
</g>
<g id="Group_Bell">
	<linearGradient id="SVGID_16_" gradientUnits="userSpaceOnUse" x1="100.3379" y1="14.8647" x2="102.8145" y2="14.8647">
		<stop offset="0.01" style="stop-color:#CC9933" />
		<stop offset="0.5" style="stop-color:#FFFF00" />
		<stop offset="1" style="stop-color:#CC9933" />
	</linearGradient>
	<path fill="url(#SVGID_16_)" d="M100.338,15.878l0.45-2.027h1.802l0.225,2.027H100.338z" />
</g>
<g id="Group_Blue_Display">
	<path fill="#98B2E5" d="M9.347,28.04h5.18v2.928h-5.18V28.04z" />
</g>
<g id="Group_Fillers">
	<path fill="#4D4D4D" d="M0,61.599h112.5v-0.676H0V61.599z" />
	<linearGradient id="SVGID_17_" gradientUnits="userSpaceOnUse" x1="57.4111" y1="65.7427" x2="55.0899" y2="39.2112">
		<stop offset="0" style="stop-color:#595959" />
		<stop offset="0.5" style="stop-color:#B2B2B2" />
		<stop offset="1" style="stop-color:#D9D9D9" />
	</linearGradient>
	<path fill="url(#SVGID_17_)" d="M0,44.031h112.5v16.893H0V44.031z" />
	<path fill="none" stroke="#7F7F7F" stroke-width="0.25" d="M13.852,60.923V44.482" />
	<path fill="none" stroke="#E5E5E5" stroke-width="0.25" d="M14.527,60.923V44.482" />
	<path fill="none" stroke="#7F7F7F" stroke-width="0.25" d="M42.23,60.923V44.482" />
	<path fill="none" stroke="#E5E5E5" stroke-width="0.25" d="M42.68,60.923V44.482" />
	<path fill="none" stroke="#7F7F7F" stroke-width="0.25" d="M70.383,60.923V44.482" />
	<path fill="none" stroke="#E5E5E5" stroke-width="0.25" d="M70.833,60.923V44.482" />
	<path fill="none" stroke="#7F7F7F" stroke-width="0.25" d="M98.535,60.923V44.482" />
	<path fill="none" stroke="#E5E5E5" stroke-width="0.25" d="M98.986,60.923V44.482" />
	<path fill="#999999" d="M6.419,49.211h0.45v2.478h-0.45V49.211z" />
	<path fill="#999999" d="M105.518,49.211h0.45v2.478h-0.45V49.211z" />
	<path fill="#999999" d="M19.708,49.211h0.676v2.478h-0.676V49.211z" />
	<path fill="#999999" d="M35.698,49.211h0.451v2.478h-0.451V49.211z" />
	<path fill="#999999" d="M47.86,49.211h0.676v2.478H47.86V49.211z" />
	<path fill="#999999" d="M63.852,49.211h0.45v2.478h-0.45V49.211z" />
	<path fill="#999999" d="M76.014,49.211h0.676v2.478h-0.676V49.211z" />
	<path fill="#999999" d="M92.004,49.211h0.451v2.478h-0.451V49.211z" />
</g>
<g id="Group_Supports">
	<linearGradient id="SVGID_18_" gradientUnits="userSpaceOnUse" x1="1.1265" y1="62.7251" x2="2.1401" y2="62.7251">
		<stop offset="0.01" style="stop-color:#595959" />
		<stop offset="0.5" style="stop-color:#E0E0E0" />
		<stop offset="1" style="stop-color:#595959" />
	</linearGradient>
	<path fill="url(#SVGID_18_)" d="M1.126,60.923H2.14v3.604H1.126V60.923z" />
	<linearGradient id="SVGID_19_" gradientUnits="userSpaceOnUse" x1="14.7524" y1="62.7251" x2="15.8789" y2="62.7251">
		<stop offset="0.01" style="stop-color:#595959" />
		<stop offset="0.5" style="stop-color:#E0E0E0" />
		<stop offset="1" style="stop-color:#595959" />
	</linearGradient>
	<path fill="url(#SVGID_19_)" d="M14.752,60.923h1.126v3.604h-1.126V60.923z" />
	<linearGradient id="SVGID_20_" gradientUnits="userSpaceOnUse" x1="28.2661" y1="62.7251" x2="29.6172" y2="62.7251">
		<stop offset="0.01" style="stop-color:#595959" />
		<stop offset="0.5" style="stop-color:#E0E0E0" />
		<stop offset="1" style="stop-color:#595959" />
	</linearGradient>
	<path fill="url(#SVGID_20_)" d="M28.266,60.923h1.351v3.604h-1.351V60.923z" />
	<linearGradient id="SVGID_21_" gradientUnits="userSpaceOnUse" x1="42.0049" y1="62.7251" x2="43.1309" y2="62.7251">
		<stop offset="0.01" style="stop-color:#595959" />
		<stop offset="0.5" style="stop-color:#E0E0E0" />
		<stop offset="1" style="stop-color:#595959" />
	</linearGradient>
	<path fill="url(#SVGID_21_)" d="M42.005,60.923h1.126v3.604h-1.126V60.923z" />
	<linearGradient id="SVGID_22_" gradientUnits="userSpaceOnUse" x1="55.5181" y1="62.7251" x2="56.8691" y2="62.7251">
		<stop offset="0.01" style="stop-color:#595959" />
		<stop offset="0.5" style="stop-color:#E0E0E0" />
		<stop offset="1" style="stop-color:#595959" />
	</linearGradient>
	<path fill="url(#SVGID_22_)" d="M55.518,60.923h1.351v3.604h-1.351V60.923z" />
	<linearGradient id="SVGID_23_" gradientUnits="userSpaceOnUse" x1="69.2568" y1="62.7251" x2="70.3828" y2="62.7251">
		<stop offset="0.01" style="stop-color:#595959" />
		<stop offset="0.5" style="stop-color:#E0E0E0" />
		<stop offset="1" style="stop-color:#595959" />
	</linearGradient>
	<path fill="url(#SVGID_23_)" d="M69.257,60.923h1.126v3.604h-1.126V60.923z" />
	<linearGradient id="SVGID_24_" gradientUnits="userSpaceOnUse" x1="82.7695" y1="62.7251" x2="84.1211" y2="62.7251">
		<stop offset="0.01" style="stop-color:#595959" />
		<stop offset="0.5" style="stop-color:#E0E0E0" />
		<stop offset="1" style="stop-color:#595959" />
	</linearGradient>
	<path fill="url(#SVGID_24_)" d="M82.77,60.923h1.352v3.604H82.77V60.923z" />
	<linearGradient id="SVGID_25_" gradientUnits="userSpaceOnUse" x1="96.5088" y1="62.7251" x2="97.6348" y2="62.7251">
		<stop offset="0.01" style="stop-color:#595959" />
		<stop offset="0.5" style="stop-color:#E0E0E0" />
		<stop offset="1" style="stop-color:#595959" />
	</linearGradient>
	<path fill="url(#SVGID_25_)" d="M96.509,60.923h1.126v3.604h-1.126V60.923z" />
	<linearGradient id="SVGID_26_" gradientUnits="userSpaceOnUse" x1="110.0215" y1="62.7251" x2="111.2607" y2="62.7251">
		<stop offset="0.01" style="stop-color:#595959" />
		<stop offset="0.5" style="stop-color:#E0E0E0" />
		<stop offset="1" style="stop-color:#595959" />
	</linearGradient>
	<path fill="url(#SVGID_26_)" d="M110.021,60.923h1.239v3.604h-1.239V60.923z" />
</g>
</svg>