<svg version="1.1" xmlns="http://www.w3.org/2000/svg" xmlns:xlink="http://www.w3.org/1999/xlink" width="112px" height="112px" viewBox="0 0 112.5 112.5" enable-background="new 0 0 112.5 112.5" xml:space="preserve">
<g id="Group_Green">
	<linearGradient id="SVGID_1_" gradientUnits="userSpaceOnUse" x1="67.5654" y1="120.4229" x2="44.9345" y2="-7.9234">
		<stop offset="0" style="stop-color:#00DB00" />
		<stop offset="1" style="stop-color:#009900" />
	</linearGradient>
	<path fill="url(#SVGID_1_)" d="M112.5,112.5H0V0h112.5V112.5z" />
</g>
<g id="Group_Leaf">
	<linearGradient id="SVGID_2_" gradientUnits="userSpaceOnUse" x1="89.5859" y1="31.5317" x2="104.433" y2="41.1735">
		<stop offset="0" style="stop-color:#E0E0E0" />
		<stop offset="0.5" style="stop-color:#E5CBB2" />
		<stop offset="1" style="stop-color:#E0E0E0" />
	</linearGradient>
	<path fill="url(#SVGID_2_)" d="M87.725,51.464l-5.404-8.333l3.828,2.252l-2.252-4.729l4.392,0.901l-2.14-4.73l3.717,2.14   l-1.239-4.054l2.929-1.577l0.9-4.842l3.828,2.252l-1.013-3.829l2.59,1.239l1.577-5.631l3.152,3.491l1.689-6.081l2.14,4.729   l1.915-0.225l-4.055,4.392h3.491l-3.491,3.153l2.478,1.352l-4.729,2.477l2.477,1.352l-4.053,1.239l1.914,2.478l-4.167,1.351   l2.478,1.239l-2.478,1.915l2.478,1.577l-6.982,2.928l2.59,1.577H87.725z" />
	<linearGradient id="SVGID_3_" gradientUnits="userSpaceOnUse" x1="51.689" y1="26.126" x2="69.8203" y2="26.126">
		<stop offset="0" style="stop-color:#E0E0E0" />
		<stop offset="0.5" style="stop-color:#E5CBB2" />
		<stop offset="1" style="stop-color:#E0E0E0" />
	</linearGradient>
	<path fill="url(#SVGID_3_)" d="M60.698,44.369l9.122-4.392h-4.393l4.393-3.153l-4.393-1.577l4.393-2.928h-4.393l2.815-3.153   l-1.577-2.928l1.577-4.73h-4.392l2.814-2.815h-2.814l1.576-6.081l-4.729,1.239l1.577-5.969l-4.505,3.153l-1.577-1.577l1.577,5.968   l-3.153-1.576l1.577,4.842h-3.153l3.153,4.392h-3.153l3.153,3.153l-3.153,1.351l3.153,3.153h-3.153l1.577,3.153h-2.928l4.505,6.081   h-3.153L60.698,44.369z" />
	<linearGradient id="SVGID_4_" gradientUnits="userSpaceOnUse" x1="13.2124" y1="35.1294" x2="31.2738" y2="31.6186">
		<stop offset="0" style="stop-color:#E0E0E0" />
		<stop offset="0.5" style="stop-color:#E5CBB2" />
		<stop offset="1" style="stop-color:#E0E0E0" />
	</linearGradient>
	<path fill="url(#SVGID_4_)" d="M26.577,51.126l-10.135-1.914l4.392-1.239l-5.068-1.689l3.829-2.815l-5.068-1.576l4.505-1.239   l-3.829-2.252l0.563-3.153l-2.478-4.167l4.392-1.239l-3.829-1.915l2.928-1.013l-2.928-5.406l4.842,0.338l-3.266-5.743l5.406,1.915   l1.013-1.915v6.419l2.59-2.252L24.099,25l3.153-0.901l-1.915,5.405l2.815-1.013l-1.915,3.829l3.266,0.676l-2.252,3.829l3.153-1.014   l-0.563,3.491l2.815-0.563l-2.815,6.982l2.815-1.014L26.577,51.126z" />
	<linearGradient id="SVGID_5_" gradientUnits="userSpaceOnUse" x1="29.5649" y1="23.7393" x2="47.9956" y2="25.6764">
		<stop offset="0" style="stop-color:#E0E0E0" />
		<stop offset="0.5" style="stop-color:#E5CBB2" />
		<stop offset="1" style="stop-color:#E0E0E0" />
	</linearGradient>
	<path fill="url(#SVGID_5_)" d="M38.063,42.793l-9.234-4.392h4.73l-4.73-2.928l4.73-1.577l-4.73-3.153h4.73l-3.153-2.815   l1.577-3.266l-1.577-4.392h4.842l-3.266-3.153h3.266l-1.689-6.081l4.504,1.577l-1.577-6.307l4.73,3.153l1.351-1.577l-1.351,5.969   l2.928-1.239l-1.577,4.504h3.153l-3.153,4.392h3.153l-3.153,3.153l3.153,1.577l-3.153,2.928h3.153l-1.577,3.153h3.153l-4.73,6.081   h3.153L38.063,42.793z" />
</g>
<g id="Group_Stem">
	<path fill="#CCB299" d="M68.018,103.266l-1.689-0.9V91.217L71.509,75.9l7.884-15.878l9.571-14.64l2.591,1.239L81.982,61.6   l-7.996,15.878l-5.405,15.315L68.018,103.266z" />
	<path fill="#CCB299" d="M51.689,101.352h1.915l5.743-9.797L62.5,75l1.352-18.468L62.5,38.401h-2.815l1.239,18.131L59.685,75   l-3.153,16.555L51.689,101.352z" />
	<path fill="#CCB299" d="M47.297,99.775h-2.252l-5.743-9.91l-3.153-16.441l-0.901-18.131l0.901-18.469h2.815l-0.901,18.469   l0.901,18.131l3.604,16.441L47.297,99.775z" />
	<path fill="#CCB299" d="M50.113,103.941l-2.14,0.338l-7.996-7.996L32.32,80.969l-5.743-17.117l-3.491-18.131l2.928-0.676   l3.491,17.793l5.743,17.567l7.545,14.865L50.113,103.941z" />
</g>
<g id="Group_Fruit">
	<linearGradient id="SVGID_6_" gradientUnits="userSpaceOnUse" x1="50.0225" y1="93.7041" x2="41.8103" y2="47.1306">
		<stop offset="0" style="stop-color:#CC4C00" />
		<stop offset="0.8" style="stop-color:#D26324" />
		<stop offset="1" style="stop-color:#DE936F" />
	</linearGradient>
	<ellipse fill="url(#SVGID_6_)" cx="45.917" cy="70.418" rx="22.833" ry="23.666" />
	<linearGradient id="SVGID_7_" gradientUnits="userSpaceOnUse" x1="74.0195" y1="93.6855" x2="65.814" y2="47.1495">
		<stop offset="0" style="stop-color:#CC4C00" />
		<stop offset="0.8" style="stop-color:#D26324" />
		<stop offset="1" style="stop-color:#DE936F" />
	</linearGradient>
	<ellipse fill="url(#SVGID_7_)" cx="69.917" cy="70.418" rx="22.167" ry="23.666" />
</g>
<g id="Group_Stalk">
	<path fill="#CBCBB2" d="M59.685,50.45l-4.167,2.252V50.45l2.252-1.914L59.685,50.45z" />
</g>
<g id="Group_Fruit_Bottom">
	<path fill="#991900" d="M66.937,85.721c-6.931-3-17.823-10-22.773,0c-5.935-3.425-10.423-7.578-16.563-9.958h-3.735   c0,11.529,15.004,20.874,33.514,20.874c18.509,0,33.514-9.345,33.514-20.874h-0.97c-3.417,1.819-7.992,0.505-12.095,3.958   C73.867,82.721,69.907,86.721,66.937,85.721z" />
</g>
</svg>