<svg version="1.1" xmlns="http://www.w3.org/2000/svg" xmlns:xlink="http://www.w3.org/1999/xlink" width="56px" height="112px" viewBox="0 0 56.254 112.5" enable-background="new 0 0 56.254 112.5" xml:space="preserve">
<g id="Group_Layer_9">
	
		<linearGradient id="SVGID_1_" gradientUnits="userSpaceOnUse" x1="-23.2791" y1="71.8242" x2="-20.6497" y2="71.8242" gradientTransform="matrix(-0.7193 0.6947 -0.5892 -0.6101 72.0767 62.6291)">
		<stop offset="0.01" style="stop-color:#646566" />
		<stop offset="0.16" style="stop-color:#909091" />
		<stop offset="0.49" style="stop-color:#E0E0E0" />
		<stop offset="1" style="stop-color:#646566" />
	</linearGradient>
	<path fill="url(#SVGID_1_)" d="M48.006,7.223c0.27-0.671,0.678-1.28,1.224-1.766l-5.174-5.253   c-0.629,0.575-1.449,0.983-2.455,1.138l6.088,6.181L48.006,7.223z" />
	
		<linearGradient id="SVGID_2_" gradientUnits="userSpaceOnUse" x1="1.7815" y1="89.9932" x2="1.7815" y2="87.4697" gradientTransform="matrix(-0.5529 0.5529 -0.7071 -0.7071 96.052 65.5755)">
		<stop offset="0.01" style="stop-color:#646566" />
		<stop offset="0.18" style="stop-color:#959595" />
		<stop offset="0.5" style="stop-color:#E0E0E0" />
		<stop offset="1" style="stop-color:#666666" />
	</linearGradient>
	<path fill="url(#SVGID_2_)" d="M28.6,5.76l5.665-5.666l1.785,1.784l-5.666,5.666L28.6,5.76z" />
	
		<linearGradient id="SVGID_3_" gradientUnits="userSpaceOnUse" x1="-20.0881" y1="87.0205" x2="-18.1706" y2="85.1029" gradientTransform="matrix(-0.7193 0.6947 -0.6947 -0.7193 85.3377 76.5486)">
		<stop offset="0.01" style="stop-color:#646566" />
		<stop offset="0.16" style="stop-color:#909091" />
		<stop offset="0.49" style="stop-color:#E0E0E0" />
		<stop offset="1" style="stop-color:#646566" />
	</linearGradient>
	<path fill="url(#SVGID_3_)" d="M44.067,0.091L34.34,0.093c-0.05,0.042-0.104,0.08-0.156,0.12c0.544,0.689,0.887,1.526,1.022,2.403   l7.521-0.04c0.133-0.713,0.665-1.434,1.746-2.08c0.003-0.001,0.005-0.003,0.008-0.004C44.334,0.366,44.194,0.233,44.067,0.091z" />
</g>
<g id="Group_Mixer_Emulsifier">
	<linearGradient id="SVGID_4_" gradientUnits="userSpaceOnUse" x1="7.78" y1="27.7871" x2="35.0593" y2="27.7871">
		<stop offset="0.01" style="stop-color:#595959" />
		<stop offset="0.5" style="stop-color:#E0E0E0" />
		<stop offset="1" style="stop-color:#595959" />
	</linearGradient>
	<path fill="url(#SVGID_4_)" stroke="#4C4C4C" stroke-width="0.25" d="M7.78,5.862h27.279v28.52L24.238,49.712h-5.862L7.78,34.381   V5.862" />
	<path fill="none" stroke="#7F7F7F" stroke-width="0.25" d="M7.78,34.381h27.279" />
	<path fill="none" stroke="#7F7F7F" stroke-width="0.25" d="M7.78,7.214h27.279" />
	<path fill="#7F7F7F" stroke="#4C4C4C" stroke-width="0.25" d="M1.805,33.028h8.342V23.56L1.805,33.028z" />
	<path fill="#7F7F7F" stroke="#4C4C4C" stroke-width="0.25" d="M40.921,33.028H32.58V23.56L40.921,33.028z" />
</g>
<g id="Group_Top_Mixer">
	<linearGradient id="SVGID_5_" gradientUnits="userSpaceOnUse" x1="28.9724" y1="2.9307" x2="49.2625" y2="2.9307">
		<stop offset="0.01" style="stop-color:#595959" />
		<stop offset="0.5" style="stop-color:#E0E0E0" />
		<stop offset="1" style="stop-color:#595959" />
	</linearGradient>
	<path display="none" fill="url(#SVGID_5_)" d="M44.528,0l4.734,4.734h-2.479l-2.255-2.367H33.707l-2.255,3.495h-2.479L33.707,0   H44.528z" />
	<linearGradient id="SVGID_6_" gradientUnits="userSpaceOnUse" x1="46.783" y1="35.3345" x2="49.2625" y2="35.3345">
		<stop offset="0.01" style="stop-color:#595959" />
		<stop offset="0.5" style="stop-color:#E0E0E0" />
		<stop offset="1" style="stop-color:#595959" />
	</linearGradient>
	<path fill="url(#SVGID_6_)" d="M46.783,6.377v58.891h2.479V5.401h-0.079C48.551,5.913,47.753,6.267,46.783,6.377z" />
</g>
<g id="Group_Inline_Unit">
	<path fill="none" stroke="#4C4C4C" stroke-width="0.25" d="M14.093,78.795h14.88v20.291h-14.88V78.795" />
</g>
<g id="Group_Adjusters">
	<linearGradient id="SVGID_7_" gradientUnits="userSpaceOnUse" x1="17.7" y1="71.3555" x2="25.5906" y2="71.3555">
		<stop offset="0.01" style="stop-color:#595959" />
		<stop offset="0.5" style="stop-color:#E0E0E0" />
		<stop offset="1" style="stop-color:#595959" />
	</linearGradient>
	<path fill="url(#SVGID_7_)" stroke="#4C4C4C" stroke-width="0.25" d="M17.7,78.795V63.916h7.891v14.879H17.7" />
	<linearGradient id="SVGID_8_" gradientUnits="userSpaceOnUse" x1="19.0525" y1="56.8145" x2="24.238" y2="56.8145">
		<stop offset="0.01" style="stop-color:#595959" />
		<stop offset="0.5" style="stop-color:#E0E0E0" />
		<stop offset="1" style="stop-color:#595959" />
	</linearGradient>
	<path fill="url(#SVGID_8_)" stroke="#4C4C4C" stroke-width="0.25" d="M19.052,49.712v14.204h5.186V49.712H19.052" />
	<path fill="#4D4D4D" d="M14.093,102.354h14.88v-3.269h-14.88V102.354z" />
</g>
<g id="Group_Tap_Handle">
	<path fill="#4D4D4D" stroke="#4C4C4C" stroke-width="0.25" d="M15.896,63.465h11.272v1.803H15.896V63.465z" />
	<path fill="#4D4D4D" stroke="#4C4C4C" stroke-width="0.25" d="M15.896,68.65h11.272v1.803H15.896V68.65z" />
	<path fill="#4D4D4D" stroke="#4C4C4C" stroke-width="0.25" d="M18.376,58.73h6.538v1.803h-6.538V58.73z" />
	<path fill="#4D4D4D" stroke="#4C4C4C" stroke-width="0.25" d="M18.376,53.319h6.538v2.931h-6.538V53.319z" />
	<path fill="#4D4D4D" stroke="#4C4C4C" stroke-width="0.25" d="M51.066,27.843h1.804v6.989h-1.804V27.843z" />
	<path fill="#7F7F7F" stroke="#4C4C4C" stroke-width="0.25" d="M51.066,27.843h1.804l-4.283-2.931h-1.804L51.066,27.843z" />
	<path fill="#4D4D4D" stroke="#4C4C4C" stroke-width="0.25" d="M30.325,65.268h1.804v-4.734h-1.804V65.268z" />
	<path fill="#4D4D4D" stroke="#4C4C4C" stroke-width="0.25" d="M52.194,75.864h1.803v-6.538h-1.803V75.864z" />
	<path fill="#CCCCCC" d="M52.194,67.522h1.803v1.804h-1.803V67.522z" />
	<path fill="#4D4D4D" stroke="#4C4C4C" stroke-width="0.25" d="M40.245,32.578h2.479v6.989h-2.479V32.578z" />
</g>
<g id="Group_Tap">
	<radialGradient id="SVGID_9_" cx="47.3464" cy="23.6724" r="2.3672" gradientUnits="userSpaceOnUse">
		<stop offset="0" style="stop-color:#BFBFBF" />
		<stop offset="0.5" style="stop-color:#B2B2B2" />
		<stop offset="1" style="stop-color:#404040" />
	</radialGradient>
	<path fill="url(#SVGID_9_)" d="M46.557,26.04l-1.578-1.353v-2.029l1.578-1.353h1.804l1.353,1.353v2.029l-1.353,1.353H46.557z" />
	<radialGradient id="SVGID_10_" cx="53.8845" cy="66.2832" r="2.3672" gradientUnits="userSpaceOnUse">
		<stop offset="0" style="stop-color:#BFBFBF" />
		<stop offset="0.5" style="stop-color:#B2B2B2" />
		<stop offset="1" style="stop-color:#404040" />
	</radialGradient>
	<path fill="url(#SVGID_10_)" d="M53.095,68.65l-1.578-1.354v-1.803l1.578-1.578h1.804l1.353,1.578v1.803l-1.353,1.354H53.095z" />
	<radialGradient id="SVGID_11_" cx="41.4851" cy="30.2104" r="2.3672" gradientUnits="userSpaceOnUse">
		<stop offset="0" style="stop-color:#BFBFBF" />
		<stop offset="0.5" style="stop-color:#B2B2B2" />
		<stop offset="1" style="stop-color:#404040" />
	</radialGradient>
	<path fill="url(#SVGID_11_)" d="M40.47,32.578l-1.353-1.353v-2.029l1.353-1.353H42.5l1.353,1.353v2.029L42.5,32.578H40.47z" />
	<radialGradient id="SVGID_12_" cx="31.114" cy="58.2793" r="2.5923" gradientUnits="userSpaceOnUse">
		<stop offset="0" style="stop-color:#E0E0E0" />
		<stop offset="0.5" style="stop-color:#E0E0E0" />
		<stop offset="1" style="stop-color:#595959" />
	</radialGradient>
	<circle fill="url(#SVGID_12_)" cx="31.114" cy="58.279" r="2.592" />
</g>
<g id="Group_Support">
	<linearGradient id="SVGID_13_" gradientUnits="userSpaceOnUse" x1="1.8054" y1="70.3965" x2="5.4128" y2="70.3965">
		<stop offset="0.01" style="stop-color:#595959" />
		<stop offset="0.5" style="stop-color:#E0E0E0" />
		<stop offset="1" style="stop-color:#595959" />
	</linearGradient>
	<path fill="url(#SVGID_13_)" d="M1.805,33.028h3.607v74.737H1.805V33.028" />
	<linearGradient id="SVGID_14_" gradientUnits="userSpaceOnUse" x1="37.3142" y1="70.3965" x2="40.9207" y2="70.3965">
		<stop offset="0.01" style="stop-color:#595959" />
		<stop offset="0.5" style="stop-color:#E0E0E0" />
		<stop offset="1" style="stop-color:#595959" />
	</linearGradient>
	<path fill="url(#SVGID_14_)" d="M37.314,33.028h3.606v74.737h-3.606V33.028" />
	<linearGradient id="SVGID_15_" gradientUnits="userSpaceOnUse" x1="21.3635" y1="104.1582" x2="21.3635" y2="102.3545">
		<stop offset="0.01" style="stop-color:#595959" />
		<stop offset="0.5" style="stop-color:#E0E0E0" />
		<stop offset="1" style="stop-color:#595959" />
	</linearGradient>
	<path fill="url(#SVGID_15_)" stroke="#4C4C4C" stroke-width="0.25" d="M37.314,102.354v1.804H5.413v-1.804H37.314" />
	<linearGradient id="SVGID_16_" gradientUnits="userSpaceOnUse" x1="2.9324" y1="109.0059" x2="4.1726" y2="109.0059">
		<stop offset="0.01" style="stop-color:#595959" />
		<stop offset="0.5" style="stop-color:#E0E0E0" />
		<stop offset="1" style="stop-color:#595959" />
	</linearGradient>
	<path fill="url(#SVGID_16_)" d="M2.932,110.246v-2.48h1.24v2.48H2.932z" />
	<linearGradient id="SVGID_17_" gradientUnits="userSpaceOnUse" x1="38.4412" y1="109.0059" x2="39.7937" y2="109.0059">
		<stop offset="0.01" style="stop-color:#595959" />
		<stop offset="0.5" style="stop-color:#E0E0E0" />
		<stop offset="1" style="stop-color:#595959" />
	</linearGradient>
	<path fill="url(#SVGID_17_)" d="M38.441,110.246v-2.48h1.353v2.48H38.441z" />
	<linearGradient id="SVGID_18_" gradientUnits="userSpaceOnUse" x1="38.5535" y1="67.5225" x2="38.5535" y2="65.2676">
		<stop offset="0.01" style="stop-color:#595959" />
		<stop offset="0.5" style="stop-color:#E0E0E0" />
		<stop offset="1" style="stop-color:#595959" />
	</linearGradient>
	<path fill="url(#SVGID_18_)" d="M51.517,65.268v2.255H25.591v-2.255H51.517" />
</g>
<g id="Group_Stand">
	<path fill="#F2E5CC" stroke="#4C4C4C" stroke-width="0.25" d="M0.002,110.246v2.254h7.215v-2.254H0.002z" />
	<path fill="#F2E5CC" stroke="#4C4C4C" stroke-width="0.25" d="M35.51,110.246v2.254h7.214v-2.254H35.51z" />
</g>
</svg>