<!DOCTYPE svg PUBLIC "-//W3C//DTD SVG 1.1//EN" "http://www.w3.org/Graphics/SVG/1.1/DTD/svg11.dtd"[]><svg version="1.1" xmlns="http://www.w3.org/2000/svg" xmlns:xlink="http://www.w3.org/1999/xlink" width="112px" height="82px" viewBox="0 0 112.5 81.871" enable-background="new 0 0 112.5 81.871" xml:space="preserve">
<g id="Group_Vaccum_Tube">
	<linearGradient id="SVGID_1_" gradientUnits="userSpaceOnUse" x1="68.6934" y1="51.4648" x2="68.6934" y2="34.5737">
		<stop offset="0" style="stop-color:#4D4D4D" />
		<stop offset="0.4" style="stop-color:#999999" />
		<stop offset="0.6" style="stop-color:#B2B2B2" />
		<stop offset="1" style="stop-color:#B2B2B2" />
	</linearGradient>
	<path fill="url(#SVGID_1_)" stroke="#4C4C4C" stroke-width="0.25" d="M24.887,34.573H112.5v16.892H24.887V34.573" />
	<linearGradient id="SVGID_2_" gradientUnits="userSpaceOnUse" x1="106.8135" y1="50.3389" x2="106.8135" y2="36.623">
		<stop offset="0" style="stop-color:#999999" />
		<stop offset="0.47" style="stop-color:#999999" />
		<stop offset="0.5" style="stop-color:#666666" />
		<stop offset="1" style="stop-color:#4D4D4D" />
	</linearGradient>
	<path fill="url(#SVGID_2_)" d="M102.365,36.623h8.896v13.716h-8.896V36.623z" />
	<linearGradient id="SVGID_3_" gradientUnits="userSpaceOnUse" x1="30.5181" y1="50.3389" x2="30.5181" y2="36.79">
		<stop offset="0" style="stop-color:#999999" />
		<stop offset="0.47" style="stop-color:#999999" />
		<stop offset="0.5" style="stop-color:#666666" />
		<stop offset="1" style="stop-color:#4D4D4D" />
	</linearGradient>
	<path fill="url(#SVGID_3_)" d="M26.014,36.79h9.009v13.549h-9.009V36.79z" />
	<path fill="none" stroke="#B2B2B2" stroke-width="0.25" d="M86.6,51.465V34.573" />
	<path fill="none" stroke="#4C4C4C" stroke-width="0.25" d="M87.725,51.465V34.573" />
	<linearGradient id="SVGID_4_" gradientUnits="userSpaceOnUse" x1="72.0176" y1="41.7109" x2="65.3701" y2="4.0113">
		<stop offset="0" style="stop-color:#4D4D4D" />
		<stop offset="0.4" style="stop-color:#999999" />
		<stop offset="0.6" style="stop-color:#C6C6C6" />
		<stop offset="1" style="stop-color:#CCCCCC" />
	</linearGradient>
	<path fill="url(#SVGID_4_)" d="M24.887,11.149H112.5v23.424H24.887V11.149z" />
	<linearGradient id="SVGID_5_" gradientUnits="userSpaceOnUse" x1="68.6934" y1="8.8975" x2="68.6934" y2="2.1406">
		<stop offset="0" style="stop-color:#B2B2B2" />
		<stop offset="0.5" style="stop-color:#999999" />
		<stop offset="1" style="stop-color:#4D4D4D" />
	</linearGradient>
	<path fill="url(#SVGID_5_)" d="M110.248,8.897H27.14V2.141h83.108V8.897z" />
	<path fill="none" stroke="#B2B2B2" stroke-width="0.25" d="M51.915,51.465V34.573" />
	<path fill="none" stroke="#4C4C4C" stroke-width="0.25" d="M53.041,51.465V34.573" />
</g>
<g id="Group_Display">
	<path fill="#E6E6E6" d="M27.815,13.402h5.63v3.829h-5.63V13.402z" />
	<path fill="#BF723F" d="M27.815,13.402h5.63v1.126h-5.63V13.402z" />
	<path fill="#E6E6E6" d="M53.041,13.402h5.631v3.829h-5.631V13.402z" />
	<path fill="#BF723F" d="M53.041,13.402h5.631v1.126h-5.631V13.402z" />
	<path fill="#666666" d="M63.626,19.032H77.14v11.036H63.626V19.032z" />
	<path fill="#7F0000" d="M64.752,22.861h11.262v3.378H64.752V22.861z" />
</g>
<g id="Group_Support_Structure">
	<path fill="#4C4C4C" stroke="#4C4C4C" stroke-width="0.25" d="M100.788,71.735H36.599v-4.279h64.189V71.735z" />
	<path fill="#4C4C4C" stroke="#4C4C4C" stroke-width="0.25" d="M36.599,51.444v28.399h-6.081V51.444H36.599z" />
	<path fill="#4C4C4C" stroke="#4C4C4C" stroke-width="0.25" d="M107.095,51.515v28.329h-6.307V51.515H107.095z" />
	<path fill="none" stroke="#4C4C4C" stroke-width="0.25" d="M33.896,50.339V81.87H27.14V50.339H33.896" />
	<path fill="none" stroke="#4C4C4C" stroke-width="0.25" d="M110.248,50.339V81.87h-6.757V50.339H110.248" />
	<linearGradient id="SVGID_6_" gradientUnits="userSpaceOnUse" x1="68.6934" y1="72.8613" x2="68.6934" y2="68.3574">
		<stop offset="0.01" style="stop-color:#595959" />
		<stop offset="0.5" style="stop-color:#E0E0E0" />
		<stop offset="1" style="stop-color:#595959" />
	</linearGradient>
	<path fill="url(#SVGID_6_)" d="M103.491,72.861H33.896v-4.504h69.595V72.861" />
	<linearGradient id="SVGID_7_" gradientUnits="userSpaceOnUse" x1="27.1396" y1="66.1045" x2="33.8965" y2="66.1045">
		<stop offset="0.01" style="stop-color:#595959" />
		<stop offset="0.5" style="stop-color:#E0E0E0" />
		<stop offset="1" style="stop-color:#595959" />
	</linearGradient>
	<path fill="url(#SVGID_7_)" d="M33.896,50.339V81.87H27.14V50.339H33.896" />
	<linearGradient id="SVGID_8_" gradientUnits="userSpaceOnUse" x1="103.4912" y1="66.1045" x2="110.248" y2="66.1045">
		<stop offset="0.01" style="stop-color:#595959" />
		<stop offset="0.5" style="stop-color:#E0E0E0" />
		<stop offset="1" style="stop-color:#595959" />
	</linearGradient>
	<path fill="url(#SVGID_8_)" d="M110.248,50.339V81.87h-6.757V50.339H110.248" />
</g>
<g id="Group_Hanger">
	<path fill="#7F7F7F" d="M24.887,11.149V0.001h2.252v8.896h25.901V0.001h2.252v8.896h26.802V0.001h2.252v8.896h25.901V0.001h2.252   v11.148H24.887z" />
</g>
<g id="Group_Feeder">
	<path fill="#666666" stroke="#4C4C4C" stroke-width="0.25" d="M17.004,22.411h7.883v9.91h-7.883V22.411z" />
	<path fill="#7F7F7F" stroke="#4C4C4C" stroke-width="0.25" d="M14.752,29.618V26.69l7.432-10.135v13.063H14.752z" />
	<path fill="#4D4D4D" stroke="#7F7F7F" stroke-width="0.25" d="M20.383,12.276h4.504v15.09h-4.504V12.276z" />
	<path fill="none" stroke="#4C4C4C" stroke-width="0.25" d="M10.923,30.744l3.829-2.928" />
	<path fill="none" stroke="#4C4C4C" stroke-width="0.25" d="M11.374,26.69l7.432-4.955" />
</g>
<g id="Group_LEver">
	<linearGradient id="SVGID_9_" gradientUnits="userSpaceOnUse" x1="2.6865" y1="19.5024" x2="9.3475" y2="17.7176">
		<stop offset="0.01" style="stop-color:#595959" />
		<stop offset="0.5" style="stop-color:#E0E0E0" />
		<stop offset="1" style="stop-color:#595959" />
	</linearGradient>
	<path fill="url(#SVGID_9_)" d="M5.518,30.068L0,8.897l6.532-1.689l5.518,21.059L5.518,30.068" />
	<linearGradient id="SVGID_10_" gradientUnits="userSpaceOnUse" x1="7.9282" y1="32.3105" x2="11.201" y2="31.4336">
		<stop offset="0.01" style="stop-color:#595959" />
		<stop offset="0.5" style="stop-color:#E0E0E0" />
		<stop offset="1" style="stop-color:#595959" />
	</linearGradient>
	<path fill="url(#SVGID_10_)" d="M7.207,29.618l1.464,5.405l3.153-0.901l-1.351-5.405L7.207,29.618" />
</g>
<g id="Group_Mixer">
	<path fill="#4D4D4D" d="M3.829,35.249h21.059v15.09H3.829V35.249z" />
	<path fill="#666666" stroke="#4C4C4C" stroke-width="0.25" d="M2.59,35.699h21.171v18.018H2.59V35.699z" />
	<path fill="#4D4D4D" d="M4.842,51.465h1.689l11.599-11.712v-1.802h-1.577L4.842,49.663V51.465z" />
	<path fill="#4D4D4D" d="M4.842,46.961h1.689l7.32-7.208v-1.802h-1.802l-7.207,7.433V46.961z" />
	<path fill="#4D4D4D" d="M9.234,51.465h1.689l7.208-7.207v-1.802h-1.577l-7.32,7.207V51.465z" />
	<path fill="#4D4D4D" d="M4.842,42.456h1.689l2.703-2.703v-1.802H7.545l-2.703,2.928V42.456z" />
	<path fill="#4D4D4D" d="M13.852,51.465h1.576l2.703-2.703v-1.801h-1.577l-2.703,2.702V51.465z" />
	<path fill="#666666" stroke="#4C4C4C" stroke-width="0.25" d="M5.968,35.249h18.919v-2.928H5.968V35.249z" />
</g>
</svg>