<?xml version="1.0" encoding="utf-8"?>
<!-- Generator: Adobe Illustrator 15.0.0, SVG Export Plug-In . SVG Version: 6.00 Build 0)  -->
<!DOCTYPE svg PUBLIC "-//W3C//DTD SVG 1.1 Tiny//EN" "http://www.w3.org/Graphics/SVG/1.1/DTD/svg11-tiny.dtd">
<svg version="1.1" baseProfile="tiny" id="_x31_9-20"
	 xmlns="http://www.w3.org/2000/svg" xmlns:xlink="http://www.w3.org/1999/xlink" x="0px" y="0px" width="93.59px" height="93.59px"
	 viewBox="0 0 93.59 93.59" xml:space="preserve">
<g>
	<path fill="#1E2E61" d="M46.795,0C20.949,0,0,20.955,0,46.795C0,72.638,20.949,93.59,46.795,93.59
		c25.846,0,46.795-20.952,46.795-46.795C93.59,20.955,72.641,0,46.795,0z M46.795,89.845c-23.778,0-43.051-19.274-43.051-43.05
		c0-23.773,19.272-43.05,43.051-43.05s43.051,19.276,43.051,43.05C89.846,70.57,70.573,89.845,46.795,89.845z"/>
	<circle fill="#1E2E61" cx="46.798" cy="46.792" r="6.782"/>
	<g>
		<path fill="#1E2E61" d="M70.064,16.572c0,0-5.947-8.135-17.241-8.704c0,0-16.332,7.15-10.204,29.88c0,0,4.35-2.249,8.975,0.252
			C51.595,38,53.474,18.837,70.064,16.572z"/>
		<path fill="#1E2E61" d="M37.84,9.742c0,0-10.067-0.482-17.602,7.95c0,0-4.691,17.199,16.848,26.706c0,0,0.98-4.799,5.83-6.828
			C42.916,37.57,29.183,24.075,37.84,9.742z"/>
		<path fill="#1E2E61" d="M12.339,30.504c0,0-6.696,7.531-4.866,18.69c0,0,10.44,14.452,31.363,3.659c0,0-3.119-3.776-1.652-8.826
			C37.184,44.027,18.057,46.241,12.339,30.504z"/>
		<path fill="#1E2E61" d="M12.489,63.334c0,0,1.657,9.943,11.491,15.524c0,0,17.803,0.952,22.541-22.11c0,0-4.897,0.056-7.905-4.256
			C38.616,52.492,28.329,68.768,12.489,63.334z"/>
		<path fill="#1E2E61" d="M38.134,83.862c0,0,8.778,4.954,19.298,0.806c0,0,11.919-13.26-3.053-31.427c0,0-3.032,3.845-8.276,3.479
			C46.103,56.72,52.31,74.948,38.134,83.862z"/>
		<path fill="#1E2E61" d="M70.234,76.791c0,0,9.367-3.72,12.745-14.511c0,0-2.833-17.601-26.374-17.359c0,0,1.088,4.773-2.489,8.625
			C54.117,53.546,72.198,60.163,70.234,76.791z"/>
		<path fill="#1E2E61" d="M84.874,47.409c0,0,2.987-9.625-3.291-19.032c0,0-15.477-8.847-30.071,9.625c0,0,4.398,2.15,5.149,7.354
			C56.661,45.355,73.165,35.438,84.874,47.409z"/>
	</g>
</g>
</svg>
