<?xml version="1.0" encoding="utf-8"?>
<!-- Generator: Adobe Illustrator 15.0.0, SVG Export Plug-In . SVG Version: 6.00 Build 0)  -->
<!DOCTYPE svg PUBLIC "-//W3C//DTD SVG 1.1 Tiny//EN" "http://www.w3.org/Graphics/SVG/1.1/DTD/svg11-tiny.dtd">
<svg version="1.1" baseProfile="tiny" id="_x31_6-18"
	 xmlns="http://www.w3.org/2000/svg" xmlns:xlink="http://www.w3.org/1999/xlink" x="0px" y="0px" width="98.67px"
	 height="98.668px" viewBox="0 0 98.67 98.668" xml:space="preserve">
<g>
	<path fill="#30304D" d="M84.287,51.385c-6.316-6.035-18.799-6.936-18.799-6.936l-0.021-0.072
		c5.418-6.822,17.682-0.699,21.277-1.076c4.926-0.516,1.047-11.725-1.938-15.699c-2.494-3.316-3.365-5.477-12.023-4.305
		c-8.193,1.109-16.24,9.402-17.078,10.289l-0.148-0.01c-1.98-8.482,10.436-14.289,12.373-17.34
		c2.656-4.182-8.539-8.105-13.506-8.234c-4.148-0.107-6.383-0.764-10.842,6.75c-4.459,7.512-2.529,19.877-2.529,19.877l-0.121,0.016
		c-7.865-3.746-4.658-17.072-5.834-20.49c-1.609-4.682-11.66,1.617-14.861,5.42c-2.67,3.176-4.578,4.512-1.488,12.684
		s13.955,14.379,13.955,14.379l-0.037,0.168c-7.834,3.811-16.248-7.012-19.652-8.225C8.35,36.916,7.002,48.701,7.979,53.576
		c0.814,4.066,0.668,6.391,8.982,9.076c8.314,2.684,19.943-1.938,19.943-1.938l0.055,0.059c-1.91,8.5-15.615,8.324-18.688,10.227
		c-4.211,2.609,4.16,11.014,8.576,13.291c3.688,1.902,5.414,3.467,12.699-1.357c7.283-4.822,10.928-16.795,10.928-16.795l0.098,0.02
		c5.451,6.795-3.238,17.396-3.666,20.986c-0.59,4.918,11.201,3.619,15.738,1.588c3.785-1.695,6.086-2.068,6.861-10.771
		c0.775-8.701-6.309-19.018-6.309-19.018l0.053-0.125c8.711-0.021,11.578,13.383,14.115,15.957
		c3.475,3.527,9.816-6.496,11.059-11.309C89.461,59.449,90.605,57.42,84.287,51.385z M49.334,58.988
		c-5.332,0-9.654-4.322-9.654-9.656c0-5.332,4.322-9.654,9.654-9.654c5.334,0,9.656,4.322,9.656,9.654
		C58.99,54.666,54.668,58.988,49.334,58.988z"/>
	<g>
		<radialGradient id="SVGID_1_" cx="49.335" cy="50.0088" r="48.6843" gradientUnits="userSpaceOnUse">
			<stop  offset="0.7637" style="stop-color:#00003B"/>
			<stop  offset="0.7916" style="stop-color:#1F2256"/>
			<stop  offset="0.8256" style="stop-color:#3F4372"/>
			<stop  offset="0.858" style="stop-color:#565C86"/>
			<stop  offset="0.8876" style="stop-color:#646B92"/>
			<stop  offset="0.9121" style="stop-color:#697096"/>
			<stop  offset="0.9207" style="stop-color:#535984"/>
			<stop  offset="0.9349" style="stop-color:#35396C"/>
			<stop  offset="0.9496" style="stop-color:#1E2058"/>
			<stop  offset="0.9649" style="stop-color:#0D0E4B"/>
			<stop  offset="0.9811" style="stop-color:#030343"/>
			<stop  offset="1" style="stop-color:#000040"/>
		</radialGradient>
		<path fill="url(#SVGID_1_)" d="M49.332,0C22.086,0,0,22.084,0,49.328c0,27.25,22.086,49.34,49.332,49.34
			c27.248,0,49.338-22.09,49.338-49.34C98.67,22.084,76.58,0,49.332,0z M49.33,93.305c-24.281,0-43.965-19.688-43.965-43.975
			c0-24.283,19.684-43.965,43.965-43.965c24.287,0,43.975,19.682,43.975,43.965C93.305,73.617,73.617,93.305,49.33,93.305z"/>
		<radialGradient id="SVGID_2_" cx="48.7617" cy="48.9688" r="41.1403" gradientUnits="userSpaceOnUse">
			<stop  offset="0" style="stop-color:#9699B3"/>
			<stop  offset="0.2193" style="stop-color:#7D809A"/>
			<stop  offset="0.4945" style="stop-color:#62647F"/>
			<stop  offset="0.8901" style="stop-color:#30304D"/>
		</radialGradient>
		<path fill="url(#SVGID_2_)" d="M84.346,49.197c-6.676-5.639-19.189-5.775-19.189-5.775l-0.025-0.072
			c4.992-7.141,17.607-1.777,21.172-2.371c4.885-0.816,0.33-11.768-2.893-15.553c-2.691-3.158-3.693-5.26-12.264-3.563
			c-8.109,1.607-15.635,10.377-16.418,11.313H54.58c-2.494-8.346,9.545-14.9,11.293-18.064c2.395-4.336-9.02-7.568-13.986-7.393
			c-4.146,0.145-6.416-0.373-10.408,7.398c-3.992,7.77-1.313,19.994-1.313,19.994l-0.119,0.021
			c-8.078-3.256-5.691-16.754-7.072-20.094c-1.895-4.576-11.541,2.326-14.504,6.316c-2.471,3.332-4.293,4.781-0.711,12.75
			c3.584,7.969,14.807,13.5,14.807,13.5l-0.027,0.17c-7.586,4.281-16.645-6.006-20.117-7.008
			c-4.758-1.377-5.381,10.469-4.111,15.273c1.063,4.012,1.059,6.34,9.521,8.512s19.787-3.15,19.787-3.15l0.059,0.055
			c-1.387,8.6-15.078,9.262-18.029,11.35c-4.043,2.859,4.826,10.738,9.373,12.742c3.797,1.672,5.615,3.129,12.592-2.131
			c6.977-5.258,9.883-17.43,9.883-17.43L51.594,66c5.855,6.449-2.168,17.563-2.377,21.172c-0.289,4.943,11.402,2.928,15.805,0.625
			c3.676-1.926,5.949-2.438,6.191-11.17c0.242-8.734-7.457-18.6-7.457-18.6l0.045-0.127c8.693-0.555,12.373,12.65,15.063,15.066
			c3.684,3.309,9.402-7.084,10.348-11.965C90.002,56.93,91.02,54.834,84.346,49.197z M49.334,58.988
			c-5.332,0-9.654-4.322-9.654-9.656c0-5.332,4.322-9.654,9.654-9.654c5.334,0,9.656,4.322,9.656,9.654
			C58.99,54.666,54.668,58.988,49.334,58.988z"/>
		<radialGradient id="SVGID_3_" cx="49.335" cy="49.333" r="7.4268" gradientUnits="userSpaceOnUse">
			<stop  offset="0" style="stop-color:#6F718C"/>
			<stop  offset="1" style="stop-color:#484965"/>
		</radialGradient>
		<circle fill="url(#SVGID_3_)" cx="49.335" cy="49.332" r="7.427"/>
		<path fill="none" stroke="#05FF29" stroke-width="0.5" d="M56.055,33.824"/>
	</g>
</g>
</svg>
