<?xml version="1.0" encoding="utf-8"?>
<!-- Generator: Adobe Illustrator 15.0.0, SVG Export Plug-In . SVG Version: 6.00 Build 0)  -->
<!DOCTYPE svg PUBLIC "-//W3C//DTD SVG 1.1 Tiny//EN" "http://www.w3.org/Graphics/SVG/1.1/DTD/svg11-tiny.dtd">
<svg version="1.1" baseProfile="tiny" id="_x30_4-06"
	 xmlns="http://www.w3.org/2000/svg" xmlns:xlink="http://www.w3.org/1999/xlink" x="0px" y="0px" width="77.884px"
	 height="77.882px" viewBox="0 0 77.884 77.882" xml:space="preserve">
<g>
	<path fill="#0F361A" d="M38.941,0C17.434,0,0,17.433,0,38.94c0,21.508,17.434,38.942,38.941,38.942
		c21.507,0,38.943-17.434,38.943-38.942C77.884,17.433,60.448,0,38.941,0z M38.941,70.612c-17.49,0-31.67-14.18-31.67-31.67
		c0-17.491,14.18-31.669,31.67-31.669c17.491,0,31.671,14.178,31.671,31.669C70.612,56.432,56.432,70.612,38.941,70.612z"/>
	<radialGradient id="SVGID_1_" cx="38.9419" cy="38.9424" r="37.4187" gradientUnits="userSpaceOnUse">
		<stop  offset="0" style="stop-color:#4A5A4A"/>
		<stop  offset="0.0502" style="stop-color:#546354"/>
		<stop  offset="0.252" style="stop-color:#788478"/>
		<stop  offset="0.4164" style="stop-color:#8E998E"/>
		<stop  offset="0.522" style="stop-color:#96A096"/>
		<stop  offset="0.6172" style="stop-color:#8F9A8F"/>
		<stop  offset="0.7522" style="stop-color:#7D897D"/>
		<stop  offset="0.91" style="stop-color:#5F6D5F"/>
		<stop  offset="1" style="stop-color:#4A5A4A"/>
	</radialGradient>
	<path fill="url(#SVGID_1_)" d="M38.941,1.524c-20.666,0-37.418,16.752-37.418,37.417c0,20.666,16.752,37.419,37.418,37.419
		c20.667,0,37.419-16.753,37.419-37.419C76.361,18.276,59.608,1.524,38.941,1.524z M38.941,70.612c-17.49,0-31.67-14.18-31.67-31.67
		c0-17.491,14.18-31.669,31.67-31.669c17.491,0,31.671,14.178,31.671,31.669C70.612,56.432,56.432,70.612,38.941,70.612z"/>
	<g>
		<linearGradient id="SVGID_2_" gradientUnits="userSpaceOnUse" x1="5.7832" y1="38.9409" x2="72.1011" y2="38.9409">
			<stop  offset="0" style="stop-color:#1C2B1A"/>
			<stop  offset="0.4371" style="stop-color:#6D8372"/>
			<stop  offset="0.5055" style="stop-color:#7A9180"/>
			<stop  offset="0.9067" style="stop-color:#2E3F2E"/>
			<stop  offset="1" style="stop-color:#1C2B1A"/>
		</linearGradient>
		<path fill="url(#SVGID_2_)" d="M38.941,5.782c-18.313,0-33.158,14.846-33.158,33.159c0,18.313,14.846,33.16,33.158,33.16
			c18.313,0,33.16-14.846,33.16-33.16C72.101,20.627,57.254,5.782,38.941,5.782z M38.941,70.612c-17.49,0-31.67-14.18-31.67-31.67
			c0-17.491,14.18-31.669,31.67-31.669c17.491,0,31.671,14.178,31.671,31.669C70.612,56.432,56.432,70.612,38.941,70.612z"/>
		<g>
			<g>
				<g>
					<linearGradient id="SVGID_3_" gradientUnits="userSpaceOnUse" x1="20.8882" y1="20.0205" x2="41.1923" y2="19.4711">
						<stop  offset="0" style="stop-color:#E6E6F0"/>
						<stop  offset="0.4945" style="stop-color:#D6D6CC"/>
						<stop  offset="1" style="stop-color:#C9CFA1"/>
					</linearGradient>
					<path fill="url(#SVGID_3_)" d="M34.641,28.936c0,0-4.834-5.807-9.133-8.6c-5.434-3.53-6.907-4.206-0.499-7.442
						c6.405-3.237,13.345-3.231,14.797-0.765c1.453,2.467,2.282,10.879-0.192,15.745C39.613,27.874,36.026,27.83,34.641,28.936z"/>
					<path fill="#C9CFA1" d="M35.64,28.489c-1.157,1.296,4.035-0.565,4.035-0.565c2.476-4.867,1.643-13.278,0.193-15.745
						C38.703,10.2,34.016,9.805,28.9,11.393c0,0,1.125-0.847,4.235,1.149C36.996,15.02,38.088,25.752,35.64,28.489z"/>
				</g>
				<path fill="#C4C7A1" d="M33.986,28.311c0,0-0.719-1.069-1.081-1.365c0,0,2.457-2.172,7.703-1.687c0,0-0.245,1.18-0.541,1.574
					L33.986,28.311z"/>
			</g>
			<g>
				<g>
					<linearGradient id="SVGID_4_" gradientUnits="userSpaceOnUse" x1="41.7441" y1="14.0918" x2="56.0254" y2="28.2243">
						<stop  offset="0" style="stop-color:#E6E6F0"/>
						<stop  offset="0.4945" style="stop-color:#D6D6CC"/>
						<stop  offset="1" style="stop-color:#C9CFA1"/>
					</linearGradient>
					<path fill="url(#SVGID_4_)" d="M44.129,29.498c0,0,1.393-7.426,0.805-12.52c-0.743-6.437-1.163-8.002,5.418-5.129
						c6.577,2.874,10.997,8.224,10.022,10.915c-0.975,2.691-6.928,8.694-12.256,9.888C48.118,32.652,45.865,29.861,44.129,29.498z"
						/>
					<path fill="#C9CFA1" d="M45.111,29.983c-1.737-0.067,3.007,2.748,3.007,2.748c5.33-1.194,11.283-7.197,12.258-9.888
						c0.781-2.157-1.903-6.022-6.386-8.951c0,0,1.369,0.328,1.813,3.997C56.355,22.442,48.779,30.125,45.111,29.983z"/>
				</g>
				<path fill="#C4C7A1" d="M44.172,28.649c0,0,0.366-1.235,0.364-1.701c0,0,3.239,0.507,6.212,4.858c0,0-1.066,0.563-1.561,0.586
					L44.172,28.649z"/>
			</g>
			<g>
				<g>
					<linearGradient id="SVGID_5_" gradientUnits="userSpaceOnUse" x1="13.6514" y1="41.4204" x2="24.8205" y2="24.6731">
						<stop  offset="0" style="stop-color:#E6E6F0"/>
						<stop  offset="0.4945" style="stop-color:#D6D6CC"/>
						<stop  offset="1" style="stop-color:#C9CFA1"/>
					</linearGradient>
					<path fill="url(#SVGID_5_)" d="M28.426,35.981c0,0-7.552,0.155-12.417,1.772C9.859,39.797,8.413,40.528,9.88,33.5
						c1.467-7.027,5.802-12.447,8.634-12.042c2.834,0.403,9.927,5.002,12.187,9.973C30.701,31.432,28.428,34.207,28.426,35.981z"/>
					<path fill="#C9CFA1" d="M28.701,34.92c0.289,1.714,2.075-3.506,2.075-3.506c-2.259-4.972-9.353-9.569-12.185-9.974
						c-2.271-0.324-5.505,3.094-7.457,8.081c0,0,0.042-1.408,3.542-2.593C19.019,25.458,28.09,31.3,28.701,34.92z"/>
				</g>
				<path fill="#C4C7A1" d="M27.523,36.135c0,0-1.283-0.104-1.741-0.007c0,0-0.163-3.274,3.489-7.072c0,0,0.768,0.928,0.892,1.406
					L27.523,36.135z"/>
			</g>
			<g>
				<g>
					<linearGradient id="SVGID_6_" gradientUnits="userSpaceOnUse" x1="16.2666" y1="60.3369" x2="23.1508" y2="39.1494">
						<stop  offset="0" style="stop-color:#E6E6F0"/>
						<stop  offset="0.4945" style="stop-color:#D6D6CC"/>
						<stop  offset="1" style="stop-color:#C9CFA1"/>
					</linearGradient>
					<path fill="url(#SVGID_6_)" d="M30.262,45.381c0,0-4.591,6-6.362,10.812c-2.239,6.08-2.572,7.667-7.146,2.136
						c-4.577-5.531-6.107-12.3-4.025-14.262c2.086-1.963,10.105-4.637,15.398-3.301C28.126,40.766,28.876,44.273,30.262,45.381z"/>
					<path fill="#C9CFA1" d="M29.605,44.504c1.52,0.843-1.446-3.808-1.446-3.808c-5.293-1.336-13.314,1.337-15.398,3.299
						c-1.669,1.574-1.016,6.234,1.666,10.87c0,0-1.077-0.911,0.182-4.386C16.169,46.167,26.395,42.725,29.605,44.504z"/>
				</g>
				<path fill="#C4C7A1" d="M29.77,46.186c0,0-0.885,0.938-1.092,1.356c0,0-2.664-1.915-3.353-7.139c0,0,1.204-0.021,1.654,0.18
					L29.77,46.186z"/>
			</g>
			<g>
				<g>
					<linearGradient id="SVGID_7_" gradientUnits="userSpaceOnUse" x1="44.6226" y1="67.6372" x2="28.5089" y2="53.2299">
						<stop  offset="0" style="stop-color:#E6E6F0"/>
						<stop  offset="0.4945" style="stop-color:#D6D6CC"/>
						<stop  offset="1" style="stop-color:#C9CFA1"/>
					</linearGradient>
					<path fill="url(#SVGID_7_)" d="M38.051,49.481c0,0,1.952,7.299,4.683,11.638c3.451,5.484,4.506,6.714-2.668,6.965
						c-7.175,0.252-13.472-2.665-13.755-5.513c-0.283-2.849,2.491-10.834,6.779-14.212C33.089,48.359,36.327,49.903,38.051,49.481z"
						/>
					<path fill="#C9CFA1" d="M36.953,49.466c1.596-0.689-3.9-1.178-3.9-1.178c-4.287,3.379-7.06,11.365-6.778,14.212
						c0.229,2.284,4.318,4.609,9.627,5.313c0,0-1.378,0.297-3.362-2.821C30.074,61.127,33.586,50.925,36.953,49.466z"/>
				</g>
				<path fill="#C4C7A1" d="M38.391,50.338c0,0,0.201,1.272,0.404,1.691c0,0-3.14,0.941-7.7-1.699c0,0,0.719-0.967,1.152-1.201
					L38.391,50.338z"/>
			</g>
			<g>
				<g>
					<linearGradient id="SVGID_8_" gradientUnits="userSpaceOnUse" x1="64.8667" y1="50.9482" x2="44.2075" y2="55.9615">
						<stop  offset="0" style="stop-color:#E6E6F0"/>
						<stop  offset="0.4945" style="stop-color:#D6D6CC"/>
						<stop  offset="1" style="stop-color:#C9CFA1"/>
					</linearGradient>
					<path fill="url(#SVGID_8_)" d="M46.94,45.794c0,0,6.871,3.148,11.955,3.81c6.426,0.837,8.045,0.81,3.667,6.497
						c-4.379,5.688-10.641,8.681-13.017,7.084c-2.376-1.597-6.761-8.824-6.63-14.283C42.915,48.901,46.168,47.391,46.94,45.794z"/>
					<path fill="#C9CFA1" d="M46.231,46.63c0.486-1.668-3.393,2.254-3.393,2.254c-0.13,5.458,4.256,12.684,6.628,14.283
						c1.906,1.279,6.305-0.39,10.233-4.032c0,0-0.648,1.25-4.318,0.792C50.831,59.363,45.207,50.155,46.231,46.63z"/>
				</g>
				<path fill="#C4C7A1" d="M47.79,46.079c0,0,1.111,0.653,1.563,0.766c0,0-1.278,3.021-6.219,4.849c0,0-0.287-1.169-0.191-1.653
					L47.79,46.079z"/>
			</g>
			<g>
				<g>
					<linearGradient id="SVGID_9_" gradientUnits="userSpaceOnUse" x1="62.4043" y1="24.8071" x2="56.3394" y2="44.6444">
						<stop  offset="0" style="stop-color:#E6E6F0"/>
						<stop  offset="0.4945" style="stop-color:#D6D6CC"/>
						<stop  offset="1" style="stop-color:#C9CFA1"/>
					</linearGradient>
					<path fill="url(#SVGID_9_)" d="M49.165,36.352c0,0,6.688-3.522,10.314-7.146c4.583-4.582,5.549-5.882,7.383,1.059
						c1.834,6.94,0.387,13.728-2.328,14.634c-2.715,0.908-11.116-0.028-15.363-3.461C49.171,41.438,49.959,37.938,49.165,36.352z"/>
					<path fill="#C9CFA1" d="M49.395,37.425c-1.026-1.404-0.283,4.063-0.283,4.063c4.245,3.433,12.646,4.368,15.362,3.462
						c2.174-0.729,3.537-5.232,3.049-10.565c0,0,0.592,1.276-2.008,3.903C62.29,41.55,51.564,40.386,49.395,37.425z"/>
				</g>
				<path fill="#C4C7A1" d="M49.914,35.844c0,0,1.196-0.481,1.561-0.772c0,0,1.612,2.855,0.049,7.885c0,0-1.104-0.486-1.428-0.856
					L49.914,35.844z"/>
			</g>
		</g>
		<g>
			<g>
				<g>
					<path fill="none" stroke="#B5C291" stroke-width="0.8644" d="M34.531,28.904c0,0-4.787-5.748-9.042-8.514
						c-5.38-3.494-6.838-4.163-0.496-7.368c6.344-3.205,13.215-3.199,14.651-0.757c1.437,2.442,2.26,10.771-0.191,15.588
						C39.453,27.853,35.905,27.809,34.531,28.904z"/>
				</g>
			</g>
			<g>
				<g>
					<path fill="none" stroke="#B5C291" stroke-width="0.8644" d="M43.925,29.46c0,0,1.378-7.352,0.797-12.395
						c-0.735-6.372-1.152-7.922,5.36-5.077c6.514,2.845,10.89,8.141,9.924,10.806c-0.967,2.664-6.857,8.606-12.134,9.789
						C47.872,32.583,45.645,29.819,43.925,29.46z"/>
				</g>
			</g>
			<g>
				<g>
					<path fill="none" stroke="#B5C291" stroke-width="0.8644" d="M28.379,35.879c0,0-7.477,0.154-12.295,1.755
						c-6.087,2.023-7.519,2.746-6.067-4.21c1.454-6.958,5.744-12.323,8.55-11.923c2.804,0.399,9.828,4.952,12.063,9.874
						C30.63,31.375,28.379,34.123,28.379,35.879z"/>
				</g>
			</g>
			<g>
				<g>
					<path fill="none" stroke="#B5C291" stroke-width="0.8644" d="M30.196,45.184c0,0-4.544,5.941-6.299,10.705
						c-2.217,6.019-2.545,7.589-7.075,2.114c-4.53-5.475-6.048-12.177-3.984-14.119c2.063-1.943,10.002-4.591,15.243-3.269
						C28.081,40.615,28.826,44.088,30.196,45.184z"/>
				</g>
			</g>
			<g>
				<g>
					<path fill="none" stroke="#B5C291" stroke-width="0.8644" d="M37.906,49.244c0,0,1.934,7.226,4.636,11.521
						c3.417,5.429,4.461,6.646-2.641,6.896c-7.104,0.249-13.336-2.638-13.618-5.458c-0.281-2.819,2.466-10.725,6.711-14.071
						C32.995,48.132,36.2,49.662,37.906,49.244z"/>
				</g>
			</g>
			<g>
				<g>
					<path fill="none" stroke="#B5C291" stroke-width="0.8644" d="M46.708,45.594c0,0,6.804,3.117,11.835,3.771
						c6.36,0.828,7.963,0.802,3.629,6.432c-4.336,5.631-10.533,8.595-12.888,7.013c-2.351-1.581-6.692-8.736-6.563-14.141
						C42.722,48.669,45.943,47.174,46.708,45.594z"/>
				</g>
			</g>
			<g>
				<g>
					<path fill="none" stroke="#B5C291" stroke-width="0.8644" d="M48.91,36.246c0,0,6.619-3.487,10.209-7.075
						c4.54-4.535,5.495-5.822,7.311,1.049c1.814,6.87,0.383,13.59-2.305,14.488c-2.689,0.899-11.006-0.028-15.212-3.427
						C48.914,41.281,49.696,37.816,48.91,36.246z"/>
				</g>
			</g>
		</g>
		<g>
			<radialGradient id="SVGID_10_" cx="38.9248" cy="38.9541" r="13.3866" gradientUnits="userSpaceOnUse">
				<stop  offset="0" style="stop-color:#E6E6F0"/>
				<stop  offset="0.4945" style="stop-color:#D6D6CC"/>
				<stop  offset="0.8022" style="stop-color:#C9CFA1"/>
				<stop  offset="1" style="stop-color:#E6E6F0"/>
			</radialGradient>
			<circle fill="url(#SVGID_10_)" stroke="#B5C291" stroke-width="0.7203" cx="38.925" cy="38.954" r="12.495"/>
			<radialGradient id="SVGID_11_" cx="38.9238" cy="38.9551" r="9.9487" gradientUnits="userSpaceOnUse">
				<stop  offset="0.522" style="stop-color:#A8BAB0"/>
				<stop  offset="0.5977" style="stop-color:#A2B4A9"/>
				<stop  offset="0.7051" style="stop-color:#90A397"/>
				<stop  offset="0.8307" style="stop-color:#738879"/>
				<stop  offset="0.9121" style="stop-color:#5C7361"/>
				<stop  offset="0.9535" style="stop-color:#5E7563"/>
				<stop  offset="0.9685" style="stop-color:#647B6A"/>
				<stop  offset="0.9791" style="stop-color:#708575"/>
				<stop  offset="0.9877" style="stop-color:#809586"/>
				<stop  offset="0.995" style="stop-color:#95A89C"/>
				<stop  offset="1" style="stop-color:#A8BAB0"/>
			</radialGradient>
			<circle fill="url(#SVGID_11_)" cx="38.924" cy="38.955" r="9.949"/>
			<radialGradient id="SVGID_12_" cx="38.9243" cy="38.9551" r="8.1033" gradientUnits="userSpaceOnUse">
				<stop  offset="0" style="stop-color:#DCDCD2"/>
				<stop  offset="1" style="stop-color:#A0A08C"/>
			</radialGradient>
			<circle fill="url(#SVGID_12_)" cx="38.924" cy="38.955" r="8.103"/>
		</g>
	</g>
</g>
</svg>
