<?xml version="1.0" encoding="utf-8"?>
<!-- Generator: Adobe Illustrator 15.0.0, SVG Export Plug-In . SVG Version: 6.00 Build 0)  -->
<!DOCTYPE svg PUBLIC "-//W3C//DTD SVG 1.1 Tiny//EN" "http://www.w3.org/Graphics/SVG/1.1/DTD/svg11-tiny.dtd">
<svg version="1.1" baseProfile="tiny" id="_x30_7-09"
	 xmlns="http://www.w3.org/2000/svg" xmlns:xlink="http://www.w3.org/1999/xlink" x="0px" y="0px" width="73.654px"
	 height="73.684px" viewBox="0 0 73.654 73.684" xml:space="preserve">
<g>
	<circle fill="#B18886" cx="36.866" cy="36.868" r="7.948"/>
	<g>
		<path fill="#6B454A" d="M37.352,27.079c0,0,7.594,0.712,9.02,8.426c0,0,6.053-1.187,11.631,4.51s10.443,8.545,13.766,5.341
			c3.324-3.205,2.352-23.471-3.678-32.4C61.918,3.817,51.83,1.918,37.352,27.079z"/>
		<path fill="#6B454A" d="M46.611,37.381c0,0-0.711,7.595-8.426,9.02c0,0,1.188,6.053-4.51,11.631s-8.545,10.443-5.34,13.767
			c3.203,3.323,23.471,2.351,32.398-3.679C69.873,61.948,71.771,51.859,46.611,37.381z"/>
		<path fill="#6B454A" d="M36.303,46.559c0,0-7.594-0.712-9.02-8.426c0,0-6.053,1.188-11.631-4.51S5.209,25.078,1.887,28.282
			c-3.324,3.204-2.352,23.471,3.678,32.399C11.736,69.82,21.824,71.719,36.303,46.559z"/>
		<path fill="#6B454A" d="M27.125,36.303c0,0,0.711-7.595,8.426-9.02c0,0-1.188-6.053,4.51-11.631S48.605,5.209,45.4,1.886
			C42.197-1.437,21.93-0.464,13.002,5.565C3.863,11.736,1.965,21.825,27.125,36.303z"/>
	</g>
</g>
</svg>
