<!DOCTYPE svg PUBLIC "-//W3C//DTD SVG 20000303 Stylable//EN" "http://www.w3.org/TR/2000/03/WD-SVG-20000303/DTD/svg-20000303-stylable.dtd"[]><svg xmlns="http://www.w3.org/2000/svg" width="834px" height="999px" viewBox="0 0 824 998"><circle style="fill:#ffab00;stroke:#4c4c4c;stroke-width:2" cx="138" cy="71" r="71" /><circle style="fill:#ffff56;stroke:#ffff56;stroke-width:2" cx="111" cy="51" r="20" /><path style="fill:#ababab;stroke:#4c4c4c;stroke-width:2" d="M55,528 l91,0 0,470 -91,0 0,-470z" /><path style="fill:#ababab;stroke:#4c4c4c;stroke-width:2" d="M678,528 l92,0 0,468 -92,0 0,-468z" /><path style="fill:#ababab;stroke:#4c4c4c;stroke-width:2" d="M148,855 l530,0 0,50 -530,0 0,-50z" /><path style="fill:#00f;stroke:#4c4c4c;stroke-width:2" d="M52,142 l179,0 0,94 -179,0 0,-94z" /><path style="fill:#f00;stroke:#ababab;stroke-width:2" d="M0,237 l824,0 0,292 -824,0 0,-292z" /><path style="fill:#fff;stroke:#ababab;stroke-width:2" d="M2,279 l34,-39 56,0 -90,104 0,-65z" /><path style="fill:#fff;stroke:#ababab;stroke-width:2" d="M2,445 l178,-205 76,0 -249,286 -5,0 0,-81z" /><path style="fill:#fff;stroke:#ababab;stroke-width:2" d="M75,526 l249,-286 83,0 -249,286 -83,0z" /><path style="fill:#fff;stroke:#ababab;stroke-width:2" d="M241,526 l249,-286 73,0 -249,286 -73,0z" /><path style="fill:#fff;stroke:#ababab;stroke-width:2" d="M412,526 l249,-286 87,0 -248,286 -88,0z" /><path style="fill:#fff;stroke:#ababab;stroke-width:2" d="M591,526 l230,-267 0,108 -138,159 -92,0z" /></svg>