<!DOCTYPE svg PUBLIC "-//W3C//DTD SVG 20000303 Stylable//EN" "http://www.w3.org/TR/2000/03/WD-SVG-20000303/DTD/svg-20000303-stylable.dtd"[]><svg xmlns="http://www.w3.org/2000/svg" width="999px" height="678px" viewBox="0 0 999 659"><path style="fill:#999;stroke:#4c4c4c;stroke-width:2" d="M999,639 l-134,-639 -10,0 0,51 124,588 20,0z" /><path style="fill:#999;stroke:#4c4c4c;stroke-width:2" d="M339,639 l-134,-639 -10,0 0,51 124,588 20,0z" /><path style="fill:#b2b2b2;stroke:#4c4c4c;stroke-width:2" d="M917,639 l-134,-639 62,0 134,639 -62,0z" /><path style="fill:#b2b2b2;stroke:#4c4c4c;stroke-width:2" d="M257,639 l-134,-639 62,0 134,639 -62,0z" /><path style="fill:#fff;stroke:#4c4c4c;stroke-width:2" d="M969,51 l-969,0 0,154 969,0 0,-154z" /><path style="fill:#f60;stroke:#4c4c4c;stroke-width:2" d="M0,205 l59,-154 62,0 -62,154 -59,0z" /><path style="fill:#f60;stroke:#4c4c4c;stroke-width:2" d="M121,205 l60,-154 60,0 -60,154 -60,0z" /><path style="fill:#f60;stroke:#4c4c4c;stroke-width:2" d="M241,205 l62,-154 60,0 -60,154 -62,0z" /><path style="fill:#f60;stroke:#4c4c4c;stroke-width:2" d="M363,205 l60,-154 60,0 -60,154 -60,0z" /><path style="fill:#f60;stroke:#4c4c4c;stroke-width:2" d="M483,205 l62,-154 60,0 -60,154 -62,0z" /><path style="fill:#f60;stroke:#4c4c4c;stroke-width:2" d="M605,205 l60,-154 60,0 -60,154 -60,0z" /><path style="fill:#f60;stroke:#4c4c4c;stroke-width:2" d="M725,205 l62,-154 60,0 -60,154 -62,0z" /><path style="fill:#f60;stroke:#4c4c4c;stroke-width:2" d="M847,205 l59,-154 63,0 -63,154 -59,0z" /><path style="fill:#b2b2b2;stroke:#4c4c4c;stroke-width:2" d="M969,41 l20,0 0,174 -20,0 0,-174z" /><path style="fill:#fff;stroke:#4c4c4c;stroke-width:2" d="M0,41 l969,0 0,10 -969,0 0,-10z" /><path style="fill:#fff;stroke:#4c4c4c;stroke-width:2" d="M0,205 l969,0 0,10 -969,0 0,-10z" /><path style="fill:#e5e5e5;stroke:#4c4c4c;stroke-width:2" d="M0,659 l123,-659 62,0 -124,659 -61,0z" /><path style="fill:#b2b2b2;stroke:#4c4c4c;stroke-width:2" d="M61,659 l124,-659 10,0 0,51 -114,608 -20,0z" /><path style="fill:#e5e5e5;stroke:#4c4c4c;stroke-width:2" d="M659,659 l124,-659 62,0 -124,659 -62,0z" /><path style="fill:#b2b2b2;stroke:#4c4c4c;stroke-width:2" d="M721,659 l124,-659 10,0 0,51 -114,608 -20,0z" /></svg>