<!DOCTYPE svg PUBLIC "-//W3C//DTD SVG 20000303 Stylable//EN" "http://www.w3.org/TR/2000/03/WD-SVG-20000303/DTD/svg-20000303-stylable.dtd"[]><svg xmlns="http://www.w3.org/2000/svg" width="999px" height="999px" viewBox="0 0 999 999"><path style="fill:#fff;stroke:#4c4c4c;stroke-width:2" d="M999,915 l0,-832 -1,-8 -1,-8 -2,-9 -3,-7 -4,-7 -4,-7 -5,-7 -5,-6 -6,-5 -7,-5 -7,-4 -7,-4 -7,-3 -9,-2 -8,-1 -8,0 -832,0 -8,0 -8,1 -9,2 -7,3 -7,4 -7,4 -7,5 -6,5 -5,6 -5,7 -4,7 -4,7 -3,7 -2,9 -1,8 0,8 0,832 0,8 1,8 2,9 3,7 4,7 4,7 5,7 5,6 6,5 7,5 7,4 7,4 7,3 9,2 8,1 8,1 832,0 8,-1 8,-1 9,-2 7,-3 7,-4 7,-4 7,-5 6,-5 5,-6 5,-7 4,-7 4,-7 3,-7 2,-9 1,-8 1,-8z" /><circle style="fill:#f00" cx="499" cy="499" r="458" /><path style="fill:#fff" d="M103,415 l792,0 0,168 -792,0 0,-168z" /></svg>