<!DOCTYPE svg PUBLIC "-//W3C//DTD SVG 20000303 Stylable//EN" "http://www.w3.org/TR/2000/03/WD-SVG-20000303/DTD/svg-20000303-stylable.dtd"[]><svg xmlns="http://www.w3.org/2000/svg" width="763px" height="998px" viewBox="0 0 749 998"><path style="fill:#fff" d="M0,0 l749,0 0,998 -749,0 0,-998z" /><path style="fill:#f00" d="M0,83 l83,-83 124,0 -207,207 0,-124z" /><path style="fill:#f00" d="M0,333 l333,-333 124,0 -457,457 0,-124z" /><path style="fill:#f00" d="M0,583 l583,-583 124,0 -707,707 0,-124z" /><path style="fill:#f00" d="M0,833 l749,-750 0,124 -749,750 0,-124z" /><path style="fill:#f00" d="M749,333 l-666,665 124,0 542,-541 0,-124z" /><path style="fill:#f00" d="M333,998 l416,-415 0,124 -292,291 -124,0z" /><path style="fill:#f00" d="M583,998 l166,-165 0,124 -42,41 -124,0z" /><path style="fill:none;stroke:#f00;stroke-width:2" d="M0,0 l749,0 0,998 -749,0 0,-998" /><path style="fill:#fff" d="M123,123 l502,0 0,750 -502,0 0,-750z" /></svg>