<!DOCTYPE svg PUBLIC "-//W3C//DTD SVG 20000303 Stylable//EN" "http://www.w3.org/TR/2000/03/WD-SVG-20000303/DTD/svg-20000303-stylable.dtd"[]><svg xmlns="http://www.w3.org/2000/svg" width="686px" height="999px" viewBox="0 0 667 999"><path style="fill:#fff" d="M0,999 l0,-916 83,-83 500,0 84,83 0,916 -667,0z" /><path style="fill:#f00" d="M0,83 l83,-83 166,0 -249,249 0,-166z" /><path style="fill:#f00" d="M1,415 l416,-415 166,0 -582,583 0,-168z" /><path style="fill:#f00" d="M1,749 l666,-666 0,166 -666,666 0,-166z" /><path style="fill:#f00" d="M83,999 l584,-584 0,168 -418,416 -166,0z" /><path style="fill:#f00" d="M417,999 l250,-250 -2,166 -82,84 -166,0z" /><path style="fill:#000;stroke:#4c4c4c;stroke-width:2" d="M41,123 l584,0 0,188 -584,0 0,-188z" /><path style="fill:#fff" d="M333,129 l-15,0 -15,0 -15,0 -14,0 -14,1 -14,0 -13,0 -14,1 -12,0 -13,1 -12,1 -11,0 -11,2 -11,1 -10,1 -10,2 -9,2 -9,2 -9,3 -7,2 -8,3 -6,4 -6,3 -6,4 -5,5 -4,4 -4,5 -3,6 -3,5 -1,7 -1,6 -1,7 1,9 1,9 1,7 3,8 3,6 4,7 4,6 5,5 6,5 6,4 6,5 8,3 7,4 9,3 9,3 9,2 10,2 10,2 11,2 11,1 11,1 12,1 13,1 12,1 14,0 13,1 14,0 14,0 14,0 15,0 15,0 15,0 15,0 15,0 15,0 14,0 14,0 14,0 14,-1 13,0 13,-1 12,-1 12,-1 12,-1 11,-1 10,-2 11,-2 10,-2 9,-2 9,-3 8,-3 8,-4 7,-3 7,-5 6,-4 5,-5 5,-5 5,-6 3,-7 3,-6 3,-8 2,-7 1,-9 0,-9 0,-7 -1,-6 -2,-7 -3,-5 -3,-6 -3,-5 -5,-4 -5,-5 -5,-4 -6,-3 -7,-4 -7,-3 -8,-2 -8,-3 -9,-2 -9,-2 -10,-2 -11,-1 -10,-1 -11,-2 -12,0 -12,-1 -12,-1 -13,0 -13,-1 -14,0 -14,0 -14,-1 -14,0 -15,0 -15,0 -15,0z" /><path style="fill:#f00" d="M333,135 l-15,0 -14,0 -15,0 -14,0 -14,1 -13,0 -13,0 -13,0 -13,1 -12,1 -12,0 -11,1 -11,1 -11,2 -10,1 -10,2 -9,1 -9,3 -8,2 -8,2 -7,3 -6,3 -7,4 -5,4 -5,4 -4,4 -4,5 -3,5 -3,5 -1,6 -1,7 -1,6 1,9 1,8 1,7 3,7 3,6 4,6 4,5 5,6 5,4 7,4 6,4 7,4 8,3 8,3 9,3 9,2 10,2 10,2 11,1 11,1 11,2 12,1 12,0 13,1 13,0 13,1 13,0 14,0 14,0 15,0 14,0 15,0 15,0 15,0 14,0 14,0 14,0 13,0 14,-1 13,0 12,-1 12,0 12,-1 12,-2 11,-1 10,-1 10,-2 10,-2 9,-2 9,-3 8,-3 8,-3 7,-4 7,-4 6,-4 5,-4 5,-6 5,-5 3,-6 3,-6 3,-7 2,-7 1,-8 0,-9 0,-6 -1,-7 -2,-6 -3,-5 -3,-5 -3,-5 -5,-4 -5,-4 -5,-4 -6,-4 -7,-3 -7,-3 -8,-2 -8,-2 -9,-3 -9,-1 -10,-2 -10,-1 -10,-2 -11,-1 -12,-1 -12,0 -12,-1 -12,-1 -13,0 -14,0 -13,0 -14,-1 -14,0 -14,0 -15,0 -15,0z" /><path style="fill:#fff" d="M497,273 l0,-115 32,0 3,0 3,0 3,0 2,0 2,1 2,0 2,1 1,0 2,1 1,1 1,2 1,1 2,2 1,1 1,2 0,2 1,2 1,2 1,2 0,3 1,2 0,2 0,3 0,2 0,4 0,3 0,3 -1,2 -1,3 -1,2 -1,3 -1,2 -1,2 -2,2 -1,1 -2,2 -2,1 -2,1 -3,1 -2,1 2,2 3,2 2,3 1,2 1,2 1,1 1,2 1,3 1,2 1,3 2,3 1,3 10,22 -19,0 -11,-25 -1,-3 -2,-3 -1,-2 -1,-2 -1,-2 -1,-2 -1,-1 0,-1 -2,-2 -1,-1 -1,-2 -2,0 -1,-1 -2,0 -2,-1 -2,0 -4,0 0,48 -15,0z" /><path style="fill:#fff" d="M425,273 l0,-115 58,0 0,19 -42,0 0,26 39,0 0,19 -39,0 0,32 43,0 0,19 -59,0z" /><path style="fill:#fff" d="M377,231 l0,-19 33,0 0,46 -1,1 -2,2 -1,2 -2,1 -2,2 -2,1 -2,1 -2,2 -2,1 -3,1 -2,1 -3,1 -2,1 -3,0 -2,0 -2,0 -3,0 -3,0 -3,-1 -3,-1 -2,-1 -3,-1 -2,-1 -2,-1 -2,-2 -2,-3 -2,-2 -2,-3 -2,-3 -1,-3 -2,-3 -1,-4 -1,-3 0,-4 -1,-4 -1,-4 0,-4 -1,-4 0,-4 0,-4 0,-4 0,-4 1,-4 0,-5 1,-3 1,-4 0,-4 1,-3 2,-4 1,-3 2,-3 2,-3 2,-3 2,-2 2,-3 2,-2 2,-1 2,-1 3,-1 2,-1 2,-1 3,0 2,0 3,0 4,0 3,0 3,1 3,1 3,2 2,1 3,2 2,2 2,3 1,2 2,3 2,3 1,4 1,4 1,3 1,4 -16,4 -1,-2 0,-2 -1,-2 -1,-2 -1,-1 0,-2 -1,-1 -1,-1 -1,-2 -2,-1 -1,-1 -1,-1 -2,0 -2,-1 -1,0 -2,0 -2,0 -3,1 -2,0 -2,2 -2,1 -2,2 -2,2 -1,2 -2,2 -1,3 -1,3 -1,4 -1,3 0,5 -1,4 0,5 0,5 1,4 0,4 1,4 1,4 1,3 1,3 1,2 2,3 2,2 2,2 2,1 2,1 2,1 3,1 2,0 2,0 3,-1 2,0 3,-1 2,-1 2,-2 3,-2 2,-3 0,-14 -18,0z" /><path style="fill:#fff" d="M263,273 l0,-115 16,0 31,77 0,-77 15,0 0,115 -16,0 -31,-75 0,75 -15,0z" /><path style="fill:#fff" d="M255,273 l-17,0 -7,-26 -31,0 -7,26 -16,0 30,-115 17,0 31,115z" /><path style="fill:#fff" d="M107,158 l28,0 3,0 2,0 2,0 2,0 2,1 2,0 1,1 2,0 1,1 2,1 1,1 2,2 1,1 2,2 1,1 1,2 2,2 1,2 1,2 1,3 1,2 1,2 0,3 1,2 0,3 1,3 0,4 1,3 0,4 0,4 1,3 0,4 0,4 -1,3 0,3 0,3 -1,3 0,3 -1,3 0,3 -1,3 -1,2 -1,3 -1,3 -1,2 -1,3 -1,2 -1,2 -1,1 -2,2 -1,1 -1,1 -2,2 -2,1 -1,1 -2,0 -1,1 -2,0 -1,0 -2,1 -2,0 -2,0 -2,0 -2,0 -29,0 0,-115z" /><path style="fill:#fff" d="M125,353 l416,0 0,438 -416,0 0,-438z" /><path style="fill:none;stroke:#f00;stroke-width:2" d="M0,999 l0,-916 83,-83 500,0 84,83 0,916 -667,0" /><path style="fill:#f00" d="M512,206 l12,0 3,0 2,0 3,0 2,-1 1,0 2,0 1,0 0,0 1,-1 2,-1 1,-1 1,-2 1,-2 0,-2 1,-2 0,-3 0,-2 -1,-3 0,-2 -1,-1 -2,-2 -1,-1 -2,-2 -2,0 0,0 -1,0 -1,0 -2,-1 -1,0 -2,0 -2,0 -2,0 -13,0 0,29z" /><path style="fill:#f00" d="M226,228 l-11,-42 -10,42 21,0z" /><path style="fill:#f00" d="M122,177 l0,77 13,0 2,0 3,-1 2,0 2,0 2,0 2,-1 1,-1 2,-2 0,-1 1,-1 0,-1 1,-1 1,-2 0,-2 1,-1 0,-2 1,-2 0,-2 1,-3 0,-3 0,-2 0,-3 0,-3 0,-4 0,-3 0,-3 0,-3 0,-3 0,-2 -1,-2 0,-2 -1,-2 0,-2 -1,-1 0,-2 -1,-2 -1,-1 0,-1 -1,-1 0,-1 -2,-3 -2,-1 -2,-2 -2,0 -1,-1 -1,0 -1,0 -2,0 -2,-1 -2,0 -2,0 -3,0 -7,0z" /></svg>