<!DOCTYPE svg PUBLIC "-//W3C//DTD SVG 20000303 Stylable//EN" "http://www.w3.org/TR/2000/03/WD-SVG-20000303/DTD/svg-20000303-stylable.dtd"[]><svg xmlns="http://www.w3.org/2000/svg" width="999px" height="999px" viewBox="0 0 999 999"><path style="fill:#fff;stroke:#4c4c4c;stroke-width:2" d="M999,915 l0,-832 -1,-8 -1,-8 -2,-9 -3,-7 -4,-8 -4,-6 -5,-7 -5,-6 -6,-5 -7,-5 -6,-4 -8,-4 -7,-3 -9,-2 -8,-1 -8,0 -832,0 -8,0 -8,1 -9,2 -7,3 -8,4 -6,4 -7,5 -6,5 -5,6 -5,7 -4,6 -4,8 -3,7 -2,9 -1,8 0,8 0,832 0,8 1,8 2,9 3,7 4,8 4,6 5,7 5,6 6,5 7,5 6,4 8,4 7,3 9,2 8,1 8,1 832,0 8,-1 8,-1 9,-2 7,-3 8,-4 6,-4 7,-5 6,-5 5,-6 5,-7 4,-6 4,-8 3,-7 2,-9 1,-8 1,-8z" /><path style="fill:#f00" d="M957,873 l0,-750 -1,-8 -1,-8 -2,-8 -3,-8 -3,-7 -4,-7 -5,-6 -5,-6 -6,-5 -6,-5 -7,-4 -7,-3 -8,-3 -8,-2 -8,-1 -8,-1 -750,0 -8,1 -8,1 -9,2 -7,3 -8,3 -6,4 -7,5 -6,5 -5,6 -5,6 -4,7 -4,7 -3,8 -2,8 -1,8 -1,8 0,750 1,8 1,8 2,9 3,7 4,8 4,6 5,7 5,6 6,5 7,5 6,4 8,4 7,3 9,2 8,1 8,1 750,0 8,-1 8,-1 8,-2 8,-3 7,-4 7,-4 6,-5 6,-5 5,-6 5,-7 4,-6 3,-8 3,-7 2,-9 1,-8 1,-8z" /><path style="fill:#fff" d="M860,343 l0,-71 53,0 0,11 -39,0 0,17 36,0 0,11 -36,0 0,21 40,0 0,11 -54,0z" /><path style="fill:#fff" d="M799,343 l0,-71 14,0 0,60 38,0 0,11 -52,0z" /><path style="fill:#fff" d="M733,343 l0,-71 22,0 3,0 3,0 3,0 2,0 2,1 2,0 1,0 1,0 2,1 1,0 1,1 2,1 1,1 2,1 1,1 1,2 1,1 1,2 1,1 0,2 1,1 0,2 1,2 0,2 0,2 -1,1 0,2 0,2 -1,1 0,1 -1,2 0,1 -2,2 -1,2 -2,1 -1,1 -2,1 -2,2 -3,0 -2,1 -1,0 -2,0 -1,0 -2,0 -2,0 -2,1 -3,0 -2,0 -9,0 0,26 -13,0z" /><ellipse style="fill:#fff" cx="687" cy="307" rx="34" ry="36" /><path style="fill:#fff" d="M589,343 l0,-71 52,0 0,11 -39,0 0,17 36,0 0,11 -36,0 0,21 41,0 0,11 -54,0z" /><path style="fill:#fff" d="M522,343 l0,-71 23,0 3,0 3,0 3,0 2,0 2,1 2,0 1,0 1,0 1,1 2,0 1,1 2,1 1,1 1,1 2,1 1,2 1,1 1,2 0,1 1,2 1,1 0,2 0,2 0,2 0,2 0,1 0,2 0,2 -1,1 0,1 -1,2 0,1 -2,2 -2,2 -1,1 -2,1 -1,1 -3,2 -2,0 -2,1 -1,0 -2,0 -2,0 -2,0 -2,0 -2,1 -2,0 -2,0 -9,0 0,26 -14,0z" /><path style="fill:#fff" d="M448,343 l0,-29 -27,-42 17,0 17,30 17,-30 16,0 -26,42 0,29 -14,0z" /><path style="fill:#fff" d="M358,343 l0,-71 13,0 0,33 30,-33 19,0 -27,28 28,43 -18,0 -20,-33 -12,12 0,21 -13,0z" /><path style="fill:#fff" d="M350,343 l-14,0 -6,-16 -29,0 -5,16 -15,0 27,-71 15,0 27,71z" /><path style="fill:#fff" d="M222,343 l0,-71 52,0 0,11 -39,0 0,17 36,0 0,11 -36,0 0,21 41,0 0,11 -54,0z" /><path style="fill:#fff" d="M150,343 l0,-71 30,0 2,0 3,0 2,0 3,0 2,1 2,0 1,0 2,0 2,2 2,2 2,2 2,2 1,1 0,2 1,1 0,1 1,2 0,1 0,2 0,1 0,2 0,2 0,2 -1,2 0,1 -1,2 -1,1 -1,2 -1,1 -2,1 -2,1 -2,1 -1,1 -2,1 -2,1 -2,0 2,1 2,2 1,1 2,1 0,1 1,1 1,1 1,2 1,1 1,2 2,2 1,2 9,13 -16,0 -11,-16 -3,-3 -2,-2 -1,-2 -1,-2 -2,-1 -1,-1 -1,-1 -2,0 -1,0 -2,-1 -2,0 -3,0 -3,0 0,29 -13,0z" /><path style="fill:#fff" d="M89,343 l0,-71 48,0 0,11 -35,0 0,18 31,0 0,12 -31,0 0,30 -13,0z" /><path style="fill:#fff" d="M786,156 l26,0 2,0 2,1 2,0 2,0 1,0 2,1 1,0 1,0 2,1 1,0 2,1 1,1 1,0 2,1 1,1 1,1 1,2 1,1 1,2 1,1 1,2 1,1 1,2 0,1 1,2 0,2 1,2 0,2 1,2 0,3 0,2 0,2 0,2 0,2 0,3 -1,2 0,2 -1,1 0,2 -1,2 0,2 -1,1 -1,2 -1,2 -1,1 -1,2 -1,1 -2,1 -1,1 -1,1 -1,1 -1,1 -1,1 -2,0 -1,1 -2,0 -1,0 -1,0 -1,1 -2,0 -2,0 -1,0 -2,0 -2,0 -27,0 0,-72z" /><path style="fill:#fff" d="M719,228 l0,-72 52,0 0,12 -38,0 0,16 36,0 0,12 -36,0 0,21 40,0 0,11 -54,0z" /><path style="fill:#fff" d="M647,228 l0,-72 30,0 2,0 3,1 2,0 3,0 2,0 2,1 2,0 1,0 2,2 3,1 2,2 1,2 1,2 0,1 1,2 0,1 1,2 0,1 1,2 0,1 0,2 -1,2 0,2 -1,1 0,2 -1,2 -1,1 -1,2 -1,1 -2,1 -2,1 -2,1 -1,1 -2,1 -2,0 -2,1 2,1 2,1 1,2 2,1 1,1 0,1 1,1 1,2 1,1 1,2 2,2 1,2 9,13 -16,0 -11,-16 -3,-3 -2,-3 -1,-2 -1,-1 -2,-1 -1,-1 -1,-1 -2,0 -1,0 -2,-1 -2,0 -2,0 -3,0 0,29 -14,0z" /><path style="fill:#fff" d="M620,228 l0,-72 13,0 0,72 -13,0z" /><path style="fill:#fff" d="M612,228 l-14,0 -6,-16 -29,0 -6,16 -14,0 27,-72 14,0 28,72z" /><path style="fill:#fff" d="M478,228 l0,-72 14,0 0,28 30,0 0,-28 14,0 0,72 -14,0 0,-32 -30,0 0,32 -14,0z" /><path style="fill:#fff" d="M443,209 l0,-12 27,0 0,12 -27,0z" /><path style="fill:#fff" d="M401,201 l0,-11 30,0 0,28 -1,1 -2,2 -1,1 -2,0 -1,1 -2,1 -2,1 -2,1 -2,0 -2,1 -2,1 -3,0 -2,1 -2,0 -2,0 -2,0 -3,0 -3,0 -2,0 -3,-1 -2,-1 -3,0 -2,-1 -2,-1 -2,-1 -2,-2 -2,-1 -1,-2 -2,-1 -1,-2 -1,-2 -1,-2 -1,-2 -1,-2 0,-3 -1,-2 -1,-3 0,-2 0,-3 0,-3 0,-2 0,-3 0,-2 1,-3 1,-2 0,-2 1,-3 1,-2 1,-2 2,-2 1,-2 2,-1 2,-2 2,-2 2,-2 2,-1 1,-1 2,0 2,-1 2,0 2,-1 3,0 2,-1 3,0 3,0 3,1 3,0 3,1 2,1 3,1 2,1 2,1 1,1 2,2 1,2 2,2 1,2 1,2 1,3 0,2 -13,3 -1,-3 -2,-2 -1,-2 -2,-1 -1,-1 -2,-1 -1,0 -1,-1 -2,0 -1,-1 -2,0 -1,0 -2,0 -3,0 -2,1 -2,1 -2,1 -1,1 -2,1 -1,1 -2,2 -1,2 -1,2 -1,2 -1,3 0,2 -1,3 0,2 0,3 1,3 0,3 1,2 0,2 1,2 1,2 2,1 1,2 2,1 2,1 2,1 2,1 2,0 3,1 2,0 2,0 3,-1 2,0 2,0 3,-1 2,-1 2,-1 2,-2 0,-10 -17,0z" /><path style="fill:#fff" d="M296,228 l0,-72 13,0 31,50 0,-50 13,0 0,72 -15,0 -29,-47 0,47 -13,0z" /><ellipse style="fill:#fff" cx="250" cy="192" rx="34" ry="37" /><path style="fill:#fff" d="M157,228 l0,-72 14,0 0,61 37,0 0,11 -51,0z" /><path style="fill:#fff" d="M860,615 l0,-165 -34,0 0,-32 90,0 0,32 -34,0 0,165 -22,0z" /><ellipse style="fill:#fff" cx="758" cy="516" rx="55" ry="100" /><path style="fill:#fff" d="M591,615 l0,-197 22,0 50,135 0,-135 21,0 0,197 -24,0 -47,-131 0,131 -22,0z" /><path style="fill:#fff" d="M428,418 l43,0 3,0 3,0 3,1 3,1 3,0 3,1 2,1 2,1 2,1 2,2 3,2 2,2 2,2 3,3 2,3 1,2 2,4 2,4 1,4 2,4 1,4 2,4 1,4 1,4 1,5 1,5 1,6 0,6 1,6 0,6 0,7 0,6 0,6 0,5 0,6 -1,6 0,5 -1,5 -1,5 -1,4 -1,5 -1,5 -2,5 -1,5 -2,4 -2,4 -2,3 -2,3 -1,3 -2,3 -2,2 -2,3 -2,2 -3,2 -2,1 -2,1 -2,0 -2,1 -2,0 -3,1 -3,0 -2,1 -3,0 -4,0 -44,0 0,-197z" /><path style="fill:#fff" d="M320,615 l0,-197 85,0 0,32 -63,0 0,44 59,0 0,32 -59,0 0,57 66,0 0,32 -88,0z" /><path style="fill:#fff" d="M212,615 l0,-197 85,0 0,32 -63,0 0,44 59,0 0,32 -59,0 0,57 66,0 0,32 -88,0z" /><path style="fill:#fff" d="M95,615 l0,-197 22,0 50,135 0,-135 22,0 0,197 -25,0 -47,-131 0,131 -22,0z" /><path style="fill:#fff" d="M696,853 l0,-82 -44,-115 26,0 28,83 28,-83 26,0 -42,115 0,82 -22,0z" /><path style="fill:#fff" d="M581,853 l0,-197 22,0 0,165 61,0 0,32 -83,0z" /><path style="fill:#fff" d="M352,853 l-23,0 -10,-45 -47,0 -9,45 -23,0 44,-197 23,0 45,197z" /><path style="fill:#f00" d="M313,776 l-18,-74 -16,74 34,0z" /><path style="fill:#fff" d="M364,853 l0,-197 37,0 5,0 5,0 4,1 4,1 3,0 3,1 2,1 1,1 3,1 2,2 2,2 3,2 2,2 2,4 2,3 2,3 2,4 1,4 1,4 1,5 1,5 1,5 0,5 0,5 0,5 0,5 0,4 -1,4 0,4 -1,4 -1,3 -1,3 -1,3 -1,3 -2,2 -1,3 -2,2 -1,2 -1,1 -1,1 -2,2 -1,2 -2,2 -1,1 -2,1 -2,1 -2,1 -2,0 -2,0 -3,1 -2,0 -3,0 -4,1 -3,0 -4,1 -3,0 -15,0 0,74 -22,0z" /><path style="fill:#f00" d="M386,688 l0,59 13,0 4,0 3,-1 3,0 3,-1 3,0 2,0 1,-1 2,0 1,0 1,-1 1,-1 2,-1 1,-1 1,-2 1,-2 0,-2 1,-2 0,-2 1,-2 0,-2 1,-2 0,-3 0,-2 0,-2 0,-2 0,-2 0,-2 -1,-2 0,-3 -1,-2 -1,-2 -1,-2 -1,-2 -1,-2 -2,-1 -1,-2 -2,-1 -1,-1 -1,0 -1,-1 -2,0 -1,0 -2,-1 -3,0 -2,0 -3,-1 -3,0 -3,0 -12,0z" /><path style="fill:#fff" d="M472,853 l0,-197 37,0 5,0 5,0 4,1 4,1 3,0 3,1 2,1 2,1 2,1 2,2 3,2 2,2 2,2 3,4 2,3 1,3 2,4 1,4 2,4 1,5 0,5 1,5 1,5 0,5 0,5 -1,5 0,4 0,4 -1,4 -1,4 -1,3 -1,3 -1,3 -1,3 -1,2 -2,3 -1,2 -2,2 -1,1 -1,1 -1,2 -2,2 -1,2 -2,1 -2,1 -2,1 -2,1 -1,0 -3,0 -2,1 -3,0 -3,0 -3,1 -4,0 -3,1 -4,0 -15,0 0,74 -22,0z" /><path style="fill:#f00" d="M494,688 l0,59 13,0 4,0 4,-1 3,0 2,-1 3,0 2,0 2,-1 1,0 1,0 1,-1 2,-1 1,-1 1,-1 1,-2 1,-2 1,-2 0,-2 1,-2 0,-2 1,-2 0,-2 0,-3 1,-2 0,-2 0,-2 -1,-2 0,-2 0,-2 -1,-3 -1,-2 -1,-2 -1,-2 -1,-2 -1,-2 -1,-1 -2,-2 -1,-1 -2,-1 -1,0 -1,-1 -1,0 -2,0 -2,-1 -2,0 -3,0 -3,-1 -3,0 -3,0 -12,0z" /><ellipse style="fill:#f00" cx="759" cy="516" rx="34" ry="66" /><path style="fill:#f00" d="M450,450 l0,133 19,0 3,0 2,0 2,0 2,0 2,0 1,0 2,0 1,0 1,0 1,-1 2,-1 1,-1 2,-1 1,-1 1,-2 1,-1 1,-2 1,-2 1,-2 1,-2 1,-3 1,-3 1,-2 1,-3 0,-4 1,-4 0,-4 1,-5 0,-5 0,-4 0,-6 0,-5 0,-6 0,-5 0,-5 0,-5 -1,-5 0,-4 -1,-4 0,-3 -1,-3 -1,-2 -1,-3 -1,-3 -1,-2 -1,-3 -1,-2 -1,-2 -1,-2 -1,-1 -2,-2 -1,-1 -2,-2 -1,-1 -2,0 -1,0 -2,0 -2,-1 -2,0 -3,-1 -3,0 -3,-1 -4,0 -3,0 -11,0z" /><ellipse style="fill:#f00" cx="250" cy="192" rx="21" ry="24" /><path style="fill:#f00" d="M799,168 l0,49 12,0 3,0 2,0 2,0 2,0 1,-1 2,0 2,-1 1,-1 2,-1 1,-2 1,-2 1,-2 0,-2 0,-1 1,-2 0,-1 0,-2 0,-2 1,-2 0,-2 0,-2 -1,-2 0,-2 0,-2 0,-1 -1,-2 0,-1 0,-1 -1,-2 -1,-2 -1,-2 -2,-1 -1,-2 -2,-1 -2,-1 -2,0 -1,0 -1,0 -1,0 -2,-1 -2,0 -2,0 -2,0 -2,0 -7,0z" /><path style="fill:#f00" d="M661,187 l10,0 3,0 2,0 3,0 2,-1 1,0 2,0 1,0 1,0 1,0 1,-1 1,-1 1,-1 1,-1 1,-1 0,-2 0,-1 0,-1 0,-2 -1,-2 -1,-1 -1,-1 -2,-1 -2,-1 -1,0 -1,0 0,0 -1,0 -2,-1 -1,0 -2,0 -2,0 -3,0 -11,0 0,19z" /><path style="fill:#f00" d="M588,200 l-11,-27 -10,27 21,0z" /><path style="fill:#f00" d="M746,283 l0,22 8,0 3,0 2,0 2,0 1,-1 2,0 1,0 1,0 1,0 1,0 2,-1 1,-1 1,-2 1,-1 0,-2 1,-1 0,-2 0,-1 -1,-2 -1,-2 -1,-1 -1,-2 -2,-1 -2,0 -1,-1 -1,0 -1,0 -1,0 -1,0 -2,0 -2,-1 -2,0 -2,0 -7,0z" /><ellipse style="fill:#f00" cx="686" cy="307" rx="20" ry="24" /><path style="fill:#f00" d="M536,283 l0,22 8,0 2,0 2,0 2,0 2,-1 1,0 2,0 1,0 1,0 1,0 2,-1 1,-1 1,-2 1,-1 0,-2 1,-1 0,-2 -1,-1 0,-2 -1,-2 -1,-1 -1,-2 -2,-1 -2,0 -1,-1 -1,0 -1,0 -1,0 -2,0 -1,0 -2,-1 -2,0 -2,0 -7,0z" /><path style="fill:#f00" d="M326,316 l-10,-27 -10,27 20,0z" /><path style="fill:#f00" d="M163,302 l11,0 3,0 2,0 3,0 2,0 1,0 2,-1 1,0 1,0 1,0 1,-1 1,0 1,-1 1,-2 0,-1 1,-1 0,-2 0,-1 -1,-2 0,-2 -1,-1 -1,-1 -2,-1 -2,-1 -1,0 -1,0 0,0 -2,0 -1,0 -2,0 -1,-1 -2,0 -3,0 -12,0 0,19z" /></svg>