<!DOCTYPE svg PUBLIC "-//W3C//DTD SVG 20000303 Stylable//EN" "http://www.w3.org/TR/2000/03/WD-SVG-20000303/DTD/svg-20000303-stylable.dtd"[]><svg xmlns="http://www.w3.org/2000/svg" width="999px" height="999px" viewBox="0 0 999 999"><path style="fill:#f60;stroke:#4c4c4c;stroke-width:2" d="M467,14 l4,-4 3,-3 4,-2 4,-2 4,-2 4,-1 5,0 4,0 4,0 5,0 4,1 4,2 4,2 4,2 3,3 4,4 453,453 4,4 3,3 2,4 2,4 2,4 1,4 0,5 1,4 -1,4 0,5 -1,4 -2,4 -2,4 -2,4 -3,3 -4,4 -453,453 -4,4 -3,3 -4,2 -4,2 -4,2 -4,1 -5,0 -4,1 -4,-1 -5,0 -4,-1 -4,-2 -4,-2 -4,-2 -3,-3 -4,-4 -453,-453 -4,-4 -3,-3 -2,-4 -2,-4 -2,-4 -1,-4 0,-5 0,-4 0,-4 0,-5 1,-4 2,-4 2,-4 2,-4 3,-3 4,-4 453,-453z" /><path style="fill:#000;stroke:#4c4c4c;stroke-width:2" d="M469,55 l4,-2 4,-3 3,-2 4,-2 4,-1 4,-1 3,0 4,-1 4,1 3,0 4,1 4,1 3,2 4,2 3,3 3,2 416,416 2,3 3,3 2,4 2,3 1,4 1,4 0,3 1,4 -1,4 0,3 -1,4 -1,4 -2,3 -2,4 -3,3 -2,3 -416,416 -3,2 -3,3 -4,2 -3,2 -4,1 -4,1 -3,0 -4,1 -4,-1 -3,0 -4,-1 -4,-1 -4,-2 -3,-2 -4,-3 -4,-2 -414,-416 -2,-3 -3,-3 -2,-4 -2,-3 -1,-4 -1,-4 0,-3 -1,-4 1,-4 0,-3 1,-4 1,-4 2,-3 2,-4 3,-3 2,-3 414,-416z" /><path style="fill:#f60;stroke:#4c4c4c;stroke-width:2" d="M471,77 l3,-2 3,-3 4,-2 3,-2 4,-1 4,-1 3,0 4,-1 4,1 3,0 4,1 4,1 3,2 4,2 3,3 3,2 394,394 2,3 3,3 2,4 2,3 1,4 1,4 0,3 1,4 -1,4 0,3 -1,4 -1,4 -2,3 -2,4 -3,3 -2,3 -394,394 -3,2 -3,3 -4,2 -3,2 -4,1 -4,1 -3,0 -4,1 -4,-1 -3,0 -4,-1 -4,-1 -3,-2 -4,-2 -3,-3 -3,-2 -394,-394 -2,-3 -3,-3 -2,-4 -2,-3 -1,-4 -1,-4 0,-3 -1,-4 1,-4 0,-3 1,-4 1,-4 2,-3 2,-4 3,-3 2,-3 394,-394z" /></svg>