<!DOCTYPE svg PUBLIC "-//W3C//DTD SVG 20000303 Stylable//EN" "http://www.w3.org/TR/2000/03/WD-SVG-20000303/DTD/svg-20000303-stylable.dtd"[]><svg xmlns="http://www.w3.org/2000/svg" width="999px" height="291px" viewBox="0 0 999 249"><path style="fill:#fff;stroke:#4c4c4c;stroke-width:2" d="M0,0 l999,0 0,249 -999,0 0,-249z" /><path style="fill:#ff0;stroke:#4c4c4c;stroke-width:2" d="M249,0 l126,0 0,125 -126,0 0,-125z" /><path style="fill:#f00;stroke:#4c4c4c;stroke-width:2" d="M125,125 l124,0 0,124 -124,0 0,-124z" /><path style="fill:#f00;stroke:#4c4c4c;stroke-width:2" d="M249,0 l126,0 0,125 -126,0 0,-125z" /><path style="fill:#f00;stroke:#4c4c4c;stroke-width:2" d="M0,0 l125,0 0,125 -125,0 0,-125z" /><path style="fill:#ff0;stroke:#4c4c4c;stroke-width:2" d="M625,125 l124,0 0,124 -124,0 0,-124z" /><path style="fill:#f00;stroke:#4c4c4c;stroke-width:2" d="M499,0 l126,0 0,125 -126,0 0,-125z" /><path style="fill:#f00;stroke:#4c4c4c;stroke-width:2" d="M625,125 l124,0 0,124 -124,0 0,-124z" /><path style="fill:#f00;stroke:#4c4c4c;stroke-width:2" d="M375,125 l124,0 0,124 -124,0 0,-124z" /><path style="fill:#f00;stroke:#4c4c4c;stroke-width:2" d="M875,125 l124,0 0,124 -124,0 0,-124z" /><path style="fill:#f00;stroke:#4c4c4c;stroke-width:2" d="M749,0 l126,0 0,125 -126,0 0,-125z" /></svg>