<!DOCTYPE svg PUBLIC "-//W3C//DTD SVG 20000303 Stylable//EN" "http://www.w3.org/TR/2000/03/WD-SVG-20000303/DTD/svg-20000303-stylable.dtd"[]><svg xmlns="http://www.w3.org/2000/svg" width="999px" height="291px" viewBox="0 0 999 249"><path style="fill:#000;stroke:#4c4c4c;stroke-width:2" d="M0,0 l999,0 0,249 -999,0 0,-249z" /><path style="fill:#ff0;stroke:#4c4c4c;stroke-width:2" d="M249,0 l126,0 0,126 -126,0 0,-126z" /><path style="fill:#ff0;stroke:#4c4c4c;stroke-width:2" d="M126,126 l123,0 0,123 -123,0 0,-123z" /><path style="fill:#ff0;stroke:#4c4c4c;stroke-width:2" d="M249,0 l126,0 0,126 -126,0 0,-126z" /><path style="fill:#ff0;stroke:#4c4c4c;stroke-width:2" d="M0,0 l126,0 0,126 -126,0 0,-126z" /><path style="fill:#ff0;stroke:#4c4c4c;stroke-width:2" d="M625,126 l124,0 0,123 -124,0 0,-123z" /><path style="fill:#ff0;stroke:#4c4c4c;stroke-width:2" d="M499,0 l126,0 0,126 -126,0 0,-126z" /><path style="fill:#ff0;stroke:#4c4c4c;stroke-width:2" d="M625,126 l124,0 0,123 -124,0 0,-123z" /><path style="fill:#ff0;stroke:#4c4c4c;stroke-width:2" d="M375,126 l124,0 0,123 -124,0 0,-123z" /><path style="fill:#ff0;stroke:#4c4c4c;stroke-width:2" d="M875,126 l124,0 0,123 -124,0 0,-123z" /><path style="fill:#ff0;stroke:#4c4c4c;stroke-width:2" d="M749,0 l126,0 0,126 -126,0 0,-126z" /></svg>