<!DOCTYPE svg PUBLIC "-//W3C//DTD SVG 20000303 Stylable//EN" "http://www.w3.org/TR/2000/03/WD-SVG-20000303/DTD/svg-20000303-stylable.dtd"[]><svg xmlns="http://www.w3.org/2000/svg" width="999px" height="358px" viewBox="0 0 999 319"><path style="fill:#000;stroke:#4c4c4c;stroke-width:2" d="M0,0 l999,0 0,319 -999,0 0,-319z" /><path style="fill:#ff0" d="M836,269 l0,-220 29,0 60,147 0,-147 28,0 0,220 -30,0 -59,-143 0,143 -28,0z" /><ellipse style="fill:#ff0" cx="742" cy="159" rx="71" ry="114" /><path style="fill:#ff0" d="M620,269 l0,-220 29,0 0,220 -29,0z" /><path style="fill:#ff0" d="M530,269 l0,-183 -43,0 0,-37 115,0 0,37 -43,0 0,183 -29,0z" /><path style="fill:#ff0" d="M349,49 l29,0 0,121 0,4 0,3 0,3 0,3 0,3 0,2 0,3 0,2 0,3 0,2 0,1 0,2 0,2 0,1 0,1 0,2 1,3 1,3 1,4 1,3 1,2 2,3 1,2 2,2 2,1 2,1 3,2 2,1 3,1 3,0 3,1 3,0 3,0 2,-1 3,0 2,-1 3,-1 2,-2 2,-1 1,-1 2,-2 2,-2 1,-2 1,-2 1,-3 1,-2 1,-3 0,-3 0,-1 0,-2 0,-1 1,-2 0,-2 0,-2 0,-2 0,-3 1,-2 0,-3 0,-2 0,-3 0,-3 0,-3 0,-4 0,-3 0,-123 29,0 0,116 0,4 0,5 0,4 0,5 0,4 0,4 0,4 0,4 -1,3 0,3 0,3 0,3 0,3 -1,3 0,2 0,2 -1,4 0,4 -1,4 -1,3 -2,4 -1,3 -1,3 -2,3 -1,2 -2,3 -3,2 -2,2 -2,2 -3,2 -2,2 -3,1 -3,2 -3,1 -3,1 -4,1 -3,1 -4,1 -5,0 -4,1 -5,0 -5,-1 -4,0 -4,-1 -4,-1 -4,0 -3,-2 -3,-1 -2,-1 -3,-2 -2,-2 -3,-3 -2,-2 -2,-3 -1,-2 -2,-3 -1,-3 -2,-3 -1,-4 -1,-3 -1,-3 -1,-4 -1,-3 0,-3 -1,-2 0,-2 0,-3 0,-3 0,-3 -1,-3 0,-3 0,-4 0,-3 0,-4 0,-4 -1,-4 0,-5 0,-4 0,-5 0,-5 0,-117z" /><path style="fill:#ff0" d="M333,269 l-32,0 -13,-50 -59,0 -12,50 -30,0 56,-220 32,0 58,220z" /><path style="fill:#ff0" d="M149,188 l28,13 -1,5 -1,4 -1,4 -1,4 -1,4 -1,4 -2,3 -1,3 -2,4 -1,3 -2,3 -1,3 -2,2 -1,3 -2,2 -2,2 -2,2 -2,2 -2,2 -2,2 -2,1 -3,2 -2,1 -3,2 -2,1 -3,1 -3,1 -3,0 -2,1 -3,0 -3,1 -3,0 -4,-1 -3,0 -4,-1 -3,0 -4,-2 -3,-1 -3,-1 -3,-2 -3,-2 -3,-2 -2,-3 -3,-2 -3,-3 -2,-3 -3,-3 -2,-4 -2,-3 -2,-4 -2,-4 -2,-4 -2,-5 -2,-5 -1,-4 -1,-6 -2,-5 -1,-5 -1,-6 0,-5 -1,-6 0,-6 -1,-6 0,-6 0,-7 1,-7 0,-6 1,-6 0,-6 1,-6 1,-6 1,-5 1,-6 2,-5 1,-5 2,-5 2,-4 2,-4 2,-5 2,-3 2,-4 3,-4 2,-3 3,-3 3,-3 3,-2 3,-2 3,-3 3,-1 4,-2 3,-1 4,-2 3,0 4,-1 3,0 4,-1 3,1 3,0 3,0 4,1 3,1 2,1 3,2 3,1 3,2 3,2 2,2 3,2 2,3 3,2 2,3 2,3 1,2 1,2 1,2 1,2 2,2 1,3 1,2 1,3 1,3 1,2 1,3 1,3 1,3 0,4 1,3 1,3 -28,8 -1,-4 -2,-4 -1,-4 -1,-3 -2,-3 -2,-3 -2,-3 -2,-2 -2,-3 -2,-2 -2,-2 -3,-1 -3,-1 -3,-1 -2,-1 -3,0 -4,0 -4,1 -4,1 -3,2 -4,2 -3,3 -3,4 -2,3 -2,3 -1,2 -1,3 -1,3 -1,3 -1,3 -1,4 0,3 -1,4 -1,4 0,4 -1,5 0,4 0,5 0,4 0,5 0,5 0,5 0,4 0,4 1,5 0,4 1,3 0,4 1,4 1,3 1,3 0,3 1,3 1,2 1,3 2,2 2,4 4,3 3,3 3,3 4,2 4,2 4,1 4,0 3,0 2,-1 3,0 3,-2 3,-1 2,-2 2,-2 2,-3 1,-1 1,-2 1,-2 1,-1 1,-2 1,-2 1,-2 1,-3 1,-2 1,-2 1,-3 0,-2 1,-3 1,-2 0,-3 1,-3z" /><ellipse style="fill:#000" cx="742" cy="159" rx="41" ry="75" /><path style="fill:#000" d="M279,183 l-20,-81 -20,81 40,0z" /></svg>