<!DOCTYPE svg PUBLIC "-//W3C//DTD SVG 20000303 Stylable//EN" "http://www.w3.org/TR/2000/03/WD-SVG-20000303/DTD/svg-20000303-stylable.dtd"[]><svg xmlns="http://www.w3.org/2000/svg" width="998px" height="335px" viewBox="0 0 999 295"><path style="fill:#000" d="M0,0 l999,0 0,295 -999,0 0,-295z" /><path style="fill:#f60" d="M499,15 l-484,44 0,176 484,44 484,-44 0,-176 -484,-44z" /><path style="fill:#000" d="M862,168 l0,-26 54,0 0,63 -2,2 -2,2 -3,3 -3,2 -3,2 -3,2 -3,2 -4,1 -2,1 -2,1 -2,1 -2,1 -2,0 -2,1 -2,1 -2,0 -2,1 -1,0 -2,0 -2,1 -2,0 -2,0 -2,0 -2,0 -3,0 -2,0 -2,0 -3,-1 -2,0 -2,0 -3,-1 -2,0 -2,-1 -2,-1 -2,-1 -2,0 -2,-1 -2,-1 -1,-1 -2,-1 -2,-1 -1,-2 -2,-1 -2,-2 -1,-1 -2,-2 -2,-2 -1,-2 -1,-2 -2,-2 -1,-2 -1,-2 -1,-2 -1,-3 -1,-2 -1,-3 -1,-2 -1,-3 0,-2 -1,-3 -1,-2 0,-3 -1,-3 0,-2 -1,-3 0,-3 -1,-2 0,-3 0,-3 0,-2 0,-3 0,-3 0,-3 0,-3 0,-3 0,-3 0,-3 1,-3 0,-2 1,-3 0,-3 1,-3 0,-2 1,-3 1,-3 0,-2 1,-2 1,-3 1,-2 1,-2 1,-3 1,-2 2,-2 1,-2 2,-2 1,-2 2,-2 1,-2 2,-2 2,-1 1,-2 2,-1 2,-2 2,-1 2,-1 1,-1 2,-1 2,-1 2,0 1,-1 2,-1 2,0 2,0 2,-1 2,0 2,-1 2,0 2,0 2,0 3,0 3,0 2,0 3,0 3,1 2,0 3,1 2,1 3,1 2,0 2,2 2,1 2,1 2,1 2,1 2,2 1,1 2,2 1,1 2,2 2,2 1,2 1,2 2,2 1,3 1,2 1,2 1,3 1,2 1,3 0,3 1,2 0,3 -25,5 -1,-3 -1,-2 -1,-3 -1,-3 -2,-2 -1,-2 -2,-2 -1,-1 -2,-2 -2,-2 -2,-1 -3,-1 -2,-1 -3,-1 -3,0 -2,0 -2,0 -2,0 -2,0 -2,1 -2,0 -2,1 -1,1 -2,0 -2,1 -1,1 -2,1 -1,2 -2,1 -1,1 -1,1 -2,2 -1,2 -1,1 -1,2 -1,2 -1,2 -1,3 -1,2 0,2 -1,3 -1,3 0,2 0,3 -1,3 0,3 0,3 0,4 0,3 0,3 0,4 0,3 1,3 0,3 1,2 0,3 1,3 0,2 1,2 1,3 1,2 1,1 1,2 1,2 2,1 1,2 1,1 2,2 1,1 2,1 2,2 1,0 2,1 2,1 2,1 2,0 2,1 2,0 2,0 2,0 1,0 2,0 2,0 2,-1 2,0 2,0 2,-1 2,0 2,-1 2,-1 2,-2 2,-1 2,-1 2,-2 2,-1 1,-2 0,-20 -29,0z" /><path style="fill:#000" d="M677,227 l0,-159 25,0 51,105 0,-105 24,0 0,159 -26,0 -50,-104 0,104 -24,0z" /><path style="fill:#000" d="M627,227 l0,-159 26,0 0,159 -26,0z" /><path style="fill:#000" d="M501,227 l0,-159 25,0 52,105 0,-105 24,0 0,159 -26,0 -51,-104 0,104 -24,0z" /><path style="fill:#000" d="M374,227 l0,-159 52,0 3,0 2,0 3,0 2,0 2,0 2,0 2,0 2,1 2,0 2,0 2,0 1,1 1,0 2,1 1,0 1,1 2,1 2,1 3,2 1,2 2,2 2,2 1,3 2,2 0,2 1,1 1,1 0,2 1,1 0,2 1,1 0,2 1,2 0,1 0,2 1,2 0,1 0,2 0,2 0,2 0,2 0,2 0,2 -1,2 0,2 0,2 -1,2 0,2 -1,2 -1,2 0,1 -1,2 -1,2 -1,1 -1,1 0,2 -3,3 -2,2 -3,3 -3,2 -3,1 -3,2 -4,2 -4,1 2,1 2,1 2,1 2,2 2,2 1,1 1,2 1,1 1,2 0,1 1,1 1,1 0,2 1,1 1,2 1,1 1,2 1,2 1,2 1,2 1,2 1,2 1,2 2,2 15,31 -30,0 -18,-35 -2,-4 -2,-4 -2,-4 -2,-3 -2,-2 -1,-2 -2,-2 -1,-2 -1,-1 0,-1 -2,-1 -1,-1 -1,-1 -1,-1 -1,0 -1,0 -1,-1 -1,0 -1,-1 -2,0 -2,0 -2,0 -2,-1 -2,0 -5,0 0,67 -25,0z" /><path style="fill:#000" d="M360,227 l-27,0 -12,-36 -50,0 -11,36 -26,0 48,-159 28,0 50,159z" /><path style="fill:#000" d="M107,227 l-30,-159 26,0 19,109 23,-109 31,0 21,111 19,-111 26,0 -29,159 -29,0 -25,-118 -25,118 -27,0z" /><path style="fill:#f60" d="M399,134 l19,0 4,0 5,0 3,-1 4,0 2,0 2,0 2,-1 1,0 1,0 1,0 1,-1 1,-1 1,-1 1,-1 1,-1 1,-1 0,-1 1,-2 0,-1 1,-2 0,-1 1,-2 0,-1 0,-2 0,-2 0,-2 -1,-2 0,-1 -1,-1 0,-2 -1,-1 0,-1 -1,-1 -1,-1 -2,-1 -1,-1 -1,-1 -2,-1 -1,0 -2,-1 -1,0 -1,0 -2,0 -2,0 -3,-1 -3,0 -3,0 -4,0 -20,0 0,40z" /><path style="fill:#f60" d="M314,164 l-18,-58 -17,58 35,0z" /></svg>