<!DOCTYPE svg PUBLIC "-//W3C//DTD SVG 20000303 Stylable//EN" "http://www.w3.org/TR/2000/03/WD-SVG-20000303/DTD/svg-20000303-stylable.dtd"[]><svg xmlns="http://www.w3.org/2000/svg" width="999px" height="358px" viewBox="0 0 999 319"><path style="fill:#000;stroke:#4c4c4c;stroke-width:2" d="M0,0 l999,0 0,319 -999,0 0,-319z" /><path style="fill:#fff" d="M499,8 l-26,0 -26,0 -25,0 -24,0 -25,0 -23,0 -23,1 -23,1 -21,1 -21,1 -21,1 -20,2 -19,2 -18,2 -18,3 -17,3 -16,3 -15,4 -14,4 -13,5 -13,5 -11,6 -11,6 -9,7 -9,7 -7,8 -7,9 -5,10 -4,10 -3,10 -2,12 0,12 0,16 2,14 3,13 4,13 5,11 7,11 7,10 9,9 9,9 11,8 11,7 13,6 13,6 14,5 15,5 16,4 17,4 18,3 18,3 19,2 20,2 21,2 21,1 21,2 23,0 23,1 23,1 25,0 24,0 25,0 26,0 26,0 26,0 26,0 25,0 24,0 25,0 23,-1 23,-1 23,0 21,-2 21,-1 21,-2 20,-2 19,-2 18,-3 18,-3 17,-4 16,-4 15,-5 14,-5 13,-6 13,-6 11,-7 11,-8 9,-9 9,-9 7,-10 7,-11 5,-11 4,-13 3,-13 2,-14 0,-16 0,-12 -2,-12 -3,-10 -4,-10 -5,-10 -7,-9 -7,-8 -9,-7 -9,-7 -11,-6 -11,-6 -13,-5 -13,-5 -14,-4 -15,-4 -16,-3 -17,-3 -18,-3 -18,-2 -19,-2 -20,-2 -21,-1 -21,-1 -21,-1 -23,-1 -23,-1 -23,0 -25,0 -24,0 -25,0 -26,0 -26,0z" /><path style="fill:#f00" d="M499,18 l-26,0 -25,0 -25,0 -24,0 -24,0 -23,0 -23,1 -22,0 -21,1 -21,1 -20,2 -19,1 -19,2 -18,2 -18,2 -16,3 -16,3 -15,4 -14,4 -13,4 -12,5 -11,5 -11,6 -9,7 -8,7 -8,7 -6,8 -5,9 -4,9 -3,10 -2,11 -1,11 1,15 2,13 3,13 4,11 5,11 6,11 8,9 8,9 9,8 11,7 11,7 12,6 13,5 14,5 15,5 16,3 16,4 18,3 18,3 19,2 19,2 20,1 21,2 21,1 22,1 23,0 23,1 24,0 24,0 25,0 25,0 26,0 26,0 25,0 25,0 24,0 24,0 23,-1 23,0 22,-1 21,-1 21,-2 20,-1 19,-2 19,-2 18,-3 18,-3 16,-4 16,-3 15,-5 14,-5 13,-5 12,-6 11,-7 11,-7 9,-8 8,-9 8,-9 6,-11 5,-11 4,-11 3,-13 2,-13 1,-15 -1,-11 -2,-11 -3,-10 -4,-9 -5,-9 -6,-8 -8,-7 -8,-7 -9,-7 -11,-6 -11,-5 -12,-5 -13,-4 -14,-4 -15,-4 -16,-3 -16,-3 -18,-2 -18,-2 -19,-2 -19,-1 -20,-2 -21,-1 -21,-1 -22,0 -23,-1 -23,0 -24,0 -24,0 -25,0 -25,0 -26,0z" /><path style="fill:#fff" d="M779,254 l0,-198 56,0 2,0 3,0 2,0 3,0 2,1 2,0 2,0 2,0 2,1 2,0 2,0 1,1 2,0 1,1 2,1 1,0 2,2 2,1 3,3 2,2 1,3 2,3 2,3 1,3 1,2 1,1 0,2 1,2 0,1 1,3 1,1 0,2 0,2 1,3 0,2 0,2 0,2 0,2 1,2 0,2 0,3 -1,3 0,2 0,3 0,3 -1,2 0,3 -1,2 0,2 -1,2 -1,3 0,2 -1,2 -1,1 -1,2 -1,2 -1,1 -1,2 -2,2 -1,1 -1,2 -2,1 -1,2 -2,1 -1,1 -2,1 -2,1 -2,1 -2,1 -2,1 -2,1 -2,0 2,2 2,1 2,2 2,2 2,2 2,2 1,2 1,2 0,2 1,1 1,2 1,1 0,2 1,2 1,2 1,2 1,2 1,2 1,2 1,3 2,2 1,3 1,3 1,2 17,38 -32,0 -19,-43 -1,-2 -2,-3 -1,-3 -1,-2 -1,-2 -1,-2 -1,-2 -1,-2 -1,-2 -1,-1 0,-2 -1,-1 -1,-1 -1,-1 0,-1 0,-1 -1,-1 -2,-1 -1,-2 -1,-1 -1,-1 -1,-1 -2,-1 0,0 -1,-1 -2,0 -1,-1 -2,0 -2,-1 -2,0 -2,0 -2,0 -5,0 0,82 -27,0z" /><path style="fill:#fff" d="M657,254 l0,-198 98,0 0,33 -72,0 0,45 67,0 0,33 -67,0 0,54 74,0 0,33 -100,0z" /><path style="fill:#fff" d="M574,182 l0,-33 57,0 0,79 -2,2 -3,3 -2,3 -3,2 -4,3 -3,2 -3,3 -4,2 -2,1 -2,1 -2,1 -3,1 -2,1 -2,1 -2,0 -2,1 -2,1 -2,0 -2,1 -2,0 -2,0 -2,0 -2,1 -2,0 -3,0 -2,-1 -3,0 -2,0 -3,-1 -2,0 -2,-1 -3,-1 -2,-1 -2,0 -2,-1 -2,-1 -2,-2 -2,-1 -2,-1 -2,-1 -2,-2 -1,-1 -2,-2 -2,-2 -2,-2 -1,-2 -2,-3 -2,-2 -1,-2 -1,-3 -2,-2 -1,-3 -1,-3 -1,-3 -1,-3 -1,-3 -1,-3 -1,-3 0,-3 -1,-4 -1,-3 0,-3 -1,-3 0,-4 -1,-3 0,-3 -1,-4 0,-3 0,-4 -1,-3 0,-3 0,-4 0,-4 0,-3 1,-4 0,-4 0,-3 1,-4 0,-3 1,-4 0,-3 1,-4 0,-3 1,-3 1,-3 0,-3 1,-3 1,-3 1,-3 1,-3 2,-3 1,-3 1,-3 2,-2 1,-3 2,-2 1,-3 2,-2 2,-2 2,-2 2,-2 1,-2 2,-2 3,-1 1,-2 2,-1 2,-1 2,-1 1,0 2,-1 2,-1 2,-1 2,0 2,-1 2,0 3,-1 2,0 2,0 2,0 2,0 4,0 3,0 2,0 3,1 3,1 3,0 2,1 3,1 2,1 2,2 3,1 2,2 2,1 2,2 2,1 1,2 2,2 2,2 1,3 2,2 1,2 2,3 1,3 1,3 1,3 1,2 1,3 1,4 1,3 1,3 1,4 0,3 -27,7 -1,-4 -1,-3 -1,-4 -1,-3 -2,-3 -1,-2 -2,-2 -2,-3 -1,-2 -3,-2 -2,-1 -2,-2 -3,-1 -3,-1 -3,0 -3,0 -2,0 -2,0 -2,0 -2,1 -1,0 -2,1 -2,1 -2,1 -2,1 -1,1 -2,2 -2,1 -1,2 -1,1 -2,2 -1,2 -1,2 -1,2 -2,3 -1,2 -1,3 -1,2 0,3 -1,4 -1,3 -1,3 0,4 0,3 -1,4 0,4 0,4 0,4 0,4 0,4 0,4 0,4 1,4 0,3 1,4 0,3 1,3 1,3 0,3 1,3 1,2 1,3 2,2 1,2 1,2 1,2 2,2 1,1 2,2 2,2 2,1 2,1 1,1 2,1 2,1 2,1 2,0 2,1 2,0 2,0 2,0 2,0 2,-1 2,0 3,-1 2,0 2,-1 2,0 2,-2 2,-1 2,-2 2,-1 2,-2 2,-2 2,-2 2,-2 0,-24 -31,0z" /><path style="fill:#fff" d="M379,254 l0,-198 27,0 54,132 0,-132 25,0 0,198 -28,0 -53,-129 0,129 -25,0z" /><path style="fill:#fff" d="M365,254 l-29,0 -12,-44 -53,0 -11,44 -28,0 51,-198 29,0 53,198z" /><path style="fill:#fff" d="M111,56 l49,0 2,0 2,0 2,0 2,0 2,1 2,0 2,0 1,0 2,1 2,0 1,0 2,1 1,0 1,1 2,1 1,0 2,2 3,1 2,2 3,2 3,3 2,2 2,3 2,3 2,2 1,2 1,1 1,2 1,2 1,2 1,2 0,2 1,2 1,2 1,2 1,2 0,2 1,2 0,2 1,3 0,2 1,3 0,2 0,3 1,3 0,3 1,3 0,3 0,3 0,3 1,3 0,3 0,3 0,4 0,3 0,4 0,2 0,3 0,3 0,3 0,2 -1,3 0,3 0,2 0,3 -1,3 0,2 -1,3 0,2 0,2 -1,3 0,2 -1,2 -1,3 0,2 -1,3 -1,2 -1,2 -1,3 -1,2 -1,2 0,2 -1,2 -2,2 0,2 -2,2 -1,2 -1,1 -1,3 -3,2 -2,3 -2,2 -3,2 -3,2 -3,2 -2,1 -3,1 -2,0 -3,1 -3,0 -3,1 -3,0 -3,0 -4,0 -51,0 0,-198z" /><path style="fill:#f00" d="M806,139 l20,0 4,0 5,-1 4,0 3,0 3,0 2,-1 2,0 1,0 1,0 1,-1 1,-1 1,-1 1,-1 1,-2 1,-1 1,-1 1,-2 0,-1 1,-2 0,-2 1,-2 0,-2 0,-2 0,-2 0,-2 0,-3 0,-2 -1,-2 0,-2 -1,-1 0,-2 -1,-1 -1,-1 -1,-2 -2,-1 -1,-1 -1,-1 -2,-1 -2,-1 -1,0 -1,0 -2,0 -2,-1 -2,0 -3,0 -3,-1 -3,0 -4,0 -21,0 0,50z" /><path style="fill:#f00" d="M316,177 l-19,-73 -18,73 37,0z" /><path style="fill:#f00" d="M138,89 l0,132 21,0 2,0 3,0 2,0 2,-1 3,0 2,0 1,0 1,0 2,-1 2,0 2,-1 1,-1 1,0 2,-2 1,-1 1,-1 1,-1 1,-2 0,-2 2,-3 1,-3 0,-3 1,-3 1,-3 1,-1 0,-2 0,-2 1,-2 0,-2 0,-2 1,-2 0,-2 0,-3 0,-2 0,-3 1,-2 0,-3 0,-3 0,-2 0,-3 0,-3 0,-3 0,-2 0,-3 -1,-2 0,-3 0,-2 0,-3 0,-2 -1,-2 0,-2 0,-2 -1,-1 0,-2 0,-2 -1,-1 -1,-3 -1,-3 0,-3 -1,-3 -2,-2 0,-2 -1,-2 -1,-2 -2,-2 -1,-1 -2,-2 -2,-1 -1,-2 -2,-1 -2,0 -2,-1 -1,0 -2,-1 -3,0 -2,-1 -4,0 -3,-1 -4,0 -4,0 -12,0z" /></svg>