<!DOCTYPE svg PUBLIC "-//W3C//DTD SVG 20000303 Stylable//EN" "http://www.w3.org/TR/2000/03/WD-SVG-20000303/DTD/svg-20000303-stylable.dtd"[]><svg xmlns="http://www.w3.org/2000/svg" width="997px" height="999px" viewBox="0 0 996 999"><path style="fill:#fff;stroke:#4c4c4c;stroke-width:2" d="M996,289 l0,420 -289,290 -418,0 -289,-290 0,-420 289,-289 418,0 289,289z" /><path style="fill:#f00" d="M972,299 l0,400 -275,275 -398,0 -275,-275 0,-400 275,-275 398,0 275,275z" /><path style="fill:#fff" d="M732,682 l0,-359 69,0 10,0 9,1 8,0 7,2 6,1 6,1 3,2 3,2 4,2 4,2 5,4 4,4 5,5 4,6 4,6 3,6 2,4 1,3 2,4 1,4 1,4 1,4 1,4 1,4 1,4 1,5 0,4 1,4 0,5 0,5 1,5 0,5 0,8 -1,9 0,8 -1,7 -1,8 -2,6 -2,7 -2,5 -2,5 -2,5 -3,5 -2,4 -3,4 -2,4 -3,3 -2,2 -2,3 -3,3 -3,3 -3,3 -4,2 -3,2 -3,1 -4,0 -4,1 -5,0 -5,1 -6,1 -6,1 -6,0 -7,1 -7,0 -28,0 0,135 -41,0z" /><path style="fill:#fff" d="M488,502 l0,-6 0,-6 0,-6 0,-5 1,-6 0,-6 1,-5 0,-6 0,-6 1,-5 1,-5 0,-5 1,-5 1,-4 1,-5 1,-4 2,-7 2,-6 3,-7 3,-7 2,-6 3,-6 2,-5 2,-6 4,-4 3,-5 3,-5 4,-5 4,-4 4,-3 5,-3 4,-2 4,-3 5,-3 5,-4 5,-2 6,-3 6,-1 6,-1 6,-1 7,1 6,0 6,1 5,1 5,3 6,2 5,2 5,3 5,3 4,4 5,4 4,4 4,5 4,5 3,6 3,5 4,6 3,7 3,7 3,7 3,8 2,8 3,8 2,9 2,9 1,9 1,10 2,10 0,10 1,10 1,11 0,10 0,11 -1,10 -1,9 0,10 -2,9 -1,9 -1,9 -2,9 -2,8 -2,8 -2,7 -3,7 -2,7 -3,6 -3,6 -3,6 -4,5 -4,6 -4,5 -4,5 -4,4 -5,4 -5,4 -4,3 -5,3 -5,3 -5,2 -6,2 -5,1 -5,1 -6,1 -6,0 -6,0 -6,-1 -6,-1 -5,-1 -6,-2 -5,-2 -5,-2 -5,-3 -5,-4 -5,-3 -4,-3 -4,-4 -4,-5 -4,-4 -3,-5 -4,-5 -3,-6 -3,-6 -3,-7 -2,-8 -2,-7 -3,-8 -2,-8 -1,-9 -2,-9 -2,-9 -1,-9 -1,-9 -1,-10 -1,-9 0,-10 0,-11 0,-4z" /><path style="fill:#fff" d="M370,682 l0,-301 -63,0 0,-58 167,0 0,58 -63,0 0,301 -41,0z" /><path style="fill:#fff" d="M103,565 l42,-9 0,8 1,8 1,7 2,7 2,5 3,6 2,5 2,3 4,4 3,3 5,3 4,3 4,2 6,2 5,1 5,0 5,0 5,0 5,-2 4,-1 5,-2 3,-2 3,-3 3,-3 3,-4 2,-4 3,-4 2,-4 1,-4 2,-4 0,-4 0,-3 0,-4 0,-3 -1,-3 0,-4 -1,-3 -1,-2 -1,-2 -1,-2 -1,-2 -2,-2 -2,-2 -2,-2 -2,-2 -3,-2 -2,-1 -2,-1 -3,0 -3,-1 -4,-2 -4,-2 -5,-3 -5,-3 -6,-3 -6,-3 -9,-4 -8,-4 -8,-4 -7,-5 -6,-4 -6,-5 -4,-5 -4,-5 -2,-4 -2,-3 -2,-4 -2,-4 -2,-3 -1,-4 -2,-4 -1,-4 -1,-5 -1,-4 -1,-5 -1,-4 -1,-5 0,-4 0,-6 0,-5 0,-6 0,-7 1,-7 1,-6 1,-6 1,-6 2,-6 2,-5 2,-7 2,-6 3,-5 3,-6 3,-4 4,-5 4,-4 4,-3 4,-4 5,-2 5,-2 5,-3 6,-1 6,-1 6,0 7,-1 10,1 9,2 9,3 8,3 7,5 6,5 6,6 5,7 2,3 3,4 2,4 3,4 2,5 2,4 2,6 1,4 2,6 2,4 1,6 1,5 0,5 1,5 1,6 0,5 -42,4 -1,-5 -1,-5 -2,-5 -2,-4 -1,-5 -2,-4 -2,-4 -2,-4 -3,-3 -3,-2 -4,-3 -4,-2 -4,-1 -4,-1 -4,0 -4,-1 -5,1 -4,0 -5,1 -4,1 -4,2 -3,3 -3,2 -3,3 -1,2 -1,2 -1,3 -1,3 0,3 -1,4 0,3 0,3 0,3 0,3 1,4 0,3 1,3 1,2 1,2 1,2 3,2 3,3 4,2 4,2 6,3 6,2 7,2 8,2 8,4 8,3 7,3 6,4 5,3 5,3 5,4 3,3 4,4 4,4 3,4 4,4 2,5 3,5 3,5 2,5 2,7 2,7 2,8 1,7 2,8 1,7 0,8 1,7 -1,6 0,8 -1,7 -2,8 -1,7 -2,8 -2,7 -2,7 -3,6 -3,6 -3,6 -4,5 -5,4 -4,4 -4,2 -5,2 -4,4 -5,3 -6,2 -6,2 -7,1 -7,1 -6,1 -8,0 -10,0 -9,-1 -9,-3 -9,-3 -7,-3 -7,-5 -6,-5 -6,-7 -2,-3 -3,-4 -2,-5 -3,-4 -2,-6 -2,-5 -2,-6 -2,-5 -1,-7 -1,-6 -2,-7 -1,-7 -1,-7 -1,-7 0,-7 0,-8z" /><path style="fill:#f00" d="M773,381 l0,108 25,0 7,0 7,-1 5,0 5,-2 5,0 4,-1 3,-1 3,0 2,0 2,-1 2,-2 3,-2 2,-3 2,-3 2,-4 1,-3 1,-3 1,-4 1,-4 1,-5 0,-4 1,-4 1,-4 0,-3 0,-4 -1,-4 -1,-4 0,-4 -2,-4 -1,-4 -2,-4 -2,-4 -2,-3 -2,-3 -3,-3 -2,-3 -3,-2 -2,-2 -3,-1 -2,0 -2,0 -3,-1 -4,-1 -4,-1 -6,-1 -5,0 -6,-1 -6,0 -22,0z" /><ellipse style="fill:#f00" cx="592" cy="502" rx="63" ry="121" /></svg>