<!DOCTYPE svg PUBLIC "-//W3C//DTD SVG 20000303 Stylable//EN" "http://www.w3.org/TR/2000/03/WD-SVG-20000303/DTD/svg-20000303-stylable.dtd"[]><svg xmlns="http://www.w3.org/2000/svg" width="999px" height="765px" viewBox="0 0 999 751"><path style="fill:#fff;stroke:#4c4c4c;stroke-width:2" d="M0,0 l999,0 0,751 -999,0 0,-751z" /><path style="fill:#000;stroke:#4c4c4c;stroke-width:2" d="M41,45 l922,0 0,296 -922,0 0,-296z" /><path style="fill:#fff" d="M501,53 l-24,0 -24,0 -23,1 -22,0 -23,0 -21,0 -22,1 -20,0 -20,1 -20,1 -19,1 -18,2 -18,2 -17,2 -16,2 -15,3 -15,3 -14,3 -13,4 -13,5 -11,4 -11,6 -9,5 -9,7 -8,7 -7,7 -6,8 -5,8 -4,10 -2,10 -2,10 -1,11 1,14 2,13 2,13 4,11 5,11 6,10 7,9 8,8 9,8 9,7 11,7 11,6 13,5 13,5 14,4 15,4 15,3 16,3 17,3 18,2 18,2 19,2 20,1 20,1 20,1 22,0 21,1 23,0 22,0 23,0 24,0 24,0 24,0 24,0 23,0 22,0 23,0 21,-1 22,0 20,-1 20,-1 20,-1 19,-2 18,-2 18,-2 17,-3 16,-3 15,-3 15,-4 14,-4 13,-5 13,-5 11,-6 11,-7 9,-7 9,-8 8,-8 7,-9 6,-10 5,-11 4,-11 2,-13 2,-13 1,-14 -1,-11 -2,-10 -2,-10 -4,-10 -5,-8 -6,-8 -7,-7 -8,-7 -9,-7 -9,-5 -11,-6 -11,-4 -13,-5 -13,-4 -14,-3 -15,-3 -15,-3 -16,-2 -17,-2 -18,-2 -18,-2 -19,-1 -20,-1 -20,-1 -20,0 -22,-1 -21,0 -23,0 -22,0 -23,-1 -24,0 -24,0z" /><path style="fill:#f00" d="M501,61 l-24,0 -23,0 -23,0 -22,1 -22,0 -21,0 -21,1 -20,0 -20,1 -19,1 -19,1 -18,2 -17,1 -17,2 -16,2 -15,3 -14,3 -14,3 -13,4 -12,4 -11,4 -11,5 -9,5 -9,6 -8,7 -6,7 -6,7 -5,8 -4,9 -2,9 -2,10 -1,10 1,14 2,12 2,12 4,10 5,11 6,9 6,9 8,8 9,7 9,7 11,6 11,6 12,5 13,4 14,4 14,4 15,3 16,3 17,2 17,3 18,1 19,2 19,1 20,1 20,1 21,0 21,1 22,0 22,0 23,0 23,0 24,0 24,0 23,0 23,0 22,0 22,0 21,-1 21,0 20,-1 20,-1 19,-1 19,-2 18,-1 17,-3 17,-2 16,-3 15,-3 14,-4 14,-4 13,-4 12,-5 11,-6 11,-6 9,-7 9,-7 8,-8 6,-9 6,-9 5,-11 4,-10 2,-12 2,-12 1,-14 -1,-10 -2,-10 -2,-9 -4,-9 -5,-8 -6,-7 -6,-7 -8,-7 -9,-6 -9,-5 -11,-5 -11,-4 -12,-4 -13,-4 -14,-3 -14,-3 -15,-3 -16,-2 -17,-2 -17,-1 -18,-2 -19,-1 -19,-1 -20,-1 -20,0 -21,-1 -21,0 -22,0 -22,-1 -23,0 -23,0 -24,0z" /><path style="fill:#fff" d="M760,280 l0,-183 51,0 5,0 4,1 4,0 4,0 4,1 3,1 2,1 3,1 2,1 2,2 2,2 2,2 2,3 1,3 2,2 1,3 1,3 2,3 1,4 0,3 1,4 1,4 0,4 0,4 0,3 0,2 0,3 -1,2 0,2 0,3 -1,2 0,2 -1,2 0,2 -1,2 -1,2 -1,2 0,2 -1,1 -1,2 -2,3 -3,3 -2,3 -3,2 -3,2 -3,2 -4,1 -4,2 2,1 2,2 2,1 2,2 1,2 2,2 1,2 1,1 1,3 1,3 2,3 2,4 1,4 2,4 3,5 2,5 15,35 -29,0 -18,-40 -2,-5 -2,-4 -2,-4 -2,-4 -2,-3 -1,-2 -1,-2 -1,-2 -1,-1 -1,-1 -1,-1 -1,-2 -1,-1 -1,0 -1,-1 -1,0 -1,-1 -1,0 -1,-1 -2,0 -2,-1 -1,0 -2,0 -2,0 -5,0 0,76 -25,0z" /><path style="fill:#fff" d="M647,280 l0,-183 91,0 0,31 -67,0 0,41 63,0 0,30 -63,0 0,50 69,0 0,31 -93,0z" /><path style="fill:#fff" d="M571,213 l0,-30 52,0 0,73 -2,2 -2,2 -2,3 -3,2 -3,3 -3,2 -4,2 -3,2 -4,2 -3,2 -4,1 -4,2 -4,1 -4,0 -4,1 -3,0 -3,0 -2,0 -2,0 -3,-1 -2,0 -2,-1 -2,0 -2,-1 -2,-1 -2,-1 -2,0 -2,-1 -2,-1 -2,-1 -2,-1 -1,-2 -2,-1 -2,-2 -1,-1 -2,-2 -1,-2 -2,-2 -1,-2 -2,-2 -1,-3 -1,-2 -2,-2 -1,-3 -1,-2 -1,-3 -1,-3 -1,-3 0,-3 -1,-3 -1,-3 0,-2 -1,-3 -1,-3 0,-4 -1,-3 0,-3 0,-3 -1,-3 0,-3 0,-3 0,-3 -1,-3 0,-3 0,-4 1,-3 0,-4 0,-3 0,-3 1,-4 0,-3 0,-3 1,-3 0,-3 1,-4 1,-2 0,-3 1,-3 1,-3 0,-3 1,-2 1,-3 2,-3 1,-2 1,-3 1,-2 2,-3 1,-2 2,-2 1,-2 2,-2 2,-2 1,-2 2,-2 2,-1 2,-2 3,-2 3,-2 4,-1 4,-1 3,-1 4,-1 4,-1 5,0 2,0 3,0 3,1 2,0 3,1 2,1 3,0 2,1 2,2 2,1 2,1 2,1 2,2 2,1 1,2 2,2 2,1 1,2 1,2 2,2 1,3 2,2 1,3 1,2 1,3 1,3 1,2 1,3 1,3 0,3 1,3 0,4 -24,6 -1,-4 -1,-3 -1,-3 -1,-3 -2,-2 -1,-3 -2,-2 -1,-2 -2,-2 -2,-2 -2,-1 -2,-1 -3,-1 -2,-1 -3,-1 -2,0 -4,0 -4,1 -3,2 -4,1 -3,3 -3,2 -3,3 -2,4 -1,1 -1,2 -1,2 -1,3 -1,2 -1,3 -1,2 0,3 -1,3 -1,3 0,4 0,3 -1,3 0,4 0,4 0,3 0,4 0,4 0,4 0,3 1,4 0,3 1,3 0,3 1,3 0,3 1,2 1,3 1,2 1,2 1,2 1,2 3,4 2,3 3,3 4,3 3,2 4,1 4,1 4,0 1,0 2,0 2,-1 2,0 2,0 2,-1 2,0 2,-1 2,-1 2,-2 2,-1 1,-2 2,-1 2,-2 2,-1 1,-2 0,-23 -28,0z" /><path style="fill:#fff" d="M391,280 l0,-183 24,0 50,122 0,-122 24,0 0,183 -26,0 -49,-119 0,119 -23,0z" /><path style="fill:#fff" d="M378,280 l-27,0 -11,-41 -49,0 -10,41 -26,0 47,-183 27,0 49,183z" /><path style="fill:#fff" d="M144,97 l45,0 4,0 4,1 3,0 3,0 3,1 3,1 2,1 3,1 2,1 2,2 3,2 2,2 2,2 3,2 2,3 2,3 2,3 2,3 2,3 1,4 2,4 1,4 1,4 1,4 1,2 0,2 0,3 1,2 0,3 0,3 1,2 0,3 0,3 0,3 1,3 0,3 0,3 0,3 0,3 0,3 0,2 0,3 0,2 0,3 0,2 -1,3 0,2 0,3 0,2 -1,3 0,2 0,2 -1,2 0,2 0,3 -1,2 0,2 -1,2 -1,2 0,3 -1,2 -1,2 -1,2 -1,2 -1,2 0,2 -1,2 -1,2 -1,2 -1,2 -1,1 -1,2 -2,2 -2,2 -2,2 -2,2 -3,2 -2,2 -3,2 -2,1 -2,1 -3,0 -2,1 -3,0 -3,0 -3,1 -3,0 -3,0 -47,0 0,-183z" /><path style="fill:#f00" d="M785,173 l18,0 4,0 4,0 4,0 3,0 2,-1 3,0 1,0 1,0 1,0 1,-1 1,-1 1,-1 1,-1 1,-1 1,-1 0,-2 1,-1 1,-1 0,-2 1,-2 0,-2 0,-2 0,-2 0,-1 0,-3 0,-2 0,-2 0,-1 -1,-2 0,-1 -1,-2 -1,-1 0,-1 -1,-2 -2,-1 -1,-1 -1,-1 -2,-1 -1,0 -2,-1 -1,0 -1,0 -2,0 -2,0 -2,-1 -3,0 -4,0 -3,0 -19,0 0,45z" /><path style="fill:#f00" d="M333,208 l-17,-66 -17,66 34,0z" /><path style="fill:#f00" d="M169,128 l0,121 19,0 3,0 2,0 2,0 2,0 2,-1 2,0 1,0 1,0 2,0 1,-1 2,0 1,-1 2,-1 1,-1 1,-1 1,-1 0,-2 1,-1 1,-2 1,-3 1,-2 1,-3 1,-3 1,-2 0,-2 0,-1 1,-2 0,-2 0,-2 1,-2 0,-2 0,-2 0,-2 0,-2 1,-3 0,-2 0,-2 0,-3 0,-2 0,-3 0,-2 0,-3 0,-2 0,-3 0,-2 -1,-2 0,-2 0,-3 0,-2 0,-2 -1,-1 0,-2 0,-2 -1,-1 0,-2 0,-1 -1,-3 -1,-2 -1,-3 -1,-3 -1,-2 -1,-2 -1,-2 0,-1 -2,-2 -1,-1 -2,-2 -1,-1 -2,-2 -1,0 -2,-1 -2,0 -1,-1 -2,0 -2,-1 -3,0 -3,-1 -3,0 -3,0 -4,0 -11,0z" /></svg>