<!DOCTYPE svg PUBLIC "-//W3C//DTD SVG 20000303 Stylable//EN" "http://www.w3.org/TR/2000/03/WD-SVG-20000303/DTD/svg-20000303-stylable.dtd"[]><svg xmlns="http://www.w3.org/2000/svg" width="921px" height="999px" viewBox="0 0 916 999"><path style="fill:#ff0;stroke:#4c4c4c;stroke-width:2" d="M2,957 l113,-64 688,0 113,64 -914,0z" /><path style="fill:#ff0;stroke:#4c4c4c;stroke-width:2" d="M719,915 l-186,-906 -1,-1 -1,-1 -2,-1 -2,-1 -3,-1 -4,0 -4,-1 -5,-1 -5,0 -6,-1 -6,0 -7,-1 -6,0 -7,0 -8,0 -7,0 -8,0 -7,0 -8,0 -6,0 -7,1 -6,0 -6,1 -5,0 -5,1 -4,1 -3,0 -3,1 -3,1 -2,1 -1,1 0,1 -186,906 1,1 1,1 1,1 3,1 3,1 3,1 4,1 5,1 5,1 6,1 6,0 7,1 7,1 8,1 8,0 8,1 9,1 10,0 10,1 10,0 10,1 11,0 11,1 12,0 11,0 12,1 13,0 12,0 13,0 13,0 13,0 14,0 13,0 13,0 13,0 13,0 12,0 13,0 12,-1 11,0 12,0 11,-1 11,0 11,-1 10,0 10,-1 9,0 9,-1 9,-1 8,0 8,-1 7,-1 7,-1 6,0 6,-1 5,-1 5,-1 4,-1 3,-1 3,-1 2,-1 2,-1 1,-1 1,-1z" /><path style="fill:#cc0;stroke:#4c4c4c;stroke-width:2" d="M0,957 l915,0 0,42 -915,0 0,-42z" /><path style="fill:#ffffbf" d="M415,41 l-82,874 82,0 42,-874 -42,0z" /></svg>