<!DOCTYPE svg PUBLIC "-//W3C//DTD SVG 20000303 Stylable//EN" "http://www.w3.org/TR/2000/03/WD-SVG-20000303/DTD/svg-20000303-stylable.dtd"[]><svg xmlns="http://www.w3.org/2000/svg" width="998px" height="765px" viewBox="0 0 999 751"><path style="fill:#ff0;stroke:#4c4c4c;stroke-width:2" d="M0,0 l999,0 0,751 -999,0 0,-751z" /><path style="fill:#000;stroke:#4c4c4c;stroke-width:2" d="M41,41 l916,0 0,292 -916,0 0,-292z" /><path style="fill:#ff0" d="M808,288 l0,-201 27,0 55,134 0,-134 25,0 0,201 -28,0 -53,-131 0,131 -26,0z" /><ellipse style="fill:#ff0" cx="722" cy="188" rx="65" ry="104" /><path style="fill:#ff0" d="M610,288 l0,-201 27,0 0,201 -27,0z" /><path style="fill:#ff0" d="M527,288 l0,-167 -39,0 0,-34 105,0 0,34 -39,0 0,167 -27,0z" /><path style="fill:#ff0" d="M362,87 l27,0 0,111 0,3 0,3 0,3 0,2 0,3 0,2 0,3 0,2 0,2 0,2 0,2 0,1 0,2 0,1 0,1 0,1 0,3 1,4 1,2 1,3 1,3 1,2 2,2 1,1 2,2 2,1 2,1 3,1 2,1 3,0 3,1 2,0 3,0 2,-1 3,0 2,-1 2,-1 2,-1 2,-1 1,-2 2,-1 1,-2 2,-2 1,-2 1,-2 0,-2 1,-3 0,-2 0,-2 0,-1 1,-2 0,-1 0,-2 0,-2 0,-2 1,-2 0,-2 0,-3 0,-2 0,-3 0,-3 0,-3 0,-3 0,-3 0,-112 27,0 0,106 0,4 0,4 0,4 0,4 0,4 0,4 0,3 0,4 -1,3 0,3 0,3 0,3 0,2 -1,3 0,2 0,2 -1,3 0,4 -1,3 -1,3 -1,4 -1,2 -2,3 -1,3 -2,2 -1,3 -2,2 -3,2 -2,1 -2,2 -2,2 -3,1 -2,1 -3,1 -3,2 -3,0 -4,1 -4,1 -4,0 -4,1 -4,0 -4,-1 -4,0 -4,-1 -4,0 -3,-1 -3,-1 -3,-1 -2,-2 -2,-2 -3,-1 -2,-3 -2,-2 -1,-2 -2,-3 -1,-2 -2,-3 -1,-3 -1,-3 -1,-3 -1,-3 -1,-3 -1,-3 0,-3 0,-1 0,-3 -1,-2 0,-3 0,-2 0,-3 0,-3 -1,-3 0,-4 0,-3 0,-4 0,-4 0,-4 0,-4 0,-4 0,-5 0,-107z" /><path style="fill:#ff0" d="M347,288 l-29,0 -12,-45 -54,0 -11,45 -28,0 51,-201 30,0 53,201z" /><path style="fill:#ff0" d="M178,214 l26,12 -1,4 -1,4 -1,4 -1,4 -1,3 -1,4 -1,3 -1,3 -2,3 -1,3 -1,2 -2,3 -1,3 -2,2 -2,2 -1,2 -2,2 -2,2 -2,1 -2,2 -2,1 -2,2 -2,1 -2,1 -3,1 -2,1 -3,1 -2,0 -3,1 -3,0 -2,1 -3,0 -3,-1 -4,0 -3,0 -3,-1 -3,-1 -3,-1 -3,-2 -2,-2 -3,-1 -3,-2 -2,-3 -2,-2 -3,-2 -2,-3 -2,-3 -3,-3 -2,-3 -2,-4 -1,-4 -2,-3 -2,-5 -1,-4 -2,-4 -1,-5 -1,-5 -1,-5 -1,-5 0,-5 -1,-5 0,-6 0,-5 0,-6 0,-6 0,-6 0,-6 1,-6 0,-5 1,-6 1,-5 1,-5 1,-5 1,-5 1,-4 2,-5 2,-4 1,-4 2,-3 2,-4 2,-3 3,-3 2,-3 3,-3 2,-3 3,-2 3,-2 3,-2 3,-2 3,-1 3,-1 3,-1 3,-1 3,-1 4,0 3,0 3,0 3,0 3,0 3,1 2,1 3,1 3,1 2,2 3,1 2,2 3,2 2,2 2,2 2,3 2,2 2,3 1,2 1,2 1,1 2,2 1,2 0,3 1,2 1,2 1,3 1,2 1,3 1,3 1,3 0,3 1,3 1,3 -26,6 -1,-3 -1,-4 -1,-3 -2,-3 -1,-3 -2,-3 -1,-2 -2,-2 -2,-2 -2,-2 -2,-2 -3,-2 -2,-1 -3,-1 -2,0 -3,0 -4,0 -3,1 -4,1 -3,2 -3,2 -3,2 -2,4 -3,3 -1,2 -1,2 -1,3 -1,2 -1,3 -1,3 -1,3 0,4 -1,3 0,4 -1,4 0,4 0,4 0,4 -1,4 0,5 0,4 1,4 0,4 0,4 0,4 1,4 0,3 1,4 0,3 1,3 1,3 1,3 0,2 1,3 1,2 1,2 3,3 3,4 3,2 3,3 3,2 4,1 3,1 4,1 3,-1 2,0 3,-1 2,-1 3,-2 2,-1 2,-2 2,-3 1,-1 1,-1 1,-2 0,-2 1,-1 1,-2 1,-2 1,-2 1,-2 1,-2 0,-3 1,-2 1,-2 0,-3 1,-2 0,-3z" /><ellipse style="fill:#000" cx="722" cy="188" rx="38" ry="69" /><path style="fill:#000" d="M298,209 l-19,-73 -18,73 37,0z" /></svg>