<!DOCTYPE svg PUBLIC "-//W3C//DTD SVG 20000303 Stylable//EN" "http://www.w3.org/TR/2000/03/WD-SVG-20000303/DTD/svg-20000303-stylable.dtd"[]><svg xmlns="http://www.w3.org/2000/svg" width="999px" height="887px" viewBox="0 0 999 881"><path style="fill:#fff;stroke:#4c4c4c;stroke-width:2" d="M545,855 l-2,3 -2,2 -2,3 -3,3 -2,2 -3,2 -3,2 -3,2 -3,1 -3,2 -3,1 -4,1 -3,1 -3,0 -4,1 -3,0 -3,0 -4,-1 -3,0 -3,-1 -4,-1 -3,-1 -3,-2 -3,-1 -3,-2 -3,-2 -3,-2 -2,-2 -3,-3 -2,-3 -2,-2 -2,-3 -448,-776 -1,-3 -1,-3 -1,-3 -1,-4 -1,-4 0,-3 0,-4 0,-4 0,-5 1,-5 1,-5 2,-5 2,-4 2,-4 4,-4 3,-4 4,-3 4,-4 4,-2 4,-2 5,-2 5,-1 5,-1 5,0 896,0 5,0 5,1 5,1 5,2 4,2 4,2 4,4 4,3 3,4 4,4 2,4 2,4 2,5 1,5 1,5 1,5 0,4 -1,4 0,3 -1,4 -1,4 -1,3 -1,3 -2,3 -447,776z" /><path style="fill:#f00" d="M541,805 l-2,2 -1,3 -2,2 -3,2 -2,2 -3,2 -2,2 -3,2 -3,2 -3,1 -3,1 -3,1 -3,1 -3,0 -3,1 -3,0 -3,0 -4,-1 -3,0 -3,-1 -3,-1 -3,-1 -3,-1 -3,-2 -2,-2 -3,-2 -2,-2 -3,-2 -2,-2 -2,-2 -1,-3 -2,-2 -414,-708 -1,-2 -2,-3 -1,-3 -1,-3 -1,-3 -1,-3 0,-4 0,-3 0,-4 1,-5 1,-5 1,-4 2,-4 3,-4 3,-4 3,-3 3,-3 4,-3 4,-3 5,-2 5,-1 4,-1 5,-1 5,0 828,0 4,0 5,1 5,1 4,1 4,2 4,3 4,3 3,3 3,3 3,4 3,4 2,4 1,4 1,5 1,5 0,4 0,3 0,4 0,3 -1,3 -1,3 -1,3 -1,3 -1,2 -414,708z" /><path style="fill:#fff" d="M519,547 l-2,3 -2,2 -2,2 -2,2 -3,1 -3,1 -3,1 -3,0 -3,0 -3,-1 -3,-1 -3,-1 -2,-2 -2,-2 -2,-2 -2,-3 -194,-338 -1,-1 0,-1 -1,-1 -1,-1 0,-1 -1,-2 0,-1 0,-2 1,-5 1,-4 2,-5 3,-3 4,-3 4,-2 4,-1 5,-1 388,0 4,1 5,1 4,2 3,3 3,3 3,5 1,4 1,5 0,2 -1,1 0,2 0,1 -1,1 -1,1 0,1 -1,1 -194,338z" /></svg>