<!DOCTYPE svg PUBLIC "-//W3C//DTD SVG 20000303 Stylable//EN" "http://www.w3.org/TR/2000/03/WD-SVG-20000303/DTD/svg-20000303-stylable.dtd"[]><svg xmlns="http://www.w3.org/2000/svg" width="999px" height="667px" viewBox="0 0 500 324"><path style="fill:#7f7f7f;stroke:#4c4c4c;stroke-width:2" d="M500,295 l0,-295 -12,5 -12,6 -12,5 -14,4 -13,5 -15,4 -14,3 -15,4 -15,3 -16,2 -16,3 -16,2 -16,1 -16,1 -17,1 -16,0 -17,0 -16,-1 -17,-1 -16,-1 -16,-2 -16,-3 -15,-2 -15,-3 -15,-4 -15,-3 -14,-4 -13,-5 -14,-4 -12,-5 -12,-6 -12,-5 -30,30 6,3 14,9 23,14 29,17 34,21 38,23 41,24 42,26 43,26 42,26 39,25 36,22 31,20 25,17 18,13 10,8 5,-5 10,-10 9,-9 5,-5z" /><path style="fill:#b2b2b2;stroke:#4c4c4c;stroke-width:2" d="M471,324 l0,-295 -12,5 -12,6 -13,5 -13,4 -14,5 -14,4 -14,3 -15,4 -16,3 -15,2 -16,3 -16,2 -16,1 -16,1 -17,1 -16,0 -17,0 -16,-1 -17,-1 -16,-1 -16,-2 -16,-3 -15,-2 -16,-3 -15,-4 -14,-3 -14,-4 -14,-5 -13,-4 -13,-5 -12,-6 -11,-5 -1,295 12,-6 12,-5 12,-5 14,-5 13,-5 14,-4 15,-3 15,-4 15,-2 16,-3 15,-2 17,-2 16,-1 16,-1 17,-1 17,0 17,0 16,1 17,1 16,1 16,2 16,2 15,3 15,2 15,4 15,3 14,4 13,5 14,5 12,5 12,5 12,6z" /><path style="fill:none;stroke:#4c4c4c;stroke-width:2" d="M471,30 l29,-30" /></svg>