<!DOCTYPE svg PUBLIC "-//W3C//DTD SVG 20000303 Stylable//EN" "http://www.w3.org/TR/2000/03/WD-SVG-20000303/DTD/svg-20000303-stylable.dtd"[]><svg xmlns="http://www.w3.org/2000/svg" width="901px" height="999px" viewBox="0 0 452 504"><path style="fill:#7f7f7f;stroke:#4c4c4c;stroke-width:2" d="M452,345 l0,-216 -9,0 -10,0 -10,1 -10,0 -11,0 -10,1 -10,0 -9,0 -26,-1 -26,-1 -26,-3 -25,-4 -25,-5 -24,-6 -23,-7 -23,-9 -22,-8 -21,-10 -20,-11 -19,-12 -18,-12 -16,-13 -15,-14 -14,-15 -30,26 21,51 23,46 24,41 25,37 26,32 26,29 28,24 27,21 28,18 28,15 29,11 28,10 28,6 28,5 27,2 27,1 1,-1 4,-4 4,-5 6,-5 5,-6 4,-5 4,-3 1,-1z" /><path style="fill:#b2b2b2;stroke:#4c4c4c;stroke-width:2" d="M422,375 l0,-216 -9,0 -10,0 -10,1 -10,0 -11,0 -10,1 -10,0 -9,0 -26,-1 -26,-1 -26,-3 -25,-4 -25,-5 -24,-7 -23,-7 -23,-8 -22,-9 -21,-10 -20,-11 -19,-11 -18,-13 -16,-13 -15,-14 -14,-14 1,474 14,-15 15,-14 17,-13 17,-12 19,-12 20,-11 21,-10 22,-9 22,-8 24,-7 24,-6 24,-6 25,-4 26,-3 26,-1 26,-1 9,0 10,0 10,1 11,0 10,1 10,0 10,1 9,0z" /><path style="fill:none;stroke:#4c4c4c;stroke-width:2" d="M422,158 l30,-29" /></svg>