<!DOCTYPE svg PUBLIC "-//W3C//DTD SVG 20000303 Stylable//EN" "http://www.w3.org/TR/2000/03/WD-SVG-20000303/DTD/svg-20000303-stylable.dtd"[]><svg xmlns="http://www.w3.org/2000/svg" width="685px" height="998px" viewBox="0 0 667 999"><path style="fill:#7f7f7f" d="M177,999 l0,-208 312,0 0,208 -312,0z" /><path style="fill:#7f7f7f" d="M177,707 l0,-396 -177,0 0,-311 667,0 0,311 -178,0 0,396 -312,0z" /><path style="fill:#969696" d="M208,998 l0,-208 250,0 0,208 -250,0z" /><path style="fill:#969696" d="M208,707 l0,-427 -208,0 0,-250 666,0 0,250 -208,0 0,427 -250,0z" /><path style="fill:#ababab" d="M240,998 l0,-208 187,0 0,208 -187,0z" /><path style="fill:#ababab" d="M239,707 l0,-458 -239,0 0,-187 666,0 0,187 -239,0 0,458 -188,0z" /><path style="fill:#e5e5e5;stroke:#4c4c4c;stroke-width:2" d="M573,703 l-84,0 0,-100 84,0 0,100z" /><path style="fill:#7f7f7f" d="M573,609 l66,0 0,92 -66,0 0,-92z" /><path style="fill:#ababab" d="M573,625 l4,0 4,0 4,0 4,0 4,0 5,0 4,0 4,0 4,0 4,0 4,0 4,0 4,0 5,0 4,0 4,0 0,4 0,3 0,4 0,4 0,4 0,3 0,4 0,4 0,4 0,3 0,4 0,4 0,4 0,3 0,4 0,4 -4,0 -4,0 -5,0 -4,0 -4,0 -4,0 -4,0 -4,0 -4,0 -4,0 -5,0 -4,0 -4,0 -4,0 -4,0 -4,0 0,-4 0,-4 0,-3 0,-4 0,-4 0,-4 0,-3 0,-4 0,-4 0,-4 0,-3 0,-4 0,-4 0,-4 0,-3 0,-4z" /><path style="fill:#d9d9d9" d="M573,641 l66,0 0,28 -66,0 0,-28z" /><path style="fill:none;stroke:#4c4c4c;stroke-width:2" d="M573,609 l66,0 0,92 -66,0 0,-92" /><path style="fill:#c2c2c2" d="M271,707 l0,-489 -271,0 0,-125 666,0 0,125 -270,0 0,489 -125,0z" /><path style="fill:#c2c2c2" d="M271,998 l0,-208 125,0 0,208 -125,0z" /><path style="fill:#d9d9d9" d="M301,707 l0,-520 -301,0 0,-64 667,0 0,64 -302,0 0,520 -64,0z" /><path style="fill:#d9d9d9" d="M301,999 l0,-208 64,0 0,208 -64,0z" /><path style="fill:none;stroke:#4c4c4c;stroke-width:2" d="M177,707 l0,-396 -177,0 0,-311 667,0 0,311 -178,0 0,396 -312,0" /><path style="fill:none;stroke:#4c4c4c;stroke-width:2" d="M177,999 l0,-208 312,0 0,208 -312,0" /><path style="fill:none;stroke:#4c4c4c;stroke-width:2" d="M177,477 l312,0" /><path style="fill:#bfbfbf;stroke:#4c4c4c;stroke-width:2" d="M317,499 l30,0 0,104 -30,0 0,-104z" /><path style="fill:#a6a6a6;stroke:#4c4c4c;stroke-width:2" d="M379,499 l30,0 0,104 -30,0 0,-104z" /><path style="fill:#a6a6a6;stroke:#4c4c4c;stroke-width:2" d="M257,499 l30,0 0,104 -30,0 0,-104z" /><path style="fill:#8c8c8c;stroke:#4c4c4c;stroke-width:2" d="M439,499 l30,0 0,104 -30,0 0,-104z" /><path style="fill:#8c8c8c;stroke:#4c4c4c;stroke-width:2" d="M197,499 l30,0 0,104 -30,0 0,-104z" /><path style="fill:#4c4c4c;stroke:#4c4c4c;stroke-width:2" d="M165,613 l408,0 0,84 -408,0 0,-84z" /><ellipse style="fill:#e5e5e5;stroke:#4c4c4c;stroke-width:2" cx="639" cy="655" rx="6" ry="46" /><path style="fill:#000;stroke:#4c4c4c;stroke-width:2" d="M509,603 l0,-30 22,0 0,-26 26,0 0,56 -48,0z" /><path style="fill:#a6a6a6;stroke:#4c4c4c;stroke-width:2" d="M243,109 l178,0 0,92 -178,0 0,-92z" /><path style="fill:#7f7f7f;stroke:#4c4c4c;stroke-width:2" d="M213,333 l240,0 0,126 -240,0 0,-126z" /><path style="fill:#8c8c8c;stroke:#4c4c4c;stroke-width:2" d="M187,707 l292,0 0,84 -292,0 0,-84z" /><path style="fill:none;stroke:#4c4c4c;stroke-width:2" d="M187,779 l292,0" /><path style="fill:none;stroke:#4c4c4c;stroke-width:2" d="M479,765 l-292,0" /><path style="fill:none;stroke:#4c4c4c;stroke-width:2" d="M187,733 l292,0" /><path style="fill:none;stroke:#4c4c4c;stroke-width:2" d="M187,749 l292,0" /><path style="fill:none;stroke:#4c4c4c;stroke-width:2" d="M187,717 l292,0" /><path style="fill:#bfbfbf;stroke:#4c4c4c;stroke-width:2" d="M317,833 l30,0 0,166 -30,0 0,-166z" /><path style="fill:#8c8c8c;stroke:#4c4c4c;stroke-width:2" d="M439,833 l30,0 0,166 -30,0 0,-166z" /><path style="fill:#8c8c8c;stroke:#4c4c4c;stroke-width:2" d="M197,833 l30,0 0,166 -30,0 0,-166z" /></svg>