<!DOCTYPE svg PUBLIC "-//W3C//DTD SVG 20000303 Stylable//EN" "http://www.w3.org/TR/2000/03/WD-SVG-20000303/DTD/svg-20000303-stylable.dtd"[]><svg xmlns="http://www.w3.org/2000/svg" width="999px" height="776px" viewBox="0 0 999 763"><path style="fill:#333;stroke:#4c4c4c;stroke-width:2" d="M671,263 l1,-7 1,-7 0,-7 2,-7 1,-7 1,-7 1,-7 1,-6 2,-7 1,-7 2,-6 1,-7 2,-6 1,-7 2,-6 1,-7 2,-6 2,-6 2,-7 1,-6 2,-6 1,-7 2,-6 2,-6 1,-6 2,-7 2,-6 1,-7 2,-6 1,-6 1,-7 2,-7 2,-12 2,-11 4,-9 4,-8 5,-6 5,-4 5,-3 6,0 5,0 6,3 6,4 5,6 5,8 4,9 4,11 4,12 1,9 1,9 1,8 2,9 1,9 2,8 1,9 2,9 1,8 2,9 1,9 2,9 2,8 1,9 2,9 1,9 2,8 1,9 1,9 2,9 1,8 1,9 1,9 1,9 1,9 1,8 1,9 1,9 0,9 0,9 1,8 0,9 -1,3 -1,4 1,3 1,4 3,4 3,4 5,4 5,5 7,5 8,5 10,5 11,6 12,6 14,7 15,6 17,7 10,6 10,6 8,5 6,6 6,5 3,5 2,4 1,5 -1,4 -2,4 -3,4 -6,4 -6,3 -8,3 -10,3 -10,3 -11,2 -11,2 -11,3 -11,2 -11,2 -10,3 -11,2 -11,2 -11,2 -11,2 -10,3 -11,2 -11,2 -11,3 -10,2 -11,2 -11,2 -10,2 -11,3 -11,2 -11,2 -10,3 -11,2 -11,2 -10,2 -11,2 -11,3 -10,2 -11,2 -11,3 -10,2 -11,2 0,-4 0,-5 0,-4 0,-4 0,-4 0,-3 0,-4 0,-4 10,-2 9,-2 10,-2 10,-2 10,-2 9,-2 10,-2 10,-2 10,-2 9,-2 10,-2 10,-2 9,-2 10,-2 10,-2 10,-2 10,-2 9,-2 10,-2 10,-1 9,-2 10,-2 10,-2 10,-2 9,-2 10,-2 10,-2 10,-1 9,-2 10,-2 10,-2 10,-2 8,-2 7,-1 5,-1 4,-2 3,-2 2,-1 1,-2 0,-2 -2,-2 -2,-2 -3,-2 -3,-2 -4,-3 -5,-2 -6,-3 -5,-3 -13,-5 -12,-4 -12,-5 -10,-5 -10,-5 -9,-5 -8,-5 -8,-5 -6,-5 -6,-5 -5,-5 -4,-5 -3,-5 -3,-5 -1,-4 0,-5 0,-9 -1,-10 0,-9 0,-9 -1,-9 0,-9 -1,-9 -1,-9 0,-8 -1,-9 -1,-8 -1,-9 -1,-9 -1,-8 -1,-8 -2,-8 -1,-9 -1,-8 -1,-8 -2,-8 -1,-9 -1,-8 -1,-8 -1,-8 -1,-9 -2,-8 -1,-8 -1,-9 -1,-8 -1,-8 -1,-9 -1,-9 -2,-8 -1,-7 -2,-6 -1,-6 -2,-4 -1,-3 -2,-2 -1,-1 -2,0 -1,2 -2,2 -1,4 -2,5 -1,7 -2,8 -1,9 -1,6 -1,6 -2,6 -1,6 -1,6 -1,6 -2,6 -1,6 -2,6 -2,6 -1,6 -2,6 -1,5 -2,6 -1,6 -2,6 -1,6 -2,6 -1,6 -2,6 -1,5 -1,6 -2,6 -1,6 -1,6 -1,5 0,6 -1,6 -1,6 0,6 0,5 0,6 -5,0 -4,0 -4,0 -4,0 -4,0 -4,0 -3,0 -4,0z" /><path style="fill:#333;stroke:#4c4c4c;stroke-width:2" d="M327,263 l-1,-7 0,-7 -1,-7 -1,-7 -1,-7 -2,-7 -1,-7 -1,-6 -1,-7 -2,-7 -1,-6 -2,-7 -1,-6 -2,-7 -1,-6 -2,-7 -1,-6 -2,-6 -2,-7 -1,-6 -2,-6 -2,-7 -1,-6 -2,-6 -2,-6 -1,-7 -2,-6 -2,-7 -1,-6 -2,-6 -1,-7 -2,-7 -2,-12 -2,-11 -4,-9 -4,-8 -5,-6 -5,-4 -5,-3 -5,0 -6,0 -6,3 -5,4 -5,6 -5,8 -4,9 -4,11 -3,12 -1,9 -1,9 -2,8 -1,9 -2,9 -2,8 -1,9 -2,9 -1,8 -2,9 -2,9 -2,9 -1,8 -2,9 -1,9 -2,9 -1,8 -2,9 -1,9 -2,9 -1,8 -1,9 -1,9 -1,9 -1,9 -1,8 -1,9 -1,9 0,9 0,9 -1,8 0,9 1,3 1,4 -1,3 -1,4 -3,4 -3,4 -5,4 -5,5 -7,5 -8,5 -10,5 -11,6 -12,6 -14,7 -15,6 -17,7 -10,6 -10,6 -8,5 -6,6 -6,5 -3,5 -2,4 -1,5 1,4 2,4 3,4 6,4 6,3 8,3 10,3 10,3 11,2 11,2 11,3 11,2 11,2 10,3 11,2 11,2 11,2 11,2 10,3 11,2 11,2 11,3 10,2 11,2 11,2 10,2 11,3 11,2 11,2 10,3 11,2 11,2 10,2 11,2 11,3 10,2 11,2 11,3 10,2 11,2 0,-4 0,-5 0,-4 0,-4 0,-4 0,-3 0,-4 0,-4 -10,-2 -9,-2 -10,-2 -10,-2 -10,-2 -9,-2 -10,-2 -10,-2 -10,-2 -9,-2 -10,-2 -10,-2 -9,-2 -10,-2 -10,-2 -10,-2 -10,-2 -9,-2 -10,-2 -10,-1 -9,-2 -10,-2 -10,-2 -10,-2 -9,-2 -10,-2 -10,-2 -10,-1 -9,-2 -10,-2 -10,-2 -10,-2 -8,-2 -6,-1 -5,-1 -5,-2 -2,-2 -2,-1 -1,-2 0,-2 1,-2 2,-2 3,-2 3,-2 5,-3 4,-2 6,-3 5,-3 13,-5 12,-4 12,-5 10,-5 10,-5 9,-5 8,-5 8,-5 6,-5 6,-5 5,-5 4,-5 3,-5 3,-5 1,-4 0,-5 0,-9 1,-10 0,-9 0,-9 1,-9 0,-9 1,-9 1,-9 0,-8 1,-9 1,-8 1,-9 1,-9 1,-8 1,-8 2,-8 1,-9 1,-8 1,-8 2,-8 1,-9 1,-8 1,-8 1,-8 1,-9 2,-8 1,-8 1,-9 1,-8 1,-8 1,-9 1,-9 2,-8 1,-7 2,-6 1,-6 2,-4 1,-3 2,-2 1,-1 2,0 1,2 2,2 1,4 2,5 1,7 2,8 1,9 1,6 1,6 2,6 1,6 1,6 2,6 1,6 2,6 1,6 2,6 2,6 1,6 2,5 2,6 1,6 2,6 2,6 1,6 2,6 1,6 2,5 1,6 1,6 1,6 1,6 1,5 1,6 1,6 1,6 0,6 0,5 0,6 4,0 4,0 4,0 3,0 4,0 4,0 3,0 4,0z" /><path style="fill:#ccc;stroke:#4c4c4c;stroke-width:2" d="M445,467 l108,0 0,78 -108,0 0,-78z" /><path style="fill:#666;stroke:#4c4c4c;stroke-width:2" d="M467,357 l64,0 0,180 -64,0 0,-180z" /><path style="fill:#999" d="M483,357 l32,0 0,180 -32,0 0,-180z" /><path style="fill:#900;stroke:#4c4c4c;stroke-width:2" d="M367,75 l264,0 0,70 -264,0 0,-70z" /><path style="fill:#ccc;stroke:#4c4c4c;stroke-width:2" d="M375,75 l248,0 0,70 -248,0 0,-70z" /><path style="fill:#b2b2b2;stroke:#4c4c4c;stroke-width:2" d="M389,67 l220,0 0,290 -220,0 0,-290z" /><path style="fill:#666;stroke:#4c4c4c;stroke-width:2" d="M405,435 l40,0 0,140 -40,0 0,-140z" /><path style="fill:#666;stroke:#4c4c4c;stroke-width:2" d="M553,435 l40,0 0,140 -40,0 0,-140z" /><path style="fill:#b2b2b2;stroke:#4c4c4c;stroke-width:2" d="M671,513 l32,0 0,-250 -32,0 0,250z" /><path style="fill:#b2b2b2;stroke:#4c4c4c;stroke-width:2" d="M295,513 l32,0 0,-250 -32,0 0,250z" /><path style="fill:#e5e5e5" d="M679,505 l16,0 0,-234 -16,0 0,234z" /><path style="fill:#e5e5e5" d="M305,505 l14,0 0,-234 -14,0 0,234z" /><path style="fill:#7f7f7f" d="M0,763 l0,-250 47,0 0,250 -47,0z" /><path style="fill:#7f7f7f" d="M47,725 l0,-172 14,0 0,172 -14,0z" /><path style="fill:#7f7f7f" d="M61,701 l0,-126 142,0 0,126 -142,0z" /><path style="fill:#7f7f7f" d="M999,763 l0,-250 -46,0 0,250 46,0z" /><path style="fill:#7f7f7f" d="M953,725 l0,-172 -16,0 0,172 16,0z" /><path style="fill:#7f7f7f" d="M937,701 l0,-126 -142,0 0,126 142,0z" /><path style="fill:#7f7f7f" d="M561,731 l250,0 0,-218 -250,0 0,218z" /><path style="fill:#7f7f7f" d="M437,731 l-250,0 0,-218 250,0 0,218z" /><path style="fill:#7f7f7f" d="M429,701 l0,-126 140,0 0,126 -140,0z" /><path style="fill:#999" d="M577,731 l218,0 0,-218 -218,0 0,218z" /><path style="fill:#999" d="M937,693 l0,-110 -142,0 0,110 142,0z" /><path style="fill:#999" d="M953,713 l0,-150 -16,0 0,150 16,0z" /><path style="fill:#999" d="M999,747 l0,-218 -46,0 0,218 46,0z" /><path style="fill:#999" d="M429,693 l0,-110 140,0 0,110 -140,0z" /><path style="fill:#999" d="M421,731 l-218,0 0,-218 218,0 0,218z" /><path style="fill:#999" d="M61,693 l0,-110 142,0 0,110 -142,0z" /><path style="fill:#999" d="M47,713 l0,-150 14,0 0,150 -14,0z" /><path style="fill:#999" d="M0,747 l0,-218 47,0 0,218 -47,0z" /><path style="fill:#b2b2b2" d="M601,731 l172,0 0,-218 -172,0 0,218z" /><path style="fill:#b2b2b2" d="M937,681 l0,-86 -142,0 0,86 142,0z" /><path style="fill:#b2b2b2" d="M953,697 l0,-118 -16,0 0,118 16,0z" /><path style="fill:#b2b2b2" d="M999,725 l0,-172 -46,0 0,172 46,0z" /><path style="fill:#b2b2b2" d="M429,681 l0,-86 140,0 0,86 -140,0z" /><path style="fill:#b2b2b2" d="M397,731 l-172,0 0,-218 172,0 0,218z" /><path style="fill:#b2b2b2" d="M61,681 l0,-86 142,0 0,86 -142,0z" /><path style="fill:#b2b2b2" d="M47,697 l0,-118 14,0 0,118 -14,0z" /><path style="fill:#b2b2b2" d="M0,725 l0,-172 47,0 0,172 -47,0z" /><path style="fill:#ccc" d="M631,731 l110,0 0,-218 -110,0 0,218z" /><path style="fill:#ccc" d="M937,665 l0,-54 -142,0 0,54 142,0z" /><path style="fill:#ccc" d="M953,675 l0,-74 -16,0 0,74 16,0z" /><path style="fill:#ccc" d="M999,693 l0,-110 -46,0 0,110 46,0z" /><path style="fill:#ccc" d="M429,665 l0,-54 140,0 0,54 -140,0z" /><path style="fill:#ccc" d="M367,731 l-110,0 0,-218 110,0 0,218z" /><path style="fill:#ccc" d="M61,665 l0,-54 142,0 0,54 -142,0z" /><path style="fill:#ccc" d="M47,675 l0,-74 14,0 0,74 -14,0z" /><path style="fill:#ccc" d="M0,693 l0,-110 47,0 0,110 -47,0z" /><path style="fill:#e5e5e5" d="M663,731 l46,0 0,-218 -46,0 0,218z" /><path style="fill:#e5e5e5" d="M953,655 l0,-32 -16,0 0,32 16,0z" /><path style="fill:#e5e5e5" d="M937,649 l0,-22 -142,0 0,22 142,0z" /><path style="fill:#e5e5e5" d="M999,661 l0,-46 -46,0 0,46 46,0z" /><path style="fill:#e5e5e5" d="M429,649 l0,-22 140,0 0,22 -140,0z" /><path style="fill:#e5e5e5" d="M335,731 l-46,0 0,-218 46,0 0,218z" /><path style="fill:#e5e5e5" d="M47,655 l0,-32 14,0 0,32 -14,0z" /><path style="fill:#e5e5e5" d="M61,649 l0,-22 142,0 0,22 -142,0z" /><path style="fill:#e5e5e5" d="M0,661 l0,-46 47,0 0,46 -47,0z" /><path style="fill:#fff" d="M679,731 l16,0 0,-218 -16,0 0,218z" /><path style="fill:#fff" d="M953,643 l0,-10 -16,0 0,10 16,0z" /><path style="fill:#fff" d="M937,643 l0,-8 -142,0 0,8 142,0z" /><path style="fill:#fff" d="M999,645 l0,-14 -46,0 0,14 46,0z" /><path style="fill:#fff" d="M429,641 l0,-6 140,0 0,6 -140,0z" /><path style="fill:#fff" d="M319,731 l-16,0 0,-218 16,0 0,218z" /><path style="fill:#fff" d="M47,643 l0,-10 14,0 0,10 -14,0z" /><path style="fill:#fff" d="M61,643 l0,-8 142,0 0,8 -142,0z" /><path style="fill:#fff" d="M0,645 l0,-14 47,0 0,14 -47,0z" /><path style="fill:none;stroke:#4c4c4c;stroke-width:2" d="M187,575 l0,-62 250,0 0,62" /><path style="fill:none;stroke:#4c4c4c;stroke-width:2" d="M437,701 l0,30 -250,0 0,-30" /><path style="fill:none;stroke:#4c4c4c;stroke-width:2" d="M0,763 l0,-250 47,0 0,250 -47,0" /><path style="fill:none;stroke:#4c4c4c;stroke-width:2" d="M47,725 l0,-172 14,0 0,172 -14,0" /><path style="fill:none;stroke:#4c4c4c;stroke-width:2" d="M61,701 l0,-126 142,0 0,126 -142,0" /><path style="fill:none;stroke:#4c4c4c;stroke-width:2" d="M187,545 l250,0" /><path style="fill:none;stroke:#4c4c4c;stroke-width:2" d="M811,575 l0,-62 -250,0 0,62" /><path style="fill:none;stroke:#4c4c4c;stroke-width:2" d="M561,701 l0,30 250,0 0,-30" /><path style="fill:none;stroke:#4c4c4c;stroke-width:2" d="M999,763 l0,-250 -46,0 0,250 46,0" /><path style="fill:none;stroke:#4c4c4c;stroke-width:2" d="M953,725 l0,-172 -16,0 0,172 16,0" /><path style="fill:none;stroke:#4c4c4c;stroke-width:2" d="M937,701 l0,-126 -142,0 0,126 142,0" /><path style="fill:none;stroke:#4c4c4c;stroke-width:2" d="M811,545 l-250,0" /><path style="fill:none;stroke:#4c4c4c;stroke-width:2" d="M429,701 l0,-126 140,0 0,126 -140,0" /><path style="fill:#ccc;stroke:#4c4c4c;stroke-width:2" d="M203,513 l30,0 0,-16 -30,0 0,16z" /><path style="fill:#ccc;stroke:#4c4c4c;stroke-width:2" d="M389,513 l32,0 0,-16 -32,0 0,16z" /><path style="fill:#ccc;stroke:#4c4c4c;stroke-width:2" d="M327,513 l32,0 0,-16 -32,0 0,16z" /><path style="fill:#ccc;stroke:#4c4c4c;stroke-width:2" d="M265,513 l32,0 0,-16 -32,0 0,16z" /><path style="fill:#ccc;stroke:#4c4c4c;stroke-width:2" d="M577,513 l32,0 0,-16 -32,0 0,16z" /><path style="fill:#ccc;stroke:#4c4c4c;stroke-width:2" d="M765,513 l32,0 0,-16 -32,0 0,16z" /><path style="fill:#ccc;stroke:#4c4c4c;stroke-width:2" d="M703,513 l30,0 0,-16 -30,0 0,16z" /><path style="fill:#ccc;stroke:#4c4c4c;stroke-width:2" d="M639,513 l32,0 0,-16 -32,0 0,16z" /><path style="fill:#999;stroke:#4c4c4c;stroke-width:2" d="M445,545 l108,0 0,30 -108,0 0,-30z" /><path style="fill:#999;stroke:#4c4c4c;stroke-width:2" d="M445,435 l108,0 0,32 -108,0 0,-32z" /><circle style="fill:#e5e5e5;stroke:#4c4c4c;stroke-width:2" cx="500" cy="200" r="125" /><circle style="fill:#ccc;stroke:#4c4c4c;stroke-width:2" cx="499" cy="201" r="94" /><circle style="fill:#e5e5e5;stroke:#4c4c4c;stroke-width:2" cx="499" cy="200" r="46" /><circle style="fill:#333;stroke:#4c4c4c;stroke-width:2" cx="499" cy="341" r="8" /></svg>