<!DOCTYPE svg PUBLIC "-//W3C//DTD SVG 20000303 Stylable//EN" "http://www.w3.org/TR/2000/03/WD-SVG-20000303/DTD/svg-20000303-stylable.dtd"[]><svg xmlns="http://www.w3.org/2000/svg" width="670px" height="999px" viewBox="0 0 650 999"><path style="fill:#e5e5e5;stroke:#4c4c4c;stroke-width:2" d="M608,999 l-567,0 -5,-1 -4,-2 -4,-4 -4,-4 -3,-6 -3,-7 -4,-7 -3,-9 -2,-9 -3,-11 -1,-11 -2,-12 -2,-12 -1,-13 0,-14 0,-13 0,-14 0,-13 1,-13 2,-12 2,-12 1,-10 3,-11 2,-9 3,-9 4,-7 3,-7 3,-6 4,-4 4,-4 4,-2 5,-1 568,0 4,1 4,2 4,4 4,4 4,6 3,7 3,7 3,9 3,9 2,11 2,11 2,12 2,11 0,13 1,13 0,14 0,13 -1,14 0,13 -2,12 -2,12 -2,11 -3,11 -2,9 -3,9 -4,7 -3,7 -3,6 -4,4 -4,4 -5,2 -4,1z" /><path style="fill:none;stroke:#4c4c4c;stroke-width:2" d="M41,731 l4,1 4,2 3,3 4,5 4,5 3,7 3,8 3,8 3,10 2,11 2,10 2,12 1,13 1,12 1,14 0,13 0,14 -1,13 -1,12 -1,13 -2,12 -2,10 -2,11 -3,9 -3,9 -3,7 -3,7 -4,6 -4,4 -3,4 -4,2 -4,1" /><path style="fill:#fff" d="M88,819 l553,0 0,0 0,43 0,0 0,0 -553,0 0,0 0,0 0,-43 0,0z" /><path style="fill:#000" d="M66,989 l10,-21 548,0 -13,21 -545,0z" /><path style="fill:#7f7f7f" d="M65,739 l14,26 545,0 -14,-26 -545,0z" /><path style="fill:#7f7f7f;stroke:#4c4c4c;stroke-width:2" d="M382,729 l-1,4 -3,4 -5,4 -6,2 -7,3 -9,1 -9,1 -10,0 -10,0 -10,-1 -8,-1 -8,-3 -6,-2 -5,-4 -3,-4 -1,-4 0,-104 101,0 0,104z" /><path style="fill:#000" d="M373,733 l0,-108 -17,0 0,116 17,-8z" /><path style="fill:#333;stroke:#4c4c4c;stroke-width:2" d="M54,625 l-36,-35 -2,-590 589,0 38,37 0,588 -589,0z" /><path style="fill:#7f7f7f;stroke:#4c4c4c;stroke-width:2" d="M54,35 l589,0 0,589 -589,0 0,-589z" /><path style="fill:#fff;stroke:#4c4c4c;stroke-width:2" d="M105,114 l484,0 0,97 -484,0 0,-97z" /><path style="fill:#f00;stroke:#4c4c4c;stroke-width:2" d="M180,282 l93,0 0,92 -93,0 0,-92z" /><path style="fill:#f00;stroke:#4c4c4c;stroke-width:2" d="M417,282 l93,0 0,92 -93,0 0,-92z" /><path style="fill:#f00;stroke:#4c4c4c;stroke-width:2" d="M180,437 l93,0 0,92 -93,0 0,-92z" /><path style="fill:#f00;stroke:#4c4c4c;stroke-width:2" d="M417,437 l93,0 0,92 -93,0 0,-92z" /></svg>