<!DOCTYPE svg PUBLIC "-//W3C//DTD SVG 20000303 Stylable//EN" "http://www.w3.org/TR/2000/03/WD-SVG-20000303/DTD/svg-20000303-stylable.dtd"[]><svg xmlns="http://www.w3.org/2000/svg" width="999px" height="684px" viewBox="0 0 999 665"><path style="fill:#b2b2b2" d="M82,165 l834,0 0,334 -834,0 0,-334z" /><path style="fill:#ccc" d="M82,191 l834,0 0,282 -834,0 0,-282z" /><path style="fill:#e5e5e5" d="M82,234 l834,0 0,196 -834,0 0,-196z" /><path style="fill:#fff" d="M82,281 l834,0 0,104 -834,0 0,-104z" /><path style="fill:none;stroke:#4c4c4c;stroke-width:2" d="M82,165 l834,0 0,334 -834,0 0,-334" /><path style="fill:#b2b2b2" d="M82,0 l-82,0 0,665 82,0 0,-665z" /><path style="fill:#ccc" d="M82,52 l-82,0 0,561 82,0 0,-561z" /><path style="fill:#e5e5e5" d="M82,134 l-82,0 0,396 82,0 0,-396z" /><path style="fill:#fff" d="M82,229 l-82,0 0,209 82,0 0,-209z" /><path style="fill:none;stroke:#4c4c4c;stroke-width:2" d="M82,0 l-82,0 0,665 82,0 0,-665" /><path style="fill:#b2b2b2" d="M999,0 l-83,0 0,665 83,0 0,-665z" /><path style="fill:#ccc" d="M999,52 l-83,0 0,561 83,0 0,-561z" /><path style="fill:#e5e5e5" d="M999,134 l-83,0 0,396 83,0 0,-396z" /><path style="fill:#fff" d="M999,229 l-83,0 0,209 83,0 0,-209z" /><path style="fill:none;stroke:#4c4c4c;stroke-width:2" d="M999,0 l-83,0 0,665 83,0 0,-665" /><path style="fill:#7f7f7f;stroke:#4c4c4c;stroke-width:2" d="M665,390 l0,-4 1,-5 0,-5 1,-5 0,-5 0,-5 1,-5 0,-5 1,-6 0,-5 0,-6 0,-5 0,-6 1,-5 0,-5 0,-6 0,-8 -1,-8 0,-8 0,-8 -1,-8 -1,-8 0,-8 -1,-8 -1,-7 -2,-8 -1,-7 -1,-8 -2,-7 -2,-6 -2,-7 -2,-6 -308,0 -2,6 -2,7 -2,6 -2,7 -1,8 -1,7 -2,8 -1,7 0,8 -1,8 -1,8 -1,8 0,8 0,8 0,8 0,8 0,6 0,5 0,5 0,6 0,5 0,6 1,5 0,6 1,5 0,5 0,5 1,5 0,5 0,5 1,5 0,4 332,0z" /><path style="fill:#b2b2b2" d="M82,125 l43,0 0,417 -43,0 0,-417z" /><path style="fill:#ccc" d="M82,156 l43,0 0,353 -43,0 0,-353z" /><path style="fill:#e5e5e5" d="M82,208 l43,0 0,248 -43,0 0,-248z" /><path style="fill:#fff" d="M82,267 l43,0 0,130 -43,0 0,-130z" /><path style="fill:none;stroke:#4c4c4c;stroke-width:2" d="M82,125 l43,0 0,417 -43,0 0,-417" /><path style="fill:#b2b2b2" d="M873,125 l43,0 0,417 -43,0 0,-417z" /><path style="fill:#ccc" d="M873,156 l43,0 0,353 -43,0 0,-353z" /><path style="fill:#e5e5e5" d="M873,208 l43,0 0,248 -43,0 0,-248z" /><path style="fill:#fff" d="M873,267 l43,0 0,130 -43,0 0,-130z" /><path style="fill:none;stroke:#4c4c4c;stroke-width:2" d="M873,125 l43,0 0,417 -43,0 0,-417" /><path style="fill:#b2b2b2;stroke:#4c4c4c;stroke-width:2" d="M374,165 l42,0 0,-14 -42,0 0,14z" /><path style="fill:#4c4c4c;stroke:#4c4c4c;stroke-width:2" d="M651,390 l0,-4 0,-5 0,-5 0,-5 0,-5 0,-5 1,-5 0,-5 0,-6 0,-5 1,-6 0,-5 0,-6 0,-5 0,-5 0,-6 0,-8 0,-7 0,-7 0,-7 -1,-7 0,-7 -1,-6 -1,-6 0,-7 -1,-5 -2,-7 -1,-6 -1,-6 -2,-6 -2,-6 -2,-6 -280,0 -2,6 -2,6 -1,6 -2,6 -1,6 -1,7 -1,5 -1,7 -1,6 0,6 -1,7 0,7 -1,7 0,7 0,7 0,8 0,6 0,5 0,5 0,6 1,5 0,6 0,5 1,6 0,5 0,5 0,5 0,5 0,5 1,5 0,5 0,4 303,0z" /><circle style="fill:#999;stroke:#4c4c4c;stroke-width:2" cx="395" cy="297" r="21" /><circle style="fill:#ccc" cx="394" cy="296" r="9" /><path style="fill:#7f7f7f" d="M575,213 l50,49 0,67 -50,52 -168,-69 0,-33 168,-66z" /><path style="fill:#999" d="M575,229 l50,40 0,55 -50,38 -168,-52 0,-26 168,-55z" /><path style="fill:#b2b2b2" d="M575,262 l50,22 0,26 -50,19 -168,-26 0,-12 168,-29z" /><path style="fill:none;stroke:#4c4c4c;stroke-width:2" d="M575,213 l50,49 0,67 -50,52 -168,-69 0,-33 168,-66" /><path style="fill:none;stroke:#7f7f7f;stroke-width:2" d="M575,213 l0,168" /><path style="fill:#999" d="M385,281 l19,0 0,-78 -19,0 0,78z" /><path style="fill:#ccc" d="M390,281 l10,0 0,-78 -10,0 0,78z" /><path style="fill:none;stroke:#4c4c4c;stroke-width:2" d="M385,281 l19,0 0,-78 -19,0 0,78" /><path style="fill:#b2b2b2;stroke:#4c4c4c;stroke-width:2" d="M291,165 l42,0 0,-14 -42,0 0,14z" /></svg>