<!DOCTYPE svg PUBLIC "-//W3C//DTD SVG 20000303 Stylable//EN" "http://www.w3.org/TR/2000/03/WD-SVG-20000303/DTD/svg-20000303-stylable.dtd"[]><svg xmlns="http://www.w3.org/2000/svg" width="999px" height="320px" viewBox="0 0 999 279"><path style="fill:#7f7f7f" d="M967,0 l32,0 0,279 -32,0 0,-279z" /><path style="fill:#7f7f7f" d="M117,217 l-86,0 0,-155 86,0 30,-32 704,0 30,32 86,0 0,155 -86,0 -30,30 -704,0 -30,-30z" /><path style="fill:#7f7f7f" d="M0,0 l31,0 0,279 -31,0 0,-279z" /><path style="fill:#999" d="M967,15 l32,0 0,246 -32,0 0,-246z" /><path style="fill:#999" d="M117,211 l-86,0 0,-146 86,0 30,-27 704,0 30,27 86,0 0,146 -86,0 -30,30 -704,0 -30,-30z" /><path style="fill:#999" d="M0,15 l31,0 0,246 -31,0 0,-246z" /><path style="fill:#b2b2b2" d="M967,39 l32,0 0,200 -32,0 0,-200z" /><path style="fill:#b2b2b2" d="M117,199 l-86,0 0,-121 86,0 30,-24 704,0 30,24 86,0 0,121 -86,0 -30,26 -704,0 -30,-26z" /><path style="fill:#b2b2b2" d="M0,39 l31,0 0,200 -31,0 0,-200z" /><path style="fill:#ccc" d="M967,70 l32,0 0,139 -32,0 0,-139z" /><path style="fill:#ccc" d="M117,183 l-86,0 0,-89 86,0 30,-16 704,0 30,16 86,0 0,89 -86,0 -30,18 -704,0 -30,-18z" /><path style="fill:#ccc" d="M0,70 l31,0 0,139 -31,0 0,-139z" /><path style="fill:#e5e5e5" d="M967,97 l32,0 0,82 -32,0 0,-82z" /><path style="fill:#e5e5e5" d="M117,167 l-86,0 0,-56 86,0 30,-12 704,0 30,12 86,0 0,56 -86,0 -30,10 -704,0 -30,-10z" /><path style="fill:#e5e5e5" d="M0,97 l31,0 0,82 -31,0 0,-82z" /><path style="fill:#fff" d="M117,149 l-86,0 0,-22 86,0 30,-4 704,0 30,4 86,0 0,22 -86,0 -30,6 -704,0 -30,-6z" /><path style="fill:#fff" d="M0,127 l31,0 0,25 -31,0 0,-25z" /><path style="fill:#fff" d="M967,127 l32,0 0,25 -32,0 0,-25z" /><path style="fill:#666;stroke:#4c4c4c;stroke-width:2" d="M951,22 l16,0 0,24 -16,0 0,-24z" /><path style="fill:#666;stroke:#4c4c4c;stroke-width:2" d="M951,247 l16,0 0,24 -16,0 0,-24z" /><path style="fill:#666;stroke:#4c4c4c;stroke-width:2" d="M31,247 l14,0 0,24 -14,0 0,-24z" /><path style="fill:#666;stroke:#4c4c4c;stroke-width:2" d="M31,22 l14,0 0,24 -14,0 0,-24z" /><path style="fill:#b2b2b2;stroke:#4c4c4c;stroke-width:2" d="M951,6 l16,0 0,16 -16,0 0,-16z" /><path style="fill:#b2b2b2;stroke:#4c4c4c;stroke-width:2" d="M951,233 l16,0 0,14 -16,0 0,-14z" /><path style="fill:#b2b2b2;stroke:#4c4c4c;stroke-width:2" d="M31,233 l14,0 0,14 -14,0 0,-14z" /><path style="fill:#b2b2b2;stroke:#4c4c4c;stroke-width:2" d="M31,6 l14,0 0,16 -14,0 0,-16z" /><path style="fill:none;stroke:#4c4c4c;stroke-width:2" d="M967,0 l32,0 0,279 -32,0 0,-279" /><path style="fill:none;stroke:#4c4c4c;stroke-width:2" d="M117,217 l-86,0 0,-155 86,0 30,-32 704,0 30,32 86,0 0,155 -86,0 -30,30 -704,0 -30,-30" /><path style="fill:none;stroke:#4c4c4c;stroke-width:2" d="M0,0 l31,0 0,279 -31,0 0,-279" /><path style="fill:none;stroke:#7f7f7f;stroke-width:2" d="M879,62 l0,155" /><path style="fill:none;stroke:#7f7f7f;stroke-width:2" d="M851,247 l0,-217" /><path style="fill:none;stroke:#7f7f7f;stroke-width:2" d="M147,247 l0,-217" /><path style="fill:none;stroke:#7f7f7f;stroke-width:2" d="M119,217 l0,-155" /></svg>