<!DOCTYPE svg PUBLIC "-//W3C//DTD SVG 20000303 Stylable//EN" "http://www.w3.org/TR/2000/03/WD-SVG-20000303/DTD/svg-20000303-stylable.dtd"[]><svg xmlns="http://www.w3.org/2000/svg" width="999px" height="999px" viewBox="0 0 999 999"><path style="fill:#000;stroke:#4c4c4c;stroke-width:2" d="M218,594 l562,0 0,61 -562,0 0,-61z" /><path style="fill:#000;stroke:#4c4c4c;stroke-width:2" d="M311,125 l376,0 0,-78 -376,0 0,78z" /><path style="fill:#ff9e59;stroke:#4c4c4c;stroke-width:2" d="M61,250 l876,0 0,312 -876,0 0,-312z" /><path style="fill:#ffbe90" d="M69,258 l860,0 0,45 -860,0 0,-45z" /><path style="fill:#ff7d21" d="M69,492 l860,0 0,62 -860,0 0,-62z" /><path style="fill:#ff7d21;stroke:#4c4c4c;stroke-width:2" d="M218,719 l32,280 498,0 32,-280 -562,0z" /><path style="fill:#333;stroke:#4c4c4c;stroke-width:2" d="M295,47 l0,-32 32,-15 344,0 32,15 0,32 -408,0z" /><path style="fill:#333;stroke:#4c4c4c;stroke-width:2" d="M279,234 l0,-77 32,-32 376,0 32,32 0,77 -440,0z" /><path style="fill:#ff9143;stroke:#4c4c4c;stroke-width:2" d="M937,157 l62,0 0,498 -62,0 0,-498z" /><path style="fill:#ff9143;stroke:#4c4c4c;stroke-width:2" d="M250,234 l498,0 0,328 -498,0 0,-328z" /><path style="fill:#ff9143;stroke:#4c4c4c;stroke-width:2" d="M0,157 l61,0 0,498 -61,0 0,-498z" /><path style="fill:#999;stroke:#4c4c4c;stroke-width:2" d="M436,527 l32,0 0,205 -32,0 0,-205z" /><path style="fill:#999;stroke:#4c4c4c;stroke-width:2" d="M250,527 l29,0 0,205 -29,0 0,-205z" /><path style="fill:#999;stroke:#4c4c4c;stroke-width:2" d="M343,527 l32,0 0,205 -32,0 0,-205z" /><path style="fill:#999;stroke:#4c4c4c;stroke-width:2" d="M530,527 l32,0 0,205 -32,0 0,-205z" /><path style="fill:#999;stroke:#4c4c4c;stroke-width:2" d="M623,527 l32,0 0,205 -32,0 0,-205z" /><path style="fill:#999;stroke:#4c4c4c;stroke-width:2" d="M719,527 l29,0 0,205 -29,0 0,-205z" /><path style="fill:#ff9e59;stroke:#4c4c4c;stroke-width:2" d="M186,530 l626,0 0,64 -626,0 0,-64z" /><path style="fill:#ff9e59;stroke:#4c4c4c;stroke-width:2" d="M186,655 l626,0 0,64 -626,0 0,-64z" /><path style="fill:#ff7d21" d="M940,519 l53,0 0,133 -53,0 0,-133z" /><path style="fill:#ff7d21" d="M2,519 l56,0 0,133 -56,0 0,-133z" /><path style="fill:#ffbe90" d="M940,159 l53,0 0,107 -53,0 0,-107z" /><path style="fill:#ffbe90" d="M2,159 l56,0 0,107 -56,0 0,-107z" /></svg>