<!DOCTYPE svg PUBLIC "-//W3C//DTD SVG 20000303 Stylable//EN" "http://www.w3.org/TR/2000/03/WD-SVG-20000303/DTD/svg-20000303-stylable.dtd"[]><svg xmlns="http://www.w3.org/2000/svg" width="498px" height="999px" viewBox="0 0 468 999"><path style="fill:#000;stroke:#4c4c4c;stroke-width:2" d="M39,999 l-39,-39 0,-429 428,0 39,39 0,429 -428,0z" /><path style="fill:#7f7f7f;stroke:#4c4c4c;stroke-width:2" d="M39,569 l428,0 0,429 -428,0 0,-429z" /><path style="fill:#7f7f7f;stroke:#4c4c4c;stroke-width:2" d="M277,546 l0,4 -3,3 -3,4 -5,2 -5,2 -7,2 -7,1 -8,0 -8,0 -7,-1 -7,-2 -5,-2 -5,-2 -4,-4 -2,-3 -1,-4 0,-101 77,0 0,101z" /><path style="fill:#000;stroke:#4c4c4c;stroke-width:2" d="M271,546 l0,-87 -13,0 0,94 13,-7z" /><path style="fill:#e5e5e5;stroke:#4c4c4c;stroke-width:2" d="M438,467 l-409,0 -3,-1 -3,-4 -2,-5 -3,-8 -3,-10 -2,-12 -2,-13 -2,-16 -2,-16 -2,-19 -1,-19 -1,-20 -1,-21 -1,-23 -1,-23 0,-24 0,-24 1,-23 1,-22 1,-22 1,-20 1,-19 2,-18 2,-17 2,-15 2,-13 2,-12 3,-10 3,-8 2,-6 3,-3 3,-1 410,0 3,1 2,3 3,6 3,8 3,10 2,12 2,14 2,15 2,16 2,18 1,19 1,21 2,21 1,22 0,23 0,24 0,24 0,23 -1,23 -2,21 -1,20 -1,19 -2,19 -2,16 -2,16 -2,13 -3,12 -2,10 -3,8 -3,5 -3,4 -3,1z" /><path style="fill:none;stroke:#4c4c4c;stroke-width:2" d="M29,0 l3,1 3,4 3,6 3,8 3,9 2,12 2,14 2,15 2,17 2,18 1,19 2,20 0,22 1,22 1,23 0,24 0,24 -1,22 -1,23 0,21 -2,20 -1,20 -2,18 -2,16 -2,16 -2,13 -2,12 -3,10 -3,8 -3,5 -3,4 -3,1" /><path style="fill:#fff" d="M74,141 l385,0 0,61 -385,0 0,-61z" /><path style="fill:#000" d="M47,459 l7,-34 392,0 -6,34 -393,0z" /><path style="fill:#7f7f7f" d="M47,6 l7,34 392,0 -7,-34 -392,0z" /></svg>