<!DOCTYPE svg PUBLIC "-//W3C//DTD SVG 20000303 Stylable//EN" "http://www.w3.org/TR/2000/03/WD-SVG-20000303/DTD/svg-20000303-stylable.dtd"[]><svg xmlns="http://www.w3.org/2000/svg" width="967px" height="999px" viewBox="0 0 921 953"><path style="fill:#630;stroke:#4c4c4c;stroke-width:2" d="M461,304 l32,0 33,-142 64,0 0,-85 -129,0 -130,0 0,85 65,0 32,142 33,0z" /><path style="fill:#630;stroke:#4c4c4c;stroke-width:2" d="M461,123 l-111,0 0,-7 111,0 110,0 0,7 -110,0z" /><path style="fill:#963;stroke:#4c4c4c;stroke-width:2" d="M519,862 l260,1 142,-208 -259,-312 -26,0 -78,78 0,26 169,208 -39,65 -169,0 -285,0 -39,-65 169,-208 0,-26 -78,-78 -26,0 -260,312 143,208 376,-1z" /><path style="fill:none;stroke:#4c4c4c;stroke-width:2" d="M130,655 l65,0" /><path style="fill:none;stroke:#4c4c4c;stroke-width:2" d="M791,655 l-65,0" /><path style="fill:none;stroke:#4c4c4c;stroke-width:2" d="M688,720 l38,52" /><path style="fill:none;stroke:#4c4c4c;stroke-width:2" d="M234,720 l-26,52" /><path style="fill:none;stroke:#4c4c4c;stroke-width:2" d="M363,447 l-103,-104" /><path style="fill:none;stroke:#4c4c4c;stroke-width:2" d="M558,447 l104,-104" /><path style="fill:#963;stroke:#4c4c4c;stroke-width:2" d="M396,272 l-92,91 40,39 117,-117 -20,-123 -13,-39 -78,0 20,45 26,104z" /><circle style="fill:#963;stroke:#4c4c4c;stroke-width:2" cx="354" cy="119" r="16" /><path style="fill:#963;stroke:#4c4c4c;stroke-width:2" d="M525,272 l91,91 -39,39 -116,-117 18,-123 14,-39 78,0 -20,45 -26,104z" /><circle style="fill:#963;stroke:#4c4c4c;stroke-width:2" cx="567" cy="119" r="16" /><path style="fill:#963;stroke:#4c4c4c;stroke-width:2" d="M331,77 l13,0 0,85 -13,0 0,-85z" /><path style="fill:#963;stroke:#4c4c4c;stroke-width:2" d="M578,77 l12,0 0,85 -12,0 0,-85z" /><path style="fill:#630;stroke:#4c4c4c;stroke-width:2" d="M311,103 l20,0 0,33 -20,0 0,-33z" /><path style="fill:#630;stroke:#4c4c4c;stroke-width:2" d="M590,103 l20,0 0,33 -20,0 0,-33z" /><path style="fill:#630;stroke:#4c4c4c;stroke-width:2" d="M311,136 l-39,6 1,-45 38,6 0,33z" /><path style="fill:#630;stroke:#4c4c4c;stroke-width:2" d="M610,103 l39,-6 0,45 -39,-6 0,-33z" /><path style="fill:#963;stroke:#4c4c4c;stroke-width:2" d="M272,240 l-25,0 0,-240 25,0 0,240z" /><path style="fill:#963;stroke:#4c4c4c;stroke-width:2" d="M675,240 l-26,0 0,-240 26,0 0,240z" /><path style="fill:#30c;stroke:#4c4c4c;stroke-width:2" d="M357,726 l19,-19 169,0 19,19 0,208 -19,19 -169,0 -19,-19 0,-208z" /><circle style="fill:#ccc;stroke:#4c4c4c;stroke-width:2" cx="376" cy="726" r="6" /><path style="fill:none;stroke:#4c4c4c;stroke-width:2" d="M376,733 l0,-13" /><path style="fill:none;stroke:#4c4c4c;stroke-width:2" d="M383,726 l-13,0" /><circle style="fill:#ccc;stroke:#4c4c4c;stroke-width:2" cx="545" cy="726" r="6" /><path style="fill:none;stroke:#4c4c4c;stroke-width:2" d="M545,733 l0,-13" /><path style="fill:none;stroke:#4c4c4c;stroke-width:2" d="M551,726 l-13,0" /><circle style="fill:#ccc;stroke:#4c4c4c;stroke-width:2" cx="376" cy="933" r="6" /><path style="fill:none;stroke:#4c4c4c;stroke-width:2" d="M376,940 l0,-13" /><path style="fill:none;stroke:#4c4c4c;stroke-width:2" d="M383,934 l-13,0" /><circle style="fill:#ccc;stroke:#4c4c4c;stroke-width:2" cx="545" cy="933" r="6" /><path style="fill:none;stroke:#4c4c4c;stroke-width:2" d="M545,940 l0,-13" /><path style="fill:none;stroke:#4c4c4c;stroke-width:2" d="M551,934 l-13,0" /><circle style="fill:#30c;stroke:#4c4c4c;stroke-width:2" cx="461" cy="830" r="84" /><circle style="fill:#006;stroke:#7f7f7f;stroke-width:2" cx="461" cy="830" r="51" /><circle style="fill:#30c;stroke:#7f7f7f;stroke-width:2" cx="461" cy="830" r="45" /><path style="fill:none;stroke:#4c4c4c;stroke-width:2" d="M344,91 l84,0 0,-14" /><path style="fill:none;stroke:#4c4c4c;stroke-width:2" d="M493,77 l0,14 85,-1" /><path style="fill:none;stroke:#4c4c4c;stroke-width:2" d="M441,103 l0,-12 26,0 0,-7 20,13 -20,12 0,-6 -26,0" /></svg>