<!DOCTYPE svg PUBLIC "-//W3C//DTD SVG 20000303 Stylable//EN" "http://www.w3.org/TR/2000/03/WD-SVG-20000303/DTD/svg-20000303-stylable.dtd"[]><svg xmlns="http://www.w3.org/2000/svg" width="684px" height="999px" viewBox="0 0 666 999"><path style="fill:#fff;stroke:#4c4c4c;stroke-width:2" d="M231,318 l203,0 0,86 -203,0 0,-86z" /><path style="fill:#fff;stroke:#4c4c4c;stroke-width:2" d="M29,115 l159,0 0,58 -159,0 0,-58z" /><path style="fill:#fff;stroke:#4c4c4c;stroke-width:2" d="M29,216 l159,0 0,58 -159,0 0,-58z" /><circle style="fill:#fff;stroke:#4c4c4c;stroke-width:2" cx="333" cy="188" r="188" /><circle style="fill:#7f7f7f;stroke:#4c4c4c;stroke-width:2" cx="332" cy="187" r="173" /><circle style="fill:#000;stroke:#7f7f7f;stroke-width:2" cx="332" cy="187" r="159" /><circle style="fill:#000;stroke:#7f7f7f;stroke-width:2" cx="332" cy="187" r="101" /><path style="fill:#0f0;stroke:#7f7f7f;stroke-width:2" d="M246,158 l174,0 0,58 -174,0 0,-58z" /><path style="fill:none;stroke:#4c4c4c;stroke-width:2" d="M405,200 l0,-11" /><path style="fill:none;stroke:#4c4c4c;stroke-width:2" d="M405,186 l0,-11" /><path style="fill:none;stroke:#4c4c4c;stroke-width:2" d="M403,173 l-11,0" /><path style="fill:none;stroke:#4c4c4c;stroke-width:2" d="M391,175 l0,11" /><path style="fill:none;stroke:#4c4c4c;stroke-width:2" d="M391,189 l0,11" /><path style="fill:none;stroke:#4c4c4c;stroke-width:2" d="M392,202 l11,0" /><path style="fill:#fff;stroke:#4c4c4c;stroke-width:2" d="M57,202 l73,0 0,87 -73,0 0,-87z" /><path style="fill:#fff;stroke:#4c4c4c;stroke-width:2" d="M57,101 l73,0 0,87 -73,0 0,-87z" /><path style="fill:#000;stroke:#4c4c4c;stroke-width:2" d="M57,158 l73,0 0,30 -73,0 0,-30z" /><path style="fill:#000;stroke:#4c4c4c;stroke-width:2" d="M57,260 l73,0 0,29 -73,0 0,-29z" /><path style="fill:#7f7f7f;stroke:#4c4c4c;stroke-width:2" d="M57,144 l73,0 0,29 -73,0 0,-29z" /><path style="fill:#7f7f7f;stroke:#4c4c4c;stroke-width:2" d="M57,245 l73,0 0,29 -73,0 0,-29z" /><path style="fill:#fff;stroke:#4c4c4c;stroke-width:2" d="M246,405 l-58,159 290,-1 -58,-158 -174,0z" /><path style="fill:#ff0;stroke:#4c4c4c;stroke-width:2" d="M101,564 l463,0 0,15 -463,0 0,-15z" /><path style="fill:#ff0;stroke:#4c4c4c;stroke-width:2" d="M72,579 l522,0 0,420 -522,0 0,-420z" /><path style="fill:#ff0;stroke:#4c4c4c;stroke-width:2" d="M0,579 l57,0 0,420 -57,0 0,-420z" /><path style="fill:#ff0;stroke:#4c4c4c;stroke-width:2" d="M608,579 l58,0 0,420 -58,0 0,-420z" /><path style="fill:#000;stroke:#4c4c4c;stroke-width:2" d="M57,579 l15,0 0,420 -15,0 0,-420z" /><path style="fill:#000;stroke:#4c4c4c;stroke-width:2" d="M593,579 l15,0 0,420 -15,0 0,-420z" /><circle style="fill:#7f7f7f;stroke:#4c4c4c;stroke-width:2" cx="28" cy="796" r="14" /><circle style="fill:#7f7f7f;stroke:#4c4c4c;stroke-width:2" cx="636" cy="796" r="14" /><path style="fill:none;stroke:#4c4c4c;stroke-width:2" d="M29,810 l0,-29" /><path style="fill:none;stroke:#4c4c4c;stroke-width:2" d="M622,796 l29,0" /><path style="fill:#000;stroke:#4c4c4c;stroke-width:2" d="M231,850 l140,0 -51,51 51,0 63,-64 0,-25 -63,-64 -51,0 51,51 -140,0 0,51z" /></svg>