<!DOCTYPE svg PUBLIC "-//W3C//DTD SVG 20000303 Stylable//EN" "http://www.w3.org/TR/2000/03/WD-SVG-20000303/DTD/svg-20000303-stylable.dtd"[]><svg xmlns="http://www.w3.org/2000/svg" width="685px" height="999px" viewBox="0 0 669 999"><path style="fill:#006" d="M4,911 l0,-577 104,0 0,124 453,0 0,-124 103,0 0,577 -103,0 0,-124 -453,0 0,124 -104,0z" /><path style="fill:#00007f" d="M5,849 l0,-453 103,0 0,97 453,0 0,-97 103,0 0,453 -103,0 0,-97 -453,0 0,97 -103,0z" /><path style="fill:#009" d="M5,828 l0,-411 103,0 0,88 453,0 0,-88 103,0 0,411 -103,0 0,-88 -453,0 0,88 -103,0z" /><path style="fill:#0000b2" d="M5,756 l0,-268 103,0 0,58 453,0 0,-58 103,0 0,268 -103,0 0,-57 -453,0 0,57 -103,0z" /><path style="fill:#00c" d="M4,685 l0,-124 104,0 0,26 453,0 0,-26 103,0 0,124 -103,0 0,-27 -453,0 0,27 -104,0z" /><path style="fill:none;stroke:#4c4c4c;stroke-width:2" d="M4,911 l0,-577 104,0 0,124 453,0 0,-124 103,0 0,577 -103,0 0,-124 -453,0 0,124 -104,0" /><path style="fill:none;stroke:#4c4c4c;stroke-width:2" d="M108,787 l0,-329" /><path style="fill:none;stroke:#4c4c4c;stroke-width:2" d="M561,787 l0,-329" /><path style="fill:#7f7f7f" d="M169,293 l330,0 0,659 -330,0 0,-659z" /><path style="fill:#969696" d="M170,360 l329,0 0,525 -329,0 0,-525z" /><path style="fill:#ababab" d="M170,427 l329,0 0,391 -329,0 0,-391z" /><path style="fill:#c2c2c2" d="M170,494 l329,0 0,257 -329,0 0,-257z" /><path style="fill:#d9d9d9" d="M169,561 l330,0 0,123 -330,0 0,-123z" /><path style="fill:none;stroke:#4c4c4c;stroke-width:2" d="M169,293 l330,0 0,659 -330,0 0,-659" /><path style="fill:#bfbfbf;stroke:#4c4c4c;stroke-width:2" d="M231,787 l206,0 0,207 -206,0 0,-207z" /><path style="fill:#bfbfbf;stroke:#4c4c4c;stroke-width:2" d="M438,458 l-206,0 0,-206 206,0 0,206z" /><path style="fill:#ccc;stroke:#4c4c4c;stroke-width:2" d="M108,602 l453,0 0,21 -453,0 0,-21z" /><path style="fill:#b2b2b2;stroke:#4c4c4c;stroke-width:2" d="M108,622 l453,0 0,21 -453,0 0,-21z" /><path style="fill:#666" d="M252,808 l165,0 0,21 -165,0 0,-21z" /><path style="fill:#666" d="M252,844 l165,0 0,21 -165,0 0,-21z" /><path style="fill:#666" d="M252,875 l165,0 0,21 -165,0 0,-21z" /><path style="fill:#666" d="M252,906 l165,0 0,15 -165,0 0,-15z" /><path style="fill:#666" d="M417,437 l-165,0 0,-20 165,0 0,20z" /><path style="fill:#666" d="M417,401 l-165,0 0,-21 165,0 0,21z" /><path style="fill:#666" d="M417,370 l-165,0 0,-21 165,0 0,21z" /><path style="fill:#666" d="M417,339 l-165,0 0,-15 165,0 0,15z" /><path style="fill:#d9d9d9" d="M149,211 l20,-21 330,-165 21,-21 0,207 -371,0z" /><path style="fill:#f2f2f2" d="M520,4 l-21,21 -329,165 -21,21 0,-207 371,0z" /><path style="fill:#fff;stroke:#7f7f7f;stroke-width:2" d="M170,25 l329,0 0,165 -329,0 0,-165z" /><path style="fill:none;stroke:#4c4c4c;stroke-width:2" d="M149,4 l371,0 0,207 -371,0 0,-207" /><path style="fill:#e5e5e5;stroke:#4c4c4c;stroke-width:2" d="M355,46 l103,0 0,103 -103,0 0,-103z" /><path style="fill:#000" d="M288,25 l5,0 0,165 -5,0 0,-165z" /><path style="fill:#900" d="M190,154 l41,0 0,15 -41,0 0,-15z" /><path style="fill:#900" d="M272,283 l52,0 0,15 -52,0 0,-15z" /><path style="fill:#f2f2f2;stroke:#4c4c4c;stroke-width:2" d="M252,272 l165,0 0,36 -165,0 0,-36z" /><path style="fill:#090;stroke:#4c4c4c;stroke-width:2" d="M375,61 l62,0 0,31 -62,0 0,-31z" /><path style="fill:none;stroke:#4c4c4c;stroke-width:2" d="M355,159 l103,0" /><path style="fill:none;stroke:#4c4c4c;stroke-width:2" d="M458,169 l-103,0" /><path style="fill:none;stroke:#4c4c4c;stroke-width:2" d="M355,180 l103,0" /><path style="fill:#999;stroke:#4c4c4c;stroke-width:2" d="M375,252 l0,-41 -123,0 41,41 82,0z" /><path style="fill:none;stroke:#4c4c4c;stroke-width:2" d="M293,252 l0,-41" /></svg>