<!DOCTYPE svg PUBLIC "-//W3C//DTD SVG 20000303 Stylable//EN" "http://www.w3.org/TR/2000/03/WD-SVG-20000303/DTD/svg-20000303-stylable.dtd"[]><svg xmlns="http://www.w3.org/2000/svg" width="790px" height="999px" viewBox="0 0 778 999"><path style="fill:#4c4c4c;stroke:#4c4c4c;stroke-width:2" d="M205,924 l370,0 0,75 -370,0 0,-75z" /><path style="fill:#666" d="M149,351 l479,0 0,408 -479,0 0,-408z" /><path style="fill:#7f7f7f" d="M149,386 l479,0 0,338 -479,0 0,-338z" /><path style="fill:#999" d="M149,452 l479,0 0,206 -479,0 0,-206z" /><path style="fill:#b2b2b2" d="M149,532 l479,0 0,46 -479,0 0,-46z" /><path style="fill:none;stroke:#4c4c4c;stroke-width:2" d="M149,351 l479,0 0,408 -479,0 0,-408" /><path style="fill:#7f7f7f" d="M205,220 l370,0 0,667 -370,0 0,-667z" /><path style="fill:#999" d="M205,276 l370,0 0,557 -370,0 0,-557z" /><path style="fill:#b2b2b2" d="M205,388 l370,0 0,334 -370,0 0,-334z" /><path style="fill:#ccc" d="M205,519 l370,0 0,72 -370,0 0,-72z" /><path style="fill:none;stroke:#4c4c4c;stroke-width:2" d="M205,220 l370,0 0,667 -370,0 0,-667" /><path style="fill:#404040" d="M0,239 l149,0 0,632 -149,0 0,-632z" /><path style="fill:#5e5e5e" d="M0,292 l149,0 0,525 -149,0 0,-525z" /><path style="fill:#7f7f7f" d="M0,396 l149,0 0,318 -149,0 0,-318z" /><path style="fill:#999" d="M0,519 l149,0 0,72 -149,0 0,-72z" /><path style="fill:none;stroke:#4c4c4c;stroke-width:2" d="M0,239 l149,0 0,632 -149,0 0,-632" /><path style="fill:#404040" d="M628,239 l150,0 0,632 -150,0 0,-632z" /><path style="fill:#5e5e5e" d="M628,292 l150,0 0,525 -150,0 0,-525z" /><path style="fill:#7f7f7f" d="M628,396 l150,0 0,318 -150,0 0,-318z" /><path style="fill:#999" d="M628,519 l150,0 0,72 -150,0 0,-72z" /><path style="fill:none;stroke:#4c4c4c;stroke-width:2" d="M628,239 l150,0 0,632 -150,0 0,-632" /><path style="fill:#999;stroke:#4c4c4c;stroke-width:2" d="M258,149 l261,0 0,183 -261,0 0,-183z" /><path style="fill:#333;stroke:#4c4c4c;stroke-width:2" d="M277,295 l224,0 0,19 -224,0 0,-19z" /><path style="fill:#333;stroke:#4c4c4c;stroke-width:2" d="M277,258 l224,0 0,18 -224,0 0,-18z" /><path style="fill:#333;stroke:#4c4c4c;stroke-width:2" d="M277,220 l224,0 0,19 -224,0 0,-19z" /><path style="fill:#666;stroke:#4c4c4c;stroke-width:2" d="M519,961 l-261,0 0,-183 261,0 0,183z" /><path style="fill:#000;stroke:#4c4c4c;stroke-width:2" d="M501,815 l-224,0 0,-19 224,0 0,19z" /><path style="fill:#000;stroke:#4c4c4c;stroke-width:2" d="M501,849 l-224,0 0,-16 224,0 0,16z" /><path style="fill:#000;stroke:#4c4c4c;stroke-width:2" d="M501,887 l-224,0 0,-19 224,0 0,19z" /><path style="fill:#666;stroke:#4c4c4c;stroke-width:2" d="M186,535 l408,0 0,37 -408,0 0,-37z" /><path style="fill:#7f7f7f;stroke:#4c4c4c;stroke-width:2" d="M295,37 l187,0 0,112 -187,0 0,-112z" /><path style="fill:#e5e5e5;stroke:#4c4c4c;stroke-width:2" d="M295,37 l19,-37 149,0 19,37 -187,0z" /><path style="fill:#e5e5e5;stroke:#4c4c4c;stroke-width:2" d="M314,165 l149,0 0,37 -149,0 0,-37z" /></svg>