<!DOCTYPE svg PUBLIC "-//W3C//DTD SVG 20000303 Stylable//EN" "http://www.w3.org/TR/2000/03/WD-SVG-20000303/DTD/svg-20000303-stylable.dtd"[]><svg xmlns="http://www.w3.org/2000/svg" width="366px" height="999px" viewBox="0 0 328 999"><path style="fill:#e5e5e5;stroke:#4c4c4c;stroke-width:2" d="M186,341 l10,0 0,55 -10,0 0,-55z" /><path style="fill:#fff;stroke:#4c4c4c;stroke-width:2" d="M153,341 l33,0 0,55 -33,0 0,-55z" /><path style="fill:#ccc;stroke:#4c4c4c;stroke-width:2" d="M131,341 l22,0 0,55 -22,0 0,-55z" /><path style="fill:#ccc;stroke:#4c4c4c;stroke-width:2" d="M175,429 l11,0 0,570 -11,0 0,-570z" /><path style="fill:#ccc;stroke:#4c4c4c;stroke-width:2" d="M147,396 l-10,0 0,33 10,0 0,-33z" /><path style="fill:#f00;stroke:#4c4c4c;stroke-width:2" d="M21,128 l287,0 0,-123 -287,0 0,123z" /><path style="fill:#f00;stroke:#4c4c4c;stroke-width:2" d="M61,15 l206,0 0,51 -206,0 0,-51z" /><circle style="fill:#f00;stroke:#4c4c4c;stroke-width:2" cx="164" cy="189" r="162" /><path style="fill:#f00;stroke:#4c4c4c;stroke-width:2" d="M2,172 l2,-15 4,-15 4,-15 6,-13 8,-13 8,-12 10,-11 10,-10 12,-10 12,-8 13,-8 13,-6 15,-5 14,-3 15,-2 16,-1 16,1 15,2 15,3 14,5 14,7 12,7 13,8 11,10 10,10 10,11 8,12 8,13 6,13 5,15 3,15 3,15 -30,0 -2,-13 -3,-11 -4,-11 -6,-11 -6,-10 -7,-10 -8,-9 -8,-8 -10,-7 -9,-6 -11,-6 -11,-5 -11,-4 -12,-3 -12,-1 -13,-1 -12,1 -12,1 -12,3 -11,4 -11,5 -11,6 -10,6 -9,7 -8,9 -8,8 -7,10 -7,10 -5,11 -4,11 -3,12 -3,12 -29,0z" /><path style="fill:#f00;stroke:#4c4c4c;stroke-width:2" d="M327,207 l-2,15 -4,15 -5,15 -6,13 -7,13 -8,12 -10,11 -11,11 -11,9 -12,8 -13,8 -14,6 -14,5 -15,3 -15,2 -16,1 -16,-1 -15,-2 -14,-3 -14,-5 -14,-7 -13,-7 -12,-8 -11,-10 -11,-10 -9,-11 -9,-12 -7,-13 -6,-13 -5,-15 -4,-15 -2,-15 29,0 3,13 3,11 4,12 5,10 7,10 7,10 8,9 8,8 9,7 10,7 11,6 11,4 11,4 12,3 12,1 12,1 13,-1 12,-1 12,-3 11,-4 11,-5 11,-5 9,-7 10,-7 8,-8 8,-9 7,-10 6,-10 6,-11 4,-11 3,-12 2,-12 30,0z" /><circle style="fill:#333;stroke:#4c4c4c;stroke-width:2" cx="164" cy="189" r="103" /><path style="fill:#b2b2b2;stroke:#4c4c4c;stroke-width:2" d="M92,215 l144,0 0,-51 -144,0 0,51z" /><path style="fill:#b2b2b2;stroke:#4c4c4c;stroke-width:2" d="M142,429 l11,0 0,570 -11,0 0,-570z" /><path style="fill:#4c4c4c" d="M144,151 l41,0 0,-36 -41,0 0,36z" /><path style="fill:#f00;stroke:#4c4c4c;stroke-width:2" d="M157,56 l15,0 0,-56 -15,0 0,56z" /><path style="fill:#e5e5e5;stroke:#4c4c4c;stroke-width:2" d="M191,396 l-11,0 0,33 11,0 0,-33z" /><path style="fill:#e5e5e5;stroke:#4c4c4c;stroke-width:2" d="M153,429 l21,0 0,570 -21,0 0,-570z" /><path style="fill:#ccc;stroke:#4c4c4c;stroke-width:2" d="M137,763 l10,0 0,27 -10,0 0,-27z" /><path style="fill:#ccc;stroke:#4c4c4c;stroke-width:2" d="M137,724 l10,0 0,28 -10,0 0,-28z" /><path style="fill:#e5e5e5;stroke:#4c4c4c;stroke-width:2" d="M180,763 l11,0 0,27 -11,0 0,-27z" /><path style="fill:#e5e5e5;stroke:#4c4c4c;stroke-width:2" d="M180,724 l11,0 0,28 -11,0 0,-28z" /><path style="fill:#fff;stroke:#4c4c4c;stroke-width:2" d="M147,396 l33,0 0,33 -33,0 0,-33z" /><path style="fill:#fff;stroke:#4c4c4c;stroke-width:2" d="M147,724 l33,0 0,28 -33,0 0,-28z" /><path style="fill:#fff;stroke:#4c4c4c;stroke-width:2" d="M147,763 l33,0 0,27 -33,0 0,-27z" /><path style="fill:#fff;stroke:#4c4c4c;stroke-width:2" d="M308,15 l20,6 0,54 -20,7 0,-67z" /><path style="fill:#fff;stroke:#4c4c4c;stroke-width:2" d="M21,82 l-21,-7 0,-54 21,-6 0,67z" /><path style="fill:#000" d="M197,396 l0,-5 -66,0 0,10 66,0 0,-5z" /></svg>