<!DOCTYPE svg PUBLIC "-//W3C//DTD SVG 20000303 Stylable//EN" "http://www.w3.org/TR/2000/03/WD-SVG-20000303/DTD/svg-20000303-stylable.dtd"[]><svg xmlns="http://www.w3.org/2000/svg" width="248px" height="999px" viewBox="0 0 102 500"><path style="fill:#e5e5e5" d="M7,6 l7,-6 59,0 7,6 0,3 -73,0 0,-3z" /><path style="fill:#999;stroke:#4c4c4c;stroke-width:2" d="M7,23 l-7,-9 0,-7 7,-1 0,17z" /><path style="fill:#ccc" d="M7,73 l0,-67 73,0 0,67 -73,0z" /><path style="fill:#b2b2b2" d="M16,73 l0,-50 -9,-9 0,59 9,0z" /><path style="fill:#b2b2b2" d="M70,73 l0,-50 10,-9 0,59 -10,0z" /><path style="fill:none;stroke:#4c4c4c;stroke-width:2" d="M7,6 l7,-6 59,0 7,6 0,3 -73,0 0,-3" /><path style="fill:none;stroke:#4c4c4c;stroke-width:2" d="M7,73 l0,-64 73,0 0,64 -73,0" /><ellipse style="fill:#ccc;stroke:#4c4c4c;stroke-width:2" cx="83" cy="19" rx="3" ry="8" /><circle style="fill:#7f7f7f;stroke:#4c4c4c;stroke-width:2" cx="84" cy="24" r="2" /><path style="fill:#999;stroke:#4c4c4c;stroke-width:2" d="M14,77 l0,-4 4,0 0,4 -4,0z" /><path style="fill:#999;stroke:#4c4c4c;stroke-width:2" d="M68,77 l0,-4 5,0 0,4 -5,0z" /><path style="fill:#ccc;stroke:#4c4c4c;stroke-width:2" d="M14,80 l0,-3 4,0 0,3 -4,0z" /><path style="fill:#ccc;stroke:#4c4c4c;stroke-width:2" d="M68,80 l0,-3 5,0 0,3 -5,0z" /><path style="fill:#b2b2b2;stroke:#4c4c4c;stroke-width:2" d="M35,73 l16,0 0,16 -16,0 0,-16z" /><path style="fill:#999;stroke:#4c4c4c;stroke-width:2" d="M35,75 l4,0 0,10 -4,0 0,-10z" /><path style="fill:#999;stroke:#4c4c4c;stroke-width:2" d="M41,75 l3,0 0,10 -3,0 0,-10z" /><path style="fill:#999;stroke:#4c4c4c;stroke-width:2" d="M47,75 l3,0 0,10 -3,0 0,-10z" /><path style="fill:#7f7f7f" d="M36,500 l0,-411 14,0 0,411 -14,0z" /><path style="fill:#999" d="M37,500 l0,-411 12,0 0,411 -12,0z" /><path style="fill:#b2b2b2" d="M39,500 l0,-411 9,0 0,411 -9,0z" /><path style="fill:#ccc" d="M40,500 l0,-411 6,0 0,411 -6,0z" /><path style="fill:#e5e5e5" d="M42,500 l0,-411 3,0 0,411 -3,0z" /><path style="fill:#fff" d="M43,500 l0,-411 0,411z" /><path style="fill:none;stroke:#4c4c4c;stroke-width:2" d="M36,500 l0,-411 14,0 0,411 -14,0" /><path style="fill:#7f7f7f" d="M0,155 l0,-7 102,0 0,7 -102,0z" /><path style="fill:#999" d="M7,155 l0,-7 89,0 0,7 -89,0z" /><path style="fill:#b2b2b2" d="M16,155 l0,-7 70,0 0,7 -70,0z" /><path style="fill:#ccc" d="M29,155 l0,-7 44,0 0,7 -44,0z" /><path style="fill:#e5e5e5" d="M40,155 l0,-7 22,0 0,7 -22,0z" /><path style="fill:#fff" d="M50,155 l0,-7 3,0 0,7 -3,0z" /><path style="fill:none;stroke:#4c4c4c;stroke-width:2" d="M0,155 l0,-7 102,0 0,7 -102,0" /><path style="fill:#7f7f7f" d="M55,245 l-6,0 0,-12 6,0 0,12z" /><path style="fill:#999" d="M55,245 l-6,0 0,-11 6,0 0,11z" /><path style="fill:#b2b2b2" d="M55,243 l-7,0 0,-8 7,0 0,8z" /><path style="fill:#ccc" d="M55,242 l-10,0 0,-6 10,0 0,6z" /><path style="fill:#e5e5e5" d="M55,241 l-11,0 0,-3 11,0 0,3z" /><path style="fill:#fff" d="M55,239 l-12,0 12,0z" /><path style="fill:none;stroke:#4c4c4c;stroke-width:2" d="M50,233 l5,0 0,12 -5,0" /><path style="fill:#7f7f7f" d="M55,469 l-6,0 0,-12 6,0 0,12z" /><path style="fill:#999" d="M55,468 l-6,0 0,-11 6,0 0,11z" /><path style="fill:#b2b2b2" d="M55,467 l-7,0 0,-8 7,0 0,8z" /><path style="fill:#ccc" d="M55,466 l-10,0 0,-6 10,0 0,6z" /><path style="fill:#e5e5e5" d="M55,464 l-11,0 0,-2 11,0 0,2z" /><path style="fill:#fff" d="M55,463 l-12,0 12,0z" /><path style="fill:none;stroke:#4c4c4c;stroke-width:2" d="M50,457 l5,0 0,12 -5,0" /><path style="fill:#ccc;fill-rule:evenodd" d="M55,465 l17,0 0,1 -17,0 0,-1z M55,460 l17,0 0,1 -17,0 0,-1z M50,437 l32,19 0,13 -32,20 0,-3 30,-18 0,-11 -30,-17 0,-3z M55,241 l17,0 0,1 -17,0 0,-1z M55,236 l17,0 0,2 -17,0 0,-2z M50,214 l32,18 0,13 -32,20 0,-3 30,-18 0,-11 -30,-17 0,-2z " /><path style="fill:none;stroke:#4c4c4c;stroke-width:2" d="M55,465 l17,0 0,1 -17,0 0,-1" /><path style="fill:none;stroke:#4c4c4c;stroke-width:2" d="M55,460 l17,0 0,1 -17,0 0,-1" /><path style="fill:none;stroke:#4c4c4c;stroke-width:2" d="M50,437 l32,19 0,13 -32,20 0,-3 30,-18 0,-11 -30,-17 0,-3" /><path style="fill:none;stroke:#4c4c4c;stroke-width:2" d="M55,241 l17,0 0,1 -17,0 0,-1" /><path style="fill:none;stroke:#4c4c4c;stroke-width:2" d="M55,236 l17,0 0,2 -17,0 0,-2" /><path style="fill:none;stroke:#4c4c4c;stroke-width:2" d="M50,214 l32,18 0,13 -32,20 0,-3 30,-18 0,-11 -30,-17 0,-2" /></svg>