<!DOCTYPE svg PUBLIC "-//W3C//DTD SVG 20000303 Stylable//EN" "http://www.w3.org/TR/2000/03/WD-SVG-20000303/DTD/svg-20000303-stylable.dtd"[]><svg xmlns="http://www.w3.org/2000/svg" width="999px" height="527px" viewBox="0 0 999 499"><path style="fill:#0ff;stroke:#4c4c4c;stroke-width:2" d="M124,0 l417,0 0,499 -417,0 0,-499z" /><path style="fill:#0ff;stroke:#4c4c4c;stroke-width:2" d="M124,374 l-83,0 -41,-41 0,-167 41,-42 83,0 0,250z" /><path style="fill:#0ff;stroke:#4c4c4c;stroke-width:2" d="M541,124 l270,0 0,250 -270,0 0,-250z" /><path style="fill:#0ff;stroke:#4c4c4c;stroke-width:2" d="M811,187 l125,0 0,125 -125,0 0,-125z" /><path style="fill:#0ff;stroke:#4c4c4c;stroke-width:2" d="M936,208 l63,0 0,83 -63,0 0,-83z" /><path style="fill:none;stroke:#4c4c4c;stroke-width:2" d="M832,312 l0,-125" /><path style="fill:none;stroke:#4c4c4c;stroke-width:2" d="M853,312 l0,-125" /><path style="fill:none;stroke:#4c4c4c;stroke-width:2" d="M874,312 l0,-125" /><path style="fill:none;stroke:#4c4c4c;stroke-width:2" d="M895,312 l0,-125" /><path style="fill:none;stroke:#4c4c4c;stroke-width:2" d="M915,312 l0,-125" /><path style="fill:none;stroke:#4c4c4c;stroke-width:2" d="M249,0 l0,499" /><path style="fill:none;stroke:#4c4c4c;stroke-width:2" d="M41,374 l0,-250" /></svg>