<!DOCTYPE svg PUBLIC "-//W3C//DTD SVG 20000303 Stylable//EN" "http://www.w3.org/TR/2000/03/WD-SVG-20000303/DTD/svg-20000303-stylable.dtd"[]><svg xmlns="http://www.w3.org/2000/svg" width="999px" height="743px" viewBox="0 0 999 728"><path style="fill:#0ff;stroke:#4c4c4c;stroke-width:2" d="M20,728 l0,-125 -20,-21 0,-229 20,-20 0,-104 63,0 0,104 62,-21 0,-42 13,-2 -5,-23 79,-16 4,23 13,-3 21,42 42,0 0,-21 -31,0 0,-21 10,0 0,-62 10,-10 63,0 10,10 0,-42 21,-21 0,-104 21,-20 166,0 21,20 0,104 21,21 0,42 10,-10 63,0 10,10 0,62 10,0 0,21 -31,0 0,21 188,83 41,-21 0,-124 63,0 0,104 21,20 0,229 -21,21 0,125 -63,0 0,-83 -62,-63 -187,0 -42,21 -42,83 -166,0 -21,-41 -271,-63 -41,21 0,125 -63,0z" /><path style="fill:none;stroke:#4c4c4c;stroke-width:2" d="M395,645 l104,0 125,-42" /><path style="fill:none;stroke:#4c4c4c;stroke-width:2" d="M666,582 l41,-20 52,-11 52,11 42,20" /><path style="fill:none;stroke:#4c4c4c;stroke-width:2" d="M20,603 l0,-270" /><path style="fill:none;stroke:#4c4c4c;stroke-width:2" d="M978,603 l0,-270" /><path style="fill:none;stroke:#4c4c4c;stroke-width:2" d="M312,270 l374,0" /><circle style="fill:none;stroke:#4c4c4c;stroke-width:2" cx="186" cy="457" r="62" /><circle style="fill:none;stroke:#4c4c4c;stroke-width:2" cx="811" cy="457" r="62" /><path style="fill:none;stroke:#4c4c4c;stroke-width:2" d="M83,333 l0,270" /><path style="fill:none;stroke:#4c4c4c;stroke-width:2" d="M915,645 l0,-292" /><path style="fill:none;stroke:#4c4c4c;stroke-width:2" d="M291,187 l416,0" /><path style="fill:none;stroke:#4c4c4c;stroke-width:2" d="M603,124 l-208,0" /><path style="fill:none;stroke:#4c4c4c;stroke-width:2" d="M624,145 l-250,0" /><path style="fill:none;stroke:#4c4c4c;stroke-width:2" d="M499,124 l0,21" /><path style="fill:none;stroke:#4c4c4c;stroke-width:2" d="M457,124 l0,21" /><path style="fill:none;stroke:#4c4c4c;stroke-width:2" d="M541,124 l0,21" /><path style="fill:none;stroke:#4c4c4c;stroke-width:2" d="M159,268 l77,-16" /><path style="fill:none;stroke:#4c4c4c;stroke-width:2" d="M179,264 l-4,-23" /><path style="fill:none;stroke:#4c4c4c;stroke-width:2" d="M216,256 l-4,-23" /><path style="fill:none;stroke:#4c4c4c;stroke-width:2" d="M291,249 l0,21" /><path style="fill:none;stroke:#4c4c4c;stroke-width:2" d="M707,249 l0,21" /></svg>