<!DOCTYPE svg PUBLIC "-//W3C//DTD SVG 20000303 Stylable//EN" "http://www.w3.org/TR/2000/03/WD-SVG-20000303/DTD/svg-20000303-stylable.dtd"[]><svg xmlns="http://www.w3.org/2000/svg" width="523px" height="999px" viewBox="0 0 495 999"><path style="fill:#ccc;stroke:#4c4c4c;stroke-width:2" d="M0,634 l495,0 0,357 -495,0 0,-357z" /><path style="fill:#ccc;stroke:#4c4c4c;stroke-width:2" d="M0,0 l495,0 0,619 -495,0 0,-619z" /><path style="fill:#000;stroke:#4c4c4c;stroke-width:2" d="M31,619 l433,0 0,15 -433,0 0,-15z" /><circle style="fill:#b2b2b2;stroke:#4c4c4c;stroke-width:2" cx="31" cy="31" r="16" /><circle style="fill:#b2b2b2;stroke:#4c4c4c;stroke-width:2" cx="463" cy="31" r="15" /><circle style="fill:#b2b2b2" cx="31" cy="665" r="16" /><circle style="fill:#b2b2b2" cx="463" cy="665" r="15" /><circle style="fill:#b2b2b2" cx="462" cy="588" r="15" /><circle style="fill:#b2b2b2" cx="31" cy="588" r="16" /><circle style="fill:#b2b2b2" cx="462" cy="959" r="15" /><circle style="fill:#b2b2b2" cx="31" cy="959" r="16" /><path style="fill:#b2b2b2" d="M224,991 l46,0 0,8 -46,0 0,-8z" /><path style="fill:none;stroke:#4c4c4c;stroke-width:2" d="M15,27 l31,8" /><path style="fill:none;stroke:#4c4c4c;stroke-width:2" d="M464,47 l0,-32" /><path style="fill:none;stroke:#4c4c4c;stroke-width:2" d="M61,93 l-15,-31" /><circle style="fill:none;stroke:#4c4c4c;stroke-width:2" cx="31" cy="665" r="16" /><circle style="fill:none;stroke:#4c4c4c;stroke-width:2" cx="463" cy="665" r="15" /><circle style="fill:none;stroke:#4c4c4c;stroke-width:2" cx="462" cy="588" r="15" /><circle style="fill:none;stroke:#4c4c4c;stroke-width:2" cx="31" cy="588" r="16" /><path style="fill:none;stroke:#4c4c4c;stroke-width:2" d="M474,600 l-22,-22" /><path style="fill:none;stroke:#4c4c4c;stroke-width:2" d="M15,588 l31,0" /><path style="fill:none;stroke:#4c4c4c;stroke-width:2" d="M26,680 l8,-30" /><path style="fill:none;stroke:#4c4c4c;stroke-width:2" d="M477,657 l-26,16" /><path style="fill:none;stroke:#4c4c4c;stroke-width:2" d="M433,542 l15,15" /><circle style="fill:none;stroke:#4c4c4c;stroke-width:2" cx="462" cy="959" r="15" /><circle style="fill:none;stroke:#4c4c4c;stroke-width:2" cx="31" cy="959" r="16" /><path style="fill:none;stroke:#4c4c4c;stroke-width:2" d="M479,960 l-31,0" /><path style="fill:none;stroke:#4c4c4c;stroke-width:2" d="M26,945 l9,30" /><path style="fill:none;stroke:#4c4c4c;stroke-width:2" d="M224,991 l46,0 0,8 -46,0 0,-8" /><path style="fill:#e5e5e5;stroke:#4c4c4c;stroke-width:2" d="M0,696 l46,-15 15,-47 372,0 15,47 47,15 0,233 -47,16 -15,46 -372,0 -15,-46 -46,-16 0,-233z" /><path style="fill:#e5e5e5;stroke:#4c4c4c;stroke-width:2" d="M0,62 l46,-15 15,-47 372,0 15,47 47,15 0,495 -47,16 -15,46 -372,0 -15,-46 -46,-16 0,-495z" /><path style="fill:#fff;stroke:#4c4c4c;stroke-width:2" d="M46,62 l402,0 0,495 -402,0 0,-495z" /><path style="fill:#e5e5e5;stroke:#4c4c4c;stroke-width:2" d="M61,93 l372,0 0,449 -372,0 0,-449z" /><path style="fill:#ccc;fill-rule:evenodd" d="M46,557 l15,-15 372,0 0,-449 15,-31 0,495 -402,0z M123,294 l248,0 0,77 -248,0 0,-77z M77,464 l341,0 0,62 -341,0 0,-62z " /><path style="fill:none;stroke:#4c4c4c;stroke-width:2" d="M46,557 l15,-15 372,0 0,-449 15,-31 0,495 -402,0" /><path style="fill:none;stroke:#4c4c4c;stroke-width:2" d="M123,294 l248,0 0,77 -248,0 0,-77" /><path style="fill:none;stroke:#4c4c4c;stroke-width:2" d="M77,464 l341,0 0,62 -341,0 0,-62" /><path style="fill:#333;stroke:#4c4c4c;stroke-width:2" d="M139,155 l217,0 0,108 -217,0 0,-108z" /><path style="fill:#000;stroke:#4c4c4c;stroke-width:2" d="M139,155 l8,0 0,108 -8,0 0,-108z" /><path style="fill:#000;stroke:#4c4c4c;stroke-width:2" d="M147,155 l209,0 0,7 -209,0 0,-7z" /><circle style="fill:#b2b2b2;stroke:#4c4c4c;stroke-width:2" cx="147" cy="332" r="8" /><circle style="fill:#b2b2b2" cx="348" cy="332" r="7" /><path style="fill:none;stroke:#4c4c4c;stroke-width:2" d="M147,340 l0,-15" /><path style="fill:none;stroke:#4c4c4c;stroke-width:2" d="M340,333 l16,0" /><circle style="fill:none;stroke:#4c4c4c;stroke-width:2" cx="348" cy="332" r="7" /><path style="fill:none;stroke:#4c4c4c;stroke-width:2" d="M0,62 l495,0 0,495 -495,0 0,-495" /></svg>