<!DOCTYPE svg PUBLIC "-//W3C//DTD SVG 20000303 Stylable//EN" "http://www.w3.org/TR/2000/03/WD-SVG-20000303/DTD/svg-20000303-stylable.dtd"[]><svg xmlns="http://www.w3.org/2000/svg" width="998px" height="566px" viewBox="0 0 999 541"><path style="fill:#e5e5e5;stroke:#4c4c4c;stroke-width:2" d="M20,394 l0,-83 63,10 0,63 -63,10z" /><path style="fill:#e5e5e5;stroke:#4c4c4c;stroke-width:2" d="M83,166 l0,42 21,9 0,323 791,0 0,-323 20,-10 0,-41 -832,0z" /><path style="fill:#e5e5e5;stroke:#4c4c4c;stroke-width:2" d="M83,166 l10,-166 812,0 10,166 -832,0z" /><path style="fill:#e5e5e5;stroke:#4c4c4c;stroke-width:2" d="M977,394 l0,-83 -62,10 0,63 62,10z" /><path style="fill:#b2b2b2" d="M977,389 l0,-26 -62,1 0,16 62,9z" /><path style="fill:#b2b2b2" d="M20,389 l0,-26 63,1 0,16 -63,9z" /><path style="fill:#000" d="M915,166 l0,-11 -832,0 0,21 832,0 0,-10z" /><path style="fill:#f00" d="M686,30 l177,0 0,21 -177,0 0,-21z" /><path style="fill:#b2b2b2;stroke:#4c4c4c;stroke-width:2" d="M145,103 l167,0 0,42 -167,0 0,-42z" /><path style="fill:#b2b2b2;stroke:#4c4c4c;stroke-width:2" d="M104,457 l791,0 0,84 -791,0 0,-84z" /><path style="fill:#fff" d="M20,316 l0,27 63,-1 0,-15 -63,-11z" /><path style="fill:#fff" d="M977,316 l0,27 -62,-1 0,-15 62,-11z" /><path style="fill:#e5e5e5;stroke:#4c4c4c;stroke-width:2" d="M0,228 l20,0 0,250 -20,0 0,-250z" /><path style="fill:#e5e5e5;stroke:#4c4c4c;stroke-width:2" d="M104,446 l-21,0 0,-187 21,0 0,187z" /><path style="fill:#e5e5e5;stroke:#4c4c4c;stroke-width:2" d="M894,446 l21,0 0,-187 -21,0 0,187z" /><path style="fill:#e5e5e5;stroke:#4c4c4c;stroke-width:2" d="M999,228 l-22,0 0,250 22,0 0,-250z" /><path style="fill:#fff" d="M5,244 l10,0 0,83 -10,0 0,-83z" /><path style="fill:#fff" d="M88,269 l10,0 0,74 -10,0 0,-74z" /><path style="fill:#fff" d="M910,269 l-11,0 0,74 11,0 0,-74z" /><path style="fill:#fff" d="M993,244 l-10,0 0,83 10,0 0,-83z" /><path style="fill:#b2b2b2" d="M5,463 l10,0 0,-100 -10,0 0,100z" /><path style="fill:#b2b2b2" d="M88,436 l10,0 0,-73 -10,0 0,73z" /><path style="fill:#b2b2b2" d="M910,436 l-11,0 0,-73 11,0 0,73z" /><path style="fill:#b2b2b2" d="M993,463 l-10,0 0,-100 10,0 0,100z" /></svg>