<!DOCTYPE svg PUBLIC "-//W3C//DTD SVG 20000303 Stylable//EN" "http://www.w3.org/TR/2000/03/WD-SVG-20000303/DTD/svg-20000303-stylable.dtd"[]><svg xmlns="http://www.w3.org/2000/svg" width="999px" height="969px" viewBox="0 0 998 967"><path style="fill:#e5e5e5;stroke:#4c4c4c;stroke-width:2" d="M177,644 l644,0 0,323 -644,0 0,-323z" /><path style="fill:none;stroke:#4c4c4c;stroke-width:2" d="M241,644 l0,322" /><path style="fill:#000;stroke:#4c4c4c;stroke-width:2" d="M177,644 l0,-629 16,-15 290,0 16,15 0,629 -322,0z" /><path style="fill:#7f7f7f;stroke:#4c4c4c;stroke-width:2" d="M821,918 l49,0 0,-32 -49,0 0,32z" /><path style="fill:#e5e5e5;stroke:#4c4c4c;stroke-width:2" d="M821,885 l49,0 0,-64 -49,0 0,64z" /><path style="fill:#fff;stroke:#4c4c4c;stroke-width:2" d="M821,821 l49,0 0,-32 -49,0 0,32z" /><path style="fill:#7f7f7f;stroke:#4c4c4c;stroke-width:2" d="M918,918 l65,0 0,-32 -65,0 0,32z" /><path style="fill:#e5e5e5;stroke:#4c4c4c;stroke-width:2" d="M918,885 l65,0 0,-64 -65,0 0,64z" /><path style="fill:#fff;stroke:#4c4c4c;stroke-width:2" d="M918,821 l65,0 0,-32 -65,0 0,32z" /><path style="fill:#e5e5e5;stroke:#4c4c4c;stroke-width:2" d="M983,813 l15,0 0,80 -15,0 0,-80z" /><path style="fill:#e5e5e5;stroke:#4c4c4c;stroke-width:2" d="M870,813 l48,0 0,80 -48,0 0,-80z" /><path style="fill:none;stroke:#4c4c4c;stroke-width:2" d="M877,902 l-7,-97" /><path style="fill:none;stroke:#4c4c4c;stroke-width:2" d="M886,902 l-9,-97" /><path style="fill:none;stroke:#4c4c4c;stroke-width:2" d="M894,902 l-8,-97" /><path style="fill:none;stroke:#4c4c4c;stroke-width:2" d="M902,902 l-8,-97" /><path style="fill:none;stroke:#4c4c4c;stroke-width:2" d="M910,902 l-8,-97" /><path style="fill:none;stroke:#4c4c4c;stroke-width:2" d="M918,902 l-8,-97" /><path style="fill:none;stroke:#4c4c4c;stroke-width:2" d="M990,902 l-7,-97" /><path style="fill:none;stroke:#4c4c4c;stroke-width:2" d="M990,805 l8,97" /><path style="fill:#7f7f7f;stroke:#4c4c4c;stroke-width:2" d="M177,918 l-49,0 0,-32 49,0 0,32z" /><path style="fill:#e5e5e5;stroke:#4c4c4c;stroke-width:2" d="M177,885 l-49,0 0,-64 49,0 0,64z" /><path style="fill:#fff;stroke:#4c4c4c;stroke-width:2" d="M177,821 l-49,0 0,-32 49,0 0,32z" /><path style="fill:#7f7f7f;stroke:#4c4c4c;stroke-width:2" d="M80,918 l-65,0 0,-32 65,0 0,32z" /><path style="fill:#e5e5e5;stroke:#4c4c4c;stroke-width:2" d="M80,885 l-65,0 0,-64 65,0 0,64z" /><path style="fill:#fff;stroke:#4c4c4c;stroke-width:2" d="M80,821 l-65,0 0,-32 65,0 0,32z" /><path style="fill:#e5e5e5;stroke:#4c4c4c;stroke-width:2" d="M15,893 l-15,0 0,-80 15,0 0,80z" /><path style="fill:#e5e5e5;stroke:#4c4c4c;stroke-width:2" d="M128,813 l-48,0 0,80 48,0 0,-80z" /><path style="fill:none;stroke:#4c4c4c;stroke-width:2" d="M121,805 l7,97" /><path style="fill:none;stroke:#4c4c4c;stroke-width:2" d="M112,805 l9,97" /><path style="fill:none;stroke:#4c4c4c;stroke-width:2" d="M104,805 l8,97" /><path style="fill:none;stroke:#4c4c4c;stroke-width:2" d="M96,805 l8,97" /><path style="fill:none;stroke:#4c4c4c;stroke-width:2" d="M88,805 l8,97" /><path style="fill:none;stroke:#4c4c4c;stroke-width:2" d="M80,805 l8,97" /><path style="fill:none;stroke:#4c4c4c;stroke-width:2" d="M8,805 l7,97" /><path style="fill:none;stroke:#4c4c4c;stroke-width:2" d="M8,902 l-8,-97" /><path style="fill:#000;stroke:#4c4c4c;stroke-width:2" d="M555,644 l258,0 0,-258 -258,0 0,258z" /><path style="fill:#e5e5e5;stroke:#4c4c4c;stroke-width:2" d="M725,322 l56,0 0,64 -56,0 0,-64z" /><path style="fill:#7f7f7f;stroke:#4c4c4c;stroke-width:2" d="M588,322 l24,0 0,64 -24,0 0,-64z" /><path style="fill:#ccc;stroke:#4c4c4c;stroke-width:2" d="M612,322 l113,0 0,64 -113,0 0,-64z" /><path style="fill:#000;stroke:#4c4c4c;stroke-width:2" d="M744,595 l-5,6 -5,5 -6,5 -6,5 -6,4 -7,4 -6,4 -8,3 -7,3 -7,3 -7,2 -8,2 -8,1 -7,1 -8,1 -7,0 -15,-1 -14,-2 -13,-3 -13,-5 -12,-6 -12,-7 -11,-8 -10,-9 -9,-10 -8,-11 -7,-12 -6,-12 -5,-13 -3,-14 -3,-13 0,-15 0,-7 0,-6 1,-7 1,-6 2,-7 2,-7 2,-6 2,-6 3,-6 2,-6 4,-6 3,-6 4,-5 4,-5 4,-6 5,-5 5,-4 5,-6 4,-5 4,-6 3,-7 2,-6 1,-7 0,-7 -1,-12 -3,-11 -6,-11 -7,-9 -10,-7 -10,-5 -11,-4 -12,-1 -4,0 -4,0 -3,1 -3,1 -4,1 -3,1 -3,2 -3,2 -12,-15 4,-2 5,-2 5,-2 5,-1 5,-2 5,-1 5,-1 5,0 15,2 15,5 13,7 12,9 9,11 7,14 5,14 1,16 0,9 -2,8 -2,8 -3,8 -5,7 -5,7 -6,7 -7,6 -4,4 -3,4 -4,5 -3,5 -3,5 -3,5 -2,6 -3,5 -2,6 -1,6 -2,5 -2,6 -1,6 0,5 -1,6 0,6 1,13 2,12 3,12 4,12 5,10 7,11 7,9 8,9 9,8 9,7 10,6 11,6 11,4 12,3 13,2 13,0 6,0 7,0 7,-1 6,-1 7,-1 6,-2 6,-2 6,-2 6,-3 5,-3 6,-3 5,-3 5,-4 5,-5 5,-4 4,-5 16,7z" /><path style="fill:#000;stroke:#4c4c4c;stroke-width:2" d="M499,273 l16,0 0,40 -16,0 0,-40z" /><path style="fill:#7f7f7f;stroke:#4c4c4c;stroke-width:2" d="M563,578 l17,0 0,25 -17,0 0,-25z" /><path style="fill:#b2b2b2;stroke:#4c4c4c;stroke-width:2" d="M580,578 l24,0 0,25 -24,0 0,-25z" /><path style="fill:#e5e5e5;stroke:#4c4c4c;stroke-width:2" d="M604,578 l16,0 0,25 -16,0 0,-25z" /><path style="fill:#7f7f7f;stroke:#4c4c4c;stroke-width:2" d="M748,578 l17,0 0,25 -17,0 0,-25z" /><path style="fill:#b2b2b2;stroke:#4c4c4c;stroke-width:2" d="M765,578 l24,0 0,25 -24,0 0,-25z" /><path style="fill:#e5e5e5;stroke:#4c4c4c;stroke-width:2" d="M789,578 l16,0 0,25 -16,0 0,-25z" /><path style="fill:#4c4c4c;stroke:#4c4c4c;stroke-width:2" d="M573,603 l39,0 0,7 -39,0 0,-7z" /><path style="fill:#4c4c4c;stroke:#4c4c4c;stroke-width:2" d="M757,603 l40,0 0,7 -40,0 0,-7z" /><path style="fill:none;stroke:#7f7f7f;stroke-width:2" d="M563,610 l242,0" /><path style="fill:#000;stroke:#4c4c4c;stroke-width:2" d="M499,31 l16,0 0,25 -16,0 0,-25z" /><path style="fill:#000;stroke:#4c4c4c;stroke-width:2" d="M499,201 l16,0 0,24 -16,0 0,-24z" /><path style="fill:#000;stroke:#4c4c4c;stroke-width:2" d="M499,63 l16,0 0,129 -16,0 0,-129z" /><path style="fill:none;stroke:#7f7f7f;stroke-width:2" d="M499,31 l0,194" /><path style="fill:none;stroke:#7f7f7f;stroke-width:2" d="M346,575 l0,-12 12,0" /><path style="fill:none;stroke:#7f7f7f;stroke-width:2" d="M358,569 l-12,0" /><path style="fill:none;stroke:#7f7f7f;stroke-width:2" d="M363,563 l0,12 13,0" /><path style="fill:none;stroke:#7f7f7f;stroke-width:2" d="M382,575 l0,-12 12,0 0,12 -12,0" /><path style="fill:none;stroke:#7f7f7f;stroke-width:2" d="M400,563 l0,12 12,0 0,-12" /><path style="fill:none;stroke:#7f7f7f;stroke-width:2" d="M406,575 l0,-12" /><path style="fill:none;stroke:#7f7f7f;stroke-width:2" d="M321,587 l116,0" /><path style="fill:none;stroke:#7f7f7f;stroke-width:2" d="M321,594 l116,0" /><path style="fill:none;stroke:#7f7f7f;stroke-width:2" d="M321,546 l116,0" /><path style="fill:none;stroke:#7f7f7f;stroke-width:2" d="M321,552 l116,0" /><path style="fill:none;stroke:#7f7f7f;stroke-width:2" d="M430,611 l31,-42 -31,-42" /><path style="fill:none;stroke:#7f7f7f;stroke-width:2" d="M437,611 l30,-42 -30,-42" /></svg>