<!DOCTYPE svg PUBLIC "-//W3C//DTD SVG 20000303 Stylable//EN" "http://www.w3.org/TR/2000/03/WD-SVG-20000303/DTD/svg-20000303-stylable.dtd"[]><svg xmlns="http://www.w3.org/2000/svg" width="763px" height="999px" viewBox="0 0 749 999"><path style="fill:#e5e5e5;stroke:#4c4c4c;stroke-width:2" d="M625,499 l124,0 0,500 -124,0 0,-500z" /><path style="fill:#e5e5e5;stroke:#4c4c4c;stroke-width:2" d="M125,625 l500,0 0,250 -500,0 0,-250z" /><path style="fill:#e5e5e5;stroke:#4c4c4c;stroke-width:2" d="M0,499 l125,0 0,500 -125,0 0,-500z" /><path style="fill:#b2b2b2" d="M295,0 l150,0 0,85 -150,0 0,-85z" /><path style="fill:#ccc" d="M315,0 l110,0 0,85 -110,0 0,-85z" /><path style="fill:#e5e5e5" d="M345,0 l50,0 0,85 -50,0 0,-85z" /><path style="fill:#fff" d="M365,0 l10,0 0,85 -10,0 0,-85z" /><path style="fill:none;stroke:#4c4c4c;stroke-width:2" d="M295,0 l150,0 0,85 -150,0 0,-85" /><path style="fill:#ccc" d="M631,819 l110,0 0,172 -110,0 0,-172z" /><path style="fill:#ccc" d="M131,793 l486,0 0,74 -486,0 0,-74z" /><path style="fill:#ccc" d="M7,819 l110,0 0,172 -110,0 0,-172z" /><path style="fill:#fff" d="M631,553 l110,0 0,78 -110,0 0,-78z" /><path style="fill:#fff" d="M131,647 l486,0 0,34 -486,0 0,-34z" /><path style="fill:#fff" d="M7,553 l110,0 0,78 -110,0 0,-78z" /><path style="fill:#4c4c4c;stroke:#4c4c4c;stroke-width:2" d="M425,645 l-1,3 -3,4 -5,3 -7,3 -8,2 -9,1 -11,1 -12,1 -11,-1 -10,-1 -9,-1 -8,-2 -7,-3 -4,-3 -4,-4 -1,-3 0,-244 110,0 0,244z" /><path style="fill:#999;stroke:#4c4c4c;stroke-width:2" d="M295,517 l150,0 0,52 -150,0 0,-52z" /><path style="fill:#999;stroke:#4c4c4c;stroke-width:2" d="M295,381 l150,0 0,70 -150,0 0,-70z" /><path style="fill:#b2b2b2" d="M325,381 l90,0 0,70 -90,0 0,-70z" /><path style="fill:#ccc" d="M355,381 l30,0 0,70 -30,0 0,-70z" /><path style="fill:#ccc;stroke:#4c4c4c;stroke-width:2" d="M345,517 l74,0 0,52 -74,0 0,-52z" /><path style="fill:#b2b2b2" d="M295,477 l150,0 0,24 -150,0 0,-24z" /><path style="fill:#b2b2b2;stroke:#4c4c4c;stroke-width:2" d="M295,585 l150,0 0,24 -150,0 0,-24z" /><path style="fill:#ccc" d="M311,477 l116,0 0,24 -116,0 0,-24z" /><path style="fill:#ccc" d="M311,585 l116,0 0,24 -116,0 0,-24z" /><path style="fill:#e5e5e5" d="M337,477 l66,0 0,24 -66,0 0,-24z" /><path style="fill:#e5e5e5" d="M337,585 l66,0 0,24 -66,0 0,-24z" /><path style="fill:#fff" d="M361,585 l18,0 0,24 -18,0 0,-24z" /><path style="fill:#fff" d="M361,477 l18,0 0,24 -18,0 0,-24z" /><path style="fill:none;stroke:#4c4c4c;stroke-width:2" d="M295,477 l150,0 0,24 -150,0 0,-24" /><circle style="fill:#ccc" cx="374" cy="233" r="179" /><path style="fill:#fff" d="M375,233 l-128,128 -6,-6 -6,-7 -5,-7 -5,-7 -5,-8 -4,-8 -4,-8 -4,-8 -3,-8 -2,-8 -3,-9 -1,-8 -2,-9 -1,-9 0,-9 -1,-9 1,-18 3,-18 4,-17 6,-16 8,-16 9,-15 10,-14 12,-12 12,-12 14,-10 15,-10 16,-7 17,-6 17,-5 18,-3 18,-1 9,1 8,0 9,1 8,2 9,2 9,2 8,3 8,4 8,3 8,4 8,5 7,5 7,5 7,5 7,6 6,6 -126,126z" /><circle style="fill:#e5e5e5;stroke:#7f7f7f;stroke-width:2" cx="374" cy="233" r="169" /><circle style="fill:none;stroke:#4c4c4c;stroke-width:2" cx="374" cy="233" r="179" /><path style="fill:#ccc" d="M377,117 l-6,-6 76,-16 4,6 -8,32 -66,-16z" /><path style="fill:#ccc" d="M307,377 l-6,-6 76,-16 4,6 -8,32 -66,-16z" /><path style="fill:#fff;stroke:#7f7f7f;stroke-width:2" d="M373,111 l8,-34 64,18 -8,34 -64,-18z" /><path style="fill:#fff;stroke:#7f7f7f;stroke-width:2" d="M303,371 l8,-32 66,16 -10,34 -64,-18z" /><circle style="fill:#e5e5e5;stroke:#7f7f7f;stroke-width:2" cx="331" cy="221" r="23" /></svg>