<!DOCTYPE svg PUBLIC "-//W3C//DTD SVG 20000303 Stylable//EN" "http://www.w3.org/TR/2000/03/WD-SVG-20000303/DTD/svg-20000303-stylable.dtd"[]><svg xmlns="http://www.w3.org/2000/svg" width="605px" height="999px" viewBox="0 0 581 999"><path style="fill:#b2b2b2;stroke:#4c4c4c;stroke-width:2" d="M581,611 l0,388 -98,0 0,-388 98,0z" /><path style="fill:#b2b2b2;stroke:#4c4c4c;stroke-width:2" d="M95,709 l388,0 0,194 -388,0 0,-194z" /><path style="fill:#b2b2b2;stroke:#4c4c4c;stroke-width:2" d="M95,611 l0,388 -95,0 0,-388 95,0z" /><path style="fill:#ccc" d="M581,653 l0,304 -98,0 0,-304 98,0z" /><path style="fill:#ccc" d="M95,739 l388,0 0,132 -388,0 0,-132z" /><path style="fill:#ccc" d="M95,653 l0,304 -95,0 0,-304 95,0z" /><path style="fill:#e5e5e5" d="M581,719 l0,172 -98,0 0,-172 98,0z" /><path style="fill:#e5e5e5" d="M95,775 l388,0 0,60 -388,0 0,-60z" /><path style="fill:#e5e5e5" d="M95,719 l0,172 -95,0 0,-172 95,0z" /><path style="fill:#fff" d="M581,783 l0,44 -98,0 0,-44 98,0z" /><path style="fill:#fff" d="M95,799 l388,0 0,12 -388,0 0,-12z" /><path style="fill:#fff" d="M95,783 l0,44 -95,0 0,-44 95,0z" /><path style="fill:#e50000;stroke:#4c4c4c;stroke-width:2" d="M169,157 l-74,-12 0,-134 74,-11 0,157z" /><path style="fill:#e50000;stroke:#4c4c4c;stroke-width:2" d="M411,0 l72,11 0,134 -72,12 0,-157z" /><path style="fill:#e5e5e5" d="M411,53 l70,0 0,-18 -70,-6 0,24z" /><path style="fill:#e5e5e5" d="M169,53 l-70,0 0,-18 70,-6 0,24z" /><path style="fill:#f00;stroke:#4c4c4c;stroke-width:2" d="M169,0 l242,0 0,417 -242,0 0,-417z" /><circle style="fill:#f00;stroke:#4c4c4c;stroke-width:2" cx="290" cy="193" r="193" /><circle style="fill:#4c4c4c;stroke:#4c4c4c;stroke-width:2" cx="290" cy="193" r="133" /><path style="fill:#4c4c4c;stroke:#4c4c4c;stroke-width:2" d="M327,715 l-1,2 -2,2 -3,2 -4,2 -6,1 -6,2 -7,0 -7,1 -8,-1 -7,0 -6,-2 -6,-1 -4,-2 -4,-2 -2,-2 -1,-2 0,-298 74,0 0,298z" /><path style="fill:#e50000;stroke:#4c4c4c;stroke-width:2" d="M315,385 l17,-2 15,-4 15,-5 15,-7 14,-7 13,-9 12,-10 11,-11 11,-11 10,-13 9,-13 7,-14 7,-15 5,-15 4,-15 3,-17 -32,0 -2,13 -4,13 -4,12 -6,12 -6,11 -7,11 -8,10 -9,10 -9,9 -10,8 -10,7 -12,6 -11,6 -12,4 -13,4 -13,2 0,30z" /><path style="fill:#e50000;stroke:#4c4c4c;stroke-width:2" d="M483,169 l-3,-16 -4,-16 -5,-15 -7,-15 -7,-14 -9,-13 -10,-12 -11,-12 -11,-11 -12,-9 -13,-9 -14,-8 -15,-6 -15,-5 -15,-4 -17,-3 -2,30 13,3 13,3 13,5 12,5 11,7 11,7 10,8 9,9 9,9 8,11 7,10 6,12 6,11 4,13 4,13 2,12 32,0z" /><path style="fill:#e50000;stroke:#4c4c4c;stroke-width:2" d="M265,1 l-16,3 -16,4 -15,5 -14,6 -14,8 -13,9 -13,9 -11,11 -11,12 -9,12 -9,13 -8,14 -6,15 -5,15 -5,16 -3,16 32,0 3,-12 3,-13 5,-13 5,-11 6,-12 7,-10 8,-11 9,-9 9,-9 10,-8 11,-7 11,-7 12,-5 12,-5 12,-3 13,-3 0,-30z" /><path style="fill:#e50000;stroke:#4c4c4c;stroke-width:2" d="M97,217 l3,17 4,15 5,15 6,15 8,14 9,13 9,13 11,11 12,11 12,10 13,9 14,7 15,7 15,5 16,4 16,2 0,-30 -13,-2 -12,-4 -12,-4 -12,-6 -11,-6 -11,-7 -10,-8 -9,-9 -9,-10 -8,-10 -7,-11 -6,-11 -5,-12 -5,-12 -3,-13 -3,-13 -32,0z" /><path style="fill:#333;stroke:#4c4c4c;stroke-width:2" d="M201,153 l176,0 0,80 -176,0 0,-80z" /><path style="fill:#b2b2b2;stroke:#4c4c4c;stroke-width:2" d="M211,163 l158,0 0,60 -158,0 0,-60z" /><circle style="fill:#b2b2b2;stroke:#4c4c4c;stroke-width:2" cx="289" cy="369" r="10" /><circle style="fill:#b2b2b2;stroke:#4c4c4c;stroke-width:2" cx="466" cy="192" r="9" /><circle style="fill:#b2b2b2;stroke:#4c4c4c;stroke-width:2" cx="288" cy="14" r="9" /><circle style="fill:#b2b2b2;stroke:#4c4c4c;stroke-width:2" cx="111" cy="192" r="10" /><path style="fill:#999;stroke:#4c4c4c;stroke-width:2" d="M235,441 l110,0 0,122 -110,0 0,-122z" /><path style="fill:#999;stroke:#4c4c4c;stroke-width:2" d="M235,611 l110,0 0,36 -110,0 0,-36z" /><path style="fill:#ccc;stroke:#4c4c4c;stroke-width:2" d="M271,441 l56,0 0,122 -56,0 0,-122z" /><path style="fill:#ccc;stroke:#4c4c4c;stroke-width:2" d="M271,611 l56,0 0,36 -56,0 0,-36z" /><path style="fill:#666;stroke:#4c4c4c;stroke-width:2" d="M241,441 l98,0 0,-6 -98,0 0,6z" /><path style="fill:#b2b2b2" d="M235,581 l110,0 0,18 -110,0 0,-18z" /><path style="fill:#b2b2b2" d="M235,659 l110,0 0,18 -110,0 0,-18z" /><path style="fill:#ccc" d="M247,581 l86,0 0,18 -86,0 0,-18z" /><path style="fill:#ccc" d="M247,659 l86,0 0,18 -86,0 0,-18z" /><path style="fill:#e5e5e5" d="M265,581 l50,0 0,18 -50,0 0,-18z" /><path style="fill:#e5e5e5" d="M265,659 l50,0 0,18 -50,0 0,-18z" /><path style="fill:#fff" d="M283,659 l12,0 0,18 -12,0 0,-18z" /><path style="fill:#fff" d="M283,581 l12,0 0,18 -12,0 0,-18z" /><path style="fill:#b2b2b2;stroke:#4c4c4c;stroke-width:2" d="M193,883 l-6,-84 206,0 -6,84 -194,0z" /><path style="fill:none;stroke:#4c4c4c;stroke-width:2" d="M235,659 l110,0 0,18 -110,0 0,-18" /><path style="fill:none;stroke:#4c4c4c;stroke-width:2" d="M235,581 l110,0 0,18 -110,0 0,-18" /></svg>