<!DOCTYPE svg PUBLIC "-//W3C//DTD SVG 20000303 Stylable//EN" "http://www.w3.org/TR/2000/03/WD-SVG-20000303/DTD/svg-20000303-stylable.dtd"[]><svg xmlns="http://www.w3.org/2000/svg" width="999px" height="999px" viewBox="0 0 999 999"><path style="fill:#699;stroke:#4c4c4c;stroke-width:2" d="M249,124 l84,-62 333,0 83,62 -500,0z" /><path style="fill:#7fb2b2;stroke:#4c4c4c;stroke-width:2" d="M0,333 l124,0 0,83 125,0 0,-125 -83,0 0,-167 666,0 0,167 -83,0 0,125 125,0 0,-83 125,0 0,666 -125,0 0,-84 -167,0 -21,42 -374,0 -21,-42 -167,0 0,84 -124,0 0,-666z" /><path style="fill:#b2e5e5" d="M749,499 l0,-78 125,0 0,78 -125,0z" /><path style="fill:#b2e5e5" d="M124,499 l0,-78 125,0 0,78 -125,0z" /><path style="fill:#b2e5e5" d="M879,447 l0,-109 114,0 0,109 -114,0z" /><path style="fill:#b2e5e5" d="M5,447 l0,-109 114,0 0,109 -114,0z" /><path style="fill:#9cc" d="M749,577 l0,-78 125,0 0,78 -125,0z" /><path style="fill:#9cc" d="M124,577 l0,-78 125,0 0,78 -125,0z" /><path style="fill:#699" d="M124,910 l0,-161 146,0 21,52 208,67 208,-67 21,-52 146,0 0,161 -172,0 -21,42 -364,0 -21,-42 -172,0z" /><path style="fill:#4c7f7f" d="M124,910 l0,-83 146,0 21,41 208,58 208,-58 21,-41 146,0 0,83 -172,0 -21,42 -364,0 -21,-42 -172,0z" /><path style="fill:#9cc" d="M879,556 l0,-109 114,0 0,109 -114,0z" /><path style="fill:#9cc" d="M5,556 l0,-109 114,0 0,109 -114,0z" /><path style="fill:#699" d="M879,884 l0,-109 114,0 0,109 -114,0z" /><path style="fill:#699" d="M5,884 l0,-109 114,0 0,109 -114,0z" /><path style="fill:#4c7f7f" d="M879,993 l0,-109 114,0 0,109 -114,0z" /><path style="fill:#4c7f7f" d="M5,993 l0,-109 114,0 0,109 -114,0z" /><path style="fill:#4c7f7f" d="M255,286 l-84,0 0,-156 656,0 0,156 -84,0 0,275 -36,-62 -21,-229 63,0 0,-125 -500,0 0,125 63,0 -21,229 -36,62 0,-275z" /><path style="fill:#699" d="M312,291 l-63,-5 0,-156 500,0 0,156 -64,5 22,208 -41,-21 -42,-187 42,0 0,-146 -333,0 0,146 41,0 -41,187 -42,21 21,-208z" /><path style="fill:none;stroke:#4c4c4c;stroke-width:2" d="M874,915 l0,-499" /><path style="fill:none;stroke:#4c4c4c;stroke-width:2" d="M124,915 l0,-499" /><path style="fill:none;stroke:#4c4c4c;stroke-width:2" d="M166,208 l666,0" /><path style="fill:none;stroke:#4c4c4c;stroke-width:2" d="M249,291 l500,0" /><path style="fill:#7fb2b2;stroke:#4c4c4c;stroke-width:2" d="M333,0 l333,0 0,124 -333,0 0,-124z" /><path style="fill:#b2e5e5;stroke:#4c4c4c;stroke-width:2" d="M208,124 l41,0 0,-41 -41,0 0,41z" /><path style="fill:#b2e5e5;stroke:#4c4c4c;stroke-width:2" d="M374,124 l42,0 0,-41 -42,0 0,41z" /><path style="fill:#b2e5e5;stroke:#4c4c4c;stroke-width:2" d="M582,124 l42,0 0,-41 -42,0 0,41z" /><path style="fill:#b2e5e5;stroke:#4c4c4c;stroke-width:2" d="M749,124 l41,0 0,-41 -41,0 0,41z" /><path style="fill:#9cc" d="M354,691 l-60,-96 60,-98 148,-40 146,40 59,98 -59,96 -146,40 -148,-40z" /></svg>