<!DOCTYPE svg PUBLIC "-//W3C//DTD SVG 20000303 Stylable//EN" "http://www.w3.org/TR/2000/03/WD-SVG-20000303/DTD/svg-20000303-stylable.dtd"[]><svg xmlns="http://www.w3.org/2000/svg" width="999px" height="507px" viewBox="0 0 999 477"><path style="fill:#7f7f7f" d="M986,339 l0,-204 -441,0 -342,-68 -158,0 0,340 158,2 342,-70 441,0z" /><path style="fill:#999" d="M986,327 l0,-178 -441,0 -342,-58 -158,-2 0,296 158,0 342,-58 441,0z" /><path style="fill:#b2b2b2" d="M986,305 l0,-136 -441,0 -342,-44 -158,-2 0,228 158,0 342,-46 441,0z" /><path style="fill:#ccc" d="M986,285 l0,-96 -441,0 -342,-32 -158,0 0,160 158,0 342,-32 441,0z" /><path style="fill:#e5e5e5" d="M986,269 l0,-62 -441,0 -342,-20 -158,-2 0,104 158,0 342,-20 441,0z" /><path style="fill:#fff" d="M986,247 l0,-20 -441,0 -342,-6 -158,-2 0,36 158,0 342,-8 441,0z" /><path style="fill:none;stroke:#4c4c4c;stroke-width:2" d="M986,339 l0,-204 -441,0 -342,-68 -158,0 0,342 152,0 348,-70 441,0" /><path style="fill:#7f7f7f" d="M51,2 l-51,0 0,475 51,0 0,-475z" /><path style="fill:#999" d="M51,31 l-51,0 0,418 51,0 0,-418z" /><path style="fill:#b2b2b2" d="M51,82 l-51,0 0,317 51,0 0,-317z" /><path style="fill:#ccc" d="M51,129 l-51,0 0,220 51,0 0,-220z" /><path style="fill:#e5e5e5" d="M51,169 l-51,0 0,140 51,0 0,-140z" /><path style="fill:#fff" d="M51,211 l-51,0 0,56 51,0 0,-56z" /><path style="fill:none;stroke:#4c4c4c;stroke-width:2" d="M51,0 l-51,0 0,477 51,0 0,-477" /><path style="fill:#7f7f7f" d="M227,2 l-52,0 0,475 52,0 0,-475z" /><path style="fill:#999" d="M227,33 l-52,0 0,416 52,0 0,-416z" /><path style="fill:#b2b2b2" d="M227,83 l-52,0 0,314 52,0 0,-314z" /><path style="fill:#ccc" d="M227,129 l-52,0 0,218 52,0 0,-218z" /><path style="fill:#e5e5e5" d="M227,169 l-52,0 0,140 52,0 0,-140z" /><path style="fill:#fff" d="M227,211 l-52,0 0,58 52,0 0,-58z" /><path style="fill:none;stroke:#4c4c4c;stroke-width:2" d="M227,0 l-52,0 0,477 52,0 0,-477" /><path style="fill:#7f7f7f" d="M949,101 l-34,0 0,272 34,0 0,-272z" /><path style="fill:#999" d="M949,121 l-34,0 0,236 34,0 0,-236z" /><path style="fill:#b2b2b2" d="M949,149 l-34,0 0,180 34,0 0,-180z" /><path style="fill:#ccc" d="M949,175 l-34,0 0,126 34,0 0,-126z" /><path style="fill:#e5e5e5" d="M949,199 l-34,0 0,78 34,0 0,-78z" /><path style="fill:#fff" d="M949,223 l-34,0 0,32 34,0 0,-32z" /><path style="fill:none;stroke:#4c4c4c;stroke-width:2" d="M949,101 l-36,0 0,272 36,0 0,-272" /><path style="fill:#7f7f7f" d="M999,2 l-52,0 0,475 52,0 0,-475z" /><path style="fill:#999" d="M999,33 l-52,0 0,416 52,0 0,-416z" /><path style="fill:#b2b2b2" d="M999,83 l-52,0 0,314 52,0 0,-314z" /><path style="fill:#ccc" d="M999,129 l-52,0 0,218 52,0 0,-218z" /><path style="fill:#e5e5e5" d="M999,169 l-52,0 0,140 52,0 0,-140z" /><path style="fill:#fff" d="M999,211 l-52,0 0,58 52,0 0,-58z" /><path style="fill:none;stroke:#4c4c4c;stroke-width:2" d="M999,0 l-50,0 0,477 50,0 0,-477" /><path style="fill:none;stroke:#7f7f7f;stroke-width:2" d="M545,135 l0,204" /></svg>