<!DOCTYPE svg PUBLIC "-//W3C//DTD SVG 20000303 Stylable//EN" "http://www.w3.org/TR/2000/03/WD-SVG-20000303/DTD/svg-20000303-stylable.dtd"[]><svg xmlns="http://www.w3.org/2000/svg" width="999px" height="469px" viewBox="0 0 999 437"><path style="fill:#7f7f7f" d="M999,311 l0,-188 -500,0 -458,-61 0,311 458,-62 500,0z" /><path style="fill:#999" d="M999,299 l0,-162 -500,0 -458,-55 0,271 458,-54 500,0z" /><path style="fill:#b2b2b2" d="M999,281 l0,-125 -500,0 -458,-42 0,207 458,-40 500,0z" /><path style="fill:#ccc" d="M999,261 l0,-88 -500,0 -458,-28 0,146 458,-30 500,0z" /><path style="fill:#e5e5e5" d="M999,245 l0,-56 -500,0 -458,-17 0,93 458,-20 500,0z" /><path style="fill:#fff" d="M999,228 l0,-20 -500,0 -458,-7 0,32 458,-5 500,0z" /><path style="fill:none;stroke:#4c4c4c;stroke-width:2" d="M999,311 l0,-188 -500,0 -458,-61 0,311 458,-62 500,0" /><path style="fill:#ccc;stroke:#4c4c4c;stroke-width:2" d="M967,331 l-14,0 0,12 14,0 0,-12z" /><path style="fill:#ccc;stroke:#4c4c4c;stroke-width:2" d="M967,78 l-14,0 0,12 14,0 0,-12z" /><path style="fill:#ccc;stroke:#4c4c4c;stroke-width:2" d="M967,196 l-14,0 0,12 14,0 0,-12z" /><path style="fill:#ccc;stroke:#4c4c4c;stroke-width:2" d="M61,391 l-16,0 0,10 16,0 0,-10z" /><path style="fill:#ccc;stroke:#4c4c4c;stroke-width:2" d="M61,265 l-16,0 0,12 16,0 0,-12z" /><path style="fill:#ccc;stroke:#4c4c4c;stroke-width:2" d="M61,137 l-16,0 0,12 16,0 0,-12z" /><path style="fill:#ccc;stroke:#4c4c4c;stroke-width:2" d="M61,15 l-16,0 0,12 16,0 0,-12z" /><path style="fill:#999;stroke:#4c4c4c;stroke-width:2" d="M61,27 l-16,0 0,20 16,0 0,-20z" /><path style="fill:#999;stroke:#4c4c4c;stroke-width:2" d="M61,149 l-16,0 0,19 16,0 0,-19z" /><path style="fill:#999;stroke:#4c4c4c;stroke-width:2" d="M61,277 l-16,0 0,20 16,0 0,-20z" /><path style="fill:#999;stroke:#4c4c4c;stroke-width:2" d="M61,401 l-16,0 0,20 16,0 0,-20z" /><path style="fill:#999;stroke:#4c4c4c;stroke-width:2" d="M967,208 l-14,0 0,20 14,0 0,-20z" /><path style="fill:#999;stroke:#4c4c4c;stroke-width:2" d="M967,90 l-14,0 0,20 14,0 0,-20z" /><path style="fill:#999;stroke:#4c4c4c;stroke-width:2" d="M967,343 l-14,0 0,20 14,0 0,-20z" /><path style="fill:#7f7f7f" d="M999,63 l-32,0 0,312 32,0 0,-312z" /><path style="fill:#999" d="M999,83 l-32,0 0,272 32,0 0,-272z" /><path style="fill:#b2b2b2" d="M999,117 l-32,0 0,206 32,0 0,-206z" /><path style="fill:#ccc" d="M999,148 l-32,0 0,141 32,0 0,-141z" /><path style="fill:#e5e5e5" d="M999,173 l-32,0 0,90 32,0 0,-90z" /><path style="fill:#fff" d="M999,201 l-32,0 0,36 32,0 0,-36z" /><path style="fill:none;stroke:#4c4c4c;stroke-width:2" d="M999,62 l-30,0 0,313 30,0 0,-313" /><path style="fill:#7f7f7f" d="M521,63 l-42,0 0,312 42,0 0,-312z" /><path style="fill:#999" d="M521,83 l-42,0 0,272 42,0 0,-272z" /><path style="fill:#b2b2b2" d="M521,117 l-42,0 0,206 42,0 0,-206z" /><path style="fill:#ccc" d="M521,148 l-42,0 0,141 42,0 0,-141z" /><path style="fill:#e5e5e5" d="M521,173 l-42,0 0,90 42,0 0,-90z" /><path style="fill:#fff" d="M521,201 l-42,0 0,36 42,0 0,-36z" /><path style="fill:none;stroke:#4c4c4c;stroke-width:2" d="M521,62 l-42,0 0,313 42,0 0,-313" /><path style="fill:#7f7f7f" d="M47,2 l-47,0 0,435 47,0 0,-435z" /><path style="fill:#999" d="M47,30 l-47,0 0,381 47,0 0,-381z" /><path style="fill:#b2b2b2" d="M47,75 l-47,0 0,290 47,0 0,-290z" /><path style="fill:#ccc" d="M47,119 l-47,0 0,200 47,0 0,-200z" /><path style="fill:#e5e5e5" d="M47,156 l-47,0 0,127 47,0 0,-127z" /><path style="fill:#fff" d="M47,193 l-47,0 0,52 47,0 0,-52z" /><path style="fill:none;stroke:#4c4c4c;stroke-width:2" d="M47,0 l-47,0 0,437 47,0 0,-437" /></svg>