<!DOCTYPE svg PUBLIC "-//W3C//DTD SVG 20000303 Stylable//EN" "http://www.w3.org/TR/2000/03/WD-SVG-20000303/DTD/svg-20000303-stylable.dtd"[]><svg xmlns="http://www.w3.org/2000/svg" width="273px" height="999px" viewBox="0 0 230 999"><path style="fill:#7f7f7f;stroke:#4c4c4c;stroke-width:2" d="M6,597 l216,0 0,402 -216,0 0,-402z" /><path style="fill:#00f;stroke:#4c4c4c;stroke-width:2" d="M22,126 l31,0 0,47 -31,0 0,-47z" /><path style="fill:#7f7f7f;stroke:#4c4c4c;stroke-width:2" d="M22,173 l31,0 0,46 -31,0 0,-46z" /><path style="fill:#00f;stroke:#4c4c4c;stroke-width:2" d="M22,3 l185,0 0,123 -185,0 0,-123z" /><path style="fill:#00f;stroke:#4c4c4c;stroke-width:2" d="M177,126 l30,0 0,47 -30,0 0,-47z" /><circle style="fill:#b2b2b2" cx="115" cy="64" r="62" /><path style="fill:#000" d="M180,65 l0,-7 -1,-6 -2,-7 -2,-6 -3,-5 -3,-6 -4,-5 -4,-4 -5,-5 -5,-3 -5,-4 -6,-2 -6,-3 -6,-1 -7,-1 -6,0 0,6 6,1 5,1 6,1 6,2 4,2 5,4 5,3 4,3 4,5 3,4 3,5 2,5 3,5 1,6 1,6 0,6z" /><path style="fill:#000" d="M115,130 l6,0 7,-1 6,-2 6,-2 6,-3 5,-3 5,-4 5,-4 4,-5 4,-5 3,-5 3,-6 2,-6 2,-6 1,-7 0,-6 -7,0 0,6 -1,5 -1,6 -3,5 -2,5 -3,5 -3,5 -4,4 -4,4 -5,3 -5,3 -4,2 -6,2 -6,2 -5,1 -6,0z" /><path style="fill:#000" d="M50,65 l0,6 1,7 2,6 2,6 3,6 3,5 3,5 5,5 4,4 5,4 6,3 6,3 6,2 6,2 6,1 7,0 0,-7 -6,0 -6,-1 -5,-2 -6,-2 -5,-2 -5,-3 -4,-3 -4,-4 -4,-4 -3,-5 -4,-5 -2,-5 -2,-5 -1,-6 -1,-5 0,-6z" /><path style="fill:#000" d="M115,0 l-7,0 -6,1 -6,1 -6,3 -6,2 -6,4 -5,3 -4,5 -5,4 -3,5 -3,6 -3,5 -2,6 -2,7 -1,6 0,7 7,0 0,-6 1,-6 1,-6 2,-5 2,-5 4,-5 3,-4 4,-5 4,-3 4,-3 5,-4 5,-2 6,-2 5,-1 6,-1 6,-1z" /><circle style="fill:#7f7f7f" cx="114" cy="64" r="38" /><path style="fill:#000" d="M157,65 l-1,-9 -2,-8 -5,-7 -5,-6 -6,-5 -7,-4 -8,-3 -8,0 0,7 7,0 7,2 5,4 5,4 5,5 3,6 2,7 1,7z" /><path style="fill:#000" d="M115,107 l8,-1 8,-3 7,-4 6,-5 5,-6 5,-7 2,-8 1,-8 -7,0 -1,7 -2,7 -3,5 -5,5 -5,5 -5,3 -7,2 -7,1z" /><path style="fill:#000" d="M73,65 l1,8 2,8 4,7 5,6 6,5 8,4 7,3 9,1 0,-7 -7,-1 -7,-2 -6,-3 -5,-5 -4,-5 -4,-5 -2,-7 0,-7z" /><path style="fill:#000" d="M115,23 l-9,0 -7,3 -8,4 -6,5 -5,6 -4,7 -2,8 -1,9 7,0 0,-7 2,-7 4,-6 4,-5 5,-4 6,-4 7,-2 7,0z" /><path style="fill:#7f7f7f;stroke:#4c4c4c;stroke-width:2" d="M177,173 l30,0 0,46 -30,0 0,-46z" /><path style="fill:#e5e5e5;stroke:#4c4c4c;stroke-width:2" d="M92,41 l46,0 0,16 -46,0 0,-16z" /><path style="fill:#b2b2b2;stroke:#4c4c4c;stroke-width:2" d="M96,80 l38,0 0,8 -38,0 0,-8z" /><path style="fill:#fff;stroke:#4c4c4c;stroke-width:2" d="M126,61 l12,0 0,8 -12,0 0,-8z" /><path style="fill:#b2b2b2;stroke:#4c4c4c;stroke-width:2" d="M57,373 l116,0 0,201 -116,0 0,-201z" /><path style="fill:#7f7f7f" d="M60,373 l16,0 0,193 -16,0 0,-193z" /><path style="fill:#7f7f7f" d="M142,373 l16,0 0,193 -16,0 0,-193z" /><path style="fill:#fff" d="M126,373 l16,0 0,193 -16,0 0,-193z" /><path style="fill:#7f7f7f;stroke:#4c4c4c;stroke-width:2" d="M53,173 l124,0 0,200 -124,0 0,-200z" /><path style="fill:#000" d="M57,172 l15,0 0,201 -15,0 0,-201z" /><path style="fill:#000" d="M145,172 l16,0 0,201 -16,0 0,-201z" /><path style="fill:#e5e5e5" d="M130,172 l15,0 0,201 -15,0 0,-201z" /><path style="fill:#00f;stroke:#4c4c4c;stroke-width:2" d="M53,126 l124,0 0,47 -124,0 0,-47z" /><path style="fill:#000" d="M207,126 l0,-3 -185,0 0,7 185,0 0,-4z" /><path style="fill:#7f7f7f;stroke:#4c4c4c;stroke-width:2" d="M57,574 l-8,4 0,7 131,0 0,-7 -7,-4 -116,0z" /><path style="fill:#7f7f7f;stroke:#4c4c4c;stroke-width:2" d="M22,585 l185,0 0,27 -185,0 0,-27z" /><path style="fill:#b2b2b2" d="M3,3 l19,0 0,119 -19,0 0,-119z" /><path style="fill:#000" d="M26,3 l-4,-3 -19,0 0,6 19,0 -3,-3 7,0 0,-3 -4,0z" /><path style="fill:#000" d="M22,126 l4,-4 0,-119 -7,0 0,119 3,-3 0,7 4,0 0,-4z" /><path style="fill:#000" d="M0,122 l3,4 19,0 0,-7 -19,0 3,3 -6,0 0,4 3,0z" /><path style="fill:#000" d="M3,0 l-3,3 0,119 6,0 0,-119 -3,3 0,-6 -3,0 0,3z" /><path style="fill:#b2b2b2" d="M207,3 l20,0 0,119 -20,0 0,-119z" /><path style="fill:#000" d="M230,3 l-3,-3 -20,0 0,6 20,0 -4,-3 7,0 0,-3 -3,0z" /><path style="fill:#000" d="M227,126 l3,-4 0,-119 -7,0 0,119 4,-3 0,7 3,0 0,-4z" /><path style="fill:#000" d="M204,122 l3,4 20,0 0,-7 -20,0 4,3 -7,0 0,4 3,0z" /><path style="fill:#000" d="M207,0 l-3,3 0,119 7,0 0,-119 -4,3 0,-6 -3,0 0,3z" /></svg>