<!DOCTYPE svg PUBLIC "-//W3C//DTD SVG 1.1//EN" "http://www.w3.org/Graphics/SVG/1.1/DTD/svg11.dtd"[]><svg version="1.1" xmlns="http://www.w3.org/2000/svg" xmlns:xlink="http://www.w3.org/1999/xlink" width="33px" height="112px" viewBox="0 0 33.48 112.5" enable-background="new 0 0 33.48 112.5" xml:space="preserve">
<g id="Group_Neck">
	<path fill="#FFCC99" stroke="#4C4C4C" stroke-width="0.25" d="M19.84,18.487l-1.127-3.72h-4.058l-1.128,4.396" />
</g>
<g id="Group_LEft_Arm">
	<path fill="#FFCC99" stroke="#4C4C4C" stroke-width="0.25" d="M26.829,28.407l0.563,8.68l0.226,5.975l0.902,11.498l-0.789,2.254   l0.338,3.495l0.563,0.563l0.112-2.479l0.451-0.112l-0.789,6.313l0.789,0.902l2.142-4.848l0.451-3.27l-0.338-2.254l1.239-11.047   l0.564-6.989l-0.677-7.327l-2.255-7.102l-2.931-1.691l-7.553-2.48" />
</g>
<g id="Group_Left_Leg">
	<path fill="#FFCC99" stroke="#4C4C4C" stroke-width="0.25" d="M17.586,63.803v9.807l1.127,11.047l-0.563,8.68l2.367,12.176   l-1.24,4.734l0.563,1.127l2.932,1.127h3.494l1.127-1.127l-2.818-5.186l1.128-14.541v-4.735l0.563-21.417" />
</g>
<g id="Group_Right_Leg">
	<path fill="#FFCC99" stroke="#4C4C4C" stroke-width="0.25" d="M7.01,64.041l-0.471,4.383l0.563,15.67l-0.563,4.621l0.563,17.473   l-1.128,2.818l-1.804,1.803l0.564,1.128h4.734l2.817-2.255l-0.563-3.494l-0.563-2.932l2.931-19.727l1.691-19.727" />
</g>
<g id="Group_Right_Arm">
	<path fill="#FFCC99" stroke="#4C4C4C" stroke-width="0.25" d="M13.527,19.164l-9.243,2.818l-2.931,3.495l-0.789,4.058l0.112,8.792   l-0.563,5.749l0.563,10.483l0.563,4.622l1.24,3.382l2.705,3.494l0.564-3.043l-2.368-4.059l1.24,0.564l1.128,1.803l0.225-2.142   l-1.804-5.185l1.804-12.174v-5.298l0.564-7.553" />
</g>
<g id="Group_Upper">
	<path stroke="#4C4C4C" stroke-width="0.25" d="M6.426,34.832H2.255l-2.254,0.564l0.45-8.229l1.804-4.171l2.931-2.931l8.905-2.931   l1.128,0.563h2.931l1.804-0.563l6.425,1.804l4.734,3.494l1.804,4.171l0.563,6.989v2.931l-2.931-1.127h-3.494v-4.171l-0.677,7.102   v11.836H6.989l0.563-8.341L6.426,31.225V34.832z" />
</g>
<g id="Group_Belt">
	<path fill="#333333" stroke="#4C4C4C" stroke-width="0.25" d="M7.44,51.854v-2.367h18.487v2.367H7.44z" />
</g>
<g id="Group_Lower">
	<path fill="#999966" stroke="#4C4C4C" stroke-width="0.25" d="M5.974,79.133L5.185,67.748l1.128-12.851l0.563-4.735h0.676v1.691   h4.171v-1.691h1.128v1.691h7.102v-1.691h1.127v1.691h4.734v-1.691h0.677l0.451,11.16l0.676,8.229l-1.127,10.146l-8.793-0.564   l-1.353-9.581l-1.015,9.581H5.974z" />
	<path fill="#666633" d="M16.345,68.988l-1.015,10.145l-0.676-2.479l0.563-5.975v-4.058v-2.367l0.563-10.597v10.032l0.563,3.495   l2.367-4.171l-1.127,5.298l1.127,5.975l-1.015,4.847L16.345,68.988z" />
</g>
<g id="Group_Face">
	<path fill="#FFCC99" stroke="#4C4C4C" stroke-width="0.25" d="M21.418,11.16h-9.469l-1.24-1.015l-0.676-1.127V7.891l0.676-1.127   h11.837l0.676,1.127v1.127l-0.676,1.127L21.418,11.16z" />
	<ellipse fill="#FFCC99" stroke="#4C4C4C" stroke-width="0.25" cx="16.571" cy="8.454" rx="5.636" ry="7.44" />
	<path fill="#E5B27F" d="M16.571,10.033l1.578,0.451h-3.27L16.571,10.033z" />
	<path fill="#E5B2B2" d="M14.88,13.076l-0.45-0.451H18.6l-0.451,0.451H14.88z" />
	<path fill="none" stroke="#CC99B2" stroke-width="0.25" d="M14.429,12.625H18.6" />
	<path d="M17.698,8.455h0.451l0.226-0.677l-0.226-0.676h-0.451l-0.226,0.676L17.698,8.455z" />
	<path d="M14.655,8.342h0.45l0.226-0.676l-0.226-0.677h-0.45l-0.226,0.677L14.655,8.342z" />
	<path d="M13.077,6.538L15.894,6.2l-0.338,0.338l-2.705,0.338L13.077,6.538z" />
	<path d="M19.953,6.538L17.247,6.2l0.113,0.338l2.818,0.338L19.953,6.538z" />
</g>
<g id="Group_Socks">
	<path fill="#FFFFFF" stroke="#4C4C4C" stroke-width="0.25" d="M4.51,112.387l5.523,0.113l2.818-2.48l-0.677-3.832l0.112-1.127   l-0.563-1.578l1.804-12.063l-2.142,0.564H7.778L6.539,91.42l0.563,14.881l-1.128,2.93l-1.804,1.917L4.51,112.387z" />
	<path fill="#FFFFFF" stroke="#4C4C4C" stroke-width="0.25" d="M27.618,112.387l-5.861,0.113l-3.044-2.48l0.677-3.832l-0.113-1.127   l0.677-1.578l-1.691-9.695v-2.141l2.029,0.338h3.833l1.804-0.564l-1.015,14.881l1.127,2.93l2.029,1.917L27.618,112.387z" />
</g>
<g id="Group_Pink_Stripes">
	<path fill="#FF7F7F" d="M25.138,94.014l-1.804,0.45H19.84l-1.015-0.339L18.6,92.998l1.239,0.451h3.382l2.029-0.451L25.138,94.014z" />
	<path fill="#FF7F7F" d="M6.763,94.352l1.917,0.451h3.156l1.127-0.339v-1.015l-1.015,0.338H8.68l-1.804-0.451L6.763,94.352z" />
</g>
<g id="Group_Blue_Stripes">
	<path fill="#7F7FFF" d="M6.989,95.253l1.691,0.339l3.156,0.112l1.015-0.339l0.112-0.676l-1.015,0.451H8.68l-1.804-0.451   L6.989,95.253z" />
	<path fill="#7F7FFF" d="M25.025,94.915l-1.916,0.338l-3.27,0.112l-1.015-0.338v-0.676l1.015,0.451h3.27l1.916-0.564V94.915z" />
	<path fill="#7F7FFF" d="M25.251,92.547l-2.029,0.339l-3.494,0.112l-1.24-0.338l-0.112-0.676l1.353,0.451h3.382l2.142-0.564V92.547z   " />
	<path fill="#7F7FFF" d="M6.763,92.886l1.917,0.339l3.156,0.111l1.24-0.338l0.112-0.676l-1.24,0.451H8.68l-1.917-0.564V92.886z" />
</g>
<g id="Group_Hair">
	<path fill="#E5E54C" stroke="#4C4C4C" stroke-width="0.25" d="M11.048,6.651h-0.339l-0.338,0.563l1.466-4.396L12.4,1.015   l1.804-0.902L16.571,0l2.254,0.113l1.917,0.902l0.451,1.803l1.69,4.396l-0.338-0.563h-0.339l-1.014-2.367l-1.015-1.353L18.713,2.48   h-4.283l-1.353,0.226l-1.24,1.578L11.048,6.651z" />
</g>
<g id="Group_Shoe">
	<path fill="#E5E5E5" stroke="#4C4C4C" stroke-width="0.25" d="M3.495,112.049v-1.353l3.044-2.931l0.563-2.254h3.494l1.804-0.564   l0.677,3.607l-0.113,1.015l-1.127,1.239l-0.677,1.24L8.906,112.5H4.058L3.495,112.049z" />
	<path fill="#E5E5E5" stroke="#4C4C4C" stroke-width="0.25" d="M28.069,112.049v-1.353l-1.691-1.69l-1.127-2.932h-3.494   l-2.367-0.563l-0.564,2.254l-0.563,1.691l0.563,1.352l3.382,1.691h5.411L28.069,112.049z" />
</g>
<g id="Group_Cap">
	<path fill="#663300" d="M19.502,4.96l0.451-2.254h0.226v1.804l-0.226-0.451L19.502,4.96z" />
	<path fill="#996633" stroke="#4C4C4C" stroke-width="0.25" d="M10.596,5.862l1.24,0.563l1.127-0.676l3.494-0.563l2.932,0.563   l1.804,0.676l1.353-0.676L19.614,3.72h-6.199L10.596,5.862z" />
	<path stroke="#4C4C4C" stroke-width="0.25" d="M10.596,5.862L12.4,1.127L14.655,0h4.058l2.48,1.127l1.127,4.509l-2.255-1.127   l-3.72-0.451l-3.382,0.563L10.596,5.862z" />
	<path fill="#FFFFFF" d="M17.586,4.058l-2.142-0.789V1.24l2.142-0.789L16.12,2.254L17.586,4.058z" />
</g>
</svg>