<!DOCTYPE svg PUBLIC "-//W3C//DTD SVG 1.1//EN" "http://www.w3.org/Graphics/SVG/1.1/DTD/svg11.dtd"[]><svg version="1.1" xmlns="http://www.w3.org/2000/svg" xmlns:xlink="http://www.w3.org/1999/xlink" width="28px" height="112px" viewBox="0 0 28.043 112.5" enable-background="new 0 0 28.043 112.5" xml:space="preserve">
<g id="Group_Left_Leg">
	<polyline fill="#996635" stroke="#4C4C4C" stroke-width="0.25" points="13.91,65.605 14.473,74.061 14.36,84.883 14.473,93.336    16.051,105.623 14.923,110.246 15.488,111.485 18.418,112.5 21.8,112.5 23.041,111.485 20.109,106.074 20.898,89.166    20.898,84.544 21.8,80.035 22.476,68.086 22.639,64.521  " />
</g>
<g id="Group_Left_Arm">
	<polyline fill="#996635" stroke="#4C4C4C" stroke-width="0.25" points="23.153,35.283 22.589,28.407 23.491,39.116 23.604,46.556    25.182,56.588 24.505,58.392 23.942,61.999 23.942,66.733 26.986,62.563 27.549,57.039 28,45.992 27.549,37.763 27.21,30.098    24.957,22.883 22.25,20.967 19.328,20.072  " />
</g>
<g id="Group_Neck">
	<path fill="#996635" stroke="#4C4C4C" stroke-width="0.25" d="M9.805,27.353h7.317c0.848,0,1.58,0.176,2.205,0.476v-7.757   l-2.601-0.796L15.6,16.909h-4.058l-1.128,2.931l-2.963,1.152l-0.494,5.719c0.104-0.005,0.206-0.015,0.313-0.015   C8.273,26.696,9.114,26.944,9.805,27.353z" />
</g>
<g id="Group_Right_Leg">
	<polyline fill="#996635" stroke="#4C4C4C" stroke-width="0.25" points="4.8,64.87 4.666,68.988 6.357,84.432 5.793,89.053    6.018,106.301 4.779,109.118 2.975,110.922 3.539,111.937 8.161,111.937 11.091,109.682 10.528,106.301 9.964,103.256    12.782,83.755 13.233,64.366  " />
</g>
<g id="Group_Right_Arm">
	<path fill="#996635" stroke="#4C4C4C" stroke-width="0.25" d="M9.077,25.127l-1.626-4.135l-3.124,1.215L1.96,26.378l-1.127,5.185   v7.44l-0.564,5.749l-0.225,13.64l0.338,3.833l1.127,3.494l2.593,1.691L3.99,63.127l-0.563-4.735l1.69-14.992l0.226-8.905   l1.353-4.735L9.077,25.127z" />
</g>
<g id="Group_Hair_Rear">
	<path stroke="#4C4C4C" stroke-width="0.25" d="M20.385,11.148l-0.901,8.671l-0.901-0.788l-0.225,0.788h-0.901l-1.351-1.352   l-0.227-1.238l2.141-4.843L20.385,11.148z" />
	<path stroke="#4C4C4C" stroke-width="0.25" d="M7.209,11.148l1.126,9.122l0.225-0.675l0.226,0.675h0.901l-0.113-1.238l0.789,1.351   l2.365-5.743L7.209,11.148z" />
</g>
<g id="Group_Face">
	<path fill="#996633" stroke="#4C4C4C" stroke-width="0.25" d="M18.47,12.951H9.011l-1.239-0.901l-0.563-1.126V9.685l0.563-1.126   h12.05l0.563,1.126v1.239l-0.563,1.126L18.47,12.951z" />
	<ellipse fill="#996633" stroke="#4C4C4C" stroke-width="0.25" cx="13.74" cy="10.36" rx="5.631" ry="7.433" />
	<path fill="#663333" d="M13.628,12.838l1.577,0.45h-3.153L13.628,12.838z" />
	<path fill="#B27F7F" d="M12.051,15.09l-0.563-0.563h4.391l-0.675,0.563H12.051z" />
	<path fill="none" stroke="#CC9999" stroke-width="0.25" d="M11.488,14.527h4.391" />
	<path d="M17.119,8.446l-2.815-0.45l0.225,0.45l2.928,0.338L17.119,8.446z" />
	<path d="M10.137,8.446l2.815-0.45l-0.225,0.45L9.912,8.784L10.137,8.446z" />
	<path d="M11.263,10.811h0.675l0.113-0.676l-0.113-0.789h-0.675l-0.113,0.789L11.263,10.811z" />
	<path d="M15.542,10.811h0.45l0.225-0.676l-0.225-0.789h-0.45l-0.226,0.789L15.542,10.811z" />
</g>
<g id="Group_Hair_Top">
	<path fill="#333333" stroke="#4C4C4C" stroke-width="0.25" d="M8.335,9.91L7.772,8.446L7.209,9.91l0.563-4.617l1.802-2.365   l1.689-1.013l2.365-0.226l2.365,0.226l1.802,1.013l1.577,2.478l1.014,4.504l-0.563-1.464L19.146,9.91l-0.901-3.716l-0.788-1.352   L15.43,4.504h-3.83L9.799,4.842L9.011,6.194L8.335,9.91z" />
	<path fill="#333333" stroke="#4C4C4C" stroke-width="0.25" d="M10.024,3.378l1.351-2.703l1.352-0.563L14.641,0l1.238,0.563   l1.239,2.928L10.024,3.378z" />
</g>
<g id="Group_Lower">
	<path fill="#FFFFFF" stroke="#4C4C4C" stroke-width="0.25" d="M6.195,47.185l-1.351,7.771l-0.676,13.4h5.18l4.504,1.239v-4.392   l0.563,5.066l5.856-1.914l2.703,0.563l0.45-15.315l-1.239-5.743L6.195,47.185z" />
</g>
<g id="Group_Upper">
	<path fill="#CC3399" stroke="#4C4C4C" stroke-width="0.25" d="M6.195,48.536l0.676-6.419L6.195,31.982l1.239-5.18v-5.743   l1.352-0.676l0.563,3.153l2.59,3.266l2.478,0.563l2.59-0.563l2.027-3.266l0.563-3.716h1.238l0.676,7.545l1.465,5.18l-0.789,11.487   l0.789,3.829l-7.096,1.239L6.195,48.536z" />
</g>
<g id="Group_Socks">
	<path fill="#FFFFFF" stroke="#4C4C4C" stroke-width="0.25" d="M17.682,105.518l-1.689-0.787l-1.577,5.18l0.676,1.914l3.266,0.676   h4.617l0.45-1.352l-3.153-5.743L17.682,105.518z" />
	<path fill="#FFFFFF" stroke="#4C4C4C" stroke-width="0.25" d="M7.997,104.842H6.083l-1.802,4.505l-1.352,1.239v1.238l3.941,0.676   l2.478-0.676l1.915-1.914v-3.153l-0.901-2.591L7.997,104.842z" />
</g>
<g id="Group_Shoes">
	<path fill="#FF99CC" stroke="#4C4C4C" stroke-width="0.25" d="M17.682,106.081l-2.252-0.563l-1.014,4.393l0.676,1.914l3.266,0.676   h4.617l0.45-1.352l-2.702-5.293L17.682,106.081z" />
	<path fill="#FF99CC" stroke="#4C4C4C" stroke-width="0.25" d="M8.786,106.081l-3.378-0.112l-1.126,3.378l-1.352,1.239v1.238   l3.941,0.676l2.478-0.676l1.915-1.914v-3.153l-0.676-1.689l-0.563,0.676L8.786,106.081z" />
</g>
</svg>