<!DOCTYPE svg PUBLIC "-//W3C//DTD SVG 1.1//EN" "http://www.w3.org/Graphics/SVG/1.1/DTD/svg11.dtd"[]><svg version="1.1" xmlns="http://www.w3.org/2000/svg" xmlns:xlink="http://www.w3.org/1999/xlink" width="28px" height="112px" viewBox="0 0 28.043 112.5" enable-background="new 0 0 28.043 112.5" xml:space="preserve">
<g id="Group_Left_Leg">
	<polyline fill="#996635" stroke="#4C4C4C" stroke-width="0.25" points="13.91,64.678 14.473,73.301 14.36,84.337 14.473,92.956    16.051,105.487 14.923,110.201 15.488,111.465 18.418,112.5 21.8,112.5 23.041,111.465 20.109,105.947 20.898,88.704    20.898,83.991 21.8,79.394 22.476,67.208 22.639,63.573  " />
</g>
<g id="Group_Left_Arm">
	<polyline fill="#996635" stroke="#4C4C4C" stroke-width="0.25" points="23.153,33.756 22.589,26.744 23.491,37.665 23.604,45.252    25.182,55.483 24.505,57.322 23.942,61 23.942,65.828 26.986,61.575 27.549,55.942 28,44.677 27.549,36.286 27.21,28.468    24.957,21.111 22.25,19.157 19.328,18.244  " />
</g>
<g id="Group_Neck">
	<path fill="#996635" stroke="#4C4C4C" stroke-width="0.25" d="M9.805,25.669h7.317c0.848,0,1.58,0.18,2.205,0.485v-7.91   l-2.601-0.812L15.6,15.019h-4.058l-1.128,2.989l-2.963,1.175l-0.494,5.832c0.104-0.006,0.206-0.016,0.313-0.016   C8.273,24.999,9.114,25.252,9.805,25.669z" />
</g>
<g id="Group_Right_Leg">
	<polyline fill="#996635" stroke="#4C4C4C" stroke-width="0.25" points="4.8,63.929 4.666,68.128 6.357,83.877 5.793,88.589    6.018,106.178 4.779,109.052 2.975,110.891 3.539,111.925 8.161,111.925 11.091,109.625 10.528,106.178 9.964,103.073    12.782,83.187 13.233,63.415  " />
</g>
<g id="Group_Right_Arm">
	<path fill="#996635" stroke="#4C4C4C" stroke-width="0.25" d="M9.077,23.399l-1.626-4.217l-3.124,1.239L1.96,24.675l-1.127,5.288   v7.587l-0.564,5.863l-0.225,13.91l0.338,3.908l1.127,3.563l2.593,1.726L3.99,62.15l-0.563-4.828l1.69-15.289l0.226-9.082   l1.353-4.829L9.077,23.399z" />
</g>
<g id="Group_Hair_Rear">
	<path stroke="#4C4C4C" stroke-width="0.25" d="M8.898,12.792l-1.239-1.723L6.984,9.002h13.513l-0.675,2.066l-1.239,1.723   l-1.689,1.264l-2.026,0.688h-2.14l-2.14-0.688L8.898,12.792z" />
	<path stroke="#4C4C4C" stroke-width="0.25" d="M20.384,9.246l-0.9,8.958l-0.901-0.804l-0.225,0.804h-0.901l-1.352-1.379   l-0.338-1.263l2.253-4.938L20.384,9.246z" />
	<path stroke="#4C4C4C" stroke-width="0.25" d="M6.984,9.246l1.238,9.532l0.226-0.804l0.226,0.804h0.9l-0.112-1.378l0.676,1.493   l2.364-5.971L6.984,9.246z" />
</g>
<g id="Group_Face">
	<path fill="#996633" stroke="#4C4C4C" stroke-width="0.25" d="M18.47,10.982H9.011l-1.239-0.919L7.209,8.915V7.652l0.563-1.149   h12.05l0.563,1.149v1.263l-0.563,1.148L18.47,10.982z" />
	<ellipse fill="#996633" stroke="#4C4C4C" stroke-width="0.25" cx="13.74" cy="8.341" rx="5.631" ry="7.58" />
	<path fill="#663333" d="M13.628,10.867l1.577,0.459h-3.153L13.628,10.867z" />
	<path fill="#B27F7F" d="M12.051,13.164l-0.563-0.575h4.391l-0.675,0.575H12.051z" />
	<path fill="none" stroke="#CC9999" stroke-width="0.25" d="M11.488,12.589h4.391" />
	<path d="M17.119,6.388l-2.815-0.459l0.225,0.459l2.928,0.345L17.119,6.388z" />
	<path d="M10.137,6.388l2.815-0.459l-0.225,0.459L9.912,6.733L10.137,6.388z" />
	<path d="M11.263,8.8h0.675l0.113-0.689l-0.113-0.804h-0.675L11.15,8.111L11.263,8.8z" />
	<path d="M15.542,8.8h0.45l0.225-0.689l-0.225-0.804h-0.45l-0.226,0.804L15.542,8.8z" />
</g>
<g id="Group_Hair_Top">
	<path fill="#333333" stroke="#4C4C4C" stroke-width="0.25" d="M8.223,8.199L7.772,6.705L7.096,8.199L7.772,3.49l1.689-2.412   l1.802-1.034l2.365-0.23l2.251,0.23l1.915,1.034l1.464,2.526l1.127,4.594l-0.789-1.494l-0.45,1.494l-0.901-3.79l-0.9-1.378   L15.43,2.686h-3.83L9.799,3.031L9.011,4.409L8.223,8.199z" />
</g>
<g id="Group_Lower">
	<path fill="#FFFFFF" stroke="#4C4C4C" stroke-width="0.25" d="M6.195,45.893l-1.351,7.924L4.168,67.482h5.18l4.504,1.264v-4.479   l0.563,5.167l5.856-1.952l2.703,0.574l0.45-15.618l-1.239-5.857L6.195,45.893z" />
</g>
<g id="Group_Upper">
	<path fill="#00CCFF" stroke="#4C4C4C" stroke-width="0.25" d="M6.195,47.271l0.676-6.546L6.195,30.39l1.239-5.283V19.25   l1.352-0.688l0.563,3.215l2.59,3.33l2.478,0.574l2.59-0.574l2.027-3.33l0.563-3.79h1.238l0.676,7.694l1.465,5.283l-0.789,11.714   l0.789,3.904l-7.096,1.264L6.195,47.271z" />
</g>
<g id="Group_Socks">
	<path fill="#FFFFFF" stroke="#4C4C4C" stroke-width="0.25" d="M17.682,105.518l-1.689-0.787l-1.577,5.18l0.676,1.914l3.266,0.676   h4.617l0.45-1.352l-3.153-5.743L17.682,105.518z" />
	<path fill="#FFFFFF" stroke="#4C4C4C" stroke-width="0.25" d="M7.997,104.842H6.083l-1.802,4.505l-1.352,1.239v1.238l3.941,0.676   l2.478-0.676l1.915-1.914v-3.153l-0.901-2.591L7.997,104.842z" />
</g>
<g id="Group_Shoes">
	<path fill="#FF99CC" stroke="#4C4C4C" stroke-width="0.25" d="M17.682,106.081l-2.252-0.563l-1.014,4.393l0.676,1.914l3.266,0.676   h4.617l0.45-1.352l-2.702-5.293L17.682,106.081z" />
	<path fill="#FF99CC" stroke="#4C4C4C" stroke-width="0.25" d="M8.786,106.081l-3.378-0.112l-1.126,3.378l-1.352,1.239v1.238   l3.941,0.676l2.478-0.676l1.915-1.914v-3.153l-0.676-1.689l-0.563,0.676L8.786,106.081z" />
</g>
</svg>