<!DOCTYPE svg PUBLIC "-//W3C//DTD SVG 1.1//EN" "http://www.w3.org/Graphics/SVG/1.1/DTD/svg11.dtd"[]><svg version="1.1" xmlns="http://www.w3.org/2000/svg" xmlns:xlink="http://www.w3.org/1999/xlink" width="30px" height="112px" viewBox="0 0 29.613 112.5" enable-background="new 0 0 29.613 112.5" xml:space="preserve">
<g id="Group_HairBack">
	<path stroke="#4C4C4C" stroke-width="0.25" d="M9.684,16.108l-1.802,0.675V9.24l0.45-1.802l0.563-2.252l1.238-1.914l1.576-1.464   l1.914-0.675h1.914l1.915,0.675l1.576,1.464l1.238,1.914l0.676,2.252l0.563,2.478v6.868l-1.801-0.675h-2.252l-1.915,0.788h-1.914   l-1.914-0.788H9.684z" />
</g>
<g id="Group_Neck">
	<path fill="#996633" stroke="#4C4C4C" stroke-width="0.25" d="M23.196,19.486l-5.518-1.802L16.44,15.32h-4.054l-1.238,2.927   l-6.081,2.365" />
</g>
<g id="Group_LeftArm">
	<path fill="#996633" stroke="#4C4C4C" stroke-width="0.25" d="M23.533,26.918l0.9,10.81l0.338,7.544l0.788,10.021l0.226,2.928   l-0.226,3.378l0.113,4.054l2.702-3.49l1.238-2.703L28.6,55.856l0.451-11.035L28.6,36.376l-0.338-7.77L26.01,21.4" />
</g>
<g id="Group_LeftLeg">
	<path fill="#996633" stroke="#4C4C4C" stroke-width="0.25" d="M14.074,63.4l0.676,1.238l0.563,8.67l1.126,11.035l0.225,8.67   l1.577,12.386l-1.126,4.729l0.563,1.126l2.815,1.238h3.603l1.126-1.238l-2.928-5.292V86.37l1.802-21.281l0.676-5.405" />
</g>
<g id="Group_RightLeg">
	<path fill="#996633" stroke="#4C4C4C" stroke-width="0.25" d="M5.134,57.97L4.729,68.017l0.563,15.876L4.729,88.51v17.453   l-1.126,2.928l-1.801,1.801l0.675,1.127h4.617l2.928-2.252l-0.563-3.604l-0.563-2.928l2.927-19.818L14.074,63.4" />
</g>
<g id="Group_RightArm">
	<path fill="#996633" stroke="#4C4C4C" stroke-width="0.25" d="M2.702,24.891l-1.126,5.292v7.432L0.901,43.47L0.563,57.32L0,61.261   l1.126,3.378l2.59,1.801l0.225-4.053l0.113-3.49v-2.252l1.801-14.525l1.014-6.306l0.563-7.544" />
</g>
<g id="Group_Shoes">
	<path stroke="#4C4C4C" stroke-width="0.25" d="M25.785,111.818v-1.127l-1.689-1.801l-1.238-2.928h-3.49l-1.689-1.689v3.49   l-0.563,1.803v1.125l0.563,1.127l2.364,0.675h5.293L25.785,111.818z" />
	<path stroke="#4C4C4C" stroke-width="0.25" d="M1.351,111.818v-1.127l1.689-1.801l1.126-2.928h3.49l1.802-1.689l0.563,4.054   l0.675,1.239l-1.801,1.125l-1.239,1.127l-2.252,0.675H1.802L1.351,111.818z" />
</g>
<g id="Group_Face">
	<path fill="#996633" stroke="#4C4C4C" stroke-width="0.25" d="M19.367,11.379H9.796l-1.238-1.014L7.882,9.24V8.114l0.676-1.239   h12.16l0.563,1.239V9.24l-0.563,1.126L19.367,11.379z" />
	<ellipse fill="#996633" stroke="#4C4C4C" stroke-width="0.25" cx="14.526" cy="8.677" rx="5.742" ry="7.544" />
	<path fill="#663333" d="M14.412,11.267l1.689,0.45h-3.266L14.412,11.267z" />
	<path fill="#E5B2B2" d="M12.836,13.406l-0.45-0.45h4.278l-0.563,0.45H12.836z" />
	<path d="M18.016,6.763L15.2,6.312l0.226,0.451l2.815,0.225L18.016,6.763z" />
	<path d="M10.922,6.763l2.815-0.451l-0.226,0.451l-2.815,0.225L10.922,6.763z" />
	<path d="M12.16,9.127h0.451l0.225-0.676l-0.225-0.676H12.16l-0.225,0.676L12.16,9.127z" />
	<path d="M16.326,9.127h0.563l0.112-0.676L16.89,7.776h-0.563l-0.225,0.676L16.326,9.127z" />
</g>
<g id="Group_HairFront">
	<path fill="#333333" stroke="#4C4C4C" stroke-width="0.25" d="M9.008,8.227l-0.45-1.464L7.882,8.227l0.676-5.18l1.688-1.914   l1.914-1.014l2.252-0.112l2.365,0.112l1.914,1.014l1.688,1.914l0.901,5.18l-0.676-1.464l-0.45,1.464l-1.014-3.829l-1.126-1.914   l0.226,2.365h-7.319l0.226-2.365L9.796,4.398L9.008,8.227z" />
</g>
<g id="Group_LowerBody">
	<path fill="#6666CC" stroke="#4C4C4C" stroke-width="0.25" d="M9.684,105.512h-2.59l-3.04,0.563V83.668l-0.113-8.22L3.49,63.175   l1.464-10.359l1.576-3.829l4.955-0.676l6.305,0.563h5.855l2.252,8.219l-0.225,9.684l-2.027,11.824l0.563,6.867l-1.239,20.043   l-1.351-0.563h-1.914l-1.802,0.563l-2.14-19.142L15.2,77.926l-1.013-12.725l-1.126,12.161l-2.027,13.286L9.684,105.512z" />
	<path fill="#4C4CB2" d="M14.188,64.752l-1.126,11.034l-2.027,14.3l-1.351,13.062L9.12,95.604l0.788-12.949l2.703-11.146l0.45-5.18   v-3.717v-2.139l0.563-9.571v9.009l0.563,3.152l2.026-3.717L15.2,64.188l1.014,5.293l0.563,13.174l0.563,9.571l1.576,4.166   l-1.126,6.756l-1.576-13.062L15.2,76.35L14.188,64.752z" />
</g>
<g id="Group_UpperBody">
	<path fill="#FFFFFF" stroke="#4C4C4C" stroke-width="0.25" d="M5.63,33.899l-5.18-1.238l0.676-5.067l1.351-3.828l2.14-3.378   l4.054-1.239l3.266-1.689l2.139,1.126h2.252l1.577-1.126l6.418,2.252l2.478,1.689l1.576,3.491v2.252l0.676,5.743l-4.729,1.013   l-0.676,10.584v3.828l0.788,1.915H5.63v-1.352l0.676-2.477L5.63,33.899z" />
	<path fill="#E5E5E5" d="M6.531,33.561l0.676,1.577l4.054,1.239l4.054-1.352l7.094,0.901l1.351,1.464l-0.788-4.054l-4.842,1.351   l-2.702-1.126v-3.152l-0.676,3.378L11.034,34.8L6.531,33.561z" />
	<path fill="#E5E5E5" d="M23.42,26.805l0.563,5.743l-0.9,0.788l0.9,3.829l0.112-3.378l1.577-0.338l-0.901-0.563l0.563-4.729   l-0.901,2.252L23.42,26.805z" />
	<path fill="#E5E5E5" d="M4.954,29.508l0.45,3.04l-0.9,0.901l1.576,0.338l0.112,3.04l1.239-10.134L6.08,32.548L4.954,29.508z" />
	<path fill="none" stroke="#4C4C4C" stroke-width="0.25" d="M5.18,35.138l0.675,8.22L4.054,56.419" />
</g>
<g id="Group_Tops">
	<path fill="#006633" stroke="#4C4C4C" stroke-width="0.25" d="M3.603,78.826l9.346,1.238l11.147-0.563l1.914-14.863V51.577   l-1.914-15.539l-3.04-18.016l-0.676-0.675l-0.675,11.147h-9.233L9.796,18.022l-1.238,0.563l-3.04,19.93L4.279,55.293L3.603,78.826z   " />
	<path fill="#004C19" d="M24.096,60.247l-4.278-9.346v4.955l1.802,4.391H24.096z" />
	<path fill="#004C19" d="M5.518,60.247l4.166-9.346v4.955l-1.802,4.391H5.518z" />
	<path fill="#004C19" d="M10.472,36.602h9.233l-0.563,0.563h-8.107L10.472,36.602z" />
</g>
<g id="Group_Label">
	<path fill="#E5E5E5" d="M17.904,30.409h4.391v1.238h-4.391V30.409z" />
	<path fill="none" stroke="#FF0000" stroke-width="0.25" d="M17.904,30.971h4.391" />
</g>
</svg>