<!DOCTYPE svg PUBLIC "-//W3C//DTD SVG 20000303 Stylable//EN" "http://www.w3.org/TR/2000/03/WD-SVG-20000303/DTD/svg-20000303-stylable.dtd"[]><svg xmlns="http://www.w3.org/2000/svg" width="999px" height="444px" viewBox="0 0 999 417"><path style="fill:#f2f2f2;stroke:#4c4c4c;stroke-width:2" d="M218,290 l776,0 0,-286 -776,0 0,286z" /><path style="fill:#fc0;stroke:#4c4c4c;stroke-width:2" d="M178,372 l0,-286 -143,0 -20,122 0,102 -11,0 0,31 21,0 71,31 82,0z" /><path style="fill:#c90;stroke:#4c4c4c;stroke-width:2" d="M40,310 l71,0 67,21 0,41 -82,0 -71,-31 15,-31z" /><path style="fill:none;stroke:#4c4c4c;stroke-width:2" d="M96,310 l0,-224" /><path style="fill:none;stroke:#4c4c4c;stroke-width:2" d="M30,310 l0,-102 66,0" /><path style="fill:none;stroke:#4c4c4c;stroke-width:2" d="M15,310 l25,0" /><path style="fill:#a6bad9" d="M35,101 l51,0 0,92 -66,0 15,-92z" /><path style="fill:none;stroke:#4c4c4c;stroke-width:2" d="M86,101 l-51,0 -15,92" /><path style="fill:none;stroke:#fff;stroke-width:2" d="M20,193 l66,0 0,-92" /><path style="fill:#ccc;stroke:#4c4c4c;stroke-width:2" d="M178,351 l239,0 0,-30 -239,0 0,30z" /><path style="fill:#e5e5cc;stroke:#4c4c4c;stroke-width:2" d="M152,387 l82,0 0,-51 -82,0 0,51z" /><path style="fill:#999;stroke:#4c4c4c;stroke-width:2" d="M244,320 l107,0 0,-20 -107,0 0,20z" /><path style="fill:#999;stroke:#4c4c4c;stroke-width:2" d="M484,300 l321,51 158,0 0,-51 -479,0z" /><path style="fill:#4c4c4c" d="M218,300 l776,0 0,-10 -776,0 0,10z" /><circle style="fill:#4c4c4c;stroke:#4c4c4c;stroke-width:2" cx="942" cy="361" r="51" /><circle style="fill:#4c4c4c;stroke:#4c4c4c;stroke-width:2" cx="820" cy="361" r="51" /><circle style="fill:#4c4c4c;stroke:#4c4c4c;stroke-width:2" cx="412" cy="361" r="51" /><circle style="fill:#4c4c4c;stroke:#4c4c4c;stroke-width:2" cx="290" cy="361" r="51" /><circle style="fill:#4c4c4c;stroke:#4c4c4c;stroke-width:2" cx="76" cy="361" r="51" /><circle style="fill:#e5e5e5" cx="942" cy="361" r="25" /><circle style="fill:#e5e5e5" cx="820" cy="361" r="25" /><circle style="fill:#e5e5e5" cx="412" cy="361" r="25" /><circle style="fill:#e5e5e5" cx="289" cy="361" r="25" /><circle style="fill:#e5e5e5" cx="75" cy="361" r="25" /></svg>