<!DOCTYPE svg PUBLIC "-//W3C//DTD SVG 20000303 Stylable//EN" "http://www.w3.org/TR/2000/03/WD-SVG-20000303/DTD/svg-20000303-stylable.dtd"[]><svg xmlns="http://www.w3.org/2000/svg" width="999px" height="331px" viewBox="0 0 999 291"><path style="fill:#fff;stroke:#4c4c4c;stroke-width:2" d="M327,195 l-54,0 0,-195 726,0 0,195 -672,0z" /><path style="fill:#000;stroke:#4c4c4c;stroke-width:2" d="M370,206 l0,-11 -43,0 0,8 43,3z" /><path style="fill:#000;stroke:#4c4c4c;stroke-width:2" d="M637,222 l120,0 4,-4 4,-3 5,-3 4,-2 5,-2 5,-1 5,0 5,0 5,0 5,1 4,2 5,2 4,2 4,4 4,3 3,4 3,4 3,4 0,1 1,0 3,-5 3,-4 3,-4 4,-3 4,-4 4,-2 5,-2 5,-2 5,-1 5,0 4,0 5,0 5,1 5,2 4,2 5,2 4,4 4,4 11,0 0,55 4,0 0,-55 56,0 0,29 6,0 1,-56 -353,0 0,27z" /><path style="fill:#000;stroke:#4c4c4c;stroke-width:2" d="M447,280 l3,0 0,-59 -14,0 4,4 3,4 2,5 2,5 0,41z" /><path style="fill:#000;stroke:#4c4c4c;stroke-width:2" d="M381,207 l0,5 -5,3 -4,3 -3,4 -3,3 -3,5 -3,4 -1,4 -1,-4 -2,-4 -4,-5 -3,-3 -3,-4 -4,-3 -5,-2 -5,-3 -4,-1 -5,-1 -5,-1 -5,0 0,-5 68,5z" /><circle style="fill:#fff;stroke:#4c4c4c;stroke-width:2" cx="87" cy="252" r="20" /><circle style="fill:#000;stroke:#4c4c4c;stroke-width:2" cx="87" cy="252" r="7" /><path style="fill:#000;stroke:#4c4c4c;stroke-width:2" d="M107,252 l0,3 -1,3 -1,3 -2,3 -2,3 -3,1 -3,2 -3,1 -3,1 -3,0 -4,-1 -3,-1 -3,-1 -2,-2 -3,-3 -1,-3 -2,-2 0,-3 -1,-4 0,-3 1,-3 1,-3 2,-3 2,-2 3,-2 3,-2 3,-1 3,0 3,0 4,0 3,1 3,2 2,2 3,2 1,3 2,3 1,3 0,3 19,0 -1,-4 -1,-5 -1,-4 -2,-5 -2,-4 -3,-3 -3,-4 -4,-2 -4,-3 -4,-2 -4,-1 -5,-1 -9,0 -4,0 -5,1 -4,2 -4,3 -3,2 -4,3 -3,4 -2,4 -3,4 -1,4 -1,5 -1,4 1,5 0,4 1,5 2,4 2,4 2,4 4,3 3,3 4,3 4,2 4,2 5,1 4,1 5,0 4,-1 5,-1 4,-1 4,-2 4,-3 4,-3 3,-3 2,-4 3,-4 1,-4 2,-5 0,-4 1,-4 -19,0z" /><circle style="fill:#fff;stroke:#4c4c4c;stroke-width:2" cx="316" cy="252" r="19" /><circle style="fill:#000;stroke:#4c4c4c;stroke-width:2" cx="316" cy="253" r="6" /><path style="fill:#000;stroke:#4c4c4c;stroke-width:2" d="M336,253 l0,3 0,3 -2,3 -1,3 -3,2 -2,2 -3,2 -3,1 -3,0 -3,0 -4,0 -3,-1 -3,-1 -3,-2 -2,-3 -2,-3 -1,-3 -1,-3 0,-3 0,-3 1,-3 1,-4 2,-2 2,-2 3,-3 2,-1 4,-1 3,-1 3,0 3,1 4,1 2,1 3,3 2,2 2,3 1,3 1,3 0,3 19,0 0,-5 -1,-4 -2,-5 -1,-4 -3,-4 -2,-4 -4,-3 -3,-2 -4,-3 -4,-2 -4,-1 -5,-1 -9,0 -5,0 -4,1 -4,2 -4,3 -4,2 -3,3 -3,3 -3,4 -2,5 -1,4 -1,4 -1,5 0,5 1,4 1,5 2,4 2,4 2,4 3,3 4,3 4,3 4,2 4,2 4,1 5,0 4,0 5,0 4,-1 5,-2 4,-2 3,-2 4,-3 3,-4 3,-3 2,-4 2,-5 1,-4 1,-4 0,-4 -19,0z" /><circle style="fill:#fff;stroke:#4c4c4c;stroke-width:2" cx="403" cy="251" r="20" /><circle style="fill:#000;stroke:#4c4c4c;stroke-width:2" cx="403" cy="252" r="7" /><path style="fill:#000;stroke:#4c4c4c;stroke-width:2" d="M423,252 l0,3 -1,3 -1,3 -2,3 -2,2 -3,2 -3,2 -3,1 -3,0 -3,0 -4,0 -3,-1 -3,-1 -2,-2 -3,-3 -1,-3 -2,-3 0,-3 -1,-3 0,-3 1,-3 1,-3 2,-3 2,-2 3,-2 3,-2 3,-1 3,-1 3,0 4,1 3,1 3,2 2,2 3,2 1,3 2,3 1,3 0,3 18,0 0,-4 -1,-5 -1,-4 -2,-5 -3,-4 -2,-3 -3,-4 -4,-2 -4,-3 -4,-2 -4,-1 -5,-1 -9,0 -4,0 -5,1 -4,2 -4,3 -3,2 -4,3 -3,4 -2,4 -3,4 -1,4 -1,4 -1,5 1,5 0,4 1,5 2,4 2,4 2,4 4,3 3,3 4,3 4,2 4,2 5,1 4,0 5,0 4,0 5,-1 4,-2 4,-2 4,-2 3,-3 3,-4 3,-3 3,-4 1,-5 1,-4 1,-4 0,-4 -18,0z" /><circle style="fill:#fff;stroke:#4c4c4c;stroke-width:2" cx="878" cy="251" r="20" /><circle style="fill:#000;stroke:#4c4c4c;stroke-width:2" cx="878" cy="252" r="7" /><path style="fill:#000;stroke:#4c4c4c;stroke-width:2" d="M898,252 l0,3 -1,3 -1,3 -2,3 -2,2 -2,2 -3,2 -4,1 -3,0 -3,0 -3,0 -3,-1 -3,-1 -3,-2 -2,-3 -2,-3 -1,-3 -1,-3 -1,-3 1,-3 0,-3 2,-3 2,-3 2,-2 2,-2 3,-2 3,-1 3,-1 4,0 3,1 3,1 3,2 3,2 2,2 2,3 1,3 1,3 0,3 19,0 -1,-4 -1,-5 -1,-4 -2,-5 -2,-4 -3,-3 -3,-4 -4,-2 -3,-3 -4,-2 -5,-1 -4,-1 -9,0 -5,0 -4,1 -5,2 -4,3 -3,2 -4,3 -3,4 -2,4 -2,4 -2,4 -1,4 0,5 0,5 1,4 1,5 1,4 2,4 3,4 3,3 3,3 4,3 4,2 5,2 4,1 5,0 4,0 5,0 4,-1 4,-2 4,-2 4,-2 4,-3 3,-4 2,-3 3,-4 1,-5 2,-4 0,-4 1,-4 -19,0z" /><circle style="fill:#fff;stroke:#4c4c4c;stroke-width:2" cx="792" cy="253" r="19" /><circle style="fill:#000;stroke:#4c4c4c;stroke-width:2" cx="792" cy="253" r="6" /><path style="fill:#000;stroke:#4c4c4c;stroke-width:2" d="M812,253 l0,3 0,3 -2,3 -1,3 -3,3 -2,1 -3,2 -3,1 -3,0 -3,1 -4,-1 -3,-1 -3,-1 -3,-2 -2,-3 -2,-3 -1,-3 -1,-2 0,-4 0,-3 1,-3 1,-3 2,-3 2,-2 3,-2 2,-2 4,-1 3,-1 3,0 3,1 4,1 2,2 3,2 2,2 2,3 1,3 1,3 0,3 19,0 0,-4 -1,-5 -2,-4 -1,-5 -3,-4 -2,-3 -4,-4 -3,-2 -4,-3 -4,-2 -4,-1 -5,-1 -9,0 -5,0 -4,1 -4,2 -4,3 -4,2 -3,3 -3,4 -3,4 -2,4 -1,4 -1,5 -1,4 0,5 1,4 1,5 2,4 2,4 2,4 3,3 4,3 4,3 4,2 4,2 4,1 5,-1 4,0 5,1 4,-1 5,-2 4,-2 4,-2 3,-3 3,-4 3,-3 2,-4 2,-4 1,-5 1,-4 0,-4 -19,0z" /><path style="fill:#000;stroke:#4c4c4c;stroke-width:2" d="M263,249 l-7,0 0,-27 18,0 -3,5 -3,6 -2,6 -2,6 -1,4 0,0z" /><path style="fill:#000;stroke:#4c4c4c;stroke-width:2" d="M290,208 l-3,1 -5,4 -4,4 -4,5 -3,5 -3,6 -2,6 -2,6 -1,4 0,5 5,-1 1,-4 1,-5 2,-5 1,-5 3,-4 2,-4 4,-4 4,-4 4,-3 0,0 0,-7z" /><path style="fill:#e3e3e3;stroke:#4c4c4c;stroke-width:2" d="M242,256 l0,-39 14,0 0,39 -14,0z" /><path style="fill:#e3e3e3;stroke:#4c4c4c;stroke-width:2" d="M192,256 l0,-39 14,0 0,39 -14,0z" /><path style="fill:#e3e3e3;stroke:#4c4c4c;stroke-width:2" d="M209,256 l0,-39 30,0 0,39 -30,0z" /><path style="fill:#e3e3e3;stroke:#4c4c4c;stroke-width:2" d="M141,256 l0,-26 45,0 0,26 -45,0z" /><path style="fill:#e3e3e3;stroke:#4c4c4c;stroke-width:2" d="M141,224 l0,-6 45,0 0,6 -45,0z" /><path style="fill:#f00;stroke:#4c4c4c;stroke-width:2" d="M156,101 l32,0 0,-22 1,-4 1,-3 1,-3 2,-3 2,-2 2,-2 3,-1 3,-2 0,12 -3,2 -1,1 0,2 -1,2 0,21 45,0 0,-98 -4,1 -3,2 -3,2 -77,95z" /><path style="fill:#e3e3e3;stroke:#4c4c4c;stroke-width:2" d="M198,105 l0,20 3,0 0,74 -4,0 0,15 -8,0 0,-15 -4,0 0,-74 3,0 0,-46 1,-4 1,-3 1,-3 2,-3 2,-2 2,-2 3,-1 3,-2 0,12 -3,2 -1,1 0,2 -1,2 0,27z" /><path style="fill:#e3e3e3;stroke:#4c4c4c;stroke-width:2" d="M25,234 l-25,-3 0,26 25,4 0,-27z" /><path style="fill:#f00;stroke:#4c4c4c;stroke-width:2" d="M189,214 l0,-15 -4,0 0,-74 3,0 0,-21 -40,0 0,-3 -3,0 0,-3 -8,0 0,5 -8,2 -9,4 5,2 9,0 -8,35 8,0 7,-29 33,0 0,29 -49,0 -17,2 -20,3 -20,3 -21,5 -21,6 -20,6 0,60 36,6 1,-4 1,-4 2,-3 2,-3 1,-3 2,-3 3,-3 2,-3 3,-2 4,-2 3,-2 3,-2 3,-1 4,-1 3,-1 4,0 7,0 4,0 4,1 3,1 4,1 3,2 3,2 3,2 3,3 3,2 2,3 2,3 2,3 2,3 1,4 1,3 1,4 7,0 0,25 3,0 0,-44 45,0 0,6 -45,0 0,6 45,0 0,17 6,0 0,-30 14,0 0,39 3,0 0,-39 29,0 0,39 4,0 0,-39 4,0 0,-107 -2,-2 -2,-2 -3,-1 -41,0 0,20 3,0 0,74 -4,0 0,15 -8,0z" /></svg>