<!DOCTYPE svg PUBLIC "-//W3C//DTD SVG 20000303 Stylable//EN" "http://www.w3.org/TR/2000/03/WD-SVG-20000303/DTD/svg-20000303-stylable.dtd"[]><svg xmlns="http://www.w3.org/2000/svg" width="999px" height="426px" viewBox="0 0 999 392"><path style="fill:#f2f2f2;stroke:#4c4c4c;stroke-width:2" d="M187,276 l0,-187 -125,0 -45,80 -9,80 0,27 179,0z" /><circle style="fill:#000" cx="61" cy="338" r="53" /><circle style="fill:#fff" cx="61" cy="338" r="26" /><path style="fill:none;stroke:#4c4c4c;stroke-width:2" d="M8,249 l99,0 17,-18 0,-134" /><path style="fill:none;stroke:#4c4c4c;stroke-width:2" d="M187,97 l-130,1" /><path style="fill:none;stroke:#4c4c4c;stroke-width:2" d="M26,160 l161,0" /><path style="fill:none;stroke:#4c4c4c;stroke-width:2" d="M53,249 l0,-89 18,-63" /><path style="fill:none;stroke:#4c4c4c;stroke-width:2" d="M138,111 l0,36 35,0 0,-36 -35,0" /><path style="fill:#f2f2f2;stroke:#4c4c4c;stroke-width:2" d="M123,352 l28,0 0,-76 -143,0 -8,13 13,9 2,-2 3,-2 2,-2 3,-2 2,-1 3,-2 3,-1 3,-1 3,-1 3,-1 3,-1 4,0 3,-1 3,0 4,-1 3,0 6,1 7,1 6,1 6,2 5,2 6,3 5,3 4,4 4,4 4,4 4,5 2,5 2,5 2,5 1,6 0,5 0,2 0,2 0,2 0,2 -1,2 0,2 0,2 0,2z" /><path style="fill:#000" d="M187,276 l0,-31 13,0 0,-121 5,-4 0,-71 9,0 0,71 4,4 0,121 13,0 0,31 -44,0z" /><path style="fill:#000" d="M178,178 l0,53 -45,0 0,-53 45,0z" /><path style="fill:#000" d="M209,285 l0,85 -76,0 0,-85 18,0 0,-9 40,0 0,9 18,0z" /><path style="fill:#000" d="M954,285 l13,0 0,94 -13,0 0,-94z" /><path style="fill:#000" d="M758,285 l-18,13 -304,0 27,45 -4,13 -36,-58 -13,-13 348,0z" /><circle style="fill:#000" cx="271" cy="338" r="53" /><circle style="fill:#fff" cx="271" cy="338" r="26" /><circle style="fill:#000" cx="378" cy="338" r="53" /><circle style="fill:#fff" cx="378" cy="338" r="26" /><path style="fill:#f2f2f2;stroke:#4c4c4c;stroke-width:2" d="M232,0 l767,0 0,276 -767,0 0,-276z" /><circle style="fill:#000" cx="784" cy="338" r="53" /><circle style="fill:#fff" cx="784" cy="338" r="26" /><circle style="fill:#000" cx="891" cy="338" r="53" /><circle style="fill:#fff" cx="891" cy="338" r="26" /></svg>