<!DOCTYPE svg PUBLIC "-//W3C//DTD SVG 20000303 Stylable//EN" "http://www.w3.org/TR/2000/03/WD-SVG-20000303/DTD/svg-20000303-stylable.dtd"[]><svg xmlns="http://www.w3.org/2000/svg" width="999px" height="990px" viewBox="0 0 999 990"><path style="fill:#808080;stroke:#4c4c4c;stroke-width:2" d="M0,491 l44,-12 -44,-167 69,12 104,135 14,0 13,0 14,0 13,0 13,0 13,0 13,0 13,0 12,0 13,0 12,0 12,0 12,0 11,0 12,0 11,0 21,-1 18,-3 16,-4 13,-6 9,-8 7,-10 5,-12 1,-13 0,-10 -1,-10 -1,-11 -2,-11 -3,-12 -2,-13 -4,-13 -4,-14 -4,-14 -5,-15 -6,-15 -6,-16 -7,-17 -7,-17 -8,-17 -8,-18 -8,-18 -8,-17 -8,-16 -7,-15 -6,-15 -6,-13 -6,-13 -5,-11 -5,-11 -5,-10 -4,-9 -4,-8 -3,-7 -3,-6 -2,-6 -2,-4 6,0 6,0 6,0 6,0 6,0 6,0 5,0 5,0 6,0 6,0 5,1 6,2 5,3 5,3 5,4 5,5 5,5 5,5 5,6 5,5 4,6 4,6 4,6 4,6 4,6 4,6 5,6 4,5 5,6 5,6 5,6 5,6 4,0 4,0 6,0 6,0 7,1 8,0 9,0 10,0 10,0 8,1 7,2 6,2 5,3 3,4 2,5 1,5 -1,12 -5,9 -6,5 -9,2 -5,0 -5,0 -5,0 -5,0 -4,1 -5,0 -4,0 -4,0 65,93 4,0 4,0 5,-1 7,0 7,-1 8,0 9,-1 10,0 11,0 9,0 8,1 6,2 5,3 4,3 3,4 1,5 0,7 -1,6 -2,5 -2,4 -3,3 -4,3 -5,1 -5,1 -5,1 -5,0 -6,1 -5,1 -5,0 -4,1 -5,0 -4,0 103,134 5,0 8,0 12,1 16,0 20,0 24,1 28,0 32,0 31,1 27,3 22,4 19,6 14,8 11,9 6,11 2,12 -2,10 -6,9 -10,9 -14,6 -18,6 -22,4 -26,3 -30,2 -30,1 -27,0 -24,1 -20,0 -18,1 -13,0 -10,0 -7,0 -103,135 7,1 6,1 5,1 5,0 6,1 6,1 7,2 7,2 8,4 5,5 2,8 0,8 -1,4 -2,3 -4,3 -4,3 -5,2 -5,1 -7,1 -7,0 -4,0 -4,0 -4,0 -4,-1 -4,0 -4,0 -5,0 -4,0 -4,0 -5,0 -4,-1 -4,0 -5,0 -4,-1 -4,0 -4,0 -70,96 35,3 7,1 7,2 5,2 4,3 3,4 3,4 1,5 0,6 -2,6 -4,4 -5,4 -7,3 -8,2 -11,2 -12,0 -13,0 -38,-2 -3,1 -4,2 -4,4 -5,5 -5,6 -6,8 -6,9 -6,11 -7,11 -6,9 -6,9 -5,7 -5,7 -4,5 -4,4 -4,3 -4,4 -4,3 -5,3 -4,2 -5,1 -6,1 -5,1 -6,0 -6,0 -5,-1 -6,0 -6,0 -5,-1 -5,0 -5,0 -5,0 10,-22 10,-21 9,-20 9,-20 10,-20 9,-19 9,-19 8,-18 9,-18 8,-18 8,-17 8,-17 8,-16 8,-16 8,-15 7,-15 13,-28 9,-26 5,-22 1,-20 -3,-17 -6,-14 -11,-11 -14,-9 -10,-4 -11,-4 -12,-4 -13,-3 -15,-2 -15,-2 -17,-1 -18,-1 -9,0 -9,-1 -10,0 -9,0 -10,-1 -10,0 -10,0 -10,0 -11,0 -10,-1 -11,0 -11,0 -11,0 -11,0 -11,0 -11,0 -102,133 -69,12 44,-165 -44,-15z" /></svg>