<!DOCTYPE svg PUBLIC "-//W3C//DTD SVG 20000303 Stylable//EN" "http://www.w3.org/TR/2000/03/WD-SVG-20000303/DTD/svg-20000303-stylable.dtd"[]><svg xmlns="http://www.w3.org/2000/svg" width="904px" height="999px" viewBox="0 0 899 999"><path style="fill:#00f;stroke:#4c4c4c;stroke-width:2" d="M399,585 l-399,147 0,-102 399,-252 0,-340 0,-4 0,-4 2,-4 1,-4 2,-3 3,-3 3,-3 3,-3 3,-2 4,-2 4,-2 4,-2 3,-1 5,-1 4,0 5,0 4,0 5,0 5,1 4,1 5,2 3,2 4,2 4,2 3,3 3,3 3,3 1,4 2,4 1,4 1,5 0,5 0,337 406,252 0,102 -406,-147 0,260 92,70 0,84 -140,-65 -138,65 0,-84 92,-70 0,-260z" /></svg>