<!DOCTYPE svg PUBLIC "-//W3C//DTD SVG 20000303 Stylable//EN" "http://www.w3.org/TR/2000/03/WD-SVG-20000303/DTD/svg-20000303-stylable.dtd"[]><svg xmlns="http://www.w3.org/2000/svg" width="999px" height="577px" viewBox="0 0 999 552"><path style="fill:#ff0;fill-rule:evenodd" d="M356,115 l112,192 9,-1 9,0 8,0 8,1 7,2 8,3 8,5 9,6 201,-208 -379,0z M362,321 l86,-6 -108,-190 -61,86 7,5 8,5 7,5 6,6 7,5 6,7 6,6 5,6 5,7 4,7 5,8 4,7 4,9 3,8 3,9 3,10z M340,323 l-2,-9 -3,-7 -3,-8 -3,-7 -4,-7 -4,-6 -5,-7 -5,-6 -4,-5 -5,-6 -6,-4 -6,-5 -5,-5 -6,-4 -6,-3 -7,-3 -61,92 2,1 3,2 2,1 3,2 125,-6z M338,417 l-120,-15 -10,8 -12,5 -12,1 -12,-2 -11,-5 -9,-6 -8,-9 -5,-12 -2,-12 1,-12 3,-11 7,-10 8,-8 10,-6 12,-3 13,-1 60,-96 -11,-6 -10,-4 -9,-3 -9,-2 -8,-2 -10,0 -10,0 -11,1 -17,2 -16,3 -15,5 -14,6 -14,8 -12,9 -12,10 -11,11 -9,12 -9,13 -7,14 -5,14 -5,14 -2,16 -2,15 0,16 3,17 3,16 5,15 6,15 7,14 9,13 10,12 11,11 11,10 14,8 13,8 14,5 15,5 16,3 16,1 17,0 13,-1 12,-2 12,-3 11,-4 12,-4 10,-6 11,-6 9,-6 10,-8 8,-8 8,-9 8,-10 7,-10 5,-11 5,-11 4,-12z M343,404 l1,-7 1,-9 1,-9 0,-9 0,-9 0,-9 -2,-8 -1,-9 -120,3 4,6 3,5 2,7 1,7 0,8 -1,7 -3,8 -4,9 118,9z M364,406 l68,6 -3,-3 -2,-4 -3,-4 -2,-4 -1,-5 -1,-5 -1,-6 0,-5 0,-6 0,-6 1,-5 1,-6 2,-6 3,-5 2,-6 4,-5 -66,2 1,10 1,9 0,9 0,9 0,9 -1,9 -1,9 -2,9z M789,338 l-4,-6 -3,-6 -4,-6 -4,-7 -3,-6 -3,-7 -2,-7 -3,-8 -2,-7 -3,-7 -2,-9 -2,-8 -2,-8 -2,-9 -2,-9 -1,-9 -12,6 -11,7 -11,8 -10,9 -9,10 -8,10 -7,11 -7,10 -5,12 -5,11 -4,11 -4,11 -2,11 -1,11 0,10 0,10 2,17 4,16 5,15 7,15 8,14 9,13 10,11 12,11 12,10 13,8 14,8 15,6 15,4 16,3 16,2 16,0 16,-2 15,-4 15,-5 14,-6 14,-8 13,-9 11,-10 11,-11 10,-11 9,-13 7,-14 6,-15 4,-15 3,-16 2,-17 0,-17 -5,-26 -7,-24 -9,-20 -12,-17 -12,-16 -15,-13 -15,-10 -15,-8 -17,-7 -16,-5 -16,-3 -16,-1 -14,0 -14,1 -12,2 -11,3 1,9 2,8 1,7 2,8 1,8 2,7 2,7 2,7 2,7 2,6 3,8 2,6 3,7 3,7 4,7 4,7 8,-1 7,0 6,1 6,3 5,3 5,3 3,5 4,4 4,7 3,7 1,9 -1,8 -2,7 -4,8 -5,6 -6,5 -10,5 -10,1 -9,0 -9,-3 -7,-4 -6,-5 -5,-5 -4,-7 -3,-6 -2,-7 0,-7 2,-7 2,-6 3,-6 4,-5 4,-4z M747,21 l0,17 0,14 1,11 1,11 1,8 1,6 1,4 1,3 12,94 15,-4 16,-2 17,0 18,1 18,3 19,5 19,7 18,9 17,10 17,13 15,15 13,17 12,19 9,21 6,24 5,26 0,19 -2,19 -4,18 -5,18 -6,17 -9,16 -9,15 -11,14 -13,13 -13,12 -15,10 -16,9 -16,7 -18,6 -18,4 -19,2 -18,0 -19,-2 -18,-3 -17,-5 -16,-7 -16,-9 -15,-9 -14,-12 -13,-12 -11,-14 -10,-14 -10,-16 -7,-17 -5,-17 -5,-19 -2,-19 0,-13 1,-13 2,-14 4,-13 4,-14 5,-13 6,-13 7,-13 8,-12 9,-11 10,-12 10,-9 12,-10 12,-8 13,-6 13,-6 -1,-7 -1,-7 -1,-8 -1,-7 -1,-7 -1,-7 -1,-5 -1,-6 -191,197 4,13 2,12 0,11 -1,10 -2,10 -3,7 -3,7 -3,5 -3,2 -4,3 -4,3 -5,3 -5,3 -5,2 -6,2 -6,2 -7,2 -6,0 -7,1 -7,-1 -7,-1 -8,-2 -7,-4 -7,-4 -86,-7 -4,13 -4,13 -6,12 -8,12 -8,11 -8,11 -10,10 -11,9 -12,8 -11,8 -14,7 -13,6 -14,5 -15,3 -15,3 -16,2 -18,0 -19,-2 -17,-3 -18,-6 -16,-7 -15,-8 -14,-10 -14,-12 -13,-12 -11,-14 -10,-15 -8,-16 -7,-17 -6,-18 -3,-18 -2,-19 0,-18 2,-17 3,-17 6,-16 6,-17 9,-14 9,-15 11,-13 13,-13 13,-11 15,-10 15,-9 16,-7 18,-6 18,-4 19,-3 6,0 7,0 6,0 6,0 6,0 6,1 6,1 6,0 5,2 6,1 5,1 6,2 5,3 5,2 5,2 5,3 60,-96 0,-12 -4,-8 -6,-4 -8,-2 -9,-1 -12,1 -13,0 -14,-1 -6,-3 -4,-5 -2,-6 0,-7 2,-8 4,-8 7,-6 10,-5 4,-1 5,-1 6,1 6,0 6,2 6,1 6,1 6,1 5,0 5,1 7,0 8,0 9,1 8,0 10,0 9,1 8,1 8,1 7,2 5,1 4,3 1,3 0,4 -4,4 -13,9 -12,5 -10,3 -8,1 -6,2 -2,3 0,7 3,12 375,0 -10,-94 5,-1 3,0 4,-1 3,0 3,-1 3,0 5,-1 6,0 4,0 4,-1 5,0 6,-1 6,0 8,0 6,0 7,0 8,1 6,2 6,2 6,3 5,5 4,5 3,6 2,8 -1,17 -5,13 -8,10 -10,7 -9,3 -9,1 -7,-3 -3,-4 1,-4 4,-2 5,-2 7,-1 7,-3 5,-4 4,-6 1,-11 -4,-13 -7,-9 -11,-4 -12,-2 -13,1 -11,2 -10,2 -6,1z " /><path style="fill:none;stroke:#4c4c4c;stroke-width:2" d="M356,115 l112,192 9,-1 9,0 8,0 8,1 7,2 8,3 8,5 9,6 201,-208 -379,0" /><path style="fill:none;stroke:#4c4c4c;stroke-width:2" d="M362,321 l86,-6 -108,-190 -61,86 7,5 8,5 7,5 6,6 7,5 6,7 6,6 5,6 5,7 4,7 5,8 4,7 4,9 3,8 3,9 3,10" /><path style="fill:none;stroke:#4c4c4c;stroke-width:2" d="M340,323 l-2,-9 -3,-7 -3,-8 -3,-7 -4,-7 -4,-6 -5,-7 -5,-6 -4,-5 -5,-6 -6,-4 -6,-5 -5,-5 -6,-4 -6,-3 -7,-3 -61,92 2,1 3,2 2,1 3,2 125,-6" /><path style="fill:none;stroke:#4c4c4c;stroke-width:2" d="M338,417 l-120,-15 -10,8 -12,5 -12,1 -12,-2 -11,-5 -9,-6 -8,-9 -5,-12 -2,-12 1,-12 3,-11 7,-10 8,-8 10,-6 12,-3 13,-1 60,-96 -11,-6 -10,-4 -9,-3 -9,-2 -8,-2 -10,0 -10,0 -11,1 -17,2 -16,3 -15,5 -14,6 -14,8 -12,9 -12,10 -11,11 -9,12 -9,13 -7,14 -5,14 -5,14 -2,16 -2,15 0,16 3,17 3,16 5,15 6,15 7,14 9,13 10,12 11,11 11,10 14,8 13,8 14,5 15,5 16,3 16,1 17,0 13,-1 12,-2 12,-3 11,-4 12,-4 10,-6 11,-6 9,-6 10,-8 8,-8 8,-9 8,-10 7,-10 5,-11 5,-11 4,-12" /><path style="fill:none;stroke:#4c4c4c;stroke-width:2" d="M343,404 l1,-7 1,-9 1,-9 0,-9 0,-9 0,-9 -2,-8 -1,-9 -120,3 4,6 3,5 2,7 1,7 0,8 -1,7 -3,8 -4,9 118,9" /><path style="fill:none;stroke:#4c4c4c;stroke-width:2" d="M364,406 l68,6 -3,-3 -2,-4 -3,-4 -2,-4 -1,-5 -1,-5 -1,-6 0,-5 0,-6 0,-6 1,-5 1,-6 2,-6 3,-5 2,-6 4,-5 -66,2 1,10 1,9 0,9 0,9 0,9 -1,9 -1,9 -2,9" /><path style="fill:none;stroke:#4c4c4c;stroke-width:2" d="M789,338 l-4,-6 -3,-6 -4,-6 -4,-7 -3,-6 -3,-7 -2,-7 -3,-8 -2,-7 -3,-7 -2,-9 -2,-8 -2,-8 -2,-9 -2,-9 -1,-9 -12,6 -11,7 -11,8 -10,9 -9,10 -8,10 -7,11 -7,10 -5,12 -5,11 -4,11 -4,11 -2,11 -1,11 0,10 0,10 2,17 4,16 5,15 7,15 8,14 9,13 10,11 12,11 12,10 13,8 14,8 15,6 15,4 16,3 16,2 16,0 16,-2 15,-4 15,-5 14,-6 14,-8 13,-9 11,-10 11,-11 10,-11 9,-13 7,-14 6,-15 4,-15 3,-16 2,-17 0,-17 -5,-26 -7,-24 -9,-20 -12,-17 -12,-16 -15,-13 -15,-10 -15,-8 -17,-7 -16,-5 -16,-3 -16,-1 -14,0 -14,1 -12,2 -11,3 1,9 2,8 1,7 2,8 1,8 2,7 2,7 2,7 2,7 2,6 3,8 2,6 3,7 3,7 4,7 4,7 8,-1 7,0 6,1 6,3 5,3 5,3 3,5 4,4 4,7 3,7 1,9 -1,8 -2,7 -4,8 -5,6 -6,5 -10,5 -10,1 -9,0 -9,-3 -7,-4 -6,-5 -5,-5 -4,-7 -3,-6 -2,-7 0,-7 2,-7 2,-6 3,-6 4,-5 4,-4" /><path style="fill:none;stroke:#4c4c4c;stroke-width:2" d="M747,21 l0,17 0,14 1,11 1,11 1,8 1,6 1,4 1,3 12,94 15,-4 16,-2 17,0 18,1 18,3 19,5 19,7 18,9 17,10 17,13 15,15 13,17 12,19 9,21 6,24 5,26 0,19 -2,19 -4,18 -5,18 -6,17 -9,16 -9,15 -11,14 -13,13 -13,12 -15,10 -16,9 -16,7 -18,6 -18,4 -19,2 -18,0 -19,-2 -18,-3 -17,-5 -16,-7 -16,-9 -15,-9 -14,-12 -13,-12 -11,-14 -10,-14 -10,-16 -7,-17 -5,-17 -5,-19 -2,-19 0,-13 1,-13 2,-14 4,-13 4,-14 5,-13 6,-13 7,-13 8,-12 9,-11 10,-12 10,-9 12,-10 12,-8 13,-6 13,-6 -1,-7 -1,-7 -1,-8 -1,-7 -1,-7 -1,-7 -1,-5 -1,-6 -191,197 4,13 2,12 0,11 -1,10 -2,10 -3,7 -3,7 -3,5 -3,2 -4,3 -4,3 -5,3 -5,3 -5,2 -6,2 -6,2 -7,2 -6,0 -7,1 -7,-1 -7,-1 -8,-2 -7,-4 -7,-4 -86,-7 -4,13 -4,13 -6,12 -8,12 -8,11 -8,11 -10,10 -11,9 -12,8 -11,8 -14,7 -13,6 -14,5 -15,3 -15,3 -16,2 -18,0 -19,-2 -17,-3 -18,-6 -16,-7 -15,-8 -14,-10 -14,-12 -13,-12 -11,-14 -10,-15 -8,-16 -7,-17 -6,-18 -3,-18 -2,-19 0,-18 2,-17 3,-17 6,-16 6,-17 9,-14 9,-15 11,-13 13,-13 13,-11 15,-10 15,-9 16,-7 18,-6 18,-4 19,-3 6,0 7,0 6,0 6,0 6,0 6,1 6,1 6,0 5,2 6,1 5,1 6,2 5,3 5,2 5,2 5,3 60,-96 0,-12 -4,-8 -6,-4 -8,-2 -9,-1 -12,1 -13,0 -14,-1 -6,-3 -4,-5 -2,-6 0,-7 2,-8 4,-8 7,-6 10,-5 4,-1 5,-1 6,1 6,0 6,2 6,1 6,1 6,1 5,0 5,1 7,0 8,0 9,1 8,0 10,0 9,1 8,1 8,1 7,2 5,1 4,3 1,3 0,4 -4,4 -13,9 -12,5 -10,3 -8,1 -6,2 -2,3 0,7 3,12 375,0 -10,-94 5,-1 3,0 4,-1 3,0 3,-1 3,0 5,-1 6,0 4,0 4,-1 5,0 6,-1 6,0 8,0 6,0 7,0 8,1 6,2 6,2 6,3 5,5 4,5 3,6 2,8 -1,17 -5,13 -8,10 -10,7 -9,3 -9,1 -7,-3 -3,-4 1,-4 4,-2 5,-2 7,-1 7,-3 5,-4 4,-6 1,-11 -4,-13 -7,-9 -11,-4 -12,-2 -13,1 -11,2 -10,2 -6,1" /></svg>