<!DOCTYPE svg PUBLIC "-//W3C//DTD SVG 20000303 Stylable//EN" "http://www.w3.org/TR/2000/03/WD-SVG-20000303/DTD/svg-20000303-stylable.dtd"[]><svg xmlns="http://www.w3.org/2000/svg" width="999px" height="401px" viewBox="0 0 999 365"><path style="fill:#f00;stroke:#4c4c4c;stroke-width:2" d="M661,0 l180,79 12,-2 13,-2 12,-2 11,-1 11,-2 11,-1 10,-1 10,-1 9,-1 8,0 8,-1 7,0 6,0 6,0 5,0 3,0 -12,51 28,16 0,113 -143,61 -2,10 -4,9 -5,9 -8,8 -9,8 -10,6 -11,5 -12,3 -13,1 -12,0 -13,-3 -13,-5 -12,-8 -12,-11 -10,-13 -10,-17 -431,0 -6,12 -6,11 -9,10 -9,8 -10,6 -11,5 -12,4 -12,1 -12,0 -12,-1 -11,-4 -11,-5 -11,-8 -9,-9 -8,-11 -7,-14 -71,0 -3,-1 -2,-2 -3,-2 -1,-2 -2,-2 -1,-3 -1,-2 0,-3 -3,-5 -2,-4 -4,-4 -3,-4 -4,-4 -3,-3 -5,-3 -4,-2 -1,-32 0,-4 3,0 4,1 4,-2 18,-51 103,-28 12,-29 16,-3 15,-2 14,-3 14,-2 12,-1 12,-2 11,-1 10,0 9,-1 8,0 7,-1 6,0 4,0 4,0 2,0 0,0 6,-2 8,-4 10,-6 12,-6 13,-8 15,-8 15,-9 16,-10 16,-9 16,-9 14,-8 14,-8 12,-7 11,-6 8,-4 6,-2 181,0z" /><circle style="fill:#f00;stroke:#4c4c4c;stroke-width:2" cx="781" cy="284" r="40" /><circle style="fill:#f00;stroke:#4c4c4c;stroke-width:2" cx="191" cy="288" r="37" /><path style="fill:#f00;stroke:#4c4c4c;stroke-width:2" d="M495,13 l-60,93 120,0 14,-62 4,-2 5,-2 4,-1 5,0 5,0 5,1 4,1 3,3 4,17 3,13 2,11 2,8 1,6 2,3 0,0 0,-2 0,-4 0,-7 -1,-8 -2,-10 -2,-12 -2,-14 -2,-15 -3,-17 -111,0z" /><path style="fill:#f00;stroke:#4c4c4c;stroke-width:2" d="M480,13 l-157,93 92,0 65,-93z" /><path style="fill:#f00;stroke:#4c4c4c;stroke-width:2" d="M661,13 l-1,0 -3,0 -4,0 -4,0 -4,0 -4,0 -3,0 -1,0 14,93 123,0 10,0 8,-1 6,-1 4,-2 2,-3 0,-4 -2,-4 -5,-5 -7,-6 -9,-7 -13,-7 -15,-9 -18,-9 -22,-11 -24,-12 -28,-12z" /></svg>