<!DOCTYPE svg PUBLIC "-//W3C//DTD SVG 20000303 Stylable//EN" "http://www.w3.org/TR/2000/03/WD-SVG-20000303/DTD/svg-20000303-stylable.dtd"[]><svg xmlns="http://www.w3.org/2000/svg" width="999px" height="838px" viewBox="0 0 999 828"><path style="fill:#ffc2c2;stroke:#4c4c4c;stroke-width:2" d="M170,37 l13,-37 632,0 13,37 -658,0z" /><path style="fill:#c2ffff;stroke:#4c4c4c;stroke-width:2" d="M828,37 l64,170 13,37 11,33 -87,-9 -87,-8 -86,-5 -87,-3 -72,-1 -67,0 -88,3 -86,5 -87,8 -87,10 11,-33 13,-37 64,-170 658,0z" /><path style="fill:#ffc2c2;stroke:#4c4c4c;stroke-width:2" d="M57,361 l12,-42 13,-42 87,-10 87,-8 86,-5 88,-3 67,0 72,1 87,3 86,5 87,8 87,9 13,42 12,42 -884,0z" /><path style="fill:#ffc2c2;stroke:#4c4c4c;stroke-width:2" d="M57,361 l-1,4 -6,25 -5,25 -4,25 -3,26 0,51 2,26 3,25 5,24 902,0 5,-24 3,-26 2,-25 1,-25 -1,-26 -3,-25 -3,-26 -6,-25 -6,-25 -1,-4 -884,0z" /><path style="fill:#fff;stroke:#4c4c4c;stroke-width:2" d="M789,688 l129,0 9,-18 8,-18 6,-17 5,-20 4,-23 -902,0 4,22 6,20 5,17 7,19 10,18 709,0z" /><path style="fill:#000;stroke:#4c4c4c;stroke-width:2" d="M210,688 l0,140 -152,0 0,-194 5,17 7,19 10,18 130,0z" /><path style="fill:#000;stroke:#4c4c4c;stroke-width:2" d="M789,688 l0,140 152,0 0,-193 -6,17 -8,18 -9,18 -129,0z" /><path style="fill:#000;stroke:#4c4c4c;stroke-width:2" d="M134,405 l-8,1 -9,2 -12,6 -11,8 -9,8 -8,12 -5,11 -3,14 -2,13 2,12 3,13 6,12 7,11 10,9 10,7 13,6 9,3 9,1 727,0 9,-1 8,-3 12,-5 11,-8 9,-9 8,-11 5,-11 4,-13 1,-13 -1,-13 -3,-13 -6,-12 -7,-11 -9,-9 -11,-8 -12,-6 -10,-3 -737,0z" /><path style="fill:#000;stroke:#4c4c4c;stroke-width:2" d="M106,207 l-13,37 -11,33 -13,42 -54,-25 -3,-2 -4,-3 -3,-2 -2,-4 -2,-4 -1,-4 0,-4 0,-4 0,-4 7,-41 1,-2 1,-2 2,-3 6,-6 4,-2 85,0z" /><circle style="fill:#fff;stroke:#4c4c4c;stroke-width:2" cx="140" cy="479" r="54" /><circle style="fill:#fff;stroke:#4c4c4c;stroke-width:2" cx="269" cy="479" r="54" /><circle style="fill:#fff;stroke:#4c4c4c;stroke-width:2" cx="729" cy="480" r="54" /><circle style="fill:#fff;stroke:#4c4c4c;stroke-width:2" cx="857" cy="480" r="54" /><path style="fill:#000;stroke:#4c4c4c;stroke-width:2" d="M892,207 l13,37 11,33 13,42 53,-25 4,-2 4,-2 6,-6 1,-4 2,-4 0,-9 -1,-3 -7,-42 -2,-3 -2,-4 -3,-3 -3,-2 -4,-1 -5,-2 -80,0z" /></svg>