<!DOCTYPE svg PUBLIC "-//W3C//DTD SVG 20000303 Stylable//EN" "http://www.w3.org/TR/2000/03/WD-SVG-20000303/DTD/svg-20000303-stylable.dtd"[]><svg xmlns="http://www.w3.org/2000/svg" width="999px" height="645px" viewBox="0 0 999 624"><path style="fill:#0ff;stroke:#4c4c4c;stroke-width:2" d="M0,603 l20,21 125,0 21,-21 0,-62 666,0 0,62 21,21 125,0 21,-21 0,-229 -42,-166 42,0 -21,-63 -115,-21 -114,-124 -500,0 -114,124 -115,21 -20,63 41,0 -41,166 0,229z" /><path style="fill:none;stroke:#4c4c4c;stroke-width:2" d="M41,208 l63,-21 229,0 10,-11 312,0 11,11 229,0 62,21" /><path style="fill:none;stroke:#4c4c4c;stroke-width:2" d="M999,395 l-999,0 62,125 874,0 63,-125" /><path style="fill:none;stroke:#4c4c4c;stroke-width:2" d="M999,374 l-999,0" /><path style="fill:none;stroke:#4c4c4c;stroke-width:2" d="M104,187 l31,-63" /><path style="fill:none;stroke:#4c4c4c;stroke-width:2" d="M895,187 l-32,-63" /><path style="fill:none;stroke:#4c4c4c;stroke-width:2" d="M333,187 l20,62" /><path style="fill:none;stroke:#4c4c4c;stroke-width:2" d="M645,249 l21,-62" /><path style="fill:none;stroke:#4c4c4c;stroke-width:2" d="M145,395 l-21,10 21,73 708,0 21,-73 -21,-10" /><path style="fill:none;stroke:#4c4c4c;stroke-width:2" d="M431,457 l0,-52 -286,0 21,52 265,0" /><path style="fill:none;stroke:#4c4c4c;stroke-width:2" d="M567,457 l0,-52 286,0 -21,52 -265,0" /><path style="fill:none;stroke:#4c4c4c;stroke-width:2" d="M437,473 l0,-73 125,0 0,73 -125,0" /><path style="fill:none;stroke:#4c4c4c;stroke-width:2" d="M145,478 l-62,21 832,0 -62,-21" /><path style="fill:none;stroke:#4c4c4c;stroke-width:2" d="M41,208 l10,41 63,125" /><path style="fill:none;stroke:#4c4c4c;stroke-width:2" d="M957,208 l-11,41 -62,125" /><path style="fill:none;stroke:#4c4c4c;stroke-width:2" d="M249,333 l0,-42 -124,0 10,42 114,0" /><path style="fill:none;stroke:#4c4c4c;stroke-width:2" d="M749,333 l0,-42 125,0 -11,42 -114,0" /><path style="fill:none;stroke:#4c4c4c;stroke-width:2" d="M249,452 l0,-42 -88,0 15,42 73,0" /><path style="fill:none;stroke:#4c4c4c;stroke-width:2" d="M749,452 l0,-42 88,0 -15,42 -73,0" /><path style="fill:none;stroke:#4c4c4c;stroke-width:2" d="M343,176 l-208,0 125,-161 478,0 125,161 -208,0" /><path style="fill:none;stroke:#4c4c4c;stroke-width:2" d="M463,317 l10,-7 26,-3 26,3 10,7 -10,8 -26,2 -26,-2 -10,-8" /></svg>