<!DOCTYPE svg PUBLIC "-//W3C//DTD SVG 20000303 Stylable//EN" "http://www.w3.org/TR/2000/03/WD-SVG-20000303/DTD/svg-20000303-stylable.dtd"[]><svg xmlns="http://www.w3.org/2000/svg" width="471px" height="999px" viewBox="0 0 439 999"><path style="fill:#800000;stroke:#4c4c4c;stroke-width:2" d="M219,18 l-11,0 -12,1 -12,1 -11,1 -13,1 -12,1 -12,2 -13,1 -12,2 -13,2 -13,2 -13,2 -13,3 -14,2 -13,3 -14,3 0,-8 2,-6 5,-5 8,-3 9,-3 9,-2 10,-2 11,-3 11,-2 11,-2 12,-1 13,-2 13,-2 12,-1 13,-1 12,-1 13,-1 12,0 13,0 12,0 12,0 13,0 12,0 13,1 13,1 12,1 13,1 12,2 13,2 12,1 11,2 12,2 10,3 10,2 10,2 9,3 7,3 5,5 3,6 1,8 -14,-3 -14,-3 -13,-2 -14,-3 -13,-2 -13,-2 -13,-2 -13,-2 -13,-1 -12,-2 -12,-1 -13,-1 -11,-1 -12,-1 -12,-1 -11,0z" /><path style="fill:#800000;stroke:#4c4c4c;stroke-width:2" d="M219,999 l-12,0 -13,-1 -12,0 -13,-1 -12,-1 -13,-2 -12,-1 -13,-2 -13,-2 -12,-2 -12,-2 -11,-2 -11,-2 -10,-2 -9,-2 -9,-2 -7,-3 -6,-5 -3,-6 -1,-7 14,3 14,3 14,3 14,2 14,3 13,2 13,2 13,1 13,2 12,1 12,1 12,1 12,1 12,1 11,0 11,0 11,0 12,0 11,-1 12,-1 12,-1 12,-1 13,-1 13,-2 13,-1 13,-2 13,-2 14,-3 14,-2 14,-3 14,-3 14,-3 -1,7 -3,6 -6,5 -7,3 -9,2 -10,2 -10,2 -11,2 -11,2 -11,2 -12,2 -13,2 -13,2 -12,1 -13,2 -13,1 -13,1 -12,0 -13,1 -12,0z" /><path style="fill:#800000;stroke:#4c4c4c;stroke-width:2" d="M219,977 l-10,0 -11,0 -11,-1 -12,-1 -12,-1 -12,-1 -12,-1 -13,-2 -13,-1 -13,-2 -13,-2 -14,-3 -14,-2 -15,-3 -14,-3 -15,-3 -2,-27 -1,-27 -2,-27 -1,-28 -1,-27 -2,-28 -1,-28 -1,-28 -1,-28 -1,-28 -1,-28 0,-29 -1,-28 0,-29 0,-28 0,-29 0,-29 0,-29 0,-29 0,-28 0,-29 1,-29 1,-28 1,-29 1,-29 1,-28 2,-29 1,-28 2,-28 2,-29 2,-28 2,-28 7,-2 8,-2 9,-2 11,-2 11,-2 13,-2 14,-2 15,-3 15,-2 15,-2 15,-2 15,-1 14,-1 14,-1 14,-1 13,0 13,0 14,1 14,0 14,1 15,2 15,1 15,3 15,2 15,2 14,2 13,3 12,2 10,2 10,2 8,2 7,2 2,28 2,28 2,29 1,28 2,28 1,29 1,28 2,29 0,28 1,29 1,29 0,28 1,29 0,29 0,28 0,29 0,29 0,29 -1,28 0,29 -1,28 0,29 -1,28 -1,28 -1,28 -1,28 -2,28 -1,27 -1,28 -2,27 -1,27 -2,27 -15,3 -15,3 -14,3 -14,2 -14,3 -14,2 -13,2 -13,1 -13,2 -12,1 -12,1 -12,1 -12,1 -11,1 -11,0 -10,0z" /><path style="fill:#800000;stroke:#4c4c4c;stroke-width:2" d="M408,781 l0,-233 -55,7 0,99 55,127z" /><path style="fill:#800000;stroke:#4c4c4c;stroke-width:2" d="M31,781 l51,-127 0,-99 -52,-7 1,233z" /><path style="fill:#800000;stroke:#4c4c4c;stroke-width:2" d="M408,334 l-55,126 0,83 55,-7 0,-202z" /><path style="fill:#800000;stroke:#4c4c4c;stroke-width:2" d="M31,334 l-1,202 52,8 0,-84 -51,-126z" /><path style="fill:#800000;stroke:#4c4c4c;stroke-width:2" d="M219,430 l11,0 10,0 9,0 9,0 8,0 7,0 6,0 5,0 5,0 6,0 7,1 7,1 9,1 8,0 10,1 10,1 7,-13 7,-14 8,-14 7,-16 7,-16 6,-16 7,-18 6,-18 -3,-5 -5,-5 -7,-4 -7,-4 -10,-4 -11,-3 -12,-3 -14,-3 -15,-2 -15,-2 -14,-2 -15,-2 -14,-1 -14,-1 -13,-1 -13,0 -13,0 -14,1 -14,1 -13,1 -15,1 -14,2 -14,2 -15,2 -14,3 -12,3 -11,4 -10,3 -8,5 -6,4 -5,5 -3,5 6,18 7,18 6,17 8,16 7,16 7,14 8,13 7,13 9,-1 9,-1 9,0 7,-1 7,-1 7,-1 6,0 5,0 5,0 7,0 7,0 8,0 8,0 10,0 10,0 11,0z" /><path style="fill:#800000;stroke:#4c4c4c;stroke-width:2" d="M219,859 l12,0 12,0 12,-1 13,0 13,-1 14,-1 14,-1 14,-1 14,-2 13,-2 11,-3 10,-4 7,-4 6,-4 5,-5 2,-6 0,-8 -1,-8 -2,-9 -2,-9 -2,-9 -4,-10 -3,-11 -5,-11 -5,-11 -5,-10 -5,-10 -4,-9 -4,-8 -4,-8 -4,-7 -3,-7 -8,3 -8,3 -8,2 -7,2 -7,1 -7,1 -6,1 -5,0 -6,0 -6,0 -7,0 -7,0 -8,0 -9,0 -10,0 -10,0 -10,0 -10,0 -8,0 -8,0 -8,0 -7,0 -6,0 -6,0 -5,0 -6,-1 -7,-1 -6,-1 -8,-2 -7,-2 -8,-3 -8,-3 -4,7 -4,7 -4,8 -4,8 -4,9 -5,10 -4,10 -5,11 -5,11 -4,11 -3,10 -3,9 -2,9 -2,9 -1,8 0,8 4,6 6,6 6,5 9,4 9,4 11,2 12,3 13,1 14,1 14,0 13,1 13,1 13,0 12,1 12,0 11,0z" /></svg>