<!DOCTYPE svg PUBLIC "-//W3C//DTD SVG 20000303 Stylable//EN" "http://www.w3.org/TR/2000/03/WD-SVG-20000303/DTD/svg-20000303-stylable.dtd"[]><svg xmlns="http://www.w3.org/2000/svg" width="999px" height="371px" viewBox="0 0 999 333"><path style="fill:#7f7f7f;stroke:#4c4c4c;stroke-width:2" d="M795,275 l-56,6 -42,-16 98,0 0,10z" /><path style="fill:#f00;stroke:#4c4c4c;stroke-width:2" d="M947,291 l52,0 0,-20 -10,-6 3,-6 -3,-72 -94,-10 -16,-61 -72,0 -6,61 0,68 -260,0 0,20 406,0 0,26z" /><path style="fill:#000;stroke:#4c4c4c;stroke-width:2" d="M885,177 l-12,-52 -62,0 0,52 74,0z" /><path style="fill:#000" d="M603,233 l0,12 74,0 0,-12 -74,0z" /><path style="fill:#ccc;stroke:#4c4c4c;stroke-width:2" d="M781,41 l0,204 10,0 0,-204 -10,-9 -6,5 6,4z" /><path style="fill:#ccc;stroke:#4c4c4c;stroke-width:2" d="M775,130 l0,99 20,0 0,-99 -20,0z" /><path style="fill:#000;stroke:#4c4c4c;stroke-width:2" d="M239,245 l-219,0 0,10 219,0 0,-10z" /><path style="fill:#fff;stroke:#4c4c4c;stroke-width:2" d="M239,245 l-219,0 0,-12 219,0 0,12z" /><path style="fill:#7f0000" d="M989,291 l-11,-46 -51,0 -22,14 0,6 10,0 74,26z" /><circle style="fill:#000" cx="947" cy="291" r="42" /><circle style="fill:#000" cx="697" cy="291" r="42" /><circle style="fill:#000" cx="593" cy="291" r="42" /><circle style="fill:#000" cx="187" cy="291" r="42" /><ellipse style="fill:#000" cx="72" cy="291" rx="40" ry="42" /><path style="fill:#ccc" d="M952,311 l-11,0 -11,-4 -3,-10 0,-12 3,-8 11,-6 11,0 9,6 5,8 0,12 -5,10 -9,4z" /><circle style="fill:#ccc" cx="697" cy="291" r="20" /><circle style="fill:#ccc" cx="593" cy="291" r="20" /><circle style="fill:#ccc" cx="186" cy="291" r="21" /><circle style="fill:#ccc" cx="72" cy="291" r="21" /><path style="fill:#fff;stroke:#4c4c4c;stroke-width:2" d="M873,271 l32,0 0,-12 22,-14 56,0 0,-26 -68,0 -26,10 -16,26 0,16z" /><path style="fill:#fff;stroke:#4c4c4c;stroke-width:2" d="M795,249 l0,32 73,0 0,-32 -73,0z" /><path style="fill:#e5e5e5;stroke:#4c4c4c;stroke-width:2" d="M687,233 l-678,0 0,-20 678,0 0,20z" /><path style="fill:#000;stroke:#4c4c4c;stroke-width:2" d="M20,245 l-20,0 0,36 9,0 0,-36 11,0z" /><path style="fill:#b2b2b2;stroke:#4c4c4c;stroke-width:2" d="M363,311 l-16,0 0,-78 16,0 0,78z" /><path style="fill:#000" d="M365,281 l0,-10 40,-38 12,0 -52,48z" /><path style="fill:#b2b2b2;stroke:#4c4c4c;stroke-width:2" d="M351,317 l-4,-4 4,-6 8,0 4,6 -4,4 -8,0z" /><path style="fill:#fff;stroke:#4c4c4c;stroke-width:2" d="M9,0 l0,207 698,0 0,-207 -698,0z" /></svg>