<!DOCTYPE svg PUBLIC "-//W3C//DTD SVG 20000303 Stylable//EN" "http://www.w3.org/TR/2000/03/WD-SVG-20000303/DTD/svg-20000303-stylable.dtd"[]><svg xmlns="http://www.w3.org/2000/svg" width="999px" height="552px" viewBox="0 0 999 525"><path style="fill:#7f7f7f;stroke:#4c4c4c;stroke-width:2" d="M807,471 l-54,4 -38,-14 92,0 0,10z" /><path style="fill:#f00;stroke:#4c4c4c;stroke-width:2" d="M949,485 l50,0 0,-20 -10,-4 5,-4 -5,-70 -88,-10 -14,-58 -70,0 -4,58 0,64 -246,0 0,20 382,0 0,24z" /><path style="fill:#000;stroke:#4c4c4c;stroke-width:2" d="M891,377 l-10,-48 -59,0 0,48 69,0z" /><path style="fill:#000" d="M625,431 l0,10 70,0 0,-10 -70,0z" /><path style="fill:#ccc;stroke:#4c4c4c;stroke-width:2" d="M793,249 l0,192 10,0 0,-192 -10,-10 -6,6 6,4z" /><path style="fill:#ccc;stroke:#4c4c4c;stroke-width:2" d="M787,333 l0,94 20,0 0,-94 -20,0z" /><path style="fill:#000;stroke:#4c4c4c;stroke-width:2" d="M281,441 l-206,0 0,10 206,0 0,-10z" /><path style="fill:#fff;stroke:#4c4c4c;stroke-width:2" d="M281,441 l-206,0 0,-10 206,0 0,10z" /><path style="fill:#7f0000" d="M989,485 l-10,-44 -48,0 -20,16 0,4 10,0 68,24z" /><circle style="fill:#000" cx="950" cy="486" r="39" /><circle style="fill:#000" cx="714" cy="486" r="39" /><circle style="fill:#000" cx="616" cy="486" r="39" /><circle style="fill:#000" cx="233" cy="486" r="40" /><circle style="fill:#000" cx="125" cy="486" r="40" /><circle style="fill:#ccc" cx="950" cy="486" r="19" /><circle style="fill:#ccc" cx="714" cy="486" r="19" /><circle style="fill:#ccc" cx="616" cy="486" r="19" /><circle style="fill:#ccc" cx="233" cy="486" r="20" /><circle style="fill:#ccc" cx="126" cy="486" r="20" /><path style="fill:#fff;stroke:#4c4c4c;stroke-width:2" d="M881,465 l30,0 0,-8 20,-16 53,0 0,-24 -63,0 -27,10 -13,24 0,14z" /><path style="fill:#fff;stroke:#4c4c4c;stroke-width:2" d="M807,447 l0,28 70,0 0,-28 -70,0z" /><path style="fill:#e5e5e5;stroke:#4c4c4c;stroke-width:2" d="M705,431 l-640,0 0,-18 640,0 0,18z" /><path style="fill:#000;stroke:#4c4c4c;stroke-width:2" d="M75,441 l-20,0 0,34 10,0 0,-34 10,0z" /><path style="fill:#b2b2b2;stroke:#4c4c4c;stroke-width:2" d="M399,505 l-14,0 0,-74 14,0 0,74z" /><path style="fill:#000" d="M401,475 l0,-10 38,-34 10,0 -48,44z" /><path style="fill:#b2b2b2;stroke:#4c4c4c;stroke-width:2" d="M389,511 l-4,-6 4,-4 8,0 2,4 -2,6 -8,0z" /><path style="fill:#fff;stroke:#4c4c4c;stroke-width:2" d="M649,413 l0,-10 6,-6 8,0 6,6 0,10 -20,0z" /><path style="fill:#e5e5e5;stroke:#4c4c4c;stroke-width:2" d="M611,297 l38,106 12,-4 -38,-106 -12,4z" /><path style="fill:#b2b2b2;stroke:#4c4c4c;stroke-width:2" d="M583,217 l28,80 12,-4 -30,-80 -10,4z" /><path style="fill:#fff;stroke:#4c4c4c;stroke-width:2" d="M0,223 l67,186 618,-226 -68,-183 -617,223z" /></svg>