<!DOCTYPE svg PUBLIC "-//W3C//DTD SVG 20000303 Stylable//EN" "http://www.w3.org/TR/2000/03/WD-SVG-20000303/DTD/svg-20000303-stylable.dtd"[]><svg xmlns="http://www.w3.org/2000/svg" width="999px" height="453px" viewBox="0 0 999 421"><path style="fill:#7f7f7f;stroke:#4c4c4c;stroke-width:2" d="M240,254 l441,0 0,38 -441,0 0,-38z" /><path style="fill:#666;stroke:#4c4c4c;stroke-width:2" d="M117,71 l119,0 0,125 763,0 0,44 -882,0 0,-169z" /><path style="fill:#000;stroke:#4c4c4c;stroke-width:2" d="M31,220 l838,0 -19,91 -78,6 0,42 -741,0 0,-139z" /><circle style="fill:#666;stroke:#4c4c4c;stroke-width:2" cx="616" cy="359" r="62" /><circle style="fill:#666;stroke:#4c4c4c;stroke-width:2" cx="751" cy="359" r="62" /><path style="fill:#699;stroke:#4c4c4c;stroke-width:2" d="M61,284 l-16,85 -42,0 10,-89 0,-92 98,-14 0,-77 -26,0 0,-12 157,-14 0,266 -44,0 -24,-53 -113,0z" /><path style="fill:#e5e5e5;stroke:#4c4c4c;stroke-width:2" d="M0,317 l37,0 0,52 -37,0 0,-52z" /><path style="fill:#b2b2b2;stroke:#4c4c4c;stroke-width:2" d="M266,248 l619,0 0,26 -619,0 0,-26z" /><path style="fill:#000;stroke:#4c4c4c;stroke-width:2" d="M123,97 l0,79 51,-14 0,-65 -51,0z" /><circle style="fill:#ccc;stroke:#4c4c4c;stroke-width:2" cx="616" cy="359" r="31" /><circle style="fill:#ccc;stroke:#4c4c4c;stroke-width:2" cx="751" cy="359" r="31" /><path style="fill:#999;stroke:#4c4c4c;stroke-width:2" d="M270,295 l125,0 0,78 -125,0 0,-78z" /><path style="fill:#7f7f7f;stroke:#4c4c4c;stroke-width:2" d="M822,274 l14,0 31,131 -12,0 -33,-131z" /><circle style="fill:#666;stroke:#4c4c4c;stroke-width:2" cx="121" cy="359" r="62" /><ellipse style="fill:#ccc;stroke:#4c4c4c;stroke-width:2" cx="121" cy="359" rx="30" ry="32" /><path style="fill:#999;stroke:#4c4c4c;stroke-width:2" d="M188,347 l0,-14 78,0 0,14 -78,0z" /><path style="fill:#999;stroke:#4c4c4c;stroke-width:2" d="M148,295 l0,-14 76,0 0,14 -76,0z" /><ellipse style="fill:#999;stroke:#4c4c4c;stroke-width:2" cx="264" cy="128" rx="10" ry="128" /><ellipse style="fill:#e5e5e5" cx="264" cy="128" rx="4" ry="128" /><path style="fill:none;stroke:#4c4c4c;stroke-width:2" d="M254,61 l20,0" /></svg>