<!DOCTYPE svg PUBLIC "-//W3C//DTD SVG 20000303 Stylable//EN" "http://www.w3.org/TR/2000/03/WD-SVG-20000303/DTD/svg-20000303-stylable.dtd"[]><svg xmlns="http://www.w3.org/2000/svg" width="999px" height="310px" viewBox="0 0 998 269"><circle style="fill:#000;stroke:#4c4c4c;stroke-width:2" cx="84" cy="232" r="37" /><circle style="fill:#fff;stroke:#4c4c4c;stroke-width:2" cx="83" cy="232" r="18" /><circle style="fill:#000;stroke:#4c4c4c;stroke-width:2" cx="84" cy="232" r="7" /><path style="fill:#f00;stroke:#4c4c4c;stroke-width:2" d="M147,89 l10,0 7,0 6,0 4,0 3,0 2,0 1,0 2,0 2,0 2,0 3,0 4,0 6,0 7,0 10,0 11,0 0,-89 -10,3 -70,86z" /><path style="fill:#f00;stroke:#4c4c4c;stroke-width:2" d="M139,93 l-4,-4 -8,0 0,4 -16,6 6,0 8,0 -8,34 8,0 6,-28 32,0 0,28 -46,0 -34,4 -4,1 -5,2 -5,1 -5,1 -5,1 -5,1 -5,1 -4,2 -5,1 -5,1 -5,1 -5,2 -5,1 -5,1 -5,2 -4,1 0,56 35,4 3,-7 4,-5 5,-5 5,-4 6,-4 7,-2 6,-1 7,-1 7,0 6,2 6,2 6,3 5,4 4,5 3,6 2,7 6,0 0,24 2,0 1,-1 0,-1 2,-1 1,-1 2,-1 3,0 2,-1 4,0 3,-1 4,0 3,0 4,0 5,0 4,0 4,0 5,0 4,0 5,0 4,1 4,0 5,0 4,0 4,1 3,0 4,0 3,0 3,1 3,0 2,0 2,0 2,0 1,0 0,-4 0,-4 0,-4 0,-4 0,-4 0,-5 0,-4 0,-4 0,-4 0,-5 0,-4 0,-4 0,-4 -1,-5 0,-4 0,-4 0,-5 0,-4 0,-4 0,-5 0,-4 0,-4 0,-5 0,-4 0,-4 -1,-5 0,-4 0,-5 0,-4 0,-5 0,-4 0,-5 -2,-2 0,-2 -4,0 -8,0 -8,0 -7,0 -5,0 -5,0 -4,0 -4,0 -2,0 -2,0 -2,0 -1,0 -1,0 0,0 0,0 0,-1 0,0 0,0 0,0 0,0 0,0 0,0 -1,0 -1,0 -2,0 -2,0 -3,0 -4,0 -4,-1 -5,0 -6,0 -7,0z" /><path style="fill:#e5e5e5;stroke:#4c4c4c;stroke-width:2" d="M131,205 l0,-4 42,0 0,4 -42,0z" /><path style="fill:#e5e5e5;stroke:#4c4c4c;stroke-width:2" d="M131,235 l0,-24 42,0 0,24 -42,0z" /><path style="fill:#e5e5e5;stroke:#4c4c4c;stroke-width:2" d="M195,235 l0,-36 28,0 0,36 -28,0z" /><path style="fill:#e5e5e5;stroke:#4c4c4c;stroke-width:2" d="M179,235 l0,-36 14,0 0,36 -14,0z" /><path style="fill:#e5e5e5;stroke:#4c4c4c;stroke-width:2" d="M225,235 l0,-36 14,0 0,36 -14,0z" /><path style="fill:#e5e5e5;stroke:#4c4c4c;stroke-width:2" d="M185,95 l0,18 2,0 0,68 -4,0 0,14 -6,0 0,-14 -4,0 0,-68 2,0 0,-44 1,-3 1,-3 2,-3 1,-2 2,-2 2,-2 3,-1 2,-2 0,12 0,1 -1,1 -1,1 0,0 -1,1 0,1 -1,1 0,0 0,26z" /><path style="fill:#e5e5e5;stroke:#4c4c4c;stroke-width:2" d="M23,215 l-23,-4 0,26 23,2 0,-24z" /><path style="fill:#4c4c4c;stroke:#4c4c4c;stroke-width:2" d="M255,179 l0,-30 743,0 0,30 -743,0z" /><path style="fill:#000;stroke:#4c4c4c;stroke-width:2" d="M355,189 l0,6 -1,1 -2,2 -1,1 -2,1 -1,2 -2,1 -1,1 -1,2 -2,1 -1,2 -1,1 -1,2 -1,2 -1,2 -1,1 -1,2 -1,-3 -1,-3 -2,-3 -2,-3 -2,-2 -2,-3 -3,-2 -3,-1 -3,-2 -3,-2 -3,-1 -3,-1 -4,-1 -3,0 -3,-1 -4,0 0,-6 62,4z" /><path style="fill:#fff;stroke:#4c4c4c;stroke-width:2" d="M345,189 l0,-10 -40,0 0,6 40,4z" /><path style="fill:#000;stroke:#4c4c4c;stroke-width:2" d="M271,191 l-2,1 -3,2 -2,1 -2,2 -3,2 -2,3 -2,2 -1,3 -2,3 -1,3 -2,3 -1,4 -1,3 -1,3 0,4 -1,3 6,0 0,-2 1,-3 0,-3 1,-2 1,-3 1,-2 0,-3 2,-2 1,-2 2,-2 1,-3 2,-2 2,-2 2,-1 2,-2 2,-2 0,-6z" /><path style="fill:#000;stroke:#4c4c4c;stroke-width:2" d="M239,229 l0,-26 16,0 0,2 -1,1 -1,2 -1,2 0,1 -1,2 -1,2 -1,1 0,2 -1,2 0,1 -1,2 0,2 -1,1 0,2 -1,1 -6,0z" /><path style="fill:#000;stroke:#4c4c4c;stroke-width:2" d="M417,259 l6,0 0,-60 -16,0 2,3 1,2 2,3 2,3 1,3 1,3 1,3 0,2 0,38z" /><path style="fill:#000;stroke:#4c4c4c;stroke-width:2" d="M639,203 l112,0 5,-4 5,-3 5,-3 5,-2 5,-1 5,0 5,0 5,1 5,1 5,2 4,2 4,3 4,3 4,4 3,5 3,4 2,0 1,-4 2,-5 4,-4 3,-3 4,-3 5,-2 4,-2 6,-1 5,-1 5,0 6,1 5,1 5,2 6,3 4,4 5,4 10,0 0,54 6,0 0,-54 51,0 0,26 6,0 0,-52 -329,0 0,24z" /><circle style="fill:#000;stroke:#4c4c4c;stroke-width:2" cx="294" cy="232" r="37" /><circle style="fill:#fff;stroke:#4c4c4c;stroke-width:2" cx="294" cy="232" r="19" /><circle style="fill:#000;stroke:#4c4c4c;stroke-width:2" cx="294" cy="232" r="7" /><circle style="fill:#000;stroke:#4c4c4c;stroke-width:2" cx="376" cy="232" r="37" /><circle style="fill:#fff;stroke:#4c4c4c;stroke-width:2" cx="377" cy="232" r="18" /><circle style="fill:#000;stroke:#4c4c4c;stroke-width:2" cx="376" cy="232" r="7" /><circle style="fill:#000;stroke:#4c4c4c;stroke-width:2" cx="784" cy="232" r="37" /><circle style="fill:#fff;stroke:#4c4c4c;stroke-width:2" cx="784" cy="232" r="19" /><circle style="fill:#000;stroke:#4c4c4c;stroke-width:2" cx="784" cy="232" r="7" /><circle style="fill:#000;stroke:#4c4c4c;stroke-width:2" cx="864" cy="232" r="37" /><circle style="fill:#fff;stroke:#4c4c4c;stroke-width:2" cx="863" cy="232" r="18" /><circle style="fill:#000;stroke:#4c4c4c;stroke-width:2" cx="864" cy="232" r="7" /></svg>