<!DOCTYPE svg PUBLIC "-//W3C//DTD SVG 20000303 Stylable//EN" "http://www.w3.org/TR/2000/03/WD-SVG-20000303/DTD/svg-20000303-stylable.dtd"[]><svg xmlns="http://www.w3.org/2000/svg" width="999px" height="791px" viewBox="0 0 999 779"><path style="fill:#bf8c00;stroke:#4c4c4c;stroke-width:2" d="M341,609 l122,-50 24,-24 24,-48 0,-146 24,-50 50,-24 24,0 24,414 -292,-72z" /><path style="fill:#7f7f7f" d="M433,257 l142,-82 8,14 -140,82 -10,-14z" /><path style="fill:#b2b2b2" d="M435,259 l142,-80 4,6 -142,82 -4,-8z" /><path style="fill:#7f7f7f" d="M519,225 l90,156 -14,8 -90,-156 14,-8z" /><path style="fill:#999" d="M519,227 l88,154 -12,8 -88,-156 12,-6z" /><path style="fill:#b2b2b2" d="M517,227 l90,156 -10,4 -90,-154 10,-6z" /><path style="fill:#ccc" d="M515,229 l90,154 -6,4 -90,-156 6,-2z" /><path style="fill:#e5e5e5" d="M515,229 l88,154 -4,2 -88,-154 4,-2z" /><path style="fill:#fff" d="M513,229 l90,156 -2,0 -90,-154 2,-2z" /><path style="fill:none;stroke:#4c4c4c;stroke-width:2" d="M519,225 l90,156 -14,8 -90,-156 14,-8" /><path style="fill:none;stroke:#4c4c4c;stroke-width:2" d="M433,257 l142,-82 8,14 -140,82 -10,-14" /><path style="fill:#bf8c00;stroke:#4c4c4c;stroke-width:2" d="M609,291 l72,0 0,390 -72,0 0,-390z" /><path style="fill:#fc0;stroke:#4c4c4c;stroke-width:2" d="M365,609 l122,-50 24,-24 24,-48 0,-146 26,-50 48,-24 24,0 24,414 -292,-72z" /><path style="fill:#fc0;stroke:#4c4c4c;stroke-width:2" d="M585,609 l0,-26 -196,0 -24,-194 -318,0 -47,220 585,0z" /><path style="fill:#fc0;stroke:#4c4c4c;stroke-width:2" d="M585,609 l-585,0 0,96 585,0 0,-96z" /><path style="fill:#fc0;stroke:#4c4c4c;stroke-width:2" d="M681,0 l50,0 0,731 -50,0 0,-731z" /><path style="fill:#fc0;stroke:#4c4c4c;stroke-width:2" d="M999,583 l-268,0 0,26 268,0 0,-26z" /><path style="fill:#c90;stroke:#4c4c4c;stroke-width:2" d="M0,705 l23,-96 74,-50 48,0 74,50 24,96 -243,0z" /><path style="fill:#000;fill-rule:evenodd" d="M113,583 l16,0 0,196 -16,0 0,-196z M87,589 l19,-4 49,188 -18,6 -50,-190z M65,601 l16,-8 96,168 -14,10 -98,-170z M46,619 l14,-12 137,138 -14,12 -137,-138z M33,641 l8,-16 170,98 -10,14 -168,-96z M26,665 l3,-18 188,52 -4,16 -187,-50z M23,691 l0,-18 196,0 0,18 -196,0z M29,715 l-3,-16 187,-52 4,18 -188,50z M41,737 l-8,-14 168,-98 10,16 -170,96z M60,757 l-14,-12 137,-138 14,12 -137,138z M81,771 l-16,-10 98,-168 14,8 -96,170z M106,779 l-19,-6 50,-188 18,4 -49,190z " /><circle style="fill:#333;stroke:#4c4c4c;stroke-width:2" cx="122" cy="682" r="93" /><circle style="fill:#f60" cx="121" cy="681" r="40" /><circle style="fill:#36c" cx="121" cy="681" r="24" /><path style="fill:#999;stroke:#4c4c4c;stroke-width:2" d="M365,365 l-146,0 -24,-196 24,-24 24,196 122,0 0,24z" /><path style="fill:#4c4c4c;stroke:#4c4c4c;stroke-width:2" d="M365,365 l-146,0 0,24 146,0 0,-24z" /><path style="fill:none;stroke:#fff;stroke-width:2" d="M47,535 l0,-98 50,0" /><path style="fill:none;stroke:#bf8c00;stroke-width:2" d="M97,437 l0,98 -50,0" /><path style="fill:none;stroke:#fff;stroke-width:2" d="M121,535 l0,-98 48,0" /><path style="fill:none;stroke:#bf8c00;stroke-width:2" d="M169,437 l0,98 -48,0" /><path style="fill:none;stroke:#fff;stroke-width:2" d="M195,535 l0,-98 48,0" /><path style="fill:none;stroke:#bf8c00;stroke-width:2" d="M243,437 l0,98 -48,0" /><path style="fill:none;stroke:#bf8c00;stroke-width:2" d="M707,731 l0,-731" /><path style="fill:#c90;stroke:#4c4c4c;stroke-width:2" d="M463,705 l24,-96 74,-50 48,0 48,0 24,146 -218,0z" /><path style="fill:#000;fill-rule:evenodd" d="M575,583 l18,0 0,196 -18,0 0,-196z M551,589 l16,-4 52,188 -18,6 -50,-190z M527,601 l16,-8 98,168 -16,10 -98,-170z M509,619 l12,-12 138,138 -12,12 -138,-138z M495,641 l10,-16 168,98 -8,14 -170,-96z M487,665 l6,-18 188,52 -4,16 -190,-50z M487,691 l0,-18 194,0 0,18 -194,0z M493,715 l-6,-16 190,-52 4,18 -188,50z M505,737 l-10,-14 170,-98 8,16 -168,96z M521,757 l-12,-12 138,-138 12,12 -138,138z M543,771 l-16,-10 98,-168 16,8 -98,170z M567,779 l-16,-6 50,-188 18,4 -52,190z " /><circle style="fill:#333;stroke:#4c4c4c;stroke-width:2" cx="584" cy="682" r="93" /><circle style="fill:#f60" cx="585" cy="681" r="40" /><circle style="fill:#36c" cx="584" cy="681" r="25" /></svg>