<!DOCTYPE svg PUBLIC "-//W3C//DTD SVG 20000303 Stylable//EN" "http://www.w3.org/TR/2000/03/WD-SVG-20000303/DTD/svg-20000303-stylable.dtd"[]><svg xmlns="http://www.w3.org/2000/svg" width="999px" height="999px" viewBox="0 0 999 999"><path style="fill:#000;fill-rule:evenodd" d="M453,0 l92,0 0,999 -92,0 0,-999z M325,28 l88,-23 260,965 -88,23 -260,-965z M209,89 l80,-45 500,865 -80,45 -500,-865z M113,177 l64,-64 708,708 -64,64 -708,-708z M44,289 l45,-80 865,500 -45,80 -865,-500z M5,413 l23,-88 965,260 -23,88 -965,-260z M0,545 l0,-92 999,0 0,92 -999,0z M28,673 l-23,-88 965,-260 23,88 -965,260z M89,789 l-45,-80 865,-500 45,80 -865,500z M177,885 l-64,-64 708,-708 64,64 -708,708z M289,954 l-80,-45 500,-865 80,45 -500,865z M413,993 l-88,-23 260,-965 88,23 -260,965z " /><path style="fill:#333;stroke:#4c4c4c;stroke-width:2" d="M683,943 l-122,32 -124,0 -122,-32 -108,-62 -90,-90 -62,-108 -32,-122 0,-124 32,-122 62,-108 90,-90 108,-62 122,-32 124,0 122,32 110,62 88,90 62,108 32,122 0,124 -32,122 -62,108 -90,90 -108,62z" /><circle style="fill:#4c4c4c" cx="499" cy="499" r="204" /><path style="fill:#c90;stroke:#4c4c4c;stroke-width:2" d="M561,647 l-42,10 -40,0 -42,-10 -36,-20 -30,-30 -20,-36 -10,-42 0,-40 10,-42 22,-36 28,-30 36,-20 42,-10 40,0 42,10 36,20 28,30 22,36 10,42 0,40 -10,42 -20,36 -30,30 -36,20z" /><path style="fill:#000" d="M521,521 l84,22 -16,26 -20,20 -26,16 -22,-84z" /><path style="fill:#000" d="M477,521 l-22,84 -26,-16 -20,-20 -16,-26 84,-22z" /><path style="fill:#000" d="M477,477 l-84,-22 16,-26 20,-20 26,-16 22,84z" /><path style="fill:#000" d="M521,477 l22,-84 26,16 20,20 16,26 -84,22z" /></svg>