<!DOCTYPE svg PUBLIC "-//W3C//DTD SVG 20000303 Stylable//EN" "http://www.w3.org/TR/2000/03/WD-SVG-20000303/DTD/svg-20000303-stylable.dtd"[]><svg xmlns="http://www.w3.org/2000/svg" width="999px" height="469px" viewBox="0 0 999 438"><path style="fill:#000;stroke:#4c4c4c;stroke-width:2" d="M438,244 l520,0 0,31 -520,0 0,-31z" /><path style="fill:#000;stroke:#4c4c4c;stroke-width:2" d="M367,102 l61,0 0,183 -61,0 0,-183z" /><path style="fill:#7f7f7f" d="M458,0 l530,0 0,254 -530,0 0,-254z" /><path style="fill:#919191" d="M459,22 l16,0 17,0 16,0 17,0 16,0 17,0 17,0 16,0 17,0 17,0 16,0 17,0 16,0 17,0 16,0 17,0 16,0 17,0 17,0 16,0 17,0 16,0 17,0 16,0 17,0 17,0 16,0 16,0 17,0 17,0 16,0 17,0 0,13 0,13 0,13 0,13 0,13 0,13 0,13 0,13 0,13 0,14 0,13 0,13 0,13 0,13 0,13 0,13 -17,0 -16,0 -17,0 -17,0 -16,0 -16,0 -17,0 -17,0 -16,0 -17,0 -16,0 -17,0 -16,0 -17,0 -17,0 -16,0 -17,0 -16,0 -17,0 -16,0 -17,0 -16,0 -17,0 -17,0 -16,0 -17,0 -17,0 -16,0 -17,0 -16,0 -17,0 -16,0 0,-13 0,-13 0,-13 0,-13 0,-13 0,-13 0,-14 0,-13 0,-13 0,-13 0,-13 0,-13 0,-13 0,-13 0,-13 0,-13z" /><path style="fill:#a6a6a6" d="M459,45 l16,0 17,0 16,0 17,0 16,0 17,0 17,0 16,0 17,0 17,0 16,0 17,0 16,0 17,0 16,0 17,0 16,0 17,0 17,0 16,0 17,0 16,0 17,0 16,0 17,0 17,0 16,0 16,0 17,0 17,0 16,0 17,0 0,10 0,10 0,10 0,11 0,10 0,10 0,10 0,10 0,11 0,10 0,10 0,10 0,11 0,10 0,10 0,10 -17,0 -16,0 -17,0 -17,0 -16,0 -16,0 -17,0 -17,0 -16,0 -17,0 -16,0 -17,0 -16,0 -17,0 -17,0 -16,0 -17,0 -16,0 -17,0 -16,0 -17,0 -16,0 -17,0 -17,0 -16,0 -17,0 -17,0 -16,0 -17,0 -16,0 -17,0 -16,0 0,-10 0,-10 0,-10 0,-11 0,-10 0,-10 0,-10 0,-11 0,-10 0,-10 0,-10 0,-10 0,-11 0,-10 0,-10 0,-10z" /><path style="fill:#b8b8b8" d="M459,68 l16,0 17,0 16,0 17,0 16,0 17,0 17,-1 16,0 17,0 17,0 16,0 17,0 16,0 17,0 16,0 17,0 16,0 17,0 17,0 16,0 17,0 16,0 17,0 16,0 17,0 17,1 16,0 16,0 17,0 17,0 16,0 17,0 0,7 0,7 0,8 0,7 0,7 0,8 0,7 0,7 0,8 0,7 0,7 0,8 0,7 0,7 0,8 0,7 -17,0 -16,0 -17,0 -17,0 -16,0 -16,0 -17,0 -17,0 -16,0 -17,0 -16,0 -17,0 -16,0 -17,0 -17,0 -16,0 -17,0 -16,0 -17,0 -16,0 -17,0 -16,0 -17,0 -17,0 -16,0 -17,0 -17,0 -16,0 -17,0 -16,0 -17,0 -16,0 0,-7 0,-8 0,-7 0,-7 0,-8 0,-7 0,-7 0,-8 0,-7 0,-7 0,-8 0,-7 0,-7 0,-8 0,-7 0,-7z" /><path style="fill:#ccc" d="M458,91 l530,0 0,72 -530,0 0,-72z" /><path style="fill:none;stroke:#4c4c4c;stroke-width:2" d="M458,0 l530,0 0,254 -530,0 0,-254" /><ellipse style="fill:#7f7f7f;stroke:#4c4c4c;stroke-width:2" cx="458" cy="127" rx="10" ry="127" /><path style="fill:#4c4c4c;stroke:#4c4c4c;stroke-width:2" d="M20,367 l10,-82 10,-41 102,0 174,31 61,0 593,-3 -2,44 -51,40 -286,0 -40,-30 -235,0 -10,41 -326,0z" /><circle style="fill:#000;stroke:#4c4c4c;stroke-width:2" cx="101" cy="366" r="71" /><circle style="fill:#000;stroke:#4c4c4c;stroke-width:2" cx="702" cy="366" r="71" /><circle style="fill:#000;stroke:#4c4c4c;stroke-width:2" cx="866" cy="366" r="71" /><circle style="fill:#fff;stroke:#4c4c4c;stroke-width:2" cx="101" cy="367" r="51" /><circle style="fill:#e5e5e5;stroke:#4c4c4c;stroke-width:2" cx="703" cy="367" r="51" /><circle style="fill:#e5e5e5;stroke:#4c4c4c;stroke-width:2" cx="866" cy="367" r="51" /><circle style="fill:#e5e5e5;stroke:#4c4c4c;stroke-width:2" cx="101" cy="366" r="20" /><path style="fill:#000" d="M91,326 l21,0 0,10 -21,0 0,-10z" /><path style="fill:#000" d="M60,364 l6,-20 9,3 -6,20 -9,-3z" /><path style="fill:#000" d="M86,405 l-17,-12 6,-8 16,12 -5,8z" /><path style="fill:#000" d="M133,393 l-16,12 -6,-7 16,-12 6,7z" /><path style="fill:#000" d="M137,344 l6,20 -9,3 -6,-19 9,-4z" /><path style="fill:#f2f2f2" d="M50,153 l-10,81 102,0 31,61 163,0 -10,-255 -143,0 -20,102 20,0 10,-92 102,0 0,82 -245,21z" /><path style="fill:#7f7f7f" d="M393,173 l106,0 0,194 -106,0 0,-194z" /><path style="fill:#b2b2b2" d="M411,173 l70,0 0,194 -70,0 0,-194z" /><path style="fill:#e5e5e5" d="M433,173 l27,0 0,194 -27,0 0,-194z" /><path style="fill:none;stroke:#4c4c4c;stroke-width:2" d="M393,173 l106,0 0,194 -106,0 0,-194" /><path style="fill:none;stroke:#4c4c4c;stroke-width:2" d="M393,234 l106,0" /><path style="fill:none;stroke:#4c4c4c;stroke-width:2" d="M393,300 l106,0" /><path style="fill:#666;stroke:#4c4c4c;stroke-width:2" d="M346,183 l41,0 0,163 -41,0 0,-163z" /><path style="fill:none;stroke:#4c4c4c;stroke-width:2" d="M50,153 l-10,81 102,0 31,61 163,0 -10,-255 -143,0 -20,102 -113,11" /><path style="fill:none;stroke:#4c4c4c;stroke-width:2" d="M183,142 l10,-92 102,0 0,82 -112,10" /><path style="fill:#d9d9d9;stroke:#4c4c4c;stroke-width:2" d="M336,0 l10,0 0,316 -10,0 0,-316z" /><path style="fill:none;stroke:#7f7f7f;stroke-width:2" d="M734,0 l1,0 1,2 1,3 0,5 1,5 1,6 1,8 1,8 0,9 1,10 0,10 1,11 0,12 0,12 1,13 0,13 0,13 -1,13 0,12 0,12 -1,11 0,10 -1,10 0,9 -1,8 -1,7 -1,7 -1,5 0,4 -1,4 -1,2 -1,0" /><path style="fill:none;stroke:#7f7f7f;stroke-width:2" d="M601,0 l1,0 1,2 1,3 1,5 1,5 0,6 1,8 1,8 1,9 0,10 1,10 0,11 1,12 0,12 0,13 0,13 0,13 0,13 0,12 -1,12 0,11 -1,10 0,10 -1,9 -1,8 -1,7 0,7 -1,5 -1,4 -1,4 -1,2 -1,0" /><path style="fill:none;stroke:#7f7f7f;stroke-width:2" d="M866,0 l1,0 1,2 1,3 1,5 1,5 1,6 1,8 0,8 1,9 1,10 0,10 1,11 0,12 0,12 0,13 0,13 0,13 0,13 0,12 0,12 -1,11 0,10 -1,10 -1,9 0,8 -1,7 -1,7 -1,5 -1,4 -1,4 -1,2 -1,0" /><path style="fill:#e5e5e5;stroke:#4c4c4c;stroke-width:2" d="M20,346 l10,-122 123,0 40,122 -61,-91 -82,0 -30,91z" /><path style="fill:#ccc;stroke:#4c4c4c;stroke-width:2" d="M0,295 l30,0 0,82 -30,0 0,-82z" /><path style="fill:#e5e5e5" d="M183,285 l-20,-132 142,-11 0,143 -122,0z" /><path style="fill:#000;stroke:#4c4c4c;stroke-width:2" d="M958,275 l10,0 0,142 -10,0 0,-142z" /><path style="fill:#7f7f7f;stroke:#4c4c4c;stroke-width:2" d="M581,153 l91,30 316,0 11,133 -31,0 0,-21 10,0 -10,-92 -306,0 -92,-30 11,-20z" /><path style="fill:#e5e5a5;stroke:#4c4c4c;stroke-width:2" d="M738,81 l36,36 -36,36 -35,-36 35,-36z" /><path style="fill:#ccc;stroke:#4c4c4c;stroke-width:2" d="M173,61 l20,0 0,10 -20,0 0,-10z" /><path style="fill:#ccc;stroke:#4c4c4c;stroke-width:2" d="M173,132 l10,0 0,10 -10,0 0,-10z" /><path style="fill:#e5e5e5;stroke:#4c4c4c;stroke-width:2" d="M153,50 l20,0 0,103 -20,0 0,-103z" /><path style="fill:#666;stroke:#4c4c4c;stroke-width:2" d="M693,356 l20,0 0,21 -20,0 0,-21z" /><path style="fill:#666;stroke:#4c4c4c;stroke-width:2" d="M856,356 l20,0 0,21 -20,0 0,-21z" /></svg>