<!DOCTYPE svg PUBLIC "-//W3C//DTD SVG 20000303 Stylable//EN" "http://www.w3.org/TR/2000/03/WD-SVG-20000303/DTD/svg-20000303-stylable.dtd"[]><svg xmlns="http://www.w3.org/2000/svg" width="999px" height="591px" viewBox="0 0 999 567"><path style="fill:#0f0;stroke:#4c4c4c;stroke-width:2" d="M305,28 l27,0 26,1 27,4 61,40 0,81 -16,-2 0,-41 -2,-5 -4,-3 -3,-1 -17,0 -4,1 -3,3 -1,5 0,41 -18,34 0,-33 -13,-2 0,-48 -2,-5 -3,-3 -5,-2 -3,0 -117,9 -5,1 -4,2 -3,3 -1,5 0,26 -24,2 0,-15 -2,-3 -4,-2 -25,0 -4,2 -2,4 -1,5 0,24 -6,2 0,-60 45,-41 16,-6 16,-5 8,-3 9,-3 16,-4 -1,2 -1,2 -2,2 0,6 1,2 1,3 1,1 0,12 -1,2 -2,3 0,5 1,2 1,3 1,1 1,3 1,3 2,3 2,1 2,1 11,0 3,-2 2,-3 1,-2 1,-3 0,-43 -1,-4 -1,-2 -2,-3 0,-1 20,-2z" /><path style="fill:none;stroke:#4c4c4c;stroke-width:2" d="M255,81 l-54,10 0,-30 54,-15 0,35" /><path style="fill:#000;stroke:#4c4c4c;stroke-width:2" d="M252,78 l-48,8 0,-22 48,-13 0,27z" /><path style="fill:none;stroke:#4c4c4c;stroke-width:2" d="M379,40 l0,35 -84,0 0,-35 84,0" /><ellipse style="fill:none;stroke:#4c4c4c;stroke-width:2" cx="276" cy="60" rx="13" ry="33" /><circle style="fill:#ff0;stroke:#4c4c4c;stroke-width:2" cx="270" cy="45" r="10" /><circle style="fill:#ff0;stroke:#4c4c4c;stroke-width:2" cx="270" cy="74" r="10" /><path style="fill:none;stroke:#4c4c4c;stroke-width:2" d="M285,51 l0,19 -5,-10 5,-9" /><path style="fill:#0ff;stroke:#4c4c4c;stroke-width:2" d="M222,139 l45,5 98,7 0,-48 -2,-5 -3,-3 -5,-2 -3,0 -117,9 -5,1 -4,2 -3,3 -1,5 0,26z" /><path style="fill:#0ff;stroke:#4c4c4c;stroke-width:2" d="M198,141 l-14,2 0,8 -24,5 0,-25 1,-4 2,-4 4,-2 25,0 4,2 2,3 0,15z" /><path style="fill:#0ff;stroke:#4c4c4c;stroke-width:2" d="M407,148 l-4,0 -3,1 -2,1 -2,2 0,-41 1,-5 3,-3 4,-1 17,0 3,1 4,3 2,5 0,41 -23,-4z" /><path style="fill:#0080ff;stroke:#4c4c4c;stroke-width:2" d="M184,160 l-44,8 -2,1 -2,1 -2,2 0,-11 20,-3 6,-2 24,-5 0,9z" /><path style="fill:#0080ff;stroke:#4c4c4c;stroke-width:2" d="M316,230 l0,-59 -1,-4 -1,-2 -3,-2 -12,-1 -50,-1 2,-6 2,-5 3,-3 5,-2 6,-1 98,7 13,2 0,8 -49,0 0,102 -13,-33z" /><path style="fill:#0080ff;stroke:#4c4c4c;stroke-width:2" d="M316,249 l0,79 13,0 0,-46 -13,-33z" /><path style="fill:#0f0;stroke:#4c4c4c;stroke-width:2" d="M136,170 l2,-1 2,-1 44,-8 0,27 60,-3 3,0 2,-23 50,1 -47,39 -57,0 0,17 -61,-46 2,-2z" /><path style="fill:#0f0;stroke:#4c4c4c;stroke-width:2" d="M205,225 l-3,-2 0,-14 42,0 -29,23 0,-13 -10,6z" /><path style="fill:#0f0;stroke:#4c4c4c;stroke-width:2" d="M215,225 l-6,4 6,4 0,-8z" /><path style="fill:#fff;stroke:#4c4c4c;stroke-width:2" d="M195,232 l-6,5 -13,5 -8,4 -10,1 -11,0 -3,-1 -3,-2 -2,-1 -3,-2 0,-35 -2,1 0,-35 61,46 0,14z" /><path style="fill:#fff;stroke:#4c4c4c;stroke-width:2" d="M202,228 l3,-3 -3,-2 0,5z" /><path style="fill:#fff;stroke:#4c4c4c;stroke-width:2" d="M136,268 l59,44 0,-74 -7,4 -15,6 -8,3 -8,1 -9,0 -4,-1 -4,-2 -4,-2 0,21z" /><path style="fill:#fff;stroke:#4c4c4c;stroke-width:2" d="M202,317 l0,-83 4,-4 3,-1 6,4 0,93 -13,-9z" /><path style="fill:#0f0;stroke:#4c4c4c;stroke-width:2" d="M136,328 l59,0 0,-16 -59,-44 0,60z" /><path style="fill:#0f0;stroke:#4c4c4c;stroke-width:2" d="M202,328 l13,0 0,-2 -13,-9 0,11z" /><path style="fill:#fff;stroke:#4c4c4c;stroke-width:2" d="M299,201 l3,1 2,2 2,1 1,2 1,2 8,21 0,-59 -1,-4 -1,-2 -3,-2 -12,-1 -47,39 47,0z" /><path style="fill:#fff;stroke:#4c4c4c;stroke-width:2" d="M283,282 l0,-74 17,0 16,41 0,13 -33,20z" /><path style="fill:#fff;stroke:#4c4c4c;stroke-width:2" d="M215,233 l0,95 60,-40 0,-79 -31,0 -29,23 0,1z" /><path style="fill:#0f0;stroke:#4c4c4c;stroke-width:2" d="M283,328 l33,0 0,-66 -33,20 0,46z" /><path style="fill:#0f0;stroke:#4c4c4c;stroke-width:2" d="M275,328 l-60,0 60,-40 0,40z" /><path style="fill:#008000;stroke:#4c4c4c;stroke-width:2" d="M329,282 l0,46 3,0 0,-37 -3,-9z" /><path style="fill:#0f0;stroke:#4c4c4c;stroke-width:2" d="M382,311 l0,17 -43,0 0,-36 -10,-29 0,-102 49,0 0,25 -14,26 0,60 1,2 -5,0 0,6 8,0 9,21 -29,0 0,6 32,0 2,4z" /><path style="fill:#0f0;stroke:#4c4c4c;stroke-width:2" d="M378,200 l0,74 -6,0 -1,-2 0,-58 7,-14z" /><path style="fill:#0f0;stroke:#4c4c4c;stroke-width:2" d="M378,274 l20,0 0,-2 14,0 0,-116 -9,-1 -1,1 -2,1 -1,2 -21,41 0,74z" /><path style="fill:#0f0;stroke:#4c4c4c;stroke-width:2" d="M446,275 l0,-114 -27,-3 0,115 27,2z" /><path style="fill:#0f0;stroke:#4c4c4c;stroke-width:2" d="M384,301 l14,0 0,-21 -23,0 9,21z" /><path style="fill:#0f0;stroke:#4c4c4c;stroke-width:2" d="M398,307 l0,22 -11,0 0,-22 11,0z" /><path style="fill:#0080ff;stroke:#00f;stroke-width:2" d="M398,272 l14,0 0,57 -14,0 0,-57z" /><path style="fill:#ff0;stroke:#4c4c4c;stroke-width:2" d="M365,274 l-5,0 0,6 8,0 -3,-6z" /><path style="fill:#ff0;stroke:#4c4c4c;stroke-width:2" d="M372,274 l26,0 0,6 -23,0 -3,-6z" /><path style="fill:#ff0;stroke:#4c4c4c;stroke-width:2" d="M377,301 l-29,0 0,6 32,0 -3,-6z" /><path style="fill:#ff0;stroke:#4c4c4c;stroke-width:2" d="M384,301 l14,0 0,6 -11,0 -3,-6z" /><path style="fill:#ff0;stroke:#4c4c4c;stroke-width:2" d="M111,208 l0,-40 23,3 0,5 -18,-3 0,35 -5,0z" /><path style="fill:#ff0;stroke:#4c4c4c;stroke-width:2" d="M111,215 l0,113 17,0 0,-53 -12,0 0,-61 -5,1z" /><path style="fill:#ff0;stroke:#4c4c4c;stroke-width:2" d="M136,241 l0,-35 -2,1 -18,1 -5,0 -41,4 -2,1 -1,1 0,3 1,2 2,0 0,147 6,0 0,-148 35,-3 5,-1 15,-1 0,22 2,3 3,3z" /><path style="fill:#ff0;stroke:#4c4c4c;stroke-width:2" d="M134,246 l-3,-3 0,85 5,0 0,-81 -2,-1z" /><path style="fill:#ff0;stroke:#4c4c4c;stroke-width:2" d="M215,219 l0,6 -6,4 -3,1 -4,4 -7,4 -7,4 -15,6 -8,3 -8,1 -9,0 -4,-1 -4,-2 -4,-2 -2,-1 -3,-3 0,85 -3,0 0,-98 3,5 2,3 3,3 3,2 2,1 3,2 3,1 11,0 10,-1 8,-4 13,-5 6,-5 7,-4 3,-3 10,-6z" /><path style="fill:#ff0;stroke:#4c4c4c;stroke-width:2" d="M195,238 l0,128 7,0 0,-132 -7,4z" /><path style="fill:#ff0;stroke:#4c4c4c;stroke-width:2" d="M202,228 l0,-19 73,0 0,154 8,0 0,-155 17,0 16,41 13,33 3,9 0,98 -8,0 0,9 8,0 0,23 3,11 4,18 0,-52 13,0 0,-9 -13,0 0,-97 -10,-29 -13,-33 -8,-21 -1,-2 -1,-2 -2,-1 -2,-2 -3,-1 -104,0 0,31 7,-4z" /><path style="fill:#ff0;stroke:#4c4c4c;stroke-width:2" d="M373,427 l9,0 0,-116 -2,-4 -3,-6 -9,-21 -3,-6 -1,-2 0,-60 14,-26 18,-34 2,-2 2,-1 3,-1 4,0 23,4 16,2 7,1 2,1 1,1 0,2 -1,2 -1,1 -8,-1 -27,-3 0,147 -7,0 0,-149 -9,-1 -1,1 -2,1 -1,2 -21,41 -7,14 0,58 1,2 3,6 9,21 3,6 0,125 -1,2 -2,1 -2,0 -5,1 -4,0 0,-9z" /><path style="fill:#ff0;stroke:#4c4c4c;stroke-width:2" d="M103,334 l0,-6 92,0 0,25 -23,-19 -69,0z" /><path style="fill:#ff0;stroke:#4c4c4c;stroke-width:2" d="M202,334 l0,-6 73,0 0,6 -73,0z" /><path style="fill:#ff0;stroke:#4c4c4c;stroke-width:2" d="M283,334 l0,-6 49,0 0,6 -49,0z" /><path style="fill:#ff0;stroke:#4c4c4c;stroke-width:2" d="M139,334 l-26,0 26,23 0,-23z" /><path style="fill:#0f0;stroke:#4c4c4c;stroke-width:2" d="M76,330 l27,0 0,4 10,0 26,23 0,-23 33,0 23,19 0,13 7,0 0,-32 73,0 0,29 8,0 0,-29 16,0 0,40 25,0 0,29 -1,-1 -68,16 0,-3 -208,-7 -11,-3 0,-33 21,0 0,-42 13,0 0,36 6,0 0,-36z" /><path style="fill:#80c2ff;stroke:#4c4c4c;stroke-width:2" d="M299,334 l0,40 25,0 0,15 8,0 0,-55 -33,0z" /><path style="fill:#0080ff;stroke:#4c4c4c;stroke-width:2" d="M324,403 l0,-5 8,0 0,23 -8,-18z" /><path style="fill:#000;stroke:#4c4c4c;stroke-width:2" d="M105,431 l3,-2 5,-1 5,-1 31,0 0,9 4,2 3,1 3,2 2,2 1,2 2,3 0,3 1,2 -1,3 0,3 -1,2 -2,3 -2,2 -3,2 -2,2 -3,1 -3,0 -5,1 0,-36 -2,-3 -2,-2 -3,-1 -3,-2 -5,-1 -10,0 -5,1 -5,1 -3,2 3,2 4,2 4,1 4,1 11,0 0,37 -9,0 -6,-1 0,12 63,0 0,-55 76,-12 0,-3 -208,-7 58,23z" /><path style="fill:#fff;stroke:#4c4c4c;stroke-width:2" d="M128,427 l5,1 3,2 3,1 2,2 2,3 0,36 5,-1 3,0 3,-1 2,-2 3,-2 2,-2 2,-3 1,-2 0,-3 1,-3 -1,-2 0,-3 -2,-3 -1,-2 -2,-2 -3,-2 -3,-1 -4,-2 0,-9 -26,0 5,0z" /><path style="fill:#000;stroke:#4c4c4c;stroke-width:2" d="M36,405 l11,3 58,23 3,2 4,2 4,1 4,1 11,0 0,37 -9,0 -6,-1 0,12 63,0 0,-55 76,-12 68,-16 1,1 8,18 3,11 4,18 0,15 -2,16 -2,7 -1,9 -7,16 -7,14 -53,14 -2,7 -2,6 -152,-6 -63,-9 3,-8 -23,-21 2,-22 0,-31 -3,-15 -4,-14 -7,-14 -8,-12 -5,-7 -3,-5 36,15z" /><path style="fill:#0f0;stroke:#4c4c4c;stroke-width:2" d="M337,481 l-2,7 -1,9 -7,16 -7,14 21,-4 0,-11 -1,-47 -1,-8 0,8 -2,16z" /><path style="fill:#ff0;stroke:#4c4c4c;stroke-width:2" d="M339,334 l0,-6 43,0 0,6 -43,0z" /><path style="fill:#80c2ff;stroke:#4c4c4c;stroke-width:2" d="M373,334 l-34,0 0,55 13,0 0,9 -13,0 0,52 24,0 0,7 -24,0 1,8 1,47 8,-1 33,-1 0,-2 -9,-23 0,-151z" /><path style="fill:#ff0;stroke:#4c4c4c;stroke-width:2" d="M363,450 l0,7 -24,0 0,-7 24,0z" /><path style="fill:#000;stroke:#4c4c4c;stroke-width:2" d="M382,517 l-25,4 -10,2 -6,0 0,-11 8,-1 33,-1 0,7z" /><path style="fill:#0080ff;stroke:#4c4c4c;stroke-width:2" d="M373,334 l0,93 9,0 0,-93 -9,0z" /><path style="fill:#0080ff;stroke:#4c4c4c;stroke-width:2" d="M387,329 l0,103 -1,2 -2,1 -2,0 -5,1 -4,0 0,49 9,-2 9,25 0,-179 -4,0z" /><path style="fill:#0080ff;stroke:#4c4c4c;stroke-width:2" d="M382,483 l-9,2 9,23 9,0 -9,-25z" /><path style="fill:#80c2ff;stroke:#4c4c4c;stroke-width:2" d="M268,23 l-1,-3 0,-6 1,-3 1,-3 3,-2 2,-2 4,-2 4,-1 5,-1 4,0 4,0 8,0 7,1 9,2 153,54 0,8 40,10 29,23 13,10 -11,0 -12,18 -60,-16 0,75 19,3 -32,46 90,126 -129,-3 0,-84 27,2 0,-114 8,1 1,-1 1,-2 0,-2 -1,-1 -2,-1 -7,-1 0,-81 -61,-40 -27,-4 -26,-1 -27,0 -20,2 -1,0 -3,-2 -2,-1 -6,0 -3,1 -2,-5z" /><path style="fill:#000;stroke:#4c4c4c;stroke-width:2" d="M531,126 l-60,-16 0,75 19,3 41,8 0,-70z" /><path style="fill:#fff;stroke:#fff;stroke-width:2" d="M480,179 l0,-61 15,5 0,59 -15,-3z" /><path style="fill:#fff;stroke:#fff;stroke-width:2" d="M501,179 l0,-53 22,5 0,53 -22,-5z" /><path style="fill:#80c2ff;stroke:#4c4c4c;stroke-width:2" d="M490,188 l41,8 0,-70 12,-18 11,0 0,71 -6,-2 0,4 6,2 0,104 37,3 7,0 -50,70 -90,-126 32,-46z" /><path style="fill:#000;stroke:#4c4c4c;stroke-width:2" d="M653,207 l0,116 -2,0 0,39 -103,-2 50,-70 8,1 1,0 0,-95 4,1 0,95 38,2 0,-88 4,1z" /><path style="fill:#80c2ff;stroke:#4c4c4c;stroke-width:2" d="M419,357 l0,-52 -7,0 0,24 -21,0 0,179 6,-2 8,-57 3,-28 2,-24 241,-7 0,-28 -103,-2 -129,-3z" /><path style="fill:#000;stroke:#4c4c4c;stroke-width:2" d="M564,475 l25,0 0,-9 5,-3 5,-6 3,-7 1,-8 0,-7 -2,-8 -3,-6 -5,-6 -7,-2 -7,-1 0,-15 -8,0 0,13 -23,2 -9,1 -6,2 -4,5 -15,35 -11,1 0,-30 -25,0 0,32 -7,0 -20,-29 -3,-3 -4,-3 -6,-2 -30,0 2,-24 241,-7 0,-12 239,-1 3,56 -5,10 -4,8 -41,-2 5,-1 4,-33 14,0 1,-22 -11,0 -5,1 -4,3 -2,5 -5,17 -2,-17 -2,-5 -5,-3 -17,1 -5,0 -4,2 -3,3 0,56 3,-1 -1,6 -2,5 -4,4 -5,2 -4,-1 -4,-2 -4,-4 -2,-5 0,-7 16,-23 -2,-36 -146,6 5,2 2,3 0,37 -32,51 -43,2 0,-5 -27,1 0,-8 2,-8 4,-7 6,-5 0,12z" /><path style="fill:#000;stroke:#4c4c4c;stroke-width:2" d="M382,517 l0,-9 9,0 6,-2 8,-57 31,0 13,22 -4,2 -3,1 -3,2 -3,4 -1,3 -2,3 -2,4 -1,3 0,26 -29,4 -19,1 0,-7z" /><path style="fill:#80c2ff;stroke:#4c4c4c;stroke-width:2" d="M508,498 l-40,4 -19,-31 -4,2 -3,1 -3,2 -3,4 -1,3 -2,3 -2,4 -1,3 0,21 78,-12 0,-4z" /><path style="fill:#80c2ff;stroke:#4c4c4c;stroke-width:2" d="M571,455 l-7,0 0,8 -6,5 -4,7 -2,8 0,8 27,-1 0,6 -24,2 -11,0 -1,-8 -4,-10 -4,-6 -3,-5 14,-31 25,-2 0,19z" /><path style="fill:#000;stroke:#4c4c4c;stroke-width:2" d="M408,421 l30,0 6,2 4,3 3,3 20,29 7,0 0,-32 25,0 0,30 11,-1 15,-35 4,-5 6,-2 9,-1 23,-2 0,26 -25,2 -14,31 -13,27 -2,1 -9,1 -40,4 -19,-31 -13,-22 -31,0 3,-28z" /><path style="fill:#000;stroke:#4c4c4c;stroke-width:2" d="M579,455 l0,-43 7,1 7,2 5,6 3,6 2,8 0,7 -1,8 -3,7 -5,6 -5,3 0,-11 -10,0z" /><path style="fill:#000;stroke:#4c4c4c;stroke-width:2" d="M490,456 l4,0 0,-19 -4,0 0,19z" /><path style="fill:#000;stroke:#4c4c4c;stroke-width:2" d="M579,455 l-8,0 0,-58 8,0 0,58z" /><path style="fill:#000;stroke:#4c4c4c;stroke-width:2" d="M582,475 l-18,0 0,-20 18,0 0,20z" /><path style="fill:#fff;stroke:#4c4c4c;stroke-width:2" d="M582,455 l0,20 7,0 0,-20 -7,0z" /><ellipse style="fill:#000;stroke:#4c4c4c;stroke-width:2" cx="418" cy="487" rx="7" ry="18" /><ellipse style="fill:#fff;stroke:#4c4c4c;stroke-width:2" cx="413" cy="485" rx="6" ry="16" /><path style="fill:#0f0;stroke:#4c4c4c;stroke-width:2" d="M647,400 l5,2 2,3 0,37 141,-12 -2,-36 -146,6z" /><path style="fill:#80c2ff;stroke:#4c4c4c;stroke-width:2" d="M795,430 l-141,12 -32,51 147,-25 5,-8 5,-7 16,-23z" /><path style="fill:#000;stroke:#4c4c4c;stroke-width:2" d="M802,417 l12,0 0,-22 -5,0 -4,2 -3,3 0,17z" /><path style="fill:#000;stroke:#4c4c4c;stroke-width:2" d="M814,417 l5,0 10,34 14,-2 5,-1 4,-33 14,0 1,-22 -11,0 -5,1 -4,3 -2,5 -5,17 -2,-17 -2,-5 -5,-3 -17,1 0,22z" /><path style="fill:#000;stroke:#4c4c4c;stroke-width:2" d="M843,449 l-14,2 -10,-34 -17,0 0,39 3,-1 10,-1 5,-1 2,5 3,4 5,2 5,-1 3,-2 4,-5 1,-5 0,-2z" /><path style="fill:#fff;stroke:#4c4c4c;stroke-width:2" d="M779,453 l0,7 2,5 4,4 4,2 -6,0 -5,-2 -3,-3 -1,-6 5,-7z" /><path style="fill:#fff;stroke:#4c4c4c;stroke-width:2" d="M820,453 l2,5 3,4 5,2 -5,0 -4,-1 -4,-3 -2,-6 5,-1z" /><path style="fill:#000;stroke:#4c4c4c;stroke-width:2" d="M382,524 l0,-7 -25,4 0,3 1,4 1,4 1,4 2,3 2,3 3,2 2,2 3,2 3,1 6,0 3,-1 3,-1 3,-2 5,-5 2,-3 1,-4 2,-4 0,-3 1,-3 -19,1z" /><path style="fill:#fff;stroke:#4c4c4c;stroke-width:2" d="M347,523 l0,5 1,4 2,4 2,3 1,3 3,2 3,2 3,2 3,1 13,0 -3,0 -3,-1 -3,-2 -2,-2 -3,-2 -2,-3 -2,-3 -1,-4 -1,-4 -1,-4 0,-3 -10,2z" /><path style="fill:#fff;stroke:#4c4c4c;stroke-width:2" d="M508,498 l0,4 2,4 1,4 2,4 2,2 2,3 3,2 3,1 3,1 9,0 -3,-1 -3,-1 -7,-7 -1,-4 -2,-4 -1,-4 -1,-5 -9,1z" /><path style="fill:#000;stroke:#4c4c4c;stroke-width:2" d="M544,498 l-1,-8 -4,-10 -4,-6 -3,-5 -13,27 -2,1 1,5 1,4 2,4 1,4 7,7 3,1 3,1 3,0 3,-1 2,-1 3,-2 2,-3 3,-3 1,-3 2,-4 0,-5 1,-3 -11,0z" /><path style="fill:#80c2ff;stroke:#4c4c4c;stroke-width:2" d="M554,108 l0,56 311,87 0,-26 -77,-26 20,-5 0,-22 -3,-4 -7,-4 -8,-2 -3,0 -42,-2 -204,-62 13,10z" /><path style="fill:#0f0;stroke:#4c4c4c;stroke-width:2" d="M865,225 l-77,-26 20,-5 0,-22 -3,-4 78,26 0,26 -18,5z" /><path style="fill:#80c2ff;stroke:#4c4c4c;stroke-width:2" d="M865,284 l-188,-30 -13,-48 -110,-27 0,-15 311,87 0,33z" /><path style="fill:#ff0;stroke:#4c4c4c;stroke-width:2" d="M888,292 l0,75 4,1 0,-79 -27,-5 -188,-30 -13,-48 -110,-27 -6,-2 0,4 6,2 53,13 4,1 38,9 4,1 8,2 13,48 15,2 41,7 37,6 30,5 31,5 33,5 4,1 23,4z" /><path style="fill:#80c2ff;stroke:#4c4c4c;stroke-width:2" d="M607,196 l0,95 -1,0 -8,-1 -7,0 0,-66 -37,-7 0,-34 53,13z" /><path style="fill:#000;stroke:#4c4c4c;stroke-width:2" d="M591,290 l0,-66 -37,-7 0,70 37,3z" /><path style="fill:#80c2ff;stroke:#4c4c4c;stroke-width:2" d="M611,292 l0,-95 38,9 0,88 -38,-2z" /><path style="fill:#80c2ff;stroke:#4c4c4c;stroke-width:2" d="M653,207 l0,116 -2,0 0,19 33,1 5,0 37,1 4,0 33,1 4,0 26,1 4,0 28,1 3,0 30,1 7,0 0,-60 -4,-1 -33,-5 -31,-5 -30,-5 -37,-6 -41,-7 -15,-2 -13,-48 -8,-2z" /><path style="fill:#0f0;stroke:#4c4c4c;stroke-width:2" d="M890,377 l3,56 3,2 4,-2 -2,-31 0,-34 -6,0 -4,-1 0,-19 -30,0 -30,-1 -3,0 -28,-1 -4,0 -26,-1 -4,0 -33,-1 -4,0 -37,-1 -5,0 -33,-1 0,36 239,-1z" /><path style="fill:#ff0;stroke:#4c4c4c;stroke-width:2" d="M892,308 l15,27 -1,65 -8,2 0,-34 1,-31 -7,-12 0,-17z" /><path style="fill:#000;stroke:#4c4c4c;stroke-width:2" d="M508,502 l2,4 1,4 2,4 2,2 2,3 3,2 3,1 3,1 12,0 3,-1 2,-1 3,-2 2,-3 3,-3 1,-3 2,-4 0,-5 1,-3 24,-2 0,-1 43,-2 147,-25 5,-8 1,6 3,3 5,2 6,0 4,1 5,-2 4,-4 2,-5 1,-6 10,-1 2,6 4,3 4,1 5,0 5,-1 3,-2 4,-5 1,-5 0,-2 41,2 4,-8 111,0 -519,124 -414,0 -7,-9 52,-10 152,6 2,-6 2,-7 53,-14 21,-4 6,0 0,5 1,4 2,4 2,3 1,3 3,2 3,2 3,2 3,1 16,0 3,-1 3,-1 3,-2 5,-5 2,-3 1,-4 2,-4 0,-3 1,-3 29,-4 0,-5 78,-12z" /><path style="fill:none;stroke:#4c4c4c;stroke-width:2" d="M222,139 l19,-1 26,6" /><path style="fill:none;stroke:#4c4c4c;stroke-width:2" d="M244,139 l0,44" /><path style="fill:none;stroke:#4c4c4c;stroke-width:2" d="M332,398 l0,-9" /><path style="fill:none;stroke:#4c4c4c;stroke-width:2" d="M339,389 l0,9" /><path style="fill:none;stroke:#4c4c4c;stroke-width:2" d="M105,431 l-2,0 0,35 5,4 3,1 2,1 3,1" /><path style="fill:none;stroke:#4c4c4c;stroke-width:2" d="M30,473 l117,28 188,-13" /><path style="fill:none;stroke:#4c4c4c;stroke-width:2" d="M412,156 l7,2" /><path style="fill:none;stroke:#4c4c4c;stroke-width:2" d="M554,164 l-6,-1" /><path style="fill:none;stroke:#4c4c4c;stroke-width:2" d="M606,291 l0,31 5,0 0,-30" /><path style="fill:none;stroke:#4c4c4c;stroke-width:2" d="M649,294 l0,29 2,0" /><path style="fill:none;stroke:#4c4c4c;stroke-width:2" d="M684,343 l0,22" /><path style="fill:none;stroke:#4c4c4c;stroke-width:2" d="M689,259 l0,106" /><path style="fill:none;stroke:#4c4c4c;stroke-width:2" d="M726,365 l0,-21" /><path style="fill:none;stroke:#4c4c4c;stroke-width:2" d="M730,365 l0,-99" /><path style="fill:none;stroke:#4c4c4c;stroke-width:2" d="M763,345 l0,21" /><path style="fill:none;stroke:#4c4c4c;stroke-width:2" d="M767,272 l0,94" /><path style="fill:none;stroke:#4c4c4c;stroke-width:2" d="M793,366 l0,-20" /><path style="fill:none;stroke:#4c4c4c;stroke-width:2" d="M797,366 l0,-89" /><path style="fill:none;stroke:#4c4c4c;stroke-width:2" d="M825,347 l0,20" /><path style="fill:none;stroke:#4c4c4c;stroke-width:2" d="M828,282 l0,85" /><path style="fill:none;stroke:#4c4c4c;stroke-width:2" d="M858,367 l0,-19" /><path style="fill:none;stroke:#4c4c4c;stroke-width:2" d="M861,367 l0,-80" /><path style="fill:none;stroke:#4c4c4c;stroke-width:2" d="M885,348 l0,19" /><path style="fill:none;stroke:#4c4c4c;stroke-width:2" d="M653,316 l36,3 41,2 37,3 30,2 31,2 33,2 4,1" /><path style="fill:none;stroke:#4c4c4c;stroke-width:2" d="M898,402 l-2,-27" /><path style="fill:#00f;stroke:#4c4c4c;stroke-width:2" d="M241,138 l3,1 0,45 3,0 2,-23 2,-6 2,-5 3,-3 5,-2 6,-1 -26,-6z" /><path style="fill:#0080ff;stroke:#4c4c4c;stroke-width:2" d="M222,139 l-24,2 -14,2 0,44 60,-3 0,-45 -3,-1 -19,1z" /><circle style="fill:#fff;stroke:#4c4c4c;stroke-width:2" cx="209" cy="161" r="13" /><path style="fill:#00f;stroke:#4c4c4c;stroke-width:2" d="M201,151 l0,-1 1,-1 2,-1 2,-1 2,-1 8,0 1,1 2,1 2,0 3,3 1,2 1,1 0,2 1,2 0,8 -1,2 0,2 -1,2 -1,1 -2,1 -1,2 -2,1 -2,0 -1,1 -2,1 -3,0 -1,-1 -2,0 -2,-1 -2,-1 -2,-1 -1,-1 -1,-2 -1,-1 -1,-2 -1,-2 0,-3 0,4 2,1 1,2 2,2 2,1 2,0 1,1 5,0 2,-1 2,-1 1,-1 2,-1 1,-1 1,-2 1,-1 0,-4 1,-2 -1,-2 0,-3 -1,-2 -1,-1 -1,-2 -2,-1 -1,-1 -2,-1 -8,0 -2,1 -2,0 -1,2z" /><path style="fill:none;stroke:#4c4c4c;stroke-width:2" d="M212,161 l-11,-1" /><path style="fill:none;stroke:#4c4c4c;stroke-width:2" d="M212,161 l-5,9" /><path style="fill:#000;stroke:#4c4c4c;stroke-width:2" d="M375,45 l0,26 -76,0 0,-26 76,0z" /></svg>