<!DOCTYPE svg PUBLIC "-//W3C//DTD SVG 20000303 Stylable//EN" "http://www.w3.org/TR/2000/03/WD-SVG-20000303/DTD/svg-20000303-stylable.dtd"[]><svg xmlns="http://www.w3.org/2000/svg" width="956px" height="998px" viewBox="0 0 954 999"><path style="fill:#666;stroke:#4c4c4c;stroke-width:2" d="M52,217 l0,607 -20,0 0,-607 20,0z" /><path style="fill:#666;stroke:#4c4c4c;stroke-width:2" d="M30,10 l22,207 -20,0 -22,-207 20,0z" /><path style="fill:#191919" d="M42,836 l912,0 0,-12 -912,0 0,12z" /><path style="fill:#ccc;stroke:#4c4c4c;stroke-width:2" d="M42,781 l912,0 0,43 -912,0 0,-43z" /><circle style="fill:#333;stroke:#4c4c4c;stroke-width:2" cx="123" cy="917" r="81" /><circle style="fill:#000" cx="123" cy="917" r="61" /><path style="fill:#999;stroke:#4c4c4c;stroke-width:2" d="M134,917 l-11,20 -10,-20 0,-93 21,0 0,93z" /><circle style="fill:#333;stroke:#4c4c4c;stroke-width:2" cx="872" cy="917" r="81" /><circle style="fill:#000" cx="872" cy="917" r="60" /><path style="fill:#999;stroke:#4c4c4c;stroke-width:2" d="M883,917 l-10,20 -11,-20 0,-93 21,0 0,93z" /><path style="fill:#7f7f7f" d="M42,217 l0,619 -22,0 0,-619 22,0z" /><path style="fill:#999" d="M40,217 l0,619 -18,0 0,-619 18,0z" /><path style="fill:#b2b2b2" d="M38,217 l0,619 -14,0 0,-619 14,0z" /><path style="fill:#ccc" d="M36,217 l0,619 -10,0 0,-619 10,0z" /><path style="fill:#e5e5e5" d="M34,217 l0,619 -6,0 0,-619 6,0z" /><path style="fill:#fff" d="M32,217 l0,619 -2,0 0,-619 2,0z" /><path style="fill:none;stroke:#4c4c4c;stroke-width:2" d="M42,217 l0,619 -22,0 0,-619 22,0" /><path style="fill:#7f7f7f" d="M20,0 l22,217 -22,0 -20,-217 20,0z" /><path style="fill:#999" d="M18,0 l22,217 -18,0 -22,-217 18,0z" /><path style="fill:#b2b2b2" d="M16,0 l22,217 -14,0 -22,-217 14,0z" /><path style="fill:#ccc" d="M14,0 l22,217 -10,0 -23,-217 11,0z" /><path style="fill:#e5e5e5" d="M12,0 l22,217 -6,0 -22,-217 6,0z" /><path style="fill:#fff" d="M12,0 l20,217 -2,0 -23,-217 5,0z" /><path style="fill:none;stroke:#4c4c4c;stroke-width:2" d="M20,0 l22,217 -22,0 -20,-217 20,0" /></svg>