<!DOCTYPE svg PUBLIC "-//W3C//DTD SVG 20000303 Stylable//EN" "http://www.w3.org/TR/2000/03/WD-SVG-20000303/DTD/svg-20000303-stylable.dtd"[]><svg xmlns="http://www.w3.org/2000/svg" width="569px" height="998px" viewBox="0 0 500 918"><path style="fill:#804000;stroke:#4c4c4c;stroke-width:2" d="M390,835 l-280,0 0,83 -54,0 0,-83 -56,0 0,-56 56,0 0,-82 -56,0 0,-56 56,0 0,-85 -56,1 0,-55 56,0 0,-85 -56,0 0,-54 56,0 0,-85 -56,0 0,-55 56,0 0,-84 -56,0 0,-56 56,0 0,-83 54,0 0,83 280,0 0,-83 54,0 0,83 56,0 0,56 -56,0 0,84 56,0 0,55 -56,0 0,85 56,0 0,54 -56,0 0,85 56,0 0,55 -56,0 0,84 56,0 0,56 -56,0 0,82 56,0 0,56 -56,0 0,83 -54,0 0,-83z" /><path style="fill:#804000;stroke:#4c4c4c;stroke-width:2" d="M67,0 l0,918 32,0 0,-918 -32,0z" /><path style="fill:#804000;stroke:#4c4c4c;stroke-width:2" d="M401,0 l0,918 32,0 0,-918 -32,0z" /><path style="fill:#804000;stroke:#4c4c4c;stroke-width:2" d="M110,223 l280,0 0,-84 -280,0 0,84z" /><path style="fill:#804000;stroke:#4c4c4c;stroke-width:2" d="M110,779 l280,0 0,-84 -280,2 0,82z" /><path style="fill:#804000;stroke:#4c4c4c;stroke-width:2" d="M110,641 l280,0 0,-84 -280,-1 0,85z" /><path style="fill:#804000;stroke:#4c4c4c;stroke-width:2" d="M110,502 l280,0 0,-85 -280,0 0,85z" /><path style="fill:#804000;stroke:#4c4c4c;stroke-width:2" d="M110,363 l280,0 0,-85 -280,0 0,85z" /></svg>