<!DOCTYPE svg PUBLIC "-//W3C//DTD SVG 20000303 Stylable//EN" "http://www.w3.org/TR/2000/03/WD-SVG-20000303/DTD/svg-20000303-stylable.dtd"[]><svg xmlns="http://www.w3.org/2000/svg" width="399px" height="999px" viewBox="0 0 363 999"><circle style="fill:#4c4c4c" cx="181" cy="15" r="14" /><circle style="fill:#999" cx="181" cy="15" r="14" /><circle style="fill:#b2b2b2" cx="181" cy="13" r="14" /><ellipse style="fill:#ccc" cx="179" cy="13" rx="12" ry="10" /><circle style="fill:#e5e5e5" cx="177" cy="13" r="10" /><circle style="fill:none;stroke:#4c4c4c;stroke-width:2" cx="181" cy="15" r="14" /><circle style="fill:#fff" cx="175" cy="11" r="8" /><path style="fill:#999" d="M167,967 l0,-944 0,944z" /><path style="fill:#e5e5e5" d="M167,967 l8,0 0,-944 -8,0 0,944z" /><path style="fill:#ccc" d="M175,967 l4,0 0,-944 -4,0 0,944z" /><path style="fill:#b2b2b2" d="M179,967 l8,0 0,-944 -8,0 0,944z" /><path style="fill:#999" d="M187,967 l4,0 0,-944 -4,0 0,944z" /><path style="fill:#4c4c4c" d="M191,967 l4,0 0,-944 -4,0 0,944z" /><path style="fill:#fff" d="M171,967 l4,0 0,-944 -4,0 0,944z" /><path style="fill:none;stroke:#4c4c4c;stroke-width:2" d="M167,23 l28,0 0,944 -28,0 0,-944" /><path style="fill:#999" d="M67,351 l0,4 228,0 0,-4 -228,0z" /><path style="fill:#e5e5e5" d="M67,355 l0,4 228,0 0,-4 -228,0z" /><path style="fill:#ccc" d="M67,359 l0,4 228,0 0,-4 -228,0z" /><path style="fill:#b2b2b2" d="M67,363 l0,4 228,0 0,-4 -228,0z" /><path style="fill:#999" d="M67,367 l0,4 228,0 0,-4 -228,0z" /><path style="fill:#4c4c4c" d="M67,371 l0,4 228,0 0,-4 -228,0z" /><path style="fill:#fff" d="M67,355 l0,4 228,0 0,-4 -228,0z" /><path style="fill:none;stroke:#4c4c4c;stroke-width:2" d="M295,351 l0,24 -228,0 0,-24 228,0" /><path style="fill:#000;stroke:#4c4c4c;stroke-width:2" d="M47,239 l216,-216 52,56 -216,212 -52,-52z" /><path style="fill:#e5e5e5;stroke:#4c4c4c;stroke-width:2" d="M59,239 l204,-204 40,44 -204,200 -40,-40z" /><path style="fill:#000;stroke:#4c4c4c;stroke-width:2" d="M99,27 l216,216 -52,52 -216,-216 52,-52z" /><path style="fill:#fff;stroke:#4c4c4c;stroke-width:2" d="M99,39 l204,204 -40,40 -204,-204 40,-40z" /><circle style="fill:#4c4c4c;stroke:#4c4c4c;stroke-width:2" cx="295" cy="407" r="68" /><circle style="fill:#4c4c4c;stroke:#4c4c4c;stroke-width:2" cx="67" cy="407" r="67" /><path style="fill:#333" d="M359,423 l-40,-40 1,1 1,1 0,1 1,1 1,2 0,1 1,2 1,2 0,1 1,2 0,2 1,1 0,2 0,2 0,2 0,1 0,4 -1,3 0,3 -2,3 -1,3 -2,3 -2,2 -2,3 -2,2 -3,1 -2,2 -3,1 -3,1 -3,1 -3,0 -3,0 -1,0 -2,0 -2,0 -1,-1 -2,0 -2,0 -2,-1 -1,0 -2,-1 -2,-1 -1,0 -1,-1 -2,-1 -1,0 -1,-1 -1,-1 40,40 5,-1 4,-1 4,-2 4,-2 4,-2 4,-3 3,-2 4,-3 3,-4 3,-3 2,-4 2,-4 2,-4 2,-4 1,-4 1,-5z" /><path style="fill:#333" d="M135,423 l-44,-40 2,1 1,1 1,1 1,1 1,2 0,1 1,2 0,2 1,1 0,2 0,2 0,1 0,2 0,2 0,2 0,1 0,4 0,3 -1,3 -1,3 -1,3 -1,3 -2,2 -2,3 -2,2 -3,1 -2,2 -3,1 -3,1 -3,1 -4,0 -4,0 -1,0 -2,0 -1,0 -2,-1 -1,0 -2,0 -1,-1 -2,0 -1,-1 -2,-1 -1,0 -2,-1 -1,-1 -2,0 -1,-1 -2,-1 40,40 5,-1 4,-1 4,-2 5,-2 4,-2 3,-3 4,-2 3,-3 4,-4 3,-3 3,-4 2,-4 3,-4 2,-4 2,-4 1,-5z" /><path style="fill:#000;stroke:#4c4c4c;stroke-width:2" d="M295,407 l-48,0 1,-4 0,-5 2,-4 1,-4 2,-4 3,-3 3,-4 3,-3 4,-3 3,-2 4,-2 5,-2 4,-2 4,-1 5,-1 4,0 5,0 4,1 4,1 4,2 4,2 4,2 3,2 3,3 3,3 3,4 2,3 2,4 1,4 1,4 1,5 0,4 -44,0z" /><path style="fill:#000;stroke:#4c4c4c;stroke-width:2" d="M67,407 l-44,0 1,-4 0,-5 1,-4 2,-4 2,-4 2,-3 3,-4 2,-3 4,-3 3,-2 4,-2 3,-2 4,-2 5,-1 4,-1 4,0 5,0 4,1 4,1 4,2 4,2 4,2 3,2 3,3 3,3 3,4 2,3 2,4 1,4 2,4 0,5 0,4 -44,0z" /><circle style="fill:#900;stroke:#4c4c4c;stroke-width:2" cx="293" cy="409" r="34" /><circle style="fill:#900;stroke:#4c4c4c;stroke-width:2" cx="69" cy="409" r="34" /><path style="fill:#7f7f7f;stroke:#4c4c4c;stroke-width:2" d="M127,967 l108,0 0,16 -108,0 0,-16z" /><path style="fill:#4c4c4c;stroke:#4c4c4c;stroke-width:2" d="M119,983 l124,0 0,16 -124,0 0,-16z" /><path style="fill:none;stroke:#fff;stroke-width:2" d="M119,999 l0,-16 8,0 0,-16 108,0" /><path style="fill:none;stroke:#fff;stroke-width:2" d="M235,983 l8,0" /></svg>