<!DOCTYPE svg PUBLIC "-//W3C//DTD SVG 20000303 Stylable//EN" "http://www.w3.org/TR/2000/03/WD-SVG-20000303/DTD/svg-20000303-stylable.dtd"[]><svg xmlns="http://www.w3.org/2000/svg" width="999px" height="350px" viewBox="0 0 999 311"><path style="fill:#000;stroke:#4c4c4c;stroke-width:2" d="M42,247 l914,0 0,43 -123,0 0,-21 -663,0 0,21 -128,0 0,-43z" /><path style="fill:#4c4c4c;stroke:#4c4c4c;stroke-width:2" d="M948,247 l-901,0 -2,0 -2,0 -3,-1 -2,-1 -3,-1 -2,-2 -2,-1 -2,-2 -2,-2 -2,-3 -3,-2 -1,-3 -2,-3 -2,-3 -2,-4 -2,-3 -1,-4 -2,-4 -1,-4 -1,-4 -2,-4 -1,-5 -1,-4 -1,-5 -1,-5 0,-5 -1,-5 -1,-5 0,-5 0,-5 0,-6 0,-5 0,-6 0,-6 0,-5 0,-6 1,-5 1,-5 0,-6 1,-5 1,-5 1,-4 1,-5 2,-5 1,-4 1,-4 2,-4 1,-4 2,-4 2,-3 2,-4 2,-3 1,-3 3,-3 2,-2 2,-2 2,-2 2,-2 2,-2 3,-1 2,-1 3,-1 2,0 2,0 901,0 2,0 3,0 2,1 3,1 2,1 2,2 3,2 2,2 2,2 2,2 3,3 2,3 2,3 2,4 1,3 2,4 2,4 2,4 1,4 2,4 1,5 1,5 1,4 1,5 1,5 1,6 1,5 0,5 1,6 0,5 0,6 1,6 -1,5 0,6 0,5 -1,5 0,5 -1,5 -1,5 -1,5 -1,5 -1,4 -1,5 -1,4 -2,4 -1,4 -2,4 -2,4 -2,3 -1,4 -2,3 -2,3 -2,3 -3,2 -2,3 -2,2 -2,2 -3,1 -2,2 -2,1 -3,1 -2,1 -3,0 -2,0z" /><path style="fill:#4c4c4c;stroke:#4c4c4c;stroke-width:2" d="M852,253 l120,0 0,37 -120,0 0,-37z" /><path style="fill:#4c4c4c;stroke:#4c4c4c;stroke-width:2" d="M26,253 l120,0 0,37 -120,0 0,-37z" /><path style="fill:#666" d="M951,237 l-1,-1 -1,-1 -1,-1 -1,-1 -1,-1 -1,-2 -1,-1 -1,-2 -1,-2 -1,-2 -1,-2 -1,-2 -1,-3 -1,-3 -1,-2 0,-3 -1,-3 -1,-3 -1,-3 -1,-3 0,-4 -1,-3 0,-4 -1,-3 -1,-4 0,-3 -1,-4 0,-4 -1,-4 0,-4 0,-4 0,-4 -858,0 0,4 -1,4 0,4 -1,4 0,4 0,4 -1,3 -1,4 0,3 -1,4 0,3 -1,4 -1,3 -1,3 0,3 -1,3 -1,3 -1,2 -1,3 -1,3 -1,2 0,2 -1,2 -1,2 -1,2 -1,1 -1,2 -1,1 -1,1 -1,1 -1,1 -1,1 906,0z" /><path style="fill:#7f7f7f" d="M45,42 l1,1 1,0 1,1 1,2 1,1 1,1 1,2 1,2 1,2 1,2 0,2 1,2 1,3 1,2 1,3 1,3 1,3 0,3 1,3 1,3 1,3 0,4 1,3 0,4 1,3 1,4 0,4 0,4 1,4 0,3 1,4 0,4 858,0 0,-4 0,-4 0,-3 1,-4 0,-4 1,-4 0,-4 1,-3 1,-4 0,-3 1,-4 0,-3 1,-3 1,-3 1,-3 1,-3 0,-3 1,-3 1,-2 1,-3 1,-2 1,-2 1,-2 1,-2 1,-2 1,-2 1,-1 1,-1 1,-2 1,-1 1,0 1,-1 -906,0z" /><circle style="fill:#333;stroke:#4c4c4c;stroke-width:2" cx="971" cy="283" r="28" /><ellipse style="fill:#333;stroke:#4c4c4c;stroke-width:2" cx="854" cy="283" rx="26" ry="28" /><ellipse style="fill:#333;stroke:#4c4c4c;stroke-width:2" cx="143" cy="283" rx="26" ry="28" /><circle style="fill:#333;stroke:#4c4c4c;stroke-width:2" cx="27" cy="283" r="27" /><path style="fill:#333;stroke:#4c4c4c;stroke-width:2" d="M434,31 l128,0 0,-31 -128,0 0,31z" /><path style="fill:#191919" d="M45,237 l906,0 0,10 -906,0 0,-10z" /><path style="fill:none;stroke:#4c4c4c;stroke-width:2" d="M167,269 l0,-208" /><path style="fill:none;stroke:#4c4c4c;stroke-width:2" d="M333,269 l0,-208" /><path style="fill:none;stroke:#4c4c4c;stroke-width:2" d="M498,269 l0,-208" /><path style="fill:none;stroke:#4c4c4c;stroke-width:2" d="M666,269 l0,-208" /><path style="fill:none;stroke:#4c4c4c;stroke-width:2" d="M833,269 l0,-208" /></svg>