<!DOCTYPE svg PUBLIC "-//W3C//DTD SVG 20000303 Stylable//EN" "http://www.w3.org/TR/2000/03/WD-SVG-20000303/DTD/svg-20000303-stylable.dtd"[]><svg xmlns="http://www.w3.org/2000/svg" width="999px" height="327px" viewBox="0 0 999 287"><path style="fill:#999;stroke:#4c4c4c;stroke-width:2" d="M10,194 l978,0 0,29 -978,0 0,-29z" /><path style="fill:#fff;stroke:#4c4c4c;stroke-width:2" d="M0,5 l0,40 85,85 0,64 828,0 0,-64 86,-85 0,-40 -999,0z" /><path style="fill:#000;stroke:#4c4c4c;stroke-width:2" d="M42,226 l914,0 5,13 -2,0 -8,0 -12,0 -17,0 -21,0 -24,0 -28,0 -31,0 -33,0 -36,0 -38,0 -39,0 -41,0 -42,0 -42,0 -43,0 -43,0 -43,0 -42,0 -41,0 -39,0 -38,0 -36,0 -34,0 -31,0 -28,0 -25,0 -21,0 -17,0 -13,0 -8,0 -3,0 0,-13z" /><path style="fill:#ccc" d="M93,13 l8,0 0,168 -8,0 0,-168z" /><path style="fill:#ccc" d="M157,13 l5,0 0,168 -5,0 0,-168z" /><path style="fill:#ccc" d="M221,13 l5,0 0,168 -5,0 0,-168z" /><path style="fill:#ccc" d="M282,13 l5,0 0,168 -5,0 0,-168z" /><path style="fill:#ccc" d="M346,13 l5,0 0,168 -5,0 0,-168z" /><path style="fill:#ccc" d="M410,13 l5,0 0,168 -5,0 0,-168z" /><path style="fill:#ccc" d="M788,13 l5,0 0,168 -5,0 0,-168z" /><path style="fill:#ccc" d="M724,13 l5,0 0,168 -5,0 0,-168z" /><path style="fill:#ccc" d="M663,13 l5,0 0,168 -5,0 0,-168z" /><path style="fill:#ccc" d="M599,13 l5,0 0,168 -5,0 0,-168z" /><path style="fill:#ccc" d="M535,13 l5,0 0,168 -5,0 0,-168z" /><path style="fill:#ccc" d="M474,13 l5,0 0,168 -5,0 0,-168z" /><path style="fill:#ccc" d="M852,13 l5,0 0,168 -5,0 0,-168z" /><path style="fill:#ccc" d="M913,125 l0,-112 6,0 0,106 -6,6z" /><path style="fill:#ccc" d="M85,114 l-70,-69 0,-27 70,0 0,96z" /><path style="fill:#ccc" d="M916,114 l67,-69 0,-27 -67,0 0,96z" /><path style="fill:#4c4c4c" d="M31,205 l936,0 0,16 -936,0 0,-16z" /><path style="fill:#b2b2b2;stroke:#4c4c4c;stroke-width:2" d="M799,245 l53,-54 -139,0 54,54 32,0z" /><path style="fill:#b2b2b2;stroke:#4c4c4c;stroke-width:2" d="M514,245 l53,-54 -136,0 53,54 30,0z" /><path style="fill:#b2b2b2;stroke:#4c4c4c;stroke-width:2" d="M231,245 l54,-54 -139,0 53,54 32,0z" /><ellipse style="fill:#000;stroke:#4c4c4c;stroke-width:2" cx="499" cy="228" rx="9" ry="5" /><ellipse style="fill:#000;stroke:#4c4c4c;stroke-width:2" cx="215" cy="228" rx="10" ry="5" /><ellipse style="fill:#000;stroke:#4c4c4c;stroke-width:2" cx="782" cy="228" rx="10" ry="5" /><path style="fill:none;stroke:#4c4c4c;stroke-width:2" d="M85,183 l0,-170" /><path style="fill:none;stroke:#4c4c4c;stroke-width:2" d="M93,13 l0,170" /><path style="fill:none;stroke:#4c4c4c;stroke-width:2" d="M905,183 l0,-170" /><path style="fill:none;stroke:#4c4c4c;stroke-width:2" d="M913,13 l0,170" /><path style="fill:none;stroke:#4c4c4c;stroke-width:2" d="M210,183 l0,-170" /><path style="fill:none;stroke:#4c4c4c;stroke-width:2" d="M221,13 l0,170" /><path style="fill:none;stroke:#4c4c4c;stroke-width:2" d="M146,183 l0,-170" /><path style="fill:none;stroke:#4c4c4c;stroke-width:2" d="M157,13 l0,170" /><path style="fill:none;stroke:#4c4c4c;stroke-width:2" d="M274,183 l0,-170" /><path style="fill:none;stroke:#4c4c4c;stroke-width:2" d="M285,13 l0,170" /><path style="fill:none;stroke:#4c4c4c;stroke-width:2" d="M524,183 l0,-170" /><path style="fill:none;stroke:#4c4c4c;stroke-width:2" d="M535,13 l0,170" /><path style="fill:none;stroke:#4c4c4c;stroke-width:2" d="M335,183 l0,-170" /><path style="fill:none;stroke:#4c4c4c;stroke-width:2" d="M346,13 l0,170" /><path style="fill:none;stroke:#4c4c4c;stroke-width:2" d="M777,183 l0,-170" /><path style="fill:none;stroke:#4c4c4c;stroke-width:2" d="M788,13 l0,170" /><path style="fill:none;stroke:#4c4c4c;stroke-width:2" d="M463,183 l0,-170" /><path style="fill:none;stroke:#4c4c4c;stroke-width:2" d="M474,13 l0,170" /><path style="fill:none;stroke:#4c4c4c;stroke-width:2" d="M399,183 l0,-170" /><path style="fill:none;stroke:#4c4c4c;stroke-width:2" d="M410,13 l0,170" /><path style="fill:none;stroke:#4c4c4c;stroke-width:2" d="M841,183 l0,-170" /><path style="fill:none;stroke:#4c4c4c;stroke-width:2" d="M852,13 l0,170" /><path style="fill:none;stroke:#4c4c4c;stroke-width:2" d="M652,183 l0,-170" /><path style="fill:none;stroke:#4c4c4c;stroke-width:2" d="M663,13 l0,170" /><path style="fill:none;stroke:#4c4c4c;stroke-width:2" d="M588,183 l0,-170" /><path style="fill:none;stroke:#4c4c4c;stroke-width:2" d="M599,13 l0,170" /><path style="fill:none;stroke:#4c4c4c;stroke-width:2" d="M716,183 l0,-170" /><path style="fill:none;stroke:#4c4c4c;stroke-width:2" d="M724,13 l0,170" /><path style="fill:none;stroke:#4c4c4c;stroke-width:2" d="M53,0 l0,207" /><path style="fill:none;stroke:#4c4c4c;stroke-width:2" d="M21,207 l0,-207" /><path style="fill:none;stroke:#4c4c4c;stroke-width:2" d="M21,10 l32,0" /><path style="fill:none;stroke:#4c4c4c;stroke-width:2" d="M53,31 l-32,0" /><path style="fill:none;stroke:#4c4c4c;stroke-width:2" d="M21,50 l32,0" /><path style="fill:none;stroke:#4c4c4c;stroke-width:2" d="M53,71 l-32,0" /><path style="fill:none;stroke:#4c4c4c;stroke-width:2" d="M21,93 l32,0" /><path style="fill:none;stroke:#4c4c4c;stroke-width:2" d="M53,114 l-32,0" /><path style="fill:none;stroke:#4c4c4c;stroke-width:2" d="M21,135 l32,0" /><path style="fill:none;stroke:#4c4c4c;stroke-width:2" d="M53,157 l-32,0" /><path style="fill:none;stroke:#4c4c4c;stroke-width:2" d="M21,178 l32,0" /><path style="fill:none;stroke:#4c4c4c;stroke-width:2" d="M53,199 l-32,0" /><path style="fill:none;stroke:#4c4c4c;stroke-width:2" d="M977,0 l0,207" /><path style="fill:none;stroke:#4c4c4c;stroke-width:2" d="M945,207 l0,-207" /><path style="fill:none;stroke:#4c4c4c;stroke-width:2" d="M945,10 l32,0" /><path style="fill:none;stroke:#4c4c4c;stroke-width:2" d="M977,31 l-32,0" /><path style="fill:none;stroke:#4c4c4c;stroke-width:2" d="M945,50 l32,0" /><path style="fill:none;stroke:#4c4c4c;stroke-width:2" d="M977,71 l-32,0" /><path style="fill:none;stroke:#4c4c4c;stroke-width:2" d="M945,93 l32,0" /><path style="fill:none;stroke:#4c4c4c;stroke-width:2" d="M977,114 l-32,0" /><path style="fill:none;stroke:#4c4c4c;stroke-width:2" d="M945,135 l32,0" /><path style="fill:none;stroke:#4c4c4c;stroke-width:2" d="M977,157 l-32,0" /><path style="fill:none;stroke:#4c4c4c;stroke-width:2" d="M945,178 l32,0" /><path style="fill:none;stroke:#4c4c4c;stroke-width:2" d="M977,199 l-32,0" /><path style="fill:#4c4c4c;stroke:#4c4c4c;stroke-width:2" d="M833,229 l118,0 0,37 -118,0 0,-37z" /><path style="fill:#4c4c4c;stroke:#4c4c4c;stroke-width:2" d="M47,229 l118,0 0,37 -118,0 0,-37z" /><circle style="fill:#333;stroke:#4c4c4c;stroke-width:2" cx="949" cy="259" r="28" /><circle style="fill:#333;stroke:#4c4c4c;stroke-width:2" cx="835" cy="259" r="28" /><circle style="fill:#333;stroke:#4c4c4c;stroke-width:2" cx="163" cy="259" r="28" /><circle style="fill:#333;stroke:#4c4c4c;stroke-width:2" cx="49" cy="259" r="28" /></svg>