<!DOCTYPE svg PUBLIC "-//W3C//DTD SVG 20000303 Stylable//EN" "http://www.w3.org/TR/2000/03/WD-SVG-20000303/DTD/svg-20000303-stylable.dtd"[]><svg xmlns="http://www.w3.org/2000/svg" width="999px" height="322px" viewBox="0 0 999 282"><path style="fill:#999;stroke:#4c4c4c;stroke-width:2" d="M10,202 l978,0 0,24 -978,0 0,-24z" /><path style="fill:#e5e5e5;stroke:#4c4c4c;stroke-width:2" d="M0,0 l0,213 10,0 0,-174 43,0 0,163 892,0 0,-163 43,0 0,174 11,0 0,-213 -999,0z" /><path style="fill:#000;stroke:#4c4c4c;stroke-width:2" d="M42,226 l914,0 0,13 -8,0 -10,0 -11,0 -14,0 -15,0 -17,1 -18,0 -20,0 -22,0 -23,0 -25,0 -25,0 -28,0 -28,0 -29,1 -31,0 -32,0 -32,0 -34,0 -34,0 -36,0 -36,0 -36,0 -37,1 -38,0 -38,0 -39,0 -39,0 -40,0 -39,0 -40,0 -40,0 0,0 0,-1 0,-1 0,-1 0,-1 0,-1 0,-2 0,-1 0,-2 0,-1 0,-1 0,-2 0,-1 0,0 0,-1 0,0z" /><path style="fill:#fff;stroke:#4c4c4c;stroke-width:2" d="M66,39 l0,64 96,94 677,0 96,-94 0,-64 -869,0z" /><path style="fill:#ccc;stroke:#4c4c4c;stroke-width:2" d="M945,7 l43,0 0,22 -43,0 0,-22z" /><path style="fill:#ccc;stroke:#4c4c4c;stroke-width:2" d="M740,5 l195,0 0,24 -195,0 0,-24z" /><path style="fill:#ccc;stroke:#4c4c4c;stroke-width:2" d="M519,5 l194,0 0,24 -194,0 0,-24z" /><path style="fill:#ccc;stroke:#4c4c4c;stroke-width:2" d="M290,5 l194,0 0,24 -194,0 0,-24z" /><path style="fill:#ccc;stroke:#4c4c4c;stroke-width:2" d="M69,5 l194,0 0,24 -194,0 0,-24z" /><path style="fill:#ccc;stroke:#4c4c4c;stroke-width:2" d="M10,7 l43,0 0,22 -43,0 0,-22z" /><path style="fill:#ccc" d="M141,157 l-75,-54 96,94 677,0 96,-94 -86,54 -708,0z" /><path style="fill:none;stroke:#4c4c4c;stroke-width:2" d="M66,39 l0,64 96,94 677,0 96,-94 0,-64 -869,0" /><path style="fill:#4c4c4c" d="M29,207 l940,0 0,11 -940,0 0,-11z" /><path style="fill:#4c4c4c;stroke:#4c4c4c;stroke-width:2" d="M833,223 l118,0 0,38 -118,0 0,-38z" /><path style="fill:#4c4c4c;stroke:#4c4c4c;stroke-width:2" d="M47,223 l118,0 0,38 -118,0 0,-38z" /><circle style="fill:#333;stroke:#4c4c4c;stroke-width:2" cx="949" cy="254" r="28" /><circle style="fill:#333;stroke:#4c4c4c;stroke-width:2" cx="835" cy="254" r="28" /><circle style="fill:#333;stroke:#4c4c4c;stroke-width:2" cx="163" cy="254" r="28" /><circle style="fill:#333;stroke:#4c4c4c;stroke-width:2" cx="49" cy="254" r="28" /></svg>