<!DOCTYPE svg PUBLIC "-//W3C//DTD SVG 20000303 Stylable//EN" "http://www.w3.org/TR/2000/03/WD-SVG-20000303/DTD/svg-20000303-stylable.dtd"[]><svg xmlns="http://www.w3.org/2000/svg" width="999px" height="326px" viewBox="0 0 998 285"><path style="fill:#808080;fill-rule:evenodd" d="M49,285 l-49,-95 128,0 70,-190 149,0 14,31 173,0 19,64 159,0 27,95 259,0 -37,95 -912,0z M353,95 l131,0 6,31 -129,0 -8,-31z M162,190 l545,0 -19,-64 -152,0 -20,-63 -177,0 -13,-32 -104,0 -60,159z M242,67 l1,-6 1,-4 1,-4 3,-3 2,-3 4,-2 4,-1 5,0 3,0 2,0 3,1 2,0 2,1 2,1 2,1 1,2 3,3 2,3 1,4 1,4 0,3 -1,3 0,2 -1,2 -1,2 -1,2 -1,2 -2,2 -3,2 -4,2 -4,2 -4,0 -5,0 -5,-1 -4,-2 -3,-2 -2,-3 -2,-4 -1,-4 -1,-5z " /><path style="fill:none;stroke:#4c4c4c;stroke-width:2" d="M49,285 l-49,-95 128,0 70,-190 149,0 14,31 173,0 19,64 159,0 27,95 259,0 -37,95 -912,0" /><path style="fill:none;stroke:#4c4c4c;stroke-width:2" d="M353,95 l131,0 6,31 -129,0 -8,-31" /><path style="fill:none;stroke:#4c4c4c;stroke-width:2" d="M162,190 l545,0 -19,-64 -152,0 -20,-63 -177,0 -13,-32 -104,0 -60,159" /><circle style="fill:none;stroke:#4c4c4c;stroke-width:2" cx="264" cy="66" r="22" /></svg>