<!DOCTYPE svg PUBLIC "-//W3C//DTD SVG 20000303 Stylable//EN" "http://www.w3.org/TR/2000/03/WD-SVG-20000303/DTD/svg-20000303-stylable.dtd"[]><svg xmlns="http://www.w3.org/2000/svg" width="999px" height="505px" viewBox="0 0 999 476"><path style="fill:#808080;fill-rule:evenodd" d="M559,398 l-15,0 0,25 -144,0 0,-25 -121,0 -2,15 -4,15 -8,13 -9,12 -12,9 -12,8 -15,4 -15,2 -8,-1 -8,-1 -7,-2 -7,-2 -7,-4 -7,-4 -6,-4 -6,-5 -5,-6 -4,-6 -4,-6 -3,-7 -3,-7 -2,-8 -1,-7 0,-8 -124,0 0,-43 29,0 7,-110 2,-5 3,-4 4,-4 6,-3 8,-3 8,-3 10,-2 11,-3 13,-2 13,-2 15,-2 15,-3 17,-3 17,-3 19,-3 19,-4 65,-117 2,-2 4,-2 6,-2 7,-2 8,-1 10,-1 9,-1 10,-1 10,0 9,0 9,0 8,2 6,1 5,3 3,3 1,3 0,117 6,0 0,-196 605,0 0,294 -69,0 0,104 -39,0 -2,15 -5,15 -7,13 -10,12 -12,9 -13,8 -14,4 -15,2 -8,-1 -8,-1 -7,-2 -7,-3 -7,-3 -7,-4 -6,-5 -6,-5 -5,-5 -5,-7 -4,-6 -3,-7 -3,-7 -2,-7 -1,-8 -1,-7 -17,0 -2,15 -5,15 -8,13 -9,12 -12,9 -13,8 -14,4 -16,2 -15,-2 -15,-4 -13,-8 -12,-9 -9,-12 -8,-13 -4,-15 -2,-15z M284,93 l-56,103 138,0 0,-103 -82,0z " /><path style="fill:none;stroke:#4c4c4c;stroke-width:2" d="M559,398 l-15,0 0,25 -144,0 0,-25 -121,0 -2,15 -4,15 -8,13 -9,12 -12,9 -12,8 -15,4 -15,2 -8,-1 -8,-1 -7,-2 -7,-2 -7,-4 -7,-4 -6,-4 -6,-5 -5,-6 -4,-6 -4,-6 -3,-7 -3,-7 -2,-8 -1,-7 0,-8 -124,0 0,-43 29,0 7,-110 2,-5 3,-4 4,-4 6,-3 8,-3 8,-3 10,-2 11,-3 13,-2 13,-2 15,-2 15,-3 17,-3 17,-3 19,-3 19,-4 65,-117 2,-2 4,-2 6,-2 7,-2 8,-1 10,-1 9,-1 10,-1 10,0 9,0 9,0 8,2 6,1 5,3 3,3 1,3 0,117 6,0 0,-196 605,0 0,294 -69,0 0,104 -39,0 -2,15 -5,15 -7,13 -10,12 -12,9 -13,8 -14,4 -15,2 -8,-1 -8,-1 -7,-2 -7,-3 -7,-3 -7,-4 -6,-5 -6,-5 -5,-5 -5,-7 -4,-6 -3,-7 -3,-7 -2,-7 -1,-8 -1,-7 -17,0 -2,15 -5,15 -8,13 -9,12 -12,9 -13,8 -14,4 -16,2 -15,-2 -15,-4 -13,-8 -12,-9 -9,-12 -8,-13 -4,-15 -2,-15" /><path style="fill:none;stroke:#4c4c4c;stroke-width:2" d="M284,93 l-56,103 138,0 0,-103 -82,0" /></svg>