<!DOCTYPE svg PUBLIC "-//W3C//DTD SVG 20000303 Stylable//EN" "http://www.w3.org/TR/2000/03/WD-SVG-20000303/DTD/svg-20000303-stylable.dtd"[]><svg xmlns="http://www.w3.org/2000/svg" width="999px" height="999px" viewBox="0 0 999 999"><path style="fill:#808080;fill-rule:evenodd" d="M499,0 l25,0 25,2 25,3 25,4 24,6 23,7 24,8 22,9 22,10 22,11 21,12 20,13 20,14 19,15 18,15 17,17 17,17 16,18 15,19 14,20 13,20 12,21 11,22 10,22 9,23 8,23 7,24 5,24 5,24 3,25 2,26 1,25 -1,26 -2,25 -3,25 -5,25 -5,24 -7,24 -8,23 -9,23 -10,22 -11,21 -12,21 -13,21 -14,19 -15,19 -16,18 -17,18 -17,16 -18,16 -19,15 -20,14 -20,13 -21,12 -22,11 -22,10 -22,9 -24,7 -23,7 -24,6 -25,4 -25,3 -25,2 -25,1 -26,-1 -25,-2 -25,-3 -25,-4 -24,-6 -24,-7 -23,-7 -23,-9 -22,-10 -22,-11 -21,-12 -20,-13 -19,-14 -19,-15 -18,-16 -18,-16 -16,-18 -16,-18 -15,-19 -14,-19 -13,-21 -12,-21 -11,-21 -10,-22 -9,-23 -7,-23 -7,-24 -6,-24 -4,-25 -3,-25 -2,-25 0,-26 0,-25 2,-26 3,-25 4,-24 6,-24 7,-24 7,-23 9,-23 10,-22 11,-22 12,-21 13,-20 14,-20 15,-19 16,-18 16,-17 18,-17 18,-15 19,-15 19,-14 20,-13 21,-12 22,-11 22,-10 23,-9 23,-8 24,-7 24,-6 25,-4 25,-3 25,-2 26,0z M503,468 l-6,0 -6,2 -5,3 -5,4 -4,5 -3,5 -2,6 0,6 0,6 2,6 3,5 4,5 5,4 5,2 6,2 6,1 6,-1 6,-2 5,-2 5,-4 4,-5 2,-5 2,-6 1,-6 -1,-6 -2,-6 -2,-5 -4,-5 -5,-4 -5,-3 -6,-2 -6,0z M409,431 l10,-12 12,-11 12,-8 13,-7 13,-4 14,-4 14,-1 14,0 13,1 14,3 12,4 12,6 11,6 9,8 8,9 6,10 293,-184 -7,-11 -8,-11 -8,-11 -8,-11 -9,-11 -9,-10 -10,-10 -10,-10 -11,-10 -10,-9 -12,-9 -11,-9 -12,-8 -12,-8 -12,-8 -13,-7 -13,-7 -13,-7 -13,-6 -14,-6 -13,-6 -14,-5 -14,-4 -14,-4 -15,-4 -14,-3 -15,-3 -15,-3 -14,-1 -15,-2 -15,0 -15,-1 -15,1 -15,0 -15,2 -15,1 -14,3 -15,2 -14,3 -14,4 -15,4 -13,5 -14,4 -14,6 -13,6 -13,6 -13,6 -12,7 -13,7 -12,8 -12,8 -11,8 -11,9 -11,9 -11,9 -10,10 -10,10 -10,10 -9,11 -9,11 -8,11 -9,11 -7,11 -8,12 293,184z M614,468 l3,13 1,13 0,12 -1,12 -2,12 -3,11 -4,11 -5,10 -7,9 -8,9 -8,8 -10,7 -10,6 -12,5 -12,5 -14,3 0,340 14,-1 13,-1 14,-1 13,-2 14,-3 13,-2 14,-4 13,-3 14,-4 13,-5 14,-5 13,-5 13,-6 13,-6 13,-6 12,-7 13,-7 12,-8 12,-8 12,-9 12,-8 11,-10 11,-9 11,-10 11,-10 10,-11 10,-11 9,-12 9,-11 9,-12 8,-13 8,-13 8,-13 7,-14 6,-14 6,-13 5,-14 5,-15 5,-14 4,-14 3,-14 4,-15 2,-14 2,-14 2,-15 1,-14 1,-14 0,-15 0,-14 -1,-14 -1,-14 -1,-14 -2,-14 -2,-14 -3,-14 -3,-13 -4,-14 -4,-13 -4,-14 -5,-13 -5,-12 -6,-13 -6,-13 -6,-12 -297,178z M480,614 l-12,-4 -11,-5 -11,-6 -10,-6 -9,-8 -9,-8 -8,-9 -6,-9 -6,-10 -5,-11 -4,-11 -2,-11 -1,-12 0,-12 2,-12 4,-12 -299,-188 -6,12 -6,12 -6,13 -5,12 -5,13 -4,14 -4,13 -4,14 -3,13 -2,14 -3,14 -1,14 -2,15 -1,14 0,15 0,14 0,14 1,15 1,15 2,14 2,15 3,14 3,15 4,14 4,15 4,14 5,14 6,14 6,14 6,13 7,14 8,13 7,13 9,13 8,12 9,12 9,12 10,11 9,11 11,11 10,10 11,10 11,9 11,9 12,9 11,8 12,8 13,8 12,7 13,7 12,6 13,6 13,6 14,5 13,5 13,4 14,4 14,3 13,3 14,3 14,2 14,2 14,1 14,1 0,-340z " /><circle style="fill:none;stroke:#4c4c4c;stroke-width:2" cx="499" cy="499" r="499" /><circle style="fill:none;stroke:#4c4c4c;stroke-width:2" cx="503" cy="499" r="31" /><path style="fill:none;stroke:#4c4c4c;stroke-width:2" d="M409,431 l10,-12 12,-11 12,-8 13,-7 13,-4 14,-4 14,-1 14,0 13,1 14,3 12,4 12,6 11,6 9,8 8,9 6,10 293,-184 -7,-11 -8,-11 -8,-11 -8,-11 -9,-11 -9,-10 -10,-10 -10,-10 -11,-10 -10,-9 -12,-9 -11,-9 -12,-8 -12,-8 -12,-8 -13,-7 -13,-7 -13,-7 -13,-6 -14,-6 -13,-6 -14,-5 -14,-4 -14,-4 -15,-4 -14,-3 -15,-3 -15,-3 -14,-1 -15,-2 -15,0 -15,-1 -15,1 -15,0 -15,2 -15,1 -14,3 -15,2 -14,3 -14,4 -15,4 -13,5 -14,4 -14,6 -13,6 -13,6 -13,6 -12,7 -13,7 -12,8 -12,8 -11,8 -11,9 -11,9 -11,9 -10,10 -10,10 -10,10 -9,11 -9,11 -8,11 -9,11 -7,11 -8,12 293,184" /><path style="fill:none;stroke:#4c4c4c;stroke-width:2" d="M614,468 l3,13 1,13 0,12 -1,12 -2,12 -3,11 -4,11 -5,10 -7,9 -8,9 -8,8 -10,7 -10,6 -12,5 -12,5 -14,3 0,340 14,-1 13,-1 14,-1 13,-2 14,-3 13,-2 14,-4 13,-3 14,-4 13,-5 14,-5 13,-5 13,-6 13,-6 13,-6 12,-7 13,-7 12,-8 12,-8 12,-9 12,-8 11,-10 11,-9 11,-10 11,-10 10,-11 10,-11 9,-12 9,-11 9,-12 8,-13 8,-13 8,-13 7,-14 6,-14 6,-13 5,-14 5,-15 5,-14 4,-14 3,-14 4,-15 2,-14 2,-14 2,-15 1,-14 1,-14 0,-15 0,-14 -1,-14 -1,-14 -1,-14 -2,-14 -2,-14 -3,-14 -3,-13 -4,-14 -4,-13 -4,-14 -5,-13 -5,-12 -6,-13 -6,-13 -6,-12 -297,178" /><path style="fill:none;stroke:#4c4c4c;stroke-width:2" d="M480,614 l-12,-4 -11,-5 -11,-6 -10,-6 -9,-8 -9,-8 -8,-9 -6,-9 -6,-10 -5,-11 -4,-11 -2,-11 -1,-12 0,-12 2,-12 4,-12 -299,-188 -6,12 -6,12 -6,13 -5,12 -5,13 -4,14 -4,13 -4,14 -3,13 -2,14 -3,14 -1,14 -2,15 -1,14 0,15 0,14 0,14 1,15 1,15 2,14 2,15 3,14 3,15 4,14 4,15 4,14 5,14 6,14 6,14 6,13 7,14 8,13 7,13 9,13 8,12 9,12 9,12 10,11 9,11 11,11 10,10 11,10 11,9 11,9 12,9 11,8 12,8 13,8 12,7 13,7 12,6 13,6 13,6 14,5 13,5 13,4 14,4 14,3 13,3 14,3 14,2 14,2 14,1 14,1 0,-340" /></svg>