<!DOCTYPE svg PUBLIC "-//W3C//DTD SVG 20000303 Stylable//EN" "http://www.w3.org/TR/2000/03/WD-SVG-20000303/DTD/svg-20000303-stylable.dtd"[]><svg xmlns="http://www.w3.org/2000/svg" width="999px" height="497px" viewBox="0 0 998 467"><path style="fill:#666;stroke:#4c4c4c;stroke-width:2" d="M127,87 l814,0 0,182 -814,0 0,-182z" /><path style="fill:#7f7f7f;stroke:#4c4c4c;stroke-width:2" d="M259,283 l478,0 0,42 -478,0 0,-42z" /><path style="fill:#000;stroke:#4c4c4c;stroke-width:2" d="M33,247 l904,0 0,152 -904,0 0,-152z" /><circle style="fill:#666;stroke:#4c4c4c;stroke-width:2" cx="668" cy="399" r="67" /><circle style="fill:#666;stroke:#4c4c4c;stroke-width:2" cx="814" cy="399" r="67" /><path style="fill:#0ff;stroke:#4c4c4c;stroke-width:2" d="M67,317 l-20,92 -42,0 8,-98 0,-98 106,-14 0,-84 -28,0 0,-14 172,-14 0,288 -50,0 -24,-58 -122,0z" /><path style="fill:#e5e5e5;stroke:#4c4c4c;stroke-width:2" d="M0,353 l41,0 0,58 -41,0 0,-58z" /><path style="fill:#b2b2b2;stroke:#4c4c4c;stroke-width:2" d="M287,277 l672,0 0,28 -672,0 0,-28z" /><path style="fill:#000;stroke:#4c4c4c;stroke-width:2" d="M133,115 l0,84 56,-14 0,-70 -56,0z" /><circle style="fill:#ccc;stroke:#4c4c4c;stroke-width:2" cx="668" cy="399" r="33" /><circle style="fill:#ccc;stroke:#4c4c4c;stroke-width:2" cx="815" cy="399" r="34" /><path style="fill:#7f7f7f" d="M941,267 l-628,0 -2,0 -2,0 -2,-1 -2,-1 -2,-2 -2,-2 -1,-2 -2,-2 -2,-3 -2,-3 -2,-3 -1,-4 -2,-3 -1,-4 -2,-4 -1,-5 -1,-5 -2,-4 -1,-6 -1,-5 -1,-5 -1,-6 -1,-6 -1,-6 0,-6 -1,-6 -1,-6 0,-7 0,-6 -1,-7 0,-7 0,-7 0,-7 0,-6 1,-7 0,-7 0,-6 1,-6 1,-7 0,-6 1,-6 1,-5 1,-6 1,-5 1,-6 1,-5 2,-5 1,-4 1,-5 2,-4 1,-4 2,-4 1,-3 2,-3 2,-3 2,-3 2,-2 1,-3 2,-1 2,-2 2,-1 2,-1 2,0 2,0 628,0 1,0 2,0 2,1 2,1 2,2 1,1 2,3 2,2 2,3 1,3 2,3 1,3 2,4 1,4 2,4 1,5 1,4 2,5 1,5 1,6 1,5 1,6 1,5 0,6 1,6 1,7 0,6 1,6 0,7 0,7 1,6 0,7 0,7 -1,7 0,7 0,6 -1,7 0,6 -1,6 -1,6 0,6 -1,6 -1,6 -1,5 -1,5 -1,6 -2,4 -1,5 -1,5 -2,4 -1,4 -2,3 -1,4 -2,3 -1,3 -2,3 -2,2 -2,2 -1,2 -2,2 -2,1 -2,1 -2,0 -1,0z" /><path style="fill:#999" d="M941,243 l-628,0 -4,0 -4,-2 -4,-3 -3,-3 -4,-5 -3,-6 -3,-6 -3,-7 -3,-8 -2,-9 -2,-9 -2,-9 -1,-10 -1,-11 -1,-11 0,-11 0,-11 1,-11 1,-11 1,-10 2,-9 2,-10 2,-8 3,-8 3,-7 3,-6 3,-5 4,-5 3,-4 4,-2 4,-2 4,-1 628,0 3,1 4,2 3,2 4,4 3,5 3,5 3,6 3,7 3,8 2,8 2,10 1,9 2,10 1,11 0,11 1,11 -1,11 0,11 -1,11 -2,10 -1,9 -2,9 -2,9 -3,8 -3,7 -3,6 -3,6 -3,5 -4,3 -3,3 -4,2 -3,0z" /><path style="fill:#b2b2b2" d="M941,221 l-628,0 -4,0 -4,-2 -4,-2 -3,-3 -4,-3 -3,-5 -3,-5 -3,-6 -3,-6 -2,-7 -2,-7 -2,-8 -1,-8 -1,-8 -1,-9 0,-9 0,-9 1,-8 1,-9 1,-8 2,-7 2,-7 2,-7 3,-7 3,-5 3,-5 3,-5 4,-4 3,-3 4,-2 4,-1 4,-1 628,0 3,1 4,1 3,2 4,3 3,4 3,5 3,5 3,5 3,7 2,7 2,7 1,7 2,8 1,9 0,8 1,9 -1,9 0,9 -1,8 -2,8 -1,8 -2,7 -2,7 -3,6 -3,6 -3,5 -3,5 -3,3 -4,3 -3,2 -4,2 -3,0z" /><path style="fill:#ccc" d="M941,185 l-628,0 -4,0 -4,-1 -4,-1 -3,-2 -4,-2 -3,-3 -3,-3 -3,-3 -3,-4 -2,-4 -2,-4 -2,-5 -1,-4 -1,-5 -1,-5 0,-6 0,-5 1,-6 1,-5 1,-4 2,-5 2,-4 2,-4 3,-4 3,-3 3,-3 3,-3 4,-2 3,-1 4,-1 4,-1 4,-1 628,0 3,1 4,1 3,1 4,1 3,2 3,3 3,3 3,3 3,4 2,4 2,4 1,5 2,4 1,5 0,6 1,5 -1,6 0,5 -1,5 -2,4 -1,5 -2,4 -2,4 -3,4 -3,3 -3,3 -3,3 -3,2 -4,2 -3,1 -4,1 -3,0z" /><ellipse style="fill:#e5e5e5" cx="626" cy="133" rx="353" ry="18" /><path style="fill:none;stroke:#4c4c4c;stroke-width:2" d="M941,267 l-628,0 -2,0 -2,0 -2,-1 -2,-1 -2,-2 -2,-2 -1,-2 -2,-2 -2,-3 -2,-3 -2,-3 -1,-4 -2,-3 -1,-4 -2,-4 -1,-5 -1,-5 -2,-4 -1,-6 -1,-5 -1,-5 -1,-6 -1,-6 -1,-6 0,-6 -1,-6 -1,-6 0,-7 0,-6 -1,-7 0,-7 0,-7 0,-7 0,-6 1,-7 0,-7 0,-6 1,-6 1,-7 0,-6 1,-6 1,-5 1,-6 1,-5 1,-6 1,-5 2,-5 1,-4 1,-5 2,-4 1,-4 2,-4 1,-3 2,-3 2,-3 2,-3 2,-2 1,-3 2,-1 2,-2 2,-1 2,-1 2,0 2,0 628,0 1,0 2,0 2,1 2,1 2,2 1,1 2,3 2,2 2,3 1,3 2,3 1,3 2,4 1,4 2,4 1,5 1,4 2,5 1,5 1,6 1,5 1,6 1,5 0,6 1,6 1,7 0,6 1,6 0,7 0,7 1,6 0,7 0,7 -1,7 0,7 0,6 -1,7 0,6 -1,6 -1,6 0,6 -1,6 -1,6 -1,5 -1,5 -1,6 -2,4 -1,5 -1,5 -2,4 -1,4 -2,3 -1,4 -2,3 -1,3 -2,3 -2,2 -2,2 -1,2 -2,2 -2,1 -2,1 -2,0 -1,0" /><path style="fill:none;stroke:#7f7f7f;stroke-width:2" d="M607,0 l1,0 2,0 1,1 2,1 1,2 1,1 2,3 1,2 1,3 2,3 1,3 1,3 1,4 1,4 1,4 1,5 1,4 1,5 0,5 1,6 1,5 1,6 0,5 1,6 0,6 1,7 0,6 0,6 1,7 0,7 0,6 0,7 0,7 0,7 0,7 -1,6 0,7 0,6 -1,6 0,6 -1,6 0,6 -1,6 -1,5 -1,5 0,6 -1,4 -1,5 -1,5 -1,4 -1,4 -1,3 -1,4 -1,3 -2,3 -1,3 -1,2 -2,2 -1,2 -1,2 -2,1 -1,1 -2,0 -1,0" /><path style="fill:none;stroke:#4c4c4c;stroke-width:2" d="M299,0 l2,0 1,0 2,1 1,1 1,2 2,1 1,3 1,2 2,3 1,3 1,3 1,3 1,4 1,4 1,4 1,5 1,4 1,5 1,5 0,6 1,5 1,6 0,5 1,6 1,6 0,7 0,6 1,6 0,7 0,7 0,6 0,7 0,7 0,7 0,7 0,6 -1,7 0,6 0,6 -1,6 -1,6 0,6 -1,6 -1,5 0,5 -1,6 -1,4 -1,5 -1,5 -1,4 -1,4 -1,3 -1,4 -1,3 -1,3 -2,3 -1,2 -1,2 -2,2 -1,2 -1,1 -2,1 -1,0 -2,0" /><path style="fill:#999;stroke:#4c4c4c;stroke-width:2" d="M293,329 l134,0 0,84 -134,0 0,-84z" /><path style="fill:#7f7f7f;stroke:#4c4c4c;stroke-width:2" d="M891,307 l14,0 36,140 -14,0 -36,-140z" /><path style="fill:#4c4c4c;stroke:#4c4c4c;stroke-width:2" d="M355,203 l643,0 0,44 -643,0 0,-44z" /><path style="fill:#999;stroke:#4c4c4c;stroke-width:2" d="M915,195 l16,0 0,82 -16,0 0,-82z" /><path style="fill:#999;stroke:#4c4c4c;stroke-width:2" d="M743,195 l16,0 0,82 -16,0 0,-82z" /><path style="fill:#999;stroke:#4c4c4c;stroke-width:2" d="M571,195 l16,0 0,82 -16,0 0,-82z" /><path style="fill:#999;stroke:#4c4c4c;stroke-width:2" d="M399,195 l16,0 0,82 -16,0 0,-82z" /><circle style="fill:#666;stroke:#4c4c4c;stroke-width:2" cx="131" cy="399" r="68" /><circle style="fill:#ccc;stroke:#4c4c4c;stroke-width:2" cx="131" cy="399" r="34" /><path style="fill:#999;stroke:#4c4c4c;stroke-width:2" d="M203,385 l0,-16 84,0 0,16 -84,0z" /><path style="fill:#999;stroke:#4c4c4c;stroke-width:2" d="M159,331 l0,-16 84,0 0,16 -84,0z" /></svg>