<!DOCTYPE svg PUBLIC "-//W3C//DTD SVG 20000303 Stylable//EN" "http://www.w3.org/TR/2000/03/WD-SVG-20000303/DTD/svg-20000303-stylable.dtd"[]><svg xmlns="http://www.w3.org/2000/svg" width="999px" height="452px" viewBox="0 0 999 419"><path style="fill:#000" d="M935,315 l0,-38 -146,0 0,-10 -42,0 0,10 -358,0 0,-10 -42,0 0,10 -64,0 -168,-4 -84,4 0,80 84,-32 84,32 84,-42 652,0z" /><circle style="fill:#4c4c4c" cx="115" cy="351" r="68" /><circle style="fill:#4c4c4c" cx="689" cy="351" r="68" /><circle style="fill:#4c4c4c" cx="847" cy="351" r="68" /><circle style="fill:#ccc" cx="115" cy="351" r="36" /><circle style="fill:#ccc" cx="688" cy="351" r="37" /><circle style="fill:#ccc" cx="846" cy="352" r="37" /><circle style="fill:#4c4c4c" cx="115" cy="351" r="10" /><circle style="fill:#4c4c4c" cx="689" cy="351" r="10" /><circle style="fill:#4c4c4c" cx="846" cy="351" r="11" /><path style="fill:#fc0;stroke:#4c4c4c;stroke-width:2" d="M31,357 l6,-32 18,-28 28,-18 32,-6 32,6 28,18 18,28 6,32 84,0 0,-357 -232,0 22,15 -22,152 -20,0 -22,20 0,128 -9,0 0,42 31,0z" /><path style="fill:none;stroke:#4c4c4c;stroke-width:2" d="M21,357 l0,-42 -12,0" /><path style="fill:none;stroke:#4c4c4c;stroke-width:2" d="M9,273 l12,0 0,-80 -12,0" /><path style="fill:none;stroke:#4c4c4c;stroke-width:2" d="M21,257 l-12,0" /><path style="fill:none;stroke:#4c4c4c;stroke-width:2" d="M21,241 l-12,0" /><path style="fill:none;stroke:#4c4c4c;stroke-width:2" d="M21,225 l-12,0" /><path style="fill:none;stroke:#4c4c4c;stroke-width:2" d="M21,209 l-12,0" /><path style="fill:none;stroke:#4c4c4c;stroke-width:2" d="M251,241 l0,-210 -146,0 -16,114 0,96 162,0" /><path style="fill:none;stroke:#4c4c4c;stroke-width:2" d="M89,141 l162,0" /><path style="fill:#fff;stroke:#4c4c4c;stroke-width:2" d="M21,277 l-12,0 0,32 12,0 0,-32z" /><path style="fill:#b2b2b2;stroke:#4c4c4c;stroke-width:2" d="M293,267 l706,0 0,-168 -706,0 0,168z" /><path style="fill:#cff;stroke:#4c4c4c;stroke-width:2" d="M31,167 l26,-167 16,15 -22,152 -20,0z" /><path style="fill:#cff;stroke:#4c4c4c;stroke-width:2" d="M241,125 l0,-84 -126,0 -10,84 136,0z" /><path style="fill:none;stroke:#fff;stroke-width:2" d="M599,335 l26,-58 64,-10 62,10 16,38 16,-38 64,-10 62,10 26,58" /><path style="fill:none;stroke:#4c4c4c;stroke-width:2" d="M609,315 l-10,20" /><path style="fill:none;stroke:#4c4c4c;stroke-width:2" d="M909,277 l-62,-10 -58,10" /><path style="fill:none;stroke:#4c4c4c;stroke-width:2" d="M747,277 l-58,-10 -64,10" /><path style="fill:none;stroke:#4c4c4c;stroke-width:2" d="M935,335 l-10,-20" /></svg>