<!DOCTYPE svg PUBLIC "-//W3C//DTD SVG 20000303 Stylable//EN" "http://www.w3.org/TR/2000/03/WD-SVG-20000303/DTD/svg-20000303-stylable.dtd"[]><svg xmlns="http://www.w3.org/2000/svg" width="999px" height="920px" viewBox="0 0 999 916"><path style="fill:#7f7f7f" d="M4,4 l990,0 0,907 -990,0 0,-907z" /><path style="fill:#4c4c4c" d="M4,911 l0,-371 44,0 0,-515 -44,0 0,-21 990,0 0,21 -40,0 0,515 40,0 0,371 -990,0z" /><path style="fill:#000;stroke:#4c4c4c;stroke-width:2" d="M66,540 l0,-515 866,0 0,515 -866,0z" /><path style="fill:#7f7f7f" d="M4,911 l0,-103 990,0 0,103 -990,0z" /><path style="fill:#7f7f7f" d="M272,787 l0,-102 186,0 0,102 -186,0z" /><path style="fill:#7f7f7f" d="M479,787 l0,-102 185,0 0,102 -185,0z" /><path style="fill:#7f7f7f" d="M685,787 l0,-102 185,0 0,102 -185,0z" /><path style="fill:#7f7f7f" d="M685,664 l0,-103 185,0 0,103 -185,0z" /><path style="fill:#7f7f7f" d="M479,664 l0,-103 185,0 0,103 -185,0z" /><path style="fill:#7f7f7f" d="M272,664 l0,-103 186,0 0,103 -186,0z" /><path style="fill:#7f7f7f" d="M66,664 l0,-103 186,0 0,103 -186,0z" /><path style="fill:#7f7f7f" d="M66,787 l0,-102 186,0 0,102 -186,0z" /><path style="fill:#e5e5e5" d="M612,698 l-41,69 -41,-69 82,0z" /><path style="fill:#e5e5e5" d="M324,767 l41,-69 41,69 -82,0z" /><path style="fill:none;stroke:#4c4c4c;stroke-width:2" d="M4,4 l990,0 0,907 -990,0 0,-907" /><path style="fill:none;stroke:#b2b2b2;stroke-width:2" d="M66,540 l866,0 0,-515" /></svg>