<!DOCTYPE svg PUBLIC "-//W3C//DTD SVG 20000303 Stylable//EN" "http://www.w3.org/TR/2000/03/WD-SVG-20000303/DTD/svg-20000303-stylable.dtd"[]><svg xmlns="http://www.w3.org/2000/svg" width="734px" height="999px" viewBox="0 0 721 999"><path style="fill:#666638;stroke:#4c4c4c;stroke-width:2" d="M598,994 l79,-40 0,-39 -79,39 0,40z" /><path style="fill:#ccccbd;stroke:#4c4c4c;stroke-width:2" d="M4,44 l634,0 0,910 -634,0 0,-910z" /><path style="fill:#c4c4b2" d="M8,950 l626,0 0,-510 -626,131 0,379z" /><path style="fill:#babaa6" d="M8,950 l626,0 0,-412 -626,132 0,280z" /><path style="fill:#b2b29b" d="M8,950 l626,0 0,-332 -626,131 0,201z" /><path style="fill:#7f7f59;stroke:#4c4c4c;stroke-width:2" d="M44,954 l554,0 0,40 -554,0 0,-40z" /><path style="fill:#d4d4c7;stroke:#4c4c4c;stroke-width:2" d="M360,242 l238,0 0,99 -238,0 0,-99z" /><path style="fill:#d4d4c7;stroke:#4c4c4c;stroke-width:2" d="M360,360 l238,0 0,159 -238,0 0,-159z" /><path style="fill:#d4d4c7;stroke:#4c4c4c;stroke-width:2" d="M24,321 l139,0 0,297 -139,0 0,-297z" /><path style="fill:#e5e5dd;stroke:#4c4c4c;stroke-width:2" d="M4,44 l79,-40 634,0 -79,40 -634,0z" /><path style="fill:#b2b29b;stroke:#4c4c4c;stroke-width:2" d="M638,954 l79,-39 0,-911 -79,40 0,910z" /><path style="fill:none;stroke:#4c4c4c;stroke-width:2" d="M103,486 l33,0 0,33 -33,0 0,-33" /><path style="fill:none;stroke:#4c4c4c;stroke-width:2" d="M103,438 l33,0 0,32 -33,0 0,-32" /><path style="fill:none;stroke:#4c4c4c;stroke-width:2" d="M103,389 l33,0 0,33 -33,0 0,-33" /><path style="fill:none;stroke:#4c4c4c;stroke-width:2" d="M103,341 l33,0 0,32 -33,0 0,-32" /><path style="fill:none;stroke:#4c4c4c;stroke-width:2" d="M44,341 l39,0 0,257 -39,0 0,-257" /><path style="fill:none;stroke:#4c4c4c;stroke-width:2" d="M360,717 l238,0" /><path style="fill:none;stroke:#4c4c4c;stroke-width:2" d="M598,744 l-238,0" /><path style="fill:none;stroke:#4c4c4c;stroke-width:2" d="M360,770 l238,0" /><path style="fill:none;stroke:#4c4c4c;stroke-width:2" d="M598,796 l-238,0" /><path style="fill:none;stroke:#4c4c4c;stroke-width:2" d="M360,822 l238,0" /><path style="fill:none;stroke:#4c4c4c;stroke-width:2" d="M598,848 l-238,0" /><path style="fill:none;stroke:#4c4c4c;stroke-width:2" d="M360,874 l238,0" /><path style="fill:none;stroke:#4c4c4c;stroke-width:2" d="M321,954 l0,-752" /><path style="fill:none;stroke:#4c4c4c;stroke-width:2" d="M4,104 l634,0" /><path style="fill:none;stroke:#4c4c4c;stroke-width:2" d="M4,137 l634,0" /><path style="fill:none;stroke:#4c4c4c;stroke-width:2" d="M4,169 l634,0" /><path style="fill:none;stroke:#4c4c4c;stroke-width:2" d="M4,202 l634,0" /><path style="fill:none;stroke:#4c4c4c;stroke-width:2" d="M380,321 l198,0" /><path style="fill:none;stroke:#4c4c4c;stroke-width:2" d="M578,309 l-198,0" /><path style="fill:none;stroke:#4c4c4c;stroke-width:2" d="M380,297 l198,0" /><path style="fill:none;stroke:#4c4c4c;stroke-width:2" d="M578,285 l-198,0" /><path style="fill:none;stroke:#4c4c4c;stroke-width:2" d="M380,274 l198,0" /><path style="fill:none;stroke:#4c4c4c;stroke-width:2" d="M578,262 l-198,0" /></svg>