<!DOCTYPE svg PUBLIC "-//W3C//DTD SVG 20000303 Stylable//EN" "http://www.w3.org/TR/2000/03/WD-SVG-20000303/DTD/svg-20000303-stylable.dtd"[]><svg xmlns="http://www.w3.org/2000/svg" width="999px" height="528px" viewBox="0 0 999 504"><path style="fill:#e5cb7f" d="M4,75 l850,0 0,389 -850,0 0,-389z" /><path style="fill:#f2e5bf;stroke:#4c4c4c;stroke-width:2" d="M4,75 l140,-71 850,0 -140,71 -850,0z" /><path style="fill:#d9b340;stroke:#4c4c4c;stroke-width:2" d="M854,465 l140,-72 0,-389 -140,71 0,390z" /><path style="fill:#c90;stroke:#4c4c4c;stroke-width:2" d="M853,128 l141,-71 0,53 -141,71 0,-53z" /><path style="fill:#d9b340;stroke:#4c4c4c;stroke-width:2" d="M4,128 l849,0 0,53 -849,0 0,-53z" /><path style="fill:none;stroke:#4c4c4c;stroke-width:2" d="M181,75 l0,389" /><path style="fill:none;stroke:#4c4c4c;stroke-width:2" d="M357,75 l0,389" /><path style="fill:none;stroke:#4c4c4c;stroke-width:2" d="M676,75 l0,389" /><path style="fill:none;stroke:#4c4c4c;stroke-width:2" d="M499,75 l0,389" /><path style="fill:#000" d="M4,464 l0,36 849,0 141,-71 0,-36 -141,71 -849,0z" /><path style="fill:none;stroke:#4c4c4c;stroke-width:2" d="M4,75 l849,0 0,425 -849,0 0,-425" /><path style="fill:none;stroke:#bf7f00;stroke-width:2" d="M181,75 l141,-71" /><path style="fill:none;stroke:#bf7f00;stroke-width:2" d="M357,75 l142,-71" /><path style="fill:none;stroke:#bf7f00;stroke-width:2" d="M499,75 l142,-71" /><path style="fill:none;stroke:#bf7f00;stroke-width:2" d="M676,75 l141,-71" /></svg>