<!DOCTYPE svg PUBLIC "-//W3C//DTD SVG 20000303 Stylable//EN" "http://www.w3.org/TR/2000/03/WD-SVG-20000303/DTD/svg-20000303-stylable.dtd"[]><svg xmlns="http://www.w3.org/2000/svg" width="999px" height="669px" viewBox="0 0 999 653"><path style="fill:#8ca0bf;stroke:#4c4c4c;stroke-width:2" d="M215,36 l0,74 618,0 0,-74 -618,0z" /><path style="fill:#8ca0bf;stroke:#4c4c4c;stroke-width:2" d="M30,55 l0,592 148,0 37,-18 580,0 0,18 99,0 0,-592 -99,0 0,74 -617,0 0,-74 -148,0z" /><path style="fill:#bfd3f2;stroke:#4c4c4c;stroke-width:2" d="M894,55 l-99,0 37,-19 -617,0 -37,19 -148,0 99,-50 864,0 -99,50z" /><path style="fill:#596d8c;stroke:#4c4c4c;stroke-width:2" d="M869,437 l0,-296 25,-12 0,-74 99,-50 0,593 -99,49 0,-222 -25,12z" /><path style="fill:#596d8c;stroke:#4c4c4c;stroke-width:2" d="M178,647 l0,-592 37,-19 0,593 -37,18z" /><path style="fill:#8ca0bf;stroke:#4c4c4c;stroke-width:2" d="M5,437 l864,0 0,-296 -864,0 0,296z" /><path style="fill:#405473;stroke:#4c4c4c;stroke-width:2" d="M215,629 l0,-192 580,0 0,192 -580,0z" /><path style="fill:#bfd3f2;stroke:#4c4c4c;stroke-width:2" d="M894,129 l-99,0 0,-19 -580,0 -37,19 -148,0 -25,12 864,0 25,-12z" /><path style="fill:#8ca0bf" d="M178,437 l61,0 0,-296 -61,0 0,296z" /><path style="fill:#8ca0bf" d="M239,437 l61,0 0,-296 -61,0 0,296z" /><path style="fill:#8ca0bf" d="M300,437 l60,0 0,-296 -60,0 0,296z" /><path style="fill:#8ca0bf" d="M361,437 l61,0 0,-296 -61,0 0,296z" /><path style="fill:#8ca0bf" d="M422,437 l60,0 0,-296 -60,0 0,296z" /><path style="fill:#8ca0bf" d="M482,437 l61,0 0,-296 -61,0 0,296z" /><path style="fill:#8ca0bf" d="M543,437 l61,0 0,-296 -61,0 0,296z" /><path style="fill:#8ca0bf" d="M604,437 l61,0 0,-296 -61,0 0,296z" /><path style="fill:#8ca0bf" d="M665,437 l81,0 0,-296 -81,0 0,296z" /><path style="fill:#994c4c" d="M863,210 l0,-63 -851,0 0,63 851,0z" /><path style="fill:none;stroke:#bfd3f2;stroke-width:2" d="M24,419 l0,-198 111,0" /><path style="fill:none;stroke:#bfd3f2;stroke-width:2" d="M141,215 l0,210 -123,0" /><path style="fill:none;stroke:#bfd3f2;stroke-width:2" d="M734,215 l0,210 -543,0" /><path style="fill:none;stroke:#bfd3f2;stroke-width:2" d="M197,419 l0,-198 530,0" /><path style="fill:none;stroke:#263a59;stroke-width:2" d="M18,425 l0,-210 123,0" /><path style="fill:none;stroke:#263a59;stroke-width:2" d="M135,221 l0,198 -111,0" /><path style="fill:none;stroke:#263a59;stroke-width:2" d="M191,425 l0,-210 543,0" /><path style="fill:none;stroke:#263a59;stroke-width:2" d="M727,221 l0,198 -530,0" /><path style="fill:none;stroke:#4c4c4c;stroke-width:2" d="M289,437 l0,192" /><path style="fill:none;stroke:#4c4c4c;stroke-width:2" d="M363,437 l0,192" /><path style="fill:none;stroke:#4c4c4c;stroke-width:2" d="M437,437 l0,192" /><path style="fill:none;stroke:#4c4c4c;stroke-width:2" d="M510,437 l0,192" /><path style="fill:none;stroke:#4c4c4c;stroke-width:2" d="M585,437 l0,192" /><path style="fill:none;stroke:#4c4c4c;stroke-width:2" d="M659,437 l0,192" /><path style="fill:none;stroke:#4c4c4c;stroke-width:2" d="M733,437 l0,192" /><path style="fill:#263a59" d="M172,487 l6,0 0,111 -6,0 0,-111z" /><path style="fill:#b2b2b2" d="M948,320 l0,-144 26,-13 0,144 -26,13z" /><path style="fill:#4c4c4c" d="M948,308 l0,-132 20,-10 0,132 -20,10z" /><path style="fill:none;stroke:#4c4c4c;stroke-width:2" d="M948,320 l0,-144 26,-13 0,144 -26,13" /><path style="fill:#000" d="M746,437 l25,0 0,-296 24,-12 0,-13 -49,25 0,296z" /><path style="fill:#000" d="M153,437 l25,0 0,-296 62,-31 -25,0 -62,31 0,296z" /><path style="fill:#e5e5cc" d="M209,240 l18,0 0,24 -18,0 0,-24z" /><path style="fill:#e5e5cc" d="M244,240 l17,0 0,24 -17,0 0,-24z" /><path style="fill:#e5e5cc" d="M279,240 l17,0 0,24 -17,0 0,-24z" /><path style="fill:#e5e5cc" d="M313,240 l18,0 0,24 -18,0 0,-24z" /><path style="fill:#e5e5cc" d="M349,240 l17,0 0,24 -17,0 0,-24z" /><path style="fill:#e5e5cc" d="M383,240 l18,0 0,24 -18,0 0,-24z" /><path style="fill:#e5e5cc" d="M418,240 l18,0 0,24 -18,0 0,-24z" /><path style="fill:#e5e5cc" d="M453,240 l18,0 0,24 -18,0 0,-24z" /><path style="fill:#e5e5cc" d="M488,240 l18,0 0,24 -18,0 0,-24z" /><path style="fill:#e5e5cc" d="M523,240 l17,0 0,24 -17,0 0,-24z" /><path style="fill:#e5e5cc" d="M558,240 l18,0 0,24 -18,0 0,-24z" /><path style="fill:#e5e5cc" d="M593,240 l17,0 0,24 -17,0 0,-24z" /><path style="fill:#e5e5cc" d="M628,240 l17,0 0,24 -17,0 0,-24z" /><path style="fill:#e5e5cc" d="M662,240 l18,0 0,24 -18,0 0,-24z" /><path style="fill:#e5e5cc" d="M698,240 l17,0 0,24 -17,0 0,-24z" /><path style="fill:#596d8c;stroke:#4c4c4c;stroke-width:2" d="M641,141 l62,-31 0,-18 -62,31 0,18z" /><path style="fill:#596d8c;stroke:#4c4c4c;stroke-width:2" d="M573,141 l62,-31 0,-18 -62,31 0,18z" /><path style="fill:#596d8c;stroke:#4c4c4c;stroke-width:2" d="M505,141 l62,-31 0,-18 -62,31 0,18z" /><path style="fill:#596d8c;stroke:#4c4c4c;stroke-width:2" d="M437,141 l62,-31 0,-18 -62,31 0,18z" /><path style="fill:#596d8c;stroke:#4c4c4c;stroke-width:2" d="M369,141 l62,-31 0,-18 -62,31 0,18z" /><path style="fill:#596d8c;stroke:#4c4c4c;stroke-width:2" d="M301,141 l62,-31 0,-18 -62,31 0,18z" /><path style="fill:#bfd3f2;stroke:#4c4c4c;stroke-width:2" d="M604,123 l62,-31 37,0 -62,31 -37,0z" /><path style="fill:#bfd3f2;stroke:#4c4c4c;stroke-width:2" d="M536,123 l62,-31 37,0 -62,31 -37,0z" /><path style="fill:#bfd3f2;stroke:#4c4c4c;stroke-width:2" d="M468,123 l62,-31 37,0 -62,31 -37,0z" /><path style="fill:#bfd3f2;stroke:#4c4c4c;stroke-width:2" d="M400,123 l62,-31 37,0 -62,31 -37,0z" /><path style="fill:#bfd3f2;stroke:#4c4c4c;stroke-width:2" d="M332,123 l62,-31 37,0 -62,31 -37,0z" /><path style="fill:#bfd3f2;stroke:#4c4c4c;stroke-width:2" d="M264,123 l62,-31 37,0 -61,31 -38,0z" /><path style="fill:#8ca0bf;stroke:#4c4c4c;stroke-width:2" d="M604,141 l0,-18 37,0 0,18 -37,0z" /><path style="fill:#8ca0bf;stroke:#4c4c4c;stroke-width:2" d="M536,141 l0,-18 37,0 0,18 -37,0z" /><path style="fill:#8ca0bf;stroke:#4c4c4c;stroke-width:2" d="M468,141 l0,-18 37,0 0,18 -37,0z" /><path style="fill:#8ca0bf;stroke:#4c4c4c;stroke-width:2" d="M400,141 l0,-18 37,0 0,18 -37,0z" /><path style="fill:#8ca0bf;stroke:#4c4c4c;stroke-width:2" d="M332,141 l0,-18 37,0 0,18 -37,0z" /><path style="fill:#8ca0bf;stroke:#4c4c4c;stroke-width:2" d="M264,141 l0,-18 37,0 0,18 -37,0z" /></svg>