<!DOCTYPE svg PUBLIC "-//W3C//DTD SVG 20000303 Stylable//EN" "http://www.w3.org/TR/2000/03/WD-SVG-20000303/DTD/svg-20000303-stylable.dtd"[]><svg xmlns="http://www.w3.org/2000/svg" width="999px" height="466px" viewBox="0 0 999 434"><path style="fill:#7f7f7f;stroke:#4c4c4c;stroke-width:2" d="M478,82 l83,0 0,249 -83,0 0,-249z" /><path style="fill:#7f7f7f;stroke:#4c4c4c;stroke-width:2" d="M561,82 l83,0 0,249 -83,0 0,-249z" /><path style="fill:#7f7f7f;stroke:#4c4c4c;stroke-width:2" d="M2,82 l393,0 0,249 -393,0 0,-249z" /><path style="fill:#7f7f7f;stroke:#4c4c4c;stroke-width:2" d="M395,82 l83,0 0,249 -83,0 0,-249z" /><path style="fill:#7f7f7f;stroke:#4c4c4c;stroke-width:2" d="M644,82 l352,0 0,249 -352,0 0,-249z" /><path style="fill:#7f7f7f;stroke:#4c4c4c;stroke-width:2" d="M2,0 l994,0 0,82 -994,0 0,-82z" /><path style="fill:#7f7f7f;stroke:#4c4c4c;stroke-width:2" d="M2,331 l994,0 0,83 -994,0 0,-83z" /><path style="fill:#000;stroke:#4c4c4c;stroke-width:2" d="M23,414 l952,0 0,20 -952,0 0,-20z" /><path style="fill:#ccc;stroke:#4c4c4c;stroke-width:2" d="M486,103 l21,0 0,21 -21,0 0,-21z" /><path style="fill:#ccc;stroke:#4c4c4c;stroke-width:2" d="M486,165 l21,0 0,21 -21,0 0,-21z" /><path style="fill:#ccc;stroke:#4c4c4c;stroke-width:2" d="M486,227 l21,0 0,21 -21,0 0,-21z" /><path style="fill:#ccc;stroke:#4c4c4c;stroke-width:2" d="M486,289 l21,0 0,21 -21,0 0,-21z" /><path style="fill:#ccc;stroke:#4c4c4c;stroke-width:2" d="M486,134 l21,0 0,21 -21,0 0,-21z" /><path style="fill:#ccc;stroke:#4c4c4c;stroke-width:2" d="M486,196 l21,0 0,21 -21,0 0,-21z" /><path style="fill:#ccc;stroke:#4c4c4c;stroke-width:2" d="M486,258 l21,0 0,21 -21,0 0,-21z" /><path style="fill:#ccc;stroke:#4c4c4c;stroke-width:2" d="M569,103 l21,0 0,21 -21,0 0,-21z" /><path style="fill:#ccc;stroke:#4c4c4c;stroke-width:2" d="M569,165 l21,0 0,21 -21,0 0,-21z" /><path style="fill:#ccc;stroke:#4c4c4c;stroke-width:2" d="M569,227 l21,0 0,21 -21,0 0,-21z" /><path style="fill:#ccc;stroke:#4c4c4c;stroke-width:2" d="M569,289 l21,0 0,21 -21,0 0,-21z" /><path style="fill:#ccc;stroke:#4c4c4c;stroke-width:2" d="M569,134 l21,0 0,21 -21,0 0,-21z" /><path style="fill:#ccc;stroke:#4c4c4c;stroke-width:2" d="M569,196 l21,0 0,21 -21,0 0,-21z" /><path style="fill:#ccc;stroke:#4c4c4c;stroke-width:2" d="M569,258 l21,0 0,21 -21,0 0,-21z" /><path style="fill:#ccc;stroke:#4c4c4c;stroke-width:2" d="M403,103 l21,0 0,21 -21,0 0,-21z" /><path style="fill:#ccc;stroke:#4c4c4c;stroke-width:2" d="M403,134 l21,0 0,21 -21,0 0,-21z" /><circle style="fill:#000;stroke:#4c4c4c;stroke-width:2" cx="413" cy="129" r="5" /><circle style="fill:#000;stroke:#4c4c4c;stroke-width:2" cx="413" cy="98" r="5" /><circle style="fill:#000;stroke:#4c4c4c;stroke-width:2" cx="413" cy="160" r="5" /><circle style="fill:#000;stroke:#4c4c4c;stroke-width:2" cx="496" cy="129" r="5" /><circle style="fill:#000;stroke:#4c4c4c;stroke-width:2" cx="496" cy="98" r="5" /><circle style="fill:#000;stroke:#4c4c4c;stroke-width:2" cx="496" cy="160" r="5" /><circle style="fill:#000;stroke:#4c4c4c;stroke-width:2" cx="496" cy="222" r="5" /><circle style="fill:#000;stroke:#4c4c4c;stroke-width:2" cx="496" cy="191" r="5" /><circle style="fill:#000;stroke:#4c4c4c;stroke-width:2" cx="496" cy="253" r="5" /><circle style="fill:#000;stroke:#4c4c4c;stroke-width:2" cx="496" cy="315" r="5" /><circle style="fill:#000;stroke:#4c4c4c;stroke-width:2" cx="496" cy="284" r="5" /><circle style="fill:#000;stroke:#4c4c4c;stroke-width:2" cx="579" cy="129" r="5" /><circle style="fill:#000;stroke:#4c4c4c;stroke-width:2" cx="579" cy="98" r="5" /><circle style="fill:#000;stroke:#4c4c4c;stroke-width:2" cx="579" cy="160" r="5" /><circle style="fill:#000;stroke:#4c4c4c;stroke-width:2" cx="579" cy="222" r="5" /><circle style="fill:#000;stroke:#4c4c4c;stroke-width:2" cx="579" cy="191" r="5" /><circle style="fill:#000;stroke:#4c4c4c;stroke-width:2" cx="579" cy="253" r="5" /><circle style="fill:#000;stroke:#4c4c4c;stroke-width:2" cx="579" cy="284" r="5" /><circle style="fill:#000;stroke:#4c4c4c;stroke-width:2" cx="579" cy="315" r="5" /><path style="fill:none;stroke:#4c4c4c;stroke-width:2" d="M2,103 l11,0 0,-41" /><path style="fill:none;stroke:#4c4c4c;stroke-width:2" d="M996,103 l-11,0 0,-41" /><path style="fill:none;stroke:#4c4c4c;stroke-width:2" d="M996,310 l-11,0 0,41" /><path style="fill:none;stroke:#4c4c4c;stroke-width:2" d="M2,310 l11,0 0,41" /><path style="fill:none;stroke:#fff;stroke-width:2" d="M0,82 l10,0" /><path style="fill:none;stroke:#fff;stroke-width:2" d="M0,331 l10,0" /><path style="fill:none;stroke:#fff;stroke-width:2" d="M988,82 l11,0" /><path style="fill:none;stroke:#fff;stroke-width:2" d="M988,331 l11,0" /></svg>