<!DOCTYPE svg PUBLIC "-//W3C//DTD SVG 20000303 Stylable//EN" "http://www.w3.org/TR/2000/03/WD-SVG-20000303/DTD/svg-20000303-stylable.dtd"[]><svg xmlns="http://www.w3.org/2000/svg" width="645px" height="999px" viewBox="0 0 624 999"><path style="fill:#7f7f7f;stroke:#4c4c4c;stroke-width:2" d="M7,335 l609,0 0,24 -609,0 0,-24z" /><path style="fill:#7f7f7f;stroke:#4c4c4c;stroke-width:2" d="M7,702 l609,0 0,23 -609,0 0,-23z" /><path style="fill:#fff;stroke:#4c4c4c;stroke-width:2" d="M0,62 l624,0 0,937 -624,0 0,-937z" /><path style="fill:#fff;stroke:#4c4c4c;stroke-width:2" d="M0,374 l624,0 0,312 -624,0 0,-312z" /><path style="fill:#fff;stroke:#4c4c4c;stroke-width:2" d="M15,265 l593,0 0,531 -593,0 0,-531z" /><path style="fill:none;stroke:#4c4c4c;stroke-width:2" d="M15,671 l156,0 0,-281 -156,0" /><path style="fill:#b2b2b2;stroke:#4c4c4c;stroke-width:2" d="M39,312 l70,0 0,23 -70,0 0,-23z" /><path style="fill:#b2b2b2;stroke:#4c4c4c;stroke-width:2" d="M125,312 l70,0 0,23 -70,0 0,-23z" /><path style="fill:#b2b2b2;stroke:#4c4c4c;stroke-width:2" d="M211,312 l70,0 0,23 -70,0 0,-23z" /><path style="fill:#b2b2b2;stroke:#4c4c4c;stroke-width:2" d="M297,312 l70,0 0,23 -70,0 0,-23z" /><path style="fill:#b2b2b2;stroke:#4c4c4c;stroke-width:2" d="M383,312 l70,0 0,23 -70,0 0,-23z" /><path style="fill:#b2b2b2;stroke:#4c4c4c;stroke-width:2" d="M469,312 l69,0 0,23 -69,0 0,-23z" /><path style="fill:#b2b2b2;stroke:#4c4c4c;stroke-width:2" d="M85,280 l70,0 0,24 -70,0 0,-24z" /><path style="fill:#b2b2b2;stroke:#4c4c4c;stroke-width:2" d="M171,280 l70,0 0,24 -70,0 0,-24z" /><path style="fill:#b2b2b2;stroke:#4c4c4c;stroke-width:2" d="M257,280 l70,0 0,24 -70,0 0,-24z" /><path style="fill:#b2b2b2;stroke:#4c4c4c;stroke-width:2" d="M343,280 l70,0 0,24 -70,0 0,-24z" /><path style="fill:#b2b2b2;stroke:#4c4c4c;stroke-width:2" d="M429,280 l70,0 0,24 -70,0 0,-24z" /><path style="fill:#b2b2b2;stroke:#4c4c4c;stroke-width:2" d="M515,280 l70,0 0,24 -70,0 0,-24z" /><path style="fill:#b2b2b2;stroke:#4c4c4c;stroke-width:2" d="M39,757 l70,0 0,23 -70,0 0,-23z" /><path style="fill:#b2b2b2;stroke:#4c4c4c;stroke-width:2" d="M125,757 l70,0 0,23 -70,0 0,-23z" /><path style="fill:#b2b2b2;stroke:#4c4c4c;stroke-width:2" d="M211,757 l70,0 0,23 -70,0 0,-23z" /><path style="fill:#b2b2b2;stroke:#4c4c4c;stroke-width:2" d="M297,757 l70,0 0,23 -70,0 0,-23z" /><path style="fill:#b2b2b2;stroke:#4c4c4c;stroke-width:2" d="M383,757 l70,0 0,23 -70,0 0,-23z" /><path style="fill:#b2b2b2;stroke:#4c4c4c;stroke-width:2" d="M469,757 l69,0 0,23 -69,0 0,-23z" /><path style="fill:#b2b2b2;stroke:#4c4c4c;stroke-width:2" d="M85,725 l70,0 0,24 -70,0 0,-24z" /><path style="fill:#b2b2b2;stroke:#4c4c4c;stroke-width:2" d="M171,725 l70,0 0,24 -70,0 0,-24z" /><path style="fill:#b2b2b2;stroke:#4c4c4c;stroke-width:2" d="M257,725 l70,0 0,24 -70,0 0,-24z" /><path style="fill:#b2b2b2;stroke:#4c4c4c;stroke-width:2" d="M343,725 l70,0 0,24 -70,0 0,-24z" /><path style="fill:#b2b2b2;stroke:#4c4c4c;stroke-width:2" d="M429,725 l70,0 0,24 -70,0 0,-24z" /><path style="fill:#b2b2b2;stroke:#4c4c4c;stroke-width:2" d="M515,725 l70,0 0,24 -70,0 0,-24z" /><circle style="fill:#b2b2b2;stroke:#4c4c4c;stroke-width:2" cx="573" cy="362" r="11" /><circle style="fill:#b2b2b2;stroke:#4c4c4c;stroke-width:2" cx="542" cy="362" r="12" /><circle style="fill:#b2b2b2;stroke:#4c4c4c;stroke-width:2" cx="510" cy="362" r="11" /><circle style="fill:#b2b2b2;stroke:#4c4c4c;stroke-width:2" cx="480" cy="362" r="12" /><circle style="fill:#b2b2b2;stroke:#4c4c4c;stroke-width:2" cx="449" cy="362" r="12" /><circle style="fill:#b2b2b2;stroke:#4c4c4c;stroke-width:2" cx="417" cy="362" r="11" /><circle style="fill:#b2b2b2;stroke:#4c4c4c;stroke-width:2" cx="386" cy="362" r="12" /><circle style="fill:#b2b2b2;stroke:#4c4c4c;stroke-width:2" cx="355" cy="362" r="12" /><ellipse style="fill:#b2b2b2;stroke:#4c4c4c;stroke-width:2" cx="233" cy="529" rx="31" ry="15" /><ellipse style="fill:#b2b2b2;stroke:#4c4c4c;stroke-width:2" cx="233" cy="476" rx="31" ry="16" /><ellipse style="fill:#b2b2b2;stroke:#4c4c4c;stroke-width:2" cx="233" cy="584" rx="31" ry="15" /><circle style="fill:#b2b2b2;stroke:#4c4c4c;stroke-width:2" cx="510" cy="698" r="11" /><circle style="fill:#b2b2b2;stroke:#4c4c4c;stroke-width:2" cx="480" cy="698" r="12" /><circle style="fill:#b2b2b2;stroke:#4c4c4c;stroke-width:2" cx="449" cy="698" r="12" /><circle style="fill:#b2b2b2;stroke:#4c4c4c;stroke-width:2" cx="417" cy="698" r="11" /><circle style="fill:#b2b2b2;stroke:#4c4c4c;stroke-width:2" cx="386" cy="698" r="12" /><circle style="fill:#b2b2b2;stroke:#4c4c4c;stroke-width:2" cx="355" cy="698" r="12" /><path style="fill:#b2b2b2;stroke:#4c4c4c;stroke-width:2" d="M38,171 l500,0 0,78 -500,0 0,-78z" /><path style="fill:#b2b2b2;stroke:#4c4c4c;stroke-width:2" d="M85,77 l500,0 0,78 -500,0 0,-78z" /><path style="fill:#fff;stroke:#4c4c4c;stroke-width:2" d="M70,171 l15,0 0,-101 -15,0 0,101z" /><path style="fill:#fff;stroke:#4c4c4c;stroke-width:2" d="M156,171 l15,0 0,-101 -15,0 0,101z" /><path style="fill:#fff;stroke:#4c4c4c;stroke-width:2" d="M242,171 l15,0 0,-101 -15,0 0,101z" /><path style="fill:#fff;stroke:#4c4c4c;stroke-width:2" d="M328,171 l15,0 0,-101 -15,0 0,101z" /><path style="fill:#fff;stroke:#4c4c4c;stroke-width:2" d="M414,171 l15,0 0,-101 -15,0 0,101z" /><path style="fill:#fff;stroke:#4c4c4c;stroke-width:2" d="M499,171 l16,0 0,-101 -16,0 0,101z" /><path style="fill:#fff;stroke:#4c4c4c;stroke-width:2" d="M585,171 l15,0 0,-101 -15,0 0,101z" /><path style="fill:#fff;stroke:#4c4c4c;stroke-width:2" d="M538,265 l15,0 0,-102 -15,0 0,102z" /><path style="fill:#fff;stroke:#4c4c4c;stroke-width:2" d="M453,265 l15,0 0,-102 -15,0 0,102z" /><path style="fill:#fff;stroke:#4c4c4c;stroke-width:2" d="M367,265 l15,0 0,-102 -15,0 0,102z" /><path style="fill:#fff;stroke:#4c4c4c;stroke-width:2" d="M281,265 l15,0 0,-102 -15,0 0,102z" /><path style="fill:#fff;stroke:#4c4c4c;stroke-width:2" d="M195,265 l15,0 0,-102 -15,0 0,102z" /><path style="fill:#fff;stroke:#4c4c4c;stroke-width:2" d="M23,265 l15,0 0,-102 -15,0 0,102z" /><path style="fill:#fff;stroke:#4c4c4c;stroke-width:2" d="M109,265 l15,0 0,-102 -15,0 0,102z" /><path style="fill:#b2b2b2;stroke:#4c4c4c;stroke-width:2" d="M38,897 l499,0 0,78 -499,0 0,-78z" /><path style="fill:#b2b2b2;stroke:#4c4c4c;stroke-width:2" d="M85,803 l500,0 0,78 -500,0 0,-78z" /><path style="fill:#fff;stroke:#4c4c4c;stroke-width:2" d="M70,897 l15,0 0,-101 -15,0 0,101z" /><path style="fill:#fff;stroke:#4c4c4c;stroke-width:2" d="M156,897 l15,0 0,-101 -15,0 0,101z" /><path style="fill:#fff;stroke:#4c4c4c;stroke-width:2" d="M242,897 l15,0 0,-101 -15,0 0,101z" /><path style="fill:#fff;stroke:#4c4c4c;stroke-width:2" d="M328,897 l15,0 0,-101 -15,0 0,101z" /><path style="fill:#fff;stroke:#4c4c4c;stroke-width:2" d="M414,897 l15,0 0,-101 -15,0 0,101z" /><path style="fill:#fff;stroke:#4c4c4c;stroke-width:2" d="M499,897 l16,0 0,-101 -16,0 0,101z" /><path style="fill:#fff;stroke:#4c4c4c;stroke-width:2" d="M585,897 l15,0 0,-101 -15,0 0,101z" /><path style="fill:#fff;stroke:#4c4c4c;stroke-width:2" d="M538,991 l15,0 0,-102 -15,0 0,102z" /><path style="fill:#fff;stroke:#4c4c4c;stroke-width:2" d="M109,991 l15,0 0,-102 -15,0 0,102z" /><path style="fill:#fff;stroke:#4c4c4c;stroke-width:2" d="M195,991 l15,0 0,-102 -15,0 0,102z" /><path style="fill:#fff;stroke:#4c4c4c;stroke-width:2" d="M281,991 l15,0 0,-102 -15,0 0,102z" /><path style="fill:#fff;stroke:#4c4c4c;stroke-width:2" d="M367,991 l15,0 0,-102 -15,0 0,102z" /><path style="fill:#fff;stroke:#4c4c4c;stroke-width:2" d="M453,991 l15,0 0,-102 -15,0 0,102z" /><path style="fill:#fff;stroke:#4c4c4c;stroke-width:2" d="M23,991 l15,0 0,-102 -15,0 0,102z" /><path style="fill:#000" d="M608,796 l0,-7 -593,0 0,14 593,0 0,-7z" /><path style="fill:#7f7f7f" d="M31,46 l0,15 -31,0 0,-61 31,0 0,15 -3,0 -3,1 -3,2 -2,2 -2,2 -2,3 0,3 -1,3 1,3 0,3 2,2 2,3 2,2 3,1 3,1 3,0z" /><path style="fill:#7f7f7f" d="M31,15 l0,-15 31,0 0,62 -31,0 0,-16 3,0 3,-1 2,-2 3,-2 2,-2 1,-3 1,-3 0,-3 0,-3 -1,-3 -1,-2 -2,-3 -3,-2 -2,-1 -3,-1 -3,0z" /></svg>