<!DOCTYPE svg PUBLIC "-//W3C//DTD SVG 20000303 Stylable//EN" "http://www.w3.org/TR/2000/03/WD-SVG-20000303/DTD/svg-20000303-stylable.dtd"[]><svg xmlns="http://www.w3.org/2000/svg" width="999px" height="690px" viewBox="0 0 999 672"><path style="fill:#333;stroke:#4c4c4c;stroke-width:2" d="M901,672 l0,-603 98,-69 0,604 -98,68z" /><path style="fill:#666;stroke:#4c4c4c;stroke-width:2" d="M25,67 l100,-67 874,0 -98,69 -876,-2z" /><path style="fill:#333;stroke:#4c4c4c;stroke-width:2" d="M25,67 l880,0 0,605 -880,0 0,-605z" /><path style="fill:#4c4c4c;stroke:#4c4c4c;stroke-width:2" d="M2,534 l879,0 24,56 -880,0 -23,-56z" /><path style="fill:#999;stroke:#4c4c4c;stroke-width:2" d="M25,149 l880,0 -24,56 -879,0 23,-56z" /><path style="fill:#666;stroke:#4c4c4c;stroke-width:2" d="M0,205 l879,0 0,329 -879,0 0,-329z" /><path style="fill:#ccc;stroke:#4c4c4c;stroke-width:2" d="M219,259 l16,0 15,0 16,0 14,0 15,0 14,0 14,0 13,0 14,0 13,0 13,0 12,0 13,0 12,0 13,0 12,0 13,0 12,0 13,0 13,0 12,0 13,0 14,0 13,0 14,0 13,0 15,0 14,0 15,0 15,0 16,0 16,0 5,0 5,2 4,3 4,3 4,5 2,4 2,5 1,6 0,3 0,4 0,4 0,4 0,5 0,5 0,5 0,5 0,6 0,5 0,6 0,6 0,6 0,6 0,6 0,6 0,6 0,6 0,6 0,6 0,6 0,5 0,6 0,5 0,6 0,5 0,5 0,5 0,4 0,5 0,4 0,3 -1,5 -2,5 -2,5 -4,4 -4,4 -4,3 -5,1 -5,1 -16,0 -16,0 -15,0 -15,0 -14,0 -15,0 -13,0 -14,0 -13,0 -14,0 -13,0 -12,0 -13,0 -13,0 -12,0 -13,0 -12,0 -13,0 -12,0 -13,0 -12,0 -13,0 -13,0 -14,0 -13,0 -14,0 -14,0 -15,0 -14,0 -16,0 -15,0 -16,0 -5,-1 -5,-1 -5,-3 -4,-4 -4,-4 -3,-5 -1,-5 -1,-5 0,-3 0,-4 0,-5 0,-4 0,-5 0,-5 0,-5 0,-6 0,-5 0,-6 0,-5 0,-6 0,-6 0,-6 0,-6 0,-6 0,-6 0,-6 0,-6 0,-6 0,-6 0,-6 0,-5 0,-6 0,-5 0,-5 0,-5 0,-5 0,-4 0,-4 0,-4 0,-3 1,-6 1,-5 3,-4 4,-5 4,-3 5,-3 5,-2 5,0z" /><path style="fill:#666;stroke:#4c4c4c;stroke-width:2" d="M713,233 l166,0 0,273 -166,0 0,-273z" /><path style="fill:#666;stroke:#4c4c4c;stroke-width:2" d="M0,233 l165,0 0,273 -165,0 0,-273z" /><path style="fill:#191919;stroke:#4c4c4c;stroke-width:2" d="M0,267 l129,0 0,205 -129,0 0,-205z" /><path style="fill:#999;stroke:#4c4c4c;stroke-width:2" d="M67,287 l22,0 0,165 -22,0 0,-165z" /><path style="fill:#999;stroke:#4c4c4c;stroke-width:2" d="M109,287 l8,0 0,165 -8,0 0,-165z" /><path style="fill:#e5e5e5" d="M915,546 l0,-361 42,-34 0,361 -42,34z" /><path style="fill:#000;stroke:#4c4c4c;stroke-width:2" d="M135,29 l-44,28 -8,0 44,-28 8,0z" /><path style="fill:#000;stroke:#4c4c4c;stroke-width:2" d="M169,29 l-44,28 -8,0 44,-28 8,0z" /><path style="fill:#000;stroke:#4c4c4c;stroke-width:2" d="M201,29 l-44,28 -4,0 40,-28 8,0z" /><path style="fill:#000;stroke:#4c4c4c;stroke-width:2" d="M235,29 l-44,28 -6,0 44,-28 6,0z" /><path style="fill:#000;stroke:#4c4c4c;stroke-width:2" d="M337,29 l-44,28 -8,0 43,-28 9,0z" /><path style="fill:#000;stroke:#4c4c4c;stroke-width:2" d="M370,29 l-44,28 -6,0 44,-28 6,0z" /><path style="fill:#000;stroke:#4c4c4c;stroke-width:2" d="M406,29 l-44,28 -7,0 43,-28 8,0z" /><path style="fill:#000;stroke:#4c4c4c;stroke-width:2" d="M438,29 l-42,28 -8,0 42,-28 8,0z" /><path style="fill:#000;stroke:#4c4c4c;stroke-width:2" d="M472,29 l-44,28 -8,0 44,-28 8,0z" /><path style="fill:#000;stroke:#4c4c4c;stroke-width:2" d="M506,29 l-44,28 -6,0 44,-28 6,0z" /><path style="fill:#000;stroke:#4c4c4c;stroke-width:2" d="M542,29 l-44,28 -8,0 44,-28 8,0z" /><path style="fill:#000;stroke:#4c4c4c;stroke-width:2" d="M574,29 l-44,28 -6,0 44,-28 6,0z" /><path style="fill:#000;stroke:#4c4c4c;stroke-width:2" d="M608,29 l-44,28 -8,0 44,-28 8,0z" /><path style="fill:#000;stroke:#4c4c4c;stroke-width:2" d="M641,29 l-43,28 -6,0 44,-28 5,0z" /><path style="fill:#000;stroke:#4c4c4c;stroke-width:2" d="M678,29 l-44,28 -8,0 44,-28 8,0z" /><path style="fill:#000;stroke:#4c4c4c;stroke-width:2" d="M709,29 l-43,28 -7,0 42,-28 8,0z" /><path style="fill:#000;stroke:#4c4c4c;stroke-width:2" d="M793,29 l-42,28 -8,0 44,-28 6,0z" /><path style="fill:#000;stroke:#4c4c4c;stroke-width:2" d="M827,29 l-44,28 -4,0 40,-28 8,0z" /><path style="fill:#000;stroke:#4c4c4c;stroke-width:2" d="M861,29 l-42,28 -6,0 42,-28 6,0z" /><path style="fill:#000;stroke:#4c4c4c;stroke-width:2" d="M897,29 l-44,28 -8,0 44,-28 8,0z" /><path style="fill:#000;stroke:#4c4c4c;stroke-width:2" d="M171,6 l-32,20 -4,0 30,-20 6,0z" /><path style="fill:#000;stroke:#4c4c4c;stroke-width:2" d="M205,6 l-32,20 -4,0 30,-20 6,0z" /><path style="fill:#000;stroke:#4c4c4c;stroke-width:2" d="M237,6 l-30,20 -6,0 32,-20 4,0z" /><path style="fill:#000;stroke:#4c4c4c;stroke-width:2" d="M273,6 l-34,20 -4,0 34,-20 4,0z" /><path style="fill:#000;stroke:#4c4c4c;stroke-width:2" d="M372,6 l-29,20 -6,0 31,-20 4,0z" /><path style="fill:#000;stroke:#4c4c4c;stroke-width:2" d="M408,6 l-34,20 -4,0 32,-20 6,0z" /><path style="fill:#000;stroke:#4c4c4c;stroke-width:2" d="M442,6 l-32,20 -4,0 30,-20 6,0z" /><path style="fill:#000;stroke:#4c4c4c;stroke-width:2" d="M474,6 l-30,20 -6,0 32,-20 4,0z" /><path style="fill:#000;stroke:#4c4c4c;stroke-width:2" d="M508,6 l-30,20 -6,0 30,-20 6,0z" /><path style="fill:#000;stroke:#4c4c4c;stroke-width:2" d="M544,6 l-34,20 -4,0 32,-20 6,0z" /><path style="fill:#000;stroke:#4c4c4c;stroke-width:2" d="M578,6 l-32,20 -4,0 30,-20 6,0z" /><path style="fill:#000;stroke:#4c4c4c;stroke-width:2" d="M610,6 l-30,20 -6,0 32,-20 4,0z" /><path style="fill:#000;stroke:#4c4c4c;stroke-width:2" d="M643,6 l-29,20 -6,0 29,-20 6,0z" /><path style="fill:#000;stroke:#4c4c4c;stroke-width:2" d="M680,6 l-35,20 -4,0 33,-20 6,0z" /><path style="fill:#000;stroke:#4c4c4c;stroke-width:2" d="M713,6 l-31,20 -4,0 29,-20 6,0z" /><path style="fill:#000;stroke:#4c4c4c;stroke-width:2" d="M745,6 l-30,20 -6,0 32,-20 4,0z" /><path style="fill:#000;stroke:#4c4c4c;stroke-width:2" d="M829,6 l-30,20 -6,0 32,-20 4,0z" /><path style="fill:#000;stroke:#4c4c4c;stroke-width:2" d="M865,6 l-32,20 -6,0 32,-20 6,0z" /><path style="fill:#000;stroke:#4c4c4c;stroke-width:2" d="M899,6 l-34,20 -4,0 32,-20 6,0z" /><path style="fill:#000;stroke:#4c4c4c;stroke-width:2" d="M933,6 l-32,20 -4,0 30,-20 6,0z" /><path style="fill:#000;stroke:#4c4c4c;stroke-width:2" d="M915,630 l71,-46 0,-64 -71,50 0,60z" /></svg>