<!DOCTYPE svg PUBLIC "-//W3C//DTD SVG 20000303 Stylable//EN" "http://www.w3.org/TR/2000/03/WD-SVG-20000303/DTD/svg-20000303-stylable.dtd"[]><svg xmlns="http://www.w3.org/2000/svg" width="999px" height="574px" viewBox="0 0 999 549"><path style="fill:#000;stroke:#4c4c4c;stroke-width:2" d="M14,0 l950,0 0,515 -950,0 0,-515z" /><path style="fill:#191919" d="M14,197 l79,0 0,287 -79,0 0,-287z" /><path style="fill:none;stroke:#7f7f7f;stroke-width:2" d="M311,0 l0,514" /><path style="fill:none;stroke:#7f7f7f;stroke-width:2" d="M529,0 l0,514" /><path style="fill:none;stroke:#7f7f7f;stroke-width:2" d="M746,0 l0,514" /><circle style="fill:#000;stroke:#ff0;stroke-width:2" cx="68" cy="242" r="14" /><circle style="fill:#000;stroke:#ff0;stroke-width:2" cx="68" cy="439" r="14" /><circle style="fill:#000;stroke:#ff0;stroke-width:2" cx="68" cy="400" r="14" /><circle style="fill:#000;stroke:#ff0;stroke-width:2" cx="68" cy="360" r="14" /><circle style="fill:#000;stroke:#ff0;stroke-width:2" cx="68" cy="321" r="14" /><circle style="fill:#000;stroke:#ff0;stroke-width:2" cx="68" cy="281" r="14" /><path style="fill:#191919;stroke:#7f7f7f;stroke-width:2" d="M380,395 l79,0 0,79 -79,0 0,-79z" /><path style="fill:#191919;stroke:#7f7f7f;stroke-width:2" d="M380,286 l79,0 0,80 -79,0 0,-80z" /><circle style="fill:#000" cx="429" cy="325" r="29" /><circle style="fill:#000" cx="429" cy="435" r="29" /><path style="fill:#fff" d="M479,425 l30,0 0,10 -30,0 0,-10z" /><path style="fill:#fff" d="M479,316 l30,0 0,10 -30,0 0,-10z" /><path style="fill:#fff" d="M479,237 l30,0 0,10 -30,0 0,-10z" /><path style="fill:#fff" d="M479,197 l30,0 0,10 -30,0 0,-10z" /><path style="fill:#fff" d="M479,158 l30,0 0,10 -30,0 0,-10z" /><path style="fill:#fff" d="M479,118 l30,0 0,10 -30,0 0,-10z" /><path style="fill:#fff" d="M479,79 l30,0 0,9 -30,0 0,-9z" /><path style="fill:#fff" d="M479,39 l30,0 0,10 -30,0 0,-10z" /><path style="fill:#00f" d="M667,138 l60,-60 0,60 -60,0z" /><path style="fill:#f00" d="M885,138 l59,-60 0,60 -59,0z" /><path style="fill:none;stroke:#7f7f7f;stroke-width:2" d="M806,29 l40,0 0,10 -40,0 0,-10" /><path style="fill:none;stroke:#7f7f7f;stroke-width:2" d="M806,49 l40,0 0,10 -40,0 0,-10" /><path style="fill:none;stroke:#7f7f7f;stroke-width:2" d="M806,69 l40,0 0,10 -40,0 0,-10" /><path style="fill:none;stroke:#7f7f7f;stroke-width:2" d="M806,88 l40,0 0,10 -40,0 0,-10" /><path style="fill:none;stroke:#7f7f7f;stroke-width:2" d="M865,29 l40,0 0,10 -40,0 0,-10" /><path style="fill:none;stroke:#7f7f7f;stroke-width:2" d="M865,49 l40,0 0,10 -40,0 0,-10" /><path style="fill:none;stroke:#7f7f7f;stroke-width:2" d="M865,69 l40,0 0,10 -40,0 0,-10" /><path style="fill:none;stroke:#7f7f7f;stroke-width:2" d="M865,88 l40,0 0,10 -40,0 0,-10" /><path style="fill:#f00;stroke:#7f7f7f;stroke-width:2" d="M806,29 l40,0 0,10 -40,0 0,-10z" /><path style="fill:none;stroke:#7f7f7f;stroke-width:2" d="M806,49 l40,0 0,10 -40,0 0,-10" /><path style="fill:#f00;stroke:#7f7f7f;stroke-width:2" d="M806,69 l40,0 0,10 -40,0 0,-10z" /><path style="fill:none;stroke:#7f7f7f;stroke-width:2" d="M806,88 l40,0 0,10 -40,0 0,-10" /><path style="fill:none;stroke:#7f7f7f;stroke-width:2" d="M865,29 l40,0 0,10 -40,0 0,-10" /><path style="fill:#f00;stroke:#7f7f7f;stroke-width:2" d="M865,49 l40,0 0,10 -40,0 0,-10z" /><path style="fill:none;stroke:#7f7f7f;stroke-width:2" d="M865,69 l40,0 0,10 -40,0 0,-10" /><path style="fill:#f00;stroke:#7f7f7f;stroke-width:2" d="M865,88 l40,0 0,10 -40,0 0,-10z" /><path style="fill:#f00;stroke:#7f7f7f;stroke-width:2" d="M588,29 l40,0 0,10 -40,0 0,-10z" /><path style="fill:#f00;stroke:#7f7f7f;stroke-width:2" d="M588,49 l40,0 0,10 -40,0 0,-10z" /><path style="fill:none;stroke:#7f7f7f;stroke-width:2" d="M588,69 l40,0 0,10 -40,0 0,-10" /><path style="fill:#f00;stroke:#7f7f7f;stroke-width:2" d="M588,88 l40,0 0,10 -40,0 0,-10z" /><path style="fill:none;stroke:#7f7f7f;stroke-width:2" d="M647,29 l40,0 0,10 -40,0 0,-10" /><path style="fill:none;stroke:#7f7f7f;stroke-width:2" d="M647,49 l40,0 0,10 -40,0 0,-10" /><path style="fill:#f00;stroke:#7f7f7f;stroke-width:2" d="M647,69 l40,0 0,10 -40,0 0,-10z" /><path style="fill:none;stroke:#7f7f7f;stroke-width:2" d="M647,88 l40,0 0,10 -40,0 0,-10" /><path style="fill:#fff" d="M34,88 l6,-49 132,0 -6,49 -132,0z" /><path style="fill:#fff" d="M167,118 l10,-79 30,0 -10,79 -30,0z" /><path style="fill:#fff" d="M202,118 l10,-79 29,0 -9,79 -30,0z" /><path style="fill:#fff" d="M237,118 l10,-79 29,0 -10,79 -29,0z" /><path style="fill:#ccc" d="M163,118 l2,-26 -77,0 -2,26 77,0z" /><path style="fill:#000" d="M128,514 l79,0 0,35 -79,0 0,-35z" /><path style="fill:#000" d="M771,514 l79,0 0,35 -79,0 0,-35z" /><path style="fill:#000" d="M964,509 l0,-79 35,0 0,79 -35,0z" /><path style="fill:#000;stroke:#4c4c4c;stroke-width:2" d="M0,19 l14,0 0,30 -14,0 0,-30z" /><path style="fill:#000;stroke:#4c4c4c;stroke-width:2" d="M0,74 l14,0 0,29 -14,0 0,-29z" /><path style="fill:#000;stroke:#4c4c4c;stroke-width:2" d="M0,469 l14,0 0,30 -14,0 0,-30z" /><path style="fill:none;stroke:#7f7f7f;stroke-width:2" d="M34,123 l232,0" /><path style="fill:none;stroke:#fff;stroke-width:2" d="M538,499 l0,-351 198,0" /><path style="fill:none;stroke:#fff;stroke-width:2" d="M756,499 l0,-351 198,0" /><path style="fill:none;stroke:#7f7f7f;stroke-width:2" d="M954,148 l0,351 -198,0" /><path style="fill:none;stroke:#7f7f7f;stroke-width:2" d="M736,148 l0,351 -198,0" /><path style="fill:#fff" d="M133,465 l128,0 0,15 -128,0 0,-15z" /><path style="fill:#fff" d="M133,430 l54,0 0,15 -54,0 0,-15z" /><path style="fill:#fff" d="M133,202 l74,0 0,15 -74,0 0,-15z" /><path style="fill:#fff" d="M133,222 l74,0 0,15 -74,0 0,-15z" /></svg>