<!DOCTYPE svg PUBLIC "-//W3C//DTD SVG 20000303 Stylable//EN" "http://www.w3.org/TR/2000/03/WD-SVG-20000303/DTD/svg-20000303-stylable.dtd"[]><svg xmlns="http://www.w3.org/2000/svg" width="449px" height="999px" viewBox="0 0 416 999"><path style="fill:#000;stroke:#4c4c4c;stroke-width:2" d="M0,0 l416,0 0,999 -416,0 0,-999z" /><path style="fill:none;stroke:#0ff;stroke-width:2" d="M20,103 l375,0" /><path style="fill:none;stroke:#7f7f7f;stroke-width:2" d="M10,10 l146,0 0,978 -146,0 0,-978" /><path style="fill:none;stroke:#7f7f7f;stroke-width:2" d="M156,10 l104,0 0,978 -104,0 0,-978" /><path style="fill:none;stroke:#7f7f7f;stroke-width:2" d="M260,10 l145,0 0,978 -145,0 0,-978" /><path style="fill:#0f0;stroke:#4c4c4c;stroke-width:2" d="M32,359 l100,0 0,166 -100,0 0,-166z" /><path style="fill:#7f7f7f;stroke:#4c4c4c;stroke-width:2" d="M36,365 l92,0 0,156 -92,0 0,-156z" /><path style="fill:#0f0;stroke:#4c4c4c;stroke-width:2" d="M57,359 l50,0 0,166 -50,0 0,-166z" /><path style="fill:none;stroke:#4c4c4c;stroke-width:2" d="M67,369 l0,147" /><path style="fill:none;stroke:#4c4c4c;stroke-width:2" d="M97,369 l0,147" /><path style="fill:#0f0;stroke:#4c4c4c;stroke-width:2" d="M32,171 l100,0 0,167 -100,0 0,-167z" /><path style="fill:#7f7f7f;stroke:#4c4c4c;stroke-width:2" d="M36,178 l92,0 0,155 -92,0 0,-155z" /><path style="fill:#0f0;stroke:#4c4c4c;stroke-width:2" d="M57,171 l50,0 0,167 -50,0 0,-167z" /><path style="fill:none;stroke:#4c4c4c;stroke-width:2" d="M67,182 l0,147" /><path style="fill:none;stroke:#4c4c4c;stroke-width:2" d="M97,182 l0,147" /><path style="fill:#0f0;stroke:#4c4c4c;stroke-width:2" d="M34,567 l101,0 0,133 -101,0 0,-133z" /><path style="fill:#7f7f7f;stroke:#4c4c4c;stroke-width:2" d="M39,572 l92,0 0,124 -92,0 0,-124z" /><path style="fill:#0f0;stroke:#4c4c4c;stroke-width:2" d="M59,567 l50,0 0,133 -50,0 0,-133z" /><path style="fill:none;stroke:#4c4c4c;stroke-width:2" d="M69,575 l0,117" /><path style="fill:none;stroke:#4c4c4c;stroke-width:2" d="M100,575 l0,117" /><path style="fill:#0f0;stroke:#4c4c4c;stroke-width:2" d="M34,717 l101,0 0,134 -101,0 0,-134z" /><path style="fill:#7f7f7f;stroke:#4c4c4c;stroke-width:2" d="M39,722 l92,0 0,125 -92,0 0,-125z" /><path style="fill:#0f0;stroke:#4c4c4c;stroke-width:2" d="M59,717 l50,0 0,134 -50,0 0,-134z" /><path style="fill:none;stroke:#4c4c4c;stroke-width:2" d="M69,726 l0,117" /><path style="fill:none;stroke:#4c4c4c;stroke-width:2" d="M100,726 l0,117" /><circle style="fill:#000;stroke:#7f7f7f;stroke-width:2" cx="46" cy="56" r="15" /><path style="fill:none;stroke:#fff;stroke-width:2" d="M35,68 l-1,-1 -1,-2 0,-1 -1,-1 -1,-2 0,-1 0,-2 0,-1 0,-3 1,-3 1,-3 2,-2 3,-2 2,-2 3,-1 3,0 2,0 1,0 2,1 1,0 2,1 1,1 1,1 1,1" /><circle style="fill:#000;stroke:#7f7f7f;stroke-width:2" cx="192" cy="56" r="16" /><path style="fill:none;stroke:#fff;stroke-width:2" d="M181,68 l-1,-1 -1,-2 -1,-1 0,-1 -1,-2 0,-1 -1,-2 0,-1 1,-3 1,-3 1,-3 2,-2 2,-2 3,-2 3,-1 3,0 2,0 1,0 2,1 1,0 1,1 2,1 1,1 1,1" /><circle style="fill:#000;stroke:#7f7f7f;stroke-width:2" cx="296" cy="56" r="15" /><path style="fill:none;stroke:#fff;stroke-width:2" d="M285,68 l-1,-1 -1,-2 0,-1 -1,-1 -1,-2 0,-1 0,-2 0,-1 0,-3 1,-3 1,-3 2,-2 3,-2 2,-2 3,-1 3,0 2,0 1,0 2,1 1,0 2,1 1,1 1,1 1,1" /><circle style="fill:#633;stroke:#7f7f7f;stroke-width:2" cx="48" cy="142" r="7" /><circle style="fill:#633;stroke:#7f7f7f;stroke-width:2" cx="194" cy="142" r="7" /><circle style="fill:#f00;stroke:#ff0;stroke-width:2" cx="299" cy="142" r="7" /><path style="fill:#191919" d="M187,171 l42,0 0,115 -42,0 0,-115z" /><circle style="fill:#7f7f7f;stroke:#4c4c4c;stroke-width:2" cx="208" cy="192" r="10" /><circle style="fill:#7f7f7f;stroke:#4c4c4c;stroke-width:2" cx="207" cy="229" r="10" /><circle style="fill:#7f7f7f;stroke:#4c4c4c;stroke-width:2" cx="207" cy="265" r="10" /><path style="fill:#191919" d="M187,712 l42,0 0,115 -42,0 0,-115z" /><circle style="fill:#7f7f7f;stroke:#4c4c4c;stroke-width:2" cx="208" cy="733" r="10" /><circle style="fill:#7f7f7f;stroke:#4c4c4c;stroke-width:2" cx="207" cy="770" r="10" /><circle style="fill:#7f7f7f;stroke:#4c4c4c;stroke-width:2" cx="207" cy="806" r="10" /><path style="fill:#191919" d="M187,442 l42,0 0,114 -42,0 0,-114z" /><circle style="fill:#7f7f7f;stroke:#4c4c4c;stroke-width:2" cx="207" cy="462" r="10" /><circle style="fill:#7f7f7f;stroke:#4c4c4c;stroke-width:2" cx="207" cy="499" r="10" /><circle style="fill:#7f7f7f;stroke:#4c4c4c;stroke-width:2" cx="208" cy="535" r="10" /><path style="fill:#7f7f7f;stroke:#4c4c4c;stroke-width:2" d="M218,676 l0,-83 -20,10 0,63 20,10z" /><circle style="fill:#7f7f7f;stroke:#4c4c4c;stroke-width:2" cx="207" cy="587" r="10" /><circle style="fill:#7f7f7f;stroke:#4c4c4c;stroke-width:2" cx="207" cy="681" r="10" /><path style="fill:#633;stroke:#4c4c4c;stroke-width:2" d="M187,312 l42,0 0,41 -42,0 0,-41z" /><path style="fill:#7f7f7f" d="M187,312 l10,0 0,41 -10,0 0,-41z" /><path style="fill:#191919;stroke:#7f7f7f;stroke-width:2" d="M291,208 l83,0 0,67 -83,0 0,-67z" /><path style="fill:#000;stroke:#4c4c4c;stroke-width:2" d="M302,218 l26,0 0,5 -26,0 0,-5z" /><path style="fill:#000;stroke:#4c4c4c;stroke-width:2" d="M302,239 l26,0 0,5 -26,0 0,-5z" /><path style="fill:#000;stroke:#4c4c4c;stroke-width:2" d="M302,260 l26,0 0,5 -26,0 0,-5z" /><path style="fill:#000;stroke:#4c4c4c;stroke-width:2" d="M337,218 l9,0 0,5 -9,0 0,-5z" /><path style="fill:#000;stroke:#4c4c4c;stroke-width:2" d="M337,239 l9,0 0,5 -9,0 0,-5z" /><path style="fill:#000;stroke:#4c4c4c;stroke-width:2" d="M337,260 l9,0 0,5 -9,0 0,-5z" /><circle style="fill:#000;stroke:#4c4c4c;stroke-width:2" cx="359" cy="221" r="4" /><ellipse style="fill:#000;stroke:#4c4c4c;stroke-width:2" cx="358" cy="262" rx="4" ry="2" /><ellipse style="fill:#000;stroke:#4c4c4c;stroke-width:2" cx="358" cy="241" rx="4" ry="2" /><path style="fill:none;stroke:#7f7f7f;stroke-width:2" d="M312,809 l0,-235 41,-23 0,286 -41,-28" /><circle style="fill:#000;stroke:#7f7f7f;stroke-width:2" cx="46" cy="951" r="15" /><path style="fill:none;stroke:#fff;stroke-width:2" d="M35,963 l-1,-1 -1,-2 0,-1 -1,-1 -1,-2 0,-1 0,-2 0,-1 0,-3 1,-3 1,-3 2,-2 3,-2 2,-2 3,-1 3,0 2,0 1,0 2,1 1,0 2,1 1,1 1,1 1,1" /><circle style="fill:#000;stroke:#7f7f7f;stroke-width:2" cx="192" cy="951" r="16" /><path style="fill:none;stroke:#fff;stroke-width:2" d="M181,963 l-1,-1 -1,-2 -1,-1 0,-1 -1,-2 0,-1 -1,-2 0,-1 1,-3 1,-3 1,-3 2,-2 2,-2 3,-2 3,-1 3,0 2,0 1,0 2,1 1,0 1,1 2,1 1,1 1,1" /><circle style="fill:#000;stroke:#7f7f7f;stroke-width:2" cx="296" cy="951" r="15" /><path style="fill:none;stroke:#fff;stroke-width:2" d="M285,963 l-1,-1 -1,-2 0,-1 -1,-1 -1,-2 0,-1 0,-2 0,-1 0,-3 1,-3 1,-3 2,-2 3,-2 2,-2 3,-1 3,0 2,0 1,0 2,1 1,0 2,1 1,1 1,1 1,1" /><path style="fill:none;stroke:#fff;stroke-width:2" d="M9,10 l396,0" /></svg>