<!DOCTYPE svg PUBLIC "-//W3C//DTD SVG 20000303 Stylable//EN" "http://www.w3.org/TR/2000/03/WD-SVG-20000303/DTD/svg-20000303-stylable.dtd"[]><svg xmlns="http://www.w3.org/2000/svg" width="999px" height="606px" viewBox="0 0 999 582"><path style="fill:#7f7f7f;stroke:#4c4c4c;stroke-width:2" d="M0,0 l998,0 0,582 -998,0 0,-582z" /><path style="fill:#fff;stroke:#4c4c4c;stroke-width:2" d="M10,572 l978,-562 11,-10 -999,0 0,582 10,-10z" /><path style="fill:#000;stroke:#4c4c4c;stroke-width:2" d="M10,10 l978,0 0,562 -978,0 0,-562z" /><path style="fill:#e5e5e5;stroke:#4c4c4c;stroke-width:2" d="M124,104 l750,0 0,312 -750,0 0,-312z" /><path style="fill:#0f0;stroke:#4c4c4c;stroke-width:2" d="M166,166 l687,0 0,208 -687,0 0,-208z" /><path style="fill:none;stroke:#fff;stroke-width:2" d="M41,437 l83,0 0,83 -83,0 0,-83" /><path style="fill:none;stroke:#fff;stroke-width:2" d="M208,437 l83,0 0,83 -83,0 0,-83" /><path style="fill:#000;stroke:#fff;stroke-width:2" d="M374,437 l83,0 0,83 -83,0 0,-83z" /><path style="fill:none;stroke:#fff;stroke-width:2" d="M541,437 l83,0 0,83 -83,0 0,-83" /><path style="fill:none;stroke:#fff;stroke-width:2" d="M707,437 l83,0 0,83 -83,0 0,-83" /><path style="fill:none;stroke:#fff;stroke-width:2" d="M874,437 l83,0 0,83 -83,0 0,-83" /><path style="fill:none;stroke:#fff;stroke-width:2" d="M884,270 l83,0 0,83 -83,0 0,-83" /><path style="fill:none;stroke:#fff;stroke-width:2" d="M884,104 l83,0 0,83 -83,0 0,-83" /><path style="fill:#fff;stroke:#fff;stroke-width:2" d="M384,509 l32,-62 31,62 -63,0z" /><path style="fill:#fff;stroke:#fff;stroke-width:2" d="M614,447 l-32,62 -31,-62 63,0z" /><path style="fill:#fff;stroke:#fff;stroke-width:2" d="M780,509 l-63,-31 63,-31 0,62z" /><path style="fill:#fff;stroke:#fff;stroke-width:2" d="M947,509 l-63,-31 63,-31 0,62z" /><path style="fill:#093;stroke:#4c4c4c;stroke-width:2" d="M166,166 l687,0 0,52 -687,0 0,-52z" /><path style="fill:#063;stroke:#4c4c4c;stroke-width:2" d="M166,166 l687,0 0,21 -687,0 0,-21z" /></svg>