<!DOCTYPE svg PUBLIC "-//W3C//DTD SVG 20000303 Stylable//EN" "http://www.w3.org/TR/2000/03/WD-SVG-20000303/DTD/svg-20000303-stylable.dtd"[]><svg xmlns="http://www.w3.org/2000/svg" width="527px" height="999px" viewBox="0 0 499 999"><path style="fill:#e5e5e5;stroke:#4c4c4c;stroke-width:2" d="M0,0 l499,0 0,999 -499,0 0,-999z" /><path style="fill:#000;stroke:#4c4c4c;stroke-width:2" d="M31,30 l437,0 0,937 -437,0 0,-937z" /><path style="fill:#7f7f7f" d="M46,788 l125,0 0,86 -125,0 0,-86z" /><path style="fill:#7f7f7f" d="M187,788 l265,0 0,86 -265,0 0,-86z" /><path style="fill:#7f7f7f" d="M46,686 l125,0 0,86 -125,0 0,-86z" /><path style="fill:#7f7f7f" d="M327,686 l125,0 0,86 -125,0 0,-86z" /><path style="fill:#7f7f7f" d="M187,686 l125,0 0,86 -125,0 0,-86z" /><path style="fill:#7f7f7f" d="M46,585 l125,0 0,86 -125,0 0,-86z" /><path style="fill:#7f7f7f" d="M327,585 l125,0 0,86 -125,0 0,-86z" /><path style="fill:#7f7f7f" d="M187,585 l125,0 0,86 -125,0 0,-86z" /><ellipse style="fill:#7f7f7f;stroke:#4c4c4c;stroke-width:2" cx="108" cy="628" rx="47" ry="19" /><path style="fill:#333" d="M78,647 l61,0 2,0 3,-1 3,-2 2,-1 2,-3 2,-2 1,-3 1,-3 -93,0 1,3 1,3 2,3 2,2 2,2 3,1 2,1 3,0z" /><ellipse style="fill:#7f7f7f;stroke:#4c4c4c;stroke-width:2" cx="249" cy="628" rx="47" ry="19" /><path style="fill:#333" d="M219,647 l60,0 3,0 3,-1 2,-2 2,-1 2,-3 2,-2 2,-3 1,-3 -94,0 1,3 2,3 1,3 2,2 3,2 2,1 3,1 3,0z" /><ellipse style="fill:#7f7f7f;stroke:#4c4c4c;stroke-width:2" cx="389" cy="628" rx="47" ry="19" /><path style="fill:#333" d="M359,647 l61,0 2,0 3,-1 3,-2 2,-1 2,-3 2,-2 1,-3 1,-3 -93,0 1,3 1,3 2,3 2,2 2,2 3,1 2,1 3,0z" /><ellipse style="fill:#7f7f7f;stroke:#4c4c4c;stroke-width:2" cx="108" cy="729" rx="47" ry="19" /><path style="fill:#333" d="M78,749 l61,0 2,-1 3,-1 3,-1 2,-2 2,-2 2,-3 1,-2 1,-3 -93,0 1,3 1,3 2,2 2,2 2,2 3,1 2,1 3,1z" /><ellipse style="fill:#7f7f7f;stroke:#4c4c4c;stroke-width:2" cx="249" cy="729" rx="47" ry="19" /><path style="fill:#333" d="M219,749 l60,0 3,-1 3,-1 2,-1 2,-2 2,-2 2,-3 2,-2 1,-3 -94,0 1,3 2,3 1,2 2,2 3,2 2,1 3,1 3,1z" /><ellipse style="fill:#7f7f7f;stroke:#4c4c4c;stroke-width:2" cx="389" cy="729" rx="47" ry="19" /><path style="fill:#333" d="M359,749 l61,0 2,-1 3,-1 3,-1 2,-2 2,-2 2,-3 1,-2 1,-3 -93,0 1,3 1,3 2,2 2,2 2,2 3,1 2,1 3,1z" /><ellipse style="fill:#7f7f7f;stroke:#4c4c4c;stroke-width:2" cx="108" cy="831" rx="47" ry="19" /><path style="fill:#333" d="M78,850 l61,0 2,0 3,-1 3,-2 2,-1 2,-3 2,-2 1,-3 1,-3 -93,0 1,3 1,3 2,3 2,2 2,2 3,1 2,1 3,0z" /><ellipse style="fill:#7f7f7f;stroke:#4c4c4c;stroke-width:2" cx="389" cy="831" rx="47" ry="19" /><path style="fill:#333" d="M359,850 l61,0 2,0 3,-1 3,-2 2,-1 2,-3 2,-2 1,-3 1,-3 -93,0 1,3 1,3 2,3 2,2 2,2 3,1 2,1 3,0z" /><path style="fill:none;stroke:#7f7f7f;stroke-width:2" d="M156,546 l296,0 0,-141 -296,0 0,141" /><path style="fill:none;stroke:#7f7f7f;stroke-width:2" d="M156,390 l296,0 0,-141 -296,0 0,141" /><path style="fill:none;stroke:#fff;stroke-width:2" d="M406,77 l0,-31 31,0" /><path style="fill:none;stroke:#fff;stroke-width:2" d="M406,62 l31,0" /><circle style="fill:#000;stroke:#fff;stroke-width:2" cx="390" cy="54" r="8" /><path style="fill:none;stroke:#0f0;stroke-width:2" d="M62,482 l15,0 0,-8 -15,0 0,-8 15,0" /><path style="fill:none;stroke:#0f0;stroke-width:2" d="M85,466 l8,16 8,-16" /><circle style="fill:#ff0" cx="120" cy="470" r="4" /><path style="fill:none;stroke:#f00;stroke-width:2" d="M85,312 l8,15 8,-15" /><circle style="fill:#f00" cx="120" cy="316" r="4" /><path style="fill:none;stroke:#f00;stroke-width:2" d="M62,327 l0,-15 15,0 0,8 -15,0" /><path style="fill:none;stroke:#7f7f7f;stroke-width:2" d="M54,93 l78,0 0,141 -78,0 0,-141" /><path style="fill:none;stroke:#7f7f7f;stroke-width:2" d="M132,93 l78,0 0,141 -78,0 0,-141" /><path style="fill:none;stroke:#7f7f7f;stroke-width:2" d="M211,93 l78,0 0,141 -78,0 0,-141" /><path style="fill:none;stroke:#7f7f7f;stroke-width:2" d="M289,93 l78,0 0,141 -78,0 0,-141" /><path style="fill:none;stroke:#7f7f7f;stroke-width:2" d="M367,93 l78,0 0,141 -78,0 0,-141" /><circle style="fill:#ff0" cx="93" cy="143" r="4" /><path style="fill:none;stroke:#7f7f7f;stroke-width:2" d="M101,116 l-16,0 1,16 15,0" /><path style="fill:none;stroke:#7f7f7f;stroke-width:2" d="M171,116 l-15,0 0,16 15,0" /><path style="fill:none;stroke:#7f7f7f;stroke-width:2" d="M179,116 l16,0 0,8 -16,0 0,8 16,0" /><path style="fill:none;stroke:#7f7f7f;stroke-width:2" d="M241,132 l0,-16" /><path style="fill:none;stroke:#7f7f7f;stroke-width:2" d="M241,124 l16,0" /><path style="fill:none;stroke:#7f7f7f;stroke-width:2" d="M257,132 l0,-16" /><path style="fill:none;stroke:#7f7f7f;stroke-width:2" d="M320,116 l0,16 15,0" /><path style="fill:none;stroke:#7f7f7f;stroke-width:2" d="M390,132 l0,-16" /><path style="fill:none;stroke:#7f7f7f;stroke-width:2" d="M390,124 l16,0" /><path style="fill:none;stroke:#7f7f7f;stroke-width:2" d="M406,132 l0,-16" /><path style="fill:none;stroke:#7f7f7f;stroke-width:2" d="M413,124 l8,0 0,-8 -8,0 0,16 16,0 0,-8 -8,0" /><path style="fill:#fff;stroke:#4c4c4c;stroke-width:2" d="M46,921 l78,0 0,15 -78,0 0,-15z" /></svg>