<!DOCTYPE svg PUBLIC "-//W3C//DTD SVG 20000303 Stylable//EN" "http://www.w3.org/TR/2000/03/WD-SVG-20000303/DTD/svg-20000303-stylable.dtd"[]><svg xmlns="http://www.w3.org/2000/svg" width="999px" height="595px" viewBox="0 0 999 574"><path style="fill:#dbb770" d="M4,74 l849,0 0,496 -849,0 0,-496z" /><path style="fill:#ebd7ae" d="M641,74 l106,0 0,496 -106,0 0,-496z" /><path style="fill:#ebd7ae" d="M552,74 l53,0 0,496 -53,0 0,-496z" /><path style="fill:#ebd7ae" d="M464,74 l53,0 0,496 -53,0 0,-496z" /><path style="fill:#ebd7ae" d="M375,74 l53,0 0,496 -53,0 0,-496z" /><path style="fill:#ebd7ae" d="M287,74 l53,0 0,496 -53,0 0,-496z" /><path style="fill:#ebd7ae" d="M198,74 l54,0 0,496 -54,0 0,-496z" /><path style="fill:#ebd7ae" d="M110,74 l53,0 0,496 -53,0 0,-496z" /><path style="fill:#f5ebd6" d="M4,74 l106,0 0,124 -106,0 0,-124z" /><path style="fill:#007f00" d="M22,446 l26,0 0,88 -26,0 0,-88z" /><path style="fill:#007f00" d="M66,446 l26,0 0,88 -26,0 0,-88z" /><path style="fill:#007f00" d="M22,344 l26,0 0,89 -26,0 0,-89z" /><path style="fill:#007f00" d="M66,344 l26,0 0,89 -26,0 0,-89z" /><path style="fill:#900" d="M27,149 l-5,-13 5,-12 12,-5 13,5 5,12 -5,13 -13,5 -12,-5z" /><path style="fill:#900" d="M66,159 l17,0 0,17 -17,0 0,-17z" /><path style="fill:#900" d="M66,127 l17,0 0,18 -17,0 0,-18z" /><path style="fill:#900" d="M66,97 l17,0 0,17 -17,0 0,-17z" /><path style="fill:#900" d="M132,535 l9,0 0,8 -9,0 0,-8z" /><path style="fill:#900" d="M177,535 l8,0 0,8 -8,0 0,-8z" /><path style="fill:#900" d="M221,535 l8,0 0,8 -8,0 0,-8z" /><path style="fill:#900" d="M265,535 l8,0 0,8 -8,0 0,-8z" /><path style="fill:#900" d="M309,535 l9,0 0,8 -9,0 0,-8z" /><path style="fill:#900" d="M354,535 l8,0 0,8 -8,0 0,-8z" /><path style="fill:#900" d="M397,535 l9,0 0,8 -9,0 0,-8z" /><path style="fill:#900" d="M442,535 l8,0 0,8 -8,0 0,-8z" /><path style="fill:#900" d="M486,535 l8,0 0,8 -8,0 0,-8z" /><path style="fill:#900" d="M530,535 l9,0 0,8 -9,0 0,-8z" /><path style="fill:#900" d="M574,535 l9,0 0,8 -9,0 0,-8z" /><path style="fill:#900" d="M619,535 l8,0 0,8 -8,0 0,-8z" /><path style="fill:#900" d="M132,499 l9,0 0,9 -9,0 0,-9z" /><path style="fill:#900" d="M177,499 l8,0 0,9 -8,0 0,-9z" /><path style="fill:#900" d="M221,499 l8,0 0,9 -8,0 0,-9z" /><path style="fill:#900" d="M265,499 l8,0 0,9 -8,0 0,-9z" /><path style="fill:#900" d="M309,499 l9,0 0,9 -9,0 0,-9z" /><path style="fill:#900" d="M354,499 l8,0 0,9 -8,0 0,-9z" /><path style="fill:#900" d="M397,499 l9,0 0,9 -9,0 0,-9z" /><path style="fill:#900" d="M442,499 l8,0 0,9 -8,0 0,-9z" /><path style="fill:#900" d="M486,499 l8,0 0,9 -8,0 0,-9z" /><path style="fill:#900" d="M530,499 l9,0 0,9 -9,0 0,-9z" /><path style="fill:#900" d="M574,499 l9,0 0,9 -9,0 0,-9z" /><path style="fill:#900" d="M619,499 l8,0 0,9 -8,0 0,-9z" /><path style="fill:#900" d="M132,464 l9,0 0,8 -9,0 0,-8z" /><path style="fill:#900" d="M177,464 l8,0 0,8 -8,0 0,-8z" /><path style="fill:#900" d="M221,464 l8,0 0,8 -8,0 0,-8z" /><path style="fill:#900" d="M265,464 l8,0 0,8 -8,0 0,-8z" /><path style="fill:#900" d="M309,464 l9,0 0,8 -9,0 0,-8z" /><path style="fill:#900" d="M354,464 l8,0 0,8 -8,0 0,-8z" /><path style="fill:#900" d="M397,464 l9,0 0,8 -9,0 0,-8z" /><path style="fill:#900" d="M442,464 l8,0 0,8 -8,0 0,-8z" /><path style="fill:#900" d="M486,464 l8,0 0,8 -8,0 0,-8z" /><path style="fill:#900" d="M530,464 l9,0 0,8 -9,0 0,-8z" /><path style="fill:#900" d="M574,464 l9,0 0,8 -9,0 0,-8z" /><path style="fill:#900" d="M619,464 l8,0 0,8 -8,0 0,-8z" /><path style="fill:#900" d="M132,429 l9,0 0,8 -9,0 0,-8z" /><path style="fill:#900" d="M177,429 l8,0 0,8 -8,0 0,-8z" /><path style="fill:#900" d="M221,429 l8,0 0,8 -8,0 0,-8z" /><path style="fill:#900" d="M265,429 l8,0 0,8 -8,0 0,-8z" /><path style="fill:#900" d="M309,429 l9,0 0,8 -9,0 0,-8z" /><path style="fill:#900" d="M354,429 l8,0 0,8 -8,0 0,-8z" /><path style="fill:#900" d="M397,429 l9,0 0,8 -9,0 0,-8z" /><path style="fill:#900" d="M442,429 l8,0 0,8 -8,0 0,-8z" /><path style="fill:#900" d="M486,429 l8,0 0,8 -8,0 0,-8z" /><path style="fill:#900" d="M530,429 l9,0 0,8 -9,0 0,-8z" /><path style="fill:#900" d="M574,429 l9,0 0,8 -9,0 0,-8z" /><path style="fill:#900" d="M619,429 l8,0 0,8 -8,0 0,-8z" /><path style="fill:#900" d="M132,393 l9,0 0,9 -9,0 0,-9z" /><path style="fill:#900" d="M177,393 l8,0 0,9 -8,0 0,-9z" /><path style="fill:#900" d="M221,393 l8,0 0,9 -8,0 0,-9z" /><path style="fill:#900" d="M265,393 l8,0 0,9 -8,0 0,-9z" /><path style="fill:#900" d="M309,393 l9,0 0,9 -9,0 0,-9z" /><path style="fill:#900" d="M354,393 l8,0 0,9 -8,0 0,-9z" /><path style="fill:#900" d="M397,393 l9,0 0,9 -9,0 0,-9z" /><path style="fill:#900" d="M442,393 l8,0 0,9 -8,0 0,-9z" /><path style="fill:#900" d="M486,393 l8,0 0,9 -8,0 0,-9z" /><path style="fill:#900" d="M530,393 l9,0 0,9 -9,0 0,-9z" /><path style="fill:#900" d="M574,393 l9,0 0,9 -9,0 0,-9z" /><path style="fill:#900" d="M619,393 l8,0 0,9 -8,0 0,-9z" /><path style="fill:#900" d="M132,358 l9,0 0,8 -9,0 0,-8z" /><path style="fill:#900" d="M177,358 l8,0 0,8 -8,0 0,-8z" /><path style="fill:#900" d="M221,358 l8,0 0,8 -8,0 0,-8z" /><path style="fill:#900" d="M265,358 l8,0 0,8 -8,0 0,-8z" /><path style="fill:#900" d="M309,358 l9,0 0,8 -9,0 0,-8z" /><path style="fill:#900" d="M354,358 l8,0 0,8 -8,0 0,-8z" /><path style="fill:#900" d="M397,358 l9,0 0,8 -9,0 0,-8z" /><path style="fill:#900" d="M442,358 l8,0 0,8 -8,0 0,-8z" /><path style="fill:#900" d="M486,358 l8,0 0,8 -8,0 0,-8z" /><path style="fill:#900" d="M530,358 l9,0 0,8 -9,0 0,-8z" /><path style="fill:#900" d="M574,358 l9,0 0,8 -9,0 0,-8z" /><path style="fill:#900" d="M619,358 l8,0 0,8 -8,0 0,-8z" /><path style="fill:#900" d="M132,322 l9,0 0,9 -9,0 0,-9z" /><path style="fill:#900" d="M177,322 l8,0 0,9 -8,0 0,-9z" /><path style="fill:#900" d="M221,322 l8,0 0,9 -8,0 0,-9z" /><path style="fill:#900" d="M265,322 l8,0 0,9 -8,0 0,-9z" /><path style="fill:#900" d="M309,322 l9,0 0,9 -9,0 0,-9z" /><path style="fill:#900" d="M354,322 l8,0 0,9 -8,0 0,-9z" /><path style="fill:#900" d="M397,322 l9,0 0,9 -9,0 0,-9z" /><path style="fill:#900" d="M442,322 l8,0 0,9 -8,0 0,-9z" /><path style="fill:#900" d="M486,322 l8,0 0,9 -8,0 0,-9z" /><path style="fill:#900" d="M530,322 l9,0 0,9 -9,0 0,-9z" /><path style="fill:#900" d="M574,322 l9,0 0,9 -9,0 0,-9z" /><path style="fill:#900" d="M619,322 l8,0 0,9 -8,0 0,-9z" /><path style="fill:#900" d="M132,287 l9,0 0,9 -9,0 0,-9z" /><path style="fill:#900" d="M177,287 l8,0 0,9 -8,0 0,-9z" /><path style="fill:#900" d="M221,287 l8,0 0,9 -8,0 0,-9z" /><path style="fill:#900" d="M265,287 l8,0 0,9 -8,0 0,-9z" /><path style="fill:#900" d="M309,287 l9,0 0,9 -9,0 0,-9z" /><path style="fill:#900" d="M354,287 l8,0 0,9 -8,0 0,-9z" /><path style="fill:#900" d="M397,287 l9,0 0,9 -9,0 0,-9z" /><path style="fill:#900" d="M442,287 l8,0 0,9 -8,0 0,-9z" /><path style="fill:#900" d="M486,287 l8,0 0,9 -8,0 0,-9z" /><path style="fill:#900" d="M530,287 l9,0 0,9 -9,0 0,-9z" /><path style="fill:#900" d="M574,287 l9,0 0,9 -9,0 0,-9z" /><path style="fill:#900" d="M619,287 l8,0 0,9 -8,0 0,-9z" /><path style="fill:#900" d="M132,252 l9,0 0,8 -9,0 0,-8z" /><path style="fill:#900" d="M177,252 l8,0 0,8 -8,0 0,-8z" /><path style="fill:#900" d="M221,252 l8,0 0,8 -8,0 0,-8z" /><path style="fill:#900" d="M265,252 l8,0 0,8 -8,0 0,-8z" /><path style="fill:#900" d="M309,252 l9,0 0,8 -9,0 0,-8z" /><path style="fill:#900" d="M354,252 l8,0 0,8 -8,0 0,-8z" /><path style="fill:#900" d="M397,252 l9,0 0,8 -9,0 0,-8z" /><path style="fill:#900" d="M442,252 l8,0 0,8 -8,0 0,-8z" /><path style="fill:#900" d="M486,252 l8,0 0,8 -8,0 0,-8z" /><path style="fill:#900" d="M530,252 l9,0 0,8 -9,0 0,-8z" /><path style="fill:#900" d="M574,252 l9,0 0,8 -9,0 0,-8z" /><path style="fill:#900" d="M619,252 l8,0 0,8 -8,0 0,-8z" /><path style="fill:#900" d="M132,216 l9,0 0,9 -9,0 0,-9z" /><path style="fill:#900" d="M177,216 l8,0 0,9 -8,0 0,-9z" /><path style="fill:#900" d="M221,216 l8,0 0,9 -8,0 0,-9z" /><path style="fill:#900" d="M265,216 l8,0 0,9 -8,0 0,-9z" /><path style="fill:#900" d="M309,216 l9,0 0,9 -9,0 0,-9z" /><path style="fill:#900" d="M354,216 l8,0 0,9 -8,0 0,-9z" /><path style="fill:#900" d="M397,216 l9,0 0,9 -9,0 0,-9z" /><path style="fill:#900" d="M442,216 l8,0 0,9 -8,0 0,-9z" /><path style="fill:#900" d="M486,216 l8,0 0,9 -8,0 0,-9z" /><path style="fill:#900" d="M530,216 l9,0 0,9 -9,0 0,-9z" /><path style="fill:#900" d="M574,216 l9,0 0,9 -9,0 0,-9z" /><path style="fill:#900" d="M619,216 l8,0 0,9 -8,0 0,-9z" /><path style="fill:#f2e5cc;stroke:#4c4c4c;stroke-width:2" d="M4,74 l141,-70 849,0 -141,70 -849,0z" /><path style="fill:#d1a347;stroke:#4c4c4c;stroke-width:2" d="M853,570 l141,-71 0,-495 -141,70 0,496z" /><path style="fill:none;stroke:#4c4c4c;stroke-width:2" d="M4,74 l849,0 0,496 -849,0 0,-496" /></svg>