<!DOCTYPE svg PUBLIC "-//W3C//DTD SVG 20000303 Stylable//EN" "http://www.w3.org/TR/2000/03/WD-SVG-20000303/DTD/svg-20000303-stylable.dtd"[]><svg xmlns="http://www.w3.org/2000/svg" width="999px" height="920px" viewBox="0 0 999 916"><path style="fill:#e5e5e5" d="M66,4 l928,0 0,907 -928,0 0,-907z" /><path style="fill:#999" d="M808,46 l186,0 0,185 -186,0 0,-185z" /><path style="fill:#999" d="M561,46 l186,0 0,185 -186,0 0,-185z" /><path style="fill:#999" d="M314,46 l185,0 0,185 -185,0 0,-185z" /><path style="fill:#999" d="M66,46 l186,0 0,185 -186,0 0,-185z" /><path style="fill:#8ca0bf" d="M66,272 l186,0 0,639 -186,0 0,-639z" /><path style="fill:#999" d="M348,787 l75,0 0,124 -75,0 0,-124z" /><path style="fill:#999" d="M499,787 l76,0 0,124 -76,0 0,-124z" /><path style="fill:#999" d="M650,787 l76,0 0,124 -76,0 0,-124z" /><path style="fill:#999" d="M802,787 l75,0 0,124 -75,0 0,-124z" /><path style="fill:#999" d="M802,252 l75,0 0,185 -75,0 0,-185z" /><path style="fill:#999" d="M650,252 l76,0 0,185 -76,0 0,-185z" /><path style="fill:#999" d="M499,252 l76,0 0,185 -76,0 0,-185z" /><path style="fill:#999" d="M348,252 l75,0 0,185 -75,0 0,-185z" /><path style="fill:#b2b2b2" d="M272,787 l76,0 0,124 -76,0 0,-124z" /><path style="fill:#b2b2b2" d="M423,787 l76,0 0,124 -76,0 0,-124z" /><path style="fill:#b2b2b2" d="M575,787 l76,0 0,124 -76,0 0,-124z" /><path style="fill:#b2b2b2" d="M726,787 l76,0 0,124 -76,0 0,-124z" /><path style="fill:#b2b2b2" d="M877,787 l75,0 0,124 -75,0 0,-124z" /><path style="fill:#b2b2b2" d="M877,252 l75,0 0,185 -75,0 0,-185z" /><path style="fill:#b2b2b2" d="M726,252 l76,0 0,185 -76,0 0,-185z" /><path style="fill:#b2b2b2" d="M575,252 l76,0 0,185 -76,0 0,-185z" /><path style="fill:#b2b2b2" d="M272,252 l76,0 0,185 -76,0 0,-185z" /><path style="fill:#b2b2b2" d="M423,252 l76,0 0,185 -76,0 0,-185z" /><path style="fill:#ccc" d="M66,87 l-62,0 0,824 62,0 0,-824z" /><path style="fill:none;stroke:#4c4c4c;stroke-width:2" d="M66,87 l0,-83 928,0 0,907 -990,0 0,-824 62,0" /><path style="fill:#666" d="M914,437 l38,0 0,350 -38,0 0,-350z" /><path style="fill:#666" d="M839,437 l38,0 0,350 -38,0 0,-350z" /><path style="fill:#666" d="M763,437 l39,0 0,350 -39,0 0,-350z" /><path style="fill:#666" d="M688,437 l38,0 0,350 -38,0 0,-350z" /><path style="fill:#666" d="M612,437 l39,0 0,350 -39,0 0,-350z" /><path style="fill:#666" d="M537,437 l38,0 0,350 -38,0 0,-350z" /><path style="fill:#666" d="M461,437 l38,0 0,350 -38,0 0,-350z" /><path style="fill:#666" d="M386,437 l37,0 0,350 -37,0 0,-350z" /><path style="fill:#666" d="M310,437 l38,0 0,350 -38,0 0,-350z" /><path style="fill:#bfd3f2" d="M87,705 l144,0 0,144 -144,0 0,-144z" /><path style="fill:#bfd3f2" d="M87,417 l144,0 0,144 -144,0 0,-144z" /><path style="fill:#596d8c" d="M87,293 l144,0 0,123 -144,0 0,-123z" /><path style="fill:#900" d="M128,293 l62,0 0,123 -62,0 0,-123z" /><path style="fill:#900" d="M128,488 l9,-22 22,-9 22,9 9,22 -9,23 -22,8 -22,-8 -9,-23z" /></svg>