<!DOCTYPE svg PUBLIC "-//W3C//DTD SVG 20000303 Stylable//EN" "http://www.w3.org/TR/2000/03/WD-SVG-20000303/DTD/svg-20000303-stylable.dtd"[]><svg xmlns="http://www.w3.org/2000/svg" width="999px" height="616px" viewBox="0 0 999 593"><path style="fill:#333" d="M0,583 l10,10 21,0 10,-10 916,0 12,10 19,0 11,-10 0,-12 -999,0 0,12z" /><path style="fill:#e5e5e5;stroke:#4c4c4c;stroke-width:2" d="M0,0 l999,0 0,573 -999,0 0,-573z" /><path style="fill:#d9d9d9" d="M20,20 l958,0 0,63 -958,208 0,-271z" /><path style="fill:#191919" d="M41,20 l916,0 0,73 -916,0 0,-73z" /><path style="fill:#36c" d="M41,135 l916,0 0,-42 -916,0 0,42z" /><path style="fill:#000" d="M455,185 l48,0 6,-8 42,8 0,24 -42,8 -6,-8 -48,0 0,-24z" /><path style="fill:#ccc" d="M455,195 l48,0 6,0 42,0 0,4 -42,2 -6,-2 -48,0 0,-4z" /><path style="fill:#dedede" d="M20,489 l958,-238 0,320 -958,0 0,-82z" /><path style="fill:none;stroke:#7f7f7f;stroke-width:2" d="M20,573 l0,-553 958,0 0,553" /><path style="fill:#ccc" d="M62,447 l437,0 0,124 -437,0 0,-124z" /><path style="fill:#f2f2f2" d="M155,551 l-93,-104 0,-218 127,-169 182,0 128,169 0,218 -104,104 -240,0z" /><path style="fill:#191919" d="M113,229 l84,-146 166,0 84,146 -334,0z" /><path style="fill:#36c" d="M113,229 l42,-74 250,0 42,74 -334,0z" /><path style="fill:#b2b2b2" d="M113,229 l22,-38 290,0 22,38 -334,0z" /><path style="fill:none;stroke:#4c4c4c;stroke-width:2" d="M113,229 l84,-146 166,0" /><path style="fill:none;stroke:#fff;stroke-width:2" d="M113,229 l334,0 -84,-146" /><path style="fill:#e5e5e5" d="M499,395 l-146,-84 0,22 146,82 0,-20z" /><path style="fill:#e5e5e5" d="M62,395 l145,-84 0,22 -145,82 0,-20z" /><path style="fill:none;stroke:#4c4c4c;stroke-width:2" d="M155,551 l-93,-104 0,-218 127,-169 182,0 128,169 0,218 -104,104 -240,0" /><path style="fill:#fff" d="M353,311 l-146,0 0,22 146,0 0,-22z" /><circle style="fill:#4c4c4c;stroke:#4c4c4c;stroke-width:2" cx="280" cy="384" r="21" /><circle style="fill:#b2b2b2" cx="160" cy="463" r="15" /><circle style="fill:#b2b2b2" cx="400" cy="463" r="15" /><path style="fill:#999" d="M437,541 l530,0 0,10 -530,0 0,-10z" /></svg>