<!DOCTYPE svg PUBLIC "-//W3C//DTD SVG 20000303 Stylable//EN" "http://www.w3.org/TR/2000/03/WD-SVG-20000303/DTD/svg-20000303-stylable.dtd"[]><svg xmlns="http://www.w3.org/2000/svg" width="488px" height="999px" viewBox="0 0 457 999"><path style="fill:#f9c;stroke:#4c4c4c;stroke-width:2" d="M0,51 l415,0 0,948 -415,0 0,-948z" /><path style="fill:#e5e5e5;stroke:#4c4c4c;stroke-width:2" d="M19,51 l377,0 0,948 -377,0 0,-948z" /><path style="fill:#e57fb2;stroke:#4c4c4c;stroke-width:2" d="M61,0 l3,1 2,1 2,2 2,2 1,2 2,2 0,2 0,2 0,4 -1,3 -1,3 -2,3 -3,2 -3,1 -3,1 -4,0 -3,0 -2,-1 -3,-1 -2,-2 -2,-3 -1,-3 -1,-3 -1,-4 1,-2 0,-2 1,-2 2,-2 1,-2 1,-2 2,-1 2,-1 -51,0 0,51 415,0 0,-51 -51,0 2,1 1,1 2,2 1,2 2,2 1,2 0,2 1,2 -1,4 -1,3 -1,3 -2,3 -2,2 -3,1 -2,1 -3,0 -4,0 -3,-1 -2,-1 -2,-2 -2,-3 -1,-3 -1,-3 0,-4 0,-2 1,-2 1,-2 1,-2 1,-2 2,-2 2,-1 2,-1 -293,0z" /><path style="fill:#4c4c4c;stroke:#4c4c4c;stroke-width:2" d="M415,51 l42,0 0,948 -42,0 0,-948z" /><path style="fill:#4c4c4c;stroke:#4c4c4c;stroke-width:2" d="M103,250 l42,0 0,542 -42,0 0,-542z" /><circle style="fill:#ccc;stroke:#4c4c4c;stroke-width:2" cx="238" cy="88" r="10" /><circle style="fill:#000;stroke:#4c4c4c;stroke-width:2" cx="238" cy="88" r="5" /><circle style="fill:#ccc;stroke:#4c4c4c;stroke-width:2" cx="238" cy="181" r="10" /><circle style="fill:#000;stroke:#4c4c4c;stroke-width:2" cx="238" cy="182" r="5" /><path style="fill:#000;stroke:#4c4c4c;stroke-width:2" d="M255,167 l-32,-5 0,-54 32,-5 0,64z" /><path style="fill:#fff;stroke:#4c4c4c;stroke-width:2" d="M233,108 l10,0 0,54 -10,0 0,-54z" /><circle style="fill:#ccc;stroke:#4c4c4c;stroke-width:2" cx="296" cy="88" r="11" /><circle style="fill:#000;stroke:#4c4c4c;stroke-width:2" cx="296" cy="88" r="6" /><ellipse style="fill:#ccc;stroke:#4c4c4c;stroke-width:2" cx="296" cy="181" rx="11" ry="9" /><circle style="fill:#000;stroke:#4c4c4c;stroke-width:2" cx="296" cy="182" r="6" /><path style="fill:#000;stroke:#4c4c4c;stroke-width:2" d="M312,167 l-32,-5 0,-54 32,-5 0,64z" /><path style="fill:#fff;stroke:#4c4c4c;stroke-width:2" d="M292,108 l10,0 0,54 -10,0 0,-54z" /><path style="fill:#fff" d="M120,317 l10,0 0,406 -10,0 0,-406z" /><circle style="fill:#ccc;stroke:#4c4c4c;stroke-width:2" cx="109" cy="942" r="11" /><circle style="fill:#000;stroke:#4c4c4c;stroke-width:2" cx="108" cy="942" r="5" /><ellipse style="fill:#ccc;stroke:#4c4c4c;stroke-width:2" cx="109" cy="848" rx="11" ry="9" /><circle style="fill:#000;stroke:#4c4c4c;stroke-width:2" cx="108" cy="848" r="5" /><path style="fill:#000;stroke:#4c4c4c;stroke-width:2" d="M93,863 l32,5 0,52 -32,7 0,-64z" /><path style="fill:#fff;stroke:#4c4c4c;stroke-width:2" d="M113,920 l-10,0 0,-52 10,0 0,52z" /><path style="fill:#f9c" d="M167,265 l66,0 0,5 -66,0 0,-5z" /><path style="fill:#f9c" d="M167,297 l66,0 0,8 -66,0 0,-8z" /><path style="fill:#f9c" d="M167,332 l66,0 0,5 -66,0 0,-5z" /><path style="fill:#f9c" d="M167,366 l66,0 0,5 -66,0 0,-5z" /><path style="fill:#f9c" d="M167,398 l66,0 0,5 -66,0 0,-5z" /><path style="fill:#f9c" d="M167,433 l123,0 0,4 -123,0 0,-4z" /><path style="fill:#f9c" d="M167,465 l123,0 0,4 -123,0 0,-4z" /><path style="fill:#f9c" d="M167,499 l123,0 0,5 -123,0 0,-5z" /><path style="fill:#f9c" d="M167,531 l123,0 0,5 -123,0 0,-5z" /><path style="fill:#f9c" d="M167,565 l123,0 0,6 -123,0 0,-6z" /><path style="fill:#f9c" d="M167,597 l172,0 0,8 -172,0 0,-8z" /><path style="fill:#f9c" d="M167,632 l172,0 0,5 -172,0 0,-5z" /><path style="fill:#f9c" d="M167,664 l61,0 0,7 -61,0 0,-7z" /><path style="fill:#f9c" d="M167,698 l24,0 0,5 -24,0 0,-5z" /><path style="fill:#f9c" d="M167,733 l135,0 0,5 -135,0 0,-5z" /><path style="fill:#f9c" d="M46,83 l69,0 0,5 -69,0 0,-5z" /><path style="fill:#f9c" d="M46,115 l69,0 0,8 -69,0 0,-8z" /><path style="fill:#f9c" d="M46,150 l69,0 0,5 -69,0 0,-5z" /><path style="fill:#f9c" d="M46,182 l69,0 0,7 -69,0 0,-7z" /><path style="fill:#333" d="M125,83 l20,0 0,5 -20,0 0,-5z" /><path style="fill:#333" d="M125,115 l20,0 0,8 -20,0 0,-8z" /><path style="fill:#333" d="M125,150 l20,0 0,5 -20,0 0,-5z" /><path style="fill:#333" d="M125,182 l20,0 0,7 -20,0 0,-7z" /><path style="fill:#f9c" d="M223,208 l32,0 0,6 -32,0 0,-6z" /><path style="fill:#f9c" d="M280,208 l32,0 0,6 -32,0 0,-6z" /><path style="fill:#f9c" d="M145,863 l32,0 0,5 -32,0 0,-5z" /><path style="fill:#f9c" d="M145,885 l32,0 0,5 -32,0 0,-5z" /></svg>