<!DOCTYPE svg PUBLIC "-//W3C//DTD SVG 20000303 Stylable//EN" "http://www.w3.org/TR/2000/03/WD-SVG-20000303/DTD/svg-20000303-stylable.dtd"[]><svg xmlns="http://www.w3.org/2000/svg" width="998px" height="998px" viewBox="0 0 999 999"><path style="fill:#0000bf;stroke:#4c4c4c;stroke-width:2" d="M133,0 l758,0 40,8 35,24 24,35 9,40 0,758 -9,41 -24,34 -35,24 -40,9 -758,0 -41,-9 -34,-24 -24,-34 -9,-41 0,-758 9,-40 24,-35 34,-24 41,-8z" /><path style="fill:#7f7fff;stroke:#4c4c4c;stroke-width:2" d="M107,25 l758,0 41,9 34,24 24,34 9,41 0,758 -9,40 -24,35 -34,24 -41,9 -758,0 -40,-9 -35,-24 -24,-35 -8,-40 0,-758 8,-41 24,-34 35,-24 40,-9z" /><path style="fill:#0000bf;stroke:#4c4c4c;stroke-width:2" d="M149,122 l675,0 36,16 16,36 0,386 -16,35 -36,15 -675,0 -37,-15 -16,-35 0,-386 16,-36 37,-16z" /><path style="fill:#e8ff69;stroke:#4c4c4c;stroke-width:2" d="M164,140 l645,0 34,13 13,34 0,361 -13,34 -34,13 -645,0 -35,-13 -15,-34 0,-361 15,-34 35,-13z" /><path style="fill:#0000bf;stroke:#4c4c4c;stroke-width:2" d="M96,636 l780,0 0,302 -780,0 0,-302z" /><path style="fill:#e5e5e5;stroke:#4c4c4c;stroke-width:2" d="M112,653 l233,0 0,268 -233,0 0,-268z" /><path style="fill:#e5e5e5;stroke:#4c4c4c;stroke-width:2" d="M597,653 l-233,0 0,268 233,0 0,-268z" /><path style="fill:#e5e5e5;stroke:#4c4c4c;stroke-width:2" d="M621,653 l233,0 0,268 -233,0 0,-268z" /><path style="fill:#7f7f7f;fill-rule:evenodd" d="M231,685 l88,87 -175,0 87,-87z M231,696 l66,67 -131,0 65,-67z " /><path style="fill:none;stroke:#4c4c4c;stroke-width:2" d="M231,685 l88,87 -175,0 87,-87" /><path style="fill:none;stroke:#4c4c4c;stroke-width:2" d="M231,696 l66,67 -131,0 65,-67" /><path style="fill:#7f7f7f;fill-rule:evenodd" d="M485,895 l89,-89 -175,3 86,86z M485,884 l67,-69 -134,0 67,69z " /><path style="fill:none;stroke:#4c4c4c;stroke-width:2" d="M485,895 l89,-89 -175,3 86,86" /><path style="fill:none;stroke:#4c4c4c;stroke-width:2" d="M485,884 l67,-69 -134,0 67,69" /><path style="fill:#7f7f7f;stroke:#4c4c4c;stroke-width:2" d="M817,694 l9,7 -177,177 -7,-7 175,-177z" /><path style="fill:#7f7f7f;stroke:#4c4c4c;stroke-width:2" d="M155,834 l151,0 0,15 -151,0 0,-15z" /><path style="fill:#7f7f7f;stroke:#4c4c4c;stroke-width:2" d="M399,709 l151,0 0,15 -151,0 0,-15z" /></svg>