<!DOCTYPE svg PUBLIC "-//W3C//DTD SVG 20000303 Stylable//EN" "http://www.w3.org/TR/2000/03/WD-SVG-20000303/DTD/svg-20000303-stylable.dtd"[]><svg xmlns="http://www.w3.org/2000/svg" width="841px" height="999px" viewBox="0 0 832 999"><path style="fill:#b2b2b2;stroke:#4c4c4c;stroke-width:2" d="M0,988 l832,0 0,-165 -42,0 0,-20 42,0 0,-618 -42,0 0,-21 42,0 0,-164 -832,0 0,165 41,0 0,20 -41,0 0,618 41,0 0,20 -41,0 0,165z" /><path style="fill:#ccc;stroke:#4c4c4c;stroke-width:2" d="M62,0 l708,0 0,988 -708,0 0,-988z" /><path style="fill:#e5e5e5;stroke:#4c4c4c;stroke-width:2" d="M83,0 l666,0 0,999 -500,0 0,-52 -104,0 0,52 -62,0 0,-999z" /><path style="fill:#bfbfbf" d="M96,28 l-3,-8 3,-7 8,-3 7,3 3,7 -3,8 -7,3 -8,-3z" /><path style="fill:#bfbfbf" d="M320,28 l-3,-8 3,-7 8,-3 7,3 3,7 -3,8 -7,3 -8,-3z" /><path style="fill:#bfbfbf" d="M465,28 l-3,-8 3,-7 8,-3 7,3 3,7 -3,8 -7,3 -8,-3z" /><path style="fill:#bfbfbf" d="M544,28 l-3,-8 3,-7 7,-3 8,3 3,7 -3,8 -8,3 -7,-3z" /><path style="fill:#bfbfbf" d="M689,28 l-3,-8 3,-7 8,-3 7,3 3,7 -3,8 -7,3 -8,-3z" /><path style="fill:#bfbfbf" d="M96,985 l-3,-7 3,-8 8,-3 7,3 3,8 -3,7 -7,3 -8,-3z" /><path style="fill:#bfbfbf" d="M320,985 l-3,-7 3,-8 8,-3 7,3 3,8 -3,7 -7,3 -8,-3z" /><path style="fill:#bfbfbf" d="M465,985 l-3,-7 3,-8 8,-3 7,3 3,8 -3,7 -7,3 -8,-3z" /><path style="fill:#bfbfbf" d="M544,985 l-3,-7 3,-8 7,-3 8,3 3,8 -3,7 -8,3 -7,-3z" /><path style="fill:#bfbfbf" d="M689,985 l-3,-7 3,-8 8,-3 7,3 3,8 -3,7 -7,3 -8,-3z" /><path style="fill:#ccc" d="M515,0 l10,0 0,999 -10,0 0,-999z" /><path style="fill:#ccc" d="M442,0 l10,0 0,999 -10,0 0,-999z" /><path style="fill:#ccc" d="M291,0 l10,0 0,999 -10,0 0,-999z" /><path style="fill:#ccc" d="M661,0 l10,0 0,999 -10,0 0,-999z" /><path style="fill:none;stroke:#4c4c4c;stroke-width:2" d="M675,0 l0,999" /><path style="fill:none;stroke:#4c4c4c;stroke-width:2" d="M527,0 l0,999" /><path style="fill:none;stroke:#4c4c4c;stroke-width:2" d="M453,0 l0,999" /><path style="fill:none;stroke:#4c4c4c;stroke-width:2" d="M305,0 l0,999" /><path style="fill:#333;stroke:#4c4c4c;stroke-width:2" d="M125,291 l124,0 0,416 -124,0 0,-416z" /><path style="fill:#666" d="M114,270 l11,0 0,458 -11,0 0,-458z" /><path style="fill:#666" d="M249,270 l11,0 0,458 -11,0 0,-458z" /><path style="fill:#666" d="M181,270 l12,0 0,458 -12,0 0,-458z" /><path style="fill:#666" d="M159,270 l11,0 0,458 -11,0 0,-458z" /><path style="fill:#666" d="M137,270 l11,0 0,458 -11,0 0,-458z" /><path style="fill:#666" d="M204,270 l11,0 0,458 -11,0 0,-458z" /><path style="fill:#666" d="M226,270 l11,0 0,458 -11,0 0,-458z" /><path style="fill:#333" d="M125,832 l-11,-26 11,-26 26,-11 25,11 11,26 -11,26 -25,10 -26,-10z" /><path style="fill:#fc0;stroke:#4c4c4c;stroke-width:2" d="M124,863 l94,0 0,63 -94,0 0,-63z" /><path style="fill:#19e5cb" d="M104,51 l114,0 0,21 -114,0 0,-21z" /><path style="fill:#4c4c4c" d="M468,322 l41,0 0,593 -41,0 0,-593z" /><path style="fill:#fc0" d="M468,333 l41,0 0,10 -41,0 0,-10z" /><path style="fill:#fc0" d="M468,395 l41,0 0,10 -41,0 0,-10z" /><path style="fill:#fc0" d="M468,364 l41,0 0,10 -41,0 0,-10z" /><path style="fill:#fc0" d="M468,426 l41,0 0,10 -41,0 0,-10z" /><path style="fill:#fc0" d="M468,457 l41,0 0,11 -41,0 0,-11z" /><path style="fill:#fc0" d="M468,489 l41,0 0,10 -41,0 0,-10z" /><path style="fill:#fc0" d="M468,520 l41,0 0,10 -41,0 0,-10z" /><path style="fill:#fc0" d="M468,551 l41,0 0,10 -41,0 0,-10z" /><path style="fill:#fc0" d="M468,614 l41,0 0,10 -41,0 0,-10z" /><path style="fill:#fc0" d="M468,582 l41,0 0,11 -41,0 0,-11z" /><path style="fill:#fc0" d="M468,645 l41,0 0,10 -41,0 0,-10z" /><path style="fill:#fc0" d="M468,676 l41,0 0,10 -41,0 0,-10z" /><path style="fill:#fc0" d="M468,707 l41,0 0,10 -41,0 0,-10z" /><path style="fill:#fc0" d="M468,738 l41,0 0,11 -41,0 0,-11z" /><path style="fill:#fc0" d="M468,769 l41,0 0,11 -41,0 0,-11z" /><path style="fill:#fc0" d="M468,832 l41,0 0,10 -41,0 0,-10z" /><path style="fill:#fc0" d="M468,801 l41,0 0,10 -41,0 0,-10z" /><path style="fill:#fc0" d="M468,863 l41,0 0,10 -41,0 0,-10z" /><path style="fill:#fc0" d="M468,894 l41,0 0,11 -41,0 0,-11z" /><path style="fill:#333" d="M478,322 l21,0 0,593 -21,0 0,-593z" /><path style="fill:#333" d="M333,645 l0,-62 31,-11 0,83 -31,-10z" /><path style="fill:#333" d="M333,770 l0,-63 31,-10 0,83 -31,-10z" /><path style="fill:#333" d="M333,895 l0,-63 31,-10 0,83 -31,-10z" /><path style="fill:#333" d="M395,895 l0,-63 31,-10 0,83 -31,-10z" /><path style="fill:#333" d="M551,562 l0,-63 31,-10 0,83 -31,-10z" /><path style="fill:#333" d="M697,874 l0,-63 31,-10 0,83 -31,-10z" /><path style="fill:#333" d="M697,728 l0,-62 31,-11 0,83 -31,-10z" /><path style="fill:#ccc;stroke:#4c4c4c;stroke-width:2" d="M550,900 l0,-136 47,-15 0,166 -47,-15z" /><path style="fill:#333" d="M550,879 l0,-94 47,-16 0,125 -47,-15z" /><path style="fill:none;stroke:#fff;stroke-width:2" d="M343,478 l0,-187 62,0" /><path style="fill:none;stroke:#7f7f7f;stroke-width:2" d="M406,291 l0,187 -63,0" /><path style="fill:#900" d="M488,187 l11,0 0,10 -11,0 0,-10z" /><path style="fill:#900" d="M488,145 l11,0 0,11 -11,0 0,-11z" /><path style="fill:#900" d="M488,228 l11,0 0,11 -11,0 0,-11z" /><path style="fill:#900" d="M488,103 l11,0 0,11 -11,0 0,-11z" /><path style="fill:#900" d="M468,187 l10,0 0,10 -10,0 0,-10z" /><path style="fill:#900" d="M468,145 l10,0 0,11 -10,0 0,-11z" /><path style="fill:#900" d="M468,228 l10,0 0,11 -10,0 0,-11z" /><path style="fill:#900" d="M468,103 l10,0 0,11 -10,0 0,-11z" /><path style="fill:#900" d="M551,155 l11,0 0,11 -11,0 0,-11z" /><path style="fill:#900" d="M551,103 l11,0 0,11 -11,0 0,-11z" /><path style="fill:#900" d="M707,207 l10,0 0,11 -10,0 0,-11z" /><path style="fill:#900" d="M707,155 l10,0 0,11 -10,0 0,-11z" /><path style="fill:#900" d="M707,103 l10,0 0,11 -10,0 0,-11z" /><path style="fill:#900" d="M333,103 l10,0 0,11 -10,0 0,-11z" /><path style="fill:#900" d="M333,155 l10,0 0,11 -10,0 0,-11z" /><path style="fill:#900" d="M333,207 l10,0 0,11 -10,0 0,-11z" /><path style="fill:none;stroke:#fff;stroke-width:2" d="M728,364 l0,83 -31,0" /><path style="fill:none;stroke:#7f7f7f;stroke-width:2" d="M697,447 l0,-83 31,0" /><path style="fill:none;stroke:#4c4c4c;stroke-width:2" d="M145,999 l0,-52 104,0 0,52 -104,0" /></svg>