<!DOCTYPE svg PUBLIC "-//W3C//DTD SVG 20000303 Stylable//EN" "http://www.w3.org/TR/2000/03/WD-SVG-20000303/DTD/svg-20000303-stylable.dtd"[]><svg xmlns="http://www.w3.org/2000/svg" width="999px" height="696px" viewBox="0 0 999 677"><path style="fill:#0ff;stroke:#4c4c4c;stroke-width:2" d="M891,0 l108,0 0,677 -108,0 0,-677z" /><path style="fill:#0ff;stroke:#4c4c4c;stroke-width:2" d="M784,0 l107,0 0,677 -107,0 0,-677z" /><path style="fill:#0ff;stroke:#4c4c4c;stroke-width:2" d="M677,0 l107,0 0,677 -107,0 0,-677z" /><path style="fill:#0ff;stroke:#4c4c4c;stroke-width:2" d="M570,0 l107,0 0,677 -107,0 0,-677z" /><path style="fill:#0ff;stroke:#4c4c4c;stroke-width:2" d="M463,0 l107,0 0,677 -107,0 0,-677z" /><path style="fill:#0ff;stroke:#4c4c4c;stroke-width:2" d="M356,0 l107,0 0,677 -107,0 0,-677z" /><path style="fill:#0ff;stroke:#4c4c4c;stroke-width:2" d="M249,0 l107,0 0,677 -107,0 0,-677z" /><path style="fill:#0ff;stroke:#4c4c4c;stroke-width:2" d="M142,0 l107,0 0,677 -107,0 0,-677z" /><path style="fill:#0ff;stroke:#4c4c4c;stroke-width:2" d="M0,0 l142,0 0,677 -142,0 0,-677z" /><path style="fill:#0ff;stroke:#4c4c4c;stroke-width:2" d="M0,53 l142,0 0,571 -142,0 0,-571z" /><path style="fill:#0ff;stroke:#4c4c4c;stroke-width:2" d="M891,53 l108,0 0,571 -108,0 0,-571z" /><path style="fill:#0ff;stroke:#4c4c4c;stroke-width:2" d="M784,53 l107,0 0,571 -107,0 0,-571z" /><path style="fill:#0ff;stroke:#4c4c4c;stroke-width:2" d="M677,53 l107,0 0,571 -107,0 0,-571z" /><path style="fill:#0ff;stroke:#4c4c4c;stroke-width:2" d="M570,53 l107,0 0,571 -107,0 0,-571z" /><path style="fill:#0ff;stroke:#4c4c4c;stroke-width:2" d="M463,53 l107,0 0,571 -107,0 0,-571z" /><path style="fill:#0ff;stroke:#4c4c4c;stroke-width:2" d="M356,53 l107,0 0,571 -107,0 0,-571z" /><path style="fill:#0ff;stroke:#4c4c4c;stroke-width:2" d="M249,53 l107,0 0,571 -107,0 0,-571z" /><path style="fill:#0ff;stroke:#4c4c4c;stroke-width:2" d="M142,53 l107,0 0,571 -107,0 0,-571z" /><path style="fill:#0ff;stroke:#4c4c4c;stroke-width:2" d="M798,565 l-5,-12 5,-13 13,-5 13,5 5,13 -5,12 -13,5 -13,-5z" /><path style="fill:#0ff;stroke:#4c4c4c;stroke-width:2" d="M905,565 l-5,-12 5,-13 13,-5 13,5 5,13 -5,12 -13,5 -13,-5z" /><path style="fill:#0ff;stroke:#4c4c4c;stroke-width:2" d="M156,663 l-5,-12 5,-13 13,-5 13,5 5,13 -5,12 -13,6 -13,-6z" /><path style="fill:#0ff;stroke:#4c4c4c;stroke-width:2" d="M263,663 l-5,-12 5,-13 13,-5 13,5 5,13 -5,12 -13,6 -13,-6z" /><path style="fill:#0ff;stroke:#4c4c4c;stroke-width:2" d="M370,663 l-5,-12 5,-13 13,-5 13,5 5,13 -5,12 -13,6 -13,-6z" /><path style="fill:#0ff;stroke:#4c4c4c;stroke-width:2" d="M477,663 l-5,-12 5,-13 13,-5 13,5 5,13 -5,12 -13,6 -13,-6z" /><path style="fill:#0ff;stroke:#4c4c4c;stroke-width:2" d="M584,663 l-5,-12 5,-13 13,-5 13,5 5,13 -5,12 -13,6 -13,-6z" /><path style="fill:#0ff;stroke:#4c4c4c;stroke-width:2" d="M691,663 l-5,-12 5,-13 13,-5 13,5 5,13 -5,12 -13,6 -13,-6z" /><path style="fill:#0ff;stroke:#4c4c4c;stroke-width:2" d="M170,257 l-10,-26 10,-25 26,-10 26,10 10,25 -10,26 -26,10 -26,-10z" /><path style="fill:#0ff;stroke:#4c4c4c;stroke-width:2" d="M277,257 l-10,-26 10,-25 26,-10 26,10 10,25 -10,26 -26,10 -26,-10z" /><path style="fill:#0ff;stroke:#4c4c4c;stroke-width:2" d="M384,257 l-10,-26 10,-25 26,-10 26,10 10,25 -10,26 -26,10 -26,-10z" /><path style="fill:#0ff;stroke:#4c4c4c;stroke-width:2" d="M491,257 l-10,-26 10,-25 26,-10 26,10 10,25 -10,26 -26,10 -26,-10z" /><path style="fill:#0ff;stroke:#4c4c4c;stroke-width:2" d="M598,257 l-10,-26 10,-25 26,-10 26,10 10,25 -10,26 -26,10 -26,-10z" /><path style="fill:#0ff;stroke:#4c4c4c;stroke-width:2" d="M705,257 l-10,-26 10,-25 26,-10 26,10 10,25 -10,26 -26,10 -26,-10z" /><path style="fill:#0ff;stroke:#4c4c4c;stroke-width:2" d="M812,257 l-10,-26 10,-25 26,-10 26,10 10,25 -10,26 -26,10 -26,-10z" /><path style="fill:#0ff;stroke:#4c4c4c;stroke-width:2" d="M919,257 l-10,-26 10,-25 26,-10 26,10 10,25 -10,26 -26,10 -26,-10z" /><path style="fill:#0ff;stroke:#4c4c4c;stroke-width:2" d="M53,544 l36,0 0,35 -36,0 0,-35z" /><path style="fill:#0ff;stroke:#4c4c4c;stroke-width:2" d="M285,544 l36,0 0,35 -36,0 0,-35z" /><path style="fill:#0ff;stroke:#4c4c4c;stroke-width:2" d="M927,321 l54,0 0,169 -54,0 0,-169z" /><path style="fill:#0ff;stroke:#4c4c4c;stroke-width:2" d="M709,338 l53,0 0,170 -53,0 0,-170z" /><path style="fill:#0ff;stroke:#4c4c4c;stroke-width:2" d="M499,410 l36,0 0,98 -36,0 0,-98z" /><path style="fill:#0ff;stroke:#4c4c4c;stroke-width:2" d="M499,544 l36,0 0,35 -36,0 0,-35z" /><path style="fill:#0ff" d="M45,382 l-10,-26 10,-25 26,-10 26,10 10,25 -10,26 -26,10 -26,-10z" /><path style="fill:#0ff" d="M17,107 l81,0 0,17 -81,0 0,-17z" /><path style="fill:#0ff" d="M945,102 l31,0 0,40 -31,0 0,-40z" /><path style="fill:#0ff" d="M285,115 l40,0 0,49 -40,0 0,-49z" /><path style="fill:#0ff" d="M499,454 l36,0 0,36 -36,0 0,-36z" /><path style="fill:#0ff" d="M508,552 l18,0 0,18 -18,0 0,-18z" /><path style="fill:#0ff" d="M383,539 l53,0 0,13 -53,0 0,-13z" /><path style="fill:#0ff" d="M383,570 l53,0 0,13 -53,0 0,-13z" /></svg>