<!DOCTYPE svg PUBLIC "-//W3C//DTD SVG 20000303 Stylable//EN" "http://www.w3.org/TR/2000/03/WD-SVG-20000303/DTD/svg-20000303-stylable.dtd"[]><svg xmlns="http://www.w3.org/2000/svg" width="999px" height="606px" viewBox="0 0 999 582"><path style="fill:#0ff;stroke:#4c4c4c;stroke-width:2" d="M166,561 l-166,0 0,-541 166,0 0,-20 666,0 0,20 167,0 0,541 -167,0 0,21 -666,0 0,-21z" /><path style="fill:none;stroke:#4c4c4c;stroke-width:2" d="M166,561 l0,-541" /><path style="fill:none;stroke:#4c4c4c;stroke-width:2" d="M832,561 l0,-541" /><path style="fill:none;stroke:#4c4c4c;stroke-width:2" d="M707,41 l63,0 0,104 -63,0 0,-104" /><path style="fill:none;stroke:#4c4c4c;stroke-width:2" d="M707,187 l63,0 0,104 -63,0 0,-104" /><path style="fill:none;stroke:#4c4c4c;stroke-width:2" d="M229,41 l416,0 0,24 -416,0 0,-24" /><path style="fill:none;stroke:#4c4c4c;stroke-width:2" d="M229,136 l416,0 0,24 -416,0 0,-24" /><path style="fill:none;stroke:#4c4c4c;stroke-width:2" d="M229,89 l416,0 0,23 -416,0 0,-23" /><path style="fill:none;stroke:#4c4c4c;stroke-width:2" d="M229,232 l416,0 0,23 -416,0 0,-23" /><path style="fill:none;stroke:#4c4c4c;stroke-width:2" d="M229,279 l416,0 0,24 -416,0 0,-24" /><path style="fill:none;stroke:#4c4c4c;stroke-width:2" d="M229,184 l416,0 0,24 -416,0 0,-24" /><path style="fill:none;stroke:#4c4c4c;stroke-width:2" d="M229,327 l416,0 0,23 -416,0 0,-23" /><path style="fill:none;stroke:#4c4c4c;stroke-width:2" d="M229,422 l416,0 0,23 -416,0 0,-23" /><path style="fill:none;stroke:#4c4c4c;stroke-width:2" d="M229,374 l416,0 0,24 -416,0 0,-24" /><path style="fill:none;stroke:#4c4c4c;stroke-width:2" d="M229,517 l416,0 0,24 -416,0 0,-24" /><path style="fill:none;stroke:#4c4c4c;stroke-width:2" d="M229,469 l416,0 0,24 -416,0 0,-24" /></svg>