<!DOCTYPE svg PUBLIC "-//W3C//DTD SVG 20000303 Stylable//EN" "http://www.w3.org/TR/2000/03/WD-SVG-20000303/DTD/svg-20000303-stylable.dtd"[]><svg xmlns="http://www.w3.org/2000/svg" width="999px" height="476px" viewBox="0 0 999 445"><path style="fill:#7f7f7f" d="M2,114 l227,0 0,207 -227,0 0,-207z" /><path style="fill:#000" d="M232,114 l-3,-3 -227,0 0,5 227,0 -2,-2 5,0 0,-3 -3,0z" /><path style="fill:#000" d="M229,323 l3,-2 0,-207 -5,0 0,207 2,-3 0,5 3,0 0,-2z" /><path style="fill:#000" d="M0,321 l2,2 227,0 0,-5 -227,0 2,3 -4,0 0,2 2,0z" /><path style="fill:#000" d="M2,111 l-2,3 0,207 4,0 0,-207 -2,2 0,-5 -2,0 0,3z" /><path style="fill:#e5e5e5;stroke:#4c4c4c;stroke-width:2" d="M230,114 l108,0 0,207 -108,0 0,-207z" /><path style="fill:#e5e5e5;stroke:#4c4c4c;stroke-width:2" d="M338,114 l114,0 0,207 -114,0 0,-207z" /><path style="fill:#e5e5e5;stroke:#4c4c4c;stroke-width:2" d="M450,114 l111,0 0,207 -111,0 0,-207z" /><path style="fill:#e5e5e5;stroke:#4c4c4c;stroke-width:2" d="M559,114 l109,0 0,207 -109,0 0,-207z" /><path style="fill:#e5e5e5;stroke:#4c4c4c;stroke-width:2" d="M669,114 l108,0 0,207 -108,0 0,-207z" /><path style="fill:#e5e5e5;stroke:#4c4c4c;stroke-width:2" d="M778,114 l109,0 0,207 -109,0 0,-207z" /><path style="fill:#e5e5e5;stroke:#4c4c4c;stroke-width:2" d="M887,114 l109,0 0,207 -109,0 0,-207z" /><path style="fill:#7f7f7f" d="M2,10 l227,0 0,104 -227,0 0,-104z" /><path style="fill:#000" d="M232,10 l-3,-2 -227,0 0,4 227,0 -2,-2 5,0 0,-2 -3,0z" /><path style="fill:#000" d="M229,116 l3,-2 0,-104 -5,0 0,104 2,-3 0,5 3,0 0,-2z" /><path style="fill:#000" d="M0,114 l2,2 227,0 0,-5 -227,0 2,3 -4,0 0,2 2,0z" /><path style="fill:#000" d="M2,8 l-2,2 0,104 4,0 0,-104 -2,2 0,-4 -2,0 0,2z" /><path style="fill:#7f7f7f" d="M230,10 l108,0 0,104 -108,0 0,-104z" /><path style="fill:#000" d="M341,10 l-3,-2 -108,0 0,4 108,0 -2,-2 5,0 0,-2 -3,0z" /><path style="fill:#000" d="M338,116 l3,-2 0,-104 -5,0 0,104 2,-3 0,5 3,0 0,-2z" /><path style="fill:#000" d="M228,114 l2,2 108,0 0,-5 -108,0 2,3 -4,0 0,2 2,0z" /><path style="fill:#000" d="M230,8 l-2,2 0,104 4,0 0,-104 -2,2 0,-4 -2,0 0,2z" /><path style="fill:#7f7f7f" d="M338,10 l114,0 0,104 -114,0 0,-104z" /><path style="fill:#000" d="M455,10 l-3,-2 -114,0 0,4 114,0 -2,-2 5,0 0,-2 -3,0z" /><path style="fill:#000" d="M452,116 l3,-2 0,-104 -5,0 0,104 2,-3 0,5 3,0 0,-2z" /><path style="fill:#000" d="M336,114 l2,2 114,0 0,-5 -114,0 3,3 -5,0 0,2 2,0z" /><path style="fill:#000" d="M338,8 l-2,2 0,104 5,0 0,-104 -3,2 0,-4 -2,0 0,2z" /><path style="fill:#7f7f7f" d="M450,10 l111,0 0,104 -111,0 0,-104z" /><path style="fill:#000" d="M563,10 l-2,-2 -111,0 0,4 111,0 -2,-2 4,0 0,-2 -2,0z" /><path style="fill:#000" d="M561,116 l2,-2 0,-104 -4,0 0,104 2,-3 0,5 2,0 0,-2z" /><path style="fill:#000" d="M448,114 l2,2 111,0 0,-5 -111,0 2,3 -4,0 0,2 2,0z" /><path style="fill:#000" d="M450,8 l-2,2 0,104 4,0 0,-104 -2,2 0,-4 -2,0 0,2z" /><path style="fill:#7f7f7f" d="M559,10 l109,0 0,104 -109,0 0,-104z" /><path style="fill:#000" d="M670,10 l-2,-2 -109,0 0,4 109,0 -2,-2 4,0 0,-2 -2,0z" /><path style="fill:#000" d="M668,116 l2,-2 0,-104 -4,0 0,104 2,-3 0,5 2,0 0,-2z" /><path style="fill:#000" d="M557,114 l2,2 109,0 0,-5 -109,0 3,3 -5,0 0,2 2,0z" /><path style="fill:#000" d="M559,8 l-2,2 0,104 5,0 0,-104 -3,2 0,-4 -2,0 0,2z" /><path style="fill:#7f7f7f" d="M669,10 l108,0 0,104 -108,0 0,-104z" /><path style="fill:#000" d="M780,10 l-3,-2 -108,0 0,4 108,0 -2,-2 5,0 0,-2 -3,0z" /><path style="fill:#000" d="M777,116 l3,-2 0,-104 -5,0 0,104 2,-3 0,5 3,0 0,-2z" /><path style="fill:#000" d="M666,114 l3,2 108,0 0,-5 -108,0 2,3 -5,0 0,2 3,0z" /><path style="fill:#000" d="M669,8 l-3,2 0,104 5,0 0,-104 -2,2 0,-4 -3,0 0,2z" /><path style="fill:#7f7f7f" d="M778,10 l109,0 0,104 -109,0 0,-104z" /><path style="fill:#000" d="M889,10 l-2,-2 -109,0 0,4 109,0 -3,-2 5,0 0,-2 -2,0z" /><path style="fill:#000" d="M887,116 l2,-2 0,-104 -5,0 0,104 3,-3 0,5 2,0 0,-2z" /><path style="fill:#000" d="M776,114 l2,2 109,0 0,-5 -109,0 2,3 -4,0 0,2 2,0z" /><path style="fill:#000" d="M778,8 l-2,2 0,104 4,0 0,-104 -2,2 0,-4 -2,0 0,2z" /><path style="fill:#7f7f7f" d="M887,10 l109,0 0,104 -109,0 0,-104z" /><path style="fill:#000" d="M999,10 l-3,-2 -109,0 0,4 109,0 -2,-2 5,0 0,-2 -3,0z" /><path style="fill:#000" d="M996,116 l3,-2 0,-104 -5,0 0,104 2,-3 0,5 3,0 0,-2z" /><path style="fill:#000" d="M885,114 l2,2 109,0 0,-5 -109,0 3,3 -5,0 0,2 2,0z" /><path style="fill:#000" d="M887,8 l-2,2 0,104 5,0 0,-104 -3,2 0,-4 -2,0 0,2z" /><path style="fill:#7f7f7f" d="M2,321 l227,0 0,103 -227,0 0,-103z" /><path style="fill:#000" d="M232,321 l-3,-3 -227,0 0,5 227,0 -2,-2 5,0 0,-3 -3,0z" /><path style="fill:#000" d="M229,427 l3,-3 0,-103 -5,0 0,103 2,-2 0,5 3,0 0,-3z" /><path style="fill:#000" d="M0,424 l2,3 227,0 0,-5 -227,0 2,2 -4,0 0,3 2,0z" /><path style="fill:#000" d="M2,318 l-2,3 0,103 4,0 0,-103 -2,2 0,-5 -2,0 0,3z" /><path style="fill:#e5e5e5;stroke:#4c4c4c;stroke-width:2" d="M230,321 l108,0 0,103 -108,0 0,-103z" /><path style="fill:#e5e5e5;stroke:#4c4c4c;stroke-width:2" d="M338,321 l114,0 0,103 -114,0 0,-103z" /><path style="fill:#e5e5e5;stroke:#4c4c4c;stroke-width:2" d="M450,321 l111,0 0,103 -111,0 0,-103z" /><path style="fill:#e5e5e5;stroke:#4c4c4c;stroke-width:2" d="M559,321 l109,0 0,103 -109,0 0,-103z" /><path style="fill:#e5e5e5;stroke:#4c4c4c;stroke-width:2" d="M669,321 l108,0 0,103 -108,0 0,-103z" /><path style="fill:#e5e5e5;stroke:#4c4c4c;stroke-width:2" d="M778,321 l109,0 0,103 -109,0 0,-103z" /><path style="fill:#e5e5e5;stroke:#4c4c4c;stroke-width:2" d="M887,321 l109,0 0,103 -109,0 0,-103z" /><path style="fill:#e5e5e5;stroke:#4c4c4c;stroke-width:2" d="M235,15 l98,0 0,21 -98,0 0,-21z" /><path style="fill:#e5e5e5;stroke:#4c4c4c;stroke-width:2" d="M344,15 l99,0 0,21 -99,0 0,-21z" /><path style="fill:#e5e5e5;stroke:#4c4c4c;stroke-width:2" d="M457,15 l98,0 0,21 -98,0 0,-21z" /><path style="fill:#e5e5e5;stroke:#4c4c4c;stroke-width:2" d="M566,15 l99,0 0,21 -99,0 0,-21z" /><path style="fill:#e5e5e5;stroke:#4c4c4c;stroke-width:2" d="M676,15 l98,0 0,21 -98,0 0,-21z" /><path style="fill:#e5e5e5;stroke:#4c4c4c;stroke-width:2" d="M785,15 l98,0 0,21 -98,0 0,-21z" /><path style="fill:#e5e5e5;stroke:#4c4c4c;stroke-width:2" d="M894,15 l99,0 0,21 -99,0 0,-21z" /><path style="fill:#ccc;stroke:#4c4c4c;stroke-width:2" d="M2,10 l994,0 0,-10 -994,0 0,10z" /><path style="fill:#000;stroke:#4c4c4c;stroke-width:2" d="M23,424 l952,0 0,21 -952,0 0,-21z" /><path style="fill:#f00;stroke:#4c4c4c;stroke-width:2" d="M245,46 l31,0 0,11 -31,0 0,-11z" /><path style="fill:#0f0;stroke:#4c4c4c;stroke-width:2" d="M245,62 l31,0 0,10 -31,0 0,-10z" /><path style="fill:#0f0;stroke:#4c4c4c;stroke-width:2" d="M245,77 l31,0 0,11 -31,0 0,-11z" /><path style="fill:#f00;stroke:#4c4c4c;stroke-width:2" d="M245,93 l31,0 0,10 -31,0 0,-10z" /><path style="fill:#0f0;stroke:#4c4c4c;stroke-width:2" d="M292,46 l31,0 0,11 -31,0 0,-11z" /><path style="fill:#f00;stroke:#4c4c4c;stroke-width:2" d="M292,62 l31,0 0,10 -31,0 0,-10z" /><path style="fill:#0f0;stroke:#4c4c4c;stroke-width:2" d="M292,77 l31,0 0,11 -31,0 0,-11z" /><path style="fill:#0f0;stroke:#4c4c4c;stroke-width:2" d="M292,93 l31,0 0,10 -31,0 0,-10z" /><path style="fill:#0f0;stroke:#4c4c4c;stroke-width:2" d="M354,46 l31,0 0,11 -31,0 0,-11z" /><path style="fill:#0f0;stroke:#4c4c4c;stroke-width:2" d="M354,62 l31,0 0,10 -31,0 0,-10z" /><path style="fill:#0f0;stroke:#4c4c4c;stroke-width:2" d="M354,77 l31,0 0,11 -31,0 0,-11z" /><path style="fill:#f00;stroke:#4c4c4c;stroke-width:2" d="M354,93 l31,0 0,10 -31,0 0,-10z" /><path style="fill:#f00;stroke:#4c4c4c;stroke-width:2" d="M401,46 l31,0 0,11 -31,0 0,-11z" /><path style="fill:#f00;stroke:#4c4c4c;stroke-width:2" d="M401,62 l31,0 0,10 -31,0 0,-10z" /><path style="fill:#0f0;stroke:#4c4c4c;stroke-width:2" d="M401,77 l31,0 0,11 -31,0 0,-11z" /><path style="fill:#f00;stroke:#4c4c4c;stroke-width:2" d="M401,93 l31,0 0,10 -31,0 0,-10z" /><path style="fill:#f00;stroke:#4c4c4c;stroke-width:2" d="M465,46 l31,0 0,11 -31,0 0,-11z" /><path style="fill:#f00;stroke:#4c4c4c;stroke-width:2" d="M465,62 l31,0 0,10 -31,0 0,-10z" /><path style="fill:#0f0;stroke:#4c4c4c;stroke-width:2" d="M465,77 l31,0 0,11 -31,0 0,-11z" /><path style="fill:#f00;stroke:#4c4c4c;stroke-width:2" d="M465,93 l31,0 0,10 -31,0 0,-10z" /><path style="fill:#0f0;stroke:#4c4c4c;stroke-width:2" d="M512,46 l31,0 0,11 -31,0 0,-11z" /><path style="fill:#f00;stroke:#4c4c4c;stroke-width:2" d="M512,62 l31,0 0,10 -31,0 0,-10z" /><path style="fill:#0f0;stroke:#4c4c4c;stroke-width:2" d="M512,77 l31,0 0,11 -31,0 0,-11z" /><path style="fill:#0f0;stroke:#4c4c4c;stroke-width:2" d="M512,93 l31,0 0,10 -31,0 0,-10z" /><path style="fill:#f00;stroke:#4c4c4c;stroke-width:2" d="M577,46 l31,0 0,11 -31,0 0,-11z" /><path style="fill:#0f0;stroke:#4c4c4c;stroke-width:2" d="M577,62 l31,0 0,10 -31,0 0,-10z" /><path style="fill:#0f0;stroke:#4c4c4c;stroke-width:2" d="M577,77 l31,0 0,11 -31,0 0,-11z" /><path style="fill:#f00;stroke:#4c4c4c;stroke-width:2" d="M577,93 l31,0 0,10 -31,0 0,-10z" /><path style="fill:#0f0;stroke:#4c4c4c;stroke-width:2" d="M623,46 l31,0 0,11 -31,0 0,-11z" /><path style="fill:#f00;stroke:#4c4c4c;stroke-width:2" d="M623,62 l31,0 0,10 -31,0 0,-10z" /><path style="fill:#0f0;stroke:#4c4c4c;stroke-width:2" d="M623,77 l31,0 0,11 -31,0 0,-11z" /><path style="fill:#f00;stroke:#4c4c4c;stroke-width:2" d="M623,93 l31,0 0,10 -31,0 0,-10z" /><path style="fill:#f00;stroke:#4c4c4c;stroke-width:2" d="M685,46 l31,0 0,11 -31,0 0,-11z" /><path style="fill:#f00;stroke:#4c4c4c;stroke-width:2" d="M685,62 l31,0 0,10 -31,0 0,-10z" /><path style="fill:#0f0;stroke:#4c4c4c;stroke-width:2" d="M685,77 l31,0 0,11 -31,0 0,-11z" /><path style="fill:#f00;stroke:#4c4c4c;stroke-width:2" d="M685,93 l31,0 0,10 -31,0 0,-10z" /><path style="fill:#0f0;stroke:#4c4c4c;stroke-width:2" d="M732,46 l31,0 0,11 -31,0 0,-11z" /><path style="fill:#f00;stroke:#4c4c4c;stroke-width:2" d="M732,62 l31,0 0,10 -31,0 0,-10z" /><path style="fill:#0f0;stroke:#4c4c4c;stroke-width:2" d="M732,77 l31,0 0,11 -31,0 0,-11z" /><path style="fill:#f00;stroke:#4c4c4c;stroke-width:2" d="M732,93 l31,0 0,10 -31,0 0,-10z" /><path style="fill:#0f0;stroke:#4c4c4c;stroke-width:2" d="M794,46 l31,0 0,11 -31,0 0,-11z" /><path style="fill:#f00;stroke:#4c4c4c;stroke-width:2" d="M794,62 l31,0 0,10 -31,0 0,-10z" /><path style="fill:#0f0;stroke:#4c4c4c;stroke-width:2" d="M794,77 l31,0 0,11 -31,0 0,-11z" /><path style="fill:#0f0;stroke:#4c4c4c;stroke-width:2" d="M794,93 l31,0 0,10 -31,0 0,-10z" /><path style="fill:#0f0;stroke:#4c4c4c;stroke-width:2" d="M841,46 l31,0 0,11 -31,0 0,-11z" /><path style="fill:#0f0;stroke:#4c4c4c;stroke-width:2" d="M841,62 l31,0 0,10 -31,0 0,-10z" /><path style="fill:#f00;stroke:#4c4c4c;stroke-width:2" d="M841,77 l31,0 0,11 -31,0 0,-11z" /><path style="fill:#f00;stroke:#4c4c4c;stroke-width:2" d="M841,93 l31,0 0,10 -31,0 0,-10z" /><path style="fill:#f00;stroke:#4c4c4c;stroke-width:2" d="M903,46 l31,0 0,11 -31,0 0,-11z" /><path style="fill:#f00;stroke:#4c4c4c;stroke-width:2" d="M903,62 l31,0 0,10 -31,0 0,-10z" /><path style="fill:#0f0;stroke:#4c4c4c;stroke-width:2" d="M903,77 l31,0 0,11 -31,0 0,-11z" /><path style="fill:#0f0;stroke:#4c4c4c;stroke-width:2" d="M903,93 l31,0 0,10 -31,0 0,-10z" /><path style="fill:#0f0;stroke:#4c4c4c;stroke-width:2" d="M950,46 l31,0 0,11 -31,0 0,-11z" /><path style="fill:#f00;stroke:#4c4c4c;stroke-width:2" d="M950,62 l31,0 0,10 -31,0 0,-10z" /><path style="fill:#0f0;stroke:#4c4c4c;stroke-width:2" d="M950,77 l31,0 0,11 -31,0 0,-11z" /><path style="fill:#f00;stroke:#4c4c4c;stroke-width:2" d="M950,93 l31,0 0,10 -31,0 0,-10z" /></svg>