<!DOCTYPE svg PUBLIC "-//W3C//DTD SVG 20000303 Stylable//EN" "http://www.w3.org/TR/2000/03/WD-SVG-20000303/DTD/svg-20000303-stylable.dtd"[]><svg xmlns="http://www.w3.org/2000/svg" width="998px" height="704px" viewBox="0 0 999 687"><path style="fill:#7f7f7f;stroke:#4c4c4c;stroke-width:2" d="M895,69 l63,0 0,-69 -63,0 0,69z" /><path style="fill:#7f7f7f;stroke:#4c4c4c;stroke-width:2" d="M62,69 l63,0 0,-69 -63,0 0,69z" /><path style="fill:#e0e0e0;stroke:#4c4c4c;stroke-width:2" d="M0,93 l958,0 0,594 -958,0 0,-594z" /><path style="fill:#b2b2b2;stroke:#4c4c4c;stroke-width:2" d="M999,54 l-41,39 0,594 41,-42 0,-591z" /><path style="fill:#b2b2b2;stroke:#4c4c4c;stroke-width:2" d="M0,93 l958,0 41,-39 -958,0 -41,39z" /><path style="fill:#fff;stroke:#4c4c4c;stroke-width:2" d="M93,10 l11,5 6,10 -6,13 -11,5 -11,-5 -7,-13 7,-10 11,-5z" /><path style="fill:#fff;stroke:#4c4c4c;stroke-width:2" d="M925,10 l11,5 6,10 -6,13 -11,5 -13,-5 -4,-13 4,-10 13,-5z" /><path style="fill:#f0f0f0;stroke:#4c4c4c;stroke-width:2" d="M54,621 l15,16 2,19 -15,16 -20,2 -15,-16 -2,-19 15,-15 20,-3z" /><path style="fill:#f0f0f0;stroke:#4c4c4c;stroke-width:2" d="M162,621 l15,16 0,19 -13,16 -21,2 -16,-16 0,-19 13,-15 22,-3z" /><path style="fill:#f0f0f0;stroke:#4c4c4c;stroke-width:2" d="M268,621 l18,16 0,19 -13,16 -22,2 -15,-16 -2,-19 15,-15 19,-3z" /><path style="fill:#f0f0f0;stroke:#4c4c4c;stroke-width:2" d="M377,621 l15,16 2,19 -15,16 -20,2 -15,-16 -2,-19 13,-15 22,-3z" /><path style="fill:#f0f0f0;stroke:#4c4c4c;stroke-width:2" d="M485,621 l15,16 0,19 -13,16 -22,2 -15,-16 0,-19 13,-15 22,-3z" /><path style="fill:#f0f0f0;stroke:#4c4c4c;stroke-width:2" d="M591,621 l17,16 0,19 -13,16 -21,2 -15,-16 -2,-19 15,-15 19,-3z" /><path style="fill:#f0f0f0;stroke:#4c4c4c;stroke-width:2" d="M700,621 l15,16 2,19 -15,16 -20,2 -17,-16 0,-19 13,-15 22,-3z" /><path style="fill:#f0f0f0;stroke:#4c4c4c;stroke-width:2" d="M808,621 l15,16 0,19 -13,16 -22,2 -15,-16 0,-19 13,-15 22,-3z" /><path style="fill:#f0f0f0;stroke:#4c4c4c;stroke-width:2" d="M914,621 l18,16 0,19 -16,16 -19,2 -15,-16 -3,-19 16,-15 19,-3z" /><path style="fill:#ccc;stroke:#4c4c4c;stroke-width:2" d="M910,624 l8,4 -17,44 -6,-5 15,-43z" /><path style="fill:#ccc;stroke:#4c4c4c;stroke-width:2" d="M802,624 l8,4 -15,44 -9,-5 16,-43z" /><path style="fill:#ccc;stroke:#4c4c4c;stroke-width:2" d="M695,624 l7,4 -15,44 -9,-5 17,-43z" /><path style="fill:#ccc;stroke:#4c4c4c;stroke-width:2" d="M587,624 l8,4 -17,44 -6,-5 15,-43z" /><path style="fill:#ccc;stroke:#4c4c4c;stroke-width:2" d="M478,624 l9,4 -15,44 -9,-5 15,-43z" /><path style="fill:#ccc;stroke:#4c4c4c;stroke-width:2" d="M372,624 l7,4 -15,44 -9,-5 17,-43z" /><path style="fill:#ccc;stroke:#4c4c4c;stroke-width:2" d="M264,624 l9,4 -15,44 -9,-5 15,-43z" /><path style="fill:#ccc;stroke:#4c4c4c;stroke-width:2" d="M155,624 l9,4 -15,44 -9,-5 15,-43z" /><path style="fill:#ccc;stroke:#4c4c4c;stroke-width:2" d="M49,624 l7,4 -15,44 -7,-5 15,-43z" /><path style="fill:#000;stroke:#4c4c4c;stroke-width:2" d="M468,240 l50,11 39,26 28,41 10,50 -10,50 -37,50 -180,-180 50,-37 50,-11z" /><circle style="fill:#7f7f7f;stroke:#4c4c4c;stroke-width:2" cx="457" cy="379" r="128" /><path style="fill:#fff;stroke:#4c4c4c;stroke-width:2" d="M455,270 l13,7 4,11 -4,13 -13,4 -11,-4 -7,-13 7,-11 11,-7z" /><path style="fill:none;stroke:#4c4c4c;stroke-width:2" d="M461,164 l0,61" /><path style="fill:none;stroke:#4c4c4c;stroke-width:2" d="M398,173 l16,61" /><path style="fill:none;stroke:#4c4c4c;stroke-width:2" d="M340,201 l35,52" /><path style="fill:none;stroke:#4c4c4c;stroke-width:2" d="M292,245 l48,41" /><path style="fill:none;stroke:#4c4c4c;stroke-width:2" d="M260,301 l58,24" /><path style="fill:none;stroke:#4c4c4c;stroke-width:2" d="M245,366 l62,4" /><path style="fill:none;stroke:#4c4c4c;stroke-width:2" d="M249,429 l62,-13" /><path style="fill:none;stroke:#4c4c4c;stroke-width:2" d="M273,489 l54,-30" /><path style="fill:none;stroke:#4c4c4c;stroke-width:2" d="M650,491 l-55,-32" /><path style="fill:none;stroke:#4c4c4c;stroke-width:2" d="M676,431 l-61,-13" /><path style="fill:none;stroke:#4c4c4c;stroke-width:2" d="M680,366 l-63,4" /><path style="fill:none;stroke:#4c4c4c;stroke-width:2" d="M665,303 l-59,22" /><path style="fill:none;stroke:#4c4c4c;stroke-width:2" d="M632,247 l-47,39" /><path style="fill:none;stroke:#4c4c4c;stroke-width:2" d="M587,201 l-37,52" /><path style="fill:none;stroke:#4c4c4c;stroke-width:2" d="M528,173 l-19,58" /></svg>