<!DOCTYPE svg PUBLIC "-//W3C//DTD SVG 20000303 Stylable//EN" "http://www.w3.org/TR/2000/03/WD-SVG-20000303/DTD/svg-20000303-stylable.dtd"[]><svg xmlns="http://www.w3.org/2000/svg" width="999px" height="613px" viewBox="0 0 999 594"><path style="fill:#ccc;stroke:#4c4c4c;stroke-width:2" d="M5,589 l0,-539 898,0 0,539 -898,0z" /><path style="fill:#e5e5e5;stroke:#4c4c4c;stroke-width:2" d="M5,50 l90,-45 898,0 -90,45 -898,0z" /><path style="fill:#999;stroke:#4c4c4c;stroke-width:2" d="M903,589 l0,-539 90,-45 0,539 -90,45z" /><path style="fill:#fff;stroke:#4c4c4c;stroke-width:2" d="M72,140 l608,0 0,67 -608,0 0,-67z" /><path style="fill:#fff" d="M634,544 l202,0 0,-270 -202,0 0,270z" /><path style="fill:#fff" d="M72,544 l405,0 0,-270 -405,0 0,270z" /><path style="fill:none;stroke:#4c4c4c;stroke-width:2" d="M611,207 l0,-67" /><path style="fill:none;stroke:#4c4c4c;stroke-width:2" d="M139,207 l0,-67" /><path style="fill:none;stroke:#4c4c4c;stroke-width:2" d="M634,544 l202,0 0,-270 -202,0 0,270" /><path style="fill:none;stroke:#4c4c4c;stroke-width:2" d="M702,544 l0,-270" /><path style="fill:none;stroke:#4c4c4c;stroke-width:2" d="M769,544 l0,-270" /><path style="fill:none;stroke:#4c4c4c;stroke-width:2" d="M634,477 l202,0" /><path style="fill:none;stroke:#4c4c4c;stroke-width:2" d="M836,409 l-202,0" /><path style="fill:none;stroke:#4c4c4c;stroke-width:2" d="M634,342 l202,0" /><path style="fill:none;stroke:#4c4c4c;stroke-width:2" d="M72,544 l405,0 0,-270 -405,0 0,270" /><path style="fill:none;stroke:#4c4c4c;stroke-width:2" d="M140,274 l0,270" /><path style="fill:none;stroke:#4c4c4c;stroke-width:2" d="M207,544 l0,-270" /><path style="fill:none;stroke:#4c4c4c;stroke-width:2" d="M274,274 l0,270" /><path style="fill:none;stroke:#4c4c4c;stroke-width:2" d="M342,544 l0,-270" /><path style="fill:none;stroke:#4c4c4c;stroke-width:2" d="M410,274 l0,270" /><path style="fill:none;stroke:#4c4c4c;stroke-width:2" d="M477,477 l-405,0" /><path style="fill:none;stroke:#4c4c4c;stroke-width:2" d="M72,409 l405,0" /><path style="fill:none;stroke:#4c4c4c;stroke-width:2" d="M477,342 l-405,0" /><path style="fill:#e56500" d="M724,72 l134,0 0,157 -134,0 0,-157z" /><path style="fill:#00f" d="M735,83 l112,0 0,135 -112,0 0,-135z" /></svg>