<svg version="1.1" xmlns="http://www.w3.org/2000/svg" xmlns:xlink="http://www.w3.org/1999/xlink" width="113px" height="83px" viewBox="0 0 112.5 82.994" enable-background="new 0 0 112.5 82.994" xml:space="preserve">
<g id="Group_Rocker_Base" transform="matrix(0.9999999,-3.019916E-07,3.019916E-07,0.9999999,0,0)">
	<path fill="#141414" d="M0.508,56.137V0.507h111.484v55.63H0.508z" />
	<path fill="#ABABAB" stroke="#4C4C4C" stroke-width="0.25" d="M56.25,56.63V1h56.25v55.63H56.25z" />
</g>
<g id="Group_Rocker_Switch" transform="matrix(0.9999999,-3.019916E-07,3.019916E-07,0.9999999,0,0)">
	
		<linearGradient id="SVGID_1_" gradientUnits="userSpaceOnUse" x1="34.8018" y1="29.8999" x2="74.2068" y2="7.1494" gradientTransform="matrix(0 -1 1 0 14.7529 97.6338)">
		<stop offset="0" style="stop-color:#969696" />
		<stop offset="0.5" style="stop-color:#E0E0E0" />
		<stop offset="1" style="stop-color:#616161" />
	</linearGradient>
	<path fill="url(#SVGID_1_)" stroke="#4C4C4C" stroke-width="0.5" d="M56.25,56.137L10.305,82.487V30.123L56.25,3.772V56.137z" />
	
		<linearGradient id="SVGID_2_" gradientUnits="userSpaceOnUse" x1="72.916" y1="10.7549" x2="36.3736" y2="-25.7875" gradientTransform="matrix(0 -1 1 0 14.7529 97.6338)">
		<stop offset="0" style="stop-color:#969696" />
		<stop offset="0.5" style="stop-color:#E0E0E0" />
		<stop offset="1" style="stop-color:#616161" />
	</linearGradient>
	<path fill="url(#SVGID_2_)" stroke="#4C4C4C" stroke-width="0.5" d="M3.886,30.123v5.293l0.113,5.18l0.225,4.955l0.225,4.843   l0.225,4.616l0.338,4.279l0.338,4.055l0.451,3.716l0.45,3.378l0.788,4.393l0.789,3.49l1.239,3.041l1.013,1.014l0.226,0.112V30.123   l-2.027-2.815L7.265,23.93l-0.676-3.604l-0.563-3.153l-0.451-3.491l-0.45-4.054L4.674,5.349L4.562,3.772H3.886V30.123z" />
</g>
</svg>