<svg version="1.1" xmlns="http://www.w3.org/2000/svg" xmlns:xlink="http://www.w3.org/1999/xlink" width="113px" height="113px" viewBox="0 0 112.5 112.5" enable-background="new 0 0 112.5 112.5" xml:space="preserve">
<g id="Group_Tick_Mark_Minor" transform="matrix(0.9999999,-3.019916E-07,3.019916E-07,0.9999999,0,0)">
	<path d="M8.671,86.6l-2.478-4.505l11.036-6.307l2.478,4.505L8.671,86.6z" />
	<path d="M30.293,106.193l-4.505-2.477l6.307-11.037l4.504,2.479L30.293,106.193z" />
	<path d="M86.6,103.717l-4.505,2.477l-6.307-11.035l4.505-2.479L86.6,103.717z" />
	<path d="M106.193,82.095l-2.477,4.505L92.68,80.293l2.479-4.505L106.193,82.095z" />
	<path d="M103.717,25.788l2.477,4.505l-11.035,6.306l-2.479-4.504L103.717,25.788z" />
	<path d="M82.095,6.194L86.6,8.671l-6.307,11.036l-4.505-2.478L82.095,6.194z" />
	<path d="M25.788,8.671l4.505-2.477l6.306,11.036l-4.504,2.478L25.788,8.671z" />
	<path d="M6.194,30.293l2.478-4.505l11.036,6.307l-2.478,4.504L6.194,30.293z" />
</g>
<g id="Group_Tick_Mark_Major" transform="matrix(0.9999999,-3.019916E-07,3.019916E-07,0.9999999,0,0)">
	<path fill="#FFFFFF" stroke="#4C4C4C" d="M58.672,112.5h-4.956V99.55h4.956V112.5z" />
	<path fill="#FFFFFF" stroke="#4C4C4C" d="M112.5,53.716v4.955H99.549v-4.955H112.5z" />
	<path fill="#FFFFFF" stroke="#4C4C4C" d="M53.716,0h4.956v12.838h-4.956V0z" />
	<path fill="#FFFFFF" stroke="#4C4C4C" d="M0,58.671v-4.955h12.838v4.955H0z" />
</g>
</svg>