<!DOCTYPE svg PUBLIC "-//W3C//DTD SVG 20000303 Stylable//EN" "http://www.w3.org/TR/2000/03/WD-SVG-20000303/DTD/svg-20000303-stylable.dtd"[]><svg xmlns="http://www.w3.org/2000/svg" width="999px" height="999px" viewBox="0 0 750 750"><path style="fill:#c0c0c0;stroke:#4c4c4c;stroke-width:2" d="M0,750 l374,0 7,-73 22,-71 34,-64 47,-58 57,-47 65,-34 70,-21 74,-8 0,-374 -148,16 -139,42 -130,68 -114,93 -93,116 -68,128 -44,141 -14,146z" /><path style="fill:#000" d="M750,345 l-79,7 -76,23 -71,38 -61,50 -51,62 -37,70 -24,76 -7,79 -313,0 12,-139 42,-136 66,-124 90,-110 108,-89 126,-66 134,-41 141,-14 0,314z" /></svg>