<!DOCTYPE svg PUBLIC "-//W3C//DTD SVG 20000303 Stylable//EN" "http://www.w3.org/TR/2000/03/WD-SVG-20000303/DTD/svg-20000303-stylable.dtd"[]><svg xmlns="http://www.w3.org/2000/svg" width="999px" height="999px" viewBox="0 0 750 750"><path style="fill:#c0c0c0;stroke:#4c4c4c;stroke-width:2" d="M0,0 l0,374 73,7 71,22 64,34 58,47 47,57 34,65 21,70 8,74 374,0 -16,-148 -42,-139 -68,-130 -93,-114 -116,-93 -128,-68 -141,-44 -146,-14z" /><path style="fill:#000" d="M405,750 l-7,-79 -23,-76 -38,-71 -50,-61 -62,-51 -70,-37 -76,-24 -79,-7 0,-313 139,12 136,42 124,66 110,90 89,108 66,126 41,134 14,141 -314,0z" /></svg>