<svg version="1.1" xmlns="http://www.w3.org/2000/svg" xmlns:xlink="http://www.w3.org/1999/xlink" width="97px" height="112px" viewBox="0 0 96.963 112.5" enable-background="new 0 0 96.963 112.5" xml:space="preserve">
<g id="Group_Outlet">
	<linearGradient id="SVGID_1_" gradientUnits="userSpaceOnUse" x1="11.1501" y1="69.0313" x2="11.1501" y2="66.8926">
		<stop offset="0" style="stop-color:#7A7A7A" />
		<stop offset="0.5" style="stop-color:#F5F5F5" />
		<stop offset="1" style="stop-color:#7A7A7A" />
	</linearGradient>
	<path fill="url(#SVGID_1_)" stroke="#4C4C4C" stroke-width="0.25" d="M0.452,69.031v-2.139h21.396v2.139H0.452z" />
	<linearGradient id="SVGID_2_" gradientUnits="userSpaceOnUse" x1="0.4519" y1="89.3574" x2="4.7312" y2="89.3574">
		<stop offset="0" style="stop-color:#7A7A7A" />
		<stop offset="0.5" style="stop-color:#F5F5F5" />
		<stop offset="1" style="stop-color:#7A7A7A" />
	</linearGradient>
	<path fill="url(#SVGID_2_)" stroke="#4C4C4C" stroke-width="0.25" d="M0.452,73.311h4.279v32.095H0.452V73.311z" />
	<path fill="#666666" d="M2.254,73.311h0.788v-4.279H2.254V73.311z" />
	<path d="M18.807,67.455h0.789v1.014h-0.789V67.455z" />
</g>
<g id="Group_Axial">
	<path fill="#666666" d="M4.731,75.45h2.14v21.396h-2.14V75.45z" />
	<linearGradient id="SVGID_3_" gradientUnits="userSpaceOnUse" x1="30.4631" y1="101.126" x2="30.4631" y2="71.1709">
		<stop offset="0" style="stop-color:#4C4C4C" />
		<stop offset="0.5" style="stop-color:#E0E0E0" />
		<stop offset="1" style="stop-color:#4C4C4C" />
	</linearGradient>
	<path fill="url(#SVGID_3_)" d="M6.871,71.171h47.185v29.955H6.871V71.171z" />
</g>
<g id="Group_Bottom_Part">
	<linearGradient id="SVGID_4_" gradientUnits="userSpaceOnUse" x1="21.9607" y1="94.707" x2="43.3572" y2="94.707">
		<stop offset="0" style="stop-color:#4C4C4C" />
		<stop offset="0.5" style="stop-color:#CCCCCC" />
		<stop offset="1" style="stop-color:#4C4C4C" />
	</linearGradient>
	<path fill="url(#SVGID_4_)" d="M21.961,90.428h21.396l-6.419,8.559H28.38L21.961,90.428z" />
	<linearGradient id="SVGID_5_" gradientUnits="userSpaceOnUse" x1="19.821" y1="77.5898" x2="45.4968" y2="77.5898">
		<stop offset="0" style="stop-color:#999999" />
		<stop offset="0.5" style="stop-color:#F5F5F5" />
		<stop offset="1" style="stop-color:#999999" />
	</linearGradient>
	<path fill="url(#SVGID_5_)" d="M19.821,64.752l2.14,25.676h21.396l2.14-25.676H19.821z" />
	<path fill="none" stroke="#B2B2B2" stroke-width="0.25" d="M21.961,66.893h21.396" />
</g>
<g id="Group_Supply">
	<path fill="#7F7F7F" stroke="#4C4C4C" stroke-width="0.25" d="M32.659,84.009h14.978v21.509H32.659V84.009z" />
	<path fill="#CCCCCC" stroke="#4C4C4C" stroke-width="0.25" d="M32.659,84.009l0.45-4.279h13.965l0.563,4.279H32.659z" />
	<path d="M39.078,90.428h2.14v2.14h-2.14V90.428z" />
</g>
<g id="Group_Motor">
	<linearGradient id="SVGID_6_" gradientUnits="userSpaceOnUse" x1="74.4382" y1="103.2656" x2="74.4382" y2="69.0313">
		<stop offset="0" style="stop-color:#1A1A1A" />
		<stop offset="0.5" style="stop-color:#666666" />
		<stop offset="1" style="stop-color:#1A1A1A" />
	</linearGradient>
	<path fill="url(#SVGID_6_)" stroke="#4C4C4C" stroke-width="0.25" d="M54.055,71.171l6.419-2.14h34.347v34.234H60.474l-6.419-2.14   V71.171z" />
	<path fill="#999999" d="M60.474,71.171h35.924v2.14H60.474V71.171z" />
	<path fill="#999999" d="M60.474,92.567h35.924v2.14H60.474V92.567z" />
	<path fill="#999999" d="M60.474,96.847h35.924v2.14H60.474V96.847z" />
	<path fill="#FFFFFF" d="M60.474,79.729h35.924v2.14H60.474V79.729z" />
	<path fill="#CCCCCC" d="M60.474,88.288h35.924v2.14H60.474V88.288z" />
	<path fill="#CCCCCC" d="M60.474,84.009h35.924v2.14H60.474V84.009z" />
	<path fill="#CCCCCC" d="M60.474,75.45h35.924v2.14H60.474V75.45z" />
</g>
<g id="Group_Base_Platform">
	<path fill="#191966" d="M60.474,103.266h32.207v2.14H60.474V103.266z" />
	<path fill="#7F7FCC" stroke="#4C4C4C" stroke-width="0.25" d="M69.145,94.707h14.978v10.698H69.145V94.707z" />
	<path fill="#B2B2FF" stroke="#4C4C4C" stroke-width="0.25" d="M0.452,105.518h94.369v2.141H0.452V105.518z" />
	<path fill="#4C4C99" stroke="#4C4C4C" stroke-width="0.25" d="M4.731,107.658h85.811v4.279H4.731V107.658z" />
</g>
<g id="Group_Centrifuge_sub">
	<linearGradient id="SVGID_7_" gradientUnits="userSpaceOnUse" x1="4.7312" y1="61.543" x2="60.4744" y2="61.543">
		<stop offset="0" style="stop-color:#4C4C4C" />
		<stop offset="0.5" style="stop-color:#CCCCCC" />
		<stop offset="1" style="stop-color:#4C4C4C" />
	</linearGradient>
	<path fill="url(#SVGID_7_)" d="M4.731,58.334l15.09,6.418h25.676l14.978-6.418H4.731z" />
	<linearGradient id="SVGID_8_" gradientUnits="userSpaceOnUse" x1="2.5916" y1="52.9844" x2="62.614" y2="52.9844">
		<stop offset="0" style="stop-color:#999999" />
		<stop offset="0.5" style="stop-color:#F5F5F5" />
		<stop offset="1" style="stop-color:#999999" />
	</linearGradient>
	<path fill="url(#SVGID_8_)" d="M2.592,47.635l2.14,10.699h55.743l2.14-10.699H2.592z" />
	<linearGradient id="SVGID_9_" gradientUnits="userSpaceOnUse" x1="4.7312" y1="41.1602" x2="60.4744" y2="41.1602">
		<stop offset="0" style="stop-color:#999999" />
		<stop offset="0.5" style="stop-color:#F5F5F5" />
		<stop offset="1" style="stop-color:#999999" />
	</linearGradient>
	<path fill="url(#SVGID_9_)" d="M4.731,47.635l4.392-12.951h47.072l4.279,12.951H4.731z" />
	<linearGradient id="SVGID_10_" gradientUnits="userSpaceOnUse" x1="9.1228" y1="29.3354" x2="56.1951" y2="29.3354">
		<stop offset="0" style="stop-color:#4C4C4C" />
		<stop offset="0.5" style="stop-color:#CCCCCC" />
		<stop offset="1" style="stop-color:#4C4C4C" />
	</linearGradient>
	<path fill="url(#SVGID_10_)" d="M9.123,34.685l8.559-10.698h29.955l8.559,10.698H9.123z" />
	<linearGradient id="SVGID_11_" gradientUnits="userSpaceOnUse" x1="17.6814" y1="21.8467" x2="47.6365" y2="21.8467">
		<stop offset="0" style="stop-color:#999999" />
		<stop offset="0.5" style="stop-color:#F5F5F5" />
		<stop offset="1" style="stop-color:#999999" />
	</linearGradient>
	<path fill="url(#SVGID_11_)" d="M17.681,23.986l2.14-4.279h25.676l2.14,4.279H17.681z" />
	<linearGradient id="SVGID_12_" gradientUnits="userSpaceOnUse" x1="21.9607" y1="18.6372" x2="43.3572" y2="18.6372">
		<stop offset="0" style="stop-color:#999999" />
		<stop offset="0.5" style="stop-color:#F5F5F5" />
		<stop offset="1" style="stop-color:#999999" />
	</linearGradient>
	<path fill="url(#SVGID_12_)" d="M21.961,19.707l2.14-2.14h17.117l2.14,2.14H21.961z" />
	<path fill="none" stroke="#4C4C4C" stroke-width="0.25" d="M4.731,47.635l4.392-12.951h47.072l4.279,12.951H4.731" />
	<path fill="none" stroke="#4C4C4C" stroke-width="0.25" d="M21.961,19.707l2.14-2.14h17.117l2.14,2.14H21.961" />
	<path fill="none" stroke="#4C4C4C" stroke-width="0.25" d="M17.681,23.986l2.14-4.279h25.676l2.14,4.279H17.681" />
	<path fill="none" stroke="#4C4C4C" stroke-width="0.25" d="M9.123,34.685l8.559-10.698h29.955l8.559,10.698H9.123" />
	<path fill="none" stroke="#4C4C4C" stroke-width="0.25" d="M2.592,47.635l2.14,10.699h55.743l2.14-10.699H2.592" />
	<path fill="none" stroke="#4C4C4C" stroke-width="0.25" d="M4.731,58.334l15.09,6.418h25.676l14.978-6.418H4.731" />
	<path fill="none" stroke="#4C4C4C" stroke-width="0.25" d="M3.718,50.788H61.6" />
	<path fill="none" stroke="#B2B2B2" stroke-width="0.25" d="M18.695,21.847H46.51" />
	<path fill="none" stroke="#B2B2B2" stroke-width="0.25" d="M3.155,49.212h58.896" />
</g>
<g id="Group_Inlet">
	<linearGradient id="SVGID_13_" gradientUnits="userSpaceOnUse" x1="37.4451" y1="6.8691" x2="37.4451" y2="2.5898">
		<stop offset="0" style="stop-color:#4C4C4C" />
		<stop offset="0.5" style="stop-color:#CCCCCC" />
		<stop offset="1" style="stop-color:#4C4C4C" />
	</linearGradient>
	<path fill="url(#SVGID_13_)" d="M34.799,3.604h4.279V2.59h1.014v4.279h-1.014V5.743h-4.279V3.604z" />
	<linearGradient id="SVGID_14_" gradientUnits="userSpaceOnUse" x1="38.2332" y1="11.1484" x2="38.2332" y2="6.8691">
		<stop offset="0" style="stop-color:#4C4C4C" />
		<stop offset="0.5" style="stop-color:#CCCCCC" />
		<stop offset="1" style="stop-color:#4C4C4C" />
	</linearGradient>
	<path fill="url(#SVGID_14_)" d="M34.799,7.883h5.856V6.869h1.013v4.279h-1.013v-1.126h-5.856V7.883z" />
	<linearGradient id="SVGID_15_" gradientUnits="userSpaceOnUse" x1="39.0779" y1="15.4277" x2="39.0779" y2="11.1484">
		<stop offset="0" style="stop-color:#4C4C4C" />
		<stop offset="0.5" style="stop-color:#CCCCCC" />
		<stop offset="1" style="stop-color:#4C4C4C" />
	</linearGradient>
	<path fill="url(#SVGID_15_)" d="M34.799,12.275h7.433v-1.126h1.126v4.279h-1.126v-1.126h-7.433V12.275z" />
	<linearGradient id="SVGID_16_" gradientUnits="userSpaceOnUse" x1="30.407" y1="9.0088" x2="34.7986" y2="9.0088">
		<stop offset="0" style="stop-color:#4C4C4C" />
		<stop offset="0.5" style="stop-color:#CCCCCC" />
		<stop offset="1" style="stop-color:#4C4C4C" />
	</linearGradient>
	<path fill="url(#SVGID_16_)" d="M30.407,0.45h4.392v17.117h-4.392V0.45z" />
	<path fill="none" stroke="#4C4C4C" stroke-width="0.25" d="M30.407,0.45h4.392v17.117h-4.392V0.45" />
</g>
</svg>