<svg version="1.1" xmlns="http://www.w3.org/2000/svg" xmlns:xlink="http://www.w3.org/1999/xlink" width="52px" height="112px" viewBox="0 0 51.689 112.5" enable-background="new 0 0 51.689 112.5" xml:space="preserve">
<g id="Group_Rod">
	<path fill="#FFFFFF" stroke="#4C4C4C" stroke-width="0.5" d="M49.55,13.514l2.14,0.563l-4.055,15.202l-2.14-0.563L49.55,13.514z" />
</g>
<g id="Group_Dust_Collector">
	<linearGradient id="SVGID_1_" gradientUnits="userSpaceOnUse" x1="15.6531" y1="48.3672" x2="47.1843" y2="48.3672">
		<stop offset="0" style="stop-color:#A6A6A6" />
		<stop offset="0.5" style="stop-color:#F7F7F7" />
		<stop offset="1" style="stop-color:#A6A6A6" />
	</linearGradient>
	<path fill="url(#SVGID_1_)" d="M15.653,4.505v62.95l4.505,22.521v2.253h22.521v-2.253l4.505-22.521V4.505" />
	<linearGradient id="SVGID_2_" gradientUnits="userSpaceOnUse" x1="15.7004" y1="4.7622" x2="47.116" y2="4.7622">
		<stop offset="0" style="stop-color:#A6A6A6" />
		<stop offset="0.5" style="stop-color:#F7F7F7" />
		<stop offset="1" style="stop-color:#A6A6A6" />
	</linearGradient>
	<ellipse fill="url(#SVGID_2_)" cx="31.408" cy="4.762" rx="15.708" ry="4.763" />
	<path fill="none" stroke="#4C4C4C" stroke-width="0.25" d="M15.653,67.455h31.531" />
	<path fill="none" stroke="#4C4C4C" stroke-width="0.5" d="M27.027,67.455h8.896" />
	<path fill="none" stroke="#4C4C4C" stroke-width="0.25" d="M20.158,89.977h22.521" />
</g>
<g id="Group_Outlet">
	<linearGradient id="SVGID_3_" gradientUnits="userSpaceOnUse" x1="22.4099" y1="102.3652" x2="40.4275" y2="102.3652">
		<stop offset="0" style="stop-color:#4C4C4C" />
		<stop offset="0.5" style="stop-color:#CCCCCC" />
		<stop offset="1" style="stop-color:#4C4C4C" />
	</linearGradient>
	<path fill="url(#SVGID_3_)" d="M22.41,92.229h18.018V112.5H22.41V92.229" />
</g>
<g id="Group_Red">
	<path fill="#B23232" stroke="#FFFFFF" stroke-width="0.25" d="M26.914,29.167h18.019v4.504H26.914V29.167z" />
</g>
<g id="Group_Inlet">
	<ellipse fill="#CCCCCC" stroke="#4C4C4C" stroke-width="0.25" cx="42.455" cy="57.883" rx="2.026" ry="4.955" />
	
		<linearGradient id="SVGID_4_" gradientUnits="userSpaceOnUse" x1="193.9509" y1="491.7754" x2="193.9509" y2="499.8975" gradientTransform="matrix(-1 0 0 1 238.4429 -438.001)">
		<stop offset="0.01" style="stop-color:#646566" />
		<stop offset="0.5" style="stop-color:#E0E0E0" />
		<stop offset="1" style="stop-color:#666666" />
	</linearGradient>
	<path fill="url(#SVGID_4_)" d="M47.558,53.774v8.1l-3.854,0.022c-1.522,0-2.278-1.816-2.278-4.057c0-2.241,0.756-4.057,2.278-4.057   L47.558,53.774z" />
	<ellipse fill="#CCCCCC" stroke="#4C4C4C" stroke-width="0.25" cx="47.41" cy="57.883" rx="2.026" ry="3.941" />
</g>
<g id="Group_Holder_Control">
	<linearGradient id="SVGID_5_" gradientUnits="userSpaceOnUse" x1="15.6531" y1="13.4575" x2="51.6892" y2="13.4575">
		<stop offset="0" style="stop-color:#A6A6A6" />
		<stop offset="0.4" style="stop-color:#CCCCCC" />
		<stop offset="0.6" style="stop-color:#CBCBCB" />
		<stop offset="1" style="stop-color:#A6A6A6" />
	</linearGradient>
	<path fill="url(#SVGID_5_)" stroke="#4C4C4C" stroke-width="0.25" d="M15.653,11.262h36.036v4.392H15.653V11.262z" />
	<path fill="#4C4C4C" stroke="#4C4C4C" stroke-width="0.25" d="M0,6.757l6.757,47.184h2.14L2.253,6.757H0z" />
	<linearGradient id="SVGID_6_" gradientUnits="userSpaceOnUse" x1="2.2527" y1="28.0967" x2="17.905" y2="28.0967">
		<stop offset="0" style="stop-color:#A6A6A6" />
		<stop offset="0.4" style="stop-color:#CCCCCC" />
		<stop offset="0.6" style="stop-color:#CBCBCB" />
		<stop offset="1" style="stop-color:#A6A6A6" />
	</linearGradient>
	<path fill="url(#SVGID_6_)" stroke="#4C4C4C" stroke-width="0.25" d="M2.253,9.009h15.652v38.175H2.253V9.009z" />
	<path fill="#7F7F7F" stroke="#4C4C4C" stroke-width="0.25" d="M0,4.505h20.158v2.252H0V4.505z" />
	<path fill="#7F7F7F" stroke="#4C4C4C" stroke-width="0.25" d="M6.757,51.689h11.148v18.018H6.757V51.689z" />
	<path fill="#4C4C4C" stroke="#4C4C4C" stroke-width="0.25" d="M6.757,9.009h6.645V6.757H6.757V9.009z" />
	<path fill="#999999" stroke="#4C4C4C" stroke-width="0.25" d="M8.896,53.941h9.009v6.757H8.896V53.941z" />
</g>
</svg>