<svg version="1.1" xmlns="http://www.w3.org/2000/svg" xmlns:xlink="http://www.w3.org/1999/xlink" width="67px" height="112px" viewBox="0 0 66.665 112.5" enable-background="new 0 0 66.665 112.5" xml:space="preserve">
<g id="Group_Holder">
	<path fill="#4C4C4C" stroke="#4C4C4C" stroke-width="0.25" d="M16.329,79.616h29.391v6.981H16.329V79.616z" />
	<path fill="#CCCCCC" stroke="#4C4C4C" stroke-width="0.25" d="M66.665,88.287H45.719V74.211h20.945V88.287z" />
	<path fill="#B2B2B2" d="M45.719,88.287l1.689-1.689h17.566V76.238l1.689-2.027v14.076H45.719z" />
</g>
<g id="Group_Support_Structure">
	<path fill="#666666" stroke="#4C4C4C" stroke-width="0.25" d="M9.122,102.927h49.21v4.616H9.122V102.927z" />
	<linearGradient id="SVGID_1_" gradientUnits="userSpaceOnUse" x1="35.5835" y1="120.5244" x2="29.9547" y2="99.5174">
		<stop offset="0" style="stop-color:#BFBFBF" />
		<stop offset="0.13" style="stop-color:#CACACA" />
		<stop offset="0.22" style="stop-color:#E5E5E5" />
	</linearGradient>
	<path fill="url(#SVGID_1_)" stroke="#4C4C4C" stroke-width="0.25" d="M63.287,107.543h2.252v4.955H0v-4.955h58.332" />
	<path fill="#E5E5E5" stroke="#4C4C4C" stroke-width="0.25" d="M58.332,107.543V56.081h4.955v51.462" />
</g>
<g id="Group_Tank">
	<linearGradient id="SVGID_2_" gradientUnits="userSpaceOnUse" x1="37.3862" y1="96.7324" x2="56.0796" y2="96.7324">
		<stop offset="0" style="stop-color:#A6A6A6" />
		<stop offset="0.5" style="stop-color:#F7F7F7" />
		<stop offset="1" style="stop-color:#A6A6A6" />
	</linearGradient>
	<path fill="url(#SVGID_2_)" d="M37.386,107.543H56.08v-21.62H37.386V107.543z" />
	<ellipse fill="#4C4C4C" cx="46.733" cy="85.585" rx="9.347" ry="0.226" />
</g>
<g id="Group_Metric_Weigh">
	<linearGradient id="SVGID_3_" gradientUnits="userSpaceOnUse" x1="2.252" y1="81.8125" x2="9.1216" y2="81.8125">
		<stop offset="0" style="stop-color:#666666" />
		<stop offset="0.5" style="stop-color:#E5E5E5" />
		<stop offset="1" style="stop-color:#666666" />
	</linearGradient>
	<path fill="url(#SVGID_3_)" d="M9.122,56.081h-6.87v51.462h6.87V56.081z" />
	<linearGradient id="SVGID_4_" gradientUnits="userSpaceOnUse" x1="1.126" y1="71.7334" x2="16.3286" y2="71.7334">
		<stop offset="0" style="stop-color:#666666" />
		<stop offset="0.25" style="stop-color:#CCCCCC" />
		<stop offset="0.59" style="stop-color:#8A8A8A" />
		<stop offset="1" style="stop-color:#666666" />
	</linearGradient>
	<path fill="url(#SVGID_4_)" stroke="#4C4C4C" stroke-width="0.25" d="M16.329,64.977H1.126V78.49h9.234v-1.126l5.969-4.392V64.977z   " />
	<linearGradient id="SVGID_5_" gradientUnits="userSpaceOnUse" x1="1.126" y1="86.373" x2="16.3286" y2="86.373">
		<stop offset="0" style="stop-color:#666666" />
		<stop offset="0.25" style="stop-color:#CCCCCC" />
		<stop offset="0.59" style="stop-color:#8A8A8A" />
		<stop offset="1" style="stop-color:#666666" />
	</linearGradient>
	<path fill="url(#SVGID_5_)" stroke="#4C4C4C" stroke-width="0.25" d="M16.329,79.616H1.126v13.513h9.234v-1.463l5.969-3.941V79.616   z" />
	<linearGradient id="SVGID_6_" gradientUnits="userSpaceOnUse" x1="1.126" y1="104.3906" x2="10.3599" y2="104.3906">
		<stop offset="0" style="stop-color:#666666" />
		<stop offset="0.5" style="stop-color:#E5E5E5" />
		<stop offset="1" style="stop-color:#666666" />
	</linearGradient>
	<path fill="url(#SVGID_6_)" d="M1.126,101.801h9.234v5.18H1.126V101.801z" />
</g>
<g id="Group_Feeder">
	<linearGradient id="SVGID_7_" gradientUnits="userSpaceOnUse" x1="2.252" y1="40.9912" x2="63.2866" y2="40.9912">
		<stop offset="0" style="stop-color:#A6A6A6" />
		<stop offset="0.5" style="stop-color:#F7F7F7" />
		<stop offset="1" style="stop-color:#A6A6A6" />
	</linearGradient>
	<path fill="url(#SVGID_7_)" stroke="#4C4C4C" stroke-width="0.25" d="M2.252,0.001L12.95,46.847l1.126,9.234V75l4.617,6.981h28.153   L51.462,75V56.081l1.126-9.234L63.287,0.001H2.252z" />
	<path fill="none" stroke="#7F7F7F" stroke-width="0.25" d="M14.076,75h37.386" />
</g>
<g id="Group_Tapper">
	<linearGradient id="SVGID_8_" gradientUnits="userSpaceOnUse" x1="14.6392" y1="57.9395" x2="50.8989" y2="57.9395">
		<stop offset="0" style="stop-color:#666666" />
		<stop offset="0.5" style="stop-color:#E5E5E5" />
		<stop offset="1" style="stop-color:#666666" />
	</linearGradient>
	<path fill="url(#SVGID_8_)" stroke="#4C4C4C" stroke-width="0.25" d="M14.639,56.081h36.26v3.716h-36.26V56.081z" />
	<linearGradient id="SVGID_9_" gradientUnits="userSpaceOnUse" x1="0" y1="51.4639" x2="65.5386" y2="51.4639">
		<stop offset="0" style="stop-color:#666666" />
		<stop offset="0.07" style="stop-color:#E5E5E5" />
		<stop offset="0.2" style="stop-color:#4D4D4D" />
		<stop offset="0.2" style="stop-color:#808080" />
		<stop offset="0.5" style="stop-color:#E0E0E0" />
		<stop offset="0.8" style="stop-color:#808080" />
		<stop offset="0.8" style="stop-color:#4D4D4D" />
		<stop offset="0.93" style="stop-color:#E5E5E5" />
		<stop offset="1" style="stop-color:#666666" />
	</linearGradient>
	<path fill="url(#SVGID_9_)" d="M0,46.847h65.539v9.234H0V46.847z" />
</g>
</svg>