<svg version="1.1" xmlns="http://www.w3.org/2000/svg" xmlns:xlink="http://www.w3.org/1999/xlink" width="112px" height="58px" viewBox="0 0 112.5 58.442" enable-background="new 0 0 112.5 58.442" xml:space="preserve">
<g id="Group_Grinding_Mill">
	<linearGradient id="SVGID_1_" gradientUnits="userSpaceOnUse" x1="77.082" y1="39.4126" x2="77.082" y2="2.2524">
		<stop offset="0" style="stop-color:#1A1A1A" />
		<stop offset="0.5" style="stop-color:#CCCCCC" />
		<stop offset="1" style="stop-color:#1A1A1A" />
	</linearGradient>
	<path fill="url(#SVGID_1_)" d="M46.96,39.413V2.252h60.244v37.161H46.96z" />
	<linearGradient id="SVGID_2_" gradientUnits="userSpaceOnUse" x1="38.7964" y1="25.4487" x2="38.7964" y2="16.2153">
		<stop offset="0" style="stop-color:#1A1A1A" />
		<stop offset="0.5" style="stop-color:#CCCCCC" />
		<stop offset="1" style="stop-color:#1A1A1A" />
	</linearGradient>
	<path fill="url(#SVGID_2_)" d="M35.362,25.449v-9.233h6.869v9.233H35.362z" />
	<path fill="#666666" d="M51.577,28.939h1.126v1.69h-1.126V28.939z" />
	<path fill="#666666" d="M56.194,28.939h1.126v1.69h-1.126V28.939z" />
	<path fill="#666666" d="M60.811,28.939h1.126v1.69h-1.126V28.939z" />
	<path fill="#666666" d="M65.428,28.939h1.238v1.69h-1.238V28.939z" />
	<path fill="#666666" d="M70.156,28.939h1.127v1.69h-1.127V28.939z" />
	<path fill="#666666" d="M74.773,28.939H75.9v1.69h-1.127V28.939z" />
	<path fill="#666666" d="M79.391,28.939h1.126v1.69h-1.126V28.939z" />
	<path fill="#666666" d="M84.008,28.939h1.125v1.69h-1.125V28.939z" />
	<path fill="#666666" d="M88.624,28.939h1.239v1.69h-1.239V28.939z" />
	<path fill="#666666" d="M93.354,28.939h1.126v1.69h-1.126V28.939z" />
	<path fill="#666666" d="M97.971,28.939h1.126v1.69h-1.126V28.939z" />
	<path fill="#666666" d="M102.588,28.939h1.125v1.69h-1.125V28.939z" />
	<path fill="#666666" d="M51.577,13.851h1.126v1.689h-1.126V13.851z" />
	<path fill="#666666" d="M56.194,13.851h1.126v1.689h-1.126V13.851z" />
	<path fill="#666666" d="M60.811,13.851h1.126v1.689h-1.126V13.851z" />
	<path fill="#666666" d="M65.428,13.851h1.238v1.689h-1.238V13.851z" />
	<path fill="#666666" d="M70.156,13.851h1.127v1.689h-1.127V13.851z" />
	<path fill="#666666" d="M74.773,13.851H75.9v1.689h-1.127V13.851z" />
	<path fill="#666666" d="M79.391,13.851h1.126v1.689h-1.126V13.851z" />
	<path fill="#666666" d="M84.008,13.851h1.125v1.689h-1.125V13.851z" />
	<path fill="#666666" d="M88.624,13.851h1.239v1.689h-1.239V13.851z" />
	<path fill="#666666" d="M93.354,13.851h1.126v1.689h-1.126V13.851z" />
	<path fill="#666666" d="M97.971,13.851h1.126v1.689h-1.126V13.851z" />
	<path fill="#666666" d="M102.588,13.851h1.125v1.689h-1.125V13.851z" />
</g>
<g id="Group_Ring">
	<linearGradient id="SVGID_3_" gradientUnits="userSpaceOnUse" x1="44.5952" y1="41.1011" x2="44.5952" y2="0.4507">
		<stop offset="0" style="stop-color:#000000" />
		<stop offset="0.5" style="stop-color:#4D4D4D" />
		<stop offset="1" style="stop-color:#000000" />
	</linearGradient>
	<path fill="url(#SVGID_3_)" d="M42.23,41.101V0.45h4.729v40.651H42.23z" />
	<path fill="none" stroke="#7F7F7F" stroke-width="0.25" d="M42.23,32.43h4.729" />
	<path fill="none" stroke="#7F7F7F" stroke-width="0.25" d="M42.23,37.047h4.729" />
	<path fill="none" stroke="#7F7F7F" stroke-width="0.25" d="M42.23,34.682h4.729" />
	<path fill="none" stroke="#7F7F7F" stroke-width="0.25" d="M42.23,39.413h4.729" />
	<path fill="none" stroke="#7F7F7F" stroke-width="0.25" d="M42.23,9.234h4.729" />
	<path fill="none" stroke="#7F7F7F" stroke-width="0.25" d="M42.23,4.504h4.729" />
	<path fill="none" stroke="#7F7F7F" stroke-width="0.25" d="M42.23,6.869h4.729" />
	<path fill="none" stroke="#7F7F7F" stroke-width="0.25" d="M42.23,2.252h4.729" />
	<path fill="none" stroke="#BFBFBF" stroke-width="0.25" d="M42.23,27.701h4.729" />
	<path fill="none" stroke="#BFBFBF" stroke-width="0.25" d="M42.23,30.066h4.729" />
	<path fill="none" stroke="#BFBFBF" stroke-width="0.25" d="M42.23,25.449h4.729" />
	<path fill="none" stroke="#BFBFBF" stroke-width="0.25" d="M42.23,13.851h4.729" />
	<path fill="none" stroke="#BFBFBF" stroke-width="0.25" d="M42.23,16.215h4.729" />
	<path fill="none" stroke="#BFBFBF" stroke-width="0.25" d="M42.23,11.486h4.729" />
	<path fill="none" stroke="#E5E5E5" stroke-width="0.25" d="M42.23,23.084h4.729" />
	<path fill="none" stroke="#E5E5E5" stroke-width="0.25" d="M42.23,18.467h4.729" />
	<path fill="none" stroke="#E5E5E5" stroke-width="0.25" d="M42.23,20.832h4.729" />
	<path fill="none" stroke="#4C4C4C" stroke-width="0.25" d="M42.23,41.101V0.45h4.729v40.651H42.23" />
</g>
<g id="Group_Axial_Support">
	<path fill="#E5E5E5" stroke="#4C4C4C" stroke-width="0.25" d="M35.362,27.701v-2.252h1.689v-5.18h1.126v5.18h1.239v-5.18h1.126   v5.18h1.689v2.252H35.362z" />
	<path fill="#B2B2B2" stroke="#4C4C4C" stroke-width="0.25" d="M21.398,51.01v-2.365h4.617l3.491-1.125l1.126-3.491v-4.616h4.729   V51.01H21.398z" />
</g>
<g id="Group_Motor_Unit">
	<linearGradient id="SVGID_4_" gradientUnits="userSpaceOnUse" x1="15.543" y1="51.0103" x2="15.543" y2="39.4126">
		<stop offset="0" style="stop-color:#1A1A1A" />
		<stop offset="0.5" style="stop-color:#B2B2B2" />
		<stop offset="1" style="stop-color:#1A1A1A" />
	</linearGradient>
	<path fill="url(#SVGID_4_)" d="M13.854,51.01H2.818l-2.365-0.563V39.975l2.365-0.563h11.036v0.563h2.928l1.126,1.126v2.928h2.928   v-1.802h0.563v-0.563h1.689v0.563h0.676v1.802h2.252v-3.491h2.365v-0.563h2.252v10.473H28.38v-0.676h-2.365v-3.491h-2.252v1.802   h-0.676v0.563h-1.689v-0.563h-0.563v-1.802h-2.928v2.929l-1.126,1.238h-2.928V51.01z" />
	<path fill="none" stroke="#4C4C4C" stroke-width="0.25" d="M17.908,46.281v-2.252" />
	<path fill="none" stroke="#4C4C4C" stroke-width="0.25" d="M20.835,44.029v2.252" />
	<path fill="none" stroke="#4C4C4C" stroke-width="0.25" d="M21.398,48.083v-5.855" />
	<path fill="none" stroke="#4C4C4C" stroke-width="0.25" d="M23.087,42.227v5.855" />
	<path fill="none" stroke="#4C4C4C" stroke-width="0.25" d="M23.763,46.281v-2.252" />
	<path fill="none" stroke="#4C4C4C" stroke-width="0.25" d="M26.015,44.029v2.252" />
	<path fill="none" stroke="#4C4C4C" stroke-width="0.25" d="M28.38,49.772v-9.234" />
	<path fill="none" stroke="#4C4C4C" stroke-width="0.25" d="M13.854,50.448V39.975" />
	<path fill="none" stroke="#4C4C4C" stroke-width="0.25" d="M2.818,39.413V51.01" />
	<path fill="#333333" stroke="#4C4C4C" stroke-width="0.25" d="M6.31,39.413h6.981v5.18H6.31V39.413z" />
	<path fill="#BFBFBF" stroke="#4C4C4C" stroke-width="0.25" d="M5.746,44.029h8.108v-0.563H5.746V44.029z" />
	<path fill="#BFBFBF" stroke="#4C4C4C" stroke-width="0.25" d="M5.746,42.903h8.108v-0.676H5.746V42.903z" />
	<path fill="#BFBFBF" stroke="#4C4C4C" stroke-width="0.25" d="M5.746,41.665h8.108v-0.563H5.746V41.665z" />
	<path fill="#BFBFBF" stroke="#4C4C4C" stroke-width="0.25" d="M5.746,40.651h8.108v-0.563H5.746V40.651z" />
	<path fill="#BFBFBF" stroke="#4C4C4C" stroke-width="0.25" d="M5.746,39.75h8.108v-0.563H5.746V39.75z" />
</g>
<g id="Group_Motor_Label">
	<path fill="#999999" stroke="#4C4C4C" stroke-width="0.25" d="M8.674,46.281h4.054v4.729H8.674V46.281z" />
	<path fill="none" stroke="#FFFFFF" stroke-width="0.25" d="M8.674,51.01v-4.729h4.054" />
</g>
<g id="Group_Mill_Support_Structure">
	<path fill="#A6A6A6" stroke="#4C4C4C" stroke-width="0.25" d="M107.204,56.753V27.701h4.729v29.052H107.204z" />
	<path fill="#A6A6A6" stroke="#4C4C4C" stroke-width="0.25" d="M37.614,56.753V27.701h4.617v29.052H37.614z" />
	<path fill="#CCCCCC" stroke="#4C4C4C" stroke-width="0.25" d="M0.454,56.753H42.23v1.126H0.454V56.753z" />
	<path fill="#CCCCCC" stroke="#4C4C4C" stroke-width="0.25" d="M107.204,56.753h4.729v1.126h-4.729V56.753z" />
	<path fill="#7F7F7F" stroke="#4C4C4C" stroke-width="0.25" d="M1.692,56.753l1.126-5.743h32.543V27.701h2.252v29.052H1.692z" />
</g>
</svg>