<svg version="1.1" xmlns="http://www.w3.org/2000/svg" xmlns:xlink="http://www.w3.org/1999/xlink" width="112px" height="71px" viewBox="0 0 112.5 70.719" enable-background="new 0 0 112.5 70.719" xml:space="preserve">
<g id="Group_Rotor">
	<path fill="#7F7F7F" stroke="#4C4C4C" stroke-width="0.25" d="M55.067,27.364l0.676-0.901l-0.676-2.026l1.464-0.676l5.292,11.599   l-1.689,0.676l-0.676-1.689l-1.238-0.225C58.221,34.121,57.067,30.27,55.067,27.364z" />
	<path fill="#7F7F7F" stroke="#4C4C4C" stroke-width="0.2519" d="M45.112,19.248l0.097-1.131l-1.659-1.37l0.891-1.359l10.714,7.079   l-1.083,1.48l-1.479-1.083l-1.179,0.47C51.414,23.335,48.373,20.662,45.112,19.248z" />
	<path fill="#7F7F7F" stroke="#4C4C4C" stroke-width="0.25" d="M58.842,40.421c0.422-0.119,0.857-0.202,1.317-0.202   c0.487,0,0.954,0.097,1.406,0.233l0.415-3.167l-1.6-0.203l-0.501,2.076l-1.051,0.406C58.842,39.848,58.844,40.135,58.842,40.421z" />
	<path fill="#7F7F7F" stroke="#4C4C4C" stroke-width="0.35" d="M44.05,41.543l15.715-0.118   C58.274,26.932,49.626,20.712,43.72,18.125C43.419,25.935,43.916,33.735,44.05,41.543z" />
	
		<radialGradient id="SVGID_1_" cx="48.1885" cy="34.7507" r="17.1497" gradientTransform="matrix(0.5843 -0.3651 1.3141 1.4606 -25.7603 -4.0568)" gradientUnits="userSpaceOnUse">
		<stop offset="0" style="stop-color:#A0A0A0" />
		<stop offset="0.57" style="stop-color:#5B5B5B" />
		<stop offset="1" style="stop-color:#5B5B5B" />
	</radialGradient>
	<path fill="url(#SVGID_1_)" stroke="#4C4C4C" stroke-width="0.3333" d="M44.043,41.065l14.332-0.108   c-1.37-13.319-9.091-19.306-14.685-21.922C43.465,26.381,43.902,33.72,44.043,41.065z" />
</g>
<g id="Group_Inner">
	<path fill="#0000AD" stroke="#4C4C4C" stroke-width="0.25" d="M61.824,62.16H61.6v0.676H9.799V51.011h52.025V62.16z" />
</g>
<g id="Group_Stand">
	<path fill="#7F7FFF" stroke="#4C4C4C" stroke-width="0.25" d="M52.928,62.836h1.689V51.011h-1.689V62.836z" />
	<path fill="#7F7FFF" stroke="#4C4C4C" stroke-width="0.25" d="M35.586,62.836h1.689V51.011h-1.689V62.836z" />
	<path fill="#7F7FFF" stroke="#4C4C4C" stroke-width="0.25" d="M17.231,62.836h1.689V51.011h-1.689V62.836z" />
	<path fill="#7F7FFF" stroke="#4C4C4C" stroke-width="0.25" d="M15.542,49.097h40.539v1.914H15.542V49.097z" />
</g>
<g id="Group_Hanger">
	<path fill="#7F7FFF" stroke="#4C4C4C" stroke-width="0.25" d="M31.757,2.59V1.577c0,0,0.268-0.518,0.901-0.451   s1.014,0.451,1.014,0.451V2.59h0.676c0,0,0.446-1.463-0.451-2.026s-1.689-0.226-1.689-0.226s-1.27,0.339-1.239,1.014   s0,1.238,0,1.238H31.757" />
</g>
<g id="Group_Mill">
	<path fill="#7F7FFF" stroke="#4C4C4C" stroke-width="0.25" d="M82.318,47.183h25.9l3.829,17.566H86.26L82.318,47.183z" />
	<path fill="#0000FF" stroke="#4C4C4C" stroke-width="0.25" d="M108.895,50.787l-0.225-1.464h3.378v1.464H108.895z" />
	<path fill="#0000FF" stroke="#4C4C4C" stroke-width="0.25" d="M111.26,61.372l-0.226-1.464h1.014v1.464H111.26z" />
	<path fill="#0000FF" stroke="#4C4C4C" stroke-width="0.25" d="M98.535,48.309h0.9v14.977h-0.9V48.309z" />
	<path fill="#0000FF" stroke="#4C4C4C" stroke-width="0.25" d="M82.318,47.183h1.239l3.829,17.566H86.26L82.318,47.183z" />
	<path fill="#0000FF" stroke="#4C4C4C" stroke-width="0.25" d="M111.822,63.511h-25.9l0.338,1.238h25.788L111.822,63.511z" />
</g>
<g id="Group_Hammermill">
	<path fill="#0000FF" stroke="#4C4C4C" stroke-width="0.25" d="M61.824,62.16h7.995v0.676h15.878l-2.815-13.738H61.824V62.16z" />
	<rect x="21.623" y="2.59" fill="#0000FF" stroke="#4C4C4C" stroke-width="0.246" width="22.877" height="46.27" />
	<polygon fill="#0000FF" stroke="#4C4C4C" stroke-width="0.2504" points="80.963,40 45.156,40 41.625,49.233 56,49.233 56,50.923    61.761,50.923 61.761,49.233 82.656,49.233  " />
	<path fill="#0000FF" stroke="#4C4C4C" stroke-width="0.25" d="M9.799,53.151h11.824V2.59h-1.914l-9.91,27.477V53.151z" />
	<path fill="#7F7FFF" stroke="#4C4C4C" stroke-width="0.25" d="M44.482,22.747h-22.86v-1.126h22.86V22.747z" />
	<line fill="none" stroke="#4C4C4C" stroke-width="0.25" x1="27.591" y1="39.864" x2="21.623" y2="39.864" />
</g>
<g id="Group_Base_Support">
	<path fill="#7F7FFF" stroke="#4C4C4C" stroke-width="0.25" d="M0.34,62.16h8.22v8.108H0.34V62.16z" />
	<path fill="#7F7FFF" stroke="#4C4C4C" stroke-width="0.25" d="M61.6,62.16h8.22v8.108H61.6V62.16z" />
	<path fill="#0000FF" stroke="#4C4C4C" stroke-width="0.25" d="M61.6,63.061H8.56v6.306H61.6V63.061z" />
</g>
<g id="Group_Axial_Unit">
	<rect x="25.677" y="43.804" fill="#7F7FFF" stroke="#4C4C4C" stroke-width="0.2629" width="21.452" height="5.512" />
	<circle fill="#7F7FFF" cx="36.374" cy="39.864" r="8.872" />
</g>
<g id="Group_Core">
	<radialGradient id="SVGID_2_" cx="36.3745" cy="39.863" r="5.856" gradientUnits="userSpaceOnUse">
		<stop offset="0" style="stop-color:#FFFFFF" />
		<stop offset="0.75" style="stop-color:#999999" />
		<stop offset="1" style="stop-color:#3D3D3D" />
	</radialGradient>
	<circle fill="url(#SVGID_2_)" cx="36.375" cy="39.864" r="5.856" />
	<circle fill="#7F7F7F" stroke="#4C4C4C" stroke-width="0.25" cx="36.375" cy="39.751" r="0.788" />
</g>
</svg>