<svg version="1.1" xmlns="http://www.w3.org/2000/svg" xmlns:xlink="http://www.w3.org/1999/xlink" width="112px" height="103px" viewBox="0 0 112.5 103.154" enable-background="new 0 0 112.5 103.154" xml:space="preserve">
<g id="Group_Rod">
	<linearGradient id="SVGID_1_" gradientUnits="userSpaceOnUse" x1="56.1938" y1="50.4512" x2="56.1938" y2="38.7393">
		<stop offset="0" style="stop-color:#595959" />
		<stop offset="0.5" style="stop-color:#EBEBEB" />
		<stop offset="1" style="stop-color:#595959" />
	</linearGradient>
	<path fill="url(#SVGID_1_)" d="M7.433,38.739h97.522v11.712H7.433V38.739z" />
</g>
<g id="Group_Feeder">
	<path fill="#2B2B7F" d="M16.779,14.415l6.982-11.599h64.865l6.981,11.599H16.779z" />
</g>
<g id="Group_Top">
	<path fill="#7878CC" d="M26.014,14.415V2.816h2.478v11.599H26.014z" />
	<path fill="#7878CC" d="M84.009,14.415V2.816h2.365v11.599H84.009z" />
	<path fill="#7878CC" d="M54.955,14.415V2.816h2.478v11.599H54.955z" />
	<path fill="#454599" stroke="#4C4C4C" stroke-width="0.25" d="M21.396,2.816V0.451h69.595v2.365H21.396z" />
</g>
<g id="Group_Granulator">
	<path fill="#454599" stroke="#4C4C4C" stroke-width="0.25" d="M5.18,102.591v-2.365h11.599V60.812h-4.617V14.415h88.176v46.396   h-4.73v39.414h11.6v2.365H5.18z" />
	<path fill="none" stroke="#7878CC" stroke-width="0.25" d="M21.396,100.226V23.762h69.595" />
	<path fill="none" stroke="#7878CC" stroke-width="0.25" d="M26.014,45.158h60.36" />
	<path fill="none" stroke="#4C4C4C" stroke-width="0.25" d="M26.014,44.032h60.36" />
	<path fill="none" stroke="#4C4C4C" stroke-width="0.25" d="M16.779,60.812v-6.982h4.617V46.96h4.617" />
	<path fill="none" stroke="#4C4C4C" stroke-width="0.25" d="M95.607,60.812v-6.982h-4.616V46.96h-4.617" />
	<path fill="none" stroke="#4C4C4C" stroke-width="0.25" d="M90.991,100.226V23.762" />
</g>
<g id="Group_Axial">
	<linearGradient id="SVGID_2_" gradientUnits="userSpaceOnUse" x1="108.333" y1="74.7754" x2="108.333" y2="14.4155">
		<stop offset="0" style="stop-color:#2B2B7F" />
		<stop offset="0.5" style="stop-color:#ABABFF" />
		<stop offset="1" style="stop-color:#2B2B7F" />
	</linearGradient>
	<path fill="url(#SVGID_2_)" d="M104.842,14.415h6.982v60.36h-6.982V14.415z" />
	<linearGradient id="SVGID_3_" gradientUnits="userSpaceOnUse" x1="3.9419" y1="74.7754" x2="3.9419" y2="14.4155">
		<stop offset="0" style="stop-color:#2B2B7F" />
		<stop offset="0.5" style="stop-color:#ABABFF" />
		<stop offset="1" style="stop-color:#2B2B7F" />
	</linearGradient>
	<path fill="url(#SVGID_3_)" d="M0.451,14.415h6.982v60.36H0.451V14.415z" />
	<path fill="none" stroke="#4C4C4C" stroke-width="0.25" d="M5.18,14.415v60.36" />
	<path fill="none" stroke="#4C4C4C" stroke-width="0.25" d="M2.815,14.415v60.36" />
</g>
<g id="Group_Label">
	<path fill="#7878CC" d="M90.991,49.212h4.616v4.617h-4.616V49.212z" />
	<path fill="#7878CC" d="M86.374,42.23h4.617v4.729h-4.617V42.23z" />
	<path fill="#7878CC" d="M21.396,42.23h4.617v4.729h-4.617V42.23z" />
	<path fill="#7878CC" d="M16.779,49.212h4.617v4.617h-4.617V49.212z" />
</g>
<g id="Group_Fork">
	<linearGradient id="SVGID_4_" gradientUnits="userSpaceOnUse" x1="76.1816" y1="69.2568" x2="76.1816" y2="63.0635">
		<stop offset="0" style="stop-color:#595959" />
		<stop offset="0.31" style="stop-color:#959595" />
		<stop offset="0.5" style="stop-color:#EBEBEB" />
		<stop offset="0.72" style="stop-color:#999999" />
		<stop offset="1" style="stop-color:#595959" />
	</linearGradient>
	<path fill="url(#SVGID_4_)" stroke="#4C4C4C" stroke-width="0.25" d="M78.266,67.456h-9.91v-2.479h9.91l0.451-1.013l2.252-0.901   l2.139,0.901l0.901,2.252l-0.901,2.14l-2.139,0.9l-2.252-0.9L78.266,67.456z" />
	<linearGradient id="SVGID_5_" gradientUnits="userSpaceOnUse" x1="72.0723" y1="33.8408" x2="78.2656" y2="33.8408">
		<stop offset="0" style="stop-color:#595959" />
		<stop offset="0.31" style="stop-color:#959595" />
		<stop offset="0.5" style="stop-color:#EBEBEB" />
		<stop offset="0.72" style="stop-color:#999999" />
		<stop offset="1" style="stop-color:#595959" />
	</linearGradient>
	<path fill="url(#SVGID_5_)" stroke="#4C4C4C" stroke-width="0.25" d="M76.352,31.757v9.91h-2.478v-9.91l-0.901-0.45l-0.9-2.14   l0.9-2.252l2.141-0.901l2.252,0.901l0.9,2.252l-0.9,2.14L76.352,31.757z" />
	<linearGradient id="SVGID_6_" gradientUnits="userSpaceOnUse" x1="34.6846" y1="33.8408" x2="40.9912" y2="33.8408">
		<stop offset="0" style="stop-color:#595959" />
		<stop offset="0.31" style="stop-color:#959595" />
		<stop offset="0.5" style="stop-color:#EBEBEB" />
		<stop offset="0.72" style="stop-color:#999999" />
		<stop offset="1" style="stop-color:#595959" />
	</linearGradient>
	<path fill="url(#SVGID_6_)" stroke="#4C4C4C" stroke-width="0.25" d="M39.077,31.757v9.91h-2.478v-9.91l-0.901-0.45l-1.014-2.252   l1.014-2.14l2.14-0.901l2.252,0.901l0.901,2.14l-0.901,2.252L39.077,31.757z" />
	<linearGradient id="SVGID_7_" gradientUnits="userSpaceOnUse" x1="36.2051" y1="69.3701" x2="36.2051" y2="63.1768">
		<stop offset="0" style="stop-color:#595959" />
		<stop offset="0.31" style="stop-color:#959595" />
		<stop offset="0.5" style="stop-color:#EBEBEB" />
		<stop offset="0.72" style="stop-color:#999999" />
		<stop offset="1" style="stop-color:#595959" />
	</linearGradient>
	<path fill="url(#SVGID_7_)" stroke="#4C4C4C" stroke-width="0.25" d="M34.122,64.978h9.91v2.479h-9.91l-0.45,1.014l-2.252,0.9   l-2.14-0.9l-0.901-2.253l0.901-2.14l2.14-0.9l2.252,0.9L34.122,64.978z" />
	<radialGradient id="SVGID_8_" cx="80.9121" cy="66.2168" r="1.8869" gradientUnits="userSpaceOnUse">
		<stop offset="0" style="stop-color:#BFBFBF" />
		<stop offset="0.68" style="stop-color:#4D4D4D" />
		<stop offset="1" style="stop-color:#404040" />
	</radialGradient>
	<path fill="url(#SVGID_8_)" d="M79.617,64.865l1.352-0.563l1.238,0.563l0.563,1.352l-0.563,1.352l-1.238,0.563l-1.352-0.563   l-0.563-1.352L79.617,64.865z" />
	<radialGradient id="SVGID_9_" cx="75.1689" cy="29.1113" r="1.8582" gradientUnits="userSpaceOnUse">
		<stop offset="0" style="stop-color:#BFBFBF" />
		<stop offset="0.68" style="stop-color:#4D4D4D" />
		<stop offset="1" style="stop-color:#404040" />
	</radialGradient>
	<path fill="url(#SVGID_9_)" d="M73.874,30.406l-0.563-1.239l0.563-1.352l1.239-0.563l1.351,0.563l0.563,1.352l-0.563,1.239   l-1.351,0.563L73.874,30.406z" />
	<radialGradient id="SVGID_10_" cx="37.8945" cy="29.1113" r="1.8579" gradientUnits="userSpaceOnUse">
		<stop offset="0" style="stop-color:#BFBFBF" />
		<stop offset="0.68" style="stop-color:#4D4D4D" />
		<stop offset="1" style="stop-color:#404040" />
	</radialGradient>
	<path fill="url(#SVGID_10_)" d="M36.599,30.406l-0.563-1.352l0.563-1.239l1.239-0.563l1.351,0.563l0.563,1.239l-0.563,1.352   l-1.351,0.563L36.599,30.406z" />
	<radialGradient id="SVGID_11_" cx="31.4756" cy="66.2734" r="1.8582" gradientUnits="userSpaceOnUse">
		<stop offset="0" style="stop-color:#BFBFBF" />
		<stop offset="0.68" style="stop-color:#4D4D4D" />
		<stop offset="1" style="stop-color:#404040" />
	</radialGradient>
	<path fill="url(#SVGID_11_)" d="M32.771,67.568l-1.352,0.563l-1.239-0.563l-0.563-1.352l0.563-1.352l1.239-0.45l1.352,0.45   l0.563,1.352L32.771,67.568z" />
</g>
</svg>