<svg version="1.1" xmlns="http://www.w3.org/2000/svg" xmlns:xlink="http://www.w3.org/1999/xlink" width="112px" height="112px" viewBox="0 0 112.5 112.5" enable-background="new 0 0 112.5 112.5" xml:space="preserve">
<g id="Group_Shredder">
	<path fill="#0000FF" stroke="#4C4C4C" stroke-width="0.25" d="M23.334,42.046H112.5v18.938H23.334V42.046z" />
	<path fill="#0000BF" stroke="#4C4C4C" stroke-width="0.25" d="M23.334,44.526H112.5v13.978H23.334V44.526z" />
</g>
<g id="Group_Buttons">
	<radialGradient id="SVGID_1_" cx="41.0322" cy="46.7813" r="1.1847" gradientUnits="userSpaceOnUse">
		<stop offset="0.55" style="stop-color:#0000C8" />
		<stop offset="1" style="stop-color:#00006E" />
	</radialGradient>
	<path fill="url(#SVGID_1_)" d="M40.919,45.654l0.902,0.338l0.451,0.789l-0.563,1.014l-0.789,0.113l-0.564-0.113l-0.563-1.014   l0.563-0.902L40.919,45.654z" />
	<radialGradient id="SVGID_2_" cx="41.0322" cy="51.5156" r="1.1847" gradientUnits="userSpaceOnUse">
		<stop offset="0.55" style="stop-color:#0000C8" />
		<stop offset="1" style="stop-color:#00006E" />
	</radialGradient>
	<path fill="url(#SVGID_2_)" d="M40.919,50.388l0.902,0.338l0.451,0.789l-0.563,0.902l-0.789,0.225l-0.902-0.451l-0.226-0.676   l0.563-0.902L40.919,50.388z" />
	<radialGradient id="SVGID_3_" cx="41.0322" cy="56.25" r="1.1847" gradientUnits="userSpaceOnUse">
		<stop offset="0.55" style="stop-color:#0000C8" />
		<stop offset="1" style="stop-color:#00006E" />
	</radialGradient>
	<path fill="url(#SVGID_3_)" d="M40.919,55.123l0.902,0.338l0.451,0.789l-0.563,0.902l-0.789,0.225l-0.902-0.451l-0.226-0.676   l0.563-0.902L40.919,55.123z" />
	<radialGradient id="SVGID_4_" cx="56.25" cy="46.7813" r="1.127" gradientUnits="userSpaceOnUse">
		<stop offset="0.55" style="stop-color:#0000C8" />
		<stop offset="1" style="stop-color:#00006E" />
	</radialGradient>
	<path fill="url(#SVGID_4_)" d="M56.25,45.654l0.902,0.451l0.225,0.677l-0.451,1.014l-0.676,0.113l-0.676-0.113l-0.451-1.014   l0.451-0.902L56.25,45.654z" />
	<radialGradient id="SVGID_5_" cx="59.8574" cy="46.7813" r="1.127" gradientUnits="userSpaceOnUse">
		<stop offset="0.55" style="stop-color:#0000C8" />
		<stop offset="1" style="stop-color:#00006E" />
	</radialGradient>
	<path fill="url(#SVGID_5_)" d="M59.857,45.654l0.901,0.451l0.226,0.677l-0.451,1.014l-0.676,0.113l-0.677-0.113l-0.45-1.014   l0.45-0.902L59.857,45.654z" />
	<radialGradient id="SVGID_6_" cx="63.2383" cy="46.7813" r="1.1274" gradientUnits="userSpaceOnUse">
		<stop offset="0.55" style="stop-color:#0000C8" />
		<stop offset="1" style="stop-color:#00006E" />
	</radialGradient>
	<path fill="url(#SVGID_6_)" d="M63.238,45.654l0.902,0.451l0.226,0.677l-0.45,1.014l-0.678,0.113l-0.676-0.113l-0.451-1.014   l0.451-0.902L63.238,45.654z" />
	<radialGradient id="SVGID_7_" cx="66.8457" cy="46.7813" r="1.1274" gradientUnits="userSpaceOnUse">
		<stop offset="0.55" style="stop-color:#0000C8" />
		<stop offset="1" style="stop-color:#00006E" />
	</radialGradient>
	<path fill="url(#SVGID_7_)" d="M66.846,45.654l0.902,0.451l0.226,0.677l-0.451,1.014l-0.677,0.113l-0.676-0.113l-0.451-1.014   l0.451-0.902L66.846,45.654z" />
	<radialGradient id="SVGID_8_" cx="70.4531" cy="46.7813" r="1.127" gradientUnits="userSpaceOnUse">
		<stop offset="0.55" style="stop-color:#0000C8" />
		<stop offset="1" style="stop-color:#00006E" />
	</radialGradient>
	<path fill="url(#SVGID_8_)" d="M70.453,45.654l0.902,0.451l0.225,0.677l-0.45,1.014l-0.677,0.113l-0.676-0.113l-0.451-1.014   l0.451-0.902L70.453,45.654z" />
	<radialGradient id="SVGID_9_" cx="73.8359" cy="46.7813" r="1.127" gradientUnits="userSpaceOnUse">
		<stop offset="0.55" style="stop-color:#0000C8" />
		<stop offset="1" style="stop-color:#00006E" />
	</radialGradient>
	<path fill="url(#SVGID_9_)" d="M73.835,45.654l0.901,0.451l0.227,0.677l-0.451,1.014l-0.677,0.113l-0.677-0.113l-0.45-1.014   l0.45-0.902L73.835,45.654z" />
	<radialGradient id="SVGID_10_" cx="56.25" cy="51.5156" r="1.127" gradientUnits="userSpaceOnUse">
		<stop offset="0.55" style="stop-color:#0000C8" />
		<stop offset="1" style="stop-color:#00006E" />
	</radialGradient>
	<path fill="url(#SVGID_10_)" d="M56.25,50.388l0.902,0.451l0.225,0.676l-0.451,0.902l-0.676,0.225l-0.902-0.451l-0.226-0.676   l0.451-0.902L56.25,50.388z" />
	<radialGradient id="SVGID_11_" cx="59.8574" cy="51.5156" r="1.127" gradientUnits="userSpaceOnUse">
		<stop offset="0.55" style="stop-color:#0000C8" />
		<stop offset="1" style="stop-color:#00006E" />
	</radialGradient>
	<path fill="url(#SVGID_11_)" d="M59.857,50.388l0.901,0.451l0.226,0.676l-0.451,0.902l-0.676,0.225l-0.902-0.451l-0.225-0.676   l0.45-0.902L59.857,50.388z" />
	<radialGradient id="SVGID_12_" cx="63.2383" cy="51.5156" r="1.1274" gradientUnits="userSpaceOnUse">
		<stop offset="0.55" style="stop-color:#0000C8" />
		<stop offset="1" style="stop-color:#00006E" />
	</radialGradient>
	<path fill="url(#SVGID_12_)" d="M63.238,50.388l0.902,0.451l0.226,0.676l-0.45,0.902l-0.678,0.225l-0.9-0.451l-0.227-0.676   l0.451-0.902L63.238,50.388z" />
	<radialGradient id="SVGID_13_" cx="66.8457" cy="51.5156" r="1.1274" gradientUnits="userSpaceOnUse">
		<stop offset="0.55" style="stop-color:#0000C8" />
		<stop offset="1" style="stop-color:#00006E" />
	</radialGradient>
	<path fill="url(#SVGID_13_)" d="M66.846,50.388l0.902,0.451l0.226,0.676l-0.451,0.902l-0.677,0.225l-0.901-0.451l-0.226-0.676   l0.451-0.902L66.846,50.388z" />
	<radialGradient id="SVGID_14_" cx="70.4531" cy="51.5156" r="1.127" gradientUnits="userSpaceOnUse">
		<stop offset="0.55" style="stop-color:#0000C8" />
		<stop offset="1" style="stop-color:#00006E" />
	</radialGradient>
	<path fill="url(#SVGID_14_)" d="M70.453,50.388l0.902,0.451l0.225,0.676l-0.45,0.902l-0.677,0.225l-0.901-0.451l-0.226-0.676   l0.451-0.902L70.453,50.388z" />
	<radialGradient id="SVGID_15_" cx="73.8359" cy="51.5156" r="1.127" gradientUnits="userSpaceOnUse">
		<stop offset="0.55" style="stop-color:#0000C8" />
		<stop offset="1" style="stop-color:#00006E" />
	</radialGradient>
	<path fill="url(#SVGID_15_)" d="M73.835,50.388l0.901,0.451l0.227,0.676l-0.451,0.902l-0.677,0.225l-1.015-0.451l-0.112-0.676   l0.45-0.902L73.835,50.388z" />
</g>
<g id="Group_Motor">
	<linearGradient id="SVGID_16_" gradientUnits="userSpaceOnUse" x1="11.1035" y1="61.4355" x2="11.1035" y2="42.0469">
		<stop offset="0" style="stop-color:#00007F" />
		<stop offset="0.5" style="stop-color:#0000FF" />
		<stop offset="1" style="stop-color:#00007F" />
	</linearGradient>
	<path fill="url(#SVGID_16_)" d="M0.563,60.533l-0.451-0.338L0,60.082V43.399v-0.226l0.113-0.226l1.24-0.563l1.353-0.226   l3.043-0.113h16.458L22.094,61.21l-1.24,0.226h-7.891L8.792,61.21L0.563,60.533z" />
	<path fill="none" stroke="#4C4C4C" stroke-width="0.25" d="M5.749,60.984V42.046" />
</g>
<g id="Group_Oval">
	<ellipse fill="#0000BF" stroke="#4C4C4C" stroke-width="0.25" cx="12.287" cy="52.417" rx="3.945" ry="4.96" />
	<radialGradient id="SVGID_17_" cx="12.2871" cy="51.5156" r="3.9453" gradientUnits="userSpaceOnUse">
		<stop offset="0.64" style="stop-color:#7F7FFF" />
		<stop offset="0.82" style="stop-color:#0000FF" />
		<stop offset="1" style="stop-color:#00007F" />
	</radialGradient>
	<circle fill="url(#SVGID_17_)" stroke="#4C4C4C" stroke-width="0.1" cx="12.287" cy="51.516" r="3.945" />
	<path fill="#CCCCCC" stroke="#4C4C4C" stroke-width="0.25" d="M11.611,52.192h1.127v1.578h-1.127V52.192z" />
</g>
<g id="Group_Axial">
	<path fill="#333333" stroke="#4C4C4C" stroke-width="0.25" d="M22.207,59.857h1.127V43.399h-1.127V59.857z" />
</g>
<g id="Group_Feeder">
	<linearGradient id="SVGID_18_" gradientUnits="userSpaceOnUse" x1="97.5068" y1="44.0967" x2="78.508" y2="-8.1021">
		<stop offset="0" style="stop-color:#0000E0" />
		<stop offset="0.21" style="stop-color:#0000E8" />
		<stop offset="0.34" style="stop-color:#0000FF" />
	</linearGradient>
	<path fill="url(#SVGID_18_)" stroke="#4C4C4C" stroke-width="0.25" d="M65.719,37.538L56.25,0h56.25l-9.356,37.538v4.509H65.719   V37.538z" />
	<path fill="#0000BF" d="M66.17,37.538h36.523v4.058H66.17V37.538z" />
</g>
<g id="Group_Support">
	<path fill="#0000BF" stroke="#4C4C4C" stroke-width="0.25" d="M25.814,60.984v2.254h3.382v47.12h-3.382v2.142h11.724v-2.142H33.93   v-47.12h3.607v-2.254H25.814z" />
	<path fill="#0000BF" stroke="#4C4C4C" stroke-width="0.25" d="M98.635,60.984v2.254h3.382v47.12h-3.382v2.142h11.724v-2.142h-3.607   v-47.12h3.607v-2.254H98.635z" />
</g>
</svg>