<svg version="1.1" xmlns="http://www.w3.org/2000/svg" xmlns:xlink="http://www.w3.org/1999/xlink" width="112px" height="112px" viewBox="0 0 112.5 112.5" enable-background="new 0 0 112.5 112.5" xml:space="preserve">
<g id="Group_Tray">
	<path fill="none" stroke="#4C4C4C" stroke-width="0.5" d="M0,70.341h60.984" />
	<path fill="none" stroke="#4C4C4C" stroke-width="0.5" d="M60.984,42.159H0" />
	<path fill="none" stroke="#4C4C4C" stroke-width="0.25" d="M0,56.25h86.799" />
	<path fill="none" stroke="#4C4C4C" stroke-width="0.5" d="M9.356,70.341l14.09-28.182" />
	<path fill="none" stroke="#4C4C4C" stroke-width="0.5" d="M25.814,70.341l14.091-28.182" />
	<path fill="none" stroke="#4C4C4C" stroke-width="0.5" d="M42.159,70.341L56.25,42.159" />
	<path fill="none" stroke="#4C4C4C" stroke-width="0.5" d="M0,56.25l6.989-14.091" />
	<path fill="none" stroke="#4C4C4C" stroke-width="0.5" d="M62.111,63.238l7.102-14.09" />
</g>
<g id="Group_Multifacet">
	<radialGradient id="SVGID_1_" cx="85.5586" cy="26.9414" r="26.9414" gradientUnits="userSpaceOnUse">
		<stop offset="0" style="stop-color:#E9E9E9" />
		<stop offset="0.68" style="stop-color:#D7D7D7" />
		<stop offset="1" style="stop-color:#B2B2B2" />
	</radialGradient>
	<path fill="url(#SVGID_1_)" stroke="#4C4C4C" stroke-width="0.25" d="M58.617,26.941l1.916-10.146l5.75-9.243l9.13-5.636L85.559,0   l10.146,1.917l9.243,5.636l5.637,9.243l1.916,10.146l-1.916,10.146l-5.637,9.13l-9.243,5.749l-10.146,1.917l-10.146-1.917   l-9.13-5.749l-5.75-9.13L58.617,26.941z" />
</g>
<g id="Group_Circle">
	<radialGradient id="SVGID_2_" cx="85.5586" cy="85.5586" r="26.9414" gradientUnits="userSpaceOnUse">
		<stop offset="0" style="stop-color:#E9E9E9" />
		<stop offset="0.68" style="stop-color:#D7D7D7" />
		<stop offset="1" style="stop-color:#B2B2B2" />
	</radialGradient>
	<circle fill="url(#SVGID_2_)" stroke="#4C4C4C" stroke-width="0.25" cx="85.559" cy="85.559" r="26.941" />
</g>
</svg>