<svg version="1.1" xmlns="http://www.w3.org/2000/svg" xmlns:xlink="http://www.w3.org/1999/xlink" width="98px" height="112px" viewBox="0 0 97.863 112.5" enable-background="new 0 0 97.863 112.5" xml:space="preserve">
<g id="Group_Hammermill">
	<radialGradient id="SVGID_1_" cx="48.9312" cy="56.25" r="52.7171" gradientUnits="userSpaceOnUse">
		<stop offset="0" style="stop-color:#D6D6D6" />
		<stop offset="0.44" style="stop-color:#C5C5C5" />
		<stop offset="1" style="stop-color:#C0C0C0" />
	</radialGradient>
	<path fill="url(#SVGID_1_)" stroke="#4C4C4C" stroke-width="0.25" d="M39.078,0l-9.685,26.689L0.001,48.761v29.504l19.482,14.64   V112.5h58.784V92.905l19.594-14.64V48.761L68.582,26.689L58.672,0H39.078z" />
</g>
<g id="Group_Core">
	<path fill="none" stroke="#4C4C4C" stroke-width="0.25" d="M19.483,92.905V34.122" />
	<path fill="none" stroke="#4C4C4C" stroke-width="0.25" d="M78.267,92.905V34.122" />
	<path fill="none" stroke="#4C4C4C" stroke-width="0.25" d="M46.51,24.437h4.954" />
	<path fill="none" stroke="#4C4C4C" stroke-width="0.25" d="M37.051,26.239l4.729-1.352" />
	<path fill="none" stroke="#4C4C4C" stroke-width="0.25" d="M28.492,30.518l4.279-2.478" />
	<path fill="none" stroke="#4C4C4C" stroke-width="0.25" d="M21.285,36.824l3.378-3.378" />
	<path fill="none" stroke="#4C4C4C" stroke-width="0.25" d="M15.879,44.707l2.478-4.054" />
	<path fill="none" stroke="#4C4C4C" stroke-width="0.25" d="M12.726,53.941l1.352-4.729" />
	<path fill="none" stroke="#4C4C4C" stroke-width="0.25" d="M12.276,63.4v-4.729" />
	<path fill="none" stroke="#4C4C4C" stroke-width="0.25" d="M14.078,72.86l-1.352-4.729" />
	<path fill="none" stroke="#4C4C4C" stroke-width="0.25" d="M18.357,81.419l-2.478-4.054" />
	<path fill="none" stroke="#4C4C4C" stroke-width="0.25" d="M24.663,88.626l-3.378-3.378" />
	<path fill="none" stroke="#4C4C4C" stroke-width="0.25" d="M32.546,94.031l-4.054-2.477" />
	<path fill="none" stroke="#4C4C4C" stroke-width="0.25" d="M41.78,97.185l-4.729-1.351" />
	<path fill="none" stroke="#4C4C4C" stroke-width="0.25" d="M51.24,97.86H46.51" />
	<path fill="none" stroke="#4C4C4C" stroke-width="0.25" d="M60.699,95.834l-4.729,1.351" />
	<path fill="none" stroke="#4C4C4C" stroke-width="0.25" d="M69.257,91.555l-4.054,2.477" />
	<path fill="none" stroke="#4C4C4C" stroke-width="0.25" d="M76.464,85.248l-3.378,3.604" />
	<path fill="none" stroke="#4C4C4C" stroke-width="0.25" d="M81.871,77.365l-2.478,4.279" />
	<path fill="none" stroke="#4C4C4C" stroke-width="0.25" d="M85.023,68.131l-1.351,4.729" />
	<path fill="none" stroke="#4C4C4C" stroke-width="0.25" d="M85.699,58.671v4.955" />
	<path fill="none" stroke="#4C4C4C" stroke-width="0.25" d="M83.672,49.212l1.351,4.729" />
	<path fill="none" stroke="#4C4C4C" stroke-width="0.25" d="M79.393,40.653l2.478,4.279" />
	<path fill="none" stroke="#4C4C4C" stroke-width="0.25" d="M73.086,33.446l3.604,3.378" />
	<path fill="none" stroke="#4C4C4C" stroke-width="0.25" d="M65.204,28.041l4.279,2.478" />
	<path fill="none" stroke="#4C4C4C" stroke-width="0.25" d="M55.97,24.887l4.729,1.352" />
</g>
</svg>