<svg version="1.1" xmlns="http://www.w3.org/2000/svg" xmlns:xlink="http://www.w3.org/1999/xlink" width="112px" height="110px" viewBox="0 0 112.5 110.469" enable-background="new 0 0 112.5 110.469" xml:space="preserve">
<g id="Group_Machine1">
	<path fill="#4C4C4C" stroke="#4C4C4C" stroke-width="0.25" d="M36.149,80.965v20.496h21.62V80.965H36.149z" />
	<path fill="#E5E5E5" d="M38.852,90.875l2.252,8.671l14.414-3.716l-2.478-8.783L38.852,90.875z" />
	<path d="M41.329,96.055l0.676,2.252l11.937-3.152l-0.45-2.252L41.329,96.055z" />
	<path fill="none" stroke="#FFFFFF" stroke-width="0.25" d="M40.203,101.236L37.05,89.074l16.441-4.505" />
</g>
<g id="Group_Machine2">
	<path fill="#FFFFFF" stroke="#4C4C4C" stroke-width="0.25" d="M11.15,10.923l19.819,29.279l2.928-1.802L14.078,9.121L11.15,10.923z   " />
	<path fill="#CCCCCC" stroke="#4C4C4C" stroke-width="0.25" d="M0.002,27.814l12.049,18.018l17.342-9.009L14.866,15.202   L0.002,27.814z" />
	<path fill="#E5E5E5" d="M5.069,27.139l8.783,13.288l7.658-5.18l-9.009-13.063L5.069,27.139z" />
	<path fill="#4C4C4C" d="M10.925,26.013l6.531,9.459l1.802-1.351l-6.418-9.459L10.925,26.013z" />
</g>
<g id="Group_Switch">
	<path fill="#7F7F7F" stroke="#4C4C4C" stroke-width="0.25" d="M3.042,70.606v30.855h11.486V70.606H3.042z" />
	<path d="M10.587,93.353l-2.928,2.928l2.928,2.928l2.59-2.928L10.587,93.353z" />
</g>
<g id="Group_Feeder">
	<linearGradient id="SVGID_1_" gradientUnits="userSpaceOnUse" x1="7.6592" y1="28.4341" x2="89.752" y2="28.4341">
		<stop offset="0" style="stop-color:#A6A6A6" />
		<stop offset="0.5" style="stop-color:#F7F7F7" />
		<stop offset="1" style="stop-color:#A6A6A6" />
	</linearGradient>
	<path fill="url(#SVGID_1_)" stroke="#4C4C4C" stroke-width="0.1" d="M53.266,55.742L87.499,3.378h2.253V1.126H7.659v2.252h2.14   l34.233,52.363" />
</g>
<g id="Group_Stand">
	<path fill="none" stroke="#B2B2B2" stroke-width="0.25" d="M9.799,3.378h77.7" />
	<path fill="#B2B2B2" stroke="#4C4C4C" stroke-width="0.25" d="M84.121,3.378v105.966h3.378V3.378H84.121z" />
	<path fill="#B2B2B2" stroke="#4C4C4C" stroke-width="0.25" d="M9.799,3.378v105.966h3.378V3.378H9.799z" />
	<path fill="#999999" stroke="#4C4C4C" stroke-width="0.25" d="M83.896,101.461H13.177v1.125h70.719V101.461z" />
	<path fill="#7F7F7F" stroke="#4C4C4C" stroke-width="0.25" d="M87.499,109.344h-6.981v1.125h6.981V109.344z" />
	<path fill="#7F7F7F" stroke="#4C4C4C" stroke-width="0.25" d="M16.78,109.344H9.799v1.125h6.981V109.344z" />
</g>
<g id="Group_Bolt">
	<path fill="#333333" d="M10.925,1.126V0h1.126v1.126H10.925z" />
	<path fill="#333333" d="M85.021,1.126V0h1.352v1.126H85.021z" />
	<path fill="#333333" d="M47.41,1.126V0h1.126v1.126H47.41z" />
	<path fill="#333333" d="M47.41,4.617V3.378h1.126v1.239H47.41z" />
</g>
<g id="Group_Outlet">
	<linearGradient id="SVGID_2_" gradientUnits="userSpaceOnUse" x1="44.0317" y1="60.3579" x2="53.2656" y2="60.3579">
		<stop offset="0" style="stop-color:#BBBBBB" />
		<stop offset="0.5" style="stop-color:#F7F7F7" />
		<stop offset="1" style="stop-color:#BEBEBE" />
	</linearGradient>
	<path fill="url(#SVGID_2_)" stroke="#4C4C4C" stroke-width="0.1" d="M44.032,55.742v9.233h9.234v-9.233" />
	<linearGradient id="SVGID_3_" gradientUnits="userSpaceOnUse" x1="44.0317" y1="71.8442" x2="53.2656" y2="71.8442">
		<stop offset="0" style="stop-color:#737373" />
		<stop offset="0.5" style="stop-color:#E0E0E0" />
		<stop offset="0.99" style="stop-color:#737373" />
	</linearGradient>
	<path fill="url(#SVGID_3_)" d="M44.032,64.975v13.738h9.234V64.975H44.032z" />
	<path fill="#7F7F7F" stroke="#4C4C4C" stroke-width="0.25" d="M42.906,67.227v4.505h1.126v-4.505H42.906z" />
	<path fill="none" stroke="#B2B2B2" stroke-width="0.25" d="M44.032,55.742h9.234" />
</g>
<g id="Group_Tray">
	<path fill="#B2B2B2" stroke="#4C4C4C" stroke-width="0.25" d="M44.032,73.985v9.233l68.466,2.252v-5.63L44.032,73.985z" />
	<path fill="#E5E5E5" stroke="#4C4C4C" stroke-width="0.25" d="M44.032,73.985v1.125l68.466,5.855V79.84L44.032,73.985z" />
	<path fill="#E5E5E5" d="M47.635,76.237l-2.477,2.477l2.477,2.479l2.252-2.479L47.635,76.237z" />
	<path fill="#999999" d="M103.264,80.965v4.505h2.479v-4.505H103.264z" />
	<path fill="none" stroke="#4C4C4C" stroke-width="0.25" d="M103.264,85.47h2.479v-4.505" />
	<path fill="none" stroke="#FFFFFF" stroke-width="0.25" d="M105.742,80.965h-2.479v4.505" />
</g>
</svg>