<svg version="1.1" xmlns="http://www.w3.org/2000/svg" xmlns:xlink="http://www.w3.org/1999/xlink" width="112px" height="91px" viewBox="0 0 112.5 91.439" enable-background="new 0 0 112.5 91.439" xml:space="preserve">
<g id="Group_Rear_Stand">
	<path fill="#B2B2B2" stroke="#4C4C4C" stroke-width="0.25" d="M0.001,28.153l9.459-6.981h93.468l9.571,6.981v-2.478l-9.571-6.981   H9.46l-9.459,6.981V28.153z" />
	<path fill="#B2B2B2" stroke="#4C4C4C" stroke-width="0.25" d="M0.001,46.846l9.459-6.981h93.468l9.571,6.981v-2.252l-9.571-7.207   H9.46l-9.459,7.207V46.846z" />
	<path fill="#B2B2B2" stroke="#4C4C4C" stroke-width="0.25" d="M0.001,65.539l9.459-6.981h93.468l9.571,6.981v-2.252l-9.571-6.981   H9.46l-9.459,6.981V65.539z" />
	<path fill="#B2B2B2" stroke="#4C4C4C" stroke-width="0.25" d="M0.001,84.233l9.459-6.981h93.468l9.571,6.981v-2.252l-9.571-6.981   H9.46l-9.459,6.981V84.233z" />
	<path fill="#B2B2B2" stroke="#4C4C4C" stroke-width="0.25" d="M0.001,9.459L9.46,2.14h93.468l9.571,7.319v-2.59L102.928,0H9.46   L0.001,6.869V9.459z" />
</g>
<g id="Group_Rear_Mesh">
	<path fill="none" stroke="#4C4C4C" stroke-width="0.25" d="M9.46,2.14v72.859" />
	<path fill="none" stroke="#4C4C4C" stroke-width="0.25" d="M102.928,2.14v72.859" />
	<path fill="none" stroke="#4C4C4C" stroke-width="0.25" d="M13.401,2.14v72.859" />
	<path fill="none" stroke="#4C4C4C" stroke-width="0.25" d="M17.23,2.14v72.859" />
	<path fill="none" stroke="#4C4C4C" stroke-width="0.25" d="M21.172,2.14v72.859" />
	<path fill="none" stroke="#4C4C4C" stroke-width="0.25" d="M25.113,2.14v72.859" />
	<path fill="none" stroke="#4C4C4C" stroke-width="0.25" d="M28.942,2.14v72.859" />
	<path fill="none" stroke="#4C4C4C" stroke-width="0.25" d="M32.883,2.14v72.859" />
	<path fill="none" stroke="#4C4C4C" stroke-width="0.25" d="M36.825,2.14v72.859" />
	<path fill="none" stroke="#4C4C4C" stroke-width="0.25" d="M40.766,2.14v72.859" />
	<path fill="none" stroke="#4C4C4C" stroke-width="0.25" d="M44.595,2.14v72.859" />
	<path fill="none" stroke="#4C4C4C" stroke-width="0.25" d="M48.536,2.14v72.859" />
	<path fill="none" stroke="#4C4C4C" stroke-width="0.25" d="M52.478,2.14v72.859" />
	<path fill="none" stroke="#4C4C4C" stroke-width="0.25" d="M56.306,2.14v72.859" />
	<path fill="none" stroke="#4C4C4C" stroke-width="0.25" d="M60.248,2.14v72.859" />
	<path fill="none" stroke="#4C4C4C" stroke-width="0.25" d="M64.189,2.14v72.859" />
	<path fill="none" stroke="#4C4C4C" stroke-width="0.25" d="M68.018,2.14v72.859" />
	<path fill="none" stroke="#4C4C4C" stroke-width="0.25" d="M71.959,2.14v72.859" />
	<path fill="none" stroke="#4C4C4C" stroke-width="0.25" d="M75.9,2.14v72.859" />
	<path fill="none" stroke="#4C4C4C" stroke-width="0.25" d="M79.729,2.14v72.859" />
	<path fill="none" stroke="#4C4C4C" stroke-width="0.25" d="M83.671,2.14v72.859" />
	<path fill="none" stroke="#4C4C4C" stroke-width="0.25" d="M87.612,2.14v72.859" />
	<path fill="none" stroke="#4C4C4C" stroke-width="0.25" d="M91.441,2.14v72.859" />
	<path fill="none" stroke="#4C4C4C" stroke-width="0.25" d="M95.383,2.14v72.859" />
	<path fill="none" stroke="#4C4C4C" stroke-width="0.25" d="M99.324,2.14v72.859" />
</g>
<g id="Group_Platform">
	<path fill="#CCCCCC" stroke="#4C4C4C" stroke-width="0.25" d="M0.001,84.233l9.459-6.981h93.468l9.571,6.981H0.001z" />
</g>
<g id="Group_Front_Mesh">
	<path fill="none" stroke="#4C4C4C" stroke-width="0.25" d="M0.001,9.459v72.521" />
	<path fill="none" stroke="#4C4C4C" stroke-width="0.25" d="M112.499,9.459v72.521" />
	<path fill="none" stroke="#4C4C4C" stroke-width="0.25" d="M4.73,9.459v72.521" />
	<path fill="none" stroke="#4C4C4C" stroke-width="0.25" d="M9.46,9.459v72.521" />
	<path fill="none" stroke="#4C4C4C" stroke-width="0.25" d="M13.852,9.459v72.521" />
	<path fill="none" stroke="#4C4C4C" stroke-width="0.25" d="M18.694,9.459v72.521" />
	<path fill="none" stroke="#4C4C4C" stroke-width="0.25" d="M23.424,9.459v72.521" />
	<path fill="none" stroke="#4C4C4C" stroke-width="0.25" d="M28.154,9.459v72.521" />
	<path fill="none" stroke="#4C4C4C" stroke-width="0.25" d="M32.883,9.459v72.521" />
	<path fill="none" stroke="#4C4C4C" stroke-width="0.25" d="M37.388,9.459v72.521" />
	<path fill="none" stroke="#4C4C4C" stroke-width="0.25" d="M42.117,9.459v72.521" />
	<path fill="none" stroke="#4C4C4C" stroke-width="0.25" d="M46.847,9.459v72.521" />
	<path fill="none" stroke="#4C4C4C" stroke-width="0.25" d="M51.577,9.459v72.521" />
	<path fill="none" stroke="#4C4C4C" stroke-width="0.25" d="M56.306,9.459v72.521" />
	<path fill="none" stroke="#4C4C4C" stroke-width="0.25" d="M60.811,9.459v72.521" />
	<path fill="none" stroke="#4C4C4C" stroke-width="0.25" d="M65.541,9.459v72.521" />
	<path fill="none" stroke="#4C4C4C" stroke-width="0.25" d="M70.27,9.459v72.521" />
	<path fill="none" stroke="#4C4C4C" stroke-width="0.25" d="M75,9.459v72.521" />
	<path fill="none" stroke="#4C4C4C" stroke-width="0.25" d="M79.729,9.459v72.521" />
	<path fill="none" stroke="#4C4C4C" stroke-width="0.25" d="M84.234,9.459v72.521" />
	<path fill="none" stroke="#4C4C4C" stroke-width="0.25" d="M88.963,9.459v72.521" />
	<path fill="none" stroke="#4C4C4C" stroke-width="0.25" d="M93.693,9.459v72.521" />
	<path fill="none" stroke="#4C4C4C" stroke-width="0.25" d="M98.535,9.459v72.521" />
	<path fill="none" stroke="#4C4C4C" stroke-width="0.25" d="M102.928,9.459v72.521" />
	<path fill="none" stroke="#4C4C4C" stroke-width="0.25" d="M107.656,9.459v72.521" />
</g>
<g id="Group_Front_Stand">
	<path fill="#7F7F7F" stroke="#4C4C4C" stroke-width="0.25" d="M0.001,6.869h112.498v2.59H0.001V6.869z" />
	<path fill="#7F7F7F" stroke="#4C4C4C" stroke-width="0.25" d="M0.001,25.675h112.498v2.478H0.001V25.675z" />
	<path fill="#7F7F7F" stroke="#4C4C4C" stroke-width="0.25" d="M0.001,44.594h112.498v2.252H0.001V44.594z" />
	<path fill="#7F7F7F" stroke="#4C4C4C" stroke-width="0.25" d="M0.001,63.287h112.498v2.252H0.001V63.287z" />
</g>
<g id="Group_Side_Mesh">
	<path fill="none" stroke="#7F7F7F" stroke-width="0.25" d="M9.46,3.04V75.9" />
	<path fill="none" stroke="#7F7F7F" stroke-width="0.25" d="M8.334,3.604v72.859" />
	<path fill="none" stroke="#7F7F7F" stroke-width="0.25" d="M7.546,4.166v72.859" />
	<path fill="none" stroke="#7F7F7F" stroke-width="0.25" d="M6.645,4.73v72.859" />
	<path fill="none" stroke="#7F7F7F" stroke-width="0.25" d="M5.856,5.293v72.746" />
	<path fill="none" stroke="#7F7F7F" stroke-width="0.25" d="M4.956,5.856v72.859" />
	<path fill="none" stroke="#7F7F7F" stroke-width="0.25" d="M4.167,6.306v72.859" />
	<path fill="none" stroke="#7F7F7F" stroke-width="0.25" d="M3.267,6.869v72.859" />
	<path fill="none" stroke="#7F7F7F" stroke-width="0.25" d="M2.479,7.545v72.746" />
	<path fill="none" stroke="#7F7F7F" stroke-width="0.25" d="M1.578,8.333v72.521" />
	<path fill="none" stroke="#7F7F7F" stroke-width="0.25" d="M0.789,8.897v72.521" />
	<path fill="none" stroke="#7F7F7F" stroke-width="0.25" d="M0.001,9.459v72.521" />
	<path fill="none" stroke="#7F7F7F" stroke-width="0.25" d="M102.928,3.04V75.9" />
	<path fill="none" stroke="#7F7F7F" stroke-width="0.25" d="M104.053,3.604v72.859" />
	<path fill="none" stroke="#7F7F7F" stroke-width="0.25" d="M104.842,4.166v72.859" />
	<path fill="none" stroke="#7F7F7F" stroke-width="0.25" d="M105.742,4.73v72.859" />
	<path fill="none" stroke="#7F7F7F" stroke-width="0.25" d="M106.531,5.293v72.746" />
	<path fill="none" stroke="#7F7F7F" stroke-width="0.25" d="M107.432,5.856v72.859" />
	<path fill="none" stroke="#7F7F7F" stroke-width="0.25" d="M108.22,6.306v72.859" />
	<path fill="none" stroke="#7F7F7F" stroke-width="0.25" d="M109.121,6.869v72.859" />
	<path fill="none" stroke="#7F7F7F" stroke-width="0.25" d="M109.909,7.545v72.746" />
	<path fill="none" stroke="#7F7F7F" stroke-width="0.25" d="M110.811,8.333v72.521" />
	<path fill="none" stroke="#7F7F7F" stroke-width="0.25" d="M111.598,8.897v72.521" />
	<path fill="none" stroke="#7F7F7F" stroke-width="0.25" d="M112.499,9.459v72.521" />
</g>
<g id="Group_Bottom_Stand">
	<path fill="#7F7F7F" stroke="#4C4C4C" stroke-width="0.25" d="M0.001,81.981h112.498v2.252H0.001V81.981z" />
	<path fill="#999999" stroke="#4C4C4C" stroke-width="0.25" d="M0.001,84.233h11.711v2.478H0.001V84.233z" />
	<path fill="#999999" stroke="#4C4C4C" stroke-width="0.25" d="M112.499,84.233h-11.824v2.478h11.824V84.233z" />
	<path fill="#CCCCCC" stroke="#4C4C4C" stroke-width="0.25" d="M0.001,86.71h2.14v4.729h-2.14V86.71z" />
	<path fill="#CCCCCC" stroke="#4C4C4C" stroke-width="0.25" d="M112.499,86.71h-2.252v4.729h2.252V86.71z" />
	<path stroke="#4C4C4C" stroke-width="0.25" d="M11.712,84.233h88.962v1.352H11.712V84.233z" />
</g>
</svg>