<!DOCTYPE svg PUBLIC "-//W3C//DTD SVG 20000303 Stylable//EN" "http://www.w3.org/TR/2000/03/WD-SVG-20000303/DTD/svg-20000303-stylable.dtd"[]><svg xmlns="http://www.w3.org/2000/svg" width="998px" height="978px" viewBox="0 0 999 977"><path style="fill:#00f;fill-rule:evenodd" d="M793,195 l-3,-6 -2,-4 -1,-4 -1,-3 -1,-3 0,-3 -1,-2 0,-3 0,-3 -1,-3 -1,-3 -1,-5 -2,-5 -3,-6 -3,-8 -3,-8 -2,-6 0,-7 2,-6 1,-7 2,-7 3,-8 4,-8 3,-7 4,-9 4,-8 4,-8 3,-9 4,-9 3,-9 2,-9 2,-9 1,6 1,7 2,6 1,7 1,7 1,6 2,7 1,6 1,7 1,7 1,6 1,7 1,7 0,7 1,7 0,7 -2,10 -1,8 -2,8 -2,7 -2,6 -2,6 -2,5 -2,4 -2,4 -2,4 -2,4 -3,3 -2,5 -2,4 -2,5 -2,5z M618,499 l2,-7 3,-6 1,-6 1,-4 1,-4 0,-3 1,-4 0,-3 0,-4 1,-4 1,-5 2,-6 2,-7 2,-8 4,-10 4,-12 1,-8 0,-8 -1,-9 -2,-9 -2,-10 -4,-9 -3,-11 -4,-10 -4,-11 -4,-11 -4,-12 -4,-11 -3,-12 -4,-12 -2,-12 -2,-13 -1,9 -2,9 -1,9 -1,9 -2,8 -1,9 -1,9 -2,8 -1,9 -1,9 -1,9 -1,9 -1,9 -1,9 0,10 0,9 2,13 1,12 2,11 2,9 2,8 2,7 3,7 2,6 2,5 2,5 3,5 2,6 2,5 2,6 3,6 2,7z M0,673 l0,19 0,18 0,17 1,15 0,15 1,13 1,12 1,11 1,10 1,9 2,8 2,8 2,6 2,7 2,5 3,6 2,5 3,4 3,5 3,4 4,4 3,4 4,4 4,4 5,5 4,5 5,5 5,5 5,6 6,6 5,8 6,7 10,4 10,4 9,3 10,3 8,4 9,2 8,3 8,2 9,3 8,1 7,2 8,2 8,2 8,1 8,1 8,1 9,1 8,1 8,1 9,0 9,1 9,0 10,1 10,0 11,0 10,0 11,1 12,0 12,0 13,0 14,0 13,0 10,-2 10,-2 10,-1 9,-2 8,-1 9,0 8,-1 8,0 8,-1 8,0 8,0 7,0 7,0 7,1 7,0 7,1 7,0 6,1 7,0 6,1 7,1 7,0 6,1 7,0 6,1 7,1 7,0 7,1 7,0 7,0 7,1 7,0 8,-2 7,-1 8,-2 7,-1 8,-1 7,-2 8,-1 7,-1 8,-2 7,-1 7,-1 8,-2 7,-1 8,-2 7,-1 8,-1 7,-2 8,-1 7,-1 8,-2 7,-1 7,-1 8,-2 7,-1 8,-1 7,-2 8,-1 7,-2 8,-1 7,-1 8,-1 7,-2 12,-5 11,-6 10,-7 9,-9 8,-10 8,-10 6,-11 7,-12 6,-13 5,-13 5,-13 5,-13 4,-13 5,-13 4,-13 4,-13 2,-11 1,-11 1,-11 1,-10 1,-9 0,-9 0,-9 0,-8 0,-8 0,-7 -1,-8 0,-7 -1,-8 0,-7 -1,-8 -1,-7 0,-8 0,-8 -1,-8 0,-9 0,-9 1,-9 0,-10 1,-11 1,-12 1,-12 2,-13 2,-14 2,-14 3,-16 4,-16 4,-18 -5,6 -5,8 -5,11 -5,13 -6,14 -6,14 -6,13 -6,13 -6,11 -6,10 -6,6 -6,3 -5,-1 -5,-6 -5,-11 -4,-17 -2,16 -3,15 -2,15 -2,14 -3,13 -3,13 -2,12 -3,12 -3,11 -3,10 -3,9 -3,9 -2,8 -4,8 -3,7 -3,7 -3,6 -3,5 -3,4 -3,4 -3,3 -3,3 -3,2 -2,1 -3,1 -3,0 -2,0 -3,-2 -3,-2 -2,-2 -2,-3 -2,-4 -6,-16 -4,-15 -4,-15 -3,-14 -2,-14 -2,-13 0,-12 0,-12 0,-12 1,-11 1,-10 2,-10 1,-10 3,-9 2,-9 3,-8 2,-8 3,-7 2,-8 3,-7 2,-6 2,-6 2,-6 1,-6 1,-5 0,-6 0,-5 -1,-5 -1,-4 -2,-5 -3,-4 -3,-4 -4,-12 -5,-10 -5,-9 -6,-9 -5,-8 -5,-8 -6,-9 -5,-8 -5,-10 -4,-11 -4,-12 -4,-13 -3,-16 -2,-18 -2,-20 0,-23 -2,5 -1,6 -1,7 0,8 -1,8 -1,8 0,9 -1,10 -1,9 0,10 -1,10 0,9 0,10 -1,9 -1,9 0,9 -1,8 -1,8 -1,7 -1,6 -1,6 -1,4 -2,4 -2,3 -1,1 -3,0 -2,-1 -3,-3 -3,-4 -3,-6 -4,-7 -4,-10 -2,-5 -3,-5 -3,-6 -2,-5 -3,-6 -3,-5 -3,-5 -3,-6 -5,12 -6,13 -4,14 -4,13 -4,14 -3,14 -3,14 -3,14 -2,15 -1,14 -2,14 -1,14 -2,14 -1,13 -1,13 -1,12 -1,12 -1,11 -1,11 -1,10 -2,10 -1,8 -2,8 -2,6 -3,6 -3,4 -3,3 -4,3 -4,1 -4,-1 -6,-2 -5,-3 -12,-16 -8,-15 -7,-15 -6,-14 -4,-14 -2,-14 -1,-13 -1,-13 0,-13 0,-12 0,-13 1,-13 0,-13 -1,-12 -1,-14 -2,-13 -4,3 -4,4 -4,7 -4,8 -4,8 -5,8 -3,9 -5,7 -4,6 -4,4 -4,2 -3,-1 -5,-5 -4,-8 -4,-13 -4,-18 -1,-10 0,-10 -1,-10 -1,-10 0,-10 -1,-11 -1,-10 0,-10 -1,-10 -1,-10 0,-10 -1,-11 -1,-10 -1,-10 0,-10 -1,-10 0,-10 -1,-11 -1,-10 0,-10 -1,-10 -1,-10 0,-10 -1,-11 -1,-10 -1,-10 0,-10 -1,-11 -1,-10 0,-10 -1,-10 -1,-10 -2,4 -2,6 -1,7 -2,8 -2,9 -1,9 -2,10 -1,10 -1,10 -2,11 -1,11 -1,11 -2,11 -1,10 -2,10 -1,9 -2,9 -1,8 -2,7 -2,7 -2,5 -2,4 -2,2 -2,1 -3,-1 -3,-2 -2,-4 -3,-6 -4,-8 -3,-10 -4,-13 -4,-15 0,8 1,8 0,9 0,9 1,10 0,9 0,10 1,11 0,10 1,11 0,10 1,10 0,11 1,10 0,9 0,10 0,9 0,9 -1,8 -1,8 0,7 -1,6 -1,6 -2,5 -1,4 -3,3 -2,2 -2,2 -3,0 -3,-1 -4,-2 -4,-4 -6,-5 -6,-1 -5,1 -6,4 -4,4 -5,5 -4,5 -4,4 -5,1 -5,-1 -4,-4 -6,-9 -6,-13 -6,-19 -7,-26 -7,-33 -3,8 -3,9 -3,8 -2,8 -3,8 -3,8 -3,8 -2,8 -3,9 -3,8 -2,8 -3,8 -3,8 -3,8 -2,9 -3,8 4,15 2,12 0,9 0,7 -1,6 -2,3 -4,2 -3,0 -5,-1 -5,-2 -5,-3 -6,-4 -7,-4 -6,-4 -7,-5 -6,-4 -7,-4 -7,-3 -5,-3 -6,-1 -6,-1 -5,2 -4,3 -3,4 -3,7 -2,9 -1,11 0,14 1,17 3,20 4,23 5,27 -5,-8 -6,-6 -6,-4 -6,-3 -6,-2 -5,-2 -6,-2 -6,-3 -6,-4 -5,-7 -6,-9 -5,-12 -5,-16 -5,-20 -4,-24 -5,-30 -4,-8 -4,-9 -4,-8 -4,-8 -4,-8 -4,-8 -4,-8 -4,-9 -4,-8 -4,-8 -4,-8 -4,-8 -4,-8 -5,-8 -3,-9 -5,-8 2,22 2,20 1,18 1,17 1,16 0,14 0,13 0,12 0,11 -1,10 0,9 -1,8 -1,7 -1,7 -2,6 -1,6 -1,5 -2,5 -1,5 -2,4 -1,4 -2,4 -1,5 -2,5 -2,4 -1,5 -1,5 -2,6 -1,7 -1,7 -1,7 0,9z M304,390 l3,-7 2,-6 1,-5 2,-4 0,-4 1,-4 0,-3 1,-3 0,-4 1,-4 1,-5 1,-6 2,-7 3,-9 3,-10 4,-11 1,-8 0,-9 -1,-9 -1,-9 -3,-9 -3,-10 -4,-10 -3,-11 -4,-10 -4,-12 -4,-11 -4,-12 -4,-11 -3,-12 -2,-13 -2,-12 -1,9 -2,9 -1,9 -2,8 -1,9 -1,9 -2,9 -1,8 -2,9 -1,9 -1,9 -1,9 -1,9 0,9 -1,9 0,10 2,13 2,12 2,10 2,9 2,8 2,8 2,6 3,6 2,6 2,5 2,5 3,5 2,5 2,6 2,6 2,7z " /><path style="fill:#ababff" d="M22,742 l0,28 1,24 1,20 2,17 2,14 2,11 4,10 3,8 5,7 4,6 6,6 6,6 7,6 7,8 8,9 9,11 7,3 7,3 7,3 7,2 7,2 6,2 6,2 6,2 7,1 5,2 6,1 6,1 6,2 6,1 6,1 6,0 6,1 6,1 7,0 6,1 7,0 7,0 7,1 7,0 8,0 8,0 8,0 9,0 9,0 10,0 10,0 10,0 8,-1 8,-1 8,-1 9,-1 9,0 9,0 9,-1 10,0 9,1 10,0 10,0 10,1 10,0 10,1 10,1 10,1 9,1 10,1 10,1 10,1 9,1 9,1 9,0 9,1 8,1 8,1 8,1 8,0 7,1 6,0 7,0 5,0 6,-1 7,-1 6,-1 7,-1 8,-2 7,-1 8,-1 9,-1 8,-2 10,-1 8,-2 10,-1 9,-2 9,-2 10,-1 9,-2 10,-1 9,-1 9,-2 10,-2 9,-1 9,-2 9,-1 8,-1 9,-2 8,-1 7,-1 8,-2 7,-1 7,-1 6,-1 6,-1 8,-4 8,-4 8,-6 7,-6 6,-7 6,-8 5,-9 4,-9 5,-9 4,-9 3,-10 4,-10 3,-10 3,-10 4,-9 3,-9 1,-9 1,-8 1,-8 1,-8 0,-7 0,-6 1,-7 0,-5 -1,-6 0,-6 0,-5 -1,-6 0,-6 0,-5 -1,-5 -1,-6 0,-6 0,-6 0,-6 0,-6 0,-7 0,-7 0,-8 1,-8 1,-8 1,-9 1,-10 1,-10 2,-11 3,-12 2,-12 3,-13 -3,4 -4,6 -4,8 -4,10 -4,10 -5,11 -4,10 -5,10 -4,8 -5,6 -4,5 -4,2 -4,0 -4,-4 -4,-9 -3,-13 -3,24 -4,21 -3,19 -5,18 -4,16 -4,14 -5,11 -4,10 -5,8 -4,7 -4,4 -5,3 -4,0 -4,-1 -3,-3 -4,-5 -16,-12 -12,-12 -8,-13 -6,-13 -2,-14 0,-15 1,-14 2,-15 4,-14 3,-14 4,-13 2,-12 2,-11 0,-10 -2,-8 -5,-7 -3,-9 -3,-7 -4,-7 -3,-7 -4,-6 -4,-6 -3,-6 -4,-7 -3,-7 -3,-8 -2,-9 -3,-10 -2,-12 -1,-13 -1,-15 0,-17 -2,8 -1,11 -2,12 -1,14 0,14 -1,15 -1,14 0,13 -1,12 -2,10 -2,7 -2,5 -3,1 -4,-3 -5,-7 -5,-13 -3,-4 -2,-4 -3,-4 -3,-3 -3,-4 -2,-4 -3,-4 -2,-4 -4,10 -4,9 -5,10 -4,10 -4,10 -3,11 -4,10 -3,11 -4,10 -3,10 -4,11 -3,10 -3,10 -3,10 -4,9 -3,9 -3,9 -3,8 -3,8 -3,7 -4,7 -3,6 -3,6 -4,4 -4,5 -3,3 -4,2 -4,2 -4,0 -4,0 -4,-1 -5,-3 -8,-12 -7,-11 -5,-11 -4,-11 -3,-10 -2,-10 -1,-10 0,-9 0,-10 0,-9 0,-10 1,-9 0,-10 -1,-9 -1,-10 -1,-10 -4,2 -3,5 -4,8 -5,9 -4,10 -5,11 -5,10 -5,11 -5,9 -5,8 -5,5 -5,3 -4,0 -4,-4 -4,-8 -3,-12 -1,-8 0,-7 0,-7 -1,-8 0,-7 0,-7 0,-7 0,-7 0,-7 0,-7 1,-7 0,-7 0,-7 0,-7 0,-7 1,-7 0,-7 0,-7 0,-7 0,-7 1,-6 0,-7 0,-8 0,-7 0,-7 0,-7 0,-7 0,-7 -1,-8 0,-7 0,-7 -1,-8 -1,3 -2,5 -1,6 -2,6 -1,7 -2,8 -1,8 -2,9 -2,9 -1,9 -2,10 -2,10 -2,9 -1,9 -2,9 -2,9 -2,8 -2,7 -2,7 -2,6 -2,5 -3,5 -2,3 -2,2 -3,1 -2,-1 -3,-2 -2,-4 -3,-5 -3,-8 -3,-9 -3,-11 -5,9 -5,9 -3,10 -3,10 -2,10 -3,10 -1,8 -2,8 -2,5 -3,4 -3,2 -4,-1 -5,-5 -7,-8 -7,-12 -10,-16 -4,-3 -4,-1 -3,1 -3,2 -1,4 -2,4 -1,3 -1,3 -2,1 -2,-1 -1,-3 -3,-7 -3,-10 -3,-14 -5,-19 -5,-24 -3,6 -2,6 -3,6 -4,6 -3,6 -4,6 -4,6 -4,6 -4,6 -4,6 -4,6 -3,6 -4,7 -3,6 -3,6 -2,6 3,11 1,9 1,7 -1,6 -1,4 -2,2 -3,2 -3,0 -4,0 -4,-2 -5,-2 -5,-2 -5,-3 -5,-3 -6,-3 -5,-3 -6,-2 -5,-2 -5,-2 -5,0 -4,0 -5,1 -3,2 -4,4 -2,5 -2,7 -1,8 0,11 1,13 2,15 2,17 4,20 -4,-6 -5,-4 -5,-3 -6,-2 -6,-1 -6,-1 -7,-1 -6,-2 -7,-3 -5,-5 -6,-6 -6,-9 -5,-11 -5,-15 -4,-18 -3,-22 -3,-6 -4,-6 -2,-6 -3,-6 -4,-6 -3,-6 -2,-6 -4,-7 -3,-5 -3,-6 -3,-7 -2,-5 -4,-7 -3,-6 -2,-6 -4,-6 3,31 2,26 0,22 0,19 0,15 -1,13 -2,10 -2,9 -2,8 -2,7 -3,6 -2,7 -2,7 -2,8 -2,10 -1,12z" /><ellipse style="fill:#d9ffff" cx="794" cy="110" rx="13" ry="48" /><ellipse style="fill:#d9ffff" cx="616" cy="385" rx="15" ry="63" /><ellipse style="fill:#d9ffff" cx="302" cy="277" rx="14" ry="63" /><path style="fill:#d9ffff" d="M44,812 l0,18 1,16 1,12 1,12 1,8 2,8 3,5 2,6 4,4 3,3 4,4 4,4 5,4 4,5 6,6 6,7 9,4 9,3 9,3 8,2 8,2 7,2 8,1 8,1 8,1 9,1 8,0 10,1 10,0 12,0 12,0 13,0 5,-1 7,0 7,-1 8,0 9,0 10,0 11,1 10,0 12,1 12,0 12,1 12,1 13,1 13,2 13,1 13,1 13,1 13,1 13,2 12,1 12,1 12,2 11,1 11,1 10,1 10,1 9,1 8,0 7,1 6,0 6,1 4,0 4,-1 5,-1 6,-1 6,-1 8,-1 8,-1 9,-2 9,-1 10,-1 10,-2 11,-2 10,-1 11,-2 12,-2 11,-2 12,-1 11,-2 11,-1 12,-2 11,-2 11,-2 11,-1 10,-2 9,-1 10,-2 8,-1 8,-1 8,-1 7,-1 6,-1 4,-1 5,-1 6,-2 5,-3 5,-4 4,-4 4,-5 4,-5 3,-5 3,-6 3,-6 3,-6 2,-7 2,-6 3,-7 2,-6 2,-6 2,-7 2,-11 0,-10 1,-8 0,-9 0,-7 -1,-7 0,-8 -1,-7 0,-8 0,-8 0,-9 0,-10 1,-12 2,-12 3,-15 3,-17 -2,3 -2,4 -3,5 -2,7 -3,6 -3,7 -3,7 -3,6 -3,6 -3,4 -3,3 -2,1 -3,0 -3,-3 -2,-5 -2,-9 -2,16 -3,14 -2,12 -3,12 -2,10 -3,9 -3,8 -3,7 -3,5 -3,4 -3,3 -3,1 -2,1 -3,-1 -2,-2 -2,-3 -22,9 -18,4 -13,1 -10,-3 -6,-6 -4,-8 -2,-10 0,-12 2,-13 2,-13 3,-13 2,-13 2,-11 1,-10 0,-8 -3,-6 -2,-6 -2,-4 -2,-5 -2,-4 -2,-4 -2,-4 -2,-5 -2,-4 -1,-5 -2,-5 -1,-6 -1,-6 -1,-8 0,-9 -1,-9 0,-12 -1,6 -1,7 -1,8 0,9 -1,9 0,10 0,9 -1,8 -1,8 -1,7 -1,5 -2,3 -2,0 -2,-2 -3,-5 -4,-8 -1,-2 -3,-2 -3,-2 -2,-3 -3,-2 -3,-2 -2,-3 -2,-2 -6,12 -8,13 -8,14 -9,13 -10,13 -10,14 -11,12 -10,12 -11,10 -10,10 -11,8 -9,7 -9,4 -9,2 -7,0 -7,-2 -5,-8 -5,-7 -3,-7 -3,-7 -1,-7 -2,-7 0,-6 -1,-6 0,-7 0,-6 1,-6 0,-6 0,-6 0,-7 -1,-6 -1,-7 -3,3 -3,5 -4,9 -5,10 -5,11 -6,13 -6,13 -6,14 -6,12 -6,11 -5,10 -6,7 -5,4 -3,1 -4,-3 -2,-7 0,-11 1,-11 2,-11 3,-13 3,-12 4,-13 4,-14 5,-13 4,-13 4,-13 4,-13 4,-13 2,-13 2,-11 1,-11 0,-11 -2,5 -2,5 -2,5 -2,6 -2,5 -2,5 -2,5 -3,3 -3,2 -2,1 -3,-1 -3,-4 -3,-5 -4,-8 -3,-11 -4,-15 -12,3 -11,7 -10,10 -10,13 -9,14 -9,15 -8,15 -8,14 -8,13 -9,9 -8,6 -9,2 -9,-4 -11,-9 -10,-17 -12,-24 -3,-2 -3,-1 -3,1 -2,1 -3,3 -2,2 -2,2 -2,2 -2,1 -2,-1 -3,-2 -2,-4 -3,-6 -3,-10 -4,-12 -4,-16 -1,4 -1,4 -2,4 -1,4 -1,4 -1,4 -2,4 -1,3 -2,5 -1,3 -1,4 -1,4 -2,4 -1,4 -1,4 -2,4 2,14 -1,10 -4,7 -6,5 -8,3 -10,1 -10,1 -11,1 -10,2 -10,3 -10,5 -7,8 -5,11 -3,15 1,20 4,25 -3,-4 -4,-4 -4,-4 -4,-3 -5,-4 -4,-4 -5,-4 -5,-5 -5,-5 -5,-6 -5,-8 -4,-8 -4,-10 -3,-11 -3,-14 -3,-14 -2,-4 -2,-4 -2,-4 -2,-4 -2,-4 -2,-4 -2,-4 -2,-4 -2,-4 -1,-4 -3,-4 -1,-4 -2,-4 -2,-4 -2,-4 -2,-4 1,20 2,17 0,15 0,12 0,10 -1,9 -1,7 -1,6 -2,4 -1,5 -2,4 -2,4 -1,5 -1,5 -1,7 -1,8z" /><path style="fill:#f2ffff" d="M110,870 l0,10 1,9 0,8 1,6 1,6 1,4 2,3 1,3 2,3 2,2 2,2 3,2 2,2 3,3 3,4 4,4 7,2 8,2 11,3 12,2 13,2 14,2 15,1 15,2 16,2 15,1 15,1 14,1 13,1 12,1 11,0 9,0 4,-1 4,0 4,-1 6,0 6,-1 7,0 7,0 7,-1 8,0 9,-1 8,0 10,0 9,-1 9,0 9,-1 9,0 10,0 9,0 9,-1 9,0 9,0 8,0 8,0 8,0 7,-1 7,0 6,0 5,0 5,0 4,0 4,0 2,0 5,-1 8,-1 9,-1 10,-1 12,-1 12,-1 13,-1 14,-1 13,-1 13,-1 12,-1 12,-1 10,-1 9,-1 8,-1 5,-1 7,-2 8,-2 8,-3 8,-2 7,-3 6,-4 5,-5 3,-6 2,-6 2,-5 4,-3 3,-1 5,-1 4,0 5,0 6,1 5,0 5,0 5,-2 5,-2 5,-3 3,-5 4,-7 3,-10 -2,2 -3,1 -3,2 -4,2 -5,2 -5,2 -5,2 -6,1 -6,1 -5,0 -5,0 -5,-1 -4,-2 -3,-3 -3,-4 -2,-5 -1,9 -3,7 -3,5 -4,5 -5,3 -5,3 -6,1 -5,1 -6,0 -5,-1 -5,-1 -5,-2 -4,-2 -3,-2 -3,-2 -2,-2 -13,6 -11,5 -9,4 -7,4 -5,2 -4,2 -3,1 -2,0 -2,0 0,-1 -1,-1 0,-1 0,-2 -1,-2 -1,-2 -2,-3 -1,-3 -2,-3 -1,-2 -1,-3 -1,-2 -1,-3 -1,-2 -1,-3 -1,-2 -1,-4 0,-3 -1,-4 0,-4 -1,-5 0,-6 0,-6 -1,3 0,4 -1,4 0,6 0,5 0,6 -1,5 0,5 0,5 -1,4 -1,2 -1,2 -1,0 -2,-1 -1,-2 -3,-5 -1,-2 -1,-1 -1,-1 -2,-2 -2,-1 -1,-1 -2,-2 -1,-1 -3,6 -5,5 -6,4 -6,3 -7,2 -7,1 -7,1 -7,-1 -8,-1 -7,-1 -7,-2 -7,-2 -6,-3 -6,-2 -4,-2 -4,-3 -3,-4 -3,-5 -2,-4 -1,-4 -1,-4 -1,-4 -1,-4 0,-3 0,-4 0,-3 0,-4 1,-4 0,-3 -1,-4 0,-4 0,-4 -2,2 -2,4 -3,6 -4,7 -3,9 -4,10 -4,10 -5,9 -4,10 -5,8 -3,8 -4,6 -4,4 -2,2 -3,-1 -1,-4 -1,-7 -2,-7 -2,-9 -3,-10 -3,-10 -4,-11 -3,-11 -4,-11 -4,-12 -3,-11 -4,-11 -3,-10 -3,-10 -2,-8 -2,-8 -1,-7 -2,6 -3,7 -2,6 -3,4 -3,2 -3,-3 -4,-8 -4,-15 -4,1 -3,2 -2,4 -2,4 -1,5 -1,7 -1,7 0,7 0,9 0,8 0,9 1,10 0,9 1,10 1,9 1,10 1,9 1,8 1,9 0,7 1,7 0,6 0,6 0,4 0,3 -1,2 -1,1 -1,-1 -2,-2 -2,-4 -3,-5 -3,-7 -3,-3 -2,-3 -4,-3 -4,-5 -5,-5 -4,-6 -5,-6 -5,-7 -5,-7 -5,-8 -5,-8 -5,-9 -4,-9 -4,-10 -3,-10 -2,-10 -1,3 -2,4 -3,4 -2,6 -4,6 -3,6 -4,7 -3,7 -4,7 -3,7 -4,6 -3,7 -3,5 -2,5 -2,4 -1,3 1,7 -2,4 -4,0 -6,-3 -7,-4 -9,-5 -9,-7 -9,-6 -10,-6 -9,-5 -8,-4 -7,-1 -6,2 -3,5 -1,9 2,14 -1,-3 -3,-2 -2,-2 -2,-2 -3,-2 -3,-2 -3,-3 -3,-3 -3,-3 -2,-4 -3,-4 -3,-5 -2,-6 -2,-6 -2,-8 -1,-9 -2,-4 -3,-5 -2,-4 -2,-5 -2,-4 -3,-5 -2,-5 -2,-4 1,11 0,11 1,8 0,7 -1,6 0,5 -1,4 0,3 -1,3 -1,2 -1,3 -1,2 -1,3 -1,3 0,4 -1,5z" /></svg>