<!DOCTYPE svg PUBLIC "-//W3C//DTD SVG 20000303 Stylable//EN" "http://www.w3.org/TR/2000/03/WD-SVG-20000303/DTD/svg-20000303-stylable.dtd"[]><svg xmlns="http://www.w3.org/2000/svg" width="468px" height="999px" viewBox="0 0 437 999"><path style="fill:#00f" d="M176,999 l-19,-19 -17,-20 -17,-20 -16,-22 -15,-22 -15,-22 -14,-23 -12,-24 -11,-24 -10,-24 -9,-26 -8,-25 -5,-25 -5,-25 -3,-26 0,-26 2,-20 3,-20 4,-20 4,-20 6,-19 6,-20 7,-20 7,-19 8,-20 8,-19 9,-20 9,-19 9,-19 10,-19 10,-20 10,-19 10,-20 10,-19 10,-19 10,-19 11,-20 9,-19 11,-20 9,-19 9,-19 9,-20 9,-20 8,-19 8,-20 6,-20 7,-20 6,-20 1,13 1,12 0,12 1,12 0,11 1,11 0,10 -1,11 0,10 0,10 0,10 -1,10 0,10 0,10 0,10 0,11 0,11 1,12 1,12 0,12 2,13 1,13 1,15 2,15 2,16 3,16 3,18 3,18 4,20 4,21 5,22 5,23 19,19 16,21 16,20 15,22 13,22 13,22 11,22 10,21 8,21 7,20 6,18 4,18 2,15 1,13 -1,11 -3,9 6,25 1,24 -2,22 -4,22 -8,20 -10,19 -11,18 -13,17 -15,16 -15,15 -15,14 -15,14 -16,13 -15,12 -13,12 -12,12 -12,0 -12,0 -12,0 -13,0 -11,0 -13,0 -12,0 -12,0z" /><path style="fill:#69f" d="M181,999 l-17,-18 -16,-18 -16,-18 -15,-20 -13,-20 -14,-21 -12,-21 -12,-22 -10,-22 -9,-22 -9,-23 -7,-22 -5,-24 -4,-23 -2,-24 -1,-23 2,-19 3,-18 4,-19 4,-18 5,-18 6,-18 6,-18 6,-18 8,-18 7,-18 8,-18 9,-17 8,-18 9,-17 9,-19 9,-17 9,-18 10,-17 9,-18 9,-18 10,-17 8,-18 10,-18 9,-18 8,-18 8,-17 8,-19 8,-18 7,-18 6,-18 5,-19 6,-18 2,24 1,21 0,20 0,19 0,19 0,18 0,19 0,19 0,21 1,22 2,24 3,27 5,30 6,33 7,37 9,42 17,17 15,18 15,20 14,20 12,20 11,20 10,20 10,20 7,19 7,18 5,17 4,16 2,13 1,13 -2,10 -2,8 5,23 1,22 -1,20 -5,20 -7,19 -8,17 -11,16 -12,16 -13,15 -14,13 -14,13 -14,13 -14,12 -13,11 -12,11 -11,11 -11,0 -12,0 -11,0 -11,0 -12,0 -11,0 -11,0 -11,0z" /><path style="fill:#0cf" d="M186,999 l-15,-16 -15,-16 -14,-17 -13,-18 -14,-19 -11,-18 -12,-19 -10,-20 -10,-20 -8,-21 -7,-20 -7,-21 -5,-21 -3,-21 -2,-22 -1,-21 2,-17 2,-16 4,-17 4,-17 4,-16 5,-16 6,-16 6,-17 6,-16 7,-16 8,-17 7,-16 8,-16 8,-16 8,-16 9,-16 8,-16 9,-16 8,-16 9,-16 8,-16 8,-16 8,-17 8,-16 8,-16 7,-17 7,-16 7,-16 7,-16 6,-17 5,-17 5,-17 2,22 0,19 0,18 0,18 0,17 0,16 0,17 0,18 0,18 2,21 1,22 3,24 4,27 5,31 7,33 8,38 15,16 14,17 13,17 13,18 11,18 11,19 9,18 8,17 7,18 6,16 4,16 4,14 2,13 1,11 -1,9 -3,7 5,21 1,20 -1,18 -5,18 -5,17 -8,16 -10,14 -11,15 -12,13 -12,13 -14,12 -12,11 -13,11 -12,10 -11,10 -10,10 -10,0 -10,0 -11,0 -10,0 -10,0 -10,0 -10,0 -10,0z" /><path style="fill:#0ff" d="M201,978 l-10,-10 -10,-11 -9,-12 -9,-12 -9,-12 -8,-13 -7,-12 -7,-13 -7,-14 -5,-14 -5,-14 -5,-14 -3,-14 -2,-14 -1,-14 -1,-15 3,-22 4,-23 7,-22 8,-22 9,-22 10,-21 10,-22 12,-21 11,-21 11,-22 11,-22 12,-22 10,-22 9,-21 8,-23 7,-23 1,15 1,13 0,13 0,11 0,11 0,11 -1,12 1,12 0,12 1,14 1,15 2,16 2,18 4,21 4,23 6,25 10,10 10,12 8,11 8,12 8,12 8,13 6,12 5,12 5,12 4,11 3,10 2,10 1,8 0,8 0,6 -1,5 3,14 0,13 0,12 -3,12 -4,12 -6,10 -6,10 -8,10 -8,9 -8,8 -9,8 -8,8 -9,7 -8,7 -7,7 -7,6 -7,0 -7,0 -7,0 -6,0 -7,0 -7,0 -7,0 -7,0z" /><path style="fill:#9ff" d="M214,948 l-6,-6 -5,-6 -6,-7 -5,-8 -6,-6 -4,-8 -5,-8 -4,-8 -4,-8 -3,-8 -3,-8 -2,-9 -2,-8 -2,-9 -1,-8 0,-9 2,-13 3,-13 3,-13 5,-13 5,-14 7,-12 6,-13 6,-13 7,-13 7,-12 7,-14 6,-12 6,-13 5,-13 5,-14 5,-13 0,8 1,8 0,7 0,7 0,7 0,6 -1,7 1,7 0,8 1,8 0,9 2,10 1,10 2,13 3,13 3,15 12,13 10,14 9,15 7,14 5,14 3,12 1,10 -1,6 2,16 -2,15 -6,13 -8,12 -10,10 -10,9 -10,9 -9,7 -4,0 -4,0 -4,0 -4,0 -4,0 -4,0 -4,0 -5,0z" /><path style="fill:#fff" d="M224,928 l-6,-7 -7,-6 -5,-9 -4,-8 -4,-9 -3,-8 -2,-9 0,-9 1,-7 1,-8 2,-7 2,-7 4,-7 3,-6 3,-7 4,-7 3,-7 3,-6 4,-7 3,-7 4,-7 3,-7 2,-7 3,-7 0,9 0,7 0,7 0,7 0,9 2,9 1,13 4,15 6,7 5,7 5,9 4,7 2,7 2,6 0,5 -1,4 2,9 -2,7 -3,7 -4,7 -5,5 -5,5 -6,5 -4,3 -5,0 -3,0 -5,0 -4,0z" /></svg>