<!DOCTYPE svg PUBLIC "-//W3C//DTD SVG 20000303 Stylable//EN" "http://www.w3.org/TR/2000/03/WD-SVG-20000303/DTD/svg-20000303-stylable.dtd"[]><svg xmlns="http://www.w3.org/2000/svg" width="999px" height="665px" viewBox="0 0 999 645"><path style="fill:#0000bf" d="M0,625 l6,-7 6,-8 6,-9 6,-9 6,-9 6,-11 6,-10 6,-11 7,-12 6,-11 6,-12 7,-12 7,-12 7,-11 8,-12 7,-12 2,-4 2,-4 1,-4 1,-5 1,-4 0,-5 0,-5 0,-5 0,-5 0,-6 -1,-5 0,-6 -1,-6 0,-6 -1,-7 0,-6 -1,-7 0,-7 0,-8 0,-7 0,-8 0,-8 1,-9 0,-9 1,-9 2,-9 1,-10 2,-10 3,-10 2,-11 4,-11 3,-12 4,8 2,7 2,8 1,7 1,8 0,7 0,7 0,7 0,7 0,6 1,7 1,5 1,6 2,5 2,5 3,4 8,-1 7,-2 7,-5 7,-5 5,-7 5,-7 2,-7 1,-8 11,9 8,11 7,13 5,14 3,15 3,16 3,16 2,16 2,15 2,15 3,13 4,12 5,9 7,8 9,4 10,2 7,-2 6,-4 4,-8 4,-9 2,-12 2,-12 2,-14 1,-15 1,-15 0,-14 1,-14 1,-13 2,-12 2,-10 2,-8 3,-6 -3,-26 -3,-23 -2,-20 -2,-18 -1,-16 -1,-13 0,-11 0,-9 1,-8 1,-5 1,-4 1,-3 2,-2 2,0 3,1 2,2 3,2 3,3 2,3 3,4 3,4 3,4 3,4 3,3 3,4 2,2 3,2 3,2 2,0 2,-1 2,-1 1,-4 11,0 10,-1 10,-1 8,-1 8,-2 7,-3 6,-2 5,-3 5,-3 4,-4 3,-3 3,-4 2,-3 1,-4 1,-4 0,-4 0,-22 1,-19 1,-17 1,-15 2,-12 2,-11 3,-9 3,-7 3,-7 3,-5 4,-4 3,-4 4,-4 4,-3 4,-3 4,-3 0,7 1,8 1,7 1,7 1,7 2,7 1,7 2,6 3,7 2,7 2,6 3,7 2,6 3,7 2,7 3,6 2,7 2,7 2,7 3,8 1,7 2,8 2,8 1,9 1,8 1,9 0,10 0,9 0,11 -1,10 -1,11 -2,11 1,-2 2,1 3,2 2,5 3,5 3,5 3,4 3,4 2,2 2,0 1,-4 1,-7 0,-11 -1,-16 -2,-22 -3,-28 5,8 5,9 4,8 4,10 3,9 2,10 2,10 2,10 1,11 1,10 1,11 1,11 0,10 0,11 0,10 0,10 0,10 0,10 0,10 0,9 1,9 1,9 1,8 1,8 2,7 2,7 2,6 3,5 4,5 4,4 5,3 5,2 4,0 4,-2 4,-2 3,-3 3,-3 3,-4 3,-5 3,-5 3,-4 2,-6 2,-5 2,-5 2,-5 1,-5 2,-4 1,-4 0,-17 2,-14 2,-10 3,-8 3,-5 3,-4 4,-2 4,-2 4,-2 3,-3 4,-3 3,-6 3,-8 2,-10 1,-14 1,-18 2,9 3,10 4,11 3,12 4,13 3,13 4,14 3,15 3,15 3,15 3,14 2,15 2,14 1,14 1,14 1,12 3,2 4,-1 4,-5 4,-6 3,-9 4,-11 4,-12 4,-13 4,-14 4,-13 4,-14 4,-13 3,-11 5,-11 4,-9 4,-6 -3,-21 0,-16 1,-12 3,-9 4,-6 4,-5 6,-2 6,-2 5,-2 6,-3 5,-4 4,-6 3,-9 1,-12 -1,-16 -2,-21 2,4 3,4 4,5 3,6 4,6 3,6 4,6 3,5 3,5 3,4 3,3 2,1 2,0 1,-2 1,-4 1,-7 0,-11 0,-10 1,-8 1,-7 1,-6 1,-5 2,-4 1,-4 2,-4 2,-3 1,-3 2,-3 2,-3 1,-4 1,-4 2,-5 5,14 5,13 4,13 4,13 3,13 2,12 2,13 1,12 2,11 0,12 1,12 0,11 0,11 0,11 0,11 -1,11 0,10 -1,11 0,10 -1,11 0,10 0,10 0,10 0,10 1,10 1,10 1,10 1,10 2,10 3,9 3,10 4,10 3,-1 3,-4 2,-5 2,-7 2,-8 1,-9 1,-10 1,-11 1,-10 0,-11 0,-10 1,-10 0,-9 1,-8 1,-6 1,-5 3,2 4,4 3,4 3,6 2,6 2,7 2,7 2,8 2,9 1,9 1,10 1,10 1,10 1,11 0,11 1,10 0,11 1,11 0,10 1,11 0,10 1,9 0,10 1,8 0,9 1,7 1,7 1,7 1,5 1,5 2,3 2,3 -7,1 -8,0 -7,1 -7,0 -7,1 -7,0 -7,1 -7,1 -7,0 -8,1 -7,0 -7,1 -7,0 -7,1 -7,1 -7,0 -7,1 -8,0 -7,1 -7,1 -7,0 -7,1 -7,1 -7,0 -7,1 -8,1 -7,0 -7,1 -7,1 -7,1 -7,0 -7,1 -12,-1 -12,-2 -12,-1 -12,-2 -12,-1 -12,-1 -11,-2 -12,-1 -11,-1 -12,-1 -12,-1 -11,-1 -12,-2 -12,-1 -11,-1 -12,-1 -12,1 -12,1 -12,1 -12,2 -11,1 -12,1 -12,1 -12,1 -11,1 -12,2 -12,1 -11,1 -12,2 -12,1 -11,2 -12,1 -8,0 -8,0 -8,0 -7,0 -8,0 -8,0 -8,0 -7,0 -8,0 -8,0 -8,0 -8,0 -7,0 -8,0 -8,0 -8,0 -7,0 -8,0 -8,0 -8,0 -8,0 -7,0 -8,0 -8,0 -8,0 -8,0 -7,0 -8,0 -8,0 -8,0 -8,0 -8,0 -9,-1 -9,-2 -9,-1 -9,-2 -9,-1 -9,-1 -9,-2 -10,-1 -9,-1 -9,-1 -9,-1 -9,-1 -9,-2 -10,-1 -9,-1 -8,-1z" /><path style="fill:#ababff" d="M9,623 l6,-5 5,-5 6,-4 5,-5 6,-5 6,-5 6,-5 6,-5 6,-5 6,-6 6,-6 6,-7 6,-7 6,-7 6,-8 6,-9 3,-6 2,-6 2,-7 1,-6 1,-7 1,-8 1,-8 1,-9 2,-10 1,-10 2,-11 2,-13 3,-13 4,-15 5,-16 5,-17 3,6 2,6 1,6 1,6 1,6 0,5 0,6 0,5 0,5 0,5 1,5 0,4 1,4 2,4 2,4 2,3 7,0 7,1 7,0 6,0 6,-1 5,-2 3,-3 1,-5 9,6 6,8 6,7 4,9 4,8 3,9 3,9 2,8 3,8 2,8 4,6 3,6 5,5 5,4 7,2 8,1 6,-1 5,-2 5,-4 4,-5 3,-7 4,-7 3,-7 2,-8 3,-8 2,-8 3,-8 2,-8 2,-6 3,-6 2,-5 3,-4 -2,-20 -3,-18 -1,-16 -2,-15 0,-13 -1,-11 0,-10 1,-8 0,-7 1,-6 2,-5 1,-4 2,-3 2,-2 2,-1 3,-1 2,0 3,1 2,0 3,1 3,2 2,1 3,1 3,2 2,1 3,1 2,0 2,0 2,0 2,-1 2,-2 1,-3 6,13 6,11 7,10 6,8 7,6 7,5 7,4 6,3 6,1 6,1 5,0 4,-1 4,-2 3,-2 1,-2 1,-3 0,-17 0,-15 0,-13 -1,-12 0,-11 0,-9 0,-8 0,-7 0,-6 1,-5 1,-4 1,-4 1,-4 2,-3 2,-3 3,-3 1,11 1,10 3,7 4,7 4,5 5,6 4,4 5,5 5,6 4,6 3,7 3,8 2,10 1,11 -1,14 -2,17 1,-2 2,0 2,0 1,1 2,2 2,1 2,0 1,0 2,-2 0,-3 1,-6 0,-8 0,-11 -2,-14 -1,-18 -3,-22 8,13 7,13 5,13 4,13 2,14 3,14 1,13 2,13 2,12 1,12 3,11 3,10 3,8 5,7 7,6 8,4 6,2 7,6 6,7 6,7 5,6 4,3 3,-1 1,-8 1,-13 3,-10 4,-8 5,-5 7,-3 7,-2 8,-1 8,0 8,0 7,-1 8,-2 6,-3 6,-5 4,-8 3,-10 1,-13 2,6 3,7 4,6 5,7 4,8 6,7 5,8 5,8 6,8 5,8 4,9 4,9 4,8 2,9 2,9 1,9 3,2 3,-1 3,-3 3,-5 4,-6 3,-8 3,-8 4,-10 3,-10 3,-10 4,-9 3,-10 3,-9 3,-7 4,-7 3,-5 -2,-16 0,-13 1,-10 2,-7 3,-6 4,-4 4,-3 4,-3 5,-3 4,-3 4,-4 2,-6 2,-7 1,-10 0,-13 -2,-16 2,3 2,6 2,6 3,9 3,9 2,10 3,10 2,10 3,9 2,9 2,7 2,6 2,4 1,2 0,-2 1,-4 1,-15 3,-9 4,-5 5,-2 5,-1 5,-1 4,-3 3,-6 8,20 6,17 4,16 3,14 2,12 1,11 0,10 0,10 -1,9 0,9 0,10 0,9 2,11 2,11 4,13 5,14 2,-1 3,-2 2,-4 1,-4 1,-6 1,-6 1,-7 0,-7 1,-7 0,-8 1,-7 0,-7 0,-6 1,-6 1,-4 1,-4 5,4 5,7 3,8 3,10 2,12 2,12 1,14 1,13 0,13 1,14 1,12 0,11 2,11 1,8 2,7 3,4 -11,1 -12,1 -11,1 -12,1 -12,0 -11,1 -13,0 -12,1 -12,1 -12,0 -12,1 -12,0 -12,1 -11,1 -12,1 -11,1 -5,-1 -5,0 -6,-1 -6,0 -6,0 -7,-1 -7,0 -7,-1 -8,0 -8,0 -8,-1 -8,0 -8,0 -8,0 -9,-1 -8,0 -9,0 -8,-1 -8,0 -8,0 -9,0 -8,-1 -7,0 -8,0 -7,-1 -7,0 -7,-1 -6,0 -6,0 -6,-1 -5,0 -5,-1 -9,1 -10,1 -9,1 -10,1 -10,0 -10,1 -10,0 -10,1 -10,1 -10,0 -10,1 -10,0 -10,1 -9,1 -10,1 -9,1 -6,0 -7,0 -7,0 -7,0 -8,1 -8,0 -9,0 -8,1 -9,0 -10,0 -9,1 -9,0 -10,1 -9,0 -10,1 -10,0 -9,0 -10,1 -10,0 -9,1 -10,0 -9,1 -9,0 -9,0 -9,1 -8,0 -8,0 -8,1 -8,0 -7,0 -6,0 -7,0 -7,-1 -8,-1 -8,-2 -9,-1 -8,-2 -9,-1 -9,-2 -10,-1 -9,-1 -9,-2 -9,-1 -9,-2 -8,-1 -8,-2 -8,-1 -8,-1z" /><path style="fill:#d9ffff" d="M19,625 l4,-3 5,-2 5,-2 5,0 5,0 6,0 6,1 6,0 5,1 6,0 6,-1 6,-1 5,-2 5,-3 5,-4 4,-6 3,-4 2,-4 3,-3 2,-4 3,-4 3,-4 3,-4 4,-5 3,-5 3,-6 4,-7 4,-7 3,-9 4,-9 4,-11 4,-12 2,4 1,4 1,4 1,5 0,4 0,4 0,4 0,3 0,4 0,4 1,3 0,3 1,3 0,3 2,2 1,2 6,1 6,4 7,5 7,5 6,4 5,4 4,1 1,-2 6,4 5,3 5,3 4,2 3,2 4,2 3,1 2,1 3,1 3,0 3,1 4,0 4,0 4,0 5,0 6,0 5,0 4,0 4,-1 5,-1 4,-1 4,-1 5,-1 4,-1 4,-2 4,-1 4,-2 4,-2 3,-1 3,-2 3,-2 2,-2 -3,-27 -2,-24 0,-19 1,-16 2,-13 3,-11 3,-8 5,-6 4,-5 5,-3 5,-2 5,-2 4,-2 4,-2 2,-2 2,-4 1,26 3,23 4,20 6,17 6,15 7,12 8,10 8,8 7,7 8,5 7,3 6,2 5,1 4,0 3,-1 1,-2 0,-12 -1,-12 -2,-10 -2,-10 -2,-8 -2,-8 -3,-7 -2,-7 -3,-6 -2,-5 -2,-4 -1,-4 -1,-4 0,-2 1,-3 2,-2 1,7 1,4 3,2 3,-1 4,-1 4,-3 4,-3 5,-3 4,-3 4,-3 4,-1 3,0 2,2 1,5 0,7 -1,11 0,-2 1,-2 1,-2 0,-2 1,-2 1,-4 0,-3 1,-5 0,-6 0,-6 0,-8 0,-9 -1,-11 -1,-12 -1,-14 -2,-16 6,8 4,8 5,7 3,7 4,7 3,6 3,6 2,5 3,5 3,5 3,4 3,4 4,4 5,3 5,3 6,2 2,2 3,4 3,7 3,9 3,11 3,11 4,12 3,12 3,11 3,11 2,9 2,7 2,5 1,2 0,-2 -1,-5 1,-9 5,-7 6,-4 8,-3 10,-1 11,0 12,1 12,1 12,1 12,1 11,0 9,-1 9,-3 6,-4 4,-7 2,-9 2,4 4,3 4,2 6,2 7,2 7,1 7,1 8,1 7,2 7,2 7,2 6,2 5,3 3,4 3,5 1,6 2,1 2,0 2,-2 3,-3 2,-3 3,-5 3,-5 3,-5 3,-6 3,-6 3,-6 2,-6 3,-5 3,-5 2,-5 3,-3 -2,-11 0,-10 0,-7 1,-7 2,-5 3,-4 3,-4 3,-3 3,-4 2,-4 3,-4 2,-5 1,-7 1,-8 -1,-9 -1,-12 1,3 2,6 2,9 1,11 2,13 2,14 2,14 2,14 1,14 2,14 1,11 1,11 1,7 1,5 1,2 0,-2 1,-9 4,-3 6,1 7,4 7,5 7,4 5,1 3,-3 5,13 5,9 3,6 3,3 1,1 1,0 1,-2 0,-3 0,-3 0,-2 1,-2 0,-1 2,1 1,3 3,6 4,9 3,-1 2,-5 1,-5 1,-8 0,-7 1,-8 0,-7 2,-5 4,3 3,3 3,4 2,5 1,5 2,5 1,5 0,6 1,6 0,5 1,5 0,5 1,5 1,4 2,3 2,3 -8,0 -9,0 -9,0 -9,0 -10,0 -9,0 -10,0 -10,-1 -10,0 -10,0 -9,0 -10,0 -9,0 -8,0 -9,0 -7,1 -4,0 -5,-1 -5,0 -6,0 -7,0 -8,0 -8,0 -9,0 -10,0 -10,0 -10,0 -10,0 -11,0 -11,0 -11,0 -11,0 -11,0 -12,1 -10,0 -11,0 -10,0 -11,0 -10,0 -9,0 -9,0 -8,0 -8,0 -7,0 -6,0 -6,0 -4,0 -4,0 -7,0 -7,0 -7,0 -8,0 -8,0 -8,0 -9,0 -8,-1 -8,0 -9,0 -8,0 -8,0 -8,0 -7,0 -7,0 -7,1 -5,0 -5,0 -7,0 -7,1 -8,0 -8,1 -9,0 -10,1 -10,1 -10,1 -11,0 -11,1 -11,1 -11,1 -12,1 -11,1 -12,1 -11,1 -12,1 -11,1 -11,1 -11,0 -10,1 -10,1 -9,1 -9,0 -9,1 -7,0 -7,1 -7,0 -5,0 -5,0 -5,-1 -6,-1 -8,-1 -7,-2 -9,-1 -9,-2 -9,-1 -9,-2 -9,-1 -9,-2 -9,-1 -9,-2 -8,-1 -7,-1 -7,0 -6,-1z" /><path style="fill:#f2ffff" d="M69,631 l3,-2 3,-1 3,-1 3,0 3,0 4,0 4,0 4,1 4,0 4,0 4,0 4,-1 3,-2 4,-2 3,-2 3,-4 2,-4 2,-1 1,0 2,-1 2,-2 2,-4 4,-8 5,-14 3,4 3,2 2,0 2,-1 3,-1 2,0 3,0 2,2 4,1 4,2 5,4 4,3 5,3 3,2 2,1 1,-2 8,5 5,4 4,2 4,2 4,1 5,0 5,0 7,0 4,0 5,0 7,-1 8,0 9,-1 9,0 10,-1 10,-1 10,-1 10,-1 9,-1 8,-1 7,-2 6,-1 4,-2 2,-1 -2,-18 -1,-14 -1,-11 1,-9 1,-6 1,-4 2,-2 2,-1 3,0 2,1 3,2 2,1 2,1 2,0 2,0 1,-2 1,17 4,14 5,11 6,9 8,8 8,5 9,4 9,2 9,1 9,0 8,0 7,-2 6,-2 5,-1 3,-2 1,-2 1,-14 1,-9 3,-5 3,-3 4,0 3,-1 4,0 3,-2 0,5 1,2 2,2 2,0 3,-1 2,-2 3,-2 3,-2 3,-2 2,-2 3,-1 1,0 2,2 0,3 0,5 -1,7 1,-1 0,-2 1,-1 1,-2 0,-2 1,-2 0,-2 1,-4 0,-3 0,-5 -1,-5 0,-6 -1,-7 -1,-8 -1,-9 -1,-11 4,5 4,6 3,5 3,4 2,5 2,4 2,4 2,3 2,4 1,3 2,3 3,2 2,2 3,3 3,1 4,2 1,1 1,2 0,3 0,3 0,5 -1,4 0,5 -1,5 -2,4 -1,4 -1,3 -2,2 -1,1 -1,0 -1,-2 -1,-4 1,-6 3,-4 4,-3 5,-2 7,0 7,0 8,0 8,1 8,0 8,1 7,0 7,-1 5,-2 4,-3 3,-5 1,-6 2,2 4,2 5,1 6,0 7,0 7,-1 9,-1 8,-1 8,-1 8,-1 8,0 6,0 6,0 4,2 3,2 1,4 2,2 4,2 5,2 6,2 8,2 8,2 9,3 9,2 9,2 9,1 8,1 8,1 7,1 5,-1 4,0 3,-2 -1,-8 0,-7 0,-7 2,-6 1,-6 3,-6 2,-6 3,-5 2,-6 3,-5 2,-6 2,-7 1,-6 1,-7 0,-8 -1,-8 1,2 1,4 2,6 1,6 2,8 1,8 2,9 1,8 2,8 1,8 1,6 1,5 0,4 0,2 0,-1 0,-3 1,-6 2,-2 4,1 5,2 5,4 5,2 3,1 3,-2 4,8 4,7 4,4 4,2 4,1 4,0 4,-1 4,-2 4,-1 3,-2 4,-1 4,0 3,1 3,2 4,4 3,6 2,-1 1,-3 1,-3 0,-5 0,-5 1,-5 0,-4 1,-4 5,4 3,6 2,7 1,7 0,7 1,7 1,6 3,4 -7,0 -9,0 -12,0 -13,0 -15,0 -16,0 -16,0 -17,-1 -17,0 -17,0 -16,0 -15,0 -13,0 -11,0 -10,0 -6,1 -3,0 -3,-1 -5,0 -5,0 -5,0 -7,0 -7,0 -7,1 -8,0 -9,0 -8,0 -9,1 -10,0 -9,0 -9,1 -10,0 -10,1 -9,0 -10,1 -9,0 -9,0 -9,1 -8,0 -8,0 -8,1 -7,0 -6,0 -6,0 -5,0 -4,0 -3,0 -3,0 -4,0 -5,0 -5,1 -5,0 -6,-1 -5,0 -6,0 -6,0 -6,0 -6,0 -5,0 -6,-1 -5,0 -5,1 -5,0 -4,0 -3,0 -5,0 -6,0 -7,1 -7,0 -9,0 -9,1 -10,0 -11,1 -11,0 -12,1 -12,0 -13,1 -12,1 -13,0 -13,1 -13,1 -12,0 -13,1 -13,1 -12,0 -11,1 -12,0 -10,1 -10,0 -10,1 -8,0 -8,0 -7,1 -6,0 -4,0 -4,0 -3,0 -4,-1 -5,-1 -5,-1 -6,-1 -5,-1 -6,-1 -7,-1 -6,-1 -6,-1 -6,-1 -5,-1 -6,-1 -4,-1 -4,-1 -4,0z" /></svg>