<!DOCTYPE svg PUBLIC "-//W3C//DTD SVG 20000303 Stylable//EN" "http://www.w3.org/TR/2000/03/WD-SVG-20000303/DTD/svg-20000303-stylable.dtd"[]><svg xmlns="http://www.w3.org/2000/svg" width="273px" height="999px" viewBox="0 0 229 998"><path style="fill:#00f" d="M128,998 l6,-14 5,-13 4,-12 4,-12 3,-10 3,-9 2,-9 2,-8 2,-7 1,-8 1,-6 1,-6 0,-7 1,-6 1,-7 0,-7 1,-6 2,-8 1,-8 1,-8 2,-9 2,-10 2,-11 3,-12 4,-12 4,-15 5,-15 5,-17 6,-18 7,-19 8,-22 8,-23 3,-16 1,-15 0,-16 0,-17 -2,-17 -2,-17 -3,-17 -4,-18 -5,-18 -4,-18 -6,-19 -6,-19 -7,-19 -6,-20 -8,-20 -7,-20 -8,-21 -8,-20 -8,-22 -7,-21 -8,-21 -8,-23 -8,-21 -7,-23 -6,-23 -7,-22 -7,-23 -6,-24 -5,-23 -4,-24 -4,-23 -4,-24 -2,17 -2,17 -3,17 -2,17 -2,17 -3,17 -3,16 -2,17 -3,17 -2,17 -3,17 -3,16 -3,17 -2,17 -3,17 -2,17 -3,17 -2,17 -2,16 -3,17 -2,18 -2,17 -2,17 -1,17 -2,17 -1,18 -1,17 -1,18 -1,18 -1,17 0,18 0,18 3,27 3,24 3,24 3,22 4,20 4,20 4,18 3,17 4,16 4,15 4,14 4,14 4,13 5,12 4,11 4,11 4,11 5,10 4,10 4,10 4,10 5,10 4,9 5,11 4,10 5,10 4,11 4,11 4,12 4,12 4,13 4,13z" /><path style="fill:#ababff" d="M129,934 l8,-21 6,-17 4,-14 4,-12 2,-11 1,-10 1,-10 1,-10 2,-10 1,-12 3,-14 5,-17 5,-20 7,-23 10,-29 12,-33 2,-11 1,-12 0,-12 0,-12 -1,-12 -2,-13 -3,-13 -2,-13 -4,-14 -3,-13 -4,-14 -5,-14 -5,-14 -5,-15 -5,-15 -6,-15 -5,-15 -6,-16 -6,-15 -6,-16 -6,-16 -5,-16 -6,-17 -5,-16 -6,-17 -4,-17 -5,-17 -5,-17 -3,-18 -4,-17 -3,-18 -3,-18 -1,13 -2,13 -1,12 -2,13 -2,12 -2,13 -1,12 -2,13 -3,12 -2,13 -2,12 -2,13 -1,12 -2,13 -2,12 -2,12 -2,13 -2,13 -2,12 -1,13 -2,12 -1,13 -2,13 -1,13 -1,13 -1,13 -1,13 -1,12 0,14 -1,13 0,13 0,14 4,38 5,33 5,30 6,26 6,23 6,21 6,18 6,17 7,15 6,15 7,15 6,14 7,15 6,16 6,18 6,20z" /><path style="fill:#d9ffff" d="M122,870 l5,-13 3,-11 3,-8 2,-8 1,-6 1,-6 1,-6 1,-6 0,-6 2,-8 1,-8 3,-11 3,-12 5,-15 6,-17 7,-20 2,-14 0,-14 -2,-15 -3,-16 -5,-17 -5,-17 -6,-18 -7,-18 -6,-18 -8,-19 -7,-20 -7,-20 -6,-20 -5,-22 -5,-21 -3,-21 -2,15 -2,16 -2,14 -2,16 -3,15 -3,15 -2,15 -2,16 -2,15 -2,15 -2,16 -2,15 -1,16 -1,16 -1,16 0,16 3,23 3,21 3,18 3,15 4,15 4,12 3,11 4,11 4,9 4,9 4,9 4,9 4,9 3,10 5,11 3,12z" /></svg>