<!DOCTYPE svg PUBLIC "-//W3C//DTD SVG 20000303 Stylable//EN" "http://www.w3.org/TR/2000/03/WD-SVG-20000303/DTD/svg-20000303-stylable.dtd"[]><svg xmlns="http://www.w3.org/2000/svg" width="486px" height="999px" viewBox="0 0 455 999"><circle style="fill:#b2b2b2;stroke:#4c4c4c;stroke-width:2" cx="326" cy="532" r="41" /><circle style="fill:#d9d9d9" cx="326" cy="532" r="34" /><circle style="fill:#ededed" cx="331" cy="523" r="22" /><circle style="fill:#fff" cx="337" cy="518" r="12" /><circle style="fill:#b2b2b2;stroke:#4c4c4c;stroke-width:2" cx="41" cy="670" r="41" /><ellipse style="fill:#d9d9d9" cx="40" cy="669" rx="34" ry="36" /><circle style="fill:#ededed" cx="47" cy="661" r="21" /><circle style="fill:#fff" cx="52" cy="656" r="11" /><circle style="fill:#b2b2b2;stroke:#4c4c4c;stroke-width:2" cx="415" cy="180" r="40" /><ellipse style="fill:#d9d9d9" cx="415" cy="180" rx="36" ry="34" /><circle style="fill:#ededed" cx="421" cy="172" r="22" /><circle style="fill:#fff" cx="426" cy="166" r="11" /><circle style="fill:#b2b2b2;stroke:#4c4c4c;stroke-width:2" cx="400" cy="834" r="41" /><circle style="fill:#d9d9d9" cx="399" cy="833" r="36" /><circle style="fill:#ededed" cx="405" cy="825" r="22" /><circle style="fill:#fff" cx="410" cy="820" r="11" /><circle style="fill:#b2b2b2;stroke:#4c4c4c;stroke-width:2" cx="150" cy="958" r="40" /><circle style="fill:#d9d9d9" cx="149" cy="958" r="36" /><circle style="fill:#ededed" cx="155" cy="949" r="22" /><circle style="fill:#fff" cx="160" cy="944" r="11" /><circle style="fill:#b2b2b2;stroke:#4c4c4c;stroke-width:2" cx="143" cy="364" r="41" /><circle style="fill:#d9d9d9" cx="142" cy="365" r="36" /><circle style="fill:#ededed" cx="147" cy="356" r="21" /><circle style="fill:#fff" cx="153" cy="350" r="11" /><circle style="fill:#b2b2b2;stroke:#4c4c4c;stroke-width:2" cx="88" cy="40" r="40" /><circle style="fill:#d9d9d9" cx="88" cy="40" r="36" /><circle style="fill:#ededed" cx="93" cy="31" r="21" /><circle style="fill:#fff" cx="99" cy="26" r="11" /></svg>