<!DOCTYPE svg PUBLIC "-//W3C//DTD SVG 20000303 Stylable//EN" "http://www.w3.org/TR/2000/03/WD-SVG-20000303/DTD/svg-20000303-stylable.dtd"[]><svg xmlns="http://www.w3.org/2000/svg" width="133px" height="999px" viewBox="0 0 81 999"><circle style="fill:#b2b2b2;stroke:#4c4c4c;stroke-width:2" cx="40" cy="958" r="40" /><circle style="fill:#d9d9d9" cx="40" cy="958" r="35" /><circle style="fill:#ededed" cx="45" cy="949" r="22" /><circle style="fill:#fff" cx="51" cy="944" r="12" /><circle style="fill:#b2b2b2;stroke:#4c4c4c;stroke-width:2" cx="40" cy="802" r="40" /><circle style="fill:#d9d9d9" cx="40" cy="802" r="35" /><circle style="fill:#ededed" cx="45" cy="792" r="22" /><circle style="fill:#fff" cx="51" cy="788" r="12" /><circle style="fill:#b2b2b2;stroke:#4c4c4c;stroke-width:2" cx="40" cy="606" r="40" /><circle style="fill:#d9d9d9" cx="40" cy="607" r="35" /><circle style="fill:#ededed" cx="45" cy="599" r="22" /><circle style="fill:#fff" cx="51" cy="593" r="12" /><circle style="fill:#b2b2b2;stroke:#4c4c4c;stroke-width:2" cx="40" cy="391" r="37" /><circle style="fill:#d9d9d9" cx="40" cy="391" r="33" /><circle style="fill:#ededed" cx="45" cy="383" r="20" /><circle style="fill:#fff" cx="50" cy="379" r="11" /><circle style="fill:#b2b2b2;stroke:#4c4c4c;stroke-width:2" cx="40" cy="211" r="29" /><circle style="fill:#d9d9d9" cx="39" cy="211" r="26" /><circle style="fill:#ededed" cx="44" cy="205" r="15" /><circle style="fill:#fff" cx="47" cy="201" r="8" /><circle style="fill:#b2b2b2;stroke:#4c4c4c;stroke-width:2" cx="39" cy="21" r="21" /><circle style="fill:#d9d9d9" cx="40" cy="20" r="19" /><circle style="fill:#ededed" cx="43" cy="16" r="12" /><circle style="fill:#fff" cx="45" cy="13" r="6" /></svg>