<!DOCTYPE svg PUBLIC "-//W3C//DTD SVG 20000303 Stylable//EN" "http://www.w3.org/TR/2000/03/WD-SVG-20000303/DTD/svg-20000303-stylable.dtd"[]><svg xmlns="http://www.w3.org/2000/svg" width="999px" height="689px" viewBox="0 0 999 671"><path style="fill:#f0f0f0;stroke:#4c4c4c;stroke-width:2" d="M146,498 l11,26 14,25 14,22 16,21 17,19 18,16 19,15 20,11 21,9 21,6 21,3 22,0 21,-3 22,-5 20,-8 20,-10 20,-14 18,-16 18,-18 17,18 18,16 20,14 21,10 20,8 21,5 21,3 22,0 21,-3 22,-6 20,-9 21,-11 19,-15 18,-16 17,-19 16,-21 14,-22 13,-25 11,-26 15,4 16,2 15,-2 15,-4 15,-8 13,-10 13,-12 12,-15 9,-16 9,-18 6,-20 5,-20 3,-22 2,-21 -2,-23 -3,-21 -5,-21 -6,-19 -9,-19 -9,-16 -12,-14 -13,-13 -13,-10 -15,-6 -15,-5 -15,-1 -16,0 -15,5 -11,-26 -13,-25 -14,-23 -16,-21 -17,-19 -18,-16 -19,-14 -21,-11 -20,-9 -22,-6 -21,-3 -22,0 -21,2 -21,5 -20,8 -21,11 -20,13 -18,16 -17,18 -18,-18 -18,-16 -20,-13 -20,-11 -20,-8 -22,-5 -21,-2 -22,0 -21,3 -21,6 -21,9 -20,11 -19,14 -18,16 -17,19 -16,21 -14,23 -14,25 -11,26 -15,-5 -15,0 -15,1 -16,5 -14,6 -14,10 -12,13 -12,14 -10,16 -8,19 -6,19 -6,21 -3,21 0,23 0,21 3,22 6,20 6,20 8,18 10,16 12,15 12,12 14,10 14,8 16,4 15,2 15,-2 15,-4z" /></svg>