<!DOCTYPE svg PUBLIC "-//W3C//DTD SVG 20000303 Stylable//EN" "http://www.w3.org/TR/2000/03/WD-SVG-20000303/DTD/svg-20000303-stylable.dtd"[]><svg xmlns="http://www.w3.org/2000/svg" width="991px" height="999px" viewBox="0 0 991 999"><path style="fill:#ff0;stroke:#4c4c4c;stroke-width:2" d="M429,220 l76,-220 50,216 71,-88 11,115 221,-166 -115,256 115,0 -80,84 213,72 -209,66 84,98 -111,-8 119,203 -209,-105 13,125 -103,-82 -65,213 -66,-211 -85,78 -4,-113 -202,88 110,-180 -117,-14 76,-84 -222,-62 222,-62 -76,-69 109,-19 -102,-207 186,119 2,-119 88,76z" /><ellipse style="fill:#ff0;stroke:#4c4c4c;stroke-width:2" cx="503" cy="495" rx="221" ry="224" /><path style="fill:#000;stroke:#4c4c4c;stroke-width:2" d="M712,437 l-10,-24 -398,0 -8,26 1,1 3,5 6,8 7,10 9,11 10,13 10,13 11,12 5,6 6,5 6,3 7,3 7,2 7,2 7,0 7,0 7,0 7,-1 7,-2 6,-1 6,-2 5,-2 4,-3 3,-2 7,-6 8,-8 7,-8 8,-10 7,-8 6,-7 5,-5 3,-2 3,2 4,4 6,7 7,8 7,9 8,8 8,9 7,7 4,3 5,2 5,2 6,2 7,1 7,1 8,1 7,0 8,-1 7,-1 8,-1 7,-3 6,-2 6,-3 5,-4 4,-5 8,-10 10,-12 9,-13 10,-12 9,-12 7,-9 5,-6 3,-1z" /></svg>