<!DOCTYPE svg PUBLIC "-//W3C//DTD SVG 20000303 Stylable//EN" "http://www.w3.org/TR/2000/03/WD-SVG-20000303/DTD/svg-20000303-stylable.dtd"[]><svg xmlns="http://www.w3.org/2000/svg" width="999px" height="623px" viewBox="0 0 733 453"><path style="fill:#963" d="M375,125 l-47,0 47,-62 62,-47 62,16 62,-16 78,0 63,31 16,31 -93,78 -79,94 -141,47 -78,63 -31,46 -250,32 -31,-47 47,-94 313,-172z" /><path style="fill:#661900" d="M452,63 l-62,15 -47,47 78,0 125,-62 -94,0z" /><path style="fill:#661900" d="M577,78 l-62,47 31,110 31,-79 79,-46 -79,-32z" /><path style="fill:#661900" d="M296,250 l32,47 -32,109 32,-46 78,-63 -110,-47z" /><path style="fill:#ccb299" d="M204,219 l280,-141 -16,-31 -32,-15 65,-2 62,-15 78,15 47,16 0,16 -94,0 -62,31 -79,126 -63,31 -139,0 -17,63 -94,31 -47,-31 111,-94z" /></svg>