<!DOCTYPE svg PUBLIC "-//W3C//DTD SVG 20000303 Stylable//EN" "http://www.w3.org/TR/2000/03/WD-SVG-20000303/DTD/svg-20000303-stylable.dtd"[]><svg xmlns="http://www.w3.org/2000/svg" width="999px" height="695px" viewBox="0 0 921 625"><path style="fill:#a6794d;stroke:#4c4c4c;stroke-width:2" d="M379,217 l-1,-5 -2,-6 -4,-5 -5,-5 -3,-3 -4,-3 -5,-4 -6,-4 -6,-5 -7,-5 -8,-6 -9,-6 -9,-6 -8,-6 -7,-6 -7,-5 -6,-5 -5,-4 -4,-5 -4,-4 -4,-5 -5,-4 -4,-4 -5,-4 -5,-4 -6,-4 -5,-3 -5,-3 -6,-2 -5,-3 -5,-1 -5,-2 -5,-1 -4,0 -4,-1 -4,0 -3,0 -3,1 -4,1 -3,1 -5,2 -4,2 -5,2 -5,3 -5,3 -5,3 -5,2 -4,2 -4,2 -3,2 -3,2 -3,1 -5,2 -7,1 -8,1 -9,0 -4,0 -6,0 -6,-1 -8,-1 -9,-1 -9,-1 -11,-1 -12,-2 -8,-1 -7,-1 -6,-2 -5,-1 -3,-3 -3,-2 -1,-3 -1,-3 0,-2 2,-1 1,-1 3,0 4,0 5,-1 5,0 6,-1 7,-1 7,-1 7,-3 7,-4 4,-2 4,-3 3,-3 4,-3 4,-4 4,-4 4,-4 4,-5 9,-11 9,-9 9,-7 9,-7 9,-5 8,-3 8,-2 8,-1 6,0 5,1 5,1 6,2 5,2 5,2 5,3 5,3 1,1 2,1 2,2 4,2 4,3 5,4 6,5 7,5 7,5 7,5 6,5 6,4 6,4 6,3 5,3 5,2 5,2 5,2 5,2 5,1 6,1 6,1 6,1 6,0 8,-1 10,-3 10,-2 11,-4 12,-4 12,-4 14,-5 14,-6 14,-6 14,-5 12,-5 11,-4 10,-4 9,-4 7,-3 7,-2 6,-2 7,-1 7,-2 7,-1 8,-1 8,0 8,-1 9,0 14,0 13,2 14,1 14,3 14,4 14,4 14,5 15,6 14,6 15,7 15,7 15,7 16,9 15,8 16,9 16,10 10,6 9,6 10,5 8,5 9,4 8,4 7,3 7,3 7,2 7,2 8,3 8,2 8,2 9,2 9,1 9,2 -5,2 -6,1 -5,2 -5,3 -6,2 -5,3 -6,3 -5,3 -5,3 -5,4 -5,3 -5,3 -5,3 -5,3 -4,3 -5,3 -5,3 -4,2 -5,3 -5,2 -4,1 -5,2 -5,0 -5,1 -5,0 -5,0 -7,-1 -7,-1 -8,0 -10,-1 -10,-2 -11,-1 -11,-1 -10,-1 -10,-1 -8,-1 -7,0 -7,-1 -5,0 -5,0 -8,0 -5,2 -4,2 -1,4 0,2 0,3 0,4 1,4 0,5 1,5 1,6 1,6 1,0 2,1 4,1 4,0 6,1 6,1 8,1 9,1 4,-1 5,0 5,-1 6,0 6,0 7,0 7,0 7,0 3,0 3,1 2,2 3,3 2,4 2,4 2,5 1,5 5,0 5,1 4,1 5,1 4,2 3,3 4,2 3,3 -4,0 -4,-1 -5,0 -5,0 -5,-1 -6,0 -6,0 -7,0 -2,0 -3,-1 -3,-1 -4,0 -4,-1 -5,-1 -5,-1 -5,-1 -6,-1 -5,-2 -6,-1 -5,-1 -4,-1 -5,-1 -3,-1 -4,0 -4,-1 -4,0 -4,-1 -4,0 -4,-1 -4,0 -5,0 -4,0 -6,0 -5,1 -4,2 -3,1 -10,10 -9,10 -9,10 -9,11 -8,12 -7,12 -7,12 -7,13 -7,13 -6,13 -7,13 -6,12 -7,13 -6,13 -6,13 -6,12 -6,12 -7,11 -6,11 -7,10 -7,9 -7,8 -8,8 -7,6 -19,15 -18,14 -18,13 -18,12 -18,12 -17,10 -17,10 -17,8 4,-5 3,-6 4,-5 3,-7 4,-6 3,-7 4,-7 3,-8 3,-8 3,-8 3,-8 2,-7 3,-8 2,-8 2,-7 2,-8 2,-8 2,-7 1,-6 1,-6 1,-6 1,-5 0,-4 0,-4 0,-249z" /></svg>