<!DOCTYPE svg PUBLIC "-//W3C//DTD SVG 20000303 Stylable//EN" "http://www.w3.org/TR/2000/03/WD-SVG-20000303/DTD/svg-20000303-stylable.dtd"[]><svg xmlns="http://www.w3.org/2000/svg" width="953px" height="999px" viewBox="0 0 951 999"><path style="fill:#a5a5a5;stroke:#4c4c4c;stroke-width:2" d="M844,325 l2,3 2,3 0,3 -1,4 -3,4 -3,5 -5,5 -5,5 -6,6 -6,5 -5,5 -5,4 -4,4 -4,3 -3,2 -3,2 9,2 6,2 5,1 1,1 -3,6 -4,6 -5,6 -6,5 -7,5 -6,6 -6,7 -5,7 4,3 3,3 2,4 1,3 0,2 -2,1 -3,2 -5,1 -6,2 -7,2 -9,1 -10,2 -24,35 4,0 5,0 6,-1 7,-1 6,0 3,3 0,5 -2,7 4,1 5,1 7,1 9,0 10,0 12,0 13,0 15,0 15,-1 14,0 12,0 10,0 9,1 8,0 6,1 4,1 7,4 3,3 0,3 -2,2 -4,3 -3,3 -1,5 0,4 7,4 3,5 0,4 -5,5 -7,5 -4,6 -2,6 0,5 6,8 1,7 -3,6 -8,5 -9,3 -6,1 -3,0 -1,0 -1,11 -3,9 -5,8 -6,5 -8,4 -10,2 -11,0 -13,-2 -3,0 -1,2 1,2 2,3 2,2 0,1 -2,2 -3,1 -4,0 -6,1 -8,0 -9,-1 -7,-1 -7,-2 -7,-2 -6,-2 -5,-2 -5,-3 -5,-3 -4,-3 -8,-6 -7,-6 -7,-5 -6,-4 -7,2 -7,-1 -6,-3 -6,-6 -5,-8 -6,-6 -6,-4 -7,-4 -4,8 -3,3 -3,-2 -2,-5 -2,-6 -2,-3 -3,0 -4,3 -2,5 -2,4 -2,5 -2,4 -2,4 -2,5 -1,6 0,5 0,13 -3,9 -7,5 -10,1 0,10 -3,8 -3,6 -6,4 -7,3 -9,1 -10,-1 -12,-2 -1,4 -1,6 -3,6 -5,7 -5,7 -5,4 -4,2 -3,0 0,3 -1,5 -4,5 -5,7 -6,6 -6,5 -6,3 -5,2 0,4 -2,4 -4,6 -7,6 -4,3 -3,3 -4,3 -4,3 -4,2 -3,2 -4,2 -4,1 -6,2 -5,2 -4,3 -2,4 -2,4 -2,5 -3,4 -3,5 -5,4 -6,1 -7,-1 -7,-5 -2,5 -3,6 -4,7 -4,7 -6,7 -7,6 -6,4 -7,2 -4,1 -4,0 -5,-1 -4,-2 -5,5 -5,5 -5,5 -4,5 -4,5 -5,4 -6,4 -7,3 -6,2 -5,0 -4,-1 -2,-3 -3,5 -3,5 -4,5 -6,3 -6,4 -6,2 -8,3 -8,1 -4,-1 -2,-2 0,-2 1,-4 1,-3 0,-2 -2,-1 -4,0 -5,2 -5,2 -5,3 -4,4 -4,4 -3,5 -3,5 -2,5 -4,10 -6,7 -8,5 -8,1 -2,-4 0,-4 1,-5 2,-5 3,-6 3,-5 2,-5 1,-5 -2,0 -2,0 -3,0 -2,0 -3,5 -4,5 -4,5 -4,6 -5,5 -5,5 -5,6 -6,5 -11,10 -9,7 -6,5 -3,1 -4,-1 -3,-1 -1,-3 1,-3 2,-4 4,-6 6,-6 7,-7 8,-8 7,-7 6,-7 6,-7 5,-6 4,-6 3,-6 2,-5 -1,-3 -2,-2 -4,0 -4,1 -8,11 -9,11 -10,10 -11,10 -12,11 -13,10 -14,9 -15,10 -6,1 -5,1 -4,0 -2,-1 -1,-2 1,-2 3,-3 4,-3 6,-4 6,-5 6,-4 6,-5 6,-5 6,-6 7,-5 6,-5 6,-6 7,-5 6,-6 6,-6 6,-6 6,-5 6,-6 6,-5 0,-3 0,-3 -2,-1 -2,-1 -4,0 -3,1 -3,2 -2,2 -9,10 -10,9 -11,9 -11,8 -12,8 -13,8 -14,8 -14,7 -4,1 -4,2 -7,2 -8,1 -6,1 -3,-1 0,-4 4,-5 7,-5 8,-4 8,-5 8,-5 9,-4 9,-5 9,-5 10,-5 10,-5 9,-6 8,-6 8,-7 7,-7 6,-7 6,-7 5,-8 -1,-2 -1,-2 -3,0 -3,0 -8,8 -9,8 -10,8 -11,8 -11,8 -12,7 -12,8 -13,7 -3,2 -3,1 -3,1 -4,1 -4,1 -4,1 -5,0 -4,0 -6,0 -4,-2 0,-2 3,-3 11,-5 11,-5 12,-6 12,-6 12,-7 13,-7 12,-8 13,-8 12,-9 11,-7 9,-7 7,-6 6,-6 4,-4 2,-4 1,-3 -5,2 -6,3 -8,5 -8,6 -9,7 -7,5 -6,4 -5,2 -3,1 -3,1 -3,0 -3,0 -2,0 0,-1 1,-2 4,-2 4,-3 4,-4 5,-4 5,-3 5,-4 6,-4 6,-4 7,-4 6,-4 6,-4 6,-4 4,-4 4,-3 4,-4 3,-3 2,-2 5,-4 6,-4 5,-3 6,-4 6,-4 6,-4 5,-3 6,-4 5,-3 6,-4 6,-4 6,-5 6,-4 6,-6 6,-5 6,-6 4,-8 5,-9 6,-10 7,-9 9,-10 10,-11 11,-10 12,-11 13,-12 12,-12 12,-14 11,-14 12,-16 10,-16 10,-17 10,-18 1,-3 -2,-3 -3,-1 -4,-1 -6,-1 -5,-2 -5,-3 -4,-4 -8,-7 -8,-6 -9,-5 -9,-5 -9,-3 -9,-2 -9,-2 -10,0 -10,0 -8,0 -7,-1 -6,-1 -4,-1 -4,-1 -1,-1 -1,-2 0,-1 2,-2 2,-2 4,-2 5,-2 6,-2 7,-3 8,-3 9,-3 8,-3 8,-2 7,-2 6,-2 6,-1 5,-1 4,-1 6,-5 6,-5 7,-3 7,-3 9,-2 9,-1 9,0 11,1 10,1 10,1 8,2 8,1 8,1 6,1 5,0 5,1 7,-4 7,-5 7,-5 7,-5 5,-7 6,-6 5,-7 5,-8 4,-7 4,-6 4,-6 3,-4 2,-4 2,-3 2,-2 1,-1 18,-18 16,-18 14,-17 13,-16 10,-15 9,-14 8,-14 5,-12 4,-12 5,-11 5,-11 6,-11 6,-9 6,-10 7,-8 8,-8 6,-10 7,-9 7,-9 8,-8 8,-8 9,-7 9,-7 9,-6 2,-3 1,-2 2,0 1,1 1,1 1,2 1,2 0,2 -1,4 -3,6 -5,6 -6,8 -6,8 -3,7 -2,5 -1,3 4,-1 4,-3 5,-4 5,-6 5,-6 6,-9 6,-9 7,-11 7,-11 6,-12 5,-10 5,-11 4,-10 4,-9 3,-10 2,-9 2,-3 3,0 3,2 3,5 3,5 2,6 0,5 -1,5 -2,4 -2,5 -3,5 -2,5 -3,5 -3,6 -3,5 -3,6 -3,6 -3,6 -4,5 -3,5 -4,5 -4,5 -3,4 -4,4 0,3 1,1 3,1 4,-1 8,-6 8,-7 7,-7 7,-7 5,-7 5,-8 4,-9 3,-8 2,-8 3,-9 3,-8 4,-7 3,-8 4,-7 3,-6 4,-7 5,-4 4,-1 3,1 2,4 1,6 0,4 0,4 0,3 -5,12 -6,12 -6,11 -7,11 -7,10 -8,10 -8,10 -9,9 -2,2 -2,2 0,2 0,2 2,2 3,0 4,0 5,-2 5,-5 6,-6 5,-6 5,-6 5,-6 6,-5 5,-6 5,-6 5,-6 4,-6 5,-6 4,-6 5,-6 4,-6 5,-5 4,-6 7,-12 5,-3 3,4 1,13 -7,13 -8,13 -9,12 -9,11 -11,11 -10,10 -12,10 -12,9 0,3 2,2 3,0 6,-1 6,-3 6,-4 7,-4 6,-5 7,-6 7,-6 7,-7 7,-8 7,-7 6,-6 6,-5 5,-3 5,-2 4,-1 3,1 3,3 -1,2 -4,6 -6,8 -9,10 -5,6 -6,5 -5,6 -6,5 -5,4 -6,5 -6,4 -6,4 -4,4 0,2 3,1 6,-1 6,-3 6,-4 7,-5 7,-5 8,-4 7,-3 4,1 4,2 2,7 -1,6 -6,6 -9,4 -10,5 -7,6 -4,8 -1,7 1,3 2,3 4,2 5,1 7,2 5,1 5,2 3,2 0,5 -3,4 -4,2 -7,1 -7,1 -6,4 -4,5 -4,7 9,1 6,1 4,3 1,4 -2,5 -3,5 -5,5 -6,5 -7,5 -7,7 -6,8 -6,9 3,1 4,-1 3,-1 4,-2 3,-2 3,-1 1,0 1,1 -1,5 -3,6 -6,8 -7,7 -7,8 -7,6 -7,5 -5,3 4,2 1,2 -1,3 -3,4 -5,4 -4,3 -3,4 -3,4z" /></svg>