<!DOCTYPE svg PUBLIC "-//W3C//DTD SVG 20000303 Stylable//EN" "http://www.w3.org/TR/2000/03/WD-SVG-20000303/DTD/svg-20000303-stylable.dtd"[]><svg xmlns="http://www.w3.org/2000/svg" width="344px" height="999px" viewBox="0 0 305 999"><path style="fill:#008040;fill-rule:evenodd" d="M97,116 l1,3 1,2 2,3 3,3 2,3 3,2 2,2 1,2 4,-8 4,-8 4,-9 3,-8 3,-9 3,-9 4,-8 3,-9 3,-9 3,-9 3,-9 3,-9 3,-8 3,-9 4,-8 3,-7 7,7 5,8 5,9 4,10 3,10 2,10 3,11 2,11 2,11 2,11 2,11 2,11 3,11 4,10 4,9 5,9 0,-17 4,4 3,5 2,4 1,4 1,5 0,4 0,5 -1,4 -1,5 0,4 -1,5 -1,5 0,4 0,5 1,5 2,4 0,2 1,3 0,2 1,3 0,2 1,3 1,3 1,3 0,3 1,3 0,2 1,3 0,3 0,3 0,3 0,2 2,-1 2,-2 2,-1 3,-3 2,-2 3,-2 2,-2 2,-1 2,5 2,5 1,6 1,6 1,7 1,7 0,7 0,7 0,7 0,7 0,7 0,7 0,6 0,6 0,6 0,6 1,0 2,1 2,2 2,1 1,1 2,1 1,1 1,1 -2,84 1,1 1,1 1,1 1,1 2,1 1,0 2,1 2,0 1,3 2,4 1,4 1,4 1,5 0,5 1,4 1,5 0,4 1,5 0,4 0,4 -1,4 0,4 -1,3 -1,2 -2,4 -2,3 -1,4 -1,2 -1,3 -2,2 0,2 -1,1 -1,2 0,3 -1,2 -1,2 0,3 -1,3 0,4 -1,4 4,8 4,4 4,1 4,-2 3,-3 3,-3 3,-2 2,0 0,6 0,7 0,9 1,9 0,9 1,10 0,10 1,11 0,10 0,10 -1,9 0,10 -1,8 -1,8 -2,7 -2,5 -1,3 -3,3 -3,2 -3,3 -4,2 -4,2 -3,2 -2,3 -5,8 -4,8 -3,7 -3,7 -2,6 -1,6 -1,6 -1,5 0,5 0,5 -1,5 0,5 -1,5 0,5 -2,5 -1,5 -2,4 -2,3 -3,3 -3,2 -3,3 -3,2 -4,2 -4,2 -4,2 -4,1 -4,2 -4,1 -3,1 -4,1 -3,1 -3,2 -2,2 0,1 0,4 1,5 0,7 0,9 1,9 0,11 1,10 0,11 1,10 0,9 1,9 0,7 0,6 1,3 0,2 0,2 1,2 0,3 1,2 2,3 2,3 2,3 4,3 3,3 5,2 6,3 6,2 7,2 9,1 9,1 11,0 0,12 -207,0 0,-12 7,0 7,-1 7,-1 6,-2 5,-2 5,-2 4,-2 4,-3 4,-2 3,-3 3,-3 2,-3 2,-3 1,-3 2,-3 1,-2 0,-8 1,-8 1,-7 0,-6 1,-7 0,-6 1,-6 0,-5 0,-6 1,-6 0,-6 0,-5 0,-6 1,-7 0,-6 0,-7 -3,0 -3,-2 -3,-2 -3,-2 -3,-4 -4,-3 -3,-4 -3,-4 -4,-4 -3,-4 -3,-4 -3,-4 -3,-3 -3,-3 -2,-2 -1,-2 -2,-2 -3,-3 -4,-3 -3,-4 -5,-4 -5,-5 -5,-4 -5,-6 -5,-5 -5,-5 -5,-6 -4,-6 -4,-6 -3,-6 -3,-7 -2,-6 0,-4 0,-3 -1,-4 -1,-4 0,-3 -1,-4 -1,-4 -1,-3 -1,-4 -1,-4 0,-4 0,-4 0,-4 0,-5 0,-4 1,-4 3,2 4,4 5,3 5,4 4,4 3,5 2,3 0,4 -1,-5 0,-5 -2,-4 -2,-4 -1,-5 -3,-3 -2,-4 -3,-3 -3,-4 -2,-3 -3,-4 -3,-4 -3,-3 -2,-4 -2,-4 -1,-5 -2,-5 -2,-6 -1,-7 -1,-7 -1,-8 -1,-8 0,-8 0,-9 0,-8 0,-8 0,-9 0,-7 1,-8 1,-6 1,-6 1,-6 0,-4 1,-5 1,-5 1,-5 0,-5 1,-5 0,-5 1,-6 0,-5 1,-5 0,-6 1,-5 0,-5 0,-5 0,-5 0,-5 4,4 3,3 3,5 3,4 2,4 3,3 3,3 3,3 0,-6 0,-6 0,-6 0,-7 0,-6 0,-7 0,-6 0,-6 0,-7 0,-6 1,-7 0,-6 0,-7 1,-6 0,-7 1,-6 1,-7 1,-6 0,-6 1,-7 1,-6 2,-6 1,-6 1,-6 2,-6 1,-6 2,-6 2,-6 2,-5 2,-6 3,-5 2,-5 0,1 1,2 1,3 1,2 1,2 1,3 1,2 0,2 6,-107 0,2 1,1 1,1 1,0 1,1 1,0 2,1 1,0 2,-3 1,-2 2,-4 2,-3 1,-4 1,-4 2,-5 1,-4 0,-5 1,-4 1,-4 0,-5 0,-4 1,-4 0,-4 0,-4z M195,815 l6,0 5,-1 5,-2 5,-2 5,-3 4,-3 4,-4 4,-4 3,-4 3,-5 2,-5 2,-6 2,-5 1,-6 1,-6 0,-6 -2,-1 -3,-1 -2,-1 -3,-3 -2,-2 -2,-1 -2,-2 -1,-1 0,-18 -4,-4 -5,-4 -3,-5 -3,-6 -3,-5 -2,-6 -1,-5 -1,-6 -2,3 -1,2 -2,2 -1,2 -1,2 -1,3 -2,2 -1,2 -2,115z M128,647 l-2,1 -1,1 -1,3 -1,2 0,4 -1,3 0,4 0,4 -21,0 3,2 2,4 3,3 3,3 3,4 2,3 3,4 2,2 5,6 4,3 3,0 2,-1 1,-4 1,-3 1,-4 1,-3 -1,-5 -1,-5 -1,-6 -2,-5 -2,-5 -2,-5 -2,-5 -1,-5z M133,751 l1,-26 -3,-3 -4,-4 -6,-6 -5,-6 -6,-7 -4,-6 -4,-5 -1,-4 1,9 0,7 2,7 1,6 2,5 2,5 2,4 2,4 2,3 3,3 2,3 3,2 2,2 3,2 2,3 3,2z M128,813 l3,-31 -5,-3 -4,-4 -3,-3 -3,-4 -3,-4 -3,-3 -3,-5 -2,-4 -2,-4 -2,-4 -1,-4 -2,-4 -1,-4 -2,-4 -1,-3 -1,-4 -2,10 -2,9 -1,9 0,9 0,8 0,8 1,8 2,7 3,6 3,5 3,5 5,4 5,2 5,2 7,1 6,-1z M201,555 l3,-8 3,-9 2,-8 3,-8 2,-8 2,-8 2,-8 2,-7 1,-8 2,-8 1,-8 0,-9 1,-8 1,-9 0,-9 0,-9 -3,6 -3,5 -3,5 -3,4 -3,4 -4,4 -5,4 -5,5 0,5 0,6 0,6 -1,6 0,6 0,6 0,7 1,6 0,6 0,6 0,6 1,6 0,6 1,6 0,6 2,5z M195,441 l1,-5 0,-4 1,-5 0,-4 1,-5 0,-4 1,-5 0,-5 0,-5 1,-5 0,-4 0,-4 0,-5 1,-4 0,-4 0,-3 0,1 1,2 2,2 3,3 2,4 3,4 2,4 2,5 1,5 1,5 0,6 -2,6 -2,6 -5,6 -6,6 -8,6z " /><path style="fill:none;stroke:#4c4c4c;stroke-width:2" d="M97,116 l1,3 1,2 2,3 3,3 2,3 3,2 2,2 1,2 4,-8 4,-8 4,-9 3,-8 3,-9 3,-9 4,-8 3,-9 3,-9 3,-9 3,-9 3,-9 3,-8 3,-9 4,-8 3,-7 7,7 5,8 5,9 4,10 3,10 2,10 3,11 2,11 2,11 2,11 2,11 2,11 3,11 4,10 4,9 5,9 0,-17 4,4 3,5 2,4 1,4 1,5 0,4 0,5 -1,4 -1,5 0,4 -1,5 -1,5 0,4 0,5 1,5 2,4 0,2 1,3 0,2 1,3 0,2 1,3 1,3 1,3 0,3 1,3 0,2 1,3 0,3 0,3 0,3 0,2 2,-1 2,-2 2,-1 3,-3 2,-2 3,-2 2,-2 2,-1 2,5 2,5 1,6 1,6 1,7 1,7 0,7 0,7 0,7 0,7 0,7 0,7 0,6 0,6 0,6 0,6 1,0 2,1 2,2 2,1 1,1 2,1 1,1 1,1 -2,84 1,1 1,1 1,1 1,1 2,1 1,0 2,1 2,0 1,3 2,4 1,4 1,4 1,5 0,5 1,4 1,5 0,4 1,5 0,4 0,4 -1,4 0,4 -1,3 -1,2 -2,4 -2,3 -1,4 -1,2 -1,3 -2,2 0,2 -1,1 -1,2 0,3 -1,2 -1,2 0,3 -1,3 0,4 -1,4 4,8 4,4 4,1 4,-2 3,-3 3,-3 3,-2 2,0 0,6 0,7 0,9 1,9 0,9 1,10 0,10 1,11 0,10 0,10 -1,9 0,10 -1,8 -1,8 -2,7 -2,5 -1,3 -3,3 -3,2 -3,3 -4,2 -4,2 -3,2 -2,3 -5,8 -4,8 -3,7 -3,7 -2,6 -1,6 -1,6 -1,5 0,5 0,5 -1,5 0,5 -1,5 0,5 -2,5 -1,5 -2,4 -2,3 -3,3 -3,2 -3,3 -3,2 -4,2 -4,2 -4,2 -4,1 -4,2 -4,1 -3,1 -4,1 -3,1 -3,2 -2,2 0,1 0,4 1,5 0,7 0,9 1,9 0,11 1,10 0,11 1,10 0,9 1,9 0,7 0,6 1,3 0,2 0,2 1,2 0,3 1,2 2,3 2,3 2,3 4,3 3,3 5,2 6,3 6,2 7,2 9,1 9,1 11,0 0,12 -207,0 0,-12 7,0 7,-1 7,-1 6,-2 5,-2 5,-2 4,-2 4,-3 4,-2 3,-3 3,-3 2,-3 2,-3 1,-3 2,-3 1,-2 0,-8 1,-8 1,-7 0,-6 1,-7 0,-6 1,-6 0,-5 0,-6 1,-6 0,-6 0,-5 0,-6 1,-7 0,-6 0,-7 -3,0 -3,-2 -3,-2 -3,-2 -3,-4 -4,-3 -3,-4 -3,-4 -4,-4 -3,-4 -3,-4 -3,-4 -3,-3 -3,-3 -2,-2 -1,-2 -2,-2 -3,-3 -4,-3 -3,-4 -5,-4 -5,-5 -5,-4 -5,-6 -5,-5 -5,-5 -5,-6 -4,-6 -4,-6 -3,-6 -3,-7 -2,-6 0,-4 0,-3 -1,-4 -1,-4 0,-3 -1,-4 -1,-4 -1,-3 -1,-4 -1,-4 0,-4 0,-4 0,-4 0,-5 0,-4 1,-4 3,2 4,4 5,3 5,4 4,4 3,5 2,3 0,4 -1,-5 0,-5 -2,-4 -2,-4 -1,-5 -3,-3 -2,-4 -3,-3 -3,-4 -2,-3 -3,-4 -3,-4 -3,-3 -2,-4 -2,-4 -1,-5 -2,-5 -2,-6 -1,-7 -1,-7 -1,-8 -1,-8 0,-8 0,-9 0,-8 0,-8 0,-9 0,-7 1,-8 1,-6 1,-6 1,-6 0,-4 1,-5 1,-5 1,-5 0,-5 1,-5 0,-5 1,-6 0,-5 1,-5 0,-6 1,-5 0,-5 0,-5 0,-5 0,-5 4,4 3,3 3,5 3,4 2,4 3,3 3,3 3,3 0,-6 0,-6 0,-6 0,-7 0,-6 0,-7 0,-6 0,-6 0,-7 0,-6 1,-7 0,-6 0,-7 1,-6 0,-7 1,-6 1,-7 1,-6 0,-6 1,-7 1,-6 2,-6 1,-6 1,-6 2,-6 1,-6 2,-6 2,-6 2,-5 2,-6 3,-5 2,-5 0,1 1,2 1,3 1,2 1,2 1,3 1,2 0,2 6,-107 0,2 1,1 1,1 1,0 1,1 1,0 2,1 1,0 2,-3 1,-2 2,-4 2,-3 1,-4 1,-4 2,-5 1,-4 0,-5 1,-4 1,-4 0,-5 0,-4 1,-4 0,-4 0,-4" /><path style="fill:none;stroke:#4c4c4c;stroke-width:2" d="M195,815 l6,0 5,-1 5,-2 5,-2 5,-3 4,-3 4,-4 4,-4 3,-4 3,-5 2,-5 2,-6 2,-5 1,-6 1,-6 0,-6 -2,-1 -3,-1 -2,-1 -3,-3 -2,-2 -2,-1 -2,-2 -1,-1 0,-18 -4,-4 -5,-4 -3,-5 -3,-6 -3,-5 -2,-6 -1,-5 -1,-6 -2,3 -1,2 -2,2 -1,2 -1,2 -1,3 -2,2 -1,2 -2,115" /><path style="fill:none;stroke:#4c4c4c;stroke-width:2" d="M128,647 l-2,1 -1,1 -1,3 -1,2 0,4 -1,3 0,4 0,4 -21,0 3,2 2,4 3,3 3,3 3,4 2,3 3,4 2,2 5,6 4,3 3,0 2,-1 1,-4 1,-3 1,-4 1,-3 -1,-5 -1,-5 -1,-6 -2,-5 -2,-5 -2,-5 -2,-5 -1,-5" /><path style="fill:none;stroke:#4c4c4c;stroke-width:2" d="M133,751 l1,-26 -3,-3 -4,-4 -6,-6 -5,-6 -6,-7 -4,-6 -4,-5 -1,-4 1,9 0,7 2,7 1,6 2,5 2,5 2,4 2,4 2,3 3,3 2,3 3,2 2,2 3,2 2,3 3,2" /><path style="fill:none;stroke:#4c4c4c;stroke-width:2" d="M128,813 l3,-31 -5,-3 -4,-4 -3,-3 -3,-4 -3,-4 -3,-3 -3,-5 -2,-4 -2,-4 -2,-4 -1,-4 -2,-4 -1,-4 -2,-4 -1,-3 -1,-4 -2,10 -2,9 -1,9 0,9 0,8 0,8 1,8 2,7 3,6 3,5 3,5 5,4 5,2 5,2 7,1 6,-1" /><path style="fill:none;stroke:#4c4c4c;stroke-width:2" d="M201,555 l3,-8 3,-9 2,-8 3,-8 2,-8 2,-8 2,-8 2,-7 1,-8 2,-8 1,-8 0,-9 1,-8 1,-9 0,-9 0,-9 -3,6 -3,5 -3,5 -3,4 -3,4 -4,4 -5,4 -5,5 0,5 0,6 0,6 -1,6 0,6 0,6 0,7 1,6 0,6 0,6 0,6 1,6 0,6 1,6 0,6 2,5" /><path style="fill:none;stroke:#4c4c4c;stroke-width:2" d="M195,441 l1,-5 0,-4 1,-5 0,-4 1,-5 0,-4 1,-5 0,-5 0,-5 1,-5 0,-4 0,-4 0,-5 1,-4 0,-4 0,-3 0,1 1,2 2,2 3,3 2,4 3,4 2,4 2,5 1,5 1,5 0,6 -2,6 -2,6 -5,6 -6,6 -8,6" /></svg>