<!DOCTYPE svg PUBLIC "-//W3C//DTD SVG 20000303 Stylable//EN" "http://www.w3.org/TR/2000/03/WD-SVG-20000303/DTD/svg-20000303-stylable.dtd"[]><svg xmlns="http://www.w3.org/2000/svg" width="999px" height="895px" viewBox="0 0 465 414"><path style="fill:#f00" d="M259,190 l7,29 9,12 9,-3 10,-12 9,-19 9,-21 9,-21 7,-17 6,22 4,21 3,19 1,19 1,17 1,15 -1,15 0,12 -1,12 -1,10 -1,8 0,7 0,6 0,4 2,2 3,1 12,-27 11,-19 12,-14 12,-11 14,-12 16,-16 19,-23 24,-33 -3,19 -3,17 -2,16 -3,15 -2,14 -2,13 -2,14 -2,12 -3,13 -2,14 -3,13 -4,14 -4,15 -4,16 -6,17 -6,19 -379,0 -12,-22 -9,-20 -6,-18 -4,-17 -3,-16 -1,-15 1,-14 1,-14 3,-13 2,-12 3,-13 3,-12 2,-13 2,-14 1,-13 -1,-15 5,6 6,9 5,10 5,12 5,14 5,13 5,13 5,11 5,11 5,7 6,5 5,1 6,-2 6,-8 6,-14 6,-19 4,-19 1,-17 -1,-18 -2,-17 -1,-18 2,-20 5,-22 10,-24 12,38 10,25 9,14 8,4 6,-3 4,-11 2,-15 1,-18 4,-16 3,-17 4,-18 3,-18 4,-16 5,-15 5,-12 6,-9 1,24 2,21 3,18 5,15 4,13 6,12 6,9 5,9 6,8 5,7 4,7 4,8 3,8 1,9 -1,10 -2,12z" /><path style="fill:#ff7f00" d="M256,276 l7,25 7,10 8,-2 9,-10 8,-17 8,-18 7,-18 6,-14 8,36 4,31 1,26 -2,20 -2,16 -2,11 0,7 4,2 11,-23 9,-17 10,-12 11,-11 12,-11 14,-15 17,-20 20,-29 -3,16 -2,14 -2,12 -2,10 -2,10 -2,8 -2,8 -2,8 -2,8 -2,8 -3,8 -3,9 -3,11 -4,12 -5,13 -5,16 -328,0 -10,-18 -8,-16 -6,-14 -5,-12 -2,-11 -2,-10 -1,-9 1,-8 1,-8 1,-7 1,-8 2,-8 1,-9 1,-10 0,-11 -1,-12 10,11 10,16 11,16 11,15 11,9 11,-1 12,-13 11,-30 4,-14 0,-11 0,-9 -1,-7 0,-9 1,-10 5,-14 8,-19 10,34 8,24 6,16 5,8 3,1 2,-5 1,-10 0,-15 4,-14 3,-15 3,-16 3,-15 4,-15 3,-12 5,-11 5,-7 3,38 8,28 11,20 12,14 11,11 8,12 4,13 -2,19z" /><path style="fill:#ff0" d="M242,380 l6,18 8,6 9,-4 11,-12 10,-16 10,-17 9,-16 6,-11 -6,22 -5,17 -4,11 -2,6 0,4 1,1 2,0 4,0 14,-7 10,-3 8,-2 6,-2 7,-4 8,-8 10,-14 15,-21 -4,21 -3,12 -2,7 -3,4 -4,4 -4,6 -6,12 -7,20 -260,0 -14,-23 -7,-13 -3,-6 0,-2 2,0 2,-3 2,-7 0,-15 7,9 8,13 9,14 9,13 9,9 9,1 9,-10 9,-22 3,-11 0,-8 0,-6 -1,-6 0,-6 2,-8 3,-10 7,-15 7,26 6,18 5,12 3,6 3,1 1,-4 1,-8 0,-11 3,-13 3,-18 4,-20 3,-22 4,-21 4,-18 4,-14 4,-8 1,16 1,15 2,14 3,14 4,12 3,11 4,11 4,10 4,9 3,10 4,8 2,9 2,8 1,8 -1,9 -1,8z" /></svg>