<!DOCTYPE svg PUBLIC "-//W3C//DTD SVG 20000303 Stylable//EN" "http://www.w3.org/TR/2000/03/WD-SVG-20000303/DTD/svg-20000303-stylable.dtd"[]><svg xmlns="http://www.w3.org/2000/svg" width="932px" height="999px" viewBox="0 0 928 999"><path style="fill:#f00" d="M313,999 l-13,0 -13,-2 -12,-2 -11,-3 -11,-3 -11,-3 -11,-5 -10,-4 -10,-5 -9,-5 -10,-4 -10,-5 -10,-4 -10,-5 -10,-4 -11,-4 -15,-21 -15,-22 -14,-21 -12,-22 -12,-21 -10,-22 -11,-21 -9,-22 -8,-21 -7,-21 -7,-22 -6,-21 -5,-22 -4,-21 -4,-21 -2,-21 3,-19 4,-17 3,-18 4,-18 4,-18 3,-17 4,-19 4,-17 2,-18 4,-18 4,-18 3,-17 4,-18 4,-18 3,-18 4,-17 7,13 7,15 7,16 6,17 8,17 6,18 7,17 7,16 7,17 7,14 7,13 7,10 7,9 8,6 7,3 8,-1 8,1 8,-3 8,-6 7,-8 9,-10 7,-13 8,-14 7,-16 8,-16 7,-17 6,-18 7,-17 7,-18 6,-16 6,-16 5,-13 3,-16 2,-16 2,-16 1,-16 0,-17 0,-15 1,-17 1,-16 0,-16 3,-16 3,-16 4,-16 7,-16 8,-16 10,-16 12,-16 1,44 1,40 2,37 3,34 3,30 5,28 3,24 6,21 4,18 5,14 4,12 5,9 5,5 4,2 4,-1 3,-4 7,-13 7,-18 7,-19 9,-19 7,-15 6,-10 8,-1 5,10 4,12 3,13 2,15 2,15 2,17 3,15 2,16 2,15 3,14 3,13 3,11 4,9 6,6 5,3 6,1 8,-4 9,-11 8,-11 6,-12 3,-12 3,-12 2,-12 1,-13 0,-13 -1,-13 -1,-13 -2,-13 -1,-14 -1,-13 0,-12 1,-13 1,-13 4,-25 5,-22 7,-20 8,-17 9,-15 9,-15 10,-13 10,-12 10,-12 9,-11 9,-13 9,-13 6,-15 5,-15 3,-18 1,-20 22,21 20,22 16,23 13,24 11,23 9,23 6,25 5,24 2,24 1,24 -1,24 -2,23 -2,24 -4,22 -5,22 -5,22 2,27 0,25 0,26 -2,24 -3,22 -2,23 -3,21 -3,20 -3,19 -2,18 0,15 0,16 1,14 3,11 5,11 7,9 17,3 16,0 14,-2 11,-7 10,-8 10,-10 8,-13 8,-14 7,-15 9,-17 7,-17 9,-17 9,-18 10,-18 12,-17 14,-17 4,30 5,23 3,19 1,14 2,11 1,8 0,7 0,4 -1,6 -2,4 -1,6 -2,7 -2,10 -3,13 -3,17 -2,21 -4,44 -4,39 -7,35 -8,32 -8,28 -9,25 -10,21 -11,19 -10,16 -11,13 -11,12 -11,9 -11,8 -9,6 -10,4 -9,4 -12,-2 -12,-2 -13,-2 -13,-2 -12,-1 -13,-2 -12,-1 -12,-2 -13,-2 -13,-2 -13,-2 -11,-2 -13,-1 -13,-2 -12,-2 -13,-2 -18,0 -18,1 -17,1 -17,1 -16,2 -16,2 -16,1 -15,3 -16,2 -15,3 -16,2 -14,2 -16,2 -15,3 -16,2 -15,2z" /><path style="fill:#c30" d="M310,984 l-12,0 -11,-2 -10,-1 -10,-3 -10,-2 -9,-3 -9,-4 -9,-3 -9,-5 -9,-4 -8,-4 -9,-4 -8,-4 -9,-4 -10,-4 -9,-3 -13,-20 -13,-18 -12,-19 -12,-19 -10,-18 -9,-20 -9,-19 -8,-19 -8,-18 -6,-19 -7,-20 -4,-18 -5,-19 -3,-19 -4,-18 -3,-20 4,-15 3,-16 3,-16 3,-16 4,-15 2,-16 3,-16 4,-16 3,-15 3,-16 3,-15 3,-17 3,-15 3,-16 4,-15 3,-16 6,12 6,13 7,15 5,14 7,16 6,15 5,15 7,14 6,15 6,13 6,11 6,9 7,8 7,5 7,2 7,0 7,0 7,-2 7,-5 6,-7 8,-9 6,-11 6,-13 8,-14 6,-14 6,-16 6,-14 6,-16 6,-16 5,-14 6,-13 4,-13 3,-13 2,-15 1,-14 0,-14 1,-14 0,-15 0,-14 1,-14 1,-15 2,-13 3,-15 4,-14 5,-14 7,-15 10,-13 11,-15 0,38 2,36 3,33 5,30 4,27 6,24 6,21 6,19 7,16 6,13 7,10 5,7 6,4 4,3 5,-1 2,-3 7,-12 6,-17 7,-16 7,-17 6,-13 7,-8 5,-1 6,9 2,10 4,12 4,12 2,14 5,14 4,14 3,14 5,14 4,12 5,12 5,10 6,7 5,5 6,4 7,0 7,-3 8,-10 6,-10 6,-10 3,-11 2,-10 2,-12 0,-11 0,-12 -1,-10 -1,-12 -1,-12 -1,-11 -1,-12 0,-12 1,-11 1,-11 4,-22 4,-19 6,-17 7,-16 8,-14 9,-11 9,-12 8,-11 9,-10 8,-11 8,-11 7,-12 5,-13 5,-14 3,-15 1,-18 20,19 16,20 15,20 12,20 10,21 7,21 6,21 3,21 3,22 0,21 0,21 -2,21 -3,20 -3,20 -4,20 -4,20 1,23 0,22 0,22 -1,22 -2,20 -3,19 -2,19 -3,18 -2,16 -1,16 -1,14 0,13 1,12 2,11 4,9 7,8 15,4 14,0 12,-3 10,-5 9,-8 8,-9 8,-11 7,-12 7,-13 6,-15 8,-15 7,-16 8,-15 9,-16 11,-15 12,-15 5,26 2,21 3,16 2,13 2,9 1,7 0,6 -1,4 0,5 -2,3 -1,6 -2,6 -2,9 -2,11 -2,15 -3,19 -4,39 -4,34 -6,31 -6,29 -7,24 -9,22 -9,19 -9,17 -10,13 -10,12 -9,10 -10,9 -9,6 -9,5 -9,4 -7,3 -11,-2 -11,-1 -11,-2 -11,-1 -11,-1 -11,-1 -11,-2 -10,-2 -11,-1 -11,-2 -11,-2 -11,-1 -11,-1 -12,-2 -11,-2 -11,-2 -17,0 -17,1 -17,1 -18,1 -18,2 -18,1 -18,2 -19,1 -18,3 -17,2 -18,2 -17,2 -16,2 -16,2 -15,1 -15,2z" /><path style="fill:#f60" d="M156,913 l-6,-11 -5,-10 -5,-11 -5,-11 -5,-10 -4,-11 -4,-11 -4,-11 -3,-10 -2,-11 -2,-11 -2,-10 0,-11 0,-11 2,-10 2,-11 -1,-11 -2,-13 -3,-14 -4,-15 -4,-15 -5,-15 -4,-15 -4,-14 -2,-14 -2,-12 0,-12 2,-9 3,-7 6,-5 9,-2 12,1 12,8 12,7 13,7 12,7 13,7 12,7 12,7 12,8 7,-8 5,-14 6,-17 4,-18 4,-18 5,-17 6,-14 6,-8 8,-12 10,-14 12,-15 13,-16 12,-16 12,-15 11,-15 8,-12 4,5 3,6 3,6 3,8 3,9 1,9 2,10 3,11 2,12 3,11 3,12 4,12 4,13 6,11 6,12 8,11 2,-4 2,-7 2,-9 2,-12 3,-12 1,-15 2,-15 3,-16 3,-15 3,-15 4,-14 5,-13 4,-11 6,-7 7,-5 7,-2 8,17 5,19 1,22 -2,23 -5,24 -5,25 -7,24 -9,24 -8,24 -7,22 -6,21 -4,20 -3,17 1,14 5,11 8,7 23,-1 17,-6 11,-12 6,-16 3,-19 0,-21 -3,-22 -3,-22 -4,-22 -4,-19 -1,-17 0,-13 3,-8 8,-3 11,4 19,12 1,1 4,3 7,4 10,2 10,-3 9,-7 9,-17 6,-26 3,-11 2,-10 3,-10 1,-10 2,-10 2,-11 2,-10 3,-12 1,-11 3,-13 2,-13 4,-14 2,-14 4,-16 5,-17 4,-18 4,-4 8,-7 11,-12 13,-13 12,-13 12,-12 8,-7 3,-4 2,18 2,14 2,14 3,13 3,11 3,11 4,10 3,9 3,10 4,10 3,11 3,11 3,13 2,14 2,14 1,17 0,11 -1,13 -2,14 -3,15 -4,17 -4,17 -5,19 -4,20 -4,20 -4,20 -2,20 -2,20 -1,21 1,20 3,19 4,19 11,8 10,7 9,7 9,7 9,6 11,5 11,2 15,1 15,-11 13,-12 12,-10 10,-13 9,-12 9,-14 9,-14 9,-13 -2,14 -1,15 -1,14 -1,12 -1,14 0,13 -1,13 0,13 -1,14 -1,15 -2,14 -3,16 -3,17 -2,18 -5,19 -4,21 -11,13 -10,12 -8,14 -9,13 -10,13 -11,11 -13,12 -14,11 -14,-1 -13,-1 -13,0 -13,-1 -14,-1 -14,-1 -12,-1 -14,-1 -14,-1 -13,-1 -13,-1 -13,-1 -14,-1 -14,-1 -12,0 -14,-1 -21,0 -19,1 -18,0 -17,0 -15,1 -16,1 -15,1 -13,1 -14,1 -13,2 -12,1 -14,1 -13,1 -14,1 -14,1 -15,1 -17,-6 -18,-5 -16,-3 -16,-5 -18,-5 -18,-8 -19,-11 -20,-13z" /><path style="fill:#fc0" d="M170,927 l-9,-20 -6,-18 -4,-17 -3,-15 -1,-14 -1,-14 -2,-15 -3,-15 0,-10 -2,-12 -3,-15 -3,-16 -5,-19 -4,-18 -5,-19 -4,-18 -5,-18 -3,-16 -2,-15 0,-12 2,-9 5,-5 6,-1 9,3 7,6 8,9 10,10 11,11 10,11 10,10 9,8 7,7 8,3 8,7 8,8 8,6 6,5 6,1 7,-5 5,-12 1,-10 1,-11 2,-12 1,-13 2,-14 1,-14 2,-13 3,-14 3,-13 2,-12 4,-10 4,-8 3,-7 5,-4 5,-2 5,1 9,10 7,13 4,15 6,13 8,12 12,6 16,-1 23,-11 5,-1 3,2 3,4 2,8 2,9 0,10 0,13 0,12 -1,14 0,14 -1,13 -1,14 0,13 0,12 1,11 2,9 10,4 9,3 8,2 8,2 8,0 9,1 9,1 10,1 10,-6 9,-5 7,-6 8,-6 6,-8 5,-7 6,-9 5,-10 -3,-18 -7,-22 -7,-23 -7,-23 -5,-19 -1,-16 5,-8 12,0 12,-5 15,-13 17,-17 16,-21 15,-23 12,-23 9,-21 2,-18 7,-15 6,-16 6,-20 7,-17 6,-15 8,-12 8,-7 10,1 1,16 0,19 0,20 -1,23 -1,25 -1,25 -1,26 -1,26 -1,27 0,25 -1,26 0,23 1,22 1,20 2,19 2,14 6,10 7,11 6,12 6,12 7,10 7,8 8,7 10,2 11,-1 10,1 11,1 11,0 10,0 11,-1 11,-6 11,-8 2,11 2,10 3,11 1,10 3,11 1,11 2,10 0,11 -6,11 -5,11 -6,11 -4,10 -6,11 -5,11 -6,10 -5,11 -7,5 -8,6 -7,4 -6,6 -8,5 -7,5 -6,5 -8,6 -16,0 -16,0 -16,-1 -16,0 -16,-1 -16,-1 -16,-1 -16,-2 -16,-1 -16,-1 -17,-1 -15,-1 -17,-2 -15,-1 -17,-1 -15,-1 -11,3 -13,3 -14,2 -13,3 -15,3 -14,2 -14,1 -14,2 -13,1 -12,1 -11,0 -9,0 -8,-1 -6,-1 -4,-2 -1,-2 -16,-3 -16,-2 -16,-1 -16,-1 -16,-2 -16,-4 -16,-6 -16,-9z" /><path style="fill:#ff0" d="M184,856 l4,5 3,4 4,6 4,6 2,7 4,9 4,9 3,11 5,1 3,3 4,2 5,3 3,2 7,1 7,1 9,0 17,1 15,3 16,4 14,3 15,4 14,2 11,1 12,-3 13,-3 12,-3 10,-3 10,-3 10,-4 9,-2 9,-4 10,-3 10,-2 10,-2 11,-2 11,-1 13,-1 15,1 15,1 19,2 12,2 13,3 13,2 12,2 12,1 11,1 11,1 10,0 10,0 9,-1 8,-1 8,-1 8,-2 7,-2 6,-2 6,-2 7,-13 9,-13 11,-13 10,-12 8,-13 5,-13 -1,-12 -6,-11 -15,4 -11,0 -9,-2 -8,-4 -7,-4 -6,-4 -7,-3 -9,-1 -16,-6 -12,-11 -9,-15 -5,-20 -3,-22 -1,-25 1,-27 2,-28 1,-27 3,-29 1,-26 1,-25 -1,-23 -4,-19 -5,-14 -9,-11 -13,14 -10,17 -9,18 -7,19 -7,20 -5,20 -5,21 -4,20 -2,20 -3,19 -3,16 -2,16 -3,13 -4,11 -4,8 -5,4 -10,10 -9,11 -8,11 -9,10 -8,9 -8,9 -9,6 -10,6 -16,-1 -13,-2 -12,-4 -11,-4 -12,-4 -11,-6 -12,-4 -14,-4 -3,-5 -3,-8 -2,-11 -1,-11 0,-13 0,-14 0,-14 0,-12 -1,-13 -1,-11 -1,-10 -3,-7 -5,-5 -5,-2 -8,2 -10,5 -6,10 -9,16 -10,19 -10,20 -11,20 -10,19 -8,15 -7,10 -14,-1 -11,-2 -10,-3 -8,-4 -6,-4 -7,-6 -7,-4 -8,-4 3,16 -1,16 -3,15 -5,15 -2,15 -2,13 3,12 7,12z" /><path style="fill:#ff6" d="M313,927 l3,0 4,0 3,0 3,0 4,0 4,0 3,0 4,0 11,-8 17,-7 21,-7 22,-6 22,-8 18,-9 13,-11 5,-15 -20,1 -18,-2 -15,-4 -14,-6 -12,-7 -10,-10 -9,-10 -7,-12 -8,-13 -6,-13 -5,-13 -7,-12 -5,-12 -7,-11 -7,-10 -7,-9 -4,9 -5,15 -6,19 -7,21 -8,22 -8,18 -10,15 -10,9 -6,1 -5,1 -3,1 -5,1 -5,-1 -8,-3 -11,-5 -13,-9 1,19 4,16 6,12 7,10 7,9 7,7 6,6 4,7 10,1 9,2 8,2 9,2 9,2 9,2 9,1 9,2z" /><path style="fill:#ff6" d="M569,899 l-11,-8 -10,-5 -9,-3 -9,0 -7,-2 -6,-4 -3,-8 -1,-13 7,-2 8,-7 8,-10 6,-13 7,-16 7,-19 6,-19 6,-21 6,-22 6,-22 6,-22 5,-20 6,-20 5,-17 6,-15 4,-12 2,4 0,9 1,13 0,16 0,18 0,19 0,21 -1,21 0,21 1,21 1,19 1,18 2,16 2,13 4,9 5,4 7,1 7,1 9,2 10,2 12,1 15,0 16,-2 20,-5 -6,19 -7,12 -9,8 -9,5 -8,3 -7,3 -6,2 -4,6 -13,3 -12,1 -13,0 -12,-1 -12,-1 -13,-1 -13,-1 -13,0z" /></svg>