<!DOCTYPE svg PUBLIC "-//W3C//DTD SVG 20000303 Stylable//EN" "http://www.w3.org/TR/2000/03/WD-SVG-20000303/DTD/svg-20000303-stylable.dtd"[]><svg xmlns="http://www.w3.org/2000/svg" width="999px" height="749px" viewBox="0 0 999 735"><path style="fill:#f00" d="M626,735 l6,0 8,0 9,0 10,0 11,0 12,0 12,-1 14,0 13,0 15,0 15,0 15,0 15,-1 15,0 16,0 15,-1 15,0 15,-1 15,0 14,-1 13,0 13,-1 12,-1 11,-1 11,-1 9,-1 8,0 7,-2 5,-1 4,-1 3,-2 0,-1 6,-26 5,-24 3,-22 2,-20 1,-18 -1,-17 -1,-16 -2,-14 -3,-12 -3,-12 -4,-11 -5,-9 -5,-9 -6,-8 -6,-6 -6,-7 -6,-6 -6,-5 -7,-5 -6,-5 -6,-5 -6,-4 -6,-5 -5,-4 -5,-5 -4,-5 -4,-5 -3,-6 -2,-6 -1,-7 -1,-8 1,-9 -2,-7 -1,-8 -2,-7 -1,-8 -2,-7 -2,-7 -1,-8 -2,-7 -1,-8 -1,-7 -2,-8 -2,-7 -1,-8 -2,-7 -1,-8 -2,-7 -1,-7 -1,-8 -2,-7 -2,-8 -1,-7 -2,-8 -1,-7 -2,-8 -1,-7 -2,-7 -1,-8 -2,-8 -1,-7 -2,-8 -1,-7 -2,-8 -6,12 -6,12 -6,14 -5,14 -6,15 -6,15 -5,14 -6,14 -6,14 -5,12 -6,11 -6,9 -7,7 -6,4 -7,2 -6,0 -7,1 -6,-2 -7,-5 -6,-7 -6,-8 -7,-11 -6,-12 -7,-13 -6,-14 -6,-15 -6,-14 -5,-15 -5,-14 -6,-15 -5,-13 -5,-12 -2,-12 -2,-12 -1,-11 -1,-9 0,-9 0,-9 0,-8 -1,-8 -1,-8 -2,-9 -3,-9 -4,-9 -5,-10 -6,-11 -8,-11 -10,-13 0,18 0,18 -1,17 -1,15 -1,15 0,14 -2,13 -1,12 -1,11 -2,11 -1,9 -2,9 -2,8 -2,7 -2,6 -2,6 -2,5 -2,5 -2,4 -2,3 -2,3 -2,2 -2,2 -2,1 -2,0 -2,0 -1,0 -2,0 -2,-2 -1,-1 -1,-2 -2,-2 -3,-5 -3,-7 -3,-7 -4,-7 -3,-9 -3,-8 -4,-8 -3,-7 -3,-7 -3,-6 -3,-5 -3,-3 -3,-2 -3,0 -2,3 -3,5 -2,10 -3,10 -2,11 -3,11 -2,11 -3,12 -2,11 -2,11 -3,11 -2,11 -3,9 -2,9 -3,8 -3,7 -3,5 -3,4 -7,9 -6,4 -5,2 -4,-2 -3,-4 -1,-7 -2,-9 -1,-10 0,-12 -1,-13 0,-13 0,-13 0,-13 0,-13 -1,-12 -1,-11 -3,-20 -4,-18 -6,-13 -7,-12 -7,-9 -8,-8 -8,-7 -8,-6 -8,-5 -8,-6 -7,-6 -6,-8 -5,-9 -4,-11 -3,-14 -1,-16 -9,9 -9,8 -9,9 -7,7 -8,8 -6,8 -6,7 -5,8 -5,6 -5,7 -3,7 -4,7 -3,7 -3,6 -2,7 -2,7 -2,7 -1,7 -1,7 -1,7 0,7 -1,8 0,7 0,8 0,8 0,9 0,8 1,9 0,10 0,10 1,10 0,11 -2,22 0,19 0,19 2,17 2,15 2,14 2,13 2,12 2,11 2,10 1,10 0,9 -1,7 -3,8 -3,8 -6,6 -14,4 -11,1 -8,-2 -5,-3 -4,-5 -4,-6 -2,-9 -3,-11 -4,-12 -4,-13 -7,-15 -10,-16 -13,-18 -16,-19 -21,-21 -25,-21 -3,25 -4,23 -3,21 -4,21 -4,20 -4,18 -4,18 -5,16 -4,16 -5,15 -4,14 -5,13 -4,13 -4,12 -5,12 -4,11 -4,10 -4,10 -4,10 -3,9 -3,9 -3,9 -3,9 -3,9 -2,8 -1,9 -2,9 -1,9 0,9 0,9 0,10 1,9 5,5 5,4 6,4 7,3 7,3 7,2 8,3 8,1 9,2 9,1 9,1 9,1 9,0 9,1 10,0 9,0 10,0 9,0 9,0 9,0 9,-1 8,0 8,0 8,0 8,0 7,0 7,0 6,1 5,0 5,1 4,1 4,2 10,-2 11,-2 10,-2 11,-1 10,-2 11,-1 10,-2 11,-2 11,-1 10,-1 11,-2 10,-1 11,-2 10,-1 11,-2 10,-1 8,0 8,0 7,0 7,1 8,0 7,1 7,0 7,1 7,0 6,1 7,0 7,1 7,1 6,1 7,1 6,1 7,0 6,1 6,2 7,1 6,1 7,1 6,0 6,2 7,1 6,1 6,1 7,1 6,1 7,1 6,1 7,1z" /><path style="fill:#c30" d="M628,720 l6,0 5,0 7,0 6,-1 7,0 8,0 7,0 8,0 9,0 8,-1 9,0 8,0 9,-1 9,0 9,-1 9,0 9,-1 9,-1 8,0 9,-1 8,-1 9,-1 8,-1 8,0 7,-2 7,0 7,-1 6,-2 6,-1 6,-1 5,-1 4,-2 5,-2 6,-3 7,-2 7,-2 8,-1 7,-2 9,-1 8,-1 9,-1 8,-2 8,-2 8,-2 8,-3 7,-3 6,-3 5,-5 4,-5 4,-7 2,-7 1,-8 -1,-10 -2,-10 -4,-12 -5,-14 -8,-14 -9,-17 -12,-18 -14,-20 -16,-22 -18,-23 -21,-26 -25,-28 -1,-6 -1,-7 -2,-7 -1,-6 -2,-7 -1,-6 -1,-7 -2,-7 -1,-6 -1,-7 -1,-6 -2,-7 -1,-7 -1,-6 -2,-7 -1,-7 -2,-6 -1,-6 -1,-7 -1,-7 -2,-6 -1,-7 -1,-6 -1,-7 -2,-6 -1,-7 -1,-6 -1,-7 -2,-6 -1,-7 -1,-6 -1,-7 -5,10 -6,11 -5,12 -5,12 -5,13 -5,13 -6,12 -5,13 -5,11 -5,11 -5,9 -6,8 -5,6 -6,4 -5,3 -6,-1 -6,1 -6,-2 -5,-5 -6,-6 -5,-7 -6,-9 -5,-11 -6,-11 -5,-12 -5,-13 -5,-13 -5,-13 -5,-12 -5,-12 -4,-11 -5,-11 -2,-11 -1,-11 -1,-11 0,-10 0,-10 1,-10 0,-10 0,-9 0,-10 -1,-10 -2,-9 -3,-10 -4,-10 -5,-10 -7,-11 -9,-11 0,16 0,16 -1,14 -1,15 -2,13 -1,13 -2,12 -3,11 -2,10 -2,10 -3,9 -3,9 -2,8 -4,7 -2,7 -3,6 -4,6 -3,5 -3,5 -3,4 -3,3 -3,3 -3,2 -2,2 -3,1 -2,1 -3,1 -1,0 -2,0 -2,-1 -1,-2 -1,-1 -3,-5 -3,-5 -3,-7 -3,-7 -3,-7 -3,-7 -2,-7 -3,-7 -3,-6 -3,-5 -2,-4 -3,-3 -2,-1 -2,0 -2,3 -2,5 -3,8 -3,10 -3,10 -3,12 -3,11 -3,12 -4,12 -3,11 -4,10 -4,10 -5,8 -4,7 -5,4 -5,3 -6,1 -6,-3 -6,-7 -6,-7 -4,-7 -3,-7 -3,-6 -1,-6 0,-6 0,-6 0,-6 1,-7 0,-7 1,-6 1,-8 0,-8 -1,-9 -1,-9 -2,-19 -4,-16 -5,-14 -5,-13 -7,-11 -7,-11 -7,-9 -8,-9 -7,-9 -7,-9 -6,-9 -6,-9 -5,-11 -4,-11 -2,-13 -1,-15 -8,8 -8,8 -8,8 -7,8 -6,8 -6,9 -5,8 -5,9 -4,8 -4,9 -3,9 -3,8 -3,9 -2,9 -2,9 -1,9 -1,9 -1,9 -1,9 0,8 0,9 1,9 0,9 1,8 1,9 2,9 1,8 1,9 2,8 2,8 2,8 2,9 -1,19 -1,18 1,17 1,15 2,15 2,13 2,12 2,12 2,10 1,10 1,9 0,8 -1,7 -2,8 -4,6 -5,6 -13,3 -12,0 -11,-3 -11,-5 -10,-6 -9,-9 -9,-10 -9,-11 -8,-12 -9,-13 -8,-14 -8,-14 -10,-14 -9,-13 -10,-13 -10,-12 -2,11 -2,11 -2,11 -3,9 -2,9 -2,9 -2,9 -3,7 -2,8 -3,7 -2,7 -3,6 -2,7 -2,6 -3,6 -1,6 -3,6 -2,5 -1,6 -2,5 -2,6 -1,6 -1,6 -1,6 -1,6 -1,7 0,7 -1,7 1,7 0,8 1,8 1,9 -14,12 -11,12 -9,11 -7,11 -6,10 -4,9 -2,9 -1,9 0,7 2,8 3,7 5,6 5,6 7,5 7,5 9,5 10,4 10,4 11,3 11,3 12,2 13,3 12,2 13,1 14,1 13,1 14,0 13,0 14,0 13,0 13,-1 13,-1 9,-1 9,-1 10,-1 9,-1 9,-1 10,-1 9,-2 10,-1 9,-1 9,-2 10,-1 9,-1 9,-2 10,-1 9,-1 9,-2 7,0 7,1 7,0 7,0 8,0 7,1 7,0 8,1 7,0 8,1 7,0 8,1 8,1 7,1 8,1 7,0 8,1 7,1 8,1 7,1 8,0 7,1 7,1 7,1 7,0 7,1 7,1 6,1 7,0 6,1 7,0 5,1z" /><path style="fill:#f60" d="M768,700 l5,-8 9,-6 10,-5 13,-4 14,-3 14,-3 15,-2 16,-2 15,-1 13,-3 13,-2 11,-3 9,-4 6,-5 3,-7 0,-8 3,-7 2,-8 1,-7 1,-7 1,-8 0,-7 -1,-6 -1,-8 -1,-7 -2,-6 -3,-7 -3,-7 -3,-7 -4,-7 -4,-7 -4,-8 -5,-7 -6,-8 -6,-7 -6,-8 -6,-8 -7,-9 -7,-8 -8,-9 -8,-9 -8,-10 -8,-9 -9,-10 -9,-11 -9,-11 -10,-11 -10,-12 -5,3 -5,4 -6,3 -5,3 -5,3 -6,3 -5,3 -5,3 -5,4 -5,3 -5,3 -5,3 -5,2 -5,3 -5,3 -5,3 -4,-3 -2,-4 -3,-5 -2,-6 -2,-7 -2,-7 -2,-8 -2,-8 -2,-7 -2,-8 -2,-7 -2,-7 -2,-6 -2,-5 -3,-4 -3,-3 -3,-5 -4,-5 -4,-6 -4,-6 -5,-6 -5,-7 -5,-6 -6,-7 -5,-6 -5,-7 -5,-7 -5,-6 -4,-6 -4,-6 -4,-5 -3,-5 -4,4 -3,4 -2,6 -3,7 -2,7 -1,8 -2,8 -2,9 -2,10 -2,10 -3,10 -3,10 -4,10 -4,10 -5,10 -7,9 -2,-3 -2,-6 -2,-8 -1,-9 -2,-11 -2,-13 -2,-13 -2,-12 -3,-13 -2,-13 -4,-11 -3,-11 -4,-8 -5,-7 -6,-4 -7,-2 -3,7 -4,8 -2,7 -1,9 -1,9 0,9 1,9 1,10 2,10 2,10 2,10 3,10 3,11 3,10 3,11 4,10 3,10 3,10 3,9 3,10 3,9 3,8 1,9 2,7 1,8 1,7 0,6 -1,6 -1,5 -2,4 -3,3 -4,3 -11,0 -9,-1 -7,-2 -7,-4 -5,-4 -4,-6 -3,-6 -2,-7 -2,-8 -1,-8 0,-9 0,-9 1,-9 1,-9 2,-10 1,-9 2,-9 2,-9 1,-8 2,-8 1,-8 1,-6 0,-6 0,-5 -1,-4 -2,-3 -3,-2 -3,0 -5,1 -5,2 -7,4 -8,6 0,0 -2,0 -2,2 -2,1 -3,2 -3,1 -4,1 -4,1 -4,0 -4,-2 -4,-2 -4,-5 -4,-5 -3,-8 -3,-10 -3,-13 -2,-8 -2,-7 -2,-6 -1,-5 -2,-5 -1,-4 -2,-4 -1,-4 -2,-5 -2,-5 -2,-6 -2,-7 -3,-9 -3,-11 -3,-12 -4,-14 -1,-1 -2,-3 -3,-3 -4,-4 -5,-5 -5,-5 -5,-5 -5,-6 -6,-5 -5,-6 -5,-5 -5,-4 -4,-4 -3,-3 -2,-2 -1,0 -1,14 -2,13 -2,11 -2,11 -2,9 -3,9 -3,9 -2,8 -3,8 -3,9 -3,9 -3,9 -2,11 -2,11 -2,13 -2,14 0,9 2,8 2,9 2,10 4,9 3,11 4,10 4,11 3,12 3,12 2,13 2,13 0,14 0,14 -3,15 -3,16 -5,3 -5,3 -4,2 -4,3 -4,3 -3,3 -4,3 -4,3 -4,2 -4,2 -4,2 -4,2 -5,1 -5,1 -6,1 -6,0 -7,-5 -7,-5 -7,-6 -7,-6 -7,-7 -8,-7 -7,-7 -6,-7 -7,-7 -7,-7 -6,-7 -5,-8 -6,-7 -5,-6 -4,-7 -4,-6 0,7 -1,8 -2,9 -2,11 -3,10 -4,12 -5,13 -4,13 -6,13 -5,14 -6,13 -6,14 -6,14 -6,13 -6,14 -5,13 -5,13 -5,12 -4,12 -4,10 -3,10 -2,9 -1,8 -1,6 1,6 1,4 3,2 4,1 6,-1 7,-3 8,-5 10,-6 8,16 8,13 10,10 11,6 12,4 12,1 13,0 13,-2 13,-2 13,-3 12,-3 12,-3 11,-2 10,0 9,1 7,3 11,-1 12,0 11,-1 11,0 11,-1 12,-1 11,-1 11,0 11,-1 12,-1 11,-1 11,-1 12,-1 11,0 11,-1 11,-1 18,0 16,1 15,1 14,0 13,1 13,1 12,1 12,1 11,1 11,0 11,1 11,1 11,1 11,1 12,0 12,1 8,-2 8,-1 7,0 8,1 8,1 8,2 7,2 8,1 8,2 8,1 9,0 8,0 8,-1 9,-3 9,-5 9,-6z" /><path style="fill:#fc0" d="M746,674 l5,-8 9,-7 10,-4 11,-3 13,-2 14,-1 14,0 15,0 14,0 14,0 13,0 11,-1 10,-1 8,-3 6,-4 4,-6 -9,-6 -6,-6 -6,-6 -4,-5 -2,-5 -2,-4 -1,-4 0,-4 1,-3 1,-4 2,-3 2,-4 2,-3 2,-4 2,-4 2,-5 1,-4 1,-5 0,-6 -1,-6 -2,-7 -2,-8 -4,-8 -6,-10 -6,-10 -9,-11 -10,-12 -12,-14 -14,-14 -16,-16 -18,-17 -21,-19 -2,3 -3,3 -4,4 -3,3 -4,5 -4,4 -5,5 -4,4 -5,5 -4,4 -4,4 -5,5 -4,4 -3,3 -4,3 -3,3 -7,3 -6,5 -7,7 -6,5 -5,4 -5,1 -5,-4 -5,-9 -1,-9 -1,-9 -1,-11 -1,-11 -2,-12 -1,-11 -2,-12 -2,-11 -2,-11 -3,-9 -3,-9 -2,-7 -4,-6 -3,-4 -4,-1 -5,1 -4,4 -3,4 -3,5 -3,6 -2,6 -2,6 -3,6 -2,5 -3,5 -4,5 -4,3 -5,2 -6,0 -8,-2 -8,-3 -10,-6 -5,0 -3,2 -2,4 -2,6 -1,8 0,9 0,10 0,11 0,11 1,12 1,12 0,11 0,11 0,9 -1,9 -1,7 -4,3 -4,1 -4,2 -4,1 -4,1 -3,0 -4,1 -3,0 -4,0 -3,1 -4,0 -4,0 -3,1 -4,0 -4,1 -5,1 -8,-5 -8,-5 -6,-4 -6,-5 -5,-6 -4,-6 -5,-7 -4,-9 1,-7 1,-9 3,-8 3,-10 3,-9 3,-11 3,-9 2,-9 3,-9 2,-8 1,-7 0,-6 -1,-5 -3,-2 -3,-2 -6,1 -5,-1 -5,-1 -6,-2 -7,-3 -6,-3 -7,-4 -6,-5 -6,-4 -6,-5 -6,-6 -5,-6 -4,-6 -4,-5 -3,-7 -2,-6 0,-7 -3,-5 -3,-7 -3,-6 -3,-8 -2,-8 -3,-7 -2,-8 -3,-7 -2,-7 -3,-7 -3,-5 -3,-5 -4,-3 -3,-2 -4,-1 -5,1 0,6 0,7 -1,7 0,7 0,8 0,8 0,8 0,8 0,8 0,9 1,8 0,9 0,9 0,9 0,9 0,9 0,9 1,9 0,8 0,9 0,9 0,8 -1,9 0,8 0,8 0,7 -1,8 0,7 -1,7 -1,7 -1,6 -1,6 -3,4 -3,4 -3,4 -2,5 -3,5 -3,5 -2,5 -3,5 -2,4 -3,4 -3,4 -3,3 -4,3 -3,2 -4,1 -5,1 -5,-1 -6,-1 -8,-1 -8,-1 -9,0 -9,-1 -9,-2 -11,-1 -9,-2 -10,-1 -9,-2 -9,-3 -8,-3 -8,-3 -6,-4 -5,-4 -1,5 -1,5 -2,5 -1,5 -1,6 -2,5 -1,6 -2,6 -1,6 -1,5 -1,6 -1,5 -1,6 0,5 -1,5 0,4 1,6 -2,5 -5,4 -5,4 -8,3 -7,4 -8,3 -7,4 -6,5 -5,5 -2,6 0,8 3,8 7,10 11,12 16,14 4,1 7,2 9,1 10,1 12,0 13,0 14,0 13,0 14,-1 13,0 13,0 12,1 10,0 9,1 6,2 4,2 7,0 7,0 7,0 6,0 7,0 7,0 7,0 7,-1 7,0 6,0 7,-1 7,0 6,-1 7,0 7,-1 7,0 6,0 7,-1 7,0 6,-1 7,-1 7,0 6,-1 7,-1 7,0 6,0 7,-1 6,-1 7,0 7,-1 7,0 6,-1 10,3 11,3 11,2 11,2 12,3 12,2 12,1 12,1 11,1 10,1 9,0 8,0 6,-1 5,-1 3,-2 1,-2 7,-2 7,-1 7,0 7,-1 6,0 7,0 7,-1 7,0 7,-1 6,-1 7,-1 7,-2 6,-2 7,-3 6,-3 7,-4z" /><path style="fill:#ff0" d="M865,617 l-2,2 -6,2 -8,2 -10,2 -11,2 -12,2 -14,3 -13,2 -14,3 -13,2 -13,3 -11,4 -10,3 -8,4 -6,4 -2,4 -4,2 -4,2 -3,2 -3,2 -4,2 -5,1 -6,1 -8,1 -7,0 -7,1 -6,1 -7,0 -7,2 -6,1 -6,2 -6,1 -6,2 -6,1 -6,1 -5,1 -6,0 -5,0 -5,0 -4,-1 -11,-3 -10,-2 -9,-3 -9,-3 -8,-3 -8,-2 -8,-3 -7,-2 -8,-3 -9,-2 -9,-1 -10,-1 -11,0 -12,1 -13,1 -15,1 -6,1 -7,1 -8,1 -8,1 -9,1 -9,0 -10,0 -11,1 -10,0 -11,0 -12,0 -11,0 -12,0 -11,-1 -12,0 -12,0 -11,-1 -12,0 -11,-1 -11,-1 -10,-1 -10,0 -10,-1 -9,-1 -9,-1 -8,-1 -7,-1 -6,-1 -6,-1 -5,-1 -3,-1 -3,-1 14,-7 11,-6 8,-7 6,-7 5,-7 2,-7 1,-6 0,-7 0,-7 -1,-6 -1,-6 -1,-6 0,-6 1,-6 2,-5 4,-4 7,2 8,2 8,1 9,2 10,1 10,1 10,1 10,1 9,1 10,0 9,1 8,0 8,1 6,0 5,0 5,0 7,-2 7,-3 5,-4 5,-5 4,-6 3,-7 3,-8 2,-8 1,-9 1,-10 1,-10 0,-11 0,-11 -1,-11 0,-12 -1,-12 -1,-12 -1,-11 -1,-12 -1,-12 -1,-11 0,-11 -1,-11 0,-10 0,-10 1,-9 1,-8 1,-8 2,-7 3,-6 3,-5 4,-4 6,6 5,6 5,7 4,7 4,8 4,8 3,7 3,9 3,8 2,9 3,8 2,9 2,8 1,9 2,9 2,8 1,8 1,8 2,8 1,8 1,7 1,7 1,7 1,6 2,6 1,5 1,5 2,4 1,4 2,2 2,3 2,1 5,5 4,4 4,5 4,5 4,4 3,4 3,5 4,4 3,4 3,4 4,4 3,3 4,3 3,3 4,2 4,2 7,0 6,-1 6,0 6,-2 5,-1 5,-1 5,-2 5,-1 4,-2 5,-2 5,-2 5,-2 5,-3 5,-1 6,-3 6,-1 3,-5 2,-7 1,-9 1,-10 0,-10 0,-12 0,-11 0,-11 0,-11 1,-9 2,-8 3,-6 3,-4 5,-1 7,1 8,5 3,4 3,4 3,6 4,7 4,8 4,8 4,8 5,9 4,9 4,8 4,8 4,8 4,6 3,6 3,5 3,4 7,-1 8,-2 8,-4 9,-4 9,-5 9,-6 10,-6 9,-7 9,-6 8,-7 8,-6 8,-6 7,-5 6,-5 5,-4 5,-2 -8,23 -3,21 0,18 3,15 5,13 7,10 9,9 9,8 10,6 10,5 9,5 7,3 6,4 4,3 0,4 -3,4z" /><path style="fill:#ff6" d="M411,649 l9,-7 9,-4 7,-1 7,-2 6,-1 5,-4 2,-7 1,-11 -3,0 -3,-1 -3,-3 -3,-3 -3,-4 -3,-4 -3,-5 -3,-6 -3,-6 -2,-7 -3,-8 -3,-8 -3,-8 -2,-8 -3,-9 -3,-9 -2,-9 -3,-9 -2,-9 -2,-9 -3,-9 -2,-9 -3,-9 -2,-8 -2,-9 -3,-8 -2,-7 -2,-7 -2,-7 -2,-6 -2,-6 -2,-5 -2,5 -1,7 -1,11 0,13 -1,14 0,17 -1,17 -1,18 -1,18 -2,17 -1,16 -2,15 -2,13 -3,11 -3,7 -4,4 -3,0 -4,0 -4,0 -4,-1 -5,0 -6,-1 -6,-1 -6,-1 -7,0 -7,-1 -7,-2 -8,-1 -8,-2 -8,-1 -9,-2 -8,-2 1,9 0,7 -1,6 -2,6 -3,5 -3,4 -3,4 -4,3 -4,4 -4,2 -3,3 -4,3 -2,2 -2,3 -1,3 1,3 6,1 9,1 11,0 12,0 14,0 15,0 15,0 15,-1 16,0 15,-1 15,-1 13,-1 13,0 11,-1 9,0 6,0z" /><path style="fill:#ff6" d="M626,674 l-3,0 -2,0 -3,0 -3,0 -3,0 -2,0 -3,0 -3,0 -4,-4 -6,-4 -6,-3 -8,-3 -9,-3 -9,-3 -10,-3 -9,-2 -10,-4 -8,-3 -9,-3 -7,-5 -6,-4 -5,-5 -3,-6 -1,-7 17,1 15,-1 14,-3 11,-5 10,-7 9,-7 7,-9 7,-10 6,-10 5,-11 5,-11 5,-10 4,-10 5,-10 6,-9 6,-7 2,3 1,4 2,6 2,7 3,8 2,8 3,9 3,9 3,9 4,9 3,8 4,8 4,7 4,6 5,5 4,4 3,0 5,-1 5,0 6,-1 6,-1 7,-2 7,-1 7,-2 8,-2 8,-3 8,-3 7,-3 8,-3 8,-4 7,-4 7,-4 -1,9 -3,8 -4,8 -6,7 -6,8 -8,7 -8,6 -9,6 -8,5 -9,6 -8,4 -7,5 -6,4 -6,3 -4,4 -2,2 -4,1 -3,1 -4,1 -4,1 -3,0 -4,1 -4,1 -3,0 -4,1 -4,1 -4,1 -4,0 -4,1 -4,1 -4,1 -4,1z" /></svg>