<!DOCTYPE svg PUBLIC "-//W3C//DTD SVG 20000303 Stylable//EN" "http://www.w3.org/TR/2000/03/WD-SVG-20000303/DTD/svg-20000303-stylable.dtd"[]><svg xmlns="http://www.w3.org/2000/svg" width="789px" height="999px" viewBox="0 0 339 436"><path style="fill:#f00;stroke:#4c4c4c;stroke-width:2" d="M107,436 l-9,0 -9,-2 -10,-3 -10,-4 -11,-6 -9,-8 -10,-10 -9,-13 -4,-6 -3,-6 -5,-4 -4,-5 -4,-6 -4,-8 -3,-11 -3,-15 1,-11 1,-10 1,-11 1,-10 1,-11 1,-10 1,-11 1,-10 12,15 8,0 5,-10 3,-18 1,-22 2,-22 3,-21 4,-14 3,8 4,7 4,7 5,7 4,9 3,10 1,12 -1,16 1,8 1,8 1,8 1,8 1,8 2,9 4,10 5,11 2,-2 1,-5 0,-8 1,-9 0,-8 1,-8 0,-5 2,-2 8,-5 3,0 2,0 2,-10 -3,-13 -2,-10 -3,-9 -2,-8 -2,-9 -2,-11 -1,-14 0,-18 1,-7 1,-6 1,-7 1,-7 1,-6 0,-7 1,-6 1,-7 6,-8 7,-17 7,-21 7,-21 6,-16 6,-9 4,3 4,19 2,9 2,7 3,5 3,6 2,8 1,12 -2,16 -4,22 5,8 5,6 4,5 4,6 4,6 3,8 3,9 3,13 0,10 0,12 1,12 1,12 2,12 2,10 4,9 5,7 14,-25 8,-10 3,3 1,12 -2,17 -1,17 -1,16 1,9 4,-5 4,-4 4,-3 4,-3 4,-4 4,-6 3,-9 3,-12 0,-8 0,-8 0,-7 0,-8 0,-8 0,-7 0,-8 0,-8 10,20 6,4 3,-8 2,-16 0,-20 0,-20 0,-18 2,-10 6,13 5,10 5,8 5,6 4,5 5,4 4,3 5,4 3,9 5,8 4,7 5,7 4,8 3,10 1,13 -2,15 -9,15 -9,16 -8,17 -8,16 -5,14 -3,11 0,7 4,3 28,-13 10,-2 -2,7 -11,14 -16,17 -17,18 -15,16 -8,12 -6,10 -7,6 -8,3 -8,1 -8,1 -8,0 -8,0 -8,2 -12,0 -13,0 -12,0 -13,0 -13,0 -12,0 -13,0 -12,0z" /><path style="fill:#f60" d="M107,428 l-9,-4 -7,-1 -7,1 -7,0 -7,-2 -9,-5 -10,-10 -13,-17 -5,-6 -5,-7 -3,-8 -4,-8 -3,-8 -4,-8 -3,-8 -4,-8 1,-18 2,-11 4,-5 4,-1 4,0 4,-1 2,-2 2,-8 5,-11 3,-12 2,-13 2,-14 1,-13 2,-13 3,-13 5,-11 2,9 1,8 1,9 0,8 1,9 0,9 1,8 2,9 3,20 3,13 3,8 4,5 3,3 2,2 3,4 2,7 2,-1 4,-5 3,-6 3,-6 3,-4 2,-1 0,5 -2,10 12,-4 7,-8 4,-9 1,-12 0,-11 -1,-12 0,-11 1,-10 -3,-11 -4,-10 -4,-11 -3,-10 -3,-10 -1,-10 0,-11 2,-11 1,-7 0,-6 0,-7 -1,-7 0,-6 0,-7 0,-6 0,-7 6,-9 5,-8 4,-9 5,-9 4,-8 4,-9 5,-9 6,-9 0,10 -1,10 -1,10 -2,9 -2,9 -2,9 0,10 0,10 5,8 5,8 4,7 5,7 4,8 4,7 5,8 6,8 0,11 1,12 2,13 1,14 1,14 2,13 1,13 0,10 3,5 5,5 5,5 6,4 5,5 6,5 4,5 4,5 4,-6 5,-5 5,-4 5,-5 5,-4 5,-4 5,-5 4,-6 0,-8 0,-7 0,-8 0,-7 0,-8 0,-7 0,-8 0,-8 7,16 5,4 4,-5 2,-11 1,-15 1,-16 1,-15 2,-12 5,5 4,6 3,8 4,8 3,8 4,8 3,6 5,5 2,8 2,6 2,5 2,4 1,4 2,4 2,7 2,8 -5,12 -7,13 -7,12 -8,12 -7,13 -8,12 -6,13 -6,12 1,5 7,1 10,-1 9,0 6,3 -1,8 -13,17 -26,28 -8,7 -8,5 -8,4 -8,1 -7,2 -7,1 -8,1 -7,2 -12,0 -13,0 -12,0 -13,0 -13,0 -12,0 -13,0 -12,0z" /><path style="fill:#ff0" d="M121,422 l-7,-3 -8,-2 -9,0 -7,-1 -8,-1 -6,-4 -5,-7 -4,-10 -4,-6 -4,-5 -5,-6 -5,-6 -5,-6 -4,-7 -4,-8 -3,-10 13,-5 9,-6 5,-5 2,-7 0,-7 -1,-7 -3,-8 -4,-9 4,-3 5,5 6,9 5,13 5,12 6,10 5,4 4,-3 8,14 6,6 2,1 1,-4 0,-6 -1,-8 -1,-7 -1,-5 2,1 3,2 3,1 3,2 2,-6 3,-6 3,-6 4,-7 2,-6 1,-6 -1,-7 -3,-8 -1,-7 1,-6 1,-4 2,-3 2,-3 1,-4 0,-6 -1,-7 0,-6 -2,-8 -3,-10 -3,-11 -4,-10 -2,-10 -2,-9 0,-6 16,31 8,11 3,-3 -2,-14 -5,-19 -4,-22 -2,-18 2,-12 2,10 3,11 6,14 6,13 6,14 5,13 4,12 2,9 3,8 0,12 -1,12 -2,13 -2,11 1,9 2,4 6,-2 0,8 1,7 1,8 1,8 1,8 1,8 1,8 0,7 8,7 8,1 7,-3 7,-5 6,-6 5,-5 4,-3 3,1 3,-4 3,-5 4,-4 3,-5 4,-4 3,-4 4,-5 3,-4 1,-13 0,-6 -1,-2 -2,1 2,-2 5,-9 9,-17 3,-1 2,-8 1,-12 1,-12 1,-9 0,-4 0,5 1,16 10,7 5,7 3,7 1,8 -1,7 -1,7 0,8 1,7 -5,9 -5,10 -7,9 -7,10 -7,10 -7,9 -5,10 -5,9 0,5 4,2 6,0 8,0 6,0 4,2 0,4 -7,8 -6,4 -5,6 -5,7 -6,8 -8,7 -10,6 -12,3 -16,0 -10,0 -10,0 -10,0 -11,0 -11,0 -10,0 -10,0 -10,0z" /><path style="fill:#fff" d="M131,421 l-10,-2 -7,-2 -5,-2 -4,-2 -2,-3 -1,-5 -1,-5 0,-8 3,1 5,3 7,2 8,2 8,1 6,-1 3,-5 0,-8 6,-5 2,-4 -2,-5 -4,-5 -4,-5 -5,-4 -3,-4 -1,-3 3,-3 9,3 8,3 3,-3 1,0 2,5 3,7 3,8 2,8 3,7 2,5 1,0 6,-8 5,-5 5,-2 6,-1 5,0 7,1 8,-1 10,-1 -1,4 -2,5 -1,5 -2,6 -1,6 -2,6 -1,5 -2,3 -3,1 -6,1 -7,1 -7,0 -7,1 -7,1 -6,0 -3,1 -4,0 -4,0 -4,0 -4,0 -5,0 -4,0 -4,0 -4,0z" /></svg>