<!DOCTYPE svg PUBLIC "-//W3C//DTD SVG 20000303 Stylable//EN" "http://www.w3.org/TR/2000/03/WD-SVG-20000303/DTD/svg-20000303-stylable.dtd"[]><svg xmlns="http://www.w3.org/2000/svg" width="998px" height="563px" viewBox="0 0 999 536"><path style="fill:#ff0;stroke:#4c4c4c;stroke-width:2" d="M108,364 l-1,4 -2,4 -1,3 -2,1 -2,1 -2,1 -2,-1 -1,-1 -2,-1 -2,-3 -2,-3 -2,-4 -2,-4 -2,-6 -2,-5 -1,-6 -2,-7 -2,-8 -2,-8 -2,-8 -1,-9 -2,-9 -2,-10 -1,-10 -2,-11 -1,-11 -1,-12 -2,-12 -1,-12 -1,-12 -1,-13 -1,-14 -1,3 0,3 -1,3 -1,5 0,5 -1,6 -1,6 0,6 -1,7 -1,7 -1,7 -1,7 -1,7 0,7 -2,6 -1,7 -1,5 -2,6 -1,4 -2,4 -2,3 -2,2 -2,1 -3,1 -3,-1 -3,-2 -3,-4 -3,-5 -4,-6 -4,-8 -4,-10 -4,-11 0,10 0,11 0,10 0,9 1,10 0,9 1,8 1,9 1,8 1,8 1,8 0,8 1,7 2,7 1,8 1,6 1,7 1,7 1,6 2,7 1,6 1,7 1,6 1,6 2,6 1,6 1,6 1,7 1,6 1,6 1,6 1,7 5,2 5,3 3,3 4,2 3,2 3,2 2,2 3,2 2,2 2,2 3,1 2,2 2,1 3,2 3,1 3,1 3,2 4,1 5,1 5,1 6,2 6,1 7,1 8,1 9,1 10,1 11,1 11,2 13,1 14,1 16,1 17,1 10,0 9,-1 10,-1 9,0 9,-1 9,0 9,-1 8,0 9,-1 9,0 8,0 8,0 8,-1 9,0 8,0 8,0 8,-1 8,0 9,0 8,0 8,0 9,-1 8,0 9,0 8,-1 9,0 9,-1 9,0 10,-1 9,-1 10,0 10,-1 9,0 10,0 9,1 10,0 9,1 10,0 9,1 9,1 10,1 9,0 9,1 10,1 10,0 9,1 10,1 10,0 11,0 10,0 11,0 10,0 12,0 11,-1 12,-1 12,-1 12,-2 13,-2 13,-2 14,-2 14,-3 14,-3 14,-4 16,-4 4,1 4,1 5,1 4,1 5,0 5,1 5,1 5,0 6,0 5,0 5,-1 6,-1 5,-1 5,-2 6,-2 5,-2 5,-3 5,-4 5,-5 5,-4 5,-6 4,-6 5,-8 4,-7 4,-9 4,-10 3,-10 3,-12 4,-12 2,-14 3,-14 2,-16 -1,-7 -1,-7 -1,-7 -1,-8 -1,-7 0,-7 -1,-7 -1,-7 -1,-7 -1,-7 -1,-7 -1,-8 0,-7 -1,-7 -1,-7 -1,-7 -1,-7 -1,-7 -1,-8 0,-7 -1,-7 -1,-7 -1,-7 -1,-7 -1,-7 0,-7 -1,-8 -1,-7 -1,-7 -1,-7 -1,-7 0,-8 -1,17 0,14 -2,11 -1,9 -2,6 -2,5 -3,3 -2,0 -3,0 -4,-2 -3,-3 -3,-4 -4,-5 -3,-5 -4,-6 -3,-6 -4,-6 -3,-6 -3,-6 -3,-5 -2,-4 -3,-4 -2,-2 -2,-1 -1,0 -1,2 -1,3 0,6 1,8 1,10 1,13 3,15 1,5 2,4 2,4 2,4 2,3 2,3 2,4 2,3 2,4 2,5 2,5 2,6 2,7 1,8 2,10 1,11 -4,8 -3,9 -3,9 -4,9 -3,10 -3,11 -3,9 -3,10 -3,9 -3,8 -3,8 -4,6 -4,5 -4,3 -5,2 -5,0 -8,-2 -7,-4 -4,-4 -3,-6 -1,-6 0,-8 2,-8 2,-8 2,-9 4,-9 3,-9 3,-9 3,-10 2,-8 2,-8 0,-8 -5,-2 -4,-2 -3,-4 -2,-4 -2,-5 -1,-6 0,-6 0,-6 1,-6 0,-7 2,-7 1,-7 1,-7 1,-6 1,-7 1,-6 1,-5 0,-5 0,-4 0,-4 -1,-3 -2,-1 -3,-1 -4,0 -4,2 -5,3 -7,4 -7,6 -9,7 -11,9 -11,11 -14,12 2,8 2,7 1,7 2,7 2,8 1,7 2,7 2,7 1,7 2,7 2,7 2,7 1,7 2,7 2,7 1,7 -5,-13 -5,-10 -5,-8 -4,-7 -3,-5 -3,-3 -2,-1 -2,-1 -2,1 -1,3 -1,3 -1,4 0,6 0,6 0,7 1,8 0,8 0,8 1,9 1,9 1,9 1,10 1,9 0,9 1,9 1,8 0,8 0,8 0,6 0,6 0,5 -1,4 -2,-1 -2,-2 -2,-4 -2,-4 -1,-5 -1,-5 -1,-7 -1,-6 0,-7 -1,-7 0,-7 -1,-7 0,-7 -1,-6 -1,-7 0,-6 -2,-5 -1,-4 -2,-4 -2,-3 -2,-2 -3,0 -3,0 -3,2 -5,3 -4,5 -6,6 -6,8 -6,11 -8,11 -8,15 -9,16 2,-5 2,-5 1,-6 2,-5 2,-5 1,-6 2,-5 2,-5 1,-6 2,-5 2,-6 1,-5 2,-6 2,-5 2,-6 1,-5 4,-13 3,-12 3,-11 2,-10 1,-9 2,-9 0,-8 0,-7 0,-7 0,-6 -1,-5 -1,-5 -1,-4 -2,-5 -2,-3 -2,-4 -2,-3 -2,-3 -3,-3 -2,-3 -2,-2 -3,-3 -2,-3 -3,-3 -2,-3 -2,-3 -2,-3 -2,-4 -2,-4 -2,-4 -1,-5 -1,-5 -4,7 -5,5 -6,6 -6,4 -6,4 -6,4 -6,4 -6,4 -5,5 -4,6 -4,6 -3,9 -2,9 0,12 1,14 3,16 3,21 1,16 -1,13 -3,9 -4,6 -5,4 -7,2 -7,0 -8,0 -8,-1 -8,-1 -8,-1 -7,0 -7,2 -6,4 -4,5 0,-5 1,-4 0,-5 2,-4 1,-4 2,-3 1,-4 3,-3 1,-3 3,-2 2,-3 2,-3 3,-3 2,-2 2,-3 2,-3 2,-3 2,-3 2,-3 1,-4 2,-3 0,-4 1,-4 0,-5 0,-5 0,-5 -2,-6 -1,-6 -2,-7 -3,-7 -3,-8 -3,-9 -4,-3 -3,-3 -3,-4 -3,-5 -2,-5 -3,-5 -2,-5 -1,-6 -2,-6 -2,-7 -2,-6 -1,-7 -1,-7 -2,-7 -1,-7 -1,-7 -2,-7 -1,-7 -1,-7 -2,-7 -1,-6 -2,-7 -1,-6 -2,-6 -2,-6 -2,-5 -2,-6 -3,-4 -3,-5 -3,-3 -3,-4 -3,-3 1,6 0,6 -1,6 -1,6 -2,6 -2,6 -2,6 -3,5 -3,6 -3,6 -3,6 -4,7 -3,6 -3,7 -4,7 -3,7 -3,8 -2,7 -3,9 -2,8 -2,9 -1,9 0,10 0,10 1,11 1,12 2,12 3,12 4,13 5,14 5,14 7,16 -2,3 -3,4 -2,4 -3,3 -2,4 -2,3 -3,4 -2,3 -2,3 -2,3 -2,2 -2,2 -1,2 -2,1 -2,1 -1,0 -1,0 -2,0 -1,-2 -1,-2 -2,-2 -1,-4 -1,-4 -1,-5 -1,-6 -1,-6 -1,-8 -1,-9 0,-9 -1,-11 -1,-12 0,-12 -5,2 -4,3 -3,5 -2,6 -2,7 -1,6 -1,7 0,6 -1,6 -1,5 -1,3 -2,2 -2,0 -3,-3 -4,-5 -5,-7 0,-5 -1,-7 1,-7 0,-8 1,-9 1,-9 2,-10 1,-11 1,-11 2,-11 2,-11 2,-11 1,-11 2,-11 1,-10 1,-10 1,-9 1,-8 0,-8 0,-7 -1,-5 -1,-5 -1,-3 -3,-1 -2,0 -4,1 -4,4 -4,5 -6,7 -7,10 -7,12 -8,14 -3,2 -3,1 -3,0 -3,-1 -4,-2 -3,-2 -4,-2 -4,-4 -4,-3 -4,-4 -4,-4 -4,-3 -4,-4 -4,-3 -4,-3 -4,-3 -3,-1 -4,-2 -3,0 -3,1 -3,1 -3,3 -2,4 -2,6 -2,7 -2,9 -1,10 -1,13 0,14 0,16 1,19 1,21 2,6 2,6 3,4 3,4 3,4 4,3 3,4 3,4 3,4 2,6 2,7 2,9 0,10 0,12 -1,15 -2,17 -3,4 -4,5 -4,4 -3,5 -4,4 -3,4 -3,4 -3,3 -3,2 -3,2 -3,1 -3,0 -3,-2 -2,-3 -3,-4 -3,-6 6,-14 4,-12 2,-10 2,-9 0,-8 -1,-6 -1,-6 -2,-5 -3,-4 -2,-4 -3,-3 -3,-4 -2,-3 -2,-4 -1,-5 0,-5 -3,-2 -3,-3 -2,-4 -2,-4 -2,-4 -2,-6 -2,-5 -1,-6 -2,-6 -2,-6 -1,-5 -2,-6 -2,-6 -1,-5 -2,-5 -2,-4 -2,-4 -2,-3 -2,-3 -2,-1 -3,-1 -2,1 -3,1 -4,3 -3,4 -4,6 -4,7 -4,8 -4,11 -5,11 -6,14 -6,16 -2,1 -4,0 -5,-2 -5,-3 -5,-2 -6,-3 -5,-3 -5,-2 -4,-1 -4,0 -2,1 0,4 1,6 3,8 6,11 8,15 1,2 0,2 0,2 0,1 0,2 -1,1 0,1 -1,2 -1,1 0,1 -1,1 -1,2 -1,1 0,2 -1,3 0,2 -1,3 0,3 0,4 1,4 0,5 1,6 2,6 1,7 3,7 2,9 3,9 4,10 4,11 4,12 6,13 5,14 -5,-2 -6,-4 -5,-5 -6,-6 -5,-6 -6,-8 -5,-7 -5,-8 -6,-8 -5,-8 -6,-7 -5,-7 -5,-6 -5,-5 -6,-3 -5,-3z" /><path style="fill:#f60" d="M129,407 l-2,4 -1,4 -2,2 -2,3 -2,1 -2,1 -3,0 -2,0 -3,0 -3,-2 -3,-2 -3,-2 -2,-3 -3,-3 -3,-4 -3,-5 -3,-5 -3,-5 -3,-6 -2,-7 -3,-7 -3,-7 -2,-8 -3,-8 -2,-9 -2,-9 -2,-10 -1,-10 -2,-11 -1,-11 -1,-12 -1,-11 0,2 -1,2 -1,4 0,4 -1,4 0,5 0,6 -1,5 -1,6 0,7 -1,6 -1,6 0,6 -1,6 -1,6 -1,6 -1,5 -2,4 -1,5 -2,3 -1,3 -2,2 -3,1 -2,0 -2,-1 -3,-1 -3,-4 -3,-4 -3,-5 -4,-7 -4,-9 -4,-10 0,10 1,9 0,8 1,8 1,7 1,7 1,6 1,6 1,6 2,6 2,5 1,5 2,4 2,5 1,4 2,4 2,4 2,3 2,4 2,4 2,3 1,4 2,4 2,3 1,4 2,4 1,4 2,5 1,4 1,5 1,5 0,6 5,2 4,2 4,3 4,1 4,2 3,2 3,2 3,1 3,1 4,2 3,1 3,1 3,1 4,1 4,1 4,1 4,0 5,1 5,1 6,1 7,0 6,1 8,0 8,1 9,1 10,0 10,1 11,1 12,1 14,1 14,1 15,1 9,-1 8,0 8,-1 9,0 8,-1 8,0 7,0 8,-1 8,0 7,0 8,0 7,0 8,-1 7,0 8,0 7,0 7,0 8,0 7,-1 8,0 7,0 8,0 8,-1 7,0 8,0 8,-1 8,0 8,-1 9,0 8,-1 9,-1 9,-1 8,0 9,1 8,0 9,0 8,1 8,1 9,0 8,1 8,0 9,1 8,1 9,0 8,1 9,0 9,1 9,0 9,0 9,0 10,0 10,0 10,0 10,-1 11,-1 10,-1 12,-1 11,-2 12,-1 12,-3 12,-2 14,-3 13,-3 14,-3 4,1 4,0 4,1 5,1 6,1 5,1 6,0 6,1 6,0 7,0 6,0 7,0 6,-1 7,-1 7,-1 7,-2 6,-2 7,-3 6,-4 7,-4 6,-4 6,-6 5,-6 6,-7 5,-7 5,-9 4,-9 4,-10 4,-11 3,-12 3,-13 2,-14 2,-5 2,-4 1,-4 2,-5 1,-5 0,-4 1,-5 0,-5 -1,-4 0,-5 0,-5 -1,-5 -1,-5 -1,-5 -1,-5 -2,-6 -1,-5 -1,-6 -2,-5 -2,-6 -1,-5 -2,-6 -1,-6 -2,-5 -2,-6 -1,-6 -2,-6 -1,-6 -1,-6 -1,-7 -1,-6 -1,-6 -1,14 0,12 -1,10 -1,7 -2,4 -1,3 -2,1 -2,-1 -2,-3 -2,-3 -3,-5 -2,-6 -3,-7 -2,-7 -2,-7 -3,-8 -2,-8 -2,-8 -2,-7 -2,-7 -2,-6 -1,-6 -2,-4 -1,-3 0,-1 -1,0 1,1 0,4 1,6 1,8 2,11 2,14 1,4 1,5 1,5 0,4 0,4 0,5 0,4 0,5 -1,5 0,6 0,6 0,7 0,7 1,8 1,10 1,10 -4,7 -3,8 -5,8 -5,9 -5,8 -5,9 -6,8 -6,9 -6,7 -6,7 -6,7 -6,5 -5,4 -6,3 -5,1 -5,-1 -8,-2 -5,-3 -3,-4 -2,-5 -1,-6 1,-7 2,-8 2,-8 3,-8 3,-8 4,-9 3,-8 3,-8 2,-8 2,-7 1,-7 -5,-2 -4,-2 -3,-4 -3,-4 -2,-4 -1,-5 -1,-5 -1,-6 0,-6 0,-6 0,-6 1,-5 1,-6 0,-6 1,-5 1,-5 1,-4 1,-4 1,-3 0,-3 0,-1 0,-1 0,1 0,1 -1,3 -2,4 -2,5 -2,6 -3,9 -4,10 -4,11 -6,13 1,4 1,4 0,4 0,4 0,5 0,5 0,5 0,6 -1,6 0,5 -1,6 -1,6 -1,6 -1,6 -2,6 -1,6 -1,5 -2,6 -1,5 -2,5 -2,5 -2,5 -1,4 -2,4 -2,3 -2,3 -2,3 -2,2 -2,1 -3,1 -2,1 -2,-1 -5,-11 -4,-10 -4,-8 -3,-7 -3,-6 -2,-4 -1,-3 -2,-2 0,-1 -1,0 0,1 1,1 0,3 1,3 1,4 1,4 1,5 2,5 1,6 2,5 1,6 2,7 1,6 1,6 1,6 2,6 0,6 1,5 0,5 0,5 0,4 -1,3 -4,-7 -4,-7 -4,-6 -3,-5 -3,-5 -4,-5 -3,-4 -3,-3 -4,-1 -5,-1 -5,0 -6,1 -8,2 -8,3 -10,5 -12,6 2,-5 1,-5 2,-5 1,-5 1,-5 1,-5 1,-5 1,-6 1,-4 1,-5 1,-5 1,-5 1,-5 1,-5 1,-5 1,-4 4,-12 3,-11 2,-10 2,-9 1,-8 1,-8 1,-7 0,-7 0,-5 -1,-6 0,-5 -1,-4 -1,-4 -2,-4 -1,-3 -2,-3 -2,-3 -2,-3 -2,-2 -3,-3 -2,-2 -2,-3 -2,-2 -2,-3 -3,-2 -2,-3 -1,-3 -2,-3 -2,-4 -1,-3 -1,-5 -1,-4 -4,6 -3,5 -4,4 -3,4 -3,5 -3,4 -3,4 -2,5 -2,5 -1,6 -1,7 0,8 1,9 2,11 2,13 3,15 2,10 0,10 0,9 -1,9 -2,9 -2,8 -2,8 -3,8 -4,7 -4,6 -4,6 -5,6 -4,5 -5,4 -6,4 -5,3 -5,3 -6,1 -5,2 -6,0 -5,-1 -5,-1 -5,-2 -4,-2 -5,-4 -4,-5 -3,-5 -3,-6 -3,-8 -2,-8 -2,-9 -1,-11 1,-9 2,-7 3,-7 4,-5 4,-5 5,-5 5,-4 4,-5 4,-4 3,-6 2,-6 1,-7 0,-9 -2,-10 -4,-12 -7,-14 -3,-3 -2,-3 -3,-3 -2,-4 -2,-3 -1,-4 -1,-4 -1,-4 -1,-4 -1,-5 0,-4 -1,-5 0,-5 -1,-4 0,-5 0,-5 0,-5 -1,-5 0,-4 0,-5 -1,-5 0,-4 -1,-4 -1,-5 -1,-4 -1,-4 -2,-4 -1,-3 -2,-4 -3,-3 -2,-3 -3,-2 0,5 0,5 -1,5 -1,5 -1,5 -2,4 -3,4 -2,4 -2,4 -3,4 -3,4 -3,5 -3,4 -3,4 -3,5 -2,4 -3,5 -2,6 -2,5 -1,7 -1,6 -1,7 -1,7 1,8 0,8 2,9 2,10 3,10 3,11 5,12 5,13 6,13 -2,3 -3,4 -3,4 -2,4 -3,4 -2,4 -3,4 -3,3 -2,4 -3,4 -3,3 -3,4 -2,3 -3,2 -3,3 -2,1 -3,2 -2,1 -2,0 -3,0 -2,-2 -2,-1 -2,-3 -2,-3 -2,-4 -2,-5 -1,-6 -2,-7 -1,-8 -1,-10 -1,-10 0,-11 -5,1 -4,3 -3,2 -3,4 -3,3 -1,4 -2,3 -2,2 -1,3 -2,1 -2,0 -2,-1 -3,-2 -3,-4 -3,-5 -5,-8 0,-4 -1,-6 1,-6 0,-7 1,-8 1,-9 1,-8 1,-10 1,-9 1,-10 2,-10 1,-9 2,-10 1,-9 1,-9 1,-8 0,-8 1,-7 0,-7 0,-6 -1,-4 -1,-4 -1,-2 -2,-1 -3,0 -3,2 -4,3 -4,5 -5,7 -6,8 -6,11 -8,13 -2,2 -3,1 -2,-1 -3,0 -3,-2 -3,-3 -2,-3 -3,-3 -3,-4 -3,-4 -3,-5 -2,-4 -3,-4 -3,-4 -2,-3 -3,-3 -2,-3 -2,-2 -2,-1 -2,0 -2,1 -1,1 -2,3 -1,5 -1,5 -1,8 0,9 0,10 0,13 0,14 1,17 1,19 2,6 3,5 3,5 4,5 4,4 4,5 4,4 5,6 4,6 4,7 3,7 2,10 2,10 1,12 0,14 -2,16 -4,3 -5,5 -6,4 -6,5 -8,5 -7,5 -8,5 -8,4 -8,4 -8,2 -8,2 -7,1 -6,0 -5,-2 -5,-3 -3,-6 1,-12 1,-11 0,-9 -1,-7 -1,-6 -1,-5 -1,-3 -2,-3 -1,-3 -2,-2 -2,-2 -1,-3 -1,-2 -1,-3 -1,-3 0,-5 -2,-2 -2,-3 -1,-3 -1,-5 -1,-5 -1,-5 0,-6 0,-6 0,-6 1,-7 0,-6 1,-7 0,-6 1,-7 0,-5 1,-6 0,-4 0,-5 0,-3 0,-3 0,-2 -1,0 -1,0 -1,1 -2,3 -2,4 -3,5 -3,7 -3,9 -4,10 -5,12 -5,15 -2,1 -3,-1 -4,-1 -4,-2 -5,-3 -5,-2 -5,-3 -4,-1 -4,-1 -3,0 -2,1 0,3 1,5 3,8 5,10 7,13 1,2 0,2 0,2 0,2 -1,1 -1,2 -1,2 -1,1 -1,2 -2,2 -1,2 -2,2 -1,2 -2,3 -1,2 -1,4 -1,3 -1,4 -1,4 0,5 -1,5 1,6 0,6 1,7 1,8 2,8 2,9 3,9 3,11 4,11 5,12 5,13 -5,-2 -4,-3 -5,-4 -5,-5 -5,-5 -5,-6 -5,-5 -6,-6 -5,-6 -5,-6 -5,-6 -5,-5 -5,-4 -5,-4 -5,-4 -4,-2z" /><path style="fill:#f00" d="M129,437 l-3,7 -3,6 -3,6 -4,6 -5,5 -4,4 -5,3 -4,1 -5,-1 -4,-2 -4,-4 -4,-7 -3,-9 -3,-12 -2,-15 -1,-18 -6,-5 -5,-6 -5,-4 -4,-4 -3,-4 -3,-3 -2,-3 -2,-2 -2,-2 -1,-1 0,-1 -1,0 0,1 1,1 1,1 0,3 2,2 1,3 2,4 2,5 2,4 2,6 2,6 2,7 2,7 3,8 2,8 2,9 2,10 2,10 2,10 2,12 4,2 4,2 4,2 4,1 4,2 5,2 4,1 5,2 5,2 5,1 5,2 6,1 5,2 6,1 6,2 7,1 6,1 8,2 7,1 8,1 7,2 9,1 8,1 10,1 9,1 10,2 10,1 11,1 11,1 11,1 12,1 13,1 7,0 7,-1 6,0 7,-1 7,0 6,-1 6,0 7,0 6,-1 6,0 6,0 6,-1 6,0 6,0 6,0 6,0 6,-1 6,0 6,0 6,0 6,0 6,-1 6,0 6,0 6,-1 7,0 6,-1 7,0 6,0 7,-1 7,-1 7,0 7,0 7,0 7,0 7,1 7,0 7,1 6,0 7,1 7,0 7,1 7,0 7,1 7,0 7,1 7,0 8,0 7,0 8,0 7,0 8,0 8,0 9,-1 8,0 9,-1 9,-1 9,-2 10,-1 9,-2 10,-2 11,-2 11,-2 11,-3 9,-3 9,-3 9,-2 9,-2 9,-1 8,-1 8,-1 8,-1 8,-1 7,-1 8,-1 7,0 7,-1 6,-1 7,-1 6,-1 6,-1 6,-1 6,-2 6,-2 5,-2 5,-2 5,-3 5,-3 5,-4 4,-4 4,-5 4,-5 5,-6 3,-6 4,-7 3,-8 -7,7 -6,5 -5,4 -4,3 -2,2 -2,1 -1,0 1,-1 0,-2 2,-3 2,-3 3,-4 3,-4 3,-6 4,-5 4,-6 4,-6 4,-7 4,-6 3,-7 4,-7 3,-7 3,-7 3,-7 2,-6 1,-7 1,-6 -1,-5 -1,-6 -2,-5 -3,-4 -4,-4 1,12 0,9 0,7 -1,6 -1,3 -1,1 -1,1 -2,-2 -2,-2 -2,-4 -2,-4 -2,-5 -2,-6 -2,-6 -2,-7 -3,-7 -2,-7 -2,-6 -2,-7 -2,-5 -2,-6 -1,-4 -2,-4 -1,-3 -1,-1 -1,0 0,1 0,3 1,5 0,7 2,9 1,11 2,4 0,3 1,4 0,3 0,3 1,4 -1,3 0,4 0,4 0,5 0,5 0,6 0,6 1,7 0,7 1,9 -3,6 -5,6 -6,7 -7,8 -8,8 -8,7 -9,8 -9,8 -9,8 -9,7 -9,6 -8,5 -8,4 -7,3 -6,2 -5,0 -7,-1 -7,-2 -7,-1 -7,-2 -8,-2 -7,-2 -7,-2 -6,-2 -7,-3 -5,-2 -5,-4 -5,-3 -3,-4 -3,-4 -1,-4 -1,-5 -6,-2 -4,-2 -3,-3 -2,-2 0,-3 0,-2 0,-1 1,0 1,1 2,2 1,4 0,5 0,7 -1,9 -2,11 -3,14 -10,12 -9,9 -6,5 -6,3 -4,0 -3,-2 -2,-4 -2,-5 -2,-5 -1,-7 -2,-7 -2,-6 -3,-6 -4,-6 -5,-3 -7,-3 2,-3 1,-4 0,-4 1,-4 1,-4 1,-4 1,-4 0,-4 1,-4 1,-4 0,-4 1,-4 1,-4 1,-4 1,-4 1,-4 2,-14 1,-10 0,-8 0,-4 -2,-2 -2,0 -3,3 -3,4 -4,6 -5,8 -4,8 -6,10 -5,10 -6,10 -6,11 -7,11 -6,10 -6,10 -7,10 -6,8 -6,7 -6,5 -6,3 -6,2 -5,-1 -4,-2 -5,-6 -3,-9 -3,-12 -3,-15 -2,-19 -1,-23 3,-21 2,-19 2,-17 1,-15 1,-12 1,-11 0,-8 0,-7 0,-5 -1,-4 0,-2 -2,-1 -1,0 -1,2 -2,2 -2,3 -2,4 -1,5 -2,5 -3,6 -1,6 -3,7 -2,6 -1,7 -2,6 -2,6 -2,7 -1,5 -1,5 -1,4 -1,4 -1,3 -13,16 -13,13 -12,9 -11,5 -11,2 -9,-1 -9,-3 -8,-5 -8,-8 -7,-9 -6,-10 -5,-11 -5,-12 -5,-13 -3,-12 -4,-12 -2,-12 -3,-10 -2,-10 -1,-8 -1,-6 0,-4 -1,-2 1,1 0,4 1,7 1,11 1,15 2,19 2,24 2,29 2,34 -3,3 -4,4 -4,4 -5,4 -6,4 -6,4 -7,4 -6,4 -7,2 -6,3 -6,2 -6,0 -5,0 -4,-2 -3,-3 -3,-4 -2,6 -3,6 -3,3 -4,3 -3,1 -4,1 -4,0 -4,-1 -4,-2 -4,-2 -4,-3 -4,-3 -4,-3 -4,-3 -4,-3 -4,-4 -3,-2 -3,-3 -2,-2 -3,-2 -1,-1 -2,0 -1,1 0,2 0,3 1,4 2,5 2,7 3,9 3,10 5,12 6,13 -3,-1 -2,-1 -3,0 -3,-2 -4,-1 -4,-2 -4,-1 -4,-2 -5,-2 -5,-2 -5,-2 -5,-2 -5,-2 -6,-2 -5,-3 -5,-2 -6,-2 -5,-2 -5,-3 -6,-2 -5,-2 -5,-2 -5,-2 -4,-2 -5,-2 -4,-1 -4,-2 -3,-1 -4,-1 -3,-1 -2,-1 -2,-1z" /><path style="fill:#ff0;stroke:#4c4c4c;stroke-width:2" d="M140,247 l5,-6 5,-5 5,-6 4,-5 5,-5 4,-6 4,-5 4,-6 3,-6 2,-6 1,-7 1,-7 -1,-7 -1,-8 -3,-8 -4,-10 -4,-6 -3,-5 -3,-6 -3,-5 -3,-5 -2,-5 -2,-5 -3,-5 -2,-4 -1,-5 -2,-4 -1,-4 -2,-4 -1,-3 -1,-4 -1,-4 -1,-3 -1,-4 -1,-3 -1,-4 -1,-3 0,-4 -1,-3 -1,-4 -1,-3 -1,-4 -1,-3 -1,-4 -1,-3 -1,-4 -1,-4 -2,-4 -8,14 -6,12 -5,10 -4,10 -3,8 -2,7 -1,6 -1,5 0,5 0,4 0,4 1,3 0,4 0,3 0,3 0,4 1,4 1,3 1,3 1,3 1,2 2,3 1,2 1,1 1,2 1,2 1,1 1,2 1,2 1,2 1,2 1,2 1,2 2,3 1,3 1,3 2,4 1,4 2,5 1,5 2,6 2,7 2,7 2,7 2,9 2,9 3,10 2,12z" /><path style="fill:#f60" d="M142,231 l5,-5 4,-4 4,-4 4,-4 4,-4 3,-4 3,-5 3,-4 3,-5 1,-5 2,-5 0,-5 0,-6 -1,-6 -2,-7 -3,-7 -6,-9 -5,-9 -4,-8 -3,-7 -3,-7 -3,-6 -1,-6 -2,-6 -2,-5 -2,-5 -1,-6 -1,-5 -2,-5 -2,-6 -2,-6 -2,-6 -6,11 -5,9 -3,8 -3,7 -2,6 -2,5 -1,5 0,4 -1,4 0,3 1,3 0,3 0,3 0,2 0,3 -1,4 2,5 2,5 2,3 2,4 2,2 1,3 2,3 2,3 2,3 2,6 2,6 2,7 2,10 3,11 3,14 3,17z" /><path style="fill:#f00" d="M145,210 l2,-3 3,-3 2,-2 3,-3 2,-3 2,-3 2,-3 2,-3 1,-3 2,-3 0,-4 1,-3 -1,-4 0,-5 -2,-4 -1,-5 -4,-6 -3,-6 -3,-5 -2,-5 -2,-4 -2,-5 -1,-4 -1,-3 -1,-4 -1,-4 -1,-3 -1,-4 -1,-3 -2,-4 -1,-4 -2,-4 -3,7 -4,6 -2,6 -2,5 -2,4 -1,4 -1,3 0,3 0,2 0,3 0,2 0,2 0,1 0,2 0,2 0,2 1,4 2,3 1,2 1,3 2,1 1,2 1,2 1,2 2,2 1,4 2,4 1,5 2,6 2,8 2,9 3,11z" /><path style="fill:#ff0;stroke:#4c4c4c;stroke-width:2" d="M625,199 l4,-5 5,-4 4,-4 4,-4 4,-4 4,-5 3,-5 3,-4 2,-5 2,-5 1,-6 1,-6 -1,-6 -1,-7 -2,-7 -3,-7 -6,-10 -6,-10 -4,-8 -4,-8 -3,-7 -2,-7 -3,-7 -2,-6 -1,-6 -2,-6 -1,-6 -2,-5 -2,-6 -1,-6 -2,-6 -3,-7 -6,11 -6,10 -4,9 -3,8 -2,6 -2,6 -1,5 -1,5 0,4 0,3 0,3 1,3 0,3 0,2 0,3 -1,3 3,6 2,6 2,4 2,3 2,3 2,3 1,3 2,4 2,4 2,5 3,7 2,8 3,10 3,12 4,15 4,18z" /><path style="fill:#f60" d="M627,187 l4,-3 3,-4 4,-3 3,-4 3,-3 3,-4 3,-4 3,-3 2,-4 1,-4 1,-5 1,-4 -1,-5 0,-6 -2,-5 -3,-6 -4,-8 -5,-7 -3,-7 -3,-6 -2,-6 -3,-5 -1,-5 -2,-5 -1,-4 -1,-5 -1,-4 -2,-5 -1,-4 -1,-5 -2,-5 -2,-6 -5,9 -4,8 -3,7 -3,6 -2,5 -1,5 -1,3 0,4 -1,3 0,3 1,2 0,2 0,2 0,2 -1,3 0,2 2,5 2,4 1,3 2,3 1,2 2,3 1,2 2,3 1,3 2,5 2,5 1,6 3,9 2,9 2,12 3,14z" /><path style="fill:#ff0;stroke:#4c4c4c;stroke-width:2" d="M793,154 l-4,-4 -3,-3 -3,-4 -4,-3 -3,-3 -3,-4 -2,-4 -3,-3 -2,-5 -1,-4 -1,-4 -1,-5 1,-5 0,-6 2,-5 2,-6 4,-8 5,-7 3,-7 3,-6 2,-6 3,-5 1,-5 2,-5 1,-4 1,-5 1,-4 2,-5 1,-4 1,-5 2,-5 2,-5 5,8 4,8 3,7 3,6 2,5 2,5 1,3 0,4 0,3 1,3 -1,2 0,2 0,2 0,2 0,3 0,2 -2,5 -1,4 -2,3 -1,3 -2,2 -1,3 -2,2 -1,3 -2,3 -1,5 -2,5 -2,6 -3,9 -2,9 -2,12 -3,15z" /><path style="fill:#f60" d="M791,142 l-3,-2 -3,-3 -3,-3 -3,-2 -3,-3 -2,-3 -2,-3 -2,-3 -1,-3 -2,-3 0,-4 -1,-3 0,-4 1,-4 1,-4 2,-5 4,-6 3,-6 3,-5 3,-5 1,-4 2,-4 2,-4 1,-4 1,-4 1,-3 0,-4 1,-4 1,-3 1,-4 2,-4 1,-4 4,7 3,6 3,5 2,5 2,4 1,4 0,3 1,2 0,3 0,2 0,2 0,2 0,1 0,2 0,2 0,2 -2,4 -1,3 -1,2 -2,3 -1,1 -1,2 -1,2 -1,2 -2,2 -1,4 -1,4 -2,5 -1,6 -2,8 -2,9 -1,11z" /><ellipse style="fill:#f00" cx="789" cy="89" rx="15" ry="40" /><path style="fill:#ff0;stroke:#4c4c4c;stroke-width:2" d="M283,133 l-3,-3 -2,-3 -3,-3 -3,-3 -2,-3 -3,-3 -2,-3 -2,-3 -1,-3 -2,-4 -1,-4 0,-4 0,-4 1,-4 1,-5 1,-5 4,-6 4,-5 3,-6 2,-5 2,-4 2,-5 2,-4 1,-4 1,-4 2,-4 1,-3 1,-4 1,-4 1,-4 1,-4 2,-4 4,7 3,7 2,6 2,4 2,5 1,3 1,4 0,3 1,2 0,2 0,2 0,2 -1,2 0,2 0,2 1,2 -2,4 -1,3 -2,3 -1,2 -1,2 -2,2 -1,2 -1,2 -1,2 -2,4 -1,4 -2,6 -2,6 -1,9 -3,9 -2,12z" /><path style="fill:#f60" d="M281,124 l-3,-2 -2,-2 -2,-2 -2,-3 -2,-2 -2,-2 -1,-3 -2,-2 -1,-3 -1,-2 -1,-3 0,-3 0,-3 0,-4 1,-3 2,-4 3,-5 3,-4 2,-5 2,-4 2,-3 1,-4 1,-3 1,-4 1,-3 1,-3 1,-3 0,-3 1,-3 1,-3 1,-3 1,-4 3,6 3,6 2,4 1,4 1,4 1,3 1,2 0,2 0,2 0,2 0,1 -1,2 0,1 0,1 0,2 1,1 -1,4 -1,3 -1,2 -1,2 0,1 -1,2 -1,1 -1,2 -1,2 -1,3 -1,3 -1,4 -2,5 -2,6 -2,8 -1,9z" /><ellipse style="fill:#f00" cx="280" cy="80" rx="13" ry="33" /></svg>