<!DOCTYPE svg PUBLIC "-//W3C//DTD SVG 20000303 Stylable//EN" "http://www.w3.org/TR/2000/03/WD-SVG-20000303/DTD/svg-20000303-stylable.dtd"[]><svg xmlns="http://www.w3.org/2000/svg" width="998px" height="465px" viewBox="0 0 999 433"><path style="fill:#ff8040;stroke:#4c4c4c;stroke-width:2" d="M999,0 l0,433 -7,-8 -6,-9 -7,-9 -8,-8 -7,-10 -9,-9 -8,-9 -10,-9 -9,-10 -9,-9 -10,-9 -10,-9 -9,-9 -9,-8 -10,-9 -10,-8 -9,-8 -8,-8 -8,-6 -8,-7 -6,-5 -7,-6 -6,-4 -5,-4 -2,-1 -2,-2 -3,-1 -4,0 -1,0 -4,1 -4,3 -6,2 -2,1 -3,2 -6,3 -7,4 -10,6 -11,6 -14,8 -15,8 -9,5 -8,4 -8,5 -7,4 -8,4 -8,4 -8,4 -7,4 -7,3 -7,4 -7,4 -7,3 -7,3 -7,3 -6,4 -6,3 -6,2 -7,3 -6,3 -7,3 -6,2 -7,3 -6,3 -7,3 -7,2 -6,3 -7,2 -7,3 -7,2 -7,2 -7,2 -7,2 -7,3 -8,2 -7,1 -7,3 -7,1 -7,2 -7,2 -8,1 -7,2 -8,1 -8,1 -7,2 -8,1 -7,1 -8,0 -8,2 -10,0 -9,-1 -10,-1 -10,-1 -10,-1 -10,-1 -10,-3 -11,-2 -10,-2 -10,-3 -11,-3 -10,-3 -10,-4 -11,-4 -10,-3 -11,-5 -10,-4 -11,-5 -10,-5 -10,-5 -10,-5 -9,-4 -9,-6 -10,-5 -9,-5 -8,-5 -9,-6 -8,-5 -8,-6 -8,-5 -8,-7 -7,-5 -14,-12 -12,-11 -10,-10 -9,-10 -7,-8 -5,-8 -2,-8 -1,-6 0,-1 0,0 1,-1 0,-1 1,-5 2,-5 3,-5 4,-7 5,-6 6,-7 6,-7 8,-8 8,-7 10,-9 9,-7 10,-9 11,-8 11,-8 13,-9 12,-8 7,-4 6,-4 7,-4 7,-4 6,-4 7,-3 7,-4 7,-3 7,-3 7,-4 7,-3 7,-3 8,-4 7,-2 7,-3 8,-3 7,-3 7,-2 8,-2 7,-2 8,-3 7,-1 7,-2 7,-1 7,-2 7,-1 8,0 6,-1 7,-1 8,0 6,0 7,0 7,0 7,0 7,0 6,1 7,0 7,1 7,1 7,1 8,1 7,1 7,2 8,1 7,2 8,2 7,1 7,3 8,2 7,2 8,2 8,2 7,3 8,2 7,3 8,2 7,3 7,3 8,3 7,3 7,3 8,3 7,3 7,3 7,3 7,4 7,2 7,4 7,3 6,3 6,3 6,3 6,3 7,3 6,3 5,2 6,3 5,3 5,3 5,3 5,2 6,3 5,3 5,3 6,3 5,3 6,3 6,4 6,3 6,3 6,4 6,3 6,3 7,4 6,3 6,4 4,2 2,2 4,1 3,1 3,2 4,1 2,1 4,1 1,0 3,-1 3,-2 3,-2 3,-3 5,-3 4,-4 5,-3 16,-13 15,-13 13,-12 14,-12 13,-12 12,-11 12,-11 12,-11 10,-11 10,-11 10,-10 9,-10 8,-9 8,-10 7,-9 7,-8z" /></svg>