<!DOCTYPE svg PUBLIC "-//W3C//DTD SVG 20000303 Stylable//EN" "http://www.w3.org/TR/2000/03/WD-SVG-20000303/DTD/svg-20000303-stylable.dtd"[]><svg xmlns="http://www.w3.org/2000/svg" width="336px" height="999px" viewBox="0 0 311 999"><path style="fill:#ff0" d="M163,10 l87,201 15,-28 14,221 22,-20 -29,226 29,-16 -72,217 29,-17 -67,188 -36,6 -102,-184 37,18 -80,-279 29,18 -29,-230 21,28 29,-205 15,33 88,-177z" /><path style="fill:#fc0" d="M250,211 l15,-28 14,221 22,-20 -29,226 29,-16 -72,217 29,-17 -67,188 -36,6 -102,-184 37,18 -80,-279 29,18 -29,-230 21,28 29,-205 2,4 2,4 2,4 2,4 2,5 2,4 1,4 2,4 12,-13 11,-11 11,-11 10,-9 9,-7 10,-5 10,-4 9,-1 10,1 10,3 10,6 11,9 12,11 12,15 14,18 14,22z" /><path style="fill:#f90" d="M279,404 l22,-20 -29,226 29,-16 -72,217 29,-17 -67,188 -36,6 -102,-184 37,18 -80,-279 29,18 -29,-230 2,4 3,4 3,3 2,4 3,4 3,3 2,3 3,3 12,-26 12,-24 14,-19 14,-17 16,-13 15,-9 16,-5 17,-1 17,3 17,7 17,13 17,16 16,23 17,27 16,33 15,37z" /><path style="fill:#f60" d="M272,610 l29,-16 -72,217 29,-17 -67,188 -36,6 -102,-184 37,18 -80,-279 29,18 4,-35 6,-30 6,-26 8,-22 9,-18 9,-15 9,-12 11,-8 10,-6 11,-3 12,-1 11,3 11,4 12,6 11,7 12,9 11,11 10,12 10,12 10,13 9,14 8,15 8,14 6,15 5,14 5,13 3,13 2,13 1,11 -1,10 -2,8 -4,8z" /><path style="fill:#f30" d="M229,811 l29,-17 -67,188 -36,6 -102,-184 37,18 -12,-69 -4,-57 4,-44 10,-33 14,-22 18,-12 20,-3 22,4 21,12 20,18 17,23 15,29 8,32 3,35 -5,38 -12,38z" /><path style="fill:none;stroke:#4c4c4c;stroke-width:2" d="M163,10 l87,201 15,-28 14,221 22,-20 -29,226 29,-16 -72,217 29,-17 -67,188 -36,6 -102,-184 37,18 -80,-279 29,18 -29,-230 21,28 29,-205 15,33 88,-177" /></svg>