<!DOCTYPE svg PUBLIC "-//W3C//DTD SVG 20000303 Stylable//EN" "http://www.w3.org/TR/2000/03/WD-SVG-20000303/DTD/svg-20000303-stylable.dtd"[]><svg xmlns="http://www.w3.org/2000/svg" width="587px" height="999px" viewBox="0 0 562 999"><path style="fill:#e5e5e5;stroke:#4c4c4c;stroke-width:2" d="M41,375 l376,0 0,624 -376,0 0,-624z" /><path style="fill:#b266ff" d="M61,542 l336,0 0,396 -336,0 0,-396z" /><path style="fill:#c9f" d="M126,542 l207,0 0,396 -207,0 0,-396z" /><path style="fill:#333" d="M353,296 l-3,-7 -2,-7 0,-8 0,-9 1,-9 1,-10 2,-9 3,-10 2,-10 3,-9 2,-8 3,-8 2,-7 1,-6 1,-4 0,-3 3,-6 3,-6 3,-7 3,-6 2,-5 3,-6 2,-5 1,-4 2,-4 1,-4 0,-2 0,-2 -1,-1 -1,0 -2,1 -3,3 -1,-9 -2,-9 -3,-8 -2,-8 -3,-7 -3,-6 -3,-6 -2,-6 -3,-4 -3,-3 -3,-3 -2,-1 -3,-1 -2,1 -1,2 -2,4 -2,4 -4,2 -4,1 -4,1 -4,1 -3,3 -2,4 -1,8 -1,2 -2,2 -3,1 -4,1 -2,-1 -1,-1 1,-2 4,-2 3,-10 2,-9 1,-9 1,-7 0,-7 0,-7 -1,-5 -2,-6 -1,-4 -2,-4 -3,-3 -2,-3 -3,-2 -3,-1 -3,-1 -3,0 -6,0 -6,0 -5,1 -6,1 -5,2 -5,2 -5,2 -5,2 -4,2 -3,3 -4,2 -2,3 -3,3 -1,3 -1,3 -1,3 -1,3 -2,3 -1,3 -1,2 -1,3 -1,2 0,3 -1,3 -8,-11 -6,-8 -4,-7 -4,-5 -2,-3 -3,-3 -2,-1 -3,0 -5,-1 -5,0 -5,-1 -5,0 -4,-1 -5,-1 -4,0 -4,0 -4,0 -4,1 -4,1 -4,2 -4,2 -4,4 -4,4 -5,6 -9,-5 -8,-4 -6,-2 -6,-1 -4,1 -3,1 -2,3 -2,3 -1,3 -1,4 0,4 -1,3 0,4 -1,3 0,3 -2,2 -3,0 -2,1 0,3 1,2 1,4 3,4 3,4 3,5 2,5 3,5 1,5 1,6 -1,5 -2,5 -4,5 -6,5 -2,3 -2,4 0,5 0,6 1,6 2,7 2,7 2,7 3,7 3,6 2,6 3,6 3,5 2,4 2,3 1,2 -1,4 -1,5 -1,6 -1,6 -2,6 -1,7 -2,7 -2,6 -1,7 -2,7 -2,6 -1,7 -1,5 -2,6 -1,5 -1,4 272,0z" /><path style="fill:#6e5c4d" d="M81,296 l2,-4 2,-3 2,-4 2,-4 2,-4 2,-4 2,-4 2,-3 1,-6 -1,-5 -1,-6 -2,-6 -1,-6 -1,-6 -1,-6 0,-5 -2,-2 -1,-3 -2,-3 -2,-3 -1,-3 -1,-4 -1,-4 -1,-4 -1,-4 0,-4 0,-4 0,-3 1,-4 0,-3 2,-4 1,-2 2,-9 2,-9 3,-9 2,-8 3,-9 4,-8 3,-7 3,-7 4,-5 3,-5 3,-4 3,-3 3,-1 2,0 3,2 1,4 2,5 2,4 2,5 1,5 1,5 1,5 0,7 -1,8 2,1 4,3 5,3 5,4 5,3 3,2 2,1 -2,-1 10,-9 5,-7 4,-6 2,-5 1,-4 1,-2 3,-1 4,0 12,-1 9,-1 9,-2 6,0 6,0 3,2 3,3 0,5 2,3 3,3 3,2 4,2 4,2 3,3 2,2 1,3 7,-11 4,-9 0,-7 -1,-7 -1,-4 -2,-4 0,-2 1,0 11,0 8,2 6,4 3,4 3,5 1,5 0,6 0,6 6,-5 6,-3 5,-1 4,0 5,1 4,2 3,3 3,3 7,0 4,2 2,2 1,3 1,3 3,3 6,4 10,3 3,3 2,5 2,5 1,6 1,7 0,6 1,8 -1,7 0,7 -1,7 -1,6 -1,6 -1,5 -2,4 -1,4 -2,2 1,4 1,4 1,4 0,5 1,4 0,5 0,4 0,4 1,5 0,4 0,4 0,5 1,4 1,4 0,4 1,4 -10,0 -9,0 -10,-1 -9,0 -10,0 -9,0 -10,0 -9,-1 -9,0 -9,0 -9,-1 -9,0 -9,0 -9,-1 -9,0 -9,0 -9,-1 -8,0 -9,0 -9,-1 -9,0 -9,0 -9,-1 -10,0 -9,0 -9,-1 -9,0 -10,0 -9,0 -10,0 -10,0 -10,0z" /><path style="fill:#ab8a66" d="M377,328 l-10,-17 -8,-12 -5,-10 -3,-7 -1,-5 0,-3 2,-2 3,-1 3,1 4,0 4,1 3,0 3,-1 3,-2 1,-3 -1,-5 5,-10 2,-8 1,-5 -1,-5 -2,-4 -2,-4 -1,-4 -2,-6 -1,-9 -2,-7 -2,-7 -2,-6 -2,-4 -3,-4 -2,-3 -3,-3 -2,-1 -3,-1 -2,1 -2,1 -2,1 -2,3 -2,3 -2,4 -2,4 -4,4 -4,3 -3,3 -3,3 -2,4 -1,5 1,8 -2,-2 -4,-4 -3,-3 -4,-4 -3,-4 -3,-4 -2,-3 -1,-2 3,-10 2,-8 2,-8 2,-6 1,-5 1,-5 0,-3 0,-3 0,-2 -1,-2 -1,-1 -1,0 -2,-1 -2,1 -3,0 -3,1 -5,-1 -6,1 -5,2 -4,2 -5,4 -3,3 -4,5 -3,4 -2,5 -3,5 -1,5 -2,5 -1,4 -1,5 -1,3 0,4 -3,1 -5,-2 -6,-5 -7,-6 -7,-6 -6,-5 -4,-2 -2,1 -8,-10 -6,-4 -4,0 -4,2 -2,3 -3,4 -2,3 -3,2 -9,0 -6,1 -4,1 -2,2 0,2 0,4 1,4 0,6 -5,-6 -6,-3 -4,-3 -5,-1 -4,-1 -3,1 -4,2 -3,3 -7,1 -5,5 -3,7 -2,7 -3,6 -3,6 -6,3 -9,-1 0,6 -2,7 -2,8 -2,8 -1,7 -1,6 0,6 2,4 -1,7 0,6 0,4 0,4 1,4 0,5 -1,5 -1,7 11,0 10,0 9,0 10,0 10,1 9,0 9,1 10,0 9,1 9,0 8,1 9,1 9,0 9,1 9,1 8,1 9,0 9,1 9,1 8,1 9,0 9,1 9,1 9,0 9,1 10,0 9,1 10,0 9,0 10,0 10,1 10,0z" /><path style="fill:#e5b27f" d="M57,366 l2,-3 2,-2 2,-3 2,-3 2,-2 2,-3 2,-3 2,-3 1,-5 1,-6 1,-4 1,-5 1,-5 1,-5 1,-5 1,-5 -4,-11 -2,-9 0,-8 1,-6 3,-4 3,-2 4,0 3,2 4,-16 3,-10 4,-7 4,-2 4,1 4,3 4,6 3,9 3,4 3,4 4,3 4,4 2,4 2,5 0,6 -2,8 3,-4 3,-5 3,-5 3,-5 3,-4 3,-4 3,-2 3,-1 -2,-10 -2,-8 -1,-8 0,-5 1,-5 1,-4 1,-2 2,-2 2,-1 3,-1 3,0 3,1 3,1 3,1 3,1 2,2 11,-3 9,-2 7,-1 5,1 4,1 3,3 1,3 0,6 2,3 3,4 4,3 4,2 4,3 4,3 2,3 1,3 7,-11 5,-7 3,-4 2,-2 1,-1 1,0 1,0 2,1 11,0 8,2 6,4 3,4 3,5 1,5 0,6 0,6 6,-6 5,-5 4,-4 4,-2 4,-2 3,0 3,0 3,3 8,2 5,5 5,6 5,7 4,6 5,3 6,0 8,-5 6,5 3,5 3,6 1,5 1,5 -1,4 -2,4 -3,4 1,4 1,4 2,4 1,4 0,4 1,4 1,4 1,3 1,4 1,4 1,4 1,4 1,3 1,4 1,4 1,4 -344,0z" /><path style="fill:#ff7f00" d="M41,374 l4,-3 4,-3 4,-3 4,-2 4,-3 4,-3 4,-2 4,-3 3,1 2,-1 2,-1 2,-2 1,-3 1,-3 1,-4 0,-5 1,-5 0,-5 0,-5 1,-5 0,-5 1,-5 0,-4 1,-4 2,4 2,4 1,4 2,4 2,4 2,4 2,4 1,4 -1,10 2,7 3,4 4,2 6,0 6,-2 6,-2 6,-3 6,-1 5,-1 4,-2 2,-2 2,-4 0,-4 0,-5 -3,-5 1,-5 1,-3 2,-4 1,-4 1,-4 1,-6 1,-6 0,-8 2,3 2,4 2,4 2,5 2,4 2,4 2,4 2,4 5,-2 3,-3 2,-5 1,-6 1,-6 0,-6 1,-6 1,-4 -2,-5 -1,-3 0,-2 1,0 1,0 2,1 2,0 2,1 2,0 2,-1 2,-3 1,-4 0,-6 0,-9 -1,-11 -3,-14 2,4 1,4 2,4 1,4 2,4 1,4 2,4 1,3 2,4 1,4 2,4 1,4 2,3 1,4 2,4 1,4 -1,8 -1,8 -1,7 0,6 0,5 0,4 1,4 0,3 1,2 1,2 1,1 2,0 1,0 1,0 2,-1 1,-1 3,-2 1,-5 1,-7 0,-7 1,-6 2,-4 3,1 5,6 2,5 2,3 2,2 3,2 2,0 3,0 3,-1 2,0 3,-1 3,1 3,1 2,2 3,4 2,5 2,7 1,10 9,4 9,2 7,0 5,-2 4,-4 0,-5 -3,-5 -7,-6 2,-5 4,-3 3,-2 4,-2 3,-4 2,-7 0,-10 -2,-15 2,4 2,4 1,4 2,4 2,3 2,4 2,4 1,4 2,4 1,4 2,4 1,4 1,4 1,4 0,4 0,5 4,5 4,5 4,3 4,3 5,1 4,1 4,-1 3,-1 2,-4 2,-3 2,-2 2,-3 2,-3 1,-4 -1,-6 -2,-7 4,6 3,6 4,7 3,7 4,6 4,5 5,5 5,4 -376,0z" /><path style="fill:#ff0" d="M53,374 l3,-3 4,-2 3,-2 3,-2 4,-3 3,-2 3,-2 3,-2 4,0 3,-2 1,-5 1,-7 1,-8 0,-8 1,-8 1,-6 2,3 1,3 2,3 1,3 2,3 1,4 2,3 1,4 0,8 2,7 5,6 7,5 7,3 7,1 7,0 5,-2 5,-1 3,-3 3,-4 2,-5 1,-5 1,-6 -1,-5 -2,-5 1,-4 1,-4 1,-3 1,-3 1,-3 1,-4 0,-5 0,-6 2,3 3,5 2,7 3,7 3,7 3,6 2,5 2,4 5,-2 2,-5 1,-6 0,-8 0,-9 -1,-7 0,-7 1,-4 -1,-4 -1,-2 0,-1 1,0 2,1 2,1 3,1 2,1 3,1 2,-1 3,-1 1,-3 1,-5 1,-6 -1,-9 -2,-11 -2,5 -1,6 1,5 1,5 2,5 2,5 3,5 2,6 -1,12 0,10 2,8 3,5 3,3 3,2 4,-1 2,-1 2,-2 1,-4 1,-5 1,-6 2,-5 2,-3 3,0 4,5 2,14 4,7 6,3 6,1 6,0 5,3 2,8 -1,14 5,1 5,0 4,0 5,0 5,-1 4,-1 4,-1 4,-2 3,-2 3,-2 2,-2 1,-2 0,-3 0,-2 -2,-3 -3,-2 2,-4 3,-2 2,-2 3,-1 2,-3 2,-5 0,-8 -2,-11 3,6 3,5 3,6 3,6 2,6 2,7 2,6 0,8 4,4 5,3 6,2 6,1 6,0 6,0 4,-2 3,-2 1,-3 2,-2 2,-2 1,-2 2,-2 0,-3 0,-4 -2,-6 3,4 2,5 1,4 1,5 2,4 2,4 3,3 4,3 -356,0z" /><path style="fill:#fff" d="M221,360 l16,-8 22,14 -92,0 8,-6 -8,-24 22,24 8,-8 0,-24 16,16 8,16z" /><path style="fill:#fff" d="M81,366 l16,-6 0,-16 6,30 -22,-8z" /><path style="fill:#fff" d="M331,366 l0,-30 6,24 -6,6z" /><path style="fill:#f2f2f2;stroke:#4c4c4c;stroke-width:2" d="M416,500 l105,0 41,104 0,146 -41,104 -105,0 0,-63 63,0 21,-41 0,-146 -21,-42 -63,0 0,-62z" /><path style="fill:none;stroke:#4c4c4c;stroke-width:2" d="M103,458 l84,0 0,458 -84,0 0,-458" /><path style="fill:none;stroke:#4c4c4c;stroke-width:2" d="M271,458 l82,0 0,458 -82,0 0,-458" /><path style="fill:none;stroke:#4c4c4c;stroke-width:2" d="M41,458 l375,0" /><path style="fill:none;stroke:#4c4c4c;stroke-width:2" d="M416,916 l-375,0" /><path style="fill:#ccc" d="M62,937 l334,0 0,42 -334,0 0,-42z" /><path style="fill:#f2f2f2" d="M146,437 l20,0 0,521 -20,0 0,-521z" /><path style="fill:#f2f2f2;stroke:#4c4c4c;stroke-width:2" d="M402,119 l-6,-15 6,-15 14,-6 15,6 6,15 -6,15 -15,6 -14,-6z" /><path style="fill:#f2f2f2;stroke:#4c4c4c;stroke-width:2" d="M339,286 l-6,-15 6,-15 15,-6 15,6 6,15 -6,15 -15,5 -15,-5z" /><path style="fill:#f2f2f2;stroke:#4c4c4c;stroke-width:2" d="M172,77 l-6,-15 6,-15 15,-6 15,6 6,15 -6,15 -15,6 -15,-6z" /><path style="fill:#f2f2f2;stroke:#4c4c4c;stroke-width:2" d="M89,223 l-6,-15 6,-15 15,-6 15,6 6,15 -6,15 -15,6 -15,-6z" /><path style="fill:#f2f2f2;stroke:#4c4c4c;stroke-width:2" d="M6,181 l-6,-15 6,-15 14,-6 15,6 6,15 -6,15 -15,6 -14,-6z" /><path style="fill:none;stroke:#4c4c4c;stroke-width:2" d="M416,198 l21,0" /><path style="fill:none;stroke:#4c4c4c;stroke-width:2" d="M425,220 l15,-15" /><path style="fill:none;stroke:#4c4c4c;stroke-width:2" d="M448,229 l0,-21" /><path style="fill:none;stroke:#4c4c4c;stroke-width:2" d="M470,220 l-15,-15" /><path style="fill:none;stroke:#4c4c4c;stroke-width:2" d="M458,198 l21,0" /><path style="fill:none;stroke:#4c4c4c;stroke-width:2" d="M455,190 l15,-15" /><path style="fill:none;stroke:#4c4c4c;stroke-width:2" d="M448,187 l0,-21" /><path style="fill:none;stroke:#4c4c4c;stroke-width:2" d="M440,190 l-15,-15" /><path style="fill:none;stroke:#4c4c4c;stroke-width:2" d="M0,31 l20,0" /><path style="fill:none;stroke:#4c4c4c;stroke-width:2" d="M9,53 l15,-15" /><path style="fill:none;stroke:#4c4c4c;stroke-width:2" d="M31,62 l0,-21" /><path style="fill:none;stroke:#4c4c4c;stroke-width:2" d="M53,53 l-15,-15" /><path style="fill:none;stroke:#4c4c4c;stroke-width:2" d="M41,31 l21,0" /><path style="fill:none;stroke:#4c4c4c;stroke-width:2" d="M38,24 l15,-15" /><path style="fill:none;stroke:#4c4c4c;stroke-width:2" d="M31,21 l0,-21" /><path style="fill:none;stroke:#4c4c4c;stroke-width:2" d="M24,24 l-15,-15" /></svg>