<!DOCTYPE svg PUBLIC "-//W3C//DTD SVG 20000303 Stylable//EN" "http://www.w3.org/TR/2000/03/WD-SVG-20000303/DTD/svg-20000303-stylable.dtd"[]><svg xmlns="http://www.w3.org/2000/svg" width="999px" height="999px" viewBox="0 0 999 999"><path style="fill:#333" d="M832,790 l-5,-8 -3,-9 -3,-9 -2,-10 -2,-11 -1,-11 0,-12 1,-12 1,-12 1,-13 2,-13 2,-12 3,-13 3,-14 3,-13 3,-13 3,-13 4,-12 3,-13 4,-12 4,-12 3,-11 3,-11 3,-10 3,-9 3,-9 2,-8 1,-8 2,-6 1,-6 0,-4 0,-4 7,-15 8,-17 8,-16 7,-15 6,-16 6,-14 6,-14 4,-13 3,-10 3,-9 1,-8 0,-5 -2,-2 -3,0 -5,3 -7,6 -2,-12 -3,-11 -2,-12 -3,-11 -3,-11 -3,-10 -3,-11 -4,-10 -3,-10 -4,-9 -3,-9 -4,-8 -4,-9 -4,-7 -4,-7 -3,-7 -4,-6 -4,-5 -4,-5 -4,-5 -4,-3 -3,-3 -4,-2 -3,-2 -4,0 -3,0 -3,1 -3,1 -2,3 -3,4 -2,4 -2,5 -3,6 -4,4 -4,4 -5,2 -5,2 -5,1 -5,1 -6,1 -5,1 -5,3 -4,2 -4,4 -3,6 -3,6 -1,9 -1,11 -1,3 -2,3 -3,3 -3,2 -4,2 -5,1 -4,1 -4,0 -4,0 -3,-1 -2,-1 0,-2 0,-2 3,-3 4,-3 7,-3 7,-27 5,-24 3,-23 2,-20 0,-19 -1,-17 -2,-16 -3,-13 -5,-12 -5,-10 -6,-9 -6,-7 -7,-5 -8,-4 -8,-2 -7,0 -16,0 -15,1 -15,2 -15,3 -15,4 -13,5 -14,5 -12,5 -11,6 -10,7 -9,7 -8,7 -6,8 -4,7 -3,8 -1,8 -1,5 -2,5 -2,4 -1,4 -2,4 -2,4 -1,4 -2,4 -2,3 -1,4 -1,3 -1,4 -1,3 -1,4 -1,3 0,4 -11,-15 -9,-13 -9,-12 -7,-11 -6,-10 -6,-8 -5,-8 -4,-6 -4,-5 -3,-5 -3,-4 -3,-2 -3,-3 -3,-1 -4,-1 -3,0 -15,0 -15,-2 -13,-1 -13,-2 -12,-2 -12,-2 -11,-1 -11,0 -10,0 -11,2 -10,3 -10,5 -11,7 -11,9 -11,11 -11,15 -26,-14 -21,-8 -17,-5 -15,-2 -11,2 -9,4 -6,7 -5,8 -3,9 -2,10 -1,11 -1,10 -2,10 -1,8 -2,7 -3,5 -9,2 -5,3 -1,5 3,8 5,8 7,11 8,11 7,12 8,13 6,14 4,13 2,14 -2,14 -6,14 -11,13 -16,12 -4,4 -2,5 -3,5 -1,7 -1,6 -1,7 1,8 0,8 1,8 2,9 2,9 2,9 2,9 3,9 3,10 4,9 3,9 4,9 4,9 3,9 4,9 4,8 4,8 4,7 4,7 3,6 4,6 3,6 3,4 3,4 2,3 2,3 -1,5 -1,6 -2,6 -2,7 -1,7 -2,8 -2,7 -2,8 -2,9 -2,8 -3,9 -2,9 -2,9 -2,9 -2,9 -3,9 -2,9 -2,9 -2,9 -3,9 -2,8 -2,9 -2,9 -2,8 -2,8 -2,7 -2,8 -2,7 -2,7 -1,6 -2,6 -1,5 728,0z" /><path style="fill:#6e5c4d" d="M104,790 l2,-4 3,-4 2,-5 3,-5 3,-6 2,-6 3,-5 2,-6 3,-6 3,-6 2,-6 3,-5 2,-5 3,-5 3,-5 2,-4 1,-7 0,-7 0,-7 -1,-7 -1,-8 -2,-7 -2,-8 -1,-8 -2,-8 -2,-8 -2,-7 -1,-8 -1,-7 0,-8 0,-7 1,-6 -5,-6 -5,-7 -5,-8 -4,-9 -4,-9 -4,-10 -3,-11 -2,-10 -1,-11 -1,-11 0,-10 0,-10 2,-10 3,-9 3,-8 5,-7 2,-12 3,-12 2,-12 3,-11 3,-12 4,-12 4,-12 3,-11 4,-11 5,-11 4,-11 4,-10 5,-10 4,-9 5,-9 4,-9 5,-8 4,-7 5,-7 4,-6 4,-6 5,-4 4,-4 4,-3 4,-2 3,-1 4,-1 3,1 3,2 2,3 3,4 2,5 3,7 2,6 3,6 2,6 2,6 2,5 2,7 2,6 1,7 2,7 0,7 1,8 0,9 0,10 -1,10 -1,11 2,1 4,3 4,3 6,3 6,4 7,5 6,4 7,5 6,4 6,4 5,3 4,3 2,1 2,1 -1,0 -3,-2 14,-12 11,-10 10,-10 7,-10 5,-8 4,-8 3,-7 3,-6 1,-5 2,-5 1,-4 3,-3 2,-2 4,-1 5,0 7,1 15,-1 15,-2 13,-2 12,-2 11,-1 11,-2 9,-1 8,-1 8,0 6,1 5,1 5,3 3,3 3,5 1,5 1,7 2,5 2,5 4,4 4,4 5,3 6,3 5,4 6,3 5,3 5,2 5,3 5,3 3,3 3,4 2,3 0,4 11,-15 7,-14 6,-13 3,-11 2,-11 0,-10 -1,-8 -1,-8 -3,-7 -2,-6 -2,-4 -2,-4 -1,-3 0,-2 2,-2 3,0 14,0 13,2 11,2 10,3 8,4 6,4 6,5 4,6 4,6 2,7 2,7 1,7 1,7 1,8 0,8 0,7 7,-7 8,-5 7,-5 7,-3 7,-2 7,-2 7,0 6,1 6,1 6,2 5,3 6,2 4,4 5,3 5,4 4,4 10,0 8,1 5,2 4,3 3,2 2,4 1,4 1,4 2,4 2,5 3,5 5,4 7,5 10,4 12,5 15,4 3,4 4,5 3,6 3,6 2,7 2,7 2,8 1,8 1,9 1,9 1,9 1,9 0,10 0,9 0,10 -1,10 0,9 -1,10 -1,9 -1,9 -1,9 -1,8 -2,8 -1,8 -2,7 -2,7 -1,6 -2,5 -2,5 -2,4 -2,3 -2,3 2,10 2,11 2,11 1,11 1,12 1,11 1,12 0,12 1,12 1,11 0,12 1,11 2,12 1,11 2,10 3,11 -27,0 -26,0 -25,-1 -26,0 -25,0 -25,-1 -25,-1 -24,0 -25,-1 -24,-1 -24,-1 -24,-1 -24,-1 -24,-1 -24,-1 -24,-1 -23,-1 -24,-1 -24,0 -24,-1 -24,-1 -25,-1 -24,-1 -24,-1 -25,0 -24,-1 -25,0 -26,-1 -25,0 -26,0 -26,-1 -26,0z" /><path style="fill:#ab8a66" d="M895,874 l-15,-23 -13,-21 -11,-18 -10,-16 -7,-14 -6,-12 -5,-11 -3,-8 -2,-8 -1,-6 0,-5 1,-3 2,-3 2,-2 4,-1 3,0 5,0 4,1 5,0 5,1 5,1 5,1 5,0 5,0 4,0 4,-1 3,-2 2,-2 2,-4 1,-5 0,-6 -1,-7 7,-15 5,-13 4,-10 3,-10 1,-8 0,-7 -1,-7 -1,-5 -2,-6 -2,-5 -3,-5 -2,-6 -3,-5 -2,-7 -2,-7 -2,-9 -4,-22 -5,-20 -5,-17 -6,-16 -6,-12 -6,-11 -6,-8 -7,-6 -6,-4 -7,-1 -6,0 -6,3 -6,4 -5,7 -5,9 -4,11 -3,6 -4,5 -4,5 -4,4 -5,3 -5,4 -5,4 -5,3 -4,4 -4,5 -3,5 -3,6 -2,7 0,9 0,9 2,11 -3,-3 -3,-3 -4,-4 -4,-5 -5,-5 -4,-5 -5,-6 -5,-6 -4,-5 -4,-6 -4,-5 -4,-4 -2,-5 -3,-3 -1,-3 0,-2 7,-25 6,-23 5,-20 4,-17 3,-14 2,-12 0,-10 0,-8 -1,-5 -2,-5 -3,-2 -4,-2 -5,0 -6,1 -6,2 -8,2 -15,-1 -14,2 -13,4 -12,6 -11,8 -11,10 -9,11 -8,12 -7,13 -7,13 -5,13 -5,12 -3,13 -2,11 -2,10 0,9 -3,3 -4,1 -6,-1 -7,-4 -8,-6 -8,-6 -10,-8 -9,-8 -9,-8 -10,-8 -8,-7 -7,-6 -7,-4 -4,-3 -4,0 -1,2 -11,-13 -9,-11 -9,-7 -7,-4 -6,-2 -6,1 -5,2 -4,3 -4,4 -3,5 -3,6 -3,5 -3,4 -3,4 -3,2 -4,1 -14,0 -12,1 -10,1 -7,1 -6,2 -5,2 -3,2 -1,3 -1,4 0,4 0,4 1,5 1,6 1,6 1,7 0,7 -7,-7 -8,-6 -7,-6 -6,-4 -7,-4 -6,-3 -6,-2 -6,-1 -5,-1 -5,0 -5,1 -5,1 -4,2 -5,3 -4,3 -4,4 -11,1 -8,3 -7,6 -6,7 -4,8 -4,9 -4,9 -3,10 -3,9 -4,9 -5,7 -6,7 -7,5 -9,2 -11,1 -13,-3 0,9 -1,8 -2,10 -2,10 -2,10 -2,10 -3,10 -2,10 -2,10 -2,9 -1,9 -1,9 0,7 2,7 2,6 3,4 -2,10 -2,9 -1,8 0,6 0,7 0,6 1,5 0,5 1,6 1,5 0,6 0,6 -1,7 -1,8 -1,8 -2,10 27,0 27,0 26,1 26,1 25,1 26,1 24,1 25,1 24,2 24,1 24,2 23,2 24,2 23,2 24,2 23,2 23,2 24,1 23,2 24,2 23,2 24,2 24,1 24,2 25,1 24,2 26,1 25,1 26,1 26,0 27,1 28,0z" /><path style="fill:#e5b27f" d="M41,978 l3,-4 2,-4 3,-4 2,-4 3,-4 2,-4 3,-3 3,-4 2,-4 3,-4 3,-4 2,-4 3,-4 2,-4 3,-4 3,-4 1,-6 1,-7 2,-6 1,-7 1,-6 2,-7 1,-6 1,-7 1,-6 2,-7 1,-6 1,-7 2,-6 1,-7 1,-6 2,-7 -7,-15 -5,-14 -4,-13 -2,-12 0,-11 0,-10 2,-9 3,-7 3,-6 4,-5 4,-4 5,-2 4,-1 5,0 4,2 4,3 5,-22 4,-18 5,-15 5,-13 6,-9 5,-7 6,-5 6,-2 6,0 6,2 5,4 6,6 5,8 5,8 5,10 4,12 3,6 3,5 4,5 5,5 5,5 4,5 5,5 5,5 4,5 3,6 3,7 2,7 0,8 0,8 -2,10 -3,11 4,-5 4,-6 4,-7 4,-6 4,-7 4,-7 4,-7 4,-7 3,-6 4,-6 4,-5 4,-5 4,-4 4,-3 4,-1 4,-1 -7,-25 -4,-22 -2,-18 -1,-15 2,-12 2,-10 5,-7 5,-5 6,-3 7,-1 8,0 8,1 8,3 9,3 8,3 8,4 15,-3 13,-3 13,-3 10,-2 10,-1 9,-1 7,0 6,0 6,2 4,2 4,3 3,3 2,5 1,5 1,7 0,7 2,5 3,5 4,4 4,5 5,4 5,4 6,3 5,4 6,4 5,3 5,3 4,4 4,3 2,4 2,4 1,4 10,-15 9,-12 8,-10 6,-8 5,-7 3,-5 3,-3 3,-3 1,-1 2,-1 1,0 1,0 2,1 2,0 3,1 3,0 15,0 13,2 11,2 10,3 8,4 6,4 6,5 4,6 3,6 3,7 2,7 1,7 1,7 0,7 0,8 0,8 8,-8 7,-7 7,-6 6,-6 6,-5 5,-5 6,-4 5,-3 5,-2 4,-2 4,-1 5,0 4,0 4,2 4,2 4,4 11,1 9,4 9,6 8,7 7,8 6,10 6,9 6,9 6,8 6,8 6,5 7,4 8,0 9,-2 10,-5 11,-10 7,8 6,8 6,7 4,8 4,7 3,8 2,7 2,7 0,7 0,6 -1,6 -1,6 -2,5 -3,5 -3,5 -4,4 3,10 2,11 3,10 3,11 2,10 3,11 2,10 3,10 3,11 2,10 3,11 3,10 2,11 3,10 2,10 3,11 -916,0z" /><path style="fill:#ff7f00" d="M0,999 l5,-4 5,-4 5,-4 5,-4 5,-4 5,-4 6,-4 5,-4 5,-4 5,-3 6,-4 5,-4 5,-4 5,-4 5,-4 6,-4 7,2 6,0 5,-3 4,-6 3,-8 2,-9 2,-11 2,-12 1,-12 1,-14 1,-13 1,-13 1,-13 1,-13 2,-11 2,-10 3,6 2,5 3,5 3,5 2,5 3,6 2,5 3,5 3,5 2,6 3,5 3,5 2,5 3,5 2,5 3,6 -3,14 -1,12 0,10 2,8 4,6 4,5 6,3 6,1 7,1 8,-1 8,-1 9,-3 8,-3 9,-3 8,-4 8,-4 8,0 7,-1 6,-1 6,-2 6,-2 4,-3 4,-3 4,-3 2,-5 2,-4 1,-5 0,-6 0,-6 -2,-7 -3,-7 -3,-7 1,-7 2,-5 2,-5 1,-5 2,-5 2,-5 1,-5 2,-5 2,-5 1,-6 2,-7 1,-7 1,-8 0,-8 1,-10 0,-11 3,4 2,4 3,5 2,6 3,5 2,6 3,6 3,5 2,6 3,6 2,6 3,5 2,5 3,5 3,5 2,4 8,-1 6,-2 4,-4 4,-5 4,-7 2,-7 2,-7 2,-9 1,-8 1,-9 1,-9 0,-8 2,-8 1,-8 2,-7 2,-5 -3,-7 -3,-6 -2,-5 -1,-3 -1,-3 0,-1 1,-1 1,0 1,0 2,1 2,1 2,1 3,2 3,1 2,1 3,0 3,1 3,-1 3,-1 2,-1 3,-3 2,-4 2,-4 1,-6 1,-8 1,-9 0,-10 -1,-12 -1,-14 -2,-16 -3,-18 -3,-21 4,11 3,10 4,11 4,10 4,11 4,10 4,10 4,11 4,10 4,10 4,11 4,10 4,11 3,10 4,10 4,11 -3,22 -3,20 -1,17 -1,16 0,13 0,12 1,9 2,8 2,6 3,4 3,3 3,1 4,1 3,-2 4,-2 4,-3 3,-2 3,-4 2,-5 2,-8 1,-8 0,-10 1,-9 1,-9 1,-8 2,-8 2,-5 3,-4 3,0 5,2 6,5 7,10 4,13 5,9 6,6 7,3 7,1 7,-1 8,-1 8,-1 8,-1 7,1 8,3 7,6 6,10 6,13 6,19 4,24 12,7 11,5 11,4 11,1 9,1 9,-2 8,-2 7,-3 5,-5 3,-5 2,-6 -1,-6 -2,-7 -5,-8 -8,-8 -10,-7 3,-7 4,-6 4,-4 4,-3 5,-3 5,-2 4,-3 5,-4 4,-4 3,-6 3,-7 2,-10 1,-12 -1,-15 -1,-18 -3,-21 4,10 4,10 5,10 5,10 5,10 6,10 5,10 5,10 5,10 4,11 4,10 3,11 3,10 2,11 2,12 0,11 4,8 5,7 5,6 5,6 6,6 5,4 6,4 6,4 6,2 6,2 5,1 6,0 5,-1 5,-1 4,-3 5,-3 1,-5 2,-4 3,-4 3,-3 3,-3 3,-3 3,-3 2,-4 3,-3 2,-5 1,-5 1,-6 0,-7 -1,-8 -2,-9 -4,-11 5,8 5,8 5,9 4,9 5,9 4,9 4,9 5,9 4,9 5,8 5,8 6,7 6,7 6,6 7,5 8,5 -999,0z" /><path style="fill:#ff0" d="M33,999 l4,-3 4,-4 4,-3 4,-3 4,-3 5,-3 4,-3 4,-3 4,-3 4,-4 4,-3 5,-3 4,-3 4,-3 4,-3 4,-3 6,2 5,-1 4,-3 3,-4 3,-6 2,-8 1,-8 1,-10 1,-10 1,-11 1,-10 0,-11 1,-10 1,-10 2,-9 2,-8 2,4 2,4 2,5 2,4 2,4 2,4 2,4 2,4 2,5 2,4 2,4 3,4 2,4 2,4 2,5 2,4 -2,12 0,11 3,10 4,9 5,9 7,7 8,7 8,5 10,5 9,4 10,2 10,2 9,0 9,0 7,-2 7,-2 6,-1 6,-2 5,-3 5,-5 4,-5 4,-6 3,-6 3,-8 2,-7 1,-8 1,-8 0,-8 0,-8 -1,-7 -2,-7 -3,-7 1,-5 1,-5 2,-4 1,-4 1,-4 2,-3 1,-4 1,-4 2,-5 1,-4 1,-5 1,-6 1,-6 0,-8 1,-7 0,-9 2,4 3,5 3,6 3,8 3,8 4,9 4,9 4,9 4,9 4,9 4,9 3,8 4,8 3,6 3,5 2,4 6,-1 4,-3 3,-5 3,-7 1,-8 1,-9 1,-10 0,-11 0,-11 -1,-10 0,-11 0,-10 0,-9 0,-8 1,-7 2,-5 -5,-10 -1,-6 0,-2 3,0 5,2 5,2 7,3 7,3 7,1 6,-1 6,-4 5,-8 2,-12 1,-18 -2,-23 -4,-31 -4,8 -2,7 -2,7 0,7 0,7 1,6 1,7 2,6 2,7 3,7 3,6 3,7 4,7 3,8 3,8 4,8 -3,17 -1,16 0,14 1,13 2,11 2,9 3,7 4,6 4,5 4,4 5,2 4,1 5,0 4,-1 4,-2 3,-2 3,-1 2,-4 2,-4 2,-6 1,-7 2,-7 1,-8 2,-7 1,-7 2,-5 3,-5 3,-3 3,0 4,1 5,5 6,8 1,21 3,16 5,12 7,8 7,5 9,2 8,1 9,1 9,0 8,1 7,2 6,5 4,7 2,12 1,15 -3,21 12,3 13,2 12,0 12,0 13,-2 11,-3 11,-3 10,-4 9,-5 6,-5 6,-6 3,-6 0,-6 -2,-7 -4,-6 -8,-6 2,-6 3,-4 4,-3 3,-3 4,-2 4,-2 4,-3 3,-2 3,-4 3,-5 2,-6 2,-7 0,-10 0,-12 -1,-14 -3,-17 4,8 3,8 4,8 4,8 4,8 4,8 5,8 4,8 3,8 4,9 3,8 3,8 2,9 2,9 1,9 0,9 4,6 5,5 6,5 6,4 8,3 7,2 8,3 9,1 8,1 8,0 7,0 8,-1 6,-1 6,-2 5,-3 4,-2 1,-4 2,-4 2,-3 2,-2 2,-3 3,-2 2,-3 2,-2 2,-3 2,-4 1,-4 1,-5 -1,-5 0,-7 -2,-7 -3,-9 4,6 3,7 3,6 2,6 2,7 2,6 1,6 2,6 2,6 2,5 2,6 3,5 3,4 4,4 5,4 6,4 -945,0z" /><path style="fill:#fff" d="M478,957 l42,-21 62,42 -249,0 20,-21 -20,-63 62,63 21,-21 0,-62 41,41 21,42z" /><path style="fill:#fff" d="M104,978 l41,-21 0,-42 21,84 -62,-21z" /><path style="fill:#fff" d="M770,978 l0,-84 20,63 -20,21z" /></svg>