<!DOCTYPE svg PUBLIC "-//W3C//DTD SVG 20000303 Stylable//EN" "http://www.w3.org/TR/2000/03/WD-SVG-20000303/DTD/svg-20000303-stylable.dtd"[]><svg xmlns="http://www.w3.org/2000/svg" width="709px" height="999px" viewBox="0 0 691 999"><path style="fill:#ff0;stroke:#4c4c4c;stroke-width:2" d="M360,192 l-3,-1 -2,0 -3,-1 -4,1 -4,0 -5,1 -4,0 -5,0 -8,17 -4,16 1,14 5,14 9,12 10,11 13,9 15,9 15,7 16,5 15,4 15,2 13,1 12,-1 8,-3 6,-5 6,-11 4,-10 1,-10 -1,-10 -2,-10 -5,-9 -6,-9 -8,-8 -10,-7 -11,-7 -11,-6 -12,-5 -14,-4 -13,-3 -15,-2 -14,-1z" /><path style="fill:#ff0;stroke:#4c4c4c;stroke-width:2" d="M378,176 l-15,-9 -14,-8 -13,-8 -12,-8 -12,-8 -10,-8 -9,-8 -8,-9 -8,-9 -6,-9 -5,-11 -4,-12 -4,-12 -2,-14 -2,-14 0,-17 14,-9 13,-3 13,1 12,5 11,9 11,12 9,14 9,16 8,17 7,18 5,17 5,17 4,16 2,14 1,11 0,9z" /><path style="fill:#ff0;stroke:#4c4c4c;stroke-width:2" d="M428,184 l-2,-9 -2,-9 -3,-10 -3,-9 -3,-10 -4,-10 -4,-10 -3,-9 -3,-10 -3,-9 -2,-9 -2,-8 0,-8 0,-7 2,-6 3,-5 17,-10 14,-6 12,-2 11,0 8,3 7,5 5,6 4,8 2,10 2,10 0,11 -1,11 -1,11 -2,10 -3,9 -3,8 -3,10 -4,9 -2,8 -2,6 -5,6 -5,5 -9,5 -13,5z" /><path style="fill:#ff0;stroke:#4c4c4c;stroke-width:2" d="M510,252 l19,-13 20,-10 19,-8 18,-6 17,-4 16,-2 15,0 14,2 12,4 11,5 8,7 7,9 3,10 2,11 -1,13 -4,13 -6,2 -7,1 -9,-1 -9,0 -11,-2 -10,-2 -12,-2 -12,-4 -13,-3 -12,-3 -13,-4 -13,-3 -13,-3 -12,-3 -12,-2 -12,-2z" /><path style="fill:#ff0;stroke:#4c4c4c;stroke-width:2" d="M510,300 l15,0 15,0 14,1 15,1 15,2 14,2 14,4 13,4 12,6 11,7 10,8 8,10 6,12 6,13 3,15 1,18 -5,5 -6,4 -5,4 -7,2 -7,0 -7,-2 -8,-3 -7,-6 -6,-5 -6,-5 -6,-7 -6,-7 -7,-7 -7,-7 -6,-8 -8,-8 -7,-7 -8,-8 -8,-8 -8,-6 -9,-7 -9,-7 -9,-5 -10,-5z" /><path style="fill:#ff0;stroke:#4c4c4c;stroke-width:2" d="M299,176 l-11,-1 -12,-1 -12,-1 -12,-1 -12,-1 -12,-2 -12,-2 -12,-2 -11,-3 -11,-4 -11,-4 -10,-4 -10,-5 -8,-7 -8,-6 -7,-8 -2,-6 -2,-7 -1,-7 0,-7 1,-6 2,-6 3,-5 5,-4 14,1 13,0 13,2 13,3 13,3 12,3 11,5 12,6 10,6 10,7 10,9 8,9 8,10 7,11 6,12 5,13z" /><path style="fill:#ff0;stroke:#4c4c4c;stroke-width:2" d="M299,238 l-13,2 -12,5 -11,4 -11,5 -11,6 -10,5 -10,6 -10,4 -10,4 -10,3 -11,2 -11,0 -12,-2 -13,-3 -14,-6 -15,-8 -4,-8 -2,-7 -2,-7 0,-8 1,-7 1,-8 3,-8 3,-8 14,-4 13,-3 13,-2 12,0 12,1 12,3 11,2 11,4 12,4 11,4 10,5 11,4 11,5 11,4 10,4 10,3z" /><path style="fill:#ff0;stroke:#4c4c4c;stroke-width:2" d="M341,295 l-7,12 -7,12 -8,12 -8,12 -8,10 -8,11 -9,9 -9,8 -9,7 -10,4 -9,4 -10,1 -10,-1 -10,-4 -10,-6 -11,-10 1,-13 2,-11 3,-11 4,-9 4,-8 6,-8 7,-6 8,-5 9,-4 10,-3 12,-3 12,-1 14,-1 16,0 16,1 19,1z" /><path style="fill:#ff0;stroke:#4c4c4c;stroke-width:2" d="M386,320 l7,7 7,8 8,10 8,10 8,11 8,13 7,12 6,12 6,13 5,11 4,12 2,11 0,9 -1,9 -4,6 -6,6 -6,8 -9,3 -11,0 -12,-3 -12,-6 -12,-8 -11,-9 -8,-10 -1,-7 -2,-7 0,-8 0,-8 0,-9 1,-9 1,-9 1,-9 2,-9 1,-9 2,-9 2,-9 2,-9 2,-8 3,-8 2,-8z" /><path style="fill:#ff0;stroke:#4c4c4c;stroke-width:2" d="M459,335 l6,13 6,16 6,17 4,18 5,18 4,17 4,17 5,14 5,13 6,10 7,7 8,2 10,-1 11,-7 13,-12 15,-18 4,-6 2,-8 0,-9 -3,-10 -4,-10 -5,-10 -7,-10 -9,-11 -9,-10 -11,-9 -11,-9 -12,-8 -12,-5 -13,-5 -13,-3 -12,-1z" /><path style="fill:#ff0;stroke:#4c4c4c;stroke-width:2" d="M262,416 l11,2 11,-2 10,-7 10,-10 11,-11 9,-10 9,-9 8,-5 0,5 0,6 -1,8 0,8 0,9 1,10 1,9 0,10 2,10 1,9 2,8 4,8 3,7 4,6 6,4 6,3 -23,3 -20,7 -17,12 -15,16 -12,18 -10,22 -8,24 -7,24 -4,27 -4,27 -3,26 -1,27 -1,25 -1,23 0,21 0,18 6,-8 10,-11 12,-14 13,-15 15,-16 16,-17 17,-17 19,-17 18,-15 19,-14 19,-13 19,-10 19,-7 18,-4 18,0 16,5 7,3 6,2 7,3 7,3 6,2 6,2 7,3 7,1 7,2 6,2 8,3 7,1 8,2 9,2 8,1 10,3 -26,1 -24,3 -22,6 -22,7 -21,9 -20,10 -19,12 -19,12 -19,13 -18,13 -19,14 -18,14 -18,14 -19,13 -19,13 -20,11 -9,4 -9,4 -8,4 -7,5 -7,5 -6,6 -6,6 -5,7 -4,7 -4,7 -3,8 -3,8 -2,9 -2,9 -1,9 -1,10 3,12 2,12 0,11 -1,9 -5,7 -9,6 -12,3 -17,0 0,-44 3,-11 4,-12 2,-12 3,-13 3,-13 3,-14 2,-13 3,-13 2,-13 2,-13 2,-12 2,-12 1,-11 1,-10 1,-9 0,-9 -2,-25 -7,-25 -9,-23 -13,-22 -14,-22 -17,-21 -18,-20 -19,-20 -18,-19 -19,-20 -18,-20 -16,-19 -14,-20 -12,-20 -8,-20 -5,-21 12,0 10,3 10,3 9,4 8,6 7,6 8,5 7,7 7,7 8,5 9,6 9,6 11,4 12,3 13,3 15,0 7,8 7,6 6,7 7,7 6,6 5,6 6,7 4,7 5,8 4,7 3,9 3,9 2,9 1,11 1,11 1,12 8,21 1,-14 0,-15 2,-14 2,-14 2,-14 2,-14 3,-15 2,-14 3,-15 2,-14 3,-14 3,-15 2,-15 1,-14 2,-16 1,-14z" /><path style="fill:#ff0;stroke:#4c4c4c;stroke-width:2" d="M481,215 l2,-8 1,-8 2,-8 2,-8 3,-8 3,-8 3,-7 3,-7 5,-7 3,-7 5,-6 5,-6 5,-5 6,-4 6,-4 6,-2 14,0 14,0 13,1 12,3 10,5 7,9 5,12 2,17 -1,6 -3,4 -5,5 -7,3 -8,4 -10,2 -11,2 -11,2 -11,3 -12,2 -12,3 -11,3 -10,3 -10,4 -8,5 -7,5z" /></svg>