<!DOCTYPE svg PUBLIC "-//W3C//DTD SVG 20000303 Stylable//EN" "http://www.w3.org/TR/2000/03/WD-SVG-20000303/DTD/svg-20000303-stylable.dtd"[]><svg xmlns="http://www.w3.org/2000/svg" width="805px" height="999px" viewBox="0 0 794 999"><path style="fill:#0f0;fill-rule:evenodd" d="M8,701 l15,-3 15,-1 13,1 14,2 13,3 13,5 12,6 12,6 12,6 12,7 12,8 11,7 12,7 12,7 11,7 12,5 -3,-7 -5,-7 -4,-7 -5,-7 -5,-6 -5,-8 -5,-6 -5,-7 -5,-7 -4,-8 -4,-7 -3,-8 -3,-7 -2,-8 -1,-8 0,-9 8,-16 10,-9 10,-5 11,0 11,4 12,7 11,9 13,12 11,12 12,14 13,13 12,13 12,11 12,10 11,7 11,4 7,-14 7,-14 6,-14 6,-14 4,-15 5,-15 4,-15 3,-15 3,-16 3,-16 2,-16 2,-16 1,-16 1,-16 0,-16 0,-17 0,-16 -1,-16 0,-16 -2,-17 -2,-15 -2,-16 -2,-16 -2,-15 -3,-15 -3,-16 -3,-14 -3,-15 -3,-14 -4,-14 -4,-14 -4,-13 -6,6 -5,8 -5,7 -4,8 -6,9 -5,7 -6,7 -7,5 -3,-1 -3,0 -3,-1 -3,-1 -2,-1 -2,-2 -1,-2 -1,-2 10,-15 9,-13 8,-13 6,-11 5,-9 5,-9 4,-8 3,-6 2,-6 1,-5 1,-5 0,-3 0,-3 -1,-2 -1,-2 -2,-1 -1,1 -2,2 -2,5 -3,5 -4,7 -3,7 -3,8 -4,8 -4,8 -4,8 -4,7 -3,6 -5,5 -3,3 -4,2 -3,0 -2,-1 -3,-1 -3,-1 -2,-1 -2,-1 -3,-2 -2,-3 -3,-3 1,-4 2,-6 3,-5 3,-6 3,-6 3,-5 1,-5 -1,-4 -14,2 -10,-2 -6,-5 -4,-7 0,-10 2,-12 4,-13 5,-14 6,-14 8,-14 7,-13 8,-13 7,-11 6,-9 5,-7 3,-3 3,-1 3,0 2,-1 2,0 1,0 2,2 1,3 2,5 -1,4 -2,6 -2,7 -4,8 -3,9 -5,10 -4,10 -5,11 -4,10 -4,10 -4,10 -2,9 -2,8 -1,7 1,6 2,4 0,0 1,-3 2,-7 3,-7 4,-9 4,-10 5,-11 5,-11 6,-10 5,-10 6,-9 6,-7 5,-5 5,-3 5,1 4,3 1,4 2,4 2,7 3,8 2,8 2,11 2,10 3,12 2,11 2,11 2,12 2,10 1,10 2,10 1,7 1,7 5,23 5,23 4,22 4,21 3,21 3,20 2,20 2,19 2,18 1,18 1,17 1,16 0,17 0,15 0,15 -1,14 0,15 -1,13 -2,13 -1,12 -2,12 -2,12 -1,11 -3,10 -2,10 -2,10 -3,10 -2,8 -3,9 -2,8 -4,8 -2,7 -4,2 -2,1 0,0 3,-1 4,-2 7,-3 8,-4 10,-4 11,-5 12,-6 13,-6 15,-6 14,-6 16,-6 15,-6 17,-6 16,-6 16,-5 16,-5 15,-4 15,-4 14,-2 14,-2 12,0 11,0 10,2 8,3 7,5 5,6 3,8 1,10 -2,12 -7,3 -8,3 -8,4 -9,3 -9,4 -9,4 -10,5 -9,4 -9,5 -9,5 -9,5 -8,5 -8,5 -7,5 -7,6 -5,5 -4,0 -1,-2 1,-1 3,-2 4,-3 6,-2 8,-3 9,-3 10,-4 11,-3 12,-3 12,-3 13,-3 14,-3 14,-2 13,-2 14,-2 14,-1 13,0 13,0 12,1 12,1 10,2 10,3 8,5 7,5 5,6 4,7 2,9 0,9 -3,12 -4,12 -9,3 -9,2 -10,3 -11,4 -11,3 -12,3 -12,4 -14,4 -13,3 -13,5 -14,4 -14,5 -14,5 -15,4 -14,6 -14,5 -15,6 -14,5 -14,6 -13,6 -14,6 -13,7 -13,7 -11,7 -12,7 -11,7 -10,8 -10,7 -9,8 -8,8 -7,8 -7,9 2,7 0,8 -2,6 -4,5 -5,4 -7,4 -7,2 -9,2 -9,2 -9,0 -9,-2 -9,-1 -9,-3 -8,-3 -8,-4 -6,-5 -3,-8 -5,-8 -7,-8 -8,-8 -9,-8 -11,-9 -12,-8 -12,-9 -14,-9 -13,-8 -15,-9 -15,-9 -15,-8 -15,-9 -16,-9 -15,-9 -15,-9 -14,-9 -14,-9 -13,-9 -13,-9 -11,-9 -11,-9 -9,-9 -8,-9 -6,-9 -5,-9 -3,-9 -1,-9 0,-9 3,-9 5,-9z M262,49 l5,0 4,2 6,2 5,4 4,5 2,5 0,5 -4,7 -6,0 -7,-1 -5,-4 -5,-6 -3,-5 -1,-6 1,-5 4,-3z M324,13 l5,1 5,2 4,3 4,4 3,5 2,6 -1,5 -2,4 -4,0 -5,-2 -6,-4 -6,-4 -5,-5 -1,-6 1,-5 6,-4z M342,77 l4,-2 5,-1 7,0 6,0 7,0 8,1 7,1 8,1 6,2 7,2 6,3 5,2 4,3 3,3 1,4 0,3 0,3 -1,2 -5,2 -6,0 -7,0 -9,0 -9,-2 -10,-1 -9,-3 -9,-2 -7,-3 -7,-3 -5,-4 -3,-4 0,-4 3,-3z M366,142 l1,-5 4,-4 6,-2 8,0 9,1 9,3 10,3 9,4 9,5 7,5 7,5 5,5 3,4 0,4 -3,3 -6,3 -7,1 -11,-1 -12,-2 -14,-4 -13,-5 -11,-6 -7,-7 -3,-10z M386,2 l6,-2 6,0 4,1 4,3 2,5 1,4 1,6 -1,6 -8,3 -7,2 -5,-2 -4,-4 -2,-4 0,-6 1,-6 2,-6z M400,228 l2,-3 3,-2 5,0 6,0 5,2 7,2 6,3 7,4 5,4 6,5 4,4 3,5 2,5 1,4 -1,5 -4,4 -10,1 -12,-1 -12,-4 -10,-7 -9,-8 -6,-8 -1,-8 3,-7z " /><path style="fill:none;stroke:#4c4c4c;stroke-width:2" d="M8,701 l15,-3 15,-1 13,1 14,2 13,3 13,5 12,6 12,6 12,6 12,7 12,8 11,7 12,7 12,7 11,7 12,5 -3,-7 -5,-7 -4,-7 -5,-7 -5,-6 -5,-8 -5,-6 -5,-7 -5,-7 -4,-8 -4,-7 -3,-8 -3,-7 -2,-8 -1,-8 0,-9 8,-16 10,-9 10,-5 11,0 11,4 12,7 11,9 13,12 11,12 12,14 13,13 12,13 12,11 12,10 11,7 11,4 7,-14 7,-14 6,-14 6,-14 4,-15 5,-15 4,-15 3,-15 3,-16 3,-16 2,-16 2,-16 1,-16 1,-16 0,-16 0,-17 0,-16 -1,-16 0,-16 -2,-17 -2,-15 -2,-16 -2,-16 -2,-15 -3,-15 -3,-16 -3,-14 -3,-15 -3,-14 -4,-14 -4,-14 -4,-13 -6,6 -5,8 -5,7 -4,8 -6,9 -5,7 -6,7 -7,5 -3,-1 -3,0 -3,-1 -3,-1 -2,-1 -2,-2 -1,-2 -1,-2 10,-15 9,-13 8,-13 6,-11 5,-9 5,-9 4,-8 3,-6 2,-6 1,-5 1,-5 0,-3 0,-3 -1,-2 -1,-2 -2,-1 -1,1 -2,2 -2,5 -3,5 -4,7 -3,7 -3,8 -4,8 -4,8 -4,8 -4,7 -3,6 -5,5 -3,3 -4,2 -3,0 -2,-1 -3,-1 -3,-1 -2,-1 -2,-1 -3,-2 -2,-3 -3,-3 1,-4 2,-6 3,-5 3,-6 3,-6 3,-5 1,-5 -1,-4 -14,2 -10,-2 -6,-5 -4,-7 0,-10 2,-12 4,-13 5,-14 6,-14 8,-14 7,-13 8,-13 7,-11 6,-9 5,-7 3,-3 3,-1 3,0 2,-1 2,0 1,0 2,2 1,3 2,5 -1,4 -2,6 -2,7 -4,8 -3,9 -5,10 -4,10 -5,11 -4,10 -4,10 -4,10 -2,9 -2,8 -1,7 1,6 2,4 0,0 1,-3 2,-7 3,-7 4,-9 4,-10 5,-11 5,-11 6,-10 5,-10 6,-9 6,-7 5,-5 5,-3 5,1 4,3 1,4 2,4 2,7 3,8 2,8 2,11 2,10 3,12 2,11 2,11 2,12 2,10 1,10 2,10 1,7 1,7 5,23 5,23 4,22 4,21 3,21 3,20 2,20 2,19 2,18 1,18 1,17 1,16 0,17 0,15 0,15 -1,14 0,15 -1,13 -2,13 -1,12 -2,12 -2,12 -1,11 -3,10 -2,10 -2,10 -3,10 -2,8 -3,9 -2,8 -4,8 -2,7 -4,2 -2,1 0,0 3,-1 4,-2 7,-3 8,-4 10,-4 11,-5 12,-6 13,-6 15,-6 14,-6 16,-6 15,-6 17,-6 16,-6 16,-5 16,-5 15,-4 15,-4 14,-2 14,-2 12,0 11,0 10,2 8,3 7,5 5,6 3,8 1,10 -2,12 -7,3 -8,3 -8,4 -9,3 -9,4 -9,4 -10,5 -9,4 -9,5 -9,5 -9,5 -8,5 -8,5 -7,5 -7,6 -5,5 -4,0 -1,-2 1,-1 3,-2 4,-3 6,-2 8,-3 9,-3 10,-4 11,-3 12,-3 12,-3 13,-3 14,-3 14,-2 13,-2 14,-2 14,-1 13,0 13,0 12,1 12,1 10,2 10,3 8,5 7,5 5,6 4,7 2,9 0,9 -3,12 -4,12 -9,3 -9,2 -10,3 -11,4 -11,3 -12,3 -12,4 -14,4 -13,3 -13,5 -14,4 -14,5 -14,5 -15,4 -14,6 -14,5 -15,6 -14,5 -14,6 -13,6 -14,6 -13,7 -13,7 -11,7 -12,7 -11,7 -10,8 -10,7 -9,8 -8,8 -7,8 -7,9 2,7 0,8 -2,6 -4,5 -5,4 -7,4 -7,2 -9,2 -9,2 -9,0 -9,-2 -9,-1 -9,-3 -8,-3 -8,-4 -6,-5 -3,-8 -5,-8 -7,-8 -8,-8 -9,-8 -11,-9 -12,-8 -12,-9 -14,-9 -13,-8 -15,-9 -15,-9 -15,-8 -15,-9 -16,-9 -15,-9 -15,-9 -14,-9 -14,-9 -13,-9 -13,-9 -11,-9 -11,-9 -9,-9 -8,-9 -6,-9 -5,-9 -3,-9 -1,-9 0,-9 3,-9 5,-9" /><path style="fill:none;stroke:#4c4c4c;stroke-width:2" d="M262,49 l5,0 4,2 6,2 5,4 4,5 2,5 0,5 -4,7 -6,0 -7,-1 -5,-4 -5,-6 -3,-5 -1,-6 1,-5 4,-3" /><path style="fill:none;stroke:#4c4c4c;stroke-width:2" d="M324,13 l5,1 5,2 4,3 4,4 3,5 2,6 -1,5 -2,4 -4,0 -5,-2 -6,-4 -6,-4 -5,-5 -1,-6 1,-5 6,-4" /><path style="fill:none;stroke:#4c4c4c;stroke-width:2" d="M342,77 l4,-2 5,-1 7,0 6,0 7,0 8,1 7,1 8,1 6,2 7,2 6,3 5,2 4,3 3,3 1,4 0,3 0,3 -1,2 -5,2 -6,0 -7,0 -9,0 -9,-2 -10,-1 -9,-3 -9,-2 -7,-3 -7,-3 -5,-4 -3,-4 0,-4 3,-3" /><path style="fill:none;stroke:#4c4c4c;stroke-width:2" d="M366,142 l1,-5 4,-4 6,-2 8,0 9,1 9,3 10,3 9,4 9,5 7,5 7,5 5,5 3,4 0,4 -3,3 -6,3 -7,1 -11,-1 -12,-2 -14,-4 -13,-5 -11,-6 -7,-7 -3,-10" /><ellipse style="fill:none;stroke:#4c4c4c;stroke-width:2" cx="396" cy="15" rx="13" ry="15" /><path style="fill:none;stroke:#4c4c4c;stroke-width:2" d="M400,228 l2,-3 3,-2 5,0 6,0 5,2 7,2 6,3 7,4 5,4 6,5 4,4 3,5 2,5 1,4 -1,5 -4,4 -10,1 -12,-1 -12,-4 -10,-7 -9,-8 -6,-8 -1,-8 3,-7" /></svg>