<!DOCTYPE svg PUBLIC "-//W3C//DTD SVG 20000303 Stylable//EN" "http://www.w3.org/TR/2000/03/WD-SVG-20000303/DTD/svg-20000303-stylable.dtd"[]><svg xmlns="http://www.w3.org/2000/svg" width="999px" height="758px" viewBox="0 0 999 743"><path style="fill:#008040;stroke:#4c4c4c;stroke-width:2" d="M903,641 l0,-10 0,-11 -2,-12 -2,-11 -3,-10 -4,-8 -6,-6 -8,-2 -1,-18 -2,-16 -4,-14 -5,-12 -7,-11 -7,-9 -9,-8 -10,-7 -10,-6 -12,-5 -11,-4 -13,-4 -13,-4 -13,-3 -14,-4 -14,-3 -3,14 -4,15 -4,16 -3,16 -4,18 -4,18 -4,19 -4,19 -4,19 -4,19 -5,20 -4,19 -5,19 -4,19 -5,18 -5,18 -20,4 -18,3 -18,3 -16,2 -17,1 -16,1 -15,0 -15,0 -16,0 -15,-1 -14,-1 -16,-1 -15,-2 -16,-2 -17,-2 -17,-3 -3,-17 -3,-18 -4,-18 -3,-19 -4,-18 -4,-19 -5,-19 -4,-20 -4,-19 -5,-19 -4,-19 -4,-19 -4,-18 -4,-18 -3,-18 -3,-18 -18,26 -15,22 -12,20 -10,17 -8,16 -7,13 -7,11 -7,10 -9,8 -10,7 -12,7 -15,5 -19,6 -24,5 -28,6 -33,6 0,-8 1,-9 1,-8 1,-8 1,-9 2,-8 2,-9 2,-9 1,-8 2,-9 2,-8 1,-9 1,-8 1,-8 1,-8 0,-8 -3,-1 -3,0 -5,2 -4,2 -5,2 -4,2 -3,1 -2,-1 6,-13 4,-14 5,-14 3,-15 4,-16 3,-15 4,-16 4,-15 5,-15 5,-14 7,-14 8,-13 10,-12 11,-11 13,-9 15,-8 5,-2 5,-3 5,-2 6,-3 5,-3 5,-3 6,-3 5,-3 6,-3 5,-2 6,-3 5,-2 5,-1 5,-2 5,0 5,-1 -13,2 -13,0 -12,0 -12,-1 -12,-2 -11,-1 -11,-2 -10,-2 -10,-2 -10,-2 -8,-1 -9,-1 -7,0 -8,0 -6,2 -6,3 1,-3 2,-3 2,-4 3,-4 3,-4 2,-3 2,-3 1,-2 -8,-2 -9,-3 -9,-2 -9,-2 -9,-1 -9,-2 -10,-1 -9,0 -10,-1 -10,0 -10,0 -10,0 -10,1 -9,1 -10,1 -9,1 5,-5 5,-7 5,-6 4,-7 5,-7 4,-7 5,-8 4,-7 5,-7 5,-8 5,-7 5,-7 5,-6 6,-7 7,-5 6,-6 18,-5 18,-3 18,0 19,1 19,3 19,4 19,5 19,5 19,4 18,4 17,2 16,1 15,-1 14,-3 13,-7 11,-10 -1,-10 -3,-8 -4,-8 -4,-6 -6,-5 -6,-5 -7,-4 -8,-3 -8,-3 -8,-3 -8,-3 -8,-4 -7,-3 -7,-4 -7,-4 -6,-5 21,2 20,2 19,1 19,1 18,2 17,2 16,2 14,4 14,5 12,6 10,8 9,11 7,12 5,15 3,18 1,20 4,4 4,5 5,4 5,4 5,4 5,4 6,3 5,2 3,-7 4,-7 2,-6 3,-6 3,-6 3,-5 3,-5 5,-5 5,-5 6,-5 7,-5 9,-5 11,-5 12,-6 14,-6 17,-6 5,-4 4,-3 4,-5 3,-4 4,-4 3,-5 4,-5 4,-4 4,-5 5,-5 6,-4 7,-4 9,-4 10,-4 11,-4 13,-2 -11,12 -8,9 -6,8 -5,6 -2,5 -2,3 0,3 1,2 1,2 2,2 2,2 3,3 2,4 2,6 1,7 0,9 -7,5 -7,5 -7,6 -7,6 -7,7 -7,7 -6,7 -6,6 18,-1 20,-5 21,-6 23,-9 24,-8 24,-9 25,-8 23,-7 23,-5 21,-2 19,2 17,5 13,11 11,16 6,22 3,29 2,6 4,3 4,1 5,-3 5,-4 4,-6 4,-8 3,-10 5,2 5,4 5,6 5,8 4,10 4,12 4,12 3,13 3,13 3,13 2,13 2,12 2,11 1,9 1,8 0,6 -5,-4 -6,-4 -7,-5 -8,-6 -8,-5 -7,-4 -7,-4 -7,-3 -11,-4 -13,-6 -15,-5 -16,-6 -16,-5 -17,-5 -18,-5 -17,-4 -18,-3 -18,-2 -17,-1 -16,1 -15,2 -14,5 -12,6 -11,9 13,12 15,9 15,6 16,4 17,3 16,1 17,1 17,1 17,2 16,3 16,5 15,8 15,11 13,14 13,19 11,24 2,4 2,6 1,6 2,6 2,7 2,6 3,5 2,5 -4,0 -5,-2 -5,-1 -6,-3 -6,-2 -7,-3 -6,-3 -7,-2 -7,-2 -6,-1 -6,1 -5,1 -6,2 -4,5 -4,6 -2,8 10,10 9,13 8,13 7,15 6,16 5,16 5,17 3,17 2,17 0,17 0,17 -2,16 -3,16 -5,14 -6,13 -8,12z" /><path style="fill:#008040;stroke:#4c4c4c;stroke-width:2" d="M353,431 l1,6 2,13 4,16 4,21 5,23 5,26 6,27 6,27 5,27 6,26 5,24 4,21 3,17 2,12 1,7 -1,1 17,2 16,2 15,2 16,2 15,1 15,1 15,1 15,0 15,0 16,0 15,-1 15,-2 16,-1 16,-3 16,-2 17,-4 4,-17 4,-18 5,-18 4,-19 4,-19 5,-19 4,-19 5,-19 4,-19 4,-18 3,-18 4,-18 3,-16 3,-15 2,-15 2,-13 -17,0 -13,0 -9,0 -7,-2 -6,-4 -6,-7 -6,-10 -10,-14 -5,-4 -5,-2 -6,-2 -5,-1 -6,-1 -5,0 -6,0 -5,0 9,10 7,10 6,10 3,11 3,10 1,11 1,11 0,11 -1,11 -2,11 -1,12 -2,11 -2,12 -1,13 -1,12 0,13 -20,-59 -4,0 -4,0 -5,1 -4,0 -5,2 -5,1 -4,3 -4,3 -2,-14 -5,-13 -9,-12 -11,-12 -14,-11 -16,-9 -16,-8 -18,-8 -18,-6 -19,-4 -18,-4 -17,-2 -17,0 -14,1 -12,3 -10,4z" /></svg>