<!DOCTYPE svg PUBLIC "-//W3C//DTD SVG 20000303 Stylable//EN" "http://www.w3.org/TR/2000/03/WD-SVG-20000303/DTD/svg-20000303-stylable.dtd"[]><svg xmlns="http://www.w3.org/2000/svg" width="839px" height="998px" viewBox="0 0 829 999"><path style="fill:#804000;stroke:#4c4c4c;stroke-width:2" d="M0,274 l21,9 21,7 22,4 21,3 22,3 21,2 22,1 22,2 21,3 21,3 20,5 20,7 19,10 18,11 18,15 17,18 -11,-36 -6,-31 -4,-26 0,-23 2,-19 4,-17 6,-14 8,-13 8,-13 10,-13 8,-14 10,-15 8,-16 8,-19 6,-23 4,-26 5,-25 4,-18 4,-11 4,-5 3,0 4,5 3,8 4,12 3,14 4,15 3,15 5,16 4,15 6,14 6,11 6,8 19,19 15,18 11,16 9,15 5,15 4,13 1,13 -1,13 -1,13 -3,12 -4,13 -3,13 -3,14 -2,14 -2,15 0,17 23,-14 23,-10 21,-7 20,-5 20,-2 21,-1 19,2 20,1 19,3 20,1 19,2 20,0 20,0 21,-3 21,-5 22,-8 -20,30 -16,25 -13,23 -11,19 -8,16 -8,15 -7,13 -7,12 -9,11 -12,11 -13,12 -18,12 -21,14 -28,15 -33,18 -39,20 25,-6 23,-3 20,0 19,3 16,4 14,7 13,8 12,10 11,12 10,13 10,13 10,15 10,14 10,15 10,15 11,15 -8,-2 -8,-2 -9,0 -9,0 -10,0 -9,1 -10,2 -10,2 -11,3 -10,3 -12,3 -11,3 -11,3 -13,3 -11,2 -13,3 -12,2 -13,2 -13,2 -14,0 -13,1 -14,-1 -14,-1 -14,-2 -14,-3 -15,-4 -15,-5 -15,-6 -15,-8 -15,-9 -16,-11 -15,-11 -3,47 -4,43 -5,38 -7,34 -7,31 -9,26 -10,22 -11,19 -12,15 -12,12 -14,9 -14,6 -15,4 -16,2 -16,-2 -17,-4 21,-1 18,-4 17,-5 14,-8 13,-12 11,-12 10,-16 9,-18 7,-21 6,-22 5,-25 4,-27 3,-30 3,-32 1,-35 2,-37 -20,17 -19,13 -20,12 -20,7 -20,6 -21,4 -21,2 -21,0 -22,0 -23,-2 -23,-2 -25,-3 -25,-3 -26,-3 -28,-2 -28,-2 15,-11 13,-11 9,-13 9,-13 6,-13 6,-13 7,-14 7,-14 9,-14 10,-14 13,-14 16,-14 20,-13 25,-13 30,-13 36,-12 -26,-9 -24,-9 -22,-9 -20,-10 -18,-11 -16,-11 -14,-13 -13,-13 -12,-15 -12,-16 -11,-18 -10,-19 -10,-21 -10,-23 -11,-25 -10,-27z" /></svg>