<!DOCTYPE svg PUBLIC "-//W3C//DTD SVG 20000303 Stylable//EN" "http://www.w3.org/TR/2000/03/WD-SVG-20000303/DTD/svg-20000303-stylable.dtd"[]><svg xmlns="http://www.w3.org/2000/svg" width="999px" height="349px" viewBox="0 0 999 325"><path style="fill:#fff" d="M420,315 l347,-21 190,-42 31,-95 -95,-63 -305,-74 -231,21 -147,-31 -180,63 -20,95 126,63 136,-11 116,32 -10,31 42,32z" /><path style="fill:#e5e5e5" d="M420,315 l347,-21 190,-42 11,-42 -95,10 -190,21 -200,-84 -263,32 -84,0 -126,-21 126,63 136,-11 116,32 -10,31 42,32z" /><path style="fill:none;stroke:#4c4c4c;stroke-width:2" d="M420,315 l347,-21 190,-42 31,-95 -95,-63 -305,-74 -231,21 -147,-31 -180,63 -20,95 126,63 136,-11 116,32 -10,31 42,32" /></svg>