<!DOCTYPE svg PUBLIC "-//W3C//DTD SVG 20000303 Stylable//EN" "http://www.w3.org/TR/2000/03/WD-SVG-20000303/DTD/svg-20000303-stylable.dtd"[]><svg xmlns="http://www.w3.org/2000/svg" width="999px" height="821px" viewBox="0 0 998 810"><path style="fill:#fff" d="M453,93 l-4,-2 -4,-2 -4,-3 -4,-4 -3,-4 -4,-4 -3,-5 -4,-4 -3,-5 -4,-4 -4,-4 -4,-3 -5,-3 -5,-2 -6,-1 -6,-1 -11,5 -11,2 -10,2 -11,1 -10,-1 -9,-1 -10,-1 -10,-2 -9,-3 -9,-2 -10,-2 -8,-3 -9,-1 -9,-2 -8,0 -9,0 -12,0 -10,1 -9,4 -9,5 -7,6 -6,8 -6,7 -6,9 -5,8 -6,8 -6,8 -6,7 -6,6 -7,5 -8,3 -9,1 -5,13 -4,11 -2,10 0,9 1,7 2,6 3,5 3,5 4,5 5,4 4,5 4,4 4,5 2,6 2,7 1,8 -5,3 -6,3 -5,4 -5,4 -5,3 -5,4 -6,4 -5,4 -5,4 -5,4 -5,4 -5,4 -6,4 -6,3 -5,4 -6,3 -1,1 0,1 -1,2 -1,3 -1,3 -1,3 -1,4 -1,4 -1,3 -2,4 -1,4 -1,3 -1,2 0,3 -1,2 0,1 -4,7 -3,6 -3,7 -2,6 -2,6 -2,6 -1,6 -2,6 -1,6 -2,6 -2,6 -2,6 -2,7 -3,6 -3,7 -3,8 -2,12 -1,11 0,11 2,10 2,9 3,9 5,9 5,8 5,8 6,8 6,8 6,7 6,9 6,8 6,8 6,9 13,7 13,6 14,4 13,3 14,2 13,1 13,1 12,0 11,0 10,0 8,0 8,0 5,2 4,2 2,3 0,4 4,6 3,4 2,5 1,4 1,3 0,4 0,3 1,4 1,4 3,5 3,5 6,7 6,7 10,9 12,10 14,12 8,4 7,6 7,6 6,6 6,7 6,7 6,7 6,7 6,6 6,6 7,5 7,5 7,3 8,2 8,1 9,-1 7,0 6,-1 7,1 8,0 7,1 8,1 8,2 9,1 8,2 9,2 8,1 9,2 8,2 9,2 8,2 9,1 8,2 8,1 7,1 8,1 7,1 6,0 7,0 6,-1 5,-1 5,-2 5,-2 3,-2 4,-3 2,-4 2,-5 1,-5 4,-5 4,-8 4,-8 4,-9 5,-9 5,-9 5,-10 6,-10 5,-8 6,-9 6,-7 6,-5 7,-4 6,-3 6,0 7,2 11,2 10,2 11,4 11,4 9,5 10,6 10,5 9,6 9,4 9,4 9,3 8,2 7,0 8,-2 7,-4 6,-6 8,-5 8,-3 9,-3 10,-3 9,-2 10,-2 10,-3 10,-3 10,-3 9,-3 8,-5 8,-6 6,-7 5,-8 5,-10 2,-12 1,-9 2,-10 3,-10 3,-10 3,-9 4,-10 3,-9 4,-10 3,-9 3,-10 2,-9 2,-9 2,-10 0,-9 0,-10 -1,-9 -1,-7 -1,-8 0,-9 0,-8 0,-10 0,-9 -1,-10 0,-10 -1,-9 -1,-9 -1,-9 -2,-8 -3,-7 -4,-6 -5,-6 -6,-4 -17,-1 -15,-2 -15,-2 -14,-3 -12,-2 -11,-3 -10,-3 -9,-3 -7,-4 -6,-4 -4,-4 -3,-5 -1,-5 0,-6 2,-6 4,-6 0,-10 0,-9 1,-8 0,-8 1,-6 0,-6 1,-6 1,-6 1,-6 0,-6 1,-6 1,-7 0,-7 1,-8 0,-9 0,-10 4,-11 3,-10 1,-10 0,-9 -2,-9 -2,-9 -3,-8 -4,-7 -5,-7 -5,-7 -5,-6 -5,-6 -5,-5 -5,-5 -5,-5 -5,-4 -11,-8 -11,-8 -10,-7 -11,-6 -10,-6 -10,-6 -10,-4 -9,-5 -10,-4 -9,-2 -9,-3 -9,-1 -9,-1 -8,0 -9,0 -8,2 -12,11 -12,9 -11,7 -10,5 -10,3 -10,2 -9,1 -9,-1 -8,-1 -8,-1 -8,-1 -7,-2 -7,-1 -7,0 -8,0 -6,1 -4,3 -4,5 -3,5 -4,6 -4,7 -4,6 -5,7 -4,6 -4,6 -5,5 -5,4 -4,3 -5,2 -5,0 -5,-2 -5,-4z" /><path style="fill:#e5e5e5" d="M563,324 l-1,-1 -2,-3 -3,-3 -2,-4 -3,-5 -3,-6 -3,-7 -3,-7 -4,-8 -3,-8 -4,-9 -4,-9 -4,-10 -4,-9 -5,-10 -4,-10 -4,-9 -4,-10 -4,-10 -4,-9 -5,-9 -4,-8 -4,-9 -4,-7 -3,-7 -4,-6 -3,-6 -4,-4 -3,-4 -3,-3 -2,-2 -3,0 -7,2 -6,0 -5,-2 -5,-3 -4,-5 -4,-5 -3,-6 -3,-6 -3,-7 -3,-6 -3,-6 -3,-6 -4,-4 -4,-3 -5,-2 -5,-1 -4,0 -4,0 -4,0 -4,0 -3,1 -4,1 -3,1 -4,1 -3,1 -3,1 -4,1 -4,1 -3,2 -4,1 -4,1 -4,1 -4,1 -5,1 -5,1 -5,0 -6,1 -6,0 -7,0 -7,-1 -7,-1 -8,-1 -9,-2 -9,-1 -9,-3 -11,-2 -11,-4 -11,-4 11,25 9,24 7,23 4,22 3,21 0,20 -2,18 -3,18 -4,17 -7,16 -7,15 -8,15 -9,13 -10,13 -11,12 -12,11 -11,10 -12,10 -13,10 -11,8 -12,8 -12,7 -11,7 -11,6 -10,6 -8,5 -8,5 -7,5 -6,4 -4,3 -2,4 -1,3 -5,17 -1,15 0,12 4,10 4,8 6,6 7,6 7,5 8,4 6,5 6,5 5,5 3,7 1,9 -3,10 -5,12 0,8 2,5 5,3 8,2 9,1 11,0 12,-1 13,-1 13,-1 14,-2 13,-1 12,0 11,1 9,2 8,4 5,5 8,5 7,5 6,4 6,5 5,4 5,4 4,3 3,4 2,3 2,3 2,3 1,4 1,3 0,3 -1,3 0,3 3,4 3,5 3,5 4,6 3,5 3,6 4,6 4,6 5,6 5,7 5,7 7,7 7,8 8,7 9,9 10,8 6,3 7,3 6,3 8,3 7,2 9,2 9,1 9,0 10,-2 11,-2 11,-4 12,-6 13,-8 14,-10 14,-12 15,-14 4,0 4,1 3,2 3,4 3,4 2,4 3,6 2,5 2,7 1,6 2,6 2,7 1,7 2,6 2,6 2,5 2,5 2,5 3,4 3,2 3,2 3,1 4,-1 4,-1 4,-3 5,-5 6,-6 6,-8 6,-10 7,-12 8,-14 8,-17 6,-4 5,-4 5,-6 4,-6 4,-6 3,-7 3,-6 3,-7 3,-6 3,-5 2,-5 4,-4 3,-3 3,-1 4,-1 5,2 8,1 8,2 10,3 10,5 10,5 11,5 10,5 11,6 11,5 9,4 10,4 9,2 8,1 8,0 6,-3 5,-4 5,-3 7,-4 7,-3 8,-4 8,-3 9,-4 9,-5 9,-5 9,-5 8,-5 8,-6 7,-6 6,-7 5,-8 3,-7 2,-9 0,-3 -3,-3 -5,-3 -6,-3 -8,-3 -9,-3 -11,-3 -11,-3 -11,-3 -12,-3 -12,-4 -12,-4 -11,-4 -11,-4 -11,-5 -9,-5 -8,-6 -7,-7 -4,-7 -3,-7 -1,-8 1,-9 4,-10 6,-10 10,-12 12,-12 17,-13 20,-14 23,-15 28,-16 32,-18 37,-18 -2,-4 -3,-3 -4,-3 -5,-2 -6,-2 -6,-1 -7,-1 -7,-1 -8,-1 -7,-1 -8,-1 -7,-1 -7,-1 -6,-1 -6,-2 -5,-2 -12,-1 -12,0 -13,0 -12,-1 -12,0 -12,0 -11,-1 -11,0 -9,-1 -9,-1 -6,-1 -6,-2 -4,-2 -2,-3 0,-3 3,-4 0,-4 1,-4 2,-5 2,-5 3,-5 3,-5 3,-6 5,-5 4,-7 4,-6 6,-6 5,-6 5,-7 6,-7 5,-6 6,-7 5,-7 6,-6 6,-7 5,-6 5,-7 5,-6 5,-6 4,-6 4,-6 4,-6 3,-5 3,-5 2,-5 2,-5 1,-4 0,-4 2,-7 1,-7 -1,-6 -3,-7 -3,-5 -5,-6 -6,-5 -6,-4 -6,-5 -7,-4 -7,-4 -6,-4 -7,-3 -5,-4 -5,-3 -3,-3 -4,-2 -5,-2 -5,-1 -5,-1 -5,0 -6,0 -6,1 -6,1 -6,1 -7,2 -6,2 -7,2 -7,3 -7,3 -7,2 -7,3 -7,4 -6,3 -7,3 -7,3 -6,4 -6,3 -6,3 -6,3 -6,3 -5,2 -5,3 -4,2 -5,1 -3,2 -4,1 -3,1 -7,9 -3,11 0,11 3,12 4,13 6,12 8,13 8,12 9,12 8,11 7,10 7,10 4,7 3,7 0,4 -4,3 -2,2 -4,3 -5,3 -6,4 -7,4 -8,4 -8,4 -8,3 -8,4 -8,3 -8,2 -8,1 -6,1 -6,0 -6,-1 -4,-2z" /><path style="fill:#ccc" d="M535,393 l-3,0 -4,3 -5,5 -7,7 -6,8 -8,9 -7,10 -8,10 -8,11 -8,10 -8,9 -6,8 -7,7 -5,6 -5,4 -3,1 -2,0 -2,-1 -2,-2 -1,-3 -1,-4 0,-5 0,-6 0,-7 0,-8 0,-8 1,-9 1,-9 1,-10 1,-10 1,-10 1,-10 1,-10 1,-11 1,-10 1,-10 1,-9 1,-9 0,-9 1,-8 0,-8 0,-6 0,-6 0,-5 -1,-4 -1,-3 -1,-2 -2,0 -4,9 -4,10 -5,9 -5,9 -5,9 -7,9 -6,9 -7,8 -7,8 -7,8 -8,7 -8,7 -8,6 -8,6 -8,5 -8,5 -8,5 -8,3 -7,3 -8,3 -7,1 -7,1 -7,1 -6,-1 -6,-2 -6,-2 -5,-3 -4,-4 -4,-5 -3,-7 -3,-7 -2,-8 -3,6 -3,6 -4,6 -4,5 -5,5 -4,5 -5,5 -5,4 -4,4 -4,4 -4,4 -3,4 -3,4 -2,4 -1,3 -1,4 -3,12 0,9 0,8 2,7 4,5 4,4 4,4 5,3 5,2 4,3 4,3 3,4 1,4 1,5 -2,7 -3,8 -1,5 2,4 3,2 5,1 7,1 7,0 8,0 8,-1 9,-1 8,0 9,-1 8,0 7,1 6,1 4,3 4,3 5,4 7,2 6,3 6,2 6,2 7,2 6,2 5,2 6,1 4,2 4,2 4,1 2,2 2,2 1,2 0,2 2,3 1,3 0,3 -1,4 0,4 -1,4 -1,4 -1,4 -1,5 0,5 1,5 1,5 2,5 3,6 5,6 6,5 3,1 2,-1 1,-3 1,-4 0,-6 0,-6 0,-9 0,-9 0,-9 2,-11 2,-10 3,-11 4,-12 6,-11 8,-11 9,-10 4,12 4,9 4,7 6,6 5,4 6,2 6,2 7,-1 7,-1 7,-2 6,-2 8,-4 7,-3 7,-4 7,-4 7,-4 6,-3 7,-3 6,-2 5,-2 6,0 4,0 5,2 4,3 3,5 2,7 2,8 1,11 1,13 -1,15 -2,18 -2,21 3,-2 3,-3 3,-4 2,-4 1,-4 2,-5 1,-4 1,-5 2,-4 1,-4 1,-3 2,-3 1,-3 2,-1 2,0 3,0 5,1 5,1 5,2 4,2 5,2 4,3 4,3 4,2 4,2 4,2 4,1 3,1 4,0 3,-1 3,-2 2,-3 4,-2 5,-2 6,-2 8,-1 8,-2 8,-2 8,-1 9,-2 8,-2 9,-3 7,-3 7,-3 6,-3 5,-4 3,-5 1,-5 0,-3 -2,-2 -3,-2 -5,-2 -5,-2 -6,-1 -6,-2 -7,-2 -8,-2 -8,-3 -7,-2 -8,-2 -8,-3 -7,-3 -6,-3 -6,-3 -5,-4 -5,-4 -3,-5 -2,-4 -1,-6 1,-6 3,-6 4,-7 6,-7 9,-8 10,-9 13,-9 16,-10 18,-10 21,-11 24,-12 -2,-3 -1,-2 -3,-2 -3,-1 -4,-1 -4,-1 -5,0 -4,-1 -5,0 -5,-1 -5,0 -5,-1 -4,0 -4,-1 -4,-1 -3,-2 -17,0 -13,1 -10,2 -9,2 -5,4 -4,4 -2,3 -1,3 1,2 1,1 2,-1 2,-2 2,-5 2,-7 1,-10 1,-13 7,-18 6,-15 5,-13 3,-10 3,-9 1,-7 0,-5 0,-4 -2,-2 -2,0 -3,1 -4,1 -4,4 -4,4 -6,4 -5,6 -6,6 -6,7 -6,6 -6,8 -7,7 -6,7 -6,7 -6,8 -5,6 -6,6 -5,6 -4,5 -4,4 -3,3 -3,2 -2,1 -2,1 -3,0 -3,0 -4,-1 -4,-2 -5,-2 -5,-2 -5,-3 -5,-3 -5,-3 -5,-3 -4,-3 -4,-3 -4,-3 -3,-3 -2,-2z" /></svg>