<!DOCTYPE svg PUBLIC "-//W3C//DTD SVG 20000303 Stylable//EN" "http://www.w3.org/TR/2000/03/WD-SVG-20000303/DTD/svg-20000303-stylable.dtd"[]><svg xmlns="http://www.w3.org/2000/svg" width="999px" height="481px" viewBox="0 0 999 462"><path style="fill:#fff" d="M273,431 l-42,-43 -190,-42 -31,-95 95,-157 305,-74 231,21 147,-31 180,157 20,95 -126,63 -74,74 -147,32 -221,21 -147,-21z" /><path style="fill:#e5e5e5" d="M273,431 l-42,-43 -190,-42 -11,-42 169,-73 147,157 284,-106 95,-94 148,21 115,53 -126,63 -74,74 -157,32 -211,21 -147,-21z" /><path style="fill:none;stroke:#4c4c4c;stroke-width:2" d="M273,431 l-42,-43 -190,-42 -31,-95 95,-157 305,-74 231,21 147,-31 180,157 20,95 -126,63 -74,74 -157,32 -211,21 -147,-21" /></svg>