<!DOCTYPE svg PUBLIC "-//W3C//DTD SVG 20000303 Stylable//EN" "http://www.w3.org/TR/2000/03/WD-SVG-20000303/DTD/svg-20000303-stylable.dtd"[]><svg xmlns="http://www.w3.org/2000/svg" width="999px" height="733px" viewBox="0 0 999 718"><path style="fill:#fff" d="M0,658 l3,5 5,5 5,5 7,4 7,3 8,3 8,3 9,3 9,2 10,2 9,2 9,2 10,2 9,2 8,2 8,2 9,0 9,-1 8,0 8,0 8,-1 8,-1 7,0 8,-1 7,-1 8,-2 7,-1 8,-1 7,-2 8,-2 8,-1 7,-2 8,2 8,1 7,1 8,1 8,1 8,1 8,0 8,1 7,0 8,1 8,0 8,1 8,1 7,1 8,2 8,2 9,-1 8,0 8,-1 8,-2 7,-2 7,-2 7,-2 7,-2 6,-3 7,-2 6,-3 6,-2 6,-3 6,-2 6,-3 6,-2 10,2 10,1 10,1 9,1 9,1 9,1 10,0 9,1 9,1 9,2 9,2 10,2 10,3 10,4 11,4 12,6 2,2 2,3 4,2 4,2 5,1 6,1 6,1 7,0 8,1 7,0 9,-1 8,0 9,-1 9,-1 10,-1 9,-2 9,-1 10,-2 10,-2 9,-2 9,-2 10,-2 9,-3 8,-2 9,-3 8,-2 8,-3 7,-3 6,-3 6,-3 6,-3 5,-3 6,-2 6,-3 7,-2 6,-2 7,-2 7,-2 7,-2 6,-2 7,-3 6,-2 6,-3 6,-3 5,-4 4,-4 4,-5 3,-6 2,-1 2,-2 2,-1 1,-2 2,-7 1,-7 2,-8 1,-7 2,-8 1,-7 2,-8 1,-7 2,-7 1,-8 2,-7 1,-8 2,-7 2,-8 1,-7 2,-8 -5,-5 -5,-6 -5,-6 -5,-6 -5,-6 -5,-6 -4,-5 -5,-6 -5,-6 -5,-6 -5,-6 -5,-6 -5,-6 -5,-5 -4,-6 -5,-6 -5,-1 -5,-1 -5,-1 -5,-1 -5,-1 -5,-1 -5,-1 -5,-1 -4,-1 -5,-1 -5,-1 -5,-1 -5,-1 -5,-1 -5,-1 -5,-1 8,-8 5,-8 4,-7 1,-7 1,-6 -2,-6 -2,-5 -3,-6 -4,-5 -4,-5 -4,-4 -4,-5 -4,-5 -3,-6 -3,-5 -1,-6 -6,-2 -6,-2 -6,-2 -6,-1 -5,-1 -6,-1 -6,-1 -6,-1 -6,-2 -6,-2 -6,-3 -5,-3 -6,-5 -6,-6 -6,-6 -6,-8 0,-8 -1,-7 -1,-8 0,-8 0,-7 -1,-8 0,-7 -1,-8 0,-7 -1,-8 -1,-8 -1,-8 -2,-8 -1,-8 -3,-8 -2,-9 -6,-5 -5,-7 -6,-6 -5,-8 -4,-7 -5,-7 -5,-8 -5,-7 -6,-6 -5,-6 -6,-5 -6,-4 -7,-3 -7,-2 -8,1 -8,2 -11,1 -11,1 -9,0 -9,0 -8,-1 -7,0 -6,-1 -6,-2 -6,-1 -5,-2 -5,-2 -4,-3 -4,-2 -4,-3 -4,-2 -3,-3 -4,-3 -4,-2 -4,-3 -4,-3 -4,-2 -5,-3 -5,-2 -5,-2 -6,-2 -6,-2 -7,-1 -8,-1 -8,-1 -10,0 -10,0 -11,0 -8,-2 -8,0 -7,0 -7,2 -6,3 -6,4 -5,5 -6,6 -5,5 -5,6 -5,7 -4,6 -5,6 -6,5 -5,5 -6,4 -3,4 -4,4 -4,5 -5,5 -5,7 -5,7 -4,8 -5,9 -4,10 -4,11 -3,12 -2,13 -1,14 -1,15 1,16 2,17 1,5 1,4 1,5 1,5 1,5 1,5 1,5 1,5 1,4 1,5 1,5 1,5 1,5 1,5 1,5 1,5 -4,4 -4,3 -4,4 -4,4 -4,4 -3,4 -4,4 -4,4 -9,2 -9,2 -9,2 -10,0 -9,1 -10,0 -10,-1 -10,0 -10,-1 -10,-1 -10,-1 -10,-1 -10,-1 -10,0 -10,-1 -10,0 -6,0 -5,1 -6,2 -5,2 -5,3 -5,3 -5,3 -4,3 -5,4 -4,4 -5,4 -5,4 -4,4 -5,3 -5,4 -4,3 -3,4 -3,5 -2,4 -2,5 -2,5 -2,5 -2,5 -1,5 -1,6 -1,5 -1,5 -1,6 -1,5 -1,6 0,5 -1,6 0,5 -1,6 0,6 0,5 -1,6 0,6 0,6 -1,5 0,6 -1,5 0,6 -1,5 0,6 -1,6 -1,5 0,5 0,8 0,7 0,7 0,7 0,7 0,6 0,7 0,6 0,6 0,7 0,6 0,7 0,7 0,7 0,7 0,8z" /><path style="fill:#e5e5e5" d="M15,644 l3,4 3,4 5,4 4,4 6,3 6,3 6,3 7,3 6,3 7,2 7,3 7,2 7,2 7,2 7,1 6,2 8,0 8,-1 9,-1 10,-2 11,-2 11,-2 11,-2 12,-3 11,-2 11,-3 11,-2 10,-3 10,-2 8,-2 8,-2 7,-2 6,1 8,2 8,2 9,2 9,2 10,2 10,2 10,2 10,2 10,3 10,2 9,2 9,2 9,2 7,1 7,2 6,0 7,-1 6,-1 5,-2 6,-2 5,-2 5,-3 5,-3 5,-2 4,-3 5,-3 4,-3 5,-2 4,-2 5,-2 4,-2 9,1 8,2 9,2 10,2 9,3 10,2 10,3 10,3 10,3 10,4 9,3 10,4 10,4 10,4 9,4 10,5 1,2 2,2 3,1 4,1 4,1 4,1 5,0 6,1 6,-1 6,0 7,0 7,-1 7,-1 7,-1 8,-1 7,-2 8,-1 8,-2 7,-2 8,-2 7,-2 8,-2 7,-2 7,-2 7,-2 6,-3 6,-2 6,-2 5,-3 5,-2 4,-2 4,-3 5,-2 6,-2 7,-2 8,-3 8,-2 8,-2 9,-3 8,-2 9,-3 8,-3 7,-3 8,-4 6,-3 5,-4 4,-4 3,-4 2,-2 3,-4 4,-5 6,-7 5,-7 6,-8 5,-8 4,-8 3,-7 2,-6 -1,-4 -4,-2 -7,1 -10,3 -15,7 -18,10 1,-6 1,-7 1,-8 1,-7 1,-9 1,-8 0,-9 1,-9 1,-8 1,-9 1,-8 1,-9 1,-7 1,-8 1,-7 1,-6 -4,-4 -5,-2 -7,-1 -6,-1 -8,1 -8,1 -8,1 -8,2 -8,1 -8,2 -8,1 -7,0 -7,0 -6,-1 -5,-3 -5,-4 -3,0 -4,-1 -4,-1 -4,-1 -4,0 -4,-1 -3,-1 -4,-1 -4,-1 -4,0 -4,-1 -3,-1 -4,-1 -4,0 -4,-1 -4,-1 6,-6 4,-6 3,-6 1,-5 1,-5 -1,-5 -2,-4 -3,-4 -2,-4 -4,-4 -3,-4 -3,-3 -3,-4 -3,-4 -2,-5 -1,-4 -4,-2 -5,-2 -4,-1 -5,-1 -5,-1 -4,0 -5,-1 -4,-1 -5,-1 -4,-2 -5,-2 -5,-3 -4,-4 -5,-4 -4,-5 -5,-7 -1,-6 0,-6 0,-6 -1,-5 0,-6 0,-6 -1,-6 0,-6 0,-6 -1,-6 -1,-6 -1,-6 -1,-6 -1,-7 -2,-6 -2,-7 -5,-3 -7,0 -7,1 -8,3 -9,4 -9,5 -10,6 -10,7 -11,7 -10,7 -10,7 -10,7 -9,6 -9,6 -9,4 -7,3 -8,0 -8,0 -6,-2 -6,-2 -4,-3 -4,-4 -3,-5 -3,-6 -2,-6 -1,-7 -1,-7 0,-7 -1,-8 0,-7 0,-9 1,-8 0,-8 0,-8 0,-8 0,-8 -1,-8 -1,-7 -1,-7 -2,-7 -2,-6 -3,-5 -4,-5 -4,-3 -6,-3 -6,-3 -7,-1 -9,0 -6,-1 -7,-1 -5,1 -5,1 -5,3 -5,3 -4,4 -4,4 -4,5 -4,4 -4,5 -4,5 -3,5 -4,4 -5,4 -4,3 -3,3 -3,3 -3,4 -4,4 -3,5 -4,6 -4,6 -4,7 -3,8 -3,9 -2,9 -2,10 -1,10 0,12 0,13 2,13 1,4 1,4 0,3 1,4 1,4 1,4 1,4 0,3 1,4 1,4 1,4 0,4 1,4 1,3 1,4 0,4 7,7 7,8 5,7 5,8 4,8 3,8 3,8 2,8 2,7 0,8 1,8 0,7 -1,8 -1,7 -2,7 -2,7 -2,6 -3,6 -3,6 -3,5 -4,5 -3,5 -4,4 -4,4 -5,3 -4,2 -4,2 -5,2 -4,1 -5,0 -4,-1 -4,-1 -10,-1 -8,-2 -6,-3 -6,-4 -4,-5 -3,-6 -2,-7 -2,-7 -1,-8 -1,-9 0,-8 0,-9 0,-10 0,-9 0,-9 -1,-9 -1,-9 -2,-8 -3,-8 -3,-7 -5,-7 -5,-6 -7,-5 -8,-4 -10,-3 -11,-2 -14,-1 -15,1 -17,3 -20,3 -22,6 -24,7 -5,1 -4,0 -4,2 -4,1 -4,2 -4,3 -4,2 -3,3 -4,3 -4,3 -3,3 -4,3 -3,3 -4,3 -4,2 -3,3 -5,7 -3,7 -3,8 -2,8 -2,8 -2,9 -1,8 -1,9 -1,9 0,9 -1,9 0,8 -1,9 -1,9 -1,9 -1,8 0,6 0,6 0,5 0,6 0,5 0,5 0,5 0,5 0,5 0,5 0,5 0,5 0,5 0,6 0,6 0,6z" /><path style="fill:#ccc" d="M54,649 l2,3 2,3 4,3 3,3 4,3 5,2 5,3 5,2 5,2 5,2 6,1 5,2 5,1 6,2 5,1 4,1 6,0 7,0 7,-1 7,-1 9,-2 8,-2 9,-1 8,-2 9,-2 9,-2 8,-2 8,-2 7,-2 7,-2 6,-1 5,-1 5,1 5,1 7,2 6,1 8,2 7,1 8,2 8,1 7,2 8,2 7,1 8,2 6,1 7,2 5,1 5,1 6,0 8,-2 9,-2 9,-3 10,-3 11,-4 11,-4 12,-5 11,-4 11,-5 10,-4 10,-4 8,-3 7,-3 6,-3 5,-1 6,1 7,1 7,2 7,2 7,1 8,2 7,2 8,3 8,2 7,3 8,2 7,3 8,3 7,3 8,4 7,3 2,4 4,3 6,3 6,4 8,3 9,2 9,3 9,2 10,1 9,1 10,1 9,-1 8,0 8,-2 7,-2 6,-3 8,-4 9,-2 8,-3 9,-1 8,-2 9,-1 9,-1 9,-2 9,-2 9,-3 9,-4 9,-5 9,-6 9,-7 9,-9 9,-11 0,-5 0,-7 -2,-8 -2,-9 -3,-11 -3,-10 -4,-12 -3,-11 -4,-12 -3,-11 -4,-11 -2,-10 -3,-10 -1,-8 -1,-7 1,-5 -4,-3 -4,-2 -5,-1 -5,0 -5,0 -6,1 -6,1 -7,1 -6,2 -6,1 -6,1 -6,0 -5,0 -5,-1 -4,-2 -3,-3 -8,0 -9,4 -9,7 -10,8 -9,11 -9,12 -9,12 -9,13 -9,12 -7,12 -8,9 -6,8 -5,5 -5,1 -3,-2 -2,-6 -8,2 -7,2 -5,1 -4,1 -3,-1 -1,0 -1,-2 0,-2 1,-3 2,-3 2,-4 3,-5 4,-5 3,-5 4,-6 4,-7 5,-7 4,-8 4,-8 4,-8 3,-9 3,-9 3,-10 2,-10 1,-11 1,-11 -1,-11 -1,-11 -3,-12 -3,-12 -5,-13 -6,-13 0,-4 -1,-5 0,-4 0,-5 -1,-4 0,-5 0,-4 0,-5 -1,-4 0,-5 -1,-5 0,-4 -1,-5 -1,-5 -2,-5 -1,-5 -4,-2 -5,-1 -6,1 -6,2 -7,3 -7,4 -8,5 -7,5 -8,6 -8,5 -8,6 -7,5 -8,5 -6,4 -7,3 -5,2 -13,2 -10,3 -7,2 -4,3 -2,3 -1,3 1,4 3,4 5,3 5,4 7,5 7,4 8,4 8,5 8,4 9,5 8,4 7,5 7,4 6,5 5,4 3,5 3,4 0,4 -2,4 -3,3 -6,4 -9,3 -11,3 -15,3 -17,2 -21,3 0,3 -2,4 -4,4 -4,4 -5,5 -7,5 -6,5 -7,5 -7,6 -7,5 -6,5 -6,5 -4,4 -4,4 -2,4 0,3 5,6 4,5 3,6 2,5 0,5 0,5 -1,5 -2,5 -2,4 -4,5 -4,4 -4,4 -6,5 -5,3 -6,4 -6,3 -7,4 -7,3 -7,2 -7,3 -7,2 -7,2 -7,2 -7,2 -7,1 -6,1 -7,0 -5,0 -6,0 -4,0 -5,-1 -3,-1 -14,-2 -9,-4 -5,-8 -2,-10 0,-11 1,-12 3,-12 2,-13 2,-12 1,-11 -1,-10 -3,-7 -7,-4 -11,-2 -15,2 -20,7 -5,-1 -7,-2 -9,-3 -10,-4 -12,-4 -12,-5 -14,-5 -13,-6 -14,-5 -13,-5 -12,-4 -11,-4 -11,-3 -8,-2 -6,0 -5,1 -3,5 -4,6 -3,5 -3,6 -3,6 -3,6 -3,6 -3,7 -3,6 -2,7 -3,6 -2,7 -2,6 -1,7 -2,6 -1,7 0,4 1,5 1,4 1,4 2,5 2,4 2,4 2,4 2,4 2,5 2,4 2,4 2,4 1,5 0,4 1,5z" /></svg>