<!DOCTYPE svg PUBLIC "-//W3C//DTD SVG 20000303 Stylable//EN" "http://www.w3.org/TR/2000/03/WD-SVG-20000303/DTD/svg-20000303-stylable.dtd"[]><svg xmlns="http://www.w3.org/2000/svg" width="999px" height="507px" viewBox="0 0 998 478"><path style="fill:#fff" d="M95,411 l10,3 8,4 7,4 6,5 6,4 6,5 7,4 6,4 8,4 8,4 10,3 12,3 14,1 16,1 19,0 21,-1 6,1 6,0 6,1 5,1 6,1 5,1 5,1 6,1 5,1 5,1 5,1 5,1 5,1 6,1 5,1 5,2 5,0 6,1 6,1 5,0 6,0 6,1 6,0 7,-1 6,0 7,0 7,-1 7,-1 7,-2 8,-1 8,-2 8,-2 8,-6 8,-4 8,-4 8,-2 7,-3 8,-1 8,-1 7,-1 8,0 8,0 8,0 7,0 8,-1 8,-1 7,0 8,-2 12,2 11,1 11,1 9,1 9,0 9,0 7,0 7,0 7,0 6,-1 5,0 5,-1 5,-1 4,-1 4,-1 4,-2 4,-1 3,-1 4,-2 3,-1 3,-2 3,-1 3,-2 3,-1 4,-2 3,-1 4,-2 4,-1 4,-1 5,-1 5,-1 5,-1 1,0 2,0 1,1 1,1 1,0 2,1 1,1 1,0 5,0 5,0 6,0 7,0 6,1 7,0 8,2 8,1 7,1 9,1 7,2 8,1 8,1 8,1 8,1 7,1 5,1 5,0 5,-1 5,-1 5,-2 5,-2 5,-3 5,-2 6,-4 5,-3 6,-3 5,-3 6,-3 5,-3 6,-3 5,-2 4,-3 5,-5 4,-5 4,-7 4,-7 4,-8 4,-9 3,-10 3,-10 2,-12 2,-12 1,-12 1,-14 0,-14 0,-14 -1,-15 1,-9 -1,-8 -1,-9 -3,-10 -5,-10 -5,-10 -7,-10 -8,-11 -10,-11 -11,-11 -12,-11 -13,-11 -15,-12 -15,-11 -18,-11 -18,-11 -4,-3 -4,-2 -5,-2 -4,-1 -5,-2 -5,-1 -5,-2 -5,-1 -5,-1 -5,-1 -6,0 -5,-1 -6,-1 -5,0 -6,-1 -6,0 -6,0 -5,-1 -6,0 -6,-1 -6,0 -6,0 -6,0 -6,-1 -6,0 -6,0 -6,-1 -6,0 -5,-1 -6,0 -6,-1 -5,-1 -8,-2 -8,-2 -9,-1 -9,-1 -10,0 -10,1 -10,1 -10,2 -11,1 -10,2 -11,2 -10,1 -10,2 -10,1 -10,1 -10,1 -10,-1 -10,-1 -11,-3 -12,-3 -11,-4 -12,-4 -12,-5 -11,-4 -11,-5 -11,-5 -10,-4 -9,-4 -9,-3 -7,-3 -7,-1 -5,-1 -7,1 -7,0 -7,0 -7,0 -6,-1 -7,-1 -7,0 -7,-1 -6,-1 -7,-1 -7,-1 -7,-1 -7,-2 -6,-1 -7,0 -7,-1 -7,-1 -7,0 -6,0 -7,0 -7,0 -7,0 -7,1 -7,1 -8,2 -7,2 -7,2 -8,3 -7,4 -8,4 -8,4 -7,5 -13,4 -9,5 -7,6 -5,6 -4,8 -2,8 -2,8 -2,9 -3,9 -3,10 -5,9 -6,9 -9,9 -12,9 -15,8 -19,7 -8,14 -7,13 -5,12 -4,11 -3,11 -1,11 0,10 0,9 0,10 1,9 1,9 1,9 1,9 0,10 0,9 -1,10 5,6 4,6 3,7 2,6 3,6 1,6 2,6 3,6 3,6 4,6 6,5 7,6 9,6 11,5 13,5 16,5z" /><path style="fill:#e5e5e5" d="M177,428 l8,2 7,2 6,2 5,2 6,1 5,2 5,1 5,1 7,1 7,0 8,1 10,0 12,0 14,-1 15,-1 19,-1 9,1 10,1 9,1 8,2 9,2 8,2 9,2 9,1 9,1 10,2 10,0 10,0 11,-1 12,-2 13,-2 14,-3 6,-5 8,-4 7,-2 8,-2 8,-1 8,0 8,0 9,0 8,1 8,1 8,1 8,1 8,0 8,0 7,0 7,-1 19,2 16,1 14,-1 11,-1 9,-1 7,-3 6,-2 5,-4 4,-3 4,-3 3,-4 4,-3 5,-3 6,-3 6,-2 9,-2 1,1 0,1 1,0 1,1 1,0 1,0 2,1 1,1 4,-1 4,0 5,0 6,0 5,0 6,1 7,1 6,1 6,1 7,1 7,1 6,1 7,1 7,1 6,1 6,1 4,1 5,1 6,1 6,1 6,0 6,0 7,-1 6,0 6,-2 5,-2 5,-2 5,-3 3,-4 3,-4 2,-5 1,-6 20,-2 16,-4 11,-5 7,-6 4,-8 1,-8 -1,-10 -4,-10 -5,-11 -7,-11 -7,-12 -6,-13 -7,-12 -6,-13 -3,-13 -3,-13 2,-9 -1,-6 -2,-5 -4,-4 -5,-3 -7,-1 -8,0 -9,0 -10,1 -10,2 -11,1 -12,3 -11,2 -12,2 -12,2 -11,2 -10,1 -10,1 -9,0 -8,-1 -7,-2 -6,-3 -4,-4 -2,-5 -1,-8 2,-9 3,-10 6,-13 9,-15 11,-17 14,-19 17,-22 4,-3 1,-2 1,-2 0,-3 -2,-2 -2,-2 -3,-3 -4,-2 -5,-2 -5,-2 -6,-1 -6,-2 -7,-2 -7,-1 -8,-1 -7,-1 -8,-1 -8,0 -8,0 -8,0 -7,1 -8,1 -7,1 -6,1 -7,2 -6,3 -5,2 -4,3 -4,4 -3,4 -3,5 -1,5 -1,1 -2,2 -3,5 -4,6 -4,7 -6,9 -5,10 -7,11 -7,11 -8,13 -8,12 -9,14 -9,13 -9,13 -9,13 -10,13 -10,12 -10,12 -10,11 -10,9 -10,9 -10,8 -9,6 -10,4 -9,3 -9,0 -9,-1 -8,-3 -7,-7 -7,-8 -7,-11 -6,-14 -2,-28 -3,-24 -5,-21 -6,-17 -8,-15 -8,-12 -9,-9 -10,-6 -11,-5 -12,-2 -12,0 -14,1 -13,3 -15,4 -14,6 -15,6 -15,7 -16,8 -15,8 -16,8 -16,8 -16,8 -15,8 -15,7 -15,6 -15,6 -15,4 -13,3 -14,2 -12,0 -12,-2 -11,-4 -7,11 -3,10 -1,10 2,8 3,8 4,7 7,8 6,6 7,6 8,7 6,6 7,7 5,6 4,8 2,7 0,9 4,4 4,5 4,4 4,4 4,3 4,4 5,3 5,4 5,3 7,3 7,4 8,3 9,4 11,3 12,4 14,4z" /><path style="fill:#ccc" d="M392,419 l5,0 5,1 6,0 5,1 5,0 6,1 5,1 6,0 5,1 6,1 6,0 5,1 6,1 5,1 6,0 6,1 6,0 5,1 6,1 6,0 6,0 6,1 5,0 6,0 6,0 6,0 6,-1 6,0 6,-1 6,0 6,-1 6,-1 7,0 6,0 8,-1 7,-1 8,-2 7,-2 8,-2 8,-2 7,-2 7,-2 7,-2 6,-1 5,-2 4,-1 4,0 2,1 3,-1 3,0 4,0 3,0 5,1 4,0 4,1 5,0 5,1 5,1 5,0 5,1 5,0 4,1 5,0 5,1 3,1 6,1 6,1 8,0 9,0 9,0 10,-1 10,-1 9,-1 10,-2 8,-2 8,-2 6,-3 5,-4 3,-4 1,-4 15,-2 10,-3 5,-3 2,-4 -1,-5 -4,-6 -7,-7 -8,-7 -9,-8 -10,-8 -10,-8 -9,-9 -8,-9 -7,-9 -5,-10 -2,-9 1,-6 0,-3 -2,-1 -3,0 -4,2 -6,4 -6,4 -7,6 -8,6 -9,7 -9,7 -9,7 -10,8 -10,7 -10,7 -10,6 -9,5 -9,4 -9,2 -8,2 -7,-1 -7,-2 -6,-4 -4,-7 -3,-9 -2,-12 -1,-15 2,-18 2,-21 5,-25 6,-29 9,-32 -12,10 -11,10 -9,10 -8,9 -7,10 -6,9 -4,8 -3,9 -3,8 -2,8 -1,8 0,7 1,7 1,8 1,6 2,7 3,7 3,6 3,6 3,6 3,5 3,6 4,5 3,6 3,5 3,4 2,5 2,5 1,4 1,4 1,4 0,4 -2,0 -2,1 -5,0 -6,1 -8,1 -8,1 -10,1 -11,1 -12,1 -13,2 -13,0 -14,1 -15,1 -15,1 -15,0 -16,0 -16,-1 -15,-1 -16,-1 -15,-2 -15,-2 -15,-3 -14,-3 -14,-4 -13,-5 -11,-5 -11,-7 -10,-7 -9,-8 -8,-9 -6,-10 -5,-11 -1,-20 -1,-18 -2,-15 -2,-14 -1,-10 -3,-10 -2,-7 -2,-5 -3,-4 -3,-2 -3,-1 -3,0 -3,2 -4,2 -3,3 -4,4 -5,5 -4,5 -5,5 -5,5 -5,5 -5,6 -6,5 -5,4 -6,5 -7,3 -6,3 -7,2 -7,1 -8,-1 -7,-1 -8,-3 -5,8 -4,9 -2,8 0,8 0,7 2,7 2,7 3,7 3,7 3,7 3,7 3,6 2,6 2,7 1,6 -1,6 5,5 5,4 6,3 5,3 7,3 6,2 7,2 7,2 7,1 7,2 8,0 8,1 7,1 8,0 8,0 9,0 8,-1 8,0 8,-1 8,-1 9,0 8,-1 8,-1 8,-1 8,-1 7,-1 8,0 7,-1 7,-1 7,-1 6,0 7,-1z" /></svg>