<!DOCTYPE svg PUBLIC "-//W3C//DTD SVG 20000303 Stylable//EN" "http://www.w3.org/TR/2000/03/WD-SVG-20000303/DTD/svg-20000303-stylable.dtd"[]><svg xmlns="http://www.w3.org/2000/svg" width="999px" height="990px" viewBox="0 0 997 988"><path style="fill:#008040;stroke:#4c4c4c;stroke-width:2" d="M491,0 l5,20 6,20 6,18 6,16 7,16 6,14 7,14 6,12 5,10 6,9 6,7 6,6 6,5 7,3 7,2 7,1 9,-2 9,-3 10,-6 10,-7 11,-8 11,-11 11,-12 12,-14 -70,282 -1,3 -1,4 -1,5 0,6 -1,4 0,4 -1,5 0,4 1,11 3,8 4,6 6,3 5,-2 5,-2 5,-2 4,-2 5,-3 4,-3 3,-3 4,-4 6,-6 6,-6 5,-5 4,-6 4,-5 3,-5 2,-4 2,-5 3,-4 4,-5 5,-6 5,-7 3,-3 3,-4 3,-4 3,-4 4,-4 3,-5 4,-4 3,-5 8,-10 8,-9 7,-9 6,-9 6,-8 5,-7 4,-6 4,-6 0,3 0,4 1,5 0,6 1,7 1,8 1,9 1,9 0,7 0,6 1,6 0,4 1,5 1,4 1,3 1,3 2,5 4,4 5,3 6,1 3,0 5,-1 8,-2 11,-2 4,-1 5,-1 6,-2 6,-2 7,-2 8,-2 8,-3 9,-3 11,-3 10,-3 9,-3 8,-2 7,-2 6,-2 6,-1 5,-1 -9,20 -7,18 -7,18 -5,16 -5,15 -3,13 -3,13 -1,11 1,8 2,7 2,7 3,5 3,5 4,3 5,3 5,2 5,2 6,2 8,1 9,1 9,1 11,1 12,0 13,0 -13,11 -14,11 -13,11 -13,10 -14,10 -13,10 -13,10 -13,10 -7,5 -6,4 -7,5 -6,5 -6,4 -6,5 -6,4 -6,4 -6,4 -5,3 -5,4 -5,4 -5,3 -4,4 -5,3 -4,3 -7,5 -7,5 -7,5 -7,5 -6,5 -6,5 -5,5 -5,5 -4,5 -3,5 -2,5 -2,5 -2,6 -1,6 -1,5 0,6 1,5 1,5 2,6 2,6 2,7 2,7 2,8 3,8 -9,0 -8,-1 -9,0 -8,-1 -7,-1 -8,-2 -6,-1 -7,-2 -5,-1 -7,-1 -8,-2 -9,-2 -10,-3 -12,-3 -13,-3 -14,-4 -15,-3 -13,-3 -11,-2 -10,-2 -8,-1 -7,-1 -5,-1 -3,0 -6,1 -5,1 -4,3 -3,3 -3,5 -2,5 -2,7 0,7 0,205 -40,0 0,-205 -1,-7 -1,-7 -4,-5 -4,-5 -5,-3 -7,-3 -9,-1 -9,-1 -6,0 -8,1 -9,2 -12,2 -13,3 -15,3 -16,4 -18,5 -18,5 -16,4 -15,3 -12,3 -11,2 -9,2 -6,1 -5,0 2,-7 1,-7 1,-7 1,-6 1,-6 1,-5 0,-5 0,-5 0,-7 -1,-7 -2,-7 -2,-6 -2,-6 -4,-6 -3,-5 -5,-5 -7,-7 -9,-7 -10,-9 -11,-9 -12,-10 -13,-10 -15,-11 -15,-12 -17,-12 -17,-13 -18,-14 -17,-15 -18,-15 -18,-16 -19,-16 -18,-17 4,1 3,0 5,1 4,0 5,1 5,0 5,0 6,0 12,-1 11,-2 9,-3 7,-5 6,-6 4,-8 2,-9 1,-11 -1,-9 -2,-12 -3,-14 -5,-16 -6,-18 -7,-20 -9,-22 -10,-24 4,2 5,1 4,2 5,1 4,2 5,1 4,2 5,1 5,2 5,2 5,2 6,2 5,2 6,2 6,2 6,2 12,5 11,4 10,3 9,3 7,2 6,2 5,1 3,0 6,-1 6,-2 5,-3 4,-5 3,-7 2,-7 2,-9 0,-11 0,-4 -1,-6 0,-5 -1,-7 0,-4 -1,-4 0,-5 -1,-5 -1,-5 0,-5 -1,-6 0,-6 8,6 7,6 6,6 4,7 3,4 4,5 4,6 4,8 2,4 3,3 3,5 4,4 3,5 4,5 5,5 4,6 9,13 8,13 8,11 7,10 7,9 6,7 5,6 4,5 7,7 6,6 6,6 5,4 5,4 4,2 4,2 3,1 5,-2 3,-5 1,-9 1,-13 0,-12 0,-12 -1,-10 0,-10 -1,-9 -1,-8 -1,-7 -1,-7 -62,-242 12,13 11,12 12,10 10,8 11,7 10,5 9,4 9,1 8,-1 7,-2 7,-3 6,-5 6,-5 6,-8 6,-8 5,-10 4,-11 5,-13 4,-14 5,-15 5,-17 6,-18 5,-19 6,-21z" /></svg>