<!DOCTYPE svg PUBLIC "-//W3C//DTD SVG 20000303 Stylable//EN" "http://www.w3.org/TR/2000/03/WD-SVG-20000303/DTD/svg-20000303-stylable.dtd"[]><svg xmlns="http://www.w3.org/2000/svg" width="995px" height="999px" viewBox="0 0 995 999"><ellipse style="fill:#7f7f7f;stroke:#4c4c4c;stroke-width:2" cx="497" cy="499" rx="497" ry="499" /><ellipse style="fill:#fff;stroke:#4c4c4c;stroke-width:2" cx="499" cy="501" rx="486" ry="488" /><ellipse style="fill:#e5e5e5;stroke:#4c4c4c;stroke-width:2" cx="334" cy="179" rx="60" ry="45" /><ellipse style="fill:#e5e5e5;stroke:#4c4c4c;stroke-width:2" cx="326" cy="180" rx="74" ry="52" /><circle style="fill:#e5e5e5;stroke:#4c4c4c;stroke-width:2" cx="742" cy="760" r="31" /><ellipse style="fill:#e5e5e5;stroke:#4c4c4c;stroke-width:2" cx="742" cy="761" rx="26" ry="29" /><ellipse style="fill:#e5e5e5;stroke:#4c4c4c;stroke-width:2" cx="338" cy="379" rx="107" ry="109" /><ellipse style="fill:#e5e5e5;stroke:#4c4c4c;stroke-width:2" cx="484" cy="682" rx="107" ry="84" /><ellipse style="fill:#e5e5e5;stroke:#4c4c4c;stroke-width:2" cx="651" cy="527" rx="47" ry="49" /><ellipse style="fill:#e5e5e5;stroke:#4c4c4c;stroke-width:2" cx="178" cy="616" rx="31" ry="33" /><ellipse style="fill:#e5e5e5;stroke:#4c4c4c;stroke-width:2" cx="548" cy="877" rx="30" ry="32" /><path style="fill:#e5e5e5;stroke:#4c4c4c;stroke-width:2" d="M627,118 l-7,-1 -7,-1 -8,0 -6,1 -7,2 -7,1 -6,3 -6,3 -5,3 -6,3 -4,4 -4,5 -4,4 -3,5 -2,5 -1,6 -1,11 3,12 5,11 7,9 10,9 11,8 13,6 14,4 7,1 8,0 7,0 7,-1 7,-1 7,-2 6,-2 6,-3 6,-3 5,-3 5,-4 4,-5 3,-4 3,-5 3,-5 2,-6 0,-12 -3,-11 -6,-11 -8,-11 -9,-9 -12,-7 -13,-6 -14,-3z" /><ellipse style="fill:#e5e5e5;stroke:#4c4c4c;stroke-width:2" cx="784" cy="349" rx="56" ry="43" /><ellipse style="fill:#e5e5e5;stroke:#4c4c4c;stroke-width:2" cx="344" cy="379" rx="92" ry="101" /><ellipse style="fill:#e5e5e5;stroke:#4c4c4c;stroke-width:2" cx="492" cy="681" rx="94" ry="77" /><ellipse style="fill:#e5e5e5;stroke:#4c4c4c;stroke-width:2" cx="654" cy="527" rx="41" ry="45" /><ellipse style="fill:#e5e5e5;stroke:#4c4c4c;stroke-width:2" cx="179" cy="616" rx="26" ry="29" /><ellipse style="fill:#e5e5e5;stroke:#4c4c4c;stroke-width:2" cx="549" cy="878" rx="27" ry="29" /><path style="fill:#e5e5e5;stroke:#4c4c4c;stroke-width:2" d="M629,124 l-12,-1 -12,0 -11,3 -11,4 -9,6 -8,8 -5,9 -4,10 -1,11 2,10 5,11 6,8 9,8 10,7 11,5 12,4 13,1 13,-1 12,-2 12,-4 9,-6 8,-8 6,-8 4,-11 0,-11 -3,-10 -5,-11 -7,-9 -9,-8 -10,-7 -12,-5 -13,-3z" /><ellipse style="fill:#e5e5e5;stroke:#4c4c4c;stroke-width:2" cx="788" cy="349" rx="48" ry="41" /></svg>