<!DOCTYPE svg PUBLIC "-//W3C//DTD SVG 20000303 Stylable//EN" "http://www.w3.org/TR/2000/03/WD-SVG-20000303/DTD/svg-20000303-stylable.dtd"[]><svg xmlns="http://www.w3.org/2000/svg" width="999px" height="762px" viewBox="0 0 999 748"><path style="fill:#004020;stroke:#4c4c4c;stroke-width:2" d="M0,272 l8,-7 9,-6 11,-4 12,-3 13,-3 14,-1 14,0 16,1 16,2 17,2 18,3 17,4 19,5 19,5 19,6 18,7 19,6 19,8 19,8 19,7 19,8 18,9 17,8 17,8 17,9 16,8 15,8 14,8 13,8 13,8 11,7 10,7 3,3 3,2 4,3 3,2 3,2 4,0 3,0 3,-2 -19,-37 -18,-34 -17,-31 -16,-29 -15,-27 -15,-25 -14,-23 -14,-22 -13,-19 -12,-17 -12,-16 -11,-15 -11,-12 -10,-12 -10,-11 -10,-9 -10,-8 -8,-7 -9,-6 -8,-5 -8,-5 -8,-4 -8,-3 -7,-3 -7,-3 -7,-2 -7,-3 -8,-2 -7,-2 -7,-2 -7,-2 -7,-3 17,-3 16,-3 16,-1 15,1 15,1 14,3 14,4 14,5 12,6 13,7 12,7 11,9 12,9 10,10 11,11 10,11 10,13 9,12 9,13 9,13 9,13 8,14 8,14 7,14 8,15 7,14 7,14 7,14 6,14 7,14 7,14 6,13 -1,-18 -1,-18 -3,-18 -3,-18 -4,-18 -4,-18 -6,-19 -6,-17 -6,-17 -7,-17 -7,-17 -7,-15 -8,-16 -8,-15 -8,-13 -8,-13 7,-1 7,1 6,2 7,3 6,5 6,6 6,8 6,8 6,9 5,11 6,11 6,12 5,13 5,13 5,14 4,14 5,14 4,15 5,15 4,15 3,15 4,15 4,15 3,15 3,15 3,14 3,13 2,13 2,13 2,12 2,11 2,10 3,-12 3,-12 4,-11 3,-12 3,-12 2,-13 3,-12 2,-12 3,-13 2,-13 2,-12 1,-13 2,-12 1,-13 1,-13 1,-13 1,-12 0,-13 0,-13 0,-12 -1,-13 0,-13 -1,-12 -2,-13 -1,-13 -2,-12 -2,-12 -3,-12 -3,-13 -3,-12 -4,-11 -4,-12 12,3 11,6 9,9 7,11 7,13 4,16 4,17 3,20 1,21 1,23 -1,24 -1,25 -1,27 -2,27 -3,27 -3,29 7,-16 7,-15 9,-14 8,-14 9,-14 10,-12 10,-12 11,-12 11,-11 11,-10 11,-10 11,-9 12,-9 12,-8 12,-7 12,-7 12,-6 12,-6 12,-5 12,-5 11,-4 12,-3 11,-3 11,-2 12,-2 10,0 11,-1 9,0 10,1 9,1 8,2 8,3 -10,6 -11,7 -13,5 -14,5 -15,6 -17,7 -18,9 -20,11 -20,13 -22,16 -23,20 -23,24 -25,28 -26,34 -27,39 -28,45 10,-7 9,-7 10,-7 10,-7 12,-6 10,-7 11,-6 11,-7 12,-6 11,-6 12,-6 12,-6 11,-5 13,-5 11,-4 12,-5 12,-3 11,-4 12,-3 11,-2 12,-2 11,-2 11,-1 11,0 11,0 10,1 10,2 9,2 10,3 9,4 8,4 9,5 -7,1 -7,1 -8,1 -8,1 -8,1 -9,2 -9,1 -10,2 -10,2 -11,2 -10,3 -12,2 -11,4 -12,3 -12,4 -12,5 -12,4 -13,5 -13,6 -13,6 -13,6 -13,7 -13,7 -14,8 -13,9 -14,9 -14,10 -13,10 -13,12 -14,12 -13,12 -13,13 14,-2 14,-2 14,-2 13,-2 14,-1 12,-1 13,-1 12,-1 12,0 11,0 11,0 11,1 11,1 11,1 10,2 10,2 9,2 10,3 9,4 10,3 9,5 8,4 9,6 9,5 9,6 8,7 8,7 8,8 8,9 8,9 8,10 8,10 -7,-2 -8,-3 -7,-2 -7,-4 -8,-3 -7,-4 -7,-4 -8,-4 -8,-5 -7,-5 -8,-4 -8,-4 -8,-5 -8,-4 -9,-4 -9,-3 -9,-3 -10,-3 -10,-3 -11,-2 -11,-1 -12,-1 -12,0 -13,0 -13,2 -14,2 -15,3 -16,4 -16,5 -17,6 -18,7 -18,8 21,4 22,5 21,5 20,7 18,8 17,10 15,11 12,13 10,15 6,17 4,20 -1,21 -5,24 -9,27 -14,30 -19,33 -2,0 1,0 1,0 3,-22 3,-21 2,-19 1,-18 0,-17 -1,-15 -3,-13 -4,-13 -6,-12 -7,-10 -10,-9 -12,-9 -14,-7 -17,-6 -19,-5 -22,-5 -9,7 -7,9 -3,11 -2,13 -1,14 1,15 1,16 1,15 1,15 1,15 -1,13 -3,13 -5,10 -7,8 -11,5 -14,2 -14,-1 -12,-5 -10,-7 -10,-9 -7,-12 -7,-13 -5,-15 -4,-15 -3,-16 -2,-16 -1,-15 -1,-15 1,-13 1,-12 2,-9 2,-8 3,-3 2,-4 -1,-4 -2,-2 -16,-2 -14,1 -15,3 -13,6 -13,7 -13,9 -12,10 -11,11 -12,12 -10,12 -11,12 -9,12 -10,12 -9,10 -9,10 -9,8 -8,-22 -3,-21 2,-19 6,-18 10,-17 13,-15 15,-13 18,-12 19,-10 20,-9 20,-7 20,-4 19,-4 17,-1 17,1 13,4 -1,-3 0,-3 0,-4 0,-3 0,-3 -1,-3 -1,-2 -3,-1 -17,-4 -17,-4 -16,-3 -15,-3 -16,-2 -15,-1 -15,0 -15,-1 -14,1 -14,1 -14,1 -13,2 -13,2 -13,3 -13,3 -11,3 -12,3 -11,4 -11,4 -10,4 -10,5 -9,5 -9,4 -9,5 -8,5 -8,5 -7,4 -7,5 -6,5 -5,4 -6,5 -4,4 -4,-15 3,-16 8,-14 13,-15 16,-13 20,-13 23,-11 24,-11 25,-9 26,-8 26,-6 24,-4 23,-3 21,-1 17,1 13,3 -25,-12 -25,-13 -23,-11 -22,-10 -21,-9 -21,-9 -19,-8 -18,-8 -17,-7 -16,-6 -16,-6 -15,-5 -14,-4 -14,-5 -13,-4 -12,-3 -11,-3 -11,-3 -11,-2 -10,-2 -10,-1 -9,-2 -9,-1 -8,-1 -8,-1 -8,-1 -8,0 -8,-1 -7,0 -8,-1 -7,0 -7,-1z" /></svg>