<!DOCTYPE svg PUBLIC "-//W3C//DTD SVG 20000303 Stylable//EN" "http://www.w3.org/TR/2000/03/WD-SVG-20000303/DTD/svg-20000303-stylable.dtd"[]><svg xmlns="http://www.w3.org/2000/svg" width="900px" height="999px" viewBox="0 0 895 999"><path style="fill:#008040;fill-rule:evenodd" d="M339,52 l-5,-1 -5,-1 -6,0 -5,-1 -5,-1 -4,-2 -3,-3 -1,-4 7,-2 8,-2 8,-2 10,-2 8,-3 9,-3 8,-4 7,-4 7,-6 7,-4 8,-4 9,-2 9,-1 10,0 10,1 10,3 6,0 5,-1 7,0 6,0 7,-1 7,0 6,-1 7,0 7,0 7,0 7,0 6,0 6,1 5,1 5,1 4,2 -2,5 -4,3 -4,3 -5,2 -4,3 -4,3 -3,4 -1,6 6,0 7,1 7,2 8,2 6,3 6,4 3,5 2,6 7,2 7,1 8,2 8,1 8,1 9,0 9,1 9,0 9,0 9,0 9,0 9,0 9,0 8,0 8,0 7,0 -3,5 -5,4 -7,3 -8,3 -9,2 -9,2 -8,0 -8,1 -1,1 -2,2 -1,1 -1,2 -1,2 -1,2 -1,2 0,3 4,-1 3,0 4,-1 3,-1 4,0 3,0 4,1 5,2 5,5 4,4 5,3 4,3 4,3 5,2 4,2 5,2 6,2 6,2 6,3 8,3 8,3 9,4 11,4 12,6 3,1 3,2 3,2 3,2 3,3 2,3 2,3 0,2 -6,0 -8,0 -9,0 -9,0 -9,2 -7,3 -4,5 -2,8 3,0 3,0 5,1 5,1 6,1 5,2 4,1 4,1 3,2 4,3 6,2 6,3 7,3 7,4 7,3 8,3 7,4 7,3 7,4 5,3 5,4 4,3 2,3 1,2 -8,5 -10,4 -9,3 -10,2 -10,2 -10,2 -10,1 -10,1 -11,2 -9,1 -10,1 -9,2 -9,3 -9,2 -7,4 -8,4 1,3 2,2 3,3 4,2 4,2 5,3 6,2 6,3 6,2 7,3 7,2 7,3 7,3 7,3 7,4 7,3 10,6 9,5 7,5 6,4 3,4 1,4 -1,3 -4,3 -7,2 -8,2 -8,1 -8,1 -9,2 -9,1 -9,1 -9,1 -9,0 -9,1 -9,1 -9,0 -8,0 -8,1 -8,0 -7,0 -17,13 3,4 5,4 5,4 7,3 7,4 8,3 9,3 8,3 9,3 9,3 9,2 8,2 8,2 8,1 6,1 5,1 9,1 8,1 7,1 6,0 6,1 6,0 5,0 5,0 5,1 6,0 5,0 6,-1 7,0 7,0 8,0 8,0 7,3 5,4 4,3 2,4 -1,4 -4,3 -7,4 -12,3 -14,1 -13,1 -13,2 -13,2 -12,3 -11,3 -12,2 -13,3 -12,1 -14,2 -14,0 -15,0 -17,-2 -17,-3 -20,-4 -21,-6 -13,9 -12,9 -12,10 -11,11 -10,11 -9,12 -9,12 -9,12 -9,12 -8,13 -9,13 -8,12 -8,13 -9,12 -9,12 -10,12 -1,4 -1,11 -3,15 -3,21 -4,24 -4,26 -4,28 -4,30 -5,30 -4,28 -3,27 -4,24 -2,21 -2,16 -1,11 0,5 2,3 1,2 1,3 2,2 3,3 4,4 6,4 7,5 -147,0 6,-5 5,-3 6,-3 5,-3 5,-2 3,-3 3,-4 2,-5 3,-13 4,-13 4,-14 3,-14 5,-15 4,-14 4,-15 4,-15 4,-15 3,-15 4,-14 3,-14 2,-14 2,-13 2,-13 0,-12 -16,-9 -13,-8 -11,-7 -10,-6 -8,-6 -6,-5 -6,-5 -5,-5 -5,-5 -4,-6 -5,-7 -5,-7 -6,-9 -7,-10 -8,-11 -10,-14 -5,1 -4,0 -3,2 -3,1 -3,2 -2,3 -1,3 -1,4 -6,1 -7,2 -7,2 -8,1 -8,1 -8,1 -7,1 -6,0 -7,2 -8,2 -9,1 -9,2 -10,2 -11,2 -10,2 -11,2 -10,1 -11,1 -10,1 -9,0 -10,-1 -8,-1 -7,-1 -7,-2 4,-5 5,-2 5,-2 5,-1 6,-2 5,-1 5,-2 5,-3 0,-14 5,-6 6,-5 7,-4 7,-4 7,-3 7,-3 8,-2 7,-2 1,-3 1,-2 2,-3 0,-2 5,0 6,0 5,-1 5,0 4,-1 3,-1 2,-2 2,-3 -5,0 -6,-1 -6,-2 -6,-3 -5,-3 -5,-3 -5,-4 -4,-3 -3,-20 -7,-9 -11,-2 -13,1 -12,3 -11,-1 -7,-7 -2,-16 4,-4 6,-3 5,-3 6,-2 6,-2 7,-1 6,-2 7,-2 6,-1 7,-2 6,-2 6,-3 6,-3 6,-5 5,-5 5,-6 -3,-1 -3,-1 -4,-1 -3,0 -3,-1 -3,0 -2,0 -3,0 -6,-2 -7,-5 -6,-7 -6,-8 -6,-9 -7,-8 -6,-6 -7,-5 -4,-2 -5,-2 -5,-2 -6,-2 -6,-1 -7,-2 -7,-1 -7,-2 -7,-1 -7,-1 -7,-2 -6,-1 -6,-2 -6,-1 -5,-2 -4,-2 1,-1 4,-1 5,-2 6,-1 6,-1 6,-1 3,-1 2,-1 15,1 15,0 14,0 14,-1 12,-1 12,-1 11,-2 11,-2 11,-2 9,-3 10,-2 10,-3 9,-3 8,-2 9,-3 8,-3 8,-2 9,-2 8,-2 8,-2 9,-1 9,-2 9,0 9,0 10,0 10,1 10,2 11,2 12,3 12,4 13,4 14,6 -3,-5 -1,-7 -1,-9 0,-9 0,-9 2,-8 3,-6 4,-4 -4,-4 -6,-2 -5,-2 -6,-1 -7,0 -7,0 -6,1 -7,0 0,-4 1,-5 0,-4 0,-4 1,-4 0,-4 0,-4 0,-4 -11,-10 -10,-8 -11,-5 -10,-4 -10,-3 -11,-1 -10,1 -11,1 -11,2 -12,3 -12,4 -13,3 -13,4 -14,4 -15,4 -16,3 2,-6 4,-6 4,-6 6,-6 6,-5 7,-6 7,-5 7,-4 7,-5 6,-4 5,-3 4,-3 3,-3 1,-2 -1,-2 -3,-1 2,-5 4,-5 5,-4 6,-5 5,-4 4,-4 1,-4 -1,-4 -5,0 -7,-1 -7,0 -9,-1 -9,-1 -9,0 -9,-2 -8,-1 -9,-1 -7,-2 -5,-2 -4,-2 -1,-2 0,-2 4,-2 6,-3 7,-2 7,-3 7,-2 7,-2 7,-1 7,-2 6,-1 7,-2 6,-2 6,-2 6,-2 5,-3 5,-3 4,-4 4,-5 3,-5 2,-1 2,-2 3,-3 4,-3 4,-3 5,-3 6,-4 6,-4 6,-4 7,-3 7,-4 8,-4 8,-3 8,-3 8,-3 9,-2z M291,618 l9,10 9,10 9,12 9,11 11,11 10,10 10,7 12,6 3,1 5,2 6,2 7,3 6,2 7,2 5,1 4,1 1,-6 2,-6 1,-7 1,-7 1,-8 1,-8 1,-9 0,-8 1,-8 0,-7 0,-7 0,-7 0,-6 0,-5 -1,-4 0,-3 -5,-17 -6,-13 -6,-10 -7,-8 -8,-6 -7,-6 -8,-5 -8,-6 -5,15 -4,11 -4,9 -3,7 -3,5 -3,3 -2,3 -3,1 -3,2 -4,1 -4,2 -5,2 -6,4 -8,5 -8,7 -10,9z M428,552 l8,-81 -6,-2 -7,1 -8,4 -8,6 -8,7 -7,8 -7,7 -5,5 -2,7 3,8 6,8 10,8 10,7 9,5 8,3 4,-1z M493,436 l0,8 -1,10 0,10 0,10 -1,11 0,11 0,10 0,9 3,-7 6,-7 8,-8 7,-7 9,-6 7,-4 7,-4 4,-1 7,-3 -1,-5 -5,-5 -10,-7 -11,-5 -11,-5 -10,-3 -8,-2z M485,618 l7,-6 7,-8 7,-8 7,-8 7,-10 7,-9 7,-10 8,-10 7,-9 7,-10 7,-10 7,-9 8,-9 7,-9 7,-8 7,-8 -8,0 -5,-1 -4,-2 -4,-1 -4,-1 -4,-1 -6,1 -8,1 -7,5 -9,7 -10,11 -10,12 -9,12 -8,12 -7,9 -3,7 -3,9 -2,8 -1,9 -1,9 0,9 -1,9 0,9 0,8z M493,303 l0,8 0,7 0,8 0,7 0,8 0,7 0,8 0,8 14,0 7,-7 6,-4 6,-3 6,-2 5,0 6,2 6,2 7,4 1,7 4,5 5,4 6,2 7,2 6,1 7,1 5,0 -2,-1 -2,-1 -2,-2 -2,-2 -2,-1 -2,-2 -2,-2 -2,-1 0,-18 3,0 4,0 3,-1 4,-1 4,-1 4,-1 4,-1 4,-1 -3,0 -4,-1 -4,-1 -5,-1 -5,-1 -5,-1 -4,-1 -4,-1 -5,-5 -5,-6 -5,-7 -5,-7 -6,-7 -6,-6 -6,-4 -6,-2 -1,8 -2,5 -4,3 -4,1 -6,0 -7,-2 -7,-2 -9,-1z M405,113 l-5,4 -6,3 -6,3 -6,3 -6,2 -6,1 -6,2 -6,1 -6,-13 -33,31 4,9 3,6 2,4 2,0 5,-2 7,-4 11,-5 17,-6 5,-6 7,-3 8,-1 8,0 8,1 7,1 5,0 3,0 -1,-5 -2,-3 -3,-3 -3,-2 -3,-3 -2,-3 -2,-5 0,-7z M395,313 l-7,4 -4,7 -1,8 0,8 3,9 3,8 3,6 3,5 5,1 4,2 4,3 4,3 4,3 4,3 4,4 4,4 10,0 0,-52 -4,-4 -4,-4 -5,-4 -5,-5 -6,-3 -6,-3 -6,-2 -7,-1z " /><path style="fill:none;stroke:#4c4c4c;stroke-width:2" d="M339,52 l-5,-1 -5,-1 -6,0 -5,-1 -5,-1 -4,-2 -3,-3 -1,-4 7,-2 8,-2 8,-2 10,-2 8,-3 9,-3 8,-4 7,-4 7,-6 7,-4 8,-4 9,-2 9,-1 10,0 10,1 10,3 6,0 5,-1 7,0 6,0 7,-1 7,0 6,-1 7,0 7,0 7,0 7,0 6,0 6,1 5,1 5,1 4,2 -2,5 -4,3 -4,3 -5,2 -4,3 -4,3 -3,4 -1,6 6,0 7,1 7,2 8,2 6,3 6,4 3,5 2,6 7,2 7,1 8,2 8,1 8,1 9,0 9,1 9,0 9,0 9,0 9,0 9,0 9,0 8,0 8,0 7,0 -3,5 -5,4 -7,3 -8,3 -9,2 -9,2 -8,0 -8,1 -1,1 -2,2 -1,1 -1,2 -1,2 -1,2 -1,2 0,3 4,-1 3,0 4,-1 3,-1 4,0 3,0 4,1 5,2 5,5 4,4 5,3 4,3 4,3 5,2 4,2 5,2 6,2 6,2 6,3 8,3 8,3 9,4 11,4 12,6 3,1 3,2 3,2 3,2 3,3 2,3 2,3 0,2 -6,0 -8,0 -9,0 -9,0 -9,2 -7,3 -4,5 -2,8 3,0 3,0 5,1 5,1 6,1 5,2 4,1 4,1 3,2 4,3 6,2 6,3 7,3 7,4 7,3 8,3 7,4 7,3 7,4 5,3 5,4 4,3 2,3 1,2 -8,5 -10,4 -9,3 -10,2 -10,2 -10,2 -10,1 -10,1 -11,2 -9,1 -10,1 -9,2 -9,3 -9,2 -7,4 -8,4 1,3 2,2 3,3 4,2 4,2 5,3 6,2 6,3 6,2 7,3 7,2 7,3 7,3 7,3 7,4 7,3 10,6 9,5 7,5 6,4 3,4 1,4 -1,3 -4,3 -7,2 -8,2 -8,1 -8,1 -9,2 -9,1 -9,1 -9,1 -9,0 -9,1 -9,1 -9,0 -8,0 -8,1 -8,0 -7,0 -17,13 3,4 5,4 5,4 7,3 7,4 8,3 9,3 8,3 9,3 9,3 9,2 8,2 8,2 8,1 6,1 5,1 9,1 8,1 7,1 6,0 6,1 6,0 5,0 5,0 5,1 6,0 5,0 6,-1 7,0 7,0 8,0 8,0 7,3 5,4 4,3 2,4 -1,4 -4,3 -7,4 -12,3 -14,1 -13,1 -13,2 -13,2 -12,3 -11,3 -12,2 -13,3 -12,1 -14,2 -14,0 -15,0 -17,-2 -17,-3 -20,-4 -21,-6 -13,9 -12,9 -12,10 -11,11 -10,11 -9,12 -9,12 -9,12 -9,12 -8,13 -9,13 -8,12 -8,13 -9,12 -9,12 -10,12 -1,4 -1,11 -3,15 -3,21 -4,24 -4,26 -4,28 -4,30 -5,30 -4,28 -3,27 -4,24 -2,21 -2,16 -1,11 0,5 2,3 1,2 1,3 2,2 3,3 4,4 6,4 7,5 -147,0 6,-5 5,-3 6,-3 5,-3 5,-2 3,-3 3,-4 2,-5 3,-13 4,-13 4,-14 3,-14 5,-15 4,-14 4,-15 4,-15 4,-15 3,-15 4,-14 3,-14 2,-14 2,-13 2,-13 0,-12 -16,-9 -13,-8 -11,-7 -10,-6 -8,-6 -6,-5 -6,-5 -5,-5 -5,-5 -4,-6 -5,-7 -5,-7 -6,-9 -7,-10 -8,-11 -10,-14 -5,1 -4,0 -3,2 -3,1 -3,2 -2,3 -1,3 -1,4 -6,1 -7,2 -7,2 -8,1 -8,1 -8,1 -7,1 -6,0 -7,2 -8,2 -9,1 -9,2 -10,2 -11,2 -10,2 -11,2 -10,1 -11,1 -10,1 -9,0 -10,-1 -8,-1 -7,-1 -7,-2 4,-5 5,-2 5,-2 5,-1 6,-2 5,-1 5,-2 5,-3 0,-14 5,-6 6,-5 7,-4 7,-4 7,-3 7,-3 8,-2 7,-2 1,-3 1,-2 2,-3 0,-2 5,0 6,0 5,-1 5,0 4,-1 3,-1 2,-2 2,-3 -5,0 -6,-1 -6,-2 -6,-3 -5,-3 -5,-3 -5,-4 -4,-3 -3,-20 -7,-9 -11,-2 -13,1 -12,3 -11,-1 -7,-7 -2,-16 4,-4 6,-3 5,-3 6,-2 6,-2 7,-1 6,-2 7,-2 6,-1 7,-2 6,-2 6,-3 6,-3 6,-5 5,-5 5,-6 -3,-1 -3,-1 -4,-1 -3,0 -3,-1 -3,0 -2,0 -3,0 -6,-2 -7,-5 -6,-7 -6,-8 -6,-9 -7,-8 -6,-6 -7,-5 -4,-2 -5,-2 -5,-2 -6,-2 -6,-1 -7,-2 -7,-1 -7,-2 -7,-1 -7,-1 -7,-2 -6,-1 -6,-2 -6,-1 -5,-2 -4,-2 1,-1 4,-1 5,-2 6,-1 6,-1 6,-1 3,-1 2,-1 15,1 15,0 14,0 14,-1 12,-1 12,-1 11,-2 11,-2 11,-2 9,-3 10,-2 10,-3 9,-3 8,-2 9,-3 8,-3 8,-2 9,-2 8,-2 8,-2 9,-1 9,-2 9,0 9,0 10,0 10,1 10,2 11,2 12,3 12,4 13,4 14,6 -3,-5 -1,-7 -1,-9 0,-9 0,-9 2,-8 3,-6 4,-4 -4,-4 -6,-2 -5,-2 -6,-1 -7,0 -7,0 -6,1 -7,0 0,-4 1,-5 0,-4 0,-4 1,-4 0,-4 0,-4 0,-4 -11,-10 -10,-8 -11,-5 -10,-4 -10,-3 -11,-1 -10,1 -11,1 -11,2 -12,3 -12,4 -13,3 -13,4 -14,4 -15,4 -16,3 2,-6 4,-6 4,-6 6,-6 6,-5 7,-6 7,-5 7,-4 7,-5 6,-4 5,-3 4,-3 3,-3 1,-2 -1,-2 -3,-1 2,-5 4,-5 5,-4 6,-5 5,-4 4,-4 1,-4 -1,-4 -5,0 -7,-1 -7,0 -9,-1 -9,-1 -9,0 -9,-2 -8,-1 -9,-1 -7,-2 -5,-2 -4,-2 -1,-2 0,-2 4,-2 6,-3 7,-2 7,-3 7,-2 7,-2 7,-1 7,-2 6,-1 7,-2 6,-2 6,-2 6,-2 5,-3 5,-3 4,-4 4,-5 3,-5 2,-1 2,-2 3,-3 4,-3 4,-3 5,-3 6,-4 6,-4 6,-4 7,-3 7,-4 8,-4 8,-3 8,-3 8,-3 9,-2" /><path style="fill:none;stroke:#4c4c4c;stroke-width:2" d="M291,618 l9,10 9,10 9,12 9,11 11,11 10,10 10,7 12,6 3,1 5,2 6,2 7,3 6,2 7,2 5,1 4,1 1,-6 2,-6 1,-7 1,-7 1,-8 1,-8 1,-9 0,-8 1,-8 0,-7 0,-7 0,-7 0,-6 0,-5 -1,-4 0,-3 -5,-17 -6,-13 -6,-10 -7,-8 -8,-6 -7,-6 -8,-5 -8,-6 -5,15 -4,11 -4,9 -3,7 -3,5 -3,3 -2,3 -3,1 -3,2 -4,1 -4,2 -5,2 -6,4 -8,5 -8,7 -10,9" /><path style="fill:none;stroke:#4c4c4c;stroke-width:2" d="M428,552 l8,-81 -6,-2 -7,1 -8,4 -8,6 -8,7 -7,8 -7,7 -5,5 -2,7 3,8 6,8 10,8 10,7 9,5 8,3 4,-1" /><path style="fill:none;stroke:#4c4c4c;stroke-width:2" d="M493,436 l0,8 -1,10 0,10 0,10 -1,11 0,11 0,10 0,9 3,-7 6,-7 8,-8 7,-7 9,-6 7,-4 7,-4 4,-1 7,-3 -1,-5 -5,-5 -10,-7 -11,-5 -11,-5 -10,-3 -8,-2" /><path style="fill:none;stroke:#4c4c4c;stroke-width:2" d="M485,618 l7,-6 7,-8 7,-8 7,-8 7,-10 7,-9 7,-10 8,-10 7,-9 7,-10 7,-10 7,-9 8,-9 7,-9 7,-8 7,-8 -8,0 -5,-1 -4,-2 -4,-1 -4,-1 -4,-1 -6,1 -8,1 -7,5 -9,7 -10,11 -10,12 -9,12 -8,12 -7,9 -3,7 -3,9 -2,8 -1,9 -1,9 0,9 -1,9 0,9 0,8" /><path style="fill:none;stroke:#4c4c4c;stroke-width:2" d="M493,303 l0,8 0,7 0,8 0,7 0,8 0,7 0,8 0,8 14,0 7,-7 6,-4 6,-3 6,-2 5,0 6,2 6,2 7,4 1,7 4,5 5,4 6,2 7,2 6,1 7,1 5,0 -2,-1 -2,-1 -2,-2 -2,-2 -2,-1 -2,-2 -2,-2 -2,-1 0,-18 3,0 4,0 3,-1 4,-1 4,-1 4,-1 4,-1 4,-1 -3,0 -4,-1 -4,-1 -5,-1 -5,-1 -5,-1 -4,-1 -4,-1 -5,-5 -5,-6 -5,-7 -5,-7 -6,-7 -6,-6 -6,-4 -6,-2 -1,8 -2,5 -4,3 -4,1 -6,0 -7,-2 -7,-2 -9,-1" /><path style="fill:none;stroke:#4c4c4c;stroke-width:2" d="M405,113 l-5,4 -6,3 -6,3 -6,3 -6,2 -6,1 -6,2 -6,1 -6,-13 -33,31 4,9 3,6 2,4 2,0 5,-2 7,-4 11,-5 17,-6 5,-6 7,-3 8,-1 8,0 8,1 7,1 5,0 3,0 -1,-5 -2,-3 -3,-3 -3,-2 -3,-3 -2,-3 -2,-5 0,-7" /><path style="fill:none;stroke:#4c4c4c;stroke-width:2" d="M395,313 l-7,4 -4,7 -1,8 0,8 3,9 3,8 3,6 3,5 5,1 4,2 4,3 4,3 4,3 4,3 4,4 4,4 10,0 0,-52 -4,-4 -4,-4 -5,-4 -5,-5 -6,-3 -6,-3 -6,-2 -7,-1" /></svg>