<!DOCTYPE svg PUBLIC "-//W3C//DTD SVG 20000303 Stylable//EN" "http://www.w3.org/TR/2000/03/WD-SVG-20000303/DTD/svg-20000303-stylable.dtd"[]><svg xmlns="http://www.w3.org/2000/svg" width="911px" height="998px" viewBox="0 0 906 998"><path style="fill:#fff;stroke:#4c4c4c;stroke-width:2" d="M234,338 l0,-220 189,110 -14,-221 0,-3 1,-2 2,-2 3,0 62,0 4,0 2,2 2,2 0,3 -6,218 196,-107 0,220 162,-110 4,-4 4,-3 2,-2 4,-2 2,-1 3,-2 2,-1 2,0 3,1 4,2 3,5 3,5 2,6 2,5 1,5 1,5 4,3 5,5 5,5 5,7 0,1 1,0 0,2 0,1 1,1 0,1 1,1 0,2 -1,3 -1,2 -2,3 -2,2 -3,3 -4,2 -4,3 -5,2 -6,2 -3,2 -2,1 -1,1 -159,86 193,110 -196,110 184,94 8,4 5,5 3,4 1,4 -1,5 -3,4 -4,6 -6,6 -3,4 -3,4 -2,3 -2,3 -1,3 -2,4 0,3 0,3 -3,4 -3,3 -3,3 -3,2 -3,-2 -4,-2 -4,-2 -4,-3 -5,-4 -3,-2 -2,-2 -2,-1 -165,-98 0,223 -196,-110 13,196 0,15 -1,5 -2,4 -4,2 -6,0 -2,0 -3,-1 -3,-1 -5,0 -4,-1 -4,-1 -3,-1 -3,0 -1,0 -3,0 -4,2 -6,1 -6,1 -5,1 -5,0 -2,0 -3,0 -3,-1 -1,-2 -1,-2 0,-18 11,-199 -189,110 0,-223 -169,101 -3,2 -3,3 -3,2 -3,1 -3,2 -4,2 -2,1 -3,2 -3,-2 -2,-4 -1,-5 -1,-7 -1,-2 -1,-2 -1,-3 -2,-3 -3,-3 -2,-3 -3,-5 -3,-3 -6,-8 -5,-5 -5,-4 -2,-1 0,-3 2,-3 2,-2 2,-2 2,-1 2,-2 3,0 1,-1 190,-97 -190,-110 190,-110 -193,-95 -3,-1 -3,-3 -3,-2 -2,-3 2,-5 2,-4 1,-2 0,0 3,-3 3,-4 3,-3 2,-3 2,-2 2,-3 2,-1 1,-1 0,-4 1,-4 2,-4 1,-5 2,-5 3,-3 3,-2 3,-1 1,0 2,1 3,1 2,1 3,1 3,1 1,1 1,0 180,107z" /><path style="fill:#fff;stroke:#4c4c4c;stroke-width:2" d="M234,409 l-164,89 164,94 162,-94 -162,-89z" /><path style="fill:#fff;stroke:#4c4c4c;stroke-width:2" d="M426,741 l-3,-195 -160,97 0,192 163,-94z" /><path style="fill:#fff;stroke:#4c4c4c;stroke-width:2" d="M646,643 l-164,-97 0,195 164,94 0,-192z" /><path style="fill:#fff;stroke:#4c4c4c;stroke-width:2" d="M675,409 l-167,89 167,94 164,-94 -164,-89z" /><path style="fill:#fff;stroke:#4c4c4c;stroke-width:2" d="M646,166 l-164,95 0,190 164,-102 0,-183z" /><path style="fill:#fff;stroke:#4c4c4c;stroke-width:2" d="M426,261 l-163,-95 0,192 160,93 3,-190z" /></svg>