<!DOCTYPE svg PUBLIC "-//W3C//DTD SVG 20000303 Stylable//EN" "http://www.w3.org/TR/2000/03/WD-SVG-20000303/DTD/svg-20000303-stylable.dtd"[]><svg xmlns="http://www.w3.org/2000/svg" width="999px" height="778px" viewBox="0 0 999 764"><path style="fill:#804000;stroke:#4c4c4c;stroke-width:2" d="M33,673 l11,-19 13,-19 13,-17 12,-16 14,-15 13,-14 13,-13 14,-12 14,-11 13,-11 14,-9 14,-9 13,-8 13,-9 14,-7 12,-7 13,-7 12,-6 12,-6 11,-7 10,-6 11,-6 9,-6 9,-7 8,-6 8,-7 6,-8 6,-7 6,-9 4,-8 3,-9 2,-11 1,-7 1,-8 0,-7 1,-8 0,-7 0,-8 -1,-7 -1,-6 -1,-7 -2,-6 -3,-6 -3,-6 -4,-5 -5,-5 -5,-5 -6,-4 -3,-3 -2,-4 -1,-4 0,-3 1,-1 2,-1 2,0 2,0 2,0 2,0 3,0 2,0 3,3 5,3 4,2 5,2 4,2 4,2 4,2 4,4 3,-11 2,-11 3,-11 3,-12 4,-11 3,-11 5,-10 4,-11 5,-11 5,-9 6,-10 5,-10 6,-8 7,-9 7,-8 7,-7 4,0 3,0 3,0 2,0 -3,6 -4,7 -4,8 -6,9 -7,11 -6,12 -7,12 -6,14 8,1 9,0 9,-1 8,-2 8,-1 8,-2 7,-3 7,-2 7,-3 6,-2 5,-2 5,-2 4,-2 2,-1 2,0 1,0 2,8 0,1 -2,2 -2,2 -4,2 -5,2 -5,3 -6,2 -8,3 -7,2 -9,2 -8,2 -9,2 -9,2 -10,2 -9,1 -9,2 -3,8 -2,8 -3,9 -2,10 -2,9 -2,11 -2,10 -1,11 -1,11 -1,12 0,11 0,12 1,12 2,13 2,12 2,13 17,-16 17,-13 19,-12 18,-11 18,-11 19,-10 19,-9 20,-10 19,-10 20,-11 21,-11 21,-12 21,-14 21,-14 22,-17 22,-19 2,-11 2,-11 2,-13 2,-13 3,-13 3,-13 3,-13 3,-13 4,-12 3,-11 3,-12 3,-9 4,-9 3,-7 3,-6 3,-4 4,-2 2,1 0,4 -1,7 -2,9 -4,11 -4,13 -4,14 -4,14 -3,14 -3,14 -1,13 0,12 2,9 5,8 6,5 16,-12 16,-11 16,-10 16,-8 15,-7 16,-7 15,-6 14,-4 14,-4 15,-4 13,-3 13,-2 13,-3 11,-2 12,-1 10,-2 5,1 0,8 -20,3 -18,4 -18,4 -17,5 -15,6 -15,5 -14,6 -13,7 -13,6 -11,7 -11,7 -11,8 -11,8 -10,7 -9,8 -9,8 -9,8 -9,8 -9,8 -9,8 -8,8 -9,8 -10,8 -9,8 -9,8 -10,7 -9,7 -11,7 -11,6 -12,7 -12,5 -13,6 10,2 10,3 10,3 9,3 10,4 9,4 9,5 8,5 10,-8 10,-7 9,-6 8,-6 8,-6 8,-5 7,-4 7,-5 8,-4 6,-3 7,-3 7,-2 6,-2 7,-2 7,-1 8,-1 2,6 -9,2 -8,2 -8,2 -6,3 -7,3 -5,2 -6,3 -4,3 -8,4 -7,5 -8,6 -7,6 -8,6 -7,6 -7,6 -6,6 11,4 12,5 13,6 14,6 15,7 16,7 16,8 18,7 18,7 18,7 19,7 18,6 20,5 19,5 19,4 19,2 0,10 -5,1 -6,1 -7,0 -9,-1 -10,-2 -11,-2 -12,-3 -13,-3 -13,-4 -13,-4 -14,-4 -14,-5 -14,-4 -14,-5 -14,-4 -13,-5 8,9 7,9 6,9 6,9 4,9 4,9 4,9 3,9 3,8 2,8 2,7 2,6 2,5 1,5 2,3 1,3 2,2 0,1 -2,0 -3,-1 -3,-2 -3,-2 -3,-2 -1,-2 -8,-23 -10,-22 -13,-21 -15,-19 -16,-16 -19,-16 -20,-13 -20,-12 -21,-10 -22,-7 -21,-6 -20,-4 -21,-1 -19,0 -18,3 -16,5 -2,1 -5,2 -7,4 -10,5 -11,5 -13,7 -13,7 -14,8 -15,9 -13,8 -14,8 -12,8 -11,9 -9,7 -7,7 -4,6 -4,6 -4,6 -7,6 -7,6 -8,6 -10,6 -10,6 -11,5 -11,6 -11,6 -12,6 -12,7 -11,6 -11,7 -11,6 -10,7 -24,18 -20,15 -17,13 -13,12 -11,11 -9,10 -8,10 -7,10 -6,10 -8,11 -8,11 -9,13 -11,15 -14,16 -16,18 -20,21 -3,2 -4,4 -5,3 -5,4 -5,3 -5,3 -5,2 -4,0 -4,0 -4,-4 -3,-5 -2,-8 -2,-8 0,-10 0,-11 1,-10 2,-10 2,-9 3,-9 4,-6 4,-4 5,-2 6,1 6,4z" /></svg>