<!DOCTYPE svg PUBLIC "-//W3C//DTD SVG 20000303 Stylable//EN" "http://www.w3.org/TR/2000/03/WD-SVG-20000303/DTD/svg-20000303-stylable.dtd"[]><svg xmlns="http://www.w3.org/2000/svg" width="930px" height="999px" viewBox="0 0 926 999"><path style="fill:#400000;fill-rule:evenodd" d="M689,123 l-10,13 -11,12 -11,12 -11,12 -11,12 -11,11 -12,12 -11,11 -13,11 -12,10 -12,11 -13,9 -13,9 -13,9 -14,8 -15,7 -2,1 -4,0 -4,1 -2,0 5,0 6,-1 6,-3 5,-2 5,-2 6,-4 5,-2 5,-2 11,-6 12,-5 11,-7 11,-6 11,-8 11,-7 11,-8 10,-8 11,-9 10,-9 9,-9 9,-9 8,-10 8,-10 7,-10 6,-11 1,-1 1,-2 2,-3 1,-3 1,-3 0,-4 1,-3 -1,-4z M213,251 l9,-13 9,-12 10,-13 11,-12 11,-13 12,-13 12,-13 13,-13 13,-13 14,-13 15,-12 14,-11 16,-12 15,-11 16,-11 16,-10 17,-10 16,-8 17,-8 17,-8 17,-6 18,-5 17,-5 17,-3 18,-2 17,-1 18,0 17,2 18,2 17,5 17,5 17,8 4,25 5,25 3,24 3,23 3,23 1,22 2,21 1,20 0,21 0,19 0,19 -2,19 -1,18 -1,19 -2,17 -2,18 -3,17 -2,18 -3,18 -3,17 -2,17 -3,18 -3,17 -3,18 -3,18 -3,18 -3,19 -3,19 -3,19 -2,20 -2,21 -3,21 12,0 10,2 11,2 12,4 11,4 11,5 11,5 11,6 11,7 11,6 11,6 10,7 10,6 10,6 10,5 9,5 -6,0 -8,0 -8,-1 -9,0 -10,0 -10,0 -10,0 -10,1 -10,1 -9,2 -8,4 -8,4 -6,5 -5,6 -2,8 -2,10 16,5 16,7 16,7 15,8 15,8 14,9 14,9 14,10 13,10 13,10 12,10 12,11 11,10 11,11 10,10 10,10 -12,-2 -13,-3 -14,-4 -14,-4 -14,-5 -15,-5 -15,-5 -16,-6 -15,-6 -14,-5 -15,-7 -15,-6 -13,-6 -13,-5 -12,-5 -12,-5 -17,-6 -19,-4 -20,-4 -20,-3 -22,-2 -22,-1 -23,-1 -24,-1 -23,0 -23,1 -23,0 -23,1 -22,0 -21,1 -19,0 -20,0 -23,2 -23,4 -23,7 -22,9 -22,10 -21,13 -22,13 -20,15 -20,15 -19,15 -19,15 -17,16 -18,14 -16,14 -16,12 -15,12 -1,-3 -1,-3 -1,-4 -1,-5 0,-6 0,-6 1,-8 1,-8 3,-9 4,-10 4,-11 7,-12 8,-12 9,-14 12,-15 13,-16 -7,0 -5,1 -3,1 -3,0 -2,1 -4,0 -4,-1 -7,-2 6,-11 6,-10 8,-9 9,-9 10,-9 10,-8 11,-8 11,-7 11,-7 12,-7 11,-5 11,-6 10,-5 10,-4 9,-4 9,-3 -17,-4 -17,-3 -15,0 -15,1 -15,3 -14,4 -13,6 -14,6 -13,7 -13,7 -13,8 -13,8 -13,8 -13,8 -13,7 -13,7 14,-26 13,-22 13,-18 13,-15 12,-12 13,-10 12,-8 12,-7 12,-6 12,-5 13,-6 13,-7 13,-8 13,-9 15,-12 14,-14 1,-18 1,-17 2,-15 2,-16 2,-15 3,-15 3,-14 4,-14 3,-14 4,-14 4,-14 4,-14 4,-15 3,-15 3,-15 3,-16 1,-10 -1,-10 -1,-10 -3,-10 -4,-10 -3,-11 -5,-10 -5,-10 -4,-9 -5,-10 -3,-8 -3,-9 -3,-7 -2,-7 0,-6 1,-4z M230,259 l7,17 9,13 11,11 13,9 16,5 16,3 18,1 20,-1 20,-4 21,-5 23,-7 22,-8 22,-11 23,-11 23,-12 22,-13 22,-14 21,-15 20,-15 18,-16 18,-16 16,-15 14,-16 12,-16 10,-15 8,-14 5,-14 2,-13 -1,-12 -3,-11 -7,-10 -11,-8 -5,-3 -5,-3 -8,-1 -8,-2 -10,-1 -10,-1 -11,0 -11,1 -11,1 -11,1 -11,1 -11,1 -9,1 -9,2 -8,2 -7,1 -25,8 -24,11 -24,12 -24,14 -24,15 -23,16 -21,17 -21,18 -19,18 -18,17 -16,17 -14,17 -12,15 -9,14 -7,13 -4,11z M355,145 l3,-2 7,-6 11,-7 13,-10 17,-10 19,-12 20,-12 21,-12 22,-11 23,-10 23,-9 22,-6 22,-4 20,-1 19,3 16,7 9,6 5,7 4,9 0,10 -3,10 -4,10 -6,11 -7,11 -9,11 -9,11 -10,11 -11,10 -11,10 -10,9 -10,8 -9,7 -6,4 -6,5 -7,4 -7,5 -8,3 -6,4 -7,2 -5,0 -9,7 -1,1 6,-4 11,-7 15,-12 18,-14 20,-16 20,-17 19,-19 16,-19 14,-18 9,-17 2,-15 -4,-13 -13,-10 -23,-5 -10,0 -14,2 -18,6 -23,6 -24,10 -26,11 -28,13 -28,14 -27,16 -26,17 -24,18 -22,19 -18,20 -14,20 -9,21 -3,20 3,6 5,3 6,3 7,0 10,0 10,-3 11,-3 12,-4 13,-5 14,-6 13,-7 15,-6 14,-8 15,-9 14,-8 14,-9 14,-10 13,-9 13,-9 11,-9 12,-9 9,-9 9,-8 7,-8 5,-7 4,-7 2,-5 1,-5 -2,-4 -5,-3 -6,-1 -9,0 -7,0 -10,2 -12,3 -14,4 -15,5 -16,6 -16,8 -16,7 -16,10 -16,9 -14,11 -12,10 -11,12 -7,12 -6,13 -1,12 7,2 9,-1 10,-3 10,-5 11,-5 12,-7 11,-8 12,-8 11,-9 10,-8 9,-8 8,-7 7,-6 6,-4 3,-3 1,-1 -4,0 -8,3 -11,4 -13,6 -13,6 -13,6 -11,5 -8,3 3,-2 4,-3 5,-4 6,-3 6,-4 6,-4 7,-4 7,-4 7,-3 7,-3 7,-3 6,-2 6,-2 5,0 5,0 4,2 1,4 -2,6 -5,7 -7,7 -8,8 -10,8 -12,8 -12,9 -13,8 -13,7 -13,7 -13,7 -12,5 -12,4 -10,2 -9,1 -5,-6 -1,-8 2,-10 7,-12 9,-12 12,-13 15,-14 16,-13 18,-12 20,-12 20,-10 21,-9 21,-6 21,-4 20,-1 19,3 7,8 1,10 -2,10 -6,11 -10,11 -12,12 -14,12 -16,12 -17,11 -17,12 -17,10 -16,10 -16,9 -14,7 -11,6 -9,4 -7,4 -9,4 -8,4 -8,3 -9,2 -9,3 -9,2 -8,2 -8,1 -8,2 -8,0 -6,-1 -7,-1 -5,-2 -4,-2 -3,-4 -2,-6 -1,-7 0,-7 2,-8 3,-8 4,-9 5,-8 6,-9 6,-8 7,-9 7,-8 8,-8 8,-7 8,-7 8,-6 8,-5z " /><path style="fill:none;stroke:#4c4c4c;stroke-width:2" d="M689,123 l-10,13 -11,12 -11,12 -11,12 -11,12 -11,11 -12,12 -11,11 -13,11 -12,10 -12,11 -13,9 -13,9 -13,9 -14,8 -15,7 -2,1 -4,0 -4,1 -2,0 5,0 6,-1 6,-3 5,-2 5,-2 6,-4 5,-2 5,-2 11,-6 12,-5 11,-7 11,-6 11,-8 11,-7 11,-8 10,-8 11,-9 10,-9 9,-9 9,-9 8,-10 8,-10 7,-10 6,-11 1,-1 1,-2 2,-3 1,-3 1,-3 0,-4 1,-3 -1,-4" /><path style="fill:none;stroke:#4c4c4c;stroke-width:2" d="M213,251 l9,-13 9,-12 10,-13 11,-12 11,-13 12,-13 12,-13 13,-13 13,-13 14,-13 15,-12 14,-11 16,-12 15,-11 16,-11 16,-10 17,-10 16,-8 17,-8 17,-8 17,-6 18,-5 17,-5 17,-3 18,-2 17,-1 18,0 17,2 18,2 17,5 17,5 17,8 4,25 5,25 3,24 3,23 3,23 1,22 2,21 1,20 0,21 0,19 0,19 -2,19 -1,18 -1,19 -2,17 -2,18 -3,17 -2,18 -3,18 -3,17 -2,17 -3,18 -3,17 -3,18 -3,18 -3,18 -3,19 -3,19 -3,19 -2,20 -2,21 -3,21 12,0 10,2 11,2 12,4 11,4 11,5 11,5 11,6 11,7 11,6 11,6 10,7 10,6 10,6 10,5 9,5 -6,0 -8,0 -8,-1 -9,0 -10,0 -10,0 -10,0 -10,1 -10,1 -9,2 -8,4 -8,4 -6,5 -5,6 -2,8 -2,10 16,5 16,7 16,7 15,8 15,8 14,9 14,9 14,10 13,10 13,10 12,10 12,11 11,10 11,11 10,10 10,10 -12,-2 -13,-3 -14,-4 -14,-4 -14,-5 -15,-5 -15,-5 -16,-6 -15,-6 -14,-5 -15,-7 -15,-6 -13,-6 -13,-5 -12,-5 -12,-5 -17,-6 -19,-4 -20,-4 -20,-3 -22,-2 -22,-1 -23,-1 -24,-1 -23,0 -23,1 -23,0 -23,1 -22,0 -21,1 -19,0 -20,0 -23,2 -23,4 -23,7 -22,9 -22,10 -21,13 -22,13 -20,15 -20,15 -19,15 -19,15 -17,16 -18,14 -16,14 -16,12 -15,12 -1,-3 -1,-3 -1,-4 -1,-5 0,-6 0,-6 1,-8 1,-8 3,-9 4,-10 4,-11 7,-12 8,-12 9,-14 12,-15 13,-16 -7,0 -5,1 -3,1 -3,0 -2,1 -4,0 -4,-1 -7,-2 6,-11 6,-10 8,-9 9,-9 10,-9 10,-8 11,-8 11,-7 11,-7 12,-7 11,-5 11,-6 10,-5 10,-4 9,-4 9,-3 -17,-4 -17,-3 -15,0 -15,1 -15,3 -14,4 -13,6 -14,6 -13,7 -13,7 -13,8 -13,8 -13,8 -13,8 -13,7 -13,7 14,-26 13,-22 13,-18 13,-15 12,-12 13,-10 12,-8 12,-7 12,-6 12,-5 13,-6 13,-7 13,-8 13,-9 15,-12 14,-14 1,-18 1,-17 2,-15 2,-16 2,-15 3,-15 3,-14 4,-14 3,-14 4,-14 4,-14 4,-14 4,-15 3,-15 3,-15 3,-16 1,-10 -1,-10 -1,-10 -3,-10 -4,-10 -3,-11 -5,-10 -5,-10 -4,-9 -5,-10 -3,-8 -3,-9 -3,-7 -2,-7 0,-6 1,-4" /><path style="fill:none;stroke:#4c4c4c;stroke-width:2" d="M230,259 l7,17 9,13 11,11 13,9 16,5 16,3 18,1 20,-1 20,-4 21,-5 23,-7 22,-8 22,-11 23,-11 23,-12 22,-13 22,-14 21,-15 20,-15 18,-16 18,-16 16,-15 14,-16 12,-16 10,-15 8,-14 5,-14 2,-13 -1,-12 -3,-11 -7,-10 -11,-8 -5,-3 -5,-3 -8,-1 -8,-2 -10,-1 -10,-1 -11,0 -11,1 -11,1 -11,1 -11,1 -11,1 -9,1 -9,2 -8,2 -7,1 -25,8 -24,11 -24,12 -24,14 -24,15 -23,16 -21,17 -21,18 -19,18 -18,17 -16,17 -14,17 -12,15 -9,14 -7,13 -4,11" /><path style="fill:none;stroke:#4c4c4c;stroke-width:2" d="M355,145 l3,-2 7,-6 11,-7 13,-10 17,-10 19,-12 20,-12 21,-12 22,-11 23,-10 23,-9 22,-6 22,-4 20,-1 19,3 16,7 9,6 5,7 4,9 0,10 -3,10 -4,10 -6,11 -7,11 -9,11 -9,11 -10,11 -11,10 -11,10 -10,9 -10,8 -9,7 -6,4 -6,5 -7,4 -7,5 -8,3 -6,4 -7,2 -5,0 -9,7 -1,1 6,-4 11,-7 15,-12 18,-14 20,-16 20,-17 19,-19 16,-19 14,-18 9,-17 2,-15 -4,-13 -13,-10 -23,-5 -10,0 -14,2 -18,6 -23,6 -24,10 -26,11 -28,13 -28,14 -27,16 -26,17 -24,18 -22,19 -18,20 -14,20 -9,21 -3,20 3,6 5,3 6,3 7,0 10,0 10,-3 11,-3 12,-4 13,-5 14,-6 13,-7 15,-6 14,-8 15,-9 14,-8 14,-9 14,-10 13,-9 13,-9 11,-9 12,-9 9,-9 9,-8 7,-8 5,-7 4,-7 2,-5 1,-5 -2,-4 -5,-3 -6,-1 -9,0 -7,0 -10,2 -12,3 -14,4 -15,5 -16,6 -16,8 -16,7 -16,10 -16,9 -14,11 -12,10 -11,12 -7,12 -6,13 -1,12 7,2 9,-1 10,-3 10,-5 11,-5 12,-7 11,-8 12,-8 11,-9 10,-8 9,-8 8,-7 7,-6 6,-4 3,-3 1,-1 -4,0 -8,3 -11,4 -13,6 -13,6 -13,6 -11,5 -8,3 3,-2 4,-3 5,-4 6,-3 6,-4 6,-4 7,-4 7,-4 7,-3 7,-3 7,-3 6,-2 6,-2 5,0 5,0 4,2 1,4 -2,6 -5,7 -7,7 -8,8 -10,8 -12,8 -12,9 -13,8 -13,7 -13,7 -13,7 -12,5 -12,4 -10,2 -9,1 -5,-6 -1,-8 2,-10 7,-12 9,-12 12,-13 15,-14 16,-13 18,-12 20,-12 20,-10 21,-9 21,-6 21,-4 20,-1 19,3 7,8 1,10 -2,10 -6,11 -10,11 -12,12 -14,12 -16,12 -17,11 -17,12 -17,10 -16,10 -16,9 -14,7 -11,6 -9,4 -7,4 -9,4 -8,4 -8,3 -9,2 -9,3 -9,2 -8,2 -8,1 -8,2 -8,0 -6,-1 -7,-1 -5,-2 -4,-2 -3,-4 -2,-6 -1,-7 0,-7 2,-8 3,-8 4,-9 5,-8 6,-9 6,-8 7,-9 7,-8 8,-8 8,-7 8,-7 8,-6 8,-5" /></svg>