<!DOCTYPE svg PUBLIC "-//W3C//DTD SVG 20000303 Stylable//EN" "http://www.w3.org/TR/2000/03/WD-SVG-20000303/DTD/svg-20000303-stylable.dtd"[]><svg xmlns="http://www.w3.org/2000/svg" width="478px" height="999px" viewBox="0 0 447 998"><path style="fill:#00f" d="M223,0 l-6,33 -6,32 -6,31 -7,29 -7,26 -6,26 -8,24 -7,22 -7,21 -8,20 -7,19 -7,18 -8,18 -7,16 -7,16 -8,16 -7,14 -7,15 -7,15 -7,14 -7,14 -7,14 -6,15 -6,15 -6,15 -6,15 -6,17 -6,17 -4,18 -5,18 -5,20 -4,21 -4,12 -2,13 -4,12 -2,14 -2,13 0,14 -1,14 0,15 0,14 1,16 1,14 1,16 3,15 3,16 3,15 4,16 8,15 8,15 9,14 10,14 10,13 11,12 11,11 13,10 13,10 14,8 14,7 16,6 16,5 17,3 18,2 19,0 19,0 17,-2 17,-3 15,-5 14,-6 14,-7 12,-8 12,-10 12,-10 11,-11 11,-12 10,-13 12,-14 10,-14 12,-15 11,-15 3,-12 4,-12 2,-13 2,-13 2,-14 2,-14 0,-14 0,-15 0,-15 0,-14 -2,-16 -2,-15 -2,-15 -2,-16 -4,-16 -3,-16 -4,-20 -5,-20 -4,-19 -6,-17 -5,-18 -5,-16 -6,-16 -6,-15 -7,-15 -7,-14 -6,-14 -7,-14 -7,-15 -7,-14 -7,-15 -8,-15 -7,-15 -7,-16 -8,-16 -7,-18 -7,-18 -8,-19 -7,-20 -7,-21 -8,-22 -7,-24 -7,-26 -6,-26 -7,-29 -7,-31 -6,-32 -6,-33z" /><path style="fill:#69f" d="M216,61 l-5,31 -6,29 -6,28 -6,26 -6,25 -6,23 -7,22 -7,21 -6,19 -7,19 -7,17 -6,17 -7,16 -7,15 -7,14 -7,14 -6,14 -7,14 -7,13 -6,13 -6,13 -6,13 -6,14 -6,13 -6,14 -5,15 -5,14 -5,16 -5,16 -4,18 -4,18 -4,19 -3,11 -3,12 -3,11 -2,12 -1,13 -2,12 0,14 0,13 0,13 0,14 2,14 2,14 2,14 2,14 4,15 3,14 7,14 8,14 8,13 9,12 9,12 10,12 11,10 11,9 12,9 13,7 13,7 14,5 15,5 16,2 17,2 17,1 17,-1 16,-2 15,-2 14,-5 13,-5 12,-7 12,-7 11,-9 11,-9 10,-10 10,-12 10,-12 10,-12 10,-13 10,-14 10,-14 4,-11 3,-11 2,-12 2,-12 2,-13 1,-12 0,-13 1,-13 -1,-14 0,-14 -1,-14 -2,-14 -2,-14 -2,-15 -3,-14 -4,-15 -4,-19 -4,-18 -4,-17 -4,-16 -6,-16 -5,-15 -5,-14 -6,-14 -6,-13 -6,-14 -6,-13 -6,-13 -6,-13 -7,-13 -7,-14 -6,-14 -7,-14 -7,-14 -6,-15 -8,-16 -6,-17 -7,-17 -7,-19 -6,-19 -7,-21 -7,-22 -6,-23 -6,-25 -6,-26 -6,-28 -6,-29 -5,-31z" /><path style="fill:#0cf" d="M219,61 l-5,30 -5,28 -6,27 -6,25 -6,23 -6,23 -6,20 -6,20 -6,18 -7,18 -6,17 -7,16 -6,15 -7,14 -6,14 -7,14 -6,13 -6,13 -6,12 -7,12 -5,13 -6,13 -6,12 -6,13 -5,13 -5,14 -5,14 -5,16 -4,15 -4,17 -4,17 -4,18 -3,11 -3,10 -2,12 -2,11 -2,12 -1,12 -1,13 0,12 1,14 1,12 0,14 2,13 2,13 2,14 4,14 3,13 7,13 7,14 8,12 9,12 8,12 10,10 10,10 11,9 11,8 12,7 13,6 13,6 15,4 15,3 16,1 16,1 17,-1 15,-1 14,-3 14,-4 12,-6 12,-6 11,-7 11,-8 10,-9 9,-10 10,-10 9,-12 10,-12 9,-12 10,-14 10,-13 3,-11 3,-10 2,-11 2,-12 1,-11 2,-13 0,-12 0,-13 0,-13 0,-13 -2,-13 -1,-14 -2,-13 -2,-14 -3,-14 -3,-14 -3,-18 -4,-17 -5,-17 -4,-15 -5,-15 -5,-14 -5,-14 -5,-13 -6,-13 -5,-12 -6,-13 -6,-13 -6,-12 -7,-12 -6,-14 -7,-12 -6,-14 -6,-14 -7,-14 -7,-15 -6,-16 -6,-17 -7,-18 -6,-18 -7,-20 -6,-20 -6,-23 -6,-23 -6,-25 -5,-27 -5,-28 -6,-30z" /><path style="fill:#0ff" d="M209,159 l-4,24 -4,24 -5,22 -5,21 -5,20 -5,18 -6,17 -4,17 -6,15 -5,15 -5,14 -6,13 -6,13 -5,12 -5,12 -6,11 -5,11 -5,11 -6,10 -4,10 -6,11 -4,11 -5,10 -5,11 -4,11 -4,12 -4,12 -4,12 -4,13 -4,13 -3,15 -3,15 -2,9 -3,9 -2,10 -1,10 -2,9 0,11 -1,10 0,10 0,11 1,11 1,11 1,11 2,12 2,11 2,11 3,12 6,11 6,11 7,10 6,10 8,10 8,8 8,8 9,8 10,7 10,6 11,5 11,4 11,4 13,2 13,2 14,0 14,0 13,-2 12,-2 11,-4 10,-4 10,-5 9,-6 9,-7 8,-8 8,-8 8,-8 8,-10 8,-10 8,-10 8,-11 9,-11 3,-9 2,-9 2,-10 1,-9 1,-10 1,-10 1,-11 0,-10 0,-11 -1,-11 -1,-11 -1,-11 -1,-12 -2,-12 -2,-11 -3,-11 -3,-16 -3,-14 -4,-14 -3,-12 -4,-13 -4,-12 -5,-11 -4,-12 -5,-10 -5,-11 -5,-10 -4,-11 -6,-10 -5,-10 -5,-11 -6,-11 -5,-11 -5,-12 -6,-12 -5,-13 -5,-13 -6,-14 -6,-15 -5,-15 -5,-17 -5,-17 -5,-18 -5,-20 -5,-21 -5,-22 -4,-24 -5,-24z" /><path style="fill:#9ff" d="M169,415 l-5,28 -5,24 -6,22 -6,19 -6,17 -6,16 -6,14 -6,13 -6,13 -6,12 -6,12 -6,12 -4,12 -5,14 -4,16 -3,17 -4,10 -2,11 -1,12 0,12 0,12 1,12 2,14 4,12 6,13 8,12 9,10 10,9 11,8 13,5 14,3 15,2 16,-2 12,-3 12,-5 10,-8 10,-9 9,-10 9,-12 10,-13 2,-10 2,-11 2,-11 0,-12 0,-12 -2,-14 -2,-12 -2,-14 -4,-16 -4,-16 -4,-14 -6,-12 -5,-13 -6,-12 -5,-12 -7,-12 -6,-13 -6,-14 -7,-16 -6,-17 -6,-19 -5,-22 -5,-24 -6,-28z" /></svg>