<!DOCTYPE svg PUBLIC "-//W3C//DTD SVG 20000303 Stylable//EN" "http://www.w3.org/TR/2000/03/WD-SVG-20000303/DTD/svg-20000303-stylable.dtd"[]><svg xmlns="http://www.w3.org/2000/svg" width="572px" height="999px" viewBox="0 0 462 843"><path style="fill:#80ffff;fill-rule:evenodd" d="M370,543 l-7,2 -5,6 -4,9 -3,10 -3,12 -2,11 -4,11 -4,8 -5,7 -6,6 -5,5 -5,4 -4,5 -3,6 -2,7 0,8 0,13 2,12 3,11 4,10 6,7 8,6 10,2 12,-1 12,-6 10,-10 8,-13 7,-15 5,-17 3,-17 2,-18 1,-17 0,-11 0,-11 -2,-10 -2,-10 -4,-9 -6,-6 -8,-5 -9,-2z M85,474 l11,-22 11,-21 12,-21 12,-22 12,-21 12,-22 11,-22 10,-22 9,-22 9,-23 6,-23 5,-24 3,-24 0,-24 -1,-25 -5,-26 -7,-22 -8,-18 -9,-16 -8,-12 -7,-11 -3,-8 1,-8 7,-7 21,-8 18,4 16,13 14,20 12,23 10,24 7,22 6,17 15,37 17,37 19,37 20,38 20,38 20,39 19,38 17,39 16,39 12,39 10,39 5,39 0,39 -4,39 -11,39 -17,39 -17,26 -23,23 -26,19 -30,15 -33,11 -35,7 -35,4 -36,-1 -35,-5 -33,-10 -32,-13 -28,-19 -24,-23 -20,-27 -14,-33 -8,-37 -1,-12 1,-11 1,-12 3,-12 4,-11 5,-12 5,-12 6,-13 7,-12 7,-12 7,-13 8,-13 8,-14 8,-14 7,-14 8,-14z " /><path style="fill:none;stroke:#4c4c4c;stroke-width:2" d="M370,543 l-7,2 -5,6 -4,9 -3,10 -3,12 -2,11 -4,11 -4,8 -5,7 -6,6 -5,5 -5,4 -4,5 -3,6 -2,7 0,8 0,13 2,12 3,11 4,10 6,7 8,6 10,2 12,-1 12,-6 10,-10 8,-13 7,-15 5,-17 3,-17 2,-18 1,-17 0,-11 0,-11 -2,-10 -2,-10 -4,-9 -6,-6 -8,-5 -9,-2" /><path style="fill:none;stroke:#4c4c4c;stroke-width:2" d="M85,474 l11,-22 11,-21 12,-21 12,-22 12,-21 12,-22 11,-22 10,-22 9,-22 9,-23 6,-23 5,-24 3,-24 0,-24 -1,-25 -5,-26 -7,-22 -8,-18 -9,-16 -8,-12 -7,-11 -3,-8 1,-8 7,-7 21,-8 18,4 16,13 14,20 12,23 10,24 7,22 6,17 15,37 17,37 19,37 20,38 20,38 20,39 19,38 17,39 16,39 12,39 10,39 5,39 0,39 -4,39 -11,39 -17,39 -17,26 -23,23 -26,19 -30,15 -33,11 -35,7 -35,4 -36,-1 -35,-5 -33,-10 -32,-13 -28,-19 -24,-23 -20,-27 -14,-33 -8,-37 -1,-12 1,-11 1,-12 3,-12 4,-11 5,-12 5,-12 6,-13 7,-12 7,-12 7,-13 8,-13 8,-14 8,-14 7,-14 8,-14" /></svg>