<!DOCTYPE svg PUBLIC "-//W3C//DTD SVG 20000303 Stylable//EN" "http://www.w3.org/TR/2000/03/WD-SVG-20000303/DTD/svg-20000303-stylable.dtd"[]><svg xmlns="http://www.w3.org/2000/svg" width="999px" height="149px" viewBox="0 0 999 98"><path style="fill:#999" d="M163,9 l3,-1 3,-1 4,-1 4,0 5,1 5,0 6,1 7,1 7,0 8,1 9,0 9,0 11,-1 12,-1 13,-2 14,-3 7,-1 7,-1 7,0 6,-1 7,0 7,0 7,0 7,0 7,0 7,1 6,0 7,1 7,1 7,1 6,1 7,1 6,1 6,1 6,1 7,1 5,1 6,1 6,0 5,1 6,1 5,1 5,0 5,0 5,1 4,0 4,0 4,-1 4,-1 4,-2 4,-1 5,-1 4,-1 5,-1 5,0 6,0 5,0 6,0 5,0 6,0 7,0 6,1 7,0 7,0 7,1 8,0 7,1 8,0 8,1 9,0 9,0 9,1 9,0 10,0 9,0 11,-1 10,0 11,-1 11,-1 11,-1 8,0 8,0 7,-1 7,-1 7,-1 6,-1 7,-1 7,-1 7,0 8,-1 9,0 9,1 11,0 12,2 14,2 15,2 6,4 7,3 7,3 9,2 8,2 10,1 9,2 10,1 10,1 10,1 10,1 11,1 10,1 10,1 10,1 10,1 -1,5 -2,4 -3,1 -4,1 -4,0 -4,-1 -5,-1 -4,-1 -2,1 -2,1 -2,1 -3,0 -3,1 -3,0 -4,0 -3,0 -4,-1 -5,0 -4,-1 -5,0 -5,-1 -5,-1 -6,-1 -5,0 -6,-1 -7,-1 -6,-1 -7,-1 -8,-1 -7,-1 -8,-1 -8,-1 -9,-1 -8,-1 -9,0 -10,-1 -9,-1 -10,0 -10,0 -11,-1 -3,0 -2,0 -3,-1 -3,0 -3,0 -3,0 -3,-1 -4,0 -3,0 -4,0 -4,0 -4,0 -4,0 -5,1 -4,0 -5,0 -5,0 -5,1 -6,0 -5,1 -6,1 -6,0 -7,1 -7,1 -7,1 -7,1 -7,1 -8,1 -9,2 -8,1 -9,2 -9,1 -4,1 -4,1 -4,1 -5,0 -4,1 -5,0 -5,0 -5,0 -6,-1 -6,0 -6,-1 -6,0 -6,-1 -7,-1 -7,-1 -7,0 -8,-1 -8,-1 -9,-1 -8,-1 -9,-1 -9,-1 -10,-1 -10,-1 -11,-1 -10,-1 -12,0 -11,-1 -12,-1 -13,0 -13,0 -13,-1 -6,1 -6,1 -7,0 -7,-1 -7,0 -8,-1 -9,0 -9,-1 -10,-1 -10,0 -11,-1 -12,0 -13,0 -14,1 -15,1 -16,1 -3,0 -3,0 -3,0 -3,-1 -4,-1 -4,-1 -3,-1 -4,-1 -3,-2 -3,-1 -2,-2 -1,-1 -1,-2 0,-2 1,-2 2,-3z" /><path style="fill:#666" d="M183,15 l-2,-1 0,0 3,-1 5,0 6,0 8,0 10,0 10,0 12,0 13,0 13,0 13,-1 14,-1 13,-1 13,-2 13,-3 9,3 8,1 8,2 8,2 7,1 7,2 7,1 7,1 6,0 6,1 6,1 5,0 5,1 5,0 5,0 5,0 5,0 4,0 4,0 4,0 4,0 4,-1 4,0 4,0 3,-1 4,0 3,0 4,-1 3,0 4,0 3,0 3,-1 4,-1 3,-1 4,-1 4,0 4,0 4,0 4,1 5,1 5,1 4,1 6,1 5,2 5,1 6,2 6,1 6,1 6,2 7,1 6,1 7,0 7,1 7,0 8,0 7,0 8,-1 8,-1 9,-2 8,-2 9,-2 9,-4 9,-3 9,-5 8,2 7,2 6,1 6,1 5,1 5,1 5,1 4,0 5,0 5,0 5,-1 6,0 6,-1 7,-1 8,-2 8,-2 4,-1 4,-1 3,-1 4,0 3,0 4,-1 3,0 4,1 3,0 4,0 4,1 4,1 4,1 5,1 4,1 5,1 5,1 6,1 6,2 6,1 7,2 7,1 8,2 8,1 9,2 9,2 10,1 11,2 11,1 12,2 12,1 13,1 0,4 -2,3 -3,0 -4,0 -5,-2 -5,-1 -5,-1 -6,-1 -2,1 -2,1 -3,0 -3,0 -3,0 -4,0 -4,0 -5,-1 -4,0 -6,-1 -5,-1 -5,-1 -6,-1 -7,-1 -6,-1 -7,-1 -7,-1 -7,-1 -8,-1 -8,-1 -8,-1 -8,-1 -8,-1 -9,0 -9,-1 -9,0 -9,-1 -10,0 -10,0 -10,0 -10,1 -10,0 -5,0 -5,0 -5,0 -6,-1 -6,0 -6,1 -8,0 -8,0 -8,1 -10,1 -10,1 -11,1 -12,2 -13,2 -14,2 -15,2 -4,1 -3,1 -5,0 -4,1 -5,0 -5,0 -5,0 -6,0 -6,-1 -6,0 -7,-1 -7,0 -7,-1 -8,-1 -7,0 -8,-1 -9,-1 -8,-1 -9,-1 -9,-1 -9,-1 -10,0 -10,-1 -10,-1 -10,-1 -10,-1 -10,0 -11,-1 -11,-1 -11,0 -12,0 -11,-1 -4,1 -5,1 -3,1 -4,0 -3,0 -3,0 -4,0 -4,-1 -4,0 -4,-1 -5,-1 -6,0 -7,-1 -7,-1 -9,-1 -10,-1 -3,0 -4,1 -6,0 -6,0 -8,0 -8,1 -8,0 -8,0 -8,0 -8,0 -7,-1 -5,-1 -5,-1 -2,-1 -1,-2 1,-2z" /><path style="fill:#4c4c4c" d="M219,21 l0,-1 3,-2 4,0 6,0 8,0 8,1 10,1 11,1 11,0 11,1 11,0 11,0 11,0 10,-2 9,-2 8,-3 0,4 3,3 5,2 7,1 9,1 10,1 10,0 12,0 12,0 12,0 13,-1 11,-1 11,-1 10,-1 8,-1 7,-1 3,2 3,2 3,1 4,2 4,1 4,1 4,1 5,1 4,1 5,1 6,1 5,1 6,0 6,0 6,1 6,0 7,0 6,0 7,0 7,-1 7,0 7,-1 8,-1 7,-1 8,-1 7,-1 8,-2 8,-1 8,-2 8,-2 8,-2 8,-3 9,1 9,1 8,1 8,1 8,0 8,1 7,0 7,0 7,0 7,0 7,-1 7,0 6,-1 7,-1 6,-1 7,-1 5,3 6,2 8,2 8,1 9,2 9,1 10,1 10,0 10,1 11,1 10,0 10,1 9,1 9,0 9,1 7,1 0,4 -2,2 -3,1 -4,0 -4,-1 -5,-1 -5,0 -5,-1 -2,0 -3,0 -3,0 -4,0 -3,-1 -4,0 -4,-1 -4,-1 -4,0 -5,-1 -5,-1 -5,-1 -5,0 -5,-1 -6,-1 -6,-1 -6,0 -6,-1 -6,-1 -7,0 -6,-1 -7,0 -8,-1 -7,0 -8,0 -8,0 -8,-1 -8,1 -8,0 -9,0 -9,1 -9,0 -4,0 -4,-1 -5,0 -5,-1 -5,0 -6,0 -6,0 -7,0 -7,1 -9,1 -9,0 -9,1 -11,2 -11,1 -13,2 -13,2 -3,1 -4,1 -3,0 -4,1 -4,0 -5,0 -5,0 -5,0 -5,0 -6,0 -6,-1 -6,0 -6,0 -7,-1 -7,-1 -7,0 -8,-1 -7,-1 -8,-1 -8,0 -8,-1 -9,-1 -8,-1 -9,-1 -9,0 -9,-1 -10,-1 -9,-1 -10,0 -10,-1 -10,0 -10,-1 -4,1 -4,1 -3,1 -3,0 -2,1 -3,0 -2,0 -3,0 -3,0 -4,0 -4,-1 -5,0 -5,-1 -7,0 -7,-1 -9,-1 -2,0 -3,0 -3,0 -5,0 -4,0 -6,0 -6,0 -6,0 -7,0 -7,-1 -7,0 -7,0 -7,-1 -7,0 -7,-1 -6,-1z" /><path style="fill:#999" d="M864,69 l-6,0 -5,1 -5,0 -4,0 -5,1 -5,0 -4,0 -6,1 -5,0 -6,-1 -7,0 -8,-1 -9,-1 -9,-1 -11,-2 -13,-3 -6,-1 -6,0 -6,-1 -6,0 -7,-1 -6,0 -6,0 -6,0 -6,1 -6,0 -6,1 -6,0 -6,1 -6,1 -6,1 -6,0 -6,1 -5,1 -6,1 -5,1 -6,1 -5,0 -5,1 -5,1 -5,0 -5,1 -4,0 -5,1 -4,0 -4,0 -4,0 -3,-1 -4,-1 -3,-1 -4,-1 -4,-1 -4,-1 -5,0 -4,0 -5,-1 -4,0 -5,0 -6,1 -5,0 -6,0 -6,0 -6,1 -6,0 -7,1 -6,0 -7,0 -7,1 -8,0 -8,1 -7,0 -9,0 -8,0 -9,0 -9,0 -9,0 -9,-1 -10,0 -10,-1 -11,-1 -7,0 -7,0 -7,-1 -6,-1 -5,0 -6,-1 -6,-1 -6,-1 -7,0 -7,-1 -7,0 -9,0 -10,1 -10,1 -12,2 -14,2 -6,3 -6,3 -7,2 -7,1 -8,2 -9,1 -8,1 -9,1 -9,1 -9,1 -10,0 -9,1 -9,1 -9,0 -9,1 -8,1 0,5 2,2 3,2 3,0 4,0 4,-1 4,-1 4,-1 2,1 2,1 2,0 2,1 3,0 3,0 3,0 3,0 4,0 4,0 4,0 4,-1 4,0 5,-1 5,0 5,-1 6,-1 6,0 6,-1 6,-1 6,-1 7,0 7,-1 7,-1 8,0 8,-1 8,-1 8,0 9,-1 9,0 9,0 9,-1 5,0 5,-1 6,0 6,-1 6,0 7,0 8,0 8,1 9,0 10,1 11,1 12,1 12,2 14,2 15,2 16,2 4,1 3,1 4,0 4,1 4,0 5,0 4,0 5,0 5,0 5,0 6,0 5,-1 6,0 6,-1 7,0 6,-1 7,-1 8,0 7,-1 8,-1 8,-1 8,0 9,-1 9,-1 10,0 9,-1 11,-1 10,0 11,-1 11,0 12,0 12,-1 5,1 6,0 6,0 6,0 7,0 7,-1 7,-1 8,0 9,-1 10,0 10,0 11,0 12,0 12,0 14,1 14,1 2,0 3,0 3,-1 3,-1 3,-1 4,-1 3,-1 3,-2 3,-1 2,-2 2,-1 2,-1 0,-1 0,-1 -1,-1 -2,-1z" /><path style="fill:#666" d="M846,73 l2,0 0,-1 -3,0 -4,0 -6,0 -8,0 -8,0 -10,0 -11,0 -11,0 -12,0 -12,-1 -12,-1 -12,-1 -12,-2 -11,-2 -15,4 -14,3 -13,2 -12,2 -11,1 -10,1 -9,0 -9,1 -8,0 -7,-1 -7,0 -7,-1 -6,0 -6,-1 -6,0 -6,-1 -3,-1 -4,-1 -3,0 -4,0 -3,0 -4,0 -4,1 -4,0 -5,1 -4,1 -5,1 -5,1 -5,2 -5,1 -5,1 -5,1 -6,1 -6,1 -6,0 -6,1 -6,0 -7,1 -6,-1 -7,0 -7,-1 -7,-1 -8,-1 -7,-2 -8,-2 -7,-3 -8,-3 -9,-4 -7,2 -6,2 -6,1 -5,1 -5,1 -5,1 -4,1 -4,0 -5,0 -4,0 -5,-1 -5,0 -6,-1 -6,-1 -7,-2 -8,-2 -3,-1 -4,0 -3,-1 -3,-1 -3,0 -3,0 -4,0 -3,0 -3,0 -3,1 -4,0 -3,1 -4,1 -4,0 -4,1 -5,1 -5,1 -5,2 -5,1 -6,1 -6,1 -6,2 -7,1 -7,1 -8,2 -9,1 -8,1 -10,1 -10,2 -11,1 -11,1 -12,1 0,3 2,2 4,0 3,0 5,-1 4,-1 5,0 5,-1 2,1 2,0 2,1 3,0 3,0 4,0 3,-1 4,0 5,0 4,-1 5,-1 5,0 5,-1 6,-1 6,-1 6,-1 6,-1 7,-1 6,-1 7,0 8,-1 7,-1 8,-1 8,0 8,-1 8,0 8,0 9,-1 8,0 9,1 9,0 9,0 4,0 5,0 5,0 5,-1 5,0 6,0 7,1 7,0 8,1 8,0 9,1 10,1 11,2 12,1 13,2 13,2 3,1 4,1 3,0 4,0 5,0 4,0 5,0 5,0 6,0 6,0 6,-1 6,0 6,-1 7,-1 7,0 7,-1 8,-1 8,0 7,-1 9,-1 8,-1 8,0 9,-1 9,-1 9,0 9,-1 10,-1 9,0 10,-1 10,0 10,0 10,-1 4,1 4,1 3,0 4,0 3,0 3,0 3,0 3,0 4,-1 4,0 4,0 6,-1 6,0 7,-1 7,0 9,-1 2,0 4,1 5,0 6,0 7,0 7,0 7,0 8,0 7,0 7,0 6,-1 5,0 4,-1 3,-1 1,-2 -1,-2z" /><path style="fill:#4c4c4c" d="M814,79 l0,-1 -3,-1 -4,-1 -6,0 -7,0 -7,1 -9,0 -10,1 -9,0 -11,1 -10,0 -10,0 -10,-1 -9,-1 -8,-1 -7,-3 0,3 -3,2 -4,2 -6,1 -8,1 -8,1 -10,0 -10,0 -11,0 -11,0 -11,-1 -10,0 -10,-1 -9,-1 -7,0 -6,-1 -3,2 -2,1 -3,1 -4,1 -3,1 -4,1 -4,1 -4,1 -4,1 -5,0 -4,1 -5,0 -6,1 -5,0 -5,0 -6,0 -6,0 -6,0 -6,0 -7,-1 -6,0 -7,0 -6,-1 -7,-1 -7,-1 -7,-1 -7,-1 -7,-1 -7,-2 -7,-1 -7,-2 -8,-2 -8,1 -7,1 -8,0 -7,1 -8,0 -6,0 -7,0 -6,0 -7,0 -6,0 -6,0 -6,0 -6,-1 -6,0 -6,-1 -6,-1 -5,2 -5,2 -7,2 -7,1 -8,1 -9,1 -9,1 -9,0 -9,1 -9,0 -9,1 -9,0 -9,1 -8,0 -7,1 -7,0 0,3 2,2 3,1 3,0 4,0 4,-1 4,0 4,-1 3,0 2,0 3,0 4,0 3,-1 3,0 4,-1 4,0 4,-1 4,-1 4,0 5,-1 4,-1 5,0 5,-1 6,-1 5,-1 5,0 6,-1 6,0 6,-1 6,-1 7,0 6,0 7,-1 7,0 7,0 8,0 7,0 8,1 8,0 8,0 4,0 3,0 4,0 5,-1 5,0 5,0 6,1 6,0 7,0 8,1 8,1 9,1 9,1 10,1 11,2 12,1 3,1 3,1 3,0 4,0 4,1 4,0 4,0 5,-1 5,0 5,0 5,0 6,-1 6,0 6,-1 6,0 6,-1 7,0 7,-1 7,0 7,-1 7,-1 8,0 8,-1 8,0 8,-1 8,0 9,-1 8,0 9,0 9,0 9,-1 9,0 3,1 3,0 3,0 3,0 2,1 2,0 3,0 2,0 3,-1 3,0 4,0 5,0 5,-1 6,0 7,-1 8,-1 1,0 3,0 3,0 4,0 4,0 5,0 5,0 6,0 6,0 6,0 6,0 7,0 6,-1 6,0 6,0 6,-1z" /><path style="fill:#999" d="M137,15 l-2,-2 -1,-1 -2,-1 -2,0 -2,0 -2,-1 -2,0 -1,-1 -4,1 -4,0 -3,0 -4,0 -3,0 -4,0 -3,-1 -3,0 -3,-1 -4,-1 -3,-1 -3,0 -3,-1 -4,-1 -3,0 -3,-1 -6,-1 -5,0 -4,0 -4,1 -3,1 -3,0 -4,1 -3,0 -7,3 -6,1 -4,1 -4,0 -4,-1 -3,0 -4,0 -4,0 -1,2 0,2 0,0 1,1 2,0 1,0 2,1 1,0 0,2 1,1 2,1 3,1 3,0 4,1 4,0 4,-1 4,0 5,0 5,0 4,-1 5,0 4,0 4,0 4,0 2,0 2,0 2,0 3,0 2,0 2,-1 3,0 2,0 3,0 2,0 3,0 2,0 3,0 3,0 3,1 3,0 6,2 5,1 6,2 5,1 5,1 4,1 4,1 3,0 3,1 3,0 1,0 2,0 0,-1 0,0 -1,-1 -2,-2 -2,-1 -1,-1 -2,-1 -1,-2 -1,-1 -1,-1 -1,-1 -1,-2z" /><path style="fill:#666" d="M121,15 l-1,-1 -1,-1 -1,0 -2,0 -1,-1 -1,0 -2,0 -1,-1 -6,1 -5,0 -4,-1 -5,-1 -5,-1 -4,-2 -5,-1 -4,-1 -5,0 -3,1 -3,2 -2,2 -1,2 -2,2 -2,1 -2,0 -3,1 -3,1 -3,0 -3,0 -2,0 -3,-1 -4,0 -3,-1 -3,-1 -3,-1 -3,0 -3,-1 -3,0 -3,-1 -3,0 -3,0 -1,2 0,1 1,0 1,1 1,0 2,0 1,0 1,0 0,2 1,1 3,1 2,0 4,0 4,1 4,0 4,0 5,0 5,-1 4,0 5,0 4,0 4,0 4,0 3,0 3,0 4,0 3,-1 3,-1 4,0 3,-1 5,0 5,-1 4,2 4,1 5,1 4,1 4,1 3,1 3,1 3,1 2,1 2,0 1,0 1,0 0,0 -2,-1 -2,-1 2,-1 1,-1 -1,-1 -2,-1 -2,-1 -3,-1 -2,-1 -1,-1z" /><path style="fill:#4c4c4c" d="M109,15 l-6,0 -6,-1 -6,-1 -5,-1 -4,-1 -4,-1 -3,0 -2,-1 -3,0 -3,1 -4,2 -2,1 -1,2 0,2 3,1 6,-1 2,0 2,0 3,0 2,-1 3,0 3,0 3,-1 4,0 6,3 7,1 5,2 5,1 4,1 1,0 0,0 -2,-2 1,0 0,-1 -1,-1 -1,-1 -2,0 -2,-1 -2,-1 -1,-1z" /></svg>