<svg version="1.1" xmlns="http://www.w3.org/2000/svg" xmlns:xlink="http://www.w3.org/1999/xlink" width="112px" height="23px" viewBox="0 0 112.5 23.422" enable-background="new 0 0 112.5 23.422" xml:space="preserve">
<g id="Group_Clarifier">
	
		<linearGradient id="SVGID_1_" gradientUnits="userSpaceOnUse" x1="-249.7495" y1="407.7109" x2="-248.7495" y2="407.7109" gradientTransform="matrix(112.5 0 0 -112.5 28096.875 45883.6289)">
		<stop offset="0" style="stop-color:#77787B" />
		<stop offset="0.01" style="stop-color:#77787B" />
		<stop offset="0.5" style="stop-color:#E2E3E4" />
		<stop offset="1" style="stop-color:#77787B" />
	</linearGradient>
	<path fill="url(#SVGID_1_)" d="M56.939,9.067C31.961,9.067,10.364,10.674,0,13.01c0,2.087,0,4.173,0,6.258   c10.364,2.337,31.961,3.943,56.939,3.943c23.919,0,44.735-1.474,55.561-3.649c0-2.177,0-4.667,0-6.844   C101.675,10.541,80.858,9.067,56.939,9.067z" />
	
		<linearGradient id="SVGID_2_" gradientUnits="userSpaceOnUse" x1="-249.7495" y1="407.7109" x2="-248.7495" y2="407.7109" gradientTransform="matrix(112.5 0 0 -112.5 28096.875 45878.1914)">
		<stop offset="0" style="stop-color:#77787B" />
		<stop offset="0.01" style="stop-color:#77787B" />
		<stop offset="0.5" style="stop-color:#E2E3E4" />
		<stop offset="1" style="stop-color:#77787B" />
	</linearGradient>
	<rect y="4.877" fill="url(#SVGID_2_)" width="112.5" height="11.667" />
</g>
<g id="Group_InnerPart">
	<ellipse fill="#CCCCCC" stroke="#4C4C4C" stroke-width="0.25" cx="56.194" cy="4.617" rx="56.189" ry="4.617" />
	<ellipse fill="#999999" stroke="#4C4C4C" stroke-width="0.25" cx="56.194" cy="4.279" rx="49.771" ry="3.716" />
	<path fill="none" stroke="#FFFFFF" stroke-width="0.2" d="M19.131,6.978C36.937,8.602,54.859,8.35,72.72,7.713   c8.828-0.315,17.896-0.206,26.679-1.015c1.696-0.156,8.903-1.197,6.201-3.237c-1.182-0.894-4.275-0.803-5.74-0.996   c-2.346-0.308-4.7-0.564-7.06-0.776" />
</g>
<g id="Group_Feeder">
	<rect x="44.483" y="4.617" fill="#7F7F7F" width="23.421" height="3.266" />
	<ellipse fill="#CCCCCC" stroke="#4C4C4C" stroke-width="0.25" cx="56.194" cy="4.617" rx="11.71" ry="1.013" />
	<polygon fill="#ADB2B2" stroke="#4C4C4C" stroke-width="0.25" points="27.927,7.331 47.626,4.396 66.686,4.396 49.399,7.981    40.355,7.882  " />
</g>
</svg>