<svg version="1.1" xmlns="http://www.w3.org/2000/svg" xmlns:xlink="http://www.w3.org/1999/xlink" width="112px" height="26px" viewBox="0 0 112.5 25.561" enable-background="new 0 0 112.5 25.561" xml:space="preserve">
<g id="Group_BasinOuter">
	<path fill="#661900" d="M0.457,19.141v5.293l8.783-2.365l10.472,0.563l13.399,1.126l9.909-1.126l6.418,1.802h6.981l3.491-1.802   h14.637l8.221-0.563l4.616,2.928l5.179-0.676l-1.125-4.616l3.49-1.126l6.981-4.166l3.49-3.491l2.928-1.126l2.364-2.364l1.238-1.688   l-4.729-3.604H23.202L3.385,15.651L0.457,19.141z" />
	<path fill="#996633" d="M1.02,19.817l0.676,3.378l7.544-4.054L21.4,20.943l-0.563-1.688l4.729-1.239l-1.802,2.815l7.657,1.238   l6.981-0.563l-4.053-4.054l6.418,4.054h9.233l12.272-0.676l9.346,0.676l10.473-1.239h2.364l2.928,3.491l4.054-0.563l-1.689-5.854   l3.49-1.689l3.491,0.676l5.517-3.153l3.717-3.94l3.04-2.364l2.252-1.126l-4.054-3.491L23.202,2.139L5.187,14.413L1.02,19.817z" />
	<path fill="#B28C65" d="M2.259,19.817l1.126,1.126l5.855-2.928l5.855,1.126l6.08-0.9l4.955-1.464l1.801,2.364l3.491,0.563   l4.054-1.126l-2.365-2.364l6.418,2.927l12.273-1.801l6.981,1.801H76.35l2.252-1.126l5.291-0.675l1.803,2.927l2.252,1.802   l2.363-0.675l-1.238-5.855l3.041-2.252l2.814,1.126l5.292-2.252l1.126-2.928l2.928,0.563l2.928-4.053l2.928-0.563l-3.604-3.04   L94.478,1.126H78.938L62.725,0.45l-9.458,0.676L38.403,1.013L26.13,1.576l-2.928,0.676l-1.126,1.126l-5.292,2.365l-3.491,2.252   l-4.617,3.603l-2.927,2.59L2.259,19.817z" />
	<path fill="#CCB299" d="M5.187,18.579l9.909-2.928l11.598,0.563l2.364,1.801l3.491-2.364h11.147l13.963,0.563l12.836-0.563   l6.418,1.126h5.18l2.364-0.563l2.928,5.18l1.802-1.127l-0.676-5.854l2.928-1.689l8.782-2.928V7.995l4.054-1.126l0.563-1.689   l2.928-0.563l-2.252-2.365L92.113,1.576H77.475L62.273,1.013l-8.782,0.563l-9.796-0.563L29.62,1.576l-5.179,0.676l-2.365,1.689   l-4.617,1.802l-5.855,4.053l-3.491,2.365l-4.166,5.292L5.187,18.579z" />
</g>
<g id="Group_Basin_Inner">
	<path fill="#B2B2B2" d="M10.366,13.287l18.691-9.346h74.654L85.02,13.287H10.366z" />
	<path fill="#7F7F7F" d="M29.057,3.941l4.617,4.729l-9.233,4.617H10.366L29.057,3.941z" />
	<path fill="#999999" stroke="#996633" stroke-width="0.2" d="M29.057,3.941l4.617,4.729h60.691l9.346-4.729H29.057z" />
	<path fill="none" stroke="#996633" stroke-width="0.25" d="M13.856,13.287l16.439-8.107h71.05" />
	<path fill="none" stroke="#996633" stroke-width="0.25" d="M10.366,13.287l18.691-9.346h74.654L85.02,13.287H10.366" />
</g>
</svg>