<svg version="1.1" xmlns="http://www.w3.org/2000/svg" xmlns:xlink="http://www.w3.org/1999/xlink" width="112px" height="73px" viewBox="0 0 112.5 72.633" enable-background="new 0 0 112.5 72.633" xml:space="preserve">
<g id="Group_Streams">
	<polyline fill="#3D3D3D" points="95.27,26.238 95.27,19.369 95.945,18.806 100.675,14.639 100.675,10.248 93.018,10.248 101.688,0    110.472,10.248 102.139,10.248 102.139,15.653 102.139,15.653 102.139,15.653 96.959,20.044 96.959,26.238  " />
	<polyline fill="#3D3D3D" points="74.099,26.238 74.099,20.044 68.693,15.653 68.693,15.653 68.693,15.653 68.693,10.248    60.586,10.248 69.256,0 78.04,10.248 70.383,10.248 70.383,14.639 75.112,18.806 75.788,19.369 75.788,26.238  " />
	<polyline fill="#3D3D3D" points="32.095,26.238 32.095,19.369 32.883,18.806 37.5,14.639 37.5,10.248 29.956,10.248 38.514,0    47.297,10.248 39.189,10.248 39.189,15.653 39.189,15.653 39.189,15.653 33.784,20.044 33.784,26.238  " />
	<polyline fill="#3D3D3D" points="13.515,26.238 13.515,20.044 8.109,15.653 8.109,15.653 8.109,15.653 8.109,10.248 0.001,10.248    8.785,0 17.456,10.248 9.798,10.248 9.798,14.639 14.416,18.806 15.204,19.369 15.204,26.238  " />
</g>
<g id="Group_Container">
	<path fill="#F0F0F0" d="M33.734,26.238h78.765v46.395H0.677V26.238H33.734" />
	<rect x="3.154" y="28.716" fill="#3D3D3D" width="106.867" height="41.441" />
</g>
</svg>