<!DOCTYPE svg PUBLIC "-//W3C//DTD SVG 1.1//EN" "http://www.w3.org/Graphics/SVG/1.1/DTD/svg11.dtd"[]><svg version="1.1" xmlns="http://www.w3.org/2000/svg" xmlns:xlink="http://www.w3.org/1999/xlink" width="75px" height="112px" viewBox="0 0 74.887 112.5" enable-background="new 0 0 74.887 112.5" xml:space="preserve">
<g id="Group_Digester">
	<linearGradient id="SVGID_1_" gradientUnits="userSpaceOnUse" x1="-0.1096" y1="71.4492" x2="43.8137" y2="71.4492">
		<stop offset="0" style="stop-color:#CCB299" />
		<stop offset="1" style="stop-color:#E5D8CB" />
	</linearGradient>
	<path fill="url(#SVGID_1_)" d="M24.827,29.529C12.813,28.724,1.739,47.954,0.095,72.479c-1.16,17.303,2.688,32.607,9.271,40.412   c0.385-0.089,0.797-0.142,1.245-0.142c0.981,0,1.794,0.251,2.477,0.644c0.577-0.238,1.203-0.356,1.856-0.31   c3.443,0.248,6.836,0.005,10.254,0.252c0.667-0.366,1.468-0.586,2.413-0.586c0.919,0,1.703,0.209,2.36,0.558   c7.106-7.188,12.527-21.335,13.638-37.912C45.251,50.869,36.843,30.334,24.827,29.529z" />
	<linearGradient id="SVGID_2_" gradientUnits="userSpaceOnUse" x1="30.9641" y1="71.5332" x2="74.887" y2="71.5332">
		<stop offset="0" style="stop-color:#E5D8CB" />
		<stop offset="1" style="stop-color:#CCB299" />
	</linearGradient>
	<path fill="url(#SVGID_2_)" d="M46.3,112.767c0.208-0.074,0.422-0.136,0.648-0.171c5.654-0.87,11.021,0.379,16.662,0.154   c0.738-0.029,1.388,0.081,1.956,0.29c6.487-7.86,10.266-23.061,9.115-40.227C73.038,48.288,61.965,29.058,49.95,29.863   s-20.424,21.34-18.781,45.867c1.09,16.263,6.327,30.188,13.234,37.498C44.949,112.965,45.584,112.805,46.3,112.767z" />
	
		<radialGradient id="SVGID_3_" cx="37.2771" cy="67.2969" r="40.2808" gradientTransform="matrix(1 0 0 1.8 0 -53.8375)" gradientUnits="userSpaceOnUse">
		<stop offset="0" style="stop-color:#E5D8CB" />
		<stop offset="1" style="stop-color:#CCB299" />
	</radialGradient>
	<ellipse fill="url(#SVGID_3_)" cx="37.276" cy="67.297" rx="34.667" ry="45.203" />
	<linearGradient id="SVGID_4_" gradientUnits="userSpaceOnUse" x1="2.3611" y1="109.4102" x2="72.6086" y2="109.4102">
		<stop offset="0" style="stop-color:#CCB299" />
		<stop offset="0.5" style="stop-color:#E5D8CB" />
		<stop offset="1" style="stop-color:#CCB299" />
	</linearGradient>
	<path fill="url(#SVGID_4_)" stroke="#4C4C4C" stroke-width="0.1" d="M72.459,112.485H2.361l3.157-6.15h63.435   c1.491,1.953,2.612,3.905,3.656,5.861L72.459,112.485z" />
</g>
<g id="Group_BottleNeck">
	<linearGradient id="SVGID_5_" gradientUnits="userSpaceOnUse" x1="26.4641" y1="19.9326" x2="48.3108" y2="19.9326">
		<stop offset="0.01" style="stop-color:#996633" />
		<stop offset="0.5" style="stop-color:#C2A386" />
		<stop offset="1" style="stop-color:#996633" />
	</linearGradient>
	<path fill="url(#SVGID_5_)" d="M26.464,15.653h21.847v8.559H26.464V15.653" />
</g>
<g id="Group_Cap">
	<linearGradient id="SVGID_6_" gradientUnits="userSpaceOnUse" x1="21.8469" y1="7.8267" x2="53.0403" y2="7.8267">
		<stop offset="0.01" style="stop-color:#B28C65" />
		<stop offset="0.5" style="stop-color:#E5D8CB" />
		<stop offset="1" style="stop-color:#B28C65" />
	</linearGradient>
	<path fill="url(#SVGID_6_)" d="M21.847,0v15.653H53.04V0H21.847" />
</g>
<g id="Group_Friction">
	<linearGradient id="SVGID_7_" gradientUnits="userSpaceOnUse" x1="22.5227" y1="7.4326" x2="31.9817" y2="7.4326">
		<stop offset="0.06" style="stop-color:#808080" />
		<stop offset="0.13" style="stop-color:#8D8D8D" />
		<stop offset="0.28" style="stop-color:#B0B0B0" />
		<stop offset="0.48" style="stop-color:#E8E8E8" />
		<stop offset="0.48" style="stop-color:#EBEBEB" />
		<stop offset="0.57" style="stop-color:#E0E0E0" />
		<stop offset="0.72" style="stop-color:#C3C3C3" />
		<stop offset="0.92" style="stop-color:#949494" />
		<stop offset="1" style="stop-color:#808080" />
	</linearGradient>
	<path fill="url(#SVGID_7_)" stroke="#4C4C4C" stroke-width="0.25" d="M22.523,4.73h9.459v5.405h-9.459V4.73z" />
	<linearGradient id="SVGID_8_" gradientUnits="userSpaceOnUse" x1="32.7698" y1="7.4326" x2="42.1174" y2="7.4326">
		<stop offset="0.06" style="stop-color:#808080" />
		<stop offset="0.13" style="stop-color:#8D8D8D" />
		<stop offset="0.28" style="stop-color:#B0B0B0" />
		<stop offset="0.48" style="stop-color:#E8E8E8" />
		<stop offset="0.48" style="stop-color:#EBEBEB" />
		<stop offset="0.57" style="stop-color:#E0E0E0" />
		<stop offset="0.72" style="stop-color:#C3C3C3" />
		<stop offset="0.92" style="stop-color:#949494" />
		<stop offset="1" style="stop-color:#808080" />
	</linearGradient>
	<path fill="url(#SVGID_8_)" stroke="#4C4C4C" stroke-width="0.25" d="M32.77,4.73h9.348v5.405H32.77V4.73z" />
	<linearGradient id="SVGID_9_" gradientUnits="userSpaceOnUse" x1="42.7922" y1="7.4326" x2="52.2522" y2="7.4326">
		<stop offset="0.06" style="stop-color:#808080" />
		<stop offset="0.13" style="stop-color:#8D8D8D" />
		<stop offset="0.28" style="stop-color:#B0B0B0" />
		<stop offset="0.48" style="stop-color:#E8E8E8" />
		<stop offset="0.48" style="stop-color:#EBEBEB" />
		<stop offset="0.57" style="stop-color:#E0E0E0" />
		<stop offset="0.72" style="stop-color:#C3C3C3" />
		<stop offset="0.92" style="stop-color:#949494" />
		<stop offset="1" style="stop-color:#808080" />
	</linearGradient>
	<path fill="url(#SVGID_9_)" stroke="#4C4C4C" stroke-width="0.25" d="M42.792,4.73h9.46v5.405h-9.46V4.73z" />
</g>
</svg>