<svg version="1.1" xmlns="http://www.w3.org/2000/svg" xmlns:xlink="http://www.w3.org/1999/xlink" width="112px" height="49px" viewBox="0 0 112.5 49.211" enable-background="new 0 0 112.5 49.211" xml:space="preserve">
<g id="Group_Basin">
	<linearGradient id="SVGID_1_" gradientUnits="userSpaceOnUse" x1="9.0557" y1="32.7808" x2="103.415" y2="32.7808">
		<stop offset="0.01" style="stop-color:#595959" />
		<stop offset="0.5" style="stop-color:#E0E0E0" />
		<stop offset="1" style="stop-color:#595959" />
	</linearGradient>
	<path fill="url(#SVGID_1_)" d="M56.813,19.455c-20.95,0-39.065,3.03-47.758,7.43c0,3.932,0,7.86,0,11.79   c8.693,4.402,26.808,7.431,47.758,7.431c20.063,0,37.521-2.775,46.602-6.877c0-4.103,0-8.794,0-12.895   C94.335,22.233,76.876,19.455,56.813,19.455z" />
	<linearGradient id="SVGID_2_" gradientUnits="userSpaceOnUse" x1="9.0557" y1="22.2808" x2="103.415" y2="22.2808">
		<stop offset="0.01" style="stop-color:#595959" />
		<stop offset="0.5" style="stop-color:#E0E0E0" />
		<stop offset="1" style="stop-color:#595959" />
	</linearGradient>
	<path fill="url(#SVGID_2_)" d="M56.813,9.622c-20.95,0-39.065,2.878-47.758,7.058c0,3.735,0,7.468,0,11.202   c8.693,4.182,26.808,7.059,47.758,7.059c20.063,0,37.521-2.637,46.602-6.533c0-3.898,0-8.354,0-12.25   C94.335,12.261,76.876,9.622,56.813,9.622z" />
	<linearGradient id="SVGID_3_" gradientUnits="userSpaceOnUse" x1="4.5044" y1="42.6802" x2="107.5449" y2="42.6802">
		<stop offset="0.01" style="stop-color:#595959" />
		<stop offset="0.5" style="stop-color:#E0E0E0" />
		<stop offset="1" style="stop-color:#595959" />
	</linearGradient>
	<path fill="url(#SVGID_3_)" stroke="#4C4C4C" stroke-width="0.25" d="M103.379,36.487v0.225l-0.901,1.577l-2.815,1.464   l-4.392,1.464l-5.631,1.239l-7.095,0.9l-7.883,0.789l-8.896,0.449H46.622l-8.896-0.449l-7.883-0.789l-7.095-0.9l-5.63-1.239   l-4.392-1.464L9.91,38.289l-0.901-1.577v-0.225H8.784l-3.041,1.802l-1.239,1.688l1.239,1.689l3.041,1.689l4.617,1.576l6.419,1.239   l7.545,1.126l8.896,0.789l9.572,0.449l10.36,0.338l10.361-0.338l9.571-0.449l8.896-0.789l7.545-1.126l6.194-1.239l4.842-1.576   l3.041-1.689l0.9-1.689l-0.9-1.688l-3.041-1.802H103.379z" />
	<path fill="none" stroke="#4C4C4C" stroke-width="0.25" d="M103.379,36.487v0.225l-0.901,1.577l-2.815,1.464l-4.392,1.464   l-5.631,1.239l-7.095,0.9l-7.883,0.789l-8.896,0.449H46.622l-8.896-0.449l-7.883-0.789l-7.095-0.9l-5.63-1.239l-4.392-1.464   L9.91,38.289l-0.901-1.577v-0.225H8.784l-3.041,1.802l-1.239,1.688l1.239,1.689l3.041,1.689l4.617,1.576l6.419,1.239l7.545,1.126   l8.896,0.789l9.572,0.449l10.36,0.338l10.361-0.338l9.571-0.449l8.896-0.789l7.545-1.126l6.194-1.239l4.842-1.576l3.041-1.689   l0.9-1.689l-0.9-1.688l-3.041-1.802H103.379" />
</g>
<g id="Group_Top">
	<ellipse fill="#FFFFFF" stroke="#4C4C4C" stroke-width="0.25" cx="56.081" cy="9.797" rx="55.743" ry="9.459" />
	<linearGradient id="SVGID_4_" gradientUnits="userSpaceOnUse" x1="0.3379" y1="15.8784" x2="112.0488" y2="15.8784">
		<stop offset="0.01" style="stop-color:#595959" />
		<stop offset="0.5" style="stop-color:#BFBFBF" />
		<stop offset="1" style="stop-color:#595959" />
	</linearGradient>
	<path fill="url(#SVGID_4_)" stroke="#4C4C4C" stroke-width="0.25" d="M111.262,10.698l-0.451,1.014l-3.266,1.914l-5.067,1.464   l-6.87,1.464l-8.445,1.239l-9.347,0.788l-10.586,0.451L56.194,19.37l-11.261-0.338l-10.36-0.451L25,17.793l-8.221-1.239L9.91,15.09   l-5.067-1.464l-3.266-1.914l-0.676-1.014l-0.563,1.014l1.239,1.689l3.266,2.027l5.067,1.464l6.87,1.464L25,19.595l9.572,0.676   l10.36,0.563l11.261,0.225l11.036-0.225l10.586-0.563l9.347-0.676l8.445-1.239l6.87-1.464l5.067-1.464l3.266-2.027l1.238-1.689   L111.262,10.698z" />
</g>
<g id="Group_Group1">
	<path fill="#43A143" d="M96.509,4.054L100,4.842l4.617,1.464l2.928,1.689l1.014,1.689H69.482l-0.226-0.45l-0.563-0.225   l-1.238-0.563h-0.676L96.509,4.054z" />
	<path fill="#43A143" d="M65.991,1.126h1.464l9.685,0.451l8.559,0.789l7.433,1.238l2.928,0.451L66.217,8.221h-0.676l-1.689-0.225   l-2.027-0.225l-2.252-0.226h-0.113L65.991,1.126z" />
	<path fill="#43A143" d="M64.527,1.126l-8.784-0.225L45.608,1.126l-9.572,0.451L30.405,2.14l19.37,5.631h1.464l2.027-0.226h2.478   h1.915L64.527,1.126z" />
	<path fill="#43A143" d="M7.207,6.757l0.789-0.45l4.729-1.464l6.081-1.239l7.658-1.013l2.928-0.451l19.482,5.856h-0.789   l-1.689,0.225l-1.239,0.226l-1.239,0.563h-0.225L7.207,6.757z" />
	<path fill="#43A143" d="M6.982,12.951l-2.14-1.239L3.604,9.91l1.239-1.915l2.14-1.014l36.374,2.252l-0.451,0.225L42.68,9.91   l0.225,0.338l0.451,0.225L6.982,12.951z" />
	<path fill="#43A143" d="M29.392,17.568l-2.928-0.226l-7.658-1.239l-6.081-1.238l-4.729-1.464l-0.789-0.225l36.487-2.478   l0.225,0.225l1.239,0.226l1.239,0.338l1.689,0.225h0.789L29.392,17.568z" />
	<path fill="#43A143" d="M49.775,11.937l-19.37,5.631l5.631,0.563l9.572,0.45l10.135,0.226l8.784-0.226l-6.869-6.419h-1.915h-2.478   l-2.027-0.225H49.775z" />
	<path fill="#43A143" d="M59.459,12.162l6.532,6.419h1.464l9.685-0.45l8.559-0.789l7.433-1.013l2.928-0.676l-29.842-4.167h-0.676   l-1.689,0.225l-2.027,0.225l-2.252,0.225H59.459z" />
	<path fill="#43A143" d="M66.779,11.149l29.729,4.504L100,14.865l4.617-1.464l2.928-1.689l1.014-1.802H69.482l-0.226,0.563   l-0.788,0.225l-1.014,0.451H66.779z" />
</g>
<g id="Group_BaseSupport">
	<path fill="#B2B2B2" stroke="#4C4C4C" stroke-width="0.25" d="M9.009,33.559v2.928l-3.266,1.802L9.009,33.559z" />
	<path fill="#B2B2B2" stroke="#4C4C4C" stroke-width="0.25" d="M21.959,38.289l-1.915,6.306l1.915-2.139V38.289z" />
	<path fill="#B2B2B2" stroke="#4C4C4C" stroke-width="0.25" d="M37.049,39.977l-1.802,6.645l1.239-2.477L37.049,39.977z" />
	<path fill="#B2B2B2" stroke="#4C4C4C" stroke-width="0.25" d="M53.491,40.428h0.45v6.869h-0.45V40.428z" />
	<path fill="#B2B2B2" stroke="#4C4C4C" stroke-width="0.25" d="M69.707,39.977l1.689,6.645l-1.238-2.477L69.707,39.977z" />
	<path fill="#B2B2B2" stroke="#4C4C4C" stroke-width="0.25" d="M103.379,33.559v2.928l3.266,1.802L103.379,33.559z" />
	<path fill="#B2B2B2" stroke="#4C4C4C" stroke-width="0.25" d="M89.189,38.289l1.914,6.306l-1.914-2.139V38.289z" />
</g>
</svg>