<!DOCTYPE svg PUBLIC "-//W3C//DTD SVG 1.1//EN" "http://www.w3.org/Graphics/SVG/1.1/DTD/svg11.dtd"[]><svg version="1.1" xmlns="http://www.w3.org/2000/svg" xmlns:xlink="http://www.w3.org/1999/xlink" width="112px" height="29px" viewBox="0 0 112.5 28.605" enable-background="new 0 0 112.5 28.605" xml:space="preserve">
<g id="Group_Basin">
	<path fill="none" stroke="#4C4C4C" stroke-width="0.1791" d="M0,19.728c0-4.658,25.184-8.425,56.25-8.425   c31.066,0,56.25,3.767,56.25,8.425c0,4.66-25.184,8.427-56.25,8.427C25.184,28.154,0,24.388,0,19.728z" />
	<path fill="#BFBF00" d="M108.654,7.771c-0.21-0.238-0.395-0.497-0.551-0.772L3.803,7.525c-0.512,0.974-1.344,1.77-2.497,2.167   v9.714c10.122,4.43,31.212,7.479,55.604,7.479c23.357,0,43.686-2.794,54.258-6.923v-9.947   C109.995,9.603,109.158,8.776,108.654,7.771z" />
	<ellipse fill="#8C8C8C" cx="56.194" cy="10.023" rx="54.955" ry="9.347" />
</g>
<g id="Group_TopCover">
	<path fill="#43A143" d="M98.198,3.717l3.716,0.788l4.843,1.464l3.04,1.689l1.239,1.915L70.158,5.744l-0.226-0.563l-0.676-0.225   l-1.239-0.451L67.342,4.28L98.198,3.717z" />
	<path fill="#43A143" d="M66.555,0.564h1.463l9.91,0.563l9.01,0.676l7.883,1.239l2.928,0.676L66.555,4.28l-0.676-0.338l-1.689-0.225   l-2.141-0.225h-2.252h-0.225L66.555,0.564z" />
	<path fill="#43A143" d="M64.865,0.564l-9.122-0.225L45.045,0.564l-9.91,0.563l-5.743,0.451l20.27,2.14l1.239-0.225h2.365h2.478   h2.14L64.865,0.564z" />
	<path fill="#43A143" d="M4.955,6.42l0.676-0.451l5.067-1.464l6.531-1.464L25,2.028l3.153-0.45l20.27,2.14h-0.676l-1.689,0.225   l-1.464,0.563L43.356,4.73l-0.225,0.226L4.955,6.42z" />
	<path fill="#43A143" d="M4.729,12.726L2.59,11.487L1.352,9.798L2.59,7.884l2.139-1.239l38.176-1.464l-0.45,0.225l-0.226,0.563   l0.226,0.226l0.45,0.225L4.729,12.726z" />
	<path fill="#43A143" d="M28.153,17.794L25,17.568l-7.771-1.238l-6.531-1.465l-5.067-1.463l-0.676-0.451l38.176-6.306l0.225,0.225   l1.239,0.226l1.464,0.225l1.689,0.563h0.676L28.153,17.794z" />
	<path fill="#43A143" d="M49.662,7.884l-20.27,9.91l5.743,0.45l9.91,0.451l10.698,0.338h9.122L57.883,8.109h-2.14h-2.478h-2.365   L49.662,7.884z" />
	<path fill="#43A143" d="M59.572,8.109l6.982,10.586h1.463l9.91-0.451l9.01-0.676l7.883-1.238l2.928-0.451L66.555,7.321   l-0.676,0.338l-1.689,0.225l-2.141,0.225h-2.252H59.572z" />
	<path fill="#43A143" d="M67.117,7.321l31.081,8.333l3.716-0.789l4.843-1.463l3.04-1.689l1.014-1.915L70.158,5.969L69.933,6.42   l-0.676,0.225l-1.239,0.451L67.117,7.321z" />
</g>
</svg>