<svg version="1.1" xmlns="http://www.w3.org/2000/svg" xmlns:xlink="http://www.w3.org/1999/xlink" width="57px" height="112px" viewBox="0 0 57.096 112.5" enable-background="new 0 0 57.096 112.5" xml:space="preserve">
<g id="Group_Frame">
	<path fill="#4D4D4D" d="M2.141,34.347h54.954v76.689l-1.914,1.464L0.001,36.036L2.141,34.347z" />
	<linearGradient id="SVGID_1_" gradientUnits="userSpaceOnUse" x1="-9.7148" y1="56.8721" x2="64.8962" y2="91.6638">
		<stop offset="0" style="stop-color:#006600" />
		<stop offset="0.52" style="stop-color:#87C879" />
		<stop offset="0.61" style="stop-color:#74BA68" />
		<stop offset="0.79" style="stop-color:#43973C" />
		<stop offset="1" style="stop-color:#006600" />
	</linearGradient>
	<path fill="url(#SVGID_1_)" d="M0.001,36.036h55.18V112.5H0.001V36.036z" />
	<linearGradient id="SVGID_2_" gradientUnits="userSpaceOnUse" x1="24.0996" y1="25.6753" x2="30.9697" y2="25.6753">
		<stop offset="0" style="stop-color:#006600" />
		<stop offset="0.52" style="stop-color:#87C879" />
		<stop offset="0.61" style="stop-color:#74BA68" />
		<stop offset="0.79" style="stop-color:#43973C" />
		<stop offset="1" style="stop-color:#006600" />
	</linearGradient>
	<path fill="url(#SVGID_2_)" d="M24.1,15.314h6.87v20.722H24.1V15.314z" />
	<linearGradient id="SVGID_3_" gradientUnits="userSpaceOnUse" x1="21.96" y1="26.0698" x2="33.4463" y2="26.0698">
		<stop offset="0" style="stop-color:#006600" />
		<stop offset="0.52" style="stop-color:#87C879" />
		<stop offset="0.61" style="stop-color:#74BA68" />
		<stop offset="0.79" style="stop-color:#43973C" />
		<stop offset="1" style="stop-color:#006600" />
	</linearGradient>
	<path fill="url(#SVGID_3_)" d="M21.96,24.887h11.486v2.365H21.96V24.887z" />
	<path fill="#4D4D4D" d="M22.186,24.887h0.45v-0.563h-0.45V24.887z" />
	<path fill="#4D4D4D" d="M32.433,24.887h0.451v-0.563h-0.451V24.887z" />
	<path fill="#4D4D4D" d="M22.186,27.703h0.45v-0.451h-0.45V27.703z" />
	<path fill="#4D4D4D" d="M32.433,27.703h0.451v-0.451h-0.451V27.703z" />
</g>
<g id="Group_Filter">
	<path fill="#231F20" d="M7.771,47.073h39.527v54.392H7.771V47.073z" />
	<path fill="#CCCCCC" d="M34.122,47.973H46.06v52.478H34.122V47.973z" />
	<path fill="#4D4D4D" d="M19.708,47.973h15.428v52.478H19.708V47.973z" />
	<path fill="#CCCCCC" d="M21.172,47.973H9.235v52.478h11.937V47.973z" />
	<path fill="none" stroke="#4C4C4C" stroke-width="0.25" d="M44.146,49.775l-7.884-0.563" />
	<path fill="none" stroke="#4C4C4C" stroke-width="0.25" d="M44.146,51.239l-7.884-0.563" />
	<path fill="none" stroke="#4C4C4C" stroke-width="0.25" d="M44.146,52.928l-7.884-0.563" />
	<path fill="none" stroke="#4C4C4C" stroke-width="0.25" d="M44.146,54.392l-7.884-0.563" />
	<path fill="none" stroke="#4C4C4C" stroke-width="0.25" d="M44.146,55.855l-7.884-0.337" />
	<path fill="none" stroke="#4C4C4C" stroke-width="0.25" d="M44.146,57.545l-7.884-0.45" />
	<path fill="none" stroke="#4C4C4C" stroke-width="0.25" d="M44.146,59.009l-7.884-0.45" />
	<path fill="none" stroke="#4C4C4C" stroke-width="0.25" d="M44.146,60.698l-7.884-0.45" />
	<path fill="none" stroke="#4C4C4C" stroke-width="0.25" d="M44.146,62.162l-7.884-0.45" />
	<path fill="none" stroke="#4C4C4C" stroke-width="0.25" d="M44.146,63.625l-7.884-0.449" />
	<path fill="none" stroke="#4C4C4C" stroke-width="0.25" d="M44.146,65.316l-7.884-0.451" />
	<path fill="none" stroke="#4C4C4C" stroke-width="0.25" d="M44.146,66.779l-7.884-0.451" />
	<path fill="none" stroke="#4C4C4C" stroke-width="0.25" d="M44.146,68.243l-7.884-0.226" />
	<path fill="none" stroke="#4C4C4C" stroke-width="0.25" d="M44.146,70.045l-7.884-0.563" />
	<path fill="none" stroke="#4C4C4C" stroke-width="0.25" d="M44.146,71.509l-7.884-0.563" />
	<path fill="none" stroke="#4C4C4C" stroke-width="0.25" d="M44.146,73.198l-7.884-0.563" />
	<path fill="none" stroke="#4C4C4C" stroke-width="0.25" d="M44.146,74.662L36.262,74.1" />
	<path fill="none" stroke="#4C4C4C" stroke-width="0.25" d="M44.146,76.125l-7.884-0.337" />
	<path fill="none" stroke="#4C4C4C" stroke-width="0.25" d="M44.146,77.816l-7.884-0.564" />
	<path fill="none" stroke="#4C4C4C" stroke-width="0.25" d="M44.146,79.279l-7.884-0.563" />
	<path fill="none" stroke="#4C4C4C" stroke-width="0.25" d="M44.146,80.969l-7.884-0.563" />
	<path fill="none" stroke="#4C4C4C" stroke-width="0.25" d="M44.146,82.433l-7.884-0.45" />
	<path fill="none" stroke="#4C4C4C" stroke-width="0.25" d="M44.146,83.896l-7.884-0.451" />
	<path fill="none" stroke="#4C4C4C" stroke-width="0.25" d="M44.146,85.586l-7.884-0.451" />
	<path fill="none" stroke="#4C4C4C" stroke-width="0.25" d="M44.146,87.049L36.262,86.6" />
	<path fill="none" stroke="#4C4C4C" stroke-width="0.25" d="M44.146,88.738l-7.884-0.45" />
	<path fill="none" stroke="#4C4C4C" stroke-width="0.25" d="M44.146,90.203l-7.884-0.451" />
	<path fill="none" stroke="#4C4C4C" stroke-width="0.25" d="M44.146,91.666l-7.884-0.449" />
	<path fill="none" stroke="#4C4C4C" stroke-width="0.25" d="M44.146,93.355l-7.884-0.45" />
	<path fill="none" stroke="#4C4C4C" stroke-width="0.25" d="M44.146,94.933l-7.884-0.563" />
	<path fill="none" stroke="#4C4C4C" stroke-width="0.25" d="M44.146,96.396l-7.884-0.338" />
	<path fill="none" stroke="#4C4C4C" stroke-width="0.25" d="M44.146,98.086l-7.884-0.563" />
	<path fill="none" stroke="#FFFFFF" stroke-width="0.25" d="M31.42,49.775l-7.771-0.563" />
	<path fill="none" stroke="#FFFFFF" stroke-width="0.25" d="M31.42,51.239l-7.771-0.563" />
	<path fill="none" stroke="#FFFFFF" stroke-width="0.25" d="M31.42,52.928l-7.771-0.563" />
	<path fill="none" stroke="#FFFFFF" stroke-width="0.25" d="M31.42,54.392l-7.771-0.563" />
	<path fill="none" stroke="#FFFFFF" stroke-width="0.25" d="M31.42,55.855l-7.771-0.337" />
	<path fill="none" stroke="#FFFFFF" stroke-width="0.25" d="M31.42,57.545l-7.771-0.45" />
	<path fill="none" stroke="#FFFFFF" stroke-width="0.25" d="M31.42,59.009l-7.771-0.45" />
	<path fill="none" stroke="#FFFFFF" stroke-width="0.25" d="M31.42,60.698l-7.771-0.45" />
	<path fill="none" stroke="#FFFFFF" stroke-width="0.25" d="M31.42,62.162l-7.771-0.45" />
	<path fill="none" stroke="#FFFFFF" stroke-width="0.25" d="M31.42,63.625l-7.771-0.449" />
	<path fill="none" stroke="#FFFFFF" stroke-width="0.25" d="M31.42,65.316l-7.771-0.451" />
	<path fill="none" stroke="#FFFFFF" stroke-width="0.25" d="M31.42,66.779l-7.771-0.451" />
	<path fill="none" stroke="#FFFFFF" stroke-width="0.25" d="M31.42,68.243l-7.771-0.226" />
	<path fill="none" stroke="#FFFFFF" stroke-width="0.25" d="M31.42,70.045l-7.771-0.563" />
	<path fill="none" stroke="#FFFFFF" stroke-width="0.25" d="M31.42,71.509l-7.771-0.563" />
	<path fill="none" stroke="#FFFFFF" stroke-width="0.25" d="M31.42,73.198l-7.771-0.563" />
	<path fill="none" stroke="#FFFFFF" stroke-width="0.25" d="M31.42,74.662L23.649,74.1" />
	<path fill="none" stroke="#FFFFFF" stroke-width="0.25" d="M31.42,76.125l-7.771-0.337" />
	<path fill="none" stroke="#FFFFFF" stroke-width="0.25" d="M31.42,77.816l-7.771-0.564" />
	<path fill="none" stroke="#FFFFFF" stroke-width="0.25" d="M31.42,79.279l-7.771-0.563" />
	<path fill="none" stroke="#FFFFFF" stroke-width="0.25" d="M31.42,80.969l-7.771-0.563" />
	<path fill="none" stroke="#FFFFFF" stroke-width="0.25" d="M31.42,82.433l-7.771-0.45" />
	<path fill="none" stroke="#FFFFFF" stroke-width="0.25" d="M31.42,83.896l-7.771-0.451" />
	<path fill="none" stroke="#FFFFFF" stroke-width="0.25" d="M31.42,85.586l-7.771-0.451" />
	<path fill="none" stroke="#FFFFFF" stroke-width="0.25" d="M31.42,87.049L23.649,86.6" />
	<path fill="none" stroke="#FFFFFF" stroke-width="0.25" d="M31.42,88.738l-7.771-0.45" />
	<path fill="none" stroke="#FFFFFF" stroke-width="0.25" d="M31.42,90.203l-7.771-0.451" />
	<path fill="none" stroke="#FFFFFF" stroke-width="0.25" d="M31.42,91.666l-7.771-0.449" />
	<path fill="none" stroke="#FFFFFF" stroke-width="0.25" d="M31.42,93.355l-7.771-0.45" />
	<path fill="none" stroke="#FFFFFF" stroke-width="0.25" d="M31.42,94.933l-7.771-0.563" />
	<path fill="none" stroke="#FFFFFF" stroke-width="0.25" d="M31.42,96.396l-7.771-0.338" />
	<path fill="none" stroke="#FFFFFF" stroke-width="0.25" d="M31.42,98.086l-7.771-0.563" />
	<path fill="none" stroke="#4C4C4C" stroke-width="0.25" d="M11.149,49.775l7.883-0.563" />
	<path fill="none" stroke="#4C4C4C" stroke-width="0.25" d="M11.149,51.239l7.883-0.563" />
	<path fill="none" stroke="#4C4C4C" stroke-width="0.25" d="M11.149,52.928l7.883-0.563" />
	<path fill="none" stroke="#4C4C4C" stroke-width="0.25" d="M11.149,54.392l7.883-0.563" />
	<path fill="none" stroke="#4C4C4C" stroke-width="0.25" d="M11.149,55.855l7.883-0.337" />
	<path fill="none" stroke="#4C4C4C" stroke-width="0.25" d="M11.149,57.545l7.883-0.45" />
	<path fill="none" stroke="#4C4C4C" stroke-width="0.25" d="M11.149,59.009l7.883-0.45" />
	<path fill="none" stroke="#4C4C4C" stroke-width="0.25" d="M11.149,60.698l7.883-0.45" />
	<path fill="none" stroke="#4C4C4C" stroke-width="0.25" d="M11.149,62.162l7.883-0.45" />
	<path fill="none" stroke="#4C4C4C" stroke-width="0.25" d="M11.149,63.625l7.883-0.449" />
	<path fill="none" stroke="#4C4C4C" stroke-width="0.25" d="M11.149,65.316l7.883-0.451" />
	<path fill="none" stroke="#4C4C4C" stroke-width="0.25" d="M11.149,66.779l7.883-0.451" />
	<path fill="none" stroke="#4C4C4C" stroke-width="0.25" d="M11.149,68.243l7.883-0.226" />
	<path fill="none" stroke="#4C4C4C" stroke-width="0.25" d="M11.149,70.045l7.883-0.563" />
	<path fill="none" stroke="#4C4C4C" stroke-width="0.25" d="M11.149,71.509l7.883-0.563" />
	<path fill="none" stroke="#4C4C4C" stroke-width="0.25" d="M11.149,73.198l7.883-0.563" />
	<path fill="none" stroke="#4C4C4C" stroke-width="0.25" d="M11.149,74.662l7.883-0.563" />
	<path fill="none" stroke="#4C4C4C" stroke-width="0.25" d="M11.149,76.125l7.883-0.337" />
	<path fill="none" stroke="#4C4C4C" stroke-width="0.25" d="M11.149,77.816l7.883-0.564" />
	<path fill="none" stroke="#4C4C4C" stroke-width="0.25" d="M11.149,79.279l7.883-0.563" />
	<path fill="none" stroke="#4C4C4C" stroke-width="0.25" d="M11.149,80.969l7.883-0.563" />
	<path fill="none" stroke="#4C4C4C" stroke-width="0.25" d="M11.149,82.433l7.883-0.45" />
	<path fill="none" stroke="#4C4C4C" stroke-width="0.25" d="M11.149,83.896l7.883-0.451" />
	<path fill="none" stroke="#4C4C4C" stroke-width="0.25" d="M11.149,85.586l7.883-0.451" />
	<path fill="none" stroke="#4C4C4C" stroke-width="0.25" d="M11.149,87.049l7.883-0.449" />
	<path fill="none" stroke="#4C4C4C" stroke-width="0.25" d="M11.149,88.738l7.883-0.45" />
	<path fill="none" stroke="#4C4C4C" stroke-width="0.25" d="M11.149,90.203l7.883-0.451" />
	<path fill="none" stroke="#4C4C4C" stroke-width="0.25" d="M11.149,91.666l7.883-0.449" />
	<path fill="none" stroke="#4C4C4C" stroke-width="0.25" d="M11.149,93.355l7.883-0.45" />
	<path fill="none" stroke="#4C4C4C" stroke-width="0.25" d="M11.149,94.933l7.883-0.563" />
	<path fill="none" stroke="#4C4C4C" stroke-width="0.25" d="M11.149,96.396l7.883-0.338" />
	<path fill="none" stroke="#4C4C4C" stroke-width="0.25" d="M11.149,98.086l7.883-0.563" />
</g>
<g id="Group_Ring">
	<path fill="#231F20" d="M2.204,36.414H1.527v-1.438c0,0,0-0.25,0.356-0.25c0.32,0,0.32,0.266,0.32,0.266V36.414z" />
	<path fill="#231F20" d="M53.153,31.825c-0.909,0-1.646,0.737-1.646,1.646c0,0.909,0.737,1.646,1.646,1.646   c0.91,0,1.646-0.737,1.646-1.646C54.8,32.562,54.063,31.825,53.153,31.825z M53.153,34.555c-0.588,0-1.064-0.477-1.064-1.065   s0.477-1.065,1.064-1.065c0.589,0,1.065,0.477,1.065,1.065S53.742,34.555,53.153,34.555z" />
	<path fill="#231F20" d="M53.492,36.414h-0.677v-1.438c0,0,0-0.25,0.356-0.25c0.32,0,0.32,0.266,0.32,0.266V36.414z" />
	<path fill="#231F20" d="M1.864,31.825c-0.909,0-1.646,0.737-1.646,1.646c0,0.909,0.737,1.646,1.646,1.646   c0.91,0,1.647-0.737,1.647-1.646C3.512,32.562,2.774,31.825,1.864,31.825z M1.865,34.555c-0.588,0-1.065-0.477-1.065-1.065   s0.477-1.065,1.065-1.065S2.93,32.901,2.93,33.49S2.454,34.555,1.865,34.555z" />
</g>
<g id="Group_Motor">
	<path fill="#4D4D4D" d="M35.615,11.712H33.08V4.617h2.535V11.712z" />
	<linearGradient id="SVGID_4_" gradientUnits="userSpaceOnUse" x1="20.7217" y1="8.1641" x2="34.3477" y2="8.1641">
		<stop offset="0" style="stop-color:#006600" />
		<stop offset="0.52" style="stop-color:#87C879" />
		<stop offset="0.61" style="stop-color:#74BA68" />
		<stop offset="0.79" style="stop-color:#43973C" />
		<stop offset="1" style="stop-color:#006600" />
	</linearGradient>
	<path fill="url(#SVGID_4_)" d="M20.722,16.329h13.626V0H20.722V16.329z" />
</g>
</svg>