<svg version="1.1" xmlns="http://www.w3.org/2000/svg" xmlns:xlink="http://www.w3.org/1999/xlink" width="112px" height="47px" viewBox="0 0 112.5 46.735" enable-background="new 0 0 112.5 46.735" xml:space="preserve">
<g id="Group_Group8">
	<path fill="#CCCCCC" d="M15.09,46.284V29.956h1.689v16.328H15.09z" />
	<linearGradient id="SVGID_1_" gradientUnits="userSpaceOnUse" x1="16.7793" y1="36.2612" x2="20.0449" y2="36.2612">
		<stop offset="0" style="stop-color:#383838" />
		<stop offset="0.5" style="stop-color:#ECECEC" />
		<stop offset="0.57" style="stop-color:#D9D9D9" />
		<stop offset="0.71" style="stop-color:#A8A8A8" />
		<stop offset="0.92" style="stop-color:#5A5A5A" />
		<stop offset="1" style="stop-color:#383838" />
	</linearGradient>
	<path fill="url(#SVGID_1_)" d="M16.779,46.284V26.577l0.788-0.338h1.689l0.788,0.338v19.707H16.779z" />
</g>
<g id="Group_Group7">
	<path fill="#545C52" d="M23.761,46.284V26.577h2.027v19.707H23.761z" />
	<linearGradient id="SVGID_2_" gradientUnits="userSpaceOnUse" x1="25" y1="33.7837" x2="28.2656" y2="33.7837">
		<stop offset="0" style="stop-color:#666638" />
		<stop offset="0.45" style="stop-color:#CCCCBD" />
		<stop offset="0.53" style="stop-color:#BEBEAA" />
		<stop offset="0.7" style="stop-color:#98987A" />
		<stop offset="0.77" style="stop-color:#878763" />
		<stop offset="1" style="stop-color:#666638" />
	</linearGradient>
	<path fill="url(#SVGID_2_)" d="M25,46.284V21.735l0.788-0.451h1.689l0.788,0.451v24.549H25z" />
</g>
<g id="Group_Group9">
	<linearGradient id="SVGID_3_" gradientUnits="userSpaceOnUse" x1="8.5586" y1="43.0181" x2="23.3105" y2="43.0181">
		<stop offset="0" style="stop-color:#194C4C" />
		<stop offset="0.45" style="stop-color:#99CCCC" />
		<stop offset="0.55" style="stop-color:#86B9B9" />
		<stop offset="0.73" style="stop-color:#568989" />
		<stop offset="0.77" style="stop-color:#4C7F7F" />
		<stop offset="1" style="stop-color:#194C4C" />
	</linearGradient>
	<path fill="url(#SVGID_3_)" d="M8.559,46.284v-6.08c0,0,2.223-0.451,4.955-0.451h4.955c3.469,0,4.842,0.451,4.842,0.451v6.08H8.559   z" />
	<linearGradient id="SVGID_4_" gradientUnits="userSpaceOnUse" x1="0.3379" y1="43.6372" x2="8.5586" y2="43.6372">
		<stop offset="0" style="stop-color:#194C4C" />
		<stop offset="0.45" style="stop-color:#99CCCC" />
		<stop offset="0.55" style="stop-color:#86B9B9" />
		<stop offset="0.73" style="stop-color:#568989" />
		<stop offset="0.77" style="stop-color:#4C7F7F" />
		<stop offset="1" style="stop-color:#194C4C" />
	</linearGradient>
	<path fill="url(#SVGID_4_)" d="M0.338,46.284v-4.842l8.221-0.451v5.293H0.338z" />
	<linearGradient id="SVGID_5_" gradientUnits="userSpaceOnUse" x1="23.3105" y1="43.6372" x2="29.9551" y2="43.6372">
		<stop offset="0" style="stop-color:#194C4C" />
		<stop offset="0.45" style="stop-color:#99CCCC" />
		<stop offset="0.55" style="stop-color:#86B9B9" />
		<stop offset="0.73" style="stop-color:#568989" />
		<stop offset="0.77" style="stop-color:#4C7F7F" />
		<stop offset="1" style="stop-color:#194C4C" />
	</linearGradient>
	<path fill="url(#SVGID_5_)" d="M23.311,46.284v-5.293l6.645,0.451v4.842H23.311z" />
	<path fill="none" stroke="#FFCC00" stroke-width="0.25" d="M21.734,45.159H15.09" />
	<path fill="none" stroke="#FFFFFF" stroke-width="0.25" d="M30.743,45.946" />
	<path fill="none" stroke="#FFFFFF" stroke-width="0.25" d="M30.743,7.321" />
</g>
<g id="Group_Group4">
	<path fill="#CC9933" d="M50.874,16.78h2.054v20.496h-2.054V16.78z" />
	<linearGradient id="SVGID_6_" gradientUnits="userSpaceOnUse" x1="46.2832" y1="27.8159" x2="51.2383" y2="27.8159">
		<stop offset="0" style="stop-color:#CC9933" />
		<stop offset="0.5" style="stop-color:#FFCC66" />
		<stop offset="1" style="stop-color:#CC9933" />
	</linearGradient>
	<path fill="url(#SVGID_6_)" d="M47.973,37.276V11.824h1.239v-1.576h-2.027v36.036h-0.901V9.348H50v2.477h1.238v25.452H47.973z" />
	<linearGradient id="SVGID_7_" gradientUnits="userSpaceOnUse" x1="49.2119" y1="10.5859" x2="50" y2="10.5859">
		<stop offset="0" style="stop-color:#CC9933" />
		<stop offset="0.5" style="stop-color:#FFCC66" />
		<stop offset="1" style="stop-color:#CC9933" />
	</linearGradient>
	<rect x="49.212" y="9.348" fill="url(#SVGID_7_)" width="0.788" height="2.477" />
	<linearGradient id="SVGID_8_" gradientUnits="userSpaceOnUse" x1="48.1416" y1="10.248" x2="48.1416" y2="9.3477">
		<stop offset="0" style="stop-color:#CC9933" />
		<stop offset="0.5" style="stop-color:#FFCC66" />
		<stop offset="1" style="stop-color:#CC9933" />
	</linearGradient>
	<polygon fill="url(#SVGID_8_)" points="46.283,10.248 49.212,10.248 50,9.348 46.283,9.348  " />
	<linearGradient id="SVGID_9_" gradientUnits="userSpaceOnUse" x1="47.9731" y1="24.5503" x2="51.2383" y2="24.5503">
		<stop offset="0" style="stop-color:#CC9933" />
		<stop offset="0.5" style="stop-color:#FFCC66" />
		<stop offset="1" style="stop-color:#CC9933" />
	</linearGradient>
	<rect x="47.973" y="11.824" fill="url(#SVGID_9_)" width="3.265" height="25.452" />
	<linearGradient id="SVGID_10_" gradientUnits="userSpaceOnUse" x1="46.2832" y1="27.8159" x2="47.1846" y2="27.8159">
		<stop offset="0" style="stop-color:#CC9933" />
		<stop offset="0.5" style="stop-color:#FFCC66" />
		<stop offset="1" style="stop-color:#CC9933" />
	</linearGradient>
	<polygon fill="url(#SVGID_10_)" points="46.283,9.348 46.283,46.284 47.185,46.284 47.185,10.248  " />
</g>
<g id="Group_Group6">
	<linearGradient id="SVGID_11_" gradientUnits="userSpaceOnUse" x1="38.1758" y1="27.8726" x2="44.707" y2="27.8726">
		<stop offset="0" style="stop-color:#666638" />
		<stop offset="0.45" style="stop-color:#CCCCBD" />
		<stop offset="0.53" style="stop-color:#BEBEAA" />
		<stop offset="0.7" style="stop-color:#98987A" />
		<stop offset="0.77" style="stop-color:#878763" />
		<stop offset="1" style="stop-color:#666638" />
	</linearGradient>
	<path fill="url(#SVGID_11_)" d="M38.176,38.965V26.577l1.576-4.842V16.78h3.266v4.955l1.689,4.842v12.389H38.176z" />
	
		<radialGradient id="SVGID_12_" cx="41.4414" cy="24.1558" r="2.8745" gradientTransform="matrix(1 0 0 1.5 0 -12.0776)" gradientUnits="userSpaceOnUse">
		<stop offset="0" style="stop-color:#CBCBBC" />
		<stop offset="0.16" style="stop-color:#C0C0AE" />
		<stop offset="0.46" style="stop-color:#A4A488" />
		<stop offset="0.88" style="stop-color:#76764C" />
		<stop offset="1" style="stop-color:#676739" />
	</radialGradient>
	<path fill="url(#SVGID_12_)" d="M38.176,26.577l1.576-4.842h3.266l1.689,4.842H38.176z" />
	<linearGradient id="SVGID_13_" gradientUnits="userSpaceOnUse" x1="39.752" y1="19.2573" x2="43.0181" y2="19.2573">
		<stop offset="0" style="stop-color:#666638" />
		<stop offset="0.45" style="stop-color:#CCCCBD" />
		<stop offset="0.53" style="stop-color:#BEBEAA" />
		<stop offset="0.7" style="stop-color:#98987A" />
		<stop offset="0.77" style="stop-color:#878763" />
		<stop offset="1" style="stop-color:#666638" />
	</linearGradient>
	<path fill="url(#SVGID_13_)" d="M39.752,21.735V16.78h3.266v4.955H39.752z" />
</g>
<g id="Group_Group5">
	<linearGradient id="SVGID_14_" gradientUnits="userSpaceOnUse" x1="29.9551" y1="26.5767" x2="31.5313" y2="26.5767">
		<stop offset="0" style="stop-color:#263A59" />
		<stop offset="0.45" style="stop-color:#A6BAD9" />
		<stop offset="0.55" style="stop-color:#93A7C6" />
		<stop offset="0.73" style="stop-color:#637796" />
		<stop offset="0.77" style="stop-color:#596D8C" />
		<stop offset="1" style="stop-color:#263A59" />
	</linearGradient>
	<path fill="url(#SVGID_14_)" d="M29.955,46.284h1.576V6.87h-1.576V46.284z" />
	<linearGradient id="SVGID_15_" gradientUnits="userSpaceOnUse" x1="32.8164" y1="36.9966" x2="54.281" y2="47.0057">
		<stop offset="0" style="stop-color:#263A59" />
		<stop offset="0.45" style="stop-color:#A6BAD9" />
		<stop offset="0.55" style="stop-color:#93A7C6" />
		<stop offset="0.73" style="stop-color:#637796" />
		<stop offset="0.77" style="stop-color:#596D8C" />
		<stop offset="1" style="stop-color:#263A59" />
	</linearGradient>
	<path fill="url(#SVGID_15_)" d="M31.531,46.284v-6.531l3.266-0.787h9.91l3.266,0.787v-2.477h6.644v9.008H31.531z" />
	<path fill="none" stroke="#FFFFFF" stroke-width="0.25" d="M48.761,38.063h4.955" />
	<path fill="none" stroke="#FFFFFF" stroke-width="0.25" d="M53.716,38.965h-4.955" />
	<path fill="none" stroke="#FFFFFF" stroke-width="0.25" d="M33.559,45.159H52.14" />
	<path fill="none" stroke="#FFFFFF" stroke-width="0.25" d="M33.559,44.257H52.14" />
</g>
<g id="Group_Group3">
	<linearGradient id="SVGID_16_" gradientUnits="userSpaceOnUse" x1="54.6172" y1="36.4302" x2="58.6709" y2="36.4302">
		<stop offset="0" style="stop-color:#666638" />
		<stop offset="0.45" style="stop-color:#CCCCBD" />
		<stop offset="0.53" style="stop-color:#BEBEAA" />
		<stop offset="0.7" style="stop-color:#98987A" />
		<stop offset="0.77" style="stop-color:#878763" />
		<stop offset="1" style="stop-color:#666638" />
	</linearGradient>
	<path fill="url(#SVGID_16_)" d="M54.617,46.284V29.956l1.126-1.689v-1.689h2.928l0,0v0.901h-2.026v0.788l1.238,1.689v6.531v9.797   H54.617z" />
	
		<radialGradient id="SVGID_17_" cx="56.25" cy="29.1108" r="1.2999" gradientTransform="matrix(1 0 0 1.5 0 -14.5562)" gradientUnits="userSpaceOnUse">
		<stop offset="0" style="stop-color:#CBCBBC" />
		<stop offset="0.16" style="stop-color:#C0C0AE" />
		<stop offset="0.46" style="stop-color:#A4A488" />
		<stop offset="0.88" style="stop-color:#76764C" />
		<stop offset="1" style="stop-color:#676739" />
	</radialGradient>
	<path fill="url(#SVGID_17_)" d="M54.617,29.956l1.126-1.689h0.901l1.238,1.689H54.617z" />
	<linearGradient id="SVGID_18_" gradientUnits="userSpaceOnUse" x1="57.8828" y1="41.3853" x2="61.1484" y2="41.3853">
		<stop offset="0" style="stop-color:#666638" />
		<stop offset="0.45" style="stop-color:#CCCCBD" />
		<stop offset="0.53" style="stop-color:#BEBEAA" />
		<stop offset="0.7" style="stop-color:#98987A" />
		<stop offset="0.77" style="stop-color:#878763" />
		<stop offset="1" style="stop-color:#666638" />
	</linearGradient>
	<rect x="57.883" y="36.487" fill="url(#SVGID_18_)" width="3.266" height="9.797" />
	<path fill="#545C52" d="M58.671,36.487h1.689V3.604h-1.689V36.487z" />
	<path fill="#545C52" d="M62.725,46.284V3.604h1.689v0.789h0.789V0.339h0.9v4.955h-1.689v40.99H62.725z" />
	<path fill="#231F20" d="M61.148,41.442h2.815v3.266h-2.815V41.442z" />
	<linearGradient id="SVGID_19_" gradientUnits="userSpaceOnUse" x1="55.7432" y1="27.4214" x2="56.6445" y2="27.4214">
		<stop offset="0" style="stop-color:#666638" />
		<stop offset="0.45" style="stop-color:#CCCCBD" />
		<stop offset="0.53" style="stop-color:#BEBEAA" />
		<stop offset="0.7" style="stop-color:#98987A" />
		<stop offset="0.77" style="stop-color:#878763" />
		<stop offset="1" style="stop-color:#666638" />
	</linearGradient>
	<polygon fill="url(#SVGID_19_)" points="56.645,28.266 56.645,27.478 55.743,26.577 55.743,28.266  " />
	<linearGradient id="SVGID_20_" gradientUnits="userSpaceOnUse" x1="57.207" y1="27.478" x2="57.207" y2="26.5767">
		<stop offset="0" style="stop-color:#666638" />
		<stop offset="0.45" style="stop-color:#CCCCBD" />
		<stop offset="0.53" style="stop-color:#BEBEAA" />
		<stop offset="0.7" style="stop-color:#98987A" />
		<stop offset="0.77" style="stop-color:#878763" />
		<stop offset="1" style="stop-color:#666638" />
	</linearGradient>
	<polygon fill="url(#SVGID_20_)" points="56.645,27.478 58.671,27.478 58.671,26.577 55.743,26.577  " />
</g>
<g id="Group_Group2">
	<linearGradient id="SVGID_21_" gradientUnits="userSpaceOnUse" x1="65.7158" y1="26.1997" x2="89.9144" y2="37.4837">
		<stop offset="0" style="stop-color:#263A59" />
		<stop offset="0.45" style="stop-color:#A6BAD9" />
		<stop offset="0.55" style="stop-color:#93A7C6" />
		<stop offset="0.73" style="stop-color:#637796" />
		<stop offset="0.77" style="stop-color:#596D8C" />
		<stop offset="1" style="stop-color:#263A59" />
	</linearGradient>
	<path fill="url(#SVGID_21_)" d="M63.964,46.284V29.956h15.991V13.514h3.379v4.842h2.477v27.927H63.964z" />
	<linearGradient id="SVGID_22_" gradientUnits="userSpaceOnUse" x1="79.9551" y1="23.2847" x2="85.8105" y2="23.2847">
		<stop offset="0" style="stop-color:#263A59" />
		<stop offset="0.45" style="stop-color:#A6BAD9" />
		<stop offset="0.55" style="stop-color:#93A7C6" />
		<stop offset="0.73" style="stop-color:#637796" />
		<stop offset="0.77" style="stop-color:#596D8C" />
		<stop offset="1" style="stop-color:#263A59" />
	</linearGradient>
	<path fill="url(#SVGID_22_)" d="M79.955,29.956V13.514h3.379v4.842h2.477v14.699L79.955,29.956z" />
	<linearGradient id="SVGID_23_" gradientUnits="userSpaceOnUse" x1="71.8467" y1="15.147" x2="73.4238" y2="15.147">
		<stop offset="0" style="stop-color:#263A59" />
		<stop offset="0.45" style="stop-color:#A6BAD9" />
		<stop offset="0.55" style="stop-color:#93A7C6" />
		<stop offset="0.73" style="stop-color:#637796" />
		<stop offset="0.77" style="stop-color:#596D8C" />
		<stop offset="1" style="stop-color:#263A59" />
	</linearGradient>
	<path fill="url(#SVGID_23_)" d="M71.847,0.339h1.577v29.617h-1.577V0.339z" />
	<path fill="#263A59" stroke="#4C4C4C" stroke-width="0.25" d="M84.121,18.356v-6.532h-2.026v1.69h-0.901v-2.478h3.717v7.32H84.121z   " />
	<linearGradient id="SVGID_24_" gradientUnits="userSpaceOnUse" x1="75.9004" y1="23.3677" x2="77.5898" y2="23.3677">
		<stop offset="0" style="stop-color:#263A59" />
		<stop offset="0.45" style="stop-color:#A6BAD9" />
		<stop offset="0.55" style="stop-color:#93A7C6" />
		<stop offset="0.73" style="stop-color:#637796" />
		<stop offset="0.77" style="stop-color:#596D8C" />
		<stop offset="1" style="stop-color:#263A59" />
	</linearGradient>
	<path fill="url(#SVGID_24_)" d="M75.9,16.78h1.689v13.176H75.9V16.78z" />
	<path fill="#CC9933" d="M65.203,31.983h14.414v0.451H65.203V31.983z" />
	<path fill="#CC9933" d="M65.203,34.009h5.742v0.45h-5.742V34.009z" />
	<path fill="#CC9933" d="M68.919,38.514h10.698v0.451H68.919V38.514z" />
</g>
<g id="Group_Group1">
	<linearGradient id="SVGID_25_" gradientUnits="userSpaceOnUse" x1="89.0762" y1="27.0278" x2="92.3418" y2="27.0278">
		<stop offset="0" style="stop-color:#194C4C" />
		<stop offset="0.45" style="stop-color:#99CCCC" />
		<stop offset="0.55" style="stop-color:#86B9B9" />
		<stop offset="0.73" style="stop-color:#568989" />
		<stop offset="0.77" style="stop-color:#4C7F7F" />
		<stop offset="1" style="stop-color:#194C4C" />
	</linearGradient>
	<path fill="url(#SVGID_25_)" d="M89.076,46.284V8.559h1.577V7.771h1.688v38.513H89.076z" />
</g>
<g id="Group_Tank1">
	<path fill="#4D4D4D" d="M102.14,43.018h0.901v3.266h-0.901V43.018z" />
	<path fill="#4D4D4D" d="M96.059,43.018h0.788v3.266h-0.788V43.018z" />
	<path fill="#4D4D4D" d="M109.572,43.018h0.788v3.266h-0.788V43.018z" />
	<path fill="#4D4D4D" d="M103.829,43.018h0.788v3.266h-0.788V43.018z" />
	<path fill="#4D4D4D" d="M94.031,42.68h0.789v3.604h-0.789V42.68z" />
	<path fill="#4D4D4D" d="M86.6,42.68h0.788v3.604H86.6V42.68z" />
	<radialGradient id="SVGID_26_" cx="99.7744" cy="39.3022" r="5.7432" gradientUnits="userSpaceOnUse">
		<stop offset="0" style="stop-color:#CBCBBC" />
		<stop offset="0.16" style="stop-color:#C0C0AE" />
		<stop offset="0.46" style="stop-color:#A4A488" />
		<stop offset="0.88" style="stop-color:#76764C" />
		<stop offset="1" style="stop-color:#676739" />
	</radialGradient>
	<circle fill="url(#SVGID_26_)" cx="99.775" cy="39.302" r="5.743" />
	<radialGradient id="SVGID_27_" cx="107.0947" cy="40.2036" r="4.9551" gradientUnits="userSpaceOnUse">
		<stop offset="0" style="stop-color:#ECECEC" />
		<stop offset="0.15" style="stop-color:#DEDFDE" />
		<stop offset="0.43" style="stop-color:#BABCB8" />
		<stop offset="0.82" style="stop-color:#80857C" />
		<stop offset="1" style="stop-color:#62695E" />
	</radialGradient>
	<circle fill="url(#SVGID_27_)" cx="107.095" cy="40.204" r="4.955" />
	<radialGradient id="SVGID_28_" cx="90.6523" cy="38.5142" r="6.5317" gradientUnits="userSpaceOnUse">
		<stop offset="0" style="stop-color:#ECECEC" />
		<stop offset="0.15" style="stop-color:#DEDFDE" />
		<stop offset="0.43" style="stop-color:#BABCB8" />
		<stop offset="0.82" style="stop-color:#80857C" />
		<stop offset="1" style="stop-color:#62695E" />
	</radialGradient>
	<circle fill="url(#SVGID_28_)" cx="90.653" cy="38.514" r="6.531" />
</g>
</svg>