<!DOCTYPE svg PUBLIC "-//W3C//DTD SVG 20000303 Stylable//EN" "http://www.w3.org/TR/2000/03/WD-SVG-20000303/DTD/svg-20000303-stylable.dtd"[]><svg xmlns="http://www.w3.org/2000/svg" width="999px" height="707px" viewBox="0 0 999 693"><path style="fill:#fff" d="M5,616 l0,-611 282,0 0,24 260,0 0,24 258,0 0,23 188,0 0,611 -211,0 23,-23 -283,0 25,-24 -283,0 23,-24 -282,0z" /><path style="fill:#f00" d="M805,76 l188,0 0,47 -188,0 0,-47z" /><path style="fill:#f00" d="M805,169 l188,0 0,47 -188,0 0,-47z" /><path style="fill:#f00" d="M805,264 l188,0 0,47 -188,0 0,-47z" /><path style="fill:#f00" d="M805,358 l188,0 0,47 -188,0 0,-47z" /><path style="fill:#f00" d="M805,453 l188,0 0,45 -188,0 0,-45z" /><path style="fill:#f00" d="M805,545 l188,0 0,48 -188,0 0,-48z" /><path style="fill:#f00" d="M805,640 l188,0 0,47 -211,0 23,-23 0,-24z" /><path style="fill:#f00" d="M547,53 l258,0 0,47 -258,0 0,-47z" /><path style="fill:#f00" d="M547,147 l258,0 0,46 -258,0 0,-46z" /><path style="fill:#f00" d="M547,240 l258,0 0,47 -258,0 0,-47z" /><path style="fill:#f00" d="M547,334 l258,0 0,47 -258,0 0,-47z" /><path style="fill:#f00" d="M547,429 l258,0 0,47 -258,0 0,-47z" /><path style="fill:#f00" d="M547,522 l258,0 0,47 -258,0 0,-47z" /><path style="fill:#f00" d="M547,616 l258,0 0,48 -283,0 25,-24 0,-24z" /><path style="fill:#f00" d="M452,29 l95,0 0,47 -95,0 0,-47z" /><path style="fill:#f00" d="M452,123 l95,0 0,46 -95,0 0,-46z" /><path style="fill:#f00" d="M452,216 l95,0 0,48 -95,0 0,-48z" /><path style="fill:#f00" d="M452,311 l95,0 0,47 -95,0 0,-47z" /><path style="fill:#f00" d="M287,405 l260,0 0,48 -260,0 0,-48z" /><path style="fill:#f00" d="M287,498 l260,0 0,47 -260,0 0,-47z" /><path style="fill:#f00" d="M287,593 l260,0 0,47 -283,0 23,-24 0,-23z" /><path style="fill:#f00" d="M5,381 l282,0 0,48 -282,0 0,-48z" /><path style="fill:#f00" d="M5,476 l282,0 0,46 -282,0 0,-46z" /><path style="fill:#f00" d="M5,569 l282,0 0,47 -282,0 0,-47z" /><path style="fill:#007fff" d="M287,29 l165,0 0,329 -165,0 0,-329z" /><path style="fill:#007fff" d="M5,5 l282,0 0,329 -282,0 0,-329z" /><path style="fill:#7f0000" d="M264,640 l23,-24 -23,0 0,24z" /><path style="fill:#7f0000" d="M523,664 l24,-24 -24,0 0,24z" /><path style="fill:#7f0000" d="M782,687 l23,-23 -23,0 0,23z" /><path style="fill:none;stroke:#7f7f7f;stroke-width:2" d="M805,664 l0,-588" /><path style="fill:none;stroke:#7f7f7f;stroke-width:2" d="M547,640 l0,-587" /><path style="fill:none;stroke:#7f7f7f;stroke-width:2" d="M287,616 l0,-282" /><path style="fill:#fff" d="M416,328 l-17,-17 17,-17 17,17 -17,17z" /><path style="fill:#fff" d="M417,281 l-17,-17 17,-17 17,17 -17,17z" /><path style="fill:#fff" d="M416,234 l-17,-17 17,-17 17,17 -17,17z" /><path style="fill:#fff" d="M416,187 l-17,-17 17,-17 17,17 -17,17z" /><path style="fill:#fff" d="M417,139 l-17,-16 17,-17 17,17 -17,16z" /><path style="fill:#fff" d="M417,92 l-17,-16 17,-17 17,17 -17,16z" /><path style="fill:#fff" d="M369,304 l-17,-16 17,-17 17,17 -17,16z" /><path style="fill:#fff" d="M370,257 l-17,-16 17,-17 17,17 -17,16z" /><path style="fill:#fff" d="M369,210 l-17,-16 17,-17 17,17 -17,16z" /><path style="fill:#fff" d="M369,163 l-17,-16 17,-17 17,17 -17,16z" /><path style="fill:#fff" d="M370,116 l-17,-16 17,-17 17,17 -17,16z" /><path style="fill:#fff" d="M323,328 l-17,-17 17,-17 17,17 -17,17z" /><path style="fill:#fff" d="M323,281 l-16,-17 16,-17 17,17 -17,17z" /><path style="fill:#fff" d="M323,234 l-17,-17 17,-17 17,17 -17,17z" /><path style="fill:#fff" d="M323,187 l-17,-17 17,-17 17,17 -17,17z" /><path style="fill:#fff" d="M323,139 l-16,-16 16,-17 17,17 -17,16z" /><path style="fill:#fff" d="M323,92 l-16,-16 16,-17 17,17 -17,16z" /><path style="fill:#fff" d="M275,281 l-17,-17 17,-17 17,17 -17,17z" /><path style="fill:#fff" d="M276,234 l-17,-17 17,-17 17,17 -17,17z" /><path style="fill:#fff" d="M275,187 l-17,-17 17,-17 17,17 -17,17z" /><path style="fill:#fff" d="M275,139 l-17,-16 17,-17 17,17 -17,16z" /><path style="fill:#fff" d="M276,92 l-17,-16 17,-17 17,17 -17,16z" /><path style="fill:#fff" d="M229,304 l-17,-17 17,-17 17,17 -17,17z" /><path style="fill:#fff" d="M229,257 l-17,-17 17,-17 17,17 -17,17z" /><path style="fill:#fff" d="M229,210 l-17,-17 17,-17 17,17 -17,17z" /><path style="fill:#fff" d="M229,163 l-17,-16 17,-17 17,17 -17,16z" /><path style="fill:#fff" d="M229,116 l-17,-17 17,-17 17,17 -17,17z" /><path style="fill:#fff" d="M229,69 l-17,-17 17,-17 17,17 -17,17z" /><path style="fill:#fff" d="M181,281 l-17,-17 17,-17 17,17 -17,17z" /><path style="fill:#fff" d="M182,234 l-17,-17 17,-17 17,17 -17,17z" /><path style="fill:#fff" d="M181,187 l-17,-17 17,-17 17,17 -17,17z" /><path style="fill:#fff" d="M181,139 l-17,-16 17,-17 17,17 -17,16z" /><path style="fill:#fff" d="M182,92 l-17,-16 17,-17 17,17 -17,16z" /><path style="fill:#fff" d="M135,304 l-17,-17 17,-17 17,17 -17,17z" /><path style="fill:#fff" d="M135,257 l-17,-17 17,-17 17,17 -17,17z" /><path style="fill:#fff" d="M135,210 l-17,-17 17,-17 17,17 -17,17z" /><path style="fill:#fff" d="M135,163 l-17,-17 17,-17 17,17 -17,17z" /><path style="fill:#fff" d="M135,116 l-17,-17 17,-17 17,17 -17,17z" /><path style="fill:#fff" d="M135,69 l-17,-17 17,-17 17,17 -17,17z" /><path style="fill:#fff" d="M87,281 l-17,-17 17,-17 17,17 -17,17z" /><path style="fill:#fff" d="M88,234 l-17,-17 17,-17 16,17 -16,17z" /><path style="fill:#fff" d="M87,187 l-17,-17 17,-17 17,17 -17,17z" /><path style="fill:#fff" d="M87,139 l-17,-16 17,-17 17,17 -17,16z" /><path style="fill:#fff" d="M88,92 l-17,-16 17,-17 16,17 -16,16z" /><path style="fill:#fff" d="M41,304 l-17,-17 17,-17 17,17 -17,17z" /><path style="fill:#fff" d="M41,257 l-17,-17 17,-17 17,17 -17,17z" /><path style="fill:#fff" d="M41,210 l-17,-17 17,-17 17,17 -17,17z" /><path style="fill:#fff" d="M41,163 l-17,-17 17,-17 17,17 -17,17z" /><path style="fill:#fff" d="M41,116 l-17,-17 17,-17 17,17 -17,17z" /><path style="fill:#fff" d="M41,69 l-17,-17 17,-17 17,17 -17,17z" /><path style="fill:none;stroke:#4c4c4c;stroke-width:2" d="M5,617 l0,-612 282,0 0,24 260,0 0,24 258,0 0,23 188,0 0,611 -212,0 0,-23 -258,0 0,-24 -259,0 0,-23 -259,0" /><path style="fill:none;stroke:#009;stroke-width:2" d="M286,334 l0,-305" /></svg>