<!DOCTYPE svg PUBLIC "-//W3C//DTD SVG 20000303 Stylable//EN" "http://www.w3.org/TR/2000/03/WD-SVG-20000303/DTD/svg-20000303-stylable.dtd"[]><svg xmlns="http://www.w3.org/2000/svg" width="998px" height="725px" viewBox="0 0 999 708"><path style="fill:#fff;stroke:#00f;stroke-width:2" d="M900,0 l-832,129 -16,5 -14,8 -12,12 -9,14 -8,16 -5,17 -3,17 -1,18 2,17 4,18 8,18 10,17 11,15 12,14 12,10 12,8 23,11 24,10 26,9 25,9 24,10 22,13 19,14 16,20 17,33 16,35 14,36 15,37 20,35 24,32 33,28 42,23 568,-610 -53,-7 9,-7 6,-8 4,-9 1,-9 0,-9 -2,-9 -2,-7 -2,-6 -4,-6 -6,-6 -7,-5 -7,-4 -9,-3 -9,-3 -9,0 -9,0z" /><path style="fill:none;stroke:#00f;stroke-width:2" d="M115,196 l-17,2 -7,2 -6,4 -4,5 -3,6 -1,6 -1,6 0,5 0,4 0,4 1,6 1,6 3,7 3,5 4,5 5,3 5,2 5,-1 5,-2 3,-4 4,-4 2,-5 2,-7 1,-7 1,-8 -1,-7 0,-8 -1,-9 -1,-9 -3,-8 -4,-6 -6,-5 -7,-2 -8,1 -8,2 -6,4 -5,6 -4,8 -4,8 -2,12 -1,13 1,11 3,10 5,8 5,9 6,6 6,5 6,3 6,1 8,-1 7,-4 7,-6 5,-7 5,-9 3,-9 2,-9 1,-8 -1,-14 -1,-13 -3,-11 -3,-11 -5,-8 -6,-6 -9,-4 -10,-2 -11,2 -10,3 -8,5 -9,7 -6,10 -5,12 -3,14 -1,16 1,5 2,12 4,11 5,12 7,10 9,8 9,6 11,3 11,0 10,-3 9,-6 8,-8 8,-10 5,-12 4,-11 2,-12 0,-12 -1,-15 -3,-14 -5,-14 -6,-12 -9,-10 -10,-7 -11,-4 -16,0 -16,4 -14,7 -10,10 -8,12 -6,14 -3,14 -2,15 0,14 3,14 5,15 6,13 9,12 11,10 13,8 14,4 15,0 15,-4 13,-8 10,-10 8,-12 7,-13 4,-15 3,-14 0,-14 -2,-16 -3,-17 -6,-16 -3,-8 -5,-7 -4,-7 -6,-6 -6,-5 -7,-4 -8,-4 -9,-2 -9,-1 -12,1 -11,2 -10,4 -8,4 -8,6 -7,5 -6,7 -5,8 -4,8 -6,16 -4,16 -1,8 -1,15 1,11 2,12 5,12 5,12 7,11 9,12 9,10 10,10 12,8 12,7 13,5 13,4 15,1 15,0 14,-3 17,-6 772,-251" /><path style="fill:none;stroke:#00f;stroke-width:2" d="M957,81 l-821,261 -6,1 -7,0 -9,-2 -9,-2 -9,-3 -8,-4 -8,-4 -7,-5 7,3 8,2 8,2 9,1 8,1 9,0 7,0 7,-1 826,-258" /><path style="fill:none;stroke:#00f;stroke-width:2" d="M258,362 l486,-67" /><path style="fill:none;stroke:#00f;stroke-width:2" d="M325,449 l6,8 5,9 5,10 4,11 4,12 5,12 4,12 6,13 5,12 6,12 7,12 8,11 8,10 10,9 10,8 13,7 212,-221" /></svg>