<!DOCTYPE svg PUBLIC "-//W3C//DTD SVG 20000303 Stylable//EN" "http://www.w3.org/TR/2000/03/WD-SVG-20000303/DTD/svg-20000303-stylable.dtd"[]><svg xmlns="http://www.w3.org/2000/svg" width="998px" height="504px" viewBox="0 0 999 474"><path style="fill:#000;stroke:#ababab;stroke-width:2" d="M960,472 l-186,2 -33,-8 0,-57 -29,32 -115,-3 -107,-31 0,-43 31,-48 -70,40 -93,11 -28,-3 -51,23 -68,-14 -51,11 -109,-20 -51,-25 113,-62 461,-57 386,252z" /><path style="fill:#c24545;stroke:#4c4c4c;stroke-width:2" d="M30,117 l305,-117 116,16 0,78 113,-59 113,15 0,68 37,6 0,33 218,-44 67,47 0,125 -35,183 -174,-3 0,-81 51,-103 -10,4 -120,158 -164,-38 0,-78 32,-37 -14,-12 -114,84 -142,-30 0,-71 -83,78 -157,-17 0,-84 27,-19 -66,-12 0,-90z" /><path style="fill:none;stroke:#4c4c4c;stroke-width:2" d="M96,222 l71,10 0,-87" /><path style="fill:none;stroke:#4c4c4c;stroke-width:2" d="M29,121 l139,25 284,-130" /><path style="fill:none;stroke:#4c4c4c;stroke-width:2" d="M66,241 l157,15 0,83" /><path style="fill:none;stroke:#4c4c4c;stroke-width:2" d="M224,256 l56,-49" /><path style="fill:none;stroke:#4c4c4c;stroke-width:2" d="M167,232 l287,-141" /><path style="fill:none;stroke:#4c4c4c;stroke-width:2" d="M422,281 l-142,-25 0,-79 142,23 0,81" /><path style="fill:none;stroke:#4c4c4c;stroke-width:2" d="M422,201 l255,-149" /><path style="fill:none;stroke:#4c4c4c;stroke-width:2" d="M567,280 l-17,-19 0,-67 166,-37" /><path style="fill:none;stroke:#4c4c4c;stroke-width:2" d="M451,283 l98,-57" /><path style="fill:none;stroke:#4c4c4c;stroke-width:2" d="M714,125 l-85,52" /><path style="fill:none;stroke:#4c4c4c;stroke-width:2" d="M451,283 l0,79" /><path style="fill:none;stroke:#4c4c4c;stroke-width:2" d="M678,119 l-256,162" /><path style="fill:none;stroke:#4c4c4c;stroke-width:2" d="M549,194 l82,63 365,-94" /><path style="fill:none;stroke:#4c4c4c;stroke-width:2" d="M628,255 l0,79 -49,-41" /><path style="fill:none;stroke:#4c4c4c;stroke-width:2" d="M633,334 l366,-95" /><path style="fill:none;stroke:#4c4c4c;stroke-width:2" d="M547,330 l162,36 0,78" /><path style="fill:none;stroke:#4c4c4c;stroke-width:2" d="M706,366 l65,-68" /><path style="fill:none;stroke:#4c4c4c;stroke-width:2" d="M791,386 l168,3 0,79" /><path style="fill:none;stroke:#4c4c4c;stroke-width:2" d="M959,386 l37,-147" /><path style="fill:none;stroke:#4c4c4c;stroke-width:2" d="M451,284 l-29,-3" /></svg>