<!DOCTYPE svg PUBLIC "-//W3C//DTD SVG 20000303 Stylable//EN" "http://www.w3.org/TR/2000/03/WD-SVG-20000303/DTD/svg-20000303-stylable.dtd"[]><svg xmlns="http://www.w3.org/2000/svg" width="999px" height="321px" viewBox="0 0 999 281"><path style="fill:#666" d="M952,166 l10,0 0,84 -10,0 0,-84z" /><path style="fill:#666" d="M494,0 l10,0 0,250 -10,0 0,-250z" /><path style="fill:#666" d="M452,5 l11,0 0,245 -11,0 0,-245z" /><path style="fill:#666" d="M410,10 l11,0 0,240 -11,0 0,-240z" /><path style="fill:#666" d="M369,15 l10,0 0,235 -10,0 0,-235z" /><path style="fill:#666" d="M327,20 l11,0 0,230 -11,0 0,-230z" /><path style="fill:#666" d="M286,31 l10,0 0,219 -10,0 0,-219z" /><path style="fill:#666" d="M244,41 l10,0 0,209 -10,0 0,-209z" /><path style="fill:#666" d="M202,51 l11,0 0,199 -11,0 0,-199z" /><path style="fill:#666" d="M161,72 l10,0 0,178 -10,0 0,-178z" /><path style="fill:#666" d="M119,93 l11,0 0,157 -11,0 0,-157z" /><path style="fill:#666" d="M77,124 l11,0 0,126 -11,0 0,-126z" /><path style="fill:#666" d="M36,166 l10,0 0,84 -10,0 0,-84z" /><path style="fill:#666" d="M535,5 l11,0 0,245 -11,0 0,-245z" /><path style="fill:#666" d="M577,10 l10,0 0,240 -10,0 0,-240z" /><path style="fill:#666" d="M619,15 l10,0 0,235 -10,0 0,-235z" /><path style="fill:#666" d="M660,20 l11,0 0,230 -11,0 0,-230z" /><path style="fill:#666" d="M702,31 l10,0 0,219 -10,0 0,-219z" /><path style="fill:#666" d="M743,41 l11,0 0,209 -11,0 0,-209z" /><path style="fill:#666" d="M785,51 l11,0 0,199 -11,0 0,-199z" /><path style="fill:#666" d="M827,72 l10,0 0,178 -10,0 0,-178z" /><path style="fill:#666" d="M868,93 l11,0 0,157 -11,0 0,-157z" /><path style="fill:#666" d="M910,124 l10,0 0,126 -10,0 0,-126z" /><path style="fill:#f2f2f2" d="M38,166 l6,0 0,84 -6,0 0,-84z" /><path style="fill:#f2f2f2" d="M80,124 l5,0 0,126 -5,0 0,-126z" /><path style="fill:#f2f2f2" d="M122,93 l5,0 0,157 -5,0 0,-157z" /><path style="fill:#f2f2f2" d="M163,72 l6,0 0,178 -6,0 0,-178z" /><path style="fill:#f2f2f2" d="M205,51 l5,0 0,199 -5,0 0,-199z" /><path style="fill:#f2f2f2" d="M246,41 l6,0 0,209 -6,0 0,-209z" /><path style="fill:#f2f2f2" d="M288,31 l6,0 0,219 -6,0 0,-219z" /><path style="fill:#f2f2f2" d="M330,20 l5,0 0,230 -5,0 0,-230z" /><path style="fill:#f2f2f2" d="M371,15 l6,0 0,235 -6,0 0,-235z" /><path style="fill:#f2f2f2" d="M413,10 l5,0 0,240 -5,0 0,-240z" /><path style="fill:#f2f2f2" d="M455,5 l5,0 0,245 -5,0 0,-245z" /><path style="fill:#f2f2f2" d="M496,0 l6,0 0,250 -6,0 0,-250z" /><path style="fill:#f2f2f2" d="M538,5 l5,0 0,245 -5,0 0,-245z" /><path style="fill:#f2f2f2" d="M579,10 l6,0 0,240 -6,0 0,-240z" /><path style="fill:#f2f2f2" d="M621,15 l6,0 0,235 -6,0 0,-235z" /><path style="fill:#f2f2f2" d="M663,20 l5,0 0,230 -5,0 0,-230z" /><path style="fill:#f2f2f2" d="M704,31 l6,0 0,219 -6,0 0,-219z" /><path style="fill:#f2f2f2" d="M746,41 l5,0 0,209 -5,0 0,-209z" /><path style="fill:#f2f2f2" d="M788,51 l5,0 0,199 -5,0 0,-199z" /><path style="fill:#f2f2f2" d="M829,72 l6,0 0,178 -6,0 0,-178z" /><path style="fill:#f2f2f2" d="M871,93 l5,0 0,157 -5,0 0,-157z" /><path style="fill:#f2f2f2" d="M912,124 l6,0 0,126 -6,0 0,-126z" /><path style="fill:#f2f2f2" d="M954,166 l6,0 0,84 -6,0 0,-84z" /><path style="fill:#000" d="M0,274 l0,7 999,0 0,-7 -999,0z" /><path style="fill:#e5e5e5;stroke:#4c4c4c;stroke-width:2" d="M0,250 l32,0 33,0 33,0 32,0 31,0 32,0 31,0 31,0 31,0 31,0 30,0 31,0 30,0 30,0 31,0 30,0 30,0 31,0 30,0 30,0 31,0 30,0 31,0 31,0 31,0 31,0 32,0 31,0 32,0 33,0 33,0 33,0 0,24 -33,0 -33,0 -32,0 -32,0 -32,0 -31,0 -31,0 -31,0 -31,0 -31,0 -31,0 -30,0 -31,0 -30,0 -31,0 -30,0 -30,0 -31,0 -30,0 -31,0 -30,0 -31,0 -31,0 -31,0 -31,0 -31,0 -31,0 -32,0 -32,0 -32,0 -33,0 -32,0 0,-24z" /><path style="fill:#666" d="M0,259 l999,0 0,5 -999,0 0,-5z" /><path style="fill:#fff" d="M0,264 l999,0 0,4 -999,0 0,-4z" /><path style="fill:#ccc;stroke:#4c4c4c;stroke-width:2" d="M978,250 l21,0 -10,-49 -29,-47 -45,-44 -63,-37 -76,-31 -86,-24 -95,-14 -96,-4 -98,4 -93,14 -87,24 -76,30 -63,39 -45,43 -29,47 -8,49 20,0 8,-47 28,-45 44,-42 60,-36 72,-30 84,-22 89,-14 94,-4 94,4 89,14 84,22 72,30 60,36 44,42 28,45 8,47z" /></svg>