<!DOCTYPE svg PUBLIC "-//W3C//DTD SVG 20000303 Stylable//EN" "http://www.w3.org/TR/2000/03/WD-SVG-20000303/DTD/svg-20000303-stylable.dtd"[]><svg xmlns="http://www.w3.org/2000/svg" width="999px" height="743px" viewBox="0 0 999 731"><path style="fill:#ccc;stroke:#4c4c4c;stroke-width:2" d="M4,726 l0,-247 907,0 0,247 -907,0z" /><path style="fill:#e5e5e5;stroke:#4c4c4c;stroke-width:2" d="M4,479 l83,-41 907,0 -83,41 -907,0z" /><path style="fill:#b2b2b2;stroke:#4c4c4c;stroke-width:2" d="M911,479 l0,247 83,-41 0,-247 -83,41z" /><path style="fill:#990" d="M463,459 l0,-392 62,0 0,392 -62,0z" /><path style="fill:#baba3a" d="M472,458 l0,-391 44,0 0,391 -44,0z" /><path style="fill:#dede5e" d="M480,458 l0,-391 27,0 0,391 -27,0z" /><path style="fill:#ff0" d="M489,459 l0,-392 9,0 0,392 -9,0z" /><path style="fill:none;stroke:#330;stroke-width:2" d="M463,459 l0,-392 62,0 0,392 -62,0" /><path style="fill:#990;stroke:#330;stroke-width:2" d="M952,67 l-906,0 0,-62 906,0 0,62z" /><ellipse style="fill:#990" cx="45" cy="36" rx="10" ry="31" /><path style="fill:#baba3a" d="M952,58 l-913,0 0,-44 913,0 0,44z" /><path style="fill:#dede5e" d="M952,50 l-915,0 0,-27 915,0 0,27z" /><path style="fill:#ff0" d="M952,41 l-916,0 0,-10 916,0 0,10z" /><ellipse style="fill:#99997a;stroke:#4c4c4c;stroke-width:2" cx="952" cy="36" rx="10" ry="31" /></svg>