<!DOCTYPE svg PUBLIC "-//W3C//DTD SVG 20000303 Stylable//EN" "http://www.w3.org/TR/2000/03/WD-SVG-20000303/DTD/svg-20000303-stylable.dtd"[]><svg xmlns="http://www.w3.org/2000/svg" width="252px" height="999px" viewBox="0 0 208 998"><path style="fill:#bf8c00" d="M207,41 l0,957 -207,0 0,-957 0,-4 1,-4 3,-4 4,-4 4,-4 5,-3 6,-3 7,-3 7,-3 8,-2 9,-3 9,-1 10,-2 9,-1 11,0 10,0 11,0 10,0 10,1 10,2 9,1 9,3 8,2 7,3 7,3 6,3 5,3 4,4 4,4 2,4 2,4 0,4z" /><path style="fill:#a67300" d="M0,41 l208,0 0,957 -208,0 0,-957z" /><path style="fill:#bd8a00" d="M21,41 l166,0 0,957 -166,0 0,-957z" /><path style="fill:#d19e00" d="M41,41 l125,0 0,957 -125,0 0,-957z" /><path style="fill:#e8b500" d="M62,41 l83,0 0,957 -83,0 0,-957z" /><path style="fill:#fc0" d="M83,41 l41,0 0,957 -41,0 0,-957z" /><path style="fill:none;stroke:#4c4c4c;stroke-width:2" d="M208,41 l0,957 -208,0 0,-957 0,-4 1,-4 3,-4 4,-4 4,-4 5,-3 6,-3 7,-3 7,-3 8,-2 9,-2 9,-2 9,-1 10,-1 11,-1 10,0 11,0 10,1 10,1 10,1 9,2 9,2 8,2 7,3 7,3 6,3 5,3 4,4 4,4 3,4 1,4 1,4" /></svg>