<!DOCTYPE svg PUBLIC "-//W3C//DTD SVG 20000303 Stylable//EN" "http://www.w3.org/TR/2000/03/WD-SVG-20000303/DTD/svg-20000303-stylable.dtd"[]><svg xmlns="http://www.w3.org/2000/svg" width="174px" height="999px" viewBox="0 0 133 999"><path style="fill:#666;stroke:#4c4c4c;stroke-width:2" d="M56,994 l0,-855 20,0 0,855 -20,0z" /><path style="fill:#b2b2b2" d="M60,994 l0,-855 12,0 0,855 -12,0z" /><path style="fill:#fff" d="M63,994 l0,-855 5,0 0,855 -5,0z" /><path style="fill:#666;stroke:#4c4c4c;stroke-width:2" d="M56,126 l0,13 20,0 0,-13 -20,0z" /><path style="fill:#999;stroke:#4c4c4c;stroke-width:2" d="M56,128 l52,-2 15,-85 5,0 -57,-31 0,-6 -10,0 0,6 -57,31 47,0 5,87z" /><path style="fill:#b2b2b2;stroke:#4c4c4c;stroke-width:2" d="M56,128 l-5,-90 -41,3 15,82 31,5z" /><path style="fill:none;stroke:#4c4c4c;stroke-width:2" d="M51,38 l72,3" /><path style="fill:#ccc;stroke:#4c4c4c;stroke-width:2" d="M59,61 l1,-6 6,-6 9,-3 11,-1 10,1 9,3 6,6 2,6 -11,60 -41,2 -2,-62z" /><path style="fill:#ccc;stroke:#4c4c4c;stroke-width:2" d="M17,58 l1,-5 3,-4 5,-2 6,-1 6,1 5,2 3,4 1,5 4,65 -21,-2 -13,-63z" /><path style="fill:#e5e5e5" d="M65,84 l4,-10 11,-5 10,5 5,10 -5,11 -10,4 -11,-4 -4,-11z" /><path style="fill:#e5e5e5" d="M27,84 l3,-7 6,-2 7,2 3,7 -3,7 -7,3 -6,-3 -3,-7z" /><path style="fill:#fff" d="M69,85 l3,-6 5,-2 6,2 2,6 -2,5 -6,3 -5,-3 -3,-5z" /><path style="fill:#fff" d="M33,85 l1,-4 4,-1 3,1 2,4 -2,3 -3,2 -4,-2 -1,-3z" /><path style="fill:none;stroke:#4c4c4c;stroke-width:2" d="M61,10 l10,0" /></svg>