<!DOCTYPE svg PUBLIC "-//W3C//DTD SVG 20000303 Stylable//EN" "http://www.w3.org/TR/2000/03/WD-SVG-20000303/DTD/svg-20000303-stylable.dtd"[]><svg xmlns="http://www.w3.org/2000/svg" width="999px" height="999px" viewBox="0 0 999 999"><path style="fill:#333;stroke:#4c4c4c;stroke-width:2" d="M0,0 l999,0 0,999 -999,0 0,-999z" /><path style="fill:#000;stroke:#4c4c4c;stroke-width:2" d="M41,41 l958,0 0,958 -958,0 0,-958z" /><path style="fill:#7f3f00;stroke:#4c4c4c;stroke-width:2" d="M520,41 l479,0 0,958 -479,0 0,-958z" /><path style="fill:#7f3f00;stroke:#4c4c4c;stroke-width:2" d="M61,41 l250,0 0,833 -249,125 -1,-958z" /><path style="fill:#b2b2b2;stroke:#4c4c4c;stroke-width:2" d="M519,540 l440,0 0,43 -440,0 0,-43z" /><path style="fill:#b2b2b2;stroke:#4c4c4c;stroke-width:2" d="M114,524 l219,-52 0,37 -219,58 0,-43z" /><path style="fill:#f2f2f2;stroke:#4c4c4c;stroke-width:2" d="M520,541 l21,-21 437,0 -21,21 -437,0z" /><path style="fill:#f2f2f2;stroke:#4c4c4c;stroke-width:2" d="M114,525 l-42,-10 224,-47 37,5 -219,52z" /><path style="fill:#8c8c8c;stroke:#4c4c4c;stroke-width:2" d="M959,583 l18,-21 0,-43 -18,21 0,43z" /><path style="fill:#8c8c8c;stroke:#4c4c4c;stroke-width:2" d="M72,557 l42,11 0,-43 -42,-10 0,42z" /><path style="fill:#b28c65;stroke:#4c4c4c;stroke-width:2" d="M41,41 l21,0 0,958 -21,0 0,-958z" /></svg>