<!DOCTYPE svg PUBLIC "-//W3C//DTD SVG 20000303 Stylable//EN" "http://www.w3.org/TR/2000/03/WD-SVG-20000303/DTD/svg-20000303-stylable.dtd"[]><svg xmlns="http://www.w3.org/2000/svg" width="999px" height="999px" viewBox="0 0 999 999"><path style="fill:#333;stroke:#4c4c4c;stroke-width:2" d="M0,0 l999,0 0,999 -999,0 0,-999z" /><path style="fill:#7f3f00;stroke:#4c4c4c;stroke-width:2" d="M520,41 l479,0 0,958 -479,0 0,-958z" /><path style="fill:#7f3f00;stroke:#4c4c4c;stroke-width:2" d="M41,41 l479,0 0,958 -479,0 0,-958z" /><path style="fill:#b2b2b2;stroke:#4c4c4c;stroke-width:2" d="M520,541 l437,0 0,41 -437,0 0,-41z" /><path style="fill:#b2b2b2;stroke:#4c4c4c;stroke-width:2" d="M41,541 l437,0 0,41 -437,0 0,-41z" /><path style="fill:#f2f2f2;stroke:#4c4c4c;stroke-width:2" d="M520,541 l21,-21 437,0 -21,21 -437,0z" /><path style="fill:#f2f2f2;stroke:#4c4c4c;stroke-width:2" d="M41,541 l21,-21 437,0 -21,21 -437,0z" /><path style="fill:#8c8c8c;stroke:#4c4c4c;stroke-width:2" d="M957,582 l21,-20 0,-42 -21,21 0,41z" /><path style="fill:#8c8c8c;stroke:#4c4c4c;stroke-width:2" d="M478,582 l21,-20 0,-42 -21,21 0,41z" /></svg>