<!DOCTYPE svg PUBLIC "-//W3C//DTD SVG 20000303 Stylable//EN" "http://www.w3.org/TR/2000/03/WD-SVG-20000303/DTD/svg-20000303-stylable.dtd"[]><svg xmlns="http://www.w3.org/2000/svg" width="999px" height="678px" viewBox="0 0 999 659"><path style="fill:#f2f2f2;stroke:#4c4c4c;stroke-width:2" d="M0,20 l959,0 0,639 -959,0 0,-639z" /><path style="fill:#f00;stroke:#4c4c4c;stroke-width:2" d="M39,60 l880,0 0,559 -880,0 0,-559z" /><path style="fill:#fff" d="M79,579 l0,-479 211,0 0,59 -150,0 0,140 139,0 0,60 -139,0 0,160 150,0 0,60 -211,0z" /><path style="fill:#fff" d="M306,579 l80,-250 -80,-229 70,0 50,139 51,-139 70,0 -80,229 80,250 -70,0 -51,-160 -50,160 -70,0z" /><path style="fill:#fff" d="M562,100 l0,479 60,0 0,-479 -60,0z" /><path style="fill:#fff" d="M728,159 l0,420 60,0 0,-420 91,0 0,-59 -242,0 0,59 91,0z" /><path style="fill:#fff;stroke:#4c4c4c;stroke-width:2" d="M0,20 l39,-20 960,0 -40,20 -959,0z" /><path style="fill:#ccc;stroke:#4c4c4c;stroke-width:2" d="M959,659 l40,-20 0,-639 -40,20 0,639z" /></svg>