<!DOCTYPE svg PUBLIC "-//W3C//DTD SVG 20000303 Stylable//EN" "http://www.w3.org/TR/2000/03/WD-SVG-20000303/DTD/svg-20000303-stylable.dtd"[]><svg xmlns="http://www.w3.org/2000/svg" width="999px" height="678px" viewBox="0 0 998 659"><path style="fill:#e5e5e5;stroke:#4c4c4c;stroke-width:2" d="M0,82 l998,0 0,20 -998,0 0,-20z" /><path style="fill:#e5e5e5;stroke:#4c4c4c;stroke-width:2" d="M0,576 l998,0 0,21 -998,0 0,-21z" /><path style="fill:#d9d9d9;stroke:#4c4c4c;stroke-width:2" d="M41,0 l41,0 0,659 -41,0 0,-659z" /><path style="fill:#d9d9d9;stroke:#4c4c4c;stroke-width:2" d="M916,0 l41,0 0,659 -41,0 0,-659z" /><path style="fill:#f2f2f2;stroke:#7f7f7f;stroke-width:2" d="M103,41 l10,0 0,597 -10,0 0,-597z" /><path style="fill:#f2f2f2;stroke:#7f7f7f;stroke-width:2" d="M144,41 l10,0 0,597 -10,0 0,-597z" /><path style="fill:#f2f2f2;stroke:#7f7f7f;stroke-width:2" d="M185,41 l10,0 0,597 -10,0 0,-597z" /><path style="fill:#f2f2f2;stroke:#7f7f7f;stroke-width:2" d="M226,41 l10,0 0,597 -10,0 0,-597z" /><path style="fill:#f2f2f2;stroke:#7f7f7f;stroke-width:2" d="M267,41 l11,0 0,597 -11,0 0,-597z" /><path style="fill:#f2f2f2;stroke:#7f7f7f;stroke-width:2" d="M309,41 l10,0 0,597 -10,0 0,-597z" /><path style="fill:#f2f2f2;stroke:#7f7f7f;stroke-width:2" d="M350,41 l10,0 0,597 -10,0 0,-597z" /><path style="fill:#f2f2f2;stroke:#7f7f7f;stroke-width:2" d="M391,41 l10,0 0,597 -10,0 0,-597z" /><path style="fill:#f2f2f2;stroke:#7f7f7f;stroke-width:2" d="M432,41 l10,0 0,597 -10,0 0,-597z" /><path style="fill:#f2f2f2;stroke:#7f7f7f;stroke-width:2" d="M473,41 l11,0 0,597 -11,0 0,-597z" /><path style="fill:#f2f2f2;stroke:#7f7f7f;stroke-width:2" d="M515,41 l10,0 0,597 -10,0 0,-597z" /><path style="fill:#f2f2f2;stroke:#7f7f7f;stroke-width:2" d="M556,41 l10,0 0,597 -10,0 0,-597z" /><path style="fill:#f2f2f2;stroke:#7f7f7f;stroke-width:2" d="M597,41 l10,0 0,597 -10,0 0,-597z" /><path style="fill:#f2f2f2;stroke:#7f7f7f;stroke-width:2" d="M638,41 l10,0 0,597 -10,0 0,-597z" /><path style="fill:#f2f2f2;stroke:#7f7f7f;stroke-width:2" d="M679,41 l11,0 0,597 -11,0 0,-597z" /><path style="fill:#f2f2f2;stroke:#7f7f7f;stroke-width:2" d="M721,41 l10,0 0,597 -10,0 0,-597z" /><path style="fill:#f2f2f2;stroke:#7f7f7f;stroke-width:2" d="M762,41 l10,0 0,597 -10,0 0,-597z" /><path style="fill:#f2f2f2;stroke:#7f7f7f;stroke-width:2" d="M803,41 l10,0 0,597 -10,0 0,-597z" /><path style="fill:#f2f2f2;stroke:#7f7f7f;stroke-width:2" d="M844,41 l10,0 0,597 -10,0 0,-597z" /><path style="fill:#f2f2f2;stroke:#7f7f7f;stroke-width:2" d="M885,41 l11,0 0,597 -11,0 0,-597z" /></svg>