<!DOCTYPE svg PUBLIC "-//W3C//DTD SVG 20000303 Stylable//EN" "http://www.w3.org/TR/2000/03/WD-SVG-20000303/DTD/svg-20000303-stylable.dtd"[]><svg xmlns="http://www.w3.org/2000/svg" width="645px" height="999px" viewBox="0 0 624 999"><path style="fill:#900" d="M291,46 l0,-46 42,0 0,46 -42,0z" /><path style="fill:#f00" d="M307,46 l0,-46 10,0 0,46 -10,0z" /><path style="fill:#7f0000" d="M478,249 l0,-41 -12,-63 -36,-56 -56,-36 -62,-12 -63,12 -56,36 -36,56 -12,63 0,41 -62,0 0,42 62,0 0,666 -62,0 0,42 458,0 0,-42 -63,0 0,-666 63,0 0,-42 -63,0z" /><path style="fill:#8f0000" d="M459,249 l0,-42 -10,-62 -32,-57 -50,-36 -55,-11 -55,11 -50,36 -32,57 -10,62 0,42 -55,0 0,42 55,0 0,666 -55,0 0,41 404,0 0,-41 -55,0 0,-666 55,0 0,-42 -55,0z" /><path style="fill:#9c0000" d="M439,249 l0,-42 -9,-62 -27,-57 -43,-36 -48,-11 -48,11 -43,36 -27,57 -10,62 0,42 -47,0 0,42 47,0 0,666 -47,0 0,41 350,0 0,-41 -48,0 0,-666 48,0 0,-42 -48,0z" /><path style="fill:#ab0000" d="M420,249 l0,-42 -8,-62 -23,-57 -37,-36 -40,-11 -40,11 -37,36 -23,57 -8,62 0,42 -40,0 0,42 40,0 0,666 -40,0 0,41 297,0 0,-41 -41,0 0,-666 41,0 0,-42 -41,0z" /><path style="fill:#ba0000" d="M400,249 l0,-42 -6,-62 -19,-57 -30,-36 -33,-11 -33,11 -30,36 -19,57 -6,62 0,42 -34,0 0,42 34,0 0,666 -34,0 0,41 244,0 0,-41 -34,0 0,-666 34,0 0,-42 -34,0z" /><path style="fill:#c90000" d="M381,249 l0,-42 -5,-62 -15,-57 -23,-36 -26,-11 -26,11 -23,36 -15,57 -5,62 0,42 -26,0 0,42 26,0 0,666 -26,0 0,41 190,0 0,-41 -26,0 0,-666 26,0 0,-42 -26,0z" /><path style="fill:#d60000" d="M361,249 l0,-42 -3,-62 -11,-57 -16,-36 -19,-11 -18,11 -17,36 -11,57 -3,62 0,42 -19,0 0,42 19,0 0,666 -19,0 0,41 136,0 0,-41 -19,0 0,-666 19,0 0,-42 -19,0z" /><path style="fill:#e50000" d="M342,249 l0,-41 -2,-63 -7,-56 -10,-36 -11,-12 -11,12 -10,36 -7,56 -2,63 0,41 -11,0 0,42 11,0 0,666 -11,0 0,42 82,0 0,-42 -11,0 0,-666 11,0 0,-42 -11,0z" /><path style="fill:none;stroke:#4c4c4c;stroke-width:2" d="M145,249 l333,0" /><path style="fill:none;stroke:#4c4c4c;stroke-width:2" d="M478,291 l-333,0" /><path style="fill:none;stroke:#4c4c4c;stroke-width:2" d="M478,957 l-333,0" /><path style="fill:none;stroke:#4c4c4c;stroke-width:2" d="M333,46 l41,7 56,36 36,56 12,63 0,41 63,0 0,42 -63,0 0,666 63,0 0,42 -458,0 0,-42 62,0 0,-666 -62,0 0,-42 62,0 0,-41 12,-63 36,-56 56,-36 42,-7 0,-46 42,0 0,46" /><path style="fill:none;stroke:#4c4c4c;stroke-width:2" d="M478,395 l84,0 0,41 62,0 0,125 -62,0 0,42 -84,0" /><path style="fill:none;stroke:#4c4c4c;stroke-width:2" d="M145,395 l-83,0 0,41 -62,0 0,125 62,0 0,42 83,0" /><circle style="fill:#bf0000" cx="311" cy="499" r="124" /><path style="fill:none;stroke:#7f0000;stroke-width:2" d="M401,410 l26,42 9,47 -9,47 -26,42 -43,27 -46,9 -47,-9 -43,-27" /><path style="fill:none;stroke:#7f0000;stroke-width:2" d="M356,454 l13,21 5,24 -5,24 -13,21 -21,13 -23,5 -24,-5 -21,-13" /><path style="fill:none;stroke:#f00;stroke-width:2" d="M222,588 l-26,-42 -9,-47 9,-47 26,-42 43,-27 47,-9 46,9 43,27" /><path style="fill:none;stroke:#f00;stroke-width:2" d="M267,544 l-13,-21 -5,-24 5,-24 13,-21 21,-13 24,-5 23,5 21,13" /><path style="fill:#7f0000;stroke:#4c4c4c;stroke-width:2" d="M478,603 l-15,-29 -6,-75 6,-75 15,-29 84,0 0,41 62,0 0,125 -62,0 0,42 -84,0z" /><path style="fill:#7f0000;stroke:#4c4c4c;stroke-width:2" d="M145,603 l15,-29 6,-75 -6,-75 -15,-29 -83,0 0,41 -62,0 0,125 62,0 0,42 83,0z" /><path style="fill:#910000" d="M478,582 l-35,-23 -6,-60 6,-60 35,-24 83,0 0,33 63,0 0,101 -63,0 0,33 -83,0z" /><path style="fill:#910000" d="M145,582 l36,-23 6,-60 -6,-60 -36,-24 -83,0 0,33 -62,0 0,101 62,0 0,33 83,0z" /><path style="fill:#a60000" d="M478,561 l0,-125 83,0 0,25 63,0 0,75 -63,0 0,25 -83,0z" /><path style="fill:#a60000" d="M145,561 l0,-125 -83,0 0,25 -62,0 0,75 62,0 0,25 83,0z" /><path style="fill:#b80000" d="M478,540 l0,-83 83,0 0,16 63,0 0,51 -63,0 0,16 -83,0z" /><path style="fill:#b80000" d="M145,540 l0,-83 -83,0 0,16 -62,0 0,51 62,0 0,16 83,0z" /><path style="fill:#c00" d="M478,520 l0,-42 84,0 0,8 62,0 0,25 -62,0 0,9 -84,0z" /><path style="fill:#c00" d="M145,520 l0,-42 -83,0 0,8 -62,0 0,25 62,0 0,9 83,0z" /><path style="fill:none;stroke:#4c4c4c;stroke-width:2" d="M561,561 l0,-125" /><path style="fill:none;stroke:#4c4c4c;stroke-width:2" d="M62,561 l0,-125" /></svg>