<!DOCTYPE svg PUBLIC "-//W3C//DTD SVG 20000303 Stylable//EN" "http://www.w3.org/TR/2000/03/WD-SVG-20000303/DTD/svg-20000303-stylable.dtd"[]><svg xmlns="http://www.w3.org/2000/svg" width="364px" height="998px" viewBox="0 0 328 999"><path style="fill:#000" d="M15,1 l5,1 4,3 3,5 1,5 -1,5 -3,4 -4,3 -5,1 -5,-1 -5,-3 -3,-4 -1,-5 1,-5 3,-5 5,-3 5,-1 0,4 -4,0 -4,2 -2,4 -1,4 1,4 2,3 4,2 4,1 3,-1 4,-2 2,-3 1,-4 -1,-4 -2,-4 -4,-2 -3,0 0,-4z" /><path style="fill:#fff" d="M42,198 l0,-176 81,0 0,6 75,0 0,7 74,0 0,7 54,0 0,176 -61,0 7,-7 -81,0 7,-7 -82,0 7,-6 -81,0z" /><path style="fill:#f00" d="M272,42 l54,0 0,13 -54,0 0,-13z" /><path style="fill:#f00" d="M272,69 l54,0 0,13 -54,0 0,-13z" /><path style="fill:#f00" d="M272,96 l54,0 0,14 -54,0 0,-14z" /><path style="fill:#f00" d="M272,123 l54,0 0,14 -54,0 0,-14z" /><path style="fill:#f00" d="M272,150 l54,0 0,14 -54,0 0,-14z" /><path style="fill:#f00" d="M272,177 l54,0 0,14 -54,0 0,-14z" /><path style="fill:#f00" d="M272,204 l54,0 0,14 -61,0 7,-7 0,-7z" /><path style="fill:#f00" d="M198,35 l74,0 0,14 -74,0 0,-14z" /><path style="fill:#f00" d="M198,62 l74,0 0,14 -74,0 0,-14z" /><path style="fill:#f00" d="M198,89 l74,0 0,14 -74,0 0,-14z" /><path style="fill:#f00" d="M198,116 l74,0 0,14 -74,0 0,-14z" /><path style="fill:#f00" d="M198,143 l74,0 0,14 -74,0 0,-14z" /><path style="fill:#f00" d="M198,171 l74,0 0,13 -74,0 0,-13z" /><path style="fill:#f00" d="M198,198 l74,0 0,13 -81,0 7,-7 0,-6z" /><path style="fill:#f00" d="M171,28 l27,0 0,14 -27,0 0,-14z" /><path style="fill:#f00" d="M171,55 l27,0 0,14 -27,0 0,-14z" /><path style="fill:#f00" d="M171,82 l27,0 0,14 -27,0 0,-14z" /><path style="fill:#f00" d="M171,110 l27,0 0,13 -27,0 0,-13z" /><path style="fill:#f00" d="M123,137 l75,0 0,13 -75,0 0,-13z" /><path style="fill:#f00" d="M123,164 l75,0 0,13 -75,0 0,-13z" /><path style="fill:#f00" d="M123,191 l75,0 0,13 -82,0 7,-6 0,-7z" /><path style="fill:#f00" d="M42,130 l81,0 0,13 -81,0 0,-13z" /><path style="fill:#f00" d="M42,157 l81,0 0,14 -81,0 0,-14z" /><path style="fill:#f00" d="M42,184 l81,0 0,14 -81,0 0,-14z" /><path style="fill:#007fff" d="M123,28 l48,0 0,95 -48,0 0,-95z" /><path style="fill:#007fff" d="M42,22 l81,0 0,94 -81,0 0,-94z" /><path style="fill:#7f0000" d="M116,204 l7,-6 -7,0 0,6z" /><path style="fill:#7f0000" d="M191,211 l7,-7 -7,0 0,7z" /><path style="fill:#7f0000" d="M265,218 l7,-7 -7,0 0,7z" /><path style="fill:none;stroke:#7f7f7f;stroke-width:2" d="M272,211 l0,-169" /><path style="fill:none;stroke:#7f7f7f;stroke-width:2" d="M198,204 l0,-169" /><path style="fill:none;stroke:#7f7f7f;stroke-width:2" d="M123,198 l0,-82" /><path style="fill:#fff" d="M160,114 l-5,-4 5,-5 5,5 -5,4z" /><path style="fill:#fff" d="M160,101 l-5,-5 5,-5 5,5 -5,5z" /><path style="fill:#fff" d="M160,87 l-5,-4 5,-5 5,5 -5,4z" /><path style="fill:#fff" d="M160,74 l-5,-5 5,-5 5,5 -5,5z" /><path style="fill:#fff" d="M160,60 l-5,-5 5,-4 5,4 -5,5z" /><path style="fill:#fff" d="M160,47 l-5,-5 5,-5 5,5 -5,5z" /><path style="fill:#fff" d="M147,108 l-5,-5 5,-5 5,5 -5,5z" /><path style="fill:#fff" d="M147,94 l-5,-5 5,-5 5,5 -5,5z" /><path style="fill:#fff" d="M147,81 l-5,-5 5,-5 5,5 -5,5z" /><path style="fill:#fff" d="M147,67 l-5,-5 5,-5 5,5 -5,5z" /><path style="fill:#fff" d="M147,53 l-5,-4 5,-5 5,5 -5,4z" /><path style="fill:#fff" d="M133,114 l-5,-4 5,-5 5,5 -5,4z" /><path style="fill:#fff" d="M133,101 l-4,-5 4,-5 5,5 -5,5z" /><path style="fill:#fff" d="M133,87 l-5,-4 5,-5 5,5 -5,4z" /><path style="fill:#fff" d="M133,74 l-5,-5 5,-5 5,5 -5,5z" /><path style="fill:#fff" d="M133,60 l-4,-5 4,-4 5,4 -5,5z" /><path style="fill:#fff" d="M133,47 l-4,-5 4,-5 5,5 -5,5z" /><path style="fill:#fff" d="M120,101 l-5,-5 5,-5 4,5 -4,5z" /><path style="fill:#fff" d="M120,87 l-5,-4 5,-5 5,5 -5,4z" /><path style="fill:#fff" d="M120,74 l-5,-5 5,-5 4,5 -4,5z" /><path style="fill:#fff" d="M120,60 l-5,-5 5,-4 4,4 -4,5z" /><path style="fill:#fff" d="M120,47 l-5,-5 5,-5 5,5 -5,5z" /><path style="fill:#fff" d="M106,108 l-5,-5 5,-5 5,5 -5,5z" /><path style="fill:#fff" d="M106,94 l-5,-5 5,-5 5,5 -5,5z" /><path style="fill:#fff" d="M106,80 l-5,-4 5,-5 5,5 -5,4z" /><path style="fill:#fff" d="M106,67 l-5,-5 5,-5 5,5 -5,5z" /><path style="fill:#fff" d="M106,53 l-5,-4 5,-5 5,5 -5,4z" /><path style="fill:#fff" d="M106,40 l-5,-5 5,-5 5,5 -5,5z" /><path style="fill:#fff" d="M92,101 l-4,-5 4,-5 5,5 -5,5z" /><path style="fill:#fff" d="M93,87 l-5,-4 5,-5 4,5 -4,4z" /><path style="fill:#fff" d="M92,74 l-4,-5 4,-5 5,5 -5,5z" /><path style="fill:#fff" d="M92,60 l-4,-5 4,-4 5,4 -5,5z" /><path style="fill:#fff" d="M93,47 l-5,-5 5,-5 4,5 -4,5z" /><path style="fill:#fff" d="M79,108 l-5,-5 5,-5 5,5 -5,5z" /><path style="fill:#fff" d="M79,94 l-5,-5 5,-5 5,5 -5,5z" /><path style="fill:#fff" d="M79,80 l-5,-4 5,-5 5,5 -5,4z" /><path style="fill:#fff" d="M79,67 l-5,-5 5,-5 5,5 -5,5z" /><path style="fill:#fff" d="M79,53 l-5,-4 5,-5 5,5 -5,4z" /><path style="fill:#fff" d="M79,40 l-5,-5 5,-5 5,5 -5,5z" /><path style="fill:#fff" d="M65,101 l-4,-5 4,-5 5,5 -5,5z" /><path style="fill:#fff" d="M66,87 l-5,-4 5,-5 4,5 -4,4z" /><path style="fill:#fff" d="M65,74 l-4,-5 4,-5 5,5 -5,5z" /><path style="fill:#fff" d="M65,60 l-4,-5 4,-4 5,4 -5,5z" /><path style="fill:#fff" d="M66,47 l-5,-5 5,-5 4,5 -4,5z" /><path style="fill:#fff" d="M52,108 l-5,-5 5,-5 5,5 -5,5z" /><path style="fill:#fff" d="M52,94 l-5,-5 5,-5 5,5 -5,5z" /><path style="fill:#fff" d="M52,80 l-5,-4 5,-5 5,5 -5,4z" /><path style="fill:#fff" d="M52,67 l-5,-5 5,-5 5,5 -5,5z" /><path style="fill:#fff" d="M52,53 l-5,-4 5,-5 5,5 -5,4z" /><path style="fill:#fff" d="M52,40 l-5,-5 5,-5 5,5 -5,5z" /><path style="fill:none;stroke:#4c4c4c;stroke-width:2" d="M42,198 l0,-176 81,0 0,6 75,0 0,7 74,0 0,7 54,0 0,176 -61,0 0,-7 -74,0 0,-7 -75,0 0,-6 -74,0" /><path style="fill:none;stroke:#009;stroke-width:2" d="M123,116 l0,-88" /><path style="fill:#666" d="M1,997 l0,-975 27,0 0,975 -27,0z" /><path style="fill:#999" d="M4,997 l0,-975 21,0 0,975 -21,0z" /><path style="fill:#b2b2b2" d="M8,997 l0,-975 13,0 0,975 -13,0z" /><path style="fill:#ccc" d="M11,997 l0,-975 7,0 0,975 -7,0z" /><path style="fill:#e5e5e5" d="M13,997 l0,-975 3,0 0,975 -3,0z" /><path style="fill:none;stroke:#4c4c4c;stroke-width:2" d="M1,997 l0,-975 27,0 0,975 -27,0" /><path style="fill:none;stroke:#4c4c4c;stroke-width:2" d="M42,198 l-41,13" /><path style="fill:none;stroke:#4c4c4c;stroke-width:2" d="M42,22 l-14,0" /></svg>