<!DOCTYPE svg PUBLIC "-//W3C//DTD SVG 20000303 Stylable//EN" "http://www.w3.org/TR/2000/03/WD-SVG-20000303/DTD/svg-20000303-stylable.dtd"[]><svg xmlns="http://www.w3.org/2000/svg" width="999px" height="999px" viewBox="0 0 999 999"><path style="fill:#4c4c4c;stroke:#4c4c4c;stroke-width:2" d="M0,0 l999,0 0,999 -999,0 0,-999z" /><path style="fill:#7f7f7f;stroke:#4c4c4c;stroke-width:2" d="M41,41 l958,0 0,895 -958,0 0,-895z" /><path style="fill:#000" d="M0,999 l41,-63 958,0 0,63 -999,0z" /><path style="fill:#8c8c8c" d="M51,51 l0,271 937,-187 0,-84 -937,0z" /><path style="fill:none;stroke:#4c4c4c;stroke-width:2" d="M41,167 l958,0" /><path style="fill:none;stroke:#4c4c4c;stroke-width:2" d="M41,374 l958,0" /><path style="fill:none;stroke:#4c4c4c;stroke-width:2" d="M41,583 l958,0" /><path style="fill:none;stroke:#4c4c4c;stroke-width:2" d="M41,790 l958,0" /><path style="fill:#999;stroke:#4c4c4c;stroke-width:2" d="M457,873 l167,0 0,42 -167,0 0,-42z" /><path style="fill:#f2f2f2" d="M461,889 l160,0 0,11 -160,0 0,-11z" /></svg>