<!DOCTYPE svg PUBLIC "-//W3C//DTD SVG 20000303 Stylable//EN" "http://www.w3.org/TR/2000/03/WD-SVG-20000303/DTD/svg-20000303-stylable.dtd"[]><svg xmlns="http://www.w3.org/2000/svg" width="290px" height="999px" viewBox="0 0 264 999"><path style="fill:#999;stroke:#4c4c4c;stroke-width:2" d="M97,752 l0,-739 67,-1 0,740 -67,0z" /><path style="fill:#ccc" d="M108,752 l0,-740 44,1 0,739 -44,0z" /><path style="fill:#fff" d="M119,752 l0,-740 23,0 0,740 -23,0z" /><path style="fill:#ffff7f;stroke:#cc0;stroke-width:2" d="M48,962 l35,17 46,9 47,-9 39,-17 8,-30 -187,0 12,30z" /><path style="fill:#ffffa6" d="M61,954 l30,17 38,8 43,-8 30,-17 8,-22 -157,0 8,22z" /><path style="fill:#ffc" d="M74,950 l26,12 29,9 35,-9 25,-12 4,-18 -123,0 4,18z" /><path style="fill:#fffff2" d="M87,945 l21,13 21,4 26,-4 17,-13 4,-13 -93,0 4,13z" /><path style="fill:#b2b2b2;stroke:#4c4c4c;stroke-width:2" d="M19,924 l17,-115 38,-55 111,0 38,55 21,115 -225,0z" /><path style="fill:#ccc" d="M66,924 l8,-115 26,-55 64,0 21,55 13,115 -132,0z" /><path style="fill:#fff" d="M112,924 l5,-115 4,-55 17,0 8,55 5,115 -39,0z" /><path style="fill:#e5e5e5;stroke:#4c4c4c;stroke-width:2" d="M10,924 l0,17 243,0 0,-17 -243,0z" /><path style="fill:none;stroke:#4c4c4c;stroke-width:2" d="M104,754 l55,0" /></svg>