<!DOCTYPE svg PUBLIC "-//W3C//DTD SVG 20000303 Stylable//EN" "http://www.w3.org/TR/2000/03/WD-SVG-20000303/DTD/svg-20000303-stylable.dtd"[]><svg xmlns="http://www.w3.org/2000/svg" width="999px" height="771px" viewBox="0 0 999 757"><path style="fill:#ababab;stroke:#4c4c4c;stroke-width:2" d="M418,490 l14,9 15,10 15,10 15,9 15,9 15,8 16,9 16,8 15,8 15,7 15,8 16,8 15,7 16,7 15,8 15,8 14,6 15,8 13,7 15,7 13,8 13,8 13,8 13,8 13,8 11,9 11,8 11,10 10,9 10,10 8,10 10,10 27,-18 6,-13 4,-11 7,-21 5,-12 8,-14 11,-16 16,-19 -520,-143z" /><path style="fill:none;stroke:#4c4c4c;stroke-width:2" d="M920,634 l-6,7 -2,4 -3,3 -3,4 -2,4 -2,3 -2,4 -3,3 -2,4 -2,3 -2,4 -1,3 -2,4 -2,3 -2,3 -2,3 -2,4 -1,3 -2,2 -1,3 -2,3 -3,5 -2,3 -2,2 -3,5 -3,3" /><path style="fill:none;stroke:#4c4c4c;stroke-width:2" d="M902,628 l-5,7 -3,4 -2,3 -2,4 -3,2 -2,3 -2,4 -2,3 -2,3 -2,4 -2,3 -1,3 -2,3 -2,3 -2,2 -2,3 -2,3 -1,3 -2,3 -2,3 -1,3 -2,2 -2,3 -2,2 -2,3 -1,2 -2,3 -2,2 -4,5" /><path style="fill:none;stroke:#4c4c4c;stroke-width:2" d="M885,625 l-5,7 -2,2 -2,3 -2,3 -2,2 -2,4 -2,2 -2,2 -2,3 -1,2 -4,5 -2,2 -2,3 -2,3 -2,2 -3,5 -2,3 -2,2 -2,2 -2,3 -2,3 -1,3 -2,3 -2,3 -3,3 -2,3 -2,3 -4,7" /><path style="fill:none;stroke:#4c4c4c;stroke-width:2" d="M863,619 l-57,77" /><path style="fill:none;stroke:#4c4c4c;stroke-width:2" d="M840,612 l-52,72" /><path style="fill:none;stroke:#4c4c4c;stroke-width:2" d="M820,604 l-51,71" /><path style="fill:none;stroke:#4c4c4c;stroke-width:2" d="M798,600 l-49,65" /><path style="fill:none;stroke:#4c4c4c;stroke-width:2" d="M777,594 l-48,61" /><path style="fill:none;stroke:#4c4c4c;stroke-width:2" d="M752,590 l-41,50" /><path style="fill:none;stroke:#4c4c4c;stroke-width:2" d="M728,580 l-41,52" /><path style="fill:none;stroke:#4c4c4c;stroke-width:2" d="M705,573 l-37,46" /><path style="fill:none;stroke:#4c4c4c;stroke-width:2" d="M682,568 l-32,43" /><path style="fill:none;stroke:#4c4c4c;stroke-width:2" d="M659,561 l-29,39" /><path style="fill:none;stroke:#4c4c4c;stroke-width:2" d="M636,557 l-29,36" /><path style="fill:none;stroke:#4c4c4c;stroke-width:2" d="M614,551 l-26,32" /><path style="fill:none;stroke:#4c4c4c;stroke-width:2" d="M592,544 l-23,29" /><path style="fill:none;stroke:#4c4c4c;stroke-width:2" d="M569,539 l-22,24" /><path style="fill:none;stroke:#4c4c4c;stroke-width:2" d="M547,534 l-17,20" /><path style="fill:none;stroke:#4c4c4c;stroke-width:2" d="M522,524 l-15,17" /><path style="fill:none;stroke:#4c4c4c;stroke-width:2" d="M496,519 l-9,12" /><path style="fill:#ff8500;stroke:#4c4c4c;stroke-width:2" d="M935,623 l-756,-265 184,-278 26,-27 29,-19 30,-14 31,-10 31,-6 31,-3 32,-1 31,1 32,5 32,6 31,8 30,9 29,11 28,12 27,12 26,12 38,22 33,24 26,27 21,28 17,29 12,32 7,33 5,35 1,37 -3,37 -6,38 -8,40 -10,40 -11,41 -12,42 -14,42z" /><path style="fill:#000;stroke:#4c4c4c;stroke-width:2" d="M213,362 l166,-256 8,-12 11,-9 6,-5 15,-10 19,-10 23,-10 27,-9 32,-7 36,-4 40,0 43,4 48,10 52,17 55,23 60,32 34,24 26,23 22,21 16,24 17,30 -19,-29 -24,-27 -29,-24 -35,-23 -40,-20 -42,-18 -44,-15 -45,-12 -46,-8 -44,-5 -42,0 -39,4 -37,9 -31,12 -16,8 -6,5 -7,6 -7,7 -6,7 -4,7 -161,251 -32,-11z" /><path style="fill:#fff;stroke:#fff;stroke-width:2" d="M806,147 l9,6 11,5 9,7 9,7 8,8 7,9 6,9 7,9 5,11 4,11 5,11 3,12 3,13 2,13 2,13 1,14 1,15 1,14 -1,15 0,16 -1,14 -1,16 -1,16 -2,17 -2,16 -3,17 -2,17 -3,17 -3,16 -4,17 -4,18 -4,17 4,-13 5,-13 5,-14 5,-13 4,-15 5,-14 5,-16 4,-14 5,-16 4,-14 3,-15 3,-15 3,-15 2,-15 2,-15 2,-15 0,-14 -1,-15 -1,-14 -3,-13 -3,-14 -3,-13 -5,-13 -7,-11 -8,-12 -9,-12 -10,-9 -12,-11 -13,-9 -15,-8 -16,-9 -17,-7z" /><path style="fill:#ff8500;stroke:#4c4c4c;stroke-width:2" d="M179,359 l756,264 27,10 -4,15 -557,-146 -263,2 -22,-3 -22,-6 -22,-9 -21,-9 -19,-12 -15,-12 -11,-12 -6,-12 179,-70z" /><path style="fill:#fff;stroke:#fff;stroke-width:2" d="M322,422 l-223,53 10,3 258,-42 -45,-14z" /></svg>