<!DOCTYPE svg PUBLIC "-//W3C//DTD SVG 20000303 Stylable//EN" "http://www.w3.org/TR/2000/03/WD-SVG-20000303/DTD/svg-20000303-stylable.dtd"[]><svg xmlns="http://www.w3.org/2000/svg" width="174px" height="999px" viewBox="0 0 133 999"><path style="fill:#666" d="M71,70 l8,-26 17,-11 17,11 7,26 -49,0z" /><path style="fill:#666" d="M12,70 l7,-26 17,-11 18,11 7,26 -49,0z" /><path style="fill:#999" d="M76,70 l5,-26 15,-11 14,11 6,26 -40,0z" /><path style="fill:#999" d="M16,70 l6,-26 14,-11 15,11 6,26 -41,0z" /><path style="fill:#666;stroke:#4c4c4c;stroke-width:2" d="M79,57 l7,-26 18,-11 17,11 7,26 -49,0z" /><path style="fill:#666;stroke:#4c4c4c;stroke-width:2" d="M4,57 l7,-26 18,-11 17,11 7,26 -49,0z" /><path style="fill:#b2b2b2" d="M90,57 l3,-26 11,-11 10,11 4,26 -28,0z" /><path style="fill:#b2b2b2" d="M15,57 l4,-26 10,-11 10,11 4,26 -28,0z" /><path style="fill:#fff" d="M26,57 l1,-31 4,0 1,31 -6,0z" /><path style="fill:#fff" d="M100,57 l1,-31 5,0 1,31 -7,0z" /><path style="fill:#666" d="M94,26 l0,-22 19,0 0,22 -19,0z" /><path style="fill:#666" d="M20,26 l0,-22 18,0 0,22 -18,0z" /><path style="fill:#b2b2b2" d="M97,26 l0,-22 13,0 0,22 -13,0z" /><path style="fill:#b2b2b2" d="M22,26 l0,-22 14,0 0,22 -14,0z" /><path style="fill:#fff" d="M101,26 l0,-22 5,0 0,22 -5,0z" /><path style="fill:#fff" d="M26,26 l0,-22 5,0 0,22 -5,0z" /><path style="fill:#fffff7;stroke:#7f7f7f;stroke-width:2" d="M79,57 l7,-3 18,-1 17,1 7,3 -7,3 -17,1 -18,-1 -7,-3z" /><path style="fill:#fffff7;stroke:#7f7f7f;stroke-width:2" d="M71,70 l8,-3 17,-2 17,2 7,3 -7,3 -17,1 -17,-1 -8,-3z" /><path style="fill:#fffff7;stroke:#7f7f7f;stroke-width:2" d="M12,70 l7,-3 17,-2 18,2 7,3 -7,3 -18,1 -17,-1 -7,-3z" /><path style="fill:#fffff7;stroke:#7f7f7f;stroke-width:2" d="M4,57 l7,-3 18,-1 17,1 7,3 -7,3 -17,1 -18,-1 -7,-3z" /><path style="fill:#b2b2b2;stroke:#4c4c4c;stroke-width:2" d="M56,437 l0,-412 21,0 0,412 -21,0z" /><path style="fill:#e5e5e5" d="M63,437 l0,-412 6,0 0,412 -6,0z" /><path style="fill:#999;stroke:#4c4c4c;stroke-width:2" d="M38,4 l0,21 56,0 0,-21 -56,0z" /><path style="fill:#999;stroke:#4c4c4c;stroke-width:2" d="M47,46 l0,5 39,0 0,-5 -39,0z" /><path style="fill:#b2b2b2" d="M53,4 l0,21 26,0 0,-21 -26,0z" /><path style="fill:#b2b2b2" d="M56,417 l-5,577 31,0 -5,-577 -21,0z" /><path style="fill:#e5e5e5" d="M63,417 l-2,577 10,0 -1,-577 -7,0z" /><path style="fill:none;stroke:#4c4c4c;stroke-width:2" d="M56,417 l-5,577 31,0 -5,-577" /><path style="fill:none;stroke:#4c4c4c;stroke-width:2" d="M64,961 l0,27 13,0 -4,-27 -9,0" /><path style="fill:none;stroke:#4c4c4c;stroke-width:2" d="M66,972 l0,5" /></svg>