<!DOCTYPE svg PUBLIC "-//W3C//DTD SVG 20000303 Stylable//EN" "http://www.w3.org/TR/2000/03/WD-SVG-20000303/DTD/svg-20000303-stylable.dtd"[]><svg xmlns="http://www.w3.org/2000/svg" width="999px" height="213px" viewBox="0 0 998 174"><path style="fill:#ccc;stroke:#4c4c4c;stroke-width:2" d="M56,123 l36,-31 901,0 -31,31 -906,0z" /><path style="fill:#b2b2b2" d="M4,164 l36,-31 912,0 -31,31 -917,0z" /><path style="fill:#999" d="M40,133 l6,-10 911,0 -5,10 -912,0z" /><path style="fill:#7f7f7f" d="M46,123 l0,-77 911,0 0,77 -911,0z" /><path style="fill:none;stroke:#4c4c4c;stroke-width:2" d="M4,164 l36,-31 6,-10 0,-77 911,0 0,77 -5,10 -31,31 0,5 -917,0 0,-5" /><path style="fill:#999" d="M921,169 l-917,0 0,-5 917,0 0,5z" /><path style="fill:#999" d="M921,71 l-917,0 0,-5 917,0 0,5z" /><path style="fill:#e5e5e5" d="M4,66 l73,-62 916,0 -72,62 -917,0z" /><path style="fill:#7f7f7f;stroke:#4c4c4c;stroke-width:2" d="M921,169 l72,-72 0,-5 -24,24 -5,0 0,-76 4,-9 25,-21 0,-6 -72,62 0,5 31,-25 5,0 0,77 -5,10 -31,31 0,0 0,5z" /><path style="fill:none;stroke:#4c4c4c;stroke-width:2" d="M4,71 l0,-5 73,-62 916,0 -72,62 0,5 -917,0" /></svg>