<!DOCTYPE svg PUBLIC "-//W3C//DTD SVG 20000303 Stylable//EN" "http://www.w3.org/TR/2000/03/WD-SVG-20000303/DTD/svg-20000303-stylable.dtd"[]><svg xmlns="http://www.w3.org/2000/svg" width="360px" height="999px" viewBox="0 0 329 999"><path style="fill:#ffff7f;stroke:#cc0;stroke-width:2" d="M22,152 l17,9 22,4 22,-4 17,-9 4,-13 -86,0 4,13z" /><path style="fill:#ffffa6" d="M29,150 l14,7 18,3 19,-3 14,-7 3,-11 -72,0 4,11z" /><path style="fill:#ffc" d="M35,148 l12,5 14,3 15,-3 11,-5 3,-9 -58,0 3,9z" /><path style="fill:#fffff2" d="M42,146 l8,4 11,2 11,-2 9,-4 2,-7 -44,0 3,7z" /><path style="fill:#b2b2b2;stroke:#4c4c4c;stroke-width:2" d="M9,134 l9,-51 17,-27 52,0 17,27 9,51 -104,0z" /><path style="fill:#ccc" d="M30,134 l6,-51 10,-27 30,0 11,27 4,51 -61,0z" /><path style="fill:#fff" d="M53,134 l1,-51 3,-27 8,0 3,27 2,51 -17,0z" /><path style="fill:#e5e5e5;stroke:#4c4c4c;stroke-width:2" d="M4,134 l0,9 114,0 0,-9 -114,0z" /><path style="fill:none;stroke:#4c4c4c;stroke-width:2" d="M48,57 l26,0" /><path style="fill:#999;stroke:#4c4c4c;stroke-width:2" d="M45,56 l0,-52 279,0 0,990 -31,0 0,-959 -217,0 0,21 -31,0z" /><path style="fill:#ccc" d="M51,56 l0,-46 267,0 0,984 -20,0 0,-964 -227,0 0,26 -20,0z" /><path style="fill:#fff" d="M56,56 l0,-41 257,0 0,979 -10,0 0,-969 -237,0 0,31 -10,0z" /></svg>