<!DOCTYPE svg PUBLIC "-//W3C//DTD SVG 20000303 Stylable//EN" "http://www.w3.org/TR/2000/03/WD-SVG-20000303/DTD/svg-20000303-stylable.dtd"[]><svg xmlns="http://www.w3.org/2000/svg" width="961px" height="999px" viewBox="0 0 959 999"><path style="fill:#ffff7f;stroke:#7f7f7f;stroke-width:2" d="M324,549 l-3,5 -3,5 -2,5 -3,6 -2,5 -2,6 -2,5 -2,6 -1,6 -1,6 -1,6 -1,6 -1,5 0,6 -1,6 0,6 1,18 3,18 4,17 6,17 8,15 9,15 11,14 11,13 13,11 14,11 15,9 15,7 17,7 17,4 18,3 18,1 18,-1 18,-3 17,-4 17,-7 15,-7 15,-9 14,-11 13,-11 11,-13 11,-14 9,-15 8,-15 6,-17 4,-17 3,-18 1,-18 0,-6 -1,-6 0,-6 -1,-5 -1,-6 -1,-6 -1,-6 -1,-6 -2,-6 -2,-5 -2,-6 -2,-5 -3,-6 -2,-5 -3,-5 -3,-5 -65,-210 -180,0 -65,210z" /><path style="fill:#ffff94" d="M340,546 l-3,5 -2,5 -3,5 -2,5 -2,5 -2,6 -1,6 -2,5 -1,6 -1,6 -1,5 -1,6 0,6 -1,5 0,6 0,5 1,16 2,16 4,16 5,14 7,15 8,13 10,12 10,12 11,10 13,9 13,8 14,7 15,6 15,4 16,2 17,1 16,-1 16,-2 15,-4 15,-6 14,-7 14,-8 12,-9 12,-10 10,-12 9,-12 8,-13 7,-15 5,-14 5,-16 2,-16 1,-16 0,-5 -1,-6 0,-5 0,-6 -1,-6 -1,-5 -2,-6 -1,-6 -1,-5 -2,-6 -2,-6 -2,-5 -2,-5 -2,-5 -3,-5 -2,-5 -4,-12 -4,-12 -3,-13 -4,-12 -4,-12 -3,-13 -4,-12 -4,-12 -3,-13 -4,-12 -4,-12 -3,-13 -4,-12 -3,-12 -4,-13 -4,-12 -10,0 -10,0 -10,0 -10,0 -10,0 -10,0 -10,0 -11,0 -10,0 -10,0 -10,0 -10,0 -10,0 -10,0 -10,0 -10,0 -4,12 -3,13 -4,12 -4,12 -3,13 -4,12 -4,12 -3,13 -4,12 -4,12 -3,13 -4,12 -3,12 -4,13 -4,12 -3,12z" /><path style="fill:#ffffa8" d="M356,543 l-2,4 -3,5 -1,5 -2,5 -2,5 -2,5 -1,6 -1,6 -2,5 -1,6 -1,6 0,5 -1,6 0,5 -1,5 0,5 1,14 2,14 4,14 5,13 6,12 7,12 8,11 9,10 10,9 11,9 12,7 12,6 14,5 13,3 14,2 15,1 14,-1 14,-2 14,-3 13,-5 12,-6 12,-7 11,-9 10,-9 9,-10 9,-11 7,-12 6,-12 5,-13 3,-14 2,-14 1,-14 0,-5 0,-5 -1,-5 0,-6 -1,-5 -1,-6 -1,-6 -1,-5 -1,-6 -2,-6 -1,-5 -2,-5 -2,-5 -2,-5 -2,-5 -3,-4 -3,-11 -3,-12 -3,-12 -4,-11 -3,-12 -3,-11 -3,-12 -3,-11 -4,-12 -3,-11 -3,-12 -3,-12 -3,-12 -4,-11 -3,-12 -3,-11 -9,0 -9,0 -9,0 -9,0 -9,0 -9,0 -9,0 -9,0 -9,0 -8,0 -9,0 -9,0 -9,0 -9,0 -9,0 -9,0 -3,11 -3,12 -3,11 -4,12 -3,12 -3,12 -3,11 -3,12 -4,11 -3,12 -3,11 -3,12 -3,11 -4,12 -3,12 -3,11z" /><path style="fill:#ffffbd" d="M372,540 l-2,4 -2,4 -2,5 -1,5 -2,5 -1,5 -2,6 -1,5 -1,6 0,6 -1,5 -1,6 0,5 -1,5 0,4 0,5 1,12 2,12 3,12 4,12 5,10 6,11 7,9 8,9 9,8 10,7 10,6 11,5 11,5 12,3 12,2 13,0 12,0 12,-2 12,-3 12,-5 11,-5 10,-6 9,-7 9,-8 8,-9 7,-9 6,-11 6,-10 4,-12 3,-12 2,-12 0,-12 0,-5 0,-4 0,-5 -1,-5 0,-6 -1,-5 -1,-6 -1,-6 -1,-5 -1,-6 -2,-5 -1,-5 -2,-5 -2,-5 -2,-4 -2,-4 -2,-10 -3,-11 -3,-11 -3,-11 -3,-11 -3,-10 -2,-11 -3,-11 -3,-11 -3,-11 -3,-11 -2,-11 -3,-11 -3,-11 -3,-11 -3,-11 -7,0 -8,0 -8,0 -8,1 -7,0 -8,0 -8,0 -8,0 -7,0 -8,0 -8,0 -7,0 -8,-1 -8,0 -7,0 -8,0 -3,11 -3,11 -3,11 -3,11 -2,11 -3,11 -3,11 -3,11 -3,11 -2,11 -3,10 -3,11 -3,11 -3,11 -2,11 -3,10z" /><path style="fill:#ffffd1" d="M388,537 l-1,3 -2,4 -2,5 -1,4 -1,5 -1,6 -2,5 -1,6 0,5 -1,6 -1,6 0,5 -1,5 0,4 0,4 0,4 0,11 2,10 3,11 3,9 5,9 5,9 6,8 7,7 7,7 8,7 9,5 9,4 10,4 10,2 10,2 11,0 10,0 11,-2 10,-2 9,-4 10,-4 8,-5 8,-7 8,-7 7,-7 6,-8 5,-9 4,-9 4,-9 2,-11 2,-10 1,-11 0,-4 -1,-4 0,-4 0,-5 -1,-5 0,-6 -1,-6 -1,-5 -1,-6 -1,-5 -1,-6 -1,-5 -2,-4 -1,-5 -2,-4 -2,-3 -2,-10 -3,-10 -2,-10 -2,-10 -3,-10 -2,-10 -3,-10 -2,-10 -3,-11 -2,-9 -2,-11 -3,-10 -2,-10 -2,-10 -3,-10 -2,-11 -7,0 -6,0 -7,0 -6,1 -7,0 -7,0 -6,0 -7,0 -6,0 -7,0 -6,0 -7,0 -6,-1 -7,0 -6,0 -7,0 -2,11 -3,10 -2,10 -2,10 -3,10 -2,11 -3,9 -2,11 -2,10 -3,10 -2,10 -2,10 -3,10 -2,10 -3,10 -2,10z" /><path style="fill:#ffffe5" d="M405,534 l-2,3 -1,3 -1,4 -2,5 -1,5 0,5 -1,5 -1,6 -1,6 -1,5 0,6 -1,5 0,5 0,4 0,4 0,3 0,8 2,9 2,8 2,8 4,8 4,7 6,7 5,6 6,5 7,5 7,5 7,3 8,3 9,2 8,2 9,0 9,0 8,-2 9,-2 8,-3 7,-3 7,-5 7,-5 6,-5 6,-6 5,-7 4,-7 4,-8 2,-8 2,-8 2,-9 0,-8 0,-3 0,-4 0,-4 0,-5 -1,-5 0,-6 -1,-5 -1,-6 -1,-6 0,-5 -1,-5 -1,-5 -2,-5 -1,-4 -1,-3 -1,-3 -32,-150 -86,0 -31,150z" /><path style="fill:#666;stroke:#4c4c4c;stroke-width:2" d="M579,319 l20,-80 40,-80 -320,0 40,80 20,80 200,0z" /><path style="fill:none;stroke:#4c4c4c;stroke-width:2" d="M599,239 l-240,0" /><path style="fill:#d9d9d9;stroke:#4c4c4c;stroke-width:2" d="M574,339 l0,-20 -190,0 0,20 190,0z" /><path style="fill:#737373" d="M959,79 l-959,0 0,-79 959,0 0,79z" /><path style="fill:#999;stroke:#4c4c4c;stroke-width:2" d="M159,639 l0,-480 80,0 0,480 1,12 1,12 1,12 2,12 3,12 3,11 4,11 4,11 5,11 5,10 6,10 6,10 7,9 7,9 8,9 8,8 8,8 9,8 9,7 9,7 10,6 10,6 10,5 11,5 11,4 11,4 11,3 12,3 12,2 12,1 12,1 12,1 12,-1 12,-1 12,-1 12,-2 12,-3 11,-3 11,-4 11,-4 11,-5 10,-5 10,-6 10,-6 9,-7 10,-7 8,-8 8,-8 8,-8 8,-9 7,-9 7,-9 6,-10 6,-10 5,-10 5,-11 4,-11 4,-11 3,-11 3,-12 2,-12 2,-12 0,-12 1,-12 0,-480 80,0 0,480 -1,16 -1,16 -2,16 -3,16 -4,15 -4,16 -5,15 -6,14 -6,14 -7,14 -8,13 -8,14 -9,12 -10,12 -9,12 -11,11 -11,10 -12,10 -12,10 -12,9 -13,8 -14,8 -14,7 -14,6 -14,6 -15,5 -15,4 -16,4 -15,3 -16,2 -17,1 -16,1 -16,-1 -17,-1 -16,-2 -15,-3 -16,-4 -15,-4 -15,-5 -14,-6 -14,-6 -14,-7 -14,-8 -13,-8 -12,-9 -12,-10 -12,-10 -11,-10 -11,-11 -9,-12 -10,-12 -9,-12 -8,-14 -8,-13 -7,-14 -6,-14 -6,-14 -5,-15 -4,-16 -4,-15 -3,-16 -2,-16 -1,-16 -1,-16z" /><path style="fill:#ccc" d="M184,639 l0,-480 30,0 0,480 1,13 1,14 2,13 2,13 3,13 3,13 4,12 5,12 6,11 5,12 7,11 7,11 7,10 8,10 8,10 9,9 9,9 10,8 10,8 10,7 11,7 11,7 12,5 11,6 12,5 12,4 13,3 13,3 13,2 13,2 14,1 13,1 13,-1 14,-1 13,-2 13,-2 13,-3 13,-3 12,-4 12,-5 11,-6 12,-5 11,-7 11,-7 10,-7 10,-8 10,-8 9,-9 9,-9 8,-10 8,-10 7,-10 7,-11 7,-11 6,-12 5,-11 5,-12 4,-12 3,-13 3,-13 3,-13 1,-13 1,-14 1,-13 0,-480 30,0 0,480 -1,15 -1,15 -2,15 -2,14 -4,14 -4,14 -4,14 -6,13 -5,13 -7,13 -7,13 -8,11 -8,12 -9,11 -9,11 -10,10 -10,10 -11,9 -11,9 -11,8 -12,8 -13,7 -12,7 -14,5 -13,6 -13,4 -14,4 -15,4 -14,2 -15,2 -15,1 -15,1 -15,-1 -15,-1 -15,-2 -14,-2 -15,-4 -14,-4 -13,-4 -13,-6 -14,-5 -12,-7 -13,-7 -12,-8 -11,-8 -11,-9 -11,-9 -10,-10 -10,-10 -9,-11 -9,-11 -8,-12 -8,-11 -7,-13 -7,-13 -5,-13 -6,-13 -4,-14 -4,-14 -4,-14 -2,-14 -2,-15 -1,-15 -1,-15z" /><path style="fill:#999" d="M839,159 l-720,0 0,-80 720,0 0,80z" /><path style="fill:#ccc" d="M839,134 l-720,0 0,-29 720,0 0,29z" /><path style="fill:none;stroke:#4c4c4c;stroke-width:2" d="M839,159 l-720,0 0,-80 720,0 0,80" /><path style="fill:#999" d="M839,719 l-720,0 0,-80 720,0 0,80z" /><path style="fill:#ccc" d="M839,693 l-720,0 0,-29 720,0 0,29z" /><path style="fill:none;stroke:#4c4c4c;stroke-width:2" d="M839,719 l-720,0 0,-80 720,0 0,80" /><path style="fill:#999" d="M839,439 l-720,0 0,-80 720,0 0,80z" /><path style="fill:#ccc" d="M839,413 l-720,0 0,-28 720,0 0,28z" /><path style="fill:none;stroke:#4c4c4c;stroke-width:2" d="M839,439 l-720,0 0,-80 720,0 0,80" /><path style="fill:#999" d="M519,159 l0,840 -80,0 0,-840 80,0z" /><path style="fill:#ccc" d="M493,159 l0,840 -28,0 0,-840 28,0z" /><path style="fill:none;stroke:#4c4c4c;stroke-width:2" d="M519,159 l0,840 -80,0 0,-840 80,0" /><path style="fill:#999" d="M809,79 l-660,0 0,-79 660,0 0,79z" /><path style="fill:#bfbfbf" d="M599,79 l-240,0 0,-79 240,0 0,79z" /><path style="fill:none;stroke:#4c4c4c;stroke-width:2" d="M959,79 l-959,0 0,-79 959,0 0,79" /></svg>