<!DOCTYPE svg PUBLIC "-//W3C//DTD SVG 20000303 Stylable//EN" "http://www.w3.org/TR/2000/03/WD-SVG-20000303/DTD/svg-20000303-stylable.dtd"[]><svg xmlns="http://www.w3.org/2000/svg" width="999px" height="999px" viewBox="0 0 999 999"><path style="fill:#cbe5e5;stroke:#4c4c4c;stroke-width:2" d="M0,0 l978,0 0,978 -978,0 0,-978z" /><path style="fill:#fff" d="M166,874 l354,-292 229,-354 -344,375 -239,271z" /><path style="fill:#fff" d="M677,874 l126,-104 81,-125 -122,132 -85,97z" /><path style="fill:#b3d9d9" d="M10,10 l0,302 957,-271 0,-31 -957,0z" /><path style="fill:#b2cccc;stroke:#4c4c4c;stroke-width:2" d="M20,999 l979,0 0,-979 -21,-20 0,978 -978,0 20,21z" /><path style="fill:#fff" d="M686,72 l-257,212 -166,257 250,-272 173,-197z" /><path style="fill:#b3d9d9" d="M562,603 l-229,250 291,-239 198,-261 -260,250z" /><path style="fill:none;stroke:#fff;stroke-width:2" d="M104,426 l177,-145" /><path style="fill:none;stroke:#fff;stroke-width:2" d="M197,281 l198,-157" /><path style="fill:none;stroke:#4c4c4c;stroke-width:2" d="M978,978 l21,21" /></svg>