<!DOCTYPE svg PUBLIC "-//W3C//DTD SVG 20000303 Stylable//EN" "http://www.w3.org/TR/2000/03/WD-SVG-20000303/DTD/svg-20000303-stylable.dtd"[]><svg xmlns="http://www.w3.org/2000/svg" width="999px" height="998px" viewBox="0 0 998 998"><path style="fill:#597f7f;stroke:#4c4c4c;stroke-width:2" d="M973,87 l0,906 -948,0 0,-906 948,0z" /><path style="fill:#9bb2b2" d="M46,87 l0,906 906,0 0,-906 -906,0z" /><path style="fill:#bdcccc;stroke:#4c4c4c;stroke-width:2" d="M972,87 l0,906 21,0 0,-906 -21,0z" /><path style="fill:#bdcccc;stroke:#4c4c4c;stroke-width:2" d="M4,87 l0,906 21,0 0,-906 -21,0z" /><path style="fill:#597f7f" d="M4,4 l0,83 989,0 0,-83 -989,0z" /><path style="fill:none;stroke:#597f7f;stroke-width:2" d="M46,128 l906,0" /><path style="fill:none;stroke:#597f7f;stroke-width:2" d="M46,169 l906,0" /><path style="fill:none;stroke:#597f7f;stroke-width:2" d="M46,210 l906,0" /><path style="fill:none;stroke:#597f7f;stroke-width:2" d="M46,252 l906,0" /><path style="fill:none;stroke:#597f7f;stroke-width:2" d="M46,293 l906,0" /><path style="fill:none;stroke:#597f7f;stroke-width:2" d="M46,334 l906,0" /><path style="fill:none;stroke:#597f7f;stroke-width:2" d="M46,375 l906,0" /><path style="fill:none;stroke:#597f7f;stroke-width:2" d="M46,416 l906,0" /><path style="fill:none;stroke:#597f7f;stroke-width:2" d="M46,458 l906,0" /><path style="fill:none;stroke:#597f7f;stroke-width:2" d="M46,499 l906,0" /><path style="fill:none;stroke:#597f7f;stroke-width:2" d="M46,540 l906,0" /><path style="fill:none;stroke:#597f7f;stroke-width:2" d="M46,581 l906,0" /><path style="fill:none;stroke:#597f7f;stroke-width:2" d="M46,622 l906,0" /><path style="fill:none;stroke:#597f7f;stroke-width:2" d="M46,664 l906,0" /><path style="fill:none;stroke:#597f7f;stroke-width:2" d="M46,705 l906,0" /><path style="fill:none;stroke:#597f7f;stroke-width:2" d="M46,746 l906,0" /><path style="fill:none;stroke:#597f7f;stroke-width:2" d="M46,787 l906,0" /><path style="fill:none;stroke:#597f7f;stroke-width:2" d="M46,828 l906,0" /><path style="fill:none;stroke:#597f7f;stroke-width:2" d="M46,870 l906,0" /><path style="fill:none;stroke:#597f7f;stroke-width:2" d="M46,911 l906,0" /><path style="fill:none;stroke:#597f7f;stroke-width:2" d="M46,952 l906,0" /><path style="fill:#7a9999" d="M5,15 l0,60 989,0 0,-60 -989,0z" /><path style="fill:#9bb2b2" d="M5,26 l0,38 989,0 0,-38 -989,0z" /><path style="fill:#bdcccc" d="M4,38 l0,16 989,0 0,-16 -989,0z" /><path style="fill:none;stroke:#4c4c4c;stroke-width:2" d="M4,4 l0,83 989,0 0,-83 -989,0" /></svg>