<!DOCTYPE svg PUBLIC "-//W3C//DTD SVG 20000303 Stylable//EN" "http://www.w3.org/TR/2000/03/WD-SVG-20000303/DTD/svg-20000303-stylable.dtd"[]><svg xmlns="http://www.w3.org/2000/svg" width="999px" height="546px" viewBox="0 0 999 519"><path style="fill:#699;stroke:#4c4c4c;stroke-width:2" d="M0,39 l923,0 0,480 -923,0 0,-480z" /><path style="fill:#366" d="M19,58 l210,0 0,441 -210,0 0,-441z" /><path style="fill:#366" d="M239,58 l212,0 0,441 -212,0 0,-441z" /><path style="fill:#366" d="M471,58 l210,0 0,441 -210,0 0,-441z" /><path style="fill:#366" d="M691,58 l212,0 0,441 -212,0 0,-441z" /><path style="fill:#699" d="M19,126 l884,0 0,9 -884,0 0,-9z" /><path style="fill:#699" d="M19,201 l884,0 0,10 -884,0 0,-10z" /><path style="fill:#699" d="M19,279 l884,0 0,10 -884,0 0,-10z" /><path style="fill:#699" d="M19,355 l884,0 0,10 -884,0 0,-10z" /><path style="fill:#699" d="M19,433 l884,0 0,10 -884,0 0,-10z" /><path style="fill:#b2e5e5;stroke:#4c4c4c;stroke-width:2" d="M0,39 l75,-39 924,0 -76,39 -923,0z" /><path style="fill:#194c4c;stroke:#4c4c4c;stroke-width:2" d="M923,39 l76,-39 0,481 -76,38 0,-480z" /><path style="fill:#033" d="M229,58 l0,37 -162,0 0,-37 162,0z" /><path style="fill:#033" d="M451,58 l0,37 -164,0 0,-37 164,0z" /><path style="fill:#033" d="M681,58 l0,37 -162,0 0,-37 162,0z" /><path style="fill:#033" d="M903,58 l0,37 -164,0 0,-37 164,0z" /><path style="fill:#033" d="M903,135 l0,38 -164,0 0,-38 164,0z" /><path style="fill:#033" d="M681,135 l0,38 -162,0 0,-38 162,0z" /><path style="fill:#033" d="M451,135 l0,38 -164,0 0,-38 164,0z" /><path style="fill:#033" d="M229,135 l0,38 -162,0 0,-38 162,0z" /><path style="fill:#033" d="M229,211 l0,38 -162,0 0,-38 162,0z" /><path style="fill:#033" d="M451,211 l0,38 -164,0 0,-38 164,0z" /><path style="fill:#033" d="M681,211 l0,38 -162,0 0,-38 162,0z" /><path style="fill:#033" d="M903,211 l0,38 -164,0 0,-38 164,0z" /><path style="fill:#033" d="M903,289 l0,38 -164,0 0,-38 164,0z" /><path style="fill:#033" d="M681,289 l0,38 -162,0 0,-38 162,0z" /><path style="fill:#033" d="M451,289 l0,38 -164,0 0,-38 164,0z" /><path style="fill:#033" d="M229,289 l0,38 -162,0 0,-38 162,0z" /><path style="fill:#033" d="M229,365 l0,38 -162,0 0,-38 162,0z" /><path style="fill:#033" d="M451,365 l0,38 -164,0 0,-38 164,0z" /><path style="fill:#033" d="M681,365 l0,38 -162,0 0,-38 162,0z" /><path style="fill:#033" d="M903,365 l0,38 -164,0 0,-38 164,0z" /><path style="fill:#033" d="M903,443 l0,38 -164,0 0,-38 164,0z" /><path style="fill:#033" d="M681,443 l0,38 -162,0 0,-38 162,0z" /><path style="fill:#033" d="M451,443 l0,38 -164,0 0,-38 164,0z" /><path style="fill:#033" d="M229,443 l0,38 -162,0 0,-38 162,0z" /></svg>