<!DOCTYPE svg PUBLIC "-//W3C//DTD SVG 20000303 Stylable//EN" "http://www.w3.org/TR/2000/03/WD-SVG-20000303/DTD/svg-20000303-stylable.dtd"[]><svg xmlns="http://www.w3.org/2000/svg" width="999px" height="999px" viewBox="0 0 999 999"><path style="fill:#7f7f7f;stroke:#4c4c4c;stroke-width:2" d="M83,0 l41,0 0,957 -41,0 0,-957z" /><path style="fill:#7f7f7f;stroke:#4c4c4c;stroke-width:2" d="M957,0 l42,0 0,957 -42,0 0,-957z" /><path style="fill:#e5e5e5;stroke:#4c4c4c;stroke-width:2" d="M0,333 l83,-42 916,0 -84,42 -915,0z" /><path style="fill:#e5e5e5;stroke:#4c4c4c;stroke-width:2" d="M0,624 l83,-42 916,0 -84,42 -915,0z" /><path style="fill:#e5e5e5;stroke:#4c4c4c;stroke-width:2" d="M0,915 l83,-41 916,0 -84,41 -915,0z" /><path style="fill:#999" d="M0,41 l41,0 0,958 -41,0 0,-958z" /><path style="fill:#ccc" d="M10,41 l21,0 0,958 -21,0 0,-958z" /><path style="fill:none;stroke:#4c4c4c;stroke-width:2" d="M0,41 l41,0 0,958 -41,0 0,-958" /><path style="fill:#999" d="M874,41 l41,0 0,958 -41,0 0,-958z" /><path style="fill:#ccc" d="M884,41 l21,0 0,958 -21,0 0,-958z" /><path style="fill:none;stroke:#4c4c4c;stroke-width:2" d="M874,41 l41,0 0,958 -41,0 0,-958" /><path style="fill:#999" d="M915,915 l0,42 -915,0 0,-42 915,0z" /><path style="fill:#ccc" d="M915,926 l0,21 -915,0 0,-21 915,0z" /><path style="fill:none;stroke:#4c4c4c;stroke-width:2" d="M915,915 l0,42 -915,0 0,-42 915,0" /><path style="fill:#999" d="M915,624 l0,42 -915,0 0,-42 915,0z" /><path style="fill:#ccc" d="M915,634 l0,21 -915,0 0,-21 915,0z" /><path style="fill:none;stroke:#4c4c4c;stroke-width:2" d="M915,624 l0,42 -915,0 0,-42 915,0" /><path style="fill:#999" d="M915,333 l0,41 -915,0 0,-41 915,0z" /><path style="fill:#ccc" d="M915,343 l0,21 -915,0 0,-21 915,0z" /><path style="fill:none;stroke:#4c4c4c;stroke-width:2" d="M915,333 l0,41 -915,0 0,-41 915,0" /><path style="fill:#999" d="M915,41 l0,42 -915,0 0,-42 915,0z" /><path style="fill:#ccc" d="M915,51 l0,21 -915,0 0,-21 915,0z" /><path style="fill:none;stroke:#4c4c4c;stroke-width:2" d="M915,41 l0,42 -915,0 0,-42 915,0" /><path style="fill:#e5e5e5;stroke:#4c4c4c;stroke-width:2" d="M0,41 l83,-41 916,0 -84,41 -915,0z" /><path style="fill:#999" d="M915,41 l0,42 84,-42 0,-41 -84,41z" /><path style="fill:#ccc" d="M915,51 l0,21 84,-41 0,-21 -84,41z" /><path style="fill:none;stroke:#4c4c4c;stroke-width:2" d="M915,41 l0,42 84,-42 0,-41 -84,41" /><path style="fill:#999" d="M915,333 l0,41 84,-41 0,-42 -84,42z" /><path style="fill:#ccc" d="M915,343 l0,21 84,-42 0,-20 -84,41z" /><path style="fill:none;stroke:#4c4c4c;stroke-width:2" d="M915,333 l0,41 84,-41 0,-42 -84,42" /><path style="fill:#999" d="M915,624 l0,42 84,-42 0,-42 -84,42z" /><path style="fill:#ccc" d="M915,634 l0,21 84,-41 0,-21 -84,41z" /><path style="fill:none;stroke:#4c4c4c;stroke-width:2" d="M915,624 l0,42 84,-42 0,-42 -84,42" /><path style="fill:#999" d="M915,915 l0,42 84,-42 0,-41 -84,41z" /><path style="fill:#ccc" d="M915,926 l0,21 84,-42 0,-21 -84,42z" /><path style="fill:none;stroke:#4c4c4c;stroke-width:2" d="M915,915 l0,42 84,-42 0,-41 -84,41" /><path style="fill:none;stroke:#4c4c4c;stroke-width:2" d="M41,957 l0,-916" /><path style="fill:none;stroke:#4c4c4c;stroke-width:2" d="M874,957 l0,-916" /></svg>