<!DOCTYPE svg PUBLIC "-//W3C//DTD SVG 20000303 Stylable//EN" "http://www.w3.org/TR/2000/03/WD-SVG-20000303/DTD/svg-20000303-stylable.dtd"[]><svg xmlns="http://www.w3.org/2000/svg" width="998px" height="600px" viewBox="0 0 999 581"><path style="fill:#000" d="M93,510 l22,0 0,-483 -22,0 0,483z" /><path style="fill:#000" d="M532,510 l22,0 0,-483 -22,0 0,483z" /><path style="fill:#000" d="M971,510 l22,0 0,-483 -22,0 0,483z" /><path style="fill:#c96;stroke:#4c4c4c;stroke-width:2" d="M5,49 l88,-44 900,0 -88,44 -900,0z" /><path style="fill:#c96;stroke:#4c4c4c;stroke-width:2" d="M5,312 l88,-44 900,0 -88,44 -900,0z" /><path style="fill:#c96;stroke:#4c4c4c;stroke-width:2" d="M5,554 l88,-44 900,0 -88,44 -900,0z" /><path style="fill:#4c4c4c;stroke:#4c4c4c;stroke-width:2" d="M5,554 l900,0 88,-44 0,22 -88,44 -900,0 0,-22z" /><path style="fill:#4c4c4c;stroke:#4c4c4c;stroke-width:2" d="M5,312 l900,0 88,-44 0,22 -88,44 -900,0 0,-22z" /><path style="fill:#4c4c4c;stroke:#4c4c4c;stroke-width:2" d="M5,49 l900,0 88,-44 0,22 -88,44 -900,0 0,-22z" /><path style="fill:#4c4c4c;stroke:#4c4c4c;stroke-width:2" d="M883,554 l22,0 0,-484 -22,0 0,484z" /><path style="fill:#4c4c4c;stroke:#4c4c4c;stroke-width:2" d="M444,554 l22,0 0,-484 -22,0 0,484z" /><path style="fill:#4c4c4c;stroke:#4c4c4c;stroke-width:2" d="M5,554 l22,0 0,-484 -22,0 0,484z" /></svg>