<!DOCTYPE svg PUBLIC "-//W3C//DTD SVG 20000303 Stylable//EN" "http://www.w3.org/TR/2000/03/WD-SVG-20000303/DTD/svg-20000303-stylable.dtd"[]><svg xmlns="http://www.w3.org/2000/svg" width="999px" height="857px" viewBox="0 0 999 849"><path style="fill:#98b2e5;stroke:#4c4c4c;stroke-width:2" d="M319,309 l-8,-7 -7,-8 -9,-7 -8,-7 -9,-7 -9,-7 -9,-6 -9,-6 -9,-6 -10,-6 -10,-5 -9,-5 -10,-5 -11,-5 -10,-5 -10,-4 -10,-5 -11,-3 -10,-4 -11,-3 -11,-4 -11,-3 -10,-2 -11,-3 -11,-2 -11,-2 -11,-1 -11,-1 -11,-1 -11,-1 -11,-1 -10,0 0,-2 0,-5 0,-9 0,-11 0,-14 0,-15 0,-16 0,-17 0,-16 0,-16 0,-15 0,-14 0,-11 0,-9 0,-5 0,-2 15,0 15,0 15,1 15,2 16,2 15,2 15,2 15,3 15,3 15,4 15,4 15,4 15,5 14,5 15,5 15,6 14,6 14,7 14,6 14,7 13,8 14,7 13,8 13,9 13,8 13,9 12,10 12,9 12,10 12,10 11,11 11,10 -126,126z" /><path style="fill:#98b2e5" d="M663,849 l-362,-364 -36,-66 -10,-74 10,-76 36,-66 52,-54 68,-34 74,-12 74,12 68,34 362,364 -336,336z" /><path style="fill:#abc0eb" d="M699,811 l-362,-362 -38,-64 -18,-68 2,-64 22,-56 42,-42 56,-24 66,-2 68,18 62,38 364,364 -264,262z" /><path style="fill:#bac9ed" d="M735,775 l-362,-362 -42,-60 -24,-62 -8,-56 12,-44 30,-30 46,-12 56,6 60,26 60,42 361,362 -189,190z" /><path style="fill:#ccd8f2" d="M773,739 l-364,-364 -44,-56 -32,-54 -16,-46 0,-34 18,-18 36,-2 46,16 54,32 56,46 362,362 -116,118z" /><path style="fill:#dde5f7" d="M809,703 l-362,-364 -50,-52 -38,-48 -26,-36 -10,-24 8,-6 22,10 38,26 46,38 54,48 362,364 -44,44z" /><path style="fill:none;stroke:#4c4c4c;stroke-width:2" d="M663,849 l-362,-364 -36,-66 -10,-74 10,-76 36,-66 52,-54 68,-34 74,-12 74,12 68,34 362,364 -336,336" /></svg>