<!DOCTYPE svg PUBLIC "-//W3C//DTD SVG 20000303 Stylable//EN" "http://www.w3.org/TR/2000/03/WD-SVG-20000303/DTD/svg-20000303-stylable.dtd"[]><svg xmlns="http://www.w3.org/2000/svg" width="999px" height="783px" viewBox="0 0 999 770"><path style="fill:#98b2e5;stroke:#4c4c4c;stroke-width:2" d="M578,191 l-10,-9 -10,-9 -10,-8 -11,-7 -12,-8 -11,-6 -12,-6 -13,-6 -12,-5 -13,-4 -13,-4 -13,-3 -14,-2 -13,-2 -14,-1 -13,0 -14,0 -14,1 -14,2 -14,3 -13,2 -13,4 -13,4 -12,5 -12,6 -12,6 -12,7 -11,7 -11,8 -10,8 -10,8 -10,9 -9,10 -9,10 -8,11 -7,10 -8,11 -6,12 -6,12 -6,12 -5,12 -4,13 -4,13 -3,14 -2,13 -2,14 -1,13 0,15 0,384 -109,0 0,-384 0,-20 1,-20 3,-19 3,-19 4,-19 6,-18 6,-18 7,-17 7,-17 9,-17 9,-16 10,-16 11,-15 11,-14 12,-15 13,-13 13,-13 14,-12 15,-11 15,-11 16,-10 16,-10 16,-8 17,-8 18,-7 17,-6 19,-5 18,-5 19,-3 19,-3 20,-1 20,0 9,0 10,0 9,1 10,0 9,2 9,1 10,1 9,2 9,2 9,2 10,3 9,3 9,3 9,3 9,3 9,4 8,3 9,4 9,5 8,4 8,4 8,5 8,5 8,5 8,5 8,6 8,6 7,6 7,6 7,6 7,6 7,7 -79,78z" /><path style="fill:#98b2e5" d="M792,523 l-224,-222 -22,-42 -7,-45 7,-47 22,-40 32,-35 43,-20 44,-8 47,8 40,20 225,225 -207,206z" /><path style="fill:#abc0eb" d="M815,501 l-225,-224 -24,-39 -10,-42 2,-39 14,-34 24,-26 34,-15 41,-2 42,12 39,23 224,224 -161,162z" /><path style="fill:#bac9ed" d="M837,479 l-225,-225 -26,-36 -14,-37 -4,-34 6,-28 18,-19 28,-8 35,5 38,16 36,24 225,224 -117,118z" /><path style="fill:#ccd8f2" d="M859,457 l-224,-225 -27,-34 -20,-33 -10,-30 0,-20 12,-12 20,0 29,10 34,20 34,28 225,223 -73,73z" /><path style="fill:#dde5f7" d="M881,434 l-224,-224 -28,-32 -25,-29 -16,-24 -6,-14 4,-4 14,6 22,16 31,24 32,30 223,225 -27,26z" /><path style="fill:none;stroke:#4c4c4c;stroke-width:2" d="M792,523 l-224,-222 -22,-42 -7,-45 7,-47 22,-40 32,-35 43,-20 44,-8 47,8 40,20 225,225 -207,206" /></svg>