<!DOCTYPE svg PUBLIC "-//W3C//DTD SVG 20000303 Stylable//EN" "http://www.w3.org/TR/2000/03/WD-SVG-20000303/DTD/svg-20000303-stylable.dtd"[]><svg xmlns="http://www.w3.org/2000/svg" width="985px" height="999px" viewBox="0 0 984 999"><path style="fill:#98b2e5;stroke:#4c4c4c;stroke-width:2" d="M233,247 l13,-12 13,-11 14,-11 14,-10 15,-9 15,-9 16,-8 16,-7 16,-7 17,-5 16,-5 17,-4 17,-3 18,-3 18,-1 17,-1 18,1 18,1 18,3 18,3 17,4 17,5 16,5 16,7 16,7 16,8 15,9 14,9 14,10 14,11 13,11 12,12 12,12 11,13 11,14 10,14 9,14 9,15 8,16 7,16 7,16 5,16 5,17 4,17 3,18 3,17 1,18 1,19 0,500 141,0 0,-500 0,-26 -2,-25 -3,-25 -5,-25 -5,-24 -7,-24 -8,-23 -9,-23 -10,-21 -11,-22 -12,-21 -13,-20 -14,-20 -15,-19 -15,-18 -17,-17 -17,-17 -18,-16 -19,-14 -20,-14 -20,-13 -21,-12 -22,-11 -21,-10 -23,-9 -24,-8 -23,-7 -24,-5 -25,-5 -25,-3 -25,-2 -26,0 -12,0 -12,0 -13,1 -12,1 -12,1 -12,2 -12,2 -12,2 -12,3 -12,3 -12,3 -12,3 -11,4 -12,4 -11,4 -12,5 -11,5 -11,5 -12,5 -11,6 -11,6 -10,6 -11,6 -10,7 -10,7 -10,7 -10,7 -9,8 -10,8 -9,8 -9,8 -9,9 102,101z" /><path style="fill:#4c6699;stroke:#4c4c4c;stroke-width:2" d="M121,305 l-54,-52 -41,-58 -25,-49 -1,-41 17,-18 38,2 52,24 56,42 54,54 42,56 24,52 4,38 -20,20 -38,-4 -52,-24 -56,-42z" /></svg>