<!DOCTYPE svg PUBLIC "-//W3C//DTD SVG 20000303 Stylable//EN" "http://www.w3.org/TR/2000/03/WD-SVG-20000303/DTD/svg-20000303-stylable.dtd"[]><svg xmlns="http://www.w3.org/2000/svg" width="999px" height="716px" viewBox="0 0 999 699"><path style="fill:#98b2e5;stroke:#4c4c4c;stroke-width:2" d="M999,66 l0,133 -100,0 0,-78 -6,-2 -6,-2 -6,-2 -7,-2 -6,-2 -6,-2 -6,-1 -7,-2 -6,-2 -6,-1 -7,-1 -6,-1 -6,-1 -7,0 -6,-1 -6,0 -17,1 -17,2 -17,3 -16,4 -17,6 -15,6 -16,8 -15,9 -15,9 -14,11 -14,12 -14,12 -13,14 -12,14 -13,16 -11,15 -11,17 -11,18 -10,18 -9,19 -9,20 -8,20 -7,21 -7,21 -6,22 -5,22 -4,23 -4,24 -3,23 -2,25 -2,24 0,25 0,2 0,1 0,3 0,2 0,2 0,2 0,2 0,2 134,0 0,-100 134,0 0,100 66,0 0,100 -799,0 0,-100 66,0 0,-100 133,0 0,100 134,0 1,-31 2,-30 3,-30 4,-30 5,-29 6,-28 7,-28 9,-27 9,-26 10,-26 11,-25 13,-25 12,-23 14,-23 15,-21 15,-21 16,-20 17,-19 18,-18 18,-17 19,-15 20,-15 20,-13 20,-12 21,-11 22,-9 22,-8 23,-7 23,-5 23,-4 24,-3 24,0 12,0 13,1 13,2 13,2 13,3 13,4 13,3 13,5 12,5 13,5 12,5 13,6 12,6 12,6 11,6 12,7z" /><path style="fill:none;stroke:#4c4c4c;stroke-width:2" d="M66,599 l667,0" /></svg>