<!DOCTYPE svg PUBLIC "-//W3C//DTD SVG 20000303 Stylable//EN" "http://www.w3.org/TR/2000/03/WD-SVG-20000303/DTD/svg-20000303-stylable.dtd"[]><svg xmlns="http://www.w3.org/2000/svg" width="370px" height="999px" viewBox="0 0 339 999"><path style="fill:#666;stroke:#4c4c4c;stroke-width:2" d="M4,994 l0,-826 16,0 0,826 -16,0z" /><path style="fill:#b2b2b2" d="M6,994 l0,-826 12,0 0,826 -12,0z" /><path style="fill:#e5e5e5" d="M10,994 l0,-826 4,0 0,826 -4,0z" /><path style="fill:#fffff7;stroke:#4c4c4c;stroke-width:2" d="M284,35 l1,4 3,2 38,0 4,-2 1,-10 -47,6z" /><path style="fill:#b2b2b2" d="M248,30 l-61,0 -63,6 -57,17 -35,26 -12,30 0,58 -16,0 0,-60 14,-34 39,-32 62,-19 68,-7 61,0 0,15z" /><path style="fill:#7f7f7f;stroke:#4c4c4c;stroke-width:2" d="M248,32 l0,-19 3,-3 33,-4 25,-2 22,0 3,3 0,20 -1,2 -17,3 -26,3 -39,0 -3,-3z" /><path style="fill:#b2b2b2" d="M260,31 l-1,-18 1,-3 24,-3 41,-2 3,3 -1,19 -2,2 -33,4 -27,0 -5,-2z" /><path style="fill:#ccc" d="M277,30 l-2,-17 2,-3 9,-3 22,0 2,2 0,20 -2,1 -16,3 -12,0 -3,-3z" /><path style="fill:#666" d="M248,30 l-61,0 -63,6 -56,17 -36,26 -12,30 0,59 -8,0 0,-61 14,-32 37,-29 59,-17 65,-6 61,0 0,7z" /><path style="fill:none;stroke:#4c4c4c;stroke-width:2" d="M248,30 l-61,0 -63,6 -56,17 -36,26 -12,30 0,59 -16,0 0,-61 14,-35 39,-31 62,-19 68,-7 61,0 0,15" /></svg>