<!DOCTYPE svg PUBLIC "-//W3C//DTD SVG 20000303 Stylable//EN" "http://www.w3.org/TR/2000/03/WD-SVG-20000303/DTD/svg-20000303-stylable.dtd"[]><svg xmlns="http://www.w3.org/2000/svg" width="999px" height="157px" viewBox="0 0 999 106"><path style="fill:#999;stroke:#4c4c4c;stroke-width:2" d="M847,90 l56,-83 8,0 58,83 -8,0 -53,-75 -53,75 -8,0z" /><path style="fill:#999;stroke:#4c4c4c;stroke-width:2" d="M727,90 l56,-83 8,0 56,83 -8,0 -54,-75 -50,75 -8,0z" /><path style="fill:#999;stroke:#4c4c4c;stroke-width:2" d="M604,90 l59,-83 5,0 59,83 -8,0 -53,-75 -54,75 -8,0z" /><path style="fill:#999;stroke:#4c4c4c;stroke-width:2" d="M484,90 l56,-83 8,0 56,83 -8,0 -50,-75 -54,75 -8,0z" /><path style="fill:#999;stroke:#4c4c4c;stroke-width:2" d="M362,90 l58,-83 6,0 58,83 -8,0 -53,-75 -53,75 -8,0z" /><path style="fill:#999;stroke:#4c4c4c;stroke-width:2" d="M242,90 l56,-83 8,0 56,83 -6,0 -53,-75 -53,75 -8,0z" /><path style="fill:#999;stroke:#4c4c4c;stroke-width:2" d="M119,90 l59,-83 8,0 56,83 -8,0 -53,-75 -54,75 -8,0z" /><path style="fill:#999;stroke:#4c4c4c;stroke-width:2" d="M0,90 l55,-83 8,0 56,83 -5,0 -53,-75 -54,75 -7,0z" /><path style="fill:#b2b2b2;stroke:#4c4c4c;stroke-width:2" d="M0,0 l999,0 0,7 -999,0 0,-7z" /><path style="fill:#b2b2b2;stroke:#4c4c4c;stroke-width:2" d="M0,90 l999,0 0,16 -999,0 0,-16z" /><path style="fill:#ccc;stroke:#4c4c4c;stroke-width:2" d="M0,82 l999,0 0,8 -999,0 0,-8z" /><path style="fill:#999;stroke:#4c4c4c;stroke-width:2" d="M0,34 l999,0 0,35 -999,0 0,-35z" /><path style="fill:#e5e5e5;stroke:#4c4c4c;stroke-width:2" d="M847,7 l56,83 8,0 58,-83 -8,0 -53,75 -53,-75 -8,0z" /><path style="fill:#e5e5e5;stroke:#4c4c4c;stroke-width:2" d="M727,7 l56,83 8,0 56,-83 -8,0 -54,75 -50,-75 -8,0z" /><path style="fill:#e5e5e5;stroke:#4c4c4c;stroke-width:2" d="M604,7 l59,83 5,0 59,-83 -8,0 -53,75 -54,-75 -8,0z" /><path style="fill:#e5e5e5;stroke:#4c4c4c;stroke-width:2" d="M484,7 l56,83 8,0 56,-83 -8,0 -50,75 -54,-75 -8,0z" /><path style="fill:#e5e5e5;stroke:#4c4c4c;stroke-width:2" d="M362,7 l58,83 6,0 58,-83 -8,0 -53,75 -53,-75 -8,0z" /><path style="fill:#e5e5e5;stroke:#4c4c4c;stroke-width:2" d="M242,7 l56,83 8,0 56,-83 -6,0 -53,75 -53,-75 -8,0z" /><path style="fill:#e5e5e5;stroke:#4c4c4c;stroke-width:2" d="M119,7 l59,83 8,0 56,-83 -8,0 -53,75 -54,-75 -8,0z" /><path style="fill:#e5e5e5;stroke:#4c4c4c;stroke-width:2" d="M0,7 l55,83 8,0 56,-83 -5,0 -53,75 -54,-75 -7,0z" /></svg>