<!DOCTYPE svg PUBLIC "-//W3C//DTD SVG 20000303 Stylable//EN" "http://www.w3.org/TR/2000/03/WD-SVG-20000303/DTD/svg-20000303-stylable.dtd"[]><svg xmlns="http://www.w3.org/2000/svg" width="999px" height="273px" viewBox="0 0 999 237"><path style="fill:#666;stroke:#4c4c4c;stroke-width:2" d="M698,137 l0,14 96,0 0,-14 -96,0z" /><path style="fill:#666;stroke:#4c4c4c;stroke-width:2" d="M204,137 l0,14 95,0 0,-14 -95,0z" /><path style="fill:#ccc;stroke:#4c4c4c;stroke-width:2" d="M994,118 l-44,-2 -43,-6 -40,-11 -35,-14 -28,-17 -21,-20 -13,-22 -4,-22 -39,0 -4,22 -13,22 -21,20 -28,17 -35,14 -40,11 -42,6 -45,2 -44,-2 -43,-6 -40,-11 -35,-14 -28,-17 -21,-20 -13,-22 -4,-22 -39,0 -3,22 -14,22 -21,20 -28,17 -35,14 -40,11 -42,6 -45,2 990,0z" /><path style="fill:#f7f7f7" d="M989,123 l-44,-2 -43,-6 -40,-11 -35,-14 -28,-17 -21,-20 -13,-22 -4,-22 -29,0 -4,22 -13,22 -21,20 -28,17 -35,14 -40,11 -43,6 -49,2 -49,-2 -43,-6 -40,-11 -35,-14 -28,-17 -21,-20 -13,-22 -4,-22 -29,0 -4,22 -13,22 -21,20 -28,17 -35,14 -40,11 -43,6 -44,2 980,0z" /><path style="fill:#000" d="M4,137 l0,5 990,0 0,-5 -990,0z" /><path style="fill:none;stroke:#7f7f7f;stroke-width:2" d="M223,61 l0,48" /><path style="fill:none;stroke:#7f7f7f;stroke-width:2" d="M214,71 l0,42" /><path style="fill:none;stroke:#7f7f7f;stroke-width:2" d="M204,80 l0,33" /><path style="fill:none;stroke:#7f7f7f;stroke-width:2" d="M194,85 l0,28" /><path style="fill:none;stroke:#7f7f7f;stroke-width:2" d="M185,90 l0,23" /><path style="fill:none;stroke:#7f7f7f;stroke-width:2" d="M176,95 l0,18" /><path style="fill:none;stroke:#7f7f7f;stroke-width:2" d="M166,99 l0,14" /><path style="fill:none;stroke:#7f7f7f;stroke-width:2" d="M156,104 l0,9" /><path style="fill:none;stroke:#7f7f7f;stroke-width:2" d="M147,109 l0,4" /><path style="fill:none;stroke:#7f7f7f;stroke-width:2" d="M137,109 l0,4" /><path style="fill:none;stroke:#7f7f7f;stroke-width:2" d="M128,113 l-10,0" /><path style="fill:none;stroke:#7f7f7f;stroke-width:2" d="M775,61 l0,48" /><path style="fill:none;stroke:#7f7f7f;stroke-width:2" d="M784,71 l0,42" /><path style="fill:none;stroke:#7f7f7f;stroke-width:2" d="M794,80 l0,33" /><path style="fill:none;stroke:#7f7f7f;stroke-width:2" d="M804,85 l0,28" /><path style="fill:none;stroke:#7f7f7f;stroke-width:2" d="M813,90 l0,23" /><path style="fill:none;stroke:#7f7f7f;stroke-width:2" d="M822,95 l0,18" /><path style="fill:none;stroke:#7f7f7f;stroke-width:2" d="M832,99 l0,14" /><path style="fill:none;stroke:#7f7f7f;stroke-width:2" d="M842,104 l0,9" /><path style="fill:none;stroke:#7f7f7f;stroke-width:2" d="M851,109 l0,4" /><path style="fill:none;stroke:#7f7f7f;stroke-width:2" d="M861,109 l0,4" /><path style="fill:none;stroke:#7f7f7f;stroke-width:2" d="M870,113 l10,0" /><path style="fill:none;stroke:#7f7f7f;stroke-width:2" d="M718,61 l0,48" /><path style="fill:none;stroke:#7f7f7f;stroke-width:2" d="M709,71 l0,42" /><path style="fill:none;stroke:#7f7f7f;stroke-width:2" d="M699,80 l0,33" /><path style="fill:none;stroke:#7f7f7f;stroke-width:2" d="M689,85 l0,28" /><path style="fill:none;stroke:#7f7f7f;stroke-width:2" d="M680,90 l0,23" /><path style="fill:none;stroke:#7f7f7f;stroke-width:2" d="M670,95 l0,18" /><path style="fill:none;stroke:#7f7f7f;stroke-width:2" d="M661,99 l0,14" /><path style="fill:none;stroke:#7f7f7f;stroke-width:2" d="M651,104 l0,9" /><path style="fill:none;stroke:#7f7f7f;stroke-width:2" d="M642,109 l0,4" /><path style="fill:none;stroke:#7f7f7f;stroke-width:2" d="M632,109 l0,4" /><path style="fill:none;stroke:#7f7f7f;stroke-width:2" d="M623,113 l-10,0" /><path style="fill:none;stroke:#7f7f7f;stroke-width:2" d="M280,61 l0,48" /><path style="fill:none;stroke:#7f7f7f;stroke-width:2" d="M289,71 l0,42" /><path style="fill:none;stroke:#7f7f7f;stroke-width:2" d="M299,80 l0,33" /><path style="fill:none;stroke:#7f7f7f;stroke-width:2" d="M309,85 l0,28" /><path style="fill:none;stroke:#7f7f7f;stroke-width:2" d="M318,90 l0,23" /><path style="fill:none;stroke:#7f7f7f;stroke-width:2" d="M328,95 l0,18" /><path style="fill:none;stroke:#7f7f7f;stroke-width:2" d="M337,99 l0,14" /><path style="fill:none;stroke:#7f7f7f;stroke-width:2" d="M347,104 l0,9" /><path style="fill:none;stroke:#7f7f7f;stroke-width:2" d="M356,109 l0,4" /><path style="fill:none;stroke:#7f7f7f;stroke-width:2" d="M366,109 l0,4" /><path style="fill:none;stroke:#7f7f7f;stroke-width:2" d="M375,113 l10,0" /><path style="fill:none;stroke:#fc0;stroke-width:2" d="M4,113 l990,0" /><path style="fill:#e5e5e5;stroke:#4c4c4c;stroke-width:2" d="M4,118 l228,0 0,-114 39,0 0,114 456,0 0,-114 39,0 0,114 228,0 0,19 -224,0 0,95 -47,0 0,-95 -448,0 0,95 -47,0 0,-95 -224,0 0,-19z" /><path style="fill:#ccc" d="M732,137 l0,95 29,0 0,-95 -29,0z" /><path style="fill:#ccc" d="M237,137 l0,95 29,0 0,-95 -29,0z" /><path style="fill:#ccc" d="M737,23 l0,95 19,0 0,-95 -19,0z" /><path style="fill:#ccc" d="M242,23 l0,95 19,0 0,-95 -19,0z" /><path style="fill:#666" d="M766,126 l223,0 0,3 -223,0 0,-3z" /><path style="fill:#666" d="M271,126 l456,0 0,3 -456,0 0,-3z" /><path style="fill:#666" d="M9,126 l223,0 0,3 -223,0 0,-3z" /><path style="fill:#fff" d="M766,129 l223,0 0,4 -223,0 0,-4z" /><path style="fill:#fff" d="M271,129 l456,0 0,4 -456,0 0,-4z" /><path style="fill:#fff" d="M9,129 l223,0 0,4 -223,0 0,-4z" /><path style="fill:#999" d="M737,118 l0,-95 19,0 0,5 -15,0 0,90 -4,0z" /><path style="fill:#999" d="M242,118 l0,-95 19,0 0,5 -14,0 0,90 -5,0z" /><path style="fill:#999" d="M732,232 l0,-95 29,0 0,5 -24,0 0,90 -5,0z" /><path style="fill:#999" d="M237,232 l0,-95 29,0 0,5 -24,0 0,90 -5,0z" /></svg>