<!DOCTYPE svg PUBLIC "-//W3C//DTD SVG 20000303 Stylable//EN" "http://www.w3.org/TR/2000/03/WD-SVG-20000303/DTD/svg-20000303-stylable.dtd"[]><svg xmlns="http://www.w3.org/2000/svg" width="998px" height="942px" viewBox="0 0 999 939"><path style="fill:#854002;stroke:#4c4c4c;stroke-width:2" d="M12,121 l9,-9 39,-19 25,-2 17,-4 32,-7 25,-4 29,-6 17,-11 17,-17 30,-25 17,-13 10,0 22,-4 2,0 10,0 7,0 22,4 8,0 17,13 29,25 20,17 17,11 24,6 30,4 29,7 20,4 22,2 39,19 12,9 7,12 0,14 -616,0 4,-14 8,-12z" /><path style="fill:#ababab;stroke:#4c4c4c;stroke-width:2" d="M247,112 l105,0 0,827 -105,0 0,-827z" /><path style="fill:none;stroke:#4c4c4c;stroke-width:2" d="M416,294 l583,511 -583,0 0,-511" /><path style="fill:none;stroke:#4c4c4c;stroke-width:2" d="M528,525 l206,175 -206,0 0,-175" /></svg>