<!DOCTYPE svg PUBLIC "-//W3C//DTD SVG 20000303 Stylable//EN" "http://www.w3.org/TR/2000/03/WD-SVG-20000303/DTD/svg-20000303-stylable.dtd"[]><svg xmlns="http://www.w3.org/2000/svg" width="999px" height="959px" viewBox="0 0 999 957"><path style="fill:#b2b2b2;stroke:#4c4c4c;stroke-width:2" d="M0,0 l999,0 0,957 -999,0 0,-957z" /><path style="fill:#cbe5e5" d="M41,41 l916,0 0,416 -916,0 0,-416z" /><path style="fill:#9cc" d="M41,41 l0,416 21,1 0,-396 895,0 0,-21 -895,0 -21,0z" /><path style="fill:#b3d9d9" d="M642,249 l-105,114 134,-109 90,-120 -119,115z" /><path style="fill:#b3d9d9" d="M62,62 l0,177 895,-167 0,-11 -895,1z" /><path style="fill:#fff" d="M814,440 l58,-48 37,-57 -56,61 -39,44z" /><path style="fill:#fff" d="M379,440 l183,-151 118,-183 -177,194 -124,140z" /><path style="fill:#fff" d="M502,102 l-118,97 -76,118 114,-125 80,-90z" /><path style="fill:none;stroke:#fff;stroke-width:2" d="M190,172 l91,-72" /><path style="fill:none;stroke:#fff;stroke-width:2" d="M147,239 l81,-67" /><path style="fill:#000;stroke:#4c4c4c;stroke-width:2" d="M41,499 l916,0 0,416 -916,0 0,-416z" /><path style="fill:#7f7f7f" d="M41,499 l0,416 21,0 0,-396 895,0 0,-21 -895,1 -21,0z" /><path style="fill:none;stroke:#fff;stroke-width:2" d="M957,499 l0,416 -916,0" /><path style="fill:none;stroke:#fff;stroke-width:2" d="M957,41 l0,416 -916,0" /><path style="fill:none;stroke:#4c4c4c;stroke-width:2" d="M41,457 l0,-416 916,0" /><path style="fill:none;stroke:#4c4c4c;stroke-width:2" d="M41,915 l0,-416 916,0" /></svg>