<!DOCTYPE svg PUBLIC "-//W3C//DTD SVG 1.1//EN" "http://www.w3.org/Graphics/SVG/1.1/DTD/svg11.dtd"[]><svg version="1.1" xmlns="http://www.w3.org/2000/svg" xmlns:xlink="http://www.w3.org/1999/xlink" width="34px" height="112px" viewBox="0 0 33.674 112.5" enable-background="new 0 0 33.674 112.5" xml:space="preserve">
<g id="Group_Blue_Sensor">
	<linearGradient id="SVGID_1_" gradientUnits="userSpaceOnUse" x1="2.5918" y1="18.2432" x2="33.6729" y2="18.2432">
		<stop offset="0" style="stop-color:#00008C" />
		<stop offset="0.5" style="stop-color:#0000FF" />
		<stop offset="1" style="stop-color:#00008C" />
	</linearGradient>
	<path fill="url(#SVGID_1_)" stroke="#4C4C4C" stroke-width="0.25" d="M2.592,4.167h31.081V32.32H2.592V4.167z" />
	<path fill="#0909FF" stroke="#4C4C4C" stroke-width="0.25" d="M2.592,16.104h19.144V32.32H2.592V16.104z" />
	<path fill="none" stroke="#4C4C4C" stroke-width="0.25" d="M2.592,16.104h31.081" />
	<path fill="#0000BF" stroke="#4C4C4C" stroke-width="0.25" d="M10.475,32.32h15.54v1.351h-15.54V32.32z" />
</g>
<g id="Group_Pointers">
	<path fill="#0000FF" stroke="#4C4C4C" stroke-width="0.25" d="M8.222,15.428h-5.63l-2.591-4.279L2.816,6.87h5.405l2.929,4.279   L8.222,15.428z" />
</g>
<g id="Group_Layer_6">
	<path fill="#B2B2B2" stroke="#4C4C4C" stroke-width="0.25" d="M7.772,14.752H3.268L0.79,11.148l2.478-3.604h4.504l2.478,3.604   L7.772,14.752z" />
	<circle fill="#4C4C4C" stroke="#4C4C4C" stroke-width="0.25" cx="5.407" cy="11.036" r="2.815" />
	<circle stroke="#4C4C4C" stroke-width="0.25" cx="5.52" cy="11.149" r="2.027" />
	<path fill="#4C4C4C" stroke="#4C4C4C" stroke-width="0.25" d="M9.799,15.428h4.054v4.054H9.799V15.428z" />
	<path fill="#666666" stroke="#4C4C4C" stroke-width="0.25" d="M11.826,16.104l1.126,0.451l0.225,0.675l-0.112,1.126l-0.901,0.45   h-0.563L10.7,18.131l-0.225-0.676l0.45-0.901L11.826,16.104z" />
</g>
<g id="Group_Tuner">
	<linearGradient id="SVGID_2_" gradientUnits="userSpaceOnUse" x1="2.5918" y1="2.0835" x2="33.6729" y2="2.0835">
		<stop offset="0.01" style="stop-color:#4D4D4D" />
		<stop offset="0.51" style="stop-color:#F5F5F5" />
		<stop offset="1" style="stop-color:#4D4D4D" />
	</linearGradient>
	<path fill="url(#SVGID_2_)" stroke="#4C4C4C" stroke-width="0.25" d="M2.592,4.167h31.081V0H2.592V4.167z" />
	<path fill="#999999" stroke="#4C4C4C" stroke-width="0.25" d="M5.52,0h4.279v2.59H5.52V0z" />
	<path fill="#999999" stroke="#4C4C4C" stroke-width="0.25" d="M13.853,0h4.279v2.59h-4.279V0z" />
	<path fill="#999999" stroke="#4C4C4C" stroke-width="0.25" d="M22.411,0h4.279v2.59h-4.279V0z" />
	<path fill="#999999" stroke="#4C4C4C" stroke-width="0.25" d="M30.744,0h2.929v2.59h-2.929V0z" />
</g>
<g id="Group_Layer_5">
	<linearGradient id="SVGID_3_" gradientUnits="userSpaceOnUse" x1="16.105" y1="80.1797" x2="20.3838" y2="80.1797">
		<stop offset="0.01" style="stop-color:#4D4D4D" />
		<stop offset="0.51" style="stop-color:#F5F5F5" />
		<stop offset="1" style="stop-color:#4D4D4D" />
	</linearGradient>
	<path fill="url(#SVGID_3_)" stroke="#4C4C4C" stroke-width="0.25" d="M16.105,47.86h4.279v64.64h-4.279V47.86z" />
</g>
<g id="Group_Detector">
	<linearGradient id="SVGID_4_" gradientUnits="userSpaceOnUse" x1="15.4302" y1="42.0044" x2="21.0596" y2="42.0044">
		<stop offset="0.01" style="stop-color:#4D4D4D" />
		<stop offset="0.51" style="stop-color:#F5F5F5" />
		<stop offset="1" style="stop-color:#4D4D4D" />
	</linearGradient>
	<path fill="url(#SVGID_4_)" stroke="#4C4C4C" stroke-width="0.25" d="M15.43,36.374h5.629v11.261H15.43V36.374z" />
	<linearGradient id="SVGID_5_" gradientUnits="userSpaceOnUse" x1="14.0781" y1="41.4414" x2="22.4111" y2="41.4414">
		<stop offset="0.01" style="stop-color:#4D4D4D" />
		<stop offset="0.51" style="stop-color:#F5F5F5" />
		<stop offset="1" style="stop-color:#4D4D4D" />
	</linearGradient>
	<path fill="url(#SVGID_5_)" stroke="#4C4C4C" stroke-width="0.25" d="M14.078,39.302h8.333v4.279h-8.333V39.302" />
	<linearGradient id="SVGID_6_" gradientUnits="userSpaceOnUse" x1="9.7988" y1="35.0225" x2="26.6904" y2="35.0225">
		<stop offset="0.01" style="stop-color:#4D4D4D" />
		<stop offset="0.51" style="stop-color:#F5F5F5" />
		<stop offset="1" style="stop-color:#4D4D4D" />
	</linearGradient>
	<path fill="url(#SVGID_6_)" stroke="#4C4C4C" stroke-width="0.25" d="M9.799,33.671H26.69v2.703H9.799V33.671" />
</g>
</svg>