<!DOCTYPE svg PUBLIC "-//W3C//DTD SVG 1.1//EN" "http://www.w3.org/Graphics/SVG/1.1/DTD/svg11.dtd"[]><svg version="1.1" xmlns="http://www.w3.org/2000/svg" xmlns:xlink="http://www.w3.org/1999/xlink" width="112px" height="76px" viewBox="0 0 112.5 76.277" enable-background="new 0 0 112.5 76.277" xml:space="preserve">
<g id="Group_Scanner">
	<linearGradient id="SVGID_1_" gradientUnits="userSpaceOnUse" x1="18.2251" y1="57.6013" x2="18.2251" y2="1.3518">
		<stop offset="0.01" style="stop-color:#1F1F1F" />
		<stop offset="0.51" style="stop-color:#BFBFBF" />
		<stop offset="1" style="stop-color:#1F1F1F" />
	</linearGradient>
	<path fill="url(#SVGID_1_)" stroke="#4C4C4C" stroke-width="0.25" d="M0,1.351h36.45v56.25H0V1.351z" />
	<path fill="#999999" d="M36.45,52.876H18.675V5.851H36.45V52.876z" />
	<path fill="#666666" d="M36.45,45.676H20.025V13.051H36.45V45.676z" />
</g>
<g id="Group_Camera_Unit">
	<linearGradient id="SVGID_2_" gradientUnits="userSpaceOnUse" x1="66.1494" y1="57.6013" x2="66.1494" y2="1.3518">
		<stop offset="0" style="stop-color:#00008C" />
		<stop offset="0.5" style="stop-color:#0000FF" />
		<stop offset="1" style="stop-color:#00008C" />
	</linearGradient>
	<path fill="url(#SVGID_2_)" stroke="#4C4C4C" stroke-width="0.25" d="M47.925,1.351h36.45v56.25h-36.45V1.351z" />
	<path fill="#003399" d="M49.275,44.101H83.25v9.225H49.275V44.101z" />
</g>
<g id="Group_Blue_Cam">
	<path fill="#00FFFF" d="M49.275,9.451H83.25v5.85H49.275V9.451z" />
</g>
<g id="Group_Reset">
	<ellipse fill="#333333" stroke="#4C4C4C" stroke-width="0.25" cx="52.875" cy="4.501" rx="3.6" ry="2.025" />
	<path fill="none" stroke="#7F7F7F" stroke-width="0.25" d="M55.125,3.601l1.125,1.125" />
	<path fill="none" stroke="#7F7F7F" stroke-width="0.25" d="M49.275,4.726L50.4,3.601l2.25-0.677l2.475,0.677" />
	<path fill="none" stroke="#FFFFFF" stroke-width="0.25" d="M52.65,6.526v-4.05" />
</g>
<g id="Group_Scan_Adjuster">
	<path fill="#7F7F7F" d="M1.125,0.001h1.35v58.727h-1.35V0.001z" />
	<path fill="#333333" stroke="#7F7F7F" stroke-width="0.25" d="M3.6,0.001h4.725v58.727H3.6V0.001z" />
</g>
<g id="Group_Holder">
	<linearGradient id="SVGID_3_" gradientUnits="userSpaceOnUse" x1="35.1001" y1="63.3386" x2="49.2749" y2="63.3386">
		<stop offset="0.01" style="stop-color:#1F1F1F" />
		<stop offset="0.05" style="stop-color:#383838" />
		<stop offset="0.11" style="stop-color:#525252" />
		<stop offset="0.18" style="stop-color:#666666" />
		<stop offset="0.26" style="stop-color:#757575" />
		<stop offset="0.35" style="stop-color:#7D7D7D" />
		<stop offset="0.51" style="stop-color:#808080" />
		<stop offset="0.66" style="stop-color:#7D7D7D" />
		<stop offset="0.75" style="stop-color:#757575" />
		<stop offset="0.83" style="stop-color:#666666" />
		<stop offset="0.89" style="stop-color:#525252" />
		<stop offset="0.95" style="stop-color:#383838" />
		<stop offset="1" style="stop-color:#1F1F1F" />
	</linearGradient>
	<path fill="url(#SVGID_3_)" stroke="#7F7F7F" stroke-width="0.25" d="M35.1,50.401h14.175v25.875H35.1V50.401z" />
	<linearGradient id="SVGID_4_" gradientUnits="userSpaceOnUse" x1="36.4502" y1="25.3137" x2="48.1499" y2="25.3137">
		<stop offset="0.01" style="stop-color:#1F1F1F" />
		<stop offset="0.05" style="stop-color:#383838" />
		<stop offset="0.11" style="stop-color:#525252" />
		<stop offset="0.18" style="stop-color:#666666" />
		<stop offset="0.26" style="stop-color:#757575" />
		<stop offset="0.35" style="stop-color:#7D7D7D" />
		<stop offset="0.51" style="stop-color:#808080" />
		<stop offset="0.66" style="stop-color:#7D7D7D" />
		<stop offset="0.75" style="stop-color:#757575" />
		<stop offset="0.83" style="stop-color:#666666" />
		<stop offset="0.89" style="stop-color:#525252" />
		<stop offset="0.95" style="stop-color:#383838" />
		<stop offset="1" style="stop-color:#1F1F1F" />
	</linearGradient>
	<path fill="url(#SVGID_4_)" stroke="#7F7F7F" stroke-width="0.25" d="M48.15,0.226h-11.7v50.175h11.7V0.226z" />
</g>
<g id="Group_Winding_Back">
	<path stroke="#7F7F7F" stroke-width="0.25" d="M104.175,25.201l2.476-0.675l2.25,9l-2.25,0.675L104.175,25.201z" />
	<path stroke="#7F7F7F" stroke-width="0.25" d="M99.675,25.201l2.25-0.675l2.476,9l-2.476,0.675L99.675,25.201z" />
	<path stroke="#7F7F7F" stroke-width="0.25" d="M94.95,25.201l2.25-0.675l2.475,9l-2.25,0.675L94.95,25.201z" />
</g>
<g id="Group_Line">
	<linearGradient id="SVGID_5_" gradientUnits="userSpaceOnUse" x1="87.8623" y1="36.4509" x2="87.8623" y2="22.2761">
		<stop offset="0.01" style="stop-color:#595959" />
		<stop offset="0.51" style="stop-color:#E0E0E0" />
		<stop offset="1" style="stop-color:#595959" />
	</linearGradient>
	<path fill="url(#SVGID_5_)" stroke="#7F7F7F" stroke-width="0.25" d="M84.375,36.451l6.975-1.125V23.401l-6.975-1.125V36.451z" />
	<linearGradient id="SVGID_6_" gradientUnits="userSpaceOnUse" x1="101.9248" y1="30.6023" x2="101.9248" y2="28.1257">
		<stop offset="0.01" style="stop-color:#595959" />
		<stop offset="0.51" style="stop-color:#E0E0E0" />
		<stop offset="1" style="stop-color:#595959" />
	</linearGradient>
	<path fill="url(#SVGID_6_)" stroke="#7F7F7F" stroke-width="0.25" d="M91.35,28.126h21.15v2.477H91.35V28.126z" />
</g>
<g id="Group_Winding">
	<path fill="#333333" stroke="#7F7F7F" stroke-width="0.25" d="M109.125,24.526l2.25,0.675l-2.475,9l-2.25-0.675L109.125,24.526z" />
	<path fill="#333333" stroke="#7F7F7F" stroke-width="0.25" d="M104.4,24.526l2.25,0.675l-2.477,9l-2.25-0.675L104.4,24.526z" />
	<path fill="#333333" stroke="#7F7F7F" stroke-width="0.25" d="M99.675,24.526l2.25,0.675l-2.475,9l-2.25-0.675L99.675,24.526z" />
	<path fill="#333333" stroke="#7F7F7F" stroke-width="0.25" d="M94.95,24.526l2.25,0.675l-2.25,9l-2.25-0.675L94.95,24.526z" />
</g>
</svg>