<!DOCTYPE svg PUBLIC "-//W3C//DTD SVG 1.1//EN" "http://www.w3.org/Graphics/SVG/1.1/DTD/svg11.dtd"[]><svg version="1.1" xmlns="http://www.w3.org/2000/svg" xmlns:xlink="http://www.w3.org/1999/xlink" width="112px" height="38px" viewBox="0 0 112.5 38.174" enable-background="new 0 0 112.5 38.174" xml:space="preserve">
<g id="Group_Machine_Camera">
	<path fill="#CCCCCC" stroke="#4C4C4C" stroke-width="0.25" d="M71.959,0H4.394v38.174h67.565V0z" />
	<path fill="#999999" stroke="#4C4C4C" stroke-width="0.25" d="M71.959,0H62.95v35.922h9.009V0" />
</g>
<g id="Group_Camera_Projectors">
	<linearGradient id="SVGID_1_" gradientUnits="userSpaceOnUse" x1="74.2109" y1="32.9951" x2="74.2109" y2="2.8164">
		<stop offset="0.01" style="stop-color:#595959" />
		<stop offset="0.51" style="stop-color:#E0E0E0" />
		<stop offset="1" style="stop-color:#595959" />
	</linearGradient>
	<path fill="url(#SVGID_1_)" d="M71.959,2.816h4.504v30.179h-4.504V2.816z" />
	<linearGradient id="SVGID_2_" gradientUnits="userSpaceOnUse" x1="98.9854" y1="33.6699" x2="98.9854" y2="2.1406">
		<stop offset="0.01" style="stop-color:#595959" />
		<stop offset="0.51" style="stop-color:#E0E0E0" />
		<stop offset="1" style="stop-color:#595959" />
	</linearGradient>
	<path fill="url(#SVGID_2_)" d="M85.473,2.14h27.025v31.53H85.473V2.14" />
</g>
<g id="Group_Layer_6">
	<linearGradient id="SVGID_3_" gradientUnits="userSpaceOnUse" x1="2.1978" y1="11.1489" x2="2.1978" y2="2.1401">
		<stop offset="0.01" style="stop-color:#595959" />
		<stop offset="0.51" style="stop-color:#E0E0E0" />
		<stop offset="1" style="stop-color:#595959" />
	</linearGradient>
	<path fill="url(#SVGID_3_)" d="M4.394,2.14H0.002v9.009h4.392V2.14" />
</g>
<g id="Group_Vision_Unit">
	<path fill="#8C8C8C" stroke="#4C4C4C" stroke-width="0.25" d="M60.698,33.67H6.646v4.504h54.052V33.67z" />
</g>
<g id="Group_Label">
	<path fill="#CCCCFF" stroke="#4C4C4C" stroke-width="0.25" d="M60.248,23.985H46.059v3.604h14.189V23.985z" />
</g>
<g id="Group_Adjusters">
	<linearGradient id="SVGID_4_" gradientUnits="userSpaceOnUse" x1="100.1113" y1="34.1201" x2="100.1113" y2="1.6895">
		<stop offset="0.01" style="stop-color:#1F1F1F" />
		<stop offset="0.51" style="stop-color:#A6A6A6" />
		<stop offset="1" style="stop-color:#1F1F1F" />
	</linearGradient>
	<path fill="url(#SVGID_4_)" d="M95.607,1.689h9.008V34.12h-9.008V1.689z" />
	<linearGradient id="SVGID_5_" gradientUnits="userSpaceOnUse" x1="80.9678" y1="34.1201" x2="80.9678" y2="1.6895">
		<stop offset="0.01" style="stop-color:#1F1F1F" />
		<stop offset="0.51" style="stop-color:#A6A6A6" />
		<stop offset="1" style="stop-color:#1F1F1F" />
	</linearGradient>
	<path fill="url(#SVGID_5_)" d="M76.463,1.689h9.01V34.12h-9.01V1.689" />
</g>
</svg>