<!DOCTYPE svg PUBLIC "-//W3C//DTD SVG 20000303 Stylable//EN" "http://www.w3.org/TR/2000/03/WD-SVG-20000303/DTD/svg-20000303-stylable.dtd"[]><svg xmlns="http://www.w3.org/2000/svg" width="999px" height="799px" viewBox="0 0 999 787"><path style="fill:#f30;stroke:#4c4c4c;stroke-width:2" d="M117,206 l38,112 0,151 -38,112 231,131 225,38 111,37 76,-18 55,-57 20,-169 0,-299 -20,-169 -55,-58 -76,-17 -111,37 -225,38 -231,131z" /><path style="fill:#f96" d="M690,286 l52,-6 111,113 -131,114 -32,-6 -28,-38 -16,-46 0,-47 16,-46 28,-38z" /><path style="fill:#000" d="M760,318 l-32,-60 46,-14 97,0 46,14 40,28 28,38 14,46 0,47 -14,46 -28,38 -40,28 -44,14 -99,0 -46,-14 -6,-60 0,-58 38,-93z" /><path style="fill:none;stroke:#4c4c4c;stroke-width:2" d="M610,600 l-244,-19 -211,-112" /><path style="fill:none;stroke:#4c4c4c;stroke-width:2" d="M610,187 l-244,19 -211,112" /><path style="fill:#f96;stroke:#4c4c4c;stroke-width:2" d="M117,581 l-86,-18 -4,-14 -18,-20 -6,-22 -3,-20 9,-32 22,-14 38,8 20,-14 66,34 -20,56 -18,56z" /><path style="fill:#f96;stroke:#4c4c4c;stroke-width:2" d="M117,206 l-86,18 -4,14 -18,20 -6,22 -3,20 9,32 22,14 38,-8 20,14 66,-34 -20,-56 -18,-56z" /></svg>