<!DOCTYPE svg PUBLIC "-//W3C//DTD SVG 20000303 Stylable//EN" "http://www.w3.org/TR/2000/03/WD-SVG-20000303/DTD/svg-20000303-stylable.dtd"[]><svg xmlns="http://www.w3.org/2000/svg" width="999px" height="841px" viewBox="0 0 999 832"><path style="fill:#98987f" d="M957,832 l-250,0 -83,-396 -62,-41 0,-146 270,0 125,583z" /><path style="fill:#cbcbb2" d="M915,811 l-166,0 -83,-395 -63,-42 0,-125 187,0 125,562z" /><path style="fill:#e5e5cc;stroke:#4c4c4c;stroke-width:2" d="M124,249 l812,0 0,-249 -812,0 0,249z" /><path style="fill:#b2b299" d="M166,229 l729,0 0,-209 -729,0 0,209z" /><path style="fill:#b2b299;stroke:#4c4c4c;stroke-width:2" d="M999,166 l-63,0 0,-83 63,0 0,83z" /><path style="fill:#b2b299;stroke:#4c4c4c;stroke-width:2" d="M124,249 l-124,0 0,-249 124,0 0,249z" /><path style="fill:none;stroke:#4c4c4c;stroke-width:2" d="M957,832 l-250,0 -83,-396 -62,-41 0,-146 270,0 125,583" /></svg>