<!DOCTYPE svg PUBLIC "-//W3C//DTD SVG 20000303 Stylable//EN" "http://www.w3.org/TR/2000/03/WD-SVG-20000303/DTD/svg-20000303-stylable.dtd"[]><svg xmlns="http://www.w3.org/2000/svg" width="999px" height="371px" viewBox="0 0 999 333"><path style="fill:#fff" d="M0,0 l999,0 0,333 -999,0 0,-333z" /><path style="fill:#000;stroke:#4c4c4c;stroke-width:2" d="M0,0 l62,0 0,333 -62,0 0,-333z" /><path style="fill:#000;stroke:#4c4c4c;stroke-width:2" d="M83,0 l62,0 0,333 -62,0 0,-333z" /><path style="fill:#000;stroke:#4c4c4c;stroke-width:2" d="M209,0 l62,0 0,333 -62,0 0,-333z" /><path style="fill:#000;stroke:#4c4c4c;stroke-width:2" d="M291,0 l20,0 0,333 -20,0 0,-333z" /><path style="fill:#000;stroke:#4c4c4c;stroke-width:2" d="M333,0 l42,0 0,333 -42,0 0,-333z" /><path style="fill:#000;stroke:#4c4c4c;stroke-width:2" d="M395,0 l42,0 0,333 -42,0 0,-333z" /><path style="fill:#000;stroke:#4c4c4c;stroke-width:2" d="M499,0 l62,0 0,333 -62,0 0,-333z" /><path style="fill:#000;stroke:#4c4c4c;stroke-width:2" d="M583,0 l62,0 0,333 -62,0 0,-333z" /><path style="fill:#000;stroke:#4c4c4c;stroke-width:2" d="M791,0 l62,0 0,333 -62,0 0,-333z" /><path style="fill:#000;stroke:#4c4c4c;stroke-width:2" d="M665,0 l20,0 0,333 -20,0 0,-333z" /><path style="fill:#000;stroke:#4c4c4c;stroke-width:2" d="M749,0 l20,0 0,333 -20,0 0,-333z" /><path style="fill:#000;stroke:#4c4c4c;stroke-width:2" d="M875,0 l20,0 0,333 -20,0 0,-333z" /><path style="fill:#000;stroke:#4c4c4c;stroke-width:2" d="M916,0 l42,0 0,333 -42,0 0,-333z" /><path style="fill:#000;stroke:#4c4c4c;stroke-width:2" d="M978,0 l21,0 0,333 -21,0 0,-333z" /></svg>