<!DOCTYPE svg PUBLIC "-//W3C//DTD SVG 20000303 Stylable//EN" "http://www.w3.org/TR/2000/03/WD-SVG-20000303/DTD/svg-20000303-stylable.dtd"[]><svg xmlns="http://www.w3.org/2000/svg" width="601px" height="999px" viewBox="0 0 577 999"><path style="fill:#000" d="M577,999 l0,-882 -124,-117 -329,0 -124,117 0,882 577,0z" /><path style="fill:#ff0" d="M573,994 l0,-873 -123,-118 -324,0 -122,118 0,873 569,0z" /><circle style="fill:#000" cx="288" cy="72" r="51" /><circle style="fill:#ff0" cx="288" cy="72" r="46" /><circle style="fill:#000" cx="288" cy="72" r="36" /><circle style="fill:#fff" cx="288" cy="71" r="32" /><path style="fill:#000" d="M27,140 l524,0 0,180 -524,0 0,-180z" /><path style="fill:#ff0" d="M206,249 l0,-76 17,0 0,75 0,2 0,3 2,3 1,2 3,3 2,1 3,1 3,0 3,0 3,0 2,-1 3,-1 2,-3 2,-2 1,-3 1,-5 0,-75 17,0 0,75 0,4 -1,7 -2,7 -4,5 -4,5 -5,3 -6,2 -6,2 -6,0 -6,-1 -6,-2 -5,-3 -5,-4 -4,-5 -3,-7 -2,-12z" /><path style="fill:#ff0" d="M473,278 l0,-105 17,0 34,72 0,-72 17,0 0,105 -17,0 -33,-71 0,71 -18,0z" /><ellipse style="fill:#ff0" cx="422" cy="227" rx="41" ry="55" /><path style="fill:#ff0" d="M353,278 l0,-105 18,0 0,105 -18,0z" /><path style="fill:#ff0" d="M303,278 l0,-87 -24,0 0,-18 66,0 0,18 -24,0 0,87 -18,0z" /><path style="fill:#ff0" d="M118,278 l29,-105 20,0 28,105 -17,0 -6,-21 -30,0 -6,21 -18,0z" /><path style="fill:#ff0" d="M39,224 l0,-3 0,-6 1,-5 1,-5 1,-5 2,-5 2,-4 2,-4 3,-3 2,-3 3,-3 4,-2 3,-1 3,-2 5,-1 6,0 1,0 4,0 4,1 3,1 3,1 3,2 3,2 2,2 3,2 2,3 1,3 2,4 1,3 1,4 1,4 1,6 -17,0 0,0 0,-2 -1,-1 0,-2 0,-2 -1,-2 -1,-1 -1,-2 0,-1 -2,-2 -1,-1 -2,-1 -1,-1 -2,-1 -2,-1 -3,0 -2,0 -2,0 -2,1 -3,1 -2,2 -2,1 -2,2 -1,3 -2,2 -1,3 -1,3 -1,3 -1,4 0,4 0,3 -1,7 0,1 1,3 0,3 0,4 1,2 1,3 1,3 1,3 2,2 1,2 2,3 1,1 3,2 2,1 2,0 3,1 1,0 1,0 2,-1 1,0 2,0 1,-1 2,-1 1,-1 2,-1 1,-2 1,-1 1,-2 1,-2 1,-2 0,-2 1,-4 17,0 0,1 0,4 -1,3 -1,4 -1,3 -1,4 -2,3 -2,3 -2,3 -3,3 -3,2 -3,2 -3,2 -4,1 -4,1 -5,1 -2,0 -4,-1 -4,-1 -4,-1 -3,-2 -3,-2 -3,-3 -3,-3 -3,-4 -2,-4 -2,-5 -2,-5 -1,-5 -1,-6 -1,-6 0,-11z" /><ellipse style="fill:#000" cx="422" cy="227" rx="24" ry="36" /><path style="fill:#000" d="M157,199 l-9,40 19,0 -10,-40z" /></svg>