<!DOCTYPE svg PUBLIC "-//W3C//DTD SVG 20000303 Stylable//EN" "http://www.w3.org/TR/2000/03/WD-SVG-20000303/DTD/svg-20000303-stylable.dtd"[]><svg xmlns="http://www.w3.org/2000/svg" width="999px" height="237px" viewBox="0 0 999 191"><path style="fill:#333;stroke:#4c4c4c;stroke-width:2" d="M9,151 l-9,0 0,-116 9,0 4,-4 4,-3 4,-4 4,-3 4,-4 5,-3 5,-2 5,-3 5,-2 5,-2 5,-2 5,-1 6,-1 5,-1 5,0 5,0 5,0 5,0 5,1 4,0 5,2 5,1 4,1 4,2 5,2 4,2 4,3 4,2 3,3 4,3 3,3 4,3 3,3 3,4 3,3 3,4 2,4 3,4 2,4 2,5 1,4 2,4 1,5 1,4 1,5 1,5 0,5 0,4 0,5 0,5 -1,5 -1,4 -1,5 -1,5 -2,4 -1,4 -2,5 -2,4 -3,4 -2,4 -3,3 -3,4 -3,3 -3,4 -4,3 -3,3 -4,3 -3,3 -4,2 -4,3 -4,2 -5,2 -4,1 -4,2 -5,1 -5,1 -4,1 -5,1 -5,0 -5,0 -6,0 -5,0 -6,-1 -6,-2 -5,-1 -5,-2 -6,-2 -5,-3 -4,-2 -5,-3 -4,-4 -4,-3 -4,-4 -4,-4 -3,-4 -4,-5z" /><path style="fill:#333;stroke:#4c4c4c;stroke-width:2" d="M999,151 l-88,0 -4,5 -4,4 -4,4 -4,4 -4,3 -5,4 -4,3 -5,2 -5,3 -5,2 -6,2 -5,1 -6,2 -5,1 -6,0 -6,0 -5,0 -5,0 -5,-1 -4,-1 -5,-1 -4,-1 -5,-2 -4,-1 -4,-2 -4,-2 -4,-3 -4,-2 -4,-3 -3,-3 -3,-3 -4,-3 -3,-4 -3,-3 -3,-4 -2,-3 -3,-4 -2,-4 -2,-4 -2,-5 -2,-4 -1,-4 -1,-5 -1,-5 -1,-4 -1,-5 0,-5 0,-5 0,-4 0,-5 1,-5 1,-5 1,-4 1,-5 1,-4 2,-4 2,-5 2,-4 2,-4 3,-4 2,-4 3,-3 3,-4 3,-3 4,-3 3,-3 3,-3 4,-3 4,-2 4,-3 4,-2 4,-2 4,-2 5,-1 4,-1 5,-2 4,0 5,-1 5,0 5,0 5,0 6,0 5,1 6,1 5,1 5,2 5,2 5,2 5,3 5,2 4,3 4,4 5,3 3,4 4,3 4,4 90,0 0,116z" /><path style="fill:#333;stroke:#4c4c4c;stroke-width:2" d="M513,149 l-114,2 -3,5 -4,4 -3,4 -4,4 -5,3 -4,4 -5,3 -5,2 -5,3 -5,2 -5,2 -6,1 -5,2 -6,1 -5,0 -6,0 -5,0 -4,0 -5,-1 -5,-1 -4,-1 -5,-1 -4,-2 -5,-1 -4,-2 -4,-2 -4,-3 -4,-2 -4,-3 -3,-3 -4,-3 -3,-3 -3,-4 -3,-3 -3,-4 -3,-3 -3,-4 -2,-4 -2,-4 -2,-5 -2,-4 -1,-4 -2,-5 -1,-5 -1,-4 0,-5 -1,-5 0,-5 0,-4 1,-5 0,-5 1,-5 1,-4 2,-5 1,-4 2,-4 2,-5 2,-4 2,-4 3,-4 3,-4 3,-3 3,-4 3,-3 3,-3 4,-3 3,-3 4,-3 4,-2 4,-3 4,-2 4,-2 5,-2 4,-1 5,-1 4,-2 5,0 5,-1 4,0 5,0 6,0 5,0 6,1 5,1 5,1 6,2 5,2 5,2 4,3 5,2 5,3 4,4 4,3 4,4 4,3 3,4 116,0 3,-4 4,-3 4,-4 4,-3 5,-4 4,-3 5,-2 5,-3 5,-2 5,-2 6,-2 5,-1 5,-1 5,-1 6,0 5,0 5,0 4,0 5,1 5,0 4,2 5,1 4,1 5,2 4,2 4,2 4,3 4,2 4,3 4,3 3,3 3,3 4,3 3,4 2,3 3,4 3,4 2,4 2,4 2,5 2,4 1,4 2,5 1,4 1,5 0,5 1,5 0,4 0,5 -1,5 0,5 -1,4 -1,5 -2,5 -1,4 -2,4 -2,5 -2,4 -2,4 -3,4 -3,3 -2,4 -3,3 -4,4 -3,3 -3,3 -4,3 -4,3 -4,2 -4,3 -4,2 -4,2 -5,1 -4,2 -5,1 -4,1 -5,1 -5,1 -4,0 -5,0 -6,0 -6,0 -6,-1 -6,-2 -5,-1 -6,-2 -5,-2 -5,-3 -5,-3 -5,-3 -4,-3 -5,-4 -4,-4 -3,-4 -4,-5 -3,-5z" /><path style="fill:#4c4c4c;stroke:#4c4c4c;stroke-width:2" d="M763,145 l-102,0 -3,4 -4,4 -3,4 -4,3 -4,3 -4,3 -4,3 -5,3 -4,2 -5,2 -5,1 -5,2 -5,1 -5,1 -5,0 -5,0 -5,0 -4,0 -4,-1 -5,0 -4,-1 -4,-2 -4,-1 -4,-1 -4,-2 -4,-2 -3,-2 -4,-2 -3,-3 -4,-2 -3,-3 -3,-3 -3,-3 -3,-3 -2,-3 -3,-3 -2,-4 -2,-3 -2,-4 -2,-4 -2,-4 -1,-4 -1,-4 -1,-4 -1,-4 -1,-5 0,-4 0,-5 0,-4 0,-5 1,-4 1,-4 1,-4 1,-5 1,-4 2,-4 2,-3 2,-4 2,-4 2,-3 3,-4 2,-3 3,-3 3,-4 3,-2 3,-3 4,-3 3,-2 4,-3 3,-2 4,-2 4,-2 4,-1 4,-2 4,-1 4,-1 5,0 4,-1 4,0 5,-1 5,1 5,0 4,1 5,1 5,1 5,2 4,2 5,2 4,2 4,3 4,3 4,3 4,3 3,3 4,4 3,3 106,0 3,-4 3,-3 4,-4 3,-3 4,-3 4,-3 5,-2 4,-3 4,-2 5,-2 5,-1 4,-1 5,-1 5,-1 5,0 5,-1 4,1 5,0 4,1 4,0 4,1 5,1 4,2 4,1 3,2 4,2 4,2 4,3 3,2 3,3 4,3 3,2 3,4 2,3 3,3 2,4 3,3 2,4 2,4 2,3 1,4 2,4 1,5 1,4 1,4 0,4 0,5 1,4 -1,5 0,4 0,5 -1,4 -1,4 -1,4 -2,4 -1,4 -2,4 -2,4 -2,3 -3,4 -2,3 -3,3 -2,3 -3,3 -3,3 -4,3 -3,2 -3,3 -4,2 -4,2 -4,2 -3,2 -4,1 -4,1 -5,2 -4,1 -4,0 -4,1 -5,0 -4,0 -6,0 -5,0 -5,-1 -5,-1 -5,-2 -5,-1 -5,-2 -5,-2 -4,-3 -4,-3 -4,-3 -4,-3 -4,-3 -3,-4 -3,-4 -3,-4z" /><path style="fill:#4c4c4c;stroke:#4c4c4c;stroke-width:2" d="M257,145 l-102,0 -3,4 -3,4 -4,4 -3,3 -4,3 -4,3 -5,3 -4,3 -5,2 -4,2 -5,1 -5,2 -5,1 -5,1 -5,0 -6,0 -9,0 -8,-1 -8,-3 -8,-2 -8,-4 -7,-4 -6,-5 -6,-6 -6,-6 -5,-6 -4,-7 -4,-8 -3,-8 -2,-8 -1,-9 0,-9 0,-4 0,-5 0,-4 1,-4 1,-4 1,-5 2,-4 1,-4 2,-3 2,-4 2,-4 2,-3 2,-4 3,-3 3,-3 3,-4 2,-2 4,-3 3,-3 3,-2 4,-3 3,-2 4,-2 4,-2 4,-1 4,-2 4,-1 4,-1 4,0 4,-1 5,0 4,-1 5,1 5,0 5,1 5,1 5,1 4,2 5,2 4,2 5,2 4,3 4,3 4,3 4,3 4,3 4,4 3,3 104,0 4,-3 3,-4 4,-3 4,-3 4,-3 4,-3 5,-3 4,-2 5,-2 4,-2 5,-2 5,-1 5,-1 4,-1 5,0 5,-1 5,1 4,0 4,1 5,0 4,1 4,1 4,2 4,1 4,2 3,2 4,2 3,3 4,2 3,3 3,3 3,2 3,4 3,3 2,3 3,4 2,3 2,4 2,4 1,3 2,4 1,4 1,5 1,4 1,4 1,4 0,5 0,4 0,9 -2,9 -2,8 -3,8 -3,8 -4,7 -5,6 -6,6 -6,6 -7,5 -7,4 -7,4 -8,2 -8,3 -9,1 -9,0 -5,0 -6,0 -5,-1 -5,-1 -6,-2 -5,-1 -4,-2 -5,-2 -5,-3 -4,-3 -4,-3 -4,-3 -4,-3 -3,-4 -4,-4 -3,-4z" /><circle style="fill:#ccc;stroke:#4c4c4c;stroke-width:2" cx="833" cy="95" r="30" /><circle style="fill:#ccc;stroke:#4c4c4c;stroke-width:2" cx="590" cy="95" r="31" /><circle style="fill:#ccc;stroke:#4c4c4c;stroke-width:2" cx="328" cy="95" r="31" /><circle style="fill:#ccc;stroke:#4c4c4c;stroke-width:2" cx="85" cy="95" r="30" /></svg>