<!DOCTYPE svg PUBLIC "-//W3C//DTD SVG 20000303 Stylable//EN" "http://www.w3.org/TR/2000/03/WD-SVG-20000303/DTD/svg-20000303-stylable.dtd"[]><svg xmlns="http://www.w3.org/2000/svg" width="964px" height="999px" viewBox="0 0 962 999"><path style="fill:#808080;fill-rule:evenodd" d="M292,228 l13,1 12,4 11,6 10,8 8,9 6,11 3,12 2,13 -2,13 -3,12 -6,12 -8,10 -10,8 -11,6 -12,4 -13,2 -13,-2 -12,-4 -11,-6 -9,-8 -8,-10 -6,-12 -4,-12 -1,-13 1,-13 4,-12 6,-11 8,-9 9,-8 11,-6 12,-4 13,-1z M281,62 l60,8 68,-53 51,27 -15,80 37,45 85,8 18,55 -63,56 -6,61 51,60 -27,51 -84,-12 -43,36 -4,83 -56,18 -53,-65 -61,-6 -62,53 -51,-27 0,-97 -35,-45 -74,11 -17,-56 64,-59 8,-60 -55,-57 27,-53 74,22 43,-37 16,-92 55,-17 49,62z M634,643 l6,-2 6,-2 6,-2 6,0 6,-1 6,1 7,1 6,1 5,2 6,3 5,3 6,4 4,4 5,5 4,5 3,6 3,6 2,6 2,6 0,6 1,6 0,6 -1,7 -2,6 -2,5 -2,6 -3,6 -4,5 -4,5 -4,4 -5,4 -6,4 -6,3 -7,2 -6,1 -6,1 -7,0 -6,0 -6,-1 -6,-2 -6,-2 -6,-3 -5,-3 -5,-4 -5,-4 -4,-5 -4,-5 -3,-6 -3,-6 -2,-6 -2,-6 -1,-6 0,-7 0,-6 1,-6 2,-6 2,-6 2,-6 3,-5 4,-5 4,-5 5,-4 5,-4 6,-4z M544,505 l56,-23 35,-77 57,0 26,77 52,21 80,-35 43,41 -29,78 23,56 75,30 0,56 -78,30 -24,52 37,76 -41,43 -78,-31 -55,22 -29,78 -59,0 -44,-86 -53,-24 -58,43 -43,-41 29,-82 -23,-54 -75,-26 0,-58 75,-18 19,-53 -31,-86 41,-40 72,31z " /><circle style="fill:none;stroke:#4c4c4c;stroke-width:2" cx="292" cy="293" r="64" /><path style="fill:none;stroke:#4c4c4c;stroke-width:2" d="M281,62 l60,8 68,-53 51,27 -15,80 37,45 85,8 18,55 -63,56 -6,61 51,60 -27,51 -84,-12 -43,36 -4,83 -56,18 -53,-65 -61,-6 -62,53 -51,-27 0,-97 -35,-45 -74,11 -17,-56 64,-59 8,-60 -55,-57 27,-53 74,22 43,-37 16,-92 55,-17 49,62" /><circle style="fill:none;stroke:#4c4c4c;stroke-width:2" cx="664" cy="701" r="64" /><path style="fill:none;stroke:#4c4c4c;stroke-width:2" d="M544,505 l56,-23 35,-77 57,0 26,77 52,21 80,-35 43,41 -29,78 23,56 75,30 0,56 -78,30 -24,52 37,76 -41,43 -78,-31 -55,22 -29,78 -59,0 -44,-86 -53,-24 -58,43 -43,-41 29,-82 -23,-54 -75,-26 0,-58 75,-18 19,-53 -31,-86 41,-40 72,31" /></svg>