<!DOCTYPE svg PUBLIC "-//W3C//DTD SVG 20000303 Stylable//EN" "http://www.w3.org/TR/2000/03/WD-SVG-20000303/DTD/svg-20000303-stylable.dtd"[]><svg xmlns="http://www.w3.org/2000/svg" width="926px" height="999px" viewBox="0 0 922 999"><path style="fill:#ccc;stroke:#4c4c4c;stroke-width:2" d="M918,918 l0,-38 -914,0 0,38 1,4 2,4 2,3 5,4 4,4 7,3 7,4 8,3 9,4 11,3 10,3 12,3 13,3 14,3 14,3 15,3 16,2 17,3 17,2 18,2 18,2 19,2 20,1 20,2 21,1 21,2 22,0 22,1 22,1 23,1 23,0 24,0 23,0 24,0 22,-1 23,-1 22,-1 21,0 22,-2 20,-1 21,-2 19,-1 20,-2 18,-2 18,-2 17,-2 17,-3 16,-2 15,-3 14,-3 14,-3 13,-3 11,-3 11,-3 11,-3 9,-4 8,-3 7,-4 6,-3 5,-4 5,-4 2,-3 2,-4 1,-4z" /><path style="fill:#4c4c4c" d="M855,118 l-634,-95 -27,152 634,96 27,-153z" /><path style="fill:#4c4c4c" d="M855,385 l-761,-114 -27,152 761,114 27,-152z" /><path style="fill:#4c4c4c" d="M855,632 l-761,-114 -27,152 761,115 27,-153z" /><ellipse style="fill:#7f7f7f;stroke:#4c4c4c;stroke-width:2" cx="461" cy="880" rx="457" ry="76" /><path style="fill:#666;stroke:#4c4c4c;stroke-width:2" d="M4,361 l0,-30 12,-28 23,-21 28,-11 761,-134 30,1 28,11 21,23 11,28 -1,29 -11,29 -23,21 -28,10 -761,135 -30,-1 -29,-11 -21,-23 -10,-28z" /><path style="fill:#666;stroke:#4c4c4c;stroke-width:2" d="M4,609 l0,-30 12,-29 23,-21 28,-10 761,-134 30,0 28,12 21,23 11,28 -1,29 -11,29 -23,21 -28,10 -761,135 -30,-1 -29,-12 -21,-23 -10,-27z" /><path style="fill:#666;stroke:#4c4c4c;stroke-width:2" d="M4,855 l0,-29 13,-29 22,-21 28,-10 761,-135 30,1 28,11 21,23 11,28 -1,29 -12,29 -23,21 -27,10 -761,135 -30,-1 -29,-11 -20,-23 -11,-28z" /><path style="fill:#999" d="M4,361 l0,-30 12,-28 23,-21 819,-144 28,11 21,23 11,28 -1,29 -11,29 -23,21 -819,144 -29,-11 -21,-23 -10,-28z" /><path style="fill:#999" d="M4,609 l0,-30 12,-29 23,-21 819,-144 28,12 21,23 11,28 -1,29 -11,29 -23,21 -819,144 -29,-12 -21,-23 -10,-27z" /><path style="fill:#999" d="M4,855 l0,-29 13,-29 22,-21 819,-144 28,11 21,23 11,28 -1,29 -12,29 -23,21 -818,144 -29,-11 -20,-23 -11,-28z" /><path style="fill:#b2b2b2" d="M4,361 l0,-30 12,-28 870,-154 21,23 11,28 -1,29 -11,29 -871,154 -21,-23 -10,-28z" /><path style="fill:#b2b2b2" d="M4,609 l0,-30 12,-29 870,-153 21,23 11,28 -1,29 -11,29 -871,153 -21,-23 -10,-27z" /><path style="fill:#b2b2b2" d="M4,855 l0,-29 13,-29 869,-154 21,23 11,28 -1,29 -12,29 -870,154 -20,-23 -11,-28z" /><path style="fill:#e5e5e5" d="M4,361 l0,-30 903,-159 11,28 -1,29 -903,160 -10,-28z" /><path style="fill:#e5e5e5" d="M4,609 l0,-30 903,-159 11,28 -1,29 -903,159 -10,-27z" /><path style="fill:#e5e5e5" d="M4,855 l0,-29 903,-160 11,28 -1,29 -902,160 -11,-28z" /><path style="fill:#ccc;stroke:#4c4c4c;stroke-width:2" d="M918,118 l0,-38 -914,0 0,38 1,4 2,4 2,4 5,4 4,3 7,4 7,3 8,4 9,3 11,4 10,3 12,3 13,3 14,3 14,2 15,3 16,3 17,2 17,2 18,2 18,2 19,2 20,2 20,1 21,2 21,1 22,1 22,1 22,1 23,0 23,0 24,0 23,0 24,0 22,0 23,-1 22,-1 21,-1 22,-1 20,-2 21,-1 19,-2 20,-2 18,-2 18,-2 17,-2 17,-2 16,-3 15,-3 14,-2 14,-3 13,-3 11,-3 11,-3 11,-4 9,-3 8,-4 7,-3 6,-4 5,-3 5,-4 2,-4 2,-4 1,-4z" /><ellipse style="fill:#f7f7f7;stroke:#4c4c4c;stroke-width:2" cx="461" cy="80" rx="457" ry="76" /></svg>