<!DOCTYPE svg PUBLIC "-//W3C//DTD SVG 20000303 Stylable//EN" "http://www.w3.org/TR/2000/03/WD-SVG-20000303/DTD/svg-20000303-stylable.dtd"[]><svg xmlns="http://www.w3.org/2000/svg" width="999px" height="822px" viewBox="0 0 999 811"><path style="fill:#f0ab00;stroke:#4c4c4c;stroke-width:2" d="M499,437 l-438,0 1,-22 1,-22 3,-22 4,-22 5,-21 6,-21 7,-20 8,-20 8,-19 10,-19 11,-19 11,-17 12,-18 13,-16 14,-16 15,-15 15,-15 16,-14 16,-13 17,-12 18,-11 18,-10 19,-10 19,-9 21,-8 20,-7 20,-6 22,-5 21,-3 22,-3 22,-2 23,0 22,0 22,2 22,3 22,3 21,5 20,6 21,7 20,8 19,9 19,10 18,10 18,11 17,12 17,13 16,14 15,15 14,15 14,16 13,16 12,18 12,17 11,19 9,19 9,19 8,20 7,20 6,21 5,21 4,22 3,22 1,22 1,22 -438,0z" /><path style="fill:#f0ab00;stroke:#4c4c4c;stroke-width:2" d="M999,595 l-999,0 0,-11 0,-11 2,-11 1,-11 3,-11 2,-10 3,-11 4,-10 4,-10 4,-9 5,-10 5,-9 6,-9 6,-8 7,-9 7,-8 880,0 7,8 7,9 6,8 6,9 5,9 5,10 4,9 4,10 4,10 3,11 2,10 3,11 1,11 2,11 0,11 1,11z" /><path style="fill:#f0ab00;stroke:#4c4c4c;stroke-width:2" d="M967,811 l-936,0 -3,0 -3,-1 -3,-2 -3,-1 -3,-3 -3,-3 -2,-4 -2,-4 -2,-4 -2,-5 -2,-5 -1,-5 -1,-6 -1,-6 0,-6 0,-6 0,-7 0,-6 1,-6 1,-6 1,-5 2,-5 2,-6 2,-4 2,-4 2,-4 3,-3 3,-3 3,-2 3,-2 3,-1 3,0 936,0 3,0 3,1 3,2 3,2 3,3 3,3 2,4 2,4 2,4 2,6 2,5 1,5 1,6 1,6 1,6 0,7 0,6 -1,6 -1,6 -1,6 -1,5 -2,5 -2,5 -2,4 -2,4 -2,4 -3,3 -3,3 -3,1 -3,2 -3,1 -3,0z" /><path style="fill:#4c4c4c;stroke:#4c4c4c;stroke-width:2" d="M31,593 l936,0 0,93 -936,0 0,-93z" /><circle style="fill:#fff;stroke:#4c4c4c;stroke-width:2" cx="365" cy="242" r="117" /><ellipse style="fill:#000;stroke:#4c4c4c;stroke-width:2" cx="366" cy="266" rx="38" ry="61" /><circle style="fill:#fff;stroke:#4c4c4c;stroke-width:2" cx="615" cy="242" r="116" /><ellipse style="fill:#000;stroke:#4c4c4c;stroke-width:2" cx="615" cy="266" rx="38" ry="61" /></svg>