<!DOCTYPE svg PUBLIC "-//W3C//DTD SVG 20000303 Stylable//EN" "http://www.w3.org/TR/2000/03/WD-SVG-20000303/DTD/svg-20000303-stylable.dtd"[]><svg xmlns="http://www.w3.org/2000/svg" width="999px" height="999px" viewBox="0 0 999 999"><path style="fill:#ff0;stroke:#4c4c4c;stroke-width:2" d="M0,999 l0,-999 999,0 0,999 -999,0z" /><path style="fill:#666;stroke:#4c4c4c;stroke-width:2" d="M380,482 l12,-141 25,-124 42,-80 46,-28 279,0 0,743 -279,0 -46,-25 -42,-82 -25,-125 -12,-138z" /><ellipse style="fill:#b2b2b2;stroke:#4c4c4c;stroke-width:2" cx="784" cy="480" rx="124" ry="371" /><ellipse style="fill:#666;stroke:#4c4c4c;stroke-width:2" cx="784" cy="481" rx="62" ry="185" /><path style="fill:#f2f2f2" d="M89,779 l-28,-29 28,-356 136,-138 0,-28 167,0 0,28 107,57 56,107 -14,138 -42,-53 0,-85 -40,-82 -42,0 28,96 54,71 42,53 14,192 -28,29 -438,0z" /><path style="fill:#900" d="M214,228 l0,-82 189,0 0,82 -189,0z" /><path style="fill:#f00" d="M253,228 l0,-82 110,0 0,82 -110,0z" /><path style="fill:none;stroke:#4c4c4c;stroke-width:2" d="M214,228 l0,-82 189,0 0,82 -189,0" /><path style="fill:none;stroke:#4c4c4c;stroke-width:2" d="M89,779 l-28,-29 28,-356 136,-138 0,-28 167,0 0,28 107,57 56,107 -14,138 14,192 -28,29 -438,0" /><path style="fill:none;stroke:#4c4c4c;stroke-width:2" d="M499,505 l-54,-71 -28,-96 42,0 40,82 0,85" /></svg>