<!DOCTYPE svg PUBLIC "-//W3C//DTD SVG 20000303 Stylable//EN" "http://www.w3.org/TR/2000/03/WD-SVG-20000303/DTD/svg-20000303-stylable.dtd"[]><svg xmlns="http://www.w3.org/2000/svg" width="522px" height="999px" viewBox="0 0 493 999"><path style="fill:#f60;stroke:#4c4c4c;stroke-width:2" d="M103,779 l-10,-1 -11,-2 -10,-3 -9,-4 -10,-5 -8,-6 -8,-8 -7,-8 -7,-8 -6,-10 -5,-10 -5,-11 -3,-11 -3,-12 -1,-13 0,-12 0,-6 0,-6 1,-6 0,-6 2,-6 1,-6 2,-5 1,-6 2,-6 2,-5 3,-5 2,-5 3,-5 3,-4 3,-5 2,-4 216,-370 68,44 -208,536z" /><circle style="fill:#e54c00;stroke:#4c4c4c;stroke-width:2" cx="148" cy="656" r="123" /><path style="fill:#f60;stroke:#4c4c4c;stroke-width:2" d="M103,947 l104,-104 104,0 -104,104 -104,0z" /><path style="fill:#f60;stroke:#4c4c4c;stroke-width:2" d="M207,999 l0,-78 -104,26 0,52 104,0z" /><path style="fill:#e54c00;stroke:#4c4c4c;stroke-width:2" d="M155,921 l0,-142 156,0 -26,90 -130,52z" /><path style="fill:#fc0;stroke:#4c4c4c;stroke-width:2" d="M439,739 l0,-116 -26,-38 -258,0 116,154 168,0z" /><path style="fill:#f60;stroke:#4c4c4c;stroke-width:2" d="M219,635 l52,104 168,0 -26,40 -310,0 0,-78 -5,-5 -5,-6 -5,-6 -3,-6 -4,-7 -2,-7 -1,-8 -1,-7 1,-7 1,-6 1,-6 2,-6 3,-6 3,-5 4,-5 4,-5 5,-4 4,-3 6,-3 5,-3 6,-2 6,-2 7,-1 6,0 92,0 -5,0 -5,2 -4,2 -4,3 -3,4 -3,4 -1,5 -1,6 1,4 1,4 1,4 2,3 2,4 2,2 2,2 1,1z" /><path style="fill:#e54c00;stroke:#4c4c4c;stroke-width:2" d="M363,791 l-1,-8 -2,-7 -4,-7 -4,-5 -6,-5 -7,-3 -8,-2 -8,-1 -8,1 -7,2 -6,3 -6,5 -4,5 -4,7 -2,7 -1,8 0,78 -78,52 0,78 156,0 0,-208z" /><path style="fill:none;stroke:#4c4c4c;stroke-width:2" d="M219,635 l13,0 12,0 12,0 12,0 12,0 13,0 12,0 12,0 12,0 12,0 12,0 12,0 12,0 12,0 12,0 12,0 5,0 5,0 4,-1 4,-1 4,-1 2,-2 2,-3 0,-4" /><path style="fill:#f60;stroke:#4c4c4c;stroke-width:2" d="M129,585 l160,-364 88,44 -118,320 -130,0z" /><path style="fill:none;stroke:#7f7f7f;stroke-width:2" d="M49,583 l216,-362" /><path style="fill:#4c4c4c;stroke:#4c4c4c;stroke-width:2" d="M219,947 l52,0 0,26 -52,0 0,-26z" /><path style="fill:none;stroke:#4c4c4c;stroke-width:2" d="M219,973 l144,0" /><path style="fill:none;stroke:#4c4c4c;stroke-width:2" d="M207,753 l0,26" /><path style="fill:#f60;stroke:#4c4c4c;stroke-width:2" d="M443,309 l-6,0 -6,0 -6,0 -6,0 -6,0 -7,0 -6,0 -7,0 -5,-2 -6,-2 -5,-2 -6,-2 -5,-3 -6,-2 -6,-4 -7,-3 -6,-4 -7,-4 -7,-5 -7,-5 -7,-6 -8,-7 -8,-7 -8,-8 1,-9 2,-9 1,-9 2,-8 3,-8 3,-8 3,-8 3,-8 4,-7 4,-7 4,-7 5,-7 4,-7 5,-7 5,-6 5,-7 7,0 6,0 7,0 6,1 7,0 7,1 7,0 6,1 7,1 6,2 7,2 7,2 6,2 7,3 7,3 6,4 5,6 6,4 5,6 6,4 6,5 5,5 6,5 5,5 -1,6 -1,5 0,6 -1,5 -1,6 0,5 -1,6 -1,5 -3,5 -2,6 -3,5 -2,5 -3,5 -3,5 -2,6 -3,5 -3,5 -3,5 -3,5 -2,5 -3,5 -3,5 -3,5 -3,5z" /><path style="fill:#e54c00" d="M443,277 l0,28 -10,-22 -68,-34 -16,-122 106,28 -12,122z" /><path style="fill:#ff7f00" d="M487,183 l-32,-28 -50,100 38,22 44,-94z" /><path style="fill:#f60;stroke:#4c4c4c;stroke-width:2" d="M219,37 l162,96 5,4 6,4 4,4 4,4 3,5 3,6 2,5 2,6 1,6 1,6 0,6 -1,6 -1,7 -1,6 -3,6 -3,5 -3,5 -4,6 -4,4 -5,4 -5,3 -5,3 -6,2 -5,2 -6,2 -7,0 -6,1 -6,-1 -6,0 -6,-2 -6,-2 -6,-3 -162,-94 64,-112z" /><path style="fill:#f60;stroke:#4c4c4c;stroke-width:2" d="M153,149 l58,-18 6,-92 -52,20 -12,90z" /><path style="fill:#ff7f00" d="M393,209 l4,0 3,-1 3,-3 3,-3 2,-3 1,-4 2,-4 0,-6 0,-3 -1,-4 -1,-3 -2,-4 -2,-3 -2,-3 -2,-2 -2,-2 -178,-118 -6,90 178,76z" /><path style="fill:#ff7f00" d="M283,237 l-144,340 160,-316 -16,-24z" /><path style="fill:#ff7f00" d="M55,571 l-40,22 228,-388 22,10 -210,356z" /><path style="fill:#ff7f00" d="M215,637 l-82,28 -50,0 0,-28 132,0z" /><path style="fill:none;stroke:#7f7f7f;stroke-width:2" d="M271,739 l-9,0 -6,0 -6,0 -5,0 -5,0 -5,0 -7,0 -9,0 -3,-1 -3,-2 -4,-2 -5,-4 -5,-5 -5,-5 -6,-7 -5,-7 -6,-7 -4,-9 -5,-8 -4,-9 -4,-9 -2,-10 -2,-10 -1,-9 1,-9 2,-9 3,-9 4,-7 5,-6 7,-6 7,-3 9,-1" /><path style="fill:#f60;stroke:#4c4c4c;stroke-width:2" d="M155,143 l-56,-38 22,-78 12,-6 -22,78 44,34 16,-6 12,-84 4,12 -10,82 -22,6z" /><path style="fill:#e54c00;stroke:#4c4c4c;stroke-width:2" d="M111,99 l44,34 16,-6 12,-84 -18,6 -32,-28 -22,78z" /><path style="fill:none;stroke:#4c4c4c;stroke-width:2" d="M155,133 l10,-84" /><path style="fill:#999;stroke:#4c4c4c;stroke-width:2" d="M119,77 l3,1 2,-1 2,-1 2,-2 2,-3 2,-4 2,-3 1,-5 1,-4 0,-4 0,-4 -1,-4 0,-4 -2,-2 -2,-2 -2,-2 -20,-4 -2,0 -2,1 -3,1 -2,2 -3,3 -2,3 -2,4 -2,4 0,5 0,4 0,4 0,3 1,3 2,3 1,1 2,1 22,6z" /><ellipse style="fill:#ccc;stroke:#4c4c4c;stroke-width:2" cx="103" cy="50" rx="12" ry="21" /><ellipse style="fill:#333;stroke:#4c4c4c;stroke-width:2" cx="103" cy="49" rx="6" ry="10" /><ellipse style="fill:#b2b2b2;stroke:#4c4c4c;stroke-width:2" cx="160" cy="63" rx="39" ry="63" /><ellipse style="fill:#ccc;stroke:#4c4c4c;stroke-width:2" cx="172" cy="63" rx="39" ry="63" /><ellipse style="fill:#ccc;stroke:#7f7f7f;stroke-width:2" cx="171" cy="63" rx="12" ry="20" /><circle style="fill:#666;stroke:#4c4c4c;stroke-width:2" cx="143" cy="44" r="4" /><circle style="fill:#666;stroke:#4c4c4c;stroke-width:2" cx="200" cy="88" r="5" /></svg>