<!DOCTYPE svg PUBLIC "-//W3C//DTD SVG 20000303 Stylable//EN" "http://www.w3.org/TR/2000/03/WD-SVG-20000303/DTD/svg-20000303-stylable.dtd"[]><svg xmlns="http://www.w3.org/2000/svg" width="557px" height="999px" viewBox="0 0 531 999"><path style="fill:#7f7f7f;stroke:#4c4c4c;stroke-width:2" d="M109,459 l44,26 -68,120 -44,-26 68,-120z" /><path style="fill:#ccc;stroke:#4c4c4c;stroke-width:2" d="M103,793 l68,0 0,-102 -68,0 0,102z" /><path style="fill:#b2b2b2;stroke:#4c4c4c;stroke-width:2" d="M171,691 l138,0 0,102 -138,0 0,-102z" /><path style="fill:#4c4c4c;stroke:#4c4c4c;stroke-width:2" d="M0,615 l25,-46 254,148 -26,44 -253,-146z" /><path style="fill:#999;stroke:#4c4c4c;stroke-width:2" d="M119,999 l0,-34 -68,0 0,-52 68,0 0,-34 344,0 0,34 68,0 0,52 -68,0 0,34 -344,0z" /><path style="fill:#b2b2b2;stroke:#4c4c4c;stroke-width:2" d="M153,861 l276,0 0,86 -276,0 0,-86z" /><path style="fill:#ccc;stroke:#4c4c4c;stroke-width:2" d="M137,845 l308,0 0,16 -308,0 0,-16z" /><path style="fill:#e5e5e5;stroke:#4c4c4c;stroke-width:2" d="M137,827 l308,0 0,18 -308,0 0,-18z" /><path style="fill:#e5e5e5;stroke:#4c4c4c;stroke-width:2" d="M257,827 l206,0 0,-136 -206,0 0,136z" /><path style="fill:#ccc;stroke:#4c4c4c;stroke-width:2" d="M119,827 l0,-68 138,-68 0,136 -138,0z" /><path style="fill:#ccc;stroke:#4c4c4c;stroke-width:2" d="M429,535 l-224,-120 -154,0 206,120 172,0z" /><path style="fill:#b2b2b2;stroke:#4c4c4c;stroke-width:2" d="M51,415 l-18,52 206,120 18,-52 -206,-120z" /><path style="fill:#e5e5e5;stroke:#4c4c4c;stroke-width:2" d="M463,707 l-224,0 -5,-1 -5,-1 -5,-2 -4,-3 -5,-4 -4,-4 -4,-5 -3,-5 -4,-6 -2,-7 -3,-7 -2,-8 -1,-8 -1,-8 -1,-8 -1,-9 1,-9 1,-9 1,-8 1,-8 2,-7 3,-7 2,-7 4,-6 3,-5 4,-6 4,-4 5,-3 4,-3 5,-2 5,-2 5,0 224,0 5,0 5,2 5,2 5,3 4,3 5,4 4,6 3,5 4,6 3,7 3,7 2,7 2,8 1,8 1,9 0,9 0,9 -1,8 -1,8 -2,8 -2,8 -3,7 -3,7 -4,6 -3,5 -4,5 -5,4 -4,4 -5,3 -5,2 -5,1 -5,1z" /><ellipse style="fill:#ccc;stroke:#4c4c4c;stroke-width:2" cx="240" cy="621" rx="51" ry="86" /><path style="fill:#e5e5e5;stroke:#4c4c4c;stroke-width:2" d="M257,329 l0,120 -120,0 -70,-34 0,-68 92,-56 5,-3 5,-2 4,-2 6,-2 4,-1 5,-1 5,-1 4,0 11,1 10,3 10,5 8,6 8,7 6,9 4,9 3,10z" /><path style="fill:#ccc;stroke:#4c4c4c;stroke-width:2" d="M389,85 l-154,268 -3,3 -3,1 -4,1 -5,0 -5,0 -6,-2 -6,-2 -6,-3 -6,-4 -5,-4 -5,-4 -3,-5 -2,-4 -1,-5 0,-4 0,-4 156,-268 2,-2 3,-1 4,-1 5,0 5,1 5,2 6,2 6,3 7,4 5,4 4,5 3,4 3,4 1,5 0,3 -1,3z" /><path style="fill:#e5e5e5" d="M381,81 l-154,266 -2,3 -3,3 -3,1 -4,1 -4,0 -5,-1 -4,-1 -5,-2 -4,-3 -4,-4 -4,-3 -2,-4 -2,-3 0,-4 1,-4 1,-3 156,-270 1,-2 3,-1 3,-1 4,-1 4,0 4,1 5,2 4,2 5,3 4,3 3,4 3,4 1,4 1,4 -1,3 -2,3z" /><path style="fill:#fff" d="M367,71 l-154,268 -2,3 -2,3 -3,2 -2,2 -2,1 -2,1 -1,1 -2,-1 -1,-1 -1,-2 0,-3 0,-2 0,-3 0,-3 1,-3 1,-3 156,-270 2,-2 1,-2 2,-1 2,-2 2,-1 2,0 2,0 1,0 2,2 1,1 1,2 0,2 -1,3 0,2 -2,4 -1,2z" /><path style="fill:#e5e5e5;stroke:#4c4c4c;stroke-width:2" d="M329,51 l3,-2 4,-2 4,-1 4,0 6,0 5,2 6,2 6,3 7,4 5,4 4,5 3,4 3,4 1,5 0,3 -1,3 -2,3 -3,1 -4,1 -5,0 -6,0 -6,-2 -6,-2 -6,-3 -5,-4 -6,-4 -4,-4 -3,-4 -3,-4 -1,-5 -1,-3 1,-4z" /><path style="fill:#e5e5e5;stroke:#4c4c4c;stroke-width:2" d="M473,81 l-106,0 -5,0 -4,-3 -4,-3 -4,-6 -3,-6 -2,-7 -1,-8 -1,-9 1,-8 1,-7 2,-7 3,-6 4,-5 4,-3 4,-3 5,0 106,0 4,0 5,3 4,3 3,5 4,6 2,7 2,7 0,8 0,9 -2,8 -2,7 -4,6 -3,6 -4,3 -5,3 -4,0z" /><ellipse style="fill:#ccc;stroke:#4c4c4c;stroke-width:2" cx="367" cy="40" rx="24" ry="40" /><path style="fill:#e5e5e5;stroke:#4c4c4c;stroke-width:2" d="M461,31 l50,50 2,3 1,3 0,4 -1,4 -2,4 -2,5 -2,5 -4,4 -4,4 -5,3 -4,2 -5,1 -4,1 -3,-1 -4,-1 -3,-3 -50,-50 -2,-2 -1,-4 0,-3 1,-4 2,-4 2,-5 2,-4 4,-4 4,-3 5,-3 4,-2 5,-2 4,0 3,0 4,1 3,1z" /><path style="fill:#ccc;stroke:#4c4c4c;stroke-width:2" d="M471,119 l-2,-2 -1,-4 0,-3 1,-4 2,-4 2,-5 2,-4 4,-4 4,-3 5,-3 4,-2 5,-2 4,0 3,0 4,1 3,1 2,3 1,3 0,4 -1,4 -2,4 -2,5 -2,5 -4,4 -4,4 -5,3 -4,2 -5,1 -4,1 -3,-1 -4,-1 -3,-3z" /><path style="fill:none;stroke:#7f7f7f;stroke-width:2" d="M243,371 l-4,3 -4,3 -5,2 -4,2 -5,2 -5,1 -6,1 -5,0 -11,-1 -10,-3 -9,-6 -9,-7 -7,-8 -5,-10 -3,-11 -2,-12 0,-1 1,-2 0,-1 1,-2" /></svg>