<!DOCTYPE svg PUBLIC "-//W3C//DTD SVG 20000303 Stylable//EN" "http://www.w3.org/TR/2000/03/WD-SVG-20000303/DTD/svg-20000303-stylable.dtd"[]><svg xmlns="http://www.w3.org/2000/svg" width="999px" height="919px" viewBox="0 0 999 915"><path style="fill:#ccc" d="M743,803 l96,-56 78,-76 53,-96 29,-106 0,-110 -29,-106 -55,-94 -76,-78 -96,-53 -106,-28 -110,0 -104,28 -168,83 106,-30 110,0 106,28 94,56 78,78 54,94 28,106 0,110 -28,106 -54,94 -76,76 -98,57 168,-83z" /><path style="fill:#b2b2b2" d="M743,803 l96,-56 78,-76 53,-96 -167,84 -54,94 -76,76 -98,57 168,-83z" /><path style="fill:#d9d9d9" d="M999,359 l-29,-106 -55,-94 -76,-78 -96,-53 -106,-28 -110,0 -166,81 110,0 106,28 94,56 78,78 54,94 28,106 168,-84z" /><path style="fill:#e5e5e5" d="M915,159 l-76,-78 -96,-53 -106,-28 -166,81 106,28 94,56 78,78 166,-84z" /><path style="fill:#f2f2f2" d="M839,81 l-96,-53 -166,81 94,56 168,-84z" /><path style="fill:none;stroke:#4c4c4c;stroke-width:2" d="M743,803 l96,-56 78,-76 53,-96 29,-106 0,-110 -29,-106 -55,-94 -76,-78 -96,-53 -106,-28 -110,0 -104,28 -168,83 320,775 168,-83" /><path style="fill:#ccc" d="M575,886 l-104,29 -110,0 -106,-29 -94,-55 -78,-78 -55,-94 -28,-106 0,-110 28,-106 55,-94 76,-78 96,-54 106,-30 110,0 106,28 94,56 78,78 54,94 28,106 0,110 -28,106 -54,94 -78,78 -96,55z" /><path style="fill:#d4d4d4" d="M415,499 l204,352 -12,6 -10,6 -12,6 -14,4 -12,6 -12,4 -14,3 -12,5 -14,1 -12,5 -14,2 -14,1 -12,0 -14,3 -12,0 -14,2 -20,-2 -20,-3 -20,-1 -22,-2 -18,-6 -20,-6 -18,-5 -18,-7 -20,-8 -18,-11 -16,-9 -16,-10 -16,-13 -16,-11 -14,-12 -14,-14 -14,-14 -12,-14 -11,-16 -13,-16 -10,-16 -9,-16 -11,-18 -8,-20 -7,-18 -6,-18 -6,-20 -5,-20 -2,-20 -4,-20 0,-20 -2,-20 0,-8 2,-6 0,-8 0,-4 0,-8 0,-6 3,-8 0,-6 1,-6 2,-6 0,-8 0,-6 3,-6 2,-6 1,-8 0,-6 392,106z" /><path style="fill:#dedede" d="M415,499 l106,392 -6,0 -8,1 -6,3 -6,2 -6,0 -8,0 -6,2 -6,1 -6,0 -8,0 -6,3 -8,0 -6,0 -6,0 -6,2 -8,0 -20,-2 -20,-3 -20,-1 -22,-2 -18,-6 -20,-6 -18,-5 -18,-7 -20,-8 -18,-11 -16,-9 -16,-10 -16,-13 -16,-11 -14,-12 -14,-14 -14,-14 -12,-14 -11,-16 -13,-16 -10,-16 -9,-16 -11,-18 -8,-20 -7,-18 -6,-18 -6,-20 -5,-20 -2,-20 -4,-20 0,-20 -2,-20 406,0z" /><path style="fill:#e5e5e5" d="M415,499 l-104,392 -10,-5 -10,-1 -8,-5 -10,-1 -10,-5 -8,-3 -8,-4 -10,-4 -10,-6 -8,-4 -10,-5 -8,-5 -8,-6 -8,-6 -8,-4 -8,-6 -8,-8 -8,-6 -8,-6 -6,-6 -8,-8 -7,-6 -7,-8 -8,-8 -6,-8 -5,-6 -6,-8 -7,-8 -6,-8 -6,-8 -4,-10 -6,-8 352,-202z" /><path style="fill:#d4d4d4" d="M415,499 l106,-392 8,2 10,4 10,2 10,2 8,7 10,1 8,4 10,4 8,6 10,4 8,6 8,4 10,6 8,6 8,6 8,6 8,6 8,6 8,6 6,8 8,6 6,6 8,8 6,8 6,8 8,8 6,6 6,8 6,8 4,10 6,8 6,8 -354,204z" /><circle style="fill:#000" cx="416" cy="498" r="41" /><path style="fill:none;stroke:#4c4c4c;stroke-width:2" d="M575,886 l-104,29 -110,0 -106,-29 -94,-55 -78,-78 -55,-94 -28,-106 0,-110 28,-106 55,-94 76,-78 96,-54 106,-30 110,0 106,28 94,56 78,78 54,94 28,106 0,110 -28,106 -54,94 -78,78 -96,55" /></svg>