<!DOCTYPE svg PUBLIC "-//W3C//DTD SVG 20000303 Stylable//EN" "http://www.w3.org/TR/2000/03/WD-SVG-20000303/DTD/svg-20000303-stylable.dtd"[]><svg xmlns="http://www.w3.org/2000/svg" width="999px" height="999px" viewBox="0 0 999 999"><path style="fill:#ccc;stroke:#4c4c4c;stroke-width:2" d="M999,999 l-999,0 0,-999 999,0 0,999z" /><path style="fill:#994c00;stroke:#4c4c4c;stroke-width:2" d="M248,832 l0,-669 511,0 0,669 -511,0z" /><path style="fill:#e5e5e5;stroke:#4c4c4c;stroke-width:2" d="M217,855 l8,-17 17,-6 523,0 19,6 6,17 -6,17 -19,8 -523,0 -17,-8 -8,-17z" /><path style="fill:#e5e5e5;stroke:#4c4c4c;stroke-width:2" d="M217,140 l8,-17 17,-8 523,0 19,8 6,17 -6,17 -19,6 -523,0 -17,-6 -8,-17z" /><path style="fill:none;stroke:#4c4c4c;stroke-width:2" d="M759,228 l-254,-65" /><path style="fill:none;stroke:#4c4c4c;stroke-width:2" d="M759,753 l-511,-127" /><path style="fill:none;stroke:#4c4c4c;stroke-width:2" d="M759,626 l-511,-130" /><path style="fill:none;stroke:#4c4c4c;stroke-width:2" d="M759,496 l-511,-127" /><path style="fill:none;stroke:#4c4c4c;stroke-width:2" d="M759,369 l-511,-127" /><path style="fill:none;stroke:#4c4c4c;stroke-width:2" d="M567,832 l-319,-79" /><path style="fill:none;stroke:#999;stroke-width:2" d="M759,242 l-319,-79" /><path style="fill:none;stroke:#999;stroke-width:2" d="M759,386 l-511,-127" /><path style="fill:none;stroke:#999;stroke-width:2" d="M759,513 l-511,-127" /><path style="fill:none;stroke:#999;stroke-width:2" d="M759,640 l-511,-127" /><path style="fill:none;stroke:#999;stroke-width:2" d="M759,767 l-511,-127" /><path style="fill:none;stroke:#999;stroke-width:2" d="M505,832 l-257,-65" /><path style="fill:#e5e5e5;stroke:#4c4c4c;stroke-width:2" d="M739,688 l155,-206 23,-133 -104,88 -99,234 -161,311 11,8 175,-302z" /><path style="fill:#ccc;stroke:#4c4c4c;stroke-width:2" d="M841,451 l45,-45 -20,62 -93,130 68,-147z" /><path style="fill:none;stroke:#994c00;stroke-width:2" d="M852,451 l17,-34 -14,-54 -28,-19 -34,-6 -34,6" /><path style="fill:none;stroke:#994c00;stroke-width:2" d="M250,338 l-33,48 -6,59 -9,51 0,48 -17,48 -45,26 -51,-9 -28,-45 6,-88 -9,-50 9,-51 31,-45 45,-29 51,-11 51,11" /></svg>