<!DOCTYPE svg PUBLIC "-//W3C//DTD SVG 20000303 Stylable//EN" "http://www.w3.org/TR/2000/03/WD-SVG-20000303/DTD/svg-20000303-stylable.dtd"[]><svg xmlns="http://www.w3.org/2000/svg" width="999px" height="999px" viewBox="0 0 750 750"><path style="fill:#0ff;stroke:#4c4c4c;stroke-width:2" d="M0,750 l374,0 7,-73 22,-71 34,-64 47,-58 57,-47 65,-34 70,-21 74,-8 0,-374 -148,16 -139,42 -130,68 -114,93 -93,116 -68,128 -44,141 -14,146z" /><path style="fill:none;stroke:#4c4c4c;stroke-width:2" d="M404,606 l-347,-143" /><path style="fill:none;stroke:#4c4c4c;stroke-width:2" d="M485,485 l-265,-265" /><path style="fill:none;stroke:#4c4c4c;stroke-width:2" d="M607,404 l-144,-346" /><path style="fill:none;stroke:#4c4c4c;stroke-width:2" d="M382,677 l-367,-74" /><path style="fill:none;stroke:#4c4c4c;stroke-width:2" d="M438,542 l-311,-209" /><path style="fill:none;stroke:#4c4c4c;stroke-width:2" d="M541,438 l-207,-312" /><path style="fill:none;stroke:#4c4c4c;stroke-width:2" d="M676,382 l-72,-368" /></svg>