<!DOCTYPE svg PUBLIC "-//W3C//DTD SVG 20000303 Stylable//EN" "http://www.w3.org/TR/2000/03/WD-SVG-20000303/DTD/svg-20000303-stylable.dtd"[]><svg xmlns="http://www.w3.org/2000/svg" width="999px" height="999px" viewBox="0 0 750 750"><path style="fill:#0ff;stroke:#4c4c4c;stroke-width:2" d="M0,0 l0,374 73,7 71,22 64,34 58,47 47,57 34,65 21,70 8,74 374,0 -16,-148 -42,-139 -68,-130 -93,-114 -116,-93 -128,-68 -141,-44 -146,-14z" /><path style="fill:none;stroke:#4c4c4c;stroke-width:2" d="M144,404 l143,-347" /><path style="fill:none;stroke:#4c4c4c;stroke-width:2" d="M265,485 l265,-265" /><path style="fill:none;stroke:#4c4c4c;stroke-width:2" d="M346,607 l346,-144" /><path style="fill:none;stroke:#4c4c4c;stroke-width:2" d="M73,382 l74,-367" /><path style="fill:none;stroke:#4c4c4c;stroke-width:2" d="M208,438 l209,-311" /><path style="fill:none;stroke:#4c4c4c;stroke-width:2" d="M312,541 l312,-207" /><path style="fill:none;stroke:#4c4c4c;stroke-width:2" d="M368,676 l368,-72" /></svg>