<!DOCTYPE svg PUBLIC "-//W3C//DTD SVG 20000303 Stylable//EN" "http://www.w3.org/TR/2000/03/WD-SVG-20000303/DTD/svg-20000303-stylable.dtd"[]><svg xmlns="http://www.w3.org/2000/svg" width="793px" height="999px" viewBox="0 0 781 999"><path style="fill:#0ff;stroke:#4c4c4c;stroke-width:2" d="M260,521 l-55,46 -65,34 -68,21 -72,8 0,369 145,-17 136,-42 129,-67 111,-92 259,-259 1,-522 -521,521z" /><path style="fill:none;stroke:#4c4c4c;stroke-width:2" d="M585,717 l-261,-260" /><path style="fill:none;stroke:#4c4c4c;stroke-width:2" d="M650,651 l-261,-260" /><path style="fill:none;stroke:#4c4c4c;stroke-width:2" d="M715,587 l-260,-261" /><path style="fill:none;stroke:#4c4c4c;stroke-width:2" d="M780,522 l-260,-262" /><path style="fill:none;stroke:#4c4c4c;stroke-width:2" d="M781,391 l-196,-196" /><path style="fill:none;stroke:#4c4c4c;stroke-width:2" d="M781,259 l-131,-129" /><path style="fill:none;stroke:#4c4c4c;stroke-width:2" d="M781,129 l-66,-64" /><path style="fill:none;stroke:#4c4c4c;stroke-width:2" d="M261,522 l260,259" /><path style="fill:none;stroke:#4c4c4c;stroke-width:2" d="M140,600 l142,341" /><path style="fill:none;stroke:#4c4c4c;stroke-width:2" d="M204,567 l205,306" /><path style="fill:none;stroke:#4c4c4c;stroke-width:2" d="M71,621 l72,362" /></svg>