<!DOCTYPE svg PUBLIC "-//W3C//DTD SVG 20000303 Stylable//EN" "http://www.w3.org/TR/2000/03/WD-SVG-20000303/DTD/svg-20000303-stylable.dtd"[]><svg xmlns="http://www.w3.org/2000/svg" width="999px" height="793px" viewBox="0 0 999 781"><path style="fill:#0ff;stroke:#4c4c4c;stroke-width:2" d="M521,521 l46,55 34,65 21,67 8,73 369,0 -17,-145 -42,-136 -67,-129 -92,-111 -259,-260 -522,0 521,521z" /><path style="fill:none;stroke:#4c4c4c;stroke-width:2" d="M717,196 l-260,261" /><path style="fill:none;stroke:#4c4c4c;stroke-width:2" d="M651,130 l-260,262" /><path style="fill:none;stroke:#4c4c4c;stroke-width:2" d="M587,65 l-261,261" /><path style="fill:none;stroke:#4c4c4c;stroke-width:2" d="M522,0 l-262,261" /><path style="fill:none;stroke:#4c4c4c;stroke-width:2" d="M391,0 l-196,196" /><path style="fill:none;stroke:#4c4c4c;stroke-width:2" d="M259,0 l-129,130" /><path style="fill:none;stroke:#4c4c4c;stroke-width:2" d="M129,0 l-64,65" /><path style="fill:none;stroke:#4c4c4c;stroke-width:2" d="M522,520 l259,-260" /><path style="fill:none;stroke:#4c4c4c;stroke-width:2" d="M600,641 l341,-142" /><path style="fill:none;stroke:#4c4c4c;stroke-width:2" d="M567,577 l306,-205" /><path style="fill:none;stroke:#4c4c4c;stroke-width:2" d="M621,709 l362,-71" /></svg>