<!DOCTYPE svg PUBLIC "-//W3C//DTD SVG 20000303 Stylable//EN" "http://www.w3.org/TR/2000/03/WD-SVG-20000303/DTD/svg-20000303-stylable.dtd"[]><svg xmlns="http://www.w3.org/2000/svg" width="999px" height="999px" viewBox="0 0 999 999"><path style="fill:#0ff;stroke:#4c4c4c;stroke-width:2" d="M888,999 l-888,-889 111,-110 888,887 -111,112z" /><path style="fill:none;stroke:#4c4c4c;stroke-width:2" d="M472,582 l110,-111" /><path style="fill:none;stroke:#4c4c4c;stroke-width:2" d="M499,610 l111,-111" /><path style="fill:none;stroke:#4c4c4c;stroke-width:2" d="M526,637 l111,-111" /><path style="fill:none;stroke:#4c4c4c;stroke-width:2" d="M554,665 l111,-111" /><path style="fill:none;stroke:#4c4c4c;stroke-width:2" d="M582,693 l111,-111" /><path style="fill:none;stroke:#4c4c4c;stroke-width:2" d="M610,721 l111,-111" /><path style="fill:none;stroke:#4c4c4c;stroke-width:2" d="M637,748 l111,-111" /><path style="fill:none;stroke:#4c4c4c;stroke-width:2" d="M665,776 l111,-111" /><path style="fill:none;stroke:#4c4c4c;stroke-width:2" d="M693,804 l111,-111" /><path style="fill:none;stroke:#4c4c4c;stroke-width:2" d="M721,832 l111,-111" /><path style="fill:none;stroke:#4c4c4c;stroke-width:2" d="M748,859 l112,-111" /><path style="fill:none;stroke:#4c4c4c;stroke-width:2" d="M776,887 l111,-111" /><path style="fill:none;stroke:#4c4c4c;stroke-width:2" d="M804,915 l111,-111" /><path style="fill:none;stroke:#4c4c4c;stroke-width:2" d="M832,943 l111,-111" /><path style="fill:none;stroke:#4c4c4c;stroke-width:2" d="M860,970 l110,-111" /><path style="fill:none;stroke:#4c4c4c;stroke-width:2" d="M28,138 l110,-110" /><path style="fill:none;stroke:#4c4c4c;stroke-width:2" d="M55,166 l111,-111" /><path style="fill:none;stroke:#4c4c4c;stroke-width:2" d="M82,193 l112,-111" /><path style="fill:none;stroke:#4c4c4c;stroke-width:2" d="M110,221 l111,-111" /><path style="fill:none;stroke:#4c4c4c;stroke-width:2" d="M138,249 l111,-111" /><path style="fill:none;stroke:#4c4c4c;stroke-width:2" d="M166,277 l111,-111" /><path style="fill:none;stroke:#4c4c4c;stroke-width:2" d="M194,304 l111,-111" /><path style="fill:none;stroke:#4c4c4c;stroke-width:2" d="M221,332 l111,-111" /><path style="fill:none;stroke:#4c4c4c;stroke-width:2" d="M249,360 l111,-111" /><path style="fill:none;stroke:#4c4c4c;stroke-width:2" d="M277,388 l111,-111" /><path style="fill:none;stroke:#4c4c4c;stroke-width:2" d="M305,416 l111,-112" /><path style="fill:none;stroke:#4c4c4c;stroke-width:2" d="M332,443 l111,-111" /><path style="fill:none;stroke:#4c4c4c;stroke-width:2" d="M360,471 l111,-111" /><path style="fill:none;stroke:#4c4c4c;stroke-width:2" d="M388,499 l111,-111" /><path style="fill:none;stroke:#4c4c4c;stroke-width:2" d="M416,526 l110,-110" /><path style="fill:none;stroke:#4c4c4c;stroke-width:2" d="M444,554 l110,-110" /></svg>