<!DOCTYPE svg PUBLIC "-//W3C//DTD SVG 20000303 Stylable//EN" "http://www.w3.org/TR/2000/03/WD-SVG-20000303/DTD/svg-20000303-stylable.dtd"[]><svg xmlns="http://www.w3.org/2000/svg" width="174px" height="999px" viewBox="0 0 124 999"><path style="fill:#0ff;stroke:#4c4c4c;stroke-width:2" d="M0,999 l0,-999 124,0 0,999 -124,0z" /><path style="fill:none;stroke:#4c4c4c;stroke-width:2" d="M0,530 l124,0" /><path style="fill:none;stroke:#4c4c4c;stroke-width:2" d="M0,562 l124,0" /><path style="fill:none;stroke:#4c4c4c;stroke-width:2" d="M0,592 l124,0" /><path style="fill:none;stroke:#4c4c4c;stroke-width:2" d="M0,624 l124,0" /><path style="fill:none;stroke:#4c4c4c;stroke-width:2" d="M0,655 l124,0" /><path style="fill:none;stroke:#4c4c4c;stroke-width:2" d="M0,686 l124,0" /><path style="fill:none;stroke:#4c4c4c;stroke-width:2" d="M0,717 l124,0" /><path style="fill:none;stroke:#4c4c4c;stroke-width:2" d="M0,748 l124,0" /><path style="fill:none;stroke:#4c4c4c;stroke-width:2" d="M0,780 l124,0" /><path style="fill:none;stroke:#4c4c4c;stroke-width:2" d="M0,811 l124,0" /><path style="fill:none;stroke:#4c4c4c;stroke-width:2" d="M0,842 l124,0" /><path style="fill:none;stroke:#4c4c4c;stroke-width:2" d="M0,873 l124,0" /><path style="fill:none;stroke:#4c4c4c;stroke-width:2" d="M0,905 l124,0" /><path style="fill:none;stroke:#4c4c4c;stroke-width:2" d="M0,936 l124,0" /><path style="fill:none;stroke:#4c4c4c;stroke-width:2" d="M0,967 l124,0" /><path style="fill:none;stroke:#4c4c4c;stroke-width:2" d="M0,31 l124,0" /><path style="fill:none;stroke:#4c4c4c;stroke-width:2" d="M0,62 l124,0" /><path style="fill:none;stroke:#4c4c4c;stroke-width:2" d="M0,93 l124,0" /><path style="fill:none;stroke:#4c4c4c;stroke-width:2" d="M0,124 l124,0" /><path style="fill:none;stroke:#4c4c4c;stroke-width:2" d="M0,155 l124,0" /><path style="fill:none;stroke:#4c4c4c;stroke-width:2" d="M0,187 l124,0" /><path style="fill:none;stroke:#4c4c4c;stroke-width:2" d="M0,218 l124,0" /><path style="fill:none;stroke:#4c4c4c;stroke-width:2" d="M0,249 l124,0" /><path style="fill:none;stroke:#4c4c4c;stroke-width:2" d="M0,280 l124,0" /><path style="fill:none;stroke:#4c4c4c;stroke-width:2" d="M0,312 l124,0" /><path style="fill:none;stroke:#4c4c4c;stroke-width:2" d="M0,342 l124,0" /><path style="fill:none;stroke:#4c4c4c;stroke-width:2" d="M0,374 l124,0" /><path style="fill:none;stroke:#4c4c4c;stroke-width:2" d="M0,405 l124,0" /><path style="fill:none;stroke:#4c4c4c;stroke-width:2" d="M0,436 l124,0" /><path style="fill:none;stroke:#4c4c4c;stroke-width:2" d="M0,467 l124,0" /><path style="fill:none;stroke:#4c4c4c;stroke-width:2" d="M0,499 l124,0" /></svg>