<!DOCTYPE svg PUBLIC "-//W3C//DTD SVG 20000303 Stylable//EN" "http://www.w3.org/TR/2000/03/WD-SVG-20000303/DTD/svg-20000303-stylable.dtd"[]><svg xmlns="http://www.w3.org/2000/svg" width="999px" height="999px" viewBox="0 0 999 999"><path style="fill:#0ff;stroke:#4c4c4c;stroke-width:2" d="M999,110 l-889,889 -110,-112 887,-887 112,110z" /><path style="fill:none;stroke:#4c4c4c;stroke-width:2" d="M582,526 l-111,-110" /><path style="fill:none;stroke:#4c4c4c;stroke-width:2" d="M610,499 l-111,-111" /><path style="fill:none;stroke:#4c4c4c;stroke-width:2" d="M637,472 l-111,-111" /><path style="fill:none;stroke:#4c4c4c;stroke-width:2" d="M665,444 l-111,-111" /><path style="fill:none;stroke:#4c4c4c;stroke-width:2" d="M693,416 l-111,-111" /><path style="fill:none;stroke:#4c4c4c;stroke-width:2" d="M721,388 l-111,-111" /><path style="fill:none;stroke:#4c4c4c;stroke-width:2" d="M748,361 l-111,-111" /><path style="fill:none;stroke:#4c4c4c;stroke-width:2" d="M776,333 l-111,-111" /><path style="fill:none;stroke:#4c4c4c;stroke-width:2" d="M804,305 l-111,-111" /><path style="fill:none;stroke:#4c4c4c;stroke-width:2" d="M832,277 l-111,-111" /><path style="fill:none;stroke:#4c4c4c;stroke-width:2" d="M859,250 l-111,-112" /><path style="fill:none;stroke:#4c4c4c;stroke-width:2" d="M887,222 l-111,-111" /><path style="fill:none;stroke:#4c4c4c;stroke-width:2" d="M915,194 l-111,-111" /><path style="fill:none;stroke:#4c4c4c;stroke-width:2" d="M943,166 l-111,-111" /><path style="fill:none;stroke:#4c4c4c;stroke-width:2" d="M970,138 l-111,-110" /><path style="fill:none;stroke:#4c4c4c;stroke-width:2" d="M138,970 l-110,-110" /><path style="fill:none;stroke:#4c4c4c;stroke-width:2" d="M166,943 l-111,-111" /><path style="fill:none;stroke:#4c4c4c;stroke-width:2" d="M193,916 l-111,-112" /><path style="fill:none;stroke:#4c4c4c;stroke-width:2" d="M221,888 l-111,-111" /><path style="fill:none;stroke:#4c4c4c;stroke-width:2" d="M249,860 l-111,-111" /><path style="fill:none;stroke:#4c4c4c;stroke-width:2" d="M277,832 l-111,-111" /><path style="fill:none;stroke:#4c4c4c;stroke-width:2" d="M304,804 l-111,-111" /><path style="fill:none;stroke:#4c4c4c;stroke-width:2" d="M332,777 l-111,-111" /><path style="fill:none;stroke:#4c4c4c;stroke-width:2" d="M360,749 l-111,-111" /><path style="fill:none;stroke:#4c4c4c;stroke-width:2" d="M388,721 l-111,-111" /><path style="fill:none;stroke:#4c4c4c;stroke-width:2" d="M416,693 l-112,-111" /><path style="fill:none;stroke:#4c4c4c;stroke-width:2" d="M443,666 l-111,-111" /><path style="fill:none;stroke:#4c4c4c;stroke-width:2" d="M471,638 l-111,-111" /><path style="fill:none;stroke:#4c4c4c;stroke-width:2" d="M499,610 l-111,-111" /><path style="fill:none;stroke:#4c4c4c;stroke-width:2" d="M526,582 l-110,-110" /><path style="fill:none;stroke:#4c4c4c;stroke-width:2" d="M554,554 l-110,-110" /></svg>