<!DOCTYPE svg PUBLIC "-//W3C//DTD SVG 20000303 Stylable//EN" "http://www.w3.org/TR/2000/03/WD-SVG-20000303/DTD/svg-20000303-stylable.dtd"[]><svg xmlns="http://www.w3.org/2000/svg" width="999px" height="999px" viewBox="0 0 999 999"><path style="fill:#0ff;stroke:#4c4c4c;stroke-width:2" d="M999,200 l-799,799 -200,-200 799,-799 200,200z" /><path style="fill:none;stroke:#4c4c4c;stroke-width:2" d="M250,949 l-200,-200" /><path style="fill:none;stroke:#4c4c4c;stroke-width:2" d="M300,898 l-200,-199" /><path style="fill:none;stroke:#4c4c4c;stroke-width:2" d="M349,849 l-200,-199" /><path style="fill:none;stroke:#4c4c4c;stroke-width:2" d="M399,800 l-200,-200" /><path style="fill:none;stroke:#4c4c4c;stroke-width:2" d="M449,749 l-200,-200" /><path style="fill:none;stroke:#4c4c4c;stroke-width:2" d="M499,699 l-200,-199" /><path style="fill:none;stroke:#4c4c4c;stroke-width:2" d="M549,650 l-200,-200" /><path style="fill:none;stroke:#4c4c4c;stroke-width:2" d="M598,600 l-199,-200" /><path style="fill:none;stroke:#4c4c4c;stroke-width:2" d="M649,549 l-200,-199" /><path style="fill:none;stroke:#4c4c4c;stroke-width:2" d="M699,500 l-200,-200" /><path style="fill:none;stroke:#4c4c4c;stroke-width:2" d="M748,450 l-199,-200" /><path style="fill:none;stroke:#4c4c4c;stroke-width:2" d="M798,400 l-200,-200" /><path style="fill:none;stroke:#4c4c4c;stroke-width:2" d="M849,350 l-200,-200" /><path style="fill:none;stroke:#4c4c4c;stroke-width:2" d="M898,300 l-199,-200" /><path style="fill:none;stroke:#4c4c4c;stroke-width:2" d="M948,250 l-200,-199" /></svg>