<!DOCTYPE svg PUBLIC "-//W3C//DTD SVG 20000303 Stylable//EN" "http://www.w3.org/TR/2000/03/WD-SVG-20000303/DTD/svg-20000303-stylable.dtd"[]><svg xmlns="http://www.w3.org/2000/svg" width="999px" height="999px" viewBox="0 0 999 999"><path style="fill:#0ff;stroke:#4c4c4c;stroke-width:2" d="M798,999 l-798,-799 199,-200 800,799 -201,200z" /><path style="fill:none;stroke:#4c4c4c;stroke-width:2" d="M49,250 l200,-200" /><path style="fill:none;stroke:#4c4c4c;stroke-width:2" d="M100,300 l199,-200" /><path style="fill:none;stroke:#4c4c4c;stroke-width:2" d="M149,349 l199,-200" /><path style="fill:none;stroke:#4c4c4c;stroke-width:2" d="M198,399 l200,-200" /><path style="fill:none;stroke:#4c4c4c;stroke-width:2" d="M249,449 l200,-200" /><path style="fill:none;stroke:#4c4c4c;stroke-width:2" d="M299,499 l199,-200" /><path style="fill:none;stroke:#4c4c4c;stroke-width:2" d="M348,549 l200,-200" /><path style="fill:none;stroke:#4c4c4c;stroke-width:2" d="M398,598 l200,-199" /><path style="fill:none;stroke:#4c4c4c;stroke-width:2" d="M449,649 l199,-200" /><path style="fill:none;stroke:#4c4c4c;stroke-width:2" d="M498,699 l200,-200" /><path style="fill:none;stroke:#4c4c4c;stroke-width:2" d="M548,748 l200,-199" /><path style="fill:none;stroke:#4c4c4c;stroke-width:2" d="M598,798 l200,-200" /><path style="fill:none;stroke:#4c4c4c;stroke-width:2" d="M648,849 l200,-200" /><path style="fill:none;stroke:#4c4c4c;stroke-width:2" d="M698,898 l200,-199" /><path style="fill:none;stroke:#4c4c4c;stroke-width:2" d="M748,948 l199,-200" /></svg>