<!DOCTYPE svg PUBLIC "-//W3C//DTD SVG 20000303 Stylable//EN" "http://www.w3.org/TR/2000/03/WD-SVG-20000303/DTD/svg-20000303-stylable.dtd"[]><svg xmlns="http://www.w3.org/2000/svg" width="999px" height="292px" viewBox="0 0 999 249"><path style="fill:#0ff;stroke:#4c4c4c;stroke-width:2" d="M999,249 l-999,0 0,-249 999,0 0,249z" /><path style="fill:none;stroke:#4c4c4c;stroke-width:2" d="M62,249 l0,-249" /><path style="fill:none;stroke:#4c4c4c;stroke-width:2" d="M125,249 l0,-249" /><path style="fill:none;stroke:#4c4c4c;stroke-width:2" d="M186,249 l0,-249" /><path style="fill:none;stroke:#4c4c4c;stroke-width:2" d="M249,249 l0,-249" /><path style="fill:none;stroke:#4c4c4c;stroke-width:2" d="M312,249 l-1,-249" /><path style="fill:none;stroke:#4c4c4c;stroke-width:2" d="M374,249 l0,-249" /><path style="fill:none;stroke:#4c4c4c;stroke-width:2" d="M436,249 l0,-249" /><path style="fill:none;stroke:#4c4c4c;stroke-width:2" d="M498,249 l0,-249" /><path style="fill:none;stroke:#4c4c4c;stroke-width:2" d="M561,249 l0,-249" /><path style="fill:none;stroke:#4c4c4c;stroke-width:2" d="M624,249 l0,-249" /><path style="fill:none;stroke:#4c4c4c;stroke-width:2" d="M685,249 l0,-249" /><path style="fill:none;stroke:#4c4c4c;stroke-width:2" d="M748,249 l0,-249" /><path style="fill:none;stroke:#4c4c4c;stroke-width:2" d="M811,249 l0,-249" /><path style="fill:none;stroke:#4c4c4c;stroke-width:2" d="M873,249 l0,-249" /><path style="fill:none;stroke:#4c4c4c;stroke-width:2" d="M935,249 l0,-249" /></svg>