<!DOCTYPE svg PUBLIC "-//W3C//DTD SVG 20000303 Stylable//EN" "http://www.w3.org/TR/2000/03/WD-SVG-20000303/DTD/svg-20000303-stylable.dtd"[]><svg xmlns="http://www.w3.org/2000/svg" width="999px" height="606px" viewBox="0 0 999 582"><path style="fill:#0ff;stroke:#4c4c4c;stroke-width:2" d="M999,582 l-999,0 0,-582 999,0 0,582z" /><path style="fill:none;stroke:#4c4c4c;stroke-width:2" d="M999,333 l-250,0 -500,-333" /><path style="fill:none;stroke:#4c4c4c;stroke-width:2" d="M62,582 l0,-582" /><path style="fill:none;stroke:#4c4c4c;stroke-width:2" d="M125,582 l0,-582" /><path style="fill:none;stroke:#4c4c4c;stroke-width:2" d="M186,582 l0,-582" /><path style="fill:none;stroke:#4c4c4c;stroke-width:2" d="M249,582 l0,-582" /><path style="fill:none;stroke:#4c4c4c;stroke-width:2" d="M311,582 l0,-541" /><path style="fill:none;stroke:#4c4c4c;stroke-width:2" d="M374,582 l0,-499" /><path style="fill:none;stroke:#4c4c4c;stroke-width:2" d="M436,582 l0,-458" /><path style="fill:none;stroke:#4c4c4c;stroke-width:2" d="M498,582 l0,-416" /><path style="fill:none;stroke:#4c4c4c;stroke-width:2" d="M561,582 l0,-375" /><path style="fill:none;stroke:#4c4c4c;stroke-width:2" d="M624,582 l0,-333" /><path style="fill:none;stroke:#4c4c4c;stroke-width:2" d="M685,582 l0,-291" /><path style="fill:none;stroke:#4c4c4c;stroke-width:2" d="M748,582 l0,-249" /><path style="fill:none;stroke:#4c4c4c;stroke-width:2" d="M811,582 l0,-249" /><path style="fill:none;stroke:#4c4c4c;stroke-width:2" d="M873,582 l0,-249" /><path style="fill:none;stroke:#4c4c4c;stroke-width:2" d="M935,582 l0,-249" /></svg>