<!DOCTYPE svg PUBLIC "-//W3C//DTD SVG 20000303 Stylable//EN" "http://www.w3.org/TR/2000/03/WD-SVG-20000303/DTD/svg-20000303-stylable.dtd"[]><svg xmlns="http://www.w3.org/2000/svg" width="606px" height="999px" viewBox="0 0 582 999"><path style="fill:#0ff;stroke:#4c4c4c;stroke-width:2" d="M0,999 l0,-999 582,0 0,999 -582,0z" /><path style="fill:none;stroke:#4c4c4c;stroke-width:2" d="M249,999 l0,-250 333,-500" /><path style="fill:none;stroke:#4c4c4c;stroke-width:2" d="M0,62 l582,0" /><path style="fill:none;stroke:#4c4c4c;stroke-width:2" d="M0,125 l582,0" /><path style="fill:none;stroke:#4c4c4c;stroke-width:2" d="M0,186 l582,0" /><path style="fill:none;stroke:#4c4c4c;stroke-width:2" d="M0,249 l582,0" /><path style="fill:none;stroke:#4c4c4c;stroke-width:2" d="M0,311 l541,0" /><path style="fill:none;stroke:#4c4c4c;stroke-width:2" d="M0,374 l499,0" /><path style="fill:none;stroke:#4c4c4c;stroke-width:2" d="M0,436 l458,0" /><path style="fill:none;stroke:#4c4c4c;stroke-width:2" d="M0,498 l416,0" /><path style="fill:none;stroke:#4c4c4c;stroke-width:2" d="M0,561 l374,0" /><path style="fill:none;stroke:#4c4c4c;stroke-width:2" d="M0,624 l333,0" /><path style="fill:none;stroke:#4c4c4c;stroke-width:2" d="M0,685 l291,0" /><path style="fill:none;stroke:#4c4c4c;stroke-width:2" d="M0,748 l249,0" /><path style="fill:none;stroke:#4c4c4c;stroke-width:2" d="M0,811 l249,0" /><path style="fill:none;stroke:#4c4c4c;stroke-width:2" d="M0,873 l249,0" /><path style="fill:none;stroke:#4c4c4c;stroke-width:2" d="M0,935 l249,0" /></svg>