<!DOCTYPE svg PUBLIC "-//W3C//DTD SVG 20000303 Stylable//EN" "http://www.w3.org/TR/2000/03/WD-SVG-20000303/DTD/svg-20000303-stylable.dtd"[]><svg xmlns="http://www.w3.org/2000/svg" width="999px" height="606px" viewBox="0 0 999 582"><path style="fill:#0ff;stroke:#4c4c4c;stroke-width:2" d="M0,0 l999,0 0,582 -999,0 0,-582z" /><path style="fill:none;stroke:#4c4c4c;stroke-width:2" d="M0,249 l249,0 500,333" /><path style="fill:none;stroke:#4c4c4c;stroke-width:2" d="M936,0 l0,582" /><path style="fill:none;stroke:#4c4c4c;stroke-width:2" d="M873,0 l0,582" /><path style="fill:none;stroke:#4c4c4c;stroke-width:2" d="M812,0 l0,582" /><path style="fill:none;stroke:#4c4c4c;stroke-width:2" d="M749,0 l0,582" /><path style="fill:none;stroke:#4c4c4c;stroke-width:2" d="M687,0 l0,541" /><path style="fill:none;stroke:#4c4c4c;stroke-width:2" d="M624,0 l0,499" /><path style="fill:none;stroke:#4c4c4c;stroke-width:2" d="M562,0 l0,458" /><path style="fill:none;stroke:#4c4c4c;stroke-width:2" d="M500,0 l0,416" /><path style="fill:none;stroke:#4c4c4c;stroke-width:2" d="M437,0 l0,374" /><path style="fill:none;stroke:#4c4c4c;stroke-width:2" d="M374,0 l0,333" /><path style="fill:none;stroke:#4c4c4c;stroke-width:2" d="M313,0 l0,291" /><path style="fill:none;stroke:#4c4c4c;stroke-width:2" d="M250,0 l0,249" /><path style="fill:none;stroke:#4c4c4c;stroke-width:2" d="M187,0 l0,249" /><path style="fill:none;stroke:#4c4c4c;stroke-width:2" d="M125,0 l0,249" /><path style="fill:none;stroke:#4c4c4c;stroke-width:2" d="M63,0 l0,249" /></svg>