<svg version="1.1" xmlns="http://www.w3.org/2000/svg" xmlns:xlink="http://www.w3.org/1999/xlink" width="112px" height="112px" viewBox="0 0 112.5 112.5" enable-background="new 0 0 112.5 112.5" xml:space="preserve">
<g id="Group_Ovals">
	<ellipse fill="#666666" stroke="#4C4C4C" stroke-width="0.25" cx="93.693" cy="3.491" rx="18.807" ry="3.491" />
	<ellipse fill="#666666" stroke="#4C4C4C" stroke-width="0.25" cx="56.194" cy="3.491" rx="18.693" ry="3.491" />
	<ellipse fill="#666666" stroke="#4C4C4C" stroke-width="0.25" cx="18.581" cy="3.491" rx="18.581" ry="3.491" />
</g>
<g id="Group_Anode_Box">
	<linearGradient id="SVGID_1_" gradientUnits="userSpaceOnUse" x1="80.1953" y1="124.2578" x2="32.3038" y2="-7.323">
		<stop offset="0" style="stop-color:#BDBDBD" />
		<stop offset="0.4" style="stop-color:#BDBDBD" />
		<stop offset="0.58" style="stop-color:#CCCCCC" />
		<stop offset="1" style="stop-color:#CCCCCC" />
	</linearGradient>
	<path fill="url(#SVGID_1_)" stroke="#4C4C4C" stroke-width="0.25" d="M0,4.435h112.5V112.5H0V4.435z" />
</g>
<g id="Group_Anode_Grating">
	<path fill="#B2B2B2" d="M16.329,9.459h79.73v48.986h-79.73V9.459z" />
	<path fill="#A6A6A6" d="M32.771,9.459h46.847v48.986H32.771V9.459z" />
	<path fill="#B2B2B2" d="M46.734,9.459h18.919v48.986H46.734V9.459z" />
	<path fill="none" stroke="#4C4C4C" stroke-width="0.25" d="M16.329,58.445V9.459h79.73" />
	<path fill="none" stroke="#FFFFFF" stroke-width="0.25" d="M96.059,9.459v48.986h-79.73" />
</g>
<g id="Group_Anode_Lines">
	<path fill="none" stroke="#666666" stroke-width="0.25" d="M24.437,47.86h44.594" />
	<path fill="none" stroke="#666666" stroke-width="0.25" d="M25.563,46.734h44.595" />
	<path fill="none" stroke="#666666" stroke-width="0.25" d="M18.581,45.608h44.595" />
	<path fill="none" stroke="#666666" stroke-width="0.25" d="M49.212,21.059h28.153" />
	<path fill="none" stroke="#666666" stroke-width="0.25" d="M51.689,23.311h27.928" />
	<path fill="none" stroke="#666666" stroke-width="0.25" d="M43.356,28.041h27.927" />
	<path fill="none" stroke="#666666" stroke-width="0.25" d="M28.041,17.455h28.153" />
	<path fill="none" stroke="#666666" stroke-width="0.25" d="M25.563,16.329h28.153" />
	<path fill="none" stroke="#666666" stroke-width="0.25" d="M28.041,14.189h28.153" />
	<path fill="none" stroke="#666666" stroke-width="0.25" d="M28.041,35.022h44.594" />
</g>
<g id="Group_Anode_Border">
	<path fill="#7F7F7F" d="M96.059,103.266h-79.73V70.383h77.478v2.252H18.581v25.563l75.226,0.338V70.383h2.252V103.266z" />
	<path fill="none" stroke="#4C4C4C" stroke-width="0.25" d="M16.329,102.928v-32.77h79.73" />
	<path fill="none" stroke="#FFFFFF" stroke-width="0.25" d="M96.059,70.158v32.77h-79.73" />
</g>
<g id="Group_Anode_Plating">
	<path fill="#525252" d="M85.698,72.635v23.424H25.563V72.635H85.698z" />
	<path fill="#3D3D3D" d="M32.771,72.635l10.36,23.424h18.918V72.635H32.771z" />
	<path fill="#999999" d="M37.275,96.059h37.612v2.14H37.275V96.059z" />
	<path fill="#6E6E6E" d="M18.581,93.807h18.694v4.392H18.581V93.807z" />
	<path fill="#6E6E6E" d="M74.887,93.807h18.92v4.392h-18.92V93.807z" />
	<path fill="#999999" d="M57.32,72.635v23.424h-2.253V72.635H57.32z" />
	<path fill="none" stroke="#4C4C4C" d="M32.771,91.329h46.847" />
	<path fill="none" stroke="#4C4C4C" d="M51.464,91.329V72.635" />
	<path fill="none" stroke="#4C4C4C" stroke-width="0.25" d="M77.365,81.869v-9.234" />
</g>
<g id="Group_Anodes">
	<radialGradient id="SVGID_2_" cx="84.2344" cy="86.7119" r="9.3467" gradientUnits="userSpaceOnUse">
		<stop offset="0" style="stop-color:#CCCCCC" />
		<stop offset="0.38" style="stop-color:#CCCCCC" />
		<stop offset="1" style="stop-color:#595959" />
	</radialGradient>
	<circle fill="url(#SVGID_2_)" cx="84.234" cy="86.712" r="9.347" />
	<radialGradient id="SVGID_3_" cx="27.9277" cy="86.7119" r="9.3469" gradientUnits="userSpaceOnUse">
		<stop offset="0" style="stop-color:#CCCCCC" />
		<stop offset="0.38" style="stop-color:#CCCCCC" />
		<stop offset="1" style="stop-color:#595959" />
	</radialGradient>
	<circle fill="url(#SVGID_3_)" cx="27.928" cy="86.712" r="9.347" />
</g>
<g id="Group_Diamond">
	<path fill="#4A4A4A" d="M6.982,30.293l-4.729-4.73l4.729-4.504l4.617,4.504L6.982,30.293z" />
</g>
<g id="Group_Chiller_Border">
	<path fill="none" stroke="#FFFFFF" stroke-width="0.25" d="M2.252,35.022V21.059h9.347" />
	<path fill="none" stroke="#999999" stroke-width="0.25" d="M2.252,35.022h9.347V21.059" />
	<path fill="none" stroke="#E5E5E5" stroke-width="0.25" d="M97.185,9.459v50.337H14.978" />
	<path fill="none" stroke="#7F7F7F" stroke-width="0.25" d="M14.978,58.445V7.996h82.207" />
	<path fill="none" stroke="#E5E5E5" stroke-width="0.25" d="M97.185,69.933v36.712H14.978" />
	<path fill="none" stroke="#7F7F7F" stroke-width="0.25" d="M14.978,105.743V69.031h82.207" />
</g>
</svg>