<svg version="1.1" xmlns="http://www.w3.org/2000/svg" xmlns:xlink="http://www.w3.org/1999/xlink" width="112px" height="96px" viewBox="0 0 112.5 95.609" enable-background="new 0 0 112.5 95.609" xml:space="preserve">
<g id="Group_Stand">
	<path fill="#333333" d="M12.5,93.131V19.258h84.459v73.873h-3.828V25.789H16.554v67.342H12.5z" />
	<linearGradient id="SVGID_1_" gradientUnits="userSpaceOnUse" x1="68.1299" y1="35.0232" x2="68.1299" y2="32.0945">
		<stop offset="0" style="stop-color:#595959" />
		<stop offset="0.3" style="stop-color:#D7D7D7" />
		<stop offset="0.7" style="stop-color:#E0E0E0" />
		<stop offset="1" style="stop-color:#595959" />
	</linearGradient>
	<path fill="url(#SVGID_1_)" d="M40.653,32.094h54.954v2.929H40.653V32.094z" />
	<path fill="#4C4C4C" stroke="#4C4C4C" stroke-width="0.25" d="M1.239,30.744h8.559v4.279H1.239V30.744z" />
	<path fill="#999999" stroke="#4C4C4C" stroke-width="0.25" d="M14.077,46.284h81.531v1.352H14.077V46.284z" />
</g>
<g id="Group_Press_Unit">
	<linearGradient id="SVGID_2_" gradientUnits="userSpaceOnUse" x1="31.8506" y1="45.2078" x2="22.8786" y2="20.5574">
		<stop offset="0" style="stop-color:#CCCCCC" />
		<stop offset="0.52" style="stop-color:#CCCCCC" />
		<stop offset="0.61" style="stop-color:#BFBFBF" />
		<stop offset="1" style="stop-color:#BFBFBF" />
	</linearGradient>
	<path fill="url(#SVGID_2_)" d="M14.077,42.005h26.577V23.761H14.077V42.005z" />
	<path fill="#B2B2B2" stroke="#4C4C4C" stroke-width="0.25" d="M9.797,0.001h33.784V16.78H9.797V0.001z" />
	<linearGradient id="SVGID_3_" gradientUnits="userSpaceOnUse" x1="28.436" y1="18.9343" x2="24.7177" y2="-2.1534">
		<stop offset="0" style="stop-color:#BFBFBF" />
		<stop offset="0.52" style="stop-color:#BFBFBF" />
		<stop offset="0.62" style="stop-color:#CCCCCC" />
		<stop offset="1" style="stop-color:#CCCCCC" />
	</linearGradient>
	<path fill="url(#SVGID_3_)" stroke="#4C4C4C" stroke-width="0.25" d="M40.653,0.001H12.5V16.78h28.153V0.001" />
	<path fill="none" stroke="#4C4C4C" stroke-width="0.25" d="M40.653,25.113H12.5v16.892h28.153V25.113" />
</g>
<g id="Group_Stand_Front">
	<path fill="#B2B2B2" stroke="#4C4C4C" stroke-width="0.25" d="M9.797,95.608V16.78h90.089v78.828h-4.279V23.761H14.077v71.847   H9.797z" />
</g>
<g id="Group_Pipe">
	<linearGradient id="SVGID_4_" gradientUnits="userSpaceOnUse" x1="0" y1="25.113" x2="1.2388" y2="25.113">
		<stop offset="0" style="stop-color:#595959" />
		<stop offset="0.5" style="stop-color:#E0E0E0" />
		<stop offset="1" style="stop-color:#595959" />
	</linearGradient>
	<path fill="url(#SVGID_4_)" d="M0,47.635V2.591h1.239v45.045H0z" />
	<linearGradient id="SVGID_5_" gradientUnits="userSpaceOnUse" x1="4.8989" y1="2.5906" x2="4.8989" y2="1.239">
		<stop offset="0" style="stop-color:#595959" />
		<stop offset="0.5" style="stop-color:#E0E0E0" />
		<stop offset="1" style="stop-color:#595959" />
	</linearGradient>
	<path fill="url(#SVGID_5_)" d="M9.797,2.591H0V1.239h9.797V2.591z" />
</g>
<g id="Group_Back">
	<path fill="#666666" d="M42.229,8.221H11.148v8.559h31.081V8.221z" />
</g>
<g id="Group_Scale">
	<linearGradient id="SVGID_6_" gradientUnits="userSpaceOnUse" x1="12.6128" y1="16.78" x2="12.6128" y2="5.5183">
		<stop offset="0" style="stop-color:#CCCCCC" />
		<stop offset="0.36" style="stop-color:#CCCCCC" />
		<stop offset="0.45" style="stop-color:#E0E0E0" />
		<stop offset="1" style="stop-color:#E5E5E5" />
	</linearGradient>
	<path fill="url(#SVGID_6_)" stroke="#4C4C4C" stroke-width="0.25" d="M14.077,16.78h-2.928V5.518h2.928V16.78" />
	<linearGradient id="SVGID_7_" gradientUnits="userSpaceOnUse" x1="17.3423" y1="16.5544" x2="17.3423" y2="5.2927">
		<stop offset="0" style="stop-color:#CCCCCC" />
		<stop offset="0.36" style="stop-color:#CCCCCC" />
		<stop offset="0.45" style="stop-color:#E0E0E0" />
		<stop offset="1" style="stop-color:#E5E5E5" />
	</linearGradient>
	<path fill="url(#SVGID_7_)" stroke="#4C4C4C" stroke-width="0.25" d="M18.806,16.554h-2.928V5.293h2.928V16.554" />
	<linearGradient id="SVGID_8_" gradientUnits="userSpaceOnUse" x1="21.9595" y1="16.5544" x2="21.9595" y2="5.2927">
		<stop offset="0" style="stop-color:#CCCCCC" />
		<stop offset="0.36" style="stop-color:#CCCCCC" />
		<stop offset="0.45" style="stop-color:#E0E0E0" />
		<stop offset="1" style="stop-color:#E5E5E5" />
	</linearGradient>
	<path fill="url(#SVGID_8_)" stroke="#4C4C4C" stroke-width="0.25" d="M23.311,16.554h-2.703V5.293h2.703V16.554" />
	<linearGradient id="SVGID_9_" gradientUnits="userSpaceOnUse" x1="26.689" y1="16.5544" x2="26.689" y2="5.2927">
		<stop offset="0" style="stop-color:#CCCCCC" />
		<stop offset="0.36" style="stop-color:#CCCCCC" />
		<stop offset="0.45" style="stop-color:#E0E0E0" />
		<stop offset="1" style="stop-color:#E5E5E5" />
	</linearGradient>
	<path fill="url(#SVGID_9_)" stroke="#4C4C4C" stroke-width="0.25" d="M28.041,16.554h-2.703V5.293h2.703V16.554" />
	<linearGradient id="SVGID_10_" gradientUnits="userSpaceOnUse" x1="31.4189" y1="16.5544" x2="31.4189" y2="5.2927">
		<stop offset="0" style="stop-color:#CCCCCC" />
		<stop offset="0.36" style="stop-color:#CCCCCC" />
		<stop offset="0.45" style="stop-color:#E0E0E0" />
		<stop offset="1" style="stop-color:#E5E5E5" />
	</linearGradient>
	<path fill="url(#SVGID_10_)" stroke="#4C4C4C" stroke-width="0.25" d="M32.771,16.554h-2.703V5.293h2.703V16.554" />
	<linearGradient id="SVGID_11_" gradientUnits="userSpaceOnUse" x1="36.0361" y1="16.5544" x2="36.0361" y2="5.2927">
		<stop offset="0" style="stop-color:#CCCCCC" />
		<stop offset="0.36" style="stop-color:#CCCCCC" />
		<stop offset="0.45" style="stop-color:#E0E0E0" />
		<stop offset="1" style="stop-color:#E5E5E5" />
	</linearGradient>
	<path fill="url(#SVGID_11_)" stroke="#4C4C4C" stroke-width="0.25" d="M37.5,16.554h-2.928V5.293H37.5V16.554" />
	<linearGradient id="SVGID_12_" gradientUnits="userSpaceOnUse" x1="40.7656" y1="16.78" x2="40.7656" y2="5.5183">
		<stop offset="0" style="stop-color:#CCCCCC" />
		<stop offset="0.36" style="stop-color:#CCCCCC" />
		<stop offset="0.45" style="stop-color:#E0E0E0" />
		<stop offset="1" style="stop-color:#E5E5E5" />
	</linearGradient>
	<path fill="url(#SVGID_12_)" stroke="#4C4C4C" stroke-width="0.25" d="M42.229,16.78h-2.928V5.518h2.928V16.78" />
</g>
<g id="Group_Top">
	<path fill="#4C4C4C" d="M43.581,13.851h52.026v2.703H43.581V13.851z" />
	<path fill="#999999" d="M67.455,12.501h4.279v4.054h-4.279V12.501z" />
</g>
<g id="Group_Slider">
	<linearGradient id="SVGID_13_" gradientUnits="userSpaceOnUse" x1="84.7705" y1="49.2439" x2="78.5166" y2="32.0615">
		<stop offset="0" style="stop-color:#BFBFBF" />
		<stop offset="0.39" style="stop-color:#BFBFBF" />
		<stop offset="0.52" style="stop-color:#CCCCCC" />
		<stop offset="1" style="stop-color:#CCCCCC" />
	</linearGradient>
	<path fill="url(#SVGID_13_)" stroke="#4C4C4C" stroke-width="0.25" d="M70.383,46.284h22.522V35.023H70.383V46.284" />
</g>
<g id="Group_Filter">
	<path fill="#7F7F7F" stroke="#4C4C4C" stroke-width="0.25" d="M99.887,61.825H112.5v1.351H99.887V61.825z" />
	<path fill="none" stroke="#4C4C4C" stroke-width="0.25" d="M108.107,54.618l-1.125-0.901l-1.127-1.014l-0.788-1.352l-0.788-1.351   l-0.563-1.465l-0.563-1.576l-0.45-1.689l-0.338-1.576l-0.226-1.689l-0.338-1.576l-0.226-1.464l-0.225-1.464l-0.338-1.239   l-0.338-1.014l-0.338-0.9l-0.451-0.676" />
	<path fill="#E5E5E5" stroke="#4C4C4C" stroke-width="0.25" d="M102.59,61.825v-5.631l4.955-2.928l4.955,2.928v5.631H102.59z" />
</g>
</svg>