<svg version="1.1" xmlns="http://www.w3.org/2000/svg" xmlns:xlink="http://www.w3.org/1999/xlink" width="112px" height="80px" viewBox="0 0 112.5 80.295" enable-background="new 0 0 112.5 80.295" xml:space="preserve">
<g id="Group_Outer">
	<path fill="#3D3D3D" d="M0,14.528h6.869v65.766H0V14.528z" />
	<path fill="#3D3D3D" d="M105.518,14.528h6.982v65.766h-6.982V14.528z" />
	<path fill="#3D3D3D" d="M106.531,14.528l-10.473,1.126h-79.73l-9.459-1.126H106.531z" />
	<path fill="#3D3D3D" d="M112.5,7.321v7.207H0V7.321H112.5z" />
</g>
<g id="Group_Spray_Outer">
	<path fill="#616166" d="M106.531,14.528h4.843v65.766h-4.843V14.528z" />
	<path fill="#616166" d="M111.374,8.672v5.856H1.014V8.672H111.374z" />
	<path fill="#616166" d="M1.014,14.528h4.842v65.766H1.014V14.528z" />
</g>
<g id="Group_Side_Walls">
	<path fill="#ADADB2" stroke="#4C4C4C" stroke-width="0.25" d="M105.518,80.294l-9.459-9.46v-55.18l9.459-1.126V80.294z" />
	<path fill="#7A7A7F" stroke="#4C4C4C" stroke-width="0.25" d="M6.869,80.294l9.459-9.46v-55.18l-9.459-1.126V80.294z" />
</g>
<g id="Group_Booth">
	<linearGradient id="SVGID_1_" gradientUnits="userSpaceOnUse" x1="69.7236" y1="80.4177" x2="42.6626" y2="6.0682">
		<stop offset="0" style="stop-color:#A6A6A6" />
		<stop offset="0.5" style="stop-color:#CCCCCC" />
		<stop offset="1" style="stop-color:#CCCCCC" />
	</linearGradient>
	<path fill="url(#SVGID_1_)" d="M16.329,15.654h79.73v55.18h-79.73V15.654z" />
</g>
<g id="Group_Mesh">
	<path fill="#E5E5E5" d="M25.788,21.51H86.6v39.865H25.788V21.51z" />
</g>
<g id="Group_Mesh_Line">
	<path fill="none" stroke="#FFFFFF" stroke-width="0.25" d="M37.951,22.635v8.559H27.365" />
	<path fill="none" stroke="#999999" stroke-width="0.25" d="M37.951,22.635H27.365v8.559" />
	<path fill="none" stroke="#FFFFFF" stroke-width="0.25" d="M49.662,22.635v8.559H39.077" />
	<path fill="none" stroke="#999999" stroke-width="0.25" d="M49.662,22.635H39.077v8.559" />
	<path fill="none" stroke="#FFFFFF" stroke-width="0.25" d="M61.374,22.635v8.559H50.788" />
	<path fill="none" stroke="#999999" stroke-width="0.25" d="M61.374,22.635H50.788v8.559" />
	<path fill="none" stroke="#FFFFFF" stroke-width="0.25" d="M73.311,22.635v8.559H62.5" />
	<path fill="none" stroke="#999999" stroke-width="0.25" d="M73.311,22.635H62.5v8.559" />
	<path fill="none" stroke="#FFFFFF" stroke-width="0.25" d="M85.022,22.635v8.559H74.438" />
	<path fill="none" stroke="#999999" stroke-width="0.25" d="M85.022,22.635H74.438v8.559" />
	<path fill="none" stroke="#FFFFFF" stroke-width="0.25" d="M37.951,32.321v8.558H27.365" />
	<path fill="none" stroke="#999999" stroke-width="0.25" d="M37.951,32.321H27.365v8.558" />
	<path fill="none" stroke="#FFFFFF" stroke-width="0.25" d="M49.662,32.321v8.558H39.077" />
	<path fill="none" stroke="#999999" stroke-width="0.25" d="M49.662,32.321H39.077v8.558" />
	<path fill="none" stroke="#FFFFFF" stroke-width="0.25" d="M61.374,32.321v8.558H50.788" />
	<path fill="none" stroke="#999999" stroke-width="0.25" d="M61.374,32.321H50.788v8.558" />
	<path fill="none" stroke="#FFFFFF" stroke-width="0.25" d="M73.311,32.321v8.558H62.5" />
	<path fill="none" stroke="#999999" stroke-width="0.25" d="M73.311,32.321H62.5v8.558" />
	<path fill="none" stroke="#FFFFFF" stroke-width="0.25" d="M85.022,32.321v8.558H74.438" />
	<path fill="none" stroke="#999999" stroke-width="0.25" d="M85.022,32.321H74.438v8.558" />
	<path fill="none" stroke="#FFFFFF" stroke-width="0.25" d="M37.951,42.006v8.559H27.365" />
	<path fill="none" stroke="#999999" stroke-width="0.25" d="M37.951,42.006H27.365v8.559" />
	<path fill="none" stroke="#FFFFFF" stroke-width="0.25" d="M49.662,42.006v8.559H39.077" />
	<path fill="none" stroke="#999999" stroke-width="0.25" d="M49.662,42.006H39.077v8.559" />
	<path fill="none" stroke="#FFFFFF" stroke-width="0.25" d="M61.374,42.006v8.559H50.788" />
	<path fill="none" stroke="#999999" stroke-width="0.25" d="M61.374,42.006H50.788v8.559" />
	<path fill="none" stroke="#FFFFFF" stroke-width="0.25" d="M73.311,42.006v8.559H62.5" />
	<path fill="none" stroke="#999999" stroke-width="0.25" d="M73.311,42.006H62.5v8.559" />
	<path fill="none" stroke="#FFFFFF" stroke-width="0.25" d="M85.022,42.006v8.559H74.438" />
	<path fill="none" stroke="#999999" stroke-width="0.25" d="M85.022,42.006H74.438v8.559" />
	<path fill="none" stroke="#FFFFFF" stroke-width="0.25" d="M37.951,51.69v8.559H27.365" />
	<path fill="none" stroke="#999999" stroke-width="0.25" d="M37.951,51.69H27.365v8.559" />
	<path fill="none" stroke="#FFFFFF" stroke-width="0.25" d="M49.662,51.69v8.559H39.077" />
	<path fill="none" stroke="#999999" stroke-width="0.25" d="M49.662,51.69H39.077v8.559" />
	<path fill="none" stroke="#FFFFFF" stroke-width="0.25" d="M61.374,51.69v8.559H50.788" />
	<path fill="none" stroke="#999999" stroke-width="0.25" d="M61.374,51.69H50.788v8.559" />
	<path fill="none" stroke="#FFFFFF" stroke-width="0.25" d="M73.311,51.69v8.559H62.5" />
	<path fill="none" stroke="#999999" stroke-width="0.25" d="M73.311,51.69H62.5v8.559" />
	<path fill="none" stroke="#FFFFFF" stroke-width="0.25" d="M85.022,51.69v8.559H74.438" />
	<path fill="none" stroke="#999999" stroke-width="0.25" d="M85.022,51.69H74.438v8.559" />
	<path fill="none" stroke="#FFFFFF" stroke-width="0.25" d="M42.004,57.996l5.405-3.604" />
	<path fill="none" stroke="#FFFFFF" stroke-width="0.25" d="M42.004,55.294l4.279-2.703" />
	<path fill="none" stroke="#FFFFFF" stroke-width="0.25" d="M53.266,48.987l5.406-3.378" />
	<path fill="none" stroke="#FFFFFF" stroke-width="0.25" d="M53.266,46.51l4.055-2.702" />
	<path fill="none" stroke="#FFFFFF" stroke-width="0.25" d="M64.978,29.618l5.405-3.379" />
	<path fill="none" stroke="#FFFFFF" stroke-width="0.25" d="M64.978,27.14l4.054-2.703" />
</g>
<g id="Group_Top_Tank">
	<linearGradient id="SVGID_2_" gradientUnits="userSpaceOnUse" x1="72.6348" y1="4.1677" x2="97.8604" y2="4.1677">
		<stop offset="0" style="stop-color:#595959" />
		<stop offset="0.5" style="stop-color:#E0E0E0" />
		<stop offset="1" style="stop-color:#595959" />
	</linearGradient>
	<path fill="url(#SVGID_2_)" d="M72.635,7.321V1.014H97.86v6.307H72.635" />
</g>
<g id="Group_Lid">
	<path fill="#72727F" stroke="#4C4C4C" stroke-width="0.25" d="M71.509,0.001v1.014h27.365V0.001H71.509z" />
	<path fill="#72727F" stroke="#4C4C4C" stroke-width="0.25" d="M72.635,7.321V2.253h-2.928v5.068H72.635z" />
</g>
</svg>