<svg version="1.1" xmlns="http://www.w3.org/2000/svg" xmlns:xlink="http://www.w3.org/1999/xlink" width="112px" height="99px" viewBox="0 0 112.5 98.539" enable-background="new 0 0 112.5 98.539" xml:space="preserve">
<g id="Group_Oven_Stand">
	<path fill="#3D3D3D" d="M65.203,80.525h3.378v15.76h-3.378V80.525z" />
	<path fill="#3D3D3D" d="M26.239,80h3.153v15.835h-3.153V80z" />
	<path fill="#3D3D3D" d="M106.419,78.691h3.04v17.144h-3.04V78.691z" />
	<path fill="#3D3D3D" d="M25.113,82.771h85.473v-0.676H25.113V82.771z" />
</g>
<g id="Group_Oven_Part">
	<path fill="#997F19" d="M3.266,18.583v-2.252h20.271v2.252H3.266z" />
</g>
<g id="Group_Oven">
	<linearGradient id="SVGID_1_" gradientUnits="userSpaceOnUse" x1="101.6982" y1="89.5527" x2="33.9996" y2="8.8727">
		<stop offset="0" style="stop-color:#B2B2B2" />
		<stop offset="0.29" style="stop-color:#F0F0F0" />
		<stop offset="0.5" style="stop-color:#CCCCCC" />
		<stop offset="0.79" style="stop-color:#E5E5E5" />
		<stop offset="1" style="stop-color:#B2B2B2" />
	</linearGradient>
	<path fill="url(#SVGID_1_)" stroke="#4C4C4C" stroke-width="0.25" d="M25.113,16.331h85.473v65.765H25.113V16.331z" />
</g>
<g id="Group_Vents">
	<path fill="none" stroke="#999999" stroke-width="0.25" d="M29.617,73.763h15.766v-0.676H29.617v-0.45h15.766v-0.676H29.617v-0.45   h15.766v-0.676H29.617v-0.45h15.766v-0.676H29.617v-0.451h15.766v-0.676H29.617v-0.449h15.766v-0.676H29.617v-0.451h15.766" />
	<path fill="none" stroke="#999999" stroke-width="0.25" d="M47.635,73.763H63.4v-0.676H47.635v-0.45H63.4v-0.676H47.635v-0.45H63.4   v-0.676H47.635v-0.45H63.4v-0.676H47.635v-0.451H63.4v-0.676H47.635v-0.449H63.4v-0.676H47.635v-0.451H63.4" />
	<path fill="none" stroke="#999999" stroke-width="0.25" d="M29.617,25.339h15.766v-0.676H29.617v-0.45h15.766v-0.676H29.617v-0.451   h15.766v-0.675H29.617v-0.451h15.766v-0.676H29.617v-0.45h15.766v-0.676H29.617v-0.45h15.766v-0.676H29.617v-0.451h15.766" />
	<path fill="none" stroke="#999999" stroke-width="0.25" d="M47.635,25.339H63.4v-0.676H47.635v-0.45H63.4v-0.676H47.635v-0.451   H63.4v-0.675H47.635v-0.451H63.4v-0.676H47.635v-0.45H63.4v-0.676H47.635v-0.45H63.4v-0.676H47.635v-0.451H63.4" />
	<path fill="none" stroke="#999999" stroke-width="0.25" d="M64.527,17.457H28.491v60.585" />
	<path fill="none" stroke="#666666" stroke-width="0.25" d="M28.491,78.268h18.018V17.457" />
	<path fill="none" stroke="#666666" stroke-width="0.25" d="M46.734,78.268h17.793V17.457" />
	<path fill="none" stroke="#999999" stroke-width="0.25" d="M72.41,73.763h15.766v-0.676H72.41v-0.45h15.766v-0.676H72.41v-0.45   h15.766v-0.676H72.41v-0.45h15.766v-0.676H72.41v-0.451h15.766v-0.676H72.41v-0.449h15.766v-0.676H72.41v-0.451h15.766" />
	<path fill="none" stroke="#999999" stroke-width="0.25" d="M90.428,73.763h15.653v-0.676H90.428v-0.45h15.653v-0.676H90.428v-0.45   h15.653v-0.676H90.428v-0.45h15.653v-0.676H90.428v-0.451h15.653v-0.676H90.428v-0.449h15.653v-0.676H90.428v-0.451h15.653" />
	<path fill="none" stroke="#999999" stroke-width="0.25" d="M72.41,25.339h15.766v-0.676H72.41v-0.45h15.766v-0.676H72.41v-0.451   h15.766v-0.675H72.41v-0.451h15.766v-0.676H72.41v-0.45h15.766v-0.676H72.41v-0.45h15.766v-0.676H72.41v-0.451h15.766" />
	<path fill="none" stroke="#999999" stroke-width="0.25" d="M90.428,25.339h15.653v-0.676H90.428v-0.45h15.653v-0.676H90.428v-0.451   h15.653v-0.675H90.428v-0.451h15.653v-0.676H90.428v-0.45h15.653v-0.676H90.428v-0.45h15.653v-0.676H90.428v-0.451h15.653" />
	<path fill="none" stroke="#999999" stroke-width="0.25" d="M107.207,17.457H71.283v60.585" />
	<path fill="none" stroke="#666666" stroke-width="0.25" d="M71.283,78.268h18.019V17.457" />
	<path fill="none" stroke="#666666" stroke-width="0.25" d="M89.302,78.268h17.905V17.457" />
</g>
<g id="Group_Label">
	<path fill="#E5DDBF" d="M49.887,28.718h11.261v3.378H49.887V28.718z" />
	<path fill="#E5DDBF" d="M74.662,28.718h11.262v3.378H74.662V28.718z" />
</g>
<g id="Group_Clamp">
	<path fill="#4D4D4D" d="M91.104,35.475h2.703v1.126h-2.703V35.475z" />
	<path fill="#4D4D4D" d="M102.815,35.475h2.928v1.126h-2.928V35.475z" />
	<path fill="#4D4D4D" d="M73.086,35.475h2.702v1.126h-2.702V35.475z" />
	<path fill="#4D4D4D" d="M84.797,35.475h2.928v1.126h-2.928V35.475z" />
	<path fill="#4D4D4D" d="M48.311,35.475h2.703v1.126h-2.703V35.475z" />
	<path fill="#4D4D4D" d="M60.022,35.475h2.929v1.126h-2.929V35.475z" />
	<path fill="#4D4D4D" d="M30.293,35.475h2.703v1.126h-2.703V35.475z" />
	<path fill="#4D4D4D" d="M42.004,35.475h2.928v1.126h-2.928V35.475z" />
</g>
<g id="Group_Support">
	<path fill="#B2B2B2" d="M70.158,16.331h-0.451v65.765h0.451V16.331z" />
	<path fill="#E5E5E5" stroke="#4C4C4C" stroke-width="0.25" d="M66.328,16.331h3.379v82.207h-3.379V16.331z" />
	<path fill="#B2B2B2" d="M27.365,16.331h-0.45v65.765h0.45V16.331z" />
	<path fill="#E5E5E5" stroke="#4C4C4C" stroke-width="0.25" d="M23.536,16.331h3.378v82.207h-3.378V16.331z" />
	<path fill="#E5E5E5" stroke="#4C4C4C" stroke-width="0.25" d="M109.121,16.331h3.379v82.207h-3.379V16.331z" />
</g>
<g id="Group_Oven_Top_Layer">
	<path fill="#FFE57F" d="M23.536,16.331H112.5V4.056H23.536V16.331z" />
	<path fill="none" stroke="#FFFFFF" stroke-width="0.25" d="M51.464,15.204L62.5,7.772" />
	<path fill="none" stroke="#FFFFFF" stroke-width="0.25" d="M49.887,13.853l6.982-4.504" />
	<path fill="none" stroke="#FFFFFF" stroke-width="0.25" d="M84.572,10.7l6.531-4.392" />
	<path fill="#E5CB65" d="M0,16.331h23.536V4.056H0V16.331z" />
	<path fill="none" stroke="#4C4C4C" stroke-width="0.25" d="M0,16.331h112.5V4.056H0V16.331" />
	<path fill="#E5E5E5" stroke="#4C4C4C" stroke-width="0.25" d="M4.392,78.718h18.919v3.378H4.392V78.718z" />
	<path fill="#FFE57F" stroke="#4C4C4C" stroke-width="0.25" d="M12.725,78.268h10.811v-1.127H12.725V78.268z" />
	<path fill="#F2D872" stroke="#4C4C4C" stroke-width="0.25" d="M2.14,4.056h31.982V0.001H2.14V4.056z" />
	<linearGradient id="SVGID_2_" gradientUnits="userSpaceOnUse" x1="5.0674" y1="47.8613" x2="23.5361" y2="47.8613">
		<stop offset="0" style="stop-color:#B29832" />
		<stop offset="0.5" style="stop-color:#FFE57F" />
		<stop offset="1" style="stop-color:#B29832" />
	</linearGradient>
	<path fill="url(#SVGID_2_)" stroke="#4C4C4C" stroke-width="0.25" d="M23.536,77.141H5.067V18.583h18.469V77.141" />
</g>
</svg>