<!DOCTYPE svg PUBLIC "-//W3C//DTD SVG 1.1//EN" "http://www.w3.org/Graphics/SVG/1.1/DTD/svg11.dtd"[]><svg version="1.1" xmlns="http://www.w3.org/2000/svg" xmlns:xlink="http://www.w3.org/1999/xlink" width="42px" height="112px" viewBox="0 0 42.121 112.5" enable-background="new 0 0 42.121 112.5" xml:space="preserve">
<g id="Group_Filter">
	<path fill="#B2B2B2" stroke="#4C4C4C" stroke-width="0.25" d="M37.615,14.978l4.279-4.167v97.186l-4.279,4.166V14.978z" />
	<path fill="#B2B2B2" stroke="#4C4C4C" stroke-width="0.25" d="M7.321,110.022h25.676V63.852H7.321V110.022z" />
	<path fill="#E0E0E0" stroke="#4C4C4C" stroke-width="0.25" d="M17.682,65.09h2.928v15.766h-2.928V65.09z" />
</g>
<g id="Group_Blue_Junction">
	<path fill="#7F7FFF" stroke="#4C4C4C" stroke-width="0.25" d="M17.231,73.424h-0.788v3.266h0.788v1.238h3.942v-1.238h0.675v-3.266   h-0.675v-1.239h-3.942V73.424z" />
</g>
<g id="Group_Red_Part">
	<polygon fill="#FF0000" points="19.371,73.424 20.384,73.648 20.947,74.887 19.371,74.887  " />
	<polygon fill="#FF0000" points="20.947,75.225 20.384,76.464 19.371,76.689 19.371,75.225  " />
	<polygon fill="#FF0000" points="18.92,76.689 17.907,76.464 17.457,75.225 18.92,75.225  " />
	<polygon fill="#FF0000" points="17.457,74.887 17.907,73.648 18.92,73.424 18.92,74.887  " />
	<polygon fill="#FF0000" points="19.146,72.973 20.609,73.424 21.398,75.225 20.609,76.689 19.146,77.365 17.682,76.689    17.006,75.225 17.682,73.424  " />
	<path fill="none" stroke="#4C4C4C" stroke-width="0.25" d="M19.371,73.424l1.014,0.225l0.563,1.238h-1.577V73.424" />
	<path fill="none" stroke="#4C4C4C" stroke-width="0.25" d="M20.947,75.225l-0.563,1.239l-1.014,0.226v-1.465H20.947" />
	<path fill="none" stroke="#4C4C4C" stroke-width="0.25" d="M18.92,76.689l-1.014-0.226l-0.45-1.239h1.464V76.689" />
	<path fill="none" stroke="#4C4C4C" stroke-width="0.25" d="M17.457,74.887l0.45-1.238l1.014-0.225v1.463H17.457" />
	<path fill="none" stroke="#4C4C4C" stroke-width="0.25" d="M19.146,72.973l1.464,0.451l0.789,1.801l-0.789,1.465l-1.464,0.676   l-1.464-0.676l-0.676-1.465l0.676-1.801L19.146,72.973" />
</g>
<g id="Group_Ultrafiltration_System">
	<path fill="#E0E0E0" stroke="#4C4C4C" stroke-width="0.25" d="M0.001,14.978h37.95l4.167-4.167H4.168L0.001,14.978z" />
	<path fill="#E5E5E5" stroke="#4C4C4C" stroke-width="0.25" d="M5.857,65.541l2.478-2.479v46.96L5.857,112.5V65.541z" />
	<path fill="#F0F0F0" stroke="#4C4C4C" stroke-width="0.25" d="M30.97,112.162V66.329H5.857v45.833H0.001V14.978h37.95v97.185H30.97   z" />
</g>
<g id="Group_Control_Unit">
	<path fill="#CCCCCC" stroke="#4C4C4C" stroke-width="0.25" d="M3.38,19.369H35.7v32.658l-1.239,0.676L2.366,20.608L3.38,19.369z" />
	<path fill="#E0E0E0" stroke="#4C4C4C" stroke-width="0.25" d="M2.141,20.608h32.657v32.433H2.141V20.608z" />
</g>
<g id="Group_Buttons">
	<radialGradient id="SVGID_1_" cx="6.5894" cy="24.8311" r="1.7456" gradientUnits="userSpaceOnUse">
		<stop offset="0" style="stop-color:#CFCFCF" />
		<stop offset="0.5" style="stop-color:#808080" />
		<stop offset="1" style="stop-color:#1A1A1A" />
	</radialGradient>
	<path fill="url(#SVGID_1_)" d="M6.646,23.085l1.239,0.563l0.451,1.239l-0.451,1.239l-1.239,0.451l-1.239-0.451l-0.563-1.239   l0.563-1.239L6.646,23.085z" />
	<radialGradient id="SVGID_2_" cx="14.1343" cy="24.8311" r="1.6902" gradientUnits="userSpaceOnUse">
		<stop offset="0" style="stop-color:#CFCFCF" />
		<stop offset="0.5" style="stop-color:#808080" />
		<stop offset="1" style="stop-color:#1A1A1A" />
	</radialGradient>
	<path fill="url(#SVGID_2_)" d="M13.965,23.085l1.239,0.563l0.563,1.239l-0.563,1.239l-1.239,0.451l-0.901-0.451l-0.563-1.239   l0.563-1.239L13.965,23.085z" />
	<radialGradient id="SVGID_3_" cx="21.9048" cy="24.8311" r="1.7454" gradientUnits="userSpaceOnUse">
		<stop offset="0" style="stop-color:#CFCFCF" />
		<stop offset="0.5" style="stop-color:#808080" />
		<stop offset="1" style="stop-color:#1A1A1A" />
	</radialGradient>
	<path fill="url(#SVGID_3_)" d="M21.848,23.085l1.239,0.563l0.563,1.239l-0.563,1.239l-1.239,0.451l-1.239-0.451l-0.45-1.239   l0.45-1.239L21.848,23.085z" />
	<radialGradient id="SVGID_4_" cx="29.6753" cy="24.8311" r="1.6902" gradientUnits="userSpaceOnUse">
		<stop offset="0" style="stop-color:#CFCFCF" />
		<stop offset="0.5" style="stop-color:#808080" />
		<stop offset="1" style="stop-color:#1A1A1A" />
	</radialGradient>
	<path fill="url(#SVGID_4_)" d="M29.731,23.085l-1.239,0.563l-0.449,1.239l0.449,1.239l1.239,0.451l1.014-0.451l0.563-1.239   l-0.563-1.239L29.731,23.085z" />
	<path stroke="#4C4C4C" stroke-width="0.25" d="M15.767,40.428l-1.239,0.451l-0.563,1.239l0.563,1.239l1.239,0.563l0.901-0.563   l0.563-1.239l-0.563-1.239L15.767,40.428z" />
	<path stroke="#4C4C4C" stroke-width="0.25" d="M21.398,40.428l-1.239,0.451l-0.451,1.239l0.451,1.239l1.239,0.563l1.014-0.563   l0.45-1.239l-0.45-1.239L21.398,40.428z" />
</g>
<g id="Group_Red_Button">
	<radialGradient id="SVGID_5_" cx="15.5981" cy="42.1172" r="1.3259" gradientUnits="userSpaceOnUse">
		<stop offset="0" style="stop-color:#FFD4D4" />
		<stop offset="0.41" style="stop-color:#FFBEBE" />
		<stop offset="1" style="stop-color:#FF0000" />
	</radialGradient>
	<path fill="url(#SVGID_5_)" d="M15.767,40.878l-1.013,0.225l-0.563,1.014l0.563,1.014l1.013,0.225l0.676-0.225l0.563-1.014   l-0.563-1.014L15.767,40.878z" />
</g>
<g id="Group_Green_Button">
	<radialGradient id="SVGID_6_" cx="21.2852" cy="42.1172" r="1.2961" gradientUnits="userSpaceOnUse">
		<stop offset="0" style="stop-color:#CDDAC6" />
		<stop offset="0.49" style="stop-color:#BCDDB5" />
		<stop offset="1" style="stop-color:#00FF00" />
	</radialGradient>
	<path fill="url(#SVGID_6_)" d="M21.398,40.878l-1.014,0.225l-0.45,1.014l0.45,1.014l1.014,0.225l0.788-0.225l0.45-1.014   l-0.45-1.014L21.398,40.878z" />
</g>
<g id="Group_Knob">
	<path fill="#E0E0E0" d="M7.096,23.648l0.45,0.226l-1.464,2.252l-0.225-0.338L7.096,23.648z" />
	<path fill="#E0E0E0" d="M14.528,23.648l0.451,0.226l-1.464,2.252l-0.226-0.338L14.528,23.648z" />
	<path fill="#E0E0E0" d="M22.412,23.648l0.45,0.226l-1.464,2.252l-0.225-0.338L22.412,23.648z" />
	<path fill="#E0E0E0" d="M29.281,23.648l-0.451,0.226l1.465,2.252l0.225-0.338L29.281,23.648z" />
</g>
<g id="Group_Reader">
	<path d="M14.528,30.293h7.658l-1.013,4.504h-5.181L14.528,30.293z" />
	<path fill="#FFFFFF" stroke="#4C4C4C" stroke-width="0.25" d="M15.204,30.743h6.418l-0.45,2.478h-5.181L15.204,30.743z" />
	<path fill="none" stroke="#4C4C4C" stroke-width="0.25" d="M18.92,31.532l-0.451,1.689" />
	<path fill="none" stroke="#4C4C4C" stroke-width="0.25" d="M15.429,30.743v0.563" />
	<path fill="none" stroke="#4C4C4C" stroke-width="0.25" d="M16.218,30.743v0.563" />
	<path fill="none" stroke="#4C4C4C" stroke-width="0.25" d="M17.006,30.743v0.563" />
	<path fill="none" stroke="#4C4C4C" stroke-width="0.25" d="M17.682,30.743v0.563" />
	<path fill="none" stroke="#4C4C4C" stroke-width="0.25" d="M18.47,30.743v0.563" />
	<path fill="none" stroke="#4C4C4C" stroke-width="0.25" d="M19.146,30.743v0.563" />
	<path fill="none" stroke="#4C4C4C" stroke-width="0.25" d="M19.934,30.743v0.563" />
	<path fill="none" stroke="#4C4C4C" stroke-width="0.25" d="M20.609,30.743v0.563" />
	<path fill="none" stroke="#4C4C4C" stroke-width="0.25" d="M21.398,30.743v0.563" />
</g>
<g id="Group_Reader2">
	<radialGradient id="SVGID_7_" cx="4.8438" cy="11.543" r="2.4494" gradientUnits="userSpaceOnUse">
		<stop offset="0" style="stop-color:#EBEBEB" />
		<stop offset="0.5" style="stop-color:#EBEBEB" />
		<stop offset="1" style="stop-color:#595959" />
	</radialGradient>
	<path fill="url(#SVGID_7_)" stroke="#4C4C4C" stroke-width="0.25" d="M4.844,9.122l1.802,0.676l0.676,1.689l-0.676,1.802   l-1.802,0.676l-1.689-0.676l-0.789-1.802l0.789-1.689L4.844,9.122z" />
	<path d="M4.844,11.824l-0.225-0.338l1.689-1.464L4.844,11.824z" />
	<radialGradient id="SVGID_8_" cx="36.4312" cy="11.543" r="2.4214" gradientUnits="userSpaceOnUse">
		<stop offset="0" style="stop-color:#EBEBEB" />
		<stop offset="0.5" style="stop-color:#EBEBEB" />
		<stop offset="1" style="stop-color:#595959" />
	</radialGradient>
	<path fill="url(#SVGID_8_)" stroke="#4C4C4C" stroke-width="0.25" d="M36.488,9.122l1.689,0.676l0.676,1.689l-0.676,1.802   l-1.689,0.676l-1.689-0.676l-0.788-1.802l0.788-1.689L36.488,9.122z" />
	<path d="M36.488,11.824l-0.338-0.338l1.802-1.464L36.488,11.824z" />
</g>
<g id="Group_Container">
	<linearGradient id="SVGID_9_" gradientUnits="userSpaceOnUse" x1="9.123" y1="96.791" x2="30.0688" y2="96.791">
		<stop offset="0" style="stop-color:#E6E6E6" />
		<stop offset="0.21" style="stop-color:#FBFBFB" />
		<stop offset="0.73" style="stop-color:#FCFCFC" />
		<stop offset="1" style="stop-color:#E6E6E6" />
	</linearGradient>
	<path fill="url(#SVGID_9_)" stroke="#4C4C4C" stroke-width="0.25" d="M29.281,110.924l-2.252,0.563h-7.658h-7.32l-2.477-0.563   L9.123,82.095h20.946L29.281,110.924z" />
	<path fill="#FFFFFF" stroke="#4C4C4C" stroke-width="0.25" d="M30.519,82.32v0.338h-0.9l-2.252,0.112l-3.491,0.337h-4.505h-4.167   l-3.378-0.337l-2.478-0.112H8.335v-0.563L30.519,82.32z" />
	<ellipse fill="#F0F0F0" stroke="#4C4C4C" stroke-width="0.25" cx="19.483" cy="86.487" rx="10.698" ry="0.451" />
	<ellipse fill="#F0F0F0" stroke="#4C4C4C" stroke-width="0.25" cx="19.483" cy="87.726" rx="10.698" ry="0.45" />
	<ellipse fill="#7F7F7F" stroke="#4C4C4C" stroke-width="0.25" cx="19.371" cy="82.208" rx="11.036" ry="0.563" />
</g>
<g id="Group_Inlet">
	<linearGradient id="SVGID_10_" gradientUnits="userSpaceOnUse" x1="9.123" y1="4.7861" x2="16.2178" y2="4.7861">
		<stop offset="0" style="stop-color:#003399" />
		<stop offset="0.5" style="stop-color:#0000FF" />
		<stop offset="1" style="stop-color:#003399" />
	</linearGradient>
	<path fill="url(#SVGID_10_)" d="M9.123,9.572V0h7.095v9.572H9.123z" />
	<linearGradient id="SVGID_11_" gradientUnits="userSpaceOnUse" x1="7.3213" y1="11.3174" x2="16.4429" y2="11.3174">
		<stop offset="0" style="stop-color:#003399" />
		<stop offset="0.5" style="stop-color:#0000FF" />
		<stop offset="1" style="stop-color:#003399" />
	</linearGradient>
	<path fill="url(#SVGID_11_)" d="M7.321,9.572v3.491h9.122V9.572H7.321z" />
	<path fill="none" stroke="#4C4C4C" stroke-width="0.25" d="M9.799,1.126v3.491" />
	<path fill="none" stroke="#4C4C4C" stroke-width="0.25" d="M10.812,1.464v2.478" />
	<path fill="none" stroke="#4C4C4C" stroke-width="0.25" d="M12.501,1.689v3.378" />
	<path fill="none" stroke="#4C4C4C" stroke-width="0.25" d="M13.515,1.464v2.478" />
	
		<radialGradient id="SVGID_12_" cx="-33.9409" cy="-146.5034" r="2.8956" gradientTransform="matrix(0.8678 0.0607 0.0633 -0.8244 77.5619 -110.2094)" gradientUnits="userSpaceOnUse">
		<stop offset="0" style="stop-color:#0007D1" />
		<stop offset="0.52" style="stop-color:#0000DB" />
		<stop offset="1" style="stop-color:#0005D6" />
	</radialGradient>
	<path fill="url(#SVGID_12_)" d="M38.701,6.242c1.23,0,2.522,0.805,2.522,2.401l-2.137,0.005c-0.045-0.28-0.166-0.348-0.379-0.365   C38.683,7.748,38.701,6.242,38.701,6.242z" />
	
		<linearGradient id="SVGID_13_" gradientUnits="userSpaceOnUse" x1="39.106" y1="54.585" x2="41.2231" y2="54.585" gradientTransform="matrix(1 0 0 -1 0 113.582)">
		<stop offset="0" style="stop-color:#003399" />
		<stop offset="0.5" style="stop-color:#0000FF" />
		<stop offset="1" style="stop-color:#003399" />
	</linearGradient>
	<rect x="39.106" y="8.608" fill="url(#SVGID_13_)" width="2.117" height="100.777" />
	
		<linearGradient id="SVGID_14_" gradientUnits="userSpaceOnUse" x1="27.4702" y1="105.3047" x2="27.4702" y2="107.3584" gradientTransform="matrix(1 0 0 -1 0 113.582)">
		<stop offset="0" style="stop-color:#003399" />
		<stop offset="0.5" style="stop-color:#0000FF" />
		<stop offset="1" style="stop-color:#003399" />
	</linearGradient>
	<rect x="16.143" y="6.223" fill="url(#SVGID_14_)" width="22.655" height="2.054" />
</g>
</svg>