<svg version="1.1" xmlns="http://www.w3.org/2000/svg" xmlns:xlink="http://www.w3.org/1999/xlink" width="112px" height="80px" viewBox="0 0 112.5 80.402" enable-background="new 0 0 112.5 80.402" xml:space="preserve">
<g id="Group_Stand">
	<path fill="#B2B2B2" stroke="#4C4C4C" stroke-width="0.25" d="M4.056,79.727l-0.789,0.676v-9.459l0.789-0.788V79.727z" />
	<path fill="#B2B2B2" stroke="#4C4C4C" stroke-width="0.25" d="M88.737,79.727l-0.788,0.676v-9.459l0.788-0.788V79.727z" />
	<path fill="#F0F0F0" stroke="#4C4C4C" stroke-width="0.25" d="M0.678,80.402h2.59v-9.459h-2.59V80.402z" />
	<path fill="#F0F0F0" stroke="#4C4C4C" stroke-width="0.25" d="M85.359,80.402h2.59v-9.459h-2.59V80.402z" />
	<path fill="#7F7F7F" stroke="#4C4C4C" stroke-width="0.25" d="M103.377,66.214l-0.789,0.788v-9.459l0.789-0.9V66.214z" />
	<path fill="#E5E5E5" stroke="#4C4C4C" stroke-width="0.25" d="M99.773,67.002h2.814v-9.459h-2.814V67.002z" />
</g>
<g id="Group_Wastewater_Reduction_System">
	<path fill="#CCCCCC" stroke="#4C4C4C" stroke-width="0.25" d="M0.002,25.45h90.763v45.494H0.002V25.45z" />
	<path fill="#F0F0F0" stroke="#4C4C4C" stroke-width="0.25" d="M0.002,25.45h90.763l13.175-12.837H13.853L0.002,25.45z" />
	<path fill="#999999" stroke="#4C4C4C" stroke-width="0.25" d="M103.715,12.612L90.765,25.45v45.494l12.95-13.963V12.612z" />
	<path fill="none" stroke="#999999" stroke-width="0.25" d="M9.461,42.791h23.197V32.206" />
	<path fill="none" stroke="#FFFFFF" stroke-width="0.25" d="M9.461,42.791V32.206h23.197" />
</g>
<g id="Group_Control_BOx">
	<path fill="#336666" stroke="#4C4C4C" stroke-width="0.25" d="M42.005,37.949h41.553v36.822H42.005V37.949z" />
	<path fill="#336666" stroke="#4C4C4C" stroke-width="0.25" d="M42.005,37.949h41.553l3.829-4.167H46.171L42.005,37.949z" />
	<path fill="#336666" stroke="#4C4C4C" stroke-width="0.25" d="M87.387,33.783l-3.829,4.167v36.822l3.829-3.828V33.783z" />
</g>
<g id="Group_Switch_Back">
	<path stroke="#4C4C4C" stroke-width="0.25" d="M45.383,46.395l0.563-1.014l0.901-0.563l0.901,0.563l0.451,1.014l-0.451,1.014   l-0.901,0.338l-0.901-0.338L45.383,46.395z" />
	<path stroke="#4C4C4C" stroke-width="0.25" d="M45.383,42.003l0.563-0.788l0.901-0.563l0.901,0.563l0.451,0.788l-0.451,1.014   l-0.901,0.563l-0.901-0.563L45.383,42.003z" />
	<path stroke="#4C4C4C" stroke-width="0.25" d="M50.451,46.395l0.563-1.014l1.014-0.563l0.788,0.563l0.563,1.014l-0.563,1.014   l-0.788,0.338l-1.014-0.338L50.451,46.395z" />
	<path stroke="#4C4C4C" stroke-width="0.25" d="M50.451,42.003l0.563-0.788l1.014-0.563l0.788,0.563l0.563,0.788l-0.563,1.014   l-0.788,0.563l-1.014-0.563L50.451,42.003z" />
	<path stroke="#4C4C4C" stroke-width="0.25" d="M55.968,46.395l0.226-1.014l1.013-0.563l1.014,0.563l0.563,1.014l-0.563,1.014   l-1.014,0.338l-1.013-0.338L55.968,46.395z" />
	<path stroke="#4C4C4C" stroke-width="0.25" d="M55.968,42.003l0.226-0.788l1.013-0.563l1.014,0.563l0.563,0.788l-0.563,1.014   l-1.014,0.563l-1.013-0.563L55.968,42.003z" />
</g>
<g id="Group_Green_Button">
	<radialGradient id="SVGID_1_" cx="46.96" cy="46.3945" r="1.0134" gradientUnits="userSpaceOnUse">
		<stop offset="0" style="stop-color:#CDDAC6" />
		<stop offset="1" style="stop-color:#00FF00" />
	</radialGradient>
	<path fill="url(#SVGID_1_)" d="M45.946,46.395l0.225-0.788l0.676-0.226l0.563,0.226l0.563,0.788l-0.563,0.789l-0.563,0.225   l-0.676-0.225L45.946,46.395z" />
	<radialGradient id="SVGID_2_" cx="51.8018" cy="46.3945" r="1.0137" gradientUnits="userSpaceOnUse">
		<stop offset="0" style="stop-color:#CDDAC6" />
		<stop offset="1" style="stop-color:#00FF00" />
	</radialGradient>
	<path fill="url(#SVGID_2_)" d="M50.789,46.395l0.45-0.788l0.789-0.226l0.563,0.226l0.225,0.788l-0.225,0.789l-0.563,0.225   l-0.789-0.225L50.789,46.395z" />
	<radialGradient id="SVGID_3_" cx="57.207" cy="46.3945" r="1.0137" gradientUnits="userSpaceOnUse">
		<stop offset="0" style="stop-color:#CDDAC6" />
		<stop offset="1" style="stop-color:#00FF00" />
	</radialGradient>
	<path fill="url(#SVGID_3_)" d="M56.194,46.395l0.225-0.788l0.788-0.226l0.789,0.226l0.225,0.788l-0.225,0.789l-0.789,0.225   l-0.788-0.225L56.194,46.395z" />
</g>
<g id="Group_Red_Button">
	<radialGradient id="SVGID_4_" cx="46.96" cy="42.0029" r="1.0134" gradientUnits="userSpaceOnUse">
		<stop offset="0" style="stop-color:#FFD4D4" />
		<stop offset="0.41" style="stop-color:#FFBEBE" />
		<stop offset="1" style="stop-color:#FF0000" />
	</radialGradient>
	<path fill="url(#SVGID_4_)" d="M45.946,42.003l0.225-0.563l0.676-0.45l0.563,0.45l0.563,0.563l-0.563,0.788l-0.563,0.226   l-0.676-0.226L45.946,42.003z" />
	<radialGradient id="SVGID_5_" cx="51.8018" cy="42.0029" r="1.0137" gradientUnits="userSpaceOnUse">
		<stop offset="0" style="stop-color:#FFD4D4" />
		<stop offset="0.41" style="stop-color:#FFBEBE" />
		<stop offset="1" style="stop-color:#FF0000" />
	</radialGradient>
	<path fill="url(#SVGID_5_)" d="M50.789,42.003l0.45-0.563l0.789-0.45l0.563,0.45l0.225,0.563l-0.225,0.788l-0.563,0.226   l-0.789-0.226L50.789,42.003z" />
	<radialGradient id="SVGID_6_" cx="57.207" cy="42.0029" r="1.0137" gradientUnits="userSpaceOnUse">
		<stop offset="0" style="stop-color:#FFD4D4" />
		<stop offset="0.41" style="stop-color:#FFBEBE" />
		<stop offset="1" style="stop-color:#FF0000" />
	</radialGradient>
	<path fill="url(#SVGID_6_)" d="M56.194,42.003l0.225-0.563l0.788-0.45l0.789,0.45l0.225,0.563l-0.225,0.788l-0.789,0.226   l-0.788-0.226L56.194,42.003z" />
</g>
<g id="Group_Switch">
	<path fill="#E0E0E0" stroke="#4C4C4C" stroke-width="0.25" d="M45.383,54.615h3.266v4.955h-3.266V54.615z" />
	<path d="M45.383,56.643h3.266v0.9h-3.266V56.643z" />
</g>
<g id="Group_Pump">
	<path fill="#F0F0F0" stroke="#4C4C4C" stroke-width="0.25" d="M104.953,62.16l0.225-1.803l4.955-1.576l1.803-2.59l0.563-2.252   l-0.563-2.703l-1.352-2.026l-2.027-1.239l-2.59-0.563l-2.59,0.563l-2.252,1.577L104.953,62.16z" />
	<radialGradient id="SVGID_7_" cx="105.46" cy="54.9531" r="6.8511" gradientUnits="userSpaceOnUse">
		<stop offset="0.65" style="stop-color:#E0E0E0" />
		<stop offset="1" style="stop-color:#A6A6A6" />
	</radialGradient>
	<path fill="url(#SVGID_7_)" stroke="#4C4C4C" stroke-width="0.25" d="M98.984,62.16h5.969v-1.576l0.563,0.225l2.59-0.676   l2.027-1.352l1.238-2.139l0.564-2.479l-0.564-2.364l-1.238-2.026l-2.027-1.577l-2.59-0.45l-2.59,0.45l-2.139,1.577L99.548,51.8   l-0.563,2.364V62.16z" />
	<radialGradient id="SVGID_8_" cx="105.6289" cy="54.1641" r="4.2793" gradientUnits="userSpaceOnUse">
		<stop offset="0.65" style="stop-color:#E0E0E0" />
		<stop offset="1" style="stop-color:#999999" />
	</radialGradient>
	<circle fill="url(#SVGID_8_)" stroke="#4C4C4C" stroke-width="0.25" cx="105.629" cy="54.165" r="4.279" />
</g>
<g id="Group_Inlet">
	<path fill="#666666" stroke="#4C4C4C" stroke-width="0.25" d="M4.844,23.985h38.174l10.36-10.36H15.993L4.844,23.985z" />
	<path fill="#666666" stroke="#4C4C4C" stroke-width="0.25" d="M76.351,23.985H49.775l10.36-10.36h26.463L76.351,23.985z" />
</g>
<g id="Group_Radial">
	<linearGradient id="SVGID_9_" gradientUnits="userSpaceOnUse" x1="101.3496" y1="63.7363" x2="101.3496" y2="59.7949">
		<stop offset="0" style="stop-color:#686868" />
		<stop offset="0.35" style="stop-color:#E0E0E0" />
		<stop offset="0.65" style="stop-color:#E0E0E0" />
		<stop offset="1" style="stop-color:#595959" />
	</linearGradient>
	<path fill="url(#SVGID_9_)" d="M97.746,59.795h7.207v3.941h-7.207V59.795" />
</g>
<g id="Group_Tank">
	<linearGradient id="SVGID_10_" gradientUnits="userSpaceOnUse" x1="84.7969" y1="9.7402" x2="96.3945" y2="9.7402">
		<stop offset="0" style="stop-color:#A6A6A6" />
		<stop offset="0.2" style="stop-color:#F2F2F2" />
		<stop offset="0.8" style="stop-color:#F2F2F2" />
		<stop offset="1" style="stop-color:#A6A6A6" />
	</linearGradient>
	<path fill="url(#SVGID_10_)" d="M84.797,0.225h11.598v19.031H84.797V0.225z" />
	<linearGradient id="SVGID_11_" gradientUnits="userSpaceOnUse" x1="94.1426" y1="12.0488" x2="94.1426" y2="7.207">
		<stop offset="0" style="stop-color:#A6A6A6" />
		<stop offset="0.35" style="stop-color:#F2F2F2" />
		<stop offset="0.65" style="stop-color:#F2F2F2" />
		<stop offset="1" style="stop-color:#A6A6A6" />
	</linearGradient>
	<path fill="url(#SVGID_11_)" stroke="#4C4C4C" stroke-width="0.1" d="M98.535,7.207h-8.784v4.842h8.784V7.207z" />
	<linearGradient id="SVGID_12_" gradientUnits="userSpaceOnUse" x1="88.1738" y1="16.666" x2="88.1738" y2="3.2656">
		<stop offset="0" style="stop-color:#A6A6A6" />
		<stop offset="0.35" style="stop-color:#F2F2F2" />
		<stop offset="0.65" style="stop-color:#F2F2F2" />
		<stop offset="1" style="stop-color:#A6A6A6" />
	</linearGradient>
	<path fill="url(#SVGID_12_)" stroke="#4C4C4C" stroke-width="0.1" d="M85.584,3.266h5.181v13.4h-5.181V3.266z" />
	<path fill="#7F7F7F" stroke="#4C4C4C" stroke-width="0.25" d="M90.539,0l4.617,0.225l2.027,0.225l-2.027,0.226h-4.617h-4.617   L84.121,0.45l1.801-0.225L90.539,0z" />
	<linearGradient id="SVGID_13_" gradientUnits="userSpaceOnUse" x1="84.5703" y1="19.3125" x2="96.3945" y2="19.3125">
		<stop offset="0" style="stop-color:#686868" />
		<stop offset="0.35" style="stop-color:#E0E0E0" />
		<stop offset="0.65" style="stop-color:#E0E0E0" />
		<stop offset="1" style="stop-color:#595959" />
	</linearGradient>
	<path fill="url(#SVGID_13_)" stroke="#4C4C4C" stroke-width="0.1" d="M96.395,19.594l-1.463,0.226h-4.393h-4.166l-1.803-0.226   v-0.788l1.803,0.225h4.166h4.393l1.463-0.225V19.594z" />
</g>
<g id="Group_Supply">
	<path fill="#F0F0F0" stroke="#4C4C4C" stroke-width="0.25" d="M94.368,57.768h3.378V65.2h-3.378V57.768z" />
	<path fill="#F0F0F0" stroke="#4C4C4C" stroke-width="0.25" d="M94.368,57.768h3.378l0.789-1.125h-3.154L94.368,57.768z" />
	<path fill="#CCCCCC" stroke="#4C4C4C" stroke-width="0.25" d="M98.535,56.643l-0.789,1.125V65.2l0.789-1.014V56.643z" />
	<path d="M95.156,63.174l-0.225,0.225l1.013,1.014l1.014-1.014l-0.788-1.014l-0.789-2.59l0.563,0.563l1.014-1.013l-0.788-1.126   l-3.604-15.99h-6.419v-0.226h-0.563v1.577h0.563v-0.338h5.63l3.379,15.765L91.553,46.17h-5.969v1.576h0.563v-0.338h4.617   L95.156,63.174z" />
</g>
<g id="Group_Label">
	<path fill="#FFFFFF" stroke="#4C4C4C" stroke-width="0.25" d="M83.783,70.381l3.152-3.041v-5.405L83.783,65.2V70.381z" />
</g>
<g id="Group_Handle">
	<path fill="none" stroke="#4C4C4C" stroke-width="0.5" d="M11.038,19.594v-2.14l3.041-2.815v2.027" />
	<path fill="none" stroke="#4C4C4C" stroke-width="0.5" d="M46.171,19.594v-2.14l2.815-2.815v2.027" />
	<path fill="none" stroke="#4C4C4C" stroke-width="0.5" d="M55.18,19.594v-2.14l3.041-2.815v2.027" />
	<path fill="none" stroke="#4C4C4C" stroke-width="0.5" d="M79.391,19.594v-2.14l3.153-2.815v2.027" />
</g>
</svg>