<!DOCTYPE svg PUBLIC "-//W3C//DTD SVG 20000303 Stylable//EN" "http://www.w3.org/TR/2000/03/WD-SVG-20000303/DTD/svg-20000303-stylable.dtd"[]><svg width="999px" height="346px" viewBox="0 0 999 307" xmlns="http://www.w3.org/2000/svg"><path style="fill:#333" d="M999,255 l-995,0 0,5 995,0 0,-5z" /><path style="fill:#033" d="M813,255 l124,0 0,31 -124,0 0,-31z" /><path style="fill:#033" d="M47,255 l124,0 0,31 -124,0 0,-31z" /><circle style="fill:#000" cx="929" cy="273" r="34" /><circle style="fill:#000" cx="54" cy="273" r="34" /><path style="fill:#000;stroke:#4c4c4c;stroke-width:2" d="M166,255 l656,0 0,14 -656,0 0,-14z" /><circle style="fill:#000" cx="819" cy="273" r="34" /><path style="fill:#7f7f7f;stroke:#4c4c4c;stroke-width:2" d="M796,271 l0,-11 16,-10 15,0 16,10 0,11 -47,0z" /><path style="fill:#4c4c4c;stroke:#4c4c4c;stroke-width:2" d="M843,276 l0,10 -16,11 -16,0 -15,-11 0,-10 47,0z" /><path style="fill:#7f7f7f;stroke:#4c4c4c;stroke-width:2" d="M911,288 l-8,-8 4,-18 11,-11 18,-4 8,8 -33,33z" /><path style="fill:#4c4c4c;stroke:#4c4c4c;stroke-width:2" d="M947,258 l7,8 -3,18 -11,11 -19,4 -7,-8 33,-33z" /><circle style="fill:#000" cx="163" cy="273" r="33" /><path style="fill:#7f7f7f;stroke:#4c4c4c;stroke-width:2" d="M31,271 l0,-11 16,-10 15,0 15,10 0,11 -46,0z" /><path style="fill:#4c4c4c;stroke:#4c4c4c;stroke-width:2" d="M77,276 l0,10 -16,11 -15,0 -15,-11 0,-10 46,0z" /><path style="fill:#7f7f7f;stroke:#4c4c4c;stroke-width:2" d="M145,288 l-7,-8 4,-18 10,-11 19,-4 7,8 -33,33z" /><path style="fill:#4c4c4c;stroke:#4c4c4c;stroke-width:2" d="M182,258 l7,8 -4,18 -11,11 -18,4 -7,-8 33,-33z" /><path style="fill:#e5e5e5" d="M104,0 l791,0 0,239 -791,0 0,-239z" /><path style="fill:#e0e0e0" d="M104,244 l0,-88 791,-146 0,234 -791,0z" /><path style="fill:#dbdbdb" d="M104,244 l0,-67 791,-146 0,213 -791,0z" /><path style="fill:#d6d6d6" d="M104,244 l0,-46 791,-141 0,187 -791,0z" /><path style="fill:#d1d1d1" d="M223,244 l672,-114 0,114 -672,0z" /><path style="fill:#a5b2b2;stroke:#4c4c4c;stroke-width:2" d="M999,240 l0,15 -999,0 0,-16 999,1z" /><path style="fill:#ccc" d="M104,10 l0,5 791,0 0,-5 -791,0z" /><path style="fill:none;stroke:#4c4c4c;stroke-width:2" d="M105,0 l790,0 0,239 -790,0 0,-239" /><circle style="fill:#dedede" cx="314" cy="80" r="44" /><path style="fill:#b2bfbf" d="M93,229 l0,31 37,31 739,0 36,-31 0,-31 -812,0z" /><path style="fill:#99a6a6" d="M93,260 l37,31 739,0 36,-31 -812,0z" /><path style="fill:none;stroke:#4c4c4c;stroke-width:2" d="M93,229 l0,31 37,31 739,0 36,-31 0,-31 -812,0" /><path style="fill:#65657f" d="M796,26 l0,16 -156,0 0,-16 156,0z" /><path style="fill:none;stroke:#7f7f7f;stroke-width:2" d="M156,10 l0,219" /><path style="fill:none;stroke:#7f7f7f;stroke-width:2" d="M218,10 l0,219" /><path style="fill:none;stroke:#7f7f7f;stroke-width:2" d="M280,10 l0,219" /><path style="fill:none;stroke:#7f7f7f;stroke-width:2" d="M342,10 l0,219" /><path style="fill:none;stroke:#7f7f7f;stroke-width:2" d="M405,10 l0,219" /><path style="fill:none;stroke:#7f7f7f;stroke-width:2" d="M467,10 l0,219" /><path style="fill:none;stroke:#7f7f7f;stroke-width:2" d="M530,10 l0,219" /><path style="fill:none;stroke:#7f7f7f;stroke-width:2" d="M592,10 l0,219" /><path style="fill:none;stroke:#7f7f7f;stroke-width:2" d="M655,10 l0,219" /><path style="fill:none;stroke:#7f7f7f;stroke-width:2" d="M717,10 l0,219" /><path style="fill:none;stroke:#7f7f7f;stroke-width:2" d="M779,10 l0,219" /><path style="fill:none;stroke:#7f7f7f;stroke-width:2" d="M842,10 l0,219" /><path style="fill:none;stroke:#fff;stroke-width:2" d="M150,10 l0,219" /><path style="fill:none;stroke:#fff;stroke-width:2" d="M213,10 l0,219" /><path style="fill:none;stroke:#fff;stroke-width:2" d="M275,10 l0,219" /><path style="fill:none;stroke:#fff;stroke-width:2" d="M337,10 l0,219" /><path style="fill:none;stroke:#fff;stroke-width:2" d="M399,10 l0,219" /><path style="fill:none;stroke:#fff;stroke-width:2" d="M462,10 l0,219" /><path style="fill:none;stroke:#fff;stroke-width:2" d="M524,10 l0,219" /><path style="fill:none;stroke:#fff;stroke-width:2" d="M587,10 l0,219" /><path style="fill:none;stroke:#fff;stroke-width:2" d="M649,10 l0,219" /><path style="fill:none;stroke:#fff;stroke-width:2" d="M712,10 l0,219" /><path style="fill:none;stroke:#fff;stroke-width:2" d="M774,10 l0,219" /><path style="fill:none;stroke:#fff;stroke-width:2" d="M837,10 l0,219" /></svg>