<!DOCTYPE svg PUBLIC "-//W3C//DTD SVG 20000303 Stylable//EN" "http://www.w3.org/TR/2000/03/WD-SVG-20000303/DTD/svg-20000303-stylable.dtd"[]><svg width="999px" height="660px" viewBox="0 0 998 640" xmlns="http://www.w3.org/2000/svg"><path style="fill:#d9b31a;stroke:#4c4c4c;stroke-width:2" d="M40,133 l-21,0 16,497 21,0 -16,-497z" /><path style="fill:#333;stroke:#4c4c4c;stroke-width:2" d="M0,127 l911,0 0,11 -911,0 0,-11z" /><path style="fill:#e5bf26" d="M927,640 l36,0 0,-57 -36,0 0,57z" /><path style="fill:#ffd940" d="M927,547 l36,0 0,36 -36,0 0,-36z" /><path style="fill:#ff7f7f;stroke:#4c4c4c;stroke-width:2" d="M179,51 l77,0 0,15 -77,0 0,-15z" /><path style="fill:#ff7f7f;stroke:#4c4c4c;stroke-width:2" d="M742,20 l57,0 0,36 -57,0 0,-36z" /><path style="fill:#ff7f7f;stroke:#4c4c4c;stroke-width:2" d="M891,0 l77,0 0,15 -77,0 0,-15z" /><path style="fill:#ffcc7f;stroke:#4c4c4c;stroke-width:2" d="M906,15 l16,0 0,51 -16,0 0,-51z" /><path style="fill:#e5bf26" d="M0,66 l983,0 0,61 -5,62 -15,359 -36,0 -16,-359 0,-62 -911,0 0,-61z" /><path style="fill:#deb81f" d="M983,127 l-5,62 -15,359 -36,0 -16,-359 72,-62z" /><path style="fill:#d6b017" d="M976,234 l-13,314 -36,0 -12,-269 61,-45z" /><path style="fill:none;stroke:#4c4c4c;stroke-width:2" d="M0,66 l983,0 0,61 -5,62 -15,359 0,92 -36,0 0,-92 -16,-359 0,-62 -911,0 0,-61" /><path style="fill:none;stroke:#fff;stroke-width:2" d="M911,61 l0,-41" /><path style="fill:#4c4c4c;stroke:#4c4c4c;stroke-width:2" d="M215,143 l5,0 0,10 -5,0 0,-10z" /><path style="fill:#4c4c4c;stroke:#4c4c4c;stroke-width:2" d="M5,51 l5,0 0,15 -5,0 0,-15z" /><path style="fill:#ffd940;stroke:#4c4c4c;stroke-width:2" d="M15,133 l20,0 -15,507 -20,0 15,-507z" /><path style="fill:none;stroke:#fff;stroke-width:2" d="M5,630 l15,-487" /><path style="fill:#f2cc33" d="M5,71 l973,0 0,36 -973,0 0,-36z" /><path style="fill:#000" d="M742,66 l57,0 0,-10 -57,0 0,10z" /><path style="fill:#4c4c4c;stroke:#4c4c4c;stroke-width:2" d="M768,148 l5,0 0,10 -5,0 0,-10z" /><path style="fill:#e5bf26;stroke:#4c4c4c;stroke-width:2" d="M994,51 l0,15 -6,0 0,-15 6,0z" /><path style="fill:#e5bf26;stroke:#4c4c4c;stroke-width:2" d="M983,66 l15,0 0,5 -15,0 0,-5z" /><path style="fill:#e5bf26;stroke:#4c4c4c;stroke-width:2" d="M983,76 l15,0 0,5 -15,0 0,-5z" /><path style="fill:none;stroke:#b28c00;stroke-width:2" d="M886,71 l0,51" /><path style="fill:none;stroke:#b28c00;stroke-width:2" d="M788,71 l0,51" /><path style="fill:none;stroke:#b28c00;stroke-width:2" d="M594,71 l0,51" /><path style="fill:none;stroke:#b28c00;stroke-width:2" d="M691,71 l0,51" /><path style="fill:none;stroke:#b28c00;stroke-width:2" d="M491,71 l0,51" /><path style="fill:none;stroke:#b28c00;stroke-width:2" d="M266,71 l0,51" /><path style="fill:none;stroke:#b28c00;stroke-width:2" d="M384,71 l0,51" /><path style="fill:none;stroke:#b28c00;stroke-width:2" d="M51,71 l0,51" /><path style="fill:none;stroke:#b28c00;stroke-width:2" d="M153,71 l0,51" /><path style="fill:#e5e5e5;stroke:#4c4c4c;stroke-width:2" d="M763,56 l5,0 0,82 -5,0 0,-82z" /><path style="fill:#e5e5e5;stroke:#4c4c4c;stroke-width:2" d="M773,56 l5,0 0,82 -5,0 0,-82z" /><path style="fill:#e5e5e5;stroke:#4c4c4c;stroke-width:2" d="M763,138 l16,0 0,10 -16,0 0,-10z" /><path style="fill:#e5e5e5;stroke:#4c4c4c;stroke-width:2" d="M758,158 l25,0 0,5 -25,0 0,-5z" /><path style="fill:#e5e5e5;stroke:#4c4c4c;stroke-width:2" d="M204,153 l26,0 0,5 -26,0 0,-5z" /><path style="fill:#b23232;stroke:#4c4c4c;stroke-width:2" d="M788,61 l21,0 0,10 -21,0 0,-10z" /><path style="fill:#b23232;stroke:#4c4c4c;stroke-width:2" d="M732,61 l21,0 0,10 -21,0 0,-10z" /><path style="fill:#b23232;stroke:#4c4c4c;stroke-width:2" d="M209,127 l16,0 0,16 -16,0 0,-16z" /><path style="fill:none;stroke:#4c4c4c;stroke-width:2" d="M988,51 l0,-31" /><path style="fill:none;stroke:#4c4c4c;stroke-width:2" d="M10,51 l0,-51" /><path style="fill:none;stroke:#4c4c4c;stroke-width:2" d="M758,163 l0,337" /><path style="fill:none;stroke:#4c4c4c;stroke-width:2" d="M773,163 l0,359" /><path style="fill:none;stroke:#4c4c4c;stroke-width:2" d="M783,163 l0,359" /><path style="fill:none;stroke:#4c4c4c;stroke-width:2" d="M225,158 l0,236" /><path style="fill:none;stroke:#4c4c4c;stroke-width:2" d="M220,158 l0,221" /><path style="fill:none;stroke:#4c4c4c;stroke-width:2" d="M204,158 l0,236" /></svg>