<!DOCTYPE svg PUBLIC "-//W3C//DTD SVG 20000303 Stylable//EN" "http://www.w3.org/TR/2000/03/WD-SVG-20000303/DTD/svg-20000303-stylable.dtd"[]><svg width="999px" height="370px" viewBox="0 0 999 333" xmlns="http://www.w3.org/2000/svg"><path style="fill:#333" d="M999,281 l-994,0 0,5 994,0 0,-5z" /><path style="fill:#333" d="M812,281 l124,0 0,36 -124,0 0,-36z" /><circle style="fill:#000" cx="928" cy="299" r="33" /><path style="fill:#333" d="M48,281 l124,0 0,36 -124,0 0,-36z" /><circle style="fill:#000" cx="54" cy="299" r="34" /><path style="fill:#7f7f7f" d="M994,260 l-984,0 0,5 984,0 0,-5z" /><path style="fill:#000;stroke:#4c4c4c;stroke-width:2" d="M166,281 l656,0 0,14 -656,0 0,-14z" /><circle style="fill:#000" cx="819" cy="299" r="34" /><path style="fill:#7f7f7f;stroke:#4c4c4c;stroke-width:2" d="M796,296 l0,-10 16,-11 15,0 15,11 0,10 -46,0z" /><path style="fill:#4c4c4c;stroke:#4c4c4c;stroke-width:2" d="M842,301 l0,11 -16,10 -15,0 -15,-10 0,-11 46,0z" /><path style="fill:#7f7f7f;stroke:#4c4c4c;stroke-width:2" d="M910,314 l-7,-8 4,-19 10,-10 19,-4 7,8 -33,33z" /><path style="fill:#4c4c4c;stroke:#4c4c4c;stroke-width:2" d="M947,284 l7,7 -4,19 -11,11 -18,3 -7,-7 33,-33z" /><circle style="fill:#000" cx="164" cy="299" r="34" /><path style="fill:#7f7f7f;stroke:#4c4c4c;stroke-width:2" d="M31,296 l0,-10 16,-11 15,0 16,11 0,10 -47,0z" /><path style="fill:#4c4c4c;stroke:#4c4c4c;stroke-width:2" d="M78,301 l0,11 -16,10 -16,0 -15,-10 0,-11 47,0z" /><path style="fill:#7f7f7f;stroke:#4c4c4c;stroke-width:2" d="M146,314 l-8,-8 4,-19 11,-10 18,-4 8,8 -33,33z" /><path style="fill:#4c4c4c;stroke:#4c4c4c;stroke-width:2" d="M182,284 l7,7 -3,19 -11,11 -19,3 -7,-7 33,-33z" /><path style="fill:#b2b2b2" d="M0,25 l999,0 0,11 -104,120 0,109 89,0 0,-15 -37,-1 0,10 -6,1 0,-157 6,-5 0,146 37,0 0,-36 -37,0 0,-6 37,0 0,-36 -37,0 0,-5 37,0 0,-37 -37,0 0,-5 37,0 0,-36 -21,0 5,-6 16,0 0,-26 9,-10 0,224 6,0 0,16 -999,0 0,-16 5,0 0,-224 10,10 0,26 21,0 5,6 -26,0 0,36 36,0 0,5 -36,0 0,37 36,0 0,5 -36,0 0,36 36,0 0,6 -36,0 0,36 36,0 0,-146 6,5 0,156 -6,0 0,-9 -36,0 0,15 90,0 0,-109 -105,-120 0,-11z" /><path style="fill:#a8a8a8" d="M104,265 l0,-109 -99,-115 988,0 -98,115 0,109 -791,0z" /><path style="fill:#333;stroke:#4c4c4c;stroke-width:2" d="M666,281 l31,36 52,0 31,-36 -114,0z" /><path style="fill:#333;stroke:#4c4c4c;stroke-width:2" d="M513,280 l32,37 52,0 31,-37 -115,0z" /><path style="fill:#333;stroke:#4c4c4c;stroke-width:2" d="M360,280 l32,37 52,0 31,-37 -115,0z" /><path style="fill:#333;stroke:#4c4c4c;stroke-width:2" d="M208,281 l31,36 52,0 31,-36 -114,0z" /><path style="fill:#7f7f7f;stroke:#4c4c4c;stroke-width:2" d="M109,0 l67,0 0,10 -67,0 0,-10z" /><path style="fill:#7f7f7f;stroke:#4c4c4c;stroke-width:2" d="M822,0 l67,0 0,10 -67,0 0,-10z" /><path style="fill:#7f7f7f;stroke:#4c4c4c;stroke-width:2" d="M211,0 l68,0 0,9 -68,0 0,-9z" /><path style="fill:#7f7f7f;stroke:#4c4c4c;stroke-width:2" d="M313,0 l67,0 0,9 -67,0 0,-9z" /><path style="fill:#7f7f7f;stroke:#4c4c4c;stroke-width:2" d="M414,0 l68,0 0,9 -68,0 0,-9z" /><path style="fill:#7f7f7f;stroke:#4c4c4c;stroke-width:2" d="M516,0 l68,0 0,9 -68,0 0,-9z" /><path style="fill:#7f7f7f;stroke:#4c4c4c;stroke-width:2" d="M618,0 l68,0 0,9 -68,0 0,-9z" /><path style="fill:#7f7f7f;stroke:#4c4c4c;stroke-width:2" d="M720,0 l68,0 0,9 -68,0 0,-9z" /><path style="fill:#191933" d="M796,239 l36,0 0,21 -36,0 0,-21z" /><path style="fill:#191933" d="M124,145 l11,16 0,-16 36,0 0,21 -57,0 10,-21z" /><path style="fill:#191933" d="M114,171 l10,0 0,11 -10,-1 0,-10z" /><path style="fill:#191933" d="M130,171 l10,0 0,11 -10,-1 0,-10z" /><path style="fill:#191933" d="M145,171 l11,0 0,11 -11,-1 0,-10z" /><path style="fill:#191933" d="M161,171 l10,0 0,11 -10,-1 0,-10z" /><path style="fill:#a3a3a3" d="M104,265 l0,-63 791,0 0,63 -791,0z" /><path style="fill:#9e9e9e" d="M104,265 l0,-37 791,0 0,37 -791,0z" /><path style="fill:#999" d="M104,265 l0,-21 791,0 0,21 -791,0z" /><path style="fill:#949494" d="M104,265 l0,-10 791,0 0,10 -791,0z" /><path style="fill:#8c8c8c" d="M104,265 l0,-5 791,0 0,5 -791,0z" /><path style="fill:#8c8c8c" d="M801,260 l-6,0 0,-224 6,0 0,224z" /><path style="fill:#8c8c8c" d="M697,260 l-6,0 0,-224 6,0 0,224z" /><path style="fill:#8c8c8c" d="M582,260 l-5,0 0,-224 5,0 0,224z" /><path style="fill:#8c8c8c" d="M333,260 l-6,0 0,-224 6,0 0,224z" /><path style="fill:#8c8c8c" d="M452,260 l-5,0 0,-224 5,0 0,224z" /><path style="fill:#8c8c8c" d="M218,260 l-5,0 0,-224 5,0 0,224z" /><path style="fill:#666" d="M62,93 l0,-5 874,0 0,5 -874,0z" /><path style="fill:#999" d="M62,36 l0,-11 874,0 0,11 -874,0z" /><path style="fill:#4c4c4c;stroke:#4c4c4c;stroke-width:2" d="M0,25 l83,-15 832,0 84,15 -999,0z" /><path style="fill:none;stroke:#ccc;stroke-width:2" d="M10,36 l978,0" /><path style="fill:none;stroke:#4c4c4c;stroke-width:2" d="M0,25 l999,0 0,11 -104,120 0,109 89,0 0,-15 -37,-1 0,10 -6,1 0,-157 6,-5 0,146 37,0 0,-36 -37,0 0,-6 37,0 0,-36 -37,0 0,-5 37,0 0,-37 -37,0 0,-5 37,0 0,-36 -21,0 5,-6 16,0 0,-26 9,-10 0,224 6,0 0,16 -999,0 0,-16 5,0 0,-224 10,10 0,26 22,0 5,6 -27,0 0,36 36,0 0,5 -36,0 0,37 36,0 0,5 -36,0 0,36 36,0 0,6 -36,0 0,36 36,0 0,-146 6,5 0,156 -6,0 0,-9 -36,0 0,15 90,0 0,-109 -105,-120 0,-11" /></svg>