<!DOCTYPE svg PUBLIC "-//W3C//DTD SVG 20000303 Stylable//EN" "http://www.w3.org/TR/2000/03/WD-SVG-20000303/DTD/svg-20000303-stylable.dtd"[]><svg width="999px" height="346px" viewBox="0 0 999 307" xmlns="http://www.w3.org/2000/svg"><path style="fill:#333" d="M999,255 l-995,0 0,5 995,0 0,-5z" /><path style="fill:#333" d="M813,255 l124,0 0,37 -124,0 0,-37z" /><circle style="fill:#000" cx="929" cy="273" r="34" /><path style="fill:#333" d="M47,255 l124,0 0,37 -124,0 0,-37z" /><circle style="fill:#000" cx="54" cy="273" r="34" /><path style="fill:#000;stroke:#4c4c4c;stroke-width:2" d="M166,255 l656,0 0,15 -656,0 0,-15z" /><circle style="fill:#000" cx="819" cy="273" r="34" /><path style="fill:#7f7f7f;stroke:#4c4c4c;stroke-width:2" d="M796,271 l0,-11 16,-10 15,0 16,10 0,11 -47,0z" /><path style="fill:#4c4c4c;stroke:#4c4c4c;stroke-width:2" d="M843,276 l0,10 -16,11 -16,0 -15,-11 0,-10 47,0z" /><path style="fill:#7f7f7f;stroke:#4c4c4c;stroke-width:2" d="M911,288 l-8,-7 4,-19 11,-11 18,-3 8,7 -33,33z" /><path style="fill:#4c4c4c;stroke:#4c4c4c;stroke-width:2" d="M947,259 l7,7 -3,19 -11,11 -19,3 -7,-7 33,-33z" /><circle style="fill:#000" cx="163" cy="273" r="33" /><path style="fill:#7f7f7f;stroke:#4c4c4c;stroke-width:2" d="M31,271 l0,-11 16,-10 15,0 15,10 0,11 -46,0z" /><path style="fill:#4c4c4c;stroke:#4c4c4c;stroke-width:2" d="M77,276 l0,10 -16,11 -15,0 -15,-11 0,-10 46,0z" /><path style="fill:#7f7f7f;stroke:#4c4c4c;stroke-width:2" d="M145,288 l-7,-7 4,-19 10,-11 19,-3 7,7 -33,33z" /><path style="fill:#4c4c4c;stroke:#4c4c4c;stroke-width:2" d="M182,259 l7,7 -4,19 -11,11 -18,3 -7,-7 33,-33z" /><path style="fill:#191933;stroke:#4c4c4c;stroke-width:2" d="M666,255 l31,42 52,0 31,-42 -114,0z" /><path style="fill:#191933;stroke:#4c4c4c;stroke-width:2" d="M207,255 l32,42 52,0 31,-42 -115,0z" /><path style="fill:#191933;stroke:#4c4c4c;stroke-width:2" d="M437,255 l31,42 52,0 31,-42 -114,0z" /><path style="fill:#4c4c66" d="M0,0 l999,0 0,10 -104,120 0,109 89,0 0,-15 -37,-1 0,10 -6,1 0,-157 6,-5 0,146 37,0 0,-36 -37,0 0,-6 37,0 0,-36 -37,0 0,-5 37,0 0,-37 -37,0 0,-5 37,0 0,-36 -21,0 5,-6 16,0 0,-26 9,-10 0,224 6,0 0,16 -999,0 0,-16 5,0 0,-224 10,10 0,26 22,0 5,6 -27,0 0,36 36,0 0,5 -36,0 0,37 36,0 0,5 -36,0 0,36 36,0 0,6 -36,0 0,36 36,0 0,-146 6,5 0,156 -6,0 0,-9 -36,0 0,15 90,0 0,-109 -105,-120 0,-10z" /><path style="fill:#44445e" d="M103,245 l0,-89 792,-146 104,0 -104,120 0,115 -792,0z" /><path style="fill:#3d3d57" d="M103,245 l0,-68 891,-161 -99,114 0,115 -792,0z" /><path style="fill:#35354f" d="M103,245 l0,-47 864,-152 -72,84 0,115 -792,0z" /><path style="fill:#2d2d47" d="M223,245 l672,-115 0,115 -672,0z" /><path style="fill:none;stroke:#000019;stroke-width:2" d="M874,244 l0,-234" /><path style="fill:none;stroke:#000019;stroke-width:2" d="M806,244 l0,-234" /><path style="fill:none;stroke:#000019;stroke-width:2" d="M738,244 l0,-234" /><path style="fill:none;stroke:#000019;stroke-width:2" d="M670,244 l0,-234" /><path style="fill:none;stroke:#000019;stroke-width:2" d="M602,244 l0,-234" /><path style="fill:none;stroke:#000019;stroke-width:2" d="M535,244 l0,-234" /><path style="fill:none;stroke:#000019;stroke-width:2" d="M467,244 l0,-234" /><path style="fill:none;stroke:#000019;stroke-width:2" d="M399,244 l0,-234" /><path style="fill:none;stroke:#000019;stroke-width:2" d="M332,244 l0,-234" /><path style="fill:none;stroke:#000019;stroke-width:2" d="M264,244 l0,-234" /><path style="fill:none;stroke:#000019;stroke-width:2" d="M197,244 l0,-234" /><path style="fill:none;stroke:#000019;stroke-width:2" d="M129,244 l0,-234" /><path style="fill:none;stroke:#7f7f99;stroke-width:2" d="M868,244 l0,-234" /><path style="fill:none;stroke:#7f7f99;stroke-width:2" d="M800,244 l0,-234" /><path style="fill:none;stroke:#7f7f99;stroke-width:2" d="M732,244 l0,-234" /><path style="fill:none;stroke:#7f7f99;stroke-width:2" d="M665,244 l0,-234" /><path style="fill:none;stroke:#7f7f99;stroke-width:2" d="M596,244 l0,-234" /><path style="fill:none;stroke:#7f7f99;stroke-width:2" d="M529,244 l0,-234" /><path style="fill:none;stroke:#7f7f99;stroke-width:2" d="M461,244 l0,-234" /><path style="fill:none;stroke:#7f7f99;stroke-width:2" d="M393,244 l0,-234" /><path style="fill:none;stroke:#7f7f99;stroke-width:2" d="M326,244 l0,-234" /><path style="fill:none;stroke:#7f7f99;stroke-width:2" d="M258,244 l0,-234" /><path style="fill:none;stroke:#7f7f99;stroke-width:2" d="M191,244 l0,-234" /><path style="fill:none;stroke:#7f7f99;stroke-width:2" d="M123,244 l0,-234" /><path style="fill:none;stroke:#7f7f99;stroke-width:2" d="M9,10 l980,0" /><path style="fill:none;stroke:#4c4c4c;stroke-width:2" d="M0,0 l999,0 0,10 -104,120 0,109 89,0 0,-15 -37,-1 0,10 -6,1 0,-157 6,-5 0,146 37,0 0,-36 -37,0 0,-6 37,0 0,-36 -37,0 0,-5 37,0 0,-37 -37,0 0,-5 37,0 0,-36 -21,0 5,-6 16,0 0,-26 9,-10 0,224 6,0 0,16 -999,0 0,-16 5,0 0,-224 10,10 0,26 22,0 5,6 -27,0 0,36 36,0 0,5 -36,0 0,37 36,0 0,5 -36,0 0,36 36,0 0,6 -36,0 0,36 36,0 0,-146 6,5 0,156 -6,0 0,-9 -36,0 0,15 90,0 0,-109 -105,-120 0,-10" /><path style="fill:#ccb27f" d="M473,93 l52,0 0,31 -52,0 0,-31z" /><path style="fill:#ccb27f" d="M135,192 l21,0 0,20 -21,0 0,-20z" /><path style="fill:#ccb27f" d="M161,192 l21,0 0,20 -21,0 0,-20z" /><path style="fill:#ccb27f" d="M202,192 l21,0 0,20 -21,0 0,-20z" /><path style="fill:#ccb27f" d="M228,193 l21,0 0,20 -21,0 0,-20z" /><path style="fill:#ccb27f" d="M270,193 l21,0 0,20 -21,0 0,-20z" /><path style="fill:#ccb27f" d="M296,193 l21,0 0,20 -21,0 0,-20z" /><path style="fill:#ccb27f" d="M135,156 l21,0 0,20 -21,0 0,-20z" /><path style="fill:#ccb27f" d="M161,156 l21,0 0,20 -21,0 0,-20z" /><path style="fill:#ccb27f" d="M202,156 l21,0 0,20 -21,0 0,-20z" /><path style="fill:#ccb27f" d="M228,156 l21,0 0,21 -21,0 0,-21z" /><path style="fill:#ccb27f" d="M676,98 l52,0 0,11 -52,0 0,-11z" /><path style="fill:#ccb27f" d="M743,98 l53,0 0,11 -53,0 0,-11z" /><path style="fill:#ccb27f" d="M811,98 l52,0 0,11 -52,0 0,-11z" /><path style="fill:#44445e" d="M478,98 l42,0 0,21 -42,0 0,-21z" /><path style="fill:#7f7f99" d="M624,223 l36,0 0,16 -36,0 0,-16z" /></svg>