<!DOCTYPE svg PUBLIC "-//W3C//DTD SVG 20000303 Stylable//EN" "http://www.w3.org/TR/2000/03/WD-SVG-20000303/DTD/svg-20000303-stylable.dtd"[]><svg width="999px" height="385px" viewBox="0 0 999 348" xmlns="http://www.w3.org/2000/svg"><path style="fill:#4c4c4c;stroke:#7f7f7f;stroke-width:2" d="M25,52 l0,-11 26,-16 32,6 37,-10 46,-1 26,-10 47,10 77,-12 42,2 58,-5 31,5 73,-10 102,6 64,-1 50,5 64,-5 34,12 43,4 38,-1 25,10 32,11 0,11 -947,0z" /><path style="fill:#333" d="M234,52 l-5,-11 28,-8 55,-13 72,5 60,-13 88,-2 90,0 88,2 86,3 62,10 36,6 27,11 0,10 -687,0z" /><path style="fill:#333" d="M999,296 l-995,0 0,5 995,0 0,-5z" /><path style="fill:#333" d="M813,296 l124,0 0,37 -124,0 0,-37z" /><circle style="fill:#000" cx="929" cy="314" r="34" /><path style="fill:#333" d="M47,296 l124,0 0,37 -124,0 0,-37z" /><circle style="fill:#000" cx="54" cy="314" r="34" /><path style="fill:#000;stroke:#4c4c4c;stroke-width:2" d="M166,296 l656,0 0,15 -656,0 0,-15z" /><circle style="fill:#000" cx="819" cy="314" r="34" /><path style="fill:#7f7f7f;stroke:#4c4c4c;stroke-width:2" d="M796,312 l0,-11 16,-10 15,0 16,10 0,11 -47,0z" /><path style="fill:#4c4c4c;stroke:#4c4c4c;stroke-width:2" d="M843,316 l0,11 -16,11 -16,0 -15,-11 0,-11 47,0z" /><path style="fill:#7f7f7f;stroke:#4c4c4c;stroke-width:2" d="M911,329 l-8,-7 4,-19 11,-11 18,-3 8,7 -33,33z" /><path style="fill:#4c4c4c;stroke:#4c4c4c;stroke-width:2" d="M947,299 l7,8 -3,19 -11,11 -19,3 -7,-7 33,-34z" /><circle style="fill:#000" cx="163" cy="314" r="33" /><path style="fill:#7f7f7f;stroke:#4c4c4c;stroke-width:2" d="M31,312 l0,-11 16,-10 15,0 15,10 0,11 -46,0z" /><path style="fill:#4c4c4c;stroke:#4c4c4c;stroke-width:2" d="M77,316 l0,11 -16,11 -15,0 -15,-11 0,-11 46,0z" /><path style="fill:#7f7f7f;stroke:#4c4c4c;stroke-width:2" d="M145,329 l-7,-7 4,-19 10,-11 19,-3 7,7 -33,33z" /><path style="fill:#4c4c4c;stroke:#4c4c4c;stroke-width:2" d="M182,299 l7,8 -4,19 -11,11 -18,3 -7,-7 33,-34z" /><path style="fill:#191933;stroke:#4c4c4c;stroke-width:2" d="M666,296 l31,42 52,0 31,-42 -114,0z" /><path style="fill:#191933;stroke:#4c4c4c;stroke-width:2" d="M207,296 l32,42 52,0 31,-42 -115,0z" /><path style="fill:#191933;stroke:#4c4c4c;stroke-width:2" d="M437,296 l31,42 52,0 31,-42 -114,0z" /><path style="fill:#633" d="M0,41 l999,0 0,10 -104,120 0,109 89,0 0,-15 -37,-1 0,10 -5,1 0,-157 5,-4 0,145 37,0 0,-36 -37,0 0,-6 37,0 0,-36 -37,0 0,-5 37,0 0,-37 -37,0 0,-5 37,0 0,-36 -21,0 5,-6 16,0 0,-26 10,-10 0,224 5,0 0,16 -999,0 0,-16 4,0 0,-224 11,11 0,25 21,0 6,6 -27,0 0,36 36,0 0,5 -36,0 0,37 36,0 0,5 -36,0 0,36 36,0 0,6 -36,0 0,36 36,0 0,-146 5,5 0,156 -5,0 0,-9 -36,0 0,15 90,0 0,-109 -105,-120 0,-10z" /><path style="fill:#612e2e" d="M103,286 l0,-89 792,-146 104,0 -104,120 0,115 -792,0z" /><path style="fill:#5c2929" d="M103,286 l0,-68 891,-161 -99,114 0,115 -792,0z" /><path style="fill:#572424" d="M103,286 l0,-47 864,-152 -72,84 0,115 -792,0z" /><path style="fill:#521f1f" d="M223,286 l672,-115 0,115 -672,0z" /><path style="fill:none;stroke:#000019;stroke-width:2" d="M874,285 l0,-234" /><path style="fill:none;stroke:#000019;stroke-width:2" d="M806,285 l0,-234" /><path style="fill:none;stroke:#000019;stroke-width:2" d="M738,285 l0,-234" /><path style="fill:none;stroke:#000019;stroke-width:2" d="M671,285 l0,-234" /><path style="fill:none;stroke:#000019;stroke-width:2" d="M602,285 l0,-234" /><path style="fill:none;stroke:#000019;stroke-width:2" d="M535,285 l0,-234" /><path style="fill:none;stroke:#000019;stroke-width:2" d="M467,285 l0,-234" /><path style="fill:none;stroke:#000019;stroke-width:2" d="M399,285 l0,-234" /><path style="fill:none;stroke:#000019;stroke-width:2" d="M332,285 l0,-234" /><path style="fill:none;stroke:#000019;stroke-width:2" d="M264,285 l0,-234" /><path style="fill:none;stroke:#000019;stroke-width:2" d="M196,285 l0,-234" /><path style="fill:none;stroke:#000019;stroke-width:2" d="M129,285 l0,-234" /><path style="fill:none;stroke:#7f7f99;stroke-width:2" d="M868,285 l0,-234" /><path style="fill:none;stroke:#7f7f99;stroke-width:2" d="M800,285 l0,-234" /><path style="fill:none;stroke:#7f7f99;stroke-width:2" d="M732,285 l0,-234" /><path style="fill:none;stroke:#7f7f99;stroke-width:2" d="M665,285 l0,-234" /><path style="fill:none;stroke:#7f7f99;stroke-width:2" d="M596,285 l0,-234" /><path style="fill:none;stroke:#7f7f99;stroke-width:2" d="M529,285 l0,-234" /><path style="fill:none;stroke:#7f7f99;stroke-width:2" d="M461,285 l0,-234" /><path style="fill:none;stroke:#7f7f99;stroke-width:2" d="M393,285 l0,-234" /><path style="fill:none;stroke:#7f7f99;stroke-width:2" d="M326,285 l0,-234" /><path style="fill:none;stroke:#7f7f99;stroke-width:2" d="M258,285 l0,-234" /><path style="fill:none;stroke:#7f7f99;stroke-width:2" d="M191,285 l0,-234" /><path style="fill:none;stroke:#7f7f99;stroke-width:2" d="M123,285 l0,-234" /><path style="fill:none;stroke:#7f7f99;stroke-width:2" d="M9,51 l980,0" /><path style="fill:none;stroke:#4c4c4c;stroke-width:2" d="M0,41 l999,0 0,10 -104,120 0,109 89,0 0,-15 -37,-1 0,10 -5,1 0,-157 5,-4 0,145 37,0 0,-36 -37,0 0,-6 37,0 0,-36 -37,0 0,-5 37,0 0,-37 -37,0 0,-5 37,0 0,-36 -21,0 5,-6 16,0 0,-26 10,-10 0,224 5,0 0,16 -999,0 0,-16 4,0 0,-224 11,11 0,25 21,0 6,6 -27,0 0,36 36,0 0,5 -36,0 0,37 36,0 0,5 -36,0 0,36 36,0 0,6 -36,0 0,36 36,0 0,-146 5,5 0,156 -5,0 0,-9 -36,0 0,15 90,0 0,-109 -105,-120 0,-10" /><path style="fill:#cc4c4c" d="M264,217 l53,0 0,32 -53,0 0,-32z" /><path style="fill:#572424" d="M270,223 l41,0 0,21 -41,0 0,-21z" /><path style="fill:#996619" d="M624,265 l36,0 0,15 -36,0 0,-15z" /></svg>