<!DOCTYPE svg PUBLIC "-//W3C//DTD SVG 20000303 Stylable//EN" "http://www.w3.org/TR/2000/03/WD-SVG-20000303/DTD/svg-20000303-stylable.dtd"[]><svg width="998px" height="409px" viewBox="0 0 999 374" xmlns="http://www.w3.org/2000/svg"><path style="fill:#699" d="M401,21 l93,0 0,11 -93,0 0,-11z" /><path style="fill:#699" d="M260,21 l93,0 0,11 -93,0 0,-11z" /><path style="fill:#699" d="M119,21 l92,0 0,11 -92,0 0,-11z" /><path style="fill:#9cc" d="M276,21 l60,0 0,11 -60,0 0,-11z" /><path style="fill:#9cc" d="M135,21 l60,0 0,11 -60,0 0,-11z" /><path style="fill:#9cc" d="M418,21 l59,0 0,11 -59,0 0,-11z" /><path style="fill:#9ff" d="M434,21 l27,0 0,11 -27,0 0,-11z" /><path style="fill:#9ff" d="M293,21 l27,0 0,11 -27,0 0,-11z" /><path style="fill:#9ff" d="M152,21 l27,0 0,11 -27,0 0,-11z" /><path style="fill:#9cc" d="M689,32 l-592,0 0,223 587,0 0,-191 5,-32z" /><path style="fill:#94c7c7" d="M97,151 l587,-81 0,185 -587,0 0,-104z" /><path style="fill:#8fc2c2" d="M97,178 l587,-86 0,163 -587,0 0,-77z" /><path style="fill:#8abdbd" d="M97,206 l587,-82 0,131 -587,0 0,-49z" /><path style="fill:#fc0;stroke:#4c4c4c;stroke-width:2" d="M792,97 l120,0 0,158 -120,0 0,-158z" /><path style="fill:#039" d="M97,255 l0,-44 511,0 76,-130 0,-17 108,0 0,-43 22,0 5,43 -27,0 0,33 38,0 -27,109 109,0 0,49 -815,0z" /><path style="fill:#191919;stroke:#4c4c4c;stroke-width:2" d="M43,255 l885,0 0,97 -874,0 -11,-97z" /><path style="fill:#191919;stroke:#4c4c4c;stroke-width:2" d="M711,70 l54,0 0,65 -54,0 0,-65z" /><path style="fill:#fc0;stroke:#4c4c4c;stroke-width:2" d="M0,255 l928,0 0,21 -266,0 -11,-5 -347,0 -11,5 -293,0 0,-21z" /><path style="fill:#ffe57f;stroke:#4c4c4c;stroke-width:2" d="M912,97 l43,0 0,158 -43,0 0,-158z" /><path style="fill:#ccc;stroke:#4c4c4c;stroke-width:2" d="M694,21 l98,0 0,43 -109,0 6,-32 5,-11z" /><path style="fill:none;stroke:#4c4c4c;stroke-width:2" d="M684,64 l108,0 0,191 -108,0 0,-191" /><circle style="fill:#333;stroke:#4c4c4c;stroke-width:2" cx="864" cy="337" r="36" /><circle style="fill:#333;stroke:#4c4c4c;stroke-width:2" cx="787" cy="337" r="36" /><circle style="fill:#333;stroke:#4c4c4c;stroke-width:2" cx="711" cy="337" r="36" /><circle style="fill:#333;stroke:#4c4c4c;stroke-width:2" cx="277" cy="337" r="36" /><circle style="fill:#333;stroke:#4c4c4c;stroke-width:2" cx="201" cy="337" r="36" /><circle style="fill:#333;stroke:#4c4c4c;stroke-width:2" cx="124" cy="337" r="36" /><path style="fill:#4c4c4c;stroke:#4c4c4c;stroke-width:2" d="M961,255 l-33,0 0,108 71,0 -38,-108z" /><path style="fill:none;stroke:#4c4c4c;stroke-width:2" d="M65,173 l857,0" /><path style="fill:#4c4c4c;stroke:#4c4c4c;stroke-width:2" d="M209,355 l-15,0 -13,-6 -62,-2 -17,-16 -5,-22 11,-16 54,0 19,-6 13,-5 15,0 13,5 22,6 54,0 11,16 -5,22 -17,10 -65,8 -13,6z" /><path style="fill:#4c4c4c;stroke:#4c4c4c;stroke-width:2" d="M795,355 l-14,0 -14,-6 -62,-2 -16,-16 -5,-22 10,-16 55,0 18,-6 14,-5 14,0 13,5 22,6 55,0 10,16 -5,22 -16,10 -66,8 -13,6z" /><path style="fill:none;stroke:#4c4c4c;stroke-width:2" d="M792,206 l120,0 0,49 -120,0 0,-49" /><path style="fill:#7f7f7f;stroke:#4c4c4c;stroke-width:2" d="M749,76 l16,-6 0,65 -16,-5 0,-54z" /><path style="fill:#039;stroke:#4c4c4c;stroke-width:2" d="M792,5 l11,-5 5,0 0,16 -16,5 -32,0 -22,-5 0,-11 54,0z" /><path style="fill:#fff" d="M798,27 l10,0 0,32 -10,0 0,-32z" /><path style="fill:#fff" d="M732,37 l11,0 6,17 -22,0 5,-17z" /><path style="fill:#e5e54c;stroke:#f60;stroke-width:2" d="M733,37 l10,0 0,11 -10,0 0,-11z" /><path style="fill:#4c4c4c;stroke:#4c4c4c;stroke-width:2" d="M325,293 l337,0 0,70 -337,0 0,-70z" /><path style="fill:#7f7f7f;stroke:#4c4c4c;stroke-width:2" d="M314,298 l163,0 0,-22 -163,0 0,22z" /><path style="fill:#191919;stroke:#4c4c4c;stroke-width:2" d="M570,37 l103,0 0,49 -103,0 0,-49z" /><path style="fill:none;stroke:#7f7f7f;stroke-width:2" d="M575,43 l92,0" /><path style="fill:none;stroke:#7f7f7f;stroke-width:2" d="M575,76 l92,0" /><path style="fill:none;stroke:#7f7f7f;stroke-width:2" d="M575,81 l92,0" /><path style="fill:none;stroke:#7f7f7f;stroke-width:2" d="M575,59 l92,0" /><path style="fill:#9cc;stroke:#4c4c4c;stroke-width:2" d="M542,21 l131,0 0,11 -131,0 0,-11z" /><path style="fill:none;stroke:#4c4c4c;stroke-width:2" d="M401,21 l93,0 0,11 -93,0 0,-11" /><path style="fill:none;stroke:#4c4c4c;stroke-width:2" d="M260,21 l93,0 0,11 -93,0 0,-11" /><path style="fill:none;stroke:#4c4c4c;stroke-width:2" d="M119,21 l92,0 0,11 -92,0 0,-11" /><path style="fill:none;stroke:#4c4c4c;stroke-width:2" d="M689,32 l-592,0 0,223 587,0 0,-190 5,-33" /><path style="fill:#fc0;stroke:#4c4c4c;stroke-width:2" d="M10,233 l11,0 0,130 -11,0 0,-130z" /><path style="fill:#fc0;stroke:#4c4c4c;stroke-width:2" d="M65,178 l11,0 0,185 -11,0 0,-185z" /><path style="fill:#fc0;stroke:#4c4c4c;stroke-width:2" d="M21,251 l44,0 0,7 -44,0 0,-7z" /><path style="fill:#fc0;stroke:#4c4c4c;stroke-width:2" d="M21,307 l44,0 0,7 -44,0 0,-7z" /><path style="fill:#fc0;stroke:#4c4c4c;stroke-width:2" d="M21,279 l44,0 0,7 -44,0 0,-7z" /><path style="fill:#fc0;stroke:#4c4c4c;stroke-width:2" d="M21,336 l44,0 0,6 -44,0 0,-6z" /><path style="fill:#fc0;stroke:#4c4c4c;stroke-width:2" d="M971,233 l-10,0 0,130 10,0 0,-130z" /><path style="fill:#fc0;stroke:#4c4c4c;stroke-width:2" d="M917,178 l-11,0 0,185 11,0 0,-185z" /><path style="fill:#fc0;stroke:#4c4c4c;stroke-width:2" d="M961,251 l-44,0 0,7 44,0 0,-7z" /><path style="fill:#fc0;stroke:#4c4c4c;stroke-width:2" d="M961,307 l-44,0 0,7 44,0 0,-7z" /><path style="fill:#fc0;stroke:#4c4c4c;stroke-width:2" d="M961,279 l-44,0 0,7 44,0 0,-7z" /><path style="fill:#fc0;stroke:#4c4c4c;stroke-width:2" d="M961,336 l-44,0 0,6 44,0 0,-6z" /><path style="fill:#fc0;stroke:#4c4c4c;stroke-width:2" d="M59,178 l0,-10 863,0 0,10 -863,0z" /><path style="fill:#e5b200;stroke:#4c4c4c;stroke-width:2" d="M121,254 l0,-76 11,0 0,76 -11,0z" /><path style="fill:#e5b200;stroke:#4c4c4c;stroke-width:2" d="M177,254 l0,-76 11,0 0,76 -11,0z" /><path style="fill:#e5b200;stroke:#4c4c4c;stroke-width:2" d="M233,254 l0,-76 11,0 0,76 -11,0z" /><path style="fill:#e5b200;stroke:#4c4c4c;stroke-width:2" d="M290,254 l0,-76 10,0 0,76 -10,0z" /><path style="fill:#e5b200;stroke:#4c4c4c;stroke-width:2" d="M346,254 l0,-76 10,0 0,76 -10,0z" /><path style="fill:#e5b200;stroke:#4c4c4c;stroke-width:2" d="M402,254 l0,-76 11,0 0,76 -11,0z" /><path style="fill:#e5b200;stroke:#4c4c4c;stroke-width:2" d="M458,254 l0,-76 11,0 0,76 -11,0z" /><path style="fill:#e5b200;stroke:#4c4c4c;stroke-width:2" d="M514,254 l0,-76 11,0 0,76 -11,0z" /><path style="fill:#e5b200;stroke:#4c4c4c;stroke-width:2" d="M570,254 l0,-76 11,0 0,76 -11,0z" /><path style="fill:#e5b200;stroke:#4c4c4c;stroke-width:2" d="M626,254 l0,-76 11,0 0,76 -11,0z" /><path style="fill:#e5b200;stroke:#4c4c4c;stroke-width:2" d="M682,254 l0,-76 11,0 0,76 -11,0z" /><path style="fill:#e5b200;stroke:#4c4c4c;stroke-width:2" d="M739,254 l0,-76 10,0 0,76 -10,0z" /><path style="fill:#e5b200;stroke:#4c4c4c;stroke-width:2" d="M795,254 l0,-76 10,0 0,76 -10,0z" /><path style="fill:#e5b200;stroke:#4c4c4c;stroke-width:2" d="M850,254 l0,-76 11,0 0,76 -11,0z" /><path style="fill:#666;stroke:#4c4c4c;stroke-width:2" d="M233,64 l120,0 0,38 -120,0 0,-38z" /><path style="fill:#666;stroke:#4c4c4c;stroke-width:2" d="M108,64 l119,0 0,38 -119,0 0,-38z" /><path style="fill:none;stroke:#4c4c4c;stroke-width:2" d="M224,70 l-112,0" /><path style="fill:none;stroke:#4c4c4c;stroke-width:2" d="M224,70 l-112,0" /><path style="fill:none;stroke:#4c4c4c;stroke-width:2" d="M349,70 l-112,0" /><path style="fill:none;stroke:#4c4c4c;stroke-width:2" d="M349,70 l-112,0" /><path style="fill:none;stroke:#ccc;stroke-width:2" d="M224,98 l-112,0" /><path style="fill:none;stroke:#ccc;stroke-width:2" d="M349,98 l-112,0" /><path style="fill:none;stroke:#999;stroke-width:2" d="M224,75 l-112,0" /><path style="fill:none;stroke:#999;stroke-width:2" d="M349,75 l-112,0" /><path style="fill:#666" d="M331,299 l326,0 0,59 -326,0 0,-59z" /><path style="fill:#999" d="M320,293 l152,0 0,-11 -152,0 0,11z" /></svg>