<!DOCTYPE svg PUBLIC "-//W3C//DTD SVG 20000303 Stylable//EN" "http://www.w3.org/TR/2000/03/WD-SVG-20000303/DTD/svg-20000303-stylable.dtd"[]><svg width="999px" height="345px" viewBox="0 0 999 306" xmlns="http://www.w3.org/2000/svg"><path style="fill:#fc0;stroke:#4c4c4c;stroke-width:2" d="M4,0 l989,0 0,239 -30,0 0,-224 -928,0 0,223 -31,1 0,-239z" /><path style="fill:#000" d="M962,15 l0,224 -926,0 0,-224 926,0z" /><path style="fill:#999;stroke:#4c4c4c;stroke-width:2" d="M395,15 l83,0 0,54 -83,0 0,-54z" /><path style="fill:#999;stroke:#4c4c4c;stroke-width:2" d="M395,69 l83,0 0,55 -83,0 0,-55z" /><path style="fill:none;stroke:#4c4c4c;stroke-width:2" d="M384,124 l84,0 0,57 -84,0 0,-57" /><path style="fill:none;stroke:#4c4c4c;stroke-width:2" d="M384,181 l84,0 0,57 -84,0 0,-57" /><path style="fill:#333" d="M999,254 l-994,0 0,5 994,0 0,-5z" /><path style="fill:#033" d="M813,254 l124,0 0,31 -124,0 0,-31z" /><path style="fill:#033" d="M47,254 l124,0 0,31 -124,0 0,-31z" /><circle style="fill:#000" cx="928" cy="272" r="33" /><circle style="fill:#000" cx="54" cy="272" r="34" /><path style="fill:#b27f00;stroke:#4c4c4c;stroke-width:2" d="M166,254 l656,0 0,15 -656,0 0,-15z" /><circle style="fill:#000" cx="819" cy="272" r="34" /><path style="fill:#7f7f7f;stroke:#4c4c4c;stroke-width:2" d="M796,270 l0,-11 16,-10 15,0 15,10 0,11 -46,0z" /><path style="fill:#4c4c4c;stroke:#4c4c4c;stroke-width:2" d="M842,275 l0,10 -16,11 -15,0 -15,-11 0,-10 46,0z" /><path style="fill:#7f7f7f;stroke:#4c4c4c;stroke-width:2" d="M910,287 l-7,-7 4,-19 10,-11 19,-3 7,7 -33,33z" /><path style="fill:#4c4c4c;stroke:#4c4c4c;stroke-width:2" d="M947,258 l7,7 -4,19 -11,11 -18,3 -7,-7 33,-33z" /><circle style="fill:#000" cx="164" cy="272" r="34" /><path style="fill:#7f7f7f;stroke:#4c4c4c;stroke-width:2" d="M31,270 l0,-11 16,-10 15,0 16,10 0,11 -47,0z" /><path style="fill:#4c4c4c;stroke:#4c4c4c;stroke-width:2" d="M78,275 l0,10 -16,11 -16,0 -15,-11 0,-10 47,0z" /><path style="fill:#7f7f7f;stroke:#4c4c4c;stroke-width:2" d="M146,287 l-8,-7 4,-19 11,-11 18,-3 8,7 -33,33z" /><path style="fill:#4c4c4c;stroke:#4c4c4c;stroke-width:2" d="M182,258 l7,7 -3,19 -11,11 -19,3 -7,-7 33,-33z" /><path style="fill:#fc0;stroke:#4c4c4c;stroke-width:2" d="M999,239 l0,16 -999,0 0,-17 999,1z" /><path style="fill:#c90" d="M41,239 l906,0 0,10 -906,0 0,-10z" /><path style="fill:#666;stroke:#4c4c4c;stroke-width:2" d="M374,244 l0,-229 16,0 0,109 -6,0 0,115 -10,5z" /><path style="fill:#e5e5e5" d="M384,124 l73,0 0,115 -73,0 0,-115z" /><path style="fill:#e5e5e5" d="M41,15 l333,0 0,229 -333,0 0,-229z" /><path style="fill:#e5e5e5" d="M457,15 l500,0 0,229 -500,0 0,-229z" /><path style="fill:#ccc;stroke:#4c4c4c;stroke-width:2" d="M384,124 l11,-5 62,0 0,5 -73,0z" /><path style="fill:#ccc" d="M874,233 l83,-31 0,42 -83,0 0,-11z" /><path style="fill:#ccc" d="M874,176 l83,-31 0,41 -83,0 0,-10z" /><path style="fill:#ccc" d="M874,119 l83,-32 0,42 -83,0 0,-10z" /><path style="fill:#ccc" d="M874,61 l83,-31 0,42 -83,0 0,-11z" /><path style="fill:#ccc" d="M790,233 l84,-31 0,42 -84,0 0,-11z" /><path style="fill:#ccc" d="M790,176 l84,-31 0,41 -84,0 0,-10z" /><path style="fill:#ccc" d="M790,119 l84,-32 0,42 -84,0 0,-10z" /><path style="fill:#ccc" d="M790,61 l84,-31 0,42 -84,0 0,-11z" /><path style="fill:#ccc" d="M707,233 l83,-31 0,42 -83,0 0,-11z" /><path style="fill:#ccc" d="M707,176 l83,-31 0,41 -83,0 0,-10z" /><path style="fill:#ccc" d="M707,119 l83,-32 0,42 -83,0 0,-10z" /><path style="fill:#ccc" d="M707,61 l83,-31 0,42 -83,0 0,-11z" /><path style="fill:#ccc" d="M624,233 l83,-31 0,42 -83,0 0,-11z" /><path style="fill:#ccc" d="M624,176 l83,-31 0,41 -83,0 0,-10z" /><path style="fill:#ccc" d="M624,119 l83,-32 0,42 -83,0 0,-10z" /><path style="fill:#ccc" d="M624,61 l83,-31 0,42 -83,0 0,-11z" /><path style="fill:#ccc" d="M541,233 l83,-31 0,42 -83,0 0,-11z" /><path style="fill:#ccc" d="M541,176 l83,-31 0,41 -83,0 0,-10z" /><path style="fill:#ccc" d="M541,119 l83,-32 0,42 -83,0 0,-10z" /><path style="fill:#ccc" d="M541,61 l83,-31 0,42 -83,0 0,-11z" /><path style="fill:#ccc" d="M457,233 l84,-31 0,42 -84,0 0,-11z" /><path style="fill:#ccc" d="M457,176 l84,-31 0,41 -84,0 0,-10z" /><path style="fill:#ccc" d="M457,119 l84,-32 0,42 -84,0 0,-10z" /><path style="fill:#ccc" d="M457,61 l84,-31 0,42 -84,0 0,-11z" /><path style="fill:#ccc" d="M291,233 l83,-31 0,42 -83,0 0,-11z" /><path style="fill:#ccc" d="M291,176 l83,-31 0,41 -83,0 0,-10z" /><path style="fill:#ccc" d="M291,119 l83,-32 0,42 -83,0 0,-10z" /><path style="fill:#ccc" d="M291,61 l83,-31 0,42 -83,0 0,-11z" /><path style="fill:#ccc" d="M208,233 l83,-31 0,42 -83,0 0,-11z" /><path style="fill:#ccc" d="M208,176 l83,-31 0,41 -83,0 0,-10z" /><path style="fill:#ccc" d="M208,119 l83,-32 0,42 -83,0 0,-10z" /><path style="fill:#ccc" d="M208,61 l83,-31 0,42 -83,0 0,-11z" /><path style="fill:#ccc" d="M124,233 l84,-31 0,42 -84,0 0,-11z" /><path style="fill:#ccc" d="M124,176 l84,-31 0,41 -84,0 0,-10z" /><path style="fill:#ccc" d="M124,119 l84,-32 0,42 -84,0 0,-10z" /><path style="fill:#ccc" d="M124,61 l84,-31 0,42 -84,0 0,-11z" /><path style="fill:#ccc" d="M41,233 l83,-31 0,42 -83,0 0,-11z" /><path style="fill:#ccc" d="M41,176 l83,-31 0,41 -83,0 0,-10z" /><path style="fill:#ccc" d="M41,119 l83,-32 0,42 -83,0 0,-10z" /><path style="fill:#ccc" d="M41,61 l83,-31 0,42 -83,0 0,-11z" /><path style="fill:#ccc" d="M384,228 l73,-31 0,41 -73,0 0,-10z" /><path style="fill:#ccc" d="M384,171 l73,-32 0,42 -73,0 0,-10z" /><path style="fill:#333" d="M333,25 l31,0 0,5 -31,0 0,-5z" /><path style="fill:#333" d="M333,82 l31,0 0,6 -31,0 0,-6z" /><path style="fill:#333" d="M333,140 l31,0 0,5 -31,0 0,-5z" /><path style="fill:#333" d="M333,197 l31,0 0,5 -31,0 0,-5z" /><path style="fill:#333" d="M249,25 l32,0 0,5 -32,0 0,-5z" /><path style="fill:#333" d="M249,82 l32,0 0,6 -32,0 0,-6z" /><path style="fill:#333" d="M249,140 l32,0 0,5 -32,0 0,-5z" /><path style="fill:#333" d="M249,197 l32,0 0,5 -32,0 0,-5z" /><path style="fill:#333" d="M166,25 l31,0 0,5 -31,0 0,-5z" /><path style="fill:#333" d="M166,82 l31,0 0,6 -31,0 0,-6z" /><path style="fill:#333" d="M166,140 l31,0 0,5 -31,0 0,-5z" /><path style="fill:#333" d="M166,197 l31,0 0,5 -31,0 0,-5z" /><path style="fill:#333" d="M83,25 l31,0 0,5 -31,0 0,-5z" /><path style="fill:#333" d="M83,82 l31,0 0,6 -31,0 0,-6z" /><path style="fill:#333" d="M83,140 l31,0 0,5 -31,0 0,-5z" /><path style="fill:#333" d="M83,197 l31,0 0,5 -31,0 0,-5z" /><path style="fill:#333" d="M499,25 l31,0 0,5 -31,0 0,-5z" /><path style="fill:#333" d="M499,82 l31,0 0,6 -31,0 0,-6z" /><path style="fill:#333" d="M499,140 l31,0 0,5 -31,0 0,-5z" /><path style="fill:#333" d="M499,197 l31,0 0,5 -31,0 0,-5z" /><path style="fill:#333" d="M582,25 l32,0 0,5 -32,0 0,-5z" /><path style="fill:#333" d="M582,82 l32,0 0,6 -32,0 0,-6z" /><path style="fill:#333" d="M582,140 l32,0 0,5 -32,0 0,-5z" /><path style="fill:#333" d="M582,197 l32,0 0,5 -32,0 0,-5z" /><path style="fill:#333" d="M666,25 l31,0 0,5 -31,0 0,-5z" /><path style="fill:#333" d="M666,82 l31,0 0,6 -31,0 0,-6z" /><path style="fill:#333" d="M666,140 l31,0 0,5 -31,0 0,-5z" /><path style="fill:#333" d="M666,197 l31,0 0,5 -31,0 0,-5z" /><path style="fill:#333" d="M915,25 l32,0 0,5 -32,0 0,-5z" /><path style="fill:#333" d="M915,82 l32,0 0,6 -32,0 0,-6z" /><path style="fill:#333" d="M915,140 l32,0 0,5 -32,0 0,-5z" /><path style="fill:#333" d="M915,197 l32,0 0,5 -32,0 0,-5z" /><path style="fill:#333" d="M832,25 l31,0 0,5 -31,0 0,-5z" /><path style="fill:#333" d="M832,82 l31,0 0,6 -31,0 0,-6z" /><path style="fill:#333" d="M832,140 l31,0 0,5 -31,0 0,-5z" /><path style="fill:#333" d="M832,197 l31,0 0,5 -31,0 0,-5z" /><path style="fill:#333" d="M749,25 l31,0 0,5 -31,0 0,-5z" /><path style="fill:#333" d="M749,82 l31,0 0,6 -31,0 0,-6z" /><path style="fill:#333" d="M749,140 l31,0 0,5 -31,0 0,-5z" /><path style="fill:#333" d="M749,197 l31,0 0,5 -31,0 0,-5z" /><path style="fill:#333" d="M426,134 l31,0 0,6 -31,0 0,-6z" /><path style="fill:#333" d="M426,192 l31,0 0,5 -31,0 0,-5z" /><path style="fill:#b29898" d="M353,72 l-62,-37 0,-10 78,47 -16,0z" /><path style="fill:#b29898" d="M270,72 l-62,-37 0,-10 78,47 -16,0z" /><path style="fill:#b29898" d="M187,72 l-63,-37 0,-10 78,47 -15,0z" /><path style="fill:#b29898" d="M104,72 l-63,-37 0,-10 78,47 -15,0z" /><path style="fill:#b29898" d="M104,129 l-63,-36 0,-11 78,47 -15,0z" /><path style="fill:#b29898" d="M187,129 l-63,-36 0,-11 78,47 -15,0z" /><path style="fill:#b29898" d="M270,129 l-62,-36 0,-11 78,47 -16,0z" /><path style="fill:#b29898" d="M353,129 l-62,-36 0,-11 78,47 -16,0z" /><path style="fill:#b29898" d="M353,187 l-62,-37 0,-10 78,47 -16,0z" /><path style="fill:#b29898" d="M270,187 l-62,-37 0,-10 78,47 -16,0z" /><path style="fill:#b29898" d="M187,187 l-63,-37 0,-10 78,47 -15,0z" /><path style="fill:#b29898" d="M104,187 l-63,-37 0,-10 78,47 -15,0z" /><path style="fill:#b29898" d="M104,244 l-63,-37 0,-10 78,47 -15,0z" /><path style="fill:#b29898" d="M187,244 l-63,-37 0,-10 78,47 -15,0z" /><path style="fill:#b29898" d="M270,244 l-62,-37 0,-10 78,47 -16,0z" /><path style="fill:#b29898" d="M353,244 l-62,-37 0,-10 78,47 -16,0z" /><path style="fill:#b29898" d="M936,72 l-62,-37 0,-10 78,47 -16,0z" /><path style="fill:#b29898" d="M853,72 l-63,-37 0,-10 78,47 -15,0z" /><path style="fill:#b29898" d="M853,129 l-63,-36 0,-11 78,47 -15,0z" /><path style="fill:#b29898" d="M936,129 l-62,-36 0,-11 78,47 -16,0z" /><path style="fill:#b29898" d="M936,187 l-62,-37 0,-10 78,47 -16,0z" /><path style="fill:#b29898" d="M853,187 l-63,-37 0,-10 78,47 -15,0z" /><path style="fill:#b29898" d="M853,244 l-63,-37 0,-10 78,47 -15,0z" /><path style="fill:#b29898" d="M936,244 l-62,-37 0,-10 78,47 -16,0z" /><path style="fill:#b29898" d="M291,140 l78,47 -16,0 -62,-37 0,-10z" /><path style="fill:#b29898" d="M385,134 l72,42 0,5 -10,0 -62,-36 0,-11z" /><path style="fill:#b29898" d="M385,192 l72,41 0,6 -10,0 -62,-37 0,-10z" /><path style="fill:#b29898" d="M770,72 l-63,-37 0,-10 78,47 -15,0z" /><path style="fill:#b29898" d="M686,72 l-62,-37 0,-10 78,47 -16,0z" /><path style="fill:#b29898" d="M603,72 l-62,-37 0,-10 78,47 -16,0z" /><path style="fill:#b29898" d="M520,72 l-63,-37 0,-10 78,47 -15,0z" /><path style="fill:#b29898" d="M520,129 l-63,-36 0,-11 78,47 -15,0z" /><path style="fill:#b29898" d="M603,129 l-62,-36 0,-11 78,47 -16,0z" /><path style="fill:#b29898" d="M686,129 l-62,-36 0,-11 78,47 -16,0z" /><path style="fill:#b29898" d="M770,129 l-63,-36 0,-11 78,47 -15,0z" /><path style="fill:#b29898" d="M770,187 l-63,-37 0,-10 78,47 -15,0z" /><path style="fill:#b29898" d="M686,187 l-62,-37 0,-10 78,47 -16,0z" /><path style="fill:#b29898" d="M603,187 l-62,-37 0,-10 78,47 -16,0z" /><path style="fill:#b29898" d="M520,187 l-63,-37 0,-10 78,47 -15,0z" /><path style="fill:#b29898" d="M520,244 l-63,-37 0,-10 78,47 -15,0z" /><path style="fill:#b29898" d="M603,244 l-62,-37 0,-10 78,47 -16,0z" /><path style="fill:#b29898" d="M686,244 l-62,-37 0,-10 78,47 -16,0z" /><path style="fill:#b29898" d="M770,244 l-63,-37 0,-10 78,47 -15,0z" /></svg>