<!DOCTYPE svg PUBLIC "-//W3C//DTD SVG 20000303 Stylable//EN" "http://www.w3.org/TR/2000/03/WD-SVG-20000303/DTD/svg-20000303-stylable.dtd"[]><svg width="552px" height="999px" viewBox="0 0 525 999" xmlns="http://www.w3.org/2000/svg"><path style="fill:#7f4c00;stroke:#4c4c4c;stroke-width:2" d="M121,906 l17,0 0,87 -17,0 0,-87z" /><path style="fill:#630;stroke:#4c4c4c;stroke-width:2" d="M52,912 l179,0 0,-6 -179,0 0,6z" /><path style="fill:#d9b31a;stroke:#4c4c4c;stroke-width:2" d="M138,606 l-81,-191 0,24 69,167 12,0z" /><path style="fill:#d9b31a;stroke:#4c4c4c;stroke-width:2" d="M58,606 l0,-191 -6,0 0,191 6,0z" /><path style="fill:none;stroke:#4c4c4c;stroke-width:2" d="M98,606 l-69,-179" /><path style="fill:#d9b31a;stroke:#4c4c4c;stroke-width:2" d="M58,415 l-29,0 0,12 29,0 0,-12z" /><path style="fill:#d9b31a;stroke:#4c4c4c;stroke-width:2" d="M80,473 l-28,0 0,12 28,0 0,-12z" /><path style="fill:#d9b31a;stroke:#4c4c4c;stroke-width:2" d="M104,531 l-29,0 0,11 29,0 0,-11z" /><path style="fill:#d9b31a;stroke:#4c4c4c;stroke-width:2" d="M127,588 l-29,0 0,12 29,0 0,-12z" /><path style="fill:#ffd940;stroke:#4c4c4c;stroke-width:2" d="M29,606 l0,-191 -6,0 0,191 6,0z" /><path style="fill:#ffd940;stroke:#4c4c4c;stroke-width:2" d="M109,606 l-81,-191 0,24 69,167 12,0z" /><path style="fill:none;stroke:#4c4c4c;stroke-width:2" d="M29,415 l104,-58" /><path style="fill:none;stroke:#4c4c4c;stroke-width:2" d="M58,415 l80,-52" /><path style="fill:#e5b200;stroke:#4c4c4c;stroke-width:2" d="M231,906 l17,0 0,93 -17,0 0,-93z" /><path style="fill:#e5b200;stroke:#4c4c4c;stroke-width:2" d="M144,906 l17,0 0,93 -17,0 0,-93z" /><path style="fill:#e5b200;stroke:#4c4c4c;stroke-width:2" d="M35,906 l17,0 0,93 -17,0 0,-93z" /><path style="fill:#e5b200;stroke:#4c4c4c;stroke-width:2" d="M69,906 l11,0 -28,29 0,-12 17,-17z" /><path style="fill:#e5b200;stroke:#4c4c4c;stroke-width:2" d="M213,906 l-11,0 28,29 0,-12 -17,-17z" /><path style="fill:#d9a600" d="M29,889 l126,0 0,17 -126,0 0,-17z" /><path style="fill:#b27f32;stroke:#4c4c4c;stroke-width:2" d="M75,871 l133,0 0,18 -133,0 0,-18z" /><path style="fill:#e5b200" d="M115,675 l52,0 0,196 -52,0 0,-196z" /><path style="fill:#ebbd00" d="M119,675 l45,0 0,196 -45,0 0,-196z" /><path style="fill:#edc219" d="M123,675 l37,0 0,196 -37,0 0,-196z" /><path style="fill:#f2cc33" d="M127,675 l29,0 0,196 -29,0 0,-196z" /><path style="fill:#f7d64c" d="M131,675 l21,0 0,196 -21,0 0,-196z" /><path style="fill:#fadb66" d="M135,675 l13,0 0,196 -13,0 0,-196z" /><path style="fill:#ffe57f" d="M138,675 l6,0 0,196 -6,0 0,-196z" /><path style="fill:none;stroke:#4c4c4c;stroke-width:2" d="M115,675 l52,0 0,196 -52,0 0,-196" /><path style="fill:none;stroke:#4c4c4c;stroke-width:2" d="M115,744 l0,24" /><path style="fill:#d9a600;stroke:#4c4c4c;stroke-width:2" d="M75,871 l80,0 0,18 -80,0 0,-18z" /><path style="fill:#630;stroke:#4c4c4c;stroke-width:2" d="M75,709 l133,0 0,-5 -133,0 0,5z" /><path style="fill:none;stroke:#fc0;stroke-width:2" d="M80,704 l0,-12 122,0" /><path style="fill:none;stroke:#fc0;stroke-width:2" d="M80,698 l122,0" /><path style="fill:none;stroke:#fc0;stroke-width:2" d="M97,704 l0,-12" /><path style="fill:none;stroke:#fc0;stroke-width:2" d="M115,704 l0,-12" /><path style="fill:none;stroke:#fc0;stroke-width:2" d="M132,704 l0,-12" /><path style="fill:none;stroke:#fc0;stroke-width:2" d="M150,704 l0,-12" /><path style="fill:none;stroke:#fc0;stroke-width:2" d="M167,704 l0,-12" /><path style="fill:none;stroke:#fc0;stroke-width:2" d="M184,704 l0,-12" /><path style="fill:none;stroke:#fc0;stroke-width:2" d="M202,704 l0,-12" /><path style="fill:#fc0;stroke:#4c4c4c;stroke-width:2" d="M484,28 l-351,324 11,11 352,-323 0,-6 -352,323 -6,-5 352,-324 -6,0z" /><path style="fill:#fc0;stroke:#4c4c4c;stroke-width:2" d="M138,369 l-11,-11 11,-12 12,12 -12,11z" /><path style="fill:#960;stroke:#4c4c4c;stroke-width:2" d="M179,640 l-12,-17 283,-514 17,0 -271,525 -17,6z" /><path style="fill:#630;stroke:#4c4c4c;stroke-width:2" d="M17,675 l173,0 0,-17 -173,0 0,17z" /><path style="fill:#e5b200" d="M138,606 l58,0 0,52 -58,0 0,-52z" /><path style="fill:#fc0" d="M0,606 l138,0 0,52 -138,0 0,-52z" /><path style="fill:#630" d="M0,617 l138,0 0,-5 -138,0 0,5z" /><path style="fill:#630" d="M144,629 l46,0 0,-17 -46,0 0,17z" /><path style="fill:#b27f00" d="M155,617 l12,35 29,0 0,-6 -23,0 -18,-29z" /><path style="fill:none;stroke:#4c4c4c;stroke-width:2" d="M0,606 l196,0 0,52 -196,0 0,-52" /><path style="fill:#fc0;stroke:#4c4c4c;stroke-width:2" d="M491,17 l-336,600 18,29 318,-600 0,-12 -318,595 -6,-12 324,-589 0,-11z" /><path style="fill:#c90;stroke:#4c4c4c;stroke-width:2" d="M491,46 l-318,600 35,0 300,-600 -5,0 -301,588 -12,0 307,-588 -6,0z" /><path style="fill:#b29832;stroke:#4c4c4c;stroke-width:2" d="M508,46 l12,-18 5,-17 -5,-11 -18,0 -11,46 17,0z" /><path style="fill:#ffe57f;stroke:#4c4c4c;stroke-width:2" d="M491,46 l11,-18 6,-17 -6,-11 -11,17 0,29z" /><path style="fill:none;stroke:#4c4c4c;stroke-width:2" d="M502,357 l0,-323" /><path style="fill:none;stroke:#4c4c4c;stroke-width:2" d="M508,357 l0,-323" /><path style="fill:#fc0;stroke:#4c4c4c;stroke-width:2" d="M502,357 l6,0 0,24 -6,0 0,-24z" /><path style="fill:#fc0;stroke:#4c4c4c;stroke-width:2" d="M505,363 l-9,-8 9,-9 9,9 -9,8z" /><path style="fill:#ffd940;stroke:#4c4c4c;stroke-width:2" d="M46,889 l69,-145 0,24 -57,121 -12,0z" /><path style="fill:#ffd940;stroke:#4c4c4c;stroke-width:2" d="M236,889 l-69,-145 0,24 58,121 11,0z" /><path style="fill:#ffd940;stroke:#4c4c4c;stroke-width:2" d="M161,889 l-11,-145 -12,0 12,145 11,0z" /><path style="fill:#cc994c" d="M155,889 l99,0 0,17 -99,0 0,-17z" /><path style="fill:none;stroke:#4c4c4c;stroke-width:2" d="M29,889 l225,0 0,17 -225,0 0,-17" /></svg>