<!DOCTYPE svg PUBLIC "-//W3C//DTD SVG 20000303 Stylable//EN" "http://www.w3.org/TR/2000/03/WD-SVG-20000303/DTD/svg-20000303-stylable.dtd"[]><svg width="405px" height="999px" viewBox="0 0 370 999" xmlns="http://www.w3.org/2000/svg"><path style="fill:#666;stroke:#4c4c4c;stroke-width:2" d="M206,771 l15,-312 6,0 -16,312 -5,0z" /><path style="fill:#7f7f7f;stroke:#4c4c4c;stroke-width:2" d="M216,676 l116,0 0,6 -116,0 0,-6z" /><path style="fill:#666;stroke:#4c4c4c;stroke-width:2" d="M216,676 l-58,-21 0,5 58,21 0,-5z" /><path style="fill:#7f7f7f;stroke:#4c4c4c;stroke-width:2" d="M216,571 l100,-1 0,6 -100,0 0,-5z" /><path style="fill:#666;stroke:#4c4c4c;stroke-width:2" d="M216,570 l-37,-21 0,6 37,21 0,-6z" /><path style="fill:#194066;stroke:#4c4c4c;stroke-width:2" d="M248,771 l0,-312 16,0 0,312 -16,0z" /><path style="fill:#333;stroke:#4c4c4c;stroke-width:2" d="M126,777 l111,36 117,-21 -64,-15 -164,0z" /><path style="fill:#666;stroke:#4c4c4c;stroke-width:2" d="M354,787 l-64,-16 0,6 64,15 0,-5z" /><path style="fill:#333;stroke:#4c4c4c;stroke-width:2" d="M126,777 l111,36 117,-21 -64,-15 -164,0z" /><path style="fill:#9cf;stroke:#4c4c4c;stroke-width:2" d="M190,999 l0,-191 42,11 -32,10 -5,170 -5,0z" /><path style="fill:#00194c;stroke:#4c4c4c;stroke-width:2" d="M228,821 l-84,-9 -12,-4 218,-1 -1,20 -105,-6 -28,8 -16,0 28,-8z" /><path style="fill:#369;stroke:#4c4c4c;stroke-width:2" d="M237,808 l-105,-31 -22,222 11,0 26,-191 90,11 0,-11z" /><path style="fill:#9cf;stroke:#4c4c4c;stroke-width:2" d="M105,999 l16,-222 11,0 -22,222 -5,0z" /><path style="fill:#69c;stroke:#4c4c4c;stroke-width:2" d="M237,808 l43,-37 0,228 -6,0 -5,-191 -32,11 0,-11z" /><path style="fill:#369;stroke:#4c4c4c;stroke-width:2" d="M280,999 l0,-228 16,0 -6,228 -10,0z" /><path style="fill:#369;stroke:#4c4c4c;stroke-width:2" d="M296,798 l63,-6 0,207 -11,0 -5,-175 -47,-5 0,-21z" /><path style="fill:#369;stroke:#4c4c4c;stroke-width:2" d="M195,999 l5,-170 16,0 -10,170 -11,0z" /><path style="fill:#4c7fb2" d="M343,999 l-11,-175 11,0 5,175 -5,0z" /><path style="fill:#036" d="M335,868 l-3,-44 11,0 1,44 -9,0z" /><path style="fill:none;stroke:#4c4c4c;stroke-width:2" d="M343,999 l-11,-175 11,0 5,175 -5,0" /><path style="fill:#999;stroke:#4c4c4c;stroke-width:2" d="M126,771 l74,-322 6,0 -74,322 -6,0z" /><path style="fill:#999;stroke:#4c4c4c;stroke-width:2" d="M348,787 l-52,-338 5,0 53,338 -6,0z" /><path style="fill:#999;stroke:#4c4c4c;stroke-width:2" d="M126,771 l164,0 0,6 -164,0 0,-6z" /><path style="fill:#666;stroke:#4c4c4c;stroke-width:2" d="M354,787 l-64,-16 0,6 64,15 0,-5z" /><path style="fill:#999;stroke:#4c4c4c;stroke-width:2" d="M285,771 l-16,-328 5,0 16,328 -5,0z" /><path style="fill:#999;stroke:#4c4c4c;stroke-width:2" d="M158,655 l127,0 0,5 -127,0 0,-5z" /><path style="fill:#666;stroke:#4c4c4c;stroke-width:2" d="M332,676 l-47,-21 0,5 47,21 0,-5z" /><path style="fill:#999;stroke:#4c4c4c;stroke-width:2" d="M179,549 l101,0 0,6 -101,0 0,-6z" /><path style="fill:#666;stroke:#4c4c4c;stroke-width:2" d="M316,570 l-36,-21 0,6 36,21 0,-6z" /><ellipse style="fill:#ccc;stroke:#4c4c4c;stroke-width:2" cx="253" cy="454" rx="68" ry="16" /><path style="fill:#000;stroke:#4c4c4c;stroke-width:2" d="M147,459 l6,16 5,0 0,-16 74,16 116,0 16,-10 -32,-22 -52,-52 -80,47 -10,0 0,-53 0,-21 -5,-16 -11,-10 -5,37 0,68 -22,16z" /><ellipse style="fill:#7f7f7f;stroke:#4c4c4c;stroke-width:2" cx="253" cy="459" rx="68" ry="16" /><path style="fill:none;stroke:#4c4c4c;stroke-width:2" d="M132,771 l89,-111 64,111" /><path style="fill:none;stroke:#4c4c4c;stroke-width:2" d="M158,660 l58,111 64,-111" /><path style="fill:none;stroke:#4c4c4c;stroke-width:2" d="M290,771 l21,-100 37,116" /><path style="fill:none;stroke:#4c4c4c;stroke-width:2" d="M285,660 l37,117 10,-96" /><path style="fill:none;stroke:#4c4c4c;stroke-width:2" d="M158,655 l69,-101 53,101" /><path style="fill:none;stroke:#4c4c4c;stroke-width:2" d="M179,554 l42,101 53,-101" /><path style="fill:none;stroke:#4c4c4c;stroke-width:2" d="M179,549 l58,-90 37,90" /><path style="fill:none;stroke:#4c4c4c;stroke-width:2" d="M206,459 l21,90 42,-90" /><path style="fill:none;stroke:#4c4c4c;stroke-width:2" d="M285,655 l16,-90 31,111" /><path style="fill:none;stroke:#4c4c4c;stroke-width:2" d="M280,554 l31,112 5,-90" /><path style="fill:none;stroke:#4c4c4c;stroke-width:2" d="M280,549 l10,-84 26,105" /><path style="fill:none;stroke:#4c4c4c;stroke-width:2" d="M274,459 l27,101 0,-90" /><path style="fill:#b27f00;stroke:#4c4c4c;stroke-width:2" d="M169,359 l16,5 5,-10 -122,-307 -10,-11 111,323z" /><path style="fill:#e5b200;stroke:#4c4c4c;stroke-width:2" d="M147,459 l-5,-95 -90,-322 6,-6 116,302 -5,37 0,68 -22,16z" /><path style="fill:#7f9999" d="M332,385 l0,58 32,22 6,-6 0,-53 -16,-15 -22,-6z" /><path style="fill:#fc0;stroke:#4c4c4c;stroke-width:2" d="M58,42 l0,5 -48,5 10,175 32,-180 6,0 -38,217 -5,0 -10,-217 53,-5z" /><path style="fill:#b27f00;stroke:#4c4c4c;stroke-width:2" d="M68,52 l-5,-10 -32,185 37,-164 -5,-11 -5,-5 -38,217 6,-6 48,-195 -6,-11z" /><path style="fill:#960;stroke:#4c4c4c;stroke-width:2" d="M26,285 l-11,0 0,-42 11,0 16,21 -16,21z" /><path style="fill:#fc0;stroke:#4c4c4c;stroke-width:2" d="M15,285 l-15,-21 15,-21 11,21 -11,21z" /><path style="fill:none;stroke:#4c4c4c;stroke-width:2" d="M5,269 l0,111" /><path style="fill:none;stroke:#4c4c4c;stroke-width:2" d="M10,380 l10,-111" /><path style="fill:#fc0;stroke:#4c4c4c;stroke-width:2" d="M10,414 l-5,0 0,-29 5,0 0,29z" /><path style="fill:#fc0;stroke:#4c4c4c;stroke-width:2" d="M10,396 l-10,-11 10,-10 10,10 -10,11z" /><path style="fill:#b2b200;stroke:#4c4c4c;stroke-width:2" d="M333,369 l-7,0 -6,-2 -6,-6 -13,-18 26,-27 19,25 2,6 0,7 -2,7 -6,6 -7,2z" /><path style="fill:#7f7f7f;stroke:#4c4c4c;stroke-width:2" d="M280,391 l5,0 -11,-85 -5,0 11,85z" /><path style="fill:#666;stroke:#4c4c4c;stroke-width:2" d="M243,306 l37,0 -11,-10 -31,0 5,10z" /><path style="fill:#7f7f7f;stroke:#4c4c4c;stroke-width:2" d="M232,391 l5,0 16,-90 -5,0 -16,90z" /><path style="fill:#7f7f7f;stroke:#4c4c4c;stroke-width:2" d="M264,391 l5,0 -5,-90 -6,0 6,90z" /><path style="fill:#7f7f7f;stroke:#4c4c4c;stroke-width:2" d="M74,10 l-16,-10 -53,47 53,0 16,16 0,-53z" /><path style="fill:#4c4c4c;stroke:#4c4c4c;stroke-width:2" d="M74,10 l-16,-10 0,47 16,16 0,-53z" /><path style="fill:#191919" d="M20,42 l32,-32 0,32 -32,0z" /><path style="fill:#000" d="M68,15 l-5,-5 0,32 5,5 0,-32z" /><path style="fill:#c90;stroke:#4c4c4c;stroke-width:2" d="M232,243 l-169,-233 0,11 164,227 5,-5z" /><path style="fill:#b2b2b2;stroke:#4c4c4c;stroke-width:2" d="M237,285 l32,0 0,11 -31,0 -1,-11z" /><path style="fill:#e5e565;stroke:#4c4c4c;stroke-width:2" d="M318,348 l-8,0 -6,-2 -6,-6 -2,-7 0,-7 0,-4 -43,-32 -26,-42 5,-5 37,31 37,37 4,0 8,0 6,3 6,6 2,6 0,7 -2,7 -6,6 -6,2z" /><path style="fill:#4c4c4c;stroke:#4c4c4c;stroke-width:2" d="M179,422 l37,-10 5,5 -42,21 0,-16z" /><path style="fill:#98b2b2" d="M227,427 l-21,16 -32,0 -5,-5 31,0 6,-16 5,0 5,-31 37,-6 79,0 0,58 -21,0 0,-16 -84,0z" /><path style="fill:none;stroke:#4c4c4c;stroke-width:2" d="M227,427 l-21,16 -32,0 -5,-5 31,0 6,-16 5,0 5,-31 37,-6 79,0 22,6 16,15 0,53 -6,6 -32,-22 -21,0 0,-16 -84,0" /><path style="fill:#996" d="M237,396 l16,0 0,10 -16,0 0,-10z" /><path style="fill:#996" d="M264,396 l16,0 0,10 -16,0 0,-10z" /><path style="fill:#996" d="M290,396 l16,0 0,10 -16,0 0,-10z" /></svg>