<!DOCTYPE svg PUBLIC "-//W3C//DTD SVG 20000303 Stylable//EN" "http://www.w3.org/TR/2000/03/WD-SVG-20000303/DTD/svg-20000303-stylable.dtd"[]><svg width="999px" height="812px" viewBox="0 0 999 801" xmlns="http://www.w3.org/2000/svg"><path style="fill:none;stroke:#fc0;stroke-width:2" d="M203,0 l0,12" /><path style="fill:none;stroke:#fc0;stroke-width:2" d="M178,0 l0,13" /><path style="fill:none;stroke:#fc0;stroke-width:2" d="M154,0 l0,13" /><path style="fill:none;stroke:#fc0;stroke-width:2" d="M129,0 l0,13" /><path style="fill:none;stroke:#fc0;stroke-width:2" d="M104,0 l0,13" /><path style="fill:none;stroke:#fc0;stroke-width:2" d="M80,0 l0,13" /><path style="fill:none;stroke:#fc0;stroke-width:2" d="M302,0 l-247,0 0,13" /><path style="fill:none;stroke:#fc0;stroke-width:2" d="M55,6 l247,0" /><path style="fill:none;stroke:#fc0;stroke-width:2" d="M301,0 l0,12" /><path style="fill:none;stroke:#fc0;stroke-width:2" d="M276,0 l0,13" /><path style="fill:none;stroke:#fc0;stroke-width:2" d="M252,0 l0,13" /><path style="fill:none;stroke:#fc0;stroke-width:2" d="M227,0 l0,13" /><path style="fill:none;stroke:#fc0;stroke-width:2" d="M339,166 l-12,0" /><path style="fill:none;stroke:#fc0;stroke-width:2" d="M339,142 l-13,0" /><path style="fill:none;stroke:#fc0;stroke-width:2" d="M339,117 l-13,0" /><path style="fill:none;stroke:#fc0;stroke-width:2" d="M339,92 l-13,0" /><path style="fill:none;stroke:#fc0;stroke-width:2" d="M339,68 l-13,0" /><path style="fill:none;stroke:#fc0;stroke-width:2" d="M339,43 l-13,0" /><path style="fill:none;stroke:#fc0;stroke-width:2" d="M339,265 l0,-247 -13,0" /><path style="fill:none;stroke:#fc0;stroke-width:2" d="M333,18 l0,247" /><path style="fill:none;stroke:#fc0;stroke-width:2" d="M339,264 l-12,0" /><path style="fill:none;stroke:#fc0;stroke-width:2" d="M339,239 l-13,0" /><path style="fill:none;stroke:#fc0;stroke-width:2" d="M339,215 l-13,0" /><path style="fill:none;stroke:#fc0;stroke-width:2" d="M339,190 l-13,0" /><path style="fill:#b2a57f;stroke:#4c4c4c;stroke-width:2" d="M320,296 l43,-228 43,228 -12,0 -31,-210 -30,210 -13,0z" /><path style="fill:#b2a57f;stroke:#4c4c4c;stroke-width:2" d="M511,296 l-148,-228 296,228 -12,0 -265,-204 142,204 -13,0z" /><path style="fill:#998c73;stroke:#4c4c4c;stroke-width:2" d="M370,339 l271,228 0,6 -278,-234 7,0z" /><path style="fill:#998c73;stroke:#4c4c4c;stroke-width:2" d="M295,660 l173,-81 173,81 0,6 -173,-81 -173,81 0,-6z" /><path style="fill:#d9ccb3;stroke:#4c4c4c;stroke-width:2" d="M43,12 l-25,12 0,31 25,0 0,-43z" /><path style="fill:#d9ccb3;stroke:#4c4c4c;stroke-width:2" d="M518,246 l-50,13 0,37 50,0 0,-50z" /><path style="fill:#f2e5cc;stroke:#4c4c4c;stroke-width:2" d="M339,283 l179,0 0,13 -179,0 0,-13z" /><path style="fill:none;stroke:#fc0;stroke-width:2" d="M345,277 l173,0" /><path style="fill:none;stroke:#fc0;stroke-width:2" d="M518,271 l-173,0 0,13" /><path style="fill:none;stroke:#fc0;stroke-width:2" d="M370,271 l0,13" /><path style="fill:none;stroke:#fc0;stroke-width:2" d="M419,271 l0,13" /><path style="fill:none;stroke:#fc0;stroke-width:2" d="M443,271 l0,13" /><path style="fill:none;stroke:#fc0;stroke-width:2" d="M468,271 l0,13" /><path style="fill:none;stroke:#fc0;stroke-width:2" d="M493,271 l0,13" /><path style="fill:none;stroke:#fc0;stroke-width:2" d="M518,271 l0,13" /><path style="fill:#998c73;stroke:#4c4c4c;stroke-width:2" d="M641,339 l18,0 0,456 -18,0 0,-456z" /><path style="fill:#998c73;stroke:#4c4c4c;stroke-width:2" d="M709,573 l0,12 -414,0 0,-12 414,0z" /><path style="fill:#d9ccb3;stroke:#4c4c4c;stroke-width:2" d="M302,24 l-25,13 0,259 25,0 0,-272z" /><path style="fill:#998c73;stroke:#4c4c4c;stroke-width:2" d="M289,296 l31,0 0,49 -31,-25 0,-24z" /><path style="fill:#b2a57f;stroke:#4c4c4c;stroke-width:2" d="M295,37 l-6,259 -49,-259 6,0 37,209 6,-209 6,0z" /><path style="fill:#4c3f26;stroke:#4c4c4c;stroke-width:2" d="M320,345 l561,0 0,-6 -561,0 0,6z" /><path style="fill:#ccbfa6;stroke:#4c4c4c;stroke-width:2" d="M382,55 l0,19 -55,0 0,-19 55,0z" /><path style="fill:none;stroke:#fc0;stroke-width:2" d="M733,289 l148,0" /><path style="fill:none;stroke:#fc0;stroke-width:2" d="M881,283 l-148,0 0,13" /><path style="fill:none;stroke:#fc0;stroke-width:2" d="M758,283 l0,13" /><path style="fill:none;stroke:#fc0;stroke-width:2" d="M783,283 l0,13" /><path style="fill:none;stroke:#fc0;stroke-width:2" d="M807,283 l0,13" /><path style="fill:none;stroke:#fc0;stroke-width:2" d="M832,283 l0,13" /><path style="fill:none;stroke:#fc0;stroke-width:2" d="M856,283 l0,13" /><path style="fill:none;stroke:#fc0;stroke-width:2" d="M881,283 l0,13" /><path style="fill:#f2e5cc;stroke:#4c4c4c;stroke-width:2" d="M518,246 l52,-6 52,6 0,50 -104,0 0,-50z" /><path style="fill:#f2e5cc;stroke:#4c4c4c;stroke-width:2" d="M320,296 l561,0 0,43 -561,0 0,-43z" /><path style="fill:none;stroke:#4c4c4c;stroke-width:2" d="M881,296 l0,-68" /><path style="fill:#e5d8bf;stroke:#4c4c4c;stroke-width:2" d="M277,265 l62,0 0,31 -62,0 0,-31z" /><path style="fill:#f2e5cc;stroke:#4c4c4c;stroke-width:2" d="M302,37 l25,0 0,259 -25,0 0,-259z" /><path style="fill:#998c73" d="M591,259 l25,0 0,6 -25,0 0,-6z" /><path style="fill:#f2e5cc;stroke:#4c4c4c;stroke-width:2" d="M302,12 l0,25 -259,0 0,-25 259,0z" /><path style="fill:#bfb299;stroke:#4c4c4c;stroke-width:2" d="M339,24 l-25,25 -25,-25 25,-24 25,24z" /><path style="fill:#bfb299;stroke:#4c4c4c;stroke-width:2" d="M327,314 l-25,25 -24,-25 24,-24 25,24z" /><path style="fill:none;stroke:#b2a58c;stroke-width:2" d="M289,24 l-234,0" /><path style="fill:none;stroke:#b2a58c;stroke-width:2" d="M314,277 l0,-228" /><path style="fill:#d9ccb3;stroke:#4c4c4c;stroke-width:2" d="M302,246 l-31,13 0,37 31,0 0,-50z" /><path style="fill:#d9ccb3;stroke:#4c4c4c;stroke-width:2" d="M709,246 l-50,13 0,37 50,0 0,-50z" /><path style="fill:#f2e5cc;stroke:#4c4c4c;stroke-width:2" d="M437,339 l272,228 0,6 -278,-234 6,0z" /><path style="fill:#f2e5cc;stroke:#4c4c4c;stroke-width:2" d="M363,660 l173,-81 173,81 0,6 -173,-81 -173,81 0,-6z" /><path style="fill:#d9ccb3;stroke:#4c4c4c;stroke-width:2" d="M715,567 l0,18 -352,0 0,-18 352,0z" /><path style="fill:#7f7259;stroke:#4c4c4c;stroke-width:2" d="M635,413 l37,0 0,6 -37,0 0,-6z" /><path style="fill:#7f7259;stroke:#4c4c4c;stroke-width:2" d="M635,487 l37,0 0,6 -37,0 0,-6z" /><path style="fill:#7f7259;stroke:#4c4c4c;stroke-width:2" d="M635,561 l37,0 0,6 -37,0 0,-6z" /><path style="fill:#7f7259;stroke:#4c4c4c;stroke-width:2" d="M635,635 l37,0 0,6 -37,0 0,-6z" /><path style="fill:#7f7259;stroke:#4c4c4c;stroke-width:2" d="M635,709 l37,0 0,6 -37,0 0,-6z" /><path style="fill:#ccbfa6;stroke:#4c4c4c;stroke-width:2" d="M622,376 l19,0 0,6 -19,0 0,-6z" /><path style="fill:#ccbfa6;stroke:#4c4c4c;stroke-width:2" d="M622,450 l19,0 0,6 -19,0 0,-6z" /><path style="fill:#ccbfa6;stroke:#4c4c4c;stroke-width:2" d="M622,524 l19,0 0,6 -19,0 0,-6z" /><path style="fill:#ccbfa6;stroke:#4c4c4c;stroke-width:2" d="M622,598 l19,0 0,6 -19,0 0,-6z" /><path style="fill:#ccbfa6;stroke:#4c4c4c;stroke-width:2" d="M622,672 l19,0 0,6 -19,0 0,-6z" /><path style="fill:#ccbfa6;stroke:#4c4c4c;stroke-width:2" d="M622,746 l19,0 0,6 -19,0 0,-6z" /><path style="fill:none;stroke:#fc0;stroke-width:2" d="M622,746 l0,-6 19,0" /><path style="fill:none;stroke:#fc0;stroke-width:2" d="M622,671 l0,-5 19,0" /><path style="fill:none;stroke:#fc0;stroke-width:2" d="M622,598 l0,-6 19,0" /><path style="fill:none;stroke:#fc0;stroke-width:2" d="M622,523 l0,-5 19,0" /><path style="fill:none;stroke:#fc0;stroke-width:2" d="M622,450 l0,-6 19,0" /><path style="fill:none;stroke:#fc0;stroke-width:2" d="M622,376 l0,-6 19,0" /><path style="fill:none;stroke:#b27f00;stroke-width:2" d="M635,709 l0,-6 37,0 0,6" /><path style="fill:none;stroke:#b27f00;stroke-width:2" d="M635,635 l0,-7 37,0 0,7" /><path style="fill:none;stroke:#b27f00;stroke-width:2" d="M635,561 l0,-6 37,0 0,6" /><path style="fill:none;stroke:#b27f00;stroke-width:2" d="M635,487 l0,-7 37,0 0,7" /><path style="fill:none;stroke:#b27f00;stroke-width:2" d="M635,413 l0,-6 37,0 0,6" /><path style="fill:none;stroke:#b2a58c;stroke-width:2" d="M327,327 l548,0" /><path style="fill:#f2e5cc;stroke:#4c4c4c;stroke-width:2" d="M345,801 l-68,-6 0,-222 44,-234 18,0 -43,234 -1,203 50,0 0,-203 43,-234 0,-74 19,0 0,74 -44,234 0,228 -18,0z" /><path style="fill:#f2e5cc;stroke:#4c4c4c;stroke-width:2" d="M709,228 l18,0 0,567 -18,0 0,-567z" /><path style="fill:#f2e5cc;stroke:#4c4c4c;stroke-width:2" d="M715,216 l12,0 0,36 12,0 0,7 -24,0 0,-43z" /><path style="fill:#c90;stroke:#4c4c4c;stroke-width:2" d="M696,425 l43,0 0,31 -43,0 0,-31z" /><path style="fill:#fc0;stroke:#4c4c4c;stroke-width:2" d="M683,431 l69,0 0,12 -69,0 0,-12z" /><path style="fill:#4c3f26;stroke:#4c4c4c;stroke-width:2" d="M43,56 l246,0 0,-7 -246,0 0,7z" /><path style="fill:#4c3f26;stroke:#4c4c4c;stroke-width:2" d="M43,43 l259,0 0,-6 -259,0 0,6z" /><path style="fill:#d9ccb3;stroke:#4c4c4c;stroke-width:2" d="M43,43 l-43,0 0,12 43,0 0,-12z" /><path style="fill:#f2e5cc;stroke:#4c4c4c;stroke-width:2" d="M999,345 l0,37 -136,0 0,-37 136,0z" /><path style="fill:none;stroke:#998c73;stroke-width:2" d="M869,370 l123,0" /><path style="fill:none;stroke:#4c4c4c;stroke-width:2" d="M999,345 l-6,62 -11,0 -6,-62 -5,0 -6,62 -11,0 -6,-62 -5,0 -5,62 -11,0 -6,-62 -6,0 -5,62 -11,0 -6,-62 -5,0 -6,62 -11,0 -5,-62 -6,0 -6,62 -11,0 -5,-62 -6,0 -6,62 -10,0 -6,-62 -6,0 -5,62 -11,0 -6,-62 -5,0 -6,62 -11,0 -5,-62 -6,0 -5,62 -12,0 -5,-62" /></svg>