<!DOCTYPE svg PUBLIC "-//W3C//DTD SVG 20000303 Stylable//EN" "http://www.w3.org/TR/2000/03/WD-SVG-20000303/DTD/svg-20000303-stylable.dtd"[]><svg width="999px" height="293px" viewBox="0 0 998 250" xmlns="http://www.w3.org/2000/svg"><path style="fill:#4c4cb2" d="M23,2 l952,0 0,-2 16,0 0,250 -16,0 0,-2 -951,0 0,2 -16,0 0,-250 16,0 -1,2z" /><path style="fill:#4747ad" d="M23,156 l952,-103 0,195 -952,0 0,-92z" /><path style="fill:#4242a8" d="M23,181 l952,-103 0,170 -952,0 0,-67z" /><path style="fill:#3b3ba1" d="M23,202 l952,-103 0,149 -952,0 0,-46z" /><path style="fill:#339" d="M950,15 l20,0 0,210 -20,0 0,-210z" /><path style="fill:#339" d="M919,15 l21,0 0,210 -21,0 0,-210z" /><path style="fill:#339" d="M888,15 l21,0 0,210 -21,0 0,-210z" /><path style="fill:#339" d="M858,15 l20,0 0,210 -20,0 0,-210z" /><path style="fill:#339" d="M827,15 l20,0 0,210 -20,0 0,-210z" /><path style="fill:#339" d="M796,15 l21,0 0,210 -21,0 0,-210z" /><path style="fill:#339" d="M765,15 l21,0 0,210 -21,0 0,-210z" /><path style="fill:#339" d="M735,15 l20,0 0,210 -20,0 0,-210z" /><path style="fill:#339" d="M704,15 l20,0 0,210 -20,0 0,-210z" /><path style="fill:#339" d="M673,15 l21,0 0,210 -21,0 0,-210z" /><path style="fill:#339" d="M642,15 l21,0 0,210 -21,0 0,-210z" /><path style="fill:#339" d="M612,15 l20,0 0,210 -20,0 0,-210z" /><path style="fill:#339" d="M581,15 l20,0 0,210 -20,0 0,-210z" /><path style="fill:#339" d="M550,15 l21,0 0,210 -21,0 0,-210z" /><path style="fill:#339" d="M519,15 l21,0 0,210 -21,0 0,-210z" /><path style="fill:#339" d="M489,15 l20,0 0,210 -20,0 0,-210z" /><path style="fill:#339" d="M458,15 l20,0 0,210 -20,0 0,-210z" /><path style="fill:#339" d="M427,15 l20,0 0,210 -20,0 0,-210z" /><path style="fill:#339" d="M396,15 l21,0 0,210 -21,0 0,-210z" /><path style="fill:#339" d="M365,15 l21,0 0,210 -21,0 0,-210z" /><path style="fill:#339" d="M335,15 l20,0 0,210 -20,0 0,-210z" /><path style="fill:#339" d="M304,15 l20,0 0,210 -20,0 0,-210z" /><path style="fill:#339" d="M273,15 l21,0 0,210 -21,0 0,-210z" /><path style="fill:#339" d="M242,15 l21,0 0,210 -21,0 0,-210z" /><path style="fill:#339" d="M212,15 l20,0 0,210 -20,0 0,-210z" /><path style="fill:#339" d="M181,15 l20,0 0,210 -20,0 0,-210z" /><path style="fill:#339" d="M150,15 l21,0 0,210 -21,0 0,-210z" /><path style="fill:#339" d="M119,15 l21,0 0,210 -21,0 0,-210z" /><path style="fill:#339" d="M89,15 l20,0 0,210 -20,0 0,-210z" /><path style="fill:#339" d="M58,15 l21,0 0,210 -21,0 0,-210z" /><path style="fill:#339" d="M27,15 l21,0 0,210 -21,0 0,-210z" /><path style="fill:none;stroke:#4c4c4c;stroke-width:2" d="M23,2 l952,0 0,-2 16,0 0,250 -16,0 0,-2 -952,0 0,2 -16,0 0,-250 16,0 0,2" /><path style="fill:none;stroke:#4c4c4c;stroke-width:2" d="M23,248 l0,-246" /><path style="fill:none;stroke:#4c4c4c;stroke-width:2" d="M975,248 l0,-246" /><path style="fill:#a6a6d9" d="M940,46 l10,0 0,10 -10,0 0,-10z" /><path style="fill:#a6a6d9" d="M909,64 l8,0 0,10 -8,0 0,-10z" /><path style="fill:#a6a6d9" d="M909,46 l10,0 0,10 -10,0 0,-10z" /><path style="fill:#a6a6d9" d="M878,46 l10,0 0,10 -10,0 0,-10z" /><path style="fill:#a6a6d9" d="M847,46 l11,0 0,10 -11,0 0,-10z" /><path style="fill:#99c" d="M950,46 l10,0 0,10 -10,0 0,-10z" /><path style="fill:#99c" d="M919,46 l10,0 0,10 -10,0 0,-10z" /><path style="fill:#99c" d="M888,46 l21,0 0,10 -21,0 0,-10z" /><path style="fill:#99c" d="M858,46 l20,0 0,10 -20,0 0,-10z" /><path style="fill:#99c" d="M891,63 l18,0 0,11 -18,0 0,-11z" /><path style="fill:#7f7f7f" d="M998,10 l0,233 -7,0 0,-233 7,0z" /><path style="fill:#999" d="M998,10 l0,233 -7,0 0,-233 7,0z" /><path style="fill:#b2b2b2" d="M997,10 l0,233 -5,0 0,-233 5,0z" /><path style="fill:#ccc" d="M996,10 l0,233 -3,0 0,-233 3,0z" /><path style="fill:#e5e5e5" d="M996,10 l0,233 -2,0 0,-233 2,0z" /><path style="fill:#fff" d="M995,10 l0,233 -1,0 0,-233 1,0z" /><path style="fill:none;stroke:#4c4c4c;stroke-width:2" d="M998,10 l0,233 -7,0 0,-233 7,0" /><path style="fill:#7f7f7f" d="M7,10 l0,233 -7,0 0,-233 7,0z" /><path style="fill:#999" d="M7,10 l0,233 -7,0 0,-233 7,0z" /><path style="fill:#b2b2b2" d="M6,10 l0,233 -5,0 0,-233 5,0z" /><path style="fill:#ccc" d="M5,10 l0,233 -3,0 0,-233 3,0z" /><path style="fill:#e5e5e5" d="M4,10 l0,233 -2,0 0,-233 2,0z" /><path style="fill:#fff" d="M4,10 l0,233 -1,0 0,-233 1,0z" /><path style="fill:none;stroke:#4c4c4c;stroke-width:2" d="M7,10 l0,233 -7,0 0,-233 7,0" /><path style="fill:#19197f" d="M23,227 l952,0 0,8 -952,0 0,-8z" /><path style="fill:#003" d="M23,248 l952,0 0,2 -952,0 0,-2z" /><path style="fill:#19197f" d="M458,15 l20,0 0,2 -20,0 0,-2z" /><path style="fill:#19197f" d="M427,15 l20,0 0,2 -20,0 0,-2z" /><path style="fill:#19197f" d="M396,15 l21,0 0,2 -21,0 0,-2z" /><path style="fill:#19197f" d="M365,15 l21,0 0,2 -21,0 0,-2z" /><path style="fill:#19197f" d="M335,15 l20,0 0,2 -20,0 0,-2z" /><path style="fill:#19197f" d="M304,15 l20,0 0,2 -20,0 0,-2z" /><path style="fill:#19197f" d="M273,15 l21,0 0,2 -21,0 0,-2z" /><path style="fill:#19197f" d="M242,15 l21,0 0,2 -21,0 0,-2z" /><path style="fill:#19197f" d="M212,15 l20,0 0,2 -20,0 0,-2z" /><path style="fill:#19197f" d="M181,15 l20,0 0,2 -20,0 0,-2z" /><path style="fill:#19197f" d="M150,15 l21,0 0,2 -21,0 0,-2z" /><path style="fill:#19197f" d="M119,15 l21,0 0,2 -21,0 0,-2z" /><path style="fill:#19197f" d="M89,15 l20,0 0,2 -20,0 0,-2z" /><path style="fill:#19197f" d="M58,15 l21,0 0,2 -21,0 0,-2z" /><path style="fill:#19197f" d="M27,15 l21,0 0,2 -21,0 0,-2z" /><path style="fill:#19197f" d="M489,15 l20,0 0,2 -20,0 0,-2z" /><path style="fill:#19197f" d="M519,15 l21,0 0,2 -21,0 0,-2z" /><path style="fill:#19197f" d="M550,15 l21,0 0,2 -21,0 0,-2z" /><path style="fill:#19197f" d="M581,15 l20,0 0,2 -20,0 0,-2z" /><path style="fill:#19197f" d="M612,15 l20,0 0,2 -20,0 0,-2z" /><path style="fill:#19197f" d="M642,15 l21,0 0,2 -21,0 0,-2z" /><path style="fill:#19197f" d="M673,15 l21,0 0,2 -21,0 0,-2z" /><path style="fill:#19197f" d="M704,15 l20,0 0,2 -20,0 0,-2z" /><path style="fill:#19197f" d="M735,15 l20,0 0,2 -20,0 0,-2z" /><path style="fill:#19197f" d="M765,15 l21,0 0,2 -21,0 0,-2z" /><path style="fill:#19197f" d="M796,15 l21,0 0,2 -21,0 0,-2z" /><path style="fill:#19197f" d="M827,15 l20,0 0,2 -20,0 0,-2z" /><path style="fill:#19197f" d="M858,15 l20,0 0,2 -20,0 0,-2z" /><path style="fill:#19197f" d="M888,15 l21,0 0,2 -21,0 0,-2z" /><path style="fill:#19197f" d="M919,15 l21,0 0,2 -21,0 0,-2z" /><path style="fill:#19197f" d="M950,15 l20,0 0,2 -20,0 0,-2z" /><path style="fill:none;stroke:#ccf;stroke-width:2" d="M950,225 l0,-210" /><path style="fill:none;stroke:#ccf;stroke-width:2" d="M519,225 l0,-210" /><path style="fill:none;stroke:#ccf;stroke-width:2" d="M550,225 l0,-210" /><path style="fill:none;stroke:#ccf;stroke-width:2" d="M581,225 l0,-210" /><path style="fill:none;stroke:#ccf;stroke-width:2" d="M612,225 l0,-210" /><path style="fill:none;stroke:#ccf;stroke-width:2" d="M642,225 l0,-210" /><path style="fill:none;stroke:#ccf;stroke-width:2" d="M673,225 l0,-210" /><path style="fill:none;stroke:#ccf;stroke-width:2" d="M704,225 l0,-210" /><path style="fill:none;stroke:#ccf;stroke-width:2" d="M735,225 l0,-210" /><path style="fill:none;stroke:#ccf;stroke-width:2" d="M765,225 l0,-210" /><path style="fill:none;stroke:#ccf;stroke-width:2" d="M796,225 l0,-210" /><path style="fill:none;stroke:#ccf;stroke-width:2" d="M827,225 l0,-210" /><path style="fill:none;stroke:#ccf;stroke-width:2" d="M858,225 l0,-210" /><path style="fill:none;stroke:#ccf;stroke-width:2" d="M888,225 l0,-210" /><path style="fill:none;stroke:#ccf;stroke-width:2" d="M919,225 l0,-210" /><path style="fill:none;stroke:#ccf;stroke-width:2" d="M489,225 l0,-210" /><path style="fill:none;stroke:#ccf;stroke-width:2" d="M458,225 l0,-210" /><path style="fill:none;stroke:#ccf;stroke-width:2" d="M427,225 l0,-210" /><path style="fill:none;stroke:#ccf;stroke-width:2" d="M396,225 l0,-210" /><path style="fill:none;stroke:#ccf;stroke-width:2" d="M365,225 l0,-210" /><path style="fill:none;stroke:#ccf;stroke-width:2" d="M335,225 l0,-210" /><path style="fill:none;stroke:#ccf;stroke-width:2" d="M304,225 l0,-210" /><path style="fill:none;stroke:#ccf;stroke-width:2" d="M273,225 l0,-210" /><path style="fill:none;stroke:#ccf;stroke-width:2" d="M242,225 l0,-210" /><path style="fill:none;stroke:#ccf;stroke-width:2" d="M212,225 l0,-210" /><path style="fill:none;stroke:#ccf;stroke-width:2" d="M181,225 l0,-210" /><path style="fill:none;stroke:#ccf;stroke-width:2" d="M150,225 l0,-210" /><path style="fill:none;stroke:#ccf;stroke-width:2" d="M119,225 l0,-210" /><path style="fill:none;stroke:#ccf;stroke-width:2" d="M89,225 l0,-210" /><path style="fill:none;stroke:#ccf;stroke-width:2" d="M58,225 l0,-210" /><path style="fill:none;stroke:#ccf;stroke-width:2" d="M27,225 l0,-210" /></svg>