<!DOCTYPE svg PUBLIC "-//W3C//DTD SVG 20000303 Stylable//EN" "http://www.w3.org/TR/2000/03/WD-SVG-20000303/DTD/svg-20000303-stylable.dtd"[]><svg width="998px" height="292px" viewBox="0 0 999 250" xmlns="http://www.w3.org/2000/svg"><path style="fill:#4c4cb2" d="M23,2 l953,0 0,-2 15,0 0,250 -15,0 0,-2 -952,0 0,2 -16,0 0,-250 16,0 -1,2z" /><path style="fill:#4747ad" d="M22,156 l954,-103 0,195 -954,0 0,-92z" /><path style="fill:#4242a8" d="M22,181 l954,-103 0,170 -954,0 0,-67z" /><path style="fill:#3b3ba1" d="M22,202 l954,-103 0,149 -954,0 0,-46z" /><path style="fill:#339" d="M950,15 l20,0 0,209 -20,0 0,-209z" /><path style="fill:#339" d="M919,15 l21,0 0,209 -21,0 0,-209z" /><path style="fill:#339" d="M888,15 l21,0 0,209 -21,0 0,-209z" /><path style="fill:#339" d="M857,15 l21,0 0,209 -21,0 0,-209z" /><path style="fill:#339" d="M827,15 l21,0 0,209 -21,0 0,-209z" /><path style="fill:#339" d="M796,15 l21,0 0,209 -21,0 0,-209z" /><path style="fill:#339" d="M765,15 l21,0 0,209 -21,0 0,-209z" /><path style="fill:#339" d="M735,15 l20,0 0,209 -20,0 0,-209z" /><path style="fill:#339" d="M704,15 l21,0 0,209 -21,0 0,-209z" /><path style="fill:#339" d="M673,15 l21,0 0,209 -21,0 0,-209z" /><path style="fill:#339" d="M642,15 l21,0 0,209 -21,0 0,-209z" /><path style="fill:#339" d="M612,15 l20,0 0,209 -20,0 0,-209z" /><path style="fill:#339" d="M581,15 l20,0 0,209 -20,0 0,-209z" /><path style="fill:#339" d="M550,15 l21,0 0,209 -21,0 0,-209z" /><path style="fill:#339" d="M520,15 l20,0 0,209 -20,0 0,-209z" /><path style="fill:#339" d="M489,15 l20,0 0,209 -20,0 0,-209z" /><path style="fill:#339" d="M458,15 l20,0 0,209 -20,0 0,-209z" /><path style="fill:#339" d="M427,15 l20,0 0,209 -20,0 0,-209z" /><path style="fill:#339" d="M396,15 l20,0 0,209 -20,0 0,-209z" /><path style="fill:#339" d="M366,15 l20,0 0,209 -20,0 0,-209z" /><path style="fill:#339" d="M335,15 l20,0 0,209 -20,0 0,-209z" /><path style="fill:#339" d="M304,15 l20,0 0,209 -20,0 0,-209z" /><path style="fill:#339" d="M273,15 l21,0 0,209 -21,0 0,-209z" /><path style="fill:#339" d="M243,15 l20,0 0,209 -20,0 0,-209z" /><path style="fill:#339" d="M212,15 l20,0 0,209 -20,0 0,-209z" /><path style="fill:#339" d="M181,15 l21,0 0,209 -21,0 0,-209z" /><path style="fill:#339" d="M150,15 l21,0 0,209 -21,0 0,-209z" /><path style="fill:#339" d="M119,15 l21,0 0,209 -21,0 0,-209z" /><path style="fill:#339" d="M89,15 l21,0 0,209 -21,0 0,-209z" /><path style="fill:#339" d="M58,15 l21,0 0,209 -21,0 0,-209z" /><path style="fill:#339" d="M27,15 l21,0 0,209 -21,0 0,-209z" /><path style="fill:none;stroke:#4c4c4c;stroke-width:2" d="M22,2 l954,0 0,-2 15,0 0,250 -15,0 0,-2 -953,0 0,2 -16,0 0,-250 16,0 -1,2" /><path style="fill:none;stroke:#4c4c4c;stroke-width:2" d="M22,248 l0,-246" /><path style="fill:none;stroke:#4c4c4c;stroke-width:2" d="M976,248 l0,-246" /><path style="fill:#a6a6d9" d="M940,46 l10,0 0,10 -10,0 0,-10z" /><path style="fill:#a6a6d9" d="M909,63 l8,0 0,11 -8,0 0,-11z" /><path style="fill:#a6a6d9" d="M909,46 l10,0 0,10 -10,0 0,-10z" /><path style="fill:#a6a6d9" d="M878,46 l10,0 0,10 -10,0 0,-10z" /><path style="fill:#a6a6d9" d="M848,46 l9,0 0,10 -9,0 0,-10z" /><path style="fill:#99c" d="M950,46 l10,0 0,10 -10,0 0,-10z" /><path style="fill:#99c" d="M919,46 l10,0 0,10 -10,0 0,-10z" /><path style="fill:#99c" d="M888,46 l21,0 0,10 -21,0 0,-10z" /><path style="fill:#99c" d="M857,46 l21,0 0,10 -21,0 0,-10z" /><path style="fill:#99c" d="M891,63 l18,0 0,11 -18,0 0,-11z" /><path style="fill:#e5e5e5" d="M524,102 l15,0 0,50 23,0 0,17 -38,0 0,-67z" /><path style="fill:#e50000" d="M439,66 l0,5 5,0 0,5 5,0 0,5 5,0 0,5 38,0 3,8 10,0 2,-8 39,0 0,-5 5,0 0,-5 6,0 0,-5 5,0 0,-5 -59,0 0,-5 -6,0 0,5 -58,0z" /><path style="fill:#7f7f7f" d="M999,10 l0,233 -8,0 0,-233 8,0z" /><path style="fill:#999" d="M998,10 l0,233 -7,0 0,-233 7,0z" /><path style="fill:#b2b2b2" d="M997,10 l0,233 -5,0 0,-233 5,0z" /><path style="fill:#ccc" d="M996,10 l0,233 -3,0 0,-233 3,0z" /><path style="fill:#e5e5e5" d="M996,10 l0,233 -3,0 0,-233 3,0z" /><path style="fill:#fff" d="M995,10 l0,233 -1,0 0,-233 1,0z" /><path style="fill:none;stroke:#4c4c4c;stroke-width:2" d="M999,10 l0,233 -8,0 0,-233 8,0" /><path style="fill:#f00" d="M449,66 l0,15 5,0 0,5 5,0 0,-20 -10,0z" /><path style="fill:#f00" d="M551,66 l0,15 -5,0 0,5 -5,0 0,-20 10,0z" /><path style="fill:#f00" d="M520,66 l0,20 -10,0 0,-20 10,0z" /><path style="fill:#f00" d="M489,66 l0,20 -10,0 0,-20 10,0z" /><path style="fill:#fff;fill-rule:evenodd" d="M459,158 l-4,0 -3,11 -3,0 0,-42 6,-25 4,0 0,56z M459,143 l0,-5 -1,5 1,0z " /><path style="fill:#fff" d="M479,169 l0,-36 10,36 -10,0z" /><path style="fill:#fff" d="M486,102 l3,0 0,67 -3,0 0,-67z" /><ellipse style="fill:#fff" cx="514" cy="122" rx="5" ry="21" /><path style="fill:#fff" d="M541,152 l10,0 0,17 -10,0 0,-17z" /><path style="fill:#7f7f7f" d="M7,10 l0,233 -7,0 0,-233 7,0z" /><path style="fill:#999" d="M7,10 l0,233 -7,0 0,-233 7,0z" /><path style="fill:#b2b2b2" d="M6,10 l0,233 -5,0 0,-233 5,0z" /><path style="fill:#ccc" d="M5,10 l0,233 -3,0 0,-233 3,0z" /><path style="fill:#e5e5e5" d="M5,10 l0,233 -3,0 0,-233 3,0z" /><path style="fill:#fff" d="M4,10 l0,233 -1,0 0,-233 1,0z" /><path style="fill:none;stroke:#4c4c4c;stroke-width:2" d="M7,10 l0,233 -7,0 0,-233 7,0" /><path style="fill:#19197f" d="M22,228 l954,0 0,7 -954,0 0,-7z" /><path style="fill:#003" d="M22,248 l954,0 0,2 -954,0 0,-2z" /><path style="fill:#19197f" d="M458,15 l20,0 0,2 -20,0 0,-2z" /><path style="fill:#19197f" d="M427,15 l20,0 0,2 -20,0 0,-2z" /><path style="fill:#19197f" d="M396,15 l20,0 0,2 -20,0 0,-2z" /><path style="fill:#19197f" d="M366,15 l20,0 0,2 -20,0 0,-2z" /><path style="fill:#19197f" d="M335,15 l20,0 0,2 -20,0 0,-2z" /><path style="fill:#19197f" d="M304,15 l20,0 0,2 -20,0 0,-2z" /><path style="fill:#19197f" d="M273,15 l21,0 0,2 -21,0 0,-2z" /><path style="fill:#19197f" d="M243,15 l20,0 0,2 -20,0 0,-2z" /><path style="fill:#19197f" d="M212,15 l20,0 0,2 -20,0 0,-2z" /><path style="fill:#19197f" d="M181,15 l21,0 0,2 -21,0 0,-2z" /><path style="fill:#19197f" d="M150,15 l21,0 0,2 -21,0 0,-2z" /><path style="fill:#19197f" d="M119,15 l21,0 0,2 -21,0 0,-2z" /><path style="fill:#19197f" d="M89,15 l21,0 0,2 -21,0 0,-2z" /><path style="fill:#19197f" d="M58,15 l21,0 0,2 -21,0 0,-2z" /><path style="fill:#19197f" d="M27,15 l21,0 0,2 -21,0 0,-2z" /><path style="fill:#19197f" d="M489,15 l20,0 0,2 -20,0 0,-2z" /><path style="fill:#19197f" d="M520,15 l20,0 0,2 -20,0 0,-2z" /><path style="fill:#19197f" d="M550,15 l21,0 0,2 -21,0 0,-2z" /><path style="fill:#19197f" d="M581,15 l20,0 0,2 -20,0 0,-2z" /><path style="fill:#19197f" d="M612,15 l20,0 0,2 -20,0 0,-2z" /><path style="fill:#19197f" d="M642,15 l21,0 0,2 -21,0 0,-2z" /><path style="fill:#19197f" d="M673,15 l21,0 0,2 -21,0 0,-2z" /><path style="fill:#19197f" d="M704,15 l21,0 0,2 -21,0 0,-2z" /><path style="fill:#19197f" d="M735,15 l20,0 0,2 -20,0 0,-2z" /><path style="fill:#19197f" d="M765,15 l21,0 0,2 -21,0 0,-2z" /><path style="fill:#19197f" d="M796,15 l21,0 0,2 -21,0 0,-2z" /><path style="fill:#19197f" d="M827,15 l21,0 0,2 -21,0 0,-2z" /><path style="fill:#19197f" d="M857,15 l21,0 0,2 -21,0 0,-2z" /><path style="fill:#19197f" d="M888,15 l21,0 0,2 -21,0 0,-2z" /><path style="fill:#19197f" d="M919,15 l21,0 0,2 -21,0 0,-2z" /><path style="fill:#19197f" d="M950,15 l20,0 0,2 -20,0 0,-2z" /><path style="fill:none;stroke:#ccf;stroke-width:2" d="M950,224 l0,-209" /><path style="fill:none;stroke:#ccf;stroke-width:2" d="M520,224 l0,-209" /><path style="fill:none;stroke:#ccf;stroke-width:2" d="M550,224 l0,-209" /><path style="fill:none;stroke:#ccf;stroke-width:2" d="M581,224 l0,-209" /><path style="fill:none;stroke:#ccf;stroke-width:2" d="M612,224 l0,-209" /><path style="fill:none;stroke:#ccf;stroke-width:2" d="M642,224 l0,-209" /><path style="fill:none;stroke:#ccf;stroke-width:2" d="M673,224 l0,-209" /><path style="fill:none;stroke:#ccf;stroke-width:2" d="M704,224 l0,-209" /><path style="fill:none;stroke:#ccf;stroke-width:2" d="M735,224 l0,-209" /><path style="fill:none;stroke:#ccf;stroke-width:2" d="M765,224 l0,-209" /><path style="fill:none;stroke:#ccf;stroke-width:2" d="M796,224 l0,-209" /><path style="fill:none;stroke:#ccf;stroke-width:2" d="M827,224 l0,-209" /><path style="fill:none;stroke:#ccf;stroke-width:2" d="M857,224 l0,-209" /><path style="fill:none;stroke:#ccf;stroke-width:2" d="M888,224 l0,-209" /><path style="fill:none;stroke:#ccf;stroke-width:2" d="M919,224 l0,-209" /><path style="fill:none;stroke:#ccf;stroke-width:2" d="M489,224 l0,-209" /><path style="fill:none;stroke:#ccf;stroke-width:2" d="M458,224 l0,-209" /><path style="fill:none;stroke:#ccf;stroke-width:2" d="M427,224 l0,-209" /><path style="fill:none;stroke:#ccf;stroke-width:2" d="M396,224 l0,-209" /><path style="fill:none;stroke:#ccf;stroke-width:2" d="M366,224 l0,-209" /><path style="fill:none;stroke:#ccf;stroke-width:2" d="M335,224 l0,-209" /><path style="fill:none;stroke:#ccf;stroke-width:2" d="M304,224 l0,-209" /><path style="fill:none;stroke:#ccf;stroke-width:2" d="M273,224 l0,-209" /><path style="fill:none;stroke:#ccf;stroke-width:2" d="M243,224 l0,-209" /><path style="fill:none;stroke:#ccf;stroke-width:2" d="M212,224 l0,-209" /><path style="fill:none;stroke:#ccf;stroke-width:2" d="M181,224 l0,-209" /><path style="fill:none;stroke:#ccf;stroke-width:2" d="M150,224 l0,-209" /><path style="fill:none;stroke:#ccf;stroke-width:2" d="M119,224 l0,-209" /><path style="fill:none;stroke:#ccf;stroke-width:2" d="M89,224 l0,-209" /><path style="fill:none;stroke:#ccf;stroke-width:2" d="M58,224 l0,-209" /><path style="fill:none;stroke:#ccf;stroke-width:2" d="M27,224 l0,-209" /><path style="fill:#e5e5e5" d="M471,158 l-16,0 -3,10 -14,0 17,-66 16,0 18,66 -16,0 -2,-10z" /><path style="fill:#339" d="M468,143 l-5,-24 -5,24 10,0z" /><path style="fill:#e5e5e5" d="M485,102 l25,0 9,3 5,8 1,7 -1,11 -4,9 -8,4 -12,0 0,24 -15,0 0,-66z" /><ellipse style="fill:#339" cx="505" cy="123" rx="5" ry="7" /></svg>