<!DOCTYPE svg PUBLIC "-//W3C//DTD SVG 20000303 Stylable//EN" "http://www.w3.org/TR/2000/03/WD-SVG-20000303/DTD/svg-20000303-stylable.dtd"[]><svg width="998px" height="522px" viewBox="0 0 999 494" xmlns="http://www.w3.org/2000/svg"><path style="fill:#4c4cb2" d="M46,4 l906,0 0,-4 32,0 0,494 -32,0 0,-5 -905,0 0,5 -32,0 0,-494 32,0 -1,4z" /><path style="fill:#4747ad" d="M46,307 l906,-202 0,384 -906,0 0,-182z" /><path style="fill:#4242a8" d="M46,357 l906,-203 0,335 -906,0 0,-132z" /><path style="fill:#3b3ba1" d="M46,398 l906,-202 0,293 -906,0 0,-91z" /><path style="fill:#19197f" d="M46,448 l906,0 0,15 -906,0 0,-15z" /><path style="fill:#003" d="M625,453 l81,0 0,36 -81,0 0,-36z" /><path style="fill:#003" d="M297,453 l81,0 0,36 -81,0 0,-36z" /><path style="fill:#339" d="M903,29 l40,0 0,414 -40,0 0,-414z" /><path style="fill:#339" d="M842,29 l41,0 0,414 -41,0 0,-414z" /><path style="fill:#339" d="M782,29 l40,0 0,414 -40,0 0,-414z" /><path style="fill:#339" d="M721,29 l41,0 0,414 -41,0 0,-414z" /><path style="fill:#339" d="M661,29 l40,0 0,414 -40,0 0,-414z" /><path style="fill:#339" d="M600,29 l41,0 0,414 -41,0 0,-414z" /><path style="fill:#339" d="M539,29 l41,0 0,414 -41,0 0,-414z" /><path style="fill:#339" d="M479,29 l40,0 0,414 -40,0 0,-414z" /><path style="fill:#339" d="M418,29 l41,0 0,414 -41,0 0,-414z" /><path style="fill:#339" d="M358,29 l40,0 0,414 -40,0 0,-414z" /><path style="fill:#339" d="M297,29 l40,0 0,414 -40,0 0,-414z" /><path style="fill:#339" d="M237,29 l40,0 0,414 -40,0 0,-414z" /><path style="fill:#339" d="M176,29 l40,0 0,414 -40,0 0,-414z" /><path style="fill:#339" d="M115,29 l41,0 0,414 -41,0 0,-414z" /><path style="fill:#339" d="M55,29 l40,0 0,414 -40,0 0,-414z" /><path style="fill:#003" d="M46,489 l906,0 0,5 -906,0 0,-5z" /><path style="fill:none;stroke:#4c4c4c;stroke-width:2" d="M46,4 l906,0 0,-4 32,0 0,494 -32,0 0,-5 -905,0 0,5 -32,0 0,-494 32,0 -1,4" /><path style="fill:none;stroke:#4c4c4c;stroke-width:2" d="M46,489 l0,-485" /><path style="fill:none;stroke:#4c4c4c;stroke-width:2" d="M952,489 l0,-485" /><path style="fill:#19197f" d="M55,29 l40,0 0,6 -40,0 0,-6z" /><path style="fill:#19197f" d="M115,29 l41,0 0,6 -41,0 0,-6z" /><path style="fill:#19197f" d="M176,29 l40,0 0,6 -40,0 0,-6z" /><path style="fill:#19197f" d="M237,29 l40,0 0,6 -40,0 0,-6z" /><path style="fill:#19197f" d="M297,29 l40,0 0,6 -40,0 0,-6z" /><path style="fill:#19197f" d="M358,29 l40,0 0,6 -40,0 0,-6z" /><path style="fill:#19197f" d="M418,29 l41,0 0,6 -41,0 0,-6z" /><path style="fill:#19197f" d="M479,29 l40,0 0,6 -40,0 0,-6z" /><path style="fill:#19197f" d="M539,29 l41,0 0,6 -41,0 0,-6z" /><path style="fill:#19197f" d="M600,29 l41,0 0,6 -41,0 0,-6z" /><path style="fill:#19197f" d="M661,29 l40,0 0,6 -40,0 0,-6z" /><path style="fill:#19197f" d="M721,29 l41,0 0,6 -41,0 0,-6z" /><path style="fill:#19197f" d="M782,29 l40,0 0,6 -40,0 0,-6z" /><path style="fill:#19197f" d="M842,29 l41,0 0,6 -41,0 0,-6z" /><path style="fill:#19197f" d="M903,29 l40,0 0,6 -40,0 0,-6z" /><path style="fill:none;stroke:#ccf;stroke-width:2" d="M903,443 l0,-414" /><path style="fill:none;stroke:#ccf;stroke-width:2" d="M55,443 l0,-414" /><path style="fill:none;stroke:#ccf;stroke-width:2" d="M115,443 l0,-414" /><path style="fill:none;stroke:#ccf;stroke-width:2" d="M176,443 l0,-414" /><path style="fill:none;stroke:#ccf;stroke-width:2" d="M237,443 l0,-414" /><path style="fill:none;stroke:#ccf;stroke-width:2" d="M297,443 l0,-414" /><path style="fill:none;stroke:#ccf;stroke-width:2" d="M358,443 l0,-414" /><path style="fill:none;stroke:#ccf;stroke-width:2" d="M418,443 l0,-414" /><path style="fill:none;stroke:#ccf;stroke-width:2" d="M479,443 l0,-414" /><path style="fill:none;stroke:#ccf;stroke-width:2" d="M539,443 l0,-414" /><path style="fill:none;stroke:#ccf;stroke-width:2" d="M600,443 l0,-414" /><path style="fill:none;stroke:#ccf;stroke-width:2" d="M661,443 l0,-414" /><path style="fill:none;stroke:#ccf;stroke-width:2" d="M721,443 l0,-414" /><path style="fill:none;stroke:#ccf;stroke-width:2" d="M782,443 l0,-414" /><path style="fill:none;stroke:#ccf;stroke-width:2" d="M842,443 l0,-414" /><path style="fill:#a6a6d9" d="M883,91 l20,0 0,20 -20,0 0,-20z" /><path style="fill:#a6a6d9" d="M822,125 l15,0 0,20 -15,0 0,-20z" /><path style="fill:#a6a6d9" d="M822,91 l20,0 0,20 -20,0 0,-20z" /><path style="fill:#a6a6d9" d="M761,91 l21,0 0,20 -21,0 0,-20z" /><path style="fill:#a6a6d9" d="M701,91 l20,0 0,20 -20,0 0,-20z" /><path style="fill:#7f7f7f" d="M15,20 l0,459 -15,0 0,-459 15,0z" /><path style="fill:#999" d="M14,20 l0,459 -13,0 0,-459 13,0z" /><path style="fill:#b2b2b2" d="M13,20 l0,459 -10,0 0,-459 10,0z" /><path style="fill:#ccc" d="M10,20 l0,459 -7,0 0,-459 7,0z" /><path style="fill:#e5e5e5" d="M9,20 l0,459 -5,0 0,-459 5,0z" /><path style="fill:#fff" d="M9,20 l0,459 -2,0 0,-459 2,0z" /><path style="fill:none;stroke:#4c4c4c;stroke-width:2" d="M15,20 l0,459 -15,0 0,-459 15,0" /><path style="fill:#99c" d="M903,91 l20,0 0,20 -20,0 0,-20z" /><path style="fill:#99c" d="M842,91 l21,0 0,20 -21,0 0,-20z" /><path style="fill:#99c" d="M782,91 l40,0 0,20 -40,0 0,-20z" /><path style="fill:#99c" d="M721,91 l41,0 0,20 -41,0 0,-20z" /><path style="fill:#99c" d="M787,125 l35,0 0,20 -35,0 0,-20z" /><path style="fill:#e5e5e5" d="M547,191 l29,0 0,99 44,0 0,32 -73,0 0,-131z" /><path style="fill:#e50000" d="M378,120 l0,10 10,0 0,10 10,0 0,10 10,0 0,10 76,0 5,15 20,0 5,-15 76,0 0,-10 10,0 0,-10 10,0 0,-10 10,0 0,-10 -116,0 0,-9 -10,0 0,9 -116,0z" /><path style="fill:#7f7f7f" d="M999,20 l0,459 -16,0 0,-459 16,0z" /><path style="fill:#999" d="M997,20 l0,459 -13,0 0,-459 13,0z" /><path style="fill:#b2b2b2" d="M995,20 l0,459 -10,0 0,-459 10,0z" /><path style="fill:#ccc" d="M995,20 l0,459 -7,0 0,-459 7,0z" /><path style="fill:#e5e5e5" d="M994,20 l0,459 -5,0 0,-459 5,0z" /><path style="fill:#fff" d="M991,20 l0,459 -2,0 0,-459 2,0z" /><path style="fill:none;stroke:#4c4c4c;stroke-width:2" d="M999,20 l0,459 -16,0 0,-459 16,0" /><path style="fill:#f00" d="M398,120 l0,30 10,0 0,10 10,0 0,-40 -20,0z" /><path style="fill:#f00" d="M600,120 l0,30 -10,0 0,10 -10,0 0,-40 20,0z" /><path style="fill:#f00" d="M539,120 l0,40 -20,0 0,-40 20,0z" /><path style="fill:#f00" d="M479,120 l0,40 -20,0 0,-40 20,0z" /><path style="fill:#fff;fill-rule:evenodd" d="M418,301 l-8,0 -5,21 -7,0 0,-82 12,-49 8,0 0,110z M418,272 l0,-11 -2,11 2,0z " /><path style="fill:#fff" d="M459,322 l0,-71 18,71 -18,0z" /><path style="fill:#fff" d="M471,191 l8,0 0,131 -8,0 0,-131z" /><path style="fill:#fff" d="M519,220 l0,-29 1,0 2,-1 3,0 4,1 4,1 3,1 2,3 1,3 0,65 -1,1 -2,2 -3,1 -4,2 -4,1 -3,2 -2,0 -1,-1 0,-27 2,-12 -2,-13z" /><path style="fill:#fff" d="M580,290 l20,0 0,32 -20,0 0,-32z" /><path style="fill:#e5e5e5" d="M443,301 l-33,0 -5,21 -29,0 35,-131 32,0 34,131 -30,0 -4,-21z" /><path style="fill:#339" d="M436,272 l-10,-47 -10,47 20,0z" /><path style="fill:#e5e5e5" d="M471,191 l48,0 10,2 8,4 7,7 4,11 2,12 -1,14 -3,12 -5,9 -7,7 -11,4 -8,0 -15,0 0,49 -29,0 0,-131z" /><path style="fill:#339" d="M500,247 l7,0 9,-3 5,-7 1,-3 -2,-10 -2,-3 -8,-3 -10,0 0,29z" /></svg>