<!DOCTYPE svg PUBLIC "-//W3C//DTD SVG 20000303 Stylable//EN" "http://www.w3.org/TR/2000/03/WD-SVG-20000303/DTD/svg-20000303-stylable.dtd"[]><svg width="999px" height="522px" viewBox="0 0 999 494" xmlns="http://www.w3.org/2000/svg"><path style="fill:#4c4cb2" d="M45,4 l908,0 0,-4 31,0 0,494 -31,0 0,-5 -907,0 0,5 -31,0 0,-494 31,0 -1,4z" /><path style="fill:#4747ad" d="M45,308 l908,-203 0,384 -908,0 0,-181z" /><path style="fill:#4242a8" d="M45,357 l908,-203 0,335 -908,0 0,-132z" /><path style="fill:#3b3ba1" d="M45,399 l908,-203 0,293 -908,0 0,-90z" /><path style="fill:#19197f" d="M45,448 l908,0 0,15 -908,0 0,-15z" /><path style="fill:#003" d="M625,453 l81,0 0,36 -81,0 0,-36z" /><path style="fill:#003" d="M297,453 l81,0 0,36 -81,0 0,-36z" /><path style="fill:#339" d="M903,30 l40,0 0,413 -40,0 0,-413z" /><path style="fill:#339" d="M842,30 l41,0 0,413 -41,0 0,-413z" /><path style="fill:#339" d="M782,30 l40,0 0,413 -40,0 0,-413z" /><path style="fill:#339" d="M721,30 l41,0 0,413 -41,0 0,-413z" /><path style="fill:#339" d="M660,30 l41,0 0,413 -41,0 0,-413z" /><path style="fill:#339" d="M600,30 l40,0 0,413 -40,0 0,-413z" /><path style="fill:#339" d="M539,30 l41,0 0,413 -41,0 0,-413z" /><path style="fill:#339" d="M479,30 l40,0 0,413 -40,0 0,-413z" /><path style="fill:#339" d="M418,30 l41,0 0,413 -41,0 0,-413z" /><path style="fill:#339" d="M358,30 l40,0 0,413 -40,0 0,-413z" /><path style="fill:#339" d="M297,30 l41,0 0,413 -41,0 0,-413z" /><path style="fill:#339" d="M237,30 l40,0 0,413 -40,0 0,-413z" /><path style="fill:#339" d="M176,30 l40,0 0,413 -40,0 0,-413z" /><path style="fill:#339" d="M116,30 l40,0 0,413 -40,0 0,-413z" /><path style="fill:#339" d="M55,30 l40,0 0,413 -40,0 0,-413z" /><path style="fill:#003" d="M45,489 l908,0 0,5 -908,0 0,-5z" /><path style="fill:none;stroke:#4c4c4c;stroke-width:2" d="M45,4 l908,0 0,-4 31,0 0,494 -31,0 0,-5 -907,0 0,5 -31,0 0,-494 31,0 -1,4" /><path style="fill:none;stroke:#4c4c4c;stroke-width:2" d="M45,489 l0,-485" /><path style="fill:none;stroke:#4c4c4c;stroke-width:2" d="M953,489 l0,-485" /><path style="fill:#19197f" d="M55,30 l40,0 0,5 -40,0 0,-5z" /><path style="fill:#19197f" d="M116,30 l40,0 0,5 -40,0 0,-5z" /><path style="fill:#19197f" d="M176,30 l40,0 0,5 -40,0 0,-5z" /><path style="fill:#19197f" d="M237,30 l40,0 0,5 -40,0 0,-5z" /><path style="fill:#19197f" d="M297,30 l41,0 0,5 -41,0 0,-5z" /><path style="fill:#19197f" d="M358,30 l40,0 0,5 -40,0 0,-5z" /><path style="fill:#19197f" d="M418,30 l41,0 0,5 -41,0 0,-5z" /><path style="fill:#19197f" d="M479,30 l40,0 0,5 -40,0 0,-5z" /><path style="fill:#19197f" d="M539,30 l41,0 0,5 -41,0 0,-5z" /><path style="fill:#19197f" d="M600,30 l40,0 0,5 -40,0 0,-5z" /><path style="fill:#19197f" d="M660,30 l41,0 0,5 -41,0 0,-5z" /><path style="fill:#19197f" d="M721,30 l41,0 0,5 -41,0 0,-5z" /><path style="fill:#19197f" d="M782,30 l40,0 0,5 -40,0 0,-5z" /><path style="fill:#19197f" d="M842,30 l41,0 0,5 -41,0 0,-5z" /><path style="fill:#19197f" d="M903,30 l40,0 0,5 -40,0 0,-5z" /><path style="fill:none;stroke:#ccf;stroke-width:2" d="M903,443 l0,-413" /><path style="fill:none;stroke:#ccf;stroke-width:2" d="M55,443 l0,-413" /><path style="fill:none;stroke:#ccf;stroke-width:2" d="M116,443 l0,-413" /><path style="fill:none;stroke:#ccf;stroke-width:2" d="M176,443 l0,-413" /><path style="fill:none;stroke:#ccf;stroke-width:2" d="M237,443 l0,-413" /><path style="fill:none;stroke:#ccf;stroke-width:2" d="M297,443 l0,-413" /><path style="fill:none;stroke:#ccf;stroke-width:2" d="M358,443 l0,-413" /><path style="fill:none;stroke:#ccf;stroke-width:2" d="M418,443 l0,-413" /><path style="fill:none;stroke:#ccf;stroke-width:2" d="M479,443 l0,-413" /><path style="fill:none;stroke:#ccf;stroke-width:2" d="M539,443 l0,-413" /><path style="fill:none;stroke:#ccf;stroke-width:2" d="M600,443 l0,-413" /><path style="fill:none;stroke:#ccf;stroke-width:2" d="M660,443 l0,-413" /><path style="fill:none;stroke:#ccf;stroke-width:2" d="M721,443 l0,-413" /><path style="fill:none;stroke:#ccf;stroke-width:2" d="M782,443 l0,-413" /><path style="fill:none;stroke:#ccf;stroke-width:2" d="M842,443 l0,-413" /><path style="fill:#a6a6d9" d="M883,90 l20,0 0,20 -20,0 0,-20z" /><path style="fill:#a6a6d9" d="M822,126 l15,0 0,20 -15,0 0,-20z" /><path style="fill:#a6a6d9" d="M822,90 l20,0 0,20 -20,0 0,-20z" /><path style="fill:#a6a6d9" d="M761,90 l21,0 0,20 -21,0 0,-20z" /><path style="fill:#a6a6d9" d="M701,90 l20,0 0,20 -20,0 0,-20z" /><path style="fill:#7f7f7f" d="M15,20 l0,459 -15,0 0,-459 15,0z" /><path style="fill:#999" d="M14,20 l0,459 -14,0 0,-459 14,0z" /><path style="fill:#b2b2b2" d="M12,20 l0,459 -10,0 0,-459 10,0z" /><path style="fill:#ccc" d="M10,20 l0,459 -6,0 0,-459 6,0z" /><path style="fill:#e5e5e5" d="M9,20 l0,459 -4,0 0,-459 4,0z" /><path style="fill:#fff" d="M8,20 l0,459 -2,0 0,-459 2,0z" /><path style="fill:none;stroke:#4c4c4c;stroke-width:2" d="M15,20 l0,459 -15,0 0,-459 15,0" /><path style="fill:#99c" d="M903,90 l20,0 0,20 -20,0 0,-20z" /><path style="fill:#99c" d="M842,90 l20,0 0,20 -20,0 0,-20z" /><path style="fill:#99c" d="M782,90 l40,0 0,20 -40,0 0,-20z" /><path style="fill:#99c" d="M721,90 l41,0 0,20 -41,0 0,-20z" /><path style="fill:#99c" d="M787,125 l35,0 0,20 -35,0 0,-20z" /><path style="fill:#7f7f7f" d="M999,20 l0,459 -16,0 0,-459 16,0z" /><path style="fill:#999" d="M998,20 l0,459 -14,0 0,-459 14,0z" /><path style="fill:#b2b2b2" d="M996,20 l0,459 -10,0 0,-459 10,0z" /><path style="fill:#ccc" d="M994,20 l0,459 -6,0 0,-459 6,0z" /><path style="fill:#e5e5e5" d="M993,20 l0,459 -4,0 0,-459 4,0z" /><path style="fill:#fff" d="M992,20 l0,459 -2,0 0,-459 2,0z" /><path style="fill:none;stroke:#4c4c4c;stroke-width:2" d="M999,20 l0,459 -16,0 0,-459 16,0" /></svg>