<!DOCTYPE svg PUBLIC "-//W3C//DTD SVG 20000303 Stylable//EN" "http://www.w3.org/TR/2000/03/WD-SVG-20000303/DTD/svg-20000303-stylable.dtd"[]><svg width="999px" height="370px" viewBox="0 0 998 332" xmlns="http://www.w3.org/2000/svg"><path style="fill:#999;stroke:#4c4c4c;stroke-width:2" d="M549,41 l9,-31 36,0 0,31 9,0 0,-36 -4,-5 -46,0 -4,5 -9,36 9,0z" /><path style="fill:#999;stroke:#4c4c4c;stroke-width:2" d="M449,41 l-9,-31 -36,0 0,31 -9,0 0,-36 4,-5 46,0 4,5 9,36 -9,0z" /><path style="fill:#000" d="M166,265 l645,0 0,5 -645,0 0,-5z" /><path style="fill:#000" d="M31,280 l158,0 0,-21 -158,0 0,21z" /><path style="fill:#000" d="M795,280 l158,0 0,-15 -158,0 0,15z" /><path style="fill:#333" d="M812,280 l124,0 0,36 -124,0 0,-36z" /><path style="fill:#333" d="M47,280 l124,0 0,36 -124,0 0,-36z" /><path style="fill:#999;stroke:#4c4c4c;stroke-width:2" d="M478,275 l333,0 0,5 -333,0 0,-5z" /><circle style="fill:#191919" cx="54" cy="298" r="34" /><circle style="fill:#191919" cx="163" cy="298" r="33" /><circle style="fill:#191919" cx="928" cy="298" r="34" /><circle style="fill:#191919" cx="818" cy="298" r="34" /><path style="fill:#339" d="M31,265 l-9,-8 -9,-15 -6,-21 -5,-26 -2,-30 0,-30 2,-29 5,-26 6,-21 9,-15 9,-8 936,0 9,8 8,15 7,21 5,26 2,29 0,30 -2,30 -5,26 -7,21 -8,15 -9,8 -936,0z" /><path style="fill:#38389e" d="M29,255 l-9,-7 -8,-14 -6,-19 -4,-24 -2,-27 0,-28 2,-27 4,-23 6,-20 8,-14 9,-7 940,0 9,7 8,14 6,20 4,23 2,27 0,28 -2,27 -4,24 -6,19 -8,14 -9,7 -940,0z" /><path style="fill:#3d3da3" d="M27,246 l-9,-7 -7,-12 -5,-18 -4,-22 -2,-24 0,-25 2,-25 4,-22 5,-17 7,-13 9,-7 945,0 8,7 7,13 6,17 3,22 2,25 0,25 -2,24 -3,22 -6,18 -7,12 -8,7 -945,0z" /><path style="fill:#4040a6" d="M24,236 l-8,-6 -6,-11 -5,-16 -4,-20 -1,-22 0,-22 1,-22 4,-20 5,-16 6,-11 8,-6 950,0 8,6 6,11 5,16 4,20 1,22 0,22 -1,22 -4,20 -5,16 -6,11 -8,6 -950,0z" /><path style="fill:#4545ab" d="M22,227 l-8,-6 -5,-10 -5,-14 -3,-17 -1,-20 0,-20 1,-20 3,-17 5,-14 5,-10 8,-6 955,0 7,6 6,10 4,14 3,17 1,20 0,20 -1,20 -3,17 -4,14 -6,10 -7,6 -955,0z" /><path style="fill:#4a4ab0" d="M19,217 l-7,-4 -5,-9 -3,-13 -3,-15 -1,-17 0,-18 1,-17 3,-15 3,-13 5,-9 7,-4 960,0 7,4 5,9 4,13 2,15 1,17 0,18 -1,17 -2,15 -4,13 -5,9 -7,4 -960,0z" /><path style="fill:#4f4fb5" d="M17,208 l-7,-4 -4,-8 -3,-11 -2,-13 -1,-14 0,-16 1,-14 2,-13 3,-11 4,-8 7,-4 964,0 8,4 3,8 3,11 2,13 1,14 0,16 -1,14 -2,13 -3,11 -3,8 -8,4 -964,0z" /><path style="fill:#5454ba" d="M15,198 l-7,-3 -3,-6 -3,-9 -2,-11 0,-13 0,-12 0,-13 2,-11 3,-9 3,-6 7,-3 969,0 7,3 3,6 2,9 2,11 0,13 0,12 0,13 -2,11 -2,9 -3,6 -7,3 -969,0z" /><path style="fill:#5959bf" d="M12,189 l-6,-3 -3,-5 -1,-7 -2,-9 0,-10 0,-10 0,-10 2,-9 1,-7 3,-5 6,-3 974,0 7,3 2,5 2,7 1,9 0,10 0,10 0,10 -1,9 -2,7 -2,5 -7,3 -974,0z" /><path style="fill:#5c5cc2" d="M10,179 l-6,-2 -2,-3 -1,-6 -1,-7 0,-7 0,-8 0,-7 1,-7 1,-5 2,-4 6,-2 979,0 6,2 1,4 1,5 1,7 0,7 0,8 0,7 -1,7 -1,6 -1,3 -6,2 -979,0z" /><path style="fill:#6161c7" d="M7,170 l-5,-1 -1,-3 -1,-4 0,-4 0,-5 0,-6 0,-5 0,-4 1,-4 1,-2 5,-2 984,0 6,2 0,2 1,4 0,4 0,5 0,6 0,5 0,4 -1,4 0,3 -6,1 -984,0z" /><path style="fill:#66c" d="M5,161 l-5,-1 0,-1 0,-2 0,-3 0,-2 0,-3 0,-3 0,-2 0,-2 0,-1 5,-1 988,0 5,1 0,1 0,2 0,2 0,3 0,3 0,2 0,3 0,2 0,1 -5,1 -988,0z" /><path style="fill:#4c4c4c;stroke:#4c4c4c;stroke-width:2" d="M77,301 l0,10 -16,11 -15,0 -15,-11 0,-10 46,0z" /><path style="fill:#4c4c4c;stroke:#4c4c4c;stroke-width:2" d="M182,283 l7,8 -4,18 -11,11 -18,4 -7,-8 33,-33z" /><path style="fill:#4c4c4c;stroke:#4c4c4c;stroke-width:2" d="M842,301 l0,10 -16,11 -16,0 -15,-11 0,-10 47,0z" /><path style="fill:#4c4c4c;stroke:#4c4c4c;stroke-width:2" d="M946,283 l7,8 -3,18 -11,11 -19,4 -7,-8 33,-33z" /><path style="fill:#7f7f7f;stroke:#4c4c4c;stroke-width:2" d="M910,313 l-8,-8 4,-18 11,-11 18,-4 8,8 -33,33z" /><path style="fill:#7f7f7f;stroke:#4c4c4c;stroke-width:2" d="M795,296 l0,-11 16,-10 15,0 16,10 0,11 -47,0z" /><path style="fill:#7f7f7f;stroke:#4c4c4c;stroke-width:2" d="M31,296 l0,-11 16,-10 15,0 15,10 0,11 -46,0z" /><path style="fill:#7f7f7f;stroke:#4c4c4c;stroke-width:2" d="M145,313 l-7,-8 4,-18 10,-11 19,-4 7,8 -33,33z" /><path style="fill:none;stroke:#4c4c4c;stroke-width:2" d="M31,265 l-9,-8 -9,-15 -6,-21 -5,-26 -2,-30 0,-30 2,-29 5,-26 6,-21 9,-15 9,-8 936,0 9,8 8,15 7,21 5,26 2,29 0,30 -2,30 -5,26 -7,21 -8,15 -9,8 -936,0" /><path style="fill:none;stroke:#039;stroke-width:2" d="M840,36 l7,8 6,15 5,21 3,26 2,29 0,30 -2,30 -3,26 -5,21 -6,15 -7,8" /><path style="fill:none;stroke:#039;stroke-width:2" d="M158,265 l-7,-8 -6,-15 -5,-21 -4,-26 -1,-30 0,-30 1,-29 4,-26 5,-21 6,-15 7,-8" /><path style="fill:none;stroke:#039;stroke-width:2" d="M694,36 l4,8 3,15 3,21 2,26 1,29 0,30 -1,30 -2,26 -3,21 -3,15 -4,8" /><path style="fill:none;stroke:#039;stroke-width:2" d="M304,265 l-4,-8 -3,-15 -3,-21 -2,-26 -1,-30 0,-30 1,-29 2,-26 3,-21 3,-15 4,-8" /><path style="fill:none;stroke:#b2b2b2;stroke-width:2" d="M712,213 l42,0 0,21 -42,0 0,-21" /><path style="fill:#99f" d="M111,197 l42,0 6,21 -42,0 -6,-21z" /><path style="fill:#99f" d="M163,197 l27,0 5,21 -26,0 -6,-21z" /><path style="fill:#99f" d="M194,197 l48,0 5,21 -47,0 -6,-21z" /><path style="fill:#99f" d="M109,187 l62,0 2,5 -63,0 -1,-5z" /><path style="fill:#99f" d="M118,223 l103,0 1,2 -103,0 -1,-2z" /><path style="fill:#99f" d="M120,228 l84,0 1,3 -84,0 -1,-3z" /><path style="fill:#99f" d="M816,130 l42,0 0,5 -42,0 0,-5z" /><path style="fill:#99f" d="M868,130 l73,0 0,5 -73,0 0,-5z" /><path style="fill:#ccc;stroke:#4c4c4c;stroke-width:2" d="M442,41 l-11,-31 -41,0 0,31 -11,0 0,-36 5,-5 53,0 5,5 10,36 -10,0z" /><path style="fill:#ccc;stroke:#4c4c4c;stroke-width:2" d="M556,41 l10,-31 42,0 0,31 10,0 0,-36 -5,-5 -52,0 -5,5 -10,36 10,0z" /><path style="fill:#999" d="M478,183 l42,0 0,5 -42,0 0,-5z" /><path style="fill:#999" d="M478,154 l42,0 0,6 -42,0 0,-6z" /><path style="fill:#999" d="M478,125 l42,0 0,6 -42,0 0,-6z" /><path style="fill:#999" d="M478,96 l42,0 0,5 -42,0 0,-5z" /><path style="fill:#999" d="M483,67 l31,0 0,6 -31,0 0,-6z" /><path style="fill:#999" d="M478,212 l42,0 0,6 -42,0 0,-6z" /><path style="fill:#999" d="M478,241 l42,0 0,5 -42,0 0,-5z" /><path style="fill:#999" d="M483,269 l31,0 0,6 -31,0 0,-6z" /><path style="fill:#b2b2b2;stroke:#4c4c4c;stroke-width:2" d="M513,291 l6,-26 4,-42 2,-52 -2,-52 -4,-42 -6,-26 -3,0 5,26 4,42 2,52 -2,52 -4,42 -5,26 3,0z" /><path style="fill:#b2b2b2;stroke:#4c4c4c;stroke-width:2" d="M485,291 l-6,-26 -4,-42 -2,-52 2,-52 4,-42 6,-26 4,0 -6,26 -4,42 -2,52 2,52 4,42 6,26 -4,0z" /><path style="fill:#4c4c4c" d="M379,57 l239,0 0,-6 -239,0 0,6z" /><path style="fill:#999;stroke:#4c4c4c;stroke-width:2" d="M374,41 l250,0 0,10 -250,0 0,-10z" /><path style="fill:#e5cb65" d="M587,176 l42,0 0,21 -42,0 0,-21z" /><path style="fill:none;stroke:#039;stroke-width:2" d="M562,36 l1,8 1,15 1,21 1,26 0,29 0,30 0,30 -1,26 -1,21 -1,15 -1,8" /><path style="fill:none;stroke:#039;stroke-width:2" d="M436,265 l-2,-8 -1,-15 -1,-21 0,-26 -1,-30 0,-30 1,-29 0,-26 1,-21 1,-15 2,-8" /><path style="fill:#999;stroke:#4c4c4c;stroke-width:2" d="M374,254 l250,0 0,5 -250,0 0,-5z" /><path style="fill:#72727f" d="M458,36 l0,-22 83,0 0,22 -83,0z" /><path style="fill:#7f7f8c" d="M461,36 l0,-22 76,0 0,22 -76,0z" /><path style="fill:#8c8c99" d="M465,36 l0,-22 68,0 0,22 -68,0z" /><path style="fill:#9999a6" d="M469,36 l0,-22 60,0 0,22 -60,0z" /><path style="fill:#a5a5b2" d="M472,36 l0,-22 54,0 0,22 -54,0z" /><path style="fill:#b2b2bf" d="M476,36 l0,-22 46,0 0,22 -46,0z" /><path style="fill:#bfbfcc" d="M480,36 l0,-22 38,0 0,22 -38,0z" /><path style="fill:#ccccd9" d="M484,36 l0,-22 31,0 0,22 -31,0z" /><path style="fill:#d8d8e5" d="M487,36 l0,-22 24,0 0,22 -24,0z" /><path style="fill:#e5e5f2" d="M491,36 l0,-22 16,0 0,22 -16,0z" /><path style="fill:#f2f2ff" d="M495,36 l0,-22 9,0 0,22 -9,0z" /><path style="fill:none;stroke:#4c4c4c;stroke-width:2" d="M458,36 l0,-22 83,0 0,22 -83,0" /></svg>