<!DOCTYPE svg PUBLIC "-//W3C//DTD SVG 20000303 Stylable//EN" "http://www.w3.org/TR/2000/03/WD-SVG-20000303/DTD/svg-20000303-stylable.dtd"[]><svg width="999px" height="525px" viewBox="0 0 998 497" xmlns="http://www.w3.org/2000/svg"><path style="fill:#006" d="M35,25 l0,472 943,0 0,-453 -19,0 0,69 -54,-69 -25,0 79,99 0,319 -54,0 54,-68 0,-30 -79,98 -746,0 -79,-98 0,30 54,68 -54,0 0,-319 79,-99 -25,0 -54,69 0,-69 923,0 0,-19 -943,0z" /><path style="fill:#666;stroke:#4c4c4c;stroke-width:2" d="M0,415 l66,0 0,46 -66,0 0,-46z" /><path style="fill:#b2b2e5" d="M933,466 l-14,15 -824,0 -15,-15 -12,-29 -11,-42 -7,-51 -4,-56 0,-59 4,-57 7,-51 10,-41 13,-29 15,-15 824,0 14,15 13,29 11,41 7,51 4,57 0,59 -4,56 -7,51 -11,42 -13,29z" /><path style="fill:#b8b8e8" d="M934,456 l-15,15 -824,0 -15,-15 -12,-28 -11,-39 -7,-49 -4,-54 0,-56 4,-54 7,-49 11,-39 12,-28 15,-15 824,0 15,15 12,28 11,39 7,49 4,54 0,56 -4,54 -7,49 -11,39 -12,28z" /><path style="fill:#bdbdeb" d="M934,446 l-15,14 -824,0 -15,-14 -12,-26 -11,-38 -7,-46 -4,-51 0,-54 4,-51 7,-46 11,-38 12,-26 15,-14 824,0 15,14 12,26 11,38 7,46 4,51 0,54 -4,51 -7,46 -11,38 -12,26z" /><path style="fill:#c4c4ed" d="M934,437 l-15,13 -824,0 -15,-13 -12,-25 -11,-36 -7,-44 -4,-49 0,-50 4,-49 7,-44 11,-36 12,-25 15,-13 824,0 15,13 12,25 11,36 7,44 4,49 0,50 -4,49 -7,44 -11,36 -12,25z" /><path style="fill:#cacaf0" d="M934,427 l-15,13 -824,0 -15,-13 -12,-24 -11,-33 -7,-42 -4,-46 0,-48 4,-46 7,-42 11,-33 12,-24 15,-13 824,0 15,13 12,24 11,33 7,42 4,46 0,48 -4,46 -7,42 -11,33 -12,24z" /><path style="fill:#cecef2" d="M934,418 l-15,12 -824,0 -15,-12 -12,-23 -11,-32 -7,-39 -4,-44 0,-44 4,-44 7,-39 11,-32 12,-23 15,-12 824,0 15,12 12,23 11,32 7,39 4,44 0,44 -4,44 -7,39 -11,32 -12,23z" /><path style="fill:#d1d1f2" d="M934,408 l-15,11 -824,0 -15,-11 -12,-21 -11,-30 -7,-37 -4,-41 0,-42 4,-41 7,-37 11,-30 12,-21 15,-11 824,0 15,11 12,21 11,30 7,37 4,41 0,42 -4,41 -7,37 -11,30 -12,21z" /><path style="fill:#d6d6f2" d="M934,399 l-15,10 -824,0 -15,-10 -12,-20 -11,-28 -7,-35 -4,-38 0,-40 4,-38 7,-35 11,-27 12,-20 15,-11 824,0 15,11 12,20 11,27 7,35 4,38 0,40 -4,38 -7,35 -11,28 -12,20z" /><path style="fill:#d8d8f2" d="M933,389 l-14,10 -824,0 -15,-10 -12,-19 -11,-26 -7,-32 -4,-35 0,-38 4,-35 7,-32 11,-26 12,-19 15,-10 824,0 14,10 13,19 11,26 7,32 4,35 0,38 -4,35 -7,32 -11,26 -13,19z" /><path style="fill:#dbdbf2" d="M933,379 l-14,9 -824,0 -14,-9 -13,-17 -11,-24 -7,-30 -4,-33 0,-34 4,-33 7,-30 11,-24 13,-17 14,-10 824,0 14,10 13,17 11,24 7,30 4,33 0,34 -4,33 -7,30 -11,24 -13,17z" /><path style="fill:#dedef2" d="M933,370 l-14,8 -824,0 -14,-8 -13,-16 -11,-22 -7,-28 -4,-30 0,-32 4,-30 8,-28 10,-22 13,-16 14,-8 824,0 14,8 13,16 11,22 7,28 4,30 0,32 -4,30 -7,28 -11,22 -13,16z" /><path style="fill:#e3e3f2" d="M933,360 l-14,8 -824,0 -14,-8 -13,-14 -11,-21 -7,-25 -4,-28 0,-29 4,-27 8,-26 10,-20 13,-14 14,-8 824,0 14,8 13,14 11,20 7,26 4,27 0,29 -4,28 -7,25 -11,21 -13,14z" /><path style="fill:#e5e5f2" d="M933,350 l-14,8 -824,0 -14,-8 -13,-12 -11,-19 -7,-22 -4,-26 0,-26 4,-26 8,-22 10,-18 13,-14 14,-7 824,0 14,7 13,14 11,18 7,22 4,26 0,26 -4,26 -7,22 -11,19 -13,12z" /><path style="fill:#e8e8f2" d="M933,341 l-14,6 -824,0 -14,-6 -13,-12 -11,-16 -7,-21 -4,-22 0,-24 4,-23 8,-20 10,-16 13,-12 14,-7 824,0 14,7 13,12 11,16 7,20 4,23 0,24 -4,22 -7,21 -11,16 -13,12z" /><path style="fill:#eaeaf2" d="M933,331 l-14,6 -824,0 -14,-6 -13,-10 -11,-14 -7,-19 -4,-20 0,-20 4,-21 8,-18 10,-14 13,-10 14,-6 824,0 14,6 13,10 11,14 7,18 4,21 0,20 -4,20 -7,19 -11,14 -13,10z" /><path style="fill:#efeff2" d="M933,321 l-14,6 -824,0 -14,-6 -13,-8 -11,-13 -7,-16 -4,-17 0,-18 4,-18 8,-15 10,-13 13,-9 14,-5 824,0 14,5 13,9 11,13 7,15 4,18 0,18 -4,17 -7,16 -11,13 -13,8z" /><path style="fill:#f2f2f2" d="M933,312 l-14,5 -824,0 -15,-5 -12,-7 -11,-11 -7,-13 -4,-15 0,-15 4,-15 7,-14 10,-10 13,-8 15,-5 824,0 14,5 13,8 10,10 8,14 4,15 0,15 -4,15 -7,13 -11,11 -13,7z" /><path style="fill:none;stroke:#4c4c4c;stroke-width:2" d="M933,466 l-14,15 -824,0 -15,-15 -12,-30 -11,-41 -7,-51 -4,-56 0,-59 4,-57 7,-51 10,-41 13,-29 15,-15 824,0 14,15 13,29 10,42 8,50 4,57 0,59 -4,56 -7,51 -11,42 -13,29" /><path style="fill:#999" d="M102,36 l16,0 0,445 -16,0 0,-445z" /><path style="fill:#999" d="M895,36 l16,0 0,445 -16,0 0,-445z" /><path style="fill:#9c9c9c" d="M896,48 l15,0 0,420 -15,0 0,-420z" /><path style="fill:#9c9c9c" d="M102,48 l16,0 0,420 -16,0 0,-420z" /><path style="fill:#9e9e9e" d="M102,60 l2,0 2,0 2,0 10,0 0,74 0,12 0,13 0,210 0,37 0,37 0,13 -2,0 -12,0 -2,0 0,-13 0,-62 1,-37 0,-198 -1,-37 0,-49z" /><path style="fill:#9e9e9e" d="M896,60 l2,0 1,0 2,0 10,0 0,74 0,12 0,13 0,210 0,37 0,37 0,13 -2,0 -11,0 -2,0 0,-13 0,-62 0,-37 0,-198 0,-37 0,-49z" /><path style="fill:#a3a3a3" d="M896,73 l15,0 0,370 -15,0 0,-370z" /><path style="fill:#a3a3a3" d="M102,73 l16,0 0,370 -16,0 0,-370z" /><path style="fill:#a6a6a6" d="M102,85 l16,0 0,346 -16,0 0,-346z" /><path style="fill:#a6a6a6" d="M896,85 l15,0 0,346 -15,0 0,-346z" /><path style="fill:#a8a8a8" d="M896,98 l15,0 0,321 -15,0 0,-321z" /><path style="fill:#a8a8a8" d="M102,98 l16,0 0,321 -16,0 0,-321z" /><path style="fill:#ababab" d="M102,110 l16,0 0,296 -16,0 0,-296z" /><path style="fill:#ababab" d="M896,110 l15,0 0,296 -15,0 0,-296z" /><path style="fill:#b0b0b0" d="M896,122 l15,0 0,272 -15,0 0,-272z" /><path style="fill:#b0b0b0" d="M102,122 l16,0 0,272 -16,0 0,-272z" /><path style="fill:#b2b2b2" d="M102,135 l16,0 0,246 -16,0 0,-246z" /><path style="fill:#b2b2b2" d="M896,135 l15,0 0,246 -15,0 0,-246z" /><path style="fill:#b5b5b5" d="M102,147 l16,0 0,222 -16,0 0,-222z" /><path style="fill:#b5b5b5" d="M896,147 l15,0 0,222 -15,0 0,-222z" /><path style="fill:#b8b8b8" d="M896,160 l15,0 0,196 -15,0 0,-196z" /><path style="fill:#b8b8b8" d="M102,160 l16,0 0,196 -16,0 0,-196z" /><path style="fill:#bdbdbd" d="M102,172 l16,0 0,171 -16,0 0,-171z" /><path style="fill:#bdbdbd" d="M896,172 l15,0 0,171 -15,0 0,-171z" /><path style="fill:#bfbfbf" d="M896,185 l15,0 0,146 -15,0 0,-146z" /><path style="fill:#bfbfbf" d="M102,185 l16,0 0,146 -16,0 0,-146z" /><path style="fill:#c2c2c2" d="M102,197 l16,0 0,122 -16,0 0,-122z" /><path style="fill:#c2c2c2" d="M896,197 l15,0 0,122 -15,0 0,-122z" /><path style="fill:#c4c4c4" d="M896,210 l15,0 0,96 -15,0 0,-96z" /><path style="fill:#c4c4c4" d="M102,210 l16,0 0,96 -16,0 0,-96z" /><path style="fill:#c9c9c9" d="M102,222 l16,0 0,72 -16,0 0,-72z" /><path style="fill:#c9c9c9" d="M896,222 l15,0 0,72 -15,0 0,-72z" /><path style="fill:#ccc" d="M895,235 l16,0 0,46 -16,0 0,-46z" /><path style="fill:#ccc" d="M102,235 l16,0 0,46 -16,0 0,-46z" /><path style="fill:#039" d="M317,292 l11,0 0,169 -11,0 0,-169z" /><path style="fill:#039" d="M686,292 l10,0 0,169 -10,0 0,-169z" /><path style="fill:#4c4c4c;stroke:#4c4c4c;stroke-width:2" d="M415,0 l184,0 0,36 -184,0 0,-36z" /><path style="fill:#000" d="M489,388 l36,0 0,8 -36,0 0,-8z" /><path style="fill:#000" d="M516,370 l5,0 4,17 -12,0 3,-17z" /><path style="fill:#f00" d="M524,367 l-8,-5 -12,-2 -11,5 -8,10 -2,12 5,12 10,7 12,2 12,-5 7,-10 2,-12 -5,-11 -2,-3 5,-5 7,10 2,8 0,8 -7,15 -12,9 -8,3 -8,0 -15,-6 -9,-13 -2,-8 0,-8 6,-15 12,-9 8,-2 8,0 15,6 3,2 -5,5z" /><path style="fill:#f00" d="M490,363 l38,38 -5,5 -38,-38 5,-5z" /><path style="fill:#e5e5e5;stroke:#ff0;stroke-width:2" d="M630,374 l30,0 0,41 -30,0 0,-41z" /><path style="fill:#000" d="M46,122 l10,0 0,323 -10,0 0,-323z" /><path style="fill:#339" d="M15,5 l0,492 983,0 0,-472 -20,0 0,72 -56,-72 -26,0 82,103 0,333 -56,0 56,-72 0,-31 -82,103 -778,-1 -82,-102 0,31 56,71 -56,0 0,-332 82,-103 -26,0 -56,72 0,-72 962,0 0,-20 -983,0z" /><path style="fill:none;stroke:#4c4c4c;stroke-width:2" d="M896,25 l82,103 0,230 -82,103 -778,0 -82,-103 0,-230 82,-103 778,0" /><path style="fill:none;stroke:#4c4c4c;stroke-width:2" d="M36,97 l0,-72 56,0 -56,72" /><path style="fill:none;stroke:#4c4c4c;stroke-width:2" d="M15,5 l983,0 0,492 -983,0 0,-492" /><path style="fill:none;stroke:#4c4c4c;stroke-width:2" d="M36,461 l0,-72 56,72 -56,0" /><path style="fill:none;stroke:#4c4c4c;stroke-width:2" d="M922,461 l56,-72 0,72 -56,0" /><path style="fill:none;stroke:#4c4c4c;stroke-width:2" d="M978,97 l-56,-72 56,0 0,72" /><path style="fill:none;stroke:#fff;stroke-width:2" d="M118,92 l348,-56" /><path style="fill:none;stroke:#99f;stroke-width:2" d="M118,97 l348,-57" /></svg>