<!DOCTYPE svg PUBLIC "-//W3C//DTD SVG 20000303 Stylable//EN" "http://www.w3.org/TR/2000/03/WD-SVG-20000303/DTD/svg-20000303-stylable.dtd"[]><svg width="999px" height="370px" viewBox="0 0 998 332" xmlns="http://www.w3.org/2000/svg"><path style="fill:#000" d="M166,265 l645,0 0,5 -645,0 0,-5z" /><path style="fill:#000" d="M31,280 l158,0 0,-21 -158,0 0,21z" /><path style="fill:#000" d="M795,280 l158,0 0,-15 -158,0 0,15z" /><path style="fill:#333" d="M812,280 l124,0 0,36 -124,0 0,-36z" /><path style="fill:#333" d="M47,280 l124,0 0,36 -124,0 0,-36z" /><path style="fill:#999;stroke:#4c4c4c;stroke-width:2" d="M478,275 l333,0 0,5 -333,0 0,-5z" /><path style="fill:#999;stroke:#4c4c4c;stroke-width:2" d="M549,41 l9,-31 36,0 0,31 9,0 0,-36 -4,-5 -46,0 -4,5 -9,36 9,0z" /><path style="fill:#999;stroke:#4c4c4c;stroke-width:2" d="M449,41 l-9,-31 -36,0 0,31 -9,0 0,-36 4,-5 46,0 4,5 9,36 -9,0z" /><circle style="fill:#191919" cx="54" cy="298" r="34" /><circle style="fill:#191919" cx="163" cy="298" r="33" /><circle style="fill:#191919" cx="928" cy="298" r="34" /><circle style="fill:#191919" cx="818" cy="298" r="34" /><path style="fill:#003" d="M31,265 l-9,-8 -9,-15 -6,-21 -5,-26 -2,-30 0,-30 2,-29 5,-26 6,-21 9,-15 9,-8 936,0 9,8 8,15 7,21 5,26 2,29 0,30 -2,30 -5,26 -7,21 -8,15 -9,8 -936,0z" /><path style="fill:#000038" d="M29,255 l-9,-7 -8,-14 -6,-19 -4,-24 -2,-27 0,-28 2,-27 4,-23 6,-20 8,-14 9,-7 940,0 9,7 8,14 6,20 4,23 2,27 0,28 -2,27 -4,24 -6,19 -8,14 -9,7 -940,0z" /><path style="fill:#00003d" d="M27,246 l-9,-7 -7,-12 -5,-18 -4,-22 -2,-24 0,-25 2,-25 4,-22 5,-17 7,-13 9,-7 945,0 8,7 7,13 6,17 3,22 2,25 0,25 -2,24 -3,22 -6,18 -7,12 -8,7 -945,0z" /><path style="fill:#000040" d="M24,236 l-8,-6 -6,-11 -5,-16 -4,-20 -1,-22 0,-22 1,-22 4,-20 5,-16 6,-11 8,-6 950,0 8,6 6,11 5,16 4,20 1,22 0,22 -1,22 -4,20 -5,16 -6,11 -8,6 -950,0z" /><path style="fill:#000045" d="M22,227 l-8,-6 -5,-10 -5,-14 -3,-17 -1,-20 0,-20 1,-20 3,-17 5,-14 5,-10 8,-6 955,0 7,6 6,10 4,14 3,17 1,20 0,20 -1,20 -3,17 -4,14 -6,10 -7,6 -955,0z" /><path style="fill:#00004a" d="M19,217 l-7,-4 -5,-9 -3,-13 -3,-15 -1,-17 0,-18 1,-17 3,-15 3,-13 5,-9 7,-4 960,0 7,4 5,9 4,13 2,15 1,17 0,18 -1,17 -2,15 -4,13 -5,9 -7,4 -960,0z" /><path style="fill:#00004f" d="M17,208 l-7,-4 -4,-8 -3,-11 -2,-13 -1,-14 0,-16 1,-14 2,-13 3,-11 4,-8 7,-4 964,0 8,4 3,8 3,11 2,13 1,14 0,16 -1,14 -2,13 -3,11 -3,8 -8,4 -964,0z" /><path style="fill:#000054" d="M15,198 l-7,-3 -3,-6 -3,-9 -2,-11 0,-13 0,-12 0,-13 2,-11 3,-9 3,-6 7,-3 969,0 7,3 3,6 2,9 2,11 0,13 0,12 0,13 -2,11 -2,9 -3,6 -7,3 -969,0z" /><path style="fill:#000059" d="M12,189 l-6,-3 -3,-5 -1,-7 -2,-9 0,-10 0,-10 0,-10 2,-9 1,-7 3,-5 6,-3 974,0 7,3 2,5 2,7 1,9 0,10 0,10 0,10 -1,9 -2,7 -2,5 -7,3 -974,0z" /><path style="fill:#00005c" d="M10,179 l-6,-2 -2,-3 -1,-6 -1,-7 0,-7 0,-8 0,-7 1,-7 1,-5 2,-4 6,-2 979,0 6,2 1,4 1,5 1,7 0,7 0,8 0,7 -1,7 -1,6 -1,3 -6,2 -979,0z" /><path style="fill:#000061" d="M7,170 l-5,-1 -1,-3 -1,-4 0,-4 0,-5 0,-6 0,-5 0,-4 1,-4 1,-2 5,-2 984,0 6,2 0,2 1,4 0,4 0,5 0,6 0,5 0,4 -1,4 0,3 -6,1 -984,0z" /><path style="fill:#006" d="M5,161 l-5,-1 0,-1 0,-2 0,-3 0,-2 0,-3 0,-3 0,-2 0,-2 0,-1 5,-1 988,0 5,1 0,1 0,2 0,2 0,3 0,3 0,2 0,3 0,2 0,1 -5,1 -988,0z" /><path style="fill:#b2b2b2" d="M614,257 l-4,8 -222,0 -4,-8 -4,-15 -3,-21 -2,-26 -1,-30 0,-30 1,-29 2,-26 3,-21 4,-16 4,-7 222,0 4,7 4,16 3,21 2,26 1,29 0,30 -1,30 -2,26 -4,21 -3,15z" /><path style="fill:#b8b8b8" d="M615,248 l-3,7 -225,0 -4,-7 -3,-14 -3,-19 -2,-24 -1,-27 0,-28 1,-27 2,-23 3,-20 3,-14 4,-7 225,0 3,7 4,14 2,20 2,23 1,27 0,28 -1,27 -2,24 -3,19 -3,14z" /><path style="fill:#bdbdbd" d="M616,239 l-3,7 -228,0 -3,-7 -3,-12 -2,-18 -2,-22 -1,-24 0,-25 1,-25 2,-22 2,-17 3,-13 3,-7 228,0 3,7 3,13 3,17 1,22 1,25 0,25 -1,24 -1,22 -3,18 -3,12z" /><path style="fill:#bfbfbf" d="M617,230 l-3,6 -230,0 -3,-6 -2,-11 -3,-16 -1,-20 -1,-22 0,-22 1,-22 1,-20 3,-16 2,-11 3,-6 230,0 3,6 3,11 2,16 1,20 1,22 0,22 -1,22 -1,20 -3,16 -2,11z" /><path style="fill:#c4c4c4" d="M618,222 l-3,5 -232,0 -3,-5 -2,-11 -2,-14 -1,-17 -1,-20 0,-20 1,-20 1,-17 2,-14 2,-11 3,-5 232,0 3,5 2,11 2,14 1,17 1,20 0,20 -1,20 -1,17 -2,14 -2,11z" /><path style="fill:#c9c9c9" d="M619,213 l-2,4 -235,0 -2,-4 -2,-9 -2,-13 -1,-15 -1,-17 0,-18 1,-17 1,-15 2,-13 2,-9 2,-4 235,0 2,4 2,9 1,13 1,15 1,17 0,18 -1,17 -1,15 -1,13 -2,9z" /><path style="fill:#cfcfcf" d="M620,204 l-2,4 -237,0 -2,-4 -2,-8 -1,-11 -1,-13 -1,-14 0,-16 1,-14 1,-13 1,-11 2,-8 2,-4 237,0 2,4 1,8 2,11 1,13 0,14 0,16 0,14 -1,13 -2,11 -1,8z" /><path style="fill:#d4d4d4" d="M620,195 l-1,3 -240,0 -1,-3 -1,-6 -2,-9 0,-11 -1,-13 0,-12 1,-13 0,-11 1,-9 2,-6 1,-3 240,0 1,3 2,6 1,9 1,11 0,13 0,12 0,13 -1,11 -1,9 -2,6z" /><path style="fill:#d9d9d9" d="M621,186 l-1,3 -242,0 -1,-3 -1,-5 -1,-7 0,-9 -1,-10 0,-10 1,-10 0,-9 1,-7 1,-5 1,-3 242,0 1,3 1,5 1,7 1,9 0,10 0,10 0,10 -1,9 -1,7 -1,5z" /><path style="fill:#dbdbdb" d="M622,177 l0,2 -245,0 -1,-2 -1,-3 0,-6 -1,-7 0,-7 0,-8 0,-7 1,-7 0,-5 1,-4 1,-2 245,0 0,2 1,4 0,5 1,7 0,7 0,8 0,7 -1,7 0,6 -1,3z" /><path style="fill:#e0e0e0" d="M623,169 l0,1 -247,0 -1,-1 0,-3 0,-4 -1,-4 0,-5 0,-6 0,-5 1,-4 0,-4 0,-2 1,-2 247,0 0,2 0,2 1,4 0,4 0,5 0,6 0,5 0,4 -1,4 0,3z" /><path style="fill:#e5e5e5" d="M624,160 l0,1 -250,0 0,-1 0,-1 0,-2 0,-3 0,-2 0,-3 0,-3 0,-2 0,-2 0,-1 0,-1 250,0 0,1 0,1 0,2 0,2 0,3 0,3 0,2 0,3 0,2 0,1z" /><path style="fill:none;stroke:#4c4c4c;stroke-width:2" d="M31,265 l-9,-8 -9,-15 -6,-21 -5,-26 -2,-30 0,-30 2,-29 5,-26 6,-21 9,-15 9,-8 936,0 9,8 8,15 7,21 5,26 2,29 0,30 -2,30 -5,26 -7,21 -8,15 -9,8 -936,0" /><path style="fill:#7f7f7f" d="M458,36 l0,-21 83,0 0,21 -83,0z" /><path style="fill:#8c8c8c" d="M461,36 l0,-21 76,0 0,21 -76,0z" /><path style="fill:#999" d="M465,36 l0,-21 68,0 0,21 -68,0z" /><path style="fill:#a6a6a6" d="M469,36 l0,-21 60,0 0,21 -60,0z" /><path style="fill:#b2b2b2" d="M472,36 l0,-21 54,0 0,21 -54,0z" /><path style="fill:#bfbfbf" d="M476,36 l0,-21 46,0 0,21 -46,0z" /><path style="fill:#ccc" d="M480,36 l0,-21 38,0 0,21 -38,0z" /><path style="fill:#d9d9d9" d="M484,36 l0,-21 31,0 0,21 -31,0z" /><path style="fill:#e5e5e5" d="M487,36 l0,-21 24,0 0,21 -24,0z" /><path style="fill:#f2f2f2" d="M491,36 l0,-21 16,0 0,21 -16,0z" /><path style="fill:#fff" d="M495,36 l0,-21 9,0 0,21 -9,0z" /><path style="fill:none;stroke:#4c4c4c;stroke-width:2" d="M458,36 l0,-21 83,0 0,21 -83,0" /><path style="fill:#ccc;stroke:#4c4c4c;stroke-width:2" d="M442,41 l-11,-31 -41,0 0,31 -11,0 0,-36 5,-5 53,0 5,5 10,36 -10,0z" /><path style="fill:#ccc;stroke:#4c4c4c;stroke-width:2" d="M556,41 l10,-31 42,0 0,31 10,0 0,-36 -5,-5 -52,0 -5,5 -10,36 10,0z" /><path style="fill:#999;stroke:#4c4c4c;stroke-width:2" d="M374,254 l250,0 0,5 -250,0 0,-5z" /><path style="fill:#999" d="M478,183 l42,0 0,5 -42,0 0,-5z" /><path style="fill:#999" d="M478,154 l42,0 0,6 -42,0 0,-6z" /><path style="fill:#999" d="M478,125 l42,0 0,6 -42,0 0,-6z" /><path style="fill:#999" d="M478,96 l42,0 0,5 -42,0 0,-5z" /><path style="fill:#999" d="M483,67 l31,0 0,6 -31,0 0,-6z" /><path style="fill:#999" d="M478,212 l42,0 0,6 -42,0 0,-6z" /><path style="fill:#999" d="M478,241 l42,0 0,5 -42,0 0,-5z" /><path style="fill:#999" d="M483,269 l31,0 0,6 -31,0 0,-6z" /><path style="fill:#b2b2b2;stroke:#4c4c4c;stroke-width:2" d="M513,291 l6,-26 4,-42 2,-52 -2,-52 -4,-42 -6,-26 -3,0 5,26 4,42 2,52 -2,52 -4,42 -5,26 3,0z" /><path style="fill:#b2b2b2;stroke:#4c4c4c;stroke-width:2" d="M485,291 l-6,-26 -4,-42 -2,-52 2,-52 4,-42 6,-26 4,0 -6,26 -4,42 -2,52 2,52 4,42 6,26 -4,0z" /><path style="fill:#4c4c4c" d="M379,57 l239,0 0,-6 -239,0 0,6z" /><path style="fill:#999;stroke:#4c4c4c;stroke-width:2" d="M374,41 l250,0 0,10 -250,0 0,-10z" /><path style="fill:#666" d="M62,197 l10,0 0,11 -10,0 0,-11z" /><path style="fill:#666" d="M78,197 l10,0 0,11 -10,0 0,-11z" /><path style="fill:#666" d="M93,197 l10,0 0,11 -10,0 0,-11z" /><path style="fill:#666" d="M124,197 l11,0 0,11 -11,0 0,-11z" /><path style="fill:#666" d="M140,197 l10,0 0,11 -10,0 0,-11z" /><path style="fill:#666" d="M156,197 l10,0 0,11 -10,0 0,-11z" /><path style="fill:#666" d="M171,197 l11,0 0,11 -11,0 0,-11z" /><path style="fill:#f60" d="M36,124 l5,0 0,52 -5,0 0,-52z" /><path style="fill:#f60" d="M270,135 l5,0 0,31 -5,0 0,-31z" /><path style="fill:#f60" d="M957,124 l5,0 0,52 -5,0 0,-52z" /><path style="fill:#f60" d="M723,135 l5,0 0,31 -5,0 0,-31z" /><path style="fill:#f60" d="M598,135 l5,0 0,31 -5,0 0,-31z" /><path style="fill:#f60" d="M395,135 l5,0 0,31 -5,0 0,-31z" /><path style="fill:none;stroke:#339;stroke-width:2" d="M31,259 l0,-218" /><path style="fill:none;stroke:#339;stroke-width:2" d="M967,259 l0,-218" /><path style="fill:#4c4c4c;stroke:#4c4c4c;stroke-width:2" d="M77,301 l0,10 -16,11 -15,0 -15,-11 0,-10 46,0z" /><path style="fill:#4c4c4c;stroke:#4c4c4c;stroke-width:2" d="M182,283 l7,8 -4,18 -11,11 -18,4 -7,-8 33,-33z" /><path style="fill:#4c4c4c;stroke:#4c4c4c;stroke-width:2" d="M842,301 l0,10 -16,11 -16,0 -15,-11 0,-10 47,0z" /><path style="fill:#4c4c4c;stroke:#4c4c4c;stroke-width:2" d="M946,283 l7,8 -3,18 -11,11 -19,4 -7,-8 33,-33z" /><path style="fill:#7f7f7f;stroke:#4c4c4c;stroke-width:2" d="M910,313 l-8,-8 4,-18 11,-11 18,-4 8,8 -33,33z" /><path style="fill:#7f7f7f;stroke:#4c4c4c;stroke-width:2" d="M795,296 l0,-11 16,-10 15,0 16,10 0,11 -47,0z" /><path style="fill:#7f7f7f;stroke:#4c4c4c;stroke-width:2" d="M31,296 l0,-11 16,-10 15,0 15,10 0,11 -46,0z" /><path style="fill:#7f7f7f;stroke:#4c4c4c;stroke-width:2" d="M145,313 l-7,-8 4,-18 10,-11 19,-4 7,8 -33,33z" /></svg>