<!DOCTYPE svg PUBLIC "-//W3C//DTD SVG 1.1//EN" "http://www.w3.org/Graphics/SVG/1.1/DTD/svg11.dtd"[]><svg version="1.1" xmlns="http://www.w3.org/2000/svg" xmlns:xlink="http://www.w3.org/1999/xlink" width="112px" height="47px" viewBox="0 0 112.5 47.182" enable-background="new 0 0 112.5 47.182" xml:space="preserve">
<g id="Group_SuctionFlange">
	<linearGradient id="SVGID_1_" gradientUnits="userSpaceOnUse" x1="109.6807" y1="44.4795" x2="109.6807" y2="13.6255">
		<stop offset="0" style="stop-color:#383838" />
		<stop offset="0.45" style="stop-color:#ECECEC" />
		<stop offset="0.55" style="stop-color:#D9D9D9" />
		<stop offset="0.76" style="stop-color:#A8A8A8" />
		<stop offset="0.77" style="stop-color:#A6A6A6" />
		<stop offset="1" style="stop-color:#383838" />
	</linearGradient>
	<path fill="url(#SVGID_1_)" d="M108.217,13.625h2.928v30.854h-2.928V13.625" />
</g>
<g id="Group_PumpBody">
	<linearGradient id="SVGID_2_" gradientUnits="userSpaceOnUse" x1="87.3857" y1="45.8311" x2="87.3857" y2="12.2744">
		<stop offset="0" style="stop-color:#383838" />
		<stop offset="0.45" style="stop-color:#ECECEC" />
		<stop offset="0.55" style="stop-color:#D9D9D9" />
		<stop offset="0.76" style="stop-color:#A8A8A8" />
		<stop offset="0.77" style="stop-color:#A6A6A6" />
		<stop offset="1" style="stop-color:#383838" />
	</linearGradient>
	<path fill="url(#SVGID_2_)" d="M85.922,12.274h2.928v33.557h-2.928V12.274" />
	<linearGradient id="SVGID_3_" gradientUnits="userSpaceOnUse" x1="44.2578" y1="45.6045" x2="44.2578" y2="12.2744">
		<stop offset="0" style="stop-color:#383838" />
		<stop offset="0.45" style="stop-color:#ECECEC" />
		<stop offset="0.55" style="stop-color:#D9D9D9" />
		<stop offset="0.76" style="stop-color:#A8A8A8" />
		<stop offset="0.77" style="stop-color:#A6A6A6" />
		<stop offset="1" style="stop-color:#383838" />
	</linearGradient>
	<path fill="url(#SVGID_3_)" d="M10.926,45.604h55.626l11.036-2.702V14.977l-11.036-2.703H10.926V45.604z" />
	<path fill="#333333" d="M10.926,45.612h55.626v1.562H10.926V45.612z" />
	
		<radialGradient id="SVGID_4_" cx="-4.2803" cy="55.6836" r="5.3069" gradientTransform="matrix(0 -3.069 3.2232 0 -176.714 15.116)" gradientUnits="userSpaceOnUse">
		<stop offset="0" style="stop-color:#ECECEC" />
		<stop offset="0.14" style="stop-color:#DDDDDD" />
		<stop offset="0.4" style="stop-color:#B8B8B8" />
		<stop offset="0.75" style="stop-color:#7C7C7C" />
		<stop offset="1" style="stop-color:#4D4D4D" />
	</radialGradient>
	<path fill="url(#SVGID_4_)" d="M10.926,45.604c-9.259-1.815-10.928-5.22-10.928-16.838c0-11.575,2.169-14.575,10.928-16.493" />
	<linearGradient id="SVGID_5_" gradientUnits="userSpaceOnUse" x1="81.7559" y1="41.5518" x2="81.7559" y2="16.5532">
		<stop offset="0" style="stop-color:#383838" />
		<stop offset="0.45" style="stop-color:#ECECEC" />
		<stop offset="0.55" style="stop-color:#D9D9D9" />
		<stop offset="0.76" style="stop-color:#A8A8A8" />
		<stop offset="0.77" style="stop-color:#A6A6A6" />
		<stop offset="1" style="stop-color:#383838" />
	</linearGradient>
	<path fill="url(#SVGID_5_)" d="M77.589,16.553h8.333v24.999h-8.333V16.553z" />
</g>
<g id="Group_Heat_Sink_Shade">
	<path fill="#333333" d="M22.187,12.274h41.665V40.2H22.187V12.274z" />
	<path fill="#333333" d="M77.589,38.849h8.333v2.703h-8.333V38.849z" />
	<path fill="#333333" d="M77.589,30.966h8.333v4.055h-8.333V30.966z" />
	<path fill="#333333" d="M77.589,23.084h8.333v4.054h-8.333V23.084z" />
	<path fill="#333333" d="M77.589,16.553h8.333v2.703h-8.333V16.553z" />
</g>
<g id="Group_HeatSink">
	<path fill="#B2B2B2" d="M16.557,30.517h48.42v2.702h-48.42V30.517z" />
	<path fill="#B2B2B2" d="M16.557,35.921h48.42v2.928h-48.42V35.921z" />
	<path fill="#CCCCCC" d="M16.557,19.255h48.42v2.928h-48.42V19.255z" />
	<path fill="#CCCCCC" d="M16.557,24.886h48.42v2.703h-48.42V24.886z" />
	<path fill="#E5E5E5" d="M16.557,13.625h48.42v2.928h-48.42V13.625z" />
	<path fill="#E5E5E5" d="M16.557,10.923h48.42v1.351h-48.42V10.923z" />
</g>
<g id="Group_DischargePipe">
	<linearGradient id="SVGID_6_" gradientUnits="userSpaceOnUse" x1="88.8496" y1="9.5713" x2="102.5869" y2="9.5713">
		<stop offset="0" style="stop-color:#383838" />
		<stop offset="0.45" style="stop-color:#ECECEC" />
		<stop offset="0.55" style="stop-color:#D9D9D9" />
		<stop offset="0.76" style="stop-color:#A8A8A8" />
		<stop offset="0.77" style="stop-color:#A6A6A6" />
		<stop offset="1" style="stop-color:#383838" />
	</linearGradient>
	<path fill="url(#SVGID_6_)" d="M91.552,16.553L88.85,2.59h13.737l-2.702,13.963H91.552z" />
</g>
<g id="Group_DischargeFlange">
	<linearGradient id="SVGID_7_" gradientUnits="userSpaceOnUse" x1="78.9395" y1="1.2949" x2="112.4961" y2="1.2949">
		<stop offset="0" style="stop-color:#383838" />
		<stop offset="0.45" style="stop-color:#ECECEC" />
		<stop offset="0.55" style="stop-color:#D9D9D9" />
		<stop offset="0.76" style="stop-color:#A8A8A8" />
		<stop offset="0.77" style="stop-color:#A6A6A6" />
		<stop offset="1" style="stop-color:#383838" />
	</linearGradient>
	<path fill="url(#SVGID_7_)" d="M78.939,2.59V0h33.557v2.59H78.939" />
</g>
<g id="Group_Suction">
	<linearGradient id="SVGID_8_" gradientUnits="userSpaceOnUse" x1="90.3262" y1="41.5518" x2="90.3262" y2="16.5532">
		<stop offset="0" style="stop-color:#383838" />
		<stop offset="0.45" style="stop-color:#ECECEC" />
		<stop offset="0.55" style="stop-color:#D9D9D9" />
		<stop offset="0.76" style="stop-color:#A8A8A8" />
		<stop offset="0.77" style="stop-color:#A6A6A6" />
		<stop offset="1" style="stop-color:#383838" />
	</linearGradient>
	<path fill="url(#SVGID_8_)" d="M88.85,16.553h2.952v24.999H88.85V16.553" />
	<linearGradient id="SVGID_9_" gradientUnits="userSpaceOnUse" x1="102.5859" y1="41.5518" x2="102.5859" y2="16.5532">
		<stop offset="0" style="stop-color:#383838" />
		<stop offset="0.45" style="stop-color:#ECECEC" />
		<stop offset="0.55" style="stop-color:#D9D9D9" />
		<stop offset="0.76" style="stop-color:#A8A8A8" />
		<stop offset="0.77" style="stop-color:#A6A6A6" />
		<stop offset="1" style="stop-color:#383838" />
	</linearGradient>
	<polygon fill="url(#SVGID_9_)" points="99.771,16.553 99.771,41.552 105.401,38.849 105.401,19.255  " />
	<path fill="none" stroke="#4C4C4C" stroke-width="0.25" d="M105.515,38.849V19.255" />
	<linearGradient id="SVGID_10_" gradientUnits="userSpaceOnUse" x1="95.7188" y1="47.1816" x2="95.7188" y2="10.1255">
		<stop offset="0" style="stop-color:#383838" />
		<stop offset="0.45" style="stop-color:#ECECEC" />
		<stop offset="0.55" style="stop-color:#D9D9D9" />
		<stop offset="0.76" style="stop-color:#A8A8A8" />
		<stop offset="0.77" style="stop-color:#A6A6A6" />
		<stop offset="1" style="stop-color:#383838" />
	</linearGradient>
	<path fill="url(#SVGID_10_)" d="M91.552,10.125h8.333v37.057h-8.333V10.125z" />
	<linearGradient id="SVGID_11_" gradientUnits="userSpaceOnUse" x1="106.6504" y1="38.8486" x2="106.6504" y2="19.2559">
		<stop offset="0" style="stop-color:#383838" />
		<stop offset="0.45" style="stop-color:#ECECEC" />
		<stop offset="0.55" style="stop-color:#D9D9D9" />
		<stop offset="0.76" style="stop-color:#A8A8A8" />
		<stop offset="0.77" style="stop-color:#A6A6A6" />
		<stop offset="1" style="stop-color:#383838" />
	</linearGradient>
	<rect x="105.084" y="19.255" fill="url(#SVGID_11_)" width="3.133" height="19.593" />
</g>
<g id="Group_Box">
	<path fill="#666666" d="M19.259,26.237h22.296v20.944H19.259V26.237z" />
	<path fill="none" stroke="#FFFFFF" stroke-width="0.25" d="M22.187,44.479V29.165h15.314" />
	<path fill="#333333" d="M41.555,26.237h1.351v19.375h-1.351V26.237z" />
</g>
<g id="Group_WireBox_Sticker">
	<circle fill="#4C7F7F" cx="31.758" cy="36.034" r="4.167" />
</g>
</svg>