<!DOCTYPE svg PUBLIC "-//W3C//DTD SVG 1.1//EN" "http://www.w3.org/Graphics/SVG/1.1/DTD/svg11.dtd"[]><svg version="1.1" xmlns="http://www.w3.org/2000/svg" xmlns:xlink="http://www.w3.org/1999/xlink" width="112px" height="47px" viewBox="0 0 112.5 47.412" enable-background="new 0 0 112.5 47.412" xml:space="preserve">
<g id="Group_Volute_Chamber">
	
		<linearGradient id="SVGID_1_" gradientUnits="userSpaceOnUse" x1="56.7578" y1="9.765625e-004" x2="56.7578" y2="47.2983" gradientTransform="matrix(1 0 0 -1 0 47.4121)">
		<stop offset="0.01" style="stop-color:#4D4D4D" />
		<stop offset="0.51" style="stop-color:#F5F5F5" />
		<stop offset="1" style="stop-color:#4D4D4D" />
	</linearGradient>
	<path fill="url(#SVGID_1_)" stroke="#4C4C4C" stroke-width="0.25" d="M10.473,33.222v14.189H1.014V0.114h9.459v14.302h42.792V4.843   h4.73v11.712H112.5v14.189H57.996v11.937h-4.73v-9.459H10.473" />
	<path fill="none" stroke="#4C4C4C" stroke-width="0.25" d="M5.743,0.114v47.297" />
	<path fill="none" stroke="#4C4C4C" stroke-width="0.25" d="M10.473,33.222V14.416" />
	<path fill="none" stroke="#4C4C4C" stroke-width="0.25" d="M53.266,33.222V14.416" />
</g>
<g id="Group_Blue_Part">
	
		<linearGradient id="SVGID_2_" gradientUnits="userSpaceOnUse" x1="84.0088" y1="4.7314" x2="84.0088" y2="42.5698" gradientTransform="matrix(1 0 0 -1 0 47.4121)">
		<stop offset="0.01" style="stop-color:#516B9E" />
		<stop offset="0.15" style="stop-color:#536DA1" />
		<stop offset="0.26" style="stop-color:#5973AA" />
		<stop offset="0.35" style="stop-color:#627CBA" />
		<stop offset="0.44" style="stop-color:#708AD0" />
		<stop offset="0.51" style="stop-color:#7F99E8" />
		<stop offset="0.51" style="stop-color:#7E98E7" />
		<stop offset="0.58" style="stop-color:#6E88CC" />
		<stop offset="0.65" style="stop-color:#617BB8" />
		<stop offset="0.74" style="stop-color:#5872A9" />
		<stop offset="0.84" style="stop-color:#536DA1" />
		<stop offset="1" style="stop-color:#516B9E" />
	</linearGradient>
	<path fill="url(#SVGID_2_)" stroke="#4C4C4C" stroke-width="0.25" d="M57.996,4.843h2.252v4.73h47.41v4.842h2.363v18.807h-2.363   v4.729h-47.41v4.729h-2.252V4.843" />
	<path fill="none" stroke="#4C4C4C" stroke-width="0.25" d="M60.248,37.952V9.573" />
	<path fill="none" stroke="#4C4C4C" stroke-width="0.25" d="M107.658,33.222V14.416" />
	<path fill="none" stroke="#193366" stroke-width="0.25" d="M105.404,37.952V9.573" />
	
		<linearGradient id="SVGID_3_" gradientUnits="userSpaceOnUse" x1="84.0654" y1="36.7129" x2="84.0654" y2="47.2979" gradientTransform="matrix(1 0 0 -1 0 47.4121)">
		<stop offset="0" style="stop-color:#516B9E" />
		<stop offset="0.99" style="stop-color:#7F99E8" />
	</linearGradient>
	<path fill="url(#SVGID_3_)" stroke="#4C4C4C" stroke-width="0.25" d="M65.203,0.114h37.725v10.585H65.203V0.114z" />
	<path fill="#98B2E5" stroke="#4C4C4C" stroke-width="0.25" d="M61.6,12.952h-3.604v2.477H61.6V12.952z" />
	<path fill="#98B2E5" stroke="#4C4C4C" stroke-width="0.25" d="M61.6,32.097h-3.604v2.252H61.6V32.097z" />
	<path fill="#324C7F" stroke="#4C4C4C" stroke-width="0.25" d="M74.438,37.952h19.145v6.98H74.438V37.952z" />
	<path fill="#4C6699" stroke="#4C4C4C" stroke-width="0.25" d="M69.707,47.411h28.604v-2.479H69.707V47.411z" />
</g>
<g id="Group_Fasteners">
	<path fill="#CCCCCC" stroke="#4C4C4C" stroke-width="0.25" d="M0,42.681h11.937v2.254H0V42.681z" />
	<path fill="#CCCCCC" stroke="#4C4C4C" stroke-width="0.25" d="M0,42.681h11.937v2.254H0V42.681z" />
	<path fill="#CCCCCC" stroke="#4C4C4C" stroke-width="0.25" d="M0,32.097h11.937v2.252H0V32.097z" />
	<path fill="#CCCCCC" stroke="#4C4C4C" stroke-width="0.25" d="M0,2.366h11.937v2.365H0V2.366z" />
	<path fill="#CCCCCC" stroke="#4C4C4C" stroke-width="0.25" d="M52.14,12.952h5.856v2.477H52.14V12.952z" />
	<path fill="#CCCCCC" stroke="#4C4C4C" stroke-width="0.25" d="M52.14,32.097h5.856v2.252H52.14V32.097z" />
	<path fill="#CCCCCC" stroke="#4C4C4C" stroke-width="0.25" d="M0,12.952h11.937v2.477H0V12.952z" />
</g>
<g id="Group_Indicator">
	<path fill="#E5E5E5" d="M62.725,11.938h18.92v10.698h-18.92V11.938z" />
</g>
<g id="Group_Float_Switch">
	
		<linearGradient id="SVGID_4_" gradientUnits="userSpaceOnUse" x1="4.729" y1="37.7822" x2="14.0762" y2="37.7822" gradientTransform="matrix(1 0 0 -1 0 47.4121)">
		<stop offset="0.01" style="stop-color:#4D4D4D" />
		<stop offset="0.51" style="stop-color:#F5F5F5" />
		<stop offset="1" style="stop-color:#4D4D4D" />
	</linearGradient>
	<path fill="url(#SVGID_4_)" stroke="#4C4C4C" stroke-width="0.25" d="M4.729,14.416V7.208L8.22,4.843h2.478l3.378,2.365v7.208   H4.729z" />
	
		<radialGradient id="SVGID_5_" cx="9.459" cy="37.9512" r="3.4912" gradientTransform="matrix(1 0 0 -1 0 47.4121)" gradientUnits="userSpaceOnUse">
		<stop offset="0.01" style="stop-color:#4D4D4D" />
		<stop offset="0.51" style="stop-color:#F5F5F5" />
		<stop offset="1" style="stop-color:#4D4D4D" />
	</radialGradient>
	<circle fill="url(#SVGID_5_)" stroke="#4C4C4C" stroke-width="0.25" cx="9.459" cy="9.461" r="3.491" />
	<circle cx="9.572" cy="9.573" r="2.365" />
</g>
</svg>