<svg version="1.1" xmlns="http://www.w3.org/2000/svg" xmlns:xlink="http://www.w3.org/1999/xlink" width="112px" height="76px" viewBox="0 0 112.5 75.68" enable-background="new 0 0 112.5 75.68" xml:space="preserve">
<g id="Group_DownStream_Pipe_Flange">
	
		<linearGradient id="SVGID_1_" gradientUnits="userSpaceOnUse" x1="110.416" y1="22.637" x2="110.416" y2="48.3132" gradientTransform="matrix(1 0 0 -1 0 75.6802)">
		<stop offset="0.01" style="stop-color:#0000FF" />
		<stop offset="0.51" style="stop-color:#7F7FFF" />
		<stop offset="1" style="stop-color:#0000FF" />
	</linearGradient>
	<path fill="url(#SVGID_1_)" stroke="#4C4C4C" stroke-width="0.25" d="M112.049,53.043h-3.266V27.367h3.266V53.043" />
	
		<linearGradient id="SVGID_2_" gradientUnits="userSpaceOnUse" x1="106.3057" y1="27.3684" x2="106.3057" y2="43.5847" gradientTransform="matrix(1 0 0 -1 0 75.6802)">
		<stop offset="0.01" style="stop-color:#0000FF" />
		<stop offset="0.51" style="stop-color:#7F7FFF" />
		<stop offset="1" style="stop-color:#0000FF" />
	</linearGradient>
	<path fill="url(#SVGID_2_)" d="M103.828,32.096v16.216h4.955V32.096H103.828" />
	
		<linearGradient id="SVGID_3_" gradientUnits="userSpaceOnUse" x1="82.4316" y1="18.6965" x2="82.4316" y2="51.5798" gradientTransform="matrix(1 0 0 -1 0 75.6802)">
		<stop offset="0.01" style="stop-color:#0000AD" />
		<stop offset="0.51" style="stop-color:#7F7FFF" />
		<stop offset="1" style="stop-color:#0000AD" />
	</linearGradient>
	<path fill="url(#SVGID_3_)" d="M78.941,24.101h6.981v32.883h-6.981V24.101z" />
</g>
<g id="Group_Pump_Suction_Body">
	
		<linearGradient id="SVGID_4_" gradientUnits="userSpaceOnUse" x1="8.7837" y1="12.5032" x2="8.7837" y2="58.45" gradientTransform="matrix(1 0 0 -1 0 75.6802)">
		<stop offset="0.01" style="stop-color:#0000FF" />
		<stop offset="0.51" style="stop-color:#7F7FFF" />
		<stop offset="1" style="stop-color:#0000FF" />
	</linearGradient>
	<path fill="url(#SVGID_4_)" stroke="#4C4C4C" stroke-width="0.25" d="M4.392,63.177l-2.928-1.689V19.371l2.928-2.141h10.022   l1.689,22.86l-1.689,23.086H4.392z" />
	
		<linearGradient id="SVGID_5_" gradientUnits="userSpaceOnUse" x1="43.6938" y1="14.1926" x2="43.6938" y2="56.0847" gradientTransform="matrix(1 0 0 -1 0 75.6802)">
		<stop offset="0.01" style="stop-color:#0000FF" />
		<stop offset="0.51" style="stop-color:#7F7FFF" />
		<stop offset="1" style="stop-color:#0000FF" />
	</linearGradient>
	<path fill="url(#SVGID_5_)" stroke="#4C4C4C" stroke-width="0.25" d="M14.64,19.596l1.464,20.495L14.64,61.488h52.702l0.789-0.449   h2.027l1.014-0.788l1.576-19.934l-1.576-19.819l-1.014-0.675h-2.027l-0.789-0.227H14.64z" />
	
		<linearGradient id="SVGID_6_" gradientUnits="userSpaceOnUse" x1="75.957" y1="14.1936" x2="75.957" y2="56.0837" gradientTransform="matrix(1 0 0 -1 0 75.6802)">
		<stop offset="0.01" style="stop-color:#0000FF" />
		<stop offset="0.51" style="stop-color:#7F7FFF" />
		<stop offset="1" style="stop-color:#0000FF" />
	</linearGradient>
	<path fill="url(#SVGID_6_)" stroke="#4C4C4C" stroke-width="0.25" d="M71.172,60.588V60.25l1.576-19.934l-1.576-19.819l0.9-0.9   l3.266,1.126l1.464,0.563h1.915l0.449,0.676l1.577,18.354l-1.577,18.355l-0.449,0.451h-1.689l-1.688,0.45l-3.267,1.913   L71.172,60.588z" />
	
		<linearGradient id="SVGID_7_" gradientUnits="userSpaceOnUse" x1="39.978" y1="53.4944" x2="39.978" y2="57.4348" gradientTransform="matrix(1 0 0 -1 0 75.6802)">
		<stop offset="0.01" style="stop-color:#7F7FFF" />
		<stop offset="0.51" style="stop-color:#B4B4FF" />
		<stop offset="1" style="stop-color:#7F7FFF" />
	</linearGradient>
	<path fill="url(#SVGID_7_)" d="M14.865,22.186l-0.45-3.94h49.887h0.112h0.227l0.111,0.111l0.227,0.113l0.226,0.112l0.112,0.111   l0.111,0.113l0.113,0.112v2.365l-0.113,0.225l-0.111,0.226l-0.112,0.112l-0.226,0.113l-0.227,0.112l-0.111,0.111h-0.227h-0.112   H14.865V22.186z" />
	
		<linearGradient id="SVGID_8_" gradientUnits="userSpaceOnUse" x1="40.0908" y1="17.0061" x2="40.0908" y2="20.8352" gradientTransform="matrix(1 0 0 -1 0 75.6802)">
		<stop offset="0.01" style="stop-color:#0000FF" />
		<stop offset="0.51" style="stop-color:#7F7FFF" />
		<stop offset="1" style="stop-color:#0000FF" />
	</linearGradient>
	<path fill="url(#SVGID_8_)" d="M14.64,58.673l0.225-3.828h49.662l1.015,1.013v2.141l-1.015,0.676L14.64,58.673L14.64,58.673z" />
	<path fill="#0000BF" stroke="#4C4C4C" stroke-width="0.25" d="M1.464,19.371l1.014,20.721L1.464,61.488L0.338,40.092L1.464,19.371z   " />
	<path fill="none" stroke="#4C4C4C" stroke-width="0.25" d="M65.766,20.047l1.576,20.496l-1.576,20.495" />
	<path fill="#7F7FFF" d="M67.566,25.227h0.563l0.226,1.238l-0.226,1.126H63.4v-2.364H67.566z" />
	
		<linearGradient id="SVGID_9_" gradientUnits="userSpaceOnUse" x1="40.6523" y1="49.4387" x2="40.6523" y2="53.2678" gradientTransform="matrix(1 0 0 -1 0 75.6802)">
		<stop offset="0.01" style="stop-color:#7F7FFF" />
		<stop offset="0.51" style="stop-color:#B4B4FF" />
		<stop offset="1" style="stop-color:#7F7FFF" />
	</linearGradient>
	<path fill="url(#SVGID_9_)" d="M15.09,26.24l-0.226-3.828h50.902l0.676,1.014v1.802l-0.676,1.014L15.09,26.24L15.09,26.24z" />
	<path fill="#7F7FFF" d="M68.131,52.254l0.225,1.239l-0.225,1.126H63.4v-2.365H68.131z" />
	
		<linearGradient id="SVGID_10_" gradientUnits="userSpaceOnUse" x1="40.8784" y1="45.9495" x2="40.8784" y2="48.7639" gradientTransform="matrix(1 0 0 -1 0 75.6802)">
		<stop offset="0.01" style="stop-color:#0000FF" />
		<stop offset="0.51" style="stop-color:#7F7FFF" />
		<stop offset="1" style="stop-color:#0000FF" />
	</linearGradient>
	<path fill="url(#SVGID_10_)" d="M15.428,29.731l-0.337-2.814h51.126l0.449,0.451v1.914l-0.449,0.449H15.428z" />
	<path fill="none" stroke="#4C4C4C" stroke-width="0.25" d="M4.617,17.007l-0.788,23.31l0.789,23.312" />
</g>
<g id="Group_Board_Indicator">
	<path fill="#7F7F7F" stroke="#4C4C4C" stroke-width="0.25" d="M20.496,34.236h37.949v14.752H20.496V34.236z" />
	<path fill="#7F7FFF" stroke="#4C4C4C" stroke-width="0.25" d="M21.284,34.686h37.837v15.09H21.284V34.686z" />
	<path fill="#7F7F7F" d="M27.59,37.276h25v9.91h-25V37.276z" />
</g>
<g id="Group_Pump_Support">
	
		<linearGradient id="SVGID_11_" gradientUnits="userSpaceOnUse" x1="83.1074" y1="2.7053" x2="100.5625" y2="2.7053" gradientTransform="matrix(1 0 0 -1 0 75.6802)">
		<stop offset="0.01" style="stop-color:#0000AD" />
		<stop offset="0.65" style="stop-color:#7F7FFF" />
		<stop offset="1" style="stop-color:#0000AD" />
	</linearGradient>
	<path fill="url(#SVGID_11_)" stroke="#4C4C4C" stroke-width="0.25" d="M94.145,70.61h1.914v2.929h4.504v1.802H83.107v-1.802h11.037   V70.61L94.145,70.61z" />
	
		<linearGradient id="SVGID_12_" gradientUnits="userSpaceOnUse" x1="14.8652" y1="7.491" x2="67.5684" y2="7.491" gradientTransform="matrix(1 0 0 -1 0 75.6802)">
		<stop offset="0.01" style="stop-color:#0000AD" />
		<stop offset="0.51" style="stop-color:#7F7FFF" />
		<stop offset="1" style="stop-color:#0000AD" />
	</linearGradient>
	<path fill="url(#SVGID_12_)" stroke="#4C4C4C" stroke-width="0.25" d="M60.811,61.038h2.365v12.5h4.393v1.802H14.865v-1.802h2.14   v-12.5h2.365v12.5h41.44V61.038z" />
</g>
<g id="Group_Upstream_Pipe_Flange">
	
		<linearGradient id="SVGID_13_" gradientUnits="userSpaceOnUse" x1="89.752" y1="67.9641" x2="100.5625" y2="67.9641" gradientTransform="matrix(1 0 0 -1 0 75.6802)">
		<stop offset="0.01" style="stop-color:#0000FF" />
		<stop offset="0.51" style="stop-color:#7F7FFF" />
		<stop offset="1" style="stop-color:#0000FF" />
	</linearGradient>
	<path fill="url(#SVGID_13_)" stroke="#4C4C4C" stroke-width="0.25" d="M100.563,12.052H89.752V3.38h10.811V12.052z" />
	
		<linearGradient id="SVGID_14_" gradientUnits="userSpaceOnUse" x1="83.6719" y1="73.8206" x2="106.6445" y2="73.8206" gradientTransform="matrix(1 0 0 -1 0 75.6802)">
		<stop offset="0.01" style="stop-color:#0000FF" />
		<stop offset="0.51" style="stop-color:#7F7FFF" />
		<stop offset="1" style="stop-color:#0000FF" />
	</linearGradient>
	<path fill="url(#SVGID_14_)" stroke="#4C4C4C" stroke-width="0.25" d="M106.645,0.34v3.04H83.672V0.34H106.645z" />
</g>
<g id="Group_Flip_Ring">
	
		<linearGradient id="SVGID_15_" gradientUnits="userSpaceOnUse" x1="84.9668" y1="54.9573" x2="84.9668" y2="58.2229" gradientTransform="matrix(1 0 0 -1 0 75.6802)">
		<stop offset="0.01" style="stop-color:#B2B2B2" />
		<stop offset="0.49" style="stop-color:#F0F0F0" />
		<stop offset="1" style="stop-color:#B2B2B2" />
	</linearGradient>
	<path fill="url(#SVGID_15_)" stroke="#4C4C4C" stroke-width="0.25" d="M84.348,17.457h1.576v3.266h-1.576v-0.676h-0.339V18.02   h0.339V17.457z" />
	
		<linearGradient id="SVGID_16_" gradientUnits="userSpaceOnUse" x1="84.9668" y1="12.5022" x2="84.9668" y2="15.8811" gradientTransform="matrix(1 0 0 -1 0 75.6802)">
		<stop offset="0.01" style="stop-color:#B2B2B2" />
		<stop offset="0.49" style="stop-color:#F0F0F0" />
		<stop offset="1" style="stop-color:#B2B2B2" />
	</linearGradient>
	<path fill="url(#SVGID_16_)" stroke="#4C4C4C" stroke-width="0.25" d="M84.348,59.799h1.576v3.379h-1.576V62.39h-0.339v-1.802   h0.339V59.799z" />
	
		<linearGradient id="SVGID_17_" gradientUnits="userSpaceOnUse" x1="84.9668" y1="26.6926" x2="84.9668" y2="30.1829" gradientTransform="matrix(1 0 0 -1 0 75.6802)">
		<stop offset="0.01" style="stop-color:#B2B2B2" />
		<stop offset="0.49" style="stop-color:#F0F0F0" />
		<stop offset="1" style="stop-color:#B2B2B2" />
	</linearGradient>
	<path fill="url(#SVGID_17_)" stroke="#4C4C4C" stroke-width="0.25" d="M84.348,45.497h1.576v3.49h-1.576v-0.676h-0.339v-2.14h0.339   V45.497z" />
	
		<linearGradient id="SVGID_18_" gradientUnits="userSpaceOnUse" x1="84.9668" y1="41.4446" x2="84.9668" y2="44.8235" gradientTransform="matrix(1 0 0 -1 0 75.6802)">
		<stop offset="0.01" style="stop-color:#B2B2B2" />
		<stop offset="0.49" style="stop-color:#F0F0F0" />
		<stop offset="1" style="stop-color:#B2B2B2" />
	</linearGradient>
	<path fill="url(#SVGID_18_)" stroke="#4C4C4C" stroke-width="0.25" d="M84.348,30.857h1.576v3.379h-1.576v-0.787h-0.339v-1.803   h0.339V30.857z" />
	
		<linearGradient id="SVGID_19_" gradientUnits="userSpaceOnUse" x1="86.9932" y1="10.927" x2="86.9932" y2="59.5759" gradientTransform="matrix(1 0 0 -1 0 75.6802)">
		<stop offset="0.01" style="stop-color:#0000FF" />
		<stop offset="0.51" style="stop-color:#7F7FFF" />
		<stop offset="1" style="stop-color:#0000FF" />
	</linearGradient>
	<path fill="url(#SVGID_19_)" stroke="#4C4C4C" stroke-width="0.25" d="M85.924,16.105h2.139v48.648h-2.139V16.105" />
	
		<linearGradient id="SVGID_20_" gradientUnits="userSpaceOnUse" x1="102.8711" y1="19.8235" x2="102.8711" y2="50.4539" gradientTransform="matrix(1 0 0 -1 0 75.6802)">
		<stop offset="0.01" style="stop-color:#B2B2B2" />
		<stop offset="0.49" style="stop-color:#F0F0F0" />
		<stop offset="1" style="stop-color:#B2B2B2" />
	</linearGradient>
	<path fill="url(#SVGID_20_)" stroke="#4C4C4C" stroke-width="0.25" d="M101.914,25.227h1.914v30.63h-1.914V25.227" />
</g>
<g id="Group_MakeUp_Tank">
	
		<linearGradient id="SVGID_21_" gradientUnits="userSpaceOnUse" x1="88.0625" y1="35.1379" x2="101.9141" y2="35.1379" gradientTransform="matrix(1 0 0 -1 0 75.6802)">
		<stop offset="0.01" style="stop-color:#0000FF" />
		<stop offset="0.51" style="stop-color:#7F7FFF" />
		<stop offset="1" style="stop-color:#0000FF" />
	</linearGradient>
	<path fill="url(#SVGID_21_)" stroke="#4C4C4C" stroke-width="0.25" d="M101.914,64.979v-49.1l-0.45-2.814L99.775,10.7l-2.027-1.238   l-2.59-0.451l-2.592,0.451l-2.14,1.238l-1.688,2.364l-0.676,2.814v49.1l0.676,3.153l1.688,2.026l2.14,1.465l2.592,0.45l2.59-0.45   l2.027-1.465l1.688-2.026L101.914,64.979z" />
</g>
</svg>