<svg version="1.1" xmlns="http://www.w3.org/2000/svg" xmlns:xlink="http://www.w3.org/1999/xlink" width="112px" height="99px" viewBox="0 0 112.5 99.102" enable-background="new 0 0 112.5 99.102" xml:space="preserve">
<g id="Group_Upstream_Pipe_Flange">
	
		<linearGradient id="SVGID_1_" gradientUnits="userSpaceOnUse" x1="80.7441" y1="63.3005" x2="80.7441" y2="98.6501" gradientTransform="matrix(1 0 0 -1 0 99.1011)">
		<stop offset="0" style="stop-color:#597F7F" />
		<stop offset="0.5" style="stop-color:#BABABA" />
		<stop offset="1" style="stop-color:#597F7F" />
	</linearGradient>
	<rect x="49.55" y="0.451" fill="url(#SVGID_1_)" width="62.388" height="35.35" />
</g>
<g id="Group_Drivershaft_Flange">
	
		<radialGradient id="SVGID_2_" cx="49.2681" cy="50.0583" r="49.1552" gradientTransform="matrix(1 0 0 -1 0 99.1011)" gradientUnits="userSpaceOnUse">
		<stop offset="0" style="stop-color:#E0E0E0" />
		<stop offset="1" style="stop-color:#597F7F" />
	</radialGradient>
	<ellipse fill="url(#SVGID_2_)" cx="49.268" cy="49.043" rx="49.268" ry="49.042" />
</g>
<g id="Group_Impeller">
	
		<radialGradient id="SVGID_3_" cx="49.4365" cy="54.0554" r="35.585" gradientTransform="matrix(1 0 0 -1 0 99.1011)" gradientUnits="userSpaceOnUse">
		<stop offset="0" style="stop-color:#DCAA23" />
		<stop offset="1" style="stop-color:#CC6600" />
	</radialGradient>
	<circle fill="url(#SVGID_3_)" stroke="#4C4C4C" stroke-width="0.25" cx="49.437" cy="45.046" r="35.585" />
	<circle fill="#164C4C" stroke="#4C4C4C" stroke-width="0.25" cx="49.549" cy="45.046" r="5.968" />
	<path fill="none" stroke="#4C4C4C" stroke-width="0.25" d="M44.534,42.585c-7.096-12.291-18.683-18.86-25.906-14.69" />
	<path fill="none" stroke="#4C4C4C" stroke-width="0.25" d="M43.854,44.913c-12.291-7.096-25.61-6.993-29.781,0.23" />
	<path fill="none" stroke="#4C4C4C" stroke-width="0.25" d="M44.802,47.483c-14.192,0-25.676,6.749-25.676,15.09" />
	<path fill="none" stroke="#4C4C4C" stroke-width="0.25" d="M47.31,50.075c-12.291,7.097-18.862,18.683-14.691,25.906" />
	<path fill="none" stroke="#4C4C4C" stroke-width="0.25" d="M49.849,51.138c-7.096,12.291-6.993,25.609,0.23,29.779" />
	<path fill="none" stroke="#4C4C4C" stroke-width="0.25" d="M52.419,50.19c0,14.19,6.749,25.676,15.09,25.676" />
	<path fill="none" stroke="#4C4C4C" stroke-width="0.25" d="M55.011,47.682c7.096,12.29,18.682,18.86,25.906,14.689" />
	<path fill="none" stroke="#4C4C4C" stroke-width="0.25" d="M55.074,45.143c12.291,7.096,25.609,6.992,29.779-0.23" />
	<path fill="none" stroke="#4C4C4C" stroke-width="0.25" d="M54.126,42.573c14.19,0,25.676-6.749,25.676-15.09" />
	<path fill="none" stroke="#4C4C4C" stroke-width="0.25" d="M52.618,39.981c12.29-7.097,18.86-18.684,14.69-25.906" />
	<path fill="none" stroke="#4C4C4C" stroke-width="0.25" d="M50.079,38.918c7.096-12.291,6.993-25.609-0.23-29.78" />
	<path fill="none" stroke="#4C4C4C" stroke-width="0.25" d="M46.861,40.179c-0.001-14.192-6.75-25.676-15.09-25.676" />
</g>
</svg>