<!DOCTYPE svg PUBLIC "-//W3C//DTD SVG 1.1//EN" "http://www.w3.org/Graphics/SVG/1.1/DTD/svg11.dtd"[]><svg version="1.1" xmlns="http://www.w3.org/2000/svg" xmlns:xlink="http://www.w3.org/1999/xlink" width="103px" height="112px" viewBox="0 0 103.492 112.5" enable-background="new 0 0 103.492 112.5" xml:space="preserve">
<g id="Group_Horizontal_Pipe_Flanges">
	
		<linearGradient id="SVGID_1_" gradientUnits="userSpaceOnUse" x1="2.8169" y1="60.417" x2="13.5151" y2="60.417" gradientTransform="matrix(1 0 0 -1 0 112.5)">
		<stop offset="0" style="stop-color:#0000BF" />
		<stop offset="0.49" style="stop-color:#7F7FFF" />
		<stop offset="0.99" style="stop-color:#0000BF" />
	</linearGradient>
	<path fill="url(#SVGID_1_)" d="M2.817,13.81h10.698v76.545H2.817V13.81z" />
	
		<linearGradient id="SVGID_2_" gradientUnits="userSpaceOnUse" x1="0.3389" y1="99.9414" x2="15.6538" y2="99.9414" gradientTransform="matrix(1 0 0 -1 0 112.5)">
		<stop offset="0" style="stop-color:#0000BF" />
		<stop offset="0.49" style="stop-color:#7F7FFF" />
		<stop offset="0.99" style="stop-color:#0000BF" />
	</linearGradient>
	<path fill="url(#SVGID_2_)" d="M0.339,13.81h15.315v-2.503H0.339V13.81z" />
	
		<linearGradient id="SVGID_3_" gradientUnits="userSpaceOnUse" x1="0.3389" y1="20.8916" x2="15.6538" y2="20.8916" gradientTransform="matrix(1 0 0 -1 0 112.5)">
		<stop offset="0" style="stop-color:#0000BF" />
		<stop offset="0.49" style="stop-color:#7F7FFF" />
		<stop offset="0.99" style="stop-color:#0000BF" />
	</linearGradient>
	<path fill="url(#SVGID_3_)" d="M0.339,90.357h15.315v2.502H0.339V90.357z" />
	
		<linearGradient id="SVGID_4_" gradientUnits="userSpaceOnUse" x1="89.9785" y1="60.417" x2="100.6768" y2="60.417" gradientTransform="matrix(1 0 0 -1 0 112.5)">
		<stop offset="0" style="stop-color:#0000BF" />
		<stop offset="0.49" style="stop-color:#7F7FFF" />
		<stop offset="0.99" style="stop-color:#0000BF" />
	</linearGradient>
	<path fill="url(#SVGID_4_)" d="M100.677,13.81H89.979v76.545h10.698V13.81z" />
	
		<linearGradient id="SVGID_5_" gradientUnits="userSpaceOnUse" x1="87.8389" y1="99.9414" x2="103.1543" y2="99.9414" gradientTransform="matrix(1 0 0 -1 0 112.5)">
		<stop offset="0" style="stop-color:#0000BF" />
		<stop offset="0.49" style="stop-color:#7F7FFF" />
		<stop offset="0.99" style="stop-color:#0000BF" />
	</linearGradient>
	<path fill="url(#SVGID_5_)" d="M103.154,13.81H87.839v-2.503h15.315V13.81L103.154,13.81z" />
	
		<linearGradient id="SVGID_6_" gradientUnits="userSpaceOnUse" x1="87.8389" y1="20.8916" x2="103.1543" y2="20.8916" gradientTransform="matrix(1 0 0 -1 0 112.5)">
		<stop offset="0" style="stop-color:#0000BF" />
		<stop offset="0.49" style="stop-color:#7F7FFF" />
		<stop offset="0.99" style="stop-color:#0000BF" />
	</linearGradient>
	<path fill="url(#SVGID_6_)" d="M103.154,90.357H87.839v2.502h15.315V90.357L103.154,90.357z" />
</g>
<g id="Group_Vertical_Pipe_Flanges">
	
		<linearGradient id="SVGID_7_" gradientUnits="userSpaceOnUse" x1="51.7456" y1="9.3477" x2="51.7456" y2="20.0449" gradientTransform="matrix(1 0 0 -1 0 112.5)">
		<stop offset="0" style="stop-color:#0000BF" />
		<stop offset="0.49" style="stop-color:#7F7FFF" />
		<stop offset="0.99" style="stop-color:#0000BF" />
	</linearGradient>
	<path fill="url(#SVGID_7_)" d="M101.577,92.455v10.697H1.915V92.455H101.577z" />
	
		<linearGradient id="SVGID_8_" gradientUnits="userSpaceOnUse" x1="51.7456" y1="101.0264" x2="51.7456" y2="111.5" gradientTransform="matrix(1 0 0 -1 0 112.5)">
		<stop offset="0" style="stop-color:#0000BF" />
		<stop offset="0.49" style="stop-color:#7F7FFF" />
		<stop offset="0.99" style="stop-color:#0000BF" />
	</linearGradient>
	<path fill="url(#SVGID_8_)" d="M1.915,11.473V1h99.662v10.473H1.915z" />
</g>
<g id="Group_Fasteners2">
	<path fill="#0000FF" stroke="#4C4C4C" stroke-width="0.25" d="M48.875,103.491h6.756l3.379-5.856l-3.379-5.855h-6.756l-3.717,6.193   L48.875,103.491z" />
	<path fill="#0000FF" stroke="#4C4C4C" stroke-width="0.25" d="M48.875,12.275h6.756l3.379-5.856l-3.379-6.081h-6.756l-3.717,6.081   L48.875,12.275z" />
</g>
<g id="Group_Diaphragm">
	
		<radialGradient id="SVGID_9_" cx="51.9063" cy="52.1519" r="8.6704" gradientTransform="matrix(1.8011 0 0 3.2639 -8.2235 -118.1365)" gradientUnits="userSpaceOnUse">
		<stop offset="0" style="stop-color:#7F7FFF" />
		<stop offset="0.59" style="stop-color:#4343E1" />
		<stop offset="0.99" style="stop-color:#0000BF" />
	</radialGradient>
	<path fill="url(#SVGID_9_)" d="M73.425,85.867c13.078,0,23.679-15.129,23.679-33.786c0-18.666-10.601-33.783-23.679-33.783" />
	
		<radialGradient id="SVGID_10_" cx="14.3828" cy="52.1348" r="8.6701" gradientTransform="matrix(1.8011 0 0 3.5903 -8.2235 -135.1526)" gradientUnits="userSpaceOnUse">
		<stop offset="0" style="stop-color:#7F7FFF" />
		<stop offset="0.47" style="stop-color:#5151E8" />
		<stop offset="0.99" style="stop-color:#0000BF" />
	</radialGradient>
	<path fill="url(#SVGID_10_)" d="M29.52,18.243c-13.078,0-23.679,15.117-23.679,33.783c0,18.657,10.601,33.786,23.679,33.786" />
</g>
<g id="Group_Diaphragm_Pump_chamber">
	
		<linearGradient id="SVGID_11_" gradientUnits="userSpaceOnUse" x1="32.0962" y1="22.1836" x2="32.0962" y2="98.0854" gradientTransform="matrix(1 0 0 -1 0 112.5)">
		<stop offset="0" style="stop-color:#0000BF" />
		<stop offset="0.49" style="stop-color:#7F7FFF" />
		<stop offset="0.99" style="stop-color:#0000BF" />
	</linearGradient>
	<path fill="url(#SVGID_11_)" stroke="#4C4C4C" stroke-width="0.25" d="M35.024,14.415h-5.856v75.901h5.856V14.415z" />
	
		<linearGradient id="SVGID_12_" gradientUnits="userSpaceOnUse" x1="37.7827" y1="28.3789" x2="37.7827" y2="91.8921" gradientTransform="matrix(1 0 0 -1 0 112.5)">
		<stop offset="0" style="stop-color:#0000BF" />
		<stop offset="0.49" style="stop-color:#7F7FFF" />
		<stop offset="0.99" style="stop-color:#0000BF" />
	</linearGradient>
	<path fill="url(#SVGID_12_)" stroke="#4C4C4C" stroke-width="0.25" d="M34.46,20.608h6.645v63.513H34.46V20.608z" />
	
		<linearGradient id="SVGID_13_" gradientUnits="userSpaceOnUse" x1="42.062" y1="25.5625" x2="42.062" y2="94.7075" gradientTransform="matrix(1 0 0 -1 0 112.5)">
		<stop offset="0" style="stop-color:#0000BF" />
		<stop offset="0.49" style="stop-color:#7F7FFF" />
		<stop offset="0.99" style="stop-color:#0000BF" />
	</linearGradient>
	<path fill="url(#SVGID_13_)" d="M43.019,17.793h-1.914v69.145h1.914V17.793z" />
	
		<linearGradient id="SVGID_14_" gradientUnits="userSpaceOnUse" x1="65.6543" y1="28.3789" x2="65.6543" y2="91.8921" gradientTransform="matrix(1 0 0 -1 0 112.5)">
		<stop offset="0" style="stop-color:#0000BF" />
		<stop offset="0.49" style="stop-color:#7F7FFF" />
		<stop offset="0.99" style="stop-color:#0000BF" />
	</linearGradient>
	<path fill="url(#SVGID_14_)" stroke="#4C4C4C" stroke-width="0.25" d="M68.919,20.608h-6.53v63.513h6.53V20.608z" />
	
		<linearGradient id="SVGID_15_" gradientUnits="userSpaceOnUse" x1="61.4316" y1="25.5625" x2="61.4316" y2="94.7075" gradientTransform="matrix(1 0 0 -1 0 112.5)">
		<stop offset="0" style="stop-color:#0000BF" />
		<stop offset="0.49" style="stop-color:#7F7FFF" />
		<stop offset="0.99" style="stop-color:#0000BF" />
	</linearGradient>
	<path fill="url(#SVGID_15_)" d="M60.475,17.793h1.914v69.145h-1.914V17.793z" />
	
		<linearGradient id="SVGID_16_" gradientUnits="userSpaceOnUse" x1="71.3965" y1="22.1836" x2="71.3965" y2="98.0854" gradientTransform="matrix(1 0 0 -1 0 112.5)">
		<stop offset="0" style="stop-color:#0000BF" />
		<stop offset="0.49" style="stop-color:#7F7FFF" />
		<stop offset="0.99" style="stop-color:#0000BF" />
	</linearGradient>
	<path fill="url(#SVGID_16_)" stroke="#4C4C4C" stroke-width="0.25" d="M74.325,14.415h-5.856v75.901h5.856V14.415z" />
</g>
<g id="Group_Pump_Casing">
	
		<linearGradient id="SVGID_17_" gradientUnits="userSpaceOnUse" x1="51.9155" y1="35.1348" x2="51.9155" y2="85.811" gradientTransform="matrix(1 0 0 -1 0 112.5)">
		<stop offset="0.01" style="stop-color:#4D4D4D" />
		<stop offset="0.51" style="stop-color:#F5F5F5" />
		<stop offset="1" style="stop-color:#4D4D4D" />
	</linearGradient>
	<path fill="url(#SVGID_17_)" stroke="#4C4C4C" stroke-width="0.25" d="M43.019,26.689h17.793v50.676H43.019V26.689z" />
</g>
<g id="Group_Casing2">
	<path fill="#0000BF" stroke="#4C4C4C" stroke-width="0.25" d="M44.483,24.212h14.753v45.833H44.483V24.212z" />
</g>
<g id="Group_Fasteners">
	<path fill="#7F7F7F" d="M29.167,15.653h-1.238v3.378h1.238V15.653z" />
	<path fill="#7F7F7F" d="M29.167,64.752h-1.238v3.379h1.238V64.752z" />
	<path fill="#7F7F7F" d="M29.167,86.6h-1.238v3.379h1.238V86.6z" />
	<path fill="#7F7F7F" d="M29.167,35.923h-1.238v3.041h1.238V35.923z" />
	<path fill="#7F7F7F" d="M35.024,15.653h1.238v3.378h-1.238V15.653z" />
	<path fill="#7F7F7F" d="M35.024,64.752h1.238v3.379h-1.238V64.752z" />
	<path fill="#7F7F7F" d="M35.024,86.6h1.238v3.379h-1.238V86.6z" />
	<path fill="#7F7F7F" d="M35.024,35.923h1.238v3.041h-1.238V35.923z" />
	<path fill="#7F7F7F" d="M74.325,15.653h1.237v3.378h-1.237V15.653z" />
	<path fill="#7F7F7F" d="M74.325,64.752h1.237v3.379h-1.237V64.752z" />
	<path fill="#7F7F7F" d="M74.325,86.6h1.237v3.379h-1.237V86.6z" />
	<path fill="#7F7F7F" d="M74.325,35.923h1.237v3.041h-1.237V35.923z" />
	<path fill="#7F7F7F" d="M68.469,15.653H67.23v3.378h1.238V15.653z" />
	<path fill="#7F7F7F" d="M68.469,64.752H67.23v3.379h1.238V64.752z" />
	<path fill="#7F7F7F" d="M68.469,86.6H67.23v3.379h1.238V86.6z" />
	<path fill="#7F7F7F" d="M68.469,35.923H67.23v3.041h1.238V35.923z" />
</g>
<g id="Group_Indicators">
	
		<radialGradient id="SVGID_18_" cx="52.3096" cy="14.5278" r="4.3643" gradientTransform="matrix(1 0 0 -1 0 112.5)" gradientUnits="userSpaceOnUse">
		<stop offset="0" style="stop-color:#E0E0E0" />
		<stop offset="0.5" style="stop-color:#E0E0E0" />
		<stop offset="1" style="stop-color:#595959" />
	</radialGradient>
	<path fill="url(#SVGID_18_)" d="M52.253,93.693l3.04,1.238l1.465,3.041l-1.465,3.041l-3.04,1.237l-3.153-1.237l-1.238-3.041   l1.238-3.041L52.253,93.693z" />
	
		<radialGradient id="SVGID_19_" cx="52.3096" cy="106.1367" r="4.4482" gradientTransform="matrix(1 0 0 -1 0 112.5)" gradientUnits="userSpaceOnUse">
		<stop offset="0" style="stop-color:#E0E0E0" />
		<stop offset="0.5" style="stop-color:#E0E0E0" />
		<stop offset="1" style="stop-color:#595959" />
	</radialGradient>
	<path fill="url(#SVGID_19_)" d="M52.253,1.915l3.04,1.126l1.465,3.378l-1.465,3.153l-3.04,1.238L49.1,9.572l-1.238-3.153   L49.1,3.041L52.253,1.915z" />
</g>
<g id="Group_Diaphragm_Support">
	
		<linearGradient id="SVGID_20_" gradientUnits="userSpaceOnUse" x1="2.8169" y1="4.8989" x2="23.6499" y2="4.8989" gradientTransform="matrix(1 0 0 -1 0 112.5)">
		<stop offset="0.01" style="stop-color:#333333" />
		<stop offset="0.51" style="stop-color:#F5F5F5" />
		<stop offset="1" style="stop-color:#333333" />
	</linearGradient>
	<path fill="url(#SVGID_20_)" d="M8.898,103.152h8.333v6.42h6.419v2.478H2.817v-2.478h6.081V103.152z" />
	
		<linearGradient id="SVGID_21_" gradientUnits="userSpaceOnUse" x1="79.8428" y1="4.8989" x2="100.6768" y2="4.8989" gradientTransform="matrix(1 0 0 -1 0 112.5)">
		<stop offset="0.01" style="stop-color:#333333" />
		<stop offset="0.51" style="stop-color:#F5F5F5" />
		<stop offset="1" style="stop-color:#333333" />
	</linearGradient>
	<path fill="url(#SVGID_21_)" d="M94.596,103.152h-8.334v6.42h-6.419v2.478h20.834v-2.478h-6.081V103.152z" />
</g>
</svg>