<!DOCTYPE svg PUBLIC "-//W3C//DTD SVG 1.1//EN" "http://www.w3.org/Graphics/SVG/1.1/DTD/svg11.dtd"[]><svg version="1.1" xmlns="http://www.w3.org/2000/svg" xmlns:xlink="http://www.w3.org/1999/xlink" width="112px" height="111px" viewBox="0 0 112.5 110.924" enable-background="new 0 0 112.5 110.924" xml:space="preserve">
<g id="Group_Pump_Support">
	<path fill="#0000FF" stroke="#0000C8" stroke-width="0.25" d="M35.36,87.838h16.441v-4.505H29.617v21.848h-0.901v5.743h14.752   v-5.743H35.36V87.838z" />
	<path fill="#0000FF" d="M58.107,77.703h6.082v8.333h-6.082V77.703z" />
	<path fill="#0000FF" d="M58.107,27.59h6.082v8.334h-6.082V27.59z" />
	<linearGradient id="SVGID_1_" gradientUnits="userSpaceOnUse" x1="61.1484" y1="65.8789" x2="61.1484" y2="48.1987">
		<stop offset="0" style="stop-color:#0000BF" />
		<stop offset="0.49" style="stop-color:#7F7FFF" />
		<stop offset="0.99" style="stop-color:#0000BF" />
	</linearGradient>
	<path fill="url(#SVGID_1_)" d="M58.107,48.198h6.082v17.681h-6.082V48.198z" />
</g>
<g id="Group_Bolts">
	<path d="M61.486,20.383h2.365v5.405h-2.365V24.55h-0.338v-3.266h0.338V20.383z" />
	<path d="M61.486,38.964h2.365v5.405h-2.365v-1.238h-0.338V40.09h0.338V38.964z" />
	<path d="M61.486,69.594h2.365v5.632h-2.365v-1.24h-0.338V70.72h0.338V69.594z" />
	<path d="M61.486,89.64h2.365v5.404h-2.365v-0.9h-0.338v-3.267h0.338V89.64z" />
	<path d="M70.721,24.212h1.803v-2.703h-1.803V24.212z" />
	<path d="M70.721,42.793h1.803V40.09h-1.803V42.793z" />
	<path d="M70.721,73.761h1.803v-2.703h-1.803V73.761z" />
	<path d="M70.721,93.581h1.803v-2.479h-1.803V93.581z" />
	<path fill="#F0F0F0" d="M61.712,24.212h1.802v-2.703h-1.802V24.212z" />
	<path fill="#F0F0F0" d="M61.712,42.793h1.802V40.09h-1.802V42.793z" />
	<path fill="#F0F0F0" d="M61.712,73.761h1.802v-2.703h-1.802V73.761z" />
	<path fill="#F0F0F0" d="M61.712,93.581h1.802v-2.479h-1.802V93.581z" />
</g>
<g id="Group_Port2">
	<linearGradient id="SVGID_2_" gradientUnits="userSpaceOnUse" x1="76.6895" y1="3.0967" x2="112.1621" y2="3.0967">
		<stop offset="0" style="stop-color:#0000BF" />
		<stop offset="0.49" style="stop-color:#7F7FFF" />
		<stop offset="0.99" style="stop-color:#0000BF" />
	</linearGradient>
	<rect x="76.689" fill="url(#SVGID_2_)" width="35.473" height="6.194" />
	<linearGradient id="SVGID_3_" gradientUnits="userSpaceOnUse" x1="89.3018" y1="11.4946" x2="99.5488" y2="11.4946">
		<stop offset="0" style="stop-color:#0000BF" />
		<stop offset="0.49" style="stop-color:#7F7FFF" />
		<stop offset="0.99" style="stop-color:#0000BF" />
	</linearGradient>
	<polygon fill="url(#SVGID_3_)" points="93.243,16.795 93.243,11.686 89.302,11.686 89.302,6.194 99.549,6.194 99.549,16.795  " />
</g>
<g id="Group_High_Temp_Heat_Transit">
	<linearGradient id="SVGID_4_" gradientUnits="userSpaceOnUse" x1="21.8477" y1="38.063" x2="21.8477" y2="76.1265">
		<stop offset="0" style="stop-color:#0000BF" />
		<stop offset="0.49" style="stop-color:#7F7FFF" />
		<stop offset="0.99" style="stop-color:#0000BF" />
	</linearGradient>
	<polygon fill="url(#SVGID_4_)" points="29.617,38.063 14.077,38.063 14.077,76.126 29.618,76.126 29.618,38.063  " />
	<linearGradient id="SVGID_5_" gradientUnits="userSpaceOnUse" x1="40.7095" y1="82.9951" x2="40.7095" y2="31.1934">
		<stop offset="0" style="stop-color:#0000BF" />
		<stop offset="0.49" style="stop-color:#7F7FFF" />
		<stop offset="0.99" style="stop-color:#0000BF" />
	</linearGradient>
	<rect x="29.617" y="31.193" fill="url(#SVGID_5_)" width="22.185" height="51.802" />
	<linearGradient id="SVGID_6_" gradientUnits="userSpaceOnUse" x1="54.9546" y1="88.4014" x2="54.9546" y2="26.0137">
		<stop offset="0" style="stop-color:#0000BF" />
		<stop offset="0.49" style="stop-color:#7F7FFF" />
		<stop offset="0.99" style="stop-color:#0000BF" />
	</linearGradient>
	<rect x="51.801" y="26.013" fill="url(#SVGID_6_)" width="6.307" height="62.388" />
	<linearGradient id="SVGID_7_" gradientUnits="userSpaceOnUse" x1="96.3965" y1="98.3096" x2="96.3965" y2="15.8794">
		<stop offset="0" style="stop-color:#0000BF" />
		<stop offset="0.49" style="stop-color:#7F7FFF" />
		<stop offset="0.99" style="stop-color:#0000BF" />
	</linearGradient>
	<rect x="93.243" y="15.879" fill="url(#SVGID_7_)" width="6.306" height="82.431" />
	<linearGradient id="SVGID_8_" gradientUnits="userSpaceOnUse" x1="76.126" y1="98.3096" x2="76.126" y2="15.8794">
		<stop offset="0" style="stop-color:#0000BF" />
		<stop offset="0.49" style="stop-color:#7F7FFF" />
		<stop offset="0.99" style="stop-color:#0000BF" />
	</linearGradient>
	<polygon fill="url(#SVGID_8_)" points="79.393,15.879 72.859,15.879 72.859,98.31 79.391,98.31 79.391,15.879  " />
	
		<linearGradient id="SVGID_9_" gradientUnits="userSpaceOnUse" x1="67.4551" y1="12.6143" x2="67.4551" y2="95.0454" gradientTransform="matrix(1 0 0 -1 0 110.9238)">
		<stop offset="0" style="stop-color:#0000BF" />
		<stop offset="0.49" style="stop-color:#7F7FFF" />
		<stop offset="0.99" style="stop-color:#0000BF" />
	</linearGradient>
	<rect x="64.189" y="15.879" fill="url(#SVGID_9_)" width="6.531" height="82.431" />
	<linearGradient id="SVGID_10_" gradientUnits="userSpaceOnUse" x1="86.2051" y1="110.5859" x2="86.2051" y2="11.0366">
		<stop offset="0" style="stop-color:#0000BF" />
		<stop offset="0.49" style="stop-color:#7F7FFF" />
		<stop offset="0.99" style="stop-color:#0000BF" />
	</linearGradient>
	<polygon fill="url(#SVGID_10_)" points="69.82,110.586 102.59,110.586 102.59,104.392 93.243,104.392 93.243,11.036 79.393,11.036    79.393,104.392 69.82,104.392  " />
</g>
<g id="Group_Port1">
	<linearGradient id="SVGID_11_" gradientUnits="userSpaceOnUse" x1="109.1777" y1="82.4326" x2="109.1777" y2="31.9824">
		<stop offset="0" style="stop-color:#0000BF" />
		<stop offset="0.49" style="stop-color:#7F7FFF" />
		<stop offset="0.99" style="stop-color:#0000BF" />
	</linearGradient>
	<rect x="105.855" y="31.982" fill="url(#SVGID_11_)" width="6.645" height="50.451" />
	<linearGradient id="SVGID_12_" gradientUnits="userSpaceOnUse" x1="102.7021" y1="69.5938" x2="102.7021" y2="44.9326">
		<stop offset="0" style="stop-color:#0000BF" />
		<stop offset="0.49" style="stop-color:#7F7FFF" />
		<stop offset="0.99" style="stop-color:#0000BF" />
	</linearGradient>
	<rect x="99.549" y="44.932" fill="url(#SVGID_12_)" width="6.307" height="24.662" />
</g>
<g id="Group_Drivershaft_Flange">
	
		<linearGradient id="SVGID_13_" gradientUnits="userSpaceOnUse" x1="7.0386" y1="50.6758" x2="7.0386" y2="56.9829" gradientTransform="matrix(1 0 0 -1 0 110.9238)">
		<stop offset="0.01" style="stop-color:#4D4D4D" />
		<stop offset="0.51" style="stop-color:#F5F5F5" />
		<stop offset="1" style="stop-color:#4D4D4D" />
	</linearGradient>
	<path fill="url(#SVGID_13_)" d="M14.077,53.941H0v6.307h14.077V53.941z" />
</g>
<g id="Group_Float_Switch_Temp_Indicators">
	<path fill="#BFBF00" d="M30.518,40.427h20.383v23.424H30.518V40.427z" />
</g>
<g id="Group_Label3">
	<path fill="#7F7F7F" d="M50.338,42.793h-1.239v1.238h1.239V42.793z" />
	<path fill="#7F7F7F" d="M50.338,45.833h-1.239v1.239h1.239V45.833z" />
	<path fill="#7F7F7F" d="M50.338,52.139h-1.239v0.901h1.239V52.139z" />
	<path fill="#7F7F7F" d="M50.338,55.18h-1.239v0.9h1.239V55.18z" />
	<path fill="#7F7F7F" d="M50.338,58.108h-1.239v1.238h1.239V58.108z" />
	<path fill="#7F7F7F" d="M50.338,61.147h-1.239v1.24h1.239V61.147z" />
	<path fill="#7F7F7F" d="M48.536,42.793h-1.239v1.238h1.239V42.793z" />
	<path fill="#7F7F7F" d="M48.536,45.833h-1.239v1.239h1.239V45.833z" />
	<path fill="#7F7F7F" d="M48.536,52.139h-1.239v0.901h1.239V52.139z" />
	<path fill="#7F7F7F" d="M48.536,55.18h-1.239v0.9h1.239V55.18z" />
	<path fill="#7F7F7F" d="M48.536,58.108h-1.239v1.238h1.239V58.108z" />
	<path fill="#7F7F7F" d="M48.536,61.147h-1.239v1.24h1.239V61.147z" />
	<path fill="#7F7F7F" d="M47.072,42.793h-1.239v1.238h1.239V42.793z" />
	<path fill="#7F7F7F" d="M47.072,45.833h-1.239v1.239h1.239V45.833z" />
	<path fill="#7F7F7F" d="M47.072,52.139h-1.239v0.901h1.239V52.139z" />
	<path fill="#7F7F7F" d="M47.072,55.18h-1.239v0.9h1.239V55.18z" />
	<path fill="#7F7F7F" d="M47.072,58.108h-1.239v1.238h1.239V58.108z" />
	<path fill="#7F7F7F" d="M47.072,61.147h-1.239v1.24h1.239V61.147z" />
	<path fill="#7F7F7F" d="M45.496,45.833h-1.464v1.239h1.464V45.833z" />
	<path fill="#7F7F7F" d="M45.496,55.18h-1.464v0.9h1.464V55.18z" />
	<path fill="#7F7F7F" d="M45.496,58.108h-1.464v1.238h1.464V58.108z" />
	<path fill="#7F7F7F" d="M45.496,61.147h-1.464v1.24h1.464V61.147z" />
	<path fill="#7F7F7F" d="M43.806,49.099h-1.239V50h1.239V49.099z" />
	<path fill="#7F7F7F" d="M42.23,49.099h-1.464V50h1.464V49.099z" />
	<path fill="#7F7F7F" d="M40.428,49.099H39.19V50h1.238V49.099z" />
</g>
<g id="Group_Label1">
	<path fill="#F0F0F0" d="M44.37,42.229H32.32v1.802h12.05V42.229z" />
	<path fill="#F0F0F0" d="M43.468,45.27H32.32v1.802h11.148V45.27z" />
	<path fill="#F0F0F0" d="M38.626,48.198H32.32v2.14h6.306V48.198z" />
	<path fill="#F0F0F0" d="M50.338,48.198h-6.306v2.14h6.306V48.198z" />
	<path fill="#F0F0F0" d="M44.37,51.239H32.32v2.14h12.05V51.239z" />
	<path fill="#F0F0F0" d="M38.063,57.545H32.32v1.802h5.743V57.545z" />
	<path fill="#F0F0F0" d="M43.468,60.586H32.32v1.802h11.148V60.586z" />
</g>
<g id="Group_Label2">
	<path fill="#F0F0F0" d="M47.635,80.631h-3.829l-2.14-3.266l2.14-3.604h3.829l2.14,3.604L47.635,80.631z" />
	<path fill="#F0F0F0" d="M37.725,80.631h-3.829l-2.14-3.266l2.14-3.604h3.829l2.14,3.604L37.725,80.631z" />
</g>
</svg>