<!DOCTYPE svg PUBLIC "-//W3C//DTD SVG 1.1//EN" "http://www.w3.org/Graphics/SVG/1.1/DTD/svg11.dtd"[]><svg version="1.1" xmlns="http://www.w3.org/2000/svg" xmlns:xlink="http://www.w3.org/1999/xlink" width="112px" height="28px" viewBox="0 0 112.5 28.043" enable-background="new 0 0 112.5 28.043" xml:space="preserve">
<g id="Group_Connector_Rod">
	
		<linearGradient id="SVGID_1_" gradientUnits="userSpaceOnUse" x1="70.2705" y1="16.4424" x2="70.2705" y2="21.1719" gradientTransform="matrix(1 0 0 -1 0 28.043)">
		<stop offset="0.01" style="stop-color:#4D4D4D" />
		<stop offset="0.51" style="stop-color:#F5F5F5" />
		<stop offset="1" style="stop-color:#4D4D4D" />
	</linearGradient>
	<path fill="url(#SVGID_1_)" stroke="#4C4C4C" stroke-width="0.25" d="M63.176,6.871h14.189V11.6H63.176V6.871z" />
</g>
<g id="Group_Volute_Chamber">
	<path fill="none" stroke="#4C4C4C" stroke-width="0.25" d="M4.617,18.583V0.002" />
	
		<linearGradient id="SVGID_2_" gradientUnits="userSpaceOnUse" x1="56.3081" y1="-17.5508" x2="69.1172" y2="-17.5508" gradientTransform="matrix(0 -1.4506 0.6185 0 26.6659 100.2297)">
		<stop offset="0.01" style="stop-color:#4D4D4D" />
		<stop offset="0.51" style="stop-color:#F5F5F5" />
		<stop offset="1" style="stop-color:#4D4D4D" />
	</linearGradient>
	<path fill="url(#SVGID_2_)" d="M28.545-0.032c0,0,3.278,2.585,3.066,9.364c-0.214,6.779-1.939,9.106-3.066,9.182   c-1.125,0.078-25.342,0-25.342,0S0,16.773,0,9.333c0-7.439,3.203-9.364,3.203-9.364H28.545z" />
	
		<linearGradient id="SVGID_3_" gradientUnits="userSpaceOnUse" x1="56.2803" y1="37.4883" x2="69.0908" y2="37.4883" gradientTransform="matrix(0 -1.4506 0.6185 0 26.6659 100.2297)">
		<stop offset="0.01" style="stop-color:#4D4D4D" />
		<stop offset="0.51" style="stop-color:#F5F5F5" />
		<stop offset="1" style="stop-color:#4D4D4D" />
	</linearGradient>
	<path fill="url(#SVGID_3_)" d="M62.587,0.007c0,0,3.279,2.585,3.066,9.365c-0.214,6.78-1.94,9.106-3.066,9.184   c-1.125,0.075-25.342,0-25.342,0s-3.204-1.742-3.204-9.184c0-7.44,3.204-9.365,3.204-9.365H62.587z" />
	
		<linearGradient id="SVGID_4_" gradientUnits="userSpaceOnUse" x1="56.2803" y1="12.5308" x2="69.0908" y2="12.5308" gradientTransform="matrix(0 -1.4506 0.6185 0 26.6659 100.2297)">
		<stop offset="0.01" style="stop-color:#4D4D4D" />
		<stop offset="0.51" style="stop-color:#F5F5F5" />
		<stop offset="1" style="stop-color:#4D4D4D" />
	</linearGradient>
	<path fill="url(#SVGID_4_)" d="M47.151,0.007c0,0,3.278,2.585,3.066,9.365c-0.214,6.78-1.94,9.106-3.066,9.184   c-1.125,0.075-25.342,0-25.342,0s-3.203-1.742-3.203-9.184c0-7.44,3.203-9.365,3.203-9.365H47.151z" />
	<path fill="none" stroke="#4C4C4C" stroke-width="0.25" d="M60.924,18.583V0.002" />
	<path fill="none" stroke="#4C4C4C" stroke-width="0.25" d="M60.924,2.142H4.617" />
	<path fill="none" stroke="#4C4C4C" stroke-width="0.25" d="M4.617,4.619h56.307" />
	<path fill="none" stroke="#4C4C4C" stroke-width="0.25" d="M60.924,6.871H4.617" />
	<path fill="none" stroke="#4C4C4C" stroke-width="0.25" d="M4.617,9.124h56.307" />
	<path fill="none" stroke="#4C4C4C" stroke-width="0.25" d="M60.924,11.601H4.617" />
	<path fill="none" stroke="#4C4C4C" stroke-width="0.25" d="M4.617,13.853h56.307" />
	<path fill="none" stroke="#4C4C4C" stroke-width="0.25" d="M60.924,16.331H4.617" />
</g>
<g id="Group_Level_Indicator">
	<path fill="#CCCCCC" d="M23.198,3.268h18.919v9.459H23.198V3.268z" />
	<path fill="#CCCCCC" stroke="#4C4C4C" stroke-width="0.25" d="M25.676,3.38h14.077v9.347H25.676V3.38z" />
</g>
<g id="Group_MakeUp_Tank">
	
		<linearGradient id="SVGID_5_" gradientUnits="userSpaceOnUse" x1="87.8379" y1="14.1899" x2="87.8379" y2="23.6489" gradientTransform="matrix(1 0 0 -1 0 28.043)">
		<stop offset="0.01" style="stop-color:#4D4D4D" />
		<stop offset="0.51" style="stop-color:#F5F5F5" />
		<stop offset="1" style="stop-color:#4D4D4D" />
	</linearGradient>
	<path fill="url(#SVGID_5_)" stroke="#4C4C4C" stroke-width="0.25" d="M77.365,4.394h20.945v9.459H77.365V4.394z" />
</g>
<g id="Group_Layer_6">
	<path fill="#CCCCCC" stroke="#4C4C4C" stroke-width="0.25" d="M89.076,0.002h4.73l1.237,0.225l0.789,1.013l0.226,0.901V16.33   l-0.338,1.352l-1.015,0.788l-0.899,0.112h-4.73l-1.463-0.338l-0.901-0.9L86.6,16.331V2.142l0.338-1.239l1.125-0.788L89.076,0.002z" />
	<path fill="#CCCCCC" stroke="#4C4C4C" stroke-width="0.25" d="M90.203,2.142h2.477l0.676,0.337l0.451,0.789v11.71l-0.451,1.015   l-0.676,0.338h-2.477l-0.451-0.113l-0.449-0.225l-0.227-1.015V3.268V2.817l0.227-0.338l0.449-0.225L90.203,2.142z" />
</g>
<g id="Group_Support">
	<path fill="#CCCCCC" stroke="#4C4C4C" stroke-width="0.25" d="M0,23.313h112.5v4.729H0V23.313z" />
	
		<linearGradient id="SVGID_6_" gradientUnits="userSpaceOnUse" x1="89.0762" y1="7.0952" x2="93.8066" y2="7.0952" gradientTransform="matrix(1 0 0 -1 0 28.043)">
		<stop offset="0.01" style="stop-color:#4D4D4D" />
		<stop offset="0.51" style="stop-color:#F5F5F5" />
		<stop offset="1" style="stop-color:#4D4D4D" />
	</linearGradient>
	<path fill="url(#SVGID_6_)" stroke="#4C4C4C" stroke-width="0.25" d="M89.076,23.313v-4.729h4.73v4.729H89.076z" />
	
		<linearGradient id="SVGID_7_" gradientUnits="userSpaceOnUse" x1="51.4639" y1="7.0952" x2="56.1938" y2="7.0952" gradientTransform="matrix(1 0 0 -1 0 28.043)">
		<stop offset="0.01" style="stop-color:#4D4D4D" />
		<stop offset="0.51" style="stop-color:#F5F5F5" />
		<stop offset="1" style="stop-color:#4D4D4D" />
	</linearGradient>
	<path fill="url(#SVGID_7_)" stroke="#4C4C4C" stroke-width="0.25" d="M51.464,23.313v-4.729h4.73v4.729H51.464z" />
	
		<linearGradient id="SVGID_8_" gradientUnits="userSpaceOnUse" x1="9.3472" y1="7.0952" x2="13.8521" y2="7.0952" gradientTransform="matrix(1 0 0 -1 0 28.043)">
		<stop offset="0.01" style="stop-color:#4D4D4D" />
		<stop offset="0.51" style="stop-color:#F5F5F5" />
		<stop offset="1" style="stop-color:#4D4D4D" />
	</linearGradient>
	<path fill="url(#SVGID_8_)" stroke="#4C4C4C" stroke-width="0.25" d="M9.347,23.313v-4.729h4.505v4.729H9.347z" />
</g>
</svg>