<!DOCTYPE svg PUBLIC "-//W3C//DTD SVG 1.1//EN" "http://www.w3.org/Graphics/SVG/1.1/DTD/svg11.dtd"[]><svg version="1.1" xmlns="http://www.w3.org/2000/svg" xmlns:xlink="http://www.w3.org/1999/xlink" width="112px" height="75px" viewBox="0 0 112.5 75.377" enable-background="new 0 0 112.5 75.377" xml:space="preserve">
<g id="Group_Port1">
	
		<linearGradient id="SVGID_1_" gradientUnits="userSpaceOnUse" x1="53.9517" y1="60.5166" x2="62.1099" y2="60.5166" gradientTransform="matrix(0 2.9515 2.8098 0 -92.3684 -132.0182)">
		<stop offset="0.01" style="stop-color:#4D4D4D" />
		<stop offset="0.51" style="stop-color:#F5F5F5" />
		<stop offset="1" style="stop-color:#4D4D4D" />
	</linearGradient>
	<path fill="url(#SVGID_1_)" d="M106.584,27.222c-21.271,0.004-49.12,0.047-49.12,0.047s-9.2,2.256-9.2,11.895   c0,9.645,9.2,12.138,9.2,12.138h49.62" />
	
		<linearGradient id="SVGID_2_" gradientUnits="userSpaceOnUse" x1="4.0527" y1="20.9258" x2="4.0527" y2="51.0776" gradientTransform="matrix(-1 0 0 -1 112.5039 75.377)">
		<stop offset="0.01" style="stop-color:#4D4D4D" />
		<stop offset="0.51" style="stop-color:#F5F5F5" />
		<stop offset="1" style="stop-color:#4D4D4D" />
	</linearGradient>
	<path fill="url(#SVGID_2_)" d="M112.501,24.299h-8.1v30.152h8.1V24.299" />
</g>
<g id="Group_Volute_Chamber">
	<path fill="#505050" d="M63.085,3.151c0,0,17.55-0.24,28.941,18.897c11.392,19.14-0.736,35.625-0.736,35.625   s-9.07,17.531-32.387,17.617c-23.318,0.086-33.563-23.143-34.15-28.937s-1.302-10.091,1.349-19.128c2.65-9.038-18,0-18,0L8.1,3.151   H63.085z" />
</g>
<g id="Group_Port2">
	
		<linearGradient id="SVGID_3_" gradientUnits="userSpaceOnUse" x1="78.7412" y1="27.2285" x2="78.7412" y2="3.1533" gradientTransform="matrix(-1 0 0 1 112.5 -0.002)">
		<stop offset="0.01" style="stop-color:#4D4D4D" />
		<stop offset="0.51" style="stop-color:#F5F5F5" />
		<stop offset="1" style="stop-color:#4D4D4D" />
	</linearGradient>
	<path fill="url(#SVGID_3_)" d="M60.751,3.151v0.401c-8.674,0.353-14.732,4.352-21.203,9.934c-4.889,4.22,2.217,11.262,7.072,7.071   c4.401-3.797,8.274-6.694,14.131-7.004v13.673H6.769L6.767,3.151H60.751z" />
	
		<linearGradient id="SVGID_4_" gradientUnits="userSpaceOnUse" x1="108.4541" y1="45.2246" x2="108.4541" y2="75.375" gradientTransform="matrix(-1 0 0 -1 112.5039 75.377)">
		<stop offset="0.01" style="stop-color:#4D4D4D" />
		<stop offset="0.51" style="stop-color:#F5F5F5" />
		<stop offset="1" style="stop-color:#4D4D4D" />
	</linearGradient>
	<path fill="url(#SVGID_4_)" d="M8.1,0.001H0l0.002,30.15h8.1L8.1,0.001" />
</g>
<g id="Group_PumpBody">
	
		<radialGradient id="SVGID_5_" cx="52.2026" cy="36.2261" r="34.1997" gradientTransform="matrix(-1 0 0 -1 112.5039 75.377)" gradientUnits="userSpaceOnUse">
		<stop offset="0.76" style="stop-color:#B2B2B2" />
		<stop offset="1" style="stop-color:#505050" />
	</radialGradient>
	<circle fill="url(#SVGID_5_)" cx="60.302" cy="39.151" r="34.2" />
</g>
</svg>