<!DOCTYPE svg PUBLIC "-//W3C//DTD SVG 1.1//EN" "http://www.w3.org/Graphics/SVG/1.1/DTD/svg11.dtd"[]><svg version="1.1" xmlns="http://www.w3.org/2000/svg" xmlns:xlink="http://www.w3.org/1999/xlink" width="112px" height="76px" viewBox="0 0 112.5 76.24" enable-background="new 0 0 112.5 76.24" xml:space="preserve">
<g id="Group_Outlet">
	
		<linearGradient id="SVGID_1_" gradientUnits="userSpaceOnUse" x1="13.1758" y1="64.5273" x2="23.4229" y2="64.5273" gradientTransform="matrix(1 0 0 -1 0 76.2402)">
		<stop offset="0.01" style="stop-color:#7F0000" />
		<stop offset="0.51" style="stop-color:#FF0000" />
		<stop offset="1" style="stop-color:#7F0000" />
	</linearGradient>
	<path fill="url(#SVGID_1_)" stroke="#4C4C4C" stroke-width="0.25" d="M23.423,18.808V4.618H13.176v14.189L23.423,18.808" />
	
		<linearGradient id="SVGID_2_" gradientUnits="userSpaceOnUse" x1="3.8291" y1="73.874" x2="32.771" y2="73.874" gradientTransform="matrix(1 0 0 -1 0 76.2402)">
		<stop offset="0.01" style="stop-color:#7F0000" />
		<stop offset="0.51" style="stop-color:#FF0000" />
		<stop offset="1" style="stop-color:#7F0000" />
	</linearGradient>
	<path fill="url(#SVGID_2_)" stroke="#4C4C4C" stroke-width="0.25" d="M32.771,4.731v-4.73H3.829V4.73L32.771,4.731" />
</g>
<g id="Group_Downstream_Pipe_Flange">
	
		<linearGradient id="SVGID_3_" gradientUnits="userSpaceOnUse" x1="106.5313" y1="38.626" x2="106.5313" y2="42.0039" gradientTransform="matrix(1 0 0 -1 0 76.2402)">
		<stop offset="0.01" style="stop-color:#4D4D4D" />
		<stop offset="0.51" style="stop-color:#F5F5F5" />
		<stop offset="1" style="stop-color:#4D4D4D" />
	</linearGradient>
	<path fill="url(#SVGID_3_)" stroke="#4C4C4C" stroke-width="0.25" d="M102.252,34.236v3.378h8.559v-3.378H102.252z" />
	
		<linearGradient id="SVGID_4_" gradientUnits="userSpaceOnUse" x1="111.374" y1="36.1494" x2="111.374" y2="44.5952" gradientTransform="matrix(1 0 0 -1 0 76.2402)">
		<stop offset="0.01" style="stop-color:#4D4D4D" />
		<stop offset="0.51" style="stop-color:#F5F5F5" />
		<stop offset="1" style="stop-color:#4D4D4D" />
	</linearGradient>
	<path fill="url(#SVGID_4_)" stroke="#4C4C4C" stroke-width="0.25" d="M112.5,31.645v8.446h-2.252v-8.446H112.5z" />
</g>
<g id="Group_Upstream_Pipe_Flange">
	
		<linearGradient id="SVGID_5_" gradientUnits="userSpaceOnUse" x1="84.9102" y1="56.0811" x2="88.2881" y2="56.0811" gradientTransform="matrix(1 0 0 -1 0 76.2402)">
		<stop offset="0.01" style="stop-color:#4D4D4D" />
		<stop offset="0.51" style="stop-color:#F5F5F5" />
		<stop offset="1" style="stop-color:#4D4D4D" />
	</linearGradient>
	<path fill="url(#SVGID_5_)" stroke="#4C4C4C" stroke-width="0.25" d="M84.91,24.438h3.378v-8.559H84.91V24.438z" />
	
		<linearGradient id="SVGID_6_" gradientUnits="userSpaceOnUse" x1="82.4336" y1="60.6982" x2="90.7656" y2="60.6982" gradientTransform="matrix(1 0 0 -1 0 76.2402)">
		<stop offset="0.01" style="stop-color:#4D4D4D" />
		<stop offset="0.51" style="stop-color:#F5F5F5" />
		<stop offset="1" style="stop-color:#4D4D4D" />
	</linearGradient>
	<path fill="url(#SVGID_6_)" stroke="#4C4C4C" stroke-width="0.25" d="M82.434,14.415h8.332v2.253h-8.332V14.415z" />
</g>
<g id="Group_Layer_9">
	<path fill="#FF0000" stroke="#4C4C4C" stroke-width="0.25" d="M1.352,28.379l11.711-18.355v54.842L1.352,56.532V28.379z" />
</g>
<g id="Group_Layer_8">
	
		<linearGradient id="SVGID_7_" gradientUnits="userSpaceOnUse" x1="8.8403" y1="18.6934" x2="8.8403" y2="50.3384" gradientTransform="matrix(1 0 0 -1 0 76.2402)">
		<stop offset="0.01" style="stop-color:#7F0000" />
		<stop offset="0.51" style="stop-color:#FF0000" />
		<stop offset="1" style="stop-color:#7F0000" />
	</linearGradient>
	<path fill="url(#SVGID_7_)" d="M4.054,25.902h9.572v31.645H4.054V25.902z" />
	
		<linearGradient id="SVGID_8_" gradientUnits="userSpaceOnUse" x1="2.1392" y1="18.4697" x2="2.1392" y2="50.7896" gradientTransform="matrix(1 0 0 -1 0 76.2402)">
		<stop offset="0.01" style="stop-color:#7F0000" />
		<stop offset="0.51" style="stop-color:#FF0000" />
		<stop offset="1" style="stop-color:#7F0000" />
	</linearGradient>
	<path fill="url(#SVGID_8_)" stroke="#4C4C4C" stroke-width="0.25" d="M4.279,25.451H0v32.319h4.279V25.451z" />
	<linearGradient id="SVGID_9_" gradientUnits="userSpaceOnUse" x1="17.5112" y1="64.8662" x2="17.5112" y2="18.4702">
		<stop offset="0.01" style="stop-color:#7F0000" />
		<stop offset="0.51" style="stop-color:#FF0000" />
		<stop offset="1" style="stop-color:#7F0000" />
	</linearGradient>
	<rect x="12.275" y="18.47" fill="url(#SVGID_9_)" stroke="#4C4C4C" stroke-width="0.25" width="10.473" height="46.396" />
</g>
<g id="Group_Volute_Chamber">
	
		<linearGradient id="SVGID_10_" gradientUnits="userSpaceOnUse" x1="88.7813" y1="11.374" x2="88.7813" y2="57.771" gradientTransform="matrix(1 0 0 -1 0 76.2402)">
		<stop offset="0.01" style="stop-color:#7F0000" />
		<stop offset="0.51" style="stop-color:#FF0000" />
		<stop offset="1" style="stop-color:#7F0000" />
	</linearGradient>
	<path fill="url(#SVGID_10_)" stroke="#4C4C4C" stroke-width="0.25" d="M106.645,18.47H70.917v46.396h35.728V18.47" />
</g>
<g id="Group_MakeUp_Tank">
	<path fill="#7F7F7F" stroke="#4C4C4C" stroke-width="0.25" d="M36.712,40.767H35.36h-1.464v1.689h1.464h1.352V40.767z" />
	<path fill="#7F7F7F" stroke="#4C4C4C" stroke-width="0.25" d="M35.248,38.74H31.87v5.856h3.378V38.74z" />
	<path fill="#4C4C4C" stroke="#4C4C4C" stroke-width="0.25" d="M35.248,42.681H31.87v1.916h3.378V42.681z" />
	
		<linearGradient id="SVGID_11_" gradientUnits="userSpaceOnUse" x1="47.4097" y1="0" x2="47.4097" y2="69.144" gradientTransform="matrix(1 0 0 -1 0 76.2402)">
		<stop offset="0.01" style="stop-color:#7F0000" />
		<stop offset="0.51" style="stop-color:#FF0000" />
		<stop offset="1" style="stop-color:#7F0000" />
	</linearGradient>
	<path fill="url(#SVGID_11_)" d="M22.748,76.24V7.096h8.896v7.657h35.135V8.898h5.293v66.216h-5.293v-6.42H31.644v7.546H22.748z" />
	<path fill="none" stroke="#4C4C4C" stroke-width="0.25" d="M22.748,76.24V7.096h8.896v7.657h35.135V8.898h5.293v66.216h-5.293   v-6.42H31.644v7.546H22.748" />
	<path fill="none" stroke="#4C4C4C" stroke-width="0.25" d="M31.644,14.753v53.941" />
	<path fill="none" stroke="#4C4C4C" stroke-width="0.25" d="M26.915,7.096V76.24" />
	<path fill="none" stroke="#4C4C4C" stroke-width="0.25" d="M66.779,14.753v53.941" />
	<path fill="none" stroke="#4C4C4C" stroke-width="0.25" d="M69.707,8.898v66.216" />
</g>
<g id="Group_Hexagon_Bolt">
	
		<linearGradient id="SVGID_12_" gradientUnits="userSpaceOnUse" x1="91.5547" y1="29.6182" x2="102.0293" y2="29.6182" gradientTransform="matrix(1 0 0 -1 0 76.2402)">
		<stop offset="0.01" style="stop-color:#4D4D4D" />
		<stop offset="0.51" style="stop-color:#F5F5F5" />
		<stop offset="1" style="stop-color:#4D4D4D" />
	</linearGradient>
	<path fill="url(#SVGID_12_)" stroke="#4C4C4C" stroke-width="0.25" d="M94.145,51.24h0.226h4.955h0.225v-0.226l2.479-4.166v-0.227   l-2.479-4.393h-0.225v-0.226v0.226H94.37l-0.226-0.226v0.226l-2.365,4.393h-0.225l0.225,0.227l2.365,4.166V51.24z" />
	<path fill="#CCCCCC" stroke="#4C4C4C" stroke-width="0.25" d="M74.212,60.699h0.226h2.929h0.225l1.466-2.703v-0.226l-1.466-2.364   v-0.226h-0.225h-2.929h-0.226v0.226l-1.464,2.364v0.226l1.464,2.478V60.699z" />
	
		<radialGradient id="SVGID_13_" cx="96.7344" cy="29.5049" r="3.041" gradientTransform="matrix(1 0 0 -1 0 76.2402)" gradientUnits="userSpaceOnUse">
		<stop offset="0" style="stop-color:#F5F5F5" />
		<stop offset="1" style="stop-color:#4D4D4D" />
	</radialGradient>
	<circle fill="url(#SVGID_13_)" stroke="#4C4C4C" stroke-width="0.25" cx="96.734" cy="46.735" r="3.041" />
	<circle fill="#666666" stroke="#4C4C4C" stroke-width="0.25" cx="75.9" cy="57.884" r="1.914" />
</g>
<g id="Group_Bolts">
	<path fill="#7F7F7F" stroke="#4C4C4C" stroke-width="0.25" d="M36.261,10.586h-1.577v1.915h1.577V10.586z" />
	<path fill="#7F7F7F" stroke="#4C4C4C" stroke-width="0.25" d="M36.261,70.947h-1.689v1.688h1.689V70.947z" />
	
		<linearGradient id="SVGID_14_" gradientUnits="userSpaceOnUse" x1="33.5591" y1="61.8252" x2="33.5591" y2="67.6797" gradientTransform="matrix(1 0 0 -1 0 76.2402)">
		<stop offset="0.01" style="stop-color:#4D4D4D" />
		<stop offset="0.51" style="stop-color:#F5F5F5" />
		<stop offset="1" style="stop-color:#4D4D4D" />
	</linearGradient>
	<path fill="url(#SVGID_14_)" stroke="#4C4C4C" stroke-width="0.25" d="M35.248,8.56H31.87v5.855h3.378V8.56z" />
	
		<linearGradient id="SVGID_15_" gradientUnits="userSpaceOnUse" x1="33.5591" y1="1.5771" x2="33.5591" y2="7.208" gradientTransform="matrix(1 0 0 -1 0 76.2402)">
		<stop offset="0.01" style="stop-color:#4D4D4D" />
		<stop offset="0.51" style="stop-color:#F5F5F5" />
		<stop offset="1" style="stop-color:#4D4D4D" />
	</linearGradient>
	<path fill="url(#SVGID_15_)" stroke="#4C4C4C" stroke-width="0.25" d="M35.248,69.032H31.87v5.631h3.378V69.032z" />
	<path fill="#7F7F7F" stroke="#4C4C4C" stroke-width="0.25" d="M77.141,11.262H75v1.689h2.141V11.262z" />
	<path fill="#7F7F7F" stroke="#4C4C4C" stroke-width="0.25" d="M77.141,70.272H75v1.688h2.141V70.272z" />
	
		<linearGradient id="SVGID_16_" gradientUnits="userSpaceOnUse" x1="73.7617" y1="61.2607" x2="73.7617" y2="66.8916" gradientTransform="matrix(1 0 0 -1 0 76.2402)">
		<stop offset="0.01" style="stop-color:#4D4D4D" />
		<stop offset="0.51" style="stop-color:#F5F5F5" />
		<stop offset="1" style="stop-color:#4D4D4D" />
	</linearGradient>
	<path fill="url(#SVGID_16_)" stroke="#4C4C4C" stroke-width="0.25" d="M75.676,9.348h-3.828v5.631h3.828V9.348z" />
	
		<linearGradient id="SVGID_17_" gradientUnits="userSpaceOnUse" x1="73.7617" y1="2.3652" x2="73.7617" y2="7.9961" gradientTransform="matrix(1 0 0 -1 0 76.2402)">
		<stop offset="0.01" style="stop-color:#4D4D4D" />
		<stop offset="0.51" style="stop-color:#F5F5F5" />
		<stop offset="1" style="stop-color:#4D4D4D" />
	</linearGradient>
	<path fill="url(#SVGID_17_)" stroke="#4C4C4C" stroke-width="0.25" d="M75.676,68.244h-3.828v5.631h3.828V68.244z" />
</g>
</svg>