<!DOCTYPE svg PUBLIC "-//W3C//DTD SVG 1.1//EN" "http://www.w3.org/Graphics/SVG/1.1/DTD/svg11.dtd"[]><svg version="1.1" xmlns="http://www.w3.org/2000/svg" xmlns:xlink="http://www.w3.org/1999/xlink" width="112px" height="100px" viewBox="0 0 112.5 99.936" enable-background="new 0 0 112.5 99.936" xml:space="preserve">
<g id="Group_Support">
	
		<linearGradient id="SVGID_1_" gradientUnits="userSpaceOnUse" x1="0" y1="13.5149" x2="84.3271" y2="13.5149" gradientTransform="matrix(1 0 0 -1 0 99.936)">
		<stop offset="0.01" style="stop-color:#3D3D3D" />
		<stop offset="0.5" style="stop-color:#7F7F7F" />
		<stop offset="1" style="stop-color:#3D3D3D" />
	</linearGradient>
	<path fill="url(#SVGID_1_)" stroke="#4C4C4C" stroke-width="0.25" d="M70.621,73.096l-3.045,2.475l-3.047,2.284l-3.426,1.903   l-3.426,1.714l-3.808,1.143l-3.807,0.951l-3.807,0.571l-3.998,0.19l-3.997-0.19l-3.998-0.571l-3.807-0.951l-3.807-1.332   l-3.617-1.714l-3.426-1.903l-3.046-2.284l-2.855-2.475L0,99.936h84.327L70.621,73.096z" />
</g>
<g id="Group_Port">
	
		<linearGradient id="SVGID_2_" gradientUnits="userSpaceOnUse" x1="77.3799" y1="71.9553" x2="77.3799" y2="99.9358" gradientTransform="matrix(1 0 0 -1 0 99.936)">
		<stop offset="0.01" style="stop-color:#3D3D3D" />
		<stop offset="0.5" style="stop-color:#7F7F7F" />
		<stop offset="1" style="stop-color:#3D3D3D" />
	</linearGradient>
	<rect x="42.259" y="0" fill="url(#SVGID_2_)" stroke="#4C4C4C" stroke-width="0.25" width="70.241" height="27.98" />
</g>
<g id="Group_Volute_Chamber">
	
		<radialGradient id="SVGID_3_" cx="41.7832" cy="57.8665" r="41.926" gradientTransform="matrix(1 0 0 -1 0 99.936)" gradientUnits="userSpaceOnUse">
		<stop offset="0" style="stop-color:#7F7F7F" />
		<stop offset="0.58" style="stop-color:#6B6B6B" />
		<stop offset="1" style="stop-color:#3D3D3D" />
	</radialGradient>
	<ellipse fill="url(#SVGID_3_)" stroke="#4C4C4C" stroke-width="0.25" cx="41.783" cy="42.069" rx="41.783" ry="42.068" />
</g>
</svg>