<!DOCTYPE svg PUBLIC "-//W3C//DTD SVG 1.1//EN" "http://www.w3.org/Graphics/SVG/1.1/DTD/svg11.dtd"[]><svg version="1.1" xmlns="http://www.w3.org/2000/svg" xmlns:xlink="http://www.w3.org/1999/xlink" width="94px" height="112px" viewBox="0 0 93.693 112.5" enable-background="new 0 0 93.693 112.5" xml:space="preserve">
<g id="Group_Pump_Volute_Chamber">
	
		<linearGradient id="SVGID_1_" gradientUnits="userSpaceOnUse" x1="-2.441406e-004" y1="56.25" x2="93.6941" y2="56.25" gradientTransform="matrix(1 0 0 -1 0 112.5)">
		<stop offset="0.01" style="stop-color:#4D4D4D" />
		<stop offset="0.51" style="stop-color:#E0E0E0" />
		<stop offset="1" style="stop-color:#4D4D4D" />
	</linearGradient>
	<path fill="url(#SVGID_1_)" d="M9.347,93.693l-3.491-0.788l-3.041-2.14l-2.141-3.041L0,85.135v-0.787v-2.365V9.347l0.676-3.491   l2.141-3.041l3.041-2.14L8.446,0h0.901h2.252h72.748l3.379,0.676l3.04,2.14l2.14,3.041l0.788,2.59v0.901v2.365v72.635l-0.788,3.379   l-2.14,3.041l-3.04,2.14l-3.379,0.788H65.54l4.73,16.44L75,112.5H18.694l4.729-2.365l4.617-16.441H9.347L9.347,93.693z" />
	<path fill="none" stroke="#4C4C4C" stroke-width="0.25" d="M28.041,93.693h37.5" />
</g>
<g id="Group_Impeller_Chamber">
	
		<radialGradient id="SVGID_2_" cx="46.8469" cy="65.6533" r="46.8469" gradientTransform="matrix(1 0 0 -1 0 112.5)" gradientUnits="userSpaceOnUse">
		<stop offset="0" style="stop-color:#FFFFFF" />
		<stop offset="1" style="stop-color:#C0C0C0" />
	</radialGradient>
	<circle fill="url(#SVGID_2_)" stroke="#4C4C4C" stroke-width="0.25" cx="46.847" cy="46.847" r="46.847" />
</g>
<g id="Group_Bolt">
	<radialGradient id="SVGID_3_" cx="14.302" cy="28.041" r="6.9819" gradientUnits="userSpaceOnUse">
		<stop offset="0" style="stop-color:#E0E0E0" />
		<stop offset="0.5" style="stop-color:#E0E0E0" />
		<stop offset="1" style="stop-color:#808080" />
	</radialGradient>
	<circle fill="url(#SVGID_3_)" cx="14.302" cy="28.041" r="6.982" />
	<radialGradient id="SVGID_4_" cx="14.302" cy="65.541" r="6.9822" gradientUnits="userSpaceOnUse">
		<stop offset="0" style="stop-color:#E0E0E0" />
		<stop offset="0.5" style="stop-color:#E0E0E0" />
		<stop offset="1" style="stop-color:#808080" />
	</radialGradient>
	<circle fill="url(#SVGID_4_)" cx="14.302" cy="65.541" r="6.982" />
	<radialGradient id="SVGID_5_" cx="46.7336" cy="84.2344" r="6.9817" gradientUnits="userSpaceOnUse">
		<stop offset="0" style="stop-color:#E0E0E0" />
		<stop offset="0.5" style="stop-color:#E0E0E0" />
		<stop offset="1" style="stop-color:#808080" />
	</radialGradient>
	<circle fill="url(#SVGID_5_)" cx="46.734" cy="84.234" r="6.982" />
	<radialGradient id="SVGID_6_" cx="79.2791" cy="65.541" r="6.9824" gradientUnits="userSpaceOnUse">
		<stop offset="0" style="stop-color:#E0E0E0" />
		<stop offset="0.5" style="stop-color:#E0E0E0" />
		<stop offset="1" style="stop-color:#808080" />
	</radialGradient>
	<circle fill="url(#SVGID_6_)" cx="79.279" cy="65.541" r="6.982" />
	<radialGradient id="SVGID_7_" cx="79.2791" cy="28.041" r="6.9822" gradientUnits="userSpaceOnUse">
		<stop offset="0" style="stop-color:#E0E0E0" />
		<stop offset="0.5" style="stop-color:#E0E0E0" />
		<stop offset="1" style="stop-color:#808080" />
	</radialGradient>
	<circle fill="url(#SVGID_7_)" cx="79.279" cy="28.041" r="6.982" />
	<radialGradient id="SVGID_8_" cx="46.7791" cy="9.541" r="6.9824" gradientUnits="userSpaceOnUse">
		<stop offset="0" style="stop-color:#E0E0E0" />
		<stop offset="0.5" style="stop-color:#E0E0E0" />
		<stop offset="1" style="stop-color:#808080" />
	</radialGradient>
	<circle fill="url(#SVGID_8_)" cx="46.779" cy="9.541" r="6.982" />
</g>
</svg>