<!DOCTYPE svg PUBLIC "-//W3C//DTD SVG 1.1//EN" "http://www.w3.org/Graphics/SVG/1.1/DTD/svg11.dtd"[]><svg version="1.1" xmlns="http://www.w3.org/2000/svg" xmlns:xlink="http://www.w3.org/1999/xlink" width="103px" height="112px" viewBox="0 0 102.593 112.5" enable-background="new 0 0 102.593 112.5" xml:space="preserve">
<g id="Group_Volute_Chamber">
	
		<radialGradient id="SVGID_1_" cx="51.1392" cy="52.0459" r="51.3771" gradientTransform="matrix(0.9659 -0.2588 0.5176 1.9319 -25.1984 -35.2632)" gradientUnits="userSpaceOnUse">
		<stop offset="0.41" style="stop-color:#2E8C2E" />
		<stop offset="0.68" style="stop-color:#82E082" />
		<stop offset="0.95" style="stop-color:#217F21" />
	</radialGradient>
	<path fill="url(#SVGID_1_)" d="M51.5,103.045c-3.459-1.745-5.767-4.736-8.801-7.057c-2.942-2.249-5.259-4.618-7.538-7.544   c-3.065-3.938-9.126-10.119-9.519-15.869c-2.866-7.262-0.592-15.039,0.992-22.85c1.047-5.164,2.311-11.583,6.567-14.917   c0.466-0.913,0.951-1.842,1.483-2.733c0-0.107,0.002-0.208,0.002-0.318c0-16.81,0-31.757,0-31.757H0.452   c0,0,0.03,65.443,4.842,72.859c4.677,7.209,14.995,31.059,48.831,31.232C53.233,103.818,52.357,103.477,51.5,103.045z" />
	<radialGradient id="my_cir_2_" cx="61.0649" cy="62.4453" r="40.6743" gradientUnits="userSpaceOnUse">
		<stop offset="0.54" style="stop-color:#53B153" />
		<stop offset="0.65" style="stop-color:#217F21" />
		<stop offset="0.83" style="stop-color:#82E082" />
		<stop offset="1" style="stop-color:#217F21" />
	</radialGradient>
	<ellipse id="my_cir_1_" fill="url(#my_cir_2_)" cx="61.065" cy="62.445" rx="40.72" ry="40.629" />
	<ellipse fill="none" stroke="#007800" stroke-width="0.25" cx="61.066" cy="62.404" rx="26.295" ry="26.94" />
	<circle fill="#F0F0F0" cx="61.263" cy="62.725" r="18.356" />
</g>
<g id="Group_Support">
	<path fill="#217F21" stroke="#4C4C4C" stroke-width="0.25" d="M70.947,63.514h8.446v28.041h-7.095l-11.262-3.379l-11.036,3.379   h-7.095V63.514h8.446v4.842l4.842,4.844h9.572l5.18-4.844L70.947,63.514L70.947,63.514z" />
	<path fill="#217F21" stroke="#4C4C4C" stroke-width="0.25" d="M38.064,91.555h44.707v18.355H38.064V91.555z" />
</g>
<g id="Group_Core">
	<radialGradient id="SVGID_2_" cx="61.1499" cy="62.5" r="16.5547" gradientUnits="userSpaceOnUse">
		<stop offset="0.19" style="stop-color:#82E082" />
		<stop offset="1" style="stop-color:#258325" />
	</radialGradient>
	<circle fill="url(#SVGID_2_)" cx="61.15" cy="62.5" r="16.554" />
	<circle fill="#82E082" stroke="#4C4C4C" stroke-width="0.25" cx="61.263" cy="62.612" r="9.347" />
	<radialGradient id="SVGID_3_" cx="61.2632" cy="62.6123" r="6.1831" gradientUnits="userSpaceOnUse">
		<stop offset="0" style="stop-color:#E0E0E0" />
		<stop offset="0.5" style="stop-color:#E0E0E0" />
		<stop offset="1" style="stop-color:#595959" />
	</radialGradient>
	<circle fill="url(#SVGID_3_)" cx="61.263" cy="62.612" r="6.183" />
</g>
<g id="Group_Stripes">
	<path fill="#43A143" d="M101.126,67.793l-0.338,1.464l-13.513-1.464l0.337-1.464L101.126,67.793z" />
	<path fill="#43A143" d="M91.781,88.738l-0.789,1.127l-10.473-9.122l0.9-0.788L91.781,88.738z" />
	<path fill="#82E082" d="M66.667,36.712l0.789,0.225l-1.689,7.996l-0.788-0.338L66.667,36.712z" />
	<path fill="#82E082" d="M51.69,37.838l0.789-0.338l2.59,7.658l-0.901,0.338L51.69,37.838z" />
	<path fill="#82E082" d="M40.091,46.847l0.563-0.563l6.194,4.842l-0.563,0.563L40.091,46.847z" />
	<path fill="#82E082" d="M35.024,60.698V59.91l7.883,0.788V61.6L35.024,60.698z" />
	<path fill="#82E082" d="M38.064,75.113l-0.225-0.789l5.067-2.59v0.899L38.064,75.113z" />
	<path fill="#82E082" d="M85.925,71.734l-0.338,0.899l-6.532-2.252l0.563-0.899L85.925,71.734z" />
	<path fill="#82E082" d="M87.05,57.095l0.227,0.788l-7.884,1.689v-0.789L87.05,57.095z" />
	<path fill="#82E082" d="M79.957,43.806l0.563,0.789l-5.97,5.63l-0.563-0.788L79.957,43.806z" />
	<path fill="#82E082" d="M97.412,45.721l0.676,1.126l-12.162,5.631l-0.563-1.126L97.412,45.721z" />
	<path fill="#82E082" d="M82.546,28.829l1.014,0.563l-7.32,11.261l-1.126-0.563L82.546,28.829z" />
	<path fill="#82E082" d="M60.474,22.522h1.352v14.415h-1.352V22.522z" />
	<path fill="#82E082" d="M38.965,29.392l1.126-0.563l7.658,11.824l-1.464,0.788L38.965,29.392z" />
	<path fill="#82E082" d="M27.929,48.536l0.563-1.352l8.784,3.941l-0.563,1.352L27.929,48.536z" />
	<path fill="#82E082" d="M25.339,68.581v-1.353l9.685-1.125v1.352L25.339,68.581z" />
	<path fill="#82E082" d="M34.461,87.05l-0.901-1.126l7.094-6.307l1.126,0.9L34.461,87.05z" />
	<path fill="#82E082" stroke="#4C4C4C" stroke-width="0.25" d="M31.646,83.334l-0.676-0.563l-0.563-0.789l-10.135,8.672l1.126,1.125   L31.646,83.334z" />
	<path fill="#82E082" stroke="#4C4C4C" stroke-width="0.25" d="M26.24,72.297l0.563,1.465l-14.189,7.319l-0.788-1.464L26.24,72.297z   " />
	<path fill="#82E082" stroke="#4C4C4C" stroke-width="0.25" d="M25.339,58.221l-0.226,1.689l-18.13,4.166l-0.225-1.352   L25.339,58.221z" />
	<path fill="#82E082" stroke="#4C4C4C" stroke-width="0.25" d="M29.619,45.158l-0.789,1.689L4.168,48.874v-1.689L29.619,45.158z" />
	<path fill="#82E082" stroke="#4C4C4C" stroke-width="0.25" d="M4.506,35.811l25.901-0.788v1.689L4.506,37.5V35.811z" />
	<path fill="#82E082" stroke="#4C4C4C" stroke-width="0.25" d="M4.506,24.775h25.901v1.689H4.506V24.775z" />
	<path fill="#82E082" stroke="#4C4C4C" stroke-width="0.25" d="M4.506,12.05h25.901v1.689H4.506V12.05z" />
	<path fill="#82E082" stroke="#4C4C4C" stroke-width="0.25" d="M4.506,1.577h25.901v1.802H4.506V1.577z" />
</g>
<g id="Group_Base">
	<path d="M32.771,111.938h15.203v-2.026H32.771V111.938z" />
	<path d="M72.862,111.938h15.54v-2.026h-15.54V111.938z" />
</g>
<g id="Group_SRH">
	<path d="M50.79,93.807h19.256l8.445,6.981l-8.445,6.87H50.79l-8.446-6.87L50.79,93.807z" />
</g>
<g id="Group_Support2">
	<path fill="#005E00" stroke="#4C4C4C" stroke-width="0.25" d="M70.609,62.162v0.563l-0.225,0.789h10.359v-1.352H70.609z" />
	<path fill="#005E00" stroke="#4C4C4C" stroke-width="0.25" d="M51.916,63.514v-0.789v-0.563H41.443v1.352H51.916z" />
</g>
<g id="Group_Bolts">
	<path fill="#F0F0F0" stroke="#4C4C4C" stroke-width="0.25" d="M32.434,3.604h1.126l0.901-0.788L33.56,1.577h-1.126l-0.563,1.239   L32.434,3.604z" />
	<path fill="#F0F0F0" stroke="#4C4C4C" stroke-width="0.25" d="M32.434,18.018h1.464l0.563-0.789l-0.563-1.126h-1.464l-0.563,1.126   L32.434,18.018z" />
	<path fill="#F0F0F0" stroke="#4C4C4C" stroke-width="0.25" d="M1.578,26.464h1.239l0.788-0.788L2.817,24.55H1.578l-0.563,1.126   L1.578,26.464z" />
	<path fill="#F0F0F0" stroke="#4C4C4C" stroke-width="0.25" d="M1.578,3.604h1.239L3.38,2.815L2.817,1.577H1.578L0.79,2.815   L1.578,3.604z" />
	<circle fill="#7F7F7F" cx="32.997" cy="2.703" r="0.563" />
	<ellipse fill="#7F7F7F" cx="33.334" cy="17.004" rx="0.563" ry="0.338" />
	<ellipse fill="#7F7F7F" cx="2.141" cy="25.45" rx="0.563" ry="0.338" />
	<circle fill="#7F7F7F" cx="2.141" cy="2.703" r="0.563" />
	<path fill="#7F7F7F" stroke="#4C4C4C" stroke-width="0.25" d="M95.16,80.743h1.463l0.563-1.126l-0.563-1.126H95.16l-0.451,1.126   L95.16,80.743z" />
	<path fill="#7F7F7F" stroke="#4C4C4C" stroke-width="0.25" d="M83.56,94.369h1.126l0.901-0.9l-0.901-1.127H83.56l-0.563,1.127   L83.56,94.369z" />
	<path fill="#7F7F7F" d="M78.492,61.036h0.563v1.126h-0.563V61.036z" />
	<path fill="#7F7F7F" d="M44.033,63.514h0.901v1.127h-0.901V63.514z" />
	<path fill="#7F7F7F" d="M42.907,63.514h0.563v1.127h-0.563V63.514z" />
	<path fill="#7F7F7F" d="M42.907,61.036h0.563v1.126h-0.563V61.036z" />
	<path fill="#7F7F7F" d="M44.033,61.036h0.901v1.126h-0.901V61.036z" />
	<path fill="#7F7F7F" d="M77.141,61.036h0.788v1.126h-0.788V61.036z" />
	<path fill="#7F7F7F" d="M77.141,63.514h0.788v1.127h-0.788V63.514z" />
	<path fill="#7F7F7F" d="M78.492,63.514h0.563v1.127h-0.563V63.514z" />
	<path fill="#F0F0F0" stroke="#4C4C4C" stroke-width="0.25" d="M82.771,59.009h0.789l0.563-0.563l-0.563-0.786h-0.789l-0.225,0.786   L82.771,59.009z" />
	<path fill="#F0F0F0" stroke="#4C4C4C" stroke-width="0.25" d="M32.771,36.148h1.352l0.563-0.901l-0.563-1.126h-1.352l-0.563,1.126   L32.771,36.148z" />
	<path fill="#F0F0F0" stroke="#4C4C4C" stroke-width="0.25" d="M42.907,50h0.901l0.563-0.563l-0.563-0.901h-0.901l-0.338,0.901   L42.907,50z" />
	<path fill="#F0F0F0" stroke="#4C4C4C" stroke-width="0.25" d="M65.767,41.779h0.9l0.226-0.788l-0.226-0.563h-0.9l-0.563,0.563   L65.767,41.779z" />
	<path fill="#F0F0F0" stroke="#4C4C4C" stroke-width="0.25" d="M49.664,26.802h1.464l0.563-1.126l-0.563-0.901h-1.464l-0.563,0.901   L49.664,26.802z" />
	<path fill="#F0F0F0" stroke="#4C4C4C" stroke-width="0.25" d="M71.736,26.802h1.126l0.563-0.901l-0.563-1.126h-1.126l-0.563,1.126   L71.736,26.802z" />
	<path fill="#F0F0F0" stroke="#4C4C4C" stroke-width="0.25" d="M89.303,38.063h1.351l0.564-1.126l-0.564-1.126h-1.351l-0.563,1.126   L89.303,38.063z" />
	<path fill="#F0F0F0" stroke="#4C4C4C" stroke-width="0.25" d="M98.65,56.757h1.127l0.563-1.126l-0.563-1.126H98.65l-0.563,1.126   L98.65,56.757z" />
	<path fill="#F0F0F0" stroke="#4C4C4C" stroke-width="0.25" d="M30.182,98.086h1.126l0.563-1.238l-0.563-1.127h-1.126l-0.789,1.127   L30.182,98.086z" />
	<path fill="#F0F0F0" stroke="#4C4C4C" stroke-width="0.25" d="M15.542,87.613h1.126l0.563-1.127l-0.563-1.127h-1.126l-0.901,1.127   L15.542,87.613z" />
	<path fill="#F0F0F0" stroke="#4C4C4C" stroke-width="0.25" d="M6.195,73.986h1.126l0.563-1.127l-0.563-0.9H6.195l-0.901,0.9   L6.195,73.986z" />
	<path fill="#F0F0F0" stroke="#4C4C4C" stroke-width="0.25" d="M2.479,46.059h1.126l0.563-1.126l-0.563-1.126H2.479l-0.901,1.126   L2.479,46.059z" />
	<path fill="#F0F0F0" stroke="#4C4C4C" stroke-width="0.25" d="M78.492,61.036h-0.563v1.126h0.563V61.036z" />
	<path fill="#F0F0F0" stroke="#4C4C4C" stroke-width="0.25" d="M78.492,63.514h-0.563v1.127h0.563V63.514z" />
	<path fill="#F0F0F0" stroke="#4C4C4C" stroke-width="0.25" d="M44.033,61.036H43.47v1.126h0.563V61.036z" />
	<path fill="#F0F0F0" stroke="#4C4C4C" stroke-width="0.25" d="M44.033,63.514H43.47v1.127h0.563V63.514z" />
	<path fill="#7F7F7F" d="M83.333,57.883l0.227,0.338v0.225v0.339h-0.227h-0.336l-0.228-0.339v-0.225h0.228v-0.338H83.333z" />
	<circle fill="#7F7F7F" cx="33.334" cy="35.135" r="0.563" />
	<circle fill="#7F7F7F" cx="50.227" cy="25.676" r="0.563" />
	<path fill="#7F7F7F" d="M72.298,25.338h0.338l0.226,0.338v0.225l-0.226,0.338l-0.338,0.225l-0.338-0.225l-0.226-0.338v-0.225   l0.226-0.338H72.298z" />
	<path fill="#7F7F7F" d="M90.091,36.374l0.338,0.338v0.225v0.338L90.091,37.5h-0.225l-0.339-0.225v-0.338v-0.225l0.339-0.338H90.091   z" />
	<circle fill="#7F7F7F" cx="99.212" cy="55.631" r="0.563" />
	<circle fill="#7F7F7F" cx="30.745" cy="96.847" r="0.563" />
	<path fill="#7F7F7F" d="M16.105,85.924l0.225,0.225l0.338,0.338l-0.338,0.227l-0.225,0.338h-0.338l-0.225-0.338v-0.227v-0.338   l0.225-0.225H16.105z" />
	<circle fill="#7F7F7F" cx="6.758" cy="72.86" r="0.563" />
	<circle fill="#7F7F7F" cx="3.042" cy="44.932" r="0.563" />
	<path fill="#7F7F7F" d="M43.47,48.874l0.338,0.225v0.338v0.225H43.47h-0.338l-0.225-0.225v-0.338h0.225v-0.225H43.47z" />
	<path fill="#7F7F7F" d="M66.105,40.653h0.225l0.338,0.338v0.225H66.33v0.225h-0.225l-0.338-0.225v-0.225v-0.338H66.105z" />
	<circle cx="84.123" cy="93.468" r="0.563" />
	<path d="M96.06,79.055l0.225,0.338l0.338,0.226l-0.338,0.338L96.06,80.18h-0.338l-0.225-0.225v-0.338v-0.225l0.225-0.338H96.06   L96.06,79.055z" />
	<path d="M58.785,59.234h0.227v0.338L58.785,59.234z" />
	<path d="M57.322,61.262h0.338V61.6L57.322,61.262z" />
	<path d="M58.785,65.766v-0.225h0.227v0.225H58.785z" />
	<path d="M61.039,66.666v-0.337h0.226v0.337H61.039z" />
	<path d="M63.515,65.766h-0.225v-0.225h0.226L63.515,65.766L63.515,65.766z" />
	<path d="M64.979,63.852v0.226h-0.338v-0.226H64.979z" />
	<path d="M64.979,61.262V61.6h-0.338v-0.338H64.979z" />
	<path d="M63.515,59.234v0.338h-0.225v-0.338H63.515z" />
	<path d="M56.533,56.194h0.227v0.338h0.338l-0.338,0.225h-0.227v-0.225V56.194z" />
	<path d="M53.605,60.135l0.338-0.225v0.563h-0.338V60.135z" />
	<path d="M53.605,64.979l0.563-0.338v0.338l-0.225,0.226L53.605,64.979z" />
	<path d="M56.533,68.919v-0.338h0.227v0.338H56.533z" />
	<path d="M61.039,54.729h0.226v0.338l-0.226,0.226v-0.226h-0.338L61.039,54.729z" />
	<path d="M61.039,70.607l-0.338-0.563h0.338h0.226L61.039,70.607z" />
	<path d="M65.767,68.919l-0.225,0.338l-0.338-0.338v-0.338h0.338h0.225V68.919z" />
	<path d="M68.583,64.979v0.226h-0.227h-0.338v-0.226H68.583z" />
	<path d="M68.583,60.135v0.338l-0.227,0.227l-0.338-0.227l0.338-0.338H68.583z" />
	<path d="M65.767,56.194v0.338h0.338l-0.338,0.225h-0.225v-0.225L65.767,56.194z" />
</g>
</svg>