<svg version="1.1" xmlns="http://www.w3.org/2000/svg" xmlns:xlink="http://www.w3.org/1999/xlink" width="22px" height="112px" viewBox="0 0 21.981 112.5" enable-background="new 0 0 21.981 112.5" xml:space="preserve">
<g id="Group_Base_Layer">
	<linearGradient id="SVGID_1_" gradientUnits="userSpaceOnUse" x1="1.6909" y1="13.3579" x2="20.1782" y2="13.3579">
		<stop offset="0" style="stop-color:#CCCCCC" />
		<stop offset="0.78" style="stop-color:#C6C6C6" />
		<stop offset="1" style="stop-color:#B2B2B2" />
	</linearGradient>
	<path fill="url(#SVGID_1_)" stroke="#4C4C4C" stroke-width="0.5" d="M1.691,26.716V0h18.487v26.716H1.691z" />
	<linearGradient id="SVGID_2_" gradientUnits="userSpaceOnUse" x1="1.6909" y1="41.1445" x2="20.1782" y2="41.1445">
		<stop offset="0" style="stop-color:#CCCCCC" />
		<stop offset="0.78" style="stop-color:#C6C6C6" />
		<stop offset="1" style="stop-color:#B2B2B2" />
	</linearGradient>
	<path fill="url(#SVGID_2_)" stroke="#4C4C4C" stroke-width="0.5" d="M1.691,54.446V27.843h18.487v26.603H1.691z" />
	<linearGradient id="SVGID_3_" gradientUnits="userSpaceOnUse" x1="1.6909" y1="69.1006" x2="20.1782" y2="69.1006">
		<stop offset="0" style="stop-color:#CCCCCC" />
		<stop offset="0.78" style="stop-color:#C6C6C6" />
		<stop offset="1" style="stop-color:#B2B2B2" />
	</linearGradient>
	<path fill="url(#SVGID_3_)" stroke="#4C4C4C" stroke-width="0.5" d="M1.691,82.402V55.799h18.487v26.604H1.691z" />
	<linearGradient id="SVGID_4_" gradientUnits="userSpaceOnUse" x1="1.6909" y1="96.9434" x2="20.1782" y2="96.9434">
		<stop offset="0" style="stop-color:#CCCCCC" />
		<stop offset="0.78" style="stop-color:#C6C6C6" />
		<stop offset="1" style="stop-color:#B2B2B2" />
	</linearGradient>
	<path fill="url(#SVGID_4_)" stroke="#4C4C4C" stroke-width="0.5" d="M1.691,110.358V83.529h18.487v26.829H1.691z" />
</g>
<g id="Group_Top1">
	<linearGradient id="SVGID_5_" gradientUnits="userSpaceOnUse" x1="11.0474" y1="26.0396" x2="11.0474" y2="13.4141">
		<stop offset="0" style="stop-color:#D9D9D9" />
		<stop offset="0.72" style="stop-color:#E6E6E6" />
		<stop offset="1" style="stop-color:#EBEBEB" />
	</linearGradient>
	<path fill="url(#SVGID_5_)" d="M2.367,26.04h17.36l-8.792-12.625L2.367,26.04z" />
	<linearGradient id="SVGID_6_" gradientUnits="userSpaceOnUse" x1="11.0474" y1="53.9956" x2="11.0474" y2="41.1445">
		<stop offset="0" style="stop-color:#D9D9D9" />
		<stop offset="0.72" style="stop-color:#E6E6E6" />
		<stop offset="1" style="stop-color:#EBEBEB" />
	</linearGradient>
	<path fill="url(#SVGID_6_)" d="M2.367,53.996h17.36l-8.792-12.851L2.367,53.996z" />
	<linearGradient id="SVGID_7_" gradientUnits="userSpaceOnUse" x1="11.0474" y1="81.9512" x2="11.0474" y2="69.1006">
		<stop offset="0" style="stop-color:#D9D9D9" />
		<stop offset="0.72" style="stop-color:#E6E6E6" />
		<stop offset="1" style="stop-color:#EBEBEB" />
	</linearGradient>
	<path fill="url(#SVGID_7_)" d="M2.367,81.951h17.36l-8.792-12.851L2.367,81.951z" />
	<linearGradient id="SVGID_8_" gradientUnits="userSpaceOnUse" x1="11.0474" y1="109.9072" x2="11.0474" y2="97.0566">
		<stop offset="0" style="stop-color:#D9D9D9" />
		<stop offset="0.72" style="stop-color:#E6E6E6" />
		<stop offset="1" style="stop-color:#EBEBEB" />
	</linearGradient>
	<path fill="url(#SVGID_8_)" d="M2.367,109.907h17.36l-8.792-12.851L2.367,109.907z" />
</g>
<g id="Group_Side_Layer">
	<linearGradient id="SVGID_9_" gradientUnits="userSpaceOnUse" x1="2.3672" y1="13.3018" x2="10.9346" y2="13.3018">
		<stop offset="0" style="stop-color:#B2B2B2" />
		<stop offset="0.78" style="stop-color:#C6C6C6" />
		<stop offset="1" style="stop-color:#D1D1D1" />
	</linearGradient>
	<path fill="url(#SVGID_9_)" d="M10.935,13.414L2.367,26.04V0.563L10.935,13.414z" />
	<linearGradient id="SVGID_10_" gradientUnits="userSpaceOnUse" x1="2.3672" y1="41.1445" x2="10.9346" y2="41.1445">
		<stop offset="0" style="stop-color:#B2B2B2" />
		<stop offset="0.78" style="stop-color:#C6C6C6" />
		<stop offset="1" style="stop-color:#D1D1D1" />
	</linearGradient>
	<path fill="url(#SVGID_10_)" d="M10.935,41.145L2.367,53.996V28.294L10.935,41.145z" />
	<linearGradient id="SVGID_11_" gradientUnits="userSpaceOnUse" x1="2.3672" y1="69.1006" x2="10.9346" y2="69.1006">
		<stop offset="0" style="stop-color:#B2B2B2" />
		<stop offset="0.78" style="stop-color:#C6C6C6" />
		<stop offset="1" style="stop-color:#D1D1D1" />
	</linearGradient>
	<path fill="url(#SVGID_11_)" d="M10.935,69.101L2.367,81.951V56.25L10.935,69.101z" />
	<linearGradient id="SVGID_12_" gradientUnits="userSpaceOnUse" x1="2.3672" y1="97.0566" x2="10.9346" y2="97.0566">
		<stop offset="0" style="stop-color:#B2B2B2" />
		<stop offset="0.78" style="stop-color:#C6C6C6" />
		<stop offset="1" style="stop-color:#D1D1D1" />
	</linearGradient>
	<path fill="url(#SVGID_12_)" d="M10.935,97.057l-8.567,12.851V84.206L10.935,97.057z" />
</g>
<g id="Group_Top2">
	<path fill="#B2B2B2" d="M2.367,0.563h17.36l-8.792,12.851L2.367,0.563z" />
	<path fill="#B2B2B2" d="M2.367,28.294h17.36l-8.792,12.851L2.367,28.294z" />
	<path fill="#B2B2B2" d="M2.367,56.25h17.36l-8.792,12.851L2.367,56.25z" />
	<path fill="#B2B2B2" d="M2.367,84.206h17.36l-8.792,12.851L2.367,84.206z" />
</g>
<g id="Group_Joints">
	<path fill="#4C4C4C" stroke="#4C4C4C" stroke-width="0.5" d="M21.531,112.5v-3.27h-0.677v3.27H21.531z" />
	<path fill="#4C4C4C" stroke="#4C4C4C" stroke-width="0.5" d="M1.015,112.5v-3.27H0.563v3.27H1.015z" />
	<path fill="#4C4C4C" stroke="#4C4C4C" stroke-width="0.5" d="M21.531,84.883v-3.607h-0.677v3.607H21.531z" />
	<path fill="#4C4C4C" stroke="#4C4C4C" stroke-width="0.5" d="M1.015,84.883v-3.607H0.563v3.607H1.015z" />
	<path fill="#B2B2B2" stroke="#4C4C4C" stroke-width="0.5" d="M0,83.529v-1.127h21.981v1.127H0z" />
	<path fill="#B2B2B2" stroke="#4C4C4C" stroke-width="0.5" d="M0,111.485v-1.127h21.981v1.127H0z" />
	<path fill="#4C4C4C" stroke="#4C4C4C" stroke-width="0.5" d="M21.531,28.971v-3.382h-0.677v3.382H21.531z" />
	<path fill="#4C4C4C" stroke="#4C4C4C" stroke-width="0.5" d="M1.015,28.971v-3.382H0.563v3.382H1.015z" />
	<path fill="#B2B2B2" stroke="#4C4C4C" stroke-width="0.5" d="M0,27.843v-1.127h21.981v1.127H0z" />
	<path fill="#4C4C4C" stroke="#4C4C4C" stroke-width="0.5" d="M21.531,56.701v-3.382h-0.677v3.382H21.531z" />
	<path fill="#4C4C4C" stroke="#4C4C4C" stroke-width="0.5" d="M1.015,56.701v-3.382H0.563v3.382H1.015z" />
	<path fill="#B2B2B2" stroke="#4C4C4C" stroke-width="0.5" d="M0,55.574v-1.127h21.981v1.127H0z" />
</g>
</svg>