<!DOCTYPE svg PUBLIC "-//W3C//DTD SVG 20000303 Stylable//EN" "http://www.w3.org/TR/2000/03/WD-SVG-20000303/DTD/svg-20000303-stylable.dtd"[]><svg xmlns="http://www.w3.org/2000/svg" width="999px" height="543px" viewBox="0 0 999 519"><path style="fill:#4c4c4c;stroke:#4c4c4c;stroke-width:2" d="M387,514 l-384,-100 608,-186 384,100 -608,186z" /><path style="fill:#ccc;stroke:#4c4c4c;stroke-width:2" d="M3,413 l78,23 0,-192 221,67 0,91 0,92 84,22 0,-72 0,-71 -24,-93 -58,-61 -62,-33 -40,-16 -76,-18 -63,3 -44,33 -16,69 0,78 0,78z" /><path style="fill:#7f7f7f;stroke:#4c4c4c;stroke-width:2" d="M81,391 l0,-147 221,67 0,22 -221,58z" /><path style="fill:none;stroke:#4c4c4c;stroke-width:2" d="M370,311 l0,201 0,-201" /><path style="fill:none;stroke:#4c4c4c;stroke-width:2" d="M18,194 l0,223 0,-223" /><path style="fill:none;stroke:#4c4c4c;stroke-width:2" d="M36,176 l0,246 0,-246" /><path style="fill:none;stroke:#4c4c4c;stroke-width:2" d="M54,162 l0,265 0,-265" /><path style="fill:none;stroke:#4c4c4c;stroke-width:2" d="M71,155 l0,277 0,-277" /><path style="fill:none;stroke:#4c4c4c;stroke-width:2" d="M89,154 l0,90 0,-90" /><path style="fill:none;stroke:#4c4c4c;stroke-width:2" d="M106,153 l0,98 0,-98" /><path style="fill:none;stroke:#4c4c4c;stroke-width:2" d="M124,153 l0,104 0,-104" /><path style="fill:none;stroke:#4c4c4c;stroke-width:2" d="M141,156 l0,106 0,-106" /><path style="fill:none;stroke:#4c4c4c;stroke-width:2" d="M158,160 l0,107 0,-107" /><path style="fill:none;stroke:#4c4c4c;stroke-width:2" d="M175,164 l0,108 0,-108" /><path style="fill:none;stroke:#4c4c4c;stroke-width:2" d="M192,168 l0,110 0,-110" /><path style="fill:none;stroke:#4c4c4c;stroke-width:2" d="M208,173 l0,110 0,-110" /><path style="fill:none;stroke:#4c4c4c;stroke-width:2" d="M225,179 l0,109 0,-109" /><path style="fill:none;stroke:#4c4c4c;stroke-width:2" d="M241,185 l0,108 0,-108" /><path style="fill:none;stroke:#4c4c4c;stroke-width:2" d="M258,193 l0,105 0,-105" /><path style="fill:none;stroke:#4c4c4c;stroke-width:2" d="M274,202 l0,101 0,-101" /><path style="fill:none;stroke:#4c4c4c;stroke-width:2" d="M290,211 l0,97 0,-97" /><path style="fill:none;stroke:#4c4c4c;stroke-width:2" d="M306,221 l0,272 0,-272" /><path style="fill:none;stroke:#4c4c4c;stroke-width:2" d="M323,238 l0,260 0,-260" /><path style="fill:none;stroke:#4c4c4c;stroke-width:2" d="M338,255 l0,247 0,-247" /><path style="fill:none;stroke:#4c4c4c;stroke-width:2" d="M354,271 l0,236 0,-236" /><path style="fill:#f0f0f0;stroke:#4c4c4c;stroke-width:2" d="M386,516 l0,-72 0,-71 -24,-93 -58,-61 -62,-33 -40,-16 -76,-18 -49,3 361,-80 314,-70 47,-2 55,18 32,13 49,32 42,55 18,81 0,64 0,62 -286,87 -323,101z" /><path style="fill:#e0e0e0" d="M391,511 l-2,-138 0,-2 604,-174 2,5 0,64 0,62 -283,87 -321,96z" /><path style="fill:none;stroke:#4c4c4c;stroke-width:2" d="M359,509" /><path style="fill:none;stroke:#4c4c4c;stroke-width:2" d="M343,505" /><path style="fill:none;stroke:#4c4c4c;stroke-width:2" d="M326,500 l0,1 0,-1" /><path style="fill:none;stroke:#4c4c4c;stroke-width:2" d="M310,496 l0,0 0,0" /><path style="fill:none;stroke:#4c4c4c;stroke-width:2" d="M293,213 l0,-1 0,1" /><path style="fill:none;stroke:#4c4c4c;stroke-width:2" d="M277,304" /><path style="fill:none;stroke:#4c4c4c;stroke-width:2" d="M208,283" /><path style="fill:none;stroke:#4c4c4c;stroke-width:2" d="M208,173 l0,0 0,0" /><path style="fill:none;stroke:#4c4c4c;stroke-width:2" d="M191,168" /><path style="fill:none;stroke:#4c4c4c;stroke-width:2" d="M174,164 l0,-1 0,1" /><path style="fill:none;stroke:#4c4c4c;stroke-width:2" d="M156,267" /><path style="fill:none;stroke:#4c4c4c;stroke-width:2" d="M156,160" /><path style="fill:none;stroke:#4c4c4c;stroke-width:2" d="M138,155 l0,0 0,0" /><path style="fill:none;stroke:#4c4c4c;stroke-width:2" d="M120,153 l0,-1 0,1" /><path style="fill:none;stroke:#4c4c4c;stroke-width:2" d="M84,435" /><path style="fill:none;stroke:#4c4c4c;stroke-width:2" d="M66,430" /><path style="fill:none;stroke:#4c4c4c;stroke-width:2" d="M48,425" /><path style="fill:none;stroke:#4c4c4c;stroke-width:2" d="M29,421" /><path style="fill:none;stroke:#4c4c4c;stroke-width:2" d="M995,203 l0,124 0,-124" /><path style="fill:none;stroke:#4c4c4c;stroke-width:2" d="M978,332 l0,-125 -19,-82 -43,-55 -79,-45 -57,-17 -38,1 38,-1 57,17 79,45 43,55 19,82 0,125" /><path style="fill:none;stroke:#4c4c4c;stroke-width:2" d="M761,11 l58,18 80,46 43,54 19,83 0,125 0,-125 -19,-83 -43,-54 -80,-46 -58,-18 -39,2" /><path style="fill:none;stroke:#4c4c4c;stroke-width:2" d="M743,16 l58,17 80,46 44,55 19,83 0,126 0,-126 -19,-83 -44,-55 -80,-46 -58,-17 -40,1" /><path style="fill:none;stroke:#4c4c4c;stroke-width:2" d="M724,20 l59,18 81,45 44,55 19,84 0,126 0,-126 -19,-84 -44,-55 -81,-45 -59,-18 -40,1" /><path style="fill:none;stroke:#4c4c4c;stroke-width:2" d="M705,24 l59,18 82,46 44,55 20,83 0,127 0,-127 -20,-83 -44,-55 -82,-46 -59,-18 -41,2" /><path style="fill:none;stroke:#4c4c4c;stroke-width:2" d="M892,358 l0,-127 -19,-84 -45,-55 -82,-46 -60,-18 -38,2" /><path style="fill:none;stroke:#4c4c4c;stroke-width:2" d="M875,364 l0,-128 -20,-84 -45,-56 -83,-46 -60,-17 -39,1" /><path style="fill:none;stroke:#4c4c4c;stroke-width:2" d="M857,369 l0,-128 -20,-85 -45,-55 -84,-46 -61,-18 -39,2" /><path style="fill:none;stroke:#4c4c4c;stroke-width:2" d="M839,375 l0,-129 -19,-85 -47,-56 -84,-46 -61,-17 -40,1" /><path style="fill:none;stroke:#4c4c4c;stroke-width:2" d="M821,380 l0,-129 -20,-85 -46,-56 -85,-47 -62,-17 -40,1" /><path style="fill:none;stroke:#4c4c4c;stroke-width:2" d="M803,386 l0,-130 -20,-85 -47,-57 -86,-46 -62,-18 -40,2" /><path style="fill:none;stroke:#4c4c4c;stroke-width:2" d="M785,391 l0,-130 -20,-86 -47,-56 -87,-47 -63,-17 -41,1" /><path style="fill:none;stroke:#4c4c4c;stroke-width:2" d="M766,397 l0,-131 -20,-86 -47,-57 -88,-46 -63,-18 -42,2" /><path style="fill:none;stroke:#4c4c4c;stroke-width:2" d="M748,403 l0,-131 -20,-87 -49,-57 -88,-46 -64,-18 -42,2" /><path style="fill:none;stroke:#4c4c4c;stroke-width:2" d="M729,409 l0,-132 -21,-87 -48,-57 -89,-47 -65,-18 -42,2" /><path style="fill:none;stroke:#4c4c4c;stroke-width:2" d="M710,415 l0,-133 -21,-87 -48,-57 -90,-47 -65,-18 -43,2" /><path style="fill:none;stroke:#4c4c4c;stroke-width:2" d="M691,421 l0,-133 -21,-88 -49,-57 -91,-48 -65,-17 -44,2" /><path style="fill:none;stroke:#4c4c4c;stroke-width:2" d="M672,427 l0,-134 -21,-88 -50,-58 -91,-47 -66,-18 -44,3" /><path style="fill:none;stroke:#4c4c4c;stroke-width:2" d="M653,433 l0,-135 -22,-88 -50,-58 -92,-47 -67,-18 -48,2" /><path style="fill:none;stroke:#4c4c4c;stroke-width:2" d="M290,308 l0,29 0,-29" /><path style="fill:none;stroke:#4c4c4c;stroke-width:2" d="M633,439 l0,-135 -21,-89 -51,-58 -93,-47 -68,-18 -48,2" /><path style="fill:none;stroke:#4c4c4c;stroke-width:2" d="M267,301 l0,42 0,-42" /><path style="fill:none;stroke:#4c4c4c;stroke-width:2" d="M613,445 l0,-136 -22,-89 -50,-58 -94,-47 -68,-18 -49,2" /><path style="fill:none;stroke:#4c4c4c;stroke-width:2" d="M245,294 l0,56 0,-56" /><path style="fill:none;stroke:#4c4c4c;stroke-width:2" d="M593,451 l0,-136 -22,-90 -51,-58 -95,-48 -68,-17 -50,2" /><path style="fill:none;stroke:#4c4c4c;stroke-width:2" d="M221,287 l0,68 0,-68" /><path style="fill:none;stroke:#4c4c4c;stroke-width:2" d="M574,457 l0,-136 -23,-91 -52,-58 -95,-48 -70,-18 -49,3" /><path style="fill:none;stroke:#4c4c4c;stroke-width:2" d="M198,280 l0,82 0,-82" /><path style="fill:none;stroke:#4c4c4c;stroke-width:2" d="M553,464 l0,-138 -22,-90 -52,-59 -97,-48 -70,-18 -50,3" /><path style="fill:none;stroke:#4c4c4c;stroke-width:2" d="M174,272 l0,96 0,-96" /><path style="fill:none;stroke:#4c4c4c;stroke-width:2" d="M533,470 l0,-138 -23,-91 -52,-59 -98,-48 -70,-17 -52,2" /><path style="fill:none;stroke:#4c4c4c;stroke-width:2" d="M150,265 l0,110 0,-110" /><path style="fill:none;stroke:#4c4c4c;stroke-width:2" d="M512,476 l0,-138 -23,-91 -53,-59 -98,-48 -71,-18 -52,2" /><path style="fill:none;stroke:#4c4c4c;stroke-width:2" d="M126,257 l0,124 0,-124" /><path style="fill:none;stroke:#4c4c4c;stroke-width:2" d="M492,483 l0,-139 -24,-92 -53,-59 -100,-48 -71,-18 -53,3" /><path style="fill:none;stroke:#4c4c4c;stroke-width:2" d="M101,250 l0,138 0,-138" /><path style="fill:none;stroke:#4c4c4c;stroke-width:2" d="M470,489 l0,-139 -23,-92 -54,-60 -100,-48 -73,-18 -53,3" /><path style="fill:none;stroke:#4c4c4c;stroke-width:2" d="M449,496 l0,-141 -23,-92 -55,-59 -101,-49 -73,-18 -54,3" /><path style="fill:none;stroke:#4c4c4c;stroke-width:2" d="M428,502 l0,-141 -24,-92 -55,-60 -102,-49 -74,-17 -54,3" /><path style="fill:none;stroke:#4c4c4c;stroke-width:2" d="M406,509 l0,-142 -24,-93 -55,-60 -103,-48 -75,-18 -54,3" /></svg>