<!DOCTYPE svg PUBLIC "-//W3C//DTD SVG 20000303 Stylable//EN" "http://www.w3.org/TR/2000/03/WD-SVG-20000303/DTD/svg-20000303-stylable.dtd"[]><svg xmlns="http://www.w3.org/2000/svg" width="999px" height="933px" viewBox="0 0 999 929"><path style="fill:#ccc;stroke:#4c4c4c;stroke-width:2" d="M0,134 l0,795 800,0 0,-795 -800,0z" /><path style="fill:#a6bad9" d="M533,199 l199,0 0,133 -199,0 0,-133z" /><path style="fill:#a6bad9" d="M300,199 l200,0 0,133 -200,0 0,-133z" /><path style="fill:#a6bad9" d="M68,199 l199,0 0,133 -199,0 0,-133z" /><path style="fill:#a6bad9" d="M533,365 l199,0 0,133 -199,0 0,-133z" /><path style="fill:#a6bad9" d="M300,365 l200,0 0,133 -200,0 0,-133z" /><path style="fill:#a6bad9" d="M68,365 l199,0 0,133 -199,0 0,-133z" /><path style="fill:#a6bad9" d="M533,531 l199,0 0,133 -199,0 0,-133z" /><path style="fill:#a6bad9" d="M300,531 l200,0 0,133 -200,0 0,-133z" /><path style="fill:#a6bad9" d="M68,531 l199,0 0,133 -199,0 0,-133z" /><path style="fill:#a6bad9" d="M533,697 l199,0 0,133 -199,0 0,-133z" /><path style="fill:#a6bad9" d="M300,697 l200,0 0,133 -200,0 0,-133z" /><path style="fill:#a6bad9" d="M68,697 l199,0 0,133 -199,0 0,-133z" /><path style="fill:#7387a6" d="M533,697 l0,50 199,-33 0,-17 -199,0z" /><path style="fill:#7387a6" d="M300,697 l0,50 200,-33 0,-17 -200,0z" /><path style="fill:#7387a6" d="M68,697 l0,50 199,-33 0,-17 -199,0z" /><path style="fill:#7387a6" d="M533,531 l0,50 199,-33 0,-17 -199,0z" /><path style="fill:#7387a6" d="M300,531 l0,50 200,-33 0,-17 -200,0z" /><path style="fill:#7387a6" d="M68,531 l0,50 199,-33 0,-17 -199,0z" /><path style="fill:#7387a6" d="M533,199 l0,50 199,-34 0,-16 -199,0z" /><path style="fill:#7387a6" d="M300,199 l0,50 200,-34 0,-16 -200,0z" /><path style="fill:#7387a6" d="M68,199 l0,50 199,-34 0,-16 -199,0z" /><path style="fill:#7387a6" d="M533,365 l0,50 199,-33 0,-17 -199,0z" /><path style="fill:#7387a6" d="M300,365 l0,50 200,-33 0,-17 -200,0z" /><path style="fill:#7387a6" d="M68,365 l0,50 199,-33 0,-17 -199,0z" /><path style="fill:none;stroke:#4c4c4c;stroke-width:2" d="M533,332 l0,-133 199,0" /><path style="fill:none;stroke:#4c4c4c;stroke-width:2" d="M300,332 l0,-133 200,0" /><path style="fill:none;stroke:#4c4c4c;stroke-width:2" d="M68,332 l0,-133 199,0" /><path style="fill:none;stroke:#4c4c4c;stroke-width:2" d="M533,498 l0,-133 199,0" /><path style="fill:none;stroke:#4c4c4c;stroke-width:2" d="M300,498 l0,-133 200,0" /><path style="fill:none;stroke:#4c4c4c;stroke-width:2" d="M68,498 l0,-133 199,0" /><path style="fill:none;stroke:#4c4c4c;stroke-width:2" d="M533,664 l0,-133 199,0" /><path style="fill:none;stroke:#4c4c4c;stroke-width:2" d="M300,664 l0,-133 200,0" /><path style="fill:none;stroke:#4c4c4c;stroke-width:2" d="M68,664 l0,-133 199,0" /><path style="fill:none;stroke:#4c4c4c;stroke-width:2" d="M533,830 l0,-133 199,0" /><path style="fill:none;stroke:#4c4c4c;stroke-width:2" d="M300,830 l0,-133 200,0" /><path style="fill:none;stroke:#4c4c4c;stroke-width:2" d="M68,830 l0,-133 199,0" /><path style="fill:none;stroke:#fff;stroke-width:2" d="M533,830 l199,0 0,-133" /><path style="fill:none;stroke:#fff;stroke-width:2" d="M300,830 l200,0 0,-133" /><path style="fill:none;stroke:#fff;stroke-width:2" d="M68,830 l199,0 0,-133" /><path style="fill:none;stroke:#fff;stroke-width:2" d="M533,664 l199,0 0,-133" /><path style="fill:none;stroke:#fff;stroke-width:2" d="M300,664 l200,0 0,-133" /><path style="fill:none;stroke:#fff;stroke-width:2" d="M68,664 l199,0 0,-133" /><path style="fill:none;stroke:#fff;stroke-width:2" d="M533,332 l199,0 0,-133" /><path style="fill:none;stroke:#fff;stroke-width:2" d="M300,332 l200,0 0,-133" /><path style="fill:none;stroke:#fff;stroke-width:2" d="M68,332 l199,0 0,-133" /><path style="fill:none;stroke:#fff;stroke-width:2" d="M533,498 l199,0 0,-133" /><path style="fill:none;stroke:#fff;stroke-width:2" d="M300,498 l200,0 0,-133" /><path style="fill:none;stroke:#fff;stroke-width:2" d="M68,498 l199,0 0,-133" /><path style="fill:#e5e5e5;stroke:#4c4c4c;stroke-width:2" d="M0,134 l268,-134 731,0 -199,134 -800,0z" /><path style="fill:#999;stroke:#4c4c4c;stroke-width:2" d="M800,134 l0,795 199,-131 0,-798 -199,134z" /><path style="fill:#7387a6" d="M932,111 l49,-33 0,132 -49,33 0,-132z" /><path style="fill:#7387a6" d="M874,149 l50,-33 0,133 -50,33 0,-133z" /><path style="fill:#7387a6" d="M815,188 l50,-33 0,133 -50,33 0,-133z" /><path style="fill:#7387a6" d="M932,276 l49,-33 0,133 -49,34 0,-134z" /><path style="fill:#7387a6" d="M874,315 l50,-33 0,133 -50,33 0,-133z" /><path style="fill:#7387a6" d="M815,354 l50,-34 0,134 -50,33 0,-133z" /><path style="fill:#7387a6" d="M932,443 l49,-33 0,133 -49,33 0,-133z" /><path style="fill:#7387a6" d="M874,481 l50,-32 0,132 -50,33 0,-133z" /><path style="fill:#7387a6" d="M815,520 l50,-33 0,133 -50,33 0,-133z" /><path style="fill:#7387a6" d="M932,609 l49,-33 0,133 -49,33 0,-133z" /><path style="fill:#7387a6" d="M874,647 l50,-33 0,133 -50,34 0,-134z" /><path style="fill:#7387a6" d="M815,686 l50,-33 0,133 -50,33 0,-133z" /><path style="fill:#596d8c" d="M932,609 l0,50 49,-66 0,-17 -49,33z" /><path style="fill:#596d8c" d="M874,647 l0,51 50,-67 0,-17 -50,33z" /><path style="fill:#596d8c" d="M815,686 l0,50 50,-66 0,-17 -50,33z" /><path style="fill:#596d8c" d="M932,443 l0,50 49,-67 0,-16 -49,33z" /><path style="fill:#596d8c" d="M874,481 l0,50 50,-66 0,-16 -50,32z" /><path style="fill:#596d8c" d="M815,520 l0,50 50,-66 0,-17 -50,33z" /><path style="fill:#596d8c" d="M932,111 l0,50 49,-67 0,-16 -49,33z" /><path style="fill:#596d8c" d="M874,149 l0,50 50,-67 0,-16 -50,33z" /><path style="fill:#596d8c" d="M815,188 l0,50 50,-67 0,-16 -50,33z" /><path style="fill:#596d8c" d="M932,276 l0,50 49,-66 0,-17 -49,33z" /><path style="fill:#596d8c" d="M874,315 l0,50 50,-66 0,-17 -50,33z" /><path style="fill:#596d8c" d="M815,354 l0,50 50,-67 0,-17 -50,34z" /><path style="fill:none;stroke:#4c4c4c;stroke-width:2" d="M932,243 l0,-132 49,-33" /><path style="fill:none;stroke:#4c4c4c;stroke-width:2" d="M874,282 l0,-133 50,-33" /><path style="fill:none;stroke:#4c4c4c;stroke-width:2" d="M815,321 l0,-133 50,-33" /><path style="fill:none;stroke:#4c4c4c;stroke-width:2" d="M932,410 l0,-134 49,-33" /><path style="fill:none;stroke:#4c4c4c;stroke-width:2" d="M874,448 l0,-133 50,-33" /><path style="fill:none;stroke:#4c4c4c;stroke-width:2" d="M815,487 l0,-133 50,-34" /><path style="fill:none;stroke:#4c4c4c;stroke-width:2" d="M932,576 l0,-133 49,-33" /><path style="fill:none;stroke:#4c4c4c;stroke-width:2" d="M874,614 l0,-133 50,-32" /><path style="fill:none;stroke:#4c4c4c;stroke-width:2" d="M815,653 l0,-133 50,-33" /><path style="fill:none;stroke:#4c4c4c;stroke-width:2" d="M932,742 l0,-133 49,-33" /><path style="fill:none;stroke:#4c4c4c;stroke-width:2" d="M874,781 l0,-134 50,-33" /><path style="fill:none;stroke:#4c4c4c;stroke-width:2" d="M815,819 l0,-133 50,-33" /></svg>