<!DOCTYPE svg PUBLIC "-//W3C//DTD SVG 20000303 Stylable//EN" "http://www.w3.org/TR/2000/03/WD-SVG-20000303/DTD/svg-20000303-stylable.dtd"[]><svg xmlns="http://www.w3.org/2000/svg" width="647px" height="999px" viewBox="0 0 626 999"><path style="fill:#ccc;stroke:#4c4c4c;stroke-width:2" d="M0,84 l0,915 501,0 0,-915 -501,0z" /><path style="fill:#a6bad9" d="M334,124 l125,0 0,84 -125,0 0,-84z" /><path style="fill:#a6bad9" d="M188,124 l125,0 0,84 -125,0 0,-84z" /><path style="fill:#a6bad9" d="M42,124 l126,0 0,84 -126,0 0,-84z" /><path style="fill:#a6bad9" d="M334,228 l125,0 0,85 -125,0 0,-85z" /><path style="fill:#a6bad9" d="M188,228 l125,0 0,85 -125,0 0,-85z" /><path style="fill:#a6bad9" d="M42,228 l126,0 0,85 -126,0 0,-85z" /><path style="fill:#a6bad9" d="M334,333 l125,0 0,84 -125,0 0,-84z" /><path style="fill:#a6bad9" d="M188,333 l125,0 0,84 -125,0 0,-84z" /><path style="fill:#a6bad9" d="M42,333 l126,0 0,84 -126,0 0,-84z" /><path style="fill:#a6bad9" d="M334,437 l125,0 0,84 -125,0 0,-84z" /><path style="fill:#a6bad9" d="M188,437 l125,0 0,84 -125,0 0,-84z" /><path style="fill:#a6bad9" d="M42,437 l126,0 0,84 -126,0 0,-84z" /><path style="fill:#a6bad9" d="M334,541 l125,0 0,82 -125,0 0,-82z" /><path style="fill:#a6bad9" d="M188,541 l125,0 0,82 -125,0 0,-82z" /><path style="fill:#a6bad9" d="M42,541 l126,0 0,82 -126,0 0,-82z" /><path style="fill:#a6bad9" d="M334,646 l125,0 0,82 -125,0 0,-82z" /><path style="fill:#a6bad9" d="M188,646 l125,0 0,82 -125,0 0,-82z" /><path style="fill:#a6bad9" d="M42,646 l126,0 0,82 -126,0 0,-82z" /><path style="fill:#a6bad9" d="M334,750 l125,0 0,82 -125,0 0,-82z" /><path style="fill:#a6bad9" d="M188,750 l125,0 0,82 -125,0 0,-82z" /><path style="fill:#a6bad9" d="M42,750 l126,0 0,82 -126,0 0,-82z" /><path style="fill:#a6bad9" d="M334,854 l125,0 0,82 -125,0 0,-82z" /><path style="fill:#a6bad9" d="M188,854 l125,0 0,82 -125,0 0,-82z" /><path style="fill:#a6bad9" d="M42,854 l126,0 0,82 -126,0 0,-82z" /><path style="fill:#7387a6" d="M334,854 l0,30 125,-20 0,-10 -125,0z" /><path style="fill:#7387a6" d="M188,854 l0,30 125,-20 0,-10 -125,0z" /><path style="fill:#7387a6" d="M42,854 l0,30 126,-20 0,-10 -126,0z" /><path style="fill:#7387a6" d="M334,750 l0,30 125,-20 0,-10 -125,0z" /><path style="fill:#7387a6" d="M188,750 l0,30 125,-20 0,-10 -125,0z" /><path style="fill:#7387a6" d="M42,750 l0,30 126,-20 0,-10 -126,0z" /><path style="fill:#7387a6" d="M334,646 l0,29 125,-19 0,-10 -125,0z" /><path style="fill:#7387a6" d="M188,646 l0,29 125,-19 0,-10 -125,0z" /><path style="fill:#7387a6" d="M42,646 l0,29 126,-19 0,-10 -126,0z" /><path style="fill:#7387a6" d="M334,541 l0,30 125,-20 0,-10 -125,0z" /><path style="fill:#7387a6" d="M188,541 l0,30 125,-20 0,-10 -125,0z" /><path style="fill:#7387a6" d="M42,541 l0,30 126,-20 0,-10 -126,0z" /><path style="fill:#7387a6" d="M334,437 l0,32 125,-22 0,-10 -125,0z" /><path style="fill:#7387a6" d="M188,437 l0,32 125,-22 0,-10 -125,0z" /><path style="fill:#7387a6" d="M42,437 l0,32 126,-22 0,-10 -126,0z" /><path style="fill:#7387a6" d="M334,333 l0,31 125,-22 0,-9 -125,0z" /><path style="fill:#7387a6" d="M188,333 l0,31 125,-22 0,-9 -125,0z" /><path style="fill:#7387a6" d="M42,333 l0,31 126,-22 0,-9 -126,0z" /><path style="fill:#7387a6" d="M334,124 l0,32 125,-22 0,-10 -125,0z" /><path style="fill:#7387a6" d="M188,124 l0,32 125,-22 0,-10 -125,0z" /><path style="fill:#7387a6" d="M42,124 l0,32 126,-22 0,-10 -126,0z" /><path style="fill:#7387a6" d="M334,228 l0,32 125,-22 0,-10 -125,0z" /><path style="fill:#7387a6" d="M188,228 l0,32 125,-22 0,-10 -125,0z" /><path style="fill:#7387a6" d="M42,228 l0,32 126,-22 0,-10 -126,0z" /><path style="fill:none;stroke:#4c4c4c;stroke-width:2" d="M334,208 l0,-84 125,0" /><path style="fill:none;stroke:#4c4c4c;stroke-width:2" d="M188,208 l0,-84 125,0" /><path style="fill:none;stroke:#4c4c4c;stroke-width:2" d="M42,208 l0,-84 126,0" /><path style="fill:none;stroke:#4c4c4c;stroke-width:2" d="M334,313 l0,-85 125,0" /><path style="fill:none;stroke:#4c4c4c;stroke-width:2" d="M188,313 l0,-85 125,0" /><path style="fill:none;stroke:#4c4c4c;stroke-width:2" d="M42,313 l0,-85 126,0" /><path style="fill:none;stroke:#4c4c4c;stroke-width:2" d="M334,417 l0,-84 125,0" /><path style="fill:none;stroke:#4c4c4c;stroke-width:2" d="M188,417 l0,-84 125,0" /><path style="fill:none;stroke:#4c4c4c;stroke-width:2" d="M42,417 l0,-84 126,0" /><path style="fill:none;stroke:#4c4c4c;stroke-width:2" d="M334,521 l0,-84 125,0" /><path style="fill:none;stroke:#4c4c4c;stroke-width:2" d="M188,521 l0,-84 125,0" /><path style="fill:none;stroke:#4c4c4c;stroke-width:2" d="M42,521 l0,-84 126,0" /><path style="fill:none;stroke:#4c4c4c;stroke-width:2" d="M334,623 l0,-82 125,0" /><path style="fill:none;stroke:#4c4c4c;stroke-width:2" d="M188,623 l0,-82 125,0" /><path style="fill:none;stroke:#4c4c4c;stroke-width:2" d="M42,623 l0,-82 126,0" /><path style="fill:none;stroke:#4c4c4c;stroke-width:2" d="M334,728 l0,-82 125,0" /><path style="fill:none;stroke:#4c4c4c;stroke-width:2" d="M188,728 l0,-82 125,0" /><path style="fill:none;stroke:#4c4c4c;stroke-width:2" d="M42,728 l0,-82 126,0" /><path style="fill:none;stroke:#4c4c4c;stroke-width:2" d="M334,832 l0,-82 125,0" /><path style="fill:none;stroke:#4c4c4c;stroke-width:2" d="M188,832 l0,-82 125,0" /><path style="fill:none;stroke:#4c4c4c;stroke-width:2" d="M42,832 l0,-82 126,0" /><path style="fill:none;stroke:#4c4c4c;stroke-width:2" d="M334,936 l0,-82 125,0" /><path style="fill:none;stroke:#4c4c4c;stroke-width:2" d="M188,936 l0,-82 125,0" /><path style="fill:none;stroke:#4c4c4c;stroke-width:2" d="M42,936 l0,-82 126,0" /><path style="fill:none;stroke:#fff;stroke-width:2" d="M334,936 l125,0 0,-82" /><path style="fill:none;stroke:#fff;stroke-width:2" d="M188,936 l125,0 0,-82" /><path style="fill:none;stroke:#fff;stroke-width:2" d="M42,936 l126,0 0,-82" /><path style="fill:none;stroke:#fff;stroke-width:2" d="M334,832 l125,0 0,-82" /><path style="fill:none;stroke:#fff;stroke-width:2" d="M188,832 l125,0 0,-82" /><path style="fill:none;stroke:#fff;stroke-width:2" d="M42,832 l126,0 0,-82" /><path style="fill:none;stroke:#fff;stroke-width:2" d="M334,728 l125,0 0,-82" /><path style="fill:none;stroke:#fff;stroke-width:2" d="M188,728 l125,0 0,-82" /><path style="fill:none;stroke:#fff;stroke-width:2" d="M42,728 l126,0 0,-82" /><path style="fill:none;stroke:#fff;stroke-width:2" d="M334,623 l125,0 0,-82" /><path style="fill:none;stroke:#fff;stroke-width:2" d="M188,623 l125,0 0,-82" /><path style="fill:none;stroke:#fff;stroke-width:2" d="M42,623 l126,0 0,-82" /><path style="fill:none;stroke:#fff;stroke-width:2" d="M334,521 l125,0 0,-84" /><path style="fill:none;stroke:#fff;stroke-width:2" d="M188,521 l125,0 0,-84" /><path style="fill:none;stroke:#fff;stroke-width:2" d="M42,521 l126,0 0,-84" /><path style="fill:none;stroke:#fff;stroke-width:2" d="M334,417 l125,0 0,-84" /><path style="fill:none;stroke:#fff;stroke-width:2" d="M188,417 l125,0 0,-84" /><path style="fill:none;stroke:#fff;stroke-width:2" d="M42,417 l126,0 0,-84" /><path style="fill:none;stroke:#fff;stroke-width:2" d="M334,208 l125,0 0,-84" /><path style="fill:none;stroke:#fff;stroke-width:2" d="M188,208 l125,0 0,-84" /><path style="fill:none;stroke:#fff;stroke-width:2" d="M42,208 l126,0 0,-84" /><path style="fill:none;stroke:#fff;stroke-width:2" d="M334,313 l125,0 0,-85" /><path style="fill:none;stroke:#fff;stroke-width:2" d="M188,313 l125,0 0,-85" /><path style="fill:none;stroke:#fff;stroke-width:2" d="M42,313 l126,0 0,-85" /><path style="fill:#e5e5e5;stroke:#4c4c4c;stroke-width:2" d="M0,84 l168,-84 458,0 -125,84 -501,0z" /><path style="fill:#999;stroke:#4c4c4c;stroke-width:2" d="M501,84 l0,915 125,-83 0,-916 -125,84z" /><path style="fill:#7387a6" d="M583,70 l32,-22 0,84 -32,20 0,-82z" /><path style="fill:#7387a6" d="M547,94 l32,-22 0,84 -32,20 0,-82z" /><path style="fill:#7387a6" d="M511,118 l30,-20 0,82 -30,20 0,-82z" /><path style="fill:#7387a6" d="M583,174 l32,-22 0,84 -32,20 0,-82z" /><path style="fill:#7387a6" d="M547,198 l32,-22 0,84 -32,20 0,-82z" /><path style="fill:#7387a6" d="M511,222 l30,-22 0,84 -30,21 0,-83z" /><path style="fill:#7387a6" d="M583,278 l32,-22 0,84 -32,20 0,-82z" /><path style="fill:#7387a6" d="M547,303 l32,-23 0,84 -32,21 0,-82z" /><path style="fill:#7387a6" d="M511,327 l30,-22 0,84 -30,20 0,-82z" /><path style="fill:#7387a6" d="M583,381 l32,-21 0,85 -32,20 0,-84z" /><path style="fill:#7387a6" d="M547,405 l32,-20 0,84 -32,20 0,-84z" /><path style="fill:#7387a6" d="M511,431 l30,-22 0,84 -30,20 0,-82z" /><path style="fill:#7387a6" d="M583,485 l32,-20 0,82 -32,22 0,-84z" /><path style="fill:#7387a6" d="M547,509 l32,-20 0,82 -32,22 0,-84z" /><path style="fill:#7387a6" d="M511,533 l30,-20 0,84 -30,20 0,-84z" /><path style="fill:#7387a6" d="M583,589 l32,-20 0,83 -32,21 0,-84z" /><path style="fill:#7387a6" d="M547,613 l32,-20 0,82 -32,22 0,-84z" /><path style="fill:#7387a6" d="M511,638 l30,-21 0,84 -30,21 0,-84z" /><path style="fill:#7387a6" d="M583,693 l32,-20 0,83 -32,22 0,-85z" /><path style="fill:#7387a6" d="M547,718 l32,-21 0,83 -32,22 0,-84z" /><path style="fill:#7387a6" d="M511,742 l30,-20 0,84 -30,20 0,-84z" /><path style="fill:#7387a6" d="M583,798 l32,-20 0,82 -32,22 0,-84z" /><path style="fill:#7387a6" d="M547,822 l32,-20 0,82 -32,22 0,-84z" /><path style="fill:#7387a6" d="M511,846 l30,-20 0,82 -30,22 0,-84z" /><path style="fill:#596d8c" d="M583,798 l0,32 32,-42 0,-10 -32,20z" /><path style="fill:#596d8c" d="M547,822 l0,32 32,-42 0,-10 -32,20z" /><path style="fill:#596d8c" d="M511,846 l0,32 30,-42 0,-10 -30,20z" /><path style="fill:#596d8c" d="M583,693 l0,33 32,-43 0,-10 -32,20z" /><path style="fill:#596d8c" d="M547,718 l0,32 32,-42 0,-11 -32,21z" /><path style="fill:#596d8c" d="M511,742 l0,32 30,-42 0,-10 -30,20z" /><path style="fill:#596d8c" d="M583,589 l0,32 32,-42 0,-10 -32,20z" /><path style="fill:#596d8c" d="M547,613 l0,33 32,-43 0,-10 -32,20z" /><path style="fill:#596d8c" d="M511,638 l0,31 30,-41 0,-11 -30,21z" /><path style="fill:#596d8c" d="M583,485 l0,32 32,-42 0,-10 -32,20z" /><path style="fill:#596d8c" d="M547,509 l0,32 32,-42 0,-10 -32,20z" /><path style="fill:#596d8c" d="M511,533 l0,32 30,-42 0,-10 -30,20z" /><path style="fill:#596d8c" d="M583,381 l0,32 32,-43 0,-10 -32,21z" /><path style="fill:#596d8c" d="M547,405 l0,32 32,-42 0,-10 -32,20z" /><path style="fill:#596d8c" d="M511,431 l0,30 30,-42 0,-10 -30,22z" /><path style="fill:#596d8c" d="M583,278 l0,31 32,-43 0,-10 -32,22z" /><path style="fill:#596d8c" d="M547,303 l0,30 32,-43 0,-10 -32,23z" /><path style="fill:#596d8c" d="M511,327 l0,29 30,-41 0,-10 -30,22z" /><path style="fill:#596d8c" d="M583,70 l0,30 32,-40 0,-12 -32,22z" /><path style="fill:#596d8c" d="M547,94 l0,30 32,-40 0,-12 -32,22z" /><path style="fill:#596d8c" d="M511,118 l0,30 30,-40 0,-10 -30,20z" /><path style="fill:#596d8c" d="M583,174 l0,30 32,-42 0,-10 -32,22z" /><path style="fill:#596d8c" d="M547,198 l0,30 32,-42 0,-10 -32,22z" /><path style="fill:#596d8c" d="M511,222 l0,30 30,-42 0,-10 -30,22z" /><path style="fill:none;stroke:#4c4c4c;stroke-width:2" d="M583,152 l0,-82 32,-22" /><path style="fill:none;stroke:#4c4c4c;stroke-width:2" d="M547,176 l0,-82 32,-22" /><path style="fill:none;stroke:#4c4c4c;stroke-width:2" d="M511,200 l0,-82 30,-20" /><path style="fill:none;stroke:#4c4c4c;stroke-width:2" d="M583,256 l0,-82 32,-22" /><path style="fill:none;stroke:#4c4c4c;stroke-width:2" d="M547,280 l0,-82 32,-22" /><path style="fill:none;stroke:#4c4c4c;stroke-width:2" d="M511,305 l0,-83 30,-22" /><path style="fill:none;stroke:#4c4c4c;stroke-width:2" d="M583,360 l0,-82 32,-22" /><path style="fill:none;stroke:#4c4c4c;stroke-width:2" d="M547,385 l0,-82 32,-23" /><path style="fill:none;stroke:#4c4c4c;stroke-width:2" d="M511,409 l0,-82 30,-22" /><path style="fill:none;stroke:#4c4c4c;stroke-width:2" d="M583,465 l0,-84 32,-21" /><path style="fill:none;stroke:#4c4c4c;stroke-width:2" d="M547,489 l0,-84 32,-20" /><path style="fill:none;stroke:#4c4c4c;stroke-width:2" d="M511,513 l0,-82 30,-22" /><path style="fill:none;stroke:#4c4c4c;stroke-width:2" d="M583,569 l0,-84 32,-20" /><path style="fill:none;stroke:#4c4c4c;stroke-width:2" d="M547,593 l0,-84 32,-20" /><path style="fill:none;stroke:#4c4c4c;stroke-width:2" d="M511,617 l0,-84 30,-20" /><path style="fill:none;stroke:#4c4c4c;stroke-width:2" d="M583,673 l0,-84 32,-20" /><path style="fill:none;stroke:#4c4c4c;stroke-width:2" d="M547,697 l0,-84 32,-20" /><path style="fill:none;stroke:#4c4c4c;stroke-width:2" d="M511,722 l0,-84 30,-21" /><path style="fill:none;stroke:#4c4c4c;stroke-width:2" d="M583,778 l0,-85 32,-20" /><path style="fill:none;stroke:#4c4c4c;stroke-width:2" d="M547,802 l0,-84 32,-21" /><path style="fill:none;stroke:#4c4c4c;stroke-width:2" d="M511,826 l0,-84 30,-20" /><path style="fill:none;stroke:#4c4c4c;stroke-width:2" d="M583,882 l0,-84 32,-20" /><path style="fill:none;stroke:#4c4c4c;stroke-width:2" d="M547,906 l0,-84 32,-20" /><path style="fill:none;stroke:#4c4c4c;stroke-width:2" d="M511,930 l0,-84 30,-20" /></svg>