<!DOCTYPE svg PUBLIC "-//W3C//DTD SVG 20000303 Stylable//EN" "http://www.w3.org/TR/2000/03/WD-SVG-20000303/DTD/svg-20000303-stylable.dtd"[]><svg xmlns="http://www.w3.org/2000/svg" width="776px" height="999px" viewBox="0 0 765 999"><path style="fill:#e5e5e5;stroke:#4c4c4c;stroke-width:2" d="M4,994 l0,-916 609,0 0,916 -609,0z" /><path style="fill:#b2b2b2;stroke:#4c4c4c;stroke-width:2" d="M613,78 l147,-74 0,905 -147,85 0,-916z" /><path style="fill:#f7f7f7;stroke:#4c4c4c;stroke-width:2" d="M613,78 l147,-74 -599,0 -157,74 609,0z" /><path style="fill:#4c4c4c" d="M47,194 l71,0 0,116 -71,0 0,-116z" /><path style="fill:#4c4c4c" d="M161,194 l73,0 0,116 -73,0 0,-116z" /><path style="fill:#4c4c4c" d="M276,194 l74,0 0,116 -74,0 0,-116z" /><path style="fill:#4c4c4c" d="M380,194 l75,0 0,116 -75,0 0,-116z" /><path style="fill:#4c4c4c" d="M497,194 l74,0 0,116 -74,0 0,-116z" /><path style="fill:#4c4c4c" d="M47,383 l71,0 0,116 -71,0 0,-116z" /><path style="fill:#4c4c4c" d="M161,383 l73,0 0,116 -73,0 0,-116z" /><path style="fill:#4c4c4c" d="M276,383 l74,0 0,116 -74,0 0,-116z" /><path style="fill:#4c4c4c" d="M380,383 l75,0 0,116 -75,0 0,-116z" /><path style="fill:#4c4c4c" d="M497,383 l74,0 0,116 -74,0 0,-116z" /><path style="fill:#4c4c4c" d="M47,573 l71,0 0,114 -71,0 0,-114z" /><path style="fill:#4c4c4c" d="M161,573 l73,0 0,114 -73,0 0,-114z" /><path style="fill:#4c4c4c" d="M276,573 l74,0 0,114 -74,0 0,-114z" /><path style="fill:#4c4c4c" d="M380,573 l75,0 0,114 -75,0 0,-114z" /><path style="fill:#4c4c4c" d="M497,573 l74,0 0,114 -74,0 0,-114z" /><path style="fill:#4c4c4c" d="M47,762 l71,0 0,116 -71,0 0,-116z" /><path style="fill:#4c4c4c" d="M161,762 l73,0 0,116 -73,0 0,-116z" /><path style="fill:#4c4c4c" d="M276,762 l74,0 0,116 -74,0 0,-116z" /><path style="fill:#4c4c4c" d="M380,762 l75,0 0,116 -75,0 0,-116z" /><path style="fill:#4c4c4c" d="M497,762 l74,0 0,116 -74,0 0,-116z" /><path style="fill:#000" d="M743,127 l-16,11 0,114 16,-9 0,-116z" /><path style="fill:#000" d="M718,141 l-14,9 0,116 14,-11 0,-114z" /><path style="fill:#000" d="M696,155 l-16,9 0,114 16,-9 0,-114z" /><path style="fill:#000" d="M673,169 l-16,9 0,114 16,-9 0,-114z" /><path style="fill:#000" d="M648,183 l-16,9 0,114 16,-9 0,-114z" /><path style="fill:#000" d="M743,318 l-16,9 0,114 16,-9 0,-114z" /><path style="fill:#000" d="M718,331 l-14,10 0,114 14,-10 0,-114z" /><path style="fill:#000" d="M696,345 l-16,8 0,116 16,-10 0,-114z" /><path style="fill:#000" d="M673,359 l-16,9 0,114 16,-9 0,-114z" /><path style="fill:#000" d="M648,373 l-16,8 0,115 16,-9 0,-114z" /><path style="fill:#000" d="M743,508 l-16,8 0,115 16,-9 0,-114z" /><path style="fill:#000" d="M718,520 l-14,11 0,114 14,-9 0,-116z" /><path style="fill:#000" d="M696,534 l-16,9 0,116 16,-11 0,-114z" /><path style="fill:#000" d="M673,548 l-16,9 0,114 16,-9 0,-114z" /><path style="fill:#000" d="M648,562 l-16,9 0,114 16,-9 0,-114z" /><path style="fill:#000" d="M743,697 l-16,11 0,114 16,-11 0,-114z" /><path style="fill:#000" d="M718,711 l-14,9 0,114 14,-9 0,-114z" /><path style="fill:#000" d="M696,725 l-16,9 0,114 16,-9 0,-114z" /><path style="fill:#000" d="M673,739 l-16,9 0,114 16,-9 0,-114z" /><path style="fill:#000" d="M648,753 l-16,9 0,114 16,-9 0,-114z" /></svg>