<!DOCTYPE svg PUBLIC "-//W3C//DTD SVG 20000303 Stylable//EN" "http://www.w3.org/TR/2000/03/WD-SVG-20000303/DTD/svg-20000303-stylable.dtd"[]><svg xmlns="http://www.w3.org/2000/svg" width="700px" height="999px" viewBox="0 0 682 999"><path style="fill:#b2b2b2" d="M544,349 l-13,-349 -32,0 -12,349 57,0z" /><path style="fill:#ccc" d="M536,349 l-9,-349 -23,0 -9,349 41,0z" /><path style="fill:#fff" d="M523,349 l-3,-349 -9,0 -4,349 16,0z" /><path style="fill:none;stroke:#4c4c4c;stroke-width:2" d="M544,349 l-13,-349 -32,0 -12,349 57,0" /><path style="fill:#e5b27f;stroke:#4c4c4c;stroke-width:2" d="M649,804 l33,-17 -33,0 0,17z" /><path style="fill:#e5b27f;stroke:#4c4c4c;stroke-width:2" d="M129,706 l455,0 65,-16 -390,0 -130,16z" /><path style="fill:#e5b27f;stroke:#4c4c4c;stroke-width:2" d="M0,804 l519,0 65,-25 -455,0 -129,25z" /><path style="fill:#c96;stroke:#4c4c4c;stroke-width:2" d="M519,804 l0,195 -519,0 0,-195 519,0z" /><path style="fill:#c96;stroke:#4c4c4c;stroke-width:2" d="M584,706 l0,73 -455,0 0,-73 455,0z" /><path style="fill:#4c4c4c" d="M150,446 l0,-24 329,0 0,24 -329,0z" /><path style="fill:#4c4c4c" d="M0,917 l0,-32 519,0 0,32 -519,0z" /><path style="fill:#963;stroke:#4c4c4c;stroke-width:2" d="M519,999 l163,-82 0,-130 -33,16 0,-113 -65,16 0,73 -65,25 0,195z" /><path style="fill:#963;stroke:#4c4c4c;stroke-width:2" d="M487,332 l0,90 97,8 0,-73 -97,-25z" /><path style="fill:#963;stroke:#4c4c4c;stroke-width:2" d="M487,446 l0,341 32,-8 0,-73 66,-16 -1,-240 -97,-4z" /><path style="fill:#000" d="M682,832 l0,-24 -163,77 0,32 163,-85z" /><path style="fill:#000" d="M580,450 l0,-20 -101,-8 0,24 101,4z" /><path style="fill:#c96;stroke:#4c4c4c;stroke-width:2" d="M487,332 l0,90 -341,0 0,-90 341,0z" /><path style="fill:#c96;stroke:#4c4c4c;stroke-width:2" d="M487,446 l0,341 -341,0 0,-341 341,0z" /></svg>