<!DOCTYPE svg PUBLIC "-//W3C//DTD SVG 20000303 Stylable//EN" "http://www.w3.org/TR/2000/03/WD-SVG-20000303/DTD/svg-20000303-stylable.dtd"[]><svg xmlns="http://www.w3.org/2000/svg" width="979px" height="998px" viewBox="0 0 979 999"><path style="fill:#e5e5e5;stroke:#4c4c4c;stroke-width:2" d="M12,986 l0,-365 567,0 2,-162 323,0 0,527 -892,0z" /><path style="fill:#b2b2b2;stroke:#4c4c4c;stroke-width:2" d="M904,458 l62,-40 0,527 -62,41 0,-528z" /><path style="fill:#f7f7f7;stroke:#4c4c4c;stroke-width:2" d="M580,621 l0,-41 -486,0 -82,41 568,0z" /><path style="fill:#bfd3f2;stroke:#4c4c4c;stroke-width:2" d="M12,722 l0,-81 892,0 0,81 -892,0z" /><path style="fill:#8ca0bf;stroke:#4c4c4c;stroke-width:2" d="M966,681 l0,-80 -62,40 0,81 62,-41z" /><path style="fill:none;stroke:#fff;stroke-width:2" d="M14,723 l889,0" /><path style="fill:none;stroke:#e5e5e5;stroke-width:2" d="M906,721 l58,-38" /><path style="fill:#f7f7f7;stroke:#4c4c4c;stroke-width:2" d="M904,458 l62,-40 -305,0 -81,40 324,0z" /><path style="fill:none;stroke:#4c4c4c;stroke-width:2" d="M580,621 l324,0 62,-41" /><path style="fill:#323219;stroke:#4c4c4c;stroke-width:2" d="M894,429 l-11,-417 -39,0 -11,417 61,0z" /><path style="fill:#323219;stroke:#4c4c4c;stroke-width:2" d="M458,601 l0,-41 -61,0 0,41 61,0z" /><path style="fill:#65654c" d="M884,429 l-7,-417 -26,0 -7,417 40,0z" /><path style="fill:#65654c" d="M448,601 l0,-41 -40,0 0,41 40,0z" /><path style="fill:#98987f" d="M874,429 l-4,-417 -12,0 -4,417 20,0z" /><path style="fill:#98987f" d="M438,601 l0,-41 -20,0 0,41 20,0z" /></svg>