<!DOCTYPE svg PUBLIC "-//W3C//DTD SVG 20000303 Stylable//EN" "http://www.w3.org/TR/2000/03/WD-SVG-20000303/DTD/svg-20000303-stylable.dtd"[]><svg xmlns="http://www.w3.org/2000/svg" width="999px" height="984px" viewBox="0 0 999 983"><path style="fill:#e5e5e5" d="M758,174 l-13,-2 -12,-2 -12,-3 -10,-4 -10,-3 -9,-4 -9,-4 -7,-4 -7,-4 -6,-5 -5,-5 -4,-5 -3,-5 -2,-5 -1,-6 -1,-5 -11,4 -10,3 -10,3 -10,2 -10,1 -10,1 -9,0 -9,-1 -10,0 -9,-1 -10,-2 -9,-2 -10,-2 -11,-3 -10,-2 -11,-3 -6,3 -6,2 -6,2 -6,2 -6,2 -5,2 -6,2 -6,2 -5,1 -6,2 -6,1 -5,1 -6,1 -5,1 -6,1 -5,1 -6,0 -5,1 -6,0 -5,0 -5,0 -6,0 -5,0 -5,0 -6,0 -5,-1 -5,0 -5,-1 -5,-1 -6,-1 -5,-1 -5,-1 -5,2 -5,2 -5,2 -5,1 -4,1 -5,1 -5,0 -4,0 -4,-1 -4,0 -4,-2 -4,-1 -4,-2 -4,-2 -4,-3 -3,-2 -8,-1 -8,0 -8,0 -7,1 -8,1 -7,1 -6,1 -6,1 -6,1 -5,1 -5,0 -4,0 -4,0 -2,-1 -3,-2 -1,-3 -10,0 -9,-1 -10,0 -10,0 -10,-1 -9,0 -10,0 -10,-1 -9,0 -10,0 -10,0 -9,-1 -10,0 -10,0 -10,-1 -9,0 0,-5 1,-6 3,-5 4,-5 5,-4 6,-4 7,-4 8,-3 9,-3 8,-2 10,-2 10,-1 10,-1 10,0 11,1 10,2 5,-5 4,-4 5,-3 4,-4 4,-3 4,-3 4,-2 5,-3 4,-1 4,-1 5,-1 5,0 6,0 5,2 6,2 6,2 6,-2 6,-1 5,-2 6,-2 6,-1 5,-2 6,-2 5,-2 6,-1 6,-2 5,-2 6,-2 6,-2 5,-1 6,-2 5,-2 7,0 7,-1 7,0 7,0 6,0 6,0 7,1 6,1 6,1 6,2 5,2 6,2 5,4 6,3 5,4 6,5 1,-4 1,-3 2,-4 3,-3 3,-3 3,-3 4,-2 4,-3 4,-3 5,-2 5,-3 6,-2 5,-2 6,-2 6,-2 6,-2 9,0 9,1 10,0 9,0 9,1 9,1 8,1 9,2 8,2 7,3 7,3 6,4 6,4 5,6 5,6 3,7 3,-4 4,-4 3,-4 5,-4 5,-4 5,-3 5,-4 6,-3 6,-3 7,-3 7,-3 7,-2 7,-2 8,-2 8,-1 8,0 9,0 10,0 9,1 9,0 9,1 8,2 9,1 7,2 8,2 7,3 7,3 6,3 6,4 6,4 4,5 5,6 4,-6 5,-4 6,-3 5,-2 7,-1 7,0 7,1 7,1 8,1 9,3 8,2 9,3 9,3 9,3 10,3 10,3 4,-2 4,0 5,2 5,3 5,4 6,5 5,6 5,6 4,7 5,7 3,7 2,6 2,6 0,5 0,5 -3,3 1,7 0,7 1,8 2,8 1,9 2,8 2,9 2,9 2,8 2,9 2,8 1,9 1,8 1,7 1,8 0,7 -2,0 -3,0 -4,0 -3,0 -3,0 -4,0 -3,0 -4,0 -3,0 -4,0 -3,0 -4,0 -3,0 -3,0 -3,0 -3,0 0,-6 0,-5 -1,-5 0,-5 -1,-6 -1,-5 0,-5 -1,-5 -1,-5 -1,-5 0,-5 -1,-6 0,-5 -1,-5 0,-6 0,-5 -4,-11 -4,-9 -5,-8 -4,-7 -6,-6 -5,-4 -5,-3 -6,-2 -6,0 -5,1 -6,2 -5,4 -6,6 -5,8 -5,9 -4,11 1,4 2,5 1,5 1,6 1,5 1,6 1,7 1,6 0,7 1,6 0,7 0,6 0,6 0,6 0,6 0,6 -3,0 -3,0 -3,0 -4,0 -3,0 -4,-1 -3,0 -4,0 -4,0 -3,0 -4,0 -3,0 -4,0 -3,-1 -3,0 -3,0 -1,-5 -1,-5 -1,-5 -1,-6 0,-6 -1,-5 -2,-5 -1,-5 -1,-5 -1,-5 -2,-4 -1,-3 -2,-4 -2,-2 -2,-2 -3,-1z" /><path style="fill:#b2b2b2" d="M3,120 l3,-5 5,-5 5,-4 6,-4 7,-4 7,-4 8,-4 8,-3 9,-2 8,-2 8,-2 9,-1 8,-1 7,0 8,1 6,1 6,-3 7,-3 6,-3 6,-3 5,-2 6,-2 6,-2 5,-1 5,-2 5,-1 5,0 5,-1 4,0 4,0 5,0 3,0 4,-3 4,-2 5,-3 4,-2 6,-2 5,-2 6,-1 6,-2 6,-1 6,-1 6,-1 7,-1 7,0 6,-1 7,0 7,0 6,0 7,0 6,0 7,0 6,1 6,0 6,1 5,1 6,0 5,1 4,1 5,1 4,2 3,1 3,1 3,2 4,-3 5,-2 4,-2 5,-2 6,-2 5,-1 5,-2 6,-1 6,-1 6,-1 6,-1 6,-1 6,0 7,-1 6,0 6,0 7,0 6,0 7,0 7,0 6,1 7,0 7,1 7,1 6,1 7,0 6,1 7,2 6,1 7,1 6,1 6,2 5,-2 4,-3 5,-2 6,-1 5,-2 6,-2 6,-1 6,-2 6,-1 7,-2 7,-1 7,-1 7,0 7,-1 7,-1 8,0 7,0 8,0 7,0 8,1 7,0 8,1 7,1 8,1 7,2 7,1 8,2 7,3 7,2 7,3 6,3 7,3 6,-5 6,-3 6,-2 5,-1 4,0 5,0 4,1 5,2 4,2 5,3 5,3 5,2 6,3 7,2 7,2 7,2 4,-1 3,0 4,0 4,0 5,1 5,0 4,1 5,1 4,2 5,1 3,2 4,2 3,3 3,3 1,3 1,3 3,2 2,2 2,2 2,2 1,2 2,2 2,2 1,2 1,2 1,3 1,2 0,3 0,3 0,4 -1,4 -1,4 2,3 2,3 2,4 2,5 2,6 2,6 2,8 2,7 2,9 2,9 2,10 2,10 2,11 1,12 1,12 1,12 -55,-1 -1,-6 0,-5 -1,-6 0,-5 -1,-5 0,-4 -1,-5 0,-4 -1,-4 0,-4 -1,-3 -1,-4 -1,-3 -1,-3 -2,-3 -1,-3 -2,-4 -3,-4 -2,-3 -3,-3 -2,-2 -3,-3 -3,-2 -3,-2 -3,-2 -4,-2 -3,-1 -4,-2 -4,-2 -4,-1 -4,-2 -5,-2 -4,-1 -3,-1 -3,0 -3,1 -2,2 -2,2 -1,2 -1,3 -1,3 -1,3 -1,3 0,4 -1,3 0,3 -1,3 0,2 0,6 1,4 1,5 1,4 0,4 1,5 1,3 1,4 0,5 1,4 1,4 0,5 0,5 0,5 0,6 0,7 -50,-2 -1,-6 -2,-7 -1,-7 -1,-6 -1,-7 -2,-6 -1,-6 -2,-6 -1,-5 -1,-5 -2,-5 -1,-4 -2,-3 -2,-2 -1,-2 -2,-1 -10,-1 -9,-1 -9,-1 -8,0 -7,-1 -7,-1 -6,-1 -6,-1 -5,-1 -5,-1 -5,-2 -4,-1 -4,-3 -4,-2 -4,-3 -3,-4 -2,-4 -2,-3 0,-4 -1,-4 0,-3 -1,-4 -1,-3 -1,-3 -3,3 -4,2 -3,2 -5,2 -4,2 -5,1 -4,2 -6,1 -5,1 -6,1 -5,0 -6,1 -6,0 -6,0 -6,0 -7,0 -6,-1 -6,0 -7,-1 -6,-1 -6,-1 -7,-1 -6,-1 -6,-1 -6,-2 -6,-2 -6,-1 -5,-2 -5,-2 -6,-2 -5,-3 -4,-2 -7,4 -8,4 -7,3 -7,3 -7,3 -7,3 -7,3 -7,2 -7,2 -7,2 -7,2 -7,1 -6,1 -6,1 -6,1 -6,0 -6,1 -5,0 -5,0 -5,-1 -4,0 -4,-1 -4,-1 -3,-2 -3,-1 -3,-2 -2,-2 -1,-2 -1,-3 -1,-2 0,-3 1,-3 -4,0 -4,0 -4,0 -4,0 -5,0 -4,0 -5,0 -5,0 -5,0 -5,0 -6,-1 -5,0 -5,0 -6,-1 -5,0 -6,0 -6,0 -5,-1 -6,0 -6,0 -5,0 -6,0 -5,1 -6,0 -5,0 -6,1 -5,1 -5,0 -5,1 -5,1 -5,2 -5,1 -2,0 -2,0 -2,-1 -3,0 -4,0 -3,0 -4,-1 -4,0 -5,0 -5,0 -4,0 -6,-1 -5,0 -5,0 -6,0 -6,0 -6,-1 -6,0 -6,0 -6,0 -7,0 -6,0 -6,0 -6,-1 -7,0 -6,0 -6,0 -6,0 -6,0 -6,0 -5,0 -6,0z" /><path style="fill:#999" d="M772,232 l69,0 18,598 -105,0 18,-598z" /><path style="fill:#999" d="M910,232 l69,0 18,598 -105,0 18,-598z" /><path style="fill:#bfbfbf" d="M789,232 l36,0 9,598 -55,0 10,-598z" /><path style="fill:#bfbfbf" d="M931,232 l29,0 7,598 -44,0 8,-598z" /><path style="fill:none;stroke:#4c4c4c;stroke-width:2" d="M772,232 l69,0 18,598 -105,0 18,-598" /><path style="fill:none;stroke:#4c4c4c;stroke-width:2" d="M910,232 l69,0 18,598 -105,0 18,-598" /><path style="fill:#e5e5e5;stroke:#4c4c4c;stroke-width:2" d="M181,661 l95,-80 0,84 723,0 0,318 -913,0 0,-318 0,-4 95,-80 0,80z" /><path style="fill:#7f7f7f;stroke:#4c4c4c;stroke-width:2" d="M220,900 l43,0 0,43 -43,0 0,-43z" /><path style="fill:#7f7f7f;stroke:#4c4c4c;stroke-width:2" d="M134,900 l43,0 0,43 -43,0 0,-43z" /><path style="fill:#7f7f7f;stroke:#4c4c4c;stroke-width:2" d="M220,814 l43,0 0,43 -43,0 0,-43z" /><path style="fill:#7f7f7f;stroke:#4c4c4c;stroke-width:2" d="M134,814 l43,0 0,43 -43,0 0,-43z" /><path style="fill:#7f7f7f;stroke:#4c4c4c;stroke-width:2" d="M134,728 l43,0 0,43 -43,0 0,-43z" /><path style="fill:#7f7f7f;stroke:#4c4c4c;stroke-width:2" d="M306,728 l44,0 0,43 -44,0 0,-43z" /><path style="fill:#7f7f7f;stroke:#4c4c4c;stroke-width:2" d="M933,728 l43,0 0,43 -43,0 0,-43z" /><path style="fill:#7f7f7f;stroke:#4c4c4c;stroke-width:2" d="M847,728 l43,0 0,43 -43,0 0,-43z" /><path style="fill:#7f7f7f;stroke:#4c4c4c;stroke-width:2" d="M761,728 l43,0 0,43 -43,0 0,-43z" /><path style="fill:#7f7f7f;stroke:#4c4c4c;stroke-width:2" d="M761,814 l43,0 0,43 -43,0 0,-43z" /><path style="fill:#7f7f7f;stroke:#4c4c4c;stroke-width:2" d="M847,900 l43,0 0,43 -43,0 0,-43z" /><path style="fill:#7f7f7f;stroke:#4c4c4c;stroke-width:2" d="M933,900 l43,0 0,43 -43,0 0,-43z" /><path style="fill:#7f7f7f;stroke:#4c4c4c;stroke-width:2" d="M427,728 l32,0 0,33 -32,0 0,-33z" /><path style="fill:#7f7f7f;stroke:#4c4c4c;stroke-width:2" d="M427,802 l32,0 0,-33 -32,0 0,33z" /><path style="fill:#7f7f7f;stroke:#4c4c4c;stroke-width:2" d="M427,812 l32,0 0,33 -32,0 0,-33z" /><path style="fill:#7f7f7f;stroke:#4c4c4c;stroke-width:2" d="M427,888 l32,0 0,-32 -32,0 0,32z" /><path style="fill:#7f7f7f;stroke:#4c4c4c;stroke-width:2" d="M427,902 l32,0 0,33 -32,0 0,-33z" /><path style="fill:#7f7f7f;stroke:#4c4c4c;stroke-width:2" d="M503,728 l-33,0 0,33 33,0 0,-33z" /><path style="fill:#7f7f7f;stroke:#4c4c4c;stroke-width:2" d="M503,802 l-33,0 0,-33 33,0 0,33z" /><path style="fill:#7f7f7f;stroke:#4c4c4c;stroke-width:2" d="M503,812 l-33,0 0,33 33,0 0,-33z" /><path style="fill:#7f7f7f;stroke:#4c4c4c;stroke-width:2" d="M503,888 l-33,0 0,-32 33,0 0,32z" /><path style="fill:#7f7f7f;stroke:#4c4c4c;stroke-width:2" d="M503,902 l-33,0 0,33 33,0 0,-33z" /><path style="fill:#7f7f7f;stroke:#4c4c4c;stroke-width:2" d="M513,728 l33,0 0,33 -33,0 0,-33z" /><path style="fill:#7f7f7f;stroke:#4c4c4c;stroke-width:2" d="M513,802 l33,0 0,-33 -33,0 0,33z" /><path style="fill:#7f7f7f;stroke:#4c4c4c;stroke-width:2" d="M513,812 l33,0 0,33 -33,0 0,-33z" /><path style="fill:#7f7f7f;stroke:#4c4c4c;stroke-width:2" d="M513,888 l33,0 0,-32 -33,0 0,32z" /><path style="fill:#7f7f7f;stroke:#4c4c4c;stroke-width:2" d="M513,902 l33,0 0,33 -33,0 0,-33z" /><path style="fill:#7f7f7f;stroke:#4c4c4c;stroke-width:2" d="M589,728 l-33,0 0,33 33,0 0,-33z" /><path style="fill:#7f7f7f;stroke:#4c4c4c;stroke-width:2" d="M589,802 l-33,0 0,-33 33,0 0,33z" /><path style="fill:#7f7f7f;stroke:#4c4c4c;stroke-width:2" d="M589,812 l-33,0 0,33 33,0 0,-33z" /><path style="fill:#7f7f7f;stroke:#4c4c4c;stroke-width:2" d="M589,888 l-33,0 0,-32 33,0 0,32z" /><path style="fill:#7f7f7f;stroke:#4c4c4c;stroke-width:2" d="M589,902 l-33,0 0,33 33,0 0,-33z" /><path style="fill:#7f7f7f;stroke:#4c4c4c;stroke-width:2" d="M599,728 l33,0 0,33 -33,0 0,-33z" /><path style="fill:#7f7f7f;stroke:#4c4c4c;stroke-width:2" d="M599,802 l33,0 0,-33 -33,0 0,33z" /><path style="fill:#7f7f7f;stroke:#4c4c4c;stroke-width:2" d="M599,812 l33,0 0,33 -33,0 0,-33z" /><path style="fill:#7f7f7f;stroke:#4c4c4c;stroke-width:2" d="M599,888 l33,0 0,-32 -33,0 0,32z" /><path style="fill:#7f7f7f;stroke:#4c4c4c;stroke-width:2" d="M599,902 l33,0 0,33 -33,0 0,-33z" /><path style="fill:#7f7f7f;stroke:#4c4c4c;stroke-width:2" d="M676,728 l-34,0 0,33 34,0 0,-33z" /><path style="fill:#7f7f7f;stroke:#4c4c4c;stroke-width:2" d="M676,802 l-34,0 0,-33 34,0 0,33z" /><path style="fill:#7f7f7f;stroke:#4c4c4c;stroke-width:2" d="M676,812 l-34,0 0,33 34,0 0,-33z" /><path style="fill:#7f7f7f;stroke:#4c4c4c;stroke-width:2" d="M676,888 l-34,0 0,-32 34,0 0,32z" /><path style="fill:#7f7f7f;stroke:#4c4c4c;stroke-width:2" d="M676,902 l-34,0 0,33 34,0 0,-33z" /><path style="fill:#ff0;stroke:#4c4c4c;stroke-width:2" d="M933,814 l43,0 0,43 -43,0 0,-43z" /><path style="fill:#ff0;stroke:#4c4c4c;stroke-width:2" d="M847,814 l43,0 0,43 -43,0 0,-43z" /><path style="fill:#ff0;stroke:#4c4c4c;stroke-width:2" d="M761,900 l43,0 0,43 -43,0 0,-43z" /><path style="fill:#ff0;stroke:#4c4c4c;stroke-width:2" d="M306,814 l44,0 0,43 -44,0 0,-43z" /><path style="fill:#ff0;stroke:#4c4c4c;stroke-width:2" d="M220,728 l43,0 0,43 -43,0 0,-43z" /><path style="fill:#7f7f7f;stroke:#4c4c4c;stroke-width:2" d="M306,900 l44,0 0,43 -44,0 0,-43z" /></svg>