<!DOCTYPE svg PUBLIC "-//W3C//DTD SVG 20000303 Stylable//EN" "http://www.w3.org/TR/2000/03/WD-SVG-20000303/DTD/svg-20000303-stylable.dtd"[]><svg xmlns="http://www.w3.org/2000/svg" width="999px" height="417px" viewBox="0 0 999 382"><path style="fill:#e5e5e5;stroke:#4c4c4c;stroke-width:2" d="M831,217 l-831,0 0,165 831,0 0,-165z" /><path style="fill:#999;stroke:#4c4c4c;stroke-width:2" d="M999,175 l-834,0 -165,42 831,0 168,-42z" /><path style="fill:#7f7f7f;stroke:#4c4c4c;stroke-width:2" d="M759,342 l-64,0 0,-63 64,0 0,63z" /><path style="fill:#7f7f7f;stroke:#4c4c4c;stroke-width:2" d="M655,342 l-64,0 0,-63 64,0 0,63z" /><path style="fill:#7f7f7f;stroke:#4c4c4c;stroke-width:2" d="M550,342 l-62,0 0,-63 62,0 0,63z" /><path style="fill:#7f7f7f;stroke:#4c4c4c;stroke-width:2" d="M446,342 l-62,0 0,-63 62,0 0,63z" /><path style="fill:#7f7f7f;stroke:#4c4c4c;stroke-width:2" d="M342,382 l-62,0 0,-103 62,0 0,103z" /><path style="fill:#7f7f7f;stroke:#4c4c4c;stroke-width:2" d="M238,342 l-61,0 0,-63 61,0 0,63z" /><path style="fill:#7f7f7f;stroke:#4c4c4c;stroke-width:2" d="M134,342 l-62,0 0,-63 62,0 0,63z" /><path style="fill:#fff;stroke:#4c4c4c;stroke-width:2" d="M238,340 l-52,0 0,-51 52,0 0,51z" /><path style="fill:#fff;stroke:#4c4c4c;stroke-width:2" d="M134,340 l-52,0 0,-51 52,0 0,51z" /><path style="fill:#fff;stroke:#4c4c4c;stroke-width:2" d="M655,340 l-52,0 0,-51 52,0 0,51z" /><path style="fill:#fff;stroke:#4c4c4c;stroke-width:2" d="M759,340 l-52,0 0,-51 52,0 0,51z" /><path style="fill:#fff;stroke:#4c4c4c;stroke-width:2" d="M446,340 l-52,0 0,-51 52,0 0,51z" /><path style="fill:#fff;stroke:#4c4c4c;stroke-width:2" d="M550,340 l-52,0 0,-51 52,0 0,51z" /><path style="fill:#ccc;stroke:#4c4c4c;stroke-width:2" d="M342,382 l-52,0 0,-91 52,0 0,91z" /><path style="fill:#ccc;stroke:#4c4c4c;stroke-width:2" d="M831,217 l168,-42 0,165 -168,42 0,-165z" /><path style="fill:#7f7f7f;stroke:#4c4c4c;stroke-width:2" d="M747,191 l8,-186 0,-1 1,-1 1,-1 2,-1 2,-1 2,0 3,0 3,0 3,0 3,0 2,0 2,1 2,1 1,1 1,1 0,1 6,186 0,1 -1,1 -2,1 -2,1 -3,1 -4,0 -4,1 -4,0 -4,0 -4,-1 -4,0 -3,-1 -3,-1 -2,-1 -1,-1 -1,-1z" /><path style="fill:#7f7f7f;stroke:#4c4c4c;stroke-width:2" d="M624,191 l6,-186 0,-1 1,-1 1,-1 2,-1 2,-1 2,0 3,0 3,0 3,0 2,0 3,0 2,1 1,1 2,1 0,1 1,1 8,186 -1,1 -1,1 -2,1 -3,1 -3,1 -4,0 -4,1 -4,0 -5,0 -4,-1 -3,0 -3,-1 -2,-1 -2,-1 -1,-1 0,-1z" /><path style="fill:#7f7f7f;stroke:#4c4c4c;stroke-width:2" d="M498,191 l8,-186 0,-1 1,-1 1,-1 2,-1 2,-1 2,0 3,0 3,0 2,0 2,0 2,0 2,1 2,1 1,1 1,1 0,1 8,186 0,1 -2,1 -2,1 -2,1 -3,1 -4,0 -3,1 -4,0 -4,0 -4,-1 -4,0 -3,-1 -3,-1 -2,-1 -2,-1 0,-1z" /><path style="fill:#7f7f7f;stroke:#4c4c4c;stroke-width:2" d="M372,191 l8,-186 1,-1 0,-1 2,-1 1,-1 2,-1 3,0 2,0 3,0 3,0 3,0 2,0 2,1 2,1 1,1 1,1 0,1 6,186 0,1 -1,1 -2,1 -2,1 -3,1 -3,0 -4,1 -5,0 -4,0 -4,-1 -4,0 -3,-1 -3,-1 -2,-1 -1,-1 -1,-1z" /><path style="fill:#7f7f7f;stroke:#4c4c4c;stroke-width:2" d="M249,191 l6,-186 0,-1 1,-1 1,-1 2,-1 2,-1 2,0 3,0 3,0 3,0 2,0 3,0 2,1 1,1 2,1 0,1 1,1 8,186 -1,1 -1,1 -2,1 -3,1 -3,1 -4,0 -4,1 -4,0 -4,0 -4,-1 -3,0 -3,-1 -2,-1 -2,-1 -2,-1 0,-1z" /><path style="fill:#b2b2b2" d="M755,191 l4,-186 0,-1 1,-1 1,-1 1,-1 1,-1 2,0 2,0 2,0 3,0 3,1 1,2 1,2 6,186 0,1 -1,1 -1,1 -2,1 -2,1 -2,0 -3,1 -3,0 -3,0 -3,-1 -2,0 -2,-1 -2,-1 -1,-1 -1,-1 0,-1z" /><path style="fill:#b2b2b2" d="M630,191 l4,-186 0,-1 1,-1 1,-1 1,-1 2,-1 1,0 2,0 2,0 2,0 2,0 1,0 2,1 1,1 1,1 0,1 1,1 4,186 -1,1 0,1 -2,1 -1,1 -2,1 -3,0 -2,1 -3,0 -3,0 -3,-1 -2,0 -2,-1 -2,-1 -1,-1 -1,-1 0,-1z" /><path style="fill:#b2b2b2" d="M506,191 l4,-186 0,-1 1,-1 1,-1 1,-1 1,-1 2,0 2,0 2,0 3,0 3,1 1,2 1,2 4,186 0,1 -1,1 -1,1 -2,1 -2,1 -2,0 -2,1 -2,0 -3,0 -3,-1 -2,0 -2,-1 -2,-1 -1,-1 -1,-1 0,-1z" /><path style="fill:#b2b2b2" d="M380,191 l4,-186 1,-1 0,-1 1,-1 1,-1 2,-1 1,0 2,0 2,0 2,0 2,0 1,0 2,1 1,1 1,1 1,1 0,1 4,186 0,1 -1,1 -1,1 -2,1 -2,1 -2,0 -3,1 -3,0 -3,0 -2,-1 -3,0 -2,-1 -1,-1 -2,-1 0,-1 -1,-1z" /><path style="fill:#b2b2b2" d="M255,191 l6,-186 0,-2 2,-2 3,-1 3,0 2,0 2,0 1,0 2,1 1,1 1,1 0,1 1,1 4,186 -1,1 0,1 -2,1 -1,1 -2,1 -3,0 -2,1 -3,0 -3,0 -3,-1 -2,0 -2,-1 -2,-1 -1,-1 -1,-1 0,-1z" /><ellipse style="fill:#e5e5e5" cx="768" cy="98" rx="3" ry="98" /><ellipse style="fill:#e5e5e5" cx="644" cy="98" rx="4" ry="98" /><ellipse style="fill:#e5e5e5" cx="519" cy="98" rx="3" ry="98" /><ellipse style="fill:#e5e5e5" cx="394" cy="98" rx="4" ry="98" /><ellipse style="fill:#e5e5e5" cx="270" cy="98" rx="3" ry="98" /></svg>