<!DOCTYPE svg PUBLIC "-//W3C//DTD SVG 20000303 Stylable//EN" "http://www.w3.org/TR/2000/03/WD-SVG-20000303/DTD/svg-20000303-stylable.dtd"[]><svg xmlns="http://www.w3.org/2000/svg" width="999px" height="417px" viewBox="0 0 999 382"><path style="fill:#e5d8cb;stroke:#4c4c4c;stroke-width:2" d="M0,382 l0,-212 21,0 0,-64 63,64 0,-64 64,64 0,-64 64,64 0,-64 64,64 0,-64 63,64 383,0 0,85 277,0 0,127 -999,0z" /><path style="fill:#ffffd9;stroke:#4c4c4c;stroke-width:2" d="M42,212 l91,0 0,43 -91,0 0,-43z" /><path style="fill:#ffffd9;stroke:#4c4c4c;stroke-width:2" d="M133,212 l91,0 0,43 -91,0 0,-43z" /><path style="fill:#ffffd9;stroke:#4c4c4c;stroke-width:2" d="M224,212 l91,0 0,43 -91,0 0,-43z" /><path style="fill:#ffffd9;stroke:#4c4c4c;stroke-width:2" d="M315,212 l91,0 0,43 -91,0 0,-43z" /><path style="fill:#ffffd9;stroke:#4c4c4c;stroke-width:2" d="M406,212 l91,0 0,43 -91,0 0,-43z" /><path style="fill:#ffffd9;stroke:#4c4c4c;stroke-width:2" d="M497,212 l91,0 0,43 -91,0 0,-43z" /><path style="fill:#ffffd9;stroke:#4c4c4c;stroke-width:2" d="M588,212 l91,0 0,43 -91,0 0,-43z" /><path style="fill:#ffffd9;stroke:#4c4c4c;stroke-width:2" d="M42,297 l91,0 0,43 -91,0 0,-43z" /><path style="fill:#ffffd9;stroke:#4c4c4c;stroke-width:2" d="M133,297 l91,0 0,43 -91,0 0,-43z" /><path style="fill:#ffffd9;stroke:#4c4c4c;stroke-width:2" d="M224,297 l91,0 0,43 -91,0 0,-43z" /><path style="fill:#ffffd9;stroke:#4c4c4c;stroke-width:2" d="M315,297 l91,0 0,43 -91,0 0,-43z" /><path style="fill:#ffffd9;stroke:#4c4c4c;stroke-width:2" d="M406,297 l91,0 0,43 -91,0 0,-43z" /><path style="fill:#ffffd9;stroke:#4c4c4c;stroke-width:2" d="M497,297 l91,0 0,43 -91,0 0,-43z" /><path style="fill:#ffffd9;stroke:#4c4c4c;stroke-width:2" d="M588,297 l91,0 0,43 -91,0 0,-43z" /><path style="fill:#ffffd9;stroke:#4c4c4c;stroke-width:2" d="M680,297 l91,0 0,43 -91,0 0,-43z" /><path style="fill:#ffffd9;stroke:#4c4c4c;stroke-width:2" d="M771,297 l91,0 0,43 -91,0 0,-43z" /><path style="fill:#ffffd9;stroke:#4c4c4c;stroke-width:2" d="M862,297 l91,0 0,43 -91,0 0,-43z" /><path style="fill:#b28c65" d="M473,0 l-16,170 63,-1 -16,-169 -31,0z" /><path style="fill:#c4a589" d="M477,0 l-1,10 -1,8 0,7 -1,6 0,6 0,6 -1,6 0,7 -1,8 0,8 -1,11 -1,12 -1,15 -1,17 -2,20 -1,23 5,0 4,-1 3,0 4,0 5,0 6,0 8,0 12,0 -1,-9 0,-9 -1,-7 0,-7 0,-6 -1,-6 0,-6 -1,-6 0,-8 -1,-9 -1,-10 0,-12 -1,-15 -2,-16 -1,-20 -2,-23 -2,0 -2,0 -2,0 -2,0 -2,0 -3,0 -4,0 -6,0z" /><path style="fill:#d4c0a9" d="M480,0 l0,10 0,8 -1,7 0,6 0,6 0,6 -1,6 0,7 0,8 -1,8 0,11 -1,12 0,15 -1,17 -1,20 -1,23 3,0 3,-1 2,0 2,0 3,0 4,0 6,0 8,0 0,-9 -1,-9 0,-7 0,-7 -1,-6 0,-6 0,-6 0,-6 -1,-8 0,-9 -1,-10 0,-12 -1,-15 -1,-16 -1,-20 -1,-23 -1,0 -1,0 -1,0 -2,0 -1,0 -2,0 -3,0 -5,0z" /><path style="fill:#e5d8cb" d="M484,0 l-3,170 15,-1 -4,-169 -8,0z" /><path style="fill:none;stroke:#4c4c4c;stroke-width:2" d="M473,0 l-16,170 63,-1 -16,-169 -31,0" /><path style="fill:#b28c65" d="M578,0 l-15,170 63,-1 -16,-169 -32,0z" /><path style="fill:#c4a589" d="M582,0 l0,10 -1,8 0,7 -1,6 0,6 -1,6 0,6 -1,7 0,8 -1,8 0,11 -1,12 -1,15 -2,17 -1,20 -2,23 6,0 4,-1 3,0 4,0 4,0 6,0 9,0 12,0 -1,-9 0,-9 -1,-7 0,-7 -1,-6 0,-6 -1,-6 0,-6 0,-8 -1,-9 -1,-10 -1,-12 -1,-15 -1,-16 -2,-20 -1,-23 -3,0 -2,0 -1,0 -2,0 -2,0 -3,0 -5,0 -6,0z" /><path style="fill:#d4c0a9" d="M586,0 l0,10 -1,8 0,7 0,6 -1,6 0,6 0,6 0,7 -1,8 0,8 -1,11 0,12 -1,15 -1,17 -1,20 -1,23 4,0 2,-1 3,0 2,0 3,0 4,0 6,0 8,0 -1,-9 0,-9 0,-7 -1,-7 0,-6 0,-6 0,-6 -1,-6 0,-8 0,-9 -1,-10 0,-12 -1,-15 -1,-16 -1,-20 -1,-23 -2,0 -1,0 -1,0 -1,0 -2,0 -2,0 -3,0 -4,0z" /><path style="fill:#e5d8cb" d="M590,0 l-4,170 16,-1 -4,-169 -8,0z" /><path style="fill:none;stroke:#4c4c4c;stroke-width:2" d="M578,0 l-15,170 63,-1 -16,-169 -32,0" /></svg>