<!DOCTYPE svg PUBLIC "-//W3C//DTD SVG 20000303 Stylable//EN" "http://www.w3.org/TR/2000/03/WD-SVG-20000303/DTD/svg-20000303-stylable.dtd"[]><svg xmlns="http://www.w3.org/2000/svg" width="998px" height="716px" viewBox="0 0 998 699"><path style="fill:#999;stroke:#4c4c4c;stroke-width:2" d="M321,521 l18,-321 35,0 18,321 -71,0z" /><path style="fill:#999;stroke:#4c4c4c;stroke-width:2" d="M232,521 l18,-321 35,0 18,321 -71,0z" /><path style="fill:#999;stroke:#4c4c4c;stroke-width:2" d="M142,521 l18,-321 36,0 17,321 -71,0z" /><path style="fill:#b2b2b2" d="M330,521 l13,-317 27,0 13,317 -53,0z" /><path style="fill:#b2b2b2" d="M241,521 l13,-317 27,0 13,317 -53,0z" /><path style="fill:#b2b2b2" d="M151,521 l14,-317 26,0 14,317 -54,0z" /><path style="fill:#ccc" d="M347,521 l5,-317 9,0 4,317 -18,0z" /><path style="fill:#ccc" d="M258,521 l5,-317 9,0 4,317 -18,0z" /><path style="fill:#ccc" d="M169,521 l4,-317 9,0 5,317 -18,0z" /><path style="fill:#666;stroke:#4c4c4c;stroke-width:2" d="M245,200 l0,-9 44,0 0,9 -44,0z" /><path style="fill:#666;stroke:#4c4c4c;stroke-width:2" d="M334,200 l0,-9 44,0 0,9 -44,0z" /><path style="fill:#666;stroke:#4c4c4c;stroke-width:2" d="M156,200 l0,-9 44,0 0,9 -44,0z" /><path style="fill:#666;stroke:#4c4c4c;stroke-width:2" d="M71,681 l927,0 0,-232 -927,0 0,232z" /><path style="fill:#999;stroke:#4c4c4c;stroke-width:2" d="M0,521 l642,0 0,178 -642,0 0,-178z" /><path style="fill:#333;stroke:#4c4c4c;stroke-width:2" d="M463,628 l36,0 0,71 -36,0 0,-71z" /><path style="fill:#b2b2b2;stroke:#4c4c4c;stroke-width:2" d="M642,637 l334,0 0,-22 -334,0 0,22z" /><path style="fill:#000;stroke:#4c4c4c;stroke-width:2" d="M642,601 l334,0 0,14 -334,0 0,-14z" /><path style="fill:#000;stroke:#4c4c4c;stroke-width:2" d="M13,539 l615,0 0,13 -615,0 0,-13z" /><path style="fill:#ccc;stroke:#4c4c4c;stroke-width:2" d="M13,552 l68,0 0,22 -68,0 0,-22z" /><path style="fill:#ccc;stroke:#4c4c4c;stroke-width:2" d="M81,552 l69,0 0,22 -69,0 0,-22z" /><path style="fill:#ccc;stroke:#4c4c4c;stroke-width:2" d="M150,552 l68,0 0,22 -68,0 0,-22z" /><path style="fill:#ccc;stroke:#4c4c4c;stroke-width:2" d="M218,552 l68,0 0,22 -68,0 0,-22z" /><path style="fill:#ccc;stroke:#4c4c4c;stroke-width:2" d="M286,552 l69,0 0,22 -69,0 0,-22z" /><path style="fill:#ccc;stroke:#4c4c4c;stroke-width:2" d="M355,552 l68,0 0,22 -68,0 0,-22z" /><path style="fill:#ccc;stroke:#4c4c4c;stroke-width:2" d="M423,552 l69,0 0,22 -69,0 0,-22z" /><path style="fill:#ccc;stroke:#4c4c4c;stroke-width:2" d="M492,552 l68,0 0,22 -68,0 0,-22z" /><path style="fill:#ccc;stroke:#4c4c4c;stroke-width:2" d="M560,552 l68,0 0,22 -68,0 0,-22z" /><path style="fill:#e5e5e5;stroke:#7f7f7f;stroke-width:2" d="M370,177 l5,-8 3,-8 3,-7 1,-7 1,-7 2,-6 3,-5 4,-5 4,0 4,-2 5,-1 6,-1 6,-2 6,-1 6,-2 6,-2 6,-1 6,-2 5,-2 5,-1 4,-2 3,-1 3,-2 1,-1 5,-1 6,0 5,1 5,0 4,1 5,1 5,1 5,1 5,0 5,0 4,0 4,-1 4,0 4,-1 4,0 4,-1 3,-1 3,-1 3,0 4,-1 3,-1 3,-1 2,-1 3,-1 10,-3 8,-2 7,-3 5,-2 4,-2 2,-2 2,-2 1,-2 0,-2 0,-2 0,-2 1,-2 0,-1 1,-2 1,-2 2,-2 12,0 8,0 7,-1 5,-2 5,-2 4,-3 5,-2 6,-1 3,-4 0,-3 -1,-3 -2,-2 -3,-1 -3,-1 -3,-1 -2,0 -10,-1 -9,-1 -9,-1 -8,0 -7,0 -7,0 -6,0 -5,0 -5,0 -5,0 -3,-1 -3,0 -3,-1 -2,-2 -2,-2 -1,-2 0,-4 0,-3 0,-3 -1,-3 0,-1 -2,-1 -2,0 -2,1 -6,-2 -5,0 -6,-1 -6,0 -6,0 -6,0 -6,0 -6,1 -5,1 -6,0 -5,1 -6,1 -5,0 -4,1 -5,0 -4,0 -2,0 -3,0 -4,-1 -5,0 -4,0 -5,-1 -6,0 -5,0 -6,0 -5,0 -5,0 -4,0 -5,0 -3,1 -3,0 -2,1 -3,0 -4,1 -4,0 -4,2 -5,1 -5,2 -4,1 -4,2 -5,2 -4,1 -4,2 -4,1 -3,1 -3,0 -3,0 -2,0 -5,-2 -5,-3 -7,-4 -6,-5 -6,-4 -6,-4 -6,-3 -5,-1 -4,0 -5,-1 -7,0 -7,-1 -8,-1 -7,0 -5,0 -4,1 -3,1 -2,1 -2,1 -2,1 -3,1 -2,1 -2,0 -3,1 -6,5 -6,6 -5,8 -4,7 -5,7 -4,7 -5,5 -5,4 -2,0 -2,0 -2,-1 -2,0 -2,0 -2,1 -2,1 -1,2 -5,6 -4,6 -3,6 -2,6 0,7 0,6 1,6 2,5 0,4 0,3 0,3 0,3 -1,2 -1,2 -1,3 -1,2 0,3 -1,4 0,4 1,4 1,6 1,7 3,8 3,9 0,2 1,1 1,1 2,0 2,0 3,0 3,-1 2,0 2,-12 4,-8 3,-7 4,-5 3,-4 2,-4 0,-5 -1,-8 2,-7 3,-7 3,-6 4,-4 4,-3 3,-1 2,0 1,2 2,3 4,4 6,4 7,5 6,6 5,7 3,7 2,9 -2,6 -1,4 -1,2 0,2 1,3 0,3 0,6 -1,8 3,0 3,0 2,0 3,0 3,0 3,0 2,0 3,0 2,-1 2,-1 2,-3 1,-3 1,-4 1,-5 1,-6 1,-7 5,-2 5,-4 4,-6 4,-6 4,-6 3,-7 3,-6 3,-5 3,-2 3,0 4,1 3,3 4,2 3,3 3,2 3,2 -1,3 0,3 0,3 0,4 -1,5 0,4 0,5 0,5 0,5 1,4 0,4 0,4 1,4 1,3 1,3 1,1 3,1 3,0 2,0 4,-1 3,0 2,0 3,0 3,0z" /><path style="fill:#b2b2b2" d="M365,173 l5,-7 3,-8 3,-8 1,-7 2,-7 2,-7 3,-5 4,-4 5,1 5,-1 6,-3 5,-4 5,-5 4,-4 3,-4 2,-3 5,-1 6,0 7,0 7,0 7,0 7,0 5,1 5,0 4,0 5,0 4,0 4,0 4,-1 5,0 4,-1 4,0 4,-1 4,0 4,-1 4,-1 3,0 3,-1 3,-1 2,-1 16,-4 9,-4 6,-3 2,-4 0,-3 0,-3 1,-3 3,-3 10,0 7,0 7,-1 5,-1 5,-2 5,-1 4,-2 6,-1 2,-3 0,-3 -1,-2 -1,-2 -3,-1 -3,-1 -2,-1 -2,0 -8,-1 -8,0 -8,0 -7,1 -7,0 -6,2 -6,1 -6,1 -4,1 -5,1 -4,1 -3,1 -3,0 -2,-1 -2,-1 -1,-2 -2,-4 -5,-4 -7,-4 -9,-4 -9,-3 -8,-2 -7,-2 -4,1 -4,-1 -5,-1 -3,1 -4,0 -4,1 -3,1 -4,1 -3,1 -3,2 -3,1 -3,2 -3,1 -3,1 -3,1 -3,0 -4,1 -3,-1 -4,-1 -5,-2 -5,-2 -6,-1 -4,-1 -4,-1 -3,1 -4,0 -4,1 -4,0 -5,1 -5,1 -6,2 -5,1 -6,1 -6,2 -5,1 -5,1 -5,1 -4,0 -4,1 -3,0 -2,-1 -5,2 -4,0 -3,0 -2,-2 -2,-2 -1,-3 -1,-3 -1,-4 -1,-3 -2,-3 -2,-2 -4,-1 -4,-1 -6,1 -8,2 -9,4 -2,0 -3,0 -2,-1 -2,0 -2,0 -3,0 -2,0 -2,1 -2,1 -2,1 -2,0 -2,1 -2,1 -2,1 -2,1 -2,0 -5,4 -5,4 -4,5 -4,5 -4,4 -4,4 -4,4 -5,3 -1,0 -2,0 -2,0 -1,-1 -2,1 -1,0 -2,1 -1,2 -4,5 -3,5 -3,5 -1,5 -1,5 0,5 1,5 2,5 0,3 0,3 0,2 0,2 -1,2 -1,2 0,2 -1,2 -1,3 0,3 0,3 0,4 1,5 2,5 1,7 3,7 0,2 1,1 1,1 2,0 2,0 2,0 2,-1 2,0 2,-10 2,-7 2,-5 3,-4 1,-4 1,-3 0,-5 -1,-6 6,-9 5,-8 5,-7 4,-5 4,-4 4,-3 3,-3 3,-1 3,-1 2,0 2,0 1,1 1,0 1,2 1,1 0,1 -6,8 0,7 3,6 5,6 7,6 6,6 5,7 1,7 -1,5 -1,3 0,2 0,2 0,2 0,3 0,4 0,7 2,0 2,1 2,0 2,1 2,1 2,0 2,1 2,0 2,-1 1,-3 2,-4 0,-4 1,-6 1,-6 1,-6 1,-6 4,-2 4,-4 3,-4 2,-5 3,-6 2,-5 2,-5 2,-4 7,2 5,0 5,-1 5,-1 5,0 4,2 5,5 5,9 -1,2 0,2 0,4 0,3 0,4 0,5 0,4 0,4 0,5 0,4 1,5 0,3 1,4 0,3 1,2 1,1 2,1 2,0 2,1 1,0 2,1 1,0 2,1 2,0z" /></svg>