<!DOCTYPE svg PUBLIC "-//W3C//DTD SVG 20000303 Stylable//EN" "http://www.w3.org/TR/2000/03/WD-SVG-20000303/DTD/svg-20000303-stylable.dtd"[]><svg xmlns="http://www.w3.org/2000/svg" width="999px" height="716px" viewBox="0 0 999 699"><path style="fill:#ccc;stroke:#4c4c4c;stroke-width:2" d="M0,99 l799,0 0,600 -799,0 0,-600z" /><path style="fill:#999;stroke:#4c4c4c;stroke-width:2" d="M799,699 l200,-100 0,-599 -200,99 0,600z" /><path style="fill:#e5e5e5;stroke:#4c4c4c;stroke-width:2" d="M0,99 l199,-99 800,0 -200,99 -799,0z" /><path style="fill:none;stroke:#fff;stroke-width:2" d="M0,99 l799,0 200,-99" /><path style="fill:none;stroke:#fff;stroke-width:2" d="M799,99 l0,600" /><path style="fill:#7f7f7f" d="M666,250 l-209,0 0,208 209,0 0,-208z" /><path style="fill:#7f7f7f" d="M333,249 l-209,0 0,208 209,0 0,-208z" /><path style="fill:#cbe5e5" d="M471,250 l195,0 0,194 -195,0 0,-194z" /><path style="fill:#cbe5e5" d="M138,250 l195,0 0,194 -195,0 0,-194z" /><path style="fill:#b3d9d9" d="M470,249 l0,61 195,-53 0,-8 -195,0z" /><path style="fill:#b3d9d9" d="M138,249 l0,60 195,-53 0,-7 -195,0z" /><path style="fill:#4c4c4c" d="M956,165 l-125,63 0,166 125,-62 0,-167z" /><path style="fill:#7f9999" d="M831,228 l118,-58 0,155 -118,59 0,-156z" /><path style="fill:#668c8c" d="M831,228 l0,48 117,-101 0,-6 -117,59z" /><path style="fill:none;stroke:#4c4c4c;stroke-width:2" d="M956,165 l-125,63 0,166 125,-62 0,-167" /><path style="fill:none;stroke:#4c4c4c;stroke-width:2" d="M666,250 l-209,0 0,208 209,0 0,-208" /><path style="fill:none;stroke:#4c4c4c;stroke-width:2" d="M333,249 l-209,0 0,208 209,0 0,-208" /></svg>