<!DOCTYPE svg PUBLIC "-//W3C//DTD SVG 20000303 Stylable//EN" "http://www.w3.org/TR/2000/03/WD-SVG-20000303/DTD/svg-20000303-stylable.dtd"[]><svg xmlns="http://www.w3.org/2000/svg" width="999px" height="999px" viewBox="0 0 999 999"><path style="fill:#ccc;stroke:#4c4c4c;stroke-width:2" d="M4,994 l0,-577 825,0 0,577 -825,0z" /><path style="fill:#999;stroke:#4c4c4c;stroke-width:2" d="M107,767 l0,-62 83,0 0,62 -83,0z" /><path style="fill:#999;stroke:#4c4c4c;stroke-width:2" d="M211,767 l0,-62 82,0 0,62 -82,0z" /><path style="fill:#999;stroke:#4c4c4c;stroke-width:2" d="M66,994 l0,-104 103,0 0,104 -103,0z" /><path style="fill:#999;stroke:#4c4c4c;stroke-width:2" d="M623,952 l0,-62 82,0 0,62 -82,0z" /><path style="fill:#999;stroke:#4c4c4c;stroke-width:2" d="M726,952 l0,-62 82,0 0,62 -82,0z" /><path style="fill:#999;stroke:#4c4c4c;stroke-width:2" d="M417,952 l0,-62 82,0 0,62 -82,0z" /><path style="fill:#999;stroke:#4c4c4c;stroke-width:2" d="M520,952 l0,-62 82,0 0,62 -82,0z" /><path style="fill:#999;stroke:#4c4c4c;stroke-width:2" d="M211,952 l0,-62 82,0 0,62 -82,0z" /><path style="fill:#999;stroke:#4c4c4c;stroke-width:2" d="M313,952 l0,-62 83,0 0,62 -83,0z" /><path style="fill:#999;stroke:#4c4c4c;stroke-width:2" d="M25,540 l0,-83 783,0 0,83 -783,0z" /><path style="fill:none;stroke:#4c4c4c;stroke-width:2" d="M118,994 l0,-104" /><path style="fill:none;stroke:#4c4c4c;stroke-width:2" d="M169,458 l0,82" /><path style="fill:none;stroke:#4c4c4c;stroke-width:2" d="M334,540 l0,-82" /><path style="fill:none;stroke:#4c4c4c;stroke-width:2" d="M499,540 l0,-82" /><path style="fill:none;stroke:#4c4c4c;stroke-width:2" d="M664,540 l0,-82" /><path style="fill:#e5e5e5;stroke:#4c4c4c;stroke-width:2" d="M4,417 l160,-83 830,0 -165,83 -825,0z" /><path style="fill:#999;stroke:#4c4c4c;stroke-width:2" d="M994,911 l0,-577 -165,83 0,577 165,-83z" /><path style="fill:none;stroke:#4c4c4c;stroke-width:2" d="M862,442 l0,82" /><path style="fill:none;stroke:#4c4c4c;stroke-width:2" d="M895,508 l0,-83" /><path style="fill:none;stroke:#4c4c4c;stroke-width:2" d="M928,491 l0,-82" /><path style="fill:none;stroke:#4c4c4c;stroke-width:2" d="M961,475 l0,-82" /><path style="fill:#666;stroke:#4c4c4c;stroke-width:2" d="M829,952 l0,-62 47,-25 0,62 -47,25z" /><path style="fill:#666;stroke:#4c4c4c;stroke-width:2" d="M946,890 l0,-62 48,-25 0,62 -48,25z" /><path style="fill:#666;stroke:#4c4c4c;stroke-width:2" d="M888,921 l0,-62 47,-25 0,62 -47,25z" /><path style="fill:#666;stroke:#4c4c4c;stroke-width:2" d="M833,538 l0,-83 157,-77 0,83 -157,77z" /><path style="fill:#7f7f7f;stroke:#4c4c4c;stroke-width:2" d="M643,375 l12,-371 47,0 11,371 -70,0z" /><path style="fill:#7f7f7f;stroke:#4c4c4c;stroke-width:2" d="M265,375 l11,-371 47,0 11,371 -69,0z" /><path style="fill:#b2b2b2" d="M655,375 l8,-371 31,0 8,371 -47,0z" /><path style="fill:#b2b2b2" d="M276,375 l8,-371 31,0 8,371 -47,0z" /><path style="fill:#e5e5e5" d="M672,375 l2,-371 8,0 2,371 -12,0z" /><path style="fill:#e5e5e5" d="M294,375 l2,-371 7,0 2,371 -11,0z" /></svg>