<!DOCTYPE svg PUBLIC "-//W3C//DTD SVG 20000303 Stylable//EN" "http://www.w3.org/TR/2000/03/WD-SVG-20000303/DTD/svg-20000303-stylable.dtd"[]><svg xmlns="http://www.w3.org/2000/svg" width="606px" height="999px" viewBox="0 0 586 999"><path style="fill:#ccc;stroke:#4c4c4c;stroke-width:2" d="M4,994 l0,-660 330,0 0,660 -330,0z" /><path style="fill:#999;stroke:#4c4c4c;stroke-width:2" d="M118,994 l0,-104 103,0 0,104 -103,0z" /><path style="fill:#999;stroke:#4c4c4c;stroke-width:2" d="M25,458 l0,-62 288,0 0,62 -288,0z" /><path style="fill:#999;stroke:#4c4c4c;stroke-width:2" d="M77,664 l0,-62 82,0 0,62 -82,0z" /><path style="fill:#999;stroke:#4c4c4c;stroke-width:2" d="M25,540 l0,-62 288,0 0,62 -288,0z" /><path style="fill:#999;stroke:#4c4c4c;stroke-width:2" d="M180,664 l0,-62 82,0 0,62 -82,0z" /><path style="fill:#999;stroke:#4c4c4c;stroke-width:2" d="M77,746 l0,-62 82,0 0,62 -82,0z" /><path style="fill:#999;stroke:#4c4c4c;stroke-width:2" d="M180,746 l0,-62 82,0 0,62 -82,0z" /><path style="fill:#999;stroke:#4c4c4c;stroke-width:2" d="M77,829 l0,-62 82,0 0,62 -82,0z" /><path style="fill:#999;stroke:#4c4c4c;stroke-width:2" d="M180,829 l0,-62 82,0 0,62 -82,0z" /><path style="fill:none;stroke:#4c4c4c;stroke-width:2" d="M169,994 l0,-104" /><path style="fill:#e5e5e5;stroke:#4c4c4c;stroke-width:2" d="M4,334 l248,-82 329,0 -247,82 -330,0z" /><path style="fill:#999;stroke:#4c4c4c;stroke-width:2" d="M334,994 l0,-660 247,-84 0,620 -247,124z" /><path style="fill:#666;stroke:#4c4c4c;stroke-width:2" d="M350,932 l0,-62 216,-103 0,62 -216,103z" /><path style="fill:#666;stroke:#4c4c4c;stroke-width:2" d="M350,453 l0,-62 216,-88 0,62 -216,88z" /><path style="fill:#666;stroke:#4c4c4c;stroke-width:2" d="M350,535 l0,-62 216,-87 0,62 -216,87z" /><path style="fill:#7f7f7f;stroke:#4c4c4c;stroke-width:2" d="M317,277 l9,-273 34,0 9,273 -52,0z" /><path style="fill:#7f7f7f;stroke:#4c4c4c;stroke-width:2" d="M211,313 l9,-309 39,0 10,309 -58,0z" /><path style="fill:#b2b2b2" d="M326,277 l6,-273 23,0 5,273 -34,0z" /><path style="fill:#b2b2b2" d="M220,313 l7,-309 26,0 6,309 -39,0z" /><path style="fill:#e5e5e5" d="M339,277 l1,-273 6,0 1,273 -8,0z" /><path style="fill:#e5e5e5" d="M235,313 l1,-309 7,0 1,309 -9,0z" /></svg>