<!DOCTYPE svg PUBLIC "-//W3C//DTD SVG 20000303 Stylable//EN" "http://www.w3.org/TR/2000/03/WD-SVG-20000303/DTD/svg-20000303-stylable.dtd"[]><svg xmlns="http://www.w3.org/2000/svg" width="999px" height="390px" viewBox="0 0 999 360"><path style="fill:#ccc;stroke:#4c4c4c;stroke-width:2" d="M4,355 l0,-289 433,0 0,83 433,0 0,206 -866,0z" /><path style="fill:#e5e5e5;stroke:#4c4c4c;stroke-width:2" d="M437,149 l124,-62 433,0 -124,62 -433,0z" /><path style="fill:#e5e5e5;stroke:#4c4c4c;stroke-width:2" d="M4,66 l124,-62 433,0 -124,62 -433,0z" /><path style="fill:#999;stroke:#4c4c4c;stroke-width:2" d="M581,355 l0,-103 124,0 0,103 -124,0z" /><path style="fill:#999;stroke:#4c4c4c;stroke-width:2" d="M25,149 l0,-62 83,0 0,62 -83,0z" /><path style="fill:#999;stroke:#4c4c4c;stroke-width:2" d="M128,149 l0,-62 83,0 0,62 -83,0z" /><path style="fill:#999;stroke:#4c4c4c;stroke-width:2" d="M231,149 l0,-62 83,0 0,62 -83,0z" /><path style="fill:#999;stroke:#4c4c4c;stroke-width:2" d="M334,149 l0,-62 83,0 0,62 -83,0z" /><path style="fill:#999;stroke:#4c4c4c;stroke-width:2" d="M870,355 l124,-62 0,-206 -124,62 0,206z" /><path style="fill:#999;stroke:#4c4c4c;stroke-width:2" d="M437,149 l124,-62 0,-83 -124,62 0,83z" /></svg>