<!DOCTYPE svg PUBLIC "-//W3C//DTD SVG 20000303 Stylable//EN" "http://www.w3.org/TR/2000/03/WD-SVG-20000303/DTD/svg-20000303-stylable.dtd"[]><svg xmlns="http://www.w3.org/2000/svg" width="999px" height="674px" viewBox="0 0 999 655"><path style="fill:#ccc;stroke:#4c4c4c;stroke-width:2" d="M0,77 l845,0 0,578 -845,0 0,-578z" /><path style="fill:#999;stroke:#4c4c4c;stroke-width:2" d="M845,653 l154,-76 0,-577 -154,77 0,576z" /><path style="fill:#e5e5e5;stroke:#4c4c4c;stroke-width:2" d="M0,77 l153,-76 846,0 -154,76 -845,0z" /><path style="fill:none;stroke:#fff;stroke-width:2" d="M0,77 l845,0 154,-77" /><path style="fill:#666;stroke:#4c4c4c;stroke-width:2" d="M75,193 l76,0 0,76 -76,0 0,-76z" /><path style="fill:none;stroke:#fff;stroke-width:2" d="M75,269 l76,0 0,-76" /><path style="fill:#666;stroke:#4c4c4c;stroke-width:2" d="M229,193 l76,0 0,76 -76,0 0,-76z" /><path style="fill:none;stroke:#fff;stroke-width:2" d="M229,269 l76,0 0,-76" /><path style="fill:#666;stroke:#4c4c4c;stroke-width:2" d="M383,193 l76,0 0,76 -76,0 0,-76z" /><path style="fill:none;stroke:#fff;stroke-width:2" d="M383,269 l76,0 0,-76" /><path style="fill:#666;stroke:#4c4c4c;stroke-width:2" d="M537,193 l76,0 0,76 -76,0 0,-76z" /><path style="fill:none;stroke:#fff;stroke-width:2" d="M537,269 l76,0 0,-76" /><path style="fill:#666;stroke:#4c4c4c;stroke-width:2" d="M691,193 l76,0 0,76 -76,0 0,-76z" /><path style="fill:none;stroke:#fff;stroke-width:2" d="M691,269 l76,0 0,-76" /><path style="fill:#333;stroke:#4c4c4c;stroke-width:2" d="M873,261 l0,-76 96,-50 0,78 -96,48z" /><path style="fill:none;stroke:#fff;stroke-width:2" d="M873,261 l96,-48 0,-78" /><path style="fill:none;stroke:#fff;stroke-width:2" d="M845,77 l0,578" /></svg>