<!DOCTYPE svg PUBLIC "-//W3C//DTD SVG 20000303 Stylable//EN" "http://www.w3.org/TR/2000/03/WD-SVG-20000303/DTD/svg-20000303-stylable.dtd"[]><svg xmlns="http://www.w3.org/2000/svg" width="999px" height="704px" viewBox="0 0 999 690"><path style="fill:#e5e5e5;stroke:#4c4c4c;stroke-width:2" d="M375,66 l124,-62 206,0 -124,62 -206,0z" /><path style="fill:#e5e5e5;stroke:#4c4c4c;stroke-width:2" d="M4,190 l124,-62 866,0 -124,62 -866,0z" /><path style="fill:#999;stroke:#4c4c4c;stroke-width:2" d="M581,190 l124,-62 0,-124 -124,62 0,124z" /><path style="fill:#ccc;stroke:#4c4c4c;stroke-width:2" d="M4,685 l0,-495 371,0 0,-124 206,0 0,124 289,0 0,495 -866,0z" /><path style="fill:#999;stroke:#4c4c4c;stroke-width:2" d="M870,685 l124,-62 0,-495 -124,62 0,495z" /><path style="fill:#999;stroke:#4c4c4c;stroke-width:2" d="M87,520 l0,-62 82,0 0,62 -82,0z" /><path style="fill:#999;stroke:#4c4c4c;stroke-width:2" d="M190,520 l0,-62 82,0 0,62 -82,0z" /><path style="fill:#999;stroke:#4c4c4c;stroke-width:2" d="M293,520 l0,-62 82,0 0,62 -82,0z" /><path style="fill:#999;stroke:#4c4c4c;stroke-width:2" d="M396,520 l0,-62 83,0 0,62 -83,0z" /><path style="fill:#999;stroke:#4c4c4c;stroke-width:2" d="M499,520 l0,-62 82,0 0,62 -82,0z" /><path style="fill:#999;stroke:#4c4c4c;stroke-width:2" d="M602,520 l0,-62 83,0 0,62 -83,0z" /><path style="fill:#999;stroke:#4c4c4c;stroke-width:2" d="M705,520 l0,-62 82,0 0,62 -82,0z" /><path style="fill:#999;stroke:#4c4c4c;stroke-width:2" d="M87,417 l0,-62 82,0 0,62 -82,0z" /><path style="fill:#999;stroke:#4c4c4c;stroke-width:2" d="M190,417 l0,-62 82,0 0,62 -82,0z" /><path style="fill:#999;stroke:#4c4c4c;stroke-width:2" d="M293,417 l0,-62 82,0 0,62 -82,0z" /><path style="fill:#999;stroke:#4c4c4c;stroke-width:2" d="M396,417 l0,-62 83,0 0,62 -83,0z" /><path style="fill:#999;stroke:#4c4c4c;stroke-width:2" d="M499,417 l0,-62 82,0 0,62 -82,0z" /><path style="fill:#999;stroke:#4c4c4c;stroke-width:2" d="M602,417 l0,-62 83,0 0,62 -83,0z" /><path style="fill:#999;stroke:#4c4c4c;stroke-width:2" d="M705,417 l0,-62 82,0 0,62 -82,0z" /></svg>