<!DOCTYPE svg PUBLIC "-//W3C//DTD SVG 20000303 Stylable//EN" "http://www.w3.org/TR/2000/03/WD-SVG-20000303/DTD/svg-20000303-stylable.dtd"[]><svg xmlns="http://www.w3.org/2000/svg" width="404px" height="999px" viewBox="0 0 376 999"><path style="fill:#ccc;stroke:#4c4c4c;stroke-width:2" d="M5,993 l0,-942 269,0 0,942 -269,0z" /><path style="fill:#e5e5e5;stroke:#4c4c4c;stroke-width:2" d="M5,51 l89,-46 276,0 -96,46 -269,0z" /><path style="fill:#999;stroke:#4c4c4c;stroke-width:2" d="M365,948 l0,-943 -91,46 0,942 91,-45z" /><path style="fill:#999;stroke:#4c4c4c;stroke-width:2" d="M94,163 l0,-69 91,0 0,69 -91,0z" /><path style="fill:#999;stroke:#4c4c4c;stroke-width:2" d="M94,252 l0,-67 91,0 0,67 -91,0z" /><path style="fill:#999;stroke:#4c4c4c;stroke-width:2" d="M94,343 l0,-69 91,0 0,69 -91,0z" /><path style="fill:#999;stroke:#4c4c4c;stroke-width:2" d="M94,432 l0,-67 91,0 0,67 -91,0z" /><path style="fill:#999;stroke:#4c4c4c;stroke-width:2" d="M94,521 l0,-67 91,0 0,67 -91,0z" /><path style="fill:#999;stroke:#4c4c4c;stroke-width:2" d="M94,701 l0,-68 91,0 0,68 -91,0z" /><path style="fill:#999;stroke:#4c4c4c;stroke-width:2" d="M94,792 l0,-69 91,0 0,69 -91,0z" /><path style="fill:#999;stroke:#4c4c4c;stroke-width:2" d="M72,993 l0,-112 134,0 0,112 -134,0z" /><path style="fill:none;stroke:#4c4c4c;stroke-width:2" d="M139,881 l0,112" /></svg>