<!DOCTYPE svg PUBLIC "-//W3C//DTD SVG 20000303 Stylable//EN" "http://www.w3.org/TR/2000/03/WD-SVG-20000303/DTD/svg-20000303-stylable.dtd"[]><svg xmlns="http://www.w3.org/2000/svg" width="998px" height="999px" viewBox="0 0 998 999"><path style="fill:#00f;stroke:#4c4c4c;stroke-width:2" d="M0,333 l831,0 0,666 -831,0 0,-666z" /><path style="fill:#009;stroke:#4c4c4c;stroke-width:2" d="M831,999 l167,-84 0,-665 -167,83 0,666z" /><path style="fill:#7f7fff;stroke:#4c4c4c;stroke-width:2" d="M0,333 l166,-83 832,0 -167,83 -831,0z" /><path style="fill:#000;stroke:#4c4c4c;stroke-width:2" d="M374,832 l83,0 0,167 -83,0 0,-167z" /><path style="fill:#7f7f7f" d="M62,437 l128,0 0,146 -128,0 0,-146z" /><path style="fill:none;stroke:#fff;stroke-width:2" d="M62,583 l128,0 0,-146" /><path style="fill:#000;stroke:#4c4c4c;stroke-width:2" d="M62,583 l0,-146 129,0 0,5 -123,0 0,141 -6,0z" /><path style="fill:#7f7f7f" d="M255,437 l128,0 0,146 -128,0 0,-146z" /><path style="fill:none;stroke:#fff;stroke-width:2" d="M255,583 l128,0 0,-146" /><path style="fill:#000;stroke:#4c4c4c;stroke-width:2" d="M255,583 l0,-146 129,0 0,5 -123,0 0,141 -6,0z" /><path style="fill:#7f7f7f" d="M448,437 l128,0 0,146 -128,0 0,-146z" /><path style="fill:none;stroke:#fff;stroke-width:2" d="M448,583 l127,0 0,-146" /><path style="fill:#000;stroke:#4c4c4c;stroke-width:2" d="M448,583 l0,-146 128,0 0,5 -123,0 0,141 -5,0z" /><path style="fill:#7f7f7f" d="M641,437 l128,0 0,146 -128,0 0,-146z" /><path style="fill:none;stroke:#fff;stroke-width:2" d="M641,583 l127,0 0,-146" /><path style="fill:#000;stroke:#4c4c4c;stroke-width:2" d="M641,583 l0,-146 128,0 0,5 -123,0 0,141 -5,0z" /><path style="fill:#666" d="M270,291 l0,-229 -21,0 0,-62 125,0 0,62 -21,0 0,229 -83,0z" /><path style="fill:#858585" d="M279,291 l0,-7 0,-7 0,-8 0,-7 0,-7 0,-7 0,-7 0,-7 0,-8 0,-7 0,-7 0,-7 0,-7 0,-7 0,-7 0,-8 0,-7 0,-7 0,-7 0,-7 0,-7 0,-8 0,-7 0,-7 0,-7 0,-7 0,-7 0,-7 0,-8 0,-7 0,-7 0,-7 -2,0 -2,0 -2,0 -2,0 -2,0 -2,0 -2,0 -3,0 0,-4 0,-4 0,-4 1,-4 0,-4 0,-4 0,-4 0,-3 0,-4 0,-4 0,-4 0,-4 -1,-4 0,-4 0,-4 0,-3 7,0 6,0 6,0 6,0 6,0 7,0 6,0 6,0 6,0 6,0 7,0 6,0 6,0 6,0 6,0 6,0 0,3 0,4 0,4 1,4 0,4 0,4 0,4 0,4 0,3 0,4 0,4 0,4 -1,4 0,4 0,4 0,4 -2,0 -2,0 -2,0 -2,0 -2,0 -2,0 -2,0 -2,0 0,7 0,7 0,7 0,8 0,7 0,7 0,7 0,7 0,7 0,7 0,8 0,7 0,7 0,7 0,7 0,7 0,8 0,7 0,7 0,7 0,7 0,7 0,7 0,8 0,7 0,7 0,7 0,7 0,7 0,8 0,7 0,7 -4,0 -4,0 -5,0 -4,0 -4,0 -4,0 -4,0 -4,0 -4,0 -4,0 -4,0 -5,0 -4,0 -4,0 -4,0 -4,0z" /><path style="fill:#a6a6a6" d="M287,291 l0,-7 0,-7 0,-8 0,-7 0,-7 0,-7 1,-7 0,-7 0,-8 0,-7 0,-7 0,-7 0,-7 0,-7 0,-7 0,-8 0,-7 0,-7 0,-7 0,-7 0,-7 0,-8 0,-7 0,-7 0,-7 -1,-7 0,-7 0,-7 0,-8 0,-7 0,-7 0,-7 -1,0 -1,0 -2,0 -1,0 -2,0 -1,0 -2,0 -2,0 0,-4 0,-4 0,-4 1,-4 0,-4 0,-4 0,-4 0,-3 0,-4 0,-4 0,-4 0,-4 -1,-4 0,-4 0,-4 0,-3 5,0 5,0 4,0 5,0 4,0 5,0 5,0 4,0 5,0 4,0 5,0 4,0 5,0 4,0 5,0 4,0 0,3 0,4 0,4 1,4 0,4 0,4 0,4 0,4 0,3 0,4 0,4 0,4 -1,4 0,4 0,4 0,4 -1,0 -2,0 -1,0 -2,0 -1,0 -2,0 -1,0 -2,0 0,7 0,7 0,7 0,8 0,7 0,7 0,7 0,7 0,7 0,7 0,8 0,7 0,7 0,7 0,7 0,7 0,8 0,7 0,7 0,7 0,7 0,7 0,7 0,8 0,7 0,7 0,7 0,7 0,7 0,8 0,7 0,7 -6,0 -6,0 -6,0 -6,0 -6,0 -6,0 -6,0 -7,0z" /><path style="fill:#c4c4c4" d="M296,291 l0,-7 0,-7 0,-8 0,-7 0,-7 0,-7 1,-7 0,-7 0,-8 0,-7 0,-7 0,-7 0,-7 0,-7 0,-7 0,-8 0,-7 0,-7 0,-7 0,-7 0,-7 0,-8 0,-7 0,-7 0,-7 -1,-7 0,-7 0,-7 0,-8 0,-7 0,-7 0,-7 -1,0 -2,0 -2,0 -2,0 0,-4 0,-4 0,-4 0,-4 0,-4 0,-4 0,-4 0,-3 0,-4 0,-4 0,-4 0,-4 0,-4 0,-4 0,-4 0,-3 6,0 6,0 5,0 6,0 6,0 6,0 6,0 5,0 0,3 0,4 0,4 1,4 0,4 0,4 0,4 0,4 0,3 0,4 0,4 0,4 -1,4 0,4 0,4 0,4 -1,0 -2,0 -2,0 -3,0 0,7 0,7 0,7 0,8 0,7 0,7 1,7 0,7 0,7 0,7 0,8 0,7 0,7 0,7 0,7 0,7 0,8 0,7 0,7 0,7 0,7 0,7 0,7 0,8 0,7 -1,7 0,7 0,7 0,7 0,8 0,7 0,7 -3,0 -4,0 -4,0 -4,0 -4,0 -4,0 -4,0 -4,0z" /><path style="fill:#e5e5e5" d="M305,291 l0,-229 -4,0 0,-62 21,0 0,62 -4,0 0,229 -13,0z" /><path style="fill:none;stroke:#4c4c4c;stroke-width:2" d="M270,291 l0,-229 -21,0 0,-62 125,0 0,62 -21,0 0,229 -83,0" /><path style="fill:none;stroke:#4c4c4c;stroke-width:2" d="M270,62 l83,0" /><path style="fill:none;stroke:#4c4c4c;stroke-width:2" d="M644,166 l84,0" /><path style="fill:#666" d="M644,291 l0,-125 -21,0 0,-62 125,0 0,62 -21,0 0,125 -83,0z" /><path style="fill:#858585" d="M653,291 l0,-8 0,-8 0,-8 0,-7 0,-8 0,-8 0,-8 0,-8 0,-8 0,-8 0,-7 0,-8 0,-8 0,-7 0,-8 0,-8 -2,0 -2,0 -2,0 -2,0 -2,0 -2,0 -2,0 -2,0 0,-4 0,-4 0,-4 0,-4 0,-4 0,-4 0,-4 0,-3 0,-4 0,-4 0,-4 0,-4 0,-4 0,-4 0,-4 0,-3 6,0 6,0 6,0 7,-1 6,0 6,0 6,0 6,0 7,0 6,0 6,0 6,0 6,1 6,0 7,0 6,0 0,3 0,4 0,4 0,4 0,4 0,4 0,4 0,4 0,3 0,4 0,4 0,4 0,4 0,4 0,4 0,4 -2,0 -2,0 -2,0 -2,0 -2,0 -3,0 -2,0 -2,0 0,8 0,8 0,7 0,8 0,8 0,7 0,8 0,8 0,8 0,8 0,8 0,8 0,7 0,8 0,8 0,8 -4,0 -4,0 -4,0 -4,0 -4,0 -5,0 -4,0 -4,0 -4,0 -4,0 -4,0 -4,0 -4,0 -5,0 -4,0 -4,0z" /><path style="fill:#a6a6a6" d="M662,291 l0,-8 0,-8 0,-8 0,-7 0,-8 0,-8 0,-8 0,-8 0,-8 0,-8 0,-7 0,-8 0,-8 0,-7 0,-8 0,-8 -2,0 -1,0 -2,0 -1,0 -2,0 -1,0 -2,0 -1,0 0,-4 0,-4 0,-4 0,-4 0,-4 0,-4 0,-4 0,-3 0,-4 0,-4 0,-4 0,-4 0,-4 0,-4 0,-4 0,-3 4,0 5,0 5,0 4,-1 5,0 4,0 5,0 4,0 5,0 5,0 4,0 5,0 4,1 5,0 4,0 5,0 0,3 0,4 0,4 0,4 0,4 0,4 0,4 0,4 0,3 0,4 0,4 0,4 0,4 0,4 0,4 0,4 -2,0 -1,0 -2,0 -1,0 -2,0 -1,0 -2,0 -2,0 0,8 0,8 0,7 1,8 0,8 0,7 0,8 0,8 0,8 0,8 0,8 0,8 -1,7 0,8 0,8 0,8 -6,0 -6,0 -6,0 -6,0 -6,0 -6,0 -6,0 -6,0z" /><path style="fill:#c4c4c4" d="M671,291 l0,-8 0,-8 0,-8 0,-7 0,-8 0,-8 0,-8 0,-8 0,-8 0,-8 0,-7 0,-8 0,-8 0,-7 0,-8 0,-8 -2,0 -2,0 -2,0 -2,0 0,-4 0,-4 0,-4 0,-4 0,-4 0,-4 0,-4 0,-3 0,-4 0,-4 0,-4 0,-4 0,-4 0,-4 0,-4 0,-3 6,0 6,-1 6,0 6,0 5,0 6,0 6,1 6,0 0,3 0,4 0,4 0,4 0,4 0,4 0,4 0,4 0,3 0,4 0,4 0,4 0,4 0,4 0,4 0,4 -2,0 -2,0 -2,0 -2,0 0,8 0,8 0,7 0,8 0,8 0,7 0,8 0,8 0,8 0,8 0,8 0,8 0,7 0,8 0,8 0,8 -4,0 -4,0 -4,0 -4,0 -3,0 -4,0 -4,0 -4,0z" /><path style="fill:#e5e5e5" d="M679,291 l0,-125 -3,0 0,-62 20,0 0,62 -3,0 0,125 -14,0z" /><path style="fill:none;stroke:#4c4c4c;stroke-width:2" d="M644,291 l0,-125 -21,0 0,-62 125,0 0,62 -21,0 0,125 -83,0" /><path style="fill:none;stroke:#4c4c4c;stroke-width:2" d="M644,166 l84,0" /></svg>