<!DOCTYPE svg PUBLIC "-//W3C//DTD SVG 20000303 Stylable//EN" "http://www.w3.org/TR/2000/03/WD-SVG-20000303/DTD/svg-20000303-stylable.dtd"[]><svg xmlns="http://www.w3.org/2000/svg" width="889px" height="999px" viewBox="0 0 883 999"><path style="fill:#ccc;stroke:#4c4c4c;stroke-width:2" d="M5,993 l0,-551 368,0 0,-276 367,0 0,827 -735,0z" /><path style="fill:#999;stroke:#4c4c4c;stroke-width:2" d="M740,993 l138,-69 0,-827 -138,69 0,827z" /><path style="fill:#e5e5e5;stroke:#4c4c4c;stroke-width:2" d="M373,166 l137,-69 368,0 -138,69 -367,0z" /><path style="fill:#e5e5e5;stroke:#4c4c4c;stroke-width:2" d="M5,442 l138,-69 230,0 0,69 -368,0z" /><path style="fill:#999;stroke:#4c4c4c;stroke-width:2" d="M441,327 l0,-69 92,0 0,69 -92,0z" /><path style="fill:#999;stroke:#4c4c4c;stroke-width:2" d="M579,327 l0,-69 92,0 0,69 -92,0z" /><path style="fill:#999;stroke:#4c4c4c;stroke-width:2" d="M441,418 l0,-69 92,0 0,69 -92,0z" /><path style="fill:#999;stroke:#4c4c4c;stroke-width:2" d="M579,419 l0,-70 92,0 0,70 -92,0z" /><path style="fill:#999;stroke:#4c4c4c;stroke-width:2" d="M441,510 l0,-69 92,0 0,69 -92,0z" /><path style="fill:#999;stroke:#4c4c4c;stroke-width:2" d="M579,510 l0,-69 92,0 0,69 -92,0z" /><path style="fill:#666;stroke:#4c4c4c;stroke-width:2" d="M855,852 l-37,19 0,-642 37,-19 0,642z" /><path style="fill:#666;stroke:#4c4c4c;stroke-width:2" d="M800,882 l-37,19 0,-642 37,-19 0,642z" /><path style="fill:#7f7f7f" d="M203,419 l13,-414 52,0 13,414 -78,0z" /><path style="fill:#b2b2b2" d="M216,419 l9,-414 34,0 9,414 -52,0z" /><path style="fill:#e5e5e5" d="M235,419 l3,-414 8,0 3,414 -14,0z" /><path style="fill:none;stroke:#4c4c4c;stroke-width:2" d="M203,419 l13,-414 52,0 13,414 -78,0" /></svg>