<!DOCTYPE svg PUBLIC "-//W3C//DTD SVG 20000303 Stylable//EN" "http://www.w3.org/TR/2000/03/WD-SVG-20000303/DTD/svg-20000303-stylable.dtd"[]><svg xmlns="http://www.w3.org/2000/svg" width="810px" height="999px" viewBox="0 0 799 999"><path style="fill:#666;stroke:#4c4c4c;stroke-width:2" d="M733,999 l0,-466 66,-68 0,467 -66,67z" /><path style="fill:#7f7f7f;stroke:#4c4c4c;stroke-width:2" d="M0,533 l733,0 0,466 -733,0 0,-466z" /><path style="fill:#b2b2b2;stroke:#4c4c4c;stroke-width:2" d="M0,533 l66,-68 733,0 -66,68 -733,0z" /><path style="fill:#e5e5e5;stroke:#4c4c4c;stroke-width:2" d="M551,848 l133,0 0,151 -133,0 0,-151z" /><path style="fill:#4c4c4c;stroke:#4c4c4c;stroke-width:2" d="M551,848 l2,0 0,146 131,0 0,5 -133,0 0,-151z" /><path style="fill:#ccc" d="M558,991 l0,-34 86,34 -86,0z" /><path style="fill:#ccc" d="M679,853 l0,32 -89,-32 89,0z" /><path style="fill:#fff" d="M558,952 l96,39 12,0 -108,-42 0,3z" /><path style="fill:none;stroke:#7f7f7f;stroke-width:2" d="M617,848 l0,146" /><path style="fill:#e5e5e5;stroke:#4c4c4c;stroke-width:2" d="M29,600 l669,0 0,66 -669,0 0,-66z" /><path style="fill:#4c4c4c;stroke:#4c4c4c;stroke-width:2" d="M29,600 l5,0 0,61 664,0 0,5 -669,0 0,-66z" /><path style="fill:#ccc" d="M36,657 l0,-33 89,33 -89,0z" /><path style="fill:#ccc" d="M204,657 l0,-33 88,33 -88,0z" /><path style="fill:#ccc" d="M371,657 l0,-33 86,33 -86,0z" /><path style="fill:#ccc" d="M536,657 l0,-33 88,33 -88,0z" /><path style="fill:#ccc" d="M696,602 l0,35 -89,-35 89,0z" /><path style="fill:#ccc" d="M529,602 l0,35 -89,-35 89,0z" /><path style="fill:#ccc" d="M361,602 l0,35 -86,-35 86,0z" /><path style="fill:#ccc" d="M196,602 l0,35 -88,-35 88,0z" /><path style="fill:#fff" d="M36,620 l96,37 13,0 -109,-42 0,5z" /><path style="fill:#fff" d="M204,620 l96,37 12,0 -108,-42 0,5z" /><path style="fill:#fff" d="M371,620 l96,37 12,0 -108,-42 0,5z" /><path style="fill:#fff" d="M536,620 l96,37 12,0 -108,-42 0,5z" /><path style="fill:none;stroke:#7f7f7f;stroke-width:2" d="M196,600 l0,61" /><path style="fill:none;stroke:#7f7f7f;stroke-width:2" d="M361,600 l0,61" /><path style="fill:none;stroke:#7f7f7f;stroke-width:2" d="M529,600 l0,61" /><path style="fill:#b2b2b2;stroke:#4c4c4c;stroke-width:2" d="M674,7 l12,487 0,1 -1,2 -1,1 -1,1 -2,1 -2,1 -2,1 -2,1 -3,1 -3,1 -3,0 -4,1 -3,0 -4,0 -4,0 -4,0 -4,0 -4,0 -4,0 -4,0 -3,-1 -4,0 -3,-1 -2,-1 -3,-1 -2,-1 -2,-1 -2,-1 -1,-1 -1,-1 -1,-2 0,-1 15,-487 1,-1 1,-1 2,-1 3,-2 4,-1 4,-1 4,0 6,0 5,0 5,0 5,1 4,1 3,2 3,1 1,1 1,1z" /><path style="fill:#ccc" d="M666,7 l13,487 -1,3 -2,2 -3,2 -4,2 -5,2 -5,1 -6,0 -6,0 -6,0 -6,0 -5,-1 -4,-2 -4,-2 -3,-2 -1,-2 -1,-3 10,-487 0,-1 1,-1 2,-1 2,-2 3,-1 3,-1 4,0 5,0 4,0 4,0 3,1 3,1 2,2 2,1 1,1 0,1z" /><path style="fill:#e5e5e5" d="M657,7 l7,487 0,3 -1,2 -2,2 -2,2 -2,2 -3,1 -4,0 -3,0 -4,0 -3,0 -3,-1 -3,-2 -2,-2 -1,-2 -1,-2 0,-3 7,-487 0,-1 1,-1 1,-1 1,-2 1,-1 2,-1 2,0 2,0 2,0 1,0 2,1 2,1 1,2 1,1 0,1 1,1z" /><ellipse style="fill:#fff" cx="646" cy="253" rx="2" ry="253" /></svg>