<!DOCTYPE svg PUBLIC "-//W3C//DTD SVG 20000303 Stylable//EN" "http://www.w3.org/TR/2000/03/WD-SVG-20000303/DTD/svg-20000303-stylable.dtd"[]><svg xmlns="http://www.w3.org/2000/svg" width="998px" height="527px" viewBox="0 0 999 499"><path style="fill:#cc3;stroke:#4c4c4c;stroke-width:2" d="M0,83 l915,0 0,416 -915,0 0,-416z" /><path style="fill:#666;stroke:#4c4c4c;stroke-width:2" d="M0,83 l83,-83 916,0 -84,83 -915,0z" /><path style="fill:#993;stroke:#4c4c4c;stroke-width:2" d="M915,499 l84,-84 0,-415 -84,83 0,416z" /><path style="fill:#e5e5e5;stroke:#4c4c4c;stroke-width:2" d="M61,311 l522,0 0,126 -522,0 0,-126z" /><path style="fill:#4c4c4c;stroke:#4c4c4c;stroke-width:2" d="M61,311 l6,0 0,120 516,0 0,6 -522,0 0,-126z" /><path style="fill:#ccc" d="M71,427 l0,-42 136,42 -136,0z" /><path style="fill:#fff" d="M71,373 l162,54 16,0 -178,-64 0,10z" /><path style="fill:#ccc" d="M577,317 l0,42 -136,-42 136,0z" /><path style="fill:none;stroke:#7f7f7f;stroke-width:2" d="M411,311 l0,120" /><path style="fill:none;stroke:#7f7f7f;stroke-width:2" d="M239,311 l0,120" /><path style="fill:#e5e5e5;stroke:#4c4c4c;stroke-width:2" d="M655,311 l188,0 0,188 -188,0 0,-188z" /><path style="fill:#4c4c4c;stroke:#4c4c4c;stroke-width:2" d="M655,311 l6,0 0,182 182,0 0,6 -188,0 0,-188z" /><path style="fill:#ccc" d="M665,489 l0,-42 136,42 -136,0z" /><path style="fill:#fff" d="M665,441 l146,48 16,0 -162,-58 0,10z" /><path style="fill:#ccc" d="M837,317 l0,42 -134,-42 134,0z" /><path style="fill:none;stroke:#7f7f7f;stroke-width:2" d="M749,311 l0,182" /><path style="fill:none;stroke:#7f7f7f;stroke-width:2" d="M661,405 l182,0" /></svg>