<!DOCTYPE svg PUBLIC "-//W3C//DTD SVG 20000303 Stylable//EN" "http://www.w3.org/TR/2000/03/WD-SVG-20000303/DTD/svg-20000303-stylable.dtd"[]><svg xmlns="http://www.w3.org/2000/svg" width="999px" height="213px" viewBox="0 0 999 166"><path style="fill:#fff2bf;stroke:#4c4c4c;stroke-width:2" d="M0,41 l915,0 0,125 -915,0 0,-125z" /><path style="fill:#e5e5e5" d="M0,41 l41,-36 916,0 -42,36 -915,0z" /><path style="fill:#ffe066;stroke:#4c4c4c;stroke-width:2" d="M915,41 l0,125 84,-63 0,-103 -42,5 -42,36z" /><path style="fill:#a6a6a6" d="M41,4 l42,-4 916,0 -42,4 -916,0z" /><path style="fill:none;stroke:#4c4c4c;stroke-width:2" d="M0,41 l41,-36 42,-5 916,0 -42,5 -42,36 -915,0" /><path style="fill:none;stroke:#fff;stroke-width:2" d="M171,46 l0,115" /><path style="fill:none;stroke:#fff;stroke-width:2" d="M338,46 l0,115" /><path style="fill:none;stroke:#fff;stroke-width:2" d="M504,46 l0,115" /><path style="fill:none;stroke:#fff;stroke-width:2" d="M671,46 l0,115" /><path style="fill:none;stroke:#fff;stroke-width:2" d="M837,46 l0,115" /><path style="fill:#e5e5e5;stroke:#4c4c4c;stroke-width:2" d="M10,78 l6,-6 140,0 -7,6 -139,0z" /><path style="fill:#ffe066" d="M255,130 l57,0 0,15 -57,0 0,-15z" /><path style="fill:#ffe066" d="M88,130 l57,0 0,15 -57,0 0,-15z" /><path style="fill:#ffe066" d="M15,130 l57,0 0,15 -57,0 0,-15z" /><path style="fill:#4c4c4c" d="M255,145 l0,-57 57,0 0,5 -52,0 0,47 -5,5z" /><path style="fill:#4c4c4c" d="M88,145 l0,-57 57,0 0,5 -52,0 0,47 -5,5z" /><path style="fill:#4c4c4c" d="M15,145 l0,-57 57,0 0,5 -52,0 0,47 -5,5z" /><path style="fill:#7f7f7f" d="M260,93 l52,0 0,37 -52,0 0,-37z" /><path style="fill:#7f7f7f" d="M93,93 l52,0 0,37 -52,0 0,-37z" /><path style="fill:#7f7f7f" d="M20,93 l52,0 0,37 -52,0 0,-37z" /><path style="fill:#e5e5e5;stroke:#4c4c4c;stroke-width:2" d="M582,88 l58,0 0,73 -58,0 0,-73z" /><path style="fill:#e5e5e5;stroke:#4c4c4c;stroke-width:2" d="M707,103 l47,0 0,58 -47,0 0,-58z" /><path style="fill:#4c4c4c" d="M707,166 l0,-62 47,0 0,5 -42,0 0,52 -5,5z" /><path style="fill:#4c4c4c" d="M582,166 l0,-78 58,0 0,5 -52,0 0,68 -6,5z" /><path style="fill:#999;stroke:#4c4c4c;stroke-width:2" d="M853,117 l21,0 0,47 -21,0 0,-47z" /><path style="fill:none;stroke:#fff;stroke-width:2" d="M874,116 l0,47 -21,0" /><path style="fill:#fff" d="M166,5 l31,0 0,5 -31,0 0,-5z" /><path style="fill:#fff" d="M291,5 l31,0 0,5 -31,0 0,-5z" /><path style="fill:#fff" d="M416,5 l31,0 0,5 -31,0 0,-5z" /><path style="fill:#fff" d="M541,5 l31,0 0,5 -31,0 0,-5z" /><path style="fill:#fff" d="M666,5 l31,0 0,5 -31,0 0,-5z" /><path style="fill:#fff" d="M790,5 l32,0 0,5 -32,0 0,-5z" /><path style="fill:none;stroke:#4c4c4c;stroke-width:2" d="M608,156 l11,0" /><path style="fill:none;stroke:#4c4c4c;stroke-width:2" d="M728,156 l10,0" /><path style="fill:none;stroke:#7f7f7f;stroke-width:2" d="M957,10 l0,120" /><path style="fill:none;stroke:#7f7f7f;stroke-width:2" d="M832,46 l0,115" /><path style="fill:none;stroke:#7f7f7f;stroke-width:2" d="M666,46 l0,115" /><path style="fill:none;stroke:#7f7f7f;stroke-width:2" d="M499,46 l0,115" /><path style="fill:none;stroke:#7f7f7f;stroke-width:2" d="M333,46 l0,115" /><path style="fill:none;stroke:#7f7f7f;stroke-width:2" d="M166,46 l0,115" /></svg>