<!DOCTYPE svg PUBLIC "-//W3C//DTD SVG 20000303 Stylable//EN" "http://www.w3.org/TR/2000/03/WD-SVG-20000303/DTD/svg-20000303-stylable.dtd"[]><svg xmlns="http://www.w3.org/2000/svg" width="999px" height="617px" viewBox="0 0 999 599"><path style="fill:#4c4c4c;stroke:#4c4c4c;stroke-width:2" d="M899,76 l94,164 -800,0 -94,-164 800,0z" /><path style="fill:#f2efe5;stroke:#4c4c4c;stroke-width:2" d="M52,264 l0,329 753,0 0,-329 -753,0z" /><path style="fill:#b2a598;stroke:#4c4c4c;stroke-width:2" d="M805,593 l141,-70 0,-330 -71,-117 -70,188 0,329z" /><path style="fill:none;stroke:#4c4c4c;stroke-width:2" d="M805,264 l141,-70" /><path style="fill:#ccb299;stroke:#4c4c4c;stroke-width:2" d="M5,334 l94,-258 800,0 -94,258 -800,0z" /><path style="fill:#fff;stroke:#4c4c4c;stroke-width:2" d="M5,334 l800,0 0,12 -800,0 0,-12z" /><path style="fill:none;stroke:#4c4c4c;stroke-width:2" d="M52,311 l165,0" /><path style="fill:none;stroke:#4c4c4c;stroke-width:2" d="M99,287 l188,0" /><path style="fill:none;stroke:#4c4c4c;stroke-width:2" d="M511,276 l106,0" /><path style="fill:none;stroke:#4c4c4c;stroke-width:2" d="M593,287 l94,0" /><path style="fill:none;stroke:#4c4c4c;stroke-width:2" d="M664,146 l117,0" /><path style="fill:none;stroke:#4c4c4c;stroke-width:2" d="M687,135 l-94,0" /><path style="fill:none;stroke:#4c4c4c;stroke-width:2" d="M652,111 l82,0" /><path style="fill:none;stroke:#4c4c4c;stroke-width:2" d="M475,123 l-211,0" /><path style="fill:none;stroke:#4c4c4c;stroke-width:2" d="M276,146 l-106,0" /><path style="fill:none;stroke:#4c4c4c;stroke-width:2" d="M358,158 l82,0" /><path style="fill:none;stroke:#4c4c4c;stroke-width:2" d="M428,170 l59,0" /><path style="fill:none;stroke:#4c4c4c;stroke-width:2" d="M346,252 l59,0" /><path style="fill:none;stroke:#4c4c4c;stroke-width:2" d="M734,252 l47,0" /><path style="fill:none;stroke:#4c4c4c;stroke-width:2" d="M499,311 l-59,0" /><path style="fill:none;stroke:#4c4c4c;stroke-width:2" d="M111,182 l-35,0" /><path style="fill:none;stroke:#4c4c4c;stroke-width:2" d="M123,99 l70,0" /><path style="fill:#7f7f7f" d="M190,233 l14,-40 36,0 0,7 -14,40 -36,0 0,-7z" /><path style="fill:#7f7f7f" d="M378,233 l14,-40 36,0 0,7 -14,40 -36,0 0,-7z" /><path style="fill:#7f7f7f" d="M566,233 l14,-40 37,0 0,7 -15,40 -36,0 0,-7z" /><path style="fill:none;stroke:#4c4c4c;stroke-width:2" d="M190,233 l36,0 14,-40" /><path style="fill:none;stroke:#4c4c4c;stroke-width:2" d="M378,233 l36,0 14,-40" /><path style="fill:none;stroke:#4c4c4c;stroke-width:2" d="M566,233 l36,0 15,-40" /><path style="fill:#7f7f7f;stroke:#4c4c4c;stroke-width:2" d="M288,5 l23,0 0,224 -23,0 0,-224z" /><path style="fill:#e5e5e5" d="M296,5 l7,0 0,224 -7,0 0,-224z" /><path style="fill:#d9d9d9;stroke:#7f7f7f;stroke-width:2" d="M149,370 l110,0 0,219 -110,0 0,-219z" /><path style="fill:#cbe5e5" d="M602,370 l109,0 0,109 -109,0 0,-109z" /><path style="fill:#cbe5e5" d="M470,370 l109,0 0,109 -109,0 0,-109z" /><path style="fill:#cbe5e5" d="M338,370 l109,0 0,109 -109,0 0,-109z" /><path style="fill:#cbe5e5" d="M160,380 l88,0 0,88 -88,0 0,-88z" /><path style="fill:#cbe5e5" d="M836,342 l36,-19 0,110 -36,18 0,-109z" /><path style="fill:#cbe5e5" d="M880,320 l36,-18 0,109 -36,18 0,-109z" /><path style="fill:#b3d9d9" d="M901,377 l-9,32 12,-32 7,-33 -10,33z" /><path style="fill:#b3d9d9" d="M881,321 l0,33 35,-48 0,-3 -35,18z" /><path style="fill:#b3d9d9" d="M837,343 l0,33 35,-48 0,-3 -35,18z" /><path style="fill:#b3d9d9" d="M857,399 l-8,32 11,-33 7,-32 -10,33z" /><path style="fill:#b3d9d9" d="M602,371 l0,33 108,-30 0,-3 -108,0z" /><path style="fill:#b3d9d9" d="M471,371 l0,33 107,-30 0,-3 -107,0z" /><path style="fill:#b3d9d9" d="M339,371 l0,33 108,-30 0,-3 -108,0z" /><path style="fill:#b3d9d9" d="M161,381 l0,27 86,-24 0,-3 -86,0z" /><path style="fill:#b3d9d9" d="M664,437 l-25,28 32,-27 22,-29 -29,28z" /><path style="fill:#b3d9d9" d="M533,437 l-26,28 33,-27 22,-29 -29,28z" /><path style="fill:#b3d9d9" d="M401,437 l-25,28 32,-27 22,-29 -29,28z" /><path style="fill:#b3d9d9" d="M211,435 l-21,22 26,-21 18,-24 -23,23z" /><path style="fill:#fff" d="M677,468 l14,-12 9,-14 -13,15 -10,11z" /><path style="fill:#fff" d="M620,468 l40,-33 25,-40 -38,42 -27,31z" /><path style="fill:#fff" d="M678,378 l-29,23 -18,29 28,-30 19,-22z" /><path style="fill:#fff" d="M547,378 l-29,23 -19,29 28,-30 20,-22z" /><path style="fill:#fff" d="M488,468 l40,-33 26,-40 -39,42 -27,31z" /><path style="fill:#fff" d="M545,468 l15,-12 9,-14 -14,15 -10,11z" /><path style="fill:#fff" d="M414,468 l14,-12 9,-14 -13,15 -10,11z" /><path style="fill:#fff" d="M356,468 l40,-33 26,-40 -38,42 -28,31z" /><path style="fill:#fff" d="M415,378 l-29,23 -19,29 28,-30 20,-22z" /><path style="fill:#fff" d="M221,459 l11,-9 8,-12 -11,13 -8,8z" /><path style="fill:#fff" d="M175,459 l32,-26 21,-32 -32,34 -21,24z" /><path style="fill:#fff" d="M222,387 l-23,19 -15,23 22,-24 16,-18z" /><path style="fill:#fff" d="M906,314 l-10,29 -5,32 8,-34 7,-27z" /><path style="fill:#fff" d="M886,415 l14,-40 8,-44 -13,49 -9,35z" /><path style="fill:#fff" d="M905,405 l5,-14 3,-15 -4,16 -4,13z" /><path style="fill:#fff" d="M862,427 l4,-14 3,-16 -4,18 -3,12z" /><path style="fill:#fff" d="M842,436 l14,-39 8,-44 -13,49 -9,34z" /><path style="fill:#fff" d="M862,337 l-9,29 -7,31 9,-35 7,-25z" /><path style="fill:none;stroke:#fff;stroke-width:2" d="M888,348 l7,-22" /><path style="fill:none;stroke:#fff;stroke-width:2" d="M884,366 l7,-20" /><path style="fill:none;stroke:#fff;stroke-width:2" d="M840,387 l7,-19" /><path style="fill:none;stroke:#fff;stroke-width:2" d="M843,370 l8,-22" /><path style="fill:none;stroke:#fff;stroke-width:2" d="M170,419 l16,-13" /><path style="fill:none;stroke:#fff;stroke-width:2" d="M178,406 l18,-14" /><path style="fill:none;stroke:#fff;stroke-width:2" d="M349,417 l21,-16" /><path style="fill:none;stroke:#fff;stroke-width:2" d="M360,401 l23,-18" /><path style="fill:none;stroke:#fff;stroke-width:2" d="M482,417 l19,-16" /><path style="fill:none;stroke:#fff;stroke-width:2" d="M492,401 l21,-18" /><path style="fill:none;stroke:#fff;stroke-width:2" d="M612,417 l21,-16" /><path style="fill:none;stroke:#fff;stroke-width:2" d="M623,401 l23,-18" /><circle style="fill:#333" cx="160" cy="484" r="5" /><path style="fill:#fff" d="M156,483 l3,-3 1,3 0,1 -1,0 -3,0 0,-1z" /><path style="fill:none;stroke:#fff;stroke-width:2" d="M872,323 l0,110 -36,18" /><path style="fill:none;stroke:#fff;stroke-width:2" d="M916,302 l0,109 -36,18" /><path style="fill:none;stroke:#fff;stroke-width:2" d="M711,370 l0,109 -109,0" /><path style="fill:none;stroke:#fff;stroke-width:2" d="M579,370 l0,109 -109,0" /><path style="fill:none;stroke:#fff;stroke-width:2" d="M447,370 l0,109 -109,0" /><path style="fill:none;stroke:#fff;stroke-width:2" d="M248,380 l0,88 -88,0" /><path style="fill:none;stroke:#4c4c4c;stroke-width:2" d="M881,430 l0,-110 36,-18" /><path style="fill:none;stroke:#4c4c4c;stroke-width:2" d="M837,451 l0,-109 36,-18" /><path style="fill:none;stroke:#4c4c4c;stroke-width:2" d="M602,479 l0,-110 109,0" /><path style="fill:none;stroke:#4c4c4c;stroke-width:2" d="M469,479 l0,-110 110,0" /><path style="fill:none;stroke:#4c4c4c;stroke-width:2" d="M338,479 l0,-110 109,0" /><path style="fill:none;stroke:#4c4c4c;stroke-width:2" d="M160,468 l0,-88 88,0" /></svg>