<!DOCTYPE svg PUBLIC "-//W3C//DTD SVG 20000303 Stylable//EN" "http://www.w3.org/TR/2000/03/WD-SVG-20000303/DTD/svg-20000303-stylable.dtd"[]><svg xmlns="http://www.w3.org/2000/svg" width="684px" height="999px" viewBox="0 0 665 999"><path style="fill:#ccc;stroke:#4c4c4c;stroke-width:2" d="M0,83 l499,0 0,916 -499,0 0,-916z" /><path style="fill:#999;stroke:#4c4c4c;stroke-width:2" d="M499,999 l166,-82 0,-917 -166,83 0,916z" /><path style="fill:#e5e5e5;stroke:#4c4c4c;stroke-width:2" d="M0,83 l165,-83 500,0 -166,83 -499,0z" /><path style="fill:none;stroke:#fff;stroke-width:2" d="M0,83 l499,0 166,-83" /><path style="fill:none;stroke:#fff;stroke-width:2" d="M499,73 l0,926" /><path style="fill:#7f7f7f;stroke:#4c4c4c;stroke-width:2" d="M312,540 l-125,0 0,208 125,0 0,-208z" /><path style="fill:#7f7f7f;stroke:#4c4c4c;stroke-width:2" d="M312,207 l-125,0 0,208 125,0 0,-208z" /><path style="fill:#cbe5e5" d="M195,540 l117,0 0,195 -117,0 0,-195z" /><path style="fill:#cbe5e5" d="M195,208 l117,0 0,194 -117,0 0,-194z" /><path style="fill:#b3d9d9" d="M195,540 l0,60 117,-53 0,-7 -117,0z" /><path style="fill:#b3d9d9" d="M195,207 l0,60 117,-53 0,-7 -117,0z" /></svg>