<!DOCTYPE svg PUBLIC "-//W3C//DTD SVG 20000303 Stylable//EN" "http://www.w3.org/TR/2000/03/WD-SVG-20000303/DTD/svg-20000303-stylable.dtd"[]><svg xmlns="http://www.w3.org/2000/svg" width="999px" height="292px" viewBox="0 0 999 257"><path style="fill:#ccc;stroke:#4c4c4c;stroke-width:2" d="M4,252 l0,-165 866,0 0,165 -866,0z" /><path style="fill:#e5e5e5;stroke:#4c4c4c;stroke-width:2" d="M870,87 l62,-83 -824,0 -104,83 866,0z" /><path style="fill:#999;stroke:#4c4c4c;stroke-width:2" d="M623,252 l0,-103 123,0 0,103 -123,0z" /><path style="fill:#999;stroke:#4c4c4c;stroke-width:2" d="M375,252 l0,-103 124,0 0,103 -124,0z" /><path style="fill:#999;stroke:#4c4c4c;stroke-width:2" d="M128,252 l0,-103 124,0 0,103 -124,0z" /><path style="fill:#000" d="M643,252 l0,-103 103,0 0,103 -103,0z" /><path style="fill:#000" d="M396,252 l0,-103 103,0 0,103 -103,0z" /><path style="fill:#000" d="M149,252 l0,-103 103,0 0,103 -103,0z" /><path style="fill:#999;stroke:#4c4c4c;stroke-width:2" d="M870,252 l0,-165 62,-83 62,21 0,165 -124,62z" /></svg>