<!DOCTYPE svg PUBLIC "-//W3C//DTD SVG 20000303 Stylable//EN" "http://www.w3.org/TR/2000/03/WD-SVG-20000303/DTD/svg-20000303-stylable.dtd"[]><svg xmlns="http://www.w3.org/2000/svg" width="999px" height="784px" viewBox="0 0 998 771"><path style="fill:#666;stroke:#4c4c4c;stroke-width:2" d="M0,187 l665,-187 333,187 -665,584 -333,-584z" /><path style="fill:#996;stroke:#4c4c4c;stroke-width:2" d="M0,187 l333,250 0,334 -333,-252 0,-332z" /><path style="fill:#cc3;stroke:#4c4c4c;stroke-width:2" d="M333,771 l665,-272 0,-312 -665,250 0,334z" /><path style="fill:#e5e5e5;stroke:#4c4c4c;stroke-width:2" d="M395,583 l354,-134 0,104 -354,134 0,-104z" /><path style="fill:#ccc" d="M401,633 l0,48 146,-56 -146,8z" /><path style="fill:#fff" d="M401,623 l166,-6 16,-6 -182,2 0,10z" /><path style="fill:#4c4c4c" d="M395,687 l0,-4 348,-132 0,-100 6,-2 0,104 -354,134z" /><path style="fill:#e5e5e5;stroke:#4c4c4c;stroke-width:2" d="M791,437 l124,-50 0,146 -124,50 0,-146z" /><path style="fill:#fff" d="M797,535 l114,-10 0,-6 -114,10 0,6z" /><path style="fill:#ccc" d="M739,505 l0,-46 -146,54 146,-8z" /><path style="fill:#ccc" d="M911,429 l0,-34 -110,44 110,-10z" /><path style="fill:#ccc" d="M797,541 l0,36 108,-46 -108,10z" /><path style="fill:none;stroke:#7f7f7f;stroke-width:2" d="M853,413 l0,144" /><path style="fill:none;stroke:#7f7f7f;stroke-width:2" d="M791,511 l124,-52" /></svg>