<!DOCTYPE svg PUBLIC "-//W3C//DTD SVG 20000303 Stylable//EN" "http://www.w3.org/TR/2000/03/WD-SVG-20000303/DTD/svg-20000303-stylable.dtd"[]><svg xmlns="http://www.w3.org/2000/svg" width="999px" height="527px" viewBox="0 0 999 504"><path style="fill:#999;stroke:#4c4c4c;stroke-width:2" d="M293,499 l165,-82 0,-413 -165,83 0,412z" /><path style="fill:#ccc;stroke:#4c4c4c;stroke-width:2" d="M581,499 l289,0 0,-247 -289,0 0,247z" /><path style="fill:#ccc;stroke:#4c4c4c;stroke-width:2" d="M375,458 l206,0 0,-165 -206,0 0,165z" /><path style="fill:#ccc;stroke:#4c4c4c;stroke-width:2" d="M4,499 l289,0 0,-412 -289,0 0,412z" /><path style="fill:#999;stroke:#4c4c4c;stroke-width:2" d="M870,499 l124,-62 0,-247 -124,62 0,247z" /><path style="fill:#e5e5e5;stroke:#4c4c4c;stroke-width:2" d="M4,87 l165,-83 289,0 -165,83 -289,0z" /><path style="fill:#e5e5e5;stroke:#4c4c4c;stroke-width:2" d="M375,293 l83,-41 123,0 0,41 -206,0z" /><path style="fill:#e5e5e5;stroke:#4c4c4c;stroke-width:2" d="M581,252 l124,-62 289,0 -124,62 -289,0z" /><path style="fill:#999;stroke:#4c4c4c;stroke-width:2" d="M602,478 l0,-39 52,0 0,39 -52,0z" /><path style="fill:#999;stroke:#4c4c4c;stroke-width:2" d="M667,478 l0,-39 52,0 0,39 -52,0z" /><path style="fill:#999;stroke:#4c4c4c;stroke-width:2" d="M732,478 l0,-39 52,0 0,39 -52,0z" /><path style="fill:#999;stroke:#4c4c4c;stroke-width:2" d="M797,478 l0,-39 52,0 0,39 -52,0z" /><path style="fill:#999;stroke:#4c4c4c;stroke-width:2" d="M602,332 l0,-39 52,0 0,39 -52,0z" /><path style="fill:#999;stroke:#4c4c4c;stroke-width:2" d="M667,332 l0,-39 52,0 0,39 -52,0z" /><path style="fill:#999;stroke:#4c4c4c;stroke-width:2" d="M732,332 l0,-39 52,0 0,39 -52,0z" /><path style="fill:#999;stroke:#4c4c4c;stroke-width:2" d="M797,332 l0,-39 52,0 0,39 -52,0z" /><path style="fill:#999;stroke:#4c4c4c;stroke-width:2" d="M466,458 l0,-62 74,0 0,62 -74,0z" /><path style="fill:#999;stroke:#4c4c4c;stroke-width:2" d="M25,169 l0,-41 247,0 0,41 -247,0z" /><path style="fill:#999;stroke:#4c4c4c;stroke-width:2" d="M25,252 l0,-41 247,0 0,41 -247,0z" /><path style="fill:#666;stroke:#4c4c4c;stroke-width:2" d="M891,478 l0,-39 17,-9 0,39 -17,9z" /><path style="fill:#666;stroke:#4c4c4c;stroke-width:2" d="M912,467 l0,-39 18,-9 0,39 -18,9z" /><path style="fill:#666;stroke:#4c4c4c;stroke-width:2" d="M934,456 l0,-39 17,-9 0,39 -17,9z" /><path style="fill:#666;stroke:#4c4c4c;stroke-width:2" d="M956,445 l0,-39 17,-9 0,39 -17,9z" /><path style="fill:#666;stroke:#4c4c4c;stroke-width:2" d="M891,332 l0,-39 17,-9 0,39 -17,9z" /><path style="fill:#666;stroke:#4c4c4c;stroke-width:2" d="M912,321 l0,-39 18,-9 0,39 -18,9z" /><path style="fill:#666;stroke:#4c4c4c;stroke-width:2" d="M934,310 l0,-39 17,-9 0,39 -17,9z" /><path style="fill:#666;stroke:#4c4c4c;stroke-width:2" d="M956,299 l0,-39 17,-9 0,39 -17,9z" /><path style="fill:#666;stroke:#4c4c4c;stroke-width:2" d="M314,169 l0,-41 123,-59 0,41 -123,59z" /><path style="fill:#666;stroke:#4c4c4c;stroke-width:2" d="M314,252 l0,-41 123,-60 0,41 -123,60z" /><path style="fill:none;stroke:#4c4c4c;stroke-width:2" d="M503,396 l0,62" /></svg>