<!DOCTYPE svg PUBLIC "-//W3C//DTD SVG 20000303 Stylable//EN" "http://www.w3.org/TR/2000/03/WD-SVG-20000303/DTD/svg-20000303-stylable.dtd"[]><svg xmlns="http://www.w3.org/2000/svg" width="999px" height="450px" viewBox="0 0 998 422"><path style="fill:none;stroke:#4c4c4c;stroke-width:2" d="M4,351 l558,-324" /><path style="fill:none;stroke:#4c4c4c;stroke-width:2" d="M22,382 l558,-324" /><path style="fill:none;stroke:#4c4c4c;stroke-width:2" d="M4,351 l34,22 -3,-40 34,22 -3,-40 34,22 -3,-40 34,22 -2,-40" /><path style="fill:none;stroke:#4c4c4c;stroke-width:2" d="M129,279 l33,22 -2,-40 33,22 -2,-40 34,22 -3,-40 34,22 -3,-40" /><path style="fill:none;stroke:#4c4c4c;stroke-width:2" d="M253,207 l34,22 -3,-40 34,22 -2,-40 33,22 -2,-40 34,22 -3,-40" /><path style="fill:none;stroke:#4c4c4c;stroke-width:2" d="M378,135 l34,22 -3,-40 34,22 -2,-40 33,22 -2,-40 33,22 -2,-40" /><path style="fill:none;stroke:#4c4c4c;stroke-width:2" d="M503,63 l33,22 -2,-40" /><path style="fill:#ccc;stroke:#4c4c4c;stroke-width:2" d="M706,418 l0,-360 216,0 0,360 -216,0z" /><path style="fill:#ccc;stroke:#4c4c4c;stroke-width:2" d="M526,382 l0,-360 108,0 0,108 72,0 0,252 -180,0z" /><path style="fill:#e5e5e5;stroke:#4c4c4c;stroke-width:2" d="M706,58 l72,-36 216,0 -72,36 -216,0z" /><path style="fill:#e5e5e5;stroke:#4c4c4c;stroke-width:2" d="M634,130 l0,-18 72,0 0,18 -72,0z" /><path style="fill:#e5e5e5;stroke:#4c4c4c;stroke-width:2" d="M526,22 l36,-18 108,0 -36,18 -108,0z" /><path style="fill:#999;stroke:#4c4c4c;stroke-width:2" d="M778,418 l0,-60 72,0 0,60 -72,0z" /><path style="fill:#999;stroke:#4c4c4c;stroke-width:2" d="M724,148 l0,-36 180,0 0,36 -180,0z" /><path style="fill:#999;stroke:#4c4c4c;stroke-width:2" d="M544,94 l0,-36 72,0 0,36 -72,0z" /><path style="fill:#999;stroke:#4c4c4c;stroke-width:2" d="M544,202 l0,-36 162,0 0,36 -162,0z" /><path style="fill:#999;stroke:#4c4c4c;stroke-width:2" d="M275,382 l0,-162 17,0 0,162 -17,0z" /><path style="fill:#999;stroke:#4c4c4c;stroke-width:2" d="M994,382 l0,-360 -72,36 0,360 72,-36z" /><path style="fill:#999;stroke:#4c4c4c;stroke-width:2" d="M634,130 l36,-18 0,-108 -36,18 0,108z" /><path style="fill:none;stroke:#4c4c4c;stroke-width:2" d="M814,358 l0,60" /></svg>