<!DOCTYPE svg PUBLIC "-//W3C//DTD SVG 20000303 Stylable//EN" "http://www.w3.org/TR/2000/03/WD-SVG-20000303/DTD/svg-20000303-stylable.dtd"[]><svg xmlns="http://www.w3.org/2000/svg" width="999px" height="529px" viewBox="0 0 999 501"><path style="fill:#919999;stroke:#4c4c4c;stroke-width:2" d="M832,84 l167,-84 0,416 -167,85 0,-417z" /><path style="fill:#4c4c4c" d="M961,81 l-25,13 0,187 25,-12 0,-188z" /><path style="fill:#4c4c4c" d="M928,98 l-25,13 0,187 25,-13 0,-187z" /><path style="fill:#4c4c4c" d="M895,115 l-25,13 0,187 25,-13 0,-187z" /><path style="fill:#98b2b2" d="M936,94 l24,-12 0,177 -24,12 0,-177z" /><path style="fill:#98b2b2" d="M903,111 l23,-12 0,177 -23,12 0,-177z" /><path style="fill:#98b2b2" d="M870,128 l23,-12 0,177 -23,12 0,-177z" /><path style="fill:#80a6a6" d="M936,93 l0,37 24,-44 0,-4 -24,11z" /><path style="fill:#80a6a6" d="M903,110 l0,37 23,-44 0,-4 -23,11z" /><path style="fill:#80a6a6" d="M870,127 l0,37 23,-44 0,-4 -23,11z" /><path style="fill:#c4cccc;stroke:#4c4c4c;stroke-width:2" d="M0,85 l833,0 0,416 -833,0 0,-416z" /><path style="fill:#eaf2f2;stroke:#4c4c4c;stroke-width:2" d="M0,85 l165,-84 834,0 -166,84 -833,0z" /><path style="fill:#7f7f7f" d="M645,147 l-125,0 0,187 125,0 0,-187z" /><path style="fill:#7f7f7f" d="M478,147 l-125,0 0,187 125,0 0,-187z" /><path style="fill:#7f7f7f" d="M312,147 l-125,0 0,187 125,0 0,-187z" /><path style="fill:#cbe5e5" d="M528,147 l117,0 0,177 -117,0 0,-177z" /><path style="fill:#cbe5e5" d="M361,147 l117,0 0,177 -117,0 0,-177z" /><path style="fill:#cbe5e5" d="M195,147 l117,0 0,177 -117,0 0,-177z" /><path style="fill:#b3d9d9" d="M528,147 l0,36 117,-32 0,-4 -117,0z" /><path style="fill:#b3d9d9" d="M361,147 l0,36 117,-32 0,-4 -117,0z" /><path style="fill:#b3d9d9" d="M195,147 l0,36 117,-32 0,-4 -117,0z" /><path style="fill:none;stroke:#4c4c4c;stroke-width:2" d="M899,50 l33,-17 0,417 -33,17 0,-417" /><path style="fill:none;stroke:#4c4c4c;stroke-width:2" d="M333,85 l166,0 0,416 -166,0 0,-416" /><path style="fill:none;stroke:#4c4c4c;stroke-width:2" d="M0,95 l833,0" /><path style="fill:none;stroke:#4c4c4c;stroke-width:2" d="M833,95 l166,-84" /><path style="fill:none;stroke:#4c4c4c;stroke-width:2" d="M645,147 l-125,0 0,187 125,0 0,-187" /><path style="fill:none;stroke:#4c4c4c;stroke-width:2" d="M478,147 l-125,0 0,187 125,0 0,-187" /><path style="fill:none;stroke:#4c4c4c;stroke-width:2" d="M312,147 l-125,0 0,187 125,0 0,-187" /><path style="fill:none;stroke:#4c4c4c;stroke-width:2" d="M961,81 l-25,13 0,187 25,-12 0,-188" /><path style="fill:none;stroke:#4c4c4c;stroke-width:2" d="M928,98 l-25,13 0,187 25,-13 0,-187" /><path style="fill:none;stroke:#4c4c4c;stroke-width:2" d="M895,115 l-25,13 0,187 25,-13 0,-187" /></svg>