<!DOCTYPE svg PUBLIC "-//W3C//DTD SVG 20000303 Stylable//EN" "http://www.w3.org/TR/2000/03/WD-SVG-20000303/DTD/svg-20000303-stylable.dtd"[]><svg xmlns="http://www.w3.org/2000/svg" width="999px" height="393px" viewBox="0 0 999 362"><path style="fill:#e5e5e5;stroke:#4c4c4c;stroke-width:2" d="M4,74 l849,0 0,283 -849,0 0,-283z" /><path style="fill:#b2b2b2;stroke:#4c4c4c;stroke-width:2" d="M853,74 l141,-70 0,283 -141,70 0,-283z" /><path style="fill:#ccc;stroke:#4c4c4c;stroke-width:2" d="M853,74 l141,-70 -849,0 -141,70 849,0z" /><path style="fill:#d9d9d9;stroke:#4c4c4c;stroke-width:2" d="M723,122 l118,0 0,235 -118,0 0,-235z" /><path style="fill:#cbe5e5" d="M951,73 l39,-20 0,118 -39,19 0,-117z" /><path style="fill:#cbe5e5" d="M904,96 l39,-20 0,118 -39,20 0,-118z" /><path style="fill:#cbe5e5" d="M857,120 l39,-20 0,118 -39,20 0,-118z" /><path style="fill:#cbe5e5" d="M735,133 l94,0 0,95 -94,0 0,-95z" /><path style="fill:#cbe5e5" d="M582,122 l117,0 0,117 -117,0 0,-117z" /><path style="fill:#cbe5e5" d="M440,122 l118,0 0,117 -118,0 0,-117z" /><path style="fill:#cbe5e5" d="M299,122 l117,0 0,117 -117,0 0,-117z" /><path style="fill:#cbe5e5" d="M157,122 l118,0 0,117 -118,0 0,-117z" /><path style="fill:#cbe5e5" d="M16,122 l117,0 0,117 -117,0 0,-117z" /><path style="fill:#b3d9d9" d="M789,192 l-22,24 28,-23 19,-25 -25,24z" /><path style="fill:#b3d9d9" d="M736,134 l0,29 92,-26 0,-3 -92,0z" /><path style="fill:#b3d9d9" d="M649,194 l-27,30 35,-28 24,-32 -32,30z" /><path style="fill:#b3d9d9" d="M583,123 l0,36 115,-32 0,-4 -115,0z" /><path style="fill:#b3d9d9" d="M508,194 l-28,30 35,-28 24,-32 -31,30z" /><path style="fill:#b3d9d9" d="M441,123 l0,36 116,-32 0,-4 -116,0z" /><path style="fill:#b3d9d9" d="M366,194 l-27,30 35,-28 24,-32 -32,30z" /><path style="fill:#b3d9d9" d="M300,123 l0,36 115,-32 0,-4 -115,0z" /><path style="fill:#b3d9d9" d="M225,194 l-28,30 35,-28 24,-32 -31,30z" /><path style="fill:#b3d9d9" d="M158,123 l0,36 116,-32 0,-4 -116,0z" /><path style="fill:#b3d9d9" d="M83,194 l-27,30 35,-28 24,-32 -32,30z" /><path style="fill:#b3d9d9" d="M17,123 l0,36 115,-32 0,-4 -115,0z" /><path style="fill:#b3d9d9" d="M974,134 l-9,34 11,-34 8,-35 -10,35z" /><path style="fill:#b3d9d9" d="M952,73 l0,37 38,-52 0,-4 -38,19z" /><path style="fill:#b3d9d9" d="M926,158 l-9,34 12,-35 8,-35 -11,36z" /><path style="fill:#b3d9d9" d="M904,97 l0,36 39,-51 0,-4 -39,19z" /><path style="fill:#b3d9d9" d="M879,181 l-9,35 12,-35 8,-35 -11,35z" /><path style="fill:#b3d9d9" d="M857,121 l0,36 38,-52 0,-4 -38,20z" /><path style="fill:#fff" d="M801,140 l-25,21 -16,25 24,-27 17,-19z" /><path style="fill:#fff" d="M751,218 l34,-28 22,-35 -33,37 -23,26z" /><path style="fill:#fff" d="M800,218 l12,-10 8,-12 -12,12 -8,10z" /><path style="fill:#fff" d="M664,130 l-31,26 -20,31 30,-33 21,-24z" /><path style="fill:#fff" d="M601,227 l43,-35 28,-43 -42,45 -29,33z" /><path style="fill:#fff" d="M663,227 l15,-12 10,-15 -14,15 -11,12z" /><path style="fill:#fff" d="M523,130 l-31,26 -20,31 30,-33 21,-24z" /><path style="fill:#fff" d="M460,227 l43,-35 27,-43 -41,45 -29,33z" /><path style="fill:#fff" d="M522,227 l15,-12 10,-15 -15,15 -10,12z" /><path style="fill:#fff" d="M381,130 l-31,26 -20,31 30,-33 21,-24z" /><path style="fill:#fff" d="M318,227 l43,-35 28,-43 -42,45 -29,33z" /><path style="fill:#fff" d="M380,227 l15,-12 10,-15 -14,15 -11,12z" /><path style="fill:#fff" d="M240,130 l-31,26 -20,31 30,-33 21,-24z" /><path style="fill:#fff" d="M177,227 l43,-35 27,-43 -41,45 -29,33z" /><path style="fill:#fff" d="M239,227 l15,-12 10,-15 -15,15 -10,12z" /><path style="fill:#fff" d="M98,130 l-31,26 -20,31 30,-33 21,-24z" /><path style="fill:#fff" d="M35,227 l43,-35 28,-43 -42,45 -29,33z" /><path style="fill:#fff" d="M97,227 l15,-12 10,-15 -14,15 -11,12z" /><path style="fill:#fff" d="M979,67 l-11,31 -6,34 10,-37 7,-28z" /><path style="fill:#fff" d="M958,174 l14,-42 9,-47 -14,52 -9,37z" /><path style="fill:#fff" d="M978,164 l5,-15 4,-16 -5,18 -4,13z" /><path style="fill:#fff" d="M931,91 l-10,31 -7,34 10,-38 7,-27z" /><path style="fill:#fff" d="M910,198 l15,-42 9,-48 -14,53 -10,37z" /><path style="fill:#fff" d="M931,188 l5,-15 3,-17 -4,18 -4,14z" /><path style="fill:#fff" d="M884,114 l-10,31 -7,34 10,-37 7,-28z" /><path style="fill:#fff" d="M863,222 l15,-43 9,-47 -14,52 -10,38z" /><path style="fill:#fff" d="M884,211 l5,-15 3,-16 -5,18 -3,13z" /><path style="fill:none;stroke:#fff;stroke-width:2" d="M754,161 l19,-16" /><path style="fill:none;stroke:#fff;stroke-width:2" d="M745,174 l17,-13" /><path style="fill:none;stroke:#fff;stroke-width:2" d="M605,156 l24,-20" /><path style="fill:none;stroke:#fff;stroke-width:2" d="M594,173 l22,-17" /><path style="fill:none;stroke:#fff;stroke-width:2" d="M464,156 l24,-20" /><path style="fill:none;stroke:#fff;stroke-width:2" d="M453,173 l21,-17" /><path style="fill:none;stroke:#fff;stroke-width:2" d="M322,156 l24,-20" /><path style="fill:none;stroke:#fff;stroke-width:2" d="M311,173 l22,-17" /><path style="fill:none;stroke:#fff;stroke-width:2" d="M181,156 l24,-20" /><path style="fill:none;stroke:#fff;stroke-width:2" d="M170,173 l21,-17" /><path style="fill:none;stroke:#fff;stroke-width:2" d="M39,156 l24,-20" /><path style="fill:none;stroke:#fff;stroke-width:2" d="M28,173 l22,-17" /><path style="fill:none;stroke:#fff;stroke-width:2" d="M865,150 l8,-23" /><path style="fill:none;stroke:#fff;stroke-width:2" d="M861,169 l7,-21" /><path style="fill:none;stroke:#fff;stroke-width:2" d="M912,126 l8,-23" /><path style="fill:none;stroke:#fff;stroke-width:2" d="M908,145 l7,-21" /><path style="fill:none;stroke:#fff;stroke-width:2" d="M959,103 l8,-24" /><path style="fill:none;stroke:#fff;stroke-width:2" d="M955,122 l7,-21" /><circle style="fill:#333" cx="735" cy="245" r="6" /><circle style="fill:#fff" cx="732" cy="243" r="2" /><path style="fill:none;stroke:#4c4c4c;stroke-width:2" d="M951,190 l0,-117 39,-20" /><path style="fill:none;stroke:#4c4c4c;stroke-width:2" d="M904,214 l0,-118 39,-20" /><path style="fill:none;stroke:#4c4c4c;stroke-width:2" d="M857,238 l0,-118 39,-20" /><path style="fill:none;stroke:#4c4c4c;stroke-width:2" d="M735,228 l0,-95 94,0" /><path style="fill:none;stroke:#4c4c4c;stroke-width:2" d="M582,239 l0,-117 117,0" /><path style="fill:none;stroke:#4c4c4c;stroke-width:2" d="M440,239 l0,-117 118,0" /><path style="fill:none;stroke:#4c4c4c;stroke-width:2" d="M299,239 l0,-117 117,0" /><path style="fill:none;stroke:#4c4c4c;stroke-width:2" d="M157,239 l0,-117 118,0" /><path style="fill:none;stroke:#4c4c4c;stroke-width:2" d="M16,239 l0,-117 117,0" /><path style="fill:none;stroke:#4c4c4c;stroke-width:2" d="M900,51 l0,283" /><path style="fill:none;stroke:#4c4c4c;stroke-width:2" d="M947,27 l0,283" /><path style="fill:none;stroke:#4c4c4c;stroke-width:2" d="M145,74 l0,283" /><path style="fill:none;stroke:#4c4c4c;stroke-width:2" d="M287,74 l0,283" /><path style="fill:none;stroke:#4c4c4c;stroke-width:2" d="M428,74 l0,283" /><path style="fill:none;stroke:#4c4c4c;stroke-width:2" d="M570,74 l0,283" /><path style="fill:none;stroke:#4c4c4c;stroke-width:2" d="M711,74 l0,283" /><path style="fill:none;stroke:#fff;stroke-width:2" d="M990,53 l0,118 -39,19" /><path style="fill:none;stroke:#fff;stroke-width:2" d="M943,76 l0,118 -39,20" /><path style="fill:none;stroke:#fff;stroke-width:2" d="M896,100 l0,118 -39,20" /><path style="fill:none;stroke:#fff;stroke-width:2" d="M829,133 l0,95 -94,0" /><path style="fill:none;stroke:#fff;stroke-width:2" d="M699,122 l0,117 -117,0" /><path style="fill:none;stroke:#fff;stroke-width:2" d="M558,122 l0,117 -118,0" /><path style="fill:none;stroke:#fff;stroke-width:2" d="M416,122 l0,117 -117,0" /><path style="fill:none;stroke:#fff;stroke-width:2" d="M275,122 l0,117 -118,0" /><path style="fill:none;stroke:#fff;stroke-width:2" d="M133,122 l0,117 -117,0" /></svg>