<!DOCTYPE svg PUBLIC "-//W3C//DTD SVG 20000303 Stylable//EN" "http://www.w3.org/TR/2000/03/WD-SVG-20000303/DTD/svg-20000303-stylable.dtd"[]><svg xmlns="http://www.w3.org/2000/svg" width="999px" height="527px" viewBox="0 0 999 499"><path style="fill:#f2f2e5;stroke:#4c4c4c;stroke-width:2" d="M0,499 l833,0 0,-416 -833,0 0,416z" /><path style="fill:#d9d9b3;stroke:#4c4c4c;stroke-width:2" d="M999,415 l-166,84 0,-416 166,-83 0,415z" /><path style="fill:#e5e5cb" d="M945,297 l48,-24 0,-146 -48,24 0,146z" /><path style="fill:#e5e5cb" d="M893,323 l46,-24 0,-144 -46,22 0,146z" /><path style="fill:#e5e5cb" d="M839,349 l46,-22 0,-146 -46,22 0,146z" /><path style="fill:#8ca0bf" d="M945,293 l40,-20 0,-142 -40,20 0,142z" /><path style="fill:#8ca0bf" d="M893,319 l40,-20 0,-142 -42,20 2,142z" /><path style="fill:#8ca0bf" d="M839,347 l40,-20 0,-144 -40,20 0,144z" /><path style="fill:#000" d="M0,489 l833,0 0,10 -833,0 0,-10z" /><path style="fill:#000" d="M833,489 l166,-84 0,10 -166,84 0,-10z" /><path style="fill:#727d8c;stroke:#4c4c4c;stroke-width:2" d="M187,499 l124,0 0,-292 -124,0 0,292z" /><path style="fill:#333" d="M207,385 l22,0 0,-22 -22,0 0,22z" /><path style="fill:#8c97a6" d="M207,333 l84,0 0,-106 -84,0 0,106z" /><path style="fill:#e5e5cb" d="M665,353 l146,0 0,-146 -146,0 0,146z" /><path style="fill:#e5e5cb" d="M499,353 l146,0 0,-146 -146,0 0,146z" /><path style="fill:#e5e5cb" d="M333,353 l144,0 0,-146 -144,0 0,146z" /><path style="fill:#e5e5cb" d="M19,353 l146,0 0,-146 -146,0 0,146z" /><path style="fill:#a6bad9" d="M677,343 l134,0 0,-136 -134,0 0,136z" /><path style="fill:#a6bad9" d="M509,343 l136,0 0,-136 -136,0 0,136z" /><path style="fill:#a6bad9" d="M343,343 l134,0 0,-136 -134,0 0,136z" /><path style="fill:#a6bad9" d="M213,327 l78,0 0,-100 -78,0 0,100z" /><path style="fill:#a6bad9" d="M31,343 l134,0 0,-136 -134,0 0,136z" /><path style="fill:#fafaf5;stroke:#4c4c4c;stroke-width:2" d="M166,0 l-166,83 832,0 167,-83 -833,0z" /><path style="fill:none;stroke:#4c4c4c;stroke-width:2" d="M666,353 l145,0 0,-145 -145,0 0,145" /><path style="fill:none;stroke:#4c4c4c;stroke-width:2" d="M499,353 l146,0 0,-145 -146,0 0,145" /><path style="fill:none;stroke:#4c4c4c;stroke-width:2" d="M333,353 l145,0 0,-145 -145,0 0,145" /><path style="fill:none;stroke:#4c4c4c;stroke-width:2" d="M20,353 l146,0 0,-145 -146,0 0,145" /><path style="fill:none;stroke:#4c4c4c;stroke-width:2" d="M945,297 l47,-23 0,-146 -47,23 0,146" /><path style="fill:none;stroke:#4c4c4c;stroke-width:2" d="M892,324 l47,-24 0,-145 -47,23 0,146" /><path style="fill:none;stroke:#4c4c4c;stroke-width:2" d="M839,350 l46,-23 0,-146 -46,23 0,146" /></svg>