<!DOCTYPE svg PUBLIC "-//W3C//DTD SVG 20000303 Stylable//EN" "http://www.w3.org/TR/2000/03/WD-SVG-20000303/DTD/svg-20000303-stylable.dtd"[]><svg xmlns="http://www.w3.org/2000/svg" width="949px" height="999px" viewBox="0 0 947 999"><path style="fill:#e5e5e5;stroke:#4c4c4c;stroke-width:2" d="M110,110 l623,0 0,830 -623,0 0,-830z" /><path style="fill:#999;stroke:#4c4c4c;stroke-width:2" d="M162,940 l415,-415 156,0 0,415 -571,0z" /><path style="fill:#b2b2b2;stroke:#4c4c4c;stroke-width:2" d="M733,110 l207,-104 0,831 -207,103 0,-830z" /><path style="fill:#ccc;stroke:#4c4c4c;stroke-width:2" d="M733,110 l207,-104 -623,0 -207,104 623,0z" /><path style="fill:#d9d9d9;stroke:#4c4c4c;stroke-width:2" d="M542,179 l173,0 0,346 -173,0 0,-346z" /><path style="fill:#cbe5e5" d="M877,107 l58,-29 0,173 -58,28 0,-172z" /><path style="fill:#cbe5e5" d="M808,142 l57,-30 0,173 -57,29 0,-172z" /><path style="fill:#cbe5e5" d="M738,176 l58,-29 0,173 -58,29 0,-173z" /><path style="fill:#cbe5e5" d="M559,196 l139,0 0,139 -139,0 0,-139z" /><path style="fill:#cbe5e5" d="M335,179 l173,0 0,173 -173,0 0,-173z" /><path style="fill:#cbe5e5" d="M127,179 l173,0 0,173 -173,0 0,-173z" /><path style="fill:#b3d9d9" d="M639,282 l-32,35 41,-34 28,-37 -37,36z" /><path style="fill:#b3d9d9" d="M561,197 l0,43 136,-38 0,-5 -136,0z" /><path style="fill:#b3d9d9" d="M434,286 l-40,44 51,-43 35,-46 -46,45z" /><path style="fill:#b3d9d9" d="M336,181 l0,53 170,-48 0,-5 -170,0z" /><path style="fill:#b3d9d9" d="M226,286 l-40,44 52,-43 34,-46 -46,45z" /><path style="fill:#b3d9d9" d="M129,181 l0,53 169,-48 0,-5 -169,0z" /><path style="fill:#b3d9d9" d="M910,197 l-13,50 17,-50 11,-52 -15,52z" /><path style="fill:#b3d9d9" d="M878,108 l0,53 56,-76 0,-5 -56,28z" /><path style="fill:#b3d9d9" d="M841,232 l-14,50 17,-51 12,-52 -15,53z" /><path style="fill:#b3d9d9" d="M808,143 l0,53 57,-76 0,-5 -57,28z" /><path style="fill:#b3d9d9" d="M772,266 l-14,51 17,-51 12,-52 -15,52z" /><path style="fill:#b3d9d9" d="M739,177 l0,53 56,-75 0,-6 -56,28z" /><path style="fill:#fff" d="M657,206 l-37,30 -23,37 35,-39 25,-28z" /><path style="fill:#fff" d="M583,320 l50,-41 33,-51 -49,54 -34,38z" /><path style="fill:#fff" d="M655,320 l18,-15 12,-18 -18,19 -12,14z" /><path style="fill:#fff" d="M456,191 l-45,38 -30,45 44,-47 31,-36z" /><path style="fill:#fff" d="M364,333 l63,-51 40,-63 -61,67 -42,47z" /><path style="fill:#fff" d="M454,333 l23,-18 14,-22 -21,23 -16,17z" /><path style="fill:#fff" d="M248,191 l-45,38 -29,45 44,-47 30,-36z" /><path style="fill:#fff" d="M156,333 l63,-51 41,-63 -62,67 -42,47z" /><path style="fill:#fff" d="M247,333 l22,-18 15,-22 -22,23 -15,17z" /><path style="fill:#fff" d="M918,99 l-16,45 -9,50 14,-55 11,-40z" /><path style="fill:#fff" d="M887,256 l21,-62 13,-69 -20,76 -14,55z" /><path style="fill:#fff" d="M917,241 l7,-22 5,-24 -7,27 -5,19z" /><path style="fill:#fff" d="M848,134 l-15,45 -10,50 15,-55 10,-40z" /><path style="fill:#fff" d="M817,291 l22,-62 13,-70 -20,77 -15,55z" /><path style="fill:#fff" d="M848,276 l7,-22 5,-24 -7,26 -5,20z" /><path style="fill:#fff" d="M779,168 l-15,45 -10,51 15,-55 10,-41z" /><path style="fill:#fff" d="M748,326 l21,-62 14,-70 -21,77 -14,55z" /><path style="fill:#fff" d="M778,311 l8,-22 5,-25 -8,27 -5,20z" /><path style="fill:none;stroke:#fff;stroke-width:2" d="M587,236 l29,-23" /><path style="fill:none;stroke:#fff;stroke-width:2" d="M574,256 l25,-20" /><path style="fill:none;stroke:#fff;stroke-width:2" d="M370,229 l35,-28" /><path style="fill:none;stroke:#fff;stroke-width:2" d="M353,254 l32,-25" /><path style="fill:none;stroke:#fff;stroke-width:2" d="M162,229 l35,-28" /><path style="fill:none;stroke:#fff;stroke-width:2" d="M145,254 l32,-25" /><path style="fill:none;stroke:#fff;stroke-width:2" d="M750,220 l12,-34" /><path style="fill:none;stroke:#fff;stroke-width:2" d="M745,248 l10,-30" /><path style="fill:none;stroke:#fff;stroke-width:2" d="M819,186 l12,-35" /><path style="fill:none;stroke:#fff;stroke-width:2" d="M814,213 l10,-30" /><path style="fill:none;stroke:#fff;stroke-width:2" d="M888,151 l12,-34" /><path style="fill:none;stroke:#fff;stroke-width:2" d="M883,179 l10,-31" /><path style="fill:#7f7f7f;stroke:#4c4c4c;stroke-width:2" d="M542,594 l173,0 0,346 -173,0 0,-346z" /><path style="fill:#cbe5e5" d="M877,522 l58,-29 0,173 -58,29 0,-173z" /><path style="fill:#cbe5e5" d="M808,557 l57,-29 0,173 -57,29 0,-173z" /><path style="fill:#cbe5e5" d="M738,591 l58,-28 0,173 -58,28 0,-173z" /><path style="fill:#cbe5e5" d="M559,611 l139,0 0,139 -139,0 0,-139z" /><path style="fill:#cbe5e5" d="M335,594 l173,0 0,173 -173,0 0,-173z" /><path style="fill:#cbe5e5" d="M127,594 l173,0 0,173 -173,0 0,-173z" /><path style="fill:#b3d9d9" d="M639,697 l-32,35 41,-34 28,-36 -37,35z" /><path style="fill:#b3d9d9" d="M561,613 l0,42 136,-38 0,-4 -136,0z" /><path style="fill:#b3d9d9" d="M434,701 l-40,44 51,-42 35,-46 -46,44z" /><path style="fill:#b3d9d9" d="M336,596 l0,53 170,-47 0,-6 -170,0z" /><path style="fill:#b3d9d9" d="M226,701 l-40,44 52,-42 34,-46 -46,44z" /><path style="fill:#b3d9d9" d="M129,596 l0,53 169,-47 0,-6 -169,0z" /><path style="fill:#b3d9d9" d="M910,612 l-13,51 17,-51 11,-52 -15,52z" /><path style="fill:#b3d9d9" d="M878,523 l0,53 56,-75 0,-6 -56,28z" /><path style="fill:#b3d9d9" d="M841,647 l-14,51 17,-51 12,-52 -15,52z" /><path style="fill:#b3d9d9" d="M808,558 l0,53 57,-75 0,-6 -57,28z" /><path style="fill:#b3d9d9" d="M772,682 l-14,50 17,-50 12,-52 -15,52z" /><path style="fill:#b3d9d9" d="M739,593 l0,53 56,-76 0,-6 -56,29z" /><path style="fill:#fff" d="M657,622 l-37,30 -23,36 35,-38 25,-28z" /><path style="fill:#fff" d="M583,735 l50,-41 33,-50 -49,53 -34,38z" /><path style="fill:#fff" d="M655,735 l18,-14 12,-18 -18,18 -12,14z" /><path style="fill:#fff" d="M456,607 l-45,38 -30,45 44,-48 31,-35z" /><path style="fill:#fff" d="M364,749 l63,-52 40,-62 -61,66 -42,48z" /><path style="fill:#fff" d="M454,749 l23,-18 14,-22 -21,23 -16,17z" /><path style="fill:#fff" d="M248,607 l-45,38 -29,45 44,-48 30,-35z" /><path style="fill:#fff" d="M156,749 l63,-52 41,-62 -62,66 -42,48z" /><path style="fill:#fff" d="M247,749 l22,-18 15,-22 -22,23 -15,17z" /><path style="fill:#fff" d="M918,514 l-16,46 -9,50 14,-55 11,-41z" /><path style="fill:#fff" d="M887,672 l21,-62 13,-70 -20,77 -14,55z" /><path style="fill:#fff" d="M917,657 l7,-22 5,-25 -7,27 -5,20z" /><path style="fill:#fff" d="M848,549 l-15,45 -10,51 15,-56 10,-40z" /><path style="fill:#fff" d="M817,706 l22,-62 13,-69 -20,77 -15,54z" /><path style="fill:#fff" d="M848,691 l7,-22 5,-24 -7,27 -5,19z" /><path style="fill:#fff" d="M779,584 l-15,45 -10,50 15,-55 10,-40z" /><path style="fill:#fff" d="M748,741 l21,-62 14,-69 -21,76 -14,55z" /><path style="fill:#fff" d="M778,726 l8,-22 5,-25 -8,27 -5,20z" /><path style="fill:none;stroke:#fff;stroke-width:2" d="M587,651 l29,-22" /><path style="fill:none;stroke:#fff;stroke-width:2" d="M574,672 l25,-21" /><path style="fill:none;stroke:#fff;stroke-width:2" d="M370,644 l35,-28" /><path style="fill:none;stroke:#fff;stroke-width:2" d="M353,670 l32,-26" /><path style="fill:none;stroke:#fff;stroke-width:2" d="M162,644 l35,-28" /><path style="fill:none;stroke:#fff;stroke-width:2" d="M145,670 l32,-26" /><path style="fill:none;stroke:#fff;stroke-width:2" d="M750,635 l12,-34" /><path style="fill:none;stroke:#fff;stroke-width:2" d="M745,664 l10,-31" /><path style="fill:none;stroke:#fff;stroke-width:2" d="M819,601 l12,-34" /><path style="fill:none;stroke:#fff;stroke-width:2" d="M814,629 l10,-31" /><path style="fill:none;stroke:#fff;stroke-width:2" d="M888,566 l12,-34" /><path style="fill:none;stroke:#fff;stroke-width:2" d="M883,594 l10,-30" /><circle style="fill:#333" cx="559" cy="776" r="8" /><circle style="fill:#333" cx="559" cy="360" r="8" /><path style="fill:none;stroke:#4c4c4c;stroke-width:2" d="M871,40 l0,831" /><path style="fill:none;stroke:#4c4c4c;stroke-width:2" d="M802,75 l0,831" /><path style="fill:none;stroke:#4c4c4c;stroke-width:2" d="M110,525 l623,0 207,-104" /><path style="fill:none;stroke:#4c4c4c;stroke-width:2" d="M525,110 l0,830" /><path style="fill:none;stroke:#4c4c4c;stroke-width:2" d="M317,110 l0,830" /><path style="fill:none;stroke:#4c4c4c;stroke-width:2" d="M559,749 l0,-138 139,0" /><path style="fill:none;stroke:#4c4c4c;stroke-width:2" d="M335,766 l0,-172 173,0" /><path style="fill:none;stroke:#4c4c4c;stroke-width:2" d="M127,766 l0,-172 173,0" /><path style="fill:none;stroke:#4c4c4c;stroke-width:2" d="M738,763 l0,-172 58,-29" /><path style="fill:none;stroke:#4c4c4c;stroke-width:2" d="M808,729 l0,-173 57,-29" /><path style="fill:none;stroke:#4c4c4c;stroke-width:2" d="M877,694 l0,-173 58,-28" /><path style="fill:none;stroke:#4c4c4c;stroke-width:2" d="M559,335 l0,-139 139,0" /><path style="fill:none;stroke:#4c4c4c;stroke-width:2" d="M335,352 l0,-173 173,0" /><path style="fill:none;stroke:#4c4c4c;stroke-width:2" d="M127,352 l0,-173 173,0" /><path style="fill:none;stroke:#4c4c4c;stroke-width:2" d="M738,349 l0,-173 58,-29" /><path style="fill:none;stroke:#4c4c4c;stroke-width:2" d="M808,314 l0,-172 57,-30" /><path style="fill:none;stroke:#4c4c4c;stroke-width:2" d="M877,279 l0,-172 58,-29" /><circle style="fill:#fff" cx="556" cy="357" r="3" /><circle style="fill:#fff" cx="556" cy="773" r="3" /><path style="fill:none;stroke:#fff;stroke-width:2" d="M935,78 l0,173 -58,28" /><path style="fill:none;stroke:#fff;stroke-width:2" d="M865,112 l0,173 -57,29" /><path style="fill:none;stroke:#fff;stroke-width:2" d="M796,147 l0,173 -58,29" /><path style="fill:none;stroke:#fff;stroke-width:2" d="M698,196 l0,139 -139,0" /><path style="fill:none;stroke:#fff;stroke-width:2" d="M508,179 l0,173 -173,0" /><path style="fill:none;stroke:#fff;stroke-width:2" d="M300,179 l0,173 -173,0" /><path style="fill:none;stroke:#fff;stroke-width:2" d="M935,493 l0,173 -58,29" /><path style="fill:none;stroke:#fff;stroke-width:2" d="M865,528 l0,173 -57,29" /><path style="fill:none;stroke:#fff;stroke-width:2" d="M796,563 l0,173 -58,28" /><path style="fill:none;stroke:#fff;stroke-width:2" d="M698,611 l0,139 -139,0" /><path style="fill:none;stroke:#fff;stroke-width:2" d="M508,594 l0,173 -173,0" /><path style="fill:none;stroke:#fff;stroke-width:2" d="M300,594 l0,173 -173,0" /><path style="fill:#4c4c4c;stroke:#4c4c4c;stroke-width:2" d="M525,525 l-415,415 52,0 415,-415 -52,0z" /><path style="fill:#ccc;stroke:#4c4c4c;stroke-width:2" d="M110,940 l0,-26 415,-415 0,26 -415,415z" /><path style="fill:#ccc;stroke:#4c4c4c;stroke-width:2" d="M733,525 l-104,52 -208,0 104,-52 208,0z" /><path style="fill:#7f7f7f;stroke:#4c4c4c;stroke-width:2" d="M421,577 l-415,415 52,0 383,-389 188,0 104,-52 0,-26 -104,52 -208,0z" /><path style="fill:#ccc;stroke:#4c4c4c;stroke-width:2" d="M6,992 l0,-26 415,-415 0,26 -415,415z" /><path style="fill:#fc0;stroke:#4c4c4c;stroke-width:2" d="M421,473 l0,-13 -402,403 0,13 402,-403z" /><path style="fill:#fc0;stroke:#4c4c4c;stroke-width:2" d="M421,382 l0,-13 -402,403 0,13 402,-403z" /><path style="fill:#fc0;stroke:#4c4c4c;stroke-width:2" d="M285,713 l13,-13 0,-207 -13,12 0,208z" /><path style="fill:#fc0;stroke:#4c4c4c;stroke-width:2" d="M142,856 l13,-13 0,-208 -13,13 0,208z" /><path style="fill:#fc0;stroke:#4c4c4c;stroke-width:2" d="M6,992 l13,-13 0,-207 -13,13 0,207z" /><path style="fill:#fc0;stroke:#4c4c4c;stroke-width:2" d="M629,577 l0,-208 104,-53 0,208 -7,3 0,-194 -91,46 0,78 91,-46 0,13 -91,46 0,104 -6,3z" /><path style="fill:#fc0;stroke:#4c4c4c;stroke-width:2" d="M421,577 l0,-208 208,0 0,208 -13,0 0,-195 -182,0 0,78 182,0 0,13 -182,0 0,104 -13,0z" /><path style="fill:#666" d="M606,603 l23,0 0,389 -23,0 0,-389z" /><path style="fill:#e5e5e5" d="M612,603 l11,0 0,389 -11,0 0,-389z" /><path style="fill:none;stroke:#4c4c4c;stroke-width:2" d="M606,603 l23,0 0,389 -23,0 0,-389" /></svg>