<!DOCTYPE svg PUBLIC "-//W3C//DTD SVG 20000303 Stylable//EN" "http://www.w3.org/TR/2000/03/WD-SVG-20000303/DTD/svg-20000303-stylable.dtd"[]><svg xmlns="http://www.w3.org/2000/svg" width="999px" height="723px" viewBox="0 0 999 707"><path style="fill:#e5e5e5;stroke:#4c4c4c;stroke-width:2" d="M0,233 l500,0 0,473 -500,0 0,-473z" /><path style="fill:#b2b2b2;stroke:#4c4c4c;stroke-width:2" d="M996,2 l-496,231 0,473 496,-231 0,-473z" /><path style="fill:none;stroke:#4c4c4c;stroke-width:2" d="M991,4 l0,475 0,-475" /><path style="fill:none;stroke:#7f7f7f;stroke-width:2" d="M511,227 l0,474 0,-474" /><path style="fill:none;stroke:#7f7f7f;stroke-width:2" d="M535,216 l0,474 0,-474" /><path style="fill:none;stroke:#7f7f7f;stroke-width:2" d="M751,115 l0,475 0,-475" /><path style="fill:none;stroke:#7f7f7f;stroke-width:2" d="M967,16 l0,475 0,-475" /><path style="fill:none;stroke:#7f7f7f;stroke-width:2" d="M943,25 l0,477 0,-477" /><path style="fill:none;stroke:#7f7f7f;stroke-width:2" d="M919,37 l0,476 0,-476" /><path style="fill:none;stroke:#7f7f7f;stroke-width:2" d="M895,48 l0,476 0,-476" /><path style="fill:none;stroke:#7f7f7f;stroke-width:2" d="M871,59 l0,476 0,-476" /><path style="fill:none;stroke:#7f7f7f;stroke-width:2" d="M847,70 l0,476 0,-476" /><path style="fill:none;stroke:#7f7f7f;stroke-width:2" d="M823,81 l0,476 0,-476" /><path style="fill:none;stroke:#7f7f7f;stroke-width:2" d="M799,92 l0,476 0,-476" /><path style="fill:none;stroke:#7f7f7f;stroke-width:2" d="M775,103 l0,476 0,-476" /><path style="fill:none;stroke:#7f7f7f;stroke-width:2" d="M727,123 l0,478 0,-478" /><path style="fill:none;stroke:#7f7f7f;stroke-width:2" d="M703,134 l0,479 0,-479" /><path style="fill:none;stroke:#7f7f7f;stroke-width:2" d="M679,145 l0,479 0,-479" /><path style="fill:none;stroke:#7f7f7f;stroke-width:2" d="M655,156 l0,479 0,-479" /><path style="fill:none;stroke:#7f7f7f;stroke-width:2" d="M559,200 l0,479 0,-479" /><path style="fill:none;stroke:#7f7f7f;stroke-width:2" d="M583,188 l0,480 0,-480" /><path style="fill:none;stroke:#7f7f7f;stroke-width:2" d="M607,177 l0,480 0,-480" /><path style="fill:none;stroke:#7f7f7f;stroke-width:2" d="M631,166 l0,480 0,-480" /><path style="fill:none;stroke:#999;stroke-width:2" d="M6,232 l0,475 0,-475" /><path style="fill:none;stroke:#999;stroke-width:2" d="M38,234 l0,473 0,-473" /><path style="fill:none;stroke:#999;stroke-width:2" d="M71,234 l0,473 0,-473" /><path style="fill:none;stroke:#999;stroke-width:2" d="M103,234 l0,473 0,-473" /><path style="fill:none;stroke:#999;stroke-width:2" d="M136,234 l0,473 0,-473" /><path style="fill:none;stroke:#999;stroke-width:2" d="M169,234 l0,473 0,-473" /><path style="fill:none;stroke:#999;stroke-width:2" d="M201,234 l0,473 0,-473" /><path style="fill:none;stroke:#999;stroke-width:2" d="M234,234 l0,473 0,-473" /><path style="fill:none;stroke:#999;stroke-width:2" d="M266,234 l0,473 0,-473" /><path style="fill:none;stroke:#999;stroke-width:2" d="M299,234 l0,473 0,-473" /><path style="fill:none;stroke:#999;stroke-width:2" d="M332,234 l0,473 0,-473" /><path style="fill:none;stroke:#999;stroke-width:2" d="M364,234 l0,473 0,-473" /><path style="fill:none;stroke:#999;stroke-width:2" d="M397,234 l0,473 0,-473" /><path style="fill:none;stroke:#999;stroke-width:2" d="M429,234 l0,473 0,-473" /><path style="fill:none;stroke:#999;stroke-width:2" d="M462,234 l0,473 0,-473" /><path style="fill:none;stroke:#4c4c4c;stroke-width:2" d="M494,232 l0,475 0,-475" /><path style="fill:#f2f2f2;stroke:#4c4c4c;stroke-width:2" d="M266,303 l214,0 0,383 -214,0 0,-383z" /><circle style="fill:#4c4c4c" cx="442" cy="524" r="10" /><path style="fill:#f2f2f2;stroke:#4c4c4c;stroke-width:2" d="M0,232 l501,0 498,-232 -458,0 -541,232z" /><path style="fill:#7f7f7f;stroke:#4c4c4c;stroke-width:2" d="M947,92 l-183,79 0,182 183,-79 0,-182z" /><path style="fill:#7f7f7f;stroke:#4c4c4c;stroke-width:2" d="M733,186 l-182,79 0,182 182,-79 0,-182z" /><path style="fill:#7f7f7f;stroke:#4c4c4c;stroke-width:2" d="M457,334 l-166,0 0,165 166,0 0,-165z" /><path style="fill:#7f7f7f;stroke:#4c4c4c;stroke-width:2" d="M241,297 l-221,0 0,269 221,0 0,-269z" /><path style="fill:#cbe5e5" d="M764,171 l171,-74 0,170 -171,74 0,-170z" /><path style="fill:#cbe5e5" d="M551,265 l170,-74 0,170 -170,74 0,-170z" /><path style="fill:#cbe5e5" d="M301,333 l156,0 0,156 -156,0 0,-156z" /><path style="fill:#cbe5e5" d="M31,296 l208,0 0,255 -208,0 0,-255z" /><path style="fill:#b3d9d9" d="M764,171 l0,53 171,-121 0,-6 -171,74z" /><path style="fill:#b3d9d9" d="M551,265 l0,53 170,-121 0,-6 -170,74z" /><path style="fill:#b3d9d9" d="M303,334 l0,48 153,-42 0,-6 -153,0z" /><path style="fill:#b3d9d9" d="M33,298 l0,64 204,-57 0,-7 -204,0z" /></svg>