<!DOCTYPE svg PUBLIC "-//W3C//DTD SVG 20000303 Stylable//EN" "http://www.w3.org/TR/2000/03/WD-SVG-20000303/DTD/svg-20000303-stylable.dtd"[]><svg xmlns="http://www.w3.org/2000/svg" width="999px" height="999px" viewBox="0 0 999 999"><path style="fill:#ccc;stroke:#4c4c4c;stroke-width:2" d="M5,993 l0,-790 395,-99 395,99 0,790 -790,0z" /><path style="fill:#999;stroke:#4c4c4c;stroke-width:2" d="M795,203 l198,-99 0,790 -198,99 0,-790z" /><path style="fill:#e5e5e5;stroke:#4c4c4c;stroke-width:2" d="M5,203 l198,-99 395,-99 -198,99 -395,99z" /><path style="fill:#b2b2b2;stroke:#4c4c4c;stroke-width:2" d="M400,104 l395,99 198,-99 -395,-99 -198,99z" /><path style="fill:none;stroke:#7f7f7f;stroke-width:2" d="M993,845 l-198,98 -790,0" /><path style="fill:none;stroke:#b2b2b2;stroke-width:2" d="M5,203 l790,0" /><path style="fill:none;stroke:#b2b2b2;stroke-width:2" d="M746,943 l0,-740" /><path style="fill:none;stroke:#b2b2b2;stroke-width:2" d="M647,203 l0,740" /><path style="fill:none;stroke:#b2b2b2;stroke-width:2" d="M548,943 l0,-740" /><path style="fill:none;stroke:#b2b2b2;stroke-width:2" d="M450,203 l0,740" /><path style="fill:none;stroke:#b2b2b2;stroke-width:2" d="M351,943 l0,-740" /><path style="fill:none;stroke:#b2b2b2;stroke-width:2" d="M252,203 l0,740" /><path style="fill:none;stroke:#b2b2b2;stroke-width:2" d="M153,943 l0,-740" /><path style="fill:none;stroke:#b2b2b2;stroke-width:2" d="M55,203 l0,740" /><path style="fill:#bfbfbf;stroke:#4c4c4c;stroke-width:2" d="M277,351 l247,0 0,567 -247,0 0,-567z" /><path style="fill:none;stroke:#7f7f7f;stroke-width:2" d="M968,845 l0,-717" /><path style="fill:none;stroke:#7f7f7f;stroke-width:2" d="M947,139 l0,716" /><path style="fill:none;stroke:#7f7f7f;stroke-width:2" d="M926,866 l0,-716" /><path style="fill:none;stroke:#7f7f7f;stroke-width:2" d="M905,160 l0,716" /><path style="fill:none;stroke:#7f7f7f;stroke-width:2" d="M884,887 l0,-716" /><path style="fill:none;stroke:#7f7f7f;stroke-width:2" d="M862,182 l0,716" /><path style="fill:none;stroke:#7f7f7f;stroke-width:2" d="M841,908 l0,-716" /><path style="fill:none;stroke:#7f7f7f;stroke-width:2" d="M820,203 l0,716" /><path style="fill:#666" d="M518,425 l18,0 0,49 -18,0 0,-49z" /><path style="fill:#666" d="M518,622 l18,0 0,50 -18,0 0,-50z" /><path style="fill:#666" d="M518,845 l18,0 0,-50 -18,0 0,50z" /><path style="fill:#999" d="M289,598 l19,0 0,49 -19,0 0,-49z" /><path style="fill:none;stroke:#7f7f7f;stroke-width:2" d="M326,400 l149,0 0,469 -149,0 0,-469" /></svg>