<!DOCTYPE svg PUBLIC "-//W3C//DTD SVG 20000303 Stylable//EN" "http://www.w3.org/TR/2000/03/WD-SVG-20000303/DTD/svg-20000303-stylable.dtd"[]><svg xmlns="http://www.w3.org/2000/svg" width="999px" height="926px" viewBox="0 0 999 922"><path style="fill:#b2b2b2;stroke:#4c4c4c;stroke-width:2" d="M38,192 l0,730 922,0 0,-730 -461,-154 -461,154z" /><path style="fill:none;stroke:#fff;stroke-width:2" d="M76,902 l0,-710 77,0" /><path style="fill:none;stroke:#4c4c4c;stroke-width:2" d="M153,192 l0,710 -77,0" /><path style="fill:#bfbfbf;stroke:#4c4c4c;stroke-width:2" d="M307,192 l384,0 0,730 -384,0 0,-730z" /><path style="fill:none;stroke:#fff;stroke-width:2" d="M192,902 l0,-710 76,0" /><path style="fill:none;stroke:#4c4c4c;stroke-width:2" d="M268,192 l0,710 -76,0" /><path style="fill:none;stroke:#fff;stroke-width:2" d="M730,902 l0,-710 76,0" /><path style="fill:none;stroke:#4c4c4c;stroke-width:2" d="M806,192 l0,710 -76,0" /><path style="fill:none;stroke:#fff;stroke-width:2" d="M845,902 l0,-710 77,0" /><path style="fill:none;stroke:#4c4c4c;stroke-width:2" d="M922,192 l0,710 -77,0" /><path style="fill:none;stroke:#7f7f7f;stroke-width:2" d="M38,192 l922,0" /><path style="fill:#8c8c8c;stroke:#4c4c4c;stroke-width:2" d="M0,211 l499,-173 500,173 0,-39 -500,-172 -499,172 0,39z" /><path style="fill:none;stroke:#fff;stroke-width:2" d="M345,883 l308,0 0,-653" /><path style="fill:none;stroke:#4c4c4c;stroke-width:2" d="M345,883 l0,-653 308,0" /><path style="fill:none;stroke:#fff;stroke-width:2" d="M384,845 l0,-577 230,0" /><path style="fill:none;stroke:#4c4c4c;stroke-width:2" d="M614,268 l0,577 -230,0" /><path style="fill:#666;stroke:#4c4c4c;stroke-width:2" d="M345,518 l39,0 0,77 -39,0 0,-77z" /><path style="fill:#a6a6a6;stroke:#4c4c4c;stroke-width:2" d="M730,345 l0,39 -116,0 0,-39 116,0z" /><path style="fill:#737373;stroke:#4c4c4c;stroke-width:2" d="M730,355 l0,19 -116,0 0,-19 116,0z" /><path style="fill:#a6a6a6;stroke:#4c4c4c;stroke-width:2" d="M730,730 l0,38 -116,0 0,-38 116,0z" /><path style="fill:#737373;stroke:#4c4c4c;stroke-width:2" d="M730,739 l0,19 -116,0 0,-19 116,0z" /><path style="fill:#333;stroke:#4c4c4c;stroke-width:2" d="M355,556 l5,97 9,0 5,-97 -19,0z" /><path style="fill:#bfbfbf;stroke:#4c4c4c;stroke-width:2" d="M470,76 l58,0 0,77 -58,0 0,-77z" /></svg>