<!DOCTYPE svg PUBLIC "-//W3C//DTD SVG 20000303 Stylable//EN" "http://www.w3.org/TR/2000/03/WD-SVG-20000303/DTD/svg-20000303-stylable.dtd"[]><svg xmlns="http://www.w3.org/2000/svg" width="999px" height="551px" viewBox="0 0 999 524"><path style="fill:#7f7f7f;stroke:#4c4c4c;stroke-width:2" d="M0,26 l897,0 0,498 -897,0 0,-498z" /><path style="fill:none;stroke:#4c4c4c;stroke-width:2" d="M0,26 l897,0 0,498 -897,0 0,-498" /><path style="fill:#999;stroke:#4c4c4c;stroke-width:2" d="M855,26 l37,0 0,498 -37,0 0,-498z" /><path style="fill:#999;stroke:#4c4c4c;stroke-width:2" d="M804,26 l37,0 0,498 -37,0 0,-498z" /><path style="fill:#999;stroke:#4c4c4c;stroke-width:2" d="M756,26 l37,0 0,498 -37,0 0,-498z" /><path style="fill:#999;stroke:#4c4c4c;stroke-width:2" d="M705,26 l38,0 0,498 -38,0 0,-498z" /><path style="fill:#999;stroke:#4c4c4c;stroke-width:2" d="M655,26 l37,0 0,498 -37,0 0,-498z" /><path style="fill:#999;stroke:#4c4c4c;stroke-width:2" d="M604,26 l38,0 0,498 -38,0 0,-498z" /><path style="fill:#999;stroke:#4c4c4c;stroke-width:2" d="M556,26 l38,0 0,498 -38,0 0,-498z" /><path style="fill:#999;stroke:#4c4c4c;stroke-width:2" d="M506,26 l37,0 0,498 -37,0 0,-498z" /><path style="fill:#999;stroke:#4c4c4c;stroke-width:2" d="M455,26 l37,0 0,498 -37,0 0,-498z" /><path style="fill:#999;stroke:#4c4c4c;stroke-width:2" d="M404,26 l38,0 0,498 -38,0 0,-498z" /><path style="fill:#999;stroke:#4c4c4c;stroke-width:2" d="M357,26 l37,0 0,498 -37,0 0,-498z" /><path style="fill:#999;stroke:#4c4c4c;stroke-width:2" d="M306,26 l37,0 0,498 -37,0 0,-498z" /><path style="fill:#999;stroke:#4c4c4c;stroke-width:2" d="M255,26 l38,0 0,498 -38,0 0,-498z" /><path style="fill:#999;stroke:#4c4c4c;stroke-width:2" d="M205,26 l37,0 0,498 -37,0 0,-498z" /><path style="fill:#999;stroke:#4c4c4c;stroke-width:2" d="M157,26 l37,0 0,498 -37,0 0,-498z" /><path style="fill:#999;stroke:#4c4c4c;stroke-width:2" d="M106,26 l37,0 0,498 -37,0 0,-498z" /><path style="fill:#999;stroke:#4c4c4c;stroke-width:2" d="M55,26 l38,0 0,498 -38,0 0,-498z" /><path style="fill:#999;stroke:#4c4c4c;stroke-width:2" d="M5,26 l37,0 0,498 -37,0 0,-498z" /><path style="fill:#666;stroke:#4c4c4c;stroke-width:2" d="M897,524 l102,-69 0,-448 -102,19 0,498z" /><path style="fill:#333;stroke:#4c4c4c;stroke-width:2" d="M0,13 l98,-13 901,0 -102,13 -897,0z" /><path style="fill:#333;stroke:#4c4c4c;stroke-width:2" d="M293,26 l13,0 0,498 -13,0 0,-498z" /><path style="fill:#333;stroke:#4c4c4c;stroke-width:2" d="M594,26 l10,0 0,498 -10,0 0,-498z" /><path style="fill:#333;stroke:#4c4c4c;stroke-width:2" d="M325,250 l98,0 0,274 -98,0 0,-274z" /><path style="fill:#ccc;stroke:#4c4c4c;stroke-width:2" d="M900,26 l99,-19 0,-7 -99,13 0,13z" /><path style="fill:#ccc;stroke:#4c4c4c;stroke-width:2" d="M0,26 l900,0 0,-13 -900,0 0,13z" /><path style="fill:#7f7f7f;stroke:#4c4c4c;stroke-width:2" d="M333,255 l87,0 0,267 -87,0 0,-267z" /><path style="fill:#7f7f7f;stroke:#4c4c4c;stroke-width:2" d="M980,13 l0,453 16,-11 0,-445 -16,3z" /><path style="fill:#7f7f7f;stroke:#4c4c4c;stroke-width:2" d="M961,16 l0,460 16,-8 0,-455 -16,3z" /><path style="fill:#7f7f7f;stroke:#4c4c4c;stroke-width:2" d="M943,18 l0,472 16,-8 0,-466 -16,2z" /><path style="fill:#7f7f7f;stroke:#4c4c4c;stroke-width:2" d="M924,21 l0,482 16,-11 0,-474 -16,3z" /><path style="fill:#7f7f7f;stroke:#4c4c4c;stroke-width:2" d="M905,26 l0,488 16,-8 0,-485 -16,5z" /><circle style="fill:#333;stroke:#4c4c4c;stroke-width:2" cx="409" cy="391" r="5" /></svg>